<?xml version="1.0" encoding="UTF-8"?>
<!--Generator: Apple Native CoreSVG 175.5-->
<!DOCTYPE svg
PUBLIC "-//W3C//DTD SVG 1.1//EN"
       "http://www.w3.org/Graphics/SVG/1.1/DTD/svg11.dtd">
<svg version="1.1" xmlns="http://www.w3.org/2000/svg" xmlns:xlink="http://www.w3.org/1999/xlink" width="3300" height="2200">
 <!--glyph: "uni101544.medium", point size: 100.0, font version: "18.0d9e1", template writer version: "84"-->
 <g id="Notes">
  <rect height="2200" id="artboard" style="fill:white;opacity:1" width="3300" x="0" y="0"/>
  <line style="fill:none;stroke:black;opacity:1;stroke-width:0.5;" x1="263" x2="3036" y1="292" y2="292"/>
  <text style="stroke:none;fill:black;font-family:sans-serif;font-size:13;font-weight:bold;" transform="matrix(1 0 0 1 263 322)">Weight/Scale Variations</text>
  <text style="stroke:none;fill:black;font-family:sans-serif;font-size:13;text-anchor:middle;" transform="matrix(1 0 0 1 559.711 322)">Ultralight</text>
  <text style="stroke:none;fill:black;font-family:sans-serif;font-size:13;text-anchor:middle;" transform="matrix(1 0 0 1 856.422 322)">Thin</text>
  <text style="stroke:none;fill:black;font-family:sans-serif;font-size:13;text-anchor:middle;" transform="matrix(1 0 0 1 1153.13 322)">Light</text>
  <text style="stroke:none;fill:black;font-family:sans-serif;font-size:13;text-anchor:middle;" transform="matrix(1 0 0 1 1449.84 322)">Regular</text>
  <text style="stroke:none;fill:black;font-family:sans-serif;font-size:13;text-anchor:middle;" transform="matrix(1 0 0 1 1746.56 322)">Medium</text>
  <text style="stroke:none;fill:black;font-family:sans-serif;font-size:13;text-anchor:middle;" transform="matrix(1 0 0 1 2043.27 322)">Semibold</text>
  <text style="stroke:none;fill:black;font-family:sans-serif;font-size:13;text-anchor:middle;" transform="matrix(1 0 0 1 2339.98 322)">Bold</text>
  <text style="stroke:none;fill:black;font-family:sans-serif;font-size:13;text-anchor:middle;" transform="matrix(1 0 0 1 2636.69 322)">Heavy</text>
  <text style="stroke:none;fill:black;font-family:sans-serif;font-size:13;text-anchor:middle;" transform="matrix(1 0 0 1 2933.4 322)">Black</text>
  <line style="fill:none;stroke:black;opacity:1;stroke-width:0.5;" x1="263" x2="3036" y1="1903" y2="1903"/>
  <g transform="matrix(1 0 0 1 263 1933)">
   <path d="M9.24805 0.830078Q10.8691 0.830078 12.2949 0.214844Q13.7207-0.400391 14.8096-1.49414Q15.8984-2.58789 16.5186-4.01367Q17.1387-5.43945 17.1387-7.05078Q17.1387-8.66211 16.5186-10.0879Q15.8984-11.5137 14.8047-12.6074Q13.7109-13.7012 12.2852-14.3164Q10.8594-14.9316 9.23828-14.9316Q7.62695-14.9316 6.20117-14.3164Q4.77539-13.7012 3.69141-12.6074Q2.60742-11.5137 1.9873-10.0879Q1.36719-8.66211 1.36719-7.05078Q1.36719-5.43945 1.9873-4.01367Q2.60742-2.58789 3.69629-1.49414Q4.78516-0.400391 6.21094 0.214844Q7.63672 0.830078 9.24805 0.830078ZM9.24805-0.654297Q7.91992-0.654297 6.7627-1.14746Q5.60547-1.64062 4.73145-2.51953Q3.85742-3.39844 3.36426-4.56055Q2.87109-5.72266 2.87109-7.05078Q2.87109-8.37891 3.35938-9.54102Q3.84766-10.7031 4.72168-11.582Q5.5957-12.4609 6.75293-12.9541Q7.91016-13.4473 9.23828-13.4473Q10.5762-13.4473 11.7383-12.9541Q12.9004-12.4609 13.7793-11.582Q14.6582-10.7031 15.1514-9.54102Q15.6445-8.37891 15.6445-7.05078Q15.6445-5.72266 15.1514-4.56055Q14.6582-3.39844 13.7793-2.51953Q12.9004-1.64062 11.7432-1.14746Q10.5859-0.654297 9.24805-0.654297ZM5.6543-7.05078Q5.6543-6.72852 5.85938-6.52832Q6.06445-6.32812 6.40625-6.32812L8.51562-6.32812L8.51562-4.20898Q8.51562-3.88672 8.71094-3.67676Q8.90625-3.4668 9.23828-3.4668Q9.56055-3.4668 9.77051-3.67676Q9.98047-3.88672 9.98047-4.20898L9.98047-6.32812L12.0898-6.32812Q12.4219-6.32812 12.627-6.52832Q12.832-6.72852 12.832-7.05078Q12.832-7.38281 12.627-7.58789Q12.4219-7.79297 12.0898-7.79297L9.98047-7.79297L9.98047-9.90234Q9.98047-10.2344 9.77051-10.4443Q9.56055-10.6543 9.23828-10.6543Q8.90625-10.6543 8.71094-10.4443Q8.51562-10.2344 8.51562-9.90234L8.51562-7.79297L6.40625-7.79297Q6.06445-7.79297 5.85938-7.58789Q5.6543-7.38281 5.6543-7.05078Z"/>
  </g>
  <g transform="matrix(1 0 0 1 281.867 1933)">
   <path d="M11.709 2.91016Q13.75 2.91016 15.5518 2.12891Q17.3535 1.34766 18.7305-0.0292969Q20.1074-1.40625 20.8887-3.20801Q21.6699-5.00977 21.6699-7.05078Q21.6699-9.0918 20.8887-10.8936Q20.1074-12.6953 18.7305-14.0723Q17.3535-15.4492 15.5469-16.2305Q13.7402-17.0117 11.6992-17.0117Q9.6582-17.0117 7.85645-16.2305Q6.05469-15.4492 4.68262-14.0723Q3.31055-12.6953 2.5293-10.8936Q1.74805-9.0918 1.74805-7.05078Q1.74805-5.00977 2.5293-3.20801Q3.31055-1.40625 4.6875-0.0292969Q6.06445 1.34766 7.86621 2.12891Q9.66797 2.91016 11.709 2.91016ZM11.709 1.25Q9.98047 1.25 8.47656 0.605469Q6.97266-0.0390625 5.83496-1.17676Q4.69727-2.31445 4.05762-3.81836Q3.41797-5.32227 3.41797-7.05078Q3.41797-8.7793 4.05762-10.2832Q4.69727-11.7871 5.83008-12.9297Q6.96289-14.0723 8.4668-14.7119Q9.9707-15.3516 11.6992-15.3516Q13.4277-15.3516 14.9365-14.7119Q16.4453-14.0723 17.583-12.9297Q18.7207-11.7871 19.3652-10.2832Q20.0098-8.7793 20.0098-7.05078Q20.0098-5.32227 19.3701-3.81836Q18.7305-2.31445 17.5879-1.17676Q16.4453-0.0390625 14.9414 0.605469Q13.4375 1.25 11.709 1.25ZM7.17773-7.05078Q7.17773-6.69922 7.41211-6.47461Q7.64648-6.25 8.01758-6.25L10.8887-6.25L10.8887-3.36914Q10.8887-2.99805 11.1133-2.76855Q11.3379-2.53906 11.6895-2.53906Q12.0605-2.53906 12.29-2.76855Q12.5195-2.99805 12.5195-3.36914L12.5195-6.25L15.4004-6.25Q15.7715-6.25 16.001-6.47461Q16.2305-6.69922 16.2305-7.05078Q16.2305-7.42188 16.001-7.65137Q15.7715-7.88086 15.4004-7.88086L12.5195-7.88086L12.5195-10.752Q12.5195-11.1328 12.29-11.3623Q12.0605-11.5918 11.6895-11.5918Q11.3379-11.5918 11.1133-11.3574Q10.8887-11.123 10.8887-10.752L10.8887-7.88086L8.01758-7.88086Q7.63672-7.88086 7.40723-7.65137Q7.17773-7.42188 7.17773-7.05078Z"/>
  </g>
  <g transform="matrix(1 0 0 1 305.646 1933)">
   <path d="M14.9707 5.66406Q17.0605 5.66406 18.96 5.01465Q20.8594 4.36523 22.4512 3.19336Q24.043 2.02148 25.2197 0.429688Q26.3965-1.16211 27.0459-3.06641Q27.6953-4.9707 27.6953-7.05078Q27.6953-9.14062 27.0459-11.04Q26.3965-12.9395 25.2197-14.5312Q24.043-16.123 22.4512-17.2998Q20.8594-18.4766 18.9551-19.126Q17.0508-19.7754 14.9609-19.7754Q12.8711-19.7754 10.9717-19.126Q9.07227-18.4766 7.48535-17.2998Q5.89844-16.123 4.72168-14.5312Q3.54492-12.9395 2.90039-11.04Q2.25586-9.14062 2.25586-7.05078Q2.25586-4.9707 2.90527-3.06641Q3.55469-1.16211 4.72656 0.429688Q5.89844 2.02148 7.49023 3.19336Q9.08203 4.36523 10.9814 5.01465Q12.8809 5.66406 14.9707 5.66406ZM14.9707 3.84766Q13.1641 3.84766 11.5283 3.2959Q9.89258 2.74414 8.53516 1.74805Q7.17773 0.751953 6.17676-0.610352Q5.17578-1.97266 4.62891-3.6084Q4.08203-5.24414 4.08203-7.05078Q4.08203-8.86719 4.62891-10.5029Q5.17578-12.1387 6.17188-13.501Q7.16797-14.8633 8.52539-15.8594Q9.88281-16.8555 11.5186-17.4023Q13.1543-17.9492 14.9609-17.9492Q16.7773-17.9492 18.4131-17.4023Q20.0488-16.8555 21.4111-15.8594Q22.7734-14.8633 23.7744-13.501Q24.7754-12.1387 25.3223-10.5029Q25.8691-8.86719 25.8691-7.05078Q25.8691-5.24414 25.3223-3.6084Q24.7754-1.97266 23.7793-0.610352Q22.7832 0.751953 21.4209 1.74805Q20.0586 2.74414 18.4229 3.2959Q16.7871 3.84766 14.9707 3.84766ZM9.19922-7.05078Q9.19922-6.66992 9.45801-6.4209Q9.7168-6.17188 10.1172-6.17188L14.0625-6.17188L14.0625-2.2168Q14.0625-1.81641 14.3115-1.55762Q14.5605-1.29883 14.9512-1.29883Q15.3516-1.29883 15.6104-1.55273Q15.8691-1.80664 15.8691-2.2168L15.8691-6.17188L19.8242-6.17188Q20.2246-6.17188 20.4785-6.4209Q20.7324-6.66992 20.7324-7.05078Q20.7324-7.46094 20.4785-7.71484Q20.2246-7.96875 19.8242-7.96875L15.8691-7.96875L15.8691-11.9141Q15.8691-12.3242 15.6104-12.583Q15.3516-12.8418 14.9512-12.8418Q14.5605-12.8418 14.3115-12.583Q14.0625-12.3242 14.0625-11.9141L14.0625-7.96875L10.1172-7.96875Q9.70703-7.96875 9.45312-7.71484Q9.19922-7.46094 9.19922-7.05078Z"/>
  </g>
  <text style="stroke:none;fill:black;font-family:sans-serif;font-size:13;font-weight:bold;" transform="matrix(1 0 0 1 263 1953)">Design Variations</text>
  <text style="stroke:none;fill:black;font-family:sans-serif;font-size:13;" transform="matrix(1 0 0 1 263 1971)">Symbols are supported in up to nine weights and three scales.</text>
  <text style="stroke:none;fill:black;font-family:sans-serif;font-size:13;" transform="matrix(1 0 0 1 263 1989)">For optimal layout with text and other symbols, vertically align</text>
  <text style="stroke:none;fill:black;font-family:sans-serif;font-size:13;" transform="matrix(1 0 0 1 263 2007)">symbols with the adjacent text.</text>
  <line style="fill:none;stroke:#00AEEF;stroke-width:0.5;opacity:1.0;" x1="776" x2="776" y1="1919" y2="1933"/>
  <g transform="matrix(1 0 0 1 776 1933)">
   <path d="M3.31055 0.15625Q3.70117 0.15625 3.91602-0.00976562Q4.13086-0.175781 4.26758-0.585938L5.52734-4.0332L11.2891-4.0332L12.5488-0.585938Q12.6855-0.175781 12.9004-0.00976562Q13.1152 0.15625 13.4961 0.15625Q13.8867 0.15625 14.1162-0.0585938Q14.3457-0.273438 14.3457-0.644531Q14.3457-0.869141 14.2383-1.17188L9.6582-13.3691Q9.48242-13.8184 9.17969-14.043Q8.87695-14.2676 8.4082-14.2676Q7.5-14.2676 7.17773-13.3789L2.59766-1.16211Q2.49023-0.859375 2.49023-0.634766Q2.49023-0.263672 2.70996-0.0537109Q2.92969 0.15625 3.31055 0.15625ZM6.00586-5.51758L8.37891-12.0898L8.42773-12.0898L10.8008-5.51758Z"/>
  </g>
  <line style="fill:none;stroke:#00AEEF;stroke-width:0.5;opacity:1.0;" x1="793.197" x2="793.197" y1="1919" y2="1933"/>
  <text style="stroke:none;fill:black;font-family:sans-serif;font-size:13;font-weight:bold;" transform="matrix(1 0 0 1 776 1953)">Margins</text>
  <text style="stroke:none;fill:black;font-family:sans-serif;font-size:13;" transform="matrix(1 0 0 1 776 1971)">Leading and trailing margins on the left and right side of each symbol</text>
  <text style="stroke:none;fill:black;font-family:sans-serif;font-size:13;" transform="matrix(1 0 0 1 776 1989)">can be adjusted by modifying the x-location of the margin guidelines.</text>
  <text style="stroke:none;fill:black;font-family:sans-serif;font-size:13;" transform="matrix(1 0 0 1 776 2007)">Modifications are automatically applied proportionally to all</text>
  <text style="stroke:none;fill:black;font-family:sans-serif;font-size:13;" transform="matrix(1 0 0 1 776 2025)">scales and weights.</text>
  <g transform="matrix(1 0 0 1 1289 1933)">
   <path d="M2.8418 1.86523L4.54102 3.57422Q5.18555 4.22852 5.90332 4.17969Q6.62109 4.13086 7.31445 3.35938L18.0078-8.42773L17.041-9.4043L6.42578 2.27539Q6.16211 2.57812 5.89355 2.61719Q5.625 2.65625 5.27344 2.30469L4.10156 1.14258Q3.75 0.791016 3.79395 0.522461Q3.83789 0.253906 4.14062-0.0195312L15.6152-10.8203L14.6387-11.7871L3.04688-0.898438Q2.30469-0.214844 2.25098 0.498047Q2.19727 1.21094 2.8418 1.86523ZM9.25781-16.3281Q8.94531-16.0254 8.90625-15.6348Q8.86719-15.2441 9.04297-14.9512Q9.21875-14.6777 9.55566-14.541Q9.89258-14.4043 10.3809-14.5215Q11.4746-14.7754 12.5977-14.7314Q13.7207-14.6875 14.7949-13.9844L14.209-12.5293Q13.9551-11.9043 14.0674-11.4404Q14.1797-10.9766 14.5801-10.5664L16.875-8.25195Q17.2363-7.88086 17.5781-7.82227Q17.9199-7.76367 18.3398-7.8418L19.4043-8.03711L20.0684-7.36328L20.0293-6.80664Q20-6.43555 20.1221-6.12305Q20.2441-5.81055 20.6055-5.44922L21.3672-4.70703Q21.7285-4.3457 22.1533-4.33105Q22.5781-4.31641 22.9297-4.66797L25.8398-7.58789Q26.1914-7.93945 26.1816-8.35449Q26.1719-8.76953 25.8105-9.13086L25.0391-9.89258Q24.6875-10.2539 24.3799-10.3857Q24.0723-10.5176 23.7109-10.4883L23.1348-10.4395L22.4902-11.0742L22.7344-12.1973Q22.832-12.6172 22.6953-12.9834Q22.5586-13.3496 22.1191-13.7891L19.9219-15.9766Q18.6719-17.2168 17.2607-17.8369Q15.8496-18.457 14.4189-18.4814Q12.9883-18.5059 11.665-17.959Q10.3418-17.4121 9.25781-16.3281ZM10.752-15.957Q11.6602-16.6211 12.7002-16.9043Q13.7402-17.1875 14.8047-17.085Q15.8691-16.9824 16.8701-16.5137Q17.8711-16.0449 18.7012-15.2051L21.1328-12.793Q21.3086-12.6172 21.3525-12.4512Q21.3965-12.2852 21.3379-12.0312L21.0156-10.5469L22.5195-9.0625L23.5059-9.12109Q23.6914-9.13086 23.7891-9.09668Q23.8867-9.0625 24.0332-8.91602L24.6094-8.33984L22.168-5.89844L21.5918-6.47461Q21.4453-6.62109 21.4062-6.71875Q21.3672-6.81641 21.377-7.01172L21.4453-7.98828L19.9512-9.47266L18.4277-9.21875Q18.1836-9.16992 18.042-9.2041Q17.9004-9.23828 17.7148-9.41406L15.7129-11.416Q15.5176-11.5918 15.4932-11.7529Q15.4688-11.9141 15.5859-12.1875L16.4648-14.2773Q15.293-15.3711 13.8281-15.791Q12.3633-16.2109 10.8398-15.7617Q10.7227-15.7324 10.6885-15.8057Q10.6543-15.8789 10.752-15.957Z"/>
  </g>
  <text style="stroke:none;fill:black;font-family:sans-serif;font-size:13;font-weight:bold;" transform="matrix(1 0 0 1 1289 1953)">Exporting</text>
  <text style="stroke:none;fill:black;font-family:sans-serif;font-size:13;" transform="matrix(1 0 0 1 1289 1971)">Symbols should be outlined when exporting to ensure the</text>
  <text style="stroke:none;fill:black;font-family:sans-serif;font-size:13;" transform="matrix(1 0 0 1 1289 1989)">design is preserved when submitting to Xcode.</text>
  <text id="template-version" style="stroke:none;fill:black;font-family:sans-serif;font-size:13;text-anchor:end;" transform="matrix(1 0 0 1 3036 1933)">Template v.2.0</text>
  <text style="stroke:none;fill:black;font-family:sans-serif;font-size:13;text-anchor:end;" transform="matrix(1 0 0 1 3036 1951)">Requires Xcode 12 or greater</text>
  <text id="descriptive-name" style="stroke:none;fill:black;font-family:sans-serif;font-size:13;text-anchor:end;" transform="matrix(1 0 0 1 3036 1969)">Generated from figure.step.training</text>
  <text style="stroke:none;fill:black;font-family:sans-serif;font-size:13;text-anchor:end;" transform="matrix(1 0 0 1 3036 1987)">Typeset at 100 points</text>
  <text style="stroke:none;fill:black;font-family:sans-serif;font-size:13;" transform="matrix(1 0 0 1 263 726)">Small</text>
  <text style="stroke:none;fill:black;font-family:sans-serif;font-size:13;" transform="matrix(1 0 0 1 263 1156)">Medium</text>
  <text style="stroke:none;fill:black;font-family:sans-serif;font-size:13;" transform="matrix(1 0 0 1 263 1586)">Large</text>
 </g>
 <g id="Guides">
  <g id="H-reference" style="fill:#27AAE1;stroke:none;" transform="matrix(1 0 0 1 339 696)">
   <path d="M0.993347 0L3.6377 0L29.3282-67.1326L30.0301-67.1326L30.0301-70.459L28.1227-70.459ZM11.6882-24.4797L46.9818-24.4797L46.2311-26.7288L12.4382-26.7288ZM55.1193 0L57.7637 0L30.6381-70.459L29.4327-70.459L29.4327-67.1326Z"/>
  </g>
  <line id="Baseline-S" style="fill:none;stroke:#27AAE1;opacity:1;stroke-width:0.5;" x1="263" x2="3036" y1="696" y2="696"/>
  <line id="Capline-S" style="fill:none;stroke:#27AAE1;opacity:1;stroke-width:0.5;" x1="263" x2="3036" y1="625.541" y2="625.541"/>
  <g id="H-reference" style="fill:#27AAE1;stroke:none;" transform="matrix(1 0 0 1 339 1126)">
   <path d="M0.993347 0L3.6377 0L29.3282-67.1326L30.0301-67.1326L30.0301-70.459L28.1227-70.459ZM11.6882-24.4797L46.9818-24.4797L46.2311-26.7288L12.4382-26.7288ZM55.1193 0L57.7637 0L30.6381-70.459L29.4327-70.459L29.4327-67.1326Z"/>
  </g>
  <line id="Baseline-M" style="fill:none;stroke:#27AAE1;opacity:1;stroke-width:0.5;" x1="263" x2="3036" y1="1126" y2="1126"/>
  <line id="Capline-M" style="fill:none;stroke:#27AAE1;opacity:1;stroke-width:0.5;" x1="263" x2="3036" y1="1055.54" y2="1055.54"/>
  <g id="H-reference" style="fill:#27AAE1;stroke:none;" transform="matrix(1 0 0 1 339 1556)">
   <path d="M0.993347 0L3.6377 0L29.3282-67.1326L30.0301-67.1326L30.0301-70.459L28.1227-70.459ZM11.6882-24.4797L46.9818-24.4797L46.2311-26.7288L12.4382-26.7288ZM55.1193 0L57.7637 0L30.6381-70.459L29.4327-70.459L29.4327-67.1326Z"/>
  </g>
  <line id="Baseline-L" style="fill:none;stroke:#27AAE1;opacity:1;stroke-width:0.5;" x1="263" x2="3036" y1="1556" y2="1556"/>
  <line id="Capline-L" style="fill:none;stroke:#27AAE1;opacity:1;stroke-width:0.5;" x1="263" x2="3036" y1="1485.54" y2="1485.54"/>
  <line id="left-margin" style="fill:none;stroke:#00AEEF;stroke-width:0.5;opacity:1.0;" x1="1394.61" x2="1394.61" y1="1030.79" y2="1150.12"/>
  <line id="right-margin" style="fill:none;stroke:#00AEEF;stroke-width:0.5;opacity:1.0;" x1="1505.07" x2="1505.07" y1="1030.79" y2="1150.12"/>
 </g>
 <g id="Symbols">
  <g id="Black-L" transform="matrix(1 0 0 1 2858.08 1556)">
   <path d="M74.0855-87.9675Q80.4514-87.9675 85.0141-92.5302Q89.5768-97.0929 89.5768-103.458Q89.5768-109.882 85.0141-114.416Q80.4514-118.95 74.0855-118.95Q67.682-118.95 63.1381-114.416Q58.5942-109.882 58.5942-103.458Q58.5942-97.0929 63.1381-92.5302Q67.682-87.9675 74.0855-87.9675ZM22.4722-35.4512Q25.3485-34.9699 28.1735-36.419Q30.9986-37.8681 31.816-41.4606L37.2177-65.6155L45.8621-65.6155Q46.3962-65.6155 46.6951-65.2257Q46.9941-64.836 46.8696-64.2434L40.3068-39.1167Q38.846-33.4733 40.6967-28.4904Q42.5473-23.5074 47.2196-20.9958Q51.8919-18.4842 58.9376-20.1862L81.4146-25.7564L77.0131-4.24207Q76.3345-1.00774 78.1814 1.77709Q80.0282 4.56193 83.2613 5.18209Q85.8987 5.72181 88.9022 4.06444Q91.9057 2.40707 92.5854-1.06733L99.3443-34.8017Q100.184-39.0363 97.3185-41.8905Q94.4532-44.7448 90.818-44.3659L70.9536-42.4746L76.6483-64.1263Q76.7728-64.7321 77.2689-64.9771Q77.7651-65.2222 78.3124-65.0394L102.301-55.9651Q106.177-54.5263 109.579-56.4724Q112.981-58.4184 112.981-62.5714L112.981-93.8175Q112.981-97.0518 110.656-99.3878Q108.331-101.724 104.996-101.724Q101.762-101.724 99.425-99.3878Q97.0885-97.0518 97.0885-93.8175L97.0885-74.8742L86.0507-79.1445Q82.8243-80.3848 79.4183-80.9472Q76.0123-81.5095 72.5446-81.5095L30.7283-81.5095Q28.0128-81.5095 25.8377-79.7425Q23.6626-77.9755 23.0633-75.2601L16.3032-44.935Q15.5651-41.6798 17.3613-38.8542Q19.1575-36.0285 22.4722-35.4512ZM52.8778 45.7141Q55.5932 46.2539 58.5681 44.5965Q61.543 42.9391 62.2007 39.4855L68.7856 6.27682Q68.9232 5.52546 68.9822 4.88652Q69.0412 4.24759 69.0412 3.61186L69.0412-14.9306L60.7528-12.8705Q55.6824-11.5718 51.029-12.1479L53.2068 3.79471L46.6868 36.2304Q46.0082 39.4063 47.7862 42.2021Q49.5642 44.998 52.8778 45.7141ZM81.2181 30.5286L122.765 30.5286Q125.139 30.5286 126.81 28.8581Q128.481 27.1875 128.481 24.8341Q128.481 22.46 126.81 20.7894Q125.139 19.1189 122.765 19.1189L81.2181 19.1189Q78.8647 19.1189 77.1942 20.7894Q75.5236 22.46 75.5236 24.8341Q75.5236 27.1875 77.1942 28.8581Q78.8647 30.5286 81.2181 30.5286ZM73.8363 48.291L128.86 48.291Q131.214 48.291 132.884 46.6205Q134.555 44.9499 134.555 42.5966Q134.555 40.2224 132.884 38.5512Q131.214 36.8801 128.86 36.8801L73.8363 36.8801Q71.4622 36.8801 69.7916 38.5512Q68.121 40.2224 68.121 42.5966Q68.121 44.9499 69.7916 46.6205Q71.4622 48.291 73.8363 48.291Z"/>
  </g>
  <g id="Heavy-L" transform="matrix(1 0 0 1 2562.44 1556)">
   <path d="M73.1968-87.2151Q79.3941-87.2151 83.8244-91.6455Q88.2547-96.0758 88.2547-102.267Q88.2547-108.509 83.8244-112.92Q79.3941-117.331 73.1968-117.331Q66.9852-117.331 62.5621-112.92Q58.139-108.509 58.139-102.267Q58.139-96.0758 62.5621-91.6455Q66.9852-87.2151 73.1968-87.2151ZM22.1701-35.7836Q24.9228-35.3067 27.6174-36.701Q30.312-38.0952 31.0837-41.509L36.4683-65.5684L45.2983-65.5684Q45.9152-65.5684 46.2718-65.1163Q46.6283-64.6643 46.4763-64.0028L39.9625-39.0681Q38.5476-33.5891 40.3412-28.7523Q42.1347-23.9155 46.6678-21.4769Q51.2009-19.0384 58.0502-20.6946L80.6472-26.3028L76.2308-4.65961Q75.5843-1.5764 77.3465 1.07802Q79.1087 3.73245 82.1862 4.33445Q84.709 4.85593 87.566 3.27412Q90.4231 1.69231 91.0753-1.62659L97.7531-34.9362Q98.5605-38.9877 95.8257-41.7046Q93.0908-44.4216 89.6111-44.0609L69.6366-42.1509L75.3969-64.0605Q75.5489-64.6893 76.0751-64.962Q76.6013-65.2346 77.1856-65.038L101.033-56.0123Q104.748-54.6331 107.979-56.4829Q111.209-58.3328 111.209-62.2982L111.209-93.1373Q111.209-96.2205 108.999-98.4489Q106.788-100.677 103.594-100.677Q100.511-100.677 98.2799-98.4489Q96.0486-96.2205 96.0486-93.1373L96.0486-74.0563L84.8014-78.4103Q81.6341-79.6142 78.2986-80.1744Q74.9632-80.7345 71.5545-80.7345L30.2717-80.7345Q27.6797-80.7345 25.6122-79.0499Q23.5446-77.3653 22.9729-74.7735L16.2894-44.8279Q15.5926-41.7145 17.2995-39.017Q19.0063-36.3195 22.1701-35.7836ZM52.196 44.3418Q54.788 44.8634 57.6256 43.2815Q60.4632 41.6997 61.0795 38.411L67.629 5.50305Q67.7485 4.83878 67.7959 4.22963Q67.8433 3.62049 67.8433 3.0399L67.8433-15.739L59.7788-13.7523Q54.9368-12.5038 50.4989-13.0341L52.7274 3.23653L46.2796 35.2976Q45.6331 38.3362 47.3355 41.0085Q49.038 43.6808 52.196 44.3418ZM79.5906 29.7739L121.132 29.7739Q123.284 29.7739 124.789 28.2719Q126.294 26.7698 126.294 24.6486Q126.294 22.4973 124.789 20.9953Q123.284 19.4932 121.132 19.4932L79.5906 19.4932Q77.4695 19.4932 75.9674 20.9953Q74.4653 22.4973 74.4653 24.6486Q74.4653 26.7698 75.9674 28.2719Q77.4695 29.7739 79.5906 29.7739ZM72.4465 46.6618L127.289 46.6618Q129.41 46.6618 130.912 45.1597Q132.415 43.6576 132.415 41.5365Q132.415 39.3852 130.912 37.8803Q129.41 36.3754 127.289 36.3754L72.4465 36.3754Q70.2952 36.3754 68.7931 37.8803Q67.291 39.3852 67.291 41.5365Q67.291 43.6576 68.7931 45.1597Q70.2952 46.6618 72.4465 46.6618Z"/>
  </g>
  <g id="Bold-L" transform="matrix(1 0 0 1 2267.14 1556)">
   <path d="M72.0234-86.2183Q78.0132-86.2183 82.282-90.4872Q86.5508-94.7561 86.5508-100.733Q86.5508-106.751 82.282-111.012Q78.0132-115.273 72.0234-115.273Q66.0425-115.273 61.7693-111.012Q57.496-106.751 57.496-100.733Q57.496-94.7561 61.7693-90.4872Q66.0425-86.2183 72.0234-86.2183ZM21.816-36.1313Q24.4224-35.6621 26.9632-36.991Q29.5039-38.3198 30.2217-41.5258L35.5684-65.3953L44.5767-65.3953Q45.2861-65.3953 45.7044-64.8775Q46.1227-64.3597 45.9399-63.6211L39.5025-38.9843Q38.1415-33.7051 39.8658-29.0452Q41.5902-24.3853 45.9541-22.0352Q50.3181-19.685 56.929-21.2875L79.5827-26.9194L75.1658-5.2043Q74.5577-2.2982 76.2199 0.202318Q77.882 2.70284 80.7748 3.28186Q83.1666 3.78025 85.8505 2.28699Q88.5344 0.793729 89.1558-2.34052L95.7189-35.0678Q96.4878-38.9038 93.9068-41.4592Q91.3259-44.0145 88.0308-43.677L68-41.7513L73.8151-63.8717Q73.9979-64.5238 74.555-64.8273Q75.1122-65.1307 75.735-64.9187L99.3457-55.9768Q102.869-54.6668 105.899-56.4051Q108.93-58.1433 108.93-61.8855L108.93-92.173Q108.93-95.0791 106.854-97.1804Q104.778-99.2818 101.753-99.2818Q98.8473-99.2818 96.7392-97.1804Q94.6312-95.0791 94.6312-92.173L94.6312-73.0048L83.1897-77.4364Q80.0993-78.5942 76.8521-79.1506Q73.6049-79.707 70.273-79.707L29.7181-79.707Q27.2723-79.707 25.3317-78.1186Q23.3912-76.5302 22.8503-74.0846L16.274-44.66Q15.6235-41.7158 17.2264-39.1684Q18.8292-36.621 21.816-36.1313ZM51.321 42.5765Q53.7668 43.0751 56.4428 41.5818Q59.1187 40.0884 59.6889 36.9922L66.1773 4.52775Q66.2738 3.96355 66.3095 3.38908Q66.3453 2.81461 66.3453 2.2957L66.3453-16.7156L58.5501-14.8137Q53.9848-13.6267 49.7935-14.103L52.0761 2.50776L45.7278 34.048Q45.1198 36.9249 46.7337 39.4511Q48.3476 41.9772 51.321 42.5765ZM77.5774 28.7397L118.977 28.7397Q120.845 28.7397 122.142 27.4489Q123.44 26.158 123.44 24.3287Q123.44 22.4615 122.142 21.1706Q120.845 19.8798 118.977 19.8798L77.5774 19.8798Q75.7481 19.8798 74.4572 21.1706Q73.1664 22.4615 73.1664 24.3287Q73.1664 26.158 74.4572 27.4489Q75.7481 28.7397 77.5774 28.7397ZM70.7178 44.6037L125.181 44.6037Q127.011 44.6037 128.301 43.3129Q129.592 42.022 129.592 40.1927Q129.592 38.3255 128.301 37.028Q127.011 35.7305 125.181 35.7305L70.7178 35.7305Q68.8506 35.7305 67.5598 37.028Q66.2689 38.3255 66.2689 40.1927Q66.2689 42.022 67.5598 43.3129Q68.8506 44.6037 70.7178 44.6037Z"/>
  </g>
  <g id="Semibold-L" transform="matrix(1 0 0 1 1971.4 1556)">
   <path d="M71.2145-85.531Q77.0613-85.531 81.2188-89.6886Q85.3762-93.8463 85.3762-99.6744Q85.3762-105.539 81.2188-109.697Q77.0613-113.854 71.2145-113.854Q65.3926-113.854 61.2227-109.697Q57.0528-105.539 57.0528-99.6744Q57.0528-93.8463 61.2227-89.6886Q65.3926-85.531 71.2145-85.531ZM21.5719-36.371Q24.0775-35.9071 26.5121-37.1909Q28.9467-38.4746 29.6275-41.5373L34.948-65.2759L44.0793-65.2759Q44.8524-65.2759 45.3133-64.7129Q45.7742-64.1498 45.5701-63.3581L39.1853-38.9265Q37.8615-33.7851 39.5382-29.2472Q41.2148-24.7093 45.4622-22.42Q49.7095-20.1308 56.1561-21.6962L78.8488-27.3445L74.4315-5.57981Q73.85-2.7958 75.4432-0.401388Q77.0364 1.99303 79.8018 2.55622Q82.1034 3.03868 84.6679 1.60647Q87.2324 0.174252 87.8325-2.8327L94.3165-35.1586Q95.0588-38.8461 92.584-41.29Q90.1091-43.7339 86.9414-43.4123L66.8718-41.4759L72.7245-63.7416Q72.9286-64.4096 73.5071-64.7344Q74.0855-65.0591 74.735-64.8364L98.1827-55.9524Q101.573-54.6901 104.466-56.3514Q107.358-58.0127 107.358-61.6011L107.358-91.5082Q107.358-94.2922 105.375-96.306Q103.392-98.3198 100.484-98.3198Q97.7003-98.3198 95.6771-96.306Q93.654-94.2922 93.654-91.5082L93.654-72.28L82.0786-76.765Q79.0412-77.8911 75.8549-78.4448Q72.6686-78.9986 69.3895-78.9986L29.3365-78.9986Q26.9914-78.9986 25.1384-77.4765Q23.2854-75.9545 22.7657-73.6097L16.2634-44.5443Q15.6447-41.7167 17.1759-39.2728Q18.7072-36.8288 21.5719-36.371ZM50.7178 41.3595Q53.0628 41.8423 55.6274 40.4099Q58.1919 38.9776 58.7301 36.0141L65.1765 3.85539Q65.2571 3.36017 65.2849 2.80961Q65.3126 2.25905 65.3126 1.78265L65.3126-17.3889L57.703-15.5454Q53.3285-14.4008 49.3071-14.84L51.6271 2.00534L45.3474 33.1866Q44.766 35.952 46.3188 38.3774Q47.8716 40.8027 50.7178 41.3595ZM76.1895 28.0267L117.492 28.0267Q119.163 28.0267 120.318 26.8815Q121.472 25.7363 121.472 24.1081Q121.472 22.4368 120.318 21.2916Q119.163 20.1463 117.492 20.1463L76.1895 20.1463Q74.5613 20.1463 73.4161 21.2916Q72.2709 22.4368 72.2709 24.1081Q72.2709 25.7363 73.4161 26.8815Q74.5613 28.0267 76.1895 28.0267ZM69.5261 43.1849L123.728 43.1849Q125.356 43.1849 126.501 42.0397Q127.647 40.8945 127.647 39.2663Q127.647 37.5949 126.501 36.4404Q125.356 35.2859 123.728 35.2859L69.5261 35.2859Q67.8547 35.2859 66.7095 36.4404Q65.5643 37.5949 65.5643 39.2663Q65.5643 40.8945 66.7095 42.0397Q67.8547 43.1849 69.5261 43.1849Z"/>
  </g>
  <g id="Medium-L" transform="matrix(1 0 0 1 1675.43 1556)">
   <path d="M70.6011-85.0099Q76.3395-85.0099 80.4125-89.0832Q84.4856-93.1564 84.4856-98.8721Q84.4856-104.621 80.4125-108.7Q76.3395-112.779 70.6011-112.779Q64.8999-112.779 60.8083-108.7Q56.7166-104.621 56.7166-98.8721Q56.7166-93.1564 60.8083-89.0832Q64.8999-85.0099 70.6011-85.0099ZM21.3868-36.5528Q23.816-36.0929 26.1701-37.3424Q28.5243-38.592 29.1769-41.5461L34.4776-65.1854L43.7021-65.1854Q44.5236-65.1854 45.0168-64.588Q45.5099-63.9906 45.2897-63.1586L38.9448-38.8827Q37.6492-33.8458 39.2897-29.4003Q40.9302-24.9549 45.0891-22.7119Q49.248-20.4688 55.57-22.0061L78.2924-27.6668L73.8747-5.86454Q73.3134-3.17311 74.8543-0.859144Q76.3952 1.45482 79.064 2.006Q81.2972 2.47639 83.7711 1.09047Q86.2451-0.295461 86.8291-3.20589L93.2532-35.2274Q93.9753-38.8022 91.5809-41.1617Q89.1866-43.5211 86.1153-43.2115L66.0163-41.267L71.8977-63.643Q72.1179-64.3231 72.7125-64.664Q73.3071-65.0048 73.9767-64.7741L97.301-55.9338Q100.591-54.7077 103.379-56.3107Q106.166-57.9136 106.166-61.3854L106.166-91.0041Q106.166-93.6955 104.254-95.643Q102.342-97.5904 99.522-97.5904Q96.8306-97.5904 94.8718-95.643Q92.9131-93.6955 92.9131-91.0041L92.9131-71.7303L81.2361-76.2559Q78.2388-77.3579 75.0987-77.9097Q71.9586-78.4615 68.7196-78.4615L29.0471-78.4615Q26.7784-78.4615 24.9918-76.9897Q23.2052-75.5179 22.7017-73.2496L16.2553-44.4565Q15.6609-41.7174 17.1377-39.3519Q18.6146-36.9864 21.3868-36.5528ZM50.2603 40.4367Q52.529 40.9075 55.0091 39.5214Q57.4891 38.1353 58.0032 35.2725L64.4176 3.34557Q64.4863 2.90266 64.5079 2.37023Q64.5296 1.83779 64.5296 1.39364L64.5296-17.8994L57.0607-16.1003Q52.8309-14.9877 48.9384-15.3987L51.2867 1.62439L45.059 32.5334Q44.4976 35.2143 46.0042 37.5633Q47.5108 39.9122 50.2603 40.4367ZM75.1371 27.4861L116.365 27.4861Q117.888 27.4861 118.934 26.4513Q119.98 25.4165 119.98 23.9409Q119.98 22.418 118.934 21.3832Q117.888 20.3484 116.365 20.3484L75.1371 20.3484Q73.6615 20.3484 72.6267 21.3832Q71.592 22.418 71.592 23.9409Q71.592 25.4165 72.6267 26.4513Q73.6615 27.4861 75.1371 27.4861ZM68.6224 42.109L122.626 42.109Q124.102 42.109 125.136 41.0743Q126.171 40.0395 126.171 38.5639Q126.171 37.041 125.136 35.9949Q124.102 34.9488 122.626 34.9488L68.6224 34.9488Q67.0996 34.9488 66.0648 35.9949Q65.03 37.041 65.03 38.5639Q65.03 40.0395 66.0648 41.0743Q67.0996 42.109 68.6224 42.109Z"/>
  </g>
  <g id="Regular-L" transform="matrix(1 0 0 1 1379.68 1556)">
   <path d="M69.8011-84.3302Q75.398-84.3302 79.3609-88.2934Q83.3239-92.2566 83.3239-97.8256Q83.3239-103.422 79.3609-107.399Q75.398-111.376 69.8011-111.376Q64.2571-111.376 60.2677-107.399Q56.2782-103.422 56.2782-97.8256Q56.2782-92.2566 60.2677-88.2934Q64.2571-84.3302 69.8011-84.3302ZM21.1454-36.7899Q23.4748-36.3352 25.7241-37.5402Q27.9733-38.7451 28.5892-41.5575L33.864-65.0674L43.2101-65.0674Q44.0947-65.0674 44.63-64.4252Q45.1653-63.783 44.924-62.8984L38.6312-38.8255Q37.3723-33.9249 38.9656-29.6001Q40.559-25.2753 44.6026-23.0925Q48.6461-20.9098 54.8056-22.4103L77.5666-28.0872L73.1485-6.23592Q72.6135-3.66524 74.0862-1.45622Q75.5588 0.752809 78.1016 1.28833Q80.2456 1.74297 82.6015 0.417421Q84.9574-0.90813 85.5204-3.69266L91.8662-35.3172Q92.5621-38.7451 90.2726-40.9943Q87.9832-43.2436 85.0378-42.9498L64.9005-40.9945L70.8191-63.5143Q71.0604-64.2102 71.6761-64.5721Q72.2918-64.934 72.9877-64.6927L96.1508-55.9096Q99.3096-54.7308 101.961-56.2576Q104.612-57.7844 104.612-61.104L104.612-90.3466Q104.612-92.9173 102.792-94.7781Q100.971-96.639 98.2669-96.639Q95.6962-96.639 93.8214-94.7781Q91.9466-92.9173 91.9466-90.3466L91.9466-71.0134L80.1373-75.5919Q77.1924-76.6625 74.1124-77.2117Q71.0325-77.7609 67.8459-77.7609L28.6697-77.7609Q26.5006-77.7609 24.8006-76.3547Q23.1006-74.9485 22.6181-72.7799L16.2448-44.342Q15.6819-41.7183 17.0879-39.4552Q18.4938-37.192 21.1454-36.7899ZM49.6637 39.2331Q51.8328 39.6882 54.2026 38.3624Q56.5725 37.0367 57.055 34.3051L63.4278 2.6806Q63.4808 2.30591 63.4945 1.79712Q63.5082 1.28833 63.5082 0.886233L63.5082-18.5653L56.2229-16.8239Q52.1819-15.7534 48.4574-16.1276L50.8426 1.12749L44.6827 31.6814Q44.1477 34.2521 45.5939 36.5014Q47.04 38.7506 49.6637 39.2331ZM73.7645 26.7809L114.896 26.7809Q116.225 26.7809 117.13 25.8901Q118.034 24.9994 118.034 23.7227Q118.034 22.3936 117.13 21.5028Q116.225 20.6121 114.896 20.6121L73.7645 20.6121Q72.4878 20.6121 71.5971 21.5028Q70.7063 22.3936 70.7063 23.7227Q70.7063 24.9994 71.5971 25.8901Q72.4878 26.7809 73.7645 26.7809ZM67.4438 40.7058L121.189 40.7058Q122.465 40.7058 123.356 39.815Q124.247 38.9243 124.247 37.6477Q124.247 36.3185 123.356 35.4138Q122.465 34.5091 121.189 34.5091L67.4438 34.5091Q66.1146 34.5091 65.2238 35.4138Q64.3331 36.3185 64.3331 37.6477Q64.3331 38.9243 65.2238 39.815Q66.1146 40.7058 67.4438 40.7058Z"/>
  </g>
  <g id="Light-L" transform="matrix(1 0 0 1 1084.49 1556)">
   <path d="M68.5223-83.2233Q73.9858-83.2233 77.8532-87.0911Q81.7206-90.9589 81.7206-96.3753Q81.7206-101.838 77.8532-105.729Q73.9858-109.62 68.5223-109.62Q63.0928-109.62 59.2084-105.729Q55.324-101.838 55.324-96.3753Q55.324-90.9589 59.2084-87.0911Q63.0928-83.2233 68.5223-83.2233ZM21.0309-36.618Q23.3029-36.1826 25.4949-37.3588Q27.6869-38.5351 28.284-41.2904L33.425-64.2087L42.561-64.2087Q43.4457-64.2087 43.9619-63.595Q44.4781-62.9814 44.2368-62.0967L38.0966-38.6155Q36.857-33.8294 38.4122-29.6001Q39.9673-25.3708 43.9155-23.2357Q47.8637-21.1005 53.8894-22.5822L76.097-28.1254L71.7934-6.78938Q71.2776-4.27609 72.7121-2.1243Q74.1467 0.0274854 76.6128 0.544091Q78.7378 0.979491 81.0269-0.317361Q83.316-1.61421 83.8789-4.32242L90.0532-35.1835Q90.7299-38.5351 88.4977-40.7271Q86.2654-42.919 83.3964-42.6445L63.7362-40.7274L69.5214-62.6938Q69.7627-63.3704 70.3593-63.7323Q70.9559-64.0942 71.6326-63.8529L94.2423-55.2799Q97.3055-54.1199 99.8996-55.6182Q102.494-57.1165 102.494-60.3405L102.494-88.8963Q102.494-91.4095 100.721-93.2226Q98.9479-95.0357 96.3202-95.0357Q93.8069-95.0357 91.9702-93.2226Q90.1336-91.4095 90.1336-88.8963L90.1336-70.0403L78.6103-74.5039Q75.742-75.5363 72.7288-76.0761Q69.7156-76.6159 66.6052-76.6159L28.3644-76.6159Q26.2524-76.6159 24.6002-75.2382Q22.948-73.8605 22.4654-71.7493L16.2448-43.9986Q15.6819-41.4512 17.0592-39.2357Q18.4364-37.0201 21.0309-36.618ZM48.8621 37.5917Q50.9741 38.0279 53.2867 36.7306Q55.5993 35.4334 56.0818 32.7593L62.3017 1.8982Q62.3358 1.54243 62.3589 1.04326Q62.3821 0.544091 62.3821 0.141991L62.3821-19.0806L55.2305-17.3585Q51.3421-16.326 47.6558-16.681L50.0221 0.383251L43.9956 30.2119Q43.4798 32.7252 44.8972 34.9172Q46.3147 37.1092 48.8621 37.5917ZM72.3905 25.4258L112.548 25.4258Q113.629 25.4258 114.381 24.6973Q115.133 23.9688 115.133 22.9211Q115.133 21.8401 114.381 21.1116Q113.629 20.3831 112.548 20.3831L72.3905 20.3831Q71.3428 20.3831 70.6143 21.1116Q69.8858 21.8401 69.8858 22.9211Q69.8858 23.9688 70.6143 24.6973Q71.3428 25.4258 72.3905 25.4258ZM66.2031 39.0262L118.689 39.0262Q119.736 39.0262 120.465 38.2977Q121.193 37.5692 121.193 36.5215Q121.193 35.4405 120.465 34.6885Q119.736 33.9364 118.689 33.9364L66.2031 33.9364Q65.1222 33.9364 64.3937 34.6885Q63.6652 35.4405 63.6652 36.5215Q63.6652 37.5692 64.3937 38.2977Q65.1222 39.0262 66.2031 39.0262Z"/>
  </g>
  <g id="Thin-L" transform="matrix(1 0 0 1 789.803 1556)">
   <path d="M66.831-81.7594Q72.1181-81.7594 75.8591-85.501Q79.6001-89.2426 79.6001-94.4571Q79.6001-99.743 75.8591-103.52Q72.1181-107.298 66.831-107.298Q61.553-107.298 57.8074-103.52Q54.0619-99.743 54.0619-94.4571Q54.0619-89.2426 57.8074-85.501Q61.553-81.7594 66.831-81.7594ZM20.8795-36.3907Q23.0756-35.9807 25.1919-37.119Q27.3082-38.2573 27.8802-40.9371L32.8445-63.073L41.7027-63.073Q42.5873-63.073 43.0783-62.497Q43.5693-61.9211 43.328-61.0365L37.3897-38.3377Q36.1755-33.703 37.6802-29.6001Q39.1849-25.4972 43.0069-23.425Q46.829-21.3529 52.6778-22.8095L74.1534-28.1758L70.0012-7.52136Q69.5108-5.08399 70.8949-3.0079Q72.279-0.931813 74.6438-0.440229Q76.7438-0.0302744 78.9444-1.28917Q81.145-2.54807 81.708-5.15534L87.6554-35.0066Q88.3066-38.2573 86.1501-40.3736Q83.9936-42.4899 81.2255-42.2408L62.1963-40.3742L67.8051-61.6085Q68.0464-62.2597 68.6178-62.6216Q69.1892-62.9835 69.8404-62.7422L91.7181-54.447Q94.6549-53.312 97.1733-54.7726Q99.6917-56.2331 99.6917-59.3308L99.6917-86.9781Q99.6917-89.4155 97.982-91.1653Q96.2723-92.9152 93.7455-92.9152Q91.3081-92.9152 89.522-91.1653Q87.7358-89.4155 87.7358-86.9781L87.7358-68.7531L76.5908-73.0649Q73.8239-74.0469 70.8988-74.5742Q67.9738-75.1014 64.9644-75.1014L27.9606-75.1014Q25.9242-75.1014 24.3351-73.7615Q22.7461-72.4216 22.2636-70.3863L16.2448-43.5444Q15.6819-41.098 17.0212-38.9454Q18.3605-36.7928 20.8795-36.3907ZM47.8019 35.4208Q49.8383 35.8319 52.0753 34.5724Q54.3122 33.3129 54.7947 30.7147L60.8123 0.863409Q60.8213 0.532665 60.857 0.046218Q60.8927-0.440229 60.8927-0.842329L60.8927-19.7621L53.9179-18.0654Q50.2314-17.0835 46.5956-17.413L48.9368-0.601069L43.0867 28.2683Q42.5964 30.7056 43.9759 32.8219Q45.3554 34.9382 47.8019 35.4208ZM70.5732 23.6336L109.444 23.6336Q110.196 23.6336 110.747 23.1197Q111.297 22.6057 111.297 21.8609Q111.297 21.1081 110.747 20.5942Q110.196 20.0803 109.444 20.0803L70.5732 20.0803Q69.8283 20.0803 69.3144 20.5942Q68.8005 21.1081 68.8005 21.8609Q68.8005 22.6057 69.3144 23.1197Q69.8283 23.6336 70.5732 23.6336ZM64.5623 36.8048L115.382 36.8048Q116.127 36.8048 116.641 36.2909Q117.155 35.777 117.155 35.0321Q117.155 34.2794 116.641 33.7292Q116.127 33.179 115.382 33.179L64.5623 33.179Q63.8096 33.179 63.2957 33.7292Q62.7818 34.2794 62.7818 35.0321Q62.7818 35.777 63.2957 36.2909Q63.8096 36.8048 64.5623 36.8048Z"/>
  </g>
  <g id="Ultralight-L" transform="matrix(1 0 0 1 494.126 1556)">
   <path d="M65.9647-81.0095Q71.1615-81.0095 74.8378-84.6865Q78.5141-88.3635 78.5141-93.4747Q78.5141-98.67 74.8378-102.389Q71.1615-106.108 65.9647-106.108Q60.7642-106.108 57.0898-102.389Q53.4154-98.67 53.4154-93.4747Q53.4154-88.3635 57.0898-84.6865Q60.7642-81.0095 65.9647-81.0095ZM20.802-36.2743Q22.9592-35.8773 25.0367-36.9962Q27.1142-38.115 27.6734-40.7562L32.5471-62.4913L41.263-62.4913Q42.1477-62.4913 42.6257-61.9347Q43.1038-61.3781 42.8625-60.4935L37.0276-38.1954Q35.8264-33.6383 37.3053-29.6001Q38.7841-25.5619 42.5415-23.522Q46.2989-21.4821 52.0572-22.9259L73.1579-28.2017L69.0833-7.89628Q68.6059-5.49779 69.9641-3.46047Q71.3223-1.42316 73.6352-0.944393Q75.7224-0.547471 77.8777-1.78693Q80.0331-3.02638 80.596-5.58196L86.4272-34.9161Q87.0654-38.115 84.9477-40.1925Q82.8299-42.27 80.1135-42.034L61.4076-40.1932L66.926-61.0526Q67.1673-61.6908 67.7258-62.0527Q68.2842-62.4146 68.9224-62.1733L90.4252-54.0203Q93.2973-52.8982 95.7769-54.3394Q98.2565-55.7806 98.2565-58.8136L98.2565-85.9956Q98.2565-88.3941 96.5792-90.1116Q94.9019-91.8291 92.4268-91.8291Q90.0283-91.8291 88.268-90.1116Q86.5076-88.3941 86.5076-85.9956L86.5076-68.0939L75.5564-72.3279Q72.8414-73.284 69.9615-73.8049Q67.0817-74.3257 64.124-74.3257L27.7539-74.3257Q25.756-74.3257 24.1994-73.0051Q22.6427-71.6846 22.1602-69.6882L16.2448-43.3117Q15.6819-40.917 17.0018-38.7967Q18.3216-36.6764 20.802-36.2743ZM47.2588 34.3088Q49.2566 34.7072 51.4548 33.467Q53.6529 32.2268 54.1355 29.6675L60.0494 0.333396Q60.0456 0.0154681 60.0877-0.464462Q60.1298-0.944393 60.1298-1.34649L60.1298-20.1112L53.2457-18.4275Q49.6625-17.4714 46.0525-17.7879L48.3809-1.10523L42.6212 27.2728Q42.1439 29.6712 43.504 31.7488Q44.8641 33.8263 47.2588 34.3088ZM69.6424 22.7156L107.853 22.7156Q108.438 22.7156 108.885 22.3116Q109.332 21.9076 109.332 21.3178Q109.332 20.7332 108.885 20.3292Q108.438 19.9252 107.853 19.9252L69.6424 19.9252Q69.0527 19.9252 68.6487 20.3292Q68.2447 20.7332 68.2447 21.3178Q68.2447 21.9076 68.6487 22.3116Q69.0527 22.7156 69.6424 22.7156ZM63.7219 35.667L113.688 35.667Q114.278 35.667 114.682 35.263Q115.086 34.859 115.086 34.2692Q115.086 33.6846 114.682 33.2378Q114.278 32.791 113.688 32.791L63.7219 32.791Q63.1373 32.791 62.7333 33.2378Q62.3293 33.6846 62.3293 34.2692Q62.3293 34.859 62.7333 35.263Q63.1373 35.667 63.7219 35.667Z"/>
  </g>
  <g id="Black-M" transform="matrix(1 0 0 1 2874.33 1126)">
   <path d="M57.9876-76.5845Q63.0465-76.5845 66.6822-80.2202Q70.3179-83.8559 70.3179-88.9151Q70.3179-94.0311 66.6822-97.6381Q63.0465-101.245 57.9876-101.245Q52.8771-101.245 49.2672-97.6381Q45.6573-94.0311 45.6573-88.9151Q45.6573-83.8559 49.2672-80.2202Q52.8771-76.5845 57.9876-76.5845ZM17.6544-35.0923Q19.9811-34.7182 22.2741-35.8842Q24.5671-37.0502 25.2371-39.9791L29.4188-58.6949L35.9278-58.6949Q36.2706-58.6949 36.45-58.4504Q36.6295-58.2059 36.5568-57.806L31.4508-38.2544Q30.2823-33.7565 31.76-29.7833Q33.2376-25.8101 36.9642-23.808Q40.6908-21.8058 46.3-23.1612L63.5357-27.4259L60.154-10.9384Q59.6033-8.3105 61.1017-6.04865Q62.6001-3.7868 65.2283-3.29329Q67.3675-2.86208 69.8112-4.20717Q72.2549-5.55226 72.8053-8.36732L78.0881-34.7644Q78.7633-38.1921 76.4392-40.5136Q74.115-42.8352 71.1753-42.5286L55.9449-41.0846L60.2823-57.5625Q60.3551-58.0093 60.711-58.1755Q61.067-58.3417 61.4568-58.2118L80.0889-51.1683Q83.2157-50.0051 85.9915-51.5915Q88.7674-53.178 88.7674-56.5437L88.7674-81.0082Q88.7674-83.6361 86.8743-85.5318Q84.9812-87.4275 82.2855-87.4275Q79.6576-87.4275 77.7621-85.5318Q75.8665-83.6361 75.8665-81.0082L75.8665-66.515L67.5339-69.7359Q64.9939-70.7229 62.3035-71.1592Q59.6131-71.5955 56.8862-71.5955L24.1575-71.5955Q21.9554-71.5955 20.1843-70.1595Q18.4132-68.7236 17.9252-66.5214L12.6426-42.7942Q12.0352-40.1608 13.4997-37.868Q14.9642-35.5751 17.6544-35.0923ZM41.4439 28.4379Q43.6461 28.8691 46.0611 27.524Q48.4761 26.179 49.0212 23.3694L54.1325-2.51382Q54.2521-3.1682 54.3091-3.68752Q54.3661-4.20683 54.3661-4.74674L54.3661-18.8781L47.7704-17.2216Q43.6666-16.1775 39.8813-16.6606L41.5223-4.61692L36.427 20.736Q35.8764 23.3068 37.3149 25.5712Q38.7535 27.8357 41.4439 28.4379ZM64.1355 16.1811L96.1956 16.1811Q98.1929 16.1811 99.6098 14.764Q101.027 13.3469 101.027 11.3552Q101.027 9.35792 99.6098 7.94083Q98.1929 6.52374 96.1956 6.52374L64.1355 6.52374Q62.1438 6.52374 60.7267 7.94083Q59.3096 9.35792 59.3096 11.3552Q59.3096 13.3469 60.7267 14.764Q62.1438 16.1811 64.1355 16.1811ZM58.2304 30.65L100.845 30.65Q102.837 30.65 104.254 29.2329Q105.671 27.8158 105.671 25.8241Q105.671 23.8269 104.254 22.4099Q102.837 20.993 100.845 20.993L58.2304 20.993Q56.2332 20.993 54.8161 22.4099Q53.399 23.8269 53.399 25.8241Q53.399 27.8158 54.8161 29.2329Q56.2332 30.65 58.2304 30.65Z"/>
  </g>
  <g id="Heavy-M" transform="matrix(1 0 0 1 2578.53 1126)">
   <path d="M57.2369-75.9511Q62.1431-75.9511 65.6582-79.4662Q69.1734-82.9814 69.1734-87.8854Q69.1734-92.8352 65.6582-96.3297Q62.1431-99.8241 57.2369-99.8241Q52.3034-99.8241 48.8019-96.3297Q45.3003-92.8352 45.3003-87.8854Q45.3003-82.9814 48.8019-79.4662Q52.3034-75.9511 57.2369-75.9511ZM17.3695-35.4331Q19.5808-35.0616 21.7516-36.1765Q23.9224-37.2915 24.5495-40.0511L28.7266-58.7281L35.4366-58.7281Q35.8602-58.7281 36.0978-58.42Q36.3353-58.1119 36.2357-57.6447L31.1636-38.2262Q30.0381-33.8785 31.4635-30.0394Q32.8889-26.2002 36.4881-24.2651Q40.0874-22.3299 45.517-23.6423L62.9211-27.9565L59.5143-11.2955Q58.9932-8.81006 60.4123-6.67041Q61.8315-4.53076 64.3147-4.05326Q66.3436-3.6381 68.6503-4.91197Q70.9571-6.18584 71.4804-8.85593L76.6998-34.9082Q77.3455-38.1639 75.1436-40.3566Q72.9416-42.5492 70.1469-42.2586L54.7648-40.7928L59.1787-57.5738Q59.2784-58.045 59.6655-58.2381Q60.0526-58.4313 60.4802-58.288L79.0247-51.2726Q82.004-50.1658 84.6172-51.6608Q87.2304-53.1559 87.2304-56.3471L87.2304-80.477Q87.2304-82.9625 85.4448-84.7574Q83.6591-86.5524 81.095-86.5524Q78.6095-86.5524 76.8134-84.7574Q75.0173-82.9625 75.0173-80.477L75.0173-65.8052L66.4535-69.1185Q63.9642-70.0735 61.3366-70.5085Q58.709-70.9435 56.0328-70.9435L23.7393-70.9435Q21.6526-70.9435 19.9823-69.5855Q18.3119-68.2275 17.8508-66.1408L12.6292-42.7212Q12.0622-40.2194 13.442-38.0474Q14.8218-35.8755 17.3695-35.4331ZM40.8514 27.2478Q42.9381 27.663 45.2242 26.3891Q47.5103 25.1153 48.015 22.4616L53.1057-3.19805Q53.2094-3.76905 53.2542-4.26013Q53.2989-4.75121 53.2989-5.23722L53.2989-19.6208L46.9098-18.0343Q43.0151-17.0357 39.437-17.4758L41.1294-5.09392L36.0924 19.9597Q35.5713 22.4015 36.9386 24.5505Q38.306 26.6995 40.8514 27.2478ZM62.6714 15.5683L94.8166 15.5683Q96.6189 15.5683 97.8874 14.301Q99.1559 13.0337 99.1559 11.2478Q99.1559 9.44547 97.8874 8.17813Q96.6189 6.91079 94.8166 6.91079L62.6714 6.91079Q60.8855 6.91079 59.6181 8.17813Q58.3508 9.44547 58.3508 11.2478Q58.3508 13.0337 59.6181 14.301Q60.8855 15.5683 62.6714 15.5683ZM56.9863 29.2123L99.5398 29.2123Q101.326 29.2123 102.593 27.9449Q103.86 26.6776 103.86 24.8917Q103.86 23.0894 102.593 21.8209Q101.326 20.5524 99.5398 20.5524L56.9863 20.5524Q55.184 20.5524 53.9166 21.8209Q52.6493 23.0894 52.6493 24.8917Q52.6493 26.6776 53.9166 27.9449Q55.184 29.2123 56.9863 29.2123Z"/>
  </g>
  <g id="Bold-M" transform="matrix(1 0 0 1 2282.83 1126)">
   <path d="M56.3971-75.2426Q61.1326-75.2426 64.5128-78.6228Q67.893-82.0031 67.893-86.7335Q67.893-91.4975 64.5128-94.866Q61.1326-98.2345 56.3971-98.2345Q51.6616-98.2345 48.2814-94.866Q44.9011-91.4975 44.9011-86.7335Q44.9011-82.0031 48.2814-78.6228Q51.6616-75.2426 56.3971-75.2426ZM17.0509-35.8143Q19.133-35.4457 21.1671-36.5036Q23.2012-37.5615 23.7802-40.1317L27.9524-58.7652L34.8871-58.7652Q35.4012-58.7652 35.7037-58.3861Q36.0063-58.0069 35.8764-57.4643L30.8423-38.1948Q29.7649-34.0149 31.1318-30.3257Q32.4987-26.6366 35.9556-24.7764Q39.4124-22.9162 44.6411-24.1806L62.2336-28.5501L58.7987-11.695Q58.3106-9.36888 59.6412-7.36593Q60.9717-5.36298 63.2926-4.90339Q65.1982-4.50619 67.3517-5.70039Q69.5052-6.89459 69.9984-9.40251L75.1469-35.069Q75.7596-38.1325 73.6943-40.1808Q71.6291-42.2292 68.9965-41.9566L53.4447-40.4664L57.9442-57.5865Q58.074-58.085 58.4959-58.3082Q58.9179-58.5315 59.3878-58.3731L77.8343-51.3892Q80.6485-50.3455 83.0798-51.7384Q85.5111-53.1312 85.5111-56.1272L85.5111-79.8828Q85.5111-82.2089 83.8456-83.8912Q82.1802-85.5735 79.7631-85.5735Q77.4371-85.5735 75.7522-83.8912Q74.0673-82.2089 74.0673-79.8828L74.0673-65.0112L65.2449-68.4279Q62.8123-69.347 60.255-69.7806Q57.6977-70.2142 55.0781-70.2142L23.2715-70.2142Q21.314-70.2142 19.7563-68.9434Q18.1986-67.6725 17.7677-65.7151L12.6141-42.6396Q12.0923-40.2849 13.3774-38.2482Q14.6624-36.2115 17.0509-35.8143ZM40.1887 25.9166Q42.1462 26.3138 44.288 25.1196Q46.4299 23.9254 46.8893 21.4461L51.9572-3.96346Q52.043-4.44119 52.074-4.90067Q52.1051-5.36016 52.1051-5.78588L52.1051-20.4517L45.9471-18.9435Q42.2863-17.9958 38.9401-18.3878L40.6899-5.62751L35.7181 19.0913Q35.23 21.3889 36.5177 23.4087Q37.8053 25.4285 40.1887 25.9166ZM61.0335 14.8829L93.274 14.8829Q94.8582 14.8829 95.9606 13.7831Q97.0631 12.6833 97.0631 11.1276Q97.0631 9.54341 95.9606 8.44358Q94.8582 7.34375 93.274 7.34375L61.0335 7.34375Q59.4778 7.34375 58.378 8.44358Q57.2782 9.54341 57.2782 11.1276Q57.2782 12.6833 58.378 13.7831Q59.4778 14.8829 61.0335 14.8829ZM55.5945 27.6039L98.0798 27.6039Q99.6354 27.6039 100.735 26.5041Q101.835 25.4043 101.835 23.8487Q101.835 22.2644 100.735 21.162Q99.6354 20.0596 98.0798 20.0596L55.5945 20.0596Q54.0102 20.0596 52.9104 21.162Q51.8106 22.2644 51.8106 23.8487Q51.8106 25.4043 52.9104 26.5041Q54.0102 27.6039 55.5945 27.6039Z"/>
  </g>
  <g id="Semibold-M" transform="matrix(1 0 0 1 1986.82 1126)">
   <path d="M55.8181-74.7541Q60.4359-74.7541 63.7232-78.0414Q67.0104-81.3287 67.0104-85.9393Q67.0104-90.5752 63.7232-93.8569Q60.4359-97.1387 55.8181-97.1387Q51.2192-97.1387 47.9225-93.8569Q44.6258-90.5752 44.6258-85.9393Q44.6258-81.3287 47.9225-78.0414Q51.2192-74.7541 55.8181-74.7541ZM16.8313-36.0771Q18.8243-35.7105 20.7641-36.729Q22.704-37.7476 23.2499-40.1872L27.4186-58.7908L34.5083-58.7908Q35.0847-58.7908 35.4321-58.3626Q35.7794-57.9345 35.6288-57.3399L30.6208-38.1731Q29.5766-34.1089 30.9032-30.5232Q32.2298-26.9374 35.5884-25.1289Q38.9471-23.3204 44.0373-24.5516L61.7597-28.9593L58.3054-11.9704Q57.8401-9.75413 59.1095-7.84542Q60.379-5.93672 62.5881-5.48947Q64.4085-5.10465 66.4564-6.24393Q68.5043-7.3832 68.9767-9.77933L74.0763-35.1799Q74.6662-38.1108 72.6952-40.0597Q70.7242-42.0086 68.2035-41.7484L52.5347-40.2413L57.0931-57.5952Q57.2437-58.1125 57.6896-58.3566Q58.1356-58.6006 58.6347-58.4319L77.0136-51.4696Q79.7141-50.4695 82.0199-51.7918Q84.3258-53.1141 84.3258-55.9756L84.3258-79.4732Q84.3258-81.6895 82.7432-83.2941Q81.1607-84.8987 78.845-84.8987Q76.6288-84.8987 75.0206-83.2941Q73.4124-81.6895 73.4124-79.4732L73.4124-64.4638L64.4117-67.9518Q62.0182-68.8462 59.5093-69.2788Q57.0005-69.7114 54.4199-69.7114L22.949-69.7114Q21.0805-69.7114 19.6005-68.5007Q18.1205-67.2899 17.7103-65.4215L12.6037-42.5834Q12.1131-40.33 13.3328-38.3866Q14.5526-36.4431 16.8313-36.0771ZM39.7317 24.9988Q41.6003 25.3837 43.6427 24.2444Q45.6851 23.105 46.1134 20.746L51.1654-4.49113Q51.2388-4.90455 51.2605-5.34226Q51.2822-5.77998 51.2822-6.16413L51.2822-21.0245L45.2834-19.5702Q41.7839-18.6577 38.5974-19.0165L40.3869-5.99537L35.46 18.4927Q34.9948 20.6908 36.2275 22.6215Q37.4602 24.5523 39.7317 24.9988ZM59.9043 14.4104L92.2105 14.4104Q93.6444 14.4104 94.6323 13.426Q95.6203 12.4417 95.6203 11.0448Q95.6203 9.61092 94.6323 8.62658Q93.6444 7.64223 92.2105 7.64223L59.9043 7.64223Q58.5074 7.64223 57.5231 8.62658Q56.5388 9.61092 56.5388 11.0448Q56.5388 12.4417 57.5231 13.426Q58.5074 14.4104 59.9043 14.4104ZM54.635 26.4952L97.0733 26.4952Q98.4702 26.4952 99.4545 25.5108Q100.439 24.5265 100.439 23.1296Q100.439 21.6957 99.4545 20.7078Q98.4702 19.7199 97.0733 19.7199L54.635 19.7199Q53.2011 19.7199 52.2167 20.7078Q51.2324 21.6957 51.2324 23.1296Q51.2324 24.5265 52.2167 25.5108Q53.2011 26.4952 54.635 26.4952Z"/>
  </g>
  <g id="Medium-M" transform="matrix(1 0 0 1 1690.63 1126)">
   <path d="M55.3791-74.3837Q59.9077-74.3837 63.1244-77.6005Q66.3411-80.8173 66.3411-85.3372Q66.3411-89.8759 63.1244-93.0918Q59.9077-96.3077 55.3791-96.3077Q50.8837-96.3077 47.6504-93.0918Q44.4171-89.8759 44.4171-85.3372Q44.4171-80.8173 47.6504-77.6005Q50.8837-74.3837 55.3791-74.3837ZM16.6647-36.2764Q18.5902-35.9112 20.4586-36.9Q22.327-37.8888 22.8477-40.2293L27.0139-58.8102L34.2211-58.8102Q34.8448-58.8102 35.2261-58.3449Q35.6074-57.8795 35.441-57.2456L30.4528-38.1566Q29.4338-34.1802 30.7298-30.6729Q32.0258-27.1656 35.3101-25.3962Q38.5943-23.6269 43.5794-24.833L61.4003-29.2696L57.9313-12.1792Q57.4833-10.0462 58.7064-8.20899Q59.9295-6.37174 62.0538-5.93386Q63.8098-5.55842 65.7776-6.65606Q67.7454-7.75369 68.202-10.065L73.2645-35.264Q73.8372-38.0943 71.9376-39.9679Q70.0381-41.8414 67.6021-41.5906L51.8447-40.0707L56.4478-57.6019Q56.6141-58.1334 57.0783-58.3932Q57.5424-58.653 58.0637-58.4764L76.3913-51.5306Q79.0055-50.5635 81.2163-51.8323Q83.427-53.1012 83.427-55.8606L83.427-79.1626Q83.427-81.2956 81.9073-82.8413Q80.3876-84.387 78.1488-84.387Q76.0159-84.387 74.4658-82.8413Q72.9158-81.2956 72.9158-79.1626L72.9158-64.0488L63.7799-67.5908Q61.416-68.4664 58.9439-68.8983Q56.4718-69.3302 53.9209-69.3302L22.7045-69.3302Q20.9035-69.3302 19.4824-68.165Q18.0612-66.9999 17.6669-65.199L12.5958-42.5407Q12.1289-40.3642 13.2991-38.4915Q14.4693-36.6188 16.6647-36.2764ZM39.3853 24.3029Q41.1863 24.6785 43.1533 23.5808Q45.1203 22.4831 45.525 20.2152L50.565-4.89123Q50.6291-5.2559 50.6436-5.6771Q50.6582-6.0983 50.6582-6.45093L50.6582-21.4589L44.7802-20.0455Q41.4029-19.1596 38.3377-19.4932L40.1572-6.27429L35.2644 18.0387Q34.8164 20.1614 36.0075 22.0247Q37.1985 23.8879 39.3853 24.3029ZM59.0482 14.0521L91.4042 14.0521Q92.7241 14.0521 93.6252 13.1553Q94.5263 12.2585 94.5263 10.982Q94.5263 9.66212 93.6252 8.76534Q92.7241 7.86856 91.4042 7.86856L59.0482 7.86856Q57.7716 7.86856 56.8749 8.76534Q55.9781 9.66212 55.9781 10.982Q55.9781 12.2585 56.8749 13.1553Q57.7716 14.0521 59.0482 14.0521ZM53.9074 25.6545L96.3101 25.6545Q97.5867 25.6545 98.4834 24.7577Q99.3802 23.8609 99.3802 22.5844Q99.3802 21.2645 98.4834 20.3634Q97.5867 19.4623 96.3101 19.4623L53.9074 19.4623Q52.5876 19.4623 51.6908 20.3634Q50.794 21.2645 50.794 22.5844Q50.794 23.8609 51.6908 24.7577Q52.5876 25.6545 53.9074 25.6545Z"/>
  </g>
  <g id="Regular-M" transform="matrix(1 0 0 1 1394.61 1126)">
   <path d="M54.8065-73.9007Q59.2187-73.9007 62.3434-77.0255Q65.4681-80.1503 65.4681-84.5518Q65.4681-88.9638 62.3434-92.0939Q59.2187-95.2239 54.8065-95.2239Q50.4462-95.2239 47.2955-92.0939Q44.1449-88.9638 44.1449-84.5518Q44.1449-80.1503 47.2955-77.0255Q50.4462-73.9007 54.8065-73.9007ZM16.4475-36.5363Q18.2849-36.1731 20.0601-37.123Q21.8353-38.0729 22.3232-40.2843L26.486-58.8355L33.8465-58.8355Q34.5318-58.8355 34.9574-58.3217Q35.383-57.8079 35.1961-57.1225L30.2338-38.1352Q29.2475-34.2732 30.5037-30.8682Q31.7599-27.4631 34.947-25.7449Q38.1341-24.0267 42.9822-25.2L60.9315-29.6743L57.4434-12.4516Q57.0179-10.4273 58.1806-8.68321Q59.3433-6.93917 61.357-6.51349Q63.0288-6.1503 64.8921-7.19362Q66.7554-8.23693 67.1916-10.4377L72.2057-35.3736Q72.7558-38.0729 70.9495-39.848Q69.1431-41.6232 66.8177-41.3847L50.9446-39.8481L55.606-57.6105Q55.7929-58.1606 56.2808-58.441Q56.7687-58.7214 57.3188-58.5345L75.5797-51.6101Q78.0813-50.686 80.168-51.8852Q82.2548-53.0844 82.2548-55.7106L82.2548-78.7575Q82.2548-80.7818 80.817-82.2507Q79.3793-83.7196 77.2408-83.7196Q75.2165-83.7196 73.7422-82.2507Q72.268-80.7818 72.268-78.7575L72.268-63.5074L62.9558-67.1199Q60.6306-67.9711 58.2065-68.402Q55.7823-68.8329 53.27-68.8329L22.3855-68.8329Q20.6726-68.8329 19.3283-67.7272Q17.984-66.6215 17.6102-64.9087L12.5855-42.485Q12.1494-40.4089 13.255-38.6284Q14.3607-36.8479 16.4475-36.5363ZM38.9334 23.3952Q40.6464 23.7586 42.515 22.7152Q44.3837 21.6718 44.7575 19.5228L49.7819-5.41311Q49.8338-5.71417 49.839-6.11383Q49.8442-6.51349 49.8442-6.82502L49.8442-22.0254L44.1238-20.6653Q40.906-19.8142 37.9988-20.1151L39.8575-6.6381L35.0092 17.4467Q34.5837 19.471 35.7204 21.2462Q36.8572 23.0214 38.9334 23.3952ZM57.9314 13.5847L90.3524 13.5847Q91.5236 13.5847 92.3115 12.8022Q93.0994 12.0196 93.0994 10.9001Q93.0994 9.72889 92.3115 8.94633Q91.5236 8.16376 90.3524 8.16376L57.9314 8.16376Q56.8119 8.16376 56.0293 8.94633Q55.2468 9.72889 55.2468 10.9001Q55.2468 12.0196 56.0293 12.8022Q56.8119 13.5847 57.9314 13.5847ZM52.9585 24.5579L95.3147 24.5579Q96.4342 24.5579 97.2168 23.7753Q97.9994 22.9928 97.9994 21.8732Q97.9994 20.702 97.2168 19.9142Q96.4342 19.1263 95.3147 19.1263L52.9585 19.1263Q51.7873 19.1263 51.0047 19.9142Q50.2222 20.702 50.2222 21.8732Q50.2222 22.9928 51.0047 23.7753Q51.7873 24.5579 52.9585 24.5579Z"/>
  </g>
  <g id="Light-M" transform="matrix(1 0 0 1 1099.27 1126)">
   <path d="M53.66-72.9083Q57.9526-72.9083 60.9917-75.9475Q64.0307-78.9868 64.0307-83.2515Q64.0307-87.5437 60.9917-90.5966Q57.9526-93.6496 53.66-93.6496Q49.4023-93.6496 46.3458-90.5966Q43.2894-87.5437 43.2894-83.2515Q43.2894-78.9868 46.3458-75.9475Q49.4023-72.9083 53.66-72.9083ZM16.3448-36.3822Q18.1308-36.0363 19.8547-36.9604Q21.5785-37.8846 22.0495-40.0448L26.0925-58.0656L33.2646-58.0656Q33.95-58.0656 34.3584-57.5774Q34.7669-57.0892 34.58-56.4038L29.7546-37.9469Q28.7856-34.1876 30.0075-30.8682Q31.2294-27.5488 34.331-25.8732Q37.4326-24.1977 42.1609-25.3541L59.614-29.7085L56.2285-12.9478Q55.8203-10.9749 56.9488-9.28218Q58.0772-7.58946 60.0222-7.18075Q61.677-6.8348 63.4804-7.85239Q65.2838-8.86997 65.7199-11.0023L70.5803-35.2538Q71.1131-37.8846 69.3581-39.6084Q67.6031-41.3323 65.3461-41.111L49.9008-39.6087L54.4426-56.8749Q54.6295-57.4077 55.1003-57.6881Q55.5711-57.9685 56.1039-57.7815L73.8685-51.0455Q76.2845-50.1384 78.3199-51.312Q80.3553-52.4855 80.3553-55.0261L80.3553-77.4572Q80.3553-79.4301 78.9604-80.8561Q77.5655-82.2822 75.4955-82.2822Q73.5226-82.2822 72.0826-80.8561Q70.6426-79.4301 70.6426-77.4572L70.6426-62.6349L61.5868-66.1445Q59.3303-66.9614 56.966-67.3839Q54.6016-67.8063 52.1577-67.8063L22.1119-67.8063Q20.45-67.8063 19.1486-66.7262Q17.8471-65.646 17.4733-63.9847L12.5855-42.1772Q12.1494-40.1694 13.2293-38.4316Q14.3092-36.6938 16.3448-36.3822ZM38.2147 21.9236Q39.8765 22.27 41.6938 21.2521Q43.5111 20.2343 43.885 18.1369L48.7723-6.11457Q48.8072-6.39867 48.8209-6.78971Q48.8346-7.18075 48.8346-7.49227L48.8346-22.4874L43.234-21.1446Q40.1531-20.3276 37.2801-20.6112L39.1218-7.30536L34.3931 16.1291Q33.9848 18.102 35.0959 19.8259Q36.2069 21.5497 38.2147 21.9236ZM56.6995 12.3698L88.2477 12.3698Q89.1964 12.3698 89.8474 11.7327Q90.4985 11.0956 90.4985 10.1814Q90.4985 9.2327 89.8474 8.5956Q89.1964 7.9585 88.2477 7.9585L56.6995 7.9585Q55.7853 7.9585 55.1482 8.5956Q54.5111 9.2327 54.5111 10.1814Q54.5111 11.0956 55.1482 11.7327Q55.7853 12.3698 56.6995 12.3698ZM51.8462 23.052L93.0732 23.052Q93.9874 23.052 94.6245 22.4149Q95.2616 21.7778 95.2616 20.8636Q95.2616 19.9149 94.6245 19.2639Q93.9874 18.6128 93.0732 18.6128L51.8462 18.6128Q50.8975 18.6128 50.2604 19.2639Q49.6233 19.9149 49.6233 20.8636Q49.6233 21.7778 50.2604 22.4149Q50.8975 23.052 51.8462 23.052Z"/>
  </g>
  <g id="Thin-M" transform="matrix(1 0 0 1 804.371 1126)">
   <path d="M52.1437-71.5957Q56.2781-71.5957 59.2039-74.5219Q62.1296-77.4481 62.1296-81.5318Q62.1296-85.6654 59.2039-88.6165Q56.2781-91.5675 52.1437-91.5675Q48.0217-91.5675 45.0898-88.6165Q42.1578-85.6654 42.1578-81.5318Q42.1578-77.4481 45.0898-74.5219Q48.0217-71.5957 52.1437-71.5957ZM16.2091-36.1784Q17.927-35.8553 19.583-36.7454Q21.239-37.6355 21.6876-39.7281L25.5719-57.0474L32.495-57.0474Q33.1804-57.0474 33.5663-56.593Q33.9521-56.1386 33.7652-55.4533L29.1207-37.6978Q28.1745-34.0743 29.3512-30.8682Q30.5279-27.6621 33.5164-26.043Q36.5049-24.424 41.0746-25.5579L57.8714-29.7538L54.6217-13.604Q54.2363-11.6992 55.3195-10.0744Q56.4027-8.44952 58.2569-8.06324Q59.8892-7.74011 61.6133-8.72366Q63.3375-9.70722 63.7736-11.7491L68.4305-35.0952Q68.9406-37.6355 67.2534-39.2915Q65.5662-40.9475 63.3998-40.749L48.5202-39.2919L52.9038-55.9019Q53.0907-56.4119 53.5389-56.6923Q53.9871-56.9727 54.4971-56.7857L71.6055-50.2988Q73.9082-49.4141 75.8757-50.5538Q77.8432-51.6935 77.8432-54.1208L77.8432-75.7375Q77.8432-77.6423 76.505-79.0117Q75.1667-80.3811 73.1871-80.3811Q71.2823-80.3811 69.8876-79.0117Q68.4928-77.6423 68.4928-75.7375L68.4928-61.4809L59.7762-64.8544Q57.6106-65.6261 55.3253-66.0373Q53.04-66.4485 50.6866-66.4485L21.7499-66.4485Q20.1558-66.4485 18.911-65.4022Q17.6662-64.3559 17.2923-62.7627L12.5855-41.7699Q12.1494-39.8527 13.1953-38.1713Q14.2411-36.49 16.2091-36.1784ZM37.2641 19.9772Q38.8582 20.3012 40.6077 19.3172Q42.3572 18.3332 42.731 16.3038L47.4369-7.04231Q47.4494-7.30398 47.4743-7.68361Q47.4992-8.06324 47.4992-8.37476L47.4992-23.0984L42.0573-21.7784Q39.1573-21.0067 36.3296-21.2675L38.1488-8.18785L33.5783 14.3866Q33.1928 16.2914 34.2699 17.9474Q35.3469 19.6034 37.2641 19.9772ZM55.0703 10.763L85.4641 10.763Q86.1185 10.763 86.5886 10.3183Q87.0586 9.8736 87.0586 9.23082Q87.0586 8.57643 86.5886 8.13173Q86.1185 7.68702 85.4641 7.68702L55.0703 7.68702Q54.4275 7.68702 53.9828 8.13173Q53.5381 8.57643 53.5381 9.23082Q53.5381 9.8736 53.9828 10.3183Q54.4275 10.763 55.0703 10.763ZM50.3751 21.0604L90.1086 21.0604Q90.7514 21.0604 91.1961 20.6157Q91.6408 20.171 91.6408 19.5282Q91.6408 18.8739 91.1961 18.4038Q90.7514 17.9337 90.1086 17.9337L50.3751 17.9337Q49.7207 17.9337 49.276 18.4038Q48.8313 18.8739 48.8313 19.5282Q48.8313 20.171 49.276 20.6157Q49.7207 21.0604 50.3751 21.0604Z"/>
  </g>
  <g id="Ultralight-M" transform="matrix(1 0 0 1 508.588 1126)">
   <path d="M51.3671-70.9235Q55.4205-70.9235 58.2882-73.7917Q61.1559-76.6599 61.1559-80.6509Q61.1559-84.7033 58.2882-87.6022Q55.4205-90.5011 51.3671-90.5011Q47.3146-90.5011 44.4464-87.6022Q41.5782-84.7033 41.5782-80.6509Q41.5782-76.6599 44.4464-73.7917Q47.3146-70.9235 51.3671-70.9235ZM16.1396-36.0741Q17.8226-35.7626 19.4438-36.6353Q21.0651-37.5079 21.5022-39.5658L25.3053-56.5259L32.1009-56.5259Q32.7862-56.5259 33.1605-56.0888Q33.5348-55.6518 33.3478-54.9664L28.7961-37.5703Q27.8616-34.0162 29.0151-30.8682Q30.1686-27.7201 33.0992-26.13Q36.0297-24.5398 40.5182-25.6623L56.9789-29.7769L53.7987-13.9402Q53.425-12.0702 54.485-10.4801Q55.5451-8.89004 57.3526-8.51525Q58.9735-8.2038 60.657-9.16993Q62.3405-10.1361 62.7767-12.1316L67.3294-35.014Q67.8278-37.5079 66.1754-39.1292Q64.523-40.7504 62.4029-40.5636L47.813-39.1297L52.1157-55.4035Q52.3026-55.9019 52.7392-56.1822Q53.1757-56.4626 53.6741-56.2757L70.4463-49.9163Q72.691-49.0431 74.6238-50.1655Q76.5565-51.2879 76.5565-53.6571L76.5565-74.8566Q76.5565-76.7266 75.2473-78.0669Q73.938-79.4073 72.0048-79.4073Q70.1349-79.4073 68.7633-78.0669Q67.3917-76.7266 67.3917-74.8566L67.3917-60.8898L58.8488-64.1936Q56.7298-64.9421 54.485-65.3476Q52.2402-65.7531 49.9332-65.7531L21.5645-65.7531Q20.005-65.7531 18.7892-64.7241Q17.5735-63.6952 17.1996-62.1367L12.5855-41.5614Q12.1494-39.6905 13.1778-38.038Q14.2063-36.3856 16.1396-36.0741ZM36.7773 18.9803Q38.3367 19.2928 40.0514 18.3261Q41.7661 17.3595 42.1399 15.3649L46.753-7.51749Q46.7539-7.76767 46.7846-8.14146Q46.8153-8.51525 46.8153-8.82677L46.8153-23.4114L41.4545-22.103Q38.6473-21.3545 35.8427-21.6036L37.6505-8.63986L33.1609 13.494Q32.7872 15.364 33.8468 16.9852Q34.9063 18.6065 36.7773 18.9803ZM54.2358 9.94002L84.0384 9.94002Q84.542 9.94002 84.9194 9.59385Q85.2967 9.24768 85.2967 8.74395Q85.2967 8.2403 84.9194 7.89414Q84.542 7.54797 84.0384 7.54797L54.2358 7.54797Q53.7321 7.54797 53.3859 7.89414Q53.0397 8.2403 53.0397 8.74395Q53.0397 9.24768 53.3859 9.59385Q53.7321 9.94002 54.2358 9.94002ZM49.6216 20.0404L88.5902 20.0404Q89.0939 20.0404 89.44 19.6942Q89.7862 19.348 89.7862 18.8443Q89.7862 18.3406 89.44 17.9633Q89.0939 17.5859 88.5902 17.5859L49.6216 17.5859Q49.118 17.5859 48.7718 17.9633Q48.4257 18.3406 48.4257 18.8443Q48.4257 19.348 48.7718 19.6942Q49.118 20.0404 49.6216 20.0404Z"/>
  </g>
  <g id="Black-S" transform="matrix(1 0 0 1 2886.92 696)">
   <path d="M45.6055-67.7734Q49.6094-67.7734 52.4902-70.6543Q55.3711-73.5352 55.3711-77.5391Q55.3711-81.5918 52.4902-84.4482Q49.6094-87.3047 45.6055-87.3047Q41.5527-87.3047 38.6963-84.4482Q35.8398-81.5918 35.8398-77.5391Q35.8398-73.5352 38.6963-70.6543Q41.5527-67.7734 45.6055-67.7734ZM13.916-35.0098Q15.7715-34.7168 17.6025-35.6445Q19.4336-36.5723 19.9707-38.916L23.2422-53.5645L28.2715-53.5645Q28.5156-53.5645 28.6377-53.3936Q28.7598-53.2227 28.7109-52.9297L24.707-37.5977Q23.7793-34.0332 24.9512-30.8838Q26.123-27.7344 29.0771-26.1475Q32.0312-24.5605 36.4746-25.6348L49.9023-28.9551L47.2656-16.1133Q46.8262-14.0137 48.0225-12.207Q49.2188-10.4004 51.3184-10.0098Q53.0273-9.66797 54.9805-10.7422Q56.9336-11.8164 57.373-14.0625L61.5234-34.8145Q62.0605-37.5488 60.2051-39.4043Q58.3496-41.2598 56.0059-41.0156L44.1406-39.8926L47.5098-52.6855Q47.5586-53.0273 47.8271-53.1494Q48.0957-53.2715 48.3887-53.1738L62.9883-47.6562Q65.4785-46.7285 67.7002-47.998Q69.9219-49.2676 69.9219-51.9531L69.9219-71.1914Q69.9219-73.291 68.4082-74.8047Q66.8945-76.3184 64.7461-76.3184Q62.6465-76.3184 61.1328-74.8047Q59.6191-73.291 59.6191-71.1914L59.6191-59.9121L53.1738-62.4023Q51.1719-63.1836 49.0479-63.5254Q46.9238-63.8672 44.7754-63.8672L19.043-63.8672Q17.2852-63.8672 15.8691-62.7197Q14.4531-61.5723 14.0625-59.8145L9.91211-41.1621Q9.42383-39.0625 10.5957-37.2314Q11.7676-35.4004 13.916-35.0098ZM32.6172 14.9414Q34.375 15.2832 36.3037 14.209Q38.2324 13.1348 38.6719 10.8887L42.6758-9.42383Q42.7734-9.96094 42.8223-10.376Q42.8711-10.791 42.8711-11.2305L42.8711-22.2168L37.6465-20.8984Q34.375-20.0684 31.3477-20.459L32.6172-11.1328L28.6133 8.78906Q28.1738 10.8398 29.3213 12.6465Q30.4688 14.4531 32.6172 14.9414ZM50.6348 5.17578L75.6836 5.17578Q77.2949 5.17578 78.4424 4.02832Q79.5898 2.88086 79.5898 1.26953Q79.5898-0.341797 78.4424-1.48926Q77.2949-2.63672 75.6836-2.63672L50.6348-2.63672Q49.0234-2.63672 47.876-1.48926Q46.7285-0.341797 46.7285 1.26953Q46.7285 2.88086 47.876 4.02832Q49.0234 5.17578 50.6348 5.17578ZM45.9473 16.748L79.2969 16.748Q80.9082 16.748 82.0557 15.6006Q83.2031 14.4531 83.2031 12.8418Q83.2031 11.2305 82.0557 10.083Q80.9082 8.93555 79.2969 8.93555L45.9473 8.93555Q44.3359 8.93555 43.1885 10.083Q42.041 11.2305 42.041 12.8418Q42.041 14.4531 43.1885 15.6006Q44.3359 16.748 45.9473 16.748Z"/>
  </g>
  <g id="Heavy-S" transform="matrix(1 0 0 1 2590.8 696)">
   <path d="M45.1099-67.3586Q48.9986-67.3586 51.7872-70.1472Q54.5759-72.9359 54.5759-76.8245Q54.5759-80.7505 51.7872-83.5205Q48.9986-86.2905 45.1099-86.2905Q41.1955-86.2905 38.4197-83.5205Q35.6439-80.7505 35.6439-76.8245Q35.6439-72.9359 38.4197-70.1472Q41.1955-67.3586 45.1099-67.3586ZM13.6855-35.3209Q15.4488-35.028 17.1819-35.9154Q18.915-36.8028 19.4175-39.0082L22.7005-53.6912L27.9258-53.6912Q28.239-53.6912 28.413-53.4627Q28.5869-53.2342 28.515-52.8836L24.5226-37.5977Q23.6295-34.1484 24.761-31.1028Q25.8926-28.0571 28.7487-26.522Q31.6048-24.987 35.9099-26.0266L49.5451-29.4045L46.8738-16.3553Q46.4574-14.3709 47.5903-12.6622Q48.7232-10.9536 50.7076-10.5745Q52.3244-10.2442 54.168-11.2608Q56.0116-12.2774 56.428-14.4082L60.5439-34.9527Q61.0579-37.5488 59.3004-39.3006Q57.5429-41.0523 55.3144-40.8197L43.2648-39.6736L46.7146-52.7893Q46.7865-53.1541 47.0838-53.2992Q47.3812-53.4444 47.7087-53.3352L62.2968-47.8176Q64.6718-46.936 66.761-48.1306Q68.8501-49.3252 68.8501-51.8725L68.8501-70.9033Q68.8501-72.8877 67.4229-74.3207Q65.9956-75.7537 63.9509-75.7537Q61.9665-75.7537 60.5335-74.3207Q59.1005-72.8877 59.1005-70.9033L59.1005-59.4166L52.4247-61.999Q50.4574-62.7572 48.3794-63.099Q46.3015-63.4408 44.1876-63.4408L18.7203-63.4408Q17.0547-63.4408 15.7193-62.3567Q14.384-61.2726 14.0164-59.607L9.90058-41.1391Q9.44688-39.1432 10.5496-37.4101Q11.6523-35.677 13.6855-35.3209ZM32.2023 14.1116Q33.8679 14.4419 35.6929 13.4253Q37.5179 12.4087 37.9228 10.2894L41.9267-9.91938Q42.0128-10.3873 42.0501-10.7793Q42.0874-11.1713 42.0874-11.5647L42.0874-22.793L37.0242-21.5323Q33.914-20.7368 31.0595-21.0928L32.3752-11.4555L28.4058 8.29351Q27.9894 10.2406 29.0793 11.955Q30.1691 13.6695 32.2023 14.1116ZM49.5399 4.807L74.7732 4.807Q76.2462 4.807 77.2842 3.76902Q78.3222 2.73104 78.3222 1.26953Q78.3222-0.203503 77.2842-1.24148Q76.2462-2.27946 74.7732-2.27946L49.5399-2.27946Q48.0784-2.27946 47.0405-1.24148Q46.0025-0.203503 46.0025 1.26953Q46.0025 2.73104 47.0405 3.76902Q48.0784 4.807 49.5399 4.807ZM45.0253 15.7108L78.4671 15.7108Q79.9286 15.7108 80.9666 14.6729Q82.0046 13.6349 82.0046 12.1734Q82.0046 10.7003 80.9666 9.66236Q79.9286 8.62439 78.4671 8.62439L45.0253 8.62439Q43.5523 8.62439 42.5143 9.66236Q41.4763 10.7003 41.4763 12.1734Q41.4763 13.6349 42.5143 14.6729Q43.5523 15.7108 45.0253 15.7108Z"/>
  </g>
  <g id="Bold-S" transform="matrix(1 0 0 1 2294.76 696)">
   <path d="M44.5557-66.8945Q48.3154-66.8945 51.001-69.5801Q53.6865-72.2656 53.6865-76.0254Q53.6865-79.8096 51.001-82.4829Q48.3154-85.1562 44.5557-85.1562Q40.7959-85.1562 38.1104-82.4829Q35.4248-79.8096 35.4248-76.0254Q35.4248-72.2656 38.1104-69.5801Q40.7959-66.8945 44.5557-66.8945ZM13.4277-35.6689Q15.0879-35.376 16.7114-36.2183Q18.335-37.0605 18.7988-39.1113L22.0947-53.833L27.5391-53.833Q27.9297-53.833 28.1616-53.54Q28.3936-53.2471 28.2959-52.832L24.3164-37.5977Q23.4619-34.2773 24.5483-31.3477Q25.6348-28.418 28.3813-26.9409Q31.1279-25.4639 35.2783-26.4648L49.1455-29.9072L46.4355-16.626Q46.0449-14.7705 47.1069-13.1714Q48.1689-11.5723 50.0244-11.2061Q51.5381-10.8887 53.2593-11.8408Q54.9805-12.793 55.3711-14.7949L59.4482-35.1074Q59.9365-37.5488 58.2886-39.1846Q56.6406-40.8203 54.541-40.6006L42.2852-39.4287L45.8252-52.9053Q45.9229-53.2959 46.2524-53.4668Q46.582-53.6377 46.9482-53.5156L61.5234-47.998Q63.7695-47.168 65.7104-48.2788Q67.6514-49.3896 67.6514-51.7822L67.6514-70.5811Q67.6514-72.4365 66.3208-73.7793Q64.9902-75.1221 63.0615-75.1221Q61.2061-75.1221 59.8633-73.7793Q58.5205-72.4365 58.5205-70.5811L58.5205-58.8623L51.5869-61.5479Q49.6582-62.2803 47.6318-62.6221Q45.6055-62.9639 43.5303-62.9639L18.3594-62.9639Q16.7969-62.9639 15.5518-61.9507Q14.3066-60.9375 13.9648-59.375L9.8877-41.1133Q9.47266-39.2334 10.498-37.6099Q11.5234-35.9863 13.4277-35.6689ZM31.7383 13.1836Q33.3008 13.501 35.0098 12.5488Q36.7188 11.5967 37.085 9.61914L41.0889-10.4736Q41.1621-10.8643 41.1865-11.2305Q41.2109-11.5967 41.2109-11.9385L41.2109-23.4375L36.3281-22.2412Q33.3984-21.4844 30.7373-21.8018L32.1045-11.8164L28.1738 7.73926Q27.7832 9.57031 28.8086 11.1816Q29.834 12.793 31.7383 13.1836ZM48.3154 4.39453L73.7549 4.39453Q75.0732 4.39453 75.9888 3.479Q76.9043 2.56348 76.9043 1.26953Q76.9043-0.0488281 75.9888-0.964355Q75.0732-1.87988 73.7549-1.87988L48.3154-1.87988Q47.0215-1.87988 46.106-0.964355Q45.1904-0.0488281 45.1904 1.26953Q45.1904 2.56348 46.106 3.479Q47.0215 4.39453 48.3154 4.39453ZM43.9941 14.5508L77.5391 14.5508Q78.833 14.5508 79.7485 13.6353Q80.6641 12.7197 80.6641 11.4258Q80.6641 10.1074 79.7485 9.19189Q78.833 8.27637 77.5391 8.27637L43.9941 8.27637Q42.6758 8.27637 41.7603 9.19189Q40.8447 10.1074 40.8447 11.4258Q40.8447 12.7197 41.7603 13.6353Q42.6758 14.5508 43.9941 14.5508Z"/>
  </g>
  <g id="Semibold-S" transform="matrix(1 0 0 1 1998.51 696)">
   <path d="M44.1735-66.5746Q47.8444-66.5746 50.4589-69.1891Q53.0733-71.8035 53.0733-75.4744Q53.0733-79.1608 50.4589-81.7675Q47.8444-84.3742 44.1735-84.3742Q40.5204-84.3742 37.8971-81.7675Q35.2737-79.1608 35.2737-75.4744Q35.2737-71.8035 37.8971-69.1891Q40.5204-66.5746 44.1735-66.5746ZM13.25-35.9089Q14.8391-35.6159 16.3871-36.4271Q17.9351-37.2383 18.3723-39.1824L21.6771-53.9308L27.2725-53.9308Q27.7164-53.9308 27.9883-53.5934Q28.2603-53.256 28.1448-52.7965L24.1742-37.5977Q23.3464-34.3662 24.4017-31.5165Q25.457-28.6668 28.1281-27.2297Q30.7991-25.7927 34.8429-26.767L48.87-30.2538L46.1334-16.8126Q45.7605-15.046 46.7737-13.5224Q47.7868-11.9988 49.5534-11.6415Q50.996-11.333 52.6328-12.2407Q54.2695-13.1484 54.6424-15.0615L58.6929-35.2141Q59.1634-37.5488 57.591-39.1046Q56.0186-40.6604 54.0078-40.4495L41.6098-39.2599L45.212-52.9853Q45.3274-53.3937 45.6792-53.5823Q46.0311-53.771 46.4239-53.64L60.9902-48.1225Q63.1475-47.3279 64.9862-48.381Q66.8249-49.4341 66.8249-51.72L66.8249-70.3589Q66.8249-72.1255 65.561-73.4061Q64.2971-74.6866 62.4483-74.6866Q60.6817-74.6866 59.4012-73.4061Q58.1206-72.1255 58.1206-70.3589L58.1206-58.4802L51.0093-61.2368Q49.1072-61.9515 47.1164-62.2933Q45.1256-62.6351 43.0771-62.6351L18.1105-62.6351Q16.6191-62.6351 15.4362-61.6708Q14.2533-60.7064 13.9293-59.215L9.87881-41.0955Q9.49043-39.2956 10.4625-37.7476Q11.4346-36.1996 13.25-35.9089ZM31.4184 12.5437Q32.9098 12.8522 34.5388 11.9445Q36.1678 11.0368 36.5073 9.15703L40.5112-10.8558Q40.5756-11.1931 40.5911-11.5415Q40.6066-11.8899 40.6066-12.1962L40.6066-23.8818L35.8482-22.73Q33.043-21.9998 30.5151-22.2905L31.9179-12.0652L28.0139 7.35713Q27.641 9.1082 28.622 10.6484Q29.6029 12.1887 31.4184 12.5437ZM47.4712 4.11016L73.0528 4.11016Q74.2646 4.11016 75.0957 3.27905Q75.9268 2.44795 75.9268 1.26953Q75.9268 0.0578125 75.0957-0.773291Q74.2646-1.60439 73.0528-1.60439L47.4712-1.60439Q46.2928-1.60439 45.4617-0.773291Q44.6306 0.0578125 44.6306 1.26953Q44.6306 2.44795 45.4617 3.27905Q46.2928 4.11016 47.4712 4.11016ZM43.2832 13.751L76.8992 13.751Q78.0776 13.751 78.9087 12.9199Q79.7398 12.0888 79.7398 10.9104Q79.7398 9.69863 78.9087 8.86753Q78.0776 8.03643 76.8992 8.03643L43.2832 8.03643Q42.0715 8.03643 41.2404 8.86753Q40.4093 9.69863 40.4093 10.9104Q40.4093 12.0888 41.2404 12.9199Q42.0715 13.751 43.2832 13.751Z"/>
  </g>
  <g id="Medium-S" transform="matrix(1 0 0 1 1702.15 696)">
   <path d="M43.8838-66.332Q47.4873-66.332 50.0479-68.8926Q52.6084-71.4531 52.6084-75.0566Q52.6084-78.6689 50.0479-81.2251Q47.4873-83.7812 43.8838-83.7812Q40.3115-83.7812 37.7354-81.2251Q35.1592-78.6689 35.1592-75.0566Q35.1592-71.4531 37.7354-68.8926Q40.3115-66.332 43.8838-66.332ZM13.1152-36.0908Q14.6504-35.7979 16.1411-36.5854Q17.6318-37.373 18.0488-39.2363L21.3604-54.0049L27.0703-54.0049Q27.5547-54.0049 27.8569-53.6338Q28.1592-53.2627 28.0303-52.7695L24.0664-37.5977Q23.2588-34.4336 24.2905-31.6445Q25.3223-28.8555 27.936-27.4487Q30.5498-26.042 34.5127-26.9961L48.6611-30.5166L45.9043-16.9541Q45.5449-15.2549 46.521-13.7886Q47.4971-12.3223 49.1963-11.9717Q50.585-11.6699 52.1577-12.5439Q53.7305-13.418 54.0898-15.2637L58.1201-35.2949Q58.5771-37.5488 57.062-39.0439Q55.5469-40.5391 53.6035-40.335L41.0977-39.1318L44.7471-53.0459Q44.876-53.4678 45.2446-53.6699Q45.6133-53.8721 46.0264-53.7344L60.5859-48.2168Q62.6758-47.4492 64.437-48.4585Q66.1982-49.4678 66.1982-51.6729L66.1982-70.1904Q66.1982-71.8896 64.9849-73.123Q63.7715-74.3564 61.9834-74.3564Q60.2842-74.3564 59.0508-73.123Q57.8174-71.8896 57.8174-70.1904L57.8174-58.1904L50.5713-61.001Q48.6895-61.7021 46.7256-62.0439Q44.7617-62.3857 42.7334-62.3857L17.9219-62.3857Q16.4844-62.3857 15.3486-61.4585Q14.2129-60.5312 13.9023-59.0938L9.87207-41.082Q9.50391-39.3428 10.4355-37.8521Q11.3672-36.3613 13.1152-36.0908ZM31.1758 12.0586Q32.6133 12.3604 34.1816 11.4863Q35.75 10.6123 36.0693 8.80664L40.0732-11.1455Q40.1309-11.4424 40.1396-11.7773Q40.1484-12.1123 40.1484-12.3916L40.1484-24.2188L35.4844-23.1006Q32.7734-22.3906 30.3467-22.6611L31.7764-12.2539L27.8926 7.06738Q27.5332 8.75781 28.4805 10.2441Q29.4277 11.7305 31.1758 12.0586ZM46.8311 3.89453L72.5205 3.89453Q73.6514 3.89453 74.4185 3.12744Q75.1855 2.36035 75.1855 1.26953Q75.1855 0.138672 74.4185-0.628418Q73.6514-1.39551 72.5205-1.39551L46.8311-1.39551Q45.7402-1.39551 44.9731-0.628418Q44.2061 0.138672 44.2061 1.26953Q44.2061 2.36035 44.9731 3.12744Q45.7402 3.89453 46.8311 3.89453ZM42.7441 13.1445L76.4141 13.1445Q77.5049 13.1445 78.272 12.3774Q79.0391 11.6104 79.0391 10.5195Q79.0391 9.38867 78.272 8.62158Q77.5049 7.85449 76.4141 7.85449L42.7441 7.85449Q41.6133 7.85449 40.8462 8.62158Q40.0791 9.38867 40.0791 10.5195Q40.0791 11.6104 40.8462 12.3774Q41.6133 13.1445 42.7441 13.1445Z"/>
  </g>
  <g id="Regular-S" transform="matrix(1 0 0 1 1405.9 696)">
   <path d="M43.5059-66.0156Q47.0215-66.0156 49.5117-68.5059Q52.002-70.9961 52.002-74.5117Q52.002-78.0273 49.5117-80.5176Q47.0215-83.0078 43.5059-83.0078Q40.0391-83.0078 37.5244-80.5176Q35.0098-78.0273 35.0098-74.5117Q35.0098-70.9961 37.5244-68.5059Q40.0391-66.0156 43.5059-66.0156ZM12.9395-36.3281Q14.4043-36.0352 15.8203-36.792Q17.2363-37.5488 17.627-39.3066L20.9473-54.1016L26.8066-54.1016Q27.3438-54.1016 27.6855-53.6865Q28.0273-53.2715 27.8809-52.7344L23.9258-37.5977Q23.1445-34.5215 24.1455-31.8115Q25.1465-29.1016 27.6855-27.7344Q30.2246-26.3672 34.082-27.2949L48.3887-30.8594L45.6055-17.1387Q45.2637-15.5273 46.1914-14.1357Q47.1191-12.7441 48.7305-12.4023Q50.0488-12.1094 51.5381-12.9395Q53.0273-13.7695 53.3691-15.5273L57.373-35.4004Q57.8125-37.5488 56.3721-38.9648Q54.9316-40.3809 53.0762-40.1855L40.4297-38.9648L44.1406-53.125Q44.2871-53.5645 44.6777-53.7842Q45.0684-54.0039 45.5078-53.8574L60.0586-48.3398Q62.0605-47.6074 63.7207-48.5596Q65.3809-49.5117 65.3809-51.6113L65.3809-69.9707Q65.3809-71.582 64.2334-72.7539Q63.0859-73.9258 61.377-73.9258Q59.7656-73.9258 58.5938-72.7539Q57.4219-71.582 57.4219-69.9707L57.4219-57.8125L50-60.6934Q48.1445-61.377 46.2158-61.7188Q44.2871-62.0605 42.2852-62.0605L17.6758-62.0605Q16.3086-62.0605 15.2344-61.1816Q14.1602-60.3027 13.8672-58.9355L9.86328-41.0645Q9.52148-39.4043 10.4004-37.9883Q11.2793-36.5723 12.9395-36.3281ZM30.8594 11.4258Q32.2266 11.7188 33.7158 10.8887Q35.2051 10.0586 35.498 8.34961L39.502-11.5234Q39.5508-11.7676 39.5508-12.085Q39.5508-12.4023 39.5508-12.6465L39.5508-24.6582L35.0098-23.584Q32.4219-22.9004 30.127-23.1445L31.5918-12.5L27.7344 6.68945Q27.3926 8.30078 28.2959 9.7168Q29.1992 11.1328 30.8594 11.4258ZM45.9961 3.61328L71.8262 3.61328Q72.8516 3.61328 73.5352 2.92969Q74.2188 2.24609 74.2188 1.26953Q74.2188 0.244141 73.5352-0.439453Q72.8516-1.12305 71.8262-1.12305L45.9961-1.12305Q45.0195-1.12305 44.3359-0.439453Q43.6523 0.244141 43.6523 1.26953Q43.6523 2.24609 44.3359 2.92969Q45.0195 3.61328 45.9961 3.61328ZM42.041 12.3535L75.7812 12.3535Q76.7578 12.3535 77.4414 11.6699Q78.125 10.9863 78.125 10.0098Q78.125 8.98438 77.4414 8.30078Q76.7578 7.61719 75.7812 7.61719L42.041 7.61719Q41.0156 7.61719 40.332 8.30078Q39.6484 8.98438 39.6484 10.0098Q39.6484 10.9863 40.332 11.6699Q41.0156 12.3535 42.041 12.3535Z"/>
  </g>
  <g id="Light-S" transform="matrix(1 0 0 1 1110.4 696)">
   <path d="M42.4917-65.1377Q45.9015-65.1377 48.3159-67.5523Q50.7304-69.9669 50.7304-73.3615Q50.7304-76.771 48.3159-79.1931Q45.9015-81.6152 42.4917-81.6152Q39.1157-81.6152 36.6843-79.1931Q34.2529-76.771 34.2529-73.3615Q34.2529-69.9669 36.6843-67.5523Q39.1157-65.1377 42.4917-65.1377ZM12.8487-36.1918Q14.268-35.9141 15.6386-36.6482Q17.0092-37.3823 17.3848-39.0948L20.5991-53.4205L26.2919-53.4205Q26.829-53.4205 27.1557-53.0281Q27.4824-52.6357 27.3359-52.0986L23.5018-37.4311Q22.7359-34.4457 23.7066-31.8115Q24.6773-29.1773 27.1407-27.8479Q29.6041-26.5185 33.3555-27.4312L47.2232-30.8896L44.5307-17.5776Q44.2042-16.0118 45.1017-14.6656Q45.9991-13.3194 47.5497-12.9926Q48.853-12.7149 50.2893-13.5222Q51.7255-14.3295 52.0673-16.0268L55.9352-35.2943Q56.3594-37.3823 54.9643-38.7529Q53.5693-40.1235 51.7743-39.9434L39.5063-38.753L43.1114-52.4742Q43.2579-52.8984 43.6334-53.1181Q44.0089-53.3379 44.4331-53.1914L58.5449-47.8404Q60.4711-47.123 62.0859-48.0525Q63.7006-48.982 63.7006-51.0058L63.7006-68.8204Q63.7006-70.3863 62.591-71.5202Q61.4815-72.6542 59.833-72.6542Q58.2672-72.6542 57.1256-71.5202Q55.984-70.3863 55.984-68.8204L55.984-57.0407L48.789-59.8305Q46.9943-60.4838 45.1185-60.8181Q43.2426-61.1524 41.3012-61.1524L17.4337-61.1524Q16.1118-61.1524 15.0754-60.2961Q14.0391-59.4398 13.7461-58.1182L9.86328-40.7921Q9.52148-39.1925 10.3776-37.8142Q11.2338-36.436 12.8487-36.1918ZM30.2236 10.124Q31.5455 10.4019 32.9894 9.59447Q34.4332 8.78703 34.7262 7.12357L38.6088-12.144Q38.6426-12.3731 38.6501-12.6829Q38.6576-12.9926 38.6576-13.2367L38.6576-25.0669L34.2227-24.0079Q31.7558-23.3546 29.4912-23.5835L30.941-13.0903L27.1894 5.52394Q26.8628 7.08974 27.7434 8.46036Q28.624 9.83098 30.2236 10.124ZM44.9064 2.53855L69.9643 2.53855Q70.7929 2.53855 71.3554 1.98364Q71.918 1.42873 71.918 0.633748Q71.918-0.194804 71.3554-0.749715Q70.7929-1.30463 69.9643-1.30463L44.9064-1.30463Q44.1114-1.30463 43.5565-0.749715Q43.0016-0.194804 43.0016 0.633748Q43.0016 1.42873 43.5565 1.98364Q44.1114 2.53855 44.9064 2.53855ZM41.0571 11.0214L73.7984 11.0214Q74.5934 11.0214 75.1483 10.4665Q75.7032 9.9116 75.7032 9.11662Q75.7032 8.28807 75.1483 7.72552Q74.5934 7.16298 73.7984 7.16298L41.0571 7.16298Q40.2285 7.16298 39.6736 7.72552Q39.1187 8.28807 39.1187 9.11662Q39.1187 9.9116 39.6736 10.4665Q40.2285 11.0214 41.0571 11.0214Z"/>
  </g>
  <g id="Thin-S" transform="matrix(1 0 0 1 815.289 696)">
   <path d="M41.1503-63.9767Q44.4202-63.9767 46.7344-66.2912Q49.0486-68.6057 49.0486-71.8402Q49.0486-75.1095 46.7344-77.4414Q44.4202-79.7733 41.1503-79.7733Q37.8944-79.7733 35.5732-77.4414Q33.252-75.1095 33.252-71.8402Q33.252-68.6057 35.5732-66.2912Q37.8944-63.9767 41.1503-63.9767ZM12.7286-36.0115Q14.0877-35.754 15.3983-36.458Q16.7089-37.1619 17.0646-38.8146L20.1386-52.5198L25.6111-52.5198Q26.1482-52.5198 26.4549-52.1573Q26.7616-51.7948 26.6151-51.2577L22.9411-37.2108Q22.1953-34.3455 23.126-31.8115Q24.0567-29.2776 26.4201-27.9981Q28.7834-26.7186 32.3945-27.6115L45.6817-30.9297L43.1093-18.1582Q42.803-16.6526 43.6604-15.3664Q44.5179-14.0802 45.988-13.7733Q47.2715-13.5157 48.6376-14.293Q50.0037-15.0702 50.3455-16.6874L54.0334-35.1541Q54.4375-37.1619 53.1025-38.4725Q51.7675-39.7831 50.0526-39.6232L38.285-38.4728L41.7502-51.6135Q41.8967-52.0175 42.2522-52.2372Q42.6077-52.457 43.0117-52.3105L56.543-47.1798Q58.3689-46.4822 59.9236-47.3818Q61.4784-48.2814 61.4784-50.205L61.4784-67.2991Q61.4784-68.8047 60.4189-69.8886Q59.3594-70.9725 57.791-70.9725Q56.2854-70.9725 55.1839-69.8886Q54.0823-68.8047 54.0823-67.2991L54.0823-56.0198L47.1873-58.6892Q45.473-59.3025 43.6671-59.6269Q41.8613-59.9513 39.9999-59.9513L17.1135-59.9513Q15.8514-59.9513 14.8652-59.125Q13.879-58.2986 13.586-57.0372L9.86328-40.4319Q9.52148-38.9123 10.3475-37.584Q11.1736-36.2557 12.7286-36.0115ZM29.3827 8.40218Q30.6448 8.6603 32.0286 7.88279Q33.4124 7.10528 33.7054 5.50202L37.4275-12.9647Q37.4415-13.1739 37.4589-13.4736Q37.4764-13.7733 37.4764-14.0174L37.4764-25.6074L33.1817-24.5686Q30.8749-23.9553 28.6503-24.164L30.0803-13.8709L26.4686 3.98245Q26.1622 5.48804 27.0127 6.79863Q27.8631 8.10921 29.3827 8.40218ZM43.4651 1.11714L67.5019 1.11714Q68.0701 1.11714 68.4726 0.732422Q68.875 0.347704 68.875-0.207126Q68.875-0.775343 68.4726-1.16006Q68.0701-1.54478 67.5019-1.54478L43.4651-1.54478Q42.9103-1.54478 42.5256-1.16006Q42.1408-0.775343 42.1408-0.207126Q42.1408 0.347704 42.5256 0.732422Q42.9103 1.11714 43.4651 1.11714ZM39.7557 9.25962L71.1759 9.25962Q71.7307 9.25962 72.1154 8.87491Q72.5001 8.49019 72.5001 7.93536Q72.5001 7.36714 72.1154 6.9647Q71.7307 6.56226 71.1759 6.56226L39.7557 6.56226Q39.1875 6.56226 38.8028 6.9647Q38.4181 7.36714 38.4181 7.93536Q38.4181 8.49019 38.8028 8.87491Q39.1875 9.25962 39.7557 9.25962Z"/>
  </g>
  <g id="Ultralight-S" transform="matrix(1 0 0 1 519.399 696)">
   <path d="M40.4633-63.382Q43.6615-63.382 45.9244-65.6452Q48.1873-67.9085 48.1873-71.0609Q48.1873-74.2584 45.9244-76.5442Q43.6615-78.83 40.4633-78.83Q37.2688-78.83 35.004-76.5442Q32.7393-74.2584 32.7393-71.0609Q32.7393-67.9085 35.004-65.6452Q37.2688-63.382 40.4633-63.382ZM12.6671-35.9192Q13.9954-35.672 15.2752-36.3605Q16.555-37.0491 16.9006-38.6711L19.9028-52.0584L25.2625-52.0584Q25.7996-52.0584 26.096-51.7113Q26.3924-51.3641 26.2459-50.827L22.654-37.0979Q21.9185-34.2941 22.8287-31.8115Q23.7389-29.3289 26.0509-28.075Q28.363-26.8211 31.9023-27.7039L44.8921-30.9502L42.3813-18.4555Q42.0853-16.9807 42.9222-15.7253Q43.7592-14.4699 45.1881-14.1731Q46.4615-13.9259 47.7917-14.6877Q49.1219-15.4495 49.4637-17.0258L53.0594-35.0822Q53.4531-37.0491 52.1488-38.3289Q50.8446-39.6088 49.1707-39.4592L37.6595-38.3293L41.053-51.1726Q41.1995-51.5663 41.5447-51.786Q41.89-52.0058 42.2836-51.8593L55.5176-46.8414Q57.2922-46.154 58.8161-47.0383Q60.3401-47.9225 60.3401-49.7948L60.3401-66.5199Q60.3401-67.9947 59.3063-69.0529Q58.2726-70.1111 56.7451-70.1111Q55.2704-70.1111 54.1893-69.0529Q53.1082-67.9947 53.1082-66.5199L53.1082-55.497L46.3669-58.1047Q44.6938-58.6975 42.9237-59.0168Q41.1537-59.3361 39.3333-59.3361L16.9495-59.3361Q15.7181-59.3361 14.7575-58.5251Q13.797-57.7141 13.504-56.4835L9.86328-40.2473Q9.52148-38.7688 10.3321-37.466Q11.1427-36.1633 12.6671-35.9192ZM28.952 7.52029Q30.1834 7.76825 31.5365 7.00607Q32.8896 6.2439 33.1825 4.67148L36.8225-13.385Q36.8263-13.5841 36.8488-13.8786Q36.8713-14.1731 36.8713-14.4173L36.8713-25.8842L32.6485-24.8558Q30.4237-24.263 28.2196-24.4614L29.6394-14.2708L26.0994 3.1929Q25.8034 4.66766 26.6384 5.94749Q27.4734 7.22733 28.952 7.52029ZM42.7269 0.389099L66.2407 0.389099Q66.6756 0.389099 66.996 0.0915527Q67.3164-0.205994 67.3164-0.637817Q67.3164-1.07269 66.996-1.37024Q66.6756-1.66779 66.2407-1.66779L42.7269-1.66779Q42.2951-1.66779 41.9975-1.37024Q41.7-1.07269 41.7-0.637817Q41.7-0.205994 41.9975 0.0915527Q42.2951 0.389099 42.7269 0.389099ZM39.0892 8.35724L69.8326 8.35724Q70.2644 8.35724 70.562 8.05969Q70.8595 7.76215 70.8595 7.33032Q70.8595 6.89545 70.562 6.57501Q70.2644 6.25458 69.8326 6.25458L39.0892 6.25458Q38.6543 6.25458 38.3568 6.57501Q38.0592 6.89545 38.0592 7.33032Q38.0592 7.76215 38.3568 8.05969Q38.6543 8.35724 39.0892 8.35724Z"/>
  </g>
 </g>
</svg>
