<?xml version="1.0" encoding="UTF-8"?>
<!--Generator: Apple Native CoreSVG 175.5-->
<!DOCTYPE svg
PUBLIC "-//W3C//DTD SVG 1.1//EN"
       "http://www.w3.org/Graphics/SVG/1.1/DTD/svg11.dtd">
<svg version="1.1" xmlns="http://www.w3.org/2000/svg" xmlns:xlink="http://www.w3.org/1999/xlink" width="3300" height="2200">
 <!--glyph: "uni101470.medium", point size: 100.0, font version: "18.0d9e1", template writer version: "84"-->
 <g id="Notes">
  <rect height="2200" id="artboard" style="fill:white;opacity:1" width="3300" x="0" y="0"/>
  <line style="fill:none;stroke:black;opacity:1;stroke-width:0.5;" x1="263" x2="3036" y1="292" y2="292"/>
  <text style="stroke:none;fill:black;font-family:sans-serif;font-size:13;font-weight:bold;" transform="matrix(1 0 0 1 263 322)">Weight/Scale Variations</text>
  <text style="stroke:none;fill:black;font-family:sans-serif;font-size:13;text-anchor:middle;" transform="matrix(1 0 0 1 559.711 322)">Ultralight</text>
  <text style="stroke:none;fill:black;font-family:sans-serif;font-size:13;text-anchor:middle;" transform="matrix(1 0 0 1 856.422 322)">Thin</text>
  <text style="stroke:none;fill:black;font-family:sans-serif;font-size:13;text-anchor:middle;" transform="matrix(1 0 0 1 1153.13 322)">Light</text>
  <text style="stroke:none;fill:black;font-family:sans-serif;font-size:13;text-anchor:middle;" transform="matrix(1 0 0 1 1449.84 322)">Regular</text>
  <text style="stroke:none;fill:black;font-family:sans-serif;font-size:13;text-anchor:middle;" transform="matrix(1 0 0 1 1746.56 322)">Medium</text>
  <text style="stroke:none;fill:black;font-family:sans-serif;font-size:13;text-anchor:middle;" transform="matrix(1 0 0 1 2043.27 322)">Semibold</text>
  <text style="stroke:none;fill:black;font-family:sans-serif;font-size:13;text-anchor:middle;" transform="matrix(1 0 0 1 2339.98 322)">Bold</text>
  <text style="stroke:none;fill:black;font-family:sans-serif;font-size:13;text-anchor:middle;" transform="matrix(1 0 0 1 2636.69 322)">Heavy</text>
  <text style="stroke:none;fill:black;font-family:sans-serif;font-size:13;text-anchor:middle;" transform="matrix(1 0 0 1 2933.4 322)">Black</text>
  <line style="fill:none;stroke:black;opacity:1;stroke-width:0.5;" x1="263" x2="3036" y1="1903" y2="1903"/>
  <g transform="matrix(1 0 0 1 263 1933)">
   <path d="M9.24805 0.830078Q10.8691 0.830078 12.2949 0.214844Q13.7207-0.400391 14.8096-1.49414Q15.8984-2.58789 16.5186-4.01367Q17.1387-5.43945 17.1387-7.05078Q17.1387-8.66211 16.5186-10.0879Q15.8984-11.5137 14.8047-12.6074Q13.7109-13.7012 12.2852-14.3164Q10.8594-14.9316 9.23828-14.9316Q7.62695-14.9316 6.20117-14.3164Q4.77539-13.7012 3.69141-12.6074Q2.60742-11.5137 1.9873-10.0879Q1.36719-8.66211 1.36719-7.05078Q1.36719-5.43945 1.9873-4.01367Q2.60742-2.58789 3.69629-1.49414Q4.78516-0.400391 6.21094 0.214844Q7.63672 0.830078 9.24805 0.830078ZM9.24805-0.654297Q7.91992-0.654297 6.7627-1.14746Q5.60547-1.64062 4.73145-2.51953Q3.85742-3.39844 3.36426-4.56055Q2.87109-5.72266 2.87109-7.05078Q2.87109-8.37891 3.35938-9.54102Q3.84766-10.7031 4.72168-11.582Q5.5957-12.4609 6.75293-12.9541Q7.91016-13.4473 9.23828-13.4473Q10.5762-13.4473 11.7383-12.9541Q12.9004-12.4609 13.7793-11.582Q14.6582-10.7031 15.1514-9.54102Q15.6445-8.37891 15.6445-7.05078Q15.6445-5.72266 15.1514-4.56055Q14.6582-3.39844 13.7793-2.51953Q12.9004-1.64062 11.7432-1.14746Q10.5859-0.654297 9.24805-0.654297ZM5.6543-7.05078Q5.6543-6.72852 5.85938-6.52832Q6.06445-6.32812 6.40625-6.32812L8.51562-6.32812L8.51562-4.20898Q8.51562-3.88672 8.71094-3.67676Q8.90625-3.4668 9.23828-3.4668Q9.56055-3.4668 9.77051-3.67676Q9.98047-3.88672 9.98047-4.20898L9.98047-6.32812L12.0898-6.32812Q12.4219-6.32812 12.627-6.52832Q12.832-6.72852 12.832-7.05078Q12.832-7.38281 12.627-7.58789Q12.4219-7.79297 12.0898-7.79297L9.98047-7.79297L9.98047-9.90234Q9.98047-10.2344 9.77051-10.4443Q9.56055-10.6543 9.23828-10.6543Q8.90625-10.6543 8.71094-10.4443Q8.51562-10.2344 8.51562-9.90234L8.51562-7.79297L6.40625-7.79297Q6.06445-7.79297 5.85938-7.58789Q5.6543-7.38281 5.6543-7.05078Z"/>
  </g>
  <g transform="matrix(1 0 0 1 281.867 1933)">
   <path d="M11.709 2.91016Q13.75 2.91016 15.5518 2.12891Q17.3535 1.34766 18.7305-0.0292969Q20.1074-1.40625 20.8887-3.20801Q21.6699-5.00977 21.6699-7.05078Q21.6699-9.0918 20.8887-10.8936Q20.1074-12.6953 18.7305-14.0723Q17.3535-15.4492 15.5469-16.2305Q13.7402-17.0117 11.6992-17.0117Q9.6582-17.0117 7.85645-16.2305Q6.05469-15.4492 4.68262-14.0723Q3.31055-12.6953 2.5293-10.8936Q1.74805-9.0918 1.74805-7.05078Q1.74805-5.00977 2.5293-3.20801Q3.31055-1.40625 4.6875-0.0292969Q6.06445 1.34766 7.86621 2.12891Q9.66797 2.91016 11.709 2.91016ZM11.709 1.25Q9.98047 1.25 8.47656 0.605469Q6.97266-0.0390625 5.83496-1.17676Q4.69727-2.31445 4.05762-3.81836Q3.41797-5.32227 3.41797-7.05078Q3.41797-8.7793 4.05762-10.2832Q4.69727-11.7871 5.83008-12.9297Q6.96289-14.0723 8.4668-14.7119Q9.9707-15.3516 11.6992-15.3516Q13.4277-15.3516 14.9365-14.7119Q16.4453-14.0723 17.583-12.9297Q18.7207-11.7871 19.3652-10.2832Q20.0098-8.7793 20.0098-7.05078Q20.0098-5.32227 19.3701-3.81836Q18.7305-2.31445 17.5879-1.17676Q16.4453-0.0390625 14.9414 0.605469Q13.4375 1.25 11.709 1.25ZM7.17773-7.05078Q7.17773-6.69922 7.41211-6.47461Q7.64648-6.25 8.01758-6.25L10.8887-6.25L10.8887-3.36914Q10.8887-2.99805 11.1133-2.76855Q11.3379-2.53906 11.6895-2.53906Q12.0605-2.53906 12.29-2.76855Q12.5195-2.99805 12.5195-3.36914L12.5195-6.25L15.4004-6.25Q15.7715-6.25 16.001-6.47461Q16.2305-6.69922 16.2305-7.05078Q16.2305-7.42188 16.001-7.65137Q15.7715-7.88086 15.4004-7.88086L12.5195-7.88086L12.5195-10.752Q12.5195-11.1328 12.29-11.3623Q12.0605-11.5918 11.6895-11.5918Q11.3379-11.5918 11.1133-11.3574Q10.8887-11.123 10.8887-10.752L10.8887-7.88086L8.01758-7.88086Q7.63672-7.88086 7.40723-7.65137Q7.17773-7.42188 7.17773-7.05078Z"/>
  </g>
  <g transform="matrix(1 0 0 1 305.646 1933)">
   <path d="M14.9707 5.66406Q17.0605 5.66406 18.96 5.01465Q20.8594 4.36523 22.4512 3.19336Q24.043 2.02148 25.2197 0.429688Q26.3965-1.16211 27.0459-3.06641Q27.6953-4.9707 27.6953-7.05078Q27.6953-9.14062 27.0459-11.04Q26.3965-12.9395 25.2197-14.5312Q24.043-16.123 22.4512-17.2998Q20.8594-18.4766 18.9551-19.126Q17.0508-19.7754 14.9609-19.7754Q12.8711-19.7754 10.9717-19.126Q9.07227-18.4766 7.48535-17.2998Q5.89844-16.123 4.72168-14.5312Q3.54492-12.9395 2.90039-11.04Q2.25586-9.14062 2.25586-7.05078Q2.25586-4.9707 2.90527-3.06641Q3.55469-1.16211 4.72656 0.429688Q5.89844 2.02148 7.49023 3.19336Q9.08203 4.36523 10.9814 5.01465Q12.8809 5.66406 14.9707 5.66406ZM14.9707 3.84766Q13.1641 3.84766 11.5283 3.2959Q9.89258 2.74414 8.53516 1.74805Q7.17773 0.751953 6.17676-0.610352Q5.17578-1.97266 4.62891-3.6084Q4.08203-5.24414 4.08203-7.05078Q4.08203-8.86719 4.62891-10.5029Q5.17578-12.1387 6.17188-13.501Q7.16797-14.8633 8.52539-15.8594Q9.88281-16.8555 11.5186-17.4023Q13.1543-17.9492 14.9609-17.9492Q16.7773-17.9492 18.4131-17.4023Q20.0488-16.8555 21.4111-15.8594Q22.7734-14.8633 23.7744-13.501Q24.7754-12.1387 25.3223-10.5029Q25.8691-8.86719 25.8691-7.05078Q25.8691-5.24414 25.3223-3.6084Q24.7754-1.97266 23.7793-0.610352Q22.7832 0.751953 21.4209 1.74805Q20.0586 2.74414 18.4229 3.2959Q16.7871 3.84766 14.9707 3.84766ZM9.19922-7.05078Q9.19922-6.66992 9.45801-6.4209Q9.7168-6.17188 10.1172-6.17188L14.0625-6.17188L14.0625-2.2168Q14.0625-1.81641 14.3115-1.55762Q14.5605-1.29883 14.9512-1.29883Q15.3516-1.29883 15.6104-1.55273Q15.8691-1.80664 15.8691-2.2168L15.8691-6.17188L19.8242-6.17188Q20.2246-6.17188 20.4785-6.4209Q20.7324-6.66992 20.7324-7.05078Q20.7324-7.46094 20.4785-7.71484Q20.2246-7.96875 19.8242-7.96875L15.8691-7.96875L15.8691-11.9141Q15.8691-12.3242 15.6104-12.583Q15.3516-12.8418 14.9512-12.8418Q14.5605-12.8418 14.3115-12.583Q14.0625-12.3242 14.0625-11.9141L14.0625-7.96875L10.1172-7.96875Q9.70703-7.96875 9.45312-7.71484Q9.19922-7.46094 9.19922-7.05078Z"/>
  </g>
  <text style="stroke:none;fill:black;font-family:sans-serif;font-size:13;font-weight:bold;" transform="matrix(1 0 0 1 263 1953)">Design Variations</text>
  <text style="stroke:none;fill:black;font-family:sans-serif;font-size:13;" transform="matrix(1 0 0 1 263 1971)">Symbols are supported in up to nine weights and three scales.</text>
  <text style="stroke:none;fill:black;font-family:sans-serif;font-size:13;" transform="matrix(1 0 0 1 263 1989)">For optimal layout with text and other symbols, vertically align</text>
  <text style="stroke:none;fill:black;font-family:sans-serif;font-size:13;" transform="matrix(1 0 0 1 263 2007)">symbols with the adjacent text.</text>
  <line style="fill:none;stroke:#00AEEF;stroke-width:0.5;opacity:1.0;" x1="776" x2="776" y1="1919" y2="1933"/>
  <g transform="matrix(1 0 0 1 776 1933)">
   <path d="M3.31055 0.15625Q3.70117 0.15625 3.91602-0.00976562Q4.13086-0.175781 4.26758-0.585938L5.52734-4.0332L11.2891-4.0332L12.5488-0.585938Q12.6855-0.175781 12.9004-0.00976562Q13.1152 0.15625 13.4961 0.15625Q13.8867 0.15625 14.1162-0.0585938Q14.3457-0.273438 14.3457-0.644531Q14.3457-0.869141 14.2383-1.17188L9.6582-13.3691Q9.48242-13.8184 9.17969-14.043Q8.87695-14.2676 8.4082-14.2676Q7.5-14.2676 7.17773-13.3789L2.59766-1.16211Q2.49023-0.859375 2.49023-0.634766Q2.49023-0.263672 2.70996-0.0537109Q2.92969 0.15625 3.31055 0.15625ZM6.00586-5.51758L8.37891-12.0898L8.42773-12.0898L10.8008-5.51758Z"/>
  </g>
  <line style="fill:none;stroke:#00AEEF;stroke-width:0.5;opacity:1.0;" x1="793.197" x2="793.197" y1="1919" y2="1933"/>
  <text style="stroke:none;fill:black;font-family:sans-serif;font-size:13;font-weight:bold;" transform="matrix(1 0 0 1 776 1953)">Margins</text>
  <text style="stroke:none;fill:black;font-family:sans-serif;font-size:13;" transform="matrix(1 0 0 1 776 1971)">Leading and trailing margins on the left and right side of each symbol</text>
  <text style="stroke:none;fill:black;font-family:sans-serif;font-size:13;" transform="matrix(1 0 0 1 776 1989)">can be adjusted by modifying the x-location of the margin guidelines.</text>
  <text style="stroke:none;fill:black;font-family:sans-serif;font-size:13;" transform="matrix(1 0 0 1 776 2007)">Modifications are automatically applied proportionally to all</text>
  <text style="stroke:none;fill:black;font-family:sans-serif;font-size:13;" transform="matrix(1 0 0 1 776 2025)">scales and weights.</text>
  <g transform="matrix(1 0 0 1 1289 1933)">
   <path d="M2.8418 1.86523L4.54102 3.57422Q5.18555 4.22852 5.90332 4.17969Q6.62109 4.13086 7.31445 3.35938L18.0078-8.42773L17.041-9.4043L6.42578 2.27539Q6.16211 2.57812 5.89355 2.61719Q5.625 2.65625 5.27344 2.30469L4.10156 1.14258Q3.75 0.791016 3.79395 0.522461Q3.83789 0.253906 4.14062-0.0195312L15.6152-10.8203L14.6387-11.7871L3.04688-0.898438Q2.30469-0.214844 2.25098 0.498047Q2.19727 1.21094 2.8418 1.86523ZM9.25781-16.3281Q8.94531-16.0254 8.90625-15.6348Q8.86719-15.2441 9.04297-14.9512Q9.21875-14.6777 9.55566-14.541Q9.89258-14.4043 10.3809-14.5215Q11.4746-14.7754 12.5977-14.7314Q13.7207-14.6875 14.7949-13.9844L14.209-12.5293Q13.9551-11.9043 14.0674-11.4404Q14.1797-10.9766 14.5801-10.5664L16.875-8.25195Q17.2363-7.88086 17.5781-7.82227Q17.9199-7.76367 18.3398-7.8418L19.4043-8.03711L20.0684-7.36328L20.0293-6.80664Q20-6.43555 20.1221-6.12305Q20.2441-5.81055 20.6055-5.44922L21.3672-4.70703Q21.7285-4.3457 22.1533-4.33105Q22.5781-4.31641 22.9297-4.66797L25.8398-7.58789Q26.1914-7.93945 26.1816-8.35449Q26.1719-8.76953 25.8105-9.13086L25.0391-9.89258Q24.6875-10.2539 24.3799-10.3857Q24.0723-10.5176 23.7109-10.4883L23.1348-10.4395L22.4902-11.0742L22.7344-12.1973Q22.832-12.6172 22.6953-12.9834Q22.5586-13.3496 22.1191-13.7891L19.9219-15.9766Q18.6719-17.2168 17.2607-17.8369Q15.8496-18.457 14.4189-18.4814Q12.9883-18.5059 11.665-17.959Q10.3418-17.4121 9.25781-16.3281ZM10.752-15.957Q11.6602-16.6211 12.7002-16.9043Q13.7402-17.1875 14.8047-17.085Q15.8691-16.9824 16.8701-16.5137Q17.8711-16.0449 18.7012-15.2051L21.1328-12.793Q21.3086-12.6172 21.3525-12.4512Q21.3965-12.2852 21.3379-12.0312L21.0156-10.5469L22.5195-9.0625L23.5059-9.12109Q23.6914-9.13086 23.7891-9.09668Q23.8867-9.0625 24.0332-8.91602L24.6094-8.33984L22.168-5.89844L21.5918-6.47461Q21.4453-6.62109 21.4062-6.71875Q21.3672-6.81641 21.377-7.01172L21.4453-7.98828L19.9512-9.47266L18.4277-9.21875Q18.1836-9.16992 18.042-9.2041Q17.9004-9.23828 17.7148-9.41406L15.7129-11.416Q15.5176-11.5918 15.4932-11.7529Q15.4688-11.9141 15.5859-12.1875L16.4648-14.2773Q15.293-15.3711 13.8281-15.791Q12.3633-16.2109 10.8398-15.7617Q10.7227-15.7324 10.6885-15.8057Q10.6543-15.8789 10.752-15.957Z"/>
  </g>
  <text style="stroke:none;fill:black;font-family:sans-serif;font-size:13;font-weight:bold;" transform="matrix(1 0 0 1 1289 1953)">Exporting</text>
  <text style="stroke:none;fill:black;font-family:sans-serif;font-size:13;" transform="matrix(1 0 0 1 1289 1971)">Symbols should be outlined when exporting to ensure the</text>
  <text style="stroke:none;fill:black;font-family:sans-serif;font-size:13;" transform="matrix(1 0 0 1 1289 1989)">design is preserved when submitting to Xcode.</text>
  <text id="template-version" style="stroke:none;fill:black;font-family:sans-serif;font-size:13;text-anchor:end;" transform="matrix(1 0 0 1 3036 1933)">Template v.2.0</text>
  <text style="stroke:none;fill:black;font-family:sans-serif;font-size:13;text-anchor:end;" transform="matrix(1 0 0 1 3036 1951)">Requires Xcode 12 or greater</text>
  <text id="descriptive-name" style="stroke:none;fill:black;font-family:sans-serif;font-size:13;text-anchor:end;" transform="matrix(1 0 0 1 3036 1969)">Generated from moon.haze.fill</text>
  <text style="stroke:none;fill:black;font-family:sans-serif;font-size:13;text-anchor:end;" transform="matrix(1 0 0 1 3036 1987)">Typeset at 100 points</text>
  <text style="stroke:none;fill:black;font-family:sans-serif;font-size:13;" transform="matrix(1 0 0 1 263 726)">Small</text>
  <text style="stroke:none;fill:black;font-family:sans-serif;font-size:13;" transform="matrix(1 0 0 1 263 1156)">Medium</text>
  <text style="stroke:none;fill:black;font-family:sans-serif;font-size:13;" transform="matrix(1 0 0 1 263 1586)">Large</text>
 </g>
 <g id="Guides">
  <g id="H-reference" style="fill:#27AAE1;stroke:none;" transform="matrix(1 0 0 1 339 696)">
   <path d="M0.993347 0L3.6377 0L29.3282-67.1326L30.0301-67.1326L30.0301-70.459L28.1227-70.459ZM11.6882-24.4797L46.9818-24.4797L46.2311-26.7288L12.4382-26.7288ZM55.1193 0L57.7637 0L30.6381-70.459L29.4327-70.459L29.4327-67.1326Z"/>
  </g>
  <line id="Baseline-S" style="fill:none;stroke:#27AAE1;opacity:1;stroke-width:0.5;" x1="263" x2="3036" y1="696" y2="696"/>
  <line id="Capline-S" style="fill:none;stroke:#27AAE1;opacity:1;stroke-width:0.5;" x1="263" x2="3036" y1="625.541" y2="625.541"/>
  <g id="H-reference" style="fill:#27AAE1;stroke:none;" transform="matrix(1 0 0 1 339 1126)">
   <path d="M0.993347 0L3.6377 0L29.3282-67.1326L30.0301-67.1326L30.0301-70.459L28.1227-70.459ZM11.6882-24.4797L46.9818-24.4797L46.2311-26.7288L12.4382-26.7288ZM55.1193 0L57.7637 0L30.6381-70.459L29.4327-70.459L29.4327-67.1326Z"/>
  </g>
  <line id="Baseline-M" style="fill:none;stroke:#27AAE1;opacity:1;stroke-width:0.5;" x1="263" x2="3036" y1="1126" y2="1126"/>
  <line id="Capline-M" style="fill:none;stroke:#27AAE1;opacity:1;stroke-width:0.5;" x1="263" x2="3036" y1="1055.54" y2="1055.54"/>
  <g id="H-reference" style="fill:#27AAE1;stroke:none;" transform="matrix(1 0 0 1 339 1556)">
   <path d="M0.993347 0L3.6377 0L29.3282-67.1326L30.0301-67.1326L30.0301-70.459L28.1227-70.459ZM11.6882-24.4797L46.9818-24.4797L46.2311-26.7288L12.4382-26.7288ZM55.1193 0L57.7637 0L30.6381-70.459L29.4327-70.459L29.4327-67.1326Z"/>
  </g>
  <line id="Baseline-L" style="fill:none;stroke:#27AAE1;opacity:1;stroke-width:0.5;" x1="263" x2="3036" y1="1556" y2="1556"/>
  <line id="Capline-L" style="fill:none;stroke:#27AAE1;opacity:1;stroke-width:0.5;" x1="263" x2="3036" y1="1485.54" y2="1485.54"/>
  <line id="left-margin" style="fill:none;stroke:#00AEEF;stroke-width:0.5;opacity:1.0;" x1="1381.06" x2="1381.06" y1="1030.79" y2="1150.12"/>
  <line id="right-margin" style="fill:none;stroke:#00AEEF;stroke-width:0.5;opacity:1.0;" x1="1518.63" x2="1518.63" y1="1030.79" y2="1150.12"/>
 </g>
 <g id="Symbols">
  <g id="Black-L" transform="matrix(1 0 0 1 2844.62 1556)">
   <path d="M31.0657-15.6473L155.991-15.6473Q158.348-15.6473 159.916-17.1259Q161.483-18.6045 161.483-20.8075Q161.483-23.0092 159.916-24.4878Q158.348-25.9664 155.991-25.9664L31.0657-25.9664Q28.7667-25.9664 27.1701-24.4878Q25.5735-23.0092 25.5735-20.8075Q25.5735-18.6045 27.1701-17.1259Q28.7667-15.6473 31.0657-15.6473ZM21.5761 8.55905L146.502 8.55905Q148.859 8.55905 150.426 7.08047Q151.994 5.60189 151.994 3.39892Q151.994 1.19715 150.426-0.281429Q148.859-1.76001 146.502-1.76001L21.5761-1.76001Q19.2772-1.76001 17.6806-0.281429Q16.084 1.19715 16.084 3.39892Q16.084 5.60189 17.6806 7.08047Q19.2772 8.55905 21.5761 8.55905ZM31.0657 32.7654L155.991 32.7654Q158.348 32.7654 159.916 31.2869Q161.483 29.8083 161.483 27.6053Q161.483 25.4035 159.916 23.925Q158.348 22.4464 155.991 22.4464L31.0657 22.4464Q28.7667 22.4464 27.1701 23.925Q25.5735 25.4035 25.5735 27.6053Q25.5735 29.8083 27.1701 31.2869Q28.7667 32.7654 31.0657 32.7654ZM45.9803-35.6699L136.618-35.6699Q137.468-36.898 138.215-38.7002Q141.043-44.8731 137.66-48.1243Q134.421-51.0937 129.05-48.6252Q126.201-47.3581 122.545-46.665Q118.889-45.9718 114.921-45.9718Q103.694-45.9718 95.4975-50.2655Q87.3014-54.5592 82.8505-62.45Q78.3995-70.3407 78.3995-81.1746Q78.3995-85.2585 79.2237-89.5092Q80.0479-93.7599 81.495-97.2418Q83.9376-102.885 81.237-106.102Q78.2408-109.395 71.9786-106.912Q62.5287-103.173 55.4387-95.9816Q48.3488-88.7905 44.3828-79.3607Q40.4169-69.931 40.4169-59.3876Q40.4169-52.9687 41.84-46.9656Q43.2632-40.9625 45.9803-35.6699Z"/>
  </g>
  <g id="Heavy-L" transform="matrix(1 0 0 1 2547.91 1556)">
   <path d="M30.6536-16.0119L156.403-16.0119Q158.57-16.0119 160.027-17.3959Q161.483-18.7798 161.483-20.8432Q161.483-22.901 160.027-24.2849Q158.57-25.6689 156.403-25.6689L30.6536-25.6689Q28.5312-25.6689 27.0523-24.2849Q25.5735-22.901 25.5735-20.8432Q25.5735-18.7798 27.0523-17.3959Q28.5312-16.0119 30.6536-16.0119ZM21.164 8.1945L146.914 8.1945Q149.081 8.1945 150.537 6.81054Q151.994 5.42658 151.994 3.36317Q151.994 1.30541 150.537-0.0785464Q149.081-1.4625 146.914-1.4625L21.164-1.4625Q19.0416-1.4625 17.5628-0.0785464Q16.084 1.30541 16.084 3.36317Q16.084 5.42658 17.5628 6.81054Q19.0416 8.1945 21.164 8.1945ZM30.6536 32.4009L156.403 32.4009Q158.57 32.4009 160.027 31.0169Q161.483 29.633 161.483 27.5696Q161.483 25.5118 160.027 24.1279Q158.57 22.7439 156.403 22.7439L30.6536 22.7439Q28.5312 22.7439 27.0523 24.1279Q25.5735 25.5118 25.5735 27.5696Q25.5735 29.633 27.0523 31.0169Q28.5312 32.4009 30.6536 32.4009ZM47.3234-34.7591L134.861-34.7591Q136.272-36.607 137.373-39.1918Q139.914-44.7538 136.849-47.7269Q133.985-50.4041 129.098-48.2284Q126.162-46.9663 122.47-46.285Q118.778-45.6037 114.655-45.6037Q103.165-45.6037 94.7783-50.0201Q86.3914-54.4364 81.831-62.5448Q77.2706-70.6532 77.2706-81.7806Q77.2706-86.0155 78.0876-90.3451Q78.9047-94.6746 80.3231-97.9746Q82.593-103.06 80.0976-106.065Q77.3622-109.098 71.6515-106.826Q62.4288-103.13 55.4933-96.0368Q48.5579-88.9435 44.6735-79.6131Q40.7892-70.2827 40.7892-59.8027Q40.7892-52.9122 42.4663-46.5619Q44.1435-40.2115 47.3234-34.7591Z"/>
  </g>
  <g id="Bold-L" transform="matrix(1 0 0 1 2251.19 1556)">
   <path d="M30.1016-16.4652L156.955-16.4652Q158.869-16.4652 160.176-17.7152Q161.483-18.9652 161.483-20.8297Q161.483-22.6809 160.176-23.9309Q158.869-25.1809 156.955-25.1809L30.1016-25.1809Q28.2168-25.1809 26.8952-23.9309Q25.5735-22.6809 25.5735-20.8297Q25.5735-18.9652 26.8952-17.7152Q28.2168-16.4652 30.1016-16.4652ZM20.612 7.74118L147.466 7.74118Q149.38 7.74118 150.687 6.49117Q151.994 5.24117 151.994 3.37669Q151.994 1.52554 150.687 0.275538Q149.38-0.974465 147.466-0.974465L20.612-0.974465Q18.7273-0.974465 17.4056 0.275538Q16.084 1.52554 16.084 3.37669Q16.084 5.24117 17.4056 6.49117Q18.7273 7.74118 20.612 7.74118ZM30.1016 31.9476L156.955 31.9476Q158.869 31.9476 160.176 30.6976Q161.483 29.4476 161.483 27.5831Q161.483 25.7319 160.176 24.4819Q158.869 23.2319 156.955 23.2319L30.1016 23.2319Q28.2168 23.2319 26.8952 24.4819Q25.5735 25.7319 25.5735 27.5831Q25.5735 29.4476 26.8952 30.6976Q28.2168 31.9476 30.1016 31.9476ZM49.0801-33.4806L132.649-33.4806Q134.819-36.0968 136.38-39.6722Q138.567-44.481 135.91-47.1084Q133.491-49.4319 129.196-47.6026Q126.153-46.3406 122.411-45.6672Q118.669-44.9938 114.347-44.9938Q102.504-44.9938 93.872-49.5675Q85.2396-54.1412 80.5446-62.5371Q75.8497-70.9331 75.8497-82.4665Q75.8497-86.8784 76.6628-91.2855Q77.4759-95.6925 78.8783-98.8292Q80.9256-103.245 78.6838-105.966Q76.2562-108.67 71.2294-106.637Q62.2983-102.965 55.5624-95.9941Q48.8265-89.0237 45.0496-79.8312Q41.2726-70.6387 41.2726-60.2429Q41.2726-52.7313 43.2834-45.9282Q45.2942-39.1252 49.0801-33.4806Z"/>
  </g>
  <g id="Semibold-L" transform="matrix(1 0 0 1 1954.48 1556)">
   <path d="M29.7211-16.7777L157.336-16.7777Q159.075-16.7777 160.279-17.9354Q161.483-19.0931 161.483-20.8204Q161.483-22.5291 160.279-23.6868Q159.075-24.8444 157.336-24.8444L29.7211-24.8444Q28.0001-24.8444 26.7868-23.6868Q25.5735-22.5291 25.5735-20.8204Q25.5735-19.0931 26.7868-17.9354Q28.0001-16.7777 29.7211-16.7777ZM20.2315 7.42866L147.846 7.42866Q149.586 7.42866 150.79 6.271Q151.994 5.11335 151.994 3.38601Q151.994 1.6773 150.79 0.519642Q149.586-0.638015 147.846-0.638015L20.2315-0.638015Q18.5105-0.638015 17.2973 0.519642Q16.084 1.6773 16.084 3.38601Q16.084 5.11335 17.2973 6.271Q18.5105 7.42866 20.2315 7.42866ZM29.7211 31.6351L157.336 31.6351Q159.075 31.6351 160.279 30.4774Q161.483 29.3197 161.483 27.5924Q161.483 25.8837 160.279 24.726Q159.075 23.5684 157.336 23.5684L29.7211 23.5684Q28.0001 23.5684 26.7868 24.726Q25.5735 25.8837 25.5735 27.5924Q25.5735 29.3197 26.7868 30.4774Q28.0001 31.6351 29.7211 31.6351ZM50.2911-32.5992L131.124-32.5992Q133.817-35.7451 135.695-40.0033Q137.639-44.293 135.262-46.682Q133.151-48.7617 129.265-47.1711Q126.147-45.9093 122.371-45.2413Q118.594-44.5734 114.135-44.5734Q102.049-44.5734 93.2472-49.2555Q84.4455-53.9376 79.6578-62.5318Q74.8701-71.126 74.8701-82.9394Q74.8701-87.4733 75.6805-91.9338Q76.4908-96.3942 77.8823-99.4184Q79.7761-103.373 77.7092-105.898Q75.4938-108.374 70.9384-106.506Q62.2084-102.85 55.6101-95.9647Q49.0118-89.079 45.3088-79.9815Q41.6058-70.8841 41.6058-60.5464Q41.6058-52.6065 43.8467-45.4914Q46.0875-38.3764 50.2911-32.5992Z"/>
  </g>
  <g id="Medium-L" transform="matrix(1 0 0 1 1657.77 1556)">
   <path d="M29.4325-17.0147L157.624-17.0147Q159.231-17.0147 160.357-18.1023Q161.483-19.19 161.483-20.8133Q161.483-22.414 160.357-23.5017Q159.231-24.5893 157.624-24.5893L29.4325-24.5893Q27.8358-24.5893 26.7047-23.5017Q25.5735-22.414 25.5735-20.8133Q25.5735-19.19 26.7047-18.1023Q27.8358-17.0147 29.4325-17.0147ZM19.943 7.1917L148.135 7.1917Q149.742 7.1917 150.868 6.10406Q151.994 5.01643 151.994 3.39307Q151.994 1.79237 150.868 0.704732Q149.742-0.382903 148.135-0.382903L19.943-0.382903Q18.3462-0.382903 17.2151 0.704732Q16.084 1.79237 16.084 3.39307Q16.084 5.01643 17.2151 6.10406Q18.3462 7.1917 19.943 7.1917ZM29.4325 31.3981L157.624 31.3981Q159.231 31.3981 160.357 30.3105Q161.483 29.2228 161.483 27.5995Q161.483 25.9988 160.357 24.9111Q159.231 23.8235 157.624 23.8235L29.4325 23.8235Q27.8358 23.8235 26.7047 24.9111Q25.5735 25.9988 25.5735 27.5995Q25.5735 29.2228 26.7047 30.3105Q27.8358 31.3981 29.4325 31.3981ZM51.2094-31.9309L129.968-31.9309Q133.057-35.4784 135.176-40.2544Q136.935-44.1504 134.771-46.3587Q132.893-48.2535 129.316-46.844Q126.142-45.5822 122.34-44.9184Q118.538-44.2546 113.974-44.2546Q101.704-44.2546 92.7735-49.0189Q83.8434-53.7833 78.9854-62.5278Q74.1274-71.2723 74.1274-83.298Q74.1274-87.9244 74.9357-92.4253Q75.744-96.9263 77.127-99.8651Q78.9045-103.47 76.9702-105.847Q74.9157-108.15 70.7178-106.407Q62.1402-102.764 55.6462-95.9424Q49.1522-89.1209 45.5054-80.0955Q41.8585-71.0702 41.8585-60.7765Q41.8585-52.5119 44.2738-45.1602Q46.689-37.8085 51.2094-31.9309Z"/>
  </g>
  <g id="Regular-L" transform="matrix(1 0 0 1 1361.06 1556)">
   <path d="M29.0561-17.3238L158.001-17.3238Q159.435-17.3238 160.459-18.3201Q161.483-19.3164 161.483-20.8041Q161.483-22.2639 160.459-23.2602Q159.435-24.2565 158.001-24.2565L29.0561-24.2565Q27.6214-24.2565 26.5975-23.2602Q25.5735-22.2639 25.5735-20.8041Q25.5735-19.3164 26.5975-18.3201Q27.6214-17.3238 29.0561-17.3238ZM19.5666 6.88262L148.511 6.88262Q149.946 6.88262 150.97 5.88631Q151.994 4.89001 151.994 3.40229Q151.994 1.94246 150.97 0.946153Q149.946-0.0501497 148.511-0.0501497L19.5666-0.0501497Q18.1319-0.0501497 17.1079 0.946153Q16.084 1.94246 16.084 3.40229Q16.084 4.89001 17.1079 5.88631Q18.1319 6.88262 19.5666 6.88262ZM29.0561 31.089L158.001 31.089Q159.435 31.089 160.459 30.0927Q161.483 29.0964 161.483 27.6087Q161.483 26.1489 160.459 25.1525Q159.435 24.1562 158.001 24.1562L29.0561 24.1562Q27.6214 24.1562 26.5975 25.1525Q25.5735 26.1489 25.5735 27.6087Q25.5735 29.0964 26.5975 30.0927Q27.6214 31.089 29.0561 31.089ZM52.4072-31.0592L128.46-31.0592Q132.067-35.1306 134.5-40.5819Q136.017-43.9645 134.13-45.937Q132.557-47.5906 129.383-46.4172Q126.136-45.1556 122.3-44.4972Q118.464-43.8387 113.764-43.8387Q101.253-43.8387 92.1556-48.7103Q83.0581-53.5819 78.1083-62.5225Q73.1586-71.4631 73.1586-83.7657Q73.1586-88.5127 73.9642-93.0665Q74.7698-97.6203 76.142-100.448Q77.7677-103.596 76.0062-105.78Q74.1616-107.858 70.43-106.278Q62.0513-102.651 55.6933-95.9133Q49.3354-89.1756 45.7617-80.2442Q42.1881-71.3129 42.1881-61.0767Q42.1881-52.3885 44.8308-44.7282Q47.4736-37.0679 52.4072-31.0592Z"/>
  </g>
  <g id="Light-L" transform="matrix(1 0 0 1 1064.35 1556)">
   <path d="M28.4071-17.6483L158.65-17.6483Q159.798-17.6483 160.641-18.4442Q161.483-19.2401 161.483-20.4225Q161.483-21.5579 160.641-22.3537Q159.798-23.1496 158.65-23.1496L28.4071-23.1496Q27.2588-23.1496 26.4162-22.3537Q25.5735-21.5579 25.5735-20.4225Q25.5735-19.2401 26.4162-18.4442Q27.2588-17.6483 28.4071-17.6483ZM18.9176 6.55811L149.16 6.55811Q150.308 6.55811 151.151 5.76222Q151.994 4.96633 151.994 3.78387Q151.994 2.64854 151.151 1.85265Q150.308 1.05675 149.16 1.05675L18.9176 1.05675Q17.7692 1.05675 16.9266 1.85265Q16.084 2.64854 16.084 3.78387Q16.084 4.96633 16.9266 5.76222Q17.7692 6.55811 18.9176 6.55811ZM28.4071 30.7645L158.65 30.7645Q159.798 30.7645 160.641 29.9686Q161.483 29.1727 161.483 27.9903Q161.483 26.8549 160.641 26.059Q159.798 25.2632 158.65 25.2632L28.4071 25.2632Q27.2588 25.2632 26.4162 26.059Q25.5735 26.8549 25.5735 27.9903Q25.5735 29.1727 26.4162 29.9686Q27.2588 30.7645 28.4071 30.7645ZM54.2201-29.2081L126.704-29.2081Q131.246-33.8136 134.137-40.0855Q135.426-42.972 133.901-44.6964Q132.519-46.1592 129.708-45.1195Q126.385-43.8198 122.481-43.1232Q118.578-42.4266 113.688-42.4266Q100.757-42.4266 91.4303-47.4412Q82.1038-52.4558 77.0681-61.7113Q72.0325-70.9668 72.0325-83.8231Q72.0325-88.6272 72.8668-93.1047Q73.701-97.5821 75.1877-100.696Q76.6034-103.52 75.0138-105.379Q73.2837-107.171 70.0291-105.61Q61.9175-101.811 55.7506-95.1689Q49.5836-88.5266 46.1244-79.7862Q42.6652-71.0458 42.6652-60.9048Q42.6652-51.5487 45.661-43.4303Q48.6568-35.312 54.2201-29.2081Z"/>
  </g>
  <g id="Thin-L" transform="matrix(1 0 0 1 767.639 1556)">
   <path d="M27.5488-18.0775L159.508-18.0775Q160.278-18.0775 160.88-18.6083Q161.483-19.1391 161.483-19.9179Q161.483-20.624 160.88-21.1548Q160.278-21.6857 159.508-21.6857L27.5488-21.6857Q26.7791-21.6857 26.1763-21.1548Q25.5735-20.624 25.5735-19.9179Q25.5735-19.1391 26.1763-18.6083Q26.7791-18.0775 27.5488-18.0775ZM18.0592 6.12893L150.018 6.12893Q150.788 6.12893 151.391 5.59809Q151.994 5.06726 151.994 4.28854Q151.994 3.58239 151.391 3.05156Q150.788 2.52072 150.018 2.52072L18.0592 2.52072Q17.2896 2.52072 16.6868 3.05156Q16.084 3.58239 16.084 4.28854Q16.084 5.06726 16.6868 5.59809Q17.2896 6.12893 18.0592 6.12893ZM27.5488 30.3353L159.508 30.3353Q160.278 30.3353 160.88 29.8045Q161.483 29.2737 161.483 28.4949Q161.483 27.7888 160.88 27.258Q160.278 26.7271 159.508 26.7271L27.5488 26.7271Q26.7791 26.7271 26.1763 27.258Q25.5735 27.7888 25.5735 28.4949Q25.5735 29.2737 26.1763 29.8045Q26.7791 30.3353 27.5488 30.3353ZM56.618-26.7598L124.381-26.7598Q130.161-32.0719 133.657-39.429Q134.643-41.6595 133.599-43.0556Q132.469-44.266 130.137-43.4032Q126.713-42.053 122.721-41.3059Q118.729-40.5589 113.587-40.5589Q100.1-40.5589 90.471-45.7626Q80.8417-50.9664 75.6924-60.6383Q70.5431-70.3103 70.5431-83.899Q70.5431-88.7786 71.4153-93.1551Q72.2875-97.5316 73.9256-101.024Q75.0635-103.419 73.7012-104.849Q72.1225-106.262 69.499-104.726Q61.7407-100.7 55.8263-94.1843Q49.9118-87.6682 46.6041-79.1804Q43.2963-70.6925 43.2963-60.6775Q43.2963-50.438 46.759-41.7138Q50.2217-32.9896 56.618-26.7598Z"/>
  </g>
  <g id="Ultralight-L" transform="matrix(1 0 0 1 470.928 1556)">
   <path d="M27.1091-18.2973L159.948-18.2973Q160.523-18.2973 161.003-18.6924Q161.483-19.0874 161.483-19.6594Q161.483-20.1457 161.003-20.5408Q160.523-20.9358 159.948-20.9358L27.1091-20.9358Q26.5335-20.9358 26.0535-20.5408Q25.5735-20.1457 25.5735-19.6594Q25.5735-19.0874 26.0535-18.6924Q26.5335-18.2973 27.1091-18.2973ZM17.6196 5.9091L150.458 5.9091Q151.034 5.9091 151.514 5.51403Q151.994 5.11896 151.994 4.54703Q151.994 4.06071 151.514 3.66563Q151.034 3.27056 150.458 3.27056L17.6196 3.27056Q17.0439 3.27056 16.5639 3.66563Q16.084 4.06071 16.084 4.54703Q16.084 5.11896 16.5639 5.51403Q17.0439 5.9091 17.6196 5.9091ZM27.1091 30.1155L159.948 30.1155Q160.523 30.1155 161.003 29.7204Q161.483 29.3254 161.483 28.7534Q161.483 28.2671 161.003 27.872Q160.523 27.477 159.948 27.477L27.1091 27.477Q26.5335 27.477 26.0535 27.872Q25.5735 28.2671 25.5735 28.7534Q25.5735 29.3254 26.0535 29.7204Q26.5335 30.1155 27.1091 30.1155ZM57.8461-25.5058L123.192-25.5058Q129.605-31.1798 133.412-39.0928Q134.243-40.9872 133.443-42.2151Q132.443-43.2964 130.357-42.5241Q126.881-41.1481 122.844-40.3752Q118.807-39.6022 113.535-39.6022Q99.764-39.6022 89.9796-44.9029Q80.1953-50.2035 74.9877-60.0888Q69.7802-69.974 69.7802-83.9379Q69.7802-88.8562 70.6719-93.181Q71.5635-97.5058 73.2791-101.192Q74.2748-103.368 73.029-104.578Q71.5278-105.797 69.2275-104.274Q61.6501-100.132 55.865-93.6801Q50.0799-87.2286 46.8497-78.8701Q43.6195-70.5115 43.6195-60.5611Q43.6195-49.8691 47.3214-40.8346Q51.0232-31.8001 57.8461-25.5058Z"/>
  </g>
  <g id="Black-M" transform="matrix(1 0 0 1 2864.62 1126)">
   <path d="M24.3341-19.789L120.587-19.789Q122.538-19.789 123.823-20.9887Q125.108-22.1884 125.108-23.9737Q125.108-25.7593 123.823-26.959Q122.538-28.1587 120.587-28.1587L24.3341-28.1587Q22.4401-28.1587 21.1265-26.959Q19.8129-25.7593 19.8129-23.9737Q19.8129-22.1884 21.1265-20.9887Q22.4401-19.789 24.3341-19.789ZM16.9822-1.03532L113.235-1.03532Q115.186-1.03532 116.471-2.23501Q117.756-3.43469 117.756-5.22001Q117.756-7.00562 116.471-8.20531Q115.186-9.40499 113.235-9.40499L16.9822-9.40499Q15.0881-9.40499 13.7745-8.20531Q12.4609-7.00562 12.4609-5.22001Q12.4609-3.43469 13.7745-2.23501Q15.0881-1.03532 16.9822-1.03532ZM24.3341 17.7184L120.587 17.7184Q122.538 17.7184 123.823 16.5187Q125.108 15.319 125.108 13.5337Q125.108 11.7481 123.823 10.5484Q122.538 9.34872 120.587 9.34872L24.3341 9.34872Q22.4401 9.34872 21.1265 10.5484Q19.8129 11.7481 19.8129 13.5337Q19.8129 15.319 21.1265 16.5187Q22.4401 17.7184 24.3341 17.7184ZM34.7143-36.1027L107.116-36.1027Q107.419-36.5938 107.755-37.4286Q110.162-42.669 107.317-45.393Q104.511-47.9189 99.9838-45.7729Q97.8405-44.7818 95.03-44.2295Q92.2195-43.6771 89.2523-43.6771Q80.7226-43.6771 74.5057-46.9175Q68.2889-50.1579 64.923-56.1269Q61.5571-62.0959 61.5571-70.3121Q61.5571-73.3539 62.2057-76.5691Q62.8543-79.7842 64.0155-82.6768Q66.0278-87.4837 63.7825-90.1155Q61.2525-92.8506 55.9916-90.7478Q48.5113-87.7909 42.9116-82.1484Q37.3118-76.5059 34.1846-69.1408Q31.0573-61.7757 31.0573-53.5657Q31.0573-48.9076 31.9894-44.4931Q32.9216-40.0785 34.7143-36.1027Z"/>
  </g>
  <g id="Heavy-M" transform="matrix(1 0 0 1 2567.9 1126)">
   <path d="M23.9911-20.1155L120.93-20.1155Q122.721-20.1155 123.914-21.2412Q125.108-22.3668 125.108-24.0439Q125.108-25.7186 123.914-26.8443Q122.721-27.97 120.93-27.97L23.9911-27.97Q22.2433-27.97 21.0281-26.8443Q19.8129-25.7186 19.8129-24.0439Q19.8129-22.3668 21.0281-21.2412Q22.2433-20.1155 23.9911-20.1155ZM16.6392-1.36177L113.578-1.36177Q115.369-1.36177 116.562-2.48744Q117.756-3.61312 117.756-5.29017Q117.756-6.96493 116.562-8.0906Q115.369-9.21628 113.578-9.21628L16.6392-9.21628Q14.8913-9.21628 13.6761-8.0906Q12.4609-6.96493 12.4609-5.29017Q12.4609-3.61312 13.6761-2.48744Q14.8913-1.36177 16.6392-1.36177ZM23.9911 17.3919L120.93 17.3919Q122.721 17.3919 123.914 16.2663Q125.108 15.1406 125.108 13.4635Q125.108 11.7888 123.914 10.6631Q122.721 9.53744 120.93 9.53744L23.9911 9.53744Q22.2433 9.53744 21.0281 10.6631Q19.8129 11.7888 19.8129 13.4635Q19.8129 15.1406 21.0281 16.2663Q22.2433 17.3919 23.9911 17.3919ZM35.8599-35.3831L105.56-35.3831Q106.325-36.4308 106.966-37.955Q109.113-42.6438 106.545-45.119Q104.088-47.3768 100-45.5048Q97.7795-44.522 94.9398-43.9847Q92.1-43.4475 88.9995-43.4475Q80.2519-43.4475 73.8696-46.7947Q67.4873-50.1418 64.0223-56.2945Q60.5574-62.4471 60.5574-70.8992Q60.5574-74.0834 61.1963-77.3827Q61.8352-80.6819 62.9579-83.3703Q64.8208-87.6621 62.7602-90.1157Q60.4747-92.6238 55.7089-90.7257Q48.426-87.8267 42.9596-82.271Q37.4933-76.7154 34.4353-69.4298Q31.3773-62.1442 31.3773-53.9874Q31.3773-48.9298 32.5251-44.2181Q33.673-39.5064 35.8599-35.3831Z"/>
  </g>
  <g id="Bold-M" transform="matrix(1 0 0 1 2271.19 1126)">
   <path d="M23.6075-20.4807L121.313-20.4807Q122.926-20.4807 124.017-21.5235Q125.108-22.5664 125.108-24.1224Q125.108-25.6731 124.017-26.716Q122.926-27.7589 121.313-27.7589L23.6075-27.7589Q22.0231-27.7589 20.918-26.716Q19.8129-25.6731 19.8129-24.1224Q19.8129-22.5664 20.918-21.5235Q22.0231-20.4807 23.6075-20.4807ZM16.2555-1.72694L113.961-1.72694Q115.574-1.72694 116.665-2.76982Q117.756-3.81271 117.756-5.36864Q117.756-6.9194 116.665-7.96229Q115.574-9.00517 113.961-9.00517L16.2555-9.00517Q14.6712-9.00517 13.566-7.96229Q12.4609-6.9194 12.4609-5.36864Q12.4609-3.81271 13.566-2.76982Q14.6712-1.72694 16.2555-1.72694ZM23.6075 17.0268L121.313 17.0268Q122.926 17.0268 124.017 15.9839Q125.108 14.941 125.108 13.3851Q125.108 11.8343 124.017 10.7914Q122.926 9.74854 121.313 9.74854L23.6075 9.74854Q22.0231 9.74854 20.918 10.7914Q19.8129 11.8343 19.8129 13.3851Q19.8129 14.941 20.918 15.9839Q22.0231 17.0268 23.6075 17.0268ZM37.1416-34.5781L103.82-34.5781Q105.102-36.2485 106.082-38.5439Q107.939-42.6157 105.682-44.8125Q103.615-46.7704 100.019-45.2048Q97.7111-44.2314 94.8388-43.711Q91.9665-43.1906 88.7168-43.1906Q79.7253-43.1906 73.1579-46.6572Q66.5906-50.1238 63.0148-56.4819Q59.439-62.84 59.439-71.5559Q59.439-74.8995 60.0671-78.2928Q60.6953-81.6861 61.7748-84.1461Q63.4706-87.8617 61.6166-90.116Q59.6045-92.3701 55.3925-90.7009Q48.3306-87.8666 43.0134-82.4082Q37.6963-76.9498 34.7157-69.7531Q31.7352-62.5564 31.7352-54.459Q31.7352-48.9547 33.1243-43.9106Q34.5135-38.8665 37.1416-34.5781Z"/>
  </g>
  <g id="Semibold-M" transform="matrix(1 0 0 1 1974.48 1126)">
   <path d="M23.343-20.7324L121.578-20.7324Q123.068-20.7324 124.088-21.7182Q125.108-22.704 125.108-24.1765Q125.108-25.6417 124.088-26.6275Q123.068-27.6133 121.578-27.6133L23.343-27.6133Q21.8713-27.6133 20.8421-26.6275Q19.8129-25.6417 19.8129-24.1765Q19.8129-22.704 20.8421-21.7182Q21.8713-20.7324 23.343-20.7324ZM15.991-1.97869L114.226-1.97869Q115.716-1.97869 116.736-2.9645Q117.756-3.9503 117.756-5.42274Q117.756-6.88802 116.736-7.87383Q115.716-8.85963 114.226-8.85963L15.991-8.85963Q14.5194-8.85963 13.4902-7.87383Q12.4609-6.88802 12.4609-5.42274Q12.4609-3.9503 13.4902-2.9645Q14.5194-1.97869 15.991-1.97869ZM23.343 16.775L121.578 16.775Q123.068 16.775 124.088 15.7892Q125.108 14.8034 125.108 13.331Q125.108 11.8657 124.088 10.8799Q123.068 9.89408 121.578 9.89408L23.343 9.89408Q21.8713 9.89408 20.8421 10.8799Q19.8129 11.8657 19.8129 13.331Q19.8129 14.8034 20.8421 15.7892Q21.8713 16.775 23.343 16.775ZM38.0251-34.0231L102.62-34.0231Q104.259-36.1229 105.473-38.9498Q107.13-42.5963 105.087-44.6012Q103.289-46.3523 100.032-44.9979Q97.664-44.031 94.7692-43.5223Q91.8744-43.0136 88.5218-43.0136Q79.3622-43.0136 72.6673-46.5625Q65.9725-50.1114 62.3202-56.6111Q58.6679-63.1108 58.6679-72.0087Q58.6679-75.4621 59.2887-78.9202Q59.9094-82.3784 60.9592-84.681Q62.5398-87.9993 60.8283-90.1161Q59.0046-92.1952 55.1745-90.6839Q48.2648-87.8941 43.0505-82.5028Q37.8362-77.1114 34.9091-69.9759Q31.9819-62.8405 31.9819-54.7842Q31.9819-48.9719 33.5374-43.6986Q35.093-38.4253 38.0251-34.0231Z"/>
  </g>
  <g id="Medium-M" transform="matrix(1 0 0 1 1677.77 1126)">
   <path d="M23.1424-20.9233L121.778-20.9233Q123.175-20.9233 124.141-21.8658Q125.108-22.8083 125.108-24.2175Q125.108-25.6179 124.141-26.5605Q123.175-27.503 121.778-27.503L23.1424-27.503Q21.7563-27.503 20.7846-26.5605Q19.8129-25.6179 19.8129-24.2175Q19.8129-22.8083 20.7846-21.8658Q21.7563-20.9233 23.1424-20.9233ZM15.7905-2.16958L114.426-2.16958Q115.823-2.16958 116.789-3.11211Q117.756-4.05464 117.756-5.46377Q117.756-6.86422 116.789-7.80675Q115.823-8.74928 114.426-8.74928L15.7905-8.74928Q14.4043-8.74928 13.4326-7.80675Q12.4609-6.86422 12.4609-5.46377Q12.4609-4.05464 13.4326-3.11211Q14.4043-2.16958 15.7905-2.16958ZM23.1424 16.5841L121.778 16.5841Q123.175 16.5841 124.141 15.6416Q125.108 14.6991 125.108 13.2899Q125.108 11.8895 124.141 10.947Q123.175 10.0044 121.778 10.0044L23.1424 10.0044Q21.7563 10.0044 20.7846 10.947Q19.8129 11.8895 19.8129 13.2899Q19.8129 14.6991 20.7846 15.6416Q21.7563 16.5841 23.1424 16.5841ZM38.6951-33.6023L101.71-33.6023Q103.619-36.0276 105.011-39.2576Q106.516-42.5816 104.636-44.441Q103.042-46.0353 100.041-44.8411Q97.6283-43.8791 94.7164-43.3792Q91.8046-42.8793 88.374-42.8793Q79.087-42.8793 72.2954-46.4906Q65.5037-50.1019 61.7935-56.7091Q58.0833-63.3162 58.0833-72.352Q58.0833-75.8886 58.6984-79.396Q59.3135-82.9033 60.3408-85.0865Q61.834-88.1037 60.2305-90.1162Q58.5497-92.0625 55.0091-90.6709Q48.215-87.915 43.0787-82.5744Q37.9424-77.2339 35.0557-70.1449Q32.169-63.056 32.169-55.0308Q32.169-48.9849 33.8507-43.5378Q35.5324-38.0907 38.6951-33.6023Z"/>
  </g>
  <g id="Regular-M" transform="matrix(1 0 0 1 1381.06 1126)">
   <path d="M22.8809-21.1723L122.04-21.1723Q123.315-21.1723 124.211-22.0583Q125.108-22.9444 125.108-24.271Q125.108-25.5869 124.211-26.473Q123.315-27.3591 122.04-27.3591L22.8809-27.3591Q21.6061-27.3591 20.7095-26.473Q19.8129-25.5869 19.8129-24.271Q19.8129-22.9444 20.7095-22.0583Q21.6061-21.1723 22.8809-21.1723ZM15.5289-2.41856L114.688-2.41856Q115.963-2.41856 116.859-3.30464Q117.756-4.19072 117.756-5.51727Q117.756-6.83319 116.859-7.71927Q115.963-8.60535 114.688-8.60535L15.5289-8.60535Q14.2542-8.60535 13.3576-7.71927Q12.4609-6.83319 12.4609-5.51727Q12.4609-4.19072 13.3576-3.30464Q14.2542-2.41856 15.5289-2.41856ZM22.8809 16.3352L122.04 16.3352Q123.315 16.3352 124.211 15.4491Q125.108 14.563 125.108 13.2364Q125.108 11.9205 124.211 11.0344Q123.315 10.1484 122.04 10.1484L22.8809 10.1484Q21.6061 10.1484 20.7095 11.0344Q19.8129 11.9205 19.8129 13.2364Q19.8129 14.563 20.7095 15.4491Q21.6061 16.3352 22.8809 16.3352ZM39.5689-33.0535L100.524-33.0535Q102.785-35.9033 104.409-39.6591Q105.716-42.5624 104.047-44.232Q102.719-45.6218 100.054-44.6366Q97.5817-43.6809 94.6476-43.1925Q91.7135-42.7042 88.1812-42.7042Q78.7279-42.7042 71.8101-46.3969Q64.8924-50.0896 61.1066-56.8369Q57.3208-63.5841 57.3208-72.7998Q57.3208-76.445 57.9285-80.0165Q58.5363-83.588 59.5342-85.6154Q60.9134-88.2397 59.4508-90.1164Q57.9564-91.8895 54.7935-90.6541Q48.1499-87.9423 43.1153-82.668Q38.0808-77.3936 35.2469-70.3653Q32.413-63.337 32.413-55.3523Q32.413-49.0018 34.2592-43.3281Q36.1055-37.6544 39.5689-33.0535Z"/>
  </g>
  <g id="Light-M" transform="matrix(1 0 0 1 1084.35 1126)">
   <path d="M22.299-21.4632L122.622-21.4632Q123.64-21.4632 124.374-22.1696Q125.108-22.876 125.108-23.9289Q125.108-24.9539 124.374-25.6603Q123.64-26.3667 122.622-26.3667L22.299-26.3667Q21.281-26.3667 20.5469-25.6603Q19.8129-24.9539 19.8129-23.9289Q19.8129-22.876 20.5469-22.1696Q21.281-21.4632 22.299-21.4632ZM14.947-2.70949L115.27-2.70949Q116.288-2.70949 117.022-3.4159Q117.756-4.1223 117.756-5.17516Q117.756-6.20015 117.022-6.90655Q116.288-7.61295 115.27-7.61295L14.947-7.61295Q13.9291-7.61295 13.195-6.90655Q12.4609-6.20015 12.4609-5.17516Q12.4609-4.1223 13.195-3.4159Q13.9291-2.70949 14.947-2.70949ZM22.299 16.0442L122.622 16.0442Q123.64 16.0442 124.374 15.3378Q125.108 14.6314 125.108 13.5785Q125.108 12.5536 124.374 11.8472Q123.64 11.1408 122.622 11.1408L22.299 11.1408Q21.281 11.1408 20.5469 11.8472Q19.8129 12.5536 19.8129 13.5785Q19.8129 14.6314 20.5469 15.3378Q21.281 16.0442 22.299 16.0442ZM41.1943-31.3938L98.9493-31.3938Q102.05-34.7226 104.084-39.2141Q105.185-41.6726 103.842-43.1197Q102.685-44.3385 100.345-43.4731Q97.8043-42.4833 94.8102-41.9607Q91.8161-41.4381 88.1128-41.4381Q78.2829-41.4381 71.1599-45.259Q64.0368-49.08 60.174-56.1095Q56.3111-63.1391 56.3111-72.8513Q56.3111-76.5477 56.9446-80.0507Q57.5781-83.5538 58.6786-85.8379Q59.8695-88.1713 58.561-89.757Q57.1693-91.2735 54.4341-90.0553Q48.03-87.1894 43.1667-82.0006Q38.3033-76.8118 35.572-69.9547Q32.8408-63.0975 32.8408-55.1983Q32.8408-48.2489 35.0035-42.1645Q37.1663-36.0801 41.1943-31.3938Z"/>
  </g>
  <g id="Thin-M" transform="matrix(1 0 0 1 787.638 1126)">
   <path d="M21.5294-21.848L123.391-21.848Q124.07-21.848 124.589-22.3168Q125.108-22.7855 125.108-23.4764Q125.108-24.1166 124.589-24.5854Q124.07-25.0541 123.391-25.0541L21.5294-25.0541Q20.851-25.0541 20.3319-24.5854Q19.8129-24.1166 19.8129-23.4764Q19.8129-22.7855 20.3319-22.3168Q20.851-21.848 21.5294-21.848ZM14.1775-3.09428L116.039-3.09428Q116.718-3.09428 117.237-3.56304Q117.756-4.03181 117.756-4.7227Q117.756-5.3629 117.237-5.83166Q116.718-6.30043 116.039-6.30043L14.1775-6.30043Q13.499-6.30043 12.98-5.83166Q12.4609-5.3629 12.4609-4.7227Q12.4609-4.03181 12.98-3.56304Q13.499-3.09428 14.1775-3.09428ZM21.5294 15.6594L123.391 15.6594Q124.07 15.6594 124.589 15.1907Q125.108 14.7219 125.108 14.031Q125.108 13.3908 124.589 12.922Q124.07 12.4533 123.391 12.4533L21.5294 12.4533Q20.851 12.4533 20.3319 12.922Q19.8129 13.3908 19.8129 14.031Q19.8129 14.7219 20.3319 15.1907Q20.851 15.6594 21.5294 15.6594ZM43.3441-29.1988L96.8672-29.1988Q101.077-33.161 103.654-38.6255Q104.484-40.4958 103.57-41.6487Q102.64-42.6412 100.73-41.9344Q98.0985-40.8993 95.0252-40.3314Q91.9519-39.7636 88.0223-39.7636Q77.6943-39.7636 70.2998-43.7541Q62.9053-47.7447 58.9405-55.1476Q54.9758-62.5505 54.9758-72.9193Q54.9758-76.6834 55.6433-80.096Q56.3108-83.5085 57.5471-86.1322Q58.4889-88.0808 57.3842-89.2818Q56.1283-90.4587 53.9588-89.2633Q47.8715-86.1936 43.2345-81.1179Q38.5976-76.0422 36.0021-69.4115Q33.4065-62.7808 33.4065-54.9945Q33.4065-47.2531 35.9879-40.6256Q38.5693-33.998 43.3441-29.1988Z"/>
  </g>
  <g id="Ultralight-M" transform="matrix(1 0 0 1 490.927 1126)">
   <path d="M21.1352-22.0451L123.785-22.0451Q124.29-22.0451 124.699-22.3921Q125.108-22.7392 125.108-23.2447Q125.108-23.6878 124.699-24.0348Q124.29-24.3819 123.785-24.3819L21.1352-24.3819Q20.6307-24.3819 20.2218-24.0348Q19.8129-23.6878 19.8129-23.2447Q19.8129-22.7392 20.2218-22.3921Q20.6307-22.0451 21.1352-22.0451ZM13.7833-3.29136L116.434-3.29136Q116.938-3.29136 117.347-3.63841Q117.756-3.98546 117.756-4.49095Q117.756-4.93406 117.347-5.28111Q116.938-5.62816 116.434-5.62816L13.7833-5.62816Q13.2788-5.62816 12.8698-5.28111Q12.4609-4.93406 12.4609-4.49095Q12.4609-3.98546 12.8698-3.63841Q13.2788-3.29136 13.7833-3.29136ZM21.1352 15.4624L123.785 15.4624Q124.29 15.4624 124.699 15.1153Q125.108 14.7683 125.108 14.2628Q125.108 13.8196 124.699 13.4726Q124.29 13.1256 123.785 13.1256L21.1352 13.1256Q20.6307 13.1256 20.2218 13.4726Q19.8129 13.8196 19.8129 14.2628Q19.8129 14.7683 20.2218 15.1153Q20.6307 15.4624 21.1352 15.4624ZM44.4452-28.0745L95.8008-28.0745Q100.578-32.3612 103.434-38.324Q104.124-39.8931 103.431-40.8952Q102.617-41.7719 100.927-41.1462Q98.2493-40.0879 95.1353-39.4969Q92.0214-38.9059 87.976-38.9059Q77.3929-38.9059 69.8593-42.9833Q62.3257-47.0607 58.3088-54.6549Q54.2919-62.249 54.2919-72.9542Q54.2919-76.7529 54.9768-80.1191Q55.6618-83.4854 56.9675-86.283Q57.7818-88.0345 56.7815-89.0383Q55.595-90.0413 53.7154-88.8576Q47.7903-85.6835 43.2693-80.6658Q38.7483-75.648 36.2223-69.1333Q33.6963-62.6186 33.6963-54.8901Q33.6963-46.7431 36.4921-39.8373Q39.2879-32.9316 44.4452-28.0745Z"/>
  </g>
  <g id="Black-S" transform="matrix(1 0 0 1 2879.49 696)">
   <path d="M19.1406-23.0469L94.4336-23.0469Q95.9961-23.0469 97.0215-23.999Q98.0469-24.9512 98.0469-26.3672Q98.0469-27.7832 97.0215-28.7354Q95.9961-29.6875 94.4336-29.6875L19.1406-29.6875Q17.627-29.6875 16.5771-28.7354Q15.5273-27.7832 15.5273-26.3672Q15.5273-24.9512 16.5771-23.999Q17.627-23.0469 19.1406-23.0469ZM13.3789-8.34961L88.6719-8.34961Q90.2344-8.34961 91.2598-9.30176Q92.2852-10.2539 92.2852-11.6699Q92.2852-13.0859 91.2598-14.0381Q90.2344-14.9902 88.6719-14.9902L13.3789-14.9902Q11.8652-14.9902 10.8154-14.0381Q9.76562-13.0859 9.76562-11.6699Q9.76562-10.2539 10.8154-9.30176Q11.8652-8.34961 13.3789-8.34961ZM19.1406 6.34766L94.4336 6.34766Q95.9961 6.34766 97.0215 5.39551Q98.0469 4.44336 98.0469 3.02734Q98.0469 1.61133 97.0215 0.65918Q95.9961-0.292969 94.4336-0.292969L19.1406-0.292969Q17.627-0.292969 16.5771 0.65918Q15.5273 1.61133 15.5273 3.02734Q15.5273 4.44336 16.5771 5.39551Q17.627 6.34766 19.1406 6.34766ZM26.9531-36.0352L84.3262-36.0352Q84.4727-36.2793 84.668-36.7676Q86.6211-41.0156 84.3262-43.2129Q82.0312-45.2637 78.3691-43.5059Q76.709-42.7246 74.5117-42.2852Q72.3145-41.8457 70.0195-41.8457Q63.3789-41.8457 58.5449-44.3604Q53.7109-46.875 51.0986-51.5137Q48.4863-56.1523 48.4863-62.5488Q48.4863-64.8926 48.999-67.3828Q49.5117-69.873 50.4395-72.2168Q52.0508-76.123 50.2441-78.2227Q48.1934-80.4199 43.9453-78.7109Q38.0371-76.3672 33.6182-71.9238Q29.1992-67.4805 26.7334-61.6943Q24.2676-55.9082 24.2676-49.4629Q24.2676-45.8984 24.9512-42.5049Q25.6348-39.1113 26.9531-36.0352Z"/>
  </g>
  <g id="Heavy-S" transform="matrix(1 0 0 1 2582.78 696)">
   <path d="M18.9217-23.2889L94.6526-23.2889Q96.1113-23.2889 97.0791-24.2007Q98.0469-25.1125 98.0469-26.4709Q98.0469-27.8293 97.0791-28.7411Q96.1113-29.6529 94.6526-29.6529L18.9217-29.6529Q17.5002-29.6529 16.5138-28.7411Q15.5273-27.8293 15.5273-26.4709Q15.5273-25.1125 16.5138-24.2007Q17.5002-23.2889 18.9217-23.2889ZM13.1599-8.59162L88.8908-8.59162Q90.3496-8.59162 91.3174-9.50344Q92.2852-10.4152 92.2852-11.7736Q92.2852-13.132 91.3174-14.0438Q90.3496-14.9557 88.8908-14.9557L13.1599-14.9557Q11.7385-14.9557 10.752-14.0438Q9.76562-13.132 9.76562-11.7736Q9.76562-10.4152 10.752-9.50344Q11.7385-8.59162 13.1599-8.59162ZM18.9217 6.10564L94.6526 6.10564Q96.1113 6.10564 97.0791 5.19383Q98.0469 4.28202 98.0469 2.92362Q98.0469 1.56523 97.0791 0.653417Q96.1113-0.258395 94.6526-0.258395L18.9217-0.258395Q17.5002-0.258395 16.5138 0.653417Q15.5273 1.56523 15.5273 2.92362Q15.5273 4.28202 16.5138 5.19383Q17.5002 6.10564 18.9217 6.10564ZM27.7253-35.6318L83.1968-35.6318Q83.6314-36.2908 84.0341-37.2747Q85.7913-41.1078 83.6923-43.1207Q81.674-44.964 78.3461-43.4252Q76.6283-42.6555 74.4138-42.2333Q72.1992-41.8111 69.8121-41.8111Q63.0332-41.8111 58.0839-44.4007Q53.1347-46.9902 50.4475-51.7499Q47.7603-56.5096 47.7603-63.0444Q47.7603-65.5034 48.2615-68.0743Q48.7626-70.6452 49.6443-72.7815Q51.1519-76.2844 49.4835-78.2688Q47.6287-80.3047 43.7494-78.7686Q37.9795-76.494 33.6527-72.114Q29.326-67.734 26.9063-61.994Q24.4865-56.2539 24.4865-49.8432Q24.4865-46.0137 25.3142-42.4184Q26.1418-38.8232 27.7253-35.6318Z"/>
  </g>
  <g id="Bold-S" transform="matrix(1 0 0 1 2286.07 696)">
   <path d="M18.6768-23.5596L94.8975-23.5596Q96.2402-23.5596 97.1436-24.4263Q98.0469-25.293 98.0469-26.5869Q98.0469-27.8809 97.1436-28.7476Q96.2402-29.6143 94.8975-29.6143L18.6768-29.6143Q17.3584-29.6143 16.4429-28.7476Q15.5273-27.8809 15.5273-26.5869Q15.5273-25.293 16.4429-24.4263Q17.3584-23.5596 18.6768-23.5596ZM12.915-8.8623L89.1357-8.8623Q90.4785-8.8623 91.3818-9.729Q92.2852-10.5957 92.2852-11.8896Q92.2852-13.1836 91.3818-14.0503Q90.4785-14.917 89.1357-14.917L12.915-14.917Q11.5967-14.917 10.6812-14.0503Q9.76562-13.1836 9.76562-11.8896Q9.76562-10.5957 10.6812-9.729Q11.5967-8.8623 12.915-8.8623ZM18.6768 5.83496L94.8975 5.83496Q96.2402 5.83496 97.1436 4.96826Q98.0469 4.10156 98.0469 2.80762Q98.0469 1.51367 97.1436 0.646973Q96.2402-0.219727 94.8975-0.219727L18.6768-0.219727Q17.3584-0.219727 16.4429 0.646973Q15.5273 1.51367 15.5273 2.80762Q15.5273 4.10156 16.4429 4.96826Q17.3584 5.83496 18.6768 5.83496ZM28.5889-35.1807L81.9336-35.1807Q82.6904-36.3037 83.3252-37.8418Q84.8633-41.2109 82.9834-43.0176Q81.2744-44.6289 78.3203-43.335Q76.5381-42.5781 74.3042-42.1753Q72.0703-41.7725 69.5801-41.7725Q62.6465-41.7725 57.5684-44.4458Q52.4902-47.1191 49.7192-52.0142Q46.9482-56.9092 46.9482-63.5986Q46.9482-66.1865 47.4365-68.8477Q47.9248-71.5088 48.7549-73.4131Q50.1465-76.4648 48.6328-78.3203Q46.9971-80.1758 43.5303-78.833Q37.915-76.6357 33.6914-72.3267Q29.4678-68.0176 27.0996-62.3291Q24.7314-56.6406 24.7314-50.2686Q24.7314-46.1426 25.7202-42.3218Q26.709-38.501 28.5889-35.1807Z"/>
  </g>
  <g id="Semibold-S" transform="matrix(1 0 0 1 1989.36 696)">
   <path d="M18.5079-23.7462L95.0663-23.7462Q96.3291-23.7462 97.188-24.5818Q98.0469-25.4174 98.0469-26.6669Q98.0469-27.9164 97.188-28.752Q96.3291-29.5876 95.0663-29.5876L18.5079-29.5876Q17.2606-29.5876 16.394-28.752Q15.5273-27.9164 15.5273-26.6669Q15.5273-25.4174 16.394-24.5818Q17.2606-23.7462 18.5079-23.7462ZM12.7462-9.04893L89.3046-9.04893Q90.5674-9.04893 91.4263-9.88452Q92.2852-10.7201 92.2852-11.9696Q92.2852-13.2191 91.4263-14.0547Q90.5674-14.8903 89.3046-14.8903L12.7462-14.8903Q11.4989-14.8903 10.6323-14.0547Q9.76562-13.2191 9.76562-11.9696Q9.76562-10.7201 10.6323-9.88452Q11.4989-9.04893 12.7462-9.04893ZM18.5079 5.64834L95.0663 5.64834Q96.3291 5.64834 97.188 4.81274Q98.0469 3.97715 98.0469 2.72764Q98.0469 1.47812 97.188 0.642529Q96.3291-0.193066 95.0663-0.193066L18.5079-0.193066Q17.2606-0.193066 16.394 0.642529Q15.5273 1.47812 15.5273 2.72764Q15.5273 3.97715 16.394 4.81274Q17.2606 5.64834 18.5079 5.64834ZM29.1843-34.8696L81.0627-34.8696Q82.0417-36.3126 82.8364-38.2328Q84.2234-41.282 82.4946-42.9465Q80.9989-44.3979 78.3025-43.2728Q76.4759-42.5248 74.2287-42.1353Q71.9814-41.7458 69.4201-41.7458Q62.3799-41.7458 57.2129-44.4769Q52.0459-47.208 49.2171-52.1963Q46.3884-57.1847 46.3884-63.9808Q46.3884-66.6575 46.8678-69.3809Q47.3472-72.1042 48.1417-73.8485Q49.4533-76.5893 48.0463-78.3559Q46.5616-80.0869 43.3792-78.8774Q37.8706-76.7335 33.7181-72.4733Q29.5655-68.2131 27.2329-62.5602Q24.9003-56.9072 24.9003-50.5618Q24.9003-46.2314 26.0001-42.2551Q27.1-38.2788 29.1843-34.8696Z"/>
  </g>
  <g id="Medium-S" transform="matrix(1 0 0 1 1692.65 696)">
   <path d="M18.3799-23.8877L95.1943-23.8877Q96.3965-23.8877 97.2217-24.6997Q98.0469-25.5117 98.0469-26.7275Q98.0469-27.9434 97.2217-28.7554Q96.3965-29.5674 95.1943-29.5674L18.3799-29.5674Q17.1865-29.5674 16.3569-28.7554Q15.5273-27.9434 15.5273-26.7275Q15.5273-25.5117 16.3569-24.6997Q17.1865-23.8877 18.3799-23.8877ZM12.6182-9.19043L89.4326-9.19043Q90.6348-9.19043 91.46-10.0024Q92.2852-10.8145 92.2852-12.0303Q92.2852-13.2461 91.46-14.0581Q90.6348-14.8701 89.4326-14.8701L12.6182-14.8701Q11.4248-14.8701 10.5952-14.0581Q9.76562-13.2461 9.76562-12.0303Q9.76562-10.8145 10.5952-10.0024Q11.4248-9.19043 12.6182-9.19043ZM18.3799 5.50684L95.1943 5.50684Q96.3965 5.50684 97.2217 4.69482Q98.0469 3.88281 98.0469 2.66699Q98.0469 1.45117 97.2217 0.63916Q96.3965-0.172852 95.1943-0.172852L18.3799-0.172852Q17.1865-0.172852 16.3569 0.63916Q15.5273 1.45117 15.5273 2.66699Q15.5273 3.88281 16.3569 4.69482Q17.1865 5.50684 18.3799 5.50684ZM29.6357-34.6338L80.4023-34.6338Q81.5498-36.3193 82.4658-38.5293Q83.7383-41.3359 82.124-42.8926Q80.79-44.2227 78.2891-43.2256Q76.4287-42.4844 74.1714-42.105Q71.9141-41.7256 69.2988-41.7256Q62.1777-41.7256 56.9434-44.5005Q51.709-47.2754 48.8364-52.3345Q45.9639-57.3936 45.9639-64.2705Q45.9639-67.0146 46.4365-69.7852Q46.9092-72.5557 47.6768-74.1787Q48.9277-76.6836 47.6016-78.3828Q46.2314-80.0195 43.2646-78.9111Q37.8369-76.8076 33.7383-72.5845Q29.6396-68.3613 27.334-62.7354Q25.0283-57.1094 25.0283-50.7842Q25.0283-46.2988 26.2124-42.2046Q27.3965-38.1104 29.6357-34.6338Z"/>
  </g>
  <g id="Regular-S" transform="matrix(1 0 0 1 1395.94 696)">
   <path d="M18.2129-24.0723L95.3613-24.0723Q96.4844-24.0723 97.2656-24.8535Q98.0469-25.6348 98.0469-26.8066Q98.0469-27.9785 97.2656-28.7598Q96.4844-29.541 95.3613-29.541L18.2129-29.541Q17.0898-29.541 16.3086-28.7598Q15.5273-27.9785 15.5273-26.8066Q15.5273-25.6348 16.3086-24.8535Q17.0898-24.0723 18.2129-24.0723ZM12.4512-9.375L89.5996-9.375Q90.7227-9.375 91.5039-10.1562Q92.2852-10.9375 92.2852-12.1094Q92.2852-13.2812 91.5039-14.0625Q90.7227-14.8438 89.5996-14.8438L12.4512-14.8438Q11.3281-14.8438 10.5469-14.0625Q9.76562-13.2812 9.76562-12.1094Q9.76562-10.9375 10.5469-10.1562Q11.3281-9.375 12.4512-9.375ZM18.2129 5.32227L95.3613 5.32227Q96.4844 5.32227 97.2656 4.54102Q98.0469 3.75977 98.0469 2.58789Q98.0469 1.41602 97.2656 0.634766Q96.4844-0.146484 95.3613-0.146484L18.2129-0.146484Q17.0898-0.146484 16.3086 0.634766Q15.5273 1.41602 15.5273 2.58789Q15.5273 3.75977 16.3086 4.54102Q17.0898 5.32227 18.2129 5.32227ZM30.2246-34.3262L79.541-34.3262Q80.9082-36.3281 81.9824-38.916Q83.1055-41.4062 81.6406-42.8223Q80.5176-43.9941 78.2715-43.1641Q76.3672-42.4316 74.0967-42.0654Q71.8262-41.6992 69.1406-41.6992Q61.9141-41.6992 56.5918-44.5312Q51.2695-47.3633 48.3398-52.5146Q45.4102-57.666 45.4102-64.6484Q45.4102-67.4805 45.874-70.3125Q46.3379-73.1445 47.0703-74.6094Q48.2422-76.8066 47.0215-78.418Q45.8008-79.9316 43.1152-78.9551Q37.793-76.9043 33.7646-72.7295Q29.7363-68.5547 27.4658-62.9639Q25.1953-57.373 25.1953-51.0742Q25.1953-46.3867 26.4893-42.1387Q27.7832-37.8906 30.2246-34.3262Z"/>
  </g>
  <g id="Light-S" transform="matrix(1 0 0 1 1099.23 696)">
   <path d="M17.6982-24.3296L95.8761-24.3296Q96.772-24.3296 97.4094-24.9519Q98.0469-25.5742 98.0469-26.504Q98.0469-27.4185 97.4094-28.0408Q96.772-28.6631 95.8761-28.6631L17.6982-28.6631Q16.8022-28.6631 16.1648-28.0408Q15.5273-27.4185 15.5273-26.504Q15.5273-25.5742 16.1648-24.9519Q16.8022-24.3296 17.6982-24.3296ZM11.9364-9.63236L90.1143-9.63236Q91.0103-9.63236 91.6477-10.2547Q92.2852-10.877 92.2852-11.8067Q92.2852-12.7213 91.6477-13.3436Q91.0103-13.9659 90.1143-13.9659L11.9364-13.9659Q11.0405-13.9659 10.4031-13.3436Q9.76562-12.7213 9.76562-11.8067Q9.76562-10.877 10.4031-10.2547Q11.0405-9.63236 11.9364-9.63236ZM17.6982 5.0649L95.8761 5.0649Q96.772 5.0649 97.4094 4.4426Q98.0469 3.82029 98.0469 2.89052Q98.0469 1.97601 97.4094 1.35371Q96.772 0.731405 95.8761 0.731405L17.6982 0.731405Q16.8022 0.731405 16.1648 1.35371Q15.5273 1.97601 15.5273 2.89052Q15.5273 3.82029 16.1648 4.4426Q16.8022 5.0649 17.6982 5.0649ZM31.6625-32.858L78.1484-32.858Q80.2574-35.2837 81.6948-38.5223Q82.6363-40.6192 81.459-41.8383Q80.4873-42.8589 78.5288-42.1349Q76.564-41.3722 74.2405-40.9757Q71.917-40.5792 69.0801-40.5792Q61.5204-40.5792 56.0165-43.5247Q50.5127-46.4701 47.5149-51.8712Q44.517-57.2723 44.517-64.694Q44.517-67.5713 45.0036-70.3428Q45.4903-73.1143 46.3135-74.8062Q47.3188-76.7461 46.2344-78.1001Q45.1045-79.3866 42.7973-78.4253Q37.6869-76.2383 33.81-72.1391Q29.9332-68.04 27.7534-62.6006Q25.5737-57.1612 25.5737-50.9379Q25.5737-45.7207 27.1477-41.1093Q28.7216-36.498 31.6625-32.858Z"/>
  </g>
  <g id="Thin-S" transform="matrix(1 0 0 1 802.516 696)">
   <path d="M17.0174-24.67L96.5568-24.67Q97.1524-24.67 97.5996-25.0821Q98.0469-25.4942 98.0469-26.1038Q98.0469-26.6779 97.5996-27.09Q97.1524-27.502 96.5568-27.502L17.0174-27.502Q16.4218-27.502 15.9746-27.09Q15.5273-26.6779 15.5273-26.1038Q15.5273-25.4942 15.9746-25.0821Q16.4218-24.67 17.0174-24.67ZM11.2557-9.97275L90.7951-9.97275Q91.3907-9.97275 91.8379-10.3848Q92.2852-10.7969 92.2852-11.4065Q92.2852-11.9806 91.8379-12.3927Q91.3907-12.8048 90.7951-12.8048L11.2557-12.8048Q10.6601-12.8048 10.2129-12.3927Q9.76562-11.9806 9.76562-11.4065Q9.76562-10.7969 10.2129-10.3848Q10.6601-9.97275 11.2557-9.97275ZM17.0174 4.72451L96.5568 4.72451Q97.1524 4.72451 97.5996 4.31243Q98.0469 3.90034 98.0469 3.29078Q98.0469 2.71666 97.5996 2.30457Q97.1524 1.89248 96.5568 1.89248L17.0174 1.89248Q16.4218 1.89248 15.9746 2.30457Q15.5273 2.71666 15.5273 3.29078Q15.5273 3.90034 15.9746 4.31243Q16.4218 4.72451 17.0174 4.72451ZM33.5642-30.9163L76.3065-30.9163Q79.3967-33.9023 81.3144-38.0017Q82.0157-39.5781 81.2189-40.537Q80.4473-41.3574 78.8692-40.7737Q76.8244-39.9709 74.4307-39.5344Q72.037-39.0979 69-39.0979Q60.9997-39.0979 55.2557-42.1934Q49.5117-45.2889 46.4237-51.0203Q43.3357-56.7517 43.3357-64.7542Q43.3357-67.6913 43.8525-70.3828Q44.3692-73.0742 45.3125-75.0665Q46.0975-76.6661 45.1934-77.6796Q44.1835-78.6659 42.3769-77.7247Q37.5467-75.3574 33.8701-71.3583Q30.1935-67.3592 28.1339-62.1201Q26.0742-56.881 26.0742-50.7576Q26.0742-44.8398 28.0185-39.748Q29.9627-34.6562 33.5642-30.9163Z"/>
  </g>
  <g id="Ultralight-S" transform="matrix(1 0 0 1 505.805 696)">
   <path d="M16.6687-24.8444L96.9055-24.8444Q97.3473-24.8444 97.6971-25.1488Q98.0469-25.4532 98.0469-25.8987Q98.0469-26.2985 97.6971-26.6029Q97.3473-26.9073 96.9055-26.9073L16.6687-26.9073Q16.227-26.9073 15.8772-26.6029Q15.5273-26.2985 15.5273-25.8987Q15.5273-25.4532 15.8772-25.1488Q16.227-24.8444 16.6687-24.8444ZM10.907-10.1471L91.1438-10.1471Q91.5855-10.1471 91.9353-10.4515Q92.2852-10.7559 92.2852-11.2015Q92.2852-11.6013 91.9353-11.9057Q91.5855-12.2101 91.1438-12.2101L10.907-12.2101Q10.4652-12.2101 10.1154-11.9057Q9.76562-11.6013 9.76562-11.2015Q9.76562-10.7559 10.1154-10.4515Q10.4652-10.1471 10.907-10.1471ZM16.6687 4.55017L96.9055 4.55017Q97.3473 4.55017 97.6971 4.24576Q98.0469 3.94135 98.0469 3.49579Q98.0469 3.09601 97.6971 2.7916Q97.3473 2.48718 96.9055 2.48718L16.6687 2.48718Q16.227 2.48718 15.8772 2.7916Q15.5273 3.09601 15.5273 3.49579Q15.5273 3.94135 15.8772 4.24576Q16.227 4.55017 16.6687 4.55017ZM34.5383-29.9217L75.3632-29.9217Q78.9558-33.1947 81.1195-37.735Q81.6978-39.045 81.0959-39.8705Q80.4268-40.5884 79.0436-40.0764Q76.9577-39.2532 74.5281-38.7962Q72.0985-38.3392 68.959-38.3392Q60.733-38.3392 54.866-41.5115Q48.999-44.6838 45.8649-50.5844Q42.7307-56.485 42.7307-64.785Q42.7307-67.7528 43.2629-70.4033Q43.795-73.0537 44.7998-75.1999Q45.472-76.6251 44.6602-77.4643Q43.7119-78.2967 42.1616-77.3659Q37.4748-74.9062 33.9008-70.9583Q30.3268-67.0105 28.3287-61.874Q26.3306-56.7375 26.3306-50.6653Q26.3306-44.3886 28.4645-39.0507Q30.5984-33.7128 34.5383-29.9217Z"/>
  </g>
 </g>
</svg>
