<?xml version="1.0" encoding="UTF-8"?>
<!--Generator: Apple Native CoreSVG 175-->
<!DOCTYPE svg
PUBLIC "-//W3C//DTD SVG 1.1//EN"
       "http://www.w3.org/Graphics/SVG/1.1/DTD/svg11.dtd">
<svg version="1.1" xmlns="http://www.w3.org/2000/svg" xmlns:xlink="http://www.w3.org/1999/xlink" width="3300" height="2200">
 <!--glyph: "", point size: 100.0, font version: "17.1d1e1", template writer version: "65.1"-->
 <g id="Notes">
  <rect height="2200" id="artboard" style="fill:white;opacity:1" width="3300" x="0" y="0"/>
  <line style="fill:none;stroke:black;opacity:1;stroke-width:0.5;" x1="263" x2="3036" y1="292" y2="292"/>
  <text style="stroke:none;fill:black;font-family:sans-serif;font-size:13;font-weight:bold;" transform="matrix(1 0 0 1 263 322)">Weight/Scale Variations</text>
  <text style="stroke:none;fill:black;font-family:sans-serif;font-size:13;text-anchor:middle;" transform="matrix(1 0 0 1 559.711 322)">Ultralight</text>
  <text style="stroke:none;fill:black;font-family:sans-serif;font-size:13;text-anchor:middle;" transform="matrix(1 0 0 1 856.422 322)">Thin</text>
  <text style="stroke:none;fill:black;font-family:sans-serif;font-size:13;text-anchor:middle;" transform="matrix(1 0 0 1 1153.13 322)">Light</text>
  <text style="stroke:none;fill:black;font-family:sans-serif;font-size:13;text-anchor:middle;" transform="matrix(1 0 0 1 1449.84 322)">Regular</text>
  <text style="stroke:none;fill:black;font-family:sans-serif;font-size:13;text-anchor:middle;" transform="matrix(1 0 0 1 1746.56 322)">Medium</text>
  <text style="stroke:none;fill:black;font-family:sans-serif;font-size:13;text-anchor:middle;" transform="matrix(1 0 0 1 2043.27 322)">Semibold</text>
  <text style="stroke:none;fill:black;font-family:sans-serif;font-size:13;text-anchor:middle;" transform="matrix(1 0 0 1 2339.98 322)">Bold</text>
  <text style="stroke:none;fill:black;font-family:sans-serif;font-size:13;text-anchor:middle;" transform="matrix(1 0 0 1 2636.69 322)">Heavy</text>
  <text style="stroke:none;fill:black;font-family:sans-serif;font-size:13;text-anchor:middle;" transform="matrix(1 0 0 1 2933.4 322)">Black</text>
  <line style="fill:none;stroke:black;opacity:1;stroke-width:0.5;" x1="263" x2="3036" y1="1903" y2="1903"/>
  <g transform="matrix(1 0 0 1 263 1933)">
   <path d="M9.24805 0.830078Q10.8691 0.830078 12.2949 0.214844Q13.7207-0.400391 14.8096-1.49414Q15.8984-2.58789 16.5186-4.01367Q17.1387-5.43945 17.1387-7.05078Q17.1387-8.66211 16.5186-10.0879Q15.8984-11.5137 14.8047-12.6074Q13.7109-13.7012 12.2852-14.3164Q10.8594-14.9316 9.23828-14.9316Q7.62695-14.9316 6.20117-14.3164Q4.77539-13.7012 3.69141-12.6074Q2.60742-11.5137 1.9873-10.0879Q1.36719-8.66211 1.36719-7.05078Q1.36719-5.43945 1.9873-4.01367Q2.60742-2.58789 3.69629-1.49414Q4.78516-0.400391 6.21094 0.214844Q7.63672 0.830078 9.24805 0.830078ZM9.24805-0.654297Q7.91992-0.654297 6.7627-1.14746Q5.60547-1.64062 4.73145-2.51953Q3.85742-3.39844 3.36426-4.56055Q2.87109-5.72266 2.87109-7.05078Q2.87109-8.37891 3.35938-9.54102Q3.84766-10.7031 4.72168-11.582Q5.5957-12.4609 6.75293-12.9541Q7.91016-13.4473 9.23828-13.4473Q10.5762-13.4473 11.7334-12.9541Q12.8906-12.4609 13.7695-11.582Q14.6484-10.7031 15.1465-9.54102Q15.6445-8.37891 15.6445-7.05078Q15.6445-5.72266 15.1514-4.56055Q14.6582-3.39844 13.7842-2.51953Q12.9102-1.64062 11.748-1.14746Q10.5859-0.654297 9.24805-0.654297ZM5.6543-7.05078Q5.6543-6.72852 5.85938-6.52832Q6.06445-6.32812 6.40625-6.32812L8.51562-6.32812L8.51562-4.20898Q8.51562-3.88672 8.71094-3.67676Q8.90625-3.4668 9.23828-3.4668Q9.56055-3.4668 9.77051-3.67676Q9.98047-3.88672 9.98047-4.20898L9.98047-6.32812L12.0898-6.32812Q12.4219-6.32812 12.627-6.52832Q12.832-6.72852 12.832-7.05078Q12.832-7.38281 12.627-7.58789Q12.4219-7.79297 12.0898-7.79297L9.98047-7.79297L9.98047-9.90234Q9.98047-10.2344 9.77051-10.4443Q9.56055-10.6543 9.23828-10.6543Q8.90625-10.6543 8.71094-10.4443Q8.51562-10.2344 8.51562-9.90234L8.51562-7.79297L6.40625-7.79297Q6.06445-7.79297 5.85938-7.58789Q5.6543-7.38281 5.6543-7.05078Z"/>
  </g>
  <g transform="matrix(1 0 0 1 281.867 1933)">
   <path d="M11.709 2.91016Q13.75 2.91016 15.5518 2.12891Q17.3535 1.34766 18.7305-0.0292969Q20.1074-1.40625 20.8887-3.20801Q21.6699-5.00977 21.6699-7.05078Q21.6699-9.0918 20.8887-10.8936Q20.1074-12.6953 18.7305-14.0723Q17.3535-15.4492 15.5469-16.2305Q13.7402-17.0117 11.6992-17.0117Q9.6582-17.0117 7.85645-16.2305Q6.05469-15.4492 4.68262-14.0723Q3.31055-12.6953 2.5293-10.8936Q1.74805-9.0918 1.74805-7.05078Q1.74805-5.00977 2.5293-3.20801Q3.31055-1.40625 4.6875-0.0292969Q6.06445 1.34766 7.86621 2.12891Q9.66797 2.91016 11.709 2.91016ZM11.709 1.25Q9.98047 1.25 8.47656 0.605469Q6.97266-0.0390625 5.83496-1.17676Q4.69727-2.31445 4.05762-3.81836Q3.41797-5.32227 3.41797-7.05078Q3.41797-8.7793 4.05762-10.2832Q4.69727-11.7871 5.83008-12.9297Q6.96289-14.0723 8.4668-14.7119Q9.9707-15.3516 11.6992-15.3516Q13.4277-15.3516 14.9316-14.7119Q16.4355-14.0723 17.5781-12.9297Q18.7207-11.7871 19.3652-10.2832Q20.0098-8.7793 20.0098-7.05078Q20.0098-5.32227 19.3701-3.81836Q18.7305-2.31445 17.5928-1.17676Q16.4551-0.0390625 14.9463 0.605469Q13.4375 1.25 11.709 1.25ZM7.17773-7.05078Q7.17773-6.69922 7.41211-6.47461Q7.64648-6.25 8.01758-6.25L10.8887-6.25L10.8887-3.36914Q10.8887-2.99805 11.1133-2.76855Q11.3379-2.53906 11.6895-2.53906Q12.0605-2.53906 12.29-2.76855Q12.5195-2.99805 12.5195-3.36914L12.5195-6.25L15.4004-6.25Q15.7715-6.25 16.001-6.47461Q16.2305-6.69922 16.2305-7.05078Q16.2305-7.42188 16.001-7.65137Q15.7715-7.88086 15.4004-7.88086L12.5195-7.88086L12.5195-10.752Q12.5195-11.1328 12.29-11.3623Q12.0605-11.5918 11.6895-11.5918Q11.3379-11.5918 11.1133-11.3574Q10.8887-11.123 10.8887-10.752L10.8887-7.88086L8.01758-7.88086Q7.63672-7.88086 7.40723-7.65137Q7.17773-7.42188 7.17773-7.05078Z"/>
  </g>
  <g transform="matrix(1 0 0 1 305.646 1933)">
   <path d="M14.9707 5.66406Q17.0605 5.66406 18.96 5.01465Q20.8594 4.36523 22.4512 3.19336Q24.043 2.02148 25.2197 0.429688Q26.3965-1.16211 27.0459-3.06641Q27.6953-4.9707 27.6953-7.05078Q27.6953-9.14062 27.0459-11.04Q26.3965-12.9395 25.2197-14.5312Q24.043-16.123 22.4512-17.2998Q20.8594-18.4766 18.9551-19.126Q17.0508-19.7754 14.9609-19.7754Q12.8711-19.7754 10.9717-19.126Q9.07227-18.4766 7.48535-17.2998Q5.89844-16.123 4.72168-14.5312Q3.54492-12.9395 2.90039-11.04Q2.25586-9.14062 2.25586-7.05078Q2.25586-4.9707 2.90527-3.06641Q3.55469-1.16211 4.72656 0.429688Q5.89844 2.02148 7.49023 3.19336Q9.08203 4.36523 10.9814 5.01465Q12.8809 5.66406 14.9707 5.66406ZM14.9707 3.84766Q13.1641 3.84766 11.5283 3.2959Q9.89258 2.74414 8.53516 1.74805Q7.17773 0.751953 6.17676-0.610352Q5.17578-1.97266 4.62891-3.6084Q4.08203-5.24414 4.08203-7.05078Q4.08203-8.86719 4.62891-10.5029Q5.17578-12.1387 6.17188-13.501Q7.16797-14.8633 8.52539-15.8594Q9.88281-16.8555 11.5186-17.4023Q13.1543-17.9492 14.9609-17.9492Q16.7773-17.9492 18.4131-17.4023Q20.0488-16.8555 21.4111-15.8594Q22.7734-14.8633 23.7695-13.501Q24.7656-12.1387 25.3174-10.5029Q25.8691-8.86719 25.8691-7.05078Q25.8789-5.24414 25.332-3.6084Q24.7852-1.97266 23.7842-0.610352Q22.7832 0.751953 21.4209 1.74805Q20.0586 2.74414 18.4229 3.2959Q16.7871 3.84766 14.9707 3.84766ZM9.19922-7.05078Q9.19922-6.66992 9.45801-6.4209Q9.7168-6.17188 10.1172-6.17188L14.0625-6.17188L14.0625-2.2168Q14.0625-1.81641 14.3115-1.55762Q14.5605-1.29883 14.9512-1.29883Q15.3516-1.29883 15.6104-1.55273Q15.8691-1.80664 15.8691-2.2168L15.8691-6.17188L19.8242-6.17188Q20.2246-6.17188 20.4785-6.4209Q20.7324-6.66992 20.7324-7.05078Q20.7324-7.46094 20.4785-7.71484Q20.2246-7.96875 19.8242-7.96875L15.8691-7.96875L15.8691-11.9141Q15.8691-12.3242 15.6104-12.583Q15.3516-12.8418 14.9512-12.8418Q14.5605-12.8418 14.3115-12.583Q14.0625-12.3242 14.0625-11.9141L14.0625-7.96875L10.1172-7.96875Q9.70703-7.96875 9.45312-7.71484Q9.19922-7.46094 9.19922-7.05078Z"/>
  </g>
  <text style="stroke:none;fill:black;font-family:sans-serif;font-size:13;font-weight:bold;" transform="matrix(1 0 0 1 263 1953)">Design Variations</text>
  <text style="stroke:none;fill:black;font-family:sans-serif;font-size:13;" transform="matrix(1 0 0 1 263 1971)">Symbols are supported in up to nine weights and three scales.</text>
  <text style="stroke:none;fill:black;font-family:sans-serif;font-size:13;" transform="matrix(1 0 0 1 263 1989)">For optimal layout with text and other symbols, vertically align</text>
  <text style="stroke:none;fill:black;font-family:sans-serif;font-size:13;" transform="matrix(1 0 0 1 263 2007)">symbols with the adjacent text.</text>
  <line style="fill:none;stroke:#00AEEF;stroke-width:0.5;opacity:1.0;" x1="776" x2="776" y1="1919" y2="1933"/>
  <g transform="matrix(1 0 0 1 776 1933)">
   <path d="M3.31055 0.15625Q3.70117 0.15625 3.91602-0.00976562Q4.13086-0.175781 4.26758-0.585938L5.52734-4.0332L11.2891-4.0332L12.5488-0.585938Q12.6855-0.175781 12.9004-0.00976562Q13.1152 0.15625 13.4961 0.15625Q13.8867 0.15625 14.1162-0.0585938Q14.3457-0.273438 14.3457-0.644531Q14.3457-0.869141 14.2383-1.17188L9.6582-13.3691Q9.48242-13.8184 9.17969-14.043Q8.87695-14.2676 8.4082-14.2676Q7.5-14.2676 7.17773-13.3789L2.59766-1.16211Q2.49023-0.859375 2.49023-0.634766Q2.49023-0.263672 2.70996-0.0537109Q2.92969 0.15625 3.31055 0.15625ZM6.00586-5.51758L8.37891-12.0898L8.42773-12.0898L10.8008-5.51758Z"/>
  </g>
  <line style="fill:none;stroke:#00AEEF;stroke-width:0.5;opacity:1.0;" x1="793.197" x2="793.197" y1="1919" y2="1933"/>
  <text style="stroke:none;fill:black;font-family:sans-serif;font-size:13;font-weight:bold;" transform="matrix(1 0 0 1 776 1953)">Margins</text>
  <text style="stroke:none;fill:black;font-family:sans-serif;font-size:13;" transform="matrix(1 0 0 1 776 1971)">Leading and trailing margins on the left and right side of each symbol</text>
  <text style="stroke:none;fill:black;font-family:sans-serif;font-size:13;" transform="matrix(1 0 0 1 776 1989)">can be adjusted by modifying the x-location of the margin guidelines.</text>
  <text style="stroke:none;fill:black;font-family:sans-serif;font-size:13;" transform="matrix(1 0 0 1 776 2007)">Modifications are automatically applied proportionally to all</text>
  <text style="stroke:none;fill:black;font-family:sans-serif;font-size:13;" transform="matrix(1 0 0 1 776 2025)">scales and weights.</text>
  <g transform="matrix(1 0 0 1 1289 1933)">
   <path d="M2.8418 1.86523L4.54102 3.57422Q5.18555 4.22852 5.90332 4.17969Q6.62109 4.13086 7.31445 3.35938L18.0078-8.42773L17.041-9.4043L6.42578 2.27539Q6.16211 2.57812 5.89355 2.61719Q5.625 2.65625 5.27344 2.30469L4.10156 1.14258Q3.75 0.791016 3.79395 0.522461Q3.83789 0.253906 4.14062-0.0195312L15.6152-10.8203L14.6387-11.7871L3.04688-0.898438Q2.30469-0.214844 2.25098 0.498047Q2.19727 1.21094 2.8418 1.86523ZM9.25781-16.3281Q8.94531-16.0254 8.90625-15.6348Q8.86719-15.2441 9.04297-14.9512Q9.21875-14.6777 9.55566-14.541Q9.89258-14.4043 10.3809-14.5215Q11.4746-14.7754 12.5977-14.7314Q13.7207-14.6875 14.7949-13.9844L14.209-12.5293Q13.9551-11.9043 14.0674-11.4404Q14.1797-10.9766 14.5801-10.5664L16.875-8.25195Q17.2363-7.88086 17.5781-7.82227Q17.9199-7.76367 18.3398-7.8418L19.4043-8.03711L20.0684-7.36328L20.0293-6.80664Q20-6.43555 20.1221-6.12305Q20.2441-5.81055 20.6055-5.44922L21.3672-4.70703Q21.7285-4.3457 22.1533-4.33105Q22.5781-4.31641 22.9297-4.66797L25.8398-7.58789Q26.1914-7.93945 26.1816-8.35449Q26.1719-8.76953 25.8105-9.13086L25.0391-9.89258Q24.6875-10.2539 24.3799-10.3857Q24.0723-10.5176 23.7109-10.4883L23.1348-10.4395L22.4902-11.0742L22.7344-12.1973Q22.832-12.6172 22.6953-12.9834Q22.5586-13.3496 22.1191-13.7891L19.9219-15.9766Q18.6719-17.2168 17.2607-17.8369Q15.8496-18.457 14.4189-18.4814Q12.9883-18.5059 11.665-17.959Q10.3418-17.4121 9.25781-16.3281ZM10.752-15.957Q11.6602-16.6211 12.7002-16.9043Q13.7402-17.1875 14.8047-17.085Q15.8691-16.9824 16.8701-16.5137Q17.8711-16.0449 18.7012-15.2051L21.1328-12.793Q21.3086-12.6172 21.3525-12.4512Q21.3965-12.2852 21.3379-12.0312L21.0156-10.5469L22.5195-9.0625L23.5059-9.12109Q23.6914-9.13086 23.7891-9.09668Q23.8867-9.0625 24.0332-8.91602L24.6094-8.33984L22.168-5.89844L21.5918-6.47461Q21.4453-6.62109 21.4062-6.71875Q21.3672-6.81641 21.377-7.01172L21.4453-7.98828L19.9512-9.47266L18.4277-9.21875Q18.1836-9.16992 18.042-9.2041Q17.9004-9.23828 17.7148-9.41406L15.7129-11.416Q15.5176-11.5918 15.4932-11.7529Q15.4688-11.9141 15.5859-12.1875L16.4648-14.2773Q15.293-15.3711 13.8281-15.791Q12.3633-16.2109 10.8398-15.7617Q10.7227-15.7324 10.6885-15.8057Q10.6543-15.8789 10.752-15.957Z"/>
  </g>
  <text style="stroke:none;fill:black;font-family:sans-serif;font-size:13;font-weight:bold;" transform="matrix(1 0 0 1 1289 1953)">Exporting</text>
  <text style="stroke:none;fill:black;font-family:sans-serif;font-size:13;" transform="matrix(1 0 0 1 1289 1971)">Symbols should be outlined when exporting to ensure the</text>
  <text style="stroke:none;fill:black;font-family:sans-serif;font-size:13;" transform="matrix(1 0 0 1 1289 1989)">design is preserved when submitting to Xcode.</text>
  <text id="template-version" style="stroke:none;fill:black;font-family:sans-serif;font-size:13;text-anchor:end;" transform="matrix(1 0 0 1 3036 1933)">Template v.3.0</text>
  <text style="stroke:none;fill:black;font-family:sans-serif;font-size:13;text-anchor:end;" transform="matrix(1 0 0 1 3036 1951)">Requires Xcode 13 or greater</text>
  <text id="descriptive-name" style="stroke:none;fill:black;font-family:sans-serif;font-size:13;text-anchor:end;" transform="matrix(1 0 0 1 3036 1969)">Generated from mdi.subway</text>
  <text style="stroke:none;fill:black;font-family:sans-serif;font-size:13;text-anchor:end;" transform="matrix(1 0 0 1 3036 1987)">Typeset at 100 points</text>
  <text style="stroke:none;fill:black;font-family:sans-serif;font-size:13;" transform="matrix(1 0 0 1 263 726)">Small</text>
  <text style="stroke:none;fill:black;font-family:sans-serif;font-size:13;" transform="matrix(1 0 0 1 263 1156)">Medium</text>
  <text style="stroke:none;fill:black;font-family:sans-serif;font-size:13;" transform="matrix(1 0 0 1 263 1586)">Large</text>
 </g>
 <g id="Guides">
  <g id="H-reference" style="fill:#27AAE1;stroke:none;" transform="matrix(1 0 0 1 339 696)">
   <path d="M0.993347 0L3.6377 0L29.3282-67.1326L30.0301-67.1326L30.0301-70.459L28.1227-70.459ZM11.6882-24.4797L46.9818-24.4797L46.2311-26.7288L12.4382-26.7288ZM55.1193 0L57.7637 0L30.6381-70.459L29.4327-70.459L29.4327-67.1326Z"/>
  </g>
  <line id="Baseline-S" style="fill:none;stroke:#27AAE1;opacity:1;stroke-width:0.5;" x1="263" x2="3036" y1="696" y2="696"/>
  <line id="Capline-S" style="fill:none;stroke:#27AAE1;opacity:1;stroke-width:0.5;" x1="263" x2="3036" y1="625.541" y2="625.541"/>
  <g id="H-reference" style="fill:#27AAE1;stroke:none;" transform="matrix(1 0 0 1 339 1126)">
   <path d="M0.993347 0L3.6377 0L29.3282-67.1326L30.0301-67.1326L30.0301-70.459L28.1227-70.459ZM11.6882-24.4797L46.9818-24.4797L46.2311-26.7288L12.4382-26.7288ZM55.1193 0L57.7637 0L30.6381-70.459L29.4327-70.459L29.4327-67.1326Z"/>
  </g>
  <line id="Baseline-M" style="fill:none;stroke:#27AAE1;opacity:1;stroke-width:0.5;" x1="263" x2="3036" y1="1126" y2="1126"/>
  <line id="Capline-M" style="fill:none;stroke:#27AAE1;opacity:1;stroke-width:0.5;" x1="263" x2="3036" y1="1055.54" y2="1055.54"/>
  <g id="H-reference" style="fill:#27AAE1;stroke:none;" transform="matrix(1 0 0 1 339 1556)">
   <path d="M0.993347 0L3.6377 0L29.3282-67.1326L30.0301-67.1326L30.0301-70.459L28.1227-70.459ZM11.6882-24.4797L46.9818-24.4797L46.2311-26.7288L12.4382-26.7288ZM55.1193 0L57.7637 0L30.6381-70.459L29.4327-70.459L29.4327-67.1326Z"/>
  </g>
  <line id="Baseline-L" style="fill:none;stroke:#27AAE1;opacity:1;stroke-width:0.5;" x1="263" x2="3036" y1="1556" y2="1556"/>
  <line id="Capline-L" style="fill:none;stroke:#27AAE1;opacity:1;stroke-width:0.5;" x1="263" x2="3036" y1="1485.54" y2="1485.54"/>
  <line id="left-margin-Regular-M" style="fill:none;stroke:#00AEEF;stroke-width:0.5;opacity:1.0;" x1="1379.56" x2="1379.56" y1="1030.78" y2="1150.12"/>
  <line id="right-margin-Regular-M" style="fill:none;stroke:#00AEEF;stroke-width:0.5;opacity:1.0;" x1="1520.13" x2="1520.13" y1="1030.78" y2="1150.12"/>
 </g>
 <g id="Symbols">
  <g id="Black-L" transform="matrix(1 0 0 1 2846.32 1556)">
   <path d="M12.4512 43.8477C12.4512 47.168 15.1855 49.9023 18.5058 49.9023C21.7773 49.9023 24.5117 47.168 24.5117 43.8477L24.5117-55.3711C24.5117-91.5039 45.9961-110.303 87.0605-110.303C128.174-110.303 149.658-91.5039 149.658-55.3711L149.658 43.8477C149.658 47.168 152.393 49.9023 155.664 49.9023C158.985 49.9023 161.719 47.168 161.719 43.8477L161.719-55.3711C161.719-99.3652 136.133-122.363 87.0605-122.363C38.0371-122.363 12.4512-99.3652 12.4512-55.3711L12.4512 43.8477ZM56.9336 17.8223L59.2773 17.8223L47.998 36.084C46.289 38.7207 47.9004 41.7969 50.9765 41.7969L54.1992 41.7969C55.8594 41.7969 56.9336 41.1133 57.959 39.502L60.791 34.9609L113.575 34.9609L116.455 39.502C117.383 41.1133 118.604 41.7969 120.313 41.7969L123.438 41.7969C126.416 41.7969 128.028 38.623 126.416 36.084L115.088 17.8223L117.237 17.8223C125.83 17.8223 131.739 11.6211 131.739 2.34375L131.739-36.2305C131.739-49.1699 130.176-61.9629 128.174-70.752C125.782-81.1035 118.75-87.8418 109.18-89.0137C106.543-89.3066 97.7537-90.0391 87.0605-90.0391C76.3672-90.0391 67.6269-89.3066 64.9414-89.0137C55.3711-87.8418 48.3887-81.1035 45.9961-70.752C43.9941-61.9629 42.4316-49.1699 42.4316-36.2305L42.4316 2.34375C42.4316 11.6211 48.3398 17.8223 56.9336 17.8223ZM74.4629-72.0215C71.875-72.0215 70.2148-73.7305 70.2148-76.2695C70.2148-78.8574 71.875-80.4688 74.4629-80.4688L99.7067-80.4688C102.295-80.4688 103.955-78.8574 103.955-76.2695C103.955-73.7305 102.295-72.0215 99.7067-72.0215L74.4629-72.0215ZM57.5683-20.3125C55.3222-20.6543 54.3457-21.9238 54.3457-24.5605L54.3457-36.2305C54.3457-47.168 55.5664-55.7129 56.2012-58.5938C56.5918-60.498 57.7148-61.5723 59.4238-61.8164C65.1367-62.5977 72.2168-62.9395 87.0605-62.9395C101.953-62.9395 109.033-62.5977 114.746-61.8164C116.455-61.5723 117.578-60.498 117.969-58.5938C118.604-55.7129 119.825-47.168 119.825-36.2305L119.825-24.5605C119.825-21.8262 118.848-20.6543 116.602-20.3125C107.813-19.043 96.0937-18.9453 87.0605-18.9453C74.6094-18.9453 62.7929-19.5801 57.5683-20.3125ZM62.9394 6.88477C58.3008 6.88477 54.9316 3.51562 54.9316-1.26953C54.9316-5.9082 58.3008-9.27734 62.9394-9.27734C67.6758-9.27734 71.0937-5.9082 71.0937-1.26953C71.0937 3.51562 67.5293 6.88477 62.9394 6.88477ZM111.035 6.88477C106.397 6.88477 103.028 3.51562 103.028-1.26953C103.028-5.9082 106.397-9.27734 111.035-9.27734C115.772-9.27734 119.19-5.9082 119.19-1.26953C119.19 3.51562 115.625 6.88477 111.035 6.88477ZM66.6992 25.4395L71.4355 17.8223L102.979 17.8223L107.715 25.4395L66.6992 25.4395Z"/>
  </g>
  <g id="Heavy-L" transform="matrix(1 0 0 1 2549.61 1556)">
   <path d="M12.4512 43.8477C12.4512 47.168 15.1855 49.9023 18.5058 49.9023C21.7773 49.9023 24.5117 47.168 24.5117 43.8477L24.5117-55.3711C24.5117-91.5039 45.9961-110.303 87.0605-110.303C128.174-110.303 149.658-91.5039 149.658-55.3711L149.658 43.8477C149.658 47.168 152.393 49.9023 155.664 49.9023C158.985 49.9023 161.719 47.168 161.719 43.8477L161.719-55.3711C161.719-99.3652 136.133-122.363 87.0605-122.363C38.0371-122.363 12.4512-99.3652 12.4512-55.3711L12.4512 43.8477ZM56.9336 17.8223L59.2773 17.8223L47.998 36.084C46.289 38.7207 47.9004 41.7969 50.9765 41.7969L54.1992 41.7969C55.8594 41.7969 56.9336 41.1133 57.959 39.502L60.791 34.9609L113.575 34.9609L116.455 39.502C117.383 41.1133 118.604 41.7969 120.313 41.7969L123.438 41.7969C126.416 41.7969 128.028 38.623 126.416 36.084L115.088 17.8223L117.237 17.8223C125.83 17.8223 131.739 11.6211 131.739 2.34375L131.739-36.2305C131.739-49.1699 130.176-61.9629 128.174-70.752C125.782-81.1035 118.75-87.8418 109.18-89.0137C106.543-89.3066 97.7537-90.0391 87.0605-90.0391C76.3672-90.0391 67.6269-89.3066 64.9414-89.0137C55.3711-87.8418 48.3887-81.1035 45.9961-70.752C43.9941-61.9629 42.4316-49.1699 42.4316-36.2305L42.4316 2.34375C42.4316 11.6211 48.3398 17.8223 56.9336 17.8223ZM74.4629-72.0215C71.875-72.0215 70.2148-73.7305 70.2148-76.2695C70.2148-78.8574 71.875-80.4688 74.4629-80.4688L99.7067-80.4688C102.295-80.4688 103.955-78.8574 103.955-76.2695C103.955-73.7305 102.295-72.0215 99.7067-72.0215L74.4629-72.0215ZM57.5683-20.3125C55.3222-20.6543 54.3457-21.9238 54.3457-24.5605L54.3457-36.2305C54.3457-47.168 55.5664-55.7129 56.2012-58.5938C56.5918-60.498 57.7148-61.5723 59.4238-61.8164C65.1367-62.5977 72.2168-62.9395 87.0605-62.9395C101.953-62.9395 109.033-62.5977 114.746-61.8164C116.455-61.5723 117.578-60.498 117.969-58.5938C118.604-55.7129 119.825-47.168 119.825-36.2305L119.825-24.5605C119.825-21.8262 118.848-20.6543 116.602-20.3125C107.813-19.043 96.0937-18.9453 87.0605-18.9453C74.6094-18.9453 62.7929-19.5801 57.5683-20.3125ZM62.9394 6.88477C58.3008 6.88477 54.9316 3.51562 54.9316-1.26953C54.9316-5.9082 58.3008-9.27734 62.9394-9.27734C67.6758-9.27734 71.0937-5.9082 71.0937-1.26953C71.0937 3.51562 67.5293 6.88477 62.9394 6.88477ZM111.035 6.88477C106.397 6.88477 103.028 3.51562 103.028-1.26953C103.028-5.9082 106.397-9.27734 111.035-9.27734C115.772-9.27734 119.19-5.9082 119.19-1.26953C119.19 3.51562 115.625 6.88477 111.035 6.88477ZM66.6992 25.4395L71.4355 17.8223L102.979 17.8223L107.715 25.4395L66.6992 25.4395Z"/>
  </g>
  <g id="Bold-L" transform="matrix(1 0 0 1 2252.9 1556)">
   <path d="M12.4512 43.8477C12.4512 47.168 15.1855 49.9023 18.5058 49.9023C21.7773 49.9023 24.5117 47.168 24.5117 43.8477L24.5117-55.3711C24.5117-91.5039 45.9961-110.303 87.0605-110.303C128.174-110.303 149.658-91.5039 149.658-55.3711L149.658 43.8477C149.658 47.168 152.393 49.9023 155.664 49.9023C158.985 49.9023 161.719 47.168 161.719 43.8477L161.719-55.3711C161.719-99.3652 136.133-122.363 87.0605-122.363C38.0371-122.363 12.4512-99.3652 12.4512-55.3711L12.4512 43.8477ZM56.9336 17.8223L59.2773 17.8223L47.998 36.084C46.289 38.7207 47.9004 41.7969 50.9765 41.7969L54.1992 41.7969C55.8594 41.7969 56.9336 41.1133 57.959 39.502L60.791 34.9609L113.575 34.9609L116.455 39.502C117.383 41.1133 118.604 41.7969 120.313 41.7969L123.438 41.7969C126.416 41.7969 128.028 38.623 126.416 36.084L115.088 17.8223L117.237 17.8223C125.83 17.8223 131.739 11.6211 131.739 2.34375L131.739-36.2305C131.739-49.1699 130.176-61.9629 128.174-70.752C125.782-81.1035 118.75-87.8418 109.18-89.0137C106.543-89.3066 97.7537-90.0391 87.0605-90.0391C76.3672-90.0391 67.6269-89.3066 64.9414-89.0137C55.3711-87.8418 48.3887-81.1035 45.9961-70.752C43.9941-61.9629 42.4316-49.1699 42.4316-36.2305L42.4316 2.34375C42.4316 11.6211 48.3398 17.8223 56.9336 17.8223ZM74.4629-72.0215C71.875-72.0215 70.2148-73.7305 70.2148-76.2695C70.2148-78.8574 71.875-80.4688 74.4629-80.4688L99.7067-80.4688C102.295-80.4688 103.955-78.8574 103.955-76.2695C103.955-73.7305 102.295-72.0215 99.7067-72.0215L74.4629-72.0215ZM57.5683-20.3125C55.3222-20.6543 54.3457-21.9238 54.3457-24.5605L54.3457-36.2305C54.3457-47.168 55.5664-55.7129 56.2012-58.5938C56.5918-60.498 57.7148-61.5723 59.4238-61.8164C65.1367-62.5977 72.2168-62.9395 87.0605-62.9395C101.953-62.9395 109.033-62.5977 114.746-61.8164C116.455-61.5723 117.578-60.498 117.969-58.5938C118.604-55.7129 119.825-47.168 119.825-36.2305L119.825-24.5605C119.825-21.8262 118.848-20.6543 116.602-20.3125C107.813-19.043 96.0937-18.9453 87.0605-18.9453C74.6094-18.9453 62.7929-19.5801 57.5683-20.3125ZM62.9394 6.88477C58.3008 6.88477 54.9316 3.51562 54.9316-1.26953C54.9316-5.9082 58.3008-9.27734 62.9394-9.27734C67.6758-9.27734 71.0937-5.9082 71.0937-1.26953C71.0937 3.51562 67.5293 6.88477 62.9394 6.88477ZM111.035 6.88477C106.397 6.88477 103.028 3.51562 103.028-1.26953C103.028-5.9082 106.397-9.27734 111.035-9.27734C115.772-9.27734 119.19-5.9082 119.19-1.26953C119.19 3.51562 115.625 6.88477 111.035 6.88477ZM66.6992 25.4395L71.4355 17.8223L102.979 17.8223L107.715 25.4395L66.6992 25.4395Z"/>
  </g>
  <g id="Semibold-L" transform="matrix(1 0 0 1 1956.18 1556)">
   <path d="M12.4512 43.8477C12.4512 47.168 15.1855 49.9023 18.5058 49.9023C21.7773 49.9023 24.5117 47.168 24.5117 43.8477L24.5117-55.3711C24.5117-91.5039 45.9961-110.303 87.0605-110.303C128.174-110.303 149.658-91.5039 149.658-55.3711L149.658 43.8477C149.658 47.168 152.393 49.9023 155.664 49.9023C158.985 49.9023 161.719 47.168 161.719 43.8477L161.719-55.3711C161.719-99.3652 136.133-122.363 87.0605-122.363C38.0371-122.363 12.4512-99.3652 12.4512-55.3711L12.4512 43.8477ZM56.9336 17.8223L59.2773 17.8223L47.998 36.084C46.289 38.7207 47.9004 41.7969 50.9765 41.7969L54.1992 41.7969C55.8594 41.7969 56.9336 41.1133 57.959 39.502L60.791 34.9609L113.575 34.9609L116.455 39.502C117.383 41.1133 118.604 41.7969 120.313 41.7969L123.438 41.7969C126.416 41.7969 128.028 38.623 126.416 36.084L115.088 17.8223L117.237 17.8223C125.83 17.8223 131.739 11.6211 131.739 2.34375L131.739-36.2305C131.739-49.1699 130.176-61.9629 128.174-70.752C125.782-81.1035 118.75-87.8418 109.18-89.0137C106.543-89.3066 97.7537-90.0391 87.0605-90.0391C76.3672-90.0391 67.6269-89.3066 64.9414-89.0137C55.3711-87.8418 48.3887-81.1035 45.9961-70.752C43.9941-61.9629 42.4316-49.1699 42.4316-36.2305L42.4316 2.34375C42.4316 11.6211 48.3398 17.8223 56.9336 17.8223ZM74.4629-72.0215C71.875-72.0215 70.2148-73.7305 70.2148-76.2695C70.2148-78.8574 71.875-80.4688 74.4629-80.4688L99.7067-80.4688C102.295-80.4688 103.955-78.8574 103.955-76.2695C103.955-73.7305 102.295-72.0215 99.7067-72.0215L74.4629-72.0215ZM57.5683-20.3125C55.3222-20.6543 54.3457-21.9238 54.3457-24.5605L54.3457-36.2305C54.3457-47.168 55.5664-55.7129 56.2012-58.5938C56.5918-60.498 57.7148-61.5723 59.4238-61.8164C65.1367-62.5977 72.2168-62.9395 87.0605-62.9395C101.953-62.9395 109.033-62.5977 114.746-61.8164C116.455-61.5723 117.578-60.498 117.969-58.5938C118.604-55.7129 119.825-47.168 119.825-36.2305L119.825-24.5605C119.825-21.8262 118.848-20.6543 116.602-20.3125C107.813-19.043 96.0937-18.9453 87.0605-18.9453C74.6094-18.9453 62.7929-19.5801 57.5683-20.3125ZM62.9394 6.88477C58.3008 6.88477 54.9316 3.51562 54.9316-1.26953C54.9316-5.9082 58.3008-9.27734 62.9394-9.27734C67.6758-9.27734 71.0937-5.9082 71.0937-1.26953C71.0937 3.51562 67.5293 6.88477 62.9394 6.88477ZM111.035 6.88477C106.397 6.88477 103.028 3.51562 103.028-1.26953C103.028-5.9082 106.397-9.27734 111.035-9.27734C115.772-9.27734 119.19-5.9082 119.19-1.26953C119.19 3.51562 115.625 6.88477 111.035 6.88477ZM66.6992 25.4395L71.4355 17.8223L102.979 17.8223L107.715 25.4395L66.6992 25.4395Z"/>
  </g>
  <g id="Medium-L" transform="matrix(1 0 0 1 1659.47 1556)">
   <path d="M12.4512 43.8477C12.4512 47.168 15.1855 49.9023 18.5058 49.9023C21.7773 49.9023 24.5117 47.168 24.5117 43.8477L24.5117-55.3711C24.5117-91.5039 45.9961-110.303 87.0605-110.303C128.174-110.303 149.658-91.5039 149.658-55.3711L149.658 43.8477C149.658 47.168 152.393 49.9023 155.664 49.9023C158.985 49.9023 161.719 47.168 161.719 43.8477L161.719-55.3711C161.719-99.3652 136.133-122.363 87.0605-122.363C38.0371-122.363 12.4512-99.3652 12.4512-55.3711L12.4512 43.8477ZM56.9336 17.8223L59.2773 17.8223L47.998 36.084C46.289 38.7207 47.9004 41.7969 50.9765 41.7969L54.1992 41.7969C55.8594 41.7969 56.9336 41.1133 57.959 39.502L60.791 34.9609L113.575 34.9609L116.455 39.502C117.383 41.1133 118.604 41.7969 120.313 41.7969L123.438 41.7969C126.416 41.7969 128.028 38.623 126.416 36.084L115.088 17.8223L117.237 17.8223C125.83 17.8223 131.739 11.6211 131.739 2.34375L131.739-36.2305C131.739-49.1699 130.176-61.9629 128.174-70.752C125.782-81.1035 118.75-87.8418 109.18-89.0137C106.543-89.3066 97.7537-90.0391 87.0605-90.0391C76.3672-90.0391 67.6269-89.3066 64.9414-89.0137C55.3711-87.8418 48.3887-81.1035 45.9961-70.752C43.9941-61.9629 42.4316-49.1699 42.4316-36.2305L42.4316 2.34375C42.4316 11.6211 48.3398 17.8223 56.9336 17.8223ZM74.4629-72.0215C71.875-72.0215 70.2148-73.7305 70.2148-76.2695C70.2148-78.8574 71.875-80.4688 74.4629-80.4688L99.7067-80.4688C102.295-80.4688 103.955-78.8574 103.955-76.2695C103.955-73.7305 102.295-72.0215 99.7067-72.0215L74.4629-72.0215ZM57.5683-20.3125C55.3222-20.6543 54.3457-21.9238 54.3457-24.5605L54.3457-36.2305C54.3457-47.168 55.5664-55.7129 56.2012-58.5938C56.5918-60.498 57.7148-61.5723 59.4238-61.8164C65.1367-62.5977 72.2168-62.9395 87.0605-62.9395C101.953-62.9395 109.033-62.5977 114.746-61.8164C116.455-61.5723 117.578-60.498 117.969-58.5938C118.604-55.7129 119.825-47.168 119.825-36.2305L119.825-24.5605C119.825-21.8262 118.848-20.6543 116.602-20.3125C107.813-19.043 96.0937-18.9453 87.0605-18.9453C74.6094-18.9453 62.7929-19.5801 57.5683-20.3125ZM62.9394 6.88477C58.3008 6.88477 54.9316 3.51562 54.9316-1.26953C54.9316-5.9082 58.3008-9.27734 62.9394-9.27734C67.6758-9.27734 71.0937-5.9082 71.0937-1.26953C71.0937 3.51562 67.5293 6.88477 62.9394 6.88477ZM111.035 6.88477C106.397 6.88477 103.028 3.51562 103.028-1.26953C103.028-5.9082 106.397-9.27734 111.035-9.27734C115.772-9.27734 119.19-5.9082 119.19-1.26953C119.19 3.51562 115.625 6.88477 111.035 6.88477ZM66.6992 25.4395L71.4355 17.8223L102.979 17.8223L107.715 25.4395L66.6992 25.4395Z"/>
  </g>
  <g id="Regular-L" transform="matrix(1 0 0 1 1362.76 1556)">
   <path d="M12.4512 43.8477C12.4512 47.168 15.1855 49.9023 18.5058 49.9023C21.7773 49.9023 24.5117 47.168 24.5117 43.8477L24.5117-55.3711C24.5117-91.5039 45.9961-110.303 87.0605-110.303C128.174-110.303 149.658-91.5039 149.658-55.3711L149.658 43.8477C149.658 47.168 152.393 49.9023 155.664 49.9023C158.985 49.9023 161.719 47.168 161.719 43.8477L161.719-55.3711C161.719-99.3652 136.133-122.363 87.0605-122.363C38.0371-122.363 12.4512-99.3652 12.4512-55.3711L12.4512 43.8477ZM56.9336 17.8223L59.2773 17.8223L47.998 36.084C46.289 38.7207 47.9004 41.7969 50.9765 41.7969L54.1992 41.7969C55.8594 41.7969 56.9336 41.1133 57.959 39.502L60.791 34.9609L113.575 34.9609L116.455 39.502C117.383 41.1133 118.604 41.7969 120.313 41.7969L123.438 41.7969C126.416 41.7969 128.028 38.623 126.416 36.084L115.088 17.8223L117.237 17.8223C125.83 17.8223 131.739 11.6211 131.739 2.34375L131.739-36.2305C131.739-49.1699 130.176-61.9629 128.174-70.752C125.782-81.1035 118.75-87.8418 109.18-89.0137C106.543-89.3066 97.7537-90.0391 87.0605-90.0391C76.3672-90.0391 67.6269-89.3066 64.9414-89.0137C55.3711-87.8418 48.3887-81.1035 45.9961-70.752C43.9941-61.9629 42.4316-49.1699 42.4316-36.2305L42.4316 2.34375C42.4316 11.6211 48.3398 17.8223 56.9336 17.8223ZM74.4629-72.0215C71.875-72.0215 70.2148-73.7305 70.2148-76.2695C70.2148-78.8574 71.875-80.4688 74.4629-80.4688L99.7067-80.4688C102.295-80.4688 103.955-78.8574 103.955-76.2695C103.955-73.7305 102.295-72.0215 99.7067-72.0215L74.4629-72.0215ZM57.5683-20.3125C55.3222-20.6543 54.3457-21.9238 54.3457-24.5605L54.3457-36.2305C54.3457-47.168 55.5664-55.7129 56.2012-58.5938C56.5918-60.498 57.7148-61.5723 59.4238-61.8164C65.1367-62.5977 72.2168-62.9395 87.0605-62.9395C101.953-62.9395 109.033-62.5977 114.746-61.8164C116.455-61.5723 117.578-60.498 117.969-58.5938C118.604-55.7129 119.825-47.168 119.825-36.2305L119.825-24.5605C119.825-21.8262 118.848-20.6543 116.602-20.3125C107.813-19.043 96.0937-18.9453 87.0605-18.9453C74.6094-18.9453 62.7929-19.5801 57.5683-20.3125ZM62.9394 6.88477C58.3008 6.88477 54.9316 3.51562 54.9316-1.26953C54.9316-5.9082 58.3008-9.27734 62.9394-9.27734C67.6758-9.27734 71.0937-5.9082 71.0937-1.26953C71.0937 3.51562 67.5293 6.88477 62.9394 6.88477ZM111.035 6.88477C106.397 6.88477 103.028 3.51562 103.028-1.26953C103.028-5.9082 106.397-9.27734 111.035-9.27734C115.772-9.27734 119.19-5.9082 119.19-1.26953C119.19 3.51562 115.625 6.88477 111.035 6.88477ZM66.6992 25.4395L71.4355 17.8223L102.979 17.8223L107.715 25.4395L66.6992 25.4395Z"/>
  </g>
  <g id="Light-L" transform="matrix(1 0 0 1 1066.05 1556)">
   <path d="M12.4512 43.8477C12.4512 47.168 15.1855 49.9023 18.5058 49.9023C21.7773 49.9023 24.5117 47.168 24.5117 43.8477L24.5117-55.3711C24.5117-91.5039 45.9961-110.303 87.0605-110.303C128.174-110.303 149.658-91.5039 149.658-55.3711L149.658 43.8477C149.658 47.168 152.393 49.9023 155.664 49.9023C158.985 49.9023 161.719 47.168 161.719 43.8477L161.719-55.3711C161.719-99.3652 136.133-122.363 87.0605-122.363C38.0371-122.363 12.4512-99.3652 12.4512-55.3711L12.4512 43.8477ZM56.9336 17.8223L59.2773 17.8223L47.998 36.084C46.289 38.7207 47.9004 41.7969 50.9765 41.7969L54.1992 41.7969C55.8594 41.7969 56.9336 41.1133 57.959 39.502L60.791 34.9609L113.575 34.9609L116.455 39.502C117.383 41.1133 118.604 41.7969 120.313 41.7969L123.438 41.7969C126.416 41.7969 128.028 38.623 126.416 36.084L115.088 17.8223L117.237 17.8223C125.83 17.8223 131.739 11.6211 131.739 2.34375L131.739-36.2305C131.739-49.1699 130.176-61.9629 128.174-70.752C125.782-81.1035 118.75-87.8418 109.18-89.0137C106.543-89.3066 97.7537-90.0391 87.0605-90.0391C76.3672-90.0391 67.6269-89.3066 64.9414-89.0137C55.3711-87.8418 48.3887-81.1035 45.9961-70.752C43.9941-61.9629 42.4316-49.1699 42.4316-36.2305L42.4316 2.34375C42.4316 11.6211 48.3398 17.8223 56.9336 17.8223ZM74.4629-72.0215C71.875-72.0215 70.2148-73.7305 70.2148-76.2695C70.2148-78.8574 71.875-80.4688 74.4629-80.4688L99.7067-80.4688C102.295-80.4688 103.955-78.8574 103.955-76.2695C103.955-73.7305 102.295-72.0215 99.7067-72.0215L74.4629-72.0215ZM57.5683-20.3125C55.3222-20.6543 54.3457-21.9238 54.3457-24.5605L54.3457-36.2305C54.3457-47.168 55.5664-55.7129 56.2012-58.5938C56.5918-60.498 57.7148-61.5723 59.4238-61.8164C65.1367-62.5977 72.2168-62.9395 87.0605-62.9395C101.953-62.9395 109.033-62.5977 114.746-61.8164C116.455-61.5723 117.578-60.498 117.969-58.5938C118.604-55.7129 119.825-47.168 119.825-36.2305L119.825-24.5605C119.825-21.8262 118.848-20.6543 116.602-20.3125C107.813-19.043 96.0937-18.9453 87.0605-18.9453C74.6094-18.9453 62.7929-19.5801 57.5683-20.3125ZM62.9394 6.88477C58.3008 6.88477 54.9316 3.51562 54.9316-1.26953C54.9316-5.9082 58.3008-9.27734 62.9394-9.27734C67.6758-9.27734 71.0937-5.9082 71.0937-1.26953C71.0937 3.51562 67.5293 6.88477 62.9394 6.88477ZM111.035 6.88477C106.397 6.88477 103.028 3.51562 103.028-1.26953C103.028-5.9082 106.397-9.27734 111.035-9.27734C115.772-9.27734 119.19-5.9082 119.19-1.26953C119.19 3.51562 115.625 6.88477 111.035 6.88477ZM66.6992 25.4395L71.4355 17.8223L102.979 17.8223L107.715 25.4395L66.6992 25.4395Z"/>
  </g>
  <g id="Thin-L" transform="matrix(1 0 0 1 769.34 1556)">
   <path d="M12.4512 43.8477C12.4512 47.168 15.1855 49.9023 18.5058 49.9023C21.7773 49.9023 24.5117 47.168 24.5117 43.8477L24.5117-55.3711C24.5117-91.5039 45.9961-110.303 87.0605-110.303C128.174-110.303 149.658-91.5039 149.658-55.3711L149.658 43.8477C149.658 47.168 152.393 49.9023 155.664 49.9023C158.985 49.9023 161.719 47.168 161.719 43.8477L161.719-55.3711C161.719-99.3652 136.133-122.363 87.0605-122.363C38.0371-122.363 12.4512-99.3652 12.4512-55.3711L12.4512 43.8477ZM56.9336 17.8223L59.2773 17.8223L47.998 36.084C46.289 38.7207 47.9004 41.7969 50.9765 41.7969L54.1992 41.7969C55.8594 41.7969 56.9336 41.1133 57.959 39.502L60.791 34.9609L113.575 34.9609L116.455 39.502C117.383 41.1133 118.604 41.7969 120.313 41.7969L123.438 41.7969C126.416 41.7969 128.028 38.623 126.416 36.084L115.088 17.8223L117.237 17.8223C125.83 17.8223 131.739 11.6211 131.739 2.34375L131.739-36.2305C131.739-49.1699 130.176-61.9629 128.174-70.752C125.782-81.1035 118.75-87.8418 109.18-89.0137C106.543-89.3066 97.7537-90.0391 87.0605-90.0391C76.3672-90.0391 67.6269-89.3066 64.9414-89.0137C55.3711-87.8418 48.3887-81.1035 45.9961-70.752C43.9941-61.9629 42.4316-49.1699 42.4316-36.2305L42.4316 2.34375C42.4316 11.6211 48.3398 17.8223 56.9336 17.8223ZM74.4629-72.0215C71.875-72.0215 70.2148-73.7305 70.2148-76.2695C70.2148-78.8574 71.875-80.4688 74.4629-80.4688L99.7067-80.4688C102.295-80.4688 103.955-78.8574 103.955-76.2695C103.955-73.7305 102.295-72.0215 99.7067-72.0215L74.4629-72.0215ZM57.5683-20.3125C55.3222-20.6543 54.3457-21.9238 54.3457-24.5605L54.3457-36.2305C54.3457-47.168 55.5664-55.7129 56.2012-58.5938C56.5918-60.498 57.7148-61.5723 59.4238-61.8164C65.1367-62.5977 72.2168-62.9395 87.0605-62.9395C101.953-62.9395 109.033-62.5977 114.746-61.8164C116.455-61.5723 117.578-60.498 117.969-58.5938C118.604-55.7129 119.825-47.168 119.825-36.2305L119.825-24.5605C119.825-21.8262 118.848-20.6543 116.602-20.3125C107.813-19.043 96.0937-18.9453 87.0605-18.9453C74.6094-18.9453 62.7929-19.5801 57.5683-20.3125ZM62.9394 6.88477C58.3008 6.88477 54.9316 3.51562 54.9316-1.26953C54.9316-5.9082 58.3008-9.27734 62.9394-9.27734C67.6758-9.27734 71.0937-5.9082 71.0937-1.26953C71.0937 3.51562 67.5293 6.88477 62.9394 6.88477ZM111.035 6.88477C106.397 6.88477 103.028 3.51562 103.028-1.26953C103.028-5.9082 106.397-9.27734 111.035-9.27734C115.772-9.27734 119.19-5.9082 119.19-1.26953C119.19 3.51562 115.625 6.88477 111.035 6.88477ZM66.6992 25.4395L71.4355 17.8223L102.979 17.8223L107.715 25.4395L66.6992 25.4395Z"/>
  </g>
  <g id="Ultralight-L" transform="matrix(1 0 0 1 472.629 1556)">
   <path d="M12.4512 43.8477C12.4512 47.168 15.1855 49.9023 18.5058 49.9023C21.7773 49.9023 24.5117 47.168 24.5117 43.8477L24.5117-55.3711C24.5117-91.5039 45.9961-110.303 87.0605-110.303C128.174-110.303 149.658-91.5039 149.658-55.3711L149.658 43.8477C149.658 47.168 152.393 49.9023 155.664 49.9023C158.985 49.9023 161.719 47.168 161.719 43.8477L161.719-55.3711C161.719-99.3652 136.133-122.363 87.0605-122.363C38.0371-122.363 12.4512-99.3652 12.4512-55.3711L12.4512 43.8477ZM56.9336 17.8223L59.2773 17.8223L47.998 36.084C46.289 38.7207 47.9004 41.7969 50.9765 41.7969L54.1992 41.7969C55.8594 41.7969 56.9336 41.1133 57.959 39.502L60.791 34.9609L113.575 34.9609L116.455 39.502C117.383 41.1133 118.604 41.7969 120.313 41.7969L123.438 41.7969C126.416 41.7969 128.028 38.623 126.416 36.084L115.088 17.8223L117.237 17.8223C125.83 17.8223 131.739 11.6211 131.739 2.34375L131.739-36.2305C131.739-49.1699 130.176-61.9629 128.174-70.752C125.782-81.1035 118.75-87.8418 109.18-89.0137C106.543-89.3066 97.7537-90.0391 87.0605-90.0391C76.3672-90.0391 67.6269-89.3066 64.9414-89.0137C55.3711-87.8418 48.3887-81.1035 45.9961-70.752C43.9941-61.9629 42.4316-49.1699 42.4316-36.2305L42.4316 2.34375C42.4316 11.6211 48.3398 17.8223 56.9336 17.8223ZM74.4629-72.0215C71.875-72.0215 70.2148-73.7305 70.2148-76.2695C70.2148-78.8574 71.875-80.4688 74.4629-80.4688L99.7067-80.4688C102.295-80.4688 103.955-78.8574 103.955-76.2695C103.955-73.7305 102.295-72.0215 99.7067-72.0215L74.4629-72.0215ZM57.5683-20.3125C55.3222-20.6543 54.3457-21.9238 54.3457-24.5605L54.3457-36.2305C54.3457-47.168 55.5664-55.7129 56.2012-58.5938C56.5918-60.498 57.7148-61.5723 59.4238-61.8164C65.1367-62.5977 72.2168-62.9395 87.0605-62.9395C101.953-62.9395 109.033-62.5977 114.746-61.8164C116.455-61.5723 117.578-60.498 117.969-58.5938C118.604-55.7129 119.825-47.168 119.825-36.2305L119.825-24.5605C119.825-21.8262 118.848-20.6543 116.602-20.3125C107.813-19.043 96.0937-18.9453 87.0605-18.9453C74.6094-18.9453 62.7929-19.5801 57.5683-20.3125ZM62.9394 6.88477C58.3008 6.88477 54.9316 3.51562 54.9316-1.26953C54.9316-5.9082 58.3008-9.27734 62.9394-9.27734C67.6758-9.27734 71.0937-5.9082 71.0937-1.26953C71.0937 3.51562 67.5293 6.88477 62.9394 6.88477ZM111.035 6.88477C106.397 6.88477 103.028 3.51562 103.028-1.26953C103.028-5.9082 106.397-9.27734 111.035-9.27734C115.772-9.27734 119.19-5.9082 119.19-1.26953C119.19 3.51562 115.625 6.88477 111.035 6.88477ZM66.6992 25.4395L71.4355 17.8223L102.979 17.8223L107.715 25.4395L66.6992 25.4395Z"/>
  </g>
  <g id="Black-M" transform="matrix(1 0 0 1 2863.12 1126)">
   <path d="M12.4512 26.0742C12.4512 28.6133 14.5508 30.7617 17.1387 30.7617C19.6777 30.7617 21.7773 28.6133 21.7773 26.0742L21.7773-50.8301C21.7773-78.8086 38.4277-93.4082 70.2637-93.4082C102.148-93.4082 118.799-78.8086 118.799-50.8301L118.799 26.0742C118.799 28.6133 120.898 30.7617 123.438 30.7617C126.025 30.7617 128.125 28.6133 128.125 26.0742L128.125-50.8301C128.125-84.9121 108.301-102.734 70.2637-102.734C32.2754-102.734 12.4512-84.9121 12.4512-50.8301L12.4512 26.0742ZM46.9238 5.85938L48.7305 5.85938L39.9902 20.0195C38.6719 22.0703 39.9414 24.4629 42.2852 24.4629L44.7754 24.4629C46.0938 24.4629 46.9238 23.9258 47.7051 22.7051L49.9512 19.1406L90.8203 19.1406L93.0176 22.7051C93.7988 23.9258 94.7266 24.4629 96.0449 24.4629L98.4375 24.4629C100.781 24.4629 102.002 22.0215 100.781 20.0195L91.9922 5.85938L93.6523 5.85938C100.342 5.85938 104.883 1.07422 104.883-6.10352L104.883-35.9863C104.883-46.0449 103.711-55.957 102.148-62.7441C100.244-70.8008 94.8242-76.0254 87.4512-76.9043C85.3516-77.1484 78.5645-77.6855 70.2637-77.6855C62.0117-77.6855 55.2246-77.1484 53.125-76.9043C45.752-76.0254 40.332-70.8008 38.4277-62.7441C36.8652-55.957 35.6934-46.0449 35.6934-35.9863L35.6934-6.10352C35.6934 1.07422 40.2344 5.85938 46.9238 5.85938ZM60.498-63.7207C58.4961-63.7207 57.1777-65.0391 57.1777-67.041C57.1777-69.043 58.4961-70.2637 60.498-70.2637L80.0781-70.2637C82.0801-70.2637 83.3984-69.043 83.3984-67.041C83.3984-65.0391 82.0801-63.7207 80.0781-63.7207L60.498-63.7207ZM47.4121-23.6816C45.6543-23.9258 44.9219-24.9023 44.9219-26.9531L44.9219-35.9863C44.9219-44.4824 45.8496-51.0742 46.3379-53.3203C46.6797-54.834 47.5586-55.6641 48.8281-55.8105C53.2715-56.4453 58.7402-56.6895 70.2637-56.6895C81.8359-56.6895 87.3047-56.4453 91.748-55.8105C93.0176-55.6641 93.8965-54.834 94.2383-53.3203C94.7266-51.0742 95.6543-44.4824 95.6543-35.9863L95.6543-26.9531C95.6543-24.8535 94.9219-23.9258 93.1641-23.6816C86.377-22.6562 77.2461-22.6074 70.2637-22.6074C60.6445-22.6074 51.4648-23.0957 47.4121-23.6816ZM51.6113-2.58789C47.998-2.58789 45.3613-5.22461 45.3613-8.88672C45.3613-12.5 47.998-15.1367 51.6113-15.1367C55.2734-15.1367 57.8613-12.5 57.8613-8.88672C57.8613-5.22461 55.127-2.58789 51.6113-2.58789ZM88.8672-2.58789C85.2539-2.58789 82.6172-5.22461 82.6172-8.88672C82.6172-12.5 85.2539-15.1367 88.8672-15.1367C92.5293-15.1367 95.166-12.5 95.166-8.88672C95.166-5.22461 92.4316-2.58789 88.8672-2.58789ZM54.4922 11.8164L58.1543 5.85938L82.6172 5.85938L86.2793 11.8164L54.4922 11.8164Z"/>
  </g>
  <g id="Heavy-M" transform="matrix(1 0 0 1 2566.4 1126)">
   <path d="M12.4512 26.0742C12.4512 28.6133 14.5508 30.7617 17.1387 30.7617C19.6777 30.7617 21.7773 28.6133 21.7773 26.0742L21.7773-50.8301C21.7773-78.8086 38.4277-93.4082 70.2637-93.4082C102.148-93.4082 118.799-78.8086 118.799-50.8301L118.799 26.0742C118.799 28.6133 120.898 30.7617 123.438 30.7617C126.025 30.7617 128.125 28.6133 128.125 26.0742L128.125-50.8301C128.125-84.9121 108.301-102.734 70.2637-102.734C32.2754-102.734 12.4512-84.9121 12.4512-50.8301L12.4512 26.0742ZM46.9238 5.85938L48.7305 5.85938L39.9902 20.0195C38.6719 22.0703 39.9414 24.4629 42.2852 24.4629L44.7754 24.4629C46.0938 24.4629 46.9238 23.9258 47.7051 22.7051L49.9512 19.1406L90.8203 19.1406L93.0176 22.7051C93.7988 23.9258 94.7266 24.4629 96.0449 24.4629L98.4375 24.4629C100.781 24.4629 102.002 22.0215 100.781 20.0195L91.9922 5.85938L93.6523 5.85938C100.342 5.85938 104.883 1.07422 104.883-6.10352L104.883-35.9863C104.883-46.0449 103.711-55.957 102.148-62.7441C100.244-70.8008 94.8242-76.0254 87.4512-76.9043C85.3516-77.1484 78.5645-77.6855 70.2637-77.6855C62.0117-77.6855 55.2246-77.1484 53.125-76.9043C45.752-76.0254 40.332-70.8008 38.4277-62.7441C36.8652-55.957 35.6934-46.0449 35.6934-35.9863L35.6934-6.10352C35.6934 1.07422 40.2344 5.85938 46.9238 5.85938ZM60.498-63.7207C58.4961-63.7207 57.1777-65.0391 57.1777-67.041C57.1777-69.043 58.4961-70.2637 60.498-70.2637L80.0781-70.2637C82.0801-70.2637 83.3984-69.043 83.3984-67.041C83.3984-65.0391 82.0801-63.7207 80.0781-63.7207L60.498-63.7207ZM47.4121-23.6816C45.6543-23.9258 44.9219-24.9023 44.9219-26.9531L44.9219-35.9863C44.9219-44.4824 45.8496-51.0742 46.3379-53.3203C46.6797-54.834 47.5586-55.6641 48.8281-55.8105C53.2715-56.4453 58.7402-56.6895 70.2637-56.6895C81.8359-56.6895 87.3047-56.4453 91.748-55.8105C93.0176-55.6641 93.8965-54.834 94.2383-53.3203C94.7266-51.0742 95.6543-44.4824 95.6543-35.9863L95.6543-26.9531C95.6543-24.8535 94.9219-23.9258 93.1641-23.6816C86.377-22.6562 77.2461-22.6074 70.2637-22.6074C60.6445-22.6074 51.4648-23.0957 47.4121-23.6816ZM51.6113-2.58789C47.998-2.58789 45.3613-5.22461 45.3613-8.88672C45.3613-12.5 47.998-15.1367 51.6113-15.1367C55.2734-15.1367 57.8613-12.5 57.8613-8.88672C57.8613-5.22461 55.127-2.58789 51.6113-2.58789ZM88.8672-2.58789C85.2539-2.58789 82.6172-5.22461 82.6172-8.88672C82.6172-12.5 85.2539-15.1367 88.8672-15.1367C92.5293-15.1367 95.166-12.5 95.166-8.88672C95.166-5.22461 92.4316-2.58789 88.8672-2.58789ZM54.4922 11.8164L58.1543 5.85938L82.6172 5.85938L86.2793 11.8164L54.4922 11.8164Z"/>
  </g>
  <g id="Bold-M" transform="matrix(1 0 0 1 2269.69 1126)">
   <path d="M12.4512 26.0742C12.4512 28.6133 14.5508 30.7617 17.1387 30.7617C19.6777 30.7617 21.7773 28.6133 21.7773 26.0742L21.7773-50.8301C21.7773-78.8086 38.4277-93.4082 70.2637-93.4082C102.148-93.4082 118.799-78.8086 118.799-50.8301L118.799 26.0742C118.799 28.6133 120.898 30.7617 123.438 30.7617C126.025 30.7617 128.125 28.6133 128.125 26.0742L128.125-50.8301C128.125-84.9121 108.301-102.734 70.2637-102.734C32.2754-102.734 12.4512-84.9121 12.4512-50.8301L12.4512 26.0742ZM46.9238 5.85938L48.7305 5.85938L39.9902 20.0195C38.6719 22.0703 39.9414 24.4629 42.2852 24.4629L44.7754 24.4629C46.0938 24.4629 46.9238 23.9258 47.7051 22.7051L49.9512 19.1406L90.8203 19.1406L93.0176 22.7051C93.7988 23.9258 94.7266 24.4629 96.0449 24.4629L98.4375 24.4629C100.781 24.4629 102.002 22.0215 100.781 20.0195L91.9922 5.85938L93.6523 5.85938C100.342 5.85938 104.883 1.07422 104.883-6.10352L104.883-35.9863C104.883-46.0449 103.711-55.957 102.148-62.7441C100.244-70.8008 94.8242-76.0254 87.4512-76.9043C85.3516-77.1484 78.5645-77.6855 70.2637-77.6855C62.0117-77.6855 55.2246-77.1484 53.125-76.9043C45.752-76.0254 40.332-70.8008 38.4277-62.7441C36.8652-55.957 35.6934-46.0449 35.6934-35.9863L35.6934-6.10352C35.6934 1.07422 40.2344 5.85938 46.9238 5.85938ZM60.498-63.7207C58.4961-63.7207 57.1777-65.0391 57.1777-67.041C57.1777-69.043 58.4961-70.2637 60.498-70.2637L80.0781-70.2637C82.0801-70.2637 83.3984-69.043 83.3984-67.041C83.3984-65.0391 82.0801-63.7207 80.0781-63.7207L60.498-63.7207ZM47.4121-23.6816C45.6543-23.9258 44.9219-24.9023 44.9219-26.9531L44.9219-35.9863C44.9219-44.4824 45.8496-51.0742 46.3379-53.3203C46.6797-54.834 47.5586-55.6641 48.8281-55.8105C53.2715-56.4453 58.7402-56.6895 70.2637-56.6895C81.8359-56.6895 87.3047-56.4453 91.748-55.8105C93.0176-55.6641 93.8965-54.834 94.2383-53.3203C94.7266-51.0742 95.6543-44.4824 95.6543-35.9863L95.6543-26.9531C95.6543-24.8535 94.9219-23.9258 93.1641-23.6816C86.377-22.6562 77.2461-22.6074 70.2637-22.6074C60.6445-22.6074 51.4648-23.0957 47.4121-23.6816ZM51.6113-2.58789C47.998-2.58789 45.3613-5.22461 45.3613-8.88672C45.3613-12.5 47.998-15.1367 51.6113-15.1367C55.2734-15.1367 57.8613-12.5 57.8613-8.88672C57.8613-5.22461 55.127-2.58789 51.6113-2.58789ZM88.8672-2.58789C85.2539-2.58789 82.6172-5.22461 82.6172-8.88672C82.6172-12.5 85.2539-15.1367 88.8672-15.1367C92.5293-15.1367 95.166-12.5 95.166-8.88672C95.166-5.22461 92.4316-2.58789 88.8672-2.58789ZM54.4922 11.8164L58.1543 5.85938L82.6172 5.85938L86.2793 11.8164L54.4922 11.8164Z"/>
  </g>
  <g id="Semibold-M" transform="matrix(1 0 0 1 1972.98 1126)">
   <path d="M12.4512 26.0742C12.4512 28.6133 14.5508 30.7617 17.1387 30.7617C19.6777 30.7617 21.7773 28.6133 21.7773 26.0742L21.7773-50.8301C21.7773-78.8086 38.4277-93.4082 70.2637-93.4082C102.148-93.4082 118.799-78.8086 118.799-50.8301L118.799 26.0742C118.799 28.6133 120.898 30.7617 123.438 30.7617C126.025 30.7617 128.125 28.6133 128.125 26.0742L128.125-50.8301C128.125-84.9121 108.301-102.734 70.2637-102.734C32.2754-102.734 12.4512-84.9121 12.4512-50.8301L12.4512 26.0742ZM46.9238 5.85938L48.7305 5.85938L39.9902 20.0195C38.6719 22.0703 39.9414 24.4629 42.2852 24.4629L44.7754 24.4629C46.0938 24.4629 46.9238 23.9258 47.7051 22.7051L49.9512 19.1406L90.8203 19.1406L93.0176 22.7051C93.7988 23.9258 94.7266 24.4629 96.0449 24.4629L98.4375 24.4629C100.781 24.4629 102.002 22.0215 100.781 20.0195L91.9922 5.85938L93.6523 5.85938C100.342 5.85938 104.883 1.07422 104.883-6.10352L104.883-35.9863C104.883-46.0449 103.711-55.957 102.148-62.7441C100.244-70.8008 94.8242-76.0254 87.4512-76.9043C85.3516-77.1484 78.5645-77.6855 70.2637-77.6855C62.0117-77.6855 55.2246-77.1484 53.125-76.9043C45.752-76.0254 40.332-70.8008 38.4277-62.7441C36.8652-55.957 35.6934-46.0449 35.6934-35.9863L35.6934-6.10352C35.6934 1.07422 40.2344 5.85938 46.9238 5.85938ZM60.498-63.7207C58.4961-63.7207 57.1777-65.0391 57.1777-67.041C57.1777-69.043 58.4961-70.2637 60.498-70.2637L80.0781-70.2637C82.0801-70.2637 83.3984-69.043 83.3984-67.041C83.3984-65.0391 82.0801-63.7207 80.0781-63.7207L60.498-63.7207ZM47.4121-23.6816C45.6543-23.9258 44.9219-24.9023 44.9219-26.9531L44.9219-35.9863C44.9219-44.4824 45.8496-51.0742 46.3379-53.3203C46.6797-54.834 47.5586-55.6641 48.8281-55.8105C53.2715-56.4453 58.7402-56.6895 70.2637-56.6895C81.8359-56.6895 87.3047-56.4453 91.748-55.8105C93.0176-55.6641 93.8965-54.834 94.2383-53.3203C94.7266-51.0742 95.6543-44.4824 95.6543-35.9863L95.6543-26.9531C95.6543-24.8535 94.9219-23.9258 93.1641-23.6816C86.377-22.6562 77.2461-22.6074 70.2637-22.6074C60.6445-22.6074 51.4648-23.0957 47.4121-23.6816ZM51.6113-2.58789C47.998-2.58789 45.3613-5.22461 45.3613-8.88672C45.3613-12.5 47.998-15.1367 51.6113-15.1367C55.2734-15.1367 57.8613-12.5 57.8613-8.88672C57.8613-5.22461 55.127-2.58789 51.6113-2.58789ZM88.8672-2.58789C85.2539-2.58789 82.6172-5.22461 82.6172-8.88672C82.6172-12.5 85.2539-15.1367 88.8672-15.1367C92.5293-15.1367 95.166-12.5 95.166-8.88672C95.166-5.22461 92.4316-2.58789 88.8672-2.58789ZM54.4922 11.8164L58.1543 5.85938L82.6172 5.85938L86.2793 11.8164L54.4922 11.8164Z"/>
  </g>
  <g id="Medium-M" transform="matrix(1 0 0 1 1676.27 1126)">
   <path d="M12.4512 26.0742C12.4512 28.6133 14.5508 30.7617 17.1387 30.7617C19.6777 30.7617 21.7773 28.6133 21.7773 26.0742L21.7773-50.8301C21.7773-78.8086 38.4277-93.4082 70.2637-93.4082C102.148-93.4082 118.799-78.8086 118.799-50.8301L118.799 26.0742C118.799 28.6133 120.898 30.7617 123.438 30.7617C126.025 30.7617 128.125 28.6133 128.125 26.0742L128.125-50.8301C128.125-84.9121 108.301-102.734 70.2637-102.734C32.2754-102.734 12.4512-84.9121 12.4512-50.8301L12.4512 26.0742ZM46.9238 5.85938L48.7305 5.85938L39.9902 20.0195C38.6719 22.0703 39.9414 24.4629 42.2852 24.4629L44.7754 24.4629C46.0938 24.4629 46.9238 23.9258 47.7051 22.7051L49.9512 19.1406L90.8203 19.1406L93.0176 22.7051C93.7988 23.9258 94.7266 24.4629 96.0449 24.4629L98.4375 24.4629C100.781 24.4629 102.002 22.0215 100.781 20.0195L91.9922 5.85938L93.6523 5.85938C100.342 5.85938 104.883 1.07422 104.883-6.10352L104.883-35.9863C104.883-46.0449 103.711-55.957 102.148-62.7441C100.244-70.8008 94.8242-76.0254 87.4512-76.9043C85.3516-77.1484 78.5645-77.6855 70.2637-77.6855C62.0117-77.6855 55.2246-77.1484 53.125-76.9043C45.752-76.0254 40.332-70.8008 38.4277-62.7441C36.8652-55.957 35.6934-46.0449 35.6934-35.9863L35.6934-6.10352C35.6934 1.07422 40.2344 5.85938 46.9238 5.85938ZM60.498-63.7207C58.4961-63.7207 57.1777-65.0391 57.1777-67.041C57.1777-69.043 58.4961-70.2637 60.498-70.2637L80.0781-70.2637C82.0801-70.2637 83.3984-69.043 83.3984-67.041C83.3984-65.0391 82.0801-63.7207 80.0781-63.7207L60.498-63.7207ZM47.4121-23.6816C45.6543-23.9258 44.9219-24.9023 44.9219-26.9531L44.9219-35.9863C44.9219-44.4824 45.8496-51.0742 46.3379-53.3203C46.6797-54.834 47.5586-55.6641 48.8281-55.8105C53.2715-56.4453 58.7402-56.6895 70.2637-56.6895C81.8359-56.6895 87.3047-56.4453 91.748-55.8105C93.0176-55.6641 93.8965-54.834 94.2383-53.3203C94.7266-51.0742 95.6543-44.4824 95.6543-35.9863L95.6543-26.9531C95.6543-24.8535 94.9219-23.9258 93.1641-23.6816C86.377-22.6562 77.2461-22.6074 70.2637-22.6074C60.6445-22.6074 51.4648-23.0957 47.4121-23.6816ZM51.6113-2.58789C47.998-2.58789 45.3613-5.22461 45.3613-8.88672C45.3613-12.5 47.998-15.1367 51.6113-15.1367C55.2734-15.1367 57.8613-12.5 57.8613-8.88672C57.8613-5.22461 55.127-2.58789 51.6113-2.58789ZM88.8672-2.58789C85.2539-2.58789 82.6172-5.22461 82.6172-8.88672C82.6172-12.5 85.2539-15.1367 88.8672-15.1367C92.5293-15.1367 95.166-12.5 95.166-8.88672C95.166-5.22461 92.4316-2.58789 88.8672-2.58789ZM54.4922 11.8164L58.1543 5.85938L82.6172 5.85938L86.2793 11.8164L54.4922 11.8164Z"/>
  </g>
  <g id="Regular-M" transform="matrix(1 0 0 1 1379.56 1126)">
   <path d="M12.4512 26.0742C12.4512 28.6133 14.5508 30.7617 17.1387 30.7617C19.6777 30.7617 21.7773 28.6133 21.7773 26.0742L21.7773-50.8301C21.7773-78.8086 38.4277-93.4082 70.2637-93.4082C102.148-93.4082 118.799-78.8086 118.799-50.8301L118.799 26.0742C118.799 28.6133 120.898 30.7617 123.438 30.7617C126.025 30.7617 128.125 28.6133 128.125 26.0742L128.125-50.8301C128.125-84.9121 108.301-102.734 70.2637-102.734C32.2754-102.734 12.4512-84.9121 12.4512-50.8301L12.4512 26.0742ZM46.9238 5.85938L48.7305 5.85938L39.9902 20.0195C38.6719 22.0703 39.9414 24.4629 42.2852 24.4629L44.7754 24.4629C46.0938 24.4629 46.9238 23.9258 47.7051 22.7051L49.9512 19.1406L90.8203 19.1406L93.0176 22.7051C93.7988 23.9258 94.7266 24.4629 96.0449 24.4629L98.4375 24.4629C100.781 24.4629 102.002 22.0215 100.781 20.0195L91.9922 5.85938L93.6523 5.85938C100.342 5.85938 104.883 1.07422 104.883-6.10352L104.883-35.9863C104.883-46.0449 103.711-55.957 102.148-62.7441C100.244-70.8008 94.8242-76.0254 87.4512-76.9043C85.3516-77.1484 78.5645-77.6855 70.2637-77.6855C62.0117-77.6855 55.2246-77.1484 53.125-76.9043C45.752-76.0254 40.332-70.8008 38.4277-62.7441C36.8652-55.957 35.6934-46.0449 35.6934-35.9863L35.6934-6.10352C35.6934 1.07422 40.2344 5.85938 46.9238 5.85938ZM60.498-63.7207C58.4961-63.7207 57.1777-65.0391 57.1777-67.041C57.1777-69.043 58.4961-70.2637 60.498-70.2637L80.0781-70.2637C82.0801-70.2637 83.3984-69.043 83.3984-67.041C83.3984-65.0391 82.0801-63.7207 80.0781-63.7207L60.498-63.7207ZM47.4121-23.6816C45.6543-23.9258 44.9219-24.9023 44.9219-26.9531L44.9219-35.9863C44.9219-44.4824 45.8496-51.0742 46.3379-53.3203C46.6797-54.834 47.5586-55.6641 48.8281-55.8105C53.2715-56.4453 58.7402-56.6895 70.2637-56.6895C81.8359-56.6895 87.3047-56.4453 91.748-55.8105C93.0176-55.6641 93.8965-54.834 94.2383-53.3203C94.7266-51.0742 95.6543-44.4824 95.6543-35.9863L95.6543-26.9531C95.6543-24.8535 94.9219-23.9258 93.1641-23.6816C86.377-22.6562 77.2461-22.6074 70.2637-22.6074C60.6445-22.6074 51.4648-23.0957 47.4121-23.6816ZM51.6113-2.58789C47.998-2.58789 45.3613-5.22461 45.3613-8.88672C45.3613-12.5 47.998-15.1367 51.6113-15.1367C55.2734-15.1367 57.8613-12.5 57.8613-8.88672C57.8613-5.22461 55.127-2.58789 51.6113-2.58789ZM88.8672-2.58789C85.2539-2.58789 82.6172-5.22461 82.6172-8.88672C82.6172-12.5 85.2539-15.1367 88.8672-15.1367C92.5293-15.1367 95.166-12.5 95.166-8.88672C95.166-5.22461 92.4316-2.58789 88.8672-2.58789ZM54.4922 11.8164L58.1543 5.85938L82.6172 5.85938L86.2793 11.8164L54.4922 11.8164Z"/>
  </g>
  <g id="Light-M" transform="matrix(1 0 0 1 1082.85 1126)">
   <path d="M12.4512 26.0742C12.4512 28.6133 14.5508 30.7617 17.1387 30.7617C19.6777 30.7617 21.7773 28.6133 21.7773 26.0742L21.7773-50.8301C21.7773-78.8086 38.4277-93.4082 70.2637-93.4082C102.148-93.4082 118.799-78.8086 118.799-50.8301L118.799 26.0742C118.799 28.6133 120.898 30.7617 123.438 30.7617C126.025 30.7617 128.125 28.6133 128.125 26.0742L128.125-50.8301C128.125-84.9121 108.301-102.734 70.2637-102.734C32.2754-102.734 12.4512-84.9121 12.4512-50.8301L12.4512 26.0742ZM46.9238 5.85938L48.7305 5.85938L39.9902 20.0195C38.6719 22.0703 39.9414 24.4629 42.2852 24.4629L44.7754 24.4629C46.0938 24.4629 46.9238 23.9258 47.7051 22.7051L49.9512 19.1406L90.8203 19.1406L93.0176 22.7051C93.7988 23.9258 94.7266 24.4629 96.0449 24.4629L98.4375 24.4629C100.781 24.4629 102.002 22.0215 100.781 20.0195L91.9922 5.85938L93.6523 5.85938C100.342 5.85938 104.883 1.07422 104.883-6.10352L104.883-35.9863C104.883-46.0449 103.711-55.957 102.148-62.7441C100.244-70.8008 94.8242-76.0254 87.4512-76.9043C85.3516-77.1484 78.5645-77.6855 70.2637-77.6855C62.0117-77.6855 55.2246-77.1484 53.125-76.9043C45.752-76.0254 40.332-70.8008 38.4277-62.7441C36.8652-55.957 35.6934-46.0449 35.6934-35.9863L35.6934-6.10352C35.6934 1.07422 40.2344 5.85938 46.9238 5.85938ZM60.498-63.7207C58.4961-63.7207 57.1777-65.0391 57.1777-67.041C57.1777-69.043 58.4961-70.2637 60.498-70.2637L80.0781-70.2637C82.0801-70.2637 83.3984-69.043 83.3984-67.041C83.3984-65.0391 82.0801-63.7207 80.0781-63.7207L60.498-63.7207ZM47.4121-23.6816C45.6543-23.9258 44.9219-24.9023 44.9219-26.9531L44.9219-35.9863C44.9219-44.4824 45.8496-51.0742 46.3379-53.3203C46.6797-54.834 47.5586-55.6641 48.8281-55.8105C53.2715-56.4453 58.7402-56.6895 70.2637-56.6895C81.8359-56.6895 87.3047-56.4453 91.748-55.8105C93.0176-55.6641 93.8965-54.834 94.2383-53.3203C94.7266-51.0742 95.6543-44.4824 95.6543-35.9863L95.6543-26.9531C95.6543-24.8535 94.9219-23.9258 93.1641-23.6816C86.377-22.6562 77.2461-22.6074 70.2637-22.6074C60.6445-22.6074 51.4648-23.0957 47.4121-23.6816ZM51.6113-2.58789C47.998-2.58789 45.3613-5.22461 45.3613-8.88672C45.3613-12.5 47.998-15.1367 51.6113-15.1367C55.2734-15.1367 57.8613-12.5 57.8613-8.88672C57.8613-5.22461 55.127-2.58789 51.6113-2.58789ZM88.8672-2.58789C85.2539-2.58789 82.6172-5.22461 82.6172-8.88672C82.6172-12.5 85.2539-15.1367 88.8672-15.1367C92.5293-15.1367 95.166-12.5 95.166-8.88672C95.166-5.22461 92.4316-2.58789 88.8672-2.58789ZM54.4922 11.8164L58.1543 5.85938L82.6172 5.85938L86.2793 11.8164L54.4922 11.8164Z"/>
  </g>
  <g id="Thin-M" transform="matrix(1 0 0 1 786.137 1126)">
   <path d="M12.4512 26.0742C12.4512 28.6133 14.5508 30.7617 17.1387 30.7617C19.6777 30.7617 21.7773 28.6133 21.7773 26.0742L21.7773-50.8301C21.7773-78.8086 38.4277-93.4082 70.2637-93.4082C102.148-93.4082 118.799-78.8086 118.799-50.8301L118.799 26.0742C118.799 28.6133 120.898 30.7617 123.438 30.7617C126.025 30.7617 128.125 28.6133 128.125 26.0742L128.125-50.8301C128.125-84.9121 108.301-102.734 70.2637-102.734C32.2754-102.734 12.4512-84.9121 12.4512-50.8301L12.4512 26.0742ZM46.9238 5.85938L48.7305 5.85938L39.9902 20.0195C38.6719 22.0703 39.9414 24.4629 42.2852 24.4629L44.7754 24.4629C46.0938 24.4629 46.9238 23.9258 47.7051 22.7051L49.9512 19.1406L90.8203 19.1406L93.0176 22.7051C93.7988 23.9258 94.7266 24.4629 96.0449 24.4629L98.4375 24.4629C100.781 24.4629 102.002 22.0215 100.781 20.0195L91.9922 5.85938L93.6523 5.85938C100.342 5.85938 104.883 1.07422 104.883-6.10352L104.883-35.9863C104.883-46.0449 103.711-55.957 102.148-62.7441C100.244-70.8008 94.8242-76.0254 87.4512-76.9043C85.3516-77.1484 78.5645-77.6855 70.2637-77.6855C62.0117-77.6855 55.2246-77.1484 53.125-76.9043C45.752-76.0254 40.332-70.8008 38.4277-62.7441C36.8652-55.957 35.6934-46.0449 35.6934-35.9863L35.6934-6.10352C35.6934 1.07422 40.2344 5.85938 46.9238 5.85938ZM60.498-63.7207C58.4961-63.7207 57.1777-65.0391 57.1777-67.041C57.1777-69.043 58.4961-70.2637 60.498-70.2637L80.0781-70.2637C82.0801-70.2637 83.3984-69.043 83.3984-67.041C83.3984-65.0391 82.0801-63.7207 80.0781-63.7207L60.498-63.7207ZM47.4121-23.6816C45.6543-23.9258 44.9219-24.9023 44.9219-26.9531L44.9219-35.9863C44.9219-44.4824 45.8496-51.0742 46.3379-53.3203C46.6797-54.834 47.5586-55.6641 48.8281-55.8105C53.2715-56.4453 58.7402-56.6895 70.2637-56.6895C81.8359-56.6895 87.3047-56.4453 91.748-55.8105C93.0176-55.6641 93.8965-54.834 94.2383-53.3203C94.7266-51.0742 95.6543-44.4824 95.6543-35.9863L95.6543-26.9531C95.6543-24.8535 94.9219-23.9258 93.1641-23.6816C86.377-22.6562 77.2461-22.6074 70.2637-22.6074C60.6445-22.6074 51.4648-23.0957 47.4121-23.6816ZM51.6113-2.58789C47.998-2.58789 45.3613-5.22461 45.3613-8.88672C45.3613-12.5 47.998-15.1367 51.6113-15.1367C55.2734-15.1367 57.8613-12.5 57.8613-8.88672C57.8613-5.22461 55.127-2.58789 51.6113-2.58789ZM88.8672-2.58789C85.2539-2.58789 82.6172-5.22461 82.6172-8.88672C82.6172-12.5 85.2539-15.1367 88.8672-15.1367C92.5293-15.1367 95.166-12.5 95.166-8.88672C95.166-5.22461 92.4316-2.58789 88.8672-2.58789ZM54.4922 11.8164L58.1543 5.85938L82.6172 5.85938L86.2793 11.8164L54.4922 11.8164Z"/>
  </g>
  <g id="Ultralight-M" transform="matrix(1 0 0 1 489.426 1126)">
   <path d="M12.4512 26.0742C12.4512 28.6133 14.5508 30.7617 17.1387 30.7617C19.6777 30.7617 21.7773 28.6133 21.7773 26.0742L21.7773-50.8301C21.7773-78.8086 38.4277-93.4082 70.2637-93.4082C102.148-93.4082 118.799-78.8086 118.799-50.8301L118.799 26.0742C118.799 28.6133 120.898 30.7617 123.438 30.7617C126.025 30.7617 128.125 28.6133 128.125 26.0742L128.125-50.8301C128.125-84.9121 108.301-102.734 70.2637-102.734C32.2754-102.734 12.4512-84.9121 12.4512-50.8301L12.4512 26.0742ZM46.9238 5.85938L48.7305 5.85938L39.9902 20.0195C38.6719 22.0703 39.9414 24.4629 42.2852 24.4629L44.7754 24.4629C46.0938 24.4629 46.9238 23.9258 47.7051 22.7051L49.9512 19.1406L90.8203 19.1406L93.0176 22.7051C93.7988 23.9258 94.7266 24.4629 96.0449 24.4629L98.4375 24.4629C100.781 24.4629 102.002 22.0215 100.781 20.0195L91.9922 5.85938L93.6523 5.85938C100.342 5.85938 104.883 1.07422 104.883-6.10352L104.883-35.9863C104.883-46.0449 103.711-55.957 102.148-62.7441C100.244-70.8008 94.8242-76.0254 87.4512-76.9043C85.3516-77.1484 78.5645-77.6855 70.2637-77.6855C62.0117-77.6855 55.2246-77.1484 53.125-76.9043C45.752-76.0254 40.332-70.8008 38.4277-62.7441C36.8652-55.957 35.6934-46.0449 35.6934-35.9863L35.6934-6.10352C35.6934 1.07422 40.2344 5.85938 46.9238 5.85938ZM60.498-63.7207C58.4961-63.7207 57.1777-65.0391 57.1777-67.041C57.1777-69.043 58.4961-70.2637 60.498-70.2637L80.0781-70.2637C82.0801-70.2637 83.3984-69.043 83.3984-67.041C83.3984-65.0391 82.0801-63.7207 80.0781-63.7207L60.498-63.7207ZM47.4121-23.6816C45.6543-23.9258 44.9219-24.9023 44.9219-26.9531L44.9219-35.9863C44.9219-44.4824 45.8496-51.0742 46.3379-53.3203C46.6797-54.834 47.5586-55.6641 48.8281-55.8105C53.2715-56.4453 58.7402-56.6895 70.2637-56.6895C81.8359-56.6895 87.3047-56.4453 91.748-55.8105C93.0176-55.6641 93.8965-54.834 94.2383-53.3203C94.7266-51.0742 95.6543-44.4824 95.6543-35.9863L95.6543-26.9531C95.6543-24.8535 94.9219-23.9258 93.1641-23.6816C86.377-22.6562 77.2461-22.6074 70.2637-22.6074C60.6445-22.6074 51.4648-23.0957 47.4121-23.6816ZM51.6113-2.58789C47.998-2.58789 45.3613-5.22461 45.3613-8.88672C45.3613-12.5 47.998-15.1367 51.6113-15.1367C55.2734-15.1367 57.8613-12.5 57.8613-8.88672C57.8613-5.22461 55.127-2.58789 51.6113-2.58789ZM88.8672-2.58789C85.2539-2.58789 82.6172-5.22461 82.6172-8.88672C82.6172-12.5 85.2539-15.1367 88.8672-15.1367C92.5293-15.1367 95.166-12.5 95.166-8.88672C95.166-5.22461 92.4316-2.58789 88.8672-2.58789ZM54.4922 11.8164L58.1543 5.85938L82.6172 5.85938L86.2793 11.8164L54.4922 11.8164Z"/>
  </g>
  <g id="Black-S" transform="matrix(1 0 0 1 2875.64 696)">
   <path d="M12.4512 12.793C12.4512 14.7949 14.1114 16.4551 16.1133 16.4551C18.1153 16.4551 19.7754 14.7949 19.7754 12.793L19.7754-47.4609C19.7754-69.3848 32.8126-80.8105 57.7637-80.8105C82.7149-80.8105 95.752-69.3848 95.752-47.4609L95.752 12.793C95.752 14.7949 97.4122 16.4551 99.4141 16.4551C101.416 16.4551 103.077 14.7949 103.077 12.793L103.077-47.4609C103.077-74.1699 87.5489-88.1348 57.7637-88.1348C27.9786-88.1348 12.4512-74.1699 12.4512-47.4609L12.4512 12.793ZM35.8399 11.5234L37.793 11.5234C38.8184 11.5234 39.4532 11.1328 40.0879 10.1562L41.7969 7.37305L73.877 7.37305L75.586 10.1562C76.1719 11.1328 76.9044 11.5234 77.9297 11.5234L79.834 11.5234C81.6407 11.5234 82.6172 9.61914 81.6407 8.05664L74.8047-3.02734L76.0743-3.02734C81.2989-3.02734 84.8633-6.78711 84.8633-12.4023L84.8633-35.8398C84.8633-43.7012 83.9356-51.4648 82.7149-56.7871C81.2501-63.0859 77.002-67.1875 71.1915-67.8711C69.5801-68.0664 64.2579-68.5059 57.7637-68.5059C51.2696-68.5059 45.9473-68.0664 44.336-67.8711C38.5254-67.1875 34.2774-63.0859 32.8126-56.7871C31.5918-51.4648 30.6641-43.7012 30.6641-35.8398L30.6641-12.4023C30.6641-6.78711 34.2286-3.02734 39.4532-3.02734L40.8692-3.02734L34.0333 8.05664C33.0079 9.66797 33.9844 11.5234 35.8399 11.5234ZM50.0977-57.5684C48.5352-57.5684 47.5098-58.5938 47.5098-60.1562C47.5098-61.7188 48.5352-62.6953 50.0977-62.6953L65.4297-62.6953C66.9922-62.6953 68.0176-61.7188 68.0176-60.1562C68.0176-58.5938 66.9922-57.5684 65.4297-57.5684L50.0977-57.5684ZM39.8438-26.1719C38.4766-26.3672 37.8907-27.1484 37.8907-28.7598L37.8907-35.8398C37.8907-42.4805 38.6231-47.6562 39.0137-49.4141C39.2579-50.5859 39.9415-51.2207 40.9668-51.3672C44.4336-51.8555 48.7305-52.0508 57.7637-52.0508C66.7969-52.0508 71.0938-51.8555 74.5606-51.3672C75.586-51.2207 76.2696-50.5859 76.5137-49.4141C76.9044-47.6562 77.6368-42.4805 77.6368-35.8398L77.6368-28.7598C77.6368-27.0996 77.0508-26.3672 75.6836-26.1719C70.3614-25.3906 63.2325-25.3418 57.7637-25.3418C50.1954-25.3418 43.0176-25.7324 39.8438-26.1719ZM43.1153-9.66797C40.2833-9.66797 38.2325-11.7188 38.2325-14.5996C38.2325-17.4316 40.2833-19.4824 43.1153-19.4824C45.9961-19.4824 48.0469-17.4316 48.0469-14.5996C48.0469-11.7188 45.8985-9.66797 43.1153-9.66797ZM72.3145-9.66797C69.4825-9.66797 67.4317-11.7188 67.4317-14.5996C67.4317-17.4316 69.4825-19.4824 72.3145-19.4824C75.1954-19.4824 77.2461-17.4316 77.2461-14.5996C77.2461-11.7188 75.0977-9.66797 72.3145-9.66797ZM45.3614 1.61133L48.2422-3.02734L67.4317-3.02734L70.3126 1.61133L45.3614 1.61133Z"/>
  </g>
  <g id="Heavy-S" transform="matrix(1 0 0 1 2578.93 696)">
   <path d="M12.4512 12.793C12.4512 14.7949 14.1114 16.4551 16.1133 16.4551C18.1153 16.4551 19.7754 14.7949 19.7754 12.793L19.7754-47.4609C19.7754-69.3848 32.8126-80.8105 57.7637-80.8105C82.7149-80.8105 95.752-69.3848 95.752-47.4609L95.752 12.793C95.752 14.7949 97.4122 16.4551 99.4141 16.4551C101.416 16.4551 103.077 14.7949 103.077 12.793L103.077-47.4609C103.077-74.1699 87.5489-88.1348 57.7637-88.1348C27.9786-88.1348 12.4512-74.1699 12.4512-47.4609L12.4512 12.793ZM35.8399 11.5234L37.793 11.5234C38.8184 11.5234 39.4532 11.1328 40.0879 10.1562L41.7969 7.37305L73.877 7.37305L75.586 10.1562C76.1719 11.1328 76.9044 11.5234 77.9297 11.5234L79.834 11.5234C81.6407 11.5234 82.6172 9.61914 81.6407 8.05664L74.8047-3.02734L76.0743-3.02734C81.2989-3.02734 84.8633-6.78711 84.8633-12.4023L84.8633-35.8398C84.8633-43.7012 83.9356-51.4648 82.7149-56.7871C81.2501-63.0859 77.002-67.1875 71.1915-67.8711C69.5801-68.0664 64.2579-68.5059 57.7637-68.5059C51.2696-68.5059 45.9473-68.0664 44.336-67.8711C38.5254-67.1875 34.2774-63.0859 32.8126-56.7871C31.5918-51.4648 30.6641-43.7012 30.6641-35.8398L30.6641-12.4023C30.6641-6.78711 34.2286-3.02734 39.4532-3.02734L40.8692-3.02734L34.0333 8.05664C33.0079 9.66797 33.9844 11.5234 35.8399 11.5234ZM50.0977-57.5684C48.5352-57.5684 47.5098-58.5938 47.5098-60.1562C47.5098-61.7188 48.5352-62.6953 50.0977-62.6953L65.4297-62.6953C66.9922-62.6953 68.0176-61.7188 68.0176-60.1562C68.0176-58.5938 66.9922-57.5684 65.4297-57.5684L50.0977-57.5684ZM39.8438-26.1719C38.4766-26.3672 37.8907-27.1484 37.8907-28.7598L37.8907-35.8398C37.8907-42.4805 38.6231-47.6562 39.0137-49.4141C39.2579-50.5859 39.9415-51.2207 40.9668-51.3672C44.4336-51.8555 48.7305-52.0508 57.7637-52.0508C66.7969-52.0508 71.0938-51.8555 74.5606-51.3672C75.586-51.2207 76.2696-50.5859 76.5137-49.4141C76.9044-47.6562 77.6368-42.4805 77.6368-35.8398L77.6368-28.7598C77.6368-27.0996 77.0508-26.3672 75.6836-26.1719C70.3614-25.3906 63.2325-25.3418 57.7637-25.3418C50.1954-25.3418 43.0176-25.7324 39.8438-26.1719ZM43.1153-9.66797C40.2833-9.66797 38.2325-11.7188 38.2325-14.5996C38.2325-17.4316 40.2833-19.4824 43.1153-19.4824C45.9961-19.4824 48.0469-17.4316 48.0469-14.5996C48.0469-11.7188 45.8985-9.66797 43.1153-9.66797ZM72.3145-9.66797C69.4825-9.66797 67.4317-11.7188 67.4317-14.5996C67.4317-17.4316 69.4825-19.4824 72.3145-19.4824C75.1954-19.4824 77.2461-17.4316 77.2461-14.5996C77.2461-11.7188 75.0977-9.66797 72.3145-9.66797ZM45.3614 1.61133L48.2422-3.02734L67.4317-3.02734L70.3126 1.61133L45.3614 1.61133Z"/>
  </g>
  <g id="Bold-S" transform="matrix(1 0 0 1 2282.22 696)">
   <path d="M12.4512 12.793C12.4512 14.7949 14.1114 16.4551 16.1133 16.4551C18.1153 16.4551 19.7754 14.7949 19.7754 12.793L19.7754-47.4609C19.7754-69.3848 32.8126-80.8105 57.7637-80.8105C82.7149-80.8105 95.752-69.3848 95.752-47.4609L95.752 12.793C95.752 14.7949 97.4122 16.4551 99.4141 16.4551C101.416 16.4551 103.077 14.7949 103.077 12.793L103.077-47.4609C103.077-74.1699 87.5489-88.1348 57.7637-88.1348C27.9786-88.1348 12.4512-74.1699 12.4512-47.4609L12.4512 12.793ZM35.8399 11.5234L37.793 11.5234C38.8184 11.5234 39.4532 11.1328 40.0879 10.1562L41.7969 7.37305L73.877 7.37305L75.586 10.1562C76.1719 11.1328 76.9044 11.5234 77.9297 11.5234L79.834 11.5234C81.6407 11.5234 82.6172 9.61914 81.6407 8.05664L74.8047-3.02734L76.0743-3.02734C81.2989-3.02734 84.8633-6.78711 84.8633-12.4023L84.8633-35.8398C84.8633-43.7012 83.9356-51.4648 82.7149-56.7871C81.2501-63.0859 77.002-67.1875 71.1915-67.8711C69.5801-68.0664 64.2579-68.5059 57.7637-68.5059C51.2696-68.5059 45.9473-68.0664 44.336-67.8711C38.5254-67.1875 34.2774-63.0859 32.8126-56.7871C31.5918-51.4648 30.6641-43.7012 30.6641-35.8398L30.6641-12.4023C30.6641-6.78711 34.2286-3.02734 39.4532-3.02734L40.8692-3.02734L34.0333 8.05664C33.0079 9.66797 33.9844 11.5234 35.8399 11.5234ZM50.0977-57.5684C48.5352-57.5684 47.5098-58.5938 47.5098-60.1562C47.5098-61.7188 48.5352-62.6953 50.0977-62.6953L65.4297-62.6953C66.9922-62.6953 68.0176-61.7188 68.0176-60.1562C68.0176-58.5938 66.9922-57.5684 65.4297-57.5684L50.0977-57.5684ZM39.8438-26.1719C38.4766-26.3672 37.8907-27.1484 37.8907-28.7598L37.8907-35.8398C37.8907-42.4805 38.6231-47.6562 39.0137-49.4141C39.2579-50.5859 39.9415-51.2207 40.9668-51.3672C44.4336-51.8555 48.7305-52.0508 57.7637-52.0508C66.7969-52.0508 71.0938-51.8555 74.5606-51.3672C75.586-51.2207 76.2696-50.5859 76.5137-49.4141C76.9044-47.6562 77.6368-42.4805 77.6368-35.8398L77.6368-28.7598C77.6368-27.0996 77.0508-26.3672 75.6836-26.1719C70.3614-25.3906 63.2325-25.3418 57.7637-25.3418C50.1954-25.3418 43.0176-25.7324 39.8438-26.1719ZM43.1153-9.66797C40.2833-9.66797 38.2325-11.7188 38.2325-14.5996C38.2325-17.4316 40.2833-19.4824 43.1153-19.4824C45.9961-19.4824 48.0469-17.4316 48.0469-14.5996C48.0469-11.7188 45.8985-9.66797 43.1153-9.66797ZM72.3145-9.66797C69.4825-9.66797 67.4317-11.7188 67.4317-14.5996C67.4317-17.4316 69.4825-19.4824 72.3145-19.4824C75.1954-19.4824 77.2461-17.4316 77.2461-14.5996C77.2461-11.7188 75.0977-9.66797 72.3145-9.66797ZM45.3614 1.61133L48.2422-3.02734L67.4317-3.02734L70.3126 1.61133L45.3614 1.61133Z"/>
  </g>
  <g id="Semibold-S" transform="matrix(1 0 0 1 1985.51 696)">
   <path d="M12.4512 12.793C12.4512 14.7949 14.1114 16.4551 16.1133 16.4551C18.1153 16.4551 19.7754 14.7949 19.7754 12.793L19.7754-47.4609C19.7754-69.3848 32.8126-80.8105 57.7637-80.8105C82.7149-80.8105 95.752-69.3848 95.752-47.4609L95.752 12.793C95.752 14.7949 97.4122 16.4551 99.4141 16.4551C101.416 16.4551 103.077 14.7949 103.077 12.793L103.077-47.4609C103.077-74.1699 87.5489-88.1348 57.7637-88.1348C27.9786-88.1348 12.4512-74.1699 12.4512-47.4609L12.4512 12.793ZM35.8399 11.5234L37.793 11.5234C38.8184 11.5234 39.4532 11.1328 40.0879 10.1562L41.7969 7.37305L73.877 7.37305L75.586 10.1562C76.1719 11.1328 76.9044 11.5234 77.9297 11.5234L79.834 11.5234C81.6407 11.5234 82.6172 9.61914 81.6407 8.05664L74.8047-3.02734L76.0743-3.02734C81.2989-3.02734 84.8633-6.78711 84.8633-12.4023L84.8633-35.8398C84.8633-43.7012 83.9356-51.4648 82.7149-56.7871C81.2501-63.0859 77.002-67.1875 71.1915-67.8711C69.5801-68.0664 64.2579-68.5059 57.7637-68.5059C51.2696-68.5059 45.9473-68.0664 44.336-67.8711C38.5254-67.1875 34.2774-63.0859 32.8126-56.7871C31.5918-51.4648 30.6641-43.7012 30.6641-35.8398L30.6641-12.4023C30.6641-6.78711 34.2286-3.02734 39.4532-3.02734L40.8692-3.02734L34.0333 8.05664C33.0079 9.66797 33.9844 11.5234 35.8399 11.5234ZM50.0977-57.5684C48.5352-57.5684 47.5098-58.5938 47.5098-60.1562C47.5098-61.7188 48.5352-62.6953 50.0977-62.6953L65.4297-62.6953C66.9922-62.6953 68.0176-61.7188 68.0176-60.1562C68.0176-58.5938 66.9922-57.5684 65.4297-57.5684L50.0977-57.5684ZM39.8438-26.1719C38.4766-26.3672 37.8907-27.1484 37.8907-28.7598L37.8907-35.8398C37.8907-42.4805 38.6231-47.6562 39.0137-49.4141C39.2579-50.5859 39.9415-51.2207 40.9668-51.3672C44.4336-51.8555 48.7305-52.0508 57.7637-52.0508C66.7969-52.0508 71.0938-51.8555 74.5606-51.3672C75.586-51.2207 76.2696-50.5859 76.5137-49.4141C76.9044-47.6562 77.6368-42.4805 77.6368-35.8398L77.6368-28.7598C77.6368-27.0996 77.0508-26.3672 75.6836-26.1719C70.3614-25.3906 63.2325-25.3418 57.7637-25.3418C50.1954-25.3418 43.0176-25.7324 39.8438-26.1719ZM43.1153-9.66797C40.2833-9.66797 38.2325-11.7188 38.2325-14.5996C38.2325-17.4316 40.2833-19.4824 43.1153-19.4824C45.9961-19.4824 48.0469-17.4316 48.0469-14.5996C48.0469-11.7188 45.8985-9.66797 43.1153-9.66797ZM72.3145-9.66797C69.4825-9.66797 67.4317-11.7188 67.4317-14.5996C67.4317-17.4316 69.4825-19.4824 72.3145-19.4824C75.1954-19.4824 77.2461-17.4316 77.2461-14.5996C77.2461-11.7188 75.0977-9.66797 72.3145-9.66797ZM45.3614 1.61133L48.2422-3.02734L67.4317-3.02734L70.3126 1.61133L45.3614 1.61133Z"/>
  </g>
  <g id="Medium-S" transform="matrix(1 0 0 1 1688.79 696)">
   <path d="M12.4512 12.793C12.4512 14.7949 14.1114 16.4551 16.1133 16.4551C18.1153 16.4551 19.7754 14.7949 19.7754 12.793L19.7754-47.4609C19.7754-69.3848 32.8126-80.8105 57.7637-80.8105C82.7149-80.8105 95.752-69.3848 95.752-47.4609L95.752 12.793C95.752 14.7949 97.4122 16.4551 99.4141 16.4551C101.416 16.4551 103.077 14.7949 103.077 12.793L103.077-47.4609C103.077-74.1699 87.5489-88.1348 57.7637-88.1348C27.9786-88.1348 12.4512-74.1699 12.4512-47.4609L12.4512 12.793ZM35.8399 11.5234L37.793 11.5234C38.8184 11.5234 39.4532 11.1328 40.0879 10.1562L41.7969 7.37305L73.877 7.37305L75.586 10.1562C76.1719 11.1328 76.9044 11.5234 77.9297 11.5234L79.834 11.5234C81.6407 11.5234 82.6172 9.61914 81.6407 8.05664L74.8047-3.02734L76.0743-3.02734C81.2989-3.02734 84.8633-6.78711 84.8633-12.4023L84.8633-35.8398C84.8633-43.7012 83.9356-51.4648 82.7149-56.7871C81.2501-63.0859 77.002-67.1875 71.1915-67.8711C69.5801-68.0664 64.2579-68.5059 57.7637-68.5059C51.2696-68.5059 45.9473-68.0664 44.336-67.8711C38.5254-67.1875 34.2774-63.0859 32.8126-56.7871C31.5918-51.4648 30.6641-43.7012 30.6641-35.8398L30.6641-12.4023C30.6641-6.78711 34.2286-3.02734 39.4532-3.02734L40.8692-3.02734L34.0333 8.05664C33.0079 9.66797 33.9844 11.5234 35.8399 11.5234ZM50.0977-57.5684C48.5352-57.5684 47.5098-58.5938 47.5098-60.1562C47.5098-61.7188 48.5352-62.6953 50.0977-62.6953L65.4297-62.6953C66.9922-62.6953 68.0176-61.7188 68.0176-60.1562C68.0176-58.5938 66.9922-57.5684 65.4297-57.5684L50.0977-57.5684ZM39.8438-26.1719C38.4766-26.3672 37.8907-27.1484 37.8907-28.7598L37.8907-35.8398C37.8907-42.4805 38.6231-47.6562 39.0137-49.4141C39.2579-50.5859 39.9415-51.2207 40.9668-51.3672C44.4336-51.8555 48.7305-52.0508 57.7637-52.0508C66.7969-52.0508 71.0938-51.8555 74.5606-51.3672C75.586-51.2207 76.2696-50.5859 76.5137-49.4141C76.9044-47.6562 77.6368-42.4805 77.6368-35.8398L77.6368-28.7598C77.6368-27.0996 77.0508-26.3672 75.6836-26.1719C70.3614-25.3906 63.2325-25.3418 57.7637-25.3418C50.1954-25.3418 43.0176-25.7324 39.8438-26.1719ZM43.1153-9.66797C40.2833-9.66797 38.2325-11.7188 38.2325-14.5996C38.2325-17.4316 40.2833-19.4824 43.1153-19.4824C45.9961-19.4824 48.0469-17.4316 48.0469-14.5996C48.0469-11.7188 45.8985-9.66797 43.1153-9.66797ZM72.3145-9.66797C69.4825-9.66797 67.4317-11.7188 67.4317-14.5996C67.4317-17.4316 69.4825-19.4824 72.3145-19.4824C75.1954-19.4824 77.2461-17.4316 77.2461-14.5996C77.2461-11.7188 75.0977-9.66797 72.3145-9.66797ZM45.3614 1.61133L48.2422-3.02734L67.4317-3.02734L70.3126 1.61133L45.3614 1.61133Z"/>
  </g>
  <g id="Regular-S" transform="matrix(1 0 0 1 1392.08 696)">
   <path d="M12.4512 12.793C12.4512 14.7949 14.1114 16.4551 16.1133 16.4551C18.1153 16.4551 19.7754 14.7949 19.7754 12.793L19.7754-47.4609C19.7754-69.3848 32.8126-80.8105 57.7637-80.8105C82.7149-80.8105 95.752-69.3848 95.752-47.4609L95.752 12.793C95.752 14.7949 97.4122 16.4551 99.4141 16.4551C101.416 16.4551 103.077 14.7949 103.077 12.793L103.077-47.4609C103.077-74.1699 87.5489-88.1348 57.7637-88.1348C27.9786-88.1348 12.4512-74.1699 12.4512-47.4609L12.4512 12.793ZM35.8399 11.5234L37.793 11.5234C38.8184 11.5234 39.4532 11.1328 40.0879 10.1562L41.7969 7.37305L73.877 7.37305L75.586 10.1562C76.1719 11.1328 76.9044 11.5234 77.9297 11.5234L79.834 11.5234C81.6407 11.5234 82.6172 9.61914 81.6407 8.05664L74.8047-3.02734L76.0743-3.02734C81.2989-3.02734 84.8633-6.78711 84.8633-12.4023L84.8633-35.8398C84.8633-43.7012 83.9356-51.4648 82.7149-56.7871C81.2501-63.0859 77.002-67.1875 71.1915-67.8711C69.5801-68.0664 64.2579-68.5059 57.7637-68.5059C51.2696-68.5059 45.9473-68.0664 44.336-67.8711C38.5254-67.1875 34.2774-63.0859 32.8126-56.7871C31.5918-51.4648 30.6641-43.7012 30.6641-35.8398L30.6641-12.4023C30.6641-6.78711 34.2286-3.02734 39.4532-3.02734L40.8692-3.02734L34.0333 8.05664C33.0079 9.66797 33.9844 11.5234 35.8399 11.5234ZM50.0977-57.5684C48.5352-57.5684 47.5098-58.5938 47.5098-60.1562C47.5098-61.7188 48.5352-62.6953 50.0977-62.6953L65.4297-62.6953C66.9922-62.6953 68.0176-61.7188 68.0176-60.1562C68.0176-58.5938 66.9922-57.5684 65.4297-57.5684L50.0977-57.5684ZM39.8438-26.1719C38.4766-26.3672 37.8907-27.1484 37.8907-28.7598L37.8907-35.8398C37.8907-42.4805 38.6231-47.6562 39.0137-49.4141C39.2579-50.5859 39.9415-51.2207 40.9668-51.3672C44.4336-51.8555 48.7305-52.0508 57.7637-52.0508C66.7969-52.0508 71.0938-51.8555 74.5606-51.3672C75.586-51.2207 76.2696-50.5859 76.5137-49.4141C76.9044-47.6562 77.6368-42.4805 77.6368-35.8398L77.6368-28.7598C77.6368-27.0996 77.0508-26.3672 75.6836-26.1719C70.3614-25.3906 63.2325-25.3418 57.7637-25.3418C50.1954-25.3418 43.0176-25.7324 39.8438-26.1719ZM43.1153-9.66797C40.2833-9.66797 38.2325-11.7188 38.2325-14.5996C38.2325-17.4316 40.2833-19.4824 43.1153-19.4824C45.9961-19.4824 48.0469-17.4316 48.0469-14.5996C48.0469-11.7188 45.8985-9.66797 43.1153-9.66797ZM72.3145-9.66797C69.4825-9.66797 67.4317-11.7188 67.4317-14.5996C67.4317-17.4316 69.4825-19.4824 72.3145-19.4824C75.1954-19.4824 77.2461-17.4316 77.2461-14.5996C77.2461-11.7188 75.0977-9.66797 72.3145-9.66797ZM45.3614 1.61133L48.2422-3.02734L67.4317-3.02734L70.3126 1.61133L45.3614 1.61133Z"/>
  </g>
  <g id="Light-S" transform="matrix(1 0 0 1 1095.37 696)">
   <path d="M12.4512 12.793C12.4512 14.7949 14.1114 16.4551 16.1133 16.4551C18.1153 16.4551 19.7754 14.7949 19.7754 12.793L19.7754-47.4609C19.7754-69.3848 32.8126-80.8105 57.7637-80.8105C82.7149-80.8105 95.752-69.3848 95.752-47.4609L95.752 12.793C95.752 14.7949 97.4122 16.4551 99.4141 16.4551C101.416 16.4551 103.077 14.7949 103.077 12.793L103.077-47.4609C103.077-74.1699 87.5489-88.1348 57.7637-88.1348C27.9786-88.1348 12.4512-74.1699 12.4512-47.4609L12.4512 12.793ZM35.8399 11.5234L37.793 11.5234C38.8184 11.5234 39.4532 11.1328 40.0879 10.1562L41.7969 7.37305L73.877 7.37305L75.586 10.1562C76.1719 11.1328 76.9044 11.5234 77.9297 11.5234L79.834 11.5234C81.6407 11.5234 82.6172 9.61914 81.6407 8.05664L74.8047-3.02734L76.0743-3.02734C81.2989-3.02734 84.8633-6.78711 84.8633-12.4023L84.8633-35.8398C84.8633-43.7012 83.9356-51.4648 82.7149-56.7871C81.2501-63.0859 77.002-67.1875 71.1915-67.8711C69.5801-68.0664 64.2579-68.5059 57.7637-68.5059C51.2696-68.5059 45.9473-68.0664 44.336-67.8711C38.5254-67.1875 34.2774-63.0859 32.8126-56.7871C31.5918-51.4648 30.6641-43.7012 30.6641-35.8398L30.6641-12.4023C30.6641-6.78711 34.2286-3.02734 39.4532-3.02734L40.8692-3.02734L34.0333 8.05664C33.0079 9.66797 33.9844 11.5234 35.8399 11.5234ZM50.0977-57.5684C48.5352-57.5684 47.5098-58.5938 47.5098-60.1562C47.5098-61.7188 48.5352-62.6953 50.0977-62.6953L65.4297-62.6953C66.9922-62.6953 68.0176-61.7188 68.0176-60.1562C68.0176-58.5938 66.9922-57.5684 65.4297-57.5684L50.0977-57.5684ZM39.8438-26.1719C38.4766-26.3672 37.8907-27.1484 37.8907-28.7598L37.8907-35.8398C37.8907-42.4805 38.6231-47.6562 39.0137-49.4141C39.2579-50.5859 39.9415-51.2207 40.9668-51.3672C44.4336-51.8555 48.7305-52.0508 57.7637-52.0508C66.7969-52.0508 71.0938-51.8555 74.5606-51.3672C75.586-51.2207 76.2696-50.5859 76.5137-49.4141C76.9044-47.6562 77.6368-42.4805 77.6368-35.8398L77.6368-28.7598C77.6368-27.0996 77.0508-26.3672 75.6836-26.1719C70.3614-25.3906 63.2325-25.3418 57.7637-25.3418C50.1954-25.3418 43.0176-25.7324 39.8438-26.1719ZM43.1153-9.66797C40.2833-9.66797 38.2325-11.7188 38.2325-14.5996C38.2325-17.4316 40.2833-19.4824 43.1153-19.4824C45.9961-19.4824 48.0469-17.4316 48.0469-14.5996C48.0469-11.7188 45.8985-9.66797 43.1153-9.66797ZM72.3145-9.66797C69.4825-9.66797 67.4317-11.7188 67.4317-14.5996C67.4317-17.4316 69.4825-19.4824 72.3145-19.4824C75.1954-19.4824 77.2461-17.4316 77.2461-14.5996C77.2461-11.7188 75.0977-9.66797 72.3145-9.66797ZM45.3614 1.61133L48.2422-3.02734L67.4317-3.02734L70.3126 1.61133L45.3614 1.61133Z"/>
  </g>
  <g id="Thin-S" transform="matrix(1 0 0 1 798.661 696)">
   <path d="M12.4512 12.793C12.4512 14.7949 14.1114 16.4551 16.1133 16.4551C18.1153 16.4551 19.7754 14.7949 19.7754 12.793L19.7754-47.4609C19.7754-69.3848 32.8126-80.8105 57.7637-80.8105C82.7149-80.8105 95.752-69.3848 95.752-47.4609L95.752 12.793C95.752 14.7949 97.4122 16.4551 99.4141 16.4551C101.416 16.4551 103.077 14.7949 103.077 12.793L103.077-47.4609C103.077-74.1699 87.5489-88.1348 57.7637-88.1348C27.9786-88.1348 12.4512-74.1699 12.4512-47.4609L12.4512 12.793ZM35.8399 11.5234L37.793 11.5234C38.8184 11.5234 39.4532 11.1328 40.0879 10.1562L41.7969 7.37305L73.877 7.37305L75.586 10.1562C76.1719 11.1328 76.9044 11.5234 77.9297 11.5234L79.834 11.5234C81.6407 11.5234 82.6172 9.61914 81.6407 8.05664L74.8047-3.02734L76.0743-3.02734C81.2989-3.02734 84.8633-6.78711 84.8633-12.4023L84.8633-35.8398C84.8633-43.7012 83.9356-51.4648 82.7149-56.7871C81.2501-63.0859 77.002-67.1875 71.1915-67.8711C69.5801-68.0664 64.2579-68.5059 57.7637-68.5059C51.2696-68.5059 45.9473-68.0664 44.336-67.8711C38.5254-67.1875 34.2774-63.0859 32.8126-56.7871C31.5918-51.4648 30.6641-43.7012 30.6641-35.8398L30.6641-12.4023C30.6641-6.78711 34.2286-3.02734 39.4532-3.02734L40.8692-3.02734L34.0333 8.05664C33.0079 9.66797 33.9844 11.5234 35.8399 11.5234ZM50.0977-57.5684C48.5352-57.5684 47.5098-58.5938 47.5098-60.1562C47.5098-61.7188 48.5352-62.6953 50.0977-62.6953L65.4297-62.6953C66.9922-62.6953 68.0176-61.7188 68.0176-60.1562C68.0176-58.5938 66.9922-57.5684 65.4297-57.5684L50.0977-57.5684ZM39.8438-26.1719C38.4766-26.3672 37.8907-27.1484 37.8907-28.7598L37.8907-35.8398C37.8907-42.4805 38.6231-47.6562 39.0137-49.4141C39.2579-50.5859 39.9415-51.2207 40.9668-51.3672C44.4336-51.8555 48.7305-52.0508 57.7637-52.0508C66.7969-52.0508 71.0938-51.8555 74.5606-51.3672C75.586-51.2207 76.2696-50.5859 76.5137-49.4141C76.9044-47.6562 77.6368-42.4805 77.6368-35.8398L77.6368-28.7598C77.6368-27.0996 77.0508-26.3672 75.6836-26.1719C70.3614-25.3906 63.2325-25.3418 57.7637-25.3418C50.1954-25.3418 43.0176-25.7324 39.8438-26.1719ZM43.1153-9.66797C40.2833-9.66797 38.2325-11.7188 38.2325-14.5996C38.2325-17.4316 40.2833-19.4824 43.1153-19.4824C45.9961-19.4824 48.0469-17.4316 48.0469-14.5996C48.0469-11.7188 45.8985-9.66797 43.1153-9.66797ZM72.3145-9.66797C69.4825-9.66797 67.4317-11.7188 67.4317-14.5996C67.4317-17.4316 69.4825-19.4824 72.3145-19.4824C75.1954-19.4824 77.2461-17.4316 77.2461-14.5996C77.2461-11.7188 75.0977-9.66797 72.3145-9.66797ZM45.3614 1.61133L48.2422-3.02734L67.4317-3.02734L70.3126 1.61133L45.3614 1.61133Z"/>
  </g>
  <g id="Ultralight-S" transform="matrix(1 0 0 1 501.95 696)">
   <path d="M12.4512 12.793C12.4512 14.7949 14.1114 16.4551 16.1133 16.4551C18.1153 16.4551 19.7754 14.7949 19.7754 12.793L19.7754-47.4609C19.7754-69.3848 32.8126-80.8105 57.7637-80.8105C82.7149-80.8105 95.752-69.3848 95.752-47.4609L95.752 12.793C95.752 14.7949 97.4122 16.4551 99.4141 16.4551C101.416 16.4551 103.077 14.7949 103.077 12.793L103.077-47.4609C103.077-74.1699 87.5489-88.1348 57.7637-88.1348C27.9786-88.1348 12.4512-74.1699 12.4512-47.4609L12.4512 12.793ZM35.8399 11.5234L37.793 11.5234C38.8184 11.5234 39.4532 11.1328 40.0879 10.1562L41.7969 7.37305L73.877 7.37305L75.586 10.1562C76.1719 11.1328 76.9044 11.5234 77.9297 11.5234L79.834 11.5234C81.6407 11.5234 82.6172 9.61914 81.6407 8.05664L74.8047-3.02734L76.0743-3.02734C81.2989-3.02734 84.8633-6.78711 84.8633-12.4023L84.8633-35.8398C84.8633-43.7012 83.9356-51.4648 82.7149-56.7871C81.2501-63.0859 77.002-67.1875 71.1915-67.8711C69.5801-68.0664 64.2579-68.5059 57.7637-68.5059C51.2696-68.5059 45.9473-68.0664 44.336-67.8711C38.5254-67.1875 34.2774-63.0859 32.8126-56.7871C31.5918-51.4648 30.6641-43.7012 30.6641-35.8398L30.6641-12.4023C30.6641-6.78711 34.2286-3.02734 39.4532-3.02734L40.8692-3.02734L34.0333 8.05664C33.0079 9.66797 33.9844 11.5234 35.8399 11.5234ZM50.0977-57.5684C48.5352-57.5684 47.5098-58.5938 47.5098-60.1562C47.5098-61.7188 48.5352-62.6953 50.0977-62.6953L65.4297-62.6953C66.9922-62.6953 68.0176-61.7188 68.0176-60.1562C68.0176-58.5938 66.9922-57.5684 65.4297-57.5684L50.0977-57.5684ZM39.8438-26.1719C38.4766-26.3672 37.8907-27.1484 37.8907-28.7598L37.8907-35.8398C37.8907-42.4805 38.6231-47.6562 39.0137-49.4141C39.2579-50.5859 39.9415-51.2207 40.9668-51.3672C44.4336-51.8555 48.7305-52.0508 57.7637-52.0508C66.7969-52.0508 71.0938-51.8555 74.5606-51.3672C75.586-51.2207 76.2696-50.5859 76.5137-49.4141C76.9044-47.6562 77.6368-42.4805 77.6368-35.8398L77.6368-28.7598C77.6368-27.0996 77.0508-26.3672 75.6836-26.1719C70.3614-25.3906 63.2325-25.3418 57.7637-25.3418C50.1954-25.3418 43.0176-25.7324 39.8438-26.1719ZM43.1153-9.66797C40.2833-9.66797 38.2325-11.7188 38.2325-14.5996C38.2325-17.4316 40.2833-19.4824 43.1153-19.4824C45.9961-19.4824 48.0469-17.4316 48.0469-14.5996C48.0469-11.7188 45.8985-9.66797 43.1153-9.66797ZM72.3145-9.66797C69.4825-9.66797 67.4317-11.7188 67.4317-14.5996C67.4317-17.4316 69.4825-19.4824 72.3145-19.4824C75.1954-19.4824 77.2461-17.4316 77.2461-14.5996C77.2461-11.7188 75.0977-9.66797 72.3145-9.66797ZM45.3614 1.61133L48.2422-3.02734L67.4317-3.02734L70.3126 1.61133L45.3614 1.61133Z"/>
  </g>
 </g>
</svg>
