<?xml version="1.0" encoding="UTF-8"?>
<!--Generator: Apple Native CoreSVG 175.5-->
<!DOCTYPE svg
PUBLIC "-//W3C//DTD SVG 1.1//EN"
       "http://www.w3.org/Graphics/SVG/1.1/DTD/svg11.dtd">
<svg version="1.1" xmlns="http://www.w3.org/2000/svg" xmlns:xlink="http://www.w3.org/1999/xlink" width="3300" height="2200">
 <!--glyph: "uni101527.medium", point size: 100.0, font version: "18.0d9e1", template writer version: "84"-->
 <g id="Notes">
  <rect height="2200" id="artboard" style="fill:white;opacity:1" width="3300" x="0" y="0"/>
  <line style="fill:none;stroke:black;opacity:1;stroke-width:0.5;" x1="263" x2="3036" y1="292" y2="292"/>
  <text style="stroke:none;fill:black;font-family:sans-serif;font-size:13;font-weight:bold;" transform="matrix(1 0 0 1 263 322)">Weight/Scale Variations</text>
  <text style="stroke:none;fill:black;font-family:sans-serif;font-size:13;text-anchor:middle;" transform="matrix(1 0 0 1 559.711 322)">Ultralight</text>
  <text style="stroke:none;fill:black;font-family:sans-serif;font-size:13;text-anchor:middle;" transform="matrix(1 0 0 1 856.422 322)">Thin</text>
  <text style="stroke:none;fill:black;font-family:sans-serif;font-size:13;text-anchor:middle;" transform="matrix(1 0 0 1 1153.13 322)">Light</text>
  <text style="stroke:none;fill:black;font-family:sans-serif;font-size:13;text-anchor:middle;" transform="matrix(1 0 0 1 1449.84 322)">Regular</text>
  <text style="stroke:none;fill:black;font-family:sans-serif;font-size:13;text-anchor:middle;" transform="matrix(1 0 0 1 1746.56 322)">Medium</text>
  <text style="stroke:none;fill:black;font-family:sans-serif;font-size:13;text-anchor:middle;" transform="matrix(1 0 0 1 2043.27 322)">Semibold</text>
  <text style="stroke:none;fill:black;font-family:sans-serif;font-size:13;text-anchor:middle;" transform="matrix(1 0 0 1 2339.98 322)">Bold</text>
  <text style="stroke:none;fill:black;font-family:sans-serif;font-size:13;text-anchor:middle;" transform="matrix(1 0 0 1 2636.69 322)">Heavy</text>
  <text style="stroke:none;fill:black;font-family:sans-serif;font-size:13;text-anchor:middle;" transform="matrix(1 0 0 1 2933.4 322)">Black</text>
  <line style="fill:none;stroke:black;opacity:1;stroke-width:0.5;" x1="263" x2="3036" y1="1903" y2="1903"/>
  <g transform="matrix(1 0 0 1 263 1933)">
   <path d="M9.24805 0.830078Q10.8691 0.830078 12.2949 0.214844Q13.7207-0.400391 14.8096-1.49414Q15.8984-2.58789 16.5186-4.01367Q17.1387-5.43945 17.1387-7.05078Q17.1387-8.66211 16.5186-10.0879Q15.8984-11.5137 14.8047-12.6074Q13.7109-13.7012 12.2852-14.3164Q10.8594-14.9316 9.23828-14.9316Q7.62695-14.9316 6.20117-14.3164Q4.77539-13.7012 3.69141-12.6074Q2.60742-11.5137 1.9873-10.0879Q1.36719-8.66211 1.36719-7.05078Q1.36719-5.43945 1.9873-4.01367Q2.60742-2.58789 3.69629-1.49414Q4.78516-0.400391 6.21094 0.214844Q7.63672 0.830078 9.24805 0.830078ZM9.24805-0.654297Q7.91992-0.654297 6.7627-1.14746Q5.60547-1.64062 4.73145-2.51953Q3.85742-3.39844 3.36426-4.56055Q2.87109-5.72266 2.87109-7.05078Q2.87109-8.37891 3.35938-9.54102Q3.84766-10.7031 4.72168-11.582Q5.5957-12.4609 6.75293-12.9541Q7.91016-13.4473 9.23828-13.4473Q10.5762-13.4473 11.7383-12.9541Q12.9004-12.4609 13.7793-11.582Q14.6582-10.7031 15.1514-9.54102Q15.6445-8.37891 15.6445-7.05078Q15.6445-5.72266 15.1514-4.56055Q14.6582-3.39844 13.7793-2.51953Q12.9004-1.64062 11.7432-1.14746Q10.5859-0.654297 9.24805-0.654297ZM5.6543-7.05078Q5.6543-6.72852 5.85938-6.52832Q6.06445-6.32812 6.40625-6.32812L8.51562-6.32812L8.51562-4.20898Q8.51562-3.88672 8.71094-3.67676Q8.90625-3.4668 9.23828-3.4668Q9.56055-3.4668 9.77051-3.67676Q9.98047-3.88672 9.98047-4.20898L9.98047-6.32812L12.0898-6.32812Q12.4219-6.32812 12.627-6.52832Q12.832-6.72852 12.832-7.05078Q12.832-7.38281 12.627-7.58789Q12.4219-7.79297 12.0898-7.79297L9.98047-7.79297L9.98047-9.90234Q9.98047-10.2344 9.77051-10.4443Q9.56055-10.6543 9.23828-10.6543Q8.90625-10.6543 8.71094-10.4443Q8.51562-10.2344 8.51562-9.90234L8.51562-7.79297L6.40625-7.79297Q6.06445-7.79297 5.85938-7.58789Q5.6543-7.38281 5.6543-7.05078Z"/>
  </g>
  <g transform="matrix(1 0 0 1 281.867 1933)">
   <path d="M11.709 2.91016Q13.75 2.91016 15.5518 2.12891Q17.3535 1.34766 18.7305-0.0292969Q20.1074-1.40625 20.8887-3.20801Q21.6699-5.00977 21.6699-7.05078Q21.6699-9.0918 20.8887-10.8936Q20.1074-12.6953 18.7305-14.0723Q17.3535-15.4492 15.5469-16.2305Q13.7402-17.0117 11.6992-17.0117Q9.6582-17.0117 7.85645-16.2305Q6.05469-15.4492 4.68262-14.0723Q3.31055-12.6953 2.5293-10.8936Q1.74805-9.0918 1.74805-7.05078Q1.74805-5.00977 2.5293-3.20801Q3.31055-1.40625 4.6875-0.0292969Q6.06445 1.34766 7.86621 2.12891Q9.66797 2.91016 11.709 2.91016ZM11.709 1.25Q9.98047 1.25 8.47656 0.605469Q6.97266-0.0390625 5.83496-1.17676Q4.69727-2.31445 4.05762-3.81836Q3.41797-5.32227 3.41797-7.05078Q3.41797-8.7793 4.05762-10.2832Q4.69727-11.7871 5.83008-12.9297Q6.96289-14.0723 8.4668-14.7119Q9.9707-15.3516 11.6992-15.3516Q13.4277-15.3516 14.9365-14.7119Q16.4453-14.0723 17.583-12.9297Q18.7207-11.7871 19.3652-10.2832Q20.0098-8.7793 20.0098-7.05078Q20.0098-5.32227 19.3701-3.81836Q18.7305-2.31445 17.5879-1.17676Q16.4453-0.0390625 14.9414 0.605469Q13.4375 1.25 11.709 1.25ZM7.17773-7.05078Q7.17773-6.69922 7.41211-6.47461Q7.64648-6.25 8.01758-6.25L10.8887-6.25L10.8887-3.36914Q10.8887-2.99805 11.1133-2.76855Q11.3379-2.53906 11.6895-2.53906Q12.0605-2.53906 12.29-2.76855Q12.5195-2.99805 12.5195-3.36914L12.5195-6.25L15.4004-6.25Q15.7715-6.25 16.001-6.47461Q16.2305-6.69922 16.2305-7.05078Q16.2305-7.42188 16.001-7.65137Q15.7715-7.88086 15.4004-7.88086L12.5195-7.88086L12.5195-10.752Q12.5195-11.1328 12.29-11.3623Q12.0605-11.5918 11.6895-11.5918Q11.3379-11.5918 11.1133-11.3574Q10.8887-11.123 10.8887-10.752L10.8887-7.88086L8.01758-7.88086Q7.63672-7.88086 7.40723-7.65137Q7.17773-7.42188 7.17773-7.05078Z"/>
  </g>
  <g transform="matrix(1 0 0 1 305.646 1933)">
   <path d="M14.9707 5.66406Q17.0605 5.66406 18.96 5.01465Q20.8594 4.36523 22.4512 3.19336Q24.043 2.02148 25.2197 0.429688Q26.3965-1.16211 27.0459-3.06641Q27.6953-4.9707 27.6953-7.05078Q27.6953-9.14062 27.0459-11.04Q26.3965-12.9395 25.2197-14.5312Q24.043-16.123 22.4512-17.2998Q20.8594-18.4766 18.9551-19.126Q17.0508-19.7754 14.9609-19.7754Q12.8711-19.7754 10.9717-19.126Q9.07227-18.4766 7.48535-17.2998Q5.89844-16.123 4.72168-14.5312Q3.54492-12.9395 2.90039-11.04Q2.25586-9.14062 2.25586-7.05078Q2.25586-4.9707 2.90527-3.06641Q3.55469-1.16211 4.72656 0.429688Q5.89844 2.02148 7.49023 3.19336Q9.08203 4.36523 10.9814 5.01465Q12.8809 5.66406 14.9707 5.66406ZM14.9707 3.84766Q13.1641 3.84766 11.5283 3.2959Q9.89258 2.74414 8.53516 1.74805Q7.17773 0.751953 6.17676-0.610352Q5.17578-1.97266 4.62891-3.6084Q4.08203-5.24414 4.08203-7.05078Q4.08203-8.86719 4.62891-10.5029Q5.17578-12.1387 6.17188-13.501Q7.16797-14.8633 8.52539-15.8594Q9.88281-16.8555 11.5186-17.4023Q13.1543-17.9492 14.9609-17.9492Q16.7773-17.9492 18.4131-17.4023Q20.0488-16.8555 21.4111-15.8594Q22.7734-14.8633 23.7744-13.501Q24.7754-12.1387 25.3223-10.5029Q25.8691-8.86719 25.8691-7.05078Q25.8691-5.24414 25.3223-3.6084Q24.7754-1.97266 23.7793-0.610352Q22.7832 0.751953 21.4209 1.74805Q20.0586 2.74414 18.4229 3.2959Q16.7871 3.84766 14.9707 3.84766ZM9.19922-7.05078Q9.19922-6.66992 9.45801-6.4209Q9.7168-6.17188 10.1172-6.17188L14.0625-6.17188L14.0625-2.2168Q14.0625-1.81641 14.3115-1.55762Q14.5605-1.29883 14.9512-1.29883Q15.3516-1.29883 15.6104-1.55273Q15.8691-1.80664 15.8691-2.2168L15.8691-6.17188L19.8242-6.17188Q20.2246-6.17188 20.4785-6.4209Q20.7324-6.66992 20.7324-7.05078Q20.7324-7.46094 20.4785-7.71484Q20.2246-7.96875 19.8242-7.96875L15.8691-7.96875L15.8691-11.9141Q15.8691-12.3242 15.6104-12.583Q15.3516-12.8418 14.9512-12.8418Q14.5605-12.8418 14.3115-12.583Q14.0625-12.3242 14.0625-11.9141L14.0625-7.96875L10.1172-7.96875Q9.70703-7.96875 9.45312-7.71484Q9.19922-7.46094 9.19922-7.05078Z"/>
  </g>
  <text style="stroke:none;fill:black;font-family:sans-serif;font-size:13;font-weight:bold;" transform="matrix(1 0 0 1 263 1953)">Design Variations</text>
  <text style="stroke:none;fill:black;font-family:sans-serif;font-size:13;" transform="matrix(1 0 0 1 263 1971)">Symbols are supported in up to nine weights and three scales.</text>
  <text style="stroke:none;fill:black;font-family:sans-serif;font-size:13;" transform="matrix(1 0 0 1 263 1989)">For optimal layout with text and other symbols, vertically align</text>
  <text style="stroke:none;fill:black;font-family:sans-serif;font-size:13;" transform="matrix(1 0 0 1 263 2007)">symbols with the adjacent text.</text>
  <line style="fill:none;stroke:#00AEEF;stroke-width:0.5;opacity:1.0;" x1="776" x2="776" y1="1919" y2="1933"/>
  <g transform="matrix(1 0 0 1 776 1933)">
   <path d="M3.31055 0.15625Q3.70117 0.15625 3.91602-0.00976562Q4.13086-0.175781 4.26758-0.585938L5.52734-4.0332L11.2891-4.0332L12.5488-0.585938Q12.6855-0.175781 12.9004-0.00976562Q13.1152 0.15625 13.4961 0.15625Q13.8867 0.15625 14.1162-0.0585938Q14.3457-0.273438 14.3457-0.644531Q14.3457-0.869141 14.2383-1.17188L9.6582-13.3691Q9.48242-13.8184 9.17969-14.043Q8.87695-14.2676 8.4082-14.2676Q7.5-14.2676 7.17773-13.3789L2.59766-1.16211Q2.49023-0.859375 2.49023-0.634766Q2.49023-0.263672 2.70996-0.0537109Q2.92969 0.15625 3.31055 0.15625ZM6.00586-5.51758L8.37891-12.0898L8.42773-12.0898L10.8008-5.51758Z"/>
  </g>
  <line style="fill:none;stroke:#00AEEF;stroke-width:0.5;opacity:1.0;" x1="793.197" x2="793.197" y1="1919" y2="1933"/>
  <text style="stroke:none;fill:black;font-family:sans-serif;font-size:13;font-weight:bold;" transform="matrix(1 0 0 1 776 1953)">Margins</text>
  <text style="stroke:none;fill:black;font-family:sans-serif;font-size:13;" transform="matrix(1 0 0 1 776 1971)">Leading and trailing margins on the left and right side of each symbol</text>
  <text style="stroke:none;fill:black;font-family:sans-serif;font-size:13;" transform="matrix(1 0 0 1 776 1989)">can be adjusted by modifying the x-location of the margin guidelines.</text>
  <text style="stroke:none;fill:black;font-family:sans-serif;font-size:13;" transform="matrix(1 0 0 1 776 2007)">Modifications are automatically applied proportionally to all</text>
  <text style="stroke:none;fill:black;font-family:sans-serif;font-size:13;" transform="matrix(1 0 0 1 776 2025)">scales and weights.</text>
  <g transform="matrix(1 0 0 1 1289 1933)">
   <path d="M2.8418 1.86523L4.54102 3.57422Q5.18555 4.22852 5.90332 4.17969Q6.62109 4.13086 7.31445 3.35938L18.0078-8.42773L17.041-9.4043L6.42578 2.27539Q6.16211 2.57812 5.89355 2.61719Q5.625 2.65625 5.27344 2.30469L4.10156 1.14258Q3.75 0.791016 3.79395 0.522461Q3.83789 0.253906 4.14062-0.0195312L15.6152-10.8203L14.6387-11.7871L3.04688-0.898438Q2.30469-0.214844 2.25098 0.498047Q2.19727 1.21094 2.8418 1.86523ZM9.25781-16.3281Q8.94531-16.0254 8.90625-15.6348Q8.86719-15.2441 9.04297-14.9512Q9.21875-14.6777 9.55566-14.541Q9.89258-14.4043 10.3809-14.5215Q11.4746-14.7754 12.5977-14.7314Q13.7207-14.6875 14.7949-13.9844L14.209-12.5293Q13.9551-11.9043 14.0674-11.4404Q14.1797-10.9766 14.5801-10.5664L16.875-8.25195Q17.2363-7.88086 17.5781-7.82227Q17.9199-7.76367 18.3398-7.8418L19.4043-8.03711L20.0684-7.36328L20.0293-6.80664Q20-6.43555 20.1221-6.12305Q20.2441-5.81055 20.6055-5.44922L21.3672-4.70703Q21.7285-4.3457 22.1533-4.33105Q22.5781-4.31641 22.9297-4.66797L25.8398-7.58789Q26.1914-7.93945 26.1816-8.35449Q26.1719-8.76953 25.8105-9.13086L25.0391-9.89258Q24.6875-10.2539 24.3799-10.3857Q24.0723-10.5176 23.7109-10.4883L23.1348-10.4395L22.4902-11.0742L22.7344-12.1973Q22.832-12.6172 22.6953-12.9834Q22.5586-13.3496 22.1191-13.7891L19.9219-15.9766Q18.6719-17.2168 17.2607-17.8369Q15.8496-18.457 14.4189-18.4814Q12.9883-18.5059 11.665-17.959Q10.3418-17.4121 9.25781-16.3281ZM10.752-15.957Q11.6602-16.6211 12.7002-16.9043Q13.7402-17.1875 14.8047-17.085Q15.8691-16.9824 16.8701-16.5137Q17.8711-16.0449 18.7012-15.2051L21.1328-12.793Q21.3086-12.6172 21.3525-12.4512Q21.3965-12.2852 21.3379-12.0312L21.0156-10.5469L22.5195-9.0625L23.5059-9.12109Q23.6914-9.13086 23.7891-9.09668Q23.8867-9.0625 24.0332-8.91602L24.6094-8.33984L22.168-5.89844L21.5918-6.47461Q21.4453-6.62109 21.4062-6.71875Q21.3672-6.81641 21.377-7.01172L21.4453-7.98828L19.9512-9.47266L18.4277-9.21875Q18.1836-9.16992 18.042-9.2041Q17.9004-9.23828 17.7148-9.41406L15.7129-11.416Q15.5176-11.5918 15.4932-11.7529Q15.4688-11.9141 15.5859-12.1875L16.4648-14.2773Q15.293-15.3711 13.8281-15.791Q12.3633-16.2109 10.8398-15.7617Q10.7227-15.7324 10.6885-15.8057Q10.6543-15.8789 10.752-15.957Z"/>
  </g>
  <text style="stroke:none;fill:black;font-family:sans-serif;font-size:13;font-weight:bold;" transform="matrix(1 0 0 1 1289 1953)">Exporting</text>
  <text style="stroke:none;fill:black;font-family:sans-serif;font-size:13;" transform="matrix(1 0 0 1 1289 1971)">Symbols should be outlined when exporting to ensure the</text>
  <text style="stroke:none;fill:black;font-family:sans-serif;font-size:13;" transform="matrix(1 0 0 1 1289 1989)">design is preserved when submitting to Xcode.</text>
  <text id="template-version" style="stroke:none;fill:black;font-family:sans-serif;font-size:13;text-anchor:end;" transform="matrix(1 0 0 1 3036 1933)">Template v.2.0</text>
  <text style="stroke:none;fill:black;font-family:sans-serif;font-size:13;text-anchor:end;" transform="matrix(1 0 0 1 3036 1951)">Requires Xcode 12 or greater</text>
  <text id="descriptive-name" style="stroke:none;fill:black;font-family:sans-serif;font-size:13;text-anchor:end;" transform="matrix(1 0 0 1 3036 1969)">Generated from figure.fishing</text>
  <text style="stroke:none;fill:black;font-family:sans-serif;font-size:13;text-anchor:end;" transform="matrix(1 0 0 1 3036 1987)">Typeset at 100 points</text>
  <text style="stroke:none;fill:black;font-family:sans-serif;font-size:13;" transform="matrix(1 0 0 1 263 726)">Small</text>
  <text style="stroke:none;fill:black;font-family:sans-serif;font-size:13;" transform="matrix(1 0 0 1 263 1156)">Medium</text>
  <text style="stroke:none;fill:black;font-family:sans-serif;font-size:13;" transform="matrix(1 0 0 1 263 1586)">Large</text>
 </g>
 <g id="Guides">
  <g id="H-reference" style="fill:#27AAE1;stroke:none;" transform="matrix(1 0 0 1 339 696)">
   <path d="M0.993347 0L3.6377 0L29.3282-67.1326L30.0301-67.1326L30.0301-70.459L28.1227-70.459ZM11.6882-24.4797L46.9818-24.4797L46.2311-26.7288L12.4382-26.7288ZM55.1193 0L57.7637 0L30.6381-70.459L29.4327-70.459L29.4327-67.1326Z"/>
  </g>
  <line id="Baseline-S" style="fill:none;stroke:#27AAE1;opacity:1;stroke-width:0.5;" x1="263" x2="3036" y1="696" y2="696"/>
  <line id="Capline-S" style="fill:none;stroke:#27AAE1;opacity:1;stroke-width:0.5;" x1="263" x2="3036" y1="625.541" y2="625.541"/>
  <g id="H-reference" style="fill:#27AAE1;stroke:none;" transform="matrix(1 0 0 1 339 1126)">
   <path d="M0.993347 0L3.6377 0L29.3282-67.1326L30.0301-67.1326L30.0301-70.459L28.1227-70.459ZM11.6882-24.4797L46.9818-24.4797L46.2311-26.7288L12.4382-26.7288ZM55.1193 0L57.7637 0L30.6381-70.459L29.4327-70.459L29.4327-67.1326Z"/>
  </g>
  <line id="Baseline-M" style="fill:none;stroke:#27AAE1;opacity:1;stroke-width:0.5;" x1="263" x2="3036" y1="1126" y2="1126"/>
  <line id="Capline-M" style="fill:none;stroke:#27AAE1;opacity:1;stroke-width:0.5;" x1="263" x2="3036" y1="1055.54" y2="1055.54"/>
  <g id="H-reference" style="fill:#27AAE1;stroke:none;" transform="matrix(1 0 0 1 339 1556)">
   <path d="M0.993347 0L3.6377 0L29.3282-67.1326L30.0301-67.1326L30.0301-70.459L28.1227-70.459ZM11.6882-24.4797L46.9818-24.4797L46.2311-26.7288L12.4382-26.7288ZM55.1193 0L57.7637 0L30.6381-70.459L29.4327-70.459L29.4327-67.1326Z"/>
  </g>
  <line id="Baseline-L" style="fill:none;stroke:#27AAE1;opacity:1;stroke-width:0.5;" x1="263" x2="3036" y1="1556" y2="1556"/>
  <line id="Capline-L" style="fill:none;stroke:#27AAE1;opacity:1;stroke-width:0.5;" x1="263" x2="3036" y1="1485.54" y2="1485.54"/>
  <line id="left-margin" style="fill:none;stroke:#00AEEF;stroke-width:0.5;opacity:1.0;" x1="1378.09" x2="1378.09" y1="1030.79" y2="1150.12"/>
  <line id="right-margin" style="fill:none;stroke:#00AEEF;stroke-width:0.5;opacity:1.0;" x1="1521.6" x2="1521.6" y1="1030.79" y2="1150.12"/>
 </g>
 <g id="Symbols">
  <g id="Black-L" transform="matrix(1 0 0 1 2836.43 1556)">
   <path d="M54.0753-75.3137Q60.4996-75.3137 65.0331-79.877Q69.5666-84.4403 69.5666-90.827Q69.5666-97.2501 65.0331-101.774Q60.4996-106.297 54.0753-106.297Q47.7301-106.297 43.157-101.774Q38.5839-97.2501 38.5839-90.827Q38.5839-84.4403 43.157-79.877Q47.7301-75.3137 54.0753-75.3137ZM38.3879 13.8563Q41.7993 12.336 45.5939 10.3303Q49.3886 8.32469 54.1084 6.84313L55.0966-1.03002Q55.177-1.51254 55.67-1.59296Q56.1629-1.67338 56.3833-1.27128L59.7317 5.54115Q61.175 5.33986 62.689 5.19901Q64.2031 5.05817 65.81 5.05817Q69.5499 5.05817 72.5261 5.75088Q75.5022 6.44358 78.0107 7.59298L69.5237-14.6856L69.5237-54.2227Q69.5237-60.1657 65.5118-64.5169Q61.4998-68.8681 54.1557-68.8681L50.9877-68.8681Q46.9571-68.8681 42.2634-67.7765Q37.5697-66.6848 33.2626-62.3998L18.2597-47.4797Q16.0256-45.3028 16.084-42.0982Q16.1424-38.8937 18.2597-36.74L38.3879-16.8531ZM38.972-36.5713L33.4957-42.0696L37.84-46.5152Q38.1889-46.8641 38.5804-46.7001Q38.972-46.536 38.972-46.121ZM28.2624-6.51705L168.151-92.3175Q170.289-93.583 170.764-95.8979Q171.238-98.2128 169.873-100.232Q168.724-102.29 166.439-102.795Q164.155-103.3 162.156-102.072L22.267-16.2336Q20.1902-14.9485 19.6664-12.6336Q19.1427-10.3187 20.429-8.31986Q21.6945-6.3002 23.979-5.79529Q26.2635-5.29037 28.2624-6.51705ZM24.7606 35.8304L32.1512 35.8304Q39.1789 35.8304 43.7296 34.2434Q48.2803 32.6564 51.6371 30.5077Q54.9939 28.359 58.1279 26.7616Q61.2619 25.1642 65.4145 25.1642Q68.9454 25.1642 71.9918 26.7616Q75.0382 28.359 78.5598 30.5077Q82.0814 32.6564 86.8762 34.2434Q91.6709 35.8304 98.6778 35.8304Q105.705 35.8304 110.519 34.2434Q115.333 32.6564 118.835 30.5077Q122.338 28.359 125.414 26.7616Q128.489 25.1642 131.941 25.1642Q136.115 25.1642 139.278 26.7616Q142.441 28.359 145.758 30.5077Q149.075 32.6564 153.666 34.2434Q158.256 35.8304 165.204 35.8304L172.616 35.8304Q174.815 35.8304 176.339 34.3058Q177.864 32.7813 177.864 30.6032Q177.864 28.4251 176.339 26.8999Q174.815 25.3748 172.616 25.3748L165.204 25.3748Q160.891 25.3748 157.636 23.7774Q154.382 22.18 150.996 20.0417Q147.61 17.9033 143.158 16.306Q138.707 14.7086 131.941 14.7086Q125.897 14.7086 121.533 16.306Q117.169 17.9033 113.608 20.0417Q110.047 22.18 106.53 23.7774Q103.012 25.3748 98.6778 25.3748Q94.3643 25.3748 90.8761 23.7774Q87.3879 22.18 83.8266 20.0417Q80.2654 17.9033 75.8723 16.306Q71.4792 14.7086 65.4145 14.7086Q58.7281 14.7086 54.2474 16.306Q49.7667 17.9033 46.4099 20.0417Q43.0531 22.18 39.7692 23.7774Q36.4854 25.3748 32.1512 25.3748L24.7606 25.3748Q22.5617 25.3748 21.0371 26.8999Q19.5125 28.4251 19.5125 30.6032Q19.5125 32.7813 21.0371 34.3058Q22.5617 35.8304 24.7606 35.8304Z"/>
  </g>
  <g id="Heavy-L" transform="matrix(1 0 0 1 2540.82 1556)">
   <path d="M53.334-74.3911Q59.5758-74.3911 63.9838-78.8242Q68.3918-83.2574 68.3918-89.4847Q68.3918-95.7209 63.9838-100.117Q59.5758-104.512 53.334-104.512Q47.167-104.512 42.7216-100.117Q38.2761-95.7209 38.2761-89.4847Q38.2761-83.2574 42.7216-78.8242Q47.167-74.3911 53.334-74.3911ZM38.1121 12.9003Q41.5399 11.4351 45.1603 9.53502Q48.7807 7.63499 53.1791 6.18983L54.1855-2.05851Q54.2659-2.54103 54.7636-2.62145Q55.2612-2.70187 55.4722-2.29977L58.969 4.77757Q60.4232 4.56193 61.9601 4.41394Q63.497 4.26595 65.1524 4.26595Q68.5835 4.26595 71.3124 4.871Q74.0413 5.47605 76.3371 6.49644L68.3258-14.6173L68.3258-53.7081Q68.3258-59.473 64.4349-63.6872Q60.5441-67.9014 53.4144-67.9014L50.2917-67.9014Q46.3201-67.9014 41.7541-66.8348Q37.188-65.7683 32.9719-61.588L18.1544-46.862Q16.0394-44.7861 16.084-41.7279Q16.1286-38.6698 18.1544-36.6352L38.1121-16.9187ZM38.5583-35.9653L32.851-41.7085L37.2284-46.1965Q37.6374-46.6055 38.0979-46.416Q38.5583-46.2266 38.5583-45.7102ZM27.5956-6.85842L165.699-91.5788Q167.632-92.7119 168.063-94.8012Q168.495-96.8906 167.256-98.7283Q166.213-100.58 164.151-101.04Q162.09-101.499 160.282-100.381L22.1789-15.6457Q20.3022-14.4881 19.8355-12.3987Q19.3689-10.3094 20.5322-8.50185Q21.6654-6.66418 23.7268-6.20478Q25.7882-5.74539 27.5956-6.85842ZM24.418 34.0558L31.536 34.0558Q38.3956 34.0558 42.8641 32.4805Q47.3326 30.9051 50.6801 28.7723Q54.0275 26.6396 57.1998 25.0491Q60.3721 23.4586 64.5788 23.4586Q68.3249 23.4586 71.4303 25.0491Q74.5356 26.6396 78.0019 28.7723Q81.4681 30.9051 86.1302 32.4805Q90.7923 34.0558 97.6216 34.0558Q104.481 34.0558 109.15 32.4805Q113.82 30.9051 117.279 28.7723Q120.738 26.6396 123.865 25.0491Q126.993 23.4586 130.664 23.4586Q134.901 23.4586 138.096 25.0491Q141.291 26.6396 144.601 28.7723Q147.911 30.9051 152.417 32.4805Q156.922 34.0558 163.707 34.0558L170.856 34.0558Q172.873 34.0558 174.263 32.6653Q175.654 31.2748 175.654 29.2875Q175.654 27.3002 174.263 25.9069Q172.873 24.5136 170.856 24.5136L163.707 24.5136Q159.34 24.5136 156.047 22.9231Q152.754 21.3326 149.384 19.215Q146.014 17.0973 141.633 15.5068Q137.252 13.9163 130.664 13.9163Q124.642 13.9163 120.328 15.5068Q116.014 17.0973 112.51 19.215Q109.007 21.3326 105.513 22.9231Q102.019 24.5136 97.6216 24.5136Q93.2541 24.5136 89.7826 22.9231Q86.3112 21.3326 82.8076 19.215Q79.304 17.0973 74.9677 15.5068Q70.6315 13.9163 64.5788 13.9163Q58.0657 13.9163 53.6624 15.5068Q49.2592 17.0973 45.9117 19.215Q42.5643 21.3326 39.249 22.9231Q35.9338 24.5136 31.536 24.5136L24.418 24.5136Q22.4006 24.5136 21.01 25.9069Q19.6194 27.3002 19.6194 29.2875Q19.6194 31.2748 21.01 32.6653Q22.4006 34.0558 24.418 34.0558Z"/>
  </g>
  <g id="Bold-L" transform="matrix(1 0 0 1 2245.48 1556)">
   <path d="M52.3897-73.2761Q58.4085-73.2761 62.6628-77.5516Q66.9171-81.827 66.9171-87.8547Q66.9171-93.8604 62.6628-98.1023Q58.4085-102.344 52.3897-102.344Q46.438-102.344 42.1501-98.1023Q37.8621-93.8604 37.8621-87.8547Q37.8621-81.827 42.1501-77.5516Q46.438-73.2761 52.3897-73.2761ZM37.7366 11.8361Q41.1426 10.4326 44.5628 8.65206Q47.983 6.87151 52.0192 5.47242L53.0485-3.28933Q53.1289-3.77185 53.6305-3.85227Q54.1321-3.93269 54.3352-3.53059L58.0462 3.93681Q59.4859 3.7131 61.0163 3.56115Q62.5466 3.4092 64.2187 3.4092Q67.3178 3.4092 69.7915 3.92154Q72.2652 4.43389 74.3445 5.31531L66.8278-14.5998L66.8278-53.0628Q66.8278-58.6124 63.0831-62.6613Q59.3384-66.7102 52.4702-66.7102L49.4087-66.7102Q45.5138-66.7102 41.1054-65.6744Q36.6969-64.6386 32.5959-60.5888L18.0312-46.131Q16.0548-44.1707 16.084-41.2856Q16.1132-38.4006 18.0312-36.5046L37.7366-17.0404ZM38.0287-35.2794L32.0818-41.2777L36.4827-45.7971Q36.9536-46.268 37.4911-46.0515Q38.0287-45.835 38.0287-45.2104ZM26.7882-7.28845L162.455-90.5303Q164.134-91.5019 164.508-93.3108Q164.882-95.1197 163.805-96.727Q162.892-98.3257 161.111-98.7274Q159.33-99.1292 157.76-98.1487L22.0937-14.9158Q20.4702-13.9195 20.0728-12.1106Q19.6754-10.3016 20.6851-8.73219Q21.6569-7.12486 23.4379-6.72308Q25.219-6.3213 26.7882-7.28845ZM23.9357 31.9476L30.7007 31.9476Q37.3453 31.9476 41.7139 30.3839Q46.0825 28.8202 49.4221 26.7066Q52.7618 24.593 55.9877 23.0102Q59.2136 21.4275 63.4968 21.4275Q67.4969 21.4275 70.6789 23.0102Q73.861 24.593 77.2694 26.7066Q80.6777 28.8202 85.182 30.3839Q89.6864 31.9476 96.2928 31.9476Q102.937 31.9476 107.437 30.3839Q111.937 28.8202 115.35 26.7066Q118.763 24.593 121.959 23.0102Q125.156 21.4275 129.089 21.4275Q133.41 21.4275 136.651 23.0102Q139.891 24.593 143.197 26.7066Q146.503 28.8202 150.906 30.3839Q155.308 31.9476 161.885 31.9476L168.688 31.9476Q170.468 31.9476 171.686 30.7298Q172.904 29.512 172.904 27.7703Q172.904 26.0285 171.686 24.8042Q170.468 23.5798 168.688 23.5798L161.885 23.5798Q157.441 23.5798 154.094 21.997Q150.748 20.4142 147.394 18.3197Q144.039 16.2252 139.747 14.6424Q135.454 13.0596 129.089 13.0596Q123.112 13.0596 118.863 14.6424Q114.615 16.2252 111.173 18.3197Q107.731 20.4142 104.253 21.997Q100.775 23.5798 96.2928 23.5798Q91.8488 23.5798 88.3855 21.997Q84.9221 20.4142 81.4803 18.3197Q78.0384 16.2252 73.7751 14.6424Q69.5118 13.0596 63.4968 13.0596Q57.1989 13.0596 52.8916 14.6424Q48.5844 16.2252 45.2448 18.3197Q41.9051 20.4142 38.544 21.997Q35.1829 23.5798 30.7007 23.5798L23.9357 23.5798Q22.1561 23.5798 20.9382 24.8042Q19.7203 26.0285 19.7203 27.7703Q19.7203 29.512 20.9382 30.7298Q22.1561 31.9476 23.9357 31.9476Z"/>
  </g>
  <g id="Semibold-L" transform="matrix(1 0 0 1 1949.72 1556)">
   <path d="M51.7388-72.5074Q57.6038-72.5074 61.7522-76.6742Q65.9005-80.841 65.9005-86.731Q65.9005-92.5777 61.7522-96.7136Q57.6038-100.849 51.7388-100.849Q45.9355-100.849 41.7561-96.7136Q37.5767-92.5777 37.5767-86.731Q37.5767-80.841 41.7561-76.6742Q45.9355-72.5074 51.7388-72.5074ZM37.4778 11.1025Q40.8688 9.74152 44.1509 8.04335Q47.433 6.34518 51.2195 4.97784L52.2647-4.13786Q52.3451-4.62038 52.8494-4.7008Q53.3537-4.78122 53.5514-4.37912L57.41 3.35719Q58.8398 3.12793 60.3656 2.97324Q61.8914 2.81856 63.5751 2.81856Q66.4452 2.81856 68.743 3.26699Q71.0408 3.71542 72.9708 4.50105L65.7951-14.5878L65.7951-52.6179Q65.7951-58.0191 62.1512-61.9541Q58.5073-65.889 51.8192-65.889L48.8-65.889Q44.958-65.889 40.6581-64.8744Q36.3583-63.8598 32.3366-59.9L17.9463-45.627Q16.0654-43.7464 16.084-40.9807Q16.1026-38.2149 17.9463-36.4145L37.4778-17.1242ZM37.6635-34.8065L31.5515-40.9807L35.9686-45.5217Q36.4821-46.0353 37.0728-45.8001Q37.6635-45.565 37.6635-44.8659ZM26.2316-7.58491L160.219-89.8074Q161.723-90.6677 162.057-92.2833Q162.392-93.8988 161.426-95.3474Q160.603-96.7713 159.015-97.1333Q157.427-97.4954 156.022-96.6102L22.0349-14.4126Q20.5861-13.5275 20.2364-11.9119Q19.8867-10.2963 20.7904-8.89099Q21.651-7.44245 23.2388-7.08039Q24.8266-6.71834 26.2316-7.58491ZM23.6033 30.4943L30.1249 30.4943Q36.6213 30.4943 40.921 28.9385Q45.2207 27.3828 48.5549 25.2825Q51.8892 23.1822 55.152 21.6047Q58.4149 20.0272 62.7508 20.0272Q66.926 20.0272 70.161 21.6047Q73.396 23.1822 76.7644 25.2825Q80.1327 27.3828 84.5283 28.9385Q88.9239 30.4943 95.3768 30.4943Q101.873 30.4943 106.257 28.9385Q110.64 27.3828 114.02 25.2825Q117.401 23.1822 120.645 21.6047Q123.89 20.0272 128.003 20.0272Q132.382 20.0272 135.654 21.6047Q138.927 23.1822 142.23 25.2825Q145.533 27.3828 149.864 28.9385Q154.194 30.4943 160.629 30.4943L167.194 30.4943Q168.81 30.4943 169.909 29.3955Q171.007 28.2967 171.007 26.7243Q171.007 25.1519 169.909 24.0439Q168.81 22.936 167.194 22.936L160.629 22.936Q156.132 22.936 152.749 21.3585Q149.365 19.781 146.021 17.7025Q142.678 15.6239 138.446 14.0464Q134.215 12.4689 128.003 12.4689Q122.058 12.4689 117.854 14.0464Q113.65 15.6239 110.251 17.7025Q106.851 19.781 103.384 21.3585Q99.9171 22.936 95.3768 22.936Q90.88 22.936 87.4223 21.3585Q83.9645 19.781 80.5652 17.7025Q77.166 15.6239 72.9529 14.0464Q68.7399 12.4689 62.7508 12.4689Q56.6013 12.4689 52.3603 14.0464Q48.1192 15.6239 44.785 17.7025Q41.4507 19.781 38.0579 21.3585Q34.6652 22.936 30.1249 22.936L23.6033 22.936Q21.9876 22.936 20.8887 24.0439Q19.7898 25.1519 19.7898 26.7243Q19.7898 28.2967 20.8887 29.3955Q21.9876 30.4943 23.6033 30.4943Z"/>
  </g>
  <g id="Medium-L" transform="matrix(1 0 0 1 1653.73 1556)">
   <path d="M51.2452-71.9245Q56.9937-71.9245 61.0617-76.0089Q65.1296-80.0933 65.1296-85.8789Q65.1296-91.6052 61.0617-95.6606Q56.9937-99.7161 51.2452-99.7161Q45.5544-99.7161 41.4574-95.6606Q37.3603-91.6052 37.3603-85.8789Q37.3603-80.0933 41.4574-76.0089Q45.5544-71.9245 51.2452-71.9245ZM37.2815 10.5463Q40.6612 9.21752 43.8386 7.5818Q47.016 5.94609 50.6132 4.60283L51.6704-4.78124Q51.7508-5.26376 52.2571-5.34418Q52.7635-5.4246 52.9571-5.0225L56.9276 2.9177Q58.3498 2.68423 59.8722 2.52747Q61.3946 2.37071 63.087 2.37071Q65.7836 2.37071 67.948 2.77068Q70.1124 3.17066 71.9292 3.88364L65.0121-14.5786L65.0121-52.2806Q65.0121-57.5693 61.4446-61.4178Q57.877-65.2664 51.3256-65.2664L48.3384-65.2664Q44.5366-65.2664 40.3191-64.2678Q36.1016-63.2693 32.1401-59.3777L17.8819-45.2449Q16.0735-43.4247 16.084-40.7494Q16.0945-38.0742 17.8819-36.3462L37.2815-17.1878ZM37.3867-34.4479L31.1493-40.7555L35.5788-45.313Q36.1246-45.8589 36.7556-45.6095Q37.3867-45.3602 37.3867-44.6046ZM25.8096-7.8097L158.523-89.2593Q159.895-90.0352 160.199-91.5041Q160.503-92.9731 159.622-94.3013Q158.867-95.5926 157.426-95.9246Q155.984-96.2565 154.704-95.4436L21.9904-14.0311Q20.674-13.2302 20.3604-11.7612Q20.0469-10.2923 20.8703-9.01139Q21.6466-7.68326 23.0878-7.35132Q24.5291-7.01938 25.8096-7.8097ZM23.3512 29.3922L29.6882 29.3922Q36.0723 29.3922 40.3197 27.8426Q44.5672 26.293 47.8974 24.2027Q51.2276 22.1124 54.5184 20.5389Q57.8093 18.9655 62.1852 18.9655Q66.4932 18.9655 69.7683 20.5389Q73.0434 22.1124 76.3814 24.2027Q79.7195 26.293 84.0327 27.8426Q88.3458 29.3922 94.6823 29.3922Q101.066 29.3922 105.361 27.8426Q109.656 26.293 113.012 24.2027Q116.369 22.1124 119.649 20.5389Q122.929 18.9655 127.179 18.9655Q131.603 18.9655 134.899 20.5389Q138.195 22.1124 141.496 24.2027Q144.798 26.293 149.074 27.8426Q153.35 29.3922 159.676 29.3922L166.061 29.3922Q167.553 29.3922 168.561 28.3837Q169.57 27.3752 169.57 25.9312Q169.57 24.4871 168.561 23.4675Q167.553 22.4478 166.061 22.4478L159.676 22.4478Q155.139 22.4478 151.728 20.8744Q148.317 19.3009 144.981 17.2345Q141.646 15.168 137.46 13.5945Q133.275 12.0211 127.179 12.0211Q121.258 12.0211 117.088 13.5945Q112.918 15.168 109.551 17.2345Q106.184 19.3009 102.725 20.8744Q99.2667 22.4478 94.6823 22.4478Q90.1454 22.4478 86.6919 20.8744Q83.2384 19.3009 79.8714 17.2345Q76.5044 15.168 72.3295 13.5945Q68.1546 12.0211 62.1852 12.0211Q56.1482 12.0211 51.9574 13.5945Q47.7665 15.168 44.4363 17.2345Q41.1061 19.3009 37.6894 20.8744Q34.2727 22.4478 29.6882 22.4478L23.3512 22.4478Q21.8599 22.4478 20.8512 23.4675Q19.8425 24.4871 19.8425 25.9312Q19.8425 27.3752 20.8512 28.3837Q21.8599 29.3922 23.3512 29.3922Z"/>
  </g>
  <g id="Regular-L" transform="matrix(1 0 0 1 1357.96 1556)">
   <path d="M50.6014-71.1643Q56.1978-71.1643 60.161-75.1412Q64.1242-79.1181 64.1242-84.7675Q64.1242-90.3366 60.161-94.2872Q56.1978-98.2378 50.6014-98.2378Q45.0574-98.2378 41.0677-94.2872Q37.0781-90.3366 37.0781-84.7675Q37.0781-79.1181 41.0677-75.1412Q45.0574-71.1643 50.6014-71.1643ZM37.0255 9.82075Q40.3903 8.53403 43.4312 6.97978Q46.4721 5.42553 49.8223 4.11369L50.8952-5.62044Q50.9756-6.10296 51.4846-6.18338Q51.9936-6.2638 52.1819-5.8617L56.2984 2.34445Q57.7108 2.10548 59.2287 1.94602Q60.7465 1.78656 62.4504 1.78656Q64.9206 1.78656 66.911 2.12332Q68.9014 2.46009 70.5706 3.07832L63.9908-14.5667L63.9908-51.8407Q63.9908-56.9825 60.5229-60.7184Q57.055-64.4542 50.6818-64.4542L47.7364-64.4542Q43.9868-64.4542 39.8768-63.4766Q35.7667-62.499 31.8837-58.6965L17.7979-44.7464Q16.084-43.005 16.084-40.4478Q16.084-37.8906 17.7979-36.2571L37.0255-17.2708ZM37.0255-33.9802L30.6249-40.4618L35.0703-45.0407Q35.6584-45.6287 36.342-45.361Q37.0255-45.0932 37.0255-44.2639ZM25.2591-8.10291L156.311-88.5444Q157.51-89.2101 157.775-90.4879Q158.04-91.7657 157.269-92.9368Q156.603-94.0553 155.353-94.348Q154.103-94.6406 152.984-93.9219L21.9323-13.5334Q20.7886-12.8425 20.5222-11.5648Q20.2558-10.287 20.9746-9.16844Q21.6408-7.99736 22.8909-7.70471Q24.141-7.41205 25.2591-8.10291ZM23.0224 27.9548L29.1187 27.9548Q35.3562 27.9548 39.5355 26.4131Q43.7148 24.8714 47.0397 22.7942Q50.3646 20.717 53.692 19.1488Q57.0193 17.5807 61.4475 17.5807Q65.9286 17.5807 69.256 19.1488Q72.5834 20.717 75.882 22.7942Q79.1806 24.8714 83.3862 26.4131Q87.5918 27.9548 93.7763 27.9548Q100.014 27.9548 104.193 26.4131Q108.372 24.8714 111.697 22.7942Q115.022 20.717 118.35 19.1488Q121.677 17.5807 126.105 17.5807Q130.586 17.5807 133.914 19.1488Q137.241 20.717 140.54 22.7942Q143.838 24.8714 148.044 26.4131Q152.249 27.9548 158.434 27.9548L164.584 27.9548Q165.913 27.9548 166.804 27.0641Q167.694 26.1733 167.694 24.8967Q167.694 23.6201 166.804 22.7156Q165.913 21.8111 164.584 21.8111L158.434 21.8111Q153.845 21.8111 150.397 20.2429Q146.949 18.6747 143.624 16.624Q140.299 14.5733 136.174 13.0051Q132.049 11.4369 126.105 11.4369Q120.215 11.4369 116.089 13.0051Q111.964 14.5733 108.639 16.624Q105.314 18.6747 101.866 20.2429Q98.4183 21.8111 93.7763 21.8111Q89.1873 21.8111 85.7393 20.2429Q82.2913 18.6747 78.9664 16.624Q75.6415 14.5733 71.5164 13.0051Q67.3912 11.4369 61.4475 11.4369Q55.5572 11.4369 51.4318 13.0051Q47.3064 14.5733 43.9816 16.624Q40.6567 18.6747 37.2087 20.2429Q33.7607 21.8111 29.1187 21.8111L23.0224 21.8111Q21.6932 21.8111 20.8022 22.7156Q19.9112 23.6201 19.9112 24.8967Q19.9112 26.1733 20.8022 27.0641Q21.6932 27.9548 23.0224 27.9548Z"/>
  </g>
  <g id="Light-L" transform="matrix(1 0 0 1 1062.24 1556)">
   <path d="M49.7808-70.5727Q55.2435-70.5727 59.1113-74.4636Q62.9791-78.3546 62.9791-83.8514Q62.9791-89.2679 59.1113-93.1422Q55.2435-97.0165 49.7808-97.0165Q44.3513-97.0165 40.4665-93.1422Q36.5817-89.2679 36.5817-83.8514Q36.5817-78.3546 40.4665-74.4636Q44.3513-70.5727 49.7808-70.5727ZM36.5484 9.85891Q39.6268 8.57219 42.6295 7.02756Q45.6323 5.48293 48.9636 4.20925L50.0554-6.19314Q50.1358-6.67565 50.6353-6.75607Q51.1349-6.83649 51.3421-6.4344L55.802 2.44001Q57.0236 2.25811 58.3125 2.12735Q59.6015 1.99659 61.0382 1.99659Q63.6036 1.99659 65.7467 2.37151Q67.8897 2.74643 69.7119 3.40283L62.8646-14.9864L62.8646-51.3443Q62.8646-56.3717 59.4732-60.0217Q56.0818-63.6718 49.8612-63.6718L46.9922-63.6718Q43.3189-63.6718 39.3138-62.7133Q35.3088-61.7548 31.521-58.0474L17.7598-44.4601Q16.084-42.7379 16.084-40.2474Q16.084-37.7569 17.7598-36.1616L36.5484-17.6142ZM36.5484-33.9228L30.2814-40.271L34.6313-44.7354Q35.1812-45.2853 35.8648-45.027Q36.5484-44.7687 36.5484-43.9775ZM24.8201-8.44633L152.743-86.9604Q153.769-87.5306 153.968-88.6079Q154.166-89.6853 153.528-90.6656Q152.958-91.6126 151.927-91.8574Q150.896-92.1023 149.95-91.4981L22.0278-13.0181Q21.0939-12.461 20.8656-11.3836Q20.6374-10.3062 21.2417-9.35923Q21.8126-8.37894 22.8433-8.13406Q23.8739-7.88919 24.8201-8.44633ZM22.3163 27.0769L28.0688 27.0769Q34.1156 27.0769 38.2377 25.5257Q42.3597 23.9746 45.7037 21.9068Q49.0476 19.8391 52.4513 18.2709Q55.855 16.7027 60.3977 16.7027Q64.9744 16.7027 68.3781 18.2709Q71.7818 19.8391 75.1091 21.9068Q78.4364 23.9746 82.5751 25.5257Q86.7138 27.0769 92.7265 27.0769Q98.7732 27.0769 102.895 25.5257Q107.017 23.9746 110.361 21.9068Q113.705 19.8391 117.109 18.2709Q120.513 16.7027 125.055 16.7027Q129.632 16.7027 133.036 18.2709Q136.439 19.8391 139.767 21.9068Q143.094 23.9746 147.233 25.5257Q151.371 27.0769 157.384 27.0769L163.172 27.0769Q164.253 27.0769 164.981 26.3484Q165.71 25.6199 165.71 24.5722Q165.71 23.5245 164.981 22.7728Q164.253 22.0211 163.172 22.0211L157.384 22.0211Q152.681 22.0211 149.156 20.453Q145.632 18.8848 142.288 16.8341Q138.944 14.7834 134.886 13.2152Q130.827 11.647 125.055 11.647Q119.318 11.647 115.259 13.2152Q111.201 14.7834 107.857 16.8341Q104.513 18.8848 100.988 20.453Q97.464 22.0211 92.7265 22.0211Q88.023 22.0211 84.4987 20.453Q80.9743 18.8848 77.6304 16.8341Q74.2865 14.7834 70.2282 13.2152Q66.1698 11.647 60.3977 11.647Q54.6603 11.647 50.6016 13.2152Q46.5429 14.7834 43.199 16.8341Q39.8551 18.8848 36.3307 20.453Q32.8064 22.0211 28.0688 22.0211L22.3163 22.0211Q21.2353 22.0211 20.5064 22.7728Q19.7775 23.5245 19.7775 24.5722Q19.7775 25.6199 20.5064 26.3484Q21.2353 27.0769 22.3163 27.0769Z"/>
  </g>
  <g id="Thin-L" transform="matrix(1 0 0 1 766.838 1556)">
   <path d="M48.6955-69.7902Q53.9814-69.7902 57.7231-73.5675Q61.4647-77.3448 61.4647-82.6398Q61.4647-87.8543 57.7231-91.6277Q53.9814-95.4011 48.6955-95.4011Q43.4175-95.4011 39.6713-91.6277Q35.9252-87.8543 35.9252-82.6398Q35.9252-77.3448 39.6713-73.5675Q43.4175-69.7902 48.6955-69.7902ZM35.9173 9.90937Q38.6171 8.62266 41.5693 7.09075Q44.5216 5.55884 47.8278 4.33563L48.9447-6.95057Q49.0251-7.43309 49.5121-7.5135Q49.9992-7.59392 50.2314-7.19183L55.1456 2.56639Q56.1148 2.45998 57.1009 2.36718Q58.087 2.27437 59.1705 2.27437Q61.8619 2.27437 64.2068 2.69976Q66.5517 3.12515 68.5762 3.83201L61.3752-15.5415L61.3752-50.6878Q61.3752-55.5638 58.085-59.1004Q54.7947-62.637 48.776-62.637L46.0078-62.637Q42.4355-62.637 38.5694-61.7038Q34.7032-60.7705 31.0414-57.1891L17.7093-44.0813Q16.084-42.3847 16.084-39.9824Q16.084-37.5801 17.7093-36.0352L35.9173-18.0684ZM35.9173-33.8469L29.8272-40.0187L34.0508-44.3317Q34.5502-44.8311 35.2338-44.5853Q35.9173-44.3395 35.9173-43.5988ZM24.2395-8.90053L148.022-84.8654Q148.822-85.3092 148.932-86.1215Q149.042-86.9338 148.58-87.6617Q148.137-88.3818 147.396-88.5635Q146.656-88.7452 145.936-88.2923L22.1542-12.3366Q21.4976-11.9563 21.3198-11.144Q21.1421-10.3317 21.5949-9.61157Q22.0399-8.88361 22.7803-8.70193Q23.5206-8.52024 24.2395-8.90053ZM21.3824 25.9157L26.6804 25.9157Q32.4748 25.9157 36.5212 24.352Q40.5675 22.7884 43.9367 20.7331Q47.3059 18.6779 50.8105 17.1097Q54.3152 15.5415 59.0092 15.5415Q63.7123 15.5415 67.2169 17.1097Q70.7215 18.6779 74.0868 20.7331Q77.452 22.7884 81.5023 24.352Q85.5526 25.9157 91.338 25.9157Q97.1324 25.9157 101.179 24.352Q105.225 22.7884 108.594 20.7331Q111.964 18.6779 115.468 17.1097Q118.973 15.5415 123.667 15.5415Q128.37 15.5415 131.875 17.1097Q135.379 18.6779 138.744 20.7331Q142.11 22.7884 146.16 24.352Q150.21 25.9157 155.996 25.9157L161.304 25.9157Q162.057 25.9157 162.57 25.4018Q163.084 24.8879 163.084 24.143Q163.084 23.3981 162.57 22.8485Q162.057 22.2989 161.304 22.2989L155.996 22.2989Q151.141 22.2989 147.515 20.7307Q143.89 19.1626 140.521 17.1118Q137.152 15.0611 133.182 13.4929Q129.212 11.9248 123.667 11.9248Q118.132 11.9248 114.161 13.4929Q110.191 15.0611 106.822 17.1118Q103.452 19.1626 99.8272 20.7307Q96.2019 22.2989 91.338 22.2989Q86.4831 22.2989 82.8579 20.7307Q79.2326 19.1626 75.8634 17.1118Q72.4942 15.0611 68.5244 13.4929Q64.5545 11.9248 59.0092 11.9248Q53.4742 11.9248 49.5037 13.4929Q45.5332 15.0611 42.164 17.1118Q38.7948 19.1626 35.1696 20.7307Q31.5443 22.2989 26.6804 22.2989L21.3824 22.2989Q20.6297 22.2989 20.1152 22.8485Q19.6007 23.3981 19.6007 24.143Q19.6007 24.8879 20.1152 25.4018Q20.6297 25.9157 21.3824 25.9157Z"/>
  </g>
  <g id="Ultralight-L" transform="matrix(1 0 0 1 470.799 1556)">
   <path d="M48.1397-69.3895Q53.335-69.3895 57.012-73.1085Q60.689-76.8276 60.689-82.0192Q60.689-87.1304 57.012-90.852Q53.335-94.5737 48.1397-94.5737Q42.9392-94.5737 39.2641-90.852Q35.5889-87.1304 35.5889-82.0192Q35.5889-76.8276 39.2641-73.1085Q42.9392-69.3895 48.1397-69.3895ZM35.5941 9.93522Q38.0999 8.6485 41.0263 7.12312Q43.9527 5.59773 47.2461 4.40036L48.3758-7.33852Q48.4562-7.82104 48.9368-7.90146Q49.4175-7.98188 49.6625-7.57978L54.8093 2.63112Q55.6493 2.56338 56.4803 2.49001Q57.3114 2.41665 58.2139 2.41665Q60.9698 2.41665 63.4181 2.86789Q65.8664 3.31912 67.9945 4.05183L60.6123-15.8259L60.6123-50.3516Q60.6123-55.15 57.3739-58.6285Q54.1355-62.107 48.2201-62.107L45.5037-62.107Q41.9831-62.107 38.188-61.1867Q34.393-60.2663 30.7957-56.7494L17.6835-43.8874Q16.084-42.2037 16.084-39.8466Q16.084-37.4895 17.6835-35.9704L35.5941-18.301ZM35.5941-33.808L29.5946-39.8894L33.7534-44.1249Q34.227-44.5985 34.9105-44.3591Q35.5941-44.1197 35.5941-43.4049ZM23.9422-9.13317L145.605-83.7923Q146.288-84.1714 146.353-84.8479Q146.418-85.5245 146.046-86.1232Q145.667-86.7271 145.076-86.8764Q144.484-87.0257 143.88-86.6504L22.2189-11.9875Q21.7044-11.6978 21.5525-11.0212Q21.4006-10.3447 21.7759-9.74081Q22.1564-9.1421 22.748-8.99278Q23.3397-8.84346 23.9422-9.13317ZM20.9041 25.321L25.9692 25.321Q31.6344 25.321 35.642 23.7509Q39.6496 22.1808 43.0317 20.132Q46.4138 18.0832 49.9701 16.515Q53.5264 14.9468 58.298 14.9468Q63.0658 14.9468 66.6222 16.515Q70.1785 18.0832 73.5632 20.132Q76.9479 22.1808 80.9529 23.7509Q84.9579 25.321 90.6268 25.321Q96.292 25.321 100.3 23.7509Q104.307 22.1808 107.689 20.132Q111.071 18.0832 114.628 16.515Q118.184 14.9468 122.956 14.9468Q127.723 14.9468 131.28 16.515Q134.836 18.0832 138.221 20.132Q141.605 22.1808 145.61 23.7509Q149.616 25.321 155.284 25.321L160.347 25.321Q160.932 25.321 161.336 24.917Q161.74 24.5129 161.74 23.9232Q161.74 23.3334 161.336 22.8873Q160.932 22.4412 160.347 22.4412L155.284 22.4412Q150.352 22.4412 146.675 20.873Q142.998 19.3048 139.616 17.2541Q136.234 15.2034 132.309 13.6352Q128.385 12.067 122.956 12.067Q117.524 12.067 113.599 13.6352Q109.674 15.2034 106.291 17.2541Q102.909 19.3048 99.2324 20.873Q95.5555 22.4412 90.6268 22.4412Q85.6944 22.4412 82.0174 20.873Q78.3405 19.3048 74.9584 17.2541Q71.5763 15.2034 67.6517 13.6352Q63.7271 12.067 58.298 12.067Q52.8666 12.067 48.9413 13.6352Q45.016 15.2034 41.6339 17.2541Q38.2518 19.3048 34.5748 20.873Q30.8978 22.4412 25.9692 22.4412L20.9041 22.4412Q20.3195 22.4412 19.9148 22.8873Q19.5101 23.3334 19.5101 23.9232Q19.5101 24.5129 19.9148 24.917Q20.3195 25.321 20.9041 25.321Z"/>
  </g>
  <g id="Black-M" transform="matrix(1 0 0 1 2857.46 1126)">
   <path d="M42.4202-66.9972Q47.5362-66.9972 51.1434-70.6327Q54.7506-74.2683 54.7506-79.3327Q54.7506-84.449 51.1434-88.0532Q47.5362-91.6575 42.4202-91.6575Q37.3669-91.6575 33.7284-88.0532Q30.0899-84.449 30.0899-79.3327Q30.0899-74.2683 33.7284-70.6327Q37.3669-66.9972 42.4202-66.9972ZM29.9131 3.62616Q32.5031 2.4009 35.5876 0.757592Q38.672-0.885715 42.6023-2.05965L43.3549-7.92741Q43.4172-8.30124 43.7938-8.36354Q44.1704-8.42585 44.3518-8.11433L46.8649-2.97359Q47.9478-3.10946 49.0701-3.20855Q50.1925-3.30764 51.3596-3.30764Q54.5354-3.30764 57.0743-2.69046Q59.6132-2.07329 61.7601-1.06676L54.7399-19.4288L54.7399-50.3193Q54.7399-55.0612 51.538-58.5384Q48.336-62.0156 42.4825-62.0156L39.9996-62.0156Q36.8366-62.0156 33.1047-61.1509Q29.3727-60.2861 25.9706-56.8892L14.2319-45.2122Q12.4038-43.4416 12.4609-40.8421Q12.518-38.2426 14.2319-36.4769L29.9131-20.9826ZM30.4841-36.7821L26.458-40.8134L29.7824-44.2056Q29.9959-44.4191 30.24-44.3151Q30.4841-44.2111 30.4841-43.9819ZM22.4096-12.7379L131.898-79.8783Q133.707-80.9595 134.103-82.9197Q134.498-84.8798 133.349-86.5751Q132.382-88.322 130.45-88.7458Q128.518-89.1696 126.828-88.14L17.3399-20.948Q15.5873-19.861 15.1376-17.9009Q14.688-15.9407 15.7747-14.2509Q16.856-12.5556 18.7879-12.1318Q20.7198-11.708 22.4096-12.7379ZM19.3818 21.2297L25.2953 21.2297Q30.8586 21.2297 34.4471 19.989Q38.0356 18.7482 40.6469 17.0711Q43.2582 15.3939 45.6636 14.1504Q48.069 12.9069 51.2553 12.9069Q53.819 12.9069 56.1387 14.1504Q58.4585 15.3939 61.2384 17.0711Q64.0182 18.7482 67.8378 19.989Q71.6574 21.2297 77.2153 21.2297Q82.7787 21.2297 86.6241 19.989Q90.4695 18.7482 93.2236 17.0711Q95.9776 15.3939 98.3259 14.1504Q100.674 12.9069 103.175 12.9069Q106.367 12.9069 108.801 14.1504Q111.235 15.3939 113.815 17.0711Q116.395 18.7482 120.015 19.989Q123.635 21.2297 129.135 21.2297L135.054 21.2297Q136.88 21.2297 138.155 19.9554Q139.429 18.681 139.429 16.8606Q139.429 15.0401 138.155 13.7659Q136.88 12.4917 135.054 12.4917L129.135 12.4917Q125.824 12.4917 123.326 11.2482Q120.827 10.0047 118.187 8.33032Q115.547 6.6559 112.047 5.41241Q108.546 4.16892 103.175 4.16892Q98.495 4.16892 95.0803 5.41241Q91.6656 6.6559 88.8544 8.33032Q86.0433 10.0047 83.2875 11.2482Q80.5317 12.4917 77.2153 12.4917Q73.9044 12.4917 71.1772 11.2482Q68.4499 10.0047 65.6388 8.33032Q62.8276 6.6559 59.3844 5.41241Q55.9411 4.16892 51.2553 4.16892Q45.9469 4.16892 42.418 5.41241Q38.8891 6.6559 36.2778 8.33032Q33.6664 10.0047 31.139 11.2482Q28.6116 12.4917 25.2953 12.4917L19.3818 12.4917Q17.5559 12.4917 16.2815 13.7659Q15.0072 15.0401 15.0072 16.8606Q15.0072 18.681 16.2815 19.9554Q17.5559 21.2297 19.3818 21.2297Z"/>
  </g>
  <g id="Heavy-M" transform="matrix(1 0 0 1 2561.73 1126)">
   <path d="M41.7713-66.1498Q46.7212-66.1498 50.2145-69.6661Q53.7078-73.1824 53.7078-78.105Q53.7078-83.0526 50.2145-86.5389Q46.7212-90.0252 41.7713-90.0252Q36.8815-90.0252 33.3581-86.5389Q29.8348-83.0526 29.8348-78.105Q29.8348-73.1824 33.3581-69.6661Q36.8815-66.1498 41.7713-66.1498ZM29.6875 2.68804Q32.32 1.51668 35.2376-0.0242793Q38.1553-1.56524 41.7731-2.70711L42.5417-8.87999Q42.604-9.25382 42.9861-9.31613Q43.3681-9.37843 43.5386-9.06691L46.1651-3.72884Q47.2763-3.88402 48.4421-3.99274Q49.6079-4.10146 50.847-4.10146Q53.7121-4.10146 55.9953-3.5735Q58.2784-3.04553 60.2033-2.16864L53.6727-19.3234L53.6727-49.862Q53.6727-54.4404 50.5821-57.7915Q47.4915-61.1427 41.8336-61.1427L39.3879-61.1427Q36.2755-61.1427 32.6587-60.3008Q29.0419-59.4588 25.7199-56.1555L14.1324-44.6349Q12.4173-42.9611 12.4609-40.4986Q12.5046-38.0361 14.1324-36.3833L29.6875-21.0151ZM30.1237-36.195L25.8595-40.4779L29.225-43.9222Q29.5008-44.1979 29.8122-44.0682Q30.1237-43.9386 30.1237-43.6067ZM21.7983-13.0399L129.83-79.3022Q131.454-80.2629 131.814-82.021Q132.174-83.7792 131.137-85.3141Q130.263-86.8763 128.529-87.2601Q126.795-87.6438 125.277-86.7104L17.2449-20.4209Q15.6686-19.4461 15.2712-17.6879Q14.8739-15.9298 15.851-14.4112Q16.8116-12.8763 18.5457-12.4925Q20.2798-12.1088 21.7983-13.0399ZM19.1121 19.576L24.7908 19.576Q30.2073 19.576 33.7208 18.3474Q37.2342 17.1189 39.8346 15.4565Q42.435 13.7941 44.8708 12.5573Q47.3067 11.3206 50.5352 11.3206Q53.3004 11.3206 55.6708 12.5573Q58.0412 13.7941 60.7642 15.4565Q63.4873 17.1189 67.1834 18.3474Q70.8795 19.576 76.2797 19.576Q81.6962 19.576 85.4059 18.3474Q89.1157 17.1189 91.8251 15.4565Q94.5346 13.7941 96.9268 12.5573Q99.319 11.3206 102.024 11.3206Q105.269 11.3206 107.727 12.5573Q110.184 13.7941 112.755 15.4565Q115.325 17.1189 118.869 18.3474Q122.412 19.576 127.769 19.576L133.464 19.576Q135.135 19.576 136.293 18.4177Q137.452 17.2594 137.452 15.6044Q137.452 13.9493 136.293 12.7899Q135.135 11.6305 133.464 11.6305L127.769 11.6305Q124.415 11.6305 121.886 10.3938Q119.357 9.15701 116.735 7.50281Q114.112 5.84861 110.675 4.61185Q107.237 3.3751 102.024 3.3751Q97.3508 3.3751 93.9787 4.61185Q90.6066 5.84861 87.8535 7.50281Q85.1004 9.15701 82.3748 10.3938Q79.6492 11.6305 76.2797 11.6305Q72.9265 11.6305 70.2227 10.3938Q67.5189 9.15701 64.7659 7.50281Q62.0128 5.84861 58.6189 4.61185Q55.225 3.3751 50.5352 3.3751Q45.3821 3.3751 41.9227 4.61185Q38.4634 5.84861 35.863 7.50281Q33.2626 9.15701 30.7115 10.3938Q28.1604 11.6305 24.7908 11.6305L19.1121 11.6305Q17.4406 11.6305 16.2823 12.7899Q15.124 13.9493 15.124 15.6044Q15.124 17.2594 16.2823 18.4177Q17.4406 19.576 19.1121 19.576Z"/>
  </g>
  <g id="Bold-M" transform="matrix(1 0 0 1 2266.13 1126)">
   <path d="M41.0454-65.202Q45.8094-65.202 49.1754-68.5848Q52.5414-71.9676 52.5414-76.7317Q52.5414-81.4906 49.1754-84.8449Q45.8094-88.1991 41.0454-88.1991Q36.3385-88.1991 32.9439-84.8449Q29.5494-81.4906 29.5494-76.7317Q29.5494-71.9676 32.9439-68.5848Q36.3385-65.202 41.0454-65.202ZM29.4351 1.63862Q32.1151 0.52755 34.8462-0.898915Q37.5772-2.32538 40.8455-3.43139L41.632-9.94559Q41.6943-10.3194 42.0825-10.3817Q42.4707-10.444 42.6289-10.1325L45.3823-4.57371Q46.5251-4.75048 47.7395-4.86997Q48.954-4.98947 50.2736-4.98947Q52.7912-4.98947 54.7882-4.5613Q56.7852-4.13313 58.4617-3.40125L52.479-19.2054L52.479-49.3505Q52.479-53.7459 49.5129-56.9561Q46.5468-60.1663 41.1077-60.1663L38.7036-60.1663Q35.6478-60.1663 32.1598-59.3498Q28.6718-58.5333 25.4395-55.3347L14.0212-43.989Q12.4324-42.4237 12.4609-40.1143Q12.4895-37.805 14.0212-36.2785L29.4351-21.0515ZM29.7206-35.5382L25.19-40.1026L28.6015-43.6051Q28.9469-43.9505 29.3338-43.7921Q29.7206-43.6337 29.7206-43.187ZM21.1145-13.3778L127.516-78.6579Q128.934-79.4836 129.254-81.0158Q129.573-82.5479 128.662-83.9036Q127.893-85.2592 126.38-85.5981Q124.868-85.9369 123.541-85.1111L17.1387-19.8311Q15.7596-18.9819 15.4207-17.4498Q15.0818-15.9176 15.9362-14.5905Q16.762-13.2349 18.2748-12.896Q19.7875-12.5571 21.1145-13.3778ZM18.8103 17.726L24.2265 17.726Q29.4788 17.726 32.9083 16.5112Q36.3378 15.2963 38.9259 13.6503Q41.5141 12.0044 43.984 10.7752Q46.4539 9.54599 49.7297 9.54599Q52.7202 9.54599 55.1473 10.7752Q57.5744 12.0044 60.2339 13.6503Q62.8934 15.2963 66.4514 16.5112Q70.0094 17.726 75.233 17.726Q80.4853 17.726 84.0432 16.5112Q87.6012 15.2963 90.2607 13.6503Q92.9203 12.0044 95.3616 10.7752Q97.803 9.54599 100.736 9.54599Q104.041 9.54599 106.525 10.7752Q109.009 12.0044 111.569 13.6503Q114.128 15.2963 117.586 16.5112Q121.044 17.726 126.24 17.726L131.684 17.726Q133.183 17.726 134.211 16.6976Q135.24 15.6691 135.24 14.1991Q135.24 12.7291 134.211 11.6981Q133.183 10.6671 131.684 10.6671L126.24 10.6671Q122.839 10.6671 120.276 9.43793Q117.712 8.20871 115.11 6.57712Q112.507 4.94553 109.14 3.71631Q105.773 2.4871 100.736 2.4871Q96.0708 2.4871 92.7464 3.71631Q89.4219 4.94553 86.7338 6.57712Q84.0458 8.20871 81.3539 9.43793Q78.6621 10.6671 75.233 10.6671Q71.8325 10.6671 69.155 9.43793Q66.4774 8.20871 63.7894 6.57712Q61.1013 4.94553 57.7626 3.71631Q54.424 2.4871 49.7297 2.4871Q44.7502 2.4871 41.3687 3.71631Q37.9872 4.94553 35.399 6.57712Q32.8109 8.20871 30.2332 9.43793Q27.6556 10.6671 24.2265 10.6671L18.8103 10.6671Q17.3117 10.6671 16.2832 11.6981Q15.2547 12.7291 15.2547 14.1991Q15.2547 15.6691 16.2832 16.6976Q17.3117 17.726 18.8103 17.726Z"/>
  </g>
  <g id="Semibold-M" transform="matrix(1 0 0 1 1970.18 1126)">
   <path d="M40.545-64.5485Q45.1809-64.5485 48.459-67.8393Q51.7372-71.1301 51.7372-75.785Q51.7372-80.4138 48.459-83.677Q45.1809-86.9403 40.545-86.9403Q35.9642-86.9403 32.6584-83.677Q29.3526-80.4138 29.3526-75.785Q29.3526-71.1301 32.6584-67.8393Q35.9642-64.5485 40.545-64.5485ZM29.2611 0.915152Q31.9739-0.154349 34.5763-1.50188Q37.1787-2.84942 40.2061-3.9307L41.0049-10.6802Q41.0672-11.054 41.4596-11.1163Q41.852-11.1786 42.0018-10.8671L44.8426-5.15615Q46.0073-5.34781 47.2552-5.47473Q48.5031-5.60165 49.8783-5.60165Q52.1564-5.60165 53.9561-5.24228Q55.7559-4.88291 57.2611-4.251L51.656-19.1241L51.656-48.9979Q51.656-53.2671 48.7757-56.3801Q45.8955-59.4931 40.6073-59.4931L38.2318-59.4931Q35.2151-59.4931 31.8159-58.6942Q28.4167-57.8953 25.2461-54.7688L13.9445-43.5438Q12.4428-42.0531 12.4609-39.8494Q12.4791-37.6457 13.9445-36.2063L29.2611-21.0766ZM29.4427-35.0854L24.7285-39.8439L28.1716-43.3865Q28.5651-43.78 29.0039-43.6017Q29.4427-43.4235 29.4427-42.8976ZM20.6431-13.6107L125.922-78.2136Q127.197-78.9464 127.489-80.3227Q127.781-81.6991 126.956-82.9311Q126.259-84.1443 124.899-84.4523Q123.539-84.7602 122.344-84.0086L17.0654-19.4246Q15.8223-18.6619 15.5237-17.2856Q15.2252-15.9092 15.995-14.7142Q16.7278-13.4822 18.088-13.1742Q19.4482-12.8662 20.6431-13.6107ZM18.6023 16.4507L23.8374 16.4507Q28.9765 16.4507 32.3481 15.2452Q35.7197 14.0398 38.2995 12.4052Q40.8792 10.7706 43.3726 9.54663Q45.866 8.32261 49.1744 8.32261Q52.3203 8.32261 54.7864 9.54663Q57.2525 10.7706 59.8683 12.4052Q62.484 14.0398 65.9467 15.2452Q69.4095 16.4507 74.5114 16.4507Q79.6505 16.4507 83.1038 15.2452Q86.5571 14.0398 89.1823 12.4052Q91.8074 10.7706 94.2826 9.54663Q96.7578 8.32261 99.8484 8.32261Q103.194 8.32261 105.696 9.54663Q108.199 10.7706 110.751 12.4052Q113.303 14.0398 116.702 15.2452Q120.102 16.4507 125.185 16.4507L130.458 16.4507Q131.837 16.4507 132.776 15.5117Q133.715 14.5728 133.715 13.2304Q133.715 11.888 132.776 10.9455Q131.837 10.003 130.458 10.003L125.185 10.003Q121.752 10.003 119.166 8.77898Q116.579 7.55496 113.99 5.93896Q111.401 4.32295 108.082 3.09893Q104.764 1.87491 99.8484 1.87491Q95.1884 1.87491 91.8968 3.09893Q88.6053 4.32295 85.962 5.93896Q83.3187 7.55496 80.6501 8.77898Q77.9816 10.003 74.5114 10.003Q71.0784 10.003 68.4189 8.77898Q65.7595 7.55496 63.1162 5.93896Q60.4729 4.32295 57.1723 3.09893Q53.8717 1.87491 49.1744 1.87491Q44.3147 1.87491 40.9868 3.09893Q37.6589 4.32295 35.0792 5.93896Q32.4994 7.55496 29.9035 8.77898Q27.3076 10.003 23.8374 10.003L18.6023 10.003Q17.2228 10.003 16.2838 10.9455Q15.3448 11.888 15.3448 13.2304Q15.3448 14.5728 16.2838 15.5117Q17.2228 16.4507 18.6023 16.4507Z"/>
  </g>
  <g id="Medium-M" transform="matrix(1 0 0 1 1674.05 1126)">
   <path d="M40.1655-64.0531Q44.7043-64.0531 47.9159-67.2741Q51.1275-70.4951 51.1275-75.0671Q51.1275-79.5973 47.9159-82.7915Q44.7043-85.9857 40.1655-85.9857Q35.6804-85.9857 32.4419-82.7915Q29.2034-79.5973 29.2034-75.0671Q29.2034-70.4951 32.4419-67.2741Q35.6804-64.0531 40.1655-64.0531ZM29.1292 0.366591Q31.8668-0.671394 34.3717-1.95908Q36.8765-3.24677 39.7212-4.3093L40.5294-11.2372Q40.5917-11.6111 40.9873-11.6734Q41.3829-11.7357 41.5263-11.4241L44.4334-5.59779Q45.6147-5.80073 46.888-5.93328Q48.1613-6.06583 49.5786-6.06583Q51.675-6.06583 53.3252-5.75863Q54.9754-5.45143 56.3508-4.89532L51.032-19.0624L51.032-48.7305Q51.032-52.9041 48.2168-55.9434Q45.4016-58.9827 40.2278-58.9827L37.8741-58.9827Q34.887-58.9827 31.5551-58.1971Q28.2232-57.4115 25.0995-54.3398L13.8864-43.2062Q12.4507-41.7722 12.4609-39.6486Q12.4712-37.5249 13.8864-36.1515L29.1292-21.0956ZM29.232-34.7421L24.3785-39.6478L27.8457-43.2208Q28.2756-43.6506 28.7538-43.4574Q29.232-43.2641 29.232-42.6782ZM20.2857-13.7873L124.712-77.8768Q125.88-78.539 126.15-79.7972Q126.421-81.0555 125.662-82.1938Q125.02-83.299 123.776-83.5835Q122.531-83.868 121.436-83.1726L17.0099-19.1163Q15.8698-18.4193 15.6018-17.1611Q15.3338-15.9028 16.0395-14.8079Q16.7019-13.6696 17.9464-13.3851Q19.1909-13.1006 20.2857-13.7873ZM18.4445 15.4837L23.5425 15.4837Q28.5957 15.4837 31.9234 14.2853Q35.2511 13.087 37.8245 11.4611Q40.3979 9.83514 42.909 8.61506Q45.4202 7.39498 48.7534 7.39498Q52.017 7.39498 54.5128 8.61506Q57.0085 9.83514 59.591 11.4611Q62.1736 13.087 65.5641 14.2853Q68.9546 15.4837 73.9643 15.4837Q79.0175 15.4837 82.3915 14.2853Q85.7655 13.087 88.3645 11.4611Q90.9636 9.83514 93.4645 8.61506Q95.9654 7.39498 99.1752 7.39498Q102.552 7.39498 105.068 8.61506Q107.585 9.83514 110.131 11.4611Q112.678 13.087 116.032 14.2853Q119.387 15.4837 124.386 15.4837L129.528 15.4837Q130.817 15.4837 131.688 14.6126Q132.559 13.7415 132.559 12.4958Q132.559 11.2501 131.688 10.3748Q130.817 9.49942 129.528 9.49942L124.386 9.49942Q120.928 9.49942 118.324 8.27934Q115.719 7.05926 113.141 5.45507Q110.562 3.85089 107.28 2.63081Q103.998 1.41073 99.1752 1.41073Q94.5193 1.41073 91.2526 2.63081Q87.986 3.85089 85.3767 5.45507Q82.7673 7.05926 80.1165 8.27934Q77.4656 9.49942 73.9643 9.49942Q70.5065 9.49942 67.8608 8.27934Q65.2151 7.05926 62.6057 5.45507Q59.9964 3.85089 56.7247 2.63081Q53.453 1.41073 48.7534 1.41073Q43.9844 1.41073 40.6972 2.63081Q37.41 3.85089 34.8366 5.45507Q32.2633 7.05926 29.6535 8.27934Q27.0438 9.49942 23.5425 9.49942L18.4445 9.49942Q17.1555 9.49942 16.2843 10.3748Q15.4131 11.2501 15.4131 12.4958Q15.4131 13.7415 16.2843 14.6126Q17.1555 15.4837 18.4445 15.4837Z"/>
  </g>
  <g id="Regular-M" transform="matrix(1 0 0 1 1378.09 1126)">
   <path d="M39.6706-63.4068Q44.0826-63.4068 47.2074-66.5369Q50.3322-69.6669 50.3322-74.1307Q50.3322-78.5323 47.2074-81.6365Q44.0826-84.7407 39.6706-84.7407Q35.3102-84.7407 32.1595-81.6365Q29.0088-78.5323 29.0088-74.1307Q29.0088-69.6669 32.1595-66.5369Q35.3102-63.4068 39.6706-63.4068ZM28.9571-0.348924Q31.7271-1.3458 34.1048-2.55542Q36.4824-3.76505 39.0887-4.80313L39.9092-11.9638Q39.9715-12.3376 40.3712-12.3999Q40.771-12.4622 40.906-12.1507L43.8996-6.17383Q45.1025-6.3915 46.409-6.53139Q47.7154-6.67129 49.1877-6.67129Q51.0471-6.67129 52.5022-6.43213Q53.9573-6.19297 55.1634-5.73574L50.2181-18.9819L50.2181-48.3817Q50.2181-52.4306 47.4878-55.3738Q44.7575-58.317 39.7329-58.317L37.4075-58.317Q34.4591-58.317 31.215-57.5487Q27.9709-56.7805 24.9083-53.7802L13.8105-42.7658Q12.4609-41.4058 12.4609-39.3866Q12.4609-37.3674 13.8105-36.0801L28.9571-21.1204ZM28.9571-34.2943L23.9221-39.3919L27.4206-43.0046Q27.8979-43.4819 28.4275-43.2691Q28.9571-43.0562 28.9571-42.392ZM19.8194-14.0177L123.135-77.4375Q124.161-78.0077 124.405-79.1118Q124.648-80.216 123.974-81.232Q123.404-82.1963 122.311-82.4503Q121.217-82.7042 120.253-82.0822L16.9374-18.7142Q15.9318-18.1028 15.7037-16.9987Q15.4756-15.8945 16.0977-14.9302Q16.6681-13.9142 17.7617-13.6602Q18.8553-13.4063 19.8194-14.0177ZM18.2388 14.2223L23.1577 14.2223Q28.0989 14.2223 31.3694 13.0333Q34.6399 11.8443 37.205 10.2296Q39.77 8.61493 42.3044 7.39999Q44.8388 6.18504 48.2042 6.18504Q51.6215 6.18504 54.1558 7.39999Q56.6902 8.61493 59.2294 10.2296Q61.7686 11.8443 65.065 13.0333Q68.3613 14.2223 73.2507 14.2223Q78.1919 14.2223 81.4624 13.0333Q84.7329 11.8443 87.2979 10.2296Q89.863 8.61493 92.3973 7.39999Q94.9317 6.18504 98.2972 6.18504Q101.714 6.18504 104.249 7.39999Q106.783 8.61493 109.322 10.2296Q111.862 11.8443 115.158 13.0333Q118.454 14.2223 123.344 14.2223L128.315 14.2223Q129.486 14.2223 130.268 13.4398Q131.051 12.6572 131.051 11.5377Q131.051 10.4182 130.268 9.63037Q129.486 8.84258 128.315 8.84258L123.344 8.84258Q119.854 8.84258 117.226 7.62764Q114.598 6.41269 112.033 4.82392Q109.468 3.23515 106.234 2.02021Q103 0.805272 98.2972 0.805272Q93.6466 0.805272 90.4124 2.02021Q87.1783 3.23515 84.6133 4.82392Q82.0482 6.41269 79.4204 7.62764Q76.7926 8.84258 73.2507 8.84258Q69.7606 8.84258 67.1328 7.62764Q64.505 6.41269 61.9399 4.82392Q59.3749 3.23515 56.1408 2.02021Q52.9068 0.805272 48.2042 0.805272Q43.5536 0.805272 40.3195 2.02021Q37.0853 3.23515 34.5203 4.82392Q31.9553 6.41269 29.3274 7.62764Q26.6996 8.84258 23.1577 8.84258L18.2388 8.84258Q17.0676 8.84258 16.2849 9.63037Q15.5023 10.4182 15.5023 11.5377Q15.5023 12.6572 16.2849 13.4398Q17.0676 14.2223 18.2388 14.2223Z"/>
  </g>
  <g id="Light-M" transform="matrix(1 0 0 1 1082.27 1126)">
   <path d="M38.9349-62.8764Q43.227-62.8764 46.2663-65.9294Q49.3056-68.9824 49.3056-73.3094Q49.3056-77.5741 46.2663-80.6099Q43.227-83.6457 38.9349-83.6457Q34.6772-83.6457 31.6205-80.6099Q28.5638-77.5741 28.5638-73.3094Q28.5638-68.9824 31.6205-65.9294Q34.6772-62.8764 38.9349-62.8764ZM28.5293-0.314714Q31.0426-1.31159 33.3861-2.51259Q35.7295-3.71359 38.3189-4.71746L39.1562-12.4772Q39.2185-12.851 39.6098-12.9134Q40.0011-12.9757 40.1531-12.6641L43.4546-6.08816Q44.4865-6.25466 45.5876-6.36882Q46.6888-6.48299 47.9216-6.48299Q49.8664-6.48299 51.4584-6.20962Q53.0503-5.93624 54.3935-5.44481L49.2084-19.3583L49.2084-47.9367Q49.2084-51.8829 46.5467-54.7492Q43.885-57.6155 38.9972-57.6155L36.7402-57.6155Q33.8602-57.6155 30.7103-56.8644Q27.5604-56.1132 24.5832-53.1983L13.7763-42.5091Q12.4609-41.1663 12.4609-39.2069Q12.4609-37.2475 13.7763-35.9944L28.5293-21.4283ZM28.5293-34.2429L23.6142-39.2208L27.027-42.7309Q27.4702-43.174 27.9998-42.9697Q28.5293-42.7653 28.5293-42.1353ZM19.4259-14.3256L119.935-76.0173Q120.807-76.5018 120.991-77.4263Q121.175-78.3508 120.621-79.1957Q120.136-80.0063 119.239-80.2174Q118.342-80.4285 117.532-79.9091L17.0231-18.2523Q16.2055-17.7607 16.0116-16.8362Q15.8177-15.9118 16.3371-15.1012Q16.8222-14.2563 17.719-14.0452Q18.6158-13.834 19.4259-14.3256ZM17.6057 13.4352L22.2165 13.4352Q26.9866 13.4352 30.2058 12.2377Q33.425 11.0402 36.0072 9.43401Q38.5893 7.82779 41.1921 6.61285Q43.7949 5.39791 47.263 5.39791Q50.7659 5.39791 53.3687 6.61285Q55.9715 7.82779 58.5364 9.43401Q61.1014 11.0402 64.3378 12.2377Q67.5742 13.4352 72.3094 13.4352Q77.0796 13.4352 80.2988 12.2377Q83.518 11.0402 86.1001 9.43401Q88.6823 7.82779 91.2851 6.61285Q93.8879 5.39791 97.3559 5.39791Q100.859 5.39791 103.462 6.61285Q106.064 7.82779 108.629 9.43401Q111.194 11.0402 114.431 12.2377Q117.667 13.4352 122.402 13.4352L127.049 13.4352Q127.997 13.4352 128.634 12.7981Q129.271 12.161 129.271 11.2468Q129.271 10.3325 128.634 9.68169Q127.997 9.03088 127.049 9.03088L122.402 9.03088Q118.81 9.03088 116.113 7.81594Q113.417 6.601 110.835 5.01223Q108.253 3.42346 105.079 2.20852Q101.905 0.993574 97.3559 0.993574Q92.8425 0.993574 89.6681 2.20852Q86.4938 3.42346 83.9117 5.01223Q81.3295 6.601 78.6333 7.81594Q75.937 9.03088 72.3094 9.03088Q68.7168 9.03088 66.0205 7.81594Q63.3243 6.601 60.7421 5.01223Q58.16 3.42346 54.9859 2.20852Q51.8118 0.993574 47.263 0.993574Q42.7495 0.993574 39.5752 2.20852Q36.4008 3.42346 33.8187 5.01223Q31.2366 6.601 28.5403 7.81594Q25.844 9.03088 22.2165 9.03088L17.6057 9.03088Q16.657 9.03088 16.0197 9.68169Q15.3824 10.3325 15.3824 11.2468Q15.3824 12.161 16.0197 12.7981Q16.657 13.4352 17.6057 13.4352Z"/>
  </g>
  <g id="Thin-M" transform="matrix(1 0 0 1 786.733 1126)">
   <path d="M37.9619-62.1749Q42.0955-62.1749 45.0217-65.126Q47.9478-68.0771 47.9478-72.2231Q47.9478-76.3068 45.0217-79.2521Q42.0955-82.1974 37.9619-82.1974Q33.8399-82.1974 30.9076-79.2521Q27.9752-76.3068 27.9752-72.2231Q27.9752-68.0771 30.9076-65.126Q33.8399-62.1749 37.9619-62.1749ZM27.9636-0.269467Q30.1373-1.26634 32.4355-2.45593Q34.7337-3.64553 37.3006-4.60415L38.1604-13.1563Q38.2228-13.5301 38.6028-13.5924Q38.9829-13.6547 39.1573-13.3432L42.866-5.97486Q43.6716-6.07367 44.5013-6.15381Q45.331-6.23394 46.2471-6.23394Q48.3049-6.23394 50.0778-5.91532Q51.8507-5.59671 53.3752-5.06002L47.8731-19.856L47.8731-47.3481Q47.8731-51.1586 45.302-53.9232Q42.731-56.6878 38.0242-56.6878L35.8578-56.6878Q33.0682-56.6878 30.0428-55.9592Q27.0174-55.2307 24.1531-52.4287L13.7311-42.1696Q12.4609-40.8496 12.4609-38.9693Q12.4609-37.089 13.7311-35.8811L27.9636-21.8355ZM27.9636-34.1748L23.2069-38.9946L26.5065-42.3689Q26.9044-42.7668 27.434-42.5737Q27.9636-42.3805 27.9636-41.7957ZM18.9053-14.7328L115.703-74.139Q116.372-74.5102 116.476-75.1971Q116.581-75.8839 116.185-76.5026Q115.814-77.1098 115.177-77.2642Q114.541-77.4187 113.933-77.035L17.1364-17.6412Q16.5675-17.3082 16.4188-16.6214Q16.2702-15.9346 16.6539-15.3275Q17.026-14.7087 17.6625-14.5543Q18.2991-14.3998 18.9053-14.7328ZM16.7685 12.3942L20.9716 12.3942Q25.5156 12.3942 28.6669 11.1855Q31.8182 9.97674 34.423 8.38174Q37.0277 6.78675 39.721 5.57181Q42.4143 4.35687 46.0181 4.35687Q49.6344 4.35687 52.3277 5.57181Q55.021 6.78675 57.6199 8.38174Q60.2189 9.97674 63.376 11.1855Q66.5331 12.3942 71.0646 12.3942Q75.6085 12.3942 78.7598 11.1855Q81.9112 9.97674 84.5159 8.38174Q87.1207 6.78675 89.814 5.57181Q92.5073 4.35687 96.1111 4.35687Q99.7273 4.35687 102.421 5.57181Q105.114 6.78675 107.713 8.38174Q110.312 9.97674 113.469 11.1855Q116.626 12.3942 121.158 12.3942L125.374 12.3942Q126.028 12.3942 126.473 11.9495Q126.918 11.5048 126.918 10.862Q126.918 10.2192 126.473 9.74956Q126.028 9.27992 125.374 9.27992L121.158 9.27992Q117.429 9.27992 114.642 8.06498Q111.856 6.85004 109.251 5.26127Q106.646 3.6725 103.551 2.45756Q100.456 1.24262 96.1111 1.24262Q91.779 1.24262 88.6837 2.45756Q85.5885 3.6725 82.9837 5.26127Q80.379 6.85004 77.5922 8.06498Q74.8055 9.27992 71.0646 9.27992Q67.3362 9.27992 64.5494 8.06498Q61.7627 6.85004 59.1579 5.26127Q56.5532 3.6725 53.4583 2.45756Q50.3635 1.24262 46.0181 1.24262Q41.686 1.24262 38.5908 2.45756Q35.4955 3.6725 32.8908 5.26127Q30.286 6.85004 27.4992 8.06498Q24.7125 9.27992 20.9716 9.27992L16.7685 9.27992Q16.1141 9.27992 15.6689 9.74956Q15.2238 10.2192 15.2238 10.862Q15.2238 11.5048 15.6689 11.9495Q16.1141 12.3942 16.7685 12.3942Z"/>
  </g>
  <g id="Ultralight-M" transform="matrix(1 0 0 1 490.624 1126)">
   <path d="M37.4636-61.8156Q41.5159-61.8156 44.3842-64.7145Q47.2524-67.6134 47.2524-71.6667Q47.2524-75.6577 44.3842-78.5567Q41.5159-81.4556 37.4636-81.4556Q33.4111-81.4556 30.5424-78.5567Q27.6737-75.6577 27.6737-71.6667Q27.6737-67.6134 30.5424-64.7145Q33.4111-61.8156 37.4636-61.8156ZM27.6738-0.246292Q29.6736-1.24317 31.9486-2.42692Q34.2236-3.61067 36.7791-4.54612L37.6504-13.5041Q37.7127-13.8779 38.087-13.9402Q38.4613-14.0026 38.6473-13.691L42.5645-5.91682Q43.2543-5.98097 43.9449-6.04368Q44.6356-6.10638 45.3894-6.10638Q47.5051-6.10638 49.3707-5.76459Q51.2363-5.4228 52.8537-4.86294L47.1891-20.1109L47.1891-47.0467Q47.1891-50.7876 44.6645-53.5001Q42.1399-56.2126 37.5259-56.2126L35.4057-56.2126Q32.6626-56.2126 29.7009-55.4956Q26.7393-54.7787 23.9329-52.0346L13.7079-41.9956Q12.4609-40.6873 12.4609-38.8475Q12.4609-37.0077 13.7079-35.8231L27.6738-22.0441ZM27.6738-34.14L22.9984-38.8787L26.2399-42.1835Q26.6146-42.5582 27.1442-42.3708Q27.6738-42.1834 27.6738-41.6218ZM18.6387-14.9414L113.536-73.1769Q114.1-73.4902 114.164-74.0553Q114.228-74.6204 113.913-75.1232Q113.6-75.6262 113.097-75.7516Q112.593-75.8771 112.09-75.5629L17.1944-17.3283Q16.7529-17.0765 16.6274-16.5114Q16.5019-15.9463 16.8161-15.4433Q17.1303-14.9405 17.6336-14.815Q18.1368-14.6896 18.6387-14.9414ZM16.3396 11.861L20.334 11.861Q24.7621 11.861 27.8786 10.6465Q30.9952 9.43203 33.6115 7.84278Q36.2279 6.25353 38.9675 5.03859Q41.7072 3.82365 45.3805 3.82365Q49.0548 3.82365 51.7944 5.03859Q54.5341 6.25353 57.1505 7.84278Q59.7669 9.43203 62.8834 10.6465Q65.9999 11.861 70.427 11.861Q74.855 11.861 77.9716 10.6465Q81.0882 9.43203 83.7045 7.84278Q86.3209 6.25353 89.0605 5.03859Q91.8002 3.82365 95.4735 3.82365Q99.1478 3.82365 101.887 5.03859Q104.627 6.25353 107.243 7.84278Q109.86 9.43203 112.976 10.6465Q116.093 11.861 120.52 11.861L124.516 11.861Q125.02 11.861 125.366 11.5148Q125.712 11.1686 125.712 10.6649Q125.712 10.1612 125.366 9.78432Q125.02 9.40748 124.516 9.40748L120.52 9.40748Q116.722 9.40748 113.889 8.19254Q111.056 6.9776 108.439 5.38883Q105.823 3.80006 102.769 2.58512Q99.7147 1.37018 95.4735 1.37018Q91.2343 1.37018 88.1795 2.58512Q85.1248 3.80006 82.5085 5.38883Q79.8921 6.9776 77.059 8.19254Q74.2259 9.40748 70.427 9.40748Q66.6291 9.40748 63.796 8.19254Q60.9629 6.9776 58.3465 5.38883Q55.7302 3.80006 52.6759 2.58512Q49.6217 1.37018 45.3805 1.37018Q41.1413 1.37018 38.0866 2.58512Q35.0318 3.80006 32.4155 5.38883Q29.7991 6.9776 26.966 8.19254Q24.1329 9.40748 20.334 9.40748L16.3396 9.40748Q15.836 9.40748 15.4893 9.78432Q15.1426 10.1612 15.1426 10.6649Q15.1426 11.1686 15.4893 11.5148Q15.836 11.861 16.3396 11.861Z"/>
  </g>
  <g id="Black-S" transform="matrix(1 0 0 1 2873.63 696)">
   <path d="M33.3984-60.3516Q37.4512-60.3516 40.3076-63.2324Q43.1641-66.1133 43.1641-70.1172Q43.1641-74.1699 40.3076-77.0264Q37.4512-79.8828 33.3984-79.8828Q29.3945-79.8828 26.5137-77.0264Q23.6328-74.1699 23.6328-70.1172Q23.6328-66.1133 26.5137-63.2324Q29.3945-60.3516 33.3984-60.3516ZM23.4863-4.49219Q25.4883-5.46875 27.9541-6.78711Q30.4199-8.10547 33.5938-9.0332L34.1797-13.5742Q34.2285-13.8672 34.5215-13.916Q34.8145-13.9648 34.9609-13.7207L36.9141-9.7168Q37.7441-9.81445 38.5986-9.8877Q39.4531-9.96094 40.332-9.96094Q42.9199-9.96094 44.9951-9.44824Q47.0703-8.93555 48.8281-8.10547L43.1641-22.9004L43.1641-47.168Q43.1641-50.9277 40.625-53.6865Q38.0859-56.4453 33.4473-56.4453L31.4941-56.4453Q29.0039-56.4453 26.0498-55.7617Q23.0957-55.0781 20.4102-52.3926L11.1816-43.2129Q9.7168-41.7969 9.76562-39.7217Q9.81445-37.6465 11.1816-36.2305L23.4863-24.0723ZM23.9746-36.6211L20.8984-39.6973L23.4863-42.334Q23.6328-42.4805 23.8037-42.4072Q23.9746-42.334 23.9746-42.1875ZM17.7246-17.5293L103.809-70.3125Q105.273-71.1914 105.591-72.7783Q105.908-74.3652 104.98-75.7324Q104.199-77.1484 102.637-77.4902Q101.074-77.832 99.707-77.002L13.623-24.1699Q12.207-23.291 11.8408-21.7041Q11.4746-20.1172 12.3535-18.75Q13.2324-17.3828 14.7949-17.041Q16.3574-16.6992 17.7246-17.5293ZM15.2344 9.47266L19.9219 9.47266Q24.3164 9.47266 27.1484 8.49609Q29.9805 7.51953 32.0312 6.20117Q34.082 4.88281 35.9619 3.90625Q37.8418 2.92969 40.332 2.92969Q42.2852 2.92969 44.0918 3.90625Q45.8984 4.88281 48.0957 6.20117Q50.293 7.51953 53.3203 8.49609Q56.3477 9.47266 60.7422 9.47266Q65.1367 9.47266 68.1885 8.49609Q71.2402 7.51953 73.4131 6.20117Q75.5859 4.88281 77.417 3.90625Q79.248 2.92969 81.1523 2.92969Q83.6426 2.92969 85.5469 3.90625Q87.4512 4.88281 89.4775 6.20117Q91.5039 7.51953 94.3604 8.49609Q97.2168 9.47266 101.562 9.47266L106.25 9.47266Q107.715 9.47266 108.74 8.44727Q109.766 7.42188 109.766 5.95703Q109.766 4.49219 108.74 3.4668Q107.715 2.44141 106.25 2.44141L101.562 2.44141Q98.9746 2.44141 97.0215 1.46484Q95.0684 0.488281 92.9932-0.830078Q90.918-2.14844 88.1592-3.125Q85.4004-4.10156 81.1523-4.10156Q77.4902-4.10156 74.8047-3.125Q72.1191-2.14844 69.8975-0.830078Q67.6758 0.488281 65.5029 1.46484Q63.3301 2.44141 60.7422 2.44141Q58.1543 2.44141 56.0059 1.46484Q53.8574 0.488281 51.6357-0.830078Q49.4141-2.14844 46.7041-3.125Q43.9941-4.10156 40.332-4.10156Q36.1328-4.10156 33.3496-3.125Q30.5664-2.14844 28.5156-0.830078Q26.4648 0.488281 24.4873 1.46484Q22.5098 2.44141 19.9219 2.44141L15.2344 2.44141Q13.7695 2.44141 12.7441 3.4668Q11.7188 4.49219 11.7188 5.95703Q11.7188 7.42188 12.7441 8.44727Q13.7695 9.47266 15.2344 9.47266Z"/>
  </g>
  <g id="Heavy-S" transform="matrix(1 0 0 1 2577.66 696)">
   <path d="M32.9375-59.6947Q36.8634-59.6947 39.6334-62.4833Q42.4034-65.272 42.4034-69.1722Q42.4034-73.0981 39.6334-75.8624Q36.8634-78.6266 32.9375-78.6266Q29.0603-78.6266 26.2659-75.8624Q23.4715-73.0981 23.4715-69.1722Q23.4715-65.272 26.2659-62.4833Q29.0603-59.6947 32.9375-59.6947ZM23.348-5.2989Q25.4191-6.22936 27.7467-7.46129Q30.0742-8.69322 32.983-9.5979L33.5804-14.3233Q33.6292-14.6163 33.928-14.6651Q34.2267-14.7139 34.3617-14.4698L36.3724-10.3737Q37.2486-10.4944 38.1665-10.5792Q39.0843-10.6639 40.0554-10.6639Q42.3667-10.6639 44.2057-10.2319Q46.0446-9.79988 47.595-9.08505L42.3804-22.7621L42.3804-46.8338Q42.3804-50.4668 39.9278-53.1276Q37.4751-55.7884 32.9863-55.7884L31.0562-55.7884Q28.6005-55.7884 25.7329-55.1221Q22.8652-54.4558 20.2373-51.8394L11.101-42.7519Q9.72832-41.4166 9.76562-39.4509Q9.80293-37.4851 11.101-36.1613L23.348-24.0607ZM23.7211-36.1255L20.4259-39.4322L23.0599-42.1265Q23.264-42.3307 23.4926-42.2344Q23.7211-42.1381 23.7211-41.8994ZM17.2521-17.7483L102.449-70.0013Q103.775-70.788 104.07-72.2251Q104.364-73.6622 103.517-74.9142Q102.805-76.1919 101.386-76.5049Q99.9679-76.8179 98.7275-76.0569L13.5309-23.7781Q12.2416-22.9799 11.9157-21.5428Q11.5899-20.1057 12.3881-18.8652Q13.1748-17.6133 14.5932-17.3003Q16.0117-16.9873 17.2521-17.7483ZM15.0846 8.15887L19.6107 8.15887Q23.9015 8.15887 26.6759 7.19383Q29.4503 6.22879 31.4896 4.92196Q33.5289 3.61512 35.426 2.64432Q37.3232 1.67352 39.8365 1.67352Q41.9509 1.67352 43.7922 2.64432Q45.6334 3.61512 47.7788 4.92196Q49.9242 6.22879 52.8536 7.19383Q55.783 8.15887 60.0622 8.15887Q64.3531 8.15887 67.2953 7.19383Q70.2376 6.22879 72.3701 4.92196Q74.5026 3.61512 76.3625 2.64432Q78.2224 1.67352 80.288 1.67352Q82.8128 1.67352 84.7286 2.64432Q86.6445 3.61512 88.6593 4.92196Q90.6741 6.22879 93.473 7.19383Q96.2718 8.15887 100.514 8.15887L105.051 8.15887Q106.413 8.15887 107.357 7.21415Q108.302 6.26943 108.302 4.91983Q108.302 3.57023 107.357 2.62551Q106.413 1.68079 105.051 1.68079L100.514 1.68079Q97.9028 1.68079 95.9324 0.709991Q93.962-0.260809 91.9041-1.56188Q89.8462-2.86295 87.1335-3.83375Q84.4208-4.80455 80.288-4.80455Q76.6144-4.80455 73.9576-3.83375Q71.3009-2.86295 69.1311-1.56188Q66.9613-0.260809 64.823 0.709991Q62.6847 1.68079 60.0622 1.68079Q57.4513 1.68079 55.3317 0.709991Q53.2121-0.260809 51.0422-1.56188Q48.8724-2.86295 46.197-3.83375Q43.5216-4.80455 39.8365-4.80455Q35.7525-4.80455 33.0212-3.83375Q30.2898-2.86295 28.2506-1.56188Q26.2113-0.260809 24.2222 0.709991Q22.2332 1.68079 19.6107 1.68079L15.0846 1.68079Q13.7234 1.68079 12.7787 2.62551Q11.834 3.57023 11.834 4.91983Q11.834 6.26943 12.7787 7.21415Q13.7234 8.15887 15.0846 8.15887Z"/>
  </g>
  <g id="Bold-S" transform="matrix(1 0 0 1 2281.76 696)">
   <path d="M32.4219-58.96Q36.2061-58.96 38.8794-61.6455Q41.5527-64.3311 41.5527-68.1152Q41.5527-71.8994 38.8794-74.5605Q36.2061-77.2217 32.4219-77.2217Q28.6865-77.2217 25.9888-74.5605Q23.291-71.8994 23.291-68.1152Q23.291-64.3311 25.9888-61.6455Q28.6865-58.96 32.4219-58.96ZM23.1934-6.20117Q25.3418-7.08008 27.5146-8.21533Q29.6875-9.35059 32.2998-10.2295L32.9102-15.1611Q32.959-15.4541 33.2642-15.5029Q33.5693-15.5518 33.6914-15.3076L35.7666-11.1084Q36.6943-11.2549 37.6831-11.3525Q38.6719-11.4502 39.7461-11.4502Q41.748-11.4502 43.3228-11.1084Q44.8975-10.7666 46.2158-10.1807L41.5039-22.6074L41.5039-46.46Q41.5039-49.9512 39.1479-52.5024Q36.792-55.0537 32.4707-55.0537L30.5664-55.0537Q28.1494-55.0537 25.3784-54.4067Q22.6074-53.7598 20.0439-51.2207L11.0107-42.2363Q9.74121-40.9912 9.76562-39.1479Q9.79004-37.3047 11.0107-36.084L23.1934-24.0479ZM23.4375-35.5713L19.8975-39.1357L22.583-41.8945Q22.8516-42.1631 23.1445-42.041Q23.4375-41.9189 23.4375-41.5771ZM16.7236-17.9932L100.928-69.6533Q102.1-70.3369 102.368-71.6064Q102.637-72.876 101.88-73.999Q101.245-75.1221 99.9878-75.4028Q98.7305-75.6836 97.6318-75L13.4277-23.3398Q12.2803-22.6318 11.9995-21.3623Q11.7188-20.0928 12.4268-18.9941Q13.1104-17.8711 14.3677-17.5903Q15.625-17.3096 16.7236-17.9932ZM14.917 6.68945L19.2627 6.68945Q23.4375 6.68945 26.1475 5.7373Q28.8574 4.78516 30.8838 3.49121Q32.9102 2.19727 34.8267 1.23291Q36.7432 0.268555 39.2822 0.268555Q41.5771 0.268555 43.457 1.23291Q45.3369 2.19727 47.4243 3.49121Q49.5117 4.78516 52.3315 5.7373Q55.1514 6.68945 59.3018 6.68945Q63.4766 6.68945 66.2964 5.7373Q69.1162 4.78516 71.2036 3.49121Q73.291 2.19727 75.1831 1.23291Q77.0752 0.268555 79.3213 0.268555Q81.8848 0.268555 83.8135 1.23291Q85.7422 2.19727 87.7441 3.49121Q89.7461 4.78516 92.4805 5.7373Q95.2148 6.68945 99.3408 6.68945L103.711 6.68945Q104.956 6.68945 105.811 5.83496Q106.665 4.98047 106.665 3.75977Q106.665 2.53906 105.811 1.68457Q104.956 0.830078 103.711 0.830078L99.3408 0.830078Q96.7041 0.830078 94.7144-0.134277Q92.7246-1.09863 90.686-2.38037Q88.6475-3.66211 85.9863-4.62646Q83.3252-5.59082 79.3213-5.59082Q75.6348-5.59082 73.0103-4.62646Q70.3857-3.66211 68.2739-2.38037Q66.1621-1.09863 64.0625-0.134277Q61.9629 0.830078 59.3018 0.830078Q56.665 0.830078 54.5776-0.134277Q52.4902-1.09863 50.3784-2.38037Q48.2666-3.66211 45.6299-4.62646Q42.9932-5.59082 39.2822-5.59082Q35.3271-5.59082 32.6538-4.62646Q29.9805-3.66211 27.9541-2.38037Q25.9277-1.09863 23.9258-0.134277Q21.9238 0.830078 19.2627 0.830078L14.917 0.830078Q13.6719 0.830078 12.8174 1.68457Q11.9629 2.53906 11.9629 3.75977Q11.9629 4.98047 12.8174 5.83496Q13.6719 6.68945 14.917 6.68945Z"/>
  </g>
  <g id="Semibold-S" transform="matrix(1 0 0 1 1985.62 696)">
   <path d="M32.0664-58.4534Q35.7528-58.4534 38.3595-61.0679Q40.9662-63.6823 40.9662-67.3865Q40.9662-71.0729 38.3595-73.663Q35.7528-76.253 32.0664-76.253Q28.4288-76.253 25.7977-73.663Q23.1666-71.0729 23.1666-67.3865Q23.1666-63.6823 25.7977-61.0679Q28.4288-58.4534 32.0664-58.4534ZM23.0867-6.82324Q25.2885-7.6666 27.3547-8.73521Q29.4209-9.80381 31.8288-10.6649L32.448-15.7388Q32.4969-16.0317 32.8065-16.0806Q33.1161-16.1294 33.2293-15.8853L35.3489-11.6149Q36.3122-11.7792 37.3499-11.8857Q38.3875-11.9923 39.5328-11.9923Q41.3215-11.9923 42.714-11.7127Q44.1065-11.4331 45.2649-10.936L40.8996-22.5008L40.8996-46.2022Q40.8996-49.5957 38.6103-52.0714Q36.321-54.5472 32.1152-54.5472L30.2287-54.5472Q27.8384-54.5472 25.134-53.9135Q22.4297-53.2799 19.9106-50.7941L10.9485-41.8809Q9.7501-40.6979 9.76562-38.9391Q9.78115-37.1803 10.9485-36.0307L23.0867-24.039ZM23.242-35.1892L19.5331-38.9313L22.2542-41.7346Q22.5672-42.0476 22.9046-41.9077Q23.242-41.7679 23.242-41.355ZM16.3593-18.162L99.8791-69.4134Q100.944-70.0259 101.195-71.1799Q101.446-72.3339 100.751-73.3681Q100.17-74.3845 99.0236-74.643Q97.8773-74.9016 96.8765-74.2713L13.3566-23.0377Q12.3069-22.3919 12.0573-21.2379Q11.8076-20.0839 12.4534-19.083Q13.0659-18.0488 14.2122-17.7903Q15.3584-17.5317 16.3593-18.162ZM14.8015 5.67637L19.0228 5.67637Q23.1176 5.67637 25.7831 4.73311Q28.4486 3.78984 30.4661 2.50479Q32.4836 1.21973 34.4134 0.259814Q36.3433-0.700098 38.9001-0.700098Q41.3194-0.700098 43.226 0.259814Q45.1325 1.21973 47.1799 2.50479Q49.2273 3.78984 51.9716 4.73311Q54.7159 5.67637 58.7774 5.67637Q62.8723 5.67637 65.6077 4.73311Q68.3431 3.78984 70.3994 2.50479Q72.4557 1.21973 74.37 0.259814Q76.2843-0.700098 78.6548-0.700098Q81.2449-0.700098 83.1825 0.259814Q85.1201 1.21973 87.1132 2.50479Q89.1063 3.78984 91.7962 4.73311Q94.4861 5.67637 98.5321 5.67637L102.787 5.67637Q103.952 5.67637 104.744 4.88408Q105.536 4.0918 105.536 2.95996Q105.536 1.82812 104.744 1.03584Q103.952 0.243555 102.787 0.243555L98.5321 0.243555Q95.8776 0.243555 93.8746-0.716357Q91.8715-1.67627 89.8462-2.94468Q87.821-4.21309 85.1954-5.173Q82.5698-6.13291 78.6548-6.13291Q74.9594-6.13291 72.3571-5.173Q69.7548-4.21309 67.683-2.94468Q65.6111-1.67627 63.5382-0.716357Q61.4652 0.243555 58.7774 0.243555Q56.1229 0.243555 54.0578-0.716357Q51.9926-1.67627 49.9208-2.94468Q47.8489-4.21309 45.2389-5.173Q42.6288-6.13291 38.9001-6.13291Q35.0339-6.13291 32.4005-5.173Q29.7672-4.21309 27.7497-2.94468Q25.7322-1.67627 23.7214-0.716357Q21.7105 0.243555 19.0228 0.243555L14.8015 0.243555Q13.6363 0.243555 12.844 1.03584Q12.0518 1.82812 12.0518 2.95996Q12.0518 4.0918 12.844 4.88408Q13.6363 5.67637 14.8015 5.67637Z"/>
  </g>
  <g id="Medium-S" transform="matrix(1 0 0 1 1689.33 696)">
   <path d="M31.7969-58.0693Q35.4092-58.0693 37.9653-60.6299Q40.5215-63.1904 40.5215-66.834Q40.5215-70.4463 37.9653-72.9824Q35.4092-75.5186 31.7969-75.5186Q28.2334-75.5186 25.6528-72.9824Q23.0723-70.4463 23.0723-66.834Q23.0723-63.1904 25.6528-60.6299Q28.2334-58.0693 31.7969-58.0693ZM23.0059-7.29492Q25.248-8.11133 27.2334-9.12939Q29.2188-10.1475 31.4717-10.9951L32.0977-16.1768Q32.1465-16.4697 32.4595-16.5186Q32.7725-16.5674 32.8789-16.3232L35.0322-11.999Q36.0225-12.1768 37.0972-12.29Q38.1719-12.4033 39.3711-12.4033Q40.998-12.4033 42.2524-12.1709Q43.5068-11.9385 44.5439-11.5088L40.4414-22.4199L40.4414-46.0068Q40.4414-49.3262 38.2026-51.7446Q35.9639-54.1631 31.8457-54.1631L29.9727-54.1631Q27.6025-54.1631 24.9487-53.5396Q22.2949-52.916 19.8096-50.4707L10.9014-41.6113Q9.75684-40.4756 9.76562-38.7808Q9.77441-37.0859 10.9014-35.9902L23.0059-24.0322ZM23.0938-34.8994L19.2568-38.7764L22.0049-41.6133Q22.3516-41.96 22.7227-41.8066Q23.0938-41.6533 23.0938-41.1865ZM16.083-18.29L99.084-69.2314Q100.068-69.79 100.306-70.8564Q100.543-71.9229 99.8955-72.8896Q99.3545-73.8252 98.2925-74.0669Q97.2305-74.3086 96.3037-73.7188L13.3027-22.8086Q12.3271-22.21 12.1011-21.1436Q11.875-20.0771 12.4736-19.1504Q13.0322-18.1836 14.0942-17.9419Q15.1562-17.7002 16.083-18.29ZM14.7139 4.9082L18.8408 4.9082Q22.875 4.9082 25.5068 3.97168Q28.1387 3.03516 30.1494 1.75684Q32.1602 0.478516 34.1001-0.478027Q36.04-1.43457 38.6104-1.43457Q41.124-1.43457 43.0508-0.478027Q44.9775 0.478516 46.9946 1.75684Q49.0117 3.03516 51.6987 3.97168Q54.3857 4.9082 58.3799 4.9082Q62.4141 4.9082 65.0854 3.97168Q67.7568 3.03516 69.7896 1.75684Q71.8223 0.478516 73.7534-0.478027Q75.6846-1.43457 78.1494-1.43457Q80.7598-1.43457 82.7041-0.478027Q84.6484 0.478516 86.6348 1.75684Q88.6211 3.03516 91.2773 3.97168Q93.9336 4.9082 97.9189 4.9082L102.086 4.9082Q103.19 4.9082 103.936 4.16309Q104.681 3.41797 104.681 2.35352Q104.681 1.28906 103.936 0.543945Q103.19-0.201172 102.086-0.201172L97.9189-0.201172Q95.251-0.201172 93.2378-1.15771Q91.2246-2.11426 89.2095-3.37256Q87.1943-4.63086 84.5957-5.5874Q81.9971-6.54395 78.1494-6.54395Q74.4473-6.54395 71.8618-5.5874Q69.2764-4.63086 67.2349-3.37256Q65.1934-2.11426 63.1406-1.15771Q61.0879-0.201172 58.3799-0.201172Q55.7119-0.201172 53.6636-1.15771Q51.6152-2.11426 49.5737-3.37256Q47.5322-4.63086 44.9424-5.5874Q42.3525-6.54395 38.6104-6.54395Q34.8115-6.54395 32.2085-5.5874Q29.6055-4.63086 27.5947-3.37256Q25.584-2.11426 23.5664-1.15771Q21.5488-0.201172 18.8408-0.201172L14.7139-0.201172Q13.6094-0.201172 12.8643 0.543945Q12.1191 1.28906 12.1191 2.35352Q12.1191 3.41797 12.8643 4.16309Q13.6094 4.9082 14.7139 4.9082Z"/>
  </g>
  <g id="Regular-S" transform="matrix(1 0 0 1 1393.18 696)">
   <path d="M31.4453-57.5684Q34.9609-57.5684 37.4512-60.0586Q39.9414-62.5488 39.9414-66.1133Q39.9414-69.6289 37.4512-72.0947Q34.9609-74.5605 31.4453-74.5605Q27.9785-74.5605 25.4639-72.0947Q22.9492-69.6289 22.9492-66.1133Q22.9492-62.5488 25.4639-60.0586Q27.9785-57.5684 31.4453-57.5684ZM22.9004-7.91016Q25.1953-8.69141 27.0752-9.64355Q28.9551-10.5957 31.0059-11.4258L31.6406-16.748Q31.6895-17.041 32.0068-17.0898Q32.3242-17.1387 32.4219-16.8945L34.6191-12.5Q35.6445-12.6953 36.7676-12.8174Q37.8906-12.9395 39.1602-12.9395Q40.5762-12.9395 41.6504-12.7686Q42.7246-12.5977 43.6035-12.2559L39.8438-22.3145L39.8438-45.752Q39.8438-48.9746 37.6709-51.3184Q35.498-53.6621 31.4941-53.6621L29.6387-53.6621Q27.2949-53.6621 24.707-53.0518Q22.1191-52.4414 19.6777-50.0488L10.8398-41.2598Q9.76562-40.1855 9.76562-38.5742Q9.76562-36.9629 10.8398-35.9375L22.9004-24.0234ZM22.9004-34.5215L18.8965-38.5742L21.6797-41.4551Q22.0703-41.8457 22.4854-41.6748Q22.9004-41.5039 22.9004-40.9668ZM15.7227-18.457L98.0469-68.9941Q98.9258-69.4824 99.1455-70.4346Q99.3652-71.3867 98.7793-72.2656Q98.291-73.0957 97.3389-73.3154Q96.3867-73.5352 95.5566-72.998L13.2324-22.5098Q12.3535-21.9727 12.1582-21.0205Q11.9629-20.0684 12.5-19.2383Q12.9883-18.3594 13.9404-18.1396Q14.8926-17.9199 15.7227-18.457ZM14.5996 3.90625L18.6035 3.90625Q22.5586 3.90625 25.1465 2.97852Q27.7344 2.05078 29.7363 0.78125Q31.7383-0.488281 33.6914-1.44043Q35.6445-2.39258 38.2324-2.39258Q40.8691-2.39258 42.8223-1.44043Q44.7754-0.488281 46.7529 0.78125Q48.7305 2.05078 51.3428 2.97852Q53.9551 3.90625 57.8613 3.90625Q61.8164 3.90625 64.4043 2.97852Q66.9922 2.05078 68.9941 0.78125Q70.9961-0.488281 72.9492-1.44043Q74.9023-2.39258 77.4902-2.39258Q80.127-2.39258 82.0801-1.44043Q84.0332-0.488281 86.0107 0.78125Q87.9883 2.05078 90.6006 2.97852Q93.2129 3.90625 97.1191 3.90625L101.172 3.90625Q102.197 3.90625 102.881 3.22266Q103.564 2.53906 103.564 1.5625Q103.564 0.585938 102.881-0.0976562Q102.197-0.78125 101.172-0.78125L97.1191-0.78125Q94.4336-0.78125 92.4072-1.7334Q90.3809-2.68555 88.3789-3.93066Q86.377-5.17578 83.8135-6.12793Q81.25-7.08008 77.4902-7.08008Q73.7793-7.08008 71.2158-6.12793Q68.6523-5.17578 66.6504-3.93066Q64.6484-2.68555 62.6221-1.7334Q60.5957-0.78125 57.8613-0.78125Q55.1758-0.78125 53.1494-1.7334Q51.123-2.68555 49.1211-3.93066Q47.1191-5.17578 44.5557-6.12793Q41.9922-7.08008 38.2324-7.08008Q34.5215-7.08008 31.958-6.12793Q29.3945-5.17578 27.3926-3.93066Q25.3906-2.68555 23.3643-1.7334Q21.3379-0.78125 18.6035-0.78125L14.5996-0.78125Q13.5742-0.78125 12.8906-0.0976562Q12.207 0.585938 12.207 1.5625Q12.207 2.53906 12.8906 3.22266Q13.5742 3.90625 14.5996 3.90625Z"/>
  </g>
  <g id="Light-S" transform="matrix(1 0 0 1 1097.26 696)">
   <path d="M30.7945-57.0992Q34.2041-57.0992 36.6187-59.5212Q39.0333-61.9433 39.0333-65.3867Q39.0333-68.7813 36.6187-71.1866Q34.2041-73.5919 30.7945-73.5919Q27.4185-73.5919 24.987-71.1866Q22.5555-68.7813 22.5555-65.3867Q22.5555-61.9433 24.987-59.5212Q27.4185-57.0992 30.7945-57.0992ZM22.522-7.87989Q24.5898-8.66114 26.4394-9.60566Q28.289-10.5502 30.3248-11.35L30.9746-17.2023Q31.0234-17.4952 31.3333-17.544Q31.6432-17.5929 31.7558-17.3487L34.2255-12.4242Q35.0995-12.5743 36.041-12.6736Q36.9825-12.7729 38.0402-12.7729Q39.5317-12.7729 40.727-12.5717Q41.9223-12.3706 42.9225-11.9985L38.9506-22.6473L38.9506-45.3583Q38.9506-48.4901 36.8384-50.7659Q34.7262-53.0416 30.8434-53.0416L29.0484-53.0416Q26.7652-53.0416 24.2606-52.4464Q21.756-51.8511 19.3901-49.5341L10.8096-41.0327Q9.76562-39.9737 9.76562-38.4153Q9.76562-36.8568 10.8096-35.8617L22.522-24.2958ZM22.522-34.476L18.6241-38.4229L21.3315-41.213Q21.6919-41.5733 22.1069-41.4099Q22.522-41.2465 22.522-40.7397ZM15.3745-18.7294L95.2164-67.7378Q95.959-68.1503 96.1258-68.9435Q96.2926-69.7367 95.8125-70.4643Q95.4-71.1583 94.6219-71.3402Q93.8438-71.522 93.1498-71.0757L13.3082-22.1011Q12.5956-21.67 12.4306-20.8768Q12.2655-20.0836 12.7118-19.3896Q13.1246-18.662 13.9027-18.4802Q14.6807-18.2983 15.3745-18.7294ZM14.0396 3.20994L17.7709 3.20994Q21.5747 3.20994 24.1172 2.2747Q26.6596 1.33947 28.6767 0.0774384Q30.6938-1.18459 32.7075-2.13674Q34.7211-3.08889 37.3998-3.08889Q40.1123-3.08889 42.126-2.13674Q44.1396-1.18459 46.1399 0.0774384Q48.1402 1.33947 50.6995 2.2747Q53.2588 3.20994 57.0287 3.20994Q60.8325 3.20994 63.375 2.2747Q65.9175 1.33947 67.9345 0.0774384Q69.9516-1.18459 71.9653-2.13674Q73.9789-3.08889 76.6576-3.08889Q79.3701-3.08889 81.3838-2.13674Q83.3974-1.18459 85.3977 0.0774384Q87.398 1.33947 89.9573 2.2747Q92.5166 3.20994 96.2865 3.20994L100.052 3.20994Q100.88 3.20994 101.435 2.65503Q101.99 2.10012 101.99 1.30514Q101.99 0.510152 101.435-0.0522614Q100.88-0.614675 100.052-0.614675L96.2865-0.614675Q93.5102-0.614675 91.4233-1.56682Q89.3364-2.51897 87.3193-3.76409Q85.3022-5.00921 82.7918-5.96135Q80.2813-6.9135 76.6576-6.9135Q73.068-6.9135 70.5574-5.96135Q68.0468-5.00921 66.0297-3.76409Q64.0127-2.51897 61.9258-1.56682Q59.8389-0.614675 57.0287-0.614675Q54.2524-0.614675 52.1655-1.56682Q50.0786-2.51897 48.0615-3.76409Q46.0444-5.00921 43.534-5.96135Q41.0235-6.9135 37.3998-6.9135Q33.8102-6.9135 31.2996-5.96135Q28.789-5.00921 26.7719-3.76409Q24.7548-2.51897 22.6679-1.56682Q20.5811-0.614675 17.7709-0.614675L14.0396-0.614675Q13.2111-0.614675 12.656-0.0522614Q12.101 0.510152 12.101 1.30514Q12.101 2.10012 12.656 2.65503Q13.2111 3.20994 14.0396 3.20994Z"/>
  </g>
  <g id="Thin-S" transform="matrix(1 0 0 1 801.585 696)">
   <path d="M29.9338-56.4786Q33.2031-56.4786 35.5176-58.8105Q37.8321-61.1425 37.8321-64.4258Q37.8321-67.6602 35.5176-69.9855Q33.2031-72.3107 29.9338-72.3107Q26.6779-72.3107 24.3564-69.9855Q22.0349-67.6602 22.0349-64.4258Q22.0349-61.1425 24.3564-58.8105Q26.6779-56.4786 29.9338-56.4786ZM22.0215-7.83987Q23.7889-8.62112 25.5985-9.55555Q27.4081-10.49 29.4241-11.2498L30.0937-17.803Q30.1425-18.0959 30.4425-18.1448Q30.7424-18.1936 30.8749-17.9495L33.7048-12.324Q34.3787-12.4142 35.0801-12.4834Q35.7814-12.5526 36.5589-12.5526Q38.1503-12.5526 39.5057-12.3114Q40.8611-12.0702 42.0217-11.6581L37.7693-23.0876L37.7693-44.8376Q37.7693-47.8494 35.7374-50.0351Q33.7054-52.2209 29.9826-52.2209L28.2677-52.2209Q26.0646-52.2209 23.6701-51.6457Q21.2757-51.0705 19.0097-48.8533L10.7696-40.7323Q9.76562-39.6935 9.76562-38.2051Q9.76562-36.7166 10.7696-35.7615L22.0215-24.656ZM22.0215-34.4158L18.2639-38.2228L20.8711-40.8928Q21.1914-41.2131 21.6064-41.0596Q22.0215-40.9062 22.0215-40.4393ZM14.914-19.0896L91.4728-66.0763Q92.0351-66.3885 92.132-66.9715Q92.2288-67.5545 91.8886-68.082Q91.5764-68.596 91.0285-68.7278Q90.4807-68.8595 89.9666-68.5332L13.4084-21.5606Q12.9158-21.2698 12.7908-20.6868Q12.6658-20.1038 12.992-19.5897Q13.3049-19.0623 13.8527-18.9305Q14.4006-18.7988 14.914-19.0896ZM13.299 2.28902L16.6697 2.28902Q20.2733 2.28902 22.7558 1.34386Q25.2382 0.398697 27.2753-0.853409Q29.3124-2.10552 31.4061-3.05766Q33.4998-4.00981 36.2986-4.00981Q39.1113-4.00981 41.205-3.05766Q43.2987-2.10552 45.3291-0.853409Q47.3595 0.398697 49.8487 1.34386Q52.3378 2.28902 55.9275 2.28902Q59.5311 2.28902 62.0136 1.34386Q64.496 0.398697 66.5331-0.853409Q68.5702-2.10552 70.6639-3.05766Q72.7576-4.00981 75.5564-4.00981Q78.3691-4.00981 80.4628-3.05766Q82.5565-2.10552 84.5869-0.853409Q86.6174 0.398697 89.1065 1.34386Q91.5957 2.28902 95.1853 2.28902L98.5706 2.28902Q99.1388 2.28902 99.5235 1.9043Q99.9083 1.51958 99.9083 0.964749Q99.9083 0.40992 99.5235 0.00777706Q99.1388-0.394366 98.5706-0.394366L95.1853-0.394366Q92.2889-0.394366 90.122-1.34651Q87.955-2.29866 85.9179-3.54378Q83.8808-4.7889 81.4405-5.74105Q79.0002-6.69319 75.5564-6.69319Q72.1272-6.69319 69.6866-5.74105Q67.246-4.7889 65.2089-3.54378Q63.1718-2.29866 61.0048-1.34651Q58.8379-0.394366 55.9275-0.394366Q53.0311-0.394366 50.8641-1.34651Q48.6972-2.29866 46.6601-3.54378Q44.623-4.7889 42.1827-5.74105Q39.7424-6.69319 36.2986-6.69319Q32.8694-6.69319 30.4288-5.74105Q27.9882-4.7889 25.9511-3.54378Q23.914-2.29866 21.747-1.34651Q19.5801-0.394366 16.6697-0.394366L13.299-0.394366Q12.7308-0.394366 12.3457 0.00777706Q11.9607 0.40992 11.9607 0.964749Q11.9607 1.51958 12.3457 1.9043Q12.7308 2.28902 13.299 2.28902Z"/>
  </g>
  <g id="Ultralight-S" transform="matrix(1 0 0 1 505.407 696)">
   <path d="M29.493-56.1607Q32.6904-56.1607 34.9537-58.4465Q37.2169-60.7323 37.2169-63.9336Q37.2169-67.086 34.9537-69.3703Q32.6904-71.6545 29.493-71.6545Q26.2985-71.6545 24.0334-69.3703Q21.7682-67.086 21.7682-63.9336Q21.7682-60.7323 24.0334-58.4465Q26.2985-56.1607 29.493-56.1607ZM21.7651-7.81937Q23.3788-8.60062 25.1678-9.52988Q26.9569-10.4591 28.9627-11.1984L29.6425-18.1107Q29.6913-18.4036 29.9862-18.4525Q30.2811-18.5013 30.4237-18.2571L33.4381-12.2726Q34.0096-12.3322 34.5879-12.3859Q35.1662-12.4397 35.8002-12.4397Q37.4428-12.4397 38.8802-12.178Q40.3175-11.9164 41.5604-11.4838L37.1643-23.3131L37.1643-44.5709Q37.1643-47.5212 35.1734-49.6609Q33.1825-51.8005 29.5418-51.8005L27.8679-51.8005Q25.7057-51.8005 23.3677-51.2356Q21.0297-50.6706 18.8148-48.5046L10.7491-40.5785Q9.76562-39.55 9.76562-38.0974Q9.76562-36.6447 10.7491-35.7101L21.7651-24.8405ZM21.7651-34.3849L18.0794-38.1203L20.6352-40.7288Q20.9351-41.0286 21.3501-40.8802Q21.7651-40.7318 21.7651-40.2855ZM14.6782-19.2741L89.5554-65.2252Q90.0253-65.4861 90.0864-65.9615Q90.1474-66.4368 89.8788-66.8617Q89.6179-67.2836 89.188-67.3897Q88.7581-67.4957 88.3362-67.231L13.4598-21.2837Q13.0798-21.0648 12.9753-20.5894Q12.8708-20.1141 13.1355-19.6922Q13.3972-19.2673 13.8271-19.1612Q14.257-19.0552 14.6782-19.2741ZM12.9196 1.81732L16.1057 1.81732Q19.6068 1.81732 22.0585 0.867081Q24.5102-0.0831604 26.5575-1.33018Q28.6049-2.57721 30.7396-3.52936Q32.8743-4.48151 35.7346-4.48151Q38.5986-4.48151 40.7333-3.52936Q42.868-2.57721 44.9139-1.33018Q46.9597-0.0831604 49.4129 0.867081Q51.8661 1.81732 55.3635 1.81732Q58.8646 1.81732 61.3163 0.867081Q63.768-0.0831604 65.8154-1.33018Q67.8627-2.57721 69.9974-3.52936Q72.1321-4.48151 74.9924-4.48151Q77.8564-4.48151 79.9911-3.52936Q82.1259-2.57721 84.1717-1.33018Q86.2175-0.0831604 88.6707 0.867081Q91.124 1.81732 94.6213 1.81732L97.8119 1.81732Q98.2468 1.81732 98.5443 1.51978Q98.8419 1.22223 98.8419 0.790405Q98.8419 0.358582 98.5443 0.0385284Q98.2468-0.281525 97.8119-0.281525L94.6213-0.281525Q91.6634-0.281525 89.4554-1.23367Q87.2475-2.18582 85.2001-3.43094Q83.1528-4.67606 80.7484-5.6282Q78.344-6.58035 74.9924-6.58035Q71.6454-6.58035 69.2406-5.6282Q66.8358-4.67606 64.7884-3.43094Q62.7411-2.18582 60.5331-1.23367Q58.3252-0.281525 55.3635-0.281525Q52.4055-0.281525 50.1976-1.23367Q47.9897-2.18582 45.9423-3.43094Q43.895-4.67606 41.4906-5.6282Q39.0862-6.58035 35.7346-6.58035Q32.3875-6.58035 29.9828-5.6282Q27.578-4.67606 25.5306-3.43094Q23.4833-2.18582 21.2753-1.23367Q19.0674-0.281525 16.1057-0.281525L12.9196-0.281525Q12.4847-0.281525 12.1868 0.0385284Q11.8889 0.358582 11.8889 0.790405Q11.8889 1.22223 12.1868 1.51978Q12.4847 1.81732 12.9196 1.81732Z"/>
  </g>
 </g>
</svg>
