<?xml version="1.0" encoding="UTF-8"?>
<!--Generator: Apple Native CoreSVG 175.5-->
<!DOCTYPE svg
PUBLIC "-//W3C//DTD SVG 1.1//EN"
       "http://www.w3.org/Graphics/SVG/1.1/DTD/svg11.dtd">
<svg version="1.1" xmlns="http://www.w3.org/2000/svg" xmlns:xlink="http://www.w3.org/1999/xlink" width="3300" height="2200">
 <!--glyph: "uni10151E.medium", point size: 100.0, font version: "18.0d9e1", template writer version: "84"-->
 <g id="Notes">
  <rect height="2200" id="artboard" style="fill:white;opacity:1" width="3300" x="0" y="0"/>
  <line style="fill:none;stroke:black;opacity:1;stroke-width:0.5;" x1="263" x2="3036" y1="292" y2="292"/>
  <text style="stroke:none;fill:black;font-family:sans-serif;font-size:13;font-weight:bold;" transform="matrix(1 0 0 1 263 322)">Weight/Scale Variations</text>
  <text style="stroke:none;fill:black;font-family:sans-serif;font-size:13;text-anchor:middle;" transform="matrix(1 0 0 1 559.711 322)">Ultralight</text>
  <text style="stroke:none;fill:black;font-family:sans-serif;font-size:13;text-anchor:middle;" transform="matrix(1 0 0 1 856.422 322)">Thin</text>
  <text style="stroke:none;fill:black;font-family:sans-serif;font-size:13;text-anchor:middle;" transform="matrix(1 0 0 1 1153.13 322)">Light</text>
  <text style="stroke:none;fill:black;font-family:sans-serif;font-size:13;text-anchor:middle;" transform="matrix(1 0 0 1 1449.84 322)">Regular</text>
  <text style="stroke:none;fill:black;font-family:sans-serif;font-size:13;text-anchor:middle;" transform="matrix(1 0 0 1 1746.56 322)">Medium</text>
  <text style="stroke:none;fill:black;font-family:sans-serif;font-size:13;text-anchor:middle;" transform="matrix(1 0 0 1 2043.27 322)">Semibold</text>
  <text style="stroke:none;fill:black;font-family:sans-serif;font-size:13;text-anchor:middle;" transform="matrix(1 0 0 1 2339.98 322)">Bold</text>
  <text style="stroke:none;fill:black;font-family:sans-serif;font-size:13;text-anchor:middle;" transform="matrix(1 0 0 1 2636.69 322)">Heavy</text>
  <text style="stroke:none;fill:black;font-family:sans-serif;font-size:13;text-anchor:middle;" transform="matrix(1 0 0 1 2933.4 322)">Black</text>
  <line style="fill:none;stroke:black;opacity:1;stroke-width:0.5;" x1="263" x2="3036" y1="1903" y2="1903"/>
  <g transform="matrix(1 0 0 1 263 1933)">
   <path d="M9.24805 0.830078Q10.8691 0.830078 12.2949 0.214844Q13.7207-0.400391 14.8096-1.49414Q15.8984-2.58789 16.5186-4.01367Q17.1387-5.43945 17.1387-7.05078Q17.1387-8.66211 16.5186-10.0879Q15.8984-11.5137 14.8047-12.6074Q13.7109-13.7012 12.2852-14.3164Q10.8594-14.9316 9.23828-14.9316Q7.62695-14.9316 6.20117-14.3164Q4.77539-13.7012 3.69141-12.6074Q2.60742-11.5137 1.9873-10.0879Q1.36719-8.66211 1.36719-7.05078Q1.36719-5.43945 1.9873-4.01367Q2.60742-2.58789 3.69629-1.49414Q4.78516-0.400391 6.21094 0.214844Q7.63672 0.830078 9.24805 0.830078ZM9.24805-0.654297Q7.91992-0.654297 6.7627-1.14746Q5.60547-1.64062 4.73145-2.51953Q3.85742-3.39844 3.36426-4.56055Q2.87109-5.72266 2.87109-7.05078Q2.87109-8.37891 3.35938-9.54102Q3.84766-10.7031 4.72168-11.582Q5.5957-12.4609 6.75293-12.9541Q7.91016-13.4473 9.23828-13.4473Q10.5762-13.4473 11.7383-12.9541Q12.9004-12.4609 13.7793-11.582Q14.6582-10.7031 15.1514-9.54102Q15.6445-8.37891 15.6445-7.05078Q15.6445-5.72266 15.1514-4.56055Q14.6582-3.39844 13.7793-2.51953Q12.9004-1.64062 11.7432-1.14746Q10.5859-0.654297 9.24805-0.654297ZM5.6543-7.05078Q5.6543-6.72852 5.85938-6.52832Q6.06445-6.32812 6.40625-6.32812L8.51562-6.32812L8.51562-4.20898Q8.51562-3.88672 8.71094-3.67676Q8.90625-3.4668 9.23828-3.4668Q9.56055-3.4668 9.77051-3.67676Q9.98047-3.88672 9.98047-4.20898L9.98047-6.32812L12.0898-6.32812Q12.4219-6.32812 12.627-6.52832Q12.832-6.72852 12.832-7.05078Q12.832-7.38281 12.627-7.58789Q12.4219-7.79297 12.0898-7.79297L9.98047-7.79297L9.98047-9.90234Q9.98047-10.2344 9.77051-10.4443Q9.56055-10.6543 9.23828-10.6543Q8.90625-10.6543 8.71094-10.4443Q8.51562-10.2344 8.51562-9.90234L8.51562-7.79297L6.40625-7.79297Q6.06445-7.79297 5.85938-7.58789Q5.6543-7.38281 5.6543-7.05078Z"/>
  </g>
  <g transform="matrix(1 0 0 1 281.867 1933)">
   <path d="M11.709 2.91016Q13.75 2.91016 15.5518 2.12891Q17.3535 1.34766 18.7305-0.0292969Q20.1074-1.40625 20.8887-3.20801Q21.6699-5.00977 21.6699-7.05078Q21.6699-9.0918 20.8887-10.8936Q20.1074-12.6953 18.7305-14.0723Q17.3535-15.4492 15.5469-16.2305Q13.7402-17.0117 11.6992-17.0117Q9.6582-17.0117 7.85645-16.2305Q6.05469-15.4492 4.68262-14.0723Q3.31055-12.6953 2.5293-10.8936Q1.74805-9.0918 1.74805-7.05078Q1.74805-5.00977 2.5293-3.20801Q3.31055-1.40625 4.6875-0.0292969Q6.06445 1.34766 7.86621 2.12891Q9.66797 2.91016 11.709 2.91016ZM11.709 1.25Q9.98047 1.25 8.47656 0.605469Q6.97266-0.0390625 5.83496-1.17676Q4.69727-2.31445 4.05762-3.81836Q3.41797-5.32227 3.41797-7.05078Q3.41797-8.7793 4.05762-10.2832Q4.69727-11.7871 5.83008-12.9297Q6.96289-14.0723 8.4668-14.7119Q9.9707-15.3516 11.6992-15.3516Q13.4277-15.3516 14.9365-14.7119Q16.4453-14.0723 17.583-12.9297Q18.7207-11.7871 19.3652-10.2832Q20.0098-8.7793 20.0098-7.05078Q20.0098-5.32227 19.3701-3.81836Q18.7305-2.31445 17.5879-1.17676Q16.4453-0.0390625 14.9414 0.605469Q13.4375 1.25 11.709 1.25ZM7.17773-7.05078Q7.17773-6.69922 7.41211-6.47461Q7.64648-6.25 8.01758-6.25L10.8887-6.25L10.8887-3.36914Q10.8887-2.99805 11.1133-2.76855Q11.3379-2.53906 11.6895-2.53906Q12.0605-2.53906 12.29-2.76855Q12.5195-2.99805 12.5195-3.36914L12.5195-6.25L15.4004-6.25Q15.7715-6.25 16.001-6.47461Q16.2305-6.69922 16.2305-7.05078Q16.2305-7.42188 16.001-7.65137Q15.7715-7.88086 15.4004-7.88086L12.5195-7.88086L12.5195-10.752Q12.5195-11.1328 12.29-11.3623Q12.0605-11.5918 11.6895-11.5918Q11.3379-11.5918 11.1133-11.3574Q10.8887-11.123 10.8887-10.752L10.8887-7.88086L8.01758-7.88086Q7.63672-7.88086 7.40723-7.65137Q7.17773-7.42188 7.17773-7.05078Z"/>
  </g>
  <g transform="matrix(1 0 0 1 305.646 1933)">
   <path d="M14.9707 5.66406Q17.0605 5.66406 18.96 5.01465Q20.8594 4.36523 22.4512 3.19336Q24.043 2.02148 25.2197 0.429688Q26.3965-1.16211 27.0459-3.06641Q27.6953-4.9707 27.6953-7.05078Q27.6953-9.14062 27.0459-11.04Q26.3965-12.9395 25.2197-14.5312Q24.043-16.123 22.4512-17.2998Q20.8594-18.4766 18.9551-19.126Q17.0508-19.7754 14.9609-19.7754Q12.8711-19.7754 10.9717-19.126Q9.07227-18.4766 7.48535-17.2998Q5.89844-16.123 4.72168-14.5312Q3.54492-12.9395 2.90039-11.04Q2.25586-9.14062 2.25586-7.05078Q2.25586-4.9707 2.90527-3.06641Q3.55469-1.16211 4.72656 0.429688Q5.89844 2.02148 7.49023 3.19336Q9.08203 4.36523 10.9814 5.01465Q12.8809 5.66406 14.9707 5.66406ZM14.9707 3.84766Q13.1641 3.84766 11.5283 3.2959Q9.89258 2.74414 8.53516 1.74805Q7.17773 0.751953 6.17676-0.610352Q5.17578-1.97266 4.62891-3.6084Q4.08203-5.24414 4.08203-7.05078Q4.08203-8.86719 4.62891-10.5029Q5.17578-12.1387 6.17188-13.501Q7.16797-14.8633 8.52539-15.8594Q9.88281-16.8555 11.5186-17.4023Q13.1543-17.9492 14.9609-17.9492Q16.7773-17.9492 18.4131-17.4023Q20.0488-16.8555 21.4111-15.8594Q22.7734-14.8633 23.7744-13.501Q24.7754-12.1387 25.3223-10.5029Q25.8691-8.86719 25.8691-7.05078Q25.8691-5.24414 25.3223-3.6084Q24.7754-1.97266 23.7793-0.610352Q22.7832 0.751953 21.4209 1.74805Q20.0586 2.74414 18.4229 3.2959Q16.7871 3.84766 14.9707 3.84766ZM9.19922-7.05078Q9.19922-6.66992 9.45801-6.4209Q9.7168-6.17188 10.1172-6.17188L14.0625-6.17188L14.0625-2.2168Q14.0625-1.81641 14.3115-1.55762Q14.5605-1.29883 14.9512-1.29883Q15.3516-1.29883 15.6104-1.55273Q15.8691-1.80664 15.8691-2.2168L15.8691-6.17188L19.8242-6.17188Q20.2246-6.17188 20.4785-6.4209Q20.7324-6.66992 20.7324-7.05078Q20.7324-7.46094 20.4785-7.71484Q20.2246-7.96875 19.8242-7.96875L15.8691-7.96875L15.8691-11.9141Q15.8691-12.3242 15.6104-12.583Q15.3516-12.8418 14.9512-12.8418Q14.5605-12.8418 14.3115-12.583Q14.0625-12.3242 14.0625-11.9141L14.0625-7.96875L10.1172-7.96875Q9.70703-7.96875 9.45312-7.71484Q9.19922-7.46094 9.19922-7.05078Z"/>
  </g>
  <text style="stroke:none;fill:black;font-family:sans-serif;font-size:13;font-weight:bold;" transform="matrix(1 0 0 1 263 1953)">Design Variations</text>
  <text style="stroke:none;fill:black;font-family:sans-serif;font-size:13;" transform="matrix(1 0 0 1 263 1971)">Symbols are supported in up to nine weights and three scales.</text>
  <text style="stroke:none;fill:black;font-family:sans-serif;font-size:13;" transform="matrix(1 0 0 1 263 1989)">For optimal layout with text and other symbols, vertically align</text>
  <text style="stroke:none;fill:black;font-family:sans-serif;font-size:13;" transform="matrix(1 0 0 1 263 2007)">symbols with the adjacent text.</text>
  <line style="fill:none;stroke:#00AEEF;stroke-width:0.5;opacity:1.0;" x1="776" x2="776" y1="1919" y2="1933"/>
  <g transform="matrix(1 0 0 1 776 1933)">
   <path d="M3.31055 0.15625Q3.70117 0.15625 3.91602-0.00976562Q4.13086-0.175781 4.26758-0.585938L5.52734-4.0332L11.2891-4.0332L12.5488-0.585938Q12.6855-0.175781 12.9004-0.00976562Q13.1152 0.15625 13.4961 0.15625Q13.8867 0.15625 14.1162-0.0585938Q14.3457-0.273438 14.3457-0.644531Q14.3457-0.869141 14.2383-1.17188L9.6582-13.3691Q9.48242-13.8184 9.17969-14.043Q8.87695-14.2676 8.4082-14.2676Q7.5-14.2676 7.17773-13.3789L2.59766-1.16211Q2.49023-0.859375 2.49023-0.634766Q2.49023-0.263672 2.70996-0.0537109Q2.92969 0.15625 3.31055 0.15625ZM6.00586-5.51758L8.37891-12.0898L8.42773-12.0898L10.8008-5.51758Z"/>
  </g>
  <line style="fill:none;stroke:#00AEEF;stroke-width:0.5;opacity:1.0;" x1="793.197" x2="793.197" y1="1919" y2="1933"/>
  <text style="stroke:none;fill:black;font-family:sans-serif;font-size:13;font-weight:bold;" transform="matrix(1 0 0 1 776 1953)">Margins</text>
  <text style="stroke:none;fill:black;font-family:sans-serif;font-size:13;" transform="matrix(1 0 0 1 776 1971)">Leading and trailing margins on the left and right side of each symbol</text>
  <text style="stroke:none;fill:black;font-family:sans-serif;font-size:13;" transform="matrix(1 0 0 1 776 1989)">can be adjusted by modifying the x-location of the margin guidelines.</text>
  <text style="stroke:none;fill:black;font-family:sans-serif;font-size:13;" transform="matrix(1 0 0 1 776 2007)">Modifications are automatically applied proportionally to all</text>
  <text style="stroke:none;fill:black;font-family:sans-serif;font-size:13;" transform="matrix(1 0 0 1 776 2025)">scales and weights.</text>
  <g transform="matrix(1 0 0 1 1289 1933)">
   <path d="M2.8418 1.86523L4.54102 3.57422Q5.18555 4.22852 5.90332 4.17969Q6.62109 4.13086 7.31445 3.35938L18.0078-8.42773L17.041-9.4043L6.42578 2.27539Q6.16211 2.57812 5.89355 2.61719Q5.625 2.65625 5.27344 2.30469L4.10156 1.14258Q3.75 0.791016 3.79395 0.522461Q3.83789 0.253906 4.14062-0.0195312L15.6152-10.8203L14.6387-11.7871L3.04688-0.898438Q2.30469-0.214844 2.25098 0.498047Q2.19727 1.21094 2.8418 1.86523ZM9.25781-16.3281Q8.94531-16.0254 8.90625-15.6348Q8.86719-15.2441 9.04297-14.9512Q9.21875-14.6777 9.55566-14.541Q9.89258-14.4043 10.3809-14.5215Q11.4746-14.7754 12.5977-14.7314Q13.7207-14.6875 14.7949-13.9844L14.209-12.5293Q13.9551-11.9043 14.0674-11.4404Q14.1797-10.9766 14.5801-10.5664L16.875-8.25195Q17.2363-7.88086 17.5781-7.82227Q17.9199-7.76367 18.3398-7.8418L19.4043-8.03711L20.0684-7.36328L20.0293-6.80664Q20-6.43555 20.1221-6.12305Q20.2441-5.81055 20.6055-5.44922L21.3672-4.70703Q21.7285-4.3457 22.1533-4.33105Q22.5781-4.31641 22.9297-4.66797L25.8398-7.58789Q26.1914-7.93945 26.1816-8.35449Q26.1719-8.76953 25.8105-9.13086L25.0391-9.89258Q24.6875-10.2539 24.3799-10.3857Q24.0723-10.5176 23.7109-10.4883L23.1348-10.4395L22.4902-11.0742L22.7344-12.1973Q22.832-12.6172 22.6953-12.9834Q22.5586-13.3496 22.1191-13.7891L19.9219-15.9766Q18.6719-17.2168 17.2607-17.8369Q15.8496-18.457 14.4189-18.4814Q12.9883-18.5059 11.665-17.959Q10.3418-17.4121 9.25781-16.3281ZM10.752-15.957Q11.6602-16.6211 12.7002-16.9043Q13.7402-17.1875 14.8047-17.085Q15.8691-16.9824 16.8701-16.5137Q17.8711-16.0449 18.7012-15.2051L21.1328-12.793Q21.3086-12.6172 21.3525-12.4512Q21.3965-12.2852 21.3379-12.0312L21.0156-10.5469L22.5195-9.0625L23.5059-9.12109Q23.6914-9.13086 23.7891-9.09668Q23.8867-9.0625 24.0332-8.91602L24.6094-8.33984L22.168-5.89844L21.5918-6.47461Q21.4453-6.62109 21.4062-6.71875Q21.3672-6.81641 21.377-7.01172L21.4453-7.98828L19.9512-9.47266L18.4277-9.21875Q18.1836-9.16992 18.042-9.2041Q17.9004-9.23828 17.7148-9.41406L15.7129-11.416Q15.5176-11.5918 15.4932-11.7529Q15.4688-11.9141 15.5859-12.1875L16.4648-14.2773Q15.293-15.3711 13.8281-15.791Q12.3633-16.2109 10.8398-15.7617Q10.7227-15.7324 10.6885-15.8057Q10.6543-15.8789 10.752-15.957Z"/>
  </g>
  <text style="stroke:none;fill:black;font-family:sans-serif;font-size:13;font-weight:bold;" transform="matrix(1 0 0 1 1289 1953)">Exporting</text>
  <text style="stroke:none;fill:black;font-family:sans-serif;font-size:13;" transform="matrix(1 0 0 1 1289 1971)">Symbols should be outlined when exporting to ensure the</text>
  <text style="stroke:none;fill:black;font-family:sans-serif;font-size:13;" transform="matrix(1 0 0 1 1289 1989)">design is preserved when submitting to Xcode.</text>
  <text id="template-version" style="stroke:none;fill:black;font-family:sans-serif;font-size:13;text-anchor:end;" transform="matrix(1 0 0 1 3036 1933)">Template v.2.0</text>
  <text style="stroke:none;fill:black;font-family:sans-serif;font-size:13;text-anchor:end;" transform="matrix(1 0 0 1 3036 1951)">Requires Xcode 12 or greater</text>
  <text id="descriptive-name" style="stroke:none;fill:black;font-family:sans-serif;font-size:13;text-anchor:end;" transform="matrix(1 0 0 1 3036 1969)">Generated from figure.climbing</text>
  <text style="stroke:none;fill:black;font-family:sans-serif;font-size:13;text-anchor:end;" transform="matrix(1 0 0 1 3036 1987)">Typeset at 100 points</text>
  <text style="stroke:none;fill:black;font-family:sans-serif;font-size:13;" transform="matrix(1 0 0 1 263 726)">Small</text>
  <text style="stroke:none;fill:black;font-family:sans-serif;font-size:13;" transform="matrix(1 0 0 1 263 1156)">Medium</text>
  <text style="stroke:none;fill:black;font-family:sans-serif;font-size:13;" transform="matrix(1 0 0 1 263 1586)">Large</text>
 </g>
 <g id="Guides">
  <g id="H-reference" style="fill:#27AAE1;stroke:none;" transform="matrix(1 0 0 1 339 696)">
   <path d="M0.993347 0L3.6377 0L29.3282-67.1326L30.0301-67.1326L30.0301-70.459L28.1227-70.459ZM11.6882-24.4797L46.9818-24.4797L46.2311-26.7288L12.4382-26.7288ZM55.1193 0L57.7637 0L30.6381-70.459L29.4327-70.459L29.4327-67.1326Z"/>
  </g>
  <line id="Baseline-S" style="fill:none;stroke:#27AAE1;opacity:1;stroke-width:0.5;" x1="263" x2="3036" y1="696" y2="696"/>
  <line id="Capline-S" style="fill:none;stroke:#27AAE1;opacity:1;stroke-width:0.5;" x1="263" x2="3036" y1="625.541" y2="625.541"/>
  <g id="H-reference" style="fill:#27AAE1;stroke:none;" transform="matrix(1 0 0 1 339 1126)">
   <path d="M0.993347 0L3.6377 0L29.3282-67.1326L30.0301-67.1326L30.0301-70.459L28.1227-70.459ZM11.6882-24.4797L46.9818-24.4797L46.2311-26.7288L12.4382-26.7288ZM55.1193 0L57.7637 0L30.6381-70.459L29.4327-70.459L29.4327-67.1326Z"/>
  </g>
  <line id="Baseline-M" style="fill:none;stroke:#27AAE1;opacity:1;stroke-width:0.5;" x1="263" x2="3036" y1="1126" y2="1126"/>
  <line id="Capline-M" style="fill:none;stroke:#27AAE1;opacity:1;stroke-width:0.5;" x1="263" x2="3036" y1="1055.54" y2="1055.54"/>
  <g id="H-reference" style="fill:#27AAE1;stroke:none;" transform="matrix(1 0 0 1 339 1556)">
   <path d="M0.993347 0L3.6377 0L29.3282-67.1326L30.0301-67.1326L30.0301-70.459L28.1227-70.459ZM11.6882-24.4797L46.9818-24.4797L46.2311-26.7288L12.4382-26.7288ZM55.1193 0L57.7637 0L30.6381-70.459L29.4327-70.459L29.4327-67.1326Z"/>
  </g>
  <line id="Baseline-L" style="fill:none;stroke:#27AAE1;opacity:1;stroke-width:0.5;" x1="263" x2="3036" y1="1556" y2="1556"/>
  <line id="Capline-L" style="fill:none;stroke:#27AAE1;opacity:1;stroke-width:0.5;" x1="263" x2="3036" y1="1485.54" y2="1485.54"/>
  <line id="left-margin" style="fill:none;stroke:#00AEEF;stroke-width:0.5;opacity:1.0;" x1="1386.27" x2="1386.27" y1="1030.79" y2="1150.12"/>
  <line id="right-margin" style="fill:none;stroke:#00AEEF;stroke-width:0.5;opacity:1.0;" x1="1513.41" x2="1513.41" y1="1030.79" y2="1150.12"/>
 </g>
 <g id="Symbols">
  <g id="Black-L" transform="matrix(1 0 0 1 2845.96 1556)">
   <path d="M143.337-65.8891Q149.762-65.8891 154.284-70.4506Q158.805-75.0121 158.805-81.3976Q158.805-87.822 154.284-92.3438Q149.762-96.8657 143.337-96.8657Q136.952-96.8657 132.39-92.3438Q127.829-87.822 127.829-81.3976Q127.829-75.0121 132.39-70.4506Q136.952-65.8891 143.337-65.8891ZM24.0914-45.3304L56.4555-45.3304L74.0546-29.4242Q74.692-28.8649 74.4129-28.1173Q74.1338-27.3697 73.2564-27.3697L53.3735-27.3697Q51.7531-27.3697 50.0951-26.8707Q48.4372-26.3718 47.1605-25.1148L22.712-0.505442Q20.3755 1.83109 20.3352 5.07524Q20.295 8.31938 22.712 10.7155Q25.0277 13.052 28.2828 13.0514Q31.538 13.0508 33.8745 10.7155L55.5272-10.9163L81.837-6.54322Q88.5478-5.44054 95.0194-7.50265Q101.491-9.56475 106.397-14.4919L121.033-29.13Q121.588-29.6642 122.124-29.4373Q122.66-29.2105 122.66-28.5686L122.66-19.2886L104.682-1.30845Q102.367 1.02808 102.396 4.27283Q102.425 7.51758 104.682 9.85411Q107.018 12.1906 110.412 12.1906Q113.667 12.1906 116.003 9.85411L136.298-10.4417Q138.635-12.7783 138.635-16.0334L138.635-46.2573Q138.635-53.3602 134.334-57.5636L96.5272-95.1891L96.5272-72.6471L109.601-59.6527Q110.92-58.4127 109.659-57.1483L92.5252-40.0143L64.084-59.9454Q62.2248-61.2441 59.3098-61.2441L24.0914-61.2441Q20.7558-61.2441 18.4199-58.9373Q16.084-56.6306 16.084-53.3379Q16.084-50.0827 18.4199-47.7066Q20.7558-45.3304 24.0914-45.3304ZM96.7738 23.4759Q102.246 23.4759 106.598 20.8824Q110.951 18.289 113.506 13.9185Q116.062 9.54797 116.025 4.25505L104.635 4.25505Q104.669 7.73002 102.508 9.89746Q100.347 12.0649 96.7738 12.0649Q93.1789 12.0649 91.0751 10.1556Q88.9714 8.24625 88.9714 4.28323L88.9714-122.118Q88.9714-124.53 87.319-126.183Q85.6666-127.835 83.2757-127.835Q80.864-127.835 79.2122-126.183Q77.5604-124.53 77.5604-122.118L77.5604 4.28323Q77.5604 13.1138 83.16 18.2948Q88.7595 23.4759 96.7738 23.4759ZM110.332 57.2956Q112.685 57.2956 114.355 55.6244Q116.026 53.9532 116.026 51.5791L116.026-28.488L104.636-28.488L104.636 51.5791Q104.636 53.9532 106.307 55.6244Q107.978 57.2956 110.332 57.2956Z"/>
  </g>
  <g id="Heavy-L" transform="matrix(1 0 0 1 2550.62 1556)">
   <path d="M141.03-65.3679Q147.272-65.3679 151.659-69.7927Q156.047-74.2174 156.047-80.4391Q156.047-86.681 151.659-91.0683Q147.272-95.4556 141.03-95.4556Q134.809-95.4556 130.384-91.0683Q125.959-86.681 125.959-80.4391Q125.959-74.2174 130.384-69.7927Q134.809-65.3679 141.03-65.3679ZM23.7346-45.59L55.7837-45.59L73.7802-29.3282Q74.3955-28.7822 74.1253-28.0613Q73.855-27.3405 73.0041-27.3405L52.646-27.3405Q51.0758-27.3405 49.4912-26.862Q47.9065-26.3835 46.6938-25.1953L22.5526-0.893258Q20.3214 1.33796 20.2812 4.43349Q20.241 7.52903 22.5526 9.81043Q24.7536 12.0416 27.867 12.0388Q30.9805 12.036 33.2117 9.81043L54.6806-11.6283L80.7801-7.30486Q87.3404-6.22034 93.6823-8.23007Q100.024-10.2398 104.812-15.0577L119.378-29.6346Q120.025-30.2515 120.665-29.9832Q121.305-29.715 121.305-28.9304L121.305-19.5196L103.482-1.69189Q101.287 0.539321 101.309 3.63769Q101.332 6.73605 103.482 8.96727Q105.713 11.1984 108.952 11.1984Q112.065 11.1984 114.291 8.96727L134.32-11.0617Q136.551-13.2929 136.551-16.4062L136.551-46.2412Q136.551-53.1296 132.392-57.2238L94.4683-94.9567L94.4683-73.4443L108.384-59.6029Q109.81-58.2521 108.429-56.8543L91.3189-39.7441L63.0737-59.5322Q61.2734-60.7807 58.5007-60.7807L23.7346-60.7807Q20.5408-60.7807 18.3124-58.5746Q16.084-56.3686 16.084-53.2407Q16.084-50.1273 18.3124-47.8587Q20.5408-45.59 23.7346-45.59ZM95.4903 22.1091Q100.758 22.1091 104.945 19.6172Q109.132 17.1252 111.581 12.9219Q114.029 8.71849 113.991 3.60161L103.735 3.60161Q103.762 7.21987 101.47 9.52127Q99.1789 11.8227 95.4903 11.8227Q91.795 11.8227 89.5426 9.78761Q87.2902 7.75254 87.2902 3.65276L87.2902-121.575Q87.2902-123.74 85.7926-125.238Q84.2949-126.736 82.1593-126.736Q79.9936-126.736 78.4987-125.238Q77.0038-123.74 77.0038-121.575L77.0038 3.65276Q77.0038 12.1557 82.3786 17.1324Q87.7533 22.1091 95.4903 22.1091ZM108.871 56.1964Q110.993 56.1964 112.495 54.6915Q113.997 53.1866 113.997 51.0353L113.997-28.2149L103.741-28.2149L103.741 51.0353Q103.741 53.1866 105.246 54.6915Q106.75 56.1964 108.871 56.1964Z"/>
  </g>
  <g id="Bold-L" transform="matrix(1 0 0 1 2255.65 1556)">
   <path d="M138.112-64.7448Q144.131-64.7448 148.353-69.0005Q152.575-73.2562 152.575-79.2705Q152.575-85.2895 148.353-89.5116Q144.131-93.7336 138.112-93.7336Q132.098-93.7336 127.842-89.5116Q123.586-85.2895 123.586-79.2705Q123.586-73.2562 127.842-69.0005Q132.098-64.7448 138.112-64.7448ZM23.3114-45.8456L54.909-45.8456L73.3153-29.2128Q73.8926-28.6896 73.6376-28.0108Q73.3826-27.332 72.5773-27.332L51.7172-27.332Q50.2085-27.332 48.7085-26.8803Q47.2086-26.4286 46.0728-25.3175L22.3529-1.43682Q20.2449 0.671234 20.2047 3.58983Q20.1645 6.50843 22.3529 8.65879Q24.4229 10.7668 27.3671 10.7602Q30.3113 10.7535 32.4193 8.65879L53.6132-12.497L79.3918-8.24253Q85.7676-7.18098 91.9445-9.12545Q98.1214-11.0699 102.763-15.7495L117.2-30.2124Q117.947-30.9218 118.699-30.6073Q119.45-30.2928 119.45-29.3538L119.45-19.8263L101.865-2.2279Q99.8083-0.11985 99.8229 2.80541Q99.8375 5.73068 101.865 7.83873Q103.973 9.94655 107.027 9.94655Q109.971 9.94655 112.066 7.83873L131.735-11.8301Q133.843-13.9381 133.843-16.8821L133.843-46.1884Q133.843-52.8154 129.853-56.7714L91.8278-94.5978L91.8278-74.3012L106.729-59.4668Q108.263-58.0002 106.759-56.4557L89.7313-39.4284L61.7988-58.995Q60.0753-60.1821 57.4645-60.1821L23.3114-60.1821Q20.2867-60.1821 18.1854-58.0953Q16.084-56.0085 16.084-53.0732Q16.084-50.129 18.1854-47.9873Q20.2867-45.8456 23.3114-45.8456ZM93.8028 20.3366Q98.802 20.3366 102.771 17.9863Q106.739 15.6361 109.053 11.6625Q111.367 7.68887 111.344 2.81712L102.509 2.81712Q102.506 6.58228 100.06 9.02283Q97.615 11.4634 93.8028 11.4634Q89.9846 11.4634 87.5552 9.27829Q85.1259 7.09318 85.1259 2.82435L85.1259-120.645Q85.1259-122.504 83.8241-123.806Q82.5222-125.108 80.7016-125.108Q78.8433-125.108 77.548-123.806Q76.2527-122.504 76.2527-120.645L76.2527 2.82435Q76.2527 10.9127 81.3359 15.6246Q86.419 20.3366 93.8028 20.3366ZM106.946 54.5681Q108.776 54.5681 110.067 53.2706Q111.357 51.9731 111.357 50.1059L111.357-27.8694L102.522-27.8694L102.522 50.1059Q102.522 51.9731 103.82 53.2706Q105.117 54.5681 106.946 54.5681Z"/>
  </g>
  <g id="Semibold-L" transform="matrix(1 0 0 1 1960.13 1556)">
   <path d="M136.101-64.3152Q141.966-64.3152 146.074-68.4544Q150.182-72.5935 150.182-78.4649Q150.182-84.3303 146.074-88.4384Q141.966-92.5465 136.101-92.5465Q130.229-92.5465 126.09-88.4384Q121.951-84.3303 121.951-78.4649Q121.951-72.5935 126.09-68.4544Q130.229-64.3152 136.101-64.3152ZM23.0196-46.0218L54.306-46.0218L72.9948-29.1332Q73.5459-28.6259 73.3014-27.976Q73.0569-27.3262 72.2831-27.3262L51.0768-27.3262Q49.6105-27.3262 48.169-26.8929Q46.7274-26.4597 45.6446-25.4018L22.2153-1.81154Q20.1921 0.211601 20.1519 3.00821Q20.1117 5.80483 22.2153 7.86486Q24.1949 9.888 27.0224 9.87868Q29.8499 9.86937 31.8731 7.86486L52.8773-13.0958L78.4347-8.88895Q84.6833-7.84324 90.7464-9.74272Q96.8095-11.6422 101.35-16.2264L115.698-30.6108Q116.514-31.3839 117.343-31.0376Q118.172-30.6912 118.172-29.6457L118.172-20.0377L100.75-2.59742Q98.789-0.574279 98.7983 2.23165Q98.8076 5.03758 100.75 7.06072Q102.773 9.08355 105.7 9.08355Q108.527 9.08355 110.532 7.06072L129.952-12.3598Q131.975-14.383 131.975-17.2102L131.975-46.152Q131.975-52.5988 128.102-56.4596L90.0075-94.3504L90.0075-74.892L105.588-59.373Q107.197-57.8265 105.607-56.1809L88.6367-39.2108L60.92-58.6247Q59.2494-59.7694 56.7501-59.7694L23.0196-59.7694Q20.1116-59.7694 18.0978-57.7648Q16.084-55.7603 16.084-52.9577Q16.084-50.1302 18.0978-48.076Q20.1116-46.0218 23.0196-46.0218ZM92.6395 19.1147Q97.4536 19.1147 101.271 16.8621Q105.089 14.6094 107.311 10.7943Q109.532 6.97906 109.519 2.2763L101.664 2.2763Q101.64 6.14272 99.0882 8.67921Q96.5368 11.2157 92.6395 11.2157Q88.7365 11.2157 86.1852 8.92716Q83.6338 6.63862 83.6338 2.25326L83.6338-120.005Q83.6338-121.651 82.467-122.818Q81.3002-123.985 79.6966-123.985Q78.0502-123.985 76.8926-122.818Q75.7349-121.651 75.7349-120.005L75.7349 2.25326Q75.7349 10.0558 80.617 14.5852Q85.4991 19.1147 92.6395 19.1147ZM105.619 53.4456Q107.247 53.4456 108.393 52.291Q109.538 51.1365 109.538 49.4651L109.538-27.6311L101.682-27.6311L101.682 49.4651Q101.682 51.1365 102.837 52.291Q103.991 53.4456 105.619 53.4456Z"/>
  </g>
  <g id="Medium-L" transform="matrix(1 0 0 1 1664.33 1556)">
   <path d="M134.576-63.9895Q140.324-63.9895 144.346-68.0403Q148.367-72.0911 148.367-77.8541Q148.367-83.603 144.346-87.6247Q140.324-91.6464 134.576-91.6464Q128.812-91.6464 124.761-87.6247Q120.711-83.603 120.711-77.8541Q120.711-72.0911 124.761-68.0403Q128.812-63.9895 134.576-63.9895ZM22.7984-46.1554L53.8488-46.1554L72.7518-29.0729Q73.2831-28.5775 73.0465-27.9496Q72.81-27.3217 72.0601-27.3217L50.5913-27.3217Q49.1571-27.3217 47.7599-26.9025Q46.3626-26.4833 45.32-25.4657L22.1109-2.09567Q20.1521-0.136913 20.1119 2.56721Q20.0717 5.27133 22.1109 7.26287Q24.022 9.22162 26.7611 9.2103Q29.5001 9.19898 31.4589 7.26287L52.3193-13.5499L77.709-9.3791Q83.8612-8.34539 89.838-10.2108Q95.8148-12.0761 100.279-16.588L114.559-30.9128Q115.428-31.7343 116.316-31.3638Q117.203-30.9932 117.203-29.867L117.203-20.1981L99.9046-2.8776Q98.0161-0.918845 98.0214 1.7966Q98.0266 4.51204 99.9046 6.4708Q101.863 8.42918 104.693 8.42918Q107.432 8.42918 109.369 6.4708L128.601-12.7615Q130.56-14.7203 130.56-17.459L130.56-46.1244Q130.56-52.4346 126.775-56.2231L88.6273-94.1628L88.6273-75.3399L104.723-59.3019Q106.388-57.6948 104.734-55.9726L87.8068-39.0458L60.2536-58.344Q58.6231-59.4565 56.2084-59.4565L22.7984-59.4565Q19.9789-59.4565 18.0314-57.5143Q16.084-55.5721 16.084-52.8702Q16.084-50.1311 18.0314-48.1432Q19.9789-46.1554 22.7984-46.1554ZM91.7574 18.1881Q96.4311 18.1881 100.135 16.0096Q103.839 13.831 105.99 10.1359Q108.141 6.44085 108.136 1.86623L101.023 1.86623Q100.983 5.80944 98.3512 8.41867Q95.7193 11.0279 91.7574 11.0279Q87.7901 11.0279 85.1463 8.66092Q82.5025 6.29395 82.5025 1.82023L82.5025-119.519Q82.5025-121.004 81.438-122.069Q80.3735-123.134 78.9347-123.134Q77.4489-123.134 76.3956-122.069Q75.3422-121.004 75.3422-119.519L75.3422 1.82023Q75.3422 9.40599 80.0719 13.7971Q84.8016 18.1881 91.7574 18.1881ZM104.613 52.5944Q106.089 52.5944 107.123 51.5483Q108.158 50.5022 108.158 48.9793L108.158-27.4505L101.046-27.4505L101.046 48.9793Q101.046 50.5022 102.092 51.5483Q103.138 52.5944 104.613 52.5944Z"/>
  </g>
  <g id="Regular-L" transform="matrix(1 0 0 1 1368.8 1556)">
   <path d="M132.586-63.5647Q138.182-63.5647 142.091-67.5002Q146.001-71.4357 146.001-77.0573Q146.001-82.6543 142.091-86.5633Q138.182-90.4723 132.586-90.4723Q126.964-90.4723 123.028-86.5633Q119.093-82.6543 119.093-77.0573Q119.093-71.4357 123.028-67.5002Q126.964-63.5647 132.586-63.5647ZM22.5098-46.3297L53.2525-46.3297L72.4348-28.9942Q72.9402-28.5144 72.714-27.9152Q72.4878-27.3159 71.7691-27.3159L49.958-27.3159Q48.5657-27.3159 47.2262-26.915Q45.8867-26.514 44.8966-25.549L21.9747-2.46628Q20.0999-0.591496 20.0597 1.99198Q20.0195 4.57546 21.9747 6.47766Q23.7965 8.35244 26.4202 8.3385Q29.0439 8.32456 30.9187 6.47766L51.5915-14.1422L76.7624-10.0184Q82.7888-9.00037 88.6531-10.8212Q94.5173-12.6421 98.8823-17.0597L113.074-31.3068Q114.011-32.1914 114.975-31.7893Q115.939-31.3872 115.939-30.1558L115.939-20.4072L98.8019-3.24306Q97.008-1.36828 97.008 1.22914Q97.008 3.82655 98.8019 5.70134Q100.677 7.57566 103.381 7.57566Q106.004 7.57566 107.852 5.70134L126.838-13.2855Q128.713-15.1602 128.713-17.7835L128.713-46.0884Q128.713-52.2204 125.044-55.9147L86.827-93.9181L86.827-75.9242L103.595-59.2091Q105.334-57.5231 103.595-55.7008L86.7244-38.8305L59.3844-57.9777Q57.8062-59.0483 55.5019-59.0483L22.5098-59.0483Q19.8057-59.0483 17.9448-57.1875Q16.084-55.3266 16.084-52.7559Q16.084-50.1323 17.9448-48.231Q19.8057-46.3297 22.5098-46.3297ZM90.6069 16.9796Q95.0976 16.9796 98.6522 14.8977Q102.207 12.8157 104.266 9.27727Q106.326 5.73884 106.331 1.33135L100.187 1.33135Q100.127 5.37472 97.3898 8.07882Q94.653 10.7829 90.6069 10.7829Q86.5557 10.7829 83.7913 8.31366Q81.0268 5.84439 81.0268 1.25541L81.0268-118.885Q81.0268-120.161 80.0959-121.092Q79.1649-122.024 77.9408-122.024Q76.6646-122.024 75.7474-121.092Q74.8301-120.161 74.8301-118.885L74.8301 1.25541Q74.8301 8.55848 79.361 12.7691Q83.8919 16.9796 90.6069 16.9796ZM103.3 51.4842Q104.577 51.4842 105.468 50.5795Q106.359 49.6748 106.359 48.3456L106.359-27.2149L100.215-27.2149L100.215 48.3456Q100.215 49.6748 101.12 50.5795Q102.024 51.4842 103.3 51.4842Z"/>
  </g>
  <g id="Light-L" transform="matrix(1 0 0 1 1073.47 1556)">
   <path d="M130.181-63.2783Q135.644-63.2783 139.448-67.0994Q143.252-70.9204 143.252-76.3702Q143.252-81.8337 139.448-85.6377Q135.644-89.4417 130.181-89.4417Q124.731-89.4417 120.91-85.6377Q117.089-81.8337 117.089-76.3702Q117.089-70.9204 120.91-67.0994Q124.731-63.2783 130.181-63.2783ZM22.3379-46.0815L52.3745-46.0815L71.3087-28.9368Q71.7188-28.5144 71.5308-28.0011Q71.3428-27.4878 70.7385-27.4878L49.1374-27.4878Q47.7833-27.4878 46.4629-27.1154Q45.1425-26.743 44.1905-25.7779L21.8221-3.24868Q19.9855-1.41205 19.9453 1.09511Q19.905 3.60227 21.8221 5.48523Q23.6246 7.32185 26.172 7.29829Q28.7194 7.27473 30.556 5.48523L50.7328-14.6575L75.2928-10.6293Q81.2048-9.63014 86.9258-11.4034Q92.6469-13.1766 96.9164-17.4794L110.746-31.4023Q111.664-32.2869 112.599-31.8848Q113.534-31.4827 113.534-30.2895L113.534-20.7506L96.836-4.00654Q95.0806-2.16992 95.0806 0.360802Q95.0806 2.89152 96.836 4.72815Q98.6726 6.56399 101.3 6.56399Q103.848 6.56399 105.638 4.72815L124.185-13.82Q126.022-15.6566 126.022-18.2032L126.022-45.8402Q126.022-51.8196 122.429-55.3994L84.4224-93.212L84.4224-75.676L101.495-58.6365Q103.158-57.0078 101.495-55.2045L85.0258-38.735L58.3539-57.4432Q56.8519-58.4756 54.5669-58.4756L22.3379-58.4756Q19.7101-58.4756 17.897-56.6625Q16.084-54.8495 16.084-52.3362Q16.084-49.7888 17.897-47.9352Q19.7101-46.0815 22.3379-46.0815ZM88.8128 15.243Q93.0171 15.243 96.3332 13.3614Q99.6493 11.4798 101.604 8.24668Q103.559 5.01352 103.678 0.94977L98.6218 0.94977Q98.4089 4.89758 95.6148 7.52537Q92.8208 10.1532 88.8128 10.1532Q84.6853 10.1532 81.8446 7.61703Q79.0038 5.08091 79.0038 0.377452L79.0038-116.595Q79.0038-117.642 78.2351-118.411Q77.4664-119.18 76.452-119.18Q75.4051-119.18 74.6596-118.411Q73.914-117.642 73.914-116.595L73.914 0.377452Q73.914 7.33711 78.1585 11.29Q82.4031 15.243 88.8128 15.243ZM101.22 48.6406Q102.268 48.6406 102.996 47.8885Q103.725 47.1364 103.725 46.0555L103.725-26.9285L98.6689-26.9285L98.6689 46.0555Q98.6689 47.1364 99.421 47.8885Q100.173 48.6406 101.22 48.6406Z"/>
  </g>
  <g id="Thin-L" transform="matrix(1 0 0 1 778.571 1556)">
   <path d="M127.001-62.8996Q132.287-62.8996 135.952-66.5693Q139.617-70.2389 139.617-75.4613Q139.617-80.7484 135.952-84.4136Q132.287-88.0787 127.001-88.0787Q121.777-88.0787 118.108-84.4136Q114.438-80.7484 114.438-75.4613Q114.438-70.2389 118.108-66.5693Q121.777-62.8996 127.001-62.8996ZM22.1106-45.7532L51.2133-45.7532L69.8193-28.8609Q70.1034-28.5144 69.9659-28.1148Q69.8283-27.7151 69.3755-27.7151L48.0522-27.7151Q46.7485-27.7151 45.4534-27.3804Q44.1582-27.0458 43.2566-26.0807L21.6202-4.28347Q19.8341-2.49731 19.7938-0.0910811Q19.7536 2.31515 21.6202 4.17266Q23.3973 5.95882 25.8437 5.92253Q28.2902 5.88625 30.0763 4.17266L49.5971-15.339L73.3492-11.4372Q79.1098-10.4631 84.6415-12.1733Q90.1732-13.8836 94.3163-18.0346L107.666-31.5287Q108.559-32.4133 109.457-32.0112Q110.354-31.6091 110.354-30.4663L110.354-21.2048L94.2359-5.01631Q92.5313-3.23015 92.5313-0.787642Q92.5313 1.65487 94.2359 3.44102Q96.022 5.22597 98.5489 5.22597Q100.995 5.22597 102.71 3.44102L120.677-14.527Q122.463-16.3131 122.463-18.7583L122.463-45.512Q122.463-51.2895 118.971-54.7179L81.2422-92.2782L81.2422-75.3478L98.7188-57.879Q100.281-56.3263 98.7188-54.548L82.7794-38.6086L56.9908-56.7362Q55.5898-57.7182 53.3302-57.7182L22.1106-57.7182Q19.5837-57.7182 17.8339-55.9683Q16.084-54.2184 16.084-51.7811Q16.084-49.3346 17.8339-47.5439Q19.5837-45.7532 22.1106-45.7532ZM86.44 12.9461Q90.2656 12.9461 93.2662 11.3296Q96.2667 9.71307 98.0828 6.88365Q99.8989 4.05422 100.17 0.445099L96.5518 0.445099Q96.137 4.26653 93.2673 6.79339Q90.3975 9.32024 86.44 9.32024Q82.2116 9.32024 79.2699 6.69569Q76.3282 4.07114 76.3282-0.783715L76.3282-113.566Q76.3282-114.31 75.7741-114.864Q75.22-115.419 74.4829-115.419Q73.7393-115.419 73.2208-114.864Q72.7024-114.31 72.7024-113.566L72.7024-0.783715Q72.7024 5.72173 76.5682 9.33391Q80.434 12.9461 86.44 12.9461ZM98.4685 44.8797Q99.2133 44.8797 99.7272 44.3295Q100.241 43.7793 100.241 43.0266L100.241-26.5498L96.6244-26.5498L96.6244 43.0266Q96.6244 43.7793 97.1746 44.3295Q97.7248 44.8797 98.4685 44.8797Z"/>
  </g>
  <g id="Ultralight-L" transform="matrix(1 0 0 1 482.791 1556)">
   <path d="M125.372-62.7056Q130.568-62.7056 134.162-66.2977Q137.755-69.8898 137.755-74.9958Q137.755-80.1926 134.162-83.7866Q130.568-87.3805 125.372-87.3805Q120.265-87.3805 116.673-83.7866Q113.081-80.1926 113.081-74.9958Q113.081-69.8898 116.673-66.2977Q120.265-62.7056 125.372-62.7056ZM21.9942-45.5851L50.6186-45.5851L69.0564-28.822Q69.2761-28.5144 69.1644-28.173Q69.0527-27.8315 68.6774-27.8315L47.4963-27.8315Q46.2185-27.8315 44.9363-27.5162Q43.654-27.2009 42.7783-26.2358L21.5168-4.81348Q19.7565-3.05317 19.7163-0.698641Q19.6761 1.65589 21.5168 3.50037Q23.2809 5.26068 25.6756 5.21788Q28.0704 5.17508 29.8307 3.50037L49.0154-15.6881L72.3537-11.851Q78.0367-10.8897 83.4714-12.5677Q88.9061-14.2457 92.9845-18.3189L106.089-31.5934Q106.969-32.478 107.847-32.0759Q108.725-31.6738 108.725-30.5569L108.725-21.4374L92.9041-5.53351Q91.2256-3.7732 91.2256-1.37587Q91.2256 1.02146 92.9041 2.78177Q94.6644 4.54065 97.1396 4.54065Q99.5343 4.54065 101.21 2.78177L118.88-14.8891Q120.64-16.6494 120.64-19.0427L120.64-45.3439Q120.64-51.018 117.2-54.3688L79.6133-91.7998L79.6133-75.1796L97.2967-57.4911Q98.8068-55.9772 97.2967-54.2117L81.6288-38.5439L56.2927-56.3741Q54.9434-57.3302 52.6968-57.3302L21.9942-57.3302Q19.519-57.3302 17.8015-55.6127Q16.084-53.8952 16.084-51.4967Q16.084-49.102 17.8015-47.3436Q19.519-45.5851 21.9942-45.5851ZM85.2247 11.7696Q88.8563 11.7696 91.6953 10.2889Q94.5342 8.80814 96.2793 6.18551Q98.0243 3.56287 98.3728 0.186609L95.4916 0.186609Q94.9733 3.94331 92.0648 6.41847Q89.1563 8.89363 85.2247 8.89363Q80.9446 8.89363 77.9512 6.22379Q74.9578 3.55394 74.9578-1.37846L74.9578-112.015Q74.9578-112.603 74.5136-113.048Q74.0693-113.493 73.4744-113.493Q72.886-113.493 72.4839-113.048Q72.0818-112.603 72.0818-112.015L72.0818-1.37846Q72.0818 4.89435 75.7536 8.33199Q79.4255 11.7696 85.2247 11.7696ZM97.0591 42.9534Q97.6489 42.9534 98.0529 42.5066Q98.4569 42.0598 98.4569 41.4752L98.4569-26.3558L95.5772-26.3558L95.5772 41.4752Q95.5772 42.0598 96.024 42.5066Q96.4708 42.9534 97.0591 42.9534Z"/>
  </g>
  <g id="Black-M" transform="matrix(1 0 0 1 2864.65 1126)">
   <path d="M112.706-59.3918Q117.822-59.3918 121.427-63.0279Q125.032-66.6639 125.032-71.7285Q125.032-76.8445 121.427-80.4492Q117.822-84.0539 112.706-84.0539Q107.642-84.0539 104.006-80.4492Q100.37-76.8445 100.37-71.7285Q100.37-66.6639 104.006-63.0279Q107.642-59.3918 112.706-59.3918ZM18.948-42.7984L44.1969-42.7984L57.4564-30.8066Q57.9563-30.3696 57.7376-29.7791Q57.519-29.1885 56.832-29.1885L41.8647-29.1885Q40.5714-29.1885 39.2264-28.7883Q37.8815-28.3881 36.8426-27.355L17.7122-8.10002Q15.8167-6.20446 15.7855-3.57371Q15.7544-0.942956 17.7122 1.00941Q19.6023 2.90497 22.2356 2.90511Q24.869 2.90525 26.7646 1.00941L43.6304-15.851L64.1117-12.4332Q69.4247-11.5659 74.5305-13.202Q79.6363-14.8382 83.5265-18.7338L94.8765-30.0833Q95.2248-30.4261 95.5473-30.2859Q95.8697-30.1456 95.8697-29.7762L95.8697-22.7273L81.8655-8.72334Q79.9751-6.82779 80.0037-4.19718Q80.0322-1.56657 81.8655 0.328984Q83.761 2.22454 86.5138 2.22454Q89.1472 2.22454 91.043 0.328984L106.937-15.565Q108.833-17.4606 108.833-20.0939L108.833-43.7534Q108.833-49.42 105.389-52.7549L76.2273-81.7867L76.2273-63.4997L85.6733-54.1164Q86.5935-53.2587 85.7304-52.3964L72.4898-39.1558L50.3773-54.6606Q48.8965-55.7047 46.5184-55.7047L18.948-55.7047Q16.2523-55.7047 14.3566-53.8375Q12.4609-51.9704 12.4609-49.2854Q12.4609-46.6521 14.3566-44.7252Q16.2523-42.7984 18.948-42.7984ZM75.8348 11.1913Q80.2106 11.1913 83.6927 9.122Q87.1748 7.05266 89.2323 3.56437Q91.2898 0.0760895 91.2777-4.12927L81.6261-4.12927Q81.6388-1.57316 80.0689-0.0194283Q78.499 1.53431 75.8348 1.53431Q73.1256 1.53431 71.6131 0.154082Q70.1006-1.22614 70.1006-4.19443L70.1006-102.703Q70.1006-104.752 68.7094-106.143Q67.3183-107.534 65.2749-107.534Q63.2261-107.534 61.8348-106.143Q60.4435-104.752 60.4435-102.703L60.4435-4.19443Q60.4435 2.88195 64.9361 7.03665Q69.4287 11.1913 75.8348 11.1913ZM86.4515 37.0129Q88.4432 37.0129 89.8603 35.596Q91.2774 34.179 91.2774 32.1818L91.2774-30.2024L81.6259-30.2024L81.6259 32.1818Q81.6259 34.179 83.0428 35.596Q84.4597 37.0129 86.4515 37.0129Z"/>
  </g>
  <g id="Heavy-M" transform="matrix(1 0 0 1 2569.16 1126)">
   <path d="M110.673-58.9088Q115.623-58.9088 119.106-62.4217Q122.589-65.9346 122.589-70.8549Q122.589-75.8048 119.106-79.2877Q115.623-82.7705 110.673-82.7705Q105.753-82.7705 102.24-79.2877Q98.7269-75.8048 98.7269-70.8549Q98.7269-65.9346 102.24-62.4217Q105.753-58.9088 110.673-58.9088ZM18.615-43.075L43.6211-43.075L57.2921-30.7181Q57.7792-30.2888 57.5656-29.7165Q57.3521-29.1442 56.6804-29.1442L41.2293-29.1442Q39.9815-29.1442 38.7064-28.7613Q37.4314-28.3784 36.4515-27.4126L17.5705-8.40696Q15.7744-6.61084 15.7432-4.11832Q15.7121-1.6258 17.5705 0.216195Q19.3502 2.01231 21.8521 2.01117Q24.3539 2.01002 26.15 0.216195L42.8821-16.4994L63.2141-13.1214Q68.3906-12.2701 73.3829-13.8594Q78.3752-15.4488 82.1582-19.2482L93.4732-30.5677Q93.9132-30.9914 94.3396-30.8107Q94.766-30.63 94.766-30.1175L94.766-22.9215L80.8745-9.02775Q79.0971-7.23163 79.1189-4.73796Q79.1407-2.2443 80.8745-0.448181Q82.6706 1.3479 85.2784 1.3479Q87.7802 1.3479 89.5741-0.448181L105.248-16.1217Q107.044-17.9178 107.044-20.4197L107.044-43.7606Q107.044-49.2315 103.732-52.4702L74.4364-81.6247L74.4364-64.3019L84.6779-54.1205Q85.7092-53.1493 84.7215-52.1547L71.4672-38.9005L49.4847-54.306Q48.0545-55.3046 45.8137-55.3046L18.615-55.3046Q16.0509-55.3046 14.2559-53.5314Q12.4609-51.7582 12.4609-49.2292Q12.4609-46.7273 14.2559-44.9012Q16.0509-43.075 18.615-43.075ZM74.7456 10.0155Q78.9482 10.0155 82.2906 8.02686Q85.6329 6.03826 87.5955 2.6852Q89.5581-0.667869 89.5344-4.73285L80.8909-4.73285Q80.9101-2.02785 79.218-0.336119Q77.526 1.35561 74.7456 1.35561Q71.9453 1.35561 70.2945-0.141366Q68.6438-1.63835 68.6438-4.72977L68.6438-102.383Q68.6438-104.212 67.3889-105.467Q66.134-106.722 64.3209-106.722Q62.4914-106.722 61.2377-105.467Q59.9839-104.212 59.9839-102.383L59.9839-4.72977Q59.9839 2.05806 64.2832 6.03676Q68.5825 10.0155 74.7456 10.0155ZM85.2161 36.2008Q87.002 36.2008 88.2693 34.9323Q89.5367 33.6638 89.5367 31.8615L89.5367-29.9619L80.8932-29.9619L80.8932 31.8615Q80.8932 33.6638 82.1617 34.9323Q83.4302 36.2008 85.2161 36.2008Z"/>
  </g>
  <g id="Bold-M" transform="matrix(1 0 0 1 2273.82 1126)">
   <path d="M108.398-58.3685Q113.162-58.3685 116.509-61.7436Q119.855-65.1187 119.855-69.8777Q119.855-74.6418 116.509-77.9883Q113.162-81.3348 108.398-81.3348Q103.639-81.3348 100.264-77.9883Q96.889-74.6418 96.889-69.8777Q96.889-65.1187 100.264-61.7436Q103.639-58.3685 108.398-58.3685ZM18.2426-43.3845L42.977-43.3845L57.1082-30.619Q57.581-30.1983 57.3732-29.6464Q57.1654-29.0945 56.5109-29.0945L40.5184-29.0945Q39.3216-29.0945 38.1248-28.731Q36.928-28.3674 36.0141-27.477L17.412-8.75031Q15.7271-7.06543 15.6959-4.72754Q15.6648-2.38966 17.412-0.671133Q19.0682 1.01375 21.423 1.01116Q23.7777 1.00858 25.4626-0.671133L42.0449-17.2248L62.2101-13.8913Q67.2337-13.0579 72.099-14.5948Q76.9643-16.1318 80.6275-19.8236L91.9033-31.1096Q92.4459-31.6237 92.9887-31.3978Q93.5314-31.1719 93.5314-30.4993L93.5314-23.1388L79.7659-9.36827Q78.1148-7.68338 78.1291-5.34291Q78.1434-3.00244 79.7659-1.31755Q81.4508 0.367247 83.8964 0.367247Q86.2511 0.367247 87.9309-1.31755L103.358-16.7445Q105.043-18.4294 105.043-20.784L105.043-43.7686Q105.043-49.0207 101.878-52.1518L72.4331-81.4435L72.4331-65.1993L83.5643-54.1251Q84.7199-53.0268 83.5929-51.8844L70.3233-38.6148L48.4861-53.9093Q47.1126-54.857 45.0255-54.857L18.2426-54.857Q15.8255-54.857 14.1432-53.189Q12.4609-51.5209 12.4609-49.1663Q12.4609-46.8115 14.1432-45.098Q15.8255-43.3845 18.2426-43.3845ZM73.5271 8.70005Q77.5361 8.70005 80.7221 6.80178Q83.9081 4.90351 85.7645 1.70171Q87.621-1.50009 87.5843-5.40805L80.0685-5.40805Q80.095-2.53649 78.2662-0.690384Q76.4374 1.15572 73.5271 1.15572Q70.6249 1.15572 68.8195-0.471866Q67.0141-2.09945 67.0141-5.32862L67.0141-102.025Q67.0141-103.609 65.9117-104.711Q64.8093-105.814 63.2537-105.814Q61.6696-105.814 60.5697-104.711Q59.4698-103.609 59.4698-102.025L59.4698-5.32862Q59.4698 1.13642 63.5528 4.91824Q67.6358 8.70005 73.5271 8.70005ZM83.8341 35.2923Q85.3897 35.2923 86.4895 34.1899Q87.5894 33.0874 87.5894 31.5032L87.5894-29.6929L80.0737-29.6929L80.0737 31.5032Q80.0737 33.0874 81.1761 34.1899Q82.2785 35.2923 83.8341 35.2923Z"/>
  </g>
  <g id="Semibold-M" transform="matrix(1 0 0 1 1978.05 1126)">
   <path d="M106.83-57.996Q111.466-57.996 114.719-61.2761Q117.971-64.5563 117.971-69.204Q117.971-73.84 114.719-77.0925Q111.466-80.3451 106.83-80.3451Q102.182-80.3451 98.9022-77.0925Q95.622-73.84 95.622-69.204Q95.622-64.5563 98.9022-61.2761Q102.182-57.996 106.83-57.996ZM17.9858-43.5979L42.533-43.5979L56.9815-30.5508Q57.4445-30.136 57.2406-29.5982Q57.0368-29.0603 56.394-29.0603L40.0284-29.0603Q38.8666-29.0603 37.7238-28.7101Q36.5809-28.3599 35.7125-27.5215L17.3027-8.98702Q15.6945-7.37882 15.6633-5.14754Q15.6322-2.91625 17.3027-1.28285Q18.8738 0.325351 21.1271 0.321769Q23.3805 0.318187 24.9887-1.28285L41.4678-17.7249L61.5179-14.422Q66.4361-13.6009 71.2139-15.1018Q75.9917-16.6027 79.5723-20.2203L90.821-31.4832Q91.4344-32.0596 92.0573-31.8026Q92.6803-31.5455 92.6803-30.7626L92.6803-23.2886L79.0016-9.60302Q77.4377-7.99482 77.4468-5.75996Q77.4559-3.52509 79.0016-1.91689Q80.6098-0.308809 82.9436-0.308809Q85.197-0.308809 86.7982-1.91689L102.055-17.1738Q103.663-18.782 103.663-21.0352L103.663-43.7741Q103.663-48.8754 100.6-51.9323L71.052-81.3186L71.052-65.8179L82.7967-54.1283Q84.0379-52.9424 82.8149-51.698L69.5348-38.4179L47.7977-53.6359Q46.4633-54.5484 44.482-54.5484L17.9858-54.5484Q15.6702-54.5484 14.0656-52.9529Q12.4609-51.3573 12.4609-49.1229Q12.4609-46.8696 14.0656-45.2337Q15.6702-43.5979 17.9858-43.5979ZM72.687 7.79322Q76.5626 7.79322 79.6408 5.95722Q82.719 4.12122 84.5023 1.0237Q86.2856-2.07383 86.2399-5.87353L79.5016-5.87353Q79.533-2.88714 77.61-0.934612Q75.687 1.01792 72.687 1.01792Q69.7146 1.01792 67.8027-0.699712Q65.8907-2.41734 65.8907-5.74146L65.8907-101.778Q65.8907-103.192 64.8933-104.19Q63.896-105.187 62.5179-105.187Q61.103-105.187 60.1092-104.19Q59.1154-103.192 59.1154-101.778L59.1154-5.74146Q59.1154 0.501048 63.0493 4.14713Q66.9832 7.79322 72.687 7.79322ZM82.8813 34.666Q84.2782 34.666 85.2626 33.678Q86.2469 32.6901 86.2469 31.2562L86.2469-29.5074L79.5087-29.5074L79.5087 31.2562Q79.5087 32.6901 80.4966 33.678Q81.4846 34.666 82.8813 34.666Z"/>
  </g>
  <g id="Medium-M" transform="matrix(1 0 0 1 1682.05 1126)">
   <path d="M105.641-57.7135Q110.18-57.7135 113.361-60.9217Q116.542-64.1299 116.542-68.6931Q116.542-73.232 113.361-76.4133Q110.18-79.5946 105.641-79.5946Q101.078-79.5946 97.8695-76.4133Q94.6613-73.232 94.6613-68.6931Q94.6613-64.1299 97.8695-60.9217Q101.078-57.7135 105.641-57.7135ZM17.7912-43.7597L42.1964-43.7597L56.8854-30.499Q57.3409-30.0887 57.14-29.5616Q56.9392-29.0344 56.3054-29.0344L39.6568-29.0344Q38.5217-29.0344 37.4197-28.6943Q36.3178-28.3542 35.4839-27.5552L17.2198-9.1665Q15.6697-7.61644 15.6386-5.46599Q15.6074-3.31554 17.2198-1.74668Q18.7264-0.196624 20.9028-0.200959Q23.0793-0.205295 24.6293-1.74668L41.0302-18.1041L60.9931-14.8244Q65.8314-14.0127 70.5428-15.4862Q75.2543-16.9598 78.7722-20.5211L90.0004-31.7665Q90.6674-32.3901 91.3512-32.1095Q92.0349-31.8288 92.0349-30.9621L92.0349-23.4022L78.4221-9.78102Q76.9243-8.23096 76.9294-6.07618Q76.9345-3.92139 78.4221-2.37134Q79.9722-0.821423 82.2212-0.821423Q84.3977-0.821423 85.9392-2.37134L101.067-17.4993Q102.617-19.0494 102.617-21.2257L102.617-43.7783Q102.617-48.7652 99.6307-51.7659L70.0047-81.2239L70.0047-66.287L82.2146-54.1307Q83.5208-52.8784 82.2249-51.5567L68.9368-38.2686L47.2757-53.4285Q45.9709-54.3144 44.07-54.3144L17.7912-54.3144Q15.5524-54.3144 14.0067-52.7739Q12.4609-51.2333 12.4609-49.09Q12.4609-46.9136 14.0067-45.3366Q15.5524-43.7597 17.7912-43.7597ZM72.0501 7.10562Q75.8244 7.10562 78.8209 5.31684Q81.8174 3.52806 83.5452 0.509602Q85.273-2.50885 85.2205-6.22647L79.0717-6.22647Q79.1069-3.15302 77.1124-1.1198Q75.1179 0.913426 72.0501 0.913426Q69.0244 0.913426 67.0316-0.872473Q65.0388-2.65837 65.0388-6.0545L65.0388-101.59Q65.0388-102.877 64.1212-103.795Q63.2035-104.712 61.9601-104.712Q60.6734-104.712 59.76-103.795Q58.8466-102.877 58.8466-101.59L58.8466-6.0545Q58.8466 0.0192816 62.6675 3.56245Q66.4884 7.10562 72.0501 7.10562ZM82.1589 34.1911Q83.4355 34.1911 84.3322 33.2899Q85.229 32.3888 85.229 31.0689L85.229-29.3668L79.0803-29.3668L79.0803 31.0689Q79.0803 32.3888 79.9814 33.2899Q80.8826 34.1911 82.1589 34.1911Z"/>
  </g>
  <g id="Regular-M" transform="matrix(1 0 0 1 1386.27 1126)">
   <path d="M104.09-57.3451Q108.502-57.3451 111.591-60.4594Q114.679-63.5736 114.679-68.0268Q114.679-72.439 111.591-75.5274Q108.502-78.6157 104.09-78.6157Q99.6368-78.6157 96.5225-75.5274Q93.4083-72.439 93.4083-68.0268Q93.4083-63.5736 96.5225-60.4594Q99.6368-57.3451 104.09-57.3451ZM17.5372-43.9707L41.7572-43.9707L56.76-30.4315Q57.2058-30.0271 57.0089-29.5138Q56.8119-29.0006 56.1898-29.0006L39.1721-29.0006Q38.0718-29.0006 37.0231-28.6737Q35.9745-28.3468 35.1856-27.5991L17.1117-9.40061Q15.6375-7.92639 15.6063-5.88137Q15.5752-3.83635 17.1117-2.35168Q18.5341-0.877461 20.6103-0.882779Q22.6864-0.888097 24.1606-2.35168L40.4595-18.5986L60.3085-15.3493Q65.0426-14.5498 69.6675-15.9877Q74.2924-17.4255 77.7286-20.9134L88.93-32.1359Q89.667-32.8213 90.4301-32.5098Q91.1931-32.1982 91.1931-31.2225L91.1931-23.5503L77.6663-10.0132Q76.2545-8.53898 76.2545-6.48864Q76.2545-4.43831 77.6663-2.96409Q79.1405-1.49005 81.279-1.49005Q83.3551-1.49005 84.8189-2.96409L99.7786-17.9239Q101.253-19.3981 101.253-21.4741L101.253-43.7838Q101.253-48.6215 98.3666-51.5488L68.6388-81.1004L68.6388-66.8988L81.4554-54.1339Q82.8462-52.7949 81.4554-51.3724L68.1569-38.0738L46.5949-53.1581Q45.3287-54.0093 43.5325-54.0093L17.5372-54.0093Q15.3987-54.0093 13.9298-52.5404Q12.4609-51.0715 12.4609-49.0472Q12.4609-46.971 13.9298-45.4708Q15.3987-43.9707 17.5372-43.9707ZM71.2193 6.20875Q74.8616 6.20875 77.7515 4.48156Q80.6414 2.75436 82.2968-0.160957Q83.9522-3.07628 83.8909-6.68683L78.5109-6.68683Q78.5511-3.49981 76.4634-1.36134Q74.3758 0.777134 71.2193 0.777134Q68.1242 0.777134 66.0259-1.09781Q63.9277-2.97276 63.9277-6.46281L63.9277-101.346Q63.9277-102.465 63.114-103.279Q62.3003-104.093 61.2324-104.093Q60.1131-104.093 59.3046-103.279Q58.4961-102.465 58.4961-101.346L58.4961-6.46281Q58.4961-0.609109 62.1695 2.79982Q65.843 6.20875 71.2193 6.20875ZM81.2167 33.5716Q82.3362 33.5716 83.1188 32.7837Q83.9013 31.9959 83.9013 30.8247L83.9013-29.1834L78.5216-29.1834L78.5216 30.8247Q78.5216 31.9959 79.3094 32.7837Q80.0973 33.5716 81.2167 33.5716Z"/>
  </g>
  <g id="Light-M" transform="matrix(1 0 0 1 1090.8 1126)">
   <path d="M101.934-57.0884Q106.226-57.0884 109.221-60.1Q112.215-63.1116 112.215-67.4108Q112.215-71.7034 109.221-74.6975Q106.226-77.6917 101.934-77.6917Q97.6347-77.6917 94.6231-74.6975Q91.6115-71.7034 91.6115-67.4108Q91.6115-63.1116 94.6231-60.1Q97.6347-57.0884 101.934-57.0884ZM17.3831-43.7482L40.9701-43.7482L55.7504-30.38Q56.1108-30.0271 55.948-29.5909Q55.7853-29.1547 55.2658-29.1547L38.4365-29.1547Q37.3703-29.1547 36.3388-28.8534Q35.3072-28.552 34.5526-27.8044L16.9749-10.1021Q15.5349-8.66206 15.5037-6.68547Q15.4726-4.70887 16.9749-3.24144Q18.38-1.80144 20.3877-1.81538Q22.3955-1.82932 23.8355-3.24144L39.6896-19.0606L58.9909-15.897Q63.6225-15.1144 68.119-16.5096Q72.6155-17.9047 75.966-21.2897L86.8426-32.2216Q87.5624-32.907 88.2998-32.5954Q89.0373-32.2839 89.0373-31.3423L89.0373-23.8582L75.9037-10.6977Q74.5265-9.25769 74.5265-7.26715Q74.5265-5.27661 75.9037-3.8366Q77.3437-2.39706 79.4138-2.39706Q81.4215-2.39706 82.8341-3.8366L97.4002-18.4032Q98.8402-19.8432 98.8402-21.8505L98.8402-43.5613Q98.8402-48.2621 96.0225-51.0868L66.483-80.4673L66.483-66.6763L79.5733-53.6204Q80.8957-52.3329 79.5733-50.9273L66.6341-37.9882L45.6709-52.6789Q44.4731-53.4958 42.6942-53.4958L17.3831-53.4958Q15.3131-53.4958 13.887-52.0698Q12.4609-50.6437 12.4609-48.6708Q12.4609-46.6631 13.887-45.2056Q15.3131-43.7482 17.3831-43.7482ZM69.6108 4.65174Q72.9964 4.65174 75.6724 3.10422Q78.3484 1.5567 79.9098-1.08493Q81.4712-3.72657 81.5125-7.02894L77.1077-7.02894Q77.0111-3.92759 74.8721-1.85754Q72.7331 0.212515 69.6108 0.212515Q66.4473 0.212515 64.2806-1.72237Q62.114-3.65726 62.114-7.24994L62.114-99.2927Q62.114-100.207 61.4457-100.875Q60.7775-101.543 59.8976-101.543Q58.9838-101.543 58.3293-100.875Q57.6747-100.207 57.6747-99.2927L57.6747-7.24994Q57.6747-1.70414 61.0914 1.4738Q64.5082 4.65174 69.6108 4.65174ZM79.3515 31.0222Q80.2657 31.0222 80.9028 30.3712Q81.5399 29.7201 81.5399 28.7714L81.5399-28.9267L77.1356-28.9267L77.1356 28.7714Q77.1356 29.7201 77.7866 30.3712Q78.4377 31.0222 79.3515 31.0222Z"/>
  </g>
  <g id="Thin-M" transform="matrix(1 0 0 1 795.714 1126)">
   <path d="M99.0831-56.7489Q103.217-56.7489 106.086-59.6247Q108.956-62.5006 108.956-66.596Q108.956-70.7304 106.086-73.6Q103.217-76.4697 99.0831-76.4697Q94.9869-76.4697 92.111-73.6Q89.2351-70.7304 89.2351-66.596Q89.2351-62.5006 92.111-59.6247Q94.9869-56.7489 99.0831-56.7489ZM17.1793-43.4539L39.929-43.4539L54.4151-30.3119Q54.6625-30.0271 54.545-29.6928Q54.4275-29.3585 54.0438-29.3585L37.4635-29.3585Q36.4426-29.3585 35.4337-29.091Q34.4247-28.8235 33.7153-28.0759L16.7939-11.0298Q15.3991-9.63505 15.368-7.74894Q15.3368-5.86284 16.7939-4.41823Q18.1762-3.02347 20.0934-3.04882Q22.0107-3.07417 23.4055-4.41823L38.6713-19.6716L57.2484-16.6213Q61.7442-15.8612 66.0709-17.1999Q70.3976-18.5386 73.6349-21.7874L84.0818-32.3349Q84.7788-33.0203 85.4824-32.7087Q86.186-32.3972 86.186-31.5009L86.186-24.2654L73.5726-11.603Q72.241-10.2082 72.241-8.29679Q72.241-6.38534 73.5726-4.99058Q74.9673-3.59666 76.9469-3.59666Q78.8642-3.59666 80.2091-4.99058L94.2546-19.037Q95.6494-20.4318 95.6494-22.3482L95.6494-43.267Q95.6494-47.7868 92.9222-50.4758L63.6317-79.6301L63.6317-66.382L77.084-52.9414Q78.3159-51.7219 77.084-50.3388L64.6201-37.8749L44.4489-52.045Q43.3416-52.8168 41.5855-52.8168L17.1793-52.8168Q15.1998-52.8168 13.8303-51.4473Q12.4609-50.0779 12.4609-48.1731Q12.4609-46.2559 13.8303-44.8549Q15.1998-43.4539 17.1793-43.4539ZM67.4835 2.59246Q70.5295 2.59246 72.9226 1.28258Q75.3157-0.0272987 76.7528-2.30696Q78.1899-4.58663 78.3669-7.4814L75.2518-7.4814Q74.9742-4.49336 72.7674-2.5138Q70.5605-0.53424 67.4835-0.53424Q64.2295-0.53424 61.9723-2.54841Q59.7151-4.56257 59.7151-8.29099L59.7151-96.5772Q59.7151-97.2191 59.2393-97.6954Q58.7634-98.1717 58.1322-98.1717Q57.4903-98.1717 57.0394-97.6954Q56.5884-97.2191 56.5884-96.5772L56.5884-8.29099Q56.5884-3.1524 59.6656-0.279971Q62.7428 2.59246 67.4835 2.59246ZM76.8846 27.6504Q77.5274 27.6504 77.9721 27.1803Q78.4168 26.7103 78.4168 26.0559L78.4168-28.5871L75.3025-28.5871L75.3025 26.0559Q75.3025 26.7103 75.7726 27.1803Q76.2427 27.6504 76.8846 27.6504Z"/>
  </g>
  <g id="Ultralight-M" transform="matrix(1 0 0 1 499.837 1126)">
   <path d="M97.6226-56.5749Q101.675-56.5749 104.481-59.3813Q107.287-62.1877 107.287-66.1786Q107.287-70.232 104.481-73.0379Q101.675-75.8438 97.6226-75.8438Q93.6307-75.8438 90.8243-73.0379Q88.0179-70.232 88.0179-66.1786Q88.0179-62.1877 90.8243-59.3813Q93.6307-56.5749 97.6226-56.5749ZM17.0749-43.3032L39.3958-43.3032L53.7311-30.2771Q53.9207-30.0271 53.8264-29.745Q53.7321-29.4629 53.4179-29.4629L36.9651-29.4629Q35.9674-29.4629 34.9701-29.2127Q33.9727-28.9626 33.2865-28.2149L16.7012-11.505Q15.3296-10.1334 15.2984-8.29365Q15.2673-6.4539 16.7012-5.02097Q18.0718-3.64939 19.9427-3.68058Q21.8136-3.71177 23.1852-5.02097L38.1498-19.9846L56.3558-16.9923Q60.7821-16.2437 65.0219-17.5534Q69.2617-18.8632 72.4409-22.0423L82.6678-32.3929Q83.353-33.0783 84.0393-32.7668Q84.7256-32.4552 84.7256-31.5821L84.7256-24.474L72.3786-12.0667Q71.0703-10.6951 71.0703-8.82416Q71.0703-6.95322 72.3786-5.58163Q73.7502-4.21109 75.6834-4.21109Q77.5543-4.21109 78.8645-5.58163L92.6435-19.3616Q94.0151-20.7332 94.0151-22.6031L94.0151-43.1163Q94.0151-47.5434 91.3342-50.1629L62.1713-79.2013L62.1713-66.2313L75.8089-52.5935Q76.9945-51.4089 75.8089-50.0373L63.5885-37.8168L43.823-51.7204Q42.762-52.4689 41.0176-52.4689L17.0749-52.4689Q15.1417-52.4689 13.8013-51.1285Q12.4609-49.7881 12.4609-47.9182Q12.4609-46.0473 13.8013-44.6752Q15.1417-43.3032 17.0749-43.3032ZM66.3939 1.53771Q69.266 1.53771 71.5142 0.349544Q73.7624-0.838617 75.1358-2.93288Q76.5092-5.02715 76.7558-7.71315L74.3013-7.71315Q73.931-4.78314 71.6893-2.84993Q69.4477-0.916724 66.3939-0.916724Q63.0935-0.916724 60.79-2.97149Q58.4865-5.02627 58.4865-8.8242L58.4865-95.1863Q58.4865-95.689 58.1092-96.0668Q57.7318-96.4447 57.228-96.4447Q56.7253-96.4447 56.3787-96.0668Q56.032-95.689 56.032-95.1863L56.032-8.8242Q56.032-3.89419 58.9353-1.17824Q61.8386 1.53771 66.3939 1.53771ZM75.6211 25.9234Q76.1248 25.9234 76.471 25.546Q76.8171 25.1687 76.8171 24.665L76.8171-28.4132L74.3637-28.4132L74.3637 24.665Q74.3637 25.1687 74.741 25.546Q75.1184 25.9234 75.6211 25.9234Z"/>
  </g>
  <g id="Black-S" transform="matrix(1 0 0 1 2879.23 696)">
   <path d="M88.8184-54.2969Q92.8711-54.2969 95.7275-57.1777Q98.584-60.0586 98.584-64.0625Q98.584-68.1152 95.7275-70.9717Q92.8711-73.8281 88.8184-73.8281Q84.8145-73.8281 81.9336-70.9717Q79.0527-68.1152 79.0527-64.0625Q79.0527-60.0586 81.9336-57.1777Q84.8145-54.2969 88.8184-54.2969ZM14.9414-41.0645L34.7656-41.0645L45.0195-31.7871Q45.4102-31.4453 45.2393-30.9814Q45.0684-30.5176 44.5312-30.5176L32.959-30.5176Q31.9336-30.5176 30.8594-30.2002Q29.7852-29.8828 28.9551-29.0527L13.916-13.916Q12.4023-12.4023 12.3779-10.3027Q12.3535-8.20312 13.916-6.64062Q15.4297-5.12695 17.5293-5.12695Q19.6289-5.12695 21.1426-6.64062L34.375-19.873L50.4395-17.1875Q54.6387-16.5039 58.667-17.7979Q62.6953-19.0918 65.7715-22.168L74.6582-31.0547Q74.9023-31.2988 75.1221-31.2012Q75.3418-31.1035 75.3418-30.8594L75.3418-25.3906L64.3555-14.4043Q62.8418-12.8906 62.8662-10.791Q62.8906-8.69141 64.3555-7.17773Q65.8691-5.66406 68.0664-5.66406Q70.166-5.66406 71.6797-7.17773L84.1797-19.6777Q85.6934-21.1914 85.6934-23.291L85.6934-41.8945Q85.6934-46.3867 82.959-49.0234L60.1562-71.7285L60.1562-57.1289L67.334-50Q68.0176-49.3652 67.3828-48.7305L57.0312-38.3789L39.6973-50.5371Q38.5254-51.3672 36.6211-51.3672L14.9414-51.3672Q12.793-51.3672 11.2793-49.8779Q9.76562-48.3887 9.76562-46.2402Q9.76562-44.1406 11.2793-42.6025Q12.793-41.0645 14.9414-41.0645ZM59.668 1.41602Q63.1348 1.41602 65.8936-0.219727Q68.6523-1.85547 70.2881-4.61426Q71.9238-7.37305 71.9238-10.6934L64.1113-10.6934Q64.1113-8.74023 62.915-7.56836Q61.7188-6.39648 59.668-6.39648Q57.5684-6.39648 56.4209-7.44629Q55.2734-8.49609 55.2734-10.791L55.2734-88.0859Q55.2734-89.7461 54.1504-90.8691Q53.0273-91.9922 51.3672-91.9922Q49.707-91.9922 48.584-90.8691Q47.4609-89.7461 47.4609-88.0859L47.4609-10.791Q47.4609-5.17578 51.0254-1.87988Q54.5898 1.41602 59.668 1.41602ZM68.0176 21.4844Q69.6289 21.4844 70.7764 20.3369Q71.9238 19.1895 71.9238 17.5781L71.9238-31.3477L64.1113-31.3477L64.1113 17.5781Q64.1113 19.1895 65.2588 20.3369Q66.4062 21.4844 68.0176 21.4844Z"/>
  </g>
  <g id="Heavy-S" transform="matrix(1 0 0 1 2583.4 696)">
   <path d="M87.3548-53.9166Q91.2807-53.9166 94.045-56.7052Q96.8092-59.4939 96.8092-63.3941Q96.8092-67.32 94.045-70.0843Q91.2807-72.8485 87.3548-72.8485Q83.4546-72.8485 80.6659-70.0843Q77.8772-67.32 77.8772-63.3941Q77.8772-59.4939 80.6659-56.7052Q83.4546-53.9166 87.3548-53.9166ZM14.6763-41.3295L34.3738-41.3295L45.008-31.718Q45.3986-31.3762 45.2277-30.9181Q45.0568-30.46 44.5197-30.46L32.5095-30.46Q31.5187-30.46 30.5021-30.1541Q29.4855-29.8482 28.7015-29.0758L13.8123-14.0889Q12.3793-12.6559 12.3549-10.6658Q12.3305-8.67563 13.8123-7.20532Q15.2338-5.77232 17.2297-5.77232Q19.2255-5.77232 20.6586-7.20532L33.8334-20.3686L49.8402-17.7061Q53.9357-17.034 57.8833-18.2934Q61.831-19.5528 64.8265-22.5598L73.7247-31.458Q74.0495-31.7713 74.3615-31.6391Q74.6734-31.5069 74.6734-31.136L74.6734-25.5174L63.7331-14.5772Q62.3117-13.1442 62.3303-11.154Q62.349-9.16391 63.7331-7.73091Q65.1661-6.29791 67.2482-6.29791Q69.2441-6.29791 70.6771-7.73091L83.0388-20.0926Q84.4718-21.5256 84.4718-23.5215L84.4718-41.9291Q84.4718-46.2715 81.8411-48.839L58.9001-71.6709L58.9001-57.8434L66.7232-50.0691Q67.5105-49.3307 66.7605-48.5807L56.3513-38.1715L39.0519-50.2951Q37.9146-51.0906 36.1255-51.0906L14.6763-51.0906Q12.6316-51.0906 11.1986-49.6763Q9.76562-48.2619 9.76562-46.2402Q9.76562-44.2443 11.1986-42.7869Q12.6316-41.3295 14.6763-41.3295ZM58.9419 0.609303Q62.2935 0.609303 64.9601-0.980341Q67.6267-2.56999 69.1933-5.2481Q70.7599-7.92622 70.7368-11.1659L63.6619-11.1659Q63.6849-9.07444 62.3907-7.7758Q61.0964-6.47716 58.9419-6.47716Q56.7732-6.47716 55.5162-7.61916Q54.2593-8.76116 54.2593-11.1483L54.2593-88.0744Q54.2593-89.5732 53.2342-90.5983Q52.2091-91.6234 50.7218-91.6234Q49.223-91.6234 48.1979-90.5983Q47.1728-89.5732 47.1728-88.0744L47.1728-11.1483Q47.1728-5.74048 50.6047-2.56559Q54.0367 0.609303 58.9419 0.609303ZM67.1993 21.1156Q68.6609 21.1156 69.6988 20.0776Q70.7368 19.0396 70.7368 17.5666L70.7368-31.1748L63.6619-31.1748L63.6619 17.5666Q63.6619 19.0396 64.6999 20.0776Q65.7378 21.1156 67.1993 21.1156Z"/>
  </g>
  <g id="Bold-S" transform="matrix(1 0 0 1 2287.68 696)">
   <path d="M85.7178-53.4912Q89.502-53.4912 92.1631-56.1768Q94.8242-58.8623 94.8242-62.6465Q94.8242-66.4307 92.1631-69.0918Q89.502-71.7529 85.7178-71.7529Q81.9336-71.7529 79.248-69.0918Q76.5625-66.4307 76.5625-62.6465Q76.5625-58.8623 79.248-56.1768Q81.9336-53.4912 85.7178-53.4912ZM14.3799-41.626L33.9355-41.626L44.9951-31.6406Q45.3857-31.2988 45.2148-30.8472Q45.0439-30.3955 44.5068-30.3955L32.0068-30.3955Q31.0547-30.3955 30.1025-30.1025Q29.1504-29.8096 28.418-29.1016L13.6963-14.2822Q12.3535-12.9395 12.3291-11.0718Q12.3047-9.2041 13.6963-7.83691Q15.0146-6.49414 16.8945-6.49414Q18.7744-6.49414 20.1172-7.83691L33.2275-20.9229L49.1699-18.2861Q53.1494-17.627 57.0068-18.8477Q60.8643-20.0684 63.7695-22.998L72.6807-31.9092Q73.0957-32.2998 73.5107-32.1289Q73.9258-31.958 73.9258-31.4453L73.9258-25.6592L63.0371-14.7705Q61.7188-13.4277 61.731-11.5601Q61.7432-9.69238 63.0371-8.34961Q64.3799-7.00684 66.333-7.00684Q68.2129-7.00684 69.5557-8.34961L81.7627-20.5566Q83.1055-21.8994 83.1055-23.7793L83.1055-41.9678Q83.1055-46.1426 80.5908-48.6328L57.4951-71.6064L57.4951-58.6426L66.04-50.1465Q66.9434-49.292 66.0645-48.4131L55.5908-37.9395L38.3301-50.0244Q37.2314-50.7812 35.5713-50.7812L14.3799-50.7812Q12.4512-50.7812 11.1084-49.4507Q9.76562-48.1201 9.76562-46.2402Q9.76562-44.3604 11.1084-42.9932Q12.4512-41.626 14.3799-41.626ZM58.1299-0.292969Q61.3525-0.292969 63.916-1.83105Q66.4795-3.36914 67.9688-5.95703Q69.458-8.54492 69.4092-11.6943L63.1592-11.6943Q63.208-9.44824 61.8042-8.00781Q60.4004-6.56738 58.1299-6.56738Q55.8838-6.56738 54.5044-7.8125Q53.125-9.05762 53.125-11.5479L53.125-88.0615Q53.125-89.3799 52.2095-90.2954Q51.2939-91.2109 50-91.2109Q48.6816-91.2109 47.7661-90.2954Q46.8506-89.3799 46.8506-88.0615L46.8506-11.5479Q46.8506-6.37207 50.1343-3.33252Q53.418-0.292969 58.1299-0.292969ZM66.2842 20.7031Q67.5781 20.7031 68.4937 19.7876Q69.4092 18.8721 69.4092 17.5537L69.4092-30.9814L63.1592-30.9814L63.1592 17.5537Q63.1592 18.8721 64.0747 19.7876Q64.9902 20.7031 66.2842 20.7031Z"/>
  </g>
  <g id="Semibold-S" transform="matrix(1 0 0 1 1991.66 696)">
   <path d="M84.5892-53.1979Q88.2756-53.1979 90.8656-55.8124Q93.4557-58.4269 93.4557-62.1311Q93.4557-65.8175 90.8656-68.4075Q88.2756-70.9976 84.5892-70.9976Q80.885-70.9976 78.2705-68.4075Q75.6561-65.8175 75.6561-62.1311Q75.6561-58.4269 78.2705-55.8124Q80.885-53.1979 84.5892-53.1979ZM14.1755-41.8304L33.6334-41.8304L44.9862-31.5873Q45.3769-31.2455 45.206-30.7983Q45.0351-30.3511 44.4979-30.3511L31.6603-30.3511Q30.7348-30.3511 29.8271-30.067Q28.9193-29.7829 28.2225-29.1193L13.6163-14.4155Q12.3357-13.135 12.3113-11.3517Q12.2869-9.56846 13.6163-8.27236Q14.8636-6.9918 16.6635-6.9918Q18.4634-6.9918 19.7439-8.27236L32.8099-21.305L48.7078-18.686Q52.6073-18.0357 56.4025-19.2298Q60.1978-20.4238 63.0408-23.3002L71.9608-32.2202Q72.4381-32.6642 72.9242-32.4666Q73.4104-32.269 73.4104-31.6586L73.4104-25.7569L62.5572-14.9038Q61.31-13.6232 61.3177-11.84Q61.3255-10.0567 62.5572-8.77617Q63.8378-7.49561 65.7021-7.49561Q67.502-7.49561 68.7825-8.77617L80.8829-20.8766Q82.1635-22.1571 82.1635-23.957L82.1635-41.9944Q82.1635-46.0537 79.7288-48.4906L56.5265-71.562L56.5265-59.1936L65.569-50.1998Q66.5523-49.2653 65.5846-48.2976L55.0665-37.7795L37.8324-49.8378Q36.7604-50.568 35.1892-50.568L14.1755-50.568Q12.3268-50.568 11.0462-49.2952Q9.76562-48.0224 9.76562-46.2402Q9.76562-44.4403 11.0462-43.1354Q12.3268-41.8304 14.1755-41.8304ZM57.57-0.915039Q60.7038-0.915039 63.1962-2.41758Q65.6886-3.92012 67.1245-6.4458Q68.5604-8.97148 68.4938-12.0587L62.8126-12.0587Q62.8792-9.70596 61.3999-8.16777Q59.9205-6.62959 57.57-6.62959Q55.2706-6.62959 53.8068-7.9458Q52.343-9.26201 52.343-11.8233L52.343-88.0526Q52.343-89.2466 51.503-90.0866Q50.663-90.9266 49.5023-90.9266Q48.3084-90.9266 47.4684-90.0866Q46.6284-89.2466 46.6284-88.0526L46.6284-11.8233Q46.6284-6.80752 49.8099-3.86128Q52.9914-0.915039 57.57-0.915039ZM65.6532 20.4187Q66.8316 20.4187 67.6627 19.5876Q68.4938 18.7565 68.4938 17.5448L68.4938-30.8481L62.8126-30.8481L62.8126 17.5448Q62.8126 18.7565 63.6437 19.5876Q64.4748 20.4187 65.6532 20.4187Z"/>
  </g>
  <g id="Medium-S" transform="matrix(1 0 0 1 1695.46 696)">
   <path d="M83.7334-52.9756Q87.3457-52.9756 89.8818-55.5361Q92.418-58.0967 92.418-61.7402Q92.418-65.3525 89.8818-67.8887Q87.3457-70.4248 83.7334-70.4248Q80.0898-70.4248 77.5293-67.8887Q74.9688-65.3525 74.9688-61.7402Q74.9688-58.0967 77.5293-55.5361Q80.0898-52.9756 83.7334-52.9756ZM14.0205-41.9854L33.4043-41.9854L44.9795-31.5469Q45.3701-31.2051 45.1992-30.7612Q45.0283-30.3174 44.4912-30.3174L31.3975-30.3174Q30.4922-30.3174 29.6182-30.04Q28.7441-29.7627 28.0742-29.1328L13.5557-14.5166Q12.3223-13.2832 12.2979-11.564Q12.2734-9.84473 13.5557-8.60254Q14.749-7.36914 16.4883-7.36914Q18.2275-7.36914 19.4609-8.60254L32.4932-21.5947L48.3574-18.9893Q52.1963-18.3457 55.9443-19.5195Q59.6924-20.6934 62.4883-23.5293L71.415-32.4561Q71.9395-32.9404 72.4795-32.7227Q73.0195-32.5049 73.0195-31.8203L73.0195-25.8311L62.1934-15.0049Q61-13.7715 61.0044-12.0522Q61.0088-10.333 62.1934-9.09961Q63.4268-7.86621 65.2236-7.86621Q66.9629-7.86621 68.1963-9.09961L80.2158-21.1191Q81.4492-22.3525 81.4492-24.0918L81.4492-42.0146Q81.4492-45.9863 79.0752-48.3828L55.792-71.5283L55.792-59.6113L65.2119-50.2402Q66.2559-49.2451 65.2207-48.21L54.6689-37.6582L37.4551-49.6963Q36.4033-50.4062 34.8994-50.4062L14.0205-50.4062Q12.2324-50.4062 10.999-49.1772Q9.76562-47.9482 9.76562-46.2402Q9.76562-44.501 10.999-43.2432Q12.2324-41.9854 14.0205-41.9854ZM57.1455-1.38672Q60.2119-1.38672 62.6504-2.8623Q65.0889-4.33789 66.4844-6.81641Q67.8799-9.29492 67.7998-12.335L62.5498-12.335Q62.6299-9.90137 61.0933-8.28906Q59.5566-6.67676 57.1455-6.67676Q54.8057-6.67676 53.2778-8.04688Q51.75-9.41699 51.75-12.0322L51.75-88.0459Q51.75-89.1455 50.9673-89.9282Q50.1846-90.7109 49.125-90.7109Q48.0254-90.7109 47.2427-89.9282Q46.46-89.1455 46.46-88.0459L46.46-12.0322Q46.46-7.1377 49.564-4.26221Q52.668-1.38672 57.1455-1.38672ZM65.1748 20.2031Q66.2656 20.2031 67.0327 19.436Q67.7998 18.6689 67.7998 17.5381L67.7998-30.7471L62.5498-30.7471L62.5498 17.5381Q62.5498 18.6689 63.3169 19.436Q64.084 20.2031 65.1748 20.2031Z"/>
  </g>
  <g id="Regular-S" transform="matrix(1 0 0 1 1399.43 696)">
   <path d="M82.6172-52.6855Q86.1328-52.6855 88.5986-55.1758Q91.0645-57.666 91.0645-61.2305Q91.0645-64.7461 88.5986-67.2119Q86.1328-69.6777 82.6172-69.6777Q79.0527-69.6777 76.5625-67.2119Q74.0723-64.7461 74.0723-61.2305Q74.0723-57.666 76.5625-55.1758Q79.0527-52.6855 82.6172-52.6855ZM13.8184-42.1875L33.1055-42.1875L44.9707-31.4941Q45.3613-31.1523 45.1904-30.7129Q45.0195-30.2734 44.4824-30.2734L31.0547-30.2734Q30.1758-30.2734 29.3457-30.0049Q28.5156-29.7363 27.8809-29.1504L13.4766-14.6484Q12.3047-13.4766 12.2803-11.8408Q12.2559-10.2051 13.4766-9.0332Q14.5996-7.86133 16.2598-7.86133Q17.9199-7.86133 19.0918-9.0332L32.0801-21.9727L47.9004-19.3848Q51.6602-18.75 55.3467-19.8975Q59.0332-21.0449 61.7676-23.8281L70.7031-32.7637Q71.2891-33.3008 71.8994-33.0566Q72.5098-32.8125 72.5098-32.0312L72.5098-25.9277L61.7188-15.1367Q60.5957-13.9648 60.5957-12.3291Q60.5957-10.6934 61.7188-9.52148Q62.8906-8.34961 64.5996-8.34961Q66.2598-8.34961 67.4316-9.52148L79.3457-21.4355Q80.5176-22.6074 80.5176-24.2676L80.5176-42.041Q80.5176-45.8984 78.2227-48.2422L54.834-71.4844L54.834-60.1562L64.7461-50.293Q65.8691-49.2188 64.7461-48.0957L54.1504-37.5L36.9629-49.5117Q35.9375-50.1953 34.5215-50.1953L13.8184-50.1953Q12.1094-50.1953 10.9375-49.0234Q9.76562-47.8516 9.76562-46.2402Q9.76562-44.5801 10.9375-43.3838Q12.1094-42.1875 13.8184-42.1875ZM56.5918-2.00195Q59.5703-2.00195 61.9385-3.44238Q64.3066-4.88281 65.6494-7.2998Q66.9922-9.7168 66.8945-12.6953L62.207-12.6953Q62.3047-10.1562 60.6934-8.44727Q59.082-6.73828 56.5918-6.73828Q54.1992-6.73828 52.5879-8.17871Q50.9766-9.61914 50.9766-12.3047L50.9766-88.0371Q50.9766-89.0137 50.2686-89.7217Q49.5605-90.4297 48.6328-90.4297Q47.6562-90.4297 46.9482-89.7217Q46.2402-89.0137 46.2402-88.0371L46.2402-12.3047Q46.2402-7.56836 49.2432-4.78516Q52.2461-2.00195 56.5918-2.00195ZM64.5508 19.9219Q65.5273 19.9219 66.2109 19.2383Q66.8945 18.5547 66.8945 17.5293L66.8945-30.6152L62.207-30.6152L62.207 17.5293Q62.207 18.5547 62.8906 19.2383Q63.5742 19.9219 64.5508 19.9219Z"/>
  </g>
  <g id="Light-S" transform="matrix(1 0 0 1 1103.81 696)">
   <path d="M80.7101-52.4584Q84.1197-52.4584 86.5022-54.8579Q88.8847-57.2573 88.8847-60.6855Q88.8847-64.0953 86.5022-66.4778Q84.1197-68.8604 80.7101-68.8604Q77.2817-68.8604 74.8823-66.4778Q72.4828-64.0953 72.4828-60.6855Q72.4828-57.2573 74.8823-54.8579Q77.2817-52.4584 80.7101-52.4584ZM13.682-41.9907L32.4092-41.9907L44.0776-31.4486Q44.3926-31.1523 44.252-30.781Q44.1114-30.4097 43.6651-30.4097L30.4039-30.4097Q29.5553-30.4097 28.7403-30.1638Q27.9254-29.9179 27.3209-29.332L13.3555-15.269Q12.2139-14.1273 12.1895-12.5521Q12.1651-10.9769 13.3555-9.8203Q14.4633-8.67869 16.0629-8.68632Q17.6626-8.69395 18.8042-9.8203L31.399-22.3813L46.7349-19.8692Q50.4038-19.2495 53.9768-20.3592Q57.5498-21.4689 60.2084-24.161L68.8566-32.8395Q69.4272-33.3766 70.015-33.1324Q70.6027-32.8883 70.6027-32.1373L70.6027-26.2001L60.1596-15.7422Q59.067-14.6006 59.067-13.0178Q59.067-11.4349 60.1596-10.2933Q61.3012-9.15197 62.9496-9.15197Q64.5493-9.15197 65.6759-10.2933L77.2418-21.8595Q78.3834-23.0011 78.3834-24.6005L78.3834-41.8442Q78.3834-45.5805 76.149-47.8335L52.9269-70.9244L52.9269-59.9594L63.0811-49.8388Q64.1436-48.8101 63.0811-47.702L52.8033-37.4242L36.1455-49.0878Q35.1807-49.7411 33.7799-49.7411L13.682-49.7411Q12.0336-49.7411 10.8996-48.6071Q9.76562-47.4731 9.76562-45.9073Q9.76562-44.3077 10.8996-43.1492Q12.0336-41.9907 13.682-41.9907ZM55.1689-3.37931Q57.9203-3.37931 60.0993-4.6608Q62.2782-5.94228 63.5379-8.11717Q64.7975-10.2921 64.7906-12.9979L60.9657-12.9979Q60.9423-10.5347 59.2856-8.88621Q57.6289-7.23775 55.1689-7.23775Q52.7158-7.23775 51.044-8.73121Q49.3721-10.2247 49.3721-13.001L49.3721-86.2208Q49.3721-87.0155 48.7928-87.595Q48.2135-88.1744 47.452-88.1744Q46.6573-88.1744 46.0855-87.595Q45.5137-87.0155 45.5137-86.2208L45.5137-13.001Q45.5137-8.53704 48.2895-5.95818Q51.0653-3.37931 55.1689-3.37931ZM62.9008 17.6666Q63.6958 17.6666 64.2507 17.1041Q64.8056 16.5415 64.8056 15.713L64.8056-30.3881L60.981-30.3881L60.981 15.713Q60.981 16.5415 61.5435 17.1041Q62.1061 17.6666 62.9008 17.6666Z"/>
  </g>
  <g id="Thin-S" transform="matrix(1 0 0 1 808.538 696)">
   <path d="M78.1878-52.1581Q81.4571-52.1581 83.7295-54.4375Q86.0019-56.7168 86.0019-59.9647Q86.0019-63.2346 83.7295-65.507Q81.4571-67.7793 78.1878-67.7793Q74.9394-67.7793 72.66-65.507Q70.3806-63.2346 70.3806-59.9647Q70.3806-56.7168 72.66-54.4375Q74.9394-52.1581 78.1878-52.1581ZM13.5018-41.7303L31.4882-41.7303L42.8963-31.3884Q43.1115-31.1523 43.0109-30.8712Q42.9103-30.59 42.584-30.59L29.5432-30.59Q28.7346-30.59 27.9396-30.374Q27.1447-30.1581 26.5802-29.5721L13.1954-16.0897Q12.0938-14.9881 12.0694-13.4929Q12.045-11.9977 13.1954-10.8613Q14.283-9.75972 15.8026-9.77744Q17.3222-9.79516 18.4238-10.8613L30.4983-22.9219L45.1934-20.51Q48.7423-19.9101 52.1651-20.9698Q55.5879-22.0296 58.1462-24.6013L66.4143-32.9397Q66.9648-33.4768 67.5226-33.2327Q68.0804-32.9885 68.0804-32.2776L68.0804-26.5603L58.0974-16.5431Q57.0452-15.4415 57.0452-13.9286Q57.0452-12.4157 58.0974-11.3141Q59.199-10.2132 60.7674-10.2132Q62.287-10.2132 63.3537-11.3141L74.4591-22.4202Q75.5607-23.5218 75.5607-25.0408L75.5607-41.5838Q75.5607-45.1601 73.4064-47.293L50.4046-70.1837L50.4046-59.6991L60.879-49.238Q61.8615-48.2696 60.879-47.1814L51.0216-37.324L35.0645-48.5271Q34.1797-49.1404 32.7991-49.1404L13.5018-49.1404Q11.9334-49.1404 10.8495-48.0565Q9.76562-46.9727 9.76562-45.4671Q9.76562-43.9475 10.8495-42.8389Q11.9334-41.7303 13.5018-41.7303ZM53.287-5.20098Q55.7381-5.20098 57.6668-6.27225Q59.5955-7.34351 60.7451-9.19819Q61.8948-11.0529 62.008-13.3982L59.324-13.3982Q59.1405-11.0352 57.4237-9.46675Q55.707-7.89834 53.287-7.89834Q50.7539-7.89834 49.002-9.46193Q47.2501-11.0255 47.2501-13.9219L47.2501-83.8186Q47.2501-84.3728 46.8409-84.7823Q46.4318-85.1917 45.8904-85.1917Q45.3361-85.1917 44.9444-84.7823Q44.5527-84.3728 44.5527-83.8186L44.5527-13.9219Q44.5527-9.81819 47.0282-7.50959Q49.5036-5.20098 53.287-5.20098ZM60.7186 14.6839Q61.2734 14.6839 61.6581 14.2814Q62.0428 13.879 62.0428 13.3108L62.0428-30.0878L59.3594-30.0878L59.3594 13.3108Q59.3594 13.879 59.7619 14.2814Q60.1643 14.6839 60.7186 14.6839Z"/>
  </g>
  <g id="Ultralight-S" transform="matrix(1 0 0 1 512.566 696)">
   <path d="M76.8959-52.0042Q80.0934-52.0042 82.3093-54.2221Q84.5253-56.44 84.5253-59.5955Q84.5253-62.7937 82.3093-65.0097Q80.0934-67.2256 76.8959-67.2256Q73.7396-67.2256 71.5218-65.0097Q69.3039-62.7937 69.3039-59.5955Q69.3039-56.44 71.5218-54.2221Q73.7396-52.0042 76.8959-52.0042ZM13.4094-41.597L31.0165-41.597L42.2913-31.3576Q42.4553-31.1523 42.3752-30.9174Q42.2951-30.6824 42.0303-30.6824L29.1023-30.6824Q28.3142-30.6824 27.5295-30.4817Q26.7448-30.2811 26.2009-29.6951L13.1134-16.51Q12.0323-15.4289 12.0079-13.9748Q11.9835-12.5206 13.1134-11.3945Q14.1907-10.3134 15.6693-10.3363Q17.1478-10.3592 18.2289-11.3945L30.0369-23.1987L44.4038-20.8382Q47.8912-20.2484 51.2371-21.2826Q54.583-22.3167 57.09-24.8268L65.1634-32.991Q65.7036-33.5281 66.246-33.284Q66.7885-33.0399 66.7885-32.3494L66.7885-26.7448L57.0412-16.9533Q56.0097-15.8722 56.0097-14.3951Q56.0097-12.9181 57.0412-11.837Q58.1223-10.7567 59.6497-10.7567Q61.1282-10.7567 62.1643-11.837L73.0339-22.7074Q74.115-23.7885 74.115-25.2663L74.115-41.4505Q74.115-44.9448 72.0016-47.0161L49.1127-69.8044L49.1127-59.5657L59.7511-48.9304Q60.6926-47.9927 59.7511-46.9147L50.1091-37.2726L34.5108-48.2399Q33.667-48.8327 32.2968-48.8327L13.4094-48.8327Q11.882-48.8327 10.8238-47.7745Q9.76562-46.7163 9.76562-45.2415Q9.76562-43.763 10.8238-42.68Q11.882-41.597 13.4094-41.597ZM52.3232-6.13403Q54.6204-6.13403 56.4209-7.09763Q58.2214-8.06122 59.3147-9.75189Q60.408-11.4426 60.5827-13.6032L58.4831-13.6032Q58.2176-11.2915 56.4701-9.7641Q54.7226-8.23669 52.3232-8.23669Q49.749-8.23669 47.9561-9.8362Q46.1632-11.4357 46.1632-14.3936L46.1632-82.5882Q46.1632-83.0193 45.8412-83.3416Q45.5193-83.6639 45.0905-83.6639Q44.6594-83.6639 44.36-83.3416Q44.0605-83.0193 44.0605-82.5882L44.0605-14.3936Q44.0605-10.4744 46.3821-8.30421Q48.7038-6.13403 52.3232-6.13403ZM59.6008 13.1561Q60.0327 13.1561 60.3302 12.8357Q60.6277 12.5153 60.6277 12.0804L60.6277-29.9339L58.5289-29.9339L58.5289 12.0804Q58.5289 12.5153 58.8493 12.8357Q59.1698 13.1561 59.6008 13.1561Z"/>
  </g>
 </g>
</svg>
