<?xml version="1.0" encoding="UTF-8"?>
<!--Generator: Apple Native CoreSVG 175.5-->
<!DOCTYPE svg
PUBLIC "-//W3C//DTD SVG 1.1//EN"
       "http://www.w3.org/Graphics/SVG/1.1/DTD/svg11.dtd">
<svg version="1.1" xmlns="http://www.w3.org/2000/svg" xmlns:xlink="http://www.w3.org/1999/xlink" width="3300" height="2200">
 <!--glyph: "uni10143F.medium", point size: 100.0, font version: "18.0d9e1", template writer version: "84"-->
 <g id="Notes">
  <rect height="2200" id="artboard" style="fill:white;opacity:1" width="3300" x="0" y="0"/>
  <line style="fill:none;stroke:black;opacity:1;stroke-width:0.5;" x1="263" x2="3036" y1="292" y2="292"/>
  <text style="stroke:none;fill:black;font-family:sans-serif;font-size:13;font-weight:bold;" transform="matrix(1 0 0 1 263 322)">Weight/Scale Variations</text>
  <text style="stroke:none;fill:black;font-family:sans-serif;font-size:13;text-anchor:middle;" transform="matrix(1 0 0 1 559.711 322)">Ultralight</text>
  <text style="stroke:none;fill:black;font-family:sans-serif;font-size:13;text-anchor:middle;" transform="matrix(1 0 0 1 856.422 322)">Thin</text>
  <text style="stroke:none;fill:black;font-family:sans-serif;font-size:13;text-anchor:middle;" transform="matrix(1 0 0 1 1153.13 322)">Light</text>
  <text style="stroke:none;fill:black;font-family:sans-serif;font-size:13;text-anchor:middle;" transform="matrix(1 0 0 1 1449.84 322)">Regular</text>
  <text style="stroke:none;fill:black;font-family:sans-serif;font-size:13;text-anchor:middle;" transform="matrix(1 0 0 1 1746.56 322)">Medium</text>
  <text style="stroke:none;fill:black;font-family:sans-serif;font-size:13;text-anchor:middle;" transform="matrix(1 0 0 1 2043.27 322)">Semibold</text>
  <text style="stroke:none;fill:black;font-family:sans-serif;font-size:13;text-anchor:middle;" transform="matrix(1 0 0 1 2339.98 322)">Bold</text>
  <text style="stroke:none;fill:black;font-family:sans-serif;font-size:13;text-anchor:middle;" transform="matrix(1 0 0 1 2636.69 322)">Heavy</text>
  <text style="stroke:none;fill:black;font-family:sans-serif;font-size:13;text-anchor:middle;" transform="matrix(1 0 0 1 2933.4 322)">Black</text>
  <line style="fill:none;stroke:black;opacity:1;stroke-width:0.5;" x1="263" x2="3036" y1="1903" y2="1903"/>
  <g transform="matrix(1 0 0 1 263 1933)">
   <path d="M9.24805 0.830078Q10.8691 0.830078 12.2949 0.214844Q13.7207-0.400391 14.8096-1.49414Q15.8984-2.58789 16.5186-4.01367Q17.1387-5.43945 17.1387-7.05078Q17.1387-8.66211 16.5186-10.0879Q15.8984-11.5137 14.8047-12.6074Q13.7109-13.7012 12.2852-14.3164Q10.8594-14.9316 9.23828-14.9316Q7.62695-14.9316 6.20117-14.3164Q4.77539-13.7012 3.69141-12.6074Q2.60742-11.5137 1.9873-10.0879Q1.36719-8.66211 1.36719-7.05078Q1.36719-5.43945 1.9873-4.01367Q2.60742-2.58789 3.69629-1.49414Q4.78516-0.400391 6.21094 0.214844Q7.63672 0.830078 9.24805 0.830078ZM9.24805-0.654297Q7.91992-0.654297 6.7627-1.14746Q5.60547-1.64062 4.73145-2.51953Q3.85742-3.39844 3.36426-4.56055Q2.87109-5.72266 2.87109-7.05078Q2.87109-8.37891 3.35938-9.54102Q3.84766-10.7031 4.72168-11.582Q5.5957-12.4609 6.75293-12.9541Q7.91016-13.4473 9.23828-13.4473Q10.5762-13.4473 11.7383-12.9541Q12.9004-12.4609 13.7793-11.582Q14.6582-10.7031 15.1514-9.54102Q15.6445-8.37891 15.6445-7.05078Q15.6445-5.72266 15.1514-4.56055Q14.6582-3.39844 13.7793-2.51953Q12.9004-1.64062 11.7432-1.14746Q10.5859-0.654297 9.24805-0.654297ZM5.6543-7.05078Q5.6543-6.72852 5.85938-6.52832Q6.06445-6.32812 6.40625-6.32812L8.51562-6.32812L8.51562-4.20898Q8.51562-3.88672 8.71094-3.67676Q8.90625-3.4668 9.23828-3.4668Q9.56055-3.4668 9.77051-3.67676Q9.98047-3.88672 9.98047-4.20898L9.98047-6.32812L12.0898-6.32812Q12.4219-6.32812 12.627-6.52832Q12.832-6.72852 12.832-7.05078Q12.832-7.38281 12.627-7.58789Q12.4219-7.79297 12.0898-7.79297L9.98047-7.79297L9.98047-9.90234Q9.98047-10.2344 9.77051-10.4443Q9.56055-10.6543 9.23828-10.6543Q8.90625-10.6543 8.71094-10.4443Q8.51562-10.2344 8.51562-9.90234L8.51562-7.79297L6.40625-7.79297Q6.06445-7.79297 5.85938-7.58789Q5.6543-7.38281 5.6543-7.05078Z"/>
  </g>
  <g transform="matrix(1 0 0 1 281.867 1933)">
   <path d="M11.709 2.91016Q13.75 2.91016 15.5518 2.12891Q17.3535 1.34766 18.7305-0.0292969Q20.1074-1.40625 20.8887-3.20801Q21.6699-5.00977 21.6699-7.05078Q21.6699-9.0918 20.8887-10.8936Q20.1074-12.6953 18.7305-14.0723Q17.3535-15.4492 15.5469-16.2305Q13.7402-17.0117 11.6992-17.0117Q9.6582-17.0117 7.85645-16.2305Q6.05469-15.4492 4.68262-14.0723Q3.31055-12.6953 2.5293-10.8936Q1.74805-9.0918 1.74805-7.05078Q1.74805-5.00977 2.5293-3.20801Q3.31055-1.40625 4.6875-0.0292969Q6.06445 1.34766 7.86621 2.12891Q9.66797 2.91016 11.709 2.91016ZM11.709 1.25Q9.98047 1.25 8.47656 0.605469Q6.97266-0.0390625 5.83496-1.17676Q4.69727-2.31445 4.05762-3.81836Q3.41797-5.32227 3.41797-7.05078Q3.41797-8.7793 4.05762-10.2832Q4.69727-11.7871 5.83008-12.9297Q6.96289-14.0723 8.4668-14.7119Q9.9707-15.3516 11.6992-15.3516Q13.4277-15.3516 14.9365-14.7119Q16.4453-14.0723 17.583-12.9297Q18.7207-11.7871 19.3652-10.2832Q20.0098-8.7793 20.0098-7.05078Q20.0098-5.32227 19.3701-3.81836Q18.7305-2.31445 17.5879-1.17676Q16.4453-0.0390625 14.9414 0.605469Q13.4375 1.25 11.709 1.25ZM7.17773-7.05078Q7.17773-6.69922 7.41211-6.47461Q7.64648-6.25 8.01758-6.25L10.8887-6.25L10.8887-3.36914Q10.8887-2.99805 11.1133-2.76855Q11.3379-2.53906 11.6895-2.53906Q12.0605-2.53906 12.29-2.76855Q12.5195-2.99805 12.5195-3.36914L12.5195-6.25L15.4004-6.25Q15.7715-6.25 16.001-6.47461Q16.2305-6.69922 16.2305-7.05078Q16.2305-7.42188 16.001-7.65137Q15.7715-7.88086 15.4004-7.88086L12.5195-7.88086L12.5195-10.752Q12.5195-11.1328 12.29-11.3623Q12.0605-11.5918 11.6895-11.5918Q11.3379-11.5918 11.1133-11.3574Q10.8887-11.123 10.8887-10.752L10.8887-7.88086L8.01758-7.88086Q7.63672-7.88086 7.40723-7.65137Q7.17773-7.42188 7.17773-7.05078Z"/>
  </g>
  <g transform="matrix(1 0 0 1 305.646 1933)">
   <path d="M14.9707 5.66406Q17.0605 5.66406 18.96 5.01465Q20.8594 4.36523 22.4512 3.19336Q24.043 2.02148 25.2197 0.429688Q26.3965-1.16211 27.0459-3.06641Q27.6953-4.9707 27.6953-7.05078Q27.6953-9.14062 27.0459-11.04Q26.3965-12.9395 25.2197-14.5312Q24.043-16.123 22.4512-17.2998Q20.8594-18.4766 18.9551-19.126Q17.0508-19.7754 14.9609-19.7754Q12.8711-19.7754 10.9717-19.126Q9.07227-18.4766 7.48535-17.2998Q5.89844-16.123 4.72168-14.5312Q3.54492-12.9395 2.90039-11.04Q2.25586-9.14062 2.25586-7.05078Q2.25586-4.9707 2.90527-3.06641Q3.55469-1.16211 4.72656 0.429688Q5.89844 2.02148 7.49023 3.19336Q9.08203 4.36523 10.9814 5.01465Q12.8809 5.66406 14.9707 5.66406ZM14.9707 3.84766Q13.1641 3.84766 11.5283 3.2959Q9.89258 2.74414 8.53516 1.74805Q7.17773 0.751953 6.17676-0.610352Q5.17578-1.97266 4.62891-3.6084Q4.08203-5.24414 4.08203-7.05078Q4.08203-8.86719 4.62891-10.5029Q5.17578-12.1387 6.17188-13.501Q7.16797-14.8633 8.52539-15.8594Q9.88281-16.8555 11.5186-17.4023Q13.1543-17.9492 14.9609-17.9492Q16.7773-17.9492 18.4131-17.4023Q20.0488-16.8555 21.4111-15.8594Q22.7734-14.8633 23.7744-13.501Q24.7754-12.1387 25.3223-10.5029Q25.8691-8.86719 25.8691-7.05078Q25.8691-5.24414 25.3223-3.6084Q24.7754-1.97266 23.7793-0.610352Q22.7832 0.751953 21.4209 1.74805Q20.0586 2.74414 18.4229 3.2959Q16.7871 3.84766 14.9707 3.84766ZM9.19922-7.05078Q9.19922-6.66992 9.45801-6.4209Q9.7168-6.17188 10.1172-6.17188L14.0625-6.17188L14.0625-2.2168Q14.0625-1.81641 14.3115-1.55762Q14.5605-1.29883 14.9512-1.29883Q15.3516-1.29883 15.6104-1.55273Q15.8691-1.80664 15.8691-2.2168L15.8691-6.17188L19.8242-6.17188Q20.2246-6.17188 20.4785-6.4209Q20.7324-6.66992 20.7324-7.05078Q20.7324-7.46094 20.4785-7.71484Q20.2246-7.96875 19.8242-7.96875L15.8691-7.96875L15.8691-11.9141Q15.8691-12.3242 15.6104-12.583Q15.3516-12.8418 14.9512-12.8418Q14.5605-12.8418 14.3115-12.583Q14.0625-12.3242 14.0625-11.9141L14.0625-7.96875L10.1172-7.96875Q9.70703-7.96875 9.45312-7.71484Q9.19922-7.46094 9.19922-7.05078Z"/>
  </g>
  <text style="stroke:none;fill:black;font-family:sans-serif;font-size:13;font-weight:bold;" transform="matrix(1 0 0 1 263 1953)">Design Variations</text>
  <text style="stroke:none;fill:black;font-family:sans-serif;font-size:13;" transform="matrix(1 0 0 1 263 1971)">Symbols are supported in up to nine weights and three scales.</text>
  <text style="stroke:none;fill:black;font-family:sans-serif;font-size:13;" transform="matrix(1 0 0 1 263 1989)">For optimal layout with text and other symbols, vertically align</text>
  <text style="stroke:none;fill:black;font-family:sans-serif;font-size:13;" transform="matrix(1 0 0 1 263 2007)">symbols with the adjacent text.</text>
  <line style="fill:none;stroke:#00AEEF;stroke-width:0.5;opacity:1.0;" x1="776" x2="776" y1="1919" y2="1933"/>
  <g transform="matrix(1 0 0 1 776 1933)">
   <path d="M3.31055 0.15625Q3.70117 0.15625 3.91602-0.00976562Q4.13086-0.175781 4.26758-0.585938L5.52734-4.0332L11.2891-4.0332L12.5488-0.585938Q12.6855-0.175781 12.9004-0.00976562Q13.1152 0.15625 13.4961 0.15625Q13.8867 0.15625 14.1162-0.0585938Q14.3457-0.273438 14.3457-0.644531Q14.3457-0.869141 14.2383-1.17188L9.6582-13.3691Q9.48242-13.8184 9.17969-14.043Q8.87695-14.2676 8.4082-14.2676Q7.5-14.2676 7.17773-13.3789L2.59766-1.16211Q2.49023-0.859375 2.49023-0.634766Q2.49023-0.263672 2.70996-0.0537109Q2.92969 0.15625 3.31055 0.15625ZM6.00586-5.51758L8.37891-12.0898L8.42773-12.0898L10.8008-5.51758Z"/>
  </g>
  <line style="fill:none;stroke:#00AEEF;stroke-width:0.5;opacity:1.0;" x1="793.197" x2="793.197" y1="1919" y2="1933"/>
  <text style="stroke:none;fill:black;font-family:sans-serif;font-size:13;font-weight:bold;" transform="matrix(1 0 0 1 776 1953)">Margins</text>
  <text style="stroke:none;fill:black;font-family:sans-serif;font-size:13;" transform="matrix(1 0 0 1 776 1971)">Leading and trailing margins on the left and right side of each symbol</text>
  <text style="stroke:none;fill:black;font-family:sans-serif;font-size:13;" transform="matrix(1 0 0 1 776 1989)">can be adjusted by modifying the x-location of the margin guidelines.</text>
  <text style="stroke:none;fill:black;font-family:sans-serif;font-size:13;" transform="matrix(1 0 0 1 776 2007)">Modifications are automatically applied proportionally to all</text>
  <text style="stroke:none;fill:black;font-family:sans-serif;font-size:13;" transform="matrix(1 0 0 1 776 2025)">scales and weights.</text>
  <g transform="matrix(1 0 0 1 1289 1933)">
   <path d="M2.8418 1.86523L4.54102 3.57422Q5.18555 4.22852 5.90332 4.17969Q6.62109 4.13086 7.31445 3.35938L18.0078-8.42773L17.041-9.4043L6.42578 2.27539Q6.16211 2.57812 5.89355 2.61719Q5.625 2.65625 5.27344 2.30469L4.10156 1.14258Q3.75 0.791016 3.79395 0.522461Q3.83789 0.253906 4.14062-0.0195312L15.6152-10.8203L14.6387-11.7871L3.04688-0.898438Q2.30469-0.214844 2.25098 0.498047Q2.19727 1.21094 2.8418 1.86523ZM9.25781-16.3281Q8.94531-16.0254 8.90625-15.6348Q8.86719-15.2441 9.04297-14.9512Q9.21875-14.6777 9.55566-14.541Q9.89258-14.4043 10.3809-14.5215Q11.4746-14.7754 12.5977-14.7314Q13.7207-14.6875 14.7949-13.9844L14.209-12.5293Q13.9551-11.9043 14.0674-11.4404Q14.1797-10.9766 14.5801-10.5664L16.875-8.25195Q17.2363-7.88086 17.5781-7.82227Q17.9199-7.76367 18.3398-7.8418L19.4043-8.03711L20.0684-7.36328L20.0293-6.80664Q20-6.43555 20.1221-6.12305Q20.2441-5.81055 20.6055-5.44922L21.3672-4.70703Q21.7285-4.3457 22.1533-4.33105Q22.5781-4.31641 22.9297-4.66797L25.8398-7.58789Q26.1914-7.93945 26.1816-8.35449Q26.1719-8.76953 25.8105-9.13086L25.0391-9.89258Q24.6875-10.2539 24.3799-10.3857Q24.0723-10.5176 23.7109-10.4883L23.1348-10.4395L22.4902-11.0742L22.7344-12.1973Q22.832-12.6172 22.6953-12.9834Q22.5586-13.3496 22.1191-13.7891L19.9219-15.9766Q18.6719-17.2168 17.2607-17.8369Q15.8496-18.457 14.4189-18.4814Q12.9883-18.5059 11.665-17.959Q10.3418-17.4121 9.25781-16.3281ZM10.752-15.957Q11.6602-16.6211 12.7002-16.9043Q13.7402-17.1875 14.8047-17.085Q15.8691-16.9824 16.8701-16.5137Q17.8711-16.0449 18.7012-15.2051L21.1328-12.793Q21.3086-12.6172 21.3525-12.4512Q21.3965-12.2852 21.3379-12.0312L21.0156-10.5469L22.5195-9.0625L23.5059-9.12109Q23.6914-9.13086 23.7891-9.09668Q23.8867-9.0625 24.0332-8.91602L24.6094-8.33984L22.168-5.89844L21.5918-6.47461Q21.4453-6.62109 21.4062-6.71875Q21.3672-6.81641 21.377-7.01172L21.4453-7.98828L19.9512-9.47266L18.4277-9.21875Q18.1836-9.16992 18.042-9.2041Q17.9004-9.23828 17.7148-9.41406L15.7129-11.416Q15.5176-11.5918 15.4932-11.7529Q15.4688-11.9141 15.5859-12.1875L16.4648-14.2773Q15.293-15.3711 13.8281-15.791Q12.3633-16.2109 10.8398-15.7617Q10.7227-15.7324 10.6885-15.8057Q10.6543-15.8789 10.752-15.957Z"/>
  </g>
  <text style="stroke:none;fill:black;font-family:sans-serif;font-size:13;font-weight:bold;" transform="matrix(1 0 0 1 1289 1953)">Exporting</text>
  <text style="stroke:none;fill:black;font-family:sans-serif;font-size:13;" transform="matrix(1 0 0 1 1289 1971)">Symbols should be outlined when exporting to ensure the</text>
  <text style="stroke:none;fill:black;font-family:sans-serif;font-size:13;" transform="matrix(1 0 0 1 1289 1989)">design is preserved when submitting to Xcode.</text>
  <text id="template-version" style="stroke:none;fill:black;font-family:sans-serif;font-size:13;text-anchor:end;" transform="matrix(1 0 0 1 3036 1933)">Template v.2.0</text>
  <text style="stroke:none;fill:black;font-family:sans-serif;font-size:13;text-anchor:end;" transform="matrix(1 0 0 1 3036 1951)">Requires Xcode 12 or greater</text>
  <text id="descriptive-name" style="stroke:none;fill:black;font-family:sans-serif;font-size:13;text-anchor:end;" transform="matrix(1 0 0 1 3036 1969)">Generated from toilet.fill</text>
  <text style="stroke:none;fill:black;font-family:sans-serif;font-size:13;text-anchor:end;" transform="matrix(1 0 0 1 3036 1987)">Typeset at 100 points</text>
  <text style="stroke:none;fill:black;font-family:sans-serif;font-size:13;" transform="matrix(1 0 0 1 263 726)">Small</text>
  <text style="stroke:none;fill:black;font-family:sans-serif;font-size:13;" transform="matrix(1 0 0 1 263 1156)">Medium</text>
  <text style="stroke:none;fill:black;font-family:sans-serif;font-size:13;" transform="matrix(1 0 0 1 263 1586)">Large</text>
 </g>
 <g id="Guides">
  <g id="H-reference" style="fill:#27AAE1;stroke:none;" transform="matrix(1 0 0 1 339 696)">
   <path d="M0.993347 0L3.6377 0L29.3282-67.1326L30.0301-67.1326L30.0301-70.459L28.1227-70.459ZM11.6882-24.4797L46.9818-24.4797L46.2311-26.7288L12.4382-26.7288ZM55.1193 0L57.7637 0L30.6381-70.459L29.4327-70.459L29.4327-67.1326Z"/>
  </g>
  <line id="Baseline-S" style="fill:none;stroke:#27AAE1;opacity:1;stroke-width:0.5;" x1="263" x2="3036" y1="696" y2="696"/>
  <line id="Capline-S" style="fill:none;stroke:#27AAE1;opacity:1;stroke-width:0.5;" x1="263" x2="3036" y1="625.541" y2="625.541"/>
  <g id="H-reference" style="fill:#27AAE1;stroke:none;" transform="matrix(1 0 0 1 339 1126)">
   <path d="M0.993347 0L3.6377 0L29.3282-67.1326L30.0301-67.1326L30.0301-70.459L28.1227-70.459ZM11.6882-24.4797L46.9818-24.4797L46.2311-26.7288L12.4382-26.7288ZM55.1193 0L57.7637 0L30.6381-70.459L29.4327-70.459L29.4327-67.1326Z"/>
  </g>
  <line id="Baseline-M" style="fill:none;stroke:#27AAE1;opacity:1;stroke-width:0.5;" x1="263" x2="3036" y1="1126" y2="1126"/>
  <line id="Capline-M" style="fill:none;stroke:#27AAE1;opacity:1;stroke-width:0.5;" x1="263" x2="3036" y1="1055.54" y2="1055.54"/>
  <g id="H-reference" style="fill:#27AAE1;stroke:none;" transform="matrix(1 0 0 1 339 1556)">
   <path d="M0.993347 0L3.6377 0L29.3282-67.1326L30.0301-67.1326L30.0301-70.459L28.1227-70.459ZM11.6882-24.4797L46.9818-24.4797L46.2311-26.7288L12.4382-26.7288ZM55.1193 0L57.7637 0L30.6381-70.459L29.4327-70.459L29.4327-67.1326Z"/>
  </g>
  <line id="Baseline-L" style="fill:none;stroke:#27AAE1;opacity:1;stroke-width:0.5;" x1="263" x2="3036" y1="1556" y2="1556"/>
  <line id="Capline-L" style="fill:none;stroke:#27AAE1;opacity:1;stroke-width:0.5;" x1="263" x2="3036" y1="1485.54" y2="1485.54"/>
  <line id="left-margin" style="fill:none;stroke:#00AEEF;stroke-width:0.5;opacity:1.0;" x1="1401.68" x2="1401.68" y1="1030.79" y2="1150.12"/>
  <line id="right-margin" style="fill:none;stroke:#00AEEF;stroke-width:0.5;opacity:1.0;" x1="1498.01" x2="1498.01" y1="1030.79" y2="1150.12"/>
 </g>
 <g id="Symbols">
  <g id="Black-L" transform="matrix(1 0 0 1 2866.63 1556)">
   <path d="M24.6143-100.217L108.926-100.217Q112.48-100.217 114.968-102.734Q117.456-105.252 117.456-108.748Q117.456-112.281 114.968-114.78Q112.48-117.278 108.926-117.278L24.6143-117.278Q21.1391-117.278 18.6116-114.78Q16.084-112.281 16.084-108.748Q16.084-105.252 18.6116-102.734Q21.1391-100.217 24.6143-100.217ZM66.7712-20.253Q80.1693-20.253 90.8573-22.9053Q101.545-25.5577 107.819-30.0983Q114.094-34.6389 114.094-40.2742Q114.094-45.9082 107.817-50.4286Q101.541-54.949 90.852-57.6013Q80.1633-60.2537 66.7712-60.2537Q53.4375-60.2537 42.7191-57.6013Q32.0006-54.949 25.7339-50.4286Q19.4672-45.9082 19.4672-40.2742Q19.4672-34.6389 25.7339-30.0983Q32.0006-25.5577 42.7191-22.9053Q53.4375-20.253 66.7712-20.253ZM65.4339 9.10707L68.1074 9.10707Q84.9899 9.10707 96.4316 0.568241Q107.873-7.97059 111.619-23.5874Q104.482-18.4146 92.8788-15.5797Q81.2753-12.7449 66.7712-12.7449Q52.3512-12.7449 40.7337-15.5517Q29.1162-18.3586 22.0004-23.5313Q24.5277-13.1323 30.5042-5.85061Q36.4807 1.43108 45.3811 5.26907Q54.2815 9.10707 65.4339 9.10707ZM66.77 46.8218Q73.1858 46.8218 79.9402 45.7904Q86.6946 44.7589 92.5455 42.5133Q98.3963 40.2678 101.983 36.6077Q103.542 34.9145 103.964 32.6106Q104.386 30.3067 103.612 27.8538L97.9185 9.38685Q91.4982 13.0724 84.0087 15.0424Q76.5192 17.0125 68.167 17.0125L65.291 17.0125Q56.9804 17.0125 49.5111 15.0528Q42.0418 13.0932 35.6423 9.42849L29.9297 27.8538Q29.2124 30.3067 29.6154 32.6106Q30.0185 34.9145 31.558 36.6077Q35.1645 40.2678 41.0154 42.5133Q46.8662 44.7589 53.6394 45.7904Q60.4126 46.8218 66.77 46.8218ZM107.728-59.7121L109.838-92.3703L23.7019-92.3703L25.8332-59.7109Q33.1998-63.7085 43.6902-65.9338Q54.1805-68.1591 66.7712-68.1591Q79.3827-68.1591 89.862-65.9338Q100.341-63.7085 107.728-59.7121Z"/>
  </g>
  <g id="Heavy-L" transform="matrix(1 0 0 1 2571.13 1556)">
   <path d="M23.7186-100.397L107.39-100.397Q110.572-100.397 112.798-102.646Q115.025-104.895 115.025-108.031Q115.025-111.183 112.798-113.424Q110.572-115.666 107.39-115.666L23.7186-115.666Q20.6118-115.666 18.3479-113.424Q16.084-111.183 16.084-108.031Q16.084-104.895 18.3479-102.646Q20.6118-100.397 23.7186-100.397ZM65.5599-21.7763Q78.786-21.7763 89.263-24.2748Q99.74-26.7733 105.851-31.0799Q111.961-35.3865 111.961-40.7736Q111.961-46.1551 105.839-50.4343Q99.7176-54.7134 89.2377-57.212Q78.7579-59.7105 65.5599-59.7105Q52.4066-59.7105 41.9016-57.212Q31.3967-54.7134 25.2871-50.4343Q19.1776-46.1551 19.1776-40.7736Q19.1776-35.3865 25.2871-31.0799Q31.3967-26.7733 41.9016-24.2748Q52.4066-21.7763 65.5599-21.7763ZM64.0628 7.55436L67.0515 7.55436Q83.6704 7.55436 95.0315-1.01027Q106.393-9.57491 109.904-25.1132Q102.966-20.0606 91.5-17.3065Q80.0341-14.5525 65.5599-14.5525Q51.183-14.5525 39.6852-17.2898Q28.1874-20.0272 21.279-25.0798Q23.6228-14.7239 29.5177-7.43541Q35.4125-0.1469 44.2365 3.70373Q53.0605 7.55436 64.0628 7.55436ZM65.5543 45.2474Q71.6752 45.2474 78.1836 44.2339Q84.692 43.2204 90.3349 41.0584Q95.9778 38.8964 99.3925 35.435Q100.878 33.8471 101.231 31.7285Q101.584 29.6098 100.879 27.3185L95.0588 8.27286Q88.9572 11.611 81.9012 13.3845Q74.8451 15.1579 67.1016 15.1579L63.8918 15.1579Q56.2087 15.1579 49.1801 13.3995Q42.1515 11.6412 36.08 8.33324L30.2356 27.3185Q29.569 29.6098 29.915 31.7285Q30.261 33.8471 31.7217 35.435Q35.161 38.8964 40.8039 41.0584Q46.4468 43.2204 52.9625 44.2339Q59.4781 45.2474 65.5543 45.2474ZM105.305-59.5171L107.515-92.838L23.5938-92.838L25.8337-59.5114Q33.0283-63.2207 43.2122-65.2673Q53.3962-67.3139 65.5599-67.3139Q77.7539-67.3139 87.9199-65.2673Q98.086-63.2207 105.305-59.5171Z"/>
  </g>
  <g id="Bold-L" transform="matrix(1 0 0 1 2276.02 1556)">
   <path d="M22.5747-100.523L105.343-100.523Q108.049-100.523 109.941-102.43Q111.834-104.337 111.834-107.014Q111.834-109.681 109.941-111.593Q108.049-113.504 105.343-113.504L22.5747-113.504Q19.9363-113.504 18.0101-111.593Q16.084-109.681 16.084-107.014Q16.084-104.337 18.0101-102.43Q19.9363-100.523 22.5747-100.523ZM63.9721-23.4429Q76.9682-23.4429 87.169-25.768Q97.3699-28.093 103.269-32.1338Q109.169-36.1746 109.169-41.2842Q109.169-46.3804 103.243-50.3897Q97.317-54.3991 87.1095-56.7242Q76.9019-59.0494 63.9721-59.0494Q51.0715-59.0494 40.8427-56.7242Q30.6139-54.3991 24.7003-50.3897Q18.7867-46.3804 18.7867-41.2842Q18.7867-36.1746 24.7003-32.1338Q30.6139-28.093 40.8427-25.768Q51.0715-23.4429 63.9721-23.4429ZM62.3497 5.53637L65.5812 5.53637Q81.8624 5.53637 93.1012-3.0143Q104.34-11.565 107.582-26.9512Q100.927-22.0224 89.6525-19.3533Q78.3781-16.6842 63.9721-16.6842Q49.6861-16.6842 38.3531-19.3519Q27.02-22.0196 20.4025-26.9485Q22.5382-16.6837 28.3257-9.42103Q34.1132-2.15835 42.8263 1.68901Q51.5394 5.53637 62.3497 5.53637ZM63.9588 43.1169Q69.7632 43.1169 75.9643 42.1301Q82.1653 41.1434 87.5248 39.0963Q92.8843 37.0492 96.0689 33.8635Q97.4769 32.3988 97.7493 30.4994Q98.0218 28.6 97.3933 26.4787L91.4047 6.64396Q85.7026 9.56678 79.1769 11.1055Q72.6513 12.6443 65.6235 12.6443L62.1554 12.6443Q55.2036 12.6443 48.7094 11.1245Q42.2152 9.60466 36.5509 6.71995L30.5376 26.4787Q29.9252 28.6 30.202 30.4994Q30.4788 32.3988 31.862 33.8635Q35.0714 37.0492 40.4308 39.0963Q45.7903 41.1434 51.9871 42.1301Q58.1838 43.1169 63.9588 43.1169ZM102.129-59.1223L104.477-93.4442L23.4407-93.4442L25.8262-59.109Q32.7908-62.4796 42.5758-64.3184Q52.3608-66.1571 63.9721-66.1571Q75.6214-66.1571 85.3807-64.3184Q95.1401-62.4796 102.129-59.1223Z"/>
  </g>
  <g id="Semibold-L" transform="matrix(1 0 0 1 1980.41 1556)">
   <path d="M21.7861-100.609L103.932-100.609Q106.309-100.609 107.972-102.281Q109.634-103.953 109.634-106.312Q109.634-108.646 107.972-110.33Q106.309-112.014 103.932-112.014L21.7861-112.014Q19.4706-112.014 17.7773-110.33Q16.084-108.646 16.084-106.312Q16.084-103.953 17.7773-102.281Q19.4706-100.609 21.7861-100.609ZM62.8775-24.5919Q75.715-24.5919 85.7254-26.7974Q95.7359-29.0028 101.49-32.8604Q107.244-36.7179 107.244-41.6361Q107.244-46.5357 101.453-50.359Q95.662-54.1823 85.6422-56.388Q75.6225-58.5936 62.8775-58.5936Q50.151-58.5936 40.1127-56.388Q30.0743-54.1823 24.2958-50.359Q18.5173-46.5357 18.5173-41.6361Q18.5173-36.7179 24.2958-32.8604Q30.0743-29.0028 40.1127-26.7974Q50.151-24.5919 62.8775-24.5919ZM61.1687 4.14518L64.5676 4.14518Q80.616 4.14518 91.7705-4.39587Q102.925-12.9369 105.982-28.2184Q99.5214-23.3748 88.3789-20.7643Q77.2364-18.1538 62.8775-18.1538Q48.6542-18.1538 37.4347-20.7735Q26.2152-23.3932 19.7982-28.2367Q21.7905-18.0348 27.504-10.7899Q33.2175-3.54504 41.8541 0.300073Q50.4907 4.14518 61.1687 4.14518ZM62.8588 41.6481Q68.445 41.6481 74.4343 40.6798Q80.4235 39.7115 85.5876 37.7436Q90.7516 35.7757 93.7776 32.7801Q95.1323 31.4004 95.3491 29.6521Q95.5659 27.9039 94.9905 25.8997L88.8857 5.52101Q83.4588 8.15747 77.2989 9.53445Q71.1389 10.9114 64.6045 10.9114L60.9583 10.9114Q54.5107 10.9114 48.3849 9.55606Q42.2592 8.20068 36.8755 5.60775L30.7458 25.8997Q30.1707 27.9039 30.3998 29.6521Q30.6289 31.4004 31.9587 32.7801Q35.0096 35.7757 40.1737 37.7436Q45.3377 39.7115 51.3146 40.6798Q57.2916 41.6481 62.8588 41.6481ZM99.9402-58.8502L102.383-93.8621L23.3352-93.8621L25.8211-58.8316Q32.6271-61.9687 42.137-63.6641Q51.647-65.3596 62.8775-65.3596Q74.1512-65.3596 83.6302-63.6641Q93.1092-61.9687 99.9402-58.8502Z"/>
  </g>
  <g id="Medium-L" transform="matrix(1 0 0 1 1684.53 1556)">
   <path d="M21.1881-100.675L102.862-100.675Q104.99-100.675 106.478-102.168Q107.966-103.661 107.966-105.78Q107.966-107.861 106.478-109.372Q104.99-110.884 102.862-110.884L21.1881-110.884Q19.1174-110.884 17.6007-109.372Q16.084-107.861 16.084-105.78Q16.084-103.661 17.6007-102.168Q19.1174-100.675 21.1881-100.675ZM62.0475-25.4631Q74.7648-25.4631 84.6309-27.5779Q94.4969-29.6927 100.141-33.4113Q105.784-37.1298 105.784-41.903Q105.784-46.6535 100.096-50.3358Q94.4071-54.018 84.5297-56.133Q74.6523-58.248 62.0475-58.248Q49.4531-58.248 39.5592-56.133Q29.6652-54.018 23.9891-50.3358Q18.3129-46.6535 18.3129-41.903Q18.3129-37.1298 23.9891-33.4113Q29.6652-29.6927 39.5592-27.5779Q49.4531-25.4631 62.0475-25.4631ZM60.2732 3.09032L63.7991 3.09032Q79.671 3.09032 90.7615-5.44343Q101.852-13.9772 104.768-29.1791Q98.4556-24.4002 87.4132-21.8342Q76.3708-19.2681 62.0475-19.2681Q47.8718-19.2681 36.7383-21.8514Q25.6049-24.4346 19.34-29.2135Q21.2236-19.0592 26.881-11.8278Q32.5383-4.59648 41.1169-0.753077Q49.6956 3.09032 60.2732 3.09032ZM62.0248 40.5344Q67.4456 40.5344 73.2742 39.5801Q79.1028 38.6258 84.1186 36.718Q89.1345 34.8101 92.0402 31.9587Q93.3545 30.6433 93.5291 29.0097Q93.7037 27.3761 93.1686 25.4608L86.9756 4.66954Q81.7575 7.08887 75.8748 8.34319Q69.9921 9.59752 63.8319 9.59752L60.0506 9.59752Q53.9853 9.59752 48.1389 8.36683Q42.2925 7.13613 37.1217 4.76444L30.9037 25.4608Q30.3569 27.3761 30.5498 29.0097Q30.7428 30.6433 32.0321 31.9587Q34.9628 34.8101 39.9787 36.718Q44.9945 38.6258 50.8048 39.5801Q56.615 40.5344 62.0248 40.5344ZM98.2802-58.6438L100.795-94.179L23.2552-94.179L25.8171-58.6212Q32.503-61.5813 41.8044-63.1681Q51.1057-64.7549 62.0475-64.7549Q73.0365-64.7549 82.3029-63.1681Q91.5693-61.5813 98.2802-58.6438Z"/>
  </g>
  <g id="Regular-L" transform="matrix(1 0 0 1 1388.91 1556)">
   <path d="M20.4082-100.761L101.466-100.761Q103.27-100.761 104.53-102.021Q105.79-103.281 105.79-105.086Q105.79-106.837 104.53-108.124Q103.27-109.41 101.466-109.41L20.4082-109.41Q18.6569-109.41 17.3704-108.124Q16.084-106.837 16.084-105.086Q16.084-103.281 17.3704-102.021Q18.6569-100.761 20.4082-100.761ZM60.9649-26.5994Q73.5254-26.5994 83.2032-28.5959Q92.8809-30.5925 98.3807-34.1298Q103.881-37.6672 103.881-42.2511Q103.881-46.8072 98.3254-50.3054Q92.7703-53.8037 83.0786-55.8005Q73.3869-57.7973 60.9649-57.7973Q48.5428-57.7973 38.8372-55.8005Q29.1315-53.8037 23.589-50.3054Q18.0464-46.8072 18.0464-42.2511Q18.0464-37.6672 23.589-34.1298Q29.1315-30.5925 38.8372-28.5959Q48.5428-26.5994 60.9649-26.5994ZM59.1052 1.71442L62.7966 1.71442Q78.4382 1.71442 89.4455-6.80981Q100.453-15.334 103.185-30.4323Q97.0655-25.7378 86.1536-23.2297Q75.2416-20.7216 60.9649-20.7216Q46.8512-20.7216 35.8301-23.2574Q24.8089-25.7931 18.7423-30.4876Q20.4841-20.3954 26.0683-13.1817Q31.6524-5.96792 40.1554-2.12675Q48.6584 1.71442 59.1052 1.71442ZM60.937 39.0817Q66.1419 39.0817 71.761 38.1457Q77.38 37.2097 82.2027 35.3801Q87.0253 33.5506 89.7741 30.8872Q91.0357 29.6558 91.1552 28.1717Q91.2747 26.6876 90.7922 24.8882L84.4842 3.55893Q79.5384 5.69505 74.0174 6.78938Q68.4963 7.88371 62.824 7.88371L58.8667 7.88371Q53.2999 7.88371 47.818 6.81565Q42.336 5.74759 37.4428 3.66447L31.1097 24.8882Q30.5997 26.6876 30.7455 28.1717Q30.8912 29.6558 32.1277 30.8872Q34.9017 33.5506 39.7243 35.3801Q44.5469 37.2097 50.1397 38.1457Q55.7325 39.0817 60.937 39.0817ZM96.1149-58.3747L98.7236-94.5923L23.1508-94.5923L25.812-58.3468Q32.3411-61.076 41.3704-62.5211Q50.3998-63.9661 60.9649-63.9661Q71.5825-63.9661 80.5716-62.5211Q89.5608-61.076 96.1149-58.3747Z"/>
  </g>
  <g id="Light-L" transform="matrix(1 0 0 1 1093.88 1556)">
   <path d="M19.3965-100.227L99.1182-100.227Q100.503-100.227 101.467-101.191Q102.432-102.155 102.432-103.54Q102.432-104.89 101.467-105.871Q100.503-106.852 99.1182-106.852L19.3965-106.852Q18.046-106.852 17.065-105.871Q16.084-104.89 16.084-103.54Q16.084-102.155 17.065-101.191Q18.046-100.227 19.3965-100.227ZM59.3045-26.3323Q71.5979-26.3323 80.9893-28.3192Q90.3808-30.3062 95.6802-33.8149Q100.98-37.3237 100.98-41.9077Q100.98-46.4445 95.5867-49.9428Q90.1939-53.441 80.7789-55.4284Q71.3639-57.4157 59.3045-57.4157Q47.2451-57.4157 37.8066-55.4284Q28.368-53.441 22.9687-49.9428Q17.5693-46.4445 17.5693-41.9077Q17.5693-37.3237 22.9687-33.8149Q28.368-30.3062 37.8066-28.3192Q47.2451-26.3323 59.3045-26.3323ZM57.8264-0.289678L60.7355-0.289678Q76.0718-0.289678 86.8499-8.50848Q97.628-16.7273 100.303-31.3674Q94.6227-26.5965 83.9779-24.0503Q73.3331-21.504 59.3045-21.504Q45.4961-21.504 34.6945-24.097Q23.8928-26.69 18.2459-31.4608Q19.9688-21.6742 25.4385-14.699Q30.9082-7.72383 39.2299-4.00675Q47.5515-0.289678 57.8264-0.289678ZM59.2574 36.4478Q64.5579 36.4478 69.9478 35.5596Q75.3378 34.6714 79.7979 32.9945Q84.258 31.3176 86.7394 29.0361Q88.0392 27.8428 88.1301 26.4445Q88.2211 25.0462 87.7386 23.1705L81.2398 0.829828Q76.5993 2.77516 71.4028 3.76448Q66.2062 4.75379 60.7818 4.75379L57.6453 4.75379Q52.2883 4.75379 47.1023 3.78113Q41.9163 2.80846 37.309 0.897215L30.8233 23.1705Q30.2945 25.0462 30.4021 26.4445Q30.5097 27.8428 31.8224 29.0361Q34.2908 31.3176 38.7509 32.9945Q43.2111 34.6714 48.5844 35.5596Q53.9577 36.4478 59.2574 36.4478ZM92.7942-57.1151L95.5937-95.1839L22.9219-95.1839L25.7546-57.068Q32.0166-59.6828 40.6451-61.0706Q49.2736-62.4584 59.3045-62.4584Q69.3687-62.4584 77.957-61.0706Q86.5453-59.6828 92.7942-57.1151Z"/>
  </g>
  <g id="Thin-L" transform="matrix(1 0 0 1 799.386 1556)">
   <path d="M18.0585-99.5196L96.0135-99.5196Q96.8429-99.5196 97.4161-100.093Q97.9892-100.666 97.9892-101.495Q97.9892-102.316 97.4161-102.893Q96.8429-103.47 96.0135-103.47L18.0585-103.47Q17.2381-103.47 16.661-102.893Q16.084-102.316 16.084-101.495Q16.084-100.666 16.661-100.093Q17.2381-99.5196 18.0585-99.5196ZM57.1086-25.979Q69.0487-25.979 78.0614-27.9532Q87.0741-29.9274 92.1085-33.3985Q97.1428-36.8695 97.1428-41.4535Q97.1428-45.9648 91.9645-49.4631Q86.7863-52.9614 77.7373-54.9362Q68.6883-56.911 57.1086-56.911Q45.5288-56.911 36.4435-54.9362Q27.3583-52.9614 22.1483-49.4631Q16.9382-45.9648 16.9382-41.4535Q16.9382-36.8695 22.1483-33.3985Q27.3583-29.9274 36.4435-27.9532Q45.5288-25.979 57.1086-25.979ZM56.1352-2.94026L58.0094-2.94026Q72.942-2.94026 83.4171-10.7551Q93.8922-18.57 96.4916-32.604Q91.392-27.7322 81.1004-25.1355Q70.8089-22.5388 57.1086-22.5388Q43.7039-22.5388 33.1925-25.2075Q22.6812-27.8762 17.5894-32.7479Q19.2873-23.3655 24.6056-16.7058Q29.9239-10.0462 38.0057-6.49321Q46.0876-2.94026 56.1352-2.94026ZM57.036 32.9643Q62.4628 32.9643 67.5498 32.1393Q72.6367 31.3142 76.6174 29.8392Q80.5981 28.3642 82.7258 26.5878Q84.0761 25.445 84.1293 24.1601Q84.1825 22.8752 83.6999 20.8986L76.9488-2.77963Q72.7121-1.08663 67.9447-0.236206Q63.1774 0.61422 58.0807 0.61422L56.03 0.61422Q50.9503 0.61422 46.1557-0.232278Q41.3611-1.07878 37.1322-2.76271L30.4446 20.8986Q29.8907 22.8752 29.9479 24.1601Q30.005 25.445 31.4187 26.5878Q33.4829 28.3642 37.4636 29.8392Q41.4443 31.3142 46.5273 32.1393Q51.6103 32.9643 57.036 32.9643ZM88.4023-55.4493L91.4541-95.9664L22.6191-95.9664L25.6787-55.3767Q31.5874-57.8401 39.6858-59.1522Q47.7842-60.4643 57.1086-60.4643Q66.4407-60.4643 74.4989-59.1522Q82.5571-57.8401 88.4023-55.4493Z"/>
  </g>
  <g id="Ultralight-L" transform="matrix(1 0 0 1 503.813 1556)">
   <path d="M17.3732-99.1575L94.4232-99.1575Q94.9683-99.1575 95.3411-99.5303Q95.7138-99.903 95.7138-100.448Q95.7138-100.997 95.3411-101.367Q94.9683-101.737 94.4232-101.737L17.3732-101.737Q16.8243-101.737 16.4541-101.367Q16.084-100.997 16.084-100.448Q16.084-99.903 16.4541-99.5303Q16.8243-99.1575 17.3732-99.1575ZM55.9838-25.7981Q67.743-25.7981 76.5617-27.7658Q85.3805-29.7335 90.279-33.1852Q95.1776-36.6369 95.1776-41.2208Q95.1776-45.7192 90.1093-49.2174Q85.0409-52.7157 76.1794-54.6841Q67.3179-56.6525 55.9838-56.6525Q44.6497-56.6525 35.7454-54.6841Q26.8411-52.7157 21.728-49.2174Q16.615-45.7192 16.615-41.2208Q16.615-36.6369 21.728-33.1852Q26.8411-29.7335 35.7454-27.7658Q44.6497-25.7981 55.9838-25.7981ZM55.2689-4.29787L56.6131-4.29787Q71.3389-4.29787 81.6588-11.9058Q91.9787-19.5138 94.5394-33.2374Q89.7372-28.314 79.6266-25.6914Q69.516-23.0688 55.9838-23.0688Q42.7859-23.0688 32.4233-25.7763Q22.0606-28.4837 17.2532-33.4072Q18.9383-24.2318 24.179-17.7337Q29.4197-11.2357 37.3787-7.76676Q45.3377-4.29787 55.2689-4.29787ZM55.8982 31.1801Q61.3898 31.1801 66.3215 30.3874Q71.2533 29.5947 74.9884 28.2231Q78.7235 26.8515 80.6701 25.3338Q82.0461 24.2169 82.08 22.9901Q82.1139 21.7633 81.6314 19.7349L74.751-4.62837Q70.721-3.06462 66.1735-2.28534Q61.626-1.50605 56.6973-1.50605L55.2026-1.50605Q50.2649-1.50605 45.6709-2.28792Q41.0768-3.0698 37.0416-4.6373L30.2506 19.7349Q29.6839 21.7633 29.7152 22.9901Q29.7465 24.2169 31.2119 25.3338Q33.0691 26.8515 36.8042 28.2231Q40.5394 29.5947 45.4737 30.3874Q50.408 31.1801 55.8982 31.1801ZM86.1528-54.5961L89.3338-96.3671L22.464-96.3671L25.6398-54.5105Q31.3676-56.8963 39.1945-58.1696Q47.0214-59.4429 55.9838-59.4429Q64.9411-59.4429 72.7277-58.1696Q80.5144-56.8963 86.1528-54.5961Z"/>
  </g>
  <g id="Black-M" transform="matrix(1 0 0 1 2880.85 1126)">
   <path d="M19.7025-85.3515L85.3911-85.3515Q88.4084-85.3515 90.5205-87.4922Q92.6326-89.6329 92.6326-92.5931Q92.6326-95.6049 90.5205-97.7198Q88.4084-99.8346 85.3911-99.8346L19.7025-99.8346Q16.7478-99.8346 14.6044-97.7198Q12.4609-95.6049 12.4609-92.5931Q12.4609-89.6329 14.6044-87.4922Q16.7478-85.3515 19.7025-85.3515ZM52.5465-22.2811Q63.0383-22.2811 71.4613-24.467Q79.8843-26.6528 84.8585-30.3679Q89.8327-34.0829 89.8327-38.662Q89.8327-43.2414 84.8591-46.9509Q79.8854-50.6603 71.4626-52.8461Q63.0397-55.0319 52.5465-55.0319Q42.1104-55.0319 33.6591-52.8461Q25.2079-50.6603 20.2371-46.9509Q15.2663-43.2414 15.2663-38.662Q15.2663-34.0829 20.2371-30.3679Q25.2079-26.6528 33.6591-24.467Q42.1104-22.2811 52.5465-22.2811ZM51.6994 0.182816L53.3939 0.182816Q66.6587 0.182816 75.5612-6.36901Q84.4638-12.9208 87.5588-25.0252Q81.919-20.904 72.8472-18.6331Q63.7754-16.3623 52.5465-16.3623Q41.379-16.3623 32.3053-18.6043Q23.2316-20.8463 17.5973-24.9675Q19.7106-16.9152 24.3954-11.312Q29.0803-5.70876 36.017-2.76297Q42.9536 0.182816 51.6994 0.182816ZM52.5468 29.3353Q57.7838 29.3353 63.1971 28.5273Q68.6104 27.7192 73.2729 25.9283Q77.9354 24.1374 80.826 21.1828Q82.1026 19.7857 82.4845 17.8532Q82.8665 15.9207 82.2072 13.8711L77.8798-0.0757023Q72.6731 3.05239 66.5421 4.73337Q60.411 6.41436 53.4507 6.41436L51.6207 6.41436Q44.6713 6.41436 38.5459 4.73612Q32.4205 3.05788 27.2193-0.0647197L22.8861 13.8711Q22.2841 15.9207 22.6403 17.8532Q22.9965 19.7857 24.2673 21.1828Q27.1637 24.1374 31.8262 25.9283Q36.4887 27.7192 41.9278 28.5273Q47.3669 29.3353 52.5468 29.3353ZM85.0932-54.1941L86.6688-79.1771L18.4247-79.1771L20.0059-54.1944Q25.8248-57.5239 34.1611-59.3937Q42.4975-61.2635 52.5465-61.2635Q62.601-61.2635 70.9347-59.3937Q79.2685-57.5239 85.0932-54.1941Z"/>
  </g>
  <g id="Heavy-M" transform="matrix(1 0 0 1 2585.18 1126)">
   <path d="M18.9202-85.5763L84.1064-85.5763Q86.798-85.5763 88.6818-87.482Q90.5657-89.3877 90.5657-92.0356Q90.5657-94.7108 88.6818-96.6028Q86.798-98.4949 84.1064-98.4949L18.9202-98.4949Q16.2887-98.4949 14.3748-96.6028Q12.4609-94.7108 12.4609-92.0356Q12.4609-89.3877 14.3748-87.482Q16.2887-85.5763 18.9202-85.5763ZM51.5156-23.795Q61.8638-23.795 70.1069-25.8313Q78.3501-27.8676 83.1829-31.3565Q88.0158-34.8454 88.0158-39.182Q88.0158-43.5162 83.1784-46.9899Q78.341-50.4635 70.0967-52.4998Q61.8524-54.5361 51.5156-54.5361Q41.2224-54.5361 32.9551-52.4998Q24.6879-50.4635 19.8576-46.9899Q15.0272-43.5162 15.0272-39.182Q15.0272-34.8454 19.8576-31.3565Q24.6879-27.8676 32.9551-25.8313Q41.2224-23.795 51.5156-23.795ZM50.4771-1.15018L52.5518-1.15018Q65.587-1.15018 74.432-7.75541Q83.2769-14.3606 86.1487-26.4305Q80.662-22.4339 71.7001-20.2455Q62.7382-18.0571 51.5156-18.0571Q40.362-18.0571 31.3851-20.2259Q22.4082-22.3948 16.9379-26.3915Q18.8735-18.3532 23.4891-12.7213Q28.1047-7.08935 34.9834-4.11976Q41.8621-1.15018 50.4771-1.15018ZM51.5133 28.0392Q56.4532 28.0392 61.6471 27.2443Q66.8411 26.4494 71.3337 24.7261Q75.8264 23.0029 78.5734 20.2072Q79.7742 18.9095 80.0918 17.1502Q80.4093 15.3908 79.8173 13.5063L75.3835-0.912935Q70.4602 1.89315 64.723 3.39163Q58.9858 4.89011 52.5977 4.89011L50.3656 4.89011Q44.0102 4.89011 38.2883 3.39983Q32.5664 1.90954 27.6595-0.880115L23.2115 13.5063Q22.661 15.3908 22.9649 17.1502Q23.2688 18.9095 24.4555 20.2072Q27.2166 23.0029 31.7093 24.7261Q36.2019 26.4494 41.4095 27.2443Q46.6171 28.0392 51.5133 28.0392ZM83.0314-54.1197L84.6864-79.5797L18.3402-79.5797L20.0116-54.1174Q25.687-57.1755 33.7608-58.876Q41.8346-60.5764 51.5156-60.5764Q61.213-60.5764 69.2774-58.876Q77.3419-57.1755 83.0314-54.1197Z"/>
  </g>
  <g id="Bold-M" transform="matrix(1 0 0 1 2289.62 1126)">
   <path d="M18.045-85.8279L82.6693-85.8279Q84.9965-85.8279 86.625-87.4706Q88.2535-89.1134 88.2535-91.4121Q88.2535-93.7106 86.625-95.3534Q84.9965-96.9962 82.6693-96.9962L18.045-96.9962Q15.7751-96.9962 14.118-95.3534Q12.4609-93.7106 12.4609-91.4121Q12.4609-89.1134 14.118-87.4706Q15.7751-85.8279 18.045-85.8279ZM50.3623-25.4884Q60.5499-25.4884 68.5919-27.3574Q76.6339-29.2265 81.3086-32.4624Q85.9832-35.6983 85.9832-39.7636Q85.9832-43.8236 81.2983-47.0335Q76.6133-50.2433 68.5688-52.1124Q60.5242-53.9815 50.3623-53.9815Q40.229-53.9815 32.1676-52.1124Q24.1062-50.2433 19.433-47.0335Q14.7598-43.8236 14.7598-39.7636Q14.7598-35.6983 19.433-32.4624Q24.1062-29.2265 32.1676-27.3574Q40.229-25.4884 50.3623-25.4884ZM49.1097-2.64132L51.6098-2.64132Q64.3883-2.64132 73.1687-9.3063Q81.9491-15.9713 84.5712-28.0026Q79.2559-24.1453 70.4169-22.0491Q61.5779-19.953 50.3623-19.953Q39.2244-19.953 30.3558-22.04Q21.4871-24.127 16.2003-27.9843Q17.9371-19.9617 22.4753-14.2977Q27.0134-8.63374 33.8272-5.63753Q40.641-2.64132 49.1097-2.64132ZM50.3572 26.5894Q54.9647 26.5894 59.9133 25.8091Q64.8619 25.0289 69.1645 23.3813Q73.4672 21.7336 76.0536 19.1158Q77.1697 17.9294 77.4151 16.3638Q77.6605 14.7982 77.1439 13.0981L72.591-1.8495Q67.9849 0.596378 62.6882 1.8907Q57.3915 3.18503 51.6434 3.18503L48.9616 3.18503Q43.2707 3.18503 38.0001 1.90499Q32.7296 0.624959 28.152-1.79225L23.5756 13.0981Q23.0825 14.7982 23.3279 16.3638Q23.5733 17.9294 24.666 19.1158Q27.2758 21.7336 31.5785 23.3813Q35.8811 25.0289 40.8297 25.8091Q45.7783 26.5894 50.3572 26.5894ZM80.7249-54.0364L82.4689-80.0301L18.2456-80.0301L20.0181-54.0313Q25.5329-56.7859 33.3129-58.2968Q41.093-59.8078 50.3623-59.8078Q59.6602-59.8078 67.4234-58.2968Q75.1867-56.7859 80.7249-54.0364Z"/>
  </g>
  <g id="Semibold-M" transform="matrix(1 0 0 1 1993.71 1126)">
   <path d="M17.4417-86.0012L81.6786-86.0012Q83.7546-86.0012 85.207-87.4628Q86.6595-88.9243 86.6595-90.9822Q86.6595-93.0211 85.207-94.492Q83.7546-95.963 81.6786-95.963L17.4417-95.963Q15.421-95.963 13.941-94.492Q12.4609-93.0211 12.4609-90.9822Q12.4609-88.9243 13.941-87.4628Q15.421-86.0012 17.4417-86.0012ZM49.5673-26.6558Q59.6442-26.6558 67.5474-28.4096Q75.4507-30.1633 80.0164-33.2248Q84.582-36.2864 84.582-40.1645Q84.582-44.0356 80.0022-47.0636Q75.4223-50.0916 67.5154-51.8454Q59.6086-53.5992 49.5673-53.5992Q39.5442-53.5992 31.6247-51.8454Q23.7052-50.0916 19.1403-47.0636Q14.5754-44.0356 14.5754-40.1645Q14.5754-36.2864 19.1403-33.2248Q23.7052-30.1633 31.6247-28.4096Q39.5442-26.6558 49.5673-26.6558ZM48.1671-3.66931L50.9604-3.66931Q63.5619-3.66931 72.2978-10.3755Q81.0338-17.0816 83.4837-29.0864Q78.2865-25.3251 69.5323-23.2926Q60.778-21.26 49.5673-21.26Q38.4401-21.26 29.6461-23.2906Q20.8521-25.3211 15.6918-29.0825Q17.2915-21.0707 21.7763-15.3845Q26.2611-9.69843 33.0302-6.68387Q39.7993-3.66931 48.1671-3.66931ZM49.5601 25.5898Q53.9385 25.5898 58.718 24.8197Q63.4974 24.0496 67.6691 22.4542Q71.8408 20.8587 74.3164 18.3634Q75.3741 17.2536 75.5698 15.8216Q75.7655 14.3896 75.3009 12.8167L70.6659-2.49516Q66.2783-0.29761 61.2854 0.855972Q56.2924 2.00955 50.9856 2.00955L47.9937 2.00955Q42.7609 2.00955 37.8015 0.874464Q32.8421-0.260625 28.4915-2.42107L23.8266 12.8167Q23.3731 14.3896 23.5782 15.8216Q23.7833 17.2536 24.8111 18.3634Q27.3166 20.8587 31.4883 22.4542Q35.66 24.0496 40.43 24.8197Q45.2 25.5898 49.5601 25.5898ZM79.1348-53.9791L80.9401-80.3407L18.1804-80.3407L20.0226-53.9719Q25.4266-56.5172 33.0042-57.8976Q40.5818-59.2779 49.5673-59.2779Q58.5898-59.2779 66.1453-57.8976Q73.7009-56.5172 79.1348-53.9791Z"/>
  </g>
  <g id="Medium-M" transform="matrix(1 0 0 1 1697.6 1126)">
   <path d="M16.9843-86.1327L80.9274-86.1327Q82.8129-86.1327 84.1319-87.4568Q85.4508-88.7809 85.4508-90.6562Q85.4508-92.4982 84.1319-93.8389Q82.8129-95.1795 80.9274-95.1795L16.9843-95.1795Q15.1525-95.1795 13.8067-93.8389Q12.4609-92.4982 12.4609-90.6562Q12.4609-88.7809 13.8067-87.4568Q15.1525-86.1327 16.9843-86.1327ZM48.9645-27.541Q58.9574-27.541 66.7555-29.2073Q74.5536-30.8737 79.0366-33.8029Q83.5196-36.7322 83.5196-40.4686Q83.5196-44.1963 79.0194-47.0864Q74.5192-49.9765 66.7168-51.6429Q58.9143-53.3093 48.9645-53.3093Q39.0249-53.3093 31.213-51.6429Q23.4011-49.9765 18.9183-47.0864Q14.4356-44.1963 14.4356-40.4686Q14.4356-36.7322 18.9183-33.8029Q23.4011-30.8737 31.213-29.2073Q39.0249-27.541 48.9645-27.541ZM47.4523-4.44877L50.468-4.44877Q62.9353-4.44877 71.6375-11.1862Q80.3398-17.9235 82.6592-29.9082Q77.5515-26.2197 68.8615-24.2354Q60.1715-22.2511 48.9645-22.2511Q37.8455-22.2511 29.108-24.2388Q20.3706-26.2266 15.3062-29.9151Q16.802-21.9115 21.2463-16.2086Q25.6906-10.5057 32.4258-7.47725Q39.161-4.44877 47.4523-4.44877ZM48.9558 24.832Q53.1605 24.832 57.8116 24.0695Q62.4628 23.3071 66.5352 21.7512Q70.6076 20.1952 72.9992 17.7929Q74.0126 16.7413 74.1706 15.4105Q74.3286 14.0798 73.9034 12.6034L69.2062-2.98473Q64.9844-0.975469 60.2217 0.0713952Q55.459 1.11826 50.4868 1.11826L47.2598 1.11826Q42.3744 1.11826 37.6509 0.0930737Q32.9274-0.932112 28.7489-2.89787L24.0169 12.6034Q23.5934 14.0798 23.768 15.4105Q23.9425 16.7413 24.9211 17.7929Q27.3475 20.1952 31.4199 21.7512Q35.4923 23.3071 40.127 24.0695Q44.7616 24.832 48.9558 24.832ZM77.9292-53.9355L79.7809-80.5761L18.1309-80.5761L20.026-53.9269Q25.346-56.3135 32.7701-57.5948Q40.1942-58.8762 48.9645-58.8762Q57.7782-58.8762 65.1762-57.5948Q72.5743-56.3135 77.9292-53.9355Z"/>
  </g>
  <g id="Regular-M" transform="matrix(1 0 0 1 1401.68 1126)">
   <path d="M16.3876-86.3042L79.9475-86.3042Q81.5846-86.3042 82.7295-87.4491Q83.8743-88.5939 83.8743-90.231Q83.8743-91.8163 82.7295-92.987Q81.5846-94.1577 79.9475-94.1577L16.3876-94.1577Q14.8023-94.1577 13.6316-92.987Q12.4609-91.8163 12.4609-90.231Q12.4609-88.5939 13.6316-87.4491Q14.8023-86.3042 16.3876-86.3042ZM48.1782-28.6956Q58.0616-28.6956 65.7225-30.2479Q73.3834-31.8002 77.7586-34.557Q82.1337-37.3138 82.1337-40.8651Q82.1337-44.4059 77.7375-47.1161Q73.3413-49.8264 65.675-51.3788Q58.0088-52.9311 48.1782-52.9311Q38.3476-52.9311 30.6761-51.3788Q23.0045-49.8264 18.6288-47.1161Q14.2532-44.4059 14.2532-40.8651Q14.2532-37.3138 18.6288-34.557Q23.0045-31.8002 30.6761-30.2479Q38.3476-28.6956 48.1782-28.6956ZM46.52-5.46546L49.8257-5.46546Q62.1179-5.46546 70.7762-12.2436Q79.4345-19.0217 81.5836-30.9801Q76.5927-27.3865 67.9866-25.4652Q59.3804-23.5438 48.1782-23.5438Q37.0698-23.5438 28.4062-25.4757Q19.7426-27.4076 14.8033-31.0012Q16.1636-23.0082 20.5551-17.2835Q24.9466-11.5587 31.6375-8.51209Q38.3285-5.46546 46.52-5.46546ZM48.1676 23.8434Q52.1456 23.8434 56.6295 23.091Q61.1133 22.3386 65.0562 20.8342Q68.9991 19.3298 71.2811 17.0488Q72.2368 16.073 72.3456 14.8743Q72.4544 13.6757 72.0806 12.3251L67.3023-3.6233Q63.2966-1.85963 58.8343-0.951966Q54.372-0.044299 49.8362-0.044299L46.3025-0.044299Q41.8702-0.044299 37.4544-0.926131Q33.0387-1.80796 29.0847-3.51978L24.2651 12.3251Q23.8808 13.6757 24.0155 14.8743Q24.1502 16.073 25.0646 17.0488Q27.3879 19.3298 31.3307 20.8342Q35.2736 22.3386 39.7317 23.091Q44.1897 23.8434 48.1676 23.8434ZM76.3566-53.8788L78.2689-80.8832L18.0664-80.8832L20.0304-53.8681Q25.2409-56.0478 32.4647-57.2Q39.6886-58.3521 48.1782-58.3521Q56.7195-58.3521 63.9122-57.2Q71.1048-56.0478 76.3566-53.8788Z"/>
  </g>
  <g id="Light-M" transform="matrix(1 0 0 1 1106.47 1126)">
   <path d="M15.4806-85.825L77.8428-85.825Q79.1036-85.825 79.9833-86.7046Q80.8629-87.5843 80.8629-88.8451Q80.8629-90.071 79.9833-90.9678Q79.1036-91.8647 77.8428-91.8647L15.4806-91.8647Q14.2547-91.8647 13.3578-90.9678Q12.4609-90.071 12.4609-88.8451Q12.4609-87.5843 13.3578-86.7046Q14.2547-85.825 15.4806-85.825ZM46.6896-28.4561Q56.3335-28.4561 63.7377-29.9998Q71.1419-31.5435 75.3374-34.2747Q79.5329-37.0059 79.5329-40.5572Q79.5329-44.0807 75.2821-46.791Q71.0313-49.5012 63.6132-51.0451Q56.195-52.589 46.6896-52.589Q37.1842-52.589 29.7521-51.0451Q22.32-49.5012 18.0727-46.791Q13.8254-44.0807 13.8254-40.5572Q13.8254-37.0059 18.0727-34.2747Q22.32-31.5435 29.7521-29.9998Q37.1842-28.4561 46.6896-28.4561ZM45.3735-7.26224L47.9778-7.26224Q59.9963-7.26224 68.4492-13.7665Q76.9021-20.2708 79-31.8184Q74.4027-28.1564 66.036-26.2008Q57.6693-24.2452 46.6896-24.2452Q35.8549-24.2452 27.3881-26.2285Q18.9212-28.2117 14.3583-31.8737Q15.7016-24.1547 19.9904-18.6438Q24.2793-13.133 30.8077-10.1976Q37.3361-7.26224 45.3735-7.26224ZM46.6617 21.482Q50.7254 21.482 55.0039 20.7725Q59.2824 20.0629 62.9002 18.6954Q66.5181 17.3278 68.5604 15.3891Q69.5502 14.4476 69.6335 13.3258Q69.7167 12.204 69.3429 10.785L64.3935-6.07008Q60.6615-4.47747 56.4902-3.66395Q52.3188-2.85043 48.0052-2.85043L45.2075-2.85043Q40.9632-2.85043 36.8128-3.64674Q32.6623-4.44305 28.9648-6.00077L24.0084 10.785Q23.6072 12.204 23.7076 13.3258Q23.8081 14.4476 24.791 15.3891Q26.8402 17.3278 30.4581 18.6954Q34.0759 20.0629 38.3372 20.7725Q42.5985 21.482 46.6617 21.482ZM73.3794-52.7495L75.4627-81.4136L17.8611-81.4136L19.9789-52.7217Q24.95-54.7987 31.8144-55.8995Q38.6789-57.0004 46.6896-57.0004Q54.7347-57.0004 61.568-55.8995Q68.4013-54.7987 73.3794-52.7495Z"/>
  </g>
  <g id="Thin-M" transform="matrix(1 0 0 1 811.752 1126)">
   <path d="M14.281-85.1911L75.0592-85.1911Q75.8223-85.1911 76.3512-85.72Q76.8801-86.2489 76.8801-87.012Q76.8801-87.7626 76.3512-88.2973Q75.8223-88.8321 75.0592-88.8321L14.281-88.8321Q13.5304-88.8321 12.9956-88.2973Q12.4609-87.7626 12.4609-87.012Q12.4609-86.2489 12.9956-85.72Q13.5304-85.1911 14.281-85.1911ZM44.7208-28.1394Q54.048-28.1394 61.1127-29.6717Q68.1773-31.2039 72.1352-33.9013Q76.093-36.5986 76.093-40.15Q76.093-43.6507 72.0346-46.3609Q67.9762-49.0712 60.8862-50.6039Q53.7962-52.1366 44.7208-52.1366Q35.6454-52.1366 28.53-50.6039Q21.4147-49.0712 17.3372-46.3609Q13.2597-43.6507 13.2597-40.15Q13.2597-36.5986 17.3372-33.9013Q21.4147-31.2039 28.53-29.6717Q35.6454-28.1394 44.7208-28.1394ZM43.8572-9.63862L45.5337-9.63862Q57.1902-9.63862 65.3715-15.7808Q73.5527-21.9229 75.583-32.9271Q71.5061-29.1747 63.4562-27.1738Q55.4063-25.173 44.7208-25.173Q34.2481-25.173 26.0415-27.2241Q17.8349-29.2752 13.7697-33.0277Q15.0906-25.671 19.2437-20.4431Q23.3968-15.2151 29.7102-12.4268Q36.0236-9.63862 43.8572-9.63862ZM44.6701 18.3589Q48.8471 18.3589 52.8539 17.706Q56.8607 17.0531 60.0487 15.8665Q63.2368 14.6799 64.9619 13.1941Q65.9971 12.2978 66.0465 11.2777Q66.0959 10.2577 65.722 8.74817L60.5464-9.30614Q57.1764-7.93976 53.3899-7.25077Q49.6033-6.56178 45.5836-6.56178L43.7592-6.56178Q39.7636-6.56178 35.9641-7.24497Q32.1646-7.92816 28.8062-9.28208L23.6689 8.74817Q23.2452 10.2577 23.3004 11.2777Q23.3556 12.2978 24.429 13.1941Q26.1159 14.6799 29.3039 15.8665Q32.4919 17.0531 36.4929 17.706Q40.494 18.3589 44.6701 18.3589ZM69.4418-51.256L71.7514-82.1151L17.5897-82.1151L19.9109-51.2053Q24.5652-53.1466 30.9544-54.1796Q37.3436-55.2126 44.7208-55.2126Q52.1096-55.2126 58.4677-54.1796Q64.8257-53.1466 69.4418-51.256Z"/>
  </g>
  <g id="Ultralight-M" transform="matrix(1 0 0 1 516.061 1126)">
   <path d="M13.6665-84.8665L73.6335-84.8665Q74.1416-84.8665 74.4909-85.2157Q74.8401-85.565 74.8401-86.0731Q74.8401-86.5803 74.4909-86.9295Q74.1416-87.2787 73.6335-87.2787L13.6665-87.2787Q13.1594-87.2787 12.8102-86.9295Q12.4609-86.5803 12.4609-86.0731Q12.4609-85.565 12.8102-85.2157Q13.1594-84.8665 13.6665-84.8665ZM43.7124-27.9772Q52.8774-27.9772 59.7681-29.5036Q66.6589-31.03 70.495-33.71Q74.3311-36.3901 74.3311-39.9414Q74.3311-43.4304 70.3713-46.1407Q66.4114-48.8509 59.4895-50.3779Q52.5675-51.9048 43.7124-51.9048Q34.8573-51.9048 27.9041-50.3779Q20.951-48.8509 16.9604-46.1407Q12.9699-43.4304 12.9699-39.9414Q12.9699-36.3901 16.9604-33.71Q20.951-31.03 27.9041-29.5036Q34.8573-27.9772 43.7124-27.9772ZM43.0805-10.8558L44.2819-10.8558Q55.753-10.8558 63.7951-16.8124Q71.8372-22.7691 73.8328-33.495Q70.0226-29.6962 62.1348-27.6722Q54.2471-25.6482 43.7124-25.6482Q33.4251-25.6482 25.3518-27.734Q17.2785-29.8199 13.4682-33.6187Q14.7776-26.4477 18.8612-21.3646Q22.9448-16.2815 29.1481-13.5687Q35.3513-10.8558 43.0805-10.8558ZM43.65 16.7592Q47.8851 16.7592 51.7527 16.1353Q55.6204 15.5114 58.5882 14.4176Q61.5561 13.3237 63.1188 12.0698Q64.1771 11.1967 64.2092 10.2287Q64.2413 9.26076 63.8675 7.70491L58.576-10.9636Q55.3914-9.71313 51.8019-9.08792Q48.2124-8.46271 44.3432-8.46271L43.0174-8.46271Q39.1492-8.46271 35.5294-9.08796Q31.9097-9.71321 28.725-10.9628L23.495 7.70491Q23.0598 9.26076 23.0918 10.2287Q23.1239 11.1967 24.2436 12.0698Q25.7449 13.3237 28.7128 14.4176Q31.6806 15.5114 35.5483 16.1353Q39.416 16.7592 43.65 16.7592ZM67.425-50.4911L69.8505-82.4744L17.4506-82.4744L19.876-50.4287Q24.3681-52.3005 30.5139-53.2987Q36.6596-54.2969 43.7124-54.2969Q50.7651-54.2969 56.8797-53.2987Q62.9943-52.3005 67.425-50.4911Z"/>
  </g>
  <g id="Black-S" transform="matrix(1 0 0 1 2891.99 696)">
   <path d="M15.625-74.4141L67.1875-74.4141Q69.6289-74.4141 71.3379-76.1475Q73.0469-77.8809 73.0469-80.2734Q73.0469-82.7148 71.3379-84.4238Q69.6289-86.1328 67.1875-86.1328L15.625-86.1328Q13.2324-86.1328 11.499-84.4238Q9.76562-82.7148 9.76562-80.2734Q9.76562-77.8809 11.499-76.1475Q13.2324-74.4141 15.625-74.4141ZM41.4062-24.6094Q49.6582-24.6094 56.2988-26.3672Q62.9395-28.125 66.8701-31.1035Q70.8008-34.082 70.8008-37.7441Q70.8008-41.4062 66.8701-44.3848Q62.9395-47.3633 56.2988-49.1211Q49.6582-50.8789 41.4062-50.8789Q33.2031-50.8789 26.5381-49.1211Q19.873-47.3633 15.9424-44.3848Q12.0117-41.4062 12.0117-37.7441Q12.0117-34.082 15.9424-31.1035Q19.873-28.125 26.5381-26.3672Q33.2031-24.6094 41.4062-24.6094ZM40.8203-7.17773L41.9922-7.17773Q52.4414-7.17773 59.4238-12.2803Q66.4062-17.3828 68.8965-26.8555Q64.4531-23.584 57.3242-21.7773Q50.1953-19.9707 41.4062-19.9707Q32.666-19.9707 25.5371-21.7529Q18.4082-23.5352 13.9648-26.8066Q15.6738-20.5078 19.3604-16.1377Q23.0469-11.7676 28.4912-9.47266Q33.9355-7.17773 40.8203-7.17773ZM41.4062 15.625Q45.6055 15.625 49.9023 14.9902Q54.1992 14.3555 57.8857 12.9395Q61.5723 11.5234 63.8672 9.17969Q64.8926 8.05664 65.21 6.49414Q65.5273 4.93164 64.9902 3.27148L61.6211-7.56836Q57.4707-5.0293 52.5635-3.66211Q47.6562-2.29492 42.041-2.29492L40.7715-2.29492Q35.1562-2.29492 30.249-3.66211Q25.3418-5.0293 21.1914-7.56836L17.8223 3.27148Q17.334 4.93164 17.627 6.49414Q17.9199 8.05664 18.9453 9.17969Q21.2402 11.5234 24.9268 12.9395Q28.6133 14.3555 32.9346 14.9902Q37.2559 15.625 41.4062 15.625ZM67.1387-50.0488L68.3594-69.5801L14.4531-69.5801L15.6738-50.0488Q20.2637-52.7344 26.8555-54.248Q33.4473-55.7617 41.4062-55.7617Q49.3652-55.7617 55.957-54.248Q62.5488-52.7344 67.1387-50.0488Z"/>
  </g>
  <g id="Heavy-S" transform="matrix(1 0 0 1 2595.97 696)">
   <path d="M15.0718-74.6676L66.3577-74.6676Q68.5687-74.6676 70.1163-76.2339Q71.6639-77.8002 71.6639-79.9738Q71.6639-82.1732 70.1163-83.7266Q68.5687-85.28 66.3577-85.28L15.0718-85.28Q12.9097-85.28 11.3377-83.7266Q9.76562-82.1732 9.76562-79.9738Q9.76562-77.8002 11.3377-76.2339Q12.9097-74.6676 15.0718-74.6676ZM40.7148-25.9347Q48.8745-25.9347 55.3942-27.5657Q61.9138-29.1968 65.7465-31.9851Q69.5792-34.7735 69.5792-38.2282Q69.5792-41.6828 65.7465-44.4597Q61.9138-47.2365 55.3942-48.8676Q48.8745-50.4986 40.7148-50.4986Q32.5923-50.4986 26.0541-48.8676Q19.5158-47.2365 15.6888-44.4597Q11.8619-41.6828 11.8619-38.2282Q11.8619-34.7735 15.6888-31.9851Q19.5158-29.1968 26.0541-27.5657Q32.5923-25.9347 40.7148-25.9347ZM39.9214-8.08817L41.5082-8.08817Q51.796-8.08817 58.7554-13.2714Q65.7148-18.4546 68.0206-27.9503Q63.6579-24.7941 56.5924-23.0623Q49.5269-21.3306 40.7148-21.3306Q31.9515-21.3306 24.8802-23.0437Q17.8089-24.7567 13.4578-27.913Q15.0169-21.5911 18.6574-17.1691Q22.2978-12.7472 27.7133-10.4177Q33.1288-8.08817 39.9214-8.08817ZM40.7148 14.8183Q44.6489 14.8183 48.7845 14.1893Q52.92 13.5603 56.5028 12.1846Q60.0856 10.8089 62.2883 8.55737Q63.2446 7.51499 63.5101 6.09078Q63.7756 4.66658 63.2961 3.15624L59.8579-7.97172Q55.9149-5.68619 51.3073-4.46306Q46.6997-3.23993 41.5455-3.23993L39.838-3.23993Q34.7068-3.23993 30.1107-4.4573Q25.5147-5.67467 21.5832-7.94867L18.1334 3.15624Q17.6912 4.66658 17.9439 6.09078Q18.1965 7.51499 19.1412 8.55737Q21.3555 10.8089 24.9383 12.1846Q28.5211 13.5603 32.6695 14.1893Q36.8179 14.8183 40.7148 14.8183ZM65.7557-50.1295L67.0225-69.8567L14.407-69.8567L15.6854-50.1295Q20.183-52.5961 26.5962-53.9715Q33.0093-55.3468 40.7148-55.3468Q48.4318-55.3468 54.8392-53.9715Q61.2466-52.5961 65.7557-50.1295Z"/>
  </g>
  <g id="Bold-S" transform="matrix(1 0 0 1 2300.04 696)">
   <path d="M14.4531-74.9512L65.4297-74.9512Q67.3828-74.9512 68.75-76.3306Q70.1172-77.71 70.1172-79.6387Q70.1172-81.5674 68.75-82.9468Q67.3828-84.3262 65.4297-84.3262L14.4531-84.3262Q12.5488-84.3262 11.1572-82.9468Q9.76562-81.5674 9.76562-79.6387Q9.76562-77.71 11.1572-76.3306Q12.5488-74.9512 14.4531-74.9512ZM39.9414-27.417Q47.998-27.417 54.3823-28.9062Q60.7666-30.3955 64.4897-32.9712Q68.2129-35.5469 68.2129-38.7695Q68.2129-41.9922 64.4897-44.5435Q60.7666-47.0947 54.3823-48.584Q47.998-50.0732 39.9414-50.0732Q31.9092-50.0732 25.5127-48.584Q19.1162-47.0947 15.4053-44.5435Q11.6943-41.9922 11.6943-38.7695Q11.6943-35.5469 15.4053-32.9712Q19.1162-30.3955 25.5127-28.9062Q31.9092-27.417 39.9414-27.417ZM38.916-9.10645L40.9668-9.10645Q51.0742-9.10645 58.0078-14.3799Q64.9414-19.6533 67.041-29.1748Q62.7686-26.1475 55.7739-24.4995Q48.7793-22.8516 39.9414-22.8516Q31.1523-22.8516 24.1455-24.4873Q17.1387-26.123 12.8906-29.1504Q14.2822-22.8027 17.8711-18.3228Q21.46-13.8428 26.8433-11.4746Q32.2266-9.10645 38.916-9.10645ZM39.9414 13.916Q43.5791 13.916 47.5342 13.2935Q51.4893 12.6709 54.9561 11.3403Q58.4229 10.0098 60.5225 7.86133Q61.4014 6.90918 61.6089 5.63965Q61.8164 4.37012 61.4014 3.02734L57.8857-8.42285Q54.1748-6.4209 49.9023-5.35889Q45.6299-4.29688 40.9912-4.29688L38.7939-4.29688Q34.2041-4.29688 29.9561-5.34668Q25.708-6.39648 22.0215-8.37402L18.4814 3.02734Q18.0908 4.37012 18.2983 5.63965Q18.5059 6.90918 19.3604 7.86133Q21.4844 10.0098 24.9512 11.3403Q28.418 12.6709 32.373 13.2935Q36.3281 13.916 39.9414 13.916ZM64.209-50.2197L65.5273-70.166L14.3555-70.166L15.6982-50.2197Q20.0928-52.4414 26.3062-53.6621Q32.5195-54.8828 39.9414-54.8828Q47.3877-54.8828 53.5889-53.6621Q59.79-52.4414 64.209-50.2197Z"/>
  </g>
  <g id="Semibold-S" transform="matrix(1 0 0 1 2003.86 696)">
   <path d="M14.0266-75.1467L64.7898-75.1467Q66.5652-75.1467 67.808-76.3972Q69.0508-77.6478 69.0508-79.4076Q69.0508-81.1497 67.808-82.4091Q66.5652-83.6686 64.7898-83.6686L14.0266-83.6686Q12.3-83.6686 11.0328-82.4091Q9.76562-81.1497 9.76562-79.4076Q9.76562-77.6478 11.0328-76.3972Q12.3-75.1467 14.0266-75.1467ZM39.4082-28.439Q47.3937-28.439 53.6847-29.8305Q59.9757-31.222 63.6233-33.651Q67.2709-36.0801 67.2709-39.1428Q67.2709-42.2055 63.6233-44.6012Q59.9757-46.997 53.6847-48.3885Q47.3937-49.78 39.4082-49.78Q31.4382-49.78 25.1395-48.3885Q18.8407-46.997 15.2098-44.6012Q11.5788-42.2055 11.5788-39.1428Q11.5788-36.0801 15.2098-33.651Q18.8407-31.222 25.1395-29.8305Q31.4382-28.439 39.4082-28.439ZM38.2229-9.8085L40.5936-9.8085Q50.5766-9.8085 57.4924-15.1441Q64.4082-20.4798 66.3656-30.019Q62.1554-27.0806 55.2096-25.4904Q48.2639-23.9002 39.4082-23.9002Q30.6014-23.9002 23.639-25.4826Q16.6766-27.065 12.4996-30.0035Q13.7757-23.6381 17.329-19.1181Q20.8823-14.5981 26.2434-12.2033Q31.6045-9.8085 38.2229-9.8085ZM39.4082 13.2939Q42.8415 13.2939 46.6722 12.6758Q50.5028 12.0577 53.8896 10.7583Q57.2765 9.45879 59.305 7.38145Q60.1306 6.4915 60.2981 5.32861Q60.4656 4.16572 60.095 2.93848L56.5261-8.73389Q52.9751-6.92744 48.9337-5.97651Q44.8923-5.02559 40.6091-5.02559L38.0741-5.02559Q33.8575-5.02559 29.8494-5.95986Q25.8413-6.89414 22.3236-8.66729L18.7214 2.93848Q18.3663 4.16572 18.5427 5.32861Q18.7191 6.4915 19.5114 7.38145Q21.5732 9.45879 24.9601 10.7583Q28.3469 12.0577 32.1687 12.6758Q35.9904 13.2939 39.4082 13.2939ZM63.1426-50.2819L64.4965-70.3793L14.3199-70.3793L15.7071-50.2819Q20.0306-52.3348 26.1062-53.4488Q32.1818-54.5629 39.4082-54.5629Q46.6679-54.5629 52.7269-53.4488Q58.7858-52.3348 63.1426-50.2819Z"/>
  </g>
  <g id="Medium-S" transform="matrix(1 0 0 1 1707.55 696)">
   <path d="M13.7031-75.2949L64.3047-75.2949Q65.9453-75.2949 67.0938-76.4478Q68.2422-77.6006 68.2422-79.2324Q68.2422-80.833 67.0938-82.0015Q65.9453-83.1699 64.3047-83.1699L13.7031-83.1699Q12.1113-83.1699 10.9385-82.0015Q9.76562-80.833 9.76562-79.2324Q9.76562-77.6006 10.9385-76.4478Q12.1113-75.2949 13.7031-75.2949ZM39.0039-29.2139Q46.9355-29.2139 53.1558-30.5312Q59.376-31.8486 62.9663-34.1665Q66.5566-36.4844 66.5566-39.4258Q66.5566-42.3672 62.9663-44.645Q59.376-46.9229 53.1558-48.2402Q46.9355-49.5576 39.0039-49.5576Q31.0811-49.5576 24.8564-48.2402Q18.6318-46.9229 15.0615-44.645Q11.4912-42.3672 11.4912-39.4258Q11.4912-36.4844 15.0615-34.1665Q18.6318-31.8486 24.8564-30.5312Q31.0811-29.2139 39.0039-29.2139ZM37.6973-10.3408L40.3105-10.3408Q50.1992-10.3408 57.1016-15.7236Q64.0039-21.1064 65.8535-30.6592Q61.6904-27.7881 54.7817-26.2417Q47.873-24.6953 39.0039-24.6953Q30.1836-24.6953 23.2549-26.2373Q16.3262-27.7793 12.2031-30.6504Q13.3916-24.2715 16.918-19.7212Q20.4443-15.1709 25.7886-12.7559Q31.1328-10.3408 37.6973-10.3408ZM39.0039 12.8223Q42.2822 12.8223 46.0186 12.2075Q49.7549 11.5928 53.0811 10.3169Q56.4072 9.04102 58.3818 7.01758Q59.167 6.1748 59.3042 5.09277Q59.4414 4.01074 59.1045 2.87109L55.4951-8.96973Q52.0654-7.31152 48.1992-6.44482Q44.333-5.57812 40.3193-5.57812L37.5283-5.57812Q33.5947-5.57812 29.7686-6.4248Q25.9424-7.27148 22.5527-8.88965L18.9033 2.87109Q18.5752 4.01074 18.728 5.09277Q18.8809 6.1748 19.626 7.01758Q21.6406 9.04102 24.9668 10.3169Q28.293 11.5928 32.0137 12.2075Q35.7344 12.8223 39.0039 12.8223ZM62.334-50.3291L63.7148-70.541L14.293-70.541L15.7139-50.3291Q19.9834-52.2539 25.9546-53.2871Q31.9258-54.3203 39.0039-54.3203Q46.1221-54.3203 52.0732-53.2871Q58.0244-52.2539 62.334-50.3291Z"/>
  </g>
  <g id="Regular-S" transform="matrix(1 0 0 1 1411.37 696)">
   <path d="M13.2812-75.4883L63.6719-75.4883Q65.1367-75.4883 66.1621-76.5137Q67.1875-77.5391 67.1875-79.0039Q67.1875-80.4199 66.1621-81.4697Q65.1367-82.5195 63.6719-82.5195L13.2812-82.5195Q11.8652-82.5195 10.8154-81.4697Q9.76562-80.4199 9.76562-79.0039Q9.76562-77.5391 10.8154-76.5137Q11.8652-75.4883 13.2812-75.4883ZM38.4766-30.2246Q46.3379-30.2246 52.4658-31.4453Q58.5938-32.666 62.1094-34.8389Q65.625-37.0117 65.625-39.7949Q65.625-42.5781 62.1094-44.7021Q58.5938-46.8262 52.4658-48.0469Q46.3379-49.2676 38.4766-49.2676Q30.6152-49.2676 24.4873-48.0469Q18.3594-46.8262 14.8682-44.7021Q11.377-42.5781 11.377-39.7949Q11.377-37.0117 14.8682-34.8389Q18.3594-32.666 24.4873-31.4453Q30.6152-30.2246 38.4766-30.2246ZM37.0117-11.0352L39.9414-11.0352Q49.707-11.0352 56.5918-16.4795Q63.4766-21.9238 65.1855-31.4941Q61.084-28.7109 54.2236-27.2217Q47.3633-25.7324 38.4766-25.7324Q29.6387-25.7324 22.7539-27.2217Q15.8691-28.7109 11.8164-31.4941Q12.8906-25.0977 16.3818-20.5078Q19.873-15.918 25.1953-13.4766Q30.5176-11.0352 37.0117-11.0352ZM38.4766 12.207Q41.5527 12.207 45.166 11.5967Q48.7793 10.9863 52.0264 9.74121Q55.2734 8.49609 57.1777 6.54297Q57.9102 5.76172 58.0078 4.78516Q58.1055 3.80859 57.8125 2.7832L54.1504-9.27734Q50.8789-7.8125 47.2412-7.05566Q43.6035-6.29883 39.9414-6.29883L36.8164-6.29883Q33.252-6.29883 29.6631-7.03125Q26.0742-7.76367 22.8516-9.17969L19.1406 2.7832Q18.8477 3.80859 18.9697 4.78516Q19.0918 5.76172 19.7754 6.54297Q21.7285 8.49609 24.9756 9.74121Q28.2227 10.9863 31.8115 11.5967Q35.4004 12.207 38.4766 12.207ZM61.2793-50.3906L62.6953-70.752L14.2578-70.752L15.7227-50.3906Q19.9219-52.1484 25.7568-53.0762Q31.5918-54.0039 38.4766-54.0039Q45.4102-54.0039 51.2207-53.0762Q57.0312-52.1484 61.2793-50.3906Z"/>
  </g>
  <g id="Light-S" transform="matrix(1 0 0 1 1115.99 696)">
   <path d="M12.4789-75.0643L61.81-75.0643Q62.942-75.0643 63.7328-75.8551Q64.5236-76.6459 64.5236-77.7779Q64.5236-78.876 63.7328-79.6836Q62.942-80.4911 61.81-80.4911L12.4789-80.4911Q11.3808-80.4911 10.5732-79.6836Q9.76562-78.876 9.76562-77.7779Q9.76562-76.6459 10.5732-75.8551Q11.3808-75.0643 12.4789-75.0643ZM37.1597-30.0128Q44.8092-30.0128 50.71-31.2258Q56.6109-32.4389 59.9675-34.5891Q63.3242-36.7393 63.3242-39.5226Q63.3242-42.2905 59.9373-44.4145Q56.5503-46.5385 50.6419-47.7517Q44.7334-48.9649 37.1597-48.9649Q29.586-48.9649 23.6699-47.7517Q17.7539-46.5385 14.3762-44.4145Q10.9985-42.2905 10.9985-39.5226Q10.9985-36.7393 14.3762-34.5891Q17.7539-32.4389 23.6699-31.2258Q29.586-30.0128 37.1597-30.0128ZM35.9975-12.6246L38.3067-12.6246Q47.8302-12.6246 54.5333-17.8267Q61.2363-23.0288 62.9-32.2357Q59.1466-29.392 52.4981-27.8725Q45.8496-26.3529 37.1597-26.3529Q28.5639-26.3529 21.8533-27.8876Q15.1426-29.4223 11.4227-32.266Q12.4819-26.1119 15.8824-21.7112Q19.2828-17.3106 24.4612-14.9676Q29.6397-12.6246 35.9975-12.6246ZM37.1445 10.1181Q40.2964 10.1181 43.728 9.54564Q47.1596 8.97319 50.1191 7.84912Q53.0787 6.72506 54.7709 5.07482Q55.5336 4.32383 55.6086 3.4153Q55.6836 2.50676 55.3907 1.42085L51.5773-11.4418Q48.5479-10.1283 45.1675-9.45473Q41.7872-8.78118 38.3217-8.78118L35.8477-8.78118Q32.4496-8.78118 29.0955-9.43794Q25.7413-10.0947 22.7455-11.3744L18.9135 1.42085Q18.6056 2.50676 18.6974 3.4153Q18.7892 4.32383 19.5333 5.07482Q21.244 6.72506 24.2036 7.84912Q27.1632 8.97319 30.578 9.54564Q33.9928 10.1181 37.1445 10.1181ZM58.6456-49.3917L60.213-71.2212L14.0762-71.2212L15.6771-49.3764Q19.6645-51.0434 25.1816-51.9258Q30.6986-52.8081 37.1597-52.8081Q43.6544-52.8081 49.147-51.9258Q54.6397-51.0434 58.6456-49.3917Z"/>
  </g>
  <g id="Thin-S" transform="matrix(1 0 0 1 821.039 696)">
   <path d="M11.4177-74.5036L59.3476-74.5036Q60.0393-74.5036 60.5198-74.9842Q61.0003-75.4647 61.0003-76.1563Q61.0003-76.834 60.5198-77.3212Q60.0393-77.8084 59.3476-77.8084L11.4177-77.8084Q10.74-77.8084 10.2528-77.3212Q9.76562-76.834 9.76562-76.1563Q9.76562-75.4647 10.2528-74.9842Q10.74-74.5036 11.4177-74.5036ZM35.4181-29.7326Q42.7874-29.7326 48.3879-30.9356Q53.9884-32.1386 57.1348-34.2588Q60.2813-36.3791 60.2813-39.1623Q60.2813-41.9101 57.0645-44.0341Q53.8478-46.1581 48.2296-47.3614Q42.6114-48.5647 35.4181-48.5647Q28.2248-48.5647 22.5889-47.3614Q16.953-46.1581 13.7255-44.0341Q10.498-41.9101 10.498-39.1623Q10.498-36.3791 13.7255-34.2588Q16.953-32.1386 22.5889-30.9356Q28.2248-29.7326 35.4181-29.7326ZM34.6562-14.7268L36.1446-14.7268Q45.3479-14.7268 51.8107-19.6085Q58.2734-24.4903 59.8773-33.2165Q56.5843-30.2927 50.216-28.7332Q43.8477-27.1736 35.4181-27.1736Q27.1425-27.1736 20.6621-28.7683Q14.1816-30.363 10.9021-33.2868Q11.9414-27.4532 15.2218-23.3028Q18.5021-19.1524 23.4904-16.9396Q28.4786-14.7268 34.6562-14.7268ZM35.3827 7.35533Q38.6349 7.35533 41.8261 6.83298Q45.0174 6.31064 47.5967 5.34668Q50.176 4.38272 51.5877 3.13307Q52.3904 2.42211 52.4355 1.60355Q52.4806 0.784991 52.1876-0.380978L48.1741-14.3045Q45.4649-13.1911 42.4249-12.6277Q39.385-12.0643 36.1795-12.0643L34.5666-12.0643Q31.3884-12.0643 28.3447-12.621Q25.301-13.1777 22.6053-14.2771L18.6132-0.380978Q18.2853 0.784991 18.3371 1.60355Q18.3889 2.42211 19.2131 3.13307Q20.6033 4.38272 23.1826 5.34668Q25.762 6.31064 28.9465 6.83298Q32.1311 7.35533 35.3827 7.35533ZM55.1624-48.0705L56.9299-71.8417L13.8361-71.8417L15.6169-48.0351Q19.3241-49.582 24.4208-50.4043Q29.5174-51.2266 35.4181-51.2266Q41.3322-51.2266 46.4044-50.4043Q51.4767-49.582 55.1624-48.0705Z"/>
  </g>
  <g id="Ultralight-S" transform="matrix(1 0 0 1 525.231 696)">
   <path d="M10.8742-74.2165L58.0864-74.2165Q58.5526-74.2165 58.8741-74.538Q59.1957-74.8596 59.1957-75.3258Q59.1957-75.7881 58.8741-76.1112Q58.5526-76.4343 58.0864-76.4343L10.8742-76.4343Q10.4118-76.4343 10.0887-76.1112Q9.76562-75.7881 9.76562-75.3258Q9.76562-74.8596 10.0887-74.538Q10.4118-74.2165 10.8742-74.2165ZM34.5261-29.5891Q41.7519-29.5891 47.1985-30.7869Q52.6451-31.9847 55.6839-34.0897Q58.7227-36.1946 58.7227-38.9778Q58.7227-41.7152 55.5931-43.8393Q52.4635-45.9633 46.994-47.1615Q41.5245-48.3597 34.5261-48.3597Q27.5276-48.3597 22.0352-47.1615Q16.5428-45.9633 13.3923-43.8393Q10.2417-41.7152 10.2417-38.9778Q10.2417-36.1946 13.3923-34.0897Q16.5428-31.9847 22.0352-30.7869Q27.5276-29.5891 34.5261-29.5891ZM33.9691-15.8035L35.0372-15.8035Q44.0765-15.8035 50.4162-20.5212Q56.7558-25.2388 58.329-33.7189Q55.2719-30.7541 49.0471-29.174Q42.8223-27.594 34.5261-27.594Q26.4145-27.594 20.052-29.2194Q13.6894-30.8449 10.6354-33.8097Q11.6646-28.1403 14.8834-24.118Q18.1023-20.0958 22.9931-17.9497Q27.8839-15.8035 33.9691-15.8035ZM34.4803 5.94025Q37.7838 5.94025 40.852 5.44357Q43.9201 4.9469 46.3047 4.06494Q48.6893 3.18298 49.9573 2.13852Q50.7805 1.44806 50.8102 0.675583Q50.84-0.0968933 50.547-1.30386L46.431-15.7707Q43.8858-14.7598 41.0202-14.2529Q38.1546-13.7459 35.0822-13.7459L33.9104-13.7459Q30.8449-13.7459 27.9602-14.2513Q25.0755-14.7568 22.5334-15.7639L18.4593-1.30386Q18.1213-0.0968933 18.1526 0.675583Q18.1839 1.44806 19.0491 2.13852Q20.2751 3.18298 22.6597 4.06494Q25.0443 4.9469 28.1109 5.44357Q31.1775 5.94025 34.4803 5.94025ZM53.3783-47.3938L55.2483-72.1596L13.7131-72.1596L15.5861-47.348Q19.1498-48.8335 24.0311-49.625Q28.9124-50.4166 34.5261-50.4166Q40.1428-50.4166 44.9997-49.625Q49.8566-48.8335 53.3783-47.3938Z"/>
  </g>
 </g>
</svg>
