<?xml version="1.0" encoding="UTF-8"?>
<!--Generator: Apple Native CoreSVG 175.5-->
<!DOCTYPE svg
PUBLIC "-//W3C//DTD SVG 1.1//EN"
       "http://www.w3.org/Graphics/SVG/1.1/DTD/svg11.dtd">
<svg version="1.1" xmlns="http://www.w3.org/2000/svg" xmlns:xlink="http://www.w3.org/1999/xlink" width="3300" height="2200">
 <!--glyph: "uni101313.medium", point size: 100.0, font version: "18.0d9e1", template writer version: "84"-->
 <g id="Notes">
  <rect height="2200" id="artboard" style="fill:white;opacity:1" width="3300" x="0" y="0"/>
  <line style="fill:none;stroke:black;opacity:1;stroke-width:0.5;" x1="263" x2="3036" y1="292" y2="292"/>
  <text style="stroke:none;fill:black;font-family:sans-serif;font-size:13;font-weight:bold;" transform="matrix(1 0 0 1 263 322)">Weight/Scale Variations</text>
  <text style="stroke:none;fill:black;font-family:sans-serif;font-size:13;text-anchor:middle;" transform="matrix(1 0 0 1 559.711 322)">Ultralight</text>
  <text style="stroke:none;fill:black;font-family:sans-serif;font-size:13;text-anchor:middle;" transform="matrix(1 0 0 1 856.422 322)">Thin</text>
  <text style="stroke:none;fill:black;font-family:sans-serif;font-size:13;text-anchor:middle;" transform="matrix(1 0 0 1 1153.13 322)">Light</text>
  <text style="stroke:none;fill:black;font-family:sans-serif;font-size:13;text-anchor:middle;" transform="matrix(1 0 0 1 1449.84 322)">Regular</text>
  <text style="stroke:none;fill:black;font-family:sans-serif;font-size:13;text-anchor:middle;" transform="matrix(1 0 0 1 1746.56 322)">Medium</text>
  <text style="stroke:none;fill:black;font-family:sans-serif;font-size:13;text-anchor:middle;" transform="matrix(1 0 0 1 2043.27 322)">Semibold</text>
  <text style="stroke:none;fill:black;font-family:sans-serif;font-size:13;text-anchor:middle;" transform="matrix(1 0 0 1 2339.98 322)">Bold</text>
  <text style="stroke:none;fill:black;font-family:sans-serif;font-size:13;text-anchor:middle;" transform="matrix(1 0 0 1 2636.69 322)">Heavy</text>
  <text style="stroke:none;fill:black;font-family:sans-serif;font-size:13;text-anchor:middle;" transform="matrix(1 0 0 1 2933.4 322)">Black</text>
  <line style="fill:none;stroke:black;opacity:1;stroke-width:0.5;" x1="263" x2="3036" y1="1903" y2="1903"/>
  <g transform="matrix(1 0 0 1 263 1933)">
   <path d="M9.24805 0.830078Q10.8691 0.830078 12.2949 0.214844Q13.7207-0.400391 14.8096-1.49414Q15.8984-2.58789 16.5186-4.01367Q17.1387-5.43945 17.1387-7.05078Q17.1387-8.66211 16.5186-10.0879Q15.8984-11.5137 14.8047-12.6074Q13.7109-13.7012 12.2852-14.3164Q10.8594-14.9316 9.23828-14.9316Q7.62695-14.9316 6.20117-14.3164Q4.77539-13.7012 3.69141-12.6074Q2.60742-11.5137 1.9873-10.0879Q1.36719-8.66211 1.36719-7.05078Q1.36719-5.43945 1.9873-4.01367Q2.60742-2.58789 3.69629-1.49414Q4.78516-0.400391 6.21094 0.214844Q7.63672 0.830078 9.24805 0.830078ZM9.24805-0.654297Q7.91992-0.654297 6.7627-1.14746Q5.60547-1.64062 4.73145-2.51953Q3.85742-3.39844 3.36426-4.56055Q2.87109-5.72266 2.87109-7.05078Q2.87109-8.37891 3.35938-9.54102Q3.84766-10.7031 4.72168-11.582Q5.5957-12.4609 6.75293-12.9541Q7.91016-13.4473 9.23828-13.4473Q10.5762-13.4473 11.7383-12.9541Q12.9004-12.4609 13.7793-11.582Q14.6582-10.7031 15.1514-9.54102Q15.6445-8.37891 15.6445-7.05078Q15.6445-5.72266 15.1514-4.56055Q14.6582-3.39844 13.7793-2.51953Q12.9004-1.64062 11.7432-1.14746Q10.5859-0.654297 9.24805-0.654297ZM5.6543-7.05078Q5.6543-6.72852 5.85938-6.52832Q6.06445-6.32812 6.40625-6.32812L8.51562-6.32812L8.51562-4.20898Q8.51562-3.88672 8.71094-3.67676Q8.90625-3.4668 9.23828-3.4668Q9.56055-3.4668 9.77051-3.67676Q9.98047-3.88672 9.98047-4.20898L9.98047-6.32812L12.0898-6.32812Q12.4219-6.32812 12.627-6.52832Q12.832-6.72852 12.832-7.05078Q12.832-7.38281 12.627-7.58789Q12.4219-7.79297 12.0898-7.79297L9.98047-7.79297L9.98047-9.90234Q9.98047-10.2344 9.77051-10.4443Q9.56055-10.6543 9.23828-10.6543Q8.90625-10.6543 8.71094-10.4443Q8.51562-10.2344 8.51562-9.90234L8.51562-7.79297L6.40625-7.79297Q6.06445-7.79297 5.85938-7.58789Q5.6543-7.38281 5.6543-7.05078Z"/>
  </g>
  <g transform="matrix(1 0 0 1 281.867 1933)">
   <path d="M11.709 2.91016Q13.75 2.91016 15.5518 2.12891Q17.3535 1.34766 18.7305-0.0292969Q20.1074-1.40625 20.8887-3.20801Q21.6699-5.00977 21.6699-7.05078Q21.6699-9.0918 20.8887-10.8936Q20.1074-12.6953 18.7305-14.0723Q17.3535-15.4492 15.5469-16.2305Q13.7402-17.0117 11.6992-17.0117Q9.6582-17.0117 7.85645-16.2305Q6.05469-15.4492 4.68262-14.0723Q3.31055-12.6953 2.5293-10.8936Q1.74805-9.0918 1.74805-7.05078Q1.74805-5.00977 2.5293-3.20801Q3.31055-1.40625 4.6875-0.0292969Q6.06445 1.34766 7.86621 2.12891Q9.66797 2.91016 11.709 2.91016ZM11.709 1.25Q9.98047 1.25 8.47656 0.605469Q6.97266-0.0390625 5.83496-1.17676Q4.69727-2.31445 4.05762-3.81836Q3.41797-5.32227 3.41797-7.05078Q3.41797-8.7793 4.05762-10.2832Q4.69727-11.7871 5.83008-12.9297Q6.96289-14.0723 8.4668-14.7119Q9.9707-15.3516 11.6992-15.3516Q13.4277-15.3516 14.9365-14.7119Q16.4453-14.0723 17.583-12.9297Q18.7207-11.7871 19.3652-10.2832Q20.0098-8.7793 20.0098-7.05078Q20.0098-5.32227 19.3701-3.81836Q18.7305-2.31445 17.5879-1.17676Q16.4453-0.0390625 14.9414 0.605469Q13.4375 1.25 11.709 1.25ZM7.17773-7.05078Q7.17773-6.69922 7.41211-6.47461Q7.64648-6.25 8.01758-6.25L10.8887-6.25L10.8887-3.36914Q10.8887-2.99805 11.1133-2.76855Q11.3379-2.53906 11.6895-2.53906Q12.0605-2.53906 12.29-2.76855Q12.5195-2.99805 12.5195-3.36914L12.5195-6.25L15.4004-6.25Q15.7715-6.25 16.001-6.47461Q16.2305-6.69922 16.2305-7.05078Q16.2305-7.42188 16.001-7.65137Q15.7715-7.88086 15.4004-7.88086L12.5195-7.88086L12.5195-10.752Q12.5195-11.1328 12.29-11.3623Q12.0605-11.5918 11.6895-11.5918Q11.3379-11.5918 11.1133-11.3574Q10.8887-11.123 10.8887-10.752L10.8887-7.88086L8.01758-7.88086Q7.63672-7.88086 7.40723-7.65137Q7.17773-7.42188 7.17773-7.05078Z"/>
  </g>
  <g transform="matrix(1 0 0 1 305.646 1933)">
   <path d="M14.9707 5.66406Q17.0605 5.66406 18.96 5.01465Q20.8594 4.36523 22.4512 3.19336Q24.043 2.02148 25.2197 0.429688Q26.3965-1.16211 27.0459-3.06641Q27.6953-4.9707 27.6953-7.05078Q27.6953-9.14062 27.0459-11.04Q26.3965-12.9395 25.2197-14.5312Q24.043-16.123 22.4512-17.2998Q20.8594-18.4766 18.9551-19.126Q17.0508-19.7754 14.9609-19.7754Q12.8711-19.7754 10.9717-19.126Q9.07227-18.4766 7.48535-17.2998Q5.89844-16.123 4.72168-14.5312Q3.54492-12.9395 2.90039-11.04Q2.25586-9.14062 2.25586-7.05078Q2.25586-4.9707 2.90527-3.06641Q3.55469-1.16211 4.72656 0.429688Q5.89844 2.02148 7.49023 3.19336Q9.08203 4.36523 10.9814 5.01465Q12.8809 5.66406 14.9707 5.66406ZM14.9707 3.84766Q13.1641 3.84766 11.5283 3.2959Q9.89258 2.74414 8.53516 1.74805Q7.17773 0.751953 6.17676-0.610352Q5.17578-1.97266 4.62891-3.6084Q4.08203-5.24414 4.08203-7.05078Q4.08203-8.86719 4.62891-10.5029Q5.17578-12.1387 6.17188-13.501Q7.16797-14.8633 8.52539-15.8594Q9.88281-16.8555 11.5186-17.4023Q13.1543-17.9492 14.9609-17.9492Q16.7773-17.9492 18.4131-17.4023Q20.0488-16.8555 21.4111-15.8594Q22.7734-14.8633 23.7744-13.501Q24.7754-12.1387 25.3223-10.5029Q25.8691-8.86719 25.8691-7.05078Q25.8691-5.24414 25.3223-3.6084Q24.7754-1.97266 23.7793-0.610352Q22.7832 0.751953 21.4209 1.74805Q20.0586 2.74414 18.4229 3.2959Q16.7871 3.84766 14.9707 3.84766ZM9.19922-7.05078Q9.19922-6.66992 9.45801-6.4209Q9.7168-6.17188 10.1172-6.17188L14.0625-6.17188L14.0625-2.2168Q14.0625-1.81641 14.3115-1.55762Q14.5605-1.29883 14.9512-1.29883Q15.3516-1.29883 15.6104-1.55273Q15.8691-1.80664 15.8691-2.2168L15.8691-6.17188L19.8242-6.17188Q20.2246-6.17188 20.4785-6.4209Q20.7324-6.66992 20.7324-7.05078Q20.7324-7.46094 20.4785-7.71484Q20.2246-7.96875 19.8242-7.96875L15.8691-7.96875L15.8691-11.9141Q15.8691-12.3242 15.6104-12.583Q15.3516-12.8418 14.9512-12.8418Q14.5605-12.8418 14.3115-12.583Q14.0625-12.3242 14.0625-11.9141L14.0625-7.96875L10.1172-7.96875Q9.70703-7.96875 9.45312-7.71484Q9.19922-7.46094 9.19922-7.05078Z"/>
  </g>
  <text style="stroke:none;fill:black;font-family:sans-serif;font-size:13;font-weight:bold;" transform="matrix(1 0 0 1 263 1953)">Design Variations</text>
  <text style="stroke:none;fill:black;font-family:sans-serif;font-size:13;" transform="matrix(1 0 0 1 263 1971)">Symbols are supported in up to nine weights and three scales.</text>
  <text style="stroke:none;fill:black;font-family:sans-serif;font-size:13;" transform="matrix(1 0 0 1 263 1989)">For optimal layout with text and other symbols, vertically align</text>
  <text style="stroke:none;fill:black;font-family:sans-serif;font-size:13;" transform="matrix(1 0 0 1 263 2007)">symbols with the adjacent text.</text>
  <line style="fill:none;stroke:#00AEEF;stroke-width:0.5;opacity:1.0;" x1="776" x2="776" y1="1919" y2="1933"/>
  <g transform="matrix(1 0 0 1 776 1933)">
   <path d="M3.31055 0.15625Q3.70117 0.15625 3.91602-0.00976562Q4.13086-0.175781 4.26758-0.585938L5.52734-4.0332L11.2891-4.0332L12.5488-0.585938Q12.6855-0.175781 12.9004-0.00976562Q13.1152 0.15625 13.4961 0.15625Q13.8867 0.15625 14.1162-0.0585938Q14.3457-0.273438 14.3457-0.644531Q14.3457-0.869141 14.2383-1.17188L9.6582-13.3691Q9.48242-13.8184 9.17969-14.043Q8.87695-14.2676 8.4082-14.2676Q7.5-14.2676 7.17773-13.3789L2.59766-1.16211Q2.49023-0.859375 2.49023-0.634766Q2.49023-0.263672 2.70996-0.0537109Q2.92969 0.15625 3.31055 0.15625ZM6.00586-5.51758L8.37891-12.0898L8.42773-12.0898L10.8008-5.51758Z"/>
  </g>
  <line style="fill:none;stroke:#00AEEF;stroke-width:0.5;opacity:1.0;" x1="793.197" x2="793.197" y1="1919" y2="1933"/>
  <text style="stroke:none;fill:black;font-family:sans-serif;font-size:13;font-weight:bold;" transform="matrix(1 0 0 1 776 1953)">Margins</text>
  <text style="stroke:none;fill:black;font-family:sans-serif;font-size:13;" transform="matrix(1 0 0 1 776 1971)">Leading and trailing margins on the left and right side of each symbol</text>
  <text style="stroke:none;fill:black;font-family:sans-serif;font-size:13;" transform="matrix(1 0 0 1 776 1989)">can be adjusted by modifying the x-location of the margin guidelines.</text>
  <text style="stroke:none;fill:black;font-family:sans-serif;font-size:13;" transform="matrix(1 0 0 1 776 2007)">Modifications are automatically applied proportionally to all</text>
  <text style="stroke:none;fill:black;font-family:sans-serif;font-size:13;" transform="matrix(1 0 0 1 776 2025)">scales and weights.</text>
  <g transform="matrix(1 0 0 1 1289 1933)">
   <path d="M2.8418 1.86523L4.54102 3.57422Q5.18555 4.22852 5.90332 4.17969Q6.62109 4.13086 7.31445 3.35938L18.0078-8.42773L17.041-9.4043L6.42578 2.27539Q6.16211 2.57812 5.89355 2.61719Q5.625 2.65625 5.27344 2.30469L4.10156 1.14258Q3.75 0.791016 3.79395 0.522461Q3.83789 0.253906 4.14062-0.0195312L15.6152-10.8203L14.6387-11.7871L3.04688-0.898438Q2.30469-0.214844 2.25098 0.498047Q2.19727 1.21094 2.8418 1.86523ZM9.25781-16.3281Q8.94531-16.0254 8.90625-15.6348Q8.86719-15.2441 9.04297-14.9512Q9.21875-14.6777 9.55566-14.541Q9.89258-14.4043 10.3809-14.5215Q11.4746-14.7754 12.5977-14.7314Q13.7207-14.6875 14.7949-13.9844L14.209-12.5293Q13.9551-11.9043 14.0674-11.4404Q14.1797-10.9766 14.5801-10.5664L16.875-8.25195Q17.2363-7.88086 17.5781-7.82227Q17.9199-7.76367 18.3398-7.8418L19.4043-8.03711L20.0684-7.36328L20.0293-6.80664Q20-6.43555 20.1221-6.12305Q20.2441-5.81055 20.6055-5.44922L21.3672-4.70703Q21.7285-4.3457 22.1533-4.33105Q22.5781-4.31641 22.9297-4.66797L25.8398-7.58789Q26.1914-7.93945 26.1816-8.35449Q26.1719-8.76953 25.8105-9.13086L25.0391-9.89258Q24.6875-10.2539 24.3799-10.3857Q24.0723-10.5176 23.7109-10.4883L23.1348-10.4395L22.4902-11.0742L22.7344-12.1973Q22.832-12.6172 22.6953-12.9834Q22.5586-13.3496 22.1191-13.7891L19.9219-15.9766Q18.6719-17.2168 17.2607-17.8369Q15.8496-18.457 14.4189-18.4814Q12.9883-18.5059 11.665-17.959Q10.3418-17.4121 9.25781-16.3281ZM10.752-15.957Q11.6602-16.6211 12.7002-16.9043Q13.7402-17.1875 14.8047-17.085Q15.8691-16.9824 16.8701-16.5137Q17.8711-16.0449 18.7012-15.2051L21.1328-12.793Q21.3086-12.6172 21.3525-12.4512Q21.3965-12.2852 21.3379-12.0312L21.0156-10.5469L22.5195-9.0625L23.5059-9.12109Q23.6914-9.13086 23.7891-9.09668Q23.8867-9.0625 24.0332-8.91602L24.6094-8.33984L22.168-5.89844L21.5918-6.47461Q21.4453-6.62109 21.4062-6.71875Q21.3672-6.81641 21.377-7.01172L21.4453-7.98828L19.9512-9.47266L18.4277-9.21875Q18.1836-9.16992 18.042-9.2041Q17.9004-9.23828 17.7148-9.41406L15.7129-11.416Q15.5176-11.5918 15.4932-11.7529Q15.4688-11.9141 15.5859-12.1875L16.4648-14.2773Q15.293-15.3711 13.8281-15.791Q12.3633-16.2109 10.8398-15.7617Q10.7227-15.7324 10.6885-15.8057Q10.6543-15.8789 10.752-15.957Z"/>
  </g>
  <text style="stroke:none;fill:black;font-family:sans-serif;font-size:13;font-weight:bold;" transform="matrix(1 0 0 1 1289 1953)">Exporting</text>
  <text style="stroke:none;fill:black;font-family:sans-serif;font-size:13;" transform="matrix(1 0 0 1 1289 1971)">Symbols should be outlined when exporting to ensure the</text>
  <text style="stroke:none;fill:black;font-family:sans-serif;font-size:13;" transform="matrix(1 0 0 1 1289 1989)">design is preserved when submitting to Xcode.</text>
  <text id="template-version" style="stroke:none;fill:black;font-family:sans-serif;font-size:13;text-anchor:end;" transform="matrix(1 0 0 1 3036 1933)">Template v.2.0</text>
  <text style="stroke:none;fill:black;font-family:sans-serif;font-size:13;text-anchor:end;" transform="matrix(1 0 0 1 3036 1951)">Requires Xcode 12 or greater</text>
  <text id="descriptive-name" style="stroke:none;fill:black;font-family:sans-serif;font-size:13;text-anchor:end;" transform="matrix(1 0 0 1 3036 1969)">Generated from figure.pilates</text>
  <text style="stroke:none;fill:black;font-family:sans-serif;font-size:13;text-anchor:end;" transform="matrix(1 0 0 1 3036 1987)">Typeset at 100 points</text>
  <text style="stroke:none;fill:black;font-family:sans-serif;font-size:13;" transform="matrix(1 0 0 1 263 726)">Small</text>
  <text style="stroke:none;fill:black;font-family:sans-serif;font-size:13;" transform="matrix(1 0 0 1 263 1156)">Medium</text>
  <text style="stroke:none;fill:black;font-family:sans-serif;font-size:13;" transform="matrix(1 0 0 1 263 1586)">Large</text>
 </g>
 <g id="Guides">
  <g id="H-reference" style="fill:#27AAE1;stroke:none;" transform="matrix(1 0 0 1 339 696)">
   <path d="M0.993347 0L3.6377 0L29.3282-67.1326L30.0301-67.1326L30.0301-70.459L28.1227-70.459ZM11.6882-24.4797L46.9818-24.4797L46.2311-26.7288L12.4382-26.7288ZM55.1193 0L57.7637 0L30.6381-70.459L29.4327-70.459L29.4327-67.1326Z"/>
  </g>
  <line id="Baseline-S" style="fill:none;stroke:#27AAE1;opacity:1;stroke-width:0.5;" x1="263" x2="3036" y1="696" y2="696"/>
  <line id="Capline-S" style="fill:none;stroke:#27AAE1;opacity:1;stroke-width:0.5;" x1="263" x2="3036" y1="625.541" y2="625.541"/>
  <g id="H-reference" style="fill:#27AAE1;stroke:none;" transform="matrix(1 0 0 1 339 1126)">
   <path d="M0.993347 0L3.6377 0L29.3282-67.1326L30.0301-67.1326L30.0301-70.459L28.1227-70.459ZM11.6882-24.4797L46.9818-24.4797L46.2311-26.7288L12.4382-26.7288ZM55.1193 0L57.7637 0L30.6381-70.459L29.4327-70.459L29.4327-67.1326Z"/>
  </g>
  <line id="Baseline-M" style="fill:none;stroke:#27AAE1;opacity:1;stroke-width:0.5;" x1="263" x2="3036" y1="1126" y2="1126"/>
  <line id="Capline-M" style="fill:none;stroke:#27AAE1;opacity:1;stroke-width:0.5;" x1="263" x2="3036" y1="1055.54" y2="1055.54"/>
  <g id="H-reference" style="fill:#27AAE1;stroke:none;" transform="matrix(1 0 0 1 339 1556)">
   <path d="M0.993347 0L3.6377 0L29.3282-67.1326L30.0301-67.1326L30.0301-70.459L28.1227-70.459ZM11.6882-24.4797L46.9818-24.4797L46.2311-26.7288L12.4382-26.7288ZM55.1193 0L57.7637 0L30.6381-70.459L29.4327-70.459L29.4327-67.1326Z"/>
  </g>
  <line id="Baseline-L" style="fill:none;stroke:#27AAE1;opacity:1;stroke-width:0.5;" x1="263" x2="3036" y1="1556" y2="1556"/>
  <line id="Capline-L" style="fill:none;stroke:#27AAE1;opacity:1;stroke-width:0.5;" x1="263" x2="3036" y1="1485.54" y2="1485.54"/>
  <line id="left-margin" style="fill:none;stroke:#00AEEF;stroke-width:0.5;opacity:1.0;" x1="1370.7" x2="1370.7" y1="1030.79" y2="1150.12"/>
  <line id="right-margin" style="fill:none;stroke:#00AEEF;stroke-width:0.5;opacity:1.0;" x1="1528.99" x2="1528.99" y1="1030.79" y2="1150.12"/>
 </g>
 <g id="Symbols">
  <g id="Black-L" transform="matrix(1 0 0 1 2825.75 1556)">
   <path d="M31.5765-8.62828Q37.9996-8.62828 42.5331-13.1812Q47.0666-17.734 47.0666-24.1208Q47.0666-30.5439 42.5331-35.0774Q37.9996-39.6109 31.5765-39.6109Q25.2105-39.6109 20.6473-35.0774Q16.084-30.5439 16.084-24.1208Q16.084-17.734 20.6473-13.1812Q25.2105-8.62828 31.5765-8.62828ZM46.513-5.17057Q44.4321 0.173105 46.1914 5.2067Q47.9506 10.2403 52.3744 13.4019Q59.2305 18.1914 66.3734 20.1555Q73.5164 22.1196 83.5625 22.1196L104.602 22.1196Q113.23 22.1196 117.775 18.2167Q122.319 14.3137 123.039 8.51015Q123.758 2.70657 120.795-2.9808L103.923-35.5177L103.923-84.8244Q103.923-88.2184 101.557-90.5153Q99.1911-92.8122 95.7167-92.8122Q92.3811-92.8122 90.0848-90.5153Q87.7885-88.2184 87.7885-84.8244L87.7885-33.5613Q87.7885-32.8607 87.8689-32.1523Q87.9493-31.444 88.1674-30.8458L97.2493-5.04643L86.41-5.04643Q80.6269-5.04643 76.6813-6.57201Q72.7357-8.0976 68.063-10.9087Q66.3924-11.945 67.2239-13.8592L82.6277-53.3094Q83.8252-56.3829 82.4376-59.4784Q81.0501-62.5739 77.9558-63.7118Q74.7579-64.9897 71.7824-63.6028Q68.8069-62.2158 67.5302-59.0607ZM130.463 10.9284L153.529 3.42858L192.461-3.5936Q195.776-4.19172 197.721-6.89674Q199.667-9.60176 199.069-12.9969Q198.469-16.3325 195.714-18.2091Q192.958-20.0857 189.643-19.4864L149.187-12.0602L126.844-8.00597L127.679-6.53368Q130.122-2.4095 130.702 2.17079Q131.283 6.75109 130.463 10.9284Z"/>
  </g>
  <g id="Heavy-L" transform="matrix(1 0 0 1 2530.49 1556)">
   <path d="M31.1475-9.13908Q37.3837-9.13908 41.7916-13.5571Q46.1996-17.9752 46.1996-24.2026Q46.1996-30.4387 41.7916-34.8468Q37.3837-39.2548 31.1475-39.2548Q24.9502-39.2548 20.5171-34.8468Q16.084-30.4387 16.084-24.2026Q16.084-17.9752 20.5171-13.5571Q24.9502-9.13908 31.1475-9.13908ZM46.0989-5.43986Q44.0819-0.246732 45.7772 4.6454Q47.4724 9.53753 51.7777 12.6032Q58.5201 17.3017 65.5221 19.2294Q72.5241 21.1571 82.4252 21.1571L103.202 21.1571Q111.608 21.1571 116.033 17.3661Q120.459 13.5751 121.149 7.93812Q121.839 2.30109 118.948-3.24952L102.256-35.4212L102.256-84.1685Q102.256-87.407 100.003-89.6008Q97.7494-91.7945 94.4305-91.7945Q91.2366-91.7945 89.0456-89.6008Q86.8546-87.407 86.8546-84.1685L86.8546-33.5563Q86.8546-32.874 86.935-32.2023Q87.0154-31.5306 87.2153-30.9645L96.3038-5.1409L85.2319-5.1409Q79.4753-5.1409 75.5449-6.65766Q71.6145-8.17442 67.0052-10.9723Q65.1593-12.0963 66.0509-14.1946L81.2649-53.1477Q82.4028-56.0702 81.0818-59.0284Q79.7607-61.9865 76.8081-63.0742Q73.7337-64.2926 70.8933-62.9743Q68.053-61.656 66.8403-58.6476ZM128.305 10.229L151.436 2.71985L189.904-4.23505Q193.068-4.80116 194.915-7.378Q196.762-9.95483 196.195-13.1989Q195.624-16.3927 192.991-18.18Q190.359-19.9673 187.196-19.3955L147.11-12.0565L124.804-8.01444L125.566-6.66671Q127.959-2.64735 128.524 1.78463Q129.088 6.2166 128.305 10.229Z"/>
  </g>
  <g id="Bold-L" transform="matrix(1 0 0 1 2235.66 1556)">
   <path d="M30.6247-9.83626Q36.6304-9.83626 40.8846-14.0928Q45.1388-18.3493 45.1388-24.377Q45.1388-30.3827 40.8846-34.637Q36.6304-38.8913 30.6247-38.8913Q24.6349-38.8913 20.3595-34.637Q16.084-30.3827 16.084-24.377Q16.084-18.3493 20.3595-14.0928Q24.6349-9.83626 30.6247-9.83626ZM45.5767-5.83748Q43.6367-0.828806 45.255 3.89035Q46.8734 8.60951 51.0325 11.5599Q57.6291 16.1431 64.4507 18.0248Q71.2723 19.9064 80.9818 19.9064L101.399 19.9064Q109.527 19.9064 113.807 16.25Q118.087 12.5937 118.742 7.16038Q119.397 1.72708 116.599-3.65449L100.16-35.3133L100.16-83.2796Q100.16-86.3334 98.0371-88.4078Q95.9144-90.4822 92.7802-90.4822Q89.7556-90.4822 87.6877-88.4078Q85.6199-86.3334 85.6199-83.2796L85.6199-33.5561Q85.6199-32.8969 85.7003-32.2675Q85.7807-31.6381 85.9577-31.1105L95.024-5.34561L83.7346-5.34561Q78.0238-5.34561 74.1238-6.84714Q70.2239-8.34867 65.6988-11.1238Q63.6675-12.3405 64.6209-14.6395L79.5746-52.9107Q80.6431-55.6562 79.399-58.4526Q78.155-61.2491 75.3716-62.2753Q72.4435-63.4245 69.761-62.187Q67.0784-60.9494 65.9426-58.1104ZM125.52 9.32354L148.705 1.80661L186.529-5.04899Q189.516-5.57658 191.248-8.00334Q192.979-10.4301 192.451-13.4971Q191.91-16.5217 189.425-18.205Q186.939-19.8883 183.952-19.3474L144.298-12.1085L122.165-8.10424L122.849-6.88779Q125.173-2.99908 125.719 1.25227Q126.264 5.50362 125.52 9.32354Z"/>
  </g>
  <g id="Semibold-L" transform="matrix(1 0 0 1 1940.24 1556)">
   <path d="M30.2644-10.3169Q36.1111-10.3169 40.2593-14.4621Q44.4075-18.6072 44.4075-24.4973Q44.4075-30.344 40.2593-34.4923Q36.1111-38.6407 30.2644-38.6407Q24.4176-38.6407 20.2508-34.4923Q16.084-30.344 16.084-24.4973Q16.084-18.6072 20.2508-14.4621Q24.4176-10.3169 30.2644-10.3169ZM45.2167-6.11159Q43.3297-1.23008 44.895 3.36982Q46.4604 7.96973 50.5188 10.8406Q57.0148 15.3444 63.7121 17.1943Q70.4093 19.0442 79.9866 19.0442L100.156 19.0442Q108.093 19.0442 112.273 15.4806Q116.452 11.9171 117.083 6.62422Q117.714 1.33136 114.979-3.93367L98.7143-35.2389L98.7143-82.6667Q98.7143-85.5932 96.6819-87.5853Q94.6495-89.5774 91.6425-89.5774Q88.7346-89.5774 86.7516-87.5853Q84.7687-85.5932 84.7687-82.6667L84.7687-33.556Q84.7687-32.9127 84.8491-32.3125Q84.9295-31.7123 85.0906-31.2112L94.1417-5.48674L82.7025-5.48674Q77.0231-5.48674 73.1441-6.97777Q69.2652-8.4688 64.7981-11.2282Q62.6391-12.5088 63.6351-14.9461L78.4093-52.7472Q79.43-55.3707 78.239-58.0557Q77.048-60.7407 74.3813-61.7246Q71.554-62.826 68.9803-61.6442Q66.4066-60.4623 65.3238-57.7401ZM123.599 8.6993L146.822 1.17703L184.203-5.61011Q187.068-6.11114 188.72-8.43445Q190.372-10.7578 189.87-13.7026Q189.351-16.6106 186.965-18.2222Q184.58-19.8338 181.716-19.3142L142.359-12.1444L120.345-8.16614L120.976-7.04021Q123.253-3.24156 123.785 0.885267Q124.317 5.0121 123.599 8.6993Z"/>
  </g>
  <g id="Medium-L" transform="matrix(1 0 0 1 1644.51 1556)">
   <path d="M29.9911-10.6813Q35.7173-10.6813 39.7851-14.7421Q43.8529-18.8028 43.8529-24.5884Q43.8529-30.3147 39.7851-34.3827Q35.7173-38.4506 29.9911-38.4506Q24.2527-38.4506 20.1684-34.3827Q16.084-30.3147 16.084-24.5884Q16.084-18.8028 20.1684-14.7421Q24.2527-10.6813 29.9911-10.6813ZM44.9438-6.31943Q43.097-1.53435 44.6221 2.97514Q46.1472 7.48462 50.1293 10.2952Q56.549 14.7388 63.152 16.5646Q69.7549 18.3904 79.2321 18.3904L99.2128 18.3904Q107.006 18.3904 111.109 14.8972Q115.212 11.404 115.825 6.21767Q116.438 1.0313 113.751-4.14536L97.6183-35.1825L97.6183-82.202Q97.6183-85.0321 95.6543-86.9617Q93.6903-88.8914 90.7799-88.8914Q87.9604-88.8914 86.0418-86.9617Q84.1233-85.0321 84.1233-82.202L84.1233-33.5559Q84.1233-32.9247 84.2037-32.3466Q84.2841-31.7685 84.4332-31.2876L93.4727-5.59375L81.9198-5.59375Q76.2643-5.59375 72.4013-7.07682Q68.5382-8.55988 64.1153-11.3074Q61.8592-12.6365 62.8876-15.1786L77.5257-52.6233Q78.5101-55.1543 77.3594-57.7548Q76.2086-60.3553 73.6304-61.3069Q70.8796-62.3722 68.3884-61.2326Q65.8972-60.093 64.8546-57.4593ZM122.143 8.22597L145.395 0.699653L182.439-6.03557Q185.211-6.51648 186.803-8.76134Q188.394-11.0062 187.913-13.8585Q187.41-16.678 185.101-18.2353Q182.792-19.7925 180.02-19.289L140.889-12.1716L118.965-8.21308L119.555-7.15577Q121.796-3.42542 122.318 0.60699Q122.84 4.6394 122.143 8.22597Z"/>
  </g>
  <g id="Regular-L" transform="matrix(1 0 0 1 1349.08 1556)">
   <path d="M29.6347-11.1567Q35.2037-11.1567 39.1667-15.1073Q43.1296-19.0579 43.1296-24.7074Q43.1296-30.2764 39.1667-34.2396Q35.2037-38.2028 29.6347-38.2028Q24.0378-38.2028 20.0609-34.2396Q16.084-30.2764 16.084-24.7074Q16.084-19.0579 20.0609-15.1073Q24.0378-11.1567 29.6347-11.1567ZM44.5877-6.59053Q42.7934-1.93122 44.2661 2.46033Q45.7388 6.85188 49.6213 9.58386Q55.9415 13.9489 62.4215 15.7433Q68.9014 17.5376 78.2479 17.5376L97.9831 17.5376Q105.588 17.5376 109.591 14.1363Q113.594 10.7349 114.184 5.6874Q114.773 0.639928 112.149-4.42148L96.1888-35.1089L96.1888-81.596Q96.1888-84.3001 94.314-86.1483Q92.4392-87.9966 89.6547-87.9966Q86.9506-87.9966 85.116-86.1483Q83.2814-84.3001 83.2814-81.596L83.2814-33.5558Q83.2814-32.9403 83.3619-32.391Q83.4423-31.8418 83.5757-31.3872L92.6001-5.73333L80.899-5.73333Q75.2747-5.73333 71.4323-7.20601Q67.59-8.67869 63.2245-11.4107Q60.8421-12.8029 61.9127-15.4819L76.3731-52.4617Q77.3103-54.872 76.2121-57.3622Q75.1138-59.8525 72.651-60.7622Q69.9999-61.7803 67.6163-60.6958Q65.2327-59.6112 64.2426-57.0931ZM120.244 7.60858L143.533 0.0769883L180.138-6.59053Q182.79-7.04517 184.303-9.18771Q185.815-11.3303 185.36-14.0618Q184.878-16.7659 182.669-18.2523Q180.46-19.7387 177.809-19.2562L138.971-12.2071L117.165-8.2743L117.703-7.30651Q119.897-3.66524 120.406 0.244019Q120.915 4.15328 120.244 7.60858Z"/>
  </g>
  <g id="Light-L" transform="matrix(1 0 0 1 1054.26 1556)">
   <path d="M29.3294-12.0536Q34.7458-12.0536 38.6132-15.9278Q42.4806-19.8021 42.4806-25.299Q42.4806-30.7154 38.6132-34.5832Q34.7458-38.451 29.3294-38.451Q23.8659-38.451 19.9749-34.5832Q16.084-30.7154 16.084-25.299Q16.084-19.8021 19.9749-15.9278Q23.8659-12.0536 29.3294-12.0536ZM44.168-7.27769Q42.4118-2.73286 43.8463 1.55367Q45.2809 5.84021 49.0678 8.51512Q55.2544 12.7846 61.5721 14.5408Q67.8897 16.297 77.0265 16.297L96.2846 16.297Q103.699 16.297 107.606 12.9625Q111.514 9.62796 112.094 4.70459Q112.674-0.218788 110.126-5.16572L94.5284-35.1089L94.5284-80.489Q94.5284-83.1168 92.6918-84.9364Q90.8552-86.756 88.147-86.756Q85.5192-86.756 83.7228-84.9364Q81.9264-83.1168 81.9264-80.489L81.9264-33.5939Q81.9264-32.9977 82.0068-32.4579Q82.0872-31.9181 82.2017-31.4827L91.016-6.43941L79.6202-6.43941Q74.1104-6.43941 70.3636-7.87393Q66.6168-9.30846 62.3466-11.9834Q60.0405-13.3375 61.0729-15.9783L75.1899-52.0609Q76.1078-54.4141 75.0287-56.8469Q73.9495-59.2798 71.563-60.1514Q68.9693-61.1505 66.6335-60.0945Q64.2977-59.0386 63.3457-56.5586ZM117.591 6.73063L140.746-0.781728L176.474-7.27769Q179.068-7.71309 180.543-9.80802Q182.018-11.9029 181.581-14.5771Q181.099-17.2049 178.947-18.6626Q176.795-20.1202 174.202-19.6377L135.478-12.6079L114.607-8.84699L115.183-7.8218Q117.282-4.27609 117.782-0.471684Q118.281 3.33272 117.591 6.73063Z"/>
  </g>
  <g id="Thin-L" transform="matrix(1 0 0 1 760.048 1556)">
   <path d="M28.9257-13.2397Q34.1402-13.2397 37.8813-17.0131Q41.6223-20.7865 41.6223-26.0814Q41.6223-31.296 37.8813-35.0376Q34.1402-38.7792 28.9257-38.7792Q23.6386-38.7792 19.8613-35.0376Q16.084-31.296 16.084-26.0814Q16.084-20.7865 19.8613-17.0131Q23.6386-13.2397 28.9257-13.2397ZM43.6129-8.18653Q41.9071-3.79309 43.2912 0.354551Q44.6753 4.50219 48.3358 7.10162Q54.3455 11.2447 60.4486 12.9505Q66.5517 14.6562 75.4112 14.6562L94.0382 14.6562Q101.2 14.6562 104.981 11.4101Q108.762 8.16399 109.33 3.40474Q109.897-1.35451 107.451-6.15004L92.3325-35.1089L92.3325-79.0251Q92.3325-81.5519 90.5463-83.3336Q88.7602-85.1152 86.1529-85.1152Q83.626-85.1152 81.8801-83.3336Q80.1341-81.5519 80.1341-79.0251L80.1341-33.6444Q80.1341-33.0736 80.2146-32.5463Q80.295-32.0191 80.3845-31.6091L88.921-7.37326L77.929-7.37326Q72.5705-7.37326 68.9501-8.75732Q65.3297-10.1414 61.1854-12.7408Q58.9802-14.0444 59.9622-16.6348L73.625-51.5307Q74.5175-53.8085 73.4636-56.1654Q72.4096-58.5224 70.124-59.3435Q67.6063-60.3176 65.3336-59.2994Q63.061-58.2811 62.1595-55.8516ZM114.082 5.56946L137.061-1.91745L171.627-8.18653Q174.146-8.59648 175.57-10.6284Q176.995-12.6604 176.584-15.2586Q176.101-17.7854 174.025-19.2052Q171.949-20.6249 169.431-20.1424L130.859-13.138L111.225-9.60442L111.851-8.50332Q113.824-5.08399 114.311-1.41826Q114.797 2.24747 114.082 5.56946Z"/>
  </g>
  <g id="Ultralight-L" transform="matrix(1 0 0 1 464.617 1556)">
   <path d="M28.7189-13.8473Q33.8301-13.8473 37.5063-17.569Q41.1826-21.2906 41.1826-26.4822Q41.1826-31.5934 37.5063-35.2704Q33.8301-38.9474 28.7189-38.9474Q23.5221-38.9474 19.8031-35.2704Q16.084-31.5934 16.084-26.4822Q16.084-21.2906 19.8031-17.569Q23.5221-13.8473 28.7189-13.8473ZM43.3285-8.65202Q41.6486-4.33614 43.0069-0.259634Q44.3651 3.81687 47.9609 6.37763Q53.88 10.456 59.8732 12.1359Q65.8664 13.8158 74.5838 13.8158L92.8876 13.8158Q99.9199 13.8158 103.636 10.615Q107.353 7.41416 107.914 2.73897Q108.475-1.93622 106.08-6.65421L91.2077-35.1089L91.2077-78.2752Q91.2077-80.7504 89.4474-82.5126Q87.6871-84.2748 85.1315-84.2748Q82.6564-84.2748 80.9363-82.5126Q79.2162-80.7504 79.2162-78.2752L79.2162-33.6702Q79.2162-33.1125 79.2966-32.5916Q79.377-32.0708 79.4537-31.6738L87.8479-7.85158L77.0627-7.85158Q71.7818-7.85158 68.2261-9.20979Q64.6705-10.568 60.5907-13.1288Q58.4372-14.4065 59.3933-16.971L72.8235-51.2592Q73.7029-53.4983 72.6619-55.8164Q71.6209-58.1344 69.387-58.9297Q66.9081-59.891 64.6679-58.8921Q62.4276-57.8932 61.5519-55.4895ZM112.285 4.97471L135.173-2.49916L169.145-8.65202Q171.625-9.04895 173.024-11.0486Q174.422-13.0483 174.024-15.6077Q173.541-18.0828 171.504-19.4831Q169.466-20.8834 166.988-20.4009L128.493-13.4095L109.492-9.99237L110.145-8.85239Q112.053-5.49779 112.533-1.90309Q113.013 1.69161 112.285 4.97471Z"/>
  </g>
  <g id="Black-M" transform="matrix(1 0 0 1 2849.02 1126)">
   <path d="M24.791-14.3029Q29.9072-14.3029 33.5144-17.9358Q37.1216-21.5686 37.1216-26.633Q37.1216-31.7493 33.5144-35.3564Q29.9072-38.9636 24.791-38.9636Q19.7321-38.9636 16.0965-35.3564Q12.4609-31.7493 12.4609-26.633Q12.4609-21.5686 16.0965-17.9358Q19.7321-14.3029 24.791-14.3029ZM36.3347-11.8033Q34.6727-7.54941 36.0855-3.54231Q37.4982 0.464776 41.0145 2.98887Q46.4058 6.76483 52.0388 8.31259Q57.6719 9.86036 65.5513 9.86036L82.0118 9.86036Q88.8627 9.86036 92.4725 6.74944Q96.0823 3.63852 96.6639-0.984089Q97.2455-5.6067 94.8976-10.115L81.7201-35.5357L81.7201-74.0664Q81.7201-76.8192 79.796-78.6835Q77.8719-80.5477 75.0569-80.5477Q72.3612-80.5477 70.4968-78.6835Q68.6324-76.8192 68.6324-74.0664L68.6324-33.9465Q68.6324-33.3907 68.6947-32.8116Q68.757-32.2326 68.939-31.7443L75.9411-11.8599L67.7847-11.8599Q63.297-11.8599 60.2401-13.0442Q57.1831-14.2286 53.5214-16.4101Q52.3881-17.1325 52.9755-18.452L65.026-49.3214Q66.0023-51.8247 64.8729-54.3331Q63.7434-56.8416 61.2346-57.7611Q58.6586-58.7997 56.2438-57.6701Q53.8289-56.5405 52.79-53.9752ZM102.57 1.01312L120.366-4.78671L150.809-10.2617Q153.499-10.75 155.086-12.9494Q156.672-15.1488 156.184-17.9012Q155.696-20.5969 153.463-22.1237Q151.229-23.6505 148.539-23.1625L116.892-17.3368L99.677-14.2086L100.393-12.9531Q102.315-9.68082 102.777-6.01901Q103.24-2.3572 102.57 1.01312Z"/>
  </g>
  <g id="Heavy-M" transform="matrix(1 0 0 1 2553.54 1126)">
   <path d="M24.3997-14.7195Q29.3473-14.7195 32.8407-18.2276Q36.334-21.7357 36.334-26.6583Q36.334-31.6059 32.8407-35.0993Q29.3473-38.5926 24.3997-38.5926Q19.4935-38.5926 15.9772-35.0993Q12.4609-31.6059 12.4609-26.6583Q12.4609-21.7357 15.9772-18.2276Q19.4935-14.7195 24.3997-14.7195ZM35.9685-12.0031Q34.3656-7.88587 35.7193-4.00738Q37.073-0.128898 40.4822 2.3067Q45.7747 6.00248 51.285 7.51819Q56.7953 9.03389 64.5522 9.03389L80.8006 9.03389Q87.4508 9.03389 90.9534 6.02625Q94.4561 3.01861 95.0095-1.45262Q95.5629-5.92386 93.2792-10.309L80.2445-35.4414L80.2445-73.5274Q80.2445-76.1352 78.4266-77.9013Q76.6087-79.6674 73.9386-79.6674Q71.3744-79.6674 69.6095-77.9013Q67.8445-76.1352 67.8445-73.5274L67.8445-33.9381Q67.8445-33.3983 67.9068-32.8543Q67.9691-32.3102 68.1351-31.8514L75.1629-11.8871L66.751-11.8871Q62.2787-11.8871 59.2278-13.0663Q56.1769-14.2456 52.5683-16.4194Q51.2567-17.231 51.9063-18.7341L63.803-49.2003Q64.7228-51.5612 63.6566-53.9407Q62.5903-56.3202 60.213-57.1942Q57.7525-58.1764 55.4653-57.1112Q53.1781-56.0461 52.1982-53.6206ZM100.706 0.410409L118.577-5.40032L148.647-10.8253Q151.195-11.2841 152.689-13.3626Q154.183-15.4411 153.724-18.0511Q153.263-20.6153 151.145-22.0574Q149.027-23.4995 146.479-23.0384L115.185-17.2962L97.9195-14.164L98.5596-13.0356Q100.442-9.85698 100.89-6.33049Q101.337-2.804 100.706 0.410409Z"/>
  </g>
  <g id="Bold-M" transform="matrix(1 0 0 1 2258.22 1126)">
   <path d="M23.9621-15.1856Q28.721-15.1856 32.0869-18.5541Q35.4529-21.9226 35.4529-26.6867Q35.4529-31.4456 32.0869-34.8116Q28.721-38.1776 23.9621-38.1776Q19.2266-38.1776 15.8437-34.8116Q12.4609-31.4456 12.4609-26.6867Q12.4609-21.9226 15.8437-18.5541Q19.2266-15.1856 23.9621-15.1856ZM35.5589-12.2267Q34.022-8.26226 35.3097-4.52763Q36.5974-0.793007 39.8868 1.54359Q45.0688 5.14969 50.4417 6.62953Q55.8146 8.10937 63.4346 8.10937L79.4457 8.10937Q85.8713 8.10937 89.2542 5.21726Q92.637 2.32516 93.1588-1.97675Q93.6807-6.27865 91.4686-10.526L78.5939-35.3359L78.5939-72.9244Q78.5939-75.37 76.8947-77.0263Q75.1956-78.6825 72.6876-78.6825Q70.2706-78.6825 68.6168-77.0263Q66.9631-75.37 66.9631-72.9244L66.9631-33.9288Q66.9631-33.4069 67.0254-32.902Q67.0877-32.397 67.2358-31.9713L74.2924-11.9175L65.5946-11.9175Q61.1395-11.9175 58.0954-13.0911Q55.0513-14.2646 51.5022-16.4299Q49.9909-17.3413 50.7102-19.0497L62.4349-49.0649Q63.2915-51.2665 62.2959-53.5017Q61.3003-55.737 59.0702-56.56Q56.7389-57.4791 54.5945-56.486Q52.4501-55.4929 51.5362-53.224ZM98.6199-0.263809L116.577-6.08673L146.229-11.4559Q148.617-11.8816 150.008-13.8249Q151.398-15.7681 150.972-18.2188Q150.541-20.6359 148.552-21.9832Q146.564-23.3306 144.175-22.8997L113.275-17.2507L95.9535-14.1142L96.5089-13.1279Q98.3472-10.054 98.7782-6.67892Q99.2091-3.30381 98.6199-0.263809Z"/>
  </g>
  <g id="Semibold-M" transform="matrix(1 0 0 1 1962.46 1126)">
   <path d="M23.6604-15.5068Q28.2892-15.5068 31.5673-18.7791Q34.8455-22.0514 34.8455-26.7063Q34.8455-31.3351 31.5673-34.6133Q28.2892-37.8915 23.6604-37.8915Q19.0425-37.8915 15.7517-34.6133Q12.4609-31.3351 12.4609-26.7063Q12.4609-22.0514 15.7517-18.7791Q19.0425-15.5068 23.6604-15.5068ZM35.2766-12.3808Q33.7851-8.52174 35.0273-4.88629Q36.2696-1.25084 39.4763 1.01751Q44.5821 4.56178 49.8603 6.0169Q55.1386 7.47201 62.6641 7.47201L78.5116 7.47201Q84.7825 7.47201 88.0827 4.65955Q91.3829 1.84709 91.883-2.33808Q92.383-6.52324 90.2205-10.6757L77.4559-35.2631L77.4559-72.5087Q77.4559-74.8425 75.8387-76.423Q74.2214-78.0036 71.8253-78.0036Q69.5096-78.0036 67.9325-76.423Q66.3555-74.8425 66.3555-72.5087L66.3555-33.9223Q66.3555-33.4129 66.4178-32.9349Q66.4801-32.4569 66.6158-32.0539L73.6923-11.9385L64.7974-11.9385Q60.3541-11.9385 57.3147-13.1081Q54.2753-14.2777 50.7672-16.4371Q49.1184-17.4173 49.8856-19.2673L61.4917-48.9715Q62.3048-51.0633 61.3579-53.1991Q60.4111-55.3349 58.2823-56.1228Q56.0401-56.9983 53.9942-56.055Q51.9483-55.1116 51.0799-52.9505ZM97.182-0.728611L115.198-6.55993L144.562-11.8906Q146.84-12.2936 148.159-14.1435Q149.478-15.9935 149.075-18.3344Q148.665-20.65 146.765-21.9321Q144.865-23.2141 142.587-22.804L111.958-17.2194L94.5982-14.0799L95.0951-13.1916Q96.9028-10.1899 97.3224-6.91913Q97.7419-3.64837 97.182-0.728611Z"/>
  </g>
  <g id="Medium-M" transform="matrix(1 0 0 1 1666.47 1126)">
   <path d="M23.4316-15.7504Q27.9618-15.7504 31.1734-18.9498Q34.3849-22.1491 34.3849-26.7211Q34.3849-31.2513 31.1734-34.4629Q27.9618-37.6746 23.4316-37.6746Q18.903-37.6746 15.682-34.4629Q12.4609-31.2513 12.4609-26.7211Q12.4609-22.1491 15.682-18.9498Q18.903-15.7504 23.4316-15.7504ZM35.0625-12.4977Q33.6055-8.71848 34.8132-5.15824Q36.0209-1.59799 39.1651 0.618617Q44.2131 4.116 49.4195 5.55237Q54.6259 6.98874 62.0799 6.98874L77.8034 6.98874Q83.9568 6.98874 87.1944 4.23667Q90.432 1.4846 90.9156-2.61205Q91.3991-6.7087 89.2741-10.7891L76.5931-35.208L76.5931-72.1934Q76.5931-74.4425 75.0379-75.9657Q73.4827-77.4888 71.1713-77.4888Q68.9326-77.4888 67.4137-75.9657Q65.8948-74.4425 65.8948-72.1934L65.8948-33.9174Q65.8948-33.4174 65.9571-32.9598Q66.0194-32.5022 66.1457-32.1165L73.2373-11.9545L64.193-11.9545Q59.7586-11.9545 56.7228-13.121Q53.6869-14.2876 50.2099-16.4426Q48.4567-17.4749 49.2604-19.4322L60.7765-48.9007Q61.5566-50.9092 60.6467-52.9696Q59.7368-55.03 57.6849-55.7913Q55.5102-56.6338 53.539-55.7282Q51.5677-54.8225 50.7338-52.7432ZM96.0917-1.08104L114.152-6.91874L143.298-12.2202Q145.493-12.6059 146.758-14.3852Q148.022-16.1645 147.636-18.422Q147.242-20.6608 145.41-21.8933Q143.578-23.1258 141.382-22.7314L110.959-17.1956L93.5705-14.0538L94.0232-13.2398Q95.8077-10.2929 96.2186-7.10126Q96.6295-3.90963 96.0917-1.08104Z"/>
  </g>
  <g id="Regular-M" transform="matrix(1 0 0 1 1370.7 1126)">
   <path d="M23.1332-16.0682Q27.5347-16.0682 30.6595-19.1724Q33.7842-22.2766 33.7842-26.7404Q33.7842-31.142 30.6595-34.2668Q27.5347-37.3916 23.1332-37.3916Q18.721-37.3916 15.591-34.2668Q12.4609-31.142 12.4609-26.7404Q12.4609-22.2766 15.591-19.1724Q18.721-16.0682 23.1332-16.0682ZM34.7832-12.6501Q33.3713-8.97511 34.534-5.51295Q35.6967-2.05079 38.7591 0.0983187Q43.7318 3.53455 48.8446 4.94647Q53.9573 6.35838 61.3179 6.35838L76.8796 6.35838Q82.8799 6.35838 86.0358 3.68509Q89.1917 1.01179 89.6537-2.96941Q90.1158-6.95061 88.0396-10.9371L75.4676-35.136L75.4676-71.7823Q75.4676-73.9208 73.9934-75.3691Q72.5192-76.8174 70.3184-76.8174Q68.18-76.8174 66.7369-75.3691Q65.2938-73.9208 65.2938-71.7823L65.2938-33.911Q65.2938-33.4232 65.3561-32.9923Q65.4184-32.5614 65.5326-32.1982L72.6438-11.9752L63.4046-11.9752Q58.9819-11.9752 55.9507-13.1379Q52.9194-14.3006 49.483-16.4497Q47.5937-17.5501 48.4449-19.6474L59.8437-48.8084Q60.5807-50.7083 59.719-52.6703Q58.8573-54.6323 56.9057-55.3589Q54.8191-56.1584 52.9452-55.3019Q51.0714-54.4454 50.2825-52.4728ZM94.6696-1.54074L112.789-7.38674L141.649-12.6501Q143.736-13.0133 144.929-14.7004Q146.123-16.3874 145.76-18.5363Q145.386-20.6748 143.642-21.8427Q141.898-23.0107 139.811-22.6368L109.657-17.1647L92.23-14.0198L92.625-13.3027Q94.3791-10.4273 94.7788-7.33883Q95.1785-4.25041 94.6696-1.54074Z"/>
  </g>
  <g id="Light-M" transform="matrix(1 0 0 1 1075.69 1126)">
   <path d="M22.8595-16.8723Q27.1242-16.8723 30.1633-19.9081Q33.2023-22.9438 33.2023-27.2709Q33.2023-31.5356 30.1633-34.5748Q27.1242-37.6141 22.8595-37.6141Q18.5669-37.6141 15.5139-34.5748Q12.4609-31.5356 12.4609-27.2709Q12.4609-22.9438 15.5139-19.9081Q18.5669-16.8723 22.8595-16.8723ZM34.4069-13.2662Q33.0292-9.69382 34.1577-6.32581Q35.2861-2.9578 38.2629-0.859867Q43.1157 2.4907 48.083 3.8684Q53.0503 5.2461 60.2229 5.2461L75.3567 5.2461Q81.1861 5.2461 84.2563 2.63275Q87.3265 0.0193976 87.78-3.85055Q88.2336-7.72049 86.2259-11.6044L73.979-35.136L73.979-70.7899Q73.979-72.86 72.539-74.2825Q71.099-75.7051 68.9667-75.7051Q66.8966-75.7051 65.4878-74.2825Q64.0789-72.86 64.0789-70.7899L64.0789-33.9452Q64.0789-33.4747 64.1412-33.0523Q64.2035-32.6298 64.3007-32.2839L71.2236-12.6083L62.2581-12.6083Q57.9381-12.6083 54.9925-13.7367Q52.0469-14.8652 48.6959-16.9632Q46.875-18.0293 47.692-20.0924L58.7829-48.449Q59.5027-50.2978 58.6581-52.2083Q57.8135-54.1189 55.9303-54.8112Q53.8951-55.5938 52.0641-54.7629Q50.2331-53.932 49.4784-51.9935ZM92.2912-2.32787L110.29-8.15662L138.363-13.2662Q140.399-13.6121 141.559-15.2565Q142.718-16.9009 142.372-18.9983Q141.998-21.0684 140.305-22.2106Q138.613-23.3528 136.577-22.9789L106.526-17.524L89.9371-14.5333L90.3662-13.7647Q92.035-10.9749 92.426-7.9805Q92.8171-4.98608 92.2912-2.32787Z"/>
  </g>
  <g id="Thin-M" transform="matrix(1 0 0 1 781.215 1126)">
   <path d="M22.4975-17.9358Q26.5813-17.9358 29.507-20.881Q32.4327-23.8263 32.4327-27.9724Q32.4327-32.0561 29.507-34.9822Q26.5813-37.9084 22.4975-37.9084Q18.3631-37.9084 15.412-34.9822Q12.4609-32.0561 12.4609-27.9724Q12.4609-23.8263 15.412-20.881Q18.3631-17.9358 22.4975-17.9358ZM33.9092-14.081Q32.5767-10.6444 33.6599-7.40089Q34.7432-4.1574 37.6066-2.12714Q42.3009 1.11011 47.0758 2.44257Q51.8507 3.77503 58.7747 3.77503L73.3427 3.77503Q78.9458 3.77503 81.9027 1.24095Q84.8596-1.29313 85.302-5.01593Q85.7443-8.73872 83.8271-12.4869L72.0103-35.136L72.0103-69.4774Q72.0103-71.4569 70.6155-72.8455Q69.2207-74.234 67.1789-74.234Q65.1993-74.234 63.8357-72.8455Q62.4721-71.4569 62.4721-69.4774L62.4721-33.9905Q62.4721-33.5428 62.5344-33.1315Q62.5967-32.7203 62.6715-32.3972L69.3454-13.4455L60.7418-13.4455Q56.5575-13.4455 53.7252-14.5287Q50.8929-15.612 47.6548-17.6422Q45.9245-18.6632 46.6962-20.681L57.3799-47.9738Q58.0768-49.7548 57.2549-51.5973Q56.4329-53.4398 54.6402-54.0869Q52.6731-54.847 50.8987-54.0499Q49.1243-53.2529 48.4149-51.3597ZM89.1456-3.36892L106.986-9.17486L134.018-14.081Q135.986-14.4041 137.101-15.992Q138.215-17.5799 137.891-19.6093Q137.517-21.5889 135.892-22.6971Q134.267-23.8052 132.3-23.4314L102.384-17.9993L86.9044-15.2123L87.3788-14.3757Q88.9347-11.6992 89.3143-8.82915Q89.6939-5.95907 89.1456-3.36892Z"/>
  </g>
  <g id="Ultralight-M" transform="matrix(1 0 0 1 485.651 1126)">
   <path d="M22.3121-18.4805Q26.3032-18.4805 29.1709-21.3794Q32.0386-24.2783 32.0386-28.3317Q32.0386-32.3227 29.1709-35.1909Q26.3032-38.0591 22.3121-38.0591Q18.2587-38.0591 15.3598-35.1909Q12.4609-32.3227 12.4609-28.3317Q12.4609-24.2783 15.3598-21.3794Q18.2587-18.4805 22.3121-18.4805ZM33.6542-14.4983Q32.345-11.1312 33.405-7.95154Q34.4651-4.77183 37.2705-2.77624Q41.8836 0.402987 46.5599 1.71227Q51.2363 3.02155 58.0329 3.02155L72.3111 3.02155Q77.7984 3.02155 80.6972 0.528077Q83.5961-1.96539 84.0327-5.61283Q84.4693-9.26026 82.5984-12.9389L71.0019-35.136L71.0019-68.8051Q71.0019-70.7383 69.6303-72.1094Q68.2587-73.4805 66.2632-73.4805Q64.33-73.4805 62.9895-72.1094Q61.6491-70.7383 61.6491-68.8051L61.6491-34.0137Q61.6491-33.5776 61.7114-33.1722Q61.7737-32.7667 61.837-32.4552L68.3833-13.8743L59.9651-13.8743Q55.8504-13.8743 53.0761-14.9344Q50.3019-15.9945 47.1216-17.9901Q45.4376-18.9878 46.1861-20.9824L56.6613-47.7303Q57.3465-49.4767 56.5361-51.2843Q55.7257-53.092 53.9794-53.7159Q52.0472-54.4645 50.3018-53.6848Q48.5564-52.9051 47.8702-51.035ZM87.5345-3.90213L105.294-9.69639L131.793-14.4983Q133.726-14.8098 134.817-16.3688Q135.908-17.9277 135.596-19.9223Q135.222-21.8555 133.632-22.9462Q132.042-24.037 130.11-23.6631L100.263-18.2427L85.3511-15.5602L85.8487-14.6887Q87.3467-12.0702 87.7205-9.26383Q88.0943-6.45743 87.5345-3.90213Z"/>
  </g>
  <g id="Black-S" transform="matrix(1 0 0 1 2866.99 696)">
   <path d="M19.5312-18.75Q23.584-18.75 26.4404-21.6309Q29.2969-24.5117 29.2969-28.5156Q29.2969-32.5684 26.4404-35.4248Q23.584-38.2812 19.5312-38.2812Q15.5273-38.2812 12.6465-35.4248Q9.76562-32.5684 9.76562-28.5156Q9.76562-24.5117 12.6465-21.6309Q15.5273-18.75 19.5312-18.75ZM28.5645-16.8457Q27.2461-13.4766 28.3691-10.3027Q29.4922-7.12891 32.2754-5.12695Q36.5234-2.14844 40.9668-0.927734Q45.4102 0.292969 51.6113 0.292969L64.5508 0.292969Q69.9707 0.292969 72.8271-2.17285Q75.6836-4.63867 76.1475-8.30078Q76.6113-11.9629 74.7559-15.5273L64.4043-35.498L64.4043-65.7715Q64.4043-67.9688 62.8662-69.458Q61.3281-70.9473 59.082-70.9473Q56.9336-70.9473 55.4443-69.458Q53.9551-67.9688 53.9551-65.7715L53.9551-34.2285Q53.9551-33.7891 54.0039-33.3252Q54.0527-32.8613 54.1992-32.4707L59.668-16.9434L53.3691-16.9434Q49.8535-16.9434 47.4609-17.8711Q45.0684-18.7988 42.1875-20.5078Q41.3574-21.0449 41.7969-22.0215L51.2695-46.2891Q52.0508-48.291 51.1475-50.293Q50.2441-52.2949 48.2422-53.0273Q46.1914-53.8574 44.2627-52.9541Q42.334-52.0508 41.5039-50ZM80.8105-6.68945L94.7266-11.2305L118.652-15.5273Q120.801-15.918 122.07-17.6758Q123.34-19.4336 122.949-21.6309Q122.559-23.7793 120.776-25Q118.994-26.2207 116.846-25.8301L91.9434-21.2402L78.5156-18.7988L79.1016-17.7734Q80.6152-15.1855 80.9814-12.2803Q81.3477-9.375 80.8105-6.68945Z"/>
  </g>
  <g id="Heavy-S" transform="matrix(1 0 0 1 2571.12 696)">
   <path d="M19.2316-19.0035Q23.1576-19.0035 25.9276-21.7864Q28.6976-24.5693 28.6976-28.4695Q28.6976-32.3955 25.9276-35.1655Q23.1576-37.9355 19.2316-37.9355Q15.343-37.9355 12.5543-35.1655Q9.76562-32.3955 9.76562-28.4695Q9.76562-24.5693 12.5543-21.7864Q15.343-19.0035 19.2316-19.0035ZM28.2994-16.9379Q27.0271-13.6725 28.1041-10.5966Q29.181-7.52074 31.8836-5.58793Q36.0625-2.66704 40.4194-1.46938Q44.7763-0.27173 50.8968-0.27173L63.7095-0.27173Q68.9796-0.27173 71.7554-2.65688Q74.5311-5.04203 74.972-8.58889Q75.4128-12.1358 73.6034-15.608L63.3325-35.4174L63.3325-65.4373Q63.3325-67.5193 61.8809-68.9279Q60.4292-70.3365 58.2984-70.3365Q56.2537-70.3365 54.8451-68.9279Q53.4365-67.5193 53.4365-65.4373L53.4365-34.217Q53.4365-33.7891 53.4853-33.354Q53.5341-32.919 53.6691-32.5514L59.1839-16.8857L52.6316-16.8857Q49.1159-16.8857 46.7176-17.8135Q44.3193-18.7412 41.473-20.4502Q40.4816-21.068 40.9786-22.2059L50.3591-46.2314Q51.0943-48.1181 50.2428-50.0164Q49.3913-51.9146 47.4931-52.6125Q45.5345-53.3964 43.7095-52.545Q41.8845-51.6935 41.1005-49.758ZM79.5198-7.10433L93.5165-11.6569L117.223-15.9307Q119.257-16.2983 120.451-17.9581Q121.646-19.618 121.278-21.7Q120.911-23.7447 119.221-24.8963Q117.531-26.0478 115.497-25.6803L90.8831-21.1596L77.3056-18.6951L77.8223-17.785Q79.313-15.2662 79.6677-12.4647Q80.0223-9.66311 79.5198-7.10433Z"/>
  </g>
  <g id="Bold-S" transform="matrix(1 0 0 1 2275.35 696)">
   <path d="M18.8965-19.2871Q22.6807-19.2871 25.354-21.9604Q28.0273-24.6338 28.0273-28.418Q28.0273-32.2021 25.354-34.8755Q22.6807-37.5488 18.8965-37.5488Q15.1367-37.5488 12.4512-34.8755Q9.76562-32.2021 9.76562-28.418Q9.76562-24.6338 12.4512-21.9604Q15.1367-19.2871 18.8965-19.2871ZM28.0029-17.041Q26.7822-13.8916 27.8076-10.9253Q28.833-7.95898 31.4453-6.10352Q35.5469-3.24707 39.8071-2.0752Q44.0674-0.90332 50.0977-0.90332L62.7686-0.90332Q67.8711-0.90332 70.5566-3.19824Q73.2422-5.49316 73.6572-8.91113Q74.0723-12.3291 72.3145-15.6982L62.1338-35.3271L62.1338-65.0635Q62.1338-67.0166 60.7788-68.335Q59.4238-69.6533 57.4219-69.6533Q55.4932-69.6533 54.1748-68.335Q52.8564-67.0166 52.8564-65.0635L52.8564-34.2041Q52.8564-33.7891 52.9053-33.3862Q52.9541-32.9834 53.0762-32.6416L58.6426-16.8213L51.8066-16.8213Q48.291-16.8213 45.8862-17.749Q43.4814-18.6768 40.6738-20.3857Q39.502-21.0938 40.0635-22.4121L49.3408-46.167Q50.0244-47.9248 49.231-49.707Q48.4375-51.4893 46.6553-52.1484Q44.7998-52.8809 43.0908-52.0874Q41.3818-51.2939 40.6494-49.4873ZM78.0762-7.56836L92.1631-12.1338L115.625-16.3818Q117.529-16.7236 118.64-18.2739Q119.751-19.8242 119.409-21.7773Q119.067-23.7061 117.48-24.7803Q115.894-25.8545 113.989-25.5127L89.6973-21.0693L75.9521-18.5791L76.3916-17.7979Q77.8564-15.3564 78.1982-12.6709Q78.54-9.98535 78.0762-7.56836Z"/>
  </g>
  <g id="Semibold-S" transform="matrix(1 0 0 1 1979.29 696)">
   <path d="M18.6654-19.4826Q22.3519-19.4826 24.9585-22.0804Q27.5652-24.6782 27.5652-28.3824Q27.5652-32.0688 24.9585-34.6755Q22.3519-37.2822 18.6654-37.2822Q14.9945-37.2822 12.3801-34.6755Q9.76562-32.0688 9.76562-28.3824Q9.76562-24.6782 12.3801-22.0804Q14.9945-19.4826 18.6654-19.4826ZM27.7985-17.1121Q26.6134-14.0427 27.6032-11.1519Q28.5931-8.26113 31.1432-6.45898Q35.1914-3.64697 39.385-2.49287Q43.5786-1.33877 49.5467-1.33877L62.1198-1.33877Q67.1068-1.33877 69.7302-3.57148Q72.3535-5.8042 72.7508-9.1333Q73.148-12.4624 71.4258-15.7604L61.3073-35.2649L61.3073-64.8058Q61.3073-66.67 60.019-67.9262Q58.7307-69.1823 56.8176-69.1823Q54.9688-69.1823 53.7127-67.9262Q52.4565-66.67 52.4565-64.8058L52.4565-34.1952Q52.4565-33.7891 52.5054-33.4084Q52.5542-33.0278 52.6674-32.7038L58.2693-16.7769L51.2379-16.7769Q47.7223-16.7769 45.313-17.7046Q42.9038-18.6323 40.1229-20.3413Q38.8266-21.1115 39.4325-22.5543L48.6388-46.1226Q49.2868-47.7915 48.5333-49.4937Q47.7799-51.196 46.0776-51.8285Q44.2933-52.5254 42.6643-51.7719Q41.0353-51.0185 40.3384-49.3007ZM77.0809-7.88828L91.23-12.4626L114.523-16.6929Q116.338-17.0169 117.392-18.4917Q118.445-19.9664 118.121-21.8307Q117.797-23.6794 116.281-24.7003Q114.765-25.7212 112.95-25.3972L88.8797-21.0071L75.019-18.4991L75.4052-17.8067Q76.8522-15.4187 77.1852-12.8131Q77.5181-10.2075 77.0809-7.88828Z"/>
  </g>
  <g id="Medium-S" transform="matrix(1 0 0 1 1683.07 696)">
   <path d="M18.4902-19.6309Q22.1025-19.6309 24.6587-22.1714Q27.2148-24.7119 27.2148-28.3555Q27.2148-31.9678 24.6587-34.5239Q22.1025-37.0801 18.4902-37.0801Q14.8867-37.0801 12.3262-34.5239Q9.76562-31.9678 9.76562-28.3555Q9.76562-24.7119 12.3262-22.1714Q14.8867-19.6309 18.4902-19.6309ZM27.6436-17.166Q26.4854-14.1572 27.4482-11.3237Q28.4111-8.49023 30.9141-6.72852Q34.9219-3.9502 39.0649-2.80957Q43.208-1.66895 49.1289-1.66895L61.6279-1.66895Q66.5273-1.66895 69.1035-3.85449Q71.6797-6.04004 72.0635-9.30176Q72.4473-12.5635 70.752-15.8076L60.6807-35.2178L60.6807-64.6104Q60.6807-66.4072 59.4429-67.6162Q58.2051-68.8252 56.3594-68.8252Q54.5713-68.8252 53.3623-67.6162Q52.1533-66.4072 52.1533-64.6104L52.1533-34.1885Q52.1533-33.7891 52.2021-33.4253Q52.251-33.0615 52.3574-32.751L57.9863-16.7432L50.8066-16.7432Q47.291-16.7432 44.8784-17.6709Q42.4658-18.5986 39.7051-20.3076Q38.3145-21.125 38.9541-22.6621L48.1064-46.0889Q48.7275-47.6904 48.0044-49.332Q47.2812-50.9736 45.6396-51.5859Q43.9092-52.2559 42.3408-51.5327Q40.7725-50.8096 40.1025-49.1592ZM76.3262-8.13086L90.5225-12.7119L113.688-16.9287Q115.436-17.2393 116.445-18.6567Q117.454-20.0742 117.144-21.8711Q116.833-23.6592 115.371-24.6396Q113.909-25.6201 112.161-25.3096L88.2598-20.96L74.3115-18.4385L74.6572-17.8135Q76.0908-15.4658 76.417-12.9209Q76.7432-10.376 76.3262-8.13086Z"/>
  </g>
  <g id="Regular-S" transform="matrix(1 0 0 1 1387 696)">
   <path d="M18.2617-19.8242Q21.7773-19.8242 24.2676-22.29Q26.7578-24.7559 26.7578-28.3203Q26.7578-31.8359 24.2676-34.3262Q21.7773-36.8164 18.2617-36.8164Q14.7461-36.8164 12.2559-34.3262Q9.76562-31.8359 9.76562-28.3203Q9.76562-24.7559 12.2559-22.29Q14.7461-19.8242 18.2617-19.8242ZM27.4414-17.2363Q26.3184-14.3066 27.2461-11.5479Q28.1738-8.78906 30.6152-7.08008Q34.5703-4.3457 38.6475-3.22266Q42.7246-2.09961 48.584-2.09961L60.9863-2.09961Q65.7715-2.09961 68.2861-4.22363Q70.8008-6.34766 71.167-9.52148Q71.5332-12.6953 69.873-15.8691L59.8633-35.1562L59.8633-64.3555Q59.8633-66.0645 58.6914-67.2119Q57.5195-68.3594 55.7617-68.3594Q54.0527-68.3594 52.9053-67.2119Q51.7578-66.0645 51.7578-64.3555L51.7578-34.1797Q51.7578-33.7891 51.8066-33.4473Q51.8555-33.1055 51.9531-32.8125L57.6172-16.6992L50.2441-16.6992Q46.7285-16.6992 44.3115-17.627Q41.8945-18.5547 39.1602-20.2637Q37.6465-21.1426 38.3301-22.8027L47.4121-46.0449Q47.998-47.5586 47.3145-49.1211Q46.6309-50.6836 45.0684-51.2695Q43.4082-51.9043 41.9189-51.2207Q40.4297-50.5371 39.7949-48.9746ZM75.3418-8.44727L89.5996-13.0371L112.598-17.2363Q114.258-17.5293 115.21-18.8721Q116.162-20.2148 115.869-21.9238Q115.576-23.6328 114.185-24.5605Q112.793-25.4883 111.133-25.1953L87.4512-20.8984L73.3887-18.3594L73.6816-17.8223Q75.0977-15.5273 75.415-13.0615Q75.7324-10.5957 75.3418-8.44727Z"/>
  </g>
  <g id="Light-S" transform="matrix(1 0 0 1 1091.79 696)">
   <path d="M18.0196-20.5355Q21.4142-20.5355 23.8286-22.9408Q26.2431-25.3461 26.2431-28.7895Q26.2431-32.1841 23.8286-34.5987Q21.4142-37.0132 18.0196-37.0132Q14.6098-37.0132 12.1877-34.5987Q9.76562-32.1841 9.76562-28.7895Q9.76562-25.3461 12.1877-22.9408Q14.6098-20.5355 18.0196-20.5355ZM27.1085-17.7813Q26.0157-14.9424 26.9132-12.2669Q27.8107-9.59142 30.1763-7.9277Q34.0253-5.26911 37.9738-4.17633Q41.9223-3.08355 47.6153-3.08355L59.6392-3.08355Q64.2731-3.08355 66.7119-5.15455Q69.1508-7.22555 69.5095-10.301Q69.8682-13.3764 68.2686-16.4594L58.5464-35.1562L58.5464-63.4776Q58.5464-65.126 57.4048-66.2507Q56.2632-67.3754 54.5659-67.3754Q52.9175-67.3754 51.8003-66.2507Q50.6831-65.126 50.6831-63.4776L50.6831-34.21Q50.6831-33.8346 50.7319-33.5003Q50.7807-33.166 50.8634-32.8883L56.3609-17.2592L49.2299-17.2592Q45.8051-17.2592 43.4639-18.1567Q41.1227-19.0542 38.4638-20.7179Q37.0107-21.5665 37.664-23.1964L46.4737-45.727Q47.0444-47.1954 46.3759-48.7124Q45.7074-50.2294 44.2055-50.7851Q42.5908-51.4048 41.1395-50.7439Q39.6881-50.0829 39.0836-48.5507ZM73.2379-9.14358L87.3896-13.7182L109.691-17.7813Q111.306-18.059 112.228-19.364Q113.15-20.669 112.872-22.3325Q112.579-23.981 111.233-24.8859Q109.887-25.7909 108.272-25.4979L84.6812-21.2163L71.3603-18.8136L71.6835-18.2309Q73.024-16.0118 73.3337-13.6292Q73.6435-11.2465 73.2379-9.14358Z"/>
  </g>
  <g id="Thin-S" transform="matrix(1 0 0 1 797.061 696)">
   <path d="M17.6994-21.4763Q20.9339-21.4763 23.2481-23.8015Q25.5623-26.1268 25.5623-29.4101Q25.5623-32.6446 23.2481-34.9591Q20.9339-37.2736 17.6994-37.2736Q14.4295-37.2736 12.0976-34.9591Q9.76562-32.6446 9.76562-29.4101Q9.76562-26.1268 12.0976-23.8015Q14.4295-21.4763 17.6994-21.4763ZM26.6682-18.5021Q25.6155-15.7833 26.4729-13.218Q27.3304-10.6526 29.5958-9.04876Q33.3045-6.4904 37.0828-5.43764Q40.8611-4.38488 46.3341-4.38488L57.8576-4.38488Q62.2913-4.38488 64.6299-6.38575Q66.9686-8.38662 67.3173-11.3319Q67.6661-14.2771 66.1466-17.2401L56.8048-35.1562L56.8048-62.3165Q56.8048-63.8849 55.7032-64.9795Q54.6017-66.0741 52.9844-66.0741Q51.416-66.0741 50.3388-64.9795Q49.2617-63.8849 49.2617-62.3165L49.2617-34.25Q49.2617-33.8948 49.3105-33.5704Q49.3593-33.246 49.4221-32.9885L54.6993-17.9999L47.8886-17.9999Q44.5838-17.9999 42.3428-18.8573Q40.1019-19.7147 37.5429-21.3186Q36.1698-22.1272 36.7831-23.7171L45.2326-45.3066Q45.7831-46.7151 45.1346-48.1719Q44.4862-49.6287 43.0642-50.1443Q41.5098-50.7442 40.1086-50.1132Q38.7073-49.4822 38.1428-47.99ZM70.4552-10.0645L84.4667-14.6189L105.848-18.5021Q107.403-18.7596 108.284-20.0147Q109.166-21.2698 108.908-22.873Q108.615-24.4414 107.329-25.3163Q106.043-26.1912 104.488-25.8982L81.0177-21.6368L68.6775-19.4143L69.0408-18.7715Q70.2814-16.6526 70.5811-14.3799Q70.8807-12.1072 70.4552-10.0645Z"/>
  </g>
  <g id="Ultralight-S" transform="matrix(1 0 0 1 501.365 696)">
   <path d="M17.5354-21.9582Q20.6879-21.9582 22.9507-24.2424Q25.2136-26.5266 25.2136-29.7279Q25.2136-32.8804 22.9507-35.1437Q20.6879-37.4069 17.5354-37.4069Q14.3372-37.4069 12.0514-35.1437Q9.76562-32.8804 9.76562-29.7279Q9.76562-26.5266 12.0514-24.2424Q14.3372-21.9582 17.5354-21.9582ZM26.4427-18.8713Q25.4105-16.214 26.2474-13.7051Q27.0844-11.1961 29.2984-9.62296Q32.9353-7.11594 36.6264-6.08368Q40.3175-5.05142 45.6779-5.05142L56.945-5.05142Q61.2762-5.05142 63.5635-7.01637Q65.8508-8.98132 66.1945-11.8599Q66.5382-14.7385 65.0597-17.6399L55.9128-35.1562L55.9128-61.7218Q55.9128-63.2492 54.8317-64.3284Q53.7506-65.4076 52.1744-65.4076Q50.647-65.4076 49.5903-64.3284Q48.5336-63.2492 48.5336-61.7218L48.5336-34.2705Q48.5336-33.9256 48.5825-33.6063Q48.6313-33.287 48.6839-33.0399L53.8483-18.3792L47.2015-18.3792Q43.9583-18.3792 41.7686-19.2162Q39.579-20.0531 37.0712-21.6263Q35.7391-22.4144 36.3319-23.9838L44.5969-45.0912Q45.137-46.4691 44.4988-47.8951Q43.8606-49.321 42.4797-49.8161Q40.9561-50.4059 39.5805-49.7902Q38.205-49.1745 37.661-47.7028ZM69.03-10.5362L82.9697-15.0803L103.879-18.8713Q105.403-19.1185 106.264-20.348Q107.126-21.5775 106.878-23.1499Q106.585-24.6773 105.33-25.5367Q104.074-26.3962 102.551-26.1032L79.1412-21.8521L67.3035-19.722L67.6872-19.0483Q68.8766-16.9807 69.1711-14.7644Q69.4656-12.5481 69.03-10.5362Z"/>
  </g>
 </g>
</svg>
