<?xml version="1.0" encoding="UTF-8"?>
<!--Generator: Apple Native CoreSVG 175.5-->
<!DOCTYPE svg
PUBLIC "-//W3C//DTD SVG 1.1//EN"
       "http://www.w3.org/Graphics/SVG/1.1/DTD/svg11.dtd">
<svg version="1.1" xmlns="http://www.w3.org/2000/svg" xmlns:xlink="http://www.w3.org/1999/xlink" width="3300" height="2200">
 <!--glyph: "uni100A91.medium", point size: 100.0, font version: "18.0d9e1", template writer version: "84"-->
 <g id="Notes">
  <rect height="2200" id="artboard" style="fill:white;opacity:1" width="3300" x="0" y="0"/>
  <line style="fill:none;stroke:black;opacity:1;stroke-width:0.5;" x1="263" x2="3036" y1="292" y2="292"/>
  <text style="stroke:none;fill:black;font-family:sans-serif;font-size:13;font-weight:bold;" transform="matrix(1 0 0 1 263 322)">Weight/Scale Variations</text>
  <text style="stroke:none;fill:black;font-family:sans-serif;font-size:13;text-anchor:middle;" transform="matrix(1 0 0 1 559.711 322)">Ultralight</text>
  <text style="stroke:none;fill:black;font-family:sans-serif;font-size:13;text-anchor:middle;" transform="matrix(1 0 0 1 856.422 322)">Thin</text>
  <text style="stroke:none;fill:black;font-family:sans-serif;font-size:13;text-anchor:middle;" transform="matrix(1 0 0 1 1153.13 322)">Light</text>
  <text style="stroke:none;fill:black;font-family:sans-serif;font-size:13;text-anchor:middle;" transform="matrix(1 0 0 1 1449.84 322)">Regular</text>
  <text style="stroke:none;fill:black;font-family:sans-serif;font-size:13;text-anchor:middle;" transform="matrix(1 0 0 1 1746.56 322)">Medium</text>
  <text style="stroke:none;fill:black;font-family:sans-serif;font-size:13;text-anchor:middle;" transform="matrix(1 0 0 1 2043.27 322)">Semibold</text>
  <text style="stroke:none;fill:black;font-family:sans-serif;font-size:13;text-anchor:middle;" transform="matrix(1 0 0 1 2339.98 322)">Bold</text>
  <text style="stroke:none;fill:black;font-family:sans-serif;font-size:13;text-anchor:middle;" transform="matrix(1 0 0 1 2636.69 322)">Heavy</text>
  <text style="stroke:none;fill:black;font-family:sans-serif;font-size:13;text-anchor:middle;" transform="matrix(1 0 0 1 2933.4 322)">Black</text>
  <line style="fill:none;stroke:black;opacity:1;stroke-width:0.5;" x1="263" x2="3036" y1="1903" y2="1903"/>
  <g transform="matrix(1 0 0 1 263 1933)">
   <path d="M9.24805 0.830078Q10.8691 0.830078 12.2949 0.214844Q13.7207-0.400391 14.8096-1.49414Q15.8984-2.58789 16.5186-4.01367Q17.1387-5.43945 17.1387-7.05078Q17.1387-8.66211 16.5186-10.0879Q15.8984-11.5137 14.8047-12.6074Q13.7109-13.7012 12.2852-14.3164Q10.8594-14.9316 9.23828-14.9316Q7.62695-14.9316 6.20117-14.3164Q4.77539-13.7012 3.69141-12.6074Q2.60742-11.5137 1.9873-10.0879Q1.36719-8.66211 1.36719-7.05078Q1.36719-5.43945 1.9873-4.01367Q2.60742-2.58789 3.69629-1.49414Q4.78516-0.400391 6.21094 0.214844Q7.63672 0.830078 9.24805 0.830078ZM9.24805-0.654297Q7.91992-0.654297 6.7627-1.14746Q5.60547-1.64062 4.73145-2.51953Q3.85742-3.39844 3.36426-4.56055Q2.87109-5.72266 2.87109-7.05078Q2.87109-8.37891 3.35938-9.54102Q3.84766-10.7031 4.72168-11.582Q5.5957-12.4609 6.75293-12.9541Q7.91016-13.4473 9.23828-13.4473Q10.5762-13.4473 11.7383-12.9541Q12.9004-12.4609 13.7793-11.582Q14.6582-10.7031 15.1514-9.54102Q15.6445-8.37891 15.6445-7.05078Q15.6445-5.72266 15.1514-4.56055Q14.6582-3.39844 13.7793-2.51953Q12.9004-1.64062 11.7432-1.14746Q10.5859-0.654297 9.24805-0.654297ZM5.6543-7.05078Q5.6543-6.72852 5.85938-6.52832Q6.06445-6.32812 6.40625-6.32812L8.51562-6.32812L8.51562-4.20898Q8.51562-3.88672 8.71094-3.67676Q8.90625-3.4668 9.23828-3.4668Q9.56055-3.4668 9.77051-3.67676Q9.98047-3.88672 9.98047-4.20898L9.98047-6.32812L12.0898-6.32812Q12.4219-6.32812 12.627-6.52832Q12.832-6.72852 12.832-7.05078Q12.832-7.38281 12.627-7.58789Q12.4219-7.79297 12.0898-7.79297L9.98047-7.79297L9.98047-9.90234Q9.98047-10.2344 9.77051-10.4443Q9.56055-10.6543 9.23828-10.6543Q8.90625-10.6543 8.71094-10.4443Q8.51562-10.2344 8.51562-9.90234L8.51562-7.79297L6.40625-7.79297Q6.06445-7.79297 5.85938-7.58789Q5.6543-7.38281 5.6543-7.05078Z"/>
  </g>
  <g transform="matrix(1 0 0 1 281.867 1933)">
   <path d="M11.709 2.91016Q13.75 2.91016 15.5518 2.12891Q17.3535 1.34766 18.7305-0.0292969Q20.1074-1.40625 20.8887-3.20801Q21.6699-5.00977 21.6699-7.05078Q21.6699-9.0918 20.8887-10.8936Q20.1074-12.6953 18.7305-14.0723Q17.3535-15.4492 15.5469-16.2305Q13.7402-17.0117 11.6992-17.0117Q9.6582-17.0117 7.85645-16.2305Q6.05469-15.4492 4.68262-14.0723Q3.31055-12.6953 2.5293-10.8936Q1.74805-9.0918 1.74805-7.05078Q1.74805-5.00977 2.5293-3.20801Q3.31055-1.40625 4.6875-0.0292969Q6.06445 1.34766 7.86621 2.12891Q9.66797 2.91016 11.709 2.91016ZM11.709 1.25Q9.98047 1.25 8.47656 0.605469Q6.97266-0.0390625 5.83496-1.17676Q4.69727-2.31445 4.05762-3.81836Q3.41797-5.32227 3.41797-7.05078Q3.41797-8.7793 4.05762-10.2832Q4.69727-11.7871 5.83008-12.9297Q6.96289-14.0723 8.4668-14.7119Q9.9707-15.3516 11.6992-15.3516Q13.4277-15.3516 14.9365-14.7119Q16.4453-14.0723 17.583-12.9297Q18.7207-11.7871 19.3652-10.2832Q20.0098-8.7793 20.0098-7.05078Q20.0098-5.32227 19.3701-3.81836Q18.7305-2.31445 17.5879-1.17676Q16.4453-0.0390625 14.9414 0.605469Q13.4375 1.25 11.709 1.25ZM7.17773-7.05078Q7.17773-6.69922 7.41211-6.47461Q7.64648-6.25 8.01758-6.25L10.8887-6.25L10.8887-3.36914Q10.8887-2.99805 11.1133-2.76855Q11.3379-2.53906 11.6895-2.53906Q12.0605-2.53906 12.29-2.76855Q12.5195-2.99805 12.5195-3.36914L12.5195-6.25L15.4004-6.25Q15.7715-6.25 16.001-6.47461Q16.2305-6.69922 16.2305-7.05078Q16.2305-7.42188 16.001-7.65137Q15.7715-7.88086 15.4004-7.88086L12.5195-7.88086L12.5195-10.752Q12.5195-11.1328 12.29-11.3623Q12.0605-11.5918 11.6895-11.5918Q11.3379-11.5918 11.1133-11.3574Q10.8887-11.123 10.8887-10.752L10.8887-7.88086L8.01758-7.88086Q7.63672-7.88086 7.40723-7.65137Q7.17773-7.42188 7.17773-7.05078Z"/>
  </g>
  <g transform="matrix(1 0 0 1 305.646 1933)">
   <path d="M14.9707 5.66406Q17.0605 5.66406 18.96 5.01465Q20.8594 4.36523 22.4512 3.19336Q24.043 2.02148 25.2197 0.429688Q26.3965-1.16211 27.0459-3.06641Q27.6953-4.9707 27.6953-7.05078Q27.6953-9.14062 27.0459-11.04Q26.3965-12.9395 25.2197-14.5312Q24.043-16.123 22.4512-17.2998Q20.8594-18.4766 18.9551-19.126Q17.0508-19.7754 14.9609-19.7754Q12.8711-19.7754 10.9717-19.126Q9.07227-18.4766 7.48535-17.2998Q5.89844-16.123 4.72168-14.5312Q3.54492-12.9395 2.90039-11.04Q2.25586-9.14062 2.25586-7.05078Q2.25586-4.9707 2.90527-3.06641Q3.55469-1.16211 4.72656 0.429688Q5.89844 2.02148 7.49023 3.19336Q9.08203 4.36523 10.9814 5.01465Q12.8809 5.66406 14.9707 5.66406ZM14.9707 3.84766Q13.1641 3.84766 11.5283 3.2959Q9.89258 2.74414 8.53516 1.74805Q7.17773 0.751953 6.17676-0.610352Q5.17578-1.97266 4.62891-3.6084Q4.08203-5.24414 4.08203-7.05078Q4.08203-8.86719 4.62891-10.5029Q5.17578-12.1387 6.17188-13.501Q7.16797-14.8633 8.52539-15.8594Q9.88281-16.8555 11.5186-17.4023Q13.1543-17.9492 14.9609-17.9492Q16.7773-17.9492 18.4131-17.4023Q20.0488-16.8555 21.4111-15.8594Q22.7734-14.8633 23.7744-13.501Q24.7754-12.1387 25.3223-10.5029Q25.8691-8.86719 25.8691-7.05078Q25.8691-5.24414 25.3223-3.6084Q24.7754-1.97266 23.7793-0.610352Q22.7832 0.751953 21.4209 1.74805Q20.0586 2.74414 18.4229 3.2959Q16.7871 3.84766 14.9707 3.84766ZM9.19922-7.05078Q9.19922-6.66992 9.45801-6.4209Q9.7168-6.17188 10.1172-6.17188L14.0625-6.17188L14.0625-2.2168Q14.0625-1.81641 14.3115-1.55762Q14.5605-1.29883 14.9512-1.29883Q15.3516-1.29883 15.6104-1.55273Q15.8691-1.80664 15.8691-2.2168L15.8691-6.17188L19.8242-6.17188Q20.2246-6.17188 20.4785-6.4209Q20.7324-6.66992 20.7324-7.05078Q20.7324-7.46094 20.4785-7.71484Q20.2246-7.96875 19.8242-7.96875L15.8691-7.96875L15.8691-11.9141Q15.8691-12.3242 15.6104-12.583Q15.3516-12.8418 14.9512-12.8418Q14.5605-12.8418 14.3115-12.583Q14.0625-12.3242 14.0625-11.9141L14.0625-7.96875L10.1172-7.96875Q9.70703-7.96875 9.45312-7.71484Q9.19922-7.46094 9.19922-7.05078Z"/>
  </g>
  <text style="stroke:none;fill:black;font-family:sans-serif;font-size:13;font-weight:bold;" transform="matrix(1 0 0 1 263 1953)">Design Variations</text>
  <text style="stroke:none;fill:black;font-family:sans-serif;font-size:13;" transform="matrix(1 0 0 1 263 1971)">Symbols are supported in up to nine weights and three scales.</text>
  <text style="stroke:none;fill:black;font-family:sans-serif;font-size:13;" transform="matrix(1 0 0 1 263 1989)">For optimal layout with text and other symbols, vertically align</text>
  <text style="stroke:none;fill:black;font-family:sans-serif;font-size:13;" transform="matrix(1 0 0 1 263 2007)">symbols with the adjacent text.</text>
  <line style="fill:none;stroke:#00AEEF;stroke-width:0.5;opacity:1.0;" x1="776" x2="776" y1="1919" y2="1933"/>
  <g transform="matrix(1 0 0 1 776 1933)">
   <path d="M3.31055 0.15625Q3.70117 0.15625 3.91602-0.00976562Q4.13086-0.175781 4.26758-0.585938L5.52734-4.0332L11.2891-4.0332L12.5488-0.585938Q12.6855-0.175781 12.9004-0.00976562Q13.1152 0.15625 13.4961 0.15625Q13.8867 0.15625 14.1162-0.0585938Q14.3457-0.273438 14.3457-0.644531Q14.3457-0.869141 14.2383-1.17188L9.6582-13.3691Q9.48242-13.8184 9.17969-14.043Q8.87695-14.2676 8.4082-14.2676Q7.5-14.2676 7.17773-13.3789L2.59766-1.16211Q2.49023-0.859375 2.49023-0.634766Q2.49023-0.263672 2.70996-0.0537109Q2.92969 0.15625 3.31055 0.15625ZM6.00586-5.51758L8.37891-12.0898L8.42773-12.0898L10.8008-5.51758Z"/>
  </g>
  <line style="fill:none;stroke:#00AEEF;stroke-width:0.5;opacity:1.0;" x1="793.197" x2="793.197" y1="1919" y2="1933"/>
  <text style="stroke:none;fill:black;font-family:sans-serif;font-size:13;font-weight:bold;" transform="matrix(1 0 0 1 776 1953)">Margins</text>
  <text style="stroke:none;fill:black;font-family:sans-serif;font-size:13;" transform="matrix(1 0 0 1 776 1971)">Leading and trailing margins on the left and right side of each symbol</text>
  <text style="stroke:none;fill:black;font-family:sans-serif;font-size:13;" transform="matrix(1 0 0 1 776 1989)">can be adjusted by modifying the x-location of the margin guidelines.</text>
  <text style="stroke:none;fill:black;font-family:sans-serif;font-size:13;" transform="matrix(1 0 0 1 776 2007)">Modifications are automatically applied proportionally to all</text>
  <text style="stroke:none;fill:black;font-family:sans-serif;font-size:13;" transform="matrix(1 0 0 1 776 2025)">scales and weights.</text>
  <g transform="matrix(1 0 0 1 1289 1933)">
   <path d="M2.8418 1.86523L4.54102 3.57422Q5.18555 4.22852 5.90332 4.17969Q6.62109 4.13086 7.31445 3.35938L18.0078-8.42773L17.041-9.4043L6.42578 2.27539Q6.16211 2.57812 5.89355 2.61719Q5.625 2.65625 5.27344 2.30469L4.10156 1.14258Q3.75 0.791016 3.79395 0.522461Q3.83789 0.253906 4.14062-0.0195312L15.6152-10.8203L14.6387-11.7871L3.04688-0.898438Q2.30469-0.214844 2.25098 0.498047Q2.19727 1.21094 2.8418 1.86523ZM9.25781-16.3281Q8.94531-16.0254 8.90625-15.6348Q8.86719-15.2441 9.04297-14.9512Q9.21875-14.6777 9.55566-14.541Q9.89258-14.4043 10.3809-14.5215Q11.4746-14.7754 12.5977-14.7314Q13.7207-14.6875 14.7949-13.9844L14.209-12.5293Q13.9551-11.9043 14.0674-11.4404Q14.1797-10.9766 14.5801-10.5664L16.875-8.25195Q17.2363-7.88086 17.5781-7.82227Q17.9199-7.76367 18.3398-7.8418L19.4043-8.03711L20.0684-7.36328L20.0293-6.80664Q20-6.43555 20.1221-6.12305Q20.2441-5.81055 20.6055-5.44922L21.3672-4.70703Q21.7285-4.3457 22.1533-4.33105Q22.5781-4.31641 22.9297-4.66797L25.8398-7.58789Q26.1914-7.93945 26.1816-8.35449Q26.1719-8.76953 25.8105-9.13086L25.0391-9.89258Q24.6875-10.2539 24.3799-10.3857Q24.0723-10.5176 23.7109-10.4883L23.1348-10.4395L22.4902-11.0742L22.7344-12.1973Q22.832-12.6172 22.6953-12.9834Q22.5586-13.3496 22.1191-13.7891L19.9219-15.9766Q18.6719-17.2168 17.2607-17.8369Q15.8496-18.457 14.4189-18.4814Q12.9883-18.5059 11.665-17.959Q10.3418-17.4121 9.25781-16.3281ZM10.752-15.957Q11.6602-16.6211 12.7002-16.9043Q13.7402-17.1875 14.8047-17.085Q15.8691-16.9824 16.8701-16.5137Q17.8711-16.0449 18.7012-15.2051L21.1328-12.793Q21.3086-12.6172 21.3525-12.4512Q21.3965-12.2852 21.3379-12.0312L21.0156-10.5469L22.5195-9.0625L23.5059-9.12109Q23.6914-9.13086 23.7891-9.09668Q23.8867-9.0625 24.0332-8.91602L24.6094-8.33984L22.168-5.89844L21.5918-6.47461Q21.4453-6.62109 21.4062-6.71875Q21.3672-6.81641 21.377-7.01172L21.4453-7.98828L19.9512-9.47266L18.4277-9.21875Q18.1836-9.16992 18.042-9.2041Q17.9004-9.23828 17.7148-9.41406L15.7129-11.416Q15.5176-11.5918 15.4932-11.7529Q15.4688-11.9141 15.5859-12.1875L16.4648-14.2773Q15.293-15.3711 13.8281-15.791Q12.3633-16.2109 10.8398-15.7617Q10.7227-15.7324 10.6885-15.8057Q10.6543-15.8789 10.752-15.957Z"/>
  </g>
  <text style="stroke:none;fill:black;font-family:sans-serif;font-size:13;font-weight:bold;" transform="matrix(1 0 0 1 1289 1953)">Exporting</text>
  <text style="stroke:none;fill:black;font-family:sans-serif;font-size:13;" transform="matrix(1 0 0 1 1289 1971)">Symbols should be outlined when exporting to ensure the</text>
  <text style="stroke:none;fill:black;font-family:sans-serif;font-size:13;" transform="matrix(1 0 0 1 1289 1989)">design is preserved when submitting to Xcode.</text>
  <text id="template-version" style="stroke:none;fill:black;font-family:sans-serif;font-size:13;text-anchor:end;" transform="matrix(1 0 0 1 3036 1933)">Template v.2.0</text>
  <text style="stroke:none;fill:black;font-family:sans-serif;font-size:13;text-anchor:end;" transform="matrix(1 0 0 1 3036 1951)">Requires Xcode 12 or greater</text>
  <text id="descriptive-name" style="stroke:none;fill:black;font-family:sans-serif;font-size:13;text-anchor:end;" transform="matrix(1 0 0 1 3036 1969)">Generated from dial.high.fill</text>
  <text style="stroke:none;fill:black;font-family:sans-serif;font-size:13;text-anchor:end;" transform="matrix(1 0 0 1 3036 1987)">Typeset at 100 points</text>
  <text style="stroke:none;fill:black;font-family:sans-serif;font-size:13;" transform="matrix(1 0 0 1 263 726)">Small</text>
  <text style="stroke:none;fill:black;font-family:sans-serif;font-size:13;" transform="matrix(1 0 0 1 263 1156)">Medium</text>
  <text style="stroke:none;fill:black;font-family:sans-serif;font-size:13;" transform="matrix(1 0 0 1 263 1586)">Large</text>
 </g>
 <g id="Guides">
  <g id="H-reference" style="fill:#27AAE1;stroke:none;" transform="matrix(1 0 0 1 339 696)">
   <path d="M0.993347 0L3.6377 0L29.3282-67.1326L30.0301-67.1326L30.0301-70.459L28.1227-70.459ZM11.6882-24.4797L46.9818-24.4797L46.2311-26.7288L12.4382-26.7288ZM55.1193 0L57.7637 0L30.6381-70.459L29.4327-70.459L29.4327-67.1326Z"/>
  </g>
  <line id="Baseline-S" style="fill:none;stroke:#27AAE1;opacity:1;stroke-width:0.5;" x1="263" x2="3036" y1="696" y2="696"/>
  <line id="Capline-S" style="fill:none;stroke:#27AAE1;opacity:1;stroke-width:0.5;" x1="263" x2="3036" y1="625.541" y2="625.541"/>
  <g id="H-reference" style="fill:#27AAE1;stroke:none;" transform="matrix(1 0 0 1 339 1126)">
   <path d="M0.993347 0L3.6377 0L29.3282-67.1326L30.0301-67.1326L30.0301-70.459L28.1227-70.459ZM11.6882-24.4797L46.9818-24.4797L46.2311-26.7288L12.4382-26.7288ZM55.1193 0L57.7637 0L30.6381-70.459L29.4327-70.459L29.4327-67.1326Z"/>
  </g>
  <line id="Baseline-M" style="fill:none;stroke:#27AAE1;opacity:1;stroke-width:0.5;" x1="263" x2="3036" y1="1126" y2="1126"/>
  <line id="Capline-M" style="fill:none;stroke:#27AAE1;opacity:1;stroke-width:0.5;" x1="263" x2="3036" y1="1055.54" y2="1055.54"/>
  <g id="H-reference" style="fill:#27AAE1;stroke:none;" transform="matrix(1 0 0 1 339 1556)">
   <path d="M0.993347 0L3.6377 0L29.3282-67.1326L30.0301-67.1326L30.0301-70.459L28.1227-70.459ZM11.6882-24.4797L46.9818-24.4797L46.2311-26.7288L12.4382-26.7288ZM55.1193 0L57.7637 0L30.6381-70.459L29.4327-70.459L29.4327-67.1326Z"/>
  </g>
  <line id="Baseline-L" style="fill:none;stroke:#27AAE1;opacity:1;stroke-width:0.5;" x1="263" x2="3036" y1="1556" y2="1556"/>
  <line id="Capline-L" style="fill:none;stroke:#27AAE1;opacity:1;stroke-width:0.5;" x1="263" x2="3036" y1="1485.54" y2="1485.54"/>
  <line id="left-margin" style="fill:none;stroke:#00AEEF;stroke-width:0.5;opacity:1.0;" x1="1382.26" x2="1382.26" y1="1030.79" y2="1150.12"/>
  <line id="right-margin" style="fill:none;stroke:#00AEEF;stroke-width:0.5;opacity:1.0;" x1="1517.43" x2="1517.43" y1="1030.79" y2="1150.12"/>
 </g>
 <g id="Symbols">
  <g id="Black-L" transform="matrix(1 0 0 1 2845.23 1556)">
   <path d="M88.1673 13.8882Q96.1221 13.8882 103.359 11.3225Q110.596 8.75689 116.505 4.19454L82.6652-27.6629Q80.3727-29.779 80.4019-32.7939Q80.4311-35.8088 82.6652-38.1209Q84.6813-40.2162 87.815-40.3044Q90.9488-40.3926 92.9857-38.1209L124.877-4.06726Q129.523-10.0124 132.159-17.3452Q134.795-24.678 134.795-32.7396Q134.795-42.3148 131.152-50.7854Q127.51-59.2559 121.086-65.6684Q114.663-72.0808 106.203-75.7235Q97.7437-79.3662 88.1673-79.3662Q78.592-79.3662 70.1215-75.7235Q61.6509-72.0808 55.2379-65.6684Q48.8249-59.2559 45.1724-50.7854Q41.5198-42.3148 41.5198-32.7396Q41.5198-23.1424 45.1724-14.6724Q48.8249-6.20247 55.2379 0.210542Q61.6509 6.62355 70.1215 10.2559Q78.592 13.8882 88.1673 13.8882ZM135.476 24.3938Q139.518 24.3938 142.306 21.5763Q145.094 18.7588 145.094 14.7966Q145.094 10.7552 142.306 7.96688Q139.518 5.17859 135.476 5.17859Q131.514 5.17859 128.697 7.96688Q125.879 10.7552 125.879 14.7966Q125.879 18.7588 128.686 21.5763Q131.493 24.3938 135.476 24.3938ZM155.437-23.1228Q159.457-23.1228 162.267-25.9403Q165.076-28.7578 165.076-32.7408Q165.076-36.7614 162.277-39.5601Q159.478-42.3588 155.437-42.3588Q151.496-42.3588 148.668-39.5705Q145.84-36.7822 145.84-32.7408Q145.84-28.7786 148.647-25.9507Q151.454-23.1228 155.437-23.1228ZM135.476-70.6162Q139.518-70.6162 142.306-73.4337Q145.094-76.2512 145.094-80.2342Q145.094-84.2548 142.306-87.0535Q139.518-89.8522 135.476-89.8522Q131.514-89.8522 128.697-87.0639Q125.879-84.2756 125.879-80.2342Q125.879-76.272 128.686-73.4441Q131.493-70.6162 135.476-70.6162ZM88.1673-90.3537Q92.1878-90.3537 94.9865-93.1608Q97.7852-95.9679 97.7852-99.9509Q97.7852-103.992 94.9969-106.781Q92.2087-109.569 88.1673-109.569Q84.2051-109.569 81.3772-106.781Q78.5493-103.992 78.5493-99.9509Q78.5493-95.9887 81.3668-93.1712Q84.1843-90.3537 88.1673-90.3537ZM40.8594-70.6578Q44.9008-70.6578 47.6891-73.4753Q50.4774-76.2928 50.4774-80.2758Q50.4774-84.2964 47.6891-87.0847Q44.9008-89.873 40.8594-89.873Q36.8961-89.873 34.0786-87.0951Q31.2611-84.3172 31.2611-80.2758Q31.2611-76.3136 34.0682-73.4857Q36.8753-70.6578 40.8594-70.6578ZM20.8976-23.1228Q24.8974-23.1228 27.6961-25.9403Q30.4948-28.7578 30.4948-32.7408Q30.4948-36.7614 27.7169-39.5601Q24.939-42.3588 20.8976-42.3588Q16.9146-42.3588 14.0867-39.5705Q11.2588-36.7822 11.2588-32.7408Q11.2588-28.7786 14.0867-25.9507Q16.9146-23.1228 20.8976-23.1228ZM40.8803 24.4146Q44.9217 24.4146 47.71 21.5971Q50.4983 18.7796 50.4983 14.7966Q50.4983 10.776 47.71 7.98769Q44.9217 5.1994 40.8803 5.1994Q36.9169 5.1994 34.0994 7.97729Q31.2819 10.7552 31.2819 14.7966Q31.2819 18.7796 34.089 21.5971Q36.8961 24.4146 40.8803 24.4146Z"/>
  </g>
  <g id="Heavy-L" transform="matrix(1 0 0 1 2548.93 1556)">
   <path d="M87.7541 14.2364Q95.8054 14.2364 103.114 11.6051Q110.422 8.97377 116.336 4.30222L82.776-27.7579Q80.7107-29.6837 80.733-32.4054Q80.7553-35.1272 82.776-37.2171Q84.5968-39.1127 87.4308-39.1824Q90.2647-39.2521 92.1158-37.2171L124.173-3.50262Q128.819-9.42569 131.457-16.7315Q134.094-24.0373 134.094-32.1038Q134.094-41.631 130.478-50.0507Q126.862-58.4705 120.476-64.8385Q114.091-71.2065 105.689-74.8224Q97.2869-78.4384 87.7541-78.4384Q78.2269-78.4384 69.8071-74.8224Q61.3874-71.2065 55.0166-64.8385Q48.6458-58.4705 45.0175-50.0507Q41.3893-41.631 41.3893-32.1038Q41.3893-22.5408 45.0175-14.1239Q48.6458-5.70689 55.0166 0.663869Q61.3874 7.03463 69.8071 10.6355Q78.2269 14.2364 87.7541 14.2364ZM135.198 24.5658Q139.032 24.5658 141.682 21.8931Q144.333 19.2205 144.333 15.4618Q144.333 11.6284 141.682 8.97799Q139.032 6.32761 135.198 6.32761Q131.44 6.32761 128.767 8.97799Q126.094 11.6284 126.094 15.4618Q126.094 19.2205 128.752 21.8931Q131.41 24.5658 135.198 24.5658ZM155.085-22.9752Q158.888-22.9752 161.569-25.6479Q164.249-28.3206 164.249-32.1094Q164.249-35.9127 161.584-38.5781Q158.918-41.2436 155.085-41.2436Q151.357-41.2436 148.669-38.5932Q145.981-35.9428 145.981-32.1094Q145.981-28.3508 148.639-25.663Q151.296-22.9752 155.085-22.9752ZM135.198-70.4748Q139.032-70.4748 141.682-73.1475Q144.333-75.8202 144.333-79.6091Q144.333-83.4123 141.682-86.0778Q139.032-88.7433 135.198-88.7433Q131.44-88.7433 128.767-86.0929Q126.094-83.4425 126.094-79.6091Q126.094-75.8504 128.752-73.1626Q131.41-70.4748 135.198-70.4748ZM87.7541-90.2861Q91.5574-90.2861 94.2228-92.9437Q96.8883-95.6013 96.8883-99.3901Q96.8883-103.224 94.2379-105.874Q91.5875-108.524 87.7541-108.524Q83.9954-108.524 81.3077-105.874Q78.6199-103.224 78.6199-99.3901Q78.6199-95.6314 81.2926-92.9587Q83.9653-90.2861 87.7541-90.2861ZM40.3154-70.5352Q44.1488-70.5352 46.7992-73.2079Q49.4496-75.8806 49.4496-79.6694Q49.4496-83.4727 46.7992-86.123Q44.1488-88.7734 40.3154-88.7734Q36.5512-88.7734 33.8785-86.1382Q31.2058-83.5029 31.2058-79.6694Q31.2058-75.9108 33.8634-73.223Q36.521-70.5352 40.3154-70.5352ZM20.4232-22.9752Q24.1963-22.9752 26.8617-25.6479Q29.5272-28.3206 29.5272-32.1094Q29.5272-35.9127 26.8919-38.5781Q24.2566-41.2436 20.4232-41.2436Q16.6343-41.2436 13.9466-38.5932Q11.2588-35.9428 11.2588-32.1094Q11.2588-28.3508 13.9466-25.663Q16.6343-22.9752 20.4232-22.9752ZM40.3456 24.596Q44.1791 24.596 46.8294 21.9233Q49.4798 19.2506 49.4798 15.4618Q49.4798 11.6585 46.8294 9.00813Q44.1791 6.35775 40.3456 6.35775Q36.5814 6.35775 33.9087 8.99306Q31.2359 11.6284 31.2359 15.4618Q31.2359 19.2506 33.8936 21.9233Q36.5512 24.596 40.3456 24.596Z"/>
  </g>
  <g id="Bold-L" transform="matrix(1 0 0 1 2253.04 1556)">
   <path d="M86.9413 14.5027Q95.1005 14.5027 102.486 11.7833Q109.872 9.0638 115.779 4.25405L82.6162-27.9553Q80.8425-29.628 80.8571-31.9736Q80.8717-34.3192 82.6162-36.1176Q84.1837-37.7525 86.6302-37.8029Q89.0766-37.8532 90.6823-36.1176L122.843-2.86294Q127.496-8.74799 130.145-16.0155Q132.794-23.2831 132.794-31.3498Q132.794-40.7856 129.22-49.1178Q125.646-57.4499 119.325-63.7455Q113.004-70.0412 104.697-73.6151Q96.3904-77.189 86.9413-77.189Q77.5053-77.189 69.1731-73.6151Q60.841-70.0412 54.5388-63.7455Q48.2366-57.4499 44.6503-49.1178Q41.064-40.7856 41.064-31.3498Q41.064-21.8626 44.6503-13.537Q48.2366-5.21138 54.5388 1.09069Q60.841 7.39275 69.1731 10.9477Q77.5053 14.5027 86.9413 14.5027ZM134.368 24.5201Q137.918 24.5201 140.381 22.0429Q142.843 19.5656 142.843 16.0828Q142.843 12.5329 140.381 10.0703Q137.918 7.60761 134.368 7.60761Q130.886 7.60761 128.408 10.0703Q125.931 12.5329 125.931 16.0828Q125.931 19.5656 128.389 22.0429Q130.847 24.5201 134.368 24.5201ZM154.11-22.8877Q157.622-22.8877 160.123-25.365Q162.624-27.8422 162.624-31.3629Q162.624-34.8749 160.142-37.3565Q157.66-39.8381 154.11-39.8381Q150.666-39.8381 148.17-37.3755Q145.673-34.9128 145.673-31.3629Q145.673-27.8803 148.132-25.384Q150.59-22.8877 154.11-22.8877ZM134.368-70.231Q137.918-70.231 140.381-72.7083Q142.843-75.1855 142.843-78.7064Q142.843-82.2182 140.381-84.6999Q137.918-87.1816 134.368-87.1816Q130.886-87.1816 128.408-84.719Q125.931-82.2563 125.931-78.7064Q125.931-75.2236 128.389-72.7273Q130.847-70.231 134.368-70.231ZM86.9413-90.0525Q90.4533-90.0525 92.9349-92.5108Q95.4165-94.9691 95.4165-98.4898Q95.4165-102.04 92.9538-104.502Q90.4912-106.965 86.9413-106.965Q83.4585-106.965 80.9623-104.502Q78.4661-102.04 78.4661-98.4898Q78.4661-95.007 80.9433-92.5297Q83.4206-90.0525 86.9413-90.0525ZM39.5275-70.307Q43.0774-70.307 45.54-72.7843Q48.0027-75.2615 48.0027-78.7822Q48.0027-82.2942 45.54-84.7569Q43.0774-87.2195 39.5275-87.2195Q36.0315-87.2195 33.5543-84.7759Q31.077-82.3323 31.077-78.7822Q31.077-75.2996 33.5354-72.8033Q35.9937-70.307 39.5275-70.307ZM19.7721-22.8877Q23.246-22.8877 25.7276-25.365Q28.2092-27.8422 28.2092-31.3629Q28.2092-34.8749 25.7656-37.3565Q23.322-39.8381 19.7721-39.8381Q16.2512-39.8381 13.755-37.3755Q11.2588-34.9128 11.2588-31.3629Q11.2588-27.8803 13.755-25.384Q16.2512-22.8877 19.7721-22.8877ZM39.5656 24.558Q43.1155 24.558 45.5781 22.0808Q48.0408 19.6035 48.0408 16.0828Q48.0408 12.5708 45.5781 10.1081Q43.1155 7.64549 39.5656 7.64549Q36.0696 7.64549 33.5923 10.0892Q31.1149 12.5329 31.1149 16.0828Q31.1149 19.6035 33.5732 22.0808Q36.0315 24.558 39.5656 24.558Z"/>
  </g>
  <g id="Semibold-L" transform="matrix(1 0 0 1 1956.89 1556)">
   <path d="M86.3809 14.6864Q94.6146 14.6864 102.053 11.9061Q109.492 9.12586 115.394 4.22083L82.506-28.0913Q80.9334-29.5896 80.9427-31.6759Q80.952-33.7622 82.506-35.3597Q83.899-36.8148 86.0783-36.8518Q88.2576-36.8888 89.6941-35.3597L121.926-2.42195Q126.584-8.2808 129.241-15.5219Q131.897-22.7631 131.897-30.83Q131.897-40.2028 128.352-48.4746Q124.807-56.7464 118.531-62.9921Q112.254-69.2378 104.013-72.7827Q95.7724-76.3277 86.3809-76.3277Q77.0078-76.3277 68.736-72.7827Q60.4643-69.2378 54.2094-62.9921Q47.9545-56.7464 44.3971-48.4746Q40.8397-40.2028 40.8397-30.83Q40.8397-21.395 44.3971-13.1324Q47.9545-4.86978 54.2094 1.38493Q60.4643 7.63964 68.736 11.163Q77.0078 14.6864 86.3809 14.6864ZM133.796 24.4886Q137.15 24.4886 139.484 22.1461Q141.817 19.8036 141.817 16.5109Q141.817 13.1565 139.484 10.8233Q137.15 8.49003 133.796 8.49003Q130.504 8.49003 128.161 10.8233Q125.819 13.1565 125.819 16.5109Q125.819 19.8036 128.139 22.1461Q130.46 24.4886 133.796 24.4886ZM153.439-22.8274Q156.75-22.8274 159.126-25.1699Q161.503-27.5124 161.503-30.8483Q161.503-34.1595 159.148-36.5144Q156.793-38.8692 153.439-38.8692Q150.19-38.8692 147.825-36.536Q145.461-34.2028 145.461-30.8483Q145.461-27.556 147.782-25.1917Q150.103-22.8274 153.439-22.8274ZM133.796-70.0629Q137.15-70.0629 139.484-72.4055Q141.817-74.748 141.817-78.0842Q141.817-81.3951 139.484-83.7501Q137.15-86.1051 133.796-86.1051Q130.504-86.1051 128.161-83.7718Q125.819-81.4386 125.819-78.0842Q125.819-74.7915 128.139-72.4272Q130.46-70.0629 133.796-70.0629ZM86.3809-89.8914Q89.6922-89.8914 92.047-92.2123Q94.4018-94.5332 94.4018-97.8691Q94.4018-101.224 92.0686-103.557Q89.7354-105.89 86.3809-105.89Q83.0883-105.89 80.7241-103.557Q78.36-101.224 78.36-97.8691Q78.36-94.5765 80.7025-92.2339Q83.0451-89.8914 86.3809-89.8914ZM38.9843-70.1497Q42.3387-70.1497 44.672-72.4922Q47.0052-74.8347 47.0052-78.1706Q47.0052-81.4818 44.672-83.8151Q42.3387-86.1483 38.9843-86.1483Q35.6733-86.1483 33.3308-83.8368Q30.9883-81.5254 30.9883-78.1706Q30.9883-74.8782 33.3092-72.514Q35.6301-70.1497 38.9843-70.1497ZM19.3232-22.8274Q22.5909-22.8274 24.9458-25.1699Q27.3006-27.5124 27.3006-30.8483Q27.3006-34.1595 24.9891-36.5144Q22.6777-38.8692 19.3232-38.8692Q15.987-38.8692 13.6229-36.536Q11.2588-34.2028 11.2588-30.8483Q11.2588-27.556 13.6229-25.1917Q15.987-22.8274 19.3232-22.8274ZM39.0278 24.5318Q42.3823 24.5318 44.7155 22.1893Q47.0487 19.8468 47.0487 16.5109Q47.0487 13.1997 44.7155 10.8665Q42.3823 8.53324 39.0278 8.53324Q35.7168 8.53324 33.3742 10.8449Q31.0315 13.1565 31.0315 16.5109Q31.0315 19.8468 33.3524 22.1893Q35.6733 24.5318 39.0278 24.5318Z"/>
  </g>
  <g id="Medium-L" transform="matrix(1 0 0 1 1660.6 1556)">
   <path d="M85.956 14.8256Q94.2461 14.8256 101.725 11.9993Q109.205 9.17292 115.103 4.19565L82.4225-28.1945Q81.0023-29.5605 81.0076-31.4502Q81.0128-33.3398 82.4225-34.785Q83.6831-36.1037 85.6598-36.1307Q87.6365-36.1576 88.9448-34.785L121.231-2.08757Q125.892-7.92655 128.555-15.1477Q131.217-22.3688 131.217-30.4358Q131.217-39.761 127.694-47.9869Q124.171-56.2129 117.928-62.4207Q111.686-68.6286 103.495-72.1516Q95.3038-75.6746 85.956-75.6746Q76.6306-75.6746 68.4046-72.1516Q60.1786-68.6286 53.9596-62.4207Q47.7406-56.2129 44.2051-47.9869Q40.6696-39.761 40.6696-30.4358Q40.6696-21.0404 44.2051-12.8256Q47.7406-4.61077 53.9596 1.60804Q60.1786 7.82685 68.4046 11.3262Q76.6306 14.8256 85.956 14.8256ZM133.362 24.4647Q136.568 24.4647 138.803 22.2244Q141.038 19.984 141.038 16.8356Q141.038 13.6293 138.803 11.3942Q136.568 9.15911 133.362 9.15911Q130.214 9.15911 127.974 11.3942Q125.733 13.6293 125.733 16.8356Q125.733 19.984 127.95 22.2244Q130.166 24.4647 133.362 24.4647ZM152.929-22.7817Q156.088-22.7817 158.371-25.022Q160.653-27.2624 160.653-30.4581Q160.653-33.6171 158.394-35.8758Q156.135-38.1345 152.929-38.1345Q149.828-38.1345 147.564-35.8994Q145.3-33.6643 145.3-30.4581Q145.3-27.31 147.517-25.0458Q149.733-22.7817 152.929-22.7817ZM133.362-69.9355Q136.568-69.9355 138.803-72.1759Q141.038-74.4162 141.038-77.6123Q141.038-80.7709 138.803-83.0298Q136.568-85.2888 133.362-85.2888Q130.214-85.2888 127.974-83.0537Q125.733-80.8186 125.733-77.6123Q125.733-74.4639 127.95-72.1997Q130.166-69.9355 133.362-69.9355ZM85.956-89.7693Q89.115-89.7693 91.3738-91.986Q93.6325-94.2028 93.6325-97.3985Q93.6325-100.605 91.3974-102.84Q89.1623-105.075 85.956-105.075Q82.8076-105.075 80.5436-102.84Q78.2796-100.605 78.2796-97.3985Q78.2796-94.25 80.52-92.0097Q82.7603-89.7693 85.956-89.7693ZM38.5724-70.0304Q41.7787-70.0304 44.0138-72.2708Q46.2489-74.5111 46.2489-77.7068Q46.2489-80.8658 44.0138-83.1009Q41.7787-85.336 38.5724-85.336Q35.4017-85.336 33.1613-83.1247Q30.921-80.9135 30.921-77.7068Q30.921-74.5588 33.1377-72.2946Q35.3544-70.0304 38.5724-70.0304ZM18.9829-22.7817Q22.0942-22.7817 24.3529-25.022Q26.6117-27.2624 26.6117-30.4581Q26.6117-33.6171 24.4004-35.8758Q22.1891-38.1345 18.9829-38.1345Q15.7868-38.1345 13.5228-35.8994Q11.2588-33.6643 11.2588-30.4581Q11.2588-27.31 13.5228-25.0458Q15.7868-22.7817 18.9829-22.7817ZM38.6201 24.512Q41.8263 24.512 44.0614 22.2716Q46.2965 20.0313 46.2965 16.8356Q46.2965 13.6766 44.0614 11.4415Q41.8263 9.20638 38.6201 9.20638Q35.4493 9.20638 33.2088 11.4178Q30.9682 13.6293 30.9682 16.8356Q30.9682 20.0313 33.185 22.2716Q35.4017 24.512 38.6201 24.512Z"/>
  </g>
  <g id="Regular-L" transform="matrix(1 0 0 1 1364.44 1556)">
   <path d="M85.4019 15.0072Q93.7655 15.0072 101.297 12.1208Q108.829 9.2343 114.722 4.1628L82.3135-28.329Q81.0922-29.5225 81.0922-31.1557Q81.0922-32.789 82.3135-34.0354Q83.4015-35.1763 85.114-35.19Q86.8265-35.2037 87.9674-34.0354L120.324-1.65142Q124.99-7.46449 127.66-14.6595Q130.331-21.8546 130.331-29.9217Q130.331-39.1846 126.836-47.3508Q123.342-55.5171 117.143-61.6756Q110.945-67.8341 102.819-71.3284Q94.6926-74.8228 85.4019-74.8228Q76.1385-74.8228 67.9723-71.3284Q59.8061-67.8341 53.6339-61.6756Q47.4617-55.5171 43.9547-47.3508Q40.4478-39.1846 40.4478-29.9217Q40.4478-20.578 43.9547-12.4255Q47.4617-4.27292 53.6339 1.89905Q59.8061 8.07102 67.9723 11.5391Q76.1385 15.0072 85.4019 15.0072ZM132.796 24.4336Q135.809 24.4336 137.916 22.3265Q140.023 20.2194 140.023 17.259Q140.023 14.246 137.916 12.1389Q135.809 10.0318 132.796 10.0318Q129.836 10.0318 127.729 12.1389Q125.622 14.246 125.622 17.259Q125.622 20.2194 127.702 22.3265Q129.783 24.4336 132.796 24.4336ZM152.265-22.722Q155.225-22.722 157.385-24.8291Q159.545-26.9362 159.545-29.9491Q159.545-32.9095 157.411-35.0429Q155.278-37.1763 152.265-37.1763Q149.357-37.1763 147.224-35.0692Q145.091-32.9621 145.091-29.9491Q145.091-26.9892 147.171-24.8556Q149.252-22.722 152.265-22.722ZM132.796-69.7693Q135.809-69.7693 137.916-71.8764Q140.023-73.9835 140.023-76.9969Q140.023-79.9568 137.916-82.0904Q135.809-84.224 132.796-84.224Q129.836-84.224 127.729-82.1169Q125.622-80.0098 125.622-76.9969Q125.622-74.0365 127.702-71.9029Q129.783-69.7693 132.796-69.7693ZM85.4019-89.6101Q88.3623-89.6101 90.4956-91.6909Q92.629-93.7717 92.629-96.7847Q92.629-99.7976 90.5219-101.905Q88.4148-104.012 85.4019-104.012Q82.4415-104.012 80.3081-101.905Q78.1747-99.7976 78.1747-96.7847Q78.1747-93.8243 80.2818-91.7172Q82.3889-89.6101 85.4019-89.6101ZM38.0352-69.8748Q41.0481-69.8748 43.1552-71.9819Q45.2623-74.089 45.2623-77.102Q45.2623-80.0624 43.1552-82.1695Q41.0481-84.2766 38.0352-84.2766Q35.0474-84.2766 32.9403-82.196Q30.8332-80.1154 30.8332-77.102Q30.8332-74.142 32.914-72.0084Q34.9948-69.8748 38.0352-69.8748ZM18.5389-22.722Q21.4463-22.722 23.5797-24.8291Q25.7131-26.9362 25.7131-29.9491Q25.7131-32.9095 23.6325-35.0429Q21.5519-37.1763 18.5389-37.1763Q15.5255-37.1763 13.3922-35.0692Q11.2588-32.9621 11.2588-29.9491Q11.2588-26.9892 13.3922-24.8556Q15.5255-22.722 18.5389-22.722ZM38.0882 24.4861Q41.1011 24.4861 43.2082 22.379Q45.3153 20.2719 45.3153 17.259Q45.3153 14.2986 43.2082 12.1915Q41.1011 10.0844 38.0882 10.0844Q35.1004 10.0844 32.9931 12.1652Q30.8857 14.246 30.8857 17.259Q30.8857 20.2719 32.9666 22.379Q35.0474 24.4861 38.0882 24.4861Z"/>
  </g>
  <g id="Light-L" transform="matrix(1 0 0 1 1070.23 1556)">
   <path d="M82.9017 14.1293Q91.2654 14.1293 98.7781 11.1378Q106.291 8.14632 112.088 2.96034L80.2905-28.978Q79.3363-29.8851 79.3363-31.1748Q79.3363-32.4645 80.2905-33.4057Q81.1302-34.2795 82.4706-34.3026Q83.811-34.3258 84.6848-33.4057L116.449-1.59402Q121.173-7.31186 123.91-14.4497Q126.647-21.5875 126.647-29.6165Q126.647-38.6119 123.239-46.5586Q119.83-54.5054 113.794-60.5018Q107.757-66.4982 99.8508-69.9066Q91.9443-73.3151 82.9017-73.3151Q73.9055-73.3151 65.9587-69.9066Q58.012-66.4982 51.9924-60.5018Q45.9728-54.5054 42.5709-46.5586Q39.169-38.6119 39.169-29.6165Q39.169-20.5398 42.5709-12.6162Q45.9728-4.69266 51.9924 1.32652Q58.012 7.3457 65.9587 10.7375Q73.9055 14.1293 82.9017 14.1293ZM129.093 22.7351Q131.744 22.7351 133.612 20.8665Q135.481 18.998 135.481 16.381Q135.481 13.7307 133.612 11.8622Q131.744 9.99368 129.093 9.99368Q126.477 9.99368 124.609 11.8622Q122.74 13.7307 122.74 16.381Q122.74 18.998 124.592 20.8665Q126.443 22.7351 129.093 22.7351ZM148.123-23.2755Q150.74-23.2755 152.642-25.144Q154.545-27.0125 154.545-29.6628Q154.545-32.2798 152.659-34.165Q150.773-36.0501 148.123-36.0501Q145.54-36.0501 143.655-34.1816Q141.77-32.3131 141.77-29.6628Q141.77-27.0466 143.621-25.161Q145.473-23.2755 148.123-23.2755ZM129.093-69.1584Q131.744-69.1584 133.612-71.027Q135.481-72.8955 135.481-75.5466Q135.481-78.1627 133.612-80.0483Q131.744-81.9339 129.093-81.9339Q126.477-81.9339 124.609-80.0654Q122.74-78.1968 122.74-75.5466Q122.74-72.9296 124.592-71.044Q126.443-69.1584 129.093-69.1584ZM82.9017-88.4839Q85.5187-88.4839 87.4039-90.3358Q89.289-92.1877 89.289-94.838Q89.289-97.4882 87.4205-99.3568Q85.552-101.225 82.9017-101.225Q80.2847-101.225 78.3995-99.3568Q76.5144-97.4882 76.5144-94.838Q76.5144-92.221 78.3829-90.3524Q80.2514-88.4839 82.9017-88.4839ZM36.7564-69.2258Q39.4067-69.2258 41.2752-71.0943Q43.1438-72.9629 43.1438-75.6132Q43.1438-78.2301 41.2752-80.0987Q39.4067-81.9672 36.7564-81.9672Q34.0931-81.9672 32.2246-80.1157Q30.3561-78.2642 30.3561-75.6132Q30.3561-72.997 32.2079-71.1114Q34.0598-69.2258 36.7564-69.2258ZM17.6802-23.2755Q20.2631-23.2755 22.1483-25.144Q24.0335-27.0125 24.0335-29.6628Q24.0335-32.2798 22.182-34.165Q20.3305-36.0501 17.6802-36.0501Q15.0291-36.0501 13.144-34.1816Q11.2588-32.3131 11.2588-29.6628Q11.2588-27.0466 13.144-25.161Q15.0291-23.2755 17.6802-23.2755ZM36.7905 22.7684Q39.4408 22.7684 41.3093 20.8998Q43.1778 19.0313 43.1778 16.381Q43.1778 13.764 41.3093 11.8955Q39.4408 10.027 36.7905 10.027Q34.1272 10.027 32.2583 11.8789Q30.3894 13.7307 30.3894 16.381Q30.3894 19.0313 32.2412 20.8998Q34.0931 22.7684 36.7905 22.7684Z"/>
  </g>
  <g id="Thin-L" transform="matrix(1 0 0 1 776.827 1556)">
   <path d="M79.5951 12.9681Q87.9587 12.9681 95.4462 9.83773Q102.934 6.70737 108.605 1.36999L77.6149-29.8364Q77.014-30.3648 77.014-31.2Q77.014-32.0353 77.6149-32.5727Q78.1264-33.0933 78.9746-33.1289Q79.8229-33.1646 80.3434-32.5727L111.325-1.51811Q116.125-7.10999 118.95-14.1721Q121.776-21.2342 121.776-29.2127Q121.776-37.8545 118.48-45.5109Q115.185-53.1674 109.363-58.9494Q103.542-64.7314 95.9256-68.0262Q88.3094-71.321 79.5951-71.321Q70.9521-71.321 63.2956-68.0262Q55.6392-64.7314 49.8215-58.9494Q44.0038-53.1674 40.7408-45.5109Q37.4777-37.8545 37.4777-29.2127Q37.4777-20.4894 40.7408-12.8686Q44.0038-5.2478 49.8215 0.569302Q55.6392 6.3864 63.2956 9.67725Q70.9521 12.9681 79.5951 12.9681ZM124.196 20.4886Q126.367 20.4886 127.92 18.9356Q129.473 17.3826 129.473 15.2198Q129.473 13.0492 127.92 11.4962Q126.367 9.94321 124.196 9.94321Q122.035 9.94321 120.482 11.4962Q118.929 13.0492 118.929 15.2198Q118.929 17.3826 120.477 18.9356Q122.026 20.4886 124.196 20.4886ZM142.646-24.0074Q144.808-24.0074 146.37-25.5604Q147.931-27.1135 147.931-29.2841Q147.931-31.4469 146.374-33.0038Q144.816-34.5607 142.646-34.5607Q140.492-34.5607 138.935-33.0077Q137.378-31.4547 137.378-29.2841Q137.378-27.1225 138.927-25.565Q140.475-24.0074 142.646-24.0074ZM124.196-68.3505Q126.367-68.3505 127.92-69.9035Q129.473-71.4565 129.473-73.6284Q129.473-75.7899 127.92-77.3475Q126.367-78.905 124.196-78.905Q122.035-78.905 120.482-77.352Q118.929-75.799 118.929-73.6284Q118.929-71.4656 120.477-69.9081Q122.026-68.3505 124.196-68.3505ZM79.5951-86.9945Q81.7578-86.9945 83.3148-88.5436Q84.8717-90.0927 84.8717-92.2633Q84.8717-94.4339 83.3187-95.9869Q81.7657-97.5399 79.5951-97.5399Q77.4323-97.5399 75.8753-95.9869Q74.3184-94.4339 74.3184-92.2633Q74.3184-90.1005 75.8714-88.5475Q77.4244-86.9945 79.5951-86.9945ZM35.0651-68.3675Q37.2358-68.3675 38.7888-69.9205Q40.3418-71.4735 40.3418-73.6441Q40.3418-75.8069 38.7888-77.3599Q37.2358-78.9129 35.0651-78.9129Q32.831-78.9129 31.278-77.3644Q29.725-75.8159 29.725-73.6441Q29.725-71.4825 31.2741-69.925Q32.8232-68.3675 35.0651-68.3675ZM16.5445-24.0074Q18.6982-24.0074 20.2551-25.5604Q21.8121-27.1135 21.8121-29.2841Q21.8121-31.4469 20.2636-33.0038Q18.7151-34.5607 16.5445-34.5607Q14.3727-34.5607 12.8157-33.0077Q11.2588-31.4547 11.2588-29.2841Q11.2588-27.1225 12.8157-25.565Q14.3727-24.0074 16.5445-24.0074ZM35.0742 20.4965Q37.2448 20.4965 38.7978 18.9435Q40.3508 17.3905 40.3508 15.2198Q40.3508 13.0571 38.7978 11.5041Q37.2448 9.95107 35.0742 9.95107Q32.8401 9.95107 31.2865 11.5001Q29.7329 13.0492 29.7329 15.2198Q29.7329 17.3905 31.2819 18.9435Q32.831 20.4965 35.0742 20.4965Z"/>
  </g>
  <g id="Ultralight-L" transform="matrix(1 0 0 1 481.81 1556)">
   <path d="M77.9014 12.3733Q86.2651 12.3733 93.7397 9.17185Q101.214 5.97035 106.821 0.555426L76.2445-30.2761Q75.8245-30.6105 75.8245-31.213Q75.8245-31.8155 76.2445-32.1461Q76.5878-32.4857 77.184-32.5278Q77.7801-32.5699 78.1197-32.1461L108.701-1.47923Q113.539-7.00659 116.41-14.0299Q119.281-21.0533 119.281-29.0059Q119.281-37.4665 116.043-44.9743Q112.806-52.4821 107.094-58.1543Q101.383-63.8265 93.9151-67.0631Q86.4476-70.2996 77.9014-70.2996Q69.4394-70.2996 61.9316-67.0631Q54.4239-63.8265 48.7095-58.1543Q42.9952-52.4821 39.8034-44.9743Q36.6115-37.4665 36.6115-29.0059Q36.6115-20.4635 39.8034-12.9978Q42.9952-5.53213 48.7095 0.181458Q54.4239 5.89505 61.9316 9.1342Q69.4394 12.3733 77.9014 12.3733ZM121.688 19.338Q123.613 19.338 125.004 17.9466Q126.396 16.5552 126.396 14.6251Q126.396 12.7002 125.004 11.3088Q123.613 9.91736 121.688 9.91736Q119.759 9.91736 118.368 11.3088Q116.977 12.7002 116.977 14.6251Q116.977 16.5552 118.37 17.9466Q119.763 19.338 121.688 19.338ZM139.84-24.3824Q141.77-24.3824 143.157-25.7738Q144.544-27.1651 144.544-29.0901Q144.544-31.0202 143.154-32.409Q141.765-33.7978 139.84-33.7978Q137.906-33.7978 136.517-32.4065Q135.129-31.0151 135.129-29.0901Q135.129-27.1614 136.522-25.7719Q137.915-24.3824 139.84-24.3824ZM121.688-67.9367Q123.613-67.9367 125.004-69.3281Q126.396-70.7195 126.396-72.6459Q126.396-74.5746 125.004-75.9641Q123.613-77.3536 121.688-77.3536Q119.759-77.3536 118.368-75.9622Q116.977-74.5709 116.977-72.6459Q116.977-70.7158 118.37-69.3263Q119.763-67.9367 121.688-67.9367ZM77.9014-86.2316Q79.8315-86.2316 81.2203-87.6256Q82.6091-89.0196 82.6091-90.9446Q82.6091-92.8695 81.2177-94.2609Q79.8264-95.6523 77.9014-95.6523Q75.9713-95.6523 74.5825-94.2609Q73.1937-92.8695 73.1937-90.9446Q73.1937-89.0144 74.5851-87.623Q75.9764-86.2316 77.9014-86.2316ZM34.1989-67.9278Q36.1238-67.9278 37.5152-69.3192Q38.9066-70.7106 38.9066-72.6355Q38.9066-74.5657 37.5152-75.9571Q36.1238-77.3485 34.1989-77.3485Q32.1846-77.3485 30.7932-75.9552Q29.4018-74.5619 29.4018-72.6355Q29.4018-70.7068 30.7958-69.3173Q32.1897-67.9278 34.1989-67.9278ZM15.9628-24.3824Q17.8967-24.3824 19.2855-25.7738Q20.6743-27.1651 20.6743-29.0901Q20.6743-31.0202 19.281-32.409Q17.8877-33.7978 15.9628-33.7978Q14.0364-33.7978 12.6476-32.4065Q11.2588-31.0151 11.2588-29.0901Q11.2588-27.1614 12.6476-25.7719Q14.0364-24.3824 15.9628-24.3824ZM34.1951 19.3328Q36.1201 19.3328 37.5115 17.9415Q38.9029 16.5501 38.9029 14.6251Q38.9029 12.695 37.5115 11.3036Q36.1201 9.91219 34.1951 9.91219Q32.1808 9.91219 30.7887 11.3062Q29.3966 12.7002 29.3966 14.6251Q29.3966 16.5501 30.7906 17.9415Q32.1846 19.3328 34.1951 19.3328Z"/>
  </g>
  <g id="Black-M" transform="matrix(1 0 0 1 2865.08 1126)">
   <path d="M68.3232 2.40583Q74.4032 2.40583 79.9461 0.460314Q85.489-1.4852 90.0491-4.94151L63.6749-29.3735Q61.7397-31.1378 61.7683-33.6789Q61.7968-36.2201 63.6749-38.1611Q65.3711-39.9198 68.0061-40.0053Q70.6411-40.0908 72.3428-38.1611L96.8273-11.5643Q100.435-16.1763 102.485-21.8728Q104.535-27.5693 104.535-33.8055Q104.535-41.229 101.701-47.8054Q98.8675-54.3818 93.8807-59.3659Q88.894-64.3501 82.3202-67.1837Q75.7464-70.0172 68.3232-70.0172Q60.8998-70.0172 54.3234-67.1837Q47.747-64.3501 42.763-59.3659Q37.7789-54.3818 34.9425-47.8054Q32.1061-41.229 32.1061-33.8055Q32.1061-26.3769 34.9425-19.8004Q37.7789-13.2238 42.763-8.23978Q47.747-3.25575 54.3234-0.42496Q60.8998 2.40583 68.3232 2.40583ZM104.696 10.5851Q107.957 10.5851 110.203 8.31016Q112.45 6.0352 112.45 2.83714Q112.45-0.42351 110.203-2.66992Q107.957-4.91633 104.696-4.91633Q101.498-4.91633 99.2233-2.66992Q96.9483-0.42351 96.9483 2.83714Q96.9483 6.0352 99.2206 8.31016Q101.493 10.5851 104.696 10.5851ZM120.165-26.0518Q123.42-26.0518 125.672-28.3267Q127.924-30.6017 127.924-33.8053Q127.924-37.0604 125.675-39.3096Q123.425-41.5587 120.165-41.5587Q116.972-41.5587 114.695-39.3123Q112.417-37.0659 112.417-33.8053Q112.417-30.6072 114.689-28.3295Q116.961-26.0518 120.165-26.0518ZM104.696-62.6838Q107.957-62.6838 110.203-64.9587Q112.45-67.2337 112.45-70.4372Q112.45-73.6924 110.203-75.9415Q107.957-78.1907 104.696-78.1907Q101.498-78.1907 99.2233-75.9443Q96.9483-73.6979 96.9483-70.4372Q96.9483-67.2392 99.2206-64.9615Q101.493-62.6838 104.696-62.6838ZM68.3232-77.8421Q71.5784-77.8421 73.8275-80.1143Q76.0767-82.3865 76.0767-85.59Q76.0767-88.8507 73.8303-91.0971Q71.5839-93.3435 68.3232-93.3435Q65.1252-93.3435 62.8474-91.0971Q60.5697-88.8507 60.5697-85.59Q60.5697-82.392 62.8447-80.117Q65.1197-77.8421 68.3232-77.8421ZM31.9498-62.6947Q35.2105-62.6947 37.4569-64.9697Q39.7033-67.2447 39.7033-70.4482Q39.7033-73.7034 37.4569-75.9498Q35.2105-78.1962 31.9498-78.1962Q28.752-78.1962 26.4771-75.9525Q24.2021-73.7089 24.2021-70.4482Q24.2021-67.2502 26.4743-64.9725Q28.7466-62.6947 31.9498-62.6947ZM16.4816-26.0518Q19.7313-26.0518 21.9804-28.3267Q24.2296-30.6017 24.2296-33.8053Q24.2296-37.0604 21.9859-39.3096Q19.7423-41.5587 16.4816-41.5587Q13.2781-41.5587 11.0004-39.3123Q8.72266-37.0659 8.72266-33.8053Q8.72266-30.6072 11.0004-28.3295Q13.2781-26.0518 16.4816-26.0518ZM31.9553 10.5906Q35.216 10.5906 37.4624 8.31566Q39.7088 6.0407 39.7088 2.83714Q39.7088-0.418016 37.4624-2.66443Q35.216-4.91083 31.9553-4.91083Q28.7575-4.91083 26.4826-2.66717Q24.2076-0.42351 24.2076 2.83714Q24.2076 6.0407 26.4798 8.31566Q28.752 10.5906 31.9553 10.5906Z"/>
  </g>
  <g id="Heavy-M" transform="matrix(1 0 0 1 2568.54 1126)">
   <path d="M68.15 2.8272Q74.3243 2.8272 79.9388 0.827192Q85.5532-1.17281 90.1274-4.72531L63.9698-29.4066Q62.2321-31.0112 62.2539-33.2974Q62.2757-35.5837 63.9698-37.3356Q65.498-38.9238 67.8743-38.9903Q70.2506-39.0569 71.7952-37.3356L96.4969-11.0176Q100.099-15.6168 102.144-21.2922Q104.189-26.9676 104.189-33.2122Q104.189-40.6133 101.374-47.1603Q98.5587-53.7072 93.5937-58.663Q88.6286-63.6187 82.091-66.434Q75.5533-69.2493 68.15-69.2493Q60.7488-69.2493 54.2019-66.434Q47.6549-63.6187 42.698-58.663Q37.7412-53.7072 34.9188-47.1603Q32.0965-40.6133 32.0965-33.2122Q32.0965-25.7924 34.9188-19.2465Q37.7412-12.7006 42.698-7.74381Q47.6549-2.78698 54.2019 0.0201094Q60.7488 2.8272 68.15 2.8272ZM104.766 10.91Q107.857 10.91 109.991 8.75462Q112.124 6.59921 112.124 3.56843Q112.124 0.477638 109.991-1.65596Q107.857-3.78956 104.766-3.78956Q101.735-3.78956 99.5801-1.65596Q97.4247 0.477638 97.4247 3.56843Q97.4247 6.59921 99.5719 8.75462Q101.719 10.91 104.766 10.91ZM120.203-25.8564Q123.277-25.8564 125.427-28.0118Q127.577-30.1673 127.577-33.2144Q127.577-36.2888 125.435-38.4306Q123.294-40.5724 120.203-40.5724Q117.188-40.5724 115.025-38.4388Q112.861-36.3052 112.861-33.2144Q112.861-30.1837 115.008-28.0201Q117.156-25.8564 120.203-25.8564ZM104.766-62.6019Q107.857-62.6019 109.991-64.7573Q112.124-66.9128 112.124-69.96Q112.124-73.0343 109.991-75.1761Q107.857-77.318 104.766-77.318Q101.735-77.318 99.5801-75.1844Q97.4247-73.0508 97.4247-69.96Q97.4247-66.9292 99.5719-64.7656Q101.719-62.6019 104.766-62.6019ZM68.15-77.8798Q71.2244-77.8798 73.3662-80.0271Q75.508-82.1743 75.508-85.2214Q75.508-88.3122 73.3744-90.4458Q71.2408-92.5794 68.15-92.5794Q65.1192-92.5794 62.9556-90.4458Q60.792-88.3122 60.792-85.2214Q60.792-82.1907 62.9474-80.0352Q65.1028-77.8798 68.15-77.8798ZM31.536-62.6348Q34.6268-62.6348 36.7604-64.7902Q38.894-66.9456 38.894-69.9927Q38.894-73.0671 36.7604-75.2007Q34.6268-77.3343 31.536-77.3343Q28.5029-77.3343 26.3475-75.209Q24.1921-73.0836 24.1921-69.9927Q24.1921-66.962 26.3393-64.7984Q28.4865-62.6348 31.536-62.6348ZM16.0971-25.8564Q19.1551-25.8564 21.2968-28.0118Q23.4386-30.1673 23.4386-33.2144Q23.4386-36.2888 21.3133-38.4306Q19.1879-40.5724 16.0971-40.5724Q13.0499-40.5724 10.8863-38.4388Q8.72266-36.3052 8.72266-33.2144Q8.72266-30.1837 10.8863-28.0201Q13.0499-25.8564 16.0971-25.8564ZM31.5524 10.9264Q34.6432 10.9264 36.7768 8.77101Q38.9104 6.6156 38.9104 3.56843Q38.9104 0.494029 36.7768-1.63957Q34.6432-3.77317 31.5524-3.77317Q28.5194-3.77317 26.3639-1.64777Q24.2085 0.477638 24.2085 3.56843Q24.2085 6.6156 26.3557 8.77101Q28.5029 10.9264 31.5524 10.9264Z"/>
  </g>
  <g id="Bold-M" transform="matrix(1 0 0 1 2272.02 1126)">
   <path d="M67.9562 3.29856Q74.236 3.29856 79.9305 1.2376Q85.625-0.823367 90.2151-4.48346L64.2997-29.4436Q62.7829-30.8696 62.7972-32.8707Q62.8115-34.8719 64.2997-36.4122Q65.64-37.8096 67.7269-37.855Q69.8138-37.9003 71.1827-36.4122L96.1273-10.4061Q99.7226-14.991 101.763-20.6427Q103.803-26.2945 103.803-32.5484Q103.803-39.9245 101.008-46.4386Q98.2133-52.9527 93.2726-57.8766Q88.3319-62.8005 81.8346-65.5954Q75.3374-68.3902 67.9562-68.3902Q60.58-68.3902 54.0659-65.5954Q47.5518-62.8005 42.6254-57.8766Q37.6989-52.9527 34.8923-46.4386Q32.0857-39.9245 32.0857-32.5484Q32.0857-25.1385 34.8923-18.6269Q37.6989-12.1154 42.6254-7.18899Q47.5518-2.26259 54.0659 0.517983Q60.58 3.29856 67.9562 3.29856ZM104.844 11.2735Q107.745 11.2735 109.753 9.25182Q111.76 7.23014 111.76 4.38648Q111.76 1.4857 109.753-0.521706Q107.745-2.52911 104.844-2.52911Q102.001-2.52911 99.9792-0.521706Q97.9575 1.4857 97.9575 4.38648Q97.9575 7.23014 99.9648 9.25182Q101.972 11.2735 104.844 11.2735ZM120.245-25.6379Q123.118-25.6379 125.154-27.6596Q127.19-29.6813 127.19-32.5535Q127.19-35.4257 125.168-37.4474Q123.146-39.4691 120.245-39.4691Q117.43-39.4691 115.394-37.4617Q113.358-35.4543 113.358-32.5535Q113.358-29.7099 115.366-27.6739Q117.373-25.6379 120.245-25.6379ZM104.844-62.5104Q107.745-62.5104 109.753-64.5321Q111.76-66.5537 111.76-69.4261Q111.76-72.2982 109.753-74.3199Q107.745-76.3417 104.844-76.3417Q102.001-76.3417 99.9792-74.3343Q97.9575-72.3269 97.9575-69.4261Q97.9575-66.5824 99.9648-64.5464Q101.972-62.5104 104.844-62.5104ZM67.9562-77.9221Q70.8284-77.9221 72.8501-79.9295Q74.8718-81.9369 74.8718-84.8091Q74.8718-87.7099 72.8644-89.7173Q70.8569-91.7247 67.9562-91.7247Q65.1125-91.7247 63.0765-89.7173Q61.0406-87.7099 61.0406-84.8091Q61.0406-81.9655 63.0622-79.9438Q65.0839-77.9221 67.9562-77.9221ZM31.073-62.5676Q33.9738-62.5676 35.9812-64.5893Q37.9886-66.611 37.9886-69.4832Q37.9886-72.3554 35.9812-74.3628Q33.9738-76.3702 31.073-76.3702Q28.2243-76.3702 26.2026-74.3772Q24.1809-72.3841 24.1809-69.4832Q24.1809-66.6397 26.1883-64.6036Q28.1957-62.5676 31.073-62.5676ZM15.6669-25.6379Q18.5105-25.6379 20.5322-27.6596Q22.5538-29.6813 22.5538-32.5535Q22.5538-35.4257 20.5608-37.4474Q18.5677-39.4691 15.6669-39.4691Q12.7946-39.4691 10.7586-37.4617Q8.72266-35.4543 8.72266-32.5535Q8.72266-29.7099 10.7586-27.6739Q12.7946-25.6379 15.6669-25.6379ZM31.1017 11.3021Q34.0024 11.3021 36.0099 9.2804Q38.0173 7.25872 38.0173 4.38648Q38.0173 1.51428 36.0099-0.493125Q34.0024-2.50053 31.1017-2.50053Q28.2529-2.50053 26.2312-0.507415Q24.2095 1.4857 24.2095 4.38648Q24.2095 7.25872 26.2169 9.2804Q28.2243 11.3021 31.1017 11.3021Z"/>
  </g>
  <g id="Semibold-M" transform="matrix(1 0 0 1 1975.44 1126)">
   <path d="M67.8226 3.62352Q74.1751 3.62352 79.9248 1.52053Q85.6745-0.582461 90.2755-4.31673L64.5272-29.469Q63.1627-30.7719 63.1717-32.5765Q63.1808-34.3811 64.5272-35.7756Q65.7378-37.0415 67.6252-37.0722Q69.5127-37.103 70.7604-35.7756L95.8725-9.98449Q99.4633-14.5596 101.5-20.195Q103.537-25.8304 103.537-32.0908Q103.537-39.4497 100.756-45.9411Q97.9752-52.4325 93.0512-57.3345Q88.1273-62.2364 81.6579-65.0172Q75.1886-67.798 67.8226-67.798Q60.4636-67.798 53.9722-65.0172Q47.4808-62.2364 42.5753-57.3345Q37.6698-52.4325 34.874-45.9411Q32.0783-39.4497 32.0783-32.0908Q32.0783-24.6877 34.874-18.1998Q37.6698-11.7119 42.5753-6.8065Q47.4808-1.90109 53.9722 0.861214Q60.4636 3.62352 67.8226 3.62352ZM104.898 11.5241Q107.668 11.5241 109.589 9.59458Q111.509 7.66509 111.509 4.95044Q111.509 2.18065 109.589 0.260244Q107.668-1.66017 104.898-1.66017Q102.184-1.66017 100.254 0.260244Q98.3248 2.18065 98.3248 4.95044Q98.3248 7.66509 100.236 9.59458Q102.147 11.5241 104.898 11.5241ZM120.275-25.4873Q123.008-25.4873 124.965-27.4167Q126.922-29.3462 126.922-32.0979Q126.922-34.8307 124.983-36.7696Q123.045-38.7085 120.275-38.7085Q117.597-38.7085 115.649-36.7881Q113.701-34.8677 113.701-32.0979Q113.701-29.3833 115.612-27.4353Q117.523-25.4873 120.275-25.4873ZM104.898-62.4473Q107.668-62.4473 109.589-64.3768Q111.509-66.3063 111.509-69.058Q111.509-71.7907 109.589-73.7297Q107.668-75.6686 104.898-75.6686Q102.184-75.6686 100.254-73.7482Q98.3248-71.8278 98.3248-69.058Q98.3248-66.3434 100.236-64.3953Q102.147-62.4473 104.898-62.4473ZM67.8226-77.9512Q70.5554-77.9512 72.4943-79.8622Q74.4332-81.7732 74.4332-84.5249Q74.4332-87.2946 72.5128-89.2151Q70.5923-91.1355 67.8226-91.1355Q65.1079-91.1355 63.1599-89.2151Q61.2119-87.2946 61.2119-84.5249Q61.2119-81.8102 63.1414-79.8807Q65.0709-77.9512 67.8226-77.9512ZM30.7538-62.5214Q33.5236-62.5214 35.444-64.4509Q37.3644-66.3803 37.3644-69.132Q37.3644-71.8648 35.444-73.7852Q33.5236-75.7056 30.7538-75.7056Q28.0321-75.7056 26.1027-73.8037Q24.1732-71.9019 24.1732-69.132Q24.1732-66.4174 26.0842-64.4694Q27.9952-62.5214 30.7538-62.5214ZM15.3704-25.4873Q18.0661-25.4873 20.005-27.4167Q21.9439-29.3462 21.9439-32.0979Q21.9439-34.8307 20.042-36.7696Q18.1402-38.7085 15.3704-38.7085Q12.6186-38.7085 10.6706-36.7881Q8.72266-34.8677 8.72266-32.0979Q8.72266-29.3833 10.6706-27.4353Q12.6186-25.4873 15.3704-25.4873ZM30.7909 11.5611Q33.5607 11.5611 35.4811 9.63157Q37.4015 7.70208 37.4015 4.95044Q37.4015 2.21764 35.4811 0.297229Q33.5607-1.62318 30.7909-1.62318Q28.0692-1.62318 26.1397 0.278737Q24.2101 2.18065 24.2101 4.95044Q24.2101 7.70208 26.1211 9.63157Q28.0321 11.5611 30.7909 11.5611Z"/>
  </g>
  <g id="Medium-M" transform="matrix(1 0 0 1 1678.83 1126)">
   <path d="M67.7213 3.86991Q74.129 3.86991 79.9205 1.73506Q85.712-0.399795 90.3213-4.19031L64.6996-29.4884Q63.4506-30.6979 63.4557-32.3535Q63.4609-34.009 64.6996-35.2929Q65.812-36.4591 67.5482-36.4787Q69.2843-36.4984 70.4402-35.2929L95.6793-9.66482Q99.2667-14.2324 101.301-19.8555Q103.335-25.4786 103.335-31.7439Q103.335-39.0896 100.565-45.5639Q97.7946-52.0381 92.8834-56.9234Q87.9721-61.8087 81.5239-64.5788Q75.0757-67.349 67.7213-67.349Q60.3753-67.349 53.9011-64.5788Q47.4269-61.8087 42.5373-56.9234Q37.6477-52.0381 34.8602-45.5639Q32.0726-39.0896 32.0726-31.7439Q32.0726-24.3459 34.8602-17.876Q37.6477-11.406 42.5373-6.51648Q47.4269-1.62698 53.9011 1.12147Q60.3753 3.86991 67.7213 3.86991ZM104.939 11.7141Q107.61 11.7141 109.464 9.85448Q111.319 7.99489 111.319 5.37806Q111.319 2.7076 109.464 0.853151Q107.61-1.00129 104.939-1.00129Q102.323-1.00129 100.463 0.853151Q98.6033 2.7076 98.6033 5.37806Q98.6033 7.99489 100.441 9.85448Q102.279 11.7141 104.939 11.7141ZM120.297-25.373Q122.924-25.373 124.822-27.2326Q126.72-29.0922 126.72-31.7524Q126.72-34.3795 124.844-36.2556Q122.967-38.1317 120.297-38.1317Q117.724-38.1317 115.842-36.2773Q113.961-34.4229 113.961-31.7524Q113.961-29.1357 115.799-27.2544Q117.637-25.373 120.297-25.373ZM104.939-62.3994Q107.61-62.3994 109.464-64.259Q111.319-66.1186 111.319-68.7789Q111.319-71.4059 109.464-73.2821Q107.61-75.1583 104.939-75.1583Q102.323-75.1583 100.463-73.3038Q98.6033-71.4494 98.6033-68.7789Q98.6033-66.1621 100.441-64.2808Q102.279-62.3994 104.939-62.3994ZM67.7213-77.9733Q70.3484-77.9733 72.2245-79.8112Q74.1006-81.6491 74.1006-84.3093Q74.1006-86.9798 72.2462-88.8342Q70.3917-90.6887 67.7213-90.6887Q65.1044-90.6887 63.2232-88.8342Q61.3419-86.9798 61.3419-84.3093Q61.3419-81.6925 63.2015-79.8329Q65.0611-77.9733 67.7213-77.9733ZM30.5118-62.4863Q33.1823-62.4863 35.0367-64.3459Q36.8912-66.2054 36.8912-68.8656Q36.8912-71.4927 35.0367-73.3472Q33.1823-75.2016 30.5118-75.2016Q27.8865-75.2016 26.0269-73.3689Q24.1673-71.5363 24.1673-68.8656Q24.1673-66.249 26.0052-64.3676Q27.8431-62.4863 30.5118-62.4863ZM15.1455-25.373Q17.7291-25.373 19.6052-27.2326Q21.4814-29.0922 21.4814-31.7524Q21.4814-34.3795 19.6487-36.2556Q17.816-38.1317 15.1455-38.1317Q12.4852-38.1317 10.6039-36.2773Q8.72266-34.4229 8.72266-31.7524Q8.72266-29.1357 10.6039-27.2544Q12.4852-25.373 15.1455-25.373ZM30.5553 11.7574Q33.2258 11.7574 35.0802 9.89784Q36.9347 8.03825 36.9347 5.37806Q36.9347 2.75095 35.0802 0.896508Q33.2258-0.957937 30.5553-0.957937Q27.93-0.957937 26.0703 0.87483Q24.2107 2.7076 24.2107 5.37806Q24.2107 8.03825 26.0486 9.89784Q27.8865 11.7574 30.5553 11.7574Z"/>
  </g>
  <g id="Regular-M" transform="matrix(1 0 0 1 1382.26 1126)">
   <path d="M67.5891 4.19129Q74.0688 4.19129 79.9149 2.01488Q85.761-0.161536 90.381-4.02541L64.9246-29.5136Q63.8261-30.6014 63.8261-32.0625Q63.8261-33.5236 64.9246-34.6633Q65.9088-35.6994 67.4477-35.7046Q68.9865-35.7098 70.0226-34.6633L95.4274-9.24786Q99.0103-13.8058 101.041-19.4127Q103.072-25.0196 103.072-31.2913Q103.072-38.62 100.315-45.0718Q97.5591-51.5236 92.6644-56.3872Q87.7698-61.2508 81.3491-64.0071Q74.9285-66.7633 67.5891-66.7633Q60.2602-66.7633 53.8084-64.0071Q47.3566-61.2508 42.4878-56.3872Q37.6189-51.5236 34.8421-45.0718Q32.0653-38.62 32.0653-31.2913Q32.0653-23.9001 34.8421-17.4535Q37.6189-11.0069 42.4878-6.1382Q47.3566-1.26944 53.8084 1.46093Q60.2602 4.19129 67.5891 4.19129ZM104.993 11.9619Q107.533 11.9619 109.302 10.1935Q111.07 8.42507 111.07 5.93583Q111.07 3.39491 109.302 1.62651Q107.533-0.141896 104.993-0.141896Q102.503-0.141896 100.735 1.62651Q98.9666 3.39491 98.9666 5.93583Q98.9666 8.42507 100.709 10.1935Q102.452 11.9619 104.993 11.9619ZM120.326-25.224Q122.815-25.224 124.635-26.9924Q126.456-28.7608 126.456-31.3018Q126.456-33.791 124.661-35.5852Q122.867-37.3795 120.326-37.3795Q117.889-37.3795 116.094-35.6111Q114.3-33.8427 114.3-31.3018Q114.3-28.8127 116.043-27.0184Q117.785-25.224 120.326-25.224ZM104.993-62.337Q107.533-62.337 109.302-64.1054Q111.07-65.8738 111.07-68.4149Q111.07-70.904 109.302-72.6983Q107.533-74.4926 104.993-74.4926Q102.503-74.4926 100.735-72.7242Q98.9666-70.9558 98.9666-68.4149Q98.9666-65.9257 100.709-64.1313Q102.452-62.337 104.993-62.337ZM67.5891-78.0021Q70.0784-78.0021 71.8726-79.7447Q73.6668-81.4873 73.6668-84.0282Q73.6668-86.5691 71.8984-88.3375Q70.13-90.1059 67.5891-90.1059Q65.0999-90.1059 63.3056-88.3375Q61.5114-86.5691 61.5114-84.0282Q61.5114-81.5389 63.2798-79.7705Q65.0482-78.0021 67.5891-78.0021ZM30.1962-62.4405Q32.7371-62.4405 34.5055-64.2089Q36.2739-65.9773 36.2739-68.5182Q36.2739-71.0075 34.5055-72.7759Q32.7371-74.5443 30.1962-74.5443Q27.6965-74.5443 25.9281-72.8018Q24.1597-71.0593 24.1597-68.5182Q24.1597-66.0292 25.9022-64.2348Q27.6448-62.4405 30.1962-62.4405ZM14.8522-25.224Q17.2896-25.224 19.0839-26.9924Q20.8781-28.7608 20.8781-31.3018Q20.8781-33.791 19.1356-35.5852Q17.3931-37.3795 14.8522-37.3795Q12.3111-37.3795 10.5169-35.6111Q8.72266-33.8427 8.72266-31.3018Q8.72266-28.8127 10.5169-27.0184Q12.3111-25.224 14.8522-25.224ZM30.248 12.0135Q32.7889 12.0135 34.5573 10.2451Q36.3257 8.47674 36.3257 5.93583Q36.3257 3.44658 34.5573 1.67818Q32.7889-0.0902275 30.248-0.0902275Q27.7483-0.0902275 25.9798 1.65234Q24.2113 3.39491 24.2113 5.93583Q24.2113 8.47674 25.9539 10.2451Q27.6965 12.0135 30.248 12.0135Z"/>
  </g>
  <g id="Light-M" transform="matrix(1 0 0 1 1087.79 1126)">
   <path d="M65.3476 3.40416Q71.8273 3.40416 77.6563 1.1336Q83.4853-1.13697 88.0196-5.10347L63.1108-30.0954Q62.2519-30.9265 62.2519-32.0796Q62.2519-33.2327 63.1108-34.0986Q63.8726-34.8953 65.0778-34.909Q66.283-34.9227 67.0796-34.0986L91.954-9.1964Q95.5881-13.6689 97.6787-19.2245Q99.7694-24.7801 99.7694-31.0176Q99.7694-38.1066 97.09-44.3616Q94.4106-50.6166 89.6614-55.3349Q84.9122-60.0532 78.6883-62.7323Q72.4644-65.4115 65.3476-65.4115Q58.2582-65.4115 52.0032-62.7323Q45.7481-60.0532 41.0161-55.3349Q36.2841-50.6166 33.6015-44.3616Q30.9188-38.1066 30.9188-31.0176Q30.9188-23.8659 33.6015-17.6246Q36.2841-11.3833 41.0161-6.6515Q45.7481-1.91973 52.0032 0.742215Q58.2582 3.40416 65.3476 3.40416ZM101.673 10.4391Q103.889 10.4391 105.443 8.88456Q106.998 7.33004 106.998 5.14869Q106.998 2.93292 105.443 1.37841Q103.889-0.176107 101.673-0.176107Q99.492-0.176107 97.9375 1.37841Q96.383 2.93292 96.383 5.14869Q96.383 7.33004 97.9201 8.88456Q99.4572 10.4391 101.673 10.4391ZM116.613-25.7202Q118.794-25.7202 120.383-27.2747Q121.973-28.8293 121.973-31.045Q121.973-33.2264 120.401-34.7981Q118.829-36.3698 116.613-36.3698Q114.466-36.3698 112.895-34.8153Q111.323-33.2608 111.323-31.045Q111.323-28.8641 112.86-27.2922Q114.397-25.7202 116.613-25.7202ZM101.673-61.7893Q103.889-61.7893 105.443-63.3439Q106.998-64.8984 106.998-67.1146Q106.998-69.2955 105.443-70.8675Q103.889-72.4394 101.673-72.4394Q99.492-72.4394 97.9375-70.8849Q96.383-69.3304 96.383-67.1146Q96.383-64.9333 97.9201-63.3613Q99.4572-61.7893 101.673-61.7893ZM65.3476-76.9925Q67.5289-76.9925 69.1007-78.5298Q70.6724-80.0671 70.6724-82.2829Q70.6724-84.4986 69.1179-86.0532Q67.5634-87.6077 65.3476-87.6077Q63.1662-87.6077 61.5945-86.0532Q60.0228-84.4986 60.0228-82.2829Q60.0228-80.1015 61.5773-78.547Q63.1318-76.9925 65.3476-76.9925ZM29.0497-61.8587Q31.2655-61.8587 32.82-63.4132Q34.3745-64.9677 34.3745-67.1835Q34.3745-69.3648 32.82-70.9193Q31.2655-72.4738 29.0497-72.4738Q26.8409-72.4738 25.2864-70.9368Q23.7319-69.3997 23.7319-67.1835Q23.7319-65.0026 25.2692-63.4306Q26.8065-61.8587 29.0497-61.8587ZM14.0823-25.7202Q16.2288-25.7202 17.8005-27.2747Q19.3723-28.8293 19.3723-31.045Q19.3723-33.2264 17.8352-34.7981Q16.2981-36.3698 14.0823-36.3698Q11.8661-36.3698 10.2944-34.8153Q8.72266-33.2608 8.72266-31.045Q8.72266-28.8641 10.2944-27.2922Q11.8661-25.7202 14.0823-25.7202ZM29.0846 10.4735Q31.3003 10.4735 32.8549 8.91898Q34.4094 7.36446 34.4094 5.14869Q34.4094 2.96734 32.8549 1.41283Q31.3003-0.141687 29.0846-0.141687Q26.8758-0.141687 25.321 1.39562Q23.7663 2.93292 23.7663 5.14869Q23.7663 7.36446 25.3036 8.91898Q26.8409 10.4735 29.0846 10.4735Z"/>
  </g>
  <g id="Thin-M" transform="matrix(1 0 0 1 794.039 1126)">
   <path d="M62.383 2.36312Q68.8627 2.36312 74.6691-0.031973Q80.4754-2.42706 84.8965-6.5293L60.712-30.865Q60.1698-31.3565 60.1698-32.1022Q60.1698-32.8479 60.712-33.3519Q61.1795-33.8318 61.9434-33.8567Q62.7074-33.8817 63.1873-33.3519L87.3601-9.12834Q91.0619-13.4879 93.2318-18.9757Q95.4018-24.4634 95.4018-30.6556Q95.4018-37.4275 92.8241-43.4223Q90.2464-49.417 85.6896-53.9431Q81.1328-58.4692 75.1692-61.0464Q69.2056-63.6237 62.383-63.6237Q55.6103-63.6237 49.6156-61.0464Q43.6208-58.4692 39.0698-53.9431Q34.5188-49.417 31.9606-43.4223Q29.4025-37.4275 29.4025-30.6556Q29.4025-23.8206 31.9606-17.8508Q34.5188-11.881 39.0698-7.33038Q43.6208-2.77979 49.6156-0.208338Q55.6103 2.36312 62.383 2.36312ZM97.2825 8.42504Q99.0683 8.42504 100.34 7.15341Q101.612 5.88178 101.612 4.10765Q101.612 2.32191 100.34 1.05028Q99.0683-0.221353 97.2825-0.221353Q95.5092-0.221353 94.2376 1.05028Q92.966 2.32191 92.966 4.10765Q92.966 5.88178 94.2314 7.15341Q95.4968 8.42504 97.2825 8.42504ZM111.702-26.3765Q113.476-26.3765 114.76-27.6481Q116.043-28.9198 116.043-30.7055Q116.043-32.4796 114.766-33.7571Q113.488-35.0345 111.702-35.0345Q109.94-35.0345 108.663-33.7629Q107.385-32.4912 107.385-30.7055Q107.385-28.9322 108.651-27.6544Q109.916-26.3765 111.702-26.3765ZM97.2825-61.065Q99.0683-61.065 100.34-62.3367Q101.612-63.6083 101.612-65.3949Q101.612-67.1682 100.34-68.446Q99.0683-69.7239 97.2825-69.7239Q95.5092-69.7239 94.2376-68.4522Q92.966-67.1806 92.966-65.3949Q92.966-63.6207 94.2314-62.3429Q95.4968-61.065 97.2825-61.065ZM62.383-75.6572Q64.1571-75.6572 65.4346-76.923Q66.712-78.1888 66.712-79.9745Q66.712-81.7603 65.4404-83.0319Q64.1688-84.3035 62.383-84.3035Q60.6089-84.3035 59.3314-83.0319Q58.054-81.7603 58.054-79.9745Q58.054-78.2004 59.3256-76.9288Q60.5973-75.6572 62.383-75.6572ZM27.5334-61.0891Q29.3191-61.0891 30.5907-62.3607Q31.8624-63.6323 31.8624-65.4181Q31.8624-67.1922 30.5907-68.4638Q29.3191-69.7355 27.5334-69.7355Q25.7094-69.7355 24.4377-68.4701Q23.1661-67.2047 23.1661-65.4181Q23.1661-63.6448 24.4319-62.3669Q25.6978-61.0891 27.5334-61.0891ZM13.0641-26.3765Q14.8258-26.3765 16.1032-27.6481Q17.3807-28.9198 17.3807-30.7055Q17.3807-32.4796 16.1153-33.7571Q14.8498-35.0345 13.0641-35.0345Q11.2775-35.0345 10.0001-33.7629Q8.72266-32.4912 8.72266-30.7055Q8.72266-28.9322 10.0001-27.6544Q11.2775-26.3765 13.0641-26.3765ZM27.5458 8.43665Q29.3316 8.43665 30.6032 7.16502Q31.8748 5.89339 31.8748 4.10765Q31.8748 2.33351 30.6032 1.06188Q29.3316-0.209747 27.5458-0.209747Q25.7218-0.209747 24.4498 1.05608Q23.1777 2.32191 23.1777 4.10765Q23.1777 5.89339 24.4435 7.16502Q25.7094 8.43665 27.5458 8.43665Z"/>
  </g>
  <g id="Ultralight-M" transform="matrix(1 0 0 1 498.847 1126)">
   <path d="M60.8646 1.8299Q67.3443 1.8299 73.139-0.628972Q78.9338-3.08784 83.2968-7.25961L59.4834-31.2592Q59.1033-31.5768 59.1033-32.1138Q59.1033-32.6508 59.4834-32.9694Q59.8001-33.2871 60.338-33.3178Q60.876-33.3485 61.1937-32.9694L85.0072-9.09348Q88.7436-13.3952 90.9542-18.8482Q93.1647-24.3012 93.1647-30.4702Q93.1647-37.0797 90.6391-42.9411Q88.1135-48.8026 83.6553-53.2302Q79.197-57.6579 73.3667-60.1829Q67.5364-62.708 60.8646-62.708Q54.2541-62.708 48.3926-60.1829Q42.5312-57.6579 38.0729-53.2302Q33.6146-48.8026 31.1202-42.9411Q28.6258-37.0797 28.6258-30.4702Q28.6258-23.7975 31.1202-17.9667Q33.6146-12.1359 38.0729-7.67811Q42.5312-3.22031 48.3926-0.695207Q54.2541 1.8299 60.8646 1.8299ZM95.0338 7.39346Q96.5992 7.39346 97.726 6.26672Q98.8527 5.13999 98.8527 3.57443Q98.8527 2.00895 97.726 0.882211Q96.5992-0.244528 95.0338-0.244528Q93.4692-0.244528 92.3425 0.882211Q91.2158 2.00895 91.2158 3.57443Q91.2158 5.13999 92.342 6.26672Q93.4683 7.39346 95.0338 7.39346ZM109.187-26.7126Q110.752-26.7126 111.879-27.8394Q113.006-28.9661 113.006-30.5316Q113.006-32.0971 111.879-33.2238Q110.752-34.3505 109.187-34.3505Q107.622-34.3505 106.495-33.2238Q105.369-32.0971 105.369-30.5316Q105.369-28.9671 106.495-27.8398Q107.621-26.7126 109.187-26.7126ZM95.0338-60.694Q96.5992-60.694 97.726-61.8208Q98.8527-62.9475 98.8527-64.514Q98.8527-66.0785 97.726-67.2058Q96.5992-68.333 95.0338-68.333Q93.4692-68.333 92.3425-67.2062Q91.2158-66.0795 91.2158-64.514Q91.2158-62.9485 92.342-61.8213Q93.4683-60.694 95.0338-60.694ZM60.8646-74.9732Q62.4301-74.9732 63.5568-76.1Q64.6835-77.2268 64.6835-78.7922Q64.6835-80.3577 63.5568-81.4845Q62.43-82.6112 60.8646-82.6112Q59.299-82.6112 58.1723-81.4845Q57.0456-80.3577 57.0456-78.7922Q57.0456-77.2267 58.1723-76.0999Q59.2991-74.9732 60.8646-74.9732ZM26.7567-60.6949Q28.3222-60.6949 29.4489-61.8217Q30.5757-62.9484 30.5757-64.5139Q30.5757-66.0794 29.4489-67.2062Q28.3222-68.3329 26.7567-68.3329Q25.1298-68.3329 24.0031-67.2066Q22.8763-66.0804 22.8763-64.5139Q22.8763-62.9494 24.0031-61.8221Q25.1299-60.6949 26.7567-60.6949ZM12.5426-26.7126Q14.1072-26.7126 15.2339-27.8394Q16.3606-28.9661 16.3606-30.5316Q16.3606-32.0971 15.2343-33.2238Q14.1081-34.3505 12.5426-34.3505Q10.9761-34.3505 9.84936-33.2238Q8.72266-32.0971 8.72266-30.5316Q8.72266-28.9671 9.84936-27.8398Q10.9761-26.7126 12.5426-26.7126ZM26.7577 7.39338Q28.3231 7.39338 29.4499 6.26665Q30.5766 5.13991 30.5766 3.57443Q30.5766 2.00887 29.4499 0.882132Q28.3231-0.244607 26.7577-0.244607Q25.1308-0.244607 24.0035 0.882171Q22.8763 2.00895 22.8763 3.57443Q22.8763 5.13991 24.003 6.26665Q25.1298 7.39338 26.7577 7.39338Z"/>
  </g>
  <g id="Black-S" transform="matrix(1 0 0 1 2879.93 696)">
   <path d="M53.4668-5.9082Q58.2031-5.9082 62.5244-7.42188Q66.8457-8.93555 70.4102-11.6211L49.707-30.6641Q48.1445-32.0801 48.1689-34.1309Q48.1934-36.1816 49.707-37.7441Q51.0742-39.1602 53.1982-39.2334Q55.3223-39.3066 56.6895-37.7441L75.7812-16.8457Q78.6133-20.459 80.2246-24.9268Q81.8359-29.3945 81.8359-34.2773Q81.8359-40.0879 79.6143-45.2393Q77.3926-50.3906 73.4863-54.2969Q69.5801-58.2031 64.4287-60.4248Q59.2773-62.6465 53.4668-62.6465Q47.6562-62.6465 42.5049-60.4248Q37.3535-58.2031 33.4473-54.2969Q29.541-50.3906 27.3193-45.2393Q25.0977-40.0879 25.0977-34.2773Q25.0977-28.4668 27.3193-23.3154Q29.541-18.1641 33.4473-14.2578Q37.3535-10.3516 42.5049-8.12988Q47.6562-5.9082 53.4668-5.9082ZM81.8359 0.488281Q84.4238 0.488281 86.2061-1.31836Q87.9883-3.125 87.9883-5.66406Q87.9883-8.25195 86.2061-10.0342Q84.4238-11.8164 81.8359-11.8164Q79.2969-11.8164 77.4902-10.0342Q75.6836-8.25195 75.6836-5.66406Q75.6836-3.125 77.4902-1.31836Q79.2969 0.488281 81.8359 0.488281ZM93.9453-28.125Q96.5332-28.125 98.3154-29.9316Q100.098-31.7383 100.098-34.2773Q100.098-36.8652 98.3154-38.6475Q96.5332-40.4297 93.9453-40.4297Q91.4062-40.4297 89.5996-38.6475Q87.793-36.8652 87.793-34.2773Q87.793-31.7383 89.5996-29.9316Q91.4062-28.125 93.9453-28.125ZM81.8359-56.7383Q84.4238-56.7383 86.2061-58.5449Q87.9883-60.3516 87.9883-62.8906Q87.9883-65.4785 86.2061-67.2607Q84.4238-69.043 81.8359-69.043Q79.2969-69.043 77.4902-67.2607Q75.6836-65.4785 75.6836-62.8906Q75.6836-60.3516 77.4902-58.5449Q79.2969-56.7383 81.8359-56.7383ZM53.4668-68.5547Q56.0547-68.5547 57.8369-70.3613Q59.6191-72.168 59.6191-74.707Q59.6191-77.2949 57.8369-79.0771Q56.0547-80.8594 53.4668-80.8594Q50.9277-80.8594 49.1211-79.0771Q47.3145-77.2949 47.3145-74.707Q47.3145-72.168 49.1211-70.3613Q50.9277-68.5547 53.4668-68.5547ZM25.0977-56.7383Q27.6855-56.7383 29.4678-58.5449Q31.25-60.3516 31.25-62.8906Q31.25-65.4785 29.4678-67.2607Q27.6855-69.043 25.0977-69.043Q22.5586-69.043 20.752-67.2607Q18.9453-65.4785 18.9453-62.8906Q18.9453-60.3516 20.752-58.5449Q22.5586-56.7383 25.0977-56.7383ZM12.9883-28.125Q15.5762-28.125 17.3584-29.9316Q19.1406-31.7383 19.1406-34.2773Q19.1406-36.8652 17.3584-38.6475Q15.5762-40.4297 12.9883-40.4297Q10.4492-40.4297 8.64258-38.6475Q6.83594-36.8652 6.83594-34.2773Q6.83594-31.7383 8.64258-29.9316Q10.4492-28.125 12.9883-28.125ZM25.0977 0.488281Q27.6855 0.488281 29.4678-1.31836Q31.25-3.125 31.25-5.66406Q31.25-8.25195 29.4678-10.0342Q27.6855-11.8164 25.0977-11.8164Q22.5586-11.8164 20.752-10.0342Q18.9453-8.25195 18.9453-5.66406Q18.9453-3.125 20.752-1.31836Q22.5586 0.488281 25.0977 0.488281Z"/>
  </g>
  <g id="Heavy-S" transform="matrix(1 0 0 1 2583.08 696)">
   <path d="M53.6051-5.44722Q58.4221-5.44722 62.8068-6.99547Q67.1914-8.54372 70.7789-11.2984L50.1911-30.618Q48.7669-31.9303 48.7855-33.8024Q48.8042-35.6746 50.1911-37.1103Q51.443-38.4111 53.3884-38.467Q55.3338-38.523 56.5973-37.1103L75.9426-16.3847Q78.7631-19.998 80.3629-24.4543Q81.9627-28.9105 81.9627-33.8048Q81.9627-39.6269 79.7468-44.7783Q77.5309-49.9296 73.6246-53.8301Q69.7184-57.7306 64.5728-59.9465Q59.4272-62.1625 53.6051-62.1625Q47.783-62.1625 42.6317-59.9465Q37.4803-57.7306 33.5798-53.8301Q29.6793-49.9296 27.4576-44.7783Q25.2359-39.6269 25.2359-33.8048Q25.2359-27.9712 27.4576-22.8199Q29.6793-17.6685 33.5798-13.768Q37.4803-9.86753 42.6317-7.65738Q47.783-5.44722 53.6051-5.44722ZM82.32 0.960784Q84.8041 0.960784 86.5172-0.770947Q88.2303-2.50268 88.2303-4.93802Q88.2303-7.42219 86.5172-9.13527Q84.8041-10.8484 82.32-10.8484Q79.8846-10.8484 78.1529-9.13527Q76.4212-7.42219 76.4212-4.93802Q76.4212-2.50268 78.1471-0.770947Q79.8731 0.960784 82.32 0.960784ZM94.4524-27.8945Q96.925-27.8945 98.6496-29.6262Q100.374-31.358 100.374-33.8048Q100.374-36.2775 98.6554-37.9963Q96.9366-39.7152 94.4524-39.7152Q92.0286-39.7152 90.2911-38.0021Q88.5536-36.289 88.5536-33.8048Q88.5536-31.3695 90.2796-29.632Q92.0055-27.8945 94.4524-27.8945ZM82.32-56.7383Q84.8041-56.7383 86.5172-58.47Q88.2303-60.2017 88.2303-62.6486Q88.2303-65.1213 86.5172-66.8401Q84.8041-68.5589 82.32-68.5589Q79.8846-68.5589 78.1529-66.8459Q76.4212-65.1328 76.4212-62.6486Q76.4212-60.2133 78.1471-58.4758Q79.8731-56.7383 82.32-56.7383ZM53.6051-68.716Q56.0777-68.716 57.7966-70.442Q59.5154-72.168 59.5154-74.6148Q59.5154-77.099 57.8023-78.8121Q56.0893-80.5252 53.6051-80.5252Q51.1697-80.5252 49.4323-78.8121Q47.6948-77.099 47.6948-74.6148Q47.6948-72.1795 49.4265-70.4478Q51.1582-68.716 53.6051-68.716ZM24.8902-56.7613Q27.3744-56.7613 29.0875-58.4931Q30.8005-60.2248 30.8005-62.6717Q30.8005-65.1443 29.0875-66.8574Q27.3744-68.5705 24.8902-68.5705Q22.4549-68.5705 20.7231-66.8631Q18.9914-65.1558 18.9914-62.6717Q18.9914-60.2363 20.7174-58.4988Q22.4433-56.7613 24.8902-56.7613ZM12.7578-27.8945Q15.2189-27.8945 16.9378-29.6262Q18.6566-31.358 18.6566-33.8048Q18.6566-36.2775 16.9493-37.9963Q15.242-39.7152 12.7578-39.7152Q10.3109-39.7152 8.57343-38.0021Q6.83594-36.289 6.83594-33.8048Q6.83594-31.3695 8.57343-29.632Q10.3109-27.8945 12.7578-27.8945ZM24.9017 0.972309Q27.3859 0.972309 29.099-0.759423Q30.8121-2.49115 30.8121-4.93802Q30.8121-7.41067 29.099-9.12375Q27.3859-10.8368 24.9017-10.8368Q22.4664-10.8368 20.7347-9.12951Q19.0029-7.42219 19.0029-4.93802Q19.0029-2.49115 20.7289-0.759423Q22.4549 0.972309 24.9017 0.972309Z"/>
  </g>
  <g id="Bold-S" transform="matrix(1 0 0 1 2286.22 696)">
   <path d="M53.7598-4.93164Q58.667-4.93164 63.1226-6.51855Q67.5781-8.10547 71.1914-10.9375L50.7324-30.5664Q49.4629-31.7627 49.4751-33.4351Q49.4873-35.1074 50.7324-36.4014Q51.8555-37.5732 53.6011-37.6099Q55.3467-37.6465 56.4941-36.4014L76.123-15.8691Q78.9307-19.4824 80.5176-23.9258Q82.1045-28.3691 82.1045-33.2764Q82.1045-39.1113 79.895-44.2627Q77.6855-49.4141 73.7793-53.3081Q69.873-57.2021 64.7339-59.4116Q59.5947-61.6211 53.7598-61.6211Q47.9248-61.6211 42.7734-59.4116Q37.6221-57.2021 33.728-53.3081Q29.834-49.4141 27.6123-44.2627Q25.3906-39.1113 25.3906-33.2764Q25.3906-27.417 27.6123-22.2656Q29.834-17.1143 33.728-13.2202Q37.6221-9.32617 42.7734-7.12891Q47.9248-4.93164 53.7598-4.93164ZM82.8613 1.48926Q85.2295 1.48926 86.8652-0.158691Q88.501-1.80664 88.501-4.12598Q88.501-6.49414 86.8652-8.12988Q85.2295-9.76562 82.8613-9.76562Q80.542-9.76562 78.894-8.12988Q77.2461-6.49414 77.2461-4.12598Q77.2461-1.80664 78.8818-0.158691Q80.5176 1.48926 82.8613 1.48926ZM95.0195-27.6367Q97.3633-27.6367 99.0234-29.2847Q100.684-30.9326 100.684-33.2764Q100.684-35.6201 99.0356-37.2681Q97.3877-38.916 95.0195-38.916Q92.7246-38.916 91.0645-37.2803Q89.4043-35.6445 89.4043-33.2764Q89.4043-30.957 91.04-29.2969Q92.6758-27.6367 95.0195-27.6367ZM82.8613-56.7383Q85.2295-56.7383 86.8652-58.3862Q88.501-60.0342 88.501-62.3779Q88.501-64.7217 86.8652-66.3696Q85.2295-68.0176 82.8613-68.0176Q80.542-68.0176 78.894-66.3818Q77.2461-64.7461 77.2461-62.3779Q77.2461-60.0586 78.8818-58.3984Q80.5176-56.7383 82.8613-56.7383ZM53.7598-68.8965Q56.1035-68.8965 57.7515-70.5322Q59.3994-72.168 59.3994-74.5117Q59.3994-76.8799 57.7637-78.5156Q56.1279-80.1514 53.7598-80.1514Q51.4404-80.1514 49.7803-78.5156Q48.1201-76.8799 48.1201-74.5117Q48.1201-72.1924 49.7681-70.5444Q51.416-68.8965 53.7598-68.8965ZM24.6582-56.7871Q27.0264-56.7871 28.6621-58.4351Q30.2979-60.083 30.2979-62.4268Q30.2979-64.7705 28.6621-66.4062Q27.0264-68.042 24.6582-68.042Q22.3389-68.042 20.6909-66.4185Q19.043-64.7949 19.043-62.4268Q19.043-60.1074 20.6787-58.4473Q22.3145-56.7871 24.6582-56.7871ZM12.5-27.6367Q14.8193-27.6367 16.4673-29.2847Q18.1152-30.9326 18.1152-33.2764Q18.1152-35.6201 16.4917-37.2681Q14.8682-38.916 12.5-38.916Q10.1562-38.916 8.49609-37.2803Q6.83594-35.6445 6.83594-33.2764Q6.83594-30.957 8.49609-29.2969Q10.1562-27.6367 12.5-27.6367ZM24.6826 1.51367Q27.0508 1.51367 28.6865-0.134277Q30.3223-1.78223 30.3223-4.12598Q30.3223-6.46973 28.6865-8.10547Q27.0508-9.74121 24.6826-9.74121Q22.3633-9.74121 20.7153-8.11768Q19.0674-6.49414 19.0674-4.12598Q19.0674-1.78223 20.7031-0.134277Q22.3389 1.51367 24.6826 1.51367Z"/>
  </g>
  <g id="Semibold-S" transform="matrix(1 0 0 1 1989.4 696)">
   <path d="M53.8664-4.57617Q58.8358-4.57617 63.3403-6.18975Q67.8447-7.80332 71.4758-10.6887L51.1057-30.5309Q49.9428-31.6472 49.9505-33.1818Q49.9583-34.7164 51.1057-35.9126Q52.1398-36.9956 53.7477-37.0189Q55.3556-37.0422 56.423-35.9126L76.2475-15.5137Q79.0462-19.127 80.6242-23.5614Q82.2022-27.9959 82.2022-32.912Q82.2022-38.7559 79.9972-43.9072Q77.7922-49.0586 73.8859-52.9482Q69.9797-56.8378 64.845-59.0428Q59.7103-61.2479 53.8664-61.2479Q48.0226-61.2479 42.8712-59.0428Q37.7198-56.8378 33.8302-52.9482Q29.9406-49.0586 27.7189-43.9072Q25.4973-38.7559 25.4973-32.912Q25.4973-27.0349 27.7189-21.8835Q29.9406-16.7321 33.8302-12.8425Q37.7198-8.95293 42.8712-6.76455Q48.0226-4.57617 53.8664-4.57617ZM83.2346 1.85361Q85.5228 1.85361 87.1052 0.263428Q88.6876-1.32676 88.6876-3.56611Q88.6876-5.8543 87.1052-7.43672Q85.5228-9.01914 83.2346-9.01914Q80.9952-9.01914 79.405-7.43672Q77.8148-5.8543 77.8148-3.56611Q77.8148-1.32676 79.3884 0.263428Q80.9619 1.85361 83.2346 1.85361ZM95.4105-27.459Q97.6654-27.459 99.2812-29.0492Q100.897-30.6394 100.897-32.912Q100.897-35.1669 99.2978-36.766Q97.6987-38.365 95.4105-38.365Q93.2045-38.365 91.5977-36.7826Q89.9908-35.2002 89.9908-32.912Q89.9908-30.6727 91.5644-29.0658Q93.1379-27.459 95.4105-27.459ZM83.2346-56.7383Q85.5228-56.7383 87.1052-58.3285Q88.6876-59.9187 88.6876-62.1913Q88.6876-64.4462 87.1052-66.0453Q85.5228-67.6443 83.2346-67.6443Q80.9952-67.6443 79.405-66.0619Q77.8148-64.4795 77.8148-62.1913Q77.8148-59.952 79.3884-58.3451Q80.9619-56.7383 83.2346-56.7383ZM53.8664-69.0209Q56.1213-69.0209 57.7204-70.5944Q59.3194-72.168 59.3194-74.4406Q59.3194-76.7288 57.737-78.3112Q56.1546-79.8937 53.8664-79.8937Q51.6271-79.8937 50.0202-78.3112Q48.4134-76.7288 48.4134-74.4406Q48.4134-72.2013 50.0036-70.6111Q51.5938-69.0209 53.8664-69.0209ZM24.4982-56.8049Q26.7864-56.8049 28.3688-58.3951Q29.9513-59.9853 29.9513-62.2579Q29.9513-64.5128 28.3688-66.0952Q26.7864-67.6776 24.4982-67.6776Q22.2589-67.6776 20.6687-66.1119Q19.0785-64.5461 19.0785-62.2579Q19.0785-60.0186 20.6521-58.4117Q22.2256-56.8049 24.4982-56.8049ZM12.3223-27.459Q14.5438-27.459 16.1429-29.0492Q17.742-30.6394 17.742-32.912Q17.742-35.1669 16.1762-36.766Q14.6104-38.365 12.3223-38.365Q10.0496-38.365 8.44277-36.7826Q6.83594-35.2002 6.83594-32.912Q6.83594-30.6727 8.44277-29.0658Q10.0496-27.459 12.3223-27.459ZM24.5315 1.88691Q26.8197 1.88691 28.4021 0.296729Q29.9846-1.29346 29.9846-3.56611Q29.9846-5.821 28.4021-7.40342Q26.8197-8.98584 24.5315-8.98584Q22.2922-8.98584 20.702-7.42007Q19.1118-5.8543 19.1118-3.56611Q19.1118-1.29346 20.6854 0.296729Q22.2589 1.88691 24.5315 1.88691Z"/>
  </g>
  <g id="Medium-S" transform="matrix(1 0 0 1 1692.61 696)">
   <path d="M53.9473-4.30664Q58.9639-4.30664 63.5054-5.94043Q68.0469-7.57422 71.6914-10.5L51.3887-30.5039Q50.3066-31.5596 50.311-32.9897Q50.3154-34.4199 51.3887-35.542Q52.3555-36.5576 53.8589-36.5708Q55.3623-36.584 56.3691-35.542L76.3418-15.2441Q79.1338-18.8574 80.7051-23.2852Q82.2764-27.7129 82.2764-32.6357Q82.2764-38.4863 80.0747-43.6377Q77.873-48.7891 73.9668-52.6753Q70.0605-56.5615 64.9292-58.7632Q59.7979-60.9648 53.9473-60.9648Q48.0967-60.9648 42.9453-58.7632Q37.7939-56.5615 33.9077-52.6753Q30.0215-48.7891 27.7998-43.6377Q25.5781-38.4863 25.5781-32.6357Q25.5781-26.7451 27.7998-21.5938Q30.0215-16.4424 33.9077-12.5562Q37.7939-8.66992 42.9453-6.48828Q48.0967-4.30664 53.9473-4.30664ZM83.5176 2.12988Q85.7451 2.12988 87.2871 0.583496Q88.8291-0.962891 88.8291-3.1416Q88.8291-5.36914 87.2871-6.91113Q85.7451-8.45312 83.5176-8.45312Q81.3389-8.45312 79.7925-6.91113Q78.2461-5.36914 78.2461-3.1416Q78.2461-0.962891 79.7725 0.583496Q81.2988 2.12988 83.5176 2.12988ZM95.707-27.3242Q97.8945-27.3242 99.4766-28.8706Q101.059-30.417 101.059-32.6357Q101.059-34.8232 99.4966-36.3853Q97.9346-37.9473 95.707-37.9473Q93.5684-37.9473 92.002-36.4053Q90.4355-34.8633 90.4355-32.6357Q90.4355-30.457 91.9619-28.8906Q93.4883-27.3242 95.707-27.3242ZM83.5176-56.7383Q85.7451-56.7383 87.2871-58.2847Q88.8291-59.8311 88.8291-62.0498Q88.8291-64.2373 87.2871-65.7993Q85.7451-67.3613 83.5176-67.3613Q81.3389-67.3613 79.7925-65.8193Q78.2461-64.2773 78.2461-62.0498Q78.2461-59.8711 79.7725-58.3047Q81.2988-56.7383 83.5176-56.7383ZM53.9473-69.1152Q56.1348-69.1152 57.6968-70.6416Q59.2588-72.168 59.2588-74.3867Q59.2588-76.6143 57.7168-78.1562Q56.1748-79.6982 53.9473-79.6982Q51.7686-79.6982 50.2021-78.1562Q48.6357-76.6143 48.6357-74.3867Q48.6357-72.208 50.1821-70.6616Q51.7285-69.1152 53.9473-69.1152ZM24.377-56.8184Q26.6045-56.8184 28.1465-58.3647Q29.6885-59.9111 29.6885-62.1299Q29.6885-64.3174 28.1465-65.8594Q26.6045-67.4014 24.377-67.4014Q22.1982-67.4014 20.6519-65.8794Q19.1055-64.3574 19.1055-62.1299Q19.1055-59.9512 20.6318-58.3848Q22.1582-56.8184 24.377-56.8184ZM12.1875-27.3242Q14.335-27.3242 15.897-28.8706Q17.459-30.417 17.459-32.6357Q17.459-34.8232 15.937-36.3853Q14.415-37.9473 12.1875-37.9473Q9.96875-37.9473 8.40234-36.4053Q6.83594-34.8633 6.83594-32.6357Q6.83594-30.457 8.40234-28.8906Q9.96875-27.3242 12.1875-27.3242ZM24.417 2.16992Q26.6445 2.16992 28.1865 0.623535Q29.7285-0.922852 29.7285-3.1416Q29.7285-5.3291 28.1865-6.87109Q26.6445-8.41309 24.417-8.41309Q22.2383-8.41309 20.6919-6.89111Q19.1455-5.36914 19.1455-3.1416Q19.1455-0.922852 20.6719 0.623535Q22.1982 2.16992 24.417 2.16992Z"/>
  </g>
  <g id="Regular-S" transform="matrix(1 0 0 1 1395.79 696)">
   <path d="M54.0527-3.95508Q59.1309-3.95508 63.7207-5.61523Q68.3105-7.27539 71.9727-10.2539L51.7578-30.4688Q50.7812-31.4453 50.7812-32.7393Q50.7812-34.0332 51.7578-35.0586Q52.6367-35.9863 54.0039-35.9863Q55.3711-35.9863 56.2988-35.0586L76.4648-14.8926Q79.248-18.5059 80.8105-22.9248Q82.373-27.3438 82.373-32.2754Q82.373-38.1348 80.1758-43.2861Q77.9785-48.4375 74.0723-52.3193Q70.166-56.2012 65.0391-58.3984Q59.9121-60.5957 54.0527-60.5957Q48.1934-60.5957 43.042-58.3984Q37.8906-56.2012 34.0088-52.3193Q30.127-48.4375 27.9053-43.2861Q25.6836-38.1348 25.6836-32.2754Q25.6836-26.3672 27.9053-21.2158Q30.127-16.0645 34.0088-12.1826Q37.8906-8.30078 43.042-6.12793Q48.1934-3.95508 54.0527-3.95508ZM83.8867 2.49023Q86.0352 2.49023 87.5244 1.00098Q89.0137-0.488281 89.0137-2.58789Q89.0137-4.73633 87.5244-6.22559Q86.0352-7.71484 83.8867-7.71484Q81.7871-7.71484 80.2979-6.22559Q78.8086-4.73633 78.8086-2.58789Q78.8086-0.488281 80.2734 1.00098Q81.7383 2.49023 83.8867 2.49023ZM96.0938-27.1484Q98.1934-27.1484 99.7314-28.6377Q101.27-30.127 101.27-32.2754Q101.27-34.375 99.7559-35.8887Q98.2422-37.4023 96.0938-37.4023Q94.043-37.4023 92.5293-35.9131Q91.0156-34.4238 91.0156-32.2754Q91.0156-30.1758 92.4805-28.6621Q93.9453-27.1484 96.0938-27.1484ZM83.8867-56.7383Q86.0352-56.7383 87.5244-58.2275Q89.0137-59.7168 89.0137-61.8652Q89.0137-63.9648 87.5244-65.4785Q86.0352-66.9922 83.8867-66.9922Q81.7871-66.9922 80.2979-65.5029Q78.8086-64.0137 78.8086-61.8652Q78.8086-59.7656 80.2734-58.252Q81.7383-56.7383 83.8867-56.7383ZM54.0527-69.2383Q56.1523-69.2383 57.666-70.7031Q59.1797-72.168 59.1797-74.3164Q59.1797-76.4648 57.6904-77.9541Q56.2012-79.4434 54.0527-79.4434Q51.9531-79.4434 50.4395-77.9541Q48.9258-76.4648 48.9258-74.3164Q48.9258-72.2168 50.415-70.7275Q51.9043-69.2383 54.0527-69.2383ZM24.2188-56.8359Q26.3672-56.8359 27.8564-58.3252Q29.3457-59.8145 29.3457-61.9629Q29.3457-64.0625 27.8564-65.5518Q26.3672-67.041 24.2188-67.041Q22.1191-67.041 20.6299-65.5762Q19.1406-64.1113 19.1406-61.9629Q19.1406-59.8633 20.6055-58.3496Q22.0703-56.8359 24.2188-56.8359ZM12.0117-27.1484Q14.0625-27.1484 15.5762-28.6377Q17.0898-30.127 17.0898-32.2754Q17.0898-34.375 15.625-35.8887Q14.1602-37.4023 12.0117-37.4023Q9.86328-37.4023 8.34961-35.9131Q6.83594-34.4238 6.83594-32.2754Q6.83594-30.1758 8.34961-28.6621Q9.86328-27.1484 12.0117-27.1484ZM24.2676 2.53906Q26.416 2.53906 27.9053 1.0498Q29.3945-0.439453 29.3945-2.58789Q29.3945-4.6875 27.9053-6.17676Q26.416-7.66602 24.2676-7.66602Q22.168-7.66602 20.6787-6.20117Q19.1895-4.73633 19.1895-2.58789Q19.1895-0.439453 20.6543 1.0498Q22.1191 2.53906 24.2676 2.53906Z"/>
  </g>
  <g id="Light-S" transform="matrix(1 0 0 1 1101.06 696)">
   <path d="M52.0699-4.65139Q57.148-4.65139 61.7227-6.39483Q66.2974-8.13828 69.8837-11.2076L50.1534-30.9835Q49.3886-31.7329 49.3886-32.7544Q49.3886-33.7758 50.1534-34.5591Q50.8354-35.275 51.9075-35.2825Q52.9795-35.29 53.6954-34.5591L73.3922-14.8471Q76.2207-18.3848 77.8362-22.7584Q79.4518-27.1319 79.4518-32.0333Q79.4518-37.6806 77.3225-42.6579Q75.1933-47.6351 71.4157-51.3884Q67.6381-55.1417 62.6853-57.2708Q57.7324-59.3999 52.0699-59.3999Q46.4223-59.3999 41.445-57.2708Q36.4677-55.1417 32.707-51.3884Q28.9462-47.6351 26.8078-42.6579Q24.6694-37.6806 24.6694-32.0333Q24.6694-26.3369 26.8078-21.3671Q28.9462-16.3973 32.707-12.6367Q36.4677-8.87604 41.445-6.76371Q46.4223-4.65139 52.0699-4.65139ZM80.9502 1.14314Q82.811 1.14314 84.111-0.156911Q85.4111-1.45696 85.4111-3.2842Q85.4111-5.14501 84.111-6.44506Q82.811-7.74511 80.9502-7.74511Q79.1232-7.74511 77.8231-6.44506Q76.5231-5.14501 76.5231-3.2842Q76.5231-1.45696 77.8062-0.156911Q79.0894 1.14314 80.9502 1.14314ZM92.809-27.5874Q94.6363-27.5874 95.97-28.8874Q97.3038-30.1875 97.3038-32.0483Q97.3038-33.8755 95.9868-35.1924Q94.6699-36.5092 92.809-36.5092Q91.0156-36.5092 89.6988-35.2091Q88.382-33.9091 88.382-32.0483Q88.382-30.2213 89.6651-28.9043Q90.9482-27.5874 92.809-27.5874ZM80.9502-56.2538Q82.811-56.2538 84.111-57.5539Q85.4111-58.8539 85.4111-60.715Q85.4111-62.542 84.111-63.8589Q82.811-65.1759 80.9502-65.1759Q79.1232-65.1759 77.8231-63.8758Q76.5231-62.5758 76.5231-60.715Q76.5231-58.8877 77.8062-57.5708Q79.0894-56.2538 80.9502-56.2538ZM52.0699-68.3451Q53.8971-68.3451 55.2139-69.6284Q56.5308-70.9117 56.5308-72.7725Q56.5308-74.6333 55.2307-75.9333Q53.9307-77.2334 52.0699-77.2334Q50.2426-77.2334 48.9258-75.9333Q47.6089-74.6333 47.6089-72.7725Q47.6089-70.9452 48.909-69.6452Q50.209-68.3451 52.0699-68.3451ZM23.2045-56.3212Q25.0654-56.3212 26.3654-57.6213Q27.6655-58.9213 27.6655-60.7821Q27.6655-62.6094 26.3654-63.9094Q25.0654-65.2095 23.2045-65.2095Q21.3623-65.2095 20.0623-63.9263Q18.7622-62.6432 18.7622-60.7821Q18.7622-58.9551 20.0455-57.6382Q21.3287-56.3212 23.2045-56.3212ZM11.3307-27.5874Q13.1241-27.5874 14.4409-28.8874Q15.7578-30.1875 15.7578-32.0483Q15.7578-33.8755 14.4746-35.1924Q13.1915-36.5092 11.3307-36.5092Q9.4696-36.5092 8.15277-35.2091Q6.83594-33.9091 6.83594-32.0483Q6.83594-30.2213 8.15277-28.9043Q9.4696-27.5874 11.3307-27.5874ZM23.2384 1.17671Q25.0992 1.17671 26.3992-0.123342Q27.6993-1.42339 27.6993-3.2842Q27.6993-5.11144 26.3992-6.41149Q25.0992-7.71154 23.2384-7.71154Q21.3961-7.71154 20.096-6.42827Q18.7958-5.14501 18.7958-3.2842Q18.7958-1.42339 20.079-0.123342Q21.3623 1.17671 23.2384 1.17671Z"/>
  </g>
  <g id="Thin-S" transform="matrix(1 0 0 1 806.975 696)">
   <path d="M49.4473-5.57231Q54.5255-5.57231 59.0802-7.42591Q63.6349-9.27951 67.121-12.4689L48.0313-31.6643Q47.5468-32.1134 47.5468-32.7744Q47.5468-33.4355 48.0313-33.8985Q48.4531-34.3342 49.1348-34.3517Q49.8165-34.3691 50.2522-33.8985L69.3285-14.7868Q72.2168-18.2247 73.9025-22.5382Q75.5881-26.8517 75.5881-31.7131Q75.5881-37.0798 73.5488-41.8269Q71.5096-46.574 67.9022-50.1572Q64.2948-53.7405 59.5722-55.7794Q54.8495-57.8184 49.4473-57.8184Q44.08-57.8184 39.3329-55.7794Q34.5859-53.7405 30.9852-50.1572Q27.3845-46.574 25.3563-41.8269Q23.328-37.0798 23.328-31.7131Q23.328-26.2969 25.3563-21.5673Q27.3845-16.8376 30.9852-13.2372Q34.5859-9.63686 39.3329-7.60459Q44.08-5.57231 49.4473-5.57231ZM77.0663-0.638506Q78.5467-0.638506 79.5965-1.68831Q80.6463-2.73812 80.6463-4.20513Q80.6463-5.68552 79.5965-6.73533Q78.5467-7.78513 77.0663-7.78513Q75.5999-7.78513 74.5501-6.73533Q73.5003-5.68552 73.5003-4.20513Q73.5003-2.73812 74.5431-1.68831Q75.5859-0.638506 77.0663-0.638506ZM88.4647-28.1679Q89.9318-28.1679 90.9952-29.2177Q92.0587-30.2675 92.0587-31.7479Q92.0587-33.2149 91.0019-34.2714Q89.9451-35.3279 88.4647-35.3279Q87.0117-35.3279 85.9552-34.2781Q84.8987-33.2283 84.8987-31.7479Q84.8987-30.2815 85.9415-29.2247Q86.9844-28.1679 88.4647-28.1679ZM77.0663-55.6131Q78.5467-55.6131 79.5965-56.6629Q80.6463-57.7127 80.6463-59.1937Q80.6463-60.6601 79.5965-61.7169Q78.5467-62.7737 77.0663-62.7737Q75.5999-62.7737 74.5501-61.7239Q73.5003-60.6741 73.5003-59.1937Q73.5003-57.7267 74.5431-56.6699Q75.5859-55.6131 77.0663-55.6131ZM49.4473-67.1639Q50.9143-67.1639 51.9708-68.207Q53.0273-69.2501 53.0273-70.7305Q53.0273-72.2109 51.9775-73.2607Q50.9277-74.3105 49.4473-74.3105Q47.9803-74.3105 46.9238-73.2607Q45.8673-72.2109 45.8673-70.7305Q45.8673-69.2635 46.9171-68.2137Q47.9669-67.1639 49.4473-67.1639ZM21.8632-55.6404Q23.3436-55.6404 24.3934-56.6902Q25.4432-57.74 25.4432-59.2204Q25.4432-60.6875 24.3934-61.7373Q23.3436-62.7871 21.8632-62.7871Q20.3613-62.7871 19.3115-61.7442Q18.2617-60.7014 18.2617-59.2204Q18.2617-57.754 19.3048-56.6972Q20.3479-55.6404 21.8632-55.6404ZM10.4299-28.1679Q11.883-28.1679 12.9395-29.2177Q13.996-30.2675 13.996-31.7479Q13.996-33.2149 12.9531-34.2714Q11.9103-35.3279 10.4299-35.3279Q8.94894-35.3279 7.89244-34.2781Q6.83594-33.2283 6.83594-31.7479Q6.83594-30.2815 7.89244-29.2247Q8.94894-28.1679 10.4299-28.1679ZM21.8772-0.625118Q23.3576-0.625118 24.4074-1.67492Q25.4572-2.72473 25.4572-4.20513Q25.4572-5.67213 24.4074-6.72194Q23.3576-7.77174 21.8772-7.77174Q20.3753-7.77174 19.3252-6.72863Q18.2751-5.68552 18.2751-4.20513Q18.2751-2.72473 19.3182-1.67492Q20.3613-0.625118 21.8772-0.625118Z"/>
  </g>
  <g id="Ultralight-S" transform="matrix(1 0 0 1 511.607 696)">
   <path d="M48.1041-6.04401Q53.1822-6.04401 57.7267-7.95403Q62.2711-9.86404 65.7059-13.1149L46.9444-32.0129Q46.6034-32.3082 46.6034-32.7847Q46.6034-33.2611 46.9444-33.5602Q47.2328-33.8524 47.7146-33.8749Q48.1964-33.8974 48.4886-33.5602L67.247-14.756Q70.166-18.1427 71.8876-22.4255Q73.6092-26.7082 73.6092-31.5491Q73.6092-36.7722 71.616-41.4013Q69.6228-46.0304 66.1026-49.5266Q62.5824-53.0228 57.9777-55.0156Q53.373-57.0084 48.1041-57.0084Q42.8802-57.0084 38.2511-55.0156Q33.622-53.0228 30.1033-49.5266Q26.5846-46.0304 24.6128-41.4013Q22.641-36.7722 22.641-31.5491Q22.641-26.2764 24.6128-21.6698Q26.5846-17.0631 30.1033-13.5448Q33.622-10.0266 38.2511-8.03528Q42.8802-6.04401 48.1041-6.04401ZM75.0771-1.55106Q76.3626-1.55106 77.2842-2.47269Q78.2059-3.39432 78.2059-4.67682Q78.2059-5.96237 77.2842-6.884Q76.3626-7.80563 75.0771-7.80563Q73.7953-7.80563 72.8737-6.884Q71.9521-5.96237 71.9521-4.67682Q71.9521-3.39432 72.8718-2.47269Q73.7915-1.55106 75.0771-1.55106ZM86.2396-28.4653Q87.5221-28.4653 88.4472-29.3869Q89.3723-30.3085 89.3723-31.5941Q89.3723-32.8766 88.4487-33.7997Q87.5252-34.7229 86.2396-34.7229Q84.9609-34.7229 84.0378-33.8013Q83.1146-32.8796 83.1146-31.5941Q83.1146-30.3123 84.0343-29.3888Q84.9541-28.4653 86.2396-28.4653ZM75.0771-55.2849Q76.3626-55.2849 77.2842-56.2065Q78.2059-57.1281 78.2059-58.4145Q78.2059-59.6962 77.2842-60.6197Q76.3626-61.5433 75.0771-61.5433Q73.7953-61.5433 72.8737-60.6216Q71.9521-59.7 71.9521-58.4145Q71.9521-57.132 72.8718-56.2084Q73.7915-55.2849 75.0771-55.2849ZM48.1041-66.5588Q49.3866-66.5588 50.3098-67.4789Q51.2329-68.399 51.2329-69.6846Q51.2329-70.9702 50.3113-71.8918Q49.3896-72.8134 48.1041-72.8134Q46.8216-72.8134 45.8984-71.8918Q44.9753-70.9702 44.9753-69.6846Q44.9753-68.4021 45.8969-67.4805Q46.8185-66.5588 48.1041-66.5588ZM21.1761-55.2917Q22.4617-55.2917 23.3833-56.2134Q24.305-57.135 24.305-58.4206Q24.305-59.7031 23.3833-60.6247Q22.4617-61.5463 21.1761-61.5463Q19.8486-61.5463 18.927-60.6266Q18.0054-59.7069 18.0054-58.4206Q18.0054-57.1388 18.9255-56.2153Q19.8456-55.2917 21.1761-55.2917ZM9.96857-28.4653Q11.2473-28.4653 12.1704-29.3869Q13.0936-30.3085 13.0936-31.5941Q13.0936-32.8766 12.1738-33.7997Q11.2541-34.7229 9.96857-34.7229Q8.68225-34.7229 7.75909-33.8013Q6.83594-32.8796 6.83594-31.5941Q6.83594-30.3123 7.75909-29.3888Q8.68225-28.4653 9.96857-28.4653ZM21.18-1.548Q22.4655-1.548 23.3871-2.46964Q24.3088-3.39127 24.3088-4.67682Q24.3088-5.95932 23.3871-6.88095Q22.4655-7.80258 21.18-7.80258Q19.8524-7.80258 18.9304-6.88248Q18.0084-5.96237 18.0084-4.67682Q18.0084-3.39127 18.9285-2.46964Q19.8486-1.548 21.18-1.548Z"/>
  </g>
 </g>
</svg>
