<?xml version="1.0" encoding="UTF-8"?>
<!--Generator: Apple Native CoreSVG 175.5-->
<!DOCTYPE svg
PUBLIC "-//W3C//DTD SVG 1.1//EN"
       "http://www.w3.org/Graphics/SVG/1.1/DTD/svg11.dtd">
<svg version="1.1" xmlns="http://www.w3.org/2000/svg" xmlns:xlink="http://www.w3.org/1999/xlink" width="3300" height="2200">
 <!--glyph: "uni10131F.medium", point size: 100.0, font version: "18.0d9e1", template writer version: "84"-->
 <g id="Notes">
  <rect height="2200" id="artboard" style="fill:white;opacity:1" width="3300" x="0" y="0"/>
  <line style="fill:none;stroke:black;opacity:1;stroke-width:0.5;" x1="263" x2="3036" y1="292" y2="292"/>
  <text style="stroke:none;fill:black;font-family:sans-serif;font-size:13;font-weight:bold;" transform="matrix(1 0 0 1 263 322)">Weight/Scale Variations</text>
  <text style="stroke:none;fill:black;font-family:sans-serif;font-size:13;text-anchor:middle;" transform="matrix(1 0 0 1 559.711 322)">Ultralight</text>
  <text style="stroke:none;fill:black;font-family:sans-serif;font-size:13;text-anchor:middle;" transform="matrix(1 0 0 1 856.422 322)">Thin</text>
  <text style="stroke:none;fill:black;font-family:sans-serif;font-size:13;text-anchor:middle;" transform="matrix(1 0 0 1 1153.13 322)">Light</text>
  <text style="stroke:none;fill:black;font-family:sans-serif;font-size:13;text-anchor:middle;" transform="matrix(1 0 0 1 1449.84 322)">Regular</text>
  <text style="stroke:none;fill:black;font-family:sans-serif;font-size:13;text-anchor:middle;" transform="matrix(1 0 0 1 1746.56 322)">Medium</text>
  <text style="stroke:none;fill:black;font-family:sans-serif;font-size:13;text-anchor:middle;" transform="matrix(1 0 0 1 2043.27 322)">Semibold</text>
  <text style="stroke:none;fill:black;font-family:sans-serif;font-size:13;text-anchor:middle;" transform="matrix(1 0 0 1 2339.98 322)">Bold</text>
  <text style="stroke:none;fill:black;font-family:sans-serif;font-size:13;text-anchor:middle;" transform="matrix(1 0 0 1 2636.69 322)">Heavy</text>
  <text style="stroke:none;fill:black;font-family:sans-serif;font-size:13;text-anchor:middle;" transform="matrix(1 0 0 1 2933.4 322)">Black</text>
  <line style="fill:none;stroke:black;opacity:1;stroke-width:0.5;" x1="263" x2="3036" y1="1903" y2="1903"/>
  <g transform="matrix(1 0 0 1 263 1933)">
   <path d="M9.24805 0.830078Q10.8691 0.830078 12.2949 0.214844Q13.7207-0.400391 14.8096-1.49414Q15.8984-2.58789 16.5186-4.01367Q17.1387-5.43945 17.1387-7.05078Q17.1387-8.66211 16.5186-10.0879Q15.8984-11.5137 14.8047-12.6074Q13.7109-13.7012 12.2852-14.3164Q10.8594-14.9316 9.23828-14.9316Q7.62695-14.9316 6.20117-14.3164Q4.77539-13.7012 3.69141-12.6074Q2.60742-11.5137 1.9873-10.0879Q1.36719-8.66211 1.36719-7.05078Q1.36719-5.43945 1.9873-4.01367Q2.60742-2.58789 3.69629-1.49414Q4.78516-0.400391 6.21094 0.214844Q7.63672 0.830078 9.24805 0.830078ZM9.24805-0.654297Q7.91992-0.654297 6.7627-1.14746Q5.60547-1.64062 4.73145-2.51953Q3.85742-3.39844 3.36426-4.56055Q2.87109-5.72266 2.87109-7.05078Q2.87109-8.37891 3.35938-9.54102Q3.84766-10.7031 4.72168-11.582Q5.5957-12.4609 6.75293-12.9541Q7.91016-13.4473 9.23828-13.4473Q10.5762-13.4473 11.7383-12.9541Q12.9004-12.4609 13.7793-11.582Q14.6582-10.7031 15.1514-9.54102Q15.6445-8.37891 15.6445-7.05078Q15.6445-5.72266 15.1514-4.56055Q14.6582-3.39844 13.7793-2.51953Q12.9004-1.64062 11.7432-1.14746Q10.5859-0.654297 9.24805-0.654297ZM5.6543-7.05078Q5.6543-6.72852 5.85938-6.52832Q6.06445-6.32812 6.40625-6.32812L8.51562-6.32812L8.51562-4.20898Q8.51562-3.88672 8.71094-3.67676Q8.90625-3.4668 9.23828-3.4668Q9.56055-3.4668 9.77051-3.67676Q9.98047-3.88672 9.98047-4.20898L9.98047-6.32812L12.0898-6.32812Q12.4219-6.32812 12.627-6.52832Q12.832-6.72852 12.832-7.05078Q12.832-7.38281 12.627-7.58789Q12.4219-7.79297 12.0898-7.79297L9.98047-7.79297L9.98047-9.90234Q9.98047-10.2344 9.77051-10.4443Q9.56055-10.6543 9.23828-10.6543Q8.90625-10.6543 8.71094-10.4443Q8.51562-10.2344 8.51562-9.90234L8.51562-7.79297L6.40625-7.79297Q6.06445-7.79297 5.85938-7.58789Q5.6543-7.38281 5.6543-7.05078Z"/>
  </g>
  <g transform="matrix(1 0 0 1 281.867 1933)">
   <path d="M11.709 2.91016Q13.75 2.91016 15.5518 2.12891Q17.3535 1.34766 18.7305-0.0292969Q20.1074-1.40625 20.8887-3.20801Q21.6699-5.00977 21.6699-7.05078Q21.6699-9.0918 20.8887-10.8936Q20.1074-12.6953 18.7305-14.0723Q17.3535-15.4492 15.5469-16.2305Q13.7402-17.0117 11.6992-17.0117Q9.6582-17.0117 7.85645-16.2305Q6.05469-15.4492 4.68262-14.0723Q3.31055-12.6953 2.5293-10.8936Q1.74805-9.0918 1.74805-7.05078Q1.74805-5.00977 2.5293-3.20801Q3.31055-1.40625 4.6875-0.0292969Q6.06445 1.34766 7.86621 2.12891Q9.66797 2.91016 11.709 2.91016ZM11.709 1.25Q9.98047 1.25 8.47656 0.605469Q6.97266-0.0390625 5.83496-1.17676Q4.69727-2.31445 4.05762-3.81836Q3.41797-5.32227 3.41797-7.05078Q3.41797-8.7793 4.05762-10.2832Q4.69727-11.7871 5.83008-12.9297Q6.96289-14.0723 8.4668-14.7119Q9.9707-15.3516 11.6992-15.3516Q13.4277-15.3516 14.9365-14.7119Q16.4453-14.0723 17.583-12.9297Q18.7207-11.7871 19.3652-10.2832Q20.0098-8.7793 20.0098-7.05078Q20.0098-5.32227 19.3701-3.81836Q18.7305-2.31445 17.5879-1.17676Q16.4453-0.0390625 14.9414 0.605469Q13.4375 1.25 11.709 1.25ZM7.17773-7.05078Q7.17773-6.69922 7.41211-6.47461Q7.64648-6.25 8.01758-6.25L10.8887-6.25L10.8887-3.36914Q10.8887-2.99805 11.1133-2.76855Q11.3379-2.53906 11.6895-2.53906Q12.0605-2.53906 12.29-2.76855Q12.5195-2.99805 12.5195-3.36914L12.5195-6.25L15.4004-6.25Q15.7715-6.25 16.001-6.47461Q16.2305-6.69922 16.2305-7.05078Q16.2305-7.42188 16.001-7.65137Q15.7715-7.88086 15.4004-7.88086L12.5195-7.88086L12.5195-10.752Q12.5195-11.1328 12.29-11.3623Q12.0605-11.5918 11.6895-11.5918Q11.3379-11.5918 11.1133-11.3574Q10.8887-11.123 10.8887-10.752L10.8887-7.88086L8.01758-7.88086Q7.63672-7.88086 7.40723-7.65137Q7.17773-7.42188 7.17773-7.05078Z"/>
  </g>
  <g transform="matrix(1 0 0 1 305.646 1933)">
   <path d="M14.9707 5.66406Q17.0605 5.66406 18.96 5.01465Q20.8594 4.36523 22.4512 3.19336Q24.043 2.02148 25.2197 0.429688Q26.3965-1.16211 27.0459-3.06641Q27.6953-4.9707 27.6953-7.05078Q27.6953-9.14062 27.0459-11.04Q26.3965-12.9395 25.2197-14.5312Q24.043-16.123 22.4512-17.2998Q20.8594-18.4766 18.9551-19.126Q17.0508-19.7754 14.9609-19.7754Q12.8711-19.7754 10.9717-19.126Q9.07227-18.4766 7.48535-17.2998Q5.89844-16.123 4.72168-14.5312Q3.54492-12.9395 2.90039-11.04Q2.25586-9.14062 2.25586-7.05078Q2.25586-4.9707 2.90527-3.06641Q3.55469-1.16211 4.72656 0.429688Q5.89844 2.02148 7.49023 3.19336Q9.08203 4.36523 10.9814 5.01465Q12.8809 5.66406 14.9707 5.66406ZM14.9707 3.84766Q13.1641 3.84766 11.5283 3.2959Q9.89258 2.74414 8.53516 1.74805Q7.17773 0.751953 6.17676-0.610352Q5.17578-1.97266 4.62891-3.6084Q4.08203-5.24414 4.08203-7.05078Q4.08203-8.86719 4.62891-10.5029Q5.17578-12.1387 6.17188-13.501Q7.16797-14.8633 8.52539-15.8594Q9.88281-16.8555 11.5186-17.4023Q13.1543-17.9492 14.9609-17.9492Q16.7773-17.9492 18.4131-17.4023Q20.0488-16.8555 21.4111-15.8594Q22.7734-14.8633 23.7744-13.501Q24.7754-12.1387 25.3223-10.5029Q25.8691-8.86719 25.8691-7.05078Q25.8691-5.24414 25.3223-3.6084Q24.7754-1.97266 23.7793-0.610352Q22.7832 0.751953 21.4209 1.74805Q20.0586 2.74414 18.4229 3.2959Q16.7871 3.84766 14.9707 3.84766ZM9.19922-7.05078Q9.19922-6.66992 9.45801-6.4209Q9.7168-6.17188 10.1172-6.17188L14.0625-6.17188L14.0625-2.2168Q14.0625-1.81641 14.3115-1.55762Q14.5605-1.29883 14.9512-1.29883Q15.3516-1.29883 15.6104-1.55273Q15.8691-1.80664 15.8691-2.2168L15.8691-6.17188L19.8242-6.17188Q20.2246-6.17188 20.4785-6.4209Q20.7324-6.66992 20.7324-7.05078Q20.7324-7.46094 20.4785-7.71484Q20.2246-7.96875 19.8242-7.96875L15.8691-7.96875L15.8691-11.9141Q15.8691-12.3242 15.6104-12.583Q15.3516-12.8418 14.9512-12.8418Q14.5605-12.8418 14.3115-12.583Q14.0625-12.3242 14.0625-11.9141L14.0625-7.96875L10.1172-7.96875Q9.70703-7.96875 9.45312-7.71484Q9.19922-7.46094 9.19922-7.05078Z"/>
  </g>
  <text style="stroke:none;fill:black;font-family:sans-serif;font-size:13;font-weight:bold;" transform="matrix(1 0 0 1 263 1953)">Design Variations</text>
  <text style="stroke:none;fill:black;font-family:sans-serif;font-size:13;" transform="matrix(1 0 0 1 263 1971)">Symbols are supported in up to nine weights and three scales.</text>
  <text style="stroke:none;fill:black;font-family:sans-serif;font-size:13;" transform="matrix(1 0 0 1 263 1989)">For optimal layout with text and other symbols, vertically align</text>
  <text style="stroke:none;fill:black;font-family:sans-serif;font-size:13;" transform="matrix(1 0 0 1 263 2007)">symbols with the adjacent text.</text>
  <line style="fill:none;stroke:#00AEEF;stroke-width:0.5;opacity:1.0;" x1="776" x2="776" y1="1919" y2="1933"/>
  <g transform="matrix(1 0 0 1 776 1933)">
   <path d="M3.31055 0.15625Q3.70117 0.15625 3.91602-0.00976562Q4.13086-0.175781 4.26758-0.585938L5.52734-4.0332L11.2891-4.0332L12.5488-0.585938Q12.6855-0.175781 12.9004-0.00976562Q13.1152 0.15625 13.4961 0.15625Q13.8867 0.15625 14.1162-0.0585938Q14.3457-0.273438 14.3457-0.644531Q14.3457-0.869141 14.2383-1.17188L9.6582-13.3691Q9.48242-13.8184 9.17969-14.043Q8.87695-14.2676 8.4082-14.2676Q7.5-14.2676 7.17773-13.3789L2.59766-1.16211Q2.49023-0.859375 2.49023-0.634766Q2.49023-0.263672 2.70996-0.0537109Q2.92969 0.15625 3.31055 0.15625ZM6.00586-5.51758L8.37891-12.0898L8.42773-12.0898L10.8008-5.51758Z"/>
  </g>
  <line style="fill:none;stroke:#00AEEF;stroke-width:0.5;opacity:1.0;" x1="793.197" x2="793.197" y1="1919" y2="1933"/>
  <text style="stroke:none;fill:black;font-family:sans-serif;font-size:13;font-weight:bold;" transform="matrix(1 0 0 1 776 1953)">Margins</text>
  <text style="stroke:none;fill:black;font-family:sans-serif;font-size:13;" transform="matrix(1 0 0 1 776 1971)">Leading and trailing margins on the left and right side of each symbol</text>
  <text style="stroke:none;fill:black;font-family:sans-serif;font-size:13;" transform="matrix(1 0 0 1 776 1989)">can be adjusted by modifying the x-location of the margin guidelines.</text>
  <text style="stroke:none;fill:black;font-family:sans-serif;font-size:13;" transform="matrix(1 0 0 1 776 2007)">Modifications are automatically applied proportionally to all</text>
  <text style="stroke:none;fill:black;font-family:sans-serif;font-size:13;" transform="matrix(1 0 0 1 776 2025)">scales and weights.</text>
  <g transform="matrix(1 0 0 1 1289 1933)">
   <path d="M2.8418 1.86523L4.54102 3.57422Q5.18555 4.22852 5.90332 4.17969Q6.62109 4.13086 7.31445 3.35938L18.0078-8.42773L17.041-9.4043L6.42578 2.27539Q6.16211 2.57812 5.89355 2.61719Q5.625 2.65625 5.27344 2.30469L4.10156 1.14258Q3.75 0.791016 3.79395 0.522461Q3.83789 0.253906 4.14062-0.0195312L15.6152-10.8203L14.6387-11.7871L3.04688-0.898438Q2.30469-0.214844 2.25098 0.498047Q2.19727 1.21094 2.8418 1.86523ZM9.25781-16.3281Q8.94531-16.0254 8.90625-15.6348Q8.86719-15.2441 9.04297-14.9512Q9.21875-14.6777 9.55566-14.541Q9.89258-14.4043 10.3809-14.5215Q11.4746-14.7754 12.5977-14.7314Q13.7207-14.6875 14.7949-13.9844L14.209-12.5293Q13.9551-11.9043 14.0674-11.4404Q14.1797-10.9766 14.5801-10.5664L16.875-8.25195Q17.2363-7.88086 17.5781-7.82227Q17.9199-7.76367 18.3398-7.8418L19.4043-8.03711L20.0684-7.36328L20.0293-6.80664Q20-6.43555 20.1221-6.12305Q20.2441-5.81055 20.6055-5.44922L21.3672-4.70703Q21.7285-4.3457 22.1533-4.33105Q22.5781-4.31641 22.9297-4.66797L25.8398-7.58789Q26.1914-7.93945 26.1816-8.35449Q26.1719-8.76953 25.8105-9.13086L25.0391-9.89258Q24.6875-10.2539 24.3799-10.3857Q24.0723-10.5176 23.7109-10.4883L23.1348-10.4395L22.4902-11.0742L22.7344-12.1973Q22.832-12.6172 22.6953-12.9834Q22.5586-13.3496 22.1191-13.7891L19.9219-15.9766Q18.6719-17.2168 17.2607-17.8369Q15.8496-18.457 14.4189-18.4814Q12.9883-18.5059 11.665-17.959Q10.3418-17.4121 9.25781-16.3281ZM10.752-15.957Q11.6602-16.6211 12.7002-16.9043Q13.7402-17.1875 14.8047-17.085Q15.8691-16.9824 16.8701-16.5137Q17.8711-16.0449 18.7012-15.2051L21.1328-12.793Q21.3086-12.6172 21.3525-12.4512Q21.3965-12.2852 21.3379-12.0312L21.0156-10.5469L22.5195-9.0625L23.5059-9.12109Q23.6914-9.13086 23.7891-9.09668Q23.8867-9.0625 24.0332-8.91602L24.6094-8.33984L22.168-5.89844L21.5918-6.47461Q21.4453-6.62109 21.4062-6.71875Q21.3672-6.81641 21.377-7.01172L21.4453-7.98828L19.9512-9.47266L18.4277-9.21875Q18.1836-9.16992 18.042-9.2041Q17.9004-9.23828 17.7148-9.41406L15.7129-11.416Q15.5176-11.5918 15.4932-11.7529Q15.4688-11.9141 15.5859-12.1875L16.4648-14.2773Q15.293-15.3711 13.8281-15.791Q12.3633-16.2109 10.8398-15.7617Q10.7227-15.7324 10.6885-15.8057Q10.6543-15.8789 10.752-15.957Z"/>
  </g>
  <text style="stroke:none;fill:black;font-family:sans-serif;font-size:13;font-weight:bold;" transform="matrix(1 0 0 1 1289 1953)">Exporting</text>
  <text style="stroke:none;fill:black;font-family:sans-serif;font-size:13;" transform="matrix(1 0 0 1 1289 1971)">Symbols should be outlined when exporting to ensure the</text>
  <text style="stroke:none;fill:black;font-family:sans-serif;font-size:13;" transform="matrix(1 0 0 1 1289 1989)">design is preserved when submitting to Xcode.</text>
  <text id="template-version" style="stroke:none;fill:black;font-family:sans-serif;font-size:13;text-anchor:end;" transform="matrix(1 0 0 1 3036 1933)">Template v.2.0</text>
  <text style="stroke:none;fill:black;font-family:sans-serif;font-size:13;text-anchor:end;" transform="matrix(1 0 0 1 3036 1951)">Requires Xcode 12 or greater</text>
  <text id="descriptive-name" style="stroke:none;fill:black;font-family:sans-serif;font-size:13;text-anchor:end;" transform="matrix(1 0 0 1 3036 1969)">Generated from lamp.table.fill</text>
  <text style="stroke:none;fill:black;font-family:sans-serif;font-size:13;text-anchor:end;" transform="matrix(1 0 0 1 3036 1987)">Typeset at 100 points</text>
  <text style="stroke:none;fill:black;font-family:sans-serif;font-size:13;" transform="matrix(1 0 0 1 263 726)">Small</text>
  <text style="stroke:none;fill:black;font-family:sans-serif;font-size:13;" transform="matrix(1 0 0 1 263 1156)">Medium</text>
  <text style="stroke:none;fill:black;font-family:sans-serif;font-size:13;" transform="matrix(1 0 0 1 263 1586)">Large</text>
 </g>
 <g id="Guides">
  <g id="H-reference" style="fill:#27AAE1;stroke:none;" transform="matrix(1 0 0 1 339 696)">
   <path d="M0.993347 0L3.6377 0L29.3282-67.1326L30.0301-67.1326L30.0301-70.459L28.1227-70.459ZM11.6882-24.4797L46.9818-24.4797L46.2311-26.7288L12.4382-26.7288ZM55.1193 0L57.7637 0L30.6381-70.459L29.4327-70.459L29.4327-67.1326Z"/>
  </g>
  <line id="Baseline-S" style="fill:none;stroke:#27AAE1;opacity:1;stroke-width:0.5;" x1="263" x2="3036" y1="696" y2="696"/>
  <line id="Capline-S" style="fill:none;stroke:#27AAE1;opacity:1;stroke-width:0.5;" x1="263" x2="3036" y1="625.541" y2="625.541"/>
  <g id="H-reference" style="fill:#27AAE1;stroke:none;" transform="matrix(1 0 0 1 339 1126)">
   <path d="M0.993347 0L3.6377 0L29.3282-67.1326L30.0301-67.1326L30.0301-70.459L28.1227-70.459ZM11.6882-24.4797L46.9818-24.4797L46.2311-26.7288L12.4382-26.7288ZM55.1193 0L57.7637 0L30.6381-70.459L29.4327-70.459L29.4327-67.1326Z"/>
  </g>
  <line id="Baseline-M" style="fill:none;stroke:#27AAE1;opacity:1;stroke-width:0.5;" x1="263" x2="3036" y1="1126" y2="1126"/>
  <line id="Capline-M" style="fill:none;stroke:#27AAE1;opacity:1;stroke-width:0.5;" x1="263" x2="3036" y1="1055.54" y2="1055.54"/>
  <g id="H-reference" style="fill:#27AAE1;stroke:none;" transform="matrix(1 0 0 1 339 1556)">
   <path d="M0.993347 0L3.6377 0L29.3282-67.1326L30.0301-67.1326L30.0301-70.459L28.1227-70.459ZM11.6882-24.4797L46.9818-24.4797L46.2311-26.7288L12.4382-26.7288ZM55.1193 0L57.7637 0L30.6381-70.459L29.4327-70.459L29.4327-67.1326Z"/>
  </g>
  <line id="Baseline-L" style="fill:none;stroke:#27AAE1;opacity:1;stroke-width:0.5;" x1="263" x2="3036" y1="1556" y2="1556"/>
  <line id="Capline-L" style="fill:none;stroke:#27AAE1;opacity:1;stroke-width:0.5;" x1="263" x2="3036" y1="1485.54" y2="1485.54"/>
  <line id="left-margin" style="fill:none;stroke:#00AEEF;stroke-width:0.5;opacity:1.0;" x1="1399.66" x2="1399.66" y1="1030.79" y2="1150.12"/>
  <line id="right-margin" style="fill:none;stroke:#00AEEF;stroke-width:0.5;opacity:1.0;" x1="1500.02" x2="1500.02" y1="1030.79" y2="1150.12"/>
 </g>
 <g id="Symbols">
  <g id="Black-L" transform="matrix(1 0 0 1 2865.59 1556)">
   <path d="M67.8158-36.2636Q78.7852-36.2636 89.0885-36.9448Q99.3917-37.626 108.03-38.9091Q115.836-40.0678 118.42-45.3673Q121.005-50.6668 117.633-58.4071L98.9749-100.55Q92.1266-115.938 75.0317-115.938L60.5802-115.938Q43.4841-115.938 36.6579-100.55L17.9993-58.4071Q14.6072-50.6668 17.1915-45.3673Q19.7757-40.0678 27.6024-38.9091Q36.241-37.626 46.5339-36.9448Q56.8267-36.2636 67.8158-36.2636ZM59.223-25.0499L76.4658-25.0499L76.4658-42.4896L59.223-42.4896ZM58.5692 45.399L77.0403 45.399Q91.2471 45.399 98.5962 39.0262Q105.945 32.6533 105.945 20.3499Q105.945 13.5034 103.839 3.77258Q101.733-5.95826 97.9825-16.2097Q95.5859-22.8817 90.5625-26.4804Q85.5391-30.0791 78.5121-30.0791L57.0974-30.0791Q50.0704-30.0791 45.0574-26.4804Q40.0444-22.8817 37.627-16.2097Q33.8764-6.01667 31.7995 3.71417Q29.7226 13.445 29.7226 20.3499Q29.7226 32.6533 37.0711 39.0262Q44.4196 45.399 58.5692 45.399Z"/>
  </g>
  <g id="Heavy-L" transform="matrix(1 0 0 1 2569.75 1556)">
   <path d="M66.9518-36.4512Q77.7574-36.4512 87.9809-37.1235Q98.2043-37.7958 106.765-39.0657Q114.253-40.1835 116.735-45.2842Q119.218-50.3848 115.992-57.7942L97.3285-99.9454Q90.7849-114.644 74.4785-114.644L59.4004-114.644Q43.0885-114.644 36.5806-99.9454L17.9176-57.7942Q14.6613-50.3848 17.1437-45.2842Q19.6262-40.1835 27.144-39.0657Q35.7048-37.7958 45.9131-37.1235Q56.1215-36.4512 66.9518-36.4512ZM59.2266-25.6867L74.7159-25.6867L74.7159-41.8301L59.2266-41.8301ZM57.5495 44.1046L76.3182 44.1046Q89.9644 44.1046 97.151 37.8683Q104.338 31.6321 104.338 19.7633Q104.338 12.9714 102.256 3.33493Q100.175-6.30157 96.4648-16.4641Q94.1542-22.9099 89.2626-26.4071Q84.371-29.9044 77.488-29.9044L56.3797-29.9044Q49.4967-29.9044 44.6202-26.4071Q39.7437-22.9099 37.4029-16.4641Q33.6927-6.34619 31.6337 3.29031Q29.5747 12.9268 29.5747 19.7633Q29.5747 31.6321 36.7585 37.8683Q43.9422 44.1046 57.5495 44.1046Z"/>
  </g>
  <g id="Bold-L" transform="matrix(1 0 0 1 2274.28 1556)">
   <path d="M65.7122-36.6743Q76.3105-36.6743 86.4006-37.3314Q96.4906-37.9886 104.892-39.2355Q111.973-40.2996 114.317-45.1283Q116.662-49.9569 113.628-56.9291L94.9568-99.0956Q88.8717-112.762 73.7499-112.762L57.6497-112.762Q42.5149-112.762 36.4808-99.0956L17.8103-56.9291Q14.7378-49.9569 17.0824-45.1283Q19.4269-40.2996 26.5455-39.2355Q34.9469-37.9886 45.018-37.3314Q55.0892-36.6743 65.7122-36.6743ZM59.1074-26.4259L72.3329-26.4259L72.3329-41.0603L59.1074-41.0603ZM56.0583 42.223L75.315 42.223Q88.1951 42.223 95.1222 36.1931Q102.049 30.1632 102.049 18.8769Q102.049 12.1542 100.003 2.65532Q97.9558-6.84355 94.3066-16.8611Q92.1109-23.0003 87.3883-26.356Q82.6656-29.7116 75.9891-29.7116L55.3842-29.7116Q48.7076-29.7116 44.0039-26.356Q39.3002-23.0003 37.0666-16.8611Q33.4175-6.87275 31.3853 2.62612Q29.3531 12.125 29.3531 18.8769Q29.3531 30.1632 36.2735 36.1931Q43.194 42.223 56.0583 42.223Z"/>
  </g>
  <g id="Semibold-L" transform="matrix(1 0 0 1 1978.42 1556)">
   <path d="M64.8577-36.8282Q75.313-36.8282 85.3111-37.4748Q95.3092-38.1214 103.601-39.3525Q110.401-40.3796 112.65-45.0208Q114.9-49.662 111.998-56.3328L93.3217-98.5098Q87.5528-111.465 73.2476-111.465L56.4428-111.465Q42.1194-111.465 36.412-98.5098L17.7362-56.3328Q14.7906-49.662 17.04-45.0208Q19.2895-40.3796 26.133-39.3525Q34.4245-38.1214 44.401-37.4748Q54.3775-36.8282 64.8577-36.8282ZM59.0253-26.9355L70.69-26.9355L70.69-40.5296L59.0253-40.5296ZM55.0302 40.9259L74.6233 40.9259Q86.9753 40.9259 93.7236 35.0382Q100.472 29.1505 100.472 18.2658Q100.472 11.5908 98.4488 2.18681Q96.4258-7.21718 92.8188-17.1348Q90.7023-23.0627 86.0961-26.3207Q81.4899-29.5787 74.9557-29.5787L54.6978-29.5787Q48.1636-29.5787 43.579-26.3207Q38.9944-23.0627 36.8348-17.1348Q33.2277-7.23575 31.214 2.16823Q29.2003 11.5722 29.2003 18.2658Q29.2003 29.1505 35.9392 35.0382Q42.6782 40.9259 55.0302 40.9259Z"/>
  </g>
  <g id="Medium-L" transform="matrix(1 0 0 1 1682.36 1556)">
   <path d="M64.2097-36.9448Q74.5567-36.9448 84.4851-37.5835Q94.4135-38.2221 102.622-39.4413Q109.209-40.4402 111.387-44.9393Q113.564-49.4383 110.762-55.8806L92.082-98.0656Q86.5527-110.482 72.8668-110.482L55.5277-110.482Q41.8195-110.482 36.3598-98.0656L17.6801-55.8806Q14.8306-49.4383 17.0079-44.9393Q19.1853-40.4402 25.8202-39.4413Q34.0283-38.2221 43.9331-37.5835Q53.8378-36.9448 64.2097-36.9448ZM58.9631-27.3219L69.4443-27.3219L69.4443-40.1272L58.9631-40.1272ZM54.2507 39.9423L74.0989 39.9423Q86.0504 39.9423 92.663 34.1625Q99.2757 28.3827 99.2757 17.8024Q99.2757 11.1636 97.2707 1.83155Q95.2657-7.50049 91.6906-17.3424Q89.6342-23.1099 85.1163-26.2939Q80.5984-29.4779 74.1722-29.4779L54.1774-29.4779Q47.7512-29.4779 43.2569-26.2939Q38.7626-23.1099 36.659-17.3424Q33.0839-7.511 31.0841 1.82104Q29.0844 11.1531 29.0844 17.8024Q29.0844 28.3827 35.6858 34.1625Q42.2871 39.9423 54.2507 39.9423Z"/>
  </g>
  <g id="Regular-L" transform="matrix(1 0 0 1 1386.49 1556)">
   <path d="M63.3646-37.097Q73.5701-37.097 83.4076-37.7253Q93.245-38.3535 101.345-39.5571Q107.655-40.5194 109.738-44.833Q111.821-49.1466 109.15-55.2908L90.4649-97.4862Q85.2482-109.199 72.37-109.199L54.3341-109.199Q41.4284-109.199 36.2918-97.4862L17.6069-55.2908Q14.8827-49.1466 16.9661-44.833Q19.0494-40.5194 25.4121-39.5571Q33.5116-38.3535 43.3228-37.7253Q53.134-37.097 63.3646-37.097ZM58.8818-27.8259L67.8195-27.8259L67.8195-39.6023L58.8818-39.6023ZM53.2339 38.6594L73.4149 38.6594Q84.844 38.6594 91.2797 33.0203Q97.7155 27.3811 97.7155 17.1981Q97.7155 10.6064 95.7341 1.36818Q93.7526-7.87002 90.2191-17.6131Q88.2411-23.1716 83.8384-26.2591Q79.4356-29.3465 73.1501-29.3465L53.4987-29.3465Q47.2132-29.3465 42.8367-26.2591Q38.4602-23.1716 36.4297-17.6131Q32.8962-7.87002 30.9148 1.36818Q28.9333 10.6064 28.9333 17.1981Q28.9333 27.3811 35.3551 33.0203Q41.777 38.6594 53.2339 38.6594Z"/>
  </g>
  <g id="Light-L" transform="matrix(1 0 0 1 1091.71 1556)">
   <path d="M61.4179-37.1925Q71.4516-37.1925 80.9741-37.7827Q90.4967-38.3728 98.0809-39.5189Q104.028-40.4238 105.94-44.3844Q107.852-48.3449 105.39-54.0121L86.686-96.2456Q82.3091-106.107 71.5876-106.107L51.2612-106.107Q40.4934-106.107 36.1962-96.2456L17.4924-54.0121Q14.9972-48.3449 16.9088-44.3844Q18.8205-40.4238 24.8013-39.5189Q32.3855-38.3728 41.8914-37.7827Q51.3973-37.1925 61.4179-37.1925ZM58.0039-28.0167L64.7848-28.0167L64.7848-39.3733L58.0039-39.3733ZM50.7337 35.5677L72.0217 35.5677Q82.4583 35.5677 88.3406 30.3102Q94.2229 25.0528 94.2229 15.5566Q94.2229 9.02234 92.2892 0.0130932Q90.3556-8.99616 86.9366-18.4147Q85.092-23.5913 80.842-26.4785Q76.5921-29.3657 70.6308-29.3657L52.1246-29.3657Q46.1633-29.3657 41.93-26.4785Q37.6968-23.5913 35.8188-18.4147Q32.3999-8.99616 30.4662 0.0130932Q28.5325 9.02234 28.5325 15.5566Q28.5325 25.0528 34.3912 30.3102Q40.25 35.5677 50.7337 35.5677Z"/>
  </g>
  <g id="Thin-L" transform="matrix(1 0 0 1 797.547 1556)">
   <path d="M58.8432-37.3189Q68.6496-37.3189 77.7557-37.8586Q86.8618-38.3982 93.7645-39.4685Q99.2323-40.2974 100.917-43.7911Q102.601-47.2847 100.418-52.3208L81.688-94.6047Q78.4219-102.018 70.5528-102.018L47.1971-102.018Q39.2567-102.018 36.0698-94.6047L17.341-52.3208Q15.1486-47.2847 16.8331-43.7911Q18.5177-40.2974 23.9934-39.4685Q30.896-38.3982 39.9982-37.8586Q49.1004-37.3189 58.8432-37.3189ZM56.8427-28.269L60.7712-28.269L60.7712-39.0705L56.8427-39.0705ZM47.4271 31.4786L70.179 31.4786Q79.303 31.4786 84.4534 26.726Q89.6037 21.9735 89.6037 13.3857Q89.6037 6.92732 87.7332-1.77912Q85.8627-10.4856 82.5952-19.475Q80.9269-24.1465 76.8791-26.7688Q72.8312-29.3912 67.2987-29.3912L50.3074-29.3912Q44.7749-29.3912 40.7309-26.7688Q36.687-24.1465 35.0109-19.475Q31.7434-10.4856 29.8728-1.77912Q28.0023 6.92732 28.0023 13.3857Q28.0023 21.9735 33.1164 26.726Q38.2305 31.4786 47.4271 31.4786Z"/>
  </g>
  <g id="Ultralight-L" transform="matrix(1 0 0 1 502.142 1556)">
   <path d="M57.5245-37.3837Q67.2144-37.3837 76.1072-37.8975Q85-38.4113 91.5536-39.4426Q96.7758-40.2327 98.344-43.4872Q99.9122-46.7416 97.8711-51.4545L79.1281-93.7643Q76.4309-99.9235 70.0228-99.9235L45.1155-99.9235Q38.6233-99.9235 36.0051-93.7643L17.2635-51.4545Q15.2262-46.7416 16.7944-43.4872Q18.3626-40.2327 23.5796-39.4426Q30.1332-38.4113 39.0286-37.8975Q47.9239-37.3837 57.5245-37.3837ZM56.248-28.3982L58.7154-28.3982L58.7154-38.9154L56.248-38.9154ZM45.7334 29.3841L69.2352 29.3841Q77.6869 29.3841 82.4624 24.8902Q87.2378 20.3963 87.2378 12.2738Q87.2378 5.85427 85.3996-2.69709Q83.5615-11.2484 80.3715-20.018Q78.7936-24.4308 74.8493-26.9175Q70.9049-29.4042 65.592-29.4042L49.3766-29.4042Q44.0637-29.4042 40.1167-26.9175Q36.1698-24.4308 34.5971-20.018Q31.4071-11.2484 29.569-2.69709Q27.7308 5.85427 27.7308 12.2738Q27.7308 20.3963 32.4634 24.8902Q37.1961 29.3841 45.7334 29.3841Z"/>
  </g>
  <g id="Black-M" transform="matrix(1 0 0 1 2880.38 1126)">
   <path d="M53.0185-35.8825Q61.6345-35.8825 69.6428-36.4126Q77.651-36.9428 84.3409-37.9405Q90.6128-38.8655 92.6791-43.0943Q94.7454-47.3232 92.0373-53.5397L77.5829-86.1868Q72.1293-98.4516 58.4997-98.4516L47.5316-98.4516Q33.9022-98.4516 28.4538-86.1868L13.9994-53.5397Q11.2859-47.3232 13.3522-43.0943Q15.4185-38.8655 21.6959-37.9405Q28.3858-36.9428 36.3912-36.4126Q44.3967-35.8825 53.0185-35.8825ZM45.7605-26.8214L60.3339-26.8214L60.3339-41.39L45.7605-41.39ZM45.9136 27.9303L60.1183 27.9303Q71.472 27.9303 77.2304 22.9274Q82.9888 17.9244 82.9888 8.11194Q82.9888 2.76851 81.3422-4.82043Q79.6956-12.4094 76.7708-20.384Q74.8582-25.6958 70.8738-28.5439Q66.8893-31.3921 61.3654-31.3921L44.6664-31.3921Q39.1425-31.3921 35.1608-28.5439Q31.1791-25.6958 29.261-20.384Q26.3362-12.4665 24.7182-4.87753Q23.1002 2.71142 23.1002 8.11194Q23.1002 17.9244 28.8587 22.9274Q34.6172 27.9303 45.9136 27.9303Z"/>
  </g>
  <g id="Heavy-M" transform="matrix(1 0 0 1 2584.34 1126)">
   <path d="M52.3535-36.057Q60.8252-36.057 68.7845-36.582Q76.7438-37.1071 83.4051-38.0971Q89.3993-38.9875 91.382-43.0545Q93.3647-47.1215 90.7791-53.0585L76.3221-85.7107Q71.0888-97.4715 58.0311-97.4715L46.6618-97.4715Q33.6018-97.4715 28.3871-85.7107L13.9302-53.0585Q11.3282-47.1215 13.3108-43.0545Q15.2935-38.9875 21.3042-38.0971Q27.9654-37.1071 35.9165-36.582Q43.8676-36.057 52.3535-36.057ZM45.845-27.4264L58.9033-27.4264L58.9033-40.7664L45.845-40.7664ZM45.1474 26.9502L59.5408 26.9502Q70.4383 26.9502 76.0888 22.0455Q81.7393 17.1409 81.7393 7.68992Q81.7393 2.3946 80.1126-5.12324Q78.4859-12.6411 75.5899-20.5587Q73.7491-25.6846 69.8795-28.452Q66.0098-31.2195 60.5967-31.2195L44.0916-31.2195Q38.6785-31.2195 34.817-28.452Q30.9555-25.6846 29.0983-20.5587Q26.2023-12.6847 24.5974-5.16686Q22.9926 2.35098 22.9926 7.68992Q22.9926 17.1409 28.6419 22.0455Q34.2913 26.9502 45.1474 26.9502Z"/>
  </g>
  <g id="Bold-M" transform="matrix(1 0 0 1 2288.38 1126)">
   <path d="M51.6095-36.2522Q59.9198-36.2522 67.8244-36.7715Q75.729-37.2908 82.3582-38.2723Q88.0419-39.1239 89.931-43.0098Q91.8201-46.8958 89.3715-52.5201L74.9116-85.1781Q69.9248-96.375 57.5068-96.375L45.6888-96.375Q33.2657-96.375 28.3125-85.1781L13.8527-52.5201Q11.3755-46.8958 13.2646-43.0098Q15.1537-39.1239 20.8659-38.2723Q27.4952-37.2908 35.3855-36.7715Q43.2757-36.2522 51.6095-36.2522ZM45.9395-28.1031L57.3029-28.1031L57.3029-40.0688L45.9395-40.0688ZM44.2904 25.8538L58.8949 25.8538Q69.2818 25.8538 74.8118 21.0591Q80.3417 16.2644 80.3417 7.21782Q80.3417 1.97633 78.7372-5.46198Q77.1327-12.9003 74.269-20.7542Q72.5084-25.6722 68.7672-28.3493Q65.0259-31.0264 59.7368-31.0264L43.4485-31.0264Q38.1594-31.0264 34.4324-28.3493Q30.7055-25.6722 28.9163-20.7542Q26.0526-12.9288 24.4624-5.49053Q22.8722 1.94778 22.8722 7.21782Q22.8722 16.2644 28.3995 21.0591Q33.9268 25.8538 44.2904 25.8538Z"/>
  </g>
  <g id="Semibold-M" transform="matrix(1 0 0 1 1992.18 1126)">
   <path d="M51.0967-36.3867Q59.2957-36.3867 67.1625-36.9021Q75.0294-37.4175 81.6366-38.393Q87.1061-39.2179 88.9307-42.9791Q90.7553-46.7403 88.4012-52.149L73.9393-84.8109Q69.1223-95.6192 57.1454-95.6192L45.018-95.6192Q33.034-95.6192 28.2611-84.8109L13.7993-52.149Q11.4081-46.7403 13.2327-42.9791Q15.0573-39.2179 20.5638-38.393Q27.171-37.4175 35.0193-36.9021Q42.8677-36.3867 51.0967-36.3867ZM46.0047-28.5697L56.1996-28.5697L56.1996-39.588L46.0047-39.588ZM43.6996 25.0979L58.4496 25.0979Q68.4846 25.0979 73.9314 20.379Q79.3781 15.6601 79.3781 6.89237Q79.3781 1.68798 77.789-5.69551Q76.1998-13.079 73.3583-20.889Q71.6531-25.6636 68.0004-28.2784Q64.3477-30.8933 59.144-30.8933L43.0052-30.8933Q37.8015-30.8933 34.1673-28.2784Q30.5331-25.6636 28.7909-20.889Q25.9493-13.0972 24.3693-5.71367Q22.7892 1.66982 22.7892 6.89237Q22.7892 15.6601 28.2324 20.379Q33.6756 25.0979 43.6996 25.0979Z"/>
  </g>
  <g id="Medium-M" transform="matrix(1 0 0 1 1695.87 1126)">
   <path d="M50.7078-36.4888Q58.8224-36.4888 66.6607-37.0012Q74.4989-37.5136 81.0894-38.4846Q86.3965-39.2892 88.1722-42.9558Q89.9479-46.6223 87.6654-51.8676L73.202-84.5325Q68.5139-95.046 56.8714-95.046L44.5094-95.046Q32.8583-95.046 28.2221-84.5325L13.7589-51.8676Q11.4328-46.6223 13.2085-42.9558Q14.9842-39.2892 20.3347-38.4846Q26.9252-37.5136 34.7417-37.0012Q42.5583-36.4888 50.7078-36.4888ZM46.0541-28.9234L55.3631-28.9234L55.3631-39.2233L46.0541-39.2233ZM43.2516 24.5248L58.112 24.5248Q67.8801 24.5248 73.2638 19.8634Q78.6475 15.202 78.6475 6.64559Q78.6475 1.46933 77.07-5.87258Q75.4925-13.2145 72.6678-20.9912Q71.0046-25.657 67.419-28.2247Q63.8334-30.7924 58.6945-30.7924L42.6691-30.7924Q37.5302-30.7924 33.9663-28.2247Q30.4023-25.657 28.6958-20.9912Q25.8711-13.2248 24.2987-5.88286Q22.7263 1.45906 22.7263 6.64559Q22.7263 15.202 28.1057 19.8634Q33.485 24.5248 43.2516 24.5248Z"/>
  </g>
  <g id="Regular-M" transform="matrix(1 0 0 1 1399.66 1126)">
   <path d="M50.2006-36.6219Q58.2051-36.6219 66.0061-37.1304Q73.807-37.6389 80.3756-38.604Q85.471-39.3822 87.1829-42.9253Q88.8948-46.4684 86.7057-51.5006L72.2404-84.1693Q67.7203-94.2985 56.5139-94.2985L43.8459-94.2985Q32.6292-94.2985 28.1712-84.1693L13.7061-51.5006Q11.465-46.4684 13.177-42.9253Q14.8889-39.3822 20.0359-38.604Q26.6046-37.6389 34.3797-37.1304Q42.1547-36.6219 50.2006-36.6219ZM46.1185-29.3849L54.2719-29.3849L54.2719-38.7477L46.1185-38.7477ZM42.6672 23.7772L57.6716 23.7772Q67.0917 23.7772 72.3931 19.1908Q77.6946 14.6043 77.6946 6.32371Q77.6946 1.18415 76.1322-6.10354Q74.5699-13.3912 71.7671-21.1245Q70.1586-25.6486 66.6606-28.1546Q63.1625-30.6607 58.1082-30.6607L42.2306-30.6607Q37.1763-30.6607 33.704-28.1546Q30.2318-25.6486 28.5717-21.1245Q25.7689-13.3912 24.2066-6.10354Q22.6442 1.18415 22.6442 6.32371Q22.6442 14.6043 27.9404 19.1908Q33.2365 23.7772 42.6672 23.7772Z"/>
  </g>
  <g id="Light-M" transform="matrix(1 0 0 1 1104.68 1126)">
   <path d="M48.4552-36.7075Q56.3057-36.7075 63.8243-37.1818Q71.343-37.6561 77.4496-38.5698Q82.2199-39.2966 83.7778-42.5231Q85.3358-45.7497 83.3349-50.3541L68.8524-83.057Q65.0852-91.5266 55.8125-91.5266L41.091-91.5266Q31.7909-91.5266 28.0855-83.057L13.6034-50.3541Q11.5677-45.7497 13.1256-42.5231Q14.6836-39.2966 19.4883-38.5698Q25.5949-37.6561 33.0963-37.1818Q40.5977-36.7075 48.4552-36.7075ZM45.3314-29.5559L51.5512-29.5559L51.5512-38.5425L45.3314-38.5425ZM40.4257 21.0053L56.4224 21.0053Q64.9528 21.0053 69.758 16.7611Q74.5633 12.5169 74.5633 4.85207Q74.5633-0.236024 73.0438-7.31845Q71.5242-14.4009 68.8241-21.8432Q67.3353-26.0249 63.9742-28.3514Q60.6131-30.678 55.8494-30.678L40.9988-30.678Q36.235-30.678 32.8912-28.3514Q29.5473-26.0249 28.024-21.8432Q25.3239-14.4009 23.8044-7.31845Q22.2849-0.236024 22.2849 4.85207Q22.2849 12.5169 27.0762 16.7611Q31.8675 21.0053 40.4257 21.0053Z"/>
  </g>
  <g id="Thin-M" transform="matrix(1 0 0 1 810.256 1126)">
   <path d="M46.1469-36.8208Q53.7936-36.8208 60.9388-37.2499Q68.0841-37.6789 73.5797-38.5245Q77.9199-39.1833 79.2743-41.9912Q80.6287-44.7992 78.8768-48.8378L64.3715-81.586Q61.6001-87.8605 54.8847-87.8605L37.4473-87.8605Q30.6821-87.8605 27.9722-81.586L13.4677-48.8378Q11.7034-44.7992 13.0578-41.9912Q14.4121-39.1833 18.764-38.5245Q24.2596-37.6789 31.399-37.2499Q38.5385-36.8208 46.1469-36.8208ZM44.2904-29.7822L47.9528-29.7822L47.9528-38.271L44.2904-38.271ZM37.4611 17.3392L54.7704 17.3392Q62.1239 17.3392 66.2729 13.5477Q70.4219 9.75613 70.4219 2.90572Q70.4219-2.11432 68.959-8.92526Q67.4962-15.7362 64.9318-22.7938Q63.6011-26.5226 60.4212-28.6117Q57.2413-30.7008 52.862-30.7008L39.3695-30.7008Q34.9902-30.7008 31.8161-28.6117Q28.642-26.5226 27.2997-22.7938Q24.7353-15.7362 23.2725-8.92526Q21.8096-2.11432 21.8096 2.90572Q21.8096 9.75613 25.9332 13.5477Q30.0569 17.3392 37.4611 17.3392Z"/>
  </g>
  <g id="Ultralight-M" transform="matrix(1 0 0 1 514.716 1126)">
   <path d="M44.9646-36.8789Q52.5069-36.8789 59.4609-37.2847Q66.4149-37.6906 71.5976-38.5014Q75.7175-39.1252 76.9676-41.7188Q78.2177-44.3123 76.5934-48.0611L62.0764-80.8325Q59.815-85.9827 54.4096-85.9827L35.5811-85.9827Q30.1143-85.9827 27.9142-80.8325L13.3982-48.0611Q11.7729-44.3123 13.023-41.7188Q14.2731-39.1252 18.393-38.5014Q23.5756-37.6906 30.5297-37.2847Q37.4837-36.8789 44.9646-36.8789ZM43.7571-29.898L46.1097-29.898L46.1097-38.132L43.7571-38.132ZM35.9427 15.4614L53.9242 15.4614Q60.675 15.4614 64.4879 11.9017Q68.3007 8.34207 68.3007 1.90881Q68.3007-3.07637 66.8669-9.74827Q65.433-16.4202 62.9382-23.2807Q61.6885-26.7775 58.6014-28.745Q55.5143-30.7125 51.3319-30.7125L38.535-30.7125Q34.3526-30.7125 31.2655-28.745Q28.1783-26.7775 26.9287-23.2807Q24.4339-16.4202 23-9.74827Q21.5662-3.07637 21.5662 1.90881Q21.5662 8.34207 25.3478 11.9017Q29.1295 15.4614 35.9427 15.4614Z"/>
  </g>
  <g id="Black-S" transform="matrix(1 0 0 1 2891.75 696)">
   <path d="M41.6504-35.6934Q48.4375-35.6934 54.7119-36.1084Q60.9863-36.5234 66.2109-37.3047Q71.1914-38.0371 72.8271-41.3818Q74.4629-44.7266 72.3145-49.6582L60.9863-75.2441Q56.6895-84.9121 45.9473-84.9121L37.3535-84.9121Q26.6113-84.9121 22.3145-75.2441L10.9863-49.6582Q8.83789-44.7266 10.4736-41.3818Q12.1094-38.0371 17.0898-37.3047Q22.3145-36.5234 28.5889-36.1084Q34.8633-35.6934 41.6504-35.6934ZM35.791-28.4668L47.5586-28.4668L47.5586-40.2344L35.791-40.2344ZM36.084 14.4043L47.2168 14.4043Q56.2012 14.4043 60.7178 10.4736Q65.2344 6.54297 65.2344-1.2207Q65.2344-5.41992 63.9404-11.377Q62.6465-17.334 60.3516-23.584Q58.8379-27.7832 55.6885-30.0293Q52.5391-32.2754 48.1934-32.2754L35.1074-32.2754Q30.7617-32.2754 27.6123-30.0293Q24.4629-27.7832 22.9492-23.584Q20.6543-17.3828 19.3848-11.4258Q18.1152-5.46875 18.1152-1.2207Q18.1152 6.54297 22.6318 10.4736Q27.1484 14.4043 36.084 14.4043Z"/>
  </g>
  <g id="Heavy-S" transform="matrix(1 0 0 1 2595.39 696)">
   <path d="M41.3047-35.8317Q47.988-35.8317 54.2567-36.2467Q60.5253-36.6617 65.7845-37.443Q70.5691-38.1524 72.153-41.3991Q73.7368-44.6459 71.6691-49.3931L60.341-74.9791Q56.1363-84.4281 45.6361-84.4281L36.9617-84.4281Q26.4615-84.4281 22.2684-74.9791L10.9402-49.3931Q8.86094-44.6459 10.4448-41.3991Q12.0287-38.1524 16.8248-37.443Q22.084-36.6617 28.3469-36.2467Q34.6097-35.8317 41.3047-35.8317ZM35.9639-28.9623L46.6827-28.9623L46.6827-39.7273L35.9639-39.7273ZM35.7152 13.9203L46.8826 13.9203Q55.5904 13.9203 60.0782 10.0299Q64.566 6.13961 64.566-1.39357Q64.566-5.55822 63.2835-11.4807Q62.0011-17.4031 59.7177-23.6416Q58.2501-27.7256 55.1814-29.9256Q52.1127-32.1256 47.8246-32.1256L34.7732-32.1256Q30.4851-32.1256 27.4222-29.9256Q24.3592-27.7256 22.8801-23.6416Q20.5967-17.4404 19.3329-11.518Q18.0691-5.59552 18.0691-1.39357Q18.0691 6.13961 22.5569 10.0299Q27.0447 13.9203 35.7152 13.9203Z"/>
  </g>
  <g id="Bold-S" transform="matrix(1 0 0 1 2299.07 696)">
   <path d="M40.918-35.9863Q47.4854-35.9863 53.7476-36.4014Q60.0098-36.8164 65.3076-37.5977Q69.873-38.2812 71.3989-41.4185Q72.9248-44.5557 70.9473-49.0967L59.6191-74.6826Q55.5176-83.8867 45.2881-83.8867L36.5234-83.8867Q26.2939-83.8867 22.2168-74.6826L10.8887-49.0967Q8.88672-44.5557 10.4126-41.4185Q11.9385-38.2812 16.5283-37.5977Q21.8262-36.8164 28.0762-36.4014Q34.3262-35.9863 40.918-35.9863ZM36.1572-29.5166L45.7031-29.5166L45.7031-39.1602L36.1572-39.1602ZM35.3027 13.3789L46.5088 13.3789Q54.9072 13.3789 59.3628 9.53369Q63.8184 5.68848 63.8184-1.58691Q63.8184-5.71289 62.5488-11.5967Q61.2793-17.4805 59.0088-23.7061Q57.5928-27.6611 54.6143-29.8096Q51.6357-31.958 47.4121-31.958L34.3994-31.958Q30.1758-31.958 27.2095-29.8096Q24.2432-27.6611 22.8027-23.7061Q20.5322-17.5049 19.2749-11.6211Q18.0176-5.7373 18.0176-1.58691Q18.0176 5.68848 22.4731 9.53369Q26.9287 13.3789 35.3027 13.3789Z"/>
  </g>
  <g id="Semibold-S" transform="matrix(1 0 0 1 2002.63 696)">
   <path d="M40.6514-36.093Q47.1388-36.093 53.3965-36.508Q59.6543-36.923 64.9788-37.7043Q69.3932-38.3701 70.8791-41.4318Q72.3649-44.4935 70.4496-48.8923L59.1215-74.4782Q55.091-83.5135 45.0481-83.5135L36.2213-83.5135Q26.1784-83.5135 22.1812-74.4782L10.8531-48.8923Q8.90449-44.4935 10.3904-41.4318Q11.8763-38.3701 16.3239-37.7043Q21.6484-36.923 27.8896-36.508Q34.1307-36.093 40.6514-36.093ZM36.2905-29.8987L45.0277-29.8987L45.0277-38.7691L36.2905-38.7691ZM35.0184 13.0057L46.2511 13.0057Q54.4362 13.0057 58.8696 9.19155Q63.3029 5.37744 63.3029-1.72021Q63.3029-5.81953 62.0423-11.6767Q60.7816-17.5338 58.52-23.7505Q57.1396-27.6167 54.2232-29.7296Q51.3069-31.8425 47.1277-31.8425L34.1417-31.8425Q29.9625-31.8425 27.0628-29.7296Q24.1632-27.6167 22.7494-23.7505Q20.4878-17.5493 19.2349-11.6922Q17.982-5.83506 17.982-1.72021Q17.982 5.37744 22.4154 9.19155Q26.8487 13.0057 35.0184 13.0057Z"/>
  </g>
  <g id="Medium-S" transform="matrix(1 0 0 1 1706.13 696)">
   <path d="M40.4492-36.1738Q46.876-36.1738 53.1304-36.5889Q59.3848-37.0039 64.7295-37.7852Q69.0293-38.4375 70.4849-41.4419Q71.9404-44.4463 70.0723-48.7373L58.7441-74.3232Q54.7676-83.2305 44.8662-83.2305L35.9922-83.2305Q26.0908-83.2305 22.1543-74.3232L10.8262-48.7373Q8.91797-44.4463 10.3735-41.4419Q11.8291-38.4375 16.1689-37.7852Q21.5137-37.0039 27.748-36.5889Q33.9824-36.1738 40.4492-36.1738ZM36.3916-30.1885L44.5156-30.1885L44.5156-38.4727L36.3916-38.4727ZM34.8027 12.7227L46.0557 12.7227Q54.0791 12.7227 58.4956 8.93213Q62.9121 5.1416 62.9121-1.82129Q62.9121-5.90039 61.6582-11.7373Q60.4043-17.5742 58.1494-23.7842Q56.7959-27.583 53.9268-29.6689Q51.0576-31.7549 46.9121-31.7549L33.9463-31.7549Q29.8008-31.7549 26.9517-29.6689Q24.1025-27.583 22.709-23.7842Q20.4541-17.583 19.2046-11.7461Q17.9551-5.90918 17.9551-1.82129Q17.9551 5.1416 22.3716 8.93213Q26.7881 12.7227 34.8027 12.7227Z"/>
  </g>
  <g id="Regular-S" transform="matrix(1 0 0 1 1409.68 696)">
   <path d="M40.1855-36.2793Q46.5332-36.2793 52.7832-36.6943Q59.0332-37.1094 64.4043-37.8906Q68.5547-38.5254 69.9707-41.4551Q71.3867-44.3848 69.5801-48.5352L58.252-74.1211Q54.3457-82.8613 44.6289-82.8613L35.6934-82.8613Q25.9766-82.8613 22.1191-74.1211L10.791-48.5352Q8.93555-44.3848 10.3516-41.4551Q11.7676-38.5254 15.9668-37.8906Q21.3379-37.1094 27.5635-36.6943Q33.7891-36.2793 40.1855-36.2793ZM36.5234-30.5664L43.8477-30.5664L43.8477-38.0859L36.5234-38.0859ZM34.5215 12.3535L45.8008 12.3535Q53.6133 12.3535 58.0078 8.59375Q62.4023 4.83398 62.4023-1.95312Q62.4023-6.00586 61.1572-11.8164Q59.9121-17.627 57.666-23.8281Q56.3477-27.5391 53.54-29.5898Q50.7324-31.6406 46.6309-31.6406L33.6914-31.6406Q29.5898-31.6406 26.8066-29.5898Q24.0234-27.5391 22.6562-23.8281Q20.4102-17.627 19.165-11.8164Q17.9199-6.00586 17.9199-1.95312Q17.9199 4.83398 22.3145 8.59375Q26.709 12.3535 34.5215 12.3535Z"/>
  </g>
  <g id="Light-S" transform="matrix(1 0 0 1 1114.5 696)">
   <path d="M38.6416-36.3551Q44.853-36.3551 50.8532-36.7399Q56.8535-37.1246 61.8159-37.8604Q65.6787-38.4496 66.9585-41.0993Q68.2383-43.749 66.5983-47.521L55.2549-73.1372Q52.0147-80.4092 44.0084-80.4092L33.2563-80.4092Q25.235-80.4092 22.0434-73.1372L10.7002-47.521Q9.02634-43.749 10.3062-41.0993Q11.586-38.4496 15.4823-37.8604Q20.4447-37.1246 26.4282-36.7399Q32.4117-36.3551 38.6416-36.3551ZM35.8271-30.7177L41.4408-30.7177L41.4408-37.9044L35.8271-37.9044ZM32.5386 9.90143L44.6958 9.90143Q51.7212 9.90143 55.6768 6.44442Q59.6324 2.98742 59.6324-3.25495Q59.6324-7.26217 58.4251-12.8911Q57.2179-18.5201 55.0626-24.4639Q53.85-27.872 51.1636-29.7639Q48.4772-31.6559 44.6327-31.6559L32.6017-31.6559Q28.7572-31.6559 26.0876-29.7639Q23.4179-27.872 22.1718-24.4639Q20.0165-18.5201 18.8093-12.8911Q17.602-7.26217 17.602-3.25495Q17.602 2.98742 21.55 6.44442Q25.4979 9.90143 32.5386 9.90143Z"/>
  </g>
  <g id="Thin-S" transform="matrix(1 0 0 1 819.812 696)">
   <path d="M36.5996-36.4553Q42.6307-36.4553 48.3007-36.8001Q53.9706-37.1448 58.3925-37.8203Q61.8749-38.3494 62.9746-40.6287Q64.0743-42.9081 62.6546-46.1796L51.291-71.8358Q48.9317-77.1662 43.1877-77.1662L30.033-77.1662Q24.2542-77.1662 21.9431-71.8358L10.5801-46.1796Q9.14641-42.9081 10.2461-40.6287Q11.3458-38.3494 14.8416-37.8203Q19.2635-37.1448 24.9268-36.8001Q30.59-36.4553 36.5996-36.4553ZM34.9062-30.9179L38.2576-30.9179L38.2576-37.6642L34.9062-37.6642ZM29.9161 6.65834L43.2344 6.65834Q49.2188 6.65834 52.5938 3.60176Q55.9688 0.545182 55.9688-4.97673Q55.9688-8.92373 54.8117-14.3125Q53.6546-19.7014 51.6194-25.3048Q50.5468-28.3122 48.0206-29.9942Q45.4944-31.6761 41.99-31.6761L31.1604-31.6761Q27.656-31.6761 25.1365-29.9942Q22.6171-28.3122 21.531-25.3048Q19.4958-19.7014 18.3387-14.3125Q17.1816-8.92373 17.1816-4.97673Q17.1816 0.545182 20.5389 3.60176Q23.8962 6.65834 29.9161 6.65834Z"/>
  </g>
  <g id="Ultralight-S" transform="matrix(1 0 0 1 524.136 696)">
   <path d="M35.5537-36.5067Q41.4925-36.5067 46.9933-36.8309Q52.494-37.1552 56.6391-37.7998Q59.9266-38.298 60.9341-40.3877Q61.9415-42.4774 60.6346-45.4926L49.2607-71.1693Q47.3526-75.5051 42.7673-75.5051L28.3821-75.5051Q23.7518-75.5051 21.8918-71.1693L10.5186-45.4926Q9.20792-42.4774 10.2154-40.3877Q11.2228-38.298 14.5134-37.7998Q18.6584-37.1552 24.1577-36.8309Q29.657-36.5067 35.5537-36.5067ZM34.4345-31.0204L36.6272-31.0204L36.6272-37.5412L34.4345-37.5412ZM28.5728 4.99725L42.4858 4.99725Q47.937 4.99725 51.0147 2.14577Q54.0924-0.705719 54.0924-5.85861Q54.0924-9.77478 52.961-15.0406Q51.8295-20.3064 49.8558-25.7355Q48.8548-28.5378 46.4108-30.1121Q43.9667-31.6864 40.6364-31.6864L30.4222-31.6864Q27.092-31.6864 24.6494-30.1121Q22.2069-28.5378 21.2029-25.7355Q19.2291-20.3064 18.0977-15.0406Q16.9662-9.77478 16.9662-5.85861Q16.9662-0.705719 20.0211 2.14577Q23.0759 4.99725 28.5728 4.99725Z"/>
  </g>
 </g>
</svg>
