<?xml version="1.0" encoding="UTF-8"?>
<!--Generator: Apple Native CoreSVG 175.5-->
<!DOCTYPE svg
PUBLIC "-//W3C//DTD SVG 1.1//EN"
       "http://www.w3.org/Graphics/SVG/1.1/DTD/svg11.dtd">
<svg version="1.1" xmlns="http://www.w3.org/2000/svg" xmlns:xlink="http://www.w3.org/1999/xlink" width="3300" height="2200">
 <!--glyph: "uni101490.medium", point size: 100.0, font version: "18.0d9e1", template writer version: "84"-->
 <g id="Notes">
  <rect height="2200" id="artboard" style="fill:white;opacity:1" width="3300" x="0" y="0"/>
  <line style="fill:none;stroke:black;opacity:1;stroke-width:0.5;" x1="263" x2="3036" y1="292" y2="292"/>
  <text style="stroke:none;fill:black;font-family:sans-serif;font-size:13;font-weight:bold;" transform="matrix(1 0 0 1 263 322)">Weight/Scale Variations</text>
  <text style="stroke:none;fill:black;font-family:sans-serif;font-size:13;text-anchor:middle;" transform="matrix(1 0 0 1 559.711 322)">Ultralight</text>
  <text style="stroke:none;fill:black;font-family:sans-serif;font-size:13;text-anchor:middle;" transform="matrix(1 0 0 1 856.422 322)">Thin</text>
  <text style="stroke:none;fill:black;font-family:sans-serif;font-size:13;text-anchor:middle;" transform="matrix(1 0 0 1 1153.13 322)">Light</text>
  <text style="stroke:none;fill:black;font-family:sans-serif;font-size:13;text-anchor:middle;" transform="matrix(1 0 0 1 1449.84 322)">Regular</text>
  <text style="stroke:none;fill:black;font-family:sans-serif;font-size:13;text-anchor:middle;" transform="matrix(1 0 0 1 1746.56 322)">Medium</text>
  <text style="stroke:none;fill:black;font-family:sans-serif;font-size:13;text-anchor:middle;" transform="matrix(1 0 0 1 2043.27 322)">Semibold</text>
  <text style="stroke:none;fill:black;font-family:sans-serif;font-size:13;text-anchor:middle;" transform="matrix(1 0 0 1 2339.98 322)">Bold</text>
  <text style="stroke:none;fill:black;font-family:sans-serif;font-size:13;text-anchor:middle;" transform="matrix(1 0 0 1 2636.69 322)">Heavy</text>
  <text style="stroke:none;fill:black;font-family:sans-serif;font-size:13;text-anchor:middle;" transform="matrix(1 0 0 1 2933.4 322)">Black</text>
  <line style="fill:none;stroke:black;opacity:1;stroke-width:0.5;" x1="263" x2="3036" y1="1903" y2="1903"/>
  <g transform="matrix(1 0 0 1 263 1933)">
   <path d="M9.24805 0.830078Q10.8691 0.830078 12.2949 0.214844Q13.7207-0.400391 14.8096-1.49414Q15.8984-2.58789 16.5186-4.01367Q17.1387-5.43945 17.1387-7.05078Q17.1387-8.66211 16.5186-10.0879Q15.8984-11.5137 14.8047-12.6074Q13.7109-13.7012 12.2852-14.3164Q10.8594-14.9316 9.23828-14.9316Q7.62695-14.9316 6.20117-14.3164Q4.77539-13.7012 3.69141-12.6074Q2.60742-11.5137 1.9873-10.0879Q1.36719-8.66211 1.36719-7.05078Q1.36719-5.43945 1.9873-4.01367Q2.60742-2.58789 3.69629-1.49414Q4.78516-0.400391 6.21094 0.214844Q7.63672 0.830078 9.24805 0.830078ZM9.24805-0.654297Q7.91992-0.654297 6.7627-1.14746Q5.60547-1.64062 4.73145-2.51953Q3.85742-3.39844 3.36426-4.56055Q2.87109-5.72266 2.87109-7.05078Q2.87109-8.37891 3.35938-9.54102Q3.84766-10.7031 4.72168-11.582Q5.5957-12.4609 6.75293-12.9541Q7.91016-13.4473 9.23828-13.4473Q10.5762-13.4473 11.7383-12.9541Q12.9004-12.4609 13.7793-11.582Q14.6582-10.7031 15.1514-9.54102Q15.6445-8.37891 15.6445-7.05078Q15.6445-5.72266 15.1514-4.56055Q14.6582-3.39844 13.7793-2.51953Q12.9004-1.64062 11.7432-1.14746Q10.5859-0.654297 9.24805-0.654297ZM5.6543-7.05078Q5.6543-6.72852 5.85938-6.52832Q6.06445-6.32812 6.40625-6.32812L8.51562-6.32812L8.51562-4.20898Q8.51562-3.88672 8.71094-3.67676Q8.90625-3.4668 9.23828-3.4668Q9.56055-3.4668 9.77051-3.67676Q9.98047-3.88672 9.98047-4.20898L9.98047-6.32812L12.0898-6.32812Q12.4219-6.32812 12.627-6.52832Q12.832-6.72852 12.832-7.05078Q12.832-7.38281 12.627-7.58789Q12.4219-7.79297 12.0898-7.79297L9.98047-7.79297L9.98047-9.90234Q9.98047-10.2344 9.77051-10.4443Q9.56055-10.6543 9.23828-10.6543Q8.90625-10.6543 8.71094-10.4443Q8.51562-10.2344 8.51562-9.90234L8.51562-7.79297L6.40625-7.79297Q6.06445-7.79297 5.85938-7.58789Q5.6543-7.38281 5.6543-7.05078Z"/>
  </g>
  <g transform="matrix(1 0 0 1 281.867 1933)">
   <path d="M11.709 2.91016Q13.75 2.91016 15.5518 2.12891Q17.3535 1.34766 18.7305-0.0292969Q20.1074-1.40625 20.8887-3.20801Q21.6699-5.00977 21.6699-7.05078Q21.6699-9.0918 20.8887-10.8936Q20.1074-12.6953 18.7305-14.0723Q17.3535-15.4492 15.5469-16.2305Q13.7402-17.0117 11.6992-17.0117Q9.6582-17.0117 7.85645-16.2305Q6.05469-15.4492 4.68262-14.0723Q3.31055-12.6953 2.5293-10.8936Q1.74805-9.0918 1.74805-7.05078Q1.74805-5.00977 2.5293-3.20801Q3.31055-1.40625 4.6875-0.0292969Q6.06445 1.34766 7.86621 2.12891Q9.66797 2.91016 11.709 2.91016ZM11.709 1.25Q9.98047 1.25 8.47656 0.605469Q6.97266-0.0390625 5.83496-1.17676Q4.69727-2.31445 4.05762-3.81836Q3.41797-5.32227 3.41797-7.05078Q3.41797-8.7793 4.05762-10.2832Q4.69727-11.7871 5.83008-12.9297Q6.96289-14.0723 8.4668-14.7119Q9.9707-15.3516 11.6992-15.3516Q13.4277-15.3516 14.9365-14.7119Q16.4453-14.0723 17.583-12.9297Q18.7207-11.7871 19.3652-10.2832Q20.0098-8.7793 20.0098-7.05078Q20.0098-5.32227 19.3701-3.81836Q18.7305-2.31445 17.5879-1.17676Q16.4453-0.0390625 14.9414 0.605469Q13.4375 1.25 11.709 1.25ZM7.17773-7.05078Q7.17773-6.69922 7.41211-6.47461Q7.64648-6.25 8.01758-6.25L10.8887-6.25L10.8887-3.36914Q10.8887-2.99805 11.1133-2.76855Q11.3379-2.53906 11.6895-2.53906Q12.0605-2.53906 12.29-2.76855Q12.5195-2.99805 12.5195-3.36914L12.5195-6.25L15.4004-6.25Q15.7715-6.25 16.001-6.47461Q16.2305-6.69922 16.2305-7.05078Q16.2305-7.42188 16.001-7.65137Q15.7715-7.88086 15.4004-7.88086L12.5195-7.88086L12.5195-10.752Q12.5195-11.1328 12.29-11.3623Q12.0605-11.5918 11.6895-11.5918Q11.3379-11.5918 11.1133-11.3574Q10.8887-11.123 10.8887-10.752L10.8887-7.88086L8.01758-7.88086Q7.63672-7.88086 7.40723-7.65137Q7.17773-7.42188 7.17773-7.05078Z"/>
  </g>
  <g transform="matrix(1 0 0 1 305.646 1933)">
   <path d="M14.9707 5.66406Q17.0605 5.66406 18.96 5.01465Q20.8594 4.36523 22.4512 3.19336Q24.043 2.02148 25.2197 0.429688Q26.3965-1.16211 27.0459-3.06641Q27.6953-4.9707 27.6953-7.05078Q27.6953-9.14062 27.0459-11.04Q26.3965-12.9395 25.2197-14.5312Q24.043-16.123 22.4512-17.2998Q20.8594-18.4766 18.9551-19.126Q17.0508-19.7754 14.9609-19.7754Q12.8711-19.7754 10.9717-19.126Q9.07227-18.4766 7.48535-17.2998Q5.89844-16.123 4.72168-14.5312Q3.54492-12.9395 2.90039-11.04Q2.25586-9.14062 2.25586-7.05078Q2.25586-4.9707 2.90527-3.06641Q3.55469-1.16211 4.72656 0.429688Q5.89844 2.02148 7.49023 3.19336Q9.08203 4.36523 10.9814 5.01465Q12.8809 5.66406 14.9707 5.66406ZM14.9707 3.84766Q13.1641 3.84766 11.5283 3.2959Q9.89258 2.74414 8.53516 1.74805Q7.17773 0.751953 6.17676-0.610352Q5.17578-1.97266 4.62891-3.6084Q4.08203-5.24414 4.08203-7.05078Q4.08203-8.86719 4.62891-10.5029Q5.17578-12.1387 6.17188-13.501Q7.16797-14.8633 8.52539-15.8594Q9.88281-16.8555 11.5186-17.4023Q13.1543-17.9492 14.9609-17.9492Q16.7773-17.9492 18.4131-17.4023Q20.0488-16.8555 21.4111-15.8594Q22.7734-14.8633 23.7744-13.501Q24.7754-12.1387 25.3223-10.5029Q25.8691-8.86719 25.8691-7.05078Q25.8691-5.24414 25.3223-3.6084Q24.7754-1.97266 23.7793-0.610352Q22.7832 0.751953 21.4209 1.74805Q20.0586 2.74414 18.4229 3.2959Q16.7871 3.84766 14.9707 3.84766ZM9.19922-7.05078Q9.19922-6.66992 9.45801-6.4209Q9.7168-6.17188 10.1172-6.17188L14.0625-6.17188L14.0625-2.2168Q14.0625-1.81641 14.3115-1.55762Q14.5605-1.29883 14.9512-1.29883Q15.3516-1.29883 15.6104-1.55273Q15.8691-1.80664 15.8691-2.2168L15.8691-6.17188L19.8242-6.17188Q20.2246-6.17188 20.4785-6.4209Q20.7324-6.66992 20.7324-7.05078Q20.7324-7.46094 20.4785-7.71484Q20.2246-7.96875 19.8242-7.96875L15.8691-7.96875L15.8691-11.9141Q15.8691-12.3242 15.6104-12.583Q15.3516-12.8418 14.9512-12.8418Q14.5605-12.8418 14.3115-12.583Q14.0625-12.3242 14.0625-11.9141L14.0625-7.96875L10.1172-7.96875Q9.70703-7.96875 9.45312-7.71484Q9.19922-7.46094 9.19922-7.05078Z"/>
  </g>
  <text style="stroke:none;fill:black;font-family:sans-serif;font-size:13;font-weight:bold;" transform="matrix(1 0 0 1 263 1953)">Design Variations</text>
  <text style="stroke:none;fill:black;font-family:sans-serif;font-size:13;" transform="matrix(1 0 0 1 263 1971)">Symbols are supported in up to nine weights and three scales.</text>
  <text style="stroke:none;fill:black;font-family:sans-serif;font-size:13;" transform="matrix(1 0 0 1 263 1989)">For optimal layout with text and other symbols, vertically align</text>
  <text style="stroke:none;fill:black;font-family:sans-serif;font-size:13;" transform="matrix(1 0 0 1 263 2007)">symbols with the adjacent text.</text>
  <line style="fill:none;stroke:#00AEEF;stroke-width:0.5;opacity:1.0;" x1="776" x2="776" y1="1919" y2="1933"/>
  <g transform="matrix(1 0 0 1 776 1933)">
   <path d="M3.31055 0.15625Q3.70117 0.15625 3.91602-0.00976562Q4.13086-0.175781 4.26758-0.585938L5.52734-4.0332L11.2891-4.0332L12.5488-0.585938Q12.6855-0.175781 12.9004-0.00976562Q13.1152 0.15625 13.4961 0.15625Q13.8867 0.15625 14.1162-0.0585938Q14.3457-0.273438 14.3457-0.644531Q14.3457-0.869141 14.2383-1.17188L9.6582-13.3691Q9.48242-13.8184 9.17969-14.043Q8.87695-14.2676 8.4082-14.2676Q7.5-14.2676 7.17773-13.3789L2.59766-1.16211Q2.49023-0.859375 2.49023-0.634766Q2.49023-0.263672 2.70996-0.0537109Q2.92969 0.15625 3.31055 0.15625ZM6.00586-5.51758L8.37891-12.0898L8.42773-12.0898L10.8008-5.51758Z"/>
  </g>
  <line style="fill:none;stroke:#00AEEF;stroke-width:0.5;opacity:1.0;" x1="793.197" x2="793.197" y1="1919" y2="1933"/>
  <text style="stroke:none;fill:black;font-family:sans-serif;font-size:13;font-weight:bold;" transform="matrix(1 0 0 1 776 1953)">Margins</text>
  <text style="stroke:none;fill:black;font-family:sans-serif;font-size:13;" transform="matrix(1 0 0 1 776 1971)">Leading and trailing margins on the left and right side of each symbol</text>
  <text style="stroke:none;fill:black;font-family:sans-serif;font-size:13;" transform="matrix(1 0 0 1 776 1989)">can be adjusted by modifying the x-location of the margin guidelines.</text>
  <text style="stroke:none;fill:black;font-family:sans-serif;font-size:13;" transform="matrix(1 0 0 1 776 2007)">Modifications are automatically applied proportionally to all</text>
  <text style="stroke:none;fill:black;font-family:sans-serif;font-size:13;" transform="matrix(1 0 0 1 776 2025)">scales and weights.</text>
  <g transform="matrix(1 0 0 1 1289 1933)">
   <path d="M2.8418 1.86523L4.54102 3.57422Q5.18555 4.22852 5.90332 4.17969Q6.62109 4.13086 7.31445 3.35938L18.0078-8.42773L17.041-9.4043L6.42578 2.27539Q6.16211 2.57812 5.89355 2.61719Q5.625 2.65625 5.27344 2.30469L4.10156 1.14258Q3.75 0.791016 3.79395 0.522461Q3.83789 0.253906 4.14062-0.0195312L15.6152-10.8203L14.6387-11.7871L3.04688-0.898438Q2.30469-0.214844 2.25098 0.498047Q2.19727 1.21094 2.8418 1.86523ZM9.25781-16.3281Q8.94531-16.0254 8.90625-15.6348Q8.86719-15.2441 9.04297-14.9512Q9.21875-14.6777 9.55566-14.541Q9.89258-14.4043 10.3809-14.5215Q11.4746-14.7754 12.5977-14.7314Q13.7207-14.6875 14.7949-13.9844L14.209-12.5293Q13.9551-11.9043 14.0674-11.4404Q14.1797-10.9766 14.5801-10.5664L16.875-8.25195Q17.2363-7.88086 17.5781-7.82227Q17.9199-7.76367 18.3398-7.8418L19.4043-8.03711L20.0684-7.36328L20.0293-6.80664Q20-6.43555 20.1221-6.12305Q20.2441-5.81055 20.6055-5.44922L21.3672-4.70703Q21.7285-4.3457 22.1533-4.33105Q22.5781-4.31641 22.9297-4.66797L25.8398-7.58789Q26.1914-7.93945 26.1816-8.35449Q26.1719-8.76953 25.8105-9.13086L25.0391-9.89258Q24.6875-10.2539 24.3799-10.3857Q24.0723-10.5176 23.7109-10.4883L23.1348-10.4395L22.4902-11.0742L22.7344-12.1973Q22.832-12.6172 22.6953-12.9834Q22.5586-13.3496 22.1191-13.7891L19.9219-15.9766Q18.6719-17.2168 17.2607-17.8369Q15.8496-18.457 14.4189-18.4814Q12.9883-18.5059 11.665-17.959Q10.3418-17.4121 9.25781-16.3281ZM10.752-15.957Q11.6602-16.6211 12.7002-16.9043Q13.7402-17.1875 14.8047-17.085Q15.8691-16.9824 16.8701-16.5137Q17.8711-16.0449 18.7012-15.2051L21.1328-12.793Q21.3086-12.6172 21.3525-12.4512Q21.3965-12.2852 21.3379-12.0312L21.0156-10.5469L22.5195-9.0625L23.5059-9.12109Q23.6914-9.13086 23.7891-9.09668Q23.8867-9.0625 24.0332-8.91602L24.6094-8.33984L22.168-5.89844L21.5918-6.47461Q21.4453-6.62109 21.4062-6.71875Q21.3672-6.81641 21.377-7.01172L21.4453-7.98828L19.9512-9.47266L18.4277-9.21875Q18.1836-9.16992 18.042-9.2041Q17.9004-9.23828 17.7148-9.41406L15.7129-11.416Q15.5176-11.5918 15.4932-11.7529Q15.4688-11.9141 15.5859-12.1875L16.4648-14.2773Q15.293-15.3711 13.8281-15.791Q12.3633-16.2109 10.8398-15.7617Q10.7227-15.7324 10.6885-15.8057Q10.6543-15.8789 10.752-15.957Z"/>
  </g>
  <text style="stroke:none;fill:black;font-family:sans-serif;font-size:13;font-weight:bold;" transform="matrix(1 0 0 1 1289 1953)">Exporting</text>
  <text style="stroke:none;fill:black;font-family:sans-serif;font-size:13;" transform="matrix(1 0 0 1 1289 1971)">Symbols should be outlined when exporting to ensure the</text>
  <text style="stroke:none;fill:black;font-family:sans-serif;font-size:13;" transform="matrix(1 0 0 1 1289 1989)">design is preserved when submitting to Xcode.</text>
  <text id="template-version" style="stroke:none;fill:black;font-family:sans-serif;font-size:13;text-anchor:end;" transform="matrix(1 0 0 1 3036 1933)">Template v.2.0</text>
  <text style="stroke:none;fill:black;font-family:sans-serif;font-size:13;text-anchor:end;" transform="matrix(1 0 0 1 3036 1951)">Requires Xcode 12 or greater</text>
  <text id="descriptive-name" style="stroke:none;fill:black;font-family:sans-serif;font-size:13;text-anchor:end;" transform="matrix(1 0 0 1 3036 1969)">Generated from figure.american.football</text>
  <text style="stroke:none;fill:black;font-family:sans-serif;font-size:13;text-anchor:end;" transform="matrix(1 0 0 1 3036 1987)">Typeset at 100 points</text>
  <text style="stroke:none;fill:black;font-family:sans-serif;font-size:13;" transform="matrix(1 0 0 1 263 726)">Small</text>
  <text style="stroke:none;fill:black;font-family:sans-serif;font-size:13;" transform="matrix(1 0 0 1 263 1156)">Medium</text>
  <text style="stroke:none;fill:black;font-family:sans-serif;font-size:13;" transform="matrix(1 0 0 1 263 1586)">Large</text>
 </g>
 <g id="Guides">
  <g id="H-reference" style="fill:#27AAE1;stroke:none;" transform="matrix(1 0 0 1 339 696)">
   <path d="M0.993347 0L3.6377 0L29.3282-67.1326L30.0301-67.1326L30.0301-70.459L28.1227-70.459ZM11.6882-24.4797L46.9818-24.4797L46.2311-26.7288L12.4382-26.7288ZM55.1193 0L57.7637 0L30.6381-70.459L29.4327-70.459L29.4327-67.1326Z"/>
  </g>
  <line id="Baseline-S" style="fill:none;stroke:#27AAE1;opacity:1;stroke-width:0.5;" x1="263" x2="3036" y1="696" y2="696"/>
  <line id="Capline-S" style="fill:none;stroke:#27AAE1;opacity:1;stroke-width:0.5;" x1="263" x2="3036" y1="625.541" y2="625.541"/>
  <g id="H-reference" style="fill:#27AAE1;stroke:none;" transform="matrix(1 0 0 1 339 1126)">
   <path d="M0.993347 0L3.6377 0L29.3282-67.1326L30.0301-67.1326L30.0301-70.459L28.1227-70.459ZM11.6882-24.4797L46.9818-24.4797L46.2311-26.7288L12.4382-26.7288ZM55.1193 0L57.7637 0L30.6381-70.459L29.4327-70.459L29.4327-67.1326Z"/>
  </g>
  <line id="Baseline-M" style="fill:none;stroke:#27AAE1;opacity:1;stroke-width:0.5;" x1="263" x2="3036" y1="1126" y2="1126"/>
  <line id="Capline-M" style="fill:none;stroke:#27AAE1;opacity:1;stroke-width:0.5;" x1="263" x2="3036" y1="1055.54" y2="1055.54"/>
  <g id="H-reference" style="fill:#27AAE1;stroke:none;" transform="matrix(1 0 0 1 339 1556)">
   <path d="M0.993347 0L3.6377 0L29.3282-67.1326L30.0301-67.1326L30.0301-70.459L28.1227-70.459ZM11.6882-24.4797L46.9818-24.4797L46.2311-26.7288L12.4382-26.7288ZM55.1193 0L57.7637 0L30.6381-70.459L29.4327-70.459L29.4327-67.1326Z"/>
  </g>
  <line id="Baseline-L" style="fill:none;stroke:#27AAE1;opacity:1;stroke-width:0.5;" x1="263" x2="3036" y1="1556" y2="1556"/>
  <line id="Capline-L" style="fill:none;stroke:#27AAE1;opacity:1;stroke-width:0.5;" x1="263" x2="3036" y1="1485.54" y2="1485.54"/>
  <line id="left-margin" style="fill:none;stroke:#00AEEF;stroke-width:0.5;opacity:1.0;" x1="1382.94" x2="1382.94" y1="1030.79" y2="1150.12"/>
  <line id="right-margin" style="fill:none;stroke:#00AEEF;stroke-width:0.5;opacity:1.0;" x1="1516.75" x2="1516.75" y1="1030.79" y2="1150.12"/>
 </g>
 <g id="Symbols">
  <g id="Black-L" transform="matrix(1 0 0 1 2842.47 1556)">
   <path d="M88.7586-82.4738Q95.183-82.4738 99.7257-87.0352Q104.268-91.5967 104.268-97.9418Q104.268-104.365 99.7257-108.897Q95.183-113.43 88.7586-113.43Q82.3939-113.43 77.8428-108.897Q73.2917-104.365 73.2917-97.9418Q73.2917-91.5967 77.8428-87.0352Q82.3939-82.4738 88.7586-82.4738ZM36.5182 25.1192Q33.4799 28.1563 33.8087 31.5807Q34.1376 35.0051 36.4157 37.1212Q38.4734 38.9984 41.7474 39.0782Q45.0213 39.158 47.8184 36.3402L72.6986 11.5404Q73.7096 10.5282 74.3477 9.31391L86.6515-13.7514Q87.8547-16.0368 90.4016-16.1721Q92.9486-16.3073 94.9423-14.8181L122.507 6.04349L122.507 34.5002Q122.507 38.3767 124.723 40.6724Q126.94 42.9682 130.495 42.9682Q134.051 42.9682 136.306 40.6724Q138.562 38.3767 138.562 34.5002L138.562 2.189Q138.562-1.3062 135.547-4.00201L104.286-30.8671L104.286-59.4183Q104.286-61.7414 106.791-62.1631L158.989-70.1063Q162.302-70.624 164.229-73.34Q166.157-76.056 165.697-79.3112Q165.179-82.6039 162.532-84.5714Q159.886-86.5388 156.572-86.0003L53.1036-70.3112L53.1036-91.758L37.19-91.758L37.19-60.6146Q37.19-56.9001 39.8652-54.7394Q42.5404-52.5787 46.3145-53.1184L68.5521-56.4901Q69.7844-56.6718 70.5146-56.005Q71.2448-55.3382 71.2448-54.1034L71.2448-28.1869L60.5502 1.08723ZM40.0446-81.9027Q46.2484-81.9027 52.2485-84.4894Q58.2485-87.076 62.2751-91.4558Q64.0987-93.3818 64.0987-95.6752Q64.0987-97.9685 62.2739-99.8958Q58.2485-104.274 52.2485-106.861Q46.2484-109.448 40.0446-109.448Q33.8967-109.448 27.8674-106.89Q21.8382-104.333 17.8712-99.9542Q13.9995-95.6648 17.8712-91.3962Q21.8382-87.076 27.8674-84.4894Q33.8967-81.9027 40.0446-81.9027Z"/>
  </g>
  <g id="Heavy-L" transform="matrix(1 0 0 1 2546.96 1556)">
   <path d="M87.6008-81.9117Q93.8427-81.9117 98.2602-86.3364Q102.678-90.7611 102.678-96.9281Q102.678-103.164 98.2602-107.567Q93.8427-111.969 87.6008-111.969Q81.4094-111.969 76.9997-107.567Q72.59-103.164 72.59-96.9281Q72.59-90.7611 76.9997-86.3364Q81.4094-81.9117 87.6008-81.9117ZM36.2088 24.3266Q33.2896 27.2401 33.5978 30.5065Q33.9059 33.7729 36.0925 35.7931Q38.0681 37.5832 41.1887 37.6607Q44.3094 37.7383 46.9873 35.0303L71.6292 10.4688Q72.5536 9.5388 73.1454 8.41659L85.3263-14.4441Q86.5448-16.746 89.1625-16.9014Q91.7802-17.0567 93.8065-15.5488L121.177 5.17761L121.177 33.4015Q121.177 37.1224 123.291 39.3107Q125.404 41.4989 128.803 41.4989Q132.208 41.4989 134.356 39.3107Q136.504 37.1224 136.504 33.4015L136.504 1.49241Q136.504-1.85663 133.626-4.424L102.668-31.0237L102.668-59.4479Q102.668-61.8586 105.269-62.2853L156.895-70.1336Q160.047-70.6193 161.893-73.214Q163.738-75.8087 163.291-78.9221Q162.806-82.05 160.273-83.9328Q157.741-85.8156 154.583-85.2997L52.1358-69.7728L52.1358-90.8567L36.9451-90.8567L36.9451-60.5802Q36.9451-57.0256 39.4968-54.9311Q42.0485-52.8366 45.6532-53.3581L67.7209-56.7077Q69.0088-56.8987 69.7898-56.1994Q70.5707-55.5001 70.5707-54.2008L70.5707-28.435L59.9748 0.560499ZM39.5152-81.6614Q45.5458-81.6614 51.4703-84.2023Q57.3949-86.7432 61.3205-91.0711Q62.9941-92.861 62.9941-94.9908Q62.9941-97.1206 61.3149-98.916Q57.3949-103.238 51.4703-105.779Q45.5458-108.32 39.5152-108.32Q33.5178-108.32 27.571-105.802Q21.6241-103.283 17.7487-98.9607Q14.1446-94.9756 17.7487-91.0209Q21.6241-86.7432 27.571-84.2023Q33.5178-81.6614 39.5152-81.6614Z"/>
  </g>
  <g id="Bold-L" transform="matrix(1 0 0 1 2251.82 1556)">
   <path d="M86.0969-81.1679Q92.1159-81.1679 96.3759-85.4235Q100.636-89.679 100.636-95.6307Q100.636-101.636 96.3759-105.877Q92.1159-110.119 86.0969-110.119Q80.1207-110.119 75.8839-105.877Q71.6472-101.636 71.6472-95.6307Q71.6472-89.679 75.8839-85.4235Q80.1207-81.1679 86.0969-81.1679ZM35.8171 23.2686Q33.0365 26.0359 33.3216 29.1175Q33.6066 32.1992 35.6855 34.1041Q37.5612 35.7939 40.5009 35.8677Q43.4407 35.9414 45.98 33.3642L70.2776 9.14699Q71.0945 8.31699 71.6399 7.29503L83.6671-15.3047Q84.8787-17.5848 87.5475-17.7707Q90.2163-17.9566 92.2736-16.4331L119.369 4.10193L119.369 31.9744Q119.369 35.5106 121.363 37.5719Q123.357 39.6331 126.572 39.6331Q129.799 39.6331 131.82 37.5719Q133.842 35.5106 133.842 31.9744L133.842 0.6168Q133.842-2.55533 131.125-4.97638L100.603-31.1935L100.603-59.382Q100.603-61.8854 103.305-62.3123L154.126-70.0302Q157.087-70.4776 158.836-72.9299Q160.585-75.3822 160.153-78.3264Q159.706-81.2617 157.309-83.0444Q154.911-84.8272 151.938-84.3419L50.9595-69.0448L50.9595-89.653L36.623-89.653L36.623-60.4374Q36.623-57.075 39.0285-55.0612Q41.434-53.0475 44.8385-53.5458L66.6465-56.8575Q67.9887-57.0562 68.8237-56.3258Q69.6587-55.5955 69.6587-54.2269L69.6587-28.7125L59.2081-0.122402ZM38.8695-81.2202Q44.6849-81.2202 50.5209-83.7072Q56.3569-86.1942 60.1669-90.4829Q61.6488-92.0964 61.6488-94.0151Q61.6488-95.9339 60.1538-97.5605Q56.3569-101.836 50.5209-104.323Q44.6849-106.81 38.8695-106.81Q33.0566-106.81 27.2059-104.338Q21.3553-101.865 17.5876-97.5897Q14.3363-93.9959 17.5876-90.4406Q21.3553-86.1942 27.2059-83.7072Q33.0566-81.2202 38.8695-81.2202Z"/>
  </g>
  <g id="Semibold-L" transform="matrix(1 0 0 1 1956.19 1556)">
   <path d="M85.0601-80.6551Q90.9255-80.6551 95.0769-84.7941Q99.2284-88.9331 99.2284-94.7364Q99.2284-100.583 95.0769-104.713Q90.9255-108.843 85.0601-108.843Q79.2322-108.843 75.1147-104.713Q70.9971-100.583 70.9971-94.7364Q70.9971-88.9331 75.1147-84.7941Q79.2322-80.6551 85.0601-80.6551ZM35.5471 22.5392Q32.862 25.2057 33.1312 28.16Q33.4003 31.1142 35.4048 32.9397Q37.2117 34.5604 40.0267 34.6315Q42.8418 34.7026 45.2856 32.2156L69.3459 8.23574Q70.0887 7.47467 70.602 6.52183L82.5233-15.8979Q83.7301-18.1631 86.4342-18.37Q89.1382-18.577 91.2168-17.0427L118.122 3.36036L118.122 30.9906Q118.122 34.3993 120.034 36.3731Q121.946 38.3469 125.033 38.3469Q128.139 38.3469 130.072 36.3731Q132.006 34.3993 132.006 30.9906L132.006 0.0131593Q132.006-3.03701 129.401-5.35718L99.1789-31.3106L99.1789-59.3365Q99.1789-61.9038 101.95-62.3308L152.218-69.959Q155.045-70.3799 156.728-72.734Q158.411-75.0881 157.99-77.9156Q157.57-80.7182 155.265-82.432Q152.96-84.1458 150.114-83.6817L50.1485-68.5429L50.1485-88.8232L36.401-88.8232L36.401-60.3389Q36.401-57.109 38.7057-55.1509Q41.0104-53.1928 44.2769-53.6753L65.9058-56.9607Q67.2854-57.1647 68.1576-56.413Q69.0299-55.6613 69.0299-54.2448L69.0299-28.9039L58.6795-0.593189ZM38.4243-80.9161Q44.0913-80.9161 49.8664-83.3659Q55.6414-85.8157 59.3717-90.0774Q60.7213-91.5692 60.7213-93.3425Q60.7213-95.1157 59.3534-96.6259Q55.6414-100.869 49.8664-103.319Q44.0913-105.769 38.4243-105.769Q32.7386-105.769 26.9543-103.328Q21.1699-100.888 17.4765-96.6445Q14.4685-93.3206 17.4765-90.0405Q21.1699-85.8157 26.9543-83.3659Q32.7386-80.9161 38.4243-80.9161Z"/>
  </g>
  <g id="Medium-L" transform="matrix(1 0 0 1 1660.3 1556)">
   <path d="M84.2739-80.2663Q90.0228-80.2663 94.092-84.3169Q98.1611-88.3675 98.1611-94.0582Q98.1611-99.7844 94.092-103.83Q90.0228-107.876 84.2739-107.876Q78.5586-107.876 74.5314-103.83Q70.5043-99.7844 70.5043-94.0582Q70.5043-88.3675 74.5314-84.3169Q78.5586-80.2663 84.2739-80.2663ZM35.3424 21.9862Q32.7298 24.5762 32.9868 27.4339Q33.2438 30.2916 35.1921 32.0567Q36.9467 33.6252 39.6672 33.6943Q42.3877 33.7634 44.7591 31.3447L68.6394 7.54478Q69.326 6.836 69.815 5.93556L81.656-16.3478Q82.8592-18.6015 85.59-18.8245Q88.3207-19.0474 90.4156-17.505L117.177 2.79807L117.177 30.2446Q117.177 33.5568 119.026 35.4642Q120.876 37.3716 123.866 37.3716Q126.88 37.3716 128.747 35.4642Q130.614 33.5568 130.614 30.2446L130.614-0.444547Q130.614-3.40223 128.094-5.64592L98.0994-31.3993L98.0994-59.3021Q98.0994-61.9178 100.923-62.3449L150.77-69.905Q153.498-70.3059 155.13-72.5855Q156.763-74.8651 156.35-77.6042Q155.95-80.3061 153.715-81.9677Q151.481-83.6292 148.731-83.1811L49.5336-68.1624L49.5336-88.194L36.2326-88.194L36.2326-60.2642Q36.2326-57.1348 38.4609-55.2189Q40.6892-53.303 43.851-53.7734L65.3443-57.039Q66.7521-57.2471 67.6526-56.4791Q68.5532-55.7111 68.5532-54.2584L68.5532-29.049L58.2787-0.95016ZM38.0868-80.6854Q43.6413-80.6854 49.3701-83.1071Q55.0989-85.5288 58.7687-89.7699Q60.018-91.1695 60.018-92.8325Q60.018-94.4954 58.7464-95.9173Q55.0989-100.136 49.3701-102.558Q43.6413-104.979 38.0868-104.979Q32.4975-104.979 26.7634-102.563Q21.0294-100.147 17.3923-95.9278Q14.5688-92.8085 17.3923-89.7371Q21.0294-85.5288 26.7634-83.1071Q32.4975-80.6854 38.0868-80.6854Z"/>
  </g>
  <g id="Regular-L" transform="matrix(1 0 0 1 1364.66 1556)">
   <path d="M83.2485-79.7591Q88.8454-79.7591 92.8072-83.6944Q96.769-87.6297 96.769-93.1737Q96.769-98.7427 92.8072-102.678Q88.8454-106.614 83.2485-106.614Q77.6799-106.614 73.7707-102.678Q69.8614-98.7427 69.8614-93.1737Q69.8614-87.6297 73.7707-83.6944Q77.6799-79.7591 83.2485-79.7591ZM35.0754 21.2648Q32.5572 23.7551 32.7985 26.4868Q33.0397 29.2186 34.9145 30.9051Q36.6011 32.4052 39.1982 32.4717Q41.7954 32.5382 44.0723 30.2088L67.7179 6.64354Q68.3311 6.00294 68.7885 5.17086L80.5248-16.9345Q81.7233-19.1734 84.4888-19.4172Q87.2544-19.661 89.3704-18.1079L115.944 2.06465L115.944 29.2716Q115.944 32.4578 117.712 34.2786Q119.48 36.0995 122.345 36.0995Q125.237 36.0995 127.018 34.2786Q128.798 32.4578 128.798 29.2716L128.798-1.04155Q128.798-3.87862 126.388-6.02254L96.6914-31.5151L96.6914-59.2571Q96.6914-61.9361 99.5837-62.3633L148.883-69.8346Q151.479-70.2092 153.046-72.3918Q154.613-74.5743 154.211-77.198Q153.836-79.7687 151.694-81.362Q149.551-82.9553 146.928-82.5281L48.7316-67.666L48.7316-87.3733L36.013-87.3733L36.013-60.1668Q36.013-57.1685 38.1416-55.3076Q40.2702-53.4468 43.2955-53.9014L64.6117-57.1411Q66.0565-57.3544 66.9939-56.5653Q67.9313-55.7762 67.9313-54.2761L67.9313-29.2382L57.756-1.41577ZM37.6465-80.3846Q43.0543-80.3846 48.7227-82.7696Q54.3912-85.1545 57.9822-89.3688Q59.1007-90.6482 59.1007-92.1672Q59.1007-93.6863 57.9548-94.993Q54.3912-99.1799 48.7227-101.565Q43.0543-103.95 37.6465-103.95Q32.183-103.95 26.5145-101.565Q20.8461-99.1799 17.2825-94.993Q14.6995-92.1405 17.2825-89.3414Q20.8461-85.1545 26.5145-82.7696Q32.183-80.3846 37.6465-80.3846Z"/>
  </g>
  <g id="Light-L" transform="matrix(1 0 0 1 1069.54 1556)">
   <path d="M81.7597-78.9386Q87.2233-78.9386 91.061-82.7592Q94.8987-86.5799 94.8987-92.0094Q94.8987-97.4258 91.061-101.247Q87.2233-105.068 81.7597-105.068Q76.3441-105.068 72.5397-101.247Q68.7353-97.4258 68.7353-92.0094Q68.7353-86.5799 72.5397-82.7592Q76.3441-78.9386 81.7597-78.9386ZM34.7509 20.0435Q32.2709 22.4763 32.5121 25.1508Q32.7534 27.8254 34.59 29.4548Q36.2195 30.9357 38.7498 30.9925Q41.2801 31.0494 43.5189 28.7774L66.611 5.76559Q67.1479 5.18238 67.6435 4.33106L79.2653-17.5454Q80.2919-19.4979 82.857-19.799Q85.4221-20.1 87.5-18.585L113.654 1.30117L113.654 27.8594Q113.654 30.969 115.393 32.7422Q117.132 34.5155 119.921 34.5155Q122.756 34.5155 124.489 32.7422Q126.222 30.969 126.222 27.8594L126.222-1.72872Q126.222-4.47023 123.869-6.59523L94.8784-31.4769L94.8784-58.551Q94.8784-61.1918 97.7134-61.5809L145.848-68.8803Q148.349-69.2361 149.887-71.3708Q151.425-73.5055 151.023-76.0529Q150.668-78.5662 148.573-80.1214Q146.478-81.6765 143.931-81.2874L48.0637-66.7691L48.0637-85.9801L35.6696-85.9801L35.6696-59.4226Q35.6696-56.5195 37.7409-54.7064Q39.8123-52.8933 42.761-53.3287L63.5812-56.4731Q64.9686-56.6673 65.8869-55.9163Q66.8052-55.1654 66.8052-53.6845L66.8052-29.2382L56.878-2.0837ZM37.2649-79.1632Q42.5197-79.1632 48.1596-81.5291Q53.7996-83.895 57.3713-88.2427Q58.3183-89.3505 58.3183-90.6691Q58.3183-91.9877 57.325-93.1419Q53.7996-97.4433 48.1596-99.8091Q42.5197-102.175 37.2649-102.175Q31.9159-102.175 26.276-99.8091Q20.6361-97.4433 17.1106-93.1419Q14.9096-90.6517 17.1106-88.1963Q20.6361-83.895 26.276-81.5291Q31.9159-79.1632 37.2649-79.1632Z"/>
  </g>
  <g id="Thin-L" transform="matrix(1 0 0 1 774.936 1556)">
   <path d="M79.7906-77.8533Q85.0778-77.8533 88.7513-81.5224Q92.4249-85.1914 92.4249-90.4695Q92.4249-95.684 88.7513-99.3537Q85.0778-103.023 79.7906-103.023Q74.5773-103.023 70.9116-99.3537Q67.2458-95.684 67.2458-90.4695Q67.2458-85.1914 70.9116-81.5224Q74.5773-77.8533 79.7906-77.8533ZM34.3217 18.4281Q31.8922 20.785 32.1334 23.3839Q32.3747 25.9827 34.1608 27.5366Q35.7148 28.992 38.1567 29.0362Q40.5986 29.0803 42.7869 26.8842L65.1471 4.60442Q65.583 4.09713 66.129 3.22036L77.5994-18.3533Q78.3987-19.9271 80.6988-20.3038Q82.9989-20.6806 85.0263-19.2161L110.625 0.291405L110.625 25.9917Q110.625 28.9999 112.326 30.7102Q114.028 32.4204 116.715 32.4204Q119.474 32.4204 121.144 30.7102Q122.814 28.9999 122.814 25.9917L122.814-2.63755Q122.814-5.25268 120.537-7.35267L92.4806-31.4265L92.4806-57.6172Q92.4806-60.2075 95.2396-60.5461L141.834-67.6182Q144.21-67.9489 145.71-70.0205Q147.21-72.092 146.808-74.5385Q146.478-76.9759 144.446-78.4805Q142.414-79.9852 139.968-79.6466L47.1803-65.5829L47.1803-84.1374L35.2154-84.1374L35.2154-58.4383Q35.2154-55.6611 37.211-53.9112Q39.2067-52.1614 42.054-52.5713L62.2181-55.5898Q63.5296-55.7584 64.4227-55.058Q65.3158-54.3575 65.3158-52.9021L65.3158-29.2382L55.7168-2.96709ZM36.7603-77.5479Q41.8128-77.5479 47.4149-79.8885Q53.0171-82.2291 56.5634-86.7532Q57.2836-87.6342 57.2836-88.6878Q57.2836-89.7413 56.4921-90.6936Q53.0171-95.1464 47.4149-97.487Q41.8128-99.8276 36.7603-99.8276Q31.5626-99.8276 25.9604-97.487Q20.3583-95.1464 16.8833-90.6936Q15.1873-88.6826 16.8833-86.6819Q20.3583-82.2291 25.9604-79.8885Q31.5626-77.5479 36.7603-77.5479Z"/>
  </g>
  <g id="Ultralight-L" transform="matrix(1 0 0 1 479.304 1556)">
   <path d="M78.7821-77.2975Q83.9789-77.2975 87.5684-80.8889Q91.1579-84.4803 91.1579-89.6808Q91.1579-94.7919 87.5684-98.384Q83.9789-101.976 78.7821-101.976Q73.6724-101.976 70.0777-98.384Q66.483-94.7919 66.483-89.6808Q66.483-84.4803 70.0777-80.8889Q73.6724-77.2975 78.7821-77.2975ZM34.1019 17.6007Q31.6982 19.9188 31.9394 22.4788Q32.1807 25.0389 33.941 26.5542Q35.4563 27.9965 37.8529 28.0342Q40.2495 28.0718 42.4119 25.9145L64.3972 4.00968Q64.7815 3.54126 65.3533 2.65147L76.7462-18.7671Q77.4291-20.147 79.5934-20.5624Q81.7577-20.9779 83.7593-19.5393L109.074-0.225792L109.074 25.0351Q109.074 27.9914 110.755 29.6694Q112.437 31.3474 115.073 31.3474Q117.793 31.3474 119.431 29.6694Q121.069 27.9914 121.069 25.0351L121.069-3.10305Q121.069-5.65345 118.83-7.74062L91.2524-31.4006L91.2524-57.1389Q91.2524-59.7034 93.9726-60.0161L139.779-66.9717Q142.089-67.2897 143.57-69.3289Q145.051-71.3681 144.649-73.7628Q144.332-76.1613 142.332-77.6401Q140.333-79.119 137.938-78.8062L46.7278-64.9754L46.7278-83.1936L34.9827-83.1936L34.9827-57.9341Q34.9827-55.2215 36.9396-53.5039Q38.8965-51.7864 41.6919-52.1834L61.52-55.1373Q62.7926-55.2929 63.6727-54.6183Q64.5529-53.9437 64.5529-52.5013L64.5529-29.2382L55.1221-3.41955ZM36.5018-76.7205Q41.4507-76.7205 47.0335-79.0482Q52.6163-81.3759 56.1496-85.9904Q56.7535-86.7551 56.7535-87.6729Q56.7535-88.5907 56.0655-89.4396Q52.6163-93.9699 47.0335-96.2976Q41.4507-98.6253 36.5018-98.6253Q31.3817-98.6253 25.7988-96.2976Q20.216-93.9699 16.7669-89.4396Q15.3296-87.6741 16.7669-85.9062Q20.216-81.3759 25.7988-79.0482Q31.3817-76.7205 36.5018-76.7205Z"/>
  </g>
  <g id="Black-M" transform="matrix(1 0 0 1 2862.13 1126)">
   <path d="M69.5583-72.2035Q74.6743-72.2035 78.2845-75.8395Q81.8947-79.4755 81.8947-84.5289Q81.8947-89.6452 78.2845-93.2526Q74.6743-96.8601 69.5583-96.8601Q64.4992-96.8601 60.8659-93.2526Q57.2327-89.6452 57.2327-84.5289Q57.2327-79.4755 60.8659-75.8395Q64.4992-72.2035 69.5583-72.2035ZM28.5141 12.0409Q26.063 14.4923 26.3356 17.2733Q26.6082 20.0544 28.4466 21.7685Q30.1036 23.2951 32.7628 23.3576Q35.422 23.42 37.6861 21.1504L57.0917 1.80706Q57.9391 0.959989 58.4784-0.0624471L68.1009-18.0769Q68.9966-19.7946 70.8818-19.8898Q72.767-19.9851 74.2785-18.8526L95.7434-2.61286L95.7434 19.546Q95.7434 22.6726 97.5454 24.5371Q99.3473 26.4017 102.225 26.4017Q105.102 26.4017 106.935 24.5371Q108.769 22.6726 108.769 19.546L108.769-5.73424Q108.769-8.5548 106.322-10.7512L81.9406-31.71L81.9406-53.8485Q81.9406-55.5678 83.7899-55.8851L124.564-62.0973Q127.255-62.5233 128.816-64.7253Q130.376-66.9273 130.008-69.5606Q129.582-72.2456 127.439-73.8374Q125.297-75.4293 122.607-74.9978L41.8829-62.7499L41.8829-79.6104L28.9766-79.6104L28.9766-54.8251Q28.9766-51.8229 31.1476-50.0985Q33.3186-48.3741 36.3777-48.8053L53.6849-51.4235Q54.584-51.5536 55.1036-51.0701Q55.6231-50.5866 55.6231-49.688L55.6231-29.5601L47.2863-6.73121ZM31.4275-71.4311Q36.362-71.4311 41.0716-73.4718Q45.7811-75.5125 48.9848-78.9684Q50.5033-80.5544 50.5033-82.4445Q50.5033-84.3347 48.9851-85.9204Q45.7811-89.3765 41.0716-91.4172Q36.362-93.4579 31.4275-93.4579Q26.5506-93.4579 21.8125-91.4458Q17.0744-89.4336 13.9275-85.9775Q10.7497-82.4418 13.9275-78.9115Q17.0744-75.5125 21.8125-73.4718Q26.5506-71.4311 31.4275-71.4311Z"/>
  </g>
  <g id="Heavy-M" transform="matrix(1 0 0 1 2566.45 1126)">
   <path d="M68.5639-71.7297Q73.5138-71.7297 77.013-75.2426Q80.5123-78.7554 80.5123-83.6453Q80.5123-88.5929 77.013-92.0839Q73.5138-95.575 68.5639-95.575Q63.6599-95.575 60.1553-92.0839Q56.6506-88.5929 56.6506-83.6453Q56.6506-78.7554 60.1553-75.2426Q63.6599-71.7297 68.5639-71.7297ZM28.2416 11.3787Q25.9034 13.7146 26.1557 16.3465Q26.4081 18.9784 28.1606 20.604Q29.7426 22.0472 32.2581 22.1084Q34.7735 22.1695 36.9248 20.0019L56.1484 0.840536Q56.9182 0.0685242 57.4088-0.862166L66.9216-18.6977Q67.8481-20.4579 69.821-20.5676Q71.7939-20.6772 73.3407-19.5229L94.6551-3.38888L94.6551 18.6022Q94.6551 21.5838 96.3589 23.3476Q98.0626 25.1115 100.795 25.1115Q103.53 25.1115 105.262 23.3476Q106.995 21.5838 106.995 18.6022L106.995-6.35182Q106.995-9.0383 104.678-11.1109L80.5254-31.8666L80.5254-53.9426Q80.5254-55.751 82.4748-56.0767L122.797-62.212Q125.34-62.6085 126.823-64.6963Q128.305-66.7841 127.95-69.286Q127.554-71.815 125.519-73.3276Q123.484-74.8403 120.939-74.4273L40.9984-62.3064L40.9984-78.8578L28.7689-78.8578L28.7689-54.8602Q28.7689-52.0054 30.8244-50.3413Q32.8799-48.6772 35.7805-49.0924L52.9674-51.6978Q53.9262-51.8388 54.4971-51.32Q55.068-50.8012 55.068-49.8379L55.068-29.8026L46.8048-7.18451ZM30.9452-71.3079Q35.7245-71.3079 40.3628-73.3056Q45.0012-75.3034 48.1079-78.6962Q49.4956-80.1649 49.4956-81.9137Q49.4956-83.6624 48.1057-85.1334Q45.0012-88.524 40.3628-90.5217Q35.7245-92.5195 30.9452-92.5195Q26.2049-92.5195 21.5447-90.5435Q16.8846-88.5676 13.8237-85.177Q10.8722-81.9055 13.8237-78.6503Q16.8846-75.3034 21.5447-73.3056Q26.2049-71.3079 30.9452-71.3079Z"/>
  </g>
  <g id="Bold-M" transform="matrix(1 0 0 1 2270.89 1126)">
   <path d="M67.4514-71.1998Q72.2155-71.1998 75.5907-74.5749Q78.9658-77.95 78.9658-82.6568Q78.9658-87.4157 75.5907-90.7766Q72.2155-94.1374 67.4514-94.1374Q62.7212-94.1374 59.3603-90.7766Q55.9995-87.4157 55.9995-82.6568Q55.9995-77.95 59.3603-74.5749Q62.7212-71.1998 67.4514-71.1998ZM27.9367 10.638Q25.7248 12.8447 25.9546 15.3097Q26.1843 17.7747 27.8406 19.3014Q29.3387 20.6513 31.6934 20.711Q34.0481 20.7707 36.0731 18.7172L55.0932-0.240664Q55.7762-0.928707 56.2122-1.75677L65.6023-19.3922Q66.5634-21.2 68.6344-21.3257Q70.7054-21.4514 72.2917-20.2727L93.4376-4.25697L93.4376 17.5465Q93.4376 20.3658 95.0316 22.017Q96.6255 23.6682 99.1958 23.6682Q101.771 23.6682 103.391 22.017Q105.011 20.3658 105.011 17.5465L105.011-7.04266Q105.011-9.57916 102.838-11.5132L78.9423-32.0418L78.9423-54.0478Q78.9423-55.956 81.0037-56.2911L120.82-62.3403Q123.198-62.7038 124.593-64.6639Q125.989-66.6239 125.649-68.9787Q125.285-71.3333 123.371-72.7573Q121.456-74.1813 119.073-73.7892L40.009-61.8102L40.009-78.0159L28.5365-78.0159L28.5365-54.8994Q28.5365-52.2096 30.4629-50.613Q32.3893-49.0163 35.1126-49.4135L52.1648-52.0047Q53.1904-52.1579 53.8187-51.5996Q54.4471-51.0413 54.4471-50.0054L54.4471-30.0739L46.2663-7.69159ZM30.4056-71.1701Q35.0113-71.1701 39.57-73.1197Q44.1287-75.0694 47.1271-78.3918Q48.3685-79.7293 48.3685-81.3199Q48.3685-82.9105 47.122-84.253Q44.1287-87.5704 39.57-89.52Q35.0113-91.4697 30.4056-91.4697Q25.8182-91.4697 21.2452-89.5343Q16.6722-87.5989 13.7075-84.2816Q11.0092-81.3055 13.7075-78.3582Q16.6722-75.0694 21.2452-73.1197Q25.8182-71.1701 30.4056-71.1701Z"/>
  </g>
  <g id="Semibold-M" transform="matrix(1 0 0 1 1974.97 1126)">
   <path d="M66.6845-70.8344Q71.3205-70.8344 74.6101-74.1145Q77.8997-77.3947 77.8997-81.9754Q77.8997-86.6042 74.6101-89.8753Q71.3205-93.1464 66.6845-93.1464Q62.074-93.1464 58.8123-89.8753Q55.5506-86.6042 55.5506-81.9754Q55.5506-77.3947 58.8123-74.1145Q62.074-70.8344 66.6845-70.8344ZM27.7265 10.1273Q25.6017 12.2449 25.8159 14.5949Q26.03 16.9449 27.6201 18.4033Q29.0603 19.6889 31.3042 19.7476Q33.5481 19.8063 35.4859 17.8315L54.3658-0.986038Q54.9889-1.61619 55.3872-2.3735L64.6928-19.871Q65.6777-21.7115 67.8163-21.8483Q69.9549-21.9852 71.5685-20.7896L92.5983-4.85543L92.5983 16.8186Q92.5983 19.5262 94.1165 21.0997Q95.6348 22.6732 98.0932 22.6732Q100.559 22.6732 102.101 21.0997Q103.643 19.5262 103.643 16.8186L103.643-7.51893Q103.643-9.95203 101.57-11.7906L77.8509-32.1625L77.8509-54.1203Q77.8509-56.0974 79.9896-56.4388L119.457-62.4287Q121.721-62.7695 123.056-64.6415Q124.392-66.5135 124.062-68.7669Q123.721-71.0013 121.89-72.3642Q120.058-73.7271 117.786-73.3493L39.3269-61.4681L39.3269-77.4355L28.3763-77.4355L28.3763-54.9264Q28.3763-52.3504 30.2137-50.8003Q32.051-49.2501 34.6521-49.6349L51.6115-52.2163Q52.6831-52.3779 53.351-51.7923Q54.019-51.2068 54.019-50.121L54.019-30.261L45.895-8.04117ZM30.0337-71.0751Q34.5196-71.0751 39.0234-72.9916Q43.5272-74.9081 46.4508-78.1819Q47.5914-79.4289 47.5914-80.9105Q47.5914-82.3921 46.4438-83.6461Q43.5272-86.9129 39.0234-88.8294Q34.5196-90.7459 30.0337-90.7459Q25.5516-90.7459 21.0387-88.8385Q16.5258-86.9311 13.6274-83.6643Q11.1036-80.8919 13.6274-78.1567Q16.5258-74.9081 21.0387-72.9916Q25.5516-71.0751 30.0337-71.0751Z"/>
  </g>
  <g id="Medium-M" transform="matrix(1 0 0 1 1678.86 1126)">
   <path d="M66.103-70.5574Q70.6419-70.5574 73.8666-73.7655Q77.0913-76.9736 77.0913-81.4587Q77.0913-85.9889 73.8666-89.1919Q70.6419-92.395 66.103-92.395Q61.5832-92.395 58.3967-89.1919Q55.2102-85.9889 55.2102-81.4587Q55.2102-76.9736 58.3967-73.7655Q61.5832-70.5574 66.103-70.5574ZM27.5671 9.74009Q25.5084 11.7902 25.7107 14.053Q25.913 16.3158 27.4528 17.7224Q28.8492 18.9592 31.009 19.0172Q33.1689 19.0751 35.0407 17.1599L53.8142-1.55121Q54.3919-2.13747 54.7617-2.84113L64.0032-20.234Q65.0061-22.0994 67.196-22.2446Q69.3859-22.3899 71.0201-21.1815L91.9619-5.3092L91.9619 16.2668Q91.9619 18.8895 93.4227 20.4041Q94.8836 21.9188 97.2573 21.9188Q99.6394 21.9188 101.123 20.4041Q102.606 18.8895 102.606 16.2668L102.606-7.88005Q102.606-10.2348 100.608-12.001L77.0234-32.2541L77.0234-54.1753Q77.0234-56.2045 79.2206-56.5509L118.423-62.4958Q120.601-62.8194 121.891-64.6246Q123.181-66.4298 122.859-68.6063Q122.536-70.7495 120.767-72.0661Q118.998-73.3826 116.811-73.0157L38.8097-61.2088L38.8097-76.9955L28.2549-76.9955L28.2549-54.9469Q28.2549-52.4571 30.0247-50.9423Q31.7945-49.4274 34.3029-49.8028L51.1919-52.3767Q52.2985-52.5446 52.9964-51.9385Q53.6944-51.3323 53.6944-50.2086L53.6944-30.4028L45.6135-8.30623ZM29.7516-71.003Q34.1468-71.003 38.609-72.8944Q43.0711-74.7858 45.9381-78.0228Q47.0022-79.2012 47.0022-80.6001Q47.0022-81.999 45.9296-83.1859Q43.0711-86.4144 38.609-88.3058Q34.1468-90.1972 29.7516-90.1972Q25.3494-90.1972 20.8821-88.3109Q16.4148-86.4247 13.5666-83.1962Q11.1752-80.5783 13.5666-78.004Q16.4148-74.7858 20.8821-72.8944Q25.3494-71.003 29.7516-71.003Z"/>
  </g>
  <g id="Regular-M" transform="matrix(1 0 0 1 1382.94 1126)">
   <path d="M65.3445-70.1961Q69.7567-70.1961 72.8968-73.3102Q76.0369-76.4244 76.0369-80.7847Q76.0369-85.1863 72.8968-88.3006Q69.7567-91.4148 65.3445-91.4148Q60.9431-91.4148 57.8547-88.3006Q54.7663-85.1863 54.7663-80.7847Q54.7663-76.4244 57.8547-73.3102Q60.9431-70.1961 65.3445-70.1961ZM27.3593 9.23503Q25.3866 11.1971 25.5735 13.3461Q25.7604 15.4951 27.2347 16.8342Q28.5738 18.0074 30.6241 18.0644Q32.6743 18.1214 34.46 16.284L53.0947-2.28839Q53.6133-2.8174 53.9459-3.45109L63.1037-20.7075Q64.1302-22.6053 66.3869-22.7615Q68.6437-22.9178 70.3049-21.6928L91.1318-5.90108L91.1318 15.5469Q91.1318 18.0591 92.5178 19.4969Q93.9038 20.9347 96.1669 20.9347Q98.4404 20.9347 99.8471 19.4969Q101.254 18.0591 101.254 15.5469L101.254-8.35108Q101.254-10.6035 99.3539-12.2753L75.944-32.3735L75.944-54.2471Q75.944-56.3443 78.2175-56.6971L117.075-62.5833Q119.141-62.8843 120.371-64.6025Q121.601-66.3206 121.29-68.3968Q120.989-70.4211 119.302-71.6772Q117.615-72.9334 115.539-72.5806L38.135-60.8705L38.135-76.4215L28.0965-76.4215L28.0965-54.9736Q28.0965-52.5964 29.7782-51.1275Q31.4599-49.6586 33.8475-50.0218L50.6447-52.5859Q51.7968-52.7622 52.5339-52.1291Q53.271-51.496 53.271-50.3228L53.271-30.5878L45.2463-8.65197ZM29.3838-70.9091Q33.6605-70.9091 38.0684-72.7676Q42.4763-74.6262 45.2693-77.8152Q46.2337-78.9042 46.2337-80.1952Q46.2337-81.4863 45.2589-82.5857Q42.4763-85.7642 38.0684-87.6228Q33.6605-89.4814 29.3838-89.4814Q25.0857-89.4814 20.6779-87.6228Q16.27-85.7642 13.4874-82.5857Q11.2687-80.1692 13.4874-77.8048Q16.27-74.6262 20.6779-72.7676Q25.0857-70.9091 29.3838-70.9091Z"/>
  </g>
  <g id="Light-M" transform="matrix(1 0 0 1 1087.66 1126)">
   <path d="M64.0097-69.4604Q68.3023-69.4604 71.3312-72.4718Q74.36-75.4832 74.36-79.7409Q74.36-84.0056 71.3312-87.0172Q68.3023-90.0289 64.0097-90.0289Q59.7455-90.0289 56.7511-87.0172Q53.7566-84.0056 53.7566-79.7409Q53.7566-75.4832 56.7511-72.4718Q59.7455-69.4604 64.0097-69.4604ZM27.0683 8.14Q25.1299 10.0506 25.3168 12.1483Q25.5037 14.246 26.9437 15.534Q28.2317 16.6899 30.222 16.7382Q32.2123 16.7866 33.9638 15.0006L52.1023-3.07553Q52.5524-3.55308 52.9193-4.20401L61.9744-21.2552Q62.8468-22.8962 64.9239-23.1038Q67.001-23.3113 68.628-22.1206L89.0786-6.58558L89.0786 14.2809Q89.0786 16.7243 90.4388 18.1194Q91.7991 19.5146 93.9938 19.5146Q96.2158 19.5146 97.5798 18.1194Q98.9438 16.7243 98.9438 14.2809L98.9438-8.96716Q98.9438-11.1339 97.0951-12.7887L74.3186-32.3393L74.3186-53.614Q74.3186-55.6771 76.5406-55.9956L114.354-61.7277Q116.335-62.0118 117.539-63.6871Q118.744-65.3624 118.432-67.3701Q118.148-69.343 116.504-70.565Q114.86-71.7869 112.852-71.4684L37.5362-60.0664L37.5362-75.1723L27.7886-75.1723L27.7886-54.3064Q27.7886-52.0145 29.419-50.5884Q31.0494-49.1624 33.3682-49.5083L49.7207-51.9871Q50.8213-52.1461 51.5413-51.5472Q52.2613-50.9483 52.2613-49.7924L52.2613-30.5878L44.4591-9.2508ZM29.0417-69.814Q33.1813-69.814 37.5636-71.6555Q41.9458-73.497 44.7217-76.8056Q45.5322-77.7407 45.5322-78.8521Q45.5322-79.9635 44.6943-80.9261Q41.9458-84.2072 37.5636-86.0487Q33.1813-87.8902 29.0417-87.8902Q24.8463-87.8902 20.464-86.0487Q16.0817-84.2072 13.3333-80.9261Q11.457-78.8344 13.3333-76.7782Q16.0817-73.497 20.464-71.6555Q24.8463-69.814 29.0417-69.814Z"/>
  </g>
  <g id="Thin-M" transform="matrix(1 0 0 1 792.834 1126)">
   <path d="M62.2444-68.4874Q66.3788-68.4874 69.2605-71.3629Q72.1422-74.2383 72.1422-78.3603Q72.1422-82.444 69.2605-85.3199Q66.3788-88.1958 62.2444-88.1958Q58.1615-88.1958 55.2914-85.3199Q52.4213-82.444 52.4213-78.3603Q52.4213-74.2383 55.2914-71.3629Q58.1615-68.4874 62.2444-68.4874ZM26.6836 6.69174Q24.7904 8.53424 24.9773 10.5641Q25.1642 12.5939 26.5589 13.8142Q27.7792 14.9473 29.6903 14.9843Q31.6013 15.0212 33.3076 13.3033L50.7898-4.11657Q51.1494-4.52606 51.5615-5.19981L60.4809-21.9795Q61.1495-23.281 62.989-23.5564Q64.8284-23.8319 66.4101-22.6863L86.363-7.49089L86.363 12.6064Q86.363 14.9589 87.6893 16.2976Q89.0155 17.6363 91.1197 17.6363Q93.2737 17.6363 94.5812 16.2976Q95.8887 14.9589 95.8887 12.6064L95.8887-9.78197Q95.8887-11.8354 94.1077-13.4678L72.1688-32.2941L72.1688-52.7768Q72.1688-54.7946 74.3228-55.0678L110.756-60.5962Q112.623-60.8579 113.794-62.4765Q114.964-64.0951 114.653-66.0124Q114.392-67.9172 112.804-69.0939Q111.216-70.2706 109.299-69.9973L36.7442-59.0029L36.7442-73.5203L27.3814-73.5203L27.3814-53.4239Q27.3814-51.2449 28.9439-49.8755Q30.5065-48.5061 32.7344-48.8293L48.4987-51.1951Q49.5312-51.3313 50.2286-50.7777Q50.926-50.224 50.926-49.0909L50.926-30.5878L43.4181-10.0428ZM28.5892-68.3658Q32.5475-68.3658 36.8959-70.1846Q41.2443-72.0035 43.9974-75.4702Q44.6045-76.202 44.6045-77.0757Q44.6045-77.9495 43.9475-78.731Q41.2443-82.1479 36.8959-83.9668Q32.5475-85.7857 28.5892-85.7857Q24.5295-85.7857 20.1811-83.9668Q15.8327-82.1479 13.1295-78.731Q11.706-77.0691 13.1295-75.4204Q15.8327-72.0035 20.1811-70.1846Q24.5295-68.3658 28.5892-68.3658Z"/>
  </g>
  <g id="Ultralight-M" transform="matrix(1 0 0 1 497.091 1126)">
   <path d="M61.3401-67.9891Q65.3936-67.9891 68.1999-70.7949Q71.0062-73.6007 71.0062-77.6532Q71.0062-81.6442 68.1999-84.4506Q65.3936-87.2569 61.3401-87.2569Q57.3502-87.2569 54.5438-84.4506Q51.7374-81.6442 51.7374-77.6532Q51.7374-73.6007 54.5438-70.7949Q57.3502-67.9891 61.3401-67.9891ZM26.4865 5.94995Q24.6164 7.75759 24.8034 9.75266Q24.9903 11.7477 26.3619 12.9334Q27.5475 14.0548 29.4179 14.0859Q31.2883 14.117 32.9715 12.434L50.1175-4.64979Q50.4308-5.02442 50.8661-5.70985L59.716-22.3505Q60.2802-23.4781 61.9979-23.7883Q63.7157-24.0985 65.2742-22.9761L84.9721-7.95459L84.9721 11.7487Q84.9721 14.0547 86.2809 15.3645Q87.5897 16.6742 89.6476 16.6742Q91.7667 16.6742 93.0453 15.3645Q94.3239 14.0547 94.3239 11.7487L94.3239-10.1993Q94.3239-12.1948 92.5776-13.8156L71.0677-32.2709L71.0677-52.3479Q71.0677-54.3426 73.1869-54.5927L108.913-60.0166Q110.722-60.2668 111.875-61.8564Q113.028-63.446 112.717-65.3169Q112.468-67.1869 110.909-68.3404Q109.35-69.4939 107.479-69.2438L36.3386-58.4582L36.3386-72.6741L27.1728-72.6741L27.1728-52.9719Q27.1728-50.8508 28.7006-49.5104Q30.2284-48.17 32.4097-48.4814L47.8728-50.7894Q48.8705-50.914 49.5563-50.3835Q50.242-49.853 50.242-48.7316L50.242-30.5878L42.8849-10.4485ZM28.3575-67.624Q32.2228-67.624 36.5539-69.4312Q40.885-71.2385 43.6264-74.7863Q44.1293-75.4138 44.1293-76.1658Q44.1293-76.9179 43.565-77.6068Q40.885-81.0932 36.5539-82.9005Q32.2228-84.7077 28.3575-84.7077Q24.3673-84.7077 20.0362-82.9005Q15.7051-81.0932 13.0251-77.6068Q11.8336-76.1648 13.0251-74.7249Q15.7051-71.2385 20.0362-69.4312Q24.3673-67.624 28.3575-67.624Z"/>
  </g>
  <g id="Black-S" transform="matrix(1 0 0 1 2877.32 696)">
   <path d="M54.7363-64.3066Q58.7891-64.3066 61.6455-67.1875Q64.502-70.0684 64.502-74.0723Q64.502-78.125 61.6455-80.9814Q58.7891-83.8379 54.7363-83.8379Q50.7324-83.8379 47.8516-80.9814Q44.9707-78.125 44.9707-74.0723Q44.9707-70.0684 47.8516-67.1875Q50.7324-64.3066 54.7363-64.3066ZM22.4121 1.95312Q20.459 3.90625 20.6787 6.12793Q20.8984 8.34961 22.3633 9.7168Q23.6816 10.9375 25.8057 10.9863Q27.9297 11.0352 29.7363 9.22852L44.9707-5.95703Q45.6543-6.64062 46.0938-7.4707L53.6621-21.6309Q54.3457-22.9492 55.7861-23.0225Q57.2266-23.0957 58.3984-22.2168L75.2441-9.47266L75.2441 7.91016Q75.2441 10.4004 76.6846 11.8896Q78.125 13.3789 80.4199 13.3789Q82.7148 13.3789 84.1797 11.8896Q85.6445 10.4004 85.6445 7.91016L85.6445-11.9629Q85.6445-14.209 83.6914-15.9668L64.5508-32.4219L64.5508-49.7559Q64.5508-51.0742 65.9668-51.3184L97.998-56.2012Q100.146-56.543 101.392-58.3008Q102.637-60.0586 102.344-62.1582Q102.002-64.3066 100.293-65.5762Q98.584-66.8457 96.4355-66.5039L33.0566-56.8848L33.0566-70.166L22.7539-70.166L22.7539-50.5371Q22.7539-48.1445 24.4873-46.7773Q26.2207-45.4102 28.6621-45.752L42.2363-47.8027Q42.9199-47.9004 43.3105-47.5342Q43.7012-47.168 43.7012-46.4844L43.7012-30.7129L37.1582-12.793ZM24.7559-63.5742Q28.6621-63.5742 32.373-65.1855Q36.084-66.7969 38.623-69.5312Q39.8438-70.8008 39.8438-72.3145Q39.8438-73.8281 38.623-75.0977Q36.084-77.832 32.373-79.4434Q28.6621-81.0547 24.7559-81.0547Q20.8984-81.0547 17.1631-79.4678Q13.4277-77.8809 10.9375-75.1465Q8.39844-72.3145 10.9375-69.4824Q13.4277-66.7969 17.1631-65.1855Q20.8984-63.5742 24.7559-63.5742Z"/>
  </g>
  <g id="Heavy-S" transform="matrix(1 0 0 1 2581.31 696)">
   <path d="M54.0564-63.9955Q57.9823-63.9955 60.7581-66.7841Q63.5339-69.5728 63.5339-73.4499Q63.5339-77.3759 60.7581-80.1459Q57.9823-82.9159 54.0564-82.9159Q50.1677-82.9159 47.3848-80.1459Q44.6019-77.3759 44.6019-73.4499Q44.6019-69.5728 47.3848-66.7841Q50.1677-63.9955 54.0564-63.9955ZM22.2162 1.52672Q20.3553 3.38765 20.5577 5.48832Q20.7601 7.58899 22.1558 8.88704Q23.4166 10.0386 25.4254 10.0874Q27.4341 10.1362 29.1486 8.41028L44.2908-6.68307Q44.9167-7.30904 45.3101-8.05845L52.7978-22.0918Q53.5275-23.4793 55.0659-23.5583Q56.6042-23.6374 57.8107-22.7354L74.5757-10.0489L74.5757 7.26479Q74.5757 9.63978 75.9355 11.0484Q77.2952 12.4569 79.4749 12.4569Q81.6546 12.4569 83.0388 11.0484Q84.4229 9.63978 84.4229 7.26479L84.4229-12.4123Q84.4229-14.5547 82.5735-16.2088L63.5482-32.5602L63.5482-49.9172Q63.5482-51.3162 65.0564-51.5719L96.8341-56.4086Q98.8673-56.7274 100.049-58.393Q101.231-60.0586 100.949-62.0545Q100.631-64.0762 99.008-65.2823Q97.3854-66.4884 95.3522-66.1582L32.3767-56.6082L32.3767-69.682L22.6156-69.682L22.6156-50.6524Q22.6156-48.375 24.2568-47.0539Q25.898-45.7328 28.2127-46.0631L41.7408-48.1139Q42.482-48.2231 42.9187-47.8223Q43.3554-47.4215 43.3554-46.6803L43.3554-30.9203L36.847-13.1041ZM24.3871-63.6088Q28.1781-63.6088 31.8314-65.1855Q35.4847-66.7623 37.9431-69.4275Q39.0716-70.6164 39.0716-72.0321Q39.0716-73.4478 37.9431-74.6367Q35.4847-77.3019 31.8314-78.8787Q28.1781-80.4554 24.3871-80.4554Q20.6334-80.4554 16.9614-78.8973Q13.2894-77.3392 10.8684-74.674Q8.47911-72.0263 10.8684-69.3902Q13.2894-66.7623 16.9614-65.1855Q20.6334-63.6088 24.3871-63.6088Z"/>
  </g>
  <g id="Bold-S" transform="matrix(1 0 0 1 2285.38 696)">
   <path d="M53.2959-63.6475Q57.0801-63.6475 59.7656-66.333Q62.4512-69.0186 62.4512-72.7539Q62.4512-76.5381 59.7656-79.2114Q57.0801-81.8848 53.2959-81.8848Q49.5361-81.8848 46.8628-79.2114Q44.1895-76.5381 44.1895-72.7539Q44.1895-69.0186 46.8628-66.333Q49.5361-63.6475 53.2959-63.6475ZM21.9971 1.0498Q20.2393 2.80762 20.4224 4.77295Q20.6055 6.73828 21.9238 7.95898Q23.1201 9.0332 25 9.08203Q26.8799 9.13086 28.4912 7.49512L43.5303-7.49512Q44.0918-8.05664 44.4336-8.71582L51.8311-22.6074Q52.6123-24.0723 54.2603-24.1577Q55.9082-24.2432 57.1533-23.3154L73.8281-10.6934L73.8281 6.54297Q73.8281 8.78906 75.0977 10.1074Q76.3672 11.4258 78.418 11.4258Q80.4688 11.4258 81.7627 10.1074Q83.0566 8.78906 83.0566 6.54297L83.0566-12.915Q83.0566-14.9414 81.3232-16.4795L62.4268-32.7148L62.4268-50.0977Q62.4268-51.5869 64.0381-51.8555L95.5322-56.6406Q97.4365-56.9336 98.5474-58.4961Q99.6582-60.0586 99.3896-61.9385Q99.0967-63.8184 97.5708-64.9536Q96.0449-66.0889 94.1406-65.7715L31.6162-56.2988L31.6162-69.1406L22.4609-69.1406L22.4609-50.7812Q22.4609-48.6328 23.999-47.3633Q25.5371-46.0938 27.71-46.4111L41.1865-48.4619Q41.9922-48.584 42.4805-48.1445Q42.9688-47.7051 42.9688-46.8994L42.9688-31.1523L36.499-13.4521ZM23.9746-63.6475Q27.6367-63.6475 31.2256-65.1855Q34.8145-66.7236 37.1826-69.3115Q38.208-70.4102 38.208-71.7163Q38.208-73.0225 37.1826-74.1211Q34.8145-76.709 31.2256-78.2471Q27.6367-79.7852 23.9746-79.7852Q20.3369-79.7852 16.7358-78.2593Q13.1348-76.7334 10.791-74.1455Q8.56934-71.7041 10.791-69.2871Q13.1348-66.7236 16.7358-65.1855Q20.3369-63.6475 23.9746-63.6475Z"/>
  </g>
  <g id="Semibold-S" transform="matrix(1 0 0 1 1989.2 696)">
   <path d="M52.7716-63.4075Q56.458-63.4075 59.0813-66.022Q61.7047-68.6364 61.7047-72.274Q61.7047-75.9604 59.0813-78.5671Q56.458-81.1738 52.7716-81.1738Q49.1007-81.1738 46.5029-78.5671Q43.9051-75.9604 43.9051-72.274Q43.9051-68.6364 46.5029-66.022Q49.1007-63.4075 52.7716-63.4075ZM21.846 0.720996Q20.1593 2.40771 20.3291 4.27974Q20.4988 6.15176 21.7639 7.31914Q22.9157 8.34004 24.7067 8.38887Q26.4978 8.4377 28.038 6.86416L43.006-8.05498Q43.523-8.57207 43.8293-9.16904L51.1646-22.9629Q51.9813-24.4811 53.7048-24.5709Q55.4283-24.6608 56.7001-23.7153L73.3127-11.1377L73.3127 6.04531Q73.3127 8.20254 74.52 9.45869Q75.7273 10.7148 77.6893 10.7148Q79.6512 10.7148 80.8829 9.45869Q82.1146 8.20254 82.1146 6.04531L82.1146-13.2616Q82.1146-15.208 80.4612-16.6661L61.6536-32.8215L61.6536-50.2221Q61.6536-51.7735 63.336-52.051L94.6347-56.8006Q96.4501-57.0758 97.5121-58.5672Q98.574-60.0586 98.3144-61.8585Q98.0392-63.6406 96.5799-64.727Q95.1207-65.8134 93.3053-65.5049L31.0919-56.0855L31.0919-68.7674L22.3543-68.7674L22.3543-50.8701Q22.3543-48.8105 23.8213-47.5766Q25.2883-46.3426 27.3634-46.6511L40.8044-48.7019Q41.6545-48.8328 42.1783-48.3667Q42.7021-47.9006 42.7021-47.0505L42.7021-31.3123L36.2591-13.6921ZM23.6902-63.6741Q27.2635-63.6741 30.8079-65.1855Q34.3523-66.697 36.6583-69.2315Q37.6126-70.268 37.6126-71.4986Q37.6126-72.7292 36.6583-73.7656Q34.3523-76.3002 30.8079-77.8116Q27.2635-79.323 23.6902-79.323Q20.1325-79.323 16.5803-77.8194Q13.0281-76.3157 10.7377-73.7812Q8.63154-71.4819 10.7377-69.216Q13.0281-66.697 16.5803-65.1855Q20.1325-63.6741 23.6902-63.6741Z"/>
  </g>
  <g id="Medium-S" transform="matrix(1 0 0 1 1692.9 696)">
   <path d="M52.374-63.2256Q55.9863-63.2256 58.5625-65.7861Q61.1387-68.3467 61.1387-71.9102Q61.1387-75.5225 58.5625-78.0786Q55.9863-80.6348 52.374-80.6348Q48.7705-80.6348 46.23-78.0786Q43.6895-75.5225 43.6895-71.9102Q43.6895-68.3467 46.23-65.7861Q48.7705-63.2256 52.374-63.2256ZM21.7314 0.47168Q20.0986 2.10449 20.2583 3.90576Q20.418 5.70703 21.6426 6.83398Q22.7607 7.81445 24.4844 7.86328Q26.208 7.91211 27.6943 6.38574L42.6084-8.47949Q43.0918-8.96289 43.3711-9.5127L50.6592-23.2324Q51.5029-24.791 53.2837-24.8843Q55.0645-24.9775 56.3564-24.0186L72.9219-11.4746L72.9219 5.66797Q72.9219 7.75781 74.082 8.9668Q75.2422 10.1758 77.1367 10.1758Q79.0312 10.1758 80.2158 8.9668Q81.4004 7.75781 81.4004 5.66797L81.4004-13.5244Q81.4004-15.4102 79.8076-16.8076L61.0674-32.9023L61.0674-50.3164Q61.0674-51.915 62.8037-52.1992L93.9541-56.9219Q95.7021-57.1836 96.7271-58.6211Q97.752-60.0586 97.499-61.7979Q97.2373-63.5059 95.8286-64.5552Q94.4199-65.6045 92.6719-65.3027L30.6943-55.9238L30.6943-68.4844L22.2734-68.4844L22.2734-50.9375Q22.2734-48.9453 23.6865-47.7383Q25.0996-46.5312 27.1006-46.833L40.5146-48.8838Q41.3984-49.0215 41.9492-48.5352Q42.5-48.0488 42.5-47.165L42.5-31.4336L36.0771-13.874ZM23.4746-63.6943Q26.9805-63.6943 30.4912-65.1855Q34.002-66.6768 36.2607-69.1709Q37.1611-70.1602 37.1611-71.3335Q37.1611-72.5068 36.2607-73.4961Q34.002-75.9902 30.4912-77.4814Q26.9805-78.9727 23.4746-78.9727Q19.9775-78.9727 16.4624-77.4858Q12.9473-75.999 10.6973-73.5049Q8.67871-71.3135 10.6973-69.1621Q12.9473-66.6768 16.4624-65.1855Q19.9775-63.6943 23.4746-63.6943Z"/>
  </g>
  <g id="Regular-S" transform="matrix(1 0 0 1 1396.72 696)">
   <path d="M51.8555-62.9883Q55.3711-62.9883 57.8857-65.4785Q60.4004-67.9688 60.4004-71.4355Q60.4004-74.9512 57.8857-77.4414Q55.3711-79.9316 51.8555-79.9316Q48.3398-79.9316 45.874-77.4414Q43.4082-74.9512 43.4082-71.4355Q43.4082-67.9688 45.874-65.4785Q48.3398-62.9883 51.8555-62.9883ZM21.582 0.146484Q20.0195 1.70898 20.166 3.41797Q20.3125 5.12695 21.4844 6.20117Q22.5586 7.12891 24.1943 7.17773Q25.8301 7.22656 27.2461 5.76172L42.0898-9.0332Q42.5293-9.47266 42.7734-9.96094L50-23.584Q50.8789-25.1953 52.7344-25.293Q54.5898-25.3906 55.9082-24.4141L72.4121-11.9141L72.4121 5.17578Q72.4121 7.17773 73.5107 8.3252Q74.6094 9.47266 76.416 9.47266Q78.2227 9.47266 79.3457 8.3252Q80.4688 7.17773 80.4688 5.17578L80.4688-13.8672Q80.4688-15.6738 78.9551-16.9922L60.3027-33.0078L60.3027-50.4395Q60.3027-52.0996 62.1094-52.3926L93.0664-57.0801Q94.7266-57.3242 95.7031-58.6914Q96.6797-60.0586 96.4355-61.7188Q96.1914-63.3301 94.8486-64.3311Q93.5059-65.332 91.8457-65.0391L30.1758-55.7129L30.1758-68.1152L22.168-68.1152L22.168-51.0254Q22.168-49.1211 23.5107-47.9492Q24.8535-46.7773 26.7578-47.0703L40.1367-49.1211Q41.0645-49.2676 41.6504-48.7549Q42.2363-48.2422 42.2363-47.3145L42.2363-31.5918L35.8398-14.1113ZM23.1934-63.7207Q26.6113-63.7207 30.0781-65.1855Q33.5449-66.6504 35.7422-69.0918Q36.5723-70.0195 36.5723-71.1182Q36.5723-72.2168 35.7422-73.1445Q33.5449-75.5859 30.0781-77.0508Q26.6113-78.5156 23.1934-78.5156Q19.7754-78.5156 16.3086-77.0508Q12.8418-75.5859 10.6445-73.1445Q8.74023-71.0938 10.6445-69.0918Q12.8418-66.6504 16.3086-65.1855Q19.7754-63.7207 23.1934-63.7207Z"/>
  </g>
  <g id="Light-S" transform="matrix(1 0 0 1 1101.27 696)">
   <path d="M50.6747-62.3375Q54.0845-62.3375 56.5008-64.7368Q58.917-67.1361 58.917-70.5121Q58.917-73.9067 56.5008-76.3062Q54.0845-78.7056 50.6747-78.7056Q47.2804-78.7056 44.8977-76.3062Q42.5151-73.9067 42.5151-70.5121Q42.5151-67.1361 44.8977-64.7368Q47.2804-62.3375 50.6747-62.3375ZM21.3247-0.822194Q19.7924 0.694784 19.9389 2.35837Q20.0854 4.02196 21.227 5.05091Q22.256 5.96339 23.8387 6.00459Q25.4214 6.04579 26.8071 4.62646L41.212-9.72951Q41.5909-10.1234 41.8653-10.627L49.0011-24.0685Q49.7437-25.4527 51.4402-25.5957Q53.1367-25.7388 54.4248-24.7925L70.5958-12.5196L70.5958 4.05579Q70.5958 5.99696 71.6717 7.10665Q72.7475 8.21635 74.4937 8.21635Q76.2548 8.21635 77.3401 7.10665Q78.4253 5.99696 78.4253 4.05579L78.4253-14.4122Q78.4253-16.143 76.9569-17.4464L58.8648-32.9775L58.8648-49.8795Q58.8648-51.5093 60.626-51.7721L90.6596-56.3232Q92.2442-56.5524 93.198-57.8817Q94.1518-59.211 93.9077-60.8106Q93.6788-62.3764 92.3738-63.3471Q91.0688-64.3178 89.4691-64.0551L29.646-55.0016L29.646-67.0102L21.8956-67.0102L21.8956-50.4351Q21.8956-48.6064 23.193-47.4724Q24.4904-46.3384 26.3339-46.6161L39.3194-48.5914Q40.2016-48.7226 40.7724-48.2402Q41.3432-47.7577 41.3432-46.8452L41.3432-31.5918L35.1435-14.6411ZM22.8907-62.752Q26.1874-62.752 29.6316-64.2017Q33.0757-65.6514 35.2577-68.1986Q35.9517-68.9903 35.9517-69.93Q35.9517-70.8697 35.2427-71.6764Q33.0757-74.2086 29.6316-75.6583Q26.1874-77.108 22.8907-77.108Q19.5635-77.108 16.1194-75.6583Q12.6752-74.2086 10.5082-71.6764Q8.90681-69.913 10.5082-68.1836Q12.6752-65.6514 16.1194-64.2017Q19.5635-62.752 22.8907-62.752Z"/>
  </g>
  <g id="Thin-S" transform="matrix(1 0 0 1 806.233 696)">
   <path d="M49.113-61.4768Q52.3829-61.4768 54.669-63.7558Q56.9551-66.0349 56.9551-69.2909Q56.9551-72.5253 54.669-74.8047Q52.3829-77.0841 49.113-77.0841Q45.8791-77.0841 43.6065-74.8047Q41.3338-72.5253 41.3338-69.2909Q41.3338-66.0349 43.6065-63.7558Q45.8791-61.4768 49.113-61.4768ZM20.9843-2.10335Q19.4921-0.646579 19.6386 0.956972Q19.785 2.56052 20.8866 3.5296Q21.8557 4.4219 23.3683 4.45301Q24.8809 4.48412 26.2266 3.125L40.0509-10.6504Q40.3498-10.9842 40.6642-11.5079L47.6799-24.7092Q48.2422-25.7931 49.7285-25.9962Q51.2148-26.1992 52.4629-25.293L68.1936-13.3204L68.1936 2.5745Q68.1936 4.43529 69.2394 5.49503Q70.2851 6.55478 71.9512 6.55478Q73.6521 6.55478 74.6874 5.49503Q75.7228 4.43529 75.7228 2.5745L75.7228-15.133Q75.7228-16.7636 74.3142-18.0471L56.9631-32.9375L56.9631-49.1388Q56.9631-50.7287 58.664-50.9514L87.4764-55.3223Q88.9611-55.5316 89.8848-56.8107Q90.8085-58.0899 90.5644-59.6095Q90.3557-61.1151 89.1006-62.0458Q87.8455-62.9765 86.326-62.7538L28.9454-54.0608L28.9454-65.5488L21.5354-65.5488L21.5354-49.6545Q21.5354-47.9256 22.7727-46.8417Q24.01-45.7579 25.7732-46.0154L38.2383-47.8907Q39.0603-48.0018 39.6111-47.5594Q40.1619-47.117 40.1619-46.2247L40.1619-31.5918L34.2226-15.3417ZM22.4905-61.4709Q25.6267-61.4709 29.0409-62.9006Q32.4551-64.3303 34.617-67.0174Q35.131-67.6291 35.131-68.3586Q35.131-69.0881 34.5821-69.7346Q32.4551-72.3869 29.0409-73.8166Q25.6267-75.2463 22.4905-75.2463Q19.2834-75.2463 15.8691-73.8166Q12.4549-72.3869 10.3279-69.7346Q9.12712-68.3513 10.3279-66.9825Q12.4549-64.3303 15.8691-62.9006Q19.2834-61.4709 22.4905-61.4709Z"/>
  </g>
  <g id="Ultralight-S" transform="matrix(1 0 0 1 510.378 696)">
   <path d="M48.3131-61.0359Q51.5114-61.0359 53.7308-63.2534Q55.9502-65.4709 55.9502-68.6653Q55.9502-71.8178 53.7308-74.0356Q51.5114-76.2535 48.3131-76.2535Q45.1614-76.2535 42.9451-74.0356Q40.7288-71.8178 40.7288-68.6653Q40.7288-65.4709 42.9451-63.2534Q45.1614-61.0359 48.3131-61.0359ZM20.8099-2.75955Q19.3382-1.33362 19.4847 0.239182Q19.6312 1.81198 20.7123 2.7504Q21.6507 3.63235 23.1274 3.65829Q24.604 3.68423 25.9293 2.35596L39.4562-11.1221Q39.7141-11.425 40.049-11.9591L47.0032-25.0374Q47.4731-25.9674 48.8518-26.2012Q50.2304-26.4351 51.458-25.5493L66.9632-13.7306L66.9632 1.8158Q66.9632 3.63541 67.9935 4.66957Q69.0239 5.70374 70.649 5.70374Q72.319 5.70374 73.3288 4.66957Q74.3385 3.63541 74.3385 1.8158L74.3385-15.5022Q74.3385-17.0815 72.9607-18.3548L55.9891-32.917L55.9891-48.7595Q55.9891-50.3288 57.6591-50.531L85.8459-54.8096Q87.2795-55.0087 88.1878-56.2622Q89.0961-57.5157 88.8519-58.9943Q88.6536-60.4691 87.4241-61.3792Q86.1946-62.2894 84.716-62.0872L28.5866-53.5789L28.5866-64.8003L21.3509-64.8003L21.3509-49.2546Q21.3509-47.5769 22.5574-46.5187Q23.764-45.4605 25.486-45.7077L37.6846-47.5319Q38.4758-47.6326 39.0163-47.2107Q39.5569-46.7888 39.5569-45.9068L39.5569-31.5918L33.7509-15.7005ZM22.2855-60.8147Q25.3395-60.8147 28.7384-62.2341Q32.1373-63.6536 34.2888-66.4124Q34.7107-66.9319 34.7107-67.5537Q34.7107-68.1755 34.2438-68.7401Q32.1373-71.4539 28.7384-72.8733Q25.3395-74.2928 22.2855-74.2928Q19.1399-74.2928 15.741-72.8733Q12.3421-71.4539 10.2356-68.7401Q9.23996-67.5514 10.2356-66.3673Q12.3421-63.6536 15.741-62.2341Q19.1399-60.8147 22.2855-60.8147Z"/>
  </g>
 </g>
</svg>
