<?xml version="1.0" encoding="UTF-8"?>
<!--Generator: Apple Native CoreSVG 175.5-->
<!DOCTYPE svg
PUBLIC "-//W3C//DTD SVG 1.1//EN"
       "http://www.w3.org/Graphics/SVG/1.1/DTD/svg11.dtd">
<svg version="1.1" xmlns="http://www.w3.org/2000/svg" xmlns:xlink="http://www.w3.org/1999/xlink" width="3300" height="2200">
 <!--glyph: "uni101312.medium", point size: 100.0, font version: "18.0d9e1", template writer version: "84"-->
 <g id="Notes">
  <rect height="2200" id="artboard" style="fill:white;opacity:1" width="3300" x="0" y="0"/>
  <line style="fill:none;stroke:black;opacity:1;stroke-width:0.5;" x1="263" x2="3036" y1="292" y2="292"/>
  <text style="stroke:none;fill:black;font-family:sans-serif;font-size:13;font-weight:bold;" transform="matrix(1 0 0 1 263 322)">Weight/Scale Variations</text>
  <text style="stroke:none;fill:black;font-family:sans-serif;font-size:13;text-anchor:middle;" transform="matrix(1 0 0 1 559.711 322)">Ultralight</text>
  <text style="stroke:none;fill:black;font-family:sans-serif;font-size:13;text-anchor:middle;" transform="matrix(1 0 0 1 856.422 322)">Thin</text>
  <text style="stroke:none;fill:black;font-family:sans-serif;font-size:13;text-anchor:middle;" transform="matrix(1 0 0 1 1153.13 322)">Light</text>
  <text style="stroke:none;fill:black;font-family:sans-serif;font-size:13;text-anchor:middle;" transform="matrix(1 0 0 1 1449.84 322)">Regular</text>
  <text style="stroke:none;fill:black;font-family:sans-serif;font-size:13;text-anchor:middle;" transform="matrix(1 0 0 1 1746.56 322)">Medium</text>
  <text style="stroke:none;fill:black;font-family:sans-serif;font-size:13;text-anchor:middle;" transform="matrix(1 0 0 1 2043.27 322)">Semibold</text>
  <text style="stroke:none;fill:black;font-family:sans-serif;font-size:13;text-anchor:middle;" transform="matrix(1 0 0 1 2339.98 322)">Bold</text>
  <text style="stroke:none;fill:black;font-family:sans-serif;font-size:13;text-anchor:middle;" transform="matrix(1 0 0 1 2636.69 322)">Heavy</text>
  <text style="stroke:none;fill:black;font-family:sans-serif;font-size:13;text-anchor:middle;" transform="matrix(1 0 0 1 2933.4 322)">Black</text>
  <line style="fill:none;stroke:black;opacity:1;stroke-width:0.5;" x1="263" x2="3036" y1="1903" y2="1903"/>
  <g transform="matrix(1 0 0 1 263 1933)">
   <path d="M9.24805 0.830078Q10.8691 0.830078 12.2949 0.214844Q13.7207-0.400391 14.8096-1.49414Q15.8984-2.58789 16.5186-4.01367Q17.1387-5.43945 17.1387-7.05078Q17.1387-8.66211 16.5186-10.0879Q15.8984-11.5137 14.8047-12.6074Q13.7109-13.7012 12.2852-14.3164Q10.8594-14.9316 9.23828-14.9316Q7.62695-14.9316 6.20117-14.3164Q4.77539-13.7012 3.69141-12.6074Q2.60742-11.5137 1.9873-10.0879Q1.36719-8.66211 1.36719-7.05078Q1.36719-5.43945 1.9873-4.01367Q2.60742-2.58789 3.69629-1.49414Q4.78516-0.400391 6.21094 0.214844Q7.63672 0.830078 9.24805 0.830078ZM9.24805-0.654297Q7.91992-0.654297 6.7627-1.14746Q5.60547-1.64062 4.73145-2.51953Q3.85742-3.39844 3.36426-4.56055Q2.87109-5.72266 2.87109-7.05078Q2.87109-8.37891 3.35938-9.54102Q3.84766-10.7031 4.72168-11.582Q5.5957-12.4609 6.75293-12.9541Q7.91016-13.4473 9.23828-13.4473Q10.5762-13.4473 11.7383-12.9541Q12.9004-12.4609 13.7793-11.582Q14.6582-10.7031 15.1514-9.54102Q15.6445-8.37891 15.6445-7.05078Q15.6445-5.72266 15.1514-4.56055Q14.6582-3.39844 13.7793-2.51953Q12.9004-1.64062 11.7432-1.14746Q10.5859-0.654297 9.24805-0.654297ZM5.6543-7.05078Q5.6543-6.72852 5.85938-6.52832Q6.06445-6.32812 6.40625-6.32812L8.51562-6.32812L8.51562-4.20898Q8.51562-3.88672 8.71094-3.67676Q8.90625-3.4668 9.23828-3.4668Q9.56055-3.4668 9.77051-3.67676Q9.98047-3.88672 9.98047-4.20898L9.98047-6.32812L12.0898-6.32812Q12.4219-6.32812 12.627-6.52832Q12.832-6.72852 12.832-7.05078Q12.832-7.38281 12.627-7.58789Q12.4219-7.79297 12.0898-7.79297L9.98047-7.79297L9.98047-9.90234Q9.98047-10.2344 9.77051-10.4443Q9.56055-10.6543 9.23828-10.6543Q8.90625-10.6543 8.71094-10.4443Q8.51562-10.2344 8.51562-9.90234L8.51562-7.79297L6.40625-7.79297Q6.06445-7.79297 5.85938-7.58789Q5.6543-7.38281 5.6543-7.05078Z"/>
  </g>
  <g transform="matrix(1 0 0 1 281.867 1933)">
   <path d="M11.709 2.91016Q13.75 2.91016 15.5518 2.12891Q17.3535 1.34766 18.7305-0.0292969Q20.1074-1.40625 20.8887-3.20801Q21.6699-5.00977 21.6699-7.05078Q21.6699-9.0918 20.8887-10.8936Q20.1074-12.6953 18.7305-14.0723Q17.3535-15.4492 15.5469-16.2305Q13.7402-17.0117 11.6992-17.0117Q9.6582-17.0117 7.85645-16.2305Q6.05469-15.4492 4.68262-14.0723Q3.31055-12.6953 2.5293-10.8936Q1.74805-9.0918 1.74805-7.05078Q1.74805-5.00977 2.5293-3.20801Q3.31055-1.40625 4.6875-0.0292969Q6.06445 1.34766 7.86621 2.12891Q9.66797 2.91016 11.709 2.91016ZM11.709 1.25Q9.98047 1.25 8.47656 0.605469Q6.97266-0.0390625 5.83496-1.17676Q4.69727-2.31445 4.05762-3.81836Q3.41797-5.32227 3.41797-7.05078Q3.41797-8.7793 4.05762-10.2832Q4.69727-11.7871 5.83008-12.9297Q6.96289-14.0723 8.4668-14.7119Q9.9707-15.3516 11.6992-15.3516Q13.4277-15.3516 14.9365-14.7119Q16.4453-14.0723 17.583-12.9297Q18.7207-11.7871 19.3652-10.2832Q20.0098-8.7793 20.0098-7.05078Q20.0098-5.32227 19.3701-3.81836Q18.7305-2.31445 17.5879-1.17676Q16.4453-0.0390625 14.9414 0.605469Q13.4375 1.25 11.709 1.25ZM7.17773-7.05078Q7.17773-6.69922 7.41211-6.47461Q7.64648-6.25 8.01758-6.25L10.8887-6.25L10.8887-3.36914Q10.8887-2.99805 11.1133-2.76855Q11.3379-2.53906 11.6895-2.53906Q12.0605-2.53906 12.29-2.76855Q12.5195-2.99805 12.5195-3.36914L12.5195-6.25L15.4004-6.25Q15.7715-6.25 16.001-6.47461Q16.2305-6.69922 16.2305-7.05078Q16.2305-7.42188 16.001-7.65137Q15.7715-7.88086 15.4004-7.88086L12.5195-7.88086L12.5195-10.752Q12.5195-11.1328 12.29-11.3623Q12.0605-11.5918 11.6895-11.5918Q11.3379-11.5918 11.1133-11.3574Q10.8887-11.123 10.8887-10.752L10.8887-7.88086L8.01758-7.88086Q7.63672-7.88086 7.40723-7.65137Q7.17773-7.42188 7.17773-7.05078Z"/>
  </g>
  <g transform="matrix(1 0 0 1 305.646 1933)">
   <path d="M14.9707 5.66406Q17.0605 5.66406 18.96 5.01465Q20.8594 4.36523 22.4512 3.19336Q24.043 2.02148 25.2197 0.429688Q26.3965-1.16211 27.0459-3.06641Q27.6953-4.9707 27.6953-7.05078Q27.6953-9.14062 27.0459-11.04Q26.3965-12.9395 25.2197-14.5312Q24.043-16.123 22.4512-17.2998Q20.8594-18.4766 18.9551-19.126Q17.0508-19.7754 14.9609-19.7754Q12.8711-19.7754 10.9717-19.126Q9.07227-18.4766 7.48535-17.2998Q5.89844-16.123 4.72168-14.5312Q3.54492-12.9395 2.90039-11.04Q2.25586-9.14062 2.25586-7.05078Q2.25586-4.9707 2.90527-3.06641Q3.55469-1.16211 4.72656 0.429688Q5.89844 2.02148 7.49023 3.19336Q9.08203 4.36523 10.9814 5.01465Q12.8809 5.66406 14.9707 5.66406ZM14.9707 3.84766Q13.1641 3.84766 11.5283 3.2959Q9.89258 2.74414 8.53516 1.74805Q7.17773 0.751953 6.17676-0.610352Q5.17578-1.97266 4.62891-3.6084Q4.08203-5.24414 4.08203-7.05078Q4.08203-8.86719 4.62891-10.5029Q5.17578-12.1387 6.17188-13.501Q7.16797-14.8633 8.52539-15.8594Q9.88281-16.8555 11.5186-17.4023Q13.1543-17.9492 14.9609-17.9492Q16.7773-17.9492 18.4131-17.4023Q20.0488-16.8555 21.4111-15.8594Q22.7734-14.8633 23.7744-13.501Q24.7754-12.1387 25.3223-10.5029Q25.8691-8.86719 25.8691-7.05078Q25.8691-5.24414 25.3223-3.6084Q24.7754-1.97266 23.7793-0.610352Q22.7832 0.751953 21.4209 1.74805Q20.0586 2.74414 18.4229 3.2959Q16.7871 3.84766 14.9707 3.84766ZM9.19922-7.05078Q9.19922-6.66992 9.45801-6.4209Q9.7168-6.17188 10.1172-6.17188L14.0625-6.17188L14.0625-2.2168Q14.0625-1.81641 14.3115-1.55762Q14.5605-1.29883 14.9512-1.29883Q15.3516-1.29883 15.6104-1.55273Q15.8691-1.80664 15.8691-2.2168L15.8691-6.17188L19.8242-6.17188Q20.2246-6.17188 20.4785-6.4209Q20.7324-6.66992 20.7324-7.05078Q20.7324-7.46094 20.4785-7.71484Q20.2246-7.96875 19.8242-7.96875L15.8691-7.96875L15.8691-11.9141Q15.8691-12.3242 15.6104-12.583Q15.3516-12.8418 14.9512-12.8418Q14.5605-12.8418 14.3115-12.583Q14.0625-12.3242 14.0625-11.9141L14.0625-7.96875L10.1172-7.96875Q9.70703-7.96875 9.45312-7.71484Q9.19922-7.46094 9.19922-7.05078Z"/>
  </g>
  <text style="stroke:none;fill:black;font-family:sans-serif;font-size:13;font-weight:bold;" transform="matrix(1 0 0 1 263 1953)">Design Variations</text>
  <text style="stroke:none;fill:black;font-family:sans-serif;font-size:13;" transform="matrix(1 0 0 1 263 1971)">Symbols are supported in up to nine weights and three scales.</text>
  <text style="stroke:none;fill:black;font-family:sans-serif;font-size:13;" transform="matrix(1 0 0 1 263 1989)">For optimal layout with text and other symbols, vertically align</text>
  <text style="stroke:none;fill:black;font-family:sans-serif;font-size:13;" transform="matrix(1 0 0 1 263 2007)">symbols with the adjacent text.</text>
  <line style="fill:none;stroke:#00AEEF;stroke-width:0.5;opacity:1.0;" x1="776" x2="776" y1="1919" y2="1933"/>
  <g transform="matrix(1 0 0 1 776 1933)">
   <path d="M3.31055 0.15625Q3.70117 0.15625 3.91602-0.00976562Q4.13086-0.175781 4.26758-0.585938L5.52734-4.0332L11.2891-4.0332L12.5488-0.585938Q12.6855-0.175781 12.9004-0.00976562Q13.1152 0.15625 13.4961 0.15625Q13.8867 0.15625 14.1162-0.0585938Q14.3457-0.273438 14.3457-0.644531Q14.3457-0.869141 14.2383-1.17188L9.6582-13.3691Q9.48242-13.8184 9.17969-14.043Q8.87695-14.2676 8.4082-14.2676Q7.5-14.2676 7.17773-13.3789L2.59766-1.16211Q2.49023-0.859375 2.49023-0.634766Q2.49023-0.263672 2.70996-0.0537109Q2.92969 0.15625 3.31055 0.15625ZM6.00586-5.51758L8.37891-12.0898L8.42773-12.0898L10.8008-5.51758Z"/>
  </g>
  <line style="fill:none;stroke:#00AEEF;stroke-width:0.5;opacity:1.0;" x1="793.197" x2="793.197" y1="1919" y2="1933"/>
  <text style="stroke:none;fill:black;font-family:sans-serif;font-size:13;font-weight:bold;" transform="matrix(1 0 0 1 776 1953)">Margins</text>
  <text style="stroke:none;fill:black;font-family:sans-serif;font-size:13;" transform="matrix(1 0 0 1 776 1971)">Leading and trailing margins on the left and right side of each symbol</text>
  <text style="stroke:none;fill:black;font-family:sans-serif;font-size:13;" transform="matrix(1 0 0 1 776 1989)">can be adjusted by modifying the x-location of the margin guidelines.</text>
  <text style="stroke:none;fill:black;font-family:sans-serif;font-size:13;" transform="matrix(1 0 0 1 776 2007)">Modifications are automatically applied proportionally to all</text>
  <text style="stroke:none;fill:black;font-family:sans-serif;font-size:13;" transform="matrix(1 0 0 1 776 2025)">scales and weights.</text>
  <g transform="matrix(1 0 0 1 1289 1933)">
   <path d="M2.8418 1.86523L4.54102 3.57422Q5.18555 4.22852 5.90332 4.17969Q6.62109 4.13086 7.31445 3.35938L18.0078-8.42773L17.041-9.4043L6.42578 2.27539Q6.16211 2.57812 5.89355 2.61719Q5.625 2.65625 5.27344 2.30469L4.10156 1.14258Q3.75 0.791016 3.79395 0.522461Q3.83789 0.253906 4.14062-0.0195312L15.6152-10.8203L14.6387-11.7871L3.04688-0.898438Q2.30469-0.214844 2.25098 0.498047Q2.19727 1.21094 2.8418 1.86523ZM9.25781-16.3281Q8.94531-16.0254 8.90625-15.6348Q8.86719-15.2441 9.04297-14.9512Q9.21875-14.6777 9.55566-14.541Q9.89258-14.4043 10.3809-14.5215Q11.4746-14.7754 12.5977-14.7314Q13.7207-14.6875 14.7949-13.9844L14.209-12.5293Q13.9551-11.9043 14.0674-11.4404Q14.1797-10.9766 14.5801-10.5664L16.875-8.25195Q17.2363-7.88086 17.5781-7.82227Q17.9199-7.76367 18.3398-7.8418L19.4043-8.03711L20.0684-7.36328L20.0293-6.80664Q20-6.43555 20.1221-6.12305Q20.2441-5.81055 20.6055-5.44922L21.3672-4.70703Q21.7285-4.3457 22.1533-4.33105Q22.5781-4.31641 22.9297-4.66797L25.8398-7.58789Q26.1914-7.93945 26.1816-8.35449Q26.1719-8.76953 25.8105-9.13086L25.0391-9.89258Q24.6875-10.2539 24.3799-10.3857Q24.0723-10.5176 23.7109-10.4883L23.1348-10.4395L22.4902-11.0742L22.7344-12.1973Q22.832-12.6172 22.6953-12.9834Q22.5586-13.3496 22.1191-13.7891L19.9219-15.9766Q18.6719-17.2168 17.2607-17.8369Q15.8496-18.457 14.4189-18.4814Q12.9883-18.5059 11.665-17.959Q10.3418-17.4121 9.25781-16.3281ZM10.752-15.957Q11.6602-16.6211 12.7002-16.9043Q13.7402-17.1875 14.8047-17.085Q15.8691-16.9824 16.8701-16.5137Q17.8711-16.0449 18.7012-15.2051L21.1328-12.793Q21.3086-12.6172 21.3525-12.4512Q21.3965-12.2852 21.3379-12.0312L21.0156-10.5469L22.5195-9.0625L23.5059-9.12109Q23.6914-9.13086 23.7891-9.09668Q23.8867-9.0625 24.0332-8.91602L24.6094-8.33984L22.168-5.89844L21.5918-6.47461Q21.4453-6.62109 21.4062-6.71875Q21.3672-6.81641 21.377-7.01172L21.4453-7.98828L19.9512-9.47266L18.4277-9.21875Q18.1836-9.16992 18.042-9.2041Q17.9004-9.23828 17.7148-9.41406L15.7129-11.416Q15.5176-11.5918 15.4932-11.7529Q15.4688-11.9141 15.5859-12.1875L16.4648-14.2773Q15.293-15.3711 13.8281-15.791Q12.3633-16.2109 10.8398-15.7617Q10.7227-15.7324 10.6885-15.8057Q10.6543-15.8789 10.752-15.957Z"/>
  </g>
  <text style="stroke:none;fill:black;font-family:sans-serif;font-size:13;font-weight:bold;" transform="matrix(1 0 0 1 1289 1953)">Exporting</text>
  <text style="stroke:none;fill:black;font-family:sans-serif;font-size:13;" transform="matrix(1 0 0 1 1289 1971)">Symbols should be outlined when exporting to ensure the</text>
  <text style="stroke:none;fill:black;font-family:sans-serif;font-size:13;" transform="matrix(1 0 0 1 1289 1989)">design is preserved when submitting to Xcode.</text>
  <text id="template-version" style="stroke:none;fill:black;font-family:sans-serif;font-size:13;text-anchor:end;" transform="matrix(1 0 0 1 3036 1933)">Template v.2.0</text>
  <text style="stroke:none;fill:black;font-family:sans-serif;font-size:13;text-anchor:end;" transform="matrix(1 0 0 1 3036 1951)">Requires Xcode 12 or greater</text>
  <text id="descriptive-name" style="stroke:none;fill:black;font-family:sans-serif;font-size:13;text-anchor:end;" transform="matrix(1 0 0 1 3036 1969)">Generated from figure.dance</text>
  <text style="stroke:none;fill:black;font-family:sans-serif;font-size:13;text-anchor:end;" transform="matrix(1 0 0 1 3036 1987)">Typeset at 100 points</text>
  <text style="stroke:none;fill:black;font-family:sans-serif;font-size:13;" transform="matrix(1 0 0 1 263 726)">Small</text>
  <text style="stroke:none;fill:black;font-family:sans-serif;font-size:13;" transform="matrix(1 0 0 1 263 1156)">Medium</text>
  <text style="stroke:none;fill:black;font-family:sans-serif;font-size:13;" transform="matrix(1 0 0 1 263 1586)">Large</text>
 </g>
 <g id="Guides">
  <g id="H-reference" style="fill:#27AAE1;stroke:none;" transform="matrix(1 0 0 1 339 696)">
   <path d="M0.993347 0L3.6377 0L29.3282-67.1326L30.0301-67.1326L30.0301-70.459L28.1227-70.459ZM11.6882-24.4797L46.9818-24.4797L46.2311-26.7288L12.4382-26.7288ZM55.1193 0L57.7637 0L30.6381-70.459L29.4327-70.459L29.4327-67.1326Z"/>
  </g>
  <line id="Baseline-S" style="fill:none;stroke:#27AAE1;opacity:1;stroke-width:0.5;" x1="263" x2="3036" y1="696" y2="696"/>
  <line id="Capline-S" style="fill:none;stroke:#27AAE1;opacity:1;stroke-width:0.5;" x1="263" x2="3036" y1="625.541" y2="625.541"/>
  <g id="H-reference" style="fill:#27AAE1;stroke:none;" transform="matrix(1 0 0 1 339 1126)">
   <path d="M0.993347 0L3.6377 0L29.3282-67.1326L30.0301-67.1326L30.0301-70.459L28.1227-70.459ZM11.6882-24.4797L46.9818-24.4797L46.2311-26.7288L12.4382-26.7288ZM55.1193 0L57.7637 0L30.6381-70.459L29.4327-70.459L29.4327-67.1326Z"/>
  </g>
  <line id="Baseline-M" style="fill:none;stroke:#27AAE1;opacity:1;stroke-width:0.5;" x1="263" x2="3036" y1="1126" y2="1126"/>
  <line id="Capline-M" style="fill:none;stroke:#27AAE1;opacity:1;stroke-width:0.5;" x1="263" x2="3036" y1="1055.54" y2="1055.54"/>
  <g id="H-reference" style="fill:#27AAE1;stroke:none;" transform="matrix(1 0 0 1 339 1556)">
   <path d="M0.993347 0L3.6377 0L29.3282-67.1326L30.0301-67.1326L30.0301-70.459L28.1227-70.459ZM11.6882-24.4797L46.9818-24.4797L46.2311-26.7288L12.4382-26.7288ZM55.1193 0L57.7637 0L30.6381-70.459L29.4327-70.459L29.4327-67.1326Z"/>
  </g>
  <line id="Baseline-L" style="fill:none;stroke:#27AAE1;opacity:1;stroke-width:0.5;" x1="263" x2="3036" y1="1556" y2="1556"/>
  <line id="Capline-L" style="fill:none;stroke:#27AAE1;opacity:1;stroke-width:0.5;" x1="263" x2="3036" y1="1485.54" y2="1485.54"/>
  <line id="left-margin" style="fill:none;stroke:#00AEEF;stroke-width:0.5;opacity:1.0;" x1="1406.07" x2="1406.07" y1="1030.79" y2="1150.12"/>
  <line id="right-margin" style="fill:none;stroke:#00AEEF;stroke-width:0.5;opacity:1.0;" x1="1493.62" x2="1493.62" y1="1030.79" y2="1150.12"/>
 </g>
 <g id="Symbols">
  <g id="Black-L" transform="matrix(1 0 0 1 2873.74 1556)">
   <path d="M26.9193 44.5312Q30.2537 44.5312 32.5104 42.3043Q34.7671 40.0774 34.7671 36.8442L34.7671 5.72286L51.4295-12.007Q52.6729-13.332 53.7203-11.8902L70.1286 9.94948L85.0719 39.7569Q86.8895 43.4505 89.8942 44.2205Q92.8988 44.9905 95.6837 43.6328Q98.4685 42.2751 99.6764 39.4494Q100.884 36.6238 99.1471 33.1482L68.2018-28.8228Q66.1729-32.8974 65.0592-38.1857Q63.9455-43.4741 63.4058-49.0523Q63.3242-50.4103 63.7442-50.735Q64.1641-51.0597 65.2821-50.4904L77.1443-44.4684L88.2411-22.2153Q89.9991-18.7409 93.0142-17.9417Q96.0293-17.1425 98.8439-18.471Q101.659-19.7995 102.856-22.6538Q104.053-25.508 102.177-29.2029L89.8624-53.6733Q88.6637-56.0695 86.4076-57.2062L68.8008-66.0107Q64.8506-68.0552 60.8025-69.0769Q56.7543-70.0985 53.0818-70.982Q48.8487-72.0042 45.3922-73.5628Q41.9357-75.1214 39.5839-78.5383L31.7367-89.9192L31.7367-112.412Q31.7367-115.565 29.4008-117.832Q27.0649-120.099 23.9098-120.099Q20.6766-120.099 18.3803-117.832Q16.084-115.565 16.084-112.412L16.084-87.423Q16.084-86.1243 16.4415-85.1163Q16.7989-84.1082 17.4423-83.0496L31.5398-62.8134Q32.4232-61.5278 32.9369-60.4407Q33.4507-59.3537 33.6127-57.3003Q33.9124-53.6886 34.5254-48.4211Q35.1383-43.1536 36.1418-37.456Q37.1452-31.7583 38.5904-26.7859L20.7491-1.94329Q19.2532 0.0923862 19.2532 2.64816L19.2532 36.8442Q19.2532 40.0774 21.4795 42.3043Q23.7058 44.5312 26.9193 44.5312ZM58.4173-77.039Q64.8197-77.039 69.3526-81.6005Q73.8854-86.162 73.8854-92.5475Q73.8854-98.9719 69.3526-103.494Q64.8197-108.016 58.4173-108.016Q52.0318-108.016 47.4703-103.494Q42.9088-98.9719 42.9088-92.5475Q42.9088-86.162 47.4703-81.6005Q52.0318-77.039 58.4173-77.039Z"/>
  </g>
  <g id="Heavy-L" transform="matrix(1 0 0 1 2577.85 1556)">
   <path d="M26.5168 43.3529Q29.705 43.3529 31.8586 41.2245Q34.0122 39.096 34.0122 36.0183L34.0122 5.18449L50.8663-12.751Q51.9636-13.9342 52.8969-12.6617L69.3954 9.32008L84.1628 38.78Q85.9027 42.3043 88.7653 43.0492Q91.628 43.7941 94.2824 42.4981Q96.9368 41.2021 98.0899 38.5047Q99.2429 35.8073 97.5835 32.4828L67.0359-28.6927Q65.0064-32.7359 63.904-37.9864Q62.8017-43.2369 62.2802-48.7611Q62.1941-50.2067 62.7475-50.6304Q63.3009-51.0541 64.511-50.434L76.2931-44.4474L87.2911-22.4011Q88.9808-19.0822 91.8586-18.315Q94.7364-17.5478 97.4159-18.8215Q100.095-20.0952 101.233-22.8121Q102.371-25.5291 100.587-29.059L88.4207-53.236Q87.2771-55.5175 85.1263-56.5995L67.7545-65.291Q63.8634-67.2991 59.8902-68.3003Q55.917-69.3016 52.276-70.1806Q48.0832-71.1846 44.619-72.7551Q41.1548-74.3255 38.7981-77.7523L31.0088-89.0576L31.0088-111.339Q31.0088-114.337 28.7805-116.505Q26.5521-118.674 23.5436-118.674Q20.466-118.674 18.275-116.505Q16.084-114.337 16.084-111.339L16.084-86.6711Q16.084-85.4226 16.4117-84.465Q16.7393-83.5075 17.3827-82.4946L31.2855-62.516Q32.1645-61.2349 32.6923-60.129Q33.2201-59.0232 33.3866-56.9468Q33.6725-53.3615 34.2879-48.1412Q34.9033-42.9208 35.9002-37.2817Q36.897-31.6426 38.3333-26.7474L20.6305-2.11997Q19.2123-0.180205 19.2123 2.25647L19.2123 36.0183Q19.2123 39.096 21.338 41.2245Q23.4637 43.3529 26.5168 43.3529ZM57.3772-76.4534Q63.5833-76.4534 67.9885-80.8781Q72.3937-85.3028 72.3937-91.5246Q72.3937-97.7663 67.9885-102.154Q63.5833-106.541 57.3772-106.541Q51.1555-106.541 46.7308-102.154Q42.3061-97.7663 42.3061-91.5246Q42.3061-85.3028 46.7308-80.8781Q51.1555-76.4534 57.3772-76.4534Z"/>
  </g>
  <g id="Bold-L" transform="matrix(1 0 0 1 2282.18 1556)">
   <path d="M26.0397 41.7886Q29.051 41.7886 31.0853 39.7756Q33.1196 37.7626 33.1196 34.8696L33.1196 4.45647L50.1374-13.6582Q51.0577-14.6721 51.8526-13.5998L68.4067 8.47683L82.929 37.4542Q84.5766 40.7785 87.2737 41.4927Q89.9708 42.2068 92.4713 40.9839Q94.9718 39.761 96.0595 37.2137Q97.1472 34.6664 95.5801 31.5189L65.5765-28.5686Q63.5543-32.5659 62.4673-37.7554Q61.3802-42.9449 60.8818-48.3925Q60.7881-49.9309 61.4881-50.4626Q62.1881-50.9944 63.4985-50.3201L75.1509-44.3944L86.0036-22.6465Q87.6088-19.5123 90.325-18.7835Q93.0412-18.0548 95.5628-19.2631Q98.0845-20.4714 99.1531-23.0267Q100.222-25.5821 98.545-28.9195L86.5857-52.6905Q85.5039-54.8411 83.4763-55.854L66.4262-64.3923Q62.6117-66.3543 58.7345-67.3286Q54.8573-68.303 51.2622-69.1745Q47.1305-70.1554 43.6698-71.7337Q40.2091-73.3121 37.8521-76.7393L30.1544-87.9225L30.1544-109.898Q30.1544-112.711 28.0531-114.764Q25.9517-116.817 23.1127-116.817Q20.2197-116.817 18.1518-114.764Q16.084-112.711 16.084-109.898L16.084-85.6667Q16.084-84.4797 16.377-83.58Q16.67-82.6802 17.3133-81.7211L30.9555-62.095Q31.827-60.8214 32.3665-59.7Q32.9059-58.5786 33.0801-56.479Q33.3506-52.9394 33.9661-47.7879Q34.5816-42.6364 35.567-37.0815Q36.5523-31.5266 37.9734-26.731L20.4844-2.42469Q19.1586-0.600217 19.1586 1.69788L19.1586 34.8696Q19.1586 37.7626 21.165 39.7756Q23.1715 41.7886 26.0397 41.7886ZM56.1013-75.7609Q62.0691-75.7609 66.3167-80.0164Q70.5644-84.272 70.5644-90.2866Q70.5644-96.3054 66.3167-100.527Q62.0691-104.749 56.1013-104.749Q50.0869-104.749 45.8313-100.527Q41.5756-96.3054 41.5756-90.2866Q41.5756-84.272 45.8313-80.0164Q50.0869-75.7609 56.1013-75.7609Z"/>
  </g>
  <g id="Semibold-L" transform="matrix(1 0 0 1 1986.19 1556)">
   <path d="M25.7108 40.7102Q28.6002 40.7102 30.5522 38.7768Q32.5042 36.8434 32.5042 34.0777L32.5042 3.95458L49.6348-14.2836Q50.4332-15.1808 51.1327-14.2465L67.725 7.89549L82.0785 36.5403Q83.6624 39.7267 86.2454 40.4196Q88.8284 41.1126 91.2228 39.9401Q93.6172 38.7675 94.6598 36.3237Q95.7024 33.8799 94.1989 30.8544L64.5703-28.483Q62.5532-32.4487 61.4768-37.5961Q60.4003-42.7436 59.9178-48.1385Q59.8188-49.7407 60.6198-50.3469Q61.4208-50.9532 62.8005-50.2416L74.3635-44.3579L85.116-22.8157Q86.663-19.8087 89.2678-19.1065Q91.8725-18.4043 94.2854-19.5675Q96.6982-20.7308 97.7191-23.1747Q98.7399-25.6186 97.1375-28.8233L85.3208-52.3145Q84.2814-54.3748 82.3387-55.34L65.5104-63.7726Q61.7488-65.7029 57.9378-66.6587Q54.1268-67.6146 50.5632-68.4809Q46.4737-69.4458 43.0154-71.0296Q39.557-72.6134 37.2-76.0409L29.5654-87.14L29.5654-108.905Q29.5654-111.59 27.5516-113.564Q25.5378-115.537 22.8155-115.537Q20.0498-115.537 18.0669-113.564Q16.084-111.59 16.084-108.905L16.084-84.9743Q16.084-83.8297 16.3531-82.9698Q16.6222-82.1099 17.2655-81.1879L30.728-61.8048Q31.5943-60.5364 32.1418-59.4042Q32.6893-58.272 32.8688-56.1565Q33.1286-52.6484 33.7442-47.5443Q34.3598-42.4402 35.3373-36.9434Q36.3148-31.4466 37.7254-26.7197L20.3837-2.63476Q19.1215-0.889771 19.1215 1.31278L19.1215 34.0777Q19.1215 36.8434 21.0458 38.7768Q22.9701 40.7102 25.7108 40.7102ZM55.2217-75.2834Q61.0252-75.2834 65.1642-79.4224Q69.3032-83.5614 69.3032-89.4331Q69.3032-95.2982 65.1642-99.4063Q61.0252-103.514 55.2217-103.514Q49.3503-103.514 45.2111-99.4063Q41.072-95.2982 41.072-89.4331Q41.072-83.5614 45.2111-79.4224Q49.3503-75.2834 55.2217-75.2834Z"/>
  </g>
  <g id="Medium-L" transform="matrix(1 0 0 1 1690.03 1556)">
   <path d="M25.4615 39.8925Q28.2583 39.8925 30.148 38.0195Q32.0377 36.1464 32.0377 33.4772L32.0377 3.57403L49.2538-14.7578Q49.9597-15.5664 50.5868-14.7368L67.2082 7.4547L81.4336 35.8473Q82.9692 38.9291 85.4656 39.606Q87.9621 40.2829 90.2761 39.1485Q92.59 38.0142 93.5985 35.6489Q94.6069 33.2836 93.1517 30.3505L63.8074-28.4181Q61.7942-32.3598 60.7257-37.4754Q59.6573-42.591 59.1869-47.9458Q59.0838-49.5965 59.9615-50.2592Q60.8391-50.9219 62.2712-50.182L73.7665-44.3302L84.443-22.944Q85.9458-20.0335 88.4661-19.3514Q90.9864-18.6693 93.3167-19.7983Q95.6471-20.9274 96.6317-23.2869Q97.6164-25.6463 96.0702-28.7503L84.3616-52.0294Q83.3545-54.0213 81.4762-54.9503L64.816-63.3028Q61.0946-65.209 57.3337-66.1508Q53.5729-67.0926 50.0333-67.9549Q45.9757-68.9078 42.5192-70.4958Q39.0626-72.0837 36.7055-75.5113L29.1188-86.5467L29.1188-108.152Q29.1188-110.74 27.1713-112.654Q25.2239-114.567 22.5902-114.567Q19.9211-114.567 18.0025-112.654Q16.084-110.74 16.084-108.152L16.084-84.4493Q16.084-83.3368 16.3349-82.5071Q16.5859-81.6775 17.2293-80.7836L30.5556-61.5848Q31.4179-60.3203 31.9715-59.18Q32.5251-58.0396 32.7086-55.912Q32.9604-52.4278 33.576-47.3597Q34.1917-42.2915 35.1631-36.8387Q36.1346-31.3859 37.5373-26.7111L20.3074-2.79404Q19.0934-1.10932 19.0934 1.02079L19.0934 33.4772Q19.0934 36.1464 20.9554 38.0195Q22.8173 39.8925 25.4615 39.8925ZM54.5547-74.9214Q60.2337-74.9214 64.2903-78.972Q68.347-83.0226 68.347-88.786Q68.347-94.5345 64.2903-98.5562Q60.2337-102.578 54.5547-102.578Q48.7917-102.578 44.7409-98.5562Q40.6901-94.5345 40.6901-88.786Q40.6901-83.0226 44.7409-78.972Q48.7917-74.9214 54.5547-74.9214Z"/>
  </g>
  <g id="Regular-L" transform="matrix(1 0 0 1 1394.03 1556)">
   <path d="M25.1362 38.826Q27.8124 38.826 29.6207 37.0316Q31.4291 35.2372 31.4291 32.694L31.4291 3.07765L48.7567-15.3764Q49.342-16.0695 49.8748-15.3764L66.534 6.87976L80.5924 34.9434Q82.0651 37.8888 84.4486 38.5447Q86.8322 39.2007 89.0412 38.1161Q91.2502 37.0316 92.2141 34.7687Q93.178 32.5057 91.7858 29.6933L62.8123-28.3335Q60.8041-32.2439 59.7461-37.3179Q58.6881-42.3919 58.2334-47.6945Q58.1251-49.4085 59.1027-50.1448Q60.0803-50.8812 61.5809-50.1044L72.9877-44.2941L83.5651-23.1113Q85.0104-20.3267 87.4205-19.6708Q89.8306-19.0149 92.0533-20.0994Q94.276-21.1839 95.2134-23.4332Q96.1508-25.6824 94.6781-28.6552L83.1105-51.6575Q82.1455-53.5601 80.3511-54.442L63.9103-62.69Q60.2412-64.5648 56.5458-65.4883Q52.8504-66.4117 49.342-67.2689Q45.3261-68.2061 41.8719-69.7994Q38.4178-71.3927 36.0605-74.8206L28.5362-85.7727L28.5362-107.169Q28.5362-109.632 26.6754-111.466Q24.8145-113.301 22.2964-113.301Q19.7531-113.301 17.9186-111.466Q16.084-109.632 16.084-107.169L16.084-83.7645Q16.084-82.6939 16.3113-81.9037Q16.5386-81.1134 17.182-80.2562L30.3306-61.2978Q31.1878-60.0385 31.7494-58.8875Q32.3109-57.7365 32.4996-55.593Q32.7409-52.14 33.3566-47.1188Q33.9723-42.0976 34.936-36.7022Q35.8996-31.3068 37.2919-26.7L20.2078-3.0018Q19.0568-1.3957 19.0568 0.639928L19.0568 32.694Q19.0568 35.2372 20.8374 37.0316Q22.6181 38.826 25.1362 38.826ZM53.6847-74.4492Q59.2012-74.4492 63.1505-78.3845Q67.0997-82.3198 67.0997-87.9419Q67.0997-93.5384 63.1505-97.4474Q59.2012-101.356 53.6847-101.356Q48.0631-101.356 44.1276-97.4474Q40.1921-93.5384 40.1921-87.9419Q40.1921-82.3198 44.1276-78.3845Q48.0631-74.4492 53.6847-74.4492Z"/>
  </g>
  <g id="Light-L" transform="matrix(1 0 0 1 1098.27 1556)">
   <path d="M24.9454 37.0701Q27.5261 37.0701 29.3059 35.3139Q31.0856 33.5577 31.0856 31.0907L31.0856 2.18078L48.0507-15.9109Q48.5404-16.5274 48.9969-15.9109L65.3316 5.88733L79.0465 33.2831Q80.481 36.1521 82.8168 36.789Q85.1526 37.4258 87.3044 36.3698Q89.4562 35.3139 90.3915 33.0987Q91.3269 30.8835 89.9728 28.1282L61.7054-28.4861Q59.7543-32.3202 58.7154-37.2607Q57.6764-42.2011 57.241-47.3893Q57.1135-49.065 58.072-49.7823Q59.0305-50.4996 60.5122-49.7417L71.6326-44.084L81.9619-23.3784Q83.3501-20.6702 85.7029-20.0333Q88.0557-19.3965 90.2307-20.4525Q92.4056-21.5084 93.324-23.7004Q94.2423-25.8924 92.8077-28.8078L81.5265-51.2567Q80.5614-53.1404 78.8052-53.9649L62.7842-62.0221Q59.1914-63.8587 55.5819-64.7535Q51.9724-65.6482 48.5404-66.4865Q44.6389-67.4044 41.2707-68.9596Q37.9025-70.5148 35.5833-73.8663L28.2499-84.5514L28.2499-105.451Q28.2499-107.838 26.4368-109.634Q24.6237-111.431 22.1438-111.431Q19.6768-111.431 17.8804-109.634Q16.084-107.838 16.084-105.451L16.084-82.6002Q16.084-81.5678 16.3017-80.7872Q16.5194-80.0065 17.1627-79.1682L30.0061-60.668Q30.8444-59.4276 31.3772-58.3148Q31.9101-57.2019 32.1181-55.0777Q32.3593-51.7392 32.9559-46.8324Q33.5526-41.9257 34.4875-36.664Q35.4225-31.4023 36.7766-26.8908L20.1122-3.76528Q18.9994-2.21625 18.9994-0.218788L18.9994 31.0907Q18.9994 33.5577 20.7324 35.3139Q22.4654 37.0701 24.9454 37.0701ZM52.8831-74.1821Q58.2662-74.1821 62.1104-78.0028Q65.9547-81.8235 65.9547-87.274Q65.9547-92.7367 62.1104-96.5407Q58.2662-100.345 52.8831-100.345Q47.4334-100.345 43.6123-96.5407Q39.7912-92.7367 39.7912-87.274Q39.7912-81.8235 43.6123-78.0028Q47.4334-74.1821 52.8831-74.1821Z"/>
  </g>
  <g id="Thin-L" transform="matrix(1 0 0 1 802.807 1556)">
   <path d="M24.6931 34.7477Q27.1474 34.7477 28.8894 33.042Q30.6314 31.3363 30.6314 28.9702L30.6314 0.994588L47.1168-16.6179Q47.4802-17.133 47.8357-16.6179L63.7412 4.57476L77.0019 31.0871Q78.386 33.8553 80.6586 34.4669Q82.9312 35.0785 85.0073 34.0602Q87.0834 33.042 87.981 30.89Q88.8786 28.738 87.575 26.0582L60.2415-28.688Q58.3658-32.4212 57.3521-37.1849Q56.3384-41.9487 55.9284-46.9855Q55.7755-48.6108 56.7087-49.3029Q57.642-49.9949 59.0987-49.2621L69.8404-43.8062L79.8414-23.7316Q81.1541-21.1244 83.4312-20.5128Q85.7084-19.9011 87.8201-20.9194Q89.9319-21.9376 90.825-24.0539Q91.7181-26.1702 90.334-29.0097L79.4315-50.7265Q78.4664-52.5853 76.7607-53.3338L61.2948-61.1387Q57.8029-62.9249 54.3071-63.7817Q50.8112-64.6385 47.4802-65.4517Q43.7301-66.3442 40.4755-67.8489Q37.221-69.3536 34.9523-72.6042L27.8712-82.936L27.8712-103.179Q27.8712-105.465 26.1213-107.211Q24.3714-108.957 21.9419-108.957Q19.5759-108.957 17.8299-107.211Q16.084-105.465 16.084-103.179L16.084-81.0604Q16.084-80.0784 16.289-79.3105Q16.4939-78.5426 17.1373-77.7293L29.5769-59.8351Q30.3902-58.6197 30.8851-57.5573Q31.38-56.495 31.6134-54.3962Q31.8546-51.2091 32.426-46.4537Q32.9974-41.6984 33.8944-36.6136Q34.7915-31.5287 36.0951-27.1431L19.9858-4.77505Q18.9235-3.30151 18.9235-1.35451L18.9235 28.9702Q18.9235 31.3363 20.5935 33.042Q22.2636 34.7477 24.6931 34.7477ZM51.8229-73.8289Q57.0295-73.8289 60.7349-77.4979Q64.4402-81.167 64.4402-86.3906Q64.4402-91.6765 60.7349-95.3416Q57.0295-99.0067 51.8229-99.0067Q46.6004-99.0067 42.9308-95.3416Q39.2611-91.6765 39.2611-86.3906Q39.2611-81.167 42.9308-77.4979Q46.6004-73.8289 51.8229-73.8289Z"/>
  </g>
  <g id="Ultralight-L" transform="matrix(1 0 0 1 506.736 1556)">
   <path d="M24.5638 33.5582Q26.9534 33.5582 28.6761 31.8784Q30.3988 30.1985 30.3988 27.8841L30.3988 0.387028L46.6385-16.98Q46.9371-17.4432 47.241-16.98L62.9266 3.90247L75.9547 29.9624Q77.3129 32.6788 79.5532 33.2775Q81.7934 33.8762 83.8307 32.8773Q85.868 31.8784 86.7463 29.7587Q87.6246 27.6391 86.3468 24.998L59.4916-28.7914Q57.6546-32.4729 56.6539-37.1462Q55.6531-41.8195 55.2562-46.7787Q55.0901-48.3782 56.0105-49.0573Q56.9309-49.7364 58.3747-49.0164L68.9224-43.664L78.7553-23.9126Q80.0294-21.357 82.2677-20.7583Q84.5061-20.1596 86.5855-21.1585Q88.6649-22.1574 89.545-24.235Q90.4252-26.3125 89.067-29.1131L78.3584-50.455Q77.3934-52.3009 75.7135-53.0106L60.5319-60.6863Q57.0917-62.4466 53.6541-63.2839Q50.2165-64.1213 46.9371-64.9217Q43.2646-65.8012 40.0683-67.28Q36.8719-68.7588 34.6291-71.9578L27.6772-82.1086L27.6772-102.016Q27.6772-104.25 25.9597-105.97Q24.2422-107.69 21.8385-107.69Q19.5242-107.69 17.8041-105.97Q16.084-104.25 16.084-102.016L16.084-80.2716Q16.084-79.3155 16.2824-78.5541Q16.4809-77.7927 17.1243-76.9923L29.3571-59.4085Q30.1575-58.2059 30.633-57.1694Q31.1085-56.1329 31.3549-54.0471Q31.5962-50.9375 32.1546-46.2598Q32.7131-41.582 33.5907-36.5877Q34.4682-31.5934 35.746-27.2724L19.9211-5.29225Q18.8846-3.85737 18.8846-1.93622L18.8846 27.8841Q18.8846 30.1985 20.5224 31.8784Q22.1602 33.5582 24.5638 33.5582ZM51.2798-73.6479Q56.3961-73.6479 60.0303-77.2393Q63.6645-80.8307 63.6645-85.9381Q63.6645-91.1334 60.0303-94.7274Q56.3961-98.3214 51.2798-98.3214Q46.1738-98.3214 42.5817-94.7274Q38.9896-91.1334 38.9896-85.9381Q38.9896-80.8307 42.5817-77.2393Q46.1738-73.6479 51.2798-73.6479Z"/>
  </g>
  <g id="Black-M" transform="matrix(1 0 0 1 2886.6 1126)">
   <path d="M21.1756 27.3392Q23.8716 27.3392 25.7047 25.5345Q27.5378 23.7298 27.5378 21.1016L27.5378-3.16082L40.2329-16.6711Q41.3089-17.8091 42.2081-16.5569L54.7987 0.179009L66.4806 23.4803Q67.9504 26.477 70.3939 27.0925Q72.8373 27.7081 75.0991 26.607Q77.361 25.5059 78.3401 23.213Q79.3191 20.9202 77.9116 18.1054L53.6908-30.3984Q52.1272-33.5719 51.2572-37.6834Q50.3873-41.7949 49.9561-46.1475Q49.894-47.1191 50.1022-47.283Q50.3103-47.447 51.0947-47.052L60.3148-42.3769L68.9632-25.0233Q70.3763-22.2082 72.8224-21.5642Q75.2686-20.9201 77.5588-21.9926Q79.8491-23.0651 80.8254-25.3867Q81.8017-27.7082 80.2748-30.7047L70.6446-49.8403Q69.6685-51.7927 67.8353-52.7124L54.0495-59.6051Q50.9488-61.2151 47.7596-62.0203Q44.5705-62.8255 41.7086-63.5111Q38.4099-64.3162 35.7503-65.5083Q33.0907-66.7005 31.278-69.3288L25.1746-78.1749L25.1746-95.7157Q25.1746-98.2815 23.2789-100.117Q21.3832-101.953 18.8179-101.953Q16.1897-101.953 14.3253-100.117Q12.4609-98.2815 12.4609-95.7157L12.4609-76.1544Q12.4609-75.1103 12.7622-74.2873Q13.0634-73.4642 13.5619-72.6073L24.6098-56.7701Q25.2954-55.773 25.6775-54.952Q26.0595-54.1311 26.1838-52.5628Q26.4279-49.7573 26.898-45.6513Q27.3682-41.5454 28.1474-37.099Q28.9267-32.6527 30.0487-28.7469L16.1642-9.39288Q14.9436-7.74105 14.9436-5.66379L14.9436 21.1016Q14.9436 23.7298 16.7484 25.5345Q18.5532 27.3392 21.1756 27.3392ZM46.0437-68.0882Q51.1544-68.0882 54.7617-71.7242Q58.3691-75.3602 58.3691-80.4248Q58.3691-85.5408 54.7617-89.1455Q51.1544-92.7503 46.0437-92.7503Q40.979-92.7503 37.343-89.1455Q33.707-85.5408 33.707-80.4248Q33.707-75.3602 37.343-71.7242Q40.979-68.0882 46.0437-68.0882Z"/>
  </g>
  <g id="Heavy-M" transform="matrix(1 0 0 1 2590.61 1126)">
   <path d="M20.7997 26.3493Q23.3616 26.3493 25.0965 24.6373Q26.8315 22.9253 26.8315 20.4422L26.8315-3.60437L39.7475-17.3491Q40.6895-18.3556 41.4842-17.2618L54.1929-0.344713L65.7345 22.6784Q67.1319 25.5167 69.4409 26.1095Q71.7499 26.7022 73.8895 25.6589Q76.0292 24.6155 76.9573 22.4436Q77.8853 20.2717 76.5503 17.5993L52.6532-30.2572Q51.0837-33.4069 50.2231-37.4938Q49.3624-41.5806 48.9472-45.891Q48.8826-46.9518 49.223-47.2142Q49.5633-47.4767 50.4395-47.0304L59.6078-42.3757L68.1825-25.1803Q69.534-22.5102 71.8512-21.8957Q74.1684-21.2811 76.331-22.3027Q78.4936-23.3242 79.4135-25.5168Q80.3333-27.7094 78.8924-30.55L69.3813-49.4497Q68.4592-51.2918 66.7254-52.1634L53.1306-58.9631Q50.0805-60.5411 46.9568-61.329Q43.8331-62.1168 40.9948-62.7999Q37.725-63.5889 35.0499-64.7962Q32.3748-66.0035 30.5539-68.6485L24.4894-77.4453L24.4894-94.8253Q24.4894-97.2462 22.6944-98.9893Q20.8995-100.732 18.474-100.732Q15.9909-100.732 14.2259-98.9893Q12.4609-97.2462 12.4609-94.8253L12.4609-75.5268Q12.4609-74.5282 12.7339-73.7537Q13.007-72.9791 13.5054-72.1651L24.3911-56.5375Q25.0742-55.5429 25.4726-54.7001Q25.8711-53.8573 25.998-52.2646Q26.2285-49.4746 26.7029-45.4041Q27.1772-41.3337 27.9526-36.9322Q28.728-32.5307 29.8449-28.6916L16.0571-9.49516Q14.9089-7.93183 14.9089-5.96748L14.9089 20.4422Q14.9089 22.9253 16.6198 24.6373Q18.3307 26.3493 20.7997 26.3493ZM45.1008-67.5403Q50.032-67.5403 53.5242-71.0532Q57.0164-74.5661 57.0164-79.4865Q57.0164-84.4363 53.5242-87.9192Q50.032-91.402 45.1008-91.402Q40.1805-91.402 36.6676-87.9192Q33.1547-84.4363 33.1547-79.4865Q33.1547-74.5661 36.6676-71.0532Q40.1805-67.5403 45.1008-67.5403Z"/>
  </g>
  <g id="Bold-M" transform="matrix(1 0 0 1 2294.69 1126)">
   <path d="M20.3792 25.2421Q22.7911 25.2421 24.4163 23.6338Q26.0414 22.0255 26.0414 19.7045L26.0414-4.10054L39.2046-18.1075Q39.9965-18.9668 40.6743-18.0504L53.5153-0.930573L64.8999 21.7814Q66.2162 24.4425 68.3748 25.0098Q70.5335 25.5771 72.5364 24.5983Q74.5394 23.6195 75.4104 21.5829Q76.2815 19.5462 75.0275 17.0331L51.4925-30.0992Q49.9165-33.2224 49.0662-37.2817Q48.2159-41.341 47.8187-45.604Q47.7513-46.7646 48.2395-47.1373Q48.7277-47.51 49.7065-47.0062L58.8168-42.3744L67.3091-25.356Q68.5918-22.8481 70.7648-22.2666Q72.9377-21.685 74.9575-22.6495Q76.9773-23.614 77.834-25.6624Q78.6907-27.7108 77.3459-30.3769L67.9682-49.0128Q67.1064-50.7314 65.4838-51.5493L52.1026-58.245Q49.1092-59.7871 46.0586-60.5556Q43.0081-61.3241 40.1964-62.0044Q36.9588-62.7754 34.2664-63.9996Q31.5741-65.2237 29.7438-67.8875L23.723-76.6292L23.723-93.8293Q23.723-96.088 22.0407-97.7274Q20.3584-99.3669 18.0894-99.3669Q15.7684-99.3669 14.1147-97.7274Q12.4609-96.088 12.4609-93.8293L12.4609-74.8248Q12.4609-73.8771 12.7024-73.1567Q12.9438-72.4364 13.4422-71.6704L24.1465-56.2773Q24.8268-55.2855 25.2435-54.4183Q25.6603-53.5511 25.7901-51.9312Q26.0055-49.1583 26.4846-45.1276Q26.9636-41.0969 27.7347-36.7456Q28.5058-32.3943 29.617-28.6297L15.9372-9.60958Q14.8702-8.14524 14.8702-6.3072L14.8702 19.7045Q14.8702 22.0255 16.4759 23.6338Q18.0817 25.2421 20.3792 25.2421ZM44.0461-66.9275Q48.7765-66.9275 52.1399-70.3026Q55.5033-73.6777 55.5033-78.4367Q55.5033-83.2007 52.1399-86.5473Q48.7765-89.8938 44.0461-89.8938Q39.2872-89.8938 35.9121-86.5473Q32.5369-83.2007 32.5369-78.4367Q32.5369-73.6777 35.9121-70.3026Q39.2872-66.9275 44.0461-66.9275Z"/>
  </g>
  <g id="Semibold-M" transform="matrix(1 0 0 1 1998.53 1126)">
   <path d="M20.0893 24.4787Q22.3978 24.4787 23.9473 22.9419Q25.4968 21.4051 25.4968 19.1959L25.4968-4.4426L38.8303-18.6303Q39.5188-19.3882 40.116-18.594L53.0482-1.33446L64.3245 21.163Q65.5849 23.7019 67.6399 24.2517Q69.6949 24.8014 71.6036 23.8671Q73.5123 22.9328 74.344 20.9895Q75.1758 19.0461 73.9777 16.6428L50.6923-29.9902Q49.1118-33.0952 48.2687-37.1355Q47.4256-41.1758 47.0408-45.4062Q46.9713-46.6356 47.5614-47.0843Q48.1516-47.5329 49.2012-46.9895L58.2716-42.3735L66.7071-25.4772Q67.9422-23.081 70.0158-22.5222Q72.0893-21.9634 74.0106-22.8886Q75.9319-23.8138 76.7451-25.7627Q77.5583-27.7117 76.2798-30.2576L66.994-48.7116Q66.1737-50.3451 64.6278-51.1259L51.394-57.7499Q48.4396-59.2674 45.4395-60.0225Q42.4394-60.7776 39.6459-61.4559Q36.4305-62.2146 33.7263-63.4504Q31.022-64.6862 29.1853-67.3629L23.1946-76.0665L23.1946-93.1426Q23.1946-95.2895 21.59-96.8575Q19.9854-98.4255 17.8242-98.4255Q15.615-98.4255 14.038-96.8575Q12.4609-95.2895 12.4609-93.1426L12.4609-74.3408Q12.4609-73.4282 12.6806-72.7452Q12.9002-72.0622 13.3987-71.3294L23.9779-56.098Q24.6562-55.1081 25.0856-54.2241Q25.515-53.34 25.6467-51.7013Q25.8518-48.9402 26.3341-44.9369Q26.8163-40.9337 27.5844-36.617Q28.3526-32.3002 29.4598-28.5871L15.8546-9.68846Q14.8435-8.29237 14.8435-6.5414L14.8435 19.1959Q14.8435 21.4051 16.3768 22.9419Q17.9101 24.4787 20.0893 24.4787ZM43.319-66.5051Q47.9109-66.5051 51.1855-69.7852Q54.4601-73.0653 54.4601-77.7131Q54.4601-82.3489 51.1855-85.6015Q47.9109-88.854 43.319-88.854Q38.6714-88.854 35.3912-85.6015Q32.111-82.3489 32.111-77.7131Q32.111-73.0653 35.3912-69.7852Q38.6714-66.5051 43.319-66.5051Z"/>
  </g>
  <g id="Medium-M" transform="matrix(1 0 0 1 1702.24 1126)">
   <path d="M19.8695 23.8999Q22.0996 23.8999 23.5917 22.4173Q25.0838 20.9347 25.0838 18.8103L25.0838-4.70196L38.5464-19.0268Q39.1566-19.7078 39.6926-19.0062L52.6939-1.64071L63.8883 20.6942Q65.1062 23.1404 67.0826 23.6768Q69.059 24.2132 70.8963 23.3127Q72.7335 22.4122 73.5354 20.5395Q74.3374 18.6669 73.1817 16.3468L50.0855-29.9076Q48.5016-32.9988 47.6639-37.0247Q46.8263-41.0506 46.4509-45.2563Q46.3799-46.5378 47.0473-47.044Q47.7148-47.5503 48.8181-46.9768L57.8581-42.3728L66.2505-25.569Q67.4497-23.2576 69.4479-22.7161Q71.446-22.1745 73.2926-23.0699Q75.1393-23.9653 75.9195-25.8388Q76.6996-27.7124 75.4714-30.1671L66.2554-48.4832Q65.4666-50.0522 63.9788-50.8049L50.8566-57.3746Q47.9319-58.8732 44.97-59.6182Q42.0082-60.3632 39.2286-61.0401Q36.03-61.7893 33.3168-63.034Q30.6035-64.2786 28.7618-66.9651L22.794-75.6399L22.794-92.622Q22.794-94.6841 21.2482-96.1979Q19.7025-97.7116 17.6232-97.7116Q15.4987-97.7116 13.9798-96.1979Q12.4609-94.6841 12.4609-92.622L12.4609-73.9738Q12.4609-73.0879 12.6641-72.4332Q12.8672-71.7785 13.3656-71.0709L23.8501-55.962Q24.5269-54.9736 24.9658-54.0768Q25.4048-53.18 25.538-51.527Q25.7352-48.7748 26.2199-44.7924Q26.7046-40.8099 27.4705-36.5194Q28.2364-32.2289 29.3407-28.5548L15.792-9.74827Q14.8232-8.40393 14.8232-6.71898L14.8232 18.8103Q14.8232 20.9347 16.3016 22.4173Q17.7799 23.8999 19.8695 23.8999ZM42.7677-66.1847Q47.2546-66.1847 50.4619-69.3928Q53.6692-72.6009 53.6692-77.1643Q53.6692-81.7031 50.4619-84.8843Q47.2546-88.0656 42.7677-88.0656Q38.2044-88.0656 34.9963-84.8843Q31.7881-81.7031 31.7881-77.1643Q31.7881-72.6009 34.9963-69.3928Q38.2044-66.1847 42.7677-66.1847Z"/>
  </g>
  <g id="Regular-M" transform="matrix(1 0 0 1 1406.07 1126)">
   <path d="M19.5828 23.145Q21.7106 23.145 23.1279 21.7331Q24.5451 20.3212 24.5451 18.3073L24.5451-5.04026L38.1763-19.5438Q38.6842-20.1245 39.1404-19.5438L52.2319-2.04016L63.3192 20.0826Q64.4819 22.408 66.3558 22.927Q68.2297 23.4461 69.9737 22.5896Q71.7177 21.7331 72.4808 19.9527Q73.2438 18.1722 72.1434 15.9608L49.2941-29.7999Q47.7058-32.873 46.8752-36.8801Q46.0446-40.8872 45.6814-45.0606Q45.6085-46.4102 46.3767-46.9916Q47.145-47.5729 48.3183-46.9603L57.3188-42.3719L65.6551-25.6888Q66.8073-23.488 68.7071-22.969Q70.6069-22.4499 72.3562-23.3064Q74.1054-24.1629 74.8425-25.9381Q75.5797-27.7133 74.417-30.0491L65.2919-48.1853Q64.5442-49.6702 63.1323-50.3861L50.1557-56.8849Q47.2696-58.3592 44.3577-59.091Q41.4457-59.8227 38.6842-60.4976Q35.5076-61.2347 32.7826-62.4908Q30.0575-63.747 28.2095-66.4462L22.2714-75.0835L22.2714-91.9428Q22.2714-93.8944 20.8025-95.3375Q19.3336-96.7805 17.3609-96.7805Q15.3471-96.7805 13.904-95.3375Q12.4609-93.8944 12.4609-91.9428L12.4609-73.4951Q12.4609-72.6439 12.6425-72.0262Q12.8241-71.4085 13.3226-70.7336L23.6833-55.7846Q24.3582-54.7981 24.8096-53.8847Q25.261-52.9712 25.3963-51.2996Q25.5832-48.5592 26.0711-44.6038Q26.559-40.6484 27.3219-36.3922Q28.0849-32.1359 29.1852-28.5126L15.7103-9.82628Q14.7968-8.54944 14.7968-6.95061L14.7968 18.3073Q14.7968 20.3212 16.2035 21.7331Q17.6102 23.145 19.5828 23.145ZM42.0486-65.7669Q46.3985-65.7669 49.518-68.881Q52.6375-71.9952 52.6375-76.4486Q52.6375-80.8606 49.518-83.949Q46.3985-87.0373 42.0486-87.0373Q37.5954-87.0373 34.4811-83.949Q31.3669-80.8606 31.3669-76.4486Q31.3669-71.9952 34.4811-68.881Q37.5954-65.7669 42.0486-65.7669Z"/>
  </g>
  <g id="Light-M" transform="matrix(1 0 0 1 1110.2 1126)">
   <path d="M19.4118 21.5707Q21.4539 21.5707 22.8456 20.193Q24.2372 18.8153 24.2372 16.8699L24.2372-5.84435L37.5432-20.0231Q37.9655-20.5351 38.3533-20.0231L51.1538-2.92992L61.9332 18.594Q63.0617 20.851 64.8928 21.3529Q66.7238 21.8548 68.4165 21.0239Q70.1093 20.193 70.8467 18.4554Q71.5842 16.7178 70.518 14.5576L48.3017-29.9368Q46.7645-32.9414 45.9511-36.8288Q45.1376-40.7161 44.7917-44.7869Q44.7015-46.1023 45.4526-46.6666Q46.2038-47.2308 47.3602-46.6352L56.1039-42.1836L64.2176-25.9283Q65.3187-23.7959 67.1672-23.294Q69.0157-22.792 70.7221-23.6229Q72.4285-24.4538 73.1485-26.1777Q73.8685-27.9016 72.7401-30.186L63.8717-47.826Q63.124-49.2939 61.7463-49.9583L49.1461-56.2861Q46.3284-57.7261 43.4935-58.4322Q40.6586-59.1382 37.9655-59.7962Q34.8915-60.5159 32.2435-61.7379Q29.5955-62.9598 27.7817-65.5906L22.0147-73.9884L22.0147-90.4028Q22.0147-92.2859 20.5886-93.6948Q19.1625-95.1036 17.2241-95.1036Q15.2786-95.1036 13.8698-93.6948Q12.4609-92.2859 12.4609-90.4028L12.4609-72.4512Q12.4609-71.6343 12.6339-71.0252Q12.8069-70.4161 13.3053-69.7581L23.3924-55.2199Q24.0503-54.2505 24.476-53.3712Q24.9017-52.492 25.0542-50.8376Q25.2411-48.1998 25.7119-44.3471Q26.1827-40.4943 26.9199-36.358Q27.6571-32.2216 28.7233-28.6837L15.6246-10.5108Q14.7453-9.28511 14.7453-7.72049L14.7453 16.8699Q14.7453 18.8153 16.1093 20.193Q17.4733 21.5707 19.4118 21.5707ZM41.3299-65.5274Q45.5602-65.5274 48.5855-68.5388Q51.6109-71.5502 51.6109-75.8498Q51.6109-80.1419 48.5855-83.1361Q45.5602-86.1303 41.3299-86.1303Q37.0308-86.1303 34.0192-83.1361Q31.0075-80.1419 31.0075-75.8498Q31.0075-71.5502 34.0192-68.5388Q37.0308-65.5274 41.3299-65.5274Z"/>
  </g>
  <g id="Thin-M" transform="matrix(1 0 0 1 814.613 1126)">
   <path d="M19.1855 19.4886Q21.1144 19.4886 22.4722 18.1562Q23.83 16.8237 23.83 14.9688L23.83-6.90783L36.706-20.6569Q37.0149-21.078 37.3122-20.6569L49.728-4.1067L60.1002 16.6252Q61.1834 18.7917 62.9578 19.271Q64.7322 19.7503 66.3571 18.9532Q67.9819 18.1562 68.6855 16.4752Q69.3891 14.7943 68.3682 12.7017L46.9892-30.1177Q45.5197-33.0319 44.7288-36.7609Q43.938-40.4899 43.6149-44.425Q43.5019-45.6951 44.2304-46.2367Q44.9589-46.7784 46.0929-46.2052L54.4971-41.9345L62.3165-26.245Q63.3499-24.2031 65.1305-23.7238Q66.9111-23.2445 68.5609-24.0415Q70.2107-24.8386 70.9081-26.4946Q71.6055-28.1506 70.5222-30.367L61.9934-47.3507Q61.2457-48.7962 59.9133-49.3926L47.8108-55.4941Q45.0835-56.8889 42.3505-57.5609Q39.6175-58.2329 37.0149-58.8684Q34.0767-59.5654 31.5306-60.7421Q28.9845-61.9188 27.2159-64.4591L21.6751-72.5402L21.6751-88.3659Q21.6751-90.1586 20.3057-91.5222Q18.9363-92.8858 17.0431-92.8858Q15.1882-92.8858 13.8245-91.5222Q12.4609-90.1586 12.4609-88.3659L12.4609-71.0707Q12.4609-70.2989 12.6225-69.7013Q12.7841-69.1036 13.2825-68.4681L23.0076-54.4732Q23.6431-53.5262 24.0347-52.6921Q24.4264-51.8581 24.6017-50.2266Q24.7886-47.7245 25.2368-44.0075Q25.6849-40.2905 26.3881-36.3127Q27.0913-32.3349 28.1122-28.9099L15.5113-11.4161Q14.6773-10.2581 14.6773-8.73872L14.6773 14.9688Q14.6773 16.8237 15.9848 18.1562Q17.2923 19.4886 19.1855 19.4886ZM40.3794-65.2107Q44.4515-65.2107 47.3523-68.0861Q50.2531-70.9616 50.2531-75.0578Q50.2531-79.1914 47.3523-82.061Q44.4515-84.9307 40.3794-84.9307Q36.284-84.9307 33.4081-82.061Q30.5323-79.1914 30.5323-75.0578Q30.5323-70.9616 33.4081-68.0861Q36.284-65.2107 40.3794-65.2107Z"/>
  </g>
  <g id="Ultralight-M" transform="matrix(1 0 0 1 518.476 1126)">
   <path d="M19.0696 18.4222Q20.9405 18.4222 22.2809 17.1129Q23.6214 15.8036 23.6214 13.995L23.6214-7.45254L36.2771-20.9816Q36.528-21.3561 36.779-20.9816L48.9977-4.70945L59.1613 15.6168Q60.2214 17.7369 61.9668 18.2047Q63.7121 18.6724 65.3022 17.8926Q66.8923 17.1129 67.5786 15.461Q68.2649 13.8091 67.2671 11.7512L46.3169-30.2104Q44.8821-33.0782 44.1028-36.7261Q43.3236-40.374 43.0121-44.2396Q42.8874-45.4866 43.6044-46.0166Q44.3213-46.5466 45.4438-45.9849L53.6741-41.807L61.3428-26.4072Q62.3415-24.4117 64.0874-23.944Q65.8332-23.4762 67.454-24.256Q69.0747-25.0357 69.7605-26.6569Q70.4463-28.2782 69.3863-30.4597L61.0313-47.1073Q60.2837-48.5412 58.9744-49.1028L47.1268-55.0885Q44.4459-56.46 41.7651-57.1146Q39.0843-57.7692 36.528-58.3933Q33.6594-59.0785 31.1655-60.232Q28.6715-61.3856 26.9261-63.8795L21.5012-71.7984L21.5012-87.3227Q21.5012-89.069 20.1608-90.4094Q18.8204-91.7498 16.9504-91.7498Q15.1418-91.7498 13.8014-90.4094Q12.4609-89.069 12.4609-87.3227L12.4609-70.3635Q12.4609-69.615 12.6167-69.0231Q12.7724-68.4313 13.2708-67.8073L22.8105-54.0907Q23.4345-53.1552 23.8087-52.3443Q24.183-51.5335 24.37-49.9136Q24.5569-47.4811 24.9934-43.8336Q25.43-40.1862 26.1158-36.2896Q26.8015-32.3929 27.7993-29.0258L15.4532-11.8798Q14.6424-10.7565 14.6424-9.26026L14.6424 13.995Q14.6424 15.8036 15.921 17.1129Q17.1996 18.4222 19.0696 18.4222ZM39.8925-65.0485Q43.8836-65.0485 46.7206-67.8543Q49.5577-70.6601 49.5577-74.6521Q49.5577-78.7045 46.7206-81.5104Q43.8836-84.3163 39.8925-84.3163Q35.9015-84.3163 33.0952-81.5104Q30.2888-78.7045 30.2888-74.6521Q30.2888-70.6601 33.0952-67.8543Q35.9015-65.0485 39.8925-65.0485Z"/>
  </g>
  <g id="Black-S" transform="matrix(1 0 0 1 2896.56 696)">
   <path d="M16.6992 14.0137Q18.8477 14.0137 20.3125 12.5732Q21.7773 11.1328 21.7773 9.0332L21.7773-10.0098L31.6406-20.5078Q32.5195-21.4355 33.252-20.4102L43.0664-7.37305L52.2461 10.9375Q53.418 13.3301 55.3711 13.8184Q57.3242 14.3066 59.1309 13.4277Q60.9375 12.5488 61.7188 10.7178Q62.5 8.88672 61.377 6.64062L42.334-31.4941Q41.1133-33.9844 40.4297-37.207Q39.7461-40.4297 39.4043-43.8477Q39.3555-44.5801 39.4775-44.6777Q39.5996-44.7754 40.1855-44.4824L47.4121-40.8203L54.1992-27.1973Q55.3223-24.9512 57.2754-24.4385Q59.2285-23.9258 61.0596-24.7803Q62.8906-25.6348 63.6719-27.4902Q64.4531-29.3457 63.2324-31.7383L55.6641-46.7773Q54.8828-48.3398 53.418-49.0723L42.5781-54.4922Q40.1367-55.7617 37.6221-56.3965Q35.1074-57.0312 32.8613-57.5684Q30.2734-58.2031 28.1982-59.1309Q26.123-60.0586 24.707-62.1094L19.9219-69.043L19.9219-82.8125Q19.9219-84.8633 18.4082-86.3281Q16.8945-87.793 14.8438-87.793Q12.7441-87.793 11.2549-86.3281Q9.76562-84.8633 9.76562-82.8125L9.76562-67.4316Q9.76562-66.6016 10.0098-65.9424Q10.2539-65.2832 10.6445-64.5996L19.3359-52.1484Q19.873-51.3672 20.166-50.7324Q20.459-50.0977 20.5566-48.877Q20.752-46.6797 21.1182-43.457Q21.4844-40.2344 22.0947-36.7432Q22.7051-33.252 23.584-30.1758L12.6953-14.9902Q11.7188-13.6719 11.7188-12.0117L11.7188 9.0332Q11.7188 11.1328 13.1592 12.5732Q14.5996 14.0137 16.6992 14.0137ZM36.3281-61.1328Q40.3809-61.1328 43.2373-64.0137Q46.0938-66.8945 46.0938-70.8984Q46.0938-74.9512 43.2373-77.8076Q40.3809-80.6641 36.3281-80.6641Q32.3242-80.6641 29.4434-77.8076Q26.5625-74.9512 26.5625-70.8984Q26.5625-66.8945 29.4434-64.0137Q32.3242-61.1328 36.3281-61.1328Z"/>
  </g>
  <g id="Heavy-S" transform="matrix(1 0 0 1 2600.35 696)">
   <path d="M16.3996 13.3683Q18.4443 13.3683 19.8285 12.0028Q21.2126 10.6373 21.2126 8.6529L21.2126-10.2864L31.3064-21.0264Q32.0816-21.8504 32.7334-20.9518L42.6861-7.70726L51.7851 10.4419Q52.8994 12.7078 54.743 13.1788Q56.5867 13.6497 58.2953 12.8169Q60.004 11.9841 60.7449 10.251Q61.4858 8.51794 60.4204 6.38709L41.5734-31.3558Q40.3411-33.8346 39.6633-37.0515Q38.9855-40.2683 38.6552-43.6633Q38.6064-44.4764 38.8437-44.6604Q39.081-44.8445 39.7476-44.5055L46.9627-40.8434L53.7152-27.301Q54.7921-25.1701 56.6415-24.6805Q58.4909-24.1908 60.2183-25.005Q61.9456-25.8192 62.6808-27.5709Q63.4159-29.3227 62.2644-31.5885L54.7652-46.4892Q54.03-47.9595 52.6458-48.6574L41.9212-54.0197Q39.5144-55.2662 37.0458-55.8894Q34.5773-56.5126 32.3427-57.0498Q29.7664-57.673 27.6681-58.618Q25.5699-59.563 24.1423-61.6369L19.3687-68.5589L19.3687-82.2478Q19.3687-84.1833 17.9357-85.5733Q16.5027-86.9632 14.5672-86.9632Q12.5828-86.9632 11.1742-85.5733Q9.76562-84.1833 9.76562-82.2478L9.76562-67.0283Q9.76562-66.2328 9.98672-65.6139Q10.2078-64.9951 10.5984-64.3461L19.1861-52.0217Q19.7232-51.2404 20.0335-50.5826Q20.3437-49.9248 20.4414-48.681Q20.6252-46.4838 20.9972-43.2784Q21.3691-40.073 21.9795-36.6049Q22.5898-33.1367 23.4687-30.1066L12.6146-14.9902Q11.6957-13.741 11.6957-12.1731L11.6957 8.6529Q11.6957 10.6373 13.0612 12.0028Q14.4267 13.3683 16.3996 13.3683ZM35.6136-60.6949Q39.528-60.6949 42.2981-63.4835Q45.0681-66.2722 45.0681-70.1724Q45.0681-74.0984 42.2981-76.8626Q39.528-79.6269 35.6136-79.6269Q31.7134-79.6269 28.9248-76.8626Q26.1361-74.0984 26.1361-70.1724Q26.1361-66.2722 28.9248-63.4835Q31.7134-60.6949 35.6136-60.6949Z"/>
  </g>
  <g id="Bold-S" transform="matrix(1 0 0 1 2304.2 696)">
   <path d="M16.0645 12.6465Q17.9932 12.6465 19.2871 11.3647Q20.5811 10.083 20.5811 8.22754L20.5811-10.5957L30.9326-21.6064Q31.5918-22.3145 32.1533-21.5576L42.2607-8.08105L51.2695 9.8877Q52.3193 12.0117 54.0405 12.4634Q55.7617 12.915 57.3608 12.1338Q58.96 11.3525 59.6558 9.729Q60.3516 8.10547 59.3506 6.10352L40.7227-31.2012Q39.4775-33.667 38.8062-36.8774Q38.1348-40.0879 37.8174-43.457Q37.7686-44.3604 38.1348-44.6411Q38.501-44.9219 39.2578-44.5312L46.46-40.8691L53.1738-27.417Q54.1992-25.415 55.9326-24.9512Q57.666-24.4873 59.2773-25.2563Q60.8887-26.0254 61.5723-27.6611Q62.2559-29.2969 61.1816-31.4209L53.7598-46.167Q53.0762-47.5342 51.7822-48.1934L41.1865-53.4912Q38.8184-54.7119 36.4014-55.3223Q33.9844-55.9326 31.7627-56.4697Q29.1992-57.0801 27.0752-58.0444Q24.9512-59.0088 23.5107-61.1084L18.75-68.0176L18.75-81.6162Q18.75-83.4229 17.4072-84.729Q16.0645-86.0352 14.2578-86.0352Q12.4023-86.0352 11.084-84.729Q9.76562-83.4229 9.76562-81.6162L9.76562-66.5771Q9.76562-65.8203 9.96094-65.2466Q10.1562-64.6729 10.5469-64.0625L19.0186-51.8799Q19.5557-51.0986 19.8853-50.415Q20.2148-49.7314 20.3125-48.4619Q20.4834-46.2646 20.8618-43.0786Q21.2402-39.8926 21.8506-36.4502Q22.4609-33.0078 23.3398-30.0293L12.5244-14.9902Q11.6699-13.8184 11.6699-12.3535L11.6699 8.22754Q11.6699 10.083 12.9517 11.3647Q14.2334 12.6465 16.0645 12.6465ZM34.8145-60.2051Q38.5742-60.2051 41.2476-62.8906Q43.9209-65.5762 43.9209-69.3604Q43.9209-73.1445 41.2476-75.8057Q38.5742-78.4668 34.8145-78.4668Q31.0303-78.4668 28.3447-75.8057Q25.6592-73.1445 25.6592-69.3604Q25.6592-65.5762 28.3447-62.8906Q31.0303-60.2051 34.8145-60.2051Z"/>
  </g>
  <g id="Semibold-S" transform="matrix(1 0 0 1 2007.87 696)">
   <path d="M15.8334 12.1488Q17.6821 12.1488 18.9139 10.9249Q20.1456 9.70088 20.1456 7.93428L20.1456-10.809L30.6749-22.0063Q31.2541-22.6344 31.7534-21.9753L41.9675-8.33877L50.9141 9.50557Q51.9194 11.5318 53.5562 11.9702Q55.193 12.4085 56.7166 11.6628Q58.2401 10.9171 58.9048 9.36909Q59.5695 7.82109 58.613 5.90801L40.1361-31.0945Q38.8821-33.5515 38.2152-36.7575Q37.5482-39.9635 37.2397-43.3148Q37.1909-44.2804 37.646-44.6278Q38.1011-44.9752 38.9201-44.549L46.1134-40.8869L52.8006-27.497Q53.7904-25.5839 55.4438-25.1378Q57.0973-24.6917 58.6286-25.4296Q60.16-26.1676 60.808-27.7233Q61.4561-29.2791 60.4352-31.3054L53.0666-45.9448Q52.4186-47.2409 51.1868-47.8734L40.68-53.1269Q38.3385-54.3298 35.957-54.9312Q33.5756-55.5327 31.3628-56.0698Q28.8082-56.6713 26.6664-57.649Q24.5246-58.6267 23.0753-60.744L18.3234-67.6443L18.3234-81.1808Q18.3234-82.8985 17.0429-84.1469Q15.7623-85.3953 14.0445-85.3953Q12.2779-85.3953 11.0218-84.1469Q9.76562-82.8985 9.76562-81.1808L9.76562-66.2661Q9.76562-65.5359 9.94316-64.9933Q10.1207-64.4507 10.5113-63.867L18.903-51.7821Q19.4401-51.0009 19.7831-50.2995Q20.126-49.5981 20.2236-48.3108Q20.3856-46.1136 20.7685-42.9409Q21.1514-39.7682 21.7617-36.3436Q22.3721-32.9189 23.251-29.976L12.4622-14.9902Q11.6521-13.8717 11.6521-12.4779L11.6521 7.93428Q11.6521 9.70088 12.8761 10.9249Q14.1001 12.1488 15.8334 12.1488ZM34.2635-59.8674Q37.9166-59.8674 40.5233-62.4818Q43.13-65.0963 43.13-68.8005Q43.13-72.4869 40.5233-75.077Q37.9166-77.667 34.2635-77.667Q30.5593-77.667 27.9448-75.077Q25.3304-72.4869 25.3304-68.8005Q25.3304-65.0963 27.9448-62.4818Q30.5593-59.8674 34.2635-59.8674Z"/>
  </g>
  <g id="Medium-S" transform="matrix(1 0 0 1 1711.46 696)">
   <path d="M15.6582 11.7715Q17.4463 11.7715 18.6309 10.5913Q19.8154 9.41113 19.8154 7.71191L19.8154-10.9707L30.4795-22.3096Q30.998-22.877 31.4502-22.292L41.7451-8.53418L50.6445 9.21582Q51.6162 11.168 53.189 11.5962Q54.7617 12.0244 56.228 11.3057Q57.6943 10.5869 58.3354 9.09619Q58.9766 7.60547 58.0537 5.75977L39.6914-31.0137Q38.4307-33.4639 37.7671-36.6665Q37.1035-39.8691 36.8018-43.207Q36.7529-44.2197 37.2754-44.6177Q37.7979-45.0156 38.6641-44.5625L45.8506-40.9004L52.5176-27.5576Q53.4805-25.7119 55.0732-25.2793Q56.666-24.8467 58.1367-25.561Q59.6074-26.2754 60.2285-27.7705Q60.8496-29.2656 59.8691-31.2178L52.541-45.7764Q51.9199-47.0186 50.7354-47.6309L40.2959-52.8506Q37.9746-54.04 35.6201-54.6348Q33.2656-55.2295 31.0596-55.7666Q28.5117-56.3613 26.3564-57.3491Q24.2012-58.3369 22.7451-60.4678L18-67.3613L18-80.8506Q18-82.501 16.7666-83.7056Q15.5332-84.9102 13.8828-84.9102Q12.1836-84.9102 10.9746-83.7056Q9.76562-82.501 9.76562-80.8506L9.76562-66.0303Q9.76562-65.3203 9.92969-64.8013Q10.0938-64.2822 10.4844-63.7188L18.8154-51.708Q19.3525-50.9268 19.7056-50.2119Q20.0586-49.4971 20.1562-48.1963Q20.3115-45.999 20.6978-42.8364Q21.084-39.6738 21.6943-36.2627Q22.3047-32.8516 23.1836-29.9355L12.415-14.9902Q11.6387-13.9121 11.6387-12.5723L11.6387 7.71191Q11.6387 9.41113 12.8188 10.5913Q13.999 11.7715 15.6582 11.7715ZM33.8457-59.6113Q37.418-59.6113 39.9741-62.1719Q42.5303-64.7324 42.5303-68.376Q42.5303-71.9883 39.9741-74.5244Q37.418-77.0605 33.8457-77.0605Q30.2021-77.0605 27.6416-74.5244Q25.0811-71.9883 25.0811-68.376Q25.0811-64.7324 27.6416-62.1719Q30.2021-59.6113 33.8457-59.6113Z"/>
  </g>
  <g id="Regular-S" transform="matrix(1 0 0 1 1415.13 696)">
   <path d="M15.4297 11.2793Q17.1387 11.2793 18.2617 10.1562Q19.3848 9.0332 19.3848 7.42188L19.3848-11.1816L30.2246-22.7051Q30.6641-23.1934 31.0547-22.7051L41.4551-8.78906L50.293 8.83789Q51.2207 10.6934 52.71 11.1084Q54.1992 11.5234 55.5908 10.8398Q56.9824 10.1562 57.5928 8.74023Q58.2031 7.32422 57.3242 5.56641L39.1113-30.9082Q37.8418-33.3496 37.1826-36.5479Q36.5234-39.7461 36.2305-43.0664Q36.1816-44.1406 36.792-44.6045Q37.4023-45.0684 38.3301-44.5801L45.5078-40.918L52.1484-27.6367Q53.0762-25.8789 54.5898-25.4639Q56.1035-25.0488 57.4951-25.7324Q58.8867-26.416 59.4727-27.832Q60.0586-29.248 59.1309-31.1035L51.8555-45.5566Q51.2695-46.7285 50.1465-47.3145L39.7949-52.4902Q37.5-53.6621 35.1807-54.248Q32.8613-54.834 30.6641-55.3711Q28.125-55.957 25.9521-56.958Q23.7793-57.959 22.3145-60.1074L17.5781-66.9922L17.5781-80.4199Q17.5781-81.9824 16.4062-83.1299Q15.2344-84.2773 13.6719-84.2773Q12.0605-84.2773 10.9131-83.1299Q9.76562-81.9824 9.76562-80.4199L9.76562-65.7227Q9.76562-65.0391 9.91211-64.5508Q10.0586-64.0625 10.4492-63.5254L18.7012-51.6113Q19.2383-50.8301 19.6045-50.0977Q19.9707-49.3652 20.0684-48.0469Q20.2148-45.8496 20.6055-42.7002Q20.9961-39.5508 21.6064-36.1572Q22.2168-32.7637 23.0957-29.8828L12.3535-14.9902Q11.6211-13.9648 11.6211-12.6953L11.6211 7.42188Q11.6211 9.0332 12.7441 10.1562Q13.8672 11.2793 15.4297 11.2793ZM33.3008-59.2773Q36.7676-59.2773 39.2578-61.7676Q41.748-64.2578 41.748-67.8223Q41.748-71.3379 39.2578-73.8037Q36.7676-76.2695 33.3008-76.2695Q29.7363-76.2695 27.2461-73.8037Q24.7559-71.3379 24.7559-67.8223Q24.7559-64.2578 27.2461-61.7676Q29.7363-59.2773 33.3008-59.2773Z"/>
  </g>
  <g id="Light-S" transform="matrix(1 0 0 1 1119.17 696)">
   <path d="M15.2784 9.88668Q16.9116 9.88668 18.012 8.79389Q19.1124 7.70111 19.1124 6.15031L19.1124-11.893L29.6646-23.129Q30.0283-23.5565 30.3584-23.129L40.5014-9.57616L49.0669 7.52106Q49.9644 9.316 51.4158 9.71591Q52.8671 10.1158 54.2133 9.45485Q55.5595 8.79389 56.1473 7.41577Q56.735 6.03765 55.8863 4.3251L38.2334-31.0293Q37.0092-33.4101 36.3651-36.5025Q35.7211-39.5948 35.4434-42.8243Q35.3793-43.8683 35.9745-44.317Q36.5697-44.7657 37.4825-44.2924L44.4331-40.7514L50.8769-27.8486Q51.7593-26.1513 53.2276-25.7514Q54.6959-25.3515 56.0496-26.0124Q57.4033-26.6734 57.9741-28.044Q58.5449-29.4146 57.6475-31.2246L50.5992-45.2387Q50.0132-46.3956 48.9204-46.936L38.9018-51.9605Q36.6674-53.1021 34.4162-53.6653Q32.165-54.2285 30.0283-54.7506Q27.58-55.3212 25.4753-56.292Q23.3706-57.2627 21.936-59.3506L17.351-66.0235L17.351-79.0576Q17.351-80.5595 16.217-81.6767Q15.0831-82.7939 13.5508-82.7939Q12-82.7939 10.8828-81.6767Q9.76562-80.5595 9.76562-79.0576L9.76562-64.7992Q9.76562-64.1459 9.90448-63.6653Q10.0433-63.1846 10.434-62.6625L18.4438-51.1119Q18.9659-50.3456 19.3094-49.6435Q19.6528-48.9413 19.7657-47.6382Q19.9122-45.5317 20.2877-42.4731Q20.6632-39.4145 21.2508-36.127Q21.8384-32.8395 22.687-30.0341L12.2777-15.5958Q11.5756-14.6156 11.5756-13.3764L11.5756 6.15031Q11.5756 7.70111 12.6609 8.79389Q13.7461 9.88668 15.2784 9.88668ZM32.665-59.0655Q36.026-59.0655 38.4329-61.4648Q40.8399-63.8641 40.8399-67.2925Q40.8399-70.7021 38.4329-73.0846Q36.026-75.4672 32.665-75.4672Q29.2369-75.4672 26.8374-73.0846Q24.438-70.7021 24.438-67.2925Q24.438-63.8641 26.8374-61.4648Q29.2369-59.0655 32.665-59.0655Z"/>
  </g>
  <g id="Thin-S" transform="matrix(1 0 0 1 823.446 696)">
   <path d="M15.0782 8.04483Q16.6112 8.04483 17.6817 6.99207Q18.7522 5.93931 18.7522 4.46856L18.7522-12.8337L28.924-23.6897Q29.1874-24.0368 29.4375-23.6897L39.2401-10.6172L47.4454 5.77944Q48.3028 7.49433 49.7041 7.87422Q51.1053 8.25412 52.3915 7.62309Q53.6777 6.99207 54.2354 5.66406Q54.7932 4.33606 53.9846 2.68338L37.0724-31.1894Q35.908-33.4902 35.2839-36.4424Q34.6599-39.3946 34.4024-42.5041Q34.3181-43.508 34.8933-43.9367Q35.4685-44.3655 36.3614-43.912L43.0117-40.5311L49.1951-28.1287Q50.0177-26.5115 51.426-26.1316Q52.8342-25.7517 54.1378-26.3827Q55.4414-27.0138 55.9922-28.3243Q56.543-29.6349 55.6855-31.3847L48.9376-44.8183Q48.3517-45.9553 47.2989-46.4355L37.7205-51.2599Q35.5662-52.3615 33.4051-52.8945Q31.2441-53.4276 29.1874-53.9299Q26.8592-54.4804 24.8447-55.4111Q22.8301-56.3417 21.4355-58.3496L17.0507-64.7424L17.0507-77.2557Q17.0507-78.6777 15.9668-79.7548Q14.8829-80.832 13.3907-80.832Q11.92-80.832 10.8428-79.7548Q9.76562-78.6777 9.76562-77.2557L9.76562-63.578Q9.76562-62.9647 9.89439-62.4941Q10.0232-62.0235 10.4138-61.5213L18.1034-50.4513Q18.6057-49.7049 18.919-49.0427Q19.2324-48.3806 19.3655-47.0977Q19.512-45.1113 19.8674-42.1727Q20.2229-39.2342 20.7804-36.0869Q21.3379-32.9397 22.1465-30.2343L12.1775-16.3966Q11.5154-15.4763 11.5154-14.2771L11.5154 4.46856Q11.5154 5.93931 12.5507 6.99207Q13.586 8.04483 15.0782 8.04483ZM31.8241-58.7853Q35.0452-58.7853 37.342-61.0644Q39.6388-63.3435 39.6388-66.5919Q39.6388-69.8612 37.342-72.1336Q35.0452-74.406 31.8241-74.406Q28.5763-74.406 26.2969-72.1336Q24.0175-69.8612 24.0175-66.5919Q24.0175-63.3435 26.2969-61.0644Q28.5763-58.7853 31.8241-58.7853Z"/>
  </g>
  <g id="Ultralight-S" transform="matrix(1 0 0 1 527.242 696)">
   <path d="M14.9757 7.10144Q16.4574 7.10144 17.5125 6.06918Q18.5677 5.03693 18.5677 3.60718L18.5677-13.3156L28.5446-23.9769Q28.7567-24.2828 28.9658-23.9769L38.5941-11.1504L46.6148 4.88739Q47.4518 6.56128 48.8274 6.93092Q50.2029 7.30057 51.4584 6.68488Q52.7138 6.06918 53.2562 4.76685Q53.7987 3.46451 53.0106 1.8425L36.4777-31.2714Q35.3439-33.5312 34.7301-36.4117Q34.1164-39.2921 33.8692-42.3401Q33.7746-43.3235 34.3395-43.742Q34.9045-44.1605 35.7872-43.7172L42.2836-40.4182L48.3337-28.2722Q49.1257-26.696 50.5032-26.3264Q51.8806-25.9567 53.1586-26.5724Q54.4365-27.1881 54.977-28.4679Q55.5176-29.7478 54.6806-31.4667L48.0865-44.603Q47.5006-45.7298 46.4684-46.1792L37.1155-50.901Q35.0021-51.9821 32.8873-52.4998Q30.7724-53.0174 28.7567-53.5095Q26.49-54.0497 24.5216-54.9599Q22.5533-55.8701 21.1792-57.8369L16.8968-64.0862L16.8968-76.3329Q16.8968-77.7138 15.8386-78.7704Q14.7804-79.8271 13.3087-79.8271Q11.879-79.8271 10.8223-78.7704Q9.76562-77.7138 9.76562-76.3329L9.76562-62.9524Q9.76562-62.3596 9.88922-61.8942Q10.0128-61.4288 10.4034-60.9367L17.9291-50.1129Q18.4212-49.3767 18.7191-48.735Q19.017-48.0934 19.1605-46.8208Q19.3069-44.8959 19.6522-42.0189Q19.9974-39.1418 20.5395-36.0664Q21.0815-32.991 21.8697-30.3368L12.1262-16.8068Q11.4845-15.9172 11.4845-14.7385L11.4845 3.60718Q11.4845 5.03693 12.4943 6.06918Q13.504 7.10144 14.9757 7.10144ZM31.3934-58.6418Q34.5428-58.6418 36.7832-60.8593Q39.0236-63.0768 39.0236-66.2331Q39.0236-69.4305 36.7832-71.6465Q34.5428-73.8625 31.3934-73.8625Q28.2379-73.8625 26.0201-71.6465Q23.8022-69.4305 23.8022-66.2331Q23.8022-63.0768 26.0201-60.8593Q28.2379-58.6418 31.3934-58.6418Z"/>
  </g>
 </g>
</svg>
