<?xml version="1.0" encoding="UTF-8"?>
<!--Generator: Apple Native CoreSVG 175.5-->
<!DOCTYPE svg
PUBLIC "-//W3C//DTD SVG 1.1//EN"
       "http://www.w3.org/Graphics/SVG/1.1/DTD/svg11.dtd">
<svg version="1.1" xmlns="http://www.w3.org/2000/svg" xmlns:xlink="http://www.w3.org/1999/xlink" width="3300" height="2200">
 <!--glyph: "uni101546.medium", point size: 100.0, font version: "18.0d9e1", template writer version: "84"-->
 <g id="Notes">
  <rect height="2200" id="artboard" style="fill:white;opacity:1" width="3300" x="0" y="0"/>
  <line style="fill:none;stroke:black;opacity:1;stroke-width:0.5;" x1="263" x2="3036" y1="292" y2="292"/>
  <text style="stroke:none;fill:black;font-family:sans-serif;font-size:13;font-weight:bold;" transform="matrix(1 0 0 1 263 322)">Weight/Scale Variations</text>
  <text style="stroke:none;fill:black;font-family:sans-serif;font-size:13;text-anchor:middle;" transform="matrix(1 0 0 1 559.711 322)">Ultralight</text>
  <text style="stroke:none;fill:black;font-family:sans-serif;font-size:13;text-anchor:middle;" transform="matrix(1 0 0 1 856.422 322)">Thin</text>
  <text style="stroke:none;fill:black;font-family:sans-serif;font-size:13;text-anchor:middle;" transform="matrix(1 0 0 1 1153.13 322)">Light</text>
  <text style="stroke:none;fill:black;font-family:sans-serif;font-size:13;text-anchor:middle;" transform="matrix(1 0 0 1 1449.84 322)">Regular</text>
  <text style="stroke:none;fill:black;font-family:sans-serif;font-size:13;text-anchor:middle;" transform="matrix(1 0 0 1 1746.56 322)">Medium</text>
  <text style="stroke:none;fill:black;font-family:sans-serif;font-size:13;text-anchor:middle;" transform="matrix(1 0 0 1 2043.27 322)">Semibold</text>
  <text style="stroke:none;fill:black;font-family:sans-serif;font-size:13;text-anchor:middle;" transform="matrix(1 0 0 1 2339.98 322)">Bold</text>
  <text style="stroke:none;fill:black;font-family:sans-serif;font-size:13;text-anchor:middle;" transform="matrix(1 0 0 1 2636.69 322)">Heavy</text>
  <text style="stroke:none;fill:black;font-family:sans-serif;font-size:13;text-anchor:middle;" transform="matrix(1 0 0 1 2933.4 322)">Black</text>
  <line style="fill:none;stroke:black;opacity:1;stroke-width:0.5;" x1="263" x2="3036" y1="1903" y2="1903"/>
  <g transform="matrix(1 0 0 1 263 1933)">
   <path d="M9.24805 0.830078Q10.8691 0.830078 12.2949 0.214844Q13.7207-0.400391 14.8096-1.49414Q15.8984-2.58789 16.5186-4.01367Q17.1387-5.43945 17.1387-7.05078Q17.1387-8.66211 16.5186-10.0879Q15.8984-11.5137 14.8047-12.6074Q13.7109-13.7012 12.2852-14.3164Q10.8594-14.9316 9.23828-14.9316Q7.62695-14.9316 6.20117-14.3164Q4.77539-13.7012 3.69141-12.6074Q2.60742-11.5137 1.9873-10.0879Q1.36719-8.66211 1.36719-7.05078Q1.36719-5.43945 1.9873-4.01367Q2.60742-2.58789 3.69629-1.49414Q4.78516-0.400391 6.21094 0.214844Q7.63672 0.830078 9.24805 0.830078ZM9.24805-0.654297Q7.91992-0.654297 6.7627-1.14746Q5.60547-1.64062 4.73145-2.51953Q3.85742-3.39844 3.36426-4.56055Q2.87109-5.72266 2.87109-7.05078Q2.87109-8.37891 3.35938-9.54102Q3.84766-10.7031 4.72168-11.582Q5.5957-12.4609 6.75293-12.9541Q7.91016-13.4473 9.23828-13.4473Q10.5762-13.4473 11.7383-12.9541Q12.9004-12.4609 13.7793-11.582Q14.6582-10.7031 15.1514-9.54102Q15.6445-8.37891 15.6445-7.05078Q15.6445-5.72266 15.1514-4.56055Q14.6582-3.39844 13.7793-2.51953Q12.9004-1.64062 11.7432-1.14746Q10.5859-0.654297 9.24805-0.654297ZM5.6543-7.05078Q5.6543-6.72852 5.85938-6.52832Q6.06445-6.32812 6.40625-6.32812L8.51562-6.32812L8.51562-4.20898Q8.51562-3.88672 8.71094-3.67676Q8.90625-3.4668 9.23828-3.4668Q9.56055-3.4668 9.77051-3.67676Q9.98047-3.88672 9.98047-4.20898L9.98047-6.32812L12.0898-6.32812Q12.4219-6.32812 12.627-6.52832Q12.832-6.72852 12.832-7.05078Q12.832-7.38281 12.627-7.58789Q12.4219-7.79297 12.0898-7.79297L9.98047-7.79297L9.98047-9.90234Q9.98047-10.2344 9.77051-10.4443Q9.56055-10.6543 9.23828-10.6543Q8.90625-10.6543 8.71094-10.4443Q8.51562-10.2344 8.51562-9.90234L8.51562-7.79297L6.40625-7.79297Q6.06445-7.79297 5.85938-7.58789Q5.6543-7.38281 5.6543-7.05078Z"/>
  </g>
  <g transform="matrix(1 0 0 1 281.867 1933)">
   <path d="M11.709 2.91016Q13.75 2.91016 15.5518 2.12891Q17.3535 1.34766 18.7305-0.0292969Q20.1074-1.40625 20.8887-3.20801Q21.6699-5.00977 21.6699-7.05078Q21.6699-9.0918 20.8887-10.8936Q20.1074-12.6953 18.7305-14.0723Q17.3535-15.4492 15.5469-16.2305Q13.7402-17.0117 11.6992-17.0117Q9.6582-17.0117 7.85645-16.2305Q6.05469-15.4492 4.68262-14.0723Q3.31055-12.6953 2.5293-10.8936Q1.74805-9.0918 1.74805-7.05078Q1.74805-5.00977 2.5293-3.20801Q3.31055-1.40625 4.6875-0.0292969Q6.06445 1.34766 7.86621 2.12891Q9.66797 2.91016 11.709 2.91016ZM11.709 1.25Q9.98047 1.25 8.47656 0.605469Q6.97266-0.0390625 5.83496-1.17676Q4.69727-2.31445 4.05762-3.81836Q3.41797-5.32227 3.41797-7.05078Q3.41797-8.7793 4.05762-10.2832Q4.69727-11.7871 5.83008-12.9297Q6.96289-14.0723 8.4668-14.7119Q9.9707-15.3516 11.6992-15.3516Q13.4277-15.3516 14.9365-14.7119Q16.4453-14.0723 17.583-12.9297Q18.7207-11.7871 19.3652-10.2832Q20.0098-8.7793 20.0098-7.05078Q20.0098-5.32227 19.3701-3.81836Q18.7305-2.31445 17.5879-1.17676Q16.4453-0.0390625 14.9414 0.605469Q13.4375 1.25 11.709 1.25ZM7.17773-7.05078Q7.17773-6.69922 7.41211-6.47461Q7.64648-6.25 8.01758-6.25L10.8887-6.25L10.8887-3.36914Q10.8887-2.99805 11.1133-2.76855Q11.3379-2.53906 11.6895-2.53906Q12.0605-2.53906 12.29-2.76855Q12.5195-2.99805 12.5195-3.36914L12.5195-6.25L15.4004-6.25Q15.7715-6.25 16.001-6.47461Q16.2305-6.69922 16.2305-7.05078Q16.2305-7.42188 16.001-7.65137Q15.7715-7.88086 15.4004-7.88086L12.5195-7.88086L12.5195-10.752Q12.5195-11.1328 12.29-11.3623Q12.0605-11.5918 11.6895-11.5918Q11.3379-11.5918 11.1133-11.3574Q10.8887-11.123 10.8887-10.752L10.8887-7.88086L8.01758-7.88086Q7.63672-7.88086 7.40723-7.65137Q7.17773-7.42188 7.17773-7.05078Z"/>
  </g>
  <g transform="matrix(1 0 0 1 305.646 1933)">
   <path d="M14.9707 5.66406Q17.0605 5.66406 18.96 5.01465Q20.8594 4.36523 22.4512 3.19336Q24.043 2.02148 25.2197 0.429688Q26.3965-1.16211 27.0459-3.06641Q27.6953-4.9707 27.6953-7.05078Q27.6953-9.14062 27.0459-11.04Q26.3965-12.9395 25.2197-14.5312Q24.043-16.123 22.4512-17.2998Q20.8594-18.4766 18.9551-19.126Q17.0508-19.7754 14.9609-19.7754Q12.8711-19.7754 10.9717-19.126Q9.07227-18.4766 7.48535-17.2998Q5.89844-16.123 4.72168-14.5312Q3.54492-12.9395 2.90039-11.04Q2.25586-9.14062 2.25586-7.05078Q2.25586-4.9707 2.90527-3.06641Q3.55469-1.16211 4.72656 0.429688Q5.89844 2.02148 7.49023 3.19336Q9.08203 4.36523 10.9814 5.01465Q12.8809 5.66406 14.9707 5.66406ZM14.9707 3.84766Q13.1641 3.84766 11.5283 3.2959Q9.89258 2.74414 8.53516 1.74805Q7.17773 0.751953 6.17676-0.610352Q5.17578-1.97266 4.62891-3.6084Q4.08203-5.24414 4.08203-7.05078Q4.08203-8.86719 4.62891-10.5029Q5.17578-12.1387 6.17188-13.501Q7.16797-14.8633 8.52539-15.8594Q9.88281-16.8555 11.5186-17.4023Q13.1543-17.9492 14.9609-17.9492Q16.7773-17.9492 18.4131-17.4023Q20.0488-16.8555 21.4111-15.8594Q22.7734-14.8633 23.7744-13.501Q24.7754-12.1387 25.3223-10.5029Q25.8691-8.86719 25.8691-7.05078Q25.8691-5.24414 25.3223-3.6084Q24.7754-1.97266 23.7793-0.610352Q22.7832 0.751953 21.4209 1.74805Q20.0586 2.74414 18.4229 3.2959Q16.7871 3.84766 14.9707 3.84766ZM9.19922-7.05078Q9.19922-6.66992 9.45801-6.4209Q9.7168-6.17188 10.1172-6.17188L14.0625-6.17188L14.0625-2.2168Q14.0625-1.81641 14.3115-1.55762Q14.5605-1.29883 14.9512-1.29883Q15.3516-1.29883 15.6104-1.55273Q15.8691-1.80664 15.8691-2.2168L15.8691-6.17188L19.8242-6.17188Q20.2246-6.17188 20.4785-6.4209Q20.7324-6.66992 20.7324-7.05078Q20.7324-7.46094 20.4785-7.71484Q20.2246-7.96875 19.8242-7.96875L15.8691-7.96875L15.8691-11.9141Q15.8691-12.3242 15.6104-12.583Q15.3516-12.8418 14.9512-12.8418Q14.5605-12.8418 14.3115-12.583Q14.0625-12.3242 14.0625-11.9141L14.0625-7.96875L10.1172-7.96875Q9.70703-7.96875 9.45312-7.71484Q9.19922-7.46094 9.19922-7.05078Z"/>
  </g>
  <text style="stroke:none;fill:black;font-family:sans-serif;font-size:13;font-weight:bold;" transform="matrix(1 0 0 1 263 1953)">Design Variations</text>
  <text style="stroke:none;fill:black;font-family:sans-serif;font-size:13;" transform="matrix(1 0 0 1 263 1971)">Symbols are supported in up to nine weights and three scales.</text>
  <text style="stroke:none;fill:black;font-family:sans-serif;font-size:13;" transform="matrix(1 0 0 1 263 1989)">For optimal layout with text and other symbols, vertically align</text>
  <text style="stroke:none;fill:black;font-family:sans-serif;font-size:13;" transform="matrix(1 0 0 1 263 2007)">symbols with the adjacent text.</text>
  <line style="fill:none;stroke:#00AEEF;stroke-width:0.5;opacity:1.0;" x1="776" x2="776" y1="1919" y2="1933"/>
  <g transform="matrix(1 0 0 1 776 1933)">
   <path d="M3.31055 0.15625Q3.70117 0.15625 3.91602-0.00976562Q4.13086-0.175781 4.26758-0.585938L5.52734-4.0332L11.2891-4.0332L12.5488-0.585938Q12.6855-0.175781 12.9004-0.00976562Q13.1152 0.15625 13.4961 0.15625Q13.8867 0.15625 14.1162-0.0585938Q14.3457-0.273438 14.3457-0.644531Q14.3457-0.869141 14.2383-1.17188L9.6582-13.3691Q9.48242-13.8184 9.17969-14.043Q8.87695-14.2676 8.4082-14.2676Q7.5-14.2676 7.17773-13.3789L2.59766-1.16211Q2.49023-0.859375 2.49023-0.634766Q2.49023-0.263672 2.70996-0.0537109Q2.92969 0.15625 3.31055 0.15625ZM6.00586-5.51758L8.37891-12.0898L8.42773-12.0898L10.8008-5.51758Z"/>
  </g>
  <line style="fill:none;stroke:#00AEEF;stroke-width:0.5;opacity:1.0;" x1="793.197" x2="793.197" y1="1919" y2="1933"/>
  <text style="stroke:none;fill:black;font-family:sans-serif;font-size:13;font-weight:bold;" transform="matrix(1 0 0 1 776 1953)">Margins</text>
  <text style="stroke:none;fill:black;font-family:sans-serif;font-size:13;" transform="matrix(1 0 0 1 776 1971)">Leading and trailing margins on the left and right side of each symbol</text>
  <text style="stroke:none;fill:black;font-family:sans-serif;font-size:13;" transform="matrix(1 0 0 1 776 1989)">can be adjusted by modifying the x-location of the margin guidelines.</text>
  <text style="stroke:none;fill:black;font-family:sans-serif;font-size:13;" transform="matrix(1 0 0 1 776 2007)">Modifications are automatically applied proportionally to all</text>
  <text style="stroke:none;fill:black;font-family:sans-serif;font-size:13;" transform="matrix(1 0 0 1 776 2025)">scales and weights.</text>
  <g transform="matrix(1 0 0 1 1289 1933)">
   <path d="M2.8418 1.86523L4.54102 3.57422Q5.18555 4.22852 5.90332 4.17969Q6.62109 4.13086 7.31445 3.35938L18.0078-8.42773L17.041-9.4043L6.42578 2.27539Q6.16211 2.57812 5.89355 2.61719Q5.625 2.65625 5.27344 2.30469L4.10156 1.14258Q3.75 0.791016 3.79395 0.522461Q3.83789 0.253906 4.14062-0.0195312L15.6152-10.8203L14.6387-11.7871L3.04688-0.898438Q2.30469-0.214844 2.25098 0.498047Q2.19727 1.21094 2.8418 1.86523ZM9.25781-16.3281Q8.94531-16.0254 8.90625-15.6348Q8.86719-15.2441 9.04297-14.9512Q9.21875-14.6777 9.55566-14.541Q9.89258-14.4043 10.3809-14.5215Q11.4746-14.7754 12.5977-14.7314Q13.7207-14.6875 14.7949-13.9844L14.209-12.5293Q13.9551-11.9043 14.0674-11.4404Q14.1797-10.9766 14.5801-10.5664L16.875-8.25195Q17.2363-7.88086 17.5781-7.82227Q17.9199-7.76367 18.3398-7.8418L19.4043-8.03711L20.0684-7.36328L20.0293-6.80664Q20-6.43555 20.1221-6.12305Q20.2441-5.81055 20.6055-5.44922L21.3672-4.70703Q21.7285-4.3457 22.1533-4.33105Q22.5781-4.31641 22.9297-4.66797L25.8398-7.58789Q26.1914-7.93945 26.1816-8.35449Q26.1719-8.76953 25.8105-9.13086L25.0391-9.89258Q24.6875-10.2539 24.3799-10.3857Q24.0723-10.5176 23.7109-10.4883L23.1348-10.4395L22.4902-11.0742L22.7344-12.1973Q22.832-12.6172 22.6953-12.9834Q22.5586-13.3496 22.1191-13.7891L19.9219-15.9766Q18.6719-17.2168 17.2607-17.8369Q15.8496-18.457 14.4189-18.4814Q12.9883-18.5059 11.665-17.959Q10.3418-17.4121 9.25781-16.3281ZM10.752-15.957Q11.6602-16.6211 12.7002-16.9043Q13.7402-17.1875 14.8047-17.085Q15.8691-16.9824 16.8701-16.5137Q17.8711-16.0449 18.7012-15.2051L21.1328-12.793Q21.3086-12.6172 21.3525-12.4512Q21.3965-12.2852 21.3379-12.0312L21.0156-10.5469L22.5195-9.0625L23.5059-9.12109Q23.6914-9.13086 23.7891-9.09668Q23.8867-9.0625 24.0332-8.91602L24.6094-8.33984L22.168-5.89844L21.5918-6.47461Q21.4453-6.62109 21.4062-6.71875Q21.3672-6.81641 21.377-7.01172L21.4453-7.98828L19.9512-9.47266L18.4277-9.21875Q18.1836-9.16992 18.042-9.2041Q17.9004-9.23828 17.7148-9.41406L15.7129-11.416Q15.5176-11.5918 15.4932-11.7529Q15.4688-11.9141 15.5859-12.1875L16.4648-14.2773Q15.293-15.3711 13.8281-15.791Q12.3633-16.2109 10.8398-15.7617Q10.7227-15.7324 10.6885-15.8057Q10.6543-15.8789 10.752-15.957Z"/>
  </g>
  <text style="stroke:none;fill:black;font-family:sans-serif;font-size:13;font-weight:bold;" transform="matrix(1 0 0 1 1289 1953)">Exporting</text>
  <text style="stroke:none;fill:black;font-family:sans-serif;font-size:13;" transform="matrix(1 0 0 1 1289 1971)">Symbols should be outlined when exporting to ensure the</text>
  <text style="stroke:none;fill:black;font-family:sans-serif;font-size:13;" transform="matrix(1 0 0 1 1289 1989)">design is preserved when submitting to Xcode.</text>
  <text id="template-version" style="stroke:none;fill:black;font-family:sans-serif;font-size:13;text-anchor:end;" transform="matrix(1 0 0 1 3036 1933)">Template v.2.0</text>
  <text style="stroke:none;fill:black;font-family:sans-serif;font-size:13;text-anchor:end;" transform="matrix(1 0 0 1 3036 1951)">Requires Xcode 12 or greater</text>
  <text id="descriptive-name" style="stroke:none;fill:black;font-family:sans-serif;font-size:13;text-anchor:end;" transform="matrix(1 0 0 1 3036 1969)">Generated from figure.taichi</text>
  <text style="stroke:none;fill:black;font-family:sans-serif;font-size:13;text-anchor:end;" transform="matrix(1 0 0 1 3036 1987)">Typeset at 100 points</text>
  <text style="stroke:none;fill:black;font-family:sans-serif;font-size:13;" transform="matrix(1 0 0 1 263 726)">Small</text>
  <text style="stroke:none;fill:black;font-family:sans-serif;font-size:13;" transform="matrix(1 0 0 1 263 1156)">Medium</text>
  <text style="stroke:none;fill:black;font-family:sans-serif;font-size:13;" transform="matrix(1 0 0 1 263 1586)">Large</text>
 </g>
 <g id="Guides">
  <g id="H-reference" style="fill:#27AAE1;stroke:none;" transform="matrix(1 0 0 1 339 696)">
   <path d="M0.993347 0L3.6377 0L29.3282-67.1326L30.0301-67.1326L30.0301-70.459L28.1227-70.459ZM11.6882-24.4797L46.9818-24.4797L46.2311-26.7288L12.4382-26.7288ZM55.1193 0L57.7637 0L30.6381-70.459L29.4327-70.459L29.4327-67.1326Z"/>
  </g>
  <line id="Baseline-S" style="fill:none;stroke:#27AAE1;opacity:1;stroke-width:0.5;" x1="263" x2="3036" y1="696" y2="696"/>
  <line id="Capline-S" style="fill:none;stroke:#27AAE1;opacity:1;stroke-width:0.5;" x1="263" x2="3036" y1="625.541" y2="625.541"/>
  <g id="H-reference" style="fill:#27AAE1;stroke:none;" transform="matrix(1 0 0 1 339 1126)">
   <path d="M0.993347 0L3.6377 0L29.3282-67.1326L30.0301-67.1326L30.0301-70.459L28.1227-70.459ZM11.6882-24.4797L46.9818-24.4797L46.2311-26.7288L12.4382-26.7288ZM55.1193 0L57.7637 0L30.6381-70.459L29.4327-70.459L29.4327-67.1326Z"/>
  </g>
  <line id="Baseline-M" style="fill:none;stroke:#27AAE1;opacity:1;stroke-width:0.5;" x1="263" x2="3036" y1="1126" y2="1126"/>
  <line id="Capline-M" style="fill:none;stroke:#27AAE1;opacity:1;stroke-width:0.5;" x1="263" x2="3036" y1="1055.54" y2="1055.54"/>
  <g id="H-reference" style="fill:#27AAE1;stroke:none;" transform="matrix(1 0 0 1 339 1556)">
   <path d="M0.993347 0L3.6377 0L29.3282-67.1326L30.0301-67.1326L30.0301-70.459L28.1227-70.459ZM11.6882-24.4797L46.9818-24.4797L46.2311-26.7288L12.4382-26.7288ZM55.1193 0L57.7637 0L30.6381-70.459L29.4327-70.459L29.4327-67.1326Z"/>
  </g>
  <line id="Baseline-L" style="fill:none;stroke:#27AAE1;opacity:1;stroke-width:0.5;" x1="263" x2="3036" y1="1556" y2="1556"/>
  <line id="Capline-L" style="fill:none;stroke:#27AAE1;opacity:1;stroke-width:0.5;" x1="263" x2="3036" y1="1485.54" y2="1485.54"/>
  <line id="left-margin" style="fill:none;stroke:#00AEEF;stroke-width:0.5;opacity:1.0;" x1="1395.9" x2="1395.9" y1="1030.79" y2="1150.12"/>
  <line id="right-margin" style="fill:none;stroke:#00AEEF;stroke-width:0.5;opacity:1.0;" x1="1503.79" x2="1503.79" y1="1030.79" y2="1150.12"/>
 </g>
 <g id="Symbols">
  <g id="Black-L" transform="matrix(1 0 0 1 2859.97 1556)">
   <path d="M68.7345-85.486Q75.0992-85.486 79.6625-90.0487Q84.2258-94.6114 84.2258-100.977Q84.2258-107.381 79.6625-111.925Q75.0992-116.469 68.7345-116.469Q62.331-116.469 57.7865-111.925Q53.242-107.381 53.242-100.977Q53.242-94.6114 57.7865-90.0487Q62.331-85.486 68.7345-85.486ZM24.151-63.4278L45.1835-63.4278Q46.1327-63.4278 46.1106-62.4202L44.1025-34.913Q43.4824-26.9047 47.6942-22.0611Q51.906-17.2175 58.5936-15.8152L85.452-10.1942L91.2326 18.7075Q91.9124 22.1831 94.8873 23.8107Q97.8621 25.4382 100.556 24.9789Q103.812 24.3588 105.688 21.5441Q107.564 18.7295 106.885 15.4743L100.067-18.5013Q99.6284-20.8962 97.862-22.4842Q96.0956-24.0721 94.0147-24.7519L73.5519-31.1395L75.3188-55.9742Q75.3408-56.6613 75.8814-56.8694Q76.422-57.0775 76.9614-56.6613L87.1683-48.2004Q89.3273-46.3828 92.2399-46.3828L122.866-46.3828Q126.181-46.3828 128.476-48.7479Q130.772-51.1131 130.772-54.3474Q130.772-57.6829 128.476-59.9787Q126.181-62.2744 122.866-62.2744L95.0358-62.2744L80.7062-74.2766Q77.8599-76.7 74.8079-78.0219Q71.756-79.3438 67.5514-79.3438L34.9335-79.3438L42.0073-103.113Q42.9271-106.289 41.369-109.195Q39.8108-112.1 36.7153-113.078Q33.481-113.976 30.5457-112.399Q27.6104-110.822 26.6906-107.646L16.5433-73.6717Q15.4042-69.8161 17.2919-66.6219Q19.1795-63.4278 24.151-63.4278ZM52.5197 44.8947Q55.3167 45.7341 58.3422 44.4452Q61.3677 43.1563 62.4848 39.6223L72.6321 5.82949Q73.0122 4.45036 73.0122 2.53031L73.0122-5.09905L57.0196-8.41906Q56.7408-8.49827 56.4217-8.55788Q56.1027-8.61748 55.8238-8.6979L57.0169 2.41349L47.2485 35.0308Q46.2703 38.1263 47.818 41.0318Q49.3658 43.9373 52.5197 44.8947Z"/>
  </g>
  <g id="Heavy-L" transform="matrix(1 0 0 1 2564.26 1556)">
   <path d="M67.7941-84.7491Q73.9857-84.7491 78.4188-89.1795Q82.8519-93.6098 82.8519-99.8069Q82.8519-106.019 78.4188-110.442Q73.9857-114.865 67.7941-114.865Q61.5825-114.865 57.1565-110.442Q52.7306-106.019 52.7306-99.8069Q52.7306-93.6098 57.1565-89.1795Q61.5825-84.7491 67.7941-84.7491ZM23.7849-63.5362L44.6518-63.5362Q45.7851-63.5362 45.7493-62.3583L43.75-35.1208Q43.148-27.3177 47.2344-22.6086Q51.3207-17.8996 57.8397-16.5293L84.5291-10.9391L90.2744 17.7527Q90.9266 21.0773 93.7642 22.634Q96.6018 24.1907 99.1578 23.7496Q102.277 23.1477 104.061 20.4681Q105.846 17.7885 105.199 14.6751L98.4713-18.8757Q98.0603-21.1516 96.3786-22.6709Q94.6968-24.1902 92.6799-24.8424L72.2862-31.2222L74.0442-55.9338Q74.08-56.7956 74.754-57.0566Q75.4281-57.3177 76.0965-56.7956L86.1583-48.4617Q88.2444-46.7218 91.006-46.7218L121.243-46.7218Q124.407-46.7218 126.595-48.9725Q128.783-51.2232 128.783-54.3064Q128.783-57.5002 126.595-59.6885Q124.407-61.8767 121.243-61.8767L93.6783-61.8767L79.4558-73.7895Q76.6548-76.1583 73.6919-77.4482Q70.729-78.7381 66.6291-78.7381L34.0777-78.7381L41.1668-102.527Q42.0547-105.565 40.5605-108.34Q39.0663-111.115 36.1082-112.048Q33.0249-112.9 30.2247-111.398Q27.4246-109.897 26.5367-106.858L16.525-73.3131Q15.4318-69.6223 17.237-66.5793Q19.0421-63.5362 23.7849-63.5362ZM51.8655 43.4121Q54.5435 44.2196 57.4364 42.9833Q60.3293 41.7471 61.3867 38.3779L71.3984 5.0237Q71.7647 3.69475 71.7647 1.83867L71.7647-6.29129L56.3523-9.50656Q56.0965-9.58132 55.8006-9.63155Q55.5047-9.68179 55.2491-9.76221L56.4879 1.74942L46.837 34.0015Q45.9045 36.9597 47.3836 39.7348Q48.8628 42.5098 51.8655 43.4121Z"/>
  </g>
  <g id="Bold-L" transform="matrix(1 0 0 1 2268.83 1556)">
   <path d="M66.5815-83.8124Q72.558-83.8124 76.8335-88.0813Q81.1089-92.3502 81.1089-98.3398Q81.1089-104.321 76.8335-108.594Q72.558-112.867 66.5815-112.867Q60.6006-112.867 56.3207-108.594Q52.0408-104.321 52.0408-98.3398Q52.0408-92.3502 56.3207-88.0813Q60.6006-83.8124 66.5815-83.8124ZM23.3539-63.5478L43.9687-63.5478Q45.3027-63.5478 45.2515-62.1846L43.2674-35.3373Q42.6884-27.7877 46.621-23.2439Q50.5536-18.7001 56.8651-17.3683L83.2799-11.8314L88.9643 16.5321Q89.5857 19.6797 92.2616 21.1518Q94.9376 22.6239 97.332 22.2057Q100.29 21.6269 101.966 19.1051Q103.643 16.5833 103.035 13.6391L96.4293-19.3294Q96.0493-21.4667 94.4675-22.9052Q92.8858-24.3436 90.9458-24.9649L70.6962-31.3147L72.439-55.8056Q72.4902-56.8602 73.3109-57.1791Q74.1315-57.4981 74.9389-56.8602L84.8089-48.695Q86.8029-47.0475 89.3876-47.0475L119.096-47.0475Q122.082-47.0475 124.144-49.1635Q126.205-51.2795 126.205-54.1856Q126.205-57.2102 124.144-59.2715Q122.082-61.3327 119.096-61.3327L91.9136-61.3327L77.8591-73.1081Q75.1194-75.4077 72.2641-76.6592Q69.4089-77.9107 65.4396-77.9107L33.0694-77.9107L40.1517-101.64Q41.0012-104.517 39.5839-107.138Q38.1666-109.76 35.3701-110.638Q32.4638-111.436 29.8215-110.023Q27.1792-108.61 26.3297-105.733L16.502-72.778Q15.4626-69.2798 17.1716-66.4138Q18.8805-63.5478 23.3539-63.5478ZM51.0213 41.5234Q53.5607 42.2925 56.2959 41.1178Q59.0311 39.9432 60.0192 36.7664L69.847 4.00988Q70.1978 2.74243 70.1978 0.963245L70.1978-7.72936L55.4853-10.8141Q55.2527-10.8812 54.98-10.9236Q54.7073-10.966 54.475-11.0465L55.7676 0.904839L46.2776 32.6441Q45.399 35.4405 46.7973 38.0617Q48.1957 40.6828 51.0213 41.5234Z"/>
  </g>
  <g id="Semibold-L" transform="matrix(1 0 0 1 1973.01 1556)">
   <path d="M65.7456-83.1666Q71.5738-83.1666 75.7405-87.3243Q79.9073-91.4819 79.9073-97.3284Q79.9073-103.15 75.7405-107.32Q71.5738-111.49 65.7456-111.49Q59.9238-111.49 55.7445-107.32Q51.5652-103.15 51.5652-97.3284Q51.5652-91.4819 55.7445-87.3243Q59.9238-83.1666 65.7456-83.1666ZM23.0568-63.5557L43.4978-63.5557Q44.9701-63.5557 44.9082-62.0649L42.9347-35.4865Q42.3715-28.1118 46.1981-23.6819Q50.0248-19.2519 56.1933-17.9467L82.4187-12.4465L88.0612 15.6906Q88.6613 18.7162 91.2258 20.13Q93.7903 21.5437 96.0733 21.1414Q98.9194 20.5785 100.522 18.1655Q102.124 15.7525 101.543 12.9249L95.0217-19.6422Q94.6628-21.6839 93.1501-23.0667Q91.6373-24.4494 89.7503-25.0495L69.6002-31.3785L71.3324-55.7172Q71.3943-56.9047 72.316-57.2636Q73.2376-57.6224 74.1408-56.9047L83.8787-48.8559Q85.8092-47.272 88.2718-47.272L117.616-47.272Q120.48-47.272 122.454-49.2951Q124.427-51.3183 124.427-54.1023Q124.427-57.0102 122.454-58.984Q120.48-60.9578 117.616-60.9578L90.697-60.9578L76.7584-72.6384Q74.0608-74.8903 71.2798-76.1153Q68.4988-77.3402 64.6195-77.3402L32.3744-77.3402L39.4519-101.029Q40.2749-103.795 38.9106-106.31Q37.5463-108.825 34.8613-109.666Q32.077-110.427 29.5435-109.075Q27.01-107.723 26.187-104.958L16.486-72.4091Q15.4839-69.0436 17.1264-66.2997Q18.769-63.5557 23.0568-63.5557ZM50.4393 40.2214Q52.8832 40.964 55.5097 39.8318Q58.1362 38.6996 59.0765 35.6554L68.7774 3.31096Q69.1177 2.0859 69.1177 0.359735L69.1177-8.72076L54.8876-11.7155Q54.671-11.7773 54.4143-11.8144Q54.1576-11.8514 53.9413-11.9318L55.2711 0.322588L45.892 31.7082Q45.0504 34.3932 46.3931 36.9083Q47.7358 39.4233 50.4393 40.2214Z"/>
  </g>
  <g id="Medium-L" transform="matrix(1 0 0 1 1676.97 1556)">
   <path d="M65.1118-82.677Q70.8275-82.677 74.9119-86.7502Q78.9962-90.8235 78.9962-96.5615Q78.9962-102.263 74.9119-106.355Q70.8275-110.446 65.1118-110.446Q59.4105-110.446 55.3076-106.355Q51.2046-102.263 51.2046-96.5615Q51.2046-90.8235 55.3076-86.7502Q59.4105-82.677 65.1118-82.677ZM22.8315-63.5617L43.1407-63.5617Q44.7179-63.5617 44.648-61.9741L42.6824-35.5996Q42.1312-28.3575 45.8775-24.0139Q49.6238-19.6704 55.6839-18.3853L81.7658-12.9129L87.3763 15.0526Q87.9603 17.9856 90.4404 19.3552Q92.9204 20.7247 95.1188 20.3344Q97.8805 19.7836 99.4265 17.453Q100.972 15.1225 100.411 12.3834L93.9543-19.8794Q93.6116-21.8487 92.1511-23.1891Q90.6907-24.5296 88.8439-25.1135L68.7691-31.4269L70.4934-55.6502Q70.5633-56.9385 71.5616-57.3276Q72.5599-57.7167 73.5357-56.9385L83.1733-48.9779Q85.0556-47.4423 87.4258-47.4423L116.493-47.4423Q119.265-47.4423 121.172-49.395Q123.08-51.3477 123.08-54.0391Q123.08-56.8586 121.172-58.766Q119.265-60.6734 116.493-60.6734L89.7745-60.6734L75.9237-72.2822Q73.2582-74.498 70.5335-75.7028Q67.8088-76.9077 63.9976-76.9077L31.8473-76.9077L38.9212-100.566Q39.7242-103.247 38.4001-105.682Q37.076-108.116 34.4755-108.929Q31.7837-109.662 29.3327-108.357Q26.8818-107.051 26.0788-104.37L16.474-72.1295Q15.5-68.8646 17.0923-66.2132Q18.6845-63.5617 22.8315-63.5617ZM49.9981 39.2341Q52.3694 39.9567 54.9135 38.8567Q57.4576 37.7566 58.3616 34.8131L67.9665 2.78101Q68.2987 1.58809 68.2987-0.0978717L68.2987-9.47247L54.4344-12.399Q54.2299-12.4568 53.9854-12.4897Q53.7408-12.5227 53.5367-12.6031L54.8946-0.118898L45.5996 30.9986Q44.7862 33.5991 46.0866 36.0337Q47.387 38.4683 49.9981 39.2341Z"/>
  </g>
  <g id="Regular-L" transform="matrix(1 0 0 1 1381.14 1556)">
   <path d="M64.285-82.0383Q69.8541-82.0383 73.831-86.0015Q77.8078-89.9647 77.8078-95.5611Q77.8078-101.105 73.831-105.095Q69.8541-109.084 64.285-109.084Q58.7411-109.084 54.7377-105.095Q50.7343-101.105 50.7343-95.5611Q50.7343-89.9647 54.7377-86.0015Q58.7411-82.0383 64.285-82.0383ZM22.5377-63.5696L42.675-63.5696Q44.3889-63.5696 44.3085-61.8557L42.3533-35.7472Q41.8178-28.678 45.4593-24.4471Q49.1008-20.2161 55.0194-18.9573L80.914-13.5212L86.4831 14.2203Q87.046 17.0327 89.4159 18.3446Q91.7858 19.6564 93.8739 19.2817Q96.5255 18.7467 97.998 16.5237Q99.4704 14.3008 98.9353 11.6771L92.5621-20.1887Q92.2404-22.0635 90.8481-23.3489Q89.4559-24.6342 87.6615-25.1971L67.685-31.49L69.399-55.5628Q69.4794-56.9825 70.5776-57.4111Q71.6758-57.8397 72.7464-56.9825L82.2533-49.137Q84.0728-47.6644 86.3223-47.6644L115.029-47.6644Q117.68-47.6644 119.501-49.5252Q121.322-51.386 121.322-53.9567Q121.322-56.6608 119.501-58.4817Q117.68-60.3026 115.029-60.3026L88.5713-60.3026L74.8351-71.8176Q72.2114-73.9862 69.56-75.1649Q66.9087-76.3435 63.1866-76.3435L31.1599-76.3435L38.2291-99.9613Q39.0058-102.532 37.7342-104.862Q36.4626-107.192 33.9723-107.968Q31.4012-108.664 29.0578-107.419Q26.7144-106.174 25.9377-103.603L16.4582-71.7646Q15.521-68.631 17.0476-66.1003Q18.5742-63.5696 22.5377-63.5696ZM49.4225 37.9464Q51.6993 38.6428 54.1359 37.5847Q56.5725 36.5267 57.4292 33.7143L66.9087 2.08978Q67.2304 0.938773 67.2304-0.69475L67.2304-10.453L53.8433-13.2905Q53.6546-13.343 53.4259-13.3707Q53.1972-13.3983 53.0089-13.4788L54.4035-0.69475L45.2183 30.0731Q44.4415 32.5633 45.6868 34.893Q46.9322 37.2226 49.4225 37.9464Z"/>
  </g>
  <g id="Light-L" transform="matrix(1 0 0 1 1085.69 1556)">
   <path d="M63.14-81.2367Q68.5564-81.2367 72.4473-85.1045Q76.3383-88.9722 76.3383-94.435Q76.3383-99.8644 72.4473-103.749Q68.5564-107.634 63.14-107.634Q57.7105-107.634 53.8025-103.749Q49.8945-99.8644 49.8945-94.435Q49.8945-88.9722 53.8025-85.1045Q57.7105-81.2367 63.14-81.2367ZM22.385-62.7872L42.0452-62.7872Q43.721-62.7872 43.6406-61.1114L41.7235-35.6327Q41.2069-28.7354 44.753-24.6093Q48.2991-20.4832 54.0844-19.2437L79.3682-13.9409L84.7846 13.1324Q85.3475 15.8877 87.6602 17.1614Q89.9728 18.4351 92.0035 18.0793Q94.598 17.5635 96.0322 15.3881Q97.4663 13.2128 96.9505 10.6654L90.7299-20.4369Q90.4082-22.2735 89.0541-23.5302Q87.7-24.7868 85.9438-25.3498L66.4444-31.49L68.1202-54.9712Q68.2006-56.3717 69.2798-56.7908Q70.3589-57.2099 71.3913-56.3717L80.6882-48.7173Q82.4314-47.2828 84.6237-47.2828L112.663-47.2828Q115.257-47.2828 117.029-49.0958Q118.802-50.9089 118.802-53.4222Q118.802-56.05 117.029-57.8232Q115.257-59.5965 112.663-59.5965L86.8154-59.5965L73.4229-70.8445Q70.8755-72.9556 68.2814-74.1152Q65.6873-75.2748 62.0604-75.2748L30.7973-75.2748L37.6945-98.3199Q38.4524-100.834 37.2189-103.106Q35.9854-105.379 33.5526-106.136Q31.0385-106.813 28.7429-105.596Q26.4473-104.38 25.6895-101.866L16.439-70.8104Q15.521-67.7341 17.0189-65.2607Q18.5168-62.7872 22.385-62.7872ZM48.6208 36.305Q50.8596 36.9824 53.2294 35.9435Q55.5993 34.9045 56.4368 32.1492L65.6873 1.28814Q66.009 0.175292 66.009-1.42007L66.009-11.1972L52.9846-13.9395Q52.7766-13.9728 52.5288-14.0195Q52.281-14.0663 52.0739-14.1467L53.4873-1.42007L44.5122 28.6035Q43.7543 31.0364 44.9711 33.3088Q46.188 35.5812 48.6208 36.305Z"/>
  </g>
  <g id="Thin-L" transform="matrix(1 0 0 1 790.645 1556)">
   <path d="M61.6255-80.1764Q66.8401-80.1764 70.6174-83.9181Q74.3947-87.6597 74.3947-92.9456Q74.3947-98.2236 70.6174-101.97Q66.8401-105.716 61.6255-105.716Q56.3475-105.716 52.5656-101.97Q48.7838-98.2236 48.7838-92.9456Q48.7838-87.6597 52.5656-83.9181Q56.3475-80.1764 61.6255-80.1764ZM22.1832-61.7524L41.2123-61.7524Q42.8376-61.7524 42.7572-60.1271L40.8906-35.4813Q40.399-28.8113 43.819-24.8239Q47.2389-20.8365 52.8477-19.6224L77.3236-14.4961L82.5382 11.6934Q83.1011 14.3732 85.338 15.5965Q87.575 16.8197 89.5298 16.4889Q92.0488 15.9986 93.4323 13.8862Q94.8157 11.7738 94.3253 9.32739L88.3066-20.7652Q87.9849-22.5513 86.6813-23.77Q85.3776-24.9887 83.6719-25.5516L64.8036-31.49L66.4289-54.1888Q66.5093-55.5638 67.5632-55.9704Q68.6172-56.377 69.5991-55.5638L78.6182-48.1622Q80.2604-46.7781 82.3773-46.7781L109.533-46.7781Q112.051-46.7781 113.761-48.528Q115.47-50.2779 115.47-52.7152Q115.47-55.2421 113.761-56.9524Q112.051-58.6626 109.533-58.6626L84.493-58.6626L71.5552-69.5573Q69.1087-71.5926 66.5904-72.7269Q64.072-73.8613 60.571-73.8613L30.3176-73.8613L36.9876-96.1489Q37.7204-98.5875 36.5374-100.784Q35.3544-102.981 32.9974-103.713Q30.5589-104.365 28.3265-103.186Q26.0941-102.007 25.3612-99.5695L16.4135-69.5483Q15.521-66.548 16.981-64.1502Q18.4409-61.7524 22.1832-61.7524ZM47.5606 34.134Q49.7489 34.7865 52.0305 33.7727Q54.3122 32.759 55.1242 30.0792L64.072 0.227905Q64.3936-0.834474 64.3936-2.37937L64.3936-12.1815L51.8488-14.7979Q51.6154-14.8057 51.3424-14.8777Q51.0694-14.9497 50.8372-15.0301L52.2757-2.37937L43.5783 26.6599Q42.8455 29.0168 44.0246 31.2135Q45.2036 33.4103 47.5606 34.134Z"/>
  </g>
  <g id="Ultralight-L" transform="matrix(1 0 0 1 494.787 1556)">
   <path d="M60.8498-79.6334Q65.961-79.6334 69.6801-83.3104Q73.3991-86.9874 73.3991-92.1827Q73.3991-97.3832 69.6801-101.058Q65.961-104.733 60.8498-104.733Q55.6493-104.733 51.9321-101.058Q48.2149-97.3832 48.2149-92.1827Q48.2149-86.9874 51.9321-83.3104Q55.6493-79.6334 60.8498-79.6334ZM22.0798-61.2224L40.7857-61.2224Q42.3852-61.2224 42.3047-59.6229L40.464-35.4038Q39.9852-28.8502 43.3406-24.9338Q46.6959-21.0175 52.2143-19.8163L76.2764-14.7804L81.3876 10.9564Q81.9505 13.5976 84.1487 14.7949Q86.3468 15.9923 88.2628 15.6744Q90.7431 15.197 92.1006 13.1169Q93.4581 11.0368 92.9808 8.64207L87.0654-20.9333Q86.7437-22.6936 85.4659-23.8928Q84.1882-25.0921 82.5083-25.655L63.9632-31.49L65.5626-53.788Q65.6431-55.15 66.6841-55.5502Q67.725-55.9504 68.6812-55.15L77.5579-47.8778Q79.1485-46.5196 81.2267-46.5196L107.93-46.5196Q110.409-46.5196 112.086-48.2371Q113.764-49.9546 113.764-52.3531Q113.764-54.8283 112.086-56.5063Q110.409-58.1843 107.93-58.1843L83.3035-58.1843L70.5986-68.8981Q68.2038-70.8945 65.7242-72.0159Q63.2446-73.1373 59.8081-73.1373L30.0719-73.1373L36.6255-95.037Q37.3455-97.4369 36.1883-99.5948Q35.0312-101.753 32.7131-102.471Q30.3132-103.111 28.1132-101.951Q25.9131-100.792 25.1931-98.393L16.4005-68.9018Q15.521-65.9404 16.9615-63.5814Q18.4021-61.2224 22.0798-61.2224ZM47.0175 33.0221Q49.18 33.6617 51.4164 32.6609Q53.6529 31.6601 54.452 29.019L63.2446-0.315141Q63.5662-1.35167 63.5662-2.87072L63.5662-12.6857L51.2671-15.2375Q51.0207-15.2324 50.7348-15.3172Q50.4488-15.4021 50.2038-15.4825L51.6551-2.87072L43.1 25.6644Q42.38 27.9824 43.5397 30.1404Q44.6995 32.2983 47.0175 33.0221Z"/>
  </g>
  <g id="Black-M" transform="matrix(1 0 0 1 2875.83 1126)">
   <path d="M53.9045-74.69Q58.9637-74.69 62.5993-78.3257Q66.2349-81.9614 66.2349-87.0203Q66.2349-92.1308 62.5993-95.7407Q58.9637-99.3506 53.9045-99.3506Q48.7941-99.3506 45.1843-95.7407Q41.5745-92.1308 41.5745-87.0203Q41.5745-81.9614 45.1843-78.3257Q48.7941-74.69 53.9045-74.69ZM19.0048-56.8767L35.3772-56.8767Q35.9491-56.8767 35.9439-56.2477L34.3857-34.7901Q33.8922-28.4327 37.2502-24.5788Q40.6081-20.7248 45.9162-19.6135L66.7869-15.2502L71.2751 7.23088Q71.8255 10.0457 74.2405 11.3623Q76.6555 12.679 78.8524 12.3101Q81.4855 11.8166 83.0124 9.52635Q84.5394 7.23609 83.9887 4.60273L78.6491-21.9812Q78.2857-23.9339 76.8496-25.2193Q75.4135-26.5047 73.7516-27.055L57.9035-31.9897L59.2748-51.2559Q59.28-51.6354 59.5816-51.7498Q59.8831-51.8643 60.185-51.6354L68.189-44.9972Q69.9138-43.5274 72.2924-43.5274L96.2634-43.5274Q98.9536-43.5274 100.818-45.4516Q102.683-47.3759 102.683-50.0037Q102.683-52.6994 100.818-54.5639Q98.9536-56.4285 96.2634-56.4285L74.5569-56.4285L63.4097-65.7677Q61.176-67.6844 58.7428-68.7334Q56.3095-69.7825 52.9749-69.7825L27.7508-69.7825L33.1947-88.1035Q33.9322-90.6743 32.6753-93.0296Q31.4183-95.3849 28.9098-96.1796Q26.2819-96.9119 23.8982-95.6291Q21.5145-94.3463 20.777-91.7755L12.8298-65.1913Q11.9106-62.0702 13.44-59.4735Q14.9694-56.8767 19.0048-56.8767ZM41.1428 27.8978Q43.407 28.573 45.8559 27.5318Q48.3048 26.4906 49.2188 23.6187L57.166-2.83547Q57.4723-3.9419 57.4723-5.47925L57.4723-10.9624L44.6327-13.6116Q44.3942-13.6742 44.1245-13.731Q43.8549-13.7878 43.6163-13.8502L44.504-5.59344L36.8634 19.8896Q36.0688 22.3981 37.323 24.7534Q38.5772 27.1087 41.1428 27.8978Z"/>
  </g>
  <g id="Heavy-M" transform="matrix(1 0 0 1 2579.97 1126)">
   <path d="M53.0909-74.0436Q57.9949-74.0436 61.5111-77.5587Q65.0274-81.0739 65.0274-85.9801Q65.0274-90.9136 61.5111-94.4151Q57.9949-97.9167 53.0909-97.9167Q48.1574-97.9167 44.6548-94.4151Q41.1521-90.9136 41.1521-85.9801Q41.1521-81.0739 44.6548-77.5587Q48.1574-74.0436 53.0909-74.0436ZM18.661-57.0549L34.9155-57.0549Q35.671-57.0549 35.6523-56.2558L34.0992-35.0039Q33.6217-28.8312 36.8658-25.0991Q40.11-21.367 45.2654-20.2852L66.0274-15.9397L70.4951 6.39791Q71.0185 9.0703 73.3046 10.3212Q75.5906 11.5722 77.6586 11.2193Q80.1628 10.7418 81.6037 8.5792Q83.0447 6.4166 82.5236 3.91474L77.2583-22.3244Q76.9218-24.1642 75.565-25.3851Q74.2081-26.606 72.6052-27.1293L56.7806-32.0706L58.1467-51.2709Q58.1654-51.8231 58.5992-51.9901Q59.033-52.1572 59.4645-51.8231L67.346-45.2913Q69.0067-43.894 71.2429-43.894L94.8954-43.894Q97.4431-43.894 99.2069-45.7108Q100.971-47.5275 100.971-50.013Q100.971-52.5771 99.2069-54.341Q97.4431-56.1048 94.8954-56.1048L73.3919-56.1048L62.3177-65.3813Q60.1212-67.2499 57.7697-68.2694Q55.4183-69.289 52.1772-69.289L26.9477-69.289L32.4224-87.6815Q33.1305-90.1234 31.9325-92.3565Q30.7345-94.5896 28.355-95.3412Q25.8695-96.0306 23.6135-94.819Q21.3575-93.6074 20.6494-91.1656L12.8138-64.9287Q11.9376-61.9635 13.389-59.5092Q14.8404-57.0549 18.661-57.0549ZM40.5773 26.5999Q42.7285 27.2457 45.054 26.2541Q47.3794 25.2626 48.237 22.5466L56.0726-3.54923Q56.3654-4.61012 56.3654-6.08846L56.3654-12.0592L44.0595-14.6149Q43.8454-14.6749 43.6001-14.7208Q43.3548-14.7667 43.1407-14.829L44.0713-6.1757L36.5263 19.019Q35.7746 21.3985 36.9644 23.6316Q38.1541 25.8647 40.5773 26.5999Z"/>
  </g>
  <g id="Bold-M" transform="matrix(1 0 0 1 2284.22 1126)">
   <path d="M52.1807-73.3205Q56.911-73.3205 60.2938-76.7008Q63.6767-80.081 63.6767-84.8165Q63.6767-89.5519 60.2938-92.9322Q56.911-96.3126 52.1807-96.3126Q47.4453-96.3126 44.0624-92.9322Q40.6795-89.5519 40.6795-84.8165Q40.6795-80.081 44.0624-76.7008Q47.4453-73.3205 52.1807-73.3205ZM18.2763-57.2542L34.3991-57.2542Q35.3598-57.2542 35.3261-56.2649L33.7787-35.243Q33.3191-29.2769 36.4359-25.6811Q39.5527-22.0853 44.5374-21.0365L65.1777-16.7111L69.6226 5.46612Q70.1158 7.97922 72.2576 9.1566Q74.3994 10.334 76.3232 9.999Q78.6831 9.53949 80.0279 7.51968Q81.3726 5.49987 80.8846 3.14511L75.7025-22.7083Q75.3962-24.4217 74.1279-25.5705Q72.8597-26.7193 71.3228-27.2125L55.5244-32.161L56.8849-51.2878Q56.9186-52.033 57.5003-52.2589Q58.0819-52.4849 58.6585-52.033L66.403-45.6203Q67.9919-44.3041 70.0689-44.3041L93.365-44.3041Q95.7534-44.3041 97.4045-46.0006Q99.0557-47.6972 99.0557-50.0233Q99.0557-52.4404 97.4045-54.0916Q95.7534-55.7427 93.365-55.7427L72.0887-55.7427L61.0961-64.9491Q58.9412-66.7638 56.6812-67.7504Q54.4213-68.7369 51.285-68.7369L26.0492-68.7369L31.5585-87.2094Q32.2335-89.5071 31.1016-91.6035Q29.9696-93.6999 27.7344-94.4034Q25.4082-95.0447 23.295-93.9127Q21.1818-92.7808 20.5067-90.4833L12.7958-64.6349Q11.9677-61.8442 13.3319-59.5492Q14.6962-57.2542 18.2763-57.2542ZM39.9446 25.1481Q41.9696 25.7608 44.1569 24.8249Q46.3442 23.889 47.1386 21.3474L54.8495-4.34767Q55.1272-5.35762 55.1272-6.76995L55.1272-13.2862L43.4184-15.7371Q43.2315-15.7942 43.0135-15.8279Q42.7955-15.8616 42.6087-15.9239L43.5873-6.82705L36.1491 18.0451Q35.4455 20.2803 36.5632 22.3767Q37.6809 24.4731 39.9446 25.1481Z"/>
  </g>
  <g id="Semibold-M" transform="matrix(1 0 0 1 1988.17 1126)">
   <path d="M51.5532-72.822Q56.1639-72.822 59.4547-76.1093Q62.7455-79.3966 62.7455-84.0143Q62.7455-88.6132 59.4547-91.9099Q56.1639-95.2067 51.5532-95.2067Q46.9543-95.2067 43.654-91.9099Q40.3538-88.6132 40.3538-84.0143Q40.3538-79.3966 43.654-76.1093Q46.9543-72.822 51.5532-72.822ZM18.0112-57.3916L34.0431-57.3916Q35.1454-57.3916 35.1012-56.2711L33.5578-35.4078Q33.1106-29.5842 36.1395-26.0824Q39.1685-22.5805 44.0356-21.5545L64.5919-17.2429L69.021 4.82374Q69.4935 7.22703 71.5359 8.35371Q73.5783 9.48038 75.4025 9.15775Q77.663 8.71062 78.9415 6.78926Q80.22 4.86789 79.7547 2.61454L74.6299-22.9729Q74.3444-24.5993 73.1372-25.6984Q71.9301-26.7974 70.4387-27.2698L54.6585-32.2234L56.015-51.2994Q56.0591-52.1777 56.7427-52.4442Q57.4263-52.7108 58.1028-52.1777L65.7529-45.8471Q67.2924-44.5868 69.2595-44.5868L92.31-44.5868Q94.5885-44.5868 96.162-46.2005Q97.7354-47.8142 97.7354-50.0304Q97.7354-52.3461 96.162-53.9196Q94.5885-55.4931 92.31-55.4931L71.1903-55.4931L60.254-64.6511Q58.1277-66.4287 55.9308-67.3925Q53.7339-68.3563 50.6698-68.3563L25.4298-68.3563L30.9629-86.884Q31.6152-89.0822 30.5288-91.0843Q29.4423-93.0865 27.3065-93.7569Q25.0902-94.365 23.0754-93.288Q21.0606-92.211 20.4083-90.0129L12.7835-64.4324Q11.9885-61.7619 13.2926-59.5767Q14.5967-57.3916 18.0112-57.3916ZM39.5085 24.1472Q41.4464 24.7372 43.5385 23.8396Q45.6306 22.9421 46.3814 20.5206L54.0063-4.89812Q54.2736-5.87295 54.2736-7.23977L54.2736-14.132L42.9763-16.5108Q42.8082-16.5659 42.6091-16.5912Q42.4099-16.6165 42.2419-16.6788L43.2537-7.27608L35.8891 17.3737Q35.2187 19.5095 36.2866 21.5116Q37.3546 23.5138 39.5085 24.1472Z"/>
  </g>
  <g id="Medium-M" transform="matrix(1 0 0 1 1691.96 1126)">
   <path d="M51.0774-72.4441Q55.5973-72.4441 58.8184-75.6608Q62.0394-78.8776 62.0394-83.4061Q62.0394-87.9014 58.8184-91.1348Q55.5973-94.3682 51.0774-94.3682Q46.582-94.3682 43.3444-91.1348Q40.1067-87.9014 40.1067-83.4061Q40.1067-78.8776 43.3444-75.6608Q46.582-72.4441 51.0774-72.4441ZM17.8101-57.4957L33.7731-57.4957Q34.9827-57.4957 34.9307-56.2758L33.3903-35.5328Q32.9524-29.8172 35.9148-26.3866Q38.8772-22.956 43.655-21.9473L64.1478-17.6461L68.5649 4.33667Q69.0216 6.65669 70.9886 7.74492Q72.9556 8.83315 74.7044 8.51988Q76.8896 8.08214 78.1178 6.23542Q79.3459 4.3887 78.8979 2.21223L73.8166-23.1736Q73.5468-24.7339 72.386-25.7953Q71.2252-26.8566 69.7683-27.3133L54.0018-32.2707L55.3554-51.3082Q55.4074-52.2874 56.1683-52.5847Q56.9292-52.882 57.6815-52.2874L65.2599-46.0191Q66.762-44.8011 68.6458-44.8011L91.51-44.8011Q93.7053-44.8011 95.2198-46.352Q96.7344-47.9029 96.7344-50.0358Q96.7344-52.2746 95.2198-53.7892Q93.7053-55.3039 91.51-55.3039L70.509-55.3039L59.6155-64.4252Q57.5109-66.1746 55.3618-67.1212Q53.2128-68.0677 50.2034-68.0677L24.9601-68.0677L30.5113-86.6372Q31.1464-88.76 30.0944-90.6907Q29.0425-92.6214 26.9821-93.2666Q24.849-93.8497 22.9089-92.8143Q20.9688-91.7789 20.3337-89.6562L12.7741-64.2789Q12.0043-61.6995 13.2628-59.5976Q14.5213-57.4957 17.8101-57.4957ZM39.1778 23.3882Q41.0497 23.961 43.0696 23.0925Q45.0895 22.224 45.8073 19.8937L53.3669-5.31548Q53.6264-6.26369 53.6264-7.596L53.6264-14.7734L42.6412-17.0974Q42.4873-17.1511 42.3024-17.1699Q42.1175-17.1888 41.9638-17.2511L43.0007-7.61656L35.692 16.8646Q35.0466 18.925 36.0769 20.8557Q37.1072 22.7864 39.1778 23.3882Z"/>
  </g>
  <g id="Regular-M" transform="matrix(1 0 0 1 1395.9 1126)">
   <path d="M50.4568-71.9511Q54.8584-71.9511 57.9884-75.0759Q61.1184-78.2007 61.1184-82.6127Q61.1184-86.973 57.9884-90.1238Q54.8584-93.2745 50.4568-93.2745Q46.0965-93.2745 42.9405-90.1238Q39.7846-86.973 39.7846-82.6127Q39.7846-78.2007 42.9405-75.0759Q46.0965-71.9511 50.4568-71.9511ZM17.5478-57.6316L33.421-57.6316Q34.7706-57.6316 34.7083-56.282L33.1718-35.6958Q32.7461-30.1211 35.6217-26.7834Q38.4973-23.4458 43.1587-22.4596L63.5684-18.172L67.97 3.70135Q68.4061 5.91277 70.2748 6.95085Q72.1434 7.98894 73.7939 7.68787Q75.8807 7.26238 77.0433 5.51302Q78.2059 3.76366 77.7804 1.68749L72.7558-23.4354Q72.5066-24.9096 71.4062-25.9217Q70.3058-26.9339 68.8939-27.37L53.1454-32.3323L54.495-51.3197Q54.5573-52.4306 55.419-52.768Q56.2807-53.1055 57.1319-52.4306L64.617-46.2434Q66.0701-45.0807 67.8454-45.0807L90.4666-45.0807Q92.5532-45.0807 93.9909-46.5496Q95.4287-48.0185 95.4287-50.0429Q95.4287-52.1813 93.9909-53.6192Q92.5532-55.057 90.4666-55.057L69.6205-55.057L58.7826-64.1304Q56.7064-65.8432 54.6197-66.7673Q52.533-67.6913 49.595-67.6913L24.3476-67.6913L29.9223-86.3153Q30.5349-88.3398 29.5279-90.1773Q28.521-92.0148 26.559-92.6272Q24.5345-93.1775 22.6917-92.1964Q20.849-91.2153 20.2364-89.191L12.7618-64.0786Q12.0248-61.6181 13.2239-59.6249Q14.423-57.6316 17.5478-57.6316ZM38.7465 22.3983Q40.5322 22.9486 42.4579 22.118Q44.3837 21.2875 45.0584 19.0761L52.533-5.85987Q52.7822-6.77335 52.7822-8.06065L52.7822-15.61L42.204-17.8626Q42.0687-17.9143 41.9024-17.9248Q41.7361-17.9354 41.601-17.9977L42.6707-8.06065L35.4348 16.2006Q34.8223 18.1626 35.8034 20.0001Q36.7845 21.8376 38.7465 22.3983Z"/>
  </g>
  <g id="Light-M" transform="matrix(1 0 0 1 1100.32 1126)">
   <path d="M49.4302-71.2324Q53.6949-71.2324 56.7479-74.2716Q59.8009-77.3109 59.8009-81.603Q59.8009-85.8608 56.7479-88.9175Q53.6949-91.9742 49.4302-91.9742Q45.1725-91.9742 42.1021-88.9175Q39.0316-85.8608 39.0316-81.603Q39.0316-77.3109 42.1021-74.2716Q45.1725-71.2324 49.4302-71.2324ZM17.411-56.9302L32.8564-56.9302Q34.1718-56.9302 34.1095-55.6148L32.6071-35.5932Q32.1984-30.1725 34.9885-26.9289Q37.7785-23.6853 42.3204-22.7163L62.1825-18.5483L66.4472 2.72592Q66.8833 4.88616 68.7006 5.89004Q70.518 6.89391 72.117 6.60981Q74.1526 6.20156 75.2809 4.49489Q76.4092 2.78822 76.0009 0.780477L71.1131-23.6579Q70.8639-25.0979 69.7977-26.0843Q68.7316-27.0707 67.3539-27.5069L52.0331-32.3323L53.3485-50.7893Q53.4108-51.8829 54.2554-52.2119Q55.1-52.5408 55.917-51.8829L63.2138-45.8671Q64.5985-44.7386 66.3226-44.7386L88.3449-44.7386Q90.3801-44.7386 91.775-46.1647Q93.1699-47.5908 93.1699-49.5636Q93.1699-51.6337 91.775-53.0288Q90.3801-54.424 88.3449-54.424L68.0462-54.424L57.5165-63.2579Q55.5088-64.9193 53.4734-65.8262Q51.438-66.7331 48.5854-66.7331L24.0224-66.7331L29.443-84.8437Q30.0387-86.817 29.0659-88.6032Q28.0932-90.3894 26.1827-90.9845Q24.2093-91.5179 22.4094-90.5623Q20.6095-89.6068 20.0139-87.634L12.7446-63.223Q12.0248-60.814 13.1982-58.8721Q14.3715-56.9302 17.411-56.9302ZM38.0278 20.9267Q39.7793 21.46 41.6452 20.6465Q43.5111 19.8331 44.1686 17.6728L51.438-6.57859Q51.6872-7.45785 51.6872-8.71094L51.6872-16.2772L41.4341-18.4445Q41.2816-18.4789 41.0982-18.5065Q40.9148-18.5342 40.7627-18.5965L41.8493-8.71094L34.8018 14.883Q34.2062 16.7936 35.1617 18.5798Q36.1172 20.3659 38.0278 20.9267Z"/>
  </g>
  <g id="Thin-M" transform="matrix(1 0 0 1 805.1 1126)">
   <path d="M48.0724-70.2818Q52.1562-70.2818 55.1072-73.208Q58.0583-76.1341 58.0583-80.2677Q58.0583-84.3897 55.1072-87.3221Q52.1562-90.2544 48.0724-90.2544Q43.9505-90.2544 40.9931-87.3221Q38.0358-84.3897 38.0358-80.2677Q38.0358-76.1341 40.9931-73.208Q43.9505-70.2818 48.0724-70.2818ZM17.23-56.0024L32.1096-56.0024Q33.3798-56.0024 33.3175-54.7323L31.8604-35.4574Q31.4741-30.2406 34.151-27.1213Q36.828-24.002 41.2116-23.0558L60.3494-19.046L64.4331 1.43583Q64.8693 3.52839 66.6187 4.48702Q68.3682 5.44565 69.8992 5.18398Q71.8671 4.79854 72.95 3.14834Q74.0328 1.49813 73.6473-0.419122L68.9406-23.9522Q68.6913-25.3469 67.6704-26.2993Q66.6495-27.2517 65.317-27.6879L50.562-32.3323L51.8322-50.0878Q51.8945-51.1586 52.7165-51.4763Q53.5385-51.7941 54.3102-51.1586L61.3579-45.3694Q62.6521-44.2862 64.3085-44.2862L85.5389-44.2862Q87.506-44.2862 88.8442-45.6556Q90.1825-47.025 90.1825-48.9298Q90.1825-50.9094 88.8442-52.248Q87.506-53.5867 85.5389-53.5867L65.9641-53.5867L55.842-62.104Q53.9248-63.6972 51.9572-64.5815Q49.9897-65.4658 47.25-65.4658L23.5924-65.4658L28.8092-82.8973Q29.3824-84.803 28.4549-86.5213Q27.5274-88.2396 25.6849-88.8119Q23.7793-89.3228 22.0361-88.4012Q20.2928-87.4795 19.7196-85.5747L12.7218-62.0915Q12.0248-59.7506 13.1641-57.8765Q14.3034-56.0024 17.23-56.0024ZM37.0772 18.9803Q38.7835 19.4912 40.5703 18.7004Q42.3572 17.9095 42.9918 15.817L49.9897-7.52914Q50.2389-8.36316 50.2389-9.571L50.2389-17.1597L40.4159-19.214Q40.2406-19.2256 40.0345-19.2759Q39.8285-19.3262 39.654-19.3885L40.7631-9.571L33.9646 13.1405Q33.3914 14.983 34.313 16.7013Q35.2347 18.4196 37.0772 18.9803Z"/>
  </g>
  <g id="Ultralight-M" transform="matrix(1 0 0 1 509.154 1126)">
   <path d="M47.377-69.7949Q51.368-69.7949 54.2669-72.6632Q57.1658-75.5314 57.1658-79.5837Q57.1658-83.6362 54.2669-86.5049Q51.368-89.3736 47.377-89.3736Q43.3245-89.3736 40.4252-86.5049Q37.5258-83.6362 37.5258-79.5837Q37.5258-75.5314 40.4252-72.6632Q43.3245-69.7949 47.377-69.7949ZM17.1373-55.5272L31.7271-55.5272Q32.9741-55.5272 32.9118-54.2803L31.4779-35.3879Q31.1031-30.2755 33.7221-27.2199Q36.3411-24.1642 40.6438-23.2297L59.4105-19.3009L63.4016 0.77505Q63.8377 2.83295 65.5524 3.7684Q67.2671 4.70385 68.7632 4.45367Q70.6965 4.07992 71.7561 2.45864Q72.8156 0.837355 72.4418-1.03355L67.8278-24.1029Q67.5786-25.4745 66.5808-26.4094Q65.583-27.3444 64.2738-27.7806L49.8086-32.3323L51.0555-49.7285Q51.1178-50.7876 51.9282-51.0996Q52.7386-51.4116 53.4872-50.7876L60.4073-45.1145Q61.6552-44.0544 63.277-44.0544L84.1016-44.0544Q86.0339-44.0544 87.3431-45.3948Q88.6524-46.7352 88.6524-48.6052Q88.6524-50.5384 87.3431-51.8481Q86.0339-53.1579 84.1016-53.1579L64.8977-53.1579L54.9843-61.5129Q53.1134-63.0713 51.1807-63.944Q49.2479-64.8167 46.5661-64.8167L23.3721-64.8167L28.4846-81.9004Q29.0463-83.7714 28.142-85.4549Q27.2377-87.1385 25.43-87.6992Q23.559-88.1986 21.8448-87.2942Q20.1306-86.3899 19.5689-84.5199L12.7101-61.5119Q12.0248-59.2059 13.1467-57.3665Q14.2686-55.5272 17.1373-55.5272ZM36.5903 17.9834Q38.2734 18.4828 40.0198 17.7036Q41.7661 16.9243 42.3891 14.8664L49.2479-8.01601Q49.4971-8.82685 49.4971-10.0115L49.4971-17.6117L39.8943-19.6082Q39.7073-19.6081 39.4897-19.67Q39.2721-19.7319 39.0861-19.7942L40.2067-10.0115L33.5357 12.2479Q32.974 14.0556 33.8784 15.7391Q34.7827 17.4227 36.5903 17.9834Z"/>
  </g>
  <g id="Black-S" transform="matrix(1 0 0 1 2888.09 696)">
   <path d="M42.4316-66.3086Q46.4355-66.3086 49.3164-69.1895Q52.1973-72.0703 52.1973-76.0742Q52.1973-80.127 49.3164-82.9834Q46.4355-85.8398 42.4316-85.8398Q38.3789-85.8398 35.5225-82.9834Q32.666-80.127 32.666-76.0742Q32.666-72.0703 35.5225-69.1895Q38.3789-66.3086 42.4316-66.3086ZM14.9902-52.0996L27.832-52.0996Q28.2227-52.0996 28.2227-51.6602L27.002-34.8145Q26.6113-29.7852 29.2725-26.7334Q31.9336-23.6816 36.1328-22.8027L52.4902-19.3848L56.0059-1.75781Q56.4453 0.488281 58.374 1.53809Q60.3027 2.58789 62.0605 2.29492Q64.1602 1.9043 65.3809 0.0732422Q66.6016-1.75781 66.1621-3.85742L61.9629-24.7559Q61.6699-26.3184 60.5225-27.3438Q59.375-28.3691 58.0566-28.8086L45.6543-32.666L46.7285-47.7539Q46.7285-47.998 46.9238-48.0713Q47.1191-48.1445 47.3145-47.998L53.6133-42.7734Q54.9805-41.6016 56.8848-41.6016L75.7324-41.6016Q77.8809-41.6016 79.3701-43.1396Q80.8594-44.6777 80.8594-46.7773Q80.8594-48.9258 79.3701-50.415Q77.8809-51.9043 75.7324-51.9043L58.6914-51.9043L49.9512-59.2285Q48.1934-60.7422 46.2646-61.5723Q44.3359-62.4023 41.6992-62.4023L21.9727-62.4023L26.2207-76.709Q26.8066-78.7598 25.8057-80.6396Q24.8047-82.5195 22.8027-83.1543Q20.7031-83.7402 18.7988-82.7148Q16.8945-81.6895 16.3086-79.6387L10.0586-58.7402Q9.32617-56.25 10.5469-54.1748Q11.7676-52.0996 14.9902-52.0996ZM32.373 14.5508Q34.1797 15.0879 36.1328 14.2578Q38.0859 13.4277 38.8184 11.1328L45.0684-9.66797Q45.3125-10.5469 45.3125-11.7676L45.3125-15.918L35.1074-18.0176Q34.9121-18.0664 34.6924-18.1152Q34.4727-18.1641 34.2773-18.2129L34.9609-11.8652L28.9551 8.1543Q28.3203 10.1562 29.3213 12.0361Q30.3223 13.916 32.373 14.5508Z"/>
  </g>
  <g id="Heavy-S" transform="matrix(1 0 0 1 2591.96 696)">
   <path d="M41.8669-65.8476Q45.7556-65.8476 48.5443-68.6363Q51.3329-71.4249 51.3329-75.3136Q51.3329-79.228 48.5443-82.0038Q45.7556-84.7796 41.8669-84.7796Q37.9525-84.7796 35.1767-82.0038Q32.401-79.228 32.401-75.3136Q32.401-71.4249 35.1767-68.6363Q37.9525-65.8476 41.8669-65.8476ZM14.7136-52.3416L27.5093-52.3416Q28.0613-52.3416 28.0498-51.7524L26.8291-35.0104Q26.45-30.1194 29.0247-27.1598Q31.5994-24.2002 35.6834-23.3444L52.0177-19.9264L55.5334-2.34556Q55.9498-0.214711 57.7748 0.783233Q59.5997 1.78118 61.2538 1.49973Q63.2497 1.12063 64.4013-0.606701Q65.5528-2.33404 65.1364-4.32992L60.9833-25.0209Q60.7134-26.4912 59.6293-27.4648Q58.5452-28.4383 57.273-28.8547L44.8361-32.7352L45.9103-47.8346Q45.9218-48.2285 46.2324-48.3479Q46.5429-48.4672 46.8535-48.2285L53.0716-43.0731Q54.3927-41.9588 56.1818-41.9588L74.8335-41.9588Q76.8667-41.9588 78.2753-43.4105Q79.6839-44.8621 79.6839-46.8465Q79.6839-48.8912 78.2753-50.2998Q76.8667-51.7084 74.8335-51.7084L57.8962-51.7084L49.179-59.0096Q47.4443-60.4886 45.5789-61.2957Q43.7136-62.1027 41.146-62.1027L21.3273-62.1027L25.6214-76.5361Q26.1843-78.4832 25.2294-80.2651Q24.2746-82.047 22.3763-82.6472Q20.392-83.1986 18.5914-82.2308Q16.7908-81.263 16.2279-79.316L10.0471-58.625Q9.34922-56.2615 10.5065-54.3016Q11.6639-52.3416 14.7136-52.3416ZM31.9812 13.6288Q33.6957 14.1429 35.5508 13.3531Q37.406 12.5634 38.0923 10.3952L44.2732-10.1866Q44.5058-11.0309 44.5058-12.2055L44.5058-16.7708L34.7156-18.8012Q34.5433-18.8501 34.3466-18.8874Q34.15-18.9247 33.9777-18.9735L34.6959-12.2801L28.7476 7.57807Q28.1474 9.47631 29.0966 11.2582Q30.0457 13.0402 31.9812 13.6288Z"/>
  </g>
  <g id="Bold-S" transform="matrix(1 0 0 1 2295.91 696)">
   <path d="M41.2354-65.332Q44.9951-65.332 47.6807-68.0176Q50.3662-70.7031 50.3662-74.4629Q50.3662-78.2227 47.6807-80.9082Q44.9951-83.5938 41.2354-83.5938Q37.4756-83.5938 34.79-80.9082Q32.1045-78.2227 32.1045-74.4629Q32.1045-70.7031 34.79-68.0176Q37.4756-65.332 41.2354-65.332ZM14.4043-52.6123L27.1484-52.6123Q27.8809-52.6123 27.8564-51.8555L26.6357-35.2295Q26.2695-30.4932 28.7476-27.6367Q31.2256-24.7803 35.1807-23.9502L51.4893-20.5322L55.0049-3.00293Q55.3955-1.00098 57.1045-0.0610352Q58.8135 0.878906 60.3516 0.610352Q62.2314 0.244141 63.3057-1.36719Q64.3799-2.97852 63.9893-4.8584L59.8877-25.3174Q59.6436-26.6846 58.6304-27.6001Q57.6172-28.5156 56.3965-28.9062L43.9209-32.8125L44.9951-47.9248Q45.0195-48.4863 45.459-48.6572Q45.8984-48.8281 46.3379-48.4863L52.4658-43.4082Q53.7354-42.3584 55.3955-42.3584L73.8281-42.3584Q75.7324-42.3584 77.0508-43.7134Q78.3691-45.0684 78.3691-46.9238Q78.3691-48.8525 77.0508-50.1709Q75.7324-51.4893 73.8281-51.4893L57.0068-51.4893L48.3154-58.7646Q46.6064-60.2051 44.812-60.9863Q43.0176-61.7676 40.5273-61.7676L20.6055-61.7676L24.9512-76.3428Q25.4883-78.1738 24.585-79.8462Q23.6816-81.5186 21.8994-82.0801Q20.0439-82.5928 18.3594-81.6895Q16.6748-80.7861 16.1377-78.9551L10.0342-58.4961Q9.375-56.2744 10.4614-54.4434Q11.5479-52.6123 14.4043-52.6123ZM31.543 12.5977Q33.1543 13.0859 34.8999 12.3413Q36.6455 11.5967 37.2803 9.57031L43.3838-10.7666Q43.6035-11.5723 43.6035-12.6953L43.6035-17.7246L34.2773-19.6777Q34.1309-19.7266 33.96-19.751Q33.7891-19.7754 33.6426-19.8242L34.3994-12.7441L28.5156 6.93359Q27.9541 8.71582 28.8452 10.3882Q29.7363 12.0605 31.543 12.5977Z"/>
  </g>
  <g id="Semibold-S" transform="matrix(1 0 0 1 1999.65 696)">
   <path d="M40.7999-64.9766Q44.4708-64.9766 47.0853-67.591Q49.6997-70.2055 49.6997-73.8764Q49.6997-77.5295 47.0853-80.1528Q44.4708-82.7762 40.7999-82.7762Q37.1468-82.7762 34.5234-80.1528Q31.9001-77.5295 31.9001-73.8764Q31.9001-70.2055 34.5234-67.591Q37.1468-64.9766 40.7999-64.9766ZM14.191-52.7989L26.8996-52.7989Q27.7564-52.7989 27.7231-51.9266L26.5024-35.3806Q26.1451-30.7509 28.5565-27.9655Q30.9679-25.1802 34.8341-24.3679L51.1249-20.9499L54.6405-3.45615Q55.0134-1.54307 56.6424-0.643115Q58.2714 0.256836 59.7295-0.00283203Q61.5294-0.360156 62.5503-1.8915Q63.5712-3.42285 63.1983-5.22275L59.1323-25.5218Q58.906-26.8179 57.9417-27.6934Q56.9773-28.5689 55.7922-28.9418L43.2899-32.8658L44.3642-47.987Q44.3975-48.6641 44.9258-48.8705Q45.4541-49.077 45.9824-48.6641L52.0481-43.6393Q53.2821-42.6339 54.8534-42.6339L73.135-42.6339Q74.9504-42.6339 76.2065-43.9222Q77.4627-45.2105 77.4627-46.9771Q77.4627-48.8259 76.2065-50.082Q74.9504-51.3382 73.135-51.3382L56.3937-51.3382L47.72-58.5958Q46.0288-60.0096 44.2833-60.773Q42.5377-61.5365 40.1008-61.5365L20.1078-61.5365L24.4891-76.2095Q25.0084-77.9605 24.1406-79.5574Q23.2729-81.1542 21.5706-81.6891Q19.804-82.1751 18.1994-81.3162Q16.5948-80.4573 16.0755-78.7062L10.0253-58.4072Q9.39277-56.2833 10.4303-54.5411Q11.4679-52.7989 14.191-52.7989ZM31.2408 11.8867Q32.7811 12.3572 34.4511 11.6437Q36.1212 10.9302 36.7204 9.00156L42.7706-11.1665Q42.9814-11.9455 42.9814-13.033L42.9814-18.3822L33.9752-20.282Q33.8465-20.3309 33.6934-20.3464Q33.5402-20.3619 33.4115-20.4107L34.195-13.0641L28.3557 6.48926Q27.8208 8.1915 28.6719 9.78833Q29.523 11.3852 31.2408 11.8867Z"/>
  </g>
  <g id="Medium-S" transform="matrix(1 0 0 1 1703.29 696)">
   <path d="M40.4697-64.707Q44.0732-64.707 46.6338-67.2676Q49.1943-69.8281 49.1943-73.4316Q49.1943-77.0039 46.6338-79.5801Q44.0732-82.1562 40.4697-82.1562Q36.8975-82.1562 34.3213-79.5801Q31.7451-77.0039 31.7451-73.4316Q31.7451-69.8281 34.3213-67.2676Q36.8975-64.707 40.4697-64.707ZM14.0293-52.9404L26.7109-52.9404Q27.6621-52.9404 27.6221-51.9805L26.4014-35.4951Q26.0508-30.9463 28.4116-28.2148Q30.7725-25.4834 34.5713-24.6846L50.8486-21.2666L54.3643-3.7998Q54.7236-1.9541 56.292-1.08447Q57.8604-0.214844 59.2578-0.467773Q60.9971-0.818359 61.9775-2.28906Q62.958-3.75977 62.5986-5.49902L58.5596-25.6768Q58.3467-26.9189 57.4194-27.7642Q56.4922-28.6094 55.334-28.9688L42.8115-32.9062L43.8857-48.0342Q43.9258-48.7988 44.5215-49.0322Q45.1172-49.2656 45.7129-48.7988L51.7314-43.8145Q52.9385-42.8428 54.4424-42.8428L72.6094-42.8428Q74.3574-42.8428 75.5664-44.0806Q76.7754-45.3184 76.7754-47.0176Q76.7754-48.8057 75.5664-50.0146Q74.3574-51.2236 72.6094-51.2236L55.9287-51.2236L47.2686-58.4678Q45.5908-59.8613 43.8823-60.6113Q42.1738-61.3613 39.7773-61.3613L19.7305-61.3613L24.1387-76.1084Q24.6445-77.7988 23.8037-79.3384Q22.9629-80.8779 21.3213-81.3926Q19.6221-81.8584 18.0781-81.0332Q16.5342-80.208 16.0283-78.5176L10.0186-58.3398Q9.40625-56.29 10.4067-54.6152Q11.4072-52.9404 14.0293-52.9404ZM31.0117 11.3477Q32.498 11.8047 34.1108 11.1147Q35.7236 10.4248 36.2959 8.57031L42.3057-11.4697Q42.5098-12.2285 42.5098-13.2891L42.5098-18.8809L33.7461-20.7402Q33.6309-20.7891 33.4912-20.7979Q33.3516-20.8066 33.2363-20.8555L34.04-13.3066L28.2344 6.15234Q27.7197 7.79395 28.5405 9.3335Q29.3613 10.873 31.0117 11.3477Z"/>
  </g>
  <g id="Regular-S" transform="matrix(1 0 0 1 1407.02 696)">
   <path d="M40.0391-64.3555Q43.5547-64.3555 46.0449-66.8457Q48.5352-69.3359 48.5352-72.8516Q48.5352-76.3184 46.0449-78.833Q43.5547-81.3477 40.0391-81.3477Q36.5723-81.3477 34.0576-78.833Q31.543-76.3184 31.543-72.8516Q31.543-69.3359 34.0576-66.8457Q36.5723-64.3555 40.0391-64.3555ZM13.8184-53.125L26.4648-53.125Q27.5391-53.125 27.4902-52.0508L26.2695-35.6445Q25.9277-31.2012 28.2227-28.54Q30.5176-25.8789 34.2285-25.0977L50.4883-21.6797L54.0039-4.24805Q54.3457-2.49023 55.835-1.66016Q57.3242-0.830078 58.6426-1.07422Q60.3027-1.41602 61.2305-2.80762Q62.1582-4.19922 61.8164-5.85938L57.8125-25.8789Q57.6172-27.0508 56.7383-27.8564Q55.8594-28.6621 54.7363-29.0039L42.1875-32.959L43.2617-48.0957Q43.3105-48.9746 43.9941-49.2432Q44.6777-49.5117 45.3613-48.9746L51.3184-44.043Q52.4902-43.1152 53.9062-43.1152L71.9238-43.1152Q73.584-43.1152 74.7314-44.2871Q75.8789-45.459 75.8789-47.0703Q75.8789-48.7793 74.7314-49.9268Q73.584-51.0742 71.9238-51.0742L55.3223-51.0742L46.6797-58.3008Q45.0195-59.668 43.3594-60.4004Q41.6992-61.1328 39.3555-61.1328L19.2383-61.1328L23.6816-75.9766Q24.1699-77.5879 23.3643-79.0527Q22.5586-80.5176 20.9961-81.0059Q19.3848-81.4453 17.9199-80.6641Q16.4551-79.8828 15.9668-78.2715L10.0098-58.252Q9.42383-56.2988 10.376-54.7119Q11.3281-53.125 13.8184-53.125ZM30.7129 10.6445Q32.1289 11.084 33.667 10.4248Q35.2051 9.76562 35.7422 8.00781L41.6992-11.8652Q41.8945-12.5977 41.8945-13.623L41.8945-19.5312L33.4473-21.3379Q33.3496-21.3867 33.2275-21.3867Q33.1055-21.3867 33.0078-21.4355L33.8379-13.623L28.0762 5.71289Q27.5879 7.27539 28.3691 8.74023Q29.1504 10.2051 30.7129 10.6445Z"/>
  </g>
  <g id="Light-S" transform="matrix(1 0 0 1 1111.31 696)">
   <path d="M39.1309-63.7197Q42.5255-63.7197 44.9476-66.1343Q47.3696-68.5488 47.3696-71.9584Q47.3696-75.3344 44.9476-77.7659Q42.5255-80.1974 39.1309-80.1974Q35.7549-80.1974 33.3159-77.7659Q30.8769-75.3344 30.8769-71.9584Q30.8769-68.5488 33.3159-66.1343Q35.7549-63.7197 39.1309-63.7197ZM13.6973-52.5045L25.9654-52.5045Q27.0093-52.5045 26.9605-51.4605L25.7701-35.5537Q25.4433-31.2467 27.6625-28.6687Q29.8818-26.0907 33.4869-25.3248L49.2622-22.0126L52.6568-5.11093Q52.9986-3.39839 54.4425-2.59857Q55.8863-1.79876 57.1592-2.02789Q58.7741-2.35443 59.6714-3.70827Q60.5687-5.0621 60.2422-6.66173L56.3594-26.0757Q56.164-27.2174 55.3154-28.0003Q54.4668-28.7832 53.374-29.125L41.2036-32.959L42.2475-47.6265Q42.2963-48.4901 42.9648-48.7512Q43.6333-49.0122 44.2866-48.4901L50.0771-43.7101Q51.1884-42.8126 52.5592-42.8126L70.047-42.8126Q71.6616-42.8126 72.7712-43.9466Q73.8808-45.0806 73.8808-46.6464Q73.8808-48.2948 72.7712-49.4045Q71.6616-50.5142 70.047-50.5142L53.9296-50.5142L45.5597-57.5289Q43.9601-58.8506 42.3453-59.5679Q40.7305-60.2852 38.4623-60.2852L18.9507-60.2852L23.2577-74.6747Q23.731-76.2408 22.9556-77.6602Q22.1802-79.0797 20.6632-79.5527Q19.0971-79.9772 17.6702-79.2185Q16.2432-78.4599 15.77-76.8941L9.99451-57.4951Q9.42383-55.5875 10.3532-54.046Q11.2826-52.5045 13.6973-52.5045ZM30.0771 9.3427Q31.4629 9.76715 32.948 9.1231Q34.4332 8.47905 34.9551 6.76651L40.7305-12.501Q40.9259-13.2032 40.9259-14.1983L40.9259-20.1215L32.7662-21.8526Q32.6533-21.8862 32.5161-21.9013Q32.3789-21.9165 32.2662-21.9653L33.1113-14.1983L27.5162 4.54737Q27.0429 6.06435 27.8015 7.4838Q28.5601 8.90325 30.0771 9.3427Z"/>
  </g>
  <g id="Thin-S" transform="matrix(1 0 0 1 815.92 696)">
   <path d="M37.9298-62.8788Q41.1643-62.8788 43.4962-65.1933Q45.8281-67.5078 45.8281-70.7772Q45.8281-74.0331 43.4962-76.3546Q41.1643-78.6761 37.9298-78.6761Q34.6739-78.6761 32.3349-76.3546Q29.996-74.0331 29.996-70.7772Q29.996-67.5078 32.3349-65.1933Q34.6739-62.8788 37.9298-62.8788ZM13.5372-51.6838L25.3048-51.6838Q26.3087-51.6838 26.2599-50.6799L25.1095-35.4337Q24.8025-31.3069 26.9217-28.8389Q29.0409-26.3709 32.5061-25.6251L47.6407-22.4529L50.8752-6.25217Q51.217-4.59949 52.6008-3.8397Q53.9846-3.07991 55.1972-3.2892Q56.7523-3.59556 57.6094-4.89945Q58.4666-6.20334 58.1602-7.72292L54.4375-26.3361Q54.2421-27.4377 53.4335-28.1905Q52.6249-28.9433 51.5721-29.2851L39.9022-32.959L40.9062-47.0059Q40.955-47.8494 41.6034-48.1005Q42.2519-48.3517 42.8652-47.8494L48.4353-43.2698Q49.4666-42.4123 50.7775-42.4123L67.5647-42.4123Q69.1192-42.4123 70.1786-43.4962Q71.2381-44.5801 71.2381-46.0857Q71.2381-47.6541 70.1786-48.7138Q69.1192-49.7736 67.5647-49.7736L52.0878-49.7736L44.0784-56.5081Q42.5588-57.7696 41.0041-58.4669Q39.4494-59.1641 37.2811-59.1641L18.5702-59.1641L22.697-72.953Q23.1504-74.4591 22.4151-75.8186Q21.6797-77.178 20.2229-77.6308Q18.7167-78.0354 17.3399-77.3067Q15.9631-76.5781 15.5096-75.0725L9.97433-56.4941Q9.42383-54.6467 10.3231-53.1653Q11.2224-51.6838 13.5372-51.6838ZM29.2362 7.62093Q30.582 8.02553 31.9972 7.4015Q33.4124 6.77746 33.9141 5.12479L39.4494-13.3419Q39.6447-14.004 39.6447-14.9591L39.6447-20.9022L31.8655-22.5334Q31.7324-22.5468 31.5752-22.5819Q31.4179-22.6171 31.2854-22.6659L32.1504-14.9591L26.7755 3.00588Q26.3221 4.46265 27.0508 5.82206Q27.7795 7.18148 29.2362 7.62093Z"/>
  </g>
  <g id="Ultralight-S" transform="matrix(1 0 0 1 519.886 696)">
   <path d="M37.3146-62.4481Q40.4671-62.4481 42.7528-64.7114Q45.0386-66.9746 45.0386-70.1721Q45.0386-73.3665 42.7528-75.6317Q40.4671-77.8969 37.3146-77.8969Q34.1202-77.8969 31.8325-75.6317Q29.5448-73.3665 29.5448-70.1721Q29.5448-66.9746 31.8325-64.7114Q34.1202-62.4481 37.3146-62.4481ZM13.4552-51.2634L24.9664-51.2634Q25.9499-51.2634 25.901-50.28L24.7711-35.3722Q24.4743-31.3377 26.5423-28.9261Q28.6102-26.5144 32.0038-25.779L46.8102-22.6784L49.9626-6.8367Q50.3044-5.21469 51.6575-4.4754Q53.0106-3.73611 54.1924-3.93524Q55.7167-4.23126 56.5533-5.50957Q57.3898-6.78787 57.0938-8.26645L53.4531-26.4694Q53.2578-27.5505 52.4696-28.2879Q51.6815-29.0253 50.6493-29.3671L39.2357-32.959L40.2191-46.6881Q40.2679-47.5212 40.9061-47.7673Q41.5443-48.0133 42.1371-47.5212L47.5945-43.0443Q48.5847-42.2073 49.865-42.2073L66.2933-42.2073Q67.8169-42.2073 68.8507-43.2655Q69.8845-44.3237 69.8845-45.7985Q69.8845-47.3259 68.8507-48.3601Q67.8169-49.3942 66.2933-49.3942L51.1444-49.3942L43.3197-55.9853Q41.8411-57.2159 40.3172-57.9029Q38.7932-58.5899 36.676-58.5899L18.3754-58.5899L22.4098-72.0711Q22.8531-73.5466 22.1382-74.8753Q21.4233-76.2039 19.9974-76.6464Q18.5219-77.0409 17.1707-76.3275Q15.8195-75.6142 15.3763-74.1394L9.96399-55.9814Q9.42383-54.1649 10.3077-52.7142Q11.1916-51.2634 13.4552-51.2634ZM28.8055 6.73904Q30.1308 7.13348 31.5102 6.5197Q32.8896 5.90591 33.3809 4.28391L38.7932-13.7726Q38.9885-14.4142 38.9885-15.3488L38.9885-21.302L31.4041-22.8821Q31.2607-22.8851 31.0932-22.9305Q30.9258-22.9759 30.7831-23.0247L31.6582-15.3488L26.3962 2.21634Q25.9529 3.64227 26.6663 4.97093Q27.3796 6.29959 28.8055 6.73904Z"/>
  </g>
 </g>
</svg>
