<?xml version="1.0" encoding="UTF-8"?>
<!--Generator: Apple Native CoreSVG 175.5-->
<!DOCTYPE svg
PUBLIC "-//W3C//DTD SVG 1.1//EN"
       "http://www.w3.org/Graphics/SVG/1.1/DTD/svg11.dtd">
<svg version="1.1" xmlns="http://www.w3.org/2000/svg" xmlns:xlink="http://www.w3.org/1999/xlink" width="3300" height="2200">
 <!--glyph: "uni101521.medium", point size: 100.0, font version: "18.0d9e1", template writer version: "84"-->
 <g id="Notes">
  <rect height="2200" id="artboard" style="fill:white;opacity:1" width="3300" x="0" y="0"/>
  <line style="fill:none;stroke:black;opacity:1;stroke-width:0.5;" x1="263" x2="3036" y1="292" y2="292"/>
  <text style="stroke:none;fill:black;font-family:sans-serif;font-size:13;font-weight:bold;" transform="matrix(1 0 0 1 263 322)">Weight/Scale Variations</text>
  <text style="stroke:none;fill:black;font-family:sans-serif;font-size:13;text-anchor:middle;" transform="matrix(1 0 0 1 559.711 322)">Ultralight</text>
  <text style="stroke:none;fill:black;font-family:sans-serif;font-size:13;text-anchor:middle;" transform="matrix(1 0 0 1 856.422 322)">Thin</text>
  <text style="stroke:none;fill:black;font-family:sans-serif;font-size:13;text-anchor:middle;" transform="matrix(1 0 0 1 1153.13 322)">Light</text>
  <text style="stroke:none;fill:black;font-family:sans-serif;font-size:13;text-anchor:middle;" transform="matrix(1 0 0 1 1449.84 322)">Regular</text>
  <text style="stroke:none;fill:black;font-family:sans-serif;font-size:13;text-anchor:middle;" transform="matrix(1 0 0 1 1746.56 322)">Medium</text>
  <text style="stroke:none;fill:black;font-family:sans-serif;font-size:13;text-anchor:middle;" transform="matrix(1 0 0 1 2043.27 322)">Semibold</text>
  <text style="stroke:none;fill:black;font-family:sans-serif;font-size:13;text-anchor:middle;" transform="matrix(1 0 0 1 2339.98 322)">Bold</text>
  <text style="stroke:none;fill:black;font-family:sans-serif;font-size:13;text-anchor:middle;" transform="matrix(1 0 0 1 2636.69 322)">Heavy</text>
  <text style="stroke:none;fill:black;font-family:sans-serif;font-size:13;text-anchor:middle;" transform="matrix(1 0 0 1 2933.4 322)">Black</text>
  <line style="fill:none;stroke:black;opacity:1;stroke-width:0.5;" x1="263" x2="3036" y1="1903" y2="1903"/>
  <g transform="matrix(1 0 0 1 263 1933)">
   <path d="M9.24805 0.830078Q10.8691 0.830078 12.2949 0.214844Q13.7207-0.400391 14.8096-1.49414Q15.8984-2.58789 16.5186-4.01367Q17.1387-5.43945 17.1387-7.05078Q17.1387-8.66211 16.5186-10.0879Q15.8984-11.5137 14.8047-12.6074Q13.7109-13.7012 12.2852-14.3164Q10.8594-14.9316 9.23828-14.9316Q7.62695-14.9316 6.20117-14.3164Q4.77539-13.7012 3.69141-12.6074Q2.60742-11.5137 1.9873-10.0879Q1.36719-8.66211 1.36719-7.05078Q1.36719-5.43945 1.9873-4.01367Q2.60742-2.58789 3.69629-1.49414Q4.78516-0.400391 6.21094 0.214844Q7.63672 0.830078 9.24805 0.830078ZM9.24805-0.654297Q7.91992-0.654297 6.7627-1.14746Q5.60547-1.64062 4.73145-2.51953Q3.85742-3.39844 3.36426-4.56055Q2.87109-5.72266 2.87109-7.05078Q2.87109-8.37891 3.35938-9.54102Q3.84766-10.7031 4.72168-11.582Q5.5957-12.4609 6.75293-12.9541Q7.91016-13.4473 9.23828-13.4473Q10.5762-13.4473 11.7383-12.9541Q12.9004-12.4609 13.7793-11.582Q14.6582-10.7031 15.1514-9.54102Q15.6445-8.37891 15.6445-7.05078Q15.6445-5.72266 15.1514-4.56055Q14.6582-3.39844 13.7793-2.51953Q12.9004-1.64062 11.7432-1.14746Q10.5859-0.654297 9.24805-0.654297ZM5.6543-7.05078Q5.6543-6.72852 5.85938-6.52832Q6.06445-6.32812 6.40625-6.32812L8.51562-6.32812L8.51562-4.20898Q8.51562-3.88672 8.71094-3.67676Q8.90625-3.4668 9.23828-3.4668Q9.56055-3.4668 9.77051-3.67676Q9.98047-3.88672 9.98047-4.20898L9.98047-6.32812L12.0898-6.32812Q12.4219-6.32812 12.627-6.52832Q12.832-6.72852 12.832-7.05078Q12.832-7.38281 12.627-7.58789Q12.4219-7.79297 12.0898-7.79297L9.98047-7.79297L9.98047-9.90234Q9.98047-10.2344 9.77051-10.4443Q9.56055-10.6543 9.23828-10.6543Q8.90625-10.6543 8.71094-10.4443Q8.51562-10.2344 8.51562-9.90234L8.51562-7.79297L6.40625-7.79297Q6.06445-7.79297 5.85938-7.58789Q5.6543-7.38281 5.6543-7.05078Z"/>
  </g>
  <g transform="matrix(1 0 0 1 281.867 1933)">
   <path d="M11.709 2.91016Q13.75 2.91016 15.5518 2.12891Q17.3535 1.34766 18.7305-0.0292969Q20.1074-1.40625 20.8887-3.20801Q21.6699-5.00977 21.6699-7.05078Q21.6699-9.0918 20.8887-10.8936Q20.1074-12.6953 18.7305-14.0723Q17.3535-15.4492 15.5469-16.2305Q13.7402-17.0117 11.6992-17.0117Q9.6582-17.0117 7.85645-16.2305Q6.05469-15.4492 4.68262-14.0723Q3.31055-12.6953 2.5293-10.8936Q1.74805-9.0918 1.74805-7.05078Q1.74805-5.00977 2.5293-3.20801Q3.31055-1.40625 4.6875-0.0292969Q6.06445 1.34766 7.86621 2.12891Q9.66797 2.91016 11.709 2.91016ZM11.709 1.25Q9.98047 1.25 8.47656 0.605469Q6.97266-0.0390625 5.83496-1.17676Q4.69727-2.31445 4.05762-3.81836Q3.41797-5.32227 3.41797-7.05078Q3.41797-8.7793 4.05762-10.2832Q4.69727-11.7871 5.83008-12.9297Q6.96289-14.0723 8.4668-14.7119Q9.9707-15.3516 11.6992-15.3516Q13.4277-15.3516 14.9365-14.7119Q16.4453-14.0723 17.583-12.9297Q18.7207-11.7871 19.3652-10.2832Q20.0098-8.7793 20.0098-7.05078Q20.0098-5.32227 19.3701-3.81836Q18.7305-2.31445 17.5879-1.17676Q16.4453-0.0390625 14.9414 0.605469Q13.4375 1.25 11.709 1.25ZM7.17773-7.05078Q7.17773-6.69922 7.41211-6.47461Q7.64648-6.25 8.01758-6.25L10.8887-6.25L10.8887-3.36914Q10.8887-2.99805 11.1133-2.76855Q11.3379-2.53906 11.6895-2.53906Q12.0605-2.53906 12.29-2.76855Q12.5195-2.99805 12.5195-3.36914L12.5195-6.25L15.4004-6.25Q15.7715-6.25 16.001-6.47461Q16.2305-6.69922 16.2305-7.05078Q16.2305-7.42188 16.001-7.65137Q15.7715-7.88086 15.4004-7.88086L12.5195-7.88086L12.5195-10.752Q12.5195-11.1328 12.29-11.3623Q12.0605-11.5918 11.6895-11.5918Q11.3379-11.5918 11.1133-11.3574Q10.8887-11.123 10.8887-10.752L10.8887-7.88086L8.01758-7.88086Q7.63672-7.88086 7.40723-7.65137Q7.17773-7.42188 7.17773-7.05078Z"/>
  </g>
  <g transform="matrix(1 0 0 1 305.646 1933)">
   <path d="M14.9707 5.66406Q17.0605 5.66406 18.96 5.01465Q20.8594 4.36523 22.4512 3.19336Q24.043 2.02148 25.2197 0.429688Q26.3965-1.16211 27.0459-3.06641Q27.6953-4.9707 27.6953-7.05078Q27.6953-9.14062 27.0459-11.04Q26.3965-12.9395 25.2197-14.5312Q24.043-16.123 22.4512-17.2998Q20.8594-18.4766 18.9551-19.126Q17.0508-19.7754 14.9609-19.7754Q12.8711-19.7754 10.9717-19.126Q9.07227-18.4766 7.48535-17.2998Q5.89844-16.123 4.72168-14.5312Q3.54492-12.9395 2.90039-11.04Q2.25586-9.14062 2.25586-7.05078Q2.25586-4.9707 2.90527-3.06641Q3.55469-1.16211 4.72656 0.429688Q5.89844 2.02148 7.49023 3.19336Q9.08203 4.36523 10.9814 5.01465Q12.8809 5.66406 14.9707 5.66406ZM14.9707 3.84766Q13.1641 3.84766 11.5283 3.2959Q9.89258 2.74414 8.53516 1.74805Q7.17773 0.751953 6.17676-0.610352Q5.17578-1.97266 4.62891-3.6084Q4.08203-5.24414 4.08203-7.05078Q4.08203-8.86719 4.62891-10.5029Q5.17578-12.1387 6.17188-13.501Q7.16797-14.8633 8.52539-15.8594Q9.88281-16.8555 11.5186-17.4023Q13.1543-17.9492 14.9609-17.9492Q16.7773-17.9492 18.4131-17.4023Q20.0488-16.8555 21.4111-15.8594Q22.7734-14.8633 23.7744-13.501Q24.7754-12.1387 25.3223-10.5029Q25.8691-8.86719 25.8691-7.05078Q25.8691-5.24414 25.3223-3.6084Q24.7754-1.97266 23.7793-0.610352Q22.7832 0.751953 21.4209 1.74805Q20.0586 2.74414 18.4229 3.2959Q16.7871 3.84766 14.9707 3.84766ZM9.19922-7.05078Q9.19922-6.66992 9.45801-6.4209Q9.7168-6.17188 10.1172-6.17188L14.0625-6.17188L14.0625-2.2168Q14.0625-1.81641 14.3115-1.55762Q14.5605-1.29883 14.9512-1.29883Q15.3516-1.29883 15.6104-1.55273Q15.8691-1.80664 15.8691-2.2168L15.8691-6.17188L19.8242-6.17188Q20.2246-6.17188 20.4785-6.4209Q20.7324-6.66992 20.7324-7.05078Q20.7324-7.46094 20.4785-7.71484Q20.2246-7.96875 19.8242-7.96875L15.8691-7.96875L15.8691-11.9141Q15.8691-12.3242 15.6104-12.583Q15.3516-12.8418 14.9512-12.8418Q14.5605-12.8418 14.3115-12.583Q14.0625-12.3242 14.0625-11.9141L14.0625-7.96875L10.1172-7.96875Q9.70703-7.96875 9.45312-7.71484Q9.19922-7.46094 9.19922-7.05078Z"/>
  </g>
  <text style="stroke:none;fill:black;font-family:sans-serif;font-size:13;font-weight:bold;" transform="matrix(1 0 0 1 263 1953)">Design Variations</text>
  <text style="stroke:none;fill:black;font-family:sans-serif;font-size:13;" transform="matrix(1 0 0 1 263 1971)">Symbols are supported in up to nine weights and three scales.</text>
  <text style="stroke:none;fill:black;font-family:sans-serif;font-size:13;" transform="matrix(1 0 0 1 263 1989)">For optimal layout with text and other symbols, vertically align</text>
  <text style="stroke:none;fill:black;font-family:sans-serif;font-size:13;" transform="matrix(1 0 0 1 263 2007)">symbols with the adjacent text.</text>
  <line style="fill:none;stroke:#00AEEF;stroke-width:0.5;opacity:1.0;" x1="776" x2="776" y1="1919" y2="1933"/>
  <g transform="matrix(1 0 0 1 776 1933)">
   <path d="M3.31055 0.15625Q3.70117 0.15625 3.91602-0.00976562Q4.13086-0.175781 4.26758-0.585938L5.52734-4.0332L11.2891-4.0332L12.5488-0.585938Q12.6855-0.175781 12.9004-0.00976562Q13.1152 0.15625 13.4961 0.15625Q13.8867 0.15625 14.1162-0.0585938Q14.3457-0.273438 14.3457-0.644531Q14.3457-0.869141 14.2383-1.17188L9.6582-13.3691Q9.48242-13.8184 9.17969-14.043Q8.87695-14.2676 8.4082-14.2676Q7.5-14.2676 7.17773-13.3789L2.59766-1.16211Q2.49023-0.859375 2.49023-0.634766Q2.49023-0.263672 2.70996-0.0537109Q2.92969 0.15625 3.31055 0.15625ZM6.00586-5.51758L8.37891-12.0898L8.42773-12.0898L10.8008-5.51758Z"/>
  </g>
  <line style="fill:none;stroke:#00AEEF;stroke-width:0.5;opacity:1.0;" x1="793.197" x2="793.197" y1="1919" y2="1933"/>
  <text style="stroke:none;fill:black;font-family:sans-serif;font-size:13;font-weight:bold;" transform="matrix(1 0 0 1 776 1953)">Margins</text>
  <text style="stroke:none;fill:black;font-family:sans-serif;font-size:13;" transform="matrix(1 0 0 1 776 1971)">Leading and trailing margins on the left and right side of each symbol</text>
  <text style="stroke:none;fill:black;font-family:sans-serif;font-size:13;" transform="matrix(1 0 0 1 776 1989)">can be adjusted by modifying the x-location of the margin guidelines.</text>
  <text style="stroke:none;fill:black;font-family:sans-serif;font-size:13;" transform="matrix(1 0 0 1 776 2007)">Modifications are automatically applied proportionally to all</text>
  <text style="stroke:none;fill:black;font-family:sans-serif;font-size:13;" transform="matrix(1 0 0 1 776 2025)">scales and weights.</text>
  <g transform="matrix(1 0 0 1 1289 1933)">
   <path d="M2.8418 1.86523L4.54102 3.57422Q5.18555 4.22852 5.90332 4.17969Q6.62109 4.13086 7.31445 3.35938L18.0078-8.42773L17.041-9.4043L6.42578 2.27539Q6.16211 2.57812 5.89355 2.61719Q5.625 2.65625 5.27344 2.30469L4.10156 1.14258Q3.75 0.791016 3.79395 0.522461Q3.83789 0.253906 4.14062-0.0195312L15.6152-10.8203L14.6387-11.7871L3.04688-0.898438Q2.30469-0.214844 2.25098 0.498047Q2.19727 1.21094 2.8418 1.86523ZM9.25781-16.3281Q8.94531-16.0254 8.90625-15.6348Q8.86719-15.2441 9.04297-14.9512Q9.21875-14.6777 9.55566-14.541Q9.89258-14.4043 10.3809-14.5215Q11.4746-14.7754 12.5977-14.7314Q13.7207-14.6875 14.7949-13.9844L14.209-12.5293Q13.9551-11.9043 14.0674-11.4404Q14.1797-10.9766 14.5801-10.5664L16.875-8.25195Q17.2363-7.88086 17.5781-7.82227Q17.9199-7.76367 18.3398-7.8418L19.4043-8.03711L20.0684-7.36328L20.0293-6.80664Q20-6.43555 20.1221-6.12305Q20.2441-5.81055 20.6055-5.44922L21.3672-4.70703Q21.7285-4.3457 22.1533-4.33105Q22.5781-4.31641 22.9297-4.66797L25.8398-7.58789Q26.1914-7.93945 26.1816-8.35449Q26.1719-8.76953 25.8105-9.13086L25.0391-9.89258Q24.6875-10.2539 24.3799-10.3857Q24.0723-10.5176 23.7109-10.4883L23.1348-10.4395L22.4902-11.0742L22.7344-12.1973Q22.832-12.6172 22.6953-12.9834Q22.5586-13.3496 22.1191-13.7891L19.9219-15.9766Q18.6719-17.2168 17.2607-17.8369Q15.8496-18.457 14.4189-18.4814Q12.9883-18.5059 11.665-17.959Q10.3418-17.4121 9.25781-16.3281ZM10.752-15.957Q11.6602-16.6211 12.7002-16.9043Q13.7402-17.1875 14.8047-17.085Q15.8691-16.9824 16.8701-16.5137Q17.8711-16.0449 18.7012-15.2051L21.1328-12.793Q21.3086-12.6172 21.3525-12.4512Q21.3965-12.2852 21.3379-12.0312L21.0156-10.5469L22.5195-9.0625L23.5059-9.12109Q23.6914-9.13086 23.7891-9.09668Q23.8867-9.0625 24.0332-8.91602L24.6094-8.33984L22.168-5.89844L21.5918-6.47461Q21.4453-6.62109 21.4062-6.71875Q21.3672-6.81641 21.377-7.01172L21.4453-7.98828L19.9512-9.47266L18.4277-9.21875Q18.1836-9.16992 18.042-9.2041Q17.9004-9.23828 17.7148-9.41406L15.7129-11.416Q15.5176-11.5918 15.4932-11.7529Q15.4688-11.9141 15.5859-12.1875L16.4648-14.2773Q15.293-15.3711 13.8281-15.791Q12.3633-16.2109 10.8398-15.7617Q10.7227-15.7324 10.6885-15.8057Q10.6543-15.8789 10.752-15.957Z"/>
  </g>
  <text style="stroke:none;fill:black;font-family:sans-serif;font-size:13;font-weight:bold;" transform="matrix(1 0 0 1 1289 1953)">Exporting</text>
  <text style="stroke:none;fill:black;font-family:sans-serif;font-size:13;" transform="matrix(1 0 0 1 1289 1971)">Symbols should be outlined when exporting to ensure the</text>
  <text style="stroke:none;fill:black;font-family:sans-serif;font-size:13;" transform="matrix(1 0 0 1 1289 1989)">design is preserved when submitting to Xcode.</text>
  <text id="template-version" style="stroke:none;fill:black;font-family:sans-serif;font-size:13;text-anchor:end;" transform="matrix(1 0 0 1 3036 1933)">Template v.2.0</text>
  <text style="stroke:none;fill:black;font-family:sans-serif;font-size:13;text-anchor:end;" transform="matrix(1 0 0 1 3036 1951)">Requires Xcode 12 or greater</text>
  <text id="descriptive-name" style="stroke:none;fill:black;font-family:sans-serif;font-size:13;text-anchor:end;" transform="matrix(1 0 0 1 3036 1969)">Generated from figure.skiing.crosscountry</text>
  <text style="stroke:none;fill:black;font-family:sans-serif;font-size:13;text-anchor:end;" transform="matrix(1 0 0 1 3036 1987)">Typeset at 100 points</text>
  <text style="stroke:none;fill:black;font-family:sans-serif;font-size:13;" transform="matrix(1 0 0 1 263 726)">Small</text>
  <text style="stroke:none;fill:black;font-family:sans-serif;font-size:13;" transform="matrix(1 0 0 1 263 1156)">Medium</text>
  <text style="stroke:none;fill:black;font-family:sans-serif;font-size:13;" transform="matrix(1 0 0 1 263 1586)">Large</text>
 </g>
 <g id="Guides">
  <g id="H-reference" style="fill:#27AAE1;stroke:none;" transform="matrix(1 0 0 1 339 696)">
   <path d="M0.993347 0L3.6377 0L29.3282-67.1326L30.0301-67.1326L30.0301-70.459L28.1227-70.459ZM11.6882-24.4797L46.9818-24.4797L46.2311-26.7288L12.4382-26.7288ZM55.1193 0L57.7637 0L30.6381-70.459L29.4327-70.459L29.4327-67.1326Z"/>
  </g>
  <line id="Baseline-S" style="fill:none;stroke:#27AAE1;opacity:1;stroke-width:0.5;" x1="263" x2="3036" y1="696" y2="696"/>
  <line id="Capline-S" style="fill:none;stroke:#27AAE1;opacity:1;stroke-width:0.5;" x1="263" x2="3036" y1="625.541" y2="625.541"/>
  <g id="H-reference" style="fill:#27AAE1;stroke:none;" transform="matrix(1 0 0 1 339 1126)">
   <path d="M0.993347 0L3.6377 0L29.3282-67.1326L30.0301-67.1326L30.0301-70.459L28.1227-70.459ZM11.6882-24.4797L46.9818-24.4797L46.2311-26.7288L12.4382-26.7288ZM55.1193 0L57.7637 0L30.6381-70.459L29.4327-70.459L29.4327-67.1326Z"/>
  </g>
  <line id="Baseline-M" style="fill:none;stroke:#27AAE1;opacity:1;stroke-width:0.5;" x1="263" x2="3036" y1="1126" y2="1126"/>
  <line id="Capline-M" style="fill:none;stroke:#27AAE1;opacity:1;stroke-width:0.5;" x1="263" x2="3036" y1="1055.54" y2="1055.54"/>
  <g id="H-reference" style="fill:#27AAE1;stroke:none;" transform="matrix(1 0 0 1 339 1556)">
   <path d="M0.993347 0L3.6377 0L29.3282-67.1326L30.0301-67.1326L30.0301-70.459L28.1227-70.459ZM11.6882-24.4797L46.9818-24.4797L46.2311-26.7288L12.4382-26.7288ZM55.1193 0L57.7637 0L30.6381-70.459L29.4327-70.459L29.4327-67.1326Z"/>
  </g>
  <line id="Baseline-L" style="fill:none;stroke:#27AAE1;opacity:1;stroke-width:0.5;" x1="263" x2="3036" y1="1556" y2="1556"/>
  <line id="Capline-L" style="fill:none;stroke:#27AAE1;opacity:1;stroke-width:0.5;" x1="263" x2="3036" y1="1485.54" y2="1485.54"/>
  <line id="left-margin" style="fill:none;stroke:#00AEEF;stroke-width:0.5;opacity:1.0;" x1="1381.35" x2="1381.35" y1="1030.79" y2="1150.12"/>
  <line id="right-margin" style="fill:none;stroke:#00AEEF;stroke-width:0.5;opacity:1.0;" x1="1518.34" x2="1518.34" y1="1030.79" y2="1150.12"/>
 </g>
 <g id="Symbols">
  <g id="Black-L" transform="matrix(1 0 0 1 2838.8 1556)">
   <path d="M133.43-76.5428Q139.834-76.5428 144.366-81.1042Q148.898-85.6657 148.898-92.0513Q148.898-98.4756 144.366-102.997Q139.834-107.519 133.43-107.519Q127.045-107.519 122.483-102.997Q117.922-98.4756 117.922-92.0513Q117.922-85.6657 122.483-81.1042Q127.045-76.5428 133.43-76.5428ZM96.9286 31.6506L112.741 31.6506L112.741-12.4574Q112.741-15.0948 111.165-17.1888L97.0674-36.126L115.019-54.1578Q115.727-54.888 116.406-54.888Q117.085-54.888 117.755-54.1578L135.386-36.3086Q136.503-35.1111 138.04-34.5824Q139.577-34.0537 141.016-34.0537Q144.272-34.0537 146.527-36.3086L166.361-56.1427Q168.698-58.4792 168.698-61.7136Q168.698-65.188 166.362-67.3345Q164.026-69.4809 160.85-69.6308Q157.675-69.7806 155.121-67.226L141.016-53.1212L116.603-77.3733Q114.098-79.8772 111.207-81.2965Q108.316-82.7158 104.133-82.7158L76.0936-82.7158Q72.1951-82.7158 69.3409-79.9212L50.0673-60.728Q47.5115-58.1514 47.6906-54.9865Q47.8696-51.8216 50.0453-49.5149Q52.221-47.2081 55.637-47.2081Q58.8677-47.2081 61.0482-49.6239L78.547-66.9046L89.7734-66.9046Q90.0079-66.9046 89.9274-66.9081Q89.8468-66.9117 89.4603-67.0508L75.2759-52.8653Q70.4928-48.0625 70.4526-41.8893Q70.4124-35.716 75.2759-30.834L96.9286-9.20222ZM65.9758-30.6047L58.2221-20.2039L25.976-20.2039Q22.8597-20.2039 20.494-17.9484Q18.1282-15.6929 18.1282-12.377Q18.1282-9.1218 20.494-6.86569Q22.8597-4.60958 25.976-4.60958L62.135-4.60958Q65.4705-4.60958 68.0483-7.18737L78.2122-17.272L69.9339-25.47Q67.4765-27.9858 65.9758-30.6047ZM157.287 8.91262Q157.287 11.2868 158.958 12.9677Q160.629 14.6487 162.962 14.6487Q165.336 14.6487 167.017 12.9677Q168.698 11.2868 168.698 8.91262L168.698-61.7136L157.287-61.7136ZM21.8852-58.6191Q19.5318-58.6191 17.8509-56.9485Q16.1699-55.2779 16.1699-52.9454Q16.1699-50.5713 17.8509-48.8897Q19.5318-47.2081 21.8852-47.2081L55.637-47.2081L55.637-58.6191ZM153.31 36.98Q158.693 36.98 162.383 35.7507Q166.074 34.5214 169.643 32.8362Q171.973 31.9067 172.736 29.7318Q173.499 27.557 172.766 25.6958Q172.073 23.6177 169.76 22.4532Q167.448 21.2888 164.719 22.7115Q162.008 24.0774 159.62 24.8232Q157.233 25.569 153.31 25.569L37.7085 25.569Q35.472 25.569 33.732 27.1714Q31.992 28.7737 31.992 31.127Q31.992 33.3428 33.6444 35.1614Q35.2968 36.98 37.7085 36.98Z"/>
  </g>
  <g id="Heavy-L" transform="matrix(1 0 0 1 2543.7 1556)">
   <path d="M130.837-76.0143Q137.049-76.0143 141.451-80.439Q145.854-84.8637 145.854-91.0855Q145.854-97.3272 141.451-101.715Q137.049-106.102 130.837-106.102Q124.615-106.102 120.191-101.715Q115.766-97.3272 115.766-91.0855Q115.766-84.8637 120.191-80.439Q124.615-76.0143 130.837-76.0143ZM95.4471 30.531L110.527 30.531L110.527-12.759Q110.527-15.2817 109.029-17.2661L94.9789-36.1431L112.861-54.1052Q113.606-54.8862 114.402-54.8862Q115.198-54.8862 115.929-54.1052L133.348-36.4866Q134.405-35.3487 135.867-34.845Q137.328-34.3414 138.707-34.3414Q141.826-34.3414 143.971-36.4866L163.548-56.0631Q165.779-58.2943 165.779-61.3775Q165.779-64.6964 163.55-66.7445Q161.322-68.7925 158.286-68.9355Q155.25-69.0784 152.819-66.6473L138.707-52.5349L114.422-76.6589Q111.967-79.1082 109.165-80.4774Q106.363-81.8465 102.299-81.8465L74.603-81.8465Q70.8462-81.8465 68.1292-79.1798L49.1044-60.2354Q46.6678-57.7686 46.833-54.7478Q46.9983-51.7271 49.0686-49.521Q51.139-47.3149 54.4133-47.3149Q57.4797-47.3149 59.5725-49.6209L76.9234-66.7719L88.125-66.7719Q88.456-66.7719 88.449-66.6536Q88.442-66.5353 88.0186-66.5134L73.9782-52.4676Q69.3368-47.8016 69.2966-41.8133Q69.2564-35.825 73.9782-31.0843L95.4471-9.6456ZM65.1071-30.8991L57.0954-20.1438L25.1412-20.1438Q22.1528-20.1438 19.8993-17.9959Q17.6458-15.8479 17.6458-12.6786Q17.6458-9.56518 19.8993-7.41439Q22.1528-5.2636 25.1412-5.2636L60.8252-5.2636Q64.0191-5.2636 66.4915-7.73607L76.9046-18.0743L68.9141-25.9844Q66.5477-28.3954 65.1071-30.8991ZM155.492 9.35342Q155.492 11.5047 156.997 13.0219Q158.502 14.5391 160.593 14.5391Q162.745 14.5391 164.262 13.0219Q165.779 11.5047 165.779 9.35342L165.779-61.3775L155.492-61.3775ZM21.5076-57.6013Q19.3864-57.6013 17.8692-56.0992Q16.352-54.5971 16.352-52.5062Q16.352-50.3549 17.8692-48.8349Q19.3864-47.3149 21.5076-47.3149L54.4133-47.3149L54.4133-57.6013ZM150.843 35.5624Q156.085 35.5624 159.669 34.3764Q163.253 33.1904 166.772 31.5185Q168.852 30.68 169.551 28.7213Q170.251 26.7627 169.576 25.0747Q168.957 23.1924 166.878 22.1553Q164.8 21.1183 162.335 22.3954Q159.643 23.7569 157.218 24.5164Q154.794 25.276 150.843 25.276L36.7198 25.276Q34.6879 25.276 33.1233 26.7212Q31.5587 28.1664 31.5587 30.2875Q31.5587 32.2893 33.0564 33.9259Q34.554 35.5624 36.7198 35.5624Z"/>
  </g>
  <g id="Bold-L" transform="matrix(1 0 0 1 2249.06 1556)">
   <path d="M127.618-75.2867Q133.599-75.2867 137.84-79.5422Q142.081-83.7978 142.081-89.8124Q142.081-95.8312 137.84-100.053Q133.599-104.275 127.618-104.275Q121.603-104.275 117.348-100.053Q113.092-95.8312 113.092-89.8124Q113.092-83.7978 117.348-79.5422Q121.603-75.2867 127.618-75.2867ZM93.5435 29.118L107.762 29.118L107.762-13.1206Q107.762-15.5122 106.355-17.3659L92.4045-36.1139L110.149-53.9392Q110.933-54.7744 111.857-54.7744Q112.78-54.7744 113.573-53.9392L130.701-36.6348Q131.689-35.5663 133.062-35.0934Q134.434-34.6205 135.744-34.6205Q138.702-34.6205 140.716-36.6348L159.94-55.859Q162.048-57.967 162.048-60.8731Q162.048-64.0074 159.947-65.94Q157.845-67.8726 154.975-68.0078Q152.104-68.143 149.819-65.8581L135.744-51.7826L111.68-75.6858Q109.287-78.066 106.592-79.3737Q103.898-80.6813 99.9801-80.6813L72.7588-80.6813Q69.1712-80.6813 66.6158-78.1684L47.9283-59.5612Q45.6302-57.2252 45.78-54.3738Q45.9299-51.5224 47.8771-49.4355Q49.8243-47.3486 52.9293-47.3486Q55.7959-47.3486 57.796-49.524L74.9252-66.4763L86.0587-66.4763Q86.4977-66.4763 86.5717-66.2231Q86.6456-65.9698 86.1836-65.7704L72.3499-51.9236Q67.8777-47.4267 67.8375-41.6614Q67.7973-35.8962 72.3499-31.3321L93.5435-10.1764ZM64.0015-31.2231L55.7119-20.082L24.186-20.082Q21.3514-20.082 19.2288-18.061Q17.1061-16.04 17.1061-13.0402Q17.1061-10.096 19.2288-8.06835Q21.3514-6.04072 24.186-6.04072L59.2262-6.04072Q62.2508-6.04072 64.6001-8.39003L75.2759-18.9985L67.6314-26.5626Q65.3803-28.8429 64.0015-31.2231ZM153.175 9.71268Q153.175 11.5799 154.472 12.8898Q155.77 14.1997 157.561 14.1997Q159.428 14.1997 160.738 12.8898Q162.048 11.5799 162.048 9.71268L162.048-60.8731L153.175-60.8731ZM21.0985-56.2218Q19.2692-56.2218 17.9593-54.931Q16.6494-53.6402 16.6494-51.8489Q16.6494-49.9817 17.9593-48.6652Q19.2692-47.3486 21.0985-47.3486L52.9293-47.3486L52.9293-56.2218ZM147.665 33.7358Q152.724 33.7358 156.169 32.6036Q159.615 31.4714 163.065 29.8223Q164.83 29.099 165.449 27.4129Q166.068 25.7269 165.47 24.2542Q164.935 22.6176 163.153 21.7418Q161.37 20.866 159.243 21.9588Q156.573 23.3126 154.106 24.0876Q151.64 24.8626 147.665 24.8626L35.5576 24.8626Q33.7866 24.8626 32.441 26.112Q31.0953 27.3613 31.0953 29.1904Q31.0953 30.9235 32.3972 32.3297Q33.699 33.7358 35.5576 33.7358Z"/>
  </g>
  <g id="Semibold-L" transform="matrix(1 0 0 1 1953.78 1556)">
   <path d="M125.398-74.785Q131.22-74.785 135.35-78.924Q139.48-83.063 139.48-88.9347Q139.48-94.7998 135.35-98.9079Q131.22-103.016 125.398-103.016Q119.527-103.016 115.388-98.9079Q111.249-94.7998 111.249-88.9347Q111.249-83.063 115.388-78.924Q119.527-74.785 125.398-74.785ZM92.2313 28.1439L105.855 28.1439L105.855-13.3699Q105.855-15.6712 104.513-17.4347L90.6296-36.0939L108.28-53.8248Q109.091-54.6973 110.102-54.6973Q111.113-54.6973 111.949-53.8248L128.876-36.737Q129.816-35.7163 131.128-35.2646Q132.44-34.8129 133.702-34.8129Q136.548-34.8129 138.472-36.737L157.453-55.7182Q159.476-57.7414 159.476-60.5254Q159.476-63.5323 157.462-65.3853Q155.448-67.2383 152.692-67.3683Q149.936-67.4982 147.751-65.3139L133.702-51.264L109.79-75.0149Q107.439-77.3475 104.819-78.6128Q102.199-79.8781 98.3813-79.8781L71.4874-79.8781Q68.0165-79.8781 65.5724-77.4712L47.1175-59.0964Q44.9149-56.8506 45.0541-54.1159Q45.1933-51.3813 47.0556-49.3766Q48.9179-47.3719 51.9063-47.3719Q54.6351-47.3719 56.5713-49.4571L73.5477-66.2725L84.6343-66.2725Q85.1477-66.2725 85.2775-65.9262Q85.4072-65.58 84.9187-65.2582L71.2274-51.5486Q66.8719-47.1682 66.8317-41.5567Q66.7914-35.9452 71.2274-31.503L92.2313-10.5423ZM63.2393-31.4465L54.7581-20.0393L23.5274-20.0393Q20.7989-20.0393 18.7665-18.1059Q16.734-16.1725 16.734-13.2894Q16.734-10.4619 18.7665-8.51919Q20.7989-6.57647 23.5274-6.57647L58.1239-6.57647Q61.0318-6.57647 63.2962-8.84087L74.1531-19.6357L66.7471-26.9612Q64.5755-29.1515 63.2393-31.4465ZM151.577 9.96036Q151.577 11.6317 152.732 12.7987Q153.886 13.9657 155.471 13.9657Q157.142 13.9657 158.309 12.7987Q159.476 11.6317 159.476 9.96036L159.476-60.5254L151.577-60.5254ZM20.8166-55.2709Q19.1884-55.2709 18.0214-54.1257Q16.8545-52.9804 16.8545-51.3958Q16.8545-49.7245 18.0214-48.5482Q19.1884-47.3719 20.8166-47.3719L51.9063-47.3719L51.9063-55.2709ZM145.475 32.4766Q150.406 32.4766 153.757 31.3814Q157.107 30.2863 160.51 28.653Q162.058 28.009 162.621 26.5109Q163.184 25.0128 162.64 23.6885Q162.163 22.2214 160.584 21.4567Q159.006 20.692 157.111 21.6578Q154.457 23.0064 151.961 23.792Q149.465 24.5776 145.475 24.5776L34.7563 24.5776Q33.1653 24.5776 31.9706 25.6919Q30.7759 26.8063 30.7759 28.4341Q30.7759 29.9819 31.9428 31.2292Q33.1096 32.4766 34.7563 32.4766Z"/>
  </g>
  <g id="Medium-L" transform="matrix(1 0 0 1 1658.16 1556)">
   <path d="M123.716-74.4047Q129.417-74.4047 133.462-78.4553Q137.508-82.5059 137.508-88.2692Q137.508-94.0177 133.462-98.0394Q129.417-102.061 123.716-102.061Q117.953-102.061 113.902-98.0394Q109.851-94.0177 109.851-88.2692Q109.851-82.5059 113.902-78.4553Q117.953-74.4047 123.716-74.4047ZM91.2363 27.4053L104.41 27.4053L104.41-13.5589Q104.41-15.7917 103.115-17.4869L89.2839-36.0786L106.863-53.7381Q107.694-54.6388 108.772-54.6388Q109.85-54.6388 110.717-53.7381L127.492-36.8144Q128.396-35.83 129.662-35.3944Q130.927-34.9587 132.153-34.9587Q134.914-34.9587 136.77-36.8144L155.567-55.6115Q157.526-57.5703 157.526-60.2617Q157.526-63.1721 155.578-64.9648Q153.631-66.7575 150.961-66.8833Q148.291-67.0092 146.183-64.9014L132.153-50.8708L108.357-74.5062Q106.038-76.8028 103.474-78.0359Q100.91-79.269 97.1691-79.269L70.5234-79.269Q67.141-79.269 64.7814-76.9426L46.5027-58.744Q44.3726-56.5666 44.5037-53.9204Q44.6349-51.2743 46.4328-49.3319Q48.2307-47.3895 51.1306-47.3895Q53.7549-47.3895 55.6426-49.4064L72.5032-66.1179L83.5543-66.1179Q84.124-66.1179 84.2961-65.7011Q84.4682-65.2844 83.9595-64.8698L70.3762-51.2643Q66.1092-46.9723 66.069-41.4773Q66.0287-35.9824 70.3762-31.6326L91.2363-10.8198ZM62.6614-31.6159L54.0349-20.007L23.0281-20.007Q20.38-20.007 18.416-18.14Q16.4519-16.2729 16.4519-13.4784Q16.4519-10.7394 18.416-8.86103Q20.38-6.98269 23.0281-6.98269L57.288-6.98269Q60.1075-6.98269 62.3076-9.18271L73.3018-20.1188L66.0766-27.2635Q63.9652-29.3854 62.6614-31.6159ZM150.366 10.1482Q150.366 11.671 151.412 12.7296Q152.458 13.7882 153.886 13.7882Q155.409 13.7882 156.467 12.7296Q157.526 11.671 157.526 10.1482L157.526-60.2617L150.366-60.2617ZM20.6028-54.5498Q19.1271-54.5498 18.0685-53.515Q17.0099-52.4802 17.0099-51.0522Q17.0099-49.5294 18.0685-48.4595Q19.1271-47.3895 20.6028-47.3895L51.1306-47.3895L51.1306-54.5498ZM143.814 31.5218Q148.649 31.5218 151.927 30.4547Q155.205 29.3877 158.572 27.7664Q159.955 27.1826 160.477 25.827Q160.998 24.4714 160.493 23.2596Q160.061 21.9209 158.637 21.2405Q157.213 20.5601 155.495 21.4296Q152.853 22.7741 150.335 23.5678Q147.816 24.3615 143.814 24.3615L34.1488 24.3615Q32.6942 24.3615 31.614 25.3735Q30.5337 26.3854 30.5337 27.8607Q30.5337 29.268 31.5982 30.3949Q32.6627 31.5218 34.1488 31.5218Z"/>
  </g>
  <g id="Regular-L" transform="matrix(1 0 0 1 1362.86 1556)">
   <path d="M121.52-73.9086Q127.064-73.9086 131-77.8439Q134.935-81.7792 134.935-87.4012Q134.935-92.9977 131-96.9067Q127.064-100.816 121.52-100.816Q115.899-100.816 111.963-96.9067Q108.028-92.9977 108.028-87.4012Q108.028-81.7792 111.963-77.8439Q115.899-73.9086 121.52-73.9086ZM89.9384 26.4419L102.524 26.4419L102.524-13.8054Q102.524-15.9488 101.293-17.5549L87.5286-36.0588L105.014-53.625Q105.872-54.5626 107.036-54.5626Q108.201-54.5626 109.111-53.625L125.687-36.9155Q126.544-35.9783 127.749-35.5637Q128.954-35.149 130.133-35.149Q132.784-35.149 134.551-36.9155L153.108-55.4723Q154.982-57.3471 154.982-59.9178Q154.982-62.7023 153.121-64.4163Q151.26-66.1302 148.703-66.2508Q146.146-66.3715 144.138-64.3633L130.133-50.3579L106.487-73.8427Q104.21-76.0922 101.72-77.2834Q99.2291-78.4746 95.5879-78.4746L69.266-78.4746Q65.999-78.4746 63.7495-76.253L45.7008-58.2843Q43.6652-56.1961 43.7858-53.6654Q43.9064-51.1347 45.6204-49.2736Q47.3343-47.4125 50.1188-47.4125Q52.6068-47.4125 54.4313-49.3403L71.1408-65.9164L82.1455-65.9164Q82.7888-65.9164 83.0161-65.4076Q83.2435-64.8988 82.7084-64.3633L69.266-50.8934Q65.1143-46.7166 65.0741-41.3738Q65.0339-36.0309 69.266-31.8016L89.9384-11.1817ZM61.9076-31.8368L53.0916-19.9648L22.3768-19.9648Q19.8336-19.9648 17.9588-18.1844Q16.084-16.4039 16.084-13.725Q16.084-11.1013 17.9588-9.30691Q19.8336-7.51255 22.3768-7.51255L56.1978-7.51255Q58.9019-7.51255 61.018-9.62859L72.1913-20.7489L65.2021-27.6577Q63.1692-29.6906 61.9076-31.8368ZM148.786 10.3931Q148.786 11.7223 149.69 12.6395Q150.595 13.5568 151.819 13.5568Q153.148 13.5568 154.065 12.6395Q154.982 11.7223 154.982 10.3931L154.982-59.9178L148.786-59.9178ZM20.3239-53.6092Q19.0472-53.6092 18.13-52.7185Q17.2127-51.8277 17.2127-50.6041Q17.2127-49.2749 18.13-48.3437Q19.0472-47.4125 20.3239-47.4125L50.1188-47.4125L50.1188-53.6092ZM141.648 30.2763Q146.357 30.2763 149.541 29.246Q152.725 28.2156 156.045 26.6099Q157.213 26.1046 157.68 24.9349Q158.146 23.7652 157.694 22.7001Q157.319 21.529 156.096 20.9586Q154.874 20.3881 153.386 21.132Q150.76 22.4712 148.213 23.2754Q145.666 24.0796 141.648 24.0796L33.3564 24.0796Q32.0797 24.0796 31.1488 24.9581Q30.2178 25.8365 30.2178 27.1127Q30.2178 28.3367 31.1488 29.3065Q32.0797 30.2763 33.3564 30.2763Z"/>
  </g>
  <g id="Light-L" transform="matrix(1 0 0 1 1068.09 1556)">
   <path d="M119.249-72.9354Q124.679-72.9354 128.5-76.756Q132.321-80.5767 132.321-86.0272Q132.321-91.49 128.5-95.294Q124.679-99.098 119.249-99.098Q113.8-99.098 109.979-95.294Q106.157-91.49 106.157-86.0272Q106.157-80.5767 109.979-76.756Q113.8-72.9354 119.249-72.9354ZM88.1825 25.2968L100.463 25.2968L100.463-13.9773Q100.463-16.1015 99.2696-17.6505L85.83-35.7153L102.896-52.8615Q103.734-53.7802 104.87-53.7802Q106.006-53.7802 106.878-52.8615L123.073-36.5528Q123.91-35.6349 125.087-35.2393Q126.263-34.8438 127.422-34.8438Q130.017-34.8438 131.726-36.5528L149.825-54.6518Q151.662-56.4884 151.662-59.0017Q151.662-61.7099 149.848-63.3857Q148.035-65.0615 145.545-65.1821Q143.054-65.3027 141.103-63.3516L127.422-49.6707L104.33-72.6021Q102.092-74.7945 99.6583-75.9475Q97.225-77.1006 93.6793-77.1006L68.0065-77.1006Q64.8157-77.1006 62.6233-74.9553L44.9947-57.4063Q42.9972-55.3755 43.1179-52.9021Q43.2385-50.4286 44.9143-48.6152Q46.5901-46.8017 49.2983-46.8017Q51.6718-46.8017 53.5345-48.6724L69.8431-64.8665L80.5614-64.8665Q81.2048-64.8665 81.4225-64.3674Q81.6402-63.8682 81.1244-63.3516L68.0065-50.1873Q63.9311-46.125 63.8909-40.8966Q63.8507-35.6682 68.0065-31.5726L88.1825-11.4299ZM60.9534-31.7986L52.2137-20.003L22.2242-20.003Q19.7572-20.003 17.9206-18.2703Q16.084-16.5377 16.084-13.8968Q16.084-11.3495 17.9206-9.59326Q19.7572-7.83705 22.2242-7.83705L55.2435-7.83705Q57.8713-7.83705 59.9492-9.91494L71.0081-20.9397L64.1904-27.6769Q62.2531-29.6142 60.9534-31.7986ZM146.572 9.43884Q146.572 10.5198 147.323 11.2654Q148.075 12.0109 149.09 12.0109Q150.171 12.0109 150.916 11.2654Q151.662 10.5198 151.662 9.43884L151.662-59.0017L146.572-59.0017ZM20.4194-51.8915Q19.3717-51.8915 18.6262-51.163Q17.8806-50.4345 17.8806-49.4209Q17.8806-48.3399 18.6262-47.5708Q19.3717-46.8017 20.4194-46.8017L49.2983-46.8017L49.2983-51.8915ZM138.67 28.5586Q143.189 28.5586 146.239 27.5664Q149.29 26.5742 152.514 25.0259Q153.434 24.6158 153.834 23.6656Q154.234 22.7154 153.858 21.8032Q153.502 20.8229 152.518 20.386Q151.534 19.9491 150.352 20.5404Q147.745 21.8604 145.188 22.6646Q142.631 23.4688 138.67 23.4688L32.9556 23.4688Q31.9079 23.4688 31.1392 24.2042Q30.3704 24.9396 30.3704 25.9865Q30.3704 27.0009 31.1392 27.7797Q31.9079 28.5586 32.9556 28.5586Z"/>
  </g>
  <g id="Thin-L" transform="matrix(1 0 0 1 773.94 1556)">
   <path d="M116.245-71.6483Q121.523-71.6483 125.193-75.3173Q128.863-78.9864 128.863-84.21Q128.863-89.4959 125.193-93.161Q121.523-96.8261 116.245-96.8261Q111.023-96.8261 107.353-93.161Q103.684-89.4959 103.684-84.21Q103.684-78.9864 107.353-75.3173Q111.023-71.6483 116.245-71.6483ZM85.8602 23.7824L97.7368 23.7824L97.7368-14.2046Q97.7368-16.3033 96.594-17.7769L83.5836-35.2611L100.094-51.8517Q100.907-52.7454 102.005-52.7454Q103.103-52.7454 103.924-51.8517L119.615-36.0732Q120.427-35.1807 121.565-34.8104Q122.704-34.44 123.838-34.44Q126.357-34.44 127.99-36.0732L145.484-53.5665Q147.27-55.3527 147.27-57.79Q147.27-60.3973 145.519-62.0226Q143.769-63.648 141.367-63.7686Q138.965-63.8892 137.09-62.0136L123.838-48.7619L101.478-70.9613Q99.2896-73.0782 96.932-74.1808Q94.5745-75.2834 91.1551-75.2834L66.3406-75.2834Q63.2508-75.2834 61.1339-73.239L44.0608-56.2451Q42.1138-54.2903 42.2345-51.8925Q42.3551-49.4948 43.9804-47.7443Q45.6057-45.9938 48.213-45.9938Q50.4351-45.9938 52.3483-47.789L68.1268-63.478L78.4664-63.478Q79.1098-63.478 79.3147-62.9916Q79.5197-62.5052 79.0294-62.0136L66.3406-49.2535Q62.3662-45.3426 62.326-40.2656Q62.2858-35.1886 66.3406-31.2698L85.8602-11.7581ZM59.6913-31.7481L51.0525-20.0534L22.0223-20.0534Q19.6563-20.0534 17.8701-18.384Q16.084-16.7145 16.084-14.1241Q16.084-11.6777 17.8701-9.97197Q19.6563-8.26624 22.0223-8.26624L53.9814-8.26624Q56.5083-8.26624 58.5357-10.2937L69.4432-21.192L62.8524-27.7024Q61.0415-29.5133 59.6913-31.7481ZM143.644 8.17674Q143.644 8.92947 144.193 9.44791Q144.743 9.96636 145.48 9.96636Q146.233 9.96636 146.751 9.44791Q147.27 8.92947 147.27 8.17674L147.27-57.79L143.644-57.79ZM20.5458-49.6196Q19.8009-49.6196 19.2825-49.1057Q18.764-48.5918 18.764-47.856Q18.764-47.1033 19.2825-46.5485Q19.8009-45.9938 20.5458-45.9938L48.213-45.9938L48.213-49.6196ZM134.733 26.2867Q138.999 26.2867 141.872 25.345Q144.746 24.4032 147.845 22.9309Q148.437 22.6467 148.748 21.9868Q149.059 21.3269 148.784 20.617Q148.453 19.8891 147.785 19.6288Q147.117 19.3686 146.338 19.7579Q143.757 21.0525 141.187 21.8567Q138.618 22.6609 134.733 22.6609L32.4254 22.6609Q31.6806 22.6609 31.1264 23.2072Q30.5723 23.7534 30.5723 24.4971Q30.5723 25.2341 31.1264 25.7604Q31.6806 26.2867 32.4254 26.2867Z"/>
  </g>
  <g id="Ultralight-L" transform="matrix(1 0 0 1 478.541 1556)">
   <path d="M114.707-70.989Q119.907-70.989 123.499-74.5804Q127.092-78.1718 127.092-83.2792Q127.092-88.4745 123.499-92.0685Q119.907-95.6625 114.707-95.6625Q109.601-95.6625 106.009-92.0685Q102.417-88.4745 102.417-83.2792Q102.417-78.1718 106.009-74.5804Q109.601-70.989 114.707-70.989ZM84.6707 23.0067L96.3405 23.0067L96.3405-14.321Q96.3405-16.4067 95.2236-17.8416L82.433-35.0285L98.6586-51.3345Q99.4591-52.2154 100.538-52.2154Q101.616-52.2154 102.412-51.3345L117.843-35.8275Q118.642-34.9481 119.762-34.5907Q120.881-34.2332 122.002-34.2332Q124.482-34.2332 126.077-35.8275L143.26-53.0106Q145.02-54.771 145.02-57.1694Q145.02-59.725 143.302-61.3245Q141.584-62.924 139.227-63.0446Q136.871-63.1652 135.034-61.3282L122.002-48.2964L100.017-70.1209Q97.8544-72.1991 95.5356-73.2758Q93.2168-74.3526 89.8622-74.3526L65.4874-74.3526Q62.4493-74.3526 60.3711-72.3599L43.5825-55.6504Q41.6614-53.7344 41.782-51.3754Q41.9026-49.0164 43.5021-47.2982Q45.1016-45.58 47.6572-45.58Q49.8017-45.58 51.7407-47.3366L67.2477-62.7669L77.3934-62.7669Q78.0367-62.7669 78.2352-62.2869Q78.4336-61.807 77.9563-61.3282L65.4874-48.7752Q61.5647-44.9418 61.5245-39.9424Q61.4843-34.9429 65.4874-31.1147L84.6707-11.9263ZM59.0448-31.7223L50.4577-20.0793L21.9189-20.0793Q19.6046-20.0793 17.8443-18.4422Q16.084-16.8051 16.084-14.2406Q16.084-11.8458 17.8443-10.166Q19.6046-8.48606 21.9189-8.48606L53.335-8.48606Q55.8102-8.48606 57.8117-10.4876L68.6416-21.3213L62.1671-27.7154Q60.4209-29.4616 59.0448-31.7223ZM142.144 7.53029Q142.144 8.1149 142.59 8.51703Q143.036 8.91915 143.631 8.91915Q144.216 8.91915 144.618 8.51703Q145.02 8.1149 145.02 7.53029L145.02-57.1694L142.144-57.1694ZM20.6105-48.456Q20.0208-48.456 19.6186-48.052Q19.2165-47.648 19.2165-47.0545Q19.2165-46.4698 19.6186-46.0249Q20.0208-45.58 20.6105-45.58L47.6572-45.58L47.6572-48.456ZM132.716 25.1231Q136.853 25.1231 139.636 24.2072Q142.419 23.2913 145.453 21.8578Q145.877 21.6382 146.143 21.1269Q146.409 20.6157 146.186 20.0095Q145.868 19.4108 145.361 19.241Q144.854 19.0712 144.282 19.3571Q141.714 20.6387 139.138 21.4429Q136.562 22.2471 132.716 22.2471L32.1539 22.2471Q31.5641 22.2471 31.1199 22.6965Q30.6757 23.1459 30.6757 23.7342Q30.6757 24.3292 31.1199 24.7261Q31.5641 25.1231 32.1539 25.1231Z"/>
  </g>
  <g id="Black-M" transform="matrix(1 0 0 1 2858.98 1126)">
   <path d="M105.295-67.5589Q110.405-67.5589 114.013-71.1949Q117.62-74.831 117.62-79.8956Q117.62-85.0116 114.013-88.6163Q110.405-92.221 105.295-92.221Q100.23-92.221 96.5943-88.6163Q92.9583-85.0116 92.9583-79.8956Q92.9583-74.831 96.5943-71.1949Q100.23-67.5589 105.295-67.5589ZM76.1299 17.3924L88.9685 17.3924L88.9685-17.351Q88.9685-19.4903 87.6855-21.1992L76.767-35.8629L90.6776-49.8358Q91.1919-50.3554 91.6131-50.3554Q92.0342-50.3554 92.4969-49.8358L106.287-35.8634Q107.201-34.8871 108.453-34.4585Q109.705-34.0299 110.868-34.0299Q113.501-34.0299 115.334-35.8634L130.86-51.3891Q132.756-53.2846 132.756-55.9125Q132.756-58.7276 130.86-60.47Q128.964-62.2124 126.393-62.3344Q123.822-62.4564 121.745-60.3788L110.868-49.5018L91.919-68.326Q89.9403-70.305 87.6317-71.4425Q85.3231-72.5801 81.9937-72.5801L60.0634-72.5801Q56.9316-72.5801 54.6101-70.3154L39.5211-55.2887Q37.4438-53.206 37.5944-50.6378Q37.7449-48.0696 39.5159-46.2025Q41.2868-44.3353 44.0448-44.3353Q46.6735-44.3353 48.4433-46.2935L62.0732-59.7413L70.7534-59.7413Q70.8521-59.7413 70.7252-59.8501Q70.5982-59.9588 70.3331-60.2075L59.2641-49.1388Q55.4469-45.3159 55.4158-40.3897Q55.3846-35.4635 59.2641-31.578L76.1299-14.7176ZM51.7315-31.3883L45.9564-23.6454L20.8215-23.6454Q18.3075-23.6454 16.3834-21.812Q14.4593-19.9786 14.4593-17.2887Q14.4593-14.6553 16.3834-12.8221Q18.3075-10.9888 20.8215-10.9888L49.1349-10.9888Q51.8306-10.9888 53.9131-13.0713L61.5578-20.6535L54.9201-27.2288Q52.951-29.2551 51.7315-31.3883ZM123.099-1.53887Q123.099 0.458361 124.516 1.87819Q125.933 3.29803 127.919 3.29803Q129.916 3.29803 131.336 1.87819Q132.756 0.458361 132.756-1.53887L132.756-55.9125L123.099-55.9125ZM17.2929-53.9924Q15.3011-53.9924 13.8813-52.5753Q12.4614-51.1582 12.4614-49.1719Q12.4614-47.1747 13.8813-45.755Q15.3011-44.3353 17.2929-44.3353L44.0448-44.3353L44.0448-53.9924ZM120.493 21.6997Q124.758 21.6997 127.691 20.7153Q130.624 19.7309 133.418 18.4216Q135.405 17.6363 136.042 15.7953Q136.679 13.9542 136.07 12.3841Q135.473 10.6317 133.512 9.63818Q131.552 8.64463 129.253 9.85132Q127.139 10.9108 125.319 11.4767Q123.5 12.0427 120.493 12.0427L30.0098 12.0427Q28.1322 12.0427 26.6554 13.3998Q25.1787 14.7569 25.1787 16.7486Q25.1787 18.6207 26.5698 20.1602Q27.9609 21.6997 30.0098 21.6997Z"/>
  </g>
  <g id="Heavy-M" transform="matrix(1 0 0 1 2563.67 1126)">
   <path d="M102.97-67.1321Q107.903-67.1321 111.394-70.645Q114.885-74.1578 114.885-79.0782Q114.885-84.0281 111.394-87.5109Q107.903-90.9938 102.97-90.9938Q98.0492-90.9938 94.5363-87.5109Q91.0234-84.0281 91.0234-79.0782Q91.0234-74.1578 94.5363-70.645Q98.0492-67.1321 102.97-67.1321ZM74.8437 16.4036L86.9945 16.4036L86.9945-17.63Q86.9945-19.659 85.7841-21.2659L74.882-35.9113L88.7633-49.8548Q89.3155-50.4257 89.8541-50.4257Q90.3927-50.4257 90.9177-49.8548L104.536-36.0709Q105.393-35.151 106.574-34.7452Q107.754-34.3393 108.861-34.3393Q111.365-34.3393 113.097-36.0709L128.413-51.387Q130.209-53.1831 130.209-55.6685Q130.209-58.3386 128.414-59.9883Q126.619-61.638 124.178-61.7533Q121.737-61.8685 119.775-59.9064L108.861-48.992L89.9862-67.7421Q88.053-69.673 85.8262-70.765Q83.5993-71.857 80.377-71.857L58.7224-71.857Q55.7221-71.857 53.5294-69.7103L38.645-54.8881Q36.6806-52.9074 36.8177-50.4749Q36.9548-48.0424 38.6263-46.2692Q40.2978-44.496 42.9243-44.496Q45.4029-44.496 47.0835-46.3522L60.6057-59.7085L69.288-59.7085Q69.4811-59.7085 69.4269-59.6972Q69.3728-59.686 69.0698-59.7756L58.1117-48.8152Q54.426-45.1154 54.3949-40.3595Q54.3637-35.6036 58.1117-31.8438L74.8437-15.1282ZM50.9703-31.6796L44.936-23.5831L20.0195-23.5831Q17.6236-23.5831 15.8056-21.8504Q13.9877-20.1178 13.9877-17.5677Q13.9877-15.0659 15.8056-13.3321Q17.6236-11.5983 20.0195-11.5983L47.9426-11.5983Q50.5067-11.5983 52.4898-13.5813L60.3887-21.4201L54.0165-27.73Q52.1275-29.6626 50.9703-31.6796ZM121.549-1.01993Q121.549 0.782359 122.817 2.05791Q124.086 3.33347 125.855 3.33347Q127.658 3.33347 128.933 2.05791Q130.209 0.782359 130.209-1.01993L130.209-55.6685L121.549-55.6685ZM16.9149-53.1559Q15.129-53.1559 13.8534-51.8885Q12.5779-50.6212 12.5779-48.8517Q12.5779-47.0494 13.8534-45.7727Q15.129-44.496 16.9149-44.496L42.9243-44.496L42.9243-53.1559ZM118.355 20.4725Q122.501 20.4725 125.342 19.5268Q128.183 18.5812 130.938 17.2797Q132.702 16.5745 133.283 14.9245Q133.864 13.2746 133.306 11.8597Q132.779 10.2811 131.025 9.39978Q129.272 8.51845 127.202 9.59689Q125.105 10.6538 123.25 11.2332Q121.395 11.8126 118.355 11.8126L29.0802 11.8126Q27.3816 11.8126 26.0613 13.0293Q24.741 14.246 24.741 16.0318Q24.741 17.7141 25.9958 19.0933Q27.2507 20.4725 29.0802 20.4725Z"/>
  </g>
  <g id="Bold-M" transform="matrix(1 0 0 1 2268.52 1126)">
   <path d="M100.368-66.6546Q105.104-66.6546 108.464-70.0297Q111.825-73.4048 111.825-78.1639Q111.825-82.9278 108.464-86.2744Q105.104-89.6209 100.368-89.6209Q95.6092-89.6209 92.2341-86.2744Q88.8589-82.9278 88.8589-78.1639Q88.8589-73.4048 92.2341-70.0297Q95.6092-66.6546 100.368-66.6546ZM73.4048 15.2974L84.7864 15.2974L84.7864-17.9422Q84.7864-19.8476 83.657-21.3405L72.7735-35.9653L86.6219-49.8761Q87.2165-50.5044 87.8865-50.5044Q88.5564-50.5044 89.151-49.8761L102.576-36.3029Q103.371-35.4462 104.471-35.0659Q105.572-34.6855 106.616-34.6855Q108.976-34.6855 110.593-36.3029L125.675-51.3846Q127.36-53.0695 127.36-55.3956Q127.36-57.9035 125.677-59.4495Q123.995-60.9955 121.7-61.1032Q119.405-61.2109 117.572-59.378L106.616-48.4217L87.824-67.0889Q85.9418-68.966 83.8064-70.0071Q81.671-71.0482 78.5686-71.0482L57.2222-71.0482Q54.369-71.0482 52.3206-69.0335L37.6649-54.44Q35.8268-52.5734 35.9488-50.2927Q36.0708-48.0119 37.6311-46.3439Q39.1914-44.6758 41.6708-44.6758Q43.9815-44.6758 45.5623-46.4179L58.9642-59.6717L67.6488-59.6717Q67.9474-59.6717 67.9747-59.5263Q68.002-59.3808 67.6567-59.2923L56.8225-48.4531Q53.284-44.8911 53.2528-40.3257Q53.2217-35.7603 56.8225-32.1411L73.4048-15.5874ZM50.1189-32.0055L43.7945-23.5135L19.1224-23.5135Q16.8584-23.5135 15.1593-21.8935Q13.4601-20.2735 13.4601-17.8799Q13.4601-15.5251 15.1593-13.9025Q16.8584-12.28 19.1224-12.28L46.6088-12.28Q49.0258-12.28 50.8976-14.1518L59.0808-22.2778L53.0057-28.2906Q51.2064-30.1184 50.1189-32.0055ZM119.815-0.439416Q119.815 1.1448 120.918 2.25896Q122.02 3.37312 123.547 3.37312Q125.131 3.37312 126.245 2.25896Q127.36 1.1448 127.36-0.439416L127.36-55.3956L119.815-55.3956ZM16.4921-52.2201Q14.9364-52.2201 13.8223-51.1203Q12.7081-50.0205 12.7081-48.4935Q12.7081-46.9093 13.8223-45.7926Q14.9364-44.6758 16.4921-44.6758L41.6708-44.6758L41.6708-52.2201ZM115.965 19.0996Q119.976 19.0996 122.714 18.1974Q125.452 17.2952 128.162 16.0022Q129.679 15.3866 130.197 13.9505Q130.715 12.5143 130.214 11.2731Q129.765 9.8889 128.243 9.1331Q126.721 8.37729 124.908 9.31227Q122.829 10.3663 120.935 10.9608Q119.041 11.5553 115.965 11.5553L28.0404 11.5553Q26.5419 11.5553 25.3966 12.6149Q24.2513 13.6744 24.2513 15.23Q24.2513 16.6999 25.3538 17.8998Q26.4562 19.0996 28.0404 19.0996Z"/>
  </g>
  <g id="Semibold-M" transform="matrix(1 0 0 1 1972.89 1126)">
   <path d="M98.5748-66.3255Q103.174-66.3255 106.445-69.6056Q109.716-72.8857 109.716-77.5335Q109.716-82.1694 106.445-85.4219Q103.174-88.6745 98.5748-88.6745Q93.9271-88.6745 90.6469-85.4219Q87.3668-82.1694 87.3668-77.5335Q87.3668-72.8857 90.6469-69.6056Q93.9271-66.3255 98.5748-66.3255ZM72.4129 14.5348L83.2641 14.5348L83.2641-18.1574Q83.2641-19.9777 82.1906-21.392L71.3198-36.0026L85.1457-49.8907Q85.7695-50.5587 86.53-50.5587Q87.2905-50.5587 87.9331-49.8907L101.225-36.4629Q101.976-35.6497 103.022-35.2869Q104.068-34.9241 105.068-34.9241Q107.328-34.9241 108.867-36.4629L123.787-51.3829Q125.395-52.9911 125.395-55.2074Q125.395-57.6035 123.791-59.078Q122.186-60.5525 119.992-60.6551Q117.797-60.7576 116.053-59.0137L105.068-48.0286L86.3334-66.6385Q84.4863-68.4786 82.414-69.4846Q80.3417-70.4906 77.3219-70.4906L56.188-70.4906Q53.4362-70.4906 51.4872-68.5669L36.9892-54.1311Q35.2383-52.3431 35.3499-50.167Q35.4615-47.991 36.9451-46.3954Q38.4287-44.7998 40.8066-44.7998Q43.0016-44.7998 44.5136-46.4632L57.8325-59.6464L66.5187-59.6464Q66.8901-59.6464 66.9735-59.4084Q67.057-59.1704 66.6825-58.9592L55.9338-48.2035Q52.4967-44.7364 52.4655-40.3024Q52.4344-35.8683 55.9338-32.3461L72.4129-15.904ZM49.5319-32.2302L43.0076-23.4654L18.5039-23.4654Q16.331-23.4654 14.7137-21.9231Q13.0964-20.3808 13.0964-18.0951Q13.0964-15.8417 14.7137-14.2958Q16.331-12.7499 18.5039-12.7499L45.6892-12.7499Q48.0049-12.7499 49.8-14.5451L58.1792-22.869L52.3089-28.6771Q50.5714-30.4327 49.5319-32.2302ZM118.62-0.0392136Q118.62 1.39466 119.608 2.39756Q120.596 3.40045 121.956 3.40045Q123.39 3.40045 124.393 2.39756Q125.395 1.39466 125.395-0.0392136L125.395-55.2074L118.62-55.2074ZM16.2006-51.5751Q14.8037-51.5751 13.8008-50.5907Q12.7979-49.6064 12.7979-48.2466Q12.7979-46.8127 13.8008-45.8062Q14.8037-44.7998 16.2006-44.7998L40.8066-44.7998L40.8066-51.5751ZM114.317 18.1532Q118.236 18.1532 120.903 17.2809Q123.569 16.4086 126.249 15.1215Q127.595 14.5678 128.07 13.279Q128.545 11.9902 128.082 10.8687Q127.687 9.61851 126.325 8.94925Q124.963 8.27998 123.327 9.11606Q121.26 10.1681 119.339 10.773Q117.418 11.3779 114.317 11.3779L27.3235 11.3779Q25.963 11.3779 24.9384 12.3291Q23.9138 13.2804 23.9138 14.6772Q23.9138 16.0008 24.9111 17.077Q25.9085 18.1532 27.3235 18.1532Z"/>
  </g>
  <g id="Medium-M" transform="matrix(1 0 0 1 1677 1126)">
   <path d="M97.2149-66.0759Q101.71-66.0759 104.913-69.284Q108.116-72.4921 108.116-77.0555Q108.116-81.5943 104.913-84.7755Q101.71-87.9568 97.2149-87.9568Q92.6517-87.9568 89.4435-84.7755Q86.2353-81.5943 86.2353-77.0555Q86.2353-72.4921 89.4435-69.284Q92.6517-66.0759 97.2149-66.0759ZM71.6607 13.9566L82.1098 13.9566L82.1098-18.3206Q82.1098-20.0763 81.0787-21.431L70.2176-36.0308L84.0263-49.9018Q84.6723-50.5998 85.5014-50.5998Q86.3306-50.5998 87.0097-49.9018L100.201-36.5842Q100.919-35.8041 101.923-35.4546Q102.927-35.1051 103.894-35.1051Q106.08-35.1051 107.559-36.5842L122.356-51.3817Q123.906-52.9317 123.906-55.0647Q123.906-57.3761 122.36-58.7964Q120.815-60.2167 118.696-60.3153Q116.578-60.4139 114.901-58.7374L103.894-47.7305L85.2032-66.2971Q83.3827-68.109 81.3582-69.0884Q79.3337-70.0678 76.3765-70.0678L55.4039-70.0678Q52.729-70.0678 50.8553-68.2131L36.4769-53.8968Q34.792-52.1685 34.8957-50.0718Q34.9994-47.975 36.4249-46.4344Q37.8503-44.8937 40.1514-44.8937Q42.2586-44.8937 43.7185-46.4976L56.9745-59.6272L65.6619-59.6272Q66.0884-59.6272 66.2144-59.319Q66.3405-59.0109 65.9438-58.7066L55.26-48.0142Q51.8997-44.6191 51.8686-40.2847Q51.8374-35.9502 55.26-32.5015L71.6607-16.1441ZM49.0868-32.4005L42.4109-23.429L18.0349-23.429Q15.931-23.429 14.3758-21.9456Q12.8206-20.4622 12.8206-18.2583Q12.8206-16.0818 14.3758-14.594Q15.931-13.1063 18.0349-13.1063L44.992-13.1063Q47.2308-13.1063 48.9678-14.8433L57.4956-23.3173L51.7805-28.9701Q50.0899-30.6709 49.0868-32.4005ZM117.714 0.264237Q117.714 1.58412 118.615 2.50265Q119.516 3.42118 120.749 3.42118Q122.069 3.42118 122.988 2.50265Q123.906 1.58412 123.906 0.264237L123.906-55.0647L117.714-55.0647ZM15.9796-51.0859Q14.7031-51.0859 13.7845-50.1891Q12.866-49.2924 12.866-48.0593Q12.866-46.7395 13.7845-45.8166Q14.7031-44.8937 15.9796-44.8937L40.1514-44.8937L40.1514-51.0859ZM113.067 17.4355Q116.916 17.4355 119.529 16.5859Q122.142 15.7363 124.799 14.4538Q126.015 13.9469 126.457 12.7698Q126.899 11.5928 126.466 10.562Q126.112 9.41349 124.871 8.80984Q123.63 8.2062 122.128 8.96729Q120.07 10.0178 118.129 10.6306Q116.188 11.2433 113.067 11.2433L26.78 11.2433Q25.524 11.2433 24.5909 12.1125Q23.6579 12.9817 23.6579 14.258Q23.6579 15.4706 24.5755 16.4531Q25.4932 17.4355 26.78 17.4355Z"/>
  </g>
  <g id="Regular-M" transform="matrix(1 0 0 1 1381.35 1126)">
   <path d="M95.4413-65.7504Q99.8016-65.7504 102.916-68.8645Q106.03-71.9787 106.03-76.4321Q106.03-80.8441 102.916-83.9324Q99.8016-87.0208 95.4413-87.0208Q90.988-87.0208 87.8738-83.9324Q84.7595-80.8441 84.7595-76.4321Q84.7595-71.9787 87.8738-68.8645Q90.988-65.7504 95.4413-65.7504ZM70.6797 13.2024L80.6043 13.2024L80.6043-18.5334Q80.6043-20.205 79.6285-21.4818L68.7799-36.0677L82.5663-49.9163Q83.2412-50.6535 84.1599-50.6535Q85.0786-50.6535 85.8051-49.9163L98.8651-36.7424Q99.5398-36.0054 100.49-35.6732Q101.44-35.3411 102.364-35.3411Q104.45-35.3411 105.852-36.7424L120.489-51.3801Q121.964-52.8543 121.964-54.8786Q121.964-57.0794 120.495-58.429Q119.026-59.7786 117.007-59.872Q114.987-59.9655 113.399-58.3771L102.364-47.3417L83.729-65.8517Q81.9432-67.627 79.9811-68.5716Q78.019-69.5163 75.1435-69.5163L54.381-69.5163Q51.8064-69.5163 50.0311-67.7516L35.8087-53.5913Q34.2098-51.9408 34.3033-49.9475Q34.3968-47.9543 35.7464-46.4853Q37.096-45.0163 39.2968-45.0163Q41.2895-45.0163 42.6813-46.5424L55.8552-59.6021L64.5442-59.6021Q65.0426-59.6021 65.2242-59.2025Q65.4058-58.8028 64.9803-58.3771L54.381-47.7674Q51.1211-44.4662 51.0899-40.2616Q51.0588-36.057 54.381-32.7042L70.6797-16.4572ZM48.5062-32.6228L41.6326-23.3815L17.4232-23.3815Q15.4094-23.3815 13.9352-21.9749Q12.4609-20.5684 12.4609-18.4711Q12.4609-16.3949 13.9352-14.983Q15.4094-13.5711 17.4232-13.5711L44.0826-13.5711Q46.2211-13.5711 47.8822-15.2322L56.6039-23.9021L51.0913-29.3523Q49.4619-30.9817 48.5062-32.6228ZM116.532 0.660042Q116.532 1.83123 117.32 2.63972Q118.108 3.44821 119.175 3.44821Q120.347 3.44821 121.155 2.63972Q121.964 1.83123 121.964 0.660042L121.964-54.8786L116.532-54.8786ZM15.6913-50.4479Q14.5718-50.4479 13.7633-49.6654Q12.9548-48.8828 12.9548-47.8151Q12.9548-46.6439 13.7633-45.8301Q14.5718-45.0163 15.6913-45.0163L39.2968-45.0163L39.2968-50.4479ZM111.437 16.4995Q115.194 16.4995 117.737 15.6795Q120.28 14.8594 122.907 13.5828Q123.953 13.137 124.353 12.1057Q124.752 11.0744 124.358 10.1621Q124.057 9.14608 122.974 8.62802Q121.891 8.10995 120.564 8.77323Q118.519 9.82177 116.551 10.4448Q114.583 11.0679 111.437 11.0679L26.071 11.0679Q24.9515 11.0679 24.1377 11.8299Q23.324 12.592 23.324 13.7113Q23.324 14.7792 24.1377 15.6393Q24.9515 16.4995 26.071 16.4995Z"/>
  </g>
  <g id="Light-M" transform="matrix(1 0 0 1 1086.38 1126)">
   <path d="M93.405-64.8778Q97.6627-64.8778 100.674-67.8892Q103.686-70.9006 103.686-75.2002Q103.686-79.4924 100.674-82.4865Q97.6627-85.4807 93.405-85.4807Q89.1059-85.4807 86.0943-82.4865Q83.0826-79.4924 83.0826-75.2002Q83.0826-70.9006 86.0943-67.8892Q89.1059-64.8778 93.405-64.8778ZM69.1054 12.1758L78.7563 12.1758L78.7563-18.6875Q78.7563-20.3418 77.8147-21.5675L67.2571-35.7598L80.6669-49.2318Q81.3248-49.952 82.2178-49.952Q83.1107-49.952 83.8031-49.2318L96.5209-36.4172Q97.1784-35.6975 98.1028-35.3824Q99.0271-35.0674 99.9338-35.0674Q101.969-35.0674 103.319-36.4172L117.546-50.6444Q118.986-52.0844 118.986-54.0573Q118.986-56.1896 117.56-57.505Q116.134-58.8204 114.175-58.9139Q112.216-59.0073 110.678-57.4701L99.9338-46.7256L81.7953-64.7395Q80.0438-66.4636 78.133-67.374Q76.2222-68.2844 73.4324-68.2844L53.2518-68.2844Q50.7456-68.2844 49.0215-66.5882L35.1756-52.8042Q33.611-51.2051 33.7045-49.2632Q33.7979-47.3212 35.1133-45.8949Q36.4287-44.4686 38.5611-44.4686Q40.4512-44.4686 41.8772-45.9435L54.6918-58.6609L63.124-58.6609Q63.6225-58.6609 63.7954-58.2699Q63.9684-57.8788 63.5602-57.4701L53.2518-47.1343Q50.0603-43.9358 50.0291-39.8338Q49.9979-35.7319 53.2518-32.4989L69.1054-16.6797ZM47.6507-32.5885L40.8455-23.4158L17.2864-23.4158Q15.341-23.4158 13.9009-22.052Q12.4609-20.6882 12.4609-18.6252Q12.4609-16.6174 13.9009-15.2397Q15.341-13.862 17.2864-13.862L43.227-13.862Q45.2971-13.862 46.924-15.489L55.5431-24.0731L50.1843-29.3696Q48.6406-30.9133 47.6507-32.5885ZM114.547-0.195512Q114.547 0.753166 115.198 1.40771Q115.849 2.06225 116.729 2.06225Q117.677 2.06225 118.332 1.40771Q118.986 0.753166 118.986-0.195512L118.986-54.0573L114.547-54.0573ZM15.777-48.9079Q14.8627-48.9079 14.2082-48.2708Q13.5536-47.6337 13.5536-46.7543Q13.5536-45.8056 14.2082-45.1371Q14.8627-44.4686 15.777-44.4686L38.5611-44.4686L38.5611-48.9079ZM108.768 14.9594Q112.354 14.9594 114.777 14.1736Q117.2 13.3878 119.741 12.1626Q120.565 11.8022 120.905 10.9677Q121.244 10.1332 120.919 9.35799Q120.635 8.51304 119.765 8.11471Q118.896 7.71639 117.843 8.24282Q115.815 9.27412 113.839 9.89716Q111.862 10.5202 108.768 10.5202L25.7116 10.5202Q24.7974 10.5202 24.1291 11.154Q23.4609 11.7879 23.4609 12.7017Q23.4609 13.5815 24.1291 14.2705Q24.7974 14.9594 25.7116 14.9594Z"/>
  </g>
  <g id="Thin-M" transform="matrix(1 0 0 1 791.964 1126)">
   <path d="M90.7119-63.7239Q94.8339-63.7239 97.7098-66.5993Q100.586-69.4748 100.586-73.571Q100.586-77.7046 97.7098-80.5742Q94.8339-83.4439 90.7119-83.4439Q86.6166-83.4439 83.7407-80.5742Q80.8648-77.7046 80.8648-73.571Q80.8648-69.4748 83.7407-66.5993Q86.6166-63.7239 90.7119-63.7239ZM67.0233 10.818L76.3122 10.818L76.3122-18.8913Q76.3122-20.5228 75.4159-21.6808L65.2431-35.3526L78.1547-48.3265Q78.7902-49.0243 79.6492-49.0243Q80.5081-49.0243 81.1552-48.3265L93.4206-35.9872Q94.0553-35.2902 94.9458-34.9978Q95.8363-34.7054 96.7202-34.7054Q98.6881-34.7054 99.9699-35.9872L113.654-49.6714Q115.049-51.0662 115.049-52.971Q115.049-55.0128 113.679-56.283Q112.309-57.5531 110.429-57.6466Q108.549-57.74 107.08-56.2705L96.7202-45.9108L79.238-63.2684Q77.5317-64.9248 75.6888-65.79Q73.8459-66.6552 71.1693-66.6552L51.7583-66.6552Q49.3426-66.6552 47.6862-65.0494L34.3384-51.7631Q32.819-50.2321 32.9125-48.3581Q33.0059-46.484 34.2761-45.1142Q35.5462-43.7443 37.5881-43.7443Q39.3425-43.7443 40.8138-45.1515L53.153-57.4161L61.2457-57.4161Q61.7442-57.4161 61.9057-57.0364Q62.0673-56.6568 61.6819-56.2705L51.7583-46.2971Q48.6572-43.2343 48.6261-39.2681Q48.5949-35.3019 51.7583-32.2274L67.0233-16.974ZM46.5191-32.5433L39.8044-23.461L17.1054-23.461Q15.2505-23.461 13.8557-22.1539Q12.4609-20.8468 12.4609-18.829Q12.4609-16.9117 13.8557-15.5793Q15.2505-14.2468 17.1054-14.2468L42.0955-14.2468Q44.0751-14.2468 45.6567-15.8285L54.14-24.2993L48.9847-29.3924Q47.5543-30.8228 46.5191-32.5433ZM111.922-1.32705Q111.922-0.672664 112.392-0.22173Q112.861 0.229203 113.493 0.229203Q114.147 0.229203 114.598-0.22173Q115.049-0.672664 115.049-1.32705L115.049-52.971L111.922-52.971ZM15.8903-46.871Q15.2475-46.871 14.7966-46.4263Q14.3456-45.9816 14.3456-45.3513Q14.3456-44.6969 14.7966-44.2206Q15.2475-43.7443 15.8903-43.7443L37.5881-43.7443L37.5881-46.871ZM105.237 12.9226Q108.598 12.9226 110.862 12.182Q113.126 11.4415 115.555 10.2843Q116.084 10.0368 116.345 9.46258Q116.605 8.88833 116.37 8.29451Q116.108 7.67579 115.522 7.43583Q114.936 7.19586 114.245 7.54131Q112.24 8.54979 110.252 9.17284Q108.264 9.79589 105.237 9.79589L25.2364 9.79589Q24.5936 9.79589 24.1177 10.2601Q23.6419 10.7244 23.6419 11.3663Q23.6419 11.9975 24.1177 12.46Q24.5936 12.9226 25.2364 12.9226Z"/>
  </g>
  <g id="Ultralight-M" transform="matrix(1 0 0 1 496.429 1126)">
   <path d="M89.3325-63.1328Q93.385-63.1328 96.1913-65.9387Q98.9977-68.7445 98.9977-72.7365Q98.9977-76.7889 96.1913-79.5947Q93.385-82.4006 89.3325-82.4006Q85.3416-82.4006 82.5352-79.5947Q79.7288-76.7889 79.7288-72.7365Q79.7288-68.7445 82.5352-65.9387Q85.3416-63.1328 89.3325-63.1328ZM65.9569 10.1226L75.0604 10.1226L75.0604-18.9957Q75.0604-20.6155 74.1873-21.7388L64.2115-35.144L76.868-47.8628Q77.4921-48.5491 78.3336-48.5491Q79.1751-48.5491 79.799-47.8628L91.8326-35.7669Q92.4556-35.0817 93.3288-34.8009Q94.202-34.52 95.0742-34.52Q97.0075-34.52 98.2544-35.7669L111.66-49.173Q113.032-50.5446 113.032-52.4146Q113.032-54.4101 111.691-55.6571Q110.35-56.904 108.511-56.9975Q106.672-57.0909 105.237-55.6561L95.0742-45.4935L77.9281-62.5149Q76.245-64.1367 74.4368-64.9787Q72.6287-65.8207 70.0102-65.8207L50.9933-65.8207Q48.624-65.8207 47.0022-64.2613L33.9096-51.2299Q32.4134-49.7338 32.5068-47.8945Q32.6003-46.0552 33.8472-44.7142Q35.0942-43.3733 37.0897-43.3733Q38.7746-43.3733 40.269-44.7459L52.3649-56.7785L60.2837-56.7785Q60.7821-56.7785 60.9378-56.4047Q61.0936-56.0309 60.7198-55.6561L50.9933-45.8682Q47.9386-42.875 47.9075-38.9783Q47.8763-35.0816 50.9933-32.0884L65.9569-17.1248ZM45.9396-32.5201L39.2712-23.4842L17.0127-23.4842Q15.2041-23.4842 13.8325-22.2061Q12.4609-20.928 12.4609-18.9334Q12.4609-17.0625 13.8325-15.7532Q15.2041-14.4439 17.0127-14.4439L41.5159-14.4439Q43.4491-14.4439 45.0076-16.0024L53.4214-24.4152L48.3703-29.4041Q46.9979-30.7765 45.9396-32.5201ZM110.578-1.90662Q110.578-1.40297 110.954-1.05632Q111.331-0.709675 111.835-0.709675Q112.339-0.709675 112.685-1.05632Q113.032-1.40297 113.032-1.90662L113.032-52.4146L110.578-52.4146ZM15.9483-45.8278Q15.4446-45.8278 15.0979-45.4816Q14.7513-45.1354 14.7513-44.6327Q14.7513-44.129 15.0979-43.7512Q15.4446-43.3733 15.9483-43.3733L37.0897-43.3733L37.0897-45.8278ZM103.429 11.8793Q106.673 11.8793 108.857 11.1619Q111.04 10.4446 113.41 9.32226Q113.789 9.13262 114.009 8.69168Q114.229 8.25073 114.04 7.7498Q113.79 7.24695 113.349 7.08811Q112.907 6.92926 112.402 7.182Q110.408 8.1788 108.414 8.80185Q106.421 9.42489 103.429 9.42489L24.9929 9.42489Q24.4892 9.42489 24.1119 9.80229Q23.7346 10.1797 23.7346 10.6824Q23.7346 11.1862 24.1119 11.5328Q24.4892 11.8793 24.9929 11.8793Z"/>
  </g>
  <g id="Black-S" transform="matrix(1 0 0 1 2874.76 696)">
   <path d="M83.1055-60.6445Q87.1582-60.6445 90.0146-63.5254Q92.8711-66.4062 92.8711-70.4102Q92.8711-74.4629 90.0146-77.3193Q87.1582-80.1758 83.1055-80.1758Q79.1016-80.1758 76.2207-77.3193Q73.3398-74.4629 73.3398-70.4102Q73.3398-66.4062 76.2207-63.5254Q79.1016-60.6445 83.1055-60.6445ZM59.9609 6.25L70.2148 6.25L70.2148-21.1426Q70.2148-22.8516 69.1895-24.2188L60.6445-35.6934L71.5332-46.6309Q71.9238-47.0215 72.2168-47.0215Q72.5098-47.0215 72.8516-46.6309L83.6914-35.6445Q84.4238-34.8633 85.4248-34.5215Q86.4258-34.1797 87.3535-34.1797Q89.4531-34.1797 90.918-35.6445L103.125-47.8516Q104.639-49.3652 104.639-51.4648Q104.639-53.7109 103.125-55.1025Q101.611-56.4941 99.5605-56.5918Q97.5098-56.6895 95.8496-55.0293L87.3535-46.5332L72.5098-61.2793Q70.9473-62.8418 69.1162-63.7451Q67.2852-64.6484 64.6484-64.6484L47.4121-64.6484Q44.9219-64.6484 43.0664-62.8418L31.2012-51.0254Q29.541-49.3652 29.6631-47.3145Q29.7852-45.2637 31.2012-43.7744Q32.6172-42.2852 34.8145-42.2852Q36.9141-42.2852 38.3301-43.8477L49.0234-54.3945L55.8105-54.3945Q55.8594-54.3945 55.7373-54.5166Q55.6152-54.6387 55.4199-54.8828L46.7285-46.1914Q43.7012-43.1641 43.6768-39.2578Q43.6523-35.3516 46.7285-32.2754L59.9609-19.043ZM40.7227-32.1289L36.2793-26.1719L16.5527-26.1719Q14.5508-26.1719 13.0127-24.707Q11.4746-23.2422 11.4746-21.0938Q11.4746-18.9941 13.0127-17.5293Q14.5508-16.0645 16.5527-16.0645L38.8184-16.0645Q40.9668-16.0645 42.627-17.7246L48.5352-23.584L43.2617-28.8086Q41.6992-30.4199 40.7227-32.1289ZM96.8262-9.0332Q96.8262-7.42188 97.9736-6.27441Q99.1211-5.12695 100.732-5.12695Q102.344-5.12695 103.491-6.27441Q104.639-7.42188 104.639-9.0332L104.639-51.4648L96.8262-51.4648ZM13.6719-50.0977Q12.0605-50.0977 10.9131-48.9502Q9.76562-47.8027 9.76562-46.1914Q9.76562-44.5801 10.9131-43.4326Q12.0605-42.2852 13.6719-42.2852L34.8145-42.2852L34.8145-50.0977ZM94.9219 9.66797Q98.291 9.66797 100.61 8.88672Q102.93 8.10547 105.127 7.08008Q106.738 6.44531 107.251 4.95605Q107.764 3.4668 107.275 2.19727Q106.787 0.78125 105.2-0.0244141Q103.613-0.830078 101.758 0.146484Q100.098 0.976562 98.6816 1.41602Q97.2656 1.85547 94.9219 1.85547L23.7793 1.85547Q22.2656 1.85547 21.0693 2.9541Q19.873 4.05273 19.873 5.66406Q19.873 7.17773 20.9961 8.42285Q22.1191 9.66797 23.7793 9.66797Z"/>
  </g>
  <g id="Heavy-S" transform="matrix(1 0 0 1 2579.02 696)">
   <path d="M81.3768-60.391Q85.2912-60.391 88.0613-63.1797Q90.8313-65.9683 90.8313-69.8685Q90.8313-73.7945 88.0613-76.5587Q85.2912-79.323 81.3768-79.323Q77.4766-79.323 74.6879-76.5587Q71.8993-73.7945 71.8993-69.8685Q71.8993-65.9683 74.6879-63.1797Q77.4766-60.391 81.3768-60.391ZM59.062 5.53548L68.7628 5.53548L68.7628-21.3615Q68.7628-22.9783 67.795-24.2648L59.227-35.774L70.1387-46.7346Q70.5639-47.1713 70.9606-47.1713Q71.3573-47.1713 71.7567-46.7346L82.4929-35.8635Q83.1792-35.1283 84.1225-34.8038Q85.0659-34.4793 85.9475-34.4793Q87.9434-34.4793 89.3276-35.8635L101.408-47.9438Q102.841-49.3768 102.841-51.3611Q102.841-53.492 101.408-54.8087Q99.9749-56.1254 98.0278-56.2173Q96.0807-56.3091 94.5128-54.7412L85.9475-46.1759L71.1038-60.922Q69.5759-62.45 67.8082-63.3187Q66.0405-64.1875 63.4845-64.1875L46.4095-64.1875Q44.023-64.1875 42.2712-62.473L30.5328-50.7834Q28.9648-49.2039 29.0753-47.2626Q29.1859-45.3213 30.5212-43.9069Q31.8566-42.4926 33.9501-42.4926Q35.9345-42.4926 37.2698-43.9744L47.9171-54.4867L54.7388-54.4867Q54.8683-54.4867 54.8096-54.5051Q54.7509-54.5234 54.521-54.6293L45.8872-45.9955Q42.9636-43.0603 42.9392-39.2866Q42.9148-35.5129 45.8872-32.5289L59.062-19.3657ZM40.181-32.3824L35.5072-26.1143L15.8843-26.1143Q13.9746-26.1143 12.5229-24.7301Q11.0713-23.3459 11.0713-21.3127Q11.0713-19.3168 12.5229-17.9327Q13.9746-16.5485 15.8843-16.5485L37.9079-16.5485Q39.9526-16.5485 41.5321-18.128L47.6708-24.2178L42.6048-29.235Q41.0999-30.7772 40.181-32.3824ZM95.7544-8.48003Q95.7544-7.00699 96.7924-5.96325Q97.8304-4.91951 99.2803-4.91951Q100.753-4.91951 101.797-5.96325Q102.841-7.00699 102.841-8.48003L102.841-51.3611L95.7544-51.3611ZM13.3377-49.5791Q11.8762-49.5791 10.8324-48.5411Q9.78867-47.5031 9.78867-46.0531Q9.78867-44.5801 10.8324-43.5363Q11.8762-42.4926 13.3377-42.4926L33.9501-42.4926L33.9501-49.5791ZM93.4352 8.81516Q96.7237 8.81516 98.9796 8.06272Q101.236 7.31028 103.41 6.28489Q104.86 5.70775 105.332 4.35678Q105.805 3.00582 105.351 1.85153Q104.92 0.562285 103.483-0.162708Q102.046-0.8877 100.352-0.00333368Q98.7032 0.826744 97.2584 1.27772Q95.8135 1.7287 93.4352 1.7287L23.0302 1.7287Q21.6433 1.7287 20.5623 2.72361Q19.4812 3.71852 19.4812 5.18003Q19.4812 6.55541 20.5063 7.68529Q21.5314 8.81516 23.0302 8.81516Z"/>
  </g>
  <g id="Bold-S" transform="matrix(1 0 0 1 2283.4 696)">
   <path d="M79.4434-60.1074Q83.2031-60.1074 85.8765-62.793Q88.5498-65.4785 88.5498-69.2627Q88.5498-73.0469 85.8765-75.708Q83.2031-78.3691 79.4434-78.3691Q75.6592-78.3691 72.9736-75.708Q70.2881-73.0469 70.2881-69.2627Q70.2881-65.4785 72.9736-62.793Q75.6592-60.1074 79.4434-60.1074ZM58.0566 4.73633L67.1387 4.73633L67.1387-21.6064Q67.1387-23.1201 66.2354-24.3164L57.6416-35.8643L68.5791-46.8506Q69.043-47.3389 69.5557-47.3389Q70.0684-47.3389 70.5322-46.8506L81.1523-36.1084Q81.7871-35.4248 82.666-35.1196Q83.5449-34.8145 84.375-34.8145Q86.2549-34.8145 87.5488-36.1084L99.4873-48.0469Q100.83-49.3896 100.83-51.2451Q100.83-53.2471 99.4873-54.48Q98.1445-55.7129 96.3135-55.7983Q94.4824-55.8838 93.0176-54.4189L84.375-45.7764L69.5312-60.5225Q68.042-62.0117 66.3452-62.8418Q64.6484-63.6719 62.1826-63.6719L45.2881-63.6719Q43.0176-63.6719 41.3818-62.0605L29.7852-50.5127Q28.3203-49.0234 28.418-47.2046Q28.5156-45.3857 29.7607-44.0552Q31.0059-42.7246 32.9834-42.7246Q34.8389-42.7246 36.084-44.1162L46.6797-54.5898L53.54-54.5898Q53.7598-54.5898 53.772-54.4922Q53.7842-54.3945 53.5156-54.3457L44.9463-45.7764Q42.1387-42.9443 42.1143-39.3188Q42.0898-35.6934 44.9463-32.8125L58.0566-19.7266ZM39.5752-32.666L34.6436-26.0498L15.1367-26.0498Q13.3301-26.0498 11.9751-24.7559Q10.6201-23.4619 10.6201-21.5576Q10.6201-19.6777 11.9751-18.3838Q13.3301-17.0898 15.1367-17.0898L36.8896-17.0898Q38.8184-17.0898 40.3076-18.5791L46.7041-24.9268L41.8701-29.7119Q40.4297-31.1768 39.5752-32.666ZM94.5557-7.86133Q94.5557-6.54297 95.4712-5.61523Q96.3867-4.6875 97.6562-4.6875Q98.9746-4.6875 99.9023-5.61523Q100.83-6.54297 100.83-7.86133L100.83-51.2451L94.5557-51.2451ZM12.9639-48.999Q11.6699-48.999 10.7422-48.0835Q9.81445-47.168 9.81445-45.8984Q9.81445-44.5801 10.7422-43.6523Q11.6699-42.7246 12.9639-42.7246L32.9834-42.7246L32.9834-48.999ZM91.7725 7.86133Q94.9707 7.86133 97.1558 7.14111Q99.3408 6.4209 101.489 5.39551Q102.759 4.88281 103.186 3.68652Q103.613 2.49023 103.198 1.46484Q102.832 0.317383 101.562-0.317383Q100.293-0.952148 98.7793-0.170898Q97.1436 0.65918 95.6665 1.12305Q94.1895 1.58691 91.7725 1.58691L22.1924 1.58691Q20.9473 1.58691 19.9951 2.46582Q19.043 3.34473 19.043 4.63867Q19.043 5.85938 19.9585 6.86035Q20.874 7.86133 22.1924 7.86133Z"/>
  </g>
  <g id="Semibold-S" transform="matrix(1 0 0 1 1987.44 696)">
   <path d="M78.1104-59.9119Q81.7635-59.9119 84.3702-62.5264Q86.9769-65.1408 86.9769-68.845Q86.9769-72.5314 84.3702-75.1215Q81.7635-77.7115 78.1104-77.7115Q74.4062-77.7115 71.7917-75.1215Q69.1772-72.5314 69.1772-68.845Q69.1772-65.1408 71.7917-62.5264Q74.4062-59.9119 78.1104-59.9119ZM57.3635 4.18535L66.0189 4.18535L66.0189-21.7753Q66.0189-23.2179 65.1601-24.352L56.5485-35.9265L67.5038-46.9306Q67.9943-47.4544 68.587-47.4544Q69.1797-47.4544 69.688-46.9306L80.2281-36.2772Q80.8273-35.6292 81.6618-35.3374Q82.4963-35.0455 83.2908-35.0455Q85.0907-35.0455 86.3225-36.2772L98.1632-48.118Q99.4437-49.3985 99.4437-51.1651Q99.4437-53.0782 98.1632-54.2534Q96.8826-55.4285 95.1315-55.5095Q93.3805-55.5905 91.9867-54.1968L83.2908-45.5009L68.4471-60.247Q66.9845-61.7096 65.3366-62.513Q63.6887-63.3164 61.2851-63.3164L44.5149-63.3164Q42.3244-63.3164 40.7687-61.7762L29.2697-50.3261Q27.876-48.899 27.9647-47.1646Q28.0535-45.4302 29.2364-44.1574Q30.4193-42.8846 32.3169-42.8846Q34.0835-42.8846 35.2664-44.214L45.8266-54.6609L52.7136-54.6609Q52.9955-54.6609 53.0566-54.4833Q53.1177-54.3057 52.8225-54.1502L44.2976-45.6253Q41.5699-42.8644 41.5455-39.3411Q41.5211-35.8178 44.2976-33.008L57.3635-19.9754ZM39.1575-32.8615L34.0481-26.0054L14.6213-26.0054Q12.8857-26.0054 11.5974-24.7736Q10.3091-23.5419 10.3091-21.7265Q10.3091-19.9266 11.5974-18.6948Q12.8857-17.4631 14.6213-17.4631L36.1876-17.4631Q38.0363-17.4631 39.4634-18.8901L46.0376-25.4155L41.3636-30.0407Q39.9676-31.4522 39.1575-32.8615ZM93.7292-7.43477Q93.7292-6.22305 94.5603-5.37529Q95.3914-4.52754 96.5365-4.52754Q97.7482-4.52754 98.596-5.37529Q99.4437-6.22305 99.4437-7.43477L99.4437-51.1651L93.7292-51.1651ZM12.7062-48.5991Q11.5277-48.5991 10.68-47.768Q9.83223-46.9369 9.83223-45.7918Q9.83223-44.5801 10.68-43.7323Q11.5277-42.8846 12.7062-42.8846L32.3169-42.8846L32.3169-48.5991ZM90.6261 7.20371Q93.7621 7.20371 95.8983 6.50571Q98.0345 5.80771 100.165 4.78232Q101.31 4.31406 101.706 3.22441Q102.103 2.13477 101.714 1.19824Q101.392 0.148535 100.238-0.424023Q99.0844-0.996582 97.6951-0.286426Q96.0683 0.543652 94.569 1.01641Q93.0697 1.48916 90.6261 1.48916L21.6147 1.48916Q20.4674 1.48916 19.6041 2.28809Q18.7408 3.08701 18.7408 4.26543Q18.7408 5.37949 19.5808 6.2916Q20.4208 7.20371 21.6147 7.20371Z"/>
  </g>
  <g id="Medium-S" transform="matrix(1 0 0 1 1691.3 696)">
   <path d="M77.0996-59.7637Q80.6719-59.7637 83.228-62.3242Q85.7842-64.8848 85.7842-68.5283Q85.7842-72.1406 83.228-74.6768Q80.6719-77.2129 77.0996-77.2129Q73.4561-77.2129 70.8955-74.6768Q68.335-72.1406 68.335-68.5283Q68.335-64.8848 70.8955-62.3242Q73.4561-59.7637 77.0996-59.7637ZM56.8379 3.76758L65.1699 3.76758L65.1699-21.9033Q65.1699-23.292 64.3447-24.3789L55.7197-35.9736L66.6885-46.9912Q67.1992-47.542 67.8525-47.542Q68.5059-47.542 69.0479-46.9912L79.5273-36.4053Q80.0996-35.7842 80.9004-35.5024Q81.7012-35.2207 82.4688-35.2207Q84.208-35.2207 85.3926-36.4053L97.1592-48.1719Q98.3926-49.4053 98.3926-51.1045Q98.3926-52.9502 97.1592-54.0815Q95.9258-55.2129 94.2354-55.2905Q92.5449-55.3682 91.2051-54.0283L82.4688-45.292L67.625-60.0381Q66.1826-61.4805 64.5718-62.2637Q62.9609-63.0469 60.6045-63.0469L43.9287-63.0469Q41.7988-63.0469 40.3037-61.5605L28.8789-50.1846Q27.5391-48.8047 27.6211-47.1343Q27.7031-45.4639 28.8389-44.2349Q29.9746-43.0059 31.8115-43.0059Q33.5107-43.0059 34.6465-44.2881L45.1797-54.7148L52.0869-54.7148Q52.416-54.7148 52.5142-54.4766Q52.6123-54.2383 52.2969-54.002L43.8057-45.5107Q41.1387-42.8037 41.1143-39.3579Q41.0898-35.9121 43.8057-33.1562L56.8379-20.1641ZM38.8408-33.0098L33.5967-25.9717L14.2305-25.9717Q12.5488-25.9717 11.311-24.7871Q10.0732-23.6025 10.0732-21.8545Q10.0732-20.1152 11.311-18.9307Q12.5488-17.7461 14.2305-17.7461L35.6553-17.7461Q37.4434-17.7461 38.8232-19.126L45.5322-25.7861L40.9795-30.29Q39.6172-31.6611 38.8408-33.0098ZM93.1025-7.11133Q93.1025-5.98047 93.8696-5.19336Q94.6367-4.40625 95.6875-4.40625Q96.8184-4.40625 97.6055-5.19336Q98.3926-5.98047 98.3926-7.11133L98.3926-51.1045L93.1025-51.1045ZM12.5107-48.2959Q11.4199-48.2959 10.6328-47.5288Q9.8457-46.7617 9.8457-45.7109Q9.8457-44.5801 10.6328-43.793Q11.4199-43.0059 12.5107-43.0059L31.8115-43.0059L31.8115-48.2959ZM89.7568 6.70508Q92.8457 6.70508 94.9448 6.02393Q97.0439 5.34277 99.1611 4.31738Q100.212 3.88281 100.584 2.87402Q100.957 1.86523 100.589 0.996094Q100.301 0.0205078 99.2344-0.504883Q98.168-1.03027 96.873-0.374023Q95.2529 0.456055 93.7368 0.935547Q92.2207 1.41504 89.7568 1.41504L21.1768 1.41504Q20.1035 1.41504 19.3076 2.15332Q18.5117 2.8916 18.5117 3.98242Q18.5117 5.01562 19.2944 5.86035Q20.0771 6.70508 21.1768 6.70508Z"/>
  </g>
  <g id="Regular-S" transform="matrix(1 0 0 1 1395.33 696)">
   <path d="M75.7812-59.5703Q79.248-59.5703 81.7383-62.0605Q84.2285-64.5508 84.2285-68.1152Q84.2285-71.6309 81.7383-74.0967Q79.248-76.5625 75.7812-76.5625Q72.2168-76.5625 69.7266-74.0967Q67.2363-71.6309 67.2363-68.1152Q67.2363-64.5508 69.7266-62.0605Q72.2168-59.5703 75.7812-59.5703ZM56.1523 3.22266L64.0625 3.22266L64.0625-22.0703Q64.0625-23.3887 63.2812-24.4141L54.6387-36.0352L65.625-47.0703Q66.1621-47.6562 66.8945-47.6562Q67.627-47.6562 68.2129-47.0703L78.6133-36.5723Q79.1504-35.9863 79.9072-35.7178Q80.6641-35.4492 81.3965-35.4492Q83.0566-35.4492 84.1797-36.5723L95.8496-48.2422Q97.0215-49.4141 97.0215-51.0254Q97.0215-52.7832 95.8496-53.8574Q94.6777-54.9316 93.0664-55.0049Q91.4551-55.0781 90.1855-53.8086L81.3965-45.0195L66.5527-59.7656Q65.1367-61.1816 63.5742-61.9385Q62.0117-62.6953 59.7168-62.6953L43.1641-62.6953Q41.1133-62.6953 39.6973-61.2793L28.3691-50Q27.0996-48.6816 27.1729-47.0947Q27.2461-45.5078 28.3203-44.3359Q29.3945-43.1641 31.1523-43.1641Q32.7637-43.1641 33.8379-44.3848L44.3359-54.7852L51.2695-54.7852Q51.6602-54.7852 51.8066-54.4678Q51.9531-54.1504 51.6113-53.8086L43.1641-45.3613Q40.5762-42.7246 40.5518-39.3799Q40.5273-36.0352 43.1641-33.3496L56.1523-20.4102ZM38.4277-33.2031L33.0078-25.9277L13.7207-25.9277Q12.1094-25.9277 10.9375-24.8047Q9.76562-23.6816 9.76562-22.0215Q9.76562-20.3613 10.9375-19.2383Q12.1094-18.1152 13.7207-18.1152L34.9609-18.1152Q36.6699-18.1152 37.9883-19.4336L44.873-26.2695L40.4785-30.6152Q39.1602-31.9336 38.4277-33.2031ZM92.2852-6.68945Q92.2852-5.66406 92.9688-4.95605Q93.6523-4.24805 94.5801-4.24805Q95.6055-4.24805 96.3135-4.95605Q97.0215-5.66406 97.0215-6.68945L97.0215-51.0254L92.2852-51.0254ZM12.2559-47.9004Q11.2793-47.9004 10.5713-47.2168Q9.86328-46.5332 9.86328-45.6055Q9.86328-44.5801 10.5713-43.8721Q11.2793-43.1641 12.2559-43.1641L31.1523-43.1641L31.1523-47.9004ZM88.623 6.05469Q91.6504 6.05469 93.7012 5.39551Q95.752 4.73633 97.8516 3.71094Q98.7793 3.32031 99.1211 2.41699Q99.4629 1.51367 99.1211 0.732422Q98.877-0.146484 97.9248-0.610352Q96.9727-1.07422 95.8008-0.488281Q94.1895 0.341797 92.6514 0.830078Q91.1133 1.31836 88.623 1.31836L20.6055 1.31836Q19.6289 1.31836 18.9209 1.97754Q18.2129 2.63672 18.2129 3.61328Q18.2129 4.54102 18.9209 5.29785Q19.6289 6.05469 20.6055 6.05469Z"/>
  </g>
  <g id="Light-S" transform="matrix(1 0 0 1 1100.15 696)">
   <path d="M73.9799-58.7985Q77.356-58.7985 79.7554-61.1978Q82.1548-63.5971 82.1548-67.0255Q82.1548-70.4351 79.7554-72.8176Q77.356-75.2001 73.9799-75.2001Q70.5518-75.2001 68.1524-72.8176Q65.7529-70.4351 65.7529-67.0255Q65.7529-63.5971 68.1524-61.1978Q70.5518-58.7985 73.9799-58.7985ZM54.7597 2.3145L62.4278 2.3145L62.4278-22.2066Q62.4278-23.5097 61.6768-24.4898L53.2916-35.7628L63.9448-46.4648Q64.4669-47.0357 65.1765-47.0357Q65.8862-47.0357 66.4419-46.4648L76.5396-36.2846Q77.0615-35.714 77.7957-35.4605Q78.5299-35.2071 79.247-35.2071Q80.8619-35.2071 81.9394-36.2846L93.2462-47.5914Q94.3878-48.733 94.3878-50.2988Q94.3878-51.9961 93.2537-53.0401Q92.1196-54.084 90.5613-54.1573Q89.003-54.2305 87.7787-53.0062L79.247-44.4745L64.8422-58.7817Q63.4565-60.1524 61.9394-60.879Q60.4223-61.6056 58.2031-61.6056L42.1651-61.6056Q40.1749-61.6056 38.8041-60.2501L27.8091-49.3037Q26.5699-48.0309 26.6431-46.4893Q26.7164-44.9478 27.7603-43.8137Q28.8043-42.6796 30.5016-42.6796Q32.0221-42.6796 33.1266-43.855L43.3067-53.9525L50.0132-53.9525Q50.4038-53.9525 50.5427-53.6428Q50.6816-53.333 50.355-53.0062L42.1651-44.8013Q39.6378-42.2554 39.6133-39.0015Q39.5889-35.7475 42.1651-33.168L54.7597-20.607ZM37.6709-33.1729L32.3115-25.958L13.5997-25.958Q12.0488-25.958 10.9072-24.8728Q9.76562-23.7877 9.76562-22.1578Q9.76562-20.5582 10.9072-19.4654Q12.0488-18.3726 13.5997-18.3726L34.2041-18.3726Q35.8526-18.3726 37.1407-19.6607L43.9346-26.4208L39.6762-30.6305Q38.4336-31.8731 37.6709-33.1729ZM90.5294-7.44629Q90.5294-6.61774 91.0918-6.04591Q91.6542-5.47409 92.4156-5.47409Q93.2442-5.47409 93.816-6.04591Q94.3878-6.61774 94.3878-7.44629L94.3878-50.2988L90.5294-50.2988ZM12.3316-46.538Q11.5367-46.538 10.9648-45.9831Q10.393-45.4282 10.393-44.6671Q10.393-43.8385 10.9648-43.259Q11.5367-42.6796 12.3316-42.6796L30.5016-42.6796L30.5016-46.538ZM86.2617 4.69233Q89.1378 4.69233 91.0825 4.06342Q93.0272 3.4345 95.0513 2.45463Q95.7822 2.13954 96.0711 1.41029Q96.36 0.681051 96.0787 0.021108Q95.8496-0.706482 95.0867-1.06443Q94.3237-1.42237 93.394-0.957489Q91.7979-0.14267 90.2522 0.345612Q88.7065 0.833893 86.2617 0.833893L20.2876 0.833893Q19.4926 0.833893 18.9133 1.37965Q18.3339 1.9254 18.3339 2.72013Q18.3339 3.48155 18.9133 4.08694Q19.4926 4.69233 20.2876 4.69233Z"/>
  </g>
  <g id="Thin-S" transform="matrix(1 0 0 1 805.474 696)">
   <path d="M71.5976-57.7777Q74.8535-57.7777 77.1329-60.0567Q79.4123-62.3358 79.4123-65.5842Q79.4123-68.8536 77.1329-71.1259Q74.8535-73.3983 71.5976-73.3983Q68.3497-73.3983 66.0704-71.1259Q63.791-68.8536 63.791-65.5842Q63.791-62.3358 66.0704-60.0567Q68.3497-57.7777 71.5976-57.7777ZM52.9179 1.1134L60.2657 1.1134L60.2657-22.3869Q60.2657-23.6698 59.5548-24.5901L51.5099-35.4026L61.7225-45.6639Q62.2248-46.215 62.9043-46.215Q63.5839-46.215 64.0995-45.6639L73.797-35.9042Q74.2987-35.3537 75.003-35.1203Q75.7072-34.8869 76.4042-34.8869Q77.9592-34.8869 78.9765-35.9042L89.803-46.7307Q90.9046-47.8323 90.9046-49.3379Q90.9046-50.9551 89.8204-51.959Q88.7363-52.963 87.2481-53.0362Q85.7599-53.1094 84.5955-51.9451L76.4042-43.7537L62.5799-57.4804Q61.2342-58.7912 59.7771-59.4778Q58.3201-60.1643 56.2012-60.1643L40.8439-60.1643Q38.9337-60.1643 37.6229-58.8889L27.0685-48.3828Q25.8693-47.1701 25.9425-45.6887Q26.0157-44.2072 27.0197-43.123Q28.0236-42.0388 29.6408-42.0388Q31.0413-42.0388 32.1858-43.1544L41.9455-52.8513L48.3517-52.8513Q48.7423-52.8513 48.871-52.5517Q48.9998-52.252 48.6935-51.9451L40.8439-44.0607Q38.3966-41.6348 38.3722-38.501Q38.3478-35.3671 40.8439-32.9279L52.9179-20.8673ZM36.6699-33.1328L31.3906-25.998L13.4395-25.998Q11.9688-25.998 10.8672-24.963Q9.76562-23.9279 9.76562-22.3381Q9.76562-20.8185 10.8672-19.7657Q11.9688-18.713 13.4395-18.713L33.2031-18.713Q34.7715-18.713 36.0196-19.9611L42.6935-26.621L38.615-30.6507Q37.4726-31.793 36.6699-33.1328ZM88.2072-8.44727Q88.2072-7.87905 88.6094-7.48734Q89.0115-7.09563 89.5529-7.09563Q90.1212-7.09563 90.5129-7.48734Q90.9046-7.87905 90.9046-8.44727L90.9046-49.3379L88.2072-49.3379ZM12.4319-44.7362Q11.877-44.7362 11.4853-44.3515Q11.0936-43.9668 11.0936-43.4259Q11.0936-42.8577 11.4853-42.4483Q11.877-42.0388 12.4319-42.0388L29.6408-42.0388L29.6408-44.7362ZM83.1387 2.89051Q85.8146 2.89051 87.6191 2.30162Q89.4236 1.71273 91.3478 0.793063Q91.8183 0.577865 92.0373 0.0788535Q92.2562-0.420158 92.055-0.919662Q91.8457-1.44712 91.333-1.66498Q90.8203-1.88284 90.2107-1.57805Q88.6349-0.783416 87.0791-0.295135Q85.5232 0.193147 83.1387 0.193147L19.8671 0.193147Q19.3123 0.193147 18.9032 0.588891Q18.494 0.984635 18.494 1.53887Q18.494 2.08031 18.9032 2.48541Q19.3123 2.89051 19.8671 2.89051Z"/>
  </g>
  <g id="Ultralight-S" transform="matrix(1 0 0 1 509.804 696)">
   <path d="M70.3773-57.2548Q73.5718-57.2548 75.7896-59.4723Q78.0075-61.6898 78.0075-64.846Q78.0075-68.0435 75.7896-70.2595Q73.5718-72.4754 70.3773-72.4754Q67.2218-72.4754 65.004-70.2595Q62.7861-68.0435 62.7861-64.846Q62.7861-61.6898 65.004-59.4723Q67.2218-57.2548 70.3773-57.2548ZM51.9745 0.498199L59.1583 0.498199L59.1583-22.4792Q59.1583-23.7518 58.4679-24.6414L50.5974-35.218L60.5843-45.2538Q61.0764-45.7947 61.7405-45.7947Q62.4046-45.7947 62.8998-45.2538L72.3923-35.7094Q72.8836-35.1692 73.5725-34.9461Q74.2615-34.7229 74.9481-34.7229Q76.4725-34.7229 77.459-35.7094L88.0394-46.2898Q89.1205-47.3709 89.1205-48.8457Q89.1205-50.4219 88.0619-51.4053Q87.0033-52.3888 85.5511-52.462Q84.0988-52.5352 82.9651-51.4015L74.9481-43.3846L61.4212-56.8138Q60.096-58.094 58.6697-58.7601Q57.2433-59.4261 55.1758-59.4261L40.1672-59.4261Q38.298-59.4261 37.0178-58.1917L26.6891-47.9111Q25.5104-46.7293 25.5836-45.2785Q25.6569-43.8278 26.6403-42.7692Q27.6237-41.7107 29.2-41.7107Q30.5389-41.7107 31.7039-42.7956L41.2483-52.2873L47.5006-52.2873Q47.8912-52.2873 48.0148-51.9928Q48.1384-51.6983 47.8424-51.4015L40.1672-43.6813Q37.7609-41.317 37.7365-38.2446Q37.7121-35.1723 40.1672-32.8049L51.9745-21.0007ZM36.1572-33.1123L30.9189-26.0185L13.3575-26.0185Q11.9278-26.0185 10.8467-25.0092Q9.76562-23.9998 9.76562-22.4304Q9.76562-20.9518 10.8467-19.9196Q11.9278-18.8873 13.3575-18.8873L32.6904-18.8873Q34.2178-18.8873 35.4454-20.1149L42.0578-26.7235L38.0714-30.661Q36.9804-31.752 36.1572-33.1123ZM87.0178-8.95996Q87.0178-8.52509 87.3379-8.22563Q87.6579-7.92618 88.0867-7.92618Q88.5216-7.92618 88.821-8.22563Q89.1205-8.52509 89.1205-8.95996L89.1205-48.8457L87.0178-48.8457ZM12.4832-43.8133Q12.0514-43.8133 11.7519-43.5158Q11.4525-43.2182 11.4525-42.7902Q11.4525-42.3553 11.7519-42.033Q12.0514-41.7107 12.4832-41.7107L29.2-41.7107L29.2-43.8133ZM81.5392 1.96762Q84.1125 1.96762 85.8452 1.39923Q87.5778 0.830841 89.4508-0.0579834Q89.7881-0.222015 89.9712-0.603104Q90.1543-0.984192 89.994-1.40152Q89.7949-1.82648 89.4104-1.97258Q89.0259-2.11868 88.5803-1.8959Q87.0148-1.1116 85.4538-0.623322Q83.8928-0.13504 81.5392-0.13504L19.6518-0.13504Q19.22-0.13504 18.898 0.183868Q18.576 0.502777 18.576 0.933838Q18.576 1.36261 18.898 1.66512Q19.22 1.96762 19.6518 1.96762Z"/>
  </g>
 </g>
</svg>
