<?xml version="1.0" encoding="UTF-8"?>
<!--Generator: Apple Native CoreSVG 175.5-->
<!DOCTYPE svg
PUBLIC "-//W3C//DTD SVG 1.1//EN"
       "http://www.w3.org/Graphics/SVG/1.1/DTD/svg11.dtd">
<svg version="1.1" xmlns="http://www.w3.org/2000/svg" xmlns:xlink="http://www.w3.org/1999/xlink" width="3300" height="2200">
 <!--glyph: "uni101520.medium", point size: 100.0, font version: "18.0d9e1", template writer version: "84"-->
 <g id="Notes">
  <rect height="2200" id="artboard" style="fill:white;opacity:1" width="3300" x="0" y="0"/>
  <line style="fill:none;stroke:black;opacity:1;stroke-width:0.5;" x1="263" x2="3036" y1="292" y2="292"/>
  <text style="stroke:none;fill:black;font-family:sans-serif;font-size:13;font-weight:bold;" transform="matrix(1 0 0 1 263 322)">Weight/Scale Variations</text>
  <text style="stroke:none;fill:black;font-family:sans-serif;font-size:13;text-anchor:middle;" transform="matrix(1 0 0 1 559.711 322)">Ultralight</text>
  <text style="stroke:none;fill:black;font-family:sans-serif;font-size:13;text-anchor:middle;" transform="matrix(1 0 0 1 856.422 322)">Thin</text>
  <text style="stroke:none;fill:black;font-family:sans-serif;font-size:13;text-anchor:middle;" transform="matrix(1 0 0 1 1153.13 322)">Light</text>
  <text style="stroke:none;fill:black;font-family:sans-serif;font-size:13;text-anchor:middle;" transform="matrix(1 0 0 1 1449.84 322)">Regular</text>
  <text style="stroke:none;fill:black;font-family:sans-serif;font-size:13;text-anchor:middle;" transform="matrix(1 0 0 1 1746.56 322)">Medium</text>
  <text style="stroke:none;fill:black;font-family:sans-serif;font-size:13;text-anchor:middle;" transform="matrix(1 0 0 1 2043.27 322)">Semibold</text>
  <text style="stroke:none;fill:black;font-family:sans-serif;font-size:13;text-anchor:middle;" transform="matrix(1 0 0 1 2339.98 322)">Bold</text>
  <text style="stroke:none;fill:black;font-family:sans-serif;font-size:13;text-anchor:middle;" transform="matrix(1 0 0 1 2636.69 322)">Heavy</text>
  <text style="stroke:none;fill:black;font-family:sans-serif;font-size:13;text-anchor:middle;" transform="matrix(1 0 0 1 2933.4 322)">Black</text>
  <line style="fill:none;stroke:black;opacity:1;stroke-width:0.5;" x1="263" x2="3036" y1="1903" y2="1903"/>
  <g transform="matrix(1 0 0 1 263 1933)">
   <path d="M9.24805 0.830078Q10.8691 0.830078 12.2949 0.214844Q13.7207-0.400391 14.8096-1.49414Q15.8984-2.58789 16.5186-4.01367Q17.1387-5.43945 17.1387-7.05078Q17.1387-8.66211 16.5186-10.0879Q15.8984-11.5137 14.8047-12.6074Q13.7109-13.7012 12.2852-14.3164Q10.8594-14.9316 9.23828-14.9316Q7.62695-14.9316 6.20117-14.3164Q4.77539-13.7012 3.69141-12.6074Q2.60742-11.5137 1.9873-10.0879Q1.36719-8.66211 1.36719-7.05078Q1.36719-5.43945 1.9873-4.01367Q2.60742-2.58789 3.69629-1.49414Q4.78516-0.400391 6.21094 0.214844Q7.63672 0.830078 9.24805 0.830078ZM9.24805-0.654297Q7.91992-0.654297 6.7627-1.14746Q5.60547-1.64062 4.73145-2.51953Q3.85742-3.39844 3.36426-4.56055Q2.87109-5.72266 2.87109-7.05078Q2.87109-8.37891 3.35938-9.54102Q3.84766-10.7031 4.72168-11.582Q5.5957-12.4609 6.75293-12.9541Q7.91016-13.4473 9.23828-13.4473Q10.5762-13.4473 11.7383-12.9541Q12.9004-12.4609 13.7793-11.582Q14.6582-10.7031 15.1514-9.54102Q15.6445-8.37891 15.6445-7.05078Q15.6445-5.72266 15.1514-4.56055Q14.6582-3.39844 13.7793-2.51953Q12.9004-1.64062 11.7432-1.14746Q10.5859-0.654297 9.24805-0.654297ZM5.6543-7.05078Q5.6543-6.72852 5.85938-6.52832Q6.06445-6.32812 6.40625-6.32812L8.51562-6.32812L8.51562-4.20898Q8.51562-3.88672 8.71094-3.67676Q8.90625-3.4668 9.23828-3.4668Q9.56055-3.4668 9.77051-3.67676Q9.98047-3.88672 9.98047-4.20898L9.98047-6.32812L12.0898-6.32812Q12.4219-6.32812 12.627-6.52832Q12.832-6.72852 12.832-7.05078Q12.832-7.38281 12.627-7.58789Q12.4219-7.79297 12.0898-7.79297L9.98047-7.79297L9.98047-9.90234Q9.98047-10.2344 9.77051-10.4443Q9.56055-10.6543 9.23828-10.6543Q8.90625-10.6543 8.71094-10.4443Q8.51562-10.2344 8.51562-9.90234L8.51562-7.79297L6.40625-7.79297Q6.06445-7.79297 5.85938-7.58789Q5.6543-7.38281 5.6543-7.05078Z"/>
  </g>
  <g transform="matrix(1 0 0 1 281.867 1933)">
   <path d="M11.709 2.91016Q13.75 2.91016 15.5518 2.12891Q17.3535 1.34766 18.7305-0.0292969Q20.1074-1.40625 20.8887-3.20801Q21.6699-5.00977 21.6699-7.05078Q21.6699-9.0918 20.8887-10.8936Q20.1074-12.6953 18.7305-14.0723Q17.3535-15.4492 15.5469-16.2305Q13.7402-17.0117 11.6992-17.0117Q9.6582-17.0117 7.85645-16.2305Q6.05469-15.4492 4.68262-14.0723Q3.31055-12.6953 2.5293-10.8936Q1.74805-9.0918 1.74805-7.05078Q1.74805-5.00977 2.5293-3.20801Q3.31055-1.40625 4.6875-0.0292969Q6.06445 1.34766 7.86621 2.12891Q9.66797 2.91016 11.709 2.91016ZM11.709 1.25Q9.98047 1.25 8.47656 0.605469Q6.97266-0.0390625 5.83496-1.17676Q4.69727-2.31445 4.05762-3.81836Q3.41797-5.32227 3.41797-7.05078Q3.41797-8.7793 4.05762-10.2832Q4.69727-11.7871 5.83008-12.9297Q6.96289-14.0723 8.4668-14.7119Q9.9707-15.3516 11.6992-15.3516Q13.4277-15.3516 14.9365-14.7119Q16.4453-14.0723 17.583-12.9297Q18.7207-11.7871 19.3652-10.2832Q20.0098-8.7793 20.0098-7.05078Q20.0098-5.32227 19.3701-3.81836Q18.7305-2.31445 17.5879-1.17676Q16.4453-0.0390625 14.9414 0.605469Q13.4375 1.25 11.709 1.25ZM7.17773-7.05078Q7.17773-6.69922 7.41211-6.47461Q7.64648-6.25 8.01758-6.25L10.8887-6.25L10.8887-3.36914Q10.8887-2.99805 11.1133-2.76855Q11.3379-2.53906 11.6895-2.53906Q12.0605-2.53906 12.29-2.76855Q12.5195-2.99805 12.5195-3.36914L12.5195-6.25L15.4004-6.25Q15.7715-6.25 16.001-6.47461Q16.2305-6.69922 16.2305-7.05078Q16.2305-7.42188 16.001-7.65137Q15.7715-7.88086 15.4004-7.88086L12.5195-7.88086L12.5195-10.752Q12.5195-11.1328 12.29-11.3623Q12.0605-11.5918 11.6895-11.5918Q11.3379-11.5918 11.1133-11.3574Q10.8887-11.123 10.8887-10.752L10.8887-7.88086L8.01758-7.88086Q7.63672-7.88086 7.40723-7.65137Q7.17773-7.42188 7.17773-7.05078Z"/>
  </g>
  <g transform="matrix(1 0 0 1 305.646 1933)">
   <path d="M14.9707 5.66406Q17.0605 5.66406 18.96 5.01465Q20.8594 4.36523 22.4512 3.19336Q24.043 2.02148 25.2197 0.429688Q26.3965-1.16211 27.0459-3.06641Q27.6953-4.9707 27.6953-7.05078Q27.6953-9.14062 27.0459-11.04Q26.3965-12.9395 25.2197-14.5312Q24.043-16.123 22.4512-17.2998Q20.8594-18.4766 18.9551-19.126Q17.0508-19.7754 14.9609-19.7754Q12.8711-19.7754 10.9717-19.126Q9.07227-18.4766 7.48535-17.2998Q5.89844-16.123 4.72168-14.5312Q3.54492-12.9395 2.90039-11.04Q2.25586-9.14062 2.25586-7.05078Q2.25586-4.9707 2.90527-3.06641Q3.55469-1.16211 4.72656 0.429688Q5.89844 2.02148 7.49023 3.19336Q9.08203 4.36523 10.9814 5.01465Q12.8809 5.66406 14.9707 5.66406ZM14.9707 3.84766Q13.1641 3.84766 11.5283 3.2959Q9.89258 2.74414 8.53516 1.74805Q7.17773 0.751953 6.17676-0.610352Q5.17578-1.97266 4.62891-3.6084Q4.08203-5.24414 4.08203-7.05078Q4.08203-8.86719 4.62891-10.5029Q5.17578-12.1387 6.17188-13.501Q7.16797-14.8633 8.52539-15.8594Q9.88281-16.8555 11.5186-17.4023Q13.1543-17.9492 14.9609-17.9492Q16.7773-17.9492 18.4131-17.4023Q20.0488-16.8555 21.4111-15.8594Q22.7734-14.8633 23.7744-13.501Q24.7754-12.1387 25.3223-10.5029Q25.8691-8.86719 25.8691-7.05078Q25.8691-5.24414 25.3223-3.6084Q24.7754-1.97266 23.7793-0.610352Q22.7832 0.751953 21.4209 1.74805Q20.0586 2.74414 18.4229 3.2959Q16.7871 3.84766 14.9707 3.84766ZM9.19922-7.05078Q9.19922-6.66992 9.45801-6.4209Q9.7168-6.17188 10.1172-6.17188L14.0625-6.17188L14.0625-2.2168Q14.0625-1.81641 14.3115-1.55762Q14.5605-1.29883 14.9512-1.29883Q15.3516-1.29883 15.6104-1.55273Q15.8691-1.80664 15.8691-2.2168L15.8691-6.17188L19.8242-6.17188Q20.2246-6.17188 20.4785-6.4209Q20.7324-6.66992 20.7324-7.05078Q20.7324-7.46094 20.4785-7.71484Q20.2246-7.96875 19.8242-7.96875L15.8691-7.96875L15.8691-11.9141Q15.8691-12.3242 15.6104-12.583Q15.3516-12.8418 14.9512-12.8418Q14.5605-12.8418 14.3115-12.583Q14.0625-12.3242 14.0625-11.9141L14.0625-7.96875L10.1172-7.96875Q9.70703-7.96875 9.45312-7.71484Q9.19922-7.46094 9.19922-7.05078Z"/>
  </g>
  <text style="stroke:none;fill:black;font-family:sans-serif;font-size:13;font-weight:bold;" transform="matrix(1 0 0 1 263 1953)">Design Variations</text>
  <text style="stroke:none;fill:black;font-family:sans-serif;font-size:13;" transform="matrix(1 0 0 1 263 1971)">Symbols are supported in up to nine weights and three scales.</text>
  <text style="stroke:none;fill:black;font-family:sans-serif;font-size:13;" transform="matrix(1 0 0 1 263 1989)">For optimal layout with text and other symbols, vertically align</text>
  <text style="stroke:none;fill:black;font-family:sans-serif;font-size:13;" transform="matrix(1 0 0 1 263 2007)">symbols with the adjacent text.</text>
  <line style="fill:none;stroke:#00AEEF;stroke-width:0.5;opacity:1.0;" x1="776" x2="776" y1="1919" y2="1933"/>
  <g transform="matrix(1 0 0 1 776 1933)">
   <path d="M3.31055 0.15625Q3.70117 0.15625 3.91602-0.00976562Q4.13086-0.175781 4.26758-0.585938L5.52734-4.0332L11.2891-4.0332L12.5488-0.585938Q12.6855-0.175781 12.9004-0.00976562Q13.1152 0.15625 13.4961 0.15625Q13.8867 0.15625 14.1162-0.0585938Q14.3457-0.273438 14.3457-0.644531Q14.3457-0.869141 14.2383-1.17188L9.6582-13.3691Q9.48242-13.8184 9.17969-14.043Q8.87695-14.2676 8.4082-14.2676Q7.5-14.2676 7.17773-13.3789L2.59766-1.16211Q2.49023-0.859375 2.49023-0.634766Q2.49023-0.263672 2.70996-0.0537109Q2.92969 0.15625 3.31055 0.15625ZM6.00586-5.51758L8.37891-12.0898L8.42773-12.0898L10.8008-5.51758Z"/>
  </g>
  <line style="fill:none;stroke:#00AEEF;stroke-width:0.5;opacity:1.0;" x1="793.197" x2="793.197" y1="1919" y2="1933"/>
  <text style="stroke:none;fill:black;font-family:sans-serif;font-size:13;font-weight:bold;" transform="matrix(1 0 0 1 776 1953)">Margins</text>
  <text style="stroke:none;fill:black;font-family:sans-serif;font-size:13;" transform="matrix(1 0 0 1 776 1971)">Leading and trailing margins on the left and right side of each symbol</text>
  <text style="stroke:none;fill:black;font-family:sans-serif;font-size:13;" transform="matrix(1 0 0 1 776 1989)">can be adjusted by modifying the x-location of the margin guidelines.</text>
  <text style="stroke:none;fill:black;font-family:sans-serif;font-size:13;" transform="matrix(1 0 0 1 776 2007)">Modifications are automatically applied proportionally to all</text>
  <text style="stroke:none;fill:black;font-family:sans-serif;font-size:13;" transform="matrix(1 0 0 1 776 2025)">scales and weights.</text>
  <g transform="matrix(1 0 0 1 1289 1933)">
   <path d="M2.8418 1.86523L4.54102 3.57422Q5.18555 4.22852 5.90332 4.17969Q6.62109 4.13086 7.31445 3.35938L18.0078-8.42773L17.041-9.4043L6.42578 2.27539Q6.16211 2.57812 5.89355 2.61719Q5.625 2.65625 5.27344 2.30469L4.10156 1.14258Q3.75 0.791016 3.79395 0.522461Q3.83789 0.253906 4.14062-0.0195312L15.6152-10.8203L14.6387-11.7871L3.04688-0.898438Q2.30469-0.214844 2.25098 0.498047Q2.19727 1.21094 2.8418 1.86523ZM9.25781-16.3281Q8.94531-16.0254 8.90625-15.6348Q8.86719-15.2441 9.04297-14.9512Q9.21875-14.6777 9.55566-14.541Q9.89258-14.4043 10.3809-14.5215Q11.4746-14.7754 12.5977-14.7314Q13.7207-14.6875 14.7949-13.9844L14.209-12.5293Q13.9551-11.9043 14.0674-11.4404Q14.1797-10.9766 14.5801-10.5664L16.875-8.25195Q17.2363-7.88086 17.5781-7.82227Q17.9199-7.76367 18.3398-7.8418L19.4043-8.03711L20.0684-7.36328L20.0293-6.80664Q20-6.43555 20.1221-6.12305Q20.2441-5.81055 20.6055-5.44922L21.3672-4.70703Q21.7285-4.3457 22.1533-4.33105Q22.5781-4.31641 22.9297-4.66797L25.8398-7.58789Q26.1914-7.93945 26.1816-8.35449Q26.1719-8.76953 25.8105-9.13086L25.0391-9.89258Q24.6875-10.2539 24.3799-10.3857Q24.0723-10.5176 23.7109-10.4883L23.1348-10.4395L22.4902-11.0742L22.7344-12.1973Q22.832-12.6172 22.6953-12.9834Q22.5586-13.3496 22.1191-13.7891L19.9219-15.9766Q18.6719-17.2168 17.2607-17.8369Q15.8496-18.457 14.4189-18.4814Q12.9883-18.5059 11.665-17.959Q10.3418-17.4121 9.25781-16.3281ZM10.752-15.957Q11.6602-16.6211 12.7002-16.9043Q13.7402-17.1875 14.8047-17.085Q15.8691-16.9824 16.8701-16.5137Q17.8711-16.0449 18.7012-15.2051L21.1328-12.793Q21.3086-12.6172 21.3525-12.4512Q21.3965-12.2852 21.3379-12.0312L21.0156-10.5469L22.5195-9.0625L23.5059-9.12109Q23.6914-9.13086 23.7891-9.09668Q23.8867-9.0625 24.0332-8.91602L24.6094-8.33984L22.168-5.89844L21.5918-6.47461Q21.4453-6.62109 21.4062-6.71875Q21.3672-6.81641 21.377-7.01172L21.4453-7.98828L19.9512-9.47266L18.4277-9.21875Q18.1836-9.16992 18.042-9.2041Q17.9004-9.23828 17.7148-9.41406L15.7129-11.416Q15.5176-11.5918 15.4932-11.7529Q15.4688-11.9141 15.5859-12.1875L16.4648-14.2773Q15.293-15.3711 13.8281-15.791Q12.3633-16.2109 10.8398-15.7617Q10.7227-15.7324 10.6885-15.8057Q10.6543-15.8789 10.752-15.957Z"/>
  </g>
  <text style="stroke:none;fill:black;font-family:sans-serif;font-size:13;font-weight:bold;" transform="matrix(1 0 0 1 1289 1953)">Exporting</text>
  <text style="stroke:none;fill:black;font-family:sans-serif;font-size:13;" transform="matrix(1 0 0 1 1289 1971)">Symbols should be outlined when exporting to ensure the</text>
  <text style="stroke:none;fill:black;font-family:sans-serif;font-size:13;" transform="matrix(1 0 0 1 1289 1989)">design is preserved when submitting to Xcode.</text>
  <text id="template-version" style="stroke:none;fill:black;font-family:sans-serif;font-size:13;text-anchor:end;" transform="matrix(1 0 0 1 3036 1933)">Template v.2.0</text>
  <text style="stroke:none;fill:black;font-family:sans-serif;font-size:13;text-anchor:end;" transform="matrix(1 0 0 1 3036 1951)">Requires Xcode 12 or greater</text>
  <text id="descriptive-name" style="stroke:none;fill:black;font-family:sans-serif;font-size:13;text-anchor:end;" transform="matrix(1 0 0 1 3036 1969)">Generated from figure.cricket</text>
  <text style="stroke:none;fill:black;font-family:sans-serif;font-size:13;text-anchor:end;" transform="matrix(1 0 0 1 3036 1987)">Typeset at 100 points</text>
  <text style="stroke:none;fill:black;font-family:sans-serif;font-size:13;" transform="matrix(1 0 0 1 263 726)">Small</text>
  <text style="stroke:none;fill:black;font-family:sans-serif;font-size:13;" transform="matrix(1 0 0 1 263 1156)">Medium</text>
  <text style="stroke:none;fill:black;font-family:sans-serif;font-size:13;" transform="matrix(1 0 0 1 263 1586)">Large</text>
 </g>
 <g id="Guides">
  <g id="H-reference" style="fill:#27AAE1;stroke:none;" transform="matrix(1 0 0 1 339 696)">
   <path d="M0.993347 0L3.6377 0L29.3282-67.1326L30.0301-67.1326L30.0301-70.459L28.1227-70.459ZM11.6882-24.4797L46.9818-24.4797L46.2311-26.7288L12.4382-26.7288ZM55.1193 0L57.7637 0L30.6381-70.459L29.4327-70.459L29.4327-67.1326Z"/>
  </g>
  <line id="Baseline-S" style="fill:none;stroke:#27AAE1;opacity:1;stroke-width:0.5;" x1="263" x2="3036" y1="696" y2="696"/>
  <line id="Capline-S" style="fill:none;stroke:#27AAE1;opacity:1;stroke-width:0.5;" x1="263" x2="3036" y1="625.541" y2="625.541"/>
  <g id="H-reference" style="fill:#27AAE1;stroke:none;" transform="matrix(1 0 0 1 339 1126)">
   <path d="M0.993347 0L3.6377 0L29.3282-67.1326L30.0301-67.1326L30.0301-70.459L28.1227-70.459ZM11.6882-24.4797L46.9818-24.4797L46.2311-26.7288L12.4382-26.7288ZM55.1193 0L57.7637 0L30.6381-70.459L29.4327-70.459L29.4327-67.1326Z"/>
  </g>
  <line id="Baseline-M" style="fill:none;stroke:#27AAE1;opacity:1;stroke-width:0.5;" x1="263" x2="3036" y1="1126" y2="1126"/>
  <line id="Capline-M" style="fill:none;stroke:#27AAE1;opacity:1;stroke-width:0.5;" x1="263" x2="3036" y1="1055.54" y2="1055.54"/>
  <g id="H-reference" style="fill:#27AAE1;stroke:none;" transform="matrix(1 0 0 1 339 1556)">
   <path d="M0.993347 0L3.6377 0L29.3282-67.1326L30.0301-67.1326L30.0301-70.459L28.1227-70.459ZM11.6882-24.4797L46.9818-24.4797L46.2311-26.7288L12.4382-26.7288ZM55.1193 0L57.7637 0L30.6381-70.459L29.4327-70.459L29.4327-67.1326Z"/>
  </g>
  <line id="Baseline-L" style="fill:none;stroke:#27AAE1;opacity:1;stroke-width:0.5;" x1="263" x2="3036" y1="1556" y2="1556"/>
  <line id="Capline-L" style="fill:none;stroke:#27AAE1;opacity:1;stroke-width:0.5;" x1="263" x2="3036" y1="1485.54" y2="1485.54"/>
  <line id="left-margin" style="fill:none;stroke:#00AEEF;stroke-width:0.5;opacity:1.0;" x1="1402.15" x2="1402.15" y1="1030.79" y2="1150.12"/>
  <line id="right-margin" style="fill:none;stroke:#00AEEF;stroke-width:0.5;opacity:1.0;" x1="1497.54" x2="1497.54" y1="1030.79" y2="1150.12"/>
 </g>
 <g id="Symbols">
  <g id="Black-L" transform="matrix(1 0 0 1 2868.45 1556)">
   <path d="M55.466-51.4686Q61.8684-51.4686 66.4006-56.0196Q70.9329-60.5707 70.9329-66.9563Q70.9329-73.3806 66.4006-77.9025Q61.8684-82.4244 55.466-82.4244Q49.0793-82.4244 44.5178-77.9025Q39.9563-73.3806 39.9563-66.9563Q39.9563-60.5707 44.5178-56.0196Q49.0793-51.4686 55.466-51.4686ZM24.0122 49.8764L58.1046 49.8764Q61.6815 49.8764 63.5471 48.1502Q65.4127 46.424 65.9524 43.3649L71.5735 12.4123L96.1543 12.4123L91.073 40.4302Q90.3348 44.5832 92.6091 47.0805Q94.8834 49.5779 97.9205 49.8764Q100.738 50.176 103.483 48.6685Q106.228 47.161 106.887 43.3649L113.486 6.50534Q114.303 2.08912 112.098-0.547076Q109.893-3.18327 106.638-3.50377L83.8381-6.07361L85.7865-27.003Q85.9266-28.4415 87.2106-28.4415L105.799-28.4415Q109.112-28.4415 111.459-30.8176Q113.806-33.1937 113.806-36.4501L113.806-73.8934Q113.806-76.3312 112.408-78.3576Q111.01-80.3841 108.813-81.2818Q103.9-83.3771 100.088-79.5655L62.7043-42.1014Q60.1201-39.538 58.4991-36.2636Q56.8781-32.9892 56.4772-28.865L50.7966 33.9615L24.0122 33.9615Q20.6754 33.9615 18.3797 36.2578Q16.084 38.5542 16.084 41.8689Q16.084 45.2045 18.3797 47.5404Q20.6754 49.8764 24.0122 49.8764ZM98.4755-56.0655L98.4755-43.8526L86.181-43.8526ZM82.3154-78.5744L99.6131-63.0763L104.904-69.0812L87.8258-84.5209ZM45.6218-105.479L80.332-74.1794Q82.3249-72.385 84.7722-72.5745Q87.2196-72.7639 89.0152-74.6399L92.2976-78.0611Q94.2528-80.1332 94.0536-82.6792Q93.8543-85.2252 91.9407-86.8831L56.9892-118.402Q55.1132-120.118 52.5568-119.969Q50.0004-119.819 48.2256-117.826L45.0457-114.221Q43.3305-112.324 43.4407-109.847Q43.551-107.37 45.6218-105.479Z"/>
  </g>
  <g id="Heavy-L" transform="matrix(1 0 0 1 2572.63 1556)">
   <path d="M55.2705-51.4608Q61.4765-51.4608 65.8789-55.8704Q70.2813-60.28 70.2813-66.5018Q70.2813-72.7436 65.8789-77.1309Q61.4765-81.5182 55.2705-81.5182Q49.0431-81.5182 44.6184-77.1309Q40.1937-72.7436 40.1937-66.5018Q40.1937-60.28 44.6184-55.8704Q49.0431-51.4608 55.2705-51.4608ZM23.6598 48.4048L57.2999 48.4048Q60.735 48.4048 62.5044 46.7632Q64.2738 45.1217 64.7954 42.1723L70.3854 11.4152L95.1877 11.4152L90.1192 39.3749Q89.4223 43.3405 91.5776 45.7325Q93.7328 48.1246 96.6464 48.4048Q99.3545 48.6907 101.969 47.2518Q104.583 45.8129 105.205 42.1723L111.727 5.80595Q112.499 1.56347 110.406-0.953631Q108.314-3.47073 105.2-3.78684L82.4228-6.3434L84.3718-27.3879Q84.5025-28.914 85.9249-28.914L104.393-28.914Q107.551-28.914 109.797-31.1826Q112.044-33.4512 112.044-36.5703L112.044-73.5297Q112.044-75.8716 110.707-77.8018Q109.371-79.732 107.265-80.584Q102.567-82.574 98.9478-78.9548L62.0385-41.9651Q59.5089-39.4657 57.9359-36.2688Q56.3629-33.0719 55.9664-29.0525L50.3261 33.2084L23.6598 33.2084Q20.4603 33.2084 18.2722 35.3994Q16.084 37.5904 16.084 40.7542Q16.084 43.948 18.2722 46.1764Q20.4603 48.4048 23.6598 48.4048ZM97.2934-56.2407L97.2934-43.7445L84.7112-43.7445ZM81.9042-77.9081L98.528-63.0343L103.34-68.496L86.9216-83.3251ZM45.3856-104.68L79.7108-73.7248Q81.5845-72.0263 83.8769-72.2067Q86.1693-72.3871 87.8733-74.1715L91.1684-77.5917Q93.0278-79.5402 92.8351-81.9174Q92.6425-84.2947 90.8436-85.8793L56.2771-117.04Q54.4927-118.67 52.1003-118.527Q49.708-118.384 48.0341-116.51L44.8552-112.888Q43.2316-111.073 43.3371-108.755Q43.4427-106.438 45.3856-104.68Z"/>
  </g>
  <g id="Bold-L" transform="matrix(1 0 0 1 2277.05 1556)">
   <path d="M54.8831-51.4307Q60.8509-51.4307 65.0918-55.6674Q69.3328-59.904 69.3328-65.9183Q69.3328-71.9373 65.0918-76.1594Q60.8509-80.3814 54.8831-80.3814Q48.8554-80.3814 44.5998-76.1594Q40.3442-71.9373 40.3442-65.9183Q40.3442-59.904 44.5998-55.6674Q48.8554-51.4307 54.8831-51.4307ZM23.2443 46.5016L56.2713 46.5016Q59.5371 46.5016 61.1948 44.9601Q62.8525 43.4186 63.3511 40.6001L68.8879 10.1633L93.8549 10.1633L88.8166 37.9643Q88.1661 41.7067 90.1827 43.9756Q92.1993 46.2445 94.9668 46.5016Q97.544 46.7721 100.004 45.4141Q102.465 44.0561 103.048 40.6001L109.463 4.90045Q110.181 0.865716 108.219-1.5128Q106.258-3.89131 103.313-4.19987L80.6336-6.73352L82.5751-27.8345Q82.6981-29.4533 84.2671-29.4533L102.544-29.4533Q105.518-29.4533 107.645-31.5949Q109.772-33.7365 109.772-36.694L109.772-72.9945Q109.772-75.2211 108.509-77.0396Q107.246-78.8581 105.247-79.6562Q100.803-81.523 97.4074-78.1272L61.1492-41.7886Q58.6888-39.366 57.1734-36.2652Q55.658-33.1644 55.2692-29.2757L49.69 32.1518L23.2443 32.1518Q20.2063 32.1518 18.1452 34.2197Q16.084 36.2875 16.084 39.2743Q16.084 42.2989 18.1452 44.4003Q20.2063 46.5016 23.2443 46.5016ZM95.7141-56.359L95.7141-43.5915L82.8528-43.5915ZM81.2703-77.0263L97.0493-62.9285L101.277-67.7289L85.6881-81.7974ZM45.0117-103.57L78.8232-73.0743Q80.5583-71.4913 82.6586-71.6602Q84.7588-71.8291 86.3551-73.5056L89.6805-76.9408Q91.4245-78.743 91.2432-80.9128Q91.062-83.0825 89.3941-84.5823L55.3414-115.268Q53.6646-116.797 51.476-116.662Q49.2873-116.527 47.7288-114.791L44.5351-111.131Q43.0192-109.416 43.1209-107.295Q43.2226-105.173 45.0117-103.57Z"/>
  </g>
  <g id="Semibold-L" transform="matrix(1 0 0 1 1981.12 1556)">
   <path d="M54.616-51.41Q60.4195-51.41 64.5492-55.5274Q68.6789-59.6448 68.6789-65.5162Q68.6789-71.3815 64.5492-75.4896Q60.4195-79.5977 54.616-79.5977Q48.726-79.5977 44.587-75.4896Q40.448-71.3815 40.448-65.5162Q40.448-59.6448 44.587-55.5274Q48.726-51.41 54.616-51.41ZM22.9578 45.1896L55.5621 45.1896Q58.7113 45.1896 60.292 43.7171Q61.8727 42.2445 62.3555 39.5162L67.8554 9.30022L92.9361 9.30022L87.9186 36.9918Q87.3 40.5805 89.2211 42.7645Q91.1422 44.9484 93.8089 45.1896Q96.2959 45.4495 98.6501 44.1472Q101.004 42.8449 101.561 39.5162L107.902 4.2762Q108.583 0.384691 106.712-1.89828Q104.84-4.18126 102.012-4.48462L79.4001-7.00247L81.3365-28.1424Q81.4541-29.8251 83.1243-29.8251L101.27-29.8251Q104.116-29.8251 106.161-31.8791Q108.206-33.9331 108.206-36.7793L108.206-72.6255Q108.206-74.7726 106.993-76.5141Q105.78-78.2557 103.856-79.0165Q99.5872-80.7984 96.3454-77.5566L60.5361-41.6669Q58.1234-39.2974 56.6477-36.2628Q55.1721-33.2282 54.7886-29.4295L49.2515 31.4234L22.9578 31.4234Q20.0312 31.4234 18.0576 33.4064Q16.084 35.3893 16.084 38.254Q16.084 41.162 18.0576 43.1758Q20.0312 45.1896 22.9578 45.1896ZM94.6253-56.4406L94.6253-43.486L81.5716-43.486ZM80.8333-76.4183L96.0298-62.8555L99.8545-67.2L84.8377-80.7443ZM44.7539-102.804L78.2113-72.6258Q79.8509-71.1224 81.8186-71.2834Q83.7864-71.4444 85.3085-73.0465L88.6547-76.492Q90.3192-78.1934 90.1458-80.2201Q89.9724-82.2468 88.3949-83.6882L54.6963-114.046Q53.0938-115.506 51.0455-115.376Q48.9972-115.246 47.5184-113.607L44.3144-109.92Q42.8728-108.274 42.9718-106.288Q43.0708-104.302 44.7539-102.804Z"/>
  </g>
  <g id="Medium-L" transform="matrix(1 0 0 1 1685 1556)">
   <path d="M54.4135-51.3943Q60.0925-51.3943 64.1378-55.4212Q68.1831-59.4482 68.1831-65.2112Q68.1831-70.9601 64.1378-74.9818Q60.0925-79.0035 54.4135-79.0035Q48.6279-79.0035 44.5773-74.9818Q40.5267-70.9601 40.5267-65.2112Q40.5267-59.4482 44.5773-55.4212Q48.6279-51.3943 54.4135-51.3943ZM22.7406 44.1948L55.0244 44.1948Q58.0852 44.1948 59.6075 42.7746Q61.1298 41.3543 61.6006 38.6944L67.0726 8.64582L92.2394 8.64582L87.2378 36.2544Q86.6433 39.7265 88.4919 41.8461Q90.3406 43.9657 92.9309 44.1948Q95.3496 44.4466 97.6233 43.1865Q99.8971 41.9265 100.433 38.6944L106.719 3.80287Q107.372 0.019958 105.568-2.19057Q103.765-4.40111 101.026-4.70052L78.4648-7.2064L80.3973-28.3758Q80.5108-30.107 82.2577-30.107L100.304-30.107Q103.053-30.107 105.036-32.0946Q107.018-34.0823 107.018-36.844L107.018-72.3457Q107.018-74.4325 105.844-76.1157Q104.669-77.7989 102.801-78.5315Q98.6652-80.249 95.5402-77.124L60.0712-41.5746Q57.6946-39.2453 56.2491-36.2609Q54.8036-33.2765 54.4242-29.5462L48.919 30.8711L22.7406 30.8711Q19.8984 30.8711 17.9912 32.7897Q16.084 34.7082 16.084 37.4804Q16.084 40.2999 17.9912 42.2474Q19.8984 44.1948 22.7406 44.1948ZM93.7997-56.5025L93.7997-43.406L80.6002-43.406ZM80.5019-75.9574L95.2569-62.8002L98.7761-66.799L84.1928-79.9457ZM44.5584-102.224L77.7473-72.2858Q79.3145-70.8427 81.1818-70.9977Q83.0491-71.1527 84.5148-72.6984L87.8769-76.1518Q89.4812-77.7767 89.3137-79.695Q89.1463-81.6132 87.6372-83.0103L54.2071-113.12Q52.661-114.527 50.7191-114.401Q48.7772-114.276 47.3588-112.708L44.1471-109.002Q42.7618-107.409 42.8588-105.525Q42.9558-103.641 44.5584-102.224Z"/>
  </g>
  <g id="Regular-L" transform="matrix(1 0 0 1 1389.07 1556)">
   <path d="M54.1494-51.3738Q59.6659-51.3738 63.6012-55.2828Q67.5365-59.1918 67.5365-64.8134Q67.5365-70.4103 63.6012-74.3194Q59.6659-78.2284 54.1494-78.2284Q48.4999-78.2284 44.5646-74.3194Q40.6293-70.4103 40.6293-64.8134Q40.6293-59.1918 44.5646-55.2828Q48.4999-51.3738 54.1494-51.3738ZM22.4572 42.8972L54.323 42.8972Q57.2684 42.8972 58.7146 41.5452Q60.1608 40.1931 60.6159 37.6224L66.0515 7.79226L91.3307 7.79226L86.3497 35.2925Q85.7867 38.6126 87.5409 40.6482Q89.295 42.6838 91.7858 42.8972Q94.1152 43.1385 96.284 41.9336Q98.4528 40.7286 98.9628 37.6224L105.175 3.18549Q105.791-0.455781 104.077-2.57182Q102.363-4.68787 99.7395-4.98213L77.2449-7.47239L79.1722-28.6803Q79.2805-30.4747 81.1274-30.4747L99.0432-30.4747Q101.667-30.4747 103.568-32.3757Q105.469-34.2768 105.469-36.9284L105.469-71.9808Q105.469-73.989 104.345-75.596Q103.22-77.203 101.426-77.8989Q97.4627-79.5324 94.4899-76.5597L59.4649-41.4542Q57.1354-39.1774 55.7292-36.2585Q54.323-33.3396 53.9488-29.6984L48.4853 30.1507L22.4572 30.1507Q19.7253 30.1507 17.9046 31.9853Q16.084 33.8199 16.084 36.4714Q16.084 39.1755 17.9046 41.0364Q19.7253 42.8972 22.4572 42.8972ZM92.7229-56.5832L92.7229-43.3016L79.3331-43.3016ZM80.0697-75.3561L94.2486-62.728L97.3694-66.276L83.3518-78.9041ZM44.3035-101.467L77.1421-71.8423Q78.6148-70.4779 80.3511-70.6251Q82.0874-70.7722 83.4797-72.2444L86.8624-75.708Q88.3881-77.2332 88.2284-79.01Q88.0687-80.7867 86.649-82.126L53.5691-111.911Q52.0964-113.251 50.2934-113.13Q48.4904-113.009 47.1506-111.537L43.9288-107.805Q42.6169-106.279 42.7113-104.529Q42.8057-102.779 44.3035-101.467Z"/>
  </g>
  <g id="Light-L" transform="matrix(1 0 0 1 1093.43 1556)">
   <path d="M52.9469-51.2211Q58.33-51.2211 62.1507-55.0251Q65.9713-58.8292 65.9713-64.2789Q65.9713-69.7424 62.1507-73.5464Q58.33-77.3504 52.9469-77.3504Q47.45-77.3504 43.6294-73.5464Q39.8087-69.7424 39.8087-64.2789Q39.8087-58.8292 43.6294-55.0251Q47.45-51.2211 52.9469-51.2211ZM22.3046 41.065L53.4069 41.065Q56.276 41.065 57.6935 39.7511Q59.1109 38.4372 59.5471 35.9239L64.849 6.81906L89.5366 6.81906L84.6701 33.6511Q84.1071 36.8759 85.8231 38.8734Q87.5391 40.8709 89.9728 41.065Q92.2448 41.3063 94.3564 40.13Q96.468 38.9538 96.9968 35.9239L103.057 2.30753Q103.654-1.23818 101.978-3.31607Q100.302-5.39395 97.7547-5.6693L75.7753-8.10216L77.6453-28.7948Q77.7728-30.551 79.5623-30.551L97.0772-30.551Q99.6246-30.551 101.478-32.4043Q103.332-34.2575 103.332-36.852L103.332-71.0647Q103.332-73.0158 102.236-74.5941Q101.14-76.1724 99.3833-76.8491Q95.516-78.4445 92.6006-75.5291L58.4343-41.2824Q56.1623-39.0436 54.7846-36.1916Q53.4069-33.3396 53.0519-29.7939L47.7029 28.6238L22.3046 28.6238Q19.6297 28.6238 17.8568 30.4202Q16.084 32.2166 16.084 34.8111Q16.084 37.4389 17.8568 39.2519Q19.6297 41.065 22.3046 41.065ZM90.8907-56.0297L90.8907-43.0727L77.8061-43.0727ZM78.8291-74.3829L92.3593-62.3083L95.1363-65.4744L81.7677-77.549ZM43.5211-99.921L75.7681-70.8306Q77.2026-69.5237 78.8052-69.6613Q80.4078-69.799 81.7619-71.2327L85.2591-74.8111Q86.7277-76.2789 86.5965-77.9221Q86.4654-79.5653 85.0649-80.8853L52.5767-110.137Q51.1421-111.457 49.4823-111.336Q47.8224-111.215 46.5016-109.781L43.1653-105.916Q41.8916-104.447 41.9956-102.821Q42.0996-101.195 43.5211-99.921Z"/>
  </g>
  <g id="Thin-L" transform="matrix(1 0 0 1 798.128 1556)">
   <path d="M51.3565-51.0193Q56.5632-51.0193 60.2323-54.6844Q63.9013-58.3495 63.9013-63.5719Q63.9013-68.859 60.2323-72.5242Q56.5632-76.1893 51.3565-76.1893Q46.0616-76.1893 42.3925-72.5242Q38.7235-68.859 38.7235-63.5719Q38.7235-58.3495 42.3925-54.6844Q46.0616-51.0193 51.3565-51.0193ZM22.1027 38.6417L52.1953 38.6417Q54.9634 38.6417 56.3429 37.3783Q57.7225 36.1149 58.1336 33.6775L63.2587 5.53194L87.1638 5.53194L82.4487 31.4802Q81.8857 34.579 83.5513 36.526Q85.2168 38.473 87.575 38.6417Q89.7711 38.883 91.807 37.7447Q93.8428 36.6065 94.3967 33.6775L100.255 1.14636Q100.827-2.27297 99.2013-4.30039Q97.576-6.3278 95.1295-6.57813L73.8317-8.93508L75.6257-28.9462Q75.7787-30.6519 77.4923-30.6519L94.4771-30.6519Q96.9236-30.6519 98.7142-32.442Q100.505-34.2321 100.505-36.7511L100.505-69.853Q100.505-71.7287 99.4465-73.269Q98.388-74.8094 96.6823-75.4606Q92.9413-77.0055 90.1018-74.166L57.0712-41.055Q54.8751-38.8668 53.5352-36.1032Q52.1953-33.3396 51.8658-29.9203L46.6681 26.6042L22.1027 26.6042Q19.5033 26.6042 17.7936 28.3502Q16.084 30.0961 16.084 32.6151Q16.084 35.142 17.7936 36.8919Q19.5033 38.6417 22.1027 38.6417ZM88.4674-55.2977L88.4674-42.7699L75.7866-42.7699ZM77.1883-73.0958L89.8606-61.7531L92.183-64.4141L79.6727-75.7568ZM42.4863-97.8765L73.9509-69.4926Q75.3349-68.2615 76.7607-68.3867Q78.1864-68.5119 79.4901-69.8947L83.1386-73.6249Q84.5317-75.0168 84.4383-76.4834Q84.3449-77.95 82.9699-79.2445L51.2641-107.789Q49.88-109.084 48.4095-108.963Q46.939-108.843 45.6433-107.458L42.1555-103.417Q40.9323-102.024 41.049-100.562Q41.1657-99.0997 42.4863-97.8765Z"/>
  </g>
  <g id="Ultralight-L" transform="matrix(1 0 0 1 502.141 1556)">
   <path d="M50.542-50.9159Q55.6583-50.9159 59.2497-54.5099Q62.8411-58.1038 62.8411-63.2098Q62.8411-68.4066 59.2497-72.0006Q55.6583-75.5945 50.542-75.5945Q45.3504-75.5945 41.759-72.0006Q38.1676-68.4066 38.1676-63.2098Q38.1676-58.1038 41.759-54.5099Q45.3504-50.9159 50.542-50.9159ZM21.9993 37.4005L51.5747 37.4005Q54.2911 37.4005 55.6512 36.163Q57.0113 34.9254 57.4096 32.5269L62.4441 4.87268L85.9485 4.87268L81.3109 30.3682Q80.748 33.4026 82.3876 35.3237Q84.0273 37.2449 86.3468 37.4005Q88.504 37.6418 90.5011 36.523Q92.4982 35.4042 93.0649 32.5269L98.8195 0.551619Q99.3786-2.80298 97.7792-4.80455Q96.1797-6.80612 93.785-7.04363L72.8362-9.3617L74.5913-29.0237Q74.7574-30.7036 76.4321-30.7036L93.1454-30.7036Q95.5401-30.7036 97.2985-32.4613Q99.057-34.2191 99.057-36.6994L99.057-69.2324Q99.057-71.0694 98.0178-72.5903Q96.9787-74.1113 95.2988-74.7494Q91.6226-76.2685 88.822-73.4679L56.3731-40.9386Q54.2159-38.7762 52.8953-36.0579Q51.5747-33.3396 51.2582-29.985L46.1381 25.5698L21.9993 25.5698Q19.4386 25.5698 17.7613 27.2899Q16.084 29.01 16.084 31.4904Q16.084 33.9655 17.7613 35.683Q19.4386 37.4005 21.9993 37.4005ZM87.2262-54.9228L87.2262-42.6148L74.7522-42.6148ZM76.3478-72.4366L88.5807-61.4688L90.6703-63.8711L78.5997-74.8388ZM41.9563-96.8293L73.0201-68.8073Q74.3783-67.6151 75.7135-67.7339Q77.0486-67.8526 78.3264-69.2094L82.0525-73.0174Q83.407-74.3704 83.3329-75.7465Q83.2588-77.1226 81.8969-78.4041L50.5918-106.587Q49.2336-107.868 47.8601-107.748Q46.4866-107.627 45.2036-106.269L41.6383-102.137Q40.441-100.783 40.5642-99.4046Q40.6874-98.0266 41.9563-96.8293Z"/>
  </g>
  <g id="Black-M" transform="matrix(1 0 0 1 2882.47 1126)">
   <path d="M42.977-47.7966Q48.0878-47.7966 51.6952-51.4298Q55.3027-55.0631 55.3027-60.1278Q55.3027-65.2437 51.6952-68.8484Q48.0878-72.4532 42.977-72.4532Q37.9126-72.4532 34.2766-68.8484Q30.6406-65.2437 30.6406-60.1278Q30.6406-55.0631 34.2766-51.4298Q37.9126-47.7966 42.977-47.7966ZM18.8854 31.7221L45.5836 31.7221Q48.4662 31.7221 49.9903 30.3171Q51.5145 28.9122 51.9457 26.4556L56.309 2.40568L75.0823 2.40568L71.1502 24.0718Q70.5428 27.4374 72.402 29.4576Q74.2612 31.4778 76.7126 31.7221Q78.9822 31.9661 81.2129 30.743Q83.4436 29.5199 83.9885 26.4556L89.1464-2.41364Q89.8164-5.97144 88.0169-8.111Q86.2174-10.2506 83.5841-10.5001L65.97-12.4947L67.4714-28.5408Q67.5905-29.5747 68.4586-29.5747L82.9088-29.5747Q85.5993-29.5747 87.4976-31.5016Q89.3959-33.4284 89.3959-36.0615L89.3959-65.3724Q89.3959-67.3358 88.2637-68.9846Q87.1314-70.6334 85.3553-71.3657Q81.377-73.0743 78.2663-69.9636L49.0122-40.6472Q46.9709-38.6115 45.6777-36.0171Q44.3846-33.4228 44.0727-30.1504L39.6526 18.816L18.8854 18.816Q16.19 18.816 14.3255 20.6804Q12.4609 22.5448 12.4609 25.235Q12.4609 27.9307 14.3255 29.8264Q16.19 31.7221 18.8854 31.7221ZM77.0608-51.1465L77.0608-41.9721L67.8244-41.9721ZM63.9584-69.2514L77.851-56.7828L82.3156-61.8502L68.6047-74.2617ZM35.4421-90.1319L62.5843-65.6593Q64.2254-64.1944 66.2366-64.3477Q68.2478-64.501 69.7124-66.0279L72.26-68.6949Q73.8495-70.3986 73.6933-72.498Q73.5371-74.5974 71.9586-75.9424L44.6295-100.597Q43.1026-101.999 41.0004-101.877Q38.8983-101.755 37.4391-100.114L34.959-97.3171Q33.5567-95.7847 33.6474-93.7451Q33.7381-91.7056 35.4421-90.1319Z"/>
  </g>
  <g id="Heavy-M" transform="matrix(1 0 0 1 2586.52 1126)">
   <path d="M42.8968-47.8031Q47.828-47.8031 51.319-51.3077Q54.8101-54.8124 54.8101-59.7327Q54.8101-64.6826 51.319-68.1655Q47.828-71.6483 42.8968-71.6483Q37.9741-71.6483 34.4613-68.1655Q30.9484-64.6826 30.9484-59.7327Q30.9484-54.8124 34.4613-51.3077Q37.9741-47.8031 42.8968-47.8031ZM18.555 30.4525L44.8814 30.4525Q47.6325 30.4525 49.0653 29.1268Q50.498 27.8011 50.9132 25.4465L55.2586 1.52071L74.303 1.52071L70.3728 23.1916Q69.8058 26.3828 71.552 28.3036Q73.2983 30.2243 75.6342 30.4525Q77.8019 30.6831 79.9104 29.5245Q82.0189 28.3659 82.5258 25.4465L87.6229-3.01635Q88.2499-6.41312 86.5566-8.43978Q84.8633-10.4664 82.3614-10.7134L64.7221-12.7003L66.2293-28.9065Q66.3375-30.0296 67.3461-30.0296L81.7157-30.0296Q84.2612-30.0296 86.0655-31.8558Q87.8699-33.6819 87.8699-36.186L87.8699-65.1015Q87.8699-66.9763 86.7954-68.5337Q85.7209-70.091 84.0307-70.7804Q80.2538-72.3896 77.326-69.4617L48.4564-40.5299Q46.4633-38.5531 45.2143-36.0284Q43.9654-33.5036 43.6561-30.3249L39.2648 18.2207L18.555 18.2207Q15.9886 18.2207 14.2248 19.9857Q12.4609 21.7506 12.4609 24.2984Q12.4609 26.8626 14.2248 28.6575Q15.9886 30.4525 18.555 30.4525ZM76.0743-51.3688L76.0743-41.8875L66.5284-41.8875ZM63.671-68.6898L76.9646-56.7805L80.9924-61.352L67.867-73.2177ZM35.2834-89.4937L62.1038-65.3082Q63.632-63.9318 65.504-64.0771Q67.376-64.2224 68.7546-65.6633L71.3041-68.3187Q72.8051-69.907 72.6527-71.8537Q72.5004-73.8005 71.0322-75.0755L44.0249-99.4292Q42.584-100.748 40.629-100.633Q38.674-100.517 37.3117-98.9891L34.8433-96.1881Q33.5269-94.7307 33.6122-92.8358Q33.6974-90.9409 35.2834-89.4937Z"/>
  </g>
  <g id="Bold-M" transform="matrix(1 0 0 1 2290.67 1126)">
   <path d="M42.807-47.8103Q47.5373-47.8103 50.8981-51.1711Q54.259-54.5319 54.259-59.2909Q54.259-64.055 50.8981-67.4015Q47.5373-70.748 42.807-70.748Q38.0429-70.748 34.6678-67.4015Q31.2927-64.055 31.2927-59.2909Q31.2927-54.5319 34.6678-51.1711Q38.0429-47.8103 42.807-47.8103ZM18.1855 29.0324L44.096 29.0324Q46.7 29.0324 48.0304 27.7953Q49.3609 26.5582 49.7582 24.3177L54.0836 0.530755L73.4312 0.530755L69.503 22.207Q68.9813 25.2031 70.6012 27.0126Q72.2212 28.8221 74.428 29.0324Q76.4815 29.2478 78.4533 28.1613Q80.4251 27.0749 80.8897 24.3177L85.9186-3.69057Q86.4976-6.90721 84.9231-8.80756Q83.3485-10.7079 80.9938-10.952L63.3262-12.9303L64.8398-29.3156Q64.9358-30.5385 66.1017-30.5385L80.381-30.5385Q82.7643-30.5385 84.4636-32.2519Q86.1628-33.9654 86.1628-36.3253L86.1628-64.7984Q86.1628-66.5742 85.1528-68.0293Q84.1429-69.4844 82.5489-70.1256Q78.9974-71.6236 76.2741-68.9003L47.8347-40.3986Q45.8954-38.4879 44.6959-36.041Q43.4965-33.594 43.1901-30.5201L38.831 17.5547L18.1855 17.5547Q15.7632 17.5547 14.1121 19.2085Q12.4609 20.8622 12.4609 23.2507Q12.4609 25.6678 14.1121 27.3501Q15.7632 29.0324 18.1855 29.0324ZM74.9706-51.6175L74.9706-41.7929L65.0786-41.7929ZM63.3494-68.0616L75.973-56.7779L79.5121-60.7948L67.0418-72.05ZM35.1059-88.7796L61.5663-64.9154Q62.9682-63.6381 64.6844-63.7744Q66.4007-63.9107 67.6832-65.2555L70.2348-67.8979Q71.6368-69.357 71.4887-71.133Q71.3406-72.909 69.9959-74.1058L43.3486-98.1232Q42.0038-99.3484 40.2135-99.2407Q38.4232-99.133 37.1693-97.7311L34.7138-94.9252Q33.4936-93.5518 33.5728-91.8186Q33.6519-90.0855 35.1059-88.7796Z"/>
  </g>
  <g id="Semibold-M" transform="matrix(1 0 0 1 1994.54 1126)">
   <path d="M42.7451-47.8154Q47.337-47.8154 50.608-51.077Q53.879-54.3386 53.879-58.9863Q53.879-63.6223 50.608-66.8748Q47.337-70.1273 42.7451-70.1273Q38.0903-70.1273 34.8102-66.8748Q31.5301-63.6223 31.5301-58.9863Q31.5301-54.3386 34.8102-51.077Q38.0903-47.8154 42.7451-47.8154ZM17.9307 28.0533L43.5545 28.0533Q46.0571 28.0533 47.317 26.8773Q48.577 25.7013 48.9619 23.5395L53.2735-0.151717L72.8302-0.151717L68.9035 21.5282Q68.4129 24.3898 69.9458 26.1226Q71.4787 27.8554 73.5964 28.0533Q75.5713 28.2584 77.4488 27.2216Q79.3264 26.1849 79.7617 23.5395L84.7437-4.15537Q85.2896-7.24783 83.7969-9.06111Q82.3043-10.8744 80.0509-11.1166L62.3638-13.0889L63.8819-29.5976Q63.9695-30.8893 65.2437-30.8893L79.4609-30.8893Q81.7324-30.8893 83.3592-32.5251Q84.9859-34.1608 84.9859-36.4214L84.9859-64.5894Q84.9859-66.297 84.0205-67.6816Q83.0551-69.0662 81.5273-69.6742Q78.1312-71.0955 75.5489-68.5133L47.4061-40.3081Q45.5039-38.4429 44.3385-36.0496Q43.1732-33.6564 42.8688-30.6547L38.532 17.0956L17.9307 17.0956Q15.6079 17.0956 14.0344 18.6727Q12.4609 20.2497 12.4609 22.5284Q12.4609 24.8441 14.0344 26.4487Q15.6079 28.0533 17.9307 28.0533ZM74.2098-51.7889L74.2098-41.7277L64.0791-41.7277ZM63.1277-67.6285L75.2894-56.7761L78.4917-60.4106L66.4728-71.2449ZM34.9835-88.2874L61.1957-64.6446Q62.5105-63.4356 64.1195-63.5657Q65.7284-63.6959 66.9446-64.9743L69.4976-67.6078Q70.8314-68.9778 70.6862-70.6361Q70.5411-72.2944 69.2815-73.4372L42.8824-97.2228Q41.6039-98.3837 39.9271-98.2812Q38.2503-98.1787 37.071-96.8638L34.6245-94.0546Q33.4706-92.739 33.5456-91.1174Q33.6205-89.4958 34.9835-88.2874Z"/>
  </g>
  <g id="Medium-M" transform="matrix(1 0 0 1 1698.28 1126)">
   <path d="M42.6982-47.8192Q47.185-47.8192 50.388-51.0056Q53.591-54.192 53.591-58.7553Q53.591-63.2942 50.388-66.4754Q47.185-69.6567 42.6982-69.6567Q38.1262-69.6567 34.9181-66.4754Q31.7101-63.2942 31.7101-58.7553Q31.7101-54.192 34.9181-51.0056Q38.1262-47.8192 42.6982-47.8192ZM17.7375 27.3109L43.1439 27.3109Q45.5696 27.3109 46.7761 26.1813Q47.9826 25.0516 48.3582 22.9495L52.6593-0.669195L72.3745-0.669195L68.4488 21.0136Q67.9819 23.7731 69.4487 25.4478Q70.9156 27.1224 72.9659 27.3109Q74.8811 27.5081 76.6872 26.5091Q78.4933 25.5101 78.9065 22.9495L83.8529-4.5078Q84.3736-7.50611 82.943-9.25336Q81.5124-11.0006 79.336-11.2413L61.6341-13.2092L63.1556-29.8114Q63.2368-31.1553 64.5932-31.1553L78.7632-31.1553Q80.95-31.1553 82.5218-32.7322Q84.0936-34.309 84.0936-36.4942L84.0936-64.431Q84.0936-66.0868 83.1619-67.4179Q82.2302-68.7491 80.7528-69.332Q77.4744-70.6951 74.9991-68.2198L47.0811-40.2395Q45.207-38.4088 44.0675-36.0562Q42.9281-33.7037 42.6252-30.7567L38.3052 16.7475L17.7375 16.7475Q15.4901 16.7475 13.9755 18.2664Q12.4609 19.7853 12.4609 21.9807Q12.4609 24.2195 13.9755 25.7652Q15.4901 27.3109 17.7375 27.3109ZM73.6329-51.9189L73.6329-41.6783L63.3213-41.6783ZM62.9596-67.3002L74.7711-56.7747L77.7179-60.1193L66.0415-70.6345ZM34.8907-87.9141L60.9147-64.4393Q62.1635-63.282 63.6911-63.4075Q65.2186-63.533 66.3846-64.7611L68.9386-67.3879Q70.2207-68.6903 70.0778-70.2594Q69.9349-71.8284 68.7398-72.9303L42.5289-96.5401Q41.3006-97.6522 39.7099-97.5536Q38.1192-97.455 36.9966-96.2062L34.5568-93.3944Q33.4532-92.1227 33.525-90.5857Q33.5967-89.0486 34.8907-87.9141Z"/>
  </g>
  <g id="Regular-M" transform="matrix(1 0 0 1 1402.15 1126)">
   <path d="M42.637-47.8241Q46.9869-47.8241 50.101-50.9124Q53.2152-54.0008 53.2152-58.454Q53.2152-62.8662 50.101-65.9545Q46.9869-69.0429 42.637-69.0429Q38.1731-69.0429 35.059-65.9545Q31.9448-62.8662 31.9448-58.454Q31.9448-54.0008 35.059-50.9124Q38.1731-47.8241 42.637-47.8241ZM17.4855 26.3426L42.6084 26.3426Q44.9338 26.3426 46.0705 25.2734Q47.2073 24.2042 47.5707 22.1798L51.8581-1.34417L71.78-1.34417L67.8558 20.3423Q67.4197 22.9687 68.8005 24.5675Q70.1812 26.1664 72.1434 26.3426Q73.9808 26.5296 75.6937 25.5797Q77.4066 24.6298 77.7909 22.1798L82.6909-4.96749Q83.1789-7.84299 81.8293-9.50412Q80.4796-11.1653 78.4035-11.404L60.6823-13.366L62.2082-30.0903Q62.2811-31.5022 63.7447-31.5022L77.8532-31.5022Q79.9294-31.5022 81.4295-33.0023Q82.9296-34.5024 82.9296-36.5892L82.9296-64.2243Q82.9296-65.8127 82.042-67.074Q81.1544-68.3354 79.7425-68.8855Q76.6177-70.1728 74.2819-67.837L46.6572-40.15Q44.8198-38.3643 43.7141-36.0648Q42.6084-33.7653 42.3075-30.8898L38.0095 16.2934L17.4855 16.2934Q15.3364 16.2934 13.8987 17.7365Q12.4609 19.1796 12.4609 21.2664Q12.4609 23.4048 13.8987 24.8737Q15.3364 26.3426 17.4855 26.3426ZM72.8804-52.0885L72.8804-41.6138L62.3328-41.6138ZM62.7403-66.8718L74.095-56.7729L76.7087-59.7393L65.4788-69.8383ZM34.7696-87.4273L60.5482-64.1715Q61.7109-63.0817 63.1323-63.2011Q64.5537-63.3205 65.6541-64.483L68.2095-67.101Q69.4241-68.3153 69.2841-69.7679Q69.1441-71.2206 68.0333-72.2691L42.0678-95.6496Q40.9051-96.6981 39.4266-96.6047Q37.9481-96.5112 36.8994-95.3485L34.4685-92.5334Q33.4305-91.3188 33.4981-89.8921Q33.5657-88.4654 34.7696-87.4273Z"/>
  </g>
  <g id="Light-M" transform="matrix(1 0 0 1 1106.4 1126)">
   <path d="M41.5589-47.6873Q45.7892-47.6873 48.8006-50.6815Q51.812-53.6756 51.812-57.9748Q51.812-62.2674 48.8006-65.2615Q45.7892-68.2557 41.5589-68.2557Q37.2319-68.2557 34.2205-65.2615Q31.2091-62.2674 31.2091-57.9748Q31.2091-53.6756 34.2205-50.6815Q37.2319-47.6873 41.5589-47.6873ZM17.3487 24.7L41.787 24.7Q44.044 24.7 45.155 23.6649Q46.2661 22.6299 46.6125 20.657L50.78-2.21668L70.1716-2.21668L66.35 18.8706Q65.9139 21.4117 67.2604 22.9763Q68.607 24.5409 70.518 24.7Q72.3039 24.8869 73.9655 23.9627Q75.6271 23.0386 76.0283 20.657L80.7915-5.75463Q81.2625-8.54445 79.9471-10.1714Q78.6317-11.7983 76.624-12.0201L59.3648-13.9306L60.8392-30.193Q60.9294-31.5707 62.3415-31.5707L76.0906-31.5707Q78.0984-31.5707 79.5558-33.0279Q81.0133-34.4851 81.0133-36.5207L81.0133-63.403Q81.0133-64.9402 80.1512-66.1758Q79.2892-67.4115 77.9115-67.9443Q74.8724-69.1974 72.588-66.913L45.7332-39.9959Q43.9473-38.2444 42.8672-36.0049Q41.787-33.7653 41.5034-30.9755L37.308 14.9244L17.3487 14.9244Q15.2508 14.9244 13.8558 16.3333Q12.4609 17.7421 12.4609 19.7778Q12.4609 21.8478 13.8558 23.2739Q15.2508 24.7 17.3487 24.7ZM71.2378-51.5923L71.2378-41.4085L60.9638-41.4085ZM61.628-65.9993L72.4011-56.3966L74.7066-59.0206L64.0586-68.6233ZM34.0681-86.0414L59.3163-63.2645Q60.4448-62.2262 61.7463-62.3371Q63.0478-62.448 64.114-63.576L66.7721-66.2969Q67.9355-67.4598 67.8211-68.7927Q67.7067-70.1256 66.6131-71.1568L41.178-94.0583Q40.0495-95.0896 38.6994-94.9962Q37.3493-94.9027 36.3175-93.7742L33.784-90.8395Q32.7802-89.6761 32.8564-88.3607Q32.9327-87.0452 34.0681-86.0414Z"/>
  </g>
  <g id="Thin-M" transform="matrix(1 0 0 1 810.952 1126)">
   <path d="M40.1331-47.5063Q44.2052-47.5063 47.0807-50.3759Q49.9561-53.2456 49.9561-57.3409Q49.9561-61.4754 47.0807-64.345Q44.2052-67.2147 40.1331-67.2147Q35.9871-67.2147 33.1116-64.345Q30.2361-61.4754 30.2361-57.3409Q30.2361-53.2456 33.1116-50.3759Q35.9871-47.5063 40.1331-47.5063ZM17.1677 22.5274L40.7007 22.5274Q42.8672 22.5274 43.9442 21.5376Q45.0212 20.5478 45.3452 18.643L49.3542-3.37065L68.0442-3.37065L64.3584 16.9243Q63.9223 19.3524 65.2236 20.8718Q66.5249 22.3912 68.3682 22.5274Q70.0861 22.7143 71.6798 21.8242Q73.2735 20.9341 73.6972 18.643L78.2794-6.79567Q78.7279-9.47219 77.4578-11.0539Q76.1876-12.6355 74.2704-12.8349L57.6222-14.6774L59.0286-30.3287Q59.1416-31.6612 60.4856-31.6612L73.7595-31.6612Q75.6767-31.6612 77.0777-33.0617Q78.4787-34.4623 78.4787-36.4302L78.4787-62.3167Q78.4787-63.7862 77.6505-64.9878Q76.8223-66.1894 75.4898-66.6995Q72.5641-67.9073 70.3478-65.691L44.5112-39.7921Q42.7933-38.0858 41.747-35.9256Q40.7007-33.7653 40.4399-31.0888L36.3803 13.1138L17.1677 13.1138Q15.1375 13.1138 13.7992 14.4774Q12.4609 15.841 12.4609 17.809Q12.4609 19.7886 13.7992 21.158Q15.1375 22.5274 17.1677 22.5274ZM69.0652-50.936L69.0652-41.137L59.1532-41.137ZM60.157-64.8454L70.1609-55.8989L72.0588-58.0701L62.1803-67.0165ZM33.1404-84.2083L57.6871-62.0649Q58.7703-61.0946 59.9133-61.1943Q61.0562-61.294 62.0772-62.3764L64.871-65.2334Q65.9667-66.3282 65.8861-67.5028Q65.8056-68.6773 64.7348-69.6858L40.0012-91.9538Q38.918-92.9623 37.7376-92.8688Q36.5573-92.7754 35.548-91.6921L32.8787-88.5992Q31.9201-87.5035 32.0078-86.3352Q32.0954-85.1669 33.1404-84.2083Z"/>
  </g>
  <g id="Ultralight-M" transform="matrix(1 0 0 1 514.89 1126)">
   <path d="M39.4028-47.4136Q43.3939-47.4136 46.1997-50.2195Q49.0056-53.0253 49.0056-57.0163Q49.0056-61.0697 46.1997-63.8756Q43.3939-66.6815 39.4028-66.6815Q35.3495-66.6815 32.5436-63.8756Q29.7378-61.0697 29.7378-57.0163Q29.7378-53.0253 32.5436-50.2195Q35.3495-47.4136 39.4028-47.4136ZM17.075 21.4146L40.1444 21.4146Q42.2645 21.4146 43.3241 20.448Q44.3836 19.4814 44.6961 17.6114L48.6239-3.96171L66.9546-3.96171L63.3383 15.9274Q62.9022 18.2977 64.1803 19.7939Q65.4584 21.2901 67.2671 21.4146Q68.9501 21.6015 70.5091 20.7288Q72.068 19.8562 72.5032 17.6114L76.9927-7.32889Q77.4298-9.94737 76.1828-11.5059Q74.9358-13.0644 73.0649-13.2522L56.7297-15.0599L58.1012-30.3982Q58.2259-31.7075 59.5351-31.7075L72.5655-31.7075Q74.4364-31.7075 75.8085-33.0791Q77.1805-34.4506 77.1805-36.3839L77.1805-61.7603Q77.1805-63.1951 76.3696-64.3793Q75.5588-65.5635 74.2495-66.0619Q71.3818-67.2465 69.2003-65.0651L43.8853-39.6877Q42.2023-38.0046 41.1733-35.885Q40.1444-33.7653 39.8952-31.1468L35.9051 12.1864L17.075 12.1864Q15.0794 12.1864 13.7702 13.5269Q12.4609 14.8673 12.4609 16.8006Q12.4609 18.7338 13.7702 20.0742Q15.0794 21.4146 17.075 21.4146ZM67.9524-50.5999L67.9524-40.998L58.2258-40.998ZM59.4035-64.2543L69.0134-55.644L70.7025-57.5832L61.2183-66.1935ZM32.6652-83.2694L56.8526-61.4504Q57.9127-60.5151 58.9744-60.609Q60.0362-60.7029 61.0339-61.762L63.8973-64.6887Q64.9583-65.7487 64.8951-66.8421Q64.8319-67.9355 63.7728-68.9323L39.3985-90.8759Q38.3384-91.8727 37.245-91.7792Q36.1516-91.6858 35.1538-90.6257L32.415-87.4518Q31.4796-86.3908 31.5731-85.2978Q31.6666-84.2049 32.6652-83.2694Z"/>
  </g>
  <g id="Black-S" transform="matrix(1 0 0 1 2893.31 696)">
   <path d="M33.6426-45.0684Q37.6953-45.0684 40.5518-47.9492Q43.4082-50.8301 43.4082-54.834Q43.4082-58.8867 40.5518-61.7432Q37.6953-64.5996 33.6426-64.5996Q29.6387-64.5996 26.7578-61.7432Q23.877-58.8867 23.877-54.834Q23.877-50.8301 26.7578-47.9492Q29.6387-45.0684 33.6426-45.0684ZM14.8926 17.5293L35.8887 17.5293Q38.1836 17.5293 39.4043 16.4062Q40.625 15.2832 40.9668 13.3301L44.3848-5.51758L58.9844-5.51758L55.9082 11.4258Q55.4199 14.1113 56.9092 15.7227Q58.3984 17.334 60.3516 17.5293Q62.1582 17.7246 63.9404 16.748Q65.7227 15.7715 66.1621 13.3301L70.2148-9.375Q70.752-12.207 69.3115-13.916Q67.8711-15.625 65.7715-15.8203L52.002-17.3828L53.1738-29.8828Q53.2715-30.6641 53.9062-30.6641L65.2344-30.6641Q67.3828-30.6641 68.8965-32.2021Q70.4102-33.7402 70.4102-35.8398L70.4102-58.8867Q70.4102-60.4492 69.5068-61.7676Q68.6035-63.0859 67.1875-63.6719Q64.0137-65.0391 61.5234-62.5488L38.5254-39.502Q36.9141-37.8906 35.8887-35.8398Q34.8633-33.7891 34.6191-31.2012L31.1523 7.22656L14.8926 7.22656Q12.7441 7.22656 11.2549 8.71582Q9.76562 10.2051 9.76562 12.3535Q9.76562 14.502 11.2549 16.0156Q12.7441 17.5293 14.8926 17.5293ZM60.5957-47.6074L60.5957-40.5273L53.4668-40.5273ZM50.1465-62.0117L61.1816-52.0996L64.7949-56.2012L53.9062-66.0645ZM27.7832-78.3691L49.1211-59.1309Q50.4395-57.959 52.0508-58.0811Q53.6621-58.2031 54.834-59.4238L56.8359-61.5234Q58.1055-62.8906 57.9834-64.5752Q57.8613-66.2598 56.5918-67.334L35.1074-86.7188Q33.8867-87.8418 32.2021-87.7441Q30.5176-87.6465 29.3457-86.3281L27.3926-84.1309Q26.2695-82.9102 26.3428-81.2744Q26.416-79.6387 27.7832-78.3691Z"/>
  </g>
  <g id="Heavy-S" transform="matrix(1 0 0 1 2597.13 696)">
   <path d="M33.7117-45.0914Q37.6262-45.0914 40.3962-47.8743Q43.1662-50.6572 43.1662-54.5574Q43.1662-58.4834 40.3962-61.2476Q37.6262-64.0119 33.7117-64.0119Q29.8115-64.0119 27.0229-61.2476Q24.2342-58.4834 24.2342-54.5574Q24.2342-50.6572 27.0229-47.8743Q29.8115-45.0914 33.7117-45.0914ZM14.6275 16.6534L35.3931 16.6534Q37.5843 16.6534 38.7301 15.5938Q39.8759 14.5341 40.2062 12.6617L43.6242-6.16295L58.5234-6.16295L55.4357 10.8611Q54.982 13.4083 56.3791 14.939Q57.7761 16.4696 59.637 16.6534Q61.363 16.8372 63.0473 15.9125Q64.7316 14.9878 65.1364 12.6617L69.1546-9.78988Q69.6571-12.4951 68.3031-14.1119Q66.9491-15.7287 64.9532-15.924L51.103-17.4865L52.2864-30.1824Q52.3726-31.0444 53.1341-31.0444L64.4392-31.0444Q66.4724-31.0444 67.9111-32.5018Q69.3499-33.9592 69.3499-35.9551L69.3499-58.7599Q69.3499-60.2533 68.4927-61.4968Q67.6355-62.7402 66.2886-63.2916Q63.2761-64.5781 60.9357-62.2377L38.1681-39.4213Q36.5914-37.8561 35.6006-35.8571Q34.6097-33.8582 34.3656-31.3395L30.9103 6.89235L14.6275 6.89235Q12.5828 6.89235 11.1742 8.30094Q9.76562 9.70953 9.76562 11.7427Q9.76562 13.7874 11.1742 15.2204Q12.5828 16.6534 14.6275 16.6534ZM59.9619-47.861L59.9619-40.4812L52.5333-40.4812ZM50.0428-61.6429L60.64-52.1457L63.9191-55.867L53.4568-65.3269ZM27.7371-78.0004L48.8676-58.9465Q50.0937-57.8437 51.6013-57.96Q53.1089-58.0764 54.2117-59.2279L56.2021-61.3045Q57.4025-62.5795 57.2804-64.1488Q57.1583-65.7181 55.981-66.7347L34.7041-85.9236Q33.5525-86.9775 31.9774-86.8856Q30.4023-86.7937 29.3111-85.5675L27.3811-83.3818Q26.3272-82.2187 26.3946-80.6924Q26.4621-79.1662 27.7371-78.0004Z"/>
  </g>
  <g id="Bold-S" transform="matrix(1 0 0 1 2301.01 696)">
   <path d="M33.7891-45.1172Q37.5488-45.1172 40.2222-47.7905Q42.8955-50.4639 42.8955-54.248Q42.8955-58.0322 40.2222-60.6934Q37.5488-63.3545 33.7891-63.3545Q30.0049-63.3545 27.3193-60.6934Q24.6338-58.0322 24.6338-54.248Q24.6338-50.4639 27.3193-47.7905Q30.0049-45.1172 33.7891-45.1172ZM14.3311 15.6738L34.8389 15.6738Q36.9141 15.6738 37.9761 14.6851Q39.0381 13.6963 39.3555 11.9141L42.7734-6.88477L58.0078-6.88477L54.9072 10.2295Q54.4922 12.6221 55.7861 14.0625Q57.0801 15.5029 58.8379 15.6738Q60.4736 15.8447 62.0483 14.978Q63.623 14.1113 63.9893 11.9141L67.9688-10.2539Q68.4326-12.8174 67.1753-14.3311Q65.918-15.8447 64.0381-16.04L50.0977-17.6025L51.2939-30.5176Q51.3672-31.4697 52.2705-31.4697L63.5498-31.4697Q65.4541-31.4697 66.8091-32.8369Q68.1641-34.2041 68.1641-36.084L68.1641-58.6182Q68.1641-60.0342 67.3584-61.1938Q66.5527-62.3535 65.2832-62.8662Q62.4512-64.0625 60.2783-61.8896L37.7686-39.3311Q36.2305-37.8174 35.2783-35.8765Q34.3262-33.9355 34.082-31.4941L30.6396 6.51855L14.3311 6.51855Q12.4023 6.51855 11.084 7.83691Q9.76562 9.15527 9.76562 11.0596Q9.76562 12.9883 11.084 14.3311Q12.4023 15.6738 14.3311 15.6738ZM59.2529-48.1445L59.2529-40.4297L51.4893-40.4297ZM49.9268-61.2305L60.0342-52.1973L62.9395-55.4932L52.9541-64.502ZM27.6855-77.5879L48.584-58.7402Q49.707-57.7148 51.0986-57.8247Q52.4902-57.9346 53.5156-59.0088L55.4932-61.0596Q56.6162-62.2314 56.4941-63.6719Q56.3721-65.1123 55.2979-66.0645L34.2529-85.0342Q33.1787-86.0107 31.7261-85.9253Q30.2734-85.8398 29.2725-84.7168L27.3682-82.5439Q26.3916-81.4453 26.4526-80.0415Q26.5137-78.6377 27.6855-77.5879Z"/>
  </g>
  <g id="Semibold-S" transform="matrix(1 0 0 1 2004.71 696)">
   <path d="M33.8424-45.135Q37.4955-45.135 40.1022-47.7328Q42.7089-50.3306 42.7089-54.0348Q42.7089-57.7212 40.1022-60.3112Q37.4955-62.9013 33.8424-62.9013Q30.1382-62.9013 27.5237-60.3112Q24.9093-57.7212 24.9093-54.0348Q24.9093-50.3306 27.5237-47.7328Q30.1382-45.135 33.8424-45.135ZM14.1267 14.9984L34.4567 14.9984Q36.452 14.9984 37.4562 14.0585Q38.4604 13.1187 38.7689 11.3986L42.1869-7.38242L57.6523-7.38242L54.5429 9.79404Q54.1545 12.08 55.3773 13.4582Q56.6002 14.8364 58.2869 14.9984Q59.8604 15.1604 61.3596 14.3337Q62.8588 13.507 63.1983 11.3986L67.1512-10.5738Q67.5884-13.0396 66.3977-14.4821Q65.207-15.9247 63.4071-16.12L49.4045-17.6825L50.6097-30.7486Q50.674-31.763 51.6751-31.763L62.9366-31.763Q64.7521-31.763 66.0493-33.068Q67.3465-34.3729 67.3465-36.1729L67.3465-58.5204Q67.3465-59.8831 66.5764-60.985Q65.8063-62.0869 64.59-62.5729Q61.8824-63.707 59.8251-61.6497L37.4931-39.2688Q35.9816-37.7907 35.0562-35.8898Q34.1307-33.9889 33.8865-31.6008L30.453 6.26084L14.1267 6.26084Q12.2779 6.26084 11.0218 7.51699Q9.76562 8.77314 9.76562 10.5886Q9.76562 12.4373 11.0218 13.7179Q12.2779 14.9984 14.1267 14.9984ZM58.7642-48.34L58.7642-40.3941L50.7694-40.3941ZM49.8468-60.9461L59.6165-52.2328L62.2641-55.2354L52.6075-63.9332ZM27.65-77.3035L48.3885-58.598Q49.4404-57.626 50.7521-57.7314Q52.0637-57.8368 53.0357-58.8577L55.0044-60.8907Q56.0741-61.9915 55.9521-63.3431Q55.83-64.6946 54.8269-65.6023L33.9419-84.421Q32.921-85.3442 31.5528-85.2632Q30.1846-85.1822 29.2458-84.1303L27.3593-81.9663Q26.436-80.9121 26.4926-79.5927Q26.5492-78.2733 27.65-77.3035Z"/>
  </g>
  <g id="Medium-S" transform="matrix(1 0 0 1 1708.31 696)">
   <path d="M33.8828-45.1484Q37.4551-45.1484 40.0112-47.689Q42.5674-50.2295 42.5674-53.873Q42.5674-57.4854 40.0112-60.0215Q37.4551-62.5576 33.8828-62.5576Q30.2393-62.5576 27.6787-60.0215Q25.1182-57.4854 25.1182-53.873Q25.1182-50.2295 27.6787-47.689Q30.2393-45.1484 33.8828-45.1484ZM13.9717 14.4863L34.167 14.4863Q36.1016 14.4863 37.062 13.5835Q38.0225 12.6807 38.3242 11.0078L41.7422-7.75977L57.3828-7.75977L54.2666 9.46387Q53.8984 11.6689 55.0674 13Q56.2363 14.3311 57.8691 14.4863Q59.3955 14.6416 60.8374 13.8452Q62.2793 13.0488 62.5986 11.0078L66.5312-10.8164Q66.9482-13.208 65.8081-14.5967Q64.668-15.9854 62.9287-16.1807L48.8789-17.7432L50.0908-30.9238Q50.1484-31.9854 51.2236-31.9854L62.4717-31.9854Q64.2197-31.9854 65.4731-33.2432Q66.7266-34.501 66.7266-36.2402L66.7266-58.4463Q66.7266-59.7686 65.9834-60.8267Q65.2402-61.8848 64.0645-62.3506Q61.4512-63.4375 59.4814-61.4678L37.2842-39.2217Q35.793-37.7705 34.8877-35.8999Q33.9824-34.0293 33.7383-31.6816L30.3115 6.06543L13.9717 6.06543Q12.1836 6.06543 10.9746 7.27441Q9.76562 8.4834 9.76562 10.2314Q9.76562 12.0195 10.9746 13.2529Q12.1836 14.4863 13.9717 14.4863ZM58.3936-48.4883L58.3936-40.3672L50.2236-40.3672ZM49.7861-60.7305L59.2998-52.2598L61.752-55.04L52.3447-63.502ZM27.623-77.0879L48.2402-58.4902Q49.2383-57.5586 50.4893-57.6606Q51.7402-57.7627 52.6719-58.7432L54.6338-60.7627Q55.6631-61.8096 55.541-63.0938Q55.4189-64.3779 54.4697-65.252L33.7061-83.9561Q32.7256-84.8389 31.4214-84.7612Q30.1172-84.6836 29.2256-83.6855L27.3525-81.5283Q26.4697-80.5078 26.5229-79.2524Q26.5762-77.9971 27.623-77.0879Z"/>
  </g>
  <g id="Regular-S" transform="matrix(1 0 0 1 1412 696)">
   <path d="M33.9355-45.166Q37.4023-45.166 39.8926-47.6318Q42.3828-50.0977 42.3828-53.6621Q42.3828-57.1777 39.8926-59.6436Q37.4023-62.1094 33.9355-62.1094Q30.3711-62.1094 27.8809-59.6436Q25.3906-57.1777 25.3906-53.6621Q25.3906-50.0977 27.8809-47.6318Q30.3711-45.166 33.9355-45.166ZM13.7695 13.8184L33.7891 13.8184Q35.6445 13.8184 36.5479 12.9639Q37.4512 12.1094 37.7441 10.498L41.1621-8.25195L57.0312-8.25195L53.9062 9.0332Q53.5645 11.1328 54.6631 12.4023Q55.7617 13.6719 57.3242 13.8184Q58.7891 13.9648 60.1562 13.208Q61.5234 12.4512 61.8164 10.498L65.7227-11.1328Q66.1133-13.4277 65.0391-14.7461Q63.9648-16.0645 62.3047-16.2598L48.1934-17.8223L49.4141-31.1523Q49.4629-32.2754 50.6348-32.2754L61.8652-32.2754Q63.5254-32.2754 64.7217-33.4717Q65.918-34.668 65.918-36.3281L65.918-58.3496Q65.918-59.6191 65.21-60.6201Q64.502-61.6211 63.3789-62.0605Q60.8887-63.0859 59.0332-61.2305L37.0117-39.1602Q35.5469-37.7441 34.668-35.9131Q33.7891-34.082 33.5449-31.7871L30.127 5.81055L13.7695 5.81055Q12.0605 5.81055 10.9131 6.95801Q9.76562 8.10547 9.76562 9.76562Q9.76562 11.4746 10.9131 12.6465Q12.0605 13.8184 13.7695 13.8184ZM57.9102-48.6816L57.9102-40.332L49.5117-40.332ZM49.707-60.4492L58.8867-52.2949L61.084-54.7852L52.002-62.9395ZM27.5879-76.8066L48.0469-58.3496Q48.9746-57.4707 50.1465-57.5684Q51.3184-57.666 52.1973-58.5938L54.1504-60.5957Q55.127-61.5723 55.0049-62.7686Q54.8828-63.9648 54.0039-64.7949L33.3984-83.3496Q32.4707-84.1797 31.25-84.1064Q30.0293-84.0332 29.1992-83.1055L27.3438-80.957Q26.5137-79.9805 26.5625-78.8086Q26.6113-77.6367 27.5879-76.8066Z"/>
  </g>
  <g id="Light-S" transform="matrix(1 0 0 1 1116.14 696)">
   <path d="M32.9819-45.045Q36.3429-45.045 38.7422-47.4275Q41.1415-49.81 41.1415-53.2382Q41.1415-56.648 38.7422-59.0305Q36.3429-61.4131 32.9819-61.4131Q29.5385-61.4131 27.1392-59.0305Q24.7398-56.648 24.7398-53.2382Q24.7398-49.81 27.1392-47.4275Q29.5385-45.045 32.9819-45.045ZM13.6485 12.3652L33.0625 12.3652Q34.8574 12.3652 35.738 11.541Q36.6186 10.7168 36.8965 9.15095L40.2084-9.02379L55.6084-9.02379L52.5742 7.73137Q52.2324 9.75545 53.3007 10.9947Q54.3691 12.234 55.8863 12.3652Q57.3057 12.5117 58.6274 11.7776Q59.9492 11.0435 60.2572 9.15095L64.0424-11.8291Q64.418-14.0483 63.3741-15.3364Q62.3301-16.6245 60.7305-16.8048L47.0278-18.3217L48.203-31.2431Q48.2671-32.3359 49.3935-32.3359L60.306-32.3359Q61.9057-32.3359 63.0642-33.4943Q64.2227-34.6527 64.2227-36.2676L64.2227-57.623Q64.2227-58.8473 63.5373-59.8255Q62.852-60.8037 61.7592-61.2279Q59.3447-62.2231 57.5348-60.4131L36.1944-39.0238Q34.775-37.6381 33.9188-35.8601Q33.0625-34.082 32.8336-31.8629L29.5064 4.59951L13.6485 4.59951Q11.9848 4.59951 10.8752 5.71671Q9.76562 6.8339 9.76562 8.44879Q9.76562 10.0972 10.8752 11.2312Q11.9848 12.3652 13.6485 12.3652ZM56.457-48.2427L56.457-40.1505L48.3007-40.1505ZM48.7231-59.6774L57.3883-51.962L59.3129-54.1494L50.7456-61.8647ZM26.9674-75.5806L46.9571-57.5473Q47.8546-56.7139 48.9204-56.804Q49.9863-56.8942 50.8349-57.7914L52.8788-59.8844Q53.8101-60.8154 53.7107-61.9058Q53.6112-62.9962 52.7476-63.811L32.6113-81.942Q31.7139-82.7568 30.6067-82.6836Q29.4996-82.6103 28.6845-81.7128L26.7382-79.4586Q25.9384-78.5273 25.9949-77.4539Q26.0513-76.3804 26.9674-75.5806Z"/>
  </g>
  <g id="Thin-S" transform="matrix(1 0 0 1 820.549 696)">
   <path d="M31.7206-44.8849Q34.9416-44.8849 37.2207-47.1572Q39.4998-49.4296 39.4998-52.6775Q39.4998-55.9474 37.2207-58.2198Q34.9416-60.4921 31.7206-60.4921Q28.4373-60.4921 26.1582-58.2198Q23.8791-55.9474 23.8791-52.6775Q23.8791-49.4296 26.1582-47.1572Q28.4373-44.8849 31.7206-44.8849ZM13.4884 10.4433L32.1015 10.4433Q33.8164 10.4433 34.6669 9.65911Q35.5173 8.87491 35.7755 7.36931L38.9471-10.0446L53.7265-10.0446L50.8124 6.0096Q50.4706 7.93378 51.4989 9.13303Q52.5272 10.3323 53.9846 10.4433Q55.3437 10.5898 56.6055 9.88582Q57.8672 9.18185 58.1951 7.36931L61.8201-12.75Q62.1759-14.869 61.172-16.117Q60.1681-17.3651 58.6485-17.5256L45.4864-18.9823L46.6013-31.3632Q46.6856-32.416 47.7517-32.416L58.2439-32.416Q59.7635-32.416 60.872-33.5242Q61.9806-34.6325 61.9806-36.1875L61.9806-56.6621Q61.9806-57.8265 61.3252-58.7746Q60.6697-59.7227 59.617-60.1267Q57.3028-61.0818 55.553-59.3321L35.1133-38.8436Q33.7542-37.4978 32.9279-35.7899Q32.1015-34.082 31.8928-31.9631L28.6857 2.99781L13.4884 2.99781Q11.8845 2.99781 10.8251 4.07498Q9.76562 5.15215 9.76562 6.70717Q9.76562 8.27558 10.8251 9.35945Q11.8845 10.4433 13.4884 10.4433ZM54.5351-47.6622L54.5351-39.9103L46.699-39.9103ZM47.4218-58.6566L55.4065-51.5217L56.9706-53.3085L49.0841-60.4433ZM26.1467-73.9591L45.5159-56.4861Q46.3733-55.7129 47.2989-55.7931Q48.2245-55.8734 49.0331-56.7302L51.1971-58.9436Q52.0685-59.8145 51.999-60.7647Q51.9295-61.715 51.086-62.5096L31.5703-80.0803Q30.7129-80.8749 29.7559-80.8017Q28.7989-80.7284 28.0037-79.871L25.9374-77.4768Q25.1776-76.6054 25.2441-75.6621Q25.3107-74.7188 26.1467-73.9591Z"/>
  </g>
  <g id="Ultralight-S" transform="matrix(1 0 0 1 524.412 696)">
   <path d="M31.0745-44.8029Q34.2239-44.8029 36.4414-47.0188Q38.6589-49.2348 38.6589-52.3903Q38.6589-55.5885 36.4414-57.8045Q34.2239-60.0204 31.0745-60.0204Q27.8732-60.0204 25.6557-57.8045Q23.4383-55.5885 23.4383-52.3903Q23.4383-49.2348 25.6557-47.0188Q27.8732-44.8029 31.0745-44.8029ZM13.4064 9.45892L31.6093 9.45892Q33.2832 9.45892 34.1183 8.69522Q34.9533 7.93152 35.2013 6.45676L38.3011-10.5675L52.7626-10.5675L49.91 5.12772Q49.5682 7.00073 50.576 8.17947Q51.5839 9.35822 53.0106 9.45892Q54.3388 9.60541 55.5698 8.91685Q56.8008 8.2283 57.1388 6.45676L60.6819-13.2217Q61.0275-15.2893 60.0441-16.5169Q59.0607-17.7444 57.5821-17.8947L44.6968-19.3207L45.7809-31.4247Q45.8755-32.457 46.9109-32.457L57.1877-32.457Q58.6662-32.457 59.7492-33.5396Q60.8322-34.6222 60.8322-36.1465L60.8322-56.1699Q60.8322-57.3036 60.1921-58.2363Q59.552-59.169 58.5197-59.5627Q56.2569-60.4973 54.538-58.7784L34.5596-38.7512Q33.2314-37.426 32.4203-35.754Q31.6093-34.082 31.411-32.0145L28.2654 2.17743L13.4064 2.17743Q11.8332 2.17743 10.7994 3.2341Q9.76562 4.29077 9.76562 5.81512Q9.76562 7.34253 10.7994 8.40073Q11.8332 9.45892 13.4064 9.45892ZM53.5507-47.3648L53.5507-39.7873L45.8786-39.7873ZM46.7552-58.1337L54.3915-51.2962L55.7709-52.8778L48.233-59.7153ZM25.7263-73.1285L44.7777-55.9425Q45.6146-55.2002 46.4684-55.2753Q47.3221-55.3505 48.1102-56.1867L50.3357-58.4618Q51.1765-59.3018 51.1223-60.1803Q51.0681-61.0588 50.235-61.8431L31.0371-79.1267Q30.2002-79.911 29.3201-79.8378Q28.4401-79.7646 27.655-78.9276L25.5272-76.4618Q24.7879-75.621 24.8596-74.7444Q24.9313-73.8678 25.7263-73.1285Z"/>
  </g>
 </g>
</svg>
