<?xml version="1.0" encoding="UTF-8"?>
<!--Generator: Apple Native CoreSVG 175.5-->
<!DOCTYPE svg
PUBLIC "-//W3C//DTD SVG 1.1//EN"
       "http://www.w3.org/Graphics/SVG/1.1/DTD/svg11.dtd">
<svg version="1.1" xmlns="http://www.w3.org/2000/svg" xmlns:xlink="http://www.w3.org/1999/xlink" width="3300" height="2200">
 <!--glyph: "uni101411.medium", point size: 100.0, font version: "18.0d9e1", template writer version: "84"-->
 <g id="Notes">
  <rect height="2200" id="artboard" style="fill:white;opacity:1" width="3300" x="0" y="0"/>
  <line style="fill:none;stroke:black;opacity:1;stroke-width:0.5;" x1="263" x2="3036" y1="292" y2="292"/>
  <text style="stroke:none;fill:black;font-family:sans-serif;font-size:13;font-weight:bold;" transform="matrix(1 0 0 1 263 322)">Weight/Scale Variations</text>
  <text style="stroke:none;fill:black;font-family:sans-serif;font-size:13;text-anchor:middle;" transform="matrix(1 0 0 1 559.711 322)">Ultralight</text>
  <text style="stroke:none;fill:black;font-family:sans-serif;font-size:13;text-anchor:middle;" transform="matrix(1 0 0 1 856.422 322)">Thin</text>
  <text style="stroke:none;fill:black;font-family:sans-serif;font-size:13;text-anchor:middle;" transform="matrix(1 0 0 1 1153.13 322)">Light</text>
  <text style="stroke:none;fill:black;font-family:sans-serif;font-size:13;text-anchor:middle;" transform="matrix(1 0 0 1 1449.84 322)">Regular</text>
  <text style="stroke:none;fill:black;font-family:sans-serif;font-size:13;text-anchor:middle;" transform="matrix(1 0 0 1 1746.56 322)">Medium</text>
  <text style="stroke:none;fill:black;font-family:sans-serif;font-size:13;text-anchor:middle;" transform="matrix(1 0 0 1 2043.27 322)">Semibold</text>
  <text style="stroke:none;fill:black;font-family:sans-serif;font-size:13;text-anchor:middle;" transform="matrix(1 0 0 1 2339.98 322)">Bold</text>
  <text style="stroke:none;fill:black;font-family:sans-serif;font-size:13;text-anchor:middle;" transform="matrix(1 0 0 1 2636.69 322)">Heavy</text>
  <text style="stroke:none;fill:black;font-family:sans-serif;font-size:13;text-anchor:middle;" transform="matrix(1 0 0 1 2933.4 322)">Black</text>
  <line style="fill:none;stroke:black;opacity:1;stroke-width:0.5;" x1="263" x2="3036" y1="1903" y2="1903"/>
  <g transform="matrix(1 0 0 1 263 1933)">
   <path d="M9.24805 0.830078Q10.8691 0.830078 12.2949 0.214844Q13.7207-0.400391 14.8096-1.49414Q15.8984-2.58789 16.5186-4.01367Q17.1387-5.43945 17.1387-7.05078Q17.1387-8.66211 16.5186-10.0879Q15.8984-11.5137 14.8047-12.6074Q13.7109-13.7012 12.2852-14.3164Q10.8594-14.9316 9.23828-14.9316Q7.62695-14.9316 6.20117-14.3164Q4.77539-13.7012 3.69141-12.6074Q2.60742-11.5137 1.9873-10.0879Q1.36719-8.66211 1.36719-7.05078Q1.36719-5.43945 1.9873-4.01367Q2.60742-2.58789 3.69629-1.49414Q4.78516-0.400391 6.21094 0.214844Q7.63672 0.830078 9.24805 0.830078ZM9.24805-0.654297Q7.91992-0.654297 6.7627-1.14746Q5.60547-1.64062 4.73145-2.51953Q3.85742-3.39844 3.36426-4.56055Q2.87109-5.72266 2.87109-7.05078Q2.87109-8.37891 3.35938-9.54102Q3.84766-10.7031 4.72168-11.582Q5.5957-12.4609 6.75293-12.9541Q7.91016-13.4473 9.23828-13.4473Q10.5762-13.4473 11.7383-12.9541Q12.9004-12.4609 13.7793-11.582Q14.6582-10.7031 15.1514-9.54102Q15.6445-8.37891 15.6445-7.05078Q15.6445-5.72266 15.1514-4.56055Q14.6582-3.39844 13.7793-2.51953Q12.9004-1.64062 11.7432-1.14746Q10.5859-0.654297 9.24805-0.654297ZM5.6543-7.05078Q5.6543-6.72852 5.85938-6.52832Q6.06445-6.32812 6.40625-6.32812L8.51562-6.32812L8.51562-4.20898Q8.51562-3.88672 8.71094-3.67676Q8.90625-3.4668 9.23828-3.4668Q9.56055-3.4668 9.77051-3.67676Q9.98047-3.88672 9.98047-4.20898L9.98047-6.32812L12.0898-6.32812Q12.4219-6.32812 12.627-6.52832Q12.832-6.72852 12.832-7.05078Q12.832-7.38281 12.627-7.58789Q12.4219-7.79297 12.0898-7.79297L9.98047-7.79297L9.98047-9.90234Q9.98047-10.2344 9.77051-10.4443Q9.56055-10.6543 9.23828-10.6543Q8.90625-10.6543 8.71094-10.4443Q8.51562-10.2344 8.51562-9.90234L8.51562-7.79297L6.40625-7.79297Q6.06445-7.79297 5.85938-7.58789Q5.6543-7.38281 5.6543-7.05078Z"/>
  </g>
  <g transform="matrix(1 0 0 1 281.867 1933)">
   <path d="M11.709 2.91016Q13.75 2.91016 15.5518 2.12891Q17.3535 1.34766 18.7305-0.0292969Q20.1074-1.40625 20.8887-3.20801Q21.6699-5.00977 21.6699-7.05078Q21.6699-9.0918 20.8887-10.8936Q20.1074-12.6953 18.7305-14.0723Q17.3535-15.4492 15.5469-16.2305Q13.7402-17.0117 11.6992-17.0117Q9.6582-17.0117 7.85645-16.2305Q6.05469-15.4492 4.68262-14.0723Q3.31055-12.6953 2.5293-10.8936Q1.74805-9.0918 1.74805-7.05078Q1.74805-5.00977 2.5293-3.20801Q3.31055-1.40625 4.6875-0.0292969Q6.06445 1.34766 7.86621 2.12891Q9.66797 2.91016 11.709 2.91016ZM11.709 1.25Q9.98047 1.25 8.47656 0.605469Q6.97266-0.0390625 5.83496-1.17676Q4.69727-2.31445 4.05762-3.81836Q3.41797-5.32227 3.41797-7.05078Q3.41797-8.7793 4.05762-10.2832Q4.69727-11.7871 5.83008-12.9297Q6.96289-14.0723 8.4668-14.7119Q9.9707-15.3516 11.6992-15.3516Q13.4277-15.3516 14.9365-14.7119Q16.4453-14.0723 17.583-12.9297Q18.7207-11.7871 19.3652-10.2832Q20.0098-8.7793 20.0098-7.05078Q20.0098-5.32227 19.3701-3.81836Q18.7305-2.31445 17.5879-1.17676Q16.4453-0.0390625 14.9414 0.605469Q13.4375 1.25 11.709 1.25ZM7.17773-7.05078Q7.17773-6.69922 7.41211-6.47461Q7.64648-6.25 8.01758-6.25L10.8887-6.25L10.8887-3.36914Q10.8887-2.99805 11.1133-2.76855Q11.3379-2.53906 11.6895-2.53906Q12.0605-2.53906 12.29-2.76855Q12.5195-2.99805 12.5195-3.36914L12.5195-6.25L15.4004-6.25Q15.7715-6.25 16.001-6.47461Q16.2305-6.69922 16.2305-7.05078Q16.2305-7.42188 16.001-7.65137Q15.7715-7.88086 15.4004-7.88086L12.5195-7.88086L12.5195-10.752Q12.5195-11.1328 12.29-11.3623Q12.0605-11.5918 11.6895-11.5918Q11.3379-11.5918 11.1133-11.3574Q10.8887-11.123 10.8887-10.752L10.8887-7.88086L8.01758-7.88086Q7.63672-7.88086 7.40723-7.65137Q7.17773-7.42188 7.17773-7.05078Z"/>
  </g>
  <g transform="matrix(1 0 0 1 305.646 1933)">
   <path d="M14.9707 5.66406Q17.0605 5.66406 18.96 5.01465Q20.8594 4.36523 22.4512 3.19336Q24.043 2.02148 25.2197 0.429688Q26.3965-1.16211 27.0459-3.06641Q27.6953-4.9707 27.6953-7.05078Q27.6953-9.14062 27.0459-11.04Q26.3965-12.9395 25.2197-14.5312Q24.043-16.123 22.4512-17.2998Q20.8594-18.4766 18.9551-19.126Q17.0508-19.7754 14.9609-19.7754Q12.8711-19.7754 10.9717-19.126Q9.07227-18.4766 7.48535-17.2998Q5.89844-16.123 4.72168-14.5312Q3.54492-12.9395 2.90039-11.04Q2.25586-9.14062 2.25586-7.05078Q2.25586-4.9707 2.90527-3.06641Q3.55469-1.16211 4.72656 0.429688Q5.89844 2.02148 7.49023 3.19336Q9.08203 4.36523 10.9814 5.01465Q12.8809 5.66406 14.9707 5.66406ZM14.9707 3.84766Q13.1641 3.84766 11.5283 3.2959Q9.89258 2.74414 8.53516 1.74805Q7.17773 0.751953 6.17676-0.610352Q5.17578-1.97266 4.62891-3.6084Q4.08203-5.24414 4.08203-7.05078Q4.08203-8.86719 4.62891-10.5029Q5.17578-12.1387 6.17188-13.501Q7.16797-14.8633 8.52539-15.8594Q9.88281-16.8555 11.5186-17.4023Q13.1543-17.9492 14.9609-17.9492Q16.7773-17.9492 18.4131-17.4023Q20.0488-16.8555 21.4111-15.8594Q22.7734-14.8633 23.7744-13.501Q24.7754-12.1387 25.3223-10.5029Q25.8691-8.86719 25.8691-7.05078Q25.8691-5.24414 25.3223-3.6084Q24.7754-1.97266 23.7793-0.610352Q22.7832 0.751953 21.4209 1.74805Q20.0586 2.74414 18.4229 3.2959Q16.7871 3.84766 14.9707 3.84766ZM9.19922-7.05078Q9.19922-6.66992 9.45801-6.4209Q9.7168-6.17188 10.1172-6.17188L14.0625-6.17188L14.0625-2.2168Q14.0625-1.81641 14.3115-1.55762Q14.5605-1.29883 14.9512-1.29883Q15.3516-1.29883 15.6104-1.55273Q15.8691-1.80664 15.8691-2.2168L15.8691-6.17188L19.8242-6.17188Q20.2246-6.17188 20.4785-6.4209Q20.7324-6.66992 20.7324-7.05078Q20.7324-7.46094 20.4785-7.71484Q20.2246-7.96875 19.8242-7.96875L15.8691-7.96875L15.8691-11.9141Q15.8691-12.3242 15.6104-12.583Q15.3516-12.8418 14.9512-12.8418Q14.5605-12.8418 14.3115-12.583Q14.0625-12.3242 14.0625-11.9141L14.0625-7.96875L10.1172-7.96875Q9.70703-7.96875 9.45312-7.71484Q9.19922-7.46094 9.19922-7.05078Z"/>
  </g>
  <text style="stroke:none;fill:black;font-family:sans-serif;font-size:13;font-weight:bold;" transform="matrix(1 0 0 1 263 1953)">Design Variations</text>
  <text style="stroke:none;fill:black;font-family:sans-serif;font-size:13;" transform="matrix(1 0 0 1 263 1971)">Symbols are supported in up to nine weights and three scales.</text>
  <text style="stroke:none;fill:black;font-family:sans-serif;font-size:13;" transform="matrix(1 0 0 1 263 1989)">For optimal layout with text and other symbols, vertically align</text>
  <text style="stroke:none;fill:black;font-family:sans-serif;font-size:13;" transform="matrix(1 0 0 1 263 2007)">symbols with the adjacent text.</text>
  <line style="fill:none;stroke:#00AEEF;stroke-width:0.5;opacity:1.0;" x1="776" x2="776" y1="1919" y2="1933"/>
  <g transform="matrix(1 0 0 1 776 1933)">
   <path d="M3.31055 0.15625Q3.70117 0.15625 3.91602-0.00976562Q4.13086-0.175781 4.26758-0.585938L5.52734-4.0332L11.2891-4.0332L12.5488-0.585938Q12.6855-0.175781 12.9004-0.00976562Q13.1152 0.15625 13.4961 0.15625Q13.8867 0.15625 14.1162-0.0585938Q14.3457-0.273438 14.3457-0.644531Q14.3457-0.869141 14.2383-1.17188L9.6582-13.3691Q9.48242-13.8184 9.17969-14.043Q8.87695-14.2676 8.4082-14.2676Q7.5-14.2676 7.17773-13.3789L2.59766-1.16211Q2.49023-0.859375 2.49023-0.634766Q2.49023-0.263672 2.70996-0.0537109Q2.92969 0.15625 3.31055 0.15625ZM6.00586-5.51758L8.37891-12.0898L8.42773-12.0898L10.8008-5.51758Z"/>
  </g>
  <line style="fill:none;stroke:#00AEEF;stroke-width:0.5;opacity:1.0;" x1="793.197" x2="793.197" y1="1919" y2="1933"/>
  <text style="stroke:none;fill:black;font-family:sans-serif;font-size:13;font-weight:bold;" transform="matrix(1 0 0 1 776 1953)">Margins</text>
  <text style="stroke:none;fill:black;font-family:sans-serif;font-size:13;" transform="matrix(1 0 0 1 776 1971)">Leading and trailing margins on the left and right side of each symbol</text>
  <text style="stroke:none;fill:black;font-family:sans-serif;font-size:13;" transform="matrix(1 0 0 1 776 1989)">can be adjusted by modifying the x-location of the margin guidelines.</text>
  <text style="stroke:none;fill:black;font-family:sans-serif;font-size:13;" transform="matrix(1 0 0 1 776 2007)">Modifications are automatically applied proportionally to all</text>
  <text style="stroke:none;fill:black;font-family:sans-serif;font-size:13;" transform="matrix(1 0 0 1 776 2025)">scales and weights.</text>
  <g transform="matrix(1 0 0 1 1289 1933)">
   <path d="M2.8418 1.86523L4.54102 3.57422Q5.18555 4.22852 5.90332 4.17969Q6.62109 4.13086 7.31445 3.35938L18.0078-8.42773L17.041-9.4043L6.42578 2.27539Q6.16211 2.57812 5.89355 2.61719Q5.625 2.65625 5.27344 2.30469L4.10156 1.14258Q3.75 0.791016 3.79395 0.522461Q3.83789 0.253906 4.14062-0.0195312L15.6152-10.8203L14.6387-11.7871L3.04688-0.898438Q2.30469-0.214844 2.25098 0.498047Q2.19727 1.21094 2.8418 1.86523ZM9.25781-16.3281Q8.94531-16.0254 8.90625-15.6348Q8.86719-15.2441 9.04297-14.9512Q9.21875-14.6777 9.55566-14.541Q9.89258-14.4043 10.3809-14.5215Q11.4746-14.7754 12.5977-14.7314Q13.7207-14.6875 14.7949-13.9844L14.209-12.5293Q13.9551-11.9043 14.0674-11.4404Q14.1797-10.9766 14.5801-10.5664L16.875-8.25195Q17.2363-7.88086 17.5781-7.82227Q17.9199-7.76367 18.3398-7.8418L19.4043-8.03711L20.0684-7.36328L20.0293-6.80664Q20-6.43555 20.1221-6.12305Q20.2441-5.81055 20.6055-5.44922L21.3672-4.70703Q21.7285-4.3457 22.1533-4.33105Q22.5781-4.31641 22.9297-4.66797L25.8398-7.58789Q26.1914-7.93945 26.1816-8.35449Q26.1719-8.76953 25.8105-9.13086L25.0391-9.89258Q24.6875-10.2539 24.3799-10.3857Q24.0723-10.5176 23.7109-10.4883L23.1348-10.4395L22.4902-11.0742L22.7344-12.1973Q22.832-12.6172 22.6953-12.9834Q22.5586-13.3496 22.1191-13.7891L19.9219-15.9766Q18.6719-17.2168 17.2607-17.8369Q15.8496-18.457 14.4189-18.4814Q12.9883-18.5059 11.665-17.959Q10.3418-17.4121 9.25781-16.3281ZM10.752-15.957Q11.6602-16.6211 12.7002-16.9043Q13.7402-17.1875 14.8047-17.085Q15.8691-16.9824 16.8701-16.5137Q17.8711-16.0449 18.7012-15.2051L21.1328-12.793Q21.3086-12.6172 21.3525-12.4512Q21.3965-12.2852 21.3379-12.0312L21.0156-10.5469L22.5195-9.0625L23.5059-9.12109Q23.6914-9.13086 23.7891-9.09668Q23.8867-9.0625 24.0332-8.91602L24.6094-8.33984L22.168-5.89844L21.5918-6.47461Q21.4453-6.62109 21.4062-6.71875Q21.3672-6.81641 21.377-7.01172L21.4453-7.98828L19.9512-9.47266L18.4277-9.21875Q18.1836-9.16992 18.042-9.2041Q17.9004-9.23828 17.7148-9.41406L15.7129-11.416Q15.5176-11.5918 15.4932-11.7529Q15.4688-11.9141 15.5859-12.1875L16.4648-14.2773Q15.293-15.3711 13.8281-15.791Q12.3633-16.2109 10.8398-15.7617Q10.7227-15.7324 10.6885-15.8057Q10.6543-15.8789 10.752-15.957Z"/>
  </g>
  <text style="stroke:none;fill:black;font-family:sans-serif;font-size:13;font-weight:bold;" transform="matrix(1 0 0 1 1289 1953)">Exporting</text>
  <text style="stroke:none;fill:black;font-family:sans-serif;font-size:13;" transform="matrix(1 0 0 1 1289 1971)">Symbols should be outlined when exporting to ensure the</text>
  <text style="stroke:none;fill:black;font-family:sans-serif;font-size:13;" transform="matrix(1 0 0 1 1289 1989)">design is preserved when submitting to Xcode.</text>
  <text id="template-version" style="stroke:none;fill:black;font-family:sans-serif;font-size:13;text-anchor:end;" transform="matrix(1 0 0 1 3036 1933)">Template v.2.0</text>
  <text style="stroke:none;fill:black;font-family:sans-serif;font-size:13;text-anchor:end;" transform="matrix(1 0 0 1 3036 1951)">Requires Xcode 12 or greater</text>
  <text id="descriptive-name" style="stroke:none;fill:black;font-family:sans-serif;font-size:13;text-anchor:end;" transform="matrix(1 0 0 1 3036 1969)">Generated from figure.walk.motion</text>
  <text style="stroke:none;fill:black;font-family:sans-serif;font-size:13;text-anchor:end;" transform="matrix(1 0 0 1 3036 1987)">Typeset at 100 points</text>
  <text style="stroke:none;fill:black;font-family:sans-serif;font-size:13;" transform="matrix(1 0 0 1 263 726)">Small</text>
  <text style="stroke:none;fill:black;font-family:sans-serif;font-size:13;" transform="matrix(1 0 0 1 263 1156)">Medium</text>
  <text style="stroke:none;fill:black;font-family:sans-serif;font-size:13;" transform="matrix(1 0 0 1 263 1586)">Large</text>
 </g>
 <g id="Guides">
  <g id="H-reference" style="fill:#27AAE1;stroke:none;" transform="matrix(1 0 0 1 339 696)">
   <path d="M0.993347 0L3.6377 0L29.3282-67.1326L30.0301-67.1326L30.0301-70.459L28.1227-70.459ZM11.6882-24.4797L46.9818-24.4797L46.2311-26.7288L12.4382-26.7288ZM55.1193 0L57.7637 0L30.6381-70.459L29.4327-70.459L29.4327-67.1326Z"/>
  </g>
  <line id="Baseline-S" style="fill:none;stroke:#27AAE1;opacity:1;stroke-width:0.5;" x1="263" x2="3036" y1="696" y2="696"/>
  <line id="Capline-S" style="fill:none;stroke:#27AAE1;opacity:1;stroke-width:0.5;" x1="263" x2="3036" y1="625.541" y2="625.541"/>
  <g id="H-reference" style="fill:#27AAE1;stroke:none;" transform="matrix(1 0 0 1 339 1126)">
   <path d="M0.993347 0L3.6377 0L29.3282-67.1326L30.0301-67.1326L30.0301-70.459L28.1227-70.459ZM11.6882-24.4797L46.9818-24.4797L46.2311-26.7288L12.4382-26.7288ZM55.1193 0L57.7637 0L30.6381-70.459L29.4327-70.459L29.4327-67.1326Z"/>
  </g>
  <line id="Baseline-M" style="fill:none;stroke:#27AAE1;opacity:1;stroke-width:0.5;" x1="263" x2="3036" y1="1126" y2="1126"/>
  <line id="Capline-M" style="fill:none;stroke:#27AAE1;opacity:1;stroke-width:0.5;" x1="263" x2="3036" y1="1055.54" y2="1055.54"/>
  <g id="H-reference" style="fill:#27AAE1;stroke:none;" transform="matrix(1 0 0 1 339 1556)">
   <path d="M0.993347 0L3.6377 0L29.3282-67.1326L30.0301-67.1326L30.0301-70.459L28.1227-70.459ZM11.6882-24.4797L46.9818-24.4797L46.2311-26.7288L12.4382-26.7288ZM55.1193 0L57.7637 0L30.6381-70.459L29.4327-70.459L29.4327-67.1326Z"/>
  </g>
  <line id="Baseline-L" style="fill:none;stroke:#27AAE1;opacity:1;stroke-width:0.5;" x1="263" x2="3036" y1="1556" y2="1556"/>
  <line id="Capline-L" style="fill:none;stroke:#27AAE1;opacity:1;stroke-width:0.5;" x1="263" x2="3036" y1="1485.54" y2="1485.54"/>
  <line id="left-margin" style="fill:none;stroke:#00AEEF;stroke-width:0.5;opacity:1.0;" x1="1379.41" x2="1379.41" y1="1030.79" y2="1150.12"/>
  <line id="right-margin" style="fill:none;stroke:#00AEEF;stroke-width:0.5;opacity:1.0;" x1="1520.27" x2="1520.27" y1="1030.79" y2="1150.12"/>
 </g>
 <g id="Symbols">
  <g id="Black-L" transform="matrix(1 0 0 1 2833.92 1556)">
   <path d="M51.8097-84.7071L89.3077-84.7071Q91.3742-84.7071 92.8528-86.2941Q94.3314-87.8812 94.3314-90.0257Q94.3314-92.2287 92.8528-93.7865Q91.3742-95.3443 89.3077-95.3443L51.8097-95.3443Q49.6847-95.3443 48.2062-93.7865Q46.7276-92.2287 46.7276-90.0257Q46.7276-87.8812 48.2062-86.2941Q49.6847-84.7071 51.8097-84.7071ZM21.0284-51.7327L71.5174-51.7327Q73.584-51.7327 75.062-53.3197Q76.5399-54.9067 76.5399-57.0512Q76.5399-59.2554 75.062-60.8126Q73.584-62.3698 71.5174-62.3698L21.0284-62.3698Q18.9827-62.3698 17.5334-60.8022Q16.084-59.2346 16.084-57.0512Q16.084-54.9275 17.5334-53.3301Q18.9827-51.7327 21.0284-51.7327ZM46.2508-18.7582L73.2237-18.7582Q75.2902-18.7582 76.7688-20.3452Q78.2474-21.9322 78.2474-24.0768Q78.2474-26.2809 76.7682-27.8388Q75.289-29.3966 73.2237-29.3966L46.2508-29.3966Q44.1623-29.3966 42.6837-27.8382Q41.2051-26.2798 41.2051-24.0768Q41.2051-21.9322 42.6837-20.3452Q44.1623-18.7582 46.2508-18.7582ZM24.8517 14.0913L63.4754 14.0913Q65.542 14.0913 67.02 12.5043Q68.4979 10.9173 68.4979 8.77158Q68.4979 6.56861 67.0194 5.02122Q65.5408 3.47383 63.4754 3.47383L24.8517 3.47383Q22.7059 3.47383 21.2273 5.03163Q19.7487 6.58943 19.7487 8.77158Q19.7487 10.9173 21.2273 12.5043Q22.7059 14.0913 24.8517 14.0913ZM104.158 33.8837L124.171 10.1398Q125.732 8.27818 126.292 7.31815Q126.851 6.35812 127.413 4.53287L127.909 3.00181L115.921-12.0053L113.156 0.82963L93.6167 24.0194Q90.94 27.2149 91.3591 30.1004Q91.7782 32.9859 93.9851 34.8029Q96.192 36.6199 99.0665 36.5797Q101.941 36.5395 104.158 33.8837ZM151.276 31.7248Q153.034 35.2408 156.001 36.1198Q158.967 36.9988 161.703 35.7507Q164.438 34.5026 165.606 31.6866Q166.774 28.8705 164.877 25.0548L151.339-2.36158Q150.538-3.94316 149.555-5.52715Q148.572-7.11114 147.491-8.68989L139.238-20.4765L139.626-21.7576Q141.253-27.1453 142.122-30.9639Q142.992-34.7824 143.314-39.8561L144.658-59.0868Q145.198-66.5513 141.057-71.3555Q136.917-76.1597 129.631-76.1597Q124.163-76.1597 119.918-73.4769Q115.673-70.794 110.782-66.0408L100.575-56.052Q98.1113-53.6089 97.0107-51.1582Q95.91-48.7074 95.6104-45.1865L94.3481-29.4443Q94.0496-26.0879 95.8842-23.892Q97.7188-21.6961 100.834-21.5572Q104.03-21.3172 105.955-23.2024Q107.88-25.0877 108.18-28.6049L109.604-45.4443L113.564-48.98Q114.499-49.8127 115.545-49.4366Q116.591-49.0605 116.451-47.7922L115.486-34.5179Q115.064-29.1382 116.439-25.4265Q117.814-21.7148 121.896-16.6112L135.352 0.253386Q136.259 1.40007 136.608 2.01423Q136.958 2.62838 137.417 3.54821ZM175.234-50.2093L160.358-50.2093L152.237-59.102L150.96-40.7306L152.254-39.4364Q154.034-37.7148 155.913-37.0356Q157.792-36.3565 160.974-36.3565L175.234-36.3565Q178.707-36.3565 180.793-38.2423Q182.879-40.1282 182.879-43.2445Q182.879-46.3584 180.764-48.2839Q178.648-50.2093 175.234-50.2093ZM137.494-80.7002Q143.919-80.7002 148.451-85.2617Q152.983-89.8232 152.983-96.1879Q152.983-102.612 148.451-107.145Q143.919-111.677 137.494-111.677Q131.109-111.677 126.558-107.145Q122.006-102.612 122.006-96.1879Q122.006-89.8232 126.558-85.2617Q131.109-80.7002 137.494-80.7002Z"/>
  </g>
  <g id="Heavy-L" transform="matrix(1 0 0 1 2539.32 1556)">
   <path d="M49.6961-84.2933L86.8176-84.2933Q88.7672-84.2933 90.1511-85.7743Q91.5351-87.2554 91.5351-89.2741Q91.5351-91.3375 90.1511-92.7963Q88.7672-94.2551 86.8176-94.2551L49.6961-94.2551Q47.7019-94.2551 46.3179-92.7963Q44.9339-91.3375 44.9339-89.2741Q44.9339-87.2554 46.3179-85.7743Q47.7019-84.2933 49.6961-84.2933ZM20.7266-51.6744L69.5429-51.6744Q71.4925-51.6744 72.8737-53.1555Q74.2549-54.6366 74.2549-56.6554Q74.2549-58.7244 72.8737-60.1803Q71.4925-61.6363 69.5429-61.6363L20.7266-61.6363Q18.8073-61.6363 17.4456-60.1653Q16.084-58.6942 16.084-56.6554Q16.084-54.6668 17.4456-53.1706Q18.8073-51.6744 20.7266-51.6744ZM44.4106-19.0557L70.7336-19.0557Q72.6832-19.0557 74.0672-20.5368Q75.4511-22.0179 75.4511-24.0367Q75.4511-26.1056 74.0643-27.5644Q72.6775-29.0232 70.7336-29.0232L44.4106-29.0232Q42.4252-29.0232 41.0412-27.5616Q39.6573-26.1001 39.6573-24.0367Q39.6573-22.0179 41.0412-20.5368Q42.4252-19.0557 44.4106-19.0557ZM24.1843 13.3819L61.501 13.3819Q63.4505 13.3819 64.8317 11.9008Q66.2129 10.4197 66.2129 8.39539Q66.2129 6.33198 64.8289 4.88833Q63.445 3.44468 61.501 3.44468L24.1843 3.44468Q22.1599 3.44468 20.7759 4.90345Q19.3919 6.36221 19.3919 8.39539Q19.3919 10.4197 20.7759 11.9008Q22.1599 13.3819 24.1843 13.3819ZM101.096 32.8164L120.824 9.40353Q122.344 7.59207 122.878 6.66402Q123.412 5.73598 123.97 3.93334L124.69 1.73002L113.167-12.7162L110.329 0.458397L91.0158 23.3767Q88.4439 26.4399 88.8448 29.2021Q89.2457 31.9643 91.3613 33.7014Q93.477 35.4385 96.2213 35.3983Q98.9657 35.3581 101.096 32.8164ZM147.9 30.7303Q149.59 34.1096 152.435 34.9544Q155.281 35.7992 157.9 34.606Q160.519 33.4128 161.632 30.713Q162.745 28.0133 160.93 24.3482L147.574-2.70582Q146.786-4.25588 145.817-5.81726Q144.847-7.37864 143.799-8.88847L135.59-20.6127L136.019-21.9947Q137.647-27.2595 138.482-31.0121Q139.318-34.7647 139.639-39.7706L140.965-58.7294Q141.486-65.965 137.486-70.6512Q133.485-75.3373 126.371-75.3373Q121.026-75.3373 116.885-72.7229Q112.745-70.1084 107.936-65.4187L97.8744-55.5567Q95.4509-53.1633 94.3894-50.7806Q93.3278-48.3979 93.042-44.9962L91.8024-29.4763Q91.522-26.2522 93.2607-24.1545Q94.9994-22.0567 97.9821-21.9317Q101.045-21.696 102.88-23.49Q104.714-25.284 105-28.6688L106.406-45.3687L110.518-49.0428Q111.531-49.94 112.638-49.5316Q113.746-49.1232 113.615-47.8555L112.65-34.482Q112.223-29.1332 113.594-25.531Q114.965-21.9288 118.919-16.9713L132.189-0.342267Q133.11 0.813751 133.448 1.4348Q133.786 2.05585 134.227 2.94373ZM171.344-49.7498L156.571-49.7498L148.184-58.9492L146.972-41.363L148.833-39.502Q150.558-37.8212 152.368-37.1718Q154.179-36.5224 157.274-36.5224L171.344-36.5224Q174.657-36.5224 176.652-38.3192Q178.647-40.1159 178.647-43.1043Q178.647-46.0815 176.63-47.9157Q174.612-49.7498 171.344-49.7498ZM134.021-80.149Q140.263-80.149 144.665-84.5738Q149.067-88.9985 149.067-95.1901Q149.067-101.432 144.665-105.834Q140.263-110.237 134.021-110.237Q127.799-110.237 123.389-105.834Q118.98-101.432 118.98-95.1901Q118.98-88.9985 123.389-84.5738Q127.799-80.149 134.021-80.149Z"/>
  </g>
  <g id="Bold-L" transform="matrix(1 0 0 1 2245.15 1556)">
   <path d="M47.4709-83.9052L83.9598-83.9052Q85.7411-83.9052 86.9911-85.237Q88.2411-86.5688 88.2411-88.4039Q88.2411-90.2684 86.9911-91.5856Q85.7411-92.9028 83.9598-92.9028L47.4709-92.9028Q45.6604-92.9028 44.4104-91.5856Q43.1604-90.2684 43.1604-88.4039Q43.1604-86.5688 44.4104-85.237Q45.6604-83.9052 47.4709-83.9052ZM20.298-51.7244L67.3155-51.7244Q69.0968-51.7244 70.3402-53.0562Q71.5837-54.388 71.5837-56.2233Q71.5837-58.1009 70.3402-59.4115Q69.0968-60.7221 67.3155-60.7221L20.298-60.7221Q18.5548-60.7221 17.3194-59.3926Q16.084-58.063 16.084-56.2233Q16.084-54.4261 17.3194-53.0752Q18.5548-51.7244 20.298-51.7244ZM42.1807-19.5437L67.8758-19.5437Q69.6571-19.5437 70.9071-20.8755Q72.1571-22.2073 72.1571-24.0426Q72.1571-25.9202 70.9005-27.2374Q69.6438-28.5546 67.8758-28.5546L42.1807-28.5546Q40.3482-28.5546 39.0982-27.2309Q37.8482-25.9071 37.8482-24.0426Q37.8482-22.2073 39.0982-20.8755Q40.3482-19.5437 42.1807-19.5437ZM23.3173 12.4089L59.2735 12.4089Q61.0548 12.4089 62.2982 11.0771Q63.5417 9.74535 63.5417 7.89696Q63.5417 6.03247 62.2917 4.73433Q61.0417 3.43618 59.2735 3.43618L23.3173 3.43618Q21.4687 3.43618 20.2187 4.75338Q18.9687 6.07058 18.9687 7.89696Q18.9687 9.74535 20.2187 11.0771Q21.4687 12.4089 23.3173 12.4089ZM97.5615 31.4352L116.913 8.45945Q118.379 6.70947 118.886 5.81989Q119.394 4.9303 119.943 3.15831L120.925 0.154764L109.972-13.5998L107.049-0.0398516L88.0422 22.5105Q85.6008 25.4124 85.9786 28.0247Q86.3565 30.6369 88.3607 32.2779Q90.3648 33.9189 92.9516 33.8787Q95.5383 33.8385 97.5615 31.4352ZM143.899 29.4412Q145.504 32.6514 148.203 33.4539Q150.903 34.2564 153.38 33.1287Q155.857 32.0009 156.904 29.4433Q157.952 26.8858 156.237 23.4051L143.118-3.16587Q142.353-4.66992 141.399-6.20065Q140.445-7.73138 139.435-9.16412L131.296-20.7893L131.771-22.2868Q133.391-27.3979 134.188-31.0661Q134.985-34.7343 135.306-39.6481L136.609-58.2465Q137.108-65.2128 133.272-69.7455Q129.437-74.2782 122.553-74.2782Q117.361-74.2782 113.352-71.7483Q109.342-69.2183 104.64-64.613L94.7703-54.9197Q92.4079-52.5951 91.3888-50.3007Q90.3697-48.0063 90.0992-44.7432L88.8904-29.5148Q88.633-26.4521 90.2563-24.4736Q91.8797-22.495 94.7009-22.3854Q97.6028-22.1573 99.3255-23.8398Q101.048-25.5224 101.319-28.7457L102.702-45.2467L106.976-49.0675Q108.074-50.0342 109.258-49.591Q110.442-49.1479 110.319-47.8728L109.354-34.4285Q108.927-29.133 110.287-25.6653Q111.647-22.1977 115.446-17.4169L128.472-1.10226Q129.407 0.0614945 129.73 0.690252Q130.054 1.31901 130.472 2.1685ZM166.69-49.1662L152.071-49.1662L143.375-58.7274L142.24-42.0947L144.778-39.5565Q146.434-37.9295 148.16-37.3147Q149.885-36.6999 152.873-36.6999L166.69-36.6999Q169.811-36.6999 171.694-38.3891Q173.578-40.0782 173.578-42.9128Q173.578-45.7209 171.68-47.4436Q169.782-49.1662 166.69-49.1662ZM129.926-79.3906Q135.945-79.3906 140.186-83.6463Q144.427-87.902 144.427-93.8784Q144.427-99.8972 140.186-104.138Q135.945-108.379 129.926-108.379Q123.912-108.379 119.675-104.138Q115.439-99.8972 115.439-93.8784Q115.439-87.902 119.675-83.6463Q123.912-79.3906 129.926-79.3906Z"/>
  </g>
  <g id="Semibold-L" transform="matrix(1 0 0 1 1950.18 1556)">
   <path d="M45.9368-83.6378L81.9897-83.6378Q83.655-83.6378 84.8126-84.8666Q85.9703-86.0955 85.9703-87.804Q85.9703-89.5313 84.8126-90.7509Q83.655-91.9705 81.9897-91.9705L45.9368-91.9705Q44.253-91.9705 43.0953-90.7509Q41.9377-89.5313 41.9377-87.804Q41.9377-86.0955 43.0953-84.8666Q44.253-83.6378 45.9368-83.6378ZM20.0025-51.7588L65.7798-51.7588Q67.4451-51.7588 68.5936-52.9877Q69.7421-54.2166 69.7421-55.9254Q69.7421-57.671 68.5936-58.8815Q67.4451-60.0919 65.7798-60.0919L20.0025-60.0919Q18.3807-60.0919 17.2324-58.8599Q16.084-57.6278 16.084-55.9254Q16.084-54.2601 17.2324-53.0095Q18.3807-51.7588 20.0025-51.7588ZM40.6435-19.8802L65.9057-19.8802Q67.571-19.8802 68.7286-21.1091Q69.8863-22.338 69.8863-24.0467Q69.8863-25.7924 68.7193-27.012Q67.5523-28.2316 65.9057-28.2316L40.6435-28.2316Q38.9163-28.2316 37.7587-27.0028Q36.601-25.7741 36.601-24.0467Q36.601-22.338 37.7587-21.1091Q38.9163-19.8802 40.6435-19.8802ZM22.7196 11.7382L57.7378 11.7382Q59.4031 11.7382 60.5516 10.5093Q61.7001 9.28042 61.7001 7.55334Q61.7001 5.826 60.5425 4.62816Q59.3848 3.43032 57.7378 3.43032L22.7196 3.43032Q20.9922 3.43032 19.8346 4.64992Q18.6769 5.86952 18.6769 7.55334Q18.6769 9.28042 19.8346 10.5093Q20.9922 11.7382 22.7196 11.7382ZM95.1246 30.483L114.217 7.80861Q115.646 6.10102 116.135 5.23794Q116.623 4.37486 117.168 2.624L118.33-0.931212L107.769-14.2089L104.787-0.383341L85.9921 21.9134Q83.6407 24.704 84.0027 27.2129Q84.3647 29.7218 86.292 31.2966Q88.2193 32.8713 90.6974 32.8311Q93.1755 32.7909 95.1246 30.483ZM141.14 28.5525Q142.687 31.6462 145.286 32.4196Q147.885 33.1929 150.264 32.1102Q152.643 31.0276 153.645 28.568Q154.647 26.1085 153.001 22.7549L140.047-3.48302Q139.298-4.95536 138.354-6.46496Q137.411-7.97456 136.427-9.35415L128.335-20.911L128.842-22.4881Q130.457-27.4933 131.227-31.1033Q131.998-34.7133 132.319-39.5638L133.606-57.9137Q134.089-64.6942 130.367-69.1211Q126.646-73.548 119.921-73.548Q114.835-73.548 110.915-71.0764Q106.996-68.6047 102.368-64.0576L92.6304-54.4805Q90.3101-52.2034 89.3202-49.9698Q88.3303-47.7363 88.0705-44.5687L86.8829-29.5414Q86.6414-26.5899 88.1852-24.6935Q89.7289-22.7972 92.4388-22.6982Q95.2295-22.4752 96.8753-24.081Q98.5211-25.6868 98.7809-28.7988L100.148-45.1625L104.534-49.0845Q105.691-50.0992 106.928-49.632Q108.165-49.1649 108.047-47.8848L107.082-34.3915Q106.655-29.1329 108.007-25.758Q109.359-22.383 113.053-17.7241L125.909-1.6262Q126.855-0.457107 127.168 0.176966Q127.48 0.811039 127.882 1.63406ZM163.481-48.7639L148.968-48.7639L140.06-58.5744L138.977-42.5991L141.982-39.5941Q143.591-38.0042 145.258-37.4133Q146.925-36.8223 149.84-36.8223L163.481-36.8223Q166.47-36.8223 168.277-38.4372Q170.083-40.0522 170.083-42.7807Q170.083-45.4723 168.267-47.1181Q166.451-48.7639 163.481-48.7639ZM127.104-78.8678Q132.969-78.8678 137.099-83.0069Q141.229-87.1461 141.229-92.9742Q141.229-98.8393 137.099-102.969Q132.969-107.099 127.104-107.099Q121.232-107.099 117.115-102.969Q112.997-98.8393 112.997-92.9742Q112.997-87.1461 117.115-83.0069Q121.232-78.8678 127.104-78.8678Z"/>
  </g>
  <g id="Medium-L" transform="matrix(1 0 0 1 1654.8 1556)">
   <path d="M44.7737-83.4349L80.4958-83.4349Q82.0731-83.4349 83.1608-84.5858Q84.2484-85.7366 84.2484-87.3491Q84.2484-88.9725 83.1608-90.1181Q82.0731-91.2637 80.4958-91.2637L44.7737-91.2637Q43.1858-91.2637 42.0982-90.1181Q41.0106-88.9725 41.0106-87.3491Q41.0106-85.7366 42.0982-84.5858Q43.1858-83.4349 44.7737-83.4349ZM19.7784-51.7849L64.6155-51.7849Q66.1928-51.7849 67.2693-52.9358Q68.3458-54.0866 68.3458-55.6995Q68.3458-57.3451 67.2693-58.4796Q66.1928-59.614 64.6155-59.614L19.7784-59.614Q18.2487-59.614 17.1664-58.4559Q16.084-57.2978 16.084-55.6995Q16.084-54.1343 17.1664-52.9596Q18.2487-51.7849 19.7784-51.7849ZM39.4779-20.1353L64.4118-20.1353Q65.9892-20.1353 67.0768-21.2862Q68.1644-22.437 68.1644-24.0499Q68.1644-25.6955 67.0655-26.8411Q65.9665-27.9867 64.4118-27.9867L39.4779-27.9867Q37.8306-27.9867 36.743-26.8299Q35.6554-25.6732 35.6554-24.0499Q35.6554-22.437 36.743-21.2862Q37.8306-20.1353 39.4779-20.1353ZM22.2664 11.2296L56.5735 11.2296Q58.1508 11.2296 59.2273 10.0787Q60.3038 8.92789 60.3038 7.29279Q60.3038 5.66944 59.2162 4.54766Q58.1285 3.42588 56.5735 3.42588L22.2664 3.42588Q20.6309 3.42588 19.5433 4.57148Q18.4557 5.71708 18.4557 7.29279Q18.4557 8.92789 19.5433 10.0787Q20.6309 11.2296 22.2664 11.2296ZM93.2768 29.761L112.173 7.31511Q113.574 5.63967 114.048 4.79669Q114.523 3.95371 115.063 2.21887L116.362-1.75464L106.099-14.6707L103.072-0.643789L84.4377 21.4606Q82.1546 24.1669 82.5045 26.5974Q82.8545 29.0279 84.7235 30.5524Q86.5925 32.0769 88.9882 32.0367Q91.384 31.9965 93.2768 29.761ZM139.049 27.8787Q140.552 30.884 143.074 31.6353Q145.596 32.3865 147.901 31.338Q150.205 30.2895 151.173 27.9043Q152.142 25.5191 150.548 22.262L137.718-3.7235Q136.981-5.17179 136.045-6.66537Q135.11-8.15895 134.146-9.49824L126.09-21.0032L126.621-22.6407Q128.233-27.5656 128.983-31.1315Q129.733-34.6974 130.054-39.4998L131.329-57.6613Q131.8-64.3009 128.165-68.6477Q124.53-72.9944 117.925-72.9944Q112.919-72.9944 109.068-70.5669Q105.217-68.1394 100.645-63.6364L91.0078-54.1475Q88.7194-51.9064 87.7517-49.719Q86.784-47.5316 86.5322-44.4364L85.3607-29.5615Q85.1312-26.6944 86.6147-24.8603Q88.0982-23.0263 90.7237-22.9353Q93.43-22.7164 95.0175-24.2639Q96.605-25.8114 96.8568-28.839L98.2122-45.0987L102.683-49.0974Q103.884-50.1484 105.161-49.6631Q106.438-49.1778 106.325-47.8938L105.36-34.3635Q104.933-29.1328 106.279-25.8282Q107.625-22.5236 111.238-17.9571L123.965-2.02347Q124.92-0.850332 125.224-0.212229Q125.529 0.425874 125.919 1.22883ZM161.048-48.4589L146.615-48.4589L137.546-58.4585L136.504-42.9815L139.862-39.6227Q141.435-38.0608 143.058-37.488Q144.681-36.9151 147.539-36.9151L161.048-36.9151Q163.937-36.9151 165.685-38.4738Q167.433-40.0324 167.433-42.6806Q167.433-45.2838 165.68-46.8713Q163.926-48.4589 161.048-48.4589ZM124.963-78.4713Q130.712-78.4713 134.758-82.5221Q138.803-86.5729 138.803-92.2886Q138.803-98.0371 134.758-102.083Q130.712-106.128 124.963-106.128Q119.2-106.128 115.173-102.083Q111.146-98.0371 111.146-92.2886Q111.146-86.5729 115.173-82.5221Q119.2-78.4713 124.963-78.4713Z"/>
  </g>
  <g id="Regular-L" transform="matrix(1 0 0 1 1359.81 1556)">
   <path d="M43.2565-83.1704L78.5473-83.1704Q80.0099-83.1704 81.0062-84.2194Q82.0025-85.2685 82.0025-86.7558Q82.0025-88.2435 81.0062-89.2926Q80.0099-90.3416 78.5473-90.3416L43.2565-90.3416Q41.7939-90.3416 40.7976-89.2926Q39.8013-88.2435 39.8013-86.7558Q39.8013-85.2685 40.7976-84.2194Q41.7939-83.1704 43.2565-83.1704ZM19.4862-51.819L63.0967-51.819Q64.5593-51.819 65.5419-52.8681Q66.5245-53.9171 66.5245-55.4049Q66.5245-56.92 65.5419-57.9554Q64.5593-58.9907 63.0967-58.9907L19.4862-58.9907Q18.0766-58.9907 17.0803-57.9291Q16.084-56.8674 16.084-55.4049Q16.084-53.9701 17.0803-52.8946Q18.0766-51.819 19.4862-51.819ZM37.9575-20.4681L62.4633-20.4681Q63.9259-20.4681 64.9222-21.5171Q65.9185-22.5662 65.9185-24.0539Q65.9185-25.5691 64.9083-26.6181Q63.8981-27.6672 62.4633-27.6672L37.9575-27.6672Q36.4145-27.6672 35.4182-26.6044Q34.4219-25.5416 34.4219-24.0539Q34.4219-22.5662 35.4182-21.5171Q36.4145-20.4681 37.9575-20.4681ZM21.6753 10.5662L55.0547 10.5662Q56.5173 10.5662 57.4999 9.51715Q58.4825 8.46808 58.4825 6.95294Q58.4825 5.46523 57.4862 4.44265Q56.4899 3.42008 55.0547 3.42008L21.6753 3.42008Q20.1597 3.42008 19.1634 4.46916Q18.1671 5.51823 18.1671 6.95294Q18.1671 8.46808 19.1634 9.51715Q20.1597 10.5662 21.6753 10.5662ZM90.8666 28.8193L109.506 6.67142Q110.871 5.0379 111.327 4.22114Q111.783 3.40438 112.318 1.69043L113.796-2.82869L103.92-15.2731L100.836-0.983504L82.4102 20.8701Q80.2161 23.4663 80.5503 25.7946Q80.8845 28.1229 82.6775 29.5819Q84.4705 31.0408 86.7588 31.0006Q89.0471 30.9604 90.8666 28.8193ZM136.321 26.9998Q137.766 29.8898 140.189 30.6122Q142.611 31.3346 144.819 30.3308Q147.026 29.3269 147.95 27.0386Q148.873 24.7503 147.348 21.619L134.68-4.03717Q133.958-5.45409 133.033-6.92678Q132.109-8.39946 131.171-9.68618L123.162-21.1236L123.725-22.8398Q125.331-27.66 126.055-31.1683Q126.779-34.6766 127.1-39.4163L128.359-57.3321Q128.814-63.788 125.292-68.0302Q121.77-72.2723 115.321-72.2723Q110.421-72.2723 106.659-69.9024Q102.897-67.5326 98.3982-63.0871L88.8913-53.7132Q86.6446-51.519 85.7058-49.3918Q84.7671-47.2645 84.5258-44.2639L83.3753-29.5878Q83.1614-26.8307 84.5663-25.0779Q85.9711-23.3251 88.4865-23.2447Q91.0827-23.0308 92.5943-24.5024Q94.1058-25.9739 94.347-28.8914L95.6868-45.0155L100.268-49.1142Q101.527-50.2127 102.857-49.7036Q104.186-49.1946 104.078-47.9056L103.113-34.327Q102.686-29.1327 104.024-25.9198Q105.362-22.7069 108.87-18.2609L121.431-2.54165Q122.396-1.36323 122.69-0.719875Q122.984-0.0765153 123.358 0.700269ZM157.875-48.0609L143.546-48.0609L134.267-58.3072L133.277-43.4803L137.097-39.6599Q138.623-38.1346 140.188-37.5854Q141.754-37.0362 144.538-37.0362L157.875-37.0362Q160.632-37.0362 162.305-38.5214Q163.977-40.0067 163.977-42.5499Q163.977-45.0379 162.305-46.5494Q160.632-48.0609 157.875-48.0609ZM122.172-77.9542Q127.769-77.9542 131.704-81.8898Q135.64-85.8253 135.64-91.3943Q135.64-96.9908 131.704-100.926Q127.769-104.862 122.172-104.862Q116.55-104.862 112.641-100.926Q108.732-96.9908 108.732-91.3943Q108.732-85.8253 112.641-81.8898Q116.55-77.9542 122.172-77.9542Z"/>
  </g>
  <g id="Light-L" transform="matrix(1 0 0 1 1064.3 1556)">
   <path d="M44.2489-83.7049L78.032-83.7049Q79.2275-83.7049 80.0234-84.5345Q80.8193-85.3641 80.8193-86.5457Q80.8193-87.7282 80.0234-88.5578Q79.2275-89.3874 78.032-89.3874L44.2489-89.3874Q43.0534-89.3874 42.2575-88.5578Q41.4617-87.7282 41.4617-86.5457Q41.4617-85.3641 42.2575-84.5345Q43.0534-83.7049 44.2489-83.7049ZM18.8372-52.6395L62.963-52.6395Q64.1585-52.6395 64.9312-53.4691Q65.7039-54.2987 65.7039-55.4812Q65.7039-56.71 64.9312-57.5164Q64.1585-58.3228 62.963-58.3228L18.8372-58.3228Q17.6758-58.3228 16.8799-57.4997Q16.084-56.6767 16.084-55.4812Q16.084-54.3328 16.8799-53.4862Q17.6758-52.6395 18.8372-52.6395ZM36.7362-21.575L61.948-21.575Q63.1435-21.575 63.9394-22.4046Q64.7353-23.2341 64.7353-24.4166Q64.7353-25.6454 63.9159-26.475Q63.0964-27.3046 61.948-27.3046L36.7362-27.3046Q35.4602-27.3046 34.6644-26.4518Q33.8685-25.599 33.8685-24.4166Q33.8685-23.2341 34.6644-22.4046Q35.4602-21.575 36.7362-21.575ZM20.8166 9.28745L54.921 9.28745Q56.1165 9.28745 56.8892 8.45786Q57.6619 7.62828 57.6619 6.39949Q57.6619 5.21704 56.8661 4.4045Q56.0702 3.59195 54.921 3.59195L20.8166 3.59195Q19.587 3.59195 18.7911 4.42154Q17.9952 5.25113 17.9952 6.39949Q17.9952 7.62828 18.7911 8.45786Q19.587 9.28745 20.8166 9.28745ZM90.0842 27.4834L108.323 5.81271Q109.63 4.21734 110.096 3.41966Q110.562 2.62198 111.077 0.946191L112.632-3.91667L103.099-15.9029L99.9961-1.57511L81.9523 19.8202Q79.8534 22.3213 80.1686 24.5636Q80.4837 26.806 82.2099 28.2173Q83.936 29.6287 86.1385 29.5885Q88.341 29.5483 90.0842 27.4834ZM134.717 25.7402Q136.106 28.5158 138.452 29.2095Q140.798 29.9032 142.92 28.9281Q145.042 27.9529 145.936 25.7504Q146.831 23.5478 145.363 20.531L132.943-4.5717Q132.279-5.91199 131.354-7.34652Q130.429-8.78104 129.511-10.0678L121.635-21.2955L122.198-23.0306Q123.747-27.7363 124.471-31.1683Q125.194-34.6003 125.516-39.2255L126.756-56.7405Q127.192-63.1009 123.736-67.1904Q120.281-71.2799 114.1-71.2799Q109.314-71.2799 105.647-68.9672Q101.981-66.6546 97.5966-62.3047L88.2997-53.1216Q86.1675-51.0226 85.2191-48.9813Q84.2707-46.94 84.0294-43.9775L82.9174-29.607Q82.7225-26.9451 84.07-25.2592Q85.4176-23.5733 87.8375-23.4929Q90.3385-23.2979 91.7832-24.7028Q93.2278-26.1076 93.4691-28.9296L94.7899-44.7484L99.3137-48.7897Q100.554-49.8692 101.941-49.3697Q103.327-48.8701 103.2-47.524L102.235-34.2315Q101.846-29.1708 103.137-26.0439Q104.427-22.9169 107.858-18.5662L120.152-3.20958Q121.117-2.0504 121.392-1.40704Q121.667-0.763681 122.023-0.00581525ZM155.719-47.5646L141.657-47.5646L132.301-57.9445L131.35-43.6522L135.475-39.5262Q136.943-38.0583 138.451-37.5186Q139.96-36.9788 142.668-36.9788L155.719-36.9788Q158.38-36.9788 159.986-38.4068Q161.591-39.8348 161.591-42.3018Q161.591-44.6753 159.986-46.1199Q158.38-47.5646 155.719-47.5646ZM120.683-76.9426Q126.146-76.9426 129.968-80.7636Q133.789-84.5847 133.789-90.0011Q133.789-95.4638 129.968-99.2849Q126.146-103.106 120.683-103.106Q115.233-103.106 111.429-99.2849Q107.625-95.4638 107.625-90.0011Q107.625-84.5847 111.429-80.7636Q115.233-76.9426 120.683-76.9426Z"/>
  </g>
  <g id="Thin-L" transform="matrix(1 0 0 1 769.162 1556)">
   <path d="M45.5615-84.4119L77.3505-84.4119Q78.1927-84.4119 78.7236-84.9512Q79.2544-85.4905 79.2544-86.268Q79.2544-87.0467 78.7236-87.586Q78.1927-88.1253 77.3505-88.1253L45.5615-88.1253Q44.7193-88.1253 44.1884-87.586Q43.6576-87.0467 43.6576-86.268Q43.6576-85.4905 44.1884-84.9512Q44.7193-84.4119 45.5615-84.4119ZM17.9788-53.7248L62.7862-53.7248Q63.6284-53.7248 64.1235-54.2641Q64.6187-54.8034 64.6187-55.5821Q64.6187-56.4322 64.1235-56.9358Q63.6284-57.4394 62.7862-57.4394L17.9788-57.4394Q17.1457-57.4394 16.6148-56.9319Q16.084-56.4243 16.084-55.5821Q16.084-54.8125 16.6148-54.2686Q17.1457-53.7248 17.9788-53.7248ZM35.1208-23.0389L61.2665-23.0389Q62.1087-23.0389 62.6396-23.5782Q63.1704-24.1175 63.1704-24.8962Q63.1704-25.7463 62.6033-26.2856Q62.0362-26.8249 61.2665-26.8249L35.1208-26.8249Q34.1981-26.8249 33.6673-26.2499Q33.1365-25.675 33.1365-24.8962Q33.1365-24.1175 33.6673-23.5782Q34.1981-23.0389 35.1208-23.0389ZM19.6809 7.59617L54.7442 7.59617Q55.5864 7.59617 56.0815 7.05687Q56.5767 6.51758 56.5767 5.66751Q56.5767 4.88879 56.0459 4.35403Q55.515 3.81927 54.7442 3.81927L19.6809 3.81927Q18.8296 3.81927 18.2988 4.35856Q17.7679 4.89786 17.7679 5.66751Q17.7679 6.51758 18.2988 7.05687Q18.8296 7.59617 19.6809 7.59617ZM89.0494 25.7166L106.758 4.67698Q107.989 3.13209 108.468 2.35964Q108.946 1.58719 109.437-0.0381294L111.092-5.35562L102.014-16.7358L98.8854-2.35757L81.3467 18.4318Q79.3738 20.8068 79.6637 22.9355Q79.9536 25.0642 81.5913 26.4126Q83.229 27.761 85.3181 27.7208Q87.4072 27.6806 89.0494 25.7166ZM132.597 24.0744Q133.91 26.6986 136.155 27.3543Q138.4 28.0101 140.408 27.0729Q142.416 26.1357 143.273 24.0466Q144.13 21.9575 142.738 19.092L130.646-5.27867Q130.057-6.5176 129.132-7.90165Q128.208-9.28571 127.315-10.5724L119.615-21.5228L120.178-23.283Q121.652-27.8372 122.376-31.1683Q123.099-34.4993 123.421-38.9732L124.635-55.958Q125.046-62.192 121.679-66.0797Q118.312-69.9673 112.485-69.9673Q107.85-69.9673 104.309-67.7304Q100.769-65.4934 96.5363-61.2699L87.5173-52.3391Q85.5364-50.3661 84.5753-48.4385Q83.6142-46.5109 83.3729-43.5988L82.3118-29.6325Q82.1419-27.0965 83.4138-25.499Q84.6856-23.9015 86.9791-23.8211Q89.3542-23.6512 90.7104-24.9678Q92.0667-26.2845 92.3079-28.98L93.6037-44.3952L98.0516-48.3605Q99.2669-49.415 100.729-48.928Q102.192-48.4409 102.039-47.0194L101.074-34.1051Q100.735-29.2213 101.963-26.208Q103.191-23.1947 106.52-18.9699L118.461-4.09296Q119.426-2.95923 119.675-2.31587Q119.925-1.67251 120.256-0.939668ZM152.866-46.9081L139.158-46.9081L129.701-57.4649L128.801-43.8795L133.33-39.3493Q134.722-37.9574 136.154-37.4301Q137.587-36.9029 140.194-36.9029L152.866-36.9029Q155.402-36.9029 156.919-38.2552Q158.436-39.6075 158.436-41.9735Q158.436-44.1956 156.919-45.5518Q155.402-46.9081 152.866-46.9081ZM118.714-75.6045Q124.001-75.6045 127.671-79.2742Q131.34-82.9438 131.34-88.1584Q131.34-93.4443 127.671-97.114Q124.001-100.784 118.714-100.784Q113.491-100.784 109.826-97.114Q106.161-93.4443 106.161-88.1584Q106.161-82.9438 109.826-79.2742Q113.491-75.6045 118.714-75.6045Z"/>
  </g>
  <g id="Ultralight-L" transform="matrix(1 0 0 1 473.259 1556)">
   <path d="M46.2338-84.774L77.0014-84.774Q77.6627-84.774 78.0578-85.1646Q78.4529-85.5552 78.4529-86.1257Q78.4529-86.6976 78.0578-87.0882Q77.6627-87.4788 77.0014-87.4788L46.2338-87.4788Q45.5725-87.4788 45.1774-87.0882Q44.7824-86.6976 44.7824-86.1257Q44.7824-85.5552 45.1774-85.1646Q45.5725-84.774 46.2338-84.774ZM17.5392-54.2807L62.6956-54.2807Q63.3568-54.2807 63.7098-54.6713Q64.0628-55.0619 64.0628-55.6338Q64.0628-56.2899 63.7098-56.6384Q63.3568-56.9869 62.6956-56.9869L17.5392-56.9869Q16.8741-56.9869 16.4791-56.641Q16.084-56.2951 16.084-55.6338Q16.084-55.0581 16.4791-54.6694Q16.8741-54.2807 17.5392-54.2807ZM34.2934-23.7888L60.9175-23.7888Q61.5787-23.7888 61.9738-24.1794Q62.3689-24.57 62.3689-25.1419Q62.3689-25.798 61.931-26.1886Q61.4931-26.5792 60.9175-26.5792L34.2934-26.5792Q33.5517-26.5792 33.1566-26.1465Q32.7616-25.7138 32.7616-25.1419Q32.7616-24.57 33.1566-24.1794Q33.5517-23.7888 34.2934-23.7888ZM19.0992 6.7299L54.6536 6.7299Q55.3149 6.7299 55.6678 6.33929Q56.0208 5.94868 56.0208 5.29259Q56.0208 4.72066 55.6258 4.32818Q55.2307 3.9357 54.6536 3.9357L19.0992 3.9357Q18.4416 3.9357 18.0466 4.3263Q17.6515 4.71691 17.6515 5.29259Q17.6515 5.94868 18.0466 6.33929Q18.4416 6.7299 19.0992 6.7299ZM88.5194 24.8117L105.956 4.09527Q107.149 2.57622 107.634 1.8167Q108.119 1.05718 108.596-0.542293L110.303-6.09264L101.458-17.1624L98.3165-2.75833L81.0365 17.7206Q79.1281 20.0312 79.4051 22.1016Q79.6821 24.1721 81.2745 25.4882Q82.8669 26.8043 84.8979 26.7641Q86.9289 26.7239 88.5194 24.8117ZM131.511 23.2212Q132.785 25.7678 134.979 26.4041Q137.172 27.0404 139.122 26.1226Q141.072 25.2049 141.909 23.1739Q142.747 21.1429 141.394 18.355L129.47-5.64077Q128.919-6.82778 127.995-8.18599Q127.07-9.5442 126.19-10.8309L118.581-21.6392L119.144-23.4122Q120.579-27.8889 121.303-31.1683Q122.026-34.4476 122.348-38.844L123.549-55.5572Q123.948-61.7265 120.625-65.5108Q117.303-69.295 111.657-69.295Q107.1-69.295 103.624-67.0968Q100.148-64.8987 95.9933-60.7399L87.1165-51.9383Q85.2132-50.0299 84.2456-48.1605Q83.2779-46.291 83.0367-43.4049L82.0016-29.6455Q81.8445-27.1741 83.0776-25.6219Q84.3107-24.0697 86.5394-23.9892Q88.85-23.8322 90.161-25.1036Q91.4719-26.3751 91.7132-29.0059L92.9961-44.2142L97.4051-48.1407Q98.6077-49.1824 100.109-48.7018Q101.61-48.2211 101.444-46.7609L100.479-34.0404Q100.166-29.2471 101.362-26.292Q102.557-23.337 105.835-19.1767L117.594-4.54543Q118.559-3.42473 118.796-2.78137Q119.033-2.13801 119.351-1.41798ZM151.405-46.5718L137.878-46.5718L128.369-57.2192L127.495-43.9959L132.231-39.2587Q133.584-37.9057 134.978-37.3848Q136.372-36.864 138.927-36.864L151.405-36.864Q153.877-36.864 155.348-38.1775Q156.82-39.4911 156.82-41.8054Q156.82-43.9499 155.348-45.2609Q153.877-46.5718 151.405-46.5718ZM117.705-74.9192Q122.902-74.9192 126.494-78.5113Q130.086-82.1034 130.086-87.2146Q130.086-92.4099 126.494-96.002Q122.902-99.5941 117.705-99.5941Q112.599-99.5941 109.005-96.002Q105.411-92.4099 105.411-87.2146Q105.411-82.1034 109.005-78.5113Q112.599-74.9192 117.705-74.9192Z"/>
  </g>
  <g id="Black-M" transform="matrix(1 0 0 1 2854.67 1126)">
   <path d="M42.0901-73.99L71.2606-73.99Q72.926-73.99 74.1257-75.2808Q75.3254-76.5717 75.3254-78.2999Q75.3254-80.0852 74.1257-81.3475Q72.926-82.6098 71.2606-82.6098L42.0901-82.6098Q40.3676-82.6098 39.168-81.3475Q37.9683-80.0852 37.9683-78.2999Q37.9683-76.5717 39.168-75.2808Q40.3676-73.99 42.0901-73.99ZM16.4631-48.1764L57.0864-48.1764Q58.7517-48.1764 59.9515-49.4672Q61.1514-50.758 61.1514-52.4863Q61.1514-54.2713 59.9515-55.5337Q58.7517-56.7961 57.0864-56.7961L16.4631-56.7961Q14.8032-56.7961 13.6321-55.531Q12.4609-54.2658 12.4609-52.4863Q12.4609-50.7635 13.6321-49.47Q14.8032-48.1764 16.4631-48.1764ZM37.2485-22.3628L58.7997-22.3628Q60.4651-22.3628 61.6647-23.6536Q62.8644-24.9444 62.8644-26.6726Q62.8644-28.4577 61.6649-29.72Q60.4653-30.9822 58.7997-30.9822L37.2485-30.9822Q35.578-30.9822 34.3783-29.7201Q33.1786-28.458 33.1786-26.6726Q33.1786-24.9444 34.3783-23.6536Q35.578-22.3628 37.2485-22.3628ZM19.7108 3.41789L50.8559 3.41789Q52.5212 3.41789 53.7211 2.12707Q54.9209 0.836251 54.9209-0.891694Q54.9209-2.67702 53.7212-3.93654Q52.5215-5.19607 50.8559-5.19607L19.7108-5.19607Q17.9829-5.19607 16.7832-3.9338Q15.5835-2.67153 15.5835-0.891694Q15.5835 0.836251 16.7832 2.12707Q17.9829 3.41789 19.7108 3.41789ZM83.2213 19.0516L98.9174 0.436466Q100.154-1.04379 100.611-1.81246Q101.067-2.58114 101.504-4.0095L101.705-4.6645L92.0643-16.7111L89.9825-7.05408L74.702 11.0832Q72.5511 13.6597 72.8889 15.9895Q73.2266 18.3193 75.0058 19.7893Q76.785 21.2593 79.1122 21.2281Q81.4394 21.197 83.2213 19.0516ZM119.884 17.3268Q121.297 20.1528 123.689 20.8593Q126.081 21.5659 128.289 20.5556Q130.497 19.5454 131.444 17.2753Q132.392 15.0052 130.86 11.9352L120.249-9.54191Q119.625-10.7839 118.852-12.0254Q118.078-13.2668 117.216-14.5492L110.802-23.7059L111.067-24.6143Q112.319-28.8786 113.022-31.8833Q113.726-34.8879 113.975-38.8615L115.029-53.9398Q115.46-59.9066 112.142-63.7094Q108.823-67.5121 103.067-67.5121Q98.74-67.5121 95.3742-65.3826Q92.0084-63.2531 88.1647-59.529L80.1607-51.707Q78.2328-49.7846 77.3451-47.839Q76.4575-45.8933 76.2135-43.0684L75.2212-30.7225Q74.977-28.0214 76.473-26.2448Q77.9691-24.4682 80.4833-24.3488Q83.0599-24.1616 84.621-25.6916Q86.1821-27.2216 86.4261-30.0473L87.5427-43.1721L90.472-45.7847Q91.1266-46.3718 91.8916-46.1094Q92.6567-45.847 92.5376-44.8562L91.7899-34.6961Q91.4726-30.5197 92.5351-27.5617Q93.5976-24.6036 96.8592-20.537L107.408-7.31799Q108.099-6.44023 108.377-5.97034Q108.655-5.50045 109.024-4.76293ZM138.812-47.1626L127.235-47.1626L121.161-53.8068L120.122-38.9711L120.679-38.4143Q122.097-37.0532 123.603-36.5027Q125.11-35.9523 127.639-35.9523L138.812-35.9523Q141.627-35.9523 143.313-37.4821Q144.998-39.0119 144.998-41.5258Q144.998-44.0404 143.284-45.6015Q141.57-47.1626 138.812-47.1626ZM109.306-70.7941Q114.422-70.7941 118.029-74.4301Q121.637-78.0662 121.637-83.1253Q121.637-88.2413 118.029-91.8488Q114.422-95.4562 109.306-95.4562Q104.241-95.4562 100.608-91.8488Q96.9748-88.2413 96.9748-83.1253Q96.9748-78.0662 100.608-74.4301Q104.241-70.7941 109.306-70.7941Z"/>
  </g>
  <g id="Heavy-M" transform="matrix(1 0 0 1 2559.92 1126)">
   <path d="M39.9323-73.5361L68.8739-73.5361Q70.4496-73.5361 71.5753-74.7436Q72.701-75.9512 72.701-77.5845Q72.701-79.2616 71.5753-80.4473Q70.4496-81.633 68.8739-81.633L39.9323-81.633Q38.3131-81.633 37.1874-80.4473Q36.0617-79.2616 36.0617-77.5845Q36.0617-75.9512 37.1874-74.7436Q38.3131-73.5361 39.9323-73.5361ZM16.2279-48.0438L55.1685-48.0438Q56.7442-48.0438 57.8687-49.2513Q58.9933-50.4588 58.9933-52.0923Q58.9933-53.7716 57.8687-54.9561Q56.7442-56.1407 55.1685-56.1407L16.2279-56.1407Q14.6687-56.1407 13.5648-54.9479Q12.4609-53.7552 12.4609-52.0923Q12.4609-50.4753 13.5648-49.2595Q14.6687-48.0438 16.2279-48.0438ZM35.5622-22.5515L56.413-22.5515Q57.9887-22.5515 59.1144-23.759Q60.24-24.9665 60.24-26.6Q60.24-28.2793 59.1132-29.465Q57.9864-30.6507 56.413-30.6507L35.5622-30.6507Q33.9679-30.6507 32.8422-29.4638Q31.7165-28.277 31.7165-26.6Q31.7165-24.9665 32.8422-23.759Q33.9679-22.5515 35.5622-22.5515ZM19.1377 2.84233L48.938 2.84233Q50.5137 2.84233 51.6383 1.63482Q52.7628 0.427299 52.7628-1.20838Q52.7628-2.88544 51.6371-4.06293Q50.5115-5.24042 48.938-5.24042L19.1377-5.24042Q17.5019-5.24042 16.3763-4.05471Q15.2506-2.86901 15.2506-1.20838Q15.2506 0.427299 16.3763 1.63482Q17.5019 2.84233 19.1377 2.84233ZM80.3003 18.1315L95.754-0.20409Q96.9559-1.63881 97.387-2.37798Q97.8181-3.11715 98.2519-4.52693L98.6658-5.80738L89.4481-17.348L87.2963-7.36241L72.2017 10.5518Q70.1445 13.0078 70.4662 15.225Q70.7879 17.4422 72.484 18.8384Q74.1801 20.2346 76.388 20.2035Q78.5959 20.1723 80.3003 18.1315ZM116.732 16.4708Q118.083 19.1737 120.364 19.8495Q122.645 20.5252 124.747 19.566Q126.848 18.6067 127.745 16.4425Q128.642 14.2782 127.185 11.3448L116.729-9.82912Q116.112-11.0474 115.352-12.2703Q114.592-13.4931 113.759-14.7081L107.377-23.8232L107.682-24.8285Q108.94-28.9831 109.61-31.9304Q110.279-34.8777 110.529-38.7955L111.567-53.6449Q111.982-59.3969 108.794-63.0983Q105.605-66.7998 99.9924-66.7998Q95.7755-66.7998 92.5033-64.7318Q89.2312-62.6639 85.4567-58.993L77.5752-51.2774Q75.676-49.3947 74.8275-47.5077Q73.979-45.6208 73.7485-42.9088L72.7749-30.7521Q72.5466-28.1715 73.9541-26.4847Q75.3617-24.7979 77.7553-24.692Q80.2113-24.5073 81.6894-25.9542Q83.1674-27.4012 83.3979-30.1063L84.4985-43.1228L87.5819-45.876Q88.3148-46.5279 89.1346-46.2331Q89.9545-45.9383 89.8463-44.9533L89.0986-34.6698Q88.773-30.5114 89.8358-27.6524Q90.8987-24.7935 94.0422-20.8608L104.434-7.83866Q105.138-6.95001 105.407-6.47338Q105.676-5.99675 106.028-5.28872ZM135.208-46.7592L123.707-46.7592L117.381-53.6908L116.401-39.5736L117.483-38.4907Q118.854-37.1642 120.298-36.642Q121.743-36.1197 124.195-36.1197L135.208-36.1197Q137.876-36.1197 139.478-37.5678Q141.081-39.0158 141.081-41.4118Q141.081-43.8031 139.457-45.2812Q137.832-46.7592 135.208-46.7592ZM106.048-70.3487Q110.998-70.3487 114.489-73.8616Q117.98-77.3744 117.98-82.2784Q117.98-87.2282 114.489-90.7193Q110.998-94.2104 106.048-94.2104Q101.127-94.2104 97.6228-90.7193Q94.1181-87.2282 94.1181-82.2784Q94.1181-77.3744 97.6228-73.8616Q101.127-70.3487 106.048-70.3487Z"/>
  </g>
  <g id="Bold-M" transform="matrix(1 0 0 1 2265.4 1126)">
   <path d="M37.5186-73.0284L66.2041-73.0284Q67.6794-73.0284 68.7223-74.1427Q69.7652-75.257 69.7652-76.7843Q69.7652-78.3403 68.7223-79.4403Q67.6794-80.5404 66.2041-80.5404L37.5186-80.5404Q36.0147-80.5404 34.9718-79.4403Q33.9289-78.3403 33.9289-76.7843Q33.9289-75.257 34.9718-74.1427Q36.0147-73.0284 37.5186-73.0284ZM15.9648-47.8954L53.0231-47.8954Q54.4985-47.8954 55.5388-49.0098Q56.5791-50.1241 56.5791-51.6515Q56.5791-53.2125 55.5388-54.31Q54.4985-55.4075 53.0231-55.4075L15.9648-55.4075Q14.5182-55.4075 13.4895-54.2957Q12.4609-53.1839 12.4609-51.6515Q12.4609-50.1528 13.4895-49.0241Q14.5182-47.8954 15.9648-47.8954ZM33.6759-22.7626L53.7432-22.7626Q55.2185-22.7626 56.2614-23.8769Q57.3043-24.9913 57.3043-26.5187Q57.3043-28.0797 56.2588-29.1797Q55.2133-30.2798 53.7432-30.2798L33.6759-30.2798Q32.1668-30.2798 31.1239-29.1772Q30.081-28.0746 30.081-26.5187Q30.081-24.9913 31.1239-23.8769Q32.1668-22.7626 33.6759-22.7626ZM18.4965 2.19849L46.7926 2.19849Q48.268 2.19849 49.3083 1.08416Q50.3487-0.030172 50.3487-1.56265Q50.3487-3.11859 49.3058-4.20431Q48.2629-5.29003 46.7926-5.29003L18.4965-5.29003Q16.9639-5.29003 15.921-4.18997Q14.8781-3.08992 14.8781-1.56265Q14.8781-0.030172 15.921 1.08416Q16.9639 2.19849 18.4965 2.19849ZM77.0327 17.1023L92.2153-0.920645Q93.3785-2.30442 93.7808-3.01059Q94.1832-3.71675 94.6142-5.10574L95.2656-7.08587L86.5215-18.0604L84.2914-7.70732L69.4048 9.95731Q67.4523 12.2784 67.7561 14.3697Q68.0599 16.461 69.663 17.7747Q71.2662 19.0885 73.3407 19.0573Q75.4151 19.0261 77.0327 17.1023ZM113.205 15.5133Q114.488 18.0785 116.644 18.7198Q118.8 19.361 120.784 18.4589Q122.768 17.5567 123.607 15.5108Q124.447 13.4649 123.074 10.6843L112.79-10.1504Q112.183-11.3421 111.438-12.5442Q110.693-13.7463 109.893-14.8859L103.545-23.9545L103.896-25.0682Q105.16-29.1001 105.792-31.9832Q106.424-34.8663 106.674-38.7217L107.694-53.3151Q108.091-58.8266 105.049-62.4147Q102.006-66.0029 96.5535-66.0029Q92.4592-66.0029 89.2918-64.0038Q86.1244-62.0047 82.4274-58.3934L74.6828-50.7969Q72.816-48.9586 72.0112-47.1372Q71.2065-45.3159 70.991-42.7302L70.0383-30.7851Q69.8279-28.3394 71.1364-26.753Q72.4449-25.1667 74.7037-25.0759Q77.0248-24.8941 78.4099-26.2481Q79.795-27.6021 80.0105-30.1723L81.0931-43.0677L84.3488-45.9781Q85.1693-46.7025 86.0505-46.3715Q86.9317-46.0404 86.8357-45.0619L86.088-34.6404Q85.753-30.502 86.8162-27.7539Q87.8795-25.0058 90.891-21.2231L101.107-8.42111Q101.826-7.52027 102.085-7.0361Q102.343-6.55194 102.678-5.87689ZM131.177-46.308L119.761-46.308L113.152-53.5611L112.238-40.2475L113.909-38.5762Q115.225-37.2885 116.601-36.7978Q117.977-36.3071 120.343-36.3071L131.177-36.3071Q133.68-36.3071 135.189-37.6636Q136.699-39.0202 136.699-41.2841Q136.699-43.5378 135.175-44.9229Q133.651-46.308 131.177-46.308ZM102.403-69.8504Q107.167-69.8504 110.528-73.2255Q113.889-76.6006 113.889-81.331Q113.889-86.095 110.528-89.4559Q107.167-92.8167 102.403-92.8167Q97.644-92.8167 94.2833-89.4559Q90.9225-86.095 90.9225-81.331Q90.9225-76.6006 94.2833-73.2255Q97.644-69.8504 102.403-69.8504Z"/>
  </g>
  <g id="Semibold-M" transform="matrix(1 0 0 1 1970.2 1126)">
   <path d="M35.8546-72.6783L64.3635-72.6783Q65.7697-72.6783 66.7555-73.7284Q67.7413-74.7785 67.7413-76.2327Q67.7413-77.7051 66.7555-78.7461Q65.7697-79.7871 64.3635-79.7871L35.8546-79.7871Q34.4302-79.7871 33.4444-78.7461Q32.4586-77.7051 32.4586-76.2327Q32.4586-74.7785 33.4444-73.7284Q34.4302-72.6783 35.8546-72.6783ZM15.7835-47.7932L51.5441-47.7932Q52.9503-47.7932 53.9326-48.8433Q54.9148-49.8933 54.9148-51.3476Q54.9148-52.8271 53.9326-53.8646Q52.9503-54.9021 51.5441-54.9021L15.7835-54.9021Q14.4144-54.9021 13.4377-53.8461Q12.4609-52.7901 12.4609-51.3476Q12.4609-49.9304 13.4377-48.8618Q14.4144-47.7932 15.7835-47.7932ZM32.3755-22.9081L51.9026-22.9081Q53.3088-22.9081 54.2946-23.9582Q55.2804-25.0083 55.2804-26.4626Q55.2804-27.9421 54.291-28.9831Q53.3016-30.0241 51.9026-30.0241L32.3755-30.0241Q30.9251-30.0241 29.9393-28.9796Q28.9535-27.935 28.9535-26.4626Q28.9535-25.0083 29.9393-23.9582Q30.9251-22.9081 32.3755-22.9081ZM18.0544 1.75462L45.3136 1.75462Q46.7198 1.75462 47.7021 0.704537Q48.6844-0.34555 48.6844-1.80688Q48.6844-3.27932 47.6986-4.30177Q46.7128-5.32423 45.3136-5.32423L18.0544-5.32423Q16.593-5.32423 15.6072-4.28322Q14.6214-3.24221 14.6214-1.80688Q14.6214-0.34555 15.6072 0.704537Q16.593 1.75462 18.0544 1.75462ZM74.78 16.3928L89.7758-1.41463Q90.9122-2.7633 91.2948-3.4467Q91.6773-4.13011 92.1063-5.50477L92.9216-7.96725L84.5039-18.5515L82.2199-7.9451L67.4766 9.54749Q65.5963 11.7756 65.8877 13.7801Q66.1791 15.7846 67.7183 17.0414Q69.2574 18.2983 71.2399 18.2671Q73.2223 18.236 74.78 16.3928ZM110.774 14.8532Q112.01 17.3234 114.08 17.941Q116.15 18.5585 118.052 17.6957Q119.954 16.8328 120.755 14.8685Q121.555 12.9042 120.24 10.229L110.075-10.3719Q109.474-11.5453 108.739-12.733Q108.004-13.9208 107.227-15.0084L100.904-24.045L101.286-25.2333Q102.555-29.1807 103.161-32.0196Q103.767-34.8584 104.016-38.6708L105.024-53.0877Q105.409-58.4335 102.467-61.9435Q99.5243-65.4535 94.1827-65.4535Q90.173-65.4535 87.0778-63.5019Q83.9826-61.5503 80.339-57.98L72.6889-50.4656Q70.8442-48.6579 70.0697-46.8818Q69.2951-45.1057 69.09-42.6071L68.1516-30.8079Q67.9536-28.4551 69.1939-26.938Q70.4341-25.421 72.5999-25.3405Q74.828-25.1607 76.1491-26.4506Q77.4702-27.7406 77.6752-30.2178L78.7455-43.0297L82.1199-46.0485Q83.0008-46.8229 83.9243-46.4669Q84.8478-46.1108 84.7602-45.1368L84.0125-34.6202Q83.6711-30.4955 84.7346-27.8239Q85.7981-25.1522 88.7185-21.4729L98.8136-8.82265Q99.5431-7.9134 99.7942-7.42404Q100.045-6.93468 100.368-6.28236ZM128.398-45.9969L117.041-45.9969L110.236-53.4717L109.368-40.7121L111.445-38.6351Q112.724-37.3741 114.053-36.9052Q115.381-36.4362 117.687-36.4362L128.398-36.4362Q130.787-36.4362 132.232-37.7297Q133.678-39.0232 133.678-41.1961Q133.678-43.3548 132.223-44.6759Q130.768-45.9969 128.398-45.9969ZM99.8903-69.5069Q104.526-69.5069 107.797-72.787Q111.068-76.0672 111.068-80.6779Q111.068-85.3138 107.797-88.5848Q104.526-91.8559 99.8903-91.8559Q95.2426-91.8559 91.981-88.5848Q88.7194-85.3138 88.7194-80.6779Q88.7194-76.0672 91.981-72.787Q95.2426-69.5069 99.8903-69.5069Z"/>
  </g>
  <g id="Medium-M" transform="matrix(1 0 0 1 1674.63 1126)">
   <path d="M34.5928-72.4129L62.9679-72.4129Q64.3216-72.4129 65.2642-73.4143Q66.2067-74.4156 66.2067-75.8144Q66.2067-77.2235 65.2642-78.2197Q64.3216-79.216 62.9679-79.216L34.5928-79.216Q33.2288-79.216 32.2863-78.2197Q31.3437-77.2235 31.3437-75.8144Q31.3437-74.4156 32.2863-73.4143Q33.2288-72.4129 34.5928-72.4129ZM15.646-47.7156L50.4226-47.7156Q51.7764-47.7156 52.7146-48.717Q53.6529-49.7184 53.6529-51.1172Q53.6529-52.5349 52.7146-53.5269Q51.7764-54.5188 50.4226-54.5188L15.646-54.5188Q14.3357-54.5188 13.3983-53.5052Q12.4609-52.4915 12.4609-51.1172Q12.4609-49.7619 13.3983-48.7387Q14.3357-47.7156 15.646-47.7156ZM31.3894-23.0185L50.507-23.0185Q51.8607-23.0185 52.8032-24.0199Q53.7458-25.0212 53.7458-26.4201Q53.7458-27.8377 52.7989-28.834Q51.852-29.8302 50.507-29.8302L31.3894-29.8302Q29.9837-29.8302 29.0411-28.8297Q28.0986-27.8292 28.0986-26.4201Q28.0986-25.0212 29.0411-24.0199Q29.9837-23.0185 31.3894-23.0185ZM17.7193 1.41807L44.1922 1.41807Q45.5459 1.41807 46.4842 0.416692Q47.4224-0.584683 47.4224-1.99206Q47.4224-3.40119 46.4799-4.37568Q45.5374-5.35016 44.1922-5.35016L17.7193-5.35016Q16.3118-5.35016 15.3692-4.35393Q14.4267-3.35769 14.4267-1.99206Q14.4267-0.584683 15.3692 0.416692Q16.3118 1.41807 17.7193 1.41807ZM73.0719 15.8547L87.926-1.7892Q89.0422-3.11123 89.4097-3.77739Q89.7773-4.44354 90.2048-5.80733L91.1442-8.63555L82.974-18.9239L80.6492-8.12539L66.0146 9.23675Q64.189 11.3944 64.4711 13.3331Q64.7531 15.2717 66.2437 16.4854Q67.7342 17.6991 69.6469 17.668Q71.5596 17.6368 73.0719 15.8547ZM108.931 14.3527Q110.13 16.7509 112.136 17.3504Q114.141 17.95 115.981 17.117Q117.821 16.284 118.592 14.3815Q119.362 12.4791 118.091 9.88371L108.017-10.5398Q107.42-11.6994 106.693-12.8762Q105.966-14.0531 105.206-15.1014L98.9012-24.1136L99.3065-25.3586Q100.579-29.2418 101.165-32.0471Q101.752-34.8524 102.001-38.6323L102.999-52.9153Q103.375-58.1354 100.509-61.5862Q97.6427-65.037 92.3851-65.037Q88.4396-65.037 85.3991-63.1214Q82.3587-61.2058 78.7555-57.6666L71.177-50.2144Q69.3492-48.4299 68.5975-46.6881Q67.8458-44.9463 67.6486-42.5137L66.7211-30.8251Q66.5325-28.5429 67.721-27.0783Q68.9095-25.6138 71.0047-25.5412Q73.1624-25.3628 74.4348-26.6042Q75.7073-27.8456 75.9045-30.2524L76.9655-43.0009L80.4299-46.1019Q81.3566-46.9142 82.3122-46.5392Q83.2677-46.1642 83.1865-45.1936L82.4388-34.6048Q82.0924-30.4907 83.1562-27.8769Q84.2199-25.2632 87.0713-21.6623L97.0745-9.12711Q97.8119-8.21149 98.0576-7.71819Q98.3034-7.22489 98.6167-6.58981ZM126.29-45.7611L114.978-45.7611L108.026-53.4039L107.192-41.0643L109.577-38.6798Q110.828-37.439 112.12-36.9866Q113.413-36.5342 115.673-36.5342L126.29-36.5342Q128.593-36.5342 129.99-37.7799Q131.387-39.0255 131.387-41.1294Q131.387-43.2161 129.985-44.4886Q128.583-45.7611 126.29-45.7611ZM97.9851-69.2464Q102.524-69.2464 105.727-72.4546Q108.93-75.6627 108.93-80.1826Q108.93-84.7214 105.727-87.9244Q102.524-91.1274 97.9851-91.1274Q93.4218-91.1274 90.2354-87.9244Q87.0489-84.7214 87.0489-80.1826Q87.0489-75.6627 90.2354-72.4546Q93.4218-69.2464 97.9851-69.2464Z"/>
  </g>
  <g id="Regular-M" transform="matrix(1 0 0 1 1379.41 1126)">
   <path d="M32.9471-72.0667L61.1475-72.0667Q62.4329-72.0667 63.319-73.0045Q64.2051-73.9424 64.2051-75.2688Q64.2051-76.5953 63.319-77.5331Q62.4329-78.471 61.1475-78.471L32.9471-78.471Q31.6617-78.471 30.7757-77.5331Q29.8896-76.5953 29.8896-75.2688Q29.8896-73.9424 30.7757-73.0045Q31.6617-72.0667 32.9471-72.0667ZM15.4666-47.6145L48.9599-47.6145Q50.2452-47.6145 51.1261-48.5523Q52.0069-49.4902 52.0069-50.8167Q52.0069-52.1537 51.1261-53.0863Q50.2452-54.0189 48.9599-54.0189L15.4666-54.0189Q14.2331-54.0189 13.347-53.0605Q12.4609-52.102 12.4609-50.8167Q12.4609-49.542 13.347-48.5782Q14.2331-47.6145 15.4666-47.6145ZM30.1033-23.1624L48.6866-23.1624Q49.972-23.1624 50.858-24.1003Q51.7441-25.0381 51.7441-26.3647Q51.7441-27.7017 50.8527-28.6395Q49.9613-29.5773 48.6866-29.5773L30.1033-29.5773Q28.7556-29.5773 27.8696-28.6343Q26.9835-27.6912 26.9835-26.3647Q26.9835-25.0381 27.8696-24.1003Q28.7556-23.1624 30.1033-23.1624ZM17.2821 0.979082L42.7294 0.979082Q44.0147 0.979082 44.8956 0.0412435Q45.7764-0.896595 45.7764-2.23361Q45.7764-3.56016 44.8904-4.47207Q44.0043-5.38399 42.7294-5.38399L17.2821-5.38399Q15.9449-5.38399 15.0588-4.44615Q14.1728-3.50831 14.1728-2.23361Q14.1728-0.896595 15.0588 0.0412435Q15.9449 0.979082 17.2821 0.979082ZM70.844 15.153L85.5133-2.27776Q86.603-3.56506 86.951-4.20871Q87.299-4.85236 87.7245-6.20197L88.8259-9.50724L80.9786-19.4096L78.6004-8.36056L64.1076 8.83143Q62.3534 10.8971 62.6232 12.7499Q62.8931 14.6027 64.3203 15.7602Q65.7475 16.9176 67.5692 16.8865Q69.3909 16.8553 70.844 15.153ZM106.527 13.6999Q107.679 16.0042 109.6 16.5802Q111.52 17.1562 113.279 16.3621Q115.039 15.568 115.77 13.7463Q116.502 11.9246 115.288 9.43339L105.332-10.7589Q104.74-11.9003 104.024-13.063Q103.307-14.2257 102.57-15.2226L96.2888-24.2031L96.725-25.522Q98.0018-29.3216 98.5626-32.0831Q99.1233-34.8446 99.3725-38.5819L100.359-52.6904Q100.722-57.7466 97.9553-61.1201Q95.1885-64.4936 90.0404-64.4936Q86.1785-64.4936 83.2095-62.625Q80.2404-60.7563 76.69-57.2578L69.205-49.8867Q67.3991-48.1325 66.6773-46.4355Q65.9555-44.7385 65.7686-42.392L64.8553-30.8476Q64.6788-28.6573 65.7998-27.2613Q66.9208-25.8652 68.924-25.8029Q70.9897-25.6265 72.1989-26.8045Q73.408-27.9826 73.5949-30.2974L74.6436-42.9634L78.2256-46.1715Q79.212-47.0333 80.2094-46.6335Q81.2067-46.2338 81.1338-45.2677L80.3861-34.5848Q80.0334-30.4843 81.0974-27.9461Q82.1614-25.408 84.9227-21.9093L94.8061-9.52423Q95.5538-8.6003 95.7925-8.10186Q96.0311-7.60343 96.3322-6.99084ZM123.542-45.4534L112.288-45.4534L105.143-53.3154L104.354-41.5238L107.14-38.7381Q108.354-37.5237 109.599-37.0928Q110.845-36.6619 113.046-36.6619L123.542-36.6619Q125.732-36.6619 127.066-37.8452Q128.399-39.0285 128.399-41.0424Q128.399-43.0352 127.066-44.2443Q125.732-45.4534 123.542-45.4534ZM95.5-68.9066Q99.9122-68.9066 103.026-72.0209Q106.141-75.1351 106.141-79.5367Q106.141-83.9487 103.026-87.063Q99.9122-90.1772 95.5-90.1772Q91.0468-90.1772 87.9584-87.063Q84.8701-83.9487 84.8701-79.5367Q84.8701-75.1351 87.9584-72.0209Q91.0468-68.9066 95.5-68.9066Z"/>
  </g>
  <g id="Light-M" transform="matrix(1 0 0 1 1083.77 1126)">
   <path d="M33.8369-72.5459L60.6856-72.5459Q61.7314-72.5459 62.4378-73.287Q63.1442-74.028 63.1442-75.0804Q63.1442-76.1333 62.4378-76.8744Q61.7314-77.6154 60.6856-77.6154L33.8369-77.6154Q32.791-77.6154 32.0846-76.8744Q31.3782-76.1333 31.3782-75.0804Q31.3782-74.028 32.0846-73.287Q32.791-72.5459 33.8369-72.5459ZM14.8847-48.3501L48.84-48.3501Q49.8859-48.3501 50.5785-49.0912Q51.2712-49.8323 51.2712-50.8851Q51.2712-51.9654 50.5785-52.6928Q49.8859-53.4201 48.84-53.4201L14.8847-53.4201Q13.8737-53.4201 13.1673-52.6755Q12.4609-51.931 12.4609-50.8851Q12.4609-49.8671 13.1673-49.1086Q13.8737-48.3501 14.8847-48.3501ZM29.0083-24.1548L48.2246-24.1548Q49.2705-24.1548 49.9769-24.8959Q50.6833-25.6369 50.6833-26.6898Q50.6833-27.7701 49.963-28.5111Q49.2426-29.2522 48.2246-29.2522L29.0083-29.2522Q27.9001-29.2522 27.1937-28.4974Q26.4873-27.7427 26.4873-26.6898Q26.4873-25.6369 27.1937-24.8959Q27.9001-24.1548 29.0083-24.1548ZM16.5122-0.167406L42.6095-0.167406Q43.6554-0.167406 44.3481-0.908461Q45.0408-1.64952 45.0408-2.7298Q45.0408-3.78267 44.3344-4.50628Q43.628-5.2299 42.6095-5.2299L16.5122-5.2299Q15.4315-5.2299 14.7251-4.48884Q14.0187-3.74779 14.0187-2.7298Q14.0187-1.64952 14.7251-0.908461Q15.4315-0.167406 16.5122-0.167406ZM70.1426 13.9553L84.4524-3.04764Q85.4907-4.30073 85.8474-4.92728Q86.204-5.55383 86.6122-6.86922L87.782-10.4827L80.2429-19.9742L77.8475-8.89097L63.6971 7.89021Q62.0283 9.87054 62.281 11.6463Q62.5337 13.422 63.901 14.5368Q65.2682 15.6516 67.013 15.6204Q68.7579 15.5893 70.1426 13.9553ZM105.09 12.5706Q106.191 14.7723 108.043 15.3226Q109.895 15.8729 111.577 15.1045Q113.259 14.3362 113.965 12.5913Q114.671 10.8465 113.508 8.45795L103.775-11.2381Q103.234-12.3108 102.518-13.4393Q101.801-14.5678 101.082-15.5647L94.9198-24.3572L95.356-25.693Q96.5817-29.39 97.1424-32.0831Q97.7031-34.7762 97.9524-38.4109L98.9213-52.16Q99.2678-57.1305 96.5607-60.3672Q93.8537-63.6039 88.9454-63.6039Q85.1861-63.6039 82.3026-61.7865Q79.4191-59.9692 75.9713-56.5563L68.6746-49.3563Q66.9713-47.6875 66.2409-46.0675Q65.5104-44.4475 65.3235-42.1353L64.4447-30.8649Q64.2852-28.76 65.3549-27.4239Q66.4246-26.0877 68.3421-26.0254Q70.3225-25.8659 71.4717-26.9842Q72.6209-28.1025 72.8078-30.3316L73.8395-42.7239L77.37-45.8805Q78.3395-46.7254 79.3882-46.3341Q80.4368-45.9429 80.3466-44.9256L79.599-34.4991Q79.2805-30.5185 80.3018-28.0574Q81.3231-25.5963 84.0157-22.183L93.6596-10.1231Q94.4073-9.21638 94.6289-8.71794Q94.8504-8.2195 95.1345-7.62388ZM121.608-45.0084L110.594-45.0084L103.38-52.9903L102.626-41.6779L105.685-38.6182Q106.848-37.4553 108.042-37.0329Q109.237-36.6105 111.369-36.6105L121.608-36.6105Q123.713-36.6105 124.987-37.7424Q126.261-38.8744 126.261-40.8199Q126.261-42.71 124.987-43.8592Q123.713-45.0084 121.608-45.0084ZM94.1652-67.9996Q98.4578-67.9996 101.469-71.0112Q104.481-74.0229 104.481-78.2876Q104.481-82.5797 101.469-85.5913Q98.4578-88.603 94.1652-88.603Q89.8661-88.603 86.8719-85.5913Q83.8777-82.5797 83.8777-78.2876Q83.8777-74.0229 86.8719-71.0112Q89.8661-67.9996 94.1652-67.9996Z"/>
  </g>
  <g id="Thin-M" transform="matrix(1 0 0 1 788.476 1126)">
   <path d="M35.0136-73.1798L60.0745-73.1798Q60.8037-73.1798 61.2725-73.6606Q61.7412-74.1414 61.7412-74.8314Q61.7412-75.5223 61.2725-76.0031Q60.8037-76.4839 60.0745-76.4839L35.0136-76.4839Q34.2845-76.4839 33.8157-76.0031Q33.347-75.5223 33.347-74.8314Q33.347-74.1414 33.8157-73.6606Q34.2845-73.1798 35.0136-73.1798ZM14.1152-49.3231L48.6814-49.3231Q49.4106-49.3231 49.8544-49.8039Q50.2983-50.2847 50.2983-50.9756Q50.2983-51.7164 49.8544-52.1722Q49.4106-52.6281 48.6814-52.6281L14.1152-52.6281Q13.3985-52.6281 12.9297-52.1664Q12.4609-51.7048 12.4609-50.9756Q12.4609-50.2972 12.9297-49.8102Q13.3985-49.3231 14.1152-49.3231ZM27.56-25.4673L47.6136-25.4673Q48.3428-25.4673 48.8115-25.9481Q49.2803-26.4289 49.2803-27.1198Q49.2803-27.8606 48.7862-28.3414Q48.2921-28.8222 47.6136-28.8222L27.56-28.8222Q26.7686-28.8222 26.2998-28.3164Q25.831-27.8107 25.831-27.1198Q25.831-26.4289 26.2998-25.9481Q26.7686-25.4673 27.56-25.4673ZM15.494-1.68373L42.451-1.68373Q43.1801-1.68373 43.6239-2.16452Q44.0678-2.64532 44.0678-3.38607Q44.0678-4.07696 43.599-4.55153Q43.1303-5.0261 42.451-5.0261L15.494-5.0261Q14.7524-5.0261 14.2836-4.5453Q13.8149-4.06451 13.8149-3.38607Q13.8149-2.64532 14.2836-2.16452Q14.7524-1.68373 15.494-1.68373ZM69.2148 12.3713L83.0494-4.06587Q84.0197-5.27372 84.3877-5.87764Q84.7557-6.48157 85.1411-7.75172L86.4014-11.7728L79.2699-20.721L76.8517-9.59248L63.1541 6.64537Q61.5982 8.51277 61.8283 10.1866Q62.0584 11.8604 63.3464 12.9188Q64.6344 13.9771 66.2775 13.9459Q67.9206 13.9148 69.2148 12.3713ZM103.188 11.0771Q104.222 13.143 105.983 13.6593Q107.745 14.1756 109.325 13.4413Q110.906 12.7069 111.578 11.0638Q112.25 9.4207 111.155 7.16786L101.715-11.872Q101.243-12.8538 100.526-13.937Q99.8098-15.0203 99.1128-16.0171L93.1092-24.561L93.5454-25.9193Q94.7034-29.4805 95.2641-32.0831Q95.8248-34.6857 96.0741-38.1846L97.0202-51.4585Q97.3442-56.3157 94.7163-59.3714Q92.0883-62.4271 87.4971-62.4271Q83.8736-62.4271 81.1032-60.6776Q78.3328-58.9282 75.0208-55.6286L67.9731-48.6548Q66.4056-47.0989 65.6637-45.5808Q64.9219-44.0628 64.7349-41.7957L63.9018-30.8877Q63.7647-28.8957 64.7665-27.6389Q65.7683-26.382 67.5726-26.3197Q69.44-26.1827 70.5099-27.2219Q71.5798-28.261 71.7667-30.3768L72.7761-42.4072L76.2385-45.4958Q77.1855-46.3182 78.302-45.9381Q79.4186-45.5581 79.3056-44.4731L78.5579-34.3858Q78.2847-30.5637 79.2495-28.2045Q80.2144-25.8454 82.8161-22.5449L92.1433-10.9151Q92.891-10.0312 93.0899-9.53276Q93.2889-9.03432 93.5505-8.46113ZM119.051-44.4198L108.354-44.4198L101.049-52.5603L100.34-41.8817L103.762-38.4597Q104.856-37.3648 105.983-36.9536Q107.109-36.5424 109.151-36.5424L119.051-36.5424Q121.043-36.5424 122.237-37.6065Q123.432-38.6706 123.432-40.5256Q123.432-42.28 122.237-43.3499Q121.043-44.4198 119.051-44.4198ZM92.3998-66.8Q96.5343-66.8 99.4101-69.6759Q102.286-72.5518 102.286-76.6355Q102.286-80.7691 99.4101-83.645Q96.5343-86.5209 92.3998-86.5209Q88.3045-86.5209 85.4348-83.645Q82.5652-80.7691 82.5652-76.6355Q82.5652-72.5518 85.4348-69.6759Q88.3045-66.8 92.3998-66.8Z"/>
  </g>
  <g id="Ultralight-M" transform="matrix(1 0 0 1 492.489 1126)">
   <path d="M35.6164-73.5044L59.7616-73.5044Q60.3285-73.5044 60.6756-73.8519Q61.0226-74.1994 61.0226-74.7038Q61.0226-75.2093 60.6756-75.5568Q60.3285-75.9043 59.7616-75.9043L35.6164-75.9043Q35.0495-75.9043 34.7024-75.5568Q34.3554-75.2093 34.3554-74.7038Q34.3554-74.1994 34.7024-73.8519Q35.0495-73.5044 35.6164-73.5044ZM13.721-49.8215L48.6002-49.8215Q49.1671-49.8215 49.4835-50.169Q49.7999-50.5165 49.7999-51.022Q49.7999-51.5888 49.4835-51.9056Q49.1671-52.2224 48.6002-52.2224L13.721-52.2224Q13.155-52.2224 12.808-51.9057Q12.4609-51.5889 12.4609-51.022Q12.4609-50.5174 12.808-50.1695Q13.155-49.8215 13.721-49.8215ZM26.8182-26.1396L47.3006-26.1396Q47.8676-26.1396 48.2146-26.4871Q48.5617-26.8346 48.5617-27.3401Q48.5617-27.9069 48.1834-28.2544Q47.8052-28.6019 47.3006-28.6019L26.8182-28.6019Q26.189-28.6019 25.8419-28.2237Q25.4949-27.8456 25.4949-27.3401Q25.4949-26.8346 25.8419-26.4871Q26.189-26.1396 26.8182-26.1396ZM14.9725-2.46038L42.3698-2.46038Q42.9367-2.46038 43.253-2.80787Q43.5694-3.15536 43.5694-3.7222Q43.5694-4.2277 43.2224-4.5747Q42.8753-4.92171 42.3698-4.92171L14.9725-4.92171Q14.4046-4.92171 14.0575-4.57422Q13.7105-4.22673 13.7105-3.7222Q13.7105-3.15536 14.0575-2.80787Q14.4046-2.46038 14.9725-2.46038ZM68.7396 11.56L82.3308-4.58741Q83.2662-5.77208 83.64-6.36441Q84.0139-6.95675 84.3877-8.20373L85.6943-12.4335L78.7716-21.1034L76.3416-9.95179L62.876 6.00776Q61.378 7.81732 61.5965 9.43897Q61.815 11.0606 63.0624 12.09Q64.3097 13.1194 65.9008 13.0882Q67.4918 13.0571 68.7396 11.56ZM102.215 10.3122Q103.213 12.3086 104.929 12.8074Q106.644 13.3062 108.172 12.5893Q109.7 11.8724 110.355 10.2814Q111.009 8.69039 109.949 6.50708L100.661-12.1966Q100.223-13.1319 99.5062-14.192Q98.7897-15.252 98.1044-16.2489L92.1818-24.6654L92.618-26.0351Q93.7413-29.5268 94.302-32.0831Q94.8628-34.6394 95.112-38.0688L96.0465-51.0992Q96.359-55.8983 93.7715-58.8613Q91.1841-61.8243 86.7553-61.8243Q83.2013-61.8243 80.4888-60.1096Q77.7764-58.3949 74.5339-55.1534L67.6137-48.2955Q66.1158-46.7974 65.3681-45.3316Q64.6204-43.8657 64.4335-41.6218L63.6237-30.8994Q63.4981-28.9652 64.4651-27.749Q65.4322-26.5328 67.1784-26.4705Q68.988-26.3449 70.0173-27.3436Q71.0466-28.3423 71.2335-30.4L72.2313-42.2449L75.6589-45.2987Q76.5944-46.1096 77.7458-45.7353Q78.8971-45.361 78.7724-44.2413L78.0247-34.3278Q77.7746-30.5869 78.7106-28.2799Q79.6465-25.9729 82.2017-22.7303L91.3667-11.3207Q92.1143-10.4485 92.3017-9.9501Q92.489-9.45166 92.7392-8.88996ZM117.741-44.1183L107.206-44.1183L99.8549-52.34L99.1698-41.9861L102.776-38.3784Q103.836-37.3185 104.928-36.913Q106.02-36.5075 108.015-36.5075L117.741-36.5075Q119.675-36.5075 120.829-37.5369Q121.983-38.5662 121.983-40.3748Q121.983-42.0597 120.829-43.089Q119.675-44.1183 117.741-44.1183ZM91.4956-66.1856Q95.549-66.1856 98.3554-68.9919Q101.162-71.7983 101.162-75.7893Q101.162-79.8417 98.3554-82.6481Q95.549-85.4544 91.4956-85.4544Q87.5047-85.4544 84.6988-82.6481Q81.8929-79.8417 81.8929-75.7893Q81.8929-71.7983 84.6988-68.9919Q87.5047-66.1856 91.4956-66.1856Z"/>
  </g>
  <g id="Black-S" transform="matrix(1 0 0 1 2871.17 696)">
   <path d="M33.6914-65.7715L56.543-65.7715Q57.8613-65.7715 58.8135-66.7969Q59.7656-67.8223 59.7656-69.1895Q59.7656-70.6055 58.8135-71.6064Q57.8613-72.6074 56.543-72.6074L33.6914-72.6074Q32.3242-72.6074 31.3721-71.6064Q30.4199-70.6055 30.4199-69.1895Q30.4199-67.8223 31.3721-66.7969Q32.3242-65.7715 33.6914-65.7715ZM12.9395-45.459L45.3125-45.459Q46.6309-45.459 47.583-46.4844Q48.5352-47.5098 48.5352-48.877Q48.5352-50.293 47.583-51.2939Q46.6309-52.2949 45.3125-52.2949L12.9395-52.2949Q11.6211-52.2949 10.6934-51.2939Q9.76562-50.293 9.76562-48.877Q9.76562-47.5098 10.6934-46.4844Q11.6211-45.459 12.9395-45.459ZM29.6387-25.1465L46.7773-25.1465Q48.0957-25.1465 49.0479-26.1719Q50-27.1973 50-28.5645Q50-29.9805 49.0479-30.9814Q48.0957-31.9824 46.7773-31.9824L29.6387-31.9824Q28.3203-31.9824 27.3682-30.9814Q26.416-29.9805 26.416-28.5645Q26.416-27.1973 27.3682-26.1719Q28.3203-25.1465 29.6387-25.1465ZM15.5762-4.83398L40.4297-4.83398Q41.748-4.83398 42.7002-5.85938Q43.6523-6.88477 43.6523-8.25195Q43.6523-9.66797 42.7002-10.6689Q41.748-11.6699 40.4297-11.6699L15.5762-11.6699Q14.209-11.6699 13.2568-10.6689Q12.3047-9.66797 12.3047-8.25195Q12.3047-6.88477 13.2568-5.85938Q14.209-4.83398 15.5762-4.83398ZM66.0645 7.51953L78.418-7.12891Q79.3945-8.30078 79.7607-8.91113Q80.127-9.52148 80.4688-10.6445L80.5664-10.9863L72.9004-20.5566L71.2891-13.0859L59.2773 1.17188Q57.5684 3.22266 57.8369 5.07812Q58.1055 6.93359 59.5215 8.10547Q60.9375 9.27734 62.793 9.25293Q64.6484 9.22852 66.0645 7.51953ZM94.8242 6.15234Q95.9473 8.39844 97.8516 8.95996Q99.7559 9.52148 101.514 8.71582Q103.271 7.91016 104.028 6.10352Q104.785 4.29688 103.564 1.85547L95.2148-15.0391Q94.7266-16.0156 94.1162-16.9922Q93.5059-17.9688 92.8223-18.9941L87.793-26.1719L87.9883-26.8555Q88.9648-30.2246 89.5264-32.5928Q90.0879-34.9609 90.2832-38.0859L91.1133-49.9512Q91.4551-54.6875 88.8184-57.6904Q86.1816-60.6934 81.6406-60.6934Q78.2227-60.6934 75.5615-59.0088Q72.9004-57.3242 69.873-54.3945L63.5742-48.2422Q62.0605-46.7285 61.3525-45.1904Q60.6445-43.6523 60.4492-41.4062L59.668-31.6895Q59.4727-29.541 60.6689-28.125Q61.8652-26.709 63.8672-26.6113Q65.918-26.4648 67.1631-27.6855Q68.4082-28.9062 68.6035-31.1523L69.4824-41.4551L71.7285-43.457Q72.2168-43.8965 72.8027-43.7012Q73.3887-43.5059 73.291-42.7246L72.7051-34.8145Q72.4609-31.543 73.291-29.1992Q74.1211-26.8555 76.709-23.6328L85.0098-13.2324Q85.5469-12.5488 85.7666-12.1826Q85.9863-11.8164 86.2793-11.2305ZM109.766-44.6777L100.684-44.6777L95.9961-49.8047L95.166-37.9883L95.459-37.6953Q96.582-36.6211 97.7783-36.1816Q98.9746-35.7422 100.977-35.7422L109.766-35.7422Q112.012-35.7422 113.354-36.9629Q114.697-38.1836 114.697-40.1855Q114.697-42.1875 113.33-43.4326Q111.963-44.6777 109.766-44.6777ZM86.5723-63.1836Q90.625-63.1836 93.4814-66.0645Q96.3379-68.9453 96.3379-72.9492Q96.3379-77.002 93.4814-79.8584Q90.625-82.7148 86.5723-82.7148Q82.5684-82.7148 79.6875-79.8584Q76.8066-77.002 76.8066-72.9492Q76.8066-68.9453 79.6875-66.0645Q82.5684-63.1836 86.5723-63.1836Z"/>
  </g>
  <g id="Heavy-S" transform="matrix(1 0 0 1 2576 696)">
   <path d="M31.7322-65.322L54.5608-65.322Q55.833-65.322 56.7448-66.3013Q57.6566-67.2806 57.6566-68.6017Q57.6566-69.9601 56.7448-70.9207Q55.833-71.8814 54.5608-71.8814L31.7322-71.8814Q30.4227-71.8814 29.5109-70.9207Q28.5991-69.9601 28.5991-68.6017Q28.5991-67.2806 29.5109-66.3013Q30.4227-65.322 31.7322-65.322ZM12.8127-45.2515L43.6876-45.2515Q44.9598-45.2515 45.8716-46.2308Q46.7834-47.2101 46.7834-48.5312Q46.7834-49.8896 45.8716-50.8503Q44.9598-51.8109 43.6876-51.8109L12.8127-51.8109Q11.5519-51.8109 10.6588-50.8445Q9.76562-49.8781 9.76562-48.5312Q9.76562-47.2217 10.6588-46.2366Q11.5519-45.2515 12.8127-45.2515ZM28.3364-25.1811L44.7951-25.1811Q46.0674-25.1811 46.9792-26.1604Q47.891-27.1396 47.891-28.4607Q47.891-29.8191 46.9792-30.7798Q46.0674-31.7404 44.7951-31.7404L28.3364-31.7404Q27.0526-31.7404 26.1408-30.7798Q25.229-29.8191 25.229-28.4607Q25.229-27.1396 26.1408-26.1604Q27.0526-25.1811 28.3364-25.1811ZM15.1843-5.17972L38.8047-5.17972Q40.077-5.17972 40.9888-6.15901Q41.9006-7.1383 41.9006-8.45939Q41.9006-9.81779 40.9888-10.7727Q40.077-11.7275 38.8047-11.7275L15.1843-11.7275Q13.8633-11.7275 12.9514-10.7669Q12.0396-9.80626 12.0396-8.45939Q12.0396-7.1383 12.9514-6.15901Q13.8633-5.17972 15.1843-5.17972ZM63.6558 6.88569L75.848-7.57836Q76.8015-8.71566 77.1447-9.30296Q77.4879-9.89027 77.8296-11.0018L78.1002-11.8391L70.7568-21.0291L69.0879-13.2819L57.1914 0.837666Q55.5516 2.79625 55.8086 4.56529Q56.0656 6.33432 57.4183 7.44857Q58.7709 8.56283 60.5342 8.53841Q62.2974 8.514 63.6558 6.88569ZM92.3119 5.5646Q93.3888 7.71849 95.2067 8.25697Q97.0246 8.79544 98.7017 8.03011Q100.379 7.26479 101.095 5.53882Q101.812 3.81285 100.649 1.47516L92.4029-15.2235Q91.9146-16.1885 91.3158-17.1535Q90.7169-18.1186 90.0564-19.0863L85.0386-26.2525L85.2685-27.0168Q86.2566-30.3053 86.7893-32.6331Q87.322-34.9609 87.5173-38.0514L88.3359-49.7668Q88.6662-54.3302 86.1332-57.264Q83.6002-60.1978 79.1513-60.1978Q75.814-60.1978 73.2221-58.5593Q70.6301-56.9209 67.6488-54.0257L61.4307-47.9426Q59.9285-46.4519 59.2551-44.9542Q58.5817-43.4564 58.3979-41.3025L57.6281-31.7125Q57.4444-29.6563 58.5715-28.3094Q59.6986-26.9625 61.6084-26.8764Q63.567-26.7299 64.7487-27.8872Q65.9304-29.0445 66.1142-31.1984L66.9816-41.4436L69.366-43.5723Q69.9234-44.0694 70.5497-43.8452Q71.176-43.6211 71.0898-42.8514L70.5039-34.8029Q70.2482-31.5314 71.0841-29.2626Q71.9199-26.9938 74.4156-23.8748L82.6127-13.6012Q83.1613-12.9061 83.3753-12.5341Q83.5892-12.1621 83.8707-11.5993ZM106.931-44.3896L97.8831-44.3896L92.9882-49.7471L92.2042-38.4838L92.9121-37.776Q94.0006-36.7248 95.1507-36.3084Q96.3009-35.892 98.2453-35.892L106.931-35.892Q109.061-35.892 110.341-37.0493Q111.62-38.2066 111.62-40.1164Q111.62-42.0262 110.322-43.2079Q109.024-44.3896 106.931-44.3896ZM83.9562-62.9185Q87.8822-62.9185 90.6522-65.7072Q93.4222-68.4959 93.4222-72.3845Q93.4222-76.3105 90.6522-79.0805Q87.8822-81.8505 83.9562-81.8505Q80.056-81.8505 77.2731-79.0805Q74.4902-76.3105 74.4902-72.3845Q74.4902-68.4959 77.2731-65.7072Q80.056-62.9185 83.9562-62.9185Z"/>
  </g>
  <g id="Bold-S" transform="matrix(1 0 0 1 2281.01 696)">
   <path d="M29.541-64.8193L52.3438-64.8193Q53.5645-64.8193 54.4312-65.7471Q55.2979-66.6748 55.2979-67.9443Q55.2979-69.2383 54.4312-70.1538Q53.5645-71.0693 52.3438-71.0693L29.541-71.0693Q28.2959-71.0693 27.4292-70.1538Q26.5625-69.2383 26.5625-67.9443Q26.5625-66.6748 27.4292-65.7471Q28.2959-64.8193 29.541-64.8193ZM12.6709-45.0195L41.8701-45.0195Q43.0908-45.0195 43.9575-45.9473Q44.8242-46.875 44.8242-48.1445Q44.8242-49.4385 43.9575-50.354Q43.0908-51.2695 41.8701-51.2695L12.6709-51.2695Q11.4746-51.2695 10.6201-50.3418Q9.76562-49.4141 9.76562-48.1445Q9.76562-46.8994 10.6201-45.9595Q11.4746-45.0195 12.6709-45.0195ZM26.8799-25.2197L42.5781-25.2197Q43.7988-25.2197 44.6655-26.1475Q45.5322-27.0752 45.5322-28.3447Q45.5322-29.6387 44.6655-30.5542Q43.7988-31.4697 42.5781-31.4697L26.8799-31.4697Q25.6348-31.4697 24.7681-30.5542Q23.9014-29.6387 23.9014-28.3447Q23.9014-27.0752 24.7681-26.1475Q25.6348-25.2197 26.8799-25.2197ZM14.7461-5.56641L36.9873-5.56641Q38.208-5.56641 39.0747-6.49414Q39.9414-7.42188 39.9414-8.69141Q39.9414-9.98535 39.0747-10.8887Q38.208-11.792 36.9873-11.792L14.7461-11.792Q13.4766-11.792 12.6099-10.8765Q11.7432-9.96094 11.7432-8.69141Q11.7432-7.42188 12.6099-6.49414Q13.4766-5.56641 14.7461-5.56641ZM60.9619 6.17676L72.9736-8.08105Q73.9014-9.17969 74.2188-9.74121Q74.5361-10.3027 74.8779-11.4014L75.3418-12.793L68.3594-21.5576L66.626-13.501L54.8584 0.463867Q53.2959 2.31934 53.54 3.9917Q53.7842 5.66406 55.0659 6.71387Q56.3477 7.76367 58.0078 7.73926Q59.668 7.71484 60.9619 6.17676ZM89.502 4.90723Q90.5273 6.95801 92.2485 7.4707Q93.9697 7.9834 95.5566 7.26318Q97.1436 6.54297 97.8149 4.90723Q98.4863 3.27148 97.3877 1.0498L89.2578-15.4297Q88.7695-16.3818 88.1836-17.334Q87.5977-18.2861 86.9629-19.1895L81.958-26.3428L82.2266-27.1973Q83.2275-30.3955 83.728-32.6782Q84.2285-34.9609 84.4238-38.0127L85.2295-49.5605Q85.5469-53.9307 83.1299-56.7871Q80.7129-59.6436 76.3672-59.6436Q73.1201-59.6436 70.6055-58.0566Q68.0908-56.4697 65.1611-53.6133L59.0332-47.6074Q57.5439-46.1426 56.9092-44.6899Q56.2744-43.2373 56.1035-41.1865L55.3467-31.7383Q55.1758-29.7852 56.2256-28.5156Q57.2754-27.2461 59.082-27.1729Q60.9375-27.0264 62.0483-28.1128Q63.1592-29.1992 63.3301-31.25L64.1846-41.4307L66.7236-43.7012Q67.3584-44.2627 68.0298-44.0063Q68.7012-43.75 68.6279-42.9932L68.042-34.79Q67.7734-31.5186 68.6157-29.3335Q69.458-27.1484 71.8506-24.1455L79.9316-14.0137Q80.4932-13.3057 80.7007-12.9272Q80.9082-12.5488 81.1768-12.0117ZM103.76-44.0674L94.751-44.0674L89.624-49.6826L88.8916-39.0381L90.0635-37.8662Q91.1133-36.8408 92.2119-36.4502Q93.3105-36.0596 95.1904-36.0596L103.76-36.0596Q105.762-36.0596 106.97-37.146Q108.179-38.2324 108.179-40.0391Q108.179-41.8457 106.958-42.9565Q105.737-44.0674 103.76-44.0674ZM81.0303-62.6221Q84.8145-62.6221 87.4878-65.3076Q90.1611-67.9932 90.1611-71.7529Q90.1611-75.5371 87.4878-78.2104Q84.8145-80.8838 81.0303-80.8838Q77.2461-80.8838 74.5728-78.2104Q71.8994-75.5371 71.8994-71.7529Q71.8994-67.9932 74.5728-65.3076Q77.2461-62.6221 81.0303-62.6221Z"/>
  </g>
  <g id="Semibold-S" transform="matrix(1 0 0 1 1985.48 696)">
   <path d="M28.0303-64.4728L50.8152-64.4728Q52.0004-64.4728 52.836-65.3649Q53.6716-66.2571 53.6716-67.4911Q53.6716-68.7406 52.836-69.625Q52.0004-70.5095 50.8152-70.5095L28.0303-70.5095Q26.8296-70.5095 25.994-69.625Q25.1584-68.7406 25.1584-67.4911Q25.1584-66.2571 25.994-65.3649Q26.8296-64.4728 28.0303-64.4728ZM12.5731-44.8596L40.6171-44.8596Q41.8022-44.8596 42.6378-45.7518Q43.4734-46.6439 43.4734-47.8779Q43.4734-49.1274 42.6378-50.0119Q41.8022-50.8963 40.6171-50.8963L12.5731-50.8963Q11.4213-50.8963 10.5935-49.9952Q9.76562-49.0941 9.76562-47.8779Q9.76562-46.6772 10.5935-45.7684Q11.4213-44.8596 12.5731-44.8596ZM25.8757-25.2464L41.0496-25.2464Q42.2348-25.2464 43.0704-26.1386Q43.906-27.0308 43.906-28.2647Q43.906-29.5143 43.0704-30.3987Q42.2348-31.2831 41.0496-31.2831L25.8757-31.2831Q24.6572-31.2831 23.8216-30.3987Q22.986-29.5143 22.986-28.2647Q22.986-27.0308 23.8216-26.1386Q24.6572-25.2464 25.8757-25.2464ZM14.4439-5.83301L35.7343-5.83301Q36.9194-5.83301 37.755-6.7252Q38.5906-7.61738 38.5906-8.85137Q38.5906-10.1009 37.755-10.9687Q36.9194-11.8364 35.7343-11.8364L14.4439-11.8364Q13.21-11.8364 12.3744-10.952Q11.5388-10.0676 11.5388-8.85137Q11.5388-7.61738 12.3744-6.7252Q13.21-5.83301 14.4439-5.83301ZM59.1046 5.68799L70.9919-8.42764Q71.9019-9.49961 72.2015-10.0434Q72.5011-10.5871 72.8429-11.6769L73.44-13.4506L66.7064-21.922L64.9286-13.6521L53.2499 0.206152Q51.7407 1.99053 51.976 3.59624Q52.2112 5.20195 53.4441 6.20732Q54.677 7.2127 56.266 7.18828Q57.8551 7.16387 59.1046 5.68799ZM87.5646 4.454Q88.5545 6.43369 90.209 6.92861Q91.8636 7.42354 93.3883 6.73442Q94.913 6.04531 95.5533 4.47178Q96.1936 2.89824 95.1394 0.756543L87.0895-15.5719Q86.6012-16.5151 86.0241-17.4584Q85.4471-18.4017 84.8301-19.2605L79.8341-26.405L80.1293-27.3217Q81.1392-30.4577 81.6174-32.7093Q82.0957-34.9609 82.291-37.986L83.0878-49.4184Q83.3963-53.6552 81.0593-56.4583Q78.7223-59.2614 74.4477-59.2614Q71.2628-59.2614 68.8015-57.7101Q66.3401-56.1587 63.446-53.3289L57.3803-47.3764Q55.8999-45.9293 55.2918-44.5078Q54.6837-43.0862 54.5217-41.1065L53.7737-31.7561Q53.6117-29.874 54.6082-28.6578Q55.6047-27.4416 57.3402-27.3772Q59.1246-27.2308 60.1866-28.2683Q61.2485-29.3059 61.4105-31.2855L62.2562-41.4218L64.9019-43.79Q65.5899-44.396 66.2924-44.1174Q66.9949-43.8389 66.9306-43.0909L66.3446-34.7812Q66.0672-31.5097 66.9139-29.3824Q67.7606-27.2551 70.0821-24.3321L78.0832-14.298Q78.6536-13.5812 78.8567-13.1983Q79.0598-12.8154 79.3194-12.2961ZM101.574-43.8452L92.5915-43.8452L87.3046-49.6382L86.6077-39.4202L88.0995-37.9284Q89.1227-36.9208 90.1857-36.5479Q91.2488-36.1751 93.0843-36.1751L101.574-36.1751Q103.487-36.1751 104.646-37.2126Q105.806-38.2502 105.806-39.9857Q105.806-41.7213 104.639-42.7833Q103.471-43.8452 101.574-43.8452ZM79.013-62.4177Q82.6994-62.4177 85.3061-65.0321Q87.9128-67.6466 87.9128-71.3175Q87.9128-75.0039 85.3061-77.6106Q82.6994-80.2173 79.013-80.2173Q75.3088-80.2173 72.711-77.6106Q70.1132-75.0039 70.1132-71.3175Q70.1132-67.6466 72.711-65.0321Q75.3088-62.4177 79.013-62.4177Z"/>
  </g>
  <g id="Medium-S" transform="matrix(1 0 0 1 1689.67 696)">
   <path d="M26.8848-64.21L49.6562-64.21Q50.8145-64.21 51.6265-65.0752Q52.4385-65.9404 52.4385-67.1475Q52.4385-68.3633 51.6265-69.2241Q50.8145-70.085 49.6562-70.085L26.8848-70.085Q25.7178-70.085 24.9058-69.2241Q24.0938-68.3633 24.0938-67.1475Q24.0938-65.9404 24.9058-65.0752Q25.7178-64.21 26.8848-64.21ZM12.499-44.7383L39.667-44.7383Q40.8252-44.7383 41.6372-45.6035Q42.4492-46.4688 42.4492-47.6758Q42.4492-48.8916 41.6372-49.7524Q40.8252-50.6133 39.667-50.6133L12.499-50.6133Q11.3809-50.6133 10.5732-49.7324Q9.76562-48.8516 9.76562-47.6758Q9.76562-46.5088 10.5732-45.6235Q11.3809-44.7383 12.499-44.7383ZM25.1143-25.2666L39.8906-25.2666Q41.0488-25.2666 41.8608-26.1318Q42.6729-26.9971 42.6729-28.2041Q42.6729-29.4199 41.8608-30.2808Q41.0488-31.1416 39.8906-31.1416L25.1143-31.1416Q23.916-31.1416 23.104-30.2808Q22.292-29.4199 22.292-28.2041Q22.292-26.9971 23.104-26.1318Q23.916-25.2666 25.1143-25.2666ZM14.2148-6.03516L34.7842-6.03516Q35.9424-6.03516 36.7544-6.90039Q37.5664-7.76562 37.5664-8.97266Q37.5664-10.1885 36.7544-11.0293Q35.9424-11.8701 34.7842-11.8701L14.2148-11.8701Q13.0078-11.8701 12.1958-11.0093Q11.3838-10.1484 11.3838-8.97266Q11.3838-7.76562 12.1958-6.90039Q13.0078-6.03516 14.2148-6.03516ZM57.6963 5.31738L69.4893-8.69043Q70.3857-9.74219 70.6719-10.2725Q70.958-10.8027 71.2998-11.8857L71.998-13.9492L65.4531-22.1982L63.6416-13.7666L52.0303 0.0107422Q50.5615 1.74121 50.79 3.29639Q51.0186 4.85156 52.2144 5.82324Q53.4102 6.79492 54.9453 6.77051Q56.4805 6.74609 57.6963 5.31738ZM86.0957 4.11035Q87.0586 6.03613 88.6626 6.51758Q90.2666 6.99902 91.7441 6.3335Q93.2217 5.66797 93.8384 4.1416Q94.4551 2.61523 93.4346 0.53418L85.4453-15.6797Q84.957-16.6162 84.3867-17.5527Q83.8164-18.4893 83.2129-19.3145L78.2236-26.4521L78.5391-27.416Q79.5557-30.5049 80.0171-32.7329Q80.4785-34.9609 80.6738-37.9658L81.4639-49.3105Q81.7656-53.4463 79.4893-56.209Q77.2129-58.9717 72.9922-58.9717Q69.8545-58.9717 67.4336-57.4473Q65.0127-55.9229 62.1455-53.1133L56.127-47.2012Q54.6533-45.7676 54.0654-44.3696Q53.4775-42.9717 53.3223-41.0459L52.5811-31.7695Q52.4258-29.9414 53.3818-28.7656Q54.3379-27.5898 56.0195-27.5322Q57.75-27.3857 58.7749-28.3862Q59.7998-29.3867 59.9551-31.3125L60.7939-41.415L63.5205-43.8574Q64.249-44.4971 64.9751-44.2017Q65.7012-43.9062 65.6436-43.165L65.0576-34.7744Q64.7734-31.5029 65.6235-29.4194Q66.4736-27.3359 68.7412-24.4736L76.6816-14.5137Q77.2588-13.79 77.4585-13.4038Q77.6582-13.0176 77.9111-12.5117ZM99.916-43.6768L90.9541-43.6768L85.5459-49.6045L84.876-39.71L86.6104-37.9756Q87.6133-36.9814 88.6494-36.6221Q89.6855-36.2627 91.4873-36.2627L99.916-36.2627Q101.762-36.2627 102.884-37.2632Q104.007-38.2637 104.007-39.9453Q104.007-41.627 102.88-42.6519Q101.753-43.6768 99.916-43.6768ZM77.4834-62.2627Q81.0957-62.2627 83.6519-64.8232Q86.208-67.3838 86.208-70.9873Q86.208-74.5996 83.6519-77.1558Q81.0957-79.7119 77.4834-79.7119Q73.8398-79.7119 71.2993-77.1558Q68.7588-74.5996 68.7588-70.9873Q68.7588-67.3838 71.2993-64.8232Q73.8398-62.2627 77.4834-62.2627Z"/>
  </g>
  <g id="Regular-S" transform="matrix(1 0 0 1 1394.13 696)">
   <path d="M25.3906-63.8672L48.1445-63.8672Q49.2676-63.8672 50.0488-64.6973Q50.8301-65.5273 50.8301-66.6992Q50.8301-67.8711 50.0488-68.7012Q49.2676-69.5312 48.1445-69.5312L25.3906-69.5312Q24.2676-69.5312 23.4863-68.7012Q22.7051-67.8711 22.7051-66.6992Q22.7051-65.5273 23.4863-64.6973Q24.2676-63.8672 25.3906-63.8672ZM12.4023-44.5801L38.4277-44.5801Q39.5508-44.5801 40.332-45.4102Q41.1133-46.2402 41.1133-47.4121Q41.1133-48.584 40.332-49.4141Q39.5508-50.2441 38.4277-50.2441L12.4023-50.2441Q11.3281-50.2441 10.5469-49.3896Q9.76562-48.5352 9.76562-47.4121Q9.76562-46.2891 10.5469-45.4346Q11.3281-44.5801 12.4023-44.5801ZM24.1211-25.293L38.3789-25.293Q39.502-25.293 40.2832-26.123Q41.0645-26.9531 41.0645-28.125Q41.0645-29.2969 40.2832-30.127Q39.502-30.957 38.3789-30.957L24.1211-30.957Q22.9492-30.957 22.168-30.127Q21.3867-29.2969 21.3867-28.125Q21.3867-26.9531 22.168-26.123Q22.9492-25.293 24.1211-25.293ZM13.916-6.29883L33.5449-6.29883Q34.668-6.29883 35.4492-7.12891Q36.2305-7.95898 36.2305-9.13086Q36.2305-10.3027 35.4492-11.1084Q34.668-11.9141 33.5449-11.9141L13.916-11.9141Q12.7441-11.9141 11.9629-11.084Q11.1816-10.2539 11.1816-9.13086Q11.1816-7.95898 11.9629-7.12891Q12.7441-6.29883 13.916-6.29883ZM55.8594 4.83398L67.5293-9.0332Q68.4082-10.0586 68.6768-10.5713Q68.9453-11.084 69.2871-12.1582L70.1172-14.5996L63.8184-22.5586L61.9629-13.916L50.4395-0.244141Q49.0234 1.41602 49.2432 2.90527Q49.4629 4.39453 50.6104 5.32227Q51.7578 6.25 53.2227 6.22559Q54.6875 6.20117 55.8594 4.83398ZM84.1797 3.66211Q85.1074 5.51758 86.6455 5.98145Q88.1836 6.44531 89.5996 5.81055Q91.0156 5.17578 91.6016 3.71094Q92.1875 2.24609 91.2109 0.244141L83.3008-15.8203Q82.8125-16.748 82.251-17.6758Q81.6895-18.6035 81.1035-19.3848L76.123-26.5137L76.4648-27.5391Q77.4902-30.5664 77.9297-32.7637Q78.3691-34.9609 78.5645-37.9395L79.3457-49.1699Q79.6387-53.1738 77.4414-55.8838Q75.2441-58.5938 71.0938-58.5938Q68.0176-58.5938 65.6494-57.1045Q63.2812-55.6152 60.4492-52.832L54.4922-46.9727Q53.0273-45.5566 52.4658-44.1895Q51.9043-42.8223 51.7578-40.9668L51.0254-31.7871Q50.8789-30.0293 51.7822-28.9062Q52.6855-27.7832 54.2969-27.7344Q55.957-27.5879 56.9336-28.54Q57.9102-29.4922 58.0566-31.3477L58.8867-41.4062L61.7188-43.9453Q62.5-44.6289 63.2568-44.3115Q64.0137-43.9941 63.9648-43.2617L63.3789-34.7656Q63.0859-31.4941 63.9404-29.4678Q64.7949-27.4414 66.9922-24.6582L74.8535-14.7949Q75.4395-14.0625 75.6348-13.6719Q75.8301-13.2812 76.0742-12.793ZM97.7539-43.457L88.8184-43.457L83.252-49.5605L82.6172-40.0879L84.668-38.0371Q85.6445-37.0605 86.6455-36.7188Q87.6465-36.377 89.4043-36.377L97.7539-36.377Q99.5117-36.377 100.586-37.3291Q101.66-38.2812 101.66-39.8926Q101.66-41.5039 100.586-42.4805Q99.5117-43.457 97.7539-43.457ZM75.4883-62.0605Q79.0039-62.0605 81.4941-64.5508Q83.9844-67.041 83.9844-70.5566Q83.9844-74.0723 81.4941-76.5625Q79.0039-79.0527 75.4883-79.0527Q71.9238-79.0527 69.458-76.5625Q66.9922-74.0723 66.9922-70.5566Q66.9922-67.041 69.458-64.5508Q71.9238-62.0605 75.4883-62.0605Z"/>
  </g>
  <g id="Light-S" transform="matrix(1 0 0 1 1098.37 696)">
   <path d="M26.1777-64.2911L47.7359-64.2911Q48.6471-64.2911 49.2694-64.9471Q49.8917-65.6031 49.8917-66.5326Q49.8917-67.4624 49.2694-68.1184Q48.6471-68.7744 47.7359-68.7744L26.1777-68.7744Q25.2665-68.7744 24.6442-68.1184Q24.0219-67.4624 24.0219-66.5326Q24.0219-65.6031 24.6442-64.9471Q25.2665-64.2911 26.1777-64.2911ZM11.8876-45.2309L38.3217-45.2309Q39.2329-45.2309 39.8477-45.8869Q40.4625-46.5429 40.4625-47.4726Q40.4625-48.4174 39.8477-49.0659Q39.2329-49.7144 38.3217-49.7144L11.8876-49.7144Q11.0102-49.7144 10.3879-49.0491Q9.76562-48.3838 9.76562-47.4726Q9.76562-46.5767 10.3879-45.9038Q11.0102-45.2309 11.8876-45.2309ZM23.1524-26.1709L37.9702-26.1709Q38.8814-26.1709 39.5037-26.8269Q40.126-27.4829 40.126-28.4126Q40.126-29.3574 39.4961-30.0134Q38.8662-30.6694 37.9702-30.6694L23.1524-30.6694Q22.1924-30.6694 21.5701-30.0059Q20.9478-29.3424 20.9478-28.4126Q20.9478-27.4829 21.5701-26.8269Q22.1924-26.1709 23.1524-26.1709ZM13.235-7.31303L33.4389-7.31303Q34.3501-7.31303 34.9649-7.96903Q35.5797-8.62503 35.5797-9.5698Q35.5797-10.4996 34.9574-11.1387Q34.3351-11.7778 33.4389-11.7778L13.235-11.7778Q12.2899-11.7778 11.6676-11.1217Q11.0453-10.4657 11.0453-9.5698Q11.0453-8.62503 11.6676-7.96903Q12.2899-7.31303 13.235-7.31303ZM55.2389 3.77452L66.5909-9.71425Q67.4243-10.7094 67.7004-11.2069Q67.9766-11.7045 68.3032-12.7485L69.1938-15.4625L63.1676-23.0581L61.2968-14.3852L50.0763-1.07676Q48.7358 0.507863 48.9404 1.92897Q49.145 3.35007 50.2394 4.24004Q51.3339 5.13 52.7307 5.10559Q54.1275 5.08118 55.2389 3.77452ZM82.9081 2.66317Q83.7906 4.42785 85.2681 4.86895Q86.7457 5.31006 88.0936 4.69805Q89.4414 4.08605 90.0046 2.68923Q90.5678 1.29242 89.6367-0.618744L81.9234-16.2443Q81.4804-17.1112 80.9189-18.0087Q80.3574-18.9061 79.7867-19.6874L74.912-26.65L75.2538-27.6904Q76.2339-30.6269 76.6734-32.7637Q77.1128-34.9004 77.3081-37.7881L78.0741-48.7007Q78.3521-52.6288 76.2077-55.2177Q74.0634-57.8067 70.1251-57.8067Q67.1397-57.8067 64.8472-56.3628Q62.5547-54.9189 59.8134-52.2115L54.023-46.5034Q52.6489-45.163 52.0798-43.8639Q51.5106-42.5649 51.3641-40.7397L50.6622-31.8024Q50.5308-30.1201 51.3887-29.0501Q52.2466-27.98 53.7821-27.9312Q55.3668-27.7997 56.2903-28.699Q57.2138-29.5982 57.3603-31.3779L58.1754-41.1944L60.9619-43.6879Q61.7282-44.3565 62.5304-44.0467Q63.3326-43.7368 63.2685-42.9591L62.6826-34.6898Q62.4199-31.5244 63.2366-29.5662Q64.0533-27.608 66.1898-24.9003L73.8393-15.3247Q74.4253-14.6075 74.6054-14.2169Q74.7856-13.8262 75.0148-13.353ZM96.0434-43.0634L87.3199-43.0634L81.6928-49.2729L81.0885-40.2242L83.3814-37.9311Q84.3124-37 85.268-36.6657Q86.2236-36.3314 87.9209-36.3314L96.0434-36.3314Q97.7257-36.3314 98.7469-37.2382Q99.7681-38.1449 99.7681-39.6957Q99.7681-41.2163 98.7469-42.1398Q97.7257-43.0634 96.0434-43.0634ZM74.3075-61.2582Q77.7173-61.2582 80.1168-63.6576Q82.5162-66.0571 82.5162-69.4516Q82.5162-72.8612 80.1168-75.2607Q77.7173-77.6601 74.3075-77.6601Q70.8794-77.6601 68.4968-75.2607Q66.1143-72.8612 66.1143-69.4516Q66.1143-66.0571 68.4968-63.6576Q70.8794-61.2582 74.3075-61.2582Z"/>
  </g>
  <g id="Thin-S" transform="matrix(1 0 0 1 802.907 696)">
   <path d="M27.2187-64.8518L47.1953-64.8518Q47.8264-64.8518 48.2384-65.2776Q48.6505-65.7034 48.6505-66.3123Q48.6505-66.9219 48.2384-67.3477Q47.8264-67.7734 47.1953-67.7734L27.2187-67.7734Q26.5877-67.7734 26.1756-67.3477Q25.7635-66.9219 25.7635-66.3123Q25.7635-65.7034 26.1756-65.2776Q26.5877-64.8518 27.2187-64.8518ZM11.2068-46.0916L38.1814-46.0916Q38.8125-46.0916 39.2071-46.5174Q39.6018-46.9431 39.6018-47.5527Q39.6018-48.1971 39.2071-48.6054Q38.8125-49.0138 38.1814-49.0138L11.2068-49.0138Q10.5898-49.0138 10.1777-48.5988Q9.76562-48.1837 9.76562-47.5527Q9.76562-46.9571 10.1777-46.5243Q10.5898-46.0916 11.2068-46.0916ZM21.8713-27.3319L37.4297-27.3319Q38.0607-27.3319 38.4728-27.7577Q38.8849-28.1835 38.8849-28.793Q38.8849-29.4375 38.4551-29.8632Q38.0253-30.289 37.4297-30.289L21.8713-30.289Q21.1914-30.289 20.7793-29.8458Q20.3672-29.4026 20.3672-28.793Q20.3672-28.1835 20.7793-27.7577Q21.1914-27.3319 21.8713-27.3319ZM12.3342-8.65439L33.2986-8.65439Q33.9296-8.65439 34.3243-9.08016Q34.719-9.50593 34.719-10.1503Q34.719-10.7599 34.3069-11.1787Q33.8948-11.5975 33.2986-11.5975L12.3342-11.5975Q11.6892-11.5975 11.2771-11.1717Q10.865-10.7459 10.865-10.1503Q10.865-9.50593 11.2771-9.08016Q11.6892-8.65439 12.3342-8.65439ZM54.4182 2.37328L65.3498-10.615Q66.1229-11.5701 66.4092-12.0477Q66.6955-12.5252 67.0018-13.5291L67.9725-16.6037L62.3069-23.7187L60.4159-15.0058L49.596-2.17797Q48.3554-0.693241 48.54 0.637719Q48.7246 1.96868 49.7489 2.8087Q50.7732 3.64872 52.08 3.62431Q53.3869 3.59989 54.4182 2.37328ZM81.2264 1.34199Q82.049 2.98659 83.4465 3.39759Q84.844 3.80859 86.1017 3.22669Q87.3594 2.64479 87.8925 1.33795Q88.4256 0.0311082 87.5547-1.75998L80.1018-16.8049Q79.7186-17.5915 79.1571-18.449Q78.5956-19.3064 78.0451-20.0877L73.3103-26.8303L73.6521-27.8905Q74.5724-30.707 75.0118-32.7637Q75.4513-34.8204 75.6466-37.588L76.3924-48.0801Q76.6505-51.908 74.5761-54.3368Q72.5017-56.7656 68.8439-56.7656Q65.9786-56.7656 63.7862-55.3818Q61.5937-53.998 58.9726-51.3908L53.4024-45.8829Q52.1484-44.6423 51.5692-43.4334Q50.99-42.2245 50.8435-40.4393L50.1819-31.8225Q50.0703-30.2402 50.8682-29.2403Q51.6661-28.2404 53.1014-28.1915Q54.5861-28.0799 55.4395-28.9092Q56.2929-29.7385 56.4394-31.4179L57.2346-40.9142L59.9609-43.3476Q60.7073-43.9963 61.5696-43.6963Q62.4319-43.3964 62.3476-42.5588L61.7617-34.5896Q61.539-31.5644 62.3058-29.6964Q63.0725-27.8283 65.1286-25.2205L72.498-16.0253Q73.0839-15.3283 73.2441-14.9377Q73.4042-14.547 73.6135-14.0936ZM93.7811-42.5427L85.3382-42.5427L79.6306-48.8925L79.0667-40.4045L81.6798-37.7908Q82.5506-36.92 83.4462-36.5956Q84.3417-36.2712 85.959-36.2712L93.7811-36.2712Q95.3635-36.2712 96.3146-37.1179Q97.2656-37.9647 97.2656-39.4354Q97.2656-40.8359 96.3146-41.6893Q95.3635-42.5427 93.7811-42.5427ZM72.7458-60.197Q76.0157-60.197 78.2951-62.4764Q80.5745-64.7557 80.5745-67.9902Q80.5745-71.2595 78.2951-73.5389Q76.0157-75.8183 72.7458-75.8183Q69.498-75.8183 67.2256-73.5389Q64.9532-71.2595 64.9532-67.9902Q64.9532-64.7557 67.2256-62.4764Q69.498-60.197 72.7458-60.197Z"/>
  </g>
  <g id="Ultralight-S" transform="matrix(1 0 0 1 506.836 696)">
   <path d="M27.7519-65.139L46.9185-65.139Q47.406-65.139 47.7104-65.4469Q48.0148-65.7547 48.0148-66.1995Q48.0148-66.6451 47.7104-66.9529Q47.406-67.2607 46.9185-67.2607L27.7519-67.2607Q27.2644-67.2607 26.96-66.9529Q26.6556-66.6451 26.6556-66.1995Q26.6556-65.7547 26.96-65.4469Q27.2644-65.139 27.7519-65.139ZM10.8582-46.5324L38.1096-46.5324Q38.5971-46.5324 38.879-46.8403Q39.1609-47.1481 39.1609-47.5937Q39.1609-48.0843 38.879-48.3696Q38.5971-48.6549 38.1096-48.6549L10.8582-48.6549Q10.3745-48.6549 10.07-48.3681Q9.76562-48.0812 9.76562-47.5937Q9.76562-47.1519 10.07-46.8422Q10.3745-46.5324 10.8582-46.5324ZM21.2151-27.9266L37.1529-27.9266Q37.6404-27.9266 37.9448-28.2345Q38.2492-28.5423 38.2492-28.9879Q38.2492-29.4785 37.9219-29.7863Q37.5946-30.0941 37.1529-30.0941L21.2151-30.0941Q20.6787-30.0941 20.3743-29.7638Q20.0699-29.4334 20.0699-28.9879Q20.0699-28.5423 20.3743-28.2345Q20.6787-27.9266 21.2151-27.9266ZM11.8729-9.34143L33.2268-9.34143Q33.7143-9.34143 33.9962-9.64928Q34.2781-9.95712 34.2781-10.4477Q34.2781-10.8932 33.9737-11.1992Q33.6693-11.5051 33.2268-11.5051L11.8729-11.5051Q11.3815-11.5051 11.0771-11.1973Q10.7727-10.8894 10.7727-10.4477Q10.7727-9.95712 11.0771-9.64928Q11.3815-9.34143 11.8729-9.34143ZM53.9978 1.65558L64.7141-11.0764Q65.4564-12.011 65.7478-12.4783Q66.0393-12.9456 66.3353-13.929L67.347-17.1883L61.866-24.057L59.9648-15.3236L49.35-2.742Q48.1606-1.30844 48.3349-0.0236511Q48.5092 1.26114 49.4976 2.07558Q50.486 2.89001 51.7467 2.8656Q53.0075 2.84119 53.9978 1.65558ZM80.365 0.665283Q81.1569 2.24838 82.5134 2.64397Q83.8699 3.03955 85.0815 2.47307Q86.293 1.90659 86.8107 0.645828Q87.3283-0.614929 86.4883-2.34451L79.1687-17.0921Q78.8162-17.8375 78.2547-18.6745Q77.6932-19.5114 77.153-20.2927L72.4899-26.9226L72.8317-27.993Q73.7213-30.748 74.1608-32.7637Q74.6002-34.7794 74.7955-37.4855L75.531-47.7623Q75.779-51.5388 73.7404-53.8857Q71.7018-56.2325 68.1877-56.2325Q65.3839-56.2325 63.2427-54.8794Q61.1015-53.5263 58.5419-50.9705L53.0846-45.565Q51.8921-44.3756 51.3077-43.2129Q50.7233-42.0502 50.5768-40.2855L49.9359-31.8329Q49.8344-30.3017 50.6016-29.3377Q51.3687-28.3737 52.7527-28.3249Q54.1862-28.2234 55.0037-29.0169Q55.8212-29.8103 55.9677-31.4384L56.7528-40.7707L59.4482-43.1732Q60.1845-43.8118 61.0775-43.5169Q61.9705-43.222 61.8759-42.3538L61.29-34.5383Q61.0878-31.5849 61.829-29.763Q62.5702-27.9411 64.5851-25.3845L71.8109-16.3841Q72.3969-15.6975 72.5468-15.3069Q72.6967-14.9162 72.8958-14.473ZM92.6224-42.276L84.3231-42.276L78.5744-48.6977L78.0312-40.4968L80.8083-37.719Q81.6483-36.879 82.513-36.5597Q83.3778-36.2404 84.9541-36.2404L92.6224-36.2404Q94.1536-36.2404 95.0687-37.0564Q95.9839-37.8723 95.9839-39.3021Q95.9839-40.641 95.0687-41.4585Q94.1536-42.276 92.6224-42.276ZM71.946-59.6535Q75.1442-59.6535 77.3621-61.8713Q79.5799-64.0892 79.5799-67.2417Q79.5799-70.4391 77.3621-72.657Q75.1442-74.8749 71.946-74.8749Q68.7904-74.8749 66.5745-72.657Q64.3585-70.4391 64.3585-67.2417Q64.3585-64.0892 66.5745-61.8713Q68.7904-59.6535 71.946-59.6535Z"/>
  </g>
 </g>
</svg>
