<?xml version="1.0" encoding="UTF-8"?>
<!--Generator: Apple Native CoreSVG 175.5-->
<!DOCTYPE svg
PUBLIC "-//W3C//DTD SVG 1.1//EN"
       "http://www.w3.org/Graphics/SVG/1.1/DTD/svg11.dtd">
<svg version="1.1" xmlns="http://www.w3.org/2000/svg" xmlns:xlink="http://www.w3.org/1999/xlink" width="3300" height="2200">
 <!--glyph: "uni101553.medium", point size: 100.0, font version: "18.0d9e1", template writer version: "84"-->
 <g id="Notes">
  <rect height="2200" id="artboard" style="fill:white;opacity:1" width="3300" x="0" y="0"/>
  <line style="fill:none;stroke:black;opacity:1;stroke-width:0.5;" x1="263" x2="3036" y1="292" y2="292"/>
  <text style="stroke:none;fill:black;font-family:sans-serif;font-size:13;font-weight:bold;" transform="matrix(1 0 0 1 263 322)">Weight/Scale Variations</text>
  <text style="stroke:none;fill:black;font-family:sans-serif;font-size:13;text-anchor:middle;" transform="matrix(1 0 0 1 559.711 322)">Ultralight</text>
  <text style="stroke:none;fill:black;font-family:sans-serif;font-size:13;text-anchor:middle;" transform="matrix(1 0 0 1 856.422 322)">Thin</text>
  <text style="stroke:none;fill:black;font-family:sans-serif;font-size:13;text-anchor:middle;" transform="matrix(1 0 0 1 1153.13 322)">Light</text>
  <text style="stroke:none;fill:black;font-family:sans-serif;font-size:13;text-anchor:middle;" transform="matrix(1 0 0 1 1449.84 322)">Regular</text>
  <text style="stroke:none;fill:black;font-family:sans-serif;font-size:13;text-anchor:middle;" transform="matrix(1 0 0 1 1746.56 322)">Medium</text>
  <text style="stroke:none;fill:black;font-family:sans-serif;font-size:13;text-anchor:middle;" transform="matrix(1 0 0 1 2043.27 322)">Semibold</text>
  <text style="stroke:none;fill:black;font-family:sans-serif;font-size:13;text-anchor:middle;" transform="matrix(1 0 0 1 2339.98 322)">Bold</text>
  <text style="stroke:none;fill:black;font-family:sans-serif;font-size:13;text-anchor:middle;" transform="matrix(1 0 0 1 2636.69 322)">Heavy</text>
  <text style="stroke:none;fill:black;font-family:sans-serif;font-size:13;text-anchor:middle;" transform="matrix(1 0 0 1 2933.4 322)">Black</text>
  <line style="fill:none;stroke:black;opacity:1;stroke-width:0.5;" x1="263" x2="3036" y1="1903" y2="1903"/>
  <g transform="matrix(1 0 0 1 263 1933)">
   <path d="M9.24805 0.830078Q10.8691 0.830078 12.2949 0.214844Q13.7207-0.400391 14.8096-1.49414Q15.8984-2.58789 16.5186-4.01367Q17.1387-5.43945 17.1387-7.05078Q17.1387-8.66211 16.5186-10.0879Q15.8984-11.5137 14.8047-12.6074Q13.7109-13.7012 12.2852-14.3164Q10.8594-14.9316 9.23828-14.9316Q7.62695-14.9316 6.20117-14.3164Q4.77539-13.7012 3.69141-12.6074Q2.60742-11.5137 1.9873-10.0879Q1.36719-8.66211 1.36719-7.05078Q1.36719-5.43945 1.9873-4.01367Q2.60742-2.58789 3.69629-1.49414Q4.78516-0.400391 6.21094 0.214844Q7.63672 0.830078 9.24805 0.830078ZM9.24805-0.654297Q7.91992-0.654297 6.7627-1.14746Q5.60547-1.64062 4.73145-2.51953Q3.85742-3.39844 3.36426-4.56055Q2.87109-5.72266 2.87109-7.05078Q2.87109-8.37891 3.35938-9.54102Q3.84766-10.7031 4.72168-11.582Q5.5957-12.4609 6.75293-12.9541Q7.91016-13.4473 9.23828-13.4473Q10.5762-13.4473 11.7383-12.9541Q12.9004-12.4609 13.7793-11.582Q14.6582-10.7031 15.1514-9.54102Q15.6445-8.37891 15.6445-7.05078Q15.6445-5.72266 15.1514-4.56055Q14.6582-3.39844 13.7793-2.51953Q12.9004-1.64062 11.7432-1.14746Q10.5859-0.654297 9.24805-0.654297ZM5.6543-7.05078Q5.6543-6.72852 5.85938-6.52832Q6.06445-6.32812 6.40625-6.32812L8.51562-6.32812L8.51562-4.20898Q8.51562-3.88672 8.71094-3.67676Q8.90625-3.4668 9.23828-3.4668Q9.56055-3.4668 9.77051-3.67676Q9.98047-3.88672 9.98047-4.20898L9.98047-6.32812L12.0898-6.32812Q12.4219-6.32812 12.627-6.52832Q12.832-6.72852 12.832-7.05078Q12.832-7.38281 12.627-7.58789Q12.4219-7.79297 12.0898-7.79297L9.98047-7.79297L9.98047-9.90234Q9.98047-10.2344 9.77051-10.4443Q9.56055-10.6543 9.23828-10.6543Q8.90625-10.6543 8.71094-10.4443Q8.51562-10.2344 8.51562-9.90234L8.51562-7.79297L6.40625-7.79297Q6.06445-7.79297 5.85938-7.58789Q5.6543-7.38281 5.6543-7.05078Z"/>
  </g>
  <g transform="matrix(1 0 0 1 281.867 1933)">
   <path d="M11.709 2.91016Q13.75 2.91016 15.5518 2.12891Q17.3535 1.34766 18.7305-0.0292969Q20.1074-1.40625 20.8887-3.20801Q21.6699-5.00977 21.6699-7.05078Q21.6699-9.0918 20.8887-10.8936Q20.1074-12.6953 18.7305-14.0723Q17.3535-15.4492 15.5469-16.2305Q13.7402-17.0117 11.6992-17.0117Q9.6582-17.0117 7.85645-16.2305Q6.05469-15.4492 4.68262-14.0723Q3.31055-12.6953 2.5293-10.8936Q1.74805-9.0918 1.74805-7.05078Q1.74805-5.00977 2.5293-3.20801Q3.31055-1.40625 4.6875-0.0292969Q6.06445 1.34766 7.86621 2.12891Q9.66797 2.91016 11.709 2.91016ZM11.709 1.25Q9.98047 1.25 8.47656 0.605469Q6.97266-0.0390625 5.83496-1.17676Q4.69727-2.31445 4.05762-3.81836Q3.41797-5.32227 3.41797-7.05078Q3.41797-8.7793 4.05762-10.2832Q4.69727-11.7871 5.83008-12.9297Q6.96289-14.0723 8.4668-14.7119Q9.9707-15.3516 11.6992-15.3516Q13.4277-15.3516 14.9365-14.7119Q16.4453-14.0723 17.583-12.9297Q18.7207-11.7871 19.3652-10.2832Q20.0098-8.7793 20.0098-7.05078Q20.0098-5.32227 19.3701-3.81836Q18.7305-2.31445 17.5879-1.17676Q16.4453-0.0390625 14.9414 0.605469Q13.4375 1.25 11.709 1.25ZM7.17773-7.05078Q7.17773-6.69922 7.41211-6.47461Q7.64648-6.25 8.01758-6.25L10.8887-6.25L10.8887-3.36914Q10.8887-2.99805 11.1133-2.76855Q11.3379-2.53906 11.6895-2.53906Q12.0605-2.53906 12.29-2.76855Q12.5195-2.99805 12.5195-3.36914L12.5195-6.25L15.4004-6.25Q15.7715-6.25 16.001-6.47461Q16.2305-6.69922 16.2305-7.05078Q16.2305-7.42188 16.001-7.65137Q15.7715-7.88086 15.4004-7.88086L12.5195-7.88086L12.5195-10.752Q12.5195-11.1328 12.29-11.3623Q12.0605-11.5918 11.6895-11.5918Q11.3379-11.5918 11.1133-11.3574Q10.8887-11.123 10.8887-10.752L10.8887-7.88086L8.01758-7.88086Q7.63672-7.88086 7.40723-7.65137Q7.17773-7.42188 7.17773-7.05078Z"/>
  </g>
  <g transform="matrix(1 0 0 1 305.646 1933)">
   <path d="M14.9707 5.66406Q17.0605 5.66406 18.96 5.01465Q20.8594 4.36523 22.4512 3.19336Q24.043 2.02148 25.2197 0.429688Q26.3965-1.16211 27.0459-3.06641Q27.6953-4.9707 27.6953-7.05078Q27.6953-9.14062 27.0459-11.04Q26.3965-12.9395 25.2197-14.5312Q24.043-16.123 22.4512-17.2998Q20.8594-18.4766 18.9551-19.126Q17.0508-19.7754 14.9609-19.7754Q12.8711-19.7754 10.9717-19.126Q9.07227-18.4766 7.48535-17.2998Q5.89844-16.123 4.72168-14.5312Q3.54492-12.9395 2.90039-11.04Q2.25586-9.14062 2.25586-7.05078Q2.25586-4.9707 2.90527-3.06641Q3.55469-1.16211 4.72656 0.429688Q5.89844 2.02148 7.49023 3.19336Q9.08203 4.36523 10.9814 5.01465Q12.8809 5.66406 14.9707 5.66406ZM14.9707 3.84766Q13.1641 3.84766 11.5283 3.2959Q9.89258 2.74414 8.53516 1.74805Q7.17773 0.751953 6.17676-0.610352Q5.17578-1.97266 4.62891-3.6084Q4.08203-5.24414 4.08203-7.05078Q4.08203-8.86719 4.62891-10.5029Q5.17578-12.1387 6.17188-13.501Q7.16797-14.8633 8.52539-15.8594Q9.88281-16.8555 11.5186-17.4023Q13.1543-17.9492 14.9609-17.9492Q16.7773-17.9492 18.4131-17.4023Q20.0488-16.8555 21.4111-15.8594Q22.7734-14.8633 23.7744-13.501Q24.7754-12.1387 25.3223-10.5029Q25.8691-8.86719 25.8691-7.05078Q25.8691-5.24414 25.3223-3.6084Q24.7754-1.97266 23.7793-0.610352Q22.7832 0.751953 21.4209 1.74805Q20.0586 2.74414 18.4229 3.2959Q16.7871 3.84766 14.9707 3.84766ZM9.19922-7.05078Q9.19922-6.66992 9.45801-6.4209Q9.7168-6.17188 10.1172-6.17188L14.0625-6.17188L14.0625-2.2168Q14.0625-1.81641 14.3115-1.55762Q14.5605-1.29883 14.9512-1.29883Q15.3516-1.29883 15.6104-1.55273Q15.8691-1.80664 15.8691-2.2168L15.8691-6.17188L19.8242-6.17188Q20.2246-6.17188 20.4785-6.4209Q20.7324-6.66992 20.7324-7.05078Q20.7324-7.46094 20.4785-7.71484Q20.2246-7.96875 19.8242-7.96875L15.8691-7.96875L15.8691-11.9141Q15.8691-12.3242 15.6104-12.583Q15.3516-12.8418 14.9512-12.8418Q14.5605-12.8418 14.3115-12.583Q14.0625-12.3242 14.0625-11.9141L14.0625-7.96875L10.1172-7.96875Q9.70703-7.96875 9.45312-7.71484Q9.19922-7.46094 9.19922-7.05078Z"/>
  </g>
  <text style="stroke:none;fill:black;font-family:sans-serif;font-size:13;font-weight:bold;" transform="matrix(1 0 0 1 263 1953)">Design Variations</text>
  <text style="stroke:none;fill:black;font-family:sans-serif;font-size:13;" transform="matrix(1 0 0 1 263 1971)">Symbols are supported in up to nine weights and three scales.</text>
  <text style="stroke:none;fill:black;font-family:sans-serif;font-size:13;" transform="matrix(1 0 0 1 263 1989)">For optimal layout with text and other symbols, vertically align</text>
  <text style="stroke:none;fill:black;font-family:sans-serif;font-size:13;" transform="matrix(1 0 0 1 263 2007)">symbols with the adjacent text.</text>
  <line style="fill:none;stroke:#00AEEF;stroke-width:0.5;opacity:1.0;" x1="776" x2="776" y1="1919" y2="1933"/>
  <g transform="matrix(1 0 0 1 776 1933)">
   <path d="M3.31055 0.15625Q3.70117 0.15625 3.91602-0.00976562Q4.13086-0.175781 4.26758-0.585938L5.52734-4.0332L11.2891-4.0332L12.5488-0.585938Q12.6855-0.175781 12.9004-0.00976562Q13.1152 0.15625 13.4961 0.15625Q13.8867 0.15625 14.1162-0.0585938Q14.3457-0.273438 14.3457-0.644531Q14.3457-0.869141 14.2383-1.17188L9.6582-13.3691Q9.48242-13.8184 9.17969-14.043Q8.87695-14.2676 8.4082-14.2676Q7.5-14.2676 7.17773-13.3789L2.59766-1.16211Q2.49023-0.859375 2.49023-0.634766Q2.49023-0.263672 2.70996-0.0537109Q2.92969 0.15625 3.31055 0.15625ZM6.00586-5.51758L8.37891-12.0898L8.42773-12.0898L10.8008-5.51758Z"/>
  </g>
  <line style="fill:none;stroke:#00AEEF;stroke-width:0.5;opacity:1.0;" x1="793.197" x2="793.197" y1="1919" y2="1933"/>
  <text style="stroke:none;fill:black;font-family:sans-serif;font-size:13;font-weight:bold;" transform="matrix(1 0 0 1 776 1953)">Margins</text>
  <text style="stroke:none;fill:black;font-family:sans-serif;font-size:13;" transform="matrix(1 0 0 1 776 1971)">Leading and trailing margins on the left and right side of each symbol</text>
  <text style="stroke:none;fill:black;font-family:sans-serif;font-size:13;" transform="matrix(1 0 0 1 776 1989)">can be adjusted by modifying the x-location of the margin guidelines.</text>
  <text style="stroke:none;fill:black;font-family:sans-serif;font-size:13;" transform="matrix(1 0 0 1 776 2007)">Modifications are automatically applied proportionally to all</text>
  <text style="stroke:none;fill:black;font-family:sans-serif;font-size:13;" transform="matrix(1 0 0 1 776 2025)">scales and weights.</text>
  <g transform="matrix(1 0 0 1 1289 1933)">
   <path d="M2.8418 1.86523L4.54102 3.57422Q5.18555 4.22852 5.90332 4.17969Q6.62109 4.13086 7.31445 3.35938L18.0078-8.42773L17.041-9.4043L6.42578 2.27539Q6.16211 2.57812 5.89355 2.61719Q5.625 2.65625 5.27344 2.30469L4.10156 1.14258Q3.75 0.791016 3.79395 0.522461Q3.83789 0.253906 4.14062-0.0195312L15.6152-10.8203L14.6387-11.7871L3.04688-0.898438Q2.30469-0.214844 2.25098 0.498047Q2.19727 1.21094 2.8418 1.86523ZM9.25781-16.3281Q8.94531-16.0254 8.90625-15.6348Q8.86719-15.2441 9.04297-14.9512Q9.21875-14.6777 9.55566-14.541Q9.89258-14.4043 10.3809-14.5215Q11.4746-14.7754 12.5977-14.7314Q13.7207-14.6875 14.7949-13.9844L14.209-12.5293Q13.9551-11.9043 14.0674-11.4404Q14.1797-10.9766 14.5801-10.5664L16.875-8.25195Q17.2363-7.88086 17.5781-7.82227Q17.9199-7.76367 18.3398-7.8418L19.4043-8.03711L20.0684-7.36328L20.0293-6.80664Q20-6.43555 20.1221-6.12305Q20.2441-5.81055 20.6055-5.44922L21.3672-4.70703Q21.7285-4.3457 22.1533-4.33105Q22.5781-4.31641 22.9297-4.66797L25.8398-7.58789Q26.1914-7.93945 26.1816-8.35449Q26.1719-8.76953 25.8105-9.13086L25.0391-9.89258Q24.6875-10.2539 24.3799-10.3857Q24.0723-10.5176 23.7109-10.4883L23.1348-10.4395L22.4902-11.0742L22.7344-12.1973Q22.832-12.6172 22.6953-12.9834Q22.5586-13.3496 22.1191-13.7891L19.9219-15.9766Q18.6719-17.2168 17.2607-17.8369Q15.8496-18.457 14.4189-18.4814Q12.9883-18.5059 11.665-17.959Q10.3418-17.4121 9.25781-16.3281ZM10.752-15.957Q11.6602-16.6211 12.7002-16.9043Q13.7402-17.1875 14.8047-17.085Q15.8691-16.9824 16.8701-16.5137Q17.8711-16.0449 18.7012-15.2051L21.1328-12.793Q21.3086-12.6172 21.3525-12.4512Q21.3965-12.2852 21.3379-12.0312L21.0156-10.5469L22.5195-9.0625L23.5059-9.12109Q23.6914-9.13086 23.7891-9.09668Q23.8867-9.0625 24.0332-8.91602L24.6094-8.33984L22.168-5.89844L21.5918-6.47461Q21.4453-6.62109 21.4062-6.71875Q21.3672-6.81641 21.377-7.01172L21.4453-7.98828L19.9512-9.47266L18.4277-9.21875Q18.1836-9.16992 18.042-9.2041Q17.9004-9.23828 17.7148-9.41406L15.7129-11.416Q15.5176-11.5918 15.4932-11.7529Q15.4688-11.9141 15.5859-12.1875L16.4648-14.2773Q15.293-15.3711 13.8281-15.791Q12.3633-16.2109 10.8398-15.7617Q10.7227-15.7324 10.6885-15.8057Q10.6543-15.8789 10.752-15.957Z"/>
  </g>
  <text style="stroke:none;fill:black;font-family:sans-serif;font-size:13;font-weight:bold;" transform="matrix(1 0 0 1 1289 1953)">Exporting</text>
  <text style="stroke:none;fill:black;font-family:sans-serif;font-size:13;" transform="matrix(1 0 0 1 1289 1971)">Symbols should be outlined when exporting to ensure the</text>
  <text style="stroke:none;fill:black;font-family:sans-serif;font-size:13;" transform="matrix(1 0 0 1 1289 1989)">design is preserved when submitting to Xcode.</text>
  <text id="template-version" style="stroke:none;fill:black;font-family:sans-serif;font-size:13;text-anchor:end;" transform="matrix(1 0 0 1 3036 1933)">Template v.2.0</text>
  <text style="stroke:none;fill:black;font-family:sans-serif;font-size:13;text-anchor:end;" transform="matrix(1 0 0 1 3036 1951)">Requires Xcode 12 or greater</text>
  <text id="descriptive-name" style="stroke:none;fill:black;font-family:sans-serif;font-size:13;text-anchor:end;" transform="matrix(1 0 0 1 3036 1969)">Generated from globe.desk.fill</text>
  <text style="stroke:none;fill:black;font-family:sans-serif;font-size:13;text-anchor:end;" transform="matrix(1 0 0 1 3036 1987)">Typeset at 100 points</text>
  <text style="stroke:none;fill:black;font-family:sans-serif;font-size:13;" transform="matrix(1 0 0 1 263 726)">Small</text>
  <text style="stroke:none;fill:black;font-family:sans-serif;font-size:13;" transform="matrix(1 0 0 1 263 1156)">Medium</text>
  <text style="stroke:none;fill:black;font-family:sans-serif;font-size:13;" transform="matrix(1 0 0 1 263 1586)">Large</text>
 </g>
 <g id="Guides">
  <g id="H-reference" style="fill:#27AAE1;stroke:none;" transform="matrix(1 0 0 1 339 696)">
   <path d="M0.993347 0L3.6377 0L29.3282-67.1326L30.0301-67.1326L30.0301-70.459L28.1227-70.459ZM11.6882-24.4797L46.9818-24.4797L46.2311-26.7288L12.4382-26.7288ZM55.1193 0L57.7637 0L30.6381-70.459L29.4327-70.459L29.4327-67.1326Z"/>
  </g>
  <line id="Baseline-S" style="fill:none;stroke:#27AAE1;opacity:1;stroke-width:0.5;" x1="263" x2="3036" y1="696" y2="696"/>
  <line id="Capline-S" style="fill:none;stroke:#27AAE1;opacity:1;stroke-width:0.5;" x1="263" x2="3036" y1="625.541" y2="625.541"/>
  <g id="H-reference" style="fill:#27AAE1;stroke:none;" transform="matrix(1 0 0 1 339 1126)">
   <path d="M0.993347 0L3.6377 0L29.3282-67.1326L30.0301-67.1326L30.0301-70.459L28.1227-70.459ZM11.6882-24.4797L46.9818-24.4797L46.2311-26.7288L12.4382-26.7288ZM55.1193 0L57.7637 0L30.6381-70.459L29.4327-70.459L29.4327-67.1326Z"/>
  </g>
  <line id="Baseline-M" style="fill:none;stroke:#27AAE1;opacity:1;stroke-width:0.5;" x1="263" x2="3036" y1="1126" y2="1126"/>
  <line id="Capline-M" style="fill:none;stroke:#27AAE1;opacity:1;stroke-width:0.5;" x1="263" x2="3036" y1="1055.54" y2="1055.54"/>
  <g id="H-reference" style="fill:#27AAE1;stroke:none;" transform="matrix(1 0 0 1 339 1556)">
   <path d="M0.993347 0L3.6377 0L29.3282-67.1326L30.0301-67.1326L30.0301-70.459L28.1227-70.459ZM11.6882-24.4797L46.9818-24.4797L46.2311-26.7288L12.4382-26.7288ZM55.1193 0L57.7637 0L30.6381-70.459L29.4327-70.459L29.4327-67.1326Z"/>
  </g>
  <line id="Baseline-L" style="fill:none;stroke:#27AAE1;opacity:1;stroke-width:0.5;" x1="263" x2="3036" y1="1556" y2="1556"/>
  <line id="Capline-L" style="fill:none;stroke:#27AAE1;opacity:1;stroke-width:0.5;" x1="263" x2="3036" y1="1485.54" y2="1485.54"/>
  <line id="left-margin" style="fill:none;stroke:#00AEEF;stroke-width:0.5;opacity:1.0;" x1="1393.62" x2="1393.62" y1="1030.79" y2="1150.12"/>
  <line id="right-margin" style="fill:none;stroke:#00AEEF;stroke-width:0.5;opacity:1.0;" x1="1506.07" x2="1506.07" y1="1030.79" y2="1150.12"/>
 </g>
 <g id="Symbols">
  <g id="Black-L" transform="matrix(1 0 0 1 2855.8 1556)">
   <path d="M46.3752-76.0283L58.2847-87.939L36.4528-109.711Q34.0239-112.141 30.5285-112.171Q27.033-112.2 24.6029-109.711Q22.1727-107.281 22.1727-103.814Q22.1727-100.348 24.6029-97.8602ZM134-3.76469L122.172-15.847Q114.628-7.60034 104.43-2.95426Q94.2317 1.69183 82.0563 1.69183Q70.6027 1.69183 60.7951-2.40718Q50.9875-6.50619 43.6461-13.858Q36.3047-21.2098 32.1953-31.007Q28.0858-40.8043 28.0858-52.2579Q28.0858-64.4135 32.7033-74.5534Q37.3208-84.6933 45.4859-92.2159L33.2839-103.767Q23.1003-94.2066 17.1796-80.9005Q11.2588-67.5943 11.2588-52.2579Q11.2588-37.4274 16.7117-24.5703Q22.1646-11.7132 31.8564-2.03967Q41.5481 7.63387 54.387 13.0862Q67.226 18.5385 82.0563 18.5385Q97.5292 18.5385 110.905 12.5683Q124.28 6.59814 134-3.76469ZM117.004-29.1604L104.58-17.8246L129.598 7.13455Q132.085 9.54272 135.551 9.54272Q139.017 9.54272 141.448 7.13455Q143.936 4.7044 143.936 1.19799Q143.936-2.30843 141.448-4.71776ZM73.6428 12.4801L73.6428 34.4985L90.4699 34.4985L90.4699 12.4801ZM57.7718 42.1342L106.35 42.1342Q109.845 42.1342 112.304 39.6462Q114.763 37.1582 114.763 33.7206Q114.763 30.2454 112.304 27.7763Q109.845 25.3071 106.35 25.3071L57.7718 25.3071Q54.355 25.3071 51.8567 27.7763Q49.3583 30.2454 49.3583 33.7206Q49.3583 37.1582 51.8567 39.6462Q54.355 42.1342 57.7718 42.1342ZM82.0563-4.47939Q91.9768-4.47939 100.613-8.1853Q109.249-11.8912 115.836-18.478Q122.423-25.0648 126.129-33.7303Q129.835-42.3958 129.835-52.2579Q129.835-62.1991 126.129-70.8256Q122.423-79.4521 115.836-86.0487Q109.249-92.6453 100.613-96.3408Q91.9768-100.036 82.0563-100.036Q72.1943-100.036 63.5282-96.3408Q54.8621-92.6453 48.2759-86.0487Q41.6897-79.4521 37.9838-70.8256Q34.2779-62.1991 34.2779-52.2579Q34.2779-42.3958 37.9838-33.7303Q41.6897-25.0648 48.2759-18.478Q54.8621-11.8912 63.5282-8.1853Q72.1943-4.47939 82.0563-4.47939Z"/>
  </g>
  <g id="Heavy-L" transform="matrix(1 0 0 1 2560.36 1556)">
   <path d="M45.4388-76.4342L56.1211-87.1221L34.7827-108.41Q32.6035-110.595 29.4694-110.617Q26.3352-110.64 24.1505-108.41Q21.9658-106.226 21.9658-103.111Q21.9658-99.9964 24.1505-97.7727ZM131.376-3.86397L120.779-14.6689Q113.228-6.57057 103.031-1.9986Q92.8342 2.57336 80.757 2.57336Q69.2455 2.57336 59.3567-1.56399Q49.468-5.70133 42.0613-13.1232Q34.6545-20.5451 30.502-30.4187Q26.3496-40.2924 26.3496-51.8039Q26.3496-63.8566 30.902-74.0086Q35.4544-84.1606 43.4668-91.6822L32.5323-102.034Q22.6879-92.6559 16.9733-79.6924Q11.2588-66.729 11.2588-51.8039Q11.2588-37.2559 16.6135-24.645Q21.9683-12.0341 31.4822-2.52466Q40.9961 6.98481 53.6026 12.3368Q66.209 17.6887 80.757 17.6887Q95.7959 17.6887 108.822 11.9245Q121.848 6.16029 131.376-3.86397ZM115.372-27.8212L104.221-17.658L128.536 6.61234Q130.759 8.76134 133.871 8.76134Q136.983 8.76134 139.168 6.61234Q141.397 4.42764 141.397 1.27559Q141.397-1.87646 139.168-4.03093ZM73.2116 12.4752L73.2116 33.2452L88.3024 33.2452L88.3024 12.4752ZM56.9531 40.5145L104.606 40.5145Q107.737 40.5145 109.941 38.2879Q112.146 36.0614 112.146 32.969Q112.146 29.8623 109.941 27.643Q107.737 25.4237 104.606 25.4237L56.9531 25.4237Q53.891 25.4237 51.6493 27.643Q49.4077 29.8623 49.4077 32.969Q49.4077 36.0614 51.6493 38.2879Q53.891 40.5145 56.9531 40.5145ZM80.757-4.38326Q90.5947-4.38326 99.1715-8.06631Q107.748-11.7494 114.28-18.281Q120.812-24.8127 124.495-33.4118Q128.178-42.0108 128.178-51.8039Q128.178-61.6718 124.495-70.2362Q120.812-78.8007 114.28-85.3447Q107.748-91.8886 99.1715-95.5565Q90.5947-99.2245 80.757-99.2245Q70.9639-99.2245 62.3621-95.5565Q53.7602-91.8886 47.2313-85.3447Q40.7024-78.8007 37.0194-70.2362Q33.3364-61.6718 33.3364-51.8039Q33.3364-42.0108 37.0194-33.4118Q40.7024-24.8127 47.2313-18.281Q53.7602-11.7494 62.3621-8.06631Q70.9639-4.38326 80.757-4.38326Z"/>
  </g>
  <g id="Bold-L" transform="matrix(1 0 0 1 2265.22 1556)">
   <path d="M44.3083-76.9338L53.4171-86.0557L32.6039-106.827Q30.747-108.697 28.0772-108.711Q25.4074-108.726 23.5374-106.827Q21.6675-104.957 21.6675-102.295Q21.6675-99.6331 23.5374-97.747ZM128.17-4.0018L119.155-13.1717Q111.58-5.22057 101.361-0.722144Q91.1425 3.77628 79.1509 3.77628Q67.5478 3.77628 57.5443-0.414655Q47.5408-4.60559 40.0422-12.1233Q32.5436-19.6409 28.3336-29.6255Q24.1236-39.61 24.1236-51.2132Q24.1236-63.18 28.614-73.3698Q33.1043-83.5595 40.962-91.0959L31.6621-99.905Q22.2105-90.7498 16.7346-78.1979Q11.2588-65.646 11.2588-51.2132Q11.2588-37.0184 16.4943-24.7111Q21.7299-12.4038 31.0248-3.09797Q40.3198 6.20787 52.6381 11.4369Q64.9564 16.6658 79.1509 16.6658Q93.6669 16.6658 106.274 11.1441Q118.88 5.62232 128.17-4.0018ZM113.351-26.0796L103.835-17.4207L127.289 6.00407Q129.175 7.82304 131.83 7.82304Q134.485 7.82304 136.355 6.00407Q138.254 4.13411 138.254 1.43868Q138.254-1.25676 136.355-3.08862ZM72.7186 12.475L72.7186 31.8272L85.5834 31.8272L85.5834 12.475ZM56.0507 38.5313L102.357 38.5313Q105.02 38.5313 106.898 36.6387Q108.776 34.7461 108.776 32.0988Q108.776 29.4604 106.898 27.5635Q105.02 25.6665 102.357 25.6665L56.0507 25.6665Q53.4415 25.6665 51.5298 27.5635Q49.6182 29.4604 49.6182 32.0988Q49.6182 34.7461 51.5298 36.6387Q53.4415 38.5313 56.0507 38.5313ZM79.1509-4.20076Q88.8961-4.20076 97.4035-7.8569Q105.911-11.513 112.381-17.983Q118.851-24.453 122.507-32.9751Q126.163-41.4972 126.163-51.2132Q126.163-60.9962 122.507-69.4913Q118.851-77.9864 112.381-84.4688Q105.911-90.9511 97.4035-94.5882Q88.8961-98.2253 79.1509-98.2253Q69.4349-98.2253 60.9063-94.5882Q52.3776-90.9511 45.9142-84.4688Q39.4508-77.9864 35.7948-69.4913Q32.1387-60.9962 32.1387-51.2132Q32.1387-41.4972 35.7948-32.9751Q39.4508-24.453 45.9142-17.983Q52.3776-11.513 60.9063-7.8569Q69.4349-4.20076 79.1509-4.20076Z"/>
  </g>
  <g id="Semibold-L" transform="matrix(1 0 0 1 1969.59 1556)">
   <path d="M43.529-77.2782L51.553-85.3205L31.1018-105.735Q29.4672-107.388 27.1175-107.397Q24.7677-107.406 23.1148-105.735Q21.4618-104.082 21.4618-101.732Q21.4618-99.3826 23.1148-97.7294ZM125.96-4.09681L118.035-12.1396Q110.445-4.28988 100.211 0.157839Q89.9763 4.60556 78.0437 4.60556Q66.3774 4.60556 56.2948 0.377686Q46.2122-3.85019 38.6502-11.4339Q31.0883-19.0176 26.8386-29.0786Q22.589-39.1397 22.589-50.8059Q22.589-62.7136 27.0366-72.9293Q31.4842-83.145 39.2351-90.6917L31.0622-98.4372Q21.8813-89.4358 16.5701-77.1676Q11.2588-64.8993 11.2588-50.8059Q11.2588-36.8547 16.4122-24.7567Q21.5655-12.6587 30.7095-3.49321Q39.8535 5.67226 51.9731 10.8165Q64.0928 15.9607 78.0437 15.9607Q92.1991 15.9607 104.517 10.6061Q116.835 5.25145 125.96-4.09681ZM111.958-24.8789L103.568-17.2572L126.429 5.58473Q128.082 7.17618 130.423 7.17618Q132.763 7.17618 134.416 5.58473Q136.088 3.93174 136.088 1.5511Q136.088-0.829537 134.416-2.439ZM72.3787 12.4748L72.3787 30.8497L83.7089 30.8497L83.7089 12.4748ZM55.4285 37.1642L100.807 37.1642Q103.147 37.1642 104.8 35.5018Q106.454 33.8394 106.454 31.4989Q106.454 29.1834 104.8 27.5087Q103.147 25.834 100.807 25.834L55.4285 25.834Q53.1316 25.834 51.4474 27.5087Q49.7633 29.1834 49.7633 31.4989Q49.7633 33.8394 51.4474 35.5018Q53.1316 37.1642 55.4285 37.1642ZM78.0437-4.07495Q87.7251-4.07495 96.1848-7.71254Q104.644-11.3501 111.072-17.7776Q117.499-24.2051 121.137-32.6741Q124.775-41.143 124.775-50.8059Q124.775-60.5305 121.137-68.9778Q117.499-77.425 111.072-83.8649Q104.644-90.3048 96.1848-93.9207Q87.7251-97.5365 78.0437-97.5365Q68.3808-97.5365 59.9027-93.9207Q51.4245-90.3048 45.0062-83.8649Q38.5879-77.425 34.9505-68.9778Q31.313-60.5305 31.313-50.8059Q31.313-41.143 34.9505-32.6741Q38.5879-24.2051 45.0062-17.7776Q51.4245-11.3501 59.9027-7.71254Q68.3808-4.07495 78.0437-4.07495Z"/>
  </g>
  <g id="Medium-L" transform="matrix(1 0 0 1 1673.7 1556)">
   <path d="M42.9381-77.5394L50.1395-84.7631L29.9629-104.907Q28.4967-106.395 26.3897-106.401Q24.2827-106.406 22.7943-104.907Q21.3058-103.418 21.3058-101.306Q21.3058-99.1927 22.7943-97.716ZM124.285-4.16886L117.186-11.3569Q109.584-3.5842 99.3379 0.82508Q89.092 5.23436 77.2041 5.23436Q65.49 5.23436 55.3474 0.978472Q45.2047-3.27742 37.5948-10.9112Q29.9848-18.545 25.7051-28.664Q21.4254-38.783 21.4254-50.4971Q21.4254-62.36 25.8406-72.5954Q30.2557-82.8308 37.9258-90.3852L30.6073-97.3243Q21.6318-88.4395 16.4453-76.3863Q11.2588-64.3332 11.2588-50.4971Q11.2588-36.7306 16.3498-24.7913Q21.4409-12.8519 30.4704-3.79289Q39.4999 5.26613 51.469 10.3461Q63.438 15.426 77.2041 15.426Q91.0862 15.426 103.185 10.1981Q115.283 4.97024 124.285-4.16886ZM110.901-23.9685L103.367-17.1331L125.777 5.26677Q127.254 6.68571 129.355 6.68571Q131.457 6.68571 132.946 5.26677Q134.445 3.7783 134.445 1.63635Q134.445-0.505601 132.946-1.94643ZM72.121 12.4747L72.121 30.1084L82.2876 30.1084L82.2876 12.4747ZM54.9568 36.1275L99.6314 36.1275Q101.727 36.1275 103.21 34.6397Q104.692 33.1518 104.692 31.044Q104.692 28.9733 103.21 27.4671Q101.727 25.9609 99.6314 25.9609L54.9568 25.9609Q52.8966 25.9609 51.385 27.4671Q49.8733 28.9733 49.8733 31.044Q49.8733 33.1518 51.385 34.6397Q52.8966 36.1275 54.9568 36.1275ZM77.2041-3.97955Q86.8372-3.97955 95.2606-7.60308Q103.684-11.2266 110.079-17.6218Q116.475-24.0171 120.098-32.4458Q123.722-40.8745 123.722-50.4971Q123.722-60.1774 120.098-68.5884Q116.475-76.9993 110.079-83.4071Q103.684-89.8148 95.2606-93.4145Q86.8372-97.0142 77.2041-97.0142Q67.5816-97.0142 59.1417-93.4145Q50.7018-89.8148 44.3177-83.4071Q37.9336-76.9993 34.3103-68.5884Q30.687-60.1774 30.687-50.4971Q30.687-40.8745 34.3103-32.4458Q37.9336-24.0171 44.3177-17.6218Q50.7018-11.2266 59.1417-7.60308Q67.5816-3.97955 77.2041-3.97955Z"/>
  </g>
  <g id="Regular-L" transform="matrix(1 0 0 1 1378.06 1556)">
   <path d="M42.1674-77.88L48.2959-84.036L28.4774-103.827Q27.2309-105.101 25.4405-105.101Q23.6501-105.101 22.3762-103.827Q21.1024-102.553 21.1024-100.749Q21.1024-98.945 22.3762-97.6985ZM122.099-4.26283L116.078-10.3361Q108.461-2.66375 98.1997 1.69539Q87.9386 6.05453 76.109 6.05453Q64.3325 6.05453 54.1116 1.76211Q43.8907-2.53032 36.2181-10.2294Q28.5455-17.9285 24.2266-28.1231Q19.9077-38.3178 19.9077-50.0943Q19.9077-61.8987 24.2805-72.1598Q28.6534-82.4209 36.2179-89.9854L30.014-95.8727Q21.3062-87.1399 16.2825-75.3673Q11.2588-63.5947 11.2588-50.0943Q11.2588-36.5687 16.2686-24.8363Q21.2784-13.104 30.1586-4.18379Q39.0388 4.7364 50.8113 9.73248Q62.5839 14.7286 76.109 14.7286Q89.6346 14.7286 101.447 9.666Q113.26 4.60344 122.099-4.26283ZM109.523-22.781L103.103-16.9714L124.927 4.85204Q126.173 6.04595 127.964 6.04595Q129.754 6.04595 131.028 4.85204Q132.302 3.57817 132.302 1.74755Q132.302-0.0830754 131.028-1.30394ZM71.7848 12.4746L71.7848 29.1416L80.4337 29.1416L80.4337 12.4746ZM54.3415 34.7754L98.0982 34.7754Q99.8747 34.7754 101.135 33.5152Q102.395 32.255 102.395 30.4507Q102.395 28.6994 101.135 27.4129Q99.8747 26.1265 98.0982 26.1265L54.3415 26.1265Q52.5902 26.1265 51.3035 27.4129Q50.0168 28.6994 50.0168 30.4507Q50.0168 32.255 51.3035 33.5152Q52.5902 34.7754 54.3415 34.7754ZM76.109-3.85511Q85.679-3.85511 94.0552-7.4603Q102.431-11.0655 108.785-17.4187Q115.138-23.7718 118.743-32.1481Q122.348-40.5243 122.348-50.0943Q122.348-59.7168 118.743-68.0805Q115.138-76.4441 108.785-82.8099Q102.431-89.1756 94.0552-92.7543Q85.679-96.333 76.109-96.333Q66.5391-96.333 58.1491-92.7543Q49.7592-89.1756 43.4197-82.8099Q37.0802-76.4441 33.4753-68.0805Q29.8703-59.7168 29.8703-50.0943Q29.8703-40.5243 33.4753-32.1481Q37.0802-23.7718 43.4197-17.4187Q49.7592-11.0655 58.1491-7.4603Q66.5391-3.85511 76.109-3.85511Z"/>
  </g>
  <g id="Light-L" transform="matrix(1 0 0 1 1082.43 1556)">
   <path d="M41.5757-78.2045L46.2729-82.948L26.2636-102.911Q25.3224-103.898 23.9613-103.898Q22.6003-103.898 21.6128-102.911Q20.6252-101.923 20.6252-100.539Q20.6252-99.155 21.6128-98.2138ZM120.172-4.45362L115.601-9.05732Q107.888-1.25158 97.4553 3.17442Q87.0225 7.60041 75.021 7.60041Q63.0537 7.60041 52.6611 3.23167Q42.2685-1.13707 34.4624-8.96025Q26.6562-16.7834 22.2705-27.1594Q17.8847-37.5354 17.8847-49.5027Q17.8847-61.5171 22.3338-71.9499Q26.783-82.3827 34.462-90.0617L29.8039-94.5176Q21.1918-85.9185 16.2253-74.3463Q11.2588-62.7742 11.2588-49.5027Q11.2588-36.2442 16.2017-24.7122Q21.1446-13.1803 29.8818-4.40327Q38.619 4.37374 50.1912 9.2935Q61.7634 14.2133 75.021 14.2133Q88.2795 14.2133 99.8919 9.23664Q111.504 4.26002 120.172-4.45362ZM108.13-21.0443L103.218-16.6087L124.508 4.68017Q125.448 5.58806 126.809 5.58806Q128.17 5.58806 129.158 4.68017Q130.145 3.69264 130.145 2.29138Q130.145 0.890115 129.158-0.0633259ZM71.7085 12.5128L71.7085 29.0271L78.3344 29.0271L78.3344 12.5128ZM54.4371 33.554L95.9796 33.554Q97.3171 33.554 98.2815 32.5896Q99.2459 31.6253 99.2459 30.2407Q99.2459 28.8901 98.2815 27.9091Q97.3171 26.9281 95.9796 26.9281L54.4371 26.9281Q53.0865 26.9281 52.1051 27.9091Q51.1237 28.8901 51.1237 30.2407Q51.1237 31.6253 52.1051 32.5896Q53.0865 33.554 54.4371 33.554ZM75.021-3.32058Q84.591-3.32058 92.9482-6.91631Q101.305-10.512 107.659-16.8652Q114.012-23.2184 117.607-31.5755Q121.203-39.9327 121.203-49.5027Q121.203-59.1059 117.607-67.4696Q114.012-75.8333 107.659-82.1799Q101.305-88.5266 92.9482-92.1053Q84.591-95.684 75.021-95.684Q65.4511-95.684 57.0708-92.1053Q48.6904-88.5266 42.3604-82.1799Q36.0304-75.8333 32.4351-67.4696Q28.8397-59.1059 28.8397-49.5027Q28.8397-39.9327 32.4351-31.5755Q36.0304-23.2184 42.3604-16.8652Q48.6904-10.512 57.0708-6.91631Q65.4511-3.32058 75.021-3.32058Z"/>
  </g>
  <g id="Thin-L" transform="matrix(1 0 0 1 787.146 1556)">
   <path d="M40.7933-78.6337L43.5973-81.509L23.3357-101.699Q22.7982-102.308 22.005-102.308Q21.2118-102.308 20.603-101.699Q19.9942-101.091 19.9942-100.262Q19.9942-99.4328 20.603-98.8953ZM117.622-4.70595L114.97-7.36604Q107.131 0.616128 96.4707 5.13055Q85.8108 9.64497 73.5821 9.64497Q61.3625 9.64497 50.7427 5.17529Q40.123 0.705613 32.1403-7.28169Q24.1575-15.269 19.6833-25.8848Q15.2091-36.5006 15.2091-48.7202Q15.2091-61.0124 19.7592-71.6724Q24.3093-82.3323 32.1397-90.1627L29.5261-92.7254Q21.0404-84.3031 16.1496-72.996Q11.2588-61.6889 11.2588-48.7202Q11.2588-35.815 16.1133-24.5481Q20.9678-13.2812 29.5158-4.69357Q38.0639 3.89409 49.371 8.71292Q60.6781 13.5317 73.5821 13.5317Q86.4873 13.5317 97.8346 8.66878Q109.182 3.80582 117.622-4.70595ZM106.288-18.7474L103.369-16.1291L123.952 4.45285Q124.489 4.98245 125.282 4.98245Q126.075 4.98245 126.684 4.45285Q127.293 3.84404 127.293 3.01064Q127.293 2.17724 126.684 1.57749ZM71.6076 12.5632L71.6076 28.8757L75.5578 28.8757L75.5578 12.5632ZM54.5634 31.9386L93.1777 31.9386Q93.9346 31.9386 94.5077 31.3655Q95.0808 30.7924 95.0808 29.9629Q95.0808 29.1425 94.5077 28.5654Q93.9346 27.9884 93.1777 27.9884L54.5634 27.9884Q53.743 27.9884 53.1654 28.5654Q52.5877 29.1425 52.5877 29.9629Q52.5877 30.7924 53.1654 31.3655Q53.743 31.9386 54.5634 31.9386ZM73.5821-2.61362Q83.1521-2.61362 91.484-6.19684Q99.8159-9.78006 106.169-16.1332Q112.522-22.4864 116.105-30.8183Q119.689-39.1502 119.689-48.7202Q119.689-58.298 116.105-66.6617Q112.522-75.0254 106.169-81.3468Q99.8159-87.6682 91.484-91.2469Q83.1521-94.8256 73.5821-94.8256Q64.0121-94.8256 55.6445-91.2469Q47.2769-87.6682 40.9594-81.3468Q34.6419-75.0254 31.0593-66.6617Q27.4767-58.298 27.4767-48.7202Q27.4767-39.1502 31.0593-30.8183Q34.6419-22.4864 40.9594-16.1332Q47.2769-9.78006 55.6445-6.19684Q64.0121-2.61362 73.5821-2.61362Z"/>
  </g>
  <g id="Ultralight-L" transform="matrix(1 0 0 1 491.166 1556)">
   <path d="M40.3925-78.8535L42.2269-80.772L21.836-101.079Q21.5053-101.494 21.003-101.494Q20.5006-101.494 20.0858-101.079Q19.671-100.664 19.671-100.119Q19.671-99.575 20.0858-99.2444ZM116.317-4.8352L114.647-6.49977Q106.743 1.57276 95.9665 6.13247Q85.1902 10.6922 72.8451 10.6922Q60.4962 10.6922 49.7602 6.1708Q39.0241 1.64943 30.9509-6.42194Q22.8776-14.4933 18.3581-25.2319Q13.8386-35.9706 13.8386-48.3194Q13.8386-60.7539 18.4404-71.5302Q23.0422-82.3064 30.9502-90.2144L29.3839-91.8075Q20.9628-83.4757 16.1108-72.3044Q11.2588-61.1331 11.2588-48.3194Q11.2588-35.5952 16.068-24.4641Q20.8772-13.3329 29.3284-4.84225Q37.7796 3.64842 48.9509 8.41554Q60.1222 13.1827 72.8451 13.1827Q85.5693 13.1827 96.7809 8.37792Q107.992 3.57318 116.317-4.8352ZM105.344-17.571L103.447-15.8834L123.668 4.33642Q123.997 4.67227 124.5 4.67227Q125.002 4.67227 125.417 4.33642Q125.832 3.92159 125.832 3.37904Q125.832 2.83649 125.417 2.41791ZM71.5559 12.5891L71.5559 28.7982L74.1357 28.7982L74.1357 12.5891ZM54.6282 31.1112L91.7425 31.1112Q92.202 31.1112 92.5748 30.7385Q92.9475 30.3657 92.9475 29.8206Q92.9475 29.2717 92.5748 28.9016Q92.202 28.5314 91.7425 28.5314L54.6282 28.5314Q54.0793 28.5314 53.7084 28.9016Q53.3375 29.2717 53.3375 29.8206Q53.3375 30.3657 53.7084 30.7385Q54.0793 31.1112 54.6282 31.1112ZM72.8451-2.25152Q82.4151-2.25152 90.734-5.82833Q99.053-9.40514 105.406-15.7583Q111.759-22.1115 115.336-30.4305Q118.913-38.7495 118.913-48.3194Q118.913-57.8842 115.336-66.2479Q111.759-74.6116 105.406-80.9201Q99.053-87.2286 90.734-90.8073Q82.4151-94.386 72.8451-94.386Q63.2751-94.386 54.914-90.8073Q46.5529-87.2286 40.2419-80.9201Q33.9308-74.6116 30.3547-66.2479Q26.7786-57.8842 26.7786-48.3194Q26.7786-38.7495 30.3547-30.4305Q33.9308-22.1115 40.2419-15.7583Q46.5529-9.40514 54.914-5.82833Q63.2751-2.25152 72.8451-2.25152Z"/>
  </g>
  <g id="Black-M" transform="matrix(1 0 0 1 2872.34 1126)">
   <path d="M36.6534-66.5332L46.7409-76.6205L29.377-93.9276Q27.3218-95.9825 24.3615-96.0111Q21.4011-96.0396 19.3462-93.9276Q17.2913-91.8727 17.2913-88.9411Q17.2913-86.0094 19.3462-83.8971ZM105.809-10.7929L95.7834-21.0523Q89.9334-14.5177 82.0078-10.8454Q74.0821-7.17316 64.5418-7.17316Q55.6921-7.17316 48.1402-10.3262Q40.5883-13.4793 34.9386-19.1316Q29.289-24.784 26.1332-32.3332Q22.9774-39.8824 22.9774-48.732Q22.9774-58.2666 26.621-66.1351Q30.2646-74.0037 36.7372-79.8482L26.4039-89.6347Q18.2357-82.0889 13.4792-71.5126Q8.72266-60.9364 8.72266-48.732Q8.72266-37.0358 13.0226-26.8904Q17.3225-16.745 24.9646-9.12887Q32.6066-1.51275 42.7261 2.7873Q52.8456 7.08736 64.5418 7.08736Q76.8661 7.08736 87.502 2.29663Q98.138-2.49409 105.809-10.7929ZM91.8614-31.4432L81.347-21.8393L101.261-1.98277Q103.373 0.0669149 106.305 0.0669149Q109.236 0.0669149 111.291-1.98277Q113.403-4.03767 113.403-7.00061Q113.403-9.96355 111.291-12.013ZM57.4144 1.74257L57.4144 19.8533L71.6692 19.8533L71.6692 1.74257ZM45.4748 25.9339L83.6065 25.9339Q86.567 25.9339 88.6506 23.8218Q90.7341 21.7096 90.7341 18.8065Q90.7341 15.8518 88.6506 13.7655Q86.567 11.6792 83.6065 11.6792L45.4748 11.6792Q42.5772 11.6792 40.4623 13.7655Q38.3475 15.8518 38.3475 18.8065Q38.3475 21.7096 40.4623 23.8218Q42.5772 25.9339 45.4748 25.9339ZM64.5418-11.4163Q72.2986-11.4163 79.0381-14.3058Q85.7776-17.1953 90.9281-22.3457Q96.0786-27.4962 98.968-34.2643Q101.858-41.0323 101.858-48.732Q101.858-56.4944 98.968-63.231Q96.0786-69.9676 90.9281-75.121Q85.7776-80.2743 79.0381-83.1611Q72.2986-86.0478 64.5418-86.0478Q56.842-86.0478 50.0741-83.1611Q43.3062-80.2743 38.1556-75.121Q33.005-69.9676 30.1155-63.231Q27.226-56.4944 27.226-48.732Q27.226-41.0323 30.1155-34.2643Q33.005-27.4962 38.1556-22.3457Q43.3062-17.1953 50.0741-14.3058Q56.842-11.4163 64.5418-11.4163Z"/>
  </g>
  <g id="Heavy-M" transform="matrix(1 0 0 1 2576.77 1126)">
   <path d="M35.7926-66.9L44.8125-75.9222L27.9485-92.7404Q26.1094-94.5817 23.4626-94.6036Q20.8158-94.6254 18.9744-92.7404Q17.1331-90.899 17.1331-88.2729Q17.1331-85.6468 18.9744-83.7641ZM103.422-10.8724L94.4664-20.0186Q88.617-13.6413 80.7088-10.0477Q72.8005-6.45401 63.372-6.45401Q54.4833-6.45401 46.8679-9.63752Q39.2525-12.821 33.5513-18.5304Q27.8501-24.2398 24.6584-31.847Q21.4667-39.4542 21.4667-48.3429Q21.4667-57.7573 25.0397-65.6219Q28.6126-73.4866 34.9254-79.3195L25.6885-88.0653Q17.8431-80.6855 13.2829-70.4259Q8.72266-60.1662 8.72266-48.3429Q8.72266-36.898 12.9328-26.9749Q17.1429-17.0517 24.6243-9.58273Q32.1057-2.1138 42.0164 2.09518Q51.9272 6.30417 63.372 6.30417Q75.2966 6.30417 85.6093 1.70686Q95.9219-2.89044 103.422-10.8724ZM90.3947-30.2942L80.985-21.7098L100.261-2.47741Q102.144-0.654692 104.769-0.654692Q107.394-0.654692 109.235-2.47741Q111.12-4.31878 111.12-6.97492Q111.12-9.63106 109.235-11.456ZM56.9999 1.7342L56.9999 18.6387L69.744 18.6387L69.744 1.7342ZM44.6657 24.4632L82.0965 24.4632Q84.7421 24.4632 86.6042 22.5794Q88.4662 20.6955 88.4662 18.0912Q88.4662 15.4597 86.6042 13.5894Q84.7421 11.7192 82.0965 11.7192L44.6657 11.7192Q42.0778 11.7192 40.1857 13.5894Q38.2936 15.4597 38.2936 18.0912Q38.2936 20.6955 40.1857 22.5794Q42.0778 24.4632 44.6657 24.4632ZM63.372-11.3716Q71.0479-11.3716 77.731-14.2396Q84.414-17.1077 89.5106-22.2042Q94.6072-27.3008 97.4752-34.0056Q100.343-40.7105 100.343-48.3429Q100.343-56.0353 97.4752-62.7112Q94.6072-69.3872 89.5106-74.4908Q84.414-79.5945 77.731-82.4543Q71.0479-85.3141 63.372-85.3141Q55.7396-85.3141 49.0336-82.4543Q42.3276-79.5945 37.2322-74.4908Q32.1367-69.3872 29.2687-62.7112Q26.4007-56.0353 26.4007-48.3429Q26.4007-40.7105 29.2687-34.0056Q32.1367-27.3008 37.2322-22.2042Q42.3276-17.1077 49.0336-14.2396Q55.7396-11.3716 63.372-11.3716Z"/>
  </g>
  <g id="Bold-M" transform="matrix(1 0 0 1 2281.33 1126)">
   <path d="M34.8297-67.3104L42.6553-75.1412L26.3506-91.4123Q24.7532-93.0148 22.4571-93.0291Q20.1611-93.0433 18.5586-91.4123Q16.9561-89.8098 16.9561-87.5255Q16.9561-85.2411 18.5586-83.6152ZM100.751-10.9613L92.993-18.8623Q87.1444-12.6609 79.2557-9.15525Q71.3669-5.64955 62.0633-5.64955Q53.131-5.64955 45.4446-8.8671Q37.7583-12.0847 31.9994-17.8579Q26.2405-23.6311 23.0087-31.3031Q19.7768-38.9752 19.7768-47.9075Q19.7768-57.1876 23.2707-65.0478Q26.7647-72.9081 32.8987-78.728L24.8883-86.3096Q17.4039-79.1157 13.0633-69.2102Q8.72266-59.3046 8.72266-47.9075Q8.72266-36.7439 12.8323-27.0693Q16.942-17.3947 24.2437-10.0904Q31.5454-2.78616 41.2226 1.32094Q50.8998 5.42805 62.0633 5.42805Q73.541 5.42805 83.492 1.04712Q93.443-3.33382 100.751-10.9613ZM88.7539-29.009L80.5801-21.565L99.1431-3.03074Q100.769-1.46191 103.051-1.46191Q105.333-1.46191 106.935-3.03074Q108.566-4.63324 108.566-6.94617Q108.566-9.25911 106.935-10.8329ZM56.5363 1.72485L56.5363 17.28L67.5904 17.28L67.5904 1.72485ZM43.7605 22.8181L80.4073 22.8181Q82.7007 22.8181 84.315 21.1896Q85.9292 19.5611 85.9292 17.291Q85.9292 15.021 84.315 13.3925Q82.7007 11.764 80.4073 11.764L43.7605 11.764Q41.5191 11.764 39.8762 13.3925Q38.2334 15.021 38.2334 17.291Q38.2334 19.5611 39.8762 21.1896Q41.5191 22.8181 43.7605 22.8181ZM62.0633-11.3217Q69.6489-11.3217 76.2688-14.1657Q82.8887-17.0096 87.9249-22.0459Q92.9612-27.0822 95.8052-33.7163Q98.6492-40.3505 98.6492-47.9075Q98.6492-55.5217 95.8052-62.1298Q92.9612-68.738 87.9249-73.786Q82.8887-78.834 76.2688-81.6636Q69.6489-84.4933 62.0633-84.4933Q54.5063-84.4933 47.8696-81.6636Q41.2329-78.834 36.1992-73.786Q31.1654-68.738 28.3215-62.1298Q25.4776-55.5217 25.4776-47.9075Q25.4776-40.3505 28.3215-33.7163Q31.1654-27.0822 36.1992-22.0459Q41.2329-17.0096 47.8696-14.1657Q54.5063-11.3217 62.0633-11.3217Z"/>
  </g>
  <g id="Semibold-M" transform="matrix(1 0 0 1 1985.5 1126)">
   <path d="M34.1658-67.5934L41.1681-74.6027L25.249-90.4967Q23.8182-91.9345 21.7639-91.9436Q19.7097-91.9527 18.2718-90.4967Q16.834-89.0589 16.834-87.0102Q16.834-84.9615 18.2718-83.5125ZM98.9103-11.0225L91.9773-18.0651Q86.1293-11.9851 78.2539-8.54002Q70.3786-5.09496 61.1612-5.09496Q52.1987-5.09496 44.4635-8.33598Q36.7282-11.577 30.9296-17.3942Q25.1309-23.2114 21.8713-30.9282Q18.6117-38.6449 18.6117-47.6074Q18.6117-56.7949 22.0512-64.6521Q25.4907-72.5092 31.5014-78.3202L24.3367-85.0993Q17.1011-78.0335 12.9119-68.3721Q8.72266-58.7106 8.72266-47.6074Q8.72266-36.6376 12.7631-27.1344Q16.8034-17.6312 23.9813-10.4404Q31.1591-3.24969 40.6753 0.787188Q50.1915 4.82406 61.1612 4.82406Q72.3306 4.82406 82.0323 0.59229Q91.734-3.63948 98.9103-11.0225ZM87.6228-28.1229L80.301-21.4652L98.3723-3.4122Q99.8211-2.01841 101.866-2.01841Q103.911-2.01841 105.349-3.4122Q106.805-4.85002 106.805-6.92636Q106.805-9.00269 105.349-10.4034ZM56.2167 1.7184L56.2167 16.3433L66.1058 16.3433L66.1058 1.7184ZM43.1365 21.6839L79.2428 21.6839Q81.2934 21.6839 82.7368 20.2314Q84.1802 18.779 84.1802 16.7393Q84.1802 14.7186 82.7368 13.2567Q81.2934 11.7948 79.2428 11.7948L43.1365 11.7948Q41.1339 11.7948 39.6629 13.2567Q38.1919 14.7186 38.1919 16.7393Q38.1919 18.779 39.6629 20.2314Q41.1339 21.6839 43.1365 21.6839ZM61.1612-11.2872Q68.6844-11.2872 75.2607-14.1147Q81.8371-16.9421 86.8318-21.9368Q91.8265-26.9315 94.6539-33.5169Q97.4813-40.1024 97.4813-47.6074Q97.4813-55.1676 94.6539-61.729Q91.8265-68.2904 86.8318-73.3Q81.8371-78.3097 75.2607-81.1186Q68.6844-83.9274 61.1612-83.9274Q53.6561-83.9274 47.0672-81.1186Q40.4782-78.3097 35.487-73.3Q30.4958-68.2904 27.6685-61.729Q24.8411-55.1676 24.8411-47.6074Q24.8411-40.1024 27.6685-33.5169Q30.4958-26.9315 35.487-21.9368Q40.4782-16.9421 47.0672-14.1147Q53.6561-11.2872 61.1612-11.2872Z"/>
  </g>
  <g id="Medium-M" transform="matrix(1 0 0 1 1689.46 1126)">
   <path d="M33.6625-67.8079L40.0405-74.1944L24.4137-89.8025Q23.1092-91.1154 21.2383-91.1206Q19.3674-91.1257 18.0544-89.8025Q16.7415-88.4895 16.7415-86.6195Q16.7415-84.7494 18.0544-83.4347ZM97.5144-11.069L91.2072-17.4607Q85.3595-11.4726 77.4944-8.07352Q69.6292-4.67444 60.4771-4.67444Q51.4918-4.67444 43.7195-7.93326Q35.9472-11.1921 30.1183-17.0427Q24.2895-22.8932 21.0089-30.6439Q17.7284-38.3946 17.7284-47.3798Q17.7284-56.4971 21.1266-64.352Q24.5248-72.2068 30.442-78.011L23.9184-84.1816Q16.8715-77.213 12.7971-67.7366Q8.72266-58.2603 8.72266-47.3798Q8.72266-36.557 12.7105-27.1838Q16.6984-17.8105 23.7823-10.7058Q30.8662-3.60115 40.2603 0.382473Q49.6545 4.36609 60.4771 4.36609Q71.4129 4.36609 80.9256 0.247423Q90.4382-3.87125 97.5144-11.069ZM86.7651-27.4511L80.0894-21.3895L97.7879-3.70144Q99.1024-2.44036 100.968-2.44036Q102.834-2.44036 104.147-3.70144Q105.47-5.0144 105.47-6.91133Q105.47-8.80826 104.147-10.0777ZM55.9743 1.71351L55.9743 15.6331L64.98 15.6331L64.98 1.71351ZM42.6633 20.8239L78.3598 20.8239Q80.2264 20.8239 81.5402 19.5049Q82.854 18.186 82.854 16.321Q82.854 14.4892 81.5402 13.1537Q80.2264 11.8182 78.3598 11.8182L42.6633 11.8182Q40.8419 11.8182 39.5011 13.1537Q38.1604 14.4892 38.1604 16.321Q38.1604 18.186 39.5011 19.5049Q40.8419 20.8239 42.6633 20.8239ZM60.4771-11.2611Q67.953-11.2611 74.4964-14.076Q81.0397-16.8908 86.0029-21.854Q90.9661-26.8172 93.7809-33.3657Q96.5958-39.9142 96.5958-47.3798Q96.5958-54.8991 93.7809-61.425Q90.9661-67.951 86.0029-72.9316Q81.0397-77.9122 74.4964-80.7053Q67.953-83.4984 60.4771-83.4984Q53.0115-83.4984 46.4587-80.7053Q39.9059-77.9122 34.947-72.9316Q29.9881-67.951 27.1733-61.425Q24.3585-54.8991 24.3585-47.3798Q24.3585-39.9142 27.1733-33.3657Q29.9881-26.8172 34.947-21.854Q39.9059-16.8908 46.4587-14.076Q53.0115-11.2611 60.4771-11.2611Z"/>
  </g>
  <g id="Regular-M" transform="matrix(1 0 0 1 1393.62 1126)">
   <path d="M33.0059-68.0877L38.5697-73.6619L23.3242-88.897Q22.1845-90.0471 20.5528-90.0471Q18.921-90.0471 17.7709-88.897Q16.6208-87.7469 16.6208-86.1099Q16.6208-84.4729 17.7709-83.3332ZM95.6936-11.1296L90.2026-16.6722Q84.3555-10.8042 76.5036-7.46506Q68.6517-4.12595 59.5849-4.12595Q50.5698-4.12595 42.7491-7.40798Q34.9284-10.69 29.0602-16.5841Q23.192-22.4782 19.8841-30.2731Q16.5761-38.0679 16.5761-47.083Q16.5761-56.1087 19.9205-63.9605Q23.2648-71.8124 29.0601-77.6077L23.3728-82.9845Q16.5721-76.1426 12.6474-66.9077Q8.72266-57.6728 8.72266-47.083Q8.72266-36.452 12.642-27.2482Q16.5614-18.0444 23.5228-11.052Q30.4842-4.05957 39.7191-0.145417Q48.954 3.76874 59.5849 3.76874Q70.2159 3.76874 79.482-0.202404Q88.748-4.17355 95.6936-11.1296ZM85.6464-26.5748L79.8133-21.2908L97.0256-4.07871Q98.165-2.99074 99.7968-2.99074Q101.429-2.99074 102.579-4.07871Q103.729-5.2288 103.729-6.89173Q103.729-8.55466 102.579-9.65291ZM55.6582 1.70713L55.6582 14.7067L63.5117 14.7067L63.5117 1.70713ZM42.0462 19.7022L77.2081 19.7022Q78.8345 19.7022 79.9794 18.5574Q81.1243 17.4125 81.1243 15.7754Q81.1243 14.1901 79.9794 13.0194Q78.8345 11.8487 77.2081 11.8487L42.0462 11.8487Q40.4609 11.8487 39.2901 13.0194Q38.1194 14.1901 38.1194 15.7754Q38.1194 17.4125 39.2901 18.5574Q40.4609 19.7022 42.0462 19.7022ZM59.5849-11.227Q66.9991-11.227 73.4994-14.0255Q79.9997-16.824 84.9218-21.7461Q89.8438-26.6682 92.6423-33.1684Q95.4408-39.6687 95.4408-47.083Q95.4408-54.5489 92.6423-61.0286Q89.8438-67.5083 84.9218-72.451Q79.9997-77.3936 73.4994-80.1662Q66.9991-82.9388 59.5849-82.9388Q52.1706-82.9388 45.6651-80.1662Q39.1595-77.3936 34.2427-72.451Q29.3259-67.5083 26.5275-61.0286Q23.7291-54.5489 23.7291-47.083Q23.7291-39.6687 26.5275-33.1684Q29.3259-26.6682 34.2427-21.7461Q39.1595-16.824 45.6651-14.0255Q52.1706-11.227 59.5849-11.227Z"/>
  </g>
  <g id="Light-M" transform="matrix(1 0 0 1 1097.87 1126)">
   <path d="M32.4755-68.3786L36.7559-72.6865L21.3394-88.0756Q20.4734-88.969 19.2266-88.969Q17.9798-88.969 17.0864-88.0756Q16.193-87.1822 16.193-85.9217Q16.193-84.6612 17.0864-83.7952ZM93.9655-11.3007L89.7749-15.5258Q83.842-9.53808 75.8362-6.13903Q67.8304-2.73998 58.6094-2.73998Q49.4233-2.73998 41.4487-6.09044Q33.474-9.4409 27.4861-15.4462Q21.4982-21.4516 18.1303-29.409Q14.7624-37.3665 14.7624-46.5526Q14.7624-55.7666 18.1752-63.7724Q21.5879-71.7782 27.4859-77.6761L23.1845-81.7696Q16.4694-75.0476 12.596-65.9924Q8.72266-56.9372 8.72266-46.5526Q8.72266-36.161 12.5821-27.1369Q16.4415-18.1129 23.2747-11.2488Q30.1078-4.38472 39.1631-0.538983Q48.2183 3.30675 58.6094 3.30675Q69.001 3.30675 78.0874-0.587345Q87.1738-4.48144 93.9655-11.3007ZM84.3972-25.0178L79.9159-20.9657L96.6493-4.2328Q97.5147-3.40127 98.7616-3.40127Q100.008-3.40127 100.902-4.2328Q101.795-5.12617 101.795-6.40416Q101.795-7.68215 100.902-8.54063ZM55.5898 1.74134L55.5898 14.6041L61.6295 14.6041L61.6295 1.74134ZM42.1319 18.6072L75.3087 18.6072Q76.5416 18.6072 77.4212 17.7275Q78.3009 16.8479 78.3009 15.5871Q78.3009 14.3612 77.4212 13.4643Q76.5416 12.5675 75.3087 12.5675L42.1319 12.5675Q40.906 12.5675 40.0089 13.4643Q39.1118 14.3612 39.1118 15.5871Q39.1118 16.8479 40.0089 17.7275Q40.906 18.6072 42.1319 18.6072ZM58.6094-10.7478Q66.0237-10.7478 72.5069-13.5378Q78.99-16.3278 83.9121-21.2499Q88.8342-26.172 91.6242-32.6551Q94.4142-39.1383 94.4142-46.5526Q94.4142-54.0013 91.6242-60.481Q88.8342-66.9606 83.9121-71.8862Q78.99-76.8118 72.5069-79.5843Q66.0237-82.3569 58.6094-82.3569Q51.1952-82.3569 44.6983-79.5843Q38.2014-76.8118 33.293-71.8862Q28.3846-66.9606 25.5949-60.481Q22.8051-54.0013 22.8051-46.5526Q22.8051-39.1383 25.5949-32.6551Q28.3846-26.172 33.293-21.2499Q38.2014-16.3278 44.6983-13.5378Q51.1952-10.7478 58.6094-10.7478Z"/>
  </g>
  <g id="Thin-M" transform="matrix(1 0 0 1 802.442 1126)">
   <path d="M31.774-68.7634L34.3571-71.3964L18.7143-86.9893Q18.2104-87.5432 17.4726-87.5432Q16.7349-87.5432 16.1811-86.9893Q15.6272-86.4355 15.6272-85.6728Q15.6272-84.9102 16.1811-84.4062ZM91.68-11.5269L89.2091-14.0094Q83.1629-7.86359 74.9535-4.38526Q66.7441-0.906937 57.3193-0.906937Q47.907-0.906937 39.7287-4.34789Q31.5505-7.78883 25.4042-13.9413Q19.2579-20.0938 15.8108-28.2663Q12.3636-36.4387 12.3636-45.8511Q12.3636-55.3141 15.8668-63.5235Q19.3701-71.7329 25.4038-77.7666L22.9354-80.1628Q16.3337-73.5994 12.5282-64.7818Q8.72266-55.9642 8.72266-45.8511Q8.72266-35.7762 12.5028-26.9898Q16.283-18.2034 22.9466-11.5091Q29.6101-4.81475 38.4277-1.05951Q47.2453 2.69574 57.3193 2.69574Q67.3942 2.69574 76.2429-1.09646Q85.0917-4.88866 91.68-11.5269ZM82.7452-22.9585L80.0517-20.5356L96.1515-4.4366Q96.6547-3.94422 97.3924-3.94422Q98.1301-3.94422 98.684-4.4366Q99.2378-4.99043 99.2378-5.7593Q99.2378-6.52817 98.684-7.06956ZM55.4993 1.78659L55.4993 14.4684L59.1402 14.4684L59.1402 1.78659ZM42.2452 17.1589L72.7965 17.1589Q73.5089 17.1589 74.0378 16.63Q74.5667 16.1011 74.5667 15.338Q74.5667 14.5874 74.0378 14.0527Q73.5089 13.518 72.7965 13.518L42.2452 13.518Q41.4945 13.518 40.9594 14.0527Q40.4243 14.5874 40.4243 15.338Q40.4243 16.1011 40.9594 16.63Q41.4945 17.1589 42.2452 17.1589ZM57.3193-10.114Q64.7336-10.114 71.1941-12.8928Q77.6547-15.6716 82.5768-20.5936Q87.4989-25.5157 90.2776-31.9763Q93.0564-38.4368 93.0564-45.8511Q93.0564-53.2769 90.2776-59.7566Q87.4989-66.2363 82.5768-71.1393Q77.6547-76.0422 71.1941-78.8148Q64.7336-81.5873 57.3193-81.5873Q49.9051-81.5873 43.4196-78.8148Q36.9341-76.0422 32.0369-71.1393Q27.1398-66.2363 24.3614-59.7566Q21.5831-53.2769 21.5831-45.8511Q21.5831-38.4368 24.3614-31.9763Q27.1398-25.5157 32.0369-20.5936Q36.9341-15.6716 43.4196-12.8928Q49.9051-10.114 57.3193-10.114Z"/>
  </g>
  <g id="Ultralight-M" transform="matrix(1 0 0 1 506.386 1126)">
   <path d="M31.4147-68.9605L33.1285-70.7356L17.3698-86.4329Q17.0512-86.8129 16.5743-86.8129Q16.0973-86.8129 15.7174-86.4329Q15.3375-86.053 15.3375-85.5454Q15.3375-85.0378 15.7174-84.7192ZM90.5094-11.6428L88.9193-13.2328Q82.8151-7.00592 74.5014-3.48699Q66.1877 0.0319404 56.6585 0.0319404Q47.1303 0.0319404 38.8478-3.45536Q30.5652-6.94266 24.3379-13.1705Q18.1105-19.3984 14.6227-27.681Q11.1349-35.9636 11.1349-45.4918Q11.1349-55.0824 14.6845-63.3961Q18.2341-71.7098 24.3373-77.813L22.8078-79.3398Q16.2642-72.8576 12.4934-64.1617Q8.72266-55.4658 8.72266-45.4918Q8.72266-35.5791 12.4622-26.9144Q16.2018-18.2497 22.7785-11.6424Q29.3552-5.03501 38.0511-1.32612Q46.747 2.38278 56.6585 2.38278Q66.5712 2.38278 75.2982-1.35723Q84.0252-5.09724 90.5094-11.6428ZM81.899-21.9037L80.1212-20.3154L95.8966-4.54098Q96.2142-4.22232 96.6911-4.22232Q97.1681-4.22232 97.548-4.54098Q97.9279-4.92091 97.9279-5.42901Q97.9279-5.93712 97.548-6.31608ZM55.4529 1.80976L55.4529 14.3988L57.8652 14.3988L57.8652 1.80976ZM42.3032 16.4171L71.5098 16.4171Q71.9556 16.4171 72.3049 16.0679Q72.6541 15.7186 72.6541 15.2105Q72.6541 14.7033 72.3049 14.3541Q71.9556 14.0049 71.5098 14.0049L42.3032 14.0049Q41.796 14.0049 41.4463 14.3541Q41.0965 14.7033 41.0965 15.2105Q41.0965 15.7186 41.4463 16.0679Q41.796 16.4171 42.3032 16.4171ZM56.6585-9.78934Q64.0728-9.78934 70.5218-12.5624Q76.9708-15.3354 81.8928-20.2575Q86.8149-25.1796 89.5879-31.6285Q92.361-38.0775 92.361-45.4918Q92.361-52.9059 89.5879-59.3856Q86.8149-65.8653 81.8928-70.7567Q76.9708-75.648 70.5218-78.4206Q64.0728-81.1932 56.6585-81.1932Q49.2443-81.1932 42.7646-78.4206Q36.285-75.648 31.3936-70.7567Q26.5022-65.8653 23.7297-59.3856Q20.9572-52.9059 20.9572-45.4918Q20.9572-38.0775 23.7297-31.6285Q26.5022-25.1796 31.3936-20.2575Q36.285-15.3354 42.7646-12.5624Q49.2443-9.78934 56.6585-9.78934Z"/>
  </g>
  <g id="Black-S" transform="matrix(1 0 0 1 2885.26 696)">
   <path d="M28.9551-59.668L37.1094-67.8223L23.3398-81.543Q21.6797-83.2031 19.2871-83.2275Q16.8945-83.252 15.2344-81.543Q13.5742-79.8828 13.5742-77.5146Q13.5742-75.1465 15.2344-73.4375ZM83.5449-16.0645L75.4395-24.3652Q70.8496-19.1895 64.624-16.2842Q58.3984-13.3789 50.8789-13.3789Q43.9453-13.3789 38.0371-15.8447Q32.1289-18.3105 27.71-22.7295Q23.291-27.1484 20.8252-33.0566Q18.3594-38.9648 18.3594-45.8984Q18.3594-53.418 21.2402-59.5947Q24.1211-65.7715 29.248-70.3613L20.8984-78.2715Q14.4043-72.3145 10.6201-63.9404Q6.83594-55.5664 6.83594-45.8984Q6.83594-36.6699 10.2295-28.6621Q13.623-20.6543 19.6533-14.6484Q25.6836-8.64258 33.667-5.24902Q41.6504-1.85547 50.8789-1.85547Q60.6445-1.85547 69.0674-5.66406Q77.4902-9.47266 83.5449-16.0645ZM72.3633-32.5195L63.8672-24.7559L79.6387-9.0332Q81.3477-7.37305 83.7158-7.37305Q86.084-7.37305 87.7441-9.0332Q89.4531-10.6934 89.4531-13.0859Q89.4531-15.4785 87.7441-17.1387ZM45.1172-6.25L45.1172 8.30078L56.6406 8.30078L56.6406-6.25ZM35.8887 13.0859L65.8691 13.0859Q68.2617 13.0859 69.9463 11.377Q71.6309 9.66797 71.6309 7.32422Q71.6309 4.93164 69.9463 3.24707Q68.2617 1.5625 65.8691 1.5625L35.8887 1.5625Q33.5449 1.5625 31.8359 3.24707Q30.127 4.93164 30.127 7.32422Q30.127 9.66797 31.8359 11.377Q33.5449 13.0859 35.8887 13.0859ZM50.8789-16.5527Q56.9824-16.5527 62.2803-18.8232Q67.5781-21.0938 71.6309-25.1465Q75.6836-29.1992 77.9541-34.5215Q80.2246-39.8438 80.2246-45.8984Q80.2246-52.002 77.9541-57.2998Q75.6836-62.5977 71.6309-66.6504Q67.5781-70.7031 62.2803-72.9736Q56.9824-75.2441 50.8789-75.2441Q44.8242-75.2441 39.502-72.9736Q34.1797-70.7031 30.127-66.6504Q26.0742-62.5977 23.8037-57.2998Q21.5332-52.002 21.5332-45.8984Q21.5332-39.8438 23.8037-34.5215Q26.0742-29.1992 30.127-25.1465Q34.1797-21.0938 39.502-18.8232Q44.8242-16.5527 50.8789-16.5527Z"/>
  </g>
  <g id="Heavy-S" transform="matrix(1 0 0 1 2589.4 696)">
   <path d="M28.2867-59.9446L35.6919-67.3498L22.3718-80.6325Q20.8615-82.1429 18.6878-82.1615Q16.5142-82.1802 15.0039-80.6325Q13.4935-79.1222 13.4935-76.9672Q13.4935-74.8123 15.0039-73.2646ZM81.7241-16.1106L74.3677-23.6277Q69.7894-18.6017 63.5983-15.7713Q57.4073-12.941 50.003-12.941Q43.0579-12.941 37.1152-15.4241Q31.1724-17.9072 26.7246-22.3607Q22.2769-26.8142 19.788-32.7512Q17.2991-38.6883 17.2991-45.6334Q17.2991-53.0261 20.1108-59.1798Q22.9225-65.3336 27.8997-69.9003L20.3107-77.0845Q14.0816-71.2542 10.4588-63.128Q6.83594-55.0017 6.83594-45.6334Q6.83594-36.5893 10.1603-28.7485Q13.4848-20.9078 19.394-15.0115Q25.3033-9.11508 33.1311-5.79067Q40.9589-2.46627 50.003-2.46627Q59.4575-2.46627 67.6268-6.11928Q75.7961-9.77229 81.7241-16.1106ZM71.2685-31.7359L63.5445-24.6867L78.832-9.43656Q80.3796-7.93775 82.5346-7.93775Q84.6895-7.93775 86.1999-9.43656Q87.7475-10.9469 87.7475-13.1263Q87.7475-15.3056 86.1999-16.8045ZM44.7715-6.26152L44.7715 7.2751L55.2346 7.2751L55.2346-6.26152ZM35.1857 11.9681L64.8204 11.9681Q66.994 11.9681 68.523 10.4204Q70.052 8.87278 70.052 6.73647Q70.052 4.57438 68.523 3.03963Q66.994 1.50488 64.8204 1.50488L35.1857 1.50488Q33.0609 1.50488 31.5075 3.03963Q29.9541 4.57438 29.9541 6.73647Q29.9541 8.87278 31.5075 10.4204Q33.0609 11.9681 35.1857 11.9681ZM50.003-16.5758Q56.0374-16.5758 61.2892-18.829Q66.5409-21.0822 70.5476-25.0889Q74.5542-29.0955 76.8074-34.3659Q79.0606-39.6363 79.0606-45.6334Q79.0606-51.6793 76.8074-56.9253Q74.5542-62.1713 70.5476-66.1836Q66.5409-70.196 61.2892-72.4435Q56.0374-74.691 50.003-74.691Q44.006-74.691 38.7356-72.4435Q33.4652-70.196 29.4585-66.1836Q25.4519-62.1713 23.1987-56.9253Q20.9455-51.6793 20.9455-45.6334Q20.9455-39.6363 23.1987-34.3659Q25.4519-29.0955 29.4585-25.0889Q33.4652-21.0822 38.7356-18.829Q44.006-16.5758 50.003-16.5758Z"/>
  </g>
  <g id="Bold-S" transform="matrix(1 0 0 1 2293.64 696)">
   <path d="M27.5391-60.2539L34.1064-66.8213L21.2891-79.6143Q19.9463-80.957 18.0176-80.9692Q16.0889-80.9814 14.7461-79.6143Q13.4033-78.2715 13.4033-76.355Q13.4033-74.4385 14.7461-73.0713ZM79.6875-16.1621L73.1689-22.8027Q68.6035-17.9443 62.4512-15.1978Q56.2988-12.4512 49.0234-12.4512Q42.0654-12.4512 36.084-14.9536Q30.1025-17.4561 25.6226-21.9482Q21.1426-26.4404 18.6279-32.4097Q16.1133-38.3789 16.1133-45.3369Q16.1133-52.5879 18.8477-58.7158Q21.582-64.8438 26.3916-69.3848L19.6533-75.7568Q13.7207-70.0684 10.2783-62.2192Q6.83594-54.3701 6.83594-45.3369Q6.83594-36.499 10.083-28.8452Q13.3301-21.1914 19.104-15.4175Q24.8779-9.64355 32.5317-6.39648Q40.1855-3.14941 49.0234-3.14941Q58.1299-3.14941 66.0156-6.62842Q73.9014-10.1074 79.6875-16.1621ZM70.0439-30.8594L63.1836-24.6094L77.9297-9.8877Q79.2969-8.56934 81.2134-8.56934Q83.1299-8.56934 84.4727-9.8877Q85.8398-11.2305 85.8398-13.1714Q85.8398-15.1123 84.4727-16.4307ZM44.3848-6.27441L44.3848 6.12793L53.6621 6.12793L53.6621-6.27441ZM34.3994 10.7178L63.6475 10.7178Q65.5762 10.7178 66.9312 9.35059Q68.2861 7.9834 68.2861 6.0791Q68.2861 4.1748 66.9312 2.80762Q65.5762 1.44043 63.6475 1.44043L34.3994 1.44043Q32.5195 1.44043 31.1401 2.80762Q29.7607 4.1748 29.7607 6.0791Q29.7607 7.9834 31.1401 9.35059Q32.5195 10.7178 34.3994 10.7178ZM49.0234-16.6016Q54.9805-16.6016 60.1807-18.8354Q65.3809-21.0693 69.3359-25.0244Q73.291-28.9795 75.5249-34.1919Q77.7588-39.4043 77.7588-45.3369Q77.7588-51.3184 75.5249-56.5063Q73.291-61.6943 69.3359-65.6616Q65.3809-69.6289 60.1807-71.8506Q54.9805-74.0723 49.0234-74.0723Q43.0908-74.0723 37.8784-71.8506Q32.666-69.6289 28.7109-65.6616Q24.7559-61.6943 22.522-56.5063Q20.2881-51.3184 20.2881-45.3369Q20.2881-39.4043 22.522-34.1919Q24.7559-28.9795 28.7109-25.0244Q32.666-21.0693 37.8784-18.8354Q43.0908-16.6016 49.0234-16.6016Z"/>
  </g>
  <g id="Semibold-S" transform="matrix(1 0 0 1 1997.59 696)">
   <path d="M27.0236-60.4672L33.0134-66.4569L20.5426-78.9122Q19.3153-80.1395 17.5555-80.1472Q15.7956-80.155 14.5684-78.9122Q13.3411-77.685 13.3411-75.9329Q13.3411-74.1808 14.5684-72.938ZM78.2834-16.1977L72.3425-22.234Q67.7859-17.4911 61.6603-14.8023Q55.5346-12.1135 48.348-12.1135Q41.3812-12.1135 35.373-14.6292Q29.3649-17.145 24.8627-21.6639Q20.3605-26.1827 17.8281-32.1742Q15.2957-38.1656 15.2957-45.1325Q15.2957-52.2857 17.9768-58.3959Q20.6578-64.5061 25.3519-69.0293L19.2001-74.8415Q13.4719-69.2508 10.1539-61.5927Q6.83594-53.9347 6.83594-45.1325Q6.83594-36.4368 10.0297-28.9119Q13.2234-21.3869 18.9041-15.6974Q24.5847-10.0079 32.1185-6.81416Q39.6523-3.62041 48.348-3.62041Q57.2146-3.62041 64.9048-6.97944Q72.595-10.3385 78.2834-16.1977ZM69.1997-30.2551L62.9348-24.5561L77.3076-10.1987Q78.5504-9.00479 80.3025-9.00479Q82.0546-9.00479 83.2818-10.1987Q84.5246-11.426 84.5246-13.2025Q84.5246-14.979 83.2818-16.1729ZM44.1182-6.2833L44.1182 5.33701L52.5779 5.33701L52.5779-6.2833ZM33.8573 9.85576L62.8388 9.85576Q64.5986 9.85576 65.8336 8.61299Q67.0687 7.37021 67.0687 5.62588Q67.0687 3.89932 65.8336 2.64766Q64.5986 1.396 62.8388 1.396L33.8573 1.396Q32.1463 1.396 30.8869 2.64766Q29.6274 3.89932 29.6274 5.62588Q29.6274 7.37021 30.8869 8.61299Q32.1463 9.85576 33.8573 9.85576ZM48.348-16.6193Q54.2518-16.6193 59.4164-18.8399Q64.5811-21.0604 68.5006-24.98Q72.4201-28.8995 74.6407-34.0719Q76.8612-39.2443 76.8612-45.1325Q76.8612-51.0695 74.6407-56.2175Q72.4201-61.3655 68.5006-65.3017Q64.5811-69.2379 59.4164-71.4418Q54.2518-73.6457 48.348-73.6457Q42.4599-73.6457 37.2875-71.4418Q32.115-69.2379 28.1955-65.3017Q24.276-61.3655 22.0554-56.2175Q19.8349-51.0695 19.8349-45.1325Q19.8349-39.2443 22.0554-34.0719Q24.276-28.8995 28.1955-24.98Q32.115-21.0604 37.2875-18.8399Q42.4599-16.6193 48.348-16.6193Z"/>
  </g>
  <g id="Medium-S" transform="matrix(1 0 0 1 1701.37 696)">
   <path d="M26.6328-60.6289L32.1846-66.1807L19.9766-78.3799Q18.8369-79.5195 17.2051-79.5239Q15.5732-79.5283 14.4336-78.3799Q13.2939-77.2402 13.2939-75.6128Q13.2939-73.9854 14.4336-72.8369ZM77.2188-16.2246L71.7158-21.8027Q67.166-17.1475 61.0605-14.5024Q54.9551-11.8574 47.8359-11.8574Q40.8623-11.8574 34.834-14.3833Q28.8057-16.9092 24.2866-21.4482Q19.7676-25.9873 17.2217-31.9956Q14.6758-38.0039 14.6758-44.9775Q14.6758-52.0566 17.3164-58.1533Q19.957-64.25 24.5635-68.7598L18.8564-74.1475Q13.2832-68.6309 10.0596-61.1177Q6.83594-53.6045 6.83594-44.9775Q6.83594-36.3896 9.98926-28.9624Q13.1426-21.5352 18.7524-15.9097Q24.3623-10.2842 31.8052-7.13086Q39.248-3.97754 47.8359-3.97754Q56.5205-3.97754 64.0625-7.24561Q71.6045-10.5137 77.2188-16.2246ZM68.5596-29.7969L62.7461-24.5156L76.8359-10.4346Q77.9844-9.33496 79.6118-9.33496Q81.2393-9.33496 82.3789-10.4346Q83.5273-11.5742 83.5273-13.2261Q83.5273-14.8779 82.3789-15.9775ZM43.916-6.29004L43.916 4.7373L51.7559 4.7373L51.7559-6.29004ZM33.4463 9.20215L62.2256 9.20215Q63.8574 9.20215 65.0015 8.05371Q66.1455 6.90527 66.1455 5.28223Q66.1455 3.69043 65.0015 2.52637Q63.8574 1.3623 62.2256 1.3623L33.4463 1.3623Q31.8633 1.3623 30.6948 2.52637Q29.5264 3.69043 29.5264 5.28223Q29.5264 6.90527 30.6948 8.05371Q31.8633 9.20215 33.4463 9.20215ZM47.8359-16.6328Q53.6992-16.6328 58.8369-18.8433Q63.9746-21.0537 67.8672-24.9463Q71.7598-28.8389 73.9702-33.981Q76.1807-39.123 76.1807-44.9775Q76.1807-50.8809 73.9702-55.9985Q71.7598-61.1162 67.8672-65.0288Q63.9746-68.9414 58.8369-71.1318Q53.6992-73.3223 47.8359-73.3223Q41.9814-73.3223 36.8394-71.1318Q31.6973-68.9414 27.8047-65.0288Q23.9121-61.1162 21.7017-55.9985Q19.4912-50.8809 19.4912-44.9775Q19.4912-39.123 21.7017-33.981Q23.9121-28.8389 27.8047-24.9463Q31.6973-21.0537 36.8394-18.8433Q41.9814-16.6328 47.8359-16.6328Z"/>
  </g>
  <g id="Regular-S" transform="matrix(1 0 0 1 1405.31 696)">
   <path d="M26.123-60.8398L31.1035-65.8203L19.2383-77.6855Q18.2129-78.7109 16.748-78.7109Q15.2832-78.7109 14.2578-77.6855Q13.2324-76.6602 13.2324-75.1953Q13.2324-73.7305 14.2578-72.7051ZM75.8301-16.2598L70.8984-21.2402Q66.3574-16.6992 60.2783-14.1113Q54.1992-11.5234 47.168-11.5234Q40.1855-11.5234 34.1309-14.0625Q28.0762-16.6016 23.5352-21.167Q18.9941-25.7324 16.4307-31.7627Q13.8672-37.793 13.8672-44.7754Q13.8672-51.7578 16.4551-57.8369Q19.043-63.916 23.5352-68.4082L18.4082-73.2422Q13.0371-67.8223 9.93652-60.498Q6.83594-53.1738 6.83594-44.7754Q6.83594-36.3281 9.93652-29.0283Q13.0371-21.7285 18.5547-16.1865Q24.0723-10.6445 31.3965-7.54395Q38.7207-4.44336 47.168-4.44336Q55.6152-4.44336 62.9639-7.59277Q70.3125-10.7422 75.8301-16.2598ZM67.7246-29.1992L62.5-24.4629L76.2207-10.7422Q77.2461-9.76562 78.7109-9.76562Q80.1758-9.76562 81.2012-10.7422Q82.2266-11.7676 82.2266-13.2568Q82.2266-14.7461 81.2012-15.7227ZM43.6523-6.29883L43.6523 3.95508L50.6836 3.95508L50.6836-6.29883ZM32.9102 8.34961L61.4258 8.34961Q62.8906 8.34961 63.916 7.32422Q64.9414 6.29883 64.9414 4.83398Q64.9414 3.41797 63.916 2.36816Q62.8906 1.31836 61.4258 1.31836L32.9102 1.31836Q31.4941 1.31836 30.4443 2.36816Q29.3945 3.41797 29.3945 4.83398Q29.3945 6.29883 30.4443 7.32422Q31.4941 8.34961 32.9102 8.34961ZM47.168-16.6504Q52.9785-16.6504 58.0811-18.8477Q63.1836-21.0449 67.041-24.9023Q70.8984-28.7598 73.0957-33.8623Q75.293-38.9648 75.293-44.7754Q75.293-50.6348 73.0957-55.7129Q70.8984-60.791 67.041-64.6729Q63.1836-68.5547 58.0811-70.7275Q52.9785-72.9004 47.168-72.9004Q41.3574-72.9004 36.2549-70.7275Q31.1523-68.5547 27.2949-64.6729Q23.4375-60.791 21.2402-55.7129Q19.043-50.6348 19.043-44.7754Q19.043-38.9648 21.2402-33.8623Q23.4375-28.7598 27.2949-24.9023Q31.1523-21.0449 36.2549-18.8477Q41.3574-16.6504 47.168-16.6504Z"/>
  </g>
  <g id="Light-S" transform="matrix(1 0 0 1 1109.46 696)">
   <path d="M25.6538-61.0972L29.4991-64.9574L17.4825-76.959Q16.6992-77.7573 15.5749-77.7573Q14.4506-77.7573 13.6523-76.959Q12.854-76.1607 12.854-75.0289Q12.854-73.897 13.6523-73.1138ZM74.3014-16.4111L70.52-20.226Q65.9032-15.5792 59.6879-12.9383Q53.4726-10.2974 46.3051-10.2974Q39.1713-10.2974 32.9805-12.897Q26.7896-15.4966 22.1427-20.1604Q17.4957-24.8243 14.8792-30.9984Q12.2627-37.1724 12.2627-44.3062Q12.2627-51.4552 14.9111-57.6705Q17.5596-63.8858 22.1425-68.4687L18.2416-72.1675Q12.9463-66.8536 9.89113-59.6883Q6.83594-52.523 6.83594-44.3062Q6.83594-36.0708 9.8835-28.9299Q12.9311-21.789 18.3352-16.3606Q23.7394-10.9322 30.9046-7.8921Q38.0699-4.85204 46.3051-4.85204Q54.5405-4.85204 61.7302-7.9333Q68.9199-11.0146 74.3014-16.4111ZM66.6196-27.8219L62.5908-24.1753L75.8878-10.8785Q76.6708-10.1288 77.7952-10.1288Q78.9195-10.1288 79.7178-10.8785Q80.5161-11.6768 80.5161-12.8255Q80.5161-13.9743 79.7178-14.7387ZM43.5918-6.26856L43.5918 3.86429L49.0186 3.86429L49.0186-6.26856ZM32.9859 7.38093L59.7455 7.38093Q60.8622 7.38093 61.653 6.59014Q62.4438 5.79936 62.4438 4.66741Q62.4438 3.56929 61.653 2.76171Q60.8622 1.95414 59.7455 1.95414L32.9859 1.95414Q31.8878 1.95414 31.0801 2.76171Q30.2724 3.56929 30.2724 4.66741Q30.2724 5.79936 31.0801 6.59014Q31.8878 7.38093 32.9859 7.38093ZM46.3051-16.2265Q52.1156-16.2265 57.203-18.4162Q62.2904-20.606 66.1479-24.4634Q70.0053-28.3208 72.1951-33.4082Q74.3848-38.4956 74.3848-44.3062Q74.3848-50.1503 72.1951-55.2284Q70.0053-60.3065 66.1479-64.1733Q62.2904-68.04 57.203-70.2128Q52.1156-72.3857 46.3051-72.3857Q40.4945-72.3857 35.3996-70.2128Q30.3047-68.04 26.4548-64.1733Q22.6049-60.3065 20.4152-55.2284Q18.2256-50.1503 18.2256-44.3062Q18.2256-38.4956 20.4152-33.4082Q22.6049-28.3208 26.4548-24.4634Q30.3047-20.606 35.3996-18.4162Q40.4945-16.2265 46.3051-16.2265Z"/>
  </g>
  <g id="Thin-S" transform="matrix(1 0 0 1 813.877 696)">
   <path d="M25.0333-61.4376L27.377-63.8162L15.1603-75.998Q14.6973-76.496 14.0233-76.496Q13.3494-76.496 12.8514-75.998Q12.3535-75.5001 12.3535-74.8087Q12.3535-74.1174 12.8514-73.6543ZM72.2796-16.6112L70.0195-18.8847Q65.3025-14.0979 58.9071-11.3869Q52.5117-8.67585 45.1638-8.67585Q37.83-8.67585 31.459-11.3555Q25.088-14.0351 20.301-18.8291Q15.514-23.6232 12.8273-29.9875Q10.1407-36.3518 10.1407-43.6856Q10.1407-51.0549 12.8692-57.4503Q15.5976-63.8457 20.3007-68.5488L18.0213-70.746Q12.8262-65.5724 9.83109-58.6174Q6.83594-51.6623 6.83594-43.6856Q6.83594-35.7304 9.81337-28.7997Q12.7908-21.8691 18.0449-16.5908Q23.2991-11.3126 30.2541-8.35256Q37.2092-5.39255 45.1638-5.39255Q53.1191-5.39255 60.0986-8.38367Q67.078-11.3748 72.2796-16.6112ZM65.1582-26.0002L62.7109-23.7949L75.4475-11.0588Q75.91-10.6091 76.584-10.6091Q77.2579-10.6091 77.7558-11.0588Q78.2538-11.5567 78.2538-12.2551Q78.2538-12.9534 77.7558-13.4374ZM43.5118-6.22854L43.5118 3.74421L46.8165 3.74421L46.8165-6.22854ZM33.0862 6.09977L57.5233 6.09977Q58.1795 6.09977 58.66 5.61927Q59.1405 5.13877 59.1405 4.4471Q59.1405 3.76941 58.66 3.28221Q58.1795 2.79502 57.5233 2.79502L33.0862 2.79502Q32.4085 2.79502 31.921 3.28221Q31.4335 3.76941 31.4335 4.4471Q31.4335 5.13877 31.921 5.61927Q32.4085 6.09977 33.0862 6.09977ZM45.1638-15.6658Q50.9744-15.6658 56.0418-17.8456Q61.1092-20.0254 64.9666-23.8829Q68.824-27.7403 71.0039-32.8077Q73.1837-37.8751 73.1837-43.6856Q73.1837-49.5096 71.0039-54.5877Q68.824-59.6658 64.9666-63.5125Q61.1092-67.3592 56.0418-69.532Q50.9744-71.7049 45.1638-71.7049Q39.3533-71.7049 34.2685-69.532Q29.1837-67.3592 25.3437-63.5125Q21.5037-59.6658 19.3241-54.5877Q17.1446-49.5096 17.1446-43.6856Q17.1446-37.8751 19.3241-32.8077Q21.5037-27.7403 25.3437-23.8829Q29.1837-20.0254 34.2685-17.8456Q39.3533-15.6658 45.1638-15.6658Z"/>
  </g>
  <g id="Ultralight-S" transform="matrix(1 0 0 1 517.746 696)">
   <path d="M24.7154-61.6119L26.2901-63.2317L13.9709-75.5058Q13.6719-75.8499 13.2286-75.8499Q12.7853-75.8499 12.4413-75.5058Q12.0972-75.1617 12.0972-74.696Q12.0972-74.2302 12.4413-73.9311ZM71.244-16.7137L69.7632-18.1976Q64.9948-13.3392 58.5072-10.5923Q52.0195-7.84531 44.5793-7.84531Q37.1429-7.84531 30.6797-10.5659Q24.2165-13.2866 19.3577-18.1473Q14.4989-23.008 11.7764-29.4697Q9.0538-35.9314 9.0538-43.3678Q9.0538-50.8499 11.8233-57.3376Q14.5927-63.8252 19.3573-68.5898L17.9085-70.018Q12.7647-64.9162 9.80034-58.0688Q6.83594-51.2215 6.83594-43.3678Q6.83594-35.556 9.77745-28.7331Q12.719-21.9101 17.8963-16.7088Q23.0736-11.5074 29.921-8.58841Q36.7683-5.6694 44.5793-5.6694Q52.3911-5.6694 59.2628-8.61435Q66.1346-11.5593 71.244-16.7137ZM64.4096-25.0671L62.7724-23.6L75.222-11.1511Q75.5203-10.8551 75.9636-10.8551Q76.4069-10.8551 76.7509-11.1511Q77.095-11.4952 77.095-11.9629Q77.095-12.4306 76.7509-12.7708ZM43.4708-6.20804L43.4708 3.68271L45.6886 3.68271L45.6886-6.20804ZM33.1375 5.44357L56.385 5.44357Q56.8054 5.44357 57.127 5.12199Q57.4486 4.80042 57.4486 4.33426Q57.4486 3.87192 57.127 3.54881Q56.8054 3.22571 56.385 3.22571L33.1375 3.22571Q32.6752 3.22571 32.3517 3.54881Q32.0282 3.87192 32.0282 4.33426Q32.0282 4.80042 32.3517 5.12199Q32.6752 5.44357 33.1375 5.44357ZM44.5793-15.3786Q50.3899-15.3786 55.447-17.5533Q60.5042-19.7281 64.3616-23.5855Q68.219-27.4429 70.3938-32.5001Q72.5685-37.5572 72.5685-43.3678Q72.5685-49.1814 70.3938-54.2595Q68.219-59.3376 64.3616-63.1741Q60.5042-67.0105 55.447-69.1833Q50.3899-71.3562 44.5793-71.3562Q38.7688-71.3562 33.6891-69.1833Q28.6095-67.0105 24.7746-63.1741Q20.9396-59.3376 18.7653-54.2595Q16.5909-49.1814 16.5909-43.3678Q16.5909-37.5572 18.7653-32.5001Q20.9396-27.4429 24.7746-23.5855Q28.6095-19.7281 33.6891-17.5533Q38.7688-15.3786 44.5793-15.3786Z"/>
  </g>
 </g>
</svg>
