<?xml version="1.0" encoding="UTF-8"?>
<!--Generator: Apple Native CoreSVG 175.5-->
<!DOCTYPE svg
PUBLIC "-//W3C//DTD SVG 1.1//EN"
       "http://www.w3.org/Graphics/SVG/1.1/DTD/svg11.dtd">
<svg version="1.1" xmlns="http://www.w3.org/2000/svg" xmlns:xlink="http://www.w3.org/1999/xlink" width="3300" height="2200">
 <!--glyph: "uni10143D.medium", point size: 100.0, font version: "18.0d9e1", template writer version: "84"-->
 <g id="Notes">
  <rect height="2200" id="artboard" style="fill:white;opacity:1" width="3300" x="0" y="0"/>
  <line style="fill:none;stroke:black;opacity:1;stroke-width:0.5;" x1="263" x2="3036" y1="292" y2="292"/>
  <text style="stroke:none;fill:black;font-family:sans-serif;font-size:13;font-weight:bold;" transform="matrix(1 0 0 1 263 322)">Weight/Scale Variations</text>
  <text style="stroke:none;fill:black;font-family:sans-serif;font-size:13;text-anchor:middle;" transform="matrix(1 0 0 1 559.711 322)">Ultralight</text>
  <text style="stroke:none;fill:black;font-family:sans-serif;font-size:13;text-anchor:middle;" transform="matrix(1 0 0 1 856.422 322)">Thin</text>
  <text style="stroke:none;fill:black;font-family:sans-serif;font-size:13;text-anchor:middle;" transform="matrix(1 0 0 1 1153.13 322)">Light</text>
  <text style="stroke:none;fill:black;font-family:sans-serif;font-size:13;text-anchor:middle;" transform="matrix(1 0 0 1 1449.84 322)">Regular</text>
  <text style="stroke:none;fill:black;font-family:sans-serif;font-size:13;text-anchor:middle;" transform="matrix(1 0 0 1 1746.56 322)">Medium</text>
  <text style="stroke:none;fill:black;font-family:sans-serif;font-size:13;text-anchor:middle;" transform="matrix(1 0 0 1 2043.27 322)">Semibold</text>
  <text style="stroke:none;fill:black;font-family:sans-serif;font-size:13;text-anchor:middle;" transform="matrix(1 0 0 1 2339.98 322)">Bold</text>
  <text style="stroke:none;fill:black;font-family:sans-serif;font-size:13;text-anchor:middle;" transform="matrix(1 0 0 1 2636.69 322)">Heavy</text>
  <text style="stroke:none;fill:black;font-family:sans-serif;font-size:13;text-anchor:middle;" transform="matrix(1 0 0 1 2933.4 322)">Black</text>
  <line style="fill:none;stroke:black;opacity:1;stroke-width:0.5;" x1="263" x2="3036" y1="1903" y2="1903"/>
  <g transform="matrix(1 0 0 1 263 1933)">
   <path d="M9.24805 0.830078Q10.8691 0.830078 12.2949 0.214844Q13.7207-0.400391 14.8096-1.49414Q15.8984-2.58789 16.5186-4.01367Q17.1387-5.43945 17.1387-7.05078Q17.1387-8.66211 16.5186-10.0879Q15.8984-11.5137 14.8047-12.6074Q13.7109-13.7012 12.2852-14.3164Q10.8594-14.9316 9.23828-14.9316Q7.62695-14.9316 6.20117-14.3164Q4.77539-13.7012 3.69141-12.6074Q2.60742-11.5137 1.9873-10.0879Q1.36719-8.66211 1.36719-7.05078Q1.36719-5.43945 1.9873-4.01367Q2.60742-2.58789 3.69629-1.49414Q4.78516-0.400391 6.21094 0.214844Q7.63672 0.830078 9.24805 0.830078ZM9.24805-0.654297Q7.91992-0.654297 6.7627-1.14746Q5.60547-1.64062 4.73145-2.51953Q3.85742-3.39844 3.36426-4.56055Q2.87109-5.72266 2.87109-7.05078Q2.87109-8.37891 3.35938-9.54102Q3.84766-10.7031 4.72168-11.582Q5.5957-12.4609 6.75293-12.9541Q7.91016-13.4473 9.23828-13.4473Q10.5762-13.4473 11.7383-12.9541Q12.9004-12.4609 13.7793-11.582Q14.6582-10.7031 15.1514-9.54102Q15.6445-8.37891 15.6445-7.05078Q15.6445-5.72266 15.1514-4.56055Q14.6582-3.39844 13.7793-2.51953Q12.9004-1.64062 11.7432-1.14746Q10.5859-0.654297 9.24805-0.654297ZM5.6543-7.05078Q5.6543-6.72852 5.85938-6.52832Q6.06445-6.32812 6.40625-6.32812L8.51562-6.32812L8.51562-4.20898Q8.51562-3.88672 8.71094-3.67676Q8.90625-3.4668 9.23828-3.4668Q9.56055-3.4668 9.77051-3.67676Q9.98047-3.88672 9.98047-4.20898L9.98047-6.32812L12.0898-6.32812Q12.4219-6.32812 12.627-6.52832Q12.832-6.72852 12.832-7.05078Q12.832-7.38281 12.627-7.58789Q12.4219-7.79297 12.0898-7.79297L9.98047-7.79297L9.98047-9.90234Q9.98047-10.2344 9.77051-10.4443Q9.56055-10.6543 9.23828-10.6543Q8.90625-10.6543 8.71094-10.4443Q8.51562-10.2344 8.51562-9.90234L8.51562-7.79297L6.40625-7.79297Q6.06445-7.79297 5.85938-7.58789Q5.6543-7.38281 5.6543-7.05078Z"/>
  </g>
  <g transform="matrix(1 0 0 1 281.867 1933)">
   <path d="M11.709 2.91016Q13.75 2.91016 15.5518 2.12891Q17.3535 1.34766 18.7305-0.0292969Q20.1074-1.40625 20.8887-3.20801Q21.6699-5.00977 21.6699-7.05078Q21.6699-9.0918 20.8887-10.8936Q20.1074-12.6953 18.7305-14.0723Q17.3535-15.4492 15.5469-16.2305Q13.7402-17.0117 11.6992-17.0117Q9.6582-17.0117 7.85645-16.2305Q6.05469-15.4492 4.68262-14.0723Q3.31055-12.6953 2.5293-10.8936Q1.74805-9.0918 1.74805-7.05078Q1.74805-5.00977 2.5293-3.20801Q3.31055-1.40625 4.6875-0.0292969Q6.06445 1.34766 7.86621 2.12891Q9.66797 2.91016 11.709 2.91016ZM11.709 1.25Q9.98047 1.25 8.47656 0.605469Q6.97266-0.0390625 5.83496-1.17676Q4.69727-2.31445 4.05762-3.81836Q3.41797-5.32227 3.41797-7.05078Q3.41797-8.7793 4.05762-10.2832Q4.69727-11.7871 5.83008-12.9297Q6.96289-14.0723 8.4668-14.7119Q9.9707-15.3516 11.6992-15.3516Q13.4277-15.3516 14.9365-14.7119Q16.4453-14.0723 17.583-12.9297Q18.7207-11.7871 19.3652-10.2832Q20.0098-8.7793 20.0098-7.05078Q20.0098-5.32227 19.3701-3.81836Q18.7305-2.31445 17.5879-1.17676Q16.4453-0.0390625 14.9414 0.605469Q13.4375 1.25 11.709 1.25ZM7.17773-7.05078Q7.17773-6.69922 7.41211-6.47461Q7.64648-6.25 8.01758-6.25L10.8887-6.25L10.8887-3.36914Q10.8887-2.99805 11.1133-2.76855Q11.3379-2.53906 11.6895-2.53906Q12.0605-2.53906 12.29-2.76855Q12.5195-2.99805 12.5195-3.36914L12.5195-6.25L15.4004-6.25Q15.7715-6.25 16.001-6.47461Q16.2305-6.69922 16.2305-7.05078Q16.2305-7.42188 16.001-7.65137Q15.7715-7.88086 15.4004-7.88086L12.5195-7.88086L12.5195-10.752Q12.5195-11.1328 12.29-11.3623Q12.0605-11.5918 11.6895-11.5918Q11.3379-11.5918 11.1133-11.3574Q10.8887-11.123 10.8887-10.752L10.8887-7.88086L8.01758-7.88086Q7.63672-7.88086 7.40723-7.65137Q7.17773-7.42188 7.17773-7.05078Z"/>
  </g>
  <g transform="matrix(1 0 0 1 305.646 1933)">
   <path d="M14.9707 5.66406Q17.0605 5.66406 18.96 5.01465Q20.8594 4.36523 22.4512 3.19336Q24.043 2.02148 25.2197 0.429688Q26.3965-1.16211 27.0459-3.06641Q27.6953-4.9707 27.6953-7.05078Q27.6953-9.14062 27.0459-11.04Q26.3965-12.9395 25.2197-14.5312Q24.043-16.123 22.4512-17.2998Q20.8594-18.4766 18.9551-19.126Q17.0508-19.7754 14.9609-19.7754Q12.8711-19.7754 10.9717-19.126Q9.07227-18.4766 7.48535-17.2998Q5.89844-16.123 4.72168-14.5312Q3.54492-12.9395 2.90039-11.04Q2.25586-9.14062 2.25586-7.05078Q2.25586-4.9707 2.90527-3.06641Q3.55469-1.16211 4.72656 0.429688Q5.89844 2.02148 7.49023 3.19336Q9.08203 4.36523 10.9814 5.01465Q12.8809 5.66406 14.9707 5.66406ZM14.9707 3.84766Q13.1641 3.84766 11.5283 3.2959Q9.89258 2.74414 8.53516 1.74805Q7.17773 0.751953 6.17676-0.610352Q5.17578-1.97266 4.62891-3.6084Q4.08203-5.24414 4.08203-7.05078Q4.08203-8.86719 4.62891-10.5029Q5.17578-12.1387 6.17188-13.501Q7.16797-14.8633 8.52539-15.8594Q9.88281-16.8555 11.5186-17.4023Q13.1543-17.9492 14.9609-17.9492Q16.7773-17.9492 18.4131-17.4023Q20.0488-16.8555 21.4111-15.8594Q22.7734-14.8633 23.7744-13.501Q24.7754-12.1387 25.3223-10.5029Q25.8691-8.86719 25.8691-7.05078Q25.8691-5.24414 25.3223-3.6084Q24.7754-1.97266 23.7793-0.610352Q22.7832 0.751953 21.4209 1.74805Q20.0586 2.74414 18.4229 3.2959Q16.7871 3.84766 14.9707 3.84766ZM9.19922-7.05078Q9.19922-6.66992 9.45801-6.4209Q9.7168-6.17188 10.1172-6.17188L14.0625-6.17188L14.0625-2.2168Q14.0625-1.81641 14.3115-1.55762Q14.5605-1.29883 14.9512-1.29883Q15.3516-1.29883 15.6104-1.55273Q15.8691-1.80664 15.8691-2.2168L15.8691-6.17188L19.8242-6.17188Q20.2246-6.17188 20.4785-6.4209Q20.7324-6.66992 20.7324-7.05078Q20.7324-7.46094 20.4785-7.71484Q20.2246-7.96875 19.8242-7.96875L15.8691-7.96875L15.8691-11.9141Q15.8691-12.3242 15.6104-12.583Q15.3516-12.8418 14.9512-12.8418Q14.5605-12.8418 14.3115-12.583Q14.0625-12.3242 14.0625-11.9141L14.0625-7.96875L10.1172-7.96875Q9.70703-7.96875 9.45312-7.71484Q9.19922-7.46094 9.19922-7.05078Z"/>
  </g>
  <text style="stroke:none;fill:black;font-family:sans-serif;font-size:13;font-weight:bold;" transform="matrix(1 0 0 1 263 1953)">Design Variations</text>
  <text style="stroke:none;fill:black;font-family:sans-serif;font-size:13;" transform="matrix(1 0 0 1 263 1971)">Symbols are supported in up to nine weights and three scales.</text>
  <text style="stroke:none;fill:black;font-family:sans-serif;font-size:13;" transform="matrix(1 0 0 1 263 1989)">For optimal layout with text and other symbols, vertically align</text>
  <text style="stroke:none;fill:black;font-family:sans-serif;font-size:13;" transform="matrix(1 0 0 1 263 2007)">symbols with the adjacent text.</text>
  <line style="fill:none;stroke:#00AEEF;stroke-width:0.5;opacity:1.0;" x1="776" x2="776" y1="1919" y2="1933"/>
  <g transform="matrix(1 0 0 1 776 1933)">
   <path d="M3.31055 0.15625Q3.70117 0.15625 3.91602-0.00976562Q4.13086-0.175781 4.26758-0.585938L5.52734-4.0332L11.2891-4.0332L12.5488-0.585938Q12.6855-0.175781 12.9004-0.00976562Q13.1152 0.15625 13.4961 0.15625Q13.8867 0.15625 14.1162-0.0585938Q14.3457-0.273438 14.3457-0.644531Q14.3457-0.869141 14.2383-1.17188L9.6582-13.3691Q9.48242-13.8184 9.17969-14.043Q8.87695-14.2676 8.4082-14.2676Q7.5-14.2676 7.17773-13.3789L2.59766-1.16211Q2.49023-0.859375 2.49023-0.634766Q2.49023-0.263672 2.70996-0.0537109Q2.92969 0.15625 3.31055 0.15625ZM6.00586-5.51758L8.37891-12.0898L8.42773-12.0898L10.8008-5.51758Z"/>
  </g>
  <line style="fill:none;stroke:#00AEEF;stroke-width:0.5;opacity:1.0;" x1="793.197" x2="793.197" y1="1919" y2="1933"/>
  <text style="stroke:none;fill:black;font-family:sans-serif;font-size:13;font-weight:bold;" transform="matrix(1 0 0 1 776 1953)">Margins</text>
  <text style="stroke:none;fill:black;font-family:sans-serif;font-size:13;" transform="matrix(1 0 0 1 776 1971)">Leading and trailing margins on the left and right side of each symbol</text>
  <text style="stroke:none;fill:black;font-family:sans-serif;font-size:13;" transform="matrix(1 0 0 1 776 1989)">can be adjusted by modifying the x-location of the margin guidelines.</text>
  <text style="stroke:none;fill:black;font-family:sans-serif;font-size:13;" transform="matrix(1 0 0 1 776 2007)">Modifications are automatically applied proportionally to all</text>
  <text style="stroke:none;fill:black;font-family:sans-serif;font-size:13;" transform="matrix(1 0 0 1 776 2025)">scales and weights.</text>
  <g transform="matrix(1 0 0 1 1289 1933)">
   <path d="M2.8418 1.86523L4.54102 3.57422Q5.18555 4.22852 5.90332 4.17969Q6.62109 4.13086 7.31445 3.35938L18.0078-8.42773L17.041-9.4043L6.42578 2.27539Q6.16211 2.57812 5.89355 2.61719Q5.625 2.65625 5.27344 2.30469L4.10156 1.14258Q3.75 0.791016 3.79395 0.522461Q3.83789 0.253906 4.14062-0.0195312L15.6152-10.8203L14.6387-11.7871L3.04688-0.898438Q2.30469-0.214844 2.25098 0.498047Q2.19727 1.21094 2.8418 1.86523ZM9.25781-16.3281Q8.94531-16.0254 8.90625-15.6348Q8.86719-15.2441 9.04297-14.9512Q9.21875-14.6777 9.55566-14.541Q9.89258-14.4043 10.3809-14.5215Q11.4746-14.7754 12.5977-14.7314Q13.7207-14.6875 14.7949-13.9844L14.209-12.5293Q13.9551-11.9043 14.0674-11.4404Q14.1797-10.9766 14.5801-10.5664L16.875-8.25195Q17.2363-7.88086 17.5781-7.82227Q17.9199-7.76367 18.3398-7.8418L19.4043-8.03711L20.0684-7.36328L20.0293-6.80664Q20-6.43555 20.1221-6.12305Q20.2441-5.81055 20.6055-5.44922L21.3672-4.70703Q21.7285-4.3457 22.1533-4.33105Q22.5781-4.31641 22.9297-4.66797L25.8398-7.58789Q26.1914-7.93945 26.1816-8.35449Q26.1719-8.76953 25.8105-9.13086L25.0391-9.89258Q24.6875-10.2539 24.3799-10.3857Q24.0723-10.5176 23.7109-10.4883L23.1348-10.4395L22.4902-11.0742L22.7344-12.1973Q22.832-12.6172 22.6953-12.9834Q22.5586-13.3496 22.1191-13.7891L19.9219-15.9766Q18.6719-17.2168 17.2607-17.8369Q15.8496-18.457 14.4189-18.4814Q12.9883-18.5059 11.665-17.959Q10.3418-17.4121 9.25781-16.3281ZM10.752-15.957Q11.6602-16.6211 12.7002-16.9043Q13.7402-17.1875 14.8047-17.085Q15.8691-16.9824 16.8701-16.5137Q17.8711-16.0449 18.7012-15.2051L21.1328-12.793Q21.3086-12.6172 21.3525-12.4512Q21.3965-12.2852 21.3379-12.0312L21.0156-10.5469L22.5195-9.0625L23.5059-9.12109Q23.6914-9.13086 23.7891-9.09668Q23.8867-9.0625 24.0332-8.91602L24.6094-8.33984L22.168-5.89844L21.5918-6.47461Q21.4453-6.62109 21.4062-6.71875Q21.3672-6.81641 21.377-7.01172L21.4453-7.98828L19.9512-9.47266L18.4277-9.21875Q18.1836-9.16992 18.042-9.2041Q17.9004-9.23828 17.7148-9.41406L15.7129-11.416Q15.5176-11.5918 15.4932-11.7529Q15.4688-11.9141 15.5859-12.1875L16.4648-14.2773Q15.293-15.3711 13.8281-15.791Q12.3633-16.2109 10.8398-15.7617Q10.7227-15.7324 10.6885-15.8057Q10.6543-15.8789 10.752-15.957Z"/>
  </g>
  <text style="stroke:none;fill:black;font-family:sans-serif;font-size:13;font-weight:bold;" transform="matrix(1 0 0 1 1289 1953)">Exporting</text>
  <text style="stroke:none;fill:black;font-family:sans-serif;font-size:13;" transform="matrix(1 0 0 1 1289 1971)">Symbols should be outlined when exporting to ensure the</text>
  <text style="stroke:none;fill:black;font-family:sans-serif;font-size:13;" transform="matrix(1 0 0 1 1289 1989)">design is preserved when submitting to Xcode.</text>
  <text id="template-version" style="stroke:none;fill:black;font-family:sans-serif;font-size:13;text-anchor:end;" transform="matrix(1 0 0 1 3036 1933)">Template v.2.0</text>
  <text style="stroke:none;fill:black;font-family:sans-serif;font-size:13;text-anchor:end;" transform="matrix(1 0 0 1 3036 1951)">Requires Xcode 12 or greater</text>
  <text id="descriptive-name" style="stroke:none;fill:black;font-family:sans-serif;font-size:13;text-anchor:end;" transform="matrix(1 0 0 1 3036 1969)">Generated from bathtub.fill</text>
  <text style="stroke:none;fill:black;font-family:sans-serif;font-size:13;text-anchor:end;" transform="matrix(1 0 0 1 3036 1987)">Typeset at 100 points</text>
  <text style="stroke:none;fill:black;font-family:sans-serif;font-size:13;" transform="matrix(1 0 0 1 263 726)">Small</text>
  <text style="stroke:none;fill:black;font-family:sans-serif;font-size:13;" transform="matrix(1 0 0 1 263 1156)">Medium</text>
  <text style="stroke:none;fill:black;font-family:sans-serif;font-size:13;" transform="matrix(1 0 0 1 263 1586)">Large</text>
 </g>
 <g id="Guides">
  <g id="H-reference" style="fill:#27AAE1;stroke:none;" transform="matrix(1 0 0 1 339 696)">
   <path d="M0.993347 0L3.6377 0L29.3282-67.1326L30.0301-67.1326L30.0301-70.459L28.1227-70.459ZM11.6882-24.4797L46.9818-24.4797L46.2311-26.7288L12.4382-26.7288ZM55.1193 0L57.7637 0L30.6381-70.459L29.4327-70.459L29.4327-67.1326Z"/>
  </g>
  <line id="Baseline-S" style="fill:none;stroke:#27AAE1;opacity:1;stroke-width:0.5;" x1="263" x2="3036" y1="696" y2="696"/>
  <line id="Capline-S" style="fill:none;stroke:#27AAE1;opacity:1;stroke-width:0.5;" x1="263" x2="3036" y1="625.541" y2="625.541"/>
  <g id="H-reference" style="fill:#27AAE1;stroke:none;" transform="matrix(1 0 0 1 339 1126)">
   <path d="M0.993347 0L3.6377 0L29.3282-67.1326L30.0301-67.1326L30.0301-70.459L28.1227-70.459ZM11.6882-24.4797L46.9818-24.4797L46.2311-26.7288L12.4382-26.7288ZM55.1193 0L57.7637 0L30.6381-70.459L29.4327-70.459L29.4327-67.1326Z"/>
  </g>
  <line id="Baseline-M" style="fill:none;stroke:#27AAE1;opacity:1;stroke-width:0.5;" x1="263" x2="3036" y1="1126" y2="1126"/>
  <line id="Capline-M" style="fill:none;stroke:#27AAE1;opacity:1;stroke-width:0.5;" x1="263" x2="3036" y1="1055.54" y2="1055.54"/>
  <g id="H-reference" style="fill:#27AAE1;stroke:none;" transform="matrix(1 0 0 1 339 1556)">
   <path d="M0.993347 0L3.6377 0L29.3282-67.1326L30.0301-67.1326L30.0301-70.459L28.1227-70.459ZM11.6882-24.4797L46.9818-24.4797L46.2311-26.7288L12.4382-26.7288ZM55.1193 0L57.7637 0L30.6381-70.459L29.4327-70.459L29.4327-67.1326Z"/>
  </g>
  <line id="Baseline-L" style="fill:none;stroke:#27AAE1;opacity:1;stroke-width:0.5;" x1="263" x2="3036" y1="1556" y2="1556"/>
  <line id="Capline-L" style="fill:none;stroke:#27AAE1;opacity:1;stroke-width:0.5;" x1="263" x2="3036" y1="1485.54" y2="1485.54"/>
  <line id="left-margin" style="fill:none;stroke:#00AEEF;stroke-width:0.5;opacity:1.0;" x1="1374.85" x2="1374.85" y1="1030.79" y2="1150.12"/>
  <line id="right-margin" style="fill:none;stroke:#00AEEF;stroke-width:0.5;opacity:1.0;" x1="1524.84" x2="1524.84" y1="1030.79" y2="1150.12"/>
 </g>
 <g id="Symbols">
  <g id="Black-L" transform="matrix(1 0 0 1 2827.22 1556)">
   <path d="M16.084-78.9326Q16.084-73.6391 19.5106-70.2125Q22.9371-66.7859 28.2307-66.7859L184.134-66.7859Q189.408-66.7859 192.844-70.2125Q196.281-73.6391 196.281-78.9326Q196.281-84.2274 192.844-87.6539Q189.408-91.0805 184.134-91.0805L28.2307-91.0805Q22.9371-91.0805 19.5106-87.6539Q16.084-84.2274 16.084-78.9326ZM68.7536 3.23528L143.612 3.23528Q163.93 3.23528 174.677-6.94254Q185.424-17.1204 185.424-36.6126L185.424-56.6881L27.0001-56.6881L27.0001-36.6126Q27.0001-17.1204 37.7176-6.94254Q48.4351 3.23528 68.7536 3.23528ZM48.8356 19.3288Q52.5224 20.6503 56.0814 19.0029Q59.6404 17.3555 60.9618 13.7271L67.841-5.23275L50.0743-11.7001L43.2744 7.18052Q41.9541 10.8881 43.5905 14.4483Q45.2268 18.0085 48.8356 19.3288ZM163.53 19.3288Q167.139 18.0669 168.804 14.4775Q170.47 10.8881 169.148 7.23893L162.29-11.7001L144.524-5.23275L151.382 13.7271Q152.724 17.3555 156.313 19.0029Q159.901 20.6503 163.53 19.3288Z"/>
  </g>
  <g id="Heavy-L" transform="matrix(1 0 0 1 2532.9 1556)">
   <path d="M16.084-78.3202Q16.084-73.4971 19.2528-70.3283Q22.4215-67.1595 27.2446-67.1595L180.321-67.1595Q185.119-67.1595 188.303-70.3283Q191.487-73.4971 191.487-78.3202Q191.487-83.149 188.303-86.3177Q185.119-89.4864 180.321-89.4864L27.2446-89.4864Q22.4215-89.4864 19.2528-86.3177Q16.084-83.149 16.084-78.3202ZM66.643 2.23142L140.928 2.23142Q160.605 2.23142 170.932-7.55234Q181.26-17.3361 181.26-36.1726L181.26-57.5015L26.3559-57.5015L26.3559-36.1726Q26.3559-17.3361 36.6612-7.55234Q46.9665 2.23142 66.643 2.23142ZM47.3339 17.807Q50.5834 18.9735 53.7257 17.5128Q56.868 16.0522 58.0346 12.8473L64.5481-5.08407L48.8677-10.7859L42.429 7.07061Q41.2682 10.3503 42.7109 13.4982Q44.1537 16.6461 47.3339 17.807ZM160.237 17.807Q163.417 16.6907 164.883 13.5205Q166.348 10.3503 165.181 7.11523L158.698-10.7859L143.023-5.08407L149.501 12.8473Q150.698 16.0522 153.865 17.5128Q157.032 18.9735 160.237 17.807Z"/>
  </g>
  <g id="Bold-L" transform="matrix(1 0 0 1 2239.2 1556)">
   <path d="M16.084-77.4479Q16.084-73.1937 18.9376-70.3401Q21.7912-67.4864 26.0452-67.4864L175.491-67.4864Q179.72-67.4864 182.593-70.3401Q185.465-73.1937 185.465-77.4479Q185.465-81.7152 182.593-84.5687Q179.72-87.4222 175.491-87.4222L26.0452-87.4222Q21.7912-87.4222 18.9376-84.5687Q16.084-81.7152 16.084-77.4479ZM64.0304 0.934463L137.519 0.934463Q156.389 0.934463 166.194-8.35761Q175.999-17.6497 175.999-35.6643L175.999-58.4783L25.5792-58.4783L25.5792-35.6643Q25.5792-17.6497 35.3698-8.35761Q45.1603 0.934463 64.0304 0.934463ZM45.5042 15.8424Q48.2082 16.8167 50.8282 15.5903Q53.4482 14.3639 54.4227 11.6892L60.4978-5.01142L47.4216-9.76059L41.4136 6.87269Q40.4526 9.61478 41.6534 12.248Q42.8542 14.8812 45.5042 15.8424ZM156.045 15.8424Q158.695 14.9104 159.911 12.2626Q161.126 9.61478 160.152 6.90189L154.114-9.76059L141.052-5.01142L147.076 11.6892Q148.088 14.3639 150.729 15.5903Q153.37 16.8167 156.045 15.8424Z"/>
  </g>
  <g id="Semibold-L" transform="matrix(1 0 0 1 1944.57 1556)">
   <path d="M16.084-76.8464Q16.084-72.9845 18.7203-70.3482Q21.3567-67.7118 25.2183-67.7118L172.161-67.7118Q175.998-67.7118 178.656-70.3482Q181.314-72.9845 181.314-76.8464Q181.314-80.7267 178.656-83.3629Q175.998-85.9991 172.161-85.9991L25.2183-85.9991Q21.3567-85.9991 18.7203-83.3629Q16.084-80.7267 16.084-76.8464ZM62.2293 0.0403517L135.169 0.0403517Q153.483 0.0403517 162.928-8.91276Q172.373-17.8659 172.373-35.3139L172.373-59.1517L25.0437-59.1517L25.0437-35.3139Q25.0437-17.8659 34.4794-8.91276Q43.9152 0.0403517 62.2293 0.0403517ZM44.2428 14.488Q46.5708 15.3299 48.8307 14.265Q51.0906 13.2001 51.9327 10.8907L57.7055-4.96134L46.4247-9.05372L40.7137 6.73624Q39.8904 9.10772 40.9244 11.3861Q41.9584 13.6644 44.2428 14.488ZM153.155 14.488Q155.44 13.683 156.483 11.3954Q157.527 9.10772 156.684 6.75482L150.955-9.05372L139.693-4.96134L145.404 10.8907Q146.289 13.2001 148.568 14.265Q150.846 15.3299 153.155 14.488Z"/>
  </g>
  <g id="Medium-L" transform="matrix(1 0 0 1 1649.43 1556)">
   <path d="M16.084-76.3904Q16.084-72.8259 18.5556-70.3543Q21.0272-67.8827 24.5913-67.8827L169.636-67.8827Q173.176-67.8827 175.671-70.3543Q178.166-72.8259 178.166-76.3904Q178.166-79.9772 175.671-82.4486Q173.176-84.9201 169.636-84.9201L24.5913-84.9201Q21.0272-84.9201 18.5556-82.4486Q16.084-79.9772 16.084-76.3904ZM60.8636-0.637601L133.387-0.637601Q151.279-0.637601 160.451-9.3337Q169.623-18.0298 169.623-35.0483L169.623-59.6623L24.6377-59.6623L24.6377-35.0483Q24.6377-18.0298 33.8044-9.3337Q42.971-0.637601 60.8636-0.637601ZM43.2864 13.461Q45.3292 14.2025 47.3161 13.26Q49.3029 12.3176 50.0447 10.2853L55.5883-4.92336L45.6687-8.51773L40.1829 6.63278Q39.4641 8.72325 40.3716 10.7326Q41.2791 12.7419 43.2864 13.461ZM150.964 13.461Q152.971 12.7524 153.884 10.7378Q154.797 8.72325 154.055 6.6433L148.559-8.51773L138.662-4.92336L144.136 10.2853Q144.925 12.3176 146.928 13.26Q148.932 14.2025 150.964 13.461Z"/>
  </g>
  <g id="Regular-L" transform="matrix(1 0 0 1 1354.77 1556)">
   <path d="M16.084-75.7956Q16.084-72.6191 18.3407-70.3623Q20.5975-68.1056 23.7736-68.1056L166.343-68.1056Q169.495-68.1056 171.778-70.3623Q174.061-72.6191 174.061-75.7956Q174.061-78.9996 171.778-81.2561Q169.495-83.5126 166.343-83.5126L23.7736-83.5126Q20.5975-83.5126 18.3407-81.2561Q16.084-78.9996 16.084-75.7956ZM59.0823-1.52189L131.062-1.52189Q148.405-1.52189 157.221-9.88275Q166.037-18.2436 166.037-34.7017L166.037-60.3284L24.1081-60.3284L24.1081-34.7017Q24.1081-18.2436 32.9238-9.88275Q41.7396-1.52189 59.0823-1.52189ZM42.0389 12.1215Q43.7098 12.7319 45.3405 11.9493Q46.9712 11.1666 47.5821 9.49564L52.8267-4.87383L44.6827-7.81863L39.4907 6.49784Q38.9081 8.22177 39.6506 9.88013Q40.3931 11.5385 42.0389 12.1215ZM148.106 12.1215Q149.752 11.5385 150.494 9.88013Q151.237 8.22177 150.626 6.49784L145.434-7.81863L137.318-4.87383L142.483 9.49564Q143.146 11.1666 144.791 11.9493Q146.435 12.7319 148.106 12.1215Z"/>
  </g>
  <g id="Light-L" transform="matrix(1 0 0 1 1060.41 1556)">
   <path d="M16.084-74.4598Q16.084-71.5885 18.1499-69.5225Q20.2159-67.4566 23.0864-67.4566L162.316-67.4566Q165.201-67.4566 167.283-69.5225Q169.366-71.5885 169.366-74.4598Q169.366-77.3774 167.283-79.4429Q165.201-81.5085 162.316-81.5085L23.0864-81.5085Q20.2159-81.5085 18.1499-79.4429Q16.084-77.3774 16.084-74.4598ZM57.2882-2.7625L128.162-2.7625Q144.874-2.7625 153.308-10.7607Q161.742-18.7589 161.742-34.5872L161.742-60.8055L23.7073-60.8055L23.7073-34.5872Q23.7073-18.7589 32.1413-10.7607Q40.5753-2.7625 57.2882-2.7625ZM40.9701 10.2511Q42.2402 10.7279 43.4701 10.1265Q44.7 9.52513 45.1775 8.25503L50.2121-5.54176L43.9956-7.79939L38.9943 5.96331Q38.5647 7.2675 39.1258 8.54412Q39.687 9.82074 40.9701 10.2511ZM144.48 10.2511Q145.763 9.82074 146.324 8.54412Q146.886 7.2675 146.408 5.96331L141.407-7.79939L135.238-5.54176L140.193 8.25503Q140.703 9.52513 141.956 10.1265Q143.209 10.7279 144.48 10.2511Z"/>
  </g>
  <g id="Thin-L" transform="matrix(1 0 0 1 766.802 1556)">
   <path d="M16.084-72.693Q16.084-70.2255 17.8976-68.4118Q19.7112-66.5982 22.1776-66.5982L156.99-66.5982Q159.521-66.5982 161.339-68.4118Q163.156-70.2255 163.156-72.693Q163.156-75.2319 161.339-77.0449Q159.521-78.8579 156.99-78.8579L22.1776-78.8579Q19.7112-78.8579 17.8976-77.0449Q16.084-75.2319 16.084-72.693ZM54.9154-4.40332L124.325-4.40332Q140.205-4.40332 148.134-11.9219Q156.063-19.4404 156.063-34.4358L156.063-61.4365L23.1771-61.4365L23.1771-34.4358Q23.1771-19.4404 31.1063-11.9219Q39.0354-4.40332 54.9154-4.40332ZM39.5566 7.7774Q40.2966 8.07727 40.9964 7.71573Q41.6962 7.3542 41.9973 6.61421L46.7541-6.42514L43.0867-7.77394L38.3378 5.25634Q38.1105 6.0054 38.4318 6.77714Q38.7531 7.54888 39.5566 7.7774ZM139.684 7.7774Q140.487 7.54888 140.809 6.77714Q141.131 6.0054 140.83 5.25634L136.081-7.77394L132.486-6.42514L137.164 6.61421Q137.473 7.3542 138.208 7.71573Q138.944 8.07727 139.684 7.7774Z"/>
  </g>
  <g id="Ultralight-L" transform="matrix(1 0 0 1 471.681 1556)">
   <path d="M16.084-71.7881Q16.084-69.5273 17.7684-67.8429Q19.4527-66.1586 21.7121-66.1586L154.262-66.1586Q156.612-66.1586 158.294-67.8429Q159.976-69.5273 159.976-71.7881Q159.976-74.133 158.294-75.8167Q156.612-77.5003 154.262-77.5003L21.7121-77.5003Q19.4527-77.5003 17.7684-75.8167Q16.084-74.133 16.084-71.7881ZM53.7001-5.24374L122.36-5.24374Q137.813-5.24374 145.483-12.5166Q153.154-19.7895 153.154-34.3583L153.154-61.7598L22.9056-61.7598L22.9056-34.3583Q22.9056-19.7895 30.5761-12.5166Q38.2467-5.24374 53.7001-5.24374ZM38.8326 6.51036Q39.3011 6.71965 39.7294 6.48096Q40.1576 6.24226 40.3683 5.77379L44.9829-6.87761L42.6212-7.76091L38.0015 4.89424Q37.8778 5.35896 38.0763 5.8721Q38.2748 6.38524 38.8326 6.51036ZM137.227 6.51036Q137.785 6.38524 137.984 5.8721Q138.183 5.35896 137.973 4.89424L133.353-7.76091L131.077-6.87761L135.612 5.77379Q135.818 6.24226 136.288 6.48096Q136.759 6.71965 137.227 6.51036Z"/>
  </g>
  <g id="Black-M" transform="matrix(1 0 0 1 2849.39 1126)">
   <path d="M12.4609-69.4335Q12.4609-64.9694 15.3114-62.119Q18.1618-59.2686 22.6258-59.2686L145.387-59.2686Q149.845-59.2686 152.699-62.119Q155.552-64.9694 155.552-69.4335Q155.552-73.8972 152.699-76.7476Q149.845-79.5981 145.387-79.5981L22.6258-79.5981Q18.1618-79.5981 15.3114-76.7476Q12.4609-73.8972 12.4609-69.4335ZM54.8372-4.73456L113.176-4.73456Q129.384-4.73456 138.018-12.9093Q146.652-21.084 146.652-36.6637L146.652-51.22L21.4173-51.22L21.4173-36.6637Q21.4173-21.084 30.0233-12.9093Q38.6292-4.73456 54.8372-4.73456ZM38.9808 8.09353Q42.1586 9.23243 45.2197 7.82026Q48.2808 6.4081 49.4197 3.28731L55.0351-12.208L39.7386-17.7834L34.1858-2.35063Q33.0466 0.83274 34.4562 3.89355Q35.8657 6.95435 38.9808 8.09353ZM129.032 8.09353Q132.147 7.01145 133.585 3.92209Q135.023 0.83274 133.884-2.29354L128.274-17.7834L112.978-12.208L118.588 3.28731Q119.732 6.4081 122.822 7.82026Q125.911 9.23243 129.032 8.09353Z"/>
  </g>
  <g id="Heavy-M" transform="matrix(1 0 0 1 2554.81 1126)">
   <path d="M12.4609-68.958Q12.4609-64.9257 15.0769-62.3097Q17.6929-59.6937 21.7253-59.6937L142.031-59.6937Q146.05-59.6937 148.674-62.3097Q151.298-64.9257 151.298-68.958Q151.298-72.9927 148.674-75.6087Q146.05-78.2246 142.031-78.2246L21.7253-78.2246Q17.6929-78.2246 15.0769-75.6087Q12.4609-72.9927 12.4609-68.958ZM52.9394-5.60145L110.82-5.60145Q126.458-5.60145 134.718-13.4244Q142.978-21.2473 142.978-36.2441L142.978-51.9711L20.8247-51.9711L20.8247-36.2441Q20.8247-21.2473 29.0628-13.4244Q37.3009-5.60145 52.9394-5.60145ZM37.6114 6.77845Q40.3987 7.77816 43.0894 6.53178Q45.7802 5.28539 46.7799 2.54169L52.0572-12.0011L38.6224-16.8915L33.4052-2.40877Q32.4077 0.394978 33.6448 3.08798Q34.8818 5.78099 37.6114 6.77845ZM126.148 6.77845Q128.877 5.82461 130.136 3.1098Q131.395 0.394978 130.395-2.36515L125.134-16.8915L111.702-12.0011L116.96 2.54169Q117.977 5.28539 120.69 6.53178Q123.404 7.77816 126.148 6.77845Z"/>
  </g>
  <g id="Bold-M" transform="matrix(1 0 0 1 2260.48 1126)">
   <path d="M12.4609-68.4262Q12.4609-64.8767 14.8147-62.523Q17.1685-60.1692 20.7179-60.1692L138.278-60.1692Q141.804-60.1692 144.172-62.523Q146.54-64.8767 146.54-68.4262Q146.54-71.9808 144.172-74.3345Q141.804-76.6883 138.278-76.6883L20.7179-76.6883Q17.1685-76.6883 14.8147-74.3345Q12.4609-71.9808 12.4609-68.4262ZM50.8165-6.5712L108.184-6.5712Q123.186-6.5712 131.027-14.0006Q138.868-21.4301 138.868-35.7748L138.868-52.8114L20.1616-52.8114L20.1616-35.7748Q20.1616-21.4301 27.9883-14.0006Q35.815-6.5712 50.8165-6.5712ZM36.0795 5.30734Q38.4299 6.15135 40.7064 5.09042Q42.9828 4.02948 43.8269 1.70761L48.7261-11.7696L37.3739-15.8938L32.5319-2.4738Q31.693-0.0947223 32.7371 2.18685Q33.7812 4.46842 36.0795 5.30734ZM122.921 5.30734Q125.22 4.49697 126.278 2.20112Q127.336-0.0947223 126.492-2.44526L121.622-15.8938L110.275-11.7696L115.14 1.70761Q116.013 4.02948 118.306 5.09042Q120.599 6.15135 122.921 5.30734Z"/>
  </g>
  <g id="Semibold-M" transform="matrix(1 0 0 1 1965.41 1126)">
   <path d="M12.4609-68.0596Q12.4609-64.843 14.6339-62.67Q16.8069-60.497 20.0234-60.497L135.69-60.497Q138.876-60.497 141.068-62.67Q143.259-64.843 143.259-68.0596Q143.259-71.2832 141.068-73.4562Q138.876-75.6291 135.69-75.6291L20.0234-75.6291Q16.8069-75.6291 14.6339-73.4562Q12.4609-71.2832 12.4609-68.0596ZM49.353-7.23973L106.367-7.23973Q120.93-7.23973 128.482-14.3979Q136.034-21.5561 136.034-35.4512L136.034-53.3906L19.7046-53.3906L19.7046-35.4512Q19.7046-21.5561 27.2476-14.3979Q34.7907-7.23973 49.353-7.23973ZM35.0235 4.29317Q37.0727 5.02984 39.0635 4.09675Q41.0544 3.16366 41.7911 1.1326L46.4296-11.6099L36.5131-15.2059L31.9298-2.51864Q31.2003-0.432319 32.1113 1.56561Q33.0224 3.56354 35.0235 4.29317ZM120.697 4.29317Q122.698 3.5817 123.618 1.57469Q124.538-0.432319 123.801-2.50048L119.2-15.2059L109.291-11.6099L113.885 1.1326Q114.659 3.16366 116.662 4.09675Q118.666 5.02984 120.697 4.29317Z"/>
  </g>
  <g id="Medium-M" transform="matrix(1 0 0 1 1669.94 1126)">
   <path d="M12.4609-67.7816Q12.4609-64.8174 14.4969-62.7815Q16.5328-60.7456 19.4968-60.7456L133.727-60.7456Q136.657-60.7456 138.714-62.7815Q140.772-64.8174 140.772-67.7816Q140.772-70.7543 138.714-72.7902Q136.657-74.826 133.727-74.826L19.4968-74.826Q16.5328-74.826 14.4969-72.7902Q12.4609-70.7543 12.4609-67.7816ZM48.2433-7.74664L104.99-7.74664Q119.219-7.74664 126.552-14.6991Q133.885-21.6516 133.885-35.2059L133.885-53.8298L19.358-53.8298L19.358-35.2059Q19.358-21.6516 26.686-14.6991Q34.014-7.74664 48.2433-7.74664ZM34.2227 3.52419Q36.0436 4.17947 37.8178 3.34331Q39.5921 2.50716 40.2475 0.696603L44.6883-11.4889L35.8605-14.6844L31.4733-2.55263Q30.8267-0.688298 31.6369 1.09456Q32.447 2.87743 34.2227 3.52419ZM119.01 3.52419Q120.786 2.8877 121.601 1.0997Q122.417-0.688298 121.761-2.54236L117.364-14.6844L108.545-11.4889L112.934 0.696603Q113.632 2.50716 115.416 3.34331Q117.2 4.17947 119.01 3.52419Z"/>
  </g>
  <g id="Regular-M" transform="matrix(1 0 0 1 1374.85 1126)">
   <path d="M12.4609-67.419Q12.4609-64.7841 14.3181-62.9269Q16.1752-61.0698 18.81-61.0698L131.168-61.0698Q133.762-61.0698 135.645-62.9269Q137.528-64.7841 137.528-67.419Q137.528-70.0644 135.645-71.9215Q133.762-73.7785 131.168-73.7785L18.81-73.7785Q16.1752-73.7785 14.3181-71.9215Q12.4609-70.0644 12.4609-67.419ZM46.7959-8.40783L103.193-8.40783Q116.988-8.40783 124.035-15.092Q131.083-21.7762 131.083-34.8858L131.083-54.4027L18.906-54.4027L18.906-34.8858Q18.906-21.7762 25.9534-15.092Q33.0009-8.40783 46.7959-8.40783ZM33.1783 2.52116Q34.7012 3.07028 36.193 2.36057Q37.6848 1.65085 38.2341 0.127911L42.417-11.3311L35.0092-14.0041L30.8779-2.59697Q30.3394-1.02218 31.018 0.480154Q31.6966 1.98249 33.1783 2.52116ZM116.81 2.52116Q118.292 1.98249 118.971 0.480154Q119.649-1.02218 119.1-2.59697L114.969-14.0041L107.572-11.3311L111.692 0.127911Q112.293 1.65085 113.79 2.36057Q115.287 3.07028 116.81 2.52116Z"/>
  </g>
  <g id="Light-M" transform="matrix(1 0 0 1 1080.24 1126)">
   <path d="M12.4609-66.2214Q12.4609-63.8601 14.147-62.174Q15.8331-60.4879 18.1939-60.4879L127.557-60.4879Q129.912-60.4879 131.615-62.174Q133.318-63.8601 133.318-66.2214Q133.318-68.61 131.615-70.2959Q129.912-71.9817 127.557-71.9817L18.1939-71.9817Q15.8331-71.9817 14.147-70.2959Q12.4609-68.61 12.4609-66.2214ZM45.1874-9.52011L100.592-9.52011Q113.822-9.52011 120.527-15.8791Q127.233-22.2382 127.233-34.7832L127.233-54.8305L18.5466-54.8305L18.5466-34.7832Q18.5466-22.2382 25.2518-15.8791Q31.957-9.52011 45.1874-9.52011ZM32.2201 0.844262Q33.3837 1.27351 34.5161 0.726364Q35.6486 0.179222 36.0783-0.984366L40.0729-11.9299L34.3931-13.9869L30.4329-3.07621Q30.0315-1.87774 30.5475-0.71765Q31.0635 0.442438 32.2201 0.844262ZM113.559 0.844262Q114.716 0.442438 115.232-0.71765Q115.748-1.87774 115.318-3.07621L111.358-13.9869L105.706-11.9299L109.639-0.984366Q110.103 0.179222 111.249 0.726364Q112.396 1.27351 113.559 0.844262Z"/>
  </g>
  <g id="Thin-M" transform="matrix(1 0 0 1 786.316 1126)">
   <path d="M12.4609-64.6373Q12.4609-62.6381 13.9208-61.1782Q15.3806-59.7184 17.3791-59.7184L122.782-59.7184Q124.82-59.7184 126.285-61.1782Q127.751-62.6381 127.751-64.6373Q127.751-66.6865 126.285-68.1459Q124.82-69.6053 122.782-69.6053L17.3791-69.6053Q15.3806-69.6053 13.9208-68.1459Q12.4609-66.6865 12.4609-64.6373ZM43.0601-10.9912L97.152-10.9912Q109.636-10.9912 115.888-16.9202Q122.141-22.8492 122.141-34.6475L122.141-55.3963L18.0713-55.3963L18.0713-34.6475Q18.0713-22.8492 24.3239-16.9202Q30.5764-10.9912 43.0601-10.9912ZM30.9528-1.37357Q31.6411-1.10288 32.2983-1.435Q32.9555-1.76713 33.227-2.45544L36.9726-12.7219L33.5783-13.964L29.8443-3.71004Q29.6243-3.00928 29.9253-2.30184Q30.2263-1.59441 30.9528-1.37357ZM109.259-1.37357Q109.986-1.59441 110.287-2.30184Q110.589-3.00928 110.317-3.71004L106.583-13.964L103.239-12.7219L106.924-2.45544Q107.207-1.76713 107.889-1.435Q108.571-1.10288 109.259-1.37357Z"/>
  </g>
  <g id="Ultralight-M" transform="matrix(1 0 0 1 491.031 1126)">
   <path d="M12.4609-63.826Q12.4609-62.0121 13.8049-60.6682Q15.1489-59.3242 16.9617-59.3242L120.336-59.3242Q122.212-59.3242 123.556-60.6682Q124.9-62.0121 124.9-63.826Q124.9-65.7013 123.556-67.0447Q122.212-68.3882 120.336-68.3882L16.9617-68.3882Q15.1489-68.3882 13.8049-67.0447Q12.4609-65.7013 12.4609-63.826ZM41.9704-11.7447L95.3901-11.7447Q107.491-11.7447 113.512-17.4534Q119.533-23.1621 119.533-34.5779L119.533-55.6861L17.8279-55.6861L17.8279-34.5779Q17.8279-23.1621 23.8486-17.4534Q29.8693-11.7447 41.9704-11.7447ZM30.3037-2.50953Q30.7486-2.32005 31.1623-2.54205Q31.5761-2.76404 31.7666-3.20892L35.3846-13.1276L33.1609-13.9524L29.5429-4.03468Q29.4158-3.58885 29.6066-3.11326Q29.7974-2.63767 30.3037-2.50953ZM107.057-2.50953Q107.563-2.63767 107.754-3.11326Q107.946-3.58885 107.755-4.03468L104.137-13.9524L101.976-13.1276L105.533-3.20892Q105.723-2.76404 106.168-2.54205Q106.612-2.32005 107.057-2.50953Z"/>
  </g>
  <g id="Black-S" transform="matrix(1 0 0 1 2867.04 696)">
   <path d="M9.76562-62.1094Q9.76562-58.4961 12.0605-56.2012Q14.3555-53.9062 17.9688-53.9062L114.746-53.9062Q118.359-53.9062 120.654-56.2012Q122.949-58.4961 122.949-62.1094Q122.949-65.7227 120.654-68.0176Q118.359-70.3125 114.746-70.3125L17.9688-70.3125Q14.3555-70.3125 12.0605-68.0176Q9.76562-65.7227 9.76562-62.1094ZM43.457-11.1328L89.2578-11.1328Q102.1-11.1328 108.96-17.627Q115.82-24.1211 115.82-36.4746L115.82-47.5586L16.9434-47.5586L16.9434-36.4746Q16.9434-24.1211 23.7793-17.627Q30.6152-11.1328 43.457-11.1328ZM30.9082-0.976562Q33.4961-0.0488281 35.9863-1.19629Q38.4766-2.34375 39.4043-4.88281L43.8965-17.2852L31.4453-21.8262L27.002-9.47266Q26.0742-6.88477 27.2217-4.39453Q28.3691-1.9043 30.9082-0.976562ZM101.807-0.976562Q104.346-1.85547 105.518-4.37012Q106.689-6.88477 105.762-9.42383L101.27-21.8262L88.8184-17.2852L93.3105-4.88281Q94.2383-2.34375 96.7529-1.19629Q99.2676-0.0488281 101.807-0.976562Z"/>
  </g>
  <g id="Heavy-S" transform="matrix(1 0 0 1 2571.88 696)">
   <path d="M9.76562-61.8558Q9.76562-58.5768 11.8819-56.4605Q13.9982-54.3442 17.2773-54.3442L112.337-54.3442Q115.605-54.3442 117.727-56.4605Q119.849-58.5768 119.849-61.8558Q119.849-65.1349 117.727-67.2512Q115.605-69.3675 112.337-69.3675L17.2773-69.3675Q13.9982-69.3675 11.8819-67.2512Q9.76562-65.1349 9.76562-61.8558ZM42.0395-11.7321L87.5752-11.7321Q100.002-11.7321 106.586-17.9669Q113.17-24.2018 113.17-36.1289L113.17-48.1463L16.4824-48.1463L16.4824-36.1289Q16.4824-24.2018 23.0475-17.9669Q29.6126-11.7321 42.0395-11.7321ZM29.8595-1.887Q32.1593-1.06298 34.3787-2.08944Q36.5981-3.11589 37.4221-5.37836L41.6492-17.0316L30.5695-21.0656L26.3912-9.46113Q25.5671-7.14983 26.5878-4.93042Q27.6085-2.71101 29.8595-1.887ZM99.7553-1.887Q102.006-2.67371 103.046-4.91177Q104.085-7.14983 103.261-9.42383L99.0453-21.0656L87.9655-17.0316L92.1811-5.37836Q93.0167-3.11589 95.2547-2.08944Q97.4928-1.06298 99.7553-1.887Z"/>
  </g>
  <g id="Bold-S" transform="matrix(1 0 0 1 2276.9 696)">
   <path d="M9.76562-61.5723Q9.76562-58.667 11.6821-56.7505Q13.5986-54.834 16.5039-54.834L109.644-54.834Q112.524-54.834 114.453-56.7505Q116.382-58.667 116.382-61.5723Q116.382-64.4775 114.453-66.394Q112.524-68.3105 109.644-68.3105L16.5039-68.3105Q13.5986-68.3105 11.6821-66.394Q9.76562-64.4775 9.76562-61.5723ZM40.4541-12.4023L85.6934-12.4023Q97.6562-12.4023 103.931-18.3472Q110.205-24.292 110.205-35.7422L110.205-48.8037L15.9668-48.8037L15.9668-35.7422Q15.9668-24.292 22.229-18.3472Q28.4912-12.4023 40.4541-12.4023ZM28.6865-2.90527Q30.6641-2.19727 32.5806-3.08838Q34.4971-3.97949 35.2051-5.93262L39.1357-16.748L29.5898-20.2148L25.708-9.44824Q25-7.44629 25.8789-5.52979Q26.7578-3.61328 28.6865-2.90527ZM97.4609-2.90527Q99.3896-3.58887 100.281-5.51758Q101.172-7.44629 100.464-9.42383L96.5576-20.2148L87.0117-16.748L90.918-5.93262Q91.6504-3.97949 93.5791-3.08838Q95.5078-2.19727 97.4609-2.90527Z"/>
  </g>
  <g id="Semibold-S" transform="matrix(1 0 0 1 1981.39 696)">
   <path d="M9.76562-61.3768Q9.76562-58.7292 11.5444-56.9504Q13.3231-55.1717 15.9707-55.1717L107.786-55.1717Q110.4-55.1717 112.196-56.9504Q113.991-58.7292 113.991-61.3768Q113.991-64.0243 112.196-65.8031Q110.4-67.5818 107.786-67.5818L15.9707-67.5818Q13.3231-67.5818 11.5444-65.8031Q9.76562-64.0243 9.76562-61.3768ZM39.361-12.8645L84.3959-12.8645Q96.0389-12.8645 102.1-18.6093Q108.161-24.3542 108.161-35.4756L108.161-49.2569L15.6113-49.2569L15.6113-35.4756Q15.6113-24.3542 21.6647-18.6093Q27.7181-12.8645 39.361-12.8645ZM27.8778-3.60732Q29.6332-2.9793 31.3409-3.7771Q33.0485-4.5749 33.6766-6.31475L37.4028-16.5525L28.9145-19.6283L25.237-9.43936Q24.609-7.65068 25.3901-5.94302Q26.1713-4.23535 27.8778-3.60732ZM95.8791-3.60732Q97.5856-4.21982 98.3746-5.93525Q99.1635-7.65068 98.5354-9.42383L94.8425-19.6283L86.3541-16.5525L90.0471-6.31475Q90.7084-4.5749 92.4238-3.7771Q94.1393-2.9793 95.8791-3.60732Z"/>
  </g>
  <g id="Medium-S" transform="matrix(1 0 0 1 1685.58 696)">
   <path d="M9.76562-61.2285Q9.76562-58.7764 11.4399-57.1021Q13.1143-55.4277 15.5664-55.4277L106.378-55.4277Q108.79-55.4277 110.484-57.1021Q112.179-58.7764 112.179-61.2285Q112.179-63.6807 110.484-65.355Q108.79-67.0293 106.378-67.0293L15.5664-67.0293Q13.1143-67.0293 11.4399-65.355Q9.76562-63.6807 9.76562-61.2285ZM38.5322-13.2148L83.4121-13.2148Q94.8125-13.2148 100.712-18.8081Q106.611-24.4014 106.611-35.2734L106.611-49.6006L15.3418-49.6006L15.3418-35.2734Q15.3418-24.4014 21.2368-18.8081Q27.1318-13.2148 38.5322-13.2148ZM27.2646-4.13965Q28.8516-3.57227 30.4009-4.29932Q31.9502-5.02637 32.5176-6.60449L36.0889-16.4043L28.4023-19.1836L24.8799-9.43262Q24.3125-7.80566 25.0195-6.25635Q25.7266-4.70703 27.2646-4.13965ZM94.6797-4.13965Q96.2178-4.69824 96.9292-6.25195Q97.6406-7.80566 97.0732-9.42383L93.542-19.1836L85.8555-16.4043L89.3867-6.60449Q89.9941-5.02637 91.5479-4.29932Q93.1016-3.57227 94.6797-4.13965Z"/>
  </g>
  <g id="Regular-S" transform="matrix(1 0 0 1 1390.05 696)">
   <path d="M9.76562-61.0352Q9.76562-58.8379 11.3037-57.2998Q12.8418-55.7617 15.0391-55.7617L104.541-55.7617Q106.689-55.7617 108.252-57.2998Q109.814-58.8379 109.814-61.0352Q109.814-63.2324 108.252-64.7705Q106.689-66.3086 104.541-66.3086L15.0391-66.3086Q12.8418-66.3086 11.3037-64.7705Q9.76562-63.2324 9.76562-61.0352ZM37.4512-13.6719L82.1289-13.6719Q93.2129-13.6719 98.9014-19.0674Q104.59-24.4629 104.59-35.0098L104.59-50.0488L14.9902-50.0488L14.9902-35.0098Q14.9902-24.4629 20.6787-19.0674Q26.3672-13.6719 37.4512-13.6719ZM26.4648-4.83398Q27.832-4.3457 29.1748-4.98047Q30.5176-5.61523 31.0059-6.98242L34.375-16.2109L27.7344-18.6035L24.4141-9.42383Q23.9258-8.00781 24.5361-6.66504Q25.1465-5.32227 26.4648-4.83398ZM93.1152-4.83398Q94.4336-5.32227 95.0439-6.66504Q95.6543-8.00781 95.166-9.42383L91.8457-18.6035L85.2051-16.2109L88.5254-6.98242Q89.0625-5.61523 90.4053-4.98047Q91.748-4.3457 93.1152-4.83398Z"/>
  </g>
  <g id="Light-S" transform="matrix(1 0 0 1 1095.21 696)">
   <path d="M9.76562-59.9757Q9.76562-58.0205 11.1524-56.6338Q12.5392-55.247 14.4941-55.247L101.347-55.247Q103.284-55.247 104.687-56.6338Q106.091-58.0205 106.091-59.9757Q106.091-61.9459 104.687-63.3325Q103.284-64.7191 101.347-64.7191L14.4941-64.7191Q12.5392-64.7191 11.1524-63.3325Q9.76562-61.9459 9.76562-59.9757ZM36.0283-14.6558L79.8281-14.6558Q90.4126-14.6558 95.7984-19.7637Q101.184-24.8716 101.184-34.919L101.184-50.4272L14.6723-50.4272L14.6723-34.919Q14.6723-24.8716 20.0581-19.7637Q25.4438-14.6558 36.0283-14.6558ZM25.6172-6.31739Q26.6665-5.93516 27.6914-6.42611Q28.7163-6.91706 29.0988-7.96636L32.3013-16.7407L27.1894-18.5883L24.0204-9.84777Q23.6534-8.76465 24.1199-7.72463Q24.5865-6.68462 25.6172-6.31739ZM90.2392-6.31739Q91.2699-6.68462 91.7366-7.72463Q92.2033-8.76465 91.8208-9.84777L88.6518-18.5883L83.5551-16.7407L86.7091-7.96636Q87.1251-6.91706 88.1575-6.42611Q89.1899-5.93516 90.2392-6.31739Z"/>
  </g>
  <g id="Thin-S" transform="matrix(1 0 0 1 800.956 696)">
   <path d="M9.76562-58.5745Q9.76562-56.9395 10.9523-55.7529Q12.1389-54.5662 13.7733-54.5662L97.1229-54.5662Q98.7793-54.5662 99.9726-55.7529Q101.166-56.9395 101.166-58.5745Q101.166-60.2443 99.9726-61.4306Q98.7793-62.617 97.1229-62.617L13.7733-62.617Q12.1389-62.617 10.9523-61.4306Q9.76562-60.2443 9.76562-58.5745ZM34.1464-15.9571L76.7852-15.9571Q86.7091-15.9571 91.6944-20.6846Q96.6797-25.4121 96.6797-34.7989L96.6797-50.9277L14.2519-50.9277L14.2519-34.7989Q14.2519-25.4121 19.2372-20.6846Q24.2225-15.9571 34.1464-15.9571ZM24.4962-8.27932Q25.125-8.03735 25.7295-8.33809Q26.3339-8.63884 26.5765-9.2677L29.5587-17.4413L26.4686-18.5681L23.4997-10.4085Q23.2932-9.76562 23.5695-9.12604Q23.8458-8.48645 24.4962-8.27932ZM86.4354-8.27932Q87.0857-8.48645 87.3624-9.12604Q87.639-9.76562 87.3964-10.4085L84.4276-18.5681L81.3729-17.4413L84.3069-9.2677Q84.5628-8.63884 85.1847-8.33809Q85.8066-8.03735 86.4354-8.27932Z"/>
  </g>
  <g id="Ultralight-S" transform="matrix(1 0 0 1 505.506 696)">
   <path d="M9.76562-57.8568Q9.76562-56.3858 10.8498-55.3017Q11.9339-54.2175 13.4041-54.2175L94.9593-54.2175Q96.4722-54.2175 97.5578-55.3017Q98.6435-56.3858 98.6435-57.8568Q98.6435-59.3727 97.5578-60.4565Q96.4722-61.5402 94.9593-61.5402L13.4041-61.5402Q11.9339-61.5402 10.8498-60.4565Q9.76562-59.3727 9.76562-57.8568ZM33.1825-16.6237L75.2266-16.6237Q84.8122-16.6237 89.5924-21.1563Q94.3726-25.6889 94.3726-34.7374L94.3726-51.1841L14.0366-51.1841L14.0366-34.7374Q14.0366-25.6889 18.8168-21.1563Q23.597-16.6237 33.1825-16.6237ZM23.922-9.28421Q24.3355-9.11407 24.7246-9.3174Q25.1137-9.52072 25.2846-9.93423L28.154-17.8001L26.0994-18.5577L23.233-10.6956Q23.1087-10.2783 23.2876-9.84383Q23.4665-9.40933 23.922-9.28421ZM84.4872-9.28421Q84.9426-9.40933 85.1219-9.84383Q85.3012-10.2783 85.1303-10.6956L82.2639-18.5577L80.2551-17.8001L83.0765-9.93423Q83.2504-9.52072 83.662-9.3174Q84.0736-9.11407 84.4872-9.28421Z"/>
  </g>
 </g>
</svg>
