<?xml version="1.0" encoding="UTF-8"?>
<!--Generator: Apple Native CoreSVG 175.5-->
<!DOCTYPE svg
PUBLIC "-//W3C//DTD SVG 1.1//EN"
       "http://www.w3.org/Graphics/SVG/1.1/DTD/svg11.dtd">
<svg version="1.1" xmlns="http://www.w3.org/2000/svg" xmlns:xlink="http://www.w3.org/1999/xlink" width="3300" height="2200">
 <!--glyph: "uni101539.medium", point size: 100.0, font version: "18.0d9e1", template writer version: "84"-->
 <g id="Notes">
  <rect height="2200" id="artboard" style="fill:white;opacity:1" width="3300" x="0" y="0"/>
  <line style="fill:none;stroke:black;opacity:1;stroke-width:0.5;" x1="263" x2="3036" y1="292" y2="292"/>
  <text style="stroke:none;fill:black;font-family:sans-serif;font-size:13;font-weight:bold;" transform="matrix(1 0 0 1 263 322)">Weight/Scale Variations</text>
  <text style="stroke:none;fill:black;font-family:sans-serif;font-size:13;text-anchor:middle;" transform="matrix(1 0 0 1 559.711 322)">Ultralight</text>
  <text style="stroke:none;fill:black;font-family:sans-serif;font-size:13;text-anchor:middle;" transform="matrix(1 0 0 1 856.422 322)">Thin</text>
  <text style="stroke:none;fill:black;font-family:sans-serif;font-size:13;text-anchor:middle;" transform="matrix(1 0 0 1 1153.13 322)">Light</text>
  <text style="stroke:none;fill:black;font-family:sans-serif;font-size:13;text-anchor:middle;" transform="matrix(1 0 0 1 1449.84 322)">Regular</text>
  <text style="stroke:none;fill:black;font-family:sans-serif;font-size:13;text-anchor:middle;" transform="matrix(1 0 0 1 1746.56 322)">Medium</text>
  <text style="stroke:none;fill:black;font-family:sans-serif;font-size:13;text-anchor:middle;" transform="matrix(1 0 0 1 2043.27 322)">Semibold</text>
  <text style="stroke:none;fill:black;font-family:sans-serif;font-size:13;text-anchor:middle;" transform="matrix(1 0 0 1 2339.98 322)">Bold</text>
  <text style="stroke:none;fill:black;font-family:sans-serif;font-size:13;text-anchor:middle;" transform="matrix(1 0 0 1 2636.69 322)">Heavy</text>
  <text style="stroke:none;fill:black;font-family:sans-serif;font-size:13;text-anchor:middle;" transform="matrix(1 0 0 1 2933.4 322)">Black</text>
  <line style="fill:none;stroke:black;opacity:1;stroke-width:0.5;" x1="263" x2="3036" y1="1903" y2="1903"/>
  <g transform="matrix(1 0 0 1 263 1933)">
   <path d="M9.24805 0.830078Q10.8691 0.830078 12.2949 0.214844Q13.7207-0.400391 14.8096-1.49414Q15.8984-2.58789 16.5186-4.01367Q17.1387-5.43945 17.1387-7.05078Q17.1387-8.66211 16.5186-10.0879Q15.8984-11.5137 14.8047-12.6074Q13.7109-13.7012 12.2852-14.3164Q10.8594-14.9316 9.23828-14.9316Q7.62695-14.9316 6.20117-14.3164Q4.77539-13.7012 3.69141-12.6074Q2.60742-11.5137 1.9873-10.0879Q1.36719-8.66211 1.36719-7.05078Q1.36719-5.43945 1.9873-4.01367Q2.60742-2.58789 3.69629-1.49414Q4.78516-0.400391 6.21094 0.214844Q7.63672 0.830078 9.24805 0.830078ZM9.24805-0.654297Q7.91992-0.654297 6.7627-1.14746Q5.60547-1.64062 4.73145-2.51953Q3.85742-3.39844 3.36426-4.56055Q2.87109-5.72266 2.87109-7.05078Q2.87109-8.37891 3.35938-9.54102Q3.84766-10.7031 4.72168-11.582Q5.5957-12.4609 6.75293-12.9541Q7.91016-13.4473 9.23828-13.4473Q10.5762-13.4473 11.7383-12.9541Q12.9004-12.4609 13.7793-11.582Q14.6582-10.7031 15.1514-9.54102Q15.6445-8.37891 15.6445-7.05078Q15.6445-5.72266 15.1514-4.56055Q14.6582-3.39844 13.7793-2.51953Q12.9004-1.64062 11.7432-1.14746Q10.5859-0.654297 9.24805-0.654297ZM5.6543-7.05078Q5.6543-6.72852 5.85938-6.52832Q6.06445-6.32812 6.40625-6.32812L8.51562-6.32812L8.51562-4.20898Q8.51562-3.88672 8.71094-3.67676Q8.90625-3.4668 9.23828-3.4668Q9.56055-3.4668 9.77051-3.67676Q9.98047-3.88672 9.98047-4.20898L9.98047-6.32812L12.0898-6.32812Q12.4219-6.32812 12.627-6.52832Q12.832-6.72852 12.832-7.05078Q12.832-7.38281 12.627-7.58789Q12.4219-7.79297 12.0898-7.79297L9.98047-7.79297L9.98047-9.90234Q9.98047-10.2344 9.77051-10.4443Q9.56055-10.6543 9.23828-10.6543Q8.90625-10.6543 8.71094-10.4443Q8.51562-10.2344 8.51562-9.90234L8.51562-7.79297L6.40625-7.79297Q6.06445-7.79297 5.85938-7.58789Q5.6543-7.38281 5.6543-7.05078Z"/>
  </g>
  <g transform="matrix(1 0 0 1 281.867 1933)">
   <path d="M11.709 2.91016Q13.75 2.91016 15.5518 2.12891Q17.3535 1.34766 18.7305-0.0292969Q20.1074-1.40625 20.8887-3.20801Q21.6699-5.00977 21.6699-7.05078Q21.6699-9.0918 20.8887-10.8936Q20.1074-12.6953 18.7305-14.0723Q17.3535-15.4492 15.5469-16.2305Q13.7402-17.0117 11.6992-17.0117Q9.6582-17.0117 7.85645-16.2305Q6.05469-15.4492 4.68262-14.0723Q3.31055-12.6953 2.5293-10.8936Q1.74805-9.0918 1.74805-7.05078Q1.74805-5.00977 2.5293-3.20801Q3.31055-1.40625 4.6875-0.0292969Q6.06445 1.34766 7.86621 2.12891Q9.66797 2.91016 11.709 2.91016ZM11.709 1.25Q9.98047 1.25 8.47656 0.605469Q6.97266-0.0390625 5.83496-1.17676Q4.69727-2.31445 4.05762-3.81836Q3.41797-5.32227 3.41797-7.05078Q3.41797-8.7793 4.05762-10.2832Q4.69727-11.7871 5.83008-12.9297Q6.96289-14.0723 8.4668-14.7119Q9.9707-15.3516 11.6992-15.3516Q13.4277-15.3516 14.9365-14.7119Q16.4453-14.0723 17.583-12.9297Q18.7207-11.7871 19.3652-10.2832Q20.0098-8.7793 20.0098-7.05078Q20.0098-5.32227 19.3701-3.81836Q18.7305-2.31445 17.5879-1.17676Q16.4453-0.0390625 14.9414 0.605469Q13.4375 1.25 11.709 1.25ZM7.17773-7.05078Q7.17773-6.69922 7.41211-6.47461Q7.64648-6.25 8.01758-6.25L10.8887-6.25L10.8887-3.36914Q10.8887-2.99805 11.1133-2.76855Q11.3379-2.53906 11.6895-2.53906Q12.0605-2.53906 12.29-2.76855Q12.5195-2.99805 12.5195-3.36914L12.5195-6.25L15.4004-6.25Q15.7715-6.25 16.001-6.47461Q16.2305-6.69922 16.2305-7.05078Q16.2305-7.42188 16.001-7.65137Q15.7715-7.88086 15.4004-7.88086L12.5195-7.88086L12.5195-10.752Q12.5195-11.1328 12.29-11.3623Q12.0605-11.5918 11.6895-11.5918Q11.3379-11.5918 11.1133-11.3574Q10.8887-11.123 10.8887-10.752L10.8887-7.88086L8.01758-7.88086Q7.63672-7.88086 7.40723-7.65137Q7.17773-7.42188 7.17773-7.05078Z"/>
  </g>
  <g transform="matrix(1 0 0 1 305.646 1933)">
   <path d="M14.9707 5.66406Q17.0605 5.66406 18.96 5.01465Q20.8594 4.36523 22.4512 3.19336Q24.043 2.02148 25.2197 0.429688Q26.3965-1.16211 27.0459-3.06641Q27.6953-4.9707 27.6953-7.05078Q27.6953-9.14062 27.0459-11.04Q26.3965-12.9395 25.2197-14.5312Q24.043-16.123 22.4512-17.2998Q20.8594-18.4766 18.9551-19.126Q17.0508-19.7754 14.9609-19.7754Q12.8711-19.7754 10.9717-19.126Q9.07227-18.4766 7.48535-17.2998Q5.89844-16.123 4.72168-14.5312Q3.54492-12.9395 2.90039-11.04Q2.25586-9.14062 2.25586-7.05078Q2.25586-4.9707 2.90527-3.06641Q3.55469-1.16211 4.72656 0.429688Q5.89844 2.02148 7.49023 3.19336Q9.08203 4.36523 10.9814 5.01465Q12.8809 5.66406 14.9707 5.66406ZM14.9707 3.84766Q13.1641 3.84766 11.5283 3.2959Q9.89258 2.74414 8.53516 1.74805Q7.17773 0.751953 6.17676-0.610352Q5.17578-1.97266 4.62891-3.6084Q4.08203-5.24414 4.08203-7.05078Q4.08203-8.86719 4.62891-10.5029Q5.17578-12.1387 6.17188-13.501Q7.16797-14.8633 8.52539-15.8594Q9.88281-16.8555 11.5186-17.4023Q13.1543-17.9492 14.9609-17.9492Q16.7773-17.9492 18.4131-17.4023Q20.0488-16.8555 21.4111-15.8594Q22.7734-14.8633 23.7744-13.501Q24.7754-12.1387 25.3223-10.5029Q25.8691-8.86719 25.8691-7.05078Q25.8691-5.24414 25.3223-3.6084Q24.7754-1.97266 23.7793-0.610352Q22.7832 0.751953 21.4209 1.74805Q20.0586 2.74414 18.4229 3.2959Q16.7871 3.84766 14.9707 3.84766ZM9.19922-7.05078Q9.19922-6.66992 9.45801-6.4209Q9.7168-6.17188 10.1172-6.17188L14.0625-6.17188L14.0625-2.2168Q14.0625-1.81641 14.3115-1.55762Q14.5605-1.29883 14.9512-1.29883Q15.3516-1.29883 15.6104-1.55273Q15.8691-1.80664 15.8691-2.2168L15.8691-6.17188L19.8242-6.17188Q20.2246-6.17188 20.4785-6.4209Q20.7324-6.66992 20.7324-7.05078Q20.7324-7.46094 20.4785-7.71484Q20.2246-7.96875 19.8242-7.96875L15.8691-7.96875L15.8691-11.9141Q15.8691-12.3242 15.6104-12.583Q15.3516-12.8418 14.9512-12.8418Q14.5605-12.8418 14.3115-12.583Q14.0625-12.3242 14.0625-11.9141L14.0625-7.96875L10.1172-7.96875Q9.70703-7.96875 9.45312-7.71484Q9.19922-7.46094 9.19922-7.05078Z"/>
  </g>
  <text style="stroke:none;fill:black;font-family:sans-serif;font-size:13;font-weight:bold;" transform="matrix(1 0 0 1 263 1953)">Design Variations</text>
  <text style="stroke:none;fill:black;font-family:sans-serif;font-size:13;" transform="matrix(1 0 0 1 263 1971)">Symbols are supported in up to nine weights and three scales.</text>
  <text style="stroke:none;fill:black;font-family:sans-serif;font-size:13;" transform="matrix(1 0 0 1 263 1989)">For optimal layout with text and other symbols, vertically align</text>
  <text style="stroke:none;fill:black;font-family:sans-serif;font-size:13;" transform="matrix(1 0 0 1 263 2007)">symbols with the adjacent text.</text>
  <line style="fill:none;stroke:#00AEEF;stroke-width:0.5;opacity:1.0;" x1="776" x2="776" y1="1919" y2="1933"/>
  <g transform="matrix(1 0 0 1 776 1933)">
   <path d="M3.31055 0.15625Q3.70117 0.15625 3.91602-0.00976562Q4.13086-0.175781 4.26758-0.585938L5.52734-4.0332L11.2891-4.0332L12.5488-0.585938Q12.6855-0.175781 12.9004-0.00976562Q13.1152 0.15625 13.4961 0.15625Q13.8867 0.15625 14.1162-0.0585938Q14.3457-0.273438 14.3457-0.644531Q14.3457-0.869141 14.2383-1.17188L9.6582-13.3691Q9.48242-13.8184 9.17969-14.043Q8.87695-14.2676 8.4082-14.2676Q7.5-14.2676 7.17773-13.3789L2.59766-1.16211Q2.49023-0.859375 2.49023-0.634766Q2.49023-0.263672 2.70996-0.0537109Q2.92969 0.15625 3.31055 0.15625ZM6.00586-5.51758L8.37891-12.0898L8.42773-12.0898L10.8008-5.51758Z"/>
  </g>
  <line style="fill:none;stroke:#00AEEF;stroke-width:0.5;opacity:1.0;" x1="793.197" x2="793.197" y1="1919" y2="1933"/>
  <text style="stroke:none;fill:black;font-family:sans-serif;font-size:13;font-weight:bold;" transform="matrix(1 0 0 1 776 1953)">Margins</text>
  <text style="stroke:none;fill:black;font-family:sans-serif;font-size:13;" transform="matrix(1 0 0 1 776 1971)">Leading and trailing margins on the left and right side of each symbol</text>
  <text style="stroke:none;fill:black;font-family:sans-serif;font-size:13;" transform="matrix(1 0 0 1 776 1989)">can be adjusted by modifying the x-location of the margin guidelines.</text>
  <text style="stroke:none;fill:black;font-family:sans-serif;font-size:13;" transform="matrix(1 0 0 1 776 2007)">Modifications are automatically applied proportionally to all</text>
  <text style="stroke:none;fill:black;font-family:sans-serif;font-size:13;" transform="matrix(1 0 0 1 776 2025)">scales and weights.</text>
  <g transform="matrix(1 0 0 1 1289 1933)">
   <path d="M2.8418 1.86523L4.54102 3.57422Q5.18555 4.22852 5.90332 4.17969Q6.62109 4.13086 7.31445 3.35938L18.0078-8.42773L17.041-9.4043L6.42578 2.27539Q6.16211 2.57812 5.89355 2.61719Q5.625 2.65625 5.27344 2.30469L4.10156 1.14258Q3.75 0.791016 3.79395 0.522461Q3.83789 0.253906 4.14062-0.0195312L15.6152-10.8203L14.6387-11.7871L3.04688-0.898438Q2.30469-0.214844 2.25098 0.498047Q2.19727 1.21094 2.8418 1.86523ZM9.25781-16.3281Q8.94531-16.0254 8.90625-15.6348Q8.86719-15.2441 9.04297-14.9512Q9.21875-14.6777 9.55566-14.541Q9.89258-14.4043 10.3809-14.5215Q11.4746-14.7754 12.5977-14.7314Q13.7207-14.6875 14.7949-13.9844L14.209-12.5293Q13.9551-11.9043 14.0674-11.4404Q14.1797-10.9766 14.5801-10.5664L16.875-8.25195Q17.2363-7.88086 17.5781-7.82227Q17.9199-7.76367 18.3398-7.8418L19.4043-8.03711L20.0684-7.36328L20.0293-6.80664Q20-6.43555 20.1221-6.12305Q20.2441-5.81055 20.6055-5.44922L21.3672-4.70703Q21.7285-4.3457 22.1533-4.33105Q22.5781-4.31641 22.9297-4.66797L25.8398-7.58789Q26.1914-7.93945 26.1816-8.35449Q26.1719-8.76953 25.8105-9.13086L25.0391-9.89258Q24.6875-10.2539 24.3799-10.3857Q24.0723-10.5176 23.7109-10.4883L23.1348-10.4395L22.4902-11.0742L22.7344-12.1973Q22.832-12.6172 22.6953-12.9834Q22.5586-13.3496 22.1191-13.7891L19.9219-15.9766Q18.6719-17.2168 17.2607-17.8369Q15.8496-18.457 14.4189-18.4814Q12.9883-18.5059 11.665-17.959Q10.3418-17.4121 9.25781-16.3281ZM10.752-15.957Q11.6602-16.6211 12.7002-16.9043Q13.7402-17.1875 14.8047-17.085Q15.8691-16.9824 16.8701-16.5137Q17.8711-16.0449 18.7012-15.2051L21.1328-12.793Q21.3086-12.6172 21.3525-12.4512Q21.3965-12.2852 21.3379-12.0312L21.0156-10.5469L22.5195-9.0625L23.5059-9.12109Q23.6914-9.13086 23.7891-9.09668Q23.8867-9.0625 24.0332-8.91602L24.6094-8.33984L22.168-5.89844L21.5918-6.47461Q21.4453-6.62109 21.4062-6.71875Q21.3672-6.81641 21.377-7.01172L21.4453-7.98828L19.9512-9.47266L18.4277-9.21875Q18.1836-9.16992 18.042-9.2041Q17.9004-9.23828 17.7148-9.41406L15.7129-11.416Q15.5176-11.5918 15.4932-11.7529Q15.4688-11.9141 15.5859-12.1875L16.4648-14.2773Q15.293-15.3711 13.8281-15.791Q12.3633-16.2109 10.8398-15.7617Q10.7227-15.7324 10.6885-15.8057Q10.6543-15.8789 10.752-15.957Z"/>
  </g>
  <text style="stroke:none;fill:black;font-family:sans-serif;font-size:13;font-weight:bold;" transform="matrix(1 0 0 1 1289 1953)">Exporting</text>
  <text style="stroke:none;fill:black;font-family:sans-serif;font-size:13;" transform="matrix(1 0 0 1 1289 1971)">Symbols should be outlined when exporting to ensure the</text>
  <text style="stroke:none;fill:black;font-family:sans-serif;font-size:13;" transform="matrix(1 0 0 1 1289 1989)">design is preserved when submitting to Xcode.</text>
  <text id="template-version" style="stroke:none;fill:black;font-family:sans-serif;font-size:13;text-anchor:end;" transform="matrix(1 0 0 1 3036 1933)">Template v.2.0</text>
  <text style="stroke:none;fill:black;font-family:sans-serif;font-size:13;text-anchor:end;" transform="matrix(1 0 0 1 3036 1951)">Requires Xcode 12 or greater</text>
  <text id="descriptive-name" style="stroke:none;fill:black;font-family:sans-serif;font-size:13;text-anchor:end;" transform="matrix(1 0 0 1 3036 1969)">Generated from figure.racquetball</text>
  <text style="stroke:none;fill:black;font-family:sans-serif;font-size:13;text-anchor:end;" transform="matrix(1 0 0 1 3036 1987)">Typeset at 100 points</text>
  <text style="stroke:none;fill:black;font-family:sans-serif;font-size:13;" transform="matrix(1 0 0 1 263 726)">Small</text>
  <text style="stroke:none;fill:black;font-family:sans-serif;font-size:13;" transform="matrix(1 0 0 1 263 1156)">Medium</text>
  <text style="stroke:none;fill:black;font-family:sans-serif;font-size:13;" transform="matrix(1 0 0 1 263 1586)">Large</text>
 </g>
 <g id="Guides">
  <g id="H-reference" style="fill:#27AAE1;stroke:none;" transform="matrix(1 0 0 1 339 696)">
   <path d="M0.993347 0L3.6377 0L29.3282-67.1326L30.0301-67.1326L30.0301-70.459L28.1227-70.459ZM11.6882-24.4797L46.9818-24.4797L46.2311-26.7288L12.4382-26.7288ZM55.1193 0L57.7637 0L30.6381-70.459L29.4327-70.459L29.4327-67.1326Z"/>
  </g>
  <line id="Baseline-S" style="fill:none;stroke:#27AAE1;opacity:1;stroke-width:0.5;" x1="263" x2="3036" y1="696" y2="696"/>
  <line id="Capline-S" style="fill:none;stroke:#27AAE1;opacity:1;stroke-width:0.5;" x1="263" x2="3036" y1="625.541" y2="625.541"/>
  <g id="H-reference" style="fill:#27AAE1;stroke:none;" transform="matrix(1 0 0 1 339 1126)">
   <path d="M0.993347 0L3.6377 0L29.3282-67.1326L30.0301-67.1326L30.0301-70.459L28.1227-70.459ZM11.6882-24.4797L46.9818-24.4797L46.2311-26.7288L12.4382-26.7288ZM55.1193 0L57.7637 0L30.6381-70.459L29.4327-70.459L29.4327-67.1326Z"/>
  </g>
  <line id="Baseline-M" style="fill:none;stroke:#27AAE1;opacity:1;stroke-width:0.5;" x1="263" x2="3036" y1="1126" y2="1126"/>
  <line id="Capline-M" style="fill:none;stroke:#27AAE1;opacity:1;stroke-width:0.5;" x1="263" x2="3036" y1="1055.54" y2="1055.54"/>
  <g id="H-reference" style="fill:#27AAE1;stroke:none;" transform="matrix(1 0 0 1 339 1556)">
   <path d="M0.993347 0L3.6377 0L29.3282-67.1326L30.0301-67.1326L30.0301-70.459L28.1227-70.459ZM11.6882-24.4797L46.9818-24.4797L46.2311-26.7288L12.4382-26.7288ZM55.1193 0L57.7637 0L30.6381-70.459L29.4327-70.459L29.4327-67.1326Z"/>
  </g>
  <line id="Baseline-L" style="fill:none;stroke:#27AAE1;opacity:1;stroke-width:0.5;" x1="263" x2="3036" y1="1556" y2="1556"/>
  <line id="Capline-L" style="fill:none;stroke:#27AAE1;opacity:1;stroke-width:0.5;" x1="263" x2="3036" y1="1485.54" y2="1485.54"/>
  <line id="left-margin" style="fill:none;stroke:#00AEEF;stroke-width:0.5;opacity:1.0;" x1="1375.5" x2="1375.5" y1="1030.79" y2="1150.12"/>
  <line id="right-margin" style="fill:none;stroke:#00AEEF;stroke-width:0.5;opacity:1.0;" x1="1524.19" x2="1524.19" y1="1030.79" y2="1150.12"/>
 </g>
 <g id="Symbols">
  <g id="Black-L" transform="matrix(1 0 0 1 2831.48 1556)">
   <path d="M128.88-72.1724Q135.306-72.1724 139.839-76.7246Q144.373-81.2769 144.373-87.6649Q144.373-94.0892 139.839-98.6221Q135.306-103.155 128.88-103.155Q122.493-103.155 117.942-98.6221Q113.39-94.0892 113.39-87.6649Q113.39-81.2769 117.942-76.7246Q122.493-72.1724 128.88-72.1724ZM82.0638 31.2505Q84.6404 32.2287 87.5349 31.3601Q90.4293 30.4915 92.0873 27.1548L108.996-6.71844Q110.134-8.91615 109.824-11.4311Q109.514-13.9461 107.557-15.9013L88.2687-35.2119L112.602-47.367Q113.864-48.0012 114.826-47.0389L130.209-31.7363Q132.545-29.401 135.7-29.401L167.996-29.401Q171.253-29.401 173.589-31.7259Q175.925-34.0508 175.925-37.328Q175.925-40.6219 173.589-42.9578Q171.253-45.2938 167.996-45.2938L138.956-45.2938L110.828-73.5236Q105.361-79.1086 97.1539-79.1086L40.956-79.1086Q37.7217-79.1086 35.3857-76.8018Q33.0498-74.4951 33.0498-71.2012Q33.0498-67.946 35.3857-65.6101Q37.7217-63.2741 40.956-63.2741L78.9744-63.2741Q79.6334-63.2741 79.7644-62.8468Q79.8954-62.4195 79.2377-62.0614L70.5362-57.7321Q65.2289-55.0895 62.5467-50.4359Q59.8644-45.7824 59.8644-40.7372Q59.8644-36.3729 61.8461-32.2878Q63.8278-28.2026 67.8131-25.2823L91.802-7.77708L77.8513 20.0671Q75.8948 24.0229 77.5016 27.0672Q79.1084 30.1114 82.0638 31.2505ZM24.0694 4.41385L57.8634 4.41385Q62.8361 4.41385 65.0326 0.0416428L71.5516-13.1923L63.3469-19.1408Q59.5772-21.8703 56.9762-25.6772L52.2925-11.4414L24.0694-11.4414Q20.8142-11.4414 18.4491-9.13406Q16.084-6.82674 16.084-3.51318Q16.084-0.258023 18.4491 2.07792Q20.8142 4.41385 24.0694 4.41385ZM170.251-97.9361Q162.821-97.9361 157.772-92.9271Q152.723-87.9181 152.723-80.4883Q152.723-76.5559 154.017-72.5938Q155.311-68.6316 157.383-64.7466Q159.455-60.8616 161.918-57.0432Q164.38-53.2248 166.695-49.6227L173.727-49.6227Q176.043-53.1664 178.504-56.9263Q180.966-60.6863 183.068-64.5714Q185.169-68.4564 186.464-72.4477Q187.758-76.4391 187.758-80.4883Q187.758-87.9181 182.709-92.9271Q177.659-97.9361 170.251-97.9361ZM170.251-86.5251Q172.852-86.5251 174.6-84.8072Q176.347-83.0894 176.347-80.4883Q176.347-78.6349 175.485-75.847Q174.623-73.059 173.228-70.0309Q171.834-67.0027 170.251-64.3036Q168.706-67.0027 167.282-70.0309Q165.859-73.059 164.996-75.847Q164.133-78.6349 164.133-80.4883Q164.133-83.0894 165.88-84.8072Q167.628-86.5251 170.251-86.5251ZM164.593-37.328L175.925-37.328L175.925-55.9292L164.593-55.9292Z"/>
  </g>
  <g id="Heavy-L" transform="matrix(1 0 0 1 2536.32 1556)">
   <path d="M127.167-71.5552Q133.414-71.5552 137.822-75.9704Q142.23-80.3856 142.23-86.6186Q142.23-92.8604 137.822-97.2656Q133.414-101.671 127.167-101.671Q120.94-101.671 116.527-97.2656Q112.115-92.8604 112.115-86.6186Q112.115-80.3856 116.527-75.9704Q120.94-71.5552 127.167-71.5552ZM81.0484 29.9224Q83.5152 30.8549 86.2723 30.0251Q89.0295 29.1954 90.6142 25.996L107.315-7.43873Q108.402-9.5449 108.101-11.9385Q107.8-14.3322 105.936-16.1914L86.6383-35.5244L110.995-47.6823Q112.382-48.4042 113.483-47.3034L128.666-32.2Q130.892-29.9744 133.901-29.9744L165.39-29.9744Q168.509-29.9744 170.738-32.1849Q172.966-34.3954 172.966-37.5446Q172.966-40.6781 170.738-42.9065Q168.509-45.1349 165.39-45.1349L137.02-45.1349L109.175-73.0906Q103.835-78.525 95.8566-78.525L40.3636-78.525Q37.2804-78.525 35.052-76.3189Q32.8237-74.1127 32.8237-70.9792Q32.8237-67.8658 35.052-65.6374Q37.2804-63.409 40.3636-63.409L78.8874-63.409Q79.5094-63.409 79.6451-62.9425Q79.7809-62.476 79.1645-62.1455L69.7022-57.4474Q64.5179-54.8732 61.9063-50.3473Q59.2946-45.8215 59.2946-40.9086Q59.2946-36.6536 61.2239-32.6688Q63.1532-28.6839 67.0475-25.8597L90.8945-8.45156L77.0326 19.2331Q75.1677 23.0289 76.6943 25.929Q78.2208 28.8291 81.0484 29.9224ZM23.6988 3.41567L57.0587 3.41567Q61.807 3.41567 63.9075-0.755314L70.62-14.3442L62.7997-20.0138Q59.094-22.7256 56.58-26.4167L51.7443-11.7305L23.6988-11.7305Q20.5854-11.7305 18.3347-9.5216Q16.084-7.31269 16.084-4.15463Q16.084-1.0412 18.3347 1.18724Q20.5854 3.41567 23.6988 3.41567ZM167.871-96.8874Q160.704-96.8874 155.88-92.104Q151.057-87.3206 151.057-80.1533Q151.057-76.076 152.432-71.9736Q153.808-67.8712 155.918-63.9821Q158.028-60.093 160.358-56.5636Q162.688-53.0341 164.56-50.1686L171.101-50.1686Q172.979-52.9895 175.306-56.4743Q177.634-59.9592 179.766-63.8482Q181.898-67.7373 183.277-71.862Q184.655-75.9867 184.655-80.1533Q184.655-87.3206 179.829-92.104Q175.002-96.8874 167.871-96.8874ZM167.871-86.601Q170.655-86.601 172.512-84.7692Q174.369-82.9375 174.369-80.1533Q174.369-78.0165 173.4-75.0305Q172.43-72.0446 170.928-68.9436Q169.427-65.8427 167.871-63.2059Q166.33-65.8427 164.806-68.9436Q163.282-72.0446 162.31-75.0305Q161.337-78.0165 161.337-80.1533Q161.337-82.9375 163.194-84.7692Q165.051-86.601 167.871-86.601ZM162.755-37.5446L172.966-37.5446L172.966-55.5337L162.755-55.5337Z"/>
  </g>
  <g id="Bold-L" transform="matrix(1 0 0 1 2241.61 1556)">
   <path d="M124.897-70.7497Q130.929-70.7497 135.183-74.9996Q139.438-79.2494 139.438-85.2902Q139.438-91.3092 135.183-95.5568Q130.929-99.8045 124.897-99.8045Q118.87-99.8045 114.626-95.5568Q110.383-91.3092 110.383-85.2902Q110.383-79.2494 114.626-74.9996Q118.87-70.7497 124.897-70.7497ZM79.7063 28.2334Q82.0423 29.1119 84.6378 28.3283Q87.2333 27.5448 88.7334 24.507L105.15-8.33014Q106.177-10.3286 105.887-12.5798Q105.598-14.831 103.84-16.5748L84.5951-35.8714L108.901-47.9922Q110.419-48.8068 111.666-47.5592L126.582-32.724Q128.677-30.6293 131.516-30.6293L162.006-30.6293Q164.964-30.6293 167.065-32.7051Q169.167-34.7809 169.167-37.7763Q169.167-40.7249 167.065-42.8263Q164.964-44.9277 162.006-44.9277L134.473-44.9277L107.034-72.4857Q101.855-77.7357 94.1537-77.7357L39.626-77.7357Q36.7199-77.7357 34.6185-75.6488Q32.5172-73.5619 32.5172-70.6132Q32.5172-67.669 34.6185-65.5677Q36.7199-63.4663 39.626-63.4663L78.5786-63.4663Q79.1619-63.4663 79.3016-62.9573Q79.4412-62.4483 78.8711-62.1486L68.598-57.0567Q63.5673-54.5671 61.044-50.1987Q58.5207-45.8303 58.5207-41.079Q58.5207-36.9622 60.3847-33.1003Q62.2486-29.2385 66.0277-26.5296L89.6384-9.28903L75.9215 18.1289Q74.1643 21.7323 75.5984 24.4631Q77.0325 27.1939 79.7063 28.2334ZM23.2602 2.17862L56.03 2.17862Q60.5166 2.17862 62.5017-1.7539L69.4227-15.7212L62.0565-21.06Q58.4276-23.7412 56.0138-27.3162L51.0159-12.1289L23.2602-12.1289Q20.3159-12.1289 18.2-10.0354Q16.084-7.94197 16.084-4.96857Q16.084-2.02436 18.2 0.0771285Q20.3159 2.17862 23.2602 2.17862ZM164.794-95.4547Q157.979-95.4547 153.436-90.9517Q148.893-86.4488 148.893-79.634Q148.893-75.432 150.342-71.2089Q151.792-66.9858 153.926-63.1189Q156.06-59.2521 158.232-56.0538Q160.404-52.8556 161.798-50.7927L167.709-50.7927Q169.116-52.8264 171.282-55.9954Q173.448-59.1645 175.596-63.0313Q177.744-66.8981 179.201-71.1359Q180.657-75.3736 180.657-79.634Q180.657-86.4488 176.107-90.9517Q171.557-95.4547 164.794-95.4547ZM164.794-86.5815Q167.794-86.5815 169.789-84.6076Q171.784-82.6337 171.784-79.634Q171.784-77.1588 170.68-73.9232Q169.576-70.6877 167.944-67.4946Q166.311-64.3015 164.794-61.7638Q163.268-64.3015 161.621-67.4946Q159.974-70.6877 158.863-73.9232Q157.753-77.1588 157.753-79.634Q157.753-82.6337 159.748-84.6076Q161.743-86.5815 164.794-86.5815ZM160.361-37.7763L169.167-37.7763L169.167-55.0272L160.361-55.0272Z"/>
  </g>
  <g id="Semibold-L" transform="matrix(1 0 0 1 1946.27 1556)">
   <path d="M123.332-70.1944Q129.216-70.1944 133.364-74.3302Q137.512-78.4661 137.512-84.3744Q137.512-90.2398 133.364-94.3788Q129.216-98.5179 123.332-98.5179Q117.442-98.5179 113.316-94.3788Q109.189-90.2398 109.189-84.3744Q109.189-78.4661 113.316-74.3302Q117.442-70.1944 123.332-70.1944ZM78.7811 27.069Q81.0268 27.9103 83.511 27.1585Q85.9951 26.4068 87.4368 23.4805L103.658-8.94467Q104.642-10.8688 104.361-13.0218Q104.079-15.1749 102.396-16.8391L83.1865-36.1106L107.457-48.2059Q109.066-49.0843 110.414-47.7355L125.145-33.0853Q127.149-31.0808 129.872-31.0808L159.674-31.0808Q162.52-31.0808 164.534-33.0637Q166.548-35.0466 166.548-37.936Q166.548-40.7572 164.534-42.7711Q162.52-44.7849 159.674-44.7849L132.718-44.7849L105.558-72.0687Q100.491-77.1915 92.9798-77.1915L39.1175-77.1915Q36.3335-77.1915 34.3197-75.1868Q32.3059-73.1821 32.3059-70.3609Q32.3059-67.5334 34.3197-65.5195Q36.3335-63.5057 39.1175-63.5057L78.3658-63.5057Q78.9223-63.5057 79.0647-62.9675Q79.2071-62.4292 78.6689-62.1508L67.8367-56.7874Q62.9119-54.3561 60.4496-50.0963Q57.9872-45.8365 57.9872-41.1965Q57.9872-37.1749 59.8061-33.3978Q61.625-29.6208 65.3247-26.9915L88.7724-9.86638L75.1555 17.3676Q73.4726 20.8385 74.843 23.4525Q76.2134 26.0666 78.7811 27.069ZM22.9577 1.32581L55.3209 1.32581Q59.627 1.32581 61.5325-2.44232L68.5972-16.6705L61.5441-21.7812Q57.9683-24.4413 55.6234-27.9364L50.5137-12.4035L22.9577-12.4035Q20.1302-12.4035 18.1071-10.3897Q16.084-8.3758 16.084-5.52969Q16.084-2.70215 18.1071-0.688173Q20.1302 1.32581 22.9577 1.32581ZM162.672-94.467Q156.101-94.467 151.751-90.1574Q147.401-85.8477 147.401-79.2761Q147.401-74.9881 148.902-70.6817Q150.402-66.3753 152.552-62.5238Q154.702-58.6723 156.766-55.7024Q158.829-52.7325 159.893-51.223L165.371-51.223Q166.453-52.714 168.508-55.6653Q170.562-58.6166 172.721-62.4681Q174.881-66.3196 176.391-70.6353Q177.9-74.951 177.9-79.2761Q177.9-85.8477 173.541-90.1574Q169.182-94.467 162.672-94.467ZM162.672-86.5681Q165.821-86.5681 167.911-84.4962Q170.001-82.4243 170.001-79.2761Q170.001-76.5675 168.805-73.1598Q167.608-69.7522 165.886-66.4956Q164.163-63.239 162.672-60.7696Q161.157-63.239 159.425-66.4956Q157.693-69.7522 156.487-73.1598Q155.281-76.5675 155.281-79.2761Q155.281-82.4243 157.372-84.4962Q159.462-86.5681 162.672-86.5681ZM158.711-37.936L166.548-37.936L166.548-54.678L158.711-54.678Z"/>
  </g>
  <g id="Medium-L" transform="matrix(1 0 0 1 1650.61 1556)">
   <path d="M122.146-69.7733Q127.917-69.7733 131.985-73.8228Q136.053-77.8722 136.053-83.6801Q136.053-89.4289 131.985-93.4856Q127.917-97.5423 122.146-97.5423Q116.36-97.5423 112.322-93.4856Q108.284-89.4289 108.284-83.6801Q108.284-77.8722 112.322-73.8228Q116.36-69.7733 122.146-69.7733ZM78.0795 26.1861Q80.2569 26.9992 82.6565 26.2716Q85.0562 25.544 86.4536 22.7022L102.527-9.41064Q103.479-11.2785 103.203-13.357Q102.928-15.4356 101.301-17.0395L82.1184-36.292L106.362-48.3678Q108.039-49.2948 109.465-47.8692L124.055-33.3593Q125.991-31.4232 128.625-31.4232L157.905-31.4232Q160.667-31.4232 162.614-33.3356Q164.562-35.2481 164.562-38.0571Q164.562-40.7817 162.614-42.7291Q160.667-44.6766 157.905-44.6766L131.386-44.6766L104.438-71.7526Q99.4558-76.7789 92.0896-76.7789L38.732-76.7789Q36.0405-76.7789 34.0931-74.8365Q32.1457-72.8942 32.1457-70.1696Q32.1457-67.4305 34.0931-65.4831Q36.0405-63.5356 38.732-63.5356L78.2043-63.5356Q78.7407-63.5356 78.8851-62.9752Q79.0296-62.4147 78.5155-62.1524L67.2595-56.5832Q62.415-54.1961 59.9989-50.0186Q57.5827-45.8411 57.5827-41.2855Q57.5827-37.3362 59.3674-33.6234Q61.1522-29.9106 64.7916-27.3417L88.1158-10.3041L74.5746 16.7904Q72.9481 20.1607 74.2701 22.6863Q75.5922 25.2118 78.0795 26.1861ZM22.7284 0.67917L54.7831 0.67917Q58.9524 0.67917 60.7976-2.96431L67.9714-17.3902L61.1556-22.3281Q57.6199-24.9722 55.3274-28.4066L50.1329-12.6117L22.7284-12.6117Q19.9894-12.6117 18.0367-10.6582Q16.084-8.70474 16.084-5.95515Q16.084-3.21608 18.0367-1.26846Q19.9894 0.67917 22.7284 0.67917ZM161.064-93.7181Q154.677-93.7181 150.473-89.5551Q146.27-85.392 146.27-79.0046Q146.27-74.6515 147.809-70.282Q149.348-65.9125 151.511-62.0726Q153.673-58.2327 155.654-55.436Q157.635-52.6392 158.449-51.5492L163.598-51.5492Q164.434-52.6287 166.404-55.415Q168.374-58.2012 170.542-62.0411Q172.709-65.881 174.26-70.2557Q175.81-74.6305 175.81-79.0046Q175.81-85.392 171.596-89.5551Q167.381-93.7181 161.064-93.7181ZM161.064-86.5579Q164.325-86.5579 166.487-84.4117Q168.65-82.2655 168.65-79.0046Q168.65-76.1191 167.383-72.581Q166.116-69.0429 164.326-65.7382Q162.535-62.4334 161.064-60.0158Q159.556-62.4334 157.76-65.7382Q155.964-69.0429 154.686-72.581Q153.408-76.1191 153.408-79.0046Q153.408-82.2655 155.57-84.4117Q157.733-86.5579 161.064-86.5579ZM157.459-38.0571L164.562-38.0571L164.562-54.4132L157.459-54.4132Z"/>
  </g>
  <g id="Regular-L" transform="matrix(1 0 0 1 1355.26 1556)">
   <path d="M120.598-69.2241Q126.222-69.2241 130.185-73.1608Q134.149-77.0975 134.149-82.7744Q134.149-88.3713 130.185-92.3205Q126.222-96.2698 120.598-96.2698Q114.949-96.2698 111.026-92.3205Q107.103-88.3713 107.103-82.7744Q107.103-77.0975 111.026-73.1608Q114.949-69.2241 120.598-69.2241ZM77.1645 25.0345Q79.2526 25.8108 81.5421 25.1147Q83.8315 24.4185 85.1713 21.687L101.051-10.0184Q101.961-11.8128 101.693-13.7943Q101.426-15.7757 99.8725-17.3009L80.7253-36.5285L104.934-48.5791Q106.701-49.5693 108.226-48.0436L122.634-33.7166Q124.481-31.8697 126.999-31.8697L155.598-31.8697Q158.249-31.8697 160.11-33.6903Q161.971-35.511 161.971-38.2151Q161.971-40.8136 160.11-42.6745Q158.249-44.5353 155.598-44.5353L129.65-44.5353L102.979-71.3402Q98.106-76.2407 90.9286-76.2407L38.2291-76.2407Q35.6584-76.2407 33.7975-74.3797Q31.9367-72.5186 31.9367-69.92Q31.9367-67.2963 33.7975-65.4355Q35.6584-63.5747 38.2291-63.5747L77.9938-63.5747Q78.5037-63.5747 78.6509-62.9852Q78.798-62.3958 78.3155-62.1545L66.5066-56.3168Q61.7669-53.9874 59.4109-49.9173Q57.055-45.8472 57.055-41.4017Q57.055-37.5466 58.7952-33.9176Q60.5354-30.2887 64.0963-27.7985L87.2594-10.8752L73.817 16.0375Q72.2639 19.2767 73.523 21.6868Q74.7821 24.0969 77.1645 25.0345ZM22.4294-0.164271L54.0818-0.164271Q58.0726-0.164271 59.8391-3.64516L67.155-18.3291L60.6488-23.0414Q57.1656-25.6646 54.9413-29.0199L49.6363-12.8834L22.4294-12.8834Q19.8057-12.8834 17.9448-11.0086Q16.084-9.1338 16.084-6.51011Q16.084-3.88642 17.9448-2.02535Q19.8057-0.164271 22.4294-0.164271ZM158.965-92.7413Q152.819-92.7413 148.807-88.7695Q144.795-84.7976 144.795-78.6506Q144.795-74.2125 146.384-69.7606Q147.974-65.3088 150.152-61.4841Q152.331-57.6594 154.205-55.0885Q156.078-52.5175 156.566-51.9747L161.285-51.9747Q161.8-52.5175 163.66-55.0885Q165.52-57.6594 167.698-61.4841Q169.877-65.3088 171.481-69.7606Q173.084-74.2125 173.084-78.6506Q173.084-84.7976 169.058-88.7695Q165.032-92.7413 158.965-92.7413ZM158.965-86.5446Q162.374-86.5446 164.631-84.3015Q166.887-82.0584 166.887-78.6506Q166.887-75.5343 165.529-71.826Q164.17-68.1178 162.291-64.7502Q160.411-61.3826 158.965-59.0326Q157.468-61.3826 155.588-64.7502Q153.708-68.1178 152.336-71.826Q150.964-75.5343 150.964-78.6506Q150.964-82.0584 153.22-84.3015Q155.477-86.5446 158.965-86.5446ZM155.827-38.2151L161.971-38.2151L161.971-54.0678L155.827-54.0678Z"/>
  </g>
  <g id="Light-L" transform="matrix(1 0 0 1 1060.43 1556)">
   <path d="M118.079-68.4036Q123.588-68.4036 127.456-72.2543Q131.324-76.1051 131.324-81.6482Q131.324-87.1118 127.456-90.956Q123.588-94.8002 118.079-94.8002Q112.582-94.8002 108.755-90.956Q104.927-87.1118 104.927-81.6482Q104.927-76.1051 108.755-72.2543Q112.582-68.4036 118.079-68.4036ZM75.6949 23.5841Q77.7257 24.3412 79.9579 23.6642Q82.1901 22.9871 83.5109 20.313L99.0284-10.6293Q99.9-12.3855 99.6417-14.3192Q99.3833-16.2529 97.8684-17.7207L79.1602-36.5093L102.815-48.2739Q104.525-49.2259 105.993-47.7573L120.076-33.7548Q121.866-31.9653 124.346-31.9653L152.258-31.9653Q154.852-31.9653 156.665-33.7381Q158.478-35.511 158.478-38.1388Q158.478-40.6992 156.665-42.5122Q154.852-44.3253 152.258-44.3253L126.94-44.3253L100.898-70.4815Q96.1593-75.2676 89.1345-75.2676L37.6945-75.2676Q35.1812-75.2676 33.3682-73.4541Q31.5551-71.6406 31.5551-69.0802Q31.5551-66.5329 33.3682-64.7198Q35.1812-62.9067 37.6945-62.9067L76.4861-62.9067Q77.0149-62.9067 77.1526-62.3267Q77.2903-61.7468 76.8078-61.5055L65.2852-55.8015Q60.66-53.5295 58.3709-49.5642Q56.0818-45.599 56.0818-41.2491Q56.0818-37.5084 57.7743-33.9558Q59.4667-30.4032 62.932-27.9703L85.5417-11.4668L72.4238 14.8162Q70.9088 17.9598 72.1488 20.3126Q73.3888 22.6654 75.6949 23.5841ZM22.2575-1.02299L53.1657-1.02299Q57.0802-1.02299 58.7893-4.40864L66.0481-18.9589L59.7138-23.5378Q56.2687-26.0844 54.0633-29.5352L48.8158-13.4179L22.2575-13.4179Q19.7101-13.4179 17.897-11.5813Q16.084-9.74465 16.084-7.19727Q16.084-4.6499 17.897-2.83645Q19.7101-1.02299 22.2575-1.02299ZM156.007-90.8901Q150.281-90.8901 146.469-87.1187Q142.657-83.3473 142.657-77.62Q142.657-73.449 144.123-69.2548Q145.588-65.0606 147.633-61.4268Q149.679-57.7931 151.485-55.2794Q153.292-52.7657 153.894-52.0702L158.041-52.0702Q158.689-52.7657 160.473-55.2794Q162.256-57.7931 164.301-61.4268Q166.347-65.0606 167.835-69.2548Q169.324-73.449 169.324-77.62Q169.324-83.3473 165.489-87.1187Q161.654-90.8901 156.007-90.8901ZM156.007-85.8003Q159.492-85.8003 161.863-83.4522Q164.235-81.1041 164.235-77.62Q164.235-74.3511 162.771-70.4424Q161.308-66.5337 159.351-63.0898Q157.395-59.6459 156.007-57.5056Q154.586-59.6459 152.63-63.0898Q150.673-66.5337 149.187-70.4424Q147.7-74.3511 147.7-77.62Q147.7-81.1041 150.071-83.4522Q152.443-85.8003 156.007-85.8003ZM153.423-38.1388L158.478-38.1388L158.478-53.6099L153.423-53.6099Z"/>
  </g>
  <g id="Thin-L" transform="matrix(1 0 0 1 766.205 1556)">
   <path d="M114.746-67.3183Q120.105-67.3183 123.847-71.0554Q127.588-74.7925 127.588-80.1588Q127.588-85.4459 123.847-89.1513Q120.105-92.8566 114.746-92.8566Q109.453-92.8566 105.751-89.1513Q102.05-85.4459 102.05-80.1588Q102.05-74.7925 105.751-71.0554Q109.453-67.3183 114.746-67.3183ZM73.7513 21.666Q75.7062 22.3976 77.8627 21.7458Q80.0192 21.094 81.3149 18.4958L96.3528-11.4372Q97.1739-13.1429 96.9281-15.0134Q96.6823-16.8839 95.2178-18.2758L77.0902-36.4839L100.013-47.8701Q101.648-48.7717 103.04-47.3786L116.693-33.8052Q118.408-32.0916 120.838-32.0916L147.84-32.0916Q150.359-32.0916 152.109-33.8013Q153.859-35.511 153.859-38.0378Q153.859-40.5478 152.109-42.2976Q150.359-44.0475 147.84-44.0475L123.356-44.0475L98.1468-69.3457Q93.5846-73.9804 86.7617-73.9804L36.9876-73.9804Q34.5502-73.9804 32.8003-72.2299Q31.0504-70.4795 31.0504-67.9695Q31.0504-65.5231 32.8003-63.7732Q34.5502-62.0233 36.9876-62.0233L74.492-62.0233Q75.0459-62.0233 75.171-61.4559Q75.2962-60.8884 74.8137-60.6471L63.6699-55.12Q59.196-52.9239 56.9954-49.0973Q54.7947-45.2707 54.7947-41.0472Q54.7947-37.458 56.424-34.0063Q58.0532-30.5546 61.3921-28.1976L83.2698-12.2492L70.5811 13.2008Q69.1166 16.218 70.3314 18.4952Q71.5461 20.7723 73.7513 21.666ZM22.0302-2.15871L51.954-2.15871Q55.7676-2.15871 57.4008-5.41841L64.5841-19.7918L58.4771-24.1943Q55.0826-26.6395 52.9021-30.2167L47.7305-14.1249L22.0302-14.1249Q19.5837-14.1249 17.8339-12.3387Q16.084-10.5525 16.084-8.10611Q16.084-5.65967 17.8339-3.90919Q19.5837-2.15871 22.0302-2.15871ZM152.094-88.4419Q146.923-88.4419 143.377-84.9355Q139.83-81.4291 139.83-76.257Q139.83-72.4392 141.131-68.5858Q142.433-64.7323 144.301-61.3511Q146.17-57.9699 147.888-55.5319Q149.606-53.094 150.36-52.1966L153.75-52.1966Q154.575-53.094 156.257-55.5319Q157.94-57.9699 159.808-61.3511Q161.677-64.7323 163.014-68.5858Q164.352-72.4392 164.352-76.257Q164.352-81.4291 160.769-84.9355Q157.186-88.4419 152.094-88.4419ZM152.094-84.816Q155.681-84.816 158.203-82.329Q160.726-79.842 160.726-76.257Q160.726-72.7862 159.124-68.6124Q157.521-64.4387 155.464-60.8939Q153.407-57.349 152.094-55.4861Q150.775-57.349 148.717-60.8939Q146.66-64.4387 145.022-68.6124Q143.384-72.7862 143.384-76.257Q143.384-79.842 145.906-82.329Q148.429-84.816 152.094-84.816ZM150.242-38.0378L153.859-38.0378L153.859-53.0043L150.242-53.0043Z"/>
  </g>
  <g id="Ultralight-L" transform="matrix(1 0 0 1 470.767 1556)">
   <path d="M113.04-66.7625Q118.321-66.7625 121.998-70.4413Q125.675-74.1202 125.675-79.3959Q125.675-84.5927 121.998-88.2269Q118.321-91.8611 113.04-91.8611Q107.85-91.8611 104.213-88.2269Q100.576-84.5927 100.576-79.3959Q100.576-74.1202 104.213-70.4413Q107.85-66.7625 113.04-66.7625ZM72.7558 20.6835Q74.6718 21.4021 76.7895 20.7632Q78.9072 20.1243 80.1902 17.565L94.9823-11.851Q95.7776-13.5309 95.5382-15.369Q95.2988-17.2071 93.8602-18.5602L76.03-36.4708L98.5782-47.6634Q100.174-48.539 101.527-47.1846L114.961-33.8311Q116.637-32.1564 119.041-32.1564L145.578-32.1564Q148.058-32.1564 149.776-33.8337Q151.493-35.511 151.493-37.9861Q151.493-40.4702 149.776-42.1877Q148.058-43.9052 145.578-43.9052L121.52-43.9052L96.7375-68.764Q92.2659-73.3212 85.5464-73.3212L36.6255-73.3212Q34.227-73.3212 32.5095-71.6029Q30.792-69.8847 30.792-67.4006Q30.792-65.0059 32.5095-63.2884Q34.227-61.5709 36.6255-61.5709L73.4706-61.5709Q74.0373-61.5709 74.1561-61.0098Q74.2748-60.4488 73.7923-60.2075L62.8425-54.7709Q58.4462-52.6137 56.2908-48.8581Q54.1355-45.1026 54.1355-40.9438Q54.1355-37.4321 55.7323-34.0321Q57.3292-30.6321 60.6034-28.3141L82.1062-12.65L69.6373 12.3734Q68.1986 15.3259 69.4005 17.5643Q70.6023 19.8026 72.7558 20.6835ZM21.9137-2.74042L51.3334-2.74042Q55.0953-2.74042 56.6896-5.93561L63.8343-20.2184L57.8437-24.5305Q54.475-26.9238 52.3074-30.5658L47.1746-14.487L21.9137-14.487Q19.519-14.487 17.8015-12.7267Q16.084-10.9663 16.084-8.5716Q16.084-6.17687 17.8015-4.45864Q19.519-2.74042 21.9137-2.74042ZM150.09-87.1879Q145.204-87.1879 141.793-83.8172Q138.382-80.4466 138.382-75.5588Q138.382-71.922 139.599-68.2431Q140.817-64.5642 142.595-61.3124Q144.373-58.0605 146.046-55.6613Q147.719-53.2621 148.55-52.2613L151.552-52.2613Q152.467-53.2621 154.098-55.6613Q155.729-58.0605 157.507-61.3124Q159.285-64.5642 160.545-68.2431Q161.805-71.922 161.805-75.5588Q161.805-80.4466 158.351-83.8172Q154.898-87.1879 150.09-87.1879ZM150.09-84.3119Q153.729-84.3119 156.329-81.7537Q158.929-79.1956 158.929-75.5588Q158.929-71.9846 157.255-67.6751Q155.582-63.3656 153.473-59.7691Q151.364-56.1726 150.09-54.4517Q148.823-56.1726 146.713-59.7691Q144.604-63.3656 142.888-67.6751Q141.173-71.9846 141.173-75.5588Q141.173-79.1956 143.773-81.7537Q146.373-84.3119 150.09-84.3119ZM148.614-37.9861L151.493-37.9861L151.493-52.6941L148.614-52.6941Z"/>
  </g>
  <g id="Black-M" transform="matrix(1 0 0 1 2853.36 1126)">
   <path d="M100.98-64.2699Q106.096-64.2699 109.703-67.9029Q113.31-71.5359 113.31-76.6Q113.31-81.716 109.703-85.3233Q106.096-88.9306 100.98-88.9306Q95.9156-88.9306 92.2825-85.3233Q88.6494-81.716 88.6494-76.6Q88.6494-71.5359 92.2825-67.9029Q95.9156-64.2699 100.98-64.2699ZM64.2519 17.2202Q66.3347 18.0149 68.6874 17.3111Q71.0401 16.6073 72.385 13.9119L85.6144-12.6045Q86.534-14.3807 86.2872-16.4269Q86.0404-18.4732 84.4512-20.0627L69.5745-34.9446L88.3314-44.3206Q89.1943-44.7314 89.8132-44.1125L101.858-32.1298Q103.754-30.234 106.319-30.234L131.941-30.234Q134.574-30.234 136.47-32.1271Q138.366-34.0201 138.366-36.6587Q138.366-39.3434 136.47-41.2391Q134.574-43.1348 131.941-43.1348L108.952-43.1348L87.0016-65.1534Q82.6748-69.5942 76.1411-69.5942L32.167-69.5942Q29.5391-69.5942 27.6434-67.727Q25.7477-65.8599 25.7477-63.1752Q25.7477-60.5418 27.6434-58.6461Q29.5391-56.7504 32.167-56.7504L61.0553-56.7504Q61.6001-56.7504 61.6963-56.4543Q61.7925-56.1582 61.2474-55.8571L55.1986-52.838Q50.9967-50.7396 48.867-47.0389Q46.7374-43.3381 46.7374-39.3285Q46.7374-35.869 48.3112-32.6281Q49.8851-29.3873 53.038-27.0501L71.6701-13.4614L60.8295 8.16242Q59.2402 11.3516 60.5514 13.8263Q61.8626 16.301 64.2519 17.2202ZM18.9428-3.7746L45.3967-3.7746Q49.4318-3.7746 51.2082-7.32198L56.0846-17.2516L49.4211-22.0819Q46.4507-24.2014 44.3633-27.2632L40.8732-16.6238L18.9428-16.6238Q16.3094-16.6238 14.3852-14.7568Q12.4609-12.8898 12.4609-10.1993Q12.4609-7.56599 14.3852-5.67029Q16.3094-3.7746 18.9428-3.7746ZM133.545-84.4613Q127.62-84.4613 123.542-80.414Q119.463-76.3666 119.463-70.4416Q119.463-67.5558 120.379-64.6416Q121.295-61.7274 122.849-58.7469Q124.404-55.7663 126.417-52.5675Q128.429-49.3687 130.618-45.9243L136.41-45.9243Q138.599-49.3116 140.612-52.4533Q142.624-55.5951 144.207-58.5756Q145.791-61.5561 146.706-64.4989Q147.622-67.4416 147.622-70.4416Q147.622-76.3666 143.543-80.414Q139.465-84.4613 133.545-84.4613ZM133.545-74.8043Q135.413-74.8043 136.689-73.5571Q137.965-72.3098 137.965-70.4416Q137.965-69.2286 137.374-67.2117Q136.784-65.1948 135.785-62.901Q134.787-60.6072 133.545-58.4909Q132.355-60.6072 131.328-62.901Q130.301-65.1948 129.711-67.2117Q129.121-69.2286 129.121-70.4416Q129.121-72.3098 130.396-73.5571Q131.672-74.8043 133.545-74.8043ZM128.771-36.6587L138.366-36.6587L138.366-51.5442L128.771-51.5442Z"/>
  </g>
  <g id="Heavy-M" transform="matrix(1 0 0 1 2557.99 1126)">
   <path d="M99.5376-63.7423Q104.49-63.7423 107.983-67.2492Q111.476-70.7562 111.476-75.6811Q111.476-80.631 107.983-84.1231Q104.49-87.6153 99.5376-87.6153Q94.6149-87.6153 91.1091-84.1231Q87.6033-80.631 87.6033-75.6811Q87.6033-70.7562 91.1091-67.2492Q94.6149-63.7423 99.5376-63.7423ZM63.3948 16.0558Q65.3755 16.8074 67.5993 16.1399Q69.8231 15.4723 71.0981 12.9059L84.1576-13.2523Q85.0316-14.9425 84.7929-16.8745Q84.5541-18.8066 83.0508-20.3076L68.1252-35.2519L86.9561-44.657Q87.9461-45.157 88.7056-44.3976L100.586-32.5796Q102.38-30.7858 104.805-30.7858L129.702-30.7858Q132.206-30.7858 134.001-32.5714Q135.796-34.357 135.796-36.8776Q135.796-39.4089 134.001-41.2039Q132.206-42.9989 129.702-42.9989L107.309-42.9989L85.5776-64.8093Q81.3629-69.1134 75.0384-69.1134L31.6372-69.1134Q29.1518-69.1134 27.3568-67.3403Q25.5618-65.5671 25.5618-63.0357Q25.5618-60.5339 27.3568-58.7389Q29.1518-56.9439 31.6372-56.9439L61.1093-56.9439Q61.6163-56.9439 61.718-56.6086Q61.8196-56.2733 61.3149-55.9992L54.496-52.6073Q50.4037-50.5705 48.3369-46.9848Q46.2701-43.3992 46.2701-39.5102Q46.2701-36.1469 47.7971-32.9971Q49.3242-29.8473 52.3969-27.5986L70.9414-14.0662L60.1577 7.4598Q58.6544 10.5014 59.889 12.8405Q61.1235 15.1795 63.3948 16.0558ZM18.5964-4.67118L44.6945-4.67118Q48.5173-4.67118 50.2052-8.03062L55.2761-18.3197L48.9724-22.8895Q46.0611-24.9988 44.0571-27.9386L40.413-16.8571L18.5964-16.8571Q16.0945-16.8571 14.2777-15.0828Q12.4609-13.3085 12.4609-10.763Q12.4609-8.26116 14.2777-6.46617Q16.0945-4.67118 18.5964-4.67118ZM131.492-83.607Q125.785-83.607 121.908-79.7616Q118.032-75.9163 118.032-70.2092Q118.032-67.1571 119.038-64.082Q120.045-61.007 121.649-58.0048Q123.253-55.0027 125.143-52.0811Q127.032-49.1594 128.778-46.4492L134.143-46.4492Q135.891-49.1158 137.779-51.9938Q139.667-54.8719 141.293-57.874Q142.919-60.8761 143.927-63.973Q144.935-67.0699 144.935-70.2092Q144.935-75.9163 141.058-79.7616Q137.18-83.607 131.492-83.607ZM131.492-74.9471Q133.532-74.9471 134.904-73.5982Q136.275-72.2494 136.275-70.2092Q136.275-68.7333 135.59-66.5413Q134.905-64.3493 133.808-61.9913Q132.712-59.6334 131.492-57.5587Q130.298-59.6334 129.18-61.9913Q128.062-64.3493 127.376-66.5413Q126.689-68.7333 126.689-70.2092Q126.689-72.2494 128.061-73.5982Q129.433-74.9471 131.492-74.9471ZM127.196-36.8776L135.796-36.8776L135.796-51.1999L127.196-51.1999Z"/>
  </g>
  <g id="Bold-M" transform="matrix(1 0 0 1 2262.78 1126)">
   <path d="M97.924-63.1521Q102.693-63.1521 106.059-66.518Q109.425-69.8839 109.425-74.6531Q109.425-79.4172 106.059-82.7806Q102.693-86.144 97.924-86.144Q93.1599-86.144 89.7966-82.7806Q86.4332-79.4172 86.4332-74.6531Q86.4332-69.8839 89.7966-66.518Q93.1599-63.1521 97.924-63.1521ZM62.436 14.7531Q64.3026 15.4566 66.3821 14.8297Q68.4616 14.2027 69.6585 11.7805L82.528-13.9769Q83.351-15.5709 83.1212-17.3753Q82.8914-19.1796 81.4843-20.5815L66.5038-35.5957L85.4177-45.0333Q86.5499-45.6331 87.4665-44.7164L99.1625-33.0827Q100.842-31.403 103.111-31.403L127.196-31.403Q129.556-31.403 131.239-33.0684Q132.921-34.7339 132.921-37.1224Q132.921-39.4822 131.239-41.1645Q129.556-42.8468 127.196-42.8468L105.471-42.8468L83.9845-64.4243Q79.8955-68.5757 73.8048-68.5757L31.0446-68.5757Q28.7185-68.5757 27.0362-66.9076Q25.3539-65.2395 25.3539-62.8797Q25.3539-60.525 27.0362-58.8427Q28.7185-57.1604 31.0446-57.1604L61.1698-57.1604Q61.6343-57.1604 61.7421-56.7813Q61.8499-56.4022 61.3904-56.1582L53.7101-52.3492Q49.7404-50.3813 47.7439-46.9244Q45.7474-43.4675 45.7474-39.7134Q45.7474-36.4577 47.2221-33.4098Q48.6967-30.3618 51.6798-28.2122L70.1262-14.7427L59.4063 6.67382Q57.9991 9.5504 59.1479 11.7377Q60.2967 13.9249 62.436 14.7531ZM18.2088-5.67413L43.9091-5.67413Q47.4943-5.67413 49.0832-8.82335L54.3716-19.5144L48.4705-23.793Q45.6252-25.8907 43.7145-28.6941L39.8981-17.1181L18.2088-17.1181Q15.8541-17.1181 14.1575-15.4475Q12.4609-13.7769 12.4609-11.3936Q12.4609-9.03881 14.1575-7.35647Q15.8541-5.67413 18.2088-5.67413ZM129.194-82.6513Q123.731-82.6513 120.08-79.0319Q116.43-75.4125 116.43-69.9493Q116.43-66.7111 117.539-63.456Q118.648-60.201 120.307-57.1748Q121.966-54.1485 123.718-51.5369Q125.469-48.9253 126.719-47.0363L131.607-47.0363Q132.862-48.8967 134.611-51.4798Q136.36-54.0629 138.033-57.0891Q139.707-60.1154 140.818-63.3847Q141.93-66.654 141.93-69.9493Q141.93-75.4125 138.277-79.0319Q134.624-82.6513 129.194-82.6513ZM129.194-75.1069Q131.427-75.1069 132.906-73.6443Q134.386-72.1817 134.386-69.9493Q134.386-68.1791 133.594-65.7913Q132.802-63.4034 131.597-60.9738Q130.391-58.5441 129.194-56.5159Q127.997-58.5441 126.777-60.9738Q125.557-63.4034 124.763-65.7913Q123.969-68.1791 123.969-69.9493Q123.969-72.1817 125.449-73.6443Q126.928-75.1069 129.194-75.1069ZM125.434-37.1224L132.921-37.1224L132.921-50.8147L125.434-50.8147Z"/>
  </g>
  <g id="Semibold-M" transform="matrix(1 0 0 1 1967.11 1126)">
   <path d="M96.8116-62.7451Q101.455-62.7451 104.733-66.0139Q108.011-69.2826 108.011-73.9445Q108.011-78.5804 104.733-81.8551Q101.455-85.1297 96.8116-85.1297Q92.1569-85.1297 88.8917-81.8551Q85.6265-78.5804 85.6265-73.9445Q85.6265-69.2826 88.8917-66.0139Q92.1569-62.7451 96.8116-62.7451ZM61.775 13.8551Q63.5629 14.5254 65.543 13.9264Q67.5231 13.3274 68.666 11.0047L81.4045-14.4765Q82.1925-16.0042 81.9688-17.7204Q81.7452-19.4367 80.4044-20.7703L65.3861-35.8328L84.3571-45.2927Q85.5873-45.9614 86.6123-44.9362L98.1813-33.4296Q99.7824-31.8285 101.944-31.8285L125.469-31.8285Q127.73-31.8285 129.334-33.4111Q130.939-34.9936 130.939-37.2911Q130.939-39.5327 129.334-41.1373Q127.73-42.742 125.469-42.742L104.204-42.742L82.8863-64.159Q78.8838-68.205 72.9544-68.205L30.6361-68.205Q28.4198-68.205 26.8152-66.6093Q25.2106-65.0137 25.2106-62.7722Q25.2106-60.5188 26.8152-58.9142Q28.4198-57.3096 30.6361-57.3096L61.2114-57.3096Q61.6468-57.3096 61.7588-56.9003Q61.8708-56.491 61.4425-56.2678L53.1682-52.1712Q49.2831-50.2508 47.3351-46.8827Q45.3871-43.5146 45.3871-39.8535Q45.3871-36.672 46.8256-33.6943Q48.2642-30.7166 51.1854-28.6353L69.5643-15.2091L58.8882 6.13197Q57.5474 8.89476 58.637 10.9774Q59.7267 13.06 61.775 13.8551ZM17.9417-6.36556L43.3676-6.36556Q46.7891-6.36556 48.3096-9.36985L53.7481-20.338L48.1245-24.4158Q45.3247-26.5056 43.4783-29.2149L39.5431-17.298L17.9417-17.298Q15.6883-17.298 14.0746-15.6989Q12.4609-14.0998 12.4609-11.8283Q12.4609-9.57492 14.0746-7.97024Q15.6883-6.36556 17.9417-6.36556ZM127.61-81.9924Q122.315-81.9924 118.821-78.5288Q115.326-75.0652 115.326-69.7701Q115.326-66.4036 116.505-63.0245Q117.684-59.6454 119.382-56.6025Q121.079-53.5596 122.735-51.1617Q124.391-48.7639 125.3-47.441L129.858-47.441Q130.774-48.7457 132.427-51.1254Q134.079-53.5051 135.786-56.548Q137.492-59.5909 138.675-62.9791Q139.858-66.3673 139.858-69.7701Q139.858-75.0652 136.36-78.5288Q132.861-81.9924 127.61-81.9924ZM127.61-75.2171Q129.975-75.2171 131.529-73.6761Q133.083-72.1351 133.083-69.7701Q133.083-67.7971 132.218-65.2742Q131.353-62.7514 130.072-60.2723Q128.791-57.7931 127.61-55.797Q126.411-57.7931 125.121-60.2723Q123.83-62.7514 122.962-65.2742Q122.094-67.7971 122.094-69.7701Q122.094-72.1351 123.648-73.6761Q125.201-75.2171 127.61-75.2171ZM124.219-37.2911L130.939-37.2911L130.939-50.5492L124.219-50.5492Z"/>
  </g>
  <g id="Medium-M" transform="matrix(1 0 0 1 1671.18 1126)">
   <path d="M95.9681-62.4366Q100.516-62.4366 103.727-65.6316Q106.939-68.8266 106.939-73.4071Q106.939-77.946 103.727-81.1533Q100.516-84.3606 95.9681-84.3606Q91.3963-84.3606 88.2055-81.1533Q85.0148-77.946 85.0148-73.4071Q85.0148-68.8266 88.2055-65.6316Q91.3963-62.4366 95.9681-62.4366ZM61.2737 13.1742Q63.002 13.8194 64.9067 13.2415Q66.8114 12.6637 67.9135 10.4164L80.5527-14.8553Q81.314-16.3327 81.095-17.9822Q80.8761-19.6316 79.5855-20.9135L64.5386-36.0125L83.5529-45.4894Q84.8574-46.2102 85.9646-45.1029L97.4372-33.6926Q98.9788-32.1512 101.058-32.1512L124.16-32.1512Q126.345-32.1512 127.89-33.6709Q129.436-35.1906 129.436-37.4191Q129.436-39.571 127.89-41.1167Q126.345-42.6625 124.16-42.6625L103.243-42.6625L82.0536-63.9577Q78.1167-67.9239 72.3096-67.9239L30.3263-67.9239Q28.1934-67.9239 26.6476-66.3832Q25.1019-64.8425 25.1019-62.6906Q25.1019-60.5142 26.6476-58.9684Q28.1934-57.4227 30.3263-57.4227L61.243-57.4227Q61.6562-57.4227 61.7714-56.9905Q61.8866-56.5583 61.482-56.3509L52.7574-52.0363Q48.9364-50.1519 47.0251-46.8511Q45.1139-43.5503 45.1139-39.9598Q45.1139-36.8345 46.525-33.91Q47.9362-30.9856 50.8105-28.956L69.1382-15.5628L58.4954 5.72112Q57.2049 8.39763 58.2497 10.4009Q59.2945 12.4042 61.2737 13.1742ZM17.7391-6.88983L42.957-6.88983Q46.2543-6.88983 47.7231-9.78422L53.2753-20.9626L47.8622-24.888Q45.0969-26.9719 43.2992-29.6099L39.274-17.4345L17.7391-17.4345Q15.5627-17.4345 14.0118-15.8895Q12.4609-14.3446 12.4609-12.1579Q12.4609-9.98142 14.0118-8.43562Q15.5627-6.88983 17.7391-6.88983ZM126.409-81.4928Q121.242-81.4928 117.865-78.1474Q114.489-74.8019 114.489-69.6342Q114.489-66.1704 115.721-62.6973Q116.954-59.2241 118.68-56.1686Q120.407-53.1131 121.99-50.8773Q123.574-48.6415 124.224-47.7479L128.532-47.7479Q129.191-48.6312 130.771-50.8567Q132.35-53.0823 134.082-56.1378Q135.813-59.1933 137.05-62.6716Q138.287-66.1499 138.287-69.6342Q138.287-74.8019 134.906-78.1474Q131.525-81.4928 126.409-81.4928ZM126.409-75.3006Q128.875-75.3006 130.485-73.7002Q132.095-72.0997 132.095-69.6342Q132.095-67.5074 131.175-64.8822Q130.254-62.257 128.916-59.7403Q127.578-57.2237 126.409-55.2519Q125.208-57.2237 123.865-59.7403Q122.521-62.257 121.597-64.8822Q120.672-67.5074 120.672-69.6342Q120.672-72.0997 122.282-73.7002Q123.892-75.3006 126.409-75.3006ZM123.298-37.4191L129.436-37.4191L129.436-50.3478L123.298-50.3478Z"/>
  </g>
  <g id="Regular-M" transform="matrix(1 0 0 1 1375.5 1126)">
   <path d="M94.8679-62.0342Q99.2906-62.0342 102.415-65.133Q105.54-68.2319 105.54-72.7062Q105.54-77.1184 102.415-80.2379Q99.2906-83.3574 94.8679-83.3574Q90.4042-83.3574 87.3106-80.2379Q84.2169-77.1184 84.2169-72.7062Q84.2169-68.2319 87.3106-65.133Q90.4042-62.0342 94.8679-62.0342ZM60.62 12.286Q62.2705 12.8984 64.0768 12.3482Q65.8832 11.798 66.9319 9.64909L79.4416-15.3493Q80.1681-16.7612 79.9553-18.3236Q79.7425-19.8859 78.5175-21.1003L63.4332-36.2469L82.504-45.746Q83.9054-46.5349 85.1198-45.3203L96.4668-34.0356Q97.9305-32.5721 99.9032-32.5721L122.451-32.5721Q124.538-32.5721 126.007-34.0098Q127.476-35.4476 127.476-37.586Q127.476-39.621 126.007-41.0899Q124.538-42.5588 122.451-42.5588L101.99-42.5588L80.9674-63.6953Q77.1162-67.5572 71.4685-67.5572L29.9223-67.5572Q27.8979-67.5572 26.429-66.0882Q24.9601-64.6192 24.9601-62.5843Q24.9601-60.5081 26.429-59.0392Q27.8979-57.5703 29.9223-57.5703L61.2842-57.5703Q61.6685-57.5703 61.7879-57.1082Q61.9073-56.6462 61.5335-56.4593L52.2215-51.8603Q48.4842-50.0229 46.6208-46.8099Q44.7575-43.5969 44.7575-40.0983Q44.7575-37.0464 46.1329-34.1914Q47.5084-31.3364 50.3216-29.3744L68.5824-16.024L57.9831 5.18523Q56.7581 7.7492 57.7444 9.649Q58.7307 11.5488 60.62 12.286ZM17.4749-7.57366L42.4215-7.57366Q45.5568-7.57366 46.9581-10.3247L52.6586-21.7772L47.52-25.504Q44.7997-27.58 43.0656-30.125L38.9229-17.6124L17.4749-17.6124Q15.3987-17.6124 13.9298-16.1382Q12.4609-14.664 12.4609-12.5878Q12.4609-10.5116 13.9298-9.04264Q15.3987-7.57366 17.4749-7.57366ZM124.843-80.8412Q119.842-80.8412 116.619-77.6498Q113.397-74.4585 113.397-69.4569Q113.397-65.8663 114.699-62.2705Q116.001-58.6746 117.765-55.6026Q119.529-52.5307 121.019-50.5062Q122.508-48.4818 122.821-48.1482L126.803-48.1482Q127.126-48.4818 128.61-50.5062Q130.095-52.5307 131.859-55.6026Q133.623-58.6746 134.93-62.2705Q136.238-65.8663 136.238-69.4569Q136.238-74.4585 133.01-77.6498Q129.782-80.8412 124.843-80.8412ZM124.843-75.4096Q127.44-75.4096 129.123-73.7316Q130.806-72.0536 130.806-69.4569Q130.806-67.1296 129.814-64.3708Q128.821-61.6121 127.408-59.0465Q125.995-56.481 124.843-54.5409Q123.639-56.481 122.226-59.0465Q120.813-61.6121 119.815-64.3708Q118.818-67.1296 118.818-69.4569Q118.818-72.0536 120.501-73.7316Q122.184-75.4096 124.843-75.4096ZM122.096-37.586L127.476-37.586L127.476-50.0852L122.096-50.0852Z"/>
  </g>
  <g id="Light-M" transform="matrix(1 0 0 1 1080.47 1126)">
   <path d="M92.6092-61.2985Q96.9292-61.2985 99.9685-64.3203Q103.008-67.3422 103.008-71.6966Q103.008-75.9892 99.9685-79.0145Q96.9292-82.0399 92.6092-82.0399Q88.2826-82.0399 85.2745-79.0145Q82.2664-75.9892 82.2664-71.6966Q82.2664-67.3422 85.2745-64.3203Q88.2826-61.2985 92.6092-61.2985ZM59.3025 10.9857Q60.9015 11.5809 62.6565 11.0478Q64.4115 10.5147 65.4433 8.41722L77.6278-15.897Q78.3202-17.2747 78.1158-18.7942Q77.9115-20.3137 76.7207-21.4766L62.03-36.2296L80.6046-45.4723Q81.9548-46.227 83.1177-45.0636L94.1738-34.0699Q95.5864-32.6577 97.5248-32.6577L119.457-32.6577Q121.493-32.6577 122.919-34.0526Q124.345-35.4476 124.345-37.5176Q124.345-39.5184 122.919-40.9444Q121.493-42.3705 119.457-42.3705L99.56-42.3705L79.1023-62.9254Q75.3709-66.6847 69.86-66.6847L29.443-66.6847Q27.4702-66.6847 26.0441-65.2584Q24.618-63.8321 24.618-61.8313Q24.618-59.8236 26.0441-58.3975Q27.4702-56.9715 29.443-56.9715L59.9325-56.9715Q60.3337-56.9715 60.4446-56.5179Q60.5555-56.0643 60.1817-55.8774L51.1264-51.3984Q47.4918-49.6124 45.6884-46.4934Q43.885-43.3744 43.885-39.9615Q43.885-37.0122 45.2176-34.2256Q46.5502-31.4391 49.2777-29.5285L67.0423-16.5544L56.734 4.0902Q55.5432 6.5685 56.5124 8.41699Q57.4816 10.2655 59.3025 10.9857ZM17.3208-8.34354L41.6001-8.34354Q44.6671-8.34354 46.0169-11.0092L51.6662-22.3418L46.6817-25.949Q43.9956-27.9563 42.2785-30.587L38.1873-18.0916L17.3208-18.0916Q15.3131-18.0916 13.887-16.6516Q12.4609-15.2116 12.4609-13.2039Q12.4609-11.1961 13.887-9.76984Q15.3131-8.34354 17.3208-8.34354ZM122.191-79.1815Q117.566-79.1815 114.523-76.1698Q111.48-73.1582 111.48-68.5329Q111.48-65.1818 112.671-61.8169Q113.862-58.4521 115.506-55.5513Q117.151-52.6505 118.58-50.6774Q120.01-48.7043 120.425-48.2339L123.894-48.2339Q124.337-48.7043 125.753-50.6774Q127.169-52.6505 128.813-55.5513Q130.458-58.4521 131.662-61.8169Q132.867-65.1818 132.867-68.5329Q132.867-73.1582 129.81-76.1698Q126.754-79.1815 122.191-79.1815ZM122.191-74.7423Q124.856-74.7423 126.642-72.9702Q128.428-71.198 128.428-68.5329Q128.428-66.0687 127.341-63.1303Q126.254-60.1919 124.773-57.558Q123.292-54.924 122.191-53.1719Q121.056-54.924 119.574-57.558Q118.093-60.1919 116.992-63.1303Q115.892-66.0687 115.892-68.5329Q115.892-71.198 117.677-72.9702Q119.463-74.7423 122.191-74.7423ZM119.94-37.5176L124.345-37.5176L124.345-49.6747L119.94-49.6747Z"/>
  </g>
  <g id="Thin-M" transform="matrix(1 0 0 1 785.987 1126)">
   <path d="M89.6218-60.3255Q93.806-60.3255 96.7322-63.2454Q99.6584-66.1654 99.6584-70.3613Q99.6584-74.4957 96.7322-77.3965Q93.806-80.2973 89.6218-80.2973Q85.4766-80.2973 82.5816-77.3965Q79.6866-74.4957 79.6866-70.3613Q79.6866-66.1654 82.5816-63.2454Q85.4766-60.3255 89.6218-60.3255ZM57.5599 9.26597Q59.0909 9.83832 60.778 9.32785Q62.4652 8.81738 63.4745 6.78797L75.229-16.6213Q75.8761-17.9538 75.683-19.4166Q75.4898-20.8795 74.3443-21.9743L60.1741-36.2068L78.0924-45.1103Q79.375-45.8197 80.4699-44.724L91.1411-34.1151Q92.486-32.771 94.3792-32.771L115.497-32.771Q117.465-32.771 118.834-34.1093Q120.203-35.4476 120.203-37.4271Q120.203-39.3826 118.834-40.752Q117.465-42.1214 115.497-42.1214L96.3463-42.1214L76.6354-61.9072Q73.0625-65.5307 67.7327-65.5307L28.8092-65.5307Q26.9044-65.5307 25.535-64.1609Q24.1656-62.791 24.1656-60.8355Q24.1656-58.9183 25.535-57.5489Q26.9044-56.1795 28.8092-56.1795L58.1447-56.1795Q58.5684-56.1795 58.6681-55.7371Q58.7677-55.2947 58.3939-55.1078L49.6782-50.7873Q46.1792-49.0694 44.4551-46.0748Q42.731-43.0801 42.731-39.7805Q42.731-36.9669 44.007-34.2709Q45.2829-31.5748 47.8971-29.7323L65.0055-17.256L55.0819 2.64194Q53.9364 5.00693 54.883 6.78755Q55.8296 8.56816 57.5599 9.26597ZM17.117-9.36177L40.5138-9.36177Q43.4903-9.36177 44.772-11.9145L50.3537-23.0885L45.573-26.5376Q42.9321-28.454 41.2374-31.198L37.2143-18.7255L17.117-18.7255Q15.1998-18.7255 13.8303-17.3307Q12.4609-15.9359 12.4609-14.0187Q12.4609-12.1014 13.8303-10.7316Q15.1998-9.36177 17.117-9.36177ZM118.683-76.9865Q114.556-76.9865 111.751-74.2125Q108.946-71.4384 108.946-67.3109Q108.946-64.2765 109.989-61.2171Q111.033-58.1578 112.519-55.4834Q114.005-52.8091 115.356-50.9039Q116.706-48.9986 117.257-48.3472L120.047-48.3472Q120.648-48.9986 121.973-50.9039Q123.299-52.8091 124.785-55.4834Q126.271-58.1578 127.34-61.2171Q128.409-64.2765 128.409-67.3109Q128.409-71.4384 125.579-74.2125Q122.748-76.9865 118.683-76.9865ZM118.683-73.8598Q121.439-73.8598 123.361-71.9632Q125.282-70.0665 125.282-67.3109Q125.282-64.6657 124.071-61.4897Q122.86-58.3136 121.288-55.5892Q119.716-52.8647 118.683-51.3613Q117.639-52.8647 116.066-55.5892Q114.494-58.3136 113.258-61.4897Q112.022-64.6657 112.022-67.3109Q112.022-70.0665 113.943-71.9632Q115.865-73.8598 118.683-73.8598ZM117.089-37.4271L120.203-37.4271L120.203-49.1318L117.089-49.1318Z"/>
  </g>
  <g id="Ultralight-M" transform="matrix(1 0 0 1 490.418 1126)">
   <path d="M88.0916-59.8271Q92.2064-59.8271 95.0746-62.6949Q97.9428-65.5626 97.9428-69.6773Q97.9428-73.7307 95.0746-76.5677Q92.2064-79.4048 88.0916-79.4048Q84.0393-79.4048 81.2023-76.5677Q78.3652-73.7307 78.3652-69.6773Q78.3652-65.5626 81.2023-62.6949Q84.0393-59.8271 88.0916-59.8271ZM56.6674 8.38512Q58.1635 8.94579 59.8159 8.44691Q61.4683 7.94803 62.4661 5.95348L74.0003-16.9923Q74.6243-18.3016 74.4369-19.7354Q74.2495-21.1693 73.1271-22.2293L59.2235-36.1951L76.8057-44.9249Q78.0537-45.6112 79.1137-44.5501L89.5878-34.1383Q90.8981-32.8291 92.7681-32.8291L113.468-32.8291Q115.401-32.8291 116.742-34.1383Q118.082-35.4476 118.082-37.3808Q118.082-39.3131 116.742-40.6535Q115.401-41.9939 113.468-41.9939L94.7003-41.9939L75.3719-61.3856Q71.8802-64.9397 66.6431-64.9397L28.4846-64.9397Q26.6146-64.9397 25.2742-63.5987Q23.9338-62.2578 23.9338-60.3255Q23.9338-58.4546 25.2742-57.1142Q26.6146-55.7738 28.4846-55.7738L57.229-55.7738Q57.6642-55.7738 57.7581-55.3372Q57.852-54.9006 57.4782-54.7137L48.9364-50.4744Q45.507-48.7913 43.8235-45.8603Q42.1399-42.9293 42.1399-39.6878Q42.1399-36.9438 43.3869-34.294Q44.6338-31.6443 47.19-29.8367L63.9622-17.6153L54.2357 1.90014Q53.1134 4.2071 54.0484 5.95296Q54.9834 7.69881 56.6674 8.38512ZM17.0126-9.88331L39.9574-9.88331Q42.8875-9.88331 44.1344-12.3782L49.6814-23.471L45.0051-26.8391Q42.3874-28.7089 40.7042-31.511L36.7159-19.0501L17.0126-19.0501Q15.1417-19.0501 13.8013-17.6785Q12.4609-16.3069 12.4609-14.436Q12.4609-12.5651 13.8013-11.2242Q15.1417-9.88331 17.0126-9.88331ZM116.886-75.8622Q113.014-75.8622 110.331-73.2099Q107.648-70.5576 107.648-66.685Q107.648-63.8128 108.616-60.9099Q109.584-58.0071 110.989-55.4487Q112.394-52.8903 113.704-51.0198Q115.013-49.1494 115.634-48.4052L118.077-48.4052Q118.759-49.1494 120.038-51.0198Q121.317-52.8903 122.722-55.4487Q124.127-58.0071 125.126-60.9099Q126.126-63.8128 126.126-66.685Q126.126-70.5576 123.411-73.2099Q120.696-75.8622 116.886-75.8622ZM116.886-73.4078Q119.689-73.4078 121.68-71.4474Q123.671-69.4869 123.671-66.685Q123.671-63.9471 122.396-60.6493Q121.121-57.3516 119.503-54.5808Q117.885-51.81 116.886-50.4339Q115.888-51.81 114.27-54.5808Q112.651-57.3516 111.345-60.6493Q110.04-63.9471 110.04-66.685Q110.04-69.4869 112.031-71.4474Q114.022-73.4078 116.886-73.4078ZM115.629-37.3808L118.082-37.3808L118.082-48.8537L115.629-48.8537Z"/>
  </g>
  <g id="Black-S" transform="matrix(1 0 0 1 2870.36 696)">
   <path d="M79.4434-58.1055Q83.4961-58.1055 86.3525-60.9863Q89.209-63.8672 89.209-67.8711Q89.209-71.9238 86.3525-74.7803Q83.4961-77.6367 79.4434-77.6367Q75.4395-77.6367 72.5586-74.7803Q69.6777-71.9238 69.6777-67.8711Q69.6777-63.8672 72.5586-60.9863Q75.4395-58.1055 79.4434-58.1055ZM50.5371 6.15234Q52.1973 6.78711 54.0771 6.22559Q55.957 5.66406 57.0312 3.51562L67.4316-17.334Q68.1641-18.75 67.9688-20.3857Q67.7734-22.0215 66.5039-23.291L54.8828-34.9121L69.5312-42.2363Q70.166-42.5293 70.6055-42.0898L80.0781-32.666Q81.5918-31.1523 83.6426-31.1523L103.906-31.1523Q106.006-31.1523 107.52-32.666Q109.033-34.1797 109.033-36.2793Q109.033-38.4277 107.52-39.9414Q106.006-41.4551 103.906-41.4551L85.7422-41.4551L68.5059-58.7402Q65.0879-62.2559 59.9121-62.2559L25.3418-62.2559Q23.2422-62.2559 21.7285-60.7666Q20.2148-59.2773 20.2148-57.1289Q20.2148-55.0293 21.7285-53.5156Q23.2422-52.002 25.3418-52.002L47.7539-52.002Q48.1934-52.002 48.2666-51.7822Q48.3398-51.5625 47.9004-51.3184L43.4082-49.0723Q40.0879-47.4121 38.4033-44.4824Q36.7188-41.5527 36.7188-38.3789Q36.7188-35.6445 37.9639-33.0811Q39.209-30.5176 41.6992-28.6621L56.2988-18.0176L47.8027-1.07422Q46.5332 1.46484 47.583 3.44238Q48.6328 5.41992 50.5371 6.15234ZM14.9414-10.3516L35.7422-10.3516Q38.9648-10.3516 40.3809-13.1836L44.1406-20.8496L38.8184-24.707Q36.4746-26.3672 34.8145-28.8086L32.1289-20.6055L14.9414-20.6055Q12.8418-20.6055 11.3037-19.1162Q9.76562-17.627 9.76562-15.4785Q9.76562-13.3789 11.3037-11.8652Q12.8418-10.3516 14.9414-10.3516ZM105.127-73.9746Q100.439-73.9746 97.1924-70.752Q93.9453-67.5293 93.9453-62.8418Q93.9453-60.6445 94.6289-58.4229Q95.3125-56.2012 96.5088-53.8818Q97.7051-51.5625 99.3164-48.9746Q100.928-46.3867 102.783-43.457L107.422-43.457Q109.277-46.3379 110.889-48.877Q112.5-51.416 113.721-53.7354Q114.941-56.0547 115.625-58.3008Q116.309-60.5469 116.309-62.8418Q116.309-67.5293 113.062-70.752Q109.814-73.9746 105.127-73.9746ZM105.127-66.1621Q106.543-66.1621 107.52-65.21Q108.496-64.2578 108.496-62.8418Q108.496-61.9629 108.057-60.4248Q107.617-58.8867 106.86-57.1045Q106.104-55.3223 105.127-53.6621Q104.199-55.3223 103.418-57.1045Q102.637-58.8867 102.197-60.4248Q101.758-61.9629 101.758-62.8418Q101.758-64.2578 102.734-65.21Q103.711-66.1621 105.127-66.1621ZM101.27-36.2793L109.033-36.2793L109.033-48.0957L101.27-48.0957Z"/>
  </g>
  <g id="Heavy-S" transform="matrix(1 0 0 1 2574.59 696)">
   <path d="M78.4984-57.7482Q82.4243-57.7482 85.1943-60.5311Q87.9643-63.314 87.9643-67.2142Q87.9643-71.1402 85.1943-73.9102Q82.4243-76.6802 78.4984-76.6802Q74.5982-76.6802 71.8153-73.9102Q69.0324-71.1402 69.0324-67.2142Q69.0324-63.314 71.8153-60.5311Q74.5982-57.7482 78.4984-57.7482ZM49.9724 5.32258Q51.5519 5.92277 53.3281 5.39006Q55.1042 4.85735 56.1208 2.81263L66.4175-17.818Q67.1153-19.1649 66.9258-20.7084Q66.7362-22.252 65.5359-23.4524L53.8226-35.1772L68.5978-42.559Q69.3478-42.9327 69.914-42.3664L79.2829-33.0463Q80.7159-31.6133 82.6515-31.6133L102.373-31.6133Q104.369-31.6133 105.802-33.0406Q107.235-34.4678 107.235-36.4752Q107.235-38.4969 105.802-39.9299Q104.369-41.3629 102.373-41.3629L84.6474-41.3629L67.5263-58.5443Q64.189-61.9562 59.1745-61.9562L24.95-61.9562Q22.9656-61.9562 21.5326-60.5419Q20.0996-59.1275 20.0996-57.1059Q20.0996-55.11 21.5326-53.677Q22.9656-52.244 24.95-52.244L47.9729-52.244Q48.3778-52.244 48.4568-51.9897Q48.5358-51.7354 48.1309-51.5143L42.9472-48.934Q39.7076-47.3199 38.0691-44.4767Q36.4306-41.6334 36.4306-38.5518Q36.4306-35.8865 37.6412-33.3922Q38.8517-30.8979 41.2843-29.1116L55.8724-18.467L47.3879-1.5352Q46.1875 0.88862 47.1739 2.75668Q48.1603 4.62473 49.9724 5.32258ZM14.6648-11.02L35.2466-11.02Q38.2964-11.02 39.6433-13.7022L43.5759-21.6909L38.5418-25.3409Q36.2441-27.001 34.6531-29.3272L31.8293-20.7438L14.6648-20.7438Q12.6689-20.7438 11.2173-19.3294Q9.76562-17.9151 9.76562-15.8819Q9.76562-13.886 11.2173-12.453Q12.6689-11.02 14.6648-11.02ZM103.709-73.456Q99.1602-73.456 96.063-70.3832Q92.9657-67.3103 92.9657-62.7611Q92.9657-60.391 93.7415-58.0022Q94.5173-55.6134 95.7712-53.2538Q97.0251-50.8941 98.5385-48.5367Q100.052-46.1793 101.516-43.895L105.855-43.895Q107.318-46.142 108.832-48.4621Q110.345-50.7822 111.617-53.1418Q112.89-55.5015 113.666-57.9089Q114.442-60.3164 114.442-62.7611Q114.442-67.3103 111.344-70.3832Q108.247-73.456 103.709-73.456ZM103.709-66.3695Q105.264-66.3695 106.309-65.3425Q107.355-64.3154 107.355-62.7611Q107.355-61.6748 106.847-60.0099Q106.338-58.3451 105.506-56.5167Q104.674-54.6884 103.709-53.0398Q102.77-54.6884 101.92-56.5167Q101.069-58.3451 100.561-60.0099Q100.052-61.6748 100.052-62.7611Q100.052-64.3154 101.098-65.3425Q102.144-66.3695 103.709-66.3695ZM100.198-36.4752L107.235-36.4752L107.235-47.8537L100.198-47.8537Z"/>
  </g>
  <g id="Bold-S" transform="matrix(1 0 0 1 2278.92 696)">
   <path d="M77.4414-57.3486Q81.2256-57.3486 83.8989-60.022Q86.5723-62.6953 86.5723-66.4795Q86.5723-70.2637 83.8989-72.937Q81.2256-75.6104 77.4414-75.6104Q73.6572-75.6104 70.9839-72.937Q68.3105-70.2637 68.3105-66.4795Q68.3105-62.6953 70.9839-60.022Q73.6572-57.3486 77.4414-57.3486ZM49.3408 4.39453Q50.8301 4.95605 52.4902 4.45557Q54.1504 3.95508 55.1025 2.02637L65.2832-18.3594Q65.9424-19.6289 65.7593-21.0693Q65.5762-22.5098 64.4531-23.6328L52.6367-35.4736L67.5537-42.9199Q68.4326-43.3838 69.1406-42.6758L78.3936-33.4717Q79.7363-32.1289 81.543-32.1289L100.659-32.1289Q102.539-32.1289 103.882-33.4595Q105.225-34.79 105.225-36.6943Q105.225-38.5742 103.882-39.917Q102.539-41.2598 100.659-41.2598L83.4229-41.2598L66.4307-58.3252Q63.1836-61.6211 58.3496-61.6211L24.5117-61.6211Q22.6562-61.6211 21.3135-60.2905Q19.9707-58.96 19.9707-57.0801Q19.9707-55.2002 21.3135-53.8574Q22.6562-52.5146 24.5117-52.5146L48.2178-52.5146Q48.584-52.5146 48.6694-52.2217Q48.7549-51.9287 48.3887-51.7334L42.4316-48.7793Q39.2822-47.2168 37.6953-44.4702Q36.1084-41.7236 36.1084-38.7451Q36.1084-36.1572 37.2803-33.7402Q38.4521-31.3232 40.8203-29.6143L55.3955-18.9697L46.9238-2.05078Q45.8008 0.244141 46.7163 1.98975Q47.6318 3.73535 49.3408 4.39453ZM14.3555-11.7676L34.6924-11.7676Q37.5488-11.7676 38.8184-14.2822L42.9443-22.6318L38.2324-26.0498Q35.9863-27.71 34.4727-29.9072L31.4941-20.8984L14.3555-20.8984Q12.4756-20.8984 11.1206-19.5679Q9.76562-18.2373 9.76562-16.333Q9.76562-14.4531 11.1206-13.1104Q12.4756-11.7676 14.3555-11.7676ZM102.124-72.876Q97.7295-72.876 94.7998-69.9707Q91.8701-67.0654 91.8701-62.6709Q91.8701-60.1074 92.749-57.5317Q93.6279-54.9561 94.9463-52.5513Q96.2646-50.1465 97.6685-48.0469Q99.0723-45.9473 100.098-44.3848L104.102-44.3848Q105.127-45.9229 106.531-47.998Q107.935-50.0732 109.265-52.478Q110.596-54.8828 111.475-57.4707Q112.354-60.0586 112.354-62.6709Q112.354-67.0654 109.424-69.9707Q106.494-72.876 102.124-72.876ZM102.124-66.6016Q103.833-66.6016 104.956-65.4907Q106.079-64.3799 106.079-62.6709Q106.079-61.3525 105.493-59.5459Q104.907-57.7393 103.992-55.8594Q103.076-53.9795 102.124-52.3438Q101.172-53.9795 100.244-55.8594Q99.3164-57.7393 98.7305-59.5459Q98.1445-61.3525 98.1445-62.6709Q98.1445-64.3799 99.2676-65.4907Q100.391-66.6016 102.124-66.6016ZM98.999-36.6943L105.225-36.6943L105.225-47.583L98.999-47.583Z"/>
  </g>
  <g id="Semibold-S" transform="matrix(1 0 0 1 1982.93 696)">
   <path d="M76.7127-57.0731Q80.3991-57.0731 83.0058-59.6709Q85.6125-62.2687 85.6125-65.9729Q85.6125-69.6594 83.0058-72.2661Q80.3991-74.8728 76.7127-74.8728Q73.0085-74.8728 70.4107-72.2661Q67.8129-69.6594 67.8129-65.9729Q67.8129-62.2687 70.4107-59.6709Q73.0085-57.0731 76.7127-57.0731ZM48.9054 3.75469Q50.3324 4.28955 51.9126 3.81128Q53.4928 3.33301 54.4005 1.48428L64.5012-18.7326Q65.1337-19.9488 64.955-21.3182Q64.7764-22.6875 63.7066-23.7572L51.8191-35.678L66.8339-43.1688Q67.8017-43.6948 68.6074-42.8891L77.7804-33.7649Q79.0609-32.4844 80.7787-32.4844L99.4772-32.4844Q101.277-32.4844 102.558-33.7483Q103.838-35.0122 103.838-36.8454Q103.838-38.6275 102.558-39.9081Q101.277-41.1887 99.4772-41.1887L82.5786-41.1887L65.6753-58.1741Q62.4904-61.39 57.7809-61.39L24.2096-61.39Q22.443-61.39 21.1624-60.1172Q19.8818-58.8444 19.8818-57.0623Q19.8818-55.2624 21.1624-53.9818Q22.443-52.7013 24.2096-52.7013L48.3866-52.7013Q48.7262-52.7013 48.8161-52.3816Q48.906-52.062 48.5664-51.8845L42.0762-48.6727Q38.989-47.1457 37.4376-44.4658Q35.8862-41.7858 35.8862-38.8784Q35.8862-36.3438 37.0314-33.9802Q38.1767-31.6165 40.5004-29.9608L55.0667-19.3163L46.6039-2.40625Q45.5342-0.200195 46.4008 1.46099Q47.2675 3.12217 48.9054 3.75469ZM14.1422-12.283L34.3103-12.283Q37.0334-12.283 38.2496-14.6821L42.5089-23.2806L38.0191-26.5386Q35.8086-28.1987 34.3482-30.3071L31.2631-21.0051L14.1422-21.0051Q12.3423-21.0051 11.054-19.7323Q9.76562-18.4595 9.76562-16.644Q9.76562-14.8441 11.054-13.5636Q12.3423-12.283 14.1422-12.283ZM101.031-72.4761Q96.7431-72.4761 93.9289-69.6863Q91.1147-66.8966 91.1147-62.6087Q91.1147-59.9119 92.0647-57.2074Q93.0147-54.5028 94.3775-52.0669Q95.7403-49.6311 97.0686-47.7092Q98.3969-45.7873 99.1201-44.7225L102.893-44.7225Q103.616-45.7718 104.944-47.6781Q106.273-49.5845 107.643-52.0204Q109.014-54.4562 109.964-57.1686Q110.914-59.8809 110.914-62.6087Q110.914-66.8966 108.1-69.6863Q105.286-72.4761 101.031-72.4761ZM101.031-66.7615Q102.847-66.7615 104.023-65.5929Q105.199-64.4243 105.199-62.6087Q105.199-61.1304 104.56-59.226Q103.921-57.3216 102.948-55.4062Q101.974-53.4907 101.031-51.8639Q100.07-53.4907 99.0889-55.4062Q98.1078-57.3216 97.4686-59.226Q96.8293-61.1304 96.8293-62.6087Q96.8293-64.4243 98.0057-65.5929Q99.182-66.7615 101.031-66.7615ZM98.1726-36.8454L103.838-36.8454L103.838-47.3964L98.1726-47.3964Z"/>
  </g>
  <g id="Medium-S" transform="matrix(1 0 0 1 1686.76 696)">
   <path d="M76.1602-56.8643Q79.7725-56.8643 82.3286-59.4048Q84.8848-61.9453 84.8848-65.5889Q84.8848-69.2012 82.3286-71.7573Q79.7725-74.3135 76.1602-74.3135Q72.5166-74.3135 69.9761-71.7573Q67.4355-69.2012 67.4355-65.5889Q67.4355-61.9453 69.9761-59.4048Q72.5166-56.8643 76.1602-56.8643ZM48.5752 3.26953Q49.9551 3.78418 51.4746 3.32275Q52.9941 2.86133 53.8682 1.07324L63.9082-19.0156Q64.5205-20.1914 64.3452-21.5068Q64.1699-22.8223 63.1406-23.8516L51.1992-35.833L66.2881-43.3574Q67.3232-43.9307 68.2031-43.0508L77.3154-33.9873Q78.5488-32.7539 80.1992-32.7539L98.5811-32.7539Q100.32-32.7539 101.554-33.9673Q102.787-35.1807 102.787-36.96Q102.787-38.668 101.554-39.9014Q100.32-41.1348 98.5811-41.1348L81.9385-41.1348L65.1025-58.0596Q61.9648-61.2148 57.3496-61.2148L23.9805-61.2148Q22.2812-61.2148 21.0479-59.9858Q19.8145-58.7568 19.8145-57.0488Q19.8145-55.3096 21.0479-54.0762Q22.2812-52.8428 23.9805-52.8428L48.5146-52.8428Q48.834-52.8428 48.9272-52.5029Q49.0205-52.1631 48.7012-51.999L41.8066-48.5918Q38.7666-47.0918 37.2422-44.4624Q35.7178-41.833 35.7178-38.9795Q35.7178-36.4854 36.8428-34.1621Q37.9678-31.8389 40.2578-30.2236L54.8174-19.5791L46.3613-2.67578Q45.332-0.537109 46.1616 1.06006Q46.9912 2.65723 48.5752 3.26953ZM13.9805-12.6738L34.0205-12.6738Q36.6426-12.6738 37.8184-14.9854L42.1787-23.7725L37.8574-26.9092Q35.6738-28.5693 34.2539-30.6104L31.0879-21.0859L13.9805-21.0859Q12.2412-21.0859 11.0034-19.8569Q9.76562-18.6279 9.76562-16.8799Q9.76562-15.1406 11.0034-13.9072Q12.2412-12.6738 13.9805-12.6738ZM100.202-72.1729Q95.9951-72.1729 93.2686-69.4707Q90.542-66.7686 90.542-62.5615Q90.542-59.7637 91.5459-56.9614Q92.5498-54.1592 93.9463-51.6997Q95.3428-49.2402 96.6138-47.4531Q97.8848-45.666 98.3789-44.9785L101.977-44.9785Q102.471-45.6572 103.742-47.4355Q105.013-49.2139 106.414-51.6733Q107.814-54.1328 108.818-56.9395Q109.822-59.7461 109.822-62.5615Q109.822-66.7686 107.096-69.4707Q104.369-72.1729 100.202-72.1729ZM100.202-66.8828Q102.099-66.8828 103.315-65.6704Q104.532-64.458 104.532-62.5615Q104.532-60.9619 103.853-58.9834Q103.173-57.0049 102.156-55.0625Q101.139-53.1201 100.202-51.5Q99.2344-53.1201 98.2129-55.0625Q97.1914-57.0049 96.5117-58.9834Q95.832-60.9619 95.832-62.5615Q95.832-64.458 97.0488-65.6704Q98.2656-66.8828 100.202-66.8828ZM97.5459-36.96L102.787-36.96L102.787-47.2549L97.5459-47.2549Z"/>
  </g>
  <g id="Regular-S" transform="matrix(1 0 0 1 1390.76 696)">
   <path d="M75.4395-56.5918Q78.9551-56.5918 81.4453-59.0576Q83.9355-61.5234 83.9355-65.0879Q83.9355-68.6035 81.4453-71.0938Q78.9551-73.584 75.4395-73.584Q71.875-73.584 69.4092-71.0938Q66.9434-68.6035 66.9434-65.0879Q66.9434-61.5234 69.4092-59.0576Q71.875-56.5918 75.4395-56.5918ZM48.1445 2.63672Q49.4629 3.125 50.9033 2.68555Q52.3438 2.24609 53.1738 0.537109L63.1348-19.3848Q63.7207-20.5078 63.5498-21.7529Q63.3789-22.998 62.4023-23.9746L50.3906-36.0352L65.5762-43.6035Q66.6992-44.2383 67.6758-43.2617L76.709-34.2773Q77.8809-33.1055 79.4434-33.1055L97.4121-33.1055Q99.0723-33.1055 100.244-34.2529Q101.416-35.4004 101.416-37.1094Q101.416-38.7207 100.244-39.8926Q99.0723-41.0645 97.4121-41.0645L81.1035-41.0645L64.3555-57.9102Q61.2793-60.9863 56.7871-60.9863L23.6816-60.9863Q22.0703-60.9863 20.8984-59.8145Q19.7266-58.6426 19.7266-57.0312Q19.7266-55.3711 20.8984-54.1992Q22.0703-53.0273 23.6816-53.0273L48.6816-53.0273Q48.9746-53.0273 49.0723-52.6611Q49.1699-52.2949 48.877-52.1484L41.4551-48.4863Q38.4766-47.0215 36.9873-44.458Q35.498-41.8945 35.498-39.1113Q35.498-36.6699 36.5967-34.3994Q37.6953-32.1289 39.9414-30.5664L54.4922-19.9219L46.0449-3.02734Q45.0684-0.976562 45.8496 0.537109Q46.6309 2.05078 48.1445 2.63672ZM13.7695-13.1836L33.6426-13.1836Q36.1328-13.1836 37.2559-15.3809L41.748-24.4141L37.6465-27.3926Q35.498-29.0527 34.1309-31.0059L30.8594-21.1914L13.7695-21.1914Q12.1094-21.1914 10.9375-20.0195Q9.76562-18.8477 9.76562-17.1875Q9.76562-15.5273 10.9375-14.3555Q12.1094-13.1836 13.7695-13.1836ZM99.1211-71.7773Q95.0195-71.7773 92.4072-69.1895Q89.7949-66.6016 89.7949-62.5Q89.7949-59.5703 90.8691-56.6406Q91.9434-53.7109 93.3838-51.2207Q94.8242-48.7305 96.0205-47.1191Q97.2168-45.5078 97.4121-45.3125L100.781-45.3125Q100.977-45.5078 102.173-47.1191Q103.369-48.7305 104.81-51.2207Q106.25-53.7109 107.324-56.6406Q108.398-59.5703 108.398-62.5Q108.398-66.6016 105.786-69.1895Q103.174-71.7773 99.1211-71.7773ZM99.1211-67.041Q101.123-67.041 102.393-65.7715Q103.662-64.502 103.662-62.5Q103.662-60.7422 102.93-58.667Q102.197-56.5918 101.123-54.6143Q100.049-52.6367 99.1211-51.0254Q98.1445-52.6367 97.0703-54.6143Q95.9961-56.5918 95.2637-58.667Q94.5312-60.7422 94.5312-62.5Q94.5312-64.502 95.8008-65.7715Q97.0703-67.041 99.1211-67.041ZM96.7285-37.1094L101.416-37.1094L101.416-47.0703L96.7285-47.0703Z"/>
  </g>
  <g id="Light-S" transform="matrix(1 0 0 1 1095.54 696)">
   <path d="M73.4413-55.941Q76.8661-55.941 79.2807-58.3387Q81.6953-60.7363 81.6953-64.1947Q81.6953-67.6046 79.2807-70.0115Q76.8661-72.4185 73.4413-72.4185Q69.9982-72.4185 67.608-70.0115Q65.2178-67.6046 65.2178-64.1947Q65.2178-60.7363 67.608-58.3387Q69.9982-55.941 73.4413-55.941ZM46.979 1.48646Q48.2519 1.95948 49.6469 1.53516Q51.0419 1.11084 51.857-0.552622L61.5303-19.8692Q62.086-20.962 61.9226-22.1692Q61.7592-23.3765 60.8129-24.3075L49.1493-36.0199L63.8959-43.3614Q64.9737-43.9659 65.9047-43.0346L74.6806-34.3076Q75.8072-33.1813 77.3394-33.1813L94.7632-33.1813Q96.3781-33.1813 97.5121-34.2908Q98.646-35.4004 98.646-37.0488Q98.646-38.6299 97.5121-39.7639Q96.3781-40.8979 94.7632-40.8979L78.9541-40.8979L62.7055-57.2291Q59.7354-60.2145 55.3642-60.2145L23.2577-60.2145Q21.6919-60.2145 20.5579-59.0804Q19.4239-57.9463 19.4239-56.3652Q19.4239-54.7656 20.5579-53.6316Q21.6919-52.4976 23.2577-52.4976L47.4859-52.4976Q47.7938-52.4976 47.884-52.1389Q47.9741-51.7802 47.6812-51.6337L40.4864-48.0776Q37.5987-46.6583 36.1624-44.178Q34.7262-41.6977 34.7262-38.9903Q34.7262-36.6397 35.7869-34.4297Q36.8477-32.2197 39.018-30.7027L53.1298-20.3911L44.9399-3.99602Q43.9936-2.02103 44.7598-0.55275Q45.5259 0.915527 46.979 1.48646ZM13.6332-13.8646L32.916-13.8646Q35.3457-13.8646 36.4232-15.9864L40.8702-24.9135L36.9049-27.7863Q34.7867-29.3856 33.4345-31.4145L30.2086-21.6153L13.6332-21.6153Q12.0336-21.6153 10.8996-20.4737Q9.76562-19.3321 9.76562-17.7325Q9.76562-16.1329 10.8996-14.9988Q12.0336-13.8646 13.6332-13.8646ZM96.7748-70.3092Q93.0064-70.3092 90.553-67.8802Q88.0997-65.4513 88.0997-61.6826Q88.0997-58.9648 89.0755-56.2394Q90.0513-53.5141 91.3858-51.1753Q92.7203-48.8365 93.8636-47.2706Q95.0068-45.7047 95.2929-45.3883L98.2081-45.3883Q98.5092-45.7047 99.645-47.2706Q100.781-48.8365 102.115-51.1753Q103.45-53.5141 104.433-56.2394Q105.417-58.9648 105.417-61.6826Q105.417-65.4513 102.956-67.8802Q100.495-70.3092 96.7748-70.3092ZM96.7748-66.4508Q98.8375-66.4508 100.198-65.0979Q101.558-63.7451 101.558-61.6826Q101.558-59.8038 100.742-57.5696Q99.9268-55.3355 98.792-53.2974Q97.6573-51.2594 96.7748-49.8144Q95.859-51.2594 94.7241-53.2974Q93.5893-55.3355 92.7661-57.5696Q91.9429-59.8038 91.9429-61.6826Q91.9429-63.7451 93.3032-65.0979Q94.6635-66.4508 96.7748-66.4508ZM94.8214-37.0488L98.646-37.0488L98.646-46.7072L94.8214-46.7072Z"/>
  </g>
  <g id="Thin-S" transform="matrix(1 0 0 1 800.803 696)">
   <path d="M70.7986-55.0803Q74.1034-55.0803 76.4179-57.3878Q78.7324-59.6953 78.7324-63.0135Q78.7324-66.2834 76.4179-68.5802Q74.1034-70.877 70.7986-70.877Q67.5159-70.877 65.2258-68.5802Q62.9357-66.2834 62.9357-63.0135Q62.9357-59.6953 65.2258-57.3878Q67.5159-55.0803 70.7986-55.0803ZM45.4375-0.0348491Q46.6502 0.417992 47.9852 0.0136837Q49.3201-0.390625 50.1154-1.99388L59.4083-20.51Q59.9239-21.5627 59.7704-22.7198Q59.617-23.877 58.7107-24.7478L47.5076-35.9997L61.6737-43.0412Q62.6916-43.6057 63.5624-42.7343L71.9979-34.3476Q73.0646-33.2815 74.5568-33.2815L91.2598-33.2815Q92.8148-33.2815 93.8987-34.3409Q94.9825-35.4004 94.9825-36.9688Q94.9825-38.5098 93.8987-39.5937Q92.8148-40.6776 91.2598-40.6776L76.1112-40.6776L60.5232-56.3284Q57.6934-59.1937 53.4824-59.1937L22.697-59.1937Q21.1914-59.1937 20.1075-58.1095Q19.0237-57.0253 19.0237-55.4843Q19.0237-53.9647 20.1075-52.8809Q21.1914-51.797 22.697-51.797L45.9043-51.797Q46.2322-51.797 46.3124-51.4482Q46.3926-51.0994 46.0997-50.9529L39.2052-47.5371Q36.4376-46.178 35.0715-43.8077Q33.7054-41.4374 33.7054-38.8302Q33.7054-36.5996 34.716-34.4697Q35.7266-32.3398 37.7967-30.883L51.328-21.0116L43.4785-5.27718Q42.5722-3.40241 43.3183-1.99418Q44.0644-0.585937 45.4375-0.0348491ZM13.4529-14.7654L31.9551-14.7654Q34.3047-14.7654 35.322-16.7872L39.7091-25.5741L35.9241-28.3069Q33.846-29.8259 32.5136-31.9551L29.3479-22.176L13.4529-22.176Q11.9334-22.176 10.8495-21.0745Q9.76562-19.9729 9.76562-18.4533Q9.76562-16.9337 10.8495-15.8496Q11.9334-14.7654 13.4529-14.7654ZM93.6716-68.3674Q90.3438-68.3674 88.1007-66.1487Q85.8576-63.93 85.8576-60.6016Q85.8576-58.1639 86.7032-55.7089Q87.5488-53.2538 88.7432-51.1153Q89.9377-48.9768 91.0108-47.4709Q92.0839-45.965 92.4901-45.4885L94.8049-45.4885Q95.246-45.965 96.3017-47.4709Q97.3574-48.9768 98.5518-51.1153Q99.7462-53.2538 100.61-55.7089Q101.473-58.1639 101.473-60.6016Q101.473-63.93 99.2121-66.1487Q96.9512-68.3674 93.6716-68.3674ZM93.6716-65.6701Q95.8148-65.6701 97.2952-64.2071Q98.7756-62.7441 98.7756-60.6016Q98.7756-58.5626 97.8497-56.1183Q96.9238-53.6739 95.709-51.5558Q94.4942-49.4377 93.6716-48.2127Q92.8362-49.4377 91.6212-51.5558Q90.4061-53.6739 89.4628-56.1183Q88.5195-58.5626 88.5195-60.6016Q88.5195-62.7441 89.9999-64.2071Q91.4803-65.6701 93.6716-65.6701ZM92.2991-36.9688L94.9825-36.9688L94.9825-46.2268L92.2991-46.2268Z"/>
  </g>
  <g id="Ultralight-S" transform="matrix(1 0 0 1 505.102 696)">
   <path d="M69.445-54.6394Q72.6883-54.6394 74.9516-56.9008Q77.2148-59.1621 77.2148-62.4084Q77.2148-65.6067 74.9516-67.8471Q72.6883-70.0874 69.445-70.0874Q66.2445-70.0874 64.0057-67.8471Q61.7668-65.6067 61.7668-62.4084Q61.7668-59.1621 64.0057-56.9008Q66.2445-54.6394 69.445-54.6394ZM44.648-0.814056Q45.8298-0.371552 47.134-0.76561Q48.4383-1.15967 49.2233-2.73209L58.3214-20.8382Q58.8165-21.8704 58.6681-23.0019Q58.5197-24.1333 57.634-24.9733L46.6667-35.9894L60.5354-42.8772Q61.5227-43.4212 62.3627-42.5804L70.6238-34.3681Q71.6599-33.3328 73.1316-33.3328L89.4653-33.3328Q90.9897-33.3328 92.0479-34.3666Q93.1061-35.4004 93.1061-36.9278Q93.1061-38.4483 92.0479-39.5065Q90.9897-40.5647 89.4653-40.5647L74.6552-40.5647L59.4055-55.867Q56.6475-58.6708 52.5185-58.6708L22.4098-58.6708Q20.9351-58.6708 19.8769-57.6122Q18.8187-56.5536 18.8187-55.0331Q18.8187-53.5545 19.8769-52.4963Q20.9351-51.4381 22.4098-51.4381L45.0943-51.4381Q45.4323-51.4381 45.5074-51.0944Q45.5826-50.7507 45.2896-50.6042L38.549-47.2603Q35.8429-45.932 34.5127-43.618Q33.1825-41.304 33.1825-38.7482Q33.1825-36.5791 34.1675-34.4902Q35.1524-32.4013 37.1712-30.9753L50.4051-21.3295L42.7299-5.93338Q41.8442-4.10995 42.58-2.73247Q43.3159-1.35498 44.648-0.814056ZM13.3606-15.2267L31.4629-15.2267Q33.7715-15.2267 34.758-17.1974L39.1144-25.9125L35.4218-28.5736Q33.3641-30.0514 32.0419-32.2319L28.907-22.4632L13.3606-22.4632Q11.882-22.4632 10.8238-21.3821Q9.76562-20.3011 9.76562-18.8225Q9.76562-17.3439 10.8238-16.2853Q11.882-15.2267 13.3606-15.2267ZM92.0822-67.3729Q88.9801-67.3729 86.8446-65.2618Q84.7092-63.1508 84.7092-60.0479Q84.7092-57.7538 85.4881-55.4371Q86.2671-53.1204 87.3898-51.0845Q88.5124-49.0486 89.5496-47.5735Q90.5869-46.0983 91.0545-45.5399L93.0618-45.5399Q93.5745-46.0983 94.5892-47.5735Q95.6039-49.0486 96.7266-51.0845Q97.8493-53.1204 98.6511-55.4371Q99.453-57.7538 99.453-60.0479Q99.453-63.1508 97.2946-65.2618Q95.1363-67.3729 92.0822-67.3729ZM92.0822-65.2702Q94.2665-65.2702 95.8084-63.7508Q97.3503-62.2314 97.3503-60.0479Q97.3503-57.9269 96.368-55.3749Q95.3857-52.8229 94.1299-50.6638Q92.8741-48.5046 92.0822-47.3923Q91.288-48.5046 90.0318-50.6638Q88.7756-52.8229 87.7708-55.3749Q86.7661-57.9269 86.7661-60.0479Q86.7661-62.2314 88.308-63.7508Q89.8499-65.2702 92.0822-65.2702ZM91.0072-36.9278L93.1061-36.9278L93.1061-45.9808L91.0072-45.9808Z"/>
  </g>
 </g>
</svg>
