<?xml version="1.0" encoding="UTF-8"?>
<!--Generator: Apple Native CoreSVG 175.5-->
<!DOCTYPE svg
PUBLIC "-//W3C//DTD SVG 1.1//EN"
       "http://www.w3.org/Graphics/SVG/1.1/DTD/svg11.dtd">
<svg version="1.1" xmlns="http://www.w3.org/2000/svg" xmlns:xlink="http://www.w3.org/1999/xlink" width="3300" height="2200">
 <!--glyph: "uni100A8D.medium", point size: 100.0, font version: "18.0d9e1", template writer version: "84"-->
 <g id="Notes">
  <rect height="2200" id="artboard" style="fill:white;opacity:1" width="3300" x="0" y="0"/>
  <line style="fill:none;stroke:black;opacity:1;stroke-width:0.5;" x1="263" x2="3036" y1="292" y2="292"/>
  <text style="stroke:none;fill:black;font-family:sans-serif;font-size:13;font-weight:bold;" transform="matrix(1 0 0 1 263 322)">Weight/Scale Variations</text>
  <text style="stroke:none;fill:black;font-family:sans-serif;font-size:13;text-anchor:middle;" transform="matrix(1 0 0 1 559.711 322)">Ultralight</text>
  <text style="stroke:none;fill:black;font-family:sans-serif;font-size:13;text-anchor:middle;" transform="matrix(1 0 0 1 856.422 322)">Thin</text>
  <text style="stroke:none;fill:black;font-family:sans-serif;font-size:13;text-anchor:middle;" transform="matrix(1 0 0 1 1153.13 322)">Light</text>
  <text style="stroke:none;fill:black;font-family:sans-serif;font-size:13;text-anchor:middle;" transform="matrix(1 0 0 1 1449.84 322)">Regular</text>
  <text style="stroke:none;fill:black;font-family:sans-serif;font-size:13;text-anchor:middle;" transform="matrix(1 0 0 1 1746.56 322)">Medium</text>
  <text style="stroke:none;fill:black;font-family:sans-serif;font-size:13;text-anchor:middle;" transform="matrix(1 0 0 1 2043.27 322)">Semibold</text>
  <text style="stroke:none;fill:black;font-family:sans-serif;font-size:13;text-anchor:middle;" transform="matrix(1 0 0 1 2339.98 322)">Bold</text>
  <text style="stroke:none;fill:black;font-family:sans-serif;font-size:13;text-anchor:middle;" transform="matrix(1 0 0 1 2636.69 322)">Heavy</text>
  <text style="stroke:none;fill:black;font-family:sans-serif;font-size:13;text-anchor:middle;" transform="matrix(1 0 0 1 2933.4 322)">Black</text>
  <line style="fill:none;stroke:black;opacity:1;stroke-width:0.5;" x1="263" x2="3036" y1="1903" y2="1903"/>
  <g transform="matrix(1 0 0 1 263 1933)">
   <path d="M9.24805 0.830078Q10.8691 0.830078 12.2949 0.214844Q13.7207-0.400391 14.8096-1.49414Q15.8984-2.58789 16.5186-4.01367Q17.1387-5.43945 17.1387-7.05078Q17.1387-8.66211 16.5186-10.0879Q15.8984-11.5137 14.8047-12.6074Q13.7109-13.7012 12.2852-14.3164Q10.8594-14.9316 9.23828-14.9316Q7.62695-14.9316 6.20117-14.3164Q4.77539-13.7012 3.69141-12.6074Q2.60742-11.5137 1.9873-10.0879Q1.36719-8.66211 1.36719-7.05078Q1.36719-5.43945 1.9873-4.01367Q2.60742-2.58789 3.69629-1.49414Q4.78516-0.400391 6.21094 0.214844Q7.63672 0.830078 9.24805 0.830078ZM9.24805-0.654297Q7.91992-0.654297 6.7627-1.14746Q5.60547-1.64062 4.73145-2.51953Q3.85742-3.39844 3.36426-4.56055Q2.87109-5.72266 2.87109-7.05078Q2.87109-8.37891 3.35938-9.54102Q3.84766-10.7031 4.72168-11.582Q5.5957-12.4609 6.75293-12.9541Q7.91016-13.4473 9.23828-13.4473Q10.5762-13.4473 11.7383-12.9541Q12.9004-12.4609 13.7793-11.582Q14.6582-10.7031 15.1514-9.54102Q15.6445-8.37891 15.6445-7.05078Q15.6445-5.72266 15.1514-4.56055Q14.6582-3.39844 13.7793-2.51953Q12.9004-1.64062 11.7432-1.14746Q10.5859-0.654297 9.24805-0.654297ZM5.6543-7.05078Q5.6543-6.72852 5.85938-6.52832Q6.06445-6.32812 6.40625-6.32812L8.51562-6.32812L8.51562-4.20898Q8.51562-3.88672 8.71094-3.67676Q8.90625-3.4668 9.23828-3.4668Q9.56055-3.4668 9.77051-3.67676Q9.98047-3.88672 9.98047-4.20898L9.98047-6.32812L12.0898-6.32812Q12.4219-6.32812 12.627-6.52832Q12.832-6.72852 12.832-7.05078Q12.832-7.38281 12.627-7.58789Q12.4219-7.79297 12.0898-7.79297L9.98047-7.79297L9.98047-9.90234Q9.98047-10.2344 9.77051-10.4443Q9.56055-10.6543 9.23828-10.6543Q8.90625-10.6543 8.71094-10.4443Q8.51562-10.2344 8.51562-9.90234L8.51562-7.79297L6.40625-7.79297Q6.06445-7.79297 5.85938-7.58789Q5.6543-7.38281 5.6543-7.05078Z"/>
  </g>
  <g transform="matrix(1 0 0 1 281.867 1933)">
   <path d="M11.709 2.91016Q13.75 2.91016 15.5518 2.12891Q17.3535 1.34766 18.7305-0.0292969Q20.1074-1.40625 20.8887-3.20801Q21.6699-5.00977 21.6699-7.05078Q21.6699-9.0918 20.8887-10.8936Q20.1074-12.6953 18.7305-14.0723Q17.3535-15.4492 15.5469-16.2305Q13.7402-17.0117 11.6992-17.0117Q9.6582-17.0117 7.85645-16.2305Q6.05469-15.4492 4.68262-14.0723Q3.31055-12.6953 2.5293-10.8936Q1.74805-9.0918 1.74805-7.05078Q1.74805-5.00977 2.5293-3.20801Q3.31055-1.40625 4.6875-0.0292969Q6.06445 1.34766 7.86621 2.12891Q9.66797 2.91016 11.709 2.91016ZM11.709 1.25Q9.98047 1.25 8.47656 0.605469Q6.97266-0.0390625 5.83496-1.17676Q4.69727-2.31445 4.05762-3.81836Q3.41797-5.32227 3.41797-7.05078Q3.41797-8.7793 4.05762-10.2832Q4.69727-11.7871 5.83008-12.9297Q6.96289-14.0723 8.4668-14.7119Q9.9707-15.3516 11.6992-15.3516Q13.4277-15.3516 14.9365-14.7119Q16.4453-14.0723 17.583-12.9297Q18.7207-11.7871 19.3652-10.2832Q20.0098-8.7793 20.0098-7.05078Q20.0098-5.32227 19.3701-3.81836Q18.7305-2.31445 17.5879-1.17676Q16.4453-0.0390625 14.9414 0.605469Q13.4375 1.25 11.709 1.25ZM7.17773-7.05078Q7.17773-6.69922 7.41211-6.47461Q7.64648-6.25 8.01758-6.25L10.8887-6.25L10.8887-3.36914Q10.8887-2.99805 11.1133-2.76855Q11.3379-2.53906 11.6895-2.53906Q12.0605-2.53906 12.29-2.76855Q12.5195-2.99805 12.5195-3.36914L12.5195-6.25L15.4004-6.25Q15.7715-6.25 16.001-6.47461Q16.2305-6.69922 16.2305-7.05078Q16.2305-7.42188 16.001-7.65137Q15.7715-7.88086 15.4004-7.88086L12.5195-7.88086L12.5195-10.752Q12.5195-11.1328 12.29-11.3623Q12.0605-11.5918 11.6895-11.5918Q11.3379-11.5918 11.1133-11.3574Q10.8887-11.123 10.8887-10.752L10.8887-7.88086L8.01758-7.88086Q7.63672-7.88086 7.40723-7.65137Q7.17773-7.42188 7.17773-7.05078Z"/>
  </g>
  <g transform="matrix(1 0 0 1 305.646 1933)">
   <path d="M14.9707 5.66406Q17.0605 5.66406 18.96 5.01465Q20.8594 4.36523 22.4512 3.19336Q24.043 2.02148 25.2197 0.429688Q26.3965-1.16211 27.0459-3.06641Q27.6953-4.9707 27.6953-7.05078Q27.6953-9.14062 27.0459-11.04Q26.3965-12.9395 25.2197-14.5312Q24.043-16.123 22.4512-17.2998Q20.8594-18.4766 18.9551-19.126Q17.0508-19.7754 14.9609-19.7754Q12.8711-19.7754 10.9717-19.126Q9.07227-18.4766 7.48535-17.2998Q5.89844-16.123 4.72168-14.5312Q3.54492-12.9395 2.90039-11.04Q2.25586-9.14062 2.25586-7.05078Q2.25586-4.9707 2.90527-3.06641Q3.55469-1.16211 4.72656 0.429688Q5.89844 2.02148 7.49023 3.19336Q9.08203 4.36523 10.9814 5.01465Q12.8809 5.66406 14.9707 5.66406ZM14.9707 3.84766Q13.1641 3.84766 11.5283 3.2959Q9.89258 2.74414 8.53516 1.74805Q7.17773 0.751953 6.17676-0.610352Q5.17578-1.97266 4.62891-3.6084Q4.08203-5.24414 4.08203-7.05078Q4.08203-8.86719 4.62891-10.5029Q5.17578-12.1387 6.17188-13.501Q7.16797-14.8633 8.52539-15.8594Q9.88281-16.8555 11.5186-17.4023Q13.1543-17.9492 14.9609-17.9492Q16.7773-17.9492 18.4131-17.4023Q20.0488-16.8555 21.4111-15.8594Q22.7734-14.8633 23.7744-13.501Q24.7754-12.1387 25.3223-10.5029Q25.8691-8.86719 25.8691-7.05078Q25.8691-5.24414 25.3223-3.6084Q24.7754-1.97266 23.7793-0.610352Q22.7832 0.751953 21.4209 1.74805Q20.0586 2.74414 18.4229 3.2959Q16.7871 3.84766 14.9707 3.84766ZM9.19922-7.05078Q9.19922-6.66992 9.45801-6.4209Q9.7168-6.17188 10.1172-6.17188L14.0625-6.17188L14.0625-2.2168Q14.0625-1.81641 14.3115-1.55762Q14.5605-1.29883 14.9512-1.29883Q15.3516-1.29883 15.6104-1.55273Q15.8691-1.80664 15.8691-2.2168L15.8691-6.17188L19.8242-6.17188Q20.2246-6.17188 20.4785-6.4209Q20.7324-6.66992 20.7324-7.05078Q20.7324-7.46094 20.4785-7.71484Q20.2246-7.96875 19.8242-7.96875L15.8691-7.96875L15.8691-11.9141Q15.8691-12.3242 15.6104-12.583Q15.3516-12.8418 14.9512-12.8418Q14.5605-12.8418 14.3115-12.583Q14.0625-12.3242 14.0625-11.9141L14.0625-7.96875L10.1172-7.96875Q9.70703-7.96875 9.45312-7.71484Q9.19922-7.46094 9.19922-7.05078Z"/>
  </g>
  <text style="stroke:none;fill:black;font-family:sans-serif;font-size:13;font-weight:bold;" transform="matrix(1 0 0 1 263 1953)">Design Variations</text>
  <text style="stroke:none;fill:black;font-family:sans-serif;font-size:13;" transform="matrix(1 0 0 1 263 1971)">Symbols are supported in up to nine weights and three scales.</text>
  <text style="stroke:none;fill:black;font-family:sans-serif;font-size:13;" transform="matrix(1 0 0 1 263 1989)">For optimal layout with text and other symbols, vertically align</text>
  <text style="stroke:none;fill:black;font-family:sans-serif;font-size:13;" transform="matrix(1 0 0 1 263 2007)">symbols with the adjacent text.</text>
  <line style="fill:none;stroke:#00AEEF;stroke-width:0.5;opacity:1.0;" x1="776" x2="776" y1="1919" y2="1933"/>
  <g transform="matrix(1 0 0 1 776 1933)">
   <path d="M3.31055 0.15625Q3.70117 0.15625 3.91602-0.00976562Q4.13086-0.175781 4.26758-0.585938L5.52734-4.0332L11.2891-4.0332L12.5488-0.585938Q12.6855-0.175781 12.9004-0.00976562Q13.1152 0.15625 13.4961 0.15625Q13.8867 0.15625 14.1162-0.0585938Q14.3457-0.273438 14.3457-0.644531Q14.3457-0.869141 14.2383-1.17188L9.6582-13.3691Q9.48242-13.8184 9.17969-14.043Q8.87695-14.2676 8.4082-14.2676Q7.5-14.2676 7.17773-13.3789L2.59766-1.16211Q2.49023-0.859375 2.49023-0.634766Q2.49023-0.263672 2.70996-0.0537109Q2.92969 0.15625 3.31055 0.15625ZM6.00586-5.51758L8.37891-12.0898L8.42773-12.0898L10.8008-5.51758Z"/>
  </g>
  <line style="fill:none;stroke:#00AEEF;stroke-width:0.5;opacity:1.0;" x1="793.197" x2="793.197" y1="1919" y2="1933"/>
  <text style="stroke:none;fill:black;font-family:sans-serif;font-size:13;font-weight:bold;" transform="matrix(1 0 0 1 776 1953)">Margins</text>
  <text style="stroke:none;fill:black;font-family:sans-serif;font-size:13;" transform="matrix(1 0 0 1 776 1971)">Leading and trailing margins on the left and right side of each symbol</text>
  <text style="stroke:none;fill:black;font-family:sans-serif;font-size:13;" transform="matrix(1 0 0 1 776 1989)">can be adjusted by modifying the x-location of the margin guidelines.</text>
  <text style="stroke:none;fill:black;font-family:sans-serif;font-size:13;" transform="matrix(1 0 0 1 776 2007)">Modifications are automatically applied proportionally to all</text>
  <text style="stroke:none;fill:black;font-family:sans-serif;font-size:13;" transform="matrix(1 0 0 1 776 2025)">scales and weights.</text>
  <g transform="matrix(1 0 0 1 1289 1933)">
   <path d="M2.8418 1.86523L4.54102 3.57422Q5.18555 4.22852 5.90332 4.17969Q6.62109 4.13086 7.31445 3.35938L18.0078-8.42773L17.041-9.4043L6.42578 2.27539Q6.16211 2.57812 5.89355 2.61719Q5.625 2.65625 5.27344 2.30469L4.10156 1.14258Q3.75 0.791016 3.79395 0.522461Q3.83789 0.253906 4.14062-0.0195312L15.6152-10.8203L14.6387-11.7871L3.04688-0.898438Q2.30469-0.214844 2.25098 0.498047Q2.19727 1.21094 2.8418 1.86523ZM9.25781-16.3281Q8.94531-16.0254 8.90625-15.6348Q8.86719-15.2441 9.04297-14.9512Q9.21875-14.6777 9.55566-14.541Q9.89258-14.4043 10.3809-14.5215Q11.4746-14.7754 12.5977-14.7314Q13.7207-14.6875 14.7949-13.9844L14.209-12.5293Q13.9551-11.9043 14.0674-11.4404Q14.1797-10.9766 14.5801-10.5664L16.875-8.25195Q17.2363-7.88086 17.5781-7.82227Q17.9199-7.76367 18.3398-7.8418L19.4043-8.03711L20.0684-7.36328L20.0293-6.80664Q20-6.43555 20.1221-6.12305Q20.2441-5.81055 20.6055-5.44922L21.3672-4.70703Q21.7285-4.3457 22.1533-4.33105Q22.5781-4.31641 22.9297-4.66797L25.8398-7.58789Q26.1914-7.93945 26.1816-8.35449Q26.1719-8.76953 25.8105-9.13086L25.0391-9.89258Q24.6875-10.2539 24.3799-10.3857Q24.0723-10.5176 23.7109-10.4883L23.1348-10.4395L22.4902-11.0742L22.7344-12.1973Q22.832-12.6172 22.6953-12.9834Q22.5586-13.3496 22.1191-13.7891L19.9219-15.9766Q18.6719-17.2168 17.2607-17.8369Q15.8496-18.457 14.4189-18.4814Q12.9883-18.5059 11.665-17.959Q10.3418-17.4121 9.25781-16.3281ZM10.752-15.957Q11.6602-16.6211 12.7002-16.9043Q13.7402-17.1875 14.8047-17.085Q15.8691-16.9824 16.8701-16.5137Q17.8711-16.0449 18.7012-15.2051L21.1328-12.793Q21.3086-12.6172 21.3525-12.4512Q21.3965-12.2852 21.3379-12.0312L21.0156-10.5469L22.5195-9.0625L23.5059-9.12109Q23.6914-9.13086 23.7891-9.09668Q23.8867-9.0625 24.0332-8.91602L24.6094-8.33984L22.168-5.89844L21.5918-6.47461Q21.4453-6.62109 21.4062-6.71875Q21.3672-6.81641 21.377-7.01172L21.4453-7.98828L19.9512-9.47266L18.4277-9.21875Q18.1836-9.16992 18.042-9.2041Q17.9004-9.23828 17.7148-9.41406L15.7129-11.416Q15.5176-11.5918 15.4932-11.7529Q15.4688-11.9141 15.5859-12.1875L16.4648-14.2773Q15.293-15.3711 13.8281-15.791Q12.3633-16.2109 10.8398-15.7617Q10.7227-15.7324 10.6885-15.8057Q10.6543-15.8789 10.752-15.957Z"/>
  </g>
  <text style="stroke:none;fill:black;font-family:sans-serif;font-size:13;font-weight:bold;" transform="matrix(1 0 0 1 1289 1953)">Exporting</text>
  <text style="stroke:none;fill:black;font-family:sans-serif;font-size:13;" transform="matrix(1 0 0 1 1289 1971)">Symbols should be outlined when exporting to ensure the</text>
  <text style="stroke:none;fill:black;font-family:sans-serif;font-size:13;" transform="matrix(1 0 0 1 1289 1989)">design is preserved when submitting to Xcode.</text>
  <text id="template-version" style="stroke:none;fill:black;font-family:sans-serif;font-size:13;text-anchor:end;" transform="matrix(1 0 0 1 3036 1933)">Template v.2.0</text>
  <text style="stroke:none;fill:black;font-family:sans-serif;font-size:13;text-anchor:end;" transform="matrix(1 0 0 1 3036 1951)">Requires Xcode 12 or greater</text>
  <text id="descriptive-name" style="stroke:none;fill:black;font-family:sans-serif;font-size:13;text-anchor:end;" transform="matrix(1 0 0 1 3036 1969)">Generated from faxmachine.fill</text>
  <text style="stroke:none;fill:black;font-family:sans-serif;font-size:13;text-anchor:end;" transform="matrix(1 0 0 1 3036 1987)">Typeset at 100 points</text>
  <text style="stroke:none;fill:black;font-family:sans-serif;font-size:13;" transform="matrix(1 0 0 1 263 726)">Small</text>
  <text style="stroke:none;fill:black;font-family:sans-serif;font-size:13;" transform="matrix(1 0 0 1 263 1156)">Medium</text>
  <text style="stroke:none;fill:black;font-family:sans-serif;font-size:13;" transform="matrix(1 0 0 1 263 1586)">Large</text>
 </g>
 <g id="Guides">
  <g id="H-reference" style="fill:#27AAE1;stroke:none;" transform="matrix(1 0 0 1 339 696)">
   <path d="M0.993347 0L3.6377 0L29.3282-67.1326L30.0301-67.1326L30.0301-70.459L28.1227-70.459ZM11.6882-24.4797L46.9818-24.4797L46.2311-26.7288L12.4382-26.7288ZM55.1193 0L57.7637 0L30.6381-70.459L29.4327-70.459L29.4327-67.1326Z"/>
  </g>
  <line id="Baseline-S" style="fill:none;stroke:#27AAE1;opacity:1;stroke-width:0.5;" x1="263" x2="3036" y1="696" y2="696"/>
  <line id="Capline-S" style="fill:none;stroke:#27AAE1;opacity:1;stroke-width:0.5;" x1="263" x2="3036" y1="625.541" y2="625.541"/>
  <g id="H-reference" style="fill:#27AAE1;stroke:none;" transform="matrix(1 0 0 1 339 1126)">
   <path d="M0.993347 0L3.6377 0L29.3282-67.1326L30.0301-67.1326L30.0301-70.459L28.1227-70.459ZM11.6882-24.4797L46.9818-24.4797L46.2311-26.7288L12.4382-26.7288ZM55.1193 0L57.7637 0L30.6381-70.459L29.4327-70.459L29.4327-67.1326Z"/>
  </g>
  <line id="Baseline-M" style="fill:none;stroke:#27AAE1;opacity:1;stroke-width:0.5;" x1="263" x2="3036" y1="1126" y2="1126"/>
  <line id="Capline-M" style="fill:none;stroke:#27AAE1;opacity:1;stroke-width:0.5;" x1="263" x2="3036" y1="1055.54" y2="1055.54"/>
  <g id="H-reference" style="fill:#27AAE1;stroke:none;" transform="matrix(1 0 0 1 339 1556)">
   <path d="M0.993347 0L3.6377 0L29.3282-67.1326L30.0301-67.1326L30.0301-70.459L28.1227-70.459ZM11.6882-24.4797L46.9818-24.4797L46.2311-26.7288L12.4382-26.7288ZM55.1193 0L57.7637 0L30.6381-70.459L29.4327-70.459L29.4327-67.1326Z"/>
  </g>
  <line id="Baseline-L" style="fill:none;stroke:#27AAE1;opacity:1;stroke-width:0.5;" x1="263" x2="3036" y1="1556" y2="1556"/>
  <line id="Capline-L" style="fill:none;stroke:#27AAE1;opacity:1;stroke-width:0.5;" x1="263" x2="3036" y1="1485.54" y2="1485.54"/>
  <line id="left-margin" style="fill:none;stroke:#00AEEF;stroke-width:0.5;opacity:1.0;" x1="1382.56" x2="1382.56" y1="1030.79" y2="1150.12"/>
  <line id="right-margin" style="fill:none;stroke:#00AEEF;stroke-width:0.5;opacity:1.0;" x1="1517.13" x2="1517.13" y1="1030.79" y2="1150.12"/>
 </g>
 <g id="Symbols">
  <g id="Black-L" transform="matrix(1 0 0 1 2843.64 1556)">
   <path d="M43.6137-92.8373L135.899-92.8373L135.899-93.2132Q135.899-100.83 129.854-104.739Q123.81-108.648 115.127-108.648L64.3844-108.648Q55.826-108.648 49.7199-104.739Q43.6137-100.83 43.6137-93.2132ZM61.3012 37.0257L118.211 37.0257Q127.289 37.0257 131.641 32.6969Q135.993 28.368 135.993 19.2434L135.993 12.5465L140.51 12.5465Q151.449 12.5465 157.438 6.60032Q163.427 0.654151 163.427-10.2877L163.427-58.8283Q163.427-69.7689 157.438-75.7157Q151.449-81.6625 140.51-81.6625L39.0026-81.6625Q28.2077-81.6625 22.1459-75.7157Q16.084-69.7689 16.084-58.8283L16.084-10.2877Q16.084 0.654151 22.073 6.60032Q28.062 12.5465 39.0026 12.5465L43.5177 12.5465L43.5177 19.2434Q43.5177 28.368 47.8992 32.6969Q52.2807 37.0257 61.3012 37.0257ZM56.4311-49.073Q52.8774-49.073 52.8774-52.685L52.8774-59.0471Q52.8774-62.6007 56.4311-62.6007L62.7347-62.6007Q66.3467-62.6007 66.3467-59.0471L66.3467-52.685Q66.3467-49.073 62.7347-49.073ZM76.668-49.073Q73.056-49.073 73.056-52.685L73.056-59.0471Q73.056-62.6007 76.668-62.6007L82.9728-62.6007Q86.5265-62.6007 86.5265-59.0471L86.5265-52.685Q86.5265-49.073 82.9728-49.073ZM96.8465-49.073Q93.2733-49.073 93.2733-52.685L93.2733-59.0471Q93.2733-62.6007 96.8465-62.6007L103.151-62.6007Q106.763-62.6007 106.763-59.0471L106.763-52.685Q106.763-49.073 103.151-49.073ZM117.064-49.073Q113.473-49.073 113.473-52.685L113.473-59.0471Q113.473-62.6007 117.064-62.6007L123.368-62.6007Q126.942-62.6007 126.942-59.0471L126.942-52.685Q126.942-49.073 123.368-49.073ZM56.4311-28.1941Q52.8774-28.1941 52.8774-31.7477L52.8774-38.0889Q52.8774-41.7218 56.4311-41.7218L62.7347-41.7218Q66.3467-41.7218 66.3467-38.0889L66.3467-31.7477Q66.3467-28.1941 62.7347-28.1941ZM76.668-28.1941Q73.056-28.1941 73.056-31.7477L73.056-38.0889Q73.056-41.7218 76.668-41.7218L82.9728-41.7218Q86.5265-41.7218 86.5265-38.0889L86.5265-31.7477Q86.5265-28.1941 82.9728-28.1941ZM96.8465-28.1941Q93.2733-28.1941 93.2733-31.7477L93.2733-38.0889Q93.2733-41.7218 96.8465-41.7218L103.151-41.7218Q106.763-41.7218 106.763-38.0889L106.763-31.7477Q106.763-28.1941 103.151-28.1941ZM117.064-28.1941Q113.473-28.1941 113.473-31.7477L113.473-38.0889Q113.473-41.7218 117.064-41.7218L123.368-41.7218Q126.942-41.7218 126.942-38.0889L126.942-31.7477Q126.942-28.1941 123.368-28.1941ZM62.2784 21.3998Q60.9566 21.3998 60.1846 20.6668Q59.4127 19.9338 59.4127 18.512L59.4127-3.73946Q59.4127-5.14051 60.1852-5.87406Q60.9578-6.60762 62.2796-6.60762L117.254-6.60762Q118.634-6.60762 119.366-5.87406Q120.099-5.14051 120.099-3.73946L120.099 18.512Q120.099 19.9338 119.367 20.6668Q118.635 21.3998 117.255 21.3998ZM73.426 13.8846L106.395 13.8846Q109.074 13.8846 110.969 11.9896Q112.864 10.0945 112.864 7.33504Q112.864 4.65599 110.969 2.76152Q109.074 0.867059 106.395 0.867059L73.426 0.867059Q70.6874 0.867059 68.7819 2.76152Q66.8765 4.65599 66.8765 7.33504Q66.8765 10.0945 68.7819 11.9896Q70.6874 13.8846 73.426 13.8846Z"/>
  </g>
  <g id="Heavy-L" transform="matrix(1 0 0 1 2547.71 1556)">
   <path d="M42.9818-91.3592L134.981-91.3592L134.981-91.9625Q134.981-99.4141 129.247-103.171Q123.513-106.929 115.08-106.929L62.8771-106.929Q54.6253-106.929 48.8035-103.171Q42.9818-99.4141 42.9818-91.9625ZM58.9791 36.1278L118.984 36.1278Q127.352 36.1278 131.395 32.1399Q135.439 28.152 135.439 19.6724L135.439 11.8424L140.03 11.8424Q150.519 11.8424 156.196 6.23132Q161.873 0.620195 161.873-9.88039L161.873-59.2167Q161.873-69.7116 156.196-75.3256Q150.519-80.9395 140.03-80.9395L37.9332-80.9395Q27.6495-80.9395 21.8668-75.3256Q16.084-69.7116 16.084-59.2167L16.084-9.88039Q16.084 0.620195 21.7611 6.23132Q27.4382 11.8424 37.9332 11.8424L42.5182 11.8424L42.5182 19.6724Q42.5182 28.152 46.5843 32.1399Q50.6504 36.1278 58.9791 36.1278ZM55.4264-49.1685Q52.0327-49.1685 52.0327-52.6069L52.0327-58.8398Q52.0327-62.2335 55.4264-62.2335L61.6147-62.2335Q65.0531-62.2335 65.0531-58.8398L65.0531-52.6069Q65.0531-49.1685 61.6147-49.1685ZM75.8805-49.1685Q72.4421-49.1685 72.4421-52.6069L72.4421-58.8398Q72.4421-62.2335 75.8805-62.2335L82.0743-62.2335Q85.4681-62.2335 85.4681-58.8398L85.4681-52.6069Q85.4681-49.1685 82.0743-49.1685ZM96.2898-49.1685Q92.8716-49.1685 92.8716-52.6069L92.8716-58.8398Q92.8716-62.2335 96.2898-62.2335L102.484-62.2335Q105.922-62.2335 105.922-58.8398L105.922-52.6069Q105.922-49.1685 102.484-49.1685ZM116.719-49.1685Q113.311-49.1685 113.311-52.6069L113.311-58.8398Q113.311-62.2335 116.719-62.2335L122.908-62.2335Q126.331-62.2335 126.331-58.8398L126.331-52.6069Q126.331-49.1685 122.908-49.1685ZM55.4264-28.0641Q52.0327-28.0641 52.0327-31.4579L52.0327-37.6605Q52.0327-41.1291 55.4264-41.1291L61.6147-41.1291Q65.0531-41.1291 65.0531-37.6605L65.0531-31.4579Q65.0531-28.0641 61.6147-28.0641ZM75.8805-28.0641Q72.4421-28.0641 72.4421-31.4579L72.4421-37.6605Q72.4421-41.1291 75.8805-41.1291L82.0743-41.1291Q85.4681-41.1291 85.4681-37.6605L85.4681-31.4579Q85.4681-28.0641 82.0743-28.0641ZM96.2898-28.0641Q92.8716-28.0641 92.8716-31.4579L92.8716-37.6605Q92.8716-41.1291 96.2898-41.1291L102.484-41.1291Q105.922-41.1291 105.922-37.6605L105.922-31.4579Q105.922-28.0641 102.484-28.0641ZM116.719-28.0641Q113.311-28.0641 113.311-31.4579L113.311-37.6605Q113.311-41.1291 116.719-41.1291L122.908-41.1291Q126.331-41.1291 126.331-37.6605L126.331-31.4579Q126.331-28.0641 122.908-28.0641ZM60.3922 22.0974Q58.7249 22.0974 57.8155 21.2226Q56.9062 20.3478 56.9062 18.5756L56.9062-3.38143Q56.9062-5.12349 57.8184-6.00106Q58.7305-6.87863 60.3977-6.87863L117.595-6.87863Q119.307-6.87863 120.179-6.00106Q121.051-5.12349 121.051-3.38143L121.051 18.5756Q121.051 20.3478 120.182 21.2226Q119.313 22.0974 117.601 22.0974ZM71.4936 13.6263L106.876 13.6263Q109.365 13.6263 111.124 11.8672Q112.883 10.1081 112.883 7.539Q112.883 5.05027 111.124 3.29397Q109.365 1.53766 106.876 1.53766L71.4936 1.53766Q68.9546 1.53766 67.1804 3.29397Q65.4062 5.05027 65.4062 7.539Q65.4062 10.1081 67.1804 11.8672Q68.9546 13.6263 71.4936 13.6263Z"/>
  </g>
  <g id="Bold-L" transform="matrix(1 0 0 1 2252.03 1556)">
   <path d="M42.2428-89.4782L133.658-89.4782L133.658-90.4402Q133.658-97.7068 128.338-101.291Q123.018-104.875 114.9-104.875L60.9876-104.875Q53.0974-104.875 47.6701-101.291Q42.2428-97.7068 42.2428-90.4402ZM56.4779 34.9466L119.422 34.9466Q127.033 34.9466 130.741 31.3254Q134.45 27.7043 134.45 19.9195L134.45 11.0709L139.319 11.0709Q149.232 11.0709 154.518 5.87474Q159.803 0.678581 159.803-9.26151L159.803-59.7529Q159.803-69.6797 154.518-74.8825Q149.232-80.0853 139.319-80.0853L36.5817-80.0853Q26.9208-80.0853 21.5024-74.8825Q16.084-69.6797 16.084-59.7529L16.084-9.26151Q16.084 0.678581 21.3694 5.87474Q26.6547 11.0709 36.5817 11.0709L41.4375 11.0709L41.4375 19.9195Q41.4375 27.7043 45.1602 31.3254Q48.883 34.9466 56.4779 34.9466ZM54.2785-49.3584Q51.0771-49.3584 51.0771-52.5891L51.0771-58.616Q51.0771-61.8173 54.2785-61.8173L60.2761-61.8173Q63.5069-61.8173 63.5069-58.616L63.5069-52.5891Q63.5069-49.3584 60.2761-49.3584ZM74.8897-49.3584Q71.659-49.3584 71.659-52.5891L71.659-58.616Q71.659-61.8173 74.8897-61.8173L80.9005-61.8173Q84.1021-61.8173 84.1021-58.616L84.1021-52.5891Q84.1021-49.3584 80.9005-49.3584ZM95.4716-49.3584Q92.2455-49.3584 92.2455-52.5891L92.2455-58.616Q92.2455-61.8173 95.4716-61.8173L101.483-61.8173Q104.713-61.8173 104.713-58.616L104.713-52.5891Q104.713-49.3584 101.483-49.3584ZM116.058-49.3584Q112.865-49.3584 112.865-52.5891L112.865-58.616Q112.865-61.8173 116.058-61.8173L122.056-61.8173Q125.295-61.8173 125.295-58.616L125.295-52.5891Q125.295-49.3584 122.056-49.3584ZM54.2785-28.0071Q51.0771-28.0071 51.0771-31.2086L51.0771-37.1974Q51.0771-40.466 54.2785-40.466L60.2761-40.466Q63.5069-40.466 63.5069-37.1974L63.5069-31.2086Q63.5069-28.0071 60.2761-28.0071ZM74.8897-28.0071Q71.659-28.0071 71.659-31.2086L71.659-37.1974Q71.659-40.466 74.8897-40.466L80.9005-40.466Q84.1021-40.466 84.1021-37.1974L84.1021-31.2086Q84.1021-28.0071 80.9005-28.0071ZM95.4716-28.0071Q92.2455-28.0071 92.2455-31.2086L92.2455-37.1974Q92.2455-40.466 95.4716-40.466L101.483-40.466Q104.713-40.466 104.713-37.1974L104.713-31.2086Q104.713-28.0071 101.483-28.0071ZM116.058-28.0071Q112.865-28.0071 112.865-31.2086L112.865-37.1974Q112.865-40.466 116.058-40.466L122.056-40.466Q125.295-40.466 125.295-37.1974L125.295-31.2086Q125.295-28.0071 122.056-28.0071ZM58.25 22.9582Q56.0705 22.9582 54.966 21.8806Q53.8615 20.8029 53.8615 18.5184L53.8615-2.90596Q53.8615-5.15262 54.9726-6.2368Q56.0838-7.32098 58.2631-7.32098L117.675-7.32098Q119.884-7.32098 120.955-6.2368Q122.026-5.15262 122.026-2.90596L122.026 18.5184Q122.026 20.8029 120.961 21.8806Q119.897 22.9582 117.688 22.9582ZM69.0962 13.2142L107.289 13.2142Q109.525 13.2142 111.104 11.6354Q112.683 10.0565 112.683 7.7404Q112.683 5.50473 111.104 3.93241Q109.525 2.3601 107.289 2.3601L69.0962 2.3601Q66.8183 2.3601 65.2203 3.93241Q63.6224 5.50473 63.6224 7.7404Q63.6224 10.0565 65.2203 11.6354Q66.8183 13.2142 69.0962 13.2142Z"/>
  </g>
  <g id="Semibold-L" transform="matrix(1 0 0 1 1956.04 1556)">
   <path d="M41.7334-88.1814L132.745-88.1814L132.745-89.3908Q132.745-96.5298 127.711-99.9944Q122.676-103.459 114.775-103.459L59.685-103.459Q52.0441-103.459 46.8887-99.9944Q41.7334-96.5298 41.7334-89.3908ZM54.7536 34.1323L119.725 34.1323Q126.814 34.1323 130.291 30.764Q133.767 27.3956 133.767 20.0898L133.767 10.539L138.828 10.539Q148.345 10.539 153.361 5.62892Q158.376 0.718833 158.376-8.83486L158.376-60.1226Q158.376-69.6576 153.361-74.577Q148.345-79.4964 138.828-79.4964L35.65-79.4964Q26.4184-79.4964 21.2512-74.577Q16.084-69.6576 16.084-60.1226L16.084-8.83486Q16.084 0.718833 21.0993 5.62892Q26.1146 10.539 35.65 10.539L40.6925 10.539L40.6925 20.0898Q40.6925 27.3956 44.1785 30.764Q47.6645 34.1323 54.7536 34.1323ZM53.4871-49.4893Q50.4183-49.4893 50.4183-52.5769L50.4183-58.4617Q50.4183-61.5305 53.4871-61.5305L59.3533-61.5305Q62.4409-61.5305 62.4409-58.4617L62.4409-52.5769Q62.4409-49.4893 59.3533-49.4893ZM74.2067-49.4893Q71.1191-49.4893 71.1191-52.5769L71.1191-58.4617Q71.1191-61.5305 74.2067-61.5305L80.0913-61.5305Q83.1604-61.5305 83.1604-58.4617L83.1604-52.5769Q83.1604-49.4893 80.0913-49.4893ZM94.9075-49.4893Q91.8139-49.4893 91.8139-52.5769L91.8139-58.4617Q91.8139-61.5305 94.9075-61.5305L100.792-61.5305Q103.88-61.5305 103.88-58.4617L103.88-52.5769Q103.88-49.4893 100.792-49.4893ZM115.602-49.4893Q112.558-49.4893 112.558-52.5769L112.558-58.4617Q112.558-61.5305 115.602-61.5305L121.469-61.5305Q124.581-61.5305 124.581-58.4617L124.581-52.5769Q124.581-49.4893 121.469-49.4893ZM53.4871-27.9678Q50.4183-27.9678 50.4183-31.0368L50.4183-36.8781Q50.4183-40.0089 53.4871-40.0089L59.3533-40.0089Q62.4409-40.0089 62.4409-36.8781L62.4409-31.0368Q62.4409-27.9678 59.3533-27.9678ZM74.2067-27.9678Q71.1191-27.9678 71.1191-31.0368L71.1191-36.8781Q71.1191-40.0089 74.2067-40.0089L80.0913-40.0089Q83.1604-40.0089 83.1604-36.8781L83.1604-31.0368Q83.1604-27.9678 80.0913-27.9678ZM94.9075-27.9678Q91.8139-27.9678 91.8139-31.0368L91.8139-36.8781Q91.8139-40.0089 94.9075-40.0089L100.792-40.0089Q103.88-40.0089 103.88-36.8781L103.88-31.0368Q103.88-27.9678 100.792-27.9678ZM115.602-27.9678Q112.558-27.9678 112.558-31.0368L112.558-36.8781Q112.558-40.0089 115.602-40.0089L121.469-40.0089Q124.581-40.0089 124.581-36.8781L124.581-31.0368Q124.581-27.9678 121.469-27.9678ZM56.7733 23.5516Q54.2405 23.5516 53.0015 22.3341Q51.7624 21.1167 51.7624 18.4789L51.7624-2.57818Q51.7624-5.1727 53.0108-6.39932Q54.2591-7.62594 56.7916-7.62594L117.73-7.62594Q120.281-7.62594 121.489-6.39932Q122.697-5.1727 122.697-2.57818L122.697 18.4789Q122.697 21.1167 121.499 22.3341Q120.3 23.5516 117.749 23.5516ZM67.4436 12.9301L107.574 12.9301Q109.635 12.9301 111.09 11.4755Q112.544 10.0209 112.544 7.87924Q112.544 5.81803 111.09 4.37255Q109.635 2.92708 107.574 2.92708L67.4436 2.92708Q65.3454 2.92708 63.869 4.37255Q62.3926 5.81803 62.3926 7.87924Q62.3926 10.0209 63.869 11.4755Q65.3454 12.9301 67.4436 12.9301Z"/>
  </g>
  <g id="Medium-L" transform="matrix(1 0 0 1 1659.87 1556)">
   <path d="M41.3471-87.1982L132.053-87.1982L132.053-88.595Q132.053-95.6373 127.235-99.0113Q122.417-102.385 114.681-102.385L58.6973-102.385Q51.2455-102.385 46.2963-99.0113Q41.3471-95.6373 41.3471-88.595ZM53.4461 33.5149L119.954 33.5149Q126.648 33.5149 129.949 30.3382Q133.25 27.1615 133.25 20.219L133.25 10.1357L138.457 10.1357Q147.673 10.1357 152.483 5.44253Q157.294 0.749353 157.294-8.51135L157.294-60.4028Q157.294-69.6409 152.483-74.3454Q147.673-79.0499 138.457-79.0499L34.9435-79.0499Q26.0374-79.0499 21.0607-74.3454Q16.084-69.6409 16.084-60.4028L16.084-8.51135Q16.084 0.749353 20.8945 5.44253Q25.7051 10.1357 34.9435 10.1357L40.1276 10.1357L40.1276 20.219Q40.1276 27.1615 43.4341 30.3382Q46.7406 33.5149 53.4461 33.5149ZM52.887-49.5885Q49.9188-49.5885 49.9188-52.5676L49.9188-58.3447Q49.9188-61.3129 52.887-61.3129L58.6536-61.3129Q61.6327-61.3129 61.6327-58.3447L61.6327-52.5676Q61.6327-49.5885 58.6536-49.5885ZM73.6889-49.5885Q70.7098-49.5885 70.7098-52.5676L70.7098-58.3447Q70.7098-61.3129 73.6889-61.3129L79.4777-61.3129Q82.4463-61.3129 82.4463-58.3447L82.4463-52.5676Q82.4463-49.5885 79.4777-49.5885ZM94.4799-49.5885Q91.4867-49.5885 91.4867-52.5676L91.4867-58.3447Q91.4867-61.3129 94.4799-61.3129L100.269-61.3129Q103.248-61.3129 103.248-58.3447L103.248-52.5676Q103.248-49.5885 100.269-49.5885ZM115.256-49.5885Q112.325-49.5885 112.325-52.5676L112.325-58.3447Q112.325-61.3129 115.256-61.3129L121.023-61.3129Q124.039-61.3129 124.039-58.3447L124.039-52.5676Q124.039-49.5885 121.023-49.5885ZM52.887-27.9379Q49.9188-27.9379 49.9188-30.9065L49.9188-36.636Q49.9188-39.6623 52.887-39.6623L58.6536-39.6623Q61.6327-39.6623 61.6327-36.636L61.6327-30.9065Q61.6327-27.9379 58.6536-27.9379ZM73.6889-27.9379Q70.7098-27.9379 70.7098-30.9065L70.7098-36.636Q70.7098-39.6623 73.6889-39.6623L79.4777-39.6623Q82.4463-39.6623 82.4463-36.636L82.4463-30.9065Q82.4463-27.9379 79.4777-27.9379ZM94.4799-27.9379Q91.4867-27.9379 91.4867-30.9065L91.4867-36.636Q91.4867-39.6623 94.4799-39.6623L100.269-39.6623Q103.248-39.6623 103.248-36.636L103.248-30.9065Q103.248-27.9379 100.269-27.9379ZM115.256-27.9379Q112.325-27.9379 112.325-30.9065L112.325-36.636Q112.325-39.6623 115.256-39.6623L121.023-39.6623Q124.039-39.6623 124.039-36.636L124.039-30.9065Q124.039-27.9379 121.023-27.9379ZM55.6535 24.0015Q52.853 24.0015 51.5119 22.678Q50.1709 21.3546 50.1709 18.449L50.1709-2.32964Q50.1709-5.18793 51.5232-6.52255Q52.8756-7.85717 55.6758-7.85717L117.772-7.85717Q120.583-7.85717 121.895-6.52255Q123.207-5.18793 123.207-2.32964L123.207 18.449Q123.207 21.3546 121.906 22.678Q120.605 24.0015 117.794 24.0015ZM66.1904 12.7147L107.79 12.7147Q109.719 12.7147 111.079 11.3543Q112.44 9.99387 112.44 7.98452Q112.44 6.05559 111.079 4.70629Q109.719 3.35699 107.79 3.35699L66.1904 3.35699Q64.2287 3.35699 62.8444 4.70629Q61.4602 6.05559 61.4602 7.98452Q61.4602 9.99387 62.8444 11.3543Q64.2287 12.7147 66.1904 12.7147Z"/>
  </g>
  <g id="Regular-L" transform="matrix(1 0 0 1 1363.86 1556)">
   <path d="M40.8432-85.9157L131.151-85.9157L131.151-87.5571Q131.151-94.4732 126.615-97.7291Q122.079-100.985 114.558-100.985L57.4091-100.985Q50.2037-100.985 45.5235-97.7291Q40.8432-94.4732 40.8432-87.5571ZM51.7407 32.7096L120.253 32.7096Q126.431 32.7096 129.503 29.7829Q132.575 26.8563 132.575 20.3874L132.575 9.60966L137.972 9.60966Q146.795 9.60966 151.339 5.19941Q155.883 0.789162 155.883-8.08939L155.883-60.7684Q155.883-69.6191 151.339-74.0433Q146.795-78.4675 137.972-78.4675L34.022-78.4675Q25.5405-78.4675 20.8122-74.0433Q16.084-69.6191 16.084-60.7684L16.084-8.08939Q16.084 0.789162 20.6274 5.19941Q25.1709 9.60966 34.022 9.60966L39.3907 9.60966L39.3907 20.3874Q39.3907 26.8563 42.4631 29.7829Q45.5356 32.7096 51.7407 32.7096ZM52.1043-49.718Q49.2672-49.718 49.2672-52.5555L49.2672-58.1921Q49.2672-61.0292 52.1043-61.0292L57.7409-61.0292Q60.5785-61.0292 60.5785-58.1921L60.5785-52.5555Q60.5785-49.718 57.7409-49.718ZM73.0134-49.718Q70.1759-49.718 70.1759-52.5555L70.1759-58.1921Q70.1759-61.0292 73.0134-61.0292L78.6774-61.0292Q81.515-61.0292 81.515-58.1921L81.515-52.5555Q81.515-49.718 78.6774-49.718ZM93.922-49.718Q91.0598-49.718 91.0598-52.5555L91.0598-58.1921Q91.0598-61.0292 93.922-61.0292L99.5865-61.0292Q102.424-61.0292 102.424-58.1921L102.424-52.5555Q102.424-49.718 99.5865-49.718ZM114.805-49.718Q112.021-49.718 112.021-52.5555L112.021-58.1921Q112.021-61.0292 114.805-61.0292L120.443-61.0292Q123.332-61.0292 123.332-58.1921L123.332-52.5555Q123.332-49.718 120.443-49.718ZM52.1043-27.8991Q49.2672-27.8991 49.2672-30.7366L49.2672-36.3202Q49.2672-39.2103 52.1043-39.2103L57.7409-39.2103Q60.5785-39.2103 60.5785-36.3202L60.5785-30.7366Q60.5785-27.8991 57.7409-27.8991ZM73.0134-27.8991Q70.1759-27.8991 70.1759-30.7366L70.1759-36.3202Q70.1759-39.2103 73.0134-39.2103L78.6774-39.2103Q81.515-39.2103 81.515-36.3202L81.515-30.7366Q81.515-27.8991 78.6774-27.8991ZM93.922-27.8991Q91.0598-27.8991 91.0598-30.7366L91.0598-36.3202Q91.0598-39.2103 93.922-39.2103L99.5865-39.2103Q102.424-39.2103 102.424-36.3202L102.424-30.7366Q102.424-27.8991 99.5865-27.8991ZM114.805-27.8991Q112.021-27.8991 112.021-30.7366L112.021-36.3202Q112.021-39.2103 114.805-39.2103L120.443-39.2103Q123.332-39.2103 123.332-36.3202L123.332-30.7366Q123.332-27.8991 120.443-27.8991ZM54.1929 24.5884Q51.0431 24.5884 49.569 23.1266Q48.0949 21.6648 48.0949 18.41L48.0949-2.00546Q48.0949-5.20779 49.583-6.68328Q51.071-8.15877 54.2204-8.15877L117.826-8.15877Q120.976-8.15877 122.424-6.68328Q123.871-5.20779 123.871-2.00546L123.871 18.41Q123.871 21.6648 122.437 23.1266Q121.003 24.5884 117.854 24.5884ZM64.5559 12.4338L108.071 12.4338Q109.828 12.4338 111.065 11.1962Q112.303 9.95865 112.303 8.12184Q112.303 6.36545 111.065 5.14159Q109.828 3.91774 108.071 3.91774L64.5559 3.91774Q62.7721 3.91774 61.508 5.14159Q60.2439 6.36545 60.2439 8.12184Q60.2439 9.95865 61.508 11.1962Q62.7721 12.4338 64.5559 12.4338Z"/>
  </g>
  <g id="Light-L" transform="matrix(1 0 0 1 1068.33 1556)">
   <path d="M40.6143-84.2935L129.032-84.2935L129.032-86.6792Q129.032-93.5953 124.973-96.8226Q120.915-100.05 113.641-100.05L55.9587-100.05Q48.8868-100.05 44.7505-96.8226Q40.6143-93.5953 40.6143-86.6792ZM52.4279 31.45L117.219 31.45Q123.664 31.45 126.803 28.4184Q129.942 25.3867 129.942 18.7271L129.942 9.72413L136.731 9.72413Q145.039 9.72413 149.278 5.60023Q153.516 1.47633 153.516-6.92509L153.516-61.4938Q153.516-69.848 149.278-73.9955Q145.039-78.143 136.731-78.143L32.9151-78.143Q24.7963-78.143 20.4401-73.9955Q16.084-69.848 16.084-61.4938L16.084-6.92509Q16.084 1.47633 20.322 5.60023Q24.56 9.72413 32.9151 9.72413L39.6578 9.72413L39.6578 18.7271Q39.6578 25.3867 42.7971 28.4184Q45.9364 31.45 52.4279 31.45ZM51.9324-50.3096Q49.1909-50.3096 49.1909-53.0519L49.1909-58.2495Q49.1909-60.991 51.9324-60.991L57.1301-60.991Q59.8724-60.991 59.8724-58.2495L59.8724-53.0519Q59.8724-50.3096 57.1301-50.3096ZM72.231-50.3096Q69.4887-50.3096 69.4887-53.0519L69.4887-58.2495Q69.4887-60.991 72.231-60.991L77.475-60.991Q80.2173-60.991 80.2173-58.2495L80.2173-53.0519Q80.2173-50.3096 77.475-50.3096ZM92.5287-50.3096Q89.8003-50.3096 89.8003-53.0519L89.8003-58.2495Q89.8003-60.991 92.5287-60.991L97.7735-60.991Q100.515-60.991 100.515-58.2495L100.515-53.0519Q100.515-50.3096 97.7735-50.3096ZM112.84-50.3096Q110.132-50.3096 110.132-53.0519L110.132-58.2495Q110.132-60.991 112.84-60.991L118.038-60.991Q120.813-60.991 120.813-58.2495L120.813-53.0519Q120.813-50.3096 118.038-50.3096ZM51.9324-28.5288Q49.1909-28.5288 49.1909-31.2711L49.1909-36.4347Q49.1909-39.2103 51.9324-39.2103L57.1301-39.2103Q59.8724-39.2103 59.8724-36.4347L59.8724-31.2711Q59.8724-28.5288 57.1301-28.5288ZM72.231-28.5288Q69.4887-28.5288 69.4887-31.2711L69.4887-36.4347Q69.4887-39.2103 72.231-39.2103L77.475-39.2103Q80.2173-39.2103 80.2173-36.4347L80.2173-31.2711Q80.2173-28.5288 77.475-28.5288ZM92.5287-28.5288Q89.8003-28.5288 89.8003-31.2711L89.8003-36.4347Q89.8003-39.2103 92.5287-39.2103L97.7735-39.2103Q100.515-39.2103 100.515-36.4347L100.515-31.2711Q100.515-28.5288 97.7735-28.5288ZM112.84-28.5288Q110.132-28.5288 110.132-31.2711L110.132-36.4347Q110.132-39.2103 112.84-39.2103L118.038-39.2103Q120.813-39.2103 120.813-36.4347L120.813-31.2711Q120.813-28.5288 118.038-28.5288ZM53.964 25.1611Q49.917 25.1611 48.1471 23.3843Q46.3772 21.6074 46.3772 17.4939L46.3772-1.47092Q46.3772-5.55121 48.1706-7.3512Q49.9641-9.1512 54.0103-9.1512L115.669-9.1512Q119.716-9.1512 121.469-7.3512Q123.222-5.55121 123.222-1.47092L123.222 17.4939Q123.222 21.6074 121.493 23.3843Q119.763 25.1611 115.717 25.1611ZM62.8763 11.5558L107.175 11.5558Q108.645 11.5558 109.682 10.5187Q110.719 9.48152 110.719 7.93105Q110.719 6.461 109.682 5.44702Q108.645 4.43303 107.175 4.43303L62.8763 4.43303Q61.3599 4.43303 60.3057 5.44702Q59.2515 6.461 59.2515 7.93105Q59.2515 9.48152 60.3057 10.5187Q61.3599 11.5558 62.8763 11.5558Z"/>
  </g>
  <g id="Thin-L" transform="matrix(1 0 0 1 773.187 1556)">
   <path d="M40.3115-82.148L126.23-82.148L126.23-85.518Q126.23-92.4341 122.803-95.6237Q119.375-98.8133 112.43-98.8133L54.0406-98.8133Q47.145-98.8133 43.7283-95.6237Q40.3115-92.4341 40.3115-85.518ZM53.3367 29.7842L113.205 29.7842Q120.004 29.7842 123.231 26.6136Q126.458 23.4431 126.458 16.5311L126.458 9.87554L135.091 9.87554Q142.717 9.87554 146.552 6.13035Q150.386 2.38516 150.386-5.3852L150.386-62.4531Q150.386-70.1509 146.552-73.9323Q142.717-77.7138 135.091-77.7138L31.4511-77.7138Q23.8119-77.7138 19.948-73.9323Q16.084-70.1509 16.084-62.4531L16.084-5.3852Q16.084 2.38516 19.9181 6.13035Q23.7521 9.87554 31.4511 9.87554L40.0111 9.87554L40.0111 16.5311Q40.0111 23.4431 43.2388 26.6136Q46.4665 29.7842 53.3367 29.7842ZM51.7051-51.092Q49.09-51.092 49.09-53.7084L49.09-58.3254Q49.09-60.9406 51.7051-60.9406L56.3222-60.9406Q58.9385-60.9406 58.9385-58.3254L58.9385-53.7084Q58.9385-51.092 56.3222-51.092ZM71.1962-51.092Q68.5799-51.092 68.5799-53.7084L68.5799-58.3254Q68.5799-60.9406 71.1962-60.9406L75.8846-60.9406Q78.501-60.9406 78.501-58.3254L78.501-53.7084Q78.501-51.092 75.8846-51.092ZM90.6861-51.092Q88.1344-51.092 88.1344-53.7084L88.1344-58.3254Q88.1344-60.9406 90.6861-60.9406L95.3757-60.9406Q97.9908-60.9406 97.9908-58.3254L97.9908-53.7084Q97.9908-51.092 95.3757-51.092ZM110.239-51.092Q107.633-51.092 107.633-53.7084L107.633-58.3254Q107.633-60.9406 110.239-60.9406L114.858-60.9406Q117.481-60.9406 117.481-58.3254L117.481-53.7084Q117.481-51.092 114.858-51.092ZM51.7051-29.3617Q49.09-29.3617 49.09-31.9781L49.09-36.5861Q49.09-39.2103 51.7051-39.2103L56.3222-39.2103Q58.9385-39.2103 58.9385-36.5861L58.9385-31.9781Q58.9385-29.3617 56.3222-29.3617ZM71.1962-29.3617Q68.5799-29.3617 68.5799-31.9781L68.5799-36.5861Q68.5799-39.2103 71.1962-39.2103L75.8846-39.2103Q78.501-39.2103 78.501-36.5861L78.501-31.9781Q78.501-29.3617 75.8846-29.3617ZM90.6861-29.3617Q88.1344-29.3617 88.1344-31.9781L88.1344-36.5861Q88.1344-39.2103 90.6861-39.2103L95.3757-39.2103Q97.9908-39.2103 97.9908-36.5861L97.9908-31.9781Q97.9908-29.3617 95.3757-29.3617ZM110.239-29.3617Q107.633-29.3617 107.633-31.9781L107.633-36.5861Q107.633-39.2103 110.239-39.2103L114.858-39.2103Q117.481-39.2103 117.481-36.5861L117.481-31.9781Q117.481-29.3617 114.858-29.3617ZM53.6612 25.9185Q48.4276 25.9185 46.2664 23.725Q44.1053 21.5315 44.1053 16.2822L44.1053-0.76396Q44.1053-6.00541 46.3027-8.23459Q48.5002-10.4638 53.7325-10.4638L112.817-10.4638Q118.051-10.4638 120.207-8.23459Q122.364-6.00541 122.364-0.76396L122.364 16.2822Q122.364 21.5315 120.243 23.725Q118.122 25.9185 112.89 25.9185ZM60.6549 10.3947L105.988 10.3947Q107.08 10.3947 107.852 9.62256Q108.624 8.85046 108.624 7.67871Q108.624 6.58738 107.852 5.85097Q107.08 5.11455 105.988 5.11455L60.6549 5.11455Q59.4922 5.11455 58.7156 5.85097Q57.9389 6.58738 57.9389 7.67871Q57.9389 8.85046 58.7156 9.62256Q59.4922 10.3947 60.6549 10.3947Z"/>
  </g>
  <g id="Ultralight-L" transform="matrix(1 0 0 1 477.278 1556)">
   <path d="M40.1564-81.0491L124.795-81.0491L124.795-84.9233Q124.795-91.8394 121.691-95.0096Q118.586-98.1799 111.809-98.1799L53.0581-98.1799Q46.2529-98.1799 43.2047-95.0096Q40.1564-91.8394 40.1564-84.9233ZM53.8022 28.931L111.149 28.931Q118.129 28.931 121.402 25.6893Q124.674 22.4476 124.674 15.4064L124.674 9.95308L134.25 9.95308Q141.528 9.95308 145.155 6.40187Q148.783 2.85066 148.783-4.59648L148.783-62.9444Q148.783-70.3059 145.155-73.9Q141.528-77.494 134.25-77.494L30.7013-77.494Q23.3078-77.494 19.6959-73.9Q16.084-70.3059 16.084-62.9444L16.084-4.59648Q16.084 2.85066 19.7112 6.40187Q23.3383 9.95308 30.7013 9.95308L40.192 9.95308L40.192 15.4064Q40.192 22.4476 43.465 25.6893Q46.738 28.931 53.8022 28.931ZM51.5887-51.4928Q49.0383-51.4928 49.0383-54.0446L49.0383-58.3643Q49.0383-60.9147 51.5887-60.9147L55.9084-60.9147Q58.4602-60.9147 58.4602-58.3643L58.4602-54.0446Q58.4602-51.4928 55.9084-51.4928ZM70.6662-51.4928Q68.1144-51.4928 68.1144-54.0446L68.1144-58.3643Q68.1144-60.9147 70.6662-60.9147L75.07-60.9147Q77.6219-60.9147 77.6219-58.3643L77.6219-54.0446Q77.6219-51.4928 75.07-51.4928ZM89.7422-51.4928Q87.2812-51.4928 87.2812-54.0446L87.2812-58.3643Q87.2812-60.9147 89.7422-60.9147L94.1475-60.9147Q96.6979-60.9147 96.6979-58.3643L96.6979-54.0446Q96.6979-51.4928 94.1475-51.4928ZM108.908-51.4928Q106.354-51.4928 106.354-54.0446L106.354-58.3643Q106.354-60.9147 108.908-60.9147L113.229-60.9147Q115.774-60.9147 115.774-58.3643L115.774-54.0446Q115.774-51.4928 113.229-51.4928ZM51.5887-29.7884Q49.0383-29.7884 49.0383-32.3402L49.0383-36.6636Q49.0383-39.2103 51.5887-39.2103L55.9084-39.2103Q58.4602-39.2103 58.4602-36.6636L58.4602-32.3402Q58.4602-29.7884 55.9084-29.7884ZM70.6662-29.7884Q68.1144-29.7884 68.1144-32.3402L68.1144-36.6636Q68.1144-39.2103 70.6662-39.2103L75.07-39.2103Q77.6219-39.2103 77.6219-36.6636L77.6219-32.3402Q77.6219-29.7884 75.07-29.7884ZM89.7422-29.7884Q87.2812-29.7884 87.2812-32.3402L87.2812-36.6636Q87.2812-39.2103 89.7422-39.2103L94.1475-39.2103Q96.6979-39.2103 96.6979-36.6636L96.6979-32.3402Q96.6979-29.7884 94.1475-29.7884ZM108.908-29.7884Q106.354-29.7884 106.354-32.3402L106.354-36.6636Q106.354-39.2103 108.908-39.2103L113.229-39.2103Q115.774-39.2103 115.774-36.6636L115.774-32.3402Q115.774-29.7884 113.229-29.7884ZM53.5061 26.3065Q47.6647 26.3065 45.3032 23.8996Q42.9417 21.4927 42.9417 15.6616L42.9417-0.401857Q42.9417-6.23806 45.346-8.68706Q47.7503-11.1361 53.5903-11.1361L111.356-11.1361Q117.197-11.1361 119.561-8.68706Q121.924-6.23806 121.924-0.401857L121.924 15.6616Q121.924 21.4927 119.603 23.8996Q117.282 26.3065 111.442 26.3065ZM59.5171 9.79991L105.381 9.79991Q106.278 9.79991 106.914 9.16358Q107.551 8.52724 107.551 7.54947Q107.551 6.65211 106.914 6.05787Q106.278 5.46362 105.381 5.46362L59.5171 5.46362Q58.5356 5.46362 57.9011 6.05787Q57.2667 6.65211 57.2667 7.54947Q57.2667 8.52724 57.9011 9.16358Q58.5356 9.79991 59.5171 9.79991Z"/>
  </g>
  <g id="Black-M" transform="matrix(1 0 0 1 2863.36 1126)">
   <path d="M34.3014-80.9112L105.788-80.9112L105.788-81.1079Q105.788-87.1513 100.903-90.3057Q96.0184-93.4601 89.1095-93.4601L50.9802-93.4601Q44.1042-93.4601 39.2028-90.3057Q34.3014-87.1513 34.3014-81.1079ZM49.5814 21.3507L90.508 21.3507Q98.1873 21.3507 101.833 17.6897Q105.479 14.0287 105.479 6.37928L105.479 2.40517L109.103 2.40517Q117.896 2.40517 122.762-2.45074Q127.629-7.30664 127.629-16.0983L127.629-53.277Q127.629-62.0689 122.762-66.9247Q117.896-71.7804 109.103-71.7804L30.9861-71.7804Q22.2326-71.7804 17.3468-66.9247Q12.4609-62.0689 12.4609-53.277L12.4609-16.0983Q12.4609-7.30664 17.3275-2.45074Q22.1942 2.40517 30.9861 2.40517L34.6102 2.40517L34.6102 6.37928Q34.6102 14.0287 38.2848 17.6897Q41.9594 21.3507 49.5814 21.3507ZM44.5596-45.9527Q41.682-45.9527 41.682-48.8874L41.682-53.8679Q41.682-56.7455 44.5596-56.7455L49.483-56.7455Q52.4178-56.7455 52.4178-53.8679L52.4178-48.8874Q52.4178-45.9527 49.483-45.9527ZM59.9688-45.9527Q57.034-45.9527 57.034-48.8874L57.034-53.8679Q57.034-56.7455 59.9688-56.7455L64.8919-56.7455Q67.7695-56.7455 67.7695-53.8679L67.7695-48.8874Q67.7695-45.9527 64.8919-45.9527ZM75.3208-45.9527Q72.4374-45.9527 72.4374-48.8874L72.4374-53.8679Q72.4374-56.7455 75.3208-56.7455L80.2439-56.7455Q83.1786-56.7455 83.1786-53.8679L83.1786-48.8874Q83.1786-45.9527 80.2439-45.9527ZM90.7241-45.9527Q87.7949-45.9527 87.7949-48.8874L87.7949-53.8679Q87.7949-56.7455 90.7241-56.7455L95.6475-56.7455Q98.5307-56.7455 98.5307-53.8679L98.5307-48.8874Q98.5307-45.9527 95.6475-45.9527ZM44.5596-29.9758Q41.682-29.9758 41.682-32.8535L41.682-37.8285Q41.682-40.7687 44.5596-40.7687L49.483-40.7687Q52.4178-40.7687 52.4178-37.8285L52.4178-32.8535Q52.4178-29.9758 49.483-29.9758ZM59.9688-29.9758Q57.034-29.9758 57.034-32.8535L57.034-37.8285Q57.034-40.7687 59.9688-40.7687L64.8919-40.7687Q67.7695-40.7687 67.7695-37.8285L67.7695-32.8535Q67.7695-29.9758 64.8919-29.9758ZM75.3208-29.9758Q72.4374-29.9758 72.4374-32.8535L72.4374-37.8285Q72.4374-40.7687 75.3208-40.7687L80.2439-40.7687Q83.1786-40.7687 83.1786-37.8285L83.1786-32.8535Q83.1786-29.9758 80.2439-29.9758ZM90.7241-29.9758Q87.7949-29.9758 87.7949-32.8535L87.7949-37.8285Q87.7949-40.7687 90.7241-40.7687L95.6475-40.7687Q98.5307-40.7687 98.5307-37.8285L98.5307-32.8535Q98.5307-29.9758 95.6475-29.9758ZM49.8398 8.12155Q48.9911 8.12155 48.471 7.6329Q47.9509 7.14424 47.9509 6.22742L47.9509-11.0681Q47.9509-11.9794 48.4708-12.468Q48.9908-12.9565 49.8395-12.9565L90.2554-12.9565Q91.1612-12.9565 91.65-12.468Q92.1388-11.9794 92.1388-11.0681L92.1388 6.22742Q92.1388 7.14424 91.6499 7.6329Q91.1609 8.12155 90.2551 8.12155ZM58.3195 2.92432L81.8929 2.92432Q84.0932 2.92432 85.6511 1.36643Q87.209-0.191459 87.209-2.4541Q87.209-4.65444 85.6511-6.21247Q84.0932-7.7705 81.8929-7.7705L58.3195-7.7705Q56.0624-7.7705 54.5017-6.21247Q52.9411-4.65444 52.9411-2.4541Q52.9411-0.191459 54.5017 1.36643Q56.0624 2.92432 58.3195 2.92432Z"/>
  </g>
  <g id="Heavy-M" transform="matrix(1 0 0 1 2567.29 1126)">
   <path d="M33.7048-79.6159L105.086-79.6159L105.086-79.9662Q105.086-85.8479 100.461-88.857Q95.8354-91.8661 89.1485-91.8661L49.6405-91.8661Q43.0519-91.8661 38.3784-88.857Q33.7048-85.8479 33.7048-79.9662ZM47.248 20.5891L91.5432 20.5891Q98.5038 20.5891 101.842 17.2711Q105.18 13.9531 105.18 6.95185L105.18 1.70635L108.748 1.70635Q117.148 1.70635 121.738-2.84844Q126.328-7.40323 126.328-15.8076L126.328-53.5897Q126.328-61.9918 121.738-66.5477Q117.148-71.1036 108.748-71.1036L30.0428-71.1036Q21.7556-71.1036 17.1083-66.5477Q12.4609-61.9918 12.4609-53.5897L12.4609-15.8076Q12.4609-7.40323 17.0508-2.84844Q21.6407 1.70635 30.0428 1.70635L33.6085 1.70635L33.6085 6.95185Q33.6085 13.9531 36.9686 17.2711Q40.3288 20.5891 47.248 20.5891ZM43.5934-45.9915Q40.8633-45.9915 40.8633-48.7653L40.8633-53.66Q40.8633-56.3901 43.5934-56.3901L48.4445-56.3901Q51.2182-56.3901 51.2182-53.66L51.2182-48.7653Q51.2182-45.9915 48.4445-45.9915ZM59.2711-45.9915Q56.4973-45.9915 56.4973-48.7653L56.4973-53.66Q56.4973-56.3901 59.2711-56.3901L64.1244-56.3901Q66.8545-56.3901 66.8545-53.66L66.8545-48.7653Q66.8545-45.9915 64.1244-45.9915ZM74.9051-45.9915Q72.1608-45.9915 72.1608-48.7653L72.1608-53.66Q72.1608-56.3901 74.9051-56.3901L79.7585-56.3901Q82.5322-56.3901 82.5322-53.66L82.5322-48.7653Q82.5322-45.9915 79.7585-45.9915ZM90.5686-45.9915Q87.8113-45.9915 87.8113-48.7653L87.8113-53.66Q87.8113-56.3901 90.5686-56.3901L95.4197-56.3901Q98.1662-56.3901 98.1662-53.66L98.1662-48.7653Q98.1662-45.9915 95.4197-45.9915ZM43.5934-29.7907Q40.8633-29.7907 40.8633-32.5209L40.8633-37.3991Q40.8633-40.1893 43.5934-40.1893L48.4445-40.1893Q51.2182-40.1893 51.2182-37.3991L51.2182-32.5209Q51.2182-29.7907 48.4445-29.7907ZM59.2711-29.7907Q56.4973-29.7907 56.4973-32.5209L56.4973-37.3991Q56.4973-40.1893 59.2711-40.1893L64.1244-40.1893Q66.8545-40.1893 66.8545-37.3991L66.8545-32.5209Q66.8545-29.7907 64.1244-29.7907ZM74.9051-29.7907Q72.1608-29.7907 72.1608-32.5209L72.1608-37.3991Q72.1608-40.1893 74.9051-40.1893L79.7585-40.1893Q82.5322-40.1893 82.5322-37.3991L82.5322-32.5209Q82.5322-29.7907 79.7585-29.7907ZM90.5686-29.7907Q87.8113-29.7907 87.8113-32.5209L87.8113-37.3991Q87.8113-40.1893 90.5686-40.1893L95.4197-40.1893Q98.1662-40.1893 98.1662-37.3991L98.1662-32.5209Q98.1662-29.7907 95.4197-29.7907ZM48.017 8.75074Q46.9133 8.75074 46.2862 8.1525Q45.6591 7.55427 45.6591 6.37419L45.6591-10.7674Q45.6591-11.9311 46.2873-12.5305Q46.9156-13.1299 48.0192-13.1299L90.7884-13.1299Q91.9357-13.1299 92.5328-12.5305Q93.1298-11.9311 93.1298-10.7674L93.1298 6.37419Q93.1298 7.55427 92.5339 8.1525Q91.9379 8.75074 90.7907 8.75074ZM56.5853 2.7528L82.4464 2.7528Q84.4871 2.7528 85.9306 1.30935Q87.3741-0.134108 87.3741-2.23712Q87.3741-4.27783 85.9306-5.72015Q84.4871-7.16248 82.4464-7.16248L56.5853-7.16248Q54.4987-7.16248 53.0471-5.72015Q51.5954-4.27783 51.5954-2.23712Q51.5954-0.134108 53.0471 1.30935Q54.4987 2.7528 56.5853 2.7528Z"/>
  </g>
  <g id="Bold-M" transform="matrix(1 0 0 1 2271.31 1126)">
   <path d="M33.0374-78.1669L104.302-78.1669L104.302-78.6891Q104.302-84.3898 99.9662-87.2364Q95.6308-90.083 89.192-90.083L48.1419-90.083Q41.8748-90.083 37.4561-87.2364Q33.0374-84.3898 33.0374-78.6891ZM44.6378 19.7371L92.7013 19.7371Q98.8578 19.7371 101.852 16.8028Q104.846 13.8686 104.846 7.59236L104.846 0.924609L108.351 0.924609Q116.312 0.924609 120.593-3.29333Q124.873-7.51128 124.873-15.4823L124.873-53.9396Q124.873-61.9055 120.593-66.126Q116.312-70.3466 108.351-70.3466L28.9876-70.3466Q21.222-70.3466 16.8415-66.126Q12.4609-61.9055 12.4609-53.9396L12.4609-15.4823Q12.4609-7.51128 16.7413-3.29333Q21.0216 0.924609 28.9876 0.924609L32.4878 0.924609L32.4878 7.59236Q32.4878 13.8686 35.4962 16.8028Q38.5047 19.7371 44.6378 19.7371ZM42.5125-46.0349Q39.9474-46.0349 39.9474-48.6286L39.9474-53.4274Q39.9474-55.9924 42.5125-55.9924L47.2827-55.9924Q49.8764-55.9924 49.8764-53.4274L49.8764-48.6286Q49.8764-46.0349 47.2827-46.0349ZM58.4906-46.0349Q55.8969-46.0349 55.8969-48.6286L55.8969-53.4274Q55.8969-55.9924 58.4906-55.9924L63.2659-55.9924Q65.831-55.9924 65.831-53.4274L65.831-48.6286Q65.831-46.0349 63.2659-46.0349ZM74.44-46.0349Q71.8515-46.0349 71.8515-48.6286L71.8515-53.4274Q71.8515-55.9924 74.44-55.9924L79.2154-55.9924Q81.809-55.9924 81.809-53.4274L81.809-48.6286Q81.809-46.0349 79.2154-46.0349ZM90.3945-46.0349Q87.8296-46.0349 87.8296-48.6286L87.8296-53.4274Q87.8296-55.9924 90.3945-55.9924L95.1648-55.9924Q97.7585-55.9924 97.7585-53.4274L97.7585-48.6286Q97.7585-46.0349 95.1648-46.0349ZM42.5125-29.5836Q39.9474-29.5836 39.9474-32.1488L39.9474-36.9189Q39.9474-39.5411 42.5125-39.5411L47.2827-39.5411Q49.8764-39.5411 49.8764-36.9189L49.8764-32.1488Q49.8764-29.5836 47.2827-29.5836ZM58.4906-29.5836Q55.8969-29.5836 55.8969-32.1488L55.8969-36.9189Q55.8969-39.5411 58.4906-39.5411L63.2659-39.5411Q65.831-39.5411 65.831-36.9189L65.831-32.1488Q65.831-29.5836 63.2659-29.5836ZM74.44-29.5836Q71.8515-29.5836 71.8515-32.1488L71.8515-36.9189Q71.8515-39.5411 74.44-39.5411L79.2154-39.5411Q81.809-39.5411 81.809-36.9189L81.809-32.1488Q81.809-29.5836 79.2154-29.5836ZM90.3945-29.5836Q87.8296-29.5836 87.8296-32.1488L87.8296-36.9189Q87.8296-39.5411 90.3945-39.5411L95.1648-39.5411Q97.7585-39.5411 97.7585-36.9189L97.7585-32.1488Q97.7585-29.5836 95.1648-29.5836ZM45.9779 9.45458Q44.589 9.45458 43.8422 8.73376Q43.0954 8.01295 43.0954 6.53836L43.0954-10.4311Q43.0954-11.8771 43.8448-12.6004Q44.5942-13.3238 45.983-13.3238L91.3846-13.3238Q92.8021-13.3238 93.5203-12.6004Q94.2384-11.8771 94.2384-10.4311L94.2384 6.53836Q94.2384 8.01295 93.5228 8.73376Q92.8072 9.45458 91.3898 9.45458ZM54.6454 2.56093L83.0657 2.56093Q84.9278 2.56093 86.2433 1.24549Q87.5587-0.0699523 87.5587-1.99439Q87.5587-3.85652 86.2433-5.16942Q84.9278-6.48232 83.0657-6.48232L54.6454-6.48232Q52.7496-6.48232 51.4198-5.16942Q50.0901-3.85652 50.0901-1.99439Q50.0901-0.0699523 51.4198 1.24549Q52.7496 2.56093 54.6454 2.56093Z"/>
  </g>
  <g id="Semibold-M" transform="matrix(1 0 0 1 1975.1 1126)">
   <path d="M32.5773-77.168L103.761-77.168L103.761-77.8086Q103.761-83.3847 99.6252-86.1192Q95.4897-88.8537 89.2221-88.8537L47.1088-88.8537Q41.0633-88.8537 36.8203-86.1192Q32.5773-83.3847 32.5773-77.8086ZM42.8383 19.1498L93.4996 19.1498Q99.1019 19.1498 101.859 16.48Q104.615 13.8102 104.615 8.03392L104.615 0.385684L108.078 0.385684Q115.736 0.385684 119.803-3.60004Q123.87-7.58576 123.87-15.2581L123.87-54.1808Q123.87-61.846 119.803-65.8353Q115.736-69.8246 108.078-69.8246L28.2601-69.8246Q20.8541-69.8246 16.6575-65.8353Q12.4609-61.846 12.4609-54.1808L12.4609-15.2581Q12.4609-7.58576 16.5279-3.60004Q20.5948 0.385684 28.2601 0.385684L31.7153 0.385684L31.7153 8.03392Q31.7153 13.8102 34.4812 16.48Q37.2471 19.1498 42.8383 19.1498ZM41.7673-46.0649Q39.3161-46.0649 39.3161-48.5344L39.3161-53.2671Q39.3161-55.7183 41.7673-55.7183L46.4818-55.7183Q48.9513-55.7183 48.9513-53.2671L48.9513-48.5344Q48.9513-46.0649 46.4818-46.0649ZM57.9525-46.0649Q55.483-46.0649 55.483-48.5344L55.483-53.2671Q55.483-55.7183 57.9525-55.7183L62.674-55.7183Q65.1254-55.7183 65.1254-53.2671L65.1254-48.5344Q65.1254-46.0649 62.674-46.0649ZM74.1194-46.0649Q71.6382-46.0649 71.6382-48.5344L71.6382-53.2671Q71.6382-55.7183 74.1194-55.7183L78.8411-55.7183Q81.3105-55.7183 81.3105-53.2671L81.3105-48.5344Q81.3105-46.0649 78.8411-46.0649ZM90.2745-46.0649Q87.8422-46.0649 87.8422-48.5344L87.8422-53.2671Q87.8422-55.7183 90.2745-55.7183L94.9892-55.7183Q97.4774-55.7183 97.4774-53.2671L97.4774-48.5344Q97.4774-46.0649 94.9892-46.0649ZM41.7673-29.4409Q39.3161-29.4409 39.3161-31.8923L39.3161-36.5878Q39.3161-39.0943 41.7673-39.0943L46.4818-39.0943Q48.9513-39.0943 48.9513-36.5878L48.9513-31.8923Q48.9513-29.4409 46.4818-29.4409ZM57.9525-29.4409Q55.483-29.4409 55.483-31.8923L55.483-36.5878Q55.483-39.0943 57.9525-39.0943L62.674-39.0943Q65.1254-39.0943 65.1254-36.5878L65.1254-31.8923Q65.1254-29.4409 62.674-29.4409ZM74.1194-29.4409Q71.6382-29.4409 71.6382-31.8923L71.6382-36.5878Q71.6382-39.0943 74.1194-39.0943L78.8411-39.0943Q81.3105-39.0943 81.3105-36.5878L81.3105-31.8923Q81.3105-29.4409 78.8411-29.4409ZM90.2745-29.4409Q87.8422-29.4409 87.8422-31.8923L87.8422-36.5878Q87.8422-39.0943 90.2745-39.0943L94.9892-39.0943Q97.4774-39.0943 97.4774-36.5878L97.4774-31.8923Q97.4774-29.4409 94.9892-29.4409ZM44.5722 9.9398Q42.9867 9.9398 42.1574 9.13448Q41.3281 8.32915 41.3281 6.65154L41.3281-10.1992Q41.3281-11.8398 42.161-12.6487Q42.9938-13.4575 44.5792-13.4575L91.7957-13.4575Q93.3993-13.4575 94.201-12.6487Q95.0027-11.8398 95.0027-10.1992L95.0027 6.65154Q95.0027 8.32915 94.2045 9.13448Q93.4064 9.9398 91.8029 9.9398ZM53.308 2.42866L83.4926 2.42866Q85.2316 2.42866 86.4588 1.20147Q87.686-0.025724 87.686-1.82705Q87.686-3.56608 86.4588-4.78975Q85.2316-6.01342 83.4926-6.01342L53.308-6.01342Q51.5438-6.01342 50.298-4.78975Q49.0523-3.56608 49.0523-1.82705Q49.0523-0.025724 50.298 1.20147Q51.5438 2.42866 53.308 2.42866Z"/>
  </g>
  <g id="Medium-M" transform="matrix(1 0 0 1 1678.77 1126)">
   <path d="M32.2285-76.4106L103.35-76.4106L103.35-77.141Q103.35-82.6225 99.3666-85.2721Q95.3828-87.9216 89.2449-87.9216L46.3254-87.9216Q40.448-87.9216 36.3382-85.2721Q32.2285-82.6225 32.2285-77.141ZM41.4739 18.7044L94.105 18.7044Q99.287 18.7044 101.864 16.2352Q104.441 13.766 104.441 8.36873L104.441-0.0229506L107.87-0.0229506Q115.299-0.0229506 119.204-3.8326Q123.109-7.64224 123.109-15.0881L123.109-54.3637Q123.109-61.8009 119.204-65.6149Q115.299-69.4289 107.87-69.4289L27.7085-69.4289Q20.5752-69.4289 16.5181-65.6149Q12.4609-61.8009 12.4609-54.3637L12.4609-15.0881Q12.4609-7.64224 16.366-3.8326Q20.2711-0.0229506 27.7085-0.0229506L31.1295-0.0229506L31.1295 8.36873Q31.1295 13.766 33.7116 16.2352Q36.2936 18.7044 41.4739 18.7044ZM41.2023-46.0876Q38.8373-46.0876 38.8373-48.463L38.8373-53.1455Q38.8373-55.5105 41.2023-55.5105L45.8745-55.5105Q48.2499-55.5105 48.2499-53.1455L48.2499-48.463Q48.2499-46.0876 45.8745-46.0876ZM57.5445-46.0876Q55.1691-46.0876 55.1691-48.463L55.1691-53.1455Q55.1691-55.5105 57.5445-55.5105L62.2253-55.5105Q64.5904-55.5105 64.5904-53.1455L64.5904-48.463Q64.5904-46.0876 62.2253-46.0876ZM73.8763-46.0876Q71.4765-46.0876 71.4765-48.463L71.4765-53.1455Q71.4765-55.5105 73.8763-55.5105L78.5572-55.5105Q80.9325-55.5105 80.9325-53.1455L80.9325-48.463Q80.9325-46.0876 78.5572-46.0876ZM90.1836-46.0876Q87.8518-46.0876 87.8518-48.463L87.8518-53.1455Q87.8518-55.5105 90.1836-55.5105L94.8559-55.5105Q97.2643-55.5105 97.2643-53.1455L97.2643-48.463Q97.2643-46.0876 94.8559-46.0876ZM41.2023-29.3326Q38.8373-29.3326 38.8373-31.6977L38.8373-36.3367Q38.8373-38.7555 41.2023-38.7555L45.8745-38.7555Q48.2499-38.7555 48.2499-36.3367L48.2499-31.6977Q48.2499-29.3326 45.8745-29.3326ZM57.5445-29.3326Q55.1691-29.3326 55.1691-31.6977L55.1691-36.3367Q55.1691-38.7555 57.5445-38.7555L62.2253-38.7555Q64.5904-38.7555 64.5904-36.3367L64.5904-31.6977Q64.5904-29.3326 62.2253-29.3326ZM73.8763-29.3326Q71.4765-29.3326 71.4765-31.6977L71.4765-36.3367Q71.4765-38.7555 73.8763-38.7555L78.5572-38.7555Q80.9325-38.7555 80.9325-36.3367L80.9325-31.6977Q80.9325-29.3326 78.5572-29.3326ZM90.1836-29.3326Q87.8518-29.3326 87.8518-31.6977L87.8518-36.3367Q87.8518-38.7555 90.1836-38.7555L94.8559-38.7555Q97.2643-38.7555 97.2643-36.3367L97.2643-31.6977Q97.2643-29.3326 94.8559-29.3326ZM43.5063 10.3077Q41.7717 10.3077 40.8798 9.43831Q39.988 8.56891 39.988 6.73736L39.988-10.0234Q39.988-11.8116 40.8842-12.6852Q41.7804-13.5589 43.5148-13.5589L92.1074-13.5589Q93.8522-13.5589 94.7172-12.6852Q95.5822-11.8116 95.5822-10.0234L95.5822 6.73736Q95.5822 8.56891 94.7215 9.43831Q93.8608 10.3077 92.1161 10.3077ZM52.2939 2.32836L83.8163 2.32836Q85.462 2.32836 86.6223 1.16809Q87.7826 0.00781174 87.7826-1.70017Q87.7826-3.34585 86.6223-4.50186Q85.462-5.65788 83.8163-5.65788L52.2939-5.65788Q50.6295-5.65788 49.4474-4.50186Q48.2654-3.34585 48.2654-1.70017Q48.2654 0.00781174 49.4474 1.16809Q50.6295 2.32836 52.2939 2.32836Z"/>
  </g>
  <g id="Regular-M" transform="matrix(1 0 0 1 1382.56 1126)">
   <path d="M31.7734-75.4226L102.815-75.4226L102.815-76.2702Q102.815-81.6284 99.0293-84.1671Q95.2432-86.7058 89.2746-86.7058L45.3037-86.7058Q39.6454-86.7058 35.7094-84.1671Q31.7734-81.6284 31.7734-76.2702ZM39.6941 18.1235L94.8946 18.1235Q99.5284 18.1235 101.871 15.9159Q104.213 13.7084 104.213 8.80543L104.213-0.555953L107.6-0.555953Q114.729-0.555953 118.423-4.13593Q122.117-7.71591 122.117-14.8664L122.117-54.6023Q122.117-61.7421 118.423-65.3274Q114.729-68.9127 107.6-68.9127L26.989-68.9127Q20.2114-68.9127 16.3362-65.3274Q12.4609-61.7421 12.4609-54.6023L12.4609-14.8664Q12.4609-7.71591 16.155-4.13593Q19.849-0.555953 26.989-0.555953L30.3654-0.555953L30.3654 8.80543Q30.3654 13.7084 32.7077 15.9159Q35.0499 18.1235 39.6941 18.1235ZM40.4653-46.1172Q38.2129-46.1172 38.2129-48.3698L38.2129-52.9869Q38.2129-55.2394 40.4653-55.2394L45.0824-55.2394Q47.335-55.2394 47.335-52.9869L47.335-48.3698Q47.335-46.1172 45.0824-46.1172ZM57.0124-46.1172Q54.7598-46.1172 54.7598-48.3698L54.7598-52.9869Q54.7598-55.2394 57.0124-55.2394L61.6399-55.2394Q63.8925-55.2394 63.8925-52.9869L63.8925-48.3698Q63.8925-46.1172 61.6399-46.1172ZM73.5593-46.1172Q71.2656-46.1172 71.2656-48.3698L71.2656-52.9869Q71.2656-55.2394 73.5593-55.2394L78.187-55.2394Q80.4394-55.2394 80.4394-52.9869L80.4394-48.3698Q80.4394-46.1172 78.187-46.1172ZM90.0649-46.1172Q87.8643-46.1172 87.8643-48.3698L87.8643-52.9869Q87.8643-55.2394 90.0649-55.2394L94.6822-55.2394Q96.9863-55.2394 96.9863-52.9869L96.9863-48.3698Q96.9863-46.1172 94.6822-46.1172ZM40.4653-29.1914Q38.2129-29.1914 38.2129-31.444L38.2129-36.0093Q38.2129-38.3136 40.4653-38.3136L45.0824-38.3136Q47.335-38.3136 47.335-36.0093L47.335-31.444Q47.335-29.1914 45.0824-29.1914ZM57.0124-29.1914Q54.7598-29.1914 54.7598-31.444L54.7598-36.0093Q54.7598-38.3136 57.0124-38.3136L61.6399-38.3136Q63.8925-38.3136 63.8925-36.0093L63.8925-31.444Q63.8925-29.1914 61.6399-29.1914ZM73.5593-29.1914Q71.2656-29.1914 71.2656-31.444L71.2656-36.0093Q71.2656-38.3136 73.5593-38.3136L78.187-38.3136Q80.4394-38.3136 80.4394-36.0093L80.4394-31.444Q80.4394-29.1914 78.187-29.1914ZM90.0649-29.1914Q87.8643-29.1914 87.8643-31.444L87.8643-36.0093Q87.8643-38.3136 90.0649-38.3136L94.6822-38.3136Q96.9863-38.3136 96.9863-36.0093L96.9863-31.444Q96.9863-29.1914 94.6822-29.1914ZM42.116 10.7876Q40.187 10.7876 39.2135 9.83462Q38.24 8.88165 38.24 6.8493L38.24-9.79404Q38.24-11.7747 39.2188-12.7329Q40.1976-13.6911 42.1265-13.6911L92.5139-13.6911Q94.4429-13.6911 95.3905-12.7329Q96.3381-11.7747 96.3381-9.79404L96.3381 6.8493Q96.3381 8.88165 95.3957 9.83462Q94.4534 10.7876 92.5246 10.7876ZM50.9713 2.19754L84.2386 2.19754Q85.7625 2.19754 86.8355 1.12455Q87.9085 0.051554 87.9085-1.53467Q87.9085-3.0586 86.8355-4.12637Q85.7625-5.19413 84.2386-5.19413L50.9713-5.19413Q49.4369-5.19413 48.338-4.12637Q47.239-3.0586 47.239-1.53467Q47.239 0.051554 48.338 1.12455Q49.4369 2.19754 50.9713 2.19754Z"/>
  </g>
  <g id="Light-M" transform="matrix(1 0 0 1 1086.91 1126)">
   <path d="M31.5682-73.9682L100.916-73.9682L100.916-75.4831Q100.916-80.8413 97.5576-83.3544Q94.1994-85.8675 88.4533-85.8675L44.0034-85.8675Q38.4647-85.8675 35.0164-83.3544Q31.5682-80.8413 31.5682-75.4831ZM40.3102 16.9943L92.1738 16.9943Q97.0474 16.9943 99.4493 14.6925Q101.851 12.3908 101.851 7.31684L101.851-0.453321L106.487-0.453321Q113.155-0.453321 116.575-3.77658Q119.996-7.09983 119.996-13.8225L119.996-55.2525Q119.996-61.9474 116.575-65.2846Q113.155-68.6218 106.487-68.6218L25.9966-68.6218Q19.5442-68.6218 16.0025-65.2846Q12.4609-61.9474 12.4609-55.2525L12.4609-13.8225Q12.4609-7.09983 15.8811-3.77658Q19.3014-0.453321 25.9966-0.453321L30.6049-0.453321L30.6049 7.31684Q30.6049 12.3908 33.0071 14.6925Q35.4093 16.9943 40.3102 16.9943ZM40.3112-46.6476Q38.1445-46.6476 38.1445-48.8149L38.1445-53.0384Q38.1445-55.2051 40.3112-55.2051L44.5348-55.2051Q46.702-55.2051 46.702-53.0384L46.702-48.8149Q46.702-46.6476 44.5348-46.6476ZM56.3109-46.6476Q54.1437-46.6476 54.1437-48.8149L54.1437-53.0384Q54.1437-55.2051 56.3109-55.2051L60.5619-55.2051Q62.7291-55.2051 62.7291-53.0384L62.7291-48.8149Q62.7291-46.6476 60.5619-46.6476ZM72.3101-46.6476Q70.1364-46.6476 70.1364-48.8149L70.1364-53.0384Q70.1364-55.2051 72.3101-55.2051L76.5615-55.2051Q78.7283-55.2051 78.7283-53.0384L78.7283-48.8149Q78.7283-46.6476 76.5615-46.6476ZM88.3023-46.6476Q86.1705-46.6476 86.1705-48.8149L86.1705-53.0384Q86.1705-55.2051 88.3023-55.2051L92.5263-55.2051Q94.7275-55.2051 94.7275-53.0384L94.7275-48.8149Q94.7275-46.6476 92.5263-46.6476ZM40.3112-29.756Q38.1445-29.756 38.1445-31.9233L38.1445-36.1119Q38.1445-38.3136 40.3112-38.3136L44.5348-38.3136Q46.702-38.3136 46.702-36.1119L46.702-31.9233Q46.702-29.756 44.5348-29.756ZM56.3109-29.756Q54.1437-29.756 54.1437-31.9233L54.1437-36.1119Q54.1437-38.3136 56.3109-38.3136L60.5619-38.3136Q62.7291-38.3136 62.7291-36.1119L62.7291-31.9233Q62.7291-29.756 60.5619-29.756ZM72.3101-29.756Q70.1364-29.756 70.1364-31.9233L70.1364-36.1119Q70.1364-38.3136 72.3101-38.3136L76.5615-38.3136Q78.7283-38.3136 78.7283-36.1119L78.7283-31.9233Q78.7283-29.756 76.5615-29.756ZM88.3023-29.756Q86.1705-29.756 86.1705-31.9233L86.1705-36.1119Q86.1705-38.3136 88.3023-38.3136L92.5263-38.3136Q94.7275-38.3136 94.7275-36.1119L94.7275-31.9233Q94.7275-29.756 92.5263-29.756ZM41.9107 11.301Q39.1774 11.301 37.9387 10.0656Q36.7 8.83019 36.7 6.02796L36.7-9.3148Q36.7-12.0826 37.9526-13.3318Q39.2052-14.5809 41.9382-14.5809L90.5803-14.5809Q93.3137-14.5809 94.535-13.3318Q95.7562-12.0826 95.7562-9.3148L95.7562 6.02796Q95.7562 8.83019 94.5487 10.0656Q93.3411 11.301 90.6082 11.301ZM49.4654 1.41041L83.4345 1.41041Q84.7017 1.41041 85.595 0.517095Q86.4883-0.376223 86.4883-1.70573Q86.4883-2.97293 85.595-3.85254Q84.7017-4.73214 83.4345-4.73214L49.4654-4.73214Q48.1708-4.73214 47.26-3.85254Q46.3493-2.97293 46.3493-1.70573Q46.3493-0.376223 47.26 0.517095Q48.1708 1.41041 49.4654 1.41041Z"/>
  </g>
  <g id="Thin-M" transform="matrix(1 0 0 1 791.597 1126)">
   <path d="M31.2967-72.0447L98.4038-72.0447L98.4038-74.442Q98.4038-79.8002 95.6113-82.2795Q92.8188-84.7588 87.367-84.7588L42.2836-84.7588Q36.9031-84.7588 34.0999-82.2795Q31.2967-79.8002 31.2967-74.442ZM41.125 15.5008L88.5754 15.5008Q93.7661 15.5008 96.2471 13.0745Q98.7281 10.6483 98.7281 5.34805L98.7281-0.317582L105.016-0.317582Q111.073-0.317582 114.131-3.3013Q117.19-6.28502 117.19-12.442L117.19-56.1126Q117.19-62.2188 114.131-65.2279Q111.073-68.237 105.016-68.237L24.6841-68.237Q18.6617-68.237 15.5613-65.2279Q12.4609-62.2188 12.4609-56.1126L12.4609-12.442Q12.4609-6.28502 15.519-3.3013Q18.577-0.317582 24.6841-0.317582L30.9216-0.317582L30.9216 5.34805Q30.9216 10.6483 33.4031 13.0745Q35.8845 15.5008 41.125 15.5008ZM40.1074-47.3491Q38.054-47.3491 38.054-49.4034L38.054-53.1064Q38.054-55.1599 40.1074-55.1599L43.8104-55.1599Q45.8648-55.1599 45.8648-53.1064L45.8648-49.4034Q45.8648-47.3491 43.8104-47.3491ZM55.3832-47.3491Q53.3289-47.3491 53.3289-49.4034L53.3289-53.1064Q53.3289-55.1599 55.3832-55.1599L59.136-55.1599Q61.1903-55.1599 61.1903-53.1064L61.1903-49.4034Q61.1903-47.3491 59.136-47.3491ZM70.6581-47.3491Q68.6428-47.3491 68.6428-49.4034L68.6428-53.1064Q68.6428-55.1599 70.6581-55.1599L74.4118-55.1599Q76.4652-55.1599 76.4652-53.1064L76.4652-49.4034Q76.4652-47.3491 74.4118-47.3491ZM85.9712-47.3491Q83.9302-47.3491 83.9302-49.4034L83.9302-53.1064Q83.9302-55.1599 85.9712-55.1599L89.675-55.1599Q91.7401-55.1599 91.7401-53.1064L91.7401-49.4034Q91.7401-47.3491 89.675-47.3491ZM40.1074-30.5028Q38.054-30.5028 38.054-32.5571L38.054-36.2477Q38.054-38.3136 40.1074-38.3136L43.8104-38.3136Q45.8648-38.3136 45.8648-36.2477L45.8648-32.5571Q45.8648-30.5028 43.8104-30.5028ZM55.3832-30.5028Q53.3289-30.5028 53.3289-32.5571L53.3289-36.2477Q53.3289-38.3136 55.3832-38.3136L59.136-38.3136Q61.1903-38.3136 61.1903-36.2477L61.1903-32.5571Q61.1903-30.5028 59.136-30.5028ZM70.6581-30.5028Q68.6428-30.5028 68.6428-32.5571L68.6428-36.2477Q68.6428-38.3136 70.6581-38.3136L74.4118-38.3136Q76.4652-38.3136 76.4652-36.2477L76.4652-32.5571Q76.4652-30.5028 74.4118-30.5028ZM85.9712-30.5028Q83.9302-30.5028 83.9302-32.5571L83.9302-36.2477Q83.9302-38.3136 85.9712-38.3136L89.675-38.3136Q91.7401-38.3136 91.7401-36.2477L91.7401-32.5571Q91.7401-30.5028 89.675-30.5028ZM41.6393 11.9801Q37.842 11.9801 36.2526 10.3711Q34.6631 8.76213 34.6631 4.94167L34.6631-8.68098Q34.6631-12.4898 36.2779-14.1238Q37.8927-15.7577 41.6891-15.7577L88.0229-15.7577Q91.8202-15.7577 93.4034-14.1238Q94.9866-12.4898 94.9866-8.68098L94.9866 4.94167Q94.9866 8.76213 93.4283 10.3711Q91.87 11.9801 88.0736 11.9801ZM47.4738 0.369366L82.371 0.369366Q83.2986 0.369366 83.9543-0.286313Q84.61-0.941992 84.61-1.93196Q84.61-2.85962 83.9543-3.49038Q83.2986-4.12113 82.371-4.12113L47.4738-4.12113Q46.4963-4.12113 45.8344-3.49038Q45.1725-2.85962 45.1725-1.93196Q45.1725-0.941992 45.8344-0.286313Q46.4963 0.369366 47.4738 0.369366Z"/>
  </g>
  <g id="Ultralight-M" transform="matrix(1 0 0 1 495.605 1126)">
   <path d="M31.1576-71.0595L97.1171-71.0595L97.1171-73.9088Q97.1171-79.267 94.6144-81.729Q92.1117-84.1909 86.8106-84.1909L41.4028-84.1909Q36.1033-84.1909 33.6305-81.729Q31.1576-79.267 31.1576-73.9088ZM41.5424 14.7358L86.7323 14.7358Q92.0854 14.7358 94.6069 12.2458Q97.1285 9.75575 97.1285 4.33965L97.1285-0.248057L104.263-0.248057Q110.006-0.248057 112.879-3.05787Q115.752-5.86767 115.752-11.7348L115.752-56.5531Q115.752-62.3579 112.879-65.1989Q110.006-68.0399 104.263-68.0399L24.0119-68.0399Q18.2097-68.0399 15.3353-65.1989Q12.4609-62.3579 12.4609-56.5531L12.4609-11.7348Q12.4609-5.86767 15.3335-3.05787Q18.206-0.248057 24.0119-0.248057L31.0839-0.248057L31.0839 4.33965Q31.0839 9.75575 33.6059 12.2458Q36.128 14.7358 41.5424 14.7358ZM40.0031-47.7084Q38.0076-47.7084 38.0076-49.7049L38.0076-53.1413Q38.0076-55.1367 40.0031-55.1367L43.4394-55.1367Q45.4359-55.1367 45.4359-53.1413L45.4359-49.7049Q45.4359-47.7084 43.4394-47.7084ZM54.908-47.7084Q52.9115-47.7084 52.9115-49.7049L52.9115-53.1413Q52.9115-55.1367 54.908-55.1367L58.4057-55.1367Q60.4022-55.1367 60.4022-53.1413L60.4022-49.7049Q60.4022-47.7084 58.4057-47.7084ZM69.8119-47.7084Q67.8779-47.7084 67.8779-49.7049L67.8779-53.1413Q67.8779-55.1367 69.8119-55.1367L73.3107-55.1367Q75.3061-55.1367 75.3061-53.1413L75.3061-49.7049Q75.3061-47.7084 73.3107-47.7084ZM84.7772-47.7084Q82.7827-47.7084 82.7827-49.7049L82.7827-53.1413Q82.7827-55.1367 84.7772-55.1367L88.2146-55.1367Q90.21-55.1367 90.21-53.1413L90.21-49.7049Q90.21-47.7084 88.2146-47.7084ZM40.0031-30.8853Q38.0076-30.8853 38.0076-32.8818L38.0076-36.3172Q38.0076-38.3136 40.0031-38.3136L43.4394-38.3136Q45.4359-38.3136 45.4359-36.3172L45.4359-32.8818Q45.4359-30.8853 43.4394-30.8853ZM54.908-30.8853Q52.9115-30.8853 52.9115-32.8818L52.9115-36.3172Q52.9115-38.3136 54.908-38.3136L58.4057-38.3136Q60.4022-38.3136 60.4022-36.3172L60.4022-32.8818Q60.4022-30.8853 58.4057-30.8853ZM69.8119-30.8853Q67.8779-30.8853 67.8779-32.8818L67.8779-36.3172Q67.8779-38.3136 69.8119-38.3136L73.3107-38.3136Q75.3061-38.3136 75.3061-36.3172L75.3061-32.8818Q75.3061-30.8853 73.3107-30.8853ZM84.7772-30.8853Q82.7827-30.8853 82.7827-32.8818L82.7827-36.3172Q82.7827-38.3136 84.7772-38.3136L88.2146-38.3136Q90.21-38.3136 90.21-36.3172L90.21-32.8818Q90.21-30.8853 88.2146-30.8853ZM41.5002 12.3279Q37.1581 12.3279 35.389 10.5276Q33.6198 8.72727 33.6198 4.38527L33.6198-8.35633Q33.6198-12.6984 35.4201-14.5294Q37.2204-16.3604 41.5616-16.3604L86.7131-16.3604Q91.0552-16.3604 92.8238-14.5294Q94.5925-12.6984 94.5925-8.35633L94.5925 4.38527Q94.5925 8.72727 92.8545 10.5276Q91.1166 12.3279 86.7755 12.3279ZM46.4537-0.163853L81.8263-0.163853Q82.58-0.163853 83.114-0.697815Q83.6479-1.23178 83.6479-2.04783Q83.6479-2.80159 83.114-3.30488Q82.58-3.80817 81.8263-3.80817L46.4537-3.80817Q45.6386-3.80817 45.1042-3.30488Q44.5698-2.80159 44.5698-2.04783Q44.5698-1.23178 45.1042-0.697815Q45.6386-0.163853 46.4537-0.163853Z"/>
  </g>
  <g id="Black-S" transform="matrix(1 0 0 1 2878.37 696)">
   <path d="M27.0508-71.3379L83.0078-71.3379L83.0078-71.4844Q83.0078-76.2695 79.126-78.7842Q75.2441-81.2988 69.7754-81.2988L40.2832-81.2988Q34.8145-81.2988 30.9326-78.7842Q27.0508-76.2695 27.0508-71.4844ZM39.5996 9.27734L70.459 9.27734Q76.709 9.27734 79.6631 6.29883Q82.6172 3.32031 82.6172-2.88086L82.6172-5.51758L85.5469-5.51758Q92.5293-5.51758 96.4111-9.39941Q100.293-13.2812 100.293-20.2637L100.293-49.3164Q100.293-56.2988 96.4111-60.1807Q92.5293-64.0625 85.5469-64.0625L24.5117-64.0625Q17.5293-64.0625 13.6475-60.1807Q9.76562-56.2988 9.76562-49.3164L9.76562-20.2637Q9.76562-13.2812 13.6475-9.39941Q17.5293-5.51758 24.5117-5.51758L27.4414-5.51758L27.4414-2.88086Q27.4414 3.32031 30.4199 6.29883Q33.3984 9.27734 39.5996 9.27734ZM35.2051-43.6523Q32.9102-43.6523 32.9102-45.9961L32.9102-49.9023Q32.9102-52.1973 35.2051-52.1973L39.0625-52.1973Q41.4062-52.1973 41.4062-49.9023L41.4062-45.9961Q41.4062-43.6523 39.0625-43.6523ZM47.168-43.6523Q44.8242-43.6523 44.8242-45.9961L44.8242-49.9023Q44.8242-52.1973 47.168-52.1973L51.0254-52.1973Q53.3203-52.1973 53.3203-49.9023L53.3203-45.9961Q53.3203-43.6523 51.0254-43.6523ZM59.082-43.6523Q56.7871-43.6523 56.7871-45.9961L56.7871-49.9023Q56.7871-52.1973 59.082-52.1973L62.9395-52.1973Q65.2832-52.1973 65.2832-49.9023L65.2832-45.9961Q65.2832-43.6523 62.9395-43.6523ZM71.0449-43.6523Q68.7012-43.6523 68.7012-45.9961L68.7012-49.9023Q68.7012-52.1973 71.0449-52.1973L74.9023-52.1973Q77.1973-52.1973 77.1973-49.9023L77.1973-45.9961Q77.1973-43.6523 74.9023-43.6523ZM35.2051-31.2012Q32.9102-31.2012 32.9102-33.4961L32.9102-37.4023Q32.9102-39.7461 35.2051-39.7461L39.0625-39.7461Q41.4062-39.7461 41.4062-37.4023L41.4062-33.4961Q41.4062-31.2012 39.0625-31.2012ZM47.168-31.2012Q44.8242-31.2012 44.8242-33.4961L44.8242-37.4023Q44.8242-39.7461 47.168-39.7461L51.0254-39.7461Q53.3203-39.7461 53.3203-37.4023L53.3203-33.4961Q53.3203-31.2012 51.0254-31.2012ZM59.082-31.2012Q56.7871-31.2012 56.7871-33.4961L56.7871-37.4023Q56.7871-39.7461 59.082-39.7461L62.9395-39.7461Q65.2832-39.7461 65.2832-37.4023L65.2832-33.4961Q65.2832-31.2012 62.9395-31.2012ZM71.0449-31.2012Q68.7012-31.2012 68.7012-33.4961L68.7012-37.4023Q68.7012-39.7461 71.0449-39.7461L74.9023-39.7461Q77.1973-39.7461 77.1973-37.4023L77.1973-33.4961Q77.1973-31.2012 74.9023-31.2012ZM39.5996-1.41602Q38.9648-1.41602 38.5742-1.78223Q38.1836-2.14844 38.1836-2.83203L38.1836-16.3574Q38.1836-17.041 38.5742-17.4072Q38.9648-17.7734 39.5996-17.7734L70.459-17.7734Q71.1426-17.7734 71.5088-17.4072Q71.875-17.041 71.875-16.3574L71.875-2.83203Q71.875-2.14844 71.5088-1.78223Q71.1426-1.41602 70.459-1.41602ZM46.1426-5.32227L63.9648-5.32227Q65.7227-5.32227 66.9678-6.56738Q68.2129-7.8125 68.2129-9.61914Q68.2129-11.377 66.9678-12.6221Q65.7227-13.8672 63.9648-13.8672L46.1426-13.8672Q44.3359-13.8672 43.0908-12.6221Q41.8457-11.377 41.8457-9.61914Q41.8457-7.8125 43.0908-6.56738Q44.3359-5.32227 46.1426-5.32227Z"/>
  </g>
  <g id="Heavy-S" transform="matrix(1 0 0 1 2582.08 696)">
   <path d="M26.5668-70.4159L82.6506-70.4159L82.6506-70.6085Q82.6506-75.2554 78.9358-77.649Q75.2211-80.0427 69.9137-80.0427L39.3036-80.0427Q34.0654-80.0427 30.3161-77.649Q26.5668-75.2554 26.5668-70.6085ZM37.5252 8.77027L71.6921 8.77027Q77.2967 8.77027 79.98 6.09715Q82.6633 3.42403 82.6633-2.20092L82.6633-6.12837L85.3855-6.12837Q92.0914-6.12837 95.7715-9.78548Q99.4517-13.4426 99.4517-20.1484L99.4517-49.5008Q99.4517-56.2066 95.7715-59.8637Q92.0914-63.5209 85.3855-63.5209L23.8318-63.5209Q17.2066-63.5209 13.4861-59.8637Q9.76562-56.2066 9.76562-49.5008L9.76562-20.1484Q9.76562-13.4426 13.4458-9.78548Q17.1259-6.12837 23.8318-6.12837L26.554-6.12837L26.554-2.20092Q26.554 3.42403 29.256 6.09715Q31.9579 8.77027 37.5252 8.77027ZM34.3984-43.6178Q32.2187-43.6178 32.2187-45.8348L32.2187-49.718Q32.2187-51.8976 34.3984-51.8976L38.2443-51.8976Q40.4612-51.8976 40.4612-49.718L40.4612-45.8348Q40.4612-43.6178 38.2443-43.6178ZM46.6609-43.6178Q44.4439-43.6178 44.4439-45.8348L44.4439-49.718Q44.4439-51.8976 46.6609-51.8976L50.5068-51.8976Q52.6865-51.8976 52.6865-49.718L52.6865-45.8348Q52.6865-43.6178 50.5068-43.6178ZM58.8861-43.6178Q56.6949-43.6178 56.6949-45.8348L56.6949-49.718Q56.6949-51.8976 58.8861-51.8976L62.732-51.8976Q64.949-51.8976 64.949-49.718L64.949-45.8348Q64.949-43.6178 62.732-43.6178ZM71.1371-43.6178Q68.9317-43.6178 68.9317-45.8348L68.9317-49.718Q68.9317-51.8976 71.1371-51.8976L74.983-51.8976Q77.1742-51.8976 77.1742-49.718L77.1742-45.8348Q77.1742-43.6178 74.983-43.6178ZM34.3984-30.9707Q32.2187-30.9707 32.2187-33.1504L32.2187-37.022Q32.2187-39.2505 34.3984-39.2505L38.2443-39.2505Q40.4612-39.2505 40.4612-37.022L40.4612-33.1504Q40.4612-30.9707 38.2443-30.9707ZM46.6609-30.9707Q44.4439-30.9707 44.4439-33.1504L44.4439-37.022Q44.4439-39.2505 46.6609-39.2505L50.5068-39.2505Q52.6865-39.2505 52.6865-37.022L52.6865-33.1504Q52.6865-30.9707 50.5068-30.9707ZM58.8861-30.9707Q56.6949-30.9707 56.6949-33.1504L56.6949-37.022Q56.6949-39.2505 58.8861-39.2505L62.732-39.2505Q64.949-39.2505 64.949-37.022L64.949-33.1504Q64.949-30.9707 62.732-30.9707ZM71.1371-30.9707Q68.9317-30.9707 68.9317-33.1504L68.9317-37.022Q68.9317-39.2505 71.1371-39.2505L74.983-39.2505Q77.1742-39.2505 77.1742-37.022L77.1742-33.1504Q77.1742-30.9707 74.983-30.9707ZM38.0669-0.943513Q37.3168-0.943513 36.8686-1.36735Q36.4204-1.79118 36.4204-2.60154L36.4204-16.1615Q36.4204-16.9603 36.8686-17.3842Q37.3168-17.808 38.0669-17.808L71.162-17.808Q71.9493-17.808 72.3731-17.3842Q72.797-16.9603 72.797-16.1615L72.797-2.60154Q72.797-1.79118 72.3731-1.36735Q71.9493-0.943513 71.162-0.943513ZM44.8518-5.36836L64.5411-5.36836Q66.1952-5.36836 67.3654-6.53857Q68.5356-7.70878 68.5356-9.4117Q68.5356-11.0658 67.3654-12.236Q66.1952-13.4062 64.5411-13.4062L44.8518-13.4062Q43.1604-13.4062 41.9845-12.236Q40.8085-11.0658 40.8085-9.4117Q40.8085-7.70878 41.9845-6.53857Q43.1604-5.36836 44.8518-5.36836Z"/>
  </g>
  <g id="Bold-S" transform="matrix(1 0 0 1 2285.84 696)">
   <path d="M26.0254-69.3848L82.251-69.3848L82.251-69.6289Q82.251-74.1211 78.7231-76.3794Q75.1953-78.6377 70.0684-78.6377L38.208-78.6377Q33.2275-78.6377 29.6265-76.3794Q26.0254-74.1211 26.0254-69.6289ZM35.2051 8.20312L73.0713 8.20312Q77.9541 8.20312 80.3345 5.87158Q82.7148 3.54004 82.7148-1.44043L82.7148-6.81152L85.2051-6.81152Q91.6016-6.81152 95.0562-10.2173Q98.5107-13.623 98.5107-20.0195L98.5107-49.707Q98.5107-56.1035 95.0562-59.5093Q91.6016-62.915 85.2051-62.915L23.0713-62.915Q16.8457-62.915 13.3057-59.5093Q9.76562-56.1035 9.76562-49.707L9.76562-20.0195Q9.76562-13.623 13.2202-10.2173Q16.6748-6.81152 23.0713-6.81152L25.5615-6.81152L25.5615-1.44043Q25.5615 3.54004 27.9541 5.87158Q30.3467 8.20312 35.2051 8.20312ZM33.4961-43.5791Q31.4453-43.5791 31.4453-45.6543L31.4453-49.5117Q31.4453-51.5625 33.4961-51.5625L37.3291-51.5625Q39.4043-51.5625 39.4043-49.5117L39.4043-45.6543Q39.4043-43.5791 37.3291-43.5791ZM46.0938-43.5791Q44.0186-43.5791 44.0186-45.6543L44.0186-49.5117Q44.0186-51.5625 46.0938-51.5625L49.9268-51.5625Q51.9775-51.5625 51.9775-49.5117L51.9775-45.6543Q51.9775-43.5791 49.9268-43.5791ZM58.667-43.5791Q56.5918-43.5791 56.5918-45.6543L56.5918-49.5117Q56.5918-51.5625 58.667-51.5625L62.5-51.5625Q64.5752-51.5625 64.5752-49.5117L64.5752-45.6543Q64.5752-43.5791 62.5-43.5791ZM71.2402-43.5791Q69.1895-43.5791 69.1895-45.6543L69.1895-49.5117Q69.1895-51.5625 71.2402-51.5625L75.0732-51.5625Q77.1484-51.5625 77.1484-49.5117L77.1484-45.6543Q77.1484-43.5791 75.0732-43.5791ZM33.4961-30.7129Q31.4453-30.7129 31.4453-32.7637L31.4453-36.5967Q31.4453-38.6963 33.4961-38.6963L37.3291-38.6963Q39.4043-38.6963 39.4043-36.5967L39.4043-32.7637Q39.4043-30.7129 37.3291-30.7129ZM46.0938-30.7129Q44.0186-30.7129 44.0186-32.7637L44.0186-36.5967Q44.0186-38.6963 46.0938-38.6963L49.9268-38.6963Q51.9775-38.6963 51.9775-36.5967L51.9775-32.7637Q51.9775-30.7129 49.9268-30.7129ZM58.667-30.7129Q56.5918-30.7129 56.5918-32.7637L56.5918-36.5967Q56.5918-38.6963 58.667-38.6963L62.5-38.6963Q64.5752-38.6963 64.5752-36.5967L64.5752-32.7637Q64.5752-30.7129 62.5-30.7129ZM71.2402-30.7129Q69.1895-30.7129 69.1895-32.7637L69.1895-36.5967Q69.1895-38.6963 71.2402-38.6963L75.0732-38.6963Q77.1484-38.6963 77.1484-36.5967L77.1484-32.7637Q77.1484-30.7129 75.0732-30.7129ZM36.3525-0.415039Q35.4736-0.415039 34.9609-0.90332Q34.4482-1.3916 34.4482-2.34375L34.4482-15.9424Q34.4482-16.8701 34.9609-17.3584Q35.4736-17.8467 36.3525-17.8467L71.9482-17.8467Q72.8516-17.8467 73.3398-17.3584Q73.8281-16.8701 73.8281-15.9424L73.8281-2.34375Q73.8281-1.3916 73.3398-0.90332Q72.8516-0.415039 71.9482-0.415039ZM43.4082-5.41992L65.1855-5.41992Q66.7236-5.41992 67.8101-6.50635Q68.8965-7.59277 68.8965-9.17969Q68.8965-10.7178 67.8101-11.8042Q66.7236-12.8906 65.1855-12.8906L43.4082-12.8906Q41.8457-12.8906 40.7471-11.8042Q39.6484-10.7178 39.6484-9.17969Q39.6484-7.59277 40.7471-6.50635Q41.8457-5.41992 43.4082-5.41992Z"/>
  </g>
  <g id="Semibold-S" transform="matrix(1 0 0 1 1989.45 696)">
   <path d="M25.6521-68.6738L81.9755-68.6738L81.9755-68.9535Q81.9755-73.3391 78.5765-75.5041Q75.1775-77.669 70.175-77.669L37.4526-77.669Q32.6499-77.669 29.151-75.5041Q25.6521-73.3391 25.6521-68.9535ZM33.6055 7.81211L74.0222 7.81211Q78.4073 7.81211 80.5789 5.71606Q82.7504 3.62002 82.7504-0.916113L82.7504-7.28252L85.0807-7.28252Q91.2639-7.28252 94.5629-10.515Q97.862-13.7475 97.862-19.9307L97.862-49.8492Q97.862-56.0324 94.5629-59.2649Q91.2639-62.4974 85.0807-62.4974L22.547-62.4974Q16.5969-62.4974 13.1813-59.2649Q9.76562-56.0324 9.76562-49.8492L9.76562-19.9307Q9.76562-13.7475 13.0647-10.515Q16.3638-7.28252 22.547-7.28252L24.8772-7.28252L24.8772-0.916113Q24.8772 3.62002 27.0565 5.71606Q29.2358 7.81211 33.6055 7.81211ZM32.874-43.5524Q30.9121-43.5524 30.9121-45.5299L30.9121-49.3695Q30.9121-51.3314 32.874-51.3314L36.6981-51.3314Q38.6756-51.3314 38.6756-49.3695L38.6756-45.5299Q38.6756-43.5524 36.6981-43.5524ZM45.7027-43.5524Q43.7253-43.5524 43.7253-45.5299L43.7253-49.3695Q43.7253-51.3314 45.7027-51.3314L49.5269-51.3314Q51.4888-51.3314 51.4888-49.3695L51.4888-45.5299Q51.4888-43.5524 49.5269-43.5524ZM58.5159-43.5524Q56.5207-43.5524 56.5207-45.5299L56.5207-49.3695Q56.5207-51.3314 58.5159-51.3314L62.34-51.3314Q64.3175-51.3314 64.3175-49.3695L64.3175-45.5299Q64.3175-43.5524 62.34-43.5524ZM71.3113-43.5524Q69.3672-43.5524 69.3672-45.5299L69.3672-49.3695Q69.3672-51.3314 71.3113-51.3314L75.1354-51.3314Q77.1307-51.3314 77.1307-49.3695L77.1307-45.5299Q77.1307-43.5524 75.1354-43.5524ZM32.874-30.5352Q30.9121-30.5352 30.9121-32.4971L30.9121-36.3034Q30.9121-38.3142 32.874-38.3142L36.6981-38.3142Q38.6756-38.3142 38.6756-36.3034L38.6756-32.4971Q38.6756-30.5352 36.6981-30.5352ZM45.7027-30.5352Q43.7253-30.5352 43.7253-32.4971L43.7253-36.3034Q43.7253-38.3142 45.7027-38.3142L49.5269-38.3142Q51.4888-38.3142 51.4888-36.3034L51.4888-32.4971Q51.4888-30.5352 49.5269-30.5352ZM58.5159-30.5352Q56.5207-30.5352 56.5207-32.4971L56.5207-36.3034Q56.5207-38.3142 58.5159-38.3142L62.34-38.3142Q64.3175-38.3142 64.3175-36.3034L64.3175-32.4971Q64.3175-30.5352 62.34-30.5352ZM71.3113-30.5352Q69.3672-30.5352 69.3672-32.4971L69.3672-36.3034Q69.3672-38.3142 71.3113-38.3142L75.1354-38.3142Q77.1307-38.3142 77.1307-36.3034L77.1307-32.4971Q77.1307-30.5352 75.1354-30.5352ZM35.1706-0.0506836Q34.2028-0.0506836 33.6457-0.583398Q33.0886-1.11611 33.0886-2.16602L33.0886-15.7913Q33.0886-16.8079 33.6457-17.3406Q34.2028-17.8733 35.1706-17.8733L72.4903-17.8733Q73.4736-17.8733 74.0063-17.3406Q74.5391-16.8079 74.5391-15.7913L74.5391-2.16602Q74.5391-1.11611 74.0063-0.583398Q73.4736-0.0506836 72.4903-0.0506836ZM42.4129-5.45547L65.6299-5.45547Q67.088-5.45547 68.1167-6.48413Q69.1453-7.51279 69.1453-9.01973Q69.1453-10.4778 68.1167-11.5065Q67.088-12.5352 65.6299-12.5352L42.4129-12.5352Q40.9393-12.5352 39.8939-11.5065Q38.8486-10.4778 38.8486-9.01973Q38.8486-7.51279 39.8939-6.48413Q40.9393-5.45547 42.4129-5.45547Z"/>
  </g>
  <g id="Medium-S" transform="matrix(1 0 0 1 1692.99 696)">
   <path d="M25.3691-68.1348L81.7666-68.1348L81.7666-68.4414Q81.7666-72.7461 78.4653-74.8403Q75.1641-76.9346 70.2559-76.9346L36.8799-76.9346Q32.2119-76.9346 28.7905-74.8403Q25.3691-72.7461 25.3691-68.4414ZM32.3926 7.51562L74.7432 7.51562Q78.751 7.51562 80.7642 5.59814Q82.7773 3.68066 82.7773-0.518555L82.7773-7.63965L84.9863-7.63965Q91.0078-7.63965 94.189-10.7407Q97.3701-13.8418 97.3701-19.8633L97.3701-49.957Q97.3701-55.9785 94.189-59.0796Q91.0078-62.1807 84.9863-62.1807L22.1494-62.1807Q16.4082-62.1807 13.0869-59.0796Q9.76562-55.9785 9.76562-49.957L9.76562-19.8633Q9.76562-13.8418 12.9468-10.7407Q16.1279-7.63965 22.1494-7.63965L24.3584-7.63965L24.3584-0.518555Q24.3584 3.68066 26.376 5.59814Q28.3936 7.51562 32.3926 7.51562ZM32.4023-43.5322Q30.5078-43.5322 30.5078-45.4355L30.5078-49.2617Q30.5078-51.1562 32.4023-51.1562L36.2197-51.1562Q38.123-51.1562 38.123-49.2617L38.123-45.4355Q38.123-43.5322 36.2197-43.5322ZM45.4062-43.5322Q43.5029-43.5322 43.5029-45.4355L43.5029-49.2617Q43.5029-51.1562 45.4062-51.1562L49.2236-51.1562Q51.1182-51.1562 51.1182-49.2617L51.1182-45.4355Q51.1182-43.5322 49.2236-43.5322ZM58.4014-43.5322Q56.4668-43.5322 56.4668-45.4355L56.4668-49.2617Q56.4668-51.1562 58.4014-51.1562L62.2188-51.1562Q64.1221-51.1562 64.1221-49.2617L64.1221-45.4355Q64.1221-43.5322 62.2188-43.5322ZM71.3652-43.5322Q69.502-43.5322 69.502-45.4355L69.502-49.2617Q69.502-51.1562 71.3652-51.1562L75.1826-51.1562Q77.1172-51.1562 77.1172-49.2617L77.1172-45.4355Q77.1172-43.5322 75.1826-43.5322ZM32.4023-30.4004Q30.5078-30.4004 30.5078-32.2949L30.5078-36.0811Q30.5078-38.0244 32.4023-38.0244L36.2197-38.0244Q38.123-38.0244 38.123-36.0811L38.123-32.2949Q38.123-30.4004 36.2197-30.4004ZM45.4062-30.4004Q43.5029-30.4004 43.5029-32.2949L43.5029-36.0811Q43.5029-38.0244 45.4062-38.0244L49.2236-38.0244Q51.1182-38.0244 51.1182-36.0811L51.1182-32.2949Q51.1182-30.4004 49.2236-30.4004ZM58.4014-30.4004Q56.4668-30.4004 56.4668-32.2949L56.4668-36.0811Q56.4668-38.0244 58.4014-38.0244L62.2188-38.0244Q64.1221-38.0244 64.1221-36.0811L64.1221-32.2949Q64.1221-30.4004 62.2188-30.4004ZM71.3652-30.4004Q69.502-30.4004 69.502-32.2949L69.502-36.0811Q69.502-38.0244 71.3652-38.0244L75.1826-38.0244Q77.1172-38.0244 77.1172-36.0811L77.1172-32.2949Q77.1172-30.4004 75.1826-30.4004ZM34.2744 0.225586Q33.2393 0.225586 32.6484-0.34082Q32.0576-0.907227 32.0576-2.03125L32.0576-15.6768Q32.0576-16.7607 32.6484-17.3271Q33.2393-17.8936 34.2744-17.8936L72.9014-17.8936Q73.9453-17.8936 74.5117-17.3271Q75.0781-16.7607 75.0781-15.6768L75.0781-2.03125Q75.0781-0.907227 74.5117-0.34082Q73.9453 0.225586 72.9014 0.225586ZM41.6582-5.48242L65.9668-5.48242Q67.3643-5.48242 68.3491-6.46729Q69.334-7.45215 69.334-8.89844Q69.334-10.2959 68.3491-11.2808Q67.3643-12.2656 65.9668-12.2656L41.6582-12.2656Q40.252-12.2656 39.2471-11.2808Q38.2422-10.2959 38.2422-8.89844Q38.2422-7.45215 39.2471-6.46729Q40.252-5.48242 41.6582-5.48242Z"/>
  </g>
  <g id="Regular-S" transform="matrix(1 0 0 1 1396.6 696)">
   <path d="M25-67.4316L81.4941-67.4316L81.4941-67.7734Q81.4941-71.9727 78.3203-73.9746Q75.1465-75.9766 70.3613-75.9766L36.1328-75.9766Q31.6406-75.9766 28.3203-73.9746Q25-71.9727 25-67.7734ZM30.8105 7.12891L75.6836 7.12891Q79.1992 7.12891 81.0059 5.44434Q82.8125 3.75977 82.8125 0L82.8125-8.10547L84.8633-8.10547Q90.6738-8.10547 93.7012-11.0352Q96.7285-13.9648 96.7285-19.7754L96.7285-50.0977Q96.7285-55.9082 93.7012-58.8379Q90.6738-61.7676 84.8633-61.7676L21.6309-61.7676Q16.1621-61.7676 12.9639-58.8379Q9.76562-55.9082 9.76562-50.0977L9.76562-19.7754Q9.76562-13.9648 12.793-11.0352Q15.8203-8.10547 21.6309-8.10547L23.6816-8.10547L23.6816 0Q23.6816 3.75977 25.4883 5.44434Q27.2949 7.12891 30.8105 7.12891ZM31.7871-43.5059Q29.9805-43.5059 29.9805-45.3125L29.9805-49.1211Q29.9805-50.9277 31.7871-50.9277L35.5957-50.9277Q37.4023-50.9277 37.4023-49.1211L37.4023-45.3125Q37.4023-43.5059 35.5957-43.5059ZM45.0195-43.5059Q43.2129-43.5059 43.2129-45.3125L43.2129-49.1211Q43.2129-50.9277 45.0195-50.9277L48.8281-50.9277Q50.6348-50.9277 50.6348-49.1211L50.6348-45.3125Q50.6348-43.5059 48.8281-43.5059ZM58.252-43.5059Q56.3965-43.5059 56.3965-45.3125L56.3965-49.1211Q56.3965-50.9277 58.252-50.9277L62.0605-50.9277Q63.8672-50.9277 63.8672-49.1211L63.8672-45.3125Q63.8672-43.5059 62.0605-43.5059ZM71.4355-43.5059Q69.6777-43.5059 69.6777-45.3125L69.6777-49.1211Q69.6777-50.9277 71.4355-50.9277L75.2441-50.9277Q77.0996-50.9277 77.0996-49.1211L77.0996-45.3125Q77.0996-43.5059 75.2441-43.5059ZM31.7871-30.2246Q29.9805-30.2246 29.9805-32.0312L29.9805-35.791Q29.9805-37.6465 31.7871-37.6465L35.5957-37.6465Q37.4023-37.6465 37.4023-35.791L37.4023-32.0312Q37.4023-30.2246 35.5957-30.2246ZM45.0195-30.2246Q43.2129-30.2246 43.2129-32.0312L43.2129-35.791Q43.2129-37.6465 45.0195-37.6465L48.8281-37.6465Q50.6348-37.6465 50.6348-35.791L50.6348-32.0312Q50.6348-30.2246 48.8281-30.2246ZM58.252-30.2246Q56.3965-30.2246 56.3965-32.0312L56.3965-35.791Q56.3965-37.6465 58.252-37.6465L62.0605-37.6465Q63.8672-37.6465 63.8672-35.791L63.8672-32.0312Q63.8672-30.2246 62.0605-30.2246ZM71.4355-30.2246Q69.6777-30.2246 69.6777-32.0312L69.6777-35.791Q69.6777-37.6465 71.4355-37.6465L75.2441-37.6465Q77.0996-37.6465 77.0996-35.791L77.0996-32.0312Q77.0996-30.2246 75.2441-30.2246ZM33.1055 0.585938Q31.9824 0.585938 31.3477-0.0244141Q30.7129-0.634766 30.7129-1.85547L30.7129-15.5273Q30.7129-16.6992 31.3477-17.3096Q31.9824-17.9199 33.1055-17.9199L73.4375-17.9199Q74.5605-17.9199 75.1709-17.3096Q75.7812-16.6992 75.7812-15.5273L75.7812-1.85547Q75.7812-0.634766 75.1709-0.0244141Q74.5605 0.585938 73.4375 0.585938ZM40.6738-5.51758L66.4062-5.51758Q67.7246-5.51758 68.6523-6.44531Q69.5801-7.37305 69.5801-8.74023Q69.5801-10.0586 68.6523-10.9863Q67.7246-11.9141 66.4062-11.9141L40.6738-11.9141Q39.3555-11.9141 38.4033-10.9863Q37.4512-10.0586 37.4512-8.74023Q37.4512-7.37305 38.4033-6.44531Q39.3555-5.51758 40.6738-5.51758Z"/>
  </g>
  <g id="Light-S" transform="matrix(1 0 0 1 1100.82 696)">
   <path d="M24.8184-66.1451L79.8139-66.1451L79.8139-67.0771Q79.8139-71.2763 77.0185-73.2557Q74.2231-75.235 69.6348-75.235L34.9826-75.235Q30.5962-75.235 27.7073-73.2557Q24.8184-71.2763 24.8184-67.0771ZM31.3555 6.12996L73.2768 6.12996Q77.0045 6.12996 78.864 4.36211Q80.7236 2.59425 80.7236-1.31683L80.7236-8.01468L83.8793-8.01468Q89.2812-8.01468 92.0664-10.7173Q94.8517-13.4199 94.8517-18.852L94.8517-50.6729Q94.8517-56.0898 92.0664-58.8Q89.2812-61.5102 83.8793-61.5102L20.753-61.5102Q15.5718-61.5102 12.6687-58.8Q9.76562-56.0898 9.76562-50.6729L9.76562-18.852Q9.76562-13.4199 12.5507-10.7173Q15.3358-8.01468 20.753-8.01468L23.8935-8.01468L23.8935-1.31683Q23.8935 2.59425 25.7531 4.36211Q27.6128 6.12996 31.3555 6.12996ZM31.6508-43.9751Q29.9199-43.9751 29.9199-45.7062L29.9199-49.1666Q29.9199-50.8975 31.6508-50.8975L35.1112-50.8975Q36.8423-50.8975 36.8423-49.1666L36.8423-45.7062Q36.8423-43.9751 35.1112-43.9751ZM44.399-43.9751Q42.6679-43.9751 42.6679-45.7062L42.6679-49.1666Q42.6679-50.8975 44.399-50.8975L47.8745-50.8975Q49.6056-50.8975 49.6056-49.1666L49.6056-45.7062Q49.6056-43.9751 47.8745-43.9751ZM57.147-43.9751Q55.3975-43.9751 55.3975-45.7062L55.3975-49.1666Q55.3975-50.8975 57.147-50.8975L60.6227-50.8975Q62.3535-50.8975 62.3535-49.1666L62.3535-45.7062Q62.3535-43.9751 60.6227-43.9751ZM69.8764-43.9751Q68.1793-43.9751 68.1793-45.7062L68.1793-49.1666Q68.1793-50.8975 69.8764-50.8975L73.337-50.8975Q75.1015-50.8975 75.1015-49.1666L75.1015-45.7062Q75.1015-43.9751 73.337-43.9751ZM31.6508-30.7241Q29.9199-30.7241 29.9199-32.4552L29.9199-35.8818Q29.9199-37.6465 31.6508-37.6465L35.1112-37.6465Q36.8423-37.6465 36.8423-35.8818L36.8423-32.4552Q36.8423-30.7241 35.1112-30.7241ZM44.399-30.7241Q42.6679-30.7241 42.6679-32.4552L42.6679-35.8818Q42.6679-37.6465 44.399-37.6465L47.8745-37.6465Q49.6056-37.6465 49.6056-35.8818L49.6056-32.4552Q49.6056-30.7241 47.8745-30.7241ZM57.147-30.7241Q55.3975-30.7241 55.3975-32.4552L55.3975-35.8818Q55.3975-37.6465 57.147-37.6465L60.6227-37.6465Q62.3535-37.6465 62.3535-35.8818L62.3535-32.4552Q62.3535-30.7241 60.6227-30.7241ZM69.8764-30.7241Q68.1793-30.7241 68.1793-32.4552L68.1793-35.8818Q68.1793-37.6465 69.8764-37.6465L73.337-37.6465Q75.1015-37.6465 75.1015-35.8818L75.1015-32.4552Q75.1015-30.7241 73.337-30.7241ZM32.9239 1.04014Q31.0893 1.04014 30.2199 0.179927Q29.3505-0.680288 29.3505-2.58204L29.3505-15.1034Q29.3505-16.9716 30.2275-17.8393Q31.1045-18.707 32.9389-18.707L71.727-18.707Q73.5616-18.707 74.4141-17.8393Q75.2665-16.9716 75.2665-15.1034L75.2665-2.58204Q75.2665-0.680288 74.4216 0.179927Q73.5766 1.04014 71.7422 1.04014ZM39.3417-6.21389L65.6949-6.21389Q66.7862-6.21389 67.555-6.98268Q68.3238-7.75146 68.3238-8.89155Q68.3238-9.98281 67.555-10.7441Q66.7862-11.5054 65.6949-11.5054L39.3417-11.5054Q38.2355-11.5054 37.4498-10.7441Q36.6641-9.98281 36.6641-8.89155Q36.6641-7.75146 37.4498-6.98268Q38.2355-6.21389 39.3417-6.21389Z"/>
  </g>
  <g id="Thin-S" transform="matrix(1 0 0 1 805.355 696)">
   <path d="M24.5783-64.4435L77.5916-64.4435L77.5916-66.1562Q77.5916-70.3554 75.2967-72.3048Q73.0018-74.2542 68.6738-74.2542L33.4612-74.2542Q29.2148-74.2542 26.8965-72.3048Q24.5783-70.3554 24.5783-66.1562ZM32.0763 4.80878L70.0936 4.80878Q74.1018 4.80878 76.0313 2.93077Q77.9608 1.05276 77.9608-3.05845L77.9608-7.8946L82.578-7.8946Q87.4394-7.8946 89.9044-10.2968Q92.3694-12.6991 92.3694-17.6307L92.3694-51.4337Q92.3694-56.3299 89.9044-58.7499Q87.4394-61.1698 82.578-61.1698L19.5919-61.1698Q14.7912-61.1698 12.2784-58.7499Q9.76562-56.3299 9.76562-51.4337L9.76562-17.6307Q9.76562-12.6991 12.2304-10.2968Q14.6951-7.8946 19.5919-7.8946L24.1737-7.8946L24.1737-3.05845Q24.1737 1.05276 26.1035 2.93077Q28.0333 4.80878 32.0763 4.80878ZM31.4705-44.5956Q29.8399-44.5956 29.8399-46.2268L29.8399-49.2268Q29.8399-50.8574 31.4705-50.8574L34.4705-50.8574Q36.1017-50.8574 36.1017-49.2268L36.1017-46.2268Q36.1017-44.5956 34.4705-44.5956ZM43.5783-44.5956Q41.9471-44.5956 41.9471-46.2268L41.9471-49.2268Q41.9471-50.8574 43.5783-50.8574L46.6131-50.8574Q48.2444-50.8574 48.2444-49.2268L48.2444-46.2268Q48.2444-44.5956 46.6131-44.5956ZM55.6855-44.5956Q54.0764-44.5956 54.0764-46.2268L54.0764-49.2268Q54.0764-50.8574 55.6855-50.8574L58.7209-50.8574Q60.3516-50.8574 60.3516-49.2268L60.3516-46.2268Q60.3516-44.5956 58.7209-44.5956ZM67.8142-44.5956Q66.1975-44.5956 66.1975-46.2268L66.1975-49.2268Q66.1975-50.8574 67.8142-50.8574L70.8148-50.8574Q72.4588-50.8574 72.4588-49.2268L72.4588-46.2268Q72.4588-44.5956 70.8148-44.5956ZM31.4705-31.3847Q29.8399-31.3847 29.8399-33.0159L29.8399-36.0019Q29.8399-37.6465 31.4705-37.6465L34.4705-37.6465Q36.1017-37.6465 36.1017-36.0019L36.1017-33.0159Q36.1017-31.3847 34.4705-31.3847ZM43.5783-31.3847Q41.9471-31.3847 41.9471-33.0159L41.9471-36.0019Q41.9471-37.6465 43.5783-37.6465L46.6131-37.6465Q48.2444-37.6465 48.2444-36.0019L48.2444-33.0159Q48.2444-31.3847 46.6131-31.3847ZM55.6855-31.3847Q54.0764-31.3847 54.0764-33.0159L54.0764-36.0019Q54.0764-37.6465 55.6855-37.6465L58.7209-37.6465Q60.3516-37.6465 60.3516-36.0019L60.3516-33.0159Q60.3516-31.3847 58.7209-31.3847ZM67.8142-31.3847Q66.1975-31.3847 66.1975-33.0159L66.1975-36.0019Q66.1975-37.6465 67.8142-37.6465L70.8148-37.6465Q72.4588-37.6465 72.4588-36.0019L72.4588-33.0159Q72.4588-31.3847 70.8148-31.3847ZM32.6837 1.64086Q29.908 1.64086 28.7284 0.450183Q27.5487-0.740494 27.5487-3.54299L27.5487-14.5427Q27.5487-17.3318 28.7461-18.5399Q29.9435-19.748 32.7186-19.748L69.4647-19.748Q72.2404-19.748 73.4131-18.5399Q74.5857-17.3318 74.5857-14.5427L74.5857-3.54299Q74.5857-0.740494 73.4305 0.450183Q72.2753 1.64086 69.5001 1.64086ZM37.5799-7.13481L64.7542-7.13481Q65.5451-7.13481 66.1036-7.69338Q66.6622-8.25195 66.6622-9.09168Q66.6622-9.88258 66.1036-10.4237Q65.5451-10.9649 64.7542-10.9649L37.5799-10.9649Q36.7542-10.9649 36.1886-10.4237Q35.6231-9.88258 35.6231-9.09168Q35.6231-8.25195 36.1886-7.69338Q36.7542-7.13481 37.5799-7.13481Z"/>
  </g>
  <g id="Ultralight-S" transform="matrix(1 0 0 1 509.279 696)">
   <path d="M24.4553-63.5719L76.4534-63.5719L76.4534-65.6845Q76.4534-69.8837 74.4148-71.8178Q72.3763-73.7518 68.1816-73.7518L32.682-73.7518Q28.5072-73.7518 26.4812-71.8178Q24.4553-69.8837 24.4553-65.6845ZM32.4455 4.13208L68.4631 4.13208Q72.6151 4.13208 74.5804 2.19765Q76.5457 0.263214 76.5457-3.9505L76.5457-7.8331L81.9115-7.8331Q86.496-7.8331 88.797-10.0815Q91.098-12.3299 91.098-17.0052L91.098-51.8234Q91.098-56.4529 88.797-58.7242Q86.496-60.9955 81.9115-60.9955L18.9972-60.9955Q14.3913-60.9955 12.0785-58.7242Q9.76562-56.4529 9.76562-51.8234L9.76562-17.0052Q9.76562-12.3299 12.0663-10.0815Q14.3669-7.8331 18.9972-7.8331L24.3172-7.8331L24.3172-3.9505Q24.3172 0.263214 26.2829 2.19765Q28.2486 4.13208 32.4455 4.13208ZM31.3782-44.9135Q29.7989-44.9135 29.7989-46.4935L29.7989-49.2577Q29.7989-50.8369 31.3782-50.8369L34.1423-50.8369Q35.7224-50.8369 35.7224-49.2577L35.7224-46.4935Q35.7224-44.9135 34.1423-44.9135ZM43.158-44.9135Q41.5779-44.9135 41.5779-46.4935L41.5779-49.2577Q41.5779-50.8369 43.158-50.8369L45.9671-50.8369Q47.5471-50.8369 47.5471-49.2577L47.5471-46.4935Q47.5471-44.9135 45.9671-44.9135ZM54.937-44.9135Q53.3997-44.9135 53.3997-46.4935L53.3997-49.2577Q53.3997-50.8369 54.937-50.8369L57.7469-50.8369Q59.3262-50.8369 59.3262-49.2577L59.3262-46.4935Q59.3262-44.9135 57.7469-44.9135ZM66.758-44.9135Q65.1825-44.9135 65.1825-46.4935L65.1825-49.2577Q65.1825-50.8369 66.758-50.8369L69.5229-50.8369Q71.1052-50.8369 71.1052-49.2577L71.1052-46.4935Q71.1052-44.9135 69.5229-44.9135ZM31.3782-31.723Q29.7989-31.723 29.7989-33.3031L29.7989-36.0634Q29.7989-37.6465 31.3782-37.6465L34.1423-37.6465Q35.7224-37.6465 35.7224-36.0634L35.7224-33.3031Q35.7224-31.723 34.1423-31.723ZM43.158-31.723Q41.5779-31.723 41.5779-33.3031L41.5779-36.0634Q41.5779-37.6465 43.158-37.6465L45.9671-37.6465Q47.5471-37.6465 47.5471-36.0634L47.5471-33.3031Q47.5471-31.723 45.9671-31.723ZM54.937-31.723Q53.3997-31.723 53.3997-33.3031L53.3997-36.0634Q53.3997-37.6465 54.937-37.6465L57.7469-37.6465Q59.3262-37.6465 59.3262-36.0634L59.3262-33.3031Q59.3262-31.723 57.7469-31.723ZM66.758-31.723Q65.1825-31.723 65.1825-33.3031L65.1825-36.0634Q65.1825-37.6465 66.758-37.6465L69.5229-37.6465Q71.1052-37.6465 71.1052-36.0634L71.1052-33.3031Q71.1052-31.723 69.5229-31.723ZM32.5607 1.94855Q29.303 1.94855 27.9644 0.588608Q26.6258-0.771332 26.6258-4.03519L26.6258-14.2555Q26.6258-17.5163 27.9873-18.8988Q29.3488-20.2812 32.6057-20.2812L68.306-20.2812Q71.5637-20.2812 72.9004-18.8988Q74.2371-17.5163 74.2371-14.2555L74.2371-4.03519Q74.2371-0.771332 72.9229 0.588608Q71.6087 1.94855 68.3517 1.94855ZM36.6776-7.60651L64.2723-7.60651Q64.9094-7.60651 65.3603-8.0574Q65.8112-8.5083 65.8112-9.19418Q65.8112-9.83124 65.3603-10.2596Q64.9094-10.688 64.2723-10.688L36.6776-10.688Q35.9955-10.688 35.5427-10.2596Q35.0899-9.83124 35.0899-9.19418Q35.0899-8.5083 35.5427-8.0574Q35.9955-7.60651 36.6776-7.60651Z"/>
  </g>
 </g>
</svg>
