<?xml version="1.0" encoding="UTF-8"?>
<!--Generator: Apple Native CoreSVG 175.5-->
<!DOCTYPE svg
PUBLIC "-//W3C//DTD SVG 1.1//EN"
       "http://www.w3.org/Graphics/SVG/1.1/DTD/svg11.dtd">
<svg version="1.1" xmlns="http://www.w3.org/2000/svg" xmlns:xlink="http://www.w3.org/1999/xlink" width="3300" height="2200">
 <!--glyph: "uni101530.medium", point size: 100.0, font version: "18.0d9e1", template writer version: "84"-->
 <g id="Notes">
  <rect height="2200" id="artboard" style="fill:white;opacity:1" width="3300" x="0" y="0"/>
  <line style="fill:none;stroke:black;opacity:1;stroke-width:0.5;" x1="263" x2="3036" y1="292" y2="292"/>
  <text style="stroke:none;fill:black;font-family:sans-serif;font-size:13;font-weight:bold;" transform="matrix(1 0 0 1 263 322)">Weight/Scale Variations</text>
  <text style="stroke:none;fill:black;font-family:sans-serif;font-size:13;text-anchor:middle;" transform="matrix(1 0 0 1 559.711 322)">Ultralight</text>
  <text style="stroke:none;fill:black;font-family:sans-serif;font-size:13;text-anchor:middle;" transform="matrix(1 0 0 1 856.422 322)">Thin</text>
  <text style="stroke:none;fill:black;font-family:sans-serif;font-size:13;text-anchor:middle;" transform="matrix(1 0 0 1 1153.13 322)">Light</text>
  <text style="stroke:none;fill:black;font-family:sans-serif;font-size:13;text-anchor:middle;" transform="matrix(1 0 0 1 1449.84 322)">Regular</text>
  <text style="stroke:none;fill:black;font-family:sans-serif;font-size:13;text-anchor:middle;" transform="matrix(1 0 0 1 1746.56 322)">Medium</text>
  <text style="stroke:none;fill:black;font-family:sans-serif;font-size:13;text-anchor:middle;" transform="matrix(1 0 0 1 2043.27 322)">Semibold</text>
  <text style="stroke:none;fill:black;font-family:sans-serif;font-size:13;text-anchor:middle;" transform="matrix(1 0 0 1 2339.98 322)">Bold</text>
  <text style="stroke:none;fill:black;font-family:sans-serif;font-size:13;text-anchor:middle;" transform="matrix(1 0 0 1 2636.69 322)">Heavy</text>
  <text style="stroke:none;fill:black;font-family:sans-serif;font-size:13;text-anchor:middle;" transform="matrix(1 0 0 1 2933.4 322)">Black</text>
  <line style="fill:none;stroke:black;opacity:1;stroke-width:0.5;" x1="263" x2="3036" y1="1903" y2="1903"/>
  <g transform="matrix(1 0 0 1 263 1933)">
   <path d="M9.24805 0.830078Q10.8691 0.830078 12.2949 0.214844Q13.7207-0.400391 14.8096-1.49414Q15.8984-2.58789 16.5186-4.01367Q17.1387-5.43945 17.1387-7.05078Q17.1387-8.66211 16.5186-10.0879Q15.8984-11.5137 14.8047-12.6074Q13.7109-13.7012 12.2852-14.3164Q10.8594-14.9316 9.23828-14.9316Q7.62695-14.9316 6.20117-14.3164Q4.77539-13.7012 3.69141-12.6074Q2.60742-11.5137 1.9873-10.0879Q1.36719-8.66211 1.36719-7.05078Q1.36719-5.43945 1.9873-4.01367Q2.60742-2.58789 3.69629-1.49414Q4.78516-0.400391 6.21094 0.214844Q7.63672 0.830078 9.24805 0.830078ZM9.24805-0.654297Q7.91992-0.654297 6.7627-1.14746Q5.60547-1.64062 4.73145-2.51953Q3.85742-3.39844 3.36426-4.56055Q2.87109-5.72266 2.87109-7.05078Q2.87109-8.37891 3.35938-9.54102Q3.84766-10.7031 4.72168-11.582Q5.5957-12.4609 6.75293-12.9541Q7.91016-13.4473 9.23828-13.4473Q10.5762-13.4473 11.7383-12.9541Q12.9004-12.4609 13.7793-11.582Q14.6582-10.7031 15.1514-9.54102Q15.6445-8.37891 15.6445-7.05078Q15.6445-5.72266 15.1514-4.56055Q14.6582-3.39844 13.7793-2.51953Q12.9004-1.64062 11.7432-1.14746Q10.5859-0.654297 9.24805-0.654297ZM5.6543-7.05078Q5.6543-6.72852 5.85938-6.52832Q6.06445-6.32812 6.40625-6.32812L8.51562-6.32812L8.51562-4.20898Q8.51562-3.88672 8.71094-3.67676Q8.90625-3.4668 9.23828-3.4668Q9.56055-3.4668 9.77051-3.67676Q9.98047-3.88672 9.98047-4.20898L9.98047-6.32812L12.0898-6.32812Q12.4219-6.32812 12.627-6.52832Q12.832-6.72852 12.832-7.05078Q12.832-7.38281 12.627-7.58789Q12.4219-7.79297 12.0898-7.79297L9.98047-7.79297L9.98047-9.90234Q9.98047-10.2344 9.77051-10.4443Q9.56055-10.6543 9.23828-10.6543Q8.90625-10.6543 8.71094-10.4443Q8.51562-10.2344 8.51562-9.90234L8.51562-7.79297L6.40625-7.79297Q6.06445-7.79297 5.85938-7.58789Q5.6543-7.38281 5.6543-7.05078Z"/>
  </g>
  <g transform="matrix(1 0 0 1 281.867 1933)">
   <path d="M11.709 2.91016Q13.75 2.91016 15.5518 2.12891Q17.3535 1.34766 18.7305-0.0292969Q20.1074-1.40625 20.8887-3.20801Q21.6699-5.00977 21.6699-7.05078Q21.6699-9.0918 20.8887-10.8936Q20.1074-12.6953 18.7305-14.0723Q17.3535-15.4492 15.5469-16.2305Q13.7402-17.0117 11.6992-17.0117Q9.6582-17.0117 7.85645-16.2305Q6.05469-15.4492 4.68262-14.0723Q3.31055-12.6953 2.5293-10.8936Q1.74805-9.0918 1.74805-7.05078Q1.74805-5.00977 2.5293-3.20801Q3.31055-1.40625 4.6875-0.0292969Q6.06445 1.34766 7.86621 2.12891Q9.66797 2.91016 11.709 2.91016ZM11.709 1.25Q9.98047 1.25 8.47656 0.605469Q6.97266-0.0390625 5.83496-1.17676Q4.69727-2.31445 4.05762-3.81836Q3.41797-5.32227 3.41797-7.05078Q3.41797-8.7793 4.05762-10.2832Q4.69727-11.7871 5.83008-12.9297Q6.96289-14.0723 8.4668-14.7119Q9.9707-15.3516 11.6992-15.3516Q13.4277-15.3516 14.9365-14.7119Q16.4453-14.0723 17.583-12.9297Q18.7207-11.7871 19.3652-10.2832Q20.0098-8.7793 20.0098-7.05078Q20.0098-5.32227 19.3701-3.81836Q18.7305-2.31445 17.5879-1.17676Q16.4453-0.0390625 14.9414 0.605469Q13.4375 1.25 11.709 1.25ZM7.17773-7.05078Q7.17773-6.69922 7.41211-6.47461Q7.64648-6.25 8.01758-6.25L10.8887-6.25L10.8887-3.36914Q10.8887-2.99805 11.1133-2.76855Q11.3379-2.53906 11.6895-2.53906Q12.0605-2.53906 12.29-2.76855Q12.5195-2.99805 12.5195-3.36914L12.5195-6.25L15.4004-6.25Q15.7715-6.25 16.001-6.47461Q16.2305-6.69922 16.2305-7.05078Q16.2305-7.42188 16.001-7.65137Q15.7715-7.88086 15.4004-7.88086L12.5195-7.88086L12.5195-10.752Q12.5195-11.1328 12.29-11.3623Q12.0605-11.5918 11.6895-11.5918Q11.3379-11.5918 11.1133-11.3574Q10.8887-11.123 10.8887-10.752L10.8887-7.88086L8.01758-7.88086Q7.63672-7.88086 7.40723-7.65137Q7.17773-7.42188 7.17773-7.05078Z"/>
  </g>
  <g transform="matrix(1 0 0 1 305.646 1933)">
   <path d="M14.9707 5.66406Q17.0605 5.66406 18.96 5.01465Q20.8594 4.36523 22.4512 3.19336Q24.043 2.02148 25.2197 0.429688Q26.3965-1.16211 27.0459-3.06641Q27.6953-4.9707 27.6953-7.05078Q27.6953-9.14062 27.0459-11.04Q26.3965-12.9395 25.2197-14.5312Q24.043-16.123 22.4512-17.2998Q20.8594-18.4766 18.9551-19.126Q17.0508-19.7754 14.9609-19.7754Q12.8711-19.7754 10.9717-19.126Q9.07227-18.4766 7.48535-17.2998Q5.89844-16.123 4.72168-14.5312Q3.54492-12.9395 2.90039-11.04Q2.25586-9.14062 2.25586-7.05078Q2.25586-4.9707 2.90527-3.06641Q3.55469-1.16211 4.72656 0.429688Q5.89844 2.02148 7.49023 3.19336Q9.08203 4.36523 10.9814 5.01465Q12.8809 5.66406 14.9707 5.66406ZM14.9707 3.84766Q13.1641 3.84766 11.5283 3.2959Q9.89258 2.74414 8.53516 1.74805Q7.17773 0.751953 6.17676-0.610352Q5.17578-1.97266 4.62891-3.6084Q4.08203-5.24414 4.08203-7.05078Q4.08203-8.86719 4.62891-10.5029Q5.17578-12.1387 6.17188-13.501Q7.16797-14.8633 8.52539-15.8594Q9.88281-16.8555 11.5186-17.4023Q13.1543-17.9492 14.9609-17.9492Q16.7773-17.9492 18.4131-17.4023Q20.0488-16.8555 21.4111-15.8594Q22.7734-14.8633 23.7744-13.501Q24.7754-12.1387 25.3223-10.5029Q25.8691-8.86719 25.8691-7.05078Q25.8691-5.24414 25.3223-3.6084Q24.7754-1.97266 23.7793-0.610352Q22.7832 0.751953 21.4209 1.74805Q20.0586 2.74414 18.4229 3.2959Q16.7871 3.84766 14.9707 3.84766ZM9.19922-7.05078Q9.19922-6.66992 9.45801-6.4209Q9.7168-6.17188 10.1172-6.17188L14.0625-6.17188L14.0625-2.2168Q14.0625-1.81641 14.3115-1.55762Q14.5605-1.29883 14.9512-1.29883Q15.3516-1.29883 15.6104-1.55273Q15.8691-1.80664 15.8691-2.2168L15.8691-6.17188L19.8242-6.17188Q20.2246-6.17188 20.4785-6.4209Q20.7324-6.66992 20.7324-7.05078Q20.7324-7.46094 20.4785-7.71484Q20.2246-7.96875 19.8242-7.96875L15.8691-7.96875L15.8691-11.9141Q15.8691-12.3242 15.6104-12.583Q15.3516-12.8418 14.9512-12.8418Q14.5605-12.8418 14.3115-12.583Q14.0625-12.3242 14.0625-11.9141L14.0625-7.96875L10.1172-7.96875Q9.70703-7.96875 9.45312-7.71484Q9.19922-7.46094 9.19922-7.05078Z"/>
  </g>
  <text style="stroke:none;fill:black;font-family:sans-serif;font-size:13;font-weight:bold;" transform="matrix(1 0 0 1 263 1953)">Design Variations</text>
  <text style="stroke:none;fill:black;font-family:sans-serif;font-size:13;" transform="matrix(1 0 0 1 263 1971)">Symbols are supported in up to nine weights and three scales.</text>
  <text style="stroke:none;fill:black;font-family:sans-serif;font-size:13;" transform="matrix(1 0 0 1 263 1989)">For optimal layout with text and other symbols, vertically align</text>
  <text style="stroke:none;fill:black;font-family:sans-serif;font-size:13;" transform="matrix(1 0 0 1 263 2007)">symbols with the adjacent text.</text>
  <line style="fill:none;stroke:#00AEEF;stroke-width:0.5;opacity:1.0;" x1="776" x2="776" y1="1919" y2="1933"/>
  <g transform="matrix(1 0 0 1 776 1933)">
   <path d="M3.31055 0.15625Q3.70117 0.15625 3.91602-0.00976562Q4.13086-0.175781 4.26758-0.585938L5.52734-4.0332L11.2891-4.0332L12.5488-0.585938Q12.6855-0.175781 12.9004-0.00976562Q13.1152 0.15625 13.4961 0.15625Q13.8867 0.15625 14.1162-0.0585938Q14.3457-0.273438 14.3457-0.644531Q14.3457-0.869141 14.2383-1.17188L9.6582-13.3691Q9.48242-13.8184 9.17969-14.043Q8.87695-14.2676 8.4082-14.2676Q7.5-14.2676 7.17773-13.3789L2.59766-1.16211Q2.49023-0.859375 2.49023-0.634766Q2.49023-0.263672 2.70996-0.0537109Q2.92969 0.15625 3.31055 0.15625ZM6.00586-5.51758L8.37891-12.0898L8.42773-12.0898L10.8008-5.51758Z"/>
  </g>
  <line style="fill:none;stroke:#00AEEF;stroke-width:0.5;opacity:1.0;" x1="793.197" x2="793.197" y1="1919" y2="1933"/>
  <text style="stroke:none;fill:black;font-family:sans-serif;font-size:13;font-weight:bold;" transform="matrix(1 0 0 1 776 1953)">Margins</text>
  <text style="stroke:none;fill:black;font-family:sans-serif;font-size:13;" transform="matrix(1 0 0 1 776 1971)">Leading and trailing margins on the left and right side of each symbol</text>
  <text style="stroke:none;fill:black;font-family:sans-serif;font-size:13;" transform="matrix(1 0 0 1 776 1989)">can be adjusted by modifying the x-location of the margin guidelines.</text>
  <text style="stroke:none;fill:black;font-family:sans-serif;font-size:13;" transform="matrix(1 0 0 1 776 2007)">Modifications are automatically applied proportionally to all</text>
  <text style="stroke:none;fill:black;font-family:sans-serif;font-size:13;" transform="matrix(1 0 0 1 776 2025)">scales and weights.</text>
  <g transform="matrix(1 0 0 1 1289 1933)">
   <path d="M2.8418 1.86523L4.54102 3.57422Q5.18555 4.22852 5.90332 4.17969Q6.62109 4.13086 7.31445 3.35938L18.0078-8.42773L17.041-9.4043L6.42578 2.27539Q6.16211 2.57812 5.89355 2.61719Q5.625 2.65625 5.27344 2.30469L4.10156 1.14258Q3.75 0.791016 3.79395 0.522461Q3.83789 0.253906 4.14062-0.0195312L15.6152-10.8203L14.6387-11.7871L3.04688-0.898438Q2.30469-0.214844 2.25098 0.498047Q2.19727 1.21094 2.8418 1.86523ZM9.25781-16.3281Q8.94531-16.0254 8.90625-15.6348Q8.86719-15.2441 9.04297-14.9512Q9.21875-14.6777 9.55566-14.541Q9.89258-14.4043 10.3809-14.5215Q11.4746-14.7754 12.5977-14.7314Q13.7207-14.6875 14.7949-13.9844L14.209-12.5293Q13.9551-11.9043 14.0674-11.4404Q14.1797-10.9766 14.5801-10.5664L16.875-8.25195Q17.2363-7.88086 17.5781-7.82227Q17.9199-7.76367 18.3398-7.8418L19.4043-8.03711L20.0684-7.36328L20.0293-6.80664Q20-6.43555 20.1221-6.12305Q20.2441-5.81055 20.6055-5.44922L21.3672-4.70703Q21.7285-4.3457 22.1533-4.33105Q22.5781-4.31641 22.9297-4.66797L25.8398-7.58789Q26.1914-7.93945 26.1816-8.35449Q26.1719-8.76953 25.8105-9.13086L25.0391-9.89258Q24.6875-10.2539 24.3799-10.3857Q24.0723-10.5176 23.7109-10.4883L23.1348-10.4395L22.4902-11.0742L22.7344-12.1973Q22.832-12.6172 22.6953-12.9834Q22.5586-13.3496 22.1191-13.7891L19.9219-15.9766Q18.6719-17.2168 17.2607-17.8369Q15.8496-18.457 14.4189-18.4814Q12.9883-18.5059 11.665-17.959Q10.3418-17.4121 9.25781-16.3281ZM10.752-15.957Q11.6602-16.6211 12.7002-16.9043Q13.7402-17.1875 14.8047-17.085Q15.8691-16.9824 16.8701-16.5137Q17.8711-16.0449 18.7012-15.2051L21.1328-12.793Q21.3086-12.6172 21.3525-12.4512Q21.3965-12.2852 21.3379-12.0312L21.0156-10.5469L22.5195-9.0625L23.5059-9.12109Q23.6914-9.13086 23.7891-9.09668Q23.8867-9.0625 24.0332-8.91602L24.6094-8.33984L22.168-5.89844L21.5918-6.47461Q21.4453-6.62109 21.4062-6.71875Q21.3672-6.81641 21.377-7.01172L21.4453-7.98828L19.9512-9.47266L18.4277-9.21875Q18.1836-9.16992 18.042-9.2041Q17.9004-9.23828 17.7148-9.41406L15.7129-11.416Q15.5176-11.5918 15.4932-11.7529Q15.4688-11.9141 15.5859-12.1875L16.4648-14.2773Q15.293-15.3711 13.8281-15.791Q12.3633-16.2109 10.8398-15.7617Q10.7227-15.7324 10.6885-15.8057Q10.6543-15.8789 10.752-15.957Z"/>
  </g>
  <text style="stroke:none;fill:black;font-family:sans-serif;font-size:13;font-weight:bold;" transform="matrix(1 0 0 1 1289 1953)">Exporting</text>
  <text style="stroke:none;fill:black;font-family:sans-serif;font-size:13;" transform="matrix(1 0 0 1 1289 1971)">Symbols should be outlined when exporting to ensure the</text>
  <text style="stroke:none;fill:black;font-family:sans-serif;font-size:13;" transform="matrix(1 0 0 1 1289 1989)">design is preserved when submitting to Xcode.</text>
  <text id="template-version" style="stroke:none;fill:black;font-family:sans-serif;font-size:13;text-anchor:end;" transform="matrix(1 0 0 1 3036 1933)">Template v.2.0</text>
  <text style="stroke:none;fill:black;font-family:sans-serif;font-size:13;text-anchor:end;" transform="matrix(1 0 0 1 3036 1951)">Requires Xcode 12 or greater</text>
  <text id="descriptive-name" style="stroke:none;fill:black;font-family:sans-serif;font-size:13;text-anchor:end;" transform="matrix(1 0 0 1 3036 1969)">Generated from figure.jumprope</text>
  <text style="stroke:none;fill:black;font-family:sans-serif;font-size:13;text-anchor:end;" transform="matrix(1 0 0 1 3036 1987)">Typeset at 100 points</text>
  <text style="stroke:none;fill:black;font-family:sans-serif;font-size:13;" transform="matrix(1 0 0 1 263 726)">Small</text>
  <text style="stroke:none;fill:black;font-family:sans-serif;font-size:13;" transform="matrix(1 0 0 1 263 1156)">Medium</text>
  <text style="stroke:none;fill:black;font-family:sans-serif;font-size:13;" transform="matrix(1 0 0 1 263 1586)">Large</text>
 </g>
 <g id="Guides">
  <g id="H-reference" style="fill:#27AAE1;stroke:none;" transform="matrix(1 0 0 1 339 696)">
   <path d="M0.993347 0L3.6377 0L29.3282-67.1326L30.0301-67.1326L30.0301-70.459L28.1227-70.459ZM11.6882-24.4797L46.9818-24.4797L46.2311-26.7288L12.4382-26.7288ZM55.1193 0L57.7637 0L30.6381-70.459L29.4327-70.459L29.4327-67.1326Z"/>
  </g>
  <line id="Baseline-S" style="fill:none;stroke:#27AAE1;opacity:1;stroke-width:0.5;" x1="263" x2="3036" y1="696" y2="696"/>
  <line id="Capline-S" style="fill:none;stroke:#27AAE1;opacity:1;stroke-width:0.5;" x1="263" x2="3036" y1="625.541" y2="625.541"/>
  <g id="H-reference" style="fill:#27AAE1;stroke:none;" transform="matrix(1 0 0 1 339 1126)">
   <path d="M0.993347 0L3.6377 0L29.3282-67.1326L30.0301-67.1326L30.0301-70.459L28.1227-70.459ZM11.6882-24.4797L46.9818-24.4797L46.2311-26.7288L12.4382-26.7288ZM55.1193 0L57.7637 0L30.6381-70.459L29.4327-70.459L29.4327-67.1326Z"/>
  </g>
  <line id="Baseline-M" style="fill:none;stroke:#27AAE1;opacity:1;stroke-width:0.5;" x1="263" x2="3036" y1="1126" y2="1126"/>
  <line id="Capline-M" style="fill:none;stroke:#27AAE1;opacity:1;stroke-width:0.5;" x1="263" x2="3036" y1="1055.54" y2="1055.54"/>
  <g id="H-reference" style="fill:#27AAE1;stroke:none;" transform="matrix(1 0 0 1 339 1556)">
   <path d="M0.993347 0L3.6377 0L29.3282-67.1326L30.0301-67.1326L30.0301-70.459L28.1227-70.459ZM11.6882-24.4797L46.9818-24.4797L46.2311-26.7288L12.4382-26.7288ZM55.1193 0L57.7637 0L30.6381-70.459L29.4327-70.459L29.4327-67.1326Z"/>
  </g>
  <line id="Baseline-L" style="fill:none;stroke:#27AAE1;opacity:1;stroke-width:0.5;" x1="263" x2="3036" y1="1556" y2="1556"/>
  <line id="Capline-L" style="fill:none;stroke:#27AAE1;opacity:1;stroke-width:0.5;" x1="263" x2="3036" y1="1485.54" y2="1485.54"/>
  <line id="left-margin" style="fill:none;stroke:#00AEEF;stroke-width:0.5;opacity:1.0;" x1="1404.54" x2="1404.54" y1="1030.79" y2="1150.12"/>
  <line id="right-margin" style="fill:none;stroke:#00AEEF;stroke-width:0.5;opacity:1.0;" x1="1495.15" x2="1495.15" y1="1030.79" y2="1150.12"/>
 </g>
 <g id="Symbols">
  <g id="Black-L" transform="matrix(1 0 0 1 2871.65 1556)">
   <path d="M61.7539-74.9275Q68.1354-74.9275 72.6487-79.4694Q77.162-84.0113 77.162-90.3564Q77.162-96.7599 72.6487-101.273Q68.1354-105.785 61.7539-105.785Q55.388-105.785 50.856-101.273Q46.3239-96.7599 46.3239-90.3564Q46.3239-84.0113 50.856-79.4694Q55.388-74.9275 61.7539-74.9275ZM52.1684 56.8885Q55.2419 56.8885 57.498 54.5928Q59.7541 52.2971 59.7541 49.2832L59.7541 14.7446L61.7539-1.5055L63.7538 14.7446L63.7538 49.2832Q63.7538 52.2971 66.0099 54.5928Q68.266 56.8885 71.3395 56.8885Q74.4338 56.8885 76.6497 54.5928Q78.8656 52.2971 78.8656 49.2832L78.8656-38.592Q78.8656-39.3289 79.3398-39.351Q79.8139-39.373 80.0552-38.9489Q83.1137-33.3572 85.6145-27.4765Q88.1154-21.5957 89.9627-16.6064Q91.81-11.6172 92.7726-8.74883Q93.7728-5.81417 96.5869-4.42666Q99.4009-3.03915 102.277-4.03819Q104.651-4.83594 106.038-6.79239Q107.425-8.74883 107.425-11.0854Q107.425-12.3245 106.988-13.5011Q106.848-14.0772 105.475-17.8666Q104.103-21.6559 101.766-27.4808Q99.43-33.3056 96.3016-39.9242Q93.1732-46.5429 89.4429-52.8794Q85.7126-59.216 81.5224-63.9096Q76.6184-69.6321 68.8345-69.6321L54.6942-69.6321Q46.8896-69.6321 41.9844-63.9096Q37.8525-59.216 34.1034-52.8794Q30.3543-46.5429 27.2155-39.9242Q24.0767-33.3056 21.741-27.4808Q19.4052-21.6559 18.0326-17.8374Q16.6601-14.0188 16.5213-13.5011Q16.084-12.3245 16.084-11.0842Q16.084-8.74883 17.4995-6.79239Q18.915-4.83594 21.2516-4.03819Q24.1278-3.03915 26.9418-4.42666Q29.7559-5.81417 30.7353-8.74883Q31.7576-11.6172 33.586-16.6064Q35.4145-21.5957 37.9038-27.4473Q40.393-33.2988 43.3931-38.7736Q43.7512-39.373 44.1961-39.2926Q44.6411-39.2121 44.6411-38.4752L44.6411 49.2832Q44.6411 52.2971 46.8868 54.5928Q49.1325 56.8885 52.1684 56.8885ZM61.7539-115.822Q72.4495-115.822 80.0988-109.522Q87.7481-103.222 91.8812-91.5589Q96.0142-79.8954 96.0142-63.7654L96.0142-11.0646L107.425-11.0646L107.425-63.7654Q107.425-83.4218 101.908-97.645Q96.3917-111.868 86.182-119.55Q75.9723-127.232 61.7539-127.232Q47.6148-127.232 37.3759-119.55Q27.137-111.868 21.6209-97.645Q16.1048-83.4218 16.1048-63.7654L16.1048-11.0634L27.5158-11.0634L27.5158-63.7654Q27.5158-79.8954 31.6482-91.5589Q35.7806-103.222 43.4591-109.522Q51.1376-115.822 61.7539-115.822Z"/>
  </g>
  <g id="Heavy-L" transform="matrix(1 0 0 1 2575.79 1556)">
   <path d="M60.8996-74.7786Q67.0754-74.7786 71.456-79.1787Q75.8367-83.5789 75.8367-89.7459Q75.8367-95.9575 71.456-100.335Q67.0754-104.713 60.8996-104.713Q54.7024-104.713 50.3145-100.335Q45.9267-95.9575 45.9267-89.7459Q45.9267-83.5789 50.3145-79.1787Q54.7024-74.7786 60.8996-74.7786ZM51.4453 55.1913Q54.3678 55.1913 56.5185 53.0031Q58.6693 50.8149 58.6693 47.9428L58.6693 13.829L60.8996-4.3287L63.1299 13.829L63.1299 47.9428Q63.1299 50.8149 65.2807 53.0031Q67.4314 55.1913 70.3539 55.1913Q73.3065 55.1913 75.4171 53.0031Q77.5277 50.8149 77.5277 47.9428L77.5277-39.7769Q77.5277-40.4681 78.0181-40.5039Q78.5085-40.5397 78.7497-40.1018Q81.9929-34.1639 84.5632-28.1785Q87.1335-22.193 88.972-17.2255Q90.8104-12.258 91.7642-9.42116Q92.7324-6.62384 95.4092-5.30277Q98.0859-3.9817 100.839-4.94434Q103.084-5.69133 104.403-7.55625Q105.721-9.42116 105.721-11.6524Q105.721-12.8507 105.316-13.9584Q105.185-14.4888 103.84-18.2191Q102.494-21.9494 100.19-27.6929Q97.8851-33.4363 94.7997-39.9689Q91.7143-46.5015 88.0315-52.7498Q84.3486-58.9981 80.2218-63.6376Q75.4452-69.1914 67.8991-69.1914L53.9303-69.1914Q46.354-69.1914 41.5718-63.6376Q37.4895-58.9981 33.7995-52.7498Q30.1094-46.5015 27.009-39.9689Q23.9085-33.4363 21.6067-27.6929Q19.3048-21.9494 17.9596-18.1968Q16.6143-14.4441 16.4893-13.9584Q16.084-12.8507 16.084-11.6468Q16.084-9.42116 17.4218-7.55625Q18.7595-5.69133 20.9907-4.94434Q23.7434-3.9817 26.4202-5.30277Q29.0969-6.62384 30.035-9.42116Q31.0391-12.258 32.8703-17.2255Q34.7015-22.193 37.2511-28.1562Q39.8007-34.1193 42.9993-39.9679Q43.3298-40.5397 43.7979-40.4592Q44.266-40.3788 44.266-39.6877L44.266 47.9428Q44.266 50.8149 46.4016 53.0031Q48.5373 55.1913 51.4453 55.1913ZM60.8996-115.286Q71.7423-115.286 79.4534-108.899Q87.1646-102.513 91.2995-90.6242Q95.4344-78.7352 95.4344-62.193L95.4344-11.6222L105.721-11.6222L105.721-62.193Q105.721-81.9472 100.343-96.1365Q94.9659-110.326 84.9517-117.946Q74.9376-125.567 60.8996-125.567Q46.9365-125.567 36.9-117.946Q26.8635-110.326 21.4888-96.1365Q16.1141-81.9472 16.1141-62.193L16.1141-11.6166L26.4005-11.6166L26.4005-62.193Q26.4005-78.7352 30.5327-90.6242Q34.6649-102.513 42.3982-108.899Q50.1316-115.286 60.8996-115.286Z"/>
  </g>
  <g id="Bold-L" transform="matrix(1 0 0 1 2280.17 1556)">
   <path d="M59.8019-74.5718Q65.7316-74.5718 69.9546-78.8027Q74.1776-83.0336 74.1776-88.9853Q74.1776-94.9662 69.9546-99.1825Q65.7316-103.399 59.8019-103.399Q53.8123-103.399 49.5938-99.1825Q45.3753-94.9662 45.3753-88.9853Q45.3753-83.0336 49.5938-78.8027Q53.8123-74.5718 59.8019-74.5718ZM50.524 52.9742Q53.2695 52.9742 55.2971 50.913Q57.3247 48.8518 57.3247 46.1489L57.3247 12.6174L59.8019-7.59393L62.2793 12.6174L62.2793 46.1489Q62.2793 48.8518 64.3069 50.913Q66.3346 52.9742 69.08 52.9742Q71.8634 52.9742 73.8508 50.913Q75.8383 48.8518 75.8383 46.1489L75.8383-41.1105Q75.8383-41.7477 76.3442-41.7989Q76.8501-41.8501 77.0913-41.3968Q80.5276-35.0958 83.1676-29.0133Q85.8076-22.9308 87.6308-18.0051Q89.454-13.0793 90.3926-10.2883Q91.3223-7.65269 93.8374-6.40863Q96.3526-5.16456 98.9592-6.08113Q101.058-6.774 102.296-8.53117Q103.533-10.2883 103.533-12.3964Q103.533-13.5411 103.166-14.5717Q103.043-15.0481 101.733-18.7017Q100.422-22.3553 98.1598-27.9877Q95.8973-33.62 92.8694-40.0376Q89.8415-46.4553 86.2237-52.5847Q82.606-58.7142 78.5637-63.2772Q73.9482-68.6234 66.6867-68.6234L52.9554-68.6234Q45.6559-68.6234 41.0273-63.2772Q37.0139-58.7142 33.4006-52.5847Q29.7873-46.4553 26.7405-40.0376Q23.6936-33.62 21.4377-27.9877Q19.1818-22.3553 17.8711-18.6871Q16.5604-15.0189 16.4507-14.5717Q16.084-13.5411 16.084-12.3833Q16.084-10.2883 17.3294-8.53117Q18.5749-6.774 20.6829-6.08113Q23.2894-5.16456 25.8045-6.40863Q28.3196-7.65269 29.2114-10.2883Q30.1925-13.0793 32.0201-18.0051Q33.8476-22.9308 36.4554-28.9987Q39.0631-35.0666 42.4704-41.3092Q42.7701-41.8501 43.2614-41.7697Q43.7527-41.6893 43.7527-41.0521L43.7527 46.1489Q43.7527 48.8518 45.7613 50.913Q47.7698 52.9742 50.524 52.9742ZM59.8019-114.528Q70.8068-114.528 78.591-108.068Q86.3752-101.607 90.5177-89.5049Q94.6602-77.4026 94.6602-60.45L94.6602-12.3585L103.533-12.3585L103.533-60.45Q103.533-80.2228 98.3249-94.299Q93.1167-108.375 83.352-115.882Q73.5874-123.388 59.8019-123.388Q46.084-123.388 36.3047-115.882Q26.5254-108.375 21.3237-94.299Q16.1219-80.2228 16.1219-60.45L16.1219-12.3452L24.9951-12.3452L24.9951-60.45Q24.9951-77.4026 29.131-89.5049Q33.2669-101.607 41.0656-108.068Q48.8644-114.528 59.8019-114.528Z"/>
  </g>
  <g id="Semibold-L" transform="matrix(1 0 0 1 1984.21 1556)">
   <path d="M59.0452-74.4292Q64.8052-74.4292 68.9195-78.5435Q73.0338-82.6577 73.0338-88.461Q73.0338-94.2828 68.9195-98.3878Q64.8052-102.493 59.0452-102.493Q53.1987-102.493 49.0969-98.3878Q44.9951-94.2828 44.9951-88.461Q44.9951-82.6577 49.0969-78.5435Q53.1987-74.4292 59.0452-74.4292ZM49.8889 51.4457Q52.5123 51.4457 54.4551 49.4721Q56.3978 47.4985 56.3978 44.9122L56.3978 11.7821L59.0452-9.84496L61.6929 11.7821L61.6929 44.9122Q61.6929 47.4985 63.6357 49.4721Q65.5784 51.4457 68.2019 51.4457Q70.8686 51.4457 72.7711 49.4721Q74.6736 47.4985 74.6736 44.9122L74.6736-42.0298Q74.6736-42.6298 75.1902-42.6917Q75.7068-42.7535 75.948-42.2896Q79.5175-35.7383 82.2055-29.5888Q84.8936-23.4394 86.7063-18.5425Q88.519-13.6455 89.4471-10.8862Q90.3502-8.36198 92.7539-7.171Q95.1576-5.98001 97.6635-6.86483Q99.6617-7.52038 100.843-9.20327Q102.025-10.8862 102.025-12.9093Q102.025-14.0171 101.685-14.9945Q101.567-15.4337 100.28-19.0344Q98.9937-22.6352 96.7603-28.1909Q94.527-33.7467 91.5386-40.085Q88.5503-46.4234 84.9775-52.4709Q81.4047-58.5185 77.4205-63.0287Q72.9161-68.2319 65.8509-68.2319L52.2833-68.2319Q45.1746-68.2319 40.6519-63.0287Q36.686-58.5185 33.1256-52.4709Q29.5653-46.4234 26.5554-40.085Q23.5454-33.7467 21.3213-28.1909Q19.0971-22.6352 17.8101-19.0252Q16.5232-15.4152 16.4242-14.9945Q16.084-14.0171 16.084-12.891Q16.084-10.8862 17.2658-9.20327Q18.4476-7.52038 20.4707-6.86483Q22.9763-5.98001 25.38-7.171Q27.7837-8.36198 28.6436-10.8862Q29.6089-13.6455 31.434-18.5425Q33.259-23.4394 35.9068-29.5796Q38.5546-35.7197 42.1058-42.2339Q42.3842-42.7535 42.8915-42.6731Q43.3988-42.5927 43.3988-41.9927L43.3988 44.9122Q43.3988 47.4985 45.3198 49.4721Q47.2407 51.4457 49.8889 51.4457ZM59.0452-114.006Q70.1618-114.006 77.9964-107.494Q85.8311-100.983 89.9787-88.7333Q94.1264-76.4839 94.1264-59.2484L94.1264-12.8661L102.025-12.8661L102.025-59.2484Q102.025-79.034 96.9335-93.0322Q91.8419-107.03 82.2492-114.458Q72.6566-121.886 59.0452-121.886Q45.4962-121.886 35.8943-114.458Q26.2924-107.03 21.2098-93.0322Q16.1272-79.034 16.1272-59.2484L16.1272-12.8474L24.0262-12.8474L24.0262-59.2484Q24.0262-76.4839 28.1647-88.7333Q32.3032-100.983 40.1469-107.494Q47.9907-114.006 59.0452-114.006Z"/>
  </g>
  <g id="Medium-L" transform="matrix(1 0 0 1 1688.07 1556)">
   <path d="M58.4714-74.3211Q64.1028-74.3211 68.1346-78.3469Q72.1665-82.3727 72.1665-88.0634Q72.1665-93.7646 68.1346-97.7852Q64.1028-101.806 58.4714-101.806Q52.7334-101.806 48.7202-97.7852Q44.7069-93.7646 44.7069-88.0634Q44.7069-82.3727 48.7202-78.3469Q52.7334-74.3211 58.4714-74.3211ZM49.4073 50.2868Q51.9382 50.2868 53.8166 48.3795Q55.6949 46.4723 55.6949 43.9745L55.6949 11.1488L58.4714-11.5518L61.2483 11.1488L61.2483 43.9745Q61.2483 46.4723 63.1267 48.3795Q65.005 50.2868 67.536 50.2868Q70.1142 50.2868 71.9523 48.3795Q73.7905 46.4723 73.7905 43.9745L73.7905-42.7269Q73.7905-43.2987 74.3152-43.3686Q74.8399-43.4385 75.0812-42.9665Q78.7516-36.2254 81.476-30.0252Q84.2005-23.8251 86.0052-18.95Q87.81-14.0748 88.7301-11.3395Q89.6131-8.89979 91.9323-7.74906Q94.2516-6.59833 96.6811-7.45906Q98.6027-8.08632 99.7421-9.71288Q100.882-11.3395 100.882-13.2982Q100.882-14.3779 100.561-15.3151Q100.448-15.7261 99.1792-19.2867Q97.9105-22.8473 95.6992-28.345Q93.4879-33.8427 90.5296-40.1209Q87.5713-46.3992 84.0326-52.3846Q80.4938-58.3701 76.5537-62.8403Q72.1336-67.935 65.2172-67.935L51.7737-67.935Q44.8096-67.935 40.3673-62.8403Q36.4373-58.3701 32.9171-52.3846Q29.3969-46.3992 26.415-40.1209Q23.4331-33.8427 21.2329-28.345Q19.0328-22.8473 17.7639-19.2815Q16.495-15.7156 16.404-15.3151Q16.084-14.3779 16.084-13.2759Q16.084-11.3395 17.2175-9.71288Q18.3511-8.08632 20.3098-7.45906Q22.739-6.59833 25.0582-7.74906Q27.3774-8.89979 28.2131-11.3395Q29.1664-14.0748 30.9895-18.95Q32.8127-23.8251 35.4908-30.02Q38.169-36.2149 41.8293-42.935Q42.0916-43.4385 42.6111-43.3581Q43.1305-43.2777 43.1305-42.7059L43.1305 43.9745Q43.1305 46.4723 44.985 48.3795Q46.8395 50.2868 49.4073 50.2868ZM58.4714-113.609Q69.6727-113.609 77.5456-107.059Q85.4185-100.509 89.5701-88.1483Q93.7217-75.7873 93.7217-58.3373L93.7217-13.2509L100.882-13.2509L100.882-58.3373Q100.882-78.1326 95.8784-92.0717Q90.8753-106.011 81.413-113.379Q71.9508-120.747 58.4714-120.747Q45.0506-120.747 35.5831-113.379Q26.1156-106.011 21.1234-92.0717Q16.1312-78.1326 16.1312-58.3373L16.1312-13.2283L23.2915-13.2283L23.2915-58.3373Q23.2915-75.7873 27.4319-88.1483Q31.5724-100.509 39.4503-107.059Q47.3283-113.609 58.4714-113.609Z"/>
  </g>
  <g id="Regular-L" transform="matrix(1 0 0 1 1392.11 1556)">
   <path d="M57.723-74.1801Q63.1866-74.1801 67.1109-78.0905Q71.0352-82.0009 71.0352-87.5448Q71.0352-93.0888 67.1109-96.9992Q63.1866-100.91 57.723-100.91Q52.1266-100.91 48.2287-96.9992Q44.3309-93.0888 44.3309-87.5448Q44.3309-82.0009 48.2287-78.0905Q52.1266-74.1801 57.723-74.1801ZM48.7791 48.7751Q51.1894 48.7751 52.9838 46.9545Q54.7781 45.1338 54.7781 42.7514L54.7781 10.3227L57.723-13.7781L60.6684 10.3227L60.6684 42.7514Q60.6684 45.1338 62.4628 46.9545Q64.2571 48.7751 66.6674 48.7751Q69.1303 48.7751 70.8844 46.9545Q72.6386 45.1338 72.6386 42.7514L72.6386-43.6361Q72.6386-44.1712 73.1739-44.2516Q73.7092-44.332 73.9504-43.8495Q77.7525-36.8608 80.5245-30.5944Q83.2965-24.3281 85.0908-19.4815Q86.8852-14.6348 87.7949-11.9307Q88.6517-9.60128 90.8607-8.50305Q93.0697-7.40482 95.3996-8.23414Q97.2214-8.8245 98.3057-10.3776Q99.39-11.9307 99.39-13.8055Q99.39-14.8487 99.0962-15.7333Q98.9879-16.1075 97.7428-19.6158Q96.4976-23.1241 94.3151-28.546Q92.1326-33.968 89.2135-40.1678Q86.2944-46.3677 82.8-52.2721Q79.3056-58.1765 75.4231-62.5946Q71.1129-67.5477 64.3906-67.5477L51.109-67.5477Q44.3336-67.5477 39.996-62.5946Q36.113-58.1765 32.6452-52.2721Q29.1773-46.3677 26.2319-40.1678Q23.2866-33.968 21.1177-28.546Q18.9489-23.1241 17.7036-19.6158Q16.4582-16.1075 16.3778-15.7333Q16.084-14.8487 16.084-13.7781Q16.084-11.9307 17.1546-10.3776Q18.2252-8.8245 20.0999-8.23414Q22.4294-7.40482 24.6384-8.50305Q26.8474-9.60128 27.6516-11.9307Q28.5892-14.6348 30.4099-19.4815Q32.2305-24.3281 34.9483-30.5944Q37.6661-36.8608 41.4687-43.8495Q41.71-44.332 42.2452-44.2516Q42.7805-44.1712 42.7805-43.6361L42.7805 42.7514Q42.7805 45.1338 44.5484 46.9545Q46.3163 48.7751 48.7791 48.7751ZM57.723-113.093Q69.0348-113.093 76.9576-106.492Q84.8803-99.8915 89.037-87.3851Q93.1937-74.8788 93.1937-57.149L93.1937-13.7529L99.39-13.7529L99.39-57.149Q99.39-76.9568 94.5022-90.8189Q89.6144-104.681 80.3223-111.971Q71.0302-119.262 57.723-119.262Q44.4694-119.262 35.1772-111.971Q25.8851-104.681 21.0108-90.8189Q16.1365-76.9568 16.1365-57.149L16.1365-13.7251L22.3332-13.7251L22.3332-57.149Q22.3332-74.8788 26.4762-87.3851Q30.6192-99.8915 38.5417-106.492Q46.4643-113.093 57.723-113.093Z"/>
  </g>
  <g id="Light-L" transform="matrix(1 0 0 1 1096.4 1556)">
   <path d="M56.7114-73.8938Q62.0604-73.8938 65.9181-77.7278Q69.7757-81.5619 69.7757-86.9914Q69.7757-92.4208 65.9181-96.2549Q62.0604-100.089 56.7114-100.089Q51.2486-100.089 47.408-96.2549Q43.5674-92.4208 43.5674-86.9914Q43.5674-81.5619 47.408-77.7278Q51.2486-73.8938 56.7114-73.8938ZM47.9775 46.5039Q50.3307 46.5039 52.0869 44.731Q53.8431 42.9582 53.8431 40.6521L53.8431 8.98682L56.7114-14.5416L59.5804 8.98682L59.5804 40.6521Q59.5804 42.9582 61.3366 44.731Q63.0928 46.5039 65.4461 46.5039Q67.8326 46.5039 69.5486 44.731Q71.2646 42.9582 71.2646 40.6521L71.2646-43.6935Q71.2646-44.2093 71.7808-44.2898Q72.297-44.3702 72.5383-43.8877Q76.2448-37.0708 78.9595-30.9476Q81.6743-24.8245 83.4305-20.1018Q85.1867-15.3791 86.0583-12.7513Q86.8958-10.4792 89.0476-9.40009Q91.1993-8.32093 93.4722-9.1121Q95.2747-9.72137 96.3303-11.2363Q97.3859-12.7513 97.3859-14.5879Q97.3859-15.574 97.1113-16.4586Q96.9838-16.8136 95.7674-20.2456Q94.5509-23.6776 92.4162-28.9563Q90.2814-34.2351 87.429-40.3014Q84.5766-46.3677 81.1682-52.1289Q77.7598-57.8902 73.9728-62.1938Q69.796-67.0132 63.2073-67.0132L50.2503-67.0132Q43.6276-67.0132 39.4044-62.1938Q35.6166-57.8902 32.2253-52.1289Q28.8339-46.3677 25.9648-40.3014Q23.0958-34.2351 20.9842-28.9563Q18.8726-23.6776 17.6558-20.2456Q16.439-16.8136 16.3585-16.4586Q16.084-15.574 16.084-14.5416Q16.084-12.7513 17.1164-11.2363Q18.1488-9.72137 19.9855-9.1121Q22.2575-8.32093 24.4093-9.40009Q26.5611-10.4792 27.3653-12.7513Q28.284-15.3791 30.0568-20.1018Q31.8297-24.8245 34.4806-30.9476Q37.1316-37.0708 40.8389-43.8877Q41.0802-44.3702 41.5964-44.2898Q42.1126-44.2093 42.1126-43.6935L42.1126 40.6521Q42.1126 42.9582 43.8518 44.731Q45.5909 46.5039 47.9775 46.5039ZM56.7114-111.967Q68.0042-111.967 75.9557-105.528Q83.9071-99.0899 88.102-86.8602Q92.2969-74.6306 92.2969-57.2634L92.2969-14.5546L97.3859-14.5546L97.3859-57.2634Q97.3859-76.4223 92.5937-89.75Q87.8014-103.078 78.7288-110.044Q69.6562-117.01 56.7114-117.01Q43.8014-117.01 34.7288-110.044Q25.6562-103.078 20.8867-89.75Q16.1173-76.4223 16.1173-57.2634L16.1173-14.5075L21.2071-14.5075L21.2071-57.2634Q21.2071-74.6306 25.3788-86.8602Q29.5505-99.0899 37.5015-105.528Q45.4526-111.967 56.7114-111.967Z"/>
  </g>
  <g id="Thin-L" transform="matrix(1 0 0 1 801.012 1556)">
   <path d="M55.3734-73.515Q60.571-73.515 64.3404-77.2482Q68.1099-80.9813 68.1099-86.2594Q68.1099-91.5375 64.3404-95.2706Q60.571-99.0038 55.3734-99.0038Q50.0875-99.0038 46.3225-95.2706Q42.5576-91.5375 42.5576-86.2594Q42.5576-80.9813 46.3225-77.2482Q50.0875-73.515 55.3734-73.515ZM46.9172 43.5001Q49.195 43.5001 50.9007 41.7904Q52.6065 40.0807 52.6065 37.8755L52.6065 7.22005L55.3734-15.5513L58.1415 7.22005L58.1415 37.8755Q58.1415 40.0807 59.8472 41.7904Q61.553 43.5001 63.8307 43.5001Q66.1163 43.5001 67.7818 41.7904Q69.4473 40.0807 69.4473 37.8755L69.4473-43.7694Q69.4473-44.2598 69.9383-44.3402Q70.4293-44.4207 70.6706-43.9381Q74.2507-37.3486 76.8898-31.4148Q79.5288-25.481 81.2345-20.9222Q82.9403-16.3634 83.7614-13.8365Q84.5734-11.6404 86.6495-10.5865Q88.7256-9.53257 90.9229-10.2733Q92.7-10.9076 93.7177-12.372Q94.7353-13.8365 94.7353-15.6227Q94.7353-16.5333 94.4862-17.4179Q94.3332-17.7474 93.1547-21.0785Q91.9762-24.4095 89.9047-29.4989Q87.8331-34.5883 85.069-40.478Q82.3048-46.3677 79.01-51.9396Q75.7152-57.5115 72.0546-61.6636Q68.0542-66.3062 61.6424-66.3062L49.1146-66.3062Q42.6937-66.3062 38.622-61.6636Q34.9602-57.5115 31.6699-51.9396Q28.3797-46.3677 25.6116-40.478Q22.8434-34.5883 20.8076-29.4989Q18.7717-24.4095 17.5926-21.0785Q16.4135-17.7474 16.3331-17.4179Q16.084-16.5333 16.084-15.5513Q16.084-13.8365 17.0659-12.372Q18.0479-10.9076 19.8341-10.2733Q22.0302-9.53257 24.1063-10.5865Q26.1823-11.6404 26.9865-13.8365Q27.8802-16.3634 29.5899-20.9222Q31.2996-25.481 33.8621-31.4148Q36.4246-37.3486 40.006-43.9381Q40.2473-44.4207 40.7382-44.3402Q41.2292-44.2598 41.2292-43.7694L41.2292 37.8755Q41.2292 40.0807 42.9304 41.7904Q44.6316 43.5001 46.9172 43.5001ZM55.3734-110.477Q66.6412-110.477 74.6306-104.253Q82.62-98.0297 86.8653-86.166Q91.1107-74.3023 91.1107-57.4148L91.1107-15.6148L94.7353-15.6148L94.7353-57.4148Q94.7353-75.7153 90.0695-88.3363Q85.4036-100.957 76.6213-107.494Q67.8389-114.032 55.3734-114.032Q42.918-114.032 34.1357-107.494Q25.3534-100.957 20.7226-88.3363Q16.0918-75.7153 16.0918-57.4148L16.0918-15.5423L19.7177-15.5423L19.7177-57.4148Q19.7177-74.3023 23.9273-86.166Q28.137-98.0297 36.1258-104.253Q44.1146-110.477 55.3734-110.477Z"/>
  </g>
  <g id="Ultralight-L" transform="matrix(1 0 0 1 504.98 1556)">
   <path d="M54.688-73.3211Q59.8081-73.3211 63.5324-77.0025Q67.2566-80.684 67.2566-85.8845Q67.2566-91.085 63.5324-94.7664Q59.8081-98.4479 54.688-98.4479Q49.4927-98.4479 45.7666-94.7664Q42.0404-91.085 42.0404-85.8845Q42.0404-80.684 45.7666-77.0025Q49.4927-73.3211 54.688-73.3211ZM46.3742 41.9615Q48.6133 41.9615 50.2932 40.2842Q51.973 38.6069 51.973 36.4534L51.973 6.31512L54.688-16.0685L57.4045 6.31512L57.4045 36.4534Q57.4045 38.6069 59.0843 40.2842Q60.7642 41.9615 63.0033 41.9615Q65.2372 41.9615 66.8769 40.2842Q68.5166 38.6069 68.5166 36.4534L68.5166-43.8083Q68.5166-44.2857 68.9946-44.3661Q69.4727-44.4465 69.7139-43.964Q73.2294-37.4909 75.8296-31.6541Q78.4299-25.8172 80.1098-21.3424Q81.7897-16.8675 82.5849-14.3924Q83.384-12.2351 85.4213-11.1942Q87.4586-10.1532 89.6172-10.868Q91.3813-11.5151 92.3795-12.9537Q93.3777-14.3924 93.3777-16.1527Q93.3777-17.0246 93.1416-17.9092Q92.9756-18.2257 91.8166-21.5051Q90.6575-24.7845 88.6183-29.7769Q86.5791-34.7693 83.8601-40.5685Q81.1411-46.3677 77.9046-51.8426Q74.668-57.3175 71.0721-61.3921Q67.1621-65.9441 60.8409-65.9441L48.5328-65.9441Q42.2154-65.9441 38.2212-61.3921Q34.6239-57.3175 31.3855-51.8426Q28.147-46.3677 25.4306-40.5685Q22.7142-34.7693 20.7171-29.7769Q18.72-24.7845 17.5602-21.5051Q16.4005-18.2257 16.3201-17.9092Q16.084-17.0246 16.084-16.0685Q16.084-14.3924 17.0401-12.9537Q17.9962-11.5151 19.7565-10.868Q21.9137-10.1532 23.9511-11.1942Q25.9884-12.2351 26.7926-14.3924Q27.6734-16.8675 29.3507-21.3424Q31.028-25.8172 33.5453-31.6541Q36.0625-37.4909 39.5794-43.964Q39.8207-44.4465 40.2987-44.3661Q40.7768-44.2857 40.7768-43.8083L40.7768 36.4534Q40.7768 38.6069 42.4585 40.2842Q44.1403 41.9615 46.3742 41.9615ZM54.688-109.714Q65.9431-109.714 73.9519-103.6Q81.9607-97.4866 86.2319-85.8104Q90.5031-74.1342 90.5031-57.4924L90.5031-16.1579L93.3777-16.1579L93.3777-57.4924Q93.3777-75.3532 88.7766-87.6122Q84.1755-99.8711 75.5418-106.189Q66.9082-112.506 54.688-112.506Q42.4656-112.506 33.8319-106.189Q25.1983-99.8711 20.6385-87.6122Q16.0788-75.3532 16.0788-57.4924L16.0788-16.0723L18.9548-16.0723L18.9548-57.4924Q18.9548-74.1342 23.1839-85.8104Q27.413-97.4866 35.4211-103.6Q43.4292-109.714 54.688-109.714Z"/>
  </g>
  <g id="Black-M" transform="matrix(1 0 0 1 2884.96 1126)">
   <path d="M48.4406-66.0745Q53.5459-66.0745 57.1474-69.7047Q60.749-73.3349 60.749-78.3883Q60.749-83.4988 57.1474-87.1005Q53.5459-90.7022 48.4406-90.7022Q43.3817-90.7022 39.7544-87.1005Q36.127-83.4988 36.127-78.3883Q36.127-73.3349 39.7544-69.7047Q43.3817-66.0745 48.4406-66.0745ZM40.9299 37.2891Q43.4331 37.2891 45.2664 35.4246Q47.0996 33.56 47.0996 31.1136L47.0996 4.09348L48.4406-6.7792L49.7816 4.09348L49.7816 31.1136Q49.7816 33.56 51.6148 35.4246Q53.4481 37.2891 55.9513 37.2891Q58.4601 37.2891 60.2622 35.4246Q62.0643 33.56 62.0643 31.1136L62.0643-36.824Q62.0643-37.4317 62.415-37.4369Q62.7658-37.4421 62.9527-37.1254Q65.1506-33.1141 67.0207-28.6674Q68.8908-24.2207 70.3244-20.3534Q71.7579-16.4861 72.5062-14.2472Q73.306-11.8633 75.5964-10.7338Q77.8868-9.60435 80.2135-10.4045Q82.1607-11.0687 83.2903-12.6579Q84.42-14.2472 84.42-16.1427Q84.42-17.13 84.0563-18.1009Q83.9371-18.584 82.8542-21.5601Q81.7713-24.5362 79.9404-29.0995Q78.1095-33.6628 75.6579-38.8464Q73.2063-44.03 70.2871-48.9956Q67.3679-53.9613 64.08-57.6286Q60.1893-62.189 53.9726-62.189L42.914-62.189Q36.6919-62.189 32.8015-57.6286Q29.5706-53.9613 26.6257-48.9956Q23.6807-44.03 21.2263-38.8464Q18.772-33.6628 16.9409-29.0995Q15.1099-24.5362 14.027-21.5315Q12.944-18.5269 12.8246-18.1009Q12.4609-17.13 12.4609-16.143Q12.4609-14.2472 13.6193-12.6579Q14.7776-11.0687 16.6731-10.4045Q18.9999-9.60435 21.2903-10.7338Q23.5807-11.8633 24.375-14.2472Q25.18-16.4861 26.5878-20.3534Q27.9956-24.2207 29.8632-28.6389Q31.7308-33.057 33.8716-36.9541Q34.1728-37.4421 34.495-37.3798Q34.8172-37.3175 34.8172-36.7098L34.8172 31.1136Q34.8172 33.56 36.6477 35.4246Q38.4782 37.2891 40.9299 37.2891ZM48.4406-97.9763Q56.5978-97.9763 62.4748-93.1919Q68.3519-88.4074 71.5574-79.6024Q74.7629-70.7975 74.7629-58.7044L74.7629-16.1372L84.42-16.1372L84.42-58.7044Q84.42-73.7609 80.0392-84.7371Q75.6584-95.7134 67.6102-101.674Q59.562-107.634 48.4406-107.634Q37.3817-107.634 29.305-101.674Q21.2283-95.7134 16.8473-84.7371Q12.4664-73.7609 12.4664-58.7044L12.4664-16.1375L22.1235-16.1375L22.1235-58.7044Q22.1235-70.7975 25.3291-79.6024Q28.5348-88.4074 34.4404-93.1919Q40.346-97.9763 48.4406-97.9763Z"/>
  </g>
  <g id="Heavy-M" transform="matrix(1 0 0 1 2588.99 1126)">
   <path d="M47.6987-65.9553Q52.6135-65.9553 56.0915-69.454Q59.5696-72.9527 59.5696-77.8426Q59.5696-82.776 56.0915-86.2529Q52.6135-89.7299 47.6987-89.7299Q42.7925-89.7299 39.3008-86.2529Q35.8091-82.776 35.8091-77.8426Q35.8091-72.9527 39.3008-69.454Q42.7925-65.9553 47.6987-65.9553ZM40.2969 35.8395Q42.6578 35.8395 44.3916 34.0757Q46.1254 32.3119 46.1254 29.9969L46.1254 3.32163L47.6987-9.46864L49.272 3.32163L49.272 29.9969Q49.272 32.3119 51.0058 34.0757Q52.7396 35.8395 55.1005 35.8395Q57.4777 35.8395 59.1804 34.0757Q60.8831 32.3119 60.8831 29.9969L60.8831-37.977Q60.8831-38.5417 61.2515-38.5604Q61.6199-38.5791 61.8068-38.2489Q64.194-33.8834 66.1373-29.3211Q68.0806-24.7588 69.509-20.9014Q70.9375-17.0439 71.6806-14.8287Q72.4509-12.5738 74.6124-11.5075Q76.7738-10.4412 78.9851-11.2093Q80.8085-11.8222 81.8736-13.3254Q82.9387-14.8287 82.9387-16.6248Q82.9387-17.5775 82.6046-18.481Q82.4964-18.9211 81.4375-21.8466Q80.3786-24.7721 78.5743-29.269Q76.77-33.766 74.3543-38.8778Q71.9386-43.9896 69.0579-48.8821Q66.1772-53.7747 62.9424-57.3997Q59.1639-61.8075 53.1673-61.8075L42.2465-61.8075Q36.2335-61.8075 32.4527-57.3997Q29.2616-53.7747 26.3673-48.8821Q23.473-43.9896 21.0491-38.8778Q18.6251-33.766 16.822-29.269Q15.0188-24.7721 13.9599-21.8248Q12.901-18.8775 12.7951-18.481Q12.4609-17.5775 12.4609-16.6226Q12.4609-14.8287 13.5468-13.3254Q14.6326-11.8222 16.4287-11.2093Q18.64-10.4412 20.8014-11.5075Q22.9629-12.5738 23.7168-14.8287Q24.5058-17.0439 25.9207-20.9014Q27.3355-24.7588 29.2683-29.2993Q31.2011-33.8397 33.5447-38.118Q33.8189-38.5791 34.1655-38.5168Q34.5121-38.4545 34.5121-37.8898L34.5121 29.9969Q34.5121 32.3119 36.2377 34.0757Q37.9633 35.8395 40.2969 35.8395ZM47.6987-97.5559Q56.0016-97.5559 61.9364-92.672Q67.8711-87.788 71.075-78.7371Q74.2789-69.6862 74.2789-57.1567L74.2789-16.6084L82.9387-16.6084L82.9387-57.1567Q82.9387-72.3688 78.6853-83.361Q74.4319-94.3533 66.5546-100.283Q58.6773-106.214 47.6987-106.214Q36.7802-106.214 28.8811-100.283Q20.982-94.3533 16.7297-83.361Q12.4773-72.3688 12.4773-57.1567L12.4773-16.6062L21.1372-16.6062L21.1372-57.1567Q21.1372-69.6862 24.3399-78.7371Q27.5427-87.788 33.4993-92.672Q39.4559-97.5559 47.6987-97.5559Z"/>
  </g>
  <g id="Bold-M" transform="matrix(1 0 0 1 2293.11 1126)">
   <path d="M46.8688-65.8219Q51.5704-65.8219 54.9104-69.1735Q58.2503-72.5252 58.2503-77.232Q58.2503-81.9675 54.9104-85.3048Q51.5704-88.6422 46.8688-88.6422Q42.1333-88.6422 38.7934-85.3048Q35.4535-81.9675 35.4535-77.232Q35.4535-72.5252 38.7934-69.1735Q42.1333-65.8219 46.8688-65.8219ZM39.5889 34.2179Q41.7905 34.2179 43.4131 32.5667Q45.0357 30.9156 45.0357 28.7477L45.0357 2.4582L46.8688-12.4772L48.702 2.4582L48.702 28.7477Q48.702 30.9156 50.3245 32.5667Q51.9471 34.2179 54.1487 34.2179Q56.3788 34.2179 57.9703 32.5667Q59.5617 30.9156 59.5617 28.7477L59.5617-39.2669Q59.5617-39.7835 59.9499-39.8172Q60.3381-39.851 60.525-39.5057Q63.124-34.7439 65.1491-30.0523Q67.1742-25.3608 68.597-21.5144Q70.0197-17.6679 70.7571-15.4793Q71.4944-13.3686 73.5116-12.373Q75.5288-11.3774 77.611-12.1096Q79.2958-12.665 80.2888-14.0721Q81.2818-15.4793 81.2818-17.1641Q81.2818-18.0782 80.9807-18.9062Q80.8846-19.2982 79.8526-22.1671Q78.8207-25.0359 77.0462-29.4586Q75.2717-33.8814 72.8961-38.9128Q70.5205-43.9443 67.6828-48.7552Q64.8451-53.566 61.6699-57.1437Q58.0169-61.3807 52.2665-61.3807L41.4998-61.3807Q35.7207-61.3807 32.0626-57.1437Q28.9159-53.566 26.0783-48.7552Q23.2406-43.9443 20.8508-38.9128Q18.4609-33.8814 16.6889-29.4586Q14.917-25.0359 13.885-22.1528Q12.8529-19.2697 12.7621-18.9062Q12.4609-18.0782 12.4609-17.1591Q12.4609-15.4793 13.4657-14.0721Q14.4704-12.665 16.1553-12.1096Q18.2374-11.3774 20.2546-12.373Q22.2718-13.3686 22.9805-15.4793Q23.7516-17.6679 25.1744-21.5144Q26.5972-25.3608 28.6028-30.0381Q30.6085-34.7153 33.179-39.4201Q33.423-39.851 33.7969-39.7887Q34.1708-39.7264 34.1708-39.2098L34.1708 28.7477Q34.1708 30.9156 35.7791 32.5667Q37.3873 34.2179 39.5889 34.2179ZM46.8688-97.0857Q55.3346-97.0857 61.334-92.0904Q67.3334-87.0951 70.5355-77.7691Q73.7375-68.4432 73.7375-55.4253L73.7375-17.1356L81.2818-17.1356L81.2818-55.4253Q81.2818-70.8115 77.1708-81.8216Q73.0598-92.8317 65.3737-98.7283Q57.6875-104.625 46.8688-104.625Q36.1073-104.625 28.4069-98.7283Q20.7065-92.8317 16.598-81.8216Q12.4895-70.8115 12.4895-55.4253L12.4895-17.1304L20.0338-17.1304L20.0338-55.4253Q20.0338-68.4432 23.2334-77.7691Q26.4329-87.0951 32.4465-92.0904Q38.4602-97.0857 46.8688-97.0857Z"/>
  </g>
  <g id="Semibold-M" transform="matrix(1 0 0 1 1996.97 1126)">
   <path d="M46.2966-65.73Q50.8514-65.73 54.0961-68.9802Q57.3408-72.2304 57.3408-76.8112Q57.3408-81.4101 54.0961-84.6512Q50.8514-87.8924 46.2966-87.8924Q41.6789-87.8924 38.4437-84.6512Q35.2084-81.4101 35.2084-76.8112Q35.2084-72.2304 38.4437-68.9802Q41.6789-65.73 46.2966-65.73ZM39.1009 33.0999Q41.1926 33.0999 42.7385 31.5265Q44.2844 29.953 44.2844 27.8866L44.2844 1.86296L46.2966-14.5512L48.309 1.86296L48.309 27.8866Q48.309 29.953 49.8549 31.5265Q51.4008 33.0999 53.4925 33.0999Q55.6213 33.0999 57.136 31.5265Q58.6508 29.953 58.6508 27.8866L58.6508-40.1561Q58.6508-40.6395 59.0526-40.6837Q59.4544-40.7278 59.6413-40.3721Q62.3863-35.3371 64.4678-30.5564Q66.5494-25.7758 67.9682-21.937Q69.387-18.0981 70.1205-15.9277Q70.835-13.9166 72.7527-12.9697Q74.6705-12.0228 76.6637-12.7303Q78.2529-13.2461 79.1962-14.5869Q80.1395-15.9277 80.1395-17.5359Q80.1395-18.4233 79.8611-19.1994Q79.7735-19.5582 78.7601-22.388Q77.7467-25.2178 75.9927-29.5893Q74.2387-33.9609 71.8908-38.937Q69.5429-43.9132 66.7349-48.6676Q63.9268-53.4221 60.7927-56.9672Q57.2262-61.0865 51.6454-61.0865L40.9851-61.0865Q35.3672-61.0865 31.7936-56.9672Q28.6776-53.4221 25.879-48.6676Q23.0804-43.9132 20.714-38.937Q18.3476-33.9609 16.5972-29.5893Q14.8467-25.2178 13.8333-22.3789Q12.8198-19.5401 12.7393-19.1994Q12.4609-18.4233 12.4609-17.5289Q12.4609-15.9277 13.4098-14.5869Q14.3586-13.2461 15.9668-12.7303Q17.9598-12.0228 19.8776-12.9697Q21.7954-13.9166 22.4729-15.9277Q23.2317-18.0981 24.6599-21.937Q26.0881-25.7758 28.144-30.5474Q30.2-35.3189 32.9269-40.3177Q33.1501-40.7278 33.5429-40.6655Q33.9356-40.6032 33.9356-40.1198L33.9356 27.8866Q33.9356 29.953 35.4629 31.5265Q36.9903 33.0999 39.1009 33.0999ZM46.2966-96.7615Q54.8748-96.7615 60.9187-91.6894Q66.9627-86.6174 70.1635-77.1018Q73.3643-67.5862 73.3643-54.2317L73.3643-17.499L80.1395-17.499L80.1395-54.2317Q80.1395-69.7379 76.1267-80.7603Q72.1139-91.7828 64.5596-97.6563Q57.0052-103.53 46.2966-103.53Q35.6434-103.53 28.08-97.6563Q20.5166-91.7828 16.5073-80.7603Q12.4979-69.7379 12.4979-54.2317L12.4979-17.4918L19.2732-17.4918L19.2732-54.2317Q19.2732-67.5862 22.4705-77.1018Q25.6678-86.6174 31.7208-91.6894Q37.7737-96.7615 46.2966-96.7615Z"/>
  </g>
  <g id="Medium-M" transform="matrix(1 0 0 1 1700.69 1126)">
   <path d="M45.8628-65.6603Q50.3062-65.6603 53.4787-68.8336Q56.6512-72.0069 56.6512-76.492Q56.6512-80.9874 53.4787-84.1556Q50.3062-87.3238 45.8628-87.3238Q41.3344-87.3238 38.1784-84.1556Q35.0225-80.9874 35.0225-76.492Q35.0225-72.0069 38.1784-68.8336Q41.3344-65.6603 45.8628-65.6603ZM38.7308 32.2523Q40.7393 32.2523 42.227 30.7377Q43.7148 29.2231 43.7148 27.2336L43.7148 1.41162L45.8628-16.1238L48.011 1.41162L48.011 27.2336Q48.011 29.2231 49.4988 30.7377Q50.9865 32.2523 52.995 32.2523Q55.0469 32.2523 56.5035 30.7377Q57.9601 29.2231 57.9601 27.2336L57.9601-40.8303Q57.9601-41.2886 58.3722-41.3406Q58.7843-41.3927 58.9712-41.0291Q61.8269-35.7869 63.9513-30.9387Q66.0756-26.0905 67.4915-22.2574Q68.9073-18.4243 69.6377-16.2678Q70.335-14.332 72.1773-13.4221Q74.0197-12.5122 75.9454-13.2009Q77.4622-13.6867 78.3678-14.9772Q79.2734-16.2678 79.2734-17.8179Q79.2734-18.685 79.0123-19.4217Q78.931-19.7554 77.9317-22.5555Q76.9323-25.3557 75.1939-29.6885Q73.4555-34.0212 71.1285-38.9554Q68.8016-43.8895 66.0161-48.6013Q63.2305-53.313 60.1275-56.8333Q56.6266-60.8634 51.1745-60.8634L40.5947-60.8634Q35.0991-60.8634 31.5897-56.8333Q28.4968-53.313 25.7279-48.6013Q22.959-43.8895 20.6104-38.9554Q18.2618-34.0212 16.5276-29.6885Q14.7935-25.3557 13.7941-22.5504Q12.7946-19.7451 12.722-19.4217Q12.4609-18.685 12.4609-17.8093Q12.4609-16.2678 13.3674-14.9772Q14.2738-13.6867 15.8239-13.2009Q17.7494-12.5122 19.5918-13.4221Q21.4342-14.332 22.0881-16.2678Q22.8375-18.4243 24.2698-22.2574Q25.7022-26.0905 27.7962-30.9335Q29.8902-35.7766 32.7358-40.9983Q32.9432-41.3927 33.3502-41.3304Q33.7572-41.2681 33.7572-40.8098L33.7572 27.2336Q33.7572 29.2231 35.2232 30.7377Q36.6892 32.2523 38.7308 32.2523ZM45.8628-96.5157Q54.5262-96.5157 60.6039-91.3854Q66.6816-86.2552 69.8814-76.5958Q73.0813-66.9364 73.0813-53.3267L73.0813-17.7745L79.2734-17.7745L79.2734-53.3267Q79.2734-68.9238 75.335-79.9556Q71.3967-90.9875 63.9423-96.8434Q56.4879-102.699 45.8628-102.699Q35.2917-102.699 27.8321-96.8434Q20.3726-90.9875 16.4384-79.9556Q12.5043-68.9238 12.5043-53.3267L12.5043-17.7658L18.6965-17.7658L18.6965-53.3267Q18.6965-66.9364 21.8921-76.5958Q25.0877-86.2552 31.1705-91.3854Q37.2532-96.5157 45.8628-96.5157Z"/>
  </g>
  <g id="Regular-M" transform="matrix(1 0 0 1 1404.54 1126)">
   <path d="M45.297-65.5693Q49.595-65.5693 52.6734-68.6424Q55.7517-71.7154 55.7517-76.0758Q55.7517-80.4361 52.6734-83.5092Q49.595-86.5822 45.297-86.5822Q40.8849-86.5822 37.8325-83.5092Q34.7801-80.4361 34.7801-76.0758Q34.7801-71.7154 37.8325-68.6424Q40.8849-65.5693 45.297-65.5693ZM38.248 31.1466Q40.1479 31.1466 41.5598 29.7089Q42.9718 28.2711 42.9718 26.3819L42.9718 0.822918L45.297-18.1751L47.6224 0.822918L47.6224 26.3819Q47.6224 28.2711 49.0343 29.7089Q50.4462 31.1466 52.3461 31.1466Q54.2976 31.1466 55.6784 29.7089Q57.0591 28.2711 57.0591 26.3819L57.0591-41.7098Q57.0591-42.1353 57.4847-42.1976Q57.9103-42.2599 58.0972-41.886Q61.0973-36.3736 63.2775-31.4373Q65.4577-26.5009 66.8696-22.6754Q68.2815-18.8498 69.0081-16.7113Q69.6828-14.8739 71.4268-14.0122Q73.1709-13.1505 75.0085-13.8148Q76.4308-14.2614 77.2872-15.4864Q78.1436-16.7113 78.1436-18.1856Q78.1436-19.0263 77.905-19.7116Q77.8321-20.0125 76.8511-22.774Q75.8701-25.5356 74.152-29.8177Q72.4338-34.0999 70.1343-38.9793Q67.8347-43.8587 65.0785-48.5147Q62.3223-53.1707 59.2599-56.6588Q55.8446-60.5724 50.5603-60.5724L40.0856-60.5724Q34.7495-60.5724 31.3237-56.6588Q28.2611-53.1707 25.5309-48.5147Q22.8006-43.8587 20.4752-38.9793Q18.1498-34.0999 16.4369-29.8177Q14.724-25.5356 13.7429-22.774Q12.7618-20.0125 12.6995-19.7116Q12.4609-19.0263 12.4609-18.1751Q12.4609-16.7113 13.3121-15.4864Q14.1633-14.2614 15.6375-13.8148Q17.4749-13.1505 19.2189-14.0122Q20.963-14.8739 21.586-16.7113Q22.3232-18.8498 23.761-22.6754Q25.1987-26.5009 27.3424-31.4373Q29.4861-36.3736 32.4864-41.886Q32.6733-42.2599 33.0989-42.1976Q33.5245-42.1353 33.5245-41.7098L33.5245 26.3819Q33.5245 28.2711 34.9105 29.7089Q36.2965 31.1466 38.248 31.1466ZM45.297-96.1951Q54.0715-96.1951 60.1932-90.9889Q66.3149-85.7827 69.5135-75.9358Q72.7122-66.0889 72.7122-52.1462L72.7122-18.1339L78.1436-18.1339L78.1436-52.1462Q78.1436-67.862 74.3024-78.906Q70.4612-89.9501 63.1371-95.7832Q55.8131-101.616 45.297-101.616Q34.8329-101.616 27.5088-95.7832Q20.1848-89.9501 16.3487-78.906Q12.5126-67.862 12.5126-52.1462L12.5126-18.1233L17.9442-18.1233L17.9442-52.1462Q17.9442-66.0889 21.1376-75.9358Q24.331-85.7827 30.4527-90.9889Q36.5743-96.1951 45.297-96.1951Z"/>
  </g>
  <g id="Light-M" transform="matrix(1 0 0 1 1108.73 1126)">
   <path d="M44.3899-65.3126Q48.5854-65.3126 51.6039-68.3172Q54.6225-71.3219 54.6225-75.5796Q54.6225-79.8373 51.6039-82.8419Q48.5854-85.8465 44.3899-85.8465Q40.0978-85.8465 37.0967-82.8419Q34.0956-79.8373 34.0956-75.5796Q34.0956-71.3219 37.0967-68.3172Q40.0978-65.3126 44.3899-65.3126ZM37.5293 29.1104Q39.378 29.1104 40.7557 27.7155Q42.1334 26.3206 42.1334 24.4997L42.1334-0.374742L44.3899-18.8596L46.6469-0.374742L46.6469 24.4997Q46.6469 26.3206 48.0246 27.7155Q49.4023 29.1104 51.251 29.1104Q53.1342 29.1104 54.4807 27.7155Q55.8273 26.3206 55.8273 24.4997L55.8273-41.7612Q55.8273-42.1695 56.2358-42.2318Q56.6442-42.2941 56.8312-41.9202Q59.7456-36.5619 61.8744-31.7539Q64.0033-26.9459 65.381-23.2315Q66.7587-19.5171 67.4511-17.447Q68.1085-15.6611 69.8012-14.8165Q71.494-13.9718 73.2804-14.6019Q74.6855-15.0654 75.5162-16.2562Q76.3468-17.447 76.3468-18.887Q76.3468-19.6766 76.1255-20.3619Q76.0353-20.6456 75.08-23.3387Q74.1248-26.0318 72.4495-30.1856Q70.7742-34.3394 68.5344-39.099Q66.2947-43.8587 63.6155-48.3863Q60.9364-52.914 57.9596-56.2994Q54.6639-60.0931 49.4995-60.0931L39.3157-60.0931Q34.1165-60.0931 30.7933-56.2994Q27.8161-52.914 25.1544-48.3863Q22.4927-43.8587 20.2357-39.099Q17.9787-34.3394 16.3172-30.1856Q14.6556-26.0318 13.7001-23.3387Q12.7446-20.6456 12.6823-20.3619Q12.4609-19.6766 12.4609-18.8596Q12.4609-17.447 13.2779-16.2562Q14.0949-15.0654 15.5349-14.6019Q17.3208-13.9718 19.0135-14.8165Q20.7063-15.6611 21.3293-17.447Q22.0495-19.5171 23.4445-23.2315Q24.8394-26.9459 26.9231-31.7539Q29.0069-36.5619 31.9218-41.9202Q32.1087-42.2941 32.5172-42.2318Q32.9257-42.1695 32.9257-41.7612L32.9257 24.4997Q32.9257 26.3206 34.2859 27.7155Q35.6462 29.1104 37.5293 29.1104ZM44.3899-95.1855Q53.1475-95.1855 59.2949-90.1247Q65.4424-85.064 68.6752-75.4652Q71.9081-65.8664 71.9081-52.2488L71.9081-18.8526L76.3468-18.8526L76.3468-52.2488Q76.3468-67.3828 72.5913-77.9477Q68.8358-88.5127 61.7085-94.055Q54.5812-99.5973 44.3899-99.5973Q34.2341-99.5973 27.1068-94.055Q19.9795-88.5127 16.2374-77.9477Q12.4954-67.3828 12.4954-52.2488L12.4954-18.8247L16.9346-18.8247L16.9346-52.2488Q16.9346-65.8664 20.1537-75.4652Q23.3728-85.064 29.5201-90.1247Q35.6673-95.1855 44.3899-95.1855Z"/>
  </g>
  <g id="Thin-M" transform="matrix(1 0 0 1 813.206 1126)">
   <path d="M43.1904-64.9731Q47.25-64.9731 50.1895-67.8872Q53.129-70.8013 53.129-74.9233Q53.129-79.0453 50.1895-81.9594Q47.25-84.8735 43.1904-84.8735Q39.0568-84.8735 36.1235-81.9594Q33.1903-79.0453 33.1903-74.9233Q33.1903-70.8013 36.1235-67.8872Q39.0568-64.9731 43.1904-64.9731ZM36.5788 26.4173Q38.3598 26.4173 39.6923 25.079Q41.0247 23.7408 41.0247 22.0104L41.0247-1.95874L43.1904-19.7649L45.3568-1.95874L45.3568 22.0104Q45.3568 23.7408 46.6893 25.079Q48.0217 26.4173 49.8028 26.4173Q51.5954 26.4173 52.8967 25.079Q54.198 23.7408 54.198 22.0104L54.198-41.8293Q54.198-42.2147 54.5839-42.277Q54.9697-42.3393 55.1567-41.9655Q57.9578-36.811 60.0188-32.1727Q62.0798-27.5345 63.4122-23.967Q64.7447-20.3996 65.3918-18.42Q66.0264-16.7021 67.6513-15.8801Q69.2761-15.0581 70.9949-15.6429Q72.3772-16.1289 73.1738-17.2745Q73.9705-18.42 73.9705-19.8148Q73.9705-20.5366 73.7719-21.222Q73.6589-21.4828 72.7377-24.0854Q71.8164-26.688 70.1978-30.6721Q68.5792-34.6561 66.4185-39.2574Q64.2578-43.8587 61.6806-48.2166Q59.1033-52.5744 56.2399-55.8242Q53.1023-59.4593 48.0965-59.4593L38.2975-59.4593Q33.2792-59.4593 30.0918-55.8242Q27.2275-52.5744 24.6565-48.2166Q22.0855-43.8587 19.919-39.2574Q17.7525-34.6561 16.1588-30.6721Q14.5651-26.688 13.6434-24.0854Q12.7218-21.4828 12.6595-21.222Q12.4609-20.5366 12.4609-19.7649Q12.4609-18.42 13.2327-17.2745Q14.0044-16.1289 15.3991-15.6429Q17.117-15.0581 18.7419-15.8801Q20.3667-16.7021 20.9898-18.42Q21.6876-20.3996 23.0258-23.967Q24.3641-27.5345 26.3686-32.1727Q28.3731-36.811 31.175-41.9655Q31.362-42.3393 31.7478-42.277Q32.1337-42.2147 32.1337-41.8293L32.1337 22.0104Q32.1337 23.7408 33.4599 25.079Q34.7861 26.4173 36.5788 26.4173ZM43.1904-93.8501Q51.9255-93.8501 58.1069-88.9818Q64.2884-84.1134 67.5665-74.8428Q70.8446-65.5721 70.8446-52.3846L70.8446-19.8032L73.9705-19.8032L73.9705-52.3846Q73.9705-66.7489 70.3282-76.6802Q66.686-86.6115 59.819-91.7693Q52.9519-96.927 43.1904-96.927Q33.4421-96.927 26.575-91.7693Q19.708-86.6115 16.0903-76.6802Q12.4725-66.7489 12.4725-52.3846L12.4725-19.7525L15.5992-19.7525L15.5992-52.3846Q15.5992-65.5721 18.8524-74.8428Q22.1056-84.1134 28.2866-88.9818Q34.4677-93.8501 43.1904-93.8501Z"/>
  </g>
  <g id="Ultralight-M" transform="matrix(1 0 0 1 517.104 1126)">
   <path d="M42.5759-64.7992Q46.5661-64.7992 49.465-67.6669Q52.364-70.5347 52.364-74.5872Q52.364-78.6396 49.465-81.5074Q46.5661-84.3752 42.5759-84.3752Q38.5235-84.3752 35.6251-81.5074Q32.7266-78.6396 32.7266-74.5872Q32.7266-70.5347 35.6251-67.6669Q38.5235-64.7992 42.5759-64.7992ZM36.0919 25.0379Q37.8383 25.0379 39.1476 23.7286Q40.4568 22.4194 40.4568 20.7354L40.4568-2.77006L42.5759-20.2286L44.696-2.77006L44.696 20.7354Q44.696 22.4194 46.0053 23.7286Q47.3146 25.0379 49.061 25.0379Q50.8073 25.0379 52.0854 23.7286Q53.3635 22.4194 53.3635 20.7354L53.3635-41.8641Q53.3635-42.2379 53.7378-42.3002Q54.1121-42.3625 54.299-41.9887Q57.0421-36.9385 59.0683-32.3872Q61.0945-27.836 62.4038-24.3438Q63.7131-20.8516 64.337-18.9184Q64.96-17.2353 66.5501-16.4249Q68.1402-15.6145 69.8242-16.1762Q71.1949-16.6736 71.9741-17.796Q72.7533-18.9184 72.7533-20.29Q72.7533-20.9771 72.5665-21.6625Q72.4418-21.9116 71.5379-24.4679Q70.6341-27.0242 69.0445-30.9212Q67.4549-34.8183 65.3347-39.3385Q63.2146-43.8587 60.6895-48.1296Q58.1644-52.4005 55.359-55.5807Q52.3025-59.1347 47.3779-59.1347L37.776-59.1347Q32.8504-59.1347 29.7325-55.5807Q26.9261-52.4005 24.4015-48.1296Q21.8769-43.8587 19.7568-39.3385Q17.6366-34.8183 16.0777-30.9212Q14.5188-27.0242 13.6144-24.4679Q12.7101-21.9116 12.6478-21.6625Q12.4609-20.9771 12.4609-20.2286Q12.4609-18.9184 13.2095-17.796Q13.958-16.6736 15.3296-16.1762Q17.0126-15.6145 18.6027-16.4249Q20.1928-17.2353 20.8159-18.9184Q21.5022-20.8516 22.8114-24.3438Q24.1207-27.836 26.0845-32.3872Q28.0484-36.9385 30.7926-41.9887Q30.9795-42.3625 31.3537-42.3002Q31.728-42.2379 31.728-41.8641L31.728 20.7354Q31.728 22.4194 33.0368 23.7286Q34.3456 25.0379 36.0919 25.0379ZM42.5759-93.1662Q51.2995-93.1662 57.4985-88.3964Q63.6974-83.6266 66.9986-74.5239Q70.2999-65.4213 70.2999-52.4541L70.2999-20.29L72.7533-20.29L72.7533-52.4541Q72.7533-66.4243 69.1691-76.0311Q65.5849-85.6378 58.8512-90.5985Q52.1174-95.5593 42.5759-95.5593Q33.0364-95.5593 26.3027-90.5985Q19.569-85.6378 16.0149-76.0311Q12.4609-66.4243 12.4609-52.4541L12.4609-20.2276L14.9153-20.2276L14.9153-52.4541Q14.9153-65.4213 18.1859-74.5239Q21.4565-83.6266 27.6549-88.3964Q33.8533-93.1662 42.5759-93.1662Z"/>
  </g>
  <g id="Black-S" transform="matrix(1 0 0 1 2895.27 696)">
   <path d="M38.1348-59.4238Q42.1875-59.4238 45.0439-62.3047Q47.9004-65.1855 47.9004-69.1895Q47.9004-73.2422 45.0439-76.0986Q42.1875-78.9551 38.1348-78.9551Q34.1309-78.9551 31.25-76.0986Q28.3691-73.2422 28.3691-69.1895Q28.3691-65.1855 31.25-62.3047Q34.1309-59.4238 38.1348-59.4238ZM32.2266 21.9238Q34.2285 21.9238 35.6934 20.4346Q37.1582 18.9453 37.1582 16.9922L37.1582-4.24805L38.1348-12.1582L39.1113-4.24805L39.1113 16.9922Q39.1113 18.9453 40.5762 20.4346Q42.041 21.9238 44.043 21.9238Q46.0449 21.9238 47.4854 20.4346Q48.9258 18.9453 48.9258 16.9922L48.9258-36.1328Q48.9258-36.6211 49.1943-36.6211Q49.4629-36.6211 49.6094-36.377Q51.2695-33.3496 52.71-29.9072Q54.1504-26.4648 55.2734-23.4375Q56.3965-20.4102 56.9824-18.6523Q57.6172-16.748 59.4482-15.8447Q61.2793-14.9414 63.1348-15.5762Q64.6973-16.1133 65.6006-17.3828Q66.5039-18.6523 66.5039-20.166Q66.5039-20.9473 66.2109-21.7285Q66.1133-22.1191 65.2588-24.4629Q64.4043-26.8066 62.9639-30.3955Q61.5234-33.9844 59.5947-38.0615Q57.666-42.1387 55.3711-46.0449Q53.0762-49.9512 50.4883-52.832Q47.4121-56.4453 42.4805-56.4453L33.7891-56.4453Q28.8574-56.4453 25.7812-52.832Q23.2422-49.9512 20.9229-46.0449Q18.6035-42.1387 16.6748-38.0615Q14.7461-33.9844 13.3057-30.3955Q11.8652-26.8066 11.0107-24.4385Q10.1562-22.0703 10.0586-21.7285Q9.76562-20.9473 9.76562-20.166Q9.76562-18.6523 10.6934-17.3828Q11.6211-16.1133 13.1348-15.5762Q14.9902-14.9414 16.8213-15.8447Q18.6523-16.748 19.2871-18.6523Q19.9219-20.4102 21.0205-23.4375Q22.1191-26.4648 23.5596-29.8828Q25-33.3008 26.6113-36.2305Q26.8555-36.6211 27.0996-36.5723Q27.3438-36.5234 27.3438-36.0352L27.3438 16.9922Q27.3438 18.9453 28.8086 20.4346Q30.2734 21.9238 32.2266 21.9238ZM38.1348-84.4727Q44.4824-84.4727 49.0723-80.7617Q53.6621-77.0508 56.1768-70.2393Q58.6914-63.4277 58.6914-54.1016L58.6914-20.166L66.5039-20.166L66.5039-54.1016Q66.5039-65.8203 63.0371-74.3896Q59.5703-82.959 53.2227-87.6221Q46.875-92.2852 38.1348-92.2852Q29.4434-92.2852 23.0713-87.6221Q16.6992-82.959 13.2324-74.3896Q9.76562-65.8203 9.76562-54.1016L9.76562-20.166L17.5781-20.166L17.5781-54.1016Q17.5781-63.4277 20.0928-70.2393Q22.6074-77.0508 27.2217-80.7617Q31.8359-84.4727 38.1348-84.4727Z"/>
  </g>
  <g id="Heavy-S" transform="matrix(1 0 0 1 2599.07 696)">
   <path d="M37.6162-59.3547Q41.5191-59.3547 44.2776-62.1318Q47.0361-64.909 47.0361-68.7861Q47.0361-72.7005 44.2776-75.459Q41.5191-78.2175 37.6162-78.2175Q33.7275-78.2175 30.9561-75.459Q28.1847-72.7005 28.1847-68.7861Q28.1847-64.909 30.9561-62.1318Q33.7275-59.3547 37.6162-59.3547ZM31.7771 20.9442Q33.6638 20.9442 35.048 19.5357Q36.4322 18.1271 36.4322 16.2777L36.4322-4.75512L37.6162-14.3709L38.8002-4.75512L38.8002 16.2777Q38.8002 18.1271 40.1843 19.5357Q41.5685 20.9442 43.4552 20.9442Q45.3535 20.9442 46.7132 19.5357Q48.073 18.1271 48.073 16.2777L48.073-37.1124Q48.073-37.5661 48.3588-37.5776Q48.6447-37.5891 48.7911-37.3335Q50.6242-33.9835 52.1337-30.4258Q53.6433-26.8682 54.7664-23.8351Q55.8894-20.802 56.4753-19.0557Q57.0871-17.2551 58.8144-16.4037Q60.5417-15.5522 62.305-16.1639Q63.7638-16.6549 64.6152-17.8553Q65.4667-19.0557 65.4667-20.4887Q65.4667-21.2469 65.1968-21.9705Q65.1107-22.3266 64.2734-24.6358Q63.4362-26.9449 62.0131-30.4935Q60.59-34.042 58.6843-38.073Q56.7786-42.1041 54.5068-45.9643Q52.2349-49.8244 49.6816-52.6822Q46.6861-56.1802 41.9273-56.1802L33.3166-56.1802Q28.5463-56.1802 25.5508-52.6822Q23.0347-49.8244 20.75-45.9643Q18.4652-42.1041 16.5538-38.073Q14.6424-34.042 13.2192-30.4935Q11.7961-26.9449 10.9589-24.6171Q10.1217-22.2893 10.0355-21.9705Q9.76562-21.2469 9.76562-20.4887Q9.76562-19.0557 10.6357-17.8553Q11.5058-16.6549 12.9388-16.1639Q14.7021-15.5522 16.4295-16.4037Q18.1568-17.2551 18.757-19.0557Q19.3802-20.802 20.4904-23.8351Q21.6005-26.8682 23.1044-30.4072Q24.6082-33.9462 26.4039-37.2216Q26.625-37.5891 26.8922-37.5403Q27.1594-37.4915 27.1594-37.0378L27.1594 16.2777Q27.1594 18.1271 28.5378 19.5357Q29.9162 20.9442 31.7771 20.9442ZM37.6162-84.2422Q44.0906-84.2422 48.7265-80.4275Q53.3625-76.6129 55.8714-69.5593Q58.3802-62.5058 58.3802-52.7647L58.3802-20.4772L65.4667-20.4772L65.4667-52.7647Q65.4667-64.6909 62.0979-73.3352Q58.729-81.9794 52.5024-86.654Q46.2757-91.3286 37.6162-91.3286Q29.0054-91.3286 22.7601-86.654Q16.5148-81.9794 13.146-73.3352Q9.77715-64.6909 9.77715-52.7647L9.77715-20.4772L16.8636-20.4772L16.8636-52.7647Q16.8636-62.5058 19.3725-69.5593Q21.8814-76.6129 26.536-80.4275Q31.1906-84.2422 37.6162-84.2422Z"/>
  </g>
  <g id="Bold-S" transform="matrix(1 0 0 1 2302.94 696)">
   <path d="M37.0361-59.2773Q40.7715-59.2773 43.4204-61.9385Q46.0693-64.5996 46.0693-68.335Q46.0693-72.0947 43.4204-74.7437Q40.7715-77.3926 37.0361-77.3926Q33.2764-77.3926 30.6274-74.7437Q27.9785-72.0947 27.9785-68.335Q27.9785-64.5996 30.6274-61.9385Q33.2764-59.2773 37.0361-59.2773ZM31.2744 19.8486Q33.0322 19.8486 34.3262 18.5303Q35.6201 17.2119 35.6201 15.4785L35.6201-5.32227L37.0361-16.8457L38.4521-5.32227L38.4521 15.4785Q38.4521 17.2119 39.7461 18.5303Q41.04 19.8486 42.7979 19.8486Q44.5801 19.8486 45.8496 18.5303Q47.1191 17.2119 47.1191 15.4785L47.1191-38.208Q47.1191-38.623 47.4243-38.6475Q47.7295-38.6719 47.876-38.4033Q49.9023-34.6924 51.4893-31.0059Q53.0762-27.3193 54.1992-24.2798Q55.3223-21.2402 55.9082-19.5068Q56.4941-17.8223 58.1055-17.0288Q59.7168-16.2354 61.377-16.8213Q62.7197-17.2607 63.5132-18.3838Q64.3066-19.5068 64.3066-20.8496Q64.3066-21.582 64.0625-22.2412Q63.9893-22.5586 63.1714-24.8291Q62.3535-27.0996 60.9497-30.603Q59.5459-34.1064 57.666-38.0859Q55.7861-42.0654 53.54-45.874Q51.2939-49.6826 48.7793-52.5146Q45.874-55.8838 41.3086-55.8838L32.7881-55.8838Q28.1982-55.8838 25.293-52.5146Q22.8027-49.6826 20.5566-45.874Q18.3105-42.0654 16.4185-38.0859Q14.5264-34.1064 13.1226-30.603Q11.7188-27.0996 10.9009-24.8169Q10.083-22.5342 10.0098-22.2412Q9.76562-21.582 9.76562-20.8496Q9.76562-19.5068 10.5713-18.3838Q11.377-17.2607 12.7197-16.8213Q14.3799-16.2354 15.9912-17.0288Q17.6025-17.8223 18.1641-19.5068Q18.7744-21.2402 19.8975-24.2798Q21.0205-27.3193 22.5952-30.9937Q24.1699-34.668 26.1719-38.3301Q26.3672-38.6719 26.6602-38.623Q26.9531-38.5742 26.9531-38.1592L26.9531 15.4785Q26.9531 17.2119 28.2349 18.5303Q29.5166 19.8486 31.2744 19.8486ZM37.0361-83.9844Q43.6523-83.9844 48.3398-80.0537Q53.0273-76.123 55.5298-68.7988Q58.0322-61.4746 58.0322-51.2695L58.0322-20.8252L64.3066-20.8252L64.3066-51.2695Q64.3066-63.4277 61.0474-72.1558Q57.7881-80.8838 51.6968-85.5713Q45.6055-90.2588 37.0361-90.2588Q28.5156-90.2588 22.4121-85.5713Q16.3086-80.8838 13.0493-72.1558Q9.79004-63.4277 9.79004-51.2695L9.79004-20.8252L16.0645-20.8252L16.0645-51.2695Q16.0645-61.4746 18.5669-68.7988Q21.0693-76.123 25.769-80.0537Q30.4688-83.9844 37.0361-83.9844Z"/>
  </g>
  <g id="Semibold-S" transform="matrix(1 0 0 1 2006.63 696)">
   <path d="M36.6362-59.224Q40.2561-59.224 42.8294-61.8052Q45.4028-64.3863 45.4028-68.0239Q45.4028-71.6771 42.8294-74.2504Q40.2561-76.8238 36.6362-76.8238Q32.9653-76.8238 30.4008-74.2504Q27.8363-71.6771 27.8363-68.0239Q27.8363-64.3863 30.4008-61.8052Q32.9653-59.224 36.6362-59.224ZM30.9278 19.0933Q32.5968 19.0933 33.8285 17.8371Q35.0603 16.581 35.0603 14.9275L35.0603-5.71328L36.6362-18.552L38.2122-5.71328L38.2122 14.9275Q38.2122 16.581 39.4439 17.8371Q40.6757 19.0933 42.3446 19.0933Q44.0469 19.0933 45.2542 17.8371Q46.4615 16.581 46.4615 14.9275L46.4615-38.9634Q46.4615-39.3518 46.78-39.3851Q47.0985-39.4184 47.245-39.1409Q49.4047-35.1812 51.0449-31.4058Q52.6852-27.6304 53.8082-24.5864Q54.9312-21.5424 55.5172-19.8179Q56.0854-18.2133 57.6167-17.4598Q59.148-16.7063 60.7371-17.2745Q61.9999-17.6784 62.7534-18.7481Q63.5068-19.8179 63.5068-21.0984Q63.5068-21.8131 63.2805-22.4278Q63.2161-22.7186 62.4116-24.9624Q61.607-27.2063 60.2166-30.6786Q58.8261-34.1509 56.964-38.0948Q55.1019-42.0388 52.8735-45.8118Q50.6452-49.5849 48.1572-52.3991Q45.3142-55.6794 40.882-55.6794L32.4237-55.6794Q27.9583-55.6794 25.1152-52.3991Q22.6428-49.5849 20.4233-45.8118Q18.2039-42.0388 16.3251-38.0948Q14.4464-34.1509 13.0559-30.6786Q11.6654-27.2063 10.8609-24.9546Q10.0563-22.703 9.99199-22.4278Q9.76562-21.8131 9.76562-21.0984Q9.76562-19.8179 10.5269-18.7481Q11.2881-17.6784 12.5687-17.2745Q14.1577-16.7063 15.6891-17.4598Q17.2204-18.2133 17.7553-19.8179Q18.3567-21.5424 19.4887-24.5864Q20.6206-27.6304 22.2442-31.398Q23.8678-35.1656 26.0119-39.0943Q26.1895-39.4184 26.5002-39.3695Q26.8109-39.3207 26.8109-38.9323L26.8109 14.9275Q26.8109 16.581 28.026 17.8371Q29.2411 19.0933 30.9278 19.0933ZM36.6362-83.8066Q43.3502-83.8066 48.0732-79.796Q52.7963-75.7854 55.2943-68.2745Q57.7923-60.7637 57.7923-50.2387L57.7923-21.0651L63.5068-21.0651L63.5068-50.2387Q63.5068-62.5568 60.3231-71.3426Q57.1394-80.1284 51.1414-84.8248Q45.1434-89.5212 36.6362-89.5212Q28.1779-89.5212 22.1722-84.8248Q16.1664-80.1284 12.9827-71.3426Q9.79893-62.5568 9.79893-50.2387L9.79893-21.0651L15.5135-21.0651L15.5135-50.2387Q15.5135-60.7637 18.0115-68.2745Q20.5095-75.7854 25.2403-79.796Q29.9711-83.8066 36.6362-83.8066Z"/>
  </g>
  <g id="Medium-S" transform="matrix(1 0 0 1 1710.22 696)">
   <path d="M36.333-59.1836Q39.8652-59.1836 42.3813-61.7041Q44.8975-64.2246 44.8975-67.7881Q44.8975-71.3604 42.3813-73.8765Q39.8652-76.3926 36.333-76.3926Q32.7295-76.3926 30.229-73.8765Q27.7285-71.3604 27.7285-67.7881Q27.7285-64.2246 30.229-61.7041Q32.7295-59.1836 36.333-59.1836ZM30.665 18.5205Q32.2666 18.5205 33.4512 17.3115Q34.6357 16.1025 34.6357 14.5098L34.6357-6.00977L36.333-19.8457L38.0303-6.00977L38.0303 14.5098Q38.0303 16.1025 39.2148 17.3115Q40.3994 18.5205 42.001 18.5205Q43.6426 18.5205 44.8027 17.3115Q45.9629 16.1025 45.9629 14.5098L45.9629-39.5361Q45.9629-39.9043 46.2915-39.9443Q46.6201-39.9844 46.7666-39.7002Q49.0273-35.5518 50.708-31.709Q52.3887-27.8662 53.5117-24.8188Q54.6348-21.7715 55.2207-20.0537Q55.7754-18.5098 57.2461-17.7866Q58.7168-17.0635 60.252-17.6182Q61.4541-17.9951 62.1772-19.0244Q62.9004-20.0537 62.9004-21.2871Q62.9004-21.9883 62.6875-22.5693Q62.6299-22.8398 61.8354-25.0635Q61.041-27.2871 59.6606-30.7358Q58.2803-34.1846 56.4316-38.1016Q54.583-42.0186 52.3682-45.7646Q50.1533-49.5107 47.6855-52.3115Q44.8896-55.5244 40.5586-55.5244L32.1475-55.5244Q27.7764-55.5244 24.9805-52.3115Q22.5215-49.5107 20.3223-45.7646Q18.123-42.0186 16.2544-38.1016Q14.3857-34.1846 13.0054-30.7358Q11.625-27.2871 10.8306-25.0591Q10.0361-22.8311 9.97852-22.5693Q9.76562-21.9883 9.76562-21.2871Q9.76562-20.0537 10.4932-19.0244Q11.2207-17.9951 12.4541-17.6182Q13.9893-17.0635 15.46-17.7866Q16.9307-18.5098 17.4453-20.0537Q18.04-21.7715 19.1787-24.8188Q20.3174-27.8662 21.978-31.7046Q23.6387-35.543 25.8906-39.6738Q26.0547-39.9844 26.3789-39.9355Q26.7031-39.8867 26.7031-39.5186L26.7031 14.5098Q26.7031 16.1025 27.8677 17.3115Q29.0322 18.5205 30.665 18.5205ZM36.333-83.6719Q43.1211-83.6719 47.8711-79.6006Q52.6211-75.5293 55.1157-67.877Q57.6104-60.2246 57.6104-49.457L57.6104-21.2471L62.9004-21.2471L62.9004-49.457Q62.9004-61.8965 59.7739-70.7261Q56.6475-79.5557 50.7202-84.2588Q44.793-88.9619 36.333-88.9619Q27.9219-88.9619 21.9902-84.2588Q16.0586-79.5557 12.9321-70.7261Q9.80566-61.8965 9.80566-49.457L9.80566-21.2471L15.0957-21.2471L15.0957-49.457Q15.0957-60.2246 17.5903-67.877Q20.085-75.5293 24.8394-79.6006Q29.5938-83.6719 36.333-83.6719Z"/>
  </g>
  <g id="Regular-S" transform="matrix(1 0 0 1 1413.91 696)">
   <path d="M35.9375-59.1309Q39.3555-59.1309 41.7969-61.5723Q44.2383-64.0137 44.2383-67.4805Q44.2383-70.9473 41.7969-73.3887Q39.3555-75.8301 35.9375-75.8301Q32.4219-75.8301 30.0049-73.3887Q27.5879-70.9473 27.5879-67.4805Q27.5879-64.0137 30.0049-61.5723Q32.4219-59.1309 35.9375-59.1309ZM30.3223 17.7734Q31.8359 17.7734 32.959 16.626Q34.082 15.4785 34.082 13.9648L34.082-6.39648L35.9375-21.5332L37.793-6.39648L37.793 13.9648Q37.793 15.4785 38.916 16.626Q40.0391 17.7734 41.5527 17.7734Q43.1152 17.7734 44.2139 16.626Q45.3125 15.4785 45.3125 13.9648L45.3125-40.2832Q45.3125-40.625 45.6543-40.6738Q45.9961-40.7227 46.1426-40.4297Q48.5352-36.0352 50.2686-32.1045Q52.002-28.1738 53.125-25.1221Q54.248-22.0703 54.834-20.3613Q55.3711-18.8965 56.7627-18.2129Q58.1543-17.5293 59.6191-18.0664Q60.7422-18.4082 61.4258-19.3848Q62.1094-20.3613 62.1094-21.5332Q62.1094-22.2168 61.9141-22.7539Q61.8652-22.998 61.084-25.1953Q60.3027-27.3926 58.9355-30.8105Q57.5684-34.2285 55.7373-38.1104Q53.9062-41.9922 51.709-45.7031Q49.5117-49.4141 47.0703-52.1973Q44.3359-55.3223 40.1367-55.3223L31.7871-55.3223Q27.5391-55.3223 24.8047-52.1973Q22.3633-49.4141 20.1904-45.7031Q18.0176-41.9922 16.1621-38.1104Q14.3066-34.2285 12.9395-30.8105Q11.5723-27.3926 10.791-25.1953Q10.0098-22.998 9.96094-22.7539Q9.76562-22.2168 9.76562-21.5332Q9.76562-20.3613 10.4492-19.3848Q11.1328-18.4082 12.3047-18.0664Q13.7695-17.5293 15.1611-18.2129Q16.5527-18.8965 17.041-20.3613Q17.627-22.0703 18.7744-25.1221Q19.9219-28.1738 21.6309-32.1045Q23.3398-36.0352 25.7324-40.4297Q25.8789-40.7227 26.2207-40.6738Q26.5625-40.625 26.5625-40.2832L26.5625 13.9648Q26.5625 15.4785 27.6611 16.626Q28.7598 17.7734 30.3223 17.7734ZM35.9375-83.4961Q42.8223-83.4961 47.6074-79.3457Q52.3926-75.1953 54.8828-67.3584Q57.373-59.5215 57.373-48.4375L57.373-21.4844L62.1094-21.4844L62.1094-48.4375Q62.1094-61.0352 59.0576-69.9219Q56.0059-78.8086 50.1709-83.5205Q44.3359-88.2324 35.9375-88.2324Q27.5879-88.2324 21.7529-83.5205Q15.918-78.8086 12.8662-69.9219Q9.81445-61.0352 9.81445-48.4375L9.81445-21.4844L14.5508-21.4844L14.5508-48.4375Q14.5508-59.5215 17.041-67.3584Q19.5312-75.1953 24.3164-79.3457Q29.1016-83.4961 35.9375-83.4961Z"/>
  </g>
  <g id="Light-S" transform="matrix(1 0 0 1 1117.99 696)">
   <path d="M35.1351-58.9038Q38.4623-58.9038 40.8508-61.2846Q43.2393-63.6655 43.2393-67.0415Q43.2393-70.4175 40.8508-72.7984Q38.4623-75.1793 35.1351-75.1793Q31.7256-75.1793 29.354-72.7984Q26.9824-70.4175 26.9824-67.0415Q26.9824-63.6655 29.354-61.2846Q31.7256-58.9038 35.1351-58.9038ZM29.6865 15.9721Q31.1549 15.9721 32.2477 14.8626Q33.3405 13.753 33.3405 12.2999L33.3405-7.45595L35.1351-22.1387L36.9301-7.45595L36.9301 12.2999Q36.9301 13.753 38.0229 14.8626Q39.1157 15.9721 40.5841 15.9721Q42.086 15.9721 43.1544 14.8626Q44.2228 13.753 44.2228 12.2999L44.2228-40.3287Q44.2228-40.6553 44.5494-40.7041Q44.8761-40.7529 45.0226-40.46Q47.3394-36.2017 49.0274-32.3846Q50.7154-28.5675 51.8082-25.614Q52.901-22.6606 53.4566-21.0121Q53.9785-19.5928 55.3247-18.9243Q56.6709-18.2559 58.0905-18.7627Q59.1983-19.1195 59.8591-20.0658Q60.5199-21.0121 60.5199-22.1537Q60.5199-22.7921 60.3399-23.3292Q60.2758-23.558 59.5173-25.6948Q58.7588-27.8315 57.4295-31.1359Q56.1002-34.4404 54.3221-38.2163Q52.5439-41.9922 50.4148-45.5896Q48.2857-49.187 45.9201-51.8794Q43.2915-54.8983 39.1983-54.8983L31.1061-54.8983Q26.9791-54.8983 24.3355-51.8794Q21.9696-49.187 19.8574-45.5896Q17.7452-41.9922 15.9503-38.2163Q14.1553-34.4404 12.8335-31.1359Q11.5117-27.8315 10.7531-25.6948Q9.99451-23.558 9.94568-23.3292Q9.76562-22.7921 9.76562-22.1387Q9.76562-21.0121 10.419-20.0658Q11.0723-19.1195 12.2139-18.7627Q13.6332-18.2559 14.9794-18.9243Q16.3256-19.5928 16.8139-21.0121Q17.3848-22.6606 18.4944-25.614Q19.604-28.5675 21.2599-32.3846Q22.9159-36.2017 25.233-40.46Q25.3794-40.7529 25.7061-40.7041Q26.0328-40.6553 26.0328-40.3287L26.0328 12.2999Q26.0328 13.753 27.1086 14.8626Q28.1845 15.9721 29.6865 15.9721ZM35.1351-82.6029Q42.0049-82.6029 46.8128-78.5812Q51.6207-74.5595 54.1412-66.9421Q56.6617-59.3246 56.6617-48.5283L56.6617-22.1202L60.5199-22.1202L60.5199-48.5283Q60.5199-60.6112 57.5439-69.0741Q54.568-77.537 48.9071-81.9917Q43.2462-86.4464 35.1351-86.4464Q27.0582-86.4464 21.3973-81.9917Q15.7364-77.537 12.7678-69.0741Q9.79919-60.6112 9.79919-48.5283L9.79919-22.1049L13.6576-22.1049L13.6576-48.5283Q13.6576-59.3246 16.1706-66.9421Q18.6836-74.5595 23.4914-78.5812Q28.2992-82.6029 35.1351-82.6029Z"/>
  </g>
  <g id="Thin-S" transform="matrix(1 0 0 1 822.33 696)">
   <path d="M34.074-58.6034Q37.2811-58.6034 39.5996-60.9042Q41.9182-63.2051 41.9182-66.461Q41.9182-69.7169 39.5996-72.0177Q37.2811-74.3186 34.074-74.3186Q30.8046-74.3186 28.4931-72.0177Q26.1815-69.7169 26.1815-66.461Q26.1815-63.2051 28.4931-60.9042Q30.8046-58.6034 34.074-58.6034ZM28.8456 13.5898Q30.2541 13.5898 31.3069 12.5303Q32.3597 11.4709 32.3597 10.0978L32.3597-8.85719L34.074-22.9396L35.7888-8.85719L35.7888 10.0978Q35.7888 11.4709 36.8416 12.5303Q37.8944 13.5898 39.3029 13.5898Q40.7248 13.5898 41.7532 12.5303Q42.7815 11.4709 42.7815 10.0978L42.7815-40.3889Q42.7815-40.6953 43.0882-40.7441Q43.3948-40.7929 43.5413-40.5Q45.7579-36.422 47.3858-32.7551Q49.0138-29.0882 50.0665-26.2647Q51.1193-23.4412 51.635-21.8728Q52.1366-20.5137 53.4228-19.8653Q54.709-19.2168 56.0687-19.6836Q57.1563-20.0603 57.787-20.9666Q58.4177-21.8728 58.4177-22.9744Q58.4177-23.5529 58.2579-24.09Q58.1736-24.2987 57.4452-26.3554Q56.7168-28.4121 55.4376-31.5663Q54.1585-34.7205 52.4503-38.3564Q50.7421-41.9922 48.7031-45.4394Q46.6641-48.8866 44.3987-51.4589Q41.9101-54.3376 37.9572-54.3376L30.2053-54.3376Q26.2384-54.3376 23.7149-51.4589Q21.4489-48.8866 19.417-45.4394Q17.385-41.9922 15.6701-38.3564Q13.9552-34.7205 12.6934-31.5663Q11.4317-28.4121 10.703-26.3554Q9.97433-24.2987 9.9255-24.09Q9.76562-23.5529 9.76562-22.9396Q9.76562-21.8728 10.3789-20.9666Q10.9922-20.0603 12.0938-19.6836Q13.4529-19.2168 14.7391-19.8653Q16.0253-20.5137 16.5136-21.8728Q17.0646-23.4412 18.1241-26.2647Q19.1835-29.0882 20.7694-32.7551Q22.3552-36.422 24.5724-40.5Q24.7188-40.7929 25.0255-40.7441Q25.3321-40.6953 25.3321-40.3889L25.3321 10.0978Q25.3321 11.4709 26.3779 12.5303Q27.4237 13.5898 28.8456 13.5898ZM34.074-81.4217Q40.9239-81.4217 45.7619-77.5702Q50.5999-73.7187 53.1604-66.3915Q55.721-59.0643 55.721-48.6484L55.721-22.961L58.4177-22.961L58.4177-48.6484Q58.4177-60.0505 55.542-67.9529Q52.6663-75.8553 47.2356-79.9697Q41.8049-84.0842 34.074-84.0842Q26.3575-84.0842 20.9269-79.9697Q15.4962-75.8553 12.6376-67.9529Q9.77901-60.0505 9.77901-48.6484L9.77901-22.9256L12.4764-22.9256L12.4764-48.6484Q12.4764-59.0643 15.0195-66.3915Q17.5626-73.7187 22.4003-77.5702Q27.238-81.4217 34.074-81.4217Z"/>
  </g>
  <g id="Ultralight-S" transform="matrix(1 0 0 1 526.158 696)">
   <path d="M33.5304-58.4496Q36.676-58.4496 38.9587-60.7094Q41.2415-62.9692 41.2415-66.1636Q41.2415-69.3581 38.9587-71.6179Q36.676-73.8777 33.5304-73.8777Q30.3329-73.8777 28.0521-71.6179Q25.7713-69.3581 25.7713-66.1636Q25.7713-62.9692 28.0521-60.7094Q30.3329-58.4496 33.5304-58.4496ZM28.4149 12.3695Q29.7928 12.3695 30.825 11.3358Q31.8573 10.302 31.8573 8.96988L31.8573-9.57489L33.5304-23.3498L35.2043-9.57489L35.2043 8.96988Q35.2043 10.302 36.2366 11.3358Q37.2688 12.3695 38.6467 12.3695Q40.0276 12.3695 41.0355 11.3358Q42.0433 10.302 42.0433 8.96988L42.0433-40.4198Q42.0433-40.7158 42.3397-40.7646Q42.6361-40.8134 42.7826-40.5205Q44.9478-36.5349 46.545-32.9449Q48.1422-29.3549 49.1745-26.598Q50.2068-23.8411 50.7019-22.3137Q51.1932-20.9854 52.4487-20.3472Q53.7041-19.709 55.0331-20.1553Q56.1104-20.5421 56.7257-21.4279Q57.341-22.3137 57.341-23.3948Q57.341-23.9426 57.1915-24.4797Q57.0969-24.678 56.3839-26.6937Q55.6709-28.7094 54.4174-31.7867Q53.1639-34.864 51.4915-38.4281Q49.8192-41.9922 47.8264-45.3625Q45.8336-48.7328 43.6195-51.2436Q41.2025-54.0504 37.3215-54.0504L29.744-54.0504Q25.8591-54.0504 23.3971-51.2436Q21.1823-48.7328 19.1914-45.3625Q17.2005-41.9922 15.5266-38.4281Q13.8527-34.864 12.6217-31.7867Q11.3907-28.7094 10.6773-26.6937Q9.96399-24.678 9.91516-24.4797Q9.76562-23.9426 9.76562-23.3498Q9.76562-22.3137 10.3584-21.4279Q10.9512-20.5421 12.0323-20.1553Q13.3606-19.709 14.616-20.3472Q15.8714-20.9854 16.3597-22.3137Q16.9006-23.8411 17.9344-26.598Q18.9682-29.3549 20.5181-32.9449Q22.068-36.5349 24.234-40.5205Q24.3805-40.8134 24.6769-40.7646Q24.9733-40.7158 24.9733-40.4198L24.9733 8.96988Q24.9733 10.302 26.0036 11.3358Q27.034 12.3695 28.4149 12.3695ZM33.5304-80.8167Q40.3702-80.8167 45.2236-77.0523Q50.0771-73.288 52.6581-66.1095Q55.2391-58.931 55.2391-48.7099L55.2391-23.3917L57.341-23.3917L57.341-48.7099Q57.341-59.7633 54.5166-67.3786Q51.6922-74.9939 46.3795-78.9341Q41.0667-82.8743 33.5304-82.8743Q25.9987-82.8743 20.686-78.9341Q15.3732-74.9939 12.571-67.3786Q9.76868-59.7633 9.76868-48.7099L9.76868-23.3459L11.8713-23.3459L11.8713-48.7099Q11.8713-58.931 14.4299-66.1095Q16.9884-73.288 21.8414-77.0523Q26.6945-80.8167 33.5304-80.8167Z"/>
  </g>
 </g>
</svg>
