<?xml version="1.0" encoding="UTF-8"?>
<!--Generator: Apple Native CoreSVG 175.5-->
<!DOCTYPE svg
PUBLIC "-//W3C//DTD SVG 1.1//EN"
       "http://www.w3.org/Graphics/SVG/1.1/DTD/svg11.dtd">
<svg version="1.1" xmlns="http://www.w3.org/2000/svg" xmlns:xlink="http://www.w3.org/1999/xlink" width="3300" height="2200">
 <!--glyph: "", point size: 100.0, font version: "18.0d9e1", template writer version: "84"-->
 <g id="Notes">
  <rect height="2200" id="artboard" style="fill:white;opacity:1" width="3300" x="0" y="0"/>
  <line style="fill:none;stroke:black;opacity:1;stroke-width:0.5;" x1="263" x2="3036" y1="292" y2="292"/>
  <text style="stroke:none;fill:black;font-family:sans-serif;font-size:13;font-weight:bold;" transform="matrix(1 0 0 1 263 322)">Weight/Scale Variations</text>
  <text style="stroke:none;fill:black;font-family:sans-serif;font-size:13;text-anchor:middle;" transform="matrix(1 0 0 1 559.711 322)">Ultralight</text>
  <text style="stroke:none;fill:black;font-family:sans-serif;font-size:13;text-anchor:middle;" transform="matrix(1 0 0 1 856.422 322)">Thin</text>
  <text style="stroke:none;fill:black;font-family:sans-serif;font-size:13;text-anchor:middle;" transform="matrix(1 0 0 1 1153.13 322)">Light</text>
  <text style="stroke:none;fill:black;font-family:sans-serif;font-size:13;text-anchor:middle;" transform="matrix(1 0 0 1 1449.84 322)">Regular</text>
  <text style="stroke:none;fill:black;font-family:sans-serif;font-size:13;text-anchor:middle;" transform="matrix(1 0 0 1 1746.56 322)">Medium</text>
  <text style="stroke:none;fill:black;font-family:sans-serif;font-size:13;text-anchor:middle;" transform="matrix(1 0 0 1 2043.27 322)">Semibold</text>
  <text style="stroke:none;fill:black;font-family:sans-serif;font-size:13;text-anchor:middle;" transform="matrix(1 0 0 1 2339.98 322)">Bold</text>
  <text style="stroke:none;fill:black;font-family:sans-serif;font-size:13;text-anchor:middle;" transform="matrix(1 0 0 1 2636.69 322)">Heavy</text>
  <text style="stroke:none;fill:black;font-family:sans-serif;font-size:13;text-anchor:middle;" transform="matrix(1 0 0 1 2933.4 322)">Black</text>
  <line style="fill:none;stroke:black;opacity:1;stroke-width:0.5;" x1="263" x2="3036" y1="1903" y2="1903"/>
  <g transform="matrix(1 0 0 1 263 1933)">
   <path d="M9.24805 0.830078Q10.8691 0.830078 12.2949 0.214844Q13.7207-0.400391 14.8096-1.49414Q15.8984-2.58789 16.5186-4.01367Q17.1387-5.43945 17.1387-7.05078Q17.1387-8.66211 16.5186-10.0879Q15.8984-11.5137 14.8047-12.6074Q13.7109-13.7012 12.2852-14.3164Q10.8594-14.9316 9.23828-14.9316Q7.62695-14.9316 6.20117-14.3164Q4.77539-13.7012 3.69141-12.6074Q2.60742-11.5137 1.9873-10.0879Q1.36719-8.66211 1.36719-7.05078Q1.36719-5.43945 1.9873-4.01367Q2.60742-2.58789 3.69629-1.49414Q4.78516-0.400391 6.21094 0.214844Q7.63672 0.830078 9.24805 0.830078ZM9.24805-0.654297Q7.91992-0.654297 6.7627-1.14746Q5.60547-1.64062 4.73145-2.51953Q3.85742-3.39844 3.36426-4.56055Q2.87109-5.72266 2.87109-7.05078Q2.87109-8.37891 3.35938-9.54102Q3.84766-10.7031 4.72168-11.582Q5.5957-12.4609 6.75293-12.9541Q7.91016-13.4473 9.23828-13.4473Q10.5762-13.4473 11.7383-12.9541Q12.9004-12.4609 13.7793-11.582Q14.6582-10.7031 15.1514-9.54102Q15.6445-8.37891 15.6445-7.05078Q15.6445-5.72266 15.1514-4.56055Q14.6582-3.39844 13.7793-2.51953Q12.9004-1.64062 11.7432-1.14746Q10.5859-0.654297 9.24805-0.654297ZM5.6543-7.05078Q5.6543-6.72852 5.85938-6.52832Q6.06445-6.32812 6.40625-6.32812L8.51562-6.32812L8.51562-4.20898Q8.51562-3.88672 8.71094-3.67676Q8.90625-3.4668 9.23828-3.4668Q9.56055-3.4668 9.77051-3.67676Q9.98047-3.88672 9.98047-4.20898L9.98047-6.32812L12.0898-6.32812Q12.4219-6.32812 12.627-6.52832Q12.832-6.72852 12.832-7.05078Q12.832-7.38281 12.627-7.58789Q12.4219-7.79297 12.0898-7.79297L9.98047-7.79297L9.98047-9.90234Q9.98047-10.2344 9.77051-10.4443Q9.56055-10.6543 9.23828-10.6543Q8.90625-10.6543 8.71094-10.4443Q8.51562-10.2344 8.51562-9.90234L8.51562-7.79297L6.40625-7.79297Q6.06445-7.79297 5.85938-7.58789Q5.6543-7.38281 5.6543-7.05078Z"/>
  </g>
  <g transform="matrix(1 0 0 1 281.867 1933)">
   <path d="M11.709 2.91016Q13.75 2.91016 15.5518 2.12891Q17.3535 1.34766 18.7305-0.0292969Q20.1074-1.40625 20.8887-3.20801Q21.6699-5.00977 21.6699-7.05078Q21.6699-9.0918 20.8887-10.8936Q20.1074-12.6953 18.7305-14.0723Q17.3535-15.4492 15.5469-16.2305Q13.7402-17.0117 11.6992-17.0117Q9.6582-17.0117 7.85645-16.2305Q6.05469-15.4492 4.68262-14.0723Q3.31055-12.6953 2.5293-10.8936Q1.74805-9.0918 1.74805-7.05078Q1.74805-5.00977 2.5293-3.20801Q3.31055-1.40625 4.6875-0.0292969Q6.06445 1.34766 7.86621 2.12891Q9.66797 2.91016 11.709 2.91016ZM11.709 1.25Q9.98047 1.25 8.47656 0.605469Q6.97266-0.0390625 5.83496-1.17676Q4.69727-2.31445 4.05762-3.81836Q3.41797-5.32227 3.41797-7.05078Q3.41797-8.7793 4.05762-10.2832Q4.69727-11.7871 5.83008-12.9297Q6.96289-14.0723 8.4668-14.7119Q9.9707-15.3516 11.6992-15.3516Q13.4277-15.3516 14.9365-14.7119Q16.4453-14.0723 17.583-12.9297Q18.7207-11.7871 19.3652-10.2832Q20.0098-8.7793 20.0098-7.05078Q20.0098-5.32227 19.3701-3.81836Q18.7305-2.31445 17.5879-1.17676Q16.4453-0.0390625 14.9414 0.605469Q13.4375 1.25 11.709 1.25ZM7.17773-7.05078Q7.17773-6.69922 7.41211-6.47461Q7.64648-6.25 8.01758-6.25L10.8887-6.25L10.8887-3.36914Q10.8887-2.99805 11.1133-2.76855Q11.3379-2.53906 11.6895-2.53906Q12.0605-2.53906 12.29-2.76855Q12.5195-2.99805 12.5195-3.36914L12.5195-6.25L15.4004-6.25Q15.7715-6.25 16.001-6.47461Q16.2305-6.69922 16.2305-7.05078Q16.2305-7.42188 16.001-7.65137Q15.7715-7.88086 15.4004-7.88086L12.5195-7.88086L12.5195-10.752Q12.5195-11.1328 12.29-11.3623Q12.0605-11.5918 11.6895-11.5918Q11.3379-11.5918 11.1133-11.3574Q10.8887-11.123 10.8887-10.752L10.8887-7.88086L8.01758-7.88086Q7.63672-7.88086 7.40723-7.65137Q7.17773-7.42188 7.17773-7.05078Z"/>
  </g>
  <g transform="matrix(1 0 0 1 305.646 1933)">
   <path d="M14.9707 5.66406Q17.0605 5.66406 18.96 5.01465Q20.8594 4.36523 22.4512 3.19336Q24.043 2.02148 25.2197 0.429688Q26.3965-1.16211 27.0459-3.06641Q27.6953-4.9707 27.6953-7.05078Q27.6953-9.14062 27.0459-11.04Q26.3965-12.9395 25.2197-14.5312Q24.043-16.123 22.4512-17.2998Q20.8594-18.4766 18.9551-19.126Q17.0508-19.7754 14.9609-19.7754Q12.8711-19.7754 10.9717-19.126Q9.07227-18.4766 7.48535-17.2998Q5.89844-16.123 4.72168-14.5312Q3.54492-12.9395 2.90039-11.04Q2.25586-9.14062 2.25586-7.05078Q2.25586-4.9707 2.90527-3.06641Q3.55469-1.16211 4.72656 0.429688Q5.89844 2.02148 7.49023 3.19336Q9.08203 4.36523 10.9814 5.01465Q12.8809 5.66406 14.9707 5.66406ZM14.9707 3.84766Q13.1641 3.84766 11.5283 3.2959Q9.89258 2.74414 8.53516 1.74805Q7.17773 0.751953 6.17676-0.610352Q5.17578-1.97266 4.62891-3.6084Q4.08203-5.24414 4.08203-7.05078Q4.08203-8.86719 4.62891-10.5029Q5.17578-12.1387 6.17188-13.501Q7.16797-14.8633 8.52539-15.8594Q9.88281-16.8555 11.5186-17.4023Q13.1543-17.9492 14.9609-17.9492Q16.7773-17.9492 18.4131-17.4023Q20.0488-16.8555 21.4111-15.8594Q22.7734-14.8633 23.7744-13.501Q24.7754-12.1387 25.3223-10.5029Q25.8691-8.86719 25.8691-7.05078Q25.8691-5.24414 25.3223-3.6084Q24.7754-1.97266 23.7793-0.610352Q22.7832 0.751953 21.4209 1.74805Q20.0586 2.74414 18.4229 3.2959Q16.7871 3.84766 14.9707 3.84766ZM9.19922-7.05078Q9.19922-6.66992 9.45801-6.4209Q9.7168-6.17188 10.1172-6.17188L14.0625-6.17188L14.0625-2.2168Q14.0625-1.81641 14.3115-1.55762Q14.5605-1.29883 14.9512-1.29883Q15.3516-1.29883 15.6104-1.55273Q15.8691-1.80664 15.8691-2.2168L15.8691-6.17188L19.8242-6.17188Q20.2246-6.17188 20.4785-6.4209Q20.7324-6.66992 20.7324-7.05078Q20.7324-7.46094 20.4785-7.71484Q20.2246-7.96875 19.8242-7.96875L15.8691-7.96875L15.8691-11.9141Q15.8691-12.3242 15.6104-12.583Q15.3516-12.8418 14.9512-12.8418Q14.5605-12.8418 14.3115-12.583Q14.0625-12.3242 14.0625-11.9141L14.0625-7.96875L10.1172-7.96875Q9.70703-7.96875 9.45312-7.71484Q9.19922-7.46094 9.19922-7.05078Z"/>
  </g>
  <text style="stroke:none;fill:black;font-family:sans-serif;font-size:13;font-weight:bold;" transform="matrix(1 0 0 1 263 1953)">Design Variations</text>
  <text style="stroke:none;fill:black;font-family:sans-serif;font-size:13;" transform="matrix(1 0 0 1 263 1971)">Symbols are supported in up to nine weights and three scales.</text>
  <text style="stroke:none;fill:black;font-family:sans-serif;font-size:13;" transform="matrix(1 0 0 1 263 1989)">For optimal layout with text and other symbols, vertically align</text>
  <text style="stroke:none;fill:black;font-family:sans-serif;font-size:13;" transform="matrix(1 0 0 1 263 2007)">symbols with the adjacent text.</text>
  <line style="fill:none;stroke:#00AEEF;stroke-width:0.5;opacity:1.0;" x1="776" x2="776" y1="1919" y2="1933"/>
  <g transform="matrix(1 0 0 1 776 1933)">
   <path d="M3.31055 0.15625Q3.70117 0.15625 3.91602-0.00976562Q4.13086-0.175781 4.26758-0.585938L5.52734-4.0332L11.2891-4.0332L12.5488-0.585938Q12.6855-0.175781 12.9004-0.00976562Q13.1152 0.15625 13.4961 0.15625Q13.8867 0.15625 14.1162-0.0585938Q14.3457-0.273438 14.3457-0.644531Q14.3457-0.869141 14.2383-1.17188L9.6582-13.3691Q9.48242-13.8184 9.17969-14.043Q8.87695-14.2676 8.4082-14.2676Q7.5-14.2676 7.17773-13.3789L2.59766-1.16211Q2.49023-0.859375 2.49023-0.634766Q2.49023-0.263672 2.70996-0.0537109Q2.92969 0.15625 3.31055 0.15625ZM6.00586-5.51758L8.37891-12.0898L8.42773-12.0898L10.8008-5.51758Z"/>
  </g>
  <line style="fill:none;stroke:#00AEEF;stroke-width:0.5;opacity:1.0;" x1="793.197" x2="793.197" y1="1919" y2="1933"/>
  <text style="stroke:none;fill:black;font-family:sans-serif;font-size:13;font-weight:bold;" transform="matrix(1 0 0 1 776 1953)">Margins</text>
  <text style="stroke:none;fill:black;font-family:sans-serif;font-size:13;" transform="matrix(1 0 0 1 776 1971)">Leading and trailing margins on the left and right side of each symbol</text>
  <text style="stroke:none;fill:black;font-family:sans-serif;font-size:13;" transform="matrix(1 0 0 1 776 1989)">can be adjusted by modifying the x-location of the margin guidelines.</text>
  <text style="stroke:none;fill:black;font-family:sans-serif;font-size:13;" transform="matrix(1 0 0 1 776 2007)">Modifications are automatically applied proportionally to all</text>
  <text style="stroke:none;fill:black;font-family:sans-serif;font-size:13;" transform="matrix(1 0 0 1 776 2025)">scales and weights.</text>
  <g transform="matrix(1 0 0 1 1289 1933)">
   <path d="M2.8418 1.86523L4.54102 3.57422Q5.18555 4.22852 5.90332 4.17969Q6.62109 4.13086 7.31445 3.35938L18.0078-8.42773L17.041-9.4043L6.42578 2.27539Q6.16211 2.57812 5.89355 2.61719Q5.625 2.65625 5.27344 2.30469L4.10156 1.14258Q3.75 0.791016 3.79395 0.522461Q3.83789 0.253906 4.14062-0.0195312L15.6152-10.8203L14.6387-11.7871L3.04688-0.898438Q2.30469-0.214844 2.25098 0.498047Q2.19727 1.21094 2.8418 1.86523ZM9.25781-16.3281Q8.94531-16.0254 8.90625-15.6348Q8.86719-15.2441 9.04297-14.9512Q9.21875-14.6777 9.55566-14.541Q9.89258-14.4043 10.3809-14.5215Q11.4746-14.7754 12.5977-14.7314Q13.7207-14.6875 14.7949-13.9844L14.209-12.5293Q13.9551-11.9043 14.0674-11.4404Q14.1797-10.9766 14.5801-10.5664L16.875-8.25195Q17.2363-7.88086 17.5781-7.82227Q17.9199-7.76367 18.3398-7.8418L19.4043-8.03711L20.0684-7.36328L20.0293-6.80664Q20-6.43555 20.1221-6.12305Q20.2441-5.81055 20.6055-5.44922L21.3672-4.70703Q21.7285-4.3457 22.1533-4.33105Q22.5781-4.31641 22.9297-4.66797L25.8398-7.58789Q26.1914-7.93945 26.1816-8.35449Q26.1719-8.76953 25.8105-9.13086L25.0391-9.89258Q24.6875-10.2539 24.3799-10.3857Q24.0723-10.5176 23.7109-10.4883L23.1348-10.4395L22.4902-11.0742L22.7344-12.1973Q22.832-12.6172 22.6953-12.9834Q22.5586-13.3496 22.1191-13.7891L19.9219-15.9766Q18.6719-17.2168 17.2607-17.8369Q15.8496-18.457 14.4189-18.4814Q12.9883-18.5059 11.665-17.959Q10.3418-17.4121 9.25781-16.3281ZM10.752-15.957Q11.6602-16.6211 12.7002-16.9043Q13.7402-17.1875 14.8047-17.085Q15.8691-16.9824 16.8701-16.5137Q17.8711-16.0449 18.7012-15.2051L21.1328-12.793Q21.3086-12.6172 21.3525-12.4512Q21.3965-12.2852 21.3379-12.0312L21.0156-10.5469L22.5195-9.0625L23.5059-9.12109Q23.6914-9.13086 23.7891-9.09668Q23.8867-9.0625 24.0332-8.91602L24.6094-8.33984L22.168-5.89844L21.5918-6.47461Q21.4453-6.62109 21.4062-6.71875Q21.3672-6.81641 21.377-7.01172L21.4453-7.98828L19.9512-9.47266L18.4277-9.21875Q18.1836-9.16992 18.042-9.2041Q17.9004-9.23828 17.7148-9.41406L15.7129-11.416Q15.5176-11.5918 15.4932-11.7529Q15.4688-11.9141 15.5859-12.1875L16.4648-14.2773Q15.293-15.3711 13.8281-15.791Q12.3633-16.2109 10.8398-15.7617Q10.7227-15.7324 10.6885-15.8057Q10.6543-15.8789 10.752-15.957Z"/>
  </g>
  <text style="stroke:none;fill:black;font-family:sans-serif;font-size:13;font-weight:bold;" transform="matrix(1 0 0 1 1289 1953)">Exporting</text>
  <text style="stroke:none;fill:black;font-family:sans-serif;font-size:13;" transform="matrix(1 0 0 1 1289 1971)">Symbols should be outlined when exporting to ensure the</text>
  <text style="stroke:none;fill:black;font-family:sans-serif;font-size:13;" transform="matrix(1 0 0 1 1289 1989)">design is preserved when submitting to Xcode.</text>
  <text id="template-version" style="stroke:none;fill:black;font-family:sans-serif;font-size:13;text-anchor:end;" transform="matrix(1 0 0 1 3036 1933)">Template v.2.0</text>
  <text style="stroke:none;fill:black;font-family:sans-serif;font-size:13;text-anchor:end;" transform="matrix(1 0 0 1 3036 1951)">Requires Xcode 12 or greater</text>
  <text id="descriptive-name" style="stroke:none;fill:black;font-family:sans-serif;font-size:13;text-anchor:end;" transform="matrix(1 0 0 1 3036 1969)">Generated from custom.broken heart</text>
  <text style="stroke:none;fill:black;font-family:sans-serif;font-size:13;text-anchor:end;" transform="matrix(1 0 0 1 3036 1987)">Typeset at 100 points</text>
  <text style="stroke:none;fill:black;font-family:sans-serif;font-size:13;" transform="matrix(1 0 0 1 263 726)">Small</text>
  <text style="stroke:none;fill:black;font-family:sans-serif;font-size:13;" transform="matrix(1 0 0 1 263 1156)">Medium</text>
  <text style="stroke:none;fill:black;font-family:sans-serif;font-size:13;" transform="matrix(1 0 0 1 263 1586)">Large</text>
 </g>
 <g id="Guides">
  <g id="H-reference" style="fill:#27AAE1;stroke:none;" transform="matrix(1 0 0 1 339 696)">
   <path d="M0.993347 0L3.6377 0L29.3282-67.1326L30.0301-67.1326L30.0301-70.459L28.1227-70.459ZM11.6882-24.4797L46.9818-24.4797L46.2311-26.7288L12.4382-26.7288ZM55.1193 0L57.7637 0L30.6381-70.459L29.4327-70.459L29.4327-67.1326Z"/>
  </g>
  <line id="Baseline-S" style="fill:none;stroke:#27AAE1;opacity:1;stroke-width:0.5;" x1="263" x2="3036" y1="696" y2="696"/>
  <line id="Capline-S" style="fill:none;stroke:#27AAE1;opacity:1;stroke-width:0.5;" x1="263" x2="3036" y1="625.541" y2="625.541"/>
  <g id="H-reference" style="fill:#27AAE1;stroke:none;" transform="matrix(1 0 0 1 339 1126)">
   <path d="M0.993347 0L3.6377 0L29.3282-67.1326L30.0301-67.1326L30.0301-70.459L28.1227-70.459ZM11.6882-24.4797L46.9818-24.4797L46.2311-26.7288L12.4382-26.7288ZM55.1193 0L57.7637 0L30.6381-70.459L29.4327-70.459L29.4327-67.1326Z"/>
  </g>
  <line id="Baseline-M" style="fill:none;stroke:#27AAE1;opacity:1;stroke-width:0.5;" x1="263" x2="3036" y1="1126" y2="1126"/>
  <line id="Capline-M" style="fill:none;stroke:#27AAE1;opacity:1;stroke-width:0.5;" x1="263" x2="3036" y1="1055.54" y2="1055.54"/>
  <g id="H-reference" style="fill:#27AAE1;stroke:none;" transform="matrix(1 0 0 1 339 1556)">
   <path d="M0.993347 0L3.6377 0L29.3282-67.1326L30.0301-67.1326L30.0301-70.459L28.1227-70.459ZM11.6882-24.4797L46.9818-24.4797L46.2311-26.7288L12.4382-26.7288ZM55.1193 0L57.7637 0L30.6381-70.459L29.4327-70.459L29.4327-67.1326Z"/>
  </g>
  <line id="Baseline-L" style="fill:none;stroke:#27AAE1;opacity:1;stroke-width:0.5;" x1="263" x2="3036" y1="1556" y2="1556"/>
  <line id="Capline-L" style="fill:none;stroke:#27AAE1;opacity:1;stroke-width:0.5;" x1="263" x2="3036" y1="1485.54" y2="1485.54"/>
  <line id="left-margin" style="fill:none;stroke:#FF3B30;stroke-width:0.5;opacity:1.0;" x1="1405.6" x2="1405.6" y1="1030.73" y2="1150.14"/>
  <line id="right-margin" style="fill:none;stroke:#FF3B30;stroke-width:0.5;opacity:1.0;" x1="1494.09" x2="1494.09" y1="1030.73" y2="1150.14"/>
 </g>
 <g id="Symbols">
  <g id="Black-L" transform="matrix(1 0 0 1 2864.71 1556)">
   <path d="M145.105-87.9808C131.705-118.381 99.2046-117.281 78.7046-101.081L83.5046-85.7808L84.8046-81.5808L82.8046-78.4808L72.0046-61.2808L77.4046-51.4808L79.8046-46.9808L77.3046-43.9808L69.1046-34.0808L77.6046-18.3808L78.5046-16.6808L78.1046-15.5808L68.0046 9.91923L71.1046-15.3808L58.5046-31.7808L56.8046-33.9808L58.4046-37.3808L63.0046-47.0808L56.0046-57.4808L53.6046-61.0808L56.0046-65.4808L65.8046-83.1808L57.8046-101.781C37.3046-117.181 5.70461-117.781-7.49539-87.8808C-33.7954-28.4808 62.1046 25.9192 68.6046 29.5192C68.6046 29.5192 68.7046 29.7192 68.8046 29.6192C68.9046 29.6192 171.405-28.4808 145.105-87.9808Z"/>
  </g>
  <g id="Heavy-L" transform="matrix(1 0 0 1 2569.53 1556)">
   <path d="M76.4451-99.652L81.1451-84.852L82.3451-81.052L80.5451-78.152L69.7451-61.052L75.2451-51.152L77.4451-47.152L75.1451-44.252L67.1451-34.352L75.7451-18.752L76.5451-17.252L76.1451-16.252L66.4451 8.84805L69.7451-16.152L57.5451-32.252L56.0451-34.252L57.5451-37.352L62.3451-47.152L55.3451-57.552L53.0451-60.952L55.2451-64.952L65.0451-82.652L57.6451-100.052C37.5451-115.952 5.64514-117.052-7.55486-87.252C-33.4549-28.852 60.7451 24.548 67.0451 28.048C67.0451 28.048 67.1451 28.248 67.2451 28.148C67.3451 28.248 167.945-28.852 142.145-87.252C128.845-117.352 96.5451-115.952 76.4451-99.652Z"/>
  </g>
  <g id="Bold-L" transform="matrix(1 0 0 1 2274.2 1556)">
   <path d="M74.4217-98.3281L79.0217-84.1281L80.1217-80.6281L78.4217-78.0281L67.7217-60.9281L73.3217-50.9281L75.3217-47.3281L73.2217-44.7281L65.3217-34.7281L74.0217-19.2281L74.7217-17.9281L74.3217-16.9281L65.0217 7.77188L68.5217-16.8281L56.5217-32.7281L55.1217-34.6281L56.5217-37.4281L61.4217-47.3281L54.5217-57.7281L52.4217-60.8281L54.4217-64.4281L64.3217-82.0281L57.5217-98.2281C37.9217-114.728 5.62173-116.428-7.67827-86.5281C-32.9783-29.2281 59.5217 23.1719 65.7217 26.6719C65.7217 26.6719 65.8217 26.8719 65.9217 26.7719C66.0217 26.8719 164.822-29.2281 139.422-86.5281C126.222-116.428 94.0217-114.728 74.4217-98.3281Z"/>
  </g>
  <g id="Semibold-L" transform="matrix(1 0 0 1 1979.01 1556)">
   <path d="M72.166-97.4253L76.666-83.7253L77.666-80.6253L76.166-78.2253L65.566-61.2253L71.266-51.1253L73.066-47.9253L71.266-45.5253L63.366-35.5253L72.066-20.1253L72.766-18.9253L72.466-18.0253L63.566 6.27466L67.266-17.9253L55.566-33.7253L54.266-35.4253L55.566-37.9253L60.666-47.9253L53.766-58.3253L51.866-61.1253L53.666-64.3253L63.466-81.8253L57.266-96.8253C38.166-113.825 5.46604-116.225-7.73396-86.3253C-32.634-30.0253 58.066 21.3747 64.166 24.7747C64.166 24.7747 64.266 24.8747 64.366 24.8747C64.466 24.9747 161.366-30.0253 136.466-86.3253C123.466-115.825 91.366-113.925 72.166-97.4253Z"/>
  </g>
  <g id="Medium-L" transform="matrix(1 0 0 1 1684.07 1556)">
   <path d="M69.6307-95.9602L73.9307-82.7602L74.8307-80.0602L73.5307-77.9602L63.0307-61.0602L68.7307-50.8602L70.3307-48.0602L68.7307-45.9602L61.1307-36.0602L69.8307-20.8602L70.4307-19.8602L70.1307-19.0602L61.8307 4.73982L65.6307-18.9602L54.2307-34.3602L53.1307-35.9602L54.2307-38.1602L59.4307-48.1602L52.6307-58.4602L51.0307-60.9602L52.6307-63.8602L62.4307-81.2602L56.8307-94.8602C38.2307-112.26 5.33068-115.26-7.86932-85.5602C-32.0693-30.6602 56.4307 19.5398 62.4307 22.8398C62.4307 22.8398 62.5307 22.9398 62.6307 22.9398C62.7307 23.0398 157.331-30.6602 133.031-85.5602C120.131-114.66 88.3307-112.46 69.6307-95.9602Z"/>
  </g>
  <g id="Regular-L" transform="matrix(1 0 0 1 1389.21 1556)">
   <path d="M67.1552-94.7902L71.3552-82.1902L72.1552-79.7902L70.9552-77.8902L60.6552-61.1902L66.4552-50.9902L67.8552-48.5902L66.4552-46.6902L58.9552-36.7902L67.6552-21.7902L68.1552-20.8902L67.8552-20.1902L59.8552 3.0098L63.8552-20.1902L52.8552-35.3902L51.8552-36.7902L52.8552-38.6902L58.1552-48.6902L51.4552-58.8902L50.0552-61.0902L51.4552-63.5902L61.1552-80.7902L56.1552-92.9902C38.3552-111.09 5.15521-114.79-7.94479-85.0902C-31.6448-31.4902 54.7552 17.4098 60.5552 20.7098C60.5552 20.7098 60.6552 20.8098 60.7552 20.8098C60.8552 20.9098 153.055-31.4902 129.455-84.9902C116.755-113.69 85.3552-111.19 67.1552-94.7902Z"/>
  </g>
  <g id="Light-L" transform="matrix(1 0 0 1 1094.37 1556)">
   <path d="M64.5836-93.2381L68.5836-81.2381L69.2836-79.2381L68.2836-77.5381L58.1836-60.9381L63.9836-50.7381L65.1836-48.6381L63.9836-46.9381L56.7836-37.1381L65.4836-22.3381L65.8836-21.5381L65.6836-20.9381L58.0836 1.66191L62.1836-21.0381L51.4836-35.9381L50.5836-37.1381L51.4836-38.7381L56.8836-48.7381L50.2836-58.9381L49.0836-60.8381L50.2836-62.9381L59.8836-79.9381L55.5836-90.6381C38.5836-109.238 4.98365-113.638-8.01635-84.1381C-31.2164-32.0381 52.9836 15.7619 58.6836 18.8619C58.6836 18.8619 58.7836 18.9619 58.8836 18.9619C58.9836 19.0619 148.884-32.0381 125.784-84.1381C113.284-112.338 82.2836-109.638 64.5836-93.2381Z"/>
  </g>
  <g id="Thin-L" transform="matrix(1 0 0 1 799.457 1556)">
   <path d="M62.3848-91.7749L66.2848-80.2749L66.8848-78.5749L65.9848-77.1749L55.9848-60.8749L61.8848-50.6749L62.8848-48.8749L61.8848-47.4749L54.7848-37.6749L63.4848-23.0749L63.8848-22.4749L63.6848-21.8749L56.4848 0.225077L60.6848-21.9749L50.2848-36.5749L49.4848-37.6749L50.1848-38.9749L55.6848-48.8749L49.0848-59.0749L47.9848-60.7749L48.9848-62.5749L58.5848-79.2749L54.8848-88.4749C38.6848-107.675 4.78481-112.875-8.21519-83.4749C-30.5152-32.5749 51.4848 13.9251 56.9848 16.9251C56.9848 16.9251 57.0848 17.0251 57.0848 17.0251C57.1848 17.1251 144.785-32.5749 122.285-83.4749C110.185-111.075 79.4848-108.175 62.3848-91.7749Z"/>
  </g>
  <g id="Ultralight-L" transform="matrix(1 0 0 1 504.631 1556)">
   <path d="M58.9411-88.1534L62.3411-78.1534L62.8411-76.7534L62.2411-75.5534L53.4411-59.3534L59.4411-49.1534L60.2411-47.6534L59.3411-46.4534L52.4411-36.7534L61.1411-22.4534L61.4411-21.9534L61.3411-21.4534L54.4411 0.046575L58.7411-21.5534L48.7411-35.9534L48.1411-36.8534L48.7411-37.9534L54.3411-47.8534L47.8411-57.9534L47.0411-59.2534L47.7411-60.7534L56.1411-77.2534L52.0411-87.5534C35.8411-105.253 4.04106-109.353-8.25894-81.3534C-30.1589-31.8534 49.7411 13.3466 55.0411 16.3466C55.0411 16.3466 55.0411 16.4466 55.1411 16.4466C55.2411 16.5466 140.441-31.8534 118.641-81.3534C106.441-109.053 75.2411-105.253 58.9411-88.1534Z"/>
  </g>
  <g id="Black-M" transform="matrix(1 0 0 1 2882.86 1126)">
   <path d="M109.782-76.3343C99.3824-99.9343 74.1824-99.0343 58.2824-86.5343L61.9824-74.7343L62.9824-71.4343L61.4824-69.0343L53.0824-55.7343L57.2824-48.1343L59.1824-44.6343L57.2824-42.2343L50.9824-34.5343L57.5824-22.4343L58.2824-21.1343L57.9824-20.2343L49.9824-0.534319L52.3824-20.1343L42.6824-32.7343L41.3824-34.4343L42.6824-37.1343L46.2824-44.6343L40.7824-52.7343L38.8824-55.6343L40.7824-59.0343L48.3824-72.7343L42.1824-87.1343C26.2824-99.0343 1.78238-99.5343-8.51762-76.3343C-28.9176-30.2343 45.4824 11.9657 50.4824 14.7657C50.4824 14.7657 50.4824 14.8657 50.5824 14.8657C50.7824 14.8657 130.182-30.2343 109.782-76.3343Z"/>
  </g>
  <g id="Heavy-M" transform="matrix(1 0 0 1 2587.32 1126)">
   <path d="M56.5108-85.463L60.1108-74.063L61.0108-71.063L59.6108-68.863L51.2108-55.563L55.4108-47.863L57.1108-44.763L55.3108-42.563L49.1108-34.863L56.0108-22.663L56.6108-21.463L56.3108-20.663L48.8108-1.26297L51.4108-20.663L41.9108-33.163L40.7108-34.763L41.9108-37.163L45.6108-44.763L40.2108-52.763L38.4108-55.363L40.1108-58.463L47.7108-72.163L42.0108-85.663C26.4108-97.963 1.71078-98.863-8.58922-75.663C-28.5892-30.363 44.4108 11.037 49.3108 13.737C49.3108 13.737 49.3108 13.837 49.4108 13.837C49.5108 13.837 127.511-30.363 107.511-75.663C97.2108-99.163 72.1108-98.063 56.5108-85.463Z"/>
  </g>
  <g id="Bold-M" transform="matrix(1 0 0 1 2291.73 1126)">
   <path d="M54.939-84.381L58.439-73.381L59.339-70.681L58.039-68.681L49.739-55.481L54.039-47.681L55.639-44.881L54.039-42.881L47.939-35.181L54.639-22.981L55.239-21.981L54.939-21.281L47.739-2.081L50.439-21.181L41.139-33.481L40.139-34.981L41.239-37.181L45.039-44.881L39.639-52.881L38.039-55.281L39.639-58.081L47.239-71.781L41.939-84.281C26.639-97.081 1.63901-98.381-8.66099-75.181C-28.261-30.781 43.339 9.919 48.239 12.619C48.239 12.619 48.239 12.719 48.339 12.719C48.439 12.719 124.939-30.681 105.339-75.081C95.139-98.381 70.139-97.081 54.939-84.381Z"/>
  </g>
  <g id="Semibold-M" transform="matrix(1 0 0 1 1996.16 1126)">
   <path d="M53.1915-83.6785L56.6915-72.9785L57.4915-70.5785L56.2915-68.6785L48.0915-55.4785L52.4915-47.5785L53.8915-45.0785L52.4915-43.3785L46.4915-35.6785L53.2915-23.7785L53.7915-22.8785L53.4915-22.1785L46.5915-3.37846L49.4915-22.1785L40.3915-34.3785L39.3915-35.6785L40.3915-37.5785L44.2915-45.3785L38.9915-53.3785L37.5915-55.5785L38.9915-58.0785L46.5915-71.6785L41.6915-83.1785C26.8915-96.3785 1.49149-98.2785-8.70851-75.0785C-28.0085-31.4785 42.3915 8.42154 47.0915 11.0215C47.0915 11.0215 47.0915 11.1215 47.1915 11.1215C47.2915 11.1215 122.391-31.4785 103.091-75.0785C92.9915-97.9785 68.0915-96.4785 53.1915-83.6785Z"/>
  </g>
  <g id="Medium-M" transform="matrix(1 0 0 1 1700.84 1126)">
   <path d="M51.3038-82.5653L54.7038-72.3653L55.4038-70.2653L54.4038-68.5653L46.3038-55.4653L50.8038-47.5653L52.0038-45.3653L50.7038-43.6653L44.8038-35.9653L51.6038-24.1653L52.1038-23.3653L51.9038-22.7653L45.2038-4.46527L48.2038-22.8653L39.4038-34.8653L38.5038-36.0653L39.4038-37.7653L43.4038-45.5653L38.1038-53.5653L36.8038-55.4653L38.1038-57.6653L45.7038-71.1653L41.4038-81.6653C27.0038-95.2653 1.40377-97.5653-8.79623-74.4653C-27.5962-31.9653 41.0038 7.03473 45.7038 9.53473C45.7038 9.53473 45.7038 9.63473 45.8038 9.63473C45.9038 9.63473 119.204-31.8653 100.404-74.4653C90.4038-97.0653 65.8038-95.3653 51.3038-82.5653Z"/>
  </g>
  <g id="Regular-M" transform="matrix(1 0 0 1 1405.6 1126)">
   <path d="M49.3124-81.6098L52.5124-71.8098L53.1124-70.0098L52.2124-68.5098L44.2124-55.6098L48.7124-47.7098L49.8124-45.8098L48.7124-44.3098L43.0124-36.7098L49.8124-25.0098L50.2124-24.3098L50.0124-23.7098L43.8124-5.70982L46.9124-23.7098L38.3124-35.5098L37.5124-36.6098L38.3124-38.0098L42.4124-45.8098L37.2124-53.8098L36.1124-55.5098L37.2124-57.4098L44.7124-70.7098L40.9124-80.1098C27.0124-94.2098 1.21242-97.0098-8.88758-74.0098C-27.1876-32.5098 39.7124 5.49018 44.2124 7.99018C44.2124 7.99018 44.2124 8.09018 44.3124 8.09018C44.4124 8.09018 115.912-32.4098 97.5124-73.9098C87.8124-96.2098 63.4124-94.3098 49.3124-81.6098Z"/>
  </g>
  <g id="Light-M" transform="matrix(1 0 0 1 1110.26 1126)">
   <path d="M47.4488-80.4552L50.5488-71.1552L51.0488-69.5552L50.2488-68.2552L42.3488-55.4552L46.8488-47.5552L47.7488-45.9552L46.7488-44.6552L41.1488-37.0552L48.1488-25.5552L48.4488-24.9552L48.2488-24.4552L42.3488-6.85521L45.5488-24.4552L37.2488-36.0552L36.5488-37.0552L37.2488-38.2552L41.4488-45.9552L36.3488-53.8552L35.3488-55.3552L36.2488-57.0552L43.7488-70.2552L40.3488-78.5552C27.1488-92.9552 1.14877-96.3552-8.95123-73.4552C-26.8512-32.9552 38.4488 4.04479 42.8488 6.44479C42.8488 6.44479 42.8488 6.54479 42.9488 6.54479C43.0488 6.54479 112.749-32.9552 94.8488-73.4552C85.2488-95.2552 61.1488-93.1552 47.4488-80.4552Z"/>
  </g>
  <g id="Thin-M" transform="matrix(1 0 0 1 814.991 1126)">
   <path d="M45.5612-79.1762L48.5612-70.2762L49.0612-68.9762L48.3612-67.8762L40.6612-55.1762L45.2612-47.2762L46.0612-45.8762L45.1612-44.7762L39.6612-37.1762L46.3612-25.8762L46.6612-25.3762L46.5612-24.9762L40.9612-7.87625L44.1612-25.0762L36.1612-36.3762L35.5612-37.1762L36.1612-38.1762L40.4612-45.8762L35.3612-53.7762L34.5612-55.0762L35.3612-56.4762L42.7612-69.4762L39.9612-76.5762C27.2612-91.4762 1.06121-95.4762-9.03879-72.6762C-26.4388-33.2762 37.0612 2.72375 41.3612 5.12375C41.3612 5.12375 41.3612 5.22375 41.4612 5.22375C41.5612 5.22375 109.461-33.2762 92.0612-72.6762C82.5612-94.1762 58.7612-91.8762 45.5612-79.1762Z"/>
  </g>
  <g id="Ultralight-M" transform="matrix(1 0 0 1 519.704 1126)">
   <path d="M42.9697-76.4182L45.6697-68.6182L46.0697-67.6182L45.5697-66.7182L38.7697-54.1182L43.3697-46.2182L44.0697-45.1182L43.3697-44.2182L37.9697-36.6182L44.6697-25.5182L44.8697-25.1182L44.7697-24.7182L39.5697-8.0182L42.8697-24.8182L35.0697-35.9182L34.5697-36.6182L35.0697-37.5182L39.3697-45.2182L34.3697-53.0182L33.7697-54.0182L34.3697-55.1182L40.8697-67.9182L37.6697-75.9182C25.1697-89.6182 0.469694-92.8182-9.13031-71.1182C-26.0303-32.7182 35.7697 2.2818 39.9697 4.6818C39.9697 4.6818 39.9697 4.7818 40.0697 4.7818C40.1697 4.7818 106.27-32.7182 89.2697-71.0182C79.7697-92.5182 55.6697-89.6182 42.9697-76.4182Z"/>
  </g>
  <g id="Black-S" transform="matrix(1 0 0 1 2896.41 696)">
   <path d="M83.3908-67.3C75.1908-85.7 55.4908-85 43.0908-75.2L45.9908-65.9L46.7908-63.3L45.5908-61.4L38.9908-51L42.2908-45.1L43.7908-42.4L42.2908-40.5L37.3908-34.5L42.5908-25L43.0908-24L42.7908-23.3L36.5908-7.89997L38.4908-23.3L30.8908-33.2L29.8908-34.5L30.8908-36.6L33.6908-42.5L29.3908-48.7L27.8908-50.9L29.3908-53.6L35.2908-64.4L30.3908-75.7C17.8908-85-1.20918-85.4-9.30918-67.2C-25.2092-31.1 33.0908 1.90003 36.9908 4.00003C36.9908 4.00003 36.9908 4.10003 37.0908 4.10003C37.1908 4.10003 99.3908-31.1 83.3908-67.3Z"/>
  </g>
  <g id="Heavy-S" transform="matrix(1 0 0 1 2600.6 696)">
   <path d="M41.7708-74.4105L44.5708-65.4105L45.2708-63.1105L44.1708-61.3105L37.6708-50.9105L40.9708-44.9105L42.2708-42.5105L40.8708-40.8105L35.9708-34.8105L41.1708-25.3105L41.6708-24.4105L41.4708-23.8105L35.6708-8.51048L37.6708-23.7105L30.1708-33.4105L29.2708-34.6105L30.1708-36.5105L33.0708-42.5105L28.8708-48.8105L27.4708-50.8105L28.8708-53.2105L34.7708-63.9105L30.2708-74.5105C18.0708-84.2105-1.3292-84.9105-9.3292-66.8105C-25.0292-31.4105 32.1708 1.08952 36.0708 3.18952C36.0708 3.18952 36.0708 3.28952 36.1708 3.28952C36.2708 3.28952 97.2708-31.3105 81.6708-66.8105C73.5708-85.1105 53.8708-84.2105 41.7708-74.4105Z"/>
  </g>
  <g id="Bold-S" transform="matrix(1 0 0 1 2304.76 696)">
   <path d="M40.4557-73.5537L43.2557-64.9537L43.9557-62.8537L42.9557-61.2537L36.4557-50.8537L39.8557-44.7537L41.0557-42.5537L39.7557-40.9537L34.9557-34.9537L40.2557-25.5537L40.7557-24.7537L40.5557-24.1537L34.8557-9.15371L36.9557-24.0537L29.6557-33.7537L28.8557-34.9537L29.6557-36.6537L32.6557-42.6537L28.4557-48.9537L27.1557-50.8537L28.3557-53.0537L34.2557-63.7537L30.1557-73.5537C18.2557-83.5537-1.34435-84.6537-9.44435-66.4537C-24.6443-31.6537 31.4557 0.146294 35.2557 2.24629C35.2557 2.24629 35.2557 2.34629 35.3557 2.34629C35.4557 2.34629 95.3557-31.6537 79.9557-66.4537C71.9557-84.5537 52.4557-83.5537 40.4557-73.5537Z"/>
  </g>
  <g id="Semibold-S" transform="matrix(1 0 0 1 2008.97 696)">
   <path d="M39.0635-72.9921L41.7635-64.6921L42.3635-62.7921L41.4635-61.2921L35.0635-50.9921L38.4635-44.7921L39.5635-42.8921L38.4635-41.3921L33.7635-35.3921L39.0635-26.0921L39.4635-25.3921L39.2635-24.8921L33.8635-10.0921L36.0635-24.7921L28.9635-34.2921L28.1635-35.2921L28.9635-36.7921L32.0635-42.8921L27.8635-49.1921L26.7635-50.8921L27.8635-52.8921L33.8635-63.4921L30.0635-72.5921C18.4635-82.9921-1.43652-84.3921-9.43652-66.1921C-24.5365-32.0921 30.5635-0.892143 34.2635 1.20786C34.2635 1.20786 34.2635 1.30786 34.3635 1.30786C34.4635 1.30786 93.2635-31.9921 78.1635-66.1921C70.2635-84.1921 50.7635-82.9921 39.0635-72.9921Z"/>
  </g>
  <g id="Medium-S" transform="matrix(1 0 0 1 1713.37 696)">
   <path d="M37.5879-72.1234L40.1879-64.1234L40.6879-62.4234L39.8879-61.1234L33.5879-50.9234L37.0879-44.7234L38.0879-43.0234L37.0879-41.7234L32.4879-35.7234L37.7879-26.5234L38.1879-25.9234L37.8879-25.4234L32.7879-11.0234L35.0879-25.4234L28.1879-34.8234L27.4879-35.7234L28.1879-37.0234L31.3879-43.1234L27.2879-49.4234L26.2879-50.9234L27.2879-52.6234L33.1879-63.1234L29.7879-71.3234C18.4879-82.0234-1.51207-83.8234-9.51207-65.8234C-24.2121-32.4234 29.5879-2.02344 33.1879-0.0234386C33.1879-0.0234386 33.1879 0.0765614 33.2879 0.0765614C33.3879 0.0765614 90.7879-32.4234 75.9879-65.7234C68.1879-83.4234 48.8879-82.1234 37.5879-72.1234Z"/>
  </g>
  <g id="Regular-S" transform="matrix(1 0 0 1 1417.83 696)">
   <path d="M35.9482-71.2177L38.4482-63.6177L38.9482-62.2177L38.2482-61.0177L31.9482-50.9177L35.4482-44.7177L36.2482-43.2177L35.3482-42.0177L30.8482-36.0177L36.1482-26.9177L36.4482-26.4177L36.2482-26.0177L31.6482-11.8177L34.0482-25.9177L27.3482-35.1177L26.7482-35.9177L27.3482-37.0177L30.5482-43.1177L26.4482-49.3177L25.5482-50.6177L26.4482-52.1177L32.3482-62.5177L29.3482-69.9177C18.5482-80.9177-1.65181-83.1177-9.55181-65.1177C-23.9518-32.8177 28.4482-3.11773 31.9482-1.11773C31.9482-1.11773 31.9482-1.01773 32.0482-1.01773C32.1482-1.01773 88.0482-32.7177 73.7482-65.2177C66.0482-82.7177 47.0482-81.2177 35.9482-71.2177Z"/>
  </g>
  <g id="Light-S" transform="matrix(1 0 0 1 1122.22 696)">
   <path d="M34.4726-70.3998L36.9726-63.0998L37.3726-61.8998L36.7726-60.8998L30.5726-50.8998L34.0726-44.6998L34.7726-43.3998L34.0726-42.3998L29.6726-36.4998L34.9726-27.4998L35.2726-26.9998L35.1726-26.5998L30.5726-12.8998L32.9726-26.5998L26.4726-35.5998L25.9726-36.3998L26.4726-37.3998L29.7726-43.4998L25.7726-49.6998L24.9726-50.7998L25.6726-52.0998L31.4726-62.3998L28.9726-68.8998C18.6726-80.1998-1.7274-82.8998-9.6274-64.8998C-23.6274-33.2998 27.4726-4.29977 30.8726-2.39977C30.8726-2.39977 30.8726-2.29977 30.9726-2.29977C31.0726-2.29977 85.5726-33.1998 71.5726-64.8998C64.0726-82.0998 45.1726-80.3998 34.4726-70.3998Z"/>
  </g>
  <g id="Thin-S" transform="matrix(1 0 0 1 826.585 696)">
   <path d="M33.097-69.3875L35.497-62.3875L35.897-61.3875L35.397-60.4875L29.297-50.5875L32.897-44.3875L33.497-43.2875L32.897-42.3875L28.597-36.4875L33.897-27.6875L34.097-27.2875L33.997-26.9875L29.497-13.5875L31.997-27.0875L25.697-35.9875L25.197-36.5875L25.597-37.3875L28.897-43.3875L24.897-49.5875L24.297-50.5875L24.897-51.6875L30.697-61.8875L28.497-67.4875C18.797-79.0875-1.80296-82.2875-9.70296-64.3875C-23.303-33.4875 26.497-5.28747 29.797-3.38747C29.797-3.38747 29.797-3.28747 29.897-3.38747C29.997-3.38747 83.097-33.4875 69.497-64.3875C62.097-81.1875 43.397-79.3875 33.097-69.3875Z"/>
  </g>
  <g id="Ultralight-S" transform="matrix(1 0 0 1 530.98 696)">
   <path d="M31.0253-67.2388L33.1253-61.1388L33.4253-60.3388L33.0253-59.6388L27.7253-49.7388L31.3253-43.5388L31.8253-42.6388L31.3253-41.9388L27.1253-36.0388L32.4253-27.3388L32.6253-27.0388L32.5253-26.7388L28.3253-13.6388L30.9253-26.7388L24.8253-35.4388L24.4253-35.9388L24.8253-36.6388L28.2253-42.6388L24.3253-48.7388L23.8253-49.5388L24.3253-50.4388L29.4253-60.4388L26.9253-66.7388C17.0253-77.5388-2.27471-80.1388-9.77471-63.1388C-22.9747-33.0388 25.4253-5.53878 28.7253-3.73878C28.7253-3.73878 28.7253-3.63878 28.8253-3.73878C28.9253-3.73878 80.6253-33.0388 67.3253-63.1388C59.9253-79.9388 40.9253-77.6388 31.0253-67.2388Z"/>
  </g>
 </g>
</svg>
