<?xml version="1.0" encoding="UTF-8"?>
<!--Generator: Apple Native CoreSVG 175.5-->
<!DOCTYPE svg
PUBLIC "-//W3C//DTD SVG 1.1//EN"
       "http://www.w3.org/Graphics/SVG/1.1/DTD/svg11.dtd">
<svg version="1.1" xmlns="http://www.w3.org/2000/svg" xmlns:xlink="http://www.w3.org/1999/xlink" width="3300" height="2200">
 <!--glyph: "", point size: 100.0, font version: "18.0d9e1", template writer version: "84"-->
 <g id="Notes">
  <rect height="2200" id="artboard" style="fill:white;opacity:1" width="3300" x="0" y="0"/>
  <line style="fill:none;stroke:black;opacity:1;stroke-width:0.5;" x1="263" x2="3036" y1="292" y2="292"/>
  <text style="stroke:none;fill:black;font-family:sans-serif;font-size:13;font-weight:bold;" transform="matrix(1 0 0 1 263 322)">Weight/Scale Variations</text>
  <text style="stroke:none;fill:black;font-family:sans-serif;font-size:13;text-anchor:middle;" transform="matrix(1 0 0 1 559.711 322)">Ultralight</text>
  <text style="stroke:none;fill:black;font-family:sans-serif;font-size:13;text-anchor:middle;" transform="matrix(1 0 0 1 856.422 322)">Thin</text>
  <text style="stroke:none;fill:black;font-family:sans-serif;font-size:13;text-anchor:middle;" transform="matrix(1 0 0 1 1153.13 322)">Light</text>
  <text style="stroke:none;fill:black;font-family:sans-serif;font-size:13;text-anchor:middle;" transform="matrix(1 0 0 1 1449.84 322)">Regular</text>
  <text style="stroke:none;fill:black;font-family:sans-serif;font-size:13;text-anchor:middle;" transform="matrix(1 0 0 1 1746.56 322)">Medium</text>
  <text style="stroke:none;fill:black;font-family:sans-serif;font-size:13;text-anchor:middle;" transform="matrix(1 0 0 1 2043.27 322)">Semibold</text>
  <text style="stroke:none;fill:black;font-family:sans-serif;font-size:13;text-anchor:middle;" transform="matrix(1 0 0 1 2339.98 322)">Bold</text>
  <text style="stroke:none;fill:black;font-family:sans-serif;font-size:13;text-anchor:middle;" transform="matrix(1 0 0 1 2636.69 322)">Heavy</text>
  <text style="stroke:none;fill:black;font-family:sans-serif;font-size:13;text-anchor:middle;" transform="matrix(1 0 0 1 2933.4 322)">Black</text>
  <line style="fill:none;stroke:black;opacity:1;stroke-width:0.5;" x1="263" x2="3036" y1="1903" y2="1903"/>
  <g transform="matrix(1 0 0 1 263 1933)">
   <path d="M9.24805 0.830078Q10.8691 0.830078 12.2949 0.214844Q13.7207-0.400391 14.8096-1.49414Q15.8984-2.58789 16.5186-4.01367Q17.1387-5.43945 17.1387-7.05078Q17.1387-8.66211 16.5186-10.0879Q15.8984-11.5137 14.8047-12.6074Q13.7109-13.7012 12.2852-14.3164Q10.8594-14.9316 9.23828-14.9316Q7.62695-14.9316 6.20117-14.3164Q4.77539-13.7012 3.69141-12.6074Q2.60742-11.5137 1.9873-10.0879Q1.36719-8.66211 1.36719-7.05078Q1.36719-5.43945 1.9873-4.01367Q2.60742-2.58789 3.69629-1.49414Q4.78516-0.400391 6.21094 0.214844Q7.63672 0.830078 9.24805 0.830078ZM9.24805-0.654297Q7.91992-0.654297 6.7627-1.14746Q5.60547-1.64062 4.73145-2.51953Q3.85742-3.39844 3.36426-4.56055Q2.87109-5.72266 2.87109-7.05078Q2.87109-8.37891 3.35938-9.54102Q3.84766-10.7031 4.72168-11.582Q5.5957-12.4609 6.75293-12.9541Q7.91016-13.4473 9.23828-13.4473Q10.5762-13.4473 11.7383-12.9541Q12.9004-12.4609 13.7793-11.582Q14.6582-10.7031 15.1514-9.54102Q15.6445-8.37891 15.6445-7.05078Q15.6445-5.72266 15.1514-4.56055Q14.6582-3.39844 13.7793-2.51953Q12.9004-1.64062 11.7432-1.14746Q10.5859-0.654297 9.24805-0.654297ZM5.6543-7.05078Q5.6543-6.72852 5.85938-6.52832Q6.06445-6.32812 6.40625-6.32812L8.51562-6.32812L8.51562-4.20898Q8.51562-3.88672 8.71094-3.67676Q8.90625-3.4668 9.23828-3.4668Q9.56055-3.4668 9.77051-3.67676Q9.98047-3.88672 9.98047-4.20898L9.98047-6.32812L12.0898-6.32812Q12.4219-6.32812 12.627-6.52832Q12.832-6.72852 12.832-7.05078Q12.832-7.38281 12.627-7.58789Q12.4219-7.79297 12.0898-7.79297L9.98047-7.79297L9.98047-9.90234Q9.98047-10.2344 9.77051-10.4443Q9.56055-10.6543 9.23828-10.6543Q8.90625-10.6543 8.71094-10.4443Q8.51562-10.2344 8.51562-9.90234L8.51562-7.79297L6.40625-7.79297Q6.06445-7.79297 5.85938-7.58789Q5.6543-7.38281 5.6543-7.05078Z"/>
  </g>
  <g transform="matrix(1 0 0 1 281.867 1933)">
   <path d="M11.709 2.91016Q13.75 2.91016 15.5518 2.12891Q17.3535 1.34766 18.7305-0.0292969Q20.1074-1.40625 20.8887-3.20801Q21.6699-5.00977 21.6699-7.05078Q21.6699-9.0918 20.8887-10.8936Q20.1074-12.6953 18.7305-14.0723Q17.3535-15.4492 15.5469-16.2305Q13.7402-17.0117 11.6992-17.0117Q9.6582-17.0117 7.85645-16.2305Q6.05469-15.4492 4.68262-14.0723Q3.31055-12.6953 2.5293-10.8936Q1.74805-9.0918 1.74805-7.05078Q1.74805-5.00977 2.5293-3.20801Q3.31055-1.40625 4.6875-0.0292969Q6.06445 1.34766 7.86621 2.12891Q9.66797 2.91016 11.709 2.91016ZM11.709 1.25Q9.98047 1.25 8.47656 0.605469Q6.97266-0.0390625 5.83496-1.17676Q4.69727-2.31445 4.05762-3.81836Q3.41797-5.32227 3.41797-7.05078Q3.41797-8.7793 4.05762-10.2832Q4.69727-11.7871 5.83008-12.9297Q6.96289-14.0723 8.4668-14.7119Q9.9707-15.3516 11.6992-15.3516Q13.4277-15.3516 14.9365-14.7119Q16.4453-14.0723 17.583-12.9297Q18.7207-11.7871 19.3652-10.2832Q20.0098-8.7793 20.0098-7.05078Q20.0098-5.32227 19.3701-3.81836Q18.7305-2.31445 17.5879-1.17676Q16.4453-0.0390625 14.9414 0.605469Q13.4375 1.25 11.709 1.25ZM7.17773-7.05078Q7.17773-6.69922 7.41211-6.47461Q7.64648-6.25 8.01758-6.25L10.8887-6.25L10.8887-3.36914Q10.8887-2.99805 11.1133-2.76855Q11.3379-2.53906 11.6895-2.53906Q12.0605-2.53906 12.29-2.76855Q12.5195-2.99805 12.5195-3.36914L12.5195-6.25L15.4004-6.25Q15.7715-6.25 16.001-6.47461Q16.2305-6.69922 16.2305-7.05078Q16.2305-7.42188 16.001-7.65137Q15.7715-7.88086 15.4004-7.88086L12.5195-7.88086L12.5195-10.752Q12.5195-11.1328 12.29-11.3623Q12.0605-11.5918 11.6895-11.5918Q11.3379-11.5918 11.1133-11.3574Q10.8887-11.123 10.8887-10.752L10.8887-7.88086L8.01758-7.88086Q7.63672-7.88086 7.40723-7.65137Q7.17773-7.42188 7.17773-7.05078Z"/>
  </g>
  <g transform="matrix(1 0 0 1 305.646 1933)">
   <path d="M14.9707 5.66406Q17.0605 5.66406 18.96 5.01465Q20.8594 4.36523 22.4512 3.19336Q24.043 2.02148 25.2197 0.429688Q26.3965-1.16211 27.0459-3.06641Q27.6953-4.9707 27.6953-7.05078Q27.6953-9.14062 27.0459-11.04Q26.3965-12.9395 25.2197-14.5312Q24.043-16.123 22.4512-17.2998Q20.8594-18.4766 18.9551-19.126Q17.0508-19.7754 14.9609-19.7754Q12.8711-19.7754 10.9717-19.126Q9.07227-18.4766 7.48535-17.2998Q5.89844-16.123 4.72168-14.5312Q3.54492-12.9395 2.90039-11.04Q2.25586-9.14062 2.25586-7.05078Q2.25586-4.9707 2.90527-3.06641Q3.55469-1.16211 4.72656 0.429688Q5.89844 2.02148 7.49023 3.19336Q9.08203 4.36523 10.9814 5.01465Q12.8809 5.66406 14.9707 5.66406ZM14.9707 3.84766Q13.1641 3.84766 11.5283 3.2959Q9.89258 2.74414 8.53516 1.74805Q7.17773 0.751953 6.17676-0.610352Q5.17578-1.97266 4.62891-3.6084Q4.08203-5.24414 4.08203-7.05078Q4.08203-8.86719 4.62891-10.5029Q5.17578-12.1387 6.17188-13.501Q7.16797-14.8633 8.52539-15.8594Q9.88281-16.8555 11.5186-17.4023Q13.1543-17.9492 14.9609-17.9492Q16.7773-17.9492 18.4131-17.4023Q20.0488-16.8555 21.4111-15.8594Q22.7734-14.8633 23.7744-13.501Q24.7754-12.1387 25.3223-10.5029Q25.8691-8.86719 25.8691-7.05078Q25.8691-5.24414 25.3223-3.6084Q24.7754-1.97266 23.7793-0.610352Q22.7832 0.751953 21.4209 1.74805Q20.0586 2.74414 18.4229 3.2959Q16.7871 3.84766 14.9707 3.84766ZM9.19922-7.05078Q9.19922-6.66992 9.45801-6.4209Q9.7168-6.17188 10.1172-6.17188L14.0625-6.17188L14.0625-2.2168Q14.0625-1.81641 14.3115-1.55762Q14.5605-1.29883 14.9512-1.29883Q15.3516-1.29883 15.6104-1.55273Q15.8691-1.80664 15.8691-2.2168L15.8691-6.17188L19.8242-6.17188Q20.2246-6.17188 20.4785-6.4209Q20.7324-6.66992 20.7324-7.05078Q20.7324-7.46094 20.4785-7.71484Q20.2246-7.96875 19.8242-7.96875L15.8691-7.96875L15.8691-11.9141Q15.8691-12.3242 15.6104-12.583Q15.3516-12.8418 14.9512-12.8418Q14.5605-12.8418 14.3115-12.583Q14.0625-12.3242 14.0625-11.9141L14.0625-7.96875L10.1172-7.96875Q9.70703-7.96875 9.45312-7.71484Q9.19922-7.46094 9.19922-7.05078Z"/>
  </g>
  <text style="stroke:none;fill:black;font-family:sans-serif;font-size:13;font-weight:bold;" transform="matrix(1 0 0 1 263 1953)">Design Variations</text>
  <text style="stroke:none;fill:black;font-family:sans-serif;font-size:13;" transform="matrix(1 0 0 1 263 1971)">Symbols are supported in up to nine weights and three scales.</text>
  <text style="stroke:none;fill:black;font-family:sans-serif;font-size:13;" transform="matrix(1 0 0 1 263 1989)">For optimal layout with text and other symbols, vertically align</text>
  <text style="stroke:none;fill:black;font-family:sans-serif;font-size:13;" transform="matrix(1 0 0 1 263 2007)">symbols with the adjacent text.</text>
  <line style="fill:none;stroke:#00AEEF;stroke-width:0.5;opacity:1.0;" x1="776" x2="776" y1="1919" y2="1933"/>
  <g transform="matrix(1 0 0 1 776 1933)">
   <path d="M3.31055 0.15625Q3.70117 0.15625 3.91602-0.00976562Q4.13086-0.175781 4.26758-0.585938L5.52734-4.0332L11.2891-4.0332L12.5488-0.585938Q12.6855-0.175781 12.9004-0.00976562Q13.1152 0.15625 13.4961 0.15625Q13.8867 0.15625 14.1162-0.0585938Q14.3457-0.273438 14.3457-0.644531Q14.3457-0.869141 14.2383-1.17188L9.6582-13.3691Q9.48242-13.8184 9.17969-14.043Q8.87695-14.2676 8.4082-14.2676Q7.5-14.2676 7.17773-13.3789L2.59766-1.16211Q2.49023-0.859375 2.49023-0.634766Q2.49023-0.263672 2.70996-0.0537109Q2.92969 0.15625 3.31055 0.15625ZM6.00586-5.51758L8.37891-12.0898L8.42773-12.0898L10.8008-5.51758Z"/>
  </g>
  <line style="fill:none;stroke:#00AEEF;stroke-width:0.5;opacity:1.0;" x1="793.197" x2="793.197" y1="1919" y2="1933"/>
  <text style="stroke:none;fill:black;font-family:sans-serif;font-size:13;font-weight:bold;" transform="matrix(1 0 0 1 776 1953)">Margins</text>
  <text style="stroke:none;fill:black;font-family:sans-serif;font-size:13;" transform="matrix(1 0 0 1 776 1971)">Leading and trailing margins on the left and right side of each symbol</text>
  <text style="stroke:none;fill:black;font-family:sans-serif;font-size:13;" transform="matrix(1 0 0 1 776 1989)">can be adjusted by modifying the x-location of the margin guidelines.</text>
  <text style="stroke:none;fill:black;font-family:sans-serif;font-size:13;" transform="matrix(1 0 0 1 776 2007)">Modifications are automatically applied proportionally to all</text>
  <text style="stroke:none;fill:black;font-family:sans-serif;font-size:13;" transform="matrix(1 0 0 1 776 2025)">scales and weights.</text>
  <g transform="matrix(1 0 0 1 1289 1933)">
   <path d="M2.8418 1.86523L4.54102 3.57422Q5.18555 4.22852 5.90332 4.17969Q6.62109 4.13086 7.31445 3.35938L18.0078-8.42773L17.041-9.4043L6.42578 2.27539Q6.16211 2.57812 5.89355 2.61719Q5.625 2.65625 5.27344 2.30469L4.10156 1.14258Q3.75 0.791016 3.79395 0.522461Q3.83789 0.253906 4.14062-0.0195312L15.6152-10.8203L14.6387-11.7871L3.04688-0.898438Q2.30469-0.214844 2.25098 0.498047Q2.19727 1.21094 2.8418 1.86523ZM9.25781-16.3281Q8.94531-16.0254 8.90625-15.6348Q8.86719-15.2441 9.04297-14.9512Q9.21875-14.6777 9.55566-14.541Q9.89258-14.4043 10.3809-14.5215Q11.4746-14.7754 12.5977-14.7314Q13.7207-14.6875 14.7949-13.9844L14.209-12.5293Q13.9551-11.9043 14.0674-11.4404Q14.1797-10.9766 14.5801-10.5664L16.875-8.25195Q17.2363-7.88086 17.5781-7.82227Q17.9199-7.76367 18.3398-7.8418L19.4043-8.03711L20.0684-7.36328L20.0293-6.80664Q20-6.43555 20.1221-6.12305Q20.2441-5.81055 20.6055-5.44922L21.3672-4.70703Q21.7285-4.3457 22.1533-4.33105Q22.5781-4.31641 22.9297-4.66797L25.8398-7.58789Q26.1914-7.93945 26.1816-8.35449Q26.1719-8.76953 25.8105-9.13086L25.0391-9.89258Q24.6875-10.2539 24.3799-10.3857Q24.0723-10.5176 23.7109-10.4883L23.1348-10.4395L22.4902-11.0742L22.7344-12.1973Q22.832-12.6172 22.6953-12.9834Q22.5586-13.3496 22.1191-13.7891L19.9219-15.9766Q18.6719-17.2168 17.2607-17.8369Q15.8496-18.457 14.4189-18.4814Q12.9883-18.5059 11.665-17.959Q10.3418-17.4121 9.25781-16.3281ZM10.752-15.957Q11.6602-16.6211 12.7002-16.9043Q13.7402-17.1875 14.8047-17.085Q15.8691-16.9824 16.8701-16.5137Q17.8711-16.0449 18.7012-15.2051L21.1328-12.793Q21.3086-12.6172 21.3525-12.4512Q21.3965-12.2852 21.3379-12.0312L21.0156-10.5469L22.5195-9.0625L23.5059-9.12109Q23.6914-9.13086 23.7891-9.09668Q23.8867-9.0625 24.0332-8.91602L24.6094-8.33984L22.168-5.89844L21.5918-6.47461Q21.4453-6.62109 21.4062-6.71875Q21.3672-6.81641 21.377-7.01172L21.4453-7.98828L19.9512-9.47266L18.4277-9.21875Q18.1836-9.16992 18.042-9.2041Q17.9004-9.23828 17.7148-9.41406L15.7129-11.416Q15.5176-11.5918 15.4932-11.7529Q15.4688-11.9141 15.5859-12.1875L16.4648-14.2773Q15.293-15.3711 13.8281-15.791Q12.3633-16.2109 10.8398-15.7617Q10.7227-15.7324 10.6885-15.8057Q10.6543-15.8789 10.752-15.957Z"/>
  </g>
  <text style="stroke:none;fill:black;font-family:sans-serif;font-size:13;font-weight:bold;" transform="matrix(1 0 0 1 1289 1953)">Exporting</text>
  <text style="stroke:none;fill:black;font-family:sans-serif;font-size:13;" transform="matrix(1 0 0 1 1289 1971)">Symbols should be outlined when exporting to ensure the</text>
  <text style="stroke:none;fill:black;font-family:sans-serif;font-size:13;" transform="matrix(1 0 0 1 1289 1989)">design is preserved when submitting to Xcode.</text>
  <text id="template-version" style="stroke:none;fill:black;font-family:sans-serif;font-size:13;text-anchor:end;" transform="matrix(1 0 0 1 3036 1933)">Template v.2.0</text>
  <text style="stroke:none;fill:black;font-family:sans-serif;font-size:13;text-anchor:end;" transform="matrix(1 0 0 1 3036 1951)">Requires Xcode 12 or greater</text>
  <text id="descriptive-name" style="stroke:none;fill:black;font-family:sans-serif;font-size:13;text-anchor:end;" transform="matrix(1 0 0 1 3036 1969)">Generated from custom.pray</text>
  <text style="stroke:none;fill:black;font-family:sans-serif;font-size:13;text-anchor:end;" transform="matrix(1 0 0 1 3036 1987)">Typeset at 100 points</text>
  <text style="stroke:none;fill:black;font-family:sans-serif;font-size:13;" transform="matrix(1 0 0 1 263 726)">Small</text>
  <text style="stroke:none;fill:black;font-family:sans-serif;font-size:13;" transform="matrix(1 0 0 1 263 1156)">Medium</text>
  <text style="stroke:none;fill:black;font-family:sans-serif;font-size:13;" transform="matrix(1 0 0 1 263 1586)">Large</text>
 </g>
 <g id="Guides">
  <g id="H-reference" style="fill:#27AAE1;stroke:none;" transform="matrix(1 0 0 1 339 696)">
   <path d="M0.993347 0L3.6377 0L29.3282-67.1326L30.0301-67.1326L30.0301-70.459L28.1227-70.459ZM11.6882-24.4797L46.9818-24.4797L46.2311-26.7288L12.4382-26.7288ZM55.1193 0L57.7637 0L30.6381-70.459L29.4327-70.459L29.4327-67.1326Z"/>
  </g>
  <line id="Baseline-S" style="fill:none;stroke:#27AAE1;opacity:1;stroke-width:0.5;" x1="263" x2="3036" y1="696" y2="696"/>
  <line id="Capline-S" style="fill:none;stroke:#27AAE1;opacity:1;stroke-width:0.5;" x1="263" x2="3036" y1="625.541" y2="625.541"/>
  <g id="H-reference" style="fill:#27AAE1;stroke:none;" transform="matrix(1 0 0 1 339 1126)">
   <path d="M0.993347 0L3.6377 0L29.3282-67.1326L30.0301-67.1326L30.0301-70.459L28.1227-70.459ZM11.6882-24.4797L46.9818-24.4797L46.2311-26.7288L12.4382-26.7288ZM55.1193 0L57.7637 0L30.6381-70.459L29.4327-70.459L29.4327-67.1326Z"/>
  </g>
  <line id="Baseline-M" style="fill:none;stroke:#27AAE1;opacity:1;stroke-width:0.5;" x1="263" x2="3036" y1="1126" y2="1126"/>
  <line id="Capline-M" style="fill:none;stroke:#27AAE1;opacity:1;stroke-width:0.5;" x1="263" x2="3036" y1="1055.54" y2="1055.54"/>
  <g id="H-reference" style="fill:#27AAE1;stroke:none;" transform="matrix(1 0 0 1 339 1556)">
   <path d="M0.993347 0L3.6377 0L29.3282-67.1326L30.0301-67.1326L30.0301-70.459L28.1227-70.459ZM11.6882-24.4797L46.9818-24.4797L46.2311-26.7288L12.4382-26.7288ZM55.1193 0L57.7637 0L30.6381-70.459L29.4327-70.459L29.4327-67.1326Z"/>
  </g>
  <line id="Baseline-L" style="fill:none;stroke:#27AAE1;opacity:1;stroke-width:0.5;" x1="263" x2="3036" y1="1556" y2="1556"/>
  <line id="Capline-L" style="fill:none;stroke:#27AAE1;opacity:1;stroke-width:0.5;" x1="263" x2="3036" y1="1485.54" y2="1485.54"/>
  <line id="left-margin" style="fill:none;stroke:#00AEEF;stroke-width:0.5;opacity:1.0;" x1="1390.34" x2="1390.34" y1="1030.73" y2="1150.14"/>
  <line id="right-margin" style="fill:none;stroke:#00AEEF;stroke-width:0.5;opacity:1.0;" x1="1509.34" x2="1509.34" y1="1030.73" y2="1150.14"/>
 </g>
 <g id="Symbols">
  <g id="Black-L" transform="matrix(1 0 0 1 2856.3 1556)">
   <path d="M72.95-115.33C72.35-106.73 67.85-78.5305 65.95-67.1305C65.05-67.2305 64.05-67.1305 63.05-66.9305C54.05-65.1305 48.75-57.3305 47.25-43.8305C45.65-29.4305 45.95-11.5305 45.95-10.7305C45.95-8.93047 47.45-7.53047 49.25-7.53047C49.25-7.53047 49.25-7.53047 49.35-7.53047C51.15-7.53047 52.65-9.03047 52.55-10.8305C52.55-11.0305 52.25-29.1305 53.75-43.1305C54.85-53.4305 58.45-59.3305 64.25-60.4305C67.75-61.1305 70.35-57.9305 71.25-56.1305C72.25-54.0305 72.75-50.8305 72.75-47.1305C72.75-32.0305 72.45-25.7305 72.45-15.4305C72.45-0.730468 73.95 8.16953 67.05 18.5695C56.75 34.2695 53.25 35.2695 50.55 38.6695C47.85 42.1695 44.35 49.4695 44.35 49.4695L18.95 30.3695C18.95 30.3695 29.05 12.5695 29.05 2.16953C29.05-8.23047 24.05-30.7305 26.95-42.9305C28.85-51.0305 42.05-79.7305 46.65-91.7305C51.25-103.73 56.55-119.03 59.05-122.73C63.25-128.83 73.75-126.13 72.95-115.33ZM124.75 2.16953C124.75-8.23047 129.75-30.7305 126.85-42.9305C124.95-51.0305 111.75-79.7305 107.15-91.7305C102.55-103.73 97.65-119.03 95.15-122.73C90.85-128.93 80.45-126.23 81.25-115.33C81.85-106.73 86.15-78.5305 87.85-67.1305C88.75-67.2305 89.75-67.1305 90.65-66.9305C99.65-65.1305 104.95-57.3305 106.45-43.8305C108.05-29.4305 107.75-11.5305 107.75-10.7305C107.75-8.93047 106.25-7.53047 104.45-7.53047C104.45-7.53047 104.45-7.53047 104.35-7.53047C102.55-7.53047 101.05-9.03047 101.15-10.8305C101.15-11.0305 101.45-29.1305 99.95-43.1305C98.85-53.4305 95.25-59.3305 89.45-60.4305C85.95-61.1305 83.05-57.6305 82.15-55.6305C81.25-53.6305 81.05-50.7305 81.05-47.1305C81.05-32.0305 81.35-25.7305 81.35-15.4305C81.35-0.730468 79.85 8.16953 86.75 18.5695C97.15 34.1695 100.65 35.1695 103.35 38.6695C106.05 42.1695 109.55 49.4695 109.55 49.4695L134.85 30.2695C134.85 30.3695 124.75 12.5695 124.75 2.16953Z"/>
  </g>
  <g id="Heavy-L" transform="matrix(1 0 0 1 2561.04 1556)">
   <path d="M70.75-55.8902C71.75-53.8902 72.15-50.7902 72.15-46.9902C72.05-32.0902 71.75-25.8902 71.75-15.6902C71.75-1.19019 73.25 7.60981 66.45 17.8098C56.15 33.2098 52.75 34.2098 50.05 37.6098C47.35 41.0098 43.95 48.3098 43.95 48.3098L18.95 29.4098C18.95 29.4098 28.85 11.9098 28.85 1.60981C28.85-8.69019 23.95-30.7902 26.75-42.7902C28.65-50.7902 41.65-78.9902 46.15-90.7902C50.75-102.59 55.95-117.69 58.35-121.29C62.55-127.39 72.85-124.69 72.05-114.09C71.45-105.59 66.95-77.5902 65.15-66.4902C64.25-66.5902 63.35-66.4902 62.35-66.2902C53.55-64.4902 48.35-56.8902 46.95-43.6902C45.55-29.5902 45.75-11.8902 45.85-11.0902C45.85-9.39019 47.25-8.09019 48.95-8.09019C48.95-8.09019 48.95-8.09019 49.05-8.09019C50.75-8.09019 52.15-9.49019 52.05-11.1902C52.05-11.3902 51.75-29.2902 53.25-42.9902C54.35-53.2902 57.85-58.9902 63.75-60.1902C67.25-60.9902 69.85-57.7902 70.75-55.8902ZM124.05-42.7902C122.15-50.7902 109.15-78.9902 104.65-90.7902C100.05-102.59 95.25-117.69 92.85-121.29C88.65-127.39 78.35-124.69 79.15-114.09C79.75-105.59 83.95-77.5902 85.65-66.4902C86.55-66.5902 87.45-66.4902 88.45-66.2902C97.25-64.4902 102.45-56.8902 103.85-43.6902C105.35-29.5902 105.15-11.8902 105.15-11.0902C105.15-9.39019 103.75-8.09019 102.05-8.09019C102.05-8.09019 102.05-8.09019 101.95-8.09019C100.25-8.09019 98.85-9.49019 98.95-11.1902C98.95-11.3902 99.25-29.2902 97.75-42.9902C96.65-53.2902 93.15-58.9902 87.25-60.1902C83.75-60.8902 81.05-57.6902 80.15-55.7902C79.25-53.7902 78.85-50.7902 78.85-46.9902C78.85-32.0902 79.15-25.8902 79.15-15.6902C79.15-1.19019 77.65 7.60981 84.45 17.8098C94.75 33.2098 98.15 34.2098 100.85 37.6098C103.55 41.0098 106.95 48.3098 106.95 48.3098L131.95 29.4098C131.95 29.4098 122.05 11.9098 122.05 1.60981C121.95-8.69019 126.95-30.7902 124.05-42.7902Z"/>
  </g>
  <g id="Bold-L" transform="matrix(1 0 0 1 2264.63 1556)">
   <path d="M69.85-55.9301C70.65-53.8301 71.25-50.8301 71.25-46.8301C71.25-32.2301 70.95-26.0301 70.95-16.0301C70.95-1.7301 72.45 6.8699 65.65 16.9699C55.55 32.2699 52.15 33.2699 49.55 36.5699C46.95 39.9699 43.55 47.0699 43.55 47.0699L18.95 28.5699C18.95 28.5699 28.75 11.2699 28.75 1.1699C28.75-8.9301 23.85-30.8301 26.65-42.5301C28.55-50.4301 41.25-78.2301 45.85-89.8301C50.45-101.43 55.45-116.33 57.85-119.83C61.95-125.83 72.15-123.23 71.35-112.73C70.75-104.33 66.35-76.5301 64.55-65.7301C63.65-65.8301 62.75-65.7301 61.85-65.6301C53.25-63.9301 48.15-56.4301 46.75-43.4301C45.25-29.5301 45.55-12.1301 45.55-11.3301C45.55-9.7301 46.85-8.4301 48.45-8.4301C48.45-8.4301 48.45-8.4301 48.45-8.4301C50.05-8.4301 51.35-9.7301 51.35-11.3301C51.35-11.5301 51.05-29.1301 52.55-42.7301C53.65-53.0301 57.15-58.8301 62.95-60.0301C66.05-60.6301 69.05-56.9301 69.85-55.9301ZM123.65-42.6301C121.75-50.5301 109.05-78.3301 104.45-89.9301C99.95-101.53 95.25-116.43 92.85-119.93C88.75-125.93 78.55-123.33 79.35-112.83C79.95-104.43 84.15-76.6301 85.85-65.8301C86.75-65.9301 87.55-65.8301 88.55-65.7301C97.15-64.0301 102.25-56.5301 103.65-43.5301C105.15-29.6301 104.85-12.2301 104.85-11.4301C104.85-9.8301 103.55-8.5301 101.95-8.5301C101.95-8.5301 101.95-8.5301 101.95-8.5301C100.35-8.5301 99.05-9.8301 99.05-11.4301C99.05-11.6301 99.35-29.2301 97.85-42.8301C96.65-53.0301 93.15-58.8301 87.25-60.0301C84.15-60.6301 81.15-57.0301 80.35-56.0301C79.55-53.8301 79.05-50.8301 79.05-46.8301C79.05-32.2301 79.35-26.0301 79.35-16.0301C79.35-1.7301 77.85 6.8699 84.65 16.9699C94.75 32.1699 98.15 33.0699 100.75 36.4699C103.35 39.8699 106.75 46.9699 106.75 46.9699L131.35 28.3699C131.35 28.3699 121.55 11.0699 121.55 0.969901C121.55-9.0301 126.45-30.8301 123.65-42.6301Z"/>
  </g>
  <g id="Semibold-L" transform="matrix(1 0 0 1 1969.37 1556)">
   <path d="M68.85-56.1942C69.75-54.0942 70.45-50.9942 70.45-46.6942C70.45-32.2942 70.15-26.2942 70.15-16.3942C70.15-2.29424 71.65 6.20576 64.95 16.2058C54.95 31.2058 51.65 32.1058 49.05 35.4058C46.45 38.7058 43.15 45.8058 43.15 45.8058L18.95 27.5058C18.95 27.5058 28.55 10.5058 28.55 0.50576C28.55-9.49424 23.75-30.9942 26.55-42.5942C28.35-50.3942 40.95-77.6942 45.45-89.1942C49.85-100.694 54.85-115.394 57.25-118.794C61.35-124.694 71.35-122.094 70.55-111.794C69.95-103.494 65.55-75.8942 63.85-65.2942C63.05-65.3942 62.15-65.2942 61.25-65.1942C52.85-63.4942 47.85-56.1942 46.55-43.4942C44.95-29.7942 45.25-12.5942 45.25-11.8942C45.25-10.3942 46.45-9.19424 47.95-9.19424C47.95-9.19424 47.95-9.19424 47.95-9.19424C49.45-9.19424 50.65-10.4942 50.65-11.9942C50.65-12.1942 50.35-29.4942 51.85-42.8942C52.95-52.9942 56.45-58.6942 62.25-59.8942C65.05-60.3942 67.75-57.5942 68.85-56.1942ZM120.95-42.5942C119.15-50.3942 106.55-77.6942 102.05-89.1942C97.65-100.694 92.95-115.294 90.55-118.794C86.45-124.694 76.45-122.094 77.25-111.794C77.85-103.494 82.05-75.8942 83.65-65.2942C84.45-65.3942 85.35-65.2942 86.25-65.1942C94.65-63.4942 99.65-56.1942 100.95-43.4942C102.45-29.7942 102.15-12.5942 102.15-11.8942C102.15-10.3942 100.95-9.19424 99.45-9.19424C99.45-9.19424 99.45-9.19424 99.45-9.19424C97.95-9.19424 96.75-10.4942 96.75-11.9942C96.75-12.1942 97.05-29.5942 95.55-42.8942C94.45-52.9942 90.95-58.6942 85.15-59.8942C82.35-60.4942 79.65-57.5942 78.55-56.2942C77.65-54.1942 76.95-51.0942 76.95-46.7942C76.95-32.3942 77.25-26.3942 77.25-16.4942C77.25-2.29424 75.85 6.20576 82.45 16.2058C92.45 31.2058 95.75 32.1058 98.35 35.4058C100.95 38.7058 104.25 45.8058 104.25 45.8058L128.45 27.5058C128.45 27.5058 118.85 10.5058 118.85 0.50576C118.85-9.49424 123.65-30.9942 120.95-42.5942Z"/>
  </g>
  <g id="Medium-L" transform="matrix(1 0 0 1 1673.91 1556)">
   <path d="M67.85-56.6342C68.95-54.5342 69.75-51.3342 69.75-46.5342C69.75-32.3342 69.45-26.4342 69.45-16.6342C69.45-2.83415 70.95 5.56585 64.35 15.3658C54.55 30.0658 51.25 31.0658 48.65 34.2658C46.15 37.5658 42.85 44.4658 42.85 44.4658L18.95 26.4658C18.95 26.4658 28.45 9.66585 28.45-0.134151C28.45-9.93415 23.75-31.1342 26.45-42.5342C28.25-50.1342 40.65-77.1342 45.05-88.4342C49.45-99.7342 54.35-114.134 56.75-117.534C60.75-123.334 70.55-120.834 69.85-110.634C69.25-102.434 64.85-74.9342 63.25-64.6342C62.45-64.7342 61.65-64.6342 60.75-64.5342C52.55-62.9342 47.75-55.7342 46.45-43.3342C44.95-29.8342 45.25-12.9342 45.25-12.2342C45.25-10.9342 46.35-9.83415 47.65-9.83415C47.65-9.83415 47.65-9.83415 47.65-9.83415C49.05-9.83415 50.05-10.9342 50.05-12.3342C50.05-12.5342 49.75-29.6342 51.25-42.8342C52.35-52.8342 55.85-58.5342 61.65-59.7342C64.15-60.1342 66.55-58.0342 67.85-56.6342ZM118.35-42.4342C116.55-50.0342 104.15-77.0342 99.75-88.3342C95.35-99.6342 90.75-114.034 88.45-117.434C84.45-123.234 74.65-120.734 75.35-110.534C75.95-102.334 80.05-74.8342 81.65-64.5342C82.45-64.6342 83.25-64.5342 84.15-64.4342C92.35-62.8342 97.15-55.6342 98.45-43.2342C99.95-29.7342 99.65-12.8342 99.65-12.1342C99.65-10.8342 98.55-9.73415 97.25-9.73415C97.25-9.73415 97.25-9.73415 97.25-9.73415C95.85-9.73415 94.85-10.8342 94.85-12.2342C94.85-12.4342 95.15-29.5342 93.65-42.7342C92.55-52.7342 89.05-58.4342 83.25-59.6342C80.75-60.1342 78.45-58.0342 77.05-56.6342C75.95-54.5342 75.15-51.3342 75.15-46.5342C75.15-32.3342 75.45-26.4342 75.45-16.6342C75.45-2.83415 73.95 5.56585 80.55 15.3658C90.35 30.0658 93.65 31.0658 96.25 34.2658C98.75 37.5658 102.05 44.4658 102.05 44.4658L125.95 26.4658C125.95 26.4658 116.45 9.66585 116.45-0.134151C116.45-9.93415 121.05-31.0342 118.35-42.4342Z"/>
  </g>
  <g id="Regular-L" transform="matrix(1 0 0 1 1378.44 1556)">
   <path d="M66.55-57.0983C67.85-55.0983 68.95-51.7983 68.95-46.3983C68.95-32.3983 68.65-26.5983 68.65-16.9983C68.65-3.39829 70.05 4.90171 63.65 14.5017C53.95 29.0017 50.75 29.9017 48.25 33.1017C45.75 36.3017 42.55 43.1017 42.55 43.1017L18.95 25.5017C18.95 25.5017 28.25 9.00171 28.25-0.69829C28.25-10.3983 23.55-31.1983 26.25-42.4983C28.05-49.9983 40.25-76.5983 44.55-87.6983C48.85-98.7983 53.75-112.998 56.05-116.398C59.95-122.098 69.65-119.598 68.95-109.598C68.35-101.398 63.95-73.9983 62.35-64.0983C61.55-64.1983 60.75-64.0983 59.95-63.9983C52.05-62.3983 47.35-55.4983 46.05-43.3983C44.65-30.1983 44.85-12.9983 44.85-12.7983C44.85-11.5983 45.85-10.5983 47.05-10.5983C47.05-10.5983 47.05-10.5983 47.05-10.5983C48.25-10.5983 49.25-11.5983 49.25-12.7983C49.25-12.9983 48.95-29.7983 50.35-42.7983C51.45-52.7983 54.95-58.3983 60.75-59.5983C63.05-59.9983 65.15-58.4983 66.55-57.0983ZM116.05-42.3983C114.25-49.8983 102.05-76.4983 97.75-87.5983C93.45-98.6983 88.95-112.898 86.65-116.298C82.75-121.998 73.05-119.498 73.75-109.498C74.35-101.298 78.45-73.8983 80.05-63.9983C80.75-64.0983 81.55-63.9983 82.35-63.8983C90.25-62.2983 94.95-55.3983 96.25-43.2983C97.65-30.0983 97.45-12.8983 97.45-12.6983C97.45-11.4983 96.45-10.4983 95.25-10.4983C95.25-10.4983 95.25-10.4983 95.25-10.4983C94.05-10.4983 93.05-11.4983 93.05-12.6983C93.05-12.8983 93.35-29.6983 91.95-42.6983C90.85-52.6983 87.35-58.2983 81.55-59.4983C79.35-59.8983 77.35-58.4983 75.95-57.0983C74.65-55.0983 73.55-51.7983 73.55-46.2983C73.55-32.2983 73.85-26.4983 73.85-16.8983C73.85-3.29829 72.45 5.00171 78.85 14.6017C88.55 29.1017 91.75 30.0017 94.25 33.2017C96.75 36.4017 99.95 43.2017 99.95 43.2017L123.45 25.5017C123.45 25.5017 114.15 9.00171 114.15-0.69829C114.15-10.3983 118.75-31.0983 116.05-42.3983Z"/>
  </g>
  <g id="Light-L" transform="matrix(1 0 0 1 1082.88 1556)">
   <path d="M65.05-57.5382C66.65-55.6382 68.05-52.2382 68.05-46.0382C68.05-32.2382 67.75-26.5382 67.75-17.1382C67.75-3.7382 69.15 4.3618 62.85 13.8618C53.35 28.2618 50.15 29.1618 47.75 32.3618C45.25 35.5618 42.15 42.2618 42.15 42.2618L18.95 24.7618C18.95 24.7618 28.15 8.5618 28.15-1.0382C28.15-10.6382 23.55-31.0382 26.25-42.1382C28.05-49.5382 40.05-75.6382 44.25-86.5382C48.45-97.4382 53.25-111.438 55.55-114.738C59.45-120.338 68.95-117.938 68.25-108.038C67.65-99.9382 63.25-72.6382 61.75-63.0382C61.05-63.1382 60.25-63.0382 59.45-62.9382C51.75-61.4382 47.15-54.6382 45.85-42.8382C44.45-29.8382 44.65-12.9382 44.65-12.8382C44.65-11.7382 45.55-10.9382 46.55-10.9382C46.55-10.9382 46.55-10.9382 46.55-10.9382C47.65-10.9382 48.45-11.8382 48.45-12.9382C48.45-13.1382 48.15-29.7382 49.55-42.5382C50.65-52.4382 54.15-58.1382 59.95-59.2382C62.05-59.5382 63.75-58.6382 65.05-57.5382ZM113.95-42.1382C112.15-49.5382 100.15-75.6382 95.95-86.5382C91.75-97.4382 87.25-111.438 85.05-114.738C81.15-120.338 71.65-117.938 72.35-108.038C72.95-99.9382 77.05-72.6382 78.55-63.0382C79.25-63.1382 80.05-63.0382 80.75-62.9382C88.45-61.4382 93.05-54.6382 94.25-42.8382C95.65-29.8382 95.45-12.9382 95.45-12.8382C95.45-11.7382 94.55-10.9382 93.55-10.9382C93.55-10.9382 93.55-10.9382 93.55-10.9382C92.45-10.9382 91.65-11.8382 91.65-12.9382C91.65-13.1382 91.85-29.7382 90.55-42.5382C89.45-52.4382 85.95-58.1382 80.05-59.2382C78.25-59.6382 76.45-58.6382 75.15-57.5382C73.55-55.6382 72.15-52.2382 72.15-46.0382C72.15-32.2382 72.45-26.5382 72.45-17.1382C72.45-3.7382 71.05 4.3618 77.35 13.8618C86.75 28.2618 89.95 29.1618 92.45 32.3618C94.95 35.5618 98.05 42.2618 98.05 42.2618L121.15 24.7618C121.15 24.7618 111.95 8.5618 111.95-1.0382C111.95-10.6382 116.55-31.0382 113.95-42.1382Z"/>
  </g>
  <g id="Thin-L" transform="matrix(1 0 0 1 786.922 1556)">
   <path d="M62.85-58.258C64.85-56.958 67.25-53.658 67.25-45.558C67.25-32.058 66.95-26.358 66.95-17.058C66.95-3.85801 68.35 4.14199 62.05 13.442C52.65 27.442 49.55 28.342 47.15 31.442C44.75 34.542 41.55 41.142 41.55 41.142L18.95 23.942C18.95 23.942 27.95 7.94199 27.95-1.35801C27.95-10.658 23.45-30.858 26.05-41.758C27.75-49.058 39.55-74.758 43.75-85.458C47.95-96.258 52.65-109.958 54.85-113.258C58.65-118.858 68.05-116.358 67.35-106.658C66.75-98.558 62.35-71.258 60.85-62.158C60.15-62.258 59.45-62.158 58.75-62.058C51.35-60.558 46.95-53.958 45.65-42.558C44.25-29.758 44.55-13.158 44.55-13.058C44.55-12.158 45.25-11.458 46.15-11.458C46.15-11.458 46.15-11.458 46.15-11.458C47.05-11.458 47.75-12.158 47.75-13.058C47.75-13.258 47.55-29.558 48.85-42.158C49.95-52.058 53.45-57.658 59.35-58.858C60.65-59.158 61.75-58.858 62.85-58.258ZM112.45-41.858C110.75-49.158 98.95-74.858 94.75-85.558C90.55-96.358 86.25-110.058 83.95-113.358C80.15-118.958 70.75-116.458 71.45-106.758C72.05-98.658 76.15-71.358 77.55-62.258C78.25-62.258 78.95-62.258 79.65-62.158C87.05-60.658 91.45-54.058 92.75-42.658C94.15-29.858 93.85-13.258 93.85-13.158C93.85-12.258 93.15-11.558 92.25-11.558C92.25-11.558 92.25-11.558 92.25-11.558C91.35-11.558 90.65-12.258 90.65-13.158C90.65-13.358 90.85-29.658 89.55-42.258C88.45-52.158 84.95-57.758 79.05-58.958C77.85-59.158 76.65-58.858 75.65-58.358C73.65-57.058 71.25-53.758 71.25-45.658C71.25-32.158 71.55-26.458 71.55-17.158C71.55-3.95801 70.15 4.04199 76.45 13.342C85.85 27.342 88.95 28.242 91.35 31.342C93.75 34.442 96.95 41.042 96.95 41.042L119.65 23.842C119.65 23.842 110.65 7.84199 110.65-1.45801C110.65-10.758 114.95-30.958 112.45-41.858Z"/>
  </g>
  <g id="Ultralight-L" transform="matrix(1 0 0 1 491.011 1556)">
   <path d="M59.75-58.6979C59.75-58.6979 66.55-58.6979 66.55-45.3979C66.55-32.0979 66.25-26.4979 66.25-17.3979C66.25-4.39793 67.65 3.40207 61.45 12.6021C52.25 26.5021 49.25 27.4021 46.85 30.4021C44.45 33.5021 41.35 40.0021 41.35 40.0021L18.95 23.1021C18.95 23.1021 27.85 7.40207 27.85-1.79793C27.85-10.9979 23.45-30.8979 25.95-41.5979C27.65-48.7979 39.25-73.9979 43.35-84.5979C47.45-95.1979 52.05-108.698 54.25-111.898C58.05-117.398 67.25-114.998 66.55-105.398C65.95-97.3979 61.55-69.9979 60.15-61.2979C59.55-61.2979 58.85-61.2979 58.15-61.1979C50.95-59.7979 46.75-53.3979 45.55-42.1979C44.15-29.5979 44.45-13.3979 44.45-13.1979C44.45-12.4979 45.05-11.8979 45.75-11.8979C45.75-11.8979 45.75-11.8979 45.75-11.8979C46.45-11.8979 47.05-12.4979 47.05-13.1979C47.05-13.3979 46.85-29.4979 48.15-41.8979C49.25-51.7979 52.75-57.3979 58.75-58.5979C59.15-58.7979 59.75-58.6979 59.75-58.6979ZM110.95-41.5979C109.25-48.7979 97.65-73.9979 93.55-84.5979C89.45-95.1979 85.15-108.698 82.95-111.898C79.15-117.398 69.95-114.998 70.65-105.398C71.25-97.3979 75.35-69.9979 76.75-61.2979C77.35-61.2979 78.05-61.2979 78.65-61.1979C85.85-59.7979 90.05-53.3979 91.25-42.1979C92.65-29.5979 92.35-13.3979 92.35-13.1979C92.35-12.4979 91.75-11.8979 91.05-11.8979C91.05-11.8979 91.05-11.8979 91.05-11.8979C90.35-11.8979 89.75-12.4979 89.75-13.1979C89.75-13.3979 89.95-29.4979 88.65-41.8979C87.55-51.7979 84.05-57.3979 78.05-58.5979C77.65-58.6979 77.05-58.5979 77.05-58.5979C77.05-58.5979 70.25-58.5979 70.25-45.2979C70.25-31.9979 70.55-26.3979 70.55-17.2979C70.55-4.29793 69.15 3.50207 75.35 12.7021C84.65 26.5021 87.75 27.4021 90.15 30.4021C92.55 33.5021 95.65 40.0021 95.65 40.0021L118.05 23.1021C118.05 23.1021 109.15 7.40207 109.15-1.79793C109.05-10.9979 113.55-30.8979 110.95-41.5979Z"/>
  </g>
  <g id="Black-M" transform="matrix(1 0 0 1 2869.45 1126)">
   <path d="M60.75-97.4698C60.25-90.7698 56.75-68.9698 55.35-60.1698C54.65-60.2698 53.85-60.1698 53.15-60.0698C46.15-58.6698 42.05-52.6698 40.95-42.1698C39.75-31.0698 39.95-17.0698 39.95-16.4698C39.95-15.0698 41.15-13.9698 42.45-13.9698C42.45-13.9698 42.45-13.9698 42.45-13.9698C43.85-13.9698 44.95-15.1698 44.95-16.5698C44.95-16.6698 44.75-30.7698 45.95-41.5698C46.85-49.5698 49.55-54.0698 54.15-54.9698C56.85-55.4698 58.85-53.0698 59.55-51.6698C60.35-50.0698 60.75-47.5698 60.75-44.6698C60.75-32.9698 60.55-28.0698 60.55-20.0698C60.55-8.66981 61.75-1.76981 56.35 6.33019C48.25 18.4302 45.55 19.2302 43.45 21.9302C41.35 24.6302 38.65 30.3302 38.65 30.3302L18.95 15.4302C18.95 15.4302 26.75 1.63019 26.75-6.46981C26.75-14.5698 22.85-31.9698 25.05-41.3698C26.55-47.6698 36.75-69.8698 40.35-79.1698C43.95-88.4698 48.05-100.37 49.95-103.17C53.25-107.97 61.35-105.87 60.75-97.4698ZM100.95-6.46981C100.95-14.5698 104.85-31.9698 102.55-41.3698C101.05-47.6698 90.85-69.8698 87.25-79.1698C83.65-88.4698 79.85-100.37 77.95-103.17C74.65-107.97 66.55-105.87 67.15-97.4698C67.65-90.7698 70.95-68.9698 72.25-60.1698C72.95-60.2698 73.65-60.1698 74.45-60.0698C81.45-58.6698 85.55-52.6698 86.65-42.1698C87.85-31.0698 87.65-17.0698 87.65-16.4698C87.65-15.0698 86.45-13.9698 85.15-13.9698C85.15-13.9698 85.15-13.9698 85.15-13.9698C83.75-13.9698 82.65-15.1698 82.65-16.5698C82.65-16.6698 82.85-30.7698 81.65-41.5698C80.75-49.5698 78.05-54.0698 73.45-54.9698C70.75-55.4698 68.45-52.8698 67.75-51.2698C67.05-49.7698 66.85-47.4698 66.85-44.6698C66.85-32.9698 67.05-28.0698 67.05-20.0698C67.05-8.66981 65.85-1.76981 71.25 6.33019C79.35 18.4302 82.05 19.2302 84.15 21.9302C86.25 24.6302 88.95 30.3302 88.95 30.3302L108.55 15.5302C108.75 15.4302 100.95 1.63019 100.95-6.46981Z"/>
  </g>
  <g id="Heavy-M" transform="matrix(1 0 0 1 2573.79 1126)">
   <path d="M59.05-51.5097C59.75-49.9097 60.15-47.6097 60.15-44.6097C60.15-33.1097 59.95-28.3097 59.95-20.4097C59.95-9.2097 61.15-2.4097 55.85 5.5903C47.85 17.5903 45.25 18.2903 43.15 20.9903C41.05 23.6903 38.45 29.2903 38.45 29.2903L18.95 14.6903C18.95 14.6903 26.65 1.0903 26.65-6.9097C26.65-14.9097 22.85-32.0097 25.05-41.3097C26.55-47.5097 36.55-69.4097 40.15-78.5097C43.65-87.7097 47.75-99.4097 49.65-102.11C52.95-106.81 60.85-104.81 60.25-96.5097C59.75-89.9097 56.35-68.2097 54.95-59.6097C54.25-59.7097 53.55-59.6097 52.75-59.5097C45.95-58.1097 41.85-52.2097 40.75-42.0097C39.55-31.0097 39.75-17.3097 39.75-16.7097C39.75-15.4097 40.85-14.3097 42.15-14.3097C42.15-14.3097 42.15-14.3097 42.15-14.3097C43.45-14.3097 44.55-15.4097 44.55-16.7097C44.55-16.8097 44.35-30.7097 45.45-41.4097C46.35-49.3097 49.05-53.8097 53.55-54.7097C56.25-55.3097 58.35-52.9097 59.05-51.5097ZM100.35-41.3097C98.85-47.5097 88.85-69.4097 85.25-78.5097C81.75-87.7097 77.95-99.4097 76.05-102.11C72.75-106.81 64.85-104.81 65.45-96.5097C65.95-89.9097 69.15-68.2097 70.55-59.6097C71.25-59.7097 71.95-59.6097 72.65-59.5097C79.45-58.1097 83.55-52.2097 84.65-42.0097C85.85-31.0097 85.65-17.3097 85.65-16.7097C85.65-15.4097 84.55-14.3097 83.25-14.3097C83.25-14.3097 83.25-14.3097 83.25-14.3097C81.95-14.3097 80.85-15.4097 80.85-16.7097C80.85-16.8097 81.05-30.7097 79.95-41.4097C79.05-49.3097 76.35-53.8097 71.85-54.7097C69.15-55.2097 67.05-52.7097 66.35-51.3097C65.65-49.7097 65.35-47.5097 65.35-44.5097C65.35-33.0097 65.55-28.2097 65.55-20.3097C65.55-9.1097 64.35-2.3097 69.65 5.6903C77.65 17.6903 80.25 18.3903 82.35 21.0903C84.45 23.7903 87.05 29.3903 87.05 29.3903L106.45 14.7903C106.45 14.7903 98.75 1.1903 98.75-6.8097C98.75-14.8097 102.65-32.0097 100.35-41.3097Z"/>
  </g>
  <g id="Bold-M" transform="matrix(1 0 0 1 2277.13 1126)">
   <path d="M58.35-51.5295C58.95-49.9295 59.45-47.6295 59.45-44.4295C59.45-33.0295 59.25-28.3295 59.25-20.5295C59.25-9.42953 60.45-2.72953 55.15 5.07047C47.35 16.8705 44.65 17.5705 42.65 20.1705C40.65 22.7705 37.95 28.3705 37.95 28.3705L18.95 13.9705C18.95 13.9705 26.55 0.570466 26.55-7.32953C26.55-15.2295 22.75-32.1295 24.95-41.2295C26.45-47.3295 36.35-68.9295 39.75-77.9295C43.15-86.9295 47.15-98.5295 49.05-101.23C52.25-105.93 60.15-103.83 59.55-95.7295C59.05-89.2295 55.65-67.6295 54.25-59.2295C53.55-59.3295 52.85-59.2295 52.15-59.1295C45.45-57.8295 41.55-52.0295 40.45-41.9295C39.25-31.1295 39.45-17.6295 39.45-17.0295C39.45-15.8295 40.45-14.8295 41.65-14.8295C41.65-14.8295 41.65-14.8295 41.65-14.8295C42.85-14.8295 43.85-15.8295 43.85-17.1295C43.85-17.2295 43.65-30.9295 44.75-41.4295C45.65-49.3295 48.35-53.7295 52.85-54.6295C55.45-55.1295 57.75-52.3295 58.35-51.5295ZM100.05-41.2295C98.55-47.3295 88.65-68.9295 85.25-77.9295C81.75-86.9295 78.05-98.5295 76.25-101.23C73.05-105.93 65.15-103.83 65.75-95.7295C66.25-89.2295 69.45-67.6295 70.75-59.2295C71.45-59.3295 72.05-59.2295 72.85-59.1295C79.55-57.8295 83.45-52.0295 84.55-41.9295C85.75-31.1295 85.55-17.6295 85.55-17.0295C85.55-15.8295 84.55-14.8295 83.35-14.8295C83.35-14.8295 83.35-14.8295 83.35-14.8295C82.15-14.8295 81.15-15.8295 81.15-17.1295C81.15-17.2295 81.35-30.9295 80.25-41.4295C79.35-49.3295 76.65-53.7295 72.15-54.6295C69.75-55.1295 67.45-52.3295 66.85-51.5295C66.25-49.9295 65.75-47.6295 65.75-44.4295C65.75-33.0295 65.95-28.3295 65.95-20.5295C65.95-9.42953 64.75-2.72953 70.05 5.07047C77.85 16.8705 80.55 17.5705 82.55 20.1705C84.55 22.7705 87.25 28.3705 87.25 28.3705L106.35 13.9705C106.35 13.9705 98.75 0.570466 98.75-7.32953C98.45-15.1295 102.25-32.0295 100.05-41.2295Z"/>
  </g>
  <g id="Semibold-M" transform="matrix(1 0 0 1 1981.67 1126)">
   <path d="M57.65-51.7694C58.35-50.1694 58.85-47.7694 58.85-44.3694C58.85-33.1694 58.65-28.5694 58.65-20.8694C58.65-9.96944 59.75-3.36944 54.65 4.33056C46.95 15.9306 44.35 16.6306 42.35 19.2306C40.35 21.8306 37.75 27.2306 37.75 27.2306L18.95 13.1306C18.95 13.1306 26.45-0.069439 26.45-7.76944C26.45-15.4694 22.75-32.1694 24.85-41.1694C26.25-47.1694 36.05-68.3694 39.45-77.2694C42.85-86.1694 46.75-97.5694 48.65-100.169C51.85-104.769 59.55-102.769 58.95-94.7694C58.45-88.3694 55.05-66.9694 53.75-58.7694C53.15-58.8694 52.45-58.7694 51.75-58.6694C45.25-57.3694 41.35-51.6694 40.35-41.8694C39.25-31.2694 39.45-17.9694 39.45-17.3694C39.45-16.2694 40.45-15.2694 41.55-15.2694C41.55-15.2694 41.55-15.2694 41.55-15.2694C42.75-15.2694 43.65-16.2694 43.65-17.3694C43.65-17.4694 43.45-30.9694 44.55-41.3694C45.35-49.1694 48.15-53.5694 52.65-54.4694C54.75-54.9694 56.85-52.7694 57.65-51.7694ZM98.05-41.1694C96.65-47.1694 86.85-68.3694 83.45-77.2694C80.05-86.1694 76.35-97.5694 74.55-100.169C71.35-104.769 63.65-102.769 64.25-94.7694C64.75-88.3694 67.95-66.9694 69.15-58.7694C69.75-58.8694 70.45-58.7694 71.15-58.6694C77.65-57.3694 81.55-51.6694 82.55-41.8694C83.65-31.2694 83.55-17.9694 83.45-17.3694C83.45-16.2694 82.45-15.2694 81.35-15.2694C81.35-15.2694 81.35-15.2694 81.35-15.2694C80.15-15.2694 79.25-16.2694 79.25-17.3694C79.25-17.4694 79.45-30.9694 78.35-41.3694C77.55-49.1694 74.75-53.5694 70.25-54.4694C68.15-54.8694 66.05-52.6694 65.15-51.6694C64.45-50.0694 63.95-47.6694 63.95-44.2694C63.95-33.0694 64.15-28.4694 64.15-20.7694C64.15-9.86944 63.05-3.26944 68.15 4.43056C75.85 16.0306 78.45 16.7306 80.45 19.3306C82.45 21.9306 85.05 27.3306 85.05 27.3306L103.85 13.1306C103.85 13.1306 96.35-0.069439 96.35-7.76944C96.35-15.4694 100.15-32.1694 98.05-41.1694Z"/>
  </g>
  <g id="Medium-M" transform="matrix(1 0 0 1 1686.06 1126)">
   <path d="M56.75-52.038C57.65-50.438 58.25-47.938 58.25-44.138C58.25-33.138 58.05-28.538 58.05-20.938C58.05-10.238 59.15-3.73796 54.05 3.86204C46.45 15.262 43.85 15.962 41.95 18.562C39.95 21.062 37.45 26.462 37.45 26.462L18.95 12.462C18.95 12.462 26.25-0.537959 26.25-8.13796C26.25-15.738 22.55-32.138 24.65-41.038C26.05-46.938 35.65-67.838 39.05-76.638C42.45-85.438 46.25-96.638 48.05-99.238C51.15-103.738 58.75-101.738 58.25-93.838C57.75-87.438 54.35-66.138 53.05-58.238C52.45-58.338 51.75-58.238 51.15-58.138C44.85-56.838 41.05-51.338 40.05-41.738C38.95-31.338 39.15-18.238 39.15-17.638C39.15-16.638 40.05-15.738 41.05-15.738C41.05-15.738 41.05-15.738 41.05-15.738C42.05-15.738 42.95-16.638 42.95-17.638C42.95-17.738 42.75-31.038 43.85-41.238C44.65-49.038 47.45-53.438 51.95-54.338C53.85-54.738 55.75-53.138 56.75-52.038ZM95.85-41.038C94.45-46.938 84.85-67.838 81.45-76.638C78.05-85.438 74.55-96.638 72.65-99.238C69.55-103.738 61.95-101.738 62.45-93.838C62.95-87.438 66.15-66.138 67.35-58.238C67.95-58.238 68.55-58.238 69.25-58.138C75.55-56.838 79.35-51.338 80.35-41.738C81.65-31.238 81.45-18.138 81.45-17.638C81.45-16.638 80.55-15.738 79.55-15.738C79.55-15.738 79.55-15.738 79.55-15.738C78.55-15.738 77.65-16.638 77.65-17.638C77.65-17.738 77.85-31.038 76.75-41.238C75.95-49.038 73.15-53.438 68.65-54.338C66.75-54.738 64.85-53.138 63.85-52.038C62.95-50.438 62.35-47.938 62.35-44.138C62.35-33.138 62.55-28.538 62.55-20.938C62.55-10.238 61.45-3.73796 66.55 3.86204C74.15 15.262 76.65 15.962 78.65 18.462C80.65 20.962 83.15 26.362 83.15 26.362L101.65 12.362C101.65 12.362 94.35-0.637959 94.35-8.23796C94.35-15.838 97.95-32.238 95.85-41.038Z"/>
  </g>
  <g id="Regular-M" transform="matrix(1 0 0 1 1390.34 1126)">
   <path d="M55.75-52.3779C56.75-50.7779 57.55-48.2779 57.55-44.0779C57.55-33.2779 57.35-28.6779 57.35-21.2779C57.35-10.6779 58.45-4.27791 53.45 3.22209C45.95 14.4221 43.45 15.1221 41.55 17.6221C39.65 20.1221 37.15 25.4221 37.15 25.4221L18.95 11.6221C18.95 11.6221 26.15-1.17791 26.15-8.67791C26.15-16.1779 22.55-32.2779 24.65-41.0779C26.05-46.8779 35.45-67.4779 38.85-76.0779C42.25-84.6779 45.95-95.6779 47.75-98.2779C50.85-102.678 58.35-100.778 57.75-92.9779C57.25-86.6779 53.95-65.3779 52.65-57.6779C52.05-57.6779 51.45-57.6779 50.85-57.5779C44.65-56.3779 41.05-50.9779 40.05-41.5779C38.85-31.3779 39.05-18.0779 39.05-17.8779C39.05-16.9779 39.85-16.1779 40.75-16.1779C40.75-16.1779 40.75-16.1779 40.75-16.1779C41.65-16.1779 42.45-16.9779 42.45-17.8779C42.45-17.9779 42.25-31.0779 43.35-41.1779C44.15-48.8779 46.95-53.2779 51.45-54.1779C53.15-54.5779 54.75-53.4779 55.75-52.3779ZM94.15-40.9779C92.75-46.7779 83.35-67.3779 79.95-75.9779C76.55-84.5779 73.15-95.5779 71.35-98.1779C68.25-102.578 60.75-100.678 61.35-92.8779C61.85-86.5779 65.05-65.2779 66.15-57.5779C66.75-57.5779 67.35-57.5779 67.95-57.4779C74.15-56.2779 77.75-50.8779 78.75-41.4779C79.85-31.1779 79.65-17.8779 79.65-17.7779C79.65-16.8779 78.85-16.0779 77.95-16.0779C77.95-16.0779 77.95-16.0779 77.95-16.0779C77.05-16.0779 76.25-16.8779 76.25-17.7779C76.25-17.8779 76.45-30.9779 75.35-41.0779C74.55-48.7779 71.75-53.1779 67.25-54.0779C65.55-54.3779 63.95-53.2779 62.85-52.1779C61.85-50.5779 61.05-48.0779 61.05-43.7779C61.05-32.9779 61.25-28.3779 61.25-20.9779C61.25-10.3779 60.15-3.97791 65.15 3.52209C72.65 14.7221 75.15 15.4221 77.05 17.9221C78.95 20.4221 81.45 25.7221 81.45 25.7221L99.65 11.9221C99.65 11.9221 92.45-0.877915 92.45-8.37791C92.45-15.8779 96.25-32.2779 94.15-40.9779Z"/>
  </g>
  <g id="Light-M" transform="matrix(1 0 0 1 1094.33 1126)">
   <path d="M54.75-52.7735C55.95-51.3735 57.05-48.6735 57.05-43.8735C57.05-33.1735 56.85-28.7735 56.85-21.4735C56.85-11.0735 57.95-4.77349 53.05 2.62651C45.65 13.7265 43.15 14.4265 41.25 16.9265C39.35 19.4265 36.85 24.6265 36.85 24.6265L18.95 11.0265C18.95 11.0265 26.05-1.57349 26.05-8.97349C26.05-16.3735 22.55-32.2735 24.55-40.8735C25.95-46.5735 35.25-66.8735 38.45-75.3735C41.75-83.8735 45.45-94.6735 47.25-97.2735C50.25-101.673 57.65-99.7735 57.05-92.0735C56.65-85.7735 53.25-64.5735 52.05-57.1735C51.45-57.1735 50.95-57.1735 50.35-57.0735C44.35-55.8735 40.85-50.6735 39.85-41.4735C38.75-31.3735 38.95-18.2735 38.95-18.1735C38.95-17.3735 39.65-16.6735 40.45-16.6735C40.45-16.6735 40.45-16.6735 40.45-16.6735C41.25-16.6735 41.95-17.3735 41.95-18.1735C41.95-18.2735 41.75-31.1735 42.85-41.0735C43.65-48.7735 46.45-53.1735 50.95-54.0735C52.35-54.2735 53.65-53.5735 54.75-52.7735ZM92.55-40.7735C91.15-46.4735 81.85-66.7735 78.65-75.2735C75.35-83.7735 71.95-94.5735 70.15-97.1735C67.15-101.573 59.75-99.6735 60.35-91.9735C60.75-85.6735 64.05-64.4735 65.15-57.0735C65.75-57.0735 66.25-57.0735 66.85-56.9735C72.85-55.7735 76.35-50.5735 77.35-41.3735C78.45-31.2735 78.25-18.1735 78.25-18.0735C78.25-17.2735 77.55-16.5735 76.75-16.5735C76.75-16.5735 76.75-16.5735 76.75-16.5735C75.95-16.5735 75.25-17.2735 75.25-18.0735C75.25-18.1735 75.45-31.0735 74.35-40.9735C73.55-48.6735 70.75-53.0735 66.25-53.9735C64.85-54.2735 63.45-53.5735 62.45-52.6735C61.25-51.2735 60.15-48.5735 60.15-43.7735C60.15-33.0735 60.35-28.6735 60.35-21.3735C60.35-10.9735 59.25-4.67349 64.15 2.72651C71.55 13.8265 73.95 14.5265 75.95 16.9265C77.85 19.4265 80.35 24.6265 80.35 24.6265L98.25 11.1265C98.25 11.1265 91.15-1.47349 91.15-8.87349C91.15-16.2735 94.65-32.1735 92.55-40.7735Z"/>
  </g>
  <g id="Thin-M" transform="matrix(1 0 0 1 798.272 1126)">
   <path d="M52.95-53.2376C54.45-52.2376 56.35-49.7376 56.35-43.4376C56.35-32.9376 56.15-28.5376 56.15-21.3376C56.15-11.1376 57.25-4.93763 52.35 2.36237C45.05 13.2624 42.65 13.9624 40.75 16.3624C38.85 18.7624 36.45 23.8624 36.45 23.8624L18.95 10.5624C18.95 10.5624 25.95-1.83763 25.95-9.03763C25.95-16.2376 22.45-32.0376 24.45-40.4376C25.75-46.1376 34.95-66.0376 38.15-74.3376C41.35-82.6376 45.05-93.3376 46.75-95.8376C49.75-100.138 56.95-98.2376 56.45-90.7376C56.05-84.5376 52.55-63.2376 51.45-56.2376C50.95-56.2376 50.35-56.2376 49.85-56.1376C44.05-55.0376 40.65-49.9376 39.65-41.0376C38.55-31.1376 38.75-18.2376 38.75-18.1376C38.75-17.4376 39.35-16.9376 39.95-16.9376C39.95-16.9376 39.95-16.9376 39.95-16.9376C40.65-16.9376 41.15-17.5376 41.15-18.2376C41.15-18.3376 40.95-31.0376 42.05-40.8376C42.85-48.5376 45.65-52.8376 50.25-53.8376C51.25-53.8376 52.15-53.6376 52.95-53.2376ZM91.35-40.4376C90.05-46.1376 80.85-66.0376 77.65-74.3376C74.45-82.6376 71.05-93.3376 69.35-95.8376C66.35-100.138 59.15-98.2376 59.65-90.7376C60.05-84.5376 63.35-63.2376 64.45-56.2376C64.95-56.2376 65.55-56.2376 66.05-56.1376C71.85-54.9376 75.25-49.8376 76.15-41.0376C77.25-31.1376 77.05-18.2376 77.05-18.1376C77.05-17.4376 76.45-16.9376 75.85-16.9376C75.85-16.9376 75.85-16.9376 75.85-16.9376C75.15-16.9376 74.65-17.5376 74.65-18.2376C74.65-18.3376 74.85-31.0376 73.75-40.8376C72.95-48.5376 70.15-52.8376 65.55-53.8376C64.65-54.0376 63.65-53.8376 62.85-53.3376C61.35-52.3376 59.45-49.8376 59.45-43.5376C59.45-33.0376 59.65-28.6376 59.65-21.4376C59.65-11.2376 58.55-5.03763 63.45 2.26237C70.75 13.1624 73.15 13.8624 75.05 16.2624C76.95 18.6624 79.35 23.7624 79.35 23.7624L96.95 10.4624C96.95 10.4624 89.95-1.93763 89.95-9.13763C89.95-16.3376 93.35-32.0376 91.35-40.4376Z"/>
  </g>
  <g id="Ultralight-M" transform="matrix(1 0 0 1 502.211 1126)">
   <path d="M50.55-53.4775C50.55-53.4775 55.75-53.4775 55.75-43.1775C55.75-32.8775 55.55-28.5775 55.55-21.4775C55.55-11.3775 56.65-5.37754 51.85 1.82246C44.75 12.5225 42.35 13.2225 40.45 15.6225C38.55 18.0225 36.25 23.0225 36.25 23.0225L18.95 9.92246C18.95 9.92246 25.85-2.27754 25.85-9.37754C25.85-16.4775 22.45-31.8775 24.35-40.1775C25.65-45.7775 34.65-65.2775 37.85-73.4775C41.05-81.6775 44.65-92.1775 46.35-94.6775C49.25-98.8775 56.45-97.0775 55.85-89.6775C55.45-83.4775 51.95-62.1775 50.85-55.4775C50.35-55.4775 49.85-55.4775 49.35-55.3775C43.75-54.2775 40.45-49.2775 39.55-40.6775C38.45-30.9775 38.65-18.2775 38.65-18.1775C38.65-17.6775 39.15-17.1775 39.65-17.1775C39.65-17.1775 39.65-17.1775 39.65-17.1775C40.25-17.1775 40.65-17.6775 40.65-18.1775C40.65-18.2775 40.45-30.7775 41.55-40.3775C42.35-48.0775 45.15-52.3775 49.75-53.3775C50.05-53.5775 50.55-53.4775 50.55-53.4775ZM90.25-40.2775C88.95-45.8775 79.95-65.3775 76.75-73.5775C73.55-81.7775 70.25-92.2775 68.55-94.7775C65.65-98.9775 58.45-97.1775 59.05-89.7775C59.45-83.5775 62.75-62.2775 63.75-55.5775C64.25-55.5775 64.75-55.5775 65.25-55.4775C70.85-54.3775 74.15-49.3775 75.05-40.7775C76.15-31.0775 75.95-18.3775 75.95-18.2775C75.95-17.7775 75.45-17.2775 74.95-17.2775C74.95-17.2775 74.95-17.2775 74.95-17.2775C74.35-17.2775 73.95-17.7775 73.95-18.2775C73.95-18.3775 74.15-30.8775 73.05-40.4775C72.25-48.1775 69.45-52.4775 64.85-53.4775C64.55-53.5775 64.05-53.4775 64.05-53.4775C64.05-53.4775 58.85-53.4775 58.85-43.1775C58.85-32.8775 59.05-28.5775 59.05-21.4775C59.05-11.3775 57.95-5.37754 62.75 1.82246C69.85 12.5225 72.25 13.2225 74.15 15.6225C76.05 18.0225 78.35 23.0225 78.35 23.0225L95.65 9.92246C95.65 9.92246 88.75-2.27754 88.75-9.37754C88.75-16.5775 92.25-31.9775 90.25-40.2775Z"/>
  </g>
  <g id="Black-S" transform="matrix(1 0 0 1 2879.05 696)">
   <path d="M51.75-83.1054C51.35-77.9054 48.65-60.8054 47.55-53.9054C46.95-54.0054 46.45-53.9054 45.75-53.8054C40.25-52.7054 37.05-48.0054 36.15-39.8054C35.25-31.1054 35.35-20.2054 35.35-19.7054C35.35-18.6054 36.25-17.7054 37.35-17.7054C37.35-17.7054 37.35-17.7054 37.35-17.7054C38.45-17.7054 39.35-18.6054 39.35-19.7054C39.35-19.8054 39.15-30.8054 40.15-39.3054C40.85-45.6054 42.95-49.1054 46.55-49.8054C48.65-50.2054 50.25-48.3054 50.75-47.2054C51.35-45.9054 51.65-44.0054 51.65-41.7054C51.65-32.5054 51.45-28.7054 51.45-22.4054C51.45-13.5054 52.35-8.10545 48.15-1.70545C41.95 7.59455 39.75 8.19455 38.15 10.2946C36.55 12.3946 34.35 16.8946 34.35 16.8946L18.95 5.29455C18.95 5.29455 25.05-5.50545 25.05-11.8054C25.05-18.1054 22.05-31.8054 23.75-39.2054C24.95-44.1054 32.95-61.5054 35.75-68.8054C38.55-76.1054 41.75-85.4054 43.25-87.6054C45.85-91.3054 52.25-89.7054 51.75-83.1054ZM83.25-11.8054C83.25-18.1054 86.25-31.8054 84.55-39.2054C83.35-44.1054 75.35-61.5054 72.55-68.8054C69.75-76.1054 66.75-85.4054 65.25-87.6054C62.65-91.4054 56.35-89.7054 56.75-83.1054C57.15-77.9054 59.75-60.8054 60.75-53.9054C61.35-53.9054 61.85-53.9054 62.45-53.8054C67.95-52.7054 71.15-48.0054 72.05-39.8054C72.95-31.1054 72.85-20.2054 72.85-19.7054C72.85-18.6054 71.95-17.7054 70.85-17.7054C70.85-17.7054 70.85-17.7054 70.85-17.7054C69.75-17.7054 68.85-18.6054 68.85-19.7054C68.85-19.8054 69.05-30.8054 68.15-39.3054C67.45-45.6054 65.35-49.1054 61.75-49.8054C59.65-50.2054 57.85-48.1054 57.35-46.9054C56.85-45.7054 56.65-43.9054 56.65-41.7054C56.65-32.5054 56.85-28.7054 56.85-22.4054C56.85-13.5054 55.95-8.10545 60.15-1.70545C66.45 7.79455 68.65 8.39455 70.25 10.4946C71.85 12.5946 74.05 17.0946 74.05 17.0946L89.35 5.29455C89.35 5.29455 83.25-5.50545 83.25-11.8054Z"/>
  </g>
  <g id="Heavy-S" transform="matrix(1 0 0 1 2583.24 696)">
   <path d="M50.35-47.0454C50.95-45.8454 51.15-43.9454 51.15-41.6454C51.15-32.6454 50.95-28.8454 50.95-22.6454C50.95-13.8454 51.85-8.54538 47.75-2.24538C41.55 7.15462 39.45 7.65462 37.85 9.75462C36.25 11.8546 34.15 16.2546 34.15 16.2546L18.95 4.75462C18.95 4.75462 24.95-5.84538 24.95-12.1454C24.95-18.3454 21.95-31.8454 23.65-39.1454C24.85-44.0454 32.65-61.1454 35.45-68.3454C38.25-75.5454 41.35-84.7454 42.85-86.8454C45.35-90.5454 51.65-88.9454 51.15-82.4454C50.75-77.2454 48.05-60.2454 46.95-53.5454C46.45-53.5454 45.85-53.5454 45.25-53.4454C39.95-52.3454 36.75-47.7454 35.85-39.7454C34.95-31.1454 35.05-20.4454 35.05-19.9454C35.05-18.9454 35.95-18.1454 36.95-18.1454C36.95-18.1454 36.95-18.1454 36.95-18.1454C37.95-18.1454 38.85-19.0454 38.75-20.0454C38.75-20.1454 38.55-31.0454 39.45-39.3454C40.15-45.5454 42.25-49.0454 45.85-49.7454C48.25-50.1454 49.85-48.1454 50.35-47.0454ZM82.75-39.0454C81.55-43.9454 73.75-61.0454 70.95-68.2454C68.15-75.4454 65.25-84.6454 63.75-86.7454C61.25-90.4454 54.95-88.8454 55.45-82.3454C55.85-77.1454 58.35-60.2454 59.45-53.4454C59.95-53.4454 60.55-53.4454 61.15-53.3454C66.45-52.2454 69.65-47.6454 70.55-39.6454C71.45-31.0454 71.35-20.3454 71.35-19.8454C71.35-18.8454 70.45-18.0454 69.45-18.0454C69.45-18.0454 69.45-18.0454 69.45-18.0454C68.45-18.0454 67.55-18.9454 67.65-19.9454C67.65-20.0454 67.85-30.9454 66.95-39.2454C66.25-45.4454 64.15-48.9454 60.55-49.6454C58.45-50.0454 56.75-48.1454 56.25-46.9454C55.65-45.7454 55.45-43.9454 55.45-41.5454C55.45-32.5454 55.65-28.7454 55.65-22.5454C55.65-13.7454 54.75-8.44538 58.85-2.14538C65.05 7.25462 67.15 7.75462 68.75 9.85462C70.25 11.8546 72.35 16.2546 72.35 16.2546L87.55 4.75462C87.55 4.75462 81.55-5.84538 81.55-12.1454C81.55-18.3454 84.55-31.8454 82.75-39.0454Z"/>
  </g>
  <g id="Bold-S" transform="matrix(1 0 0 1 2286.73 696)">
   <path d="M49.85-46.9852C50.35-45.6852 50.75-43.8852 50.75-41.3852C50.75-32.4852 50.55-28.7852 50.55-22.6852C50.55-13.9852 51.45-8.78523 47.35-2.58523C41.25 6.61477 39.15 7.21477 37.55 9.31477C35.95 11.4148 33.95 15.7148 33.95 15.7148L18.95 4.21477C18.95 4.21477 24.85-6.28523 24.85-12.3852C24.85-18.5852 21.85-31.7852 23.55-38.9852C24.65-43.7852 32.45-60.6852 35.15-67.6852C37.85-74.6852 40.95-83.7852 42.45-85.8852C44.95-89.4852 51.15-87.9852 50.65-81.5852C50.25-76.4852 47.55-59.5852 46.55-52.9852C46.05-52.9852 45.45-52.9852 44.95-52.8852C39.75-51.8852 36.65-47.2852 35.75-39.4852C34.85-31.0852 34.95-20.4852 35.05-19.9852C35.05-18.9852 35.85-18.2852 36.85-18.2852C36.85-18.2852 36.85-18.2852 36.85-18.2852C37.85-18.2852 38.55-19.0852 38.55-20.0852C38.55-20.1852 38.35-30.8852 39.25-39.0852C39.95-45.2852 42.05-48.7852 45.55-49.4852C47.55-49.8852 49.35-47.6852 49.85-46.9852ZM82.45-38.9852C81.35-43.7852 73.65-60.5852 70.85-67.6852C68.15-74.7852 65.25-83.7852 63.75-85.8852C61.25-89.4852 55.05-87.9852 55.55-81.5852C55.95-76.4852 58.45-59.5852 59.45-52.9852C59.95-52.9852 60.55-52.9852 61.05-52.8852C66.25-51.8852 69.35-47.2852 70.25-39.4852C71.15-31.0852 71.05-20.4852 70.95-19.9852C70.95-18.9852 70.15-18.2852 69.15-18.2852C69.15-18.2852 69.15-18.2852 69.15-18.2852C68.15-18.2852 67.45-19.0852 67.45-20.0852C67.45-20.1852 67.65-30.8852 66.75-39.0852C66.05-45.2852 63.95-48.7852 60.45-49.4852C58.55-49.8852 56.75-47.6852 56.25-46.9852C55.75-45.6852 55.35-43.8852 55.35-41.3852C55.35-32.4852 55.55-28.7852 55.55-22.6852C55.55-13.9852 54.65-8.78523 58.75-2.58523C64.85 6.61477 66.95 7.21477 68.55 9.31477C70.15 11.4148 72.15 15.7148 72.15 15.7148L87.15 4.21477C87.15 4.21477 81.25-6.28523 81.25-12.3852C81.25-18.5852 84.25-31.7852 82.45-38.9852Z"/>
  </g>
  <g id="Semibold-S" transform="matrix(1 0 0 1 1990.87 696)">
   <path d="M49.25-47.3095C49.85-46.0095 50.25-44.2095 50.25-41.5095C50.25-32.7095 50.05-29.1095 50.05-23.1095C50.05-14.6095 50.95-9.4095 46.95-3.3095C40.85 5.7905 38.85 6.3905 37.25 8.3905C35.65 10.3905 33.65 14.6905 33.65 14.6905L18.95 3.4905C18.95 3.4905 24.75-6.8095 24.75-12.9095C24.75-19.0095 21.85-32.0095 23.55-39.1095C24.65-43.8095 32.35-60.4095 34.95-67.4095C37.65-74.4095 40.65-83.3095 42.15-85.4095C44.65-89.0095 50.65-87.4095 50.25-81.1095C49.85-76.1095 47.25-59.3095 46.15-52.9095C45.65-52.9095 45.15-52.9095 44.55-52.8095C39.45-51.8095 36.45-47.4095 35.65-39.6095C34.75-31.3095 34.95-20.9095 34.95-20.4095C34.95-19.5095 35.65-18.8095 36.55-18.8095C36.55-18.8095 36.55-18.8095 36.55-18.8095C37.45-18.8095 38.15-19.6095 38.15-20.5095C38.15-20.6095 37.95-31.2095 38.85-39.3095C39.55-45.4095 41.65-48.9095 45.15-49.6095C46.95-49.8095 48.55-48.1095 49.25-47.3095ZM80.85-39.0095C79.75-43.7095 72.05-60.3095 69.35-67.3095C66.65-74.3095 63.85-83.2095 62.35-85.3095C59.85-88.9095 53.85-87.3095 54.25-81.0095C54.65-76.0095 57.15-59.2095 58.15-52.8095C58.65-52.8095 59.15-52.8095 59.75-52.7095C64.85-51.7095 67.85-47.3095 68.65-39.5095C69.55-31.2095 69.35-20.8095 69.35-20.3095C69.35-19.4095 68.65-18.7095 67.75-18.7095C67.75-18.7095 67.75-18.7095 67.75-18.7095C66.85-18.7095 66.15-19.5095 66.15-20.4095C66.15-20.5095 66.35-31.1095 65.45-39.2095C64.75-45.3095 62.65-48.8095 59.15-49.5095C57.45-49.8095 55.85-48.1095 55.15-47.3095C54.55-46.0095 54.15-44.2095 54.15-41.5095C54.15-32.7095 54.35-29.1095 54.35-23.1095C54.35-14.6095 53.45-9.4095 57.45-3.3095C63.55 5.7905 65.55 6.3905 67.15 8.3905C68.75 10.3905 70.75 14.6905 70.75 14.6905L85.45 3.4905C85.45 3.4905 79.65-6.8095 79.65-12.9095C79.65-19.0095 82.55-32.0095 80.85-39.0095Z"/>
  </g>
  <g id="Medium-S" transform="matrix(1 0 0 1 1695.01 696)">
   <path d="M48.55-47.4494C49.25-46.1494 49.75-44.2494 49.75-41.2494C49.75-32.6494 49.55-29.0494 49.55-23.1494C49.55-14.7494 50.45-9.64943 46.45-3.64943C40.45 5.25057 38.45 5.85057 36.95 7.85057C35.45 9.85057 33.45 14.0506 33.45 14.0506L18.95 3.05057C18.95 3.05057 24.65-7.14943 24.65-13.0494C24.65-18.9494 21.75-31.8494 23.45-38.8494C24.55-43.4494 32.05-59.8494 34.75-66.7494C37.45-73.6494 40.45-82.3494 41.85-84.4494C44.25-87.9494 50.25-86.4494 49.85-80.2494C49.45-75.2494 46.85-58.5494 45.85-52.3494C45.35-52.3494 44.85-52.3494 44.35-52.2494C39.35-51.2494 36.45-46.9494 35.65-39.4494C34.75-31.2494 34.95-21.0494 34.95-20.5494C34.95-19.7494 35.65-19.0494 36.45-19.0494C36.45-19.0494 36.45-19.0494 36.45-19.0494C37.25-19.0494 37.95-19.7494 37.95-20.5494C37.95-20.6494 37.75-31.0494 38.65-39.0494C39.35-45.1494 41.45-48.5494 44.95-49.2494C46.35-49.6494 47.75-48.3494 48.55-47.4494ZM79.25-38.8494C78.15-43.4494 70.65-59.8494 67.95-66.7494C65.25-73.6494 62.55-82.3494 61.05-84.4494C58.65-87.9494 52.65-86.4494 53.05-80.2494C53.45-75.2494 55.95-58.5494 56.85-52.3494C57.35-52.3494 57.85-52.3494 58.35-52.2494C63.35-51.2494 66.25-46.9494 67.05-39.4494C67.95-31.2494 67.75-21.0494 67.75-20.5494C67.75-19.7494 67.05-19.0494 66.25-19.0494C66.25-19.0494 66.25-19.0494 66.25-19.0494C65.45-19.0494 64.75-19.7494 64.75-20.5494C64.75-20.6494 64.95-31.0494 64.05-39.0494C63.35-45.1494 61.25-48.5494 57.75-49.2494C56.25-49.5494 54.85-48.2494 54.05-47.4494C53.35-46.1494 52.85-44.2494 52.85-41.3494C52.85-32.7494 53.05-29.1494 53.05-23.2494C53.05-14.8494 52.15-9.74943 56.15-3.74943C62.15 5.15057 64.15 5.75057 65.65 7.75057C67.15 9.75057 69.15 13.9506 69.15 13.9506L83.75 3.05057C83.75 3.05057 78.05-7.14943 78.05-13.0494C78.05-18.9494 80.85-31.9494 79.25-38.8494Z"/>
  </g>
  <g id="Regular-S" transform="matrix(1 0 0 1 1399.04 696)">
   <path d="M47.75-47.845C48.55-46.645 49.15-44.645 49.15-41.345C49.15-32.845 48.95-29.345 48.95-23.545C48.95-15.245 49.85-10.245 45.95-4.44498C40.05 4.35502 38.15 4.95502 36.55 6.85502C35.05 8.85502 33.05 12.955 33.05 12.955L18.95 2.35502C18.95 2.35502 24.65-7.64498 24.65-13.545C24.65-19.445 21.85-32.045 23.45-38.845C24.55-43.445 31.95-59.545 34.55-66.245C37.15-72.945 40.15-81.645 41.55-83.645C43.95-87.145 49.85-85.645 49.35-79.545C48.95-74.545 46.35-57.945 45.35-51.945C44.85-51.945 44.45-51.945 43.95-51.845C39.15-50.845 36.25-46.645 35.45-39.345C34.55-31.345 34.75-20.945 34.75-20.845C34.75-20.145 35.35-19.545 36.05-19.545C36.05-19.545 36.05-19.545 36.05-19.545C36.75-19.545 37.35-20.145 37.35-20.945C37.35-21.045 37.15-31.245 38.05-39.145C38.75-45.245 40.85-48.645 44.35-49.345C45.65-49.545 46.95-48.645 47.75-47.845ZM77.85-38.845C76.75-43.445 69.35-59.545 66.75-66.245C64.15-72.945 61.35-81.645 59.95-83.745C57.55-87.245 51.65-85.745 52.15-79.645C52.55-74.645 55.05-58.045 55.95-52.045C56.45-52.045 56.85-52.045 57.35-51.945C62.15-50.945 65.05-46.745 65.85-39.445C66.75-31.445 66.55-21.045 66.55-20.945C66.55-20.245 65.95-19.645 65.25-19.645C65.25-19.645 65.25-19.645 65.25-19.645C64.55-19.645 63.95-20.245 63.95-21.045C63.95-21.145 64.15-31.345 63.25-39.245C62.55-45.345 60.45-48.745 56.95-49.445C55.65-49.745 54.35-48.845 53.55-47.945C52.75-46.745 52.15-44.745 52.15-41.445C52.15-32.945 52.35-29.445 52.35-23.645C52.35-15.345 51.45-10.345 55.35-4.54498C61.25 4.25502 63.15 4.85502 64.75 6.75502C66.25 8.75502 68.25 12.855 68.25 12.855L82.25 2.35502C82.25 2.35502 76.55-7.64498 76.55-13.545C76.55-19.445 79.45-32.045 77.85-38.845Z"/>
  </g>
  <g id="Light-S" transform="matrix(1 0 0 1 1102.93 696)">
   <path d="M46.95-48.0135C47.95-46.9135 48.75-44.8135 48.75-41.0135C48.75-32.6135 48.55-29.2135 48.55-23.4135C48.55-15.3135 49.45-10.3135 45.55-4.61354C39.75 4.08646 37.85 4.58646 36.35 6.48646C34.85 8.38646 32.95 12.4865 32.95 12.4865L18.95 1.88646C18.95 1.88646 24.55-7.91354 24.55-13.7135C24.55-19.5135 21.75-31.9135 23.35-38.6135C24.45-43.1135 31.75-58.9135 34.25-65.6135C36.85-72.2135 39.75-80.7135 41.15-82.7135C43.55-86.1135 49.25-84.6135 48.85-78.6135C48.45-73.7135 45.85-57.1135 44.85-51.3135C44.45-51.3135 43.95-51.3135 43.45-51.2135C38.75-50.3135 36.05-46.2135 35.25-39.0135C34.35-31.1135 34.55-20.9135 34.55-20.8135C34.55-20.2135 35.05-19.6135 35.75-19.6135C35.75-19.6135 35.75-19.6135 35.75-19.6135C36.35-19.6135 36.95-20.1135 36.95-20.8135C36.95-20.9135 36.75-31.0135 37.65-38.7135C38.35-44.7135 40.45-48.1135 43.95-48.9135C45.15-49.2135 46.15-48.7135 46.95-48.0135ZM76.65-38.7135C75.55-43.2135 68.25-59.0135 65.75-65.7135C63.15-72.3135 60.45-80.8135 59.15-82.8135C56.75-86.2135 51.05-84.7135 51.45-78.7135C51.85-73.8135 54.35-57.2135 55.25-51.4135C55.65-51.4135 56.15-51.4135 56.55-51.3135C61.25-50.4135 63.95-46.3135 64.75-39.1135C65.65-31.2135 65.45-21.0135 65.45-20.9135C65.45-20.3135 64.95-19.7135 64.25-19.7135C64.25-19.7135 64.25-19.7135 64.25-19.7135C63.65-19.7135 63.05-20.2135 63.05-20.9135C63.05-21.0135 63.25-31.1135 62.35-38.8135C61.65-44.8135 59.55-48.2135 56.05-49.0135C54.95-49.2135 53.85-48.7135 53.05-48.0135C52.05-46.9135 51.25-44.8135 51.25-41.0135C51.25-32.6135 51.45-29.2135 51.45-23.4135C51.45-15.3135 50.55-10.3135 54.45-4.61354C60.25 4.08646 62.15 4.58646 63.65 6.48646C65.15 8.38646 67.05 12.4865 67.05 12.4865L81.05 1.88646C81.05 1.88646 75.45-7.91354 75.45-13.7135C75.45-19.5135 78.25-31.9135 76.65-38.7135Z"/>
  </g>
  <g id="Thin-S" transform="matrix(1 0 0 1 806.722 696)">
   <path d="M45.65-48.4092C46.85-47.6092 48.35-45.6092 48.35-40.7092C48.35-32.5092 48.15-29.1092 48.15-23.4092C48.15-15.4092 48.95-10.5092 45.25-4.90916C39.55 3.59084 37.65 4.19084 36.15 6.09084C34.65 7.99084 32.75 11.9908 32.75 11.9908L18.95 1.59084C18.95 1.59084 24.45-8.10916 24.45-13.8092C24.45-19.5092 21.75-31.7092 23.25-38.4092C24.35-42.8092 31.45-58.4092 33.95-64.9092C36.45-71.4092 39.35-79.8092 40.65-81.8092C42.95-85.2092 48.65-83.7092 48.25-77.8092C47.95-72.9092 45.25-56.3092 44.35-50.8092C43.95-50.8092 43.55-50.8092 43.05-50.7092C38.55-49.8092 35.85-45.8092 35.15-38.8092C34.35-31.0092 34.45-21.0092 34.45-20.9092C34.45-20.4092 34.85-19.9092 35.45-19.9092C35.45-19.9092 35.45-19.9092 35.45-19.9092C35.95-19.9092 36.45-20.4092 36.45-20.9092C36.45-21.0092 36.35-30.9092 37.15-38.6092C37.85-44.6092 39.95-48.0092 43.55-48.8092C44.25-48.9092 45.05-48.7092 45.65-48.4092ZM75.75-38.4092C74.65-42.8092 67.55-58.4092 65.05-64.9092C62.55-71.4092 59.85-79.8092 58.55-81.8092C56.25-85.2092 50.55-83.7092 50.95-77.8092C51.25-72.9092 53.85-56.3092 54.65-50.8092C55.05-50.8092 55.45-50.8092 55.95-50.7092C60.45-49.8092 63.15-45.8092 63.85-38.8092C64.65-31.0092 64.55-21.0092 64.55-20.9092C64.55-20.4092 64.15-19.9092 63.55-19.9092C63.55-19.9092 63.55-19.9092 63.55-19.9092C63.05-19.9092 62.55-20.4092 62.55-20.9092C62.55-21.0092 62.65-30.9092 61.85-38.6092C61.15-44.6092 59.05-48.0092 55.45-48.8092C54.75-48.9092 54.05-48.8092 53.35-48.4092C52.15-47.6092 50.65-45.6092 50.65-40.7092C50.65-32.5092 50.85-29.1092 50.85-23.4092C50.85-15.4092 50.05-10.5092 53.75-4.90916C59.45 3.59084 61.35 4.19084 62.85 6.09084C64.35 7.99084 66.25 11.9908 66.25 11.9908L80.05 1.59084C80.05 1.59084 74.55-8.10916 74.55-13.8092C74.55-19.5092 77.25-31.7092 75.75-38.4092Z"/>
  </g>
  <g id="Ultralight-S" transform="matrix(1 0 0 1 510.561 696)">
   <path d="M43.65-48.549C43.65-48.549 47.75-48.549 47.75-40.449C47.75-32.349 47.55-28.949 47.55-23.449C47.55-15.549 48.35-10.849 44.65-5.24903C39.15 3.15097 37.25 3.65097 35.75 5.55097C34.25 7.45097 32.45 11.351 32.45 11.351L18.95 1.05097C18.95 1.05097 24.35-8.44903 24.35-14.049C24.35-19.649 21.65-31.649 23.25-38.149C24.25-42.549 31.35-57.849 33.85-64.249C36.35-70.649 39.15-78.849 40.45-80.849C42.75-84.149 48.35-82.749 47.95-76.949C47.65-72.049 44.95-55.449 44.05-50.149C43.65-50.149 43.25-50.149 42.85-50.049C38.45-49.149 35.95-45.349 35.15-38.549C34.35-30.949 34.45-21.049 34.45-20.949C34.45-20.549 34.85-20.149 35.25-20.149C35.25-20.149 35.25-20.149 35.25-20.149C35.65-20.149 36.05-20.549 36.05-20.949C36.05-21.049 35.95-30.849 36.75-38.349C37.35-44.349 39.55-47.749 43.15-48.449C43.25-48.549 43.65-48.549 43.65-48.549ZM74.75-38.149C73.75-42.549 66.65-57.849 64.15-64.249C61.65-70.649 59.05-78.849 57.75-80.849C55.45-84.149 49.85-82.749 50.25-76.949C50.55-72.049 53.15-55.449 53.95-50.149C54.35-50.149 54.75-50.149 55.15-50.049C59.55-49.149 62.05-45.349 62.85-38.549C63.65-30.949 63.55-21.049 63.55-20.949C63.55-20.549 63.15-20.149 62.75-20.149C62.75-20.149 62.75-20.149 62.75-20.149C62.35-20.149 61.95-20.549 61.95-20.949C61.95-21.049 62.05-30.849 61.25-38.349C60.65-44.349 58.45-47.749 54.85-48.449C54.65-48.449 54.25-48.449 54.25-48.449C54.25-48.449 50.15-48.449 50.15-40.349C50.15-32.249 50.35-28.849 50.35-23.349C50.35-15.449 49.55-10.749 53.25-5.14903C58.85 3.25097 60.75 3.75097 62.15 5.65097C63.55 7.55097 65.45 11.451 65.45 11.451L78.95 1.05097C78.95 1.05097 73.55-8.44903 73.55-14.049C73.55-19.649 76.25-31.649 74.75-38.149Z"/>
  </g>
 </g>
</svg>
