<?xml version="1.0" encoding="UTF-8"?>
<!--Generator: Apple Native CoreSVG 175.5-->
<!DOCTYPE svg
PUBLIC "-//W3C//DTD SVG 1.1//EN"
       "http://www.w3.org/Graphics/SVG/1.1/DTD/svg11.dtd">
<svg version="1.1" xmlns="http://www.w3.org/2000/svg" xmlns:xlink="http://www.w3.org/1999/xlink" width="3300" height="2200">
 <!--glyph: "", point size: 100.0, font version: "18.0d9e1", template writer version: "84"-->
 <g id="Notes">
  <rect height="2200" id="artboard" style="fill:white;opacity:1" width="3300" x="0" y="0"/>
  <line style="fill:none;stroke:black;opacity:1;stroke-width:0.5;" x1="263" x2="3036" y1="292" y2="292"/>
  <text style="stroke:none;fill:black;font-family:sans-serif;font-size:13;font-weight:bold;" transform="matrix(1 0 0 1 263 322)">Weight/Scale Variations</text>
  <text style="stroke:none;fill:black;font-family:sans-serif;font-size:13;text-anchor:middle;" transform="matrix(1 0 0 1 559.711 322)">Ultralight</text>
  <text style="stroke:none;fill:black;font-family:sans-serif;font-size:13;text-anchor:middle;" transform="matrix(1 0 0 1 856.422 322)">Thin</text>
  <text style="stroke:none;fill:black;font-family:sans-serif;font-size:13;text-anchor:middle;" transform="matrix(1 0 0 1 1153.13 322)">Light</text>
  <text style="stroke:none;fill:black;font-family:sans-serif;font-size:13;text-anchor:middle;" transform="matrix(1 0 0 1 1449.84 322)">Regular</text>
  <text style="stroke:none;fill:black;font-family:sans-serif;font-size:13;text-anchor:middle;" transform="matrix(1 0 0 1 1746.56 322)">Medium</text>
  <text style="stroke:none;fill:black;font-family:sans-serif;font-size:13;text-anchor:middle;" transform="matrix(1 0 0 1 2043.27 322)">Semibold</text>
  <text style="stroke:none;fill:black;font-family:sans-serif;font-size:13;text-anchor:middle;" transform="matrix(1 0 0 1 2339.98 322)">Bold</text>
  <text style="stroke:none;fill:black;font-family:sans-serif;font-size:13;text-anchor:middle;" transform="matrix(1 0 0 1 2636.69 322)">Heavy</text>
  <text style="stroke:none;fill:black;font-family:sans-serif;font-size:13;text-anchor:middle;" transform="matrix(1 0 0 1 2933.4 322)">Black</text>
  <line style="fill:none;stroke:black;opacity:1;stroke-width:0.5;" x1="263" x2="3036" y1="1903" y2="1903"/>
  <g transform="matrix(1 0 0 1 263 1933)">
   <path d="M9.24805 0.830078Q10.8691 0.830078 12.2949 0.214844Q13.7207-0.400391 14.8096-1.49414Q15.8984-2.58789 16.5186-4.01367Q17.1387-5.43945 17.1387-7.05078Q17.1387-8.66211 16.5186-10.0879Q15.8984-11.5137 14.8047-12.6074Q13.7109-13.7012 12.2852-14.3164Q10.8594-14.9316 9.23828-14.9316Q7.62695-14.9316 6.20117-14.3164Q4.77539-13.7012 3.69141-12.6074Q2.60742-11.5137 1.9873-10.0879Q1.36719-8.66211 1.36719-7.05078Q1.36719-5.43945 1.9873-4.01367Q2.60742-2.58789 3.69629-1.49414Q4.78516-0.400391 6.21094 0.214844Q7.63672 0.830078 9.24805 0.830078ZM9.24805-0.654297Q7.91992-0.654297 6.7627-1.14746Q5.60547-1.64062 4.73145-2.51953Q3.85742-3.39844 3.36426-4.56055Q2.87109-5.72266 2.87109-7.05078Q2.87109-8.37891 3.35938-9.54102Q3.84766-10.7031 4.72168-11.582Q5.5957-12.4609 6.75293-12.9541Q7.91016-13.4473 9.23828-13.4473Q10.5762-13.4473 11.7383-12.9541Q12.9004-12.4609 13.7793-11.582Q14.6582-10.7031 15.1514-9.54102Q15.6445-8.37891 15.6445-7.05078Q15.6445-5.72266 15.1514-4.56055Q14.6582-3.39844 13.7793-2.51953Q12.9004-1.64062 11.7432-1.14746Q10.5859-0.654297 9.24805-0.654297ZM5.6543-7.05078Q5.6543-6.72852 5.85938-6.52832Q6.06445-6.32812 6.40625-6.32812L8.51562-6.32812L8.51562-4.20898Q8.51562-3.88672 8.71094-3.67676Q8.90625-3.4668 9.23828-3.4668Q9.56055-3.4668 9.77051-3.67676Q9.98047-3.88672 9.98047-4.20898L9.98047-6.32812L12.0898-6.32812Q12.4219-6.32812 12.627-6.52832Q12.832-6.72852 12.832-7.05078Q12.832-7.38281 12.627-7.58789Q12.4219-7.79297 12.0898-7.79297L9.98047-7.79297L9.98047-9.90234Q9.98047-10.2344 9.77051-10.4443Q9.56055-10.6543 9.23828-10.6543Q8.90625-10.6543 8.71094-10.4443Q8.51562-10.2344 8.51562-9.90234L8.51562-7.79297L6.40625-7.79297Q6.06445-7.79297 5.85938-7.58789Q5.6543-7.38281 5.6543-7.05078Z"/>
  </g>
  <g transform="matrix(1 0 0 1 281.867 1933)">
   <path d="M11.709 2.91016Q13.75 2.91016 15.5518 2.12891Q17.3535 1.34766 18.7305-0.0292969Q20.1074-1.40625 20.8887-3.20801Q21.6699-5.00977 21.6699-7.05078Q21.6699-9.0918 20.8887-10.8936Q20.1074-12.6953 18.7305-14.0723Q17.3535-15.4492 15.5469-16.2305Q13.7402-17.0117 11.6992-17.0117Q9.6582-17.0117 7.85645-16.2305Q6.05469-15.4492 4.68262-14.0723Q3.31055-12.6953 2.5293-10.8936Q1.74805-9.0918 1.74805-7.05078Q1.74805-5.00977 2.5293-3.20801Q3.31055-1.40625 4.6875-0.0292969Q6.06445 1.34766 7.86621 2.12891Q9.66797 2.91016 11.709 2.91016ZM11.709 1.25Q9.98047 1.25 8.47656 0.605469Q6.97266-0.0390625 5.83496-1.17676Q4.69727-2.31445 4.05762-3.81836Q3.41797-5.32227 3.41797-7.05078Q3.41797-8.7793 4.05762-10.2832Q4.69727-11.7871 5.83008-12.9297Q6.96289-14.0723 8.4668-14.7119Q9.9707-15.3516 11.6992-15.3516Q13.4277-15.3516 14.9365-14.7119Q16.4453-14.0723 17.583-12.9297Q18.7207-11.7871 19.3652-10.2832Q20.0098-8.7793 20.0098-7.05078Q20.0098-5.32227 19.3701-3.81836Q18.7305-2.31445 17.5879-1.17676Q16.4453-0.0390625 14.9414 0.605469Q13.4375 1.25 11.709 1.25ZM7.17773-7.05078Q7.17773-6.69922 7.41211-6.47461Q7.64648-6.25 8.01758-6.25L10.8887-6.25L10.8887-3.36914Q10.8887-2.99805 11.1133-2.76855Q11.3379-2.53906 11.6895-2.53906Q12.0605-2.53906 12.29-2.76855Q12.5195-2.99805 12.5195-3.36914L12.5195-6.25L15.4004-6.25Q15.7715-6.25 16.001-6.47461Q16.2305-6.69922 16.2305-7.05078Q16.2305-7.42188 16.001-7.65137Q15.7715-7.88086 15.4004-7.88086L12.5195-7.88086L12.5195-10.752Q12.5195-11.1328 12.29-11.3623Q12.0605-11.5918 11.6895-11.5918Q11.3379-11.5918 11.1133-11.3574Q10.8887-11.123 10.8887-10.752L10.8887-7.88086L8.01758-7.88086Q7.63672-7.88086 7.40723-7.65137Q7.17773-7.42188 7.17773-7.05078Z"/>
  </g>
  <g transform="matrix(1 0 0 1 305.646 1933)">
   <path d="M14.9707 5.66406Q17.0605 5.66406 18.96 5.01465Q20.8594 4.36523 22.4512 3.19336Q24.043 2.02148 25.2197 0.429688Q26.3965-1.16211 27.0459-3.06641Q27.6953-4.9707 27.6953-7.05078Q27.6953-9.14062 27.0459-11.04Q26.3965-12.9395 25.2197-14.5312Q24.043-16.123 22.4512-17.2998Q20.8594-18.4766 18.9551-19.126Q17.0508-19.7754 14.9609-19.7754Q12.8711-19.7754 10.9717-19.126Q9.07227-18.4766 7.48535-17.2998Q5.89844-16.123 4.72168-14.5312Q3.54492-12.9395 2.90039-11.04Q2.25586-9.14062 2.25586-7.05078Q2.25586-4.9707 2.90527-3.06641Q3.55469-1.16211 4.72656 0.429688Q5.89844 2.02148 7.49023 3.19336Q9.08203 4.36523 10.9814 5.01465Q12.8809 5.66406 14.9707 5.66406ZM14.9707 3.84766Q13.1641 3.84766 11.5283 3.2959Q9.89258 2.74414 8.53516 1.74805Q7.17773 0.751953 6.17676-0.610352Q5.17578-1.97266 4.62891-3.6084Q4.08203-5.24414 4.08203-7.05078Q4.08203-8.86719 4.62891-10.5029Q5.17578-12.1387 6.17188-13.501Q7.16797-14.8633 8.52539-15.8594Q9.88281-16.8555 11.5186-17.4023Q13.1543-17.9492 14.9609-17.9492Q16.7773-17.9492 18.4131-17.4023Q20.0488-16.8555 21.4111-15.8594Q22.7734-14.8633 23.7744-13.501Q24.7754-12.1387 25.3223-10.5029Q25.8691-8.86719 25.8691-7.05078Q25.8691-5.24414 25.3223-3.6084Q24.7754-1.97266 23.7793-0.610352Q22.7832 0.751953 21.4209 1.74805Q20.0586 2.74414 18.4229 3.2959Q16.7871 3.84766 14.9707 3.84766ZM9.19922-7.05078Q9.19922-6.66992 9.45801-6.4209Q9.7168-6.17188 10.1172-6.17188L14.0625-6.17188L14.0625-2.2168Q14.0625-1.81641 14.3115-1.55762Q14.5605-1.29883 14.9512-1.29883Q15.3516-1.29883 15.6104-1.55273Q15.8691-1.80664 15.8691-2.2168L15.8691-6.17188L19.8242-6.17188Q20.2246-6.17188 20.4785-6.4209Q20.7324-6.66992 20.7324-7.05078Q20.7324-7.46094 20.4785-7.71484Q20.2246-7.96875 19.8242-7.96875L15.8691-7.96875L15.8691-11.9141Q15.8691-12.3242 15.6104-12.583Q15.3516-12.8418 14.9512-12.8418Q14.5605-12.8418 14.3115-12.583Q14.0625-12.3242 14.0625-11.9141L14.0625-7.96875L10.1172-7.96875Q9.70703-7.96875 9.45312-7.71484Q9.19922-7.46094 9.19922-7.05078Z"/>
  </g>
  <text style="stroke:none;fill:black;font-family:sans-serif;font-size:13;font-weight:bold;" transform="matrix(1 0 0 1 263 1953)">Design Variations</text>
  <text style="stroke:none;fill:black;font-family:sans-serif;font-size:13;" transform="matrix(1 0 0 1 263 1971)">Symbols are supported in up to nine weights and three scales.</text>
  <text style="stroke:none;fill:black;font-family:sans-serif;font-size:13;" transform="matrix(1 0 0 1 263 1989)">For optimal layout with text and other symbols, vertically align</text>
  <text style="stroke:none;fill:black;font-family:sans-serif;font-size:13;" transform="matrix(1 0 0 1 263 2007)">symbols with the adjacent text.</text>
  <line style="fill:none;stroke:#00AEEF;stroke-width:0.5;opacity:1.0;" x1="776" x2="776" y1="1919" y2="1933"/>
  <g transform="matrix(1 0 0 1 776 1933)">
   <path d="M3.31055 0.15625Q3.70117 0.15625 3.91602-0.00976562Q4.13086-0.175781 4.26758-0.585938L5.52734-4.0332L11.2891-4.0332L12.5488-0.585938Q12.6855-0.175781 12.9004-0.00976562Q13.1152 0.15625 13.4961 0.15625Q13.8867 0.15625 14.1162-0.0585938Q14.3457-0.273438 14.3457-0.644531Q14.3457-0.869141 14.2383-1.17188L9.6582-13.3691Q9.48242-13.8184 9.17969-14.043Q8.87695-14.2676 8.4082-14.2676Q7.5-14.2676 7.17773-13.3789L2.59766-1.16211Q2.49023-0.859375 2.49023-0.634766Q2.49023-0.263672 2.70996-0.0537109Q2.92969 0.15625 3.31055 0.15625ZM6.00586-5.51758L8.37891-12.0898L8.42773-12.0898L10.8008-5.51758Z"/>
  </g>
  <line style="fill:none;stroke:#00AEEF;stroke-width:0.5;opacity:1.0;" x1="793.197" x2="793.197" y1="1919" y2="1933"/>
  <text style="stroke:none;fill:black;font-family:sans-serif;font-size:13;font-weight:bold;" transform="matrix(1 0 0 1 776 1953)">Margins</text>
  <text style="stroke:none;fill:black;font-family:sans-serif;font-size:13;" transform="matrix(1 0 0 1 776 1971)">Leading and trailing margins on the left and right side of each symbol</text>
  <text style="stroke:none;fill:black;font-family:sans-serif;font-size:13;" transform="matrix(1 0 0 1 776 1989)">can be adjusted by modifying the x-location of the margin guidelines.</text>
  <text style="stroke:none;fill:black;font-family:sans-serif;font-size:13;" transform="matrix(1 0 0 1 776 2007)">Modifications are automatically applied proportionally to all</text>
  <text style="stroke:none;fill:black;font-family:sans-serif;font-size:13;" transform="matrix(1 0 0 1 776 2025)">scales and weights.</text>
  <g transform="matrix(1 0 0 1 1289 1933)">
   <path d="M2.8418 1.86523L4.54102 3.57422Q5.18555 4.22852 5.90332 4.17969Q6.62109 4.13086 7.31445 3.35938L18.0078-8.42773L17.041-9.4043L6.42578 2.27539Q6.16211 2.57812 5.89355 2.61719Q5.625 2.65625 5.27344 2.30469L4.10156 1.14258Q3.75 0.791016 3.79395 0.522461Q3.83789 0.253906 4.14062-0.0195312L15.6152-10.8203L14.6387-11.7871L3.04688-0.898438Q2.30469-0.214844 2.25098 0.498047Q2.19727 1.21094 2.8418 1.86523ZM9.25781-16.3281Q8.94531-16.0254 8.90625-15.6348Q8.86719-15.2441 9.04297-14.9512Q9.21875-14.6777 9.55566-14.541Q9.89258-14.4043 10.3809-14.5215Q11.4746-14.7754 12.5977-14.7314Q13.7207-14.6875 14.7949-13.9844L14.209-12.5293Q13.9551-11.9043 14.0674-11.4404Q14.1797-10.9766 14.5801-10.5664L16.875-8.25195Q17.2363-7.88086 17.5781-7.82227Q17.9199-7.76367 18.3398-7.8418L19.4043-8.03711L20.0684-7.36328L20.0293-6.80664Q20-6.43555 20.1221-6.12305Q20.2441-5.81055 20.6055-5.44922L21.3672-4.70703Q21.7285-4.3457 22.1533-4.33105Q22.5781-4.31641 22.9297-4.66797L25.8398-7.58789Q26.1914-7.93945 26.1816-8.35449Q26.1719-8.76953 25.8105-9.13086L25.0391-9.89258Q24.6875-10.2539 24.3799-10.3857Q24.0723-10.5176 23.7109-10.4883L23.1348-10.4395L22.4902-11.0742L22.7344-12.1973Q22.832-12.6172 22.6953-12.9834Q22.5586-13.3496 22.1191-13.7891L19.9219-15.9766Q18.6719-17.2168 17.2607-17.8369Q15.8496-18.457 14.4189-18.4814Q12.9883-18.5059 11.665-17.959Q10.3418-17.4121 9.25781-16.3281ZM10.752-15.957Q11.6602-16.6211 12.7002-16.9043Q13.7402-17.1875 14.8047-17.085Q15.8691-16.9824 16.8701-16.5137Q17.8711-16.0449 18.7012-15.2051L21.1328-12.793Q21.3086-12.6172 21.3525-12.4512Q21.3965-12.2852 21.3379-12.0312L21.0156-10.5469L22.5195-9.0625L23.5059-9.12109Q23.6914-9.13086 23.7891-9.09668Q23.8867-9.0625 24.0332-8.91602L24.6094-8.33984L22.168-5.89844L21.5918-6.47461Q21.4453-6.62109 21.4062-6.71875Q21.3672-6.81641 21.377-7.01172L21.4453-7.98828L19.9512-9.47266L18.4277-9.21875Q18.1836-9.16992 18.042-9.2041Q17.9004-9.23828 17.7148-9.41406L15.7129-11.416Q15.5176-11.5918 15.4932-11.7529Q15.4688-11.9141 15.5859-12.1875L16.4648-14.2773Q15.293-15.3711 13.8281-15.791Q12.3633-16.2109 10.8398-15.7617Q10.7227-15.7324 10.6885-15.8057Q10.6543-15.8789 10.752-15.957Z"/>
  </g>
  <text style="stroke:none;fill:black;font-family:sans-serif;font-size:13;font-weight:bold;" transform="matrix(1 0 0 1 1289 1953)">Exporting</text>
  <text style="stroke:none;fill:black;font-family:sans-serif;font-size:13;" transform="matrix(1 0 0 1 1289 1971)">Symbols should be outlined when exporting to ensure the</text>
  <text style="stroke:none;fill:black;font-family:sans-serif;font-size:13;" transform="matrix(1 0 0 1 1289 1989)">design is preserved when submitting to Xcode.</text>
  <text id="template-version" style="stroke:none;fill:black;font-family:sans-serif;font-size:13;text-anchor:end;" transform="matrix(1 0 0 1 3036 1933)">Template v.2.0</text>
  <text style="stroke:none;fill:black;font-family:sans-serif;font-size:13;text-anchor:end;" transform="matrix(1 0 0 1 3036 1951)">Requires Xcode 12 or greater</text>
  <text id="descriptive-name" style="stroke:none;fill:black;font-family:sans-serif;font-size:13;text-anchor:end;" transform="matrix(1 0 0 1 3036 1969)">Generated from custom.sponge</text>
  <text style="stroke:none;fill:black;font-family:sans-serif;font-size:13;text-anchor:end;" transform="matrix(1 0 0 1 3036 1987)">Typeset at 100 points</text>
  <text style="stroke:none;fill:black;font-family:sans-serif;font-size:13;" transform="matrix(1 0 0 1 263 726)">Small</text>
  <text style="stroke:none;fill:black;font-family:sans-serif;font-size:13;" transform="matrix(1 0 0 1 263 1156)">Medium</text>
  <text style="stroke:none;fill:black;font-family:sans-serif;font-size:13;" transform="matrix(1 0 0 1 263 1586)">Large</text>
 </g>
 <g id="Guides">
  <g id="H-reference" style="fill:#27AAE1;stroke:none;" transform="matrix(1 0 0 1 339 696)">
   <path d="M0.993347 0L3.6377 0L29.3282-67.1326L30.0301-67.1326L30.0301-70.459L28.1227-70.459ZM11.6882-24.4797L46.9818-24.4797L46.2311-26.7288L12.4382-26.7288ZM55.1193 0L57.7637 0L30.6381-70.459L29.4327-70.459L29.4327-67.1326Z"/>
  </g>
  <line id="Baseline-S" style="fill:none;stroke:#27AAE1;opacity:1;stroke-width:0.5;" x1="263" x2="3036" y1="696" y2="696"/>
  <line id="Capline-S" style="fill:none;stroke:#27AAE1;opacity:1;stroke-width:0.5;" x1="263" x2="3036" y1="625.541" y2="625.541"/>
  <g id="H-reference" style="fill:#27AAE1;stroke:none;" transform="matrix(1 0 0 1 339 1126)">
   <path d="M0.993347 0L3.6377 0L29.3282-67.1326L30.0301-67.1326L30.0301-70.459L28.1227-70.459ZM11.6882-24.4797L46.9818-24.4797L46.2311-26.7288L12.4382-26.7288ZM55.1193 0L57.7637 0L30.6381-70.459L29.4327-70.459L29.4327-67.1326Z"/>
  </g>
  <line id="Baseline-M" style="fill:none;stroke:#27AAE1;opacity:1;stroke-width:0.5;" x1="263" x2="3036" y1="1126" y2="1126"/>
  <line id="Capline-M" style="fill:none;stroke:#27AAE1;opacity:1;stroke-width:0.5;" x1="263" x2="3036" y1="1055.54" y2="1055.54"/>
  <g id="H-reference" style="fill:#27AAE1;stroke:none;" transform="matrix(1 0 0 1 339 1556)">
   <path d="M0.993347 0L3.6377 0L29.3282-67.1326L30.0301-67.1326L30.0301-70.459L28.1227-70.459ZM11.6882-24.4797L46.9818-24.4797L46.2311-26.7288L12.4382-26.7288ZM55.1193 0L57.7637 0L30.6381-70.459L29.4327-70.459L29.4327-67.1326Z"/>
  </g>
  <line id="Baseline-L" style="fill:none;stroke:#27AAE1;opacity:1;stroke-width:0.5;" x1="263" x2="3036" y1="1556" y2="1556"/>
  <line id="Capline-L" style="fill:none;stroke:#27AAE1;opacity:1;stroke-width:0.5;" x1="263" x2="3036" y1="1485.54" y2="1485.54"/>
  <line id="left-margin" style="fill:none;stroke:#FF3B30;stroke-width:0.5;opacity:1.0;" x1="1395.98" x2="1395.98" y1="1030.73" y2="1150.14"/>
  <line id="right-margin" style="fill:none;stroke:#FF3B30;stroke-width:0.5;opacity:1.0;" x1="1503.71" x2="1503.71" y1="1030.73" y2="1150.14"/>
 </g>
 <g id="Symbols">
  <g id="Black-L" transform="matrix(1 0 0 1 2855.7 1556)">
   <path d="M19.6839 19.2426C14.3839 16.2426 8.98391 10.9426 6.38391 7.94261C-9.71609-10.3574-5.41609-31.7574 11.9839-48.3574C30.8839-66.3574 45.1839-92.6574 62.7839-108.357C79.6839-123.457 99.8839-125.657 120.584-112.157C123.484-110.257 127.084-106.657 130.284-102.557C136.484-94.4574 137.984-83.2574 136.684-72.9574C135.784-65.6574 132.784-55.8574 123.684-50.2574C105.384-39.1574 86.9839-17.4574 70.7839 1.64261C69.0839 3.64261 67.4839 5.54261 65.8839 7.44261C58.6839 15.9426 46.3839 21.2426 33.0839 21.8426C27.9839 21.9426 23.7839 21.5426 19.6839 19.2426ZM144.584-90.9574C145.084-90.3574 145.684-89.7574 146.184-89.1574C161.584-71.2574 170.384-38.5574 149.184-28.6574C128.384-18.9574 105.184 6.14261 92.1839 28.3426C80.7839 47.9426 47.2839 43.2426 28.7839 29.5426C29.9839 29.5426 31.1839 29.5426 32.3839 29.5426C48.0839 28.8426 63.7839 23.4426 72.5839 13.0426C74.1839 11.1426 75.7839 9.24261 77.4839 7.24261C93.2839-11.3574 111.184-32.4574 128.184-42.7574C130.484-44.1574 132.484-45.7574 134.384-47.6574C140.384-53.6574 144.184-61.9574 145.384-71.9574C146.184-78.0574 145.884-84.6574 144.584-90.9574ZM35.4839-32.0574C32.5839-29.1574 32.5839-24.3574 35.4839-21.4574C38.3839-18.5574 43.1839-18.5574 46.0839-21.4574C48.9839-24.3574 48.9839-29.1574 46.0839-32.0574C43.1839-34.9574 38.3839-34.9574 35.4839-32.0574ZM89.4839-75.9574C85.2839-71.7574 85.2839-64.9574 89.4839-60.7574C93.6839-56.5574 100.484-56.5574 104.684-60.7574C108.884-64.9574 108.884-71.7574 104.684-75.9574C100.484-80.1574 93.6839-80.1574 89.4839-75.9574ZM45.3839-66.8574C43.3839-64.8574 43.3839-61.5574 45.3839-59.4574C47.3839-57.4574 50.6839-57.4574 52.7839-59.4574C54.7839-61.4574 54.7839-64.7574 52.7839-66.8574C50.7839-68.9574 47.3839-68.9574 45.3839-66.8574ZM99.1839-12.1574C97.3839-10.3574 97.3839-7.45739 99.1839-5.65739C100.984-3.85739 103.884-3.85739 105.684-5.65739C107.484-7.45739 107.484-10.3574 105.684-12.1574C103.884-13.9574 100.984-13.9574 99.1839-12.1574ZM138.284-41.6574C136.484-39.8574 136.484-36.9574 138.284-35.1574C140.084-33.3574 142.984-33.3574 144.784-35.1574C146.584-36.9574 146.584-39.8574 144.784-41.6574C142.984-43.4574 140.084-43.4574 138.284-41.6574Z"/>
  </g>
  <g id="Heavy-L" transform="matrix(1 0 0 1 2560.42 1556)">
   <path d="M20.495 19.4533C14.995 16.5533 9.09504 10.4533 6.19504 7.25328C-9.60496-10.7467-5.40496-31.7467 11.795-48.0467C30.395-65.7467 44.495-91.6467 61.795-107.147C78.395-122.047 98.295-124.147 118.595-110.947C121.795-108.847 126.295-104.847 129.695-100.047C135.295-92.3467 136.395-81.9467 135.195-72.3467C134.295-65.0467 131.295-55.1467 122.095-49.6467C104.195-38.7467 85.995-17.3467 69.995 1.55328C68.395 3.45328 66.795 5.35328 65.195 7.25328C57.895 15.6533 45.695 21.0533 32.395 21.5533C27.895 21.7533 24.195 21.4533 20.495 19.4533ZM141.395-91.0467C141.695-90.6467 142.095-90.3467 142.395-89.9467C157.895-72.4467 167.995-38.6467 146.895-28.7467C126.495-19.2467 103.595 5.45328 90.795 27.3533C79.595 46.5533 46.595 42.0533 28.395 28.5533C29.495 28.5533 31.595 29.5533 32.695 29.5533C48.095 28.9533 62.495 22.5533 71.095 12.4533C72.695 10.5533 74.295 8.65328 75.895 6.75328C91.495-11.7467 109.295-32.6467 126.195-42.8467C128.395-44.1467 130.395-45.7467 132.195-47.5467C137.995-53.3467 141.795-61.6467 142.995-71.3467C143.895-77.5467 142.595-84.8467 141.395-91.0467ZM34.895-32.1467C31.995-29.2467 31.995-24.5467 34.895-21.6467C37.795-18.7467 42.495-18.7467 45.395-21.6467C48.295-24.5467 48.295-29.2467 45.395-32.1467C42.495-35.0467 37.795-34.9467 34.895-32.1467ZM88.095-75.2467C83.995-71.1467 83.995-64.3467 88.095-60.2467C92.195-56.1467 98.995-56.1467 103.095-60.2467C107.195-64.3467 107.195-71.1467 103.095-75.2467C98.895-79.4467 92.195-79.4467 88.095-75.2467ZM44.695-66.4467C42.695-64.4467 42.695-61.1467 44.695-59.1467C46.695-57.1467 49.995-57.1467 51.995-59.1467C53.995-61.1467 53.995-64.4467 51.995-66.4467C49.995-68.4467 46.695-68.4467 44.695-66.4467ZM97.595-12.5467C95.795-10.7467 95.795-7.94672 97.595-6.14672C99.395-4.34672 102.195-4.34672 103.995-6.14672C105.795-7.94672 105.795-10.7467 103.995-12.5467C102.195-14.3467 99.395-14.3467 97.595-12.5467ZM136.095-41.6467C134.295-39.8467 134.295-37.0467 136.095-35.2467C137.895-33.4467 140.695-33.4467 142.495-35.2467C144.295-37.0467 144.295-39.8467 142.495-41.6467C140.695-43.3467 137.895-43.3467 136.095-41.6467Z"/>
  </g>
  <g id="Bold-L" transform="matrix(1 0 0 1 2265.27 1556)">
   <path d="M18.5406 16.7139C13.5406 13.8139 8.44057 8.91389 5.94057 6.11389C-9.45943-11.5861-5.35943-32.1861 11.4406-48.1861C29.7406-65.5861 43.5406-90.9861 60.4406-106.186C76.7406-120.786 96.2406-122.886 116.241-109.886C118.841-108.186 122.141-104.786 125.041-101.086C131.241-93.0861 132.941-81.8861 131.641-71.6861C130.741-64.5861 127.841-54.9861 118.941-49.5861C101.641-38.8861 84.1406-18.2861 68.7406-0.0861079C67.1406 1.81389 65.6406 3.61389 64.0406 5.41389C57.0406 13.6139 45.1406 18.8139 32.3406 19.3139C27.1406 19.5139 22.7406 19.1139 18.5406 16.7139ZM136.441-92.4861C136.841-92.0861 137.141-91.7861 137.441-91.4861C153.841-75.0861 165.641-39.2861 143.941-29.1861C123.841-19.7861 101.441 4.41389 88.9406 25.8139C77.4406 45.4139 44.0406 40.9139 26.6406 26.3139C28.5406 26.4139 30.5406 26.5139 32.5406 26.4139C47.3406 25.8139 61.1406 19.7139 69.3406 10.0139C70.8406 8.21389 72.4406 6.41389 74.0406 4.51389C89.1406-13.2861 106.241-33.4861 122.641-43.3861C124.741-44.6861 126.641-46.1861 128.441-47.8861C134.041-53.4861 137.641-61.3861 138.741-70.6861C139.641-77.4861 138.041-85.5861 136.441-92.4861ZM34.1406-32.4861C31.3406-29.6861 31.3406-25.0861 34.1406-22.1861C36.9406-19.2861 41.5406-19.3861 44.4406-22.1861C47.2406-24.9861 47.2406-29.5861 44.4406-32.4861C41.5406-35.2861 36.9406-35.2861 34.1406-32.4861ZM86.2406-74.7861C82.1406-70.6861 82.1406-64.1861 86.2406-60.0861C90.3406-55.9861 96.8406-55.9861 100.941-60.0861C105.041-64.1861 105.041-70.6861 100.941-74.7861C96.9406-78.8861 90.3406-78.8861 86.2406-74.7861ZM43.7406-66.0861C41.7406-64.0861 41.7406-60.8861 43.7406-58.9861C45.7406-57.0861 48.9406-56.9861 50.8406-58.9861C52.8406-60.9861 52.8406-64.1861 50.8406-66.0861C48.8406-67.9861 45.6406-68.0861 43.7406-66.0861ZM95.6406-13.2861C93.9406-11.5861 93.9406-8.78611 95.6406-7.08611C97.3406-5.38611 100.141-5.38611 101.841-7.08611C103.541-8.78611 103.541-11.5861 101.841-13.2861C100.141-14.9861 97.3406-14.9861 95.6406-13.2861ZM133.441-41.7861C131.741-40.0861 131.741-37.2861 133.441-35.5861C135.141-33.8861 137.941-33.8861 139.641-35.5861C141.341-37.2861 141.341-40.0861 139.641-41.7861C137.941-43.4861 135.141-43.4861 133.441-41.7861Z"/>
  </g>
  <g id="Semibold-L" transform="matrix(1 0 0 1 1969.67 1556)">
   <path d="M19.375 17.3078C14.175 14.4078 8.57495 8.70776 5.87495 5.70776C-9.42505-11.6922-5.32505-32.0922 11.275-47.8922C29.275-64.9922 42.975-90.0922 59.675-105.092C75.775-119.492 94.975-121.492 114.675-108.692C117.675-106.792 121.675-102.992 124.975-98.5922C130.675-90.9922 131.875-80.5922 130.675-70.9922C129.775-63.8922 126.875-54.1922 117.875-48.7922C100.675-38.3922 83.275-17.9922 67.975 0.107763C66.375 2.00776 64.875 3.80776 63.375 5.60776C56.375 13.9078 44.475 19.1078 31.675 19.6078C26.975 19.7078 23.075 19.3078 19.375 17.3078ZM134.575-91.4922C134.875-91.1922 135.175-90.8922 135.475-90.5922C151.675-74.3922 163.275-39.0922 141.875-29.1922C122.075-19.9922 99.975 3.90776 87.575 25.1078C76.375 44.5078 42.475 39.0078 25.275 24.7078C27.075 24.8078 28.975 24.8078 30.875 24.8078C45.475 24.2078 59.975 19.2078 68.075 9.60776C69.575 7.80776 71.175 6.00776 72.675 4.10776C87.675-13.5922 104.675-33.5922 120.975-43.4922C123.075-44.6922 124.975-46.1922 126.675-47.8922C132.175-53.3922 135.675-61.0922 136.775-70.2922C137.575-76.7922 136.075-84.7922 134.575-91.4922ZM33.575-32.3922C30.775-29.5922 30.775-25.0922 33.575-22.2922C36.375-19.4922 40.875-19.4922 43.675-22.2922C46.475-25.0922 46.475-29.5922 43.675-32.3922C40.875-35.1922 36.375-35.1922 33.575-32.3922ZM84.975-74.0922C80.975-70.0922 80.975-63.5922 84.975-59.5922C88.975-55.5922 95.475-55.5922 99.475-59.5922C103.475-63.5922 103.475-70.0922 99.475-74.0922C95.475-78.0922 88.975-78.0922 84.975-74.0922ZM42.975-65.5922C41.075-63.6922 41.075-60.4922 42.975-58.5922C44.875-56.6922 48.075-56.6922 49.975-58.5922C51.875-60.4922 51.875-63.6922 49.975-65.5922C48.075-67.4922 44.975-67.4922 42.975-65.5922ZM94.275-13.4922C92.575-11.7922 92.575-8.99224 94.275-7.29224C95.975-5.59224 98.775-5.59224 100.475-7.29224C102.175-8.99224 102.175-11.7922 100.475-13.4922C98.775-15.1922 95.975-15.1922 94.275-13.4922ZM131.475-41.5922C129.775-39.8922 129.775-37.0922 131.475-35.3922C133.175-33.6922 135.975-33.6922 137.675-35.3922C139.375-37.0922 139.375-39.8922 137.675-41.5922C135.975-43.2922 133.175-43.2922 131.475-41.5922Z"/>
  </g>
  <g id="Medium-L" transform="matrix(1 0 0 1 1674.31 1556)">
   <path d="M17.5939 14.8262C12.7939 12.0262 7.99387 7.42617 5.69387 4.82617C-9.30613-12.2738-5.30613-32.2738 10.9939-47.7738C28.6939-64.6738 42.0939-89.2738 58.5939-103.974C74.3939-118.074 93.2939-120.174 112.694-107.574C115.194-105.974 117.994-102.874 120.794-99.3738C127.094-91.5738 128.894-80.2738 127.594-70.0738C126.794-63.1738 123.894-53.6738 115.094-48.3738C98.4939-38.4738 81.7939-18.6738 66.9939-1.27383C65.4939 0.526173 63.9939 2.22617 62.4939 3.92617C55.6939 11.9262 44.0939 17.0262 31.5939 17.5262C26.2939 17.7262 21.7939 17.2262 17.5939 14.8262ZM129.994-92.8738C131.194-91.6738 132.294-90.6738 133.094-89.8738C148.994-73.9738 160.394-39.2738 139.394-29.4738C119.894-20.3738 98.1939 3.12617 85.9939 23.9262C74.4939 43.6262 38.9939 37.2262 22.7939 21.8262C25.3939 22.1262 28.9939 23.1262 31.6939 23.0262C45.6939 22.4262 58.6939 16.6262 66.4939 7.52617C67.9939 5.82617 69.3939 4.02617 70.9939 2.22617C85.4939-14.8738 101.994-34.2738 117.694-43.8738C119.694-45.0738 121.494-46.4738 123.094-48.0738C128.394-53.3738 131.694-60.7738 132.794-69.5738C133.894-76.7738 132.094-85.5738 129.994-92.8738ZM32.8939-32.6738C30.1939-29.9738 30.1939-25.4738 32.8939-22.7738C35.5939-20.0738 40.0939-20.0738 42.7939-22.7738C45.4939-25.4738 45.4939-29.9738 42.7939-32.6738C40.0939-35.3738 35.6939-35.3738 32.8939-32.6738ZM83.4939-73.6738C79.5939-69.7738 79.5939-63.3738 83.4939-59.3738C87.3939-55.4738 93.7939-55.4738 97.7939-59.3738C101.694-63.2738 101.694-69.6738 97.7939-73.6738C93.8939-77.6738 87.4939-77.6738 83.4939-73.6738ZM42.1939-65.2738C40.2939-63.3738 40.2939-60.2738 42.1939-58.3738C44.0939-56.4738 47.1939-56.4738 49.0939-58.3738C50.9939-60.2738 50.9939-63.3738 49.0939-65.2738C47.1939-67.1738 44.0939-67.1738 42.1939-65.2738ZM92.5939-14.0738C90.8939-12.3738 90.8939-9.67383 92.5939-7.97383C94.2939-6.27383 96.9939-6.27383 98.6939-7.97383C100.394-9.67383 100.394-12.3738 98.6939-14.0738C96.9939-15.7738 94.2939-15.6738 92.5939-14.0738ZM129.194-41.6738C127.494-39.9738 127.494-37.2738 129.194-35.5738C130.894-33.8738 133.594-33.8738 135.294-35.5738C136.994-37.2738 136.994-39.9738 135.294-41.6738C133.594-43.3738 130.894-43.3738 129.194-41.6738Z"/>
  </g>
  <g id="Regular-L" transform="matrix(1 0 0 1 1378.93 1556)">
   <path d="M17.694 14.179C12.894 11.379 7.99404 6.57904 5.59404 3.77904C-9.20596-13.021-5.30596-32.621 10.694-47.821C28.094-64.321 41.194-88.521 57.294-102.921C72.794-116.821 91.294-118.721 110.294-106.421C112.894-104.721 116.094-101.521 118.994-97.821C124.894-90.221 126.494-79.421 125.294-69.621C124.494-62.721 121.594-53.421 112.894-48.121C96.794-38.321 80.394-19.021 65.894-1.92096C64.394-0.120957 62.994 1.57904 61.494 3.17904C54.694 11.079 43.294 16.179 30.994 16.579C25.994 16.879 21.694 16.379 17.694 14.179ZM127.894-91.421C129.294-90.121 130.494-88.921 131.394-88.021C146.994-72.421 157.194-39.321 136.694-29.821C117.594-20.921 96.294 2.07904 84.394 22.479C72.994 42.079 38.694 36.479 22.994 21.079C25.694 21.379 28.394 21.479 31.194 21.379C44.794 20.879 57.494 15.179 65.094 6.27904C66.494 4.57904 67.994 2.87904 69.494 1.07904C83.694-15.721 99.894-34.721 115.394-44.121C117.294-45.321 119.094-46.621 120.594-48.221C125.694-53.321 128.994-60.521 129.994-69.121C130.894-76.421 130.094-84.221 127.894-91.421ZM32.294-32.821C29.594-30.121 29.594-25.721 32.294-23.121C34.994-20.521 39.394-20.421 41.994-23.121C44.694-25.821 44.694-30.221 41.994-32.821C39.294-35.421 34.994-35.521 32.294-32.821ZM81.894-73.121C77.994-69.221 77.994-63.021 81.894-59.121C85.794-55.221 91.994-55.221 95.894-59.121C99.794-63.021 99.794-69.221 95.894-73.121C91.994-77.021 85.694-77.021 81.894-73.121ZM41.394-64.821C39.494-62.921 39.494-59.921 41.394-58.021C43.294-56.121 46.294-56.121 48.194-58.021C50.094-59.921 50.094-62.921 48.194-64.821C46.294-66.721 43.294-66.721 41.394-64.821ZM90.794-14.621C89.194-13.021 89.194-10.321 90.794-8.72096C92.394-7.12096 94.994-7.12096 96.694-8.72096C98.294-10.321 98.294-13.021 96.694-14.621C94.994-16.321 92.394-16.321 90.794-14.621ZM126.694-41.721C125.094-40.121 125.094-37.421 126.694-35.821C128.294-34.221 130.994-34.221 132.594-35.821C134.194-37.421 134.194-40.121 132.594-41.721C130.994-43.321 128.294-43.321 126.694-41.721Z"/>
  </g>
  <g id="Light-L" transform="matrix(1 0 0 1 1083.51 1556)">
   <path d="M17.7927 13.1975C12.8927 10.4975 7.79268 5.79747 5.29268 2.89747C-9.10732-13.5025-5.20732-32.8025 10.4927-47.7025C27.5927-63.9025 40.4927-87.7025 56.2927-101.903C71.4927-115.503 89.6927-117.503 108.393-105.403C111.093-103.603 112.893-102.203 115.893-98.2025C121.593-90.8025 124.593-78.5025 123.493-69.2025C122.693-62.4025 119.893-53.1025 111.093-47.8025C95.1927-38.2025 79.0927-19.2025 64.8927-2.50253C63.3927-0.802532 61.9927 0.897468 60.5927 2.59747C53.8927 10.4975 42.5927 15.3975 30.3927 15.8975C25.6927 16.0975 21.5927 15.2975 17.7927 13.1975ZM129.093-87.2025C144.393-71.9025 154.493-39.4025 134.293-30.0025C115.593-21.3025 94.5927 1.39747 82.8927 21.3975C71.5927 40.6975 37.5927 34.9975 22.2927 19.5975C22.2927 19.5975 27.6927 19.9975 30.5927 19.7975C43.8927 19.3975 56.1927 13.8975 63.6927 5.19747C65.0927 3.59747 66.4927 1.89747 67.9927 0.0974679C81.9927-16.4025 97.8927-35.2025 113.193-44.4025C115.093-45.5025 116.793-46.9025 118.293-48.4025C123.293-53.4025 126.493-60.4025 127.493-68.7025C128.393-76.0025 126.593-84.8025 124.293-92.0025C125.793-90.5025 128.093-88.3025 129.093-87.2025ZM31.5927-33.1025C28.9927-30.5025 28.9927-26.2025 31.5927-23.5025C34.1927-20.9025 38.4927-20.9025 41.1927-23.5025C43.7927-26.1025 43.7927-30.4025 41.1927-33.1025C38.5927-35.8025 34.2927-35.7025 31.5927-33.1025ZM80.3927-72.6025C76.5927-68.8025 76.5927-62.6025 80.3927-58.9025C84.1927-55.2025 90.3927-55.1025 94.0927-58.9025C97.8927-62.7025 97.8927-68.9025 94.0927-72.6025C90.2927-76.3025 84.1927-76.4025 80.3927-72.6025ZM40.5927-64.5025C38.7927-62.7025 38.7927-59.7025 40.5927-57.8025C42.3927-56.0025 45.3927-56.0025 47.2927-57.8025C49.0927-59.6025 49.0927-62.6025 47.2927-64.5025C45.3927-66.4025 42.3927-66.4025 40.5927-64.5025ZM89.0927-15.2025C87.4927-13.6025 87.4927-11.0025 89.0927-9.40253C90.6927-7.80253 93.2927-7.80253 94.8927-9.40253C96.4927-11.0025 96.4927-13.6025 94.8927-15.2025C93.2927-16.8025 90.6927-16.8025 89.0927-15.2025ZM124.393-41.8025C122.793-40.2025 122.793-37.6025 124.393-36.0025C125.993-34.4025 128.593-34.4025 130.193-36.0025C131.793-37.6025 131.793-40.2025 130.193-41.8025C128.593-43.4025 125.993-43.4025 124.393-41.8025Z"/>
  </g>
  <g id="Thin-L" transform="matrix(1 0 0 1 787.839 1556)">
   <path d="M18.0661 13.4913C11.1661 9.59126 7.86611 5.49126 5.26611 2.59126C-9.03389-13.7087-5.23389-32.6087 10.2661-47.4087C27.0661-63.4087 39.7661-86.8087 55.3661-100.709C70.3661-114.109 88.2661-116.009 106.666-104.109C109.466-102.309 112.366-99.6087 115.366-95.5087C120.766-88.2087 122.866-77.4087 121.766-68.4087C120.966-61.6087 118.166-52.4087 109.466-47.1087C94.0661-37.7087 78.1661-19.0087 64.1661-2.50874C62.7661-0.80874 61.2661 0.89126 59.9661 2.49126C53.2661 10.2913 42.0661 15.2913 29.9661 15.6913C25.4661 15.8913 21.6661 15.4913 18.0661 13.4913ZM121.966-91.4087C123.666-89.8087 126.166-87.4087 127.266-86.3087C142.366-71.2087 152.266-39.2087 132.366-29.9087C113.866-21.3087 93.1661 0.99126 81.6661 20.7913C70.5661 39.7913 36.1661 33.2913 20.9661 18.0913C20.9661 18.0913 27.0661 19.0913 30.0661 18.8913C43.0661 18.3913 55.1661 12.9913 62.4661 4.49126C63.8661 2.89126 65.2661 1.19126 66.6661-0.50874C80.4661-16.8087 96.1661-35.3087 111.266-44.4087C113.066-45.5087 114.766-46.8087 116.166-48.3087C120.966-53.1087 124.166-60.0087 125.066-68.1087C126.066-75.4087 124.266-84.2087 121.966-91.4087ZM31.1661-32.9087C28.5661-30.3087 28.5661-26.1087 31.1661-23.5087C33.7661-20.9087 37.9661-20.9087 40.5661-23.5087C43.1661-26.1087 43.1661-30.3087 40.5661-32.9087C37.9661-35.5087 33.7661-35.5087 31.1661-32.9087ZM79.1661-71.9087C75.4661-68.2087 75.4661-62.1087 79.1661-58.4087C82.8661-54.7087 88.9661-54.7087 92.6661-58.4087C96.3661-62.1087 96.3661-68.2087 92.6661-71.9087C88.9661-75.6087 82.8661-75.6087 79.1661-71.9087ZM39.9661-63.9087C38.1661-62.1087 38.1661-59.1087 39.9661-57.3087C41.7661-55.5087 44.7661-55.5087 46.5661-57.3087C48.3661-59.1087 48.3661-62.1087 46.5661-63.9087C44.7661-65.7087 41.7661-65.7087 39.9661-63.9087ZM87.7661-15.3087C86.1661-13.7087 86.1661-11.1087 87.7661-9.60874C89.3661-8.00874 91.9661-8.00874 93.5661-9.50874C95.1661-11.0087 95.1661-13.7087 93.5661-15.2087C91.9661-16.7087 89.3661-16.9087 87.7661-15.3087ZM122.566-41.5087C120.966-39.9087 120.966-37.3087 122.566-35.8087C124.166-34.2087 126.766-34.2087 128.266-35.8087C129.866-37.4087 129.866-40.0087 128.266-41.5087C126.766-43.1087 124.166-43.1087 122.566-41.5087Z"/>
  </g>
  <g id="Ultralight-L" transform="matrix(1 0 0 1 492.774 1556)">
   <path d="M17.5691 11.596C12.2691 8.39601 7.26909 3.39601 4.66909 0.496007C-9.23091-15.404-4.63091-32.904 10.4691-47.304C26.8691-62.904 39.2691-85.704 54.4691-99.304C69.0691-112.404 84.7691-116.004 102.669-104.404C105.569-102.504 109.269-100.304 113.569-95.504C119.369-89.104 120.569-76.404 119.569-67.804C118.769-61.104 115.969-52.004 107.369-46.804C92.2691-37.704 76.8691-19.504 63.2691-3.40399C61.8691-1.80399 60.4691-0.103993 59.0691 1.39601C52.4691 9.09601 41.4691 13.996 29.5691 14.396C25.3691 14.596 21.8691 14.196 17.5691 11.596ZM119.669-89.904C121.569-88.104 123.269-86.504 124.369-85.304C139.069-70.604 148.769-39.404 129.369-30.304C111.369-21.904 91.2691-0.203993 79.9691 19.096C69.1691 37.596 35.3691 31.396 19.9691 15.596C19.9691 15.596 26.6691 17.096 29.7691 16.996C42.2691 16.496 54.0691 11.296 61.0691 3.09601C62.3691 1.49601 63.7691-0.103993 65.1691-1.80399C78.6691-17.704 93.9691-35.704 108.769-44.704C110.469-45.804 112.069-47.004 113.569-48.404C118.269-53.104 121.269-59.704 122.169-67.504C122.969-74.804 122.069-82.704 119.669-89.904ZM30.7691-33.204C28.2691-30.704 28.2691-26.504 30.7691-24.004C33.2691-21.504 37.4691-21.504 39.9691-24.004C42.4691-26.504 42.4691-30.704 39.9691-33.204C37.4691-35.804 33.3691-35.804 30.7691-33.204ZM77.5691-71.204C73.9691-67.604 73.9691-61.604 77.5691-58.004C81.1691-54.404 87.1691-54.404 90.7691-58.004C94.3691-61.604 94.3691-67.604 90.7691-71.204C87.1691-74.904 81.2691-74.904 77.5691-71.204ZM39.3691-63.404C37.5691-61.604 37.5691-58.804 39.3691-57.004C41.1691-55.204 43.9691-55.204 45.7691-57.004C47.5691-58.804 47.5691-61.604 45.7691-63.404C43.9691-65.204 41.1691-65.204 39.3691-63.404ZM85.9691-16.004C84.4691-14.504 84.4691-11.904 85.9691-10.404C87.4691-8.90399 90.0691-8.90399 91.5691-10.404C93.0691-11.904 93.0691-14.504 91.5691-16.004C90.0691-17.504 87.5691-17.604 85.9691-16.004ZM119.869-41.604C118.369-40.104 118.369-37.504 119.869-36.004C121.369-34.504 123.969-34.504 125.469-36.004C126.969-37.504 126.969-40.104 125.469-41.604C123.969-43.104 121.469-43.104 119.869-41.604Z"/>
  </g>
  <g id="Black-M" transform="matrix(1 0 0 1 2874.31 1126)">
   <path d="M14.417 7.68089C10.317 5.38089 6.11699 1.28089 4.11699-1.11911C-8.38301-15.3191-4.98301-31.8191 8.51699-44.7191C23.217-58.7191 34.317-79.1191 47.917-91.2191C61.017-102.919 76.617-104.619 92.717-94.2191C94.917-92.8191 97.817-89.9191 100.217-86.7191C105.017-80.4191 106.117-71.7191 105.217-63.8191C104.517-58.2191 102.217-50.5191 95.117-46.2191C80.917-37.6191 66.717-20.8191 54.117-6.01911C52.817-4.51911 51.517-3.01911 50.317-1.51911C44.717 5.08089 35.217 9.18089 24.917 9.58089C20.817 9.78089 17.517 9.48089 14.417 7.68089ZM111.217-77.7191C111.617-77.3191 112.017-76.8191 112.417-76.3191C124.417-62.4191 131.217-37.0191 114.817-29.4191C98.717-21.9191 80.717-2.41911 70.617 14.7809C61.717 29.8809 35.817 26.2809 21.417 15.6809C22.317 15.6809 23.317 15.6809 24.217 15.6809C36.417 15.1809 48.517 10.9809 55.317 2.98089C56.617 1.48089 57.917-0.0191057 59.217-1.51911C71.417-15.9191 85.317-32.3191 98.517-40.3191C100.317-41.4191 101.917-42.6191 103.317-44.1191C107.917-48.7191 110.917-55.2191 111.817-62.9191C112.417-67.7191 112.217-72.8191 111.217-77.7191ZM26.617-32.0191C24.317-29.7191 24.317-26.0191 26.617-23.8191C28.917-21.6191 32.617-21.5191 34.817-23.8191C37.117-26.1191 37.117-29.8191 34.817-32.0191C32.517-34.3191 28.917-34.3191 26.617-32.0191ZM68.517-66.0191C65.217-62.7191 65.217-57.4191 68.517-54.2191C71.817-50.9191 77.117-50.9191 80.317-54.2191C83.617-57.5191 83.617-62.8191 80.317-66.0191C77.017-69.3191 71.717-69.3191 68.517-66.0191ZM34.317-59.1191C32.717-57.5191 32.717-55.0191 34.317-53.4191C35.917-51.8191 38.417-51.8191 40.017-53.4191C41.617-55.0191 41.617-57.5191 40.017-59.1191C38.417-60.7191 35.917-60.6191 34.317-59.1191ZM76.017-16.6191C74.617-15.2191 74.617-13.0191 76.017-11.6191C77.417-10.2191 79.617-10.2191 81.017-11.6191C82.417-13.0191 82.417-15.2191 81.017-16.6191C79.617-18.0191 77.417-18.0191 76.017-16.6191ZM106.317-39.5191C104.917-38.1191 104.917-35.9191 106.317-34.5191C107.717-33.1191 109.917-33.1191 111.317-34.5191C112.717-35.9191 112.717-38.1191 111.317-39.5191C109.917-40.9191 107.717-40.9191 106.317-39.5191Z"/>
  </g>
  <g id="Heavy-M" transform="matrix(1 0 0 1 2578.73 1126)">
   <path d="M15.0093 7.81568C10.8093 5.51568 6.20929 0.815677 4.00929-1.68432C-8.29071-15.6843-4.99071-31.8843 8.30929-44.5843C22.7093-58.2843 33.6093-78.3843 47.0093-90.3843C59.9093-101.884 75.3093-103.584 91.1093-93.2843C93.6093-91.6843 97.0093-88.4843 99.7093-84.8843C104.109-78.8843 104.909-70.8843 104.009-63.4843C103.309-57.7843 101.009-50.1843 93.9093-45.8843C79.9093-37.3843 65.8093-20.7843 53.4093-6.18432C52.1093-4.68432 50.9093-3.18432 49.7093-1.78432C44.0093 4.91568 34.5093 9.01568 24.3093 9.41568C20.7093 9.61568 17.9093 9.31568 15.0093 7.81568ZM108.709-77.8843C109.009-77.5843 109.209-77.2843 109.509-76.9843C121.509-63.3843 129.309-37.1843 113.009-29.5843C97.1093-22.1843 79.4093-3.08432 69.5093 13.9157C60.8093 28.8157 35.3093 25.3157 21.1093 14.8157C21.9093 14.8157 23.6093 15.6157 24.5093 15.6157C36.4093 15.1157 47.6093 10.2157 54.3093 2.31568C55.5093 0.915677 56.8093-0.584323 58.1093-2.08432C70.2093-16.3843 84.0093-32.5843 97.1093-40.5843C98.8093-41.5843 100.409-42.8843 101.809-44.2843C106.309-48.7843 109.209-55.1843 110.209-62.7843C110.609-67.3843 109.609-73.0843 108.709-77.8843ZM26.2093-32.1843C24.0093-29.9843 24.0093-26.2843 26.2093-24.0843C28.4093-21.8843 32.1093-21.8843 34.3093-24.0843C36.5093-26.2843 36.5093-29.9843 34.3093-32.1843C32.0093-34.3843 28.4093-34.3843 26.2093-32.1843ZM67.4093-65.5843C64.2093-62.3843 64.2093-57.1843 67.4093-53.9843C70.6093-50.7843 75.8093-50.7843 79.0093-53.9843C82.2093-57.1843 82.2093-62.3843 79.0093-65.5843C75.8093-68.8843 70.6093-68.8843 67.4093-65.5843ZM33.7093-58.7843C32.1093-57.1843 32.1093-54.6843 33.7093-53.1843C35.3093-51.6843 37.8093-51.5843 39.3093-53.1843C40.9093-54.7843 40.9093-57.2843 39.3093-58.7843C37.7093-60.2843 35.3093-60.2843 33.7093-58.7843ZM74.8093-16.9843C73.4093-15.5843 73.4093-13.3843 74.8093-12.0843C76.2093-10.7843 78.4093-10.6843 79.7093-12.0843C81.0093-13.4843 81.1093-15.6843 79.7093-16.9843C78.3093-18.2843 76.1093-18.3843 74.8093-16.9843ZM104.609-39.4843C103.209-38.0843 103.209-35.8843 104.609-34.5843C106.009-33.1843 108.209-33.1843 109.509-34.5843C110.909-35.9843 110.909-38.1843 109.509-39.4843C108.209-40.8843 106.009-40.8843 104.609-39.4843Z"/>
  </g>
  <g id="Bold-M" transform="matrix(1 0 0 1 2283.2 1126)">
   <path d="M13.5282 5.72635C9.62821 3.52635 5.72821-0.273649 3.82821-2.47365C-8.17179-16.1736-4.97179-32.1736 8.02821-44.5736C22.2282-58.0736 32.9282-77.7736 46.0282-89.4736C58.7282-100.774 73.8282-102.374 89.3282-92.3736C91.4282-91.0736 93.9282-88.4736 96.2282-85.4736C101.028-79.2736 102.328-70.5736 101.328-62.6736C100.628-57.1736 98.4282-49.7736 91.4282-45.4736C78.0282-37.3736 64.4282-21.3736 52.4282-7.27365C51.2282-5.87365 50.0282-4.37365 48.8282-2.97365C43.4282 3.42635 34.2282 7.42635 24.2282 7.82635C20.2282 7.92635 16.7282 7.52635 13.5282 5.72635ZM104.928-78.8736C105.228-78.5736 105.528-78.3736 105.728-78.0736C118.428-65.3736 127.528-37.6736 110.828-29.7736C95.3282-22.4736 77.9282-3.77365 68.1282 12.9264C59.2282 28.1264 33.3282 24.6264 19.8282 13.3264C21.3282 13.4264 22.8282 13.4264 24.4282 13.4264C35.9282 12.8264 46.6282 8.02635 53.0282 0.526351C54.2282-0.873649 55.4282-2.27365 56.6282-3.77365C68.3282-17.5736 81.6282-33.1736 94.3282-40.8736C95.9282-41.8736 97.4282-43.0736 98.8282-44.3736C103.128-48.6736 105.928-54.7736 106.828-62.0736C107.428-67.2736 106.228-73.5736 104.928-78.8736ZM25.6282-32.3736C23.4282-30.1736 23.4282-26.5736 25.6282-24.4736C27.8282-22.3736 31.4282-22.2736 33.5282-24.4736C35.7282-26.6736 35.7282-30.2736 33.5282-32.3736C31.3282-34.4736 27.8282-34.5736 25.6282-32.3736ZM66.0282-65.1736C62.9282-62.0736 62.9282-56.8736 66.0282-53.7736C69.1282-50.6736 74.3282-50.6736 77.4282-53.7736C80.5282-56.8736 80.5282-62.0736 77.4282-65.1736C74.3282-68.3736 69.2282-68.3736 66.0282-65.1736ZM33.0282-58.4736C31.5282-56.9736 31.5282-54.4736 33.0282-52.9736C34.5282-51.4736 37.0282-51.4736 38.5282-52.9736C40.0282-54.4736 40.0282-56.9736 38.5282-58.4736C37.0282-59.9736 34.5282-59.9736 33.0282-58.4736ZM73.3282-17.5736C72.0282-16.2736 72.0282-14.0736 73.3282-12.7736C74.6282-11.4736 76.8282-11.4736 78.1282-12.7736C79.4282-14.0736 79.4282-16.2736 78.1282-17.5736C76.8282-18.8736 74.6282-18.8736 73.3282-17.5736ZM102.628-39.5736C101.328-38.2736 101.328-36.0736 102.628-34.7736C103.928-33.4736 106.128-33.4736 107.428-34.7736C108.728-36.0736 108.728-38.2736 107.428-39.5736C106.128-40.8736 103.928-40.9736 102.628-39.5736Z"/>
  </g>
  <g id="Semibold-M" transform="matrix(1 0 0 1 1987.33 1126)">
   <path d="M14.2128 6.05219C10.1128 3.85219 5.81275-0.547813 3.71275-2.94781C-8.08725-16.3478-4.98725-32.1478 7.91275-44.3478C21.9128-57.6478 32.4128-77.0478 45.4128-88.6478C57.9128-99.8478 72.8128-101.448 88.1128-91.5478C90.4128-90.0478 93.6128-87.1478 96.1128-83.7478C100.513-77.8478 101.413-69.7478 100.513-62.3478C99.8128-56.8478 97.6128-49.3478 90.6128-45.1478C77.2128-37.0478 63.8128-21.2478 51.9128-7.24781C50.7128-5.84781 49.5128-4.34781 48.3128-3.04781C42.8128 3.35219 33.7128 7.35219 23.7128 7.75219C20.1128 7.95219 17.1128 7.65219 14.2128 6.05219ZM103.513-78.1478C103.813-77.8478 104.013-77.6478 104.213-77.4478C116.813-64.8478 125.713-37.5478 109.213-29.8478C93.9128-22.7478 76.7128-4.14781 67.2128 12.2522C58.4128 27.2522 32.2128 23.0522 18.9128 11.8522C20.3128 11.9522 21.8128 11.9522 23.2128 11.8522C34.5128 11.4522 45.7128 7.45219 52.1128 0.0521874C53.3128-1.34781 54.5128-2.74781 55.7128-4.14781C67.2128-17.7478 80.4128-33.3478 93.0128-40.9478C94.6128-41.9478 96.1128-43.0478 97.4128-44.3478C101.713-48.6478 104.413-54.5478 105.313-61.7478C105.913-66.8478 104.713-73.0478 103.513-78.1478ZM25.2128-32.3478C23.0128-30.1478 23.0128-26.6478 25.2128-24.5478C27.4128-22.4478 30.9128-22.3478 33.0128-24.5478C35.2128-26.7478 35.2128-30.2478 33.0128-32.3478C30.8128-34.4478 27.4128-34.5478 25.2128-32.3478ZM65.1128-64.7478C62.0128-61.6478 62.0128-56.6478 65.1128-53.5478C68.2128-50.4478 73.2128-50.4478 76.3128-53.5478C79.4128-56.6478 79.4128-61.6478 76.3128-64.7478C73.3128-67.8478 68.2128-67.8478 65.1128-64.7478ZM32.6128-58.1478C31.1128-56.6478 31.1128-54.2478 32.6128-52.6478C34.1128-51.1478 36.5128-51.1478 38.1128-52.6478C39.6128-54.1478 39.6128-56.5478 38.1128-58.1478C36.5128-59.6478 34.1128-59.6478 32.6128-58.1478ZM72.3128-17.7478C71.0128-16.4478 71.0128-14.2478 72.3128-12.9478C73.6128-11.6478 75.8128-11.6478 77.1128-12.9478C78.4128-14.2478 78.4128-16.4478 77.1128-17.7478C75.7128-19.0478 73.6128-19.0478 72.3128-17.7478ZM101.213-39.5478C99.9128-38.2478 99.9128-36.0478 101.213-34.7478C102.513-33.4478 104.713-33.4478 106.013-34.7478C107.313-36.0478 107.313-38.2478 106.013-39.5478C104.613-40.8478 102.513-40.8478 101.213-39.5478Z"/>
  </g>
  <g id="Medium-M" transform="matrix(1 0 0 1 1691.62 1126)">
   <path d="M12.8471 4.246C9.14714 2.046 5.44714-1.454 3.64714-3.554C-8.05286-16.854-4.95286-32.354 7.74714-44.354C21.4471-57.454 31.8471-76.554 44.6471-87.954C56.9471-98.954 71.5471-100.454 86.5471-90.754C88.4471-89.554 90.6471-87.154 92.8471-84.454C97.7471-78.354 99.1471-69.654 98.1471-61.754C97.4471-56.354 95.2471-49.054 88.4471-44.954C75.5471-37.054 62.6471-21.754 51.1471-8.254C49.9471-6.854 48.8471-5.554 47.6471-4.154C42.3471 2.046 33.4471 5.946 23.7471 6.346C19.6471 6.546 16.0471 6.146 12.8471 4.246ZM100.047-79.254C100.947-78.354 101.847-77.554 102.447-76.854C114.747-64.554 123.647-37.654 107.347-30.054C92.2471-23.054 75.4471-4.854 65.9471 11.346C57.0471 26.646 29.5471 21.646 16.9471 9.646C18.9471 9.846 21.7471 10.646 23.8471 10.646C34.6471 10.246 44.7471 5.746 50.8471-1.354C51.9471-2.654 53.1471-4.054 54.3471-5.454C65.5471-18.754 78.3471-33.754 90.5471-41.154C92.0471-42.054 93.4471-43.154 94.7471-44.454C98.8471-48.554 101.447-54.254 102.247-61.054C103.047-66.754 101.647-73.554 100.047-79.254ZM24.7471-32.554C22.6471-30.454 22.6471-26.954 24.7471-24.854C26.8471-22.754 30.3471-22.754 32.4471-24.854C34.5471-26.954 34.5471-30.454 32.4471-32.554C30.3471-34.654 26.8471-34.654 24.7471-32.554ZM63.9471-64.354C60.8471-61.254 60.8471-56.354 63.9471-53.254C67.0471-50.154 71.9471-50.154 75.0471-53.254C78.1471-56.354 78.1471-61.254 75.0471-64.354C71.9471-67.454 67.0471-67.454 63.9471-64.354ZM31.9471-57.854C30.4471-56.354 30.4471-53.954 31.9471-52.454C33.4471-50.954 35.8471-50.954 37.3471-52.454C38.8471-53.954 38.8471-56.354 37.3471-57.854C35.8471-59.354 33.4471-59.354 31.9471-57.854ZM71.0471-18.154C69.7471-16.854 69.7471-14.754 71.0471-13.454C72.3471-12.154 74.4471-12.154 75.7471-13.454C77.0471-14.754 77.0471-16.854 75.7471-18.154C74.4471-19.454 72.3471-19.454 71.0471-18.154ZM99.4471-39.554C98.1471-38.254 98.1471-36.154 99.4471-34.854C100.747-33.554 102.847-33.554 104.147-34.854C105.447-36.154 105.447-38.254 104.147-39.554C102.847-40.854 100.747-40.854 99.4471-39.554Z"/>
  </g>
  <g id="Regular-M" transform="matrix(1 0 0 1 1395.98 1126)">
   <path d="M12.9661 3.58082C9.26607 1.48082 5.36607-2.31918 3.46607-4.41918C-7.93393-17.4192-4.93393-32.6192 7.46607-44.4192C20.9661-57.2192 31.1661-75.9192 43.6661-87.1192C55.6661-97.9192 70.0661-99.4192 84.7661-89.8192C86.7661-88.5192 89.2661-86.0192 91.4661-83.1192C96.0661-77.2192 97.2661-68.8192 96.3661-61.3192C95.7661-56.0192 93.5661-48.7192 86.7661-44.6192C74.2661-37.0192 61.4661-22.0192 50.2661-8.81918C49.0661-7.41918 47.9661-6.11918 46.8661-4.81918C41.6661 1.28082 32.7661 5.18082 23.2661 5.58082C19.3661 5.78082 16.0661 5.38082 12.9661 3.58082ZM98.3661-78.2192C99.4661-77.2192 100.366-76.3192 101.066-75.5192C113.166-63.4192 121.066-37.8192 105.166-30.3192C90.4661-23.5192 73.8661-5.61918 64.6661 10.1808C55.7661 25.2808 29.2661 20.8808 17.0661 8.98082C19.1661 9.18082 21.2661 9.28082 23.3661 9.18082C33.9661 8.78082 43.7661 4.48082 49.6661-2.51918C50.7661-3.81918 51.8661-5.11918 53.0661-6.51918C64.0661-19.5192 76.6661-34.3192 88.6661-41.6192C90.1661-42.5192 91.4661-43.6192 92.7661-44.8192C96.7661-48.8192 99.2661-54.3192 100.066-61.0192C100.666-66.5192 100.066-72.6192 98.3661-78.2192ZM24.2661-32.8192C22.1661-30.7192 22.1661-27.3192 24.2661-25.2192C26.3661-23.1192 29.7661-23.1192 31.8661-25.2192C33.9661-27.3192 33.9661-30.7192 31.8661-32.8192C29.6661-34.9192 26.2661-34.9192 24.2661-32.8192ZM62.6661-64.0192C59.6661-61.0192 59.6661-56.2192 62.6661-53.2192C65.6661-50.2192 70.4661-50.2192 73.4661-53.2192C76.4661-56.2192 76.4661-61.0192 73.4661-64.0192C70.4661-67.0192 65.6661-67.0192 62.6661-64.0192ZM31.2661-57.6192C29.7661-56.1192 29.7661-53.8192 31.2661-52.3192C32.7661-50.8192 35.0661-50.8192 36.5661-52.3192C38.0661-53.8192 38.0661-56.1192 36.5661-57.6192C35.0661-59.1192 32.7661-59.1192 31.2661-57.6192ZM69.5661-18.7192C68.2661-17.4192 68.2661-15.4192 69.5661-14.1192C70.8661-12.8192 72.8661-12.8192 74.1661-14.1192C75.4661-15.4192 75.4661-17.4192 74.1661-18.7192C72.8661-19.9192 70.8661-19.9192 69.5661-18.7192ZM97.3661-39.7192C96.0661-38.4192 96.0661-36.4192 97.3661-35.1192C98.6661-33.8192 100.666-33.8192 101.966-35.1192C103.266-36.4192 103.266-38.4192 101.966-39.7192C100.766-40.9192 98.6661-40.9192 97.3661-39.7192Z"/>
  </g>
  <g id="Light-M" transform="matrix(1 0 0 1 1100.25 1126)">
   <path d="M13.0193 2.93243C9.21927 0.832429 5.31927-2.86757 3.31927-5.06757C-7.88073-17.8676-4.88073-32.7676 7.31927-44.3676C20.5193-56.9676 30.5193-75.3676 42.8193-86.3676C54.6193-96.9676 68.7193-98.4676 83.2193-89.0676C85.3193-87.6676 86.7193-86.5676 89.0193-83.5676C93.4193-77.7676 95.7193-68.3676 94.9193-61.0676C94.3193-55.7676 92.1193-48.5676 85.3193-44.4676C73.0193-36.9676 60.5193-22.1676 49.5193-9.16757C48.4193-7.86757 47.3193-6.56757 46.2193-5.26757C41.0193 0.832429 32.2193 4.73243 22.8193 5.03243C19.1193 5.13243 15.9193 4.53243 13.0193 2.93243ZM99.3193-74.9676C111.219-63.0676 119.019-37.8676 103.319-30.5676C88.7193-23.7676 72.5193-6.26757 63.4193 9.33243C54.7193 24.2324 28.3193 19.8324 16.4193 7.93243C16.4193 7.93243 20.6193 8.23243 22.9193 8.13243C33.2193 7.73243 42.8193 3.43243 48.5193-3.26757C49.6193-4.56757 50.7193-5.86757 51.8193-7.16757C62.7193-19.9676 75.0193-34.4676 86.8193-41.6676C88.2193-42.5676 89.6193-43.5676 90.7193-44.7676C94.5193-48.5676 97.0193-54.0676 97.8193-60.4676C98.5193-66.1676 97.1193-72.9676 95.4193-78.5676C96.7193-77.4676 98.5193-75.7676 99.3193-74.9676ZM23.7193-32.9676C21.6193-30.8676 21.6193-27.5676 23.7193-25.5676C25.8193-23.5676 29.1193-23.4676 31.1193-25.5676C33.2193-27.6676 33.2193-30.9676 31.1193-32.9676C29.0193-34.9676 25.7193-34.9676 23.7193-32.9676ZM61.5193-63.6676C58.6193-60.7676 58.6193-55.9676 61.5193-52.9676C64.4193-50.0676 69.2193-50.0676 72.2193-52.9676C75.1193-55.8676 75.1193-60.6676 72.2193-63.6676C69.2193-66.5676 64.4193-66.5676 61.5193-63.6676ZM30.6193-57.3676C29.2193-55.9676 29.2193-53.6676 30.6193-52.1676C32.0193-50.7676 34.3193-50.7676 35.8193-52.1676C37.2193-53.5676 37.2193-55.8676 35.8193-57.3676C34.4193-58.7676 32.1193-58.7676 30.6193-57.3676ZM68.3193-19.0676C67.1193-17.8676 67.1193-15.7676 68.3193-14.5676C69.5193-13.3676 71.6193-13.3676 72.8193-14.5676C74.0193-15.7676 74.0193-17.8676 72.8193-19.0676C71.6193-20.2676 69.5193-20.3676 68.3193-19.0676ZM95.6193-39.6676C94.4193-38.4676 94.4193-36.3676 95.6193-35.1676C96.8193-33.9676 98.9193-33.9676 100.119-35.1676C101.319-36.3676 101.319-38.4676 100.119-39.6676C98.9193-40.8676 96.9193-40.9676 95.6193-39.6676Z"/>
  </g>
  <g id="Thin-M" transform="matrix(1 0 0 1 804.444 1126)">
   <path d="M13.0929 3.0841C7.79286 0.0841003 5.19286-3.1159 3.29286-5.4159C-7.80714-18.0159-4.90714-32.7159 7.09286-44.1159C20.0929-56.5159 29.9929-74.6159 42.0929-85.4159C53.7929-95.8159 67.6929-97.3159 81.8929-88.1159C84.0929-86.7159 86.2929-84.6159 88.6929-81.5159C92.8929-75.9159 94.4929-67.5159 93.6929-60.5159C92.9929-55.1159 90.8929-48.0159 84.0929-43.9159C71.9929-36.6159 59.6929-22.1159 48.8929-9.3159C47.7929-8.0159 46.6929-6.7159 45.5929-5.4159C40.4929 0.5841 31.7929 4.3841 22.3929 4.7841C18.8929 4.8841 15.8929 4.6841 13.0929 3.0841ZM93.5929-78.2159C94.8929-76.9159 96.7929-75.1159 97.6929-74.2159C109.393-62.5159 117.093-37.7159 101.693-30.5159C87.3929-23.8159 71.3929-6.5159 62.3929 8.7841C53.7929 23.4841 27.0929 18.4841 15.3929 6.6841C15.3929 6.6841 20.1929 7.3841 22.4929 7.3841C32.4929 6.8841 41.8929 2.7841 47.4929-3.8159C48.5929-5.1159 49.6929-6.3159 50.7929-7.7159C61.4929-20.3159 73.6929-34.7159 85.3929-41.7159C86.7929-42.5159 88.0929-43.6159 89.1929-44.7159C92.9929-48.5159 95.3929-53.8159 96.0929-60.1159C96.8929-65.8159 95.3929-72.6159 93.5929-78.2159ZM23.2929-32.9159C21.2929-30.9159 21.2929-27.6159 23.2929-25.6159C25.2929-23.6159 28.5929-23.6159 30.5929-25.6159C32.5929-27.6159 32.5929-30.9159 30.5929-32.9159C28.5929-34.9159 25.2929-34.9159 23.2929-32.9159ZM60.4929-63.1159C57.5929-60.2159 57.5929-55.5159 60.4929-52.6159C63.3929-49.7159 68.0929-49.7159 70.9929-52.6159C73.8929-55.5159 73.8929-60.2159 70.9929-63.1159C68.0929-66.0159 63.3929-66.0159 60.4929-63.1159ZM30.0929-56.9159C28.6929-55.5159 28.6929-53.2159 30.0929-51.8159C31.4929-50.4159 33.7929-50.4159 35.1929-51.8159C36.5929-53.2159 36.5929-55.5159 35.1929-56.9159C33.7929-58.3159 31.4929-58.3159 30.0929-56.9159ZM67.1929-19.2159C65.9929-18.0159 65.9929-16.0159 67.1929-14.7159C68.3929-13.5159 70.3929-13.5159 71.6929-14.7159C72.8929-15.9159 72.8929-17.9159 71.6929-19.2159C70.3929-20.4159 68.3929-20.4159 67.1929-19.2159ZM94.0929-39.5159C92.8929-38.3159 92.8929-36.3159 94.0929-35.0159C95.2929-33.8159 97.2929-33.8159 98.5929-35.0159C99.7929-36.2159 99.7929-38.2159 98.5929-39.5159C97.3929-40.8159 95.3929-40.8159 94.0929-39.5159Z"/>
  </g>
  <g id="Ultralight-M" transform="matrix(1 0 0 1 508.888 1126)">
   <path d="M12.8064 1.59284C8.70645-0.907164 4.80645-4.70716 2.80645-7.00716C-7.99355-19.3072-4.39355-33.0072 7.30645-44.1072C20.0064-56.2072 29.6064-73.9072 41.4064-84.4072C52.7064-94.5072 64.9064-97.4072 78.8064-88.4072C81.0064-86.9072 83.9064-85.2072 87.3064-81.5072C91.8064-76.5072 92.7064-66.7072 91.9064-60.0072C91.3064-54.8072 89.1064-47.8072 82.5064-43.7072C70.7064-36.6072 58.8064-22.5072 48.2064-10.1072C47.1064-8.80716 46.1064-7.50716 45.0064-6.30716C39.9064-0.307164 31.4064 3.39284 22.2064 3.79284C18.9064 3.89284 16.2064 3.59284 12.8064 1.59284ZM92.0064-77.1072C93.5064-75.7072 94.8064-74.5072 95.7064-73.5072C107.106-62.1072 114.606-37.9072 99.6064-30.9072C85.5064-24.4072 69.9064-7.50716 61.2064 7.39284C52.8064 21.7928 26.6064 16.8928 14.7064 4.69284C14.7064 4.69284 19.9064 5.89284 22.3064 5.79284C32.0064 5.39284 41.1064 1.39284 46.5064-5.00716C47.5064-6.20716 48.6064-7.50716 49.7064-8.80716C60.2064-21.1072 72.0064-35.1072 83.5064-42.0072C84.8064-42.8072 86.1064-43.8072 87.2064-44.9072C90.8064-48.5072 93.2064-53.6072 93.9064-59.7072C94.6064-65.4072 93.8064-71.5072 92.0064-77.1072ZM23.1064-33.2072C21.1064-31.2072 21.1064-28.0072 23.1064-26.1072C25.1064-24.2072 28.3064-24.1072 30.2064-26.1072C32.2064-28.1072 32.2064-31.3072 30.2064-33.2072C28.2064-35.1072 25.0064-35.1072 23.1064-33.2072ZM59.4064-62.6072C56.6064-59.8072 56.6064-55.2072 59.4064-52.4072C62.2064-49.6072 66.8064-49.6072 69.6064-52.4072C72.4064-55.2072 72.4064-59.8072 69.6064-62.6072C66.8064-65.4072 62.2064-65.5072 59.4064-62.6072ZM29.7064-56.6072C28.3064-55.2072 28.3064-53.0072 29.7064-51.6072C31.1064-50.2072 33.3064-50.2072 34.7064-51.6072C36.1064-53.0072 36.1064-55.2072 34.7064-56.6072C33.3064-58.0072 31.1064-58.0072 29.7064-56.6072ZM65.9064-19.8072C64.7064-18.6072 64.7064-16.7072 65.9064-15.5072C67.1064-14.3072 69.0064-14.3072 70.2064-15.5072C71.4064-16.7072 71.4064-18.6072 70.2064-19.8072C69.0064-21.0072 67.1064-21.0072 65.9064-19.8072ZM92.1064-39.7072C90.9064-38.5072 90.9064-36.6072 92.1064-35.4072C93.3064-34.2072 95.2064-34.2072 96.4064-35.4072C97.6064-36.6072 97.6064-38.5072 96.4064-39.7072C95.3064-40.9072 93.3064-40.9072 92.1064-39.7072Z"/>
  </g>
  <g id="Black-S" transform="matrix(1 0 0 1 2888.18 696)">
   <path d="M10.5217-2.15539C7.32172-3.95539 4.02172-7.15539 2.42172-9.05539C-7.27828-20.1554-4.77828-33.1554 5.82172-43.1554C17.3217-54.0554 26.0217-70.0554 36.6217-79.5554C46.9217-88.7554 59.1217-90.0554 71.7217-81.8554C73.4217-80.7554 75.7217-78.5554 77.6217-75.9554C81.4217-71.0554 82.3217-64.2554 81.5217-57.9554C81.0217-53.5554 79.2217-47.5554 73.6217-44.1554C62.5217-37.4554 51.3217-24.2554 41.5217-12.6554C40.5217-11.4554 39.5217-10.2554 38.5217-9.15539C34.1217-4.15539 26.7217-0.955392 18.6217-0.555392C15.6217-0.455392 12.9217-0.755392 10.5217-2.15539ZM86.3217-69.0554C86.6217-68.6554 87.0217-68.3554 87.3217-67.9554C96.7217-57.0554 102.022-37.2554 89.1217-31.2554C76.5217-25.2554 62.4217-10.0554 54.5217 3.44461C47.6217 15.3446 27.2217 12.4446 16.0217 4.14461C16.7217 4.14461 17.5217 4.14461 18.2217 4.14461C27.7217 3.74461 37.2217 0.444608 42.6217-5.85539C43.6217-6.95539 44.6217-8.15539 45.6217-9.35539C55.1217-20.6554 66.0217-33.4554 76.4217-39.7554C77.8217-40.5554 79.0217-41.5554 80.2217-42.6554C83.8217-46.2554 86.2217-51.3554 86.9217-57.3554C87.3217-61.1554 87.1217-65.1554 86.3217-69.0554ZM20.1217-33.2554C18.3217-31.4554 18.3217-28.5554 20.1217-26.8554C21.9217-25.1554 24.8217-25.0554 26.5217-26.8554C28.3217-28.6554 28.3217-31.5554 26.5217-33.2554C24.7217-35.0554 21.8217-35.0554 20.1217-33.2554ZM52.8217-59.8554C50.2217-57.2554 50.2217-53.1554 52.8217-50.6554C55.4217-48.1554 59.5217-48.0554 62.0217-50.6554C64.6217-53.2554 64.6217-57.3554 62.0217-59.8554C59.5217-62.4554 55.4217-62.4554 52.8217-59.8554ZM26.1217-54.3554C24.9217-53.1554 24.9217-51.1554 26.1217-49.8554C27.3217-48.5554 29.3217-48.6554 30.6217-49.8554C31.8217-51.0554 31.8217-53.0554 30.6217-54.3554C29.4217-55.6554 27.3217-55.6554 26.1217-54.3554ZM58.7217-21.1554C57.6217-20.0554 57.6217-18.3554 58.7217-17.2554C59.8217-16.1554 61.5217-16.1554 62.6217-17.2554C63.7217-18.3554 63.7217-20.0554 62.6217-21.1554C61.6217-22.2554 59.8217-22.2554 58.7217-21.1554ZM82.5217-39.0554C81.4217-37.9554 81.4217-36.2554 82.5217-35.1554C83.6217-34.0554 85.3217-34.0554 86.4217-35.1554C87.5217-36.2554 87.5217-37.9554 86.4217-39.0554C85.3217-40.1554 83.6217-40.1554 82.5217-39.0554Z"/>
  </g>
  <g id="Heavy-S" transform="matrix(1 0 0 1 2592.36 696)">
   <path d="M11.0169-2.00377C7.71694-3.80377 4.11694-7.50377 2.31694-9.40377C-7.28306-20.3038-4.68306-33.1038 5.71694-43.0038C17.0169-53.8038 25.6169-69.5038 36.0169-78.9038C46.1169-87.9038 58.1169-89.2038 70.5169-81.2038C72.4169-79.9038 75.2169-77.5038 77.2169-74.6038C80.6169-69.9038 81.3169-63.6038 80.6169-57.8038C80.1169-53.4038 78.2169-47.4038 72.7169-44.0038C61.7169-37.4038 50.7169-24.4038 41.0169-12.9038C40.0169-11.7038 39.0169-10.6038 38.1169-9.50377C33.7169-4.30377 26.3169-1.00377 18.2169-0.703765C15.5169-0.603765 13.2169-0.803765 11.0169-2.00377ZM84.4169-69.1038C84.6169-68.9038 84.8169-68.7038 85.0169-68.4038C94.4169-57.8038 100.517-37.2038 87.7169-31.3038C75.3169-25.5038 61.4169-10.5038 53.6169 2.79623C46.8169 14.3962 26.8169 11.6962 15.8169 3.49623C16.5169 3.49623 17.8169 4.09623 18.4169 4.09623C27.8169 3.69623 36.5169-0.203765 41.7169-6.30377C42.7169-7.40377 43.6169-8.60377 44.6169-9.80377C54.2169-21.0038 64.9169-33.7038 75.2169-39.9038C76.5169-40.7038 77.8169-41.7038 78.9169-42.8038C82.4169-46.3038 84.7169-51.3038 85.4169-57.3038C85.9169-60.9038 85.1169-65.3038 84.4169-69.1038ZM19.7169-33.3038C17.9169-31.5038 17.9169-28.7038 19.7169-27.0038C21.5169-25.3038 24.3169-25.2038 26.0169-27.0038C27.8169-28.8038 27.8169-31.6038 26.0169-33.3038C24.3169-35.1038 21.5169-35.1038 19.7169-33.3038ZM52.0169-59.5038C49.5169-57.0038 49.5169-52.9038 52.0169-50.4038C54.5169-47.9038 58.6169-47.9038 61.1169-50.4038C63.6169-52.9038 63.6169-57.0038 61.1169-59.5038C58.6169-62.0038 54.5169-62.0038 52.0169-59.5038ZM25.7169-54.1038C24.5169-52.9038 24.5169-50.9038 25.7169-49.7038C26.9169-48.5038 28.9169-48.5038 30.1169-49.7038C31.3169-50.9038 31.3169-52.9038 30.1169-54.1038C28.9169-55.3038 26.9169-55.4038 25.7169-54.1038ZM57.8169-21.5038C56.7169-20.4038 56.7169-18.7038 57.8169-17.6038C58.9169-16.5038 60.6169-16.5038 61.7169-17.6038C62.8169-18.7038 62.8169-20.4038 61.7169-21.5038C60.6169-22.6038 58.8169-22.5038 57.8169-21.5038ZM81.2169-39.1038C80.1169-38.0038 80.1169-36.3038 81.2169-35.2038C82.3169-34.1038 84.0169-34.1038 85.1169-35.2038C86.2169-36.3038 86.2169-38.0038 85.1169-39.1038C84.0169-40.1038 82.2169-40.1038 81.2169-39.1038Z"/>
  </g>
  <g id="Bold-S" transform="matrix(1 0 0 1 2296.63 696)">
   <path d="M9.80924-3.63567C6.80924-5.33567 3.70924-8.33567 2.20924-10.1357C-7.19076-20.8357-4.69076-33.3357 5.50924-43.0357C16.6092-53.6357 25.0092-69.0357 35.3092-78.2357C45.1092-87.1357 56.9092-88.3357 69.1092-80.4357C70.7092-79.4357 72.7092-77.3357 74.5092-75.0357C78.3092-70.2357 79.3092-63.3357 78.5092-57.1357C78.0092-52.8357 76.2092-47.0357 70.8092-43.7357C60.3092-37.3357 49.6092-24.8357 40.3092-13.7357C39.3092-12.6357 38.4092-11.5357 37.5092-10.4357C33.1092-5.53567 25.9092-2.33567 18.1092-2.03567C15.0092-1.93567 12.3092-2.23567 9.80924-3.63567ZM81.3092-69.9357C81.5092-69.7357 81.7092-69.5357 81.9092-69.3357C91.9092-59.3357 99.0092-37.6357 85.9092-31.5357C73.7092-25.8357 60.1092-11.1357 52.5092 1.86433C45.5092 13.7643 25.3092 10.9643 14.7092 2.16433C15.9092 2.26433 17.1092 2.26433 18.3092 2.16433C27.3092 1.76433 35.6092-1.93567 40.7092-7.83567C41.6092-8.93567 42.6092-10.0357 43.5092-11.1357C52.7092-21.9357 63.1092-34.2357 73.0092-40.2357C74.3092-41.0357 75.5092-41.9357 76.5092-43.0357C79.9092-46.4357 82.1092-51.2357 82.8092-56.8357C83.2092-60.8357 82.3092-65.8357 81.3092-69.9357ZM19.2092-33.5357C17.5092-31.8357 17.5092-29.0357 19.2092-27.3357C20.9092-25.6357 23.7092-25.6357 25.4092-27.3357C27.1092-29.0357 27.1092-31.8357 25.4092-33.5357C23.7092-35.2357 20.9092-35.2357 19.2092-33.5357ZM50.9092-59.2357C48.4092-56.7357 48.4092-52.7357 50.9092-50.3357C53.4092-47.8357 57.4092-47.8357 59.8092-50.3357C62.3092-52.8357 62.3092-56.8357 59.8092-59.2357C57.3092-61.6357 53.3092-61.7357 50.9092-59.2357ZM25.0092-53.9357C23.8092-52.7357 23.8092-50.8357 25.0092-49.6357C26.2092-48.4357 28.1092-48.4357 29.3092-49.6357C30.5092-50.8357 30.5092-52.7357 29.3092-53.9357C28.2092-55.1357 26.2092-55.1357 25.0092-53.9357ZM56.5092-21.9357C55.5092-20.9357 55.5092-19.2357 56.5092-18.1357C57.5092-17.1357 59.2092-17.1357 60.3092-18.1357C61.3092-19.1357 61.3092-20.8357 60.3092-21.9357C59.3092-22.9357 57.6092-22.9357 56.5092-21.9357ZM79.5092-39.1357C78.5092-38.1357 78.5092-36.4357 79.5092-35.3357C80.5092-34.3357 82.2092-34.3357 83.3092-35.3357C84.4092-36.3357 84.3092-38.0357 83.3092-39.1357C82.3092-40.2357 80.5092-40.2357 79.5092-39.1357Z"/>
  </g>
  <g id="Semibold-S" transform="matrix(1 0 0 1 2000.54 696)">
   <path d="M10.3359-3.4099C7.13585-5.1099 3.73585-8.6099 2.13585-10.4099C-7.16415-21.0099-4.66415-33.3099 5.43585-42.9099C16.3359-53.3099 24.6359-68.5099 34.7359-77.6099C44.5359-86.4099 56.1359-87.6099 68.1359-79.8099C69.9359-78.6099 72.4359-76.3099 74.3359-73.7099C77.7359-69.1099 78.5359-62.8099 77.8359-57.0099C77.3359-52.7099 75.5359-46.8099 70.0359-43.5099C59.6359-37.2099 49.1359-24.8099 39.8359-13.8099C38.8359-12.7099 37.9359-11.6099 37.0359-10.5099C32.7359-5.5099 25.5359-2.3099 17.7359-2.0099C14.9359-1.9099 12.6359-2.2099 10.3359-3.4099ZM80.2359-69.4099C80.4359-69.2099 80.6359-69.0099 80.8359-68.8099C90.6359-59.0099 97.7359-37.6099 84.7359-31.5099C72.7359-25.9099 59.3359-11.4099 51.7359 1.4901C44.8359 13.1901 24.3359 9.8901 13.8359 1.1901C14.9359 1.2901 16.0359 1.2901 17.2359 1.1901C26.1359 0.790099 34.9359-2.3099 39.9359-8.1099C40.8359-9.2099 41.8359-10.3099 42.7359-11.4099C51.8359-22.1099 62.1359-34.3099 72.0359-40.2099C73.3359-41.0099 74.4359-41.9099 75.4359-42.9099C78.7359-46.2099 80.9359-50.9099 81.6359-56.5099C82.1359-60.5099 81.2359-65.3099 80.2359-69.4099ZM18.9359-33.5099C17.2359-31.8099 17.2359-29.1099 18.9359-27.4099C20.6359-25.7099 23.3359-25.7099 25.0359-27.4099C26.7359-29.1099 26.7359-31.8099 25.0359-33.5099C23.4359-35.2099 20.6359-35.2099 18.9359-33.5099ZM50.1359-58.9099C47.7359-56.5099 47.7359-52.5099 50.1359-50.1099C52.5359-47.7099 56.5359-47.7099 58.9359-50.1099C61.3359-52.5099 61.3359-56.5099 58.9359-58.9099C56.5359-61.3099 52.6359-61.3099 50.1359-58.9099ZM24.6359-53.7099C23.4359-52.5099 23.4359-50.6099 24.6359-49.4099C25.8359-48.2099 27.7359-48.2099 28.9359-49.4099C30.1359-50.6099 30.1359-52.5099 28.9359-53.7099C27.7359-54.9099 25.8359-54.8099 24.6359-53.7099ZM55.7359-22.0099C54.7359-21.0099 54.7359-19.3099 55.7359-18.3099C56.7359-17.3099 58.4359-17.3099 59.4359-18.3099C60.4359-19.3099 60.4359-21.0099 59.4359-22.0099C58.4359-23.1099 56.8359-23.1099 55.7359-22.0099ZM78.4359-39.1099C77.4359-38.1099 77.4359-36.4099 78.4359-35.4099C79.4359-34.4099 81.1359-34.4099 82.1359-35.4099C83.1359-36.4099 83.1359-38.1099 82.1359-39.1099C81.1359-40.1099 79.4359-40.1099 78.4359-39.1099Z"/>
  </g>
  <g id="Medium-S" transform="matrix(1 0 0 1 1704.62 696)">
   <path d="M9.22817-4.9583C6.32817-6.5583 3.42817-9.3583 2.02817-10.9583C-7.07183-21.3583-4.67183-33.4583 5.22817-42.9583C16.0282-53.1583 24.1282-68.1583 34.1282-77.0583C43.7282-85.6583 55.2282-86.8583 66.9282-79.2583C68.4282-78.2583 70.1282-76.3583 71.8282-74.2583C75.6282-69.4583 76.7282-62.6583 76.0282-56.4583C75.5282-52.2583 73.8282-46.5583 68.4282-43.2583C58.4282-37.1583 48.2282-25.1583 39.2282-14.6583C38.3282-13.5583 37.4282-12.5583 36.5282-11.4583C32.3282-6.5583 25.3282-3.4583 17.8282-3.1583C14.5282-3.1583 11.7282-3.4583 9.22817-4.9583ZM77.5282-70.2583C78.2282-69.5583 78.9282-68.9583 79.4282-68.4583C89.1282-58.7583 96.0282-37.7583 83.2282-31.7583C71.4282-26.2583 58.2282-11.9583 50.8282 0.641697C43.8282 12.6417 22.3282 8.7417 12.4282-0.658303C14.0282-0.458303 16.2282 0.141697 17.8282 0.0416973C26.4282-0.258303 34.3282-3.7583 39.0282-9.3583C39.9282-10.3583 40.8282-11.4583 41.7282-12.5583C50.5282-22.9583 60.5282-34.7583 70.1282-40.5583C71.3282-41.2583 72.4282-42.1583 73.4282-43.1583C76.6282-46.3583 78.6282-50.8583 79.3282-56.1583C79.8282-60.5583 78.7282-65.8583 77.5282-70.2583ZM18.5282-33.7583C16.8282-32.0583 16.8282-29.3583 18.5282-27.7583C20.2282-26.1583 22.9282-26.0583 24.5282-27.7583C26.2282-29.4583 26.2282-32.1583 24.5282-33.7583C22.9282-35.3583 20.2282-35.3583 18.5282-33.7583ZM49.2282-58.6583C46.8282-56.2583 46.8282-52.3583 49.2282-49.9583C51.6282-47.5583 55.5282-47.5583 57.9282-49.9583C60.3282-52.3583 60.3282-56.2583 57.9282-58.6583C55.5282-61.0583 51.6282-61.0583 49.2282-58.6583ZM24.2282-53.5583C23.0282-52.3583 23.0282-50.5583 24.2282-49.3583C25.4282-48.1583 27.2282-48.1583 28.4282-49.3583C29.6282-50.5583 29.6282-52.3583 28.4282-53.5583C27.2282-54.6583 25.3282-54.6583 24.2282-53.5583ZM54.7282-22.4583C53.7282-21.4583 53.7282-19.7583 54.7282-18.7583C55.7282-17.7583 57.4282-17.7583 58.4282-18.7583C59.4282-19.7583 59.4282-21.4583 58.4282-22.4583C57.4282-23.4583 55.8282-23.4583 54.7282-22.4583ZM77.0282-39.1583C76.0282-38.1583 76.0282-36.4583 77.0282-35.4583C78.0282-34.4583 79.7282-34.4583 80.7282-35.4583C81.7282-36.4583 81.7282-38.1583 80.7282-39.1583C79.6282-40.2583 78.0282-40.2583 77.0282-39.1583Z"/>
  </g>
  <g id="Regular-S" transform="matrix(1 0 0 1 1408.75 696)">
   <path d="M9.32055-5.4235C6.42055-7.0235 3.42055-10.0235 1.92055-11.7235C-6.97945-21.9235-4.67945-33.8235 5.02055-43.0235C15.5206-53.0235 23.5206-67.7235 33.3206-76.4235C42.7206-84.8235 53.9206-86.0235 65.5206-78.5235C67.1206-77.5235 69.0206-75.5235 70.8206-73.3235C74.4206-68.7235 75.4206-62.1235 74.6206-56.2235C74.1206-52.0235 72.4206-46.4235 67.1206-43.1235C57.3206-37.2235 47.3206-25.4235 38.5206-15.1235C37.6206-14.0235 36.7206-13.0235 35.8206-12.0235C31.7206-7.2235 24.8206-4.1235 17.3206-3.8235C14.3206-3.7235 11.7206-4.0235 9.32055-5.4235ZM76.2206-69.5235C77.0206-68.7235 77.8206-68.0235 78.3206-67.4235C87.8206-57.9235 94.0206-37.9235 81.5206-32.0235C69.9206-26.6235 57.0206-12.6235 49.8206-0.323498C42.9206 11.4765 22.1206 8.0765 12.5206-1.2235C14.1206-1.0235 15.8206-0.923498 17.5206-1.0235C25.8206-1.3235 33.5206-4.7235 38.1206-10.2235C39.0206-11.2235 39.9206-12.3235 40.8206-13.3235C49.3206-23.5235 59.1206-35.0235 68.6206-40.7235C69.8206-41.4235 70.8206-42.2235 71.8206-43.2235C74.9206-46.3235 76.9206-50.7235 77.5206-55.9235C78.0206-60.3235 77.5206-65.1235 76.2206-69.5235ZM18.1206-33.9235C16.5206-32.3235 16.5206-29.6235 18.1206-28.0235C19.7206-26.4235 22.4206-26.4235 24.0206-28.0235C25.6206-29.6235 25.6206-32.3235 24.0206-33.9235C22.4206-35.5235 19.7206-35.5235 18.1206-33.9235ZM48.2206-58.3235C45.9206-56.0235 45.9206-52.2235 48.2206-49.8235C50.5206-47.5235 54.3206-47.5235 56.7206-49.8235C59.0206-52.1235 59.0206-55.9235 56.7206-58.3235C54.4206-60.7235 50.6206-60.7235 48.2206-58.3235ZM23.6206-53.3235C22.5206-52.2235 22.5206-50.3235 23.6206-49.2235C24.7206-48.1235 26.6206-48.1235 27.7206-49.2235C28.8206-50.3235 28.8206-52.2235 27.7206-53.3235C26.6206-54.4235 24.8206-54.5235 23.6206-53.3235ZM53.6206-22.9235C52.6206-21.9235 52.6206-20.3235 53.6206-19.3235C54.6206-18.3235 56.2206-18.3235 57.2206-19.3235C58.2206-20.3235 58.2206-21.9235 57.2206-22.9235C56.2206-23.8235 54.6206-23.8235 53.6206-22.9235ZM75.4206-39.3235C74.4206-38.3235 74.4206-36.7235 75.4206-35.7235C76.4206-34.7235 78.0206-34.7235 79.0206-35.7235C80.0206-36.7235 80.0206-38.3235 79.0206-39.3235C78.0206-40.3235 76.4206-40.3235 75.4206-39.3235Z"/>
  </g>
  <g id="Light-S" transform="matrix(1 0 0 1 1112.83 696)">
   <path d="M9.44711-5.93862C6.44711-7.63862 3.34711-10.4386 1.84711-12.1386C-6.95289-22.1386-4.65289-33.8386 4.94711-42.9386C15.3471-52.8386 23.1471-67.2386 32.7471-75.8386C41.9471-84.1386 53.0471-85.2386 64.3471-77.9386C65.9471-76.8386 67.1471-75.9386 68.9471-73.6386C72.3471-69.1386 74.2471-61.7386 73.5471-56.0386C73.0471-51.8386 71.3471-46.2386 66.0471-43.0386C56.4471-37.2386 46.6471-25.7386 38.0471-15.5386C37.1471-14.5386 36.2471-13.4386 35.4471-12.4386C31.3471-7.63862 24.5471-4.63862 17.0471-4.33862C14.1471-4.13862 11.6471-4.63862 9.44711-5.93862ZM76.9471-66.9386C86.2471-57.6386 92.3471-37.9386 80.0471-32.2386C68.7471-26.8386 56.0471-13.1386 48.8471-0.938622C42.0471 10.7614 21.3471 7.26138 12.0471-2.03862C12.0471-2.03862 15.3471-1.83862 17.1471-1.83862C25.1471-2.13862 32.7471-5.53862 37.2471-10.8386C38.1471-11.8386 38.9471-12.8386 39.8471-13.9386C48.3471-23.9386 57.9471-35.3386 67.2471-40.9386C68.3471-41.6386 69.4471-42.4386 70.3471-43.3386C73.3471-46.3386 75.3471-50.6386 75.9471-55.6386C76.4471-60.0386 75.3471-65.4386 74.0471-69.8386C74.9471-68.9386 76.3471-67.5386 76.9471-66.9386ZM17.7471-34.0386C16.1471-32.4386 16.1471-29.8386 17.7471-28.2386C19.3471-26.6386 21.9471-26.6386 23.5471-28.2386C25.1471-29.8386 25.1471-32.4386 23.5471-34.0386C21.9471-35.6386 19.3471-35.6386 17.7471-34.0386ZM47.3471-58.0386C45.0471-55.7386 45.0471-52.0386 47.3471-49.7386C49.6471-47.4386 53.3471-47.4386 55.6471-49.7386C57.9471-52.0386 57.9471-55.7386 55.6471-58.0386C53.3471-60.3386 49.6471-60.3386 47.3471-58.0386ZM23.2471-53.1386C22.1471-52.0386 22.1471-50.2386 23.2471-49.1386C24.3471-48.0386 26.1471-48.0386 27.2471-49.1386C28.3471-50.2386 28.3471-52.0386 27.2471-53.1386C26.1471-54.2386 24.3471-54.2386 23.2471-53.1386ZM52.6471-23.1386C51.6471-22.1386 51.6471-20.5386 52.6471-19.6386C53.6471-18.6386 55.2471-18.6386 56.1471-19.6386C57.1471-20.6386 57.1471-22.2386 56.1471-23.1386C55.2471-24.1386 53.6471-24.1386 52.6471-23.1386ZM74.1471-39.3386C73.1471-38.3386 73.1471-36.7386 74.1471-35.8386C75.1471-34.8386 76.7471-34.8386 77.6471-35.8386C78.5471-36.8386 78.6471-38.4386 77.6471-39.3386C76.6471-40.2386 75.0471-40.2386 74.1471-39.3386Z"/>
  </g>
  <g id="Thin-S" transform="matrix(1 0 0 1 816.764 696)">
   <path d="M9.5815-5.84601C5.3815-8.24601 3.3815-10.746 1.7815-12.446C-6.9185-22.346-4.6185-33.846 4.7815-42.746C15.0815-52.546 22.7815-66.746 32.2815-75.146C41.3815-83.246 52.2815-84.446 63.4815-77.246C65.1815-76.146 66.9815-74.546 68.7815-72.046C72.0815-67.646 73.3815-61.046 72.6815-55.546C72.1815-51.446 70.4815-45.846 65.1815-42.646C55.6815-36.946 46.0815-25.546 37.5815-15.546C36.6815-14.546 35.8815-13.546 34.9815-12.546C30.8815-7.74601 24.0815-4.84601 16.7815-4.54601C14.0815-4.44601 11.6815-4.64601 9.5815-5.84601ZM72.5815-69.546C73.6815-68.546 75.0815-67.046 75.7815-66.446C84.9815-57.246 90.9815-37.846 78.8815-32.246C67.6815-26.946 55.1815-13.446 48.1815-1.44601C41.3815 10.054 20.4815 6.15399 11.2815-3.04601C11.2815-3.04601 14.9815-2.44601 16.7815-2.54601C24.6815-2.84601 31.9815-6.14601 36.3815-11.246C37.1815-12.246 38.0815-13.246 38.9815-14.246C47.3815-24.146 56.8815-35.346 66.0815-40.946C67.1815-41.646 68.1815-42.446 69.0815-43.346C71.9815-46.246 73.8815-50.446 74.4815-55.346C75.0815-59.846 73.9815-65.146 72.5815-69.546ZM17.4815-34.046C15.8815-32.446 15.8815-29.946 17.4815-28.346C19.0815-26.746 21.5815-26.746 23.1815-28.346C24.7815-29.946 24.7815-32.446 23.1815-34.046C21.6815-35.646 19.0815-35.646 17.4815-34.046ZM46.6815-57.646C44.3815-55.346 44.3815-51.746 46.6815-49.446C48.9815-47.146 52.5815-47.146 54.8815-49.446C57.1815-51.746 57.1815-55.346 54.8815-57.646C52.5815-59.946 48.8815-59.946 46.6815-57.646ZM22.8815-52.846C21.7815-51.746 21.7815-49.946 22.8815-48.846C23.9815-47.746 25.7815-47.746 26.8815-48.846C27.9815-49.946 27.9815-51.746 26.8815-52.846C25.7815-53.946 23.9815-53.946 22.8815-52.846ZM51.8815-23.346C50.8815-22.346 50.8815-20.846 51.8815-19.846C52.8815-18.846 54.3815-18.846 55.3815-19.846C56.3815-20.846 56.3815-22.346 55.3815-23.346C54.3815-24.246 52.7815-24.246 51.8815-23.346ZM72.9815-39.246C71.9815-38.246 71.9815-36.746 72.9815-35.746C73.9815-34.746 75.4815-34.746 76.4815-35.746C77.4815-36.746 77.4815-38.246 76.4815-39.246C75.4815-40.146 73.9815-40.146 72.9815-39.246Z"/>
  </g>
  <g id="Ultralight-S" transform="matrix(1 0 0 1 521.033 696)">
   <path d="M9.20172-7.04543C6.00172-8.94543 2.90172-12.0454 1.40172-13.7454C-6.99828-23.3454-4.29828-34.0454 4.90172-42.7454C14.9017-52.2454 22.4017-66.0454 31.6017-74.3454C40.5017-82.2454 50.0017-84.5454 60.9017-77.4454C62.7017-76.3454 64.9017-74.9454 67.5017-72.0454C71.0017-68.1454 71.8017-60.4454 71.1017-55.2454C70.6017-51.1454 68.9017-45.6454 63.7017-42.5454C54.5017-36.9454 45.1017-25.9454 36.9017-16.2454C36.0017-15.2454 35.2017-14.2454 34.4017-13.3454C30.4017-8.64543 23.7017-5.74543 16.5017-5.44543C14.0017-5.24543 11.8017-5.54543 9.20172-7.04543ZM71.2017-68.6454C72.4017-67.5454 73.4017-66.5454 74.1017-65.8454C83.0017-56.9454 88.9017-37.9454 77.1017-32.4454C66.2017-27.3454 54.0017-14.1454 47.1017-2.44543C40.5017 8.75457 20.0017 4.95457 10.7017-4.54543C10.7017-4.54543 14.8017-3.64543 16.6017-3.74543C24.2017-4.04543 31.4017-7.24543 35.6017-12.1454C36.4017-13.1454 37.3017-14.0454 38.1017-15.1454C46.3017-24.8454 55.6017-35.7454 64.5017-41.1454C65.6017-41.7454 66.5017-42.5454 67.4017-43.4454C70.2017-46.2454 72.1017-50.2454 72.6017-55.0454C73.2017-59.5454 72.6017-64.3454 71.2017-68.6454ZM17.2017-34.2454C15.7017-32.7454 15.7017-30.2454 17.2017-28.6454C18.7017-27.1454 21.2017-27.1454 22.8017-28.6454C24.3017-30.1454 24.3017-32.6454 22.8017-34.2454C21.3017-35.8454 18.8017-35.8454 17.2017-34.2454ZM45.6017-57.3454C43.4017-55.1454 43.4017-51.5454 45.6017-49.3454C47.8017-47.1454 51.4017-47.1454 53.6017-49.3454C55.8017-51.5454 55.8017-55.1454 53.6017-57.3454C51.4017-59.5454 47.8017-59.5454 45.6017-57.3454ZM22.4017-52.6454C21.3017-51.5454 21.3017-49.8454 22.4017-48.7454C23.5017-47.6454 25.2017-47.6454 26.3017-48.7454C27.4017-49.8454 27.4017-51.5454 26.3017-52.6454C25.3017-53.6454 23.5017-53.6454 22.4017-52.6454ZM50.7017-23.8454C49.8017-22.9454 49.8017-21.3454 50.7017-20.4454C51.6017-19.5454 53.2017-19.5454 54.1017-20.4454C55.0017-21.3454 55.0017-22.9454 54.1017-23.8454C53.2017-24.7454 51.7017-24.7454 50.7017-23.8454ZM71.3017-39.3454C70.4017-38.4454 70.4017-36.8454 71.3017-35.9454C72.2017-35.0454 73.8017-35.0454 74.7017-35.9454C75.6017-36.8454 75.6017-38.4454 74.7017-39.3454C73.8017-40.2454 72.2017-40.3454 71.3017-39.3454Z"/>
  </g>
 </g>
</svg>
