<?xml version="1.0" encoding="UTF-8"?>
<!--Generator: Apple Native CoreSVG 175-->
<!DOCTYPE svg
PUBLIC "-//W3C//DTD SVG 1.1//EN"
       "http://www.w3.org/Graphics/SVG/1.1/DTD/svg11.dtd">
<svg version="1.1" xmlns="http://www.w3.org/2000/svg" xmlns:xlink="http://www.w3.org/1999/xlink" width="3300" height="2200">
 <!--glyph: "", point size: 100.0, font version: "17.1d1e1", template writer version: "65.1"-->
 <style>.hierarchical-0:secondary {fill:#4D4D4D}
.hierarchical-1:primary {fill:#212121}

.SFSymbolsPreview212121 {fill:#212121;opacity:1.0}
.SFSymbolsPreview4D4D4D {fill:#4D4D4D;opacity:1.0}
</style>
 <g id="Notes">
  <rect height="2200" id="artboard" style="fill:white;opacity:1" width="3300" x="0" y="0"/>
  <line style="fill:none;stroke:black;opacity:1;stroke-width:0.5;" x1="263" x2="3036" y1="292" y2="292"/>
  <text style="stroke:none;fill:black;font-family:sans-serif;font-size:13;font-weight:bold;" transform="matrix(1 0 0 1 263 322)">Weight/Scale Variations</text>
  <text style="stroke:none;fill:black;font-family:sans-serif;font-size:13;text-anchor:middle;" transform="matrix(1 0 0 1 559.711 322)">Ultralight</text>
  <text style="stroke:none;fill:black;font-family:sans-serif;font-size:13;text-anchor:middle;" transform="matrix(1 0 0 1 856.422 322)">Thin</text>
  <text style="stroke:none;fill:black;font-family:sans-serif;font-size:13;text-anchor:middle;" transform="matrix(1 0 0 1 1153.13 322)">Light</text>
  <text style="stroke:none;fill:black;font-family:sans-serif;font-size:13;text-anchor:middle;" transform="matrix(1 0 0 1 1449.84 322)">Regular</text>
  <text style="stroke:none;fill:black;font-family:sans-serif;font-size:13;text-anchor:middle;" transform="matrix(1 0 0 1 1746.56 322)">Medium</text>
  <text style="stroke:none;fill:black;font-family:sans-serif;font-size:13;text-anchor:middle;" transform="matrix(1 0 0 1 2043.27 322)">Semibold</text>
  <text style="stroke:none;fill:black;font-family:sans-serif;font-size:13;text-anchor:middle;" transform="matrix(1 0 0 1 2339.98 322)">Bold</text>
  <text style="stroke:none;fill:black;font-family:sans-serif;font-size:13;text-anchor:middle;" transform="matrix(1 0 0 1 2636.69 322)">Heavy</text>
  <text style="stroke:none;fill:black;font-family:sans-serif;font-size:13;text-anchor:middle;" transform="matrix(1 0 0 1 2933.4 322)">Black</text>
  <line style="fill:none;stroke:black;opacity:1;stroke-width:0.5;" x1="263" x2="3036" y1="1903" y2="1903"/>
  <g transform="matrix(1 0 0 1 263 1933)">
   <path d="M9.24805 0.830078Q10.8691 0.830078 12.2949 0.214844Q13.7207-0.400391 14.8096-1.49414Q15.8984-2.58789 16.5186-4.01367Q17.1387-5.43945 17.1387-7.05078Q17.1387-8.66211 16.5186-10.0879Q15.8984-11.5137 14.8047-12.6074Q13.7109-13.7012 12.2852-14.3164Q10.8594-14.9316 9.23828-14.9316Q7.62695-14.9316 6.20117-14.3164Q4.77539-13.7012 3.69141-12.6074Q2.60742-11.5137 1.9873-10.0879Q1.36719-8.66211 1.36719-7.05078Q1.36719-5.43945 1.9873-4.01367Q2.60742-2.58789 3.69629-1.49414Q4.78516-0.400391 6.21094 0.214844Q7.63672 0.830078 9.24805 0.830078ZM9.24805-0.654297Q7.91992-0.654297 6.7627-1.14746Q5.60547-1.64062 4.73145-2.51953Q3.85742-3.39844 3.36426-4.56055Q2.87109-5.72266 2.87109-7.05078Q2.87109-8.37891 3.35938-9.54102Q3.84766-10.7031 4.72168-11.582Q5.5957-12.4609 6.75293-12.9541Q7.91016-13.4473 9.23828-13.4473Q10.5762-13.4473 11.7334-12.9541Q12.8906-12.4609 13.7695-11.582Q14.6484-10.7031 15.1465-9.54102Q15.6445-8.37891 15.6445-7.05078Q15.6445-5.72266 15.1514-4.56055Q14.6582-3.39844 13.7842-2.51953Q12.9102-1.64062 11.748-1.14746Q10.5859-0.654297 9.24805-0.654297ZM5.6543-7.05078Q5.6543-6.72852 5.85938-6.52832Q6.06445-6.32812 6.40625-6.32812L8.51562-6.32812L8.51562-4.20898Q8.51562-3.88672 8.71094-3.67676Q8.90625-3.4668 9.23828-3.4668Q9.56055-3.4668 9.77051-3.67676Q9.98047-3.88672 9.98047-4.20898L9.98047-6.32812L12.0898-6.32812Q12.4219-6.32812 12.627-6.52832Q12.832-6.72852 12.832-7.05078Q12.832-7.38281 12.627-7.58789Q12.4219-7.79297 12.0898-7.79297L9.98047-7.79297L9.98047-9.90234Q9.98047-10.2344 9.77051-10.4443Q9.56055-10.6543 9.23828-10.6543Q8.90625-10.6543 8.71094-10.4443Q8.51562-10.2344 8.51562-9.90234L8.51562-7.79297L6.40625-7.79297Q6.06445-7.79297 5.85938-7.58789Q5.6543-7.38281 5.6543-7.05078Z"/>
  </g>
  <g transform="matrix(1 0 0 1 281.867 1933)">
   <path d="M11.709 2.91016Q13.75 2.91016 15.5518 2.12891Q17.3535 1.34766 18.7305-0.0292969Q20.1074-1.40625 20.8887-3.20801Q21.6699-5.00977 21.6699-7.05078Q21.6699-9.0918 20.8887-10.8936Q20.1074-12.6953 18.7305-14.0723Q17.3535-15.4492 15.5469-16.2305Q13.7402-17.0117 11.6992-17.0117Q9.6582-17.0117 7.85645-16.2305Q6.05469-15.4492 4.68262-14.0723Q3.31055-12.6953 2.5293-10.8936Q1.74805-9.0918 1.74805-7.05078Q1.74805-5.00977 2.5293-3.20801Q3.31055-1.40625 4.6875-0.0292969Q6.06445 1.34766 7.86621 2.12891Q9.66797 2.91016 11.709 2.91016ZM11.709 1.25Q9.98047 1.25 8.47656 0.605469Q6.97266-0.0390625 5.83496-1.17676Q4.69727-2.31445 4.05762-3.81836Q3.41797-5.32227 3.41797-7.05078Q3.41797-8.7793 4.05762-10.2832Q4.69727-11.7871 5.83008-12.9297Q6.96289-14.0723 8.4668-14.7119Q9.9707-15.3516 11.6992-15.3516Q13.4277-15.3516 14.9316-14.7119Q16.4355-14.0723 17.5781-12.9297Q18.7207-11.7871 19.3652-10.2832Q20.0098-8.7793 20.0098-7.05078Q20.0098-5.32227 19.3701-3.81836Q18.7305-2.31445 17.5928-1.17676Q16.4551-0.0390625 14.9463 0.605469Q13.4375 1.25 11.709 1.25ZM7.17773-7.05078Q7.17773-6.69922 7.41211-6.47461Q7.64648-6.25 8.01758-6.25L10.8887-6.25L10.8887-3.36914Q10.8887-2.99805 11.1133-2.76855Q11.3379-2.53906 11.6895-2.53906Q12.0605-2.53906 12.29-2.76855Q12.5195-2.99805 12.5195-3.36914L12.5195-6.25L15.4004-6.25Q15.7715-6.25 16.001-6.47461Q16.2305-6.69922 16.2305-7.05078Q16.2305-7.42188 16.001-7.65137Q15.7715-7.88086 15.4004-7.88086L12.5195-7.88086L12.5195-10.752Q12.5195-11.1328 12.29-11.3623Q12.0605-11.5918 11.6895-11.5918Q11.3379-11.5918 11.1133-11.3574Q10.8887-11.123 10.8887-10.752L10.8887-7.88086L8.01758-7.88086Q7.63672-7.88086 7.40723-7.65137Q7.17773-7.42188 7.17773-7.05078Z"/>
  </g>
  <g transform="matrix(1 0 0 1 305.646 1933)">
   <path d="M14.9707 5.66406Q17.0605 5.66406 18.96 5.01465Q20.8594 4.36523 22.4512 3.19336Q24.043 2.02148 25.2197 0.429688Q26.3965-1.16211 27.0459-3.06641Q27.6953-4.9707 27.6953-7.05078Q27.6953-9.14062 27.0459-11.04Q26.3965-12.9395 25.2197-14.5312Q24.043-16.123 22.4512-17.2998Q20.8594-18.4766 18.9551-19.126Q17.0508-19.7754 14.9609-19.7754Q12.8711-19.7754 10.9717-19.126Q9.07227-18.4766 7.48535-17.2998Q5.89844-16.123 4.72168-14.5312Q3.54492-12.9395 2.90039-11.04Q2.25586-9.14062 2.25586-7.05078Q2.25586-4.9707 2.90527-3.06641Q3.55469-1.16211 4.72656 0.429688Q5.89844 2.02148 7.49023 3.19336Q9.08203 4.36523 10.9814 5.01465Q12.8809 5.66406 14.9707 5.66406ZM14.9707 3.84766Q13.1641 3.84766 11.5283 3.2959Q9.89258 2.74414 8.53516 1.74805Q7.17773 0.751953 6.17676-0.610352Q5.17578-1.97266 4.62891-3.6084Q4.08203-5.24414 4.08203-7.05078Q4.08203-8.86719 4.62891-10.5029Q5.17578-12.1387 6.17188-13.501Q7.16797-14.8633 8.52539-15.8594Q9.88281-16.8555 11.5186-17.4023Q13.1543-17.9492 14.9609-17.9492Q16.7773-17.9492 18.4131-17.4023Q20.0488-16.8555 21.4111-15.8594Q22.7734-14.8633 23.7695-13.501Q24.7656-12.1387 25.3174-10.5029Q25.8691-8.86719 25.8691-7.05078Q25.8789-5.24414 25.332-3.6084Q24.7852-1.97266 23.7842-0.610352Q22.7832 0.751953 21.4209 1.74805Q20.0586 2.74414 18.4229 3.2959Q16.7871 3.84766 14.9707 3.84766ZM9.19922-7.05078Q9.19922-6.66992 9.45801-6.4209Q9.7168-6.17188 10.1172-6.17188L14.0625-6.17188L14.0625-2.2168Q14.0625-1.81641 14.3115-1.55762Q14.5605-1.29883 14.9512-1.29883Q15.3516-1.29883 15.6104-1.55273Q15.8691-1.80664 15.8691-2.2168L15.8691-6.17188L19.8242-6.17188Q20.2246-6.17188 20.4785-6.4209Q20.7324-6.66992 20.7324-7.05078Q20.7324-7.46094 20.4785-7.71484Q20.2246-7.96875 19.8242-7.96875L15.8691-7.96875L15.8691-11.9141Q15.8691-12.3242 15.6104-12.583Q15.3516-12.8418 14.9512-12.8418Q14.5605-12.8418 14.3115-12.583Q14.0625-12.3242 14.0625-11.9141L14.0625-7.96875L10.1172-7.96875Q9.70703-7.96875 9.45312-7.71484Q9.19922-7.46094 9.19922-7.05078Z"/>
  </g>
  <text style="stroke:none;fill:black;font-family:sans-serif;font-size:13;font-weight:bold;" transform="matrix(1 0 0 1 263 1953)">Design Variations</text>
  <text style="stroke:none;fill:black;font-family:sans-serif;font-size:13;" transform="matrix(1 0 0 1 263 1971)">Symbols are supported in up to nine weights and three scales.</text>
  <text style="stroke:none;fill:black;font-family:sans-serif;font-size:13;" transform="matrix(1 0 0 1 263 1989)">For optimal layout with text and other symbols, vertically align</text>
  <text style="stroke:none;fill:black;font-family:sans-serif;font-size:13;" transform="matrix(1 0 0 1 263 2007)">symbols with the adjacent text.</text>
  <line style="fill:none;stroke:#00AEEF;stroke-width:0.5;opacity:1.0;" x1="776" x2="776" y1="1919" y2="1933"/>
  <g transform="matrix(1 0 0 1 776 1933)">
   <path d="M3.31055 0.15625Q3.70117 0.15625 3.91602-0.00976562Q4.13086-0.175781 4.26758-0.585938L5.52734-4.0332L11.2891-4.0332L12.5488-0.585938Q12.6855-0.175781 12.9004-0.00976562Q13.1152 0.15625 13.4961 0.15625Q13.8867 0.15625 14.1162-0.0585938Q14.3457-0.273438 14.3457-0.644531Q14.3457-0.869141 14.2383-1.17188L9.6582-13.3691Q9.48242-13.8184 9.17969-14.043Q8.87695-14.2676 8.4082-14.2676Q7.5-14.2676 7.17773-13.3789L2.59766-1.16211Q2.49023-0.859375 2.49023-0.634766Q2.49023-0.263672 2.70996-0.0537109Q2.92969 0.15625 3.31055 0.15625ZM6.00586-5.51758L8.37891-12.0898L8.42773-12.0898L10.8008-5.51758Z"/>
  </g>
  <line style="fill:none;stroke:#00AEEF;stroke-width:0.5;opacity:1.0;" x1="793.197" x2="793.197" y1="1919" y2="1933"/>
  <text style="stroke:none;fill:black;font-family:sans-serif;font-size:13;font-weight:bold;" transform="matrix(1 0 0 1 776 1953)">Margins</text>
  <text style="stroke:none;fill:black;font-family:sans-serif;font-size:13;" transform="matrix(1 0 0 1 776 1971)">Leading and trailing margins on the left and right side of each symbol</text>
  <text style="stroke:none;fill:black;font-family:sans-serif;font-size:13;" transform="matrix(1 0 0 1 776 1989)">can be adjusted by modifying the x-location of the margin guidelines.</text>
  <text style="stroke:none;fill:black;font-family:sans-serif;font-size:13;" transform="matrix(1 0 0 1 776 2007)">Modifications are automatically applied proportionally to all</text>
  <text style="stroke:none;fill:black;font-family:sans-serif;font-size:13;" transform="matrix(1 0 0 1 776 2025)">scales and weights.</text>
  <g transform="matrix(1 0 0 1 1289 1933)">
   <path d="M2.8418 1.86523L4.54102 3.57422Q5.18555 4.22852 5.90332 4.17969Q6.62109 4.13086 7.31445 3.35938L18.0078-8.42773L17.041-9.4043L6.42578 2.27539Q6.16211 2.57812 5.89355 2.61719Q5.625 2.65625 5.27344 2.30469L4.10156 1.14258Q3.75 0.791016 3.79395 0.522461Q3.83789 0.253906 4.14062-0.0195312L15.6152-10.8203L14.6387-11.7871L3.04688-0.898438Q2.30469-0.214844 2.25098 0.498047Q2.19727 1.21094 2.8418 1.86523ZM9.25781-16.3281Q8.94531-16.0254 8.90625-15.6348Q8.86719-15.2441 9.04297-14.9512Q9.21875-14.6777 9.55566-14.541Q9.89258-14.4043 10.3809-14.5215Q11.4746-14.7754 12.5977-14.7314Q13.7207-14.6875 14.7949-13.9844L14.209-12.5293Q13.9551-11.9043 14.0674-11.4404Q14.1797-10.9766 14.5801-10.5664L16.875-8.25195Q17.2363-7.88086 17.5781-7.82227Q17.9199-7.76367 18.3398-7.8418L19.4043-8.03711L20.0684-7.36328L20.0293-6.80664Q20-6.43555 20.1221-6.12305Q20.2441-5.81055 20.6055-5.44922L21.3672-4.70703Q21.7285-4.3457 22.1533-4.33105Q22.5781-4.31641 22.9297-4.66797L25.8398-7.58789Q26.1914-7.93945 26.1816-8.35449Q26.1719-8.76953 25.8105-9.13086L25.0391-9.89258Q24.6875-10.2539 24.3799-10.3857Q24.0723-10.5176 23.7109-10.4883L23.1348-10.4395L22.4902-11.0742L22.7344-12.1973Q22.832-12.6172 22.6953-12.9834Q22.5586-13.3496 22.1191-13.7891L19.9219-15.9766Q18.6719-17.2168 17.2607-17.8369Q15.8496-18.457 14.4189-18.4814Q12.9883-18.5059 11.665-17.959Q10.3418-17.4121 9.25781-16.3281ZM10.752-15.957Q11.6602-16.6211 12.7002-16.9043Q13.7402-17.1875 14.8047-17.085Q15.8691-16.9824 16.8701-16.5137Q17.8711-16.0449 18.7012-15.2051L21.1328-12.793Q21.3086-12.6172 21.3525-12.4512Q21.3965-12.2852 21.3379-12.0312L21.0156-10.5469L22.5195-9.0625L23.5059-9.12109Q23.6914-9.13086 23.7891-9.09668Q23.8867-9.0625 24.0332-8.91602L24.6094-8.33984L22.168-5.89844L21.5918-6.47461Q21.4453-6.62109 21.4062-6.71875Q21.3672-6.81641 21.377-7.01172L21.4453-7.98828L19.9512-9.47266L18.4277-9.21875Q18.1836-9.16992 18.042-9.2041Q17.9004-9.23828 17.7148-9.41406L15.7129-11.416Q15.5176-11.5918 15.4932-11.7529Q15.4688-11.9141 15.5859-12.1875L16.4648-14.2773Q15.293-15.3711 13.8281-15.791Q12.3633-16.2109 10.8398-15.7617Q10.7227-15.7324 10.6885-15.8057Q10.6543-15.8789 10.752-15.957Z"/>
  </g>
  <text style="stroke:none;fill:black;font-family:sans-serif;font-size:13;font-weight:bold;" transform="matrix(1 0 0 1 1289 1953)">Exporting</text>
  <text style="stroke:none;fill:black;font-family:sans-serif;font-size:13;" transform="matrix(1 0 0 1 1289 1971)">Symbols should be outlined when exporting to ensure the</text>
  <text style="stroke:none;fill:black;font-family:sans-serif;font-size:13;" transform="matrix(1 0 0 1 1289 1989)">design is preserved when submitting to Xcode.</text>
  <text id="template-version" style="stroke:none;fill:black;font-family:sans-serif;font-size:13;text-anchor:end;" transform="matrix(1 0 0 1 3036 1933)">Template v.3.0</text>
  <text style="stroke:none;fill:black;font-family:sans-serif;font-size:13;text-anchor:end;" transform="matrix(1 0 0 1 3036 1951)">Requires Xcode 13 or greater</text>
  <text id="descriptive-name" style="stroke:none;fill:black;font-family:sans-serif;font-size:13;text-anchor:end;" transform="matrix(1 0 0 1 3036 1969)">Generated from mdi.wheelchair</text>
  <text style="stroke:none;fill:black;font-family:sans-serif;font-size:13;text-anchor:end;" transform="matrix(1 0 0 1 3036 1987)">Typeset at 100 points</text>
  <text style="stroke:none;fill:black;font-family:sans-serif;font-size:13;" transform="matrix(1 0 0 1 263 726)">Small</text>
  <text style="stroke:none;fill:black;font-family:sans-serif;font-size:13;" transform="matrix(1 0 0 1 263 1156)">Medium</text>
  <text style="stroke:none;fill:black;font-family:sans-serif;font-size:13;" transform="matrix(1 0 0 1 263 1586)">Large</text>
 </g>
 <g id="Guides">
  <g id="H-reference" style="fill:#27AAE1;stroke:none;" transform="matrix(1 0 0 1 339 696)">
   <path d="M0.993347 0L3.6377 0L29.3282-67.1326L30.0301-67.1326L30.0301-70.459L28.1227-70.459ZM11.6882-24.4797L46.9818-24.4797L46.2311-26.7288L12.4382-26.7288ZM55.1193 0L57.7637 0L30.6381-70.459L29.4327-70.459L29.4327-67.1326Z"/>
  </g>
  <line id="Baseline-S" style="fill:none;stroke:#27AAE1;opacity:1;stroke-width:0.5;" x1="263" x2="3036" y1="696" y2="696"/>
  <line id="Capline-S" style="fill:none;stroke:#27AAE1;opacity:1;stroke-width:0.5;" x1="263" x2="3036" y1="625.541" y2="625.541"/>
  <g id="H-reference" style="fill:#27AAE1;stroke:none;" transform="matrix(1 0 0 1 339 1126)">
   <path d="M0.993347 0L3.6377 0L29.3282-67.1326L30.0301-67.1326L30.0301-70.459L28.1227-70.459ZM11.6882-24.4797L46.9818-24.4797L46.2311-26.7288L12.4382-26.7288ZM55.1193 0L57.7637 0L30.6381-70.459L29.4327-70.459L29.4327-67.1326Z"/>
  </g>
  <line id="Baseline-M" style="fill:none;stroke:#27AAE1;opacity:1;stroke-width:0.5;" x1="263" x2="3036" y1="1126" y2="1126"/>
  <line id="Capline-M" style="fill:none;stroke:#27AAE1;opacity:1;stroke-width:0.5;" x1="263" x2="3036" y1="1055.54" y2="1055.54"/>
  <g id="H-reference" style="fill:#27AAE1;stroke:none;" transform="matrix(1 0 0 1 339 1556)">
   <path d="M0.993347 0L3.6377 0L29.3282-67.1326L30.0301-67.1326L30.0301-70.459L28.1227-70.459ZM11.6882-24.4797L46.9818-24.4797L46.2311-26.7288L12.4382-26.7288ZM55.1193 0L57.7637 0L30.6381-70.459L29.4327-70.459L29.4327-67.1326Z"/>
  </g>
  <line id="Baseline-L" style="fill:none;stroke:#27AAE1;opacity:1;stroke-width:0.5;" x1="263" x2="3036" y1="1556" y2="1556"/>
  <line id="Capline-L" style="fill:none;stroke:#27AAE1;opacity:1;stroke-width:0.5;" x1="263" x2="3036" y1="1485.54" y2="1485.54"/>
  <line id="left-margin-Regular-M" style="fill:none;stroke:#FF3B30;stroke-width:0.5;opacity:1.0;" x1="1417.64" x2="1417.64" y1="1030.78" y2="1150.12"/>
  <line id="right-margin-Regular-M" style="fill:none;stroke:#FF3B30;stroke-width:0.5;opacity:1.0;" x1="1482.05" x2="1482.05" y1="1030.78" y2="1150.12"/>
 </g>
 <g id="Symbols">
  <g id="Black-L" transform="matrix(1 0 0 1 2890.48 1556)">
   <path class="hierarchical-0:secondary SFSymbolsPreview4D4D4D" d="M49.5679-20.2097C49.5679-16.8627 48.5969-13.5867 46.7729-10.7797C44.9499-7.97269 42.3519-5.75469 39.2929-4.39469C36.2349-3.03369 32.8479-2.58969 29.5419-3.11469C26.2359-3.64069 23.1529-5.11269 20.6669-7.35469C18.1809-9.59569 16.3989-12.5097 15.5349-15.7437C14.6719-18.9777 14.7639-22.3927 15.8019-25.5757C16.8389-28.7577 18.7779-31.5707 21.3809-33.6747C23.9849-35.7777 27.1429-37.0817 30.4729-37.4267L28.8919-52.6677C22.6149-52.0167 16.6619-49.5597 11.7529-45.5947C6.84386-41.6287 3.18986-36.3247 1.23386-30.3257C-0.723141-24.3257-0.897141-17.8877 0.730859-11.7907C2.35886-5.69369 5.71986-0.200693 10.4059 4.02531C15.0929 8.25131 20.9049 11.0273 27.1369 12.0183C33.3689 13.0083 39.7549 12.1703 45.5209 9.60631C51.2869 7.04131 56.1849 2.85931 59.6229-2.43269C63.0609-7.72369 64.8909-13.8997 64.8909-20.2097L49.5679-20.2097Z"/>
   <path class="hierarchical-1:primary SFSymbolsPreview212121" d="M65.8609-72.8617L59.2339-43.8207C75.4929-43.4097 82.1029-41.7637 84.7469-36.2797C86.5979-32.3027 86.5979-19.5517 85.0109 1.56431C84.7469 4.99231 81.9709 7.59731 78.6659 7.59731L78.1369 7.59731C74.6999 7.32231 72.0559 4.03231 72.3209 0.467307C73.1139-10.7767 73.6429-24.0757 73.2459-29.4237C70.6379-30.0997 68.1189-30.1277 62.2379-30.1927C60.9649-30.2057 59.5349-30.2217 57.9119-30.2467C56.2579-30.2707 54.6169-30.2507 53.0319-30.2317C45.8749-30.1437 39.8499-30.0687 38.8759-34.2227C37.8659-38.5177 44.4729-62.8497 47.6489-74.0977C48.6069-77.4907 51.7059-79.7987 55.2319-79.7987L60.3279-79.7987C63.9719-79.7987 66.6719-76.4137 65.8609-72.8617ZM28.7699-79.7987L59.4989-79.7987C62.6329-79.7987 65.1739-77.2577 65.1739-74.1237C65.1739-70.9897 62.6329-68.4487 59.4989-68.4487L34.6109-68.4487L30.6339-62.8797C28.8119-60.3297 25.2669-59.7387 22.7169-61.5607C20.1659-63.3827 19.5759-66.9267 21.3969-69.4767L28.7699-79.7987ZM62.5169-84.8457C68.7739-85.2147 73.5489-90.5867 73.1799-96.8437C72.8109-103.102 67.4399-107.876 61.1819-107.508C54.9239-107.139 50.1499-101.768 50.5189-95.5097C50.8869-89.2517 56.2589-84.4777 62.5169-84.8457Z"/>
  </g>
  <g id="Heavy-L" transform="matrix(1 0 0 1 2594.02 1556)">
   <path class="hierarchical-0:secondary SFSymbolsPreview4D4D4D" d="M49.5669-20.2097C49.5669-16.7637 48.5679-13.3917 46.6909-10.5017C44.8129-7.61169 42.1379-5.32869 38.9899-3.92769C35.8409-2.52769 32.3539-2.06969 28.9509-2.61069C25.5469-3.15169 22.3739-4.66769 19.8139-6.97469C17.2549-9.28269 15.4199-12.2827 14.5309-15.6127C13.6419-18.9417 13.7369-22.4577 14.8049-25.7337C15.8729-29.0097 17.8689-31.9067 20.5489-34.0717C23.2299-36.2377 26.4809-37.5787 29.9089-37.9347L28.4339-52.1597C22.2549-51.5187 16.3949-49.1007 11.5629-45.1967C6.73095-41.2937 3.13395-36.0727 1.20795-30.1667C-0.717052-24.2617-0.889052-17.9237 0.712948-11.9227C2.31595-5.92169 5.62395-0.513693 10.2369 3.64631C14.8509 7.80631 20.5709 10.5383 26.7059 11.5133C32.8409 12.4883 39.1269 11.6633 44.8019 9.13931C50.4779 6.61431 55.2999 2.49831 58.6839-2.71069C62.0679-7.91969 63.8689-13.9977 63.8689-20.2097L49.5669-20.2097Z"/>
   <path class="hierarchical-1:primary SFSymbolsPreview212121" d="M65.3499-72.8617L58.7229-43.8207C74.9819-43.4097 81.5919-41.7637 84.2359-36.2797C86.0869-32.3027 86.0869-19.5517 84.4999 1.56431C84.2359 4.99231 81.4599 7.59731 78.1549 7.59731L77.6259 7.59731C74.1889 7.32231 71.5449 4.03231 71.8099 0.467307C72.6029-10.7767 73.1319-24.0757 72.7349-29.4237C70.1269-30.0997 67.6079-30.1277 61.7269-30.1927C60.4539-30.2057 59.0239-30.2217 57.4009-30.2467C55.7469-30.2707 54.1059-30.2507 52.5209-30.2317C45.3639-30.1437 39.3389-30.0687 38.3649-34.2227C37.3549-38.5177 43.9619-62.8497 47.1379-74.0977C48.0959-77.4907 51.1949-79.7987 54.7209-79.7987L59.8169-79.7987C63.4609-79.7987 66.1609-76.4137 65.3499-72.8617ZM28.2589-79.7987L58.9879-79.7987C62.1219-79.7987 64.6629-77.2577 64.6629-74.1237C64.6629-70.9897 62.1219-68.4487 58.9879-68.4487L34.0999-68.4487L30.1229-62.8797C28.3009-60.3297 24.7559-59.7387 22.2059-61.5607C19.6549-63.3827 19.0649-66.9267 20.8859-69.4767L28.2589-79.7987ZM62.0059-84.8457C68.2629-85.2147 73.0379-90.5867 72.6689-96.8437C72.2999-103.102 66.9289-107.876 60.6709-107.508C54.4129-107.139 49.6389-101.768 50.0079-95.5097C50.3759-89.2517 55.7479-84.4777 62.0059-84.8457Z"/>
  </g>
  <g id="Bold-L" transform="matrix(1 0 0 1 2297.57 1556)">
   <path class="hierarchical-0:secondary SFSymbolsPreview4D4D4D" d="M49.5671-20.2097C49.5671-16.6647 48.5391-13.1957 46.6081-10.2237C44.6771-7.25069 41.9251-4.90169 38.6861-3.46069C35.4481-2.02069 31.8601-1.54969 28.3601-2.10569C24.8591-2.66269 21.5941-4.22169 18.9611-6.59569C16.3291-8.96969 14.4411-12.0557 13.5261-15.4807C12.6121-18.9057 12.7101-22.5217 13.8091-25.8917C14.9071-29.2627 16.9601-32.2417 19.7181-34.4697C22.4751-36.6967 25.8191-38.0767 29.3451-38.4427L27.9751-51.6517C21.8951-51.0207 16.1281-48.6407 11.3731-44.7997C6.61712-40.9587 3.07812-35.8207 1.18312-30.0087C-0.711882-24.1967-0.880882-17.9607 0.696118-12.0547C2.27312-6.14869 5.52912-0.826693 10.0691 3.26731C14.6091 7.36031 20.2381 10.0503 26.2751 11.0093C32.3121 11.9683 38.4981 11.1573 44.0841 8.67231C49.6691 6.18831 54.4141 2.13731 57.7441-2.98869C61.0751-8.11469 62.8471-14.0967 62.8471-20.2097L49.5671-20.2097Z"/>
   <path class="hierarchical-1:primary SFSymbolsPreview212121" d="M64.8391-72.8617L58.2121-43.8207C74.4711-43.4097 81.0811-41.7637 83.7251-36.2797C85.5761-32.3027 85.5761-19.5517 83.9891 1.56431C83.7251 4.99231 80.9491 7.59731 77.6441 7.59731L77.1151 7.59731C73.6781 7.32231 71.0341 4.03231 71.2991 0.467307C72.0921-10.7767 72.6211-24.0757 72.2241-29.4237C69.6161-30.0997 67.0971-30.1277 61.2161-30.1927C59.9431-30.2057 58.5131-30.2217 56.8901-30.2467C55.2361-30.2707 53.5951-30.2507 52.0101-30.2317C44.8531-30.1437 38.8281-30.0687 37.8541-34.2227C36.8441-38.5177 43.4511-62.8497 46.6271-74.0977C47.5851-77.4907 50.6841-79.7987 54.2101-79.7987L59.3061-79.7987C62.9501-79.7987 65.6501-76.4137 64.8391-72.8617ZM27.7481-79.7987L58.4771-79.7987C61.6111-79.7987 64.1521-77.2577 64.1521-74.1237C64.1521-70.9897 61.6111-68.4487 58.4771-68.4487L33.5891-68.4487L29.6121-62.8797C27.7901-60.3297 24.2451-59.7387 21.6951-61.5607C19.1441-63.3827 18.5541-66.9267 20.3751-69.4767L27.7481-79.7987ZM61.4951-84.8457C67.7521-85.2147 72.5271-90.5867 72.1581-96.8437C71.7891-103.102 66.4181-107.876 60.1601-107.508C53.9021-107.139 49.1281-101.768 49.4971-95.5097C49.8651-89.2517 55.2371-84.4777 61.4951-84.8457Z"/>
  </g>
  <g id="Semibold-L" transform="matrix(1 0 0 1 2001.11 1556)">
   <path class="hierarchical-0:secondary SFSymbolsPreview4D4D4D" d="M49.5675-20.2097C49.5675-16.5657 48.5105-13.0007 46.5255-9.94569C44.5405-6.88969 41.7125-4.47569 38.3835-2.99469C35.0545-1.51369 31.3675-1.02969 27.7685-1.60169C24.1705-2.17369 20.8145-3.77669 18.1085-6.21669C15.4025-8.65669 13.4625-11.8287 12.5225-15.3487C11.5825-18.8687 11.6825-22.5867 12.8125-26.0507C13.9415-29.5147 16.0515-32.5767 18.8865-34.8667C21.7205-37.1557 25.1575-38.5747 28.7825-38.9507L27.5175-51.1437C21.5355-50.5227 15.8615-48.1817 11.1835-44.4027C6.50445-40.6227 3.02245-35.5687 1.15845-29.8507C-0.706549-24.1327-0.872549-17.9967 0.678451-12.1867C2.23045-6.37569 5.43345-1.13969 9.90045 2.88731C14.3665 6.91531 19.9055 9.56131 25.8445 10.5043C31.7845 11.4483 37.8705 10.6503 43.3655 8.20531C48.8605 5.76131 53.5295 1.77631 56.8055-3.26669C60.0815-8.31069 61.8255-14.1957 61.8255-20.2097L49.5675-20.2097Z"/>
   <path class="hierarchical-1:primary SFSymbolsPreview212121" d="M64.3285-72.8617L57.7015-43.8207C73.9605-43.4097 80.5705-41.7637 83.2145-36.2797C85.0655-32.3027 85.0655-19.5517 83.4785 1.56431C83.2145 4.99231 80.4385 7.59731 77.1335 7.59731L76.6045 7.59731C73.1675 7.32231 70.5235 4.03231 70.7885 0.467307C71.5815-10.7767 72.1105-24.0757 71.7135-29.4237C69.1055-30.0997 66.5865-30.1277 60.7055-30.1927C59.4325-30.2057 58.0025-30.2217 56.3795-30.2467C54.7255-30.2707 53.0845-30.2507 51.4995-30.2317C44.3425-30.1437 38.3175-30.0687 37.3435-34.2227C36.3335-38.5177 42.9405-62.8497 46.1165-74.0977C47.0745-77.4907 50.1735-79.7987 53.6995-79.7987L58.7955-79.7987C62.4395-79.7987 65.1395-76.4137 64.3285-72.8617ZM27.2375-79.7987L57.9665-79.7987C61.1005-79.7987 63.6415-77.2577 63.6415-74.1237C63.6415-70.9897 61.1005-68.4487 57.9665-68.4487L33.0785-68.4487L29.1015-62.8797C27.2795-60.3297 23.7345-59.7387 21.1845-61.5607C18.6335-63.3827 18.0435-66.9267 19.8645-69.4767L27.2375-79.7987ZM60.9845-84.8457C67.2415-85.2147 72.0165-90.5867 71.6475-96.8437C71.2785-103.102 65.9075-107.876 59.6495-107.508C53.3915-107.139 48.6175-101.768 48.9865-95.5097C49.3545-89.2517 54.7265-84.4777 60.9845-84.8457Z"/>
  </g>
  <g id="Medium-L" transform="matrix(1 0 0 1 1704.66 1556)">
   <path class="hierarchical-0:secondary SFSymbolsPreview4D4D4D" d="M49.5677-20.2097C49.5677-16.4677 48.4827-12.8057 46.4437-9.66669C44.4047-6.52869 41.4997-4.04869 38.0807-2.52769C34.6607-1.00669 30.8737-0.509693 27.1777-1.09769C23.4817-1.68469 20.0357-3.33069 17.2557-5.83669C14.4767-8.34269 12.4837-11.6017 11.5177-15.2167C10.5527-18.8327 10.6557-22.6507 11.8157-26.2087C12.9767-29.7667 15.1427-32.9117 18.0547-35.2637C20.9657-37.6157 24.4957-39.0727 28.2187-39.4587L27.0597-50.6357C21.1757-50.0257 15.5947-47.7217 10.9927-44.0047C6.39171-40.2877 2.96671-35.3167 1.13271-29.6917C-0.701287-24.0687-0.864287-18.0327 0.661713-12.3177C2.18771-6.60269 5.33771-1.45269 9.73171 2.50831C14.1247 6.46931 19.5727 9.07231 25.4147 10.0003C31.2567 10.9283 37.2427 10.1433 42.6467 7.73931C48.0517 5.33531 52.6437 1.41531 55.8667-3.54569C59.0887-8.50569 60.8037-14.2947 60.8037-20.2097L49.5677-20.2097Z"/>
   <path class="hierarchical-1:primary SFSymbolsPreview212121" d="M63.8177-72.8617L57.1907-43.8207C73.4497-43.4097 80.0597-41.7637 82.7037-36.2797C84.5547-32.3027 84.5547-19.5517 82.9677 1.56431C82.7037 4.99231 79.9277 7.59731 76.6227 7.59731L76.0937 7.59731C72.6567 7.32231 70.0127 4.03231 70.2777 0.467307C71.0707-10.7767 71.5997-24.0757 71.2027-29.4237C68.5947-30.0997 66.0757-30.1277 60.1947-30.1927C58.9217-30.2057 57.4917-30.2217 55.8687-30.2467C54.2147-30.2707 52.5737-30.2507 50.9887-30.2317C43.8317-30.1437 37.8067-30.0687 36.8327-34.2227C35.8227-38.5177 42.4297-62.8497 45.6057-74.0977C46.5637-77.4907 49.6627-79.7987 53.1887-79.7987L58.2847-79.7987C61.9287-79.7987 64.6287-76.4137 63.8177-72.8617ZM26.7267-79.7987L57.4557-79.7987C60.5897-79.7987 63.1307-77.2577 63.1307-74.1237C63.1307-70.9897 60.5897-68.4487 57.4557-68.4487L32.5677-68.4487L28.5907-62.8797C26.7687-60.3297 23.2237-59.7387 20.6737-61.5607C18.1227-63.3827 17.5327-66.9267 19.3537-69.4767L26.7267-79.7987ZM60.4737-84.8457C66.7307-85.2147 71.5057-90.5867 71.1367-96.8437C70.7677-103.102 65.3967-107.876 59.1387-107.508C52.8807-107.139 48.1067-101.768 48.4757-95.5097C48.8437-89.2517 54.2157-84.4777 60.4737-84.8457Z"/>
  </g>
  <g id="Regular-L" transform="matrix(1 0 0 1 1408.2 1556)">
   <path class="hierarchical-0:secondary SFSymbolsPreview4D4D4D" d="M49.5667-20.2097C49.5667-16.3687 48.4537-12.6097 46.3607-9.38869C44.2677-6.16769 41.2867-3.62269 37.7767-2.06069C34.2677-0.499693 30.3807 0.0103067 26.5867-0.592693C22.7927-1.19569 19.2557-2.88569 16.4027-5.45769C13.5497-8.02969 11.5047-11.3737 10.5137-15.0857C9.52271-18.7967 9.62871-22.7157 10.8197-26.3667C12.0107-30.0187 14.2347-33.2477 17.2227-35.6607C20.2107-38.0747 23.8337-39.5707 27.6547-39.9667L26.6007-50.1277C20.8157-49.5277 15.3277-47.2627 10.8027-43.6077C6.27871-39.9527 2.91071-35.0637 1.10771-29.5337C-0.69529-24.0037-0.85629-18.0697 0.64371-12.4497C2.14471-6.82969 5.24271-1.76569 9.56271 2.12931C13.8827 6.02431 19.2387 8.58331 24.9837 9.49631C30.7277 10.4083 36.6137 9.63631 41.9287 7.27231C47.2427 4.90831 51.7587 1.05431 54.9267-3.82369C58.0957-8.70169 59.7827-14.3927 59.7827-20.2097L49.5667-20.2097Z"/>
   <path class="hierarchical-1:primary SFSymbolsPreview212121" d="M63.3067-72.8617L56.6797-43.8207C72.9387-43.4097 79.5487-41.7637 82.1927-36.2797C84.0437-32.3027 84.0437-19.5517 82.4567 1.56431C82.1927 4.99231 79.4167 7.59731 76.1117 7.59731L75.5827 7.59731C72.1457 7.32231 69.5017 4.03231 69.7667 0.467307C70.5597-10.7767 71.0887-24.0757 70.6917-29.4237C68.0837-30.0997 65.5647-30.1277 59.6837-30.1927C58.4107-30.2057 56.9807-30.2217 55.3577-30.2467C53.7037-30.2707 52.0627-30.2507 50.4777-30.2317C43.3207-30.1437 37.2957-30.0687 36.3217-34.2227C35.3117-38.5177 41.9187-62.8497 45.0947-74.0977C46.0527-77.4907 49.1517-79.7987 52.6777-79.7987L57.7737-79.7987C61.4177-79.7987 64.1177-76.4137 63.3067-72.8617ZM26.2157-79.7987L56.9447-79.7987C60.0787-79.7987 62.6197-77.2577 62.6197-74.1237C62.6197-70.9897 60.0787-68.4487 56.9447-68.4487L32.0567-68.4487L28.0797-62.8797C26.2577-60.3297 22.7127-59.7387 20.1627-61.5607C17.6117-63.3827 17.0217-66.9267 18.8427-69.4767L26.2157-79.7987ZM59.9627-84.8457C66.2197-85.2147 70.9947-90.5867 70.6257-96.8437C70.2567-103.102 64.8857-107.876 58.6277-107.508C52.3697-107.139 47.5957-101.768 47.9647-95.5097C48.3327-89.2517 53.7047-84.4777 59.9627-84.8457Z"/>
  </g>
  <g id="Light-L" transform="matrix(1 0 0 1 1111.83 1556)">
   <path class="hierarchical-0:secondary SFSymbolsPreview4D4D4D" d="M49.5668-20.2097C49.5668-16.2367 48.4148-12.3497 46.2508-9.01769C44.0868-5.68569 41.0028-3.05369 37.3728-1.43869C33.7428 0.175307 29.7228 0.703307 25.7988 0.0793067C21.8758-0.543693 18.2168-2.29169 15.2658-4.95169C12.3158-7.61269 10.1998-11.0717 9.1748-14.9097C8.1498-18.7477 8.2598-22.8007 9.4908-26.5787C10.7228-30.3557 13.0228-33.6947 16.1138-36.1907C19.2038-38.6877 22.9518-40.2347 26.9038-40.6437L25.9908-49.4497C20.3358-48.8637 14.9728-46.6507 10.5498-43.0777C6.1278-39.5057 2.8358-34.7277 1.0738-29.3227C-0.688195-23.9177-0.845195-18.1177 0.620805-12.6257C2.0878-7.13269 5.1158-2.18369 9.3378 1.62331C13.5598 5.43031 18.7948 7.93131 24.4098 8.82331C30.0238 9.71531 35.7768 8.96031 40.9708 6.65031C46.1648 4.33931 50.5778 0.572307 53.6748-4.19469C56.7718-8.96169 58.4208-14.5247 58.4208-20.2097L49.5668-20.2097Z"/>
   <path class="hierarchical-1:primary SFSymbolsPreview212121" d="M62.6258-72.8617L55.9988-43.8207C72.2578-43.4097 78.8678-41.7637 81.5118-36.2797C83.3628-32.3027 83.3628-19.5517 81.7758 1.56431C81.5118 4.99231 78.7358 7.59731 75.4308 7.59731L74.9018 7.59731C71.4648 7.32231 68.8208 4.03231 69.0858 0.467307C69.8788-10.7767 70.4078-24.0757 70.0108-29.4237C67.4028-30.0997 64.8838-30.1277 59.0028-30.1927C57.7298-30.2057 56.2998-30.2217 54.6768-30.2467C53.0228-30.2707 51.3818-30.2507 49.7968-30.2317C42.6398-30.1437 36.6148-30.0687 35.6408-34.2227C34.6308-38.5177 41.2378-62.8497 44.4138-74.0977C45.3718-77.4907 48.4708-79.7987 51.9968-79.7987L57.0928-79.7987C60.7368-79.7987 63.4368-76.4137 62.6258-72.8617ZM25.5348-79.7987L56.2638-79.7987C59.3978-79.7987 61.9388-77.2577 61.9388-74.1237C61.9388-70.9897 59.3978-68.4487 56.2638-68.4487L31.3758-68.4487L27.3988-62.8797C25.5768-60.3297 22.0318-59.7387 19.4818-61.5607C16.9308-63.3827 16.3408-66.9267 18.1618-69.4767L25.5348-79.7987ZM59.2818-84.8457C65.5388-85.2147 70.3138-90.5867 69.9448-96.8437C69.5758-103.102 64.2048-107.876 57.9468-107.508C51.6888-107.139 46.9148-101.768 47.2838-95.5097C47.6518-89.2517 53.0238-84.4777 59.2818-84.8457Z"/>
  </g>
  <g id="Thin-L" transform="matrix(1 0 0 1 815.46 1556)">
   <path class="hierarchical-0:secondary SFSymbolsPreview4D4D4D" d="M49.5672-20.2097C49.5672-16.1057 48.3772-12.0887 46.1412-8.64669C43.9052-5.20469 40.7192-2.48469 36.9692-0.816693C33.2182 0.851307 29.0652 1.39631 25.0112 0.752307C20.9582 0.108307 17.1782-1.69769 14.1292-4.44569C11.0812-7.19469 8.89521-10.7687 7.83621-14.7337C6.77721-18.6997 6.89021-22.8867 8.16321-26.7897C9.43521-30.6917 11.8122-34.1417 15.0052-36.7207C18.1982-39.2997 22.0702-40.8977 26.1532-41.3217L25.3802-48.7727C19.8562-48.1997 14.6172-46.0377 10.2972-42.5477C5.97821-39.0587 2.76221-34.3917 1.04121-29.1117C-0.680786-23.8317-0.834786-18.1667 0.598214-12.8017C2.03121-7.43569 4.98821-2.60169 9.11321 1.11731C13.2372 4.83631 18.3512 7.27931 23.8362 8.15031C29.3202 9.02231 34.9392 8.28531 40.0132 6.02831C45.0872 3.77131 49.3982 0.0913067 52.4232-4.56569C55.4482-9.22269 57.0592-14.6567 57.0592-20.2097L49.5672-20.2097Z"/>
   <path class="hierarchical-1:primary SFSymbolsPreview212121" d="M61.9452-72.8617L55.3182-43.8207C71.5772-43.4097 78.1872-41.7637 80.8312-36.2797C82.6822-32.3027 82.6822-19.5517 81.0952 1.56431C80.8312 4.99231 78.0552 7.59731 74.7502 7.59731L74.2212 7.59731C70.7842 7.32231 68.1402 4.03231 68.4052 0.467307C69.1982-10.7767 69.7272-24.0757 69.3302-29.4237C66.7222-30.0997 64.2032-30.1277 58.3222-30.1927C57.0492-30.2057 55.6192-30.2217 53.9962-30.2467C52.3422-30.2707 50.7012-30.2507 49.1162-30.2317C41.9592-30.1437 35.9342-30.0687 34.9602-34.2227C33.9502-38.5177 40.5572-62.8497 43.7332-74.0977C44.6912-77.4907 47.7902-79.7987 51.3162-79.7987L56.4122-79.7987C60.0562-79.7987 62.7562-76.4137 61.9452-72.8617ZM24.8542-79.7987L55.5832-79.7987C58.7172-79.7987 61.2582-77.2577 61.2582-74.1237C61.2582-70.9897 58.7172-68.4487 55.5832-68.4487L30.6952-68.4487L26.7182-62.8797C24.8962-60.3297 21.3512-59.7387 18.8012-61.5607C16.2502-63.3827 15.6602-66.9267 17.4812-69.4767L24.8542-79.7987ZM58.6012-84.8457C64.8582-85.2147 69.6332-90.5867 69.2642-96.8437C68.8952-103.102 63.5242-107.876 57.2662-107.508C51.0082-107.139 46.2342-101.768 46.6032-95.5097C46.9712-89.2517 52.3432-84.4777 58.6012-84.8457Z"/>
  </g>
  <g id="Ultralight-L" transform="matrix(1 0 0 1 519.089 1556)">
   <path class="hierarchical-0:secondary SFSymbolsPreview4D4D4D" d="M49.5673-20.2097C49.5673-15.9737 48.3393-11.8277 46.0313-8.27569C43.7243-4.72369 40.4353-1.91569 36.5643-0.194693C32.6943 1.52731 28.4073 2.09031 24.2233 1.42531C20.0403 0.760307 16.1383-1.10369 12.9923-3.94069C9.84631-6.77769 7.59031-10.4657 6.49731-14.5577C5.40431-18.6507 5.52131-22.9727 6.83431-27.0007C8.14831-31.0277 10.6003-34.5887 13.8963-37.2507C17.1913-39.9127 21.1883-41.5617 25.4013-41.9987L24.7693-48.0957C19.3763-47.5357 14.2623-45.4257 10.0443-42.0187C5.82731-38.6117 2.68831-34.0547 1.00731-28.9007C-0.673692-23.7457-0.823692-18.2147 0.575308-12.9767C1.97431-7.73869 4.86131-3.01869 8.88831 0.611307C12.9143 4.24231 17.9073 6.62731 23.2613 7.47831C28.6163 8.32931 34.1023 7.60931 39.0563 5.40531C44.0093 3.20231 48.2183-0.390693 51.1713-4.93669C54.1253-9.48269 55.6973-14.7887 55.6973-20.2097L49.5673-20.2097Z"/>
   <path class="hierarchical-1:primary SFSymbolsPreview212121" d="M61.2643-72.8617L54.6373-43.8207C70.8963-43.4097 77.5063-41.7637 80.1503-36.2797C82.0013-32.3027 82.0013-19.5517 80.4143 1.56431C80.1503 4.99231 77.3743 7.59731 74.0693 7.59731L73.5403 7.59731C70.1033 7.32231 67.4593 4.03231 67.7243 0.467307C68.5173-10.7767 69.0463-24.0757 68.6493-29.4237C66.0413-30.0997 63.5223-30.1277 57.6413-30.1927C56.3683-30.2057 54.9383-30.2217 53.3153-30.2467C51.6613-30.2707 50.0203-30.2507 48.4353-30.2317C41.2783-30.1437 35.2533-30.0687 34.2793-34.2227C33.2693-38.5177 39.8763-62.8497 43.0523-74.0977C44.0103-77.4907 47.1093-79.7987 50.6353-79.7987L55.7313-79.7987C59.3753-79.7987 62.0753-76.4137 61.2643-72.8617ZM24.1733-79.7987L54.9023-79.7987C58.0363-79.7987 60.5773-77.2577 60.5773-74.1237C60.5773-70.9897 58.0363-68.4487 54.9023-68.4487L30.0143-68.4487L26.0373-62.8797C24.2153-60.3297 20.6703-59.7387 18.1203-61.5607C15.5693-63.3827 14.9793-66.9267 16.8003-69.4767L24.1733-79.7987ZM57.9203-84.8457C64.1773-85.2147 68.9523-90.5867 68.5833-96.8437C68.2143-103.102 62.8433-107.876 56.5853-107.508C50.3273-107.139 45.5533-101.768 45.9223-95.5097C46.2903-89.2517 51.6623-84.4777 57.9203-84.8457Z"/>
  </g>
  <g id="Black-M" transform="matrix(1 0 0 1 2900.21 1126)">
   <path class="hierarchical-0:secondary SFSymbolsPreview4D4D4D" d="M38.3405-23.586C38.3405-20.991 37.5875-18.452 36.1745-16.276C34.7605-14.1 32.7465-12.381 30.3755-11.326C28.0045-10.272 25.3785-9.92703 22.8165-10.334C20.2535-10.742 17.8635-11.883 15.9365-13.621C14.0095-15.358 12.6275-17.617 11.9585-20.124C11.2885-22.631 11.3605-25.279 12.1655-27.746C12.9695-30.213 14.4715-32.393 16.4905-34.024C18.5085-35.655 20.9565-36.665 23.5375-36.933L22.3125-48.747C17.4465-48.243 12.8315-46.338 9.02651-43.264C5.22051-40.19 2.38851-36.079 0.871515-31.428C-0.644485-26.777-0.779485-21.786 0.482515-17.06C1.74451-12.334 4.34951-8.07503 7.98251-4.79903C11.6155-1.52303 16.1205 0.628973 20.9525 1.39697C25.7835 2.16397 30.7335 1.51497 35.2035-0.473027C39.6725-2.46103 43.4695-5.70303 46.1345-9.80503C48.7995-13.907 50.2185-18.694 50.2185-23.586L38.3405-23.586Z"/>
   <path class="hierarchical-1:primary SFSymbolsPreview212121" d="M50.9705-64.401L45.8335-41.889C58.4375-41.57 63.5615-40.295 65.6105-36.043C67.0455-32.961 67.0455-23.076 65.8155-6.70703C65.6105-4.05003 63.4585-2.03003 60.8965-2.03003L60.4875-2.03003C57.8225-2.24303 55.7735-4.79403 55.9785-7.55803C56.5925-16.273 57.0025-26.583 56.6955-30.729C54.6735-31.253 52.7215-31.274 48.1625-31.324C47.1755-31.335 46.0665-31.347 44.8085-31.366C43.5265-31.386 42.2545-31.37 41.0265-31.355C35.4775-31.287 30.8065-31.229 30.0515-34.449C29.2685-37.778 34.3915-56.641 36.8525-65.36C37.5955-67.99 39.9975-69.779 42.7305-69.779L46.6815-69.779C49.5065-69.779 51.5995-67.155 50.9705-64.401ZM22.2185-69.779L46.0385-69.779C48.4685-69.779 50.4385-67.81 50.4385-65.38C50.4385-62.95 48.4685-60.981 46.0385-60.981L26.7465-60.981L23.6625-56.664C22.2505-54.687 19.5025-54.229 17.5255-55.641C15.5485-57.053 15.0905-59.801 16.5025-61.778L22.2185-69.779ZM48.3785-73.692C53.2295-73.977 56.9295-78.142 56.6445-82.992C56.3585-87.843 52.1945-91.544 47.3435-91.259C42.4925-90.973 38.7915-86.809 39.0775-81.958C39.3625-77.107 43.5275-73.406 48.3785-73.692Z"/>
  </g>
  <g id="Heavy-M" transform="matrix(1 0 0 1 2603.69 1126)">
   <path class="hierarchical-0:secondary SFSymbolsPreview4D4D4D" d="M38.3398-23.586C38.3398-20.915 37.5658-18.301 36.1108-16.061C34.6548-13.82 32.5818-12.05 30.1408-10.964C27.6998-9.87903 24.9968-9.52403 22.3588-9.94303C19.7198-10.363 17.2598-11.538 15.2758-13.327C13.2918-15.116 11.8688-17.441 11.1798-20.022C10.4908-22.603 10.5648-25.329 11.3928-27.868C12.2208-30.408 13.7678-32.653 15.8458-34.332C17.9238-36.011 20.4438-37.051 23.1008-37.326L21.9578-48.354C17.1678-47.857 12.6248-45.982 8.87879-42.956C5.13379-39.93 2.34579-35.883 0.852786-31.305C-0.640214-26.727-0.773214-21.814 0.468786-17.162C1.71079-12.51 4.27579-8.31803 7.85179-5.09303C11.4288-1.86803 15.8628 0.249973 20.6188 1.00597C25.3738 1.76097 30.2468 1.12197 34.6468-0.835027C39.0458-2.79203 42.7838-5.98303 45.4068-10.021C48.0308-14.059 49.4268-18.771 49.4268-23.586L38.3398-23.586Z"/>
   <path class="hierarchical-1:primary SFSymbolsPreview212121" d="M50.5748-64.401L45.4378-41.889C58.0418-41.57 63.1658-40.295 65.2148-36.043C66.6498-32.961 66.6498-23.076 65.4198-6.70703C65.2148-4.05003 63.0628-2.03003 60.5008-2.03003L60.0918-2.03003C57.4268-2.24303 55.3778-4.79403 55.5828-7.55803C56.1968-16.273 56.6068-26.583 56.2998-30.729C54.2778-31.253 52.3258-31.274 47.7668-31.324C46.7798-31.335 45.6708-31.347 44.4128-31.366C43.1308-31.386 41.8588-31.37 40.6308-31.355C35.0818-31.287 30.4108-31.229 29.6558-34.449C28.8728-37.778 33.9958-56.641 36.4568-65.36C37.1998-67.99 39.6018-69.779 42.3348-69.779L46.2858-69.779C49.1108-69.779 51.2038-67.155 50.5748-64.401ZM21.8228-69.779L45.6428-69.779C48.0728-69.779 50.0428-67.81 50.0428-65.38C50.0428-62.95 48.0728-60.981 45.6428-60.981L26.3508-60.981L23.2668-56.664C21.8548-54.687 19.1068-54.229 17.1298-55.641C15.1528-57.053 14.6948-59.801 16.1068-61.778L21.8228-69.779ZM47.9828-73.692C52.8338-73.977 56.5338-78.142 56.2488-82.992C55.9628-87.843 51.7988-91.544 46.9478-91.259C42.0968-90.973 38.3958-86.809 38.6818-81.958C38.9668-77.107 43.1318-73.406 47.9828-73.692Z"/>
  </g>
  <g id="Bold-M" transform="matrix(1 0 0 1 2307.18 1126)">
   <path class="hierarchical-0:secondary SFSymbolsPreview4D4D4D" d="M38.34-23.586C38.34-20.838 37.544-18.149 36.047-15.845C34.55-13.54 32.417-11.72 29.906-10.603C27.395-9.48603 24.614-9.12103 21.9-9.55203C19.187-9.98403 16.656-11.192 14.615-13.033C12.574-14.873 11.111-17.265 10.402-19.92C9.69299-22.575 9.76899-25.379 10.621-27.991C11.473-30.604 13.064-32.913 15.201-34.64C17.339-36.367 19.931-37.437 22.665-37.72L21.603-47.96C16.889-47.471 12.418-45.626 8.73199-42.648C5.04599-39.67 2.30199-35.688 0.832986-31.182C-0.636014-26.677-0.767014-21.843 0.455986-17.264C1.67799-12.686 4.20199-8.56003 7.72099-5.38703C11.241-2.21403 15.605-0.129027 20.285 0.614973C24.965 1.35797 29.76 0.728973 34.09-1.19703C38.419-3.12303 42.098-6.26303 44.679-10.237C47.261-14.21 48.635-18.847 48.635-23.586L38.34-23.586Z"/>
   <path class="hierarchical-1:primary SFSymbolsPreview212121" d="M50.179-64.401L45.042-41.889C57.646-41.57 62.77-40.295 64.819-36.043C66.254-32.961 66.254-23.076 65.024-6.70703C64.819-4.05003 62.667-2.03003 60.105-2.03003L59.696-2.03003C57.031-2.24303 54.982-4.79403 55.187-7.55803C55.801-16.273 56.211-26.583 55.904-30.729C53.882-31.253 51.93-31.274 47.371-31.324C46.384-31.335 45.275-31.347 44.017-31.366C42.735-31.386 41.463-31.37 40.235-31.355C34.686-31.287 30.015-31.229 29.26-34.449C28.477-37.778 33.6-56.641 36.061-65.36C36.804-67.99 39.206-69.779 41.939-69.779L45.89-69.779C48.715-69.779 50.808-67.155 50.179-64.401ZM21.427-69.779L45.247-69.779C47.677-69.779 49.647-67.81 49.647-65.38C49.647-62.95 47.677-60.981 45.247-60.981L25.955-60.981L22.871-56.664C21.459-54.687 18.711-54.229 16.734-55.641C14.757-57.053 14.299-59.801 15.711-61.778L21.427-69.779ZM47.587-73.692C52.438-73.977 56.138-78.142 55.853-82.992C55.567-87.843 51.403-91.544 46.552-91.259C41.701-90.973 38-86.809 38.286-81.958C38.571-77.107 42.736-73.406 47.587-73.692Z"/>
  </g>
  <g id="Semibold-M" transform="matrix(1 0 0 1 2010.67 1126)">
   <path class="hierarchical-0:secondary SFSymbolsPreview4D4D4D" d="M38.3399-23.586C38.3399-20.762 37.5209-17.998 35.9829-15.629C34.4439-13.261 32.2509-11.389 29.6709-10.241C27.0899-9.09303 24.2319-8.71803 21.4419-9.16103C18.6529-9.60503 16.0519-10.847 13.9539-12.739C11.8559-14.63 10.3519-17.089 9.62292-19.818C8.89392-22.547 8.97292-25.428 9.84792-28.114C10.7239-30.799 12.3589-33.173 14.5559-34.948C16.7539-36.723 19.4179-37.823 22.2279-38.114L21.2469-47.566C16.6099-47.085 12.2119-45.27 8.58492-42.34C4.95792-39.41 2.25892-35.492 0.81392-31.06C-0.63108-26.627-0.76108-21.871 0.44192-17.366C1.64492-12.862 4.12792-8.80303 7.59092-5.68103C11.0529-2.55903 15.3469-0.508027 19.9509 0.223973C24.5549 0.954973 29.2729 0.335973 33.5329-1.55903C37.7929-3.45303 41.4119-6.54303 43.9509-10.452C46.4909-14.362 47.8429-18.924 47.8429-23.586L38.3399-23.586Z"/>
   <path class="hierarchical-1:primary SFSymbolsPreview212121" d="M49.7829-64.401L44.6459-41.889C57.2499-41.57 62.3739-40.295 64.4229-36.043C65.8579-32.961 65.8579-23.076 64.6279-6.70703C64.4229-4.05003 62.2709-2.03003 59.7089-2.03003L59.2999-2.03003C56.6349-2.24303 54.5859-4.79403 54.7909-7.55803C55.4049-16.273 55.8149-26.583 55.5079-30.729C53.4859-31.253 51.5339-31.274 46.9749-31.324C45.9879-31.335 44.8789-31.347 43.6209-31.366C42.3389-31.386 41.0669-31.37 39.8389-31.355C34.2899-31.287 29.6189-31.229 28.8639-34.449C28.0809-37.778 33.2039-56.641 35.6649-65.36C36.4079-67.99 38.8099-69.779 41.5429-69.779L45.4939-69.779C48.3189-69.779 50.4119-67.155 49.7829-64.401ZM21.0309-69.779L44.8509-69.779C47.2809-69.779 49.2509-67.81 49.2509-65.38C49.2509-62.95 47.2809-60.981 44.8509-60.981L25.5589-60.981L22.4749-56.664C21.0629-54.687 18.3149-54.229 16.3379-55.641C14.3609-57.053 13.9029-59.801 15.3149-61.778L21.0309-69.779ZM47.1909-73.692C52.0419-73.977 55.7419-78.142 55.4569-82.992C55.1709-87.843 51.0069-91.544 46.1559-91.259C41.3049-90.973 37.6039-86.809 37.8899-81.958C38.1749-77.107 42.3399-73.406 47.1909-73.692Z"/>
  </g>
  <g id="Medium-M" transform="matrix(1 0 0 1 1714.16 1126)">
   <path class="hierarchical-0:secondary SFSymbolsPreview4D4D4D" d="M38.3397-23.586C38.3397-20.685 37.4987-17.846 35.9187-15.413C34.3377-12.981 32.0857-11.058 29.4357-9.87903C26.7847-8.70003 23.8487-8.31503 20.9837-8.77003C18.1187-9.22603 15.4467-10.502 13.2927-12.444C11.1377-14.387 9.59271-16.913 8.84471-19.716C8.09571-22.519 8.17571-25.478 9.07571-28.237C9.97471-30.995 11.6547-33.433 13.9117-35.256C16.1677-37.079 18.9047-38.209 21.7907-38.508L20.8917-47.172C16.3307-46.699 12.0047-44.914 8.43771-42.032C4.87071-39.151 2.21571-35.297 0.793713-30.937C-0.627287-26.577-0.754287-21.899 0.428713-17.469C1.61171-13.038 4.05371-9.04603 7.45971-5.97503C10.8647-2.90403 15.0877-0.887027 19.6167-0.167027C24.1457 0.551973 28.7857-0.0570275 32.9757-1.92003C37.1657-3.78403 40.7247-6.82303 43.2227-10.668C45.7207-14.513 47.0507-19.001 47.0507-23.586L38.3397-23.586Z"/>
   <path class="hierarchical-1:primary SFSymbolsPreview212121" d="M49.3867-64.401L44.2497-41.889C56.8537-41.57 61.9777-40.295 64.0267-36.043C65.4617-32.961 65.4617-23.076 64.2317-6.70703C64.0267-4.05003 61.8747-2.03003 59.3127-2.03003L58.9037-2.03003C56.2387-2.24303 54.1897-4.79403 54.3947-7.55803C55.0087-16.273 55.4187-26.583 55.1117-30.729C53.0897-31.253 51.1377-31.274 46.5787-31.324C45.5917-31.335 44.4827-31.347 43.2247-31.366C41.9427-31.386 40.6707-31.37 39.4427-31.355C33.8937-31.287 29.2227-31.229 28.4677-34.449C27.6847-37.778 32.8077-56.641 35.2687-65.36C36.0117-67.99 38.4137-69.779 41.1467-69.779L45.0977-69.779C47.9227-69.779 50.0157-67.155 49.3867-64.401ZM20.6347-69.779L44.4547-69.779C46.8847-69.779 48.8547-67.81 48.8547-65.38C48.8547-62.95 46.8847-60.981 44.4547-60.981L25.1627-60.981L22.0787-56.664C20.6667-54.687 17.9187-54.229 15.9417-55.641C13.9647-57.053 13.5067-59.801 14.9187-61.778L20.6347-69.779ZM46.7947-73.692C51.6457-73.977 55.3457-78.142 55.0607-82.992C54.7747-87.843 50.6107-91.544 45.7597-91.259C40.9087-90.973 37.2077-86.809 37.4937-81.958C37.7787-77.107 41.9437-73.406 46.7947-73.692Z"/>
  </g>
  <g id="Regular-M" transform="matrix(1 0 0 1 1417.64 1126)">
   <path class="hierarchical-0:secondary SFSymbolsPreview4D4D4D" d="M38.34-23.586C38.34-20.608 37.477-17.695 35.855-15.198C34.233-12.701 31.921-10.728 29.201-9.51703C26.48-8.30703 23.467-7.91203 20.526-8.37903C17.585-8.84603 14.843-10.156 12.632-12.15C10.42-14.144 8.83398-16.737 8.06598-19.614C7.29798-22.49 7.37998-25.528 8.30298-28.359C9.22598-31.19 10.95-33.693 13.267-35.564C15.583-37.435 18.392-38.594 21.354-38.902L20.537-46.778C16.052-46.313 11.798-44.557 8.29098-41.724C4.78298-38.891 2.17198-35.101 0.774984-30.814C-0.623016-26.527-0.748016-21.927 0.414984-17.571C1.57898-13.214 3.97998-9.28903 7.32898-6.26903C10.678-3.25003 14.83-1.26603 19.283-0.558027C23.736 0.148973 28.299-0.450027 32.419-2.28203C36.539-4.11503 40.039-7.10303 42.495-10.884C44.952-14.665 46.259-19.077 46.259-23.586L38.34-23.586Z"/>
   <path class="hierarchical-1:primary SFSymbolsPreview212121" d="M48.991-64.401L43.854-41.889C56.458-41.57 61.582-40.295 63.631-36.043C65.066-32.961 65.066-23.076 63.836-6.70703C63.631-4.05003 61.479-2.03003 58.917-2.03003L58.508-2.03003C55.843-2.24303 53.794-4.79403 53.999-7.55803C54.613-16.273 55.023-26.583 54.716-30.729C52.694-31.253 50.742-31.274 46.183-31.324C45.196-31.335 44.087-31.347 42.829-31.366C41.547-31.386 40.275-31.37 39.047-31.355C33.498-31.287 28.827-31.229 28.072-34.449C27.289-37.778 32.412-56.641 34.873-65.36C35.616-67.99 38.018-69.779 40.751-69.779L44.702-69.779C47.527-69.779 49.62-67.155 48.991-64.401ZM20.239-69.779L44.059-69.779C46.489-69.779 48.459-67.81 48.459-65.38C48.459-62.95 46.489-60.981 44.059-60.981L24.767-60.981L21.683-56.664C20.271-54.687 17.523-54.229 15.546-55.641C13.569-57.053 13.111-59.801 14.523-61.778L20.239-69.779ZM46.399-73.692C51.25-73.977 54.95-78.142 54.665-82.992C54.379-87.843 50.215-91.544 45.364-91.259C40.513-90.973 36.812-86.809 37.098-81.958C37.383-77.107 41.548-73.406 46.399-73.692Z"/>
  </g>
  <g id="Light-M" transform="matrix(1 0 0 1 1121.19 1126)">
   <path class="hierarchical-0:secondary SFSymbolsPreview4D4D4D" d="M38.3404-23.586C38.3404-20.506 37.4474-17.493 35.7694-14.91C34.0924-12.327 31.7014-10.287 28.8874-9.03503C26.0734-7.78303 22.9574-7.37403 19.9154-7.85803C16.8744-8.34103 14.0374-9.69603 11.7504-11.758C9.46341-13.821 7.82341-16.502 7.02841-19.477C6.23341-22.453 6.31941-25.595 7.27341-28.523C8.22841-31.451 10.0114-34.039 12.4074-35.975C14.8034-37.91 17.7084-39.109 20.7724-39.427L20.0644-46.253C15.6804-45.798 11.5234-44.083 8.09441-41.313C4.66641-38.544 2.11541-34.84 0.74941-30.65C-0.61759-26.461-0.73959-21.965 0.39741-17.707C1.53441-13.449 3.88141-9.61203 7.15441-6.66103C10.4274-3.71003 14.4864-1.77103 18.8384-1.08003C23.1904-0.388027 27.6504-0.973027 31.6764-2.76403C35.7034-4.55603 39.1244-7.47603 41.5254-11.171C43.9254-14.867 45.2034-19.179 45.2034-23.586L38.3404-23.586Z"/>
   <path class="hierarchical-1:primary SFSymbolsPreview212121" d="M48.4634-64.401L43.3264-41.889C55.9304-41.57 61.0544-40.295 63.1034-36.043C64.5384-32.961 64.5384-23.076 63.3084-6.70703C63.1034-4.05003 60.9514-2.03003 58.3894-2.03003L57.9804-2.03003C55.3154-2.24303 53.2664-4.79403 53.4714-7.55803C54.0854-16.273 54.4954-26.583 54.1884-30.729C52.1664-31.253 50.2144-31.274 45.6554-31.324C44.6684-31.335 43.5594-31.347 42.3014-31.366C41.0194-31.386 39.7474-31.37 38.5194-31.355C32.9704-31.287 28.2994-31.229 27.5444-34.449C26.7614-37.778 31.8844-56.641 34.3454-65.36C35.0884-67.99 37.4904-69.779 40.2234-69.779L44.1744-69.779C46.9994-69.779 49.0924-67.155 48.4634-64.401ZM19.7114-69.779L43.5314-69.779C45.9614-69.779 47.9314-67.81 47.9314-65.38C47.9314-62.95 45.9614-60.981 43.5314-60.981L24.2394-60.981L21.1554-56.664C19.7434-54.687 16.9954-54.229 15.0184-55.641C13.0414-57.053 12.5834-59.801 13.9954-61.778L19.7114-69.779ZM45.8714-73.692C50.7224-73.977 54.4224-78.142 54.1374-82.992C53.8514-87.843 49.6874-91.544 44.8364-91.259C39.9854-90.973 36.2844-86.809 36.5704-81.958C36.8554-77.107 41.0204-73.406 45.8714-73.692Z"/>
  </g>
  <g id="Thin-M" transform="matrix(1 0 0 1 824.748 1126)">
   <path class="hierarchical-0:secondary SFSymbolsPreview4D4D4D" d="M38.3402-23.586C38.3402-20.404 37.4182-17.291 35.6842-14.623C33.9512-11.954 31.4812-9.84603 28.5742-8.55303C25.6662-7.26003 22.4472-6.83703 19.3042-7.33603C16.1622-7.83603 13.2322-9.23603 10.8692-11.366C8.50519-13.497 6.81119-16.267 5.99019-19.341C5.16919-22.415 5.25719-25.662 6.24419-28.687C7.23019-31.712 9.07219-34.386 11.5472-36.385C14.0222-38.385 17.0242-39.624 20.1892-39.952L19.5902-45.728C15.3082-45.284 11.2472-43.608 7.89819-40.903C4.54919-38.198 2.05719-34.58 0.722186-30.487C-0.611814-26.394-0.730814-22.002 0.379186-17.843C1.49019-13.684 3.78319-9.93603 6.98019-7.05303C10.1772-4.17103 14.1412-2.27703 18.3932-1.60103C22.6442-0.926027 27.0012-1.49703 30.9342-3.24703C34.8672-4.99603 38.2092-7.84903 40.5542-11.459C42.8992-15.069 44.1472-19.281 44.1472-23.586L38.3402-23.586Z"/>
   <path class="hierarchical-1:primary SFSymbolsPreview212121" d="M47.9352-64.401L42.7982-41.889C55.4022-41.57 60.5262-40.295 62.5752-36.043C64.0102-32.961 64.0102-23.076 62.7802-6.70703C62.5752-4.05003 60.4232-2.03003 57.8612-2.03003L57.4522-2.03003C54.7872-2.24303 52.7382-4.79403 52.9432-7.55803C53.5572-16.273 53.9672-26.583 53.6602-30.729C51.6382-31.253 49.6862-31.274 45.1272-31.324C44.1402-31.335 43.0312-31.347 41.7732-31.366C40.4912-31.386 39.2192-31.37 37.9912-31.355C32.4422-31.287 27.7712-31.229 27.0162-34.449C26.2332-37.778 31.3562-56.641 33.8172-65.36C34.5602-67.99 36.9622-69.779 39.6952-69.779L43.6462-69.779C46.4712-69.779 48.5642-67.155 47.9352-64.401ZM19.1832-69.779L43.0032-69.779C45.4332-69.779 47.4032-67.81 47.4032-65.38C47.4032-62.95 45.4332-60.981 43.0032-60.981L23.7112-60.981L20.6272-56.664C19.2152-54.687 16.4672-54.229 14.4902-55.641C12.5132-57.053 12.0552-59.801 13.4672-61.778L19.1832-69.779ZM45.3432-73.692C50.1942-73.977 53.8942-78.142 53.6092-82.992C53.3232-87.843 49.1592-91.544 44.3082-91.259C39.4572-90.973 35.7562-86.809 36.0422-81.958C36.3272-77.107 40.4922-73.406 45.3432-73.692Z"/>
  </g>
  <g id="Ultralight-M" transform="matrix(1 0 0 1 528.301 1126)">
   <path class="hierarchical-0:secondary SFSymbolsPreview4D4D4D" d="M38.3403-23.586C38.3403-20.302 37.3883-17.089 35.5993-14.335C33.8103-11.581 31.2613-9.40503 28.2603-8.07003C25.2603-6.73603 21.9373-6.30003 18.6933-6.81503C15.4503-7.33003 12.4263-8.77503 9.98728-10.974C7.54828-13.173 5.79928-16.032 4.95228-19.205C4.10528-22.378 4.19628-25.728 5.21428-28.85C6.23228-31.972 8.13328-34.732 10.6883-36.796C13.2423-38.86 16.3403-40.138 19.6073-40.477L19.1173-45.203C14.9363-44.769 10.9713-43.133 7.70228-40.492C4.43328-37.851 1.99928-34.319 0.696276-30.323C-0.605724-26.327-0.722724-22.04 0.361276-17.979C1.44628-13.919 3.68428-10.26 6.80528-7.44503C9.92728-4.63103 13.7973-2.78203 17.9483-2.12303C22.0983-1.46303 26.3513-2.02103 30.1913-3.72903C34.0313-5.43703 37.2943-8.22203 39.5833-11.747C41.8733-15.271 43.0913-19.383 43.0913-23.586L38.3403-23.586Z"/>
   <path class="hierarchical-1:primary SFSymbolsPreview212121" d="M47.4073-64.401L42.2703-41.889C54.8743-41.57 59.9983-40.295 62.0473-36.043C63.4823-32.961 63.4823-23.076 62.2523-6.70703C62.0473-4.05003 59.8953-2.03003 57.3333-2.03003L56.9243-2.03003C54.2593-2.24303 52.2103-4.79403 52.4153-7.55803C53.0293-16.273 53.4393-26.583 53.1323-30.729C51.1103-31.253 49.1583-31.274 44.5993-31.324C43.6123-31.335 42.5033-31.347 41.2453-31.366C39.9633-31.386 38.6913-31.37 37.4633-31.355C31.9143-31.287 27.2433-31.229 26.4883-34.449C25.7053-37.778 30.8283-56.641 33.2893-65.36C34.0323-67.99 36.4343-69.779 39.1673-69.779L43.1183-69.779C45.9433-69.779 48.0363-67.155 47.4073-64.401ZM18.6553-69.779L42.4753-69.779C44.9053-69.779 46.8753-67.81 46.8753-65.38C46.8753-62.95 44.9053-60.981 42.4753-60.981L23.1833-60.981L20.0993-56.664C18.6873-54.687 15.9393-54.229 13.9623-55.641C11.9853-57.053 11.5273-59.801 12.9393-61.778L18.6553-69.779ZM44.8153-73.692C49.6663-73.977 53.3663-78.142 53.0813-82.992C52.7953-87.843 48.6313-91.544 43.7803-91.259C38.9293-90.973 35.2283-86.809 35.5143-81.958C35.7993-77.107 39.9643-73.406 44.8153-73.692Z"/>
  </g>
  <g id="Black-S" transform="matrix(1 0 0 1 2907.49 696)">
   <path class="hierarchical-0:secondary SFSymbolsPreview4D4D4D" d="M29.9393-26.1133C29.9393-24.0823 29.3503-22.0933 28.2433-20.3903C27.1363-18.6863 25.5593-17.3403 23.7033-16.5143C21.8463-15.6883 19.7913-15.4183 17.7843-15.7373C15.7773-16.0563 13.9063-16.9503 12.3973-18.3103C10.8883-19.6713 9.80631-21.4403 9.28231-23.4033C8.75831-25.3663 8.81431-27.4393 9.44431-29.3703C10.0743-31.3023 11.2503-33.0093 12.8313-34.2863C14.4113-35.5633 16.3283-36.3543 18.3493-36.5643L17.3893-45.8153C13.5803-45.4193 9.96631-43.9283 6.98631-41.5213C4.00731-39.1143 1.78931-35.8953 0.602312-32.2533C-0.585688-28.6123-0.691688-24.7043 0.296312-21.0033C1.28531-17.3033 3.32531-13.9683 6.16931-11.4033C9.01431-8.83829 12.5413-7.15329 16.3243-6.55229C20.1073-5.95129 23.9833-6.45929 27.4833-8.01629C30.9833-9.57329 33.9563-12.1113 36.0433-15.3233C38.1293-18.5353 39.2403-22.2833 39.2403-26.1133L29.9393-26.1133Z"/>
   <path class="hierarchical-1:primary SFSymbolsPreview212121" d="M39.8293-58.0723L35.8063-40.4453C45.6753-40.1953 49.6873-39.1963 51.2923-35.8673C52.4163-33.4543 52.4163-25.7143 51.4533-12.8973C51.2923-10.8163 49.6073-9.23529 47.6013-9.23529L47.2803-9.23529C45.1943-9.40229 43.5893-11.3993 43.7503-13.5633C44.2313-20.3873 44.5523-28.4603 44.3113-31.7063C42.7283-32.1163 41.2003-32.1333 37.6303-32.1723C36.8573-32.1813 35.9893-32.1903 35.0043-32.2053C34.0003-32.2203 33.0043-32.2083 32.0423-32.1963C27.6983-32.1433 24.0413-32.0983 23.4493-34.6193C22.8363-37.2263 26.8473-51.9953 28.7753-58.8223C29.3563-60.8823 31.2373-62.2833 33.3773-62.2833L36.4713-62.2833C38.6823-62.2833 40.3213-60.2283 39.8293-58.0723ZM17.3163-62.2833L35.9673-62.2833C37.8703-62.2833 39.4123-60.7403 39.4123-58.8383C39.4123-56.9353 37.8703-55.3933 35.9673-55.3933L20.8613-55.3933L18.4473-52.0133C17.3413-50.4653 15.1903-50.1063 13.6413-51.2123C12.0933-52.3183 11.7353-54.4693 12.8413-56.0173L17.3163-62.2833ZM37.7993-65.3463C41.5973-65.5703 44.4953-68.8303 44.2713-72.6293C44.0483-76.4273 40.7873-79.3253 36.9893-79.1013C33.1913-78.8773 30.2933-75.6173 30.5163-71.8183C30.7403-68.0203 34.0013-65.1223 37.7993-65.3463Z"/>
  </g>
  <g id="Heavy-S" transform="matrix(1 0 0 1 2610.93 696)">
   <path class="hierarchical-0:secondary SFSymbolsPreview4D4D4D" d="M29.9391-26.1133C29.9391-24.0223 29.3331-21.9753 28.1931-20.2213C27.0541-18.4673 25.4301-17.0813 23.5191-16.2313C21.6081-15.3803 19.4911-15.1033 17.4251-15.4313C15.3601-15.7593 13.4331-16.6793 11.8801-18.0803C10.3261-19.4813 9.21206-21.3023 8.67306-23.3233C8.13306-25.3443 8.19106-27.4783 8.83906-29.4663C9.48806-31.4553 10.6991-33.2133 12.3261-34.5273C13.9531-35.8423 15.9261-36.6563 18.0071-36.8723L17.1111-45.5063C13.3611-45.1173 9.80406-43.6493 6.87106-41.2803C3.93806-38.9113 1.75506-35.7423 0.586056-32.1573C-0.581944-28.5733-0.686944-24.7263 0.286056-21.0833C1.25906-17.4413 3.26706-14.1583 6.06706-11.6333C8.86706-9.10829 12.3391-7.45029 16.0631-6.85829C19.7871-6.26629 23.6021-6.76729 27.0471-8.29929C30.4921-9.83229 33.4191-12.3303 35.4731-15.4923C37.5271-18.6533 38.6201-22.3433 38.6201-26.1133L29.9391-26.1133Z"/>
   <path class="hierarchical-1:primary SFSymbolsPreview212121" d="M39.5191-58.0723L35.4961-40.4453C45.3651-40.1953 49.3771-39.1963 50.9821-35.8673C52.1061-33.4543 52.1061-25.7143 51.1431-12.8973C50.9821-10.8163 49.2971-9.23529 47.2911-9.23529L46.9701-9.23529C44.8841-9.40229 43.2791-11.3993 43.4401-13.5633C43.9211-20.3873 44.2421-28.4603 44.0011-31.7063C42.4181-32.1163 40.8901-32.1333 37.3201-32.1723C36.5471-32.1813 35.6791-32.1903 34.6941-32.2053C33.6901-32.2203 32.6941-32.2083 31.7321-32.1963C27.3881-32.1433 23.7311-32.0983 23.1391-34.6193C22.5261-37.2263 26.5371-51.9953 28.4651-58.8223C29.0461-60.8823 30.9271-62.2833 33.0671-62.2833L36.1611-62.2833C38.3721-62.2833 40.0111-60.2283 39.5191-58.0723ZM17.0061-62.2833L35.6571-62.2833C37.5601-62.2833 39.1021-60.7403 39.1021-58.8383C39.1021-56.9353 37.5601-55.3933 35.6571-55.3933L20.5511-55.3933L18.1371-52.0133C17.0311-50.4653 14.8801-50.1063 13.3311-51.2123C11.7831-52.3183 11.4251-54.4693 12.5311-56.0173L17.0061-62.2833ZM37.4891-65.3463C41.2871-65.5703 44.1851-68.8303 43.9611-72.6293C43.7381-76.4273 40.4771-79.3253 36.6791-79.1013C32.8811-78.8773 29.9831-75.6173 30.2061-71.8183C30.4301-68.0203 33.6911-65.1223 37.4891-65.3463Z"/>
  </g>
  <g id="Bold-S" transform="matrix(1 0 0 1 2314.37 696)">
   <path class="hierarchical-0:secondary SFSymbolsPreview4D4D4D" d="M29.9392-26.1133C29.9392-23.9623 29.3152-21.8563 28.1432-20.0523C26.9712-18.2483 25.3012-16.8223 23.3352-15.9473C21.3692-15.0733 19.1922-14.7873 17.0672-15.1253C14.9422-15.4633 12.9602-16.4093 11.3622-17.8503C9.76421-19.2913 8.61821-21.1643 8.06321-23.2433C7.50821-25.3223 7.56821-27.5173 8.23521-29.5623C8.90221-31.6083 10.1472-33.4163 11.8212-34.7683C13.4952-36.1213 15.5252-36.9583 17.6652-37.1803L16.8332-45.1983C13.1432-44.8153 9.64221-43.3703 6.75621-41.0393C3.87021-38.7073 1.72121-35.5893 0.571207-32.0613C-0.578793-28.5343-0.681793-24.7483 0.275207-21.1633C1.23321-17.5783 3.20921-14.3483 5.96421-11.8633C8.72021-9.37929 12.1372-7.74629 15.8022-7.16429C19.4662-6.58229 23.2212-7.07429 26.6112-8.58229C30.0012-10.0913 32.8812-12.5493 34.9032-15.6613C36.9242-18.7723 38.0002-22.4033 38.0002-26.1133L29.9392-26.1133Z"/>
   <path class="hierarchical-1:primary SFSymbolsPreview212121" d="M39.2092-58.0723L35.1862-40.4453C45.0552-40.1953 49.0672-39.1963 50.6722-35.8673C51.7962-33.4543 51.7962-25.7143 50.8332-12.8973C50.6722-10.8163 48.9872-9.23529 46.9812-9.23529L46.6602-9.23529C44.5742-9.40229 42.9692-11.3993 43.1302-13.5633C43.6112-20.3873 43.9322-28.4603 43.6912-31.7063C42.1082-32.1163 40.5802-32.1333 37.0102-32.1723C36.2372-32.1813 35.3692-32.1903 34.3842-32.2053C33.3802-32.2203 32.3842-32.2083 31.4222-32.1963C27.0782-32.1433 23.4212-32.0983 22.8292-34.6193C22.2162-37.2263 26.2272-51.9953 28.1552-58.8223C28.7362-60.8823 30.6172-62.2833 32.7572-62.2833L35.8512-62.2833C38.0622-62.2833 39.7012-60.2283 39.2092-58.0723ZM16.6962-62.2833L35.3472-62.2833C37.2502-62.2833 38.7922-60.7403 38.7922-58.8383C38.7922-56.9353 37.2502-55.3933 35.3472-55.3933L20.2412-55.3933L17.8272-52.0133C16.7212-50.4653 14.5702-50.1063 13.0212-51.2123C11.4732-52.3183 11.1152-54.4693 12.2212-56.0173L16.6962-62.2833ZM37.1792-65.3463C40.9772-65.5703 43.8752-68.8303 43.6512-72.6293C43.4282-76.4273 40.1672-79.3253 36.3692-79.1013C32.5712-78.8773 29.6732-75.6173 29.8962-71.8183C30.1202-68.0203 33.3812-65.1223 37.1792-65.3463Z"/>
  </g>
  <g id="Semibold-S" transform="matrix(1 0 0 1 2017.82 696)">
   <path class="hierarchical-0:secondary SFSymbolsPreview4D4D4D" d="M29.9392-26.1133C29.9392-23.9023 29.2982-21.7383 28.0932-19.8833C26.8882-18.0283 25.1722-16.5633 23.1512-15.6643C21.1302-14.7653 18.8922-14.4723 16.7082-14.8193C14.5242-15.1663 12.4872-16.1393 10.8452-17.6203C9.20219-19.1013 8.02419-21.0263 7.45419-23.1633C6.88319-25.3003 6.94419-27.5563 7.63019-29.6593C8.31519-31.7613 9.59619-33.6203 11.3162-35.0103C13.0372-36.3993 15.1232-37.2603 17.3232-37.4893L16.5552-44.8893C12.9242-44.5133 9.48019-43.0923 6.64119-40.7983C3.80119-38.5043 1.68719-35.4363 0.556195-31.9653C-0.575805-28.4943-0.676805-24.7703 0.265195-21.2433C1.20719-17.7163 3.15119-14.5383 5.86219-12.0943C8.57319-9.64929 11.9352-8.04329 15.5402-7.47029C19.1452-6.89729 22.8392-7.38229 26.1752-8.86629C29.5102-10.3493 32.3442-12.7683 34.3332-15.8303C36.3212-18.8913 37.3802-22.4633 37.3802-26.1133L29.9392-26.1133Z"/>
   <path class="hierarchical-1:primary SFSymbolsPreview212121" d="M38.8992-58.0723L34.8762-40.4453C44.7452-40.1953 48.7572-39.1963 50.3622-35.8673C51.4862-33.4543 51.4862-25.7143 50.5232-12.8973C50.3622-10.8163 48.6772-9.23529 46.6712-9.23529L46.3502-9.23529C44.2642-9.40229 42.6592-11.3993 42.8202-13.5633C43.3012-20.3873 43.6222-28.4603 43.3812-31.7063C41.7982-32.1163 40.2702-32.1333 36.7002-32.1723C35.9272-32.1813 35.0592-32.1903 34.0742-32.2053C33.0702-32.2203 32.0742-32.2083 31.1122-32.1963C26.7682-32.1433 23.1112-32.0983 22.5192-34.6193C21.9062-37.2263 25.9172-51.9953 27.8452-58.8223C28.4262-60.8823 30.3072-62.2833 32.4472-62.2833L35.5412-62.2833C37.7522-62.2833 39.3912-60.2283 38.8992-58.0723ZM16.3862-62.2833L35.0372-62.2833C36.9402-62.2833 38.4822-60.7403 38.4822-58.8383C38.4822-56.9353 36.9402-55.3933 35.0372-55.3933L19.9312-55.3933L17.5172-52.0133C16.4112-50.4653 14.2602-50.1063 12.7112-51.2123C11.1632-52.3183 10.8052-54.4693 11.9112-56.0173L16.3862-62.2833ZM36.8692-65.3463C40.6672-65.5703 43.5652-68.8303 43.3412-72.6293C43.1182-76.4273 39.8572-79.3253 36.0592-79.1013C32.2612-78.8773 29.3632-75.6173 29.5862-71.8183C29.8102-68.0203 33.0712-65.1223 36.8692-65.3463Z"/>
  </g>
  <g id="Medium-S" transform="matrix(1 0 0 1 1721.26 696)">
   <path class="hierarchical-0:secondary SFSymbolsPreview4D4D4D" d="M29.9388-26.1133C29.9388-23.8423 29.2808-21.6193 28.0428-19.7143C26.8058-17.8093 25.0418-16.3043 22.9668-15.3813C20.8908-14.4583 18.5928-14.1563 16.3488-14.5123C14.1058-14.8693 12.0138-15.8683 10.3268-17.3893C8.63985-18.9113 7.42985-20.8883 6.84385-23.0833C6.25785-25.2773 6.32085-27.5953 7.02485-29.7553C7.72885-31.9143 9.04485-33.8233 10.8118-35.2513C12.5788-36.6783 14.7218-37.5633 16.9808-37.7973L16.2768-44.5813C12.7058-44.2113 9.31885-42.8133 6.52585-40.5563C3.73285-38.3003 1.65385-35.2833 0.540846-31.8693C-0.572154-28.4553-0.672154-24.7923 0.254846-21.3233C1.18085-17.8543 3.09285-14.7283 5.75985-12.3243C8.42585-9.92029 11.7328-8.34029 15.2788-7.77629C18.8248-7.21329 22.4578-7.69029 25.7388-9.14929C29.0188-10.6083 31.8068-12.9873 33.7628-15.9983C35.7188-19.0093 36.7598-22.5233 36.7598-26.1133L29.9388-26.1133Z"/>
   <path class="hierarchical-1:primary SFSymbolsPreview212121" d="M38.5888-58.0723L34.5658-40.4453C44.4348-40.1953 48.4468-39.1963 50.0518-35.8673C51.1758-33.4543 51.1758-25.7143 50.2128-12.8973C50.0518-10.8163 48.3668-9.23529 46.3608-9.23529L46.0398-9.23529C43.9538-9.40229 42.3488-11.3993 42.5098-13.5633C42.9908-20.3873 43.3118-28.4603 43.0708-31.7063C41.4878-32.1163 39.9598-32.1333 36.3898-32.1723C35.6168-32.1813 34.7488-32.1903 33.7638-32.2053C32.7598-32.2203 31.7638-32.2083 30.8018-32.1963C26.4578-32.1433 22.8008-32.0983 22.2088-34.6193C21.5958-37.2263 25.6068-51.9953 27.5348-58.8223C28.1158-60.8823 29.9968-62.2833 32.1368-62.2833L35.2308-62.2833C37.4418-62.2833 39.0808-60.2283 38.5888-58.0723ZM16.0758-62.2833L34.7268-62.2833C36.6298-62.2833 38.1718-60.7403 38.1718-58.8383C38.1718-56.9353 36.6298-55.3933 34.7268-55.3933L19.6208-55.3933L17.2068-52.0133C16.1008-50.4653 13.9498-50.1063 12.4008-51.2123C10.8528-52.3183 10.4948-54.4693 11.6008-56.0173L16.0758-62.2833ZM36.5588-65.3463C40.3568-65.5703 43.2548-68.8303 43.0308-72.6293C42.8078-76.4273 39.5468-79.3253 35.7488-79.1013C31.9508-78.8773 29.0528-75.6173 29.2758-71.8183C29.4998-68.0203 32.7608-65.1223 36.5588-65.3463Z"/>
  </g>
  <g id="Regular-S" transform="matrix(1 0 0 1 1424.71 696)">
   <path class="hierarchical-0:secondary SFSymbolsPreview4D4D4D" d="M29.9391-26.1133C29.9391-23.7823 29.2631-21.5003 27.9931-19.5453C26.7231-17.5903 24.9131-16.0453 22.7831-15.0983C20.6531-14.1503 18.2931-13.8403 15.9911-14.2063C13.6881-14.5723 11.5411-15.5983 9.80909-17.1593C8.07809-18.7203 6.83609-20.7503 6.23509-23.0033C5.63309-25.2553 5.69809-27.6343 6.42009-29.8513C7.14309-32.0673 8.49309-34.0273 10.3071-35.4923C12.1201-36.9573 14.3201-37.8653 16.6391-38.1053L15.9991-44.2733C12.4881-43.9093 9.15709-42.5343 6.41009-40.3153C3.66409-38.0973 1.62009-35.1293 0.52509-31.7733C-0.56891-28.4163-0.66691-24.8143 0.24409-21.4033C1.15509-17.9923 3.03509-14.9183 5.65709-12.5543C8.27909-10.1903 11.5311-8.63729 15.0181-8.08329C18.5041-7.52929 22.0771-7.99729 25.3031-9.43229C28.5291-10.8673 31.2691-13.2073 33.1931-16.1673C35.1161-19.1283 36.1401-22.5833 36.1401-26.1133L29.9391-26.1133Z"/>
   <path class="hierarchical-1:primary SFSymbolsPreview212121" d="M38.2791-58.0723L34.2561-40.4453C44.1251-40.1953 48.1371-39.1963 49.7421-35.8673C50.8661-33.4543 50.8661-25.7143 49.9031-12.8973C49.7421-10.8163 48.0571-9.23529 46.0511-9.23529L45.7301-9.23529C43.6441-9.40229 42.0391-11.3993 42.2001-13.5633C42.6811-20.3873 43.0021-28.4603 42.7611-31.7063C41.1781-32.1163 39.6501-32.1333 36.0801-32.1723C35.3071-32.1813 34.4391-32.1903 33.4541-32.2053C32.4501-32.2203 31.4541-32.2083 30.4921-32.1963C26.1481-32.1433 22.4911-32.0983 21.8991-34.6193C21.2861-37.2263 25.2971-51.9953 27.2251-58.8223C27.8061-60.8823 29.6871-62.2833 31.8271-62.2833L34.9211-62.2833C37.1321-62.2833 38.7711-60.2283 38.2791-58.0723ZM15.7661-62.2833L34.4171-62.2833C36.3201-62.2833 37.8621-60.7403 37.8621-58.8383C37.8621-56.9353 36.3201-55.3933 34.4171-55.3933L19.3111-55.3933L16.8971-52.0133C15.7911-50.4653 13.6401-50.1063 12.0911-51.2123C10.5431-52.3183 10.1851-54.4693 11.2911-56.0173L15.7661-62.2833ZM36.2491-65.3463C40.0471-65.5703 42.9451-68.8303 42.7211-72.6293C42.4981-76.4273 39.2371-79.3253 35.4391-79.1013C31.6411-78.8773 28.7431-75.6173 28.9661-71.8183C29.1901-68.0203 32.4511-65.1223 36.2491-65.3463Z"/>
  </g>
  <g id="Light-S" transform="matrix(1 0 0 1 1128.2 696)">
   <path class="hierarchical-0:secondary SFSymbolsPreview4D4D4D" d="M29.9397-26.1133C29.9397-23.7023 29.2397-21.3423 27.9267-19.3203C26.6127-17.2983 24.7407-15.7003 22.5377-14.7203C20.3347-13.7403 17.8937-13.4203 15.5127-13.7983C13.1307-14.1763 10.9107-15.2373 9.11971-16.8523C7.32871-18.4673 6.04371-20.5663 5.42171-22.8963C4.79971-25.2263 4.86671-27.6863 5.61371-29.9793C6.36171-32.2723 7.75771-34.2983 9.63371-35.8143C11.5097-37.3293 13.7847-38.2683 16.1827-38.5173L15.6287-43.8623C12.1967-43.5063 8.94071-42.1623 6.25671-39.9943C3.57271-37.8253 1.57471-34.9253 0.504711-31.6453C-0.564289-28.3643-0.660289-24.8443 0.229711-21.5103C1.12071-18.1763 2.95771-15.1723 5.52071-12.8613C8.08371-10.5513 11.2617-9.03229 14.6687-8.49129C18.0767-7.94929 21.5687-8.40829 24.7217-9.81029C27.8747-11.2123 30.5527-13.4993 32.4327-16.3933C34.3127-19.2863 35.3127-22.6633 35.3127-26.1133L29.9397-26.1133Z"/>
   <path class="hierarchical-1:primary SFSymbolsPreview212121" d="M37.8657-58.0723L33.8427-40.4453C43.7117-40.1953 47.7237-39.1963 49.3287-35.8673C50.4527-33.4543 50.4527-25.7143 49.4897-12.8973C49.3287-10.8163 47.6437-9.23529 45.6377-9.23529L45.3167-9.23529C43.2307-9.40229 41.6257-11.3993 41.7867-13.5633C42.2677-20.3873 42.5887-28.4603 42.3477-31.7063C40.7647-32.1163 39.2367-32.1333 35.6667-32.1723C34.8937-32.1813 34.0257-32.1903 33.0407-32.2053C32.0367-32.2203 31.0407-32.2083 30.0787-32.1963C25.7347-32.1433 22.0777-32.0983 21.4857-34.6193C20.8727-37.2263 24.8837-51.9953 26.8117-58.8223C27.3927-60.8823 29.2737-62.2833 31.4137-62.2833L34.5077-62.2833C36.7187-62.2833 38.3577-60.2283 37.8657-58.0723ZM15.3527-62.2833L34.0037-62.2833C35.9067-62.2833 37.4487-60.7403 37.4487-58.8383C37.4487-56.9353 35.9067-55.3933 34.0037-55.3933L18.8977-55.3933L16.4837-52.0133C15.3777-50.4653 13.2267-50.1063 11.6777-51.2123C10.1297-52.3183 9.77171-54.4693 10.8777-56.0173L15.3527-62.2833ZM35.8357-65.3463C39.6337-65.5703 42.5317-68.8303 42.3077-72.6293C42.0847-76.4273 38.8237-79.3253 35.0257-79.1013C31.2277-78.8773 28.3297-75.6173 28.5527-71.8183C28.7767-68.0203 32.0377-65.1223 35.8357-65.3463Z"/>
  </g>
  <g id="Thin-S" transform="matrix(1 0 0 1 831.697 696)">
   <path class="hierarchical-0:secondary SFSymbolsPreview4D4D4D" d="M29.9395-26.1133C29.9395-23.6223 29.2175-21.1843 27.8595-19.0953C26.5025-17.0063 24.5685-15.3553 22.2925-14.3423C20.0165-13.3303 17.4945-12.9993 15.0345-13.3903C12.5735-13.7813 10.2795-14.8773 8.4295-16.5453C6.5785-18.2143 5.2525-20.3833 4.6095-22.7903C3.9665-25.1973 4.0355-27.7383 4.8075-30.1073C5.5805-32.4763 7.0225-34.5703 8.9605-36.1353C10.8985-37.7013 13.2495-38.6713 15.7275-38.9283L15.2585-43.4503C11.9055-43.1033 8.7255-41.7903 6.1035-39.6723C3.4815-37.5543 1.5295-34.7213 0.484504-31.5173C-0.560496-28.3123-0.653496-24.8733 0.216504-21.6173C1.0855-18.3603 2.8815-15.4253 5.3845-13.1683C7.8875-10.9113 10.9915-9.42829 14.3205-8.89929C17.6495-8.37029 21.0605-8.81829 24.1405-10.1883C27.2205-11.5583 29.8365-13.7913 31.6725-16.6183C33.5095-19.4443 34.4865-22.7433 34.4865-26.1133L29.9395-26.1133Z"/>
   <path class="hierarchical-1:primary SFSymbolsPreview212121" d="M37.4525-58.0723L33.4295-40.4453C43.2985-40.1953 47.3105-39.1963 48.9155-35.8673C50.0395-33.4543 50.0395-25.7143 49.0765-12.8973C48.9155-10.8163 47.2305-9.23529 45.2245-9.23529L44.9035-9.23529C42.8175-9.40229 41.2125-11.3993 41.3735-13.5633C41.8545-20.3873 42.1755-28.4603 41.9345-31.7063C40.3515-32.1163 38.8235-32.1333 35.2535-32.1723C34.4805-32.1813 33.6125-32.1903 32.6275-32.2053C31.6235-32.2203 30.6275-32.2083 29.6655-32.1963C25.3215-32.1433 21.6645-32.0983 21.0725-34.6193C20.4595-37.2263 24.4705-51.9953 26.3985-58.8223C26.9795-60.8823 28.8605-62.2833 31.0005-62.2833L34.0945-62.2833C36.3055-62.2833 37.9445-60.2283 37.4525-58.0723ZM14.9395-62.2833L33.5905-62.2833C35.4935-62.2833 37.0355-60.7403 37.0355-58.8383C37.0355-56.9353 35.4935-55.3933 33.5905-55.3933L18.4845-55.3933L16.0705-52.0133C14.9645-50.4653 12.8135-50.1063 11.2645-51.2123C9.7165-52.3183 9.3585-54.4693 10.4645-56.0173L14.9395-62.2833ZM35.4225-65.3463C39.2205-65.5703 42.1185-68.8303 41.8945-72.6293C41.6715-76.4273 38.4105-79.3253 34.6125-79.1013C30.8145-78.8773 27.9165-75.6173 28.1395-71.8183C28.3635-68.0203 31.6245-65.1223 35.4225-65.3463Z"/>
  </g>
  <g id="Ultralight-S" transform="matrix(1 0 0 1 535.193 696)">
   <path class="hierarchical-0:secondary SFSymbolsPreview4D4D4D" d="M29.9391-26.1133C29.9391-23.5423 29.1941-21.0263 27.7931-18.8703C26.3921-16.7133 24.3961-15.0103 22.0471-13.9643C19.6971-12.9193 17.0951-12.5783 14.5561-12.9823C12.0171-13.3853 9.64912-14.5163 7.73912-16.2383C5.82912-17.9603 4.46012-20.1993 3.79612-22.6833C3.13312-25.1673 3.20412-27.7913 4.00112-30.2353C4.79812-32.6803 6.28712-34.8413 8.28812-36.4573C10.2881-38.0723 12.7131-39.0743 15.2711-39.3393L14.8871-43.0393C11.6141-42.7003 8.51012-41.4193 5.95012-39.3513C3.39012-37.2833 1.48412-34.5173 0.464124-31.3883C-0.555876-28.2603-0.646876-24.9023 0.202124-21.7233C1.05112-18.5443 2.80412-15.6793 5.24812-13.4753C7.69212-11.2723 10.7221-9.82429 13.9721-9.30729C17.2221-8.79129 20.5521-9.22829 23.5591-10.5653C26.5661-11.9033 29.1201-14.0833 30.9131-16.8433C32.7051-19.6023 33.6601-22.8233 33.6601-26.1133L29.9391-26.1133Z"/>
   <path class="hierarchical-1:primary SFSymbolsPreview212121" d="M37.0391-58.0723L33.0161-40.4453C42.8851-40.1953 46.8971-39.1963 48.5021-35.8673C49.6261-33.4543 49.6261-25.7143 48.6631-12.8973C48.5021-10.8163 46.8171-9.23529 44.8111-9.23529L44.4901-9.23529C42.4041-9.40229 40.7991-11.3993 40.9601-13.5633C41.4411-20.3873 41.7621-28.4603 41.5211-31.7063C39.9381-32.1163 38.4101-32.1333 34.8401-32.1723C34.0671-32.1813 33.1991-32.1903 32.2141-32.2053C31.2101-32.2203 30.2141-32.2083 29.2521-32.1963C24.9081-32.1433 21.2511-32.0983 20.6591-34.6193C20.0461-37.2263 24.0571-51.9953 25.9851-58.8223C26.5661-60.8823 28.4471-62.2833 30.5871-62.2833L33.6811-62.2833C35.8921-62.2833 37.5311-60.2283 37.0391-58.0723ZM14.5261-62.2833L33.1771-62.2833C35.0801-62.2833 36.6221-60.7403 36.6221-58.8383C36.6221-56.9353 35.0801-55.3933 33.1771-55.3933L18.0711-55.3933L15.6571-52.0133C14.5511-50.4653 12.4001-50.1063 10.8511-51.2123C9.30312-52.3183 8.94512-54.4693 10.0511-56.0173L14.5261-62.2833ZM35.0091-65.3463C38.8071-65.5703 41.7051-68.8303 41.4811-72.6293C41.2581-76.4273 37.9971-79.3253 34.1991-79.1013C30.4011-78.8773 27.5031-75.6173 27.7261-71.8183C27.9501-68.0203 31.2111-65.1223 35.0091-65.3463Z"/>
  </g>
 </g>
</svg>
