<?xml version="1.0" encoding="UTF-8"?>
<!--Generator: Apple Native CoreSVG 175.5-->
<!DOCTYPE svg
PUBLIC "-//W3C//DTD SVG 1.1//EN"
       "http://www.w3.org/Graphics/SVG/1.1/DTD/svg11.dtd">
<svg version="1.1" xmlns="http://www.w3.org/2000/svg" xmlns:xlink="http://www.w3.org/1999/xlink" width="3300" height="2200">
 <!--glyph: "uni101257.medium", point size: 100.0, font version: "18.0d9e1", template writer version: "84"-->
 <g id="Notes">
  <rect height="2200" id="artboard" style="fill:white;opacity:1" width="3300" x="0" y="0"/>
  <line style="fill:none;stroke:black;opacity:1;stroke-width:0.5;" x1="263" x2="3036" y1="292" y2="292"/>
  <text style="stroke:none;fill:black;font-family:sans-serif;font-size:13;font-weight:bold;" transform="matrix(1 0 0 1 263 322)">Weight/Scale Variations</text>
  <text style="stroke:none;fill:black;font-family:sans-serif;font-size:13;text-anchor:middle;" transform="matrix(1 0 0 1 559.711 322)">Ultralight</text>
  <text style="stroke:none;fill:black;font-family:sans-serif;font-size:13;text-anchor:middle;" transform="matrix(1 0 0 1 856.422 322)">Thin</text>
  <text style="stroke:none;fill:black;font-family:sans-serif;font-size:13;text-anchor:middle;" transform="matrix(1 0 0 1 1153.13 322)">Light</text>
  <text style="stroke:none;fill:black;font-family:sans-serif;font-size:13;text-anchor:middle;" transform="matrix(1 0 0 1 1449.84 322)">Regular</text>
  <text style="stroke:none;fill:black;font-family:sans-serif;font-size:13;text-anchor:middle;" transform="matrix(1 0 0 1 1746.56 322)">Medium</text>
  <text style="stroke:none;fill:black;font-family:sans-serif;font-size:13;text-anchor:middle;" transform="matrix(1 0 0 1 2043.27 322)">Semibold</text>
  <text style="stroke:none;fill:black;font-family:sans-serif;font-size:13;text-anchor:middle;" transform="matrix(1 0 0 1 2339.98 322)">Bold</text>
  <text style="stroke:none;fill:black;font-family:sans-serif;font-size:13;text-anchor:middle;" transform="matrix(1 0 0 1 2636.69 322)">Heavy</text>
  <text style="stroke:none;fill:black;font-family:sans-serif;font-size:13;text-anchor:middle;" transform="matrix(1 0 0 1 2933.4 322)">Black</text>
  <line style="fill:none;stroke:black;opacity:1;stroke-width:0.5;" x1="263" x2="3036" y1="1903" y2="1903"/>
  <g transform="matrix(1 0 0 1 263 1933)">
   <path d="M9.24805 0.830078Q10.8691 0.830078 12.2949 0.214844Q13.7207-0.400391 14.8096-1.49414Q15.8984-2.58789 16.5186-4.01367Q17.1387-5.43945 17.1387-7.05078Q17.1387-8.66211 16.5186-10.0879Q15.8984-11.5137 14.8047-12.6074Q13.7109-13.7012 12.2852-14.3164Q10.8594-14.9316 9.23828-14.9316Q7.62695-14.9316 6.20117-14.3164Q4.77539-13.7012 3.69141-12.6074Q2.60742-11.5137 1.9873-10.0879Q1.36719-8.66211 1.36719-7.05078Q1.36719-5.43945 1.9873-4.01367Q2.60742-2.58789 3.69629-1.49414Q4.78516-0.400391 6.21094 0.214844Q7.63672 0.830078 9.24805 0.830078ZM9.24805-0.654297Q7.91992-0.654297 6.7627-1.14746Q5.60547-1.64062 4.73145-2.51953Q3.85742-3.39844 3.36426-4.56055Q2.87109-5.72266 2.87109-7.05078Q2.87109-8.37891 3.35938-9.54102Q3.84766-10.7031 4.72168-11.582Q5.5957-12.4609 6.75293-12.9541Q7.91016-13.4473 9.23828-13.4473Q10.5762-13.4473 11.7383-12.9541Q12.9004-12.4609 13.7793-11.582Q14.6582-10.7031 15.1514-9.54102Q15.6445-8.37891 15.6445-7.05078Q15.6445-5.72266 15.1514-4.56055Q14.6582-3.39844 13.7793-2.51953Q12.9004-1.64062 11.7432-1.14746Q10.5859-0.654297 9.24805-0.654297ZM5.6543-7.05078Q5.6543-6.72852 5.85938-6.52832Q6.06445-6.32812 6.40625-6.32812L8.51562-6.32812L8.51562-4.20898Q8.51562-3.88672 8.71094-3.67676Q8.90625-3.4668 9.23828-3.4668Q9.56055-3.4668 9.77051-3.67676Q9.98047-3.88672 9.98047-4.20898L9.98047-6.32812L12.0898-6.32812Q12.4219-6.32812 12.627-6.52832Q12.832-6.72852 12.832-7.05078Q12.832-7.38281 12.627-7.58789Q12.4219-7.79297 12.0898-7.79297L9.98047-7.79297L9.98047-9.90234Q9.98047-10.2344 9.77051-10.4443Q9.56055-10.6543 9.23828-10.6543Q8.90625-10.6543 8.71094-10.4443Q8.51562-10.2344 8.51562-9.90234L8.51562-7.79297L6.40625-7.79297Q6.06445-7.79297 5.85938-7.58789Q5.6543-7.38281 5.6543-7.05078Z"/>
  </g>
  <g transform="matrix(1 0 0 1 281.867 1933)">
   <path d="M11.709 2.91016Q13.75 2.91016 15.5518 2.12891Q17.3535 1.34766 18.7305-0.0292969Q20.1074-1.40625 20.8887-3.20801Q21.6699-5.00977 21.6699-7.05078Q21.6699-9.0918 20.8887-10.8936Q20.1074-12.6953 18.7305-14.0723Q17.3535-15.4492 15.5469-16.2305Q13.7402-17.0117 11.6992-17.0117Q9.6582-17.0117 7.85645-16.2305Q6.05469-15.4492 4.68262-14.0723Q3.31055-12.6953 2.5293-10.8936Q1.74805-9.0918 1.74805-7.05078Q1.74805-5.00977 2.5293-3.20801Q3.31055-1.40625 4.6875-0.0292969Q6.06445 1.34766 7.86621 2.12891Q9.66797 2.91016 11.709 2.91016ZM11.709 1.25Q9.98047 1.25 8.47656 0.605469Q6.97266-0.0390625 5.83496-1.17676Q4.69727-2.31445 4.05762-3.81836Q3.41797-5.32227 3.41797-7.05078Q3.41797-8.7793 4.05762-10.2832Q4.69727-11.7871 5.83008-12.9297Q6.96289-14.0723 8.4668-14.7119Q9.9707-15.3516 11.6992-15.3516Q13.4277-15.3516 14.9365-14.7119Q16.4453-14.0723 17.583-12.9297Q18.7207-11.7871 19.3652-10.2832Q20.0098-8.7793 20.0098-7.05078Q20.0098-5.32227 19.3701-3.81836Q18.7305-2.31445 17.5879-1.17676Q16.4453-0.0390625 14.9414 0.605469Q13.4375 1.25 11.709 1.25ZM7.17773-7.05078Q7.17773-6.69922 7.41211-6.47461Q7.64648-6.25 8.01758-6.25L10.8887-6.25L10.8887-3.36914Q10.8887-2.99805 11.1133-2.76855Q11.3379-2.53906 11.6895-2.53906Q12.0605-2.53906 12.29-2.76855Q12.5195-2.99805 12.5195-3.36914L12.5195-6.25L15.4004-6.25Q15.7715-6.25 16.001-6.47461Q16.2305-6.69922 16.2305-7.05078Q16.2305-7.42188 16.001-7.65137Q15.7715-7.88086 15.4004-7.88086L12.5195-7.88086L12.5195-10.752Q12.5195-11.1328 12.29-11.3623Q12.0605-11.5918 11.6895-11.5918Q11.3379-11.5918 11.1133-11.3574Q10.8887-11.123 10.8887-10.752L10.8887-7.88086L8.01758-7.88086Q7.63672-7.88086 7.40723-7.65137Q7.17773-7.42188 7.17773-7.05078Z"/>
  </g>
  <g transform="matrix(1 0 0 1 305.646 1933)">
   <path d="M14.9707 5.66406Q17.0605 5.66406 18.96 5.01465Q20.8594 4.36523 22.4512 3.19336Q24.043 2.02148 25.2197 0.429688Q26.3965-1.16211 27.0459-3.06641Q27.6953-4.9707 27.6953-7.05078Q27.6953-9.14062 27.0459-11.04Q26.3965-12.9395 25.2197-14.5312Q24.043-16.123 22.4512-17.2998Q20.8594-18.4766 18.9551-19.126Q17.0508-19.7754 14.9609-19.7754Q12.8711-19.7754 10.9717-19.126Q9.07227-18.4766 7.48535-17.2998Q5.89844-16.123 4.72168-14.5312Q3.54492-12.9395 2.90039-11.04Q2.25586-9.14062 2.25586-7.05078Q2.25586-4.9707 2.90527-3.06641Q3.55469-1.16211 4.72656 0.429688Q5.89844 2.02148 7.49023 3.19336Q9.08203 4.36523 10.9814 5.01465Q12.8809 5.66406 14.9707 5.66406ZM14.9707 3.84766Q13.1641 3.84766 11.5283 3.2959Q9.89258 2.74414 8.53516 1.74805Q7.17773 0.751953 6.17676-0.610352Q5.17578-1.97266 4.62891-3.6084Q4.08203-5.24414 4.08203-7.05078Q4.08203-8.86719 4.62891-10.5029Q5.17578-12.1387 6.17188-13.501Q7.16797-14.8633 8.52539-15.8594Q9.88281-16.8555 11.5186-17.4023Q13.1543-17.9492 14.9609-17.9492Q16.7773-17.9492 18.4131-17.4023Q20.0488-16.8555 21.4111-15.8594Q22.7734-14.8633 23.7744-13.501Q24.7754-12.1387 25.3223-10.5029Q25.8691-8.86719 25.8691-7.05078Q25.8691-5.24414 25.3223-3.6084Q24.7754-1.97266 23.7793-0.610352Q22.7832 0.751953 21.4209 1.74805Q20.0586 2.74414 18.4229 3.2959Q16.7871 3.84766 14.9707 3.84766ZM9.19922-7.05078Q9.19922-6.66992 9.45801-6.4209Q9.7168-6.17188 10.1172-6.17188L14.0625-6.17188L14.0625-2.2168Q14.0625-1.81641 14.3115-1.55762Q14.5605-1.29883 14.9512-1.29883Q15.3516-1.29883 15.6104-1.55273Q15.8691-1.80664 15.8691-2.2168L15.8691-6.17188L19.8242-6.17188Q20.2246-6.17188 20.4785-6.4209Q20.7324-6.66992 20.7324-7.05078Q20.7324-7.46094 20.4785-7.71484Q20.2246-7.96875 19.8242-7.96875L15.8691-7.96875L15.8691-11.9141Q15.8691-12.3242 15.6104-12.583Q15.3516-12.8418 14.9512-12.8418Q14.5605-12.8418 14.3115-12.583Q14.0625-12.3242 14.0625-11.9141L14.0625-7.96875L10.1172-7.96875Q9.70703-7.96875 9.45312-7.71484Q9.19922-7.46094 9.19922-7.05078Z"/>
  </g>
  <text style="stroke:none;fill:black;font-family:sans-serif;font-size:13;font-weight:bold;" transform="matrix(1 0 0 1 263 1953)">Design Variations</text>
  <text style="stroke:none;fill:black;font-family:sans-serif;font-size:13;" transform="matrix(1 0 0 1 263 1971)">Symbols are supported in up to nine weights and three scales.</text>
  <text style="stroke:none;fill:black;font-family:sans-serif;font-size:13;" transform="matrix(1 0 0 1 263 1989)">For optimal layout with text and other symbols, vertically align</text>
  <text style="stroke:none;fill:black;font-family:sans-serif;font-size:13;" transform="matrix(1 0 0 1 263 2007)">symbols with the adjacent text.</text>
  <line style="fill:none;stroke:#00AEEF;stroke-width:0.5;opacity:1.0;" x1="776" x2="776" y1="1919" y2="1933"/>
  <g transform="matrix(1 0 0 1 776 1933)">
   <path d="M3.31055 0.15625Q3.70117 0.15625 3.91602-0.00976562Q4.13086-0.175781 4.26758-0.585938L5.52734-4.0332L11.2891-4.0332L12.5488-0.585938Q12.6855-0.175781 12.9004-0.00976562Q13.1152 0.15625 13.4961 0.15625Q13.8867 0.15625 14.1162-0.0585938Q14.3457-0.273438 14.3457-0.644531Q14.3457-0.869141 14.2383-1.17188L9.6582-13.3691Q9.48242-13.8184 9.17969-14.043Q8.87695-14.2676 8.4082-14.2676Q7.5-14.2676 7.17773-13.3789L2.59766-1.16211Q2.49023-0.859375 2.49023-0.634766Q2.49023-0.263672 2.70996-0.0537109Q2.92969 0.15625 3.31055 0.15625ZM6.00586-5.51758L8.37891-12.0898L8.42773-12.0898L10.8008-5.51758Z"/>
  </g>
  <line style="fill:none;stroke:#00AEEF;stroke-width:0.5;opacity:1.0;" x1="793.197" x2="793.197" y1="1919" y2="1933"/>
  <text style="stroke:none;fill:black;font-family:sans-serif;font-size:13;font-weight:bold;" transform="matrix(1 0 0 1 776 1953)">Margins</text>
  <text style="stroke:none;fill:black;font-family:sans-serif;font-size:13;" transform="matrix(1 0 0 1 776 1971)">Leading and trailing margins on the left and right side of each symbol</text>
  <text style="stroke:none;fill:black;font-family:sans-serif;font-size:13;" transform="matrix(1 0 0 1 776 1989)">can be adjusted by modifying the x-location of the margin guidelines.</text>
  <text style="stroke:none;fill:black;font-family:sans-serif;font-size:13;" transform="matrix(1 0 0 1 776 2007)">Modifications are automatically applied proportionally to all</text>
  <text style="stroke:none;fill:black;font-family:sans-serif;font-size:13;" transform="matrix(1 0 0 1 776 2025)">scales and weights.</text>
  <g transform="matrix(1 0 0 1 1289 1933)">
   <path d="M2.8418 1.86523L4.54102 3.57422Q5.18555 4.22852 5.90332 4.17969Q6.62109 4.13086 7.31445 3.35938L18.0078-8.42773L17.041-9.4043L6.42578 2.27539Q6.16211 2.57812 5.89355 2.61719Q5.625 2.65625 5.27344 2.30469L4.10156 1.14258Q3.75 0.791016 3.79395 0.522461Q3.83789 0.253906 4.14062-0.0195312L15.6152-10.8203L14.6387-11.7871L3.04688-0.898438Q2.30469-0.214844 2.25098 0.498047Q2.19727 1.21094 2.8418 1.86523ZM9.25781-16.3281Q8.94531-16.0254 8.90625-15.6348Q8.86719-15.2441 9.04297-14.9512Q9.21875-14.6777 9.55566-14.541Q9.89258-14.4043 10.3809-14.5215Q11.4746-14.7754 12.5977-14.7314Q13.7207-14.6875 14.7949-13.9844L14.209-12.5293Q13.9551-11.9043 14.0674-11.4404Q14.1797-10.9766 14.5801-10.5664L16.875-8.25195Q17.2363-7.88086 17.5781-7.82227Q17.9199-7.76367 18.3398-7.8418L19.4043-8.03711L20.0684-7.36328L20.0293-6.80664Q20-6.43555 20.1221-6.12305Q20.2441-5.81055 20.6055-5.44922L21.3672-4.70703Q21.7285-4.3457 22.1533-4.33105Q22.5781-4.31641 22.9297-4.66797L25.8398-7.58789Q26.1914-7.93945 26.1816-8.35449Q26.1719-8.76953 25.8105-9.13086L25.0391-9.89258Q24.6875-10.2539 24.3799-10.3857Q24.0723-10.5176 23.7109-10.4883L23.1348-10.4395L22.4902-11.0742L22.7344-12.1973Q22.832-12.6172 22.6953-12.9834Q22.5586-13.3496 22.1191-13.7891L19.9219-15.9766Q18.6719-17.2168 17.2607-17.8369Q15.8496-18.457 14.4189-18.4814Q12.9883-18.5059 11.665-17.959Q10.3418-17.4121 9.25781-16.3281ZM10.752-15.957Q11.6602-16.6211 12.7002-16.9043Q13.7402-17.1875 14.8047-17.085Q15.8691-16.9824 16.8701-16.5137Q17.8711-16.0449 18.7012-15.2051L21.1328-12.793Q21.3086-12.6172 21.3525-12.4512Q21.3965-12.2852 21.3379-12.0312L21.0156-10.5469L22.5195-9.0625L23.5059-9.12109Q23.6914-9.13086 23.7891-9.09668Q23.8867-9.0625 24.0332-8.91602L24.6094-8.33984L22.168-5.89844L21.5918-6.47461Q21.4453-6.62109 21.4062-6.71875Q21.3672-6.81641 21.377-7.01172L21.4453-7.98828L19.9512-9.47266L18.4277-9.21875Q18.1836-9.16992 18.042-9.2041Q17.9004-9.23828 17.7148-9.41406L15.7129-11.416Q15.5176-11.5918 15.4932-11.7529Q15.4688-11.9141 15.5859-12.1875L16.4648-14.2773Q15.293-15.3711 13.8281-15.791Q12.3633-16.2109 10.8398-15.7617Q10.7227-15.7324 10.6885-15.8057Q10.6543-15.8789 10.752-15.957Z"/>
  </g>
  <text style="stroke:none;fill:black;font-family:sans-serif;font-size:13;font-weight:bold;" transform="matrix(1 0 0 1 1289 1953)">Exporting</text>
  <text style="stroke:none;fill:black;font-family:sans-serif;font-size:13;" transform="matrix(1 0 0 1 1289 1971)">Symbols should be outlined when exporting to ensure the</text>
  <text style="stroke:none;fill:black;font-family:sans-serif;font-size:13;" transform="matrix(1 0 0 1 1289 1989)">design is preserved when submitting to Xcode.</text>
  <text id="template-version" style="stroke:none;fill:black;font-family:sans-serif;font-size:13;text-anchor:end;" transform="matrix(1 0 0 1 3036 1933)">Template v.2.0</text>
  <text style="stroke:none;fill:black;font-family:sans-serif;font-size:13;text-anchor:end;" transform="matrix(1 0 0 1 3036 1951)">Requires Xcode 12 or greater</text>
  <text id="descriptive-name" style="stroke:none;fill:black;font-family:sans-serif;font-size:13;text-anchor:end;" transform="matrix(1 0 0 1 3036 1969)">Generated from hearingdevice.ear.fill</text>
  <text style="stroke:none;fill:black;font-family:sans-serif;font-size:13;text-anchor:end;" transform="matrix(1 0 0 1 3036 1987)">Typeset at 100 points</text>
  <text style="stroke:none;fill:black;font-family:sans-serif;font-size:13;" transform="matrix(1 0 0 1 263 726)">Small</text>
  <text style="stroke:none;fill:black;font-family:sans-serif;font-size:13;" transform="matrix(1 0 0 1 263 1156)">Medium</text>
  <text style="stroke:none;fill:black;font-family:sans-serif;font-size:13;" transform="matrix(1 0 0 1 263 1586)">Large</text>
 </g>
 <g id="Guides">
  <g id="H-reference" style="fill:#27AAE1;stroke:none;" transform="matrix(1 0 0 1 339 696)">
   <path d="M0.993347 0L3.6377 0L29.3282-67.1326L30.0301-67.1326L30.0301-70.459L28.1227-70.459ZM11.6882-24.4797L46.9818-24.4797L46.2311-26.7288L12.4382-26.7288ZM55.1193 0L57.7637 0L30.6381-70.459L29.4327-70.459L29.4327-67.1326Z"/>
  </g>
  <line id="Baseline-S" style="fill:none;stroke:#27AAE1;opacity:1;stroke-width:0.5;" x1="263" x2="3036" y1="696" y2="696"/>
  <line id="Capline-S" style="fill:none;stroke:#27AAE1;opacity:1;stroke-width:0.5;" x1="263" x2="3036" y1="625.541" y2="625.541"/>
  <g id="H-reference" style="fill:#27AAE1;stroke:none;" transform="matrix(1 0 0 1 339 1126)">
   <path d="M0.993347 0L3.6377 0L29.3282-67.1326L30.0301-67.1326L30.0301-70.459L28.1227-70.459ZM11.6882-24.4797L46.9818-24.4797L46.2311-26.7288L12.4382-26.7288ZM55.1193 0L57.7637 0L30.6381-70.459L29.4327-70.459L29.4327-67.1326Z"/>
  </g>
  <line id="Baseline-M" style="fill:none;stroke:#27AAE1;opacity:1;stroke-width:0.5;" x1="263" x2="3036" y1="1126" y2="1126"/>
  <line id="Capline-M" style="fill:none;stroke:#27AAE1;opacity:1;stroke-width:0.5;" x1="263" x2="3036" y1="1055.54" y2="1055.54"/>
  <g id="H-reference" style="fill:#27AAE1;stroke:none;" transform="matrix(1 0 0 1 339 1556)">
   <path d="M0.993347 0L3.6377 0L29.3282-67.1326L30.0301-67.1326L30.0301-70.459L28.1227-70.459ZM11.6882-24.4797L46.9818-24.4797L46.2311-26.7288L12.4382-26.7288ZM55.1193 0L57.7637 0L30.6381-70.459L29.4327-70.459L29.4327-67.1326Z"/>
  </g>
  <line id="Baseline-L" style="fill:none;stroke:#27AAE1;opacity:1;stroke-width:0.5;" x1="263" x2="3036" y1="1556" y2="1556"/>
  <line id="Capline-L" style="fill:none;stroke:#27AAE1;opacity:1;stroke-width:0.5;" x1="263" x2="3036" y1="1485.54" y2="1485.54"/>
  <line id="left-margin" style="fill:none;stroke:#00AEEF;stroke-width:0.5;opacity:1.0;" x1="1399.89" x2="1399.89" y1="1030.79" y2="1150.12"/>
  <line id="right-margin" style="fill:none;stroke:#00AEEF;stroke-width:0.5;opacity:1.0;" x1="1499.8" x2="1499.8" y1="1030.79" y2="1150.12"/>
 </g>
 <g id="Symbols">
  <g id="Black-L" transform="matrix(1 0 0 1 2864.9 1556)">
   <path d="M16.084-2.73842Q16.084 13.0541 24.8222 21.6808Q33.5605 30.3074 48.9777 30.3074Q60.5251 30.3074 68.9132 24.7571Q77.3013 19.2068 82.6362 9.03818L88.0202-1.18587Q90.8742-6.57453 95.0543-11.1055Q99.2344-15.6365 103.696-20.2228Q108.157-24.8092 112.076-30.2323Q115.995-35.6554 118.454-42.7045Q120.914-49.7537 120.914-59.2348Q120.914-75.0535 114.383-86.9014Q107.851-98.7493 96.0734-105.324Q84.2954-111.9 68.588-111.9Q52.8533-111.9 41.0451-105.233Q29.2368-98.5669 22.6604-86.5694Q16.084-74.5719 16.084-58.5584ZM38.7088-19.414Q38.7088-23.6735 40.4352-25.9978Q42.1617-28.3221 44.4427-29.7442Q46.7238-31.1664 48.4503-32.6266Q50.1767-34.0867 50.1767-36.5208Q50.1767-38.6033 48.4503-40.7023Q46.7238-42.8012 44.4427-45.4982Q42.1617-48.1953 40.4352-52.0326Q38.7088-55.8699 38.7088-61.5109Q38.7088-69.8573 42.4479-76.3601Q46.1871-82.8629 52.9124-86.576Q59.6377-90.2891 68.5236-90.2891Q77.8403-90.2891 84.7877-86.4823Q91.735-82.6756 95.6002-75.8456Q99.4654-69.0157 99.4654-59.8742Q99.4654-57.0998 97.5427-55.1771Q95.62-53.2545 92.9041-53.2545Q90.1506-53.2545 88.1883-55.1771Q86.226-57.0998 86.226-59.8742Q86.226-67.6697 81.401-72.3895Q76.576-77.1093 68.5236-77.1093Q61.0993-77.1093 56.5523-72.7935Q52.0054-68.4777 52.0054-61.5109Q52.0054-57.2311 53.821-54.0386Q55.6367-50.846 58.3491-48.0247Q61.0616-45.2035 63.7345-42.1791Q66.4074-39.1547 68.2522-35.3411Q70.0971-31.5276 70.0971-26.1914Q70.0971-18.0953 65.1285-12.9229Q60.1599-7.75044 52.0355-7.72963Q46.0923-7.72963 42.4005-11.0381Q38.7088-14.3466 38.7088-19.414Z"/>
  </g>
  <g id="Heavy-L" transform="matrix(1 0 0 1 2569.21 1556)">
   <path d="M16.084-2.71968Q16.084 12.3884 24.5184 20.7851Q32.9528 29.1818 47.717 29.1818Q58.7649 29.1818 66.8318 23.9501Q74.8988 18.7184 80.0235 9.05203L85.4056-1.06303Q88.5398-6.93924 92.8484-11.639Q97.1569-16.3387 101.671-20.8867Q106.185-25.4347 110.092-30.7172Q114-35.9997 116.436-42.8921Q118.873-49.7846 118.873-59.2348Q118.873-74.7893 112.48-86.437Q106.088-98.0847 94.5794-104.548Q83.0705-111.012 67.7006-111.012Q52.2433-111.012 40.6331-104.465Q29.0228-97.9172 22.5534-86.1411Q16.084-74.365 16.084-58.6521ZM37.6881-19.5413Q37.6881-23.8448 39.4793-26.1668Q41.2706-28.4887 43.6326-29.8982Q45.9947-31.3077 47.7859-32.7671Q49.5772-34.2264 49.5772-36.74Q49.5772-38.886 47.7859-41.0279Q45.9947-43.1698 43.6326-45.8779Q41.2706-48.5861 39.4793-52.3931Q37.6881-56.2001 37.6881-61.7622Q37.6881-70.0181 41.4393-76.4525Q45.1906-82.887 51.947-86.5565Q58.7035-90.2261 67.6279-90.2261Q76.9005-90.2261 83.8147-86.4207Q90.7289-82.6153 94.5789-75.7931Q98.4289-68.9709 98.4289-59.8323Q98.4289-57.2609 96.6414-55.4734Q94.8539-53.6859 92.3272-53.6859Q89.7861-53.6859 87.9611-55.4734Q86.1362-57.2609 86.1362-59.8323Q86.1362-68.0405 81.0961-73.012Q76.0559-77.9836 67.6279-77.9836Q59.7177-77.9836 54.8687-73.4633Q50.0197-68.9431 50.0197-61.7622Q50.0197-57.5392 51.8718-54.3956Q53.7239-51.2521 56.484-48.4538Q59.2442-45.6554 61.967-42.633Q64.6898-39.6105 66.5642-35.7597Q68.4386-31.9089 68.4386-26.5083Q68.4386-18.5093 63.5747-13.2899Q58.7109-8.07041 50.795-8.04027Q44.9484-8.04027 41.3183-11.2756Q37.6881-14.5109 37.6881-19.5413Z"/>
  </g>
  <g id="Bold-L" transform="matrix(1 0 0 1 2273.77 1556)">
   <path d="M16.084-2.70407Q16.084 11.5662 24.153 19.6748Q32.2221 27.7835 46.1944 27.7835Q56.6648 27.7835 64.3657 22.8842Q72.0666 17.9848 76.9375 8.85873L82.2078-0.976487Q85.6581-7.45963 90.113-12.3668Q94.568-17.2741 99.1434-21.7685Q103.719-26.2629 107.615-31.3613Q111.511-36.4597 113.92-43.1488Q116.33-49.838 116.33-59.2348Q116.33-74.4589 110.11-85.8533Q103.891-97.2476 92.7127-103.569Q81.5343-109.891 66.5794-109.891Q51.4753-109.891 40.1146-103.486Q28.7539-97.0806 22.419-85.5736Q16.084-74.0666 16.084-58.7301ZM36.4875-19.6355Q36.4875-23.9481 38.3444-26.2327Q40.2014-28.5173 42.6447-29.8965Q45.088-31.2757 46.9451-32.7462Q48.8022-34.2167 48.8022-36.8674Q48.8022-39.0978 46.9451-41.2972Q45.088-43.4965 42.6447-46.2237Q40.2014-48.9509 38.3444-52.7308Q36.4875-56.5106 36.4875-61.9952Q36.4875-70.1284 40.2429-76.4783Q43.9983-82.8282 50.7708-86.4477Q57.5434-90.0672 66.484-90.0672Q75.6804-90.0672 82.5375-86.2768Q89.3946-82.4864 93.2142-75.6943Q97.0338-68.9022 97.0338-59.7935Q97.0338-57.5054 95.4377-55.9092Q93.8416-54.3131 91.5828-54.3131Q89.3328-54.3131 87.703-55.9092Q86.0732-57.5054 86.0732-59.7935Q86.0732-68.5462 80.7456-73.8476Q75.418-79.1489 66.484-79.1489Q57.9446-79.1489 52.7043-74.3304Q47.464-69.5119 47.464-61.9952Q47.464-57.8115 49.3621-54.7108Q51.2602-51.6101 54.0818-48.8387Q56.9034-46.0673 59.6914-43.0523Q62.4794-40.0374 64.3922-36.1517Q66.3049-32.2659 66.3049-26.7959Q66.3049-18.9644 61.5717-13.7432Q56.8384-8.52202 49.1985-8.48414Q43.527-8.48414 40.0072-11.5975Q36.4875-14.7108 36.4875-19.6355Z"/>
  </g>
  <g id="Semibold-L" transform="matrix(1 0 0 1 1977.94 1556)">
   <path d="M16.084-2.69331Q16.084 10.9993 23.9012 18.9094Q31.7184 26.8195 45.1447 26.8195Q55.2169 26.8195 62.6655 22.1493Q70.1141 17.4791 74.81 8.72547L80.0033-0.916822Q83.6714-7.81839 88.2273-12.8687Q92.7832-17.9189 97.401-22.3764Q102.019-26.8339 105.907-31.8054Q109.795-36.7769 112.186-43.3258Q114.577-49.8748 114.577-59.2348Q114.577-74.2312 108.477-85.4509Q102.376-96.6705 91.4258-102.894Q80.4753-109.118 65.8065-109.118Q50.9458-109.118 39.7572-102.811Q28.5686-96.504 22.3263-85.1824Q16.084-73.8609 16.084-58.7839ZM35.6598-19.7004Q35.6598-24.0193 37.5621-26.2782Q39.4644-28.537 41.9637-29.8953Q44.463-31.2537 46.3654-32.7319Q48.2679-34.2101 48.2679-36.9552Q48.2679-39.2438 46.3654-41.4828Q44.463-43.7218 41.9637-46.4621Q39.4644-49.2024 37.5621-52.9635Q35.6598-56.7246 35.6598-62.1558Q35.6598-70.2044 39.418-76.4961Q43.1763-82.7877 49.9599-86.3727Q56.7436-89.9577 65.6954-89.9577Q74.8393-89.9577 81.657-86.1776Q88.4747-82.3975 92.2734-75.6261Q96.0721-68.8547 96.0721-59.7668Q96.0721-57.6739 94.6079-56.2097Q93.1437-54.7455 91.0696-54.7455Q89.0202-54.7455 87.525-56.2097Q86.0298-57.6739 86.0298-59.7668Q86.0298-68.8948 80.504-74.4236Q74.9782-79.9523 65.6954-79.9523Q56.7223-79.9523 51.2122-74.9282Q45.702-69.904 45.702-62.1558Q45.702-57.9992 47.6319-54.928Q49.5618-51.8568 52.4257-49.104Q55.2896-46.3512 58.1226-43.3415Q60.9556-40.3318 62.8948-36.4219Q64.834-32.512 64.834-26.9941Q64.834-19.2781 60.1907-14.0558Q55.5475-8.83336 48.0979-8.79014Q42.5471-8.79014 39.1034-11.8194Q35.6598-14.8486 35.6598-19.7004Z"/>
  </g>
  <g id="Medium-L" transform="matrix(1 0 0 1 1681.89 1556)">
   <path d="M16.084-2.68515Q16.084 10.5695 23.7102 18.329Q31.3364 26.0885 44.3487 26.0885Q54.1191 26.0885 61.3764 21.5921Q68.6337 17.0956 73.1969 8.62443L78.3317-0.871582Q82.1651-8.09042 86.7975-13.2491Q91.4299-18.4079 96.0799-22.8373Q100.73-27.2668 104.612-32.1421Q108.494-37.0173 110.871-43.46Q113.248-49.9027 113.248-59.2348Q113.248-74.0585 107.238-85.1457Q101.228-96.233 90.45-102.383Q79.6723-108.532 65.2204-108.532Q50.5443-108.532 39.4862-102.299Q28.428-96.0667 22.256-84.8858Q16.084-73.705 16.084-58.8247ZM35.0322-19.7497Q35.0322-24.0733 36.9688-26.3126Q38.9055-28.5519 41.4473-29.8944Q43.9891-31.2369 45.9259-32.721Q47.8627-34.205 47.8627-37.0218Q47.8627-39.3545 45.9259-41.6235Q43.9891-43.8926 41.4473-46.6429Q38.9055-49.3932 36.9688-53.14Q35.0322-56.8869 35.0322-62.2776Q35.0322-70.2621 38.7926-76.5095Q42.5531-82.757 49.3451-86.3158Q56.1371-89.8747 65.0974-89.8747Q74.2016-89.8747 80.9894-86.1024Q87.7772-82.3301 91.56-75.5744Q95.3428-68.8188 95.3428-59.7465Q95.3428-57.8016 93.9787-56.4375Q92.6145-55.0733 90.6805-55.0733Q88.7833-55.0733 87.39-56.4375Q85.9968-57.8016 85.9968-59.7465Q85.9968-69.1592 80.3207-74.8603Q74.6447-80.5615 65.0974-80.5615Q55.7955-80.5615 50.0808-75.3814Q44.3661-70.2014 44.3661-62.2776Q44.3661-58.1416 46.32-55.0928Q48.274-52.0439 51.17-49.3052Q54.066-46.5665 56.9331-43.5607Q59.8002-40.5549 61.7594-36.6268Q63.7186-32.6986 63.7186-27.1444Q63.7186-19.516 59.1437-14.2927Q54.5687-9.06943 47.2634-9.02217Q41.804-9.02217 38.4181-11.9876Q35.0322-14.9531 35.0322-19.7497Z"/>
  </g>
  <g id="Regular-L" transform="matrix(1 0 0 1 1386.05 1556)">
   <path d="M16.084-2.67451Q16.084 10.0089 23.4611 17.572Q30.8382 25.1351 43.3106 25.1351Q52.6872 25.1351 59.6949 20.8653Q66.7027 16.5954 71.0928 8.49263L76.1514-0.812573Q80.2003-8.44523 84.9325-13.7454Q89.6647-19.0456 94.3567-23.4386Q99.0487-27.8315 102.923-32.5812Q106.796-37.331 109.155-43.635Q111.514-49.9391 111.514-59.2348Q111.514-73.8333 105.622-84.7477Q99.7296-95.6622 89.1772-101.715Q78.6249-107.768 64.4559-107.768Q50.0206-107.768 39.1327-101.632Q28.2447-95.4963 22.1644-84.4989Q16.084-73.5015 16.084-58.8779ZM34.2136-19.8139Q34.2136-24.1438 36.1951-26.3576Q38.1765-28.5713 40.7737-29.8932Q43.3709-31.2151 45.3526-32.7068Q47.3343-34.1984 47.3343-37.1087Q47.3343-39.4989 45.3526-41.8071Q43.3709-44.1153 40.7737-46.8786Q38.1765-49.6419 36.1951-53.3703Q34.2136-57.0986 34.2136-62.4365Q34.2136-70.3373 37.9769-76.5271Q41.7401-82.7169 48.5431-86.2417Q55.3461-89.7664 64.3175-89.7664Q73.3697-89.7664 80.1186-86.0043Q86.8674-82.2422 90.6295-75.507Q94.3917-68.7719 94.3917-59.7201Q94.3917-57.9683 93.158-56.7346Q91.9243-55.501 90.173-55.501Q88.4742-55.501 87.214-56.7346Q85.9539-57.9683 85.9539-59.7201Q85.9539-69.504 80.0818-75.43Q74.2097-81.356 64.3175-81.356Q54.5866-81.356 48.605-75.9726Q42.6235-70.5892 42.6235-62.4365Q42.6235-58.3273 44.6089-55.3076Q46.5943-52.288 49.5321-49.5676Q52.47-46.8473 55.3815-43.8467Q58.2931-40.846 60.2785-36.894Q62.2639-32.942 62.2639-27.3405Q62.2639-19.8263 57.778-14.6018Q53.292-9.37735 46.1749-9.32481Q40.8349-9.32481 37.5242-12.2071Q34.2136-15.0893 34.2136-19.8139Z"/>
  </g>
  <g id="Light-L" transform="matrix(1 0 0 1 1090.26 1556)">
   <path d="M16.084-2.71267Q16.084 9.45545 23.2798 16.799Q30.4756 24.1426 42.5089 24.1426Q51.7522 24.1426 58.7121 19.7011Q65.6721 15.2596 69.9285 7.00383L74.2047-1.17523Q78.2728-9.24687 83.0241-14.6806Q87.7754-20.1144 92.4865-24.431Q97.1975-28.7476 101.081-33.3066Q104.964-37.8656 107.313-43.9692Q109.663-50.0728 109.663-59.2348Q109.663-73.5851 103.894-84.2897Q98.1263-94.9943 87.784-100.923Q77.4417-106.852 63.5398-106.852Q49.4098-106.852 38.7222-100.783Q28.0347-94.7139 22.0593-83.8692Q16.084-73.0244 16.084-58.6872ZM33.7938-19.4705Q33.7938-23.514 35.7275-25.4796Q37.6612-27.4452 40.1916-28.6526Q42.7219-29.86 44.656-31.4376Q46.5901-33.0152 46.5901-36.2689Q46.5901-38.7547 44.656-41.1296Q42.7219-43.5045 40.1916-46.3156Q37.6612-49.1266 35.7275-52.9028Q33.7938-56.6789 33.7938-62.0931Q33.7938-69.8409 37.4903-75.9735Q41.1867-82.106 47.8561-85.6213Q54.5256-89.1367 63.3058-89.1367Q72.1673-89.1367 78.7729-85.4699Q85.3786-81.8032 89.0453-75.2207Q92.7121-68.6382 92.7121-59.7775Q92.7121-58.4262 91.7648-57.4789Q90.8174-56.5316 89.4669-56.5316Q88.1497-56.5316 87.1853-57.4789Q86.221-58.4262 86.221-59.7775Q86.221-70.153 80.0149-76.4225Q73.8089-82.6919 63.3058-82.6919Q52.9644-82.6919 46.6011-76.8122Q40.2378-70.9326 40.2378-62.0931Q40.2378-57.812 42.2614-54.7064Q44.2849-51.6008 47.28-48.8901Q50.2751-46.1794 53.2535-43.2169Q56.2319-40.2544 58.2555-36.35Q60.279-32.4456 60.279-26.8634Q60.279-19.7689 55.8885-14.9071Q51.498-10.0453 44.6861-10.012Q39.8232-10.012 36.8085-12.6079Q33.7938-15.2038 33.7938-19.4705Z"/>
  </g>
  <g id="Thin-L" transform="matrix(1 0 0 1 794.773 1556)">
   <path d="M16.084-2.76313Q16.084 8.72346 23.04 15.7768Q29.9959 22.8301 41.4487 22.8301Q50.5155 22.8301 57.4123 18.1614Q64.309 13.4928 68.3886 5.03476L71.63-1.65488Q75.7236-10.3071 80.5001-15.9175Q85.2766-21.5279 90.0129-25.7436Q94.7493-29.9592 98.6451-34.2659Q102.541-38.5725 104.878-44.4111Q107.214-50.2496 107.214-59.2348Q107.214-73.2569 101.61-83.6839Q96.0058-94.1109 85.9413-99.8754Q75.8768-105.64 62.3282-105.64Q48.6019-105.64 38.1794-99.6595Q27.7569-93.6791 21.9204-83.0362Q16.084-72.3933 16.084-58.4348ZM33.2387-19.0163Q33.2387-22.6811 35.1092-24.3184Q36.9797-25.9558 39.4216-27.0118Q41.8635-28.0678 43.7346-29.7591Q45.6057-31.4503 45.6057-35.1582Q45.6057-37.7704 43.7346-40.2335Q41.8635-42.6966 39.4216-45.5708Q36.9797-48.4451 35.1092-52.2844Q33.2387-56.1237 33.2387-61.6389Q33.2387-69.1844 36.8467-75.2413Q40.4547-81.2981 46.9475-84.8009Q53.4403-88.3037 61.9678-88.3037Q70.5769-88.3037 76.9932-84.7632Q83.4095-81.2226 86.9501-74.842Q90.4907-68.4613 90.4907-59.8534Q90.4907-59.0318 89.9221-58.4632Q89.3535-57.8946 88.5331-57.8946Q87.7205-57.8946 87.1474-58.4632Q86.5742-59.0318 86.5742-59.8534Q86.5742-71.0114 79.9265-77.735Q73.2788-84.4587 61.9678-84.4587Q50.8189-84.4587 43.9507-77.9227Q37.0826-71.3868 37.0826-61.6389Q37.0826-57.1305 39.1566-53.9112Q41.2306-50.692 44.3014-47.994Q47.3721-45.296 50.439-42.384Q53.5059-39.4719 55.5799-35.6305Q57.6539-31.7891 57.6539-26.2323Q57.6539-19.693 53.3895-15.3108Q49.1252-10.9287 42.7171-10.9208Q38.4852-10.9208 35.8619-13.138Q33.2387-15.3552 33.2387-19.0163Z"/>
  </g>
  <g id="Ultralight-L" transform="matrix(1 0 0 1 498.689 1556)">
   <path d="M16.084-2.78898Q16.084 8.34855 22.9171 15.2532Q29.7502 22.1578 40.9056 22.1578Q49.8821 22.1578 56.7465 17.3728Q63.6109 12.5879 67.5999 4.02622L70.3113-1.90056Q74.4179-10.8502 79.2073-16.551Q83.9968-22.2519 88.746-26.4158Q93.4953-30.5798 97.3975-34.7572Q101.3-38.9346 103.63-44.6374Q105.96-50.3402 105.96-59.2348Q105.96-73.0887 100.44-83.3736Q94.9197-93.6584 84.9975-99.3389Q75.0752-105.019 61.7076-105.019Q48.1881-105.019 37.9014-99.0842Q27.6146-93.1491 21.8493-82.6096Q16.084-72.0701 16.084-58.3056ZM32.9544-18.7837Q32.9544-22.2545 34.7925-23.7237Q36.6306-25.1929 39.0273-26.1714Q41.4239-27.1498 43.2627-28.8993Q45.1016-30.6488 45.1016-34.5893Q45.1016-37.2662 43.2627-39.7745Q41.4239-42.2828 39.0273-45.1894Q36.6306-48.096 34.7925-51.9677Q32.9544-55.8394 32.9544-61.4062Q32.9544-68.8481 36.5171-74.8662Q40.0798-80.8843 46.4821-84.3807Q52.8845-87.8771 61.2825-87.8771Q69.7623-87.8771 76.0817-84.4012Q82.401-80.9252 85.8769-74.648Q89.3529-68.3707 89.3529-59.8923Q89.3529-59.342 88.9783-58.9674Q88.6036-58.5927 88.0547-58.5927Q87.5007-58.5927 87.1279-58.9674Q86.7552-59.342 86.7552-59.8923Q86.7552-71.4511 79.8812-78.4073Q73.0072-85.3636 61.2825-85.3636Q49.72-85.3636 42.5932-78.4915Q35.4665-71.6195 35.4665-61.4062Q35.4665-56.7814 37.5663-53.5039Q39.6662-50.2265 42.7757-47.535Q45.8853-44.8435 48.9974-41.9573Q52.1096-39.0712 54.2094-35.262Q56.3093-31.4529 56.3093-25.9091Q56.3093-19.6541 52.1096-15.5176Q47.9098-11.3811 41.7085-11.3863Q37.7999-11.3863 35.3771-13.4095Q32.9544-15.4328 32.9544-18.7837Z"/>
  </g>
  <g id="Black-M" transform="matrix(1 0 0 1 2879.58 1126)">
   <path d="M12.4609-10.0786Q12.4609 2.67491 19.4674 9.52627Q26.4739 16.3776 38.9199 16.3776Q48.2774 16.3776 55.0456 11.7804Q61.8138 7.18326 66.1094-1.14709L70.1762-9.00917Q72.1492-12.8245 75.2799-16.2079Q78.4106-19.5913 81.8241-23.1671Q85.2377-26.743 88.2853-31.0395Q91.3328-35.3361 93.2566-40.9048Q95.1804-46.4735 95.1804-53.8274Q95.1804-66.2762 90.0178-75.5989Q84.8552-84.9216 75.5274-90.0946Q66.1996-95.2677 53.7765-95.2677Q41.3892-95.2677 32.0978-90.0098Q22.8064-84.752 17.6337-75.2874Q12.4609-65.8229 12.4609-53.197ZM30.8096-22.8206Q30.8096-26.0441 32.0851-27.8131Q33.3605-29.5822 35.049-30.6794Q36.7376-31.7766 38.013-32.9202Q39.2884-34.0637 39.2884-35.9278Q39.2884-37.4996 38.013-39.0978Q36.7376-40.696 35.049-42.7825Q33.3605-44.869 32.0851-47.8744Q30.8096-50.8799 30.8096-55.3282Q30.8096-61.8517 33.687-66.9407Q36.5645-72.0297 41.73-74.9425Q46.8956-77.8553 53.7209-77.8553Q60.951-77.8553 66.3425-74.9178Q71.734-71.9802 74.7286-66.7028Q77.7233-61.4254 77.7233-54.3665Q77.7233-52.097 76.1563-50.53Q74.5893-48.963 72.3769-48.963Q70.1128-48.963 68.5146-50.53Q66.9163-52.097 66.9163-54.3665Q66.9163-60.1316 63.3178-63.6184Q59.7193-67.1052 53.7209-67.1052Q48.3038-67.1052 44.9889-63.87Q41.674-60.6348 41.674-55.3282Q41.674-51.9405 43.0545-49.4133Q44.4351-46.8861 46.5033-44.682Q48.5716-42.4778 50.6085-40.1382Q52.6454-37.7987 54.0545-34.8825Q55.4636-31.9664 55.4636-27.8903Q55.4636-21.5913 51.5371-17.6736Q47.6106-13.7558 41.1785-13.7503Q36.5556-13.7503 33.6826-16.3376Q30.8096-18.9249 30.8096-22.8206Z"/>
  </g>
  <g id="Heavy-M" transform="matrix(1 0 0 1 2583.78 1126)">
   <path d="M12.4609-10.0567Q12.4609 2.07525 19.1871 8.72204Q25.9132 15.3688 37.7615 15.3688Q46.643 15.3688 53.1016 11.099Q59.5602 6.82912 63.6627-0.996204L67.7999-8.85564Q70.045-13.107 73.2995-16.6431Q76.554-20.1791 80.0172-23.7245Q83.4805-27.2699 86.5159-31.4466Q89.5513-35.6233 91.4535-41.0573Q93.3558-46.4914 93.3558-53.8274Q93.3558-66.0409 88.3176-75.1872Q83.2794-84.3335 74.1954-89.4091Q65.1113-94.4847 52.9935-94.4847Q40.8492-94.4847 31.7329-89.3369Q22.6166-84.189 17.5388-74.9268Q12.4609-65.6646 12.4609-53.3062ZM29.8506-22.9767Q29.8506-26.2696 31.1937-28.0593Q32.5369-29.849 34.3108-30.9444Q36.0847-32.0398 37.4278-33.1746Q38.771-34.3095 38.771-36.2195Q38.771-37.8446 37.4278-39.4787Q36.0847-41.1127 34.3108-43.2056Q32.5369-45.2985 31.1937-48.27Q29.8506-51.2414 29.8506-55.6056Q29.8506-62.0547 32.746-67.0821Q35.6414-72.1095 40.8497-74.9807Q46.058-77.8518 52.9385-77.8518Q60.1432-77.8518 65.5155-74.9068Q70.8878-71.9619 73.8764-66.6779Q76.865-61.394 76.865-54.3203Q76.865-52.2122 75.4037-50.751Q73.9425-49.2897 71.878-49.2897Q69.7864-49.2897 68.2951-50.751Q66.8038-52.2122 66.8038-54.3203Q66.8038-60.4342 63.0259-64.1354Q59.2479-67.8366 52.9385-67.8366Q47.1028-67.8366 43.5279-64.4473Q39.953-61.0581 39.953-55.6056Q39.953-52.2892 41.3656-49.8179Q42.7782-47.3465 44.8878-45.1639Q46.9974-42.9812 49.077-40.64Q51.1566-38.2988 52.591-35.3419Q54.0254-32.385 54.0254-28.2441Q54.0254-22.0013 50.1925-18.0042Q46.3596-14.007 40.1031-13.9906Q35.5308-13.9906 32.6907-16.5328Q29.8506-19.075 29.8506-22.9767Z"/>
  </g>
  <g id="Bold-M" transform="matrix(1 0 0 1 2288.09 1126)">
   <path d="M12.4609-10.0323Q12.4609 1.40444 18.8735 7.82238Q25.2861 14.2403 36.4656 14.2403Q44.8146 14.2403 50.9269 10.3366Q57.0392 6.43297 60.9257-0.827413L65.1416-8.68389Q67.691-13.4231 71.0841-17.1299Q74.4771-20.8367 77.996-24.3481Q81.5149-27.8594 84.5366-31.902Q87.5583-35.9445 89.4366-41.228Q91.3148-46.5115 91.3148-53.8274Q91.3148-65.7776 86.4158-74.7267Q81.5167-83.6757 72.7053-88.6423Q63.8939-93.6088 52.1177-93.6088Q40.2452-93.6088 31.3247-88.584Q22.4042-83.5593 17.4326-74.5234Q12.4609-65.4876 12.4609-53.4283ZM28.7777-23.1514Q28.7777-26.5219 30.1966-28.3347Q31.6156-30.1475 33.4849-31.2408Q35.3543-32.3341 36.7733-33.4592Q38.1922-34.5843 38.1922-36.5459Q38.1922-38.2305 36.7733-39.9047Q35.3543-41.5789 33.4849-43.679Q31.6156-45.779 30.1966-48.7124Q28.7777-51.6457 28.7777-55.9159Q28.7777-62.2817 31.6933-67.2403Q34.6088-72.1989 39.8649-75.0234Q45.1211-77.8479 52.0634-77.8479Q59.2394-77.8479 64.5903-74.8946Q69.9411-71.9413 72.923-66.6501Q75.9048-61.3589 75.9048-54.2686Q75.9048-52.3411 74.5618-50.9982Q73.2189-49.6552 71.32-49.6552Q69.4212-49.6552 68.0496-50.9982Q66.6781-52.3411 66.6781-54.2686Q66.6781-60.7726 62.6993-64.7137Q58.7205-68.6548 52.0634-68.6548Q45.7594-68.6548 41.8936-65.0932Q38.0278-61.5316 38.0278-55.9159Q38.0278-52.6792 39.4763-50.2704Q40.9248-47.8616 43.0806-45.703Q45.2365-43.5444 47.3638-41.2013Q49.491-38.8583 50.9538-35.8558Q52.4166-32.8533 52.4166-28.6399Q52.4166-22.46 48.6884-18.374Q44.9603-14.288 38.9003-14.2594Q34.3843-14.2594 31.581-16.7511Q28.7777-19.2429 28.7777-23.1514Z"/>
  </g>
  <g id="Semibold-M" transform="matrix(1 0 0 1 1992.08 1126)">
   <path d="M12.4609-10.0155Q12.4609 0.94199 18.6573 7.20217Q24.8538 13.4623 35.5722 13.4623Q43.5542 13.4623 49.4277 9.8111Q55.3013 6.15987 59.0389-0.71105L63.309-8.56548Q66.0683-13.641 69.5568-17.4655Q73.0453-21.2901 76.6025-24.7779Q80.1598-28.2658 83.1721-32.2159Q86.1844-36.166 88.0461-41.3457Q89.9078-46.5253 89.9078-53.8274Q89.9078-65.5961 85.1047-74.4091Q80.3015-83.2222 71.6781-88.1136Q63.0547-93.0049 51.5138-93.0049Q39.8288-93.0049 31.0433-88.065Q22.2578-83.1251 17.3594-74.2454Q12.4609-65.3656 12.4609-53.5125ZM28.0381-23.2718Q28.0381-26.6959 29.5093-28.5246Q30.9804-30.3533 32.9156-31.4452Q34.8508-32.537 36.322-33.6554Q37.7932-34.7738 37.7932-36.7709Q37.7932-38.4965 36.322-40.1984Q34.8508-41.9003 32.9156-44.0053Q30.9804-46.1103 29.5093-49.0174Q28.0381-51.9245 28.0381-56.1298Q28.0381-62.4383 30.9676-67.3494Q33.897-72.2605 39.1861-75.0528Q44.4751-77.8452 51.4601-77.8452Q58.6164-77.8452 63.9524-74.8861Q69.2885-71.9271 72.2657-66.6309Q75.2429-61.3347 75.2429-54.233Q75.2429-52.43 73.9814-51.1686Q72.72-49.9072 70.9353-49.9072Q69.1695-49.9072 67.8804-51.1686Q66.5914-52.43 66.5914-54.233Q66.5914-61.0059 62.4742-65.1124Q58.357-69.2189 51.4601-69.2189Q44.8332-69.2189 40.7669-65.5385Q36.7006-61.8581 36.7006-56.1298Q36.7006-52.9481 38.1739-50.5824Q39.6471-48.2166 41.8348-46.0746Q44.0225-43.9326 46.1827-41.5883Q48.3429-39.244 49.8251-36.2101Q51.3074-33.1761 51.3074-28.9127Q51.3074-22.7762 47.6515-18.629Q43.9955-14.4817 38.071-14.4447Q33.5939-14.4447 30.816-16.9017Q28.0381-19.3586 28.0381-23.2718Z"/>
  </g>
  <g id="Medium-M" transform="matrix(1 0 0 1 1695.9 1126)">
   <path d="M12.4609-10.0027Q12.4609 0.591341 18.4934 6.73189Q24.5259 12.8724 34.8949 12.8724Q42.5984 12.8724 48.291 9.41261Q53.9835 5.95279 57.6082-0.622818L61.9195-8.4757Q64.8378-13.8063 68.3987-17.72Q71.9597-21.6338 75.546-25.1039Q79.1323-28.574 82.1374-32.454Q85.1426-36.334 86.9917-41.4349Q88.8409-46.5357 88.8409-53.8274Q88.8409-65.4584 84.1105-74.1684Q79.3801-82.8784 70.8992-87.7127Q62.4183-92.5471 51.056-92.5471Q39.513-92.5471 30.8299-87.6715Q22.1468-82.796 17.3039-74.0345Q12.4609-65.273 12.4609-53.5764ZM27.4774-23.363Q27.4774-26.8278 28.9881-28.6686Q30.4988-30.5093 32.4839-31.6001Q34.4691-32.6909 35.9798-33.8042Q37.4906-34.9175 37.4906-36.9414Q37.4906-38.6982 35.9798-40.4211Q34.4691-42.144 32.4839-44.2527Q30.4988-46.3614 28.9881-49.2487Q27.4774-52.1359 27.4774-56.292Q27.4774-62.557 30.4173-67.4321Q33.3572-72.3072 38.6713-75.0751Q43.9854-77.8431 51.0026-77.8431Q58.144-77.8431 63.4688-74.8797Q68.7937-71.9164 71.7673-66.6163Q74.741-61.3163 74.741-54.2059Q74.741-52.4974 73.5414-51.2978Q72.3418-50.0982 70.6436-50.0982Q68.9786-50.0982 67.7521-51.2978Q66.5256-52.4974 66.5256-54.2059Q66.5256-61.1828 62.3035-65.4147Q58.0813-69.6466 51.0026-69.6466Q44.1309-69.6466 39.9126-65.8761Q35.6943-62.1056 35.6943-56.292Q35.6943-53.152 37.1863-50.8189Q38.6782-48.4858 40.8901-46.3564Q43.1021-44.227 45.2872-41.8817Q47.4723-39.5365 48.9693-36.4787Q50.4664-33.4209 50.4664-29.1196Q50.4664-23.016 46.8652-18.8223Q43.2641-14.6286 37.4422-14.5852Q32.9947-14.5852 30.236-17.0158Q27.4774-19.4464 27.4774-23.363Z"/>
  </g>
  <g id="Regular-M" transform="matrix(1 0 0 1 1399.89 1126)">
   <path d="M12.4609-9.98604Q12.4609 0.133973 18.2796 6.11849Q24.0983 12.103 34.0113 12.103Q41.3518 12.103 46.8082 8.89285Q52.2646 5.68268 55.7421-0.507733L60.107-8.3586Q63.2329-14.0218 66.8882-18.052Q70.5436-22.0822 74.1678-25.529Q77.792-28.9759 80.7879-32.7645Q83.7838-36.553 85.6165-41.5512Q87.4493-46.5494 87.4493-53.8274Q87.4493-65.2789 82.8138-73.8544Q78.1783-82.4299 69.8833-87.1899Q61.5883-91.9499 50.4588-91.9499Q39.1012-91.9499 30.5516-87.1582Q22.0021-82.3666 17.2315-73.7595Q12.4609-65.1523 12.4609-53.6597ZM26.7459-23.4821Q26.7459-26.9998 28.3082-28.8563Q29.8706-30.7129 31.9208-31.8022Q33.9711-32.8916 35.5335-33.9983Q37.096-35.105 37.096-37.164Q37.096-38.9613 35.5335-40.7116Q33.9711-42.4618 31.9208-44.5754Q29.8706-46.6891 28.3082-49.5503Q26.7459-52.4116 26.7459-56.5036Q26.7459-62.7118 29.6995-67.5399Q32.6532-72.3681 37.9999-75.1042Q43.3466-77.8404 50.4059-77.8404Q57.5278-77.8404 62.838-74.8714Q68.1482-71.9023 71.1173-66.5974Q74.0863-61.2924 74.0863-54.1707Q74.0863-52.5853 72.9674-51.4663Q71.8484-50.3474 70.2632-50.3474Q68.7296-50.3474 67.5847-51.4663Q66.4399-52.5853 66.4399-54.1707Q66.4399-61.4136 62.0808-65.809Q57.7218-70.2044 50.4059-70.2044Q43.2149-70.2044 38.7983-66.3164Q34.3817-62.4284 34.3817-56.5036Q34.3817-53.418 35.8981-51.1275Q37.4145-48.837 39.658-46.724Q41.9014-44.6109 44.1191-42.2644Q46.3367-39.918 47.8531-36.829Q49.3695-33.7401 49.3695-29.3894Q49.3695-23.3287 45.8397-19.0744Q42.3099-14.8201 36.6221-14.7685Q32.213-14.7685 29.4794-17.1647Q26.7459-19.5608 26.7459-23.4821Z"/>
  </g>
  <g id="Light-M" transform="matrix(1 0 0 1 1104.01 1126)">
   <path d="M12.4609-10.0202Q12.4609-0.362225 18.1171 5.42551Q23.7732 11.2132 33.2926 11.2132Q40.5135 11.2132 45.9271 7.84913Q51.3407 4.48502 54.6982-1.84252L58.3617-8.68374Q61.5048-14.7405 65.1773-18.8904Q68.8498-23.0403 72.4911-26.4188Q76.1324-29.7972 79.1367-33.4148Q82.1411-37.0323 83.9653-41.8508Q85.7896-46.6693 85.7896-53.8274Q85.7896-65.0564 81.2653-73.4437Q76.7409-81.831 68.6342-86.4798Q60.5274-91.1285 49.6374-91.1285Q38.5535-91.1285 30.1836-86.3968Q21.8137-81.6651 17.1373-73.1948Q12.4609-64.7246 12.4609-53.4886ZM26.3696-23.1742Q26.3696-26.4352 27.8891-28.0692Q29.4086-29.7032 31.3989-30.69Q33.3892-31.6767 34.909-32.8604Q36.4287-34.0441 36.4287-36.411Q36.4287-38.2941 34.909-40.1041Q33.3892-41.9142 31.3989-44.0706Q29.4086-46.2271 27.8891-49.1312Q26.3696-52.0353 26.3696-56.1957Q26.3696-62.2668 29.2633-67.0436Q32.157-71.8204 37.384-74.5481Q42.6109-77.2758 49.4989-77.2758Q56.4497-77.2758 61.6316-74.3923Q66.8134-71.5088 69.6969-66.3406Q72.5805-61.1725 72.5805-54.2222Q72.5805-52.9958 71.7182-52.1336Q70.856-51.2714 69.6301-51.2714Q68.4387-51.2714 67.559-52.1336Q66.6793-52.9958 66.6793-54.2222Q66.6793-61.9954 62.0209-66.6988Q57.3624-71.4021 49.4989-71.4021Q41.7605-71.4021 37.0017-67.0692Q32.2428-62.7363 32.2428-56.1957Q32.2428-52.956 33.7934-50.5884Q35.344-48.2209 37.6388-46.1165Q39.9336-44.0121 42.2112-41.6998Q44.4887-39.3875 46.0393-36.3413Q47.59-33.2951 47.59-28.9617Q47.59-23.2773 44.1457-19.3481Q40.7015-15.419 35.2873-15.3845Q31.306-15.3845 28.8378-17.524Q26.3696-19.6635 26.3696-23.1742Z"/>
  </g>
  <g id="Thin-M" transform="matrix(1 0 0 1 808.395 1126)">
   <path d="M12.4609-10.0655Q12.4609-1.01849 17.902 4.50899Q23.3432 10.0365 32.3421 10.0365Q39.4048 10.0365 44.7617 6.46874Q50.1186 2.90102 53.3176-3.60789L56.0534-9.11377Q59.2193-15.6911 62.9144-19.9993Q66.6095-24.3076 70.2734-27.5956Q73.9374-30.8835 76.9529-34.2748Q79.9685-37.6661 81.7815-42.247Q83.5946-46.8278 83.5946-53.8274Q83.5946-64.7621 79.2172-72.9006Q74.8398-81.039 66.9821-85.5406Q59.1244-90.0423 48.5511-90.0423Q37.8292-90.0423 29.6969-85.3898Q21.5647-80.7374 17.0128-72.4481Q12.4609-64.1588 12.4609-53.2624ZM25.8719-22.767Q25.8719-25.6884 27.3347-27.0282Q28.7976-28.3679 30.7086-29.2189Q32.6197-30.0699 34.0829-31.3555Q35.5462-32.6411 35.5462-35.4152Q35.5462-37.4116 34.0829-39.3007Q32.6197-41.1898 30.7086-43.4029Q28.7976-45.616 27.3347-48.5768Q25.8719-51.5376 25.8719-55.7885Q25.8719-61.6782 28.6863-66.3871Q31.5008-71.0961 36.5693-73.8126Q41.6379-76.529 48.2993-76.529Q55.0239-76.529 60.036-73.7586Q65.0481-70.9882 67.8185-66.0011Q70.5889-61.014 70.5889-54.2902Q70.5889-53.5388 70.0662-53.0161Q69.5435-52.4934 68.7929-52.4934Q68.0539-52.4934 67.525-53.0161Q66.9961-53.5388 66.9961-54.2902Q66.9961-62.765 61.9416-67.8756Q56.8871-72.9861 48.2993-72.9861Q39.837-72.9861 34.6255-68.0648Q29.414-63.1435 29.414-55.7885Q29.414-52.345 31.0098-49.8755Q32.6057-47.4061 34.9683-45.3131Q37.331-43.2201 39.6878-40.9531Q42.0447-38.686 43.6405-35.6963Q45.2364-32.7065 45.2364-28.3959Q45.2364-23.2092 41.9053-19.7101Q38.5741-16.211 33.5219-16.1994Q30.1064-16.1994 27.9891-17.9993Q25.8719-19.7992 25.8719-22.767Z"/>
  </g>
  <g id="Ultralight-M" transform="matrix(1 0 0 1 512.246 1126)">
   <path d="M12.4609-10.0887Q12.4609-1.35462 17.7919 4.03955Q23.1229 9.43372 31.8552 9.43372Q38.8369 9.43372 44.1648 5.76171Q49.4927 2.0897 52.6105-4.5121L54.871-9.33403Q58.0487-16.1779 61.7553-20.5673Q65.462-24.9567 69.1376-28.1983Q72.8131-31.4399 75.8344-34.7153Q78.8557-37.9907 80.663-42.4499Q82.4703-46.9091 82.4703-53.8274Q82.4703-64.6114 78.1682-72.6224Q73.866-80.6334 66.1359-85.0596Q58.4058-89.4859 47.9947-89.4859Q37.4582-89.4859 29.4477-84.874Q21.4371-80.2622 16.949-72.0656Q12.4609-63.869 12.4609-53.1465ZM25.6169-22.5584Q25.6169-25.3059 27.0508-26.4949Q28.4846-27.6839 30.3551-28.4654Q32.2255-29.2469 33.6599-30.5847Q35.0942-31.9225 35.0942-34.9052Q35.0942-36.9596 33.6599-38.8892Q32.2255-40.8188 30.3551-43.061Q28.4846-45.3031 27.0508-48.2929Q25.6169-51.2827 25.6169-55.5799Q25.6169-61.3767 28.3908-66.0509Q31.1646-70.7251 36.1521-73.4358Q41.1395-76.1466 47.6849-76.1466Q54.2936-76.1466 59.2187-73.4341Q64.1439-70.7216 66.8563-65.8272Q69.5688-60.9327 69.5688-54.3251Q69.5688-53.8169 69.22-53.4681Q68.8712-53.1193 68.364-53.1193Q67.8568-53.1193 67.5075-53.4681Q67.1583-53.8169 67.1583-54.3251Q67.1583-63.1592 61.901-68.4783Q56.6437-73.7974 47.6849-73.7974Q38.8518-73.7974 33.4084-68.5748Q27.965-63.3521 27.965-55.5799Q27.965-52.032 29.5841-49.5104Q31.2031-46.9888 33.6005-44.9016Q35.9979-42.8144 38.3954-40.5706Q40.7928-38.3267 42.4119-35.3659Q44.0309-32.4051 44.0309-28.1061Q44.0309-23.1743 40.7577-19.8955Q37.4845-16.6166 32.6177-16.6167Q29.4919-16.6167 27.5544-18.2427Q25.6169-19.8687 25.6169-22.5584Z"/>
  </g>
  <g id="Black-S" transform="matrix(1 0 0 1 2890.99 696)">
   <path d="M9.76562-15.5273Q9.76562-5.37109 15.332 0.0488281Q20.8984 5.46875 30.8105 5.46875Q38.2812 5.46875 43.6768 1.75781Q49.0723-1.95312 52.4902-8.64258L55.6152-14.7461Q57.0801-17.627 59.4971-20.2393Q61.9141-22.8516 64.5752-25.6592Q67.2363-28.4668 69.6289-31.8604Q72.0215-35.2539 73.5352-39.6484Q75.0488-44.043 75.0488-49.8047Q75.0488-59.6191 70.9717-66.9678Q66.8945-74.3164 59.5215-78.3936Q52.1484-82.4707 42.334-82.4707Q32.5684-82.4707 25.2441-78.3203Q17.9199-74.1699 13.8428-66.6992Q9.76562-59.2285 9.76562-49.2676ZM24.4141-25.4395Q24.4141-27.9297 25.3906-29.2969Q26.3672-30.6641 27.6611-31.5186Q28.9551-32.373 29.9316-33.2764Q30.9082-34.1797 30.9082-35.6445Q30.9082-36.8652 29.9316-38.1104Q28.9551-39.3555 27.6611-40.9912Q26.3672-42.627 25.3906-44.9951Q24.4141-47.3633 24.4141-50.8789Q24.4141-56.0059 26.6602-60.0098Q28.9062-64.0137 32.9346-66.3086Q36.9629-68.6035 42.2852-68.6035Q47.9492-68.6035 52.1729-66.3086Q56.3965-64.0137 58.7402-59.8877Q61.084-55.7617 61.084-50.2441Q61.084-48.4375 59.8389-47.1924Q58.5938-45.9473 56.8359-45.9473Q55.0293-45.9473 53.7598-47.1924Q52.4902-48.4375 52.4902-50.2441Q52.4902-54.6875 49.707-57.373Q46.9238-60.0586 42.2852-60.0586Q38.1348-60.0586 35.5957-57.5439Q33.0566-55.0293 33.0566-50.8789Q33.0566-48.1934 34.1309-46.1914Q35.2051-44.1895 36.8164-42.4561Q38.4277-40.7227 40.0146-38.8916Q41.6016-37.0605 42.7002-34.79Q43.7988-32.5195 43.7988-29.3457Q43.7988-24.4141 40.6982-21.3867Q37.5977-18.3594 32.5195-18.3594Q28.9062-18.3594 26.6602-20.3857Q24.4141-22.4121 24.4141-25.4395Z"/>
  </g>
  <g id="Heavy-S" transform="matrix(1 0 0 1 2594.96 696)">
   <path d="M9.76562-15.5043Q9.76562-5.82055 15.1131-0.550444Q20.4605 4.71966 29.9116 4.71966Q36.9905 4.71966 42.1267 1.30836Q47.2629-2.10294 50.5311-8.34294L53.8059-14.5732Q55.5012-17.7768 58.0219-20.5043Q60.5427-23.2319 63.2441-26.0222Q65.9456-28.8125 68.3266-32.1254Q70.7077-35.4383 72.2041-39.7406Q73.7005-44.043 73.7005-49.8047Q73.7005-59.4463 69.7155-66.6681Q65.7306-73.89 58.5419-77.898Q51.3532-81.906 41.7693-81.906Q32.1765-81.906 24.9791-77.842Q17.7816-73.7781 13.7736-66.463Q9.76562-59.1478 9.76562-49.3828ZM23.6419-25.6123Q23.6419-28.1948 24.6819-29.608Q25.7218-31.0213 27.0964-31.8873Q28.4711-32.7534 29.511-33.6394Q30.5509-34.5254 30.5509-35.9903Q30.5509-37.2455 29.511-38.5137Q28.4711-39.7819 27.0964-41.4176Q25.7218-43.0534 24.6819-45.3869Q23.6419-47.7205 23.6419-51.1555Q23.6419-56.2363 25.9111-60.1942Q28.1802-64.152 32.2604-66.4123Q36.3406-68.6727 41.732-68.6727Q47.396-68.6727 51.6197-66.3605Q55.8433-64.0482 58.1928-59.8992Q60.5423-55.7502 60.5423-50.198Q60.5423-48.4836 59.3548-47.2961Q58.1673-46.1086 56.4902-46.1086Q54.7873-46.1086 53.5754-47.2961Q52.3635-48.4836 52.3635-50.198Q52.3635-54.8719 49.465-57.7015Q46.5666-60.5311 41.732-60.5311Q37.2935-60.5311 34.5758-57.9415Q31.8581-55.352 31.8581-51.1555Q31.8581-48.5506 32.9554-46.6063Q34.0526-44.662 35.6928-42.9458Q37.3329-41.2297 38.9486-39.3929Q40.5644-37.5561 41.6803-35.2453Q42.7962-32.9344 42.7962-29.703Q42.7962-24.7713 39.7648-21.6345Q36.7333-18.4977 31.7704-18.4861Q28.1456-18.4861 25.8938-20.5067Q23.6419-22.5274 23.6419-25.6123Z"/>
  </g>
  <g id="Bold-S" transform="matrix(1 0 0 1 2299 696)">
   <path d="M9.76562-15.4785Q9.76562-6.32324 14.8682-1.2207Q19.9707 3.88184 28.9062 3.88184Q35.5469 3.88184 40.3931 0.805664Q45.2393-2.27051 48.3398-8.00781L51.7822-14.3799Q53.7354-17.9443 56.3721-20.8008Q59.0088-23.6572 61.7554-26.4282Q64.502-29.1992 66.8701-32.4219Q69.2383-35.6445 70.7153-39.8438Q72.1924-44.043 72.1924-49.8047Q72.1924-59.2529 68.3105-66.333Q64.4287-73.4131 57.4463-77.3438Q50.4639-81.2744 41.1377-81.2744Q31.7383-81.2744 24.6826-77.3071Q17.627-73.3398 13.6963-66.1987Q9.76562-59.0576 9.76562-49.5117ZM22.7783-25.8057Q22.7783-28.4912 23.8892-29.9561Q25-31.4209 26.4648-32.2998Q27.9297-33.1787 29.0405-34.0454Q30.1514-34.9121 30.1514-36.377Q30.1514-37.6709 29.0405-38.9648Q27.9297-40.2588 26.4648-41.8945Q25-43.5303 23.8892-45.8252Q22.7783-48.1201 22.7783-51.4648Q22.7783-56.4941 25.0732-60.4004Q27.3682-64.3066 31.5063-66.5283Q35.6445-68.75 41.1133-68.75Q46.7773-68.75 51.001-66.4185Q55.2246-64.0869 57.5806-59.9121Q59.9365-55.7373 59.9365-50.1465Q59.9365-48.5352 58.8135-47.4121Q57.6904-46.2891 56.1035-46.2891Q54.5166-46.2891 53.3691-47.4121Q52.2217-48.5352 52.2217-50.1465Q52.2217-55.0781 49.1943-58.0688Q46.167-61.0596 41.1133-61.0596Q36.3525-61.0596 33.4351-58.3862Q30.5176-55.7129 30.5176-51.4648Q30.5176-48.9502 31.6406-47.0703Q32.7637-45.1904 34.436-43.4937Q36.1084-41.7969 37.7563-39.9536Q39.4043-38.1104 40.5396-35.7544Q41.6748-33.3984 41.6748-30.1025Q41.6748-25.1709 38.7207-21.9116Q35.7666-18.6523 30.9326-18.6279Q27.2949-18.6279 25.0366-20.6421Q22.7783-22.6562 22.7783-25.8057Z"/>
  </g>
  <g id="Semibold-S" transform="matrix(1 0 0 1 2002.81 696)">
   <path d="M9.76562-15.4607Q9.76562-6.66982 14.6993-1.68281Q19.633 3.3042 28.2131 3.3042Q34.5516 3.3042 39.1978 0.459082Q43.844-2.38604 46.8291-7.77676L50.387-14.2466Q52.5179-18.0599 55.2346-21.0052Q57.9513-23.9505 60.729-26.7082Q63.5066-29.4658 65.8659-32.6263Q68.2252-35.7867 69.6889-39.9148Q71.1526-44.043 71.1526-49.8047Q71.1526-59.1196 67.3419-66.102Q63.5312-73.0843 56.6909-76.9616Q49.8507-80.839 40.7022-80.839Q31.4361-80.839 24.4782-76.9383Q17.5203-73.0377 13.643-66.0166Q9.76562-58.9954 9.76562-49.6006ZM22.1829-25.939Q22.1829-28.6956 23.3426-30.196Q24.5023-31.6964 26.0294-32.5842Q27.5564-33.472 28.7162-34.3253Q29.8759-35.1787 29.8759-36.6436Q29.8759-37.9642 28.7162-39.2759Q27.5564-40.5876 26.0294-42.2233Q24.5023-43.8591 23.3426-46.1273Q22.1829-48.3956 22.1829-51.6781Q22.1829-56.6719 24.4956-60.5426Q26.8083-64.4133 30.9865-66.6083Q35.1646-68.8033 40.6867-68.8033Q46.3508-68.8033 50.5744-66.4584Q54.798-64.1136 57.1584-59.921Q59.5188-55.7284 59.5188-50.1109Q59.5188-48.5707 58.4402-47.4921Q57.3616-46.4135 55.8369-46.4135Q54.33-46.4135 53.227-47.4921Q52.1239-48.5707 52.1239-50.1109Q52.1239-55.2203 49.0077-58.3221Q45.8915-61.4239 40.6867-61.4239Q35.7038-61.4239 32.6486-58.6928Q29.5934-55.9617 29.5934-51.6781Q29.5934-49.2257 30.7342-47.3902Q31.875-45.5548 33.5696-43.8713Q35.2642-42.1879 36.9343-40.3402Q38.6045-38.4925 39.7531-36.1054Q40.9017-33.7184 40.9017-30.378Q40.9017-25.4464 38.0009-22.1027Q35.1001-18.759 30.355-18.7257Q26.7084-18.7257 24.4457-20.7354Q22.1829-22.7451 22.1829-25.939Z"/>
  </g>
  <g id="Medium-S" transform="matrix(1 0 0 1 1706.49 696)">
   <path d="M9.76562-15.4473Q9.76562-6.93262 14.5713-2.0332Q19.377 2.86621 27.6875 2.86621Q33.7969 2.86621 38.2915 0.196289Q42.7861-2.47363 45.6836-7.60156L49.3291-14.1455Q51.5947-18.1475 54.3721-21.1602Q57.1494-24.1729 59.9507-26.9204Q62.752-29.668 65.1045-32.7812Q67.457-35.8945 68.9106-39.9688Q70.3643-44.043 70.3643-49.8047Q70.3643-59.0186 66.6074-65.9268Q62.8506-72.835 56.1182-76.6719Q49.3857-80.5088 40.3721-80.5088Q31.207-80.5088 24.3232-76.6587Q17.4395-72.8086 13.6025-65.8784Q9.76562-58.9482 9.76562-49.668ZM21.7314-26.04Q21.7314-28.8506 22.9282-30.3779Q24.125-31.9053 25.6992-32.7998Q27.2734-33.6943 28.4702-34.5376Q29.667-35.3809 29.667-36.8457Q29.667-38.1865 28.4702-39.5117Q27.2734-40.8369 25.6992-42.4727Q24.125-44.1084 22.9282-46.3564Q21.7314-48.6045 21.7314-51.8398Q21.7314-56.8066 24.0576-60.6504Q26.3838-64.4941 30.5923-66.6689Q34.8008-68.8438 40.3633-68.8438Q46.0273-68.8438 50.251-66.4888Q54.4746-64.1338 56.8384-59.9277Q59.2021-55.7217 59.2021-50.084Q59.2021-48.5977 58.1572-47.5527Q57.1123-46.5078 55.6348-46.5078Q54.1885-46.5078 53.1191-47.5527Q52.0498-48.5977 52.0498-50.084Q52.0498-55.3281 48.8662-58.5142Q45.6826-61.7002 40.3633-61.7002Q35.2119-61.7002 32.0522-58.9253Q28.8926-56.1504 28.8926-51.8398Q28.8926-49.4346 30.0469-47.6328Q31.2012-45.8311 32.9126-44.1577Q34.624-42.4844 36.311-40.6333Q37.998-38.7822 39.1567-36.3716Q40.3154-33.9609 40.3154-30.5869Q40.3154-25.6553 37.4551-22.2476Q34.5947-18.8398 29.917-18.7998Q26.2637-18.7998 23.9976-20.8062Q21.7314-22.8125 21.7314-26.04Z"/>
  </g>
  <g id="Regular-S" transform="matrix(1 0 0 1 1410.29 696)">
   <path d="M9.76562-15.4297Q9.76562-7.27539 14.4043-2.49023Q19.043 2.29492 27.002 2.29492Q32.8125 2.29492 37.1094-0.146484Q41.4062-2.58789 44.1895-7.37305L47.9492-14.0137Q50.3906-18.2617 53.2471-21.3623Q56.1035-24.4629 58.9355-27.1973Q61.7676-29.9316 64.1113-32.9834Q66.4551-36.0352 67.8955-40.0391Q69.3359-44.043 69.3359-49.8047Q69.3359-58.8867 65.6494-65.6982Q61.9629-72.5098 55.3711-76.2939Q48.7793-80.0781 39.9414-80.0781Q30.9082-80.0781 24.1211-76.2939Q17.334-72.5098 13.5498-65.6982Q9.76562-58.8867 9.76562-49.7559ZM21.1426-26.1719Q21.1426-29.0527 22.3877-30.6152Q23.6328-32.1777 25.2686-33.0811Q26.9043-33.9844 28.1494-34.8145Q29.3945-35.6445 29.3945-37.1094Q29.3945-38.4766 28.1494-39.8193Q26.9043-41.1621 25.2686-42.7979Q23.6328-44.4336 22.3877-46.6553Q21.1426-48.877 21.1426-52.0508Q21.1426-56.9824 23.4863-60.791Q25.8301-64.5996 30.0781-66.748Q34.3262-68.8965 39.9414-68.8965Q45.6055-68.8965 49.8291-66.5283Q54.0527-64.1602 56.4209-59.9365Q58.7891-55.7129 58.7891-50.0488Q58.7891-48.6328 57.7881-47.6318Q56.7871-46.6309 55.3711-46.6309Q54.0039-46.6309 52.9785-47.6318Q51.9531-48.6328 51.9531-50.0488Q51.9531-55.4688 48.6816-58.7646Q45.4102-62.0605 39.9414-62.0605Q34.5703-62.0605 31.2744-59.2285Q27.9785-56.3965 27.9785-52.0508Q27.9785-49.707 29.1504-47.9492Q30.3223-46.1914 32.0557-44.5312Q33.7891-42.8711 35.498-41.0156Q37.207-39.1602 38.3789-36.7188Q39.5508-34.2773 39.5508-30.8594Q39.5508-25.9277 36.7432-22.4365Q33.9355-18.9453 29.3457-18.8965Q25.6836-18.8965 23.4131-20.8984Q21.1426-22.9004 21.1426-26.1719Z"/>
  </g>
  <g id="Light-S" transform="matrix(1 0 0 1 1114.32 696)">
   <path d="M9.76562-15.46Q9.76562-7.71434 14.2605-3.10326Q18.7553 1.50782 26.3662 1.50782Q32.0709 1.50782 36.3299-1.06977Q40.5889-3.64736 43.266-8.55382L46.4053-14.3013Q48.8619-18.8975 51.7335-22.104Q54.6051-25.3105 57.4523-27.9844Q60.2994-30.6582 62.6507-33.5587Q65.0019-36.4591 66.4349-40.3041Q67.8678-44.149 67.8678-49.8047Q67.8678-58.6899 64.2796-65.335Q60.6913-71.98 54.2661-75.6658Q47.8409-79.3516 39.2148-79.3516Q30.4237-79.3516 23.7956-75.6204Q17.1674-71.8892 13.4665-65.1988Q9.76562-58.5083 9.76562-49.6045ZM20.8097-25.8995Q20.8097-28.5533 22.0169-29.9189Q23.2241-31.2846 24.8068-32.0971Q26.3896-32.9096 27.5969-33.8079Q28.8043-34.7061 28.8043-36.4433Q28.8043-37.8863 27.5969-39.282Q26.3896-40.6776 24.8068-42.3513Q23.2241-44.0249 22.0169-46.2845Q20.8097-48.5441 20.8097-51.7784Q20.8097-56.5887 23.1004-60.3519Q25.3911-64.1151 29.5333-66.2561Q33.6754-68.397 39.139-68.397Q44.6518-68.397 48.7619-66.1045Q52.872-63.812 55.1645-59.7094Q57.457-55.6068 57.457-50.0944Q57.457-48.996 56.6831-48.2221Q55.9092-47.4482 54.8111-47.4482Q53.7465-47.4482 52.9558-48.2221Q52.165-48.996 52.165-50.0944Q52.165-55.9835 48.6286-59.5517Q45.0923-63.12 39.139-63.12Q33.2837-63.12 29.6851-59.8944Q26.0864-56.6689 26.0864-51.7784Q26.0864-49.2984 27.2886-47.4724Q28.4907-45.6464 30.2695-43.9939Q32.0483-42.3414 33.8103-40.5162Q35.5723-38.6909 36.7744-36.2873Q37.9766-33.8837 37.9766-30.481Q37.9766-25.8822 35.2446-22.6786Q32.5127-19.475 28.1649-19.4415Q24.8812-19.4415 22.8455-21.2163Q20.8097-22.9912 20.8097-25.8995Z"/>
  </g>
  <g id="Thin-S" transform="matrix(1 0 0 1 818.577 696)">
   <path d="M9.76562-15.5Q9.76562-8.29487 14.0703-3.91403Q18.3749 0.466821 25.5253 0.466821Q31.0901 0.466821 35.299-2.29089Q39.5079-5.04859 42.0448-10.1155L44.3633-14.6817Q46.8402-19.7384 49.7317-23.085Q52.6233-26.4316 55.4905-29.0254Q58.3577-31.6192 60.7189-34.3195Q63.08-37.0198 64.503-40.6545Q65.926-44.2893 65.926-49.8047Q65.926-58.4295 62.4678-64.8545Q59.0096-71.2794 52.8047-74.835Q46.5998-78.3906 38.2539-78.3906Q29.783-78.3906 23.365-74.7296Q16.9471-71.0685 13.3564-64.5382Q9.76562-58.0078 9.76562-49.4044ZM20.3694-25.5393Q20.3694-27.8927 21.5265-28.998Q22.6836-30.1033 24.1962-30.7958Q25.7088-31.4882 26.8662-32.4766Q28.0236-33.465 28.0236-35.5624Q28.0236-37.1056 26.8662-38.5713Q25.7088-40.0369 24.1962-41.7606Q22.6836-43.4844 21.5265-45.7941Q20.3694-48.1038 20.3694-51.4182Q20.3694-56.0681 22.59-59.7712Q24.8106-63.4744 28.8126-65.6054Q32.8147-67.7364 38.0779-67.7364Q43.3905-67.7364 47.3504-65.544Q51.3103-63.3515 53.5027-59.4091Q55.6952-55.4666 55.6952-50.1546Q55.6952-49.4763 55.2217-49.0028Q54.7481-48.5292 54.0705-48.5292Q53.4062-48.5292 52.9257-49.0028Q52.4451-49.4763 52.4451-50.1546Q52.4451-56.6643 48.5585-60.5927Q44.6718-64.5212 38.0779-64.5212Q31.5821-64.5212 27.5831-60.7752Q23.584-57.0291 23.584-51.4182Q23.584-48.7578 24.8261-46.8417Q26.0683-44.9256 27.9071-43.2832Q29.746-41.6407 31.5781-39.8556Q33.4103-38.0704 34.6524-35.7167Q35.8946-33.363 35.8946-29.9805Q35.8946-25.822 33.2627-22.9988Q30.6308-20.1757 26.6033-20.1623Q23.8201-20.1623 22.0947-21.6368Q20.3694-23.1113 20.3694-25.5393Z"/>
  </g>
  <g id="Ultralight-S" transform="matrix(1 0 0 1 522.363 696)">
   <path d="M9.76562-15.5205Q9.76562-8.59222 13.9729-4.3293Q18.1801-0.0663757 25.0946-0.0663757Q30.5878-0.0663757 34.771-2.91634Q38.9542-5.7663 41.4192-10.9154L43.3174-14.8766Q45.8046-20.1691 48.7064-23.5874Q51.6083-27.0058 54.4857-29.5586Q57.3631-32.1114 59.7294-34.7092Q62.0956-37.307 63.5136-40.834Q64.9315-44.3611 64.9315-49.8047Q64.9315-58.2962 61.5398-64.6084Q58.1482-70.9206 52.0561-74.4095Q45.9641-77.8984 37.7617-77.8984Q29.4548-77.8984 23.1445-74.2733Q16.8343-70.6482 13.2999-64.1998Q9.76562-57.7515 9.76562-49.3019ZM20.1439-25.3548Q20.1439-27.5543 21.2753-28.5263Q22.4068-29.4983 23.8834-30.1292Q25.3601-30.7602 26.4919-31.7947Q27.6237-32.8293 27.6237-35.1112Q27.6237-36.7058 26.4919-38.2072Q25.3601-39.7087 23.8834-41.4581Q22.4068-43.2076 21.2753-45.5429Q20.1439-47.8783 20.1439-51.2337Q20.1439-55.8014 22.3286-59.4738Q24.5132-63.1462 28.4435-65.2721Q32.3738-67.3981 37.5343-67.3981Q42.7444-67.3981 46.6274-65.2569Q50.5104-63.1157 52.6516-59.2552Q54.7928-55.3947 54.7928-50.1854Q54.7928-49.7223 54.4731-49.4026Q54.1534-49.0829 53.6911-49.0829Q53.2318-49.0829 52.9102-49.4026Q52.5887-49.7223 52.5887-50.1854Q52.5887-57.0129 48.5226-61.1259Q44.4565-65.239 37.5343-65.239Q30.7106-65.239 26.5064-61.2263Q22.3022-57.2136 22.3022-51.2337Q22.3022-48.481 23.5649-46.5187Q24.8276-44.5564 26.6972-42.9192Q28.5667-41.2819 30.4348-39.5172Q32.3029-37.7525 33.5655-35.4244Q34.8282-33.0963 34.8282-29.7241Q34.8282-25.7912 32.2475-23.1628Q29.6669-20.5345 25.8034-20.5315Q23.2765-20.5315 21.7102-21.8521Q20.1439-23.1728 20.1439-25.3548Z"/>
  </g>
 </g>
</svg>
