<?xml version="1.0" encoding="UTF-8"?>
<!--Generator: Apple Native CoreSVG 175.5-->
<!DOCTYPE svg
PUBLIC "-//W3C//DTD SVG 1.1//EN"
       "http://www.w3.org/Graphics/SVG/1.1/DTD/svg11.dtd">
<svg version="1.1" xmlns="http://www.w3.org/2000/svg" xmlns:xlink="http://www.w3.org/1999/xlink" width="3300" height="2200">
 <!--glyph: "", point size: 100.0, font version: "18.0d9e1", template writer version: "84"-->
 <g id="Notes">
  <rect height="2200" id="artboard" style="fill:white;opacity:1" width="3300" x="0" y="0"/>
  <line style="fill:none;stroke:black;opacity:1;stroke-width:0.5;" x1="263" x2="3036" y1="292" y2="292"/>
  <text style="stroke:none;fill:black;font-family:sans-serif;font-size:13;font-weight:bold;" transform="matrix(1 0 0 1 263 322)">Weight/Scale Variations</text>
  <text style="stroke:none;fill:black;font-family:sans-serif;font-size:13;text-anchor:middle;" transform="matrix(1 0 0 1 559.711 322)">Ultralight</text>
  <text style="stroke:none;fill:black;font-family:sans-serif;font-size:13;text-anchor:middle;" transform="matrix(1 0 0 1 856.422 322)">Thin</text>
  <text style="stroke:none;fill:black;font-family:sans-serif;font-size:13;text-anchor:middle;" transform="matrix(1 0 0 1 1153.13 322)">Light</text>
  <text style="stroke:none;fill:black;font-family:sans-serif;font-size:13;text-anchor:middle;" transform="matrix(1 0 0 1 1449.84 322)">Regular</text>
  <text style="stroke:none;fill:black;font-family:sans-serif;font-size:13;text-anchor:middle;" transform="matrix(1 0 0 1 1746.56 322)">Medium</text>
  <text style="stroke:none;fill:black;font-family:sans-serif;font-size:13;text-anchor:middle;" transform="matrix(1 0 0 1 2043.27 322)">Semibold</text>
  <text style="stroke:none;fill:black;font-family:sans-serif;font-size:13;text-anchor:middle;" transform="matrix(1 0 0 1 2339.98 322)">Bold</text>
  <text style="stroke:none;fill:black;font-family:sans-serif;font-size:13;text-anchor:middle;" transform="matrix(1 0 0 1 2636.69 322)">Heavy</text>
  <text style="stroke:none;fill:black;font-family:sans-serif;font-size:13;text-anchor:middle;" transform="matrix(1 0 0 1 2933.4 322)">Black</text>
  <line style="fill:none;stroke:black;opacity:1;stroke-width:0.5;" x1="263" x2="3036" y1="1903" y2="1903"/>
  <g transform="matrix(1 0 0 1 263 1933)">
   <path d="M9.24805 0.830078Q10.8691 0.830078 12.2949 0.214844Q13.7207-0.400391 14.8096-1.49414Q15.8984-2.58789 16.5186-4.01367Q17.1387-5.43945 17.1387-7.05078Q17.1387-8.66211 16.5186-10.0879Q15.8984-11.5137 14.8047-12.6074Q13.7109-13.7012 12.2852-14.3164Q10.8594-14.9316 9.23828-14.9316Q7.62695-14.9316 6.20117-14.3164Q4.77539-13.7012 3.69141-12.6074Q2.60742-11.5137 1.9873-10.0879Q1.36719-8.66211 1.36719-7.05078Q1.36719-5.43945 1.9873-4.01367Q2.60742-2.58789 3.69629-1.49414Q4.78516-0.400391 6.21094 0.214844Q7.63672 0.830078 9.24805 0.830078ZM9.24805-0.654297Q7.91992-0.654297 6.7627-1.14746Q5.60547-1.64062 4.73145-2.51953Q3.85742-3.39844 3.36426-4.56055Q2.87109-5.72266 2.87109-7.05078Q2.87109-8.37891 3.35938-9.54102Q3.84766-10.7031 4.72168-11.582Q5.5957-12.4609 6.75293-12.9541Q7.91016-13.4473 9.23828-13.4473Q10.5762-13.4473 11.7383-12.9541Q12.9004-12.4609 13.7793-11.582Q14.6582-10.7031 15.1514-9.54102Q15.6445-8.37891 15.6445-7.05078Q15.6445-5.72266 15.1514-4.56055Q14.6582-3.39844 13.7793-2.51953Q12.9004-1.64062 11.7432-1.14746Q10.5859-0.654297 9.24805-0.654297ZM5.6543-7.05078Q5.6543-6.72852 5.85938-6.52832Q6.06445-6.32812 6.40625-6.32812L8.51562-6.32812L8.51562-4.20898Q8.51562-3.88672 8.71094-3.67676Q8.90625-3.4668 9.23828-3.4668Q9.56055-3.4668 9.77051-3.67676Q9.98047-3.88672 9.98047-4.20898L9.98047-6.32812L12.0898-6.32812Q12.4219-6.32812 12.627-6.52832Q12.832-6.72852 12.832-7.05078Q12.832-7.38281 12.627-7.58789Q12.4219-7.79297 12.0898-7.79297L9.98047-7.79297L9.98047-9.90234Q9.98047-10.2344 9.77051-10.4443Q9.56055-10.6543 9.23828-10.6543Q8.90625-10.6543 8.71094-10.4443Q8.51562-10.2344 8.51562-9.90234L8.51562-7.79297L6.40625-7.79297Q6.06445-7.79297 5.85938-7.58789Q5.6543-7.38281 5.6543-7.05078Z"/>
  </g>
  <g transform="matrix(1 0 0 1 281.867 1933)">
   <path d="M11.709 2.91016Q13.75 2.91016 15.5518 2.12891Q17.3535 1.34766 18.7305-0.0292969Q20.1074-1.40625 20.8887-3.20801Q21.6699-5.00977 21.6699-7.05078Q21.6699-9.0918 20.8887-10.8936Q20.1074-12.6953 18.7305-14.0723Q17.3535-15.4492 15.5469-16.2305Q13.7402-17.0117 11.6992-17.0117Q9.6582-17.0117 7.85645-16.2305Q6.05469-15.4492 4.68262-14.0723Q3.31055-12.6953 2.5293-10.8936Q1.74805-9.0918 1.74805-7.05078Q1.74805-5.00977 2.5293-3.20801Q3.31055-1.40625 4.6875-0.0292969Q6.06445 1.34766 7.86621 2.12891Q9.66797 2.91016 11.709 2.91016ZM11.709 1.25Q9.98047 1.25 8.47656 0.605469Q6.97266-0.0390625 5.83496-1.17676Q4.69727-2.31445 4.05762-3.81836Q3.41797-5.32227 3.41797-7.05078Q3.41797-8.7793 4.05762-10.2832Q4.69727-11.7871 5.83008-12.9297Q6.96289-14.0723 8.4668-14.7119Q9.9707-15.3516 11.6992-15.3516Q13.4277-15.3516 14.9365-14.7119Q16.4453-14.0723 17.583-12.9297Q18.7207-11.7871 19.3652-10.2832Q20.0098-8.7793 20.0098-7.05078Q20.0098-5.32227 19.3701-3.81836Q18.7305-2.31445 17.5879-1.17676Q16.4453-0.0390625 14.9414 0.605469Q13.4375 1.25 11.709 1.25ZM7.17773-7.05078Q7.17773-6.69922 7.41211-6.47461Q7.64648-6.25 8.01758-6.25L10.8887-6.25L10.8887-3.36914Q10.8887-2.99805 11.1133-2.76855Q11.3379-2.53906 11.6895-2.53906Q12.0605-2.53906 12.29-2.76855Q12.5195-2.99805 12.5195-3.36914L12.5195-6.25L15.4004-6.25Q15.7715-6.25 16.001-6.47461Q16.2305-6.69922 16.2305-7.05078Q16.2305-7.42188 16.001-7.65137Q15.7715-7.88086 15.4004-7.88086L12.5195-7.88086L12.5195-10.752Q12.5195-11.1328 12.29-11.3623Q12.0605-11.5918 11.6895-11.5918Q11.3379-11.5918 11.1133-11.3574Q10.8887-11.123 10.8887-10.752L10.8887-7.88086L8.01758-7.88086Q7.63672-7.88086 7.40723-7.65137Q7.17773-7.42188 7.17773-7.05078Z"/>
  </g>
  <g transform="matrix(1 0 0 1 305.646 1933)">
   <path d="M14.9707 5.66406Q17.0605 5.66406 18.96 5.01465Q20.8594 4.36523 22.4512 3.19336Q24.043 2.02148 25.2197 0.429688Q26.3965-1.16211 27.0459-3.06641Q27.6953-4.9707 27.6953-7.05078Q27.6953-9.14062 27.0459-11.04Q26.3965-12.9395 25.2197-14.5312Q24.043-16.123 22.4512-17.2998Q20.8594-18.4766 18.9551-19.126Q17.0508-19.7754 14.9609-19.7754Q12.8711-19.7754 10.9717-19.126Q9.07227-18.4766 7.48535-17.2998Q5.89844-16.123 4.72168-14.5312Q3.54492-12.9395 2.90039-11.04Q2.25586-9.14062 2.25586-7.05078Q2.25586-4.9707 2.90527-3.06641Q3.55469-1.16211 4.72656 0.429688Q5.89844 2.02148 7.49023 3.19336Q9.08203 4.36523 10.9814 5.01465Q12.8809 5.66406 14.9707 5.66406ZM14.9707 3.84766Q13.1641 3.84766 11.5283 3.2959Q9.89258 2.74414 8.53516 1.74805Q7.17773 0.751953 6.17676-0.610352Q5.17578-1.97266 4.62891-3.6084Q4.08203-5.24414 4.08203-7.05078Q4.08203-8.86719 4.62891-10.5029Q5.17578-12.1387 6.17188-13.501Q7.16797-14.8633 8.52539-15.8594Q9.88281-16.8555 11.5186-17.4023Q13.1543-17.9492 14.9609-17.9492Q16.7773-17.9492 18.4131-17.4023Q20.0488-16.8555 21.4111-15.8594Q22.7734-14.8633 23.7744-13.501Q24.7754-12.1387 25.3223-10.5029Q25.8691-8.86719 25.8691-7.05078Q25.8691-5.24414 25.3223-3.6084Q24.7754-1.97266 23.7793-0.610352Q22.7832 0.751953 21.4209 1.74805Q20.0586 2.74414 18.4229 3.2959Q16.7871 3.84766 14.9707 3.84766ZM9.19922-7.05078Q9.19922-6.66992 9.45801-6.4209Q9.7168-6.17188 10.1172-6.17188L14.0625-6.17188L14.0625-2.2168Q14.0625-1.81641 14.3115-1.55762Q14.5605-1.29883 14.9512-1.29883Q15.3516-1.29883 15.6104-1.55273Q15.8691-1.80664 15.8691-2.2168L15.8691-6.17188L19.8242-6.17188Q20.2246-6.17188 20.4785-6.4209Q20.7324-6.66992 20.7324-7.05078Q20.7324-7.46094 20.4785-7.71484Q20.2246-7.96875 19.8242-7.96875L15.8691-7.96875L15.8691-11.9141Q15.8691-12.3242 15.6104-12.583Q15.3516-12.8418 14.9512-12.8418Q14.5605-12.8418 14.3115-12.583Q14.0625-12.3242 14.0625-11.9141L14.0625-7.96875L10.1172-7.96875Q9.70703-7.96875 9.45312-7.71484Q9.19922-7.46094 9.19922-7.05078Z"/>
  </g>
  <text style="stroke:none;fill:black;font-family:sans-serif;font-size:13;font-weight:bold;" transform="matrix(1 0 0 1 263 1953)">Design Variations</text>
  <text style="stroke:none;fill:black;font-family:sans-serif;font-size:13;" transform="matrix(1 0 0 1 263 1971)">Symbols are supported in up to nine weights and three scales.</text>
  <text style="stroke:none;fill:black;font-family:sans-serif;font-size:13;" transform="matrix(1 0 0 1 263 1989)">For optimal layout with text and other symbols, vertically align</text>
  <text style="stroke:none;fill:black;font-family:sans-serif;font-size:13;" transform="matrix(1 0 0 1 263 2007)">symbols with the adjacent text.</text>
  <line style="fill:none;stroke:#00AEEF;stroke-width:0.5;opacity:1.0;" x1="776" x2="776" y1="1919" y2="1933"/>
  <g transform="matrix(1 0 0 1 776 1933)">
   <path d="M3.31055 0.15625Q3.70117 0.15625 3.91602-0.00976562Q4.13086-0.175781 4.26758-0.585938L5.52734-4.0332L11.2891-4.0332L12.5488-0.585938Q12.6855-0.175781 12.9004-0.00976562Q13.1152 0.15625 13.4961 0.15625Q13.8867 0.15625 14.1162-0.0585938Q14.3457-0.273438 14.3457-0.644531Q14.3457-0.869141 14.2383-1.17188L9.6582-13.3691Q9.48242-13.8184 9.17969-14.043Q8.87695-14.2676 8.4082-14.2676Q7.5-14.2676 7.17773-13.3789L2.59766-1.16211Q2.49023-0.859375 2.49023-0.634766Q2.49023-0.263672 2.70996-0.0537109Q2.92969 0.15625 3.31055 0.15625ZM6.00586-5.51758L8.37891-12.0898L8.42773-12.0898L10.8008-5.51758Z"/>
  </g>
  <line style="fill:none;stroke:#00AEEF;stroke-width:0.5;opacity:1.0;" x1="793.197" x2="793.197" y1="1919" y2="1933"/>
  <text style="stroke:none;fill:black;font-family:sans-serif;font-size:13;font-weight:bold;" transform="matrix(1 0 0 1 776 1953)">Margins</text>
  <text style="stroke:none;fill:black;font-family:sans-serif;font-size:13;" transform="matrix(1 0 0 1 776 1971)">Leading and trailing margins on the left and right side of each symbol</text>
  <text style="stroke:none;fill:black;font-family:sans-serif;font-size:13;" transform="matrix(1 0 0 1 776 1989)">can be adjusted by modifying the x-location of the margin guidelines.</text>
  <text style="stroke:none;fill:black;font-family:sans-serif;font-size:13;" transform="matrix(1 0 0 1 776 2007)">Modifications are automatically applied proportionally to all</text>
  <text style="stroke:none;fill:black;font-family:sans-serif;font-size:13;" transform="matrix(1 0 0 1 776 2025)">scales and weights.</text>
  <g transform="matrix(1 0 0 1 1289 1933)">
   <path d="M2.8418 1.86523L4.54102 3.57422Q5.18555 4.22852 5.90332 4.17969Q6.62109 4.13086 7.31445 3.35938L18.0078-8.42773L17.041-9.4043L6.42578 2.27539Q6.16211 2.57812 5.89355 2.61719Q5.625 2.65625 5.27344 2.30469L4.10156 1.14258Q3.75 0.791016 3.79395 0.522461Q3.83789 0.253906 4.14062-0.0195312L15.6152-10.8203L14.6387-11.7871L3.04688-0.898438Q2.30469-0.214844 2.25098 0.498047Q2.19727 1.21094 2.8418 1.86523ZM9.25781-16.3281Q8.94531-16.0254 8.90625-15.6348Q8.86719-15.2441 9.04297-14.9512Q9.21875-14.6777 9.55566-14.541Q9.89258-14.4043 10.3809-14.5215Q11.4746-14.7754 12.5977-14.7314Q13.7207-14.6875 14.7949-13.9844L14.209-12.5293Q13.9551-11.9043 14.0674-11.4404Q14.1797-10.9766 14.5801-10.5664L16.875-8.25195Q17.2363-7.88086 17.5781-7.82227Q17.9199-7.76367 18.3398-7.8418L19.4043-8.03711L20.0684-7.36328L20.0293-6.80664Q20-6.43555 20.1221-6.12305Q20.2441-5.81055 20.6055-5.44922L21.3672-4.70703Q21.7285-4.3457 22.1533-4.33105Q22.5781-4.31641 22.9297-4.66797L25.8398-7.58789Q26.1914-7.93945 26.1816-8.35449Q26.1719-8.76953 25.8105-9.13086L25.0391-9.89258Q24.6875-10.2539 24.3799-10.3857Q24.0723-10.5176 23.7109-10.4883L23.1348-10.4395L22.4902-11.0742L22.7344-12.1973Q22.832-12.6172 22.6953-12.9834Q22.5586-13.3496 22.1191-13.7891L19.9219-15.9766Q18.6719-17.2168 17.2607-17.8369Q15.8496-18.457 14.4189-18.4814Q12.9883-18.5059 11.665-17.959Q10.3418-17.4121 9.25781-16.3281ZM10.752-15.957Q11.6602-16.6211 12.7002-16.9043Q13.7402-17.1875 14.8047-17.085Q15.8691-16.9824 16.8701-16.5137Q17.8711-16.0449 18.7012-15.2051L21.1328-12.793Q21.3086-12.6172 21.3525-12.4512Q21.3965-12.2852 21.3379-12.0312L21.0156-10.5469L22.5195-9.0625L23.5059-9.12109Q23.6914-9.13086 23.7891-9.09668Q23.8867-9.0625 24.0332-8.91602L24.6094-8.33984L22.168-5.89844L21.5918-6.47461Q21.4453-6.62109 21.4062-6.71875Q21.3672-6.81641 21.377-7.01172L21.4453-7.98828L19.9512-9.47266L18.4277-9.21875Q18.1836-9.16992 18.042-9.2041Q17.9004-9.23828 17.7148-9.41406L15.7129-11.416Q15.5176-11.5918 15.4932-11.7529Q15.4688-11.9141 15.5859-12.1875L16.4648-14.2773Q15.293-15.3711 13.8281-15.791Q12.3633-16.2109 10.8398-15.7617Q10.7227-15.7324 10.6885-15.8057Q10.6543-15.8789 10.752-15.957Z"/>
  </g>
  <text style="stroke:none;fill:black;font-family:sans-serif;font-size:13;font-weight:bold;" transform="matrix(1 0 0 1 1289 1953)">Exporting</text>
  <text style="stroke:none;fill:black;font-family:sans-serif;font-size:13;" transform="matrix(1 0 0 1 1289 1971)">Symbols should be outlined when exporting to ensure the</text>
  <text style="stroke:none;fill:black;font-family:sans-serif;font-size:13;" transform="matrix(1 0 0 1 1289 1989)">design is preserved when submitting to Xcode.</text>
  <text id="template-version" style="stroke:none;fill:black;font-family:sans-serif;font-size:13;text-anchor:end;" transform="matrix(1 0 0 1 3036 1933)">Template v.2.0</text>
  <text style="stroke:none;fill:black;font-family:sans-serif;font-size:13;text-anchor:end;" transform="matrix(1 0 0 1 3036 1951)">Requires Xcode 12 or greater</text>
  <text id="descriptive-name" style="stroke:none;fill:black;font-family:sans-serif;font-size:13;text-anchor:end;" transform="matrix(1 0 0 1 3036 1969)">Generated from custom.saxophone</text>
  <text style="stroke:none;fill:black;font-family:sans-serif;font-size:13;text-anchor:end;" transform="matrix(1 0 0 1 3036 1987)">Typeset at 100 points</text>
  <text style="stroke:none;fill:black;font-family:sans-serif;font-size:13;" transform="matrix(1 0 0 1 263 726)">Small</text>
  <text style="stroke:none;fill:black;font-family:sans-serif;font-size:13;" transform="matrix(1 0 0 1 263 1156)">Medium</text>
  <text style="stroke:none;fill:black;font-family:sans-serif;font-size:13;" transform="matrix(1 0 0 1 263 1586)">Large</text>
 </g>
 <g id="Guides">
  <g id="H-reference" style="fill:#27AAE1;stroke:none;" transform="matrix(1 0 0 1 339 696)">
   <path d="M0.993347 0L3.6377 0L29.3282-67.1326L30.0301-67.1326L30.0301-70.459L28.1227-70.459ZM11.6882-24.4797L46.9818-24.4797L46.2311-26.7288L12.4382-26.7288ZM55.1193 0L57.7637 0L30.6381-70.459L29.4327-70.459L29.4327-67.1326Z"/>
  </g>
  <line id="Baseline-S" style="fill:none;stroke:#27AAE1;opacity:1;stroke-width:0.5;" x1="263" x2="3036" y1="696" y2="696"/>
  <line id="Capline-S" style="fill:none;stroke:#27AAE1;opacity:1;stroke-width:0.5;" x1="263" x2="3036" y1="625.541" y2="625.541"/>
  <g id="H-reference" style="fill:#27AAE1;stroke:none;" transform="matrix(1 0 0 1 339 1126)">
   <path d="M0.993347 0L3.6377 0L29.3282-67.1326L30.0301-67.1326L30.0301-70.459L28.1227-70.459ZM11.6882-24.4797L46.9818-24.4797L46.2311-26.7288L12.4382-26.7288ZM55.1193 0L57.7637 0L30.6381-70.459L29.4327-70.459L29.4327-67.1326Z"/>
  </g>
  <line id="Baseline-M" style="fill:none;stroke:#27AAE1;opacity:1;stroke-width:0.5;" x1="263" x2="3036" y1="1126" y2="1126"/>
  <line id="Capline-M" style="fill:none;stroke:#27AAE1;opacity:1;stroke-width:0.5;" x1="263" x2="3036" y1="1055.54" y2="1055.54"/>
  <g id="H-reference" style="fill:#27AAE1;stroke:none;" transform="matrix(1 0 0 1 339 1556)">
   <path d="M0.993347 0L3.6377 0L29.3282-67.1326L30.0301-67.1326L30.0301-70.459L28.1227-70.459ZM11.6882-24.4797L46.9818-24.4797L46.2311-26.7288L12.4382-26.7288ZM55.1193 0L57.7637 0L30.6381-70.459L29.4327-70.459L29.4327-67.1326Z"/>
  </g>
  <line id="Baseline-L" style="fill:none;stroke:#27AAE1;opacity:1;stroke-width:0.5;" x1="263" x2="3036" y1="1556" y2="1556"/>
  <line id="Capline-L" style="fill:none;stroke:#27AAE1;opacity:1;stroke-width:0.5;" x1="263" x2="3036" y1="1485.54" y2="1485.54"/>
  <line id="left-margin" style="fill:none;stroke:#00AEEF;stroke-width:0.5;opacity:1.0;" x1="1390.56" x2="1390.56" y1="1030.73" y2="1150.14"/>
  <line id="right-margin" style="fill:none;stroke:#00AEEF;stroke-width:0.5;opacity:1.0;" x1="1509.13" x2="1509.13" y1="1030.73" y2="1150.14"/>
 </g>
 <g id="Symbols">
  <g id="Black-L" transform="matrix(1 0 0 1 2851.23 1556)">
   <path d="M2.95-115.869C2.95-115.869 5.45-115.869 8.55-117.969C11.65-120.069 12.55-124.169 12.55-124.169L25.75-126.469L26.75-125.469C26.75-125.469 42.25-130.869 49.65-118.069L72.85-71.7691L117.85 14.7309C118.95 16.7309 121.35 17.5309 123.45 16.6309L123.45 16.6309C125.75 15.6309 126.65 12.8309 125.45 10.6309C121.05 2.83088 112.25-13.5691 108.25-20.6691C101.05-33.6691 105.35-45.1691 104.65-50.1691C104.35-52.4691 103.45-53.8691 102.55-54.6691C101.45-55.7691 101.05-57.3691 101.75-58.6691L101.95-58.9691C102.75-60.4691 104.45-61.1691 106.05-60.6691L159.15-42.0691C161.25-41.3691 162.15-38.9691 161.25-36.9691L161.25-36.9691C160.65-35.6691 159.35-34.9691 157.95-34.9691C155.75-34.9691 154.95-34.6691 151.65-31.3691C145.15-24.8691 151.85-9.16912 155.95 1.03088C158.85 8.23088 161.75 36.3309 133.65 45.7309C105.55 55.1309 92.25 25.5309 92.25 25.5309L36.75-112.069C33.15-118.569 32.25-119.869 28.35-119.869L25.35-119.869L22.35-116.769L3.05-114.369L2.95-115.869ZM53.35-59.9691L61.45-63.2691C63.75-64.1691 64.85-66.8691 63.95-69.1691C63.05-71.4691 60.35-72.5691 58.05-71.6691L49.95-68.3691C47.65-67.4691 46.55-64.7691 47.45-62.4691C48.15-60.6691 49.85-59.6691 51.65-59.6691C52.15-59.6691 52.75-59.7691 53.35-59.9691ZM60.45-42.4691L68.55-45.7691C70.85-46.6691 71.95-49.3691 71.05-51.6691C70.15-53.9691 67.45-55.0691 65.15-54.1691L57.05-50.8691C54.75-49.9691 53.65-47.2691 54.55-44.9691C55.25-43.1691 56.95-42.1691 58.75-42.1691C59.35-42.0691 59.85-42.1691 60.45-42.4691ZM67.55-24.8691L75.65-28.1691C77.95-29.0691 79.05-31.7691 78.15-34.0691C77.25-36.3691 74.55-37.4691 72.25-36.5691L64.15-33.2691C61.85-32.3691 60.75-29.6691 61.65-27.3691C62.35-25.5691 64.05-24.5691 65.85-24.5691C66.45-24.5691 67.05-24.6691 67.55-24.8691ZM74.75-7.36912L82.85-10.6691C85.15-11.5691 86.25-14.2691 85.35-16.5691C84.45-18.8691 81.75-19.9691 79.45-19.0691L71.35-15.7691C68.95-14.7691 67.85-12.1691 68.85-9.86912C69.55-8.06912 71.25-7.06912 73.05-7.06912C73.55-7.06912 74.15-7.16912 74.75-7.36912Z"/>
  </g>
  <g id="Heavy-L" transform="matrix(1 0 0 1 2555.79 1556)">
   <path d="M2.95-114.659C2.95-114.659 5.45-114.659 8.45-116.759C11.45-118.859 12.35-122.859 12.35-122.859L25.35-125.059L26.35-124.059C26.35-124.059 41.55-129.459 48.95-116.759L71.75-71.2595L116.05 13.9405C117.05 15.9405 119.45 16.7405 121.55 15.8405L121.55 15.8405C123.85 14.8405 124.65 12.1405 123.45 9.94053C119.05 2.24053 110.45-13.8595 106.55-20.8595C99.45-33.6595 103.75-44.9595 102.95-49.9595C102.65-52.1595 101.75-53.5595 100.85-54.3595C99.75-55.3595 99.35-56.9595 100.05-58.3595L100.25-58.6595C100.95-60.1595 102.75-60.8595 104.35-60.3595L156.65-42.0595C158.65-41.3595 159.65-38.9595 158.65-37.0595L158.65-37.0595C158.05-35.8595 156.75-35.0595 155.35-35.0595C153.15-35.0595 152.45-34.7595 149.15-31.4595C142.75-25.0595 149.35-9.55947 153.45 0.540527C156.25 7.64053 159.15 35.3405 131.45 44.5405C103.75 53.7405 90.95 24.6405 90.95 24.6405L36.25-110.959C32.65-117.359 31.85-118.659 27.95-118.559L24.95-118.559L21.95-115.459L2.95-113.159L2.95-114.659ZM52.45-59.8595L60.45-63.0595C62.55-63.9595 63.65-66.3595 62.75-68.5595C61.85-70.6595 59.45-71.7595 57.25-70.8595L49.25-67.6595C47.15-66.7595 46.05-64.3595 46.95-62.1595C47.65-60.5595 49.15-59.5595 50.85-59.5595C51.45-59.5595 51.95-59.6595 52.45-59.8595ZM59.45-42.5595L67.45-45.7595C69.55-46.6595 70.65-49.0595 69.75-51.2595C68.85-53.3595 66.45-54.4595 64.25-53.5595L56.25-50.3595C54.15-49.4595 53.05-47.0595 53.95-44.8595C54.65-43.2595 56.15-42.2595 57.85-42.2595C58.45-42.2595 58.95-42.3595 59.45-42.5595ZM66.55-25.2595L74.55-28.4595C76.65-29.3595 77.75-31.7595 76.85-33.9595C75.95-36.0595 73.55-37.1595 71.35-36.2595L63.35-33.0595C61.25-32.1595 60.15-29.7595 61.05-27.5595C61.75-25.9595 63.25-24.9595 64.95-24.9595C65.45-24.9595 66.05-25.0595 66.55-25.2595ZM73.55-8.05947L81.55-11.2595C83.65-12.1595 84.75-14.5595 83.85-16.7595C82.95-18.8595 80.55-19.9595 78.35-19.0595L70.35-15.8595C68.25-14.9595 67.15-12.5595 68.05-10.3595C68.75-8.75947 70.25-7.75947 71.95-7.75947C72.45-7.75947 73.05-7.85947 73.55-8.05947Z"/>
  </g>
  <g id="Bold-L" transform="matrix(1 0 0 1 2260.28 1556)">
   <path d="M2.95-113.484C2.95-113.484 5.45-113.484 8.35-115.584C11.25-117.684 12.25-121.584 12.25-121.584L25.05-123.784L26.05-122.784C26.05-122.784 41.05-128.084 48.25-115.584L70.65-70.684L114.35 13.316C115.35 15.216 117.75 16.116 119.75 15.116L119.75 15.116C121.95 14.116 122.85 11.416 121.65 9.316C117.35 1.716 108.75-14.184 104.95-20.984C97.95-33.584 102.15-44.784 101.45-49.684C101.15-51.884 100.25-53.284 99.35-54.084C98.25-55.084 97.95-56.684 98.55-57.984L98.75-58.284C99.45-59.784 101.25-60.484 102.75-59.884L154.25-41.884C156.25-41.184 157.25-38.884 156.25-36.984L156.25-36.984C155.65-35.784 154.35-34.984 153.05-34.984C150.85-34.984 150.15-34.684 146.85-31.484C140.55-25.184 147.05-9.884 151.05 0.0159986C153.85 7.016 156.65 34.316 129.35 43.416C102.05 52.516 89.55 23.716 89.55 23.716L35.75-109.784C32.25-116.084 31.35-117.384 27.55-117.284L24.65-117.284L21.75-114.284L2.95-111.984L2.95-113.484ZM51.55-59.684L59.35-62.884C61.35-63.684 62.25-65.984 61.45-67.884C60.65-69.884 58.35-70.784 56.45-69.984L48.65-66.784C46.65-65.984 45.75-63.684 46.55-61.784C47.15-60.284 48.65-59.384 50.15-59.384C50.65-59.384 51.15-59.484 51.55-59.684ZM58.45-42.684L66.25-45.884C68.25-46.684 69.15-48.984 68.35-50.884C67.55-52.884 65.25-53.784 63.35-52.984L55.55-49.784C53.55-48.984 52.65-46.684 53.45-44.784C54.05-43.284 55.55-42.384 57.05-42.384C57.55-42.384 58.05-42.484 58.45-42.684ZM65.45-25.684L73.25-28.884C75.25-29.684 76.15-31.984 75.35-33.884C74.55-35.884 72.25-36.784 70.35-35.984L62.55-32.784C60.55-31.984 59.65-29.684 60.45-27.784C61.05-26.284 62.55-25.384 64.05-25.384C64.45-25.384 64.95-25.484 65.45-25.684ZM72.35-8.684L80.15-11.884C82.15-12.684 83.05-14.984 82.25-16.884C81.45-18.884 79.15-19.784 77.25-18.984L69.45-15.784C67.45-14.984 66.55-12.684 67.35-10.784C67.95-9.284 69.45-8.384 70.95-8.384C71.35-8.384 71.85-8.484 72.35-8.684Z"/>
  </g>
  <g id="Semibold-L" transform="matrix(1 0 0 1 1964.69 1556)">
   <path d="M2.95-112.409C2.95-112.409 5.35-112.409 8.25-114.409C11.15-116.409 12.05-120.309 12.05-120.309L24.65-122.509L25.65-121.509C25.65-121.509 40.45-126.709 47.55-114.409L69.65-70.2085L112.65 12.4915C113.65 14.3915 115.95 15.1915 117.95 14.2915L117.95 14.2915C120.15 13.2915 120.95 10.6915 119.85 8.59149C115.65 1.09149 107.15-14.5085 103.45-21.3085C96.55-33.7085 100.65-44.7085 100.05-49.5085C99.75-51.7085 98.85-53.0085 98.05-53.8085C96.95-54.8085 96.65-56.4085 97.25-57.7085L97.35-58.0085C98.05-59.5085 99.75-60.1085 101.35-59.6085L152.05-41.9085C154.05-41.2085 154.95-38.9085 154.05-37.1085L154.05-37.1085C153.45-35.9085 152.25-35.2085 150.85-35.2085C148.75-35.2085 148.05-34.9085 144.75-31.7085C138.55-25.5085 144.95-10.4085 148.85-0.708514C151.65 6.19149 154.35 32.9915 127.55 41.9915C100.75 50.9915 88.25 22.7915 88.25 22.7915L35.25-108.709C31.85-114.909 30.95-116.209 27.25-116.109L24.35-116.109L21.45-113.109L2.95-110.809L2.95-112.409ZM50.75-59.6085L58.45-62.7085C60.25-63.4085 61.15-65.5085 60.45-67.3085C59.75-69.1085 57.65-70.0085 55.85-69.2085L48.15-66.1085C46.35-65.4085 45.45-63.3085 46.15-61.5085C46.75-60.1085 48.05-59.3085 49.45-59.3085C49.85-59.4085 50.25-59.5085 50.75-59.6085ZM57.55-42.9085L65.25-46.0085C67.05-46.7085 67.95-48.8085 67.25-50.6085C66.55-52.4085 64.45-53.3085 62.65-52.5085L54.95-49.4085C53.15-48.7085 52.25-46.6085 52.95-44.8085C53.55-43.4085 54.85-42.6085 56.25-42.6085C56.65-42.6085 57.05-42.7085 57.55-42.9085ZM64.35-26.1085L72.05-29.2085C73.85-29.9085 74.75-32.0085 74.05-33.8085C73.35-35.6085 71.25-36.5085 69.45-35.8085L61.75-32.7085C59.95-32.0085 59.05-29.9085 59.75-28.1085C60.35-26.7085 61.65-25.9085 63.05-25.9085C63.45-25.9085 63.95-25.9085 64.35-26.1085ZM71.15-9.40851L78.85-12.5085C80.65-13.2085 81.55-15.3085 80.85-17.1085C80.15-18.9085 78.05-19.8085 76.25-19.1085L68.55-16.0085C66.75-15.3085 65.85-13.2085 66.55-11.4085C67.05-9.90851 68.45-9.10851 69.85-9.10851C70.25-9.10851 70.75-9.20851 71.15-9.40851Z"/>
  </g>
  <g id="Medium-L" transform="matrix(1 0 0 1 1669.51 1556)">
   <path d="M2.95-110.833C2.95-110.833 5.35-110.833 8.15-112.833C10.95-114.833 11.85-118.633 11.85-118.633L24.25-120.733L25.25-119.833C25.25-119.833 39.75-124.933 46.75-112.833L68.35-69.433L110.45 11.667C111.45 13.567 113.75 14.367 115.65 13.467L115.65 13.467C117.75 12.467 118.65 9.86699 117.45 7.86699C113.25 0.566991 105.05-14.833 101.35-21.433C94.55-33.633 98.65-44.433 97.95-49.133C97.65-51.233 96.75-52.533 95.95-53.333C94.95-54.333 94.55-55.833 95.25-57.133L95.35-57.433C96.05-58.833 97.75-59.533 99.25-59.033L149.05-41.633C150.95-40.933 151.95-38.733 150.95-36.833L150.95-36.833C150.35-35.633 149.15-34.933 147.85-34.933C145.75-34.933 145.05-34.633 141.95-31.533C135.85-25.433 142.15-10.733 146.05-1.13301C148.75 5.66699 151.45 31.967 125.15 40.767C98.85 49.567 86.55 21.667 86.55 21.667L34.55-107.333C31.15-113.433 30.35-114.633 26.65-114.633L23.85-114.633L21.05-111.733L2.95-109.533L2.95-110.833ZM49.65-59.333L57.25-62.433C58.95-63.133 59.65-65.033 59.05-66.633C58.35-68.233 56.45-69.033 54.85-68.433L47.25-65.333C45.55-64.633 44.85-62.733 45.45-61.133C45.95-59.833 47.15-59.133 48.45-59.133C48.85-59.133 49.25-59.233 49.65-59.333ZM56.35-42.933L63.95-46.033C65.65-46.733 66.35-48.633 65.75-50.233C65.05-51.833 63.15-52.633 61.55-52.033L53.95-48.933C52.25-48.233 51.55-46.333 52.15-44.733C52.65-43.433 53.85-42.733 55.15-42.733C55.55-42.733 55.95-42.733 56.35-42.933ZM63.05-26.533L70.65-29.633C72.35-30.333 73.05-32.233 72.45-33.833C71.75-35.433 69.85-36.233 68.25-35.633L60.65-32.533C58.95-31.833 58.25-29.933 58.85-28.333C59.35-27.033 60.55-26.333 61.85-26.333C62.25-26.233 62.65-26.333 63.05-26.533ZM69.75-10.033L77.35-13.133C79.05-13.833 79.75-15.733 79.15-17.333C78.45-19.033 76.55-19.733 74.95-19.133L67.35-16.033C65.65-15.333 64.95-13.433 65.55-11.833C66.05-10.533 67.25-9.83301 68.55-9.83301C68.95-9.83301 69.35-9.93301 69.75-10.033Z"/>
  </g>
  <g id="Regular-L" transform="matrix(1 0 0 1 1374.27 1556)">
   <path d="M2.95-109.348C2.95-109.348 5.25-109.348 8.05-111.348C10.85-113.348 11.75-117.048 11.75-117.048L23.85-119.148L24.85-118.248C24.85-118.248 39.05-123.248 45.85-111.448L67.05-68.9479L108.35 10.5521C109.35 12.3521 111.55 13.1521 113.45 12.2521L113.45 12.2521C115.55 11.2521 116.35 8.7521 115.25 6.7521C111.15-0.4479 103.05-15.4479 99.45-21.9479C92.85-33.8479 96.85-44.4479 96.15-49.0479C95.85-51.1479 95.05-52.4479 94.15-53.1479C93.15-54.1479 92.75-55.6479 93.45-56.8479L93.55-57.1479C94.25-58.5479 95.85-59.2479 97.35-58.6479L146.15-41.6479C148.05-40.9479 148.95-38.7479 148.05-36.9479L148.05-36.9479C147.45-35.7479 146.25-35.0479 144.95-35.0479C142.95-35.0479 142.25-34.8479 139.15-31.7479C133.15-25.7479 139.35-11.3479 143.15-1.9479C145.75 4.6521 148.45 30.4521 122.65 39.0521C96.85 47.6521 84.95 20.5521 84.95 20.5521L33.95-105.948C30.65-111.948 29.85-113.148 26.25-113.048L23.45-113.048L20.65-110.148L2.95-107.948L2.95-109.348ZM48.65-59.1479L56.05-62.1479C57.55-62.7479 58.25-64.4479 57.65-65.9479C57.05-67.4479 55.35-68.1479 53.85-67.5479L46.45-64.5479C44.95-63.9479 44.25-62.2479 44.85-60.7479C45.35-59.6479 46.35-58.9479 47.55-58.9479C47.95-58.9479 48.35-59.0479 48.65-59.1479ZM55.25-43.0479L62.65-46.0479C64.15-46.6479 64.85-48.3479 64.25-49.8479C63.65-51.3479 61.95-52.0479 60.45-51.4479L53.05-48.4479C51.55-47.8479 50.85-46.1479 51.45-44.6479C51.95-43.5479 52.95-42.8479 54.15-42.8479C54.55-42.8479 54.85-42.9479 55.25-43.0479ZM61.75-26.9479L69.15-29.9479C70.65-30.5479 71.35-32.2479 70.75-33.7479C70.15-35.2479 68.45-35.9479 66.95-35.3479L59.55-32.3479C58.05-31.7479 57.35-30.0479 57.95-28.5479C58.45-27.4479 59.45-26.7479 60.65-26.7479C61.05-26.7479 61.45-26.8479 61.75-26.9479ZM68.35-10.8479L75.75-13.8479C77.25-14.4479 77.95-16.1479 77.35-17.6479C76.75-19.1479 75.05-19.8479 73.55-19.2479L66.15-16.2479C64.65-15.6479 63.95-13.9479 64.55-12.4479C65.05-11.3479 66.05-10.6479 67.25-10.6479C67.65-10.6479 67.95-10.7479 68.35-10.8479Z"/>
  </g>
  <g id="Light-L" transform="matrix(1 0 0 1 1079.25 1556)">
   <path d="M2.95-107.472C2.95-107.472 5.25-107.472 7.95-109.372C10.65-111.272 11.55-114.872 11.55-114.872L23.35-116.872L24.25-115.972C24.25-115.972 38.15-120.872 44.75-109.272L65.55-67.8724L105.85 9.62759C106.75 11.4276 108.95 12.1276 110.85 11.3276L110.85 11.3276C112.85 10.4276 113.75 7.92759 112.65 5.92759C108.65-1.07241 100.75-15.7724 97.25-22.0724C90.75-33.6724 94.65-44.0724 94.05-48.5724C93.75-50.5724 92.95-51.8724 92.15-52.5724C91.15-53.4724 90.85-54.9724 91.45-56.1724L91.55-56.4724C92.25-57.8724 93.85-58.4724 95.25-57.9724L142.85-41.3724C144.75-40.7724 145.55-38.5724 144.65-36.8724L144.65-36.8724C144.05-35.7724 142.95-35.0724 141.65-35.0724C139.65-35.0724 138.95-34.8724 135.95-31.7724C130.15-25.9724 136.15-11.8724 139.85-2.67241C142.45 3.82759 145.05 29.0276 119.85 37.3276C94.65 45.6276 82.95 19.3276 82.95 19.3276L33.25-104.072C30.05-109.872 29.25-111.072 25.75-111.072L23.05-111.072L20.35-108.272L3.05-106.172L2.95-107.472ZM47.55-58.6724L54.75-61.5724C56.05-62.0724 56.75-63.5724 56.15-64.9724C55.65-66.2724 54.15-66.9724 52.75-66.3724L45.55-63.4724C44.25-62.9724 43.55-61.4724 44.15-60.0724C44.55-59.0724 45.55-58.4724 46.55-58.4724C46.85-58.5724 47.25-58.5724 47.55-58.6724ZM53.95-42.9724L61.15-45.8724C62.45-46.3724 63.15-47.8724 62.55-49.2724C62.05-50.5724 60.55-51.2724 59.15-50.6724L51.95-47.7724C50.65-47.2724 49.95-45.7724 50.55-44.3724C50.95-43.3724 51.95-42.7724 52.95-42.7724C53.25-42.7724 53.55-42.8724 53.95-42.9724ZM60.35-27.2724L67.55-30.1724C68.85-30.6724 69.55-32.1724 68.95-33.5724C68.45-34.8724 66.95-35.5724 65.55-34.9724L58.35-32.0724C57.05-31.5724 56.35-30.0724 56.95-28.6724C57.35-27.6724 58.35-27.0724 59.35-27.0724C59.65-27.0724 59.95-27.1724 60.35-27.2724ZM66.65-11.5724L73.85-14.4724C75.15-14.9724 75.85-16.4724 75.25-17.8724C74.75-19.1724 73.25-19.8724 71.85-19.2724L64.65-16.3724C63.35-15.8724 62.65-14.3724 63.25-12.9724C63.65-11.9724 64.65-11.3724 65.65-11.3724C66.05-11.3724 66.35-11.4724 66.65-11.5724Z"/>
  </g>
  <g id="Thin-L" transform="matrix(1 0 0 1 784.296 1556)">
   <path d="M2.95-105.387C2.95-105.387 5.15-105.387 7.85-107.287C10.45-109.087 11.35-112.687 11.35-112.687L22.95-114.687L23.85-113.787C23.85-113.787 37.35-118.587 43.85-107.287L64.05-66.8873L103.35 8.71272C104.25 10.5127 106.35 11.2127 108.25 10.4127L108.25 10.4127C110.25 9.51272 111.05 7.11272 109.95 5.21272C106.05-1.58728 98.35-15.9873 94.95-22.0873C88.65-33.3873 92.45-43.4873 91.85-47.8873C91.55-49.8873 90.75-51.0873 89.95-51.7873C88.95-52.6873 88.65-54.0873 89.25-55.2873L89.35-55.5873C90.05-56.8873 91.55-57.5873 92.95-57.0873L139.35-40.8873C141.15-40.2873 142.05-38.1873 141.15-36.4873L141.15-36.4873C140.55-35.3873 139.45-34.6873 138.25-34.6873C136.35-34.6873 135.65-34.4873 132.75-31.4873C127.05-25.7873 132.95-12.0873 136.55-3.18728C139.05 3.11272 141.55 27.7127 117.05 35.9127C92.55 44.1127 81.05 18.2127 81.05 18.2127L32.55-102.087C29.45-107.787 28.65-108.887 25.25-108.887L22.65-108.887L20.05-106.187L3.15-104.087L2.95-105.387ZM46.35-58.0873L53.45-60.9873C54.65-61.4873 55.15-62.7873 54.65-63.8873C54.15-65.0873 52.85-65.5873 51.75-65.0873L44.65-62.2873C43.45-61.7873 42.95-60.4873 43.45-59.3873C43.85-58.4873 44.65-57.9873 45.55-57.9873C45.75-57.9873 46.05-57.9873 46.35-58.0873ZM52.55-42.7873L59.65-45.6873C60.85-46.1873 61.35-47.4873 60.85-48.5873C60.35-49.7873 59.05-50.2873 57.95-49.7873L50.85-46.8873C49.65-46.3873 49.15-45.0873 49.65-43.9873C50.05-43.0873 50.85-42.5873 51.75-42.5873C51.95-42.5873 52.25-42.6873 52.55-42.7873ZM58.75-27.4873L65.85-30.3873C67.05-30.8873 67.55-32.1873 67.05-33.2873C66.55-34.4873 65.25-34.9873 64.15-34.4873L57.05-31.5873C55.85-31.0873 55.35-29.7873 55.85-28.6873C56.25-27.7873 57.05-27.2873 57.95-27.2873C58.25-27.2873 58.55-27.3873 58.75-27.4873ZM65.05-12.1873L72.15-15.0873C73.35-15.5873 73.85-16.8873 73.35-17.9873C72.85-19.0873 71.55-19.6873 70.45-19.1873L63.35-16.2873C62.15-15.7873 61.65-14.4873 62.15-13.3873C62.55-12.4873 63.35-11.9873 64.25-11.9873C64.45-11.9873 64.75-11.9873 65.05-12.1873Z"/>
  </g>
  <g id="Ultralight-L" transform="matrix(1 0 0 1 489.306 1556)">
   <path d="M3.05-103.536C3.05-103.536 5.25-103.536 7.75-105.336C10.25-107.136 11.15-110.636 11.15-110.636L22.45-112.536L23.35-111.636C23.35-111.636 36.55-116.236 42.85-105.336L62.55-65.9363L100.85 7.7637C101.75 9.4637 103.85 10.1637 105.55 9.3637L105.55 9.3637C107.45 8.4637 108.25 6.1637 107.25 4.2637C103.45-2.4363 95.95-16.3363 92.65-22.3363C86.55-33.4363 90.15-43.2363 89.55-47.5363C89.25-49.4363 88.55-50.6363 87.75-51.3363C86.75-52.2363 86.45-53.6363 87.05-54.7363L87.15-55.0363C87.75-56.3363 89.35-56.9363 90.65-56.4363L135.95-40.6363C137.75-40.0363 138.55-38.0363 137.75-36.3363L137.75-36.3363C137.25-35.2363 136.15-34.6363 134.95-34.6363C133.05-34.6363 132.45-34.4363 129.55-31.5363C124.05-26.0363 129.75-12.6363 133.25-3.9363C135.75 2.1637 138.15 26.1637 114.25 34.1637C90.35 42.1637 79.25 16.9637 79.25 16.9637L31.85-100.236C28.75-105.736 28.05-106.936 24.65-106.836L22.05-106.836L19.45-104.236L2.95-102.236L3.05-103.536ZM45.25-57.6363L52.15-60.4363C53.15-60.8363 53.65-61.9363 53.25-62.9363C52.85-63.9363 51.75-64.4363 50.75-64.0363L43.85-61.2363C42.85-60.8363 42.35-59.7363 42.75-58.7363C43.05-57.9363 43.75-57.5363 44.55-57.5363C44.75-57.5363 44.95-57.5363 45.25-57.6363ZM51.35-42.7363L58.25-45.5363C59.25-45.9363 59.75-47.0363 59.35-48.0363C58.95-49.0363 57.85-49.5363 56.85-49.1363L49.95-46.3363C48.95-45.9363 48.45-44.8363 48.85-43.8363C49.15-43.0363 49.85-42.6363 50.65-42.6363C50.85-42.5363 51.05-42.6363 51.35-42.7363ZM57.35-27.7363L64.25-30.5363C65.25-30.9363 65.75-32.0363 65.35-33.0363C64.95-34.0363 63.85-34.5363 62.85-34.1363L55.95-31.3363C54.95-30.9363 54.45-29.8363 54.85-28.8363C55.15-28.0363 55.85-27.6363 56.65-27.6363C56.85-27.6363 57.15-27.6363 57.35-27.7363ZM63.45-12.8363L70.35-15.6363C71.35-16.0363 71.85-17.1363 71.45-18.1363C71.05-19.1363 69.95-19.6363 68.95-19.2363L62.05-16.4363C61.05-16.0363 60.55-14.9363 60.95-13.9363C61.25-13.1363 61.95-12.7363 62.75-12.7363C62.95-12.6363 63.25-12.7363 63.45-12.8363Z"/>
  </g>
  <g id="Black-M" transform="matrix(1 0 0 1 2869.14 1126)">
   <path d="M2.95-98.0247C2.95-98.0247 4.95-98.0247 7.25-99.7247C9.55-101.425 10.35-104.525 10.35-104.525L20.55-106.225L21.35-105.425C21.35-105.425 33.35-109.625 39.15-99.6247L57.05-63.7247L91.95 3.27533C92.75 4.87533 94.65 5.47533 96.25 4.77533L96.25 4.77533C98.05 3.97533 98.75 1.77533 97.75 0.175331C94.35-5.92467 87.45-18.6247 84.45-24.0247C78.85-34.1247 82.25-43.0247 81.65-46.9247C81.35-48.7247 80.65-49.7247 79.95-50.4247C79.05-51.2247 78.85-52.5247 79.35-53.5247L79.45-53.7247C80.05-54.9247 81.45-55.4247 82.65-55.0247L123.85-40.6247C125.45-40.0247 126.25-38.2247 125.45-36.7247L125.45-36.7247C124.95-35.7247 123.95-35.1247 122.85-35.1247C121.15-35.1247 120.55-34.9247 117.95-32.3247C112.95-27.3247 118.15-15.1247 121.35-7.22467C123.55-1.62467 125.85 20.1753 104.05 27.3753C82.25 34.5753 72.15 11.6753 72.15 11.6753L29.15-95.0247C26.35-100.025 25.65-101.125 22.65-101.025L20.35-101.025L18.05-98.6247L3.05-96.8247L2.95-98.0247ZM41.95-54.6247L48.25-57.1247C50.05-57.8247 50.95-59.9247 50.15-61.7247C49.45-63.5247 47.35-64.4247 45.55-63.6247L39.25-61.1247C37.45-60.4247 36.55-58.3247 37.35-56.5247C37.95-55.1247 39.25-54.3247 40.55-54.3247C41.05-54.4247 41.45-54.4247 41.95-54.6247ZM47.45-41.0247L53.75-43.5247C55.55-44.2247 56.45-46.3247 55.65-48.1247C54.85-49.9247 52.85-50.8247 51.05-50.0247L44.75-47.5247C42.95-46.8247 42.05-44.7247 42.85-42.9247C43.45-41.5247 44.75-40.7247 46.05-40.7247C46.55-40.8247 47.05-40.9247 47.45-41.0247ZM52.95-27.4247L59.25-29.9247C61.05-30.6247 61.95-32.7247 61.15-34.5247C60.35-36.3247 58.35-37.1247 56.55-36.4247L50.25-33.9247C48.45-33.2247 47.55-31.1247 48.35-29.3247C48.95-27.9247 50.25-27.1247 51.55-27.1247C52.15-27.2247 52.55-27.3247 52.95-27.4247ZM58.55-13.8247L64.85-16.3247C66.65-17.0247 67.55-19.1247 66.75-20.9247C66.05-22.7247 63.95-23.6247 62.15-22.8247L55.85-20.3247C54.05-19.6247 53.15-17.5247 53.95-15.7247C54.55-14.3247 55.85-13.5247 57.15-13.5247C57.65-13.6247 58.05-13.7247 58.55-13.8247Z"/>
  </g>
  <g id="Heavy-M" transform="matrix(1 0 0 1 2573.3 1126)">
   <path d="M2.95-97.0151C2.95-97.0151 4.85-97.0151 7.25-98.6151C9.55-100.215 10.25-103.315 10.25-103.315L20.35-105.015L21.15-104.215C21.15-104.215 32.95-108.415 38.65-98.5151L56.35-63.3151L90.65 2.68492C91.45 4.18492 93.35 4.88492 94.85 4.18492L94.85 4.18492C96.55 3.38492 97.25 1.28492 96.35-0.415077C92.95-6.41508 86.25-18.9151 83.25-24.3151C77.75-34.2151 81.05-43.0151 80.45-46.9151C80.25-48.6151 79.55-49.7151 78.85-50.3151C77.95-51.1151 77.75-52.3151 78.25-53.4151L78.35-53.6151C78.95-54.8151 80.25-55.3151 81.55-54.9151L122.15-40.7151C123.75-40.1151 124.45-38.3151 123.75-36.8151L123.75-36.8151C123.25-35.8151 122.25-35.2151 121.25-35.3151C119.55-35.3151 118.95-35.1151 116.45-32.5151C111.45-27.5151 116.65-15.5151 119.75-7.71508C121.95-2.21508 124.15 19.2849 102.65 26.3849C81.15 33.4849 71.15 10.9849 71.15 10.9849L28.75-94.2151C25.95-99.2151 25.35-100.215 22.35-100.115L20.05-100.115L17.75-97.7151L2.95-95.9151L2.95-97.0151ZM41.35-54.5151L47.55-57.0151C49.25-57.7151 50.05-59.6151 49.35-61.2151C48.65-62.9151 46.75-63.7151 45.15-63.0151L38.95-60.5151C37.25-59.8151 36.45-57.9151 37.15-56.3151C37.65-55.0151 38.85-54.3151 40.15-54.3151C40.55-54.3151 40.95-54.4151 41.35-54.5151ZM46.75-41.1151L52.95-43.6151C54.65-44.3151 55.45-46.2151 54.75-47.8151C54.05-49.5151 52.15-50.3151 50.55-49.6151L44.35-47.1151C42.65-46.4151 41.85-44.5151 42.55-42.9151C43.05-41.6151 44.25-40.9151 45.55-40.9151C45.95-40.9151 46.35-41.0151 46.75-41.1151ZM52.25-27.7151L58.45-30.2151C60.15-30.9151 60.95-32.8151 60.25-34.4151C59.55-36.1151 57.65-36.9151 56.05-36.2151L49.85-33.7151C48.15-33.0151 47.35-31.1151 48.05-29.5151C48.55-28.2151 49.75-27.5151 51.05-27.5151C51.45-27.5151 51.85-27.6151 52.25-27.7151ZM57.65-14.4151L63.85-16.9151C65.55-17.6151 66.35-19.5151 65.65-21.1151C64.95-22.8151 63.05-23.6151 61.45-22.9151L55.25-20.4151C53.55-19.7151 52.75-17.8151 53.45-16.2151C53.95-14.9151 55.15-14.2151 56.45-14.2151C56.85-14.1151 57.25-14.2151 57.65-14.4151Z"/>
  </g>
  <g id="Bold-M" transform="matrix(1 0 0 1 2277.56 1126)">
   <path d="M2.95-96.1396C2.95-96.1396 4.85-96.1396 7.15-97.7396C9.45-99.3396 10.15-102.34 10.15-102.34L20.05-104.04L20.85-103.24C20.85-103.24 32.45-107.34 38.05-97.6396L55.45-62.8396L89.25 2.16041C90.05 3.66041 91.85 4.26041 93.45 3.56041L93.45 3.56041C95.15 2.86041 95.85 0.76041 94.95-0.93959C91.65-6.83959 84.95-19.1396 82.05-24.4396C76.65-34.2396 79.85-42.8396 79.35-46.6396C79.15-48.3396 78.45-49.4396 77.75-50.0396C76.95-50.8396 76.65-52.0396 77.15-53.0396L77.25-53.2396C77.85-54.3396 79.15-54.9396 80.35-54.5396L120.25-40.5396C121.85-40.0396 122.55-38.2396 121.75-36.7396L121.75-36.7396C121.25-35.8396 120.25-35.2396 119.25-35.2396C117.55-35.2396 117.05-35.0396 114.45-32.5396C109.55-27.6396 114.65-15.8396 117.75-8.13959C119.95-2.73959 122.05 18.4604 100.95 25.4604C79.85 32.4604 70.05 10.2604 70.05 10.2604L28.35-93.2396C25.65-98.1396 24.95-99.1396 22.05-99.0396L19.75-99.0396L17.45-96.7396L2.95-94.9396L2.95-96.1396ZM40.65-54.4396L46.75-56.9396C48.25-57.5396 49.05-59.3396 48.35-60.8396C47.65-62.3396 45.95-63.1396 44.45-62.4396L38.35-59.9396C36.85-59.3396 36.05-57.5396 36.75-56.0396C37.25-54.8396 38.35-54.1396 39.55-54.1396C39.85-54.1396 40.25-54.2396 40.65-54.4396ZM45.95-41.2396L52.05-43.7396C53.55-44.3396 54.35-46.1396 53.65-47.6396C53.05-49.1396 51.25-49.9396 49.75-49.2396L43.65-46.7396C42.15-46.1396 41.35-44.3396 42.05-42.8396C42.55-41.6396 43.65-40.9396 44.85-40.9396C45.25-41.0396 45.65-41.0396 45.95-41.2396ZM51.35-28.0396L57.45-30.5396C58.95-31.1396 59.75-32.9396 59.05-34.4396C58.45-35.9396 56.65-36.7396 55.15-36.0396L49.05-33.5396C47.55-32.9396 46.75-31.1396 47.45-29.6396C47.95-28.4396 49.05-27.7396 50.25-27.7396C50.55-27.8396 50.95-27.8396 51.35-28.0396ZM56.75-14.8396L62.85-17.3396C64.35-17.9396 65.15-19.7396 64.45-21.2396C63.85-22.7396 62.05-23.5396 60.55-22.8396L54.45-20.3396C52.95-19.7396 52.15-17.9396 52.85-16.4396C53.35-15.2396 54.45-14.5396 55.65-14.5396C55.95-14.6396 56.35-14.6396 56.75-14.8396Z"/>
  </g>
  <g id="Semibold-M" transform="matrix(1 0 0 1 1981.76 1126)">
   <path d="M2.95-95.2641C2.95-95.2641 4.85-95.2641 7.05-96.8641C9.25-98.4641 9.95-101.464 9.95-101.464L19.75-103.164L20.55-102.464C20.55-102.464 31.95-106.464 37.55-96.9641L54.65-62.6641L88.05 1.53592C88.85 3.03592 90.65 3.63592 92.15 2.93592L92.15 2.93592C93.85 2.13592 94.55 0.135918 93.55-1.46408C90.25-7.26408 83.75-19.3641 80.85-24.6641C75.55-34.2641 78.75-42.8641 78.15-46.5641C77.95-48.2641 77.25-49.2641 76.55-49.8641C75.75-50.6641 75.45-51.8641 75.95-52.8641L76.05-53.0641C76.65-54.1641 77.95-54.7641 79.15-54.2641L118.45-40.5641C119.95-40.0641 120.75-38.2641 119.95-36.7641L119.95-36.7641C119.45-35.8641 118.55-35.2641 117.45-35.2641C115.85-35.2641 115.25-35.0641 112.75-32.5641C107.95-27.7641 112.95-16.0641 115.95-8.56408C118.05-3.26408 120.25 17.6359 99.45 24.5359C78.65 31.4359 69.15 9.53592 69.15 9.53592L28.05-92.4641C25.35-97.2641 24.75-98.2641 21.85-98.1641L19.65-98.1641L17.45-95.8641L2.95-94.0641L2.95-95.2641ZM40.05-54.3641L46.05-56.7641C47.45-57.3641 48.15-58.9641 47.55-60.3641C46.95-61.7641 45.35-62.4641 43.95-61.8641L37.95-59.4641C36.55-58.8641 35.85-57.2641 36.45-55.8641C36.85-54.7641 37.95-54.1641 38.95-54.1641C39.35-54.1641 39.65-54.2641 40.05-54.3641ZM45.35-41.3641L51.35-43.7641C52.75-44.3641 53.45-45.9641 52.85-47.3641C52.25-48.7641 50.65-49.4641 49.25-48.8641L43.25-46.4641C41.85-45.8641 41.15-44.2641 41.75-42.8641C42.15-41.7641 43.25-41.1641 44.25-41.1641C44.65-41.1641 44.95-41.2641 45.35-41.3641ZM50.55-28.3641L56.55-30.7641C57.95-31.3641 58.65-32.9641 58.05-34.3641C57.45-35.7641 55.85-36.4641 54.45-35.8641L48.45-33.4641C47.05-32.8641 46.35-31.2641 46.95-29.8641C47.35-28.7641 48.45-28.1641 49.45-28.1641C49.95-28.1641 50.25-28.2641 50.55-28.3641ZM55.85-15.3641L61.85-17.7641C63.25-18.3641 63.95-19.9641 63.35-21.3641C62.75-22.7641 61.15-23.4641 59.75-22.8641L53.75-20.4641C52.35-19.8641 51.65-18.2641 52.25-16.8641C52.65-15.7641 53.75-15.1641 54.75-15.1641C55.15-15.1641 55.55-15.2641 55.85-15.3641Z"/>
  </g>
  <g id="Medium-M" transform="matrix(1 0 0 1 1686.17 1126)">
   <path d="M2.95-94.0544C2.95-94.0544 4.85-94.0544 6.95-95.5544C9.05-97.0544 9.85-100.154 9.85-100.154L19.45-101.754L20.25-101.054C20.25-101.054 31.45-105.054 36.85-95.6544L53.65-62.0544L86.35 0.845554C87.15 2.34555 88.85 2.94555 90.35 2.24555L90.35 2.24555C92.05 1.44555 92.65-0.554446 91.75-2.15445C88.55-7.85445 82.15-19.7544 79.25-24.8544C74.05-34.2544 77.15-42.6544 76.65-46.3544C76.45-47.9544 75.75-49.0544 75.15-49.6544C74.35-50.4544 74.05-51.5544 74.55-52.5544L74.65-52.7544C75.25-53.8544 76.45-54.3544 77.65-53.9544L116.25-40.4544C117.75-39.9544 118.45-38.1544 117.75-36.7544L117.75-36.7544C117.25-35.8544 116.35-35.2544 115.35-35.2544C113.75-35.2544 113.15-35.0544 110.75-32.6544C106.05-27.9544 110.95-16.4544 113.85-9.05445C115.95-3.85445 118.05 16.6456 97.65 23.4456C77.25 30.2456 67.75 8.64555 67.75 8.64555L27.45-91.3544C24.85-96.0544 24.15-97.0544 21.35-96.9544L19.15-96.9544L16.95-94.6544L2.95-92.9544L2.95-94.0544ZM39.25-54.1544L45.15-56.5544C46.45-57.0544 47.05-58.5544 46.55-59.8544C46.05-61.1544 44.55-61.7544 43.25-61.2544L37.35-58.8544C36.05-58.3544 35.45-56.8544 35.95-55.5544C36.35-54.5544 37.25-53.9544 38.25-53.9544C38.55-53.9544 38.85-54.0544 39.25-54.1544ZM44.35-41.4544L50.25-43.8544C51.55-44.3544 52.15-45.8544 51.65-47.1544C51.15-48.4544 49.65-49.0544 48.35-48.5544L42.45-46.1544C41.15-45.6544 40.55-44.1544 41.05-42.8544C41.45-41.8544 42.35-41.2544 43.35-41.2544C43.75-41.2544 44.05-41.3544 44.35-41.4544ZM49.55-28.7544L55.45-31.1544C56.75-31.6544 57.35-33.1544 56.85-34.4544C56.35-35.7544 54.85-36.3544 53.55-35.8544L47.65-33.4544C46.35-32.9544 45.75-31.4544 46.25-30.1544C46.65-29.1544 47.55-28.5544 48.55-28.5544C48.95-28.5544 49.25-28.5544 49.55-28.7544ZM54.75-15.9544L60.65-18.3544C61.95-18.8544 62.55-20.3544 62.05-21.6544C61.55-22.9544 60.05-23.5544 58.75-23.0544L52.85-20.5544C51.55-20.0544 50.95-18.5544 51.45-17.2544C51.85-16.2544 52.75-15.6544 53.75-15.6544C54.15-15.7544 54.45-15.8544 54.75-15.9544Z"/>
  </g>
  <g id="Regular-M" transform="matrix(1 0 0 1 1390.56 1126)">
   <path d="M2.95-92.979C2.95-92.979 4.75-92.979 6.95-94.479C9.15-95.979 9.75-98.879 9.75-98.879L19.15-100.479L19.85-99.779C19.85-99.779 30.85-103.679 36.15-94.479L52.65-61.579L84.65 0.0210242C85.35 1.42102 87.15 2.02102 88.65 1.42102L88.65 1.42102C90.25 0.721024 90.95-1.27898 90.05-2.87898C86.95-8.37898 80.65-20.079 77.85-25.079C72.75-34.279 75.75-42.479 75.25-46.079C75.05-47.679 74.35-48.679 73.75-49.279C72.95-49.979 72.65-51.179 73.15-52.179L73.25-52.379C73.75-53.479 75.05-53.979 76.15-53.579L114.05-40.479C115.55-39.979 116.25-38.279 115.55-36.879L115.55-36.879C115.15-35.979 114.15-35.479 113.15-35.479C111.55-35.479 111.05-35.279 108.65-32.879C104.05-28.279 108.85-17.079 111.75-9.77898C113.85-4.67898 115.85 15.321 95.85 22.021C75.85 28.721 66.55 7.72102 66.55 7.72102L27.05-90.279C24.45-94.879 23.85-95.879 21.05-95.779L18.85-95.779L16.75-93.579L2.95-91.879L2.95-92.979ZM38.45-54.079L44.25-56.379C45.45-56.879 45.95-58.179 45.45-59.279C44.95-60.479 43.65-60.979 42.55-60.479L36.75-58.179C35.55-57.679 35.05-56.379 35.55-55.279C35.95-54.379 36.75-53.879 37.65-53.879C37.85-53.879 38.15-53.979 38.45-54.079ZM43.55-41.579L49.35-43.879C50.55-44.379 51.05-45.679 50.55-46.779C50.05-47.979 48.75-48.479 47.65-47.979L41.85-45.679C40.65-45.179 40.15-43.879 40.65-42.779C41.05-41.879 41.85-41.379 42.75-41.379C42.95-41.379 43.25-41.479 43.55-41.579ZM48.65-29.079L54.45-31.379C55.65-31.879 56.15-33.179 55.65-34.279C55.15-35.479 53.85-35.979 52.75-35.479L46.95-33.179C45.75-32.679 45.25-31.379 45.75-30.279C46.15-29.379 46.95-28.879 47.85-28.879C48.05-28.879 48.35-28.979 48.65-29.079ZM53.65-16.579L59.45-18.879C60.65-19.379 61.15-20.679 60.65-21.779C60.15-22.979 58.85-23.479 57.75-22.979L51.95-20.679C50.75-20.179 50.25-18.879 50.75-17.779C51.15-16.879 51.95-16.379 52.85-16.379C53.15-16.379 53.45-16.479 53.65-16.579Z"/>
  </g>
  <g id="Light-M" transform="matrix(1 0 0 1 1095.25 1126)">
   <path d="M2.95-91.4035C2.95-91.4035 4.75-91.4035 6.85-92.9035C8.95-94.4035 9.65-97.2035 9.65-97.2035L18.85-98.8035L19.55-98.1035C19.55-98.1035 30.25-101.903 35.45-92.9035L51.55-60.8035L82.65-0.703484C83.35 0.696516 85.05 1.29652 86.55 0.596516L86.55 0.596516C88.15-0.00348381 88.75-2.00348 87.95-3.50348C84.85-8.90348 78.75-20.3035 76.05-25.2035C71.05-34.2035 74.05-42.2035 73.55-45.7035C73.35-47.3035 72.65-48.2035 72.05-48.8035C71.25-49.5035 71.05-50.7035 71.45-51.6035L71.55-51.8035C72.05-52.9035 73.35-53.4035 74.45-53.0035L111.35-40.1035C112.75-39.6035 113.45-37.9035 112.75-36.6035L112.75-36.6035C112.35-35.7035 111.45-35.2035 110.45-35.2035C108.95-35.2035 108.35-35.0035 106.05-32.7035C101.55-28.2035 106.25-17.2035 109.05-10.2035C111.05-5.20348 113.05 14.2965 93.55 20.7965C74.05 27.2965 65.05 6.79652 65.05 6.79652L26.45-88.8035C23.95-93.3035 23.35-94.2035 20.65-94.2035L18.55-94.2035L16.35-92.0035L2.95-90.4035L2.95-91.4035ZM37.45-53.6035L43.05-55.9035C44.05-56.3035 44.55-57.5035 44.15-58.5035C43.75-59.5035 42.55-60.0035 41.55-59.6035L35.95-57.3035C34.95-56.9035 34.45-55.7035 34.85-54.7035C35.15-53.9035 35.95-53.5035 36.75-53.5035C36.95-53.5035 37.25-53.5035 37.45-53.6035ZM42.45-41.4035L48.05-43.7035C49.05-44.1035 49.55-45.3035 49.15-46.3035C48.75-47.3035 47.55-47.8035 46.55-47.4035L40.95-45.1035C39.95-44.7035 39.45-43.5035 39.85-42.5035C40.15-41.7035 40.95-41.3035 41.75-41.3035C41.95-41.3035 42.15-41.3035 42.45-41.4035ZM47.35-29.3035L52.95-31.6035C53.95-32.0035 54.45-33.2035 54.05-34.2035C53.65-35.2035 52.45-35.7035 51.45-35.3035L45.85-33.0035C44.85-32.6035 44.35-31.4035 44.75-30.4035C45.05-29.6035 45.85-29.2035 46.65-29.2035C46.85-29.1035 47.15-29.2035 47.35-29.3035ZM52.35-17.1035L57.95-19.4035C58.95-19.8035 59.45-21.0035 59.05-22.0035C58.65-23.0035 57.45-23.5035 56.45-23.1035L50.85-20.8035C49.85-20.4035 49.35-19.2035 49.75-18.2035C50.05-17.4035 50.85-17.0035 51.65-17.0035C51.85-16.9035 52.05-17.0035 52.35-17.1035Z"/>
  </g>
  <g id="Thin-M" transform="matrix(1 0 0 1 799.835 1126)">
   <path d="M2.95-89.8183C2.95-89.8183 4.65-89.8183 6.75-91.2183C8.85-92.6183 9.35-95.4183 9.35-95.4183L18.35-96.9183L19.05-96.2183C19.05-96.2183 29.55-99.9183 34.55-91.2183L50.25-59.9183L80.75-1.21835C81.45 0.0816519 83.05 0.681652 84.45 0.0816519L84.45 0.0816519C85.95-0.618348 86.65-2.51835 85.75-4.01835C82.75-9.31835 76.75-20.4183 74.15-25.2183C69.25-34.0183 72.15-41.8183 71.75-45.2183C71.55-46.7183 70.95-47.7183 70.35-48.3183C69.55-49.0183 69.35-50.1183 69.85-51.0183L69.95-51.2183C70.45-52.2183 71.65-52.7183 72.75-52.3183L108.75-39.7183C110.15-39.2183 110.85-37.6183 110.15-36.3183L110.15-36.3183C109.75-35.4183 108.85-34.9183 107.85-34.9183C106.35-34.9183 105.85-34.7183 103.55-32.4183C99.15-28.0183 103.75-17.3183 106.45-10.4183C108.45-5.51835 110.35 13.4817 91.35 19.8817C72.35 26.2817 63.45 6.08165 63.45 6.08165L25.85-87.2183C23.45-91.6183 22.75-92.5183 20.15-92.5183L18.15-92.5183L16.15-90.4183L2.95-88.7183L2.95-89.8183ZM36.55-53.1183L42.05-55.3183C42.95-55.7183 43.35-56.7183 43.05-57.6183C42.65-58.5183 41.65-58.9183 40.75-58.6183L35.25-56.4183C34.35-56.0183 33.95-55.0183 34.25-54.1183C34.55-53.4183 35.15-53.0183 35.85-53.0183C36.05-53.0183 36.35-53.0183 36.55-53.1183ZM41.35-41.2183L46.85-43.4183C47.75-43.8183 48.15-44.8183 47.85-45.7183C47.45-46.6183 46.45-47.0183 45.55-46.7183L40.05-44.5183C39.15-44.1183 38.75-43.1183 39.05-42.2183C39.35-41.5183 39.95-41.1183 40.65-41.1183C40.95-41.1183 41.15-41.1183 41.35-41.2183ZM46.15-29.3183L51.65-31.5183C52.55-31.9183 52.95-32.9183 52.65-33.8183C52.25-34.7183 51.25-35.1183 50.35-34.8183L44.85-32.6183C43.95-32.2183 43.55-31.2183 43.85-30.3183C44.15-29.6183 44.75-29.2183 45.45-29.2183C45.75-29.2183 45.95-29.2183 46.15-29.3183ZM51.05-17.4183L56.55-19.6183C57.45-20.0183 57.85-21.0183 57.55-21.9183C57.25-22.8183 56.15-23.2183 55.25-22.9183L49.75-20.7183C48.85-20.3183 48.45-19.3183 48.75-18.4183C49.05-17.7183 49.65-17.3183 50.35-17.3183C50.55-17.3183 50.85-17.3183 51.05-17.4183Z"/>
  </g>
  <g id="Ultralight-M" transform="matrix(1 0 0 1 504.495 1126)">
   <path d="M2.95-88.3429C2.95-88.3429 4.65-88.3429 6.65-89.7429C8.65-91.1429 9.25-93.7429 9.25-93.7429L17.95-95.2429L18.65-94.5429C18.65-94.5429 28.85-98.1429 33.75-89.6429L49.05-59.1429L78.75-2.04287C79.45-0.742874 81.05-0.142874 82.45-0.742874L82.45-0.742874C83.95-1.44287 84.55-3.24287 83.75-4.74287C80.85-9.94287 75.05-20.7429 72.45-25.3429C67.65-33.9429 70.55-41.5429 70.05-44.8429C69.85-46.3429 69.25-47.2429 68.65-47.8429C67.95-48.5429 67.65-49.6429 68.15-50.5429L68.25-50.7429C68.75-51.7429 69.95-52.2429 70.95-51.8429L106.05-39.5429C107.45-39.0429 108.05-37.4429 107.45-36.1429L107.45-36.1429C107.05-35.3429 106.15-34.8429 105.25-34.8429C103.75-34.8429 103.25-34.6429 101.05-32.4429C96.75-28.1429 101.25-17.7429 103.95-11.0429C105.85-6.24287 107.75 12.2571 89.15 18.4571C70.55 24.6571 61.95 5.05713 61.95 5.05713L25.25-85.8429C22.85-90.1429 22.25-91.0429 19.65-90.9429L17.65-90.9429L15.65-88.8429L3.05-87.2429L2.95-88.3429ZM35.65-52.7429L40.95-54.9429C41.75-55.2429 42.05-56.1429 41.75-56.9429C41.45-57.7429 40.55-58.0429 39.75-57.7429L34.45-55.5429C33.65-55.2429 33.35-54.3429 33.65-53.5429C33.85-52.9429 34.45-52.6429 35.05-52.6429C35.25-52.6429 35.45-52.6429 35.65-52.7429ZM40.35-41.1429L45.65-43.3429C46.45-43.6429 46.75-44.5429 46.45-45.3429C46.15-46.1429 45.25-46.4429 44.45-46.1429L39.25-43.9429C38.45-43.6429 38.15-42.7429 38.45-41.9429C38.65-41.3429 39.25-41.0429 39.85-41.0429C39.95-41.0429 40.15-41.0429 40.35-41.1429ZM45.05-29.5429L50.35-31.7429C51.15-32.0429 51.45-32.9429 51.15-33.7429C50.85-34.5429 49.95-34.8429 49.15-34.5429L43.85-32.3429C43.05-32.0429 42.75-31.1429 43.05-30.3429C43.25-29.7429 43.85-29.4429 44.45-29.4429C44.65-29.4429 44.85-29.5429 45.05-29.5429ZM49.75-18.0429L55.05-20.2429C55.85-20.5429 56.15-21.4429 55.85-22.2429C55.55-23.0429 54.65-23.3429 53.85-23.0429L48.55-20.8429C47.75-20.5429 47.45-19.6429 47.75-18.8429C47.95-18.2429 48.55-17.9429 49.15-17.9429C49.45-17.8429 49.55-17.9429 49.75-18.0429Z"/>
  </g>
  <g id="Black-S" transform="matrix(1 0 0 1 2882.47 696)">
   <path d="M2.95-78.8068C2.95-78.8068 4.45-78.8068 6.35-80.1068C8.25-81.4068 8.75-83.9068 8.75-83.9068L16.75-85.3068L17.35-84.7068C17.35-84.7068 26.75-88.0068 31.25-80.2068L45.25-52.1068L72.65 0.493229C73.25 1.69323 74.75 2.19323 76.05 1.69323L76.05 1.69323C77.45 1.09323 77.95-0.606771 77.25-1.90677C74.55-6.70677 69.25-16.6068 66.85-20.9068C62.45-28.8068 65.15-35.8068 64.65-38.8068C64.45-40.2068 63.95-41.0068 63.35-41.5068C62.65-42.1068 62.45-43.1068 62.85-44.0068L62.95-44.2068C63.45-45.1068 64.45-45.6068 65.45-45.2068L97.65-33.9068C98.95-33.5068 99.45-32.0068 98.85-30.8068L98.85-30.8068C98.45-30.0068 97.65-29.6068 96.85-29.6068C95.55-29.6068 95.05-29.4068 93.05-27.4068C89.15-23.6068 93.15-14.0068 95.65-7.80677C97.45-3.50677 99.15 13.5932 82.15 19.2932C65.15 24.9932 57.15 6.99323 57.15 6.99323L23.45-76.5068C21.25-80.4068 20.75-81.2068 18.35-81.2068L16.55-81.2068L14.75-79.3068L2.95-77.9068L2.95-78.8068ZM33.55-44.9068L38.45-46.9068C39.85-47.5068 40.55-49.1068 39.95-50.5068C39.35-51.9068 37.75-52.6068 36.35-52.0068L31.45-50.0068C30.05-49.4068 29.35-47.8068 29.95-46.4068C30.35-45.3068 31.45-44.7068 32.45-44.7068C32.85-44.7068 33.15-44.7068 33.55-44.9068ZM37.85-34.2068L42.75-36.2068C44.15-36.8068 44.85-38.4068 44.25-39.8068C43.65-41.2068 42.05-41.9068 40.65-41.3068L35.75-39.3068C34.35-38.7068 33.65-37.1068 34.25-35.7068C34.65-34.6068 35.75-34.0068 36.75-34.0068C37.15-34.0068 37.55-34.1068 37.85-34.2068ZM42.15-23.6068L47.05-25.6068C48.45-26.2068 49.15-27.8068 48.55-29.2068C47.95-30.6068 46.35-31.3068 44.95-30.7068L40.05-28.7068C38.65-28.1068 37.95-26.5068 38.55-25.1068C38.95-24.0068 40.05-23.4068 41.05-23.4068C41.45-23.4068 41.85-23.5068 42.15-23.6068ZM46.55-12.9068L51.45-14.9068C52.85-15.5068 53.55-17.1068 52.95-18.5068C52.35-19.9068 50.75-20.6068 49.35-20.0068L44.45-18.0068C43.05-17.4068 42.35-15.8068 42.95-14.4068C43.35-13.3068 44.45-12.7068 45.45-12.7068C45.85-12.7068 46.15-12.8068 46.55-12.9068Z"/>
  </g>
  <g id="Heavy-S" transform="matrix(1 0 0 1 2586.47 696)">
   <path d="M2.95-78.1068C2.95-78.1068 4.45-78.1068 6.25-79.4068C8.05-80.6068 8.65-83.1068 8.65-83.1068L16.55-84.4068L17.15-83.8068C17.15-83.8068 26.35-87.1068 30.85-79.3068L44.65-51.6068L71.65-0.00677083C72.25 1.19323 73.75 1.69323 74.95 1.09323L74.95 1.09323C76.35 0.493229 76.85-1.20677 76.15-2.50677C73.45-7.10677 68.15-16.9068 65.85-21.1068C61.55-28.9068 64.15-35.8068 63.65-38.8068C63.45-40.2068 62.95-41.0068 62.35-41.5068C61.65-42.1068 61.45-43.1068 61.85-43.9068L61.95-44.1068C62.45-45.0068 63.45-45.4068 64.45-45.1068L96.25-34.0068C97.45-33.6068 98.05-32.1068 97.45-31.0068L97.45-31.0068C97.05-30.2068 96.25-29.8068 95.45-29.8068C94.15-29.8068 93.65-29.6068 91.65-27.6068C87.75-23.7068 91.75-14.3068 94.25-8.20677C95.95-3.90677 97.65 12.8932 80.85 18.4932C64.05 24.0932 56.35 6.49323 56.35 6.49323L23.15-75.8068C20.95-79.7068 20.45-80.5068 18.15-80.4068L16.35-80.4068L14.55-78.6068L2.95-77.2068L2.95-78.1068ZM33.05-44.8068L37.85-46.8068C39.15-47.3068 39.75-48.8068 39.25-50.1068C38.75-51.4068 37.25-52.0068 35.95-51.5068L31.15-49.5068C29.85-49.0068 29.25-47.5068 29.75-46.2068C30.15-45.2068 31.15-44.6068 32.15-44.6068C32.35-44.6068 32.65-44.7068 33.05-44.8068ZM37.25-34.3068L42.05-36.3068C43.35-36.8068 43.95-38.3068 43.45-39.6068C42.95-40.9068 41.45-41.5068 40.15-41.0068L35.35-39.0068C34.05-38.5068 33.45-37.0068 33.95-35.7068C34.35-34.7068 35.35-34.1068 36.35-34.1068C36.65-34.1068 36.95-34.2068 37.25-34.3068ZM41.55-23.8068L46.35-25.8068C47.65-26.3068 48.25-27.8068 47.75-29.1068C47.25-30.4068 45.75-31.0068 44.45-30.5068L39.65-28.5068C38.35-28.0068 37.75-26.5068 38.25-25.2068C38.65-24.2068 39.65-23.6068 40.65-23.6068C40.85-23.6068 41.25-23.7068 41.55-23.8068ZM45.85-13.3068L50.65-15.3068C51.95-15.8068 52.55-17.3068 52.05-18.6068C51.55-19.9068 50.05-20.5068 48.75-20.0068L43.95-18.0068C42.65-17.5068 42.05-16.0068 42.55-14.7068C42.95-13.7068 43.95-13.1068 44.95-13.1068C45.15-13.2068 45.45-13.2068 45.85-13.3068Z"/>
  </g>
  <g id="Bold-S" transform="matrix(1 0 0 1 2290.46 696)">
   <path d="M2.95-77.3313C2.95-77.3313 4.45-77.3313 6.25-78.6313C8.05-79.9313 8.55-82.2313 8.55-82.2313L16.35-83.5313L16.95-82.9313C16.95-82.9313 26.05-86.1313 30.45-78.5313L44.05-51.3313L70.55-0.331265C71.15 0.868735 72.65 1.36873 73.85 0.768735L73.85 0.768735C75.15 0.168735 75.75-1.43127 75.05-2.73127C72.45-7.43127 67.25-17.0313 64.95-21.2313C60.75-28.8313 63.25-35.6313 62.85-38.6313C62.65-39.9313 62.15-40.8313 61.55-41.3313C60.85-41.9313 60.65-42.9313 61.05-43.7313L61.15-43.9313C61.55-44.8313 62.65-45.2313 63.55-44.9313L94.85-34.0313C96.05-33.6313 96.65-32.2313 96.05-31.0313L96.05-31.0313C95.65-30.3313 94.95-29.8313 94.05-29.8313C92.75-29.8313 92.35-29.6313 90.35-27.7313C86.55-23.9313 90.45-14.6313 92.85-8.63127C94.55-4.43127 96.25 12.1687 79.65 17.6687C63.05 23.1687 55.55 5.96873 55.55 5.96873L22.85-75.1313C20.75-78.9313 20.15-79.7313 17.85-79.7313L16.05-79.7313L14.25-77.9313L3.05-76.4313L2.95-77.3313ZM32.55-44.6313L37.35-46.5313C38.55-47.0313 39.15-48.4313 38.65-49.6313C38.15-50.8313 36.75-51.4313 35.55-50.9313L30.75-49.0313C29.55-48.5313 28.95-47.1313 29.45-45.9313C29.85-45.0313 30.65-44.4313 31.65-44.4313C31.95-44.5313 32.25-44.5313 32.55-44.6313ZM36.75-34.3313L41.55-36.2313C42.75-36.7313 43.35-38.1313 42.85-39.3313C42.35-40.5313 40.95-41.1313 39.75-40.6313L34.95-38.7313C33.75-38.2313 33.15-36.8313 33.65-35.6313C34.05-34.7313 34.85-34.1313 35.85-34.1313C36.15-34.1313 36.45-34.2313 36.75-34.3313ZM40.95-24.0313L45.75-25.9313C46.95-26.4313 47.55-27.8313 47.05-29.0313C46.55-30.2313 45.15-30.8313 43.95-30.3313L39.15-28.4313C37.95-27.9313 37.35-26.5313 37.85-25.3313C38.25-24.4313 39.05-23.8313 40.05-23.8313C40.35-23.8313 40.65-23.9313 40.95-24.0313ZM45.15-13.7313L49.95-15.6313C51.15-16.1313 51.75-17.5313 51.25-18.7313C50.75-19.9313 49.35-20.5313 48.15-20.0313L43.35-18.1313C42.15-17.6313 41.55-16.2313 42.05-15.0313C42.45-14.1313 43.25-13.5313 44.25-13.5313C44.55-13.5313 44.85-13.5313 45.15-13.7313Z"/>
  </g>
  <g id="Semibold-S" transform="matrix(1 0 0 1 1994.5 696)">
   <path d="M2.95-76.7216C2.95-76.7216 4.45-76.7216 6.15-77.9216C7.85-79.1216 8.45-81.5216 8.45-81.5216L16.15-82.8216L16.75-82.2216C16.75-82.2216 25.75-85.4216 30.05-77.9216L43.45-51.1216L69.55-0.921609C70.15 0.278391 71.55 0.678391 72.75 0.178391L72.75 0.178391C74.05-0.421609 74.55-2.02161 73.85-3.32161C71.25-7.82161 66.15-17.3216 63.85-21.4216C59.65-28.9216 62.15-35.6216 61.75-38.5216C61.55-39.8216 61.05-40.6216 60.55-41.1216C59.95-41.7216 59.65-42.7216 60.05-43.4216L60.15-43.6216C60.55-44.5216 61.65-44.9216 62.55-44.6216L93.35-33.8216C94.55-33.4216 95.15-32.0216 94.55-30.9216L94.55-30.9216C94.15-30.2216 93.45-29.7216 92.65-29.7216C91.35-29.7216 90.95-29.5216 88.95-27.6216C85.15-23.8216 89.05-14.7216 91.45-8.82161C93.15-4.62161 94.75 11.6784 78.45 17.0784C62.15 22.4784 54.75 5.27839 54.75 5.27839L22.55-74.5216C20.45-78.3216 19.95-79.0216 17.65-79.0216L15.85-79.0216L14.15-77.2216L2.95-75.8216L2.95-76.7216ZM31.95-44.7216L36.65-46.6216C37.75-47.0216 38.25-48.3216 37.85-49.4216C37.45-50.5216 36.15-51.0216 35.05-50.6216L30.35-48.7216C29.25-48.3216 28.75-47.0216 29.15-45.9216C29.45-45.1216 30.25-44.6216 31.15-44.6216C31.35-44.5216 31.65-44.6216 31.95-44.7216ZM36.05-34.5216L40.75-36.4216C41.85-36.8216 42.35-38.1216 41.95-39.2216C41.55-40.3216 40.25-40.8216 39.15-40.4216L34.45-38.5216C33.35-38.1216 32.85-36.8216 33.25-35.7216C33.55-34.9216 34.35-34.4216 35.25-34.4216C35.55-34.4216 35.85-34.4216 36.05-34.5216ZM40.25-24.3216L44.95-26.2216C46.05-26.6216 46.55-27.9216 46.15-29.0216C45.75-30.1216 44.45-30.6216 43.35-30.2216L38.65-28.3216C37.55-27.9216 37.05-26.6216 37.45-25.5216C37.75-24.7216 38.55-24.2216 39.45-24.2216C39.65-24.2216 39.95-24.2216 40.25-24.3216ZM44.35-14.2216L49.05-16.1216C50.15-16.5216 50.65-17.8216 50.25-18.9216C49.85-20.0216 48.55-20.5216 47.45-20.1216L42.75-18.2216C41.65-17.8216 41.15-16.5216 41.55-15.4216C41.85-14.6216 42.65-14.1216 43.55-14.1216C43.85-14.0216 44.05-14.1216 44.35-14.2216Z"/>
  </g>
  <g id="Medium-S" transform="matrix(1 0 0 1 1698.66 696)">
   <path d="M2.95-75.7462C2.95-75.7462 4.35-75.7462 6.15-76.9462C7.75-78.1462 8.35-80.4462 8.35-80.4462L15.85-81.7462L16.45-81.1462C16.45-81.1462 25.25-84.2462 29.45-76.9462L42.65-50.6462L68.15-1.44615C68.75-0.346151 70.15 0.153849 71.35-0.346151L71.35-0.346151C72.65-0.946151 73.15-2.54615 72.45-3.74615C69.95-8.24615 64.95-17.5462 62.65-21.5462C58.65-28.9462 61.05-35.4462 60.65-38.3462C60.45-39.6462 59.95-40.4462 59.45-40.9462C58.85-41.5462 58.65-42.4462 58.95-43.2462L59.05-43.4462C59.45-44.3462 60.45-44.7462 61.45-44.4462L91.65-33.7462C92.85-33.3462 93.35-31.9462 92.85-30.8462L92.85-30.8462C92.45-30.1462 91.75-29.6462 90.95-29.7462C89.65-29.7462 89.25-29.5462 87.35-27.6462C83.65-23.9462 87.45-15.0462 89.85-9.24615C91.45-5.14615 93.15 10.8538 77.15 16.1538C61.15 21.4538 53.65 4.75385 53.65 4.75385L22.15-73.5462C20.15-77.2462 19.55-77.9462 17.35-77.9462L15.65-77.9462L13.95-76.1462L2.95-74.8462L2.95-75.7462ZM31.25-44.4462L35.85-46.3462C36.85-46.7462 37.35-47.8462 36.95-48.9462C36.55-49.9462 35.35-50.4462 34.35-50.0462L29.75-48.1462C28.75-47.7462 28.25-46.6462 28.65-45.5462C28.95-44.7462 29.65-44.3462 30.45-44.3462C30.75-44.3462 31.05-44.4462 31.25-44.4462ZM35.35-34.5462L39.95-36.4462C40.95-36.8462 41.45-37.9462 41.05-39.0462C40.65-40.0462 39.45-40.5462 38.45-40.1462L33.85-38.2462C32.85-37.8462 32.35-36.7462 32.75-35.6462C33.05-34.8462 33.75-34.4462 34.55-34.4462C34.85-34.3462 35.15-34.4462 35.35-34.5462ZM39.45-24.5462L44.05-26.4462C45.05-26.8462 45.55-27.9462 45.15-29.0462C44.75-30.0462 43.65-30.5462 42.55-30.1462L37.95-28.2462C36.95-27.8462 36.45-26.7462 36.85-25.6462C37.15-24.8462 37.85-24.4462 38.65-24.4462C38.95-24.4462 39.15-24.4462 39.45-24.5462ZM43.45-14.5462L48.05-16.4462C49.05-16.8462 49.55-17.9462 49.15-19.0462C48.75-20.0462 47.65-20.5462 46.55-20.1462L41.95-18.2462C40.95-17.8462 40.45-16.7462 40.85-15.6462C41.15-14.8462 41.85-14.4462 42.65-14.4462C42.95-14.4462 43.25-14.4462 43.45-14.5462Z"/>
  </g>
  <g id="Regular-S" transform="matrix(1 0 0 1 1402.82 696)">
   <path d="M2.95-74.8802C2.95-74.8802 4.35-74.8802 6.05-76.0802C7.75-77.2802 8.25-79.4802 8.25-79.4802L15.65-80.7802L16.25-80.1802C16.25-80.1802 24.85-83.1802 29.05-75.9802L41.95-50.1802L66.95-1.98017C67.55-0.880165 68.85-0.380165 70.05-0.880165L70.05-0.880165C71.35-1.48017 71.85-2.98017 71.15-4.18017C68.65-8.58017 63.75-17.6802 61.55-21.5802C57.55-28.7802 59.95-35.2802 59.55-38.0802C59.35-39.3802 58.85-40.0802 58.35-40.5802C57.75-41.1802 57.55-42.0802 57.95-42.8802L58.05-43.0802C58.45-43.8802 59.45-44.2802 60.35-43.9802L89.95-33.6802C91.15-33.2802 91.65-31.9802 91.05-30.8802L91.05-30.8802C90.65-30.1802 89.95-29.7802 89.15-29.7802C87.95-29.7802 87.45-29.5802 85.65-27.7802C82.05-24.1802 85.75-15.3802 88.05-9.68017C89.65-5.68017 91.25 10.0198 75.55 15.2198C59.85 20.4198 52.75 4.01983 52.75 4.01983L21.75-72.7802C19.75-76.3802 19.25-77.1802 17.05-77.0802L15.35-77.0802L13.75-75.2802L2.95-73.9802L2.95-74.8802ZM30.75-44.3802L35.25-46.1802C36.15-46.5802 36.55-47.5802 36.25-48.4802C35.85-49.3802 34.85-49.7802 33.95-49.4802L29.45-47.6802C28.55-47.2802 28.15-46.2802 28.45-45.3802C28.75-44.6802 29.35-44.2802 30.05-44.2802C30.25-44.2802 30.45-44.2802 30.75-44.3802ZM34.65-34.5802L39.15-36.3802C40.05-36.7802 40.45-37.7802 40.15-38.6802C39.75-39.5802 38.75-39.9802 37.85-39.6802L33.35-37.8802C32.45-37.4802 32.05-36.4802 32.35-35.5802C32.65-34.8802 33.25-34.4802 33.95-34.4802C34.25-34.4802 34.45-34.4802 34.65-34.5802ZM38.65-24.8802L43.15-26.6802C44.05-27.0802 44.45-28.0802 44.15-28.9802C43.75-29.8802 42.75-30.2802 41.85-29.9802L37.35-28.1802C36.45-27.7802 36.05-26.7802 36.35-25.8802C36.65-25.1802 37.25-24.7802 37.95-24.7802C38.25-24.6802 38.45-24.7802 38.65-24.8802ZM42.65-15.0802L47.15-16.8802C48.05-17.2802 48.45-18.2802 48.15-19.1802C47.75-20.0802 46.75-20.4802 45.85-20.1802L41.35-18.3802C40.45-17.9802 40.05-16.9802 40.35-16.0802C40.65-15.3802 41.25-14.9802 41.95-14.9802C42.15-14.8802 42.45-14.9802 42.65-15.0802Z"/>
  </g>
  <g id="Light-S" transform="matrix(1 0 0 1 1107.21 696)">
   <path d="M2.95-73.6707C2.95-73.6707 4.35-73.6707 5.95-74.8707C7.55-76.0707 8.05-78.1707 8.05-78.1707L15.25-79.3707L15.85-78.8707C15.85-78.8707 24.25-81.8707 28.35-74.7707L40.95-49.5707L65.35-2.57067C65.95-1.47067 67.25-1.07067 68.35-1.57067L68.35-1.57067C69.55-2.17067 70.05-3.67067 69.45-4.87067C67.05-9.17067 62.25-18.0707 60.15-21.8707C56.25-28.9707 58.55-35.1707 58.15-37.9707C57.95-39.1707 57.45-39.9707 56.95-40.4707C56.35-41.0707 56.15-41.9707 56.55-42.6707L56.65-42.8707C57.05-43.6707 58.05-44.0707 58.85-43.7707L87.75-33.6707C88.85-33.2707 89.45-31.9707 88.85-30.8707L88.85-30.8707C88.55-30.1707 87.85-29.7707 87.05-29.7707C85.85-29.7707 85.45-29.6707 83.65-27.7707C80.15-24.2707 83.75-15.6707 86.05-10.1707C87.65-6.27067 89.15 9.02933 73.85 14.1293C58.55 19.2293 51.55 3.12933 51.55 3.12933L21.25-71.6707C19.25-75.1707 18.75-75.9707 16.65-75.8707L15.05-75.8707L13.45-74.1707L2.95-72.8707L2.95-73.6707ZM29.95-44.0707L34.35-45.8707C35.15-46.1707 35.55-47.0707 35.25-47.8707C34.95-48.6707 34.05-49.0707 33.25-48.7707L28.85-46.9707C28.05-46.6707 27.65-45.7707 27.95-44.9707C28.15-44.3707 28.75-43.9707 29.45-43.9707C29.55-43.9707 29.75-43.9707 29.95-44.0707ZM33.85-34.5707L38.25-36.3707C39.05-36.6707 39.45-37.5707 39.15-38.3707C38.85-39.1707 37.95-39.5707 37.15-39.2707L32.75-37.4707C31.95-37.1707 31.55-36.2707 31.85-35.4707C32.05-34.8707 32.65-34.4707 33.35-34.4707C33.45-34.4707 33.65-34.4707 33.85-34.5707ZM37.65-24.9707L42.05-26.7707C42.85-27.0707 43.25-27.9707 42.95-28.7707C42.65-29.5707 41.75-29.9707 40.95-29.6707L36.55-27.8707C35.75-27.5707 35.35-26.6707 35.65-25.8707C35.85-25.2707 36.45-24.8707 37.15-24.8707C37.35-24.8707 37.55-24.9707 37.65-24.9707ZM41.55-15.4707L45.95-17.2707C46.75-17.5707 47.15-18.4707 46.85-19.2707C46.55-20.0707 45.65-20.4707 44.85-20.1707L40.35-18.3707C39.55-18.0707 39.15-17.1707 39.45-16.3707C39.65-15.7707 40.25-15.3707 40.95-15.3707C41.15-15.3707 41.35-15.3707 41.55-15.4707Z"/>
  </g>
  <g id="Thin-S" transform="matrix(1 0 0 1 811.525 696)">
   <path d="M2.95-72.2952C2.95-72.2952 4.35-72.2952 5.95-73.3952C7.55-74.4952 8.05-76.6952 8.05-76.6952L15.05-77.8952L15.55-77.3952C15.55-77.3952 23.75-80.2952 27.65-73.3952L39.95-48.8952L63.85-2.99515C64.45-1.89515 65.75-1.49515 66.75-1.99515L66.75-1.99515C67.95-2.59515 68.45-3.99515 67.75-5.19515C65.35-9.39515 60.75-17.9952 58.65-21.7952C54.85-28.6952 57.15-34.7952 56.75-37.4952C56.55-38.6952 56.05-39.3952 55.65-39.8952C55.05-40.4952 54.85-41.2952 55.25-41.9952L55.35-42.1952C55.75-42.9952 56.65-43.3952 57.55-43.0952L85.75-33.2952C86.85-32.8952 87.35-31.6952 86.85-30.5952L86.85-30.5952C86.55-29.8952 85.85-29.4952 85.05-29.4952C83.85-29.4952 83.45-29.3952 81.65-27.5952C78.25-24.0952 81.85-15.6952 83.95-10.2952C85.45-6.49515 87.05 8.40485 72.05 13.4048C57.05 18.4048 50.35 2.70485 50.35 2.70485L20.95-70.2952C19.05-73.6952 18.55-74.3952 16.45-74.3952L14.85-74.3952L13.25-72.7952L2.95-71.4952L2.95-72.2952ZM29.25-43.5952L33.55-45.2952C34.25-45.5952 34.55-46.3952 34.35-47.0952C34.05-47.7952 33.25-48.0952 32.55-47.8952L28.25-46.0952C27.55-45.7952 27.25-44.9952 27.45-44.2952C27.65-43.7952 28.15-43.3952 28.75-43.3952C28.95-43.4952 29.15-43.4952 29.25-43.5952ZM33.05-34.2952L37.35-35.9952C38.05-36.2952 38.35-37.0952 38.15-37.7952C37.85-38.4952 37.05-38.7952 36.35-38.5952L32.05-36.8952C31.35-36.5952 31.05-35.7952 31.25-35.0952C31.45-34.5952 31.95-34.1952 32.55-34.1952C32.75-34.1952 32.85-34.1952 33.05-34.2952ZM36.85-24.9952L41.15-26.6952C41.85-26.9952 42.15-27.7952 41.95-28.4952C41.65-29.1952 40.85-29.4952 40.15-29.2952L35.85-27.5952C35.15-27.2952 34.85-26.4952 35.05-25.7952C35.25-25.2952 35.75-24.8952 36.35-24.8952C36.55-24.8952 36.65-24.8952 36.85-24.9952ZM40.65-15.6952L44.95-17.3952C45.65-17.6952 45.95-18.4952 45.75-19.1952C45.45-19.8952 44.65-20.1952 43.95-19.9952L39.65-18.2952C38.95-17.9952 38.65-17.1952 38.85-16.4952C39.05-15.9952 39.55-15.5952 40.15-15.5952C40.25-15.5952 40.45-15.5952 40.65-15.6952Z"/>
  </g>
  <g id="Ultralight-S" transform="matrix(1 0 0 1 515.864 696)">
   <path d="M2.95-71.1196C2.95-71.1196 4.25-71.1196 5.85-72.2196C7.45-73.3196 7.95-75.4196 7.95-75.4196L14.75-76.6196L15.25-76.1196C15.25-76.1196 23.25-78.9196 27.05-72.2196L39.05-48.3196L62.35-3.6196C62.85-2.6196 64.15-2.1196 65.25-2.6196L65.25-2.6196C66.45-3.1196 66.85-4.6196 66.25-5.7196C63.95-9.7196 59.45-18.2196 57.35-21.9196C53.65-28.6196 55.85-34.6196 55.45-37.2196C55.25-38.4196 54.85-39.1196 54.35-39.5196C53.75-40.0196 53.55-40.9196 53.95-41.6196L54.05-41.8196C54.45-42.6196 55.35-43.0196 56.15-42.7196L83.65-33.1196C84.75-32.7196 85.25-31.5196 84.75-30.5196L84.75-30.5196C84.45-29.8196 83.75-29.4196 83.05-29.5196C81.95-29.5196 81.55-29.4196 79.75-27.6196C76.35-24.2196 79.85-16.1196 81.95-10.8196C83.45-7.1196 84.95 7.4804 70.35 12.2804C55.75 17.0804 49.15 1.9804 49.15 1.9804L20.45-69.2196C18.55-72.6196 18.15-73.2196 16.15-73.2196L14.55-73.2196L12.95-71.6196L2.95-70.4196L2.95-71.1196ZM28.55-43.3196L32.75-45.0196C33.35-45.2196 33.65-45.9196 33.35-46.5196C33.15-47.1196 32.45-47.4196 31.85-47.1196L27.65-45.4196C27.05-45.2196 26.75-44.5196 27.05-43.9196C27.25-43.4196 27.65-43.2196 28.15-43.2196C28.25-43.2196 28.45-43.2196 28.55-43.3196ZM32.25-34.2196L36.45-35.9196C37.05-36.1196 37.35-36.8196 37.05-37.4196C36.85-38.0196 36.15-38.3196 35.55-38.0196L31.35-36.3196C30.75-36.1196 30.45-35.4196 30.75-34.8196C30.95-34.3196 31.35-34.1196 31.85-34.1196C31.95-34.1196 32.15-34.1196 32.25-34.2196ZM35.95-25.1196L40.15-26.8196C40.75-27.0196 41.05-27.7196 40.75-28.3196C40.55-28.9196 39.85-29.2196 39.25-28.9196L35.05-27.2196C34.45-27.0196 34.15-26.3196 34.45-25.7196C34.65-25.2196 35.05-25.0196 35.55-25.0196C35.65-25.0196 35.75-25.1196 35.95-25.1196ZM39.65-16.1196L43.85-17.8196C44.45-18.0196 44.75-18.7196 44.45-19.3196C44.25-19.9196 43.55-20.2196 42.95-19.9196L38.75-18.2196C38.15-18.0196 37.85-17.3196 38.15-16.7196C38.35-16.2196 38.75-16.0196 39.25-16.0196C39.35-16.0196 39.45-16.0196 39.65-16.1196Z"/>
  </g>
 </g>
</svg>
