<?xml version="1.0" encoding="UTF-8"?>
<!--Generator: Apple Native CoreSVG 175.5-->
<!DOCTYPE svg
PUBLIC "-//W3C//DTD SVG 1.1//EN"
       "http://www.w3.org/Graphics/SVG/1.1/DTD/svg11.dtd">
<svg version="1.1" xmlns="http://www.w3.org/2000/svg" xmlns:xlink="http://www.w3.org/1999/xlink" width="3300" height="2200">
 <!--glyph: "uni10142B.medium", point size: 100.0, font version: "18.0d9e1", template writer version: "84"-->
 <g id="Notes">
  <rect height="2200" id="artboard" style="fill:white;opacity:1" width="3300" x="0" y="0"/>
  <line style="fill:none;stroke:black;opacity:1;stroke-width:0.5;" x1="263" x2="3036" y1="292" y2="292"/>
  <text style="stroke:none;fill:black;font-family:sans-serif;font-size:13;font-weight:bold;" transform="matrix(1 0 0 1 263 322)">Weight/Scale Variations</text>
  <text style="stroke:none;fill:black;font-family:sans-serif;font-size:13;text-anchor:middle;" transform="matrix(1 0 0 1 559.711 322)">Ultralight</text>
  <text style="stroke:none;fill:black;font-family:sans-serif;font-size:13;text-anchor:middle;" transform="matrix(1 0 0 1 856.422 322)">Thin</text>
  <text style="stroke:none;fill:black;font-family:sans-serif;font-size:13;text-anchor:middle;" transform="matrix(1 0 0 1 1153.13 322)">Light</text>
  <text style="stroke:none;fill:black;font-family:sans-serif;font-size:13;text-anchor:middle;" transform="matrix(1 0 0 1 1449.84 322)">Regular</text>
  <text style="stroke:none;fill:black;font-family:sans-serif;font-size:13;text-anchor:middle;" transform="matrix(1 0 0 1 1746.56 322)">Medium</text>
  <text style="stroke:none;fill:black;font-family:sans-serif;font-size:13;text-anchor:middle;" transform="matrix(1 0 0 1 2043.27 322)">Semibold</text>
  <text style="stroke:none;fill:black;font-family:sans-serif;font-size:13;text-anchor:middle;" transform="matrix(1 0 0 1 2339.98 322)">Bold</text>
  <text style="stroke:none;fill:black;font-family:sans-serif;font-size:13;text-anchor:middle;" transform="matrix(1 0 0 1 2636.69 322)">Heavy</text>
  <text style="stroke:none;fill:black;font-family:sans-serif;font-size:13;text-anchor:middle;" transform="matrix(1 0 0 1 2933.4 322)">Black</text>
  <line style="fill:none;stroke:black;opacity:1;stroke-width:0.5;" x1="263" x2="3036" y1="1903" y2="1903"/>
  <g transform="matrix(1 0 0 1 263 1933)">
   <path d="M9.24805 0.830078Q10.8691 0.830078 12.2949 0.214844Q13.7207-0.400391 14.8096-1.49414Q15.8984-2.58789 16.5186-4.01367Q17.1387-5.43945 17.1387-7.05078Q17.1387-8.66211 16.5186-10.0879Q15.8984-11.5137 14.8047-12.6074Q13.7109-13.7012 12.2852-14.3164Q10.8594-14.9316 9.23828-14.9316Q7.62695-14.9316 6.20117-14.3164Q4.77539-13.7012 3.69141-12.6074Q2.60742-11.5137 1.9873-10.0879Q1.36719-8.66211 1.36719-7.05078Q1.36719-5.43945 1.9873-4.01367Q2.60742-2.58789 3.69629-1.49414Q4.78516-0.400391 6.21094 0.214844Q7.63672 0.830078 9.24805 0.830078ZM9.24805-0.654297Q7.91992-0.654297 6.7627-1.14746Q5.60547-1.64062 4.73145-2.51953Q3.85742-3.39844 3.36426-4.56055Q2.87109-5.72266 2.87109-7.05078Q2.87109-8.37891 3.35938-9.54102Q3.84766-10.7031 4.72168-11.582Q5.5957-12.4609 6.75293-12.9541Q7.91016-13.4473 9.23828-13.4473Q10.5762-13.4473 11.7383-12.9541Q12.9004-12.4609 13.7793-11.582Q14.6582-10.7031 15.1514-9.54102Q15.6445-8.37891 15.6445-7.05078Q15.6445-5.72266 15.1514-4.56055Q14.6582-3.39844 13.7793-2.51953Q12.9004-1.64062 11.7432-1.14746Q10.5859-0.654297 9.24805-0.654297ZM5.6543-7.05078Q5.6543-6.72852 5.85938-6.52832Q6.06445-6.32812 6.40625-6.32812L8.51562-6.32812L8.51562-4.20898Q8.51562-3.88672 8.71094-3.67676Q8.90625-3.4668 9.23828-3.4668Q9.56055-3.4668 9.77051-3.67676Q9.98047-3.88672 9.98047-4.20898L9.98047-6.32812L12.0898-6.32812Q12.4219-6.32812 12.627-6.52832Q12.832-6.72852 12.832-7.05078Q12.832-7.38281 12.627-7.58789Q12.4219-7.79297 12.0898-7.79297L9.98047-7.79297L9.98047-9.90234Q9.98047-10.2344 9.77051-10.4443Q9.56055-10.6543 9.23828-10.6543Q8.90625-10.6543 8.71094-10.4443Q8.51562-10.2344 8.51562-9.90234L8.51562-7.79297L6.40625-7.79297Q6.06445-7.79297 5.85938-7.58789Q5.6543-7.38281 5.6543-7.05078Z"/>
  </g>
  <g transform="matrix(1 0 0 1 281.867 1933)">
   <path d="M11.709 2.91016Q13.75 2.91016 15.5518 2.12891Q17.3535 1.34766 18.7305-0.0292969Q20.1074-1.40625 20.8887-3.20801Q21.6699-5.00977 21.6699-7.05078Q21.6699-9.0918 20.8887-10.8936Q20.1074-12.6953 18.7305-14.0723Q17.3535-15.4492 15.5469-16.2305Q13.7402-17.0117 11.6992-17.0117Q9.6582-17.0117 7.85645-16.2305Q6.05469-15.4492 4.68262-14.0723Q3.31055-12.6953 2.5293-10.8936Q1.74805-9.0918 1.74805-7.05078Q1.74805-5.00977 2.5293-3.20801Q3.31055-1.40625 4.6875-0.0292969Q6.06445 1.34766 7.86621 2.12891Q9.66797 2.91016 11.709 2.91016ZM11.709 1.25Q9.98047 1.25 8.47656 0.605469Q6.97266-0.0390625 5.83496-1.17676Q4.69727-2.31445 4.05762-3.81836Q3.41797-5.32227 3.41797-7.05078Q3.41797-8.7793 4.05762-10.2832Q4.69727-11.7871 5.83008-12.9297Q6.96289-14.0723 8.4668-14.7119Q9.9707-15.3516 11.6992-15.3516Q13.4277-15.3516 14.9365-14.7119Q16.4453-14.0723 17.583-12.9297Q18.7207-11.7871 19.3652-10.2832Q20.0098-8.7793 20.0098-7.05078Q20.0098-5.32227 19.3701-3.81836Q18.7305-2.31445 17.5879-1.17676Q16.4453-0.0390625 14.9414 0.605469Q13.4375 1.25 11.709 1.25ZM7.17773-7.05078Q7.17773-6.69922 7.41211-6.47461Q7.64648-6.25 8.01758-6.25L10.8887-6.25L10.8887-3.36914Q10.8887-2.99805 11.1133-2.76855Q11.3379-2.53906 11.6895-2.53906Q12.0605-2.53906 12.29-2.76855Q12.5195-2.99805 12.5195-3.36914L12.5195-6.25L15.4004-6.25Q15.7715-6.25 16.001-6.47461Q16.2305-6.69922 16.2305-7.05078Q16.2305-7.42188 16.001-7.65137Q15.7715-7.88086 15.4004-7.88086L12.5195-7.88086L12.5195-10.752Q12.5195-11.1328 12.29-11.3623Q12.0605-11.5918 11.6895-11.5918Q11.3379-11.5918 11.1133-11.3574Q10.8887-11.123 10.8887-10.752L10.8887-7.88086L8.01758-7.88086Q7.63672-7.88086 7.40723-7.65137Q7.17773-7.42188 7.17773-7.05078Z"/>
  </g>
  <g transform="matrix(1 0 0 1 305.646 1933)">
   <path d="M14.9707 5.66406Q17.0605 5.66406 18.96 5.01465Q20.8594 4.36523 22.4512 3.19336Q24.043 2.02148 25.2197 0.429688Q26.3965-1.16211 27.0459-3.06641Q27.6953-4.9707 27.6953-7.05078Q27.6953-9.14062 27.0459-11.04Q26.3965-12.9395 25.2197-14.5312Q24.043-16.123 22.4512-17.2998Q20.8594-18.4766 18.9551-19.126Q17.0508-19.7754 14.9609-19.7754Q12.8711-19.7754 10.9717-19.126Q9.07227-18.4766 7.48535-17.2998Q5.89844-16.123 4.72168-14.5312Q3.54492-12.9395 2.90039-11.04Q2.25586-9.14062 2.25586-7.05078Q2.25586-4.9707 2.90527-3.06641Q3.55469-1.16211 4.72656 0.429688Q5.89844 2.02148 7.49023 3.19336Q9.08203 4.36523 10.9814 5.01465Q12.8809 5.66406 14.9707 5.66406ZM14.9707 3.84766Q13.1641 3.84766 11.5283 3.2959Q9.89258 2.74414 8.53516 1.74805Q7.17773 0.751953 6.17676-0.610352Q5.17578-1.97266 4.62891-3.6084Q4.08203-5.24414 4.08203-7.05078Q4.08203-8.86719 4.62891-10.5029Q5.17578-12.1387 6.17188-13.501Q7.16797-14.8633 8.52539-15.8594Q9.88281-16.8555 11.5186-17.4023Q13.1543-17.9492 14.9609-17.9492Q16.7773-17.9492 18.4131-17.4023Q20.0488-16.8555 21.4111-15.8594Q22.7734-14.8633 23.7744-13.501Q24.7754-12.1387 25.3223-10.5029Q25.8691-8.86719 25.8691-7.05078Q25.8691-5.24414 25.3223-3.6084Q24.7754-1.97266 23.7793-0.610352Q22.7832 0.751953 21.4209 1.74805Q20.0586 2.74414 18.4229 3.2959Q16.7871 3.84766 14.9707 3.84766ZM9.19922-7.05078Q9.19922-6.66992 9.45801-6.4209Q9.7168-6.17188 10.1172-6.17188L14.0625-6.17188L14.0625-2.2168Q14.0625-1.81641 14.3115-1.55762Q14.5605-1.29883 14.9512-1.29883Q15.3516-1.29883 15.6104-1.55273Q15.8691-1.80664 15.8691-2.2168L15.8691-6.17188L19.8242-6.17188Q20.2246-6.17188 20.4785-6.4209Q20.7324-6.66992 20.7324-7.05078Q20.7324-7.46094 20.4785-7.71484Q20.2246-7.96875 19.8242-7.96875L15.8691-7.96875L15.8691-11.9141Q15.8691-12.3242 15.6104-12.583Q15.3516-12.8418 14.9512-12.8418Q14.5605-12.8418 14.3115-12.583Q14.0625-12.3242 14.0625-11.9141L14.0625-7.96875L10.1172-7.96875Q9.70703-7.96875 9.45312-7.71484Q9.19922-7.46094 9.19922-7.05078Z"/>
  </g>
  <text style="stroke:none;fill:black;font-family:sans-serif;font-size:13;font-weight:bold;" transform="matrix(1 0 0 1 263 1953)">Design Variations</text>
  <text style="stroke:none;fill:black;font-family:sans-serif;font-size:13;" transform="matrix(1 0 0 1 263 1971)">Symbols are supported in up to nine weights and three scales.</text>
  <text style="stroke:none;fill:black;font-family:sans-serif;font-size:13;" transform="matrix(1 0 0 1 263 1989)">For optimal layout with text and other symbols, vertically align</text>
  <text style="stroke:none;fill:black;font-family:sans-serif;font-size:13;" transform="matrix(1 0 0 1 263 2007)">symbols with the adjacent text.</text>
  <line style="fill:none;stroke:#00AEEF;stroke-width:0.5;opacity:1.0;" x1="776" x2="776" y1="1919" y2="1933"/>
  <g transform="matrix(1 0 0 1 776 1933)">
   <path d="M3.31055 0.15625Q3.70117 0.15625 3.91602-0.00976562Q4.13086-0.175781 4.26758-0.585938L5.52734-4.0332L11.2891-4.0332L12.5488-0.585938Q12.6855-0.175781 12.9004-0.00976562Q13.1152 0.15625 13.4961 0.15625Q13.8867 0.15625 14.1162-0.0585938Q14.3457-0.273438 14.3457-0.644531Q14.3457-0.869141 14.2383-1.17188L9.6582-13.3691Q9.48242-13.8184 9.17969-14.043Q8.87695-14.2676 8.4082-14.2676Q7.5-14.2676 7.17773-13.3789L2.59766-1.16211Q2.49023-0.859375 2.49023-0.634766Q2.49023-0.263672 2.70996-0.0537109Q2.92969 0.15625 3.31055 0.15625ZM6.00586-5.51758L8.37891-12.0898L8.42773-12.0898L10.8008-5.51758Z"/>
  </g>
  <line style="fill:none;stroke:#00AEEF;stroke-width:0.5;opacity:1.0;" x1="793.197" x2="793.197" y1="1919" y2="1933"/>
  <text style="stroke:none;fill:black;font-family:sans-serif;font-size:13;font-weight:bold;" transform="matrix(1 0 0 1 776 1953)">Margins</text>
  <text style="stroke:none;fill:black;font-family:sans-serif;font-size:13;" transform="matrix(1 0 0 1 776 1971)">Leading and trailing margins on the left and right side of each symbol</text>
  <text style="stroke:none;fill:black;font-family:sans-serif;font-size:13;" transform="matrix(1 0 0 1 776 1989)">can be adjusted by modifying the x-location of the margin guidelines.</text>
  <text style="stroke:none;fill:black;font-family:sans-serif;font-size:13;" transform="matrix(1 0 0 1 776 2007)">Modifications are automatically applied proportionally to all</text>
  <text style="stroke:none;fill:black;font-family:sans-serif;font-size:13;" transform="matrix(1 0 0 1 776 2025)">scales and weights.</text>
  <g transform="matrix(1 0 0 1 1289 1933)">
   <path d="M2.8418 1.86523L4.54102 3.57422Q5.18555 4.22852 5.90332 4.17969Q6.62109 4.13086 7.31445 3.35938L18.0078-8.42773L17.041-9.4043L6.42578 2.27539Q6.16211 2.57812 5.89355 2.61719Q5.625 2.65625 5.27344 2.30469L4.10156 1.14258Q3.75 0.791016 3.79395 0.522461Q3.83789 0.253906 4.14062-0.0195312L15.6152-10.8203L14.6387-11.7871L3.04688-0.898438Q2.30469-0.214844 2.25098 0.498047Q2.19727 1.21094 2.8418 1.86523ZM9.25781-16.3281Q8.94531-16.0254 8.90625-15.6348Q8.86719-15.2441 9.04297-14.9512Q9.21875-14.6777 9.55566-14.541Q9.89258-14.4043 10.3809-14.5215Q11.4746-14.7754 12.5977-14.7314Q13.7207-14.6875 14.7949-13.9844L14.209-12.5293Q13.9551-11.9043 14.0674-11.4404Q14.1797-10.9766 14.5801-10.5664L16.875-8.25195Q17.2363-7.88086 17.5781-7.82227Q17.9199-7.76367 18.3398-7.8418L19.4043-8.03711L20.0684-7.36328L20.0293-6.80664Q20-6.43555 20.1221-6.12305Q20.2441-5.81055 20.6055-5.44922L21.3672-4.70703Q21.7285-4.3457 22.1533-4.33105Q22.5781-4.31641 22.9297-4.66797L25.8398-7.58789Q26.1914-7.93945 26.1816-8.35449Q26.1719-8.76953 25.8105-9.13086L25.0391-9.89258Q24.6875-10.2539 24.3799-10.3857Q24.0723-10.5176 23.7109-10.4883L23.1348-10.4395L22.4902-11.0742L22.7344-12.1973Q22.832-12.6172 22.6953-12.9834Q22.5586-13.3496 22.1191-13.7891L19.9219-15.9766Q18.6719-17.2168 17.2607-17.8369Q15.8496-18.457 14.4189-18.4814Q12.9883-18.5059 11.665-17.959Q10.3418-17.4121 9.25781-16.3281ZM10.752-15.957Q11.6602-16.6211 12.7002-16.9043Q13.7402-17.1875 14.8047-17.085Q15.8691-16.9824 16.8701-16.5137Q17.8711-16.0449 18.7012-15.2051L21.1328-12.793Q21.3086-12.6172 21.3525-12.4512Q21.3965-12.2852 21.3379-12.0312L21.0156-10.5469L22.5195-9.0625L23.5059-9.12109Q23.6914-9.13086 23.7891-9.09668Q23.8867-9.0625 24.0332-8.91602L24.6094-8.33984L22.168-5.89844L21.5918-6.47461Q21.4453-6.62109 21.4062-6.71875Q21.3672-6.81641 21.377-7.01172L21.4453-7.98828L19.9512-9.47266L18.4277-9.21875Q18.1836-9.16992 18.042-9.2041Q17.9004-9.23828 17.7148-9.41406L15.7129-11.416Q15.5176-11.5918 15.4932-11.7529Q15.4688-11.9141 15.5859-12.1875L16.4648-14.2773Q15.293-15.3711 13.8281-15.791Q12.3633-16.2109 10.8398-15.7617Q10.7227-15.7324 10.6885-15.8057Q10.6543-15.8789 10.752-15.957Z"/>
  </g>
  <text style="stroke:none;fill:black;font-family:sans-serif;font-size:13;font-weight:bold;" transform="matrix(1 0 0 1 1289 1953)">Exporting</text>
  <text style="stroke:none;fill:black;font-family:sans-serif;font-size:13;" transform="matrix(1 0 0 1 1289 1971)">Symbols should be outlined when exporting to ensure the</text>
  <text style="stroke:none;fill:black;font-family:sans-serif;font-size:13;" transform="matrix(1 0 0 1 1289 1989)">design is preserved when submitting to Xcode.</text>
  <text id="template-version" style="stroke:none;fill:black;font-family:sans-serif;font-size:13;text-anchor:end;" transform="matrix(1 0 0 1 3036 1933)">Template v.2.0</text>
  <text style="stroke:none;fill:black;font-family:sans-serif;font-size:13;text-anchor:end;" transform="matrix(1 0 0 1 3036 1951)">Requires Xcode 12 or greater</text>
  <text id="descriptive-name" style="stroke:none;fill:black;font-family:sans-serif;font-size:13;text-anchor:end;" transform="matrix(1 0 0 1 3036 1969)">Generated from sink.fill</text>
  <text style="stroke:none;fill:black;font-family:sans-serif;font-size:13;text-anchor:end;" transform="matrix(1 0 0 1 3036 1987)">Typeset at 100 points</text>
  <text style="stroke:none;fill:black;font-family:sans-serif;font-size:13;" transform="matrix(1 0 0 1 263 726)">Small</text>
  <text style="stroke:none;fill:black;font-family:sans-serif;font-size:13;" transform="matrix(1 0 0 1 263 1156)">Medium</text>
  <text style="stroke:none;fill:black;font-family:sans-serif;font-size:13;" transform="matrix(1 0 0 1 263 1586)">Large</text>
 </g>
 <g id="Guides">
  <g id="H-reference" style="fill:#27AAE1;stroke:none;" transform="matrix(1 0 0 1 339 696)">
   <path d="M0.993347 0L3.6377 0L29.3282-67.1326L30.0301-67.1326L30.0301-70.459L28.1227-70.459ZM11.6882-24.4797L46.9818-24.4797L46.2311-26.7288L12.4382-26.7288ZM55.1193 0L57.7637 0L30.6381-70.459L29.4327-70.459L29.4327-67.1326Z"/>
  </g>
  <line id="Baseline-S" style="fill:none;stroke:#27AAE1;opacity:1;stroke-width:0.5;" x1="263" x2="3036" y1="696" y2="696"/>
  <line id="Capline-S" style="fill:none;stroke:#27AAE1;opacity:1;stroke-width:0.5;" x1="263" x2="3036" y1="625.541" y2="625.541"/>
  <g id="H-reference" style="fill:#27AAE1;stroke:none;" transform="matrix(1 0 0 1 339 1126)">
   <path d="M0.993347 0L3.6377 0L29.3282-67.1326L30.0301-67.1326L30.0301-70.459L28.1227-70.459ZM11.6882-24.4797L46.9818-24.4797L46.2311-26.7288L12.4382-26.7288ZM55.1193 0L57.7637 0L30.6381-70.459L29.4327-70.459L29.4327-67.1326Z"/>
  </g>
  <line id="Baseline-M" style="fill:none;stroke:#27AAE1;opacity:1;stroke-width:0.5;" x1="263" x2="3036" y1="1126" y2="1126"/>
  <line id="Capline-M" style="fill:none;stroke:#27AAE1;opacity:1;stroke-width:0.5;" x1="263" x2="3036" y1="1055.54" y2="1055.54"/>
  <g id="H-reference" style="fill:#27AAE1;stroke:none;" transform="matrix(1 0 0 1 339 1556)">
   <path d="M0.993347 0L3.6377 0L29.3282-67.1326L30.0301-67.1326L30.0301-70.459L28.1227-70.459ZM11.6882-24.4797L46.9818-24.4797L46.2311-26.7288L12.4382-26.7288ZM55.1193 0L57.7637 0L30.6381-70.459L29.4327-70.459L29.4327-67.1326Z"/>
  </g>
  <line id="Baseline-L" style="fill:none;stroke:#27AAE1;opacity:1;stroke-width:0.5;" x1="263" x2="3036" y1="1556" y2="1556"/>
  <line id="Capline-L" style="fill:none;stroke:#27AAE1;opacity:1;stroke-width:0.5;" x1="263" x2="3036" y1="1485.54" y2="1485.54"/>
  <line id="left-margin" style="fill:none;stroke:#00AEEF;stroke-width:0.5;opacity:1.0;" x1="1386.78" x2="1386.78" y1="1030.79" y2="1150.12"/>
  <line id="right-margin" style="fill:none;stroke:#00AEEF;stroke-width:0.5;opacity:1.0;" x1="1512.91" x2="1512.91" y1="1030.79" y2="1150.12"/>
 </g>
 <g id="Symbols">
  <g id="Black-L" transform="matrix(1 0 0 1 2835.97 1556)">
   <path d="M87.9763-27.2257L106.788-27.2257L106.788-84.772Q106.788-86.6069 107.999-87.7882Q109.209-88.9695 111.005-88.9695Q112.839-88.9695 114.021-87.759Q115.203-86.5485 115.203-84.772L115.203-73.9933Q115.203-70.1093 117.964-67.3481Q120.725-64.5869 124.608-64.5869Q128.513-64.5869 131.264-67.3481Q134.014-70.1093 134.014-73.9933L134.014-85.5896Q134.014-92.0904 130.955-96.9927Q127.895-101.895 122.7-104.664Q117.505-107.432 111.005-107.432Q104.543-107.432 99.3301-104.664Q94.1169-101.895 91.0466-96.9927Q87.9763-92.0904 87.9763-85.5896ZM63.364-27.2257L79.821-27.2257L79.821-48.6068Q79.821-52.2467 77.4696-54.5982Q75.1181-56.9496 71.4771-56.9496L51.1461-56.9496Q47.7762-56.9496 45.3417-54.5449Q42.9072-52.1402 42.9072-48.7107Q42.9072-45.3396 45.3417-42.9057Q47.7762-40.4718 51.1461-40.4718L62.5127-40.4718Q63.364-40.4718 63.364-39.6204ZM114.921-27.2257L131.4-27.2257L131.4-39.6204Q131.4-40.4718 132.252-40.4718L143.617-40.4718Q147.047-40.4718 149.451-42.9057Q151.856-45.3396 151.856-48.7107Q151.856-52.1402 149.451-54.5449Q147.047-56.9496 143.617-56.9496L123.286-56.9496Q119.646-56.9496 117.284-54.5982Q114.921-52.2467 114.921-48.6068ZM25.4904-15.2215L27.7851-15.2215L27.7851 4.51834Q27.7851 19.6308 36.9489 28.2519Q46.1128 36.873 61.999 36.873L132.854 36.873Q148.741 36.873 157.905 28.2519Q167.07 19.6308 167.07 4.51834L167.07-15.2215L169.363-15.2215Q173.246-15.2215 176.007-18.0119Q178.769-20.8023 178.769-24.628Q178.769-28.5328 176.007-31.2836Q173.246-34.0344 169.363-34.0344L25.4904-34.0344Q21.6648-34.0344 18.8744-31.2836Q16.084-28.5328 16.084-24.628Q16.084-20.8023 18.8744-18.0119Q21.6648-15.2215 25.4904-15.2215Z"/>
  </g>
  <g id="Heavy-L" transform="matrix(1 0 0 1 2543.24 1556)">
   <path d="M85.0111-27.5286L101.613-27.5286L101.613-83.41Q101.613-85.6222 103.022-87.0081Q104.43-88.3941 106.622-88.3941Q108.829-88.3941 110.217-86.9858Q111.606-85.5776 111.606-83.41L111.606-72.7712Q111.606-69.3521 114.049-66.9097Q116.491-64.4673 119.905-64.4673Q123.354-64.4673 125.781-66.9097Q128.209-69.3521 128.209-72.7712L128.209-84.0347Q128.209-90.2166 125.377-94.8642Q122.545-99.5118 117.672-102.123Q112.798-104.734 106.622-104.734Q100.46-104.734 95.5823-102.123Q90.7044-99.5118 87.8578-94.8642Q85.0111-90.2166 85.0111-84.0347ZM62.0439-27.5286L76.4378-27.5286L76.4378-47.6163Q76.4378-50.9424 74.3187-53.0615Q72.1997-55.1806 68.8678-55.1806L49.0788-55.1806Q46.1286-55.1806 43.9977-53.0747Q41.8668-50.9689 41.8668-47.9685Q41.8668-45.0126 43.9977-42.8845Q46.1286-40.7564 49.0788-40.7564L61.086-40.7564Q62.0439-40.7564 62.0439-39.7986ZM110.151-27.5286L124.581-27.5286L124.581-39.7986Q124.581-40.7564 125.539-40.7564L137.54-40.7564Q140.54-40.7564 142.646-42.8845Q144.752-45.0126 144.752-47.9685Q144.752-50.9689 142.646-53.0747Q140.54-55.1806 137.54-55.1806L117.751-55.1806Q114.425-55.1806 112.288-53.0615Q110.151-50.9424 110.151-47.6163ZM24.3879-16.9688L26.5715-16.9688L26.5715 3.04238Q26.5715 17.6452 35.3696 25.9077Q44.1677 34.1703 59.594 34.1703L127.31 34.1703Q142.742 34.1703 151.543 25.9077Q160.344 17.6452 160.344 3.04238L160.344-16.9688L162.521-16.9688Q165.935-16.9688 168.377-19.4335Q170.82-21.8982 170.82-25.2727Q170.82-28.7221 168.377-31.1494Q165.935-33.5767 162.521-33.5767L24.3879-33.5767Q21.0134-33.5767 18.5487-31.1494Q16.084-28.7221 16.084-25.2727Q16.084-21.8982 18.5487-19.4335Q21.0134-16.9688 24.3879-16.9688Z"/>
  </g>
  <g id="Bold-L" transform="matrix(1 0 0 1 2251.32 1556)">
   <path d="M81.4425-27.9424L95.2871-27.9424L95.2871-81.5706Q95.2871-84.2664 96.9486-85.9133Q98.6101-87.5602 101.301-87.5602Q103.984-87.5602 105.637-85.8987Q107.291-84.2372 107.291-81.5706L107.291-71.2649Q107.291-68.4221 109.334-66.3792Q111.377-64.3362 114.207-64.3362Q117.088-64.3362 119.112-66.3792Q121.136-68.4221 121.136-71.2649L121.136-81.9795Q121.136-87.7619 118.581-92.087Q116.026-96.4121 111.548-98.8274Q107.071-101.243 101.301-101.243Q95.5233-101.243 91.0566-98.8274Q86.59-96.4121 84.0162-92.087Q81.4425-87.7619 81.4425-81.9795ZM60.452-27.9424L72.332-27.9424L72.332-46.3422Q72.332-49.3361 70.4675-51.2007Q68.6031-53.0652 65.5956-53.0652L46.6914-53.0652Q44.2561-53.0652 42.4943-51.3245Q40.7325-49.5837 40.7325-47.1062Q40.7325-44.6576 42.4943-42.9024Q44.2561-41.1471 46.6914-41.1471L59.3187-41.1471Q60.452-41.1471 60.452-40.0139ZM104.346-27.9424L116.278-27.9424L116.278-40.0139Q116.278-41.1471 117.411-41.1471L130.025-41.1471Q132.502-41.1471 134.243-42.9024Q135.984-44.6576 135.984-47.1062Q135.984-49.5837 134.243-51.3245Q132.502-53.0652 130.025-53.0652L111.121-53.0652Q108.126-53.0652 106.236-51.2007Q104.346-49.3361 104.346-46.3422ZM23.0127-19.1803L25.155-19.1803L25.155 1.1317Q25.155 15.0894 33.4811 22.884Q41.8072 30.6786 56.6573 30.6786L120.664 30.6786Q135.527 30.6786 143.86 22.884Q152.193 15.0894 152.193 1.1317L152.193-19.1803L154.322-19.1803Q157.152-19.1803 159.195-21.2379Q161.237-23.2954 161.237-26.109Q161.237-28.99 159.195-31.014Q157.152-33.038 154.322-33.038L23.0127-33.038Q20.1991-33.038 18.1415-31.014Q16.084-28.99 16.084-26.109Q16.084-23.2954 18.1415-21.2379Q20.1991-19.1803 23.0127-19.1803Z"/>
  </g>
  <g id="Semibold-L" transform="matrix(1 0 0 1 1957.91 1556)">
   <path d="M78.9823-28.2277L90.9257-28.2277L90.9257-80.3026Q90.9257-83.3317 92.7618-85.1586Q94.5979-86.9854 97.6334-86.9854Q100.644-86.9854 102.48-85.1493Q104.316-83.3132 104.316-80.3026L104.316-70.2265Q104.316-67.781 106.084-66.0134Q107.852-64.2458 110.279-64.2458Q112.768-64.2458 114.514-66.0134Q116.26-67.781 116.26-70.2265L116.26-80.5626Q116.26-86.0696 113.896-90.1723Q111.532-94.2751 107.327-96.5554Q103.122-98.8357 97.6334-98.8357Q92.1198-98.8357 87.9367-96.5554Q83.7535-94.2751 81.3679-90.1723Q78.9823-86.0696 78.9823-80.5626ZM59.3545-28.2277L69.5014-28.2277L69.5014-45.4639Q69.5014-48.2287 67.8125-49.9178Q66.1236-51.6069 63.3398-51.6069L45.0455-51.6069Q42.9653-51.6069 41.4579-50.1178Q39.9506-48.6287 39.9506-46.5117Q39.9506-44.4129 41.4579-42.9147Q42.9653-41.4165 45.0455-41.4165L58.1004-41.4165Q59.3545-41.4165 59.3545-40.1623ZM100.345-28.2277L110.553-28.2277L110.553-40.1623Q110.553-41.4165 111.808-41.4165L124.844-41.4165Q126.961-41.4165 128.45-42.9147Q129.939-44.4129 129.939-46.5117Q129.939-48.6287 128.45-50.1178Q126.961-51.6069 124.844-51.6069L106.55-51.6069Q103.784-51.6069 102.065-49.9178Q100.345-48.2287 100.345-45.4639ZM22.0647-20.7049L24.1785-20.7049L24.1785-0.18552Q24.1785 13.3275 32.1792 20.7994Q40.1799 28.2714 54.6329 28.2714L116.083 28.2714Q130.554 28.2714 138.564 20.7994Q146.574 13.3275 146.574-0.18552L146.574-20.7049L148.669-20.7049Q151.096-20.7049 152.864-22.4818Q154.631-24.2587 154.631-26.6856Q154.631-29.1747 152.864-30.9206Q151.096-32.6666 148.669-32.6666L22.0647-32.6666Q19.6377-32.6666 17.8609-30.9206Q16.084-29.1747 16.084-26.6856Q16.084-24.2587 17.8609-22.4818Q19.6377-20.7049 22.0647-20.7049Z"/>
  </g>
  <g id="Medium-L" transform="matrix(1 0 0 1 1663.7 1556)">
   <path d="M77.1169-28.444L87.6187-28.444L87.6187-79.3411Q87.6187-82.623 89.5872-84.5863Q91.5557-86.5496 94.8522-86.5496Q98.1115-86.5496 100.086-84.581Q102.061-82.6125 102.061-79.3411L102.061-69.4391Q102.061-67.2949 103.62-65.7361Q105.179-64.1773 107.3-64.1773Q109.492-64.1773 111.027-65.7361Q112.562-67.2949 112.562-69.4391L112.562-79.4883Q112.562-84.7864 110.343-88.7206Q108.124-92.6548 104.126-94.8327Q100.128-97.0106 94.8522-97.0106Q89.5392-97.0106 85.571-94.8327Q81.6027-92.6548 79.3598-88.7206Q77.1169-84.7864 77.1169-79.4883ZM58.5224-28.444L67.3552-28.444L67.3552-44.7979Q67.3552-47.3891 65.7994-48.9451Q64.2436-50.5011 61.6294-50.5011L43.7975-50.5011Q41.9865-50.5011 40.6721-49.2029Q39.3576-47.9047 39.3576-46.0609Q39.3576-44.2273 40.6721-42.924Q41.9865-41.6207 43.7975-41.6207L57.1766-41.6207Q58.5224-41.6207 58.5224-40.2748ZM97.3105-28.444L106.213-28.444L106.213-40.2748Q106.213-41.6207 107.559-41.6207L120.915-41.6207Q122.759-41.6207 124.057-42.924Q125.356-44.2273 125.356-46.0609Q125.356-47.9047 124.057-49.2029Q122.759-50.5011 120.915-50.5011L103.084-50.5011Q100.492-50.5011 98.9012-48.9451Q97.3105-47.3891 97.3105-44.7979ZM21.3458-21.8609L23.4381-21.8609L23.4381-1.18429Q23.4381 11.9915 31.192 19.2188Q38.946 26.4462 53.0978 26.4462L112.609 26.4462Q126.783 26.4462 134.548 19.2188Q142.313 11.9915 142.313-1.18429L142.313-21.8609L144.383-21.8609Q146.505-21.8609 148.064-23.425Q149.622-24.989 149.622-27.1228Q149.622-29.3147 148.064-30.8498Q146.505-32.385 144.383-32.385L21.3458-32.385Q19.2121-32.385 17.648-30.8498Q16.084-29.3147 16.084-27.1228Q16.084-24.989 17.648-23.425Q19.2121-21.8609 21.3458-21.8609Z"/>
  </g>
  <g id="Regular-L" transform="matrix(1 0 0 1 1370.26 1556)">
   <path d="M74.6837-28.7261L83.3052-28.7261L83.3052-78.087Q83.3052-81.6986 85.4464-83.8399Q87.5877-85.9811 91.2244-85.9811Q94.8082-85.9811 96.9634-83.8399Q99.1186-81.6986 99.1186-78.087L99.1186-68.4121Q99.1186-66.6608 100.405-65.3743Q101.692-64.0879 103.415-64.0879Q105.22-64.0879 106.48-65.3743Q107.74-66.6608 107.74-68.4121L107.74-78.087Q107.74-83.1127 105.709-86.8271Q103.679-90.5414 99.9508-92.5857Q96.2228-94.63 91.2244-94.63Q86.1731-94.63 82.4853-92.5857Q78.7974-90.5414 76.7406-86.8271Q74.6837-83.1127 74.6837-78.087ZM57.437-28.7261L64.5558-28.7261L64.5558-43.9293Q64.5558-46.2939 63.1735-47.6764Q61.7913-49.0588 59.3983-49.0588L42.1696-49.0588Q40.7098-49.0588 39.647-48.0095Q38.5842-46.9602 38.5842-45.4729Q38.5842-43.9852 39.647-42.9361Q40.7098-41.8871 42.1696-41.8871L55.9716-41.8871Q57.437-41.8871 57.437-40.4216ZM93.3528-28.7261L100.552-28.7261L100.552-40.4216Q100.552-41.8871 102.017-41.8871L115.791-41.8871Q117.279-41.8871 118.328-42.9361Q119.377-43.9852 119.377-45.4729Q119.377-46.9602 118.328-48.0095Q117.279-49.0588 115.791-49.0588L98.5627-49.0588Q96.1976-49.0588 94.7752-47.6764Q93.3528-46.2939 93.3528-43.9293ZM20.4082-23.3688L22.4723-23.3688L22.4723-2.48703Q22.4723 10.2489 29.9044 17.1572Q37.3365 24.0654 51.0956 24.0654L108.077 24.0654Q121.864 24.0654 129.31 17.1572Q136.756 10.2489 136.756-2.48703L136.756-23.3688L138.792-23.3688Q140.516-23.3688 141.803-24.6552Q143.089-25.9417 143.089-27.693Q143.089-29.4974 141.803-30.7575Q140.516-32.0177 138.792-32.0177L20.4082-32.0177Q18.6569-32.0177 17.3704-30.7575Q16.084-29.4974 16.084-27.693Q16.084-25.9417 17.3704-24.6552Q18.6569-23.3688 20.4082-23.3688Z"/>
  </g>
  <g id="Light-L" transform="matrix(1 0 0 1 1076.01 1556)">
   <path d="M72.8897-29.2606L79.4692-29.2606L79.4692-75.835Q79.4692-79.8856 81.8394-82.2558Q84.2096-84.626 88.2472-84.626Q92.2507-84.626 94.6444-82.2558Q97.0381-79.8856 97.0381-75.835L97.0381-67.4197Q97.0381-66.0692 98.0195-65.0882Q99.0009-64.1072 100.304-64.1072Q101.689-64.1072 102.653-65.0882Q103.618-66.0692 103.618-67.4197L103.618-75.835Q103.618-80.5552 101.74-84.0024Q99.8618-87.4496 96.3914-89.3507Q92.921-91.2519 88.2472-91.2519Q83.5393-91.2519 80.1091-89.3507Q76.6789-87.4496 74.7843-84.0024Q72.8897-80.5552 72.8897-75.835ZM56.6165-29.2606L62.2657-29.2606L62.2657-42.746Q62.2657-45.2441 60.8453-46.6648Q59.4249-48.0856 56.879-48.0856L41.6351-48.0856Q40.4998-48.0856 39.647-47.2556Q38.7943-46.4257 38.7943-45.244Q38.7943-44.0615 39.647-43.232Q40.4998-42.4024 41.6351-42.4024L54.7502-42.4024Q56.6165-42.4024 56.6165-40.5361ZM90.0128-29.2606L95.7424-29.2606L95.7424-40.5361Q95.7424-42.4024 97.6087-42.4024L110.677-42.4024Q111.858-42.4024 112.688-43.232Q113.518-44.0615 113.518-45.244Q113.518-46.4257 112.688-47.2556Q111.858-48.0856 110.677-48.0856L95.4328-48.0856Q92.934-48.0856 91.4734-46.6648Q90.0128-45.2441 90.0128-42.746ZM19.3965-25.201L22.0525-25.201L22.0525-4.33818Q22.0525 7.86324 29.0361 14.2944Q36.0196 20.7255 49.3397 20.7255L104.909 20.7255Q118.276 20.7255 125.283 14.2944Q132.29 7.86324 132.29-4.33818L132.29-25.201L134.899-25.201Q136.203-25.201 137.184-26.182Q138.165-27.163 138.165-28.5136Q138.165-29.8982 137.184-30.8625Q136.203-31.8269 134.899-31.8269L19.3965-31.8269Q18.046-31.8269 17.065-30.8625Q16.084-29.8982 16.084-28.5136Q16.084-27.163 17.065-26.182Q18.046-25.201 19.3965-25.201Z"/>
  </g>
  <g id="Thin-L" transform="matrix(1 0 0 1 782.554 1556)">
   <path d="M70.5169-29.9676L74.3958-29.9676L74.3958-72.8566Q74.3958-77.4878 77.0688-80.1608Q79.7417-82.8338 84.3095-82.8338Q88.8681-82.8338 91.5774-80.1608Q94.2866-77.4878 94.2866-72.8566L94.2866-66.1071Q94.2866-65.2867 94.8643-64.7097Q95.442-64.1326 96.1898-64.1326Q97.0193-64.1326 97.5924-64.7097Q98.1655-65.2867 98.1655-66.1071L98.1655-72.8566Q98.1655-77.1726 96.4895-80.2666Q94.8134-83.3605 91.6837-85.0723Q88.5541-86.784 84.3095-86.784Q80.0558-86.784 76.9663-85.0723Q73.8769-83.3605 72.1969-80.2666Q70.5169-77.1726 70.5169-72.8566ZM55.5312-29.9676L59.2368-29.9676L59.2368-41.1811Q59.2368-43.8556 57.7659-45.327Q56.2951-46.7985 53.5469-46.7985L40.9281-46.7985Q40.222-46.7985 39.647-46.2586Q39.072-45.7187 39.072-44.9412Q39.072-44.1625 39.647-43.6232Q40.222-43.0839 40.9281-43.0839L53.1348-43.0839Q55.5312-43.0839 55.5312-40.6875ZM85.5955-29.9676L89.3814-29.9676L89.3814-40.6875Q89.3814-43.0839 91.7778-43.0839L103.912-43.0839Q104.689-43.0839 105.229-43.6232Q105.769-44.1625 105.769-44.9412Q105.769-45.7187 105.229-46.2586Q104.689-46.7985 103.912-46.7985L91.2932-46.7985Q88.6176-46.7985 87.1065-45.327Q85.5955-43.8556 85.5955-41.1811ZM18.0585-27.6243L21.4974-27.6243L21.4974-6.78646Q21.4974 4.70799 27.8876 10.5081Q34.2779 16.3081 47.0173 16.3081L100.719 16.3081Q113.53 16.3081 119.957 10.5081Q126.383 4.70799 126.383-6.78646L126.383-27.6243L129.749-27.6243Q130.499-27.6243 131.076-28.2014Q131.653-28.7784 131.653-29.5988Q131.653-30.4283 131.076-31.0014Q130.499-31.5746 129.749-31.5746L18.0585-31.5746Q17.2381-31.5746 16.661-31.0014Q16.084-30.4283 16.084-29.5988Q16.084-28.7784 16.661-28.2014Q17.2381-27.6243 18.0585-27.6243Z"/>
  </g>
  <g id="Ultralight-L" transform="matrix(1 0 0 1 487.511 1556)">
   <path d="M69.3015-30.3297L71.7972-30.3297L71.7972-71.3311Q71.7972-76.2597 74.6253-79.0877Q77.4533-81.9158 82.2926-81.9158Q87.1356-81.9158 90.0064-79.0877Q92.8773-76.2597 92.8773-71.3311L92.8773-65.4348Q92.8773-64.886 93.2482-64.5158Q93.6191-64.1456 94.0823-64.1456Q94.6275-64.1456 95.0002-64.5158Q95.373-64.886 95.373-65.4348L95.373-71.3311Q95.373-75.4401 93.8003-78.3531Q92.2276-81.2661 89.2725-82.8809Q86.3174-84.4956 82.2926-84.4956Q78.2715-84.4956 75.3566-82.8809Q72.4417-81.2661 70.8716-78.3531Q69.3015-75.4401 69.3015-71.3311ZM54.9754-30.3297L57.6854-30.3297L57.6854-40.3796Q57.6854-43.1444 56.1887-44.6418Q54.692-46.1392 51.8402-46.1392L40.566-46.1392Q40.0797-46.1392 39.647-45.7479Q39.2143-45.3566 39.2143-44.7861Q39.2143-44.2142 39.647-43.8236Q40.0797-43.433 40.566-43.433L52.3075-43.433Q54.9754-43.433 54.9754-40.765ZM83.3329-30.3297L86.1234-30.3297L86.1234-40.765Q86.1234-43.433 88.7913-43.433L100.447-43.433Q101.018-43.433 101.409-43.8236Q101.8-44.2142 101.8-44.7861Q101.8-45.3566 101.409-45.7479Q101.018-46.1392 100.447-46.1392L89.173-46.1392Q86.4067-46.1392 84.8698-44.6418Q83.3329-43.1444 83.3329-40.3796ZM17.3732-28.8655L21.2131-28.8655L21.2131-8.04047Q21.2131 3.09188 27.2994 8.56874Q33.3857 14.0456 45.8278 14.0456L98.5732 14.0456Q111.099 14.0456 117.229 8.56874Q123.358 3.09188 123.358-8.04047L123.358-28.8655L127.112-28.8655Q127.577-28.8655 127.947-29.2356Q128.317-29.6058 128.317-30.1547Q128.317-30.6998 127.947-31.0726Q127.577-31.4453 127.112-31.4453L17.3732-31.4453Q16.8243-31.4453 16.4541-31.0726Q16.084-30.6998 16.084-30.1547Q16.084-29.6058 16.4541-29.2356Q16.8243-28.8655 17.3732-28.8655Z"/>
  </g>
  <g id="Black-M" transform="matrix(1 0 0 1 2854.84 1126)">
   <path d="M70.4642-28.8407L86.6605-28.8407L86.6605-74.4775Q86.6605-75.6343 87.4595-76.4047Q88.2584-77.1751 89.3639-77.1751Q90.5211-77.1751 91.2913-76.3762Q92.0616-75.5772 92.0616-74.4775L92.0616-66.1773Q92.0616-62.8229 94.4334-60.4511Q96.8052-58.0793 100.16-58.0793Q103.52-58.0793 105.889-60.4511Q108.258-62.8229 108.258-66.1773L108.258-75.2769Q108.258-80.5458 105.712-84.5267Q103.166-88.5075 98.8994-90.7681Q94.6332-93.0286 89.3639-93.0286Q84.1463-93.0286 79.8542-90.7681Q75.562-88.5075 73.0131-84.5267Q70.4642-80.5458 70.4642-75.2769ZM50.1142-28.8407L64.4381-28.8407L64.4381-46.2845Q64.4381-49.3922 62.4114-51.4188Q60.3848-53.4455 57.2774-53.4455L41.3292-53.4455Q38.4017-53.4455 36.2831-51.3553Q34.1645-49.2651 34.1645-46.2808Q34.1645-43.3535 36.2831-41.2348Q38.4017-39.1161 41.3292-39.1161L49.4919-39.1161Q50.1142-39.1161 50.1142-38.4938ZM92.6815-28.8407L107.011-28.8407L107.011-38.4938Q107.011-39.1161 107.633-39.1161L115.796-39.1161Q118.78-39.1161 120.87-41.2348Q122.961-43.3535 122.961-46.2808Q122.961-49.2651 120.87-51.3553Q118.78-53.4455 115.796-53.4455L99.8477-53.4455Q96.74-53.4455 94.7108-51.4188Q92.6815-49.3922 92.6815-46.2845ZM20.5589-18.4751L22.5125-18.4751L22.5125-3.4175Q22.5125 8.65631 29.8656 15.5789Q37.2187 22.5015 49.8622 22.5015L107.262 22.5015Q119.906 22.5015 127.259 15.5789Q134.612 8.65631 134.612-3.4175L134.612-18.4751L136.565-18.4751Q139.92-18.4751 142.292-20.8754Q144.664-23.2758 144.664-26.5731Q144.664-29.933 142.292-32.302Q139.92-34.6711 136.565-34.6711L20.5589-34.6711Q17.2617-34.6711 14.8613-32.302Q12.4609-29.933 12.4609-26.5731Q12.4609-23.2758 14.8613-20.8754Q17.2617-18.4751 20.5589-18.4751Z"/>
  </g>
  <g id="Heavy-M" transform="matrix(1 0 0 1 2561.78 1126)">
   <path d="M67.7311-29.0875L81.956-29.0875L81.956-73.3539Q81.956-74.839 82.9271-75.7883Q83.8982-76.7376 85.3539-76.7376Q86.8367-76.7376 87.7871-75.7665Q88.7376-74.7954 88.7376-73.3539L88.7376-65.0742Q88.7376-62.1373 90.826-60.049Q92.9143-57.9606 95.8489-57.9606Q98.8022-57.9606 100.882-60.049Q102.963-62.1373 102.963-65.0742L102.963-73.9646Q102.963-78.9501 100.625-82.7065Q98.2884-86.4629 94.3128-88.583Q90.3371-90.703 85.3539-90.703Q80.3978-90.703 76.4097-88.583Q72.4216-86.4629 70.0763-82.7065Q67.7311-78.9501 67.7311-73.9646ZM48.8993-29.0875L61.342-29.0875L61.342-45.4253Q61.342-48.214 59.546-50.0099Q57.7501-51.8059 54.9591-51.8059L39.3577-51.8059Q36.8105-51.8059 34.9693-49.9877Q33.1282-48.1694 33.1282-45.5764Q33.1282-43.0269 34.9693-41.1868Q36.8105-39.3468 39.3577-39.3468L48.2098-39.3468Q48.8993-39.3468 48.8993-38.6573ZM88.3264-29.0875L100.788-29.0875L100.788-38.6573Q100.788-39.3468 101.477-39.3468L110.327-39.3468Q112.92-39.3468 114.738-41.1868Q116.557-43.0269 116.557-45.5764Q116.557-48.1694 114.738-49.9877Q112.92-51.8059 110.327-51.8059L94.7257-51.8059Q91.937-51.8059 90.1317-50.0099Q88.3264-48.214 88.3264-45.4253ZM19.5745-20.0141L21.3648-20.0141L21.3648-4.68958Q21.3648 6.93533 28.4018 13.5515Q35.4388 20.1676 47.6732 20.1676L102.135 20.1676Q114.372 20.1676 121.41 13.5515Q128.448 6.93533 128.448-4.68958L128.448-20.0141L130.236-20.0141Q133.171-20.0141 135.259-22.1243Q137.348-24.2344 137.348-27.1277Q137.348-30.081 135.259-32.1611Q133.171-34.2413 130.236-34.2413L19.5745-34.2413Q16.6813-34.2413 14.5711-32.1611Q12.4609-30.081 12.4609-27.1277Q12.4609-24.2344 14.5711-22.1243Q16.6813-20.0141 19.5745-20.0141Z"/>
  </g>
  <g id="Bold-M" transform="matrix(1 0 0 1 2269.17 1126)">
   <path d="M64.6736-29.3636L76.6933-29.3636L76.6933-72.0969Q76.6933-73.9493 77.857-75.0987Q79.0206-76.2481 80.868-76.2481Q82.7152-76.2481 83.8672-75.0844Q85.0192-73.9207 85.0192-72.0969L85.0192-63.8402Q85.0192-61.3703 86.7905-59.5991Q88.5618-57.8278 91.0264-57.8278Q93.5249-57.8278 95.2819-59.5991Q97.0389-61.3703 97.0389-63.8402L97.0389-72.4966Q97.0389-77.1649 94.9357-80.6703Q92.8326-84.1757 89.1819-86.1386Q85.5313-88.1016 80.868-88.1016Q76.2046-88.1016 72.5565-86.1386Q68.9085-84.1757 66.791-80.6703Q64.6736-77.1649 64.6736-72.4966ZM47.5403-29.3636L57.8786-29.3636L57.8786-44.4642Q57.8786-46.896 56.3407-48.4339Q54.8028-49.9718 52.3657-49.9718L37.1522-49.9718Q35.0305-49.9718 33.4997-48.4578Q31.9688-46.9437 31.9688-44.7884Q31.9688-42.6615 33.4997-41.1332Q35.0305-39.6049 37.1522-39.6049L46.7757-39.6049Q47.5403-39.6049 47.5403-38.8403ZM83.4545-29.3636L93.8265-29.3636L93.8265-38.8403Q93.8265-39.6049 94.5912-39.6049L104.209-39.6049Q106.365-39.6049 107.879-41.1332Q109.393-42.6615 109.393-44.7884Q109.393-46.9437 107.879-48.4578Q106.365-49.9718 104.209-49.9718L88.996-49.9718Q86.5641-49.9718 85.0093-48.4339Q83.4545-46.896 83.4545-44.4642ZM18.4733-21.7357L20.0809-21.7357L20.0809-6.11258Q20.0809 5.01017 26.7643 11.2835Q33.4477 17.5568 45.2244 17.5568L96.4 17.5568Q108.182 17.5568 114.868 11.2835Q121.554 5.01017 121.554-6.11258L121.554-21.7357L123.156-21.7357Q125.621-21.7357 127.392-23.5213Q129.163-25.3068 129.163-27.7481Q129.163-30.2466 127.392-32.0035Q125.621-33.7605 123.156-33.7605L18.4733-33.7605Q16.032-33.7605 14.2465-32.0035Q12.4609-30.2466 12.4609-27.7481Q12.4609-25.3068 14.2465-23.5213Q16.032-21.7357 18.4733-21.7357Z"/>
  </g>
  <g id="Semibold-M" transform="matrix(1 0 0 1 1975.28 1126)">
   <path d="M62.5658-29.5539L73.0652-29.5539L73.0652-71.2303Q73.0652-73.3359 74.3616-74.6233Q75.6581-75.9107 77.7755-75.9107Q79.8739-75.9107 81.1648-74.6142Q82.4558-73.3178 82.4558-71.2303L82.4558-62.9894Q82.4558-60.8416 84.0085-59.289Q85.5612-57.7363 87.7019-57.7363Q89.8868-57.7363 91.421-59.289Q92.9551-60.8416 92.9551-62.9894L92.9551-71.4845Q92.9551-75.9343 91.0132-79.2666Q89.0713-82.5989 85.6448-84.4535Q82.2182-86.3081 77.7755-86.3081Q73.3138-86.3081 69.9002-84.4535Q66.4866-82.5989 64.5262-79.2666Q62.5658-75.9343 62.5658-71.4845ZM46.6035-29.5539L55.4909-29.5539L55.4909-43.8016Q55.4909-45.9874 54.131-47.3474Q52.771-48.7074 50.5779-48.7074L35.6318-48.7074Q33.8034-48.7074 32.4865-47.4031Q31.1696-46.0988 31.1696-44.2451Q31.1696-42.4096 32.4865-41.0962Q33.8034-39.7829 35.6318-39.7829L45.787-39.7829Q46.6035-39.7829 46.6035-38.9664ZM80.0959-29.5539L89.0275-29.5539L89.0275-38.9664Q89.0275-39.7829 89.844-39.7829L99.9921-39.7829Q101.846-39.7829 103.15-41.0962Q104.454-42.4096 104.454-44.2451Q104.454-46.0988 103.15-47.4031Q101.846-48.7074 99.9921-48.7074L85.046-48.7074Q82.86-48.7074 81.478-47.3474Q80.0959-45.9874 80.0959-43.8016ZM17.7141-22.9226L19.1959-22.9226L19.1959-7.09359Q19.1959 3.68297 25.6354 9.71994Q32.075 15.7569 43.5362 15.7569L92.446 15.7569Q103.914 15.7569 110.357 9.71994Q116.801 3.68297 116.801-7.09359L116.801-22.9226L118.275-22.9226Q120.416-22.9226 121.969-24.4844Q123.521-26.0461 123.521-28.1758Q123.521-30.3607 121.969-31.8949Q120.416-33.429 118.275-33.429L17.7141-33.429Q15.5844-33.429 14.0227-31.8949Q12.4609-30.3607 12.4609-28.1758Q12.4609-26.0461 14.0227-24.4844Q15.5844-22.9226 17.7141-22.9226Z"/>
  </g>
  <g id="Medium-M" transform="matrix(1 0 0 1 1680.7 1126)">
   <path d="M60.9676-29.6982L70.3142-29.6982L70.3142-70.5733Q70.3142-72.8708 71.7113-74.2628Q73.1085-75.6548 75.4306-75.6548Q77.7194-75.6548 79.1158-74.2577Q80.5121-72.8606 80.5121-70.5733L80.5121-62.3444Q80.5121-60.4407 81.8991-59.0538Q83.286-57.6669 85.1811-57.6669Q87.1282-57.6669 88.4935-59.0538Q89.8587-60.4407 89.8587-62.3444L89.8587-70.7172Q89.8587-75.0012 88.0391-78.2022Q86.2194-81.4033 82.9627-83.1758Q79.706-84.9483 75.4306-84.9483Q71.1219-84.9483 67.886-83.1758Q64.6502-81.4033 62.8089-78.2022Q60.9676-75.0012 60.9676-70.7172ZM45.8931-29.6982L53.6805-29.6982L53.6805-43.2991Q53.6805-45.2984 52.4554-46.5236Q51.2304-47.7487 49.2223-47.7487L34.4789-47.7487Q32.8729-47.7487 31.7183-46.6034Q30.5636-45.4581 30.5636-43.8332Q30.5636-42.2186 31.7183-41.0682Q32.8729-39.9178 34.4789-39.9178L45.0374-39.9178Q45.8931-39.9178 45.8931-39.0621ZM77.5493-29.6982L85.3887-29.6982L85.3887-39.0621Q85.3887-39.9178 86.2445-39.9178L96.7942-39.9178Q98.419-39.9178 99.5644-41.0682Q100.71-42.2186 100.71-43.8332Q100.71-45.4581 99.5644-46.6034Q98.419-47.7487 96.7942-47.7487L82.0509-47.7487Q80.0515-47.7487 78.8004-46.5236Q77.5493-45.2984 77.5493-43.2991ZM17.1384-23.8226L18.5248-23.8226L18.5248-7.83743Q18.5248 2.67663 24.7795 8.53439Q31.0342 14.3922 42.2561 14.3922L89.4479 14.3922Q100.678 14.3922 106.937 8.53439Q113.197 2.67663 113.197-7.83743L113.197-23.8226L114.574-23.8226Q116.469-23.8226 117.856-25.2146Q119.243-26.6067 119.243-28.5001Q119.243-30.4473 117.856-31.8125Q116.469-33.1777 114.574-33.1777L17.1384-33.1777Q15.245-33.1777 13.853-31.8125Q12.4609-30.4473 12.4609-28.5001Q12.4609-26.6067 13.853-25.2146Q15.245-23.8226 17.1384-23.8226Z"/>
  </g>
  <g id="Regular-M" transform="matrix(1 0 0 1 1386.78 1126)">
   <path d="M58.883-29.8864L66.726-29.8864L66.726-69.7163Q66.726-72.2642 68.2544-73.7926Q69.7828-75.3211 72.372-75.3211Q74.9093-75.3211 76.4431-73.7926Q77.9768-72.2642 77.9768-69.7163L77.9768-61.503Q77.9768-59.9178 79.1476-58.7471Q80.3184-57.5764 81.893-57.5764Q83.5301-57.5764 84.675-58.7471Q85.8198-59.9178 85.8198-61.503L85.8198-69.7163Q85.8198-73.784 84.1597-76.8139Q82.4995-79.8438 79.4644-81.5092Q76.4293-83.1745 72.372-83.1745Q68.2628-83.1745 65.2589-81.5092Q62.2549-79.8438 60.569-76.8139Q58.883-73.784 58.883-69.7163ZM44.9665-29.8864L51.3191-29.8864L51.3191-42.6438Q51.3191-44.3998 50.27-45.449Q49.2208-46.4982 47.4541-46.4982L32.9752-46.4982Q31.6593-46.4982 30.7162-45.5603Q29.7731-44.6224 29.7731-43.296Q29.7731-41.9694 30.7162-41.0316Q31.6593-40.0938 32.9752-40.0938L44.0595-40.0938Q44.9665-40.0938 44.9665-39.1868ZM74.2276-29.8864L80.6425-29.8864L80.6425-39.1868Q80.6425-40.0938 81.5494-40.0938L92.6231-40.0938Q93.9495-40.0938 94.8874-41.0316Q95.8254-41.9694 95.8254-43.296Q95.8254-44.6224 94.8874-45.5603Q93.9495-46.4982 92.6231-46.4982L78.1443-46.4982Q76.3881-46.4982 75.3079-45.449Q74.2276-44.3998 74.2276-42.6438ZM16.3876-24.9964L17.6494-24.9964L17.6494-8.80766Q17.6494 1.36402 23.663 6.98804Q29.6766 12.612 40.5865 12.612L85.5374 12.612Q96.4578 12.612 102.477 6.98804Q108.496 1.36402 108.496-8.80766L108.496-24.9964L109.747-24.9964Q111.322-24.9964 112.492-26.1671Q113.663-27.3378 113.663-28.9231Q113.663-30.5602 112.492-31.705Q111.322-32.8499 109.747-32.8499L16.3876-32.8499Q14.8023-32.8499 13.6316-31.705Q12.4609-30.5602 12.4609-28.9231Q12.4609-27.3378 13.6316-26.1671Q14.8023-24.9964 16.3876-24.9964Z"/>
  </g>
  <g id="Light-M" transform="matrix(1 0 0 1 1092.28 1126)">
   <path d="M57.2745-30.3657L63.2868-30.3657L63.2868-67.6973Q63.2868-70.6388 65.0205-72.3725Q66.7542-74.1062 69.7027-74.1062Q72.6164-74.1062 74.364-72.3725Q76.1116-70.6388 76.1116-67.6973L76.1116-60.6132Q76.1116-59.3874 77.0087-58.4905Q77.9058-57.5936 79.1038-57.5936Q80.3646-57.5936 81.2443-58.4905Q82.1239-59.3874 82.1239-60.6132L82.1239-67.6973Q82.1239-71.4911 80.6006-74.2815Q79.0773-77.0719 76.2732-78.6089Q73.4691-80.1459 69.7027-80.1459Q65.9015-80.1459 63.1285-78.6089Q60.3555-77.0719 58.815-74.2815Q57.2745-71.4911 57.2745-67.6973ZM44.2308-30.3657L49.2659-30.3657L49.2659-41.583Q49.2659-43.4586 48.1825-44.5421Q47.0992-45.6257 45.1953-45.6257L32.496-45.6257Q31.471-45.6257 30.7162-44.8844Q29.9614-44.1431 29.9614-43.0907Q29.9614-42.0379 30.7162-41.2968Q31.471-40.5557 32.496-40.5557L42.9645-40.5557Q44.2308-40.5557 44.2308-39.2895ZM71.2331-30.3657L76.3305-30.3657L76.3305-39.2895Q76.3305-40.5557 77.5968-40.5557L88.0375-40.5557Q89.0899-40.5557 89.8312-41.2968Q90.5725-42.0379 90.5725-43.0907Q90.5725-44.1431 89.8312-44.8844Q89.0899-45.6257 88.0375-45.6257L75.3381-45.6257Q73.4621-45.6257 72.3476-44.5421Q71.2331-43.4586 71.2331-41.583ZM15.4806-26.6391L17.2731-26.6391L17.2731-10.4673Q17.2731-0.774864 22.8845 4.42137Q28.4959 9.61761 39.0122 9.61761L82.6971 9.61761Q93.2408 9.61761 98.8662 4.42137Q104.492-0.774864 104.492-10.4673L104.492-26.6391L106.256-26.6391Q107.455-26.6391 108.352-27.536Q109.248-28.4328 109.248-29.6587Q109.248-30.9195 108.352-31.7992Q107.455-32.6788 106.256-32.6788L15.4806-32.6788Q14.2547-32.6788 13.3578-31.7992Q12.4609-30.9195 12.4609-29.6587Q12.4609-28.4328 13.3578-27.536Q14.2547-26.6391 15.4806-26.6391Z"/>
  </g>
  <g id="Thin-M" transform="matrix(1 0 0 1 798.487 1126)">
   <path d="M55.1472-30.9995L58.7382-30.9995L58.7382-65.027Q58.7382-68.489 60.7434-70.4942Q62.7486-72.4993 66.1724-72.4993Q69.5837-72.4993 71.6142-70.4942Q73.6447-68.489 73.6447-65.027L73.6447-59.4365Q73.6447-58.6858 74.1799-58.1511Q74.715-57.6164 75.4149-57.6164Q76.178-57.6164 76.7069-58.1511Q77.2358-58.6858 77.2358-59.4365L77.2358-65.027Q77.2358-68.4584 75.8935-70.9321Q74.5512-73.4058 72.0526-74.773Q69.554-76.1403 66.1724-76.1403Q62.7783-76.1403 60.3109-74.773Q57.8434-73.4058 56.4953-70.9321Q55.1472-68.4584 55.1472-65.027ZM43.2578-30.9995L46.5503-30.9995L46.5503-40.18Q46.5503-42.2137 45.4218-43.3427Q44.2932-44.4717 42.2079-44.4717L31.8621-44.4717Q31.2219-44.4717 30.7162-43.9905Q30.2105-43.5093 30.2105-42.8192Q30.2105-42.1284 30.7162-41.6476Q31.2219-41.1668 31.8621-41.1668L41.5163-41.1668Q43.2578-41.1668 43.2578-39.4252ZM67.2728-30.9995L70.6276-30.9995L70.6276-39.4252Q70.6276-41.1668 72.3691-41.1668L81.9726-41.1668Q82.6626-41.1668 83.1438-41.6476Q83.6251-42.1284 83.6251-42.8192Q83.6251-43.5093 83.1438-43.9905Q82.6626-44.4717 81.9726-44.4717L71.6268-44.4717Q69.5922-44.4717 68.4325-43.3427Q67.2728-42.2137 67.2728-40.18ZM14.281-28.8117L16.7754-28.8117L16.7754-12.6623Q16.7754-3.60371 21.8549 1.02676Q26.9344 5.65723 36.9301 5.65723L78.9405 5.65723Q88.9861 5.65723 94.091 1.02676Q99.1958-3.60371 99.1958-12.6623L99.1958-28.8117L101.64-28.8117Q102.34-28.8117 102.875-29.3464Q103.41-29.8811 103.41-30.6317Q103.41-31.3948 102.875-31.9237Q102.34-32.4526 101.64-32.4526L14.281-32.4526Q13.5304-32.4526 12.9956-31.9237Q12.4609-31.3948 12.4609-30.6317Q12.4609-29.8811 12.9956-29.3464Q13.5304-28.8117 14.281-28.8117Z"/>
  </g>
  <g id="Ultralight-M" transform="matrix(1 0 0 1 503.271 1126)">
   <path d="M54.0576-31.3241L56.4085-31.3241L56.4085-63.6593Q56.4085-67.3879 58.5527-69.5321Q60.6969-71.6763 64.3641-71.6763Q68.0304-71.6763 70.2058-69.5321Q72.3812-67.3879 72.3812-63.6593L72.3812-58.8337Q72.3812-58.3265 72.731-57.9773Q73.0807-57.6281 73.5255-57.6281Q74.0336-57.6281 74.3829-57.9773Q74.7321-58.3265 74.7321-58.8337L74.7321-63.6593Q74.7321-66.9051 73.4825-69.2166Q72.2329-71.528 69.8908-72.8083Q67.5487-74.0886 64.3641-74.0886Q61.1787-74.0886 58.8677-72.8083Q56.5567-71.528 55.3071-69.2166Q54.0576-66.9051 54.0576-63.6593ZM42.7595-31.3241L45.1595-31.3241L45.1595-39.4614Q45.1595-41.5761 44.0077-42.7284Q42.8559-43.8807 40.6778-43.8807L31.5375-43.8807Q31.0944-43.8807 30.7162-43.5327Q30.3381-43.1847 30.3381-42.6802Q30.3381-42.1747 30.7162-41.8272Q31.0944-41.4797 31.5375-41.4797L40.7745-41.4797Q42.7595-41.4797 42.7595-39.4947ZM65.2443-31.3241L67.7066-31.3241L67.7066-39.4947Q67.7066-41.4797 69.6916-41.4797L78.8662-41.4797Q79.3706-41.4797 79.7186-41.8272Q80.0666-42.1747 80.0666-42.6802Q80.0666-43.1847 79.7186-43.5327Q79.3706-43.8807 78.8662-43.8807L69.7259-43.8807Q67.6101-43.8807 66.4272-42.7284Q65.2443-41.5761 65.2443-39.4614ZM13.6665-29.9245L16.5204-29.9245L16.5204-13.7866Q16.5204-5.05263 21.3275-0.711948Q26.1345 3.62874 35.8637 3.62874L77.0164 3.62874Q86.8069 3.62874 91.6451-0.711948Q96.4834-5.05263 96.4834-13.7866L96.4834-29.9245L99.2749-29.9245Q99.7207-29.9245 100.07-30.2737Q100.419-30.6229 100.419-31.1301Q100.419-31.6382 100.07-31.9875Q99.7207-32.3367 99.2749-32.3367L13.6665-32.3367Q13.1594-32.3367 12.8102-31.9875Q12.4609-31.6382 12.4609-31.1301Q12.4609-30.6229 12.8102-30.2737Q13.1594-29.9245 13.6665-29.9245Z"/>
  </g>
  <g id="Black-S" transform="matrix(1 0 0 1 2870.85 696)">
   <path d="M55.957-30.1758L69.1406-30.1758L69.1406-66.2109Q69.1406-67.041 69.7266-67.6025Q70.3125-68.1641 71.0938-68.1641Q71.9238-68.1641 72.4854-67.5781Q73.0469-66.9922 73.0469-66.2109L73.0469-59.7656Q73.0469-57.0312 74.9756-55.1025Q76.9043-53.1738 79.6387-53.1738Q82.373-53.1738 84.3018-55.1025Q86.2305-57.0312 86.2305-59.7656L86.2305-66.8945Q86.2305-71.0938 84.1797-74.2676Q82.1289-77.4414 78.7109-79.248Q75.293-81.0547 71.0938-81.0547Q66.9434-81.0547 63.501-79.248Q60.0586-77.4414 58.0078-74.2676Q55.957-71.0938 55.957-66.8945ZM39.5996-30.1758L51.3184-30.1758L51.3184-44.0918Q51.3184-46.6309 49.6582-48.291Q47.998-49.9512 45.459-49.9512L32.959-49.9512Q30.5664-49.9512 28.833-48.2422Q27.0996-46.5332 27.0996-44.0918Q27.0996-41.6992 28.833-39.9658Q30.5664-38.2324 32.959-38.2324L39.1113-38.2324Q39.5996-38.2324 39.5996-37.7441ZM73.7793-30.1758L85.498-30.1758L85.498-37.7441Q85.498-38.2324 85.9863-38.2324L92.1387-38.2324Q94.5801-38.2324 96.2891-39.9658Q97.998-41.6992 97.998-44.0918Q97.998-46.5332 96.2891-48.2422Q94.5801-49.9512 92.1387-49.9512L79.6387-49.9512Q77.0996-49.9512 75.4395-48.291Q73.7793-46.6309 73.7793-44.0918ZM16.3574-21.7285L17.9688-21.7285L17.9688-10.0098Q17.9688-0.439453 23.8037 5.05371Q29.6387 10.5469 39.6484 10.5469L85.4492 10.5469Q95.459 10.5469 101.294 5.05371Q107.129-0.439453 107.129-10.0098L107.129-21.7285L108.74-21.7285Q111.475-21.7285 113.403-23.6816Q115.332-25.6348 115.332-28.3203Q115.332-31.0547 113.403-32.9834Q111.475-34.9121 108.74-34.9121L16.3574-34.9121Q13.6719-34.9121 11.7188-32.9834Q9.76562-31.0547 9.76562-28.3203Q9.76562-25.6348 11.7188-23.6816Q13.6719-21.7285 16.3574-21.7285Z"/>
  </g>
  <g id="Heavy-S" transform="matrix(1 0 0 1 2576.99 696)">
   <path d="M53.825-30.3256L65.5565-30.3256L65.5565-65.5079Q65.5565-66.5685 66.2635-67.2568Q66.9704-67.9451 68.0052-67.9451Q69.0658-67.9451 69.7541-67.2382Q70.4423-66.5312 70.4423-65.5079L70.4423-58.9359Q70.4423-56.5126 72.1636-54.7914Q73.8849-53.0701 76.3081-53.0701Q78.7428-53.0701 80.4583-54.7914Q82.1739-56.5126 82.1739-58.9359L82.1739-66.0302Q82.1739-70.022 80.2844-73.0345Q78.395-76.0469 75.196-77.7499Q71.997-79.4528 68.0052-79.4528Q64.0392-79.4528 60.8273-77.7499Q57.6154-76.0469 55.7202-73.0345Q53.825-70.022 53.825-66.0302ZM38.6546-30.3256L48.9328-30.3256L48.9328-43.4925Q48.9328-45.7435 47.4743-47.202Q46.0158-48.6604 43.7649-48.6604L31.334-48.6604Q29.2296-48.6604 27.7094-47.1589Q26.1892-45.6573 26.1892-43.5156Q26.1892-41.4111 27.7094-39.8909Q29.2296-38.3707 31.334-38.3707L38.1548-38.3707Q38.6546-38.3707 38.6546-37.8709ZM70.4372-30.3256L80.7269-30.3256L80.7269-37.8709Q80.7269-38.3707 81.2267-38.3707L88.0475-38.3707Q90.1893-38.3707 91.6908-39.8909Q93.1923-41.4111 93.1923-43.5156Q93.1923-45.6573 91.6908-47.1589Q90.1893-48.6604 88.0475-48.6604L75.6166-48.6604Q73.3657-48.6604 71.9014-47.202Q70.4372-45.7435 70.4372-43.4925ZM15.6314-22.8349L17.0353-22.8349L17.0353-10.8856Q17.0353-1.638 22.6513 3.64773Q28.2673 8.93345 37.9774 8.93345L81.4272 8.93345Q91.1373 8.93345 96.7533 3.64773Q102.369-1.638 102.369-10.8856L102.369-22.8349L103.773-22.8349Q106.196-22.8349 107.918-24.5748Q109.639-26.3147 109.639-28.7006Q109.639-31.1354 107.918-32.8509Q106.196-34.5664 103.773-34.5664L15.6314-34.5664Q13.2455-34.5664 11.5055-32.8509Q9.76562-31.1354 9.76562-28.7006Q9.76562-26.3147 11.5055-24.5748Q13.2455-22.8349 15.6314-22.8349Z"/>
  </g>
  <g id="Bold-S" transform="matrix(1 0 0 1 2283.46 696)">
   <path d="M51.4404-30.4932L61.5479-30.4932L61.5479-64.7217Q61.5479-66.04 62.3901-66.8701Q63.2324-67.7002 64.5508-67.7002Q65.8691-67.7002 66.6992-66.8579Q67.5293-66.0156 67.5293-64.7217L67.5293-58.0078Q67.5293-55.9326 69.0186-54.4434Q70.5078-52.9541 72.583-52.9541Q74.6826-52.9541 76.1597-54.4434Q77.6367-55.9326 77.6367-58.0078L77.6367-65.0635Q77.6367-68.8232 75.9277-71.6553Q74.2188-74.4873 71.2646-76.0742Q68.3105-77.6611 64.5508-77.6611Q60.791-77.6611 57.8369-76.0742Q54.8828-74.4873 53.1616-71.6553Q51.4404-68.8232 51.4404-65.0635ZM37.5977-30.4932L46.2646-30.4932L46.2646-42.8223Q46.2646-44.751 45.0317-45.9839Q43.7988-47.2168 41.8701-47.2168L29.5166-47.2168Q27.7344-47.2168 26.4526-45.9473Q25.1709-44.6777 25.1709-42.8711Q25.1709-41.0889 26.4526-39.8071Q27.7344-38.5254 29.5166-38.5254L37.085-38.5254Q37.5977-38.5254 37.5977-38.0127ZM66.6992-30.4932L75.3906-30.4932L75.3906-38.0127Q75.3906-38.5254 75.9033-38.5254L83.4717-38.5254Q85.2783-38.5254 86.5479-39.8071Q87.8174-41.0889 87.8174-42.8711Q87.8174-44.6777 86.5479-45.9473Q85.2783-47.2168 83.4717-47.2168L71.1182-47.2168Q69.1895-47.2168 67.9443-45.9839Q66.6992-44.751 66.6992-42.8223ZM14.8193-24.0723L15.9912-24.0723L15.9912-11.8652Q15.9912-2.97852 21.3623 2.0752Q26.7334 7.12891 36.1084 7.12891L76.9287 7.12891Q86.3037 7.12891 91.6748 2.0752Q97.0459-2.97852 97.0459-11.8652L97.0459-24.0723L98.2178-24.0723Q100.293-24.0723 101.782-25.5737Q103.271-27.0752 103.271-29.126Q103.271-31.2256 101.782-32.7026Q100.293-34.1797 98.2178-34.1797L14.8193-34.1797Q12.7686-34.1797 11.2671-32.7026Q9.76562-31.2256 9.76562-29.126Q9.76562-27.0752 11.2671-25.5737Q12.7686-24.0723 14.8193-24.0723Z"/>
  </g>
  <g id="Semibold-S" transform="matrix(1 0 0 1 1988.94 696)">
   <path d="M49.7964-30.6087L58.7841-30.6087L58.7841-64.1796Q58.7841-65.6757 59.7197-66.6035Q60.6553-67.5313 62.1691-67.5313Q63.6652-67.5313 64.5931-66.5958Q65.5209-65.6602 65.5209-64.1796L65.5209-57.368Q65.5209-55.5327 66.8502-54.2034Q68.1795-52.8741 70.0147-52.8741Q71.8833-52.8741 73.1959-54.2034Q74.5086-55.5327 74.5086-57.368L74.5086-64.397Q74.5086-67.9968 72.924-70.7044Q71.3395-73.412 68.5542-74.9189Q65.7689-76.4259 62.1691-76.4259Q58.5516-76.4259 55.7752-74.9189Q52.9988-73.412 51.3976-70.7044Q49.7964-67.9968 49.7964-64.397ZM36.8689-30.6087L44.4251-30.6087L44.4251-42.3602Q44.4251-44.0667 43.3477-45.1441Q42.2703-46.2215 40.5638-46.2215L28.2636-46.2215Q26.7035-46.2215 25.5862-45.1119Q24.4688-44.0023 24.4688-42.4268Q24.4688-40.8667 25.5862-39.7494Q26.7035-38.632 28.2636-38.632L36.3474-38.632Q36.8689-38.632 36.8689-38.1104ZM64.1221-30.6087L71.7115-30.6087L71.7115-38.1104Q71.7115-38.632 72.2331-38.632L80.3169-38.632Q81.8925-38.632 83.0021-39.7494Q84.1116-40.8667 84.1116-42.4268Q84.1116-44.0023 83.0021-45.1119Q81.8925-46.2215 80.3169-46.2215L68.0167-46.2215Q66.3102-46.2215 65.2161-45.1441Q64.1221-44.0667 64.1221-42.3602ZM14.2595-24.9254L15.2714-24.9254L15.2714-12.5406Q15.2714-3.90273 20.4736 0.991016Q25.6759 5.88477 34.8198 5.88477L73.8272 5.88477Q82.9712 5.88477 88.1734 0.991016Q93.3757-3.90273 93.3757-12.5406L93.3757-24.9254L94.3876-24.9254Q96.2229-24.9254 97.5521-26.2625Q98.8814-27.5995 98.8814-29.4192Q98.8814-31.2878 97.5521-32.6004Q96.2229-33.9131 94.3876-33.9131L14.2595-33.9131Q12.4397-33.9131 11.1027-32.6004Q9.76562-31.2878 9.76562-29.4192Q9.76562-27.5995 11.1027-26.2625Q12.4397-24.9254 14.2595-24.9254Z"/>
  </g>
  <g id="Medium-S" transform="matrix(1 0 0 1 1693.9 696)">
   <path d="M48.5498-30.6963L56.6885-30.6963L56.6885-63.7686Q56.6885-65.3994 57.6948-66.4014Q58.7012-67.4033 60.3633-67.4033Q61.9941-67.4033 62.9961-66.397Q63.998-65.3906 63.998-63.7686L63.998-56.8828Q63.998-55.2295 65.2061-54.0215Q66.4141-52.8135 68.0674-52.8135Q69.7607-52.8135 70.9487-54.0215Q72.1367-55.2295 72.1367-56.8828L72.1367-63.8916Q72.1367-67.3701 70.6465-69.9834Q69.1562-72.5967 66.499-74.043Q63.8418-75.4893 60.3633-75.4893Q56.8535-75.4893 54.2119-74.043Q51.5703-72.5967 50.0601-69.9834Q48.5498-67.3701 48.5498-63.8916ZM36.3164-30.6963L43.0303-30.6963L43.0303-42.0098Q43.0303-43.5479 42.0708-44.5073Q41.1113-45.4668 39.5732-45.4668L27.3135-45.4668Q25.9219-45.4668 24.9292-44.4785Q23.9365-43.4902 23.9365-42.0898Q23.9365-40.6982 24.9292-39.7056Q25.9219-38.7129 27.3135-38.7129L35.7881-38.7129Q36.3164-38.7129 36.3164-38.1846ZM62.168-30.6963L68.9219-30.6963L68.9219-38.1846Q68.9219-38.7129 69.4502-38.7129L77.9248-38.7129Q79.3252-38.7129 80.3135-39.7056Q81.3018-40.6982 81.3018-42.0898Q81.3018-43.4902 80.3135-44.4785Q79.3252-45.4668 77.9248-45.4668L65.665-45.4668Q64.127-45.4668 63.1475-44.5073Q62.168-43.5479 62.168-42.0098ZM13.835-25.5723L14.7256-25.5723L14.7256-13.0527Q14.7256-4.60352 19.7998 0.168945Q24.874 4.94141 33.8428 4.94141L71.4756 4.94141Q80.4443 4.94141 85.5186 0.168945Q90.5928-4.60352 90.5928-13.0527L90.5928-25.5723L91.4834-25.5723Q93.1367-25.5723 94.3447-26.7847Q95.5527-27.9971 95.5527-29.6416Q95.5527-31.335 94.3447-32.5229Q93.1367-33.7109 91.4834-33.7109L13.835-33.7109Q12.1904-33.7109 10.978-32.5229Q9.76562-31.335 9.76562-29.6416Q9.76562-27.9971 10.978-26.7847Q12.1904-25.5723 13.835-25.5723Z"/>
  </g>
  <g id="Regular-S" transform="matrix(1 0 0 1 1399.36 696)">
   <path d="M46.9238-30.8105L53.9551-30.8105L53.9551-63.2324Q53.9551-65.0391 55.0537-66.1377Q56.1523-67.2363 58.0078-67.2363Q59.8145-67.2363 60.9131-66.1377Q62.0117-65.0391 62.0117-63.2324L62.0117-56.25Q62.0117-54.834 63.0615-53.7842Q64.1113-52.7344 65.5273-52.7344Q66.9922-52.7344 68.0176-53.7842Q69.043-54.834 69.043-56.25L69.043-63.2324Q69.043-66.5527 67.6758-69.043Q66.3086-71.5332 63.8184-72.9004Q61.3281-74.2676 58.0078-74.2676Q54.6387-74.2676 52.1729-72.9004Q49.707-71.5332 48.3154-69.043Q46.9238-66.5527 46.9238-63.2324ZM35.5957-30.8105L41.2109-30.8105L41.2109-41.5527Q41.2109-42.8711 40.4053-43.6768Q39.5996-44.4824 38.2812-44.4824L26.0742-44.4824Q24.9023-44.4824 24.0723-43.6523Q23.2422-42.8223 23.2422-41.6504Q23.2422-40.4785 24.0723-39.6484Q24.9023-38.8184 26.0742-38.8184L35.0586-38.8184Q35.5957-38.8184 35.5957-38.2812ZM59.6191-30.8105L65.2832-30.8105L65.2832-38.2812Q65.2832-38.8184 65.8203-38.8184L74.8047-38.8184Q75.9766-38.8184 76.8066-39.6484Q77.6367-40.4785 77.6367-41.6504Q77.6367-42.8223 76.8066-43.6523Q75.9766-44.4824 74.8047-44.4824L62.5977-44.4824Q61.2793-44.4824 60.4492-43.6768Q59.6191-42.8711 59.6191-41.5527ZM13.2812-26.416L14.0137-26.416L14.0137-13.7207Q14.0137-5.51758 18.9209-0.90332Q23.8281 3.71094 32.5684 3.71094L68.4082 3.71094Q77.1484 3.71094 82.0557-0.90332Q86.9629-5.51758 86.9629-13.7207L86.9629-26.416L87.6953-26.416Q89.1113-26.416 90.1611-27.4658Q91.2109-28.5156 91.2109-29.9316Q91.2109-31.3965 90.1611-32.4219Q89.1113-33.4473 87.6953-33.4473L13.2812-33.4473Q11.8652-33.4473 10.8154-32.4219Q9.76562-31.3965 9.76562-29.9316Q9.76562-28.5156 10.8154-27.4658Q11.8652-26.416 13.2812-26.416Z"/>
  </g>
  <g id="Light-S" transform="matrix(1 0 0 1 1104.6 696)">
   <path d="M45.5009-31.2345L50.9127-31.2345L50.9127-61.4464Q50.9127-63.6012 52.1929-64.8814Q53.4732-66.1616 55.6465-66.1616Q57.7861-66.1616 59.0739-64.8814Q60.3617-63.6012 60.3617-61.4464L60.3617-55.4629Q60.3617-54.3648 61.1694-53.5572Q61.9771-52.7496 63.06-52.7496Q64.1919-52.7496 64.9827-53.5572Q65.7735-54.3648 65.7735-55.4629L65.7735-61.4464Q65.7735-64.5243 64.5274-66.8027Q63.2812-69.0811 60.9954-70.3348Q58.7095-71.5884 55.6465-71.5884Q52.5497-71.5884 50.2883-70.3348Q48.0268-69.0811 46.7639-66.8027Q45.5009-64.5243 45.5009-61.4464ZM34.9449-31.2345L39.3946-31.2345L39.3946-40.6143Q39.3946-42.0385 38.5587-42.8745Q37.7228-43.7106 36.2831-43.7106L25.6503-43.7106Q24.7358-43.7106 24.0723-43.0545Q23.4088-42.3983 23.4088-41.4688Q23.4088-40.539 24.0723-39.883Q24.7358-39.227 25.6503-39.227L34.0899-39.227Q34.9449-39.227 34.9449-38.372ZM56.9702-31.2345L61.4688-31.2345L61.4688-38.372Q61.4688-39.227 62.3238-39.227L70.7481-39.227Q71.6777-39.227 72.3338-39.883Q72.9899-40.539 72.9899-41.4688Q72.9899-42.3983 72.3338-43.0545Q71.6777-43.7106 70.7481-43.7106L60.1153-43.7106Q58.6909-43.7106 57.8306-42.8745Q56.9702-42.0385 56.9702-40.6143ZM12.4789-27.8692L13.6808-27.8692L13.6808-15.1889Q13.6808-7.40967 18.2322-3.17383Q22.7837 1.06201 31.1757 1.06201L65.8956 1.06201Q74.3027 1.06201 78.8617-3.17383Q83.4208-7.40967 83.4208-15.1889L83.4208-27.8692L84.6074-27.8692Q85.6906-27.8692 86.4981-28.6767Q87.3057-29.4843 87.3057-30.5824Q87.3057-31.7144 86.4981-32.5052Q85.6906-33.2959 84.6074-33.2959L12.4789-33.2959Q11.3808-33.2959 10.5732-32.5052Q9.76562-31.7144 9.76562-30.5824Q9.76562-29.4843 10.5732-28.6767Q11.3808-27.8692 12.4789-27.8692Z"/>
  </g>
  <g id="Thin-S" transform="matrix(1 0 0 1 810.469 696)">
   <path d="M43.6191-31.7952L46.889-31.7952L46.889-59.0842Q46.889-61.6995 48.4093-63.2198Q49.9297-64.7402 52.5235-64.7402Q55.1033-64.7402 56.6414-63.2198Q58.1795-61.6995 58.1795-59.0842L58.1795-54.4219Q58.1795-53.7442 58.667-53.257Q59.1545-52.7698 59.7967-52.7698Q60.4884-52.7698 60.9689-53.257Q61.4494-53.7442 61.4494-54.4219L61.4494-59.0842Q61.4494-61.8416 60.3634-63.8398Q59.2773-65.838 57.2617-66.9415Q55.2461-68.0449 52.5235-68.0449Q49.787-68.0449 47.7957-66.9415Q45.8045-65.838 44.7118-63.8398Q43.6191-61.8416 43.6191-59.0842ZM34.0842-31.7952L36.9924-31.7952L36.9924-39.3732Q36.9924-40.9373 36.1165-41.8135Q35.2405-42.6898 33.6404-42.6898L25.0896-42.6898Q24.5155-42.6898 24.0723-42.2637Q23.6291-41.8376 23.6291-41.2287Q23.6291-40.6191 24.0723-40.1933Q24.5155-39.7676 25.0896-39.7676L32.8088-39.7676Q34.0842-39.7676 34.0842-38.4921ZM53.4668-31.7952L56.4239-31.7952L56.4239-38.4921Q56.4239-39.7676 57.6993-39.7676L65.383-39.7676Q65.992-39.7676 66.4181-40.1933Q66.8441-40.6191 66.8441-41.2287Q66.8441-41.8376 66.4181-42.2637Q65.992-42.6898 65.383-42.6898L56.8322-42.6898Q55.2675-42.6898 54.3672-41.8135Q53.4668-40.9373 53.4668-39.3732ZM11.4177-29.7911L13.2405-29.7911L13.2405-17.1306Q13.2405-9.91211 17.3214-6.17676Q21.4023-2.44141 29.3339-2.44141L62.5725-2.44141Q70.5389-2.44141 74.6375-6.17676Q78.7361-9.91211 78.7361-17.1306L78.7361-29.7911L80.5235-29.7911Q81.1663-29.7911 81.6535-30.2783Q82.1407-30.7655 82.1407-31.4431Q82.1407-32.1348 81.6535-32.6153Q81.1663-33.0958 80.5235-33.0958L11.4177-33.0958Q10.74-33.0958 10.2528-32.6153Q9.76562-32.1348 9.76562-31.4431Q9.76562-30.7655 10.2528-30.2783Q10.74-29.7911 11.4177-29.7911Z"/>
  </g>
  <g id="Ultralight-S" transform="matrix(1 0 0 1 515.081 696)">
   <path d="M42.6552-32.0824L44.828-32.0824L44.828-57.8743Q44.828-60.7254 46.4714-62.3688Q48.1148-64.0121 50.9239-64.0121Q53.7292-64.0121 55.3955-62.3688Q57.0618-60.7254 57.0618-57.8743L57.0618-53.8887Q57.0618-53.4264 57.3853-53.1033Q57.7087-52.7802 58.1253-52.7802Q58.5915-52.7802 58.913-53.1033Q59.2346-53.4264 59.2346-53.8887L59.2346-57.8743Q59.2346-60.4675 58.2306-62.3222Q57.2266-64.1769 55.3493-65.2035Q53.4721-66.23 50.9239-66.23Q48.3719-66.23 46.5191-65.2035Q44.6663-64.1769 43.6607-62.3222Q42.6552-60.4675 42.6552-57.8743ZM33.6433-32.0824L35.762-32.0824L35.762-38.7375Q35.762-40.3732 34.8656-41.2701Q33.9691-42.1669 32.2868-42.1669L24.8024-42.1669Q24.4026-42.1669 24.0723-41.8587Q23.7419-41.5504 23.7419-41.1057Q23.7419-40.6601 24.0723-40.3522Q24.4026-40.0444 24.8024-40.0444L32.1526-40.0444Q33.6433-40.0444 33.6433-38.5536ZM51.6724-32.0824L53.8399-32.0824L53.8399-38.5536Q53.8399-40.0444 55.3307-40.0444L62.635-40.0444Q63.0798-40.0444 63.3881-40.3522Q63.6963-40.6601 63.6963-41.1057Q63.6963-41.5504 63.3881-41.8587Q63.0798-42.1669 62.635-42.1669L55.1506-42.1669Q53.5141-42.1669 52.5932-41.2701Q51.6724-40.3732 51.6724-38.7375ZM10.8742-30.7755L13.015-30.7755L13.015-18.1252Q13.015-11.1938 16.8549-7.71484Q20.6947-4.23584 28.3905-4.23584L60.8704-4.23584Q68.6111-4.23584 72.4739-7.71484Q76.3367-11.1938 76.3367-18.1252L76.3367-30.7755L78.4317-30.7755Q78.849-30.7755 79.1721-31.0986Q79.4952-31.4217 79.4952-31.884Q79.4952-32.3502 79.1721-32.6717Q78.849-32.9933 78.4317-32.9933L10.8742-32.9933Q10.4118-32.9933 10.0887-32.6717Q9.76562-32.3502 9.76562-31.884Q9.76562-31.4217 10.0887-31.0986Q10.4118-30.7755 10.8742-30.7755Z"/>
  </g>
 </g>
</svg>
