<?xml version="1.0" encoding="UTF-8"?>
<!--Generator: Apple Native CoreSVG 175.5-->
<!DOCTYPE svg
PUBLIC "-//W3C//DTD SVG 1.1//EN"
       "http://www.w3.org/Graphics/SVG/1.1/DTD/svg11.dtd">
<svg version="1.1" xmlns="http://www.w3.org/2000/svg" xmlns:xlink="http://www.w3.org/1999/xlink" width="3300" height="2200">
 <!--glyph: "uni10130E.medium", point size: 100.0, font version: "18.0d9e1", template writer version: "84"-->
 <g id="Notes">
  <rect height="2200" id="artboard" style="fill:white;opacity:1" width="3300" x="0" y="0"/>
  <line style="fill:none;stroke:black;opacity:1;stroke-width:0.5;" x1="263" x2="3036" y1="292" y2="292"/>
  <text style="stroke:none;fill:black;font-family:sans-serif;font-size:13;font-weight:bold;" transform="matrix(1 0 0 1 263 322)">Weight/Scale Variations</text>
  <text style="stroke:none;fill:black;font-family:sans-serif;font-size:13;text-anchor:middle;" transform="matrix(1 0 0 1 559.711 322)">Ultralight</text>
  <text style="stroke:none;fill:black;font-family:sans-serif;font-size:13;text-anchor:middle;" transform="matrix(1 0 0 1 856.422 322)">Thin</text>
  <text style="stroke:none;fill:black;font-family:sans-serif;font-size:13;text-anchor:middle;" transform="matrix(1 0 0 1 1153.13 322)">Light</text>
  <text style="stroke:none;fill:black;font-family:sans-serif;font-size:13;text-anchor:middle;" transform="matrix(1 0 0 1 1449.84 322)">Regular</text>
  <text style="stroke:none;fill:black;font-family:sans-serif;font-size:13;text-anchor:middle;" transform="matrix(1 0 0 1 1746.56 322)">Medium</text>
  <text style="stroke:none;fill:black;font-family:sans-serif;font-size:13;text-anchor:middle;" transform="matrix(1 0 0 1 2043.27 322)">Semibold</text>
  <text style="stroke:none;fill:black;font-family:sans-serif;font-size:13;text-anchor:middle;" transform="matrix(1 0 0 1 2339.98 322)">Bold</text>
  <text style="stroke:none;fill:black;font-family:sans-serif;font-size:13;text-anchor:middle;" transform="matrix(1 0 0 1 2636.69 322)">Heavy</text>
  <text style="stroke:none;fill:black;font-family:sans-serif;font-size:13;text-anchor:middle;" transform="matrix(1 0 0 1 2933.4 322)">Black</text>
  <line style="fill:none;stroke:black;opacity:1;stroke-width:0.5;" x1="263" x2="3036" y1="1903" y2="1903"/>
  <g transform="matrix(1 0 0 1 263 1933)">
   <path d="M9.24805 0.830078Q10.8691 0.830078 12.2949 0.214844Q13.7207-0.400391 14.8096-1.49414Q15.8984-2.58789 16.5186-4.01367Q17.1387-5.43945 17.1387-7.05078Q17.1387-8.66211 16.5186-10.0879Q15.8984-11.5137 14.8047-12.6074Q13.7109-13.7012 12.2852-14.3164Q10.8594-14.9316 9.23828-14.9316Q7.62695-14.9316 6.20117-14.3164Q4.77539-13.7012 3.69141-12.6074Q2.60742-11.5137 1.9873-10.0879Q1.36719-8.66211 1.36719-7.05078Q1.36719-5.43945 1.9873-4.01367Q2.60742-2.58789 3.69629-1.49414Q4.78516-0.400391 6.21094 0.214844Q7.63672 0.830078 9.24805 0.830078ZM9.24805-0.654297Q7.91992-0.654297 6.7627-1.14746Q5.60547-1.64062 4.73145-2.51953Q3.85742-3.39844 3.36426-4.56055Q2.87109-5.72266 2.87109-7.05078Q2.87109-8.37891 3.35938-9.54102Q3.84766-10.7031 4.72168-11.582Q5.5957-12.4609 6.75293-12.9541Q7.91016-13.4473 9.23828-13.4473Q10.5762-13.4473 11.7383-12.9541Q12.9004-12.4609 13.7793-11.582Q14.6582-10.7031 15.1514-9.54102Q15.6445-8.37891 15.6445-7.05078Q15.6445-5.72266 15.1514-4.56055Q14.6582-3.39844 13.7793-2.51953Q12.9004-1.64062 11.7432-1.14746Q10.5859-0.654297 9.24805-0.654297ZM5.6543-7.05078Q5.6543-6.72852 5.85938-6.52832Q6.06445-6.32812 6.40625-6.32812L8.51562-6.32812L8.51562-4.20898Q8.51562-3.88672 8.71094-3.67676Q8.90625-3.4668 9.23828-3.4668Q9.56055-3.4668 9.77051-3.67676Q9.98047-3.88672 9.98047-4.20898L9.98047-6.32812L12.0898-6.32812Q12.4219-6.32812 12.627-6.52832Q12.832-6.72852 12.832-7.05078Q12.832-7.38281 12.627-7.58789Q12.4219-7.79297 12.0898-7.79297L9.98047-7.79297L9.98047-9.90234Q9.98047-10.2344 9.77051-10.4443Q9.56055-10.6543 9.23828-10.6543Q8.90625-10.6543 8.71094-10.4443Q8.51562-10.2344 8.51562-9.90234L8.51562-7.79297L6.40625-7.79297Q6.06445-7.79297 5.85938-7.58789Q5.6543-7.38281 5.6543-7.05078Z"/>
  </g>
  <g transform="matrix(1 0 0 1 281.867 1933)">
   <path d="M11.709 2.91016Q13.75 2.91016 15.5518 2.12891Q17.3535 1.34766 18.7305-0.0292969Q20.1074-1.40625 20.8887-3.20801Q21.6699-5.00977 21.6699-7.05078Q21.6699-9.0918 20.8887-10.8936Q20.1074-12.6953 18.7305-14.0723Q17.3535-15.4492 15.5469-16.2305Q13.7402-17.0117 11.6992-17.0117Q9.6582-17.0117 7.85645-16.2305Q6.05469-15.4492 4.68262-14.0723Q3.31055-12.6953 2.5293-10.8936Q1.74805-9.0918 1.74805-7.05078Q1.74805-5.00977 2.5293-3.20801Q3.31055-1.40625 4.6875-0.0292969Q6.06445 1.34766 7.86621 2.12891Q9.66797 2.91016 11.709 2.91016ZM11.709 1.25Q9.98047 1.25 8.47656 0.605469Q6.97266-0.0390625 5.83496-1.17676Q4.69727-2.31445 4.05762-3.81836Q3.41797-5.32227 3.41797-7.05078Q3.41797-8.7793 4.05762-10.2832Q4.69727-11.7871 5.83008-12.9297Q6.96289-14.0723 8.4668-14.7119Q9.9707-15.3516 11.6992-15.3516Q13.4277-15.3516 14.9365-14.7119Q16.4453-14.0723 17.583-12.9297Q18.7207-11.7871 19.3652-10.2832Q20.0098-8.7793 20.0098-7.05078Q20.0098-5.32227 19.3701-3.81836Q18.7305-2.31445 17.5879-1.17676Q16.4453-0.0390625 14.9414 0.605469Q13.4375 1.25 11.709 1.25ZM7.17773-7.05078Q7.17773-6.69922 7.41211-6.47461Q7.64648-6.25 8.01758-6.25L10.8887-6.25L10.8887-3.36914Q10.8887-2.99805 11.1133-2.76855Q11.3379-2.53906 11.6895-2.53906Q12.0605-2.53906 12.29-2.76855Q12.5195-2.99805 12.5195-3.36914L12.5195-6.25L15.4004-6.25Q15.7715-6.25 16.001-6.47461Q16.2305-6.69922 16.2305-7.05078Q16.2305-7.42188 16.001-7.65137Q15.7715-7.88086 15.4004-7.88086L12.5195-7.88086L12.5195-10.752Q12.5195-11.1328 12.29-11.3623Q12.0605-11.5918 11.6895-11.5918Q11.3379-11.5918 11.1133-11.3574Q10.8887-11.123 10.8887-10.752L10.8887-7.88086L8.01758-7.88086Q7.63672-7.88086 7.40723-7.65137Q7.17773-7.42188 7.17773-7.05078Z"/>
  </g>
  <g transform="matrix(1 0 0 1 305.646 1933)">
   <path d="M14.9707 5.66406Q17.0605 5.66406 18.96 5.01465Q20.8594 4.36523 22.4512 3.19336Q24.043 2.02148 25.2197 0.429688Q26.3965-1.16211 27.0459-3.06641Q27.6953-4.9707 27.6953-7.05078Q27.6953-9.14062 27.0459-11.04Q26.3965-12.9395 25.2197-14.5312Q24.043-16.123 22.4512-17.2998Q20.8594-18.4766 18.9551-19.126Q17.0508-19.7754 14.9609-19.7754Q12.8711-19.7754 10.9717-19.126Q9.07227-18.4766 7.48535-17.2998Q5.89844-16.123 4.72168-14.5312Q3.54492-12.9395 2.90039-11.04Q2.25586-9.14062 2.25586-7.05078Q2.25586-4.9707 2.90527-3.06641Q3.55469-1.16211 4.72656 0.429688Q5.89844 2.02148 7.49023 3.19336Q9.08203 4.36523 10.9814 5.01465Q12.8809 5.66406 14.9707 5.66406ZM14.9707 3.84766Q13.1641 3.84766 11.5283 3.2959Q9.89258 2.74414 8.53516 1.74805Q7.17773 0.751953 6.17676-0.610352Q5.17578-1.97266 4.62891-3.6084Q4.08203-5.24414 4.08203-7.05078Q4.08203-8.86719 4.62891-10.5029Q5.17578-12.1387 6.17188-13.501Q7.16797-14.8633 8.52539-15.8594Q9.88281-16.8555 11.5186-17.4023Q13.1543-17.9492 14.9609-17.9492Q16.7773-17.9492 18.4131-17.4023Q20.0488-16.8555 21.4111-15.8594Q22.7734-14.8633 23.7744-13.501Q24.7754-12.1387 25.3223-10.5029Q25.8691-8.86719 25.8691-7.05078Q25.8691-5.24414 25.3223-3.6084Q24.7754-1.97266 23.7793-0.610352Q22.7832 0.751953 21.4209 1.74805Q20.0586 2.74414 18.4229 3.2959Q16.7871 3.84766 14.9707 3.84766ZM9.19922-7.05078Q9.19922-6.66992 9.45801-6.4209Q9.7168-6.17188 10.1172-6.17188L14.0625-6.17188L14.0625-2.2168Q14.0625-1.81641 14.3115-1.55762Q14.5605-1.29883 14.9512-1.29883Q15.3516-1.29883 15.6104-1.55273Q15.8691-1.80664 15.8691-2.2168L15.8691-6.17188L19.8242-6.17188Q20.2246-6.17188 20.4785-6.4209Q20.7324-6.66992 20.7324-7.05078Q20.7324-7.46094 20.4785-7.71484Q20.2246-7.96875 19.8242-7.96875L15.8691-7.96875L15.8691-11.9141Q15.8691-12.3242 15.6104-12.583Q15.3516-12.8418 14.9512-12.8418Q14.5605-12.8418 14.3115-12.583Q14.0625-12.3242 14.0625-11.9141L14.0625-7.96875L10.1172-7.96875Q9.70703-7.96875 9.45312-7.71484Q9.19922-7.46094 9.19922-7.05078Z"/>
  </g>
  <text style="stroke:none;fill:black;font-family:sans-serif;font-size:13;font-weight:bold;" transform="matrix(1 0 0 1 263 1953)">Design Variations</text>
  <text style="stroke:none;fill:black;font-family:sans-serif;font-size:13;" transform="matrix(1 0 0 1 263 1971)">Symbols are supported in up to nine weights and three scales.</text>
  <text style="stroke:none;fill:black;font-family:sans-serif;font-size:13;" transform="matrix(1 0 0 1 263 1989)">For optimal layout with text and other symbols, vertically align</text>
  <text style="stroke:none;fill:black;font-family:sans-serif;font-size:13;" transform="matrix(1 0 0 1 263 2007)">symbols with the adjacent text.</text>
  <line style="fill:none;stroke:#00AEEF;stroke-width:0.5;opacity:1.0;" x1="776" x2="776" y1="1919" y2="1933"/>
  <g transform="matrix(1 0 0 1 776 1933)">
   <path d="M3.31055 0.15625Q3.70117 0.15625 3.91602-0.00976562Q4.13086-0.175781 4.26758-0.585938L5.52734-4.0332L11.2891-4.0332L12.5488-0.585938Q12.6855-0.175781 12.9004-0.00976562Q13.1152 0.15625 13.4961 0.15625Q13.8867 0.15625 14.1162-0.0585938Q14.3457-0.273438 14.3457-0.644531Q14.3457-0.869141 14.2383-1.17188L9.6582-13.3691Q9.48242-13.8184 9.17969-14.043Q8.87695-14.2676 8.4082-14.2676Q7.5-14.2676 7.17773-13.3789L2.59766-1.16211Q2.49023-0.859375 2.49023-0.634766Q2.49023-0.263672 2.70996-0.0537109Q2.92969 0.15625 3.31055 0.15625ZM6.00586-5.51758L8.37891-12.0898L8.42773-12.0898L10.8008-5.51758Z"/>
  </g>
  <line style="fill:none;stroke:#00AEEF;stroke-width:0.5;opacity:1.0;" x1="793.197" x2="793.197" y1="1919" y2="1933"/>
  <text style="stroke:none;fill:black;font-family:sans-serif;font-size:13;font-weight:bold;" transform="matrix(1 0 0 1 776 1953)">Margins</text>
  <text style="stroke:none;fill:black;font-family:sans-serif;font-size:13;" transform="matrix(1 0 0 1 776 1971)">Leading and trailing margins on the left and right side of each symbol</text>
  <text style="stroke:none;fill:black;font-family:sans-serif;font-size:13;" transform="matrix(1 0 0 1 776 1989)">can be adjusted by modifying the x-location of the margin guidelines.</text>
  <text style="stroke:none;fill:black;font-family:sans-serif;font-size:13;" transform="matrix(1 0 0 1 776 2007)">Modifications are automatically applied proportionally to all</text>
  <text style="stroke:none;fill:black;font-family:sans-serif;font-size:13;" transform="matrix(1 0 0 1 776 2025)">scales and weights.</text>
  <g transform="matrix(1 0 0 1 1289 1933)">
   <path d="M2.8418 1.86523L4.54102 3.57422Q5.18555 4.22852 5.90332 4.17969Q6.62109 4.13086 7.31445 3.35938L18.0078-8.42773L17.041-9.4043L6.42578 2.27539Q6.16211 2.57812 5.89355 2.61719Q5.625 2.65625 5.27344 2.30469L4.10156 1.14258Q3.75 0.791016 3.79395 0.522461Q3.83789 0.253906 4.14062-0.0195312L15.6152-10.8203L14.6387-11.7871L3.04688-0.898438Q2.30469-0.214844 2.25098 0.498047Q2.19727 1.21094 2.8418 1.86523ZM9.25781-16.3281Q8.94531-16.0254 8.90625-15.6348Q8.86719-15.2441 9.04297-14.9512Q9.21875-14.6777 9.55566-14.541Q9.89258-14.4043 10.3809-14.5215Q11.4746-14.7754 12.5977-14.7314Q13.7207-14.6875 14.7949-13.9844L14.209-12.5293Q13.9551-11.9043 14.0674-11.4404Q14.1797-10.9766 14.5801-10.5664L16.875-8.25195Q17.2363-7.88086 17.5781-7.82227Q17.9199-7.76367 18.3398-7.8418L19.4043-8.03711L20.0684-7.36328L20.0293-6.80664Q20-6.43555 20.1221-6.12305Q20.2441-5.81055 20.6055-5.44922L21.3672-4.70703Q21.7285-4.3457 22.1533-4.33105Q22.5781-4.31641 22.9297-4.66797L25.8398-7.58789Q26.1914-7.93945 26.1816-8.35449Q26.1719-8.76953 25.8105-9.13086L25.0391-9.89258Q24.6875-10.2539 24.3799-10.3857Q24.0723-10.5176 23.7109-10.4883L23.1348-10.4395L22.4902-11.0742L22.7344-12.1973Q22.832-12.6172 22.6953-12.9834Q22.5586-13.3496 22.1191-13.7891L19.9219-15.9766Q18.6719-17.2168 17.2607-17.8369Q15.8496-18.457 14.4189-18.4814Q12.9883-18.5059 11.665-17.959Q10.3418-17.4121 9.25781-16.3281ZM10.752-15.957Q11.6602-16.6211 12.7002-16.9043Q13.7402-17.1875 14.8047-17.085Q15.8691-16.9824 16.8701-16.5137Q17.8711-16.0449 18.7012-15.2051L21.1328-12.793Q21.3086-12.6172 21.3525-12.4512Q21.3965-12.2852 21.3379-12.0312L21.0156-10.5469L22.5195-9.0625L23.5059-9.12109Q23.6914-9.13086 23.7891-9.09668Q23.8867-9.0625 24.0332-8.91602L24.6094-8.33984L22.168-5.89844L21.5918-6.47461Q21.4453-6.62109 21.4062-6.71875Q21.3672-6.81641 21.377-7.01172L21.4453-7.98828L19.9512-9.47266L18.4277-9.21875Q18.1836-9.16992 18.042-9.2041Q17.9004-9.23828 17.7148-9.41406L15.7129-11.416Q15.5176-11.5918 15.4932-11.7529Q15.4688-11.9141 15.5859-12.1875L16.4648-14.2773Q15.293-15.3711 13.8281-15.791Q12.3633-16.2109 10.8398-15.7617Q10.7227-15.7324 10.6885-15.8057Q10.6543-15.8789 10.752-15.957Z"/>
  </g>
  <text style="stroke:none;fill:black;font-family:sans-serif;font-size:13;font-weight:bold;" transform="matrix(1 0 0 1 1289 1953)">Exporting</text>
  <text style="stroke:none;fill:black;font-family:sans-serif;font-size:13;" transform="matrix(1 0 0 1 1289 1971)">Symbols should be outlined when exporting to ensure the</text>
  <text style="stroke:none;fill:black;font-family:sans-serif;font-size:13;" transform="matrix(1 0 0 1 1289 1989)">design is preserved when submitting to Xcode.</text>
  <text id="template-version" style="stroke:none;fill:black;font-family:sans-serif;font-size:13;text-anchor:end;" transform="matrix(1 0 0 1 3036 1933)">Template v.2.0</text>
  <text style="stroke:none;fill:black;font-family:sans-serif;font-size:13;text-anchor:end;" transform="matrix(1 0 0 1 3036 1951)">Requires Xcode 12 or greater</text>
  <text id="descriptive-name" style="stroke:none;fill:black;font-family:sans-serif;font-size:13;text-anchor:end;" transform="matrix(1 0 0 1 3036 1969)">Generated from figure.highintensity.intervaltraining</text>
  <text style="stroke:none;fill:black;font-family:sans-serif;font-size:13;text-anchor:end;" transform="matrix(1 0 0 1 3036 1987)">Typeset at 100 points</text>
  <text style="stroke:none;fill:black;font-family:sans-serif;font-size:13;" transform="matrix(1 0 0 1 263 726)">Small</text>
  <text style="stroke:none;fill:black;font-family:sans-serif;font-size:13;" transform="matrix(1 0 0 1 263 1156)">Medium</text>
  <text style="stroke:none;fill:black;font-family:sans-serif;font-size:13;" transform="matrix(1 0 0 1 263 1586)">Large</text>
 </g>
 <g id="Guides">
  <g id="H-reference" style="fill:#27AAE1;stroke:none;" transform="matrix(1 0 0 1 339 696)">
   <path d="M0.993347 0L3.6377 0L29.3282-67.1326L30.0301-67.1326L30.0301-70.459L28.1227-70.459ZM11.6882-24.4797L46.9818-24.4797L46.2311-26.7288L12.4382-26.7288ZM55.1193 0L57.7637 0L30.6381-70.459L29.4327-70.459L29.4327-67.1326Z"/>
  </g>
  <line id="Baseline-S" style="fill:none;stroke:#27AAE1;opacity:1;stroke-width:0.5;" x1="263" x2="3036" y1="696" y2="696"/>
  <line id="Capline-S" style="fill:none;stroke:#27AAE1;opacity:1;stroke-width:0.5;" x1="263" x2="3036" y1="625.541" y2="625.541"/>
  <g id="H-reference" style="fill:#27AAE1;stroke:none;" transform="matrix(1 0 0 1 339 1126)">
   <path d="M0.993347 0L3.6377 0L29.3282-67.1326L30.0301-67.1326L30.0301-70.459L28.1227-70.459ZM11.6882-24.4797L46.9818-24.4797L46.2311-26.7288L12.4382-26.7288ZM55.1193 0L57.7637 0L30.6381-70.459L29.4327-70.459L29.4327-67.1326Z"/>
  </g>
  <line id="Baseline-M" style="fill:none;stroke:#27AAE1;opacity:1;stroke-width:0.5;" x1="263" x2="3036" y1="1126" y2="1126"/>
  <line id="Capline-M" style="fill:none;stroke:#27AAE1;opacity:1;stroke-width:0.5;" x1="263" x2="3036" y1="1055.54" y2="1055.54"/>
  <g id="H-reference" style="fill:#27AAE1;stroke:none;" transform="matrix(1 0 0 1 339 1556)">
   <path d="M0.993347 0L3.6377 0L29.3282-67.1326L30.0301-67.1326L30.0301-70.459L28.1227-70.459ZM11.6882-24.4797L46.9818-24.4797L46.2311-26.7288L12.4382-26.7288ZM55.1193 0L57.7637 0L30.6381-70.459L29.4327-70.459L29.4327-67.1326Z"/>
  </g>
  <line id="Baseline-L" style="fill:none;stroke:#27AAE1;opacity:1;stroke-width:0.5;" x1="263" x2="3036" y1="1556" y2="1556"/>
  <line id="Capline-L" style="fill:none;stroke:#27AAE1;opacity:1;stroke-width:0.5;" x1="263" x2="3036" y1="1485.54" y2="1485.54"/>
  <line id="left-margin" style="fill:none;stroke:#00AEEF;stroke-width:0.5;opacity:1.0;" x1="1401.36" x2="1401.36" y1="1030.79" y2="1150.12"/>
  <line id="right-margin" style="fill:none;stroke:#00AEEF;stroke-width:0.5;opacity:1.0;" x1="1498.33" x2="1498.33" y1="1030.79" y2="1150.12"/>
 </g>
 <g id="Symbols">
  <g id="Black-L" transform="matrix(1 0 0 1 2867.32 1556)">
   <path d="M71.822-88.7507Q78.2464-88.7507 82.7694-93.3134Q87.2925-97.8761 87.2925-104.263Q87.2925-110.687 82.7694-115.21Q78.2464-119.733 71.822-119.733Q65.4353-119.733 60.8726-115.21Q56.3099-110.687 56.3099-104.263Q56.3099-97.8761 60.8726-93.3134Q65.4353-88.7507 71.822-88.7507ZM86.4082-48.2366Q88.8239-45.8197 92.6278-46.0499Q96.4317-46.2802 98.5489-49.5937L114.652-75.3277Q116.828-78.7813 115.85-81.6862Q114.873-84.5911 112.237-86.1576Q109.601-87.7241 106.546-87.2746Q103.491-86.8251 101.455-83.5908L90.5623-66.0859L82.4874-74.2401Q75.7349-81.0509 67.9012-82.8646Q60.0675-84.6782 49.8266-83.5547L26.3188-80.9277Q23.6254-80.628 21.7383-78.7118Q19.8513-76.7955 19.4932-74.1813L16.1644-48.2073Q15.7039-44.5345 17.77-42.3081Q19.836-40.0818 22.8803-39.6329Q25.9246-39.184 28.4908-40.8012Q31.057-42.4184 31.5747-46.3521L34.0861-66.1739L45.4459-67.4218Q46.3214-67.5231 46.6357-67.1879Q46.95-66.8528 46.7892-65.8373L43.6796-40.447Q42.5185-30.8767 47.6508-25.594Q52.783-20.3114 62.2157-20.9911L84.9263-22.6191L78.1146 2.29684Q77.0559 6.17334 78.7827 8.68831Q80.5095 11.2033 83.485 11.9623Q86.4604 12.7212 89.2849 11.3927Q92.1093 10.0642 93.0888 6.29015L102.616-29.0282Q103.694-33.0007 101.348-35.9062Q99.0015-38.8116 94.6865-38.8116L70.9392-38.8116L73.8736-59.1277Q73.998-59.9536 74.3628-59.997Q74.7276-60.0404 75.3774-59.3686ZM50.0244-15.1505L48.6144 6.16541L36.2774 37.0171Q34.3793 41.8498 37.0143 44.9453Q39.6493 48.0408 43.3222 48.0408Q45.5199 48.0408 47.5963 46.7227Q49.6728 45.4046 50.8119 42.5283L63.507 10.6996Q63.6459 10.2987 63.7665 9.84983Q63.8871 9.40094 63.9675 8.96124L67.27-13.7338L62.7542-13.4341Q55.7406-12.9956 50.0244-15.1505Z"/>
  </g>
  <g id="Heavy-L" transform="matrix(1 0 0 1 2571.52 1556)">
   <path d="M70.8364-88.4063Q77.0782-88.4063 81.4711-92.8366Q85.864-97.267 85.864-103.494Q85.864-109.736 81.4711-114.129Q77.0782-118.522 70.8364-118.522Q64.6091-118.522 60.1787-114.129Q55.7484-109.736 55.7484-103.494Q55.7484-97.267 60.1787-92.8366Q64.6091-88.4063 70.8364-88.4063ZM85.4257-48.7933Q87.7318-46.4817 91.3616-46.705Q94.9915-46.9284 97.0173-50.0864L112.908-75.5088Q114.978-78.7975 114.049-81.5697Q113.119-84.342 110.605-85.8283Q108.091-87.3147 105.173-86.8858Q102.255-86.457 100.315-83.3737L89.3968-65.8188L81.1869-74.1035Q74.5662-80.7688 66.8941-82.5507Q59.222-84.3327 49.1625-83.218L25.9393-80.6224Q23.3833-80.3365 21.5809-78.5118Q19.7785-76.6871 19.448-74.2058L16.1644-48.5479Q15.7177-45.0536 17.6853-42.928Q19.653-40.8023 22.5531-40.3763Q25.4532-39.9503 27.9049-41.492Q30.3567-43.0336 30.8424-46.7935L33.3544-66.5552L44.7764-67.8218Q45.7395-67.9324 46.1481-67.4937Q46.5567-67.0549 46.3958-65.961L43.3177-40.8963Q42.1887-31.5674 47.1656-26.4447Q52.1426-21.3221 61.3519-21.9742L84.1275-23.6071L77.3097 1.33727Q76.2969 5.05827 77.9412 7.45196Q79.5855 9.84564 82.4259 10.5726Q85.2663 11.2996 87.9581 10.026Q90.65 8.7523 91.588 5.14752L100.998-29.7234Q102.035-33.5034 99.7917-36.2785Q97.5482-39.0536 93.4162-39.0536L69.6636-39.0536L72.6078-59.4064Q72.7598-60.3933 73.2972-60.4621Q73.8346-60.5309 74.5351-59.7945ZM49.6317-16.4199L48.1985 5.14245L35.9966 35.6421Q34.1763 40.2598 36.6878 43.218Q39.1993 46.1761 42.6934 46.1761Q44.7996 46.1761 46.7823 44.9176Q48.7651 43.6591 49.8583 40.9064L62.3907 9.47984Q62.5158 9.0833 62.6364 8.65731Q62.757 8.23131 62.8375 7.81473L66.1862-15.0764L61.8679-14.7906Q55.1283-14.3796 49.6317-16.4199Z"/>
  </g>
  <g id="Bold-L" transform="matrix(1 0 0 1 2275.98 1556)">
   <path d="M69.5626-87.8792Q75.5813-87.8792 79.8166-92.1481Q84.0519-96.417 84.0519-102.445Q84.0519-108.463 79.8166-112.699Q75.5813-116.934 69.5626-116.934Q63.5349-116.934 59.266-112.699Q54.9971-108.463 54.9971-102.445Q54.9971-96.417 59.266-92.1481Q63.5349-87.8792 69.5626-87.8792ZM84.1072-49.3357Q86.2825-47.1472 89.7084-47.3629Q93.1343-47.5785 95.0523-50.5519L110.652-75.5454Q112.599-78.6415 111.727-81.2561Q110.855-83.8707 108.483-85.2646Q106.112-86.6585 103.355-86.2528Q100.599-85.8471 98.7745-82.9408L87.8628-65.3914L79.5287-73.7928Q73.0769-80.2738 65.6083-82.0136Q58.1398-83.7535 48.3179-82.654L25.4855-80.1043Q23.0911-79.8338 21.3887-78.1169Q19.6864-76.3999 19.3867-74.0726L16.1644-48.8512Q15.7331-45.5648 17.5853-43.5585Q19.4375-41.5521 22.1682-41.1531Q24.899-40.7541 27.2161-42.2071Q29.5331-43.6602 29.9805-47.2124L32.4849-66.8452L43.9391-68.1273Q44.9949-68.2458 45.5076-67.6951Q46.0203-67.1445 45.8595-65.9657L42.8272-41.3453Q41.7367-32.3161 46.5252-27.3857Q51.3138-22.4553 60.2465-23.0767L83.0171-24.7096L76.214 0.183545Q75.2551 3.71989 76.8031 5.97122Q78.3512 8.22254 81.0337 8.91108Q83.7163 9.59962 86.2504 8.39132Q88.7846 7.18301 89.6764 3.7783L98.9251-30.4797Q99.909-34.0364 97.7886-36.6575Q95.6681-39.2787 91.7517-39.2787L68.0733-39.2787L71.0179-59.6032Q71.2008-60.7674 71.9272-60.8633Q72.6537-60.9591 73.4081-60.1532ZM49.0879-17.8907L47.6314 3.90445L35.6209 33.914Q33.893 38.2778 36.2583 41.0743Q38.6236 43.8708 41.9097 43.8708Q43.9082 43.8708 45.7794 42.6815Q47.6506 41.4923 48.69 38.8858L61.0001 8.01093Q61.1098 7.62194 61.2304 7.22292Q61.351 6.82389 61.4314 6.43047L64.8266-16.6319L60.7318-16.3614Q54.323-15.9813 49.0879-17.8907Z"/>
  </g>
  <g id="Semibold-L" transform="matrix(1 0 0 1 1980.08 1556)">
   <path d="M68.6844-87.5158Q74.5494-87.5158 78.676-91.6734Q82.8026-95.831 82.8026-101.721Q82.8026-107.586 78.676-111.713Q74.5494-115.84 68.6844-115.84Q62.7944-115.84 58.6367-111.713Q54.4791-107.586 54.4791-101.721Q54.4791-95.831 58.6367-91.6734Q62.7944-87.5158 68.6844-87.5158ZM83.1982-49.7096Q85.2834-47.6061 88.5686-47.8164Q91.8539-48.0267 93.6976-50.8728L109.097-75.5706Q110.959-78.534 110.127-81.0399Q109.294-83.5458 107.021-84.876Q104.747-86.2062 102.102-85.8164Q99.4572-85.4267 97.7125-82.6424L86.8052-65.0969L78.3855-73.5786Q72.0502-79.9326 64.7219-81.6434Q57.3936-83.3541 47.7357-82.2652L25.1726-79.7471Q22.8896-79.4873 21.2562-77.8446Q19.6229-76.2019 19.3444-73.9808L16.1644-49.0604Q15.7437-45.9172 17.5163-43.9931Q19.2889-42.069 21.903-41.6886Q24.517-41.3081 26.7412-42.7001Q28.9653-44.0921 29.3862-47.5011L31.8855-67.0452L43.3619-68.3379Q44.4816-68.4619 45.0661-67.834Q45.6505-67.2062 45.4897-65.9688L42.489-41.6549Q41.4251-32.8322 46.0838-28.0344Q50.7425-23.2366 59.4845-23.8367L82.2516-25.4697L75.4586-0.611828Q74.5369 2.79722 76.0186 4.9504Q77.5003 7.10359 80.074 7.76562Q82.6477 8.42765 85.0731 7.2644Q87.4986 6.10115 88.3585 2.83437L97.4963-31.0011Q98.4432-34.4038 96.4076-36.9189Q94.372-39.4339 90.6042-39.4339L66.9769-39.4339L69.9218-59.7388Q70.1259-61.0253 70.9827-61.1398Q71.8395-61.2544 72.6312-60.4005ZM48.7131-18.9046L47.2405 3.05099L35.362 32.7226Q33.6977 36.9114 35.9622 39.5965Q38.2267 42.2815 41.3695 42.2815Q43.2936 42.2815 45.088 41.14Q46.8823 39.9985 47.8845 37.4929L60.0415 6.99827Q60.1404 6.61449 60.2611 6.23406Q60.3817 5.85363 60.4621 5.47617L63.8894-17.7042L59.9486-17.4444Q53.7678-17.0856 48.7131-18.9046Z"/>
  </g>
  <g id="Medium-L" transform="matrix(1 0 0 1 1683.98 1556)">
   <path d="M68.0185-87.2402Q73.767-87.2402 77.8112-91.3135Q81.8553-95.3867 81.8553-101.172Q81.8553-106.921 77.8112-110.965Q73.767-115.01 68.0185-115.01Q62.2329-115.01 58.1596-110.965Q54.0864-106.921 54.0864-101.172Q54.0864-95.3867 58.1596-91.3135Q62.2329-87.2402 68.0185-87.2402ZM82.5089-49.9931Q84.5259-47.954 87.7044-48.1603Q90.883-48.3666 92.6704-51.1162L107.917-75.5898Q109.715-78.4525 108.913-80.876Q108.111-83.2995 105.912-84.5813Q103.713-85.8632 101.152-85.4855Q98.5917-85.1079 96.9073-82.4161L86.0033-64.8735L77.5188-73.4162Q71.2716-79.6739 64.0498-81.3626Q56.8279-83.0514 47.2942-81.9704L24.9353-79.4763Q22.7369-79.2245 21.1558-77.6381Q19.5747-76.0518 19.3124-73.9112L16.1644-49.219Q15.7518-46.1844 17.464-44.3227Q19.1763-42.4609 21.7018-42.0946Q24.2273-41.7282 26.3811-43.074Q28.5348-44.4197 28.9357-47.7201L31.431-67.1968L42.9242-68.4976Q44.0924-68.6257 44.7313-67.9394Q45.3701-67.253 45.2093-65.9713L42.2326-41.8896Q41.1888-33.2235 45.749-28.5263Q50.3092-23.829 58.9067-24.413L81.6711-26.046L74.8858-1.21491Q73.9923 2.09761 75.4237 4.17638Q76.8551 6.25515 79.3463 6.89708Q81.8374 7.53901 84.1805 6.40992Q86.5235 5.28084 87.3593 2.11864L96.4129-31.3965Q97.3318-34.6824 95.3606-37.117Q93.3893-39.5516 89.7341-39.5516L66.1456-39.5516L69.0907-59.8417Q69.311-61.2209 70.2666-61.3495Q71.2222-61.4782 72.0421-60.588ZM48.4288-19.6735L46.9441 2.40385L35.1656 31.8193Q33.5496 35.8754 35.7376 38.4759Q37.9257 41.0764 40.9598 41.0764Q42.8277 41.0764 44.5637 39.9711Q46.2998 38.8659 47.2737 36.4367L59.3145 6.23044Q59.4055 5.8506 59.5261 5.48427Q59.6467 5.11793 59.7272 4.75258L63.1787-18.5173L59.3548-18.2655Q53.3469-17.9228 48.4288-19.6735Z"/>
  </g>
  <g id="Regular-L" transform="matrix(1 0 0 1 1388.06 1556)">
   <path d="M67.15-86.8808Q72.7464-86.8808 76.6831-90.844Q80.6198-94.8072 80.6198-100.457Q80.6198-106.053 76.6831-109.99Q72.7464-113.927 67.15-113.927Q61.5005-113.927 57.5373-109.99Q53.5741-106.053 53.5741-100.457Q53.5741-94.8072 57.5373-90.844Q61.5005-86.8808 67.15-86.8808ZM81.6099-50.363Q83.5377-48.4078 86.5772-48.6088Q89.6167-48.8099 91.3307-51.4335L106.379-75.6147Q108.093-78.3462 107.33-80.6622Q106.567-82.9781 104.465-84.197Q102.363-85.4158 99.9129-85.054Q97.4627-84.6921 95.857-82.1209L84.9574-64.5821L76.3882-73.2044Q70.2562-79.3364 63.1731-80.9964Q56.09-82.6564 46.7184-81.5859L24.6258-79.123Q22.5377-78.8818 21.0248-77.3689Q19.5119-75.856 19.2706-73.8203L16.1644-49.4258Q15.7623-46.533 17.3958-44.7525Q19.0294-42.9721 21.4394-42.6242Q23.8495-42.2762 25.9114-43.5616Q27.9733-44.8469 28.348-48.0057L30.8382-67.3945L42.3533-68.7059Q43.5847-68.8394 44.2946-68.0767Q45.0044-67.3141 44.8436-65.9744L41.8982-42.1958Q40.8806-33.7339 45.3124-29.1678Q49.7441-24.6017 58.153-25.1647L80.914-26.7977L74.1387-2.00155Q73.282 1.18508 74.6477 3.16678Q76.0135 5.14849 78.3971 5.7642Q80.7806 6.37991 83.0161 5.29539Q85.2517 4.21087 86.0559 1.18508L94.9998-31.9121Q95.8821-35.0458 93.9948-37.3754Q92.1074-39.7051 88.5991-39.7051L65.0613-39.7051L68.0067-59.9758Q68.248-61.4759 69.3325-61.6231Q70.417-61.7702 71.2737-60.8326ZM48.0581-20.6763L46.5575 1.55976L34.9095 30.641Q33.3564 34.524 35.4448 37.0143Q37.5332 39.5046 40.4255 39.5046Q42.2199 39.5046 43.8799 38.4465Q45.5399 37.3885 46.4771 35.0591L58.3664 5.22891Q58.4468 4.85422 58.5675 4.50627Q58.6881 4.15833 58.7685 3.80877L62.2517-19.5778L58.5802-19.3366Q52.7978-19.0149 48.0581-20.6763Z"/>
  </g>
  <g id="Light-L" transform="matrix(1 0 0 1 1092.45 1556)">
   <path d="M65.9286-85.8692Q71.3913-85.8692 75.2421-89.7369Q79.0928-93.6047 79.0928-99.1016Q79.0928-104.564 75.2421-108.415Q71.3913-112.267 65.9286-112.267Q60.4317-112.267 56.564-108.415Q52.6962-104.564 52.6962-99.1016Q52.6962-93.6047 56.564-89.7369Q60.4317-85.8692 65.9286-85.8692ZM80.0448-49.7903Q81.9155-47.8732 84.8882-48.0743Q87.8608-48.2753 89.5366-50.8227L104.204-74.4315Q105.879-77.1056 105.145-79.3549Q104.411-81.6041 102.356-82.8039Q100.302-84.0037 97.909-83.6418Q95.516-83.2799 93.9677-80.7658L83.316-63.666L74.9378-72.0783Q68.9585-78.0576 62.0376-79.67Q55.1168-81.2824 45.993-80.25L24.4158-77.8635Q22.385-77.6222 20.9103-76.1475Q19.4356-74.6727 19.1943-72.6753L16.1644-48.8723Q15.7623-46.0366 17.3577-44.3039Q18.953-42.5713 21.3059-42.233Q23.6587-41.8946 25.6728-43.1513Q27.6869-44.4079 28.0427-47.4711L30.4756-66.4214L41.7235-67.6943Q42.9168-67.8088 43.617-67.0749Q44.3173-66.3409 44.1564-65.0201L41.2874-41.8142Q40.289-33.5621 44.6158-29.0915Q48.9425-24.621 57.1606-25.1839L79.3682-26.7785L72.7454-2.57424Q71.9079 0.536072 73.245 2.47016Q74.5821 4.40425 76.9179 5.00088Q79.2537 5.59751 81.4225 4.54153Q83.5913 3.48554 84.3955 0.536072L93.1294-31.7595Q93.9547-34.8357 92.1246-37.1082Q90.2945-39.3806 86.8625-39.3806L63.897-39.3806L66.7661-59.1553Q67.0073-60.6361 68.0633-60.7738Q69.1193-60.9115 69.9568-59.9928ZM47.3138-21.039L45.8322 0.891837L34.4705 29.2859Q32.9556 33.0737 34.9867 35.5066Q37.0179 37.9394 39.8528 37.9394Q41.609 37.9394 43.2214 36.9005Q44.8339 35.8615 45.7518 33.5895L57.3547 4.48467Q57.4352 4.1289 57.5558 3.79057Q57.6764 3.45224 57.7568 3.08344L61.2019-19.9594L57.5497-19.7182Q51.9391-19.3965 47.3138-21.039Z"/>
  </g>
  <g id="Thin-L" transform="matrix(1 0 0 1 797.19 1556)">
   <path d="M64.3132-84.5311Q69.5991-84.5311 73.3362-88.2728Q77.0733-92.0144 77.0733-97.3094Q77.0733-102.595 73.3362-106.333Q69.5991-110.071 64.3132-110.071Q59.0182-110.071 55.2766-106.333Q51.535-102.595 51.535-97.3094Q51.535-92.0144 55.2766-88.2728Q59.0182-84.5311 64.3132-84.5311ZM77.9748-49.0328Q79.7701-47.1663 82.6543-47.3673Q85.5385-47.5684 87.1638-50.0148L101.326-72.8666Q102.951-75.4648 102.255-77.6258Q101.558-79.7869 99.5671-80.9614Q97.576-82.136 95.2586-81.7741Q92.9413-81.4122 91.469-78.9736L81.145-62.4544L73.0197-70.5888Q67.2422-76.3663 60.5359-77.9158Q53.8297-79.4652 45.0337-78.4832L24.138-76.1976Q22.1832-75.9564 20.7589-74.5321Q19.3346-73.1078 19.0934-71.1608L16.1644-48.1404Q15.7623-45.3801 17.3072-43.7106Q18.8521-42.0412 21.1292-41.7156Q23.4064-41.39 25.3573-42.6087Q27.3082-43.8273 27.639-46.7642L29.9959-65.1342L40.8906-66.3562Q42.0334-66.4457 42.7209-65.7498Q43.4084-65.0538 43.2476-63.758L40.4795-41.3096Q39.5066-33.3347 43.6944-28.9906Q47.8823-24.6464 55.848-25.2094L77.3236-26.753L70.9028-3.33167Q70.0907-0.322293 71.3898 1.54882Q72.6889 3.41993 74.9615 3.99133Q77.2341 4.56273 79.3147 3.54448Q81.3954 2.52624 82.1996-0.322293L90.6557-31.5576Q91.4055-34.558 89.651-36.7547Q87.8966-38.9514 84.5656-38.9514L62.3572-38.9514L65.1253-58.07Q65.3665-59.5254 66.3848-59.6506Q67.403-59.7758 68.2151-58.8821ZM46.3295-21.5186L44.8729 0.00845138L33.8899 27.4937Q32.4254 31.1555 34.3809 33.5125Q36.3364 35.8694 39.0954 35.8694Q40.8011 35.8694 42.3506 34.8557Q43.9 33.842 44.7925 31.6459L56.0167 3.50035Q56.0971 3.1696 56.2178 2.844Q56.3384 2.51839 56.4188 2.12414L59.8134-20.4641L56.1866-20.2228Q50.8034-19.9011 46.3295-21.5186Z"/>
  </g>
  <g id="Ultralight-L" transform="matrix(1 0 0 1 501.223 1556)">
   <path d="M63.4858-83.8458Q68.6812-83.8458 72.36-87.5228Q76.0389-91.1998 76.0389-96.3914Q76.0389-101.587 72.36-105.266Q68.6812-108.946 63.4858-108.946Q58.2943-108.946 54.6173-105.266Q50.9403-101.587 50.9403-96.3914Q50.9403-91.1998 54.6173-87.5228Q58.2943-83.8458 63.4858-83.8458ZM76.9146-48.6449Q78.6711-46.8042 81.5101-47.0052Q84.349-47.2063 85.9485-49.601L99.8522-72.065Q101.452-74.6244 100.774-76.7402Q100.097-78.8561 98.1385-80.0177Q96.1797-81.1793 93.9011-80.8175Q91.6226-80.4556 90.1891-78.0556L80.0331-61.8338L72.0372-69.826Q66.3631-75.5001 59.7668-77.0172Q53.1704-78.5344 44.5424-77.5783L23.9957-75.3444Q22.0798-75.1031 20.6813-73.7047Q19.2829-72.3063 19.0417-70.3852L16.1644-47.7654Q15.7623-45.0438 17.2814-43.4068Q18.8004-41.7697 21.0388-41.4506Q23.2771-41.1315 25.1957-42.3307Q27.1142-43.53 27.4322-46.4021L29.7502-64.475L40.464-65.6709Q41.581-65.7476 42.2619-65.0711Q42.9429-64.3946 42.7821-63.1116L40.0657-41.0511Q39.1058-33.2183 43.2225-28.9389Q47.3392-24.6595 55.1757-25.2224L76.2764-26.74L69.9589-3.71962Q69.1599-0.761943 70.4396 1.07691Q71.7193 2.91576 73.9595 3.47424Q76.1997 4.03271 78.2352 3.0338Q80.2706 2.0349 81.0748-0.761943L89.3887-31.4542Q90.0998-34.4157 88.3841-36.5736Q86.6685-38.7316 83.3891-38.7316L61.5684-38.7316L64.2849-57.5142Q64.5261-58.9565 65.525-59.0753Q66.5239-59.1941 67.3229-58.3132ZM45.8254-21.7643L44.3816-0.444015L33.5925 26.5758Q32.1539 30.173 34.0706 32.4911Q35.9873 34.8092 38.7075 34.8092Q40.3873 34.8092 41.9045 33.8084Q43.4217 32.8076 44.3011 30.6504L55.3314 2.99618Q55.4118 2.67825 55.5324 2.35916Q55.6531 2.04007 55.7335 1.6328L59.1022-20.7226L55.4885-20.4813Q50.2217-20.1596 45.8254-21.7643Z"/>
  </g>
  <g id="Black-M" transform="matrix(1 0 0 1 2881.58 1126)">
   <path d="M56.3251-76.8535Q61.4411-76.8535 65.0456-80.4892Q68.65-84.125 68.65-89.1893Q68.65-94.3053 65.0456-97.9097Q61.4411-101.514 56.3251-101.514Q51.2608-101.514 47.625-97.9097Q43.9893-94.3053 43.9893-89.1893Q43.9893-84.125 47.625-80.4892Q51.2608-76.8535 56.3251-76.8535ZM67.5763-44.7506Q69.5345-42.7928 72.622-42.9771Q75.7094-43.1614 77.4233-45.8519L90.0299-65.9794Q91.8009-68.7889 91.0061-71.1444Q90.2113-73.4998 88.0716-74.7799Q85.9319-76.0599 83.4546-75.6939Q80.9773-75.3279 79.3255-72.7L70.9417-59.2407L64.8276-65.4174Q59.5036-70.7985 53.3176-72.2244Q47.1316-73.6503 39.0752-72.7775L20.6879-70.7255Q18.4909-70.4815 16.9614-68.9234Q15.4319-67.3653 15.1308-65.2309L12.5232-44.9162Q12.1546-41.925 13.8347-40.1201Q15.5148-38.3153 17.9895-37.9491Q20.4642-37.583 22.5442-38.8969Q24.6242-40.2108 25.0502-43.3948L26.9877-58.7439L35.6989-59.6895Q36.2967-59.7572 36.4579-59.5905Q36.6191-59.4238 36.4945-58.707L34.0687-38.8339Q33.1443-31.2402 37.2396-27.023Q41.3349-22.8058 48.8089-23.3561L66.2731-24.608L61.0216-5.40918Q60.1646-2.28259 61.5694-0.236348Q62.9742 1.8099 65.3891 2.42281Q67.804 3.03573 70.0971 1.9632Q72.3903 0.890673 73.1846-2.1684L80.6382-29.8069Q81.5009-33.0422 79.6025-35.3975Q77.704-37.7528 74.214-37.7528L55.8982-37.7528L58.1527-53.3936Q58.2254-53.8926 58.3559-53.9031Q58.4863-53.9137 58.9436-53.4512ZM38.9927-18.6317L37.9229-2.37046L28.2874 21.741Q26.7553 25.657 28.8951 28.1655Q31.035 30.674 34.0263 30.674Q35.8024 30.674 37.4853 29.6042Q39.1681 28.5344 40.0873 26.2076L50.0239 1.30124Q50.1433 0.989436 50.2367 0.623278Q50.3302 0.257119 50.3925-0.106007L52.9061-17.4737L49.2404-17.2297Q43.5944-16.8662 38.9927-18.6317Z"/>
  </g>
  <g id="Heavy-M" transform="matrix(1 0 0 1 2585.65 1126)">
   <path d="M55.4743-76.6102Q60.4242-76.6102 63.9093-80.1253Q67.3944-83.6405 67.3944-88.5631Q67.3944-93.513 63.9093-96.9981Q60.4242-100.483 55.4743-100.483Q50.5517-100.483 47.0365-96.9981Q43.5214-93.513 43.5214-88.5631Q43.5214-83.6405 47.0365-80.1253Q50.5517-76.6102 55.4743-76.6102ZM66.7603-45.3477Q68.6165-43.4892 71.54-43.6668Q74.4636-43.8444 76.0915-46.3899L88.5257-66.2655Q90.1972-68.9192 89.4467-71.1512Q88.6962-73.3831 86.6707-74.5865Q84.6452-75.7899 82.2968-75.4441Q79.9485-75.0983 78.3852-72.6128L69.9538-59.0641L63.6901-65.3878Q58.4809-70.6406 52.4379-72.04Q46.3949-73.4393 38.4929-72.5715L20.3363-70.5433Q18.2684-70.3127 16.8181-68.8406Q15.3677-67.3685 15.0936-65.3605L12.5232-45.3002Q12.1681-42.4783 13.7555-40.7675Q15.3429-39.0566 17.6819-38.7119Q20.0209-38.3673 21.9935-39.61Q23.966-40.8527 24.3625-43.8757L26.3058-59.2064L35.1025-60.1738Q35.7895-60.2525 36.0437-59.9818Q36.298-59.7112 36.1734-58.916L33.7713-39.3083Q32.8764-31.9313 36.8296-27.8617Q40.7829-23.792 48.0561-24.3154L65.6348-25.5756L60.3633-6.29439Q59.5494-3.31277 60.8762-1.3807Q62.203 0.551365 64.4902 1.13477Q66.7774 1.71818 68.9471 0.696639Q71.1168-0.324902 71.8707-3.22553L79.2288-30.5006Q80.0569-33.5531 78.2537-35.7862Q76.4505-38.0193 73.1325-38.0193L54.7586-38.0193L57.0298-53.7419Q57.1295-54.3999 57.4313-54.4361Q57.733-54.4724 58.2416-53.9451ZM38.6774-19.8391L37.5832-3.30886L28.0535 20.5219Q26.5938 24.2365 28.6182 26.616Q30.6426 28.9955 33.4645 28.9955Q35.1546 28.9955 36.7503 27.9822Q38.3459 26.9689 39.2221 24.7576L49.0259 0.177454Q49.1319-0.131816 49.2253-0.476473Q49.3188-0.82113 49.3811-1.15988L51.9435-18.751L48.469-18.5205Q43.0751-18.184 38.6774-19.8391Z"/>
  </g>
  <g id="Bold-M" transform="matrix(1 0 0 1 2289.82 1126)">
   <path d="M54.5225-76.338Q59.2865-76.338 62.6382-79.7182Q65.9898-83.0985 65.9898-87.8626Q65.9898-92.6266 62.6382-95.9783Q59.2865-99.33 54.5225-99.33Q49.7584-99.33 46.3781-95.9783Q42.9979-92.6266 42.9979-87.8626Q42.9979-83.0985 46.3781-79.7182Q49.7584-76.338 54.5225-76.338ZM65.8474-46.0155Q67.5895-44.2683 70.3297-44.4384Q73.0699-44.6084 74.6017-46.9917L86.8431-66.5856Q88.4033-69.0649 87.7023-71.1587Q87.0013-73.2526 85.1036-74.3702Q83.2058-75.4878 81.0017-75.1646Q78.7975-74.8414 77.3333-72.5152L68.8486-58.8665L62.4176-65.3547Q57.3368-70.4641 51.4537-71.8336Q45.5707-73.2032 37.8416-72.3412L19.9431-70.3394Q18.0194-70.124 16.6577-68.748Q15.296-67.372 15.052-65.5055L12.5232-45.7298Q12.1832-43.0973 13.6669-41.4916Q15.1506-39.8859 17.3378-39.5653Q19.5251-39.2447 21.3774-40.4077Q23.2297-41.5707 23.5933-44.4136L25.543-59.7238L34.4353-60.7155Q35.2221-60.8065 35.5804-60.4196Q35.9388-60.0326 35.8141-59.1498L33.4385-39.839Q32.5767-32.7045 36.371-28.7999Q40.1653-24.8953 47.214-25.3885L64.9207-26.658L59.6269-7.28462Q58.8611-4.46518 60.1007-2.66083Q61.3404-0.856486 63.4847-0.306084Q65.6291 0.244318 67.6607-0.72019Q69.6922-1.6847 70.4009-4.40808L77.6522-31.2766Q78.4416-34.1245 76.745-36.2209Q75.0483-38.3173 71.9226-38.3173L53.4837-38.3173L55.7737-54.1314Q55.9035-54.9674 56.3969-55.0324Q56.8904-55.0974 57.4564-54.4975ZM38.3247-21.1898L37.2031-4.35858L27.7917 19.1582Q26.4131 22.6475 28.3084 24.8827Q30.2036 27.118 32.836 27.118Q34.43 27.118 35.928 26.1678Q37.4261 25.2176 38.2542 23.1355L47.9096-1.07966Q48.0005-1.3861 48.0939-1.7067Q48.1874-2.02731 48.2497-2.3388L50.8666-20.1799L47.6061-19.9644Q42.4942-19.6581 38.3247-21.1898Z"/>
  </g>
  <g id="Semibold-M" transform="matrix(1 0 0 1 1993.72 1126)">
   <path d="M53.8664-76.1503Q58.5022-76.1503 61.7619-79.4376Q65.0215-82.7249 65.0215-87.3797Q65.0215-92.0156 61.7619-95.2753Q58.5022-98.535 53.8664-98.535Q49.2115-98.535 45.9243-95.2753Q42.637-92.0156 42.637-87.3797Q42.637-82.7249 45.9243-79.4376Q49.2115-76.1503 53.8664-76.1503ZM65.2181-46.4759Q66.8816-44.8054 69.4954-44.9703Q72.1092-45.1351 73.5746-47.4066L85.683-66.8063Q87.1666-69.1653 86.4997-71.1639Q85.8329-73.1626 84.0232-74.2211Q82.2135-75.2796 80.1088-74.9719Q78.0041-74.6643 76.6081-72.448L68.0867-58.7303L61.5404-65.3319Q56.548-70.3424 50.7753-71.6914Q45.0026-73.0405 37.3926-72.1824L19.672-70.1989Q17.8477-69.9938 16.5472-68.6842Q15.2466-67.3745 15.0233-65.6054L12.5232-46.0259Q12.1936-43.524 13.6058-41.9908Q15.018-40.4576 17.1006-40.1535Q19.1832-39.8495 20.9527-40.9576Q22.7221-42.0658 23.0629-44.7844L25.0172-60.0805L33.9754-61.089Q34.831-61.1884 35.261-60.7213Q35.6911-60.2542 35.5665-59.311L33.2092-40.2048Q32.3701-33.2375 36.0548-29.4467Q39.7396-25.6558 46.6335-26.1283L64.4285-27.4042L59.1193-7.96728Q58.3866-5.25964 59.5661-3.54334Q60.7456-1.82705 62.7916-1.2994Q64.8375-0.771755 66.7738-1.69694Q68.7101-2.62213 69.3877-5.22332L76.5653-31.8116Q77.328-34.5185 75.7048-36.5206Q74.0817-38.5228 71.0885-38.5228L52.6048-38.5228L54.9077-54.3999Q55.0583-55.3587 55.6839-55.4434Q56.3095-55.5282 56.9151-54.8784ZM38.0816-22.1209L36.9411-5.08225L27.6113 18.218Q26.2886 21.552 28.0948 23.6878Q29.9009 25.8236 32.4027 25.8236Q33.9305 25.8236 35.3612 24.917Q36.792 24.0103 37.5869 22.0173L47.14-1.94631Q47.2205-2.25079 47.314-2.55482Q47.4074-2.85884 47.4697-3.15153L50.1243-21.1649L47.0113-20.9598Q42.0937-20.6743 38.0816-22.1209Z"/>
  </g>
  <g id="Medium-M" transform="matrix(1 0 0 1 1697.47 1126)">
   <path d="M53.3688-76.008Q57.9076-76.008 61.0974-79.2248Q64.2873-82.4416 64.2873-87.0135Q64.2873-91.5523 61.0974-94.7422Q57.9076-97.9322 53.3688-97.9322Q48.7969-97.9322 45.5801-94.7422Q42.3634-91.5523 42.3634-87.0135Q42.3634-82.4416 45.5801-79.2248Q48.7969-76.008 53.3688-76.008ZM64.7409-46.825Q66.3448-45.2127 68.8627-45.3736Q71.3807-45.5345 72.7958-47.7212L84.8035-66.9736Q86.2289-69.2415 85.5879-71.1679Q84.9469-73.0943 83.204-74.108Q81.4611-75.1216 79.4318-74.8259Q77.4025-74.5301 76.0583-72.397L67.509-58.627L60.8752-65.3146Q55.95-70.2501 50.2609-71.5836Q44.5718-72.9171 37.0521-72.062L19.4665-70.0924Q17.7176-69.8952 16.4633-68.6358Q15.2091-67.3764 15.0016-65.6811L12.5232-46.2505Q12.2014-43.8476 13.5594-42.3693Q14.9175-40.891 16.9207-40.5996Q18.924-40.3081 20.6306-41.3746Q22.3373-42.4411 22.6608-45.0656L24.6184-60.3509L33.6267-61.3722Q34.5344-61.478 35.0189-60.9501Q35.5033-60.4222 35.3787-59.4332L33.0352-40.4822Q32.2134-33.6416 35.8151-29.9371Q39.4168-26.2325 46.1933-26.6892L64.0553-27.97L58.7344-8.4849Q58.0269-5.86203 59.1608-4.2125Q60.2947-2.56297 62.266-2.05258Q64.2372-1.54218 66.1014-2.43756Q67.9655-3.33293 68.6194-5.84148L75.7411-32.2173Q76.4836-34.8172 74.9162-36.7479Q73.3487-38.6786 70.456-38.6786L51.9384-38.6786L54.2511-54.6035Q54.4174-55.6553 55.1432-55.7551Q55.869-55.8549 56.5046-55.1672ZM37.8972-22.8269L36.7425-5.63097L27.4744 17.5052Q26.1942 20.7214 27.9328 22.7818Q29.6715 24.8421 32.0742 24.8421Q33.5517 24.8421 34.9314 23.9685Q36.3112 23.0949 37.081 21.1694L46.5565-2.60344Q46.6291-2.90644 46.7226-3.19789Q46.816-3.48934 46.8783-3.76779L49.5614-21.9118L46.5602-21.7146Q41.7901-21.4449 37.8972-22.8269Z"/>
  </g>
  <g id="Regular-M" transform="matrix(1 0 0 1 1401.36 1126)">
   <path d="M52.7199-75.8225Q57.1319-75.8225 60.2308-78.9473Q63.3297-82.0721 63.3297-86.5359Q63.3297-90.9479 60.2308-94.0469Q57.1319-97.1459 52.7199-97.1459Q48.256-97.1459 45.1312-94.0469Q42.0064-90.9479 42.0064-86.5359Q42.0064-82.0721 45.1312-78.9473Q48.256-75.8225 52.7199-75.8225ZM64.1185-47.2804Q65.6446-45.7438 68.0375-45.8996Q70.4304-46.0554 71.78-48.1315L83.6562-67.1919Q85.0058-69.3408 84.3985-71.1731Q83.7913-73.0053 82.1355-73.9605Q80.4796-74.9157 78.5487-74.6353Q76.6177-74.3549 75.3411-72.3304L66.7554-58.4923L60.0076-65.292Q55.1699-70.1297 49.5899-71.4429Q44.0098-72.7561 36.608-71.9049L19.1983-69.9534Q17.5478-69.7665 16.354-68.5726Q15.1602-67.3788 14.9732-65.78L12.5232-46.5433Q12.2117-44.2696 13.499-42.863Q14.7863-41.4564 16.6861-41.1814Q18.5859-40.9063 20.2106-41.9185Q21.8353-42.9307 22.1363-45.4323L24.0983-60.7037L33.1718-61.7416Q34.1475-61.8557 34.703-61.2486Q35.2584-60.6414 35.1338-59.5927L32.8084-40.844Q32.0091-34.1688 35.5024-30.5768Q38.9957-26.9848 45.6191-27.4209L63.5684-28.708L58.2323-9.16006Q57.5576-6.64776 58.6321-5.08531Q59.7065-3.52287 61.5804-3.03498Q63.4543-2.54709 65.2242-3.40358Q66.9942-4.26007 67.6173-6.64776L74.6662-32.7464Q75.3823-35.2068 73.8875-37.0443Q72.3926-38.8818 69.6311-38.8818L51.0692-38.8818L53.3946-54.8691Q53.5815-56.0423 54.438-56.1617Q55.2945-56.281 55.9692-55.5438ZM37.6567-23.7479L36.4834-6.3467L27.296 16.5754Q26.071 19.638 27.7216 21.6Q29.3722 23.562 31.6457 23.562Q33.0576 23.562 34.3708 22.7314Q35.6841 21.9009 36.4211 20.0634L45.7954-3.46057Q45.8577-3.76163 45.9512-4.03668Q46.0446-4.31174 46.1069-4.57159L48.8272-22.886L45.9719-22.6991Q41.394-22.4499 37.6567-23.7479Z"/>
  </g>
  <g id="Light-M" transform="matrix(1 0 0 1 1105.63 1126)">
   <path d="M51.6249-74.9154Q55.917-74.9154 58.9388-77.9547Q61.9607-80.994 61.9607-85.321Q61.9607-89.6131 58.9388-92.6352Q55.917-95.6573 51.6249-95.6573Q47.2978-95.6573 44.2586-92.6352Q41.2193-89.6131 41.2193-85.321Q41.2193-80.994 44.2586-77.9547Q47.2978-74.9154 51.6249-74.9154ZM62.7153-46.7669Q64.1902-45.2646 66.5232-45.4204Q68.8562-45.5761 70.1716-47.5839L81.7056-66.1311Q83.021-68.2285 82.4393-70.001Q81.8577-71.7735 80.2447-72.7115Q78.6317-73.6496 76.7521-73.3692Q74.8724-73.0889 73.6472-71.1155L65.2838-57.6709L58.7073-64.2823Q54.0064-68.9832 48.5719-70.2537Q43.1373-71.5242 35.9577-70.7073L19.01-68.8242Q17.411-68.6372 16.2514-67.4776Q15.0917-66.318 14.9048-64.7533L12.5232-46.0471Q12.2117-43.8246 13.4648-42.4608Q14.7179-41.0971 16.5664-40.8307Q18.4149-40.5642 19.9967-41.5507Q21.5785-42.5371 21.8626-44.9531L23.7732-59.8312L32.6071-60.8346Q33.5487-60.9318 34.0955-60.3503Q34.6423-59.7689 34.5177-58.7371L32.2607-40.5019Q31.4787-34.0147 34.8778-30.5083Q38.277-27.002 44.7294-27.4381L62.1825-28.6908L56.9832-9.67351Q56.3257-7.22963 57.3745-5.70987Q58.4232-4.19012 60.2542-3.71934Q62.0853-3.24855 63.7954-4.07945Q65.5056-4.91036 66.1287-7.22963L72.9893-32.6095Q73.6542-35.0185 72.2107-36.8047Q70.7672-38.5909 68.0741-38.5909L50.0254-38.5909L52.2823-54.1334Q52.4692-55.2894 53.3001-55.4002Q54.1311-55.5111 54.7885-54.7909ZM36.9895-24.073L35.8331-6.94553L26.9024 15.3605Q25.7116 18.3377 27.3109 20.2482Q28.9102 22.1588 31.1323 22.1588Q32.51 22.1588 33.7805 21.3453Q35.051 20.5319 35.7708 18.7459L44.8884-4.12782Q44.9507-4.41192 45.0441-4.67835Q45.1376-4.94478 45.1999-5.22188L47.886-23.2282L45.0479-23.0412Q40.6241-22.792 36.9895-24.073Z"/>
  </g>
  <g id="Thin-M" transform="matrix(1 0 0 1 810.218 1126)">
   <path d="M50.1766-73.7158Q54.3102-73.7158 57.2301-76.642Q60.1501-79.5682 60.1501-83.7142Q60.1501-87.8478 57.2301-90.7681Q54.3102-93.6885 50.1766-93.6885Q46.0306-93.6885 43.1044-90.7681Q40.1783-87.8478 40.1783-83.7142Q40.1783-79.5682 43.1044-76.642Q46.0306-73.7158 50.1766-73.7158ZM60.8595-46.0878Q62.2667-44.6308 64.5204-44.7865Q66.7741-44.9423 68.0442-46.8596L79.1258-64.728Q80.396-66.7574 79.8481-68.4508Q79.3003-70.1442 77.744-71.0597Q76.1876-71.9751 74.3759-71.6947Q72.5641-71.4144 71.4069-69.5087L63.3375-56.5846L56.9875-62.947Q52.4677-67.4669 47.2255-68.6809Q41.9833-69.895 35.0976-69.1233L18.761-67.3306Q17.23-67.1437 16.1156-66.0293Q15.0012-64.9149 14.8143-63.3956L12.5232-45.3909Q12.2117-43.236 13.4196-41.9289Q14.6274-40.6218 16.408-40.3668Q18.1886-40.1118 19.7138-41.0642Q21.239-42.0166 21.5007-44.3193L23.3432-58.6772L31.8604-59.635Q32.7567-59.7097 33.2921-59.1623Q33.8275-58.6149 33.7029-57.6056L31.5364-40.0495Q30.7772-33.8109 34.0518-30.4178Q37.3264-27.0248 43.5526-27.461L60.3494-28.668L55.3311-10.3526Q54.6965-7.9992 55.7112-6.53591Q56.7259-5.07261 58.5003-4.62445Q60.2747-4.17629 61.9057-4.97335Q63.5368-5.77042 64.1599-7.9992L70.7715-32.4286Q71.3687-34.7695 69.9931-36.4878Q68.6174-38.2061 66.0148-38.2061L48.6448-38.2061L50.8113-53.1605Q50.9982-54.2936 51.7952-54.3932Q52.5923-54.4929 53.2269-53.7951ZM36.107-24.503L34.973-7.73753L26.3819 13.7536Q25.2364 16.6179 26.7678 18.4604Q28.2992 20.3029 30.4532 20.3029Q31.7856 20.3029 32.9997 19.5121Q34.2138 18.7212 34.9107 17.0034L43.6888-5.01031Q43.7511-5.27198 43.8446-5.527Q43.938-5.78202 44.0003-6.08194L46.6412-23.6806L43.8258-23.4937Q39.6059-23.2445 36.107-24.503Z"/>
  </g>
  <g id="Ultralight-M" transform="matrix(1 0 0 1 514.173 1126)">
   <path d="M49.4348-73.1014Q53.4872-73.1014 56.3549-75.9696Q59.2227-78.8379 59.2227-82.8912Q59.2227-86.9436 56.3549-89.8118Q53.4872-92.6801 49.4348-92.6801Q45.3815-92.6801 42.5133-89.8118Q39.645-86.9436 39.645-82.8912Q39.645-78.8379 42.5133-75.9696Q45.3815-73.1014 49.4348-73.1014ZM59.9089-45.74Q61.2814-44.3061 63.4945-44.4619Q65.7076-44.6177 66.9546-46.4886L77.8045-64.0094Q79.0514-66.004 78.5209-67.6568Q77.9904-69.3097 76.4631-70.2136Q74.9358-71.1174 73.1588-70.8371Q71.3818-70.5567 70.2595-68.6857L62.3405-56.0282L56.1067-62.263Q51.6795-66.6902 46.5359-67.8754Q41.3923-69.0605 34.6571-68.312L18.6334-66.5657Q17.1373-66.3788 16.0461-65.2875Q14.9549-64.1963 14.768-62.7001L12.5232-45.0548Q12.2117-42.9346 13.3964-41.6565Q14.5811-40.3784 16.3269-40.1292Q18.0728-39.88 19.5689-40.815Q21.0651-41.75 21.3153-43.9946L23.1229-58.0861L31.4779-59.0206Q32.3511-59.0838 32.8806-58.5538Q33.4102-58.0238 33.2855-57.026L31.1654-39.8177Q30.4178-33.7065 33.6287-30.3715Q36.8396-27.0365 42.9498-27.4726L59.4105-28.6563L54.4849-10.7004Q53.862-8.39337 54.8592-6.95899Q55.8565-5.52462 57.6019-5.08805Q59.3473-4.65148 60.9378-5.43121Q62.5284-6.21094 63.1515-8.39337L69.6355-32.3359Q70.1981-34.6419 68.8572-36.3255Q67.5163-38.009 64.9601-38.009L47.9377-38.009L50.0578-52.6621Q50.2447-53.7835 51.0244-53.8774Q51.8042-53.9714 52.4271-53.2851ZM35.655-24.7233L34.5325-8.14319L26.1153 12.9306Q24.9929 15.7371 26.4896 17.5447Q27.9862 19.3524 30.1054 19.3524Q31.4146 19.3524 32.5998 18.5731Q33.7849 17.7939 34.4702 16.1108L43.0744-5.46232Q43.1367-5.7125 43.2301-5.96168Q43.3236-6.21086 43.3859-6.52246L46.0036-23.9124L43.1999-23.7255Q39.0844-23.4762 35.655-24.7233Z"/>
  </g>
  <g id="Black-S" transform="matrix(1 0 0 1 2892.6 696)">
   <path d="M44.3359-67.8711Q48.3887-67.8711 51.2451-70.752Q54.1016-73.6328 54.1016-77.6367Q54.1016-81.6895 51.2451-84.5459Q48.3887-87.4023 44.3359-87.4023Q40.332-87.4023 37.4512-84.5459Q34.5703-81.6895 34.5703-77.6367Q34.5703-73.6328 37.4512-70.752Q40.332-67.8711 44.3359-67.8711ZM53.125-42.4805Q54.6875-40.918 57.1533-41.0645Q59.6191-41.2109 60.9863-43.3594L70.8984-59.1797Q72.3145-61.4258 71.6797-63.3057Q71.0449-65.1855 69.3359-66.2109Q67.627-67.2363 65.6494-66.9434Q63.6719-66.6504 62.3535-64.5508L55.8105-54.0527L51.0742-58.8379Q46.875-63.0859 41.9922-64.209Q37.1094-65.332 30.7617-64.6484L16.3086-63.0371Q14.5508-62.8418 13.3301-61.5967Q12.1094-60.3516 11.8652-58.6426L9.81445-42.6758Q9.52148-40.2832 10.8643-38.8428Q12.207-37.4023 14.1846-37.1094Q16.1621-36.8164 17.8223-37.8662Q19.4824-38.916 19.8242-41.4551L21.3379-53.4668L28.125-54.1992Q28.5645-54.248 28.6621-54.1504Q28.7598-54.0527 28.6621-53.5156L26.7578-37.8906Q26.0254-31.8848 29.2725-28.54Q32.5195-25.1953 38.4277-25.6348L52.0508-26.6113L47.9492-11.6211Q47.2656-9.13086 48.3887-7.49512Q49.5117-5.85938 51.4404-5.37109Q53.3691-4.88281 55.2002-5.7373Q57.0312-6.5918 57.666-9.0332L63.5254-30.7617Q64.209-33.3496 62.6953-35.2295Q61.1816-37.1094 58.3984-37.1094L44.0918-37.1094L45.8496-49.3164Q45.8984-49.6582 45.9473-49.6582Q45.9961-49.6582 46.3379-49.3164ZM30.6152-21.875L29.7852-9.22852L22.2168 9.7168Q20.9961 12.8418 22.7051 14.8438Q24.4141 16.8457 26.8066 16.8457Q28.2227 16.8457 29.5654 15.9912Q30.9082 15.1367 31.6406 13.2812L39.4531-6.29883Q39.5508-6.54297 39.624-6.83594Q39.6973-7.12891 39.7461-7.42188L41.6992-20.9473L38.7695-20.752Q34.2773-20.459 30.6152-21.875Z"/>
  </g>
  <g id="Heavy-S" transform="matrix(1 0 0 1 2596.44 696)">
   <path d="M43.7482-67.7789Q47.6742-67.7789 50.4384-70.5676Q53.2027-73.3562 53.2027-77.2564Q53.2027-81.1824 50.4384-83.9466Q47.6742-86.7109 43.7482-86.7109Q39.848-86.7109 37.0593-83.9466Q34.2707-81.1824 34.2707-77.2564Q34.2707-73.3562 37.0593-70.5676Q39.848-67.7789 43.7482-67.7789ZM52.6064-43.0567Q54.0882-41.5749 56.4215-41.7156Q58.7548-41.8563 60.0528-43.8895L69.8612-59.56Q71.1966-61.6793 70.5964-63.4612Q69.9962-65.2432 68.3794-66.2052Q66.7626-67.1672 64.8888-66.8915Q63.015-66.6158 61.7658-64.6315L55.1537-54.0066L50.2675-58.9416Q46.149-63.0975 41.3699-64.2032Q36.5908-65.309 30.3468-64.6254L16.032-63.0256Q14.3779-62.8418 13.2206-61.6658Q12.0633-60.4899 11.8422-58.8846L9.81445-43.0676Q9.53301-40.8133 10.8009-39.4478Q12.0687-38.0823 13.9368-37.8066Q15.8049-37.5309 17.3786-38.5231Q18.9523-39.5153 19.271-41.9276L20.7962-53.9739L27.6871-54.7293Q28.2072-54.7897 28.3855-54.5998Q28.5638-54.41 28.4662-53.8037L26.5734-38.3401Q25.864-32.4956 29.0016-29.2661Q32.1392-26.0366 37.8976-26.453L51.682-27.4411L47.5459-12.3126Q46.8968-9.93757 47.9565-8.39403Q49.0162-6.85048 50.8412-6.38525Q52.6661-5.92001 54.3992-6.73417Q56.1323-7.54833 56.7325-9.86296L62.5343-31.3725Q63.1948-33.8106 61.7561-35.5925Q60.3173-37.3744 57.6724-37.3744L43.2505-37.3744L45.0314-49.7082Q45.1032-50.1883 45.3019-50.2114Q45.5005-50.2344 45.8884-49.835ZM30.4308-22.8661L29.5777-9.95456L22.067 8.82941Q20.9039 11.7931 22.5207 13.6913Q24.1375 15.5895 26.3918 15.5895Q27.7386 15.5895 29.0123 14.7811Q30.2859 13.9727 30.9837 12.2095L38.7156-7.17469Q38.8017-7.41883 38.8749-7.69451Q38.9482-7.97019 38.997-8.24011L40.9962-21.996L38.2279-21.8122Q33.9316-21.5423 30.4308-22.8661Z"/>
  </g>
  <g id="Bold-S" transform="matrix(1 0 0 1 2300.34 696)">
   <path d="M43.0908-67.6758Q46.875-67.6758 49.5361-70.3613Q52.1973-73.0469 52.1973-76.8311Q52.1973-80.6152 49.5361-83.2764Q46.875-85.9375 43.0908-85.9375Q39.3066-85.9375 36.6211-83.2764Q33.9355-80.6152 33.9355-76.8311Q33.9355-73.0469 36.6211-70.3613Q39.3066-67.6758 43.0908-67.6758ZM52.0264-43.7012Q53.418-42.3096 55.603-42.4438Q57.7881-42.5781 59.0088-44.4824L68.7012-59.9854Q69.9463-61.9629 69.3848-63.6353Q68.8232-65.3076 67.3096-66.1987Q65.7959-67.0898 64.0381-66.8335Q62.2803-66.5771 61.1084-64.7217L54.4189-53.9551L49.3652-59.0576Q45.3369-63.1104 40.6738-64.1968Q36.0107-65.2832 29.8828-64.5996L15.7227-63.0127Q14.1846-62.8418 13.0981-61.7432Q12.0117-60.6445 11.8164-59.1553L9.81445-43.5059Q9.5459-41.4062 10.73-40.1245Q11.9141-38.8428 13.6597-38.5864Q15.4053-38.3301 16.8823-39.2578Q18.3594-40.1855 18.6523-42.4561L20.1904-54.541L27.1973-55.3223Q27.8076-55.3955 28.0762-55.1025Q28.3447-54.8096 28.2471-54.126L26.3672-38.8428Q25.6836-33.1787 28.6987-30.0781Q31.7139-26.9775 37.3047-27.3682L51.2695-28.3691L47.0947-13.0859Q46.4844-10.8398 47.4731-9.39941Q48.4619-7.95898 50.1709-7.51953Q51.8799-7.08008 53.5034-7.84912Q55.127-8.61816 55.6885-10.791L61.4258-32.0557Q62.0605-34.3262 60.7056-35.9985Q59.3506-37.6709 56.8604-37.6709L42.3096-37.6709L44.1162-50.1465Q44.2139-50.7812 44.5801-50.8301Q44.9463-50.8789 45.3857-50.415ZM30.2246-23.9746L29.3457-10.7666L21.8994 7.83691Q20.8008 10.6201 22.3145 12.4023Q23.8281 14.1846 25.9277 14.1846Q27.1973 14.1846 28.3936 13.4277Q29.5898 12.6709 30.249 11.0107L37.8906-8.1543Q37.9639-8.39844 38.0371-8.65479Q38.1104-8.91113 38.1592-9.15527L40.21-23.1689L37.6221-22.998Q33.5449-22.7539 30.2246-23.9746Z"/>
  </g>
  <g id="Semibold-S" transform="matrix(1 0 0 1 2004.05 696)">
   <path d="M42.6376-67.6047Q46.324-67.6047 48.9141-70.2191Q51.5041-72.8336 51.5041-76.5378Q51.5041-80.2242 48.9141-82.8143Q46.324-85.4043 42.6376-85.4043Q38.9334-85.4043 36.3189-82.8143Q33.7045-80.2242 33.7045-76.5378Q33.7045-72.8336 36.3189-70.2191Q38.9334-67.6047 42.6376-67.6047ZM51.6265-44.1455Q52.9559-42.8161 55.0387-42.9459Q57.1216-43.0758 58.289-44.8912L67.9014-60.2786Q69.0843-62.1584 68.5494-63.7552Q68.0146-65.3521 66.572-66.1943Q65.1294-67.0365 63.4516-66.7935Q61.7737-66.5505 60.6552-64.7839L53.9124-53.9195L48.7432-59.1376Q44.7771-63.1192 40.1939-64.1923Q35.6108-65.2654 29.5629-64.5818L15.5094-63.0038Q14.0513-62.8418 13.0137-61.7965Q11.9762-60.7512 11.7986-59.3419L9.81445-43.808Q9.55479-41.815 10.6811-40.5911Q11.8074-39.3671 13.4686-39.1241Q15.1298-38.8811 16.5402-39.7644Q17.9506-40.6477 18.2258-42.8204L19.7728-54.932L26.8596-55.7311Q27.5321-55.8132 27.8629-55.4491Q28.1937-55.0851 28.096-54.3481L26.225-39.1894Q25.5592-33.6497 28.4899-30.638Q31.4206-27.6263 36.8959-27.9991L50.9852-29.009L46.7837-13.6191Q46.2-11.4619 47.1399-10.0926Q48.0798-8.72324 49.7088-8.30156Q51.3378-7.87988 52.8858-8.61782Q54.4338-9.35576 54.9687-11.4309L60.6615-32.5267Q61.2785-34.6816 59.9813-36.2785Q58.6841-37.8753 56.3005-37.8753L41.6608-37.8753L43.4853-50.4486Q43.6007-51.19 44.0824-51.2566Q44.5642-51.3232 45.0392-50.8149ZM30.0824-24.7389L29.1857-11.3265L21.7839 7.15264Q20.7297 9.81143 22.1723 11.5137Q23.6148 13.2159 25.6078 13.2159Q26.824 13.2159 27.967 12.4946Q29.11 11.7733 29.7425 10.1843L37.3219-8.82969Q37.3862-9.07383 37.4595-9.31685Q37.5327-9.55986 37.5815-9.78623L39.6679-23.9776L37.2044-23.8156Q33.2783-23.5893 30.0824-24.7389Z"/>
  </g>
  <g id="Medium-S" transform="matrix(1 0 0 1 1707.66 696)">
   <path d="M42.2939-67.5508Q45.9062-67.5508 48.4424-70.1113Q50.9785-72.6719 50.9785-76.3154Q50.9785-79.9277 48.4424-82.4639Q45.9062-85 42.2939-85Q38.6504-85 36.0898-82.4639Q33.5293-79.9277 33.5293-76.3154Q33.5293-72.6719 36.0898-70.1113Q38.6504-67.5508 42.2939-67.5508ZM51.3232-44.4824Q52.6055-43.2002 54.6108-43.3267Q56.6162-43.4531 57.7432-45.2012L67.2949-60.501Q68.4307-62.3066 67.916-63.8462Q67.4014-65.3857 66.0127-66.1909Q64.624-66.9961 63.0068-66.7632Q61.3896-66.5303 60.3115-64.8311L53.5283-53.8926L48.2715-59.1982Q44.3525-63.126 39.8301-64.189Q35.3076-65.252 29.3203-64.5684L15.3477-62.9971Q13.9502-62.8418 12.9497-61.8369Q11.9492-60.832 11.7852-59.4834L9.81445-44.0371Q9.56152-42.125 10.644-40.9448Q11.7266-39.7646 13.3237-39.5317Q14.9209-39.2988 16.2808-40.1484Q17.6406-40.998 17.9023-43.0967L19.4561-55.2285L26.6035-56.041Q27.3232-56.1299 27.7012-55.7119Q28.0791-55.2939 27.9814-54.5166L26.1172-39.4521Q25.4648-34.0068 28.3315-31.0625Q31.1982-28.1182 36.5859-28.4775L50.7695-29.4941L46.5479-14.0234Q45.9844-11.9336 46.8872-10.6182Q47.79-9.30273 49.3584-8.89453Q50.9268-8.48633 52.4175-9.20068Q53.9082-9.91504 54.4229-11.916L60.082-32.8838Q60.6855-34.9512 59.4321-36.4907Q58.1787-38.0303 55.876-38.0303L41.1689-38.0303L43.0068-50.6777Q43.1357-51.5 43.7051-51.5801Q44.2744-51.6602 44.7764-51.1182ZM29.9746-25.3184L29.0645-11.751L21.6963 6.63379Q20.6758 9.19824 22.0645 10.8398Q23.4531 12.4814 25.3652 12.4814Q26.541 12.4814 27.6436 11.7871Q28.7461 11.0928 29.3584 9.55762L36.8906-9.3418Q36.9482-9.58594 37.0215-9.81885Q37.0947-10.0518 37.1436-10.2646L39.2568-24.5908L36.8877-24.4355Q33.0762-24.2227 29.9746-25.3184Z"/>
  </g>
  <g id="Regular-S" transform="matrix(1 0 0 1 1411.37 696)">
   <path d="M41.8457-67.4805Q45.3613-67.4805 47.8271-69.9707Q50.293-72.4609 50.293-76.0254Q50.293-79.541 47.8271-82.0068Q45.3613-84.4727 41.8457-84.4727Q38.2812-84.4727 35.791-82.0068Q33.3008-79.541 33.3008-76.0254Q33.3008-72.4609 35.791-69.9707Q38.2812-67.4805 41.8457-67.4805ZM50.9277-44.9219Q52.1484-43.7012 54.0527-43.8232Q55.957-43.9453 57.0312-45.6055L66.5039-60.791Q67.5781-62.5 67.0898-63.9648Q66.6016-65.4297 65.2832-66.1865Q63.9648-66.9434 62.4268-66.7236Q60.8887-66.5039 59.8633-64.8926L53.0273-53.8574L47.6562-59.2773Q43.7988-63.1348 39.3555-64.1846Q34.9121-65.2344 29.0039-64.5508L15.1367-62.9883Q13.8184-62.8418 12.8662-61.8896Q11.9141-60.9375 11.7676-59.668L9.81445-44.3359Q9.57031-42.5293 10.5957-41.4062Q11.6211-40.2832 13.1348-40.0635Q14.6484-39.8438 15.9424-40.6494Q17.2363-41.4551 17.4805-43.457L19.043-55.6152L26.2695-56.4453Q27.0508-56.543 27.4902-56.0547Q27.9297-55.5664 27.832-54.7363L25.9766-39.7949Q25.3418-34.4727 28.125-31.6162Q30.9082-28.7598 36.1816-29.1016L50.4883-30.127L46.2402-14.5508Q45.7031-12.5488 46.5576-11.3037Q47.4121-10.0586 48.9014-9.66797Q50.3906-9.27734 51.8066-9.96094Q53.2227-10.6445 53.7109-12.5488L59.3262-33.3496Q59.9121-35.3027 58.7158-36.7676Q57.5195-38.2324 55.3223-38.2324L40.5273-38.2324L42.3828-50.9766Q42.5293-51.9043 43.2129-52.002Q43.8965-52.0996 44.4336-51.5137ZM29.834-26.0742L28.9062-12.3047L21.582 5.95703Q20.6055 8.39844 21.9238 9.96094Q23.2422 11.5234 25.0488 11.5234Q26.1719 11.5234 27.2217 10.8643Q28.2715 10.2051 28.8574 8.74023L36.3281-10.0098Q36.377-10.2539 36.4502-10.4736Q36.5234-10.6934 36.5723-10.8887L38.7207-25.3906L36.4746-25.2441Q32.8125-25.0488 29.834-26.0742Z"/>
  </g>
  <g id="Light-S" transform="matrix(1 0 0 1 1115.53 696)">
   <path d="M40.877-66.6781Q44.2866-66.6781 46.6843-69.0927Q49.0819-71.5073 49.0819-74.9507Q49.0819-78.3602 46.6843-80.758Q44.2866-83.1558 40.877-83.1558Q37.4336-83.1558 35.019-80.758Q32.6045-78.3602 32.6045-74.9507Q32.6045-71.5073 35.019-69.0927Q37.4336-66.6781 40.877-66.6781ZM49.6864-44.4677Q50.8619-43.2772 52.7131-43.3993Q54.5644-43.5214 55.6084-45.121L64.7784-59.8526Q65.8223-61.5161 65.3567-62.928Q64.8911-64.34 63.6106-65.0817Q62.3301-65.8234 60.8374-65.6036Q59.3447-65.3839 58.3649-63.8179L51.7255-53.1308L46.506-58.3842Q42.7696-62.1206 38.4549-63.1326Q34.1403-64.1446 28.4286-63.4913L14.9701-61.9893Q13.6973-61.8429 12.7754-60.921Q11.8535-59.9991 11.7071-58.7598L9.81445-43.897Q9.57031-42.1356 10.5654-41.0505Q11.5606-39.9653 13.0288-39.7532Q14.4971-39.5411 15.7532-40.324Q17.0092-41.1069 17.2384-43.0331L18.7553-54.8434L25.7701-55.643Q26.521-55.7256 26.9529-55.2601Q27.3847-54.7946 27.287-53.9795L25.4921-39.4923Q24.8726-34.3363 27.5725-31.5557Q30.2724-28.775 35.3945-29.1168L49.2622-30.1117L45.1352-15.005Q44.6134-13.0636 45.4451-11.8562Q46.2769-10.6489 47.7282-10.2734Q49.1796-9.89787 50.5427-10.5588Q51.9058-11.2198 52.3941-13.0636L57.8428-33.2286Q58.3834-35.1362 57.2325-36.5556Q56.0816-37.9751 53.9449-37.9751L39.6039-37.9751L41.3989-50.3258Q41.5454-51.2383 42.2063-51.3284Q42.8673-51.4186 43.3891-50.8476ZM29.2437-26.3618L28.331-12.8344L21.2339 4.8823Q20.2876 7.24818 21.5605 8.76516Q22.8335 10.2821 24.5946 10.2821Q25.6874 10.2821 26.6994 9.63809Q27.7115 8.99404 28.2822 7.57472L35.5258-10.6Q35.5746-10.8292 35.6478-11.0413Q35.7211-11.2534 35.7699-11.4639L37.8881-25.6933L35.6572-25.5468Q32.1314-25.3515 29.2437-26.3618Z"/>
  </g>
  <g id="Thin-S" transform="matrix(1 0 0 1 819.967 696)">
   <path d="M39.5959-65.6169Q42.8652-65.6169 45.1727-67.9314Q47.4802-70.246 47.4802-73.5292Q47.4802-76.7986 45.1727-79.1064Q42.8652-81.4142 39.5959-81.4142Q36.3126-81.4142 33.9981-79.1064Q31.6835-76.7986 31.6835-73.5292Q31.6835-70.246 33.9981-67.9314Q36.3126-65.6169 39.5959-65.6169ZM48.0447-43.867Q49.1603-42.7165 50.9414-42.8386Q52.7226-42.9607 53.7265-44.4803L62.4963-58.6115Q63.5002-60.2147 63.0645-61.5567Q62.6288-62.8987 61.3984-63.6204Q60.1681-64.3421 58.7354-64.1224Q57.3028-63.9026 56.3831-62.3964L50.0037-52.1699L44.9847-57.2029Q41.4084-60.7792 37.2639-61.7413Q33.1194-62.7034 27.6678-62.0901L14.7498-60.6682Q13.5372-60.5217 12.6553-59.6398Q11.7735-58.758 11.627-57.5587L9.81445-43.3165Q9.57031-41.615 10.5254-40.5799Q11.4805-39.5449 12.8888-39.3429Q14.297-39.1409 15.5029-39.8937Q16.7089-40.6465 16.9182-42.4724L18.3749-53.8226L25.1095-54.5818Q25.8204-54.6446 26.2422-54.2092Q26.6639-53.7737 26.5662-52.9785L24.8513-39.092Q24.252-34.1561 26.8418-31.4756Q29.4315-28.7952 34.3535-29.137L47.6407-30.0915L43.6738-15.6057Q43.1721-13.7443 43.9738-12.5869Q44.7754-11.4295 46.1766-11.074Q47.5779-10.7186 48.871-11.3496Q50.1642-11.9806 50.6525-13.7443L55.8808-33.0685Q56.3616-34.9159 55.2708-36.2753Q54.1799-37.6347 52.1232-37.6347L38.3826-37.6347L40.0975-49.4651Q40.244-50.3574 40.875-50.4376Q41.5061-50.5178 42.0077-49.9667ZM28.4631-26.7423L27.5702-13.535L20.7734 3.46089Q19.8671 5.72687 21.0801 7.18364Q22.293 8.64041 23.9939 8.64041Q25.0467 8.64041 26.0088 8.01638Q26.9708 7.39234 27.5213 6.03323L34.4646-11.3807Q34.5134-11.59 34.5867-11.792Q34.6599-11.994 34.7087-12.2248L36.7869-26.0935L34.5762-25.947Q31.2307-25.7517 28.4631-26.7423Z"/>
  </g>
  <g id="Ultralight-S" transform="matrix(1 0 0 1 523.846 696)">
   <path d="M38.9397-65.0734Q42.1371-65.0734 44.3985-67.3367Q46.6599-69.5999 46.6599-72.8012Q46.6599-75.9987 44.3985-78.2604Q42.1371-80.5222 38.9397-80.5222Q35.7384-80.5222 33.4751-78.2604Q31.2119-75.9987 31.2119-72.8012Q31.2119-69.5999 33.4751-67.3367Q35.7384-65.0734 38.9397-65.0734ZM47.2038-43.5593Q48.2887-42.4294 50.034-42.5514Q51.7792-42.6735 52.7626-44.1521L61.3274-57.9758Q62.3108-59.5482 61.8904-60.8543Q61.47-62.1605 60.2654-62.8719Q59.0607-63.5834 57.6588-63.3636Q56.2569-63.1439 55.368-61.6684L49.1219-51.6777L44.2055-56.5979Q40.7112-60.0922 36.6539-61.0287Q32.5966-61.9652 27.2781-61.3724L14.637-59.9915Q13.4552-59.845 12.5938-58.9836Q11.7325-58.1223 11.586-56.9435L9.81445-43.0191Q9.57031-41.3483 10.5049-40.3389Q11.4395-39.3295 12.817-39.1327Q14.1945-38.9359 15.3748-39.6732Q16.555-40.4106 16.7542-42.1852L18.1801-53.2997L24.7711-54.0382Q25.4616-54.0909 25.8781-53.6709Q26.2947-53.2509 26.1971-52.4658L24.5232-38.887Q23.9342-34.0637 26.4675-31.4346Q29.0009-28.8055 33.8203-29.1473L46.8102-30.0812L42.9253-15.9134Q42.4339-14.093 43.2201-12.9612Q44.0063-11.8294 45.3819-11.4841Q46.7575-11.1389 48.0148-11.7546Q49.2722-12.3703 49.7604-14.093L54.8759-32.9865Q55.3261-34.803 54.266-36.1317Q53.2059-37.4603 51.1902-37.4603L37.7571-37.4603L39.431-49.0242Q39.5775-49.9062 40.1932-49.9813Q40.8089-50.0565 41.3002-49.5155ZM28.0632-26.9371L27.1805-13.8939L20.5376 2.73285Q19.6518 4.94766 20.834 6.3736Q22.0161 7.79953 23.6862 7.79953Q24.7185 7.79953 25.655 7.18575Q26.5915 6.57196 27.1317 5.24368L33.9211-11.7805Q33.9699-11.9797 34.0431-12.1765Q34.1164-12.3734 34.1652-12.6144L36.2228-26.2985L34.0225-26.152Q30.7693-25.9567 28.0632-26.9371Z"/>
  </g>
 </g>
</svg>
