<?xml version="1.0" encoding="UTF-8"?>
<!--Generator: Apple Native CoreSVG 175.5-->
<!DOCTYPE svg
PUBLIC "-//W3C//DTD SVG 1.1//EN"
       "http://www.w3.org/Graphics/SVG/1.1/DTD/svg11.dtd">
<svg version="1.1" xmlns="http://www.w3.org/2000/svg" xmlns:xlink="http://www.w3.org/1999/xlink" width="3300" height="2200">
 <!--glyph: "", point size: 100.0, font version: "18.0d9e1", template writer version: "84"-->
 <g id="Notes">
  <rect height="2200" id="artboard" style="fill:white;opacity:1" width="3300" x="0" y="0"/>
  <line style="fill:none;stroke:black;opacity:1;stroke-width:0.5;" x1="263" x2="3036" y1="292" y2="292"/>
  <text style="stroke:none;fill:black;font-family:sans-serif;font-size:13;font-weight:bold;" transform="matrix(1 0 0 1 263 322)">Weight/Scale Variations</text>
  <text style="stroke:none;fill:black;font-family:sans-serif;font-size:13;text-anchor:middle;" transform="matrix(1 0 0 1 559.711 322)">Ultralight</text>
  <text style="stroke:none;fill:black;font-family:sans-serif;font-size:13;text-anchor:middle;" transform="matrix(1 0 0 1 856.422 322)">Thin</text>
  <text style="stroke:none;fill:black;font-family:sans-serif;font-size:13;text-anchor:middle;" transform="matrix(1 0 0 1 1153.13 322)">Light</text>
  <text style="stroke:none;fill:black;font-family:sans-serif;font-size:13;text-anchor:middle;" transform="matrix(1 0 0 1 1449.84 322)">Regular</text>
  <text style="stroke:none;fill:black;font-family:sans-serif;font-size:13;text-anchor:middle;" transform="matrix(1 0 0 1 1746.56 322)">Medium</text>
  <text style="stroke:none;fill:black;font-family:sans-serif;font-size:13;text-anchor:middle;" transform="matrix(1 0 0 1 2043.27 322)">Semibold</text>
  <text style="stroke:none;fill:black;font-family:sans-serif;font-size:13;text-anchor:middle;" transform="matrix(1 0 0 1 2339.98 322)">Bold</text>
  <text style="stroke:none;fill:black;font-family:sans-serif;font-size:13;text-anchor:middle;" transform="matrix(1 0 0 1 2636.69 322)">Heavy</text>
  <text style="stroke:none;fill:black;font-family:sans-serif;font-size:13;text-anchor:middle;" transform="matrix(1 0 0 1 2933.4 322)">Black</text>
  <line style="fill:none;stroke:black;opacity:1;stroke-width:0.5;" x1="263" x2="3036" y1="1903" y2="1903"/>
  <g transform="matrix(1 0 0 1 263 1933)">
   <path d="M9.24805 0.830078Q10.8691 0.830078 12.2949 0.214844Q13.7207-0.400391 14.8096-1.49414Q15.8984-2.58789 16.5186-4.01367Q17.1387-5.43945 17.1387-7.05078Q17.1387-8.66211 16.5186-10.0879Q15.8984-11.5137 14.8047-12.6074Q13.7109-13.7012 12.2852-14.3164Q10.8594-14.9316 9.23828-14.9316Q7.62695-14.9316 6.20117-14.3164Q4.77539-13.7012 3.69141-12.6074Q2.60742-11.5137 1.9873-10.0879Q1.36719-8.66211 1.36719-7.05078Q1.36719-5.43945 1.9873-4.01367Q2.60742-2.58789 3.69629-1.49414Q4.78516-0.400391 6.21094 0.214844Q7.63672 0.830078 9.24805 0.830078ZM9.24805-0.654297Q7.91992-0.654297 6.7627-1.14746Q5.60547-1.64062 4.73145-2.51953Q3.85742-3.39844 3.36426-4.56055Q2.87109-5.72266 2.87109-7.05078Q2.87109-8.37891 3.35938-9.54102Q3.84766-10.7031 4.72168-11.582Q5.5957-12.4609 6.75293-12.9541Q7.91016-13.4473 9.23828-13.4473Q10.5762-13.4473 11.7383-12.9541Q12.9004-12.4609 13.7793-11.582Q14.6582-10.7031 15.1514-9.54102Q15.6445-8.37891 15.6445-7.05078Q15.6445-5.72266 15.1514-4.56055Q14.6582-3.39844 13.7793-2.51953Q12.9004-1.64062 11.7432-1.14746Q10.5859-0.654297 9.24805-0.654297ZM5.6543-7.05078Q5.6543-6.72852 5.85938-6.52832Q6.06445-6.32812 6.40625-6.32812L8.51562-6.32812L8.51562-4.20898Q8.51562-3.88672 8.71094-3.67676Q8.90625-3.4668 9.23828-3.4668Q9.56055-3.4668 9.77051-3.67676Q9.98047-3.88672 9.98047-4.20898L9.98047-6.32812L12.0898-6.32812Q12.4219-6.32812 12.627-6.52832Q12.832-6.72852 12.832-7.05078Q12.832-7.38281 12.627-7.58789Q12.4219-7.79297 12.0898-7.79297L9.98047-7.79297L9.98047-9.90234Q9.98047-10.2344 9.77051-10.4443Q9.56055-10.6543 9.23828-10.6543Q8.90625-10.6543 8.71094-10.4443Q8.51562-10.2344 8.51562-9.90234L8.51562-7.79297L6.40625-7.79297Q6.06445-7.79297 5.85938-7.58789Q5.6543-7.38281 5.6543-7.05078Z"/>
  </g>
  <g transform="matrix(1 0 0 1 281.867 1933)">
   <path d="M11.709 2.91016Q13.75 2.91016 15.5518 2.12891Q17.3535 1.34766 18.7305-0.0292969Q20.1074-1.40625 20.8887-3.20801Q21.6699-5.00977 21.6699-7.05078Q21.6699-9.0918 20.8887-10.8936Q20.1074-12.6953 18.7305-14.0723Q17.3535-15.4492 15.5469-16.2305Q13.7402-17.0117 11.6992-17.0117Q9.6582-17.0117 7.85645-16.2305Q6.05469-15.4492 4.68262-14.0723Q3.31055-12.6953 2.5293-10.8936Q1.74805-9.0918 1.74805-7.05078Q1.74805-5.00977 2.5293-3.20801Q3.31055-1.40625 4.6875-0.0292969Q6.06445 1.34766 7.86621 2.12891Q9.66797 2.91016 11.709 2.91016ZM11.709 1.25Q9.98047 1.25 8.47656 0.605469Q6.97266-0.0390625 5.83496-1.17676Q4.69727-2.31445 4.05762-3.81836Q3.41797-5.32227 3.41797-7.05078Q3.41797-8.7793 4.05762-10.2832Q4.69727-11.7871 5.83008-12.9297Q6.96289-14.0723 8.4668-14.7119Q9.9707-15.3516 11.6992-15.3516Q13.4277-15.3516 14.9365-14.7119Q16.4453-14.0723 17.583-12.9297Q18.7207-11.7871 19.3652-10.2832Q20.0098-8.7793 20.0098-7.05078Q20.0098-5.32227 19.3701-3.81836Q18.7305-2.31445 17.5879-1.17676Q16.4453-0.0390625 14.9414 0.605469Q13.4375 1.25 11.709 1.25ZM7.17773-7.05078Q7.17773-6.69922 7.41211-6.47461Q7.64648-6.25 8.01758-6.25L10.8887-6.25L10.8887-3.36914Q10.8887-2.99805 11.1133-2.76855Q11.3379-2.53906 11.6895-2.53906Q12.0605-2.53906 12.29-2.76855Q12.5195-2.99805 12.5195-3.36914L12.5195-6.25L15.4004-6.25Q15.7715-6.25 16.001-6.47461Q16.2305-6.69922 16.2305-7.05078Q16.2305-7.42188 16.001-7.65137Q15.7715-7.88086 15.4004-7.88086L12.5195-7.88086L12.5195-10.752Q12.5195-11.1328 12.29-11.3623Q12.0605-11.5918 11.6895-11.5918Q11.3379-11.5918 11.1133-11.3574Q10.8887-11.123 10.8887-10.752L10.8887-7.88086L8.01758-7.88086Q7.63672-7.88086 7.40723-7.65137Q7.17773-7.42188 7.17773-7.05078Z"/>
  </g>
  <g transform="matrix(1 0 0 1 305.646 1933)">
   <path d="M14.9707 5.66406Q17.0605 5.66406 18.96 5.01465Q20.8594 4.36523 22.4512 3.19336Q24.043 2.02148 25.2197 0.429688Q26.3965-1.16211 27.0459-3.06641Q27.6953-4.9707 27.6953-7.05078Q27.6953-9.14062 27.0459-11.04Q26.3965-12.9395 25.2197-14.5312Q24.043-16.123 22.4512-17.2998Q20.8594-18.4766 18.9551-19.126Q17.0508-19.7754 14.9609-19.7754Q12.8711-19.7754 10.9717-19.126Q9.07227-18.4766 7.48535-17.2998Q5.89844-16.123 4.72168-14.5312Q3.54492-12.9395 2.90039-11.04Q2.25586-9.14062 2.25586-7.05078Q2.25586-4.9707 2.90527-3.06641Q3.55469-1.16211 4.72656 0.429688Q5.89844 2.02148 7.49023 3.19336Q9.08203 4.36523 10.9814 5.01465Q12.8809 5.66406 14.9707 5.66406ZM14.9707 3.84766Q13.1641 3.84766 11.5283 3.2959Q9.89258 2.74414 8.53516 1.74805Q7.17773 0.751953 6.17676-0.610352Q5.17578-1.97266 4.62891-3.6084Q4.08203-5.24414 4.08203-7.05078Q4.08203-8.86719 4.62891-10.5029Q5.17578-12.1387 6.17188-13.501Q7.16797-14.8633 8.52539-15.8594Q9.88281-16.8555 11.5186-17.4023Q13.1543-17.9492 14.9609-17.9492Q16.7773-17.9492 18.4131-17.4023Q20.0488-16.8555 21.4111-15.8594Q22.7734-14.8633 23.7744-13.501Q24.7754-12.1387 25.3223-10.5029Q25.8691-8.86719 25.8691-7.05078Q25.8691-5.24414 25.3223-3.6084Q24.7754-1.97266 23.7793-0.610352Q22.7832 0.751953 21.4209 1.74805Q20.0586 2.74414 18.4229 3.2959Q16.7871 3.84766 14.9707 3.84766ZM9.19922-7.05078Q9.19922-6.66992 9.45801-6.4209Q9.7168-6.17188 10.1172-6.17188L14.0625-6.17188L14.0625-2.2168Q14.0625-1.81641 14.3115-1.55762Q14.5605-1.29883 14.9512-1.29883Q15.3516-1.29883 15.6104-1.55273Q15.8691-1.80664 15.8691-2.2168L15.8691-6.17188L19.8242-6.17188Q20.2246-6.17188 20.4785-6.4209Q20.7324-6.66992 20.7324-7.05078Q20.7324-7.46094 20.4785-7.71484Q20.2246-7.96875 19.8242-7.96875L15.8691-7.96875L15.8691-11.9141Q15.8691-12.3242 15.6104-12.583Q15.3516-12.8418 14.9512-12.8418Q14.5605-12.8418 14.3115-12.583Q14.0625-12.3242 14.0625-11.9141L14.0625-7.96875L10.1172-7.96875Q9.70703-7.96875 9.45312-7.71484Q9.19922-7.46094 9.19922-7.05078Z"/>
  </g>
  <text style="stroke:none;fill:black;font-family:sans-serif;font-size:13;font-weight:bold;" transform="matrix(1 0 0 1 263 1953)">Design Variations</text>
  <text style="stroke:none;fill:black;font-family:sans-serif;font-size:13;" transform="matrix(1 0 0 1 263 1971)">Symbols are supported in up to nine weights and three scales.</text>
  <text style="stroke:none;fill:black;font-family:sans-serif;font-size:13;" transform="matrix(1 0 0 1 263 1989)">For optimal layout with text and other symbols, vertically align</text>
  <text style="stroke:none;fill:black;font-family:sans-serif;font-size:13;" transform="matrix(1 0 0 1 263 2007)">symbols with the adjacent text.</text>
  <line style="fill:none;stroke:#00AEEF;stroke-width:0.5;opacity:1.0;" x1="776" x2="776" y1="1919" y2="1933"/>
  <g transform="matrix(1 0 0 1 776 1933)">
   <path d="M3.31055 0.15625Q3.70117 0.15625 3.91602-0.00976562Q4.13086-0.175781 4.26758-0.585938L5.52734-4.0332L11.2891-4.0332L12.5488-0.585938Q12.6855-0.175781 12.9004-0.00976562Q13.1152 0.15625 13.4961 0.15625Q13.8867 0.15625 14.1162-0.0585938Q14.3457-0.273438 14.3457-0.644531Q14.3457-0.869141 14.2383-1.17188L9.6582-13.3691Q9.48242-13.8184 9.17969-14.043Q8.87695-14.2676 8.4082-14.2676Q7.5-14.2676 7.17773-13.3789L2.59766-1.16211Q2.49023-0.859375 2.49023-0.634766Q2.49023-0.263672 2.70996-0.0537109Q2.92969 0.15625 3.31055 0.15625ZM6.00586-5.51758L8.37891-12.0898L8.42773-12.0898L10.8008-5.51758Z"/>
  </g>
  <line style="fill:none;stroke:#00AEEF;stroke-width:0.5;opacity:1.0;" x1="793.197" x2="793.197" y1="1919" y2="1933"/>
  <text style="stroke:none;fill:black;font-family:sans-serif;font-size:13;font-weight:bold;" transform="matrix(1 0 0 1 776 1953)">Margins</text>
  <text style="stroke:none;fill:black;font-family:sans-serif;font-size:13;" transform="matrix(1 0 0 1 776 1971)">Leading and trailing margins on the left and right side of each symbol</text>
  <text style="stroke:none;fill:black;font-family:sans-serif;font-size:13;" transform="matrix(1 0 0 1 776 1989)">can be adjusted by modifying the x-location of the margin guidelines.</text>
  <text style="stroke:none;fill:black;font-family:sans-serif;font-size:13;" transform="matrix(1 0 0 1 776 2007)">Modifications are automatically applied proportionally to all</text>
  <text style="stroke:none;fill:black;font-family:sans-serif;font-size:13;" transform="matrix(1 0 0 1 776 2025)">scales and weights.</text>
  <g transform="matrix(1 0 0 1 1289 1933)">
   <path d="M2.8418 1.86523L4.54102 3.57422Q5.18555 4.22852 5.90332 4.17969Q6.62109 4.13086 7.31445 3.35938L18.0078-8.42773L17.041-9.4043L6.42578 2.27539Q6.16211 2.57812 5.89355 2.61719Q5.625 2.65625 5.27344 2.30469L4.10156 1.14258Q3.75 0.791016 3.79395 0.522461Q3.83789 0.253906 4.14062-0.0195312L15.6152-10.8203L14.6387-11.7871L3.04688-0.898438Q2.30469-0.214844 2.25098 0.498047Q2.19727 1.21094 2.8418 1.86523ZM9.25781-16.3281Q8.94531-16.0254 8.90625-15.6348Q8.86719-15.2441 9.04297-14.9512Q9.21875-14.6777 9.55566-14.541Q9.89258-14.4043 10.3809-14.5215Q11.4746-14.7754 12.5977-14.7314Q13.7207-14.6875 14.7949-13.9844L14.209-12.5293Q13.9551-11.9043 14.0674-11.4404Q14.1797-10.9766 14.5801-10.5664L16.875-8.25195Q17.2363-7.88086 17.5781-7.82227Q17.9199-7.76367 18.3398-7.8418L19.4043-8.03711L20.0684-7.36328L20.0293-6.80664Q20-6.43555 20.1221-6.12305Q20.2441-5.81055 20.6055-5.44922L21.3672-4.70703Q21.7285-4.3457 22.1533-4.33105Q22.5781-4.31641 22.9297-4.66797L25.8398-7.58789Q26.1914-7.93945 26.1816-8.35449Q26.1719-8.76953 25.8105-9.13086L25.0391-9.89258Q24.6875-10.2539 24.3799-10.3857Q24.0723-10.5176 23.7109-10.4883L23.1348-10.4395L22.4902-11.0742L22.7344-12.1973Q22.832-12.6172 22.6953-12.9834Q22.5586-13.3496 22.1191-13.7891L19.9219-15.9766Q18.6719-17.2168 17.2607-17.8369Q15.8496-18.457 14.4189-18.4814Q12.9883-18.5059 11.665-17.959Q10.3418-17.4121 9.25781-16.3281ZM10.752-15.957Q11.6602-16.6211 12.7002-16.9043Q13.7402-17.1875 14.8047-17.085Q15.8691-16.9824 16.8701-16.5137Q17.8711-16.0449 18.7012-15.2051L21.1328-12.793Q21.3086-12.6172 21.3525-12.4512Q21.3965-12.2852 21.3379-12.0312L21.0156-10.5469L22.5195-9.0625L23.5059-9.12109Q23.6914-9.13086 23.7891-9.09668Q23.8867-9.0625 24.0332-8.91602L24.6094-8.33984L22.168-5.89844L21.5918-6.47461Q21.4453-6.62109 21.4062-6.71875Q21.3672-6.81641 21.377-7.01172L21.4453-7.98828L19.9512-9.47266L18.4277-9.21875Q18.1836-9.16992 18.042-9.2041Q17.9004-9.23828 17.7148-9.41406L15.7129-11.416Q15.5176-11.5918 15.4932-11.7529Q15.4688-11.9141 15.5859-12.1875L16.4648-14.2773Q15.293-15.3711 13.8281-15.791Q12.3633-16.2109 10.8398-15.7617Q10.7227-15.7324 10.6885-15.8057Q10.6543-15.8789 10.752-15.957Z"/>
  </g>
  <text style="stroke:none;fill:black;font-family:sans-serif;font-size:13;font-weight:bold;" transform="matrix(1 0 0 1 1289 1953)">Exporting</text>
  <text style="stroke:none;fill:black;font-family:sans-serif;font-size:13;" transform="matrix(1 0 0 1 1289 1971)">Symbols should be outlined when exporting to ensure the</text>
  <text style="stroke:none;fill:black;font-family:sans-serif;font-size:13;" transform="matrix(1 0 0 1 1289 1989)">design is preserved when submitting to Xcode.</text>
  <text id="template-version" style="stroke:none;fill:black;font-family:sans-serif;font-size:13;text-anchor:end;" transform="matrix(1 0 0 1 3036 1933)">Template v.2.0</text>
  <text style="stroke:none;fill:black;font-family:sans-serif;font-size:13;text-anchor:end;" transform="matrix(1 0 0 1 3036 1951)">Requires Xcode 12 or greater</text>
  <text id="descriptive-name" style="stroke:none;fill:black;font-family:sans-serif;font-size:13;text-anchor:end;" transform="matrix(1 0 0 1 3036 1969)">Generated from custom.chicken</text>
  <text style="stroke:none;fill:black;font-family:sans-serif;font-size:13;text-anchor:end;" transform="matrix(1 0 0 1 3036 1987)">Typeset at 100 points</text>
  <text style="stroke:none;fill:black;font-family:sans-serif;font-size:13;" transform="matrix(1 0 0 1 263 726)">Small</text>
  <text style="stroke:none;fill:black;font-family:sans-serif;font-size:13;" transform="matrix(1 0 0 1 263 1156)">Medium</text>
  <text style="stroke:none;fill:black;font-family:sans-serif;font-size:13;" transform="matrix(1 0 0 1 263 1586)">Large</text>
 </g>
 <g id="Guides">
  <g id="H-reference" style="fill:#27AAE1;stroke:none;" transform="matrix(1 0 0 1 339 696)">
   <path d="M0.993347 0L3.6377 0L29.3282-67.1326L30.0301-67.1326L30.0301-70.459L28.1227-70.459ZM11.6882-24.4797L46.9818-24.4797L46.2311-26.7288L12.4382-26.7288ZM55.1193 0L57.7637 0L30.6381-70.459L29.4327-70.459L29.4327-67.1326Z"/>
  </g>
  <line id="Baseline-S" style="fill:none;stroke:#27AAE1;opacity:1;stroke-width:0.5;" x1="263" x2="3036" y1="696" y2="696"/>
  <line id="Capline-S" style="fill:none;stroke:#27AAE1;opacity:1;stroke-width:0.5;" x1="263" x2="3036" y1="625.541" y2="625.541"/>
  <g id="H-reference" style="fill:#27AAE1;stroke:none;" transform="matrix(1 0 0 1 339 1126)">
   <path d="M0.993347 0L3.6377 0L29.3282-67.1326L30.0301-67.1326L30.0301-70.459L28.1227-70.459ZM11.6882-24.4797L46.9818-24.4797L46.2311-26.7288L12.4382-26.7288ZM55.1193 0L57.7637 0L30.6381-70.459L29.4327-70.459L29.4327-67.1326Z"/>
  </g>
  <line id="Baseline-M" style="fill:none;stroke:#27AAE1;opacity:1;stroke-width:0.5;" x1="263" x2="3036" y1="1126" y2="1126"/>
  <line id="Capline-M" style="fill:none;stroke:#27AAE1;opacity:1;stroke-width:0.5;" x1="263" x2="3036" y1="1055.54" y2="1055.54"/>
  <g id="H-reference" style="fill:#27AAE1;stroke:none;" transform="matrix(1 0 0 1 339 1556)">
   <path d="M0.993347 0L3.6377 0L29.3282-67.1326L30.0301-67.1326L30.0301-70.459L28.1227-70.459ZM11.6882-24.4797L46.9818-24.4797L46.2311-26.7288L12.4382-26.7288ZM55.1193 0L57.7637 0L30.6381-70.459L29.4327-70.459L29.4327-67.1326Z"/>
  </g>
  <line id="Baseline-L" style="fill:none;stroke:#27AAE1;opacity:1;stroke-width:0.5;" x1="263" x2="3036" y1="1556" y2="1556"/>
  <line id="Capline-L" style="fill:none;stroke:#27AAE1;opacity:1;stroke-width:0.5;" x1="263" x2="3036" y1="1485.54" y2="1485.54"/>
  <line id="left-margin" style="fill:none;stroke:#00AEEF;stroke-width:0.5;opacity:1.0;" x1="1391.21" x2="1391.21" y1="1030.73" y2="1150.14"/>
  <line id="right-margin" style="fill:none;stroke:#00AEEF;stroke-width:0.5;opacity:1.0;" x1="1508.47" x2="1508.47" y1="1030.73" y2="1150.14"/>
 </g>
 <g id="Symbols">
  <g id="Black-L" transform="matrix(1 0 0 1 2851.34 1556)">
   <path d="M154.276-72.105C148.776-73.205 132.376-63.405 114.876-53.505C97.3763-43.605 72.2763-54.605 62.3763-65.505C52.4763-76.405 53.0763-94.505 47.5763-102.105C46.8763-103.005 46.0763-104.005 45.2763-104.805L45.4763-104.805C55.2763-107.005 49.8763-120.705 46.5763-122.805C43.2763-124.905 36.7763-115.105 36.7763-115.105C36.7763-115.105 35.6763-120.605 26.9763-120.605C18.2763-120.605 21.4763-114.005 21.4763-114.005C21.4763-114.005 16.2763-118.205 12.7763-111.805C7.97631-103.105 14.2763-99.905 15.7763-99.305C15.0763-96.305 16.0763-94.305 16.0763-94.305L5.37631-83.905C4.67631-83.205 5.17631-82.005 6.17631-82.005L18.0763-84.105C18.0763-83.905 17.0763-73.705 22.4763-71.605C27.9763-69.405 29.0763-76.505 29.0763-76.505L29.1763-77.205C30.5763-73.805 31.0763-69.305 30.1763-63.905C28.6763-55.505 19.0763-47.605 27.4763-27.305C36.6763-4.80499 54.7763 2.29501 54.7763 2.29501C54.7763 2.29501 59.5763 21.295 76.6763 25.495C76.8763 26.895 77.2763 28.895 77.5763 29.695C78.4763 31.895 79.4763 33.495 80.4763 34.695L80.4763 40.695C78.4763 40.595 76.3763 40.495 74.3763 40.495C71.9763 40.495 69.4763 40.395 67.0763 40.395L67.0763 40.695C69.4763 41.195 71.8763 41.595 74.2763 42.095C75.2763 42.295 76.2763 42.395 77.2763 42.595C76.3763 43.095 75.4763 43.595 74.5763 44.195C73.5763 44.895 72.5763 45.595 71.6763 46.395C70.7763 47.195 69.8763 47.995 69.0763 48.995L69.0763 49.195C70.3763 48.995 71.5763 48.695 72.6763 48.295C73.8763 47.895 74.9763 47.395 76.0763 46.895C77.1763 46.395 80.8763 44.295 81.8763 43.695L82.4763 43.295C82.9763 43.295 86.0763 43.495 87.3763 43.495C88.6763 43.495 89.9763 43.595 91.2763 43.595C92.5763 43.595 93.8763 43.595 95.1763 43.495L95.1763 43.195C93.9763 42.795 92.6763 42.395 91.4763 41.995C90.2763 41.595 88.9763 41.295 87.7763 40.995C86.4763 40.695 85.1763 39.995 83.7763 40.195C83.7763 40.195 83.7763 40.195 83.7763 40.195L83.7763 34.595C84.9763 33.895 85.9763 32.095 86.6763 27.895C86.7763 27.295 86.8763 26.795 86.9763 26.295C96.6763 25.295 98.0763 19.295 98.0763 19.295C118.876 16.595 122.676 13.295 130.876 5.09501C139.076-3.10499 139.076-15.105 139.076-15.105C139.076-15.105 144.576-12.905 151.076-21.705C157.576-30.505 151.076-37.005 151.076-37.005C151.076-37.005 157.676-42.505 157.676-49.005C157.676-55.505 153.276-53.405 153.276-53.405C153.276-53.405 153.276-53.405 157.676-60.005C162.076-66.605 159.676-71.005 154.276-72.105ZM29.0763-92.805C27.2763-92.805 25.7763-94.305 25.7763-96.105C25.7763-97.905 27.2763-99.405 29.0763-99.405C30.8763-99.405 32.3763-97.905 32.3763-96.105C32.3763-94.305 30.8763-92.805 29.0763-92.805Z"/>
  </g>
  <g id="Heavy-L" transform="matrix(1 0 0 1 2555.91 1556)">
   <path d="M151.776-71.3996C146.376-72.4996 130.276-62.7996 113.076-53.0996C95.8763-43.3996 71.1763-54.1996 61.4763-64.9996C51.7763-75.7996 52.3763-93.4996 46.9763-101C46.2763-101.9 45.5763-102.8 44.6763-103.7L44.8763-103.7C54.5763-105.8 49.1763-119.3 45.9763-121.4C42.7763-123.5 36.2763-113.9 36.2763-113.9C36.2763-113.9 35.1763-119.3 26.5763-119.3C17.9763-119.3 21.1763-112.9 21.1763-112.9C21.1763-112.9 16.0763-117.1 12.5763-110.8C7.77631-102.2 13.9763-99.0996 15.4763-98.5996C14.7763-95.5996 15.7763-93.5996 15.7763-93.5996L5.37631-83.0996C4.67631-82.3996 5.17631-81.1996 6.17631-81.1996L17.8763-83.1996C17.8763-82.9996 16.8763-72.9996 22.1763-70.8996C27.5763-68.7996 28.5763-75.6996 28.5763-75.6996L28.6763-76.3996C30.0763-72.9996 30.5763-68.5996 29.5763-63.3996C28.0763-55.0996 18.5763-47.2996 26.8763-27.3996C35.9763-5.39964 53.7763 1.60036 53.7763 1.60036C53.7763 1.60036 58.5763 20.4004 75.4763 24.4004C75.6763 25.8004 75.9763 27.7004 76.3763 28.5004C77.2763 30.6004 78.2763 32.3004 79.1763 33.4004L79.1763 39.3004C77.1763 39.2004 75.1763 39.1004 73.1763 39.1004C70.7763 39.1004 68.3763 39.0004 65.9763 39.0004L65.9763 39.3004C68.3763 39.8004 70.6763 40.2004 73.0763 40.7004C74.0763 40.9004 75.0763 41.0004 76.0763 41.2004C75.1763 41.7004 74.2763 42.2004 73.3763 42.7004C72.3763 43.4004 71.4763 44.1004 70.5763 44.9004C69.6763 45.7004 68.7763 46.5004 67.9763 47.5004L68.1763 47.8004C69.4763 47.6004 70.5763 47.3004 71.7763 46.9004C72.8763 46.5004 73.9763 46.0004 75.0763 45.5004C76.1763 45.0004 79.7763 43.0004 80.7763 42.3004L81.3763 41.9004C81.7763 41.9004 84.9763 42.1004 86.2763 42.1004C87.5763 42.1004 88.7763 42.2004 90.0763 42.2004C91.3763 42.2004 92.5763 42.2004 93.8763 42.1004L93.8763 41.8004C92.6763 41.4004 91.4763 41.0004 90.1763 40.6004C88.9763 40.2004 87.7763 39.9004 86.4763 39.6004C85.1763 39.3004 83.8763 38.6004 82.5763 38.8004C82.5763 38.8004 82.5763 38.8004 82.5763 38.8004L82.5763 33.3004C83.7763 32.6004 84.7763 30.9004 85.4763 26.7004C85.5763 26.2004 85.6763 25.6004 85.7763 25.1004C95.2763 24.1004 96.6763 18.3004 96.6763 18.3004C117.076 15.6004 120.876 12.4004 128.876 4.30036C136.976-3.79964 136.976-15.5996 136.976-15.5996C136.976-15.5996 142.376-13.4996 148.776-21.9996C155.176-30.4996 148.776-36.9996 148.776-36.9996C148.776-36.9996 155.176-42.3996 155.176-48.7996C155.176-55.1996 150.876-53.0996 150.876-53.0996C150.876-53.0996 150.876-53.0996 155.176-59.4996C159.476-65.8996 157.176-70.3996 151.776-71.3996ZM28.6763-91.8996C26.8763-91.8996 25.4763-93.2996 25.4763-95.0996C25.4763-96.8996 26.8763-98.2996 28.6763-98.2996C30.4763-98.2996 31.8763-96.8996 31.8763-95.0996C31.8763-93.2996 30.4763-91.8996 28.6763-91.8996Z"/>
  </g>
  <g id="Bold-L" transform="matrix(1 0 0 1 2260.9 1556)">
   <path d="M148.676-70.6969C143.376-71.7969 127.676-62.2969 110.776-52.7969C93.8763-43.2969 69.7763-53.8969 60.2763-64.3969C50.7763-74.8969 51.2763-92.2969 46.0763-99.5969C45.3763-100.497 44.6763-101.397 43.7763-102.197L43.9763-102.197C53.4763-104.297 48.1763-117.497 45.0763-119.597C41.8763-121.697 35.5763-112.197 35.5763-112.197C35.5763-112.197 34.4763-117.497 26.0763-117.497C17.6763-117.497 20.7763-111.197 20.7763-111.197C20.7763-111.197 15.7763-115.297 12.3763-109.097C7.67631-100.697 13.7763-97.6969 15.2763-97.0969C14.5763-94.1969 15.5763-92.2969 15.5763-92.2969L5.37631-82.0969C4.67631-81.3969 5.17631-80.1969 6.17631-80.2969L17.6763-82.2969C17.6763-82.0969 16.6763-72.2969 21.8763-70.1969C27.1763-68.0969 28.1763-74.8969 28.1763-74.8969L28.2763-75.5969C29.5763-72.2969 30.1763-67.9969 29.1763-62.7969C27.6763-54.6969 18.4763-47.0969 26.5763-27.5969C35.5763-5.99689 52.8763 0.903106 52.8763 0.903106C52.8763 0.903106 57.4763 19.2031 73.9763 23.2031C74.1763 24.5031 74.4763 26.4031 74.8763 27.2031C75.7763 29.3031 76.6763 30.9031 77.6763 32.0031L77.6763 37.7031C75.6763 37.6031 73.7763 37.6031 71.7763 37.5031C69.3763 37.5031 67.0763 37.4031 64.6763 37.4031L64.6763 37.7031C66.9763 38.2031 69.2763 38.6031 71.5763 39.0031C72.5763 39.2031 73.4763 39.3031 74.4763 39.5031C73.5763 39.9031 72.6763 40.4031 71.8763 41.0031C70.9763 41.7031 69.9763 42.4031 69.0763 43.1031C68.1763 43.9031 67.2763 44.7031 66.5763 45.7031L66.7763 46.0031C67.9763 45.8031 69.1763 45.5031 70.2763 45.1031C71.3763 44.7031 72.4763 44.3031 73.4763 43.8031C74.4763 43.3031 78.0763 41.3031 78.9763 40.7031L79.5763 40.3031C79.9763 40.3031 83.0763 40.5031 84.3763 40.5031C85.5763 40.5031 86.8763 40.6031 88.0763 40.6031C89.3763 40.6031 90.5763 40.6031 91.8763 40.5031L91.8763 40.2031C90.6763 39.8031 89.4763 39.4031 88.2763 39.1031C87.0763 38.7031 85.8763 38.4031 84.6763 38.1031C83.3763 37.8031 82.1763 37.1031 80.7763 37.3031C80.7763 37.3031 80.7763 37.3031 80.7763 37.3031L80.7763 31.9031C81.8763 31.2031 82.8763 29.5031 83.5763 25.5031C83.6763 25.0031 83.7763 24.5031 83.7763 24.0031C93.0763 23.1031 94.3763 17.3031 94.3763 17.3031C114.376 14.7031 118.076 11.5031 125.976 3.60311C133.876-4.29689 133.876-15.8969 133.876-15.8969C133.876-15.8969 139.176-13.7969 145.476-22.1969C151.776-30.5969 145.476-36.8969 145.476-36.8969C145.476-36.8969 151.776-42.1969 151.776-48.4969C151.776-54.7969 147.576-52.6969 147.576-52.6969C147.576-52.6969 147.576-52.6969 151.776-58.9969C155.976-65.3969 153.876-69.5969 148.676-70.6969ZM28.1763-90.6969C26.4763-90.6969 24.9763-92.0969 24.9763-93.8969C24.9763-95.6969 26.3763-97.0969 28.1763-97.0969C29.8763-97.0969 31.3763-95.6969 31.3763-93.8969C31.3763-92.0969 29.8763-90.6969 28.1763-90.6969Z"/>
  </g>
  <g id="Semibold-L" transform="matrix(1 0 0 1 1965.75 1556)">
   <path d="M145.676-69.9912C140.576-70.9912 125.076-61.7912 108.576-52.4912C92.0763-43.1912 68.4763-53.4912 59.1763-63.7912C49.8763-74.0912 50.3763-91.0912 45.2763-98.2912C44.6763-99.1912 43.8763-99.9912 43.0763-100.791L43.1763-100.791C52.4763-102.891 47.2763-115.691 44.1763-117.791C41.0763-119.891 34.8763-110.591 34.8763-110.591C34.8763-110.591 33.8763-115.691 25.5763-115.691C17.2763-115.691 20.4763-109.491 20.4763-109.491C20.4763-109.491 15.5763-113.491 12.2763-107.391C7.67631-99.1912 13.6763-96.1912 15.0763-95.6912C14.3763-92.8912 15.3763-90.9912 15.3763-90.9912L5.37631-80.9912C4.67631-80.2912 5.17631-79.1912 6.17631-79.1912L17.3763-81.0912C17.3763-80.8912 16.3763-71.2912 21.4763-69.2912C26.5763-67.1912 27.6763-73.8912 27.6763-73.8912L27.7763-74.4912C29.0763-71.2912 29.5763-67.0912 28.6763-61.9912C27.2763-54.0912 18.1763-46.5912 26.0763-27.4912C34.9763-6.69124 51.9763 0.00875866 51.9763 0.00875866C51.9763 0.00875866 56.4763 17.9088 72.5763 21.8088C72.7763 23.1088 73.0763 25.0088 73.4763 25.7088C74.3763 27.7088 75.2763 29.3088 76.1763 30.4088L76.1763 36.0088C74.2763 35.9088 72.2763 35.9088 70.3763 35.8088C68.0763 35.8088 65.7763 35.7088 63.4763 35.7088L63.4763 36.0088C65.7763 36.5088 67.9763 36.9088 70.2763 37.3088C71.1763 37.5088 72.1763 37.6088 73.0763 37.8088C72.1763 38.2088 71.3763 38.7088 70.4763 39.3088C69.5763 40.0088 68.6763 40.6088 67.7763 41.4088C66.8763 42.1088 66.0763 43.0088 65.2763 43.9088L65.4763 44.2088C66.6763 44.0088 67.7763 43.7088 68.8763 43.3088C69.9763 42.9088 70.9763 42.5088 72.0763 42.0088C73.0763 41.5088 76.5763 39.6088 77.4763 38.9088L78.0763 38.5088C78.4763 38.5088 81.4763 38.7088 82.6763 38.7088C83.8763 38.7088 85.0763 38.8088 86.2763 38.8088C87.4763 38.8088 88.6763 38.8088 89.9763 38.7088L89.9763 38.4088C88.7763 38.0088 87.6763 37.7088 86.4763 37.3088C85.2763 37.0088 84.1763 36.6088 82.9763 36.3088C81.6763 36.0088 80.4763 35.3088 79.1763 35.5088C79.1763 35.5088 79.1763 35.5088 79.1763 35.5088L79.1763 30.2088C80.2763 29.5088 81.2763 27.9088 81.8763 23.9088C81.9763 23.4088 82.0763 22.9088 82.0763 22.4088C91.1763 21.5088 92.4763 15.8088 92.4763 15.8088C112.076 13.2088 115.676 10.1088 123.376 2.40876C131.076-5.29124 131.076-16.5912 131.076-16.5912C131.076-16.5912 136.176-14.4912 142.376-22.7912C148.576-31.0912 142.376-37.1912 142.376-37.1912C142.376-37.1912 148.576-42.2912 148.576-48.4912C148.576-54.6912 144.476-52.5912 144.476-52.5912C144.476-52.5912 144.476-52.5912 148.576-58.7912C152.876-64.8912 150.776-68.9912 145.676-69.9912ZM27.7763-89.5912C26.0763-89.5912 24.6763-90.9912 24.6763-92.6912C24.6763-94.3912 26.0763-95.7912 27.7763-95.7912C29.4763-95.7912 30.8763-94.3912 30.8763-92.6912C30.8763-90.9912 29.4763-89.5912 27.7763-89.5912Z"/>
  </g>
  <g id="Medium-L" transform="matrix(1 0 0 1 1670.65 1556)">
   <path d="M142.576-69.21C137.576-70.21 122.476-61.11 106.376-52.11C90.2763-43.11 67.0763-53.11 58.0763-63.21C49.0763-73.31 49.4763-89.91 44.4763-96.91C43.8763-97.81 43.0763-98.61 42.2763-99.41L42.3763-99.41C51.4763-101.41 46.3763-114.01 43.3763-116.01C40.3763-118.01 34.2763-109.01 34.2763-109.01C34.2763-109.01 33.2763-114.01 25.1763-114.01C17.0763-114.01 20.1763-108.01 20.1763-108.01C20.1763-108.01 15.3763-111.91 12.0763-106.01C7.57631-98.01 13.3763-95.11 14.7763-94.51C14.0763-91.71 15.0763-89.91 15.0763-89.91L5.37631-80.21C4.67631-79.51 5.17631-78.41 6.17631-78.51L17.1763-80.41C17.1763-80.21 16.2763-70.81 21.1763-68.81C26.1763-66.81 27.1763-73.31 27.1763-73.31L27.2763-73.91C28.5763-70.71 29.0763-66.61 28.1763-61.71C26.7763-54.01 17.8763-46.71 25.6763-28.01C34.3763-7.31 50.9763-0.71 50.9763-0.71C50.9763-0.71 55.3763 16.79 71.1763 20.59C71.3763 21.89 71.6763 23.69 71.9763 24.49C72.8763 26.49 73.7763 27.99 74.5763 29.09L74.5763 34.59C72.6763 34.49 70.7763 34.49 68.8763 34.39C66.5763 34.39 64.3763 34.29 62.0763 34.29L62.0763 34.59C64.2763 35.09 66.4763 35.39 68.6763 35.89C69.5763 36.09 70.4763 36.19 71.4763 36.39C70.5763 36.79 69.7763 37.29 68.9763 37.89C68.0763 38.49 67.1763 39.19 66.2763 39.89C65.3763 40.59 64.5763 41.39 63.8763 42.29L64.0763 42.59C65.2763 42.39 66.3763 42.09 67.3763 41.69C68.4763 41.29 69.4763 40.89 70.4763 40.39C71.4763 39.89 74.8763 37.99 75.7763 37.39L76.3763 36.99C76.7763 36.99 79.7763 37.19 80.8763 37.19C82.0763 37.19 83.2763 37.29 84.4763 37.29C85.6763 37.29 86.8763 37.29 88.0763 37.19L88.0763 36.89C86.9763 36.49 85.7763 36.19 84.6763 35.79C83.5763 35.49 82.3763 35.09 81.2763 34.89C80.0763 34.59 78.8763 33.99 77.5763 34.09C77.5763 34.09 77.5763 34.09 77.5763 34.09L77.5763 28.99C78.6763 28.29 79.5763 26.69 80.2763 22.89C80.3763 22.39 80.4763 21.89 80.4763 21.39C89.3763 20.49 90.6763 14.99 90.6763 14.99C109.776 12.49 113.276 9.49 120.876 1.89C128.476-5.71 128.376-16.71 128.376-16.71C128.376-16.71 133.376-14.71 139.476-22.71C145.576-30.71 139.476-36.81 139.476-36.81C139.476-36.81 145.476-41.81 145.476-47.91C145.476-54.01 141.476-51.91 141.476-51.91C141.476-51.91 141.476-51.91 145.476-57.91C149.476-63.91 147.676-68.21 142.576-69.21ZM27.3763-88.31C25.6763-88.31 24.3763-89.71 24.3763-91.31C24.3763-92.91 25.7763-94.31 27.3763-94.31C29.0763-94.31 30.3763-92.91 30.3763-91.31C30.3763-89.71 28.9763-88.31 27.3763-88.31Z"/>
  </g>
  <g id="Regular-L" transform="matrix(1 0 0 1 1375.61 1556)">
   <path d="M139.335-68.5072C134.435-69.5072 119.635-60.6072 103.935-51.8072C88.2353-43.0072 65.5353-52.8072 56.7353-62.6072C47.9353-72.4072 48.3353-88.7072 43.4353-95.6072C42.8353-96.5072 42.1353-97.3072 41.3353-98.0072L41.4353-98.0072C50.3353-100.007 45.3353-112.307 42.4353-114.207C39.4353-116.207 33.5353-107.307 33.5353-107.307C33.5353-107.307 32.5353-112.207 24.6353-112.207C16.7353-112.207 19.7353-106.307 19.7353-106.307C19.7353-106.307 15.0353-110.107 11.8353-104.307C7.5353-96.6072 13.2353-93.7072 14.5353-93.2072C13.8353-90.5072 14.8353-88.7072 14.8353-88.7072L5.3353-79.2072C4.7353-78.6072 5.1353-77.5072 6.0353-77.5072L16.7353-79.4072C16.7353-79.2072 15.8353-70.0072 20.6353-68.1072C25.5353-66.1072 26.5353-72.5072 26.5353-72.5072L26.6353-73.1072C27.8353-70.0072 28.3353-66.0072 27.5353-61.2072C26.1353-53.6072 17.5353-46.5072 25.0353-28.2072C33.5353-8.00717 49.7353-1.60717 49.7353-1.60717C49.7353-1.60717 54.0353 15.4928 69.4353 19.2928C69.6353 20.4928 69.9353 22.2928 70.2353 23.0928C71.0353 24.9928 71.9353 26.5928 72.8353 27.5928L72.8353 32.9928C71.0353 32.8928 69.1353 32.8928 67.3353 32.7928C65.1353 32.7928 62.9353 32.6928 60.7353 32.6928L60.7353 32.9928C62.9353 33.4928 65.0353 33.7928 67.2353 34.1928C68.1353 34.3928 69.0353 34.4928 69.9353 34.6928C69.1353 35.0928 68.2353 35.5928 67.5353 36.0928C66.6353 36.6928 65.7353 37.3928 64.9353 38.0928C64.1353 38.7928 63.3353 39.5928 62.5353 40.4928L62.6353 40.7928C63.7353 40.5928 64.8353 40.2928 65.9353 39.9928C66.9353 39.5928 67.9353 39.1928 68.9353 38.7928C69.9353 38.2928 73.2353 36.4928 74.1353 35.8928L74.7353 35.4928C75.1353 35.4928 78.0353 35.6928 79.1353 35.6928C80.3353 35.6928 81.4353 35.7928 82.6353 35.7928C83.8353 35.7928 84.9353 35.7928 86.1353 35.6928L86.1353 35.3928C85.0353 34.9928 83.9353 34.6928 82.8353 34.2928C81.7353 33.9928 80.6353 33.6928 79.4353 33.3928C78.2353 33.0928 77.1353 32.4928 75.8353 32.5928C75.8353 32.5928 75.8353 32.5928 75.8353 32.5928L75.8353 27.5928C76.9353 26.8928 77.8353 25.3928 78.4353 21.5928C78.5353 21.0928 78.6353 20.5928 78.6353 20.1928C87.3353 19.2928 88.6353 13.8928 88.6353 13.8928C107.335 11.3928 110.735 8.49283 118.135 1.09283C125.535-6.30717 125.535-17.1072 125.535-17.1072C125.535-17.1072 130.435-15.1072 136.335-23.0072C142.235-30.9072 136.335-36.8072 136.335-36.8072C136.335-36.8072 142.235-41.7072 142.235-47.6072C142.235-53.5072 138.335-51.5072 138.335-51.5072C138.335-51.5072 138.335-51.5072 142.235-57.4072C146.135-63.3072 144.235-67.5072 139.335-68.5072ZM26.6353-87.2072C25.0353-87.2072 23.6353-88.5072 23.6353-90.2072C23.6353-91.9072 24.9353-93.2072 26.6353-93.2072C28.2353-93.2072 29.6353-91.9072 29.6353-90.2072C29.6353-88.5072 28.2353-87.2072 26.6353-87.2072Z"/>
  </g>
  <g id="Light-L" transform="matrix(1 0 0 1 1080.78 1556)">
   <path d="M135.635-67.4259C130.835-68.4259 116.535-59.7259 101.235-51.1259C85.9353-42.5259 63.9353-52.1259 55.3353-61.6259C46.7353-71.1259 47.2353-86.9259 42.4353-93.6259C41.8353-94.4259 41.1353-95.2259 40.3353-96.0259L40.4353-96.0259C49.0353-97.9259 44.2353-109.926 41.4353-111.826C38.5353-113.726 32.8353-105.126 32.8353-105.126C32.8353-105.126 31.8353-109.926 24.2353-109.926C16.6353-109.926 19.4353-104.226 19.4353-104.226C19.4353-104.226 14.9353-107.926 11.7353-102.326C7.5353-94.7259 13.0353-91.9259 14.3353-91.4259C13.6353-88.8259 14.6353-87.0259 14.6353-87.0259L5.3353-77.7259C4.7353-77.1259 5.1353-76.0259 6.0353-76.0259L16.4353-77.8259C16.4353-77.6259 15.5353-68.7259 20.2353-66.8259C25.0353-64.9259 25.9353-71.1259 25.9353-71.1259L26.0353-71.7259C27.2353-68.7259 27.7353-64.8259 26.8353-60.1259C25.5353-52.7259 17.0353-45.8259 24.4353-28.1259C32.8353-8.62589 48.6353-2.32589 48.6353-2.32589C48.6353-2.32589 52.8353 14.3741 67.8353 17.9741C68.0353 19.1741 68.3353 20.8741 68.6353 21.6741C69.4353 23.5741 70.3353 25.0741 71.1353 25.9741L71.1353 31.1741C69.3353 31.0741 67.5353 31.0741 65.7353 30.9741C63.6353 30.9741 61.4353 30.8741 59.3353 30.8741L59.3353 31.1741C61.4353 31.5741 63.5353 31.9741 65.6353 32.3741C66.5353 32.5741 67.4353 32.6741 68.2353 32.7741C67.4353 33.1741 66.6353 33.6741 65.8353 34.1741C64.9353 34.7741 64.1353 35.3741 63.3353 36.0741C62.5353 36.7741 61.7353 37.4741 61.0353 38.3741L61.1353 38.5741C62.2353 38.3741 63.3353 38.0741 64.3353 37.7741C65.3353 37.4741 66.3353 36.9741 67.2353 36.5741C68.2353 36.0741 71.4353 34.3741 72.2353 33.7741L72.7353 33.3741C73.1353 33.3741 75.9353 33.5741 77.0353 33.5741C78.1353 33.5741 79.3353 33.6741 80.4353 33.5741C81.5353 33.5741 82.7353 33.5741 83.8353 33.4741L83.8353 33.1741C82.7353 32.7741 81.6353 32.4741 80.6353 32.1741C79.5353 31.8741 78.4353 31.5741 77.3353 31.2741C76.1353 30.9741 75.0353 30.3741 73.8353 30.5741C73.8353 30.5741 73.8353 30.5741 73.8353 30.5741L73.8353 25.6741C74.8353 25.0741 75.7353 23.4741 76.4353 19.8741C76.5353 19.3741 76.6353 18.9741 76.6353 18.4741C85.1353 17.5741 86.3353 12.3741 86.3353 12.3741C104.535 9.97411 107.835 7.07411 115.035-0.0258929C122.235-7.22589 122.235-17.7259 122.235-17.7259C122.235-17.7259 127.035-15.8259 132.735-23.4259C138.435-31.1259 132.735-36.8259 132.735-36.8259C132.735-36.8259 138.535-41.6259 138.535-47.3259C138.535-53.0259 134.735-51.1259 134.735-51.1259C134.735-51.1259 134.735-51.1259 138.535-56.8259C142.335-62.6259 140.435-66.4259 135.635-67.4259ZM26.1353-85.6259C24.5353-85.6259 23.2353-86.9259 23.2353-88.5259C23.2353-90.1259 24.5353-91.4259 26.1353-91.4259C27.7353-91.4259 29.0353-90.1259 29.0353-88.5259C29.0353-86.8259 27.7353-85.6259 26.1353-85.6259Z"/>
  </g>
  <g id="Thin-L" transform="matrix(1 0 0 1 785.967 1556)">
   <path d="M131.935-66.1445C127.335-67.0445 113.335-58.7445 98.4353-50.3445C83.5353-41.9445 62.2353-51.2445 53.8353-60.5445C45.4353-69.8445 45.9353-85.2445 41.3353-91.7445C40.7353-92.5445 40.1353-93.3445 39.3353-94.0445L39.4353-94.0445C47.8353-95.9445 43.1353-107.544 40.3353-109.344C37.5353-111.144 31.9353-102.844 31.9353-102.844C31.9353-102.844 31.0353-107.444 23.5353-107.444C16.0353-107.444 18.9353-101.844 18.9353-101.844C18.9353-101.844 14.5353-105.444 11.5353-99.9445C7.4353-92.5445 12.7353-89.8445 14.0353-89.3445C13.4353-86.7445 14.3353-85.0445 14.3353-85.0445L5.3353-76.0445C4.7353-75.4445 5.1353-74.4445 6.0353-74.4445L16.1353-76.2445C16.1353-76.0445 15.2353-67.4445 19.8353-65.5445C24.4353-63.6445 25.4353-69.7445 25.4353-69.7445L25.5353-70.3445C26.7353-67.4445 27.1353-63.6445 26.3353-59.0445C25.0353-51.9445 16.8353-45.1445 24.0353-27.9445C32.0353-9.04448 47.3353-3.04448 47.3353-3.04448C47.3353-3.04448 51.3353 13.1555 65.9353 16.6555C66.1353 17.8555 66.4353 19.5555 66.7353 20.2555C67.5353 22.0555 68.3353 23.5555 69.1353 24.4555L69.1353 29.5555C67.4353 29.4555 65.6353 29.4555 63.9353 29.3555C61.8353 29.3555 59.7353 29.2555 57.7353 29.2555L57.7353 29.5555C59.7353 29.9555 61.8353 30.3555 63.8353 30.7555C64.6353 30.9555 65.5353 31.0555 66.4353 31.1555C65.6353 31.5555 64.8353 31.9555 64.1353 32.4555C63.3353 33.0555 62.4353 33.6555 61.7353 34.3555C60.9353 35.0555 60.1353 35.7555 59.5353 36.6555L59.6353 36.8555C60.7353 36.6555 61.7353 36.3555 62.7353 36.0555C63.7353 35.7555 64.6353 35.3555 65.6353 34.8555C66.5353 34.4555 69.6353 32.6555 70.5353 32.0555L71.0353 31.6555C71.4353 31.6555 74.1353 31.8555 75.2353 31.8555C76.3353 31.8555 77.4353 31.9555 78.5353 31.8555C79.6353 31.8555 80.7353 31.8555 81.8353 31.7555L81.8353 31.4555C80.8353 31.0555 79.7353 30.7555 78.6353 30.4555C77.5353 30.1555 76.5353 29.8555 75.4353 29.5555C74.3353 29.2555 73.2353 28.6555 72.0353 28.8555C72.0353 28.8555 72.0353 28.8555 72.0353 28.8555L72.0353 24.1555C73.0353 23.5555 73.9353 22.0555 74.5353 18.4555C74.6353 17.9555 74.6353 17.5555 74.7353 17.1555C82.9353 16.3555 84.1353 11.2555 84.1353 11.2555C101.835 8.95552 105.035 6.15552 112.035-0.844483C119.035-7.84448 119.035-18.0445 119.035-18.0445C119.035-18.0445 123.635-16.1445 129.235-23.6445C134.835-31.0445 129.235-36.6445 129.235-36.6445C129.235-36.6445 134.835-41.2445 134.835-46.8445C134.835-52.4445 131.135-50.5445 131.135-50.5445C131.135-50.5445 131.135-50.5445 134.835-56.1445C138.535-61.7445 136.535-65.2445 131.935-66.1445ZM25.5353-83.8445C24.0353-83.8445 22.7353-85.0445 22.7353-86.6445C22.7353-88.2445 23.9353-89.4445 25.5353-89.4445C27.0353-89.4445 28.3353-88.2445 28.3353-86.6445C28.3353-85.0445 27.0353-83.8445 25.5353-83.8445Z"/>
  </g>
  <g id="Ultralight-L" transform="matrix(1 0 0 1 491.273 1556)">
   <path d="M128.135-65.239C123.635-66.139 110.135-58.039 95.6353-49.939C81.1353-41.839 60.4353-50.839 52.3353-59.839C44.2353-68.839 44.6353-83.739 40.1353-90.039C39.5353-90.839 38.9353-91.539 38.2353-92.239L38.3353-92.239C46.4353-94.039 41.9353-105.339 39.2353-107.139C36.5353-108.939 31.1353-100.839 31.1353-100.839C31.1353-100.839 30.2353-105.339 23.0353-105.339C15.8353-105.339 18.5353-99.939 18.5353-99.939C18.5353-99.939 14.2353-103.439 11.3353-98.139C7.3353-90.939 12.5353-88.339 13.7353-87.839C13.1353-85.339 14.0353-83.639 14.0353-83.639L5.3353-74.939C4.7353-74.339 5.1353-73.339 6.0353-73.339L15.8353-75.039C15.8353-74.839 15.0353-66.439 19.4353-64.639C23.9353-62.839 24.8353-68.739 24.8353-68.739L24.9353-69.339C26.0353-66.539 26.5353-62.839 25.7353-58.439C24.4353-51.539 16.5353-44.939 23.4353-28.239C31.1353-9.739 46.0353-3.939 46.0353-3.939C46.0353-3.939 49.9353 11.761 64.1353 15.161C64.3353 16.261 64.6353 17.961 64.9353 18.661C65.7353 20.461 66.5353 21.861 67.3353 22.761L67.3353 27.661C65.6353 27.561 63.9353 27.561 62.2353 27.461C60.2353 27.461 58.2353 27.361 56.1353 27.361L56.1353 27.661C58.1353 28.061 60.1353 28.461 62.0353 28.761C62.8353 28.861 63.7353 29.061 64.5353 29.161C63.7353 29.561 63.0353 29.961 62.3353 30.461C61.5353 31.061 60.7353 31.661 59.9353 32.261C59.1353 32.961 58.4353 33.661 57.7353 34.461L57.8353 34.661C58.9353 34.461 59.8353 34.261 60.8353 33.861C61.8353 33.561 62.7353 33.161 63.6353 32.761C64.5353 32.361 67.5353 30.661 68.3353 30.061L68.8353 29.761C69.2353 29.761 71.8353 29.961 72.9353 29.961C74.0353 29.961 75.0353 30.061 76.1353 29.961C77.2353 29.961 78.2353 29.961 79.3353 29.861L79.3353 29.561C78.3353 29.161 77.3353 28.861 76.2353 28.561C75.2353 28.261 74.1353 27.961 73.1353 27.661C72.0353 27.361 70.9353 26.861 69.8353 26.961C69.8353 26.961 69.8353 26.961 69.8353 26.961L69.8353 22.361C70.8353 21.761 71.6353 20.361 72.2353 16.861C72.3353 16.361 72.3353 15.961 72.4353 15.561C80.4353 14.761 81.5353 9.861 81.5353 9.861C98.6353 7.561 101.835 4.861 108.635-1.839C115.435-8.639 115.435-18.539 115.435-18.539C115.435-18.539 119.935-16.739 125.335-23.939C130.735-31.139 125.335-36.539 125.335-36.539C125.335-36.539 130.735-41.039 130.735-46.439C130.735-51.839 127.135-50.039 127.135-50.039C127.135-50.039 127.135-50.039 130.735-55.439C134.435-60.739 132.635-64.339 128.135-65.239ZM24.8353-82.339C23.3353-82.339 22.1353-83.539 22.1353-85.039C22.1353-86.539 23.3353-87.739 24.8353-87.739C26.3353-87.739 27.5353-86.539 27.5353-85.039C27.5353-83.539 26.3353-82.339 24.8353-82.339Z"/>
  </g>
  <g id="Black-M" transform="matrix(1 0 0 1 2868.76 1126)">
   <path d="M120.718-64.0521C116.518-64.8521 103.818-57.2521 90.2177-49.6521C76.6177-42.0521 57.2177-50.4521 49.5177-58.9521C41.8177-67.4521 42.3177-81.4521 38.1177-87.4521C37.6177-88.1521 37.0177-88.8521 36.3177-89.5521L36.4177-89.5521C44.0177-91.2521 39.8177-101.852 37.2177-103.552C34.7177-105.252 29.6177-97.6521 29.6177-97.6521C29.6177-97.6521 28.8177-101.852 22.0177-101.852C15.2177-101.852 17.8177-96.7521 17.8177-96.7521C17.8177-96.7521 13.8177-100.052 11.0177-95.0521C7.2177-88.2521 12.1177-85.8521 13.3177-85.3521C12.7177-83.0521 13.5177-81.4521 13.5177-81.4521L5.3177-73.2521C4.7177-72.6521 5.2177-71.7521 5.9177-71.7521L15.2177-73.3521C15.2177-73.1521 14.4177-65.2521 18.6177-63.6521C22.8177-61.9521 23.7177-67.4521 23.7177-67.4521L23.8177-67.9521C24.9177-65.2521 25.3177-61.8521 24.5177-57.6521C23.3177-51.1521 15.9177-44.9521 22.4177-29.2521C29.6177-11.9521 43.6177-6.45209 43.6177-6.45209C43.6177-6.45209 47.3177 8.34791 60.6177 11.5479C60.8177 12.6479 61.0177 14.1479 61.3177 14.7479C62.0177 16.4479 62.8177 17.7479 63.5177 18.5479L63.5177 23.1479C61.9177 23.0479 60.3177 23.0479 58.7177 22.9479C56.8177 22.9479 54.9177 22.8479 53.0177 22.8479L53.0177 23.1479C54.9177 23.5479 56.7177 23.8479 58.6177 24.2479C59.4177 24.3479 60.2177 24.5479 60.9177 24.6479C60.2177 25.0479 59.5177 25.4479 58.8177 25.8479C58.0177 26.3479 57.3177 26.9479 56.6177 27.5479C55.9177 28.1479 55.2177 28.8479 54.6177 29.6479L54.7177 29.8479C55.7177 29.6479 56.6177 29.4479 57.5177 29.1479C58.4177 28.8479 59.3177 28.4479 60.1177 28.0479C60.9177 27.6479 63.8177 26.0479 64.6177 25.5479L65.1177 25.2479C65.5177 25.2479 67.9177 25.3479 68.9177 25.4479C69.9177 25.4479 70.9177 25.5479 71.9177 25.4479C72.9177 25.4479 73.9177 25.4479 74.9177 25.3479L74.9177 25.0479C73.9177 24.7479 73.0177 24.4479 72.0177 24.1479C71.0177 23.8479 70.1177 23.5479 69.1177 23.3479C68.1177 23.0479 67.1177 22.5479 66.0177 22.6479C66.0177 22.6479 66.0177 22.6479 66.0177 22.6479L66.0177 18.3479C66.9177 17.7479 67.7177 16.4479 68.3177 13.1479C68.4177 12.7479 68.4177 12.3479 68.5177 11.9479C76.0177 11.1479 77.1177 6.54791 77.1177 6.54791C93.2177 4.44791 96.2177 1.84791 102.518-4.45209C108.918-10.8521 108.918-20.1521 108.918-20.1521C108.918-20.1521 113.118-18.4521 118.218-25.2521C123.318-32.0521 118.218-37.1521 118.218-37.1521C118.218-37.1521 123.318-41.3521 123.318-46.4521C123.318-51.5521 119.918-49.8521 119.918-49.8521C119.918-49.8521 119.918-49.8521 123.318-54.9521C126.718-60.0521 125.018-63.2521 120.718-64.0521ZM23.7177-80.1521C22.3177-80.1521 21.2177-81.2521 21.2177-82.6521C21.2177-84.0521 22.3177-85.1521 23.7177-85.1521C25.1177-85.1521 26.2177-84.0521 26.2177-82.6521C26.2177-81.3521 25.1177-80.1521 23.7177-80.1521Z"/>
  </g>
  <g id="Heavy-M" transform="matrix(1 0 0 1 2572.97 1126)">
   <path d="M118.973-63.5735C114.773-64.3735 102.273-56.8735 88.9734-49.3735C75.6734-41.8735 56.4734-50.1735 48.9734-58.5735C41.4734-66.9735 41.8734-80.5735 37.6734-86.4735C37.1734-87.1735 36.5734-87.8735 35.8734-88.5735L35.9734-88.5735C43.4734-90.2735 39.2734-100.673 36.7734-102.273C34.2734-103.873 29.2734-96.4735 29.2734-96.4735C29.2734-96.4735 28.4734-100.673 21.7734-100.673C15.0734-100.673 17.5734-95.6735 17.5734-95.6735C17.5734-95.6735 13.5734-98.8735 10.8734-93.9735C7.1734-87.3735 11.9734-84.9735 13.1734-84.4735C12.5734-82.1735 13.3734-80.6735 13.3734-80.6735L5.2734-72.5735C4.7734-72.0735 5.1734-71.0735 5.8734-71.1735L14.9734-72.7735C14.9734-72.5735 14.1734-64.8735 18.2734-63.1735C22.4734-61.4735 23.2734-66.8735 23.2734-66.8735L23.3734-67.3735C24.4734-64.7735 24.8734-61.3735 24.0734-57.2735C23.1734-50.8735 15.8734-44.8735 22.2734-29.3735C29.3734-12.2735 43.0734-6.87347 43.0734-6.87347C43.0734-6.87347 46.7734 7.62653 59.7734 10.8265C59.9734 11.9265 60.1734 13.4265 60.4734 14.0265C61.1734 15.6265 61.9734 16.9265 62.6734 17.8265L62.6734 22.3265C61.0734 22.2265 59.5734 22.2265 57.9734 22.2265C56.0734 22.2265 54.2734 22.1265 52.3734 22.1265L52.3734 22.3265C54.1734 22.7265 56.0734 23.0265 57.8734 23.4265C58.6734 23.5265 59.3734 23.7265 60.1734 23.8265C59.4734 24.2265 58.7734 24.5265 58.0734 25.0265C57.2734 25.5265 56.5734 26.1265 55.8734 26.7265C55.1734 27.3265 54.4734 28.0265 53.8734 28.7265L53.9734 28.9265C54.9734 28.8265 55.8734 28.5265 56.7734 28.2265C57.6734 27.9265 58.4734 27.5265 59.3734 27.2265C60.1734 26.8265 62.9734 25.2265 63.7734 24.7265L64.2734 24.4265C64.5734 24.4265 67.0734 24.5265 68.0734 24.6265C69.0734 24.6265 70.0734 24.6265 71.0734 24.6265C72.0734 24.6265 73.0734 24.6265 74.0734 24.5265L74.0734 24.3265C73.1734 24.0265 72.1734 23.7265 71.2734 23.4265C70.3734 23.1265 69.3734 22.9265 68.4734 22.6265C67.4734 22.3265 66.4734 21.8265 65.3734 22.0265C65.3734 22.0265 65.3734 22.0265 65.3734 22.0265L65.3734 17.7265C66.2734 17.1265 67.0734 15.8265 67.5734 12.6265C67.6734 12.2265 67.6734 11.8265 67.7734 11.4265C75.1734 10.7265 76.1734 6.12653 76.1734 6.12653C91.9734 4.02653 94.8734 1.52653 101.173-4.67347C107.473-10.9735 107.373-20.0735 107.373-20.0735C107.373-20.0735 111.573-18.3735 116.573-25.0735C121.573-31.7735 116.573-36.7735 116.573-36.7735C116.573-36.7735 121.573-40.9735 121.573-45.9735C121.573-50.9735 118.273-49.2735 118.273-49.2735C118.273-49.2735 118.273-49.2735 121.573-54.2735C124.873-59.2735 123.073-62.6735 118.973-63.5735ZM23.4734-79.3735C22.0734-79.3735 20.9734-80.4735 20.9734-81.8735C20.9734-83.2735 22.0734-84.3735 23.4734-84.3735C24.8734-84.3735 25.9734-83.2735 25.9734-81.8735C25.9734-80.4735 24.8734-79.3735 23.4734-79.3735Z"/>
  </g>
  <g id="Bold-M" transform="matrix(1 0 0 1 2277.6 1126)">
   <path d="M116.371-63.0463C112.271-63.8463 100.071-56.5463 86.9705-49.1463C73.8705-41.7463 55.1705-49.9463 47.7705-58.1463C40.3705-66.3463 40.8705-79.7463 36.7705-85.4463C36.2705-86.1463 35.6705-86.8463 35.0705-87.4463L35.1705-87.4463C42.4705-89.0463 38.4705-99.2463 35.9705-100.946C33.4705-102.646 28.6705-95.2463 28.6705-95.2463C28.6705-95.2463 27.8705-99.3463 21.3705-99.3463C14.8705-99.3463 17.2705-94.4463 17.2705-94.4463C17.2705-94.4463 13.3705-97.6463 10.7705-92.8463C7.17053-86.3463 11.8705-84.0463 12.9705-83.5463C12.3705-81.3463 13.1705-79.7463 13.1705-79.7463L5.27053-71.8463C4.77053-71.3463 5.17053-70.4463 5.97053-70.4463L14.8705-71.9463C14.8705-71.7463 14.0705-64.1463 18.1705-62.5463C22.2705-60.9463 23.0705-66.2463 23.0705-66.2463L23.1705-66.7463C24.1705-64.1463 24.5705-60.8463 23.8705-56.8463C22.7705-50.5463 15.5705-44.6463 21.8705-29.5463C28.6705-12.8463 42.1705-7.5463 42.1705-7.5463C42.1705-7.5463 45.7705 6.6537 58.4705 9.7537C58.6705 10.7537 58.8705 12.2537 59.1705 12.8537C59.8705 14.4537 60.5705 15.7537 61.2705 16.5537L61.2705 20.9537C59.7705 20.8537 58.1705 20.8537 56.6705 20.8537C54.8705 20.8537 53.0705 20.7537 51.1705 20.7537L51.1705 20.9537C52.9705 21.3537 54.7705 21.6537 56.5705 21.9537C57.2705 22.0537 58.0705 22.2537 58.7705 22.3537C58.0705 22.6537 57.3705 23.0537 56.7705 23.5537C56.0705 24.0537 55.2705 24.6537 54.6705 25.2537C53.9705 25.8537 53.2705 26.4537 52.6705 27.2537L52.7705 27.4537C53.7705 27.3537 54.5705 27.0537 55.4705 26.7537C56.3705 26.4537 57.1705 26.0537 57.9705 25.7537C58.7705 25.3537 61.4705 23.8537 62.2705 23.3537L62.7705 23.0537C63.0705 23.0537 65.4705 23.1537 66.4705 23.2537C67.4705 23.2537 68.3705 23.2537 69.3705 23.2537C70.3705 23.2537 71.2705 23.2537 72.2705 23.1537L72.2705 22.9537C71.3705 22.6537 70.4705 22.3537 69.4705 22.0537C68.5705 21.7537 67.5705 21.5537 66.6705 21.2537C65.6705 20.9537 64.7705 20.4537 63.6705 20.6537C63.6705 20.6537 63.6705 20.6537 63.6705 20.6537L63.6705 16.4537C64.5705 15.8537 65.3705 14.6537 65.8705 11.4537C65.9705 11.0537 65.9705 10.6537 66.0705 10.2537C73.2705 9.5537 74.3705 5.0537 74.3705 5.0537C89.8705 3.0537 92.7705 0.553704 98.8705-5.5463C104.971-11.6463 104.971-20.6463 104.971-20.6463C104.971-20.6463 109.071-19.0463 113.971-25.5463C118.871-32.0463 113.971-36.9463 113.971-36.9463C113.971-36.9463 118.871-41.0463 118.871-45.9463C118.871-50.8463 115.571-49.2463 115.571-49.2463C115.571-49.2463 115.571-49.2463 118.871-54.1463C122.171-59.0463 120.471-62.2463 116.371-63.0463ZM22.9705-78.5463C21.5705-78.5463 20.5705-79.6463 20.5705-80.9463C20.5705-82.3463 21.6705-83.3463 22.9705-83.3463C24.3705-83.3463 25.3705-82.2463 25.3705-80.9463C25.4705-79.6463 24.3705-78.5463 22.9705-78.5463Z"/>
  </g>
  <g id="Semibold-M" transform="matrix(1 0 0 1 1982.12 1126)">
   <path d="M113.973-62.468C109.973-63.268 97.9734-56.068 85.2734-48.868C72.5734-41.668 54.1734-49.668 46.9734-57.668C39.7734-65.668 40.1734-78.768 36.1734-84.368C35.6734-85.068 35.0734-85.768 34.4734-86.368L34.5734-86.368C41.7734-87.968 37.7734-97.968 35.3734-99.568C32.9734-101.168 28.1734-93.968 28.1734-93.968C28.1734-93.968 27.3734-97.968 20.9734-97.968C14.5734-97.968 16.9734-93.168 16.9734-93.168C16.9734-93.168 13.1734-96.268 10.5734-91.568C7.0734-85.168 11.6734-82.868 12.7734-82.468C12.2734-80.268 12.9734-78.768 12.9734-78.768L5.2734-71.068C4.7734-70.568 5.1734-69.668 5.8734-69.668L14.5734-71.168C14.5734-70.968 13.7734-63.568 17.7734-61.968C21.7734-60.368 22.5734-65.568 22.5734-65.568L22.6734-66.068C23.6734-63.568 24.0734-60.268 23.3734-56.368C22.2734-50.268 15.2734-44.468 21.3734-29.668C28.1734-13.368 41.3734-8.168 41.3734-8.168C41.3734-8.168 44.8734 5.732 57.3734 8.732C57.5734 9.732 57.7734 11.132 58.0734 11.832C58.7734 13.432 59.4734 14.632 60.1734 15.432L60.1734 19.832C58.6734 19.732 57.1734 19.732 55.6734 19.732C53.8734 19.732 52.0734 19.632 50.2734 19.632L50.2734 19.832C52.0734 20.232 53.7734 20.532 55.5734 20.832C56.2734 20.932 57.0734 21.032 57.7734 21.232C57.0734 21.532 56.4734 21.932 55.7734 22.432C55.0734 22.932 54.3734 23.432 53.6734 24.032C52.9734 24.632 52.3734 25.232 51.7734 25.932L51.8734 26.132C52.7734 26.032 53.6734 25.732 54.4734 25.432C55.2734 25.132 56.1734 24.832 56.9734 24.432C57.7734 24.032 60.4734 22.532 61.1734 22.032L61.6734 21.732C61.9734 21.732 64.3734 21.832 65.2734 21.932C66.1734 21.932 67.1734 21.932 68.0734 21.932C68.9734 21.932 69.9734 21.932 70.8734 21.832L70.8734 21.632C69.9734 21.332 69.0734 21.032 68.1734 20.732C67.2734 20.432 66.3734 20.232 65.4734 19.932C64.4734 19.732 63.5734 19.232 62.5734 19.332C62.5734 19.332 62.5734 19.332 62.5734 19.332L62.5734 15.232C63.4734 14.732 64.1734 13.432 64.6734 10.332C64.7734 9.932 64.7734 9.532 64.8734 9.132C71.9734 8.432 72.9734 4.032 72.9734 4.032C88.1734 2.032 90.9734-0.368 96.8734-6.368C102.873-12.368 102.873-21.168 102.873-21.168C102.873-21.168 106.873-19.568 111.673-25.968C116.473-32.368 111.673-37.168 111.673-37.168C111.673-37.168 116.473-41.168 116.473-45.968C116.473-50.768 113.273-49.168 113.273-49.168C113.273-49.168 113.273-49.168 116.473-53.968C119.673-58.768 117.973-61.668 113.973-62.468ZM22.5734-77.568C21.2734-77.568 20.1734-78.668 20.1734-79.968C20.1734-81.268 21.2734-82.368 22.5734-82.368C23.8734-82.368 24.9734-81.268 24.9734-79.968C24.9734-78.668 23.9734-77.568 22.5734-77.568Z"/>
  </g>
  <g id="Medium-M" transform="matrix(1 0 0 1 1686.7 1126)">
   <path d="M111.573-61.8652C107.673-62.6652 95.9734-55.6652 83.4734-48.5652C70.9734-41.4652 53.0734-49.3652 45.9734-57.1652C38.8734-64.9652 39.3734-77.8652 35.4734-83.2652C34.9734-83.9652 34.4734-84.5652 33.7734-85.1652L33.8734-85.1652C40.8734-86.7652 36.9734-96.4652 34.6734-98.0652C32.3734-99.6652 27.6734-92.5652 27.6734-92.5652C27.6734-92.5652 26.8734-96.4652 20.6734-96.4652C14.4734-96.4652 16.7734-91.7652 16.7734-91.7652C16.7734-91.7652 13.0734-94.7652 10.5734-90.1652C7.0734-83.9652 11.5734-81.6652 12.6734-81.2652C12.1734-79.0652 12.8734-77.6652 12.8734-77.6652L5.2734-70.0652C4.7734-69.5652 5.1734-68.6652 5.8734-68.6652L14.3734-70.1652C14.3734-69.9652 13.6734-62.7652 17.4734-61.1652C21.3734-59.5652 22.1734-64.6652 22.1734-64.6652L22.2734-65.1652C23.2734-62.7652 23.6734-59.5652 22.9734-55.6652C21.8734-49.6652 14.9734-43.9652 20.9734-29.5652C27.6734-13.8652 40.5734-8.76517 40.5734-8.76517C40.5734-8.76517 43.9734 4.83483 56.1734 7.73483C56.3734 8.73483 56.5734 10.1348 56.8734 10.7348C57.5734 12.2348 58.2734 13.4348 58.8734 14.2348L58.8734 18.5348C57.3734 18.4348 55.9734 18.4348 54.4734 18.4348C52.7734 18.4348 50.9734 18.3348 49.2734 18.3348L49.2734 18.5348C50.9734 18.9348 52.6734 19.2348 54.3734 19.5348C55.0734 19.6348 55.7734 19.7348 56.4734 19.9348C55.7734 20.2348 55.1734 20.6348 54.5734 21.0348C53.8734 21.5348 53.1734 22.0348 52.4734 22.6348C51.7734 23.2348 51.1734 23.8348 50.5734 24.5348L50.6734 24.7348C51.5734 24.6348 52.4734 24.3348 53.2734 24.0348C54.0734 23.7348 54.8734 23.4348 55.6734 23.0348C56.4734 22.6348 59.0734 21.2348 59.7734 20.7348L60.1734 20.4348C60.4734 20.4348 62.7734 20.5348 63.6734 20.6348C64.5734 20.6348 65.4734 20.6348 66.4734 20.6348C67.3734 20.6348 68.3734 20.6348 69.2734 20.5348L69.2734 20.3348C68.3734 20.0348 67.4734 19.7348 66.5734 19.4348C65.6734 19.1348 64.7734 18.9348 63.8734 18.7348C62.9734 18.5348 61.9734 18.0348 60.9734 18.1348C60.9734 18.1348 60.9734 18.1348 60.9734 18.1348L60.9734 14.1348C61.8734 13.6348 62.5734 12.3348 63.0734 9.33483C63.1734 8.93483 63.1734 8.53483 63.2734 8.23483C70.1734 7.53483 71.1734 3.23483 71.1734 3.23483C85.9734 1.23483 88.7734-1.06517 94.5734-6.86517C100.473-12.7652 100.473-21.2652 100.473-21.2652C100.473-21.2652 104.373-19.6652 109.073-25.9652C113.773-32.1652 109.073-36.8652 109.073-36.8652C109.073-36.8652 113.773-40.7652 113.773-45.4652C113.773-50.1652 110.673-48.5652 110.673-48.5652C110.673-48.5652 110.673-48.5652 113.773-53.2652C117.073-57.9652 115.473-61.0652 111.573-61.8652ZM22.1734-76.6652C20.8734-76.6652 19.8734-77.6652 19.8734-78.9652C19.8734-80.2652 20.8734-81.2652 22.1734-81.2652C23.4734-81.2652 24.4734-80.2652 24.4734-78.9652C24.5734-77.7652 23.4734-76.6652 22.1734-76.6652Z"/>
  </g>
  <g id="Regular-M" transform="matrix(1 0 0 1 1391.21 1126)">
   <path d="M109.173-61.2839C105.373-62.0839 93.8734-55.1839 81.6734-48.2839C69.4734-41.3839 51.9734-49.0839 45.0734-56.6839C38.1734-64.2839 38.5734-76.8839 34.7734-82.2839C34.2734-82.9839 33.7734-83.5839 33.1734-84.1839L33.2734-84.1839C40.1734-85.6839 36.3734-95.2839 34.0734-96.7839C31.7734-98.2839 27.1734-91.4839 27.1734-91.4839C27.1734-91.4839 26.3734-95.2839 20.2734-95.2839C14.1734-95.2839 16.4734-90.6839 16.4734-90.6839C16.4734-90.6839 12.8734-93.5839 10.3734-89.1839C6.9734-83.0839 11.3734-80.8839 12.4734-80.4839C11.9734-78.3839 12.6734-76.9839 12.6734-76.9839L5.2734-69.5839C4.7734-69.0839 5.1734-68.2839 5.8734-68.2839L14.1734-69.6839C14.1734-69.4839 13.4734-62.4839 17.2734-60.8839C21.0734-59.3839 21.8734-64.2839 21.8734-64.2839L21.9734-64.7839C22.9734-62.3839 23.2734-59.2839 22.6734-55.5839C21.5734-49.6839 14.8734-44.1839 20.7734-29.9839C27.1734-14.3839 39.7734-9.38389 39.7734-9.38389C39.7734-9.38389 43.0734 3.91611 55.0734 6.81611C55.2734 7.81611 55.4734 9.11611 55.6734 9.71611C56.3734 11.2161 56.9734 12.4161 57.6734 13.2161L57.6734 17.4161C56.2734 17.3161 54.7734 17.3161 53.3734 17.3161C51.6734 17.3161 49.9734 17.2161 48.2734 17.3161L48.2734 17.5161C49.9734 17.9161 51.6734 18.1161 53.2734 18.5161C53.9734 18.6161 54.6734 18.7161 55.3734 18.9161C54.6734 19.2161 54.0734 19.6161 53.4734 20.0161C52.7734 20.5161 52.0734 21.0161 51.4734 21.5161C50.8734 22.1161 50.1734 22.6161 49.6734 23.3161L49.7734 23.5161C50.6734 23.4161 51.4734 23.1161 52.2734 22.8161C53.0734 22.5161 53.8734 22.2161 54.5734 21.8161C55.3734 21.4161 57.8734 20.0161 58.5734 19.5161L58.9734 19.2161C59.2734 19.2161 61.4734 19.3161 62.3734 19.4161C63.2734 19.4161 64.1734 19.4161 65.0734 19.4161C65.9734 19.4161 66.8734 19.4161 67.7734 19.3161L67.7734 19.1161C66.8734 18.8161 66.0734 18.5161 65.1734 18.3161C64.2734 18.0161 63.4734 17.8161 62.5734 17.6161C61.6734 17.4161 60.7734 16.9161 59.7734 17.0161C59.7734 17.0161 59.7734 17.0161 59.7734 17.0161L59.7734 13.1161C60.5734 12.6161 61.2734 11.4161 61.7734 8.41611C61.8734 8.01611 61.8734 7.71611 61.9734 7.31611C68.7734 6.61611 69.6734 2.41611 69.6734 2.41611C84.3734 0.516109 87.0734-1.78389 92.7734-7.48389C98.4734-13.1839 98.4734-21.5839 98.4734-21.5839C98.4734-21.5839 102.273-20.0839 106.873-26.1839C111.473-32.2839 106.873-36.8839 106.873-36.8839C106.873-36.8839 111.473-40.6839 111.473-45.2839C111.473-49.8839 108.373-48.3839 108.373-48.3839C108.373-48.3839 108.373-48.3839 111.473-52.9839C114.573-57.4839 112.973-60.4839 109.173-61.2839ZM21.8734-75.7839C20.5734-75.7839 19.5734-76.7839 19.5734-78.0839C19.5734-79.3839 20.5734-80.3839 21.8734-80.3839C23.1734-80.3839 24.1734-79.3839 24.1734-78.0839C24.1734-76.7839 23.1734-75.7839 21.8734-75.7839Z"/>
  </g>
  <g id="Light-M" transform="matrix(1 0 0 1 1096.06 1126)">
   <path d="M106.229-60.3051C102.529-61.0051 91.4292-54.4051 79.5292-47.7051C67.6292-41.0051 50.6292-48.4051 43.9292-55.9051C37.2292-63.4051 37.6292-75.5051 33.9292-80.7051C33.4292-81.3051 32.9292-82.0051 32.3292-82.5051L32.4292-82.5051C39.1292-84.0051 35.4292-93.3051 33.1292-94.7051C30.8292-96.1051 26.4292-89.5051 26.4292-89.5051C26.4292-89.5051 25.8292-93.3051 19.8292-93.3051C13.8292-93.3051 16.1292-88.9051 16.1292-88.9051C16.1292-88.9051 12.6292-91.8051 10.2292-87.4051C6.92916-81.5051 11.2292-79.4051 12.2292-79.0051C11.7292-77.0051 12.4292-75.6051 12.4292-75.6051L5.22916-68.4051C4.82916-67.9051 5.12916-67.1051 5.82916-67.1051L13.9292-68.5051C13.9292-68.3051 13.2292-61.5051 16.9292-60.0051C20.6292-58.5051 21.3292-63.3051 21.3292-63.3051L21.4292-63.8051C22.3292-61.5051 22.7292-58.4051 22.0292-54.8051C21.0292-49.1051 14.4292-43.7051 20.1292-30.0051C26.5292-14.7051 38.8292-9.90507 38.8292-9.90507C38.8292-9.90507 42.0292 2.99493 53.6292 5.79493C53.8292 6.69493 54.0292 8.09493 54.2292 8.59493C54.8292 10.0949 55.5292 11.1949 56.1292 11.9949L56.1292 15.9949C54.7292 15.8949 53.3292 15.8949 51.9292 15.8949C50.2292 15.8949 48.6292 15.7949 46.9292 15.8949L46.9292 16.0949C48.5292 16.3949 50.2292 16.6949 51.8292 16.9949C52.5292 17.0949 53.2292 17.1949 53.8292 17.2949C53.2292 17.5949 52.5292 17.9949 52.0292 18.3949C51.3292 18.8949 50.7292 19.3949 50.0292 19.8949C49.4292 20.3949 48.8292 20.9949 48.2292 21.6949L48.3292 21.8949C49.2292 21.7949 50.0292 21.4949 50.8292 21.2949C51.6292 20.9949 52.3292 20.6949 53.1292 20.3949C53.8292 20.0949 56.3292 18.6949 57.0292 18.1949L57.4292 17.8949C57.7292 17.8949 59.9292 17.9949 60.7292 18.0949C61.6292 18.0949 62.4292 18.0949 63.3292 18.0949C64.2292 18.0949 65.1292 18.0949 65.9292 17.9949L65.9292 17.7949C65.1292 17.4949 64.2292 17.2949 63.4292 16.9949C62.6292 16.6949 61.7292 16.4949 60.9292 16.2949C60.0292 16.0949 59.1292 15.5949 58.2292 15.6949C58.2292 15.6949 58.2292 15.6949 58.2292 15.6949L58.2292 11.8949C59.0292 11.3949 59.7292 10.1949 60.2292 7.39493C60.3292 6.99493 60.3292 6.69493 60.4292 6.29493C67.0292 5.59493 67.9292 1.59493 67.9292 1.59493C82.0292-0.305067 84.6292-2.50507 90.1292-8.00507C95.7292-13.6051 95.7292-21.7051 95.7292-21.7051C95.7292-21.7051 99.4292-20.2051 103.929-26.1051C108.329-32.0051 103.929-36.5051 103.929-36.5051C103.929-36.5051 108.329-40.2051 108.329-44.7051C108.329-49.2051 105.329-47.7051 105.329-47.7051C105.329-47.7051 105.329-47.7051 108.329-52.1051C111.429-56.6051 109.929-59.6051 106.229-60.3051ZM21.3292-74.4051C20.1292-74.4051 19.1292-75.4051 19.1292-76.6051C19.1292-77.8051 20.1292-78.8051 21.3292-78.8051C22.5292-78.8051 23.5292-77.8051 23.5292-76.6051C23.5292-75.4051 22.6292-74.4051 21.3292-74.4051Z"/>
  </g>
  <g id="Thin-M" transform="matrix(1 0 0 1 800.799 1126)">
   <path d="M103.411-59.3998C99.811-60.0998 89.011-53.5998 77.411-47.1998C65.811-40.7998 49.311-47.8998 42.811-55.0998C36.311-62.2998 36.711-74.1998 33.111-79.1998C32.711-79.7998 32.111-80.3998 31.611-80.9998L31.711-80.9998C38.211-82.3998 34.611-91.3998 32.411-92.8998C30.211-94.2998 25.911-87.8998 25.911-87.8998C25.911-87.8998 25.211-91.4998 19.411-91.4998C13.611-91.4998 15.811-87.0998 15.811-87.0998C15.811-87.0998 12.411-89.8998 10.011-85.6998C6.81101-79.9998 11.011-77.8998 12.011-77.4998C11.511-75.4998 12.211-74.1998 12.211-74.1998L5.21101-67.1998C4.81101-66.6998 5.21101-65.8998 5.81101-65.9998L13.711-67.3998C13.711-67.1998 13.011-60.5998 16.611-59.0998C20.211-57.6998 20.911-62.2998 20.911-62.2998L21.011-62.6998C21.911-60.3998 22.311-57.4998 21.611-53.9998C20.611-48.4998 14.311-43.1998 19.811-29.8998C25.911-15.0998 37.811-10.3998 37.811-10.3998C37.811-10.3998 41.011 2.10024 52.211 4.80024C52.411 5.70024 52.611 7.00024 52.811 7.60024C53.411 9.00024 54.111 10.1002 54.711 10.9002L54.711 14.8002C53.411 14.7002 52.011 14.7002 50.611 14.7002C49.011 14.7002 47.411 14.6002 45.811 14.7002L45.811 14.9002C47.411 15.2002 49.011 15.5002 50.511 15.8002C51.211 15.9002 51.811 16.0002 52.511 16.1002C51.911 16.4002 51.311 16.7002 50.711 17.1002C50.111 17.6002 49.411 18.0002 48.811 18.6002C48.211 19.1002 47.611 19.7002 47.111 20.3002L47.211 20.5002C48.011 20.4002 48.811 20.1002 49.611 19.9002C50.411 19.6002 51.111 19.3002 51.811 19.0002C52.511 18.7002 54.911 17.3002 55.611 16.9002L56.011 16.6002C56.311 16.6002 58.411 16.7002 59.311 16.8002C60.111 16.8002 61.011 16.8002 61.911 16.8002C62.811 16.8002 63.611 16.8002 64.511 16.7002L64.511 16.5002C63.711 16.2002 62.911 16.0002 62.111 15.7002C61.311 15.5002 60.511 15.2002 59.611 15.0002C58.711 14.8002 57.911 14.3002 57.011 14.4002C57.011 14.4002 57.011 14.4002 57.011 14.4002L57.011 10.7002C57.811 10.2002 58.511 9.10024 58.911 6.30024C59.011 5.90024 59.011 5.60024 59.111 5.30024C65.511 4.70024 66.411 0.700238 66.411 0.700238C80.111-1.09976 82.611-3.29976 88.011-8.69976C93.411-14.0998 93.411-21.9998 93.411-21.9998C93.411-21.9998 97.011-20.5998 101.311-26.2998C105.611-32.0998 101.311-36.3998 101.311-36.3998C101.311-36.3998 105.611-39.9998 105.611-44.2998C105.611-48.5998 102.711-47.1998 102.711-47.1998C102.711-47.1998 102.711-47.1998 105.611-51.4998C108.411-55.7998 107.011-58.6998 103.411-59.3998ZM20.911-73.0998C19.711-73.0998 18.711-74.0998 18.711-75.2998C18.711-76.4998 19.711-77.4998 20.911-77.4998C22.111-77.4998 23.111-76.4998 23.111-75.2998C23.011-74.0998 22.111-73.0998 20.911-73.0998Z"/>
  </g>
  <g id="Ultralight-M" transform="matrix(1 0 0 1 505.603 1126)">
   <path d="M100.476-58.597C96.9765-59.297 86.4765-52.997 75.2765-46.697C64.0765-40.397 47.9765-47.397 41.6765-54.397C35.3765-61.397 35.7765-72.897 32.2765-77.797C31.8765-78.397 31.3765-78.997 30.7765-79.497L30.8765-79.497C37.1765-80.897 33.6765-89.597 31.5765-90.997C29.4765-92.397 25.2765-86.097 25.2765-86.097C25.2765-86.097 24.5765-89.597 18.9765-89.597C13.3765-89.597 15.4765-85.597 15.4765-85.597C15.4765-85.597 12.1765-88.297 9.87648-84.197C6.77648-78.597 10.7765-76.597 11.7765-76.197C11.2765-74.297 11.9765-72.997 11.9765-72.997L5.27648-66.197C4.77648-65.697 5.17648-64.997 5.77648-64.997L13.3765-66.297C13.3765-66.097 12.6765-59.697 16.1765-58.297C19.6765-56.897 20.3765-61.397 20.3765-61.397L20.4765-61.797C21.3765-59.597 21.6765-56.697 21.0765-53.297C20.0765-47.897 13.9765-42.897 19.3765-29.897C25.2765-15.597 36.7765-11.097 36.7765-11.097C36.7765-11.097 39.7765 1.103 50.7765 3.703C50.9765 4.603 51.1765 5.803 51.3765 6.403C51.9765 7.803 52.5765 8.903 53.1765 9.603L53.1765 13.403C51.8765 13.303 50.5765 13.303 49.2765 13.303C47.6765 13.303 46.1765 13.203 44.5765 13.303L44.5765 13.503C46.0765 13.803 47.6765 14.103 49.1765 14.403C49.7765 14.503 50.4765 14.603 51.0765 14.703C50.4765 15.003 49.8765 15.303 49.3765 15.703C48.7765 16.103 48.0765 16.603 47.5765 17.103C46.9765 17.603 46.3765 18.203 45.8765 18.803L45.9765 19.003C46.7765 18.903 47.5765 18.703 48.2765 18.403C48.9765 18.103 49.7765 17.803 50.4765 17.503C51.1765 17.203 53.4765 15.903 54.1765 15.403L54.5765 15.103C54.8765 15.103 56.8765 15.203 57.7765 15.303C58.5765 15.303 59.3765 15.303 60.2765 15.303C61.0765 15.303 61.9765 15.303 62.7765 15.203L62.7765 15.003C61.9765 14.703 61.1765 14.503 60.3765 14.203C59.5765 14.003 58.7765 13.703 57.9765 13.503C57.1765 13.303 56.2765 12.903 55.3765 13.003C55.3765 13.003 55.3765 13.003 55.3765 13.003L55.3765 9.403C56.1765 8.903 56.7765 7.803 57.2765 5.103C57.3765 4.703 57.3765 4.403 57.4765 4.103C63.5765 3.603 64.4765-0.297 64.4765-0.297C77.7765-1.997 80.1765-4.097 85.4765-9.397C90.7765-14.697 90.6765-22.297 90.6765-22.297C90.6765-22.297 94.1765-20.897 98.3765-26.497C102.576-32.097 98.3765-36.297 98.3765-36.297C98.3765-36.297 102.576-39.797 102.576-43.997C102.576-48.197 99.7765-46.797 99.7765-46.797C99.7765-46.797 99.7765-46.797 102.576-50.997C105.376-55.097 103.976-57.897 100.476-58.597ZM20.3765-71.897C19.1765-71.897 18.2765-72.797 18.2765-73.997C18.2765-75.197 19.1765-76.097 20.3765-76.097C21.5765-76.097 22.4765-75.197 22.4765-73.997C22.4765-72.897 21.5765-71.897 20.3765-71.897Z"/>
  </g>
  <g id="Black-S" transform="matrix(1 0 0 1 2881.84 696)">
   <path d="M95.5321-57.6129C92.2321-58.3129 82.2321-52.3129 71.6321-46.3129C61.0321-40.3129 45.7321-47.0129 39.8321-53.6129C33.9321-60.2129 34.2321-71.2129 30.8321-75.8129C30.4321-76.4129 29.9321-76.9129 29.4321-77.4129L29.5321-77.4129C35.5321-78.7129 32.2321-87.0129 30.2321-88.3129C28.2321-89.6129 24.2321-83.7129 24.2321-83.7129C24.2321-83.7129 23.5321-87.0129 18.2321-87.0129C12.9321-87.0129 14.9321-83.0129 14.9321-83.0129C14.9321-83.0129 11.8321-85.6129 9.63213-81.7129C6.73213-76.4129 10.5321-74.5129 11.4321-74.1129C10.9321-72.3129 11.6321-71.0129 11.6321-71.0129L5.23213-64.6129C4.83213-64.2129 5.13213-63.4129 5.73213-63.4129L12.9321-64.7129C12.9321-64.6129 12.3321-58.4129 15.6321-57.1129C18.9321-55.8129 19.6321-60.1129 19.6321-60.1129L19.7321-60.5129C20.5321-58.4129 20.9321-55.7129 20.3321-52.5129C19.4321-47.4129 13.5321-42.6129 18.6321-30.3129C24.2321-16.7129 35.2321-12.4129 35.2321-12.4129C35.2321-12.4129 38.0321-0.91289 48.4321 1.58711C48.6321 2.38711 48.7321 3.58711 49.0321 4.08711C49.6321 5.38711 50.2321 6.38711 50.7321 7.08711L50.7321 10.6871C49.5321 10.6871 48.2321 10.5871 47.0321 10.5871C45.5321 10.5871 44.0321 10.4871 42.5321 10.5871L42.5321 10.7871C44.0321 11.0871 45.4321 11.3871 46.9321 11.5871C47.5321 11.6871 48.1321 11.7871 48.7321 11.8871C48.1321 12.1871 47.6321 12.4871 47.1321 12.8871C46.5321 13.2871 45.9321 13.7871 45.4321 14.1871C44.8321 14.6871 44.3321 15.1871 43.8321 15.7871L43.9321 15.9871C44.7321 15.8871 45.4321 15.6871 46.1321 15.3871C46.8321 15.1871 47.5321 14.8871 48.1321 14.5871C48.8321 14.2871 51.0321 12.9871 51.6321 12.5871L52.0321 12.2871C52.3321 12.2871 54.2321 12.3871 55.0321 12.3871C55.8321 12.3871 56.6321 12.3871 57.4321 12.3871C58.2321 12.3871 59.0321 12.3871 59.8321 12.2871L59.8321 12.0871C59.1321 11.7871 58.3321 11.5871 57.5321 11.3871C56.7321 11.1871 56.0321 10.9871 55.2321 10.7871C54.4321 10.5871 53.6321 10.1871 52.8321 10.2871C52.8321 10.2871 52.8321 10.2871 52.8321 10.2871L52.8321 6.88711C53.5321 6.48711 54.1321 5.38711 54.6321 2.88711C54.7321 2.58711 54.7321 2.28711 54.8321 1.88711C60.7321 1.28711 61.5321-2.31289 61.5321-2.31289C74.1321-4.01289 76.4321-5.91289 81.4321-10.9129C86.4321-15.9129 86.4321-23.2129 86.4321-23.2129C86.4321-23.2129 89.7321-21.9129 93.7321-27.2129C97.7321-32.5129 93.7321-36.5129 93.7321-36.5129C93.7321-36.5129 97.7321-39.8129 97.7321-43.8129C97.7321-47.8129 95.0321-46.5129 95.0321-46.5129C95.0321-46.5129 95.0321-46.5129 97.7321-50.5129C100.132-54.3129 98.8321-56.9129 95.5321-57.6129ZM19.5321-70.2129C18.4321-70.2129 17.5321-71.1129 17.5321-72.2129C17.5321-73.3129 18.4321-74.2129 19.5321-74.2129C20.6321-74.2129 21.5321-73.3129 21.5321-72.2129C21.5321-71.1129 20.6321-70.2129 19.5321-70.2129Z"/>
  </g>
  <g id="Heavy-S" transform="matrix(1 0 0 1 2585.91 696)">
   <path d="M94.1321-57.2129C90.8321-57.9129 81.1321-52.0129 70.6321-46.1129C60.1321-40.2129 45.2321-46.8129 39.3321-53.3129C33.4321-59.8129 33.7321-70.6129 30.4321-75.1129C30.0321-75.7129 29.5321-76.2129 29.0321-76.7129L29.1321-76.7129C35.0321-78.0129 31.7321-86.2129 29.8321-87.5129C27.9321-88.8129 23.9321-82.9129 23.9321-82.9129C23.9321-82.9129 23.2321-86.2129 18.0321-86.2129C12.8321-86.2129 14.7321-82.3129 14.7321-82.3129C14.7321-82.3129 11.6321-84.8129 9.53213-81.0129C6.63213-75.8129 10.4321-73.9129 11.3321-73.6129C10.9321-71.8129 11.5321-70.6129 11.5321-70.6129L5.23213-64.3129C4.83213-63.8129 5.13213-63.1129 5.73213-63.1129L12.8321-64.3129C12.8321-64.2129 12.2321-58.1129 15.4321-56.8129C18.7321-55.5129 19.3321-59.7129 19.3321-59.7129L19.4321-60.1129C20.2321-58.1129 20.6321-55.4129 20.0321-52.2129C19.1321-47.2129 13.3321-42.5129 18.4321-30.3129C23.9321-17.1129 34.7321-12.8129 34.7321-12.8129C34.7321-12.8129 37.5321-1.51289 47.7321 0.98711C47.8321 1.78711 48.0321 2.98711 48.3321 3.48711C48.9321 4.78711 49.4321 5.78711 50.0321 6.48711L50.0321 10.0871C48.8321 10.0871 47.6321 9.98711 46.3321 9.98711C44.8321 9.98711 43.4321 9.88711 41.9321 9.98711L41.9321 10.1871C43.3321 10.4871 44.8321 10.6871 46.2321 10.9871C46.8321 11.0871 47.4321 11.1871 48.0321 11.2871C47.4321 11.5871 46.9321 11.8871 46.4321 12.1871C45.8321 12.5871 45.2321 12.9871 44.7321 13.4871C44.1321 13.9871 43.6321 14.4871 43.1321 15.0871L43.2321 15.2871C44.0321 15.1871 44.7321 14.9871 45.4321 14.6871C46.1321 14.4871 46.8321 14.1871 47.4321 13.8871C48.1321 13.5871 50.2321 12.3871 50.8321 11.9871L51.2321 11.6871C51.5321 11.6871 53.4321 11.7871 54.1321 11.7871C54.9321 11.7871 55.6321 11.7871 56.4321 11.7871C57.2321 11.7871 57.9321 11.7871 58.7321 11.6871L58.7321 11.4871C58.0321 11.1871 57.2321 10.9871 56.5321 10.7871C55.8321 10.5871 55.0321 10.3871 54.3321 10.1871C53.5321 9.98711 52.7321 9.58711 51.9321 9.68711C51.9321 9.68711 51.9321 9.68711 51.9321 9.68711L51.9321 6.38711C52.7321 5.88711 53.3321 4.88711 53.7321 2.38711C53.8321 2.08711 53.8321 1.78711 53.9321 1.48711C59.7321 0.88711 60.5321-2.71289 60.5321-2.71289C72.9321-4.31289 75.2321-6.31289 80.1321-11.2129C85.0321-16.1129 85.0321-23.3129 85.0321-23.3129C85.0321-23.3129 88.3321-22.0129 92.2321-27.2129C96.1321-32.4129 92.2321-36.3129 92.2321-36.3129C92.2321-36.3129 96.1321-39.6129 96.1321-43.5129C96.1321-47.4129 93.4321-46.1129 93.4321-46.1129C93.4321-46.1129 93.4321-46.1129 96.0321-50.0129C98.6321-53.9129 97.3321-56.5129 94.1321-57.2129ZM19.3321-69.6129C18.2321-69.6129 17.3321-70.5129 17.3321-71.6129C17.3321-72.7129 18.2321-73.6129 19.3321-73.6129C20.4321-73.6129 21.3321-72.7129 21.3321-71.6129C21.3321-70.5129 20.4321-69.6129 19.3321-69.6129Z"/>
  </g>
  <g id="Bold-S" transform="matrix(1 0 0 1 2290.18 696)">
   <path d="M92.2321-56.6288C89.0321-57.2288 79.4321-51.5288 69.2321-45.7288C59.0321-39.9288 44.3321-46.3288 38.5321-52.7288C32.7321-59.1288 33.1321-69.6288 29.9321-74.1288C29.5321-74.7288 29.0321-75.2288 28.5321-75.7288L28.6321-75.7288C34.3321-77.0288 31.2321-85.0288 29.2321-86.2288C27.2321-87.4288 23.5321-81.9288 23.5321-81.9288C23.5321-81.9288 22.9321-85.1288 17.8321-85.1288C12.7321-85.1288 14.6321-81.3288 14.6321-81.3288C14.6321-81.3288 11.6321-83.8288 9.53213-80.0288C6.73213-74.9288 10.4321-73.1288 11.2321-72.7288C10.8321-70.9288 11.4321-69.8288 11.4321-69.8288L5.23213-63.6288C4.83213-63.2288 5.13213-62.5288 5.73213-62.5288L12.7321-63.7288C12.7321-63.6288 12.1321-57.6288 15.3321-56.4288C18.5321-55.1288 19.1321-59.3288 19.1321-59.3288L19.2321-59.7288C20.0321-57.7288 20.3321-55.1288 19.8321-52.0288C18.9321-47.1288 13.3321-42.5288 18.2321-30.6288C23.6321-17.5288 34.2321-13.4288 34.2321-13.4288C34.2321-13.4288 36.8321-2.12876 46.8321 0.271244C46.9321 1.07124 47.1321 2.27124 47.3321 2.67124C47.9321 3.97124 48.5321 4.97124 49.0321 5.67124L49.0321 9.17124C47.8321 9.17124 46.6321 9.07124 45.4321 9.07124C44.0321 9.07124 42.5321 8.97124 41.1321 9.07124L41.1321 9.27124C42.5321 9.57124 43.9321 9.77124 45.3321 10.0712C45.9321 10.1712 46.5321 10.2712 47.1321 10.3712C46.6321 10.6712 46.0321 10.9712 45.5321 11.2712C44.9321 11.6712 44.4321 12.0712 43.8321 12.5712C43.3321 13.0712 42.7321 13.5712 42.3321 14.0712L42.4321 14.2712C43.1321 14.1712 43.8321 13.9712 44.5321 13.6712C45.2321 13.4712 45.8321 13.1712 46.5321 12.8712C47.1321 12.5712 49.3321 11.3712 49.9321 10.9712L50.3321 10.7712C50.6321 10.7712 52.4321 10.8712 53.2321 10.8712C54.0321 10.8712 54.7321 10.8712 55.5321 10.8712C56.3321 10.8712 57.0321 10.8712 57.8321 10.7712L57.8321 10.5712C57.1321 10.2712 56.4321 10.0712 55.6321 9.87124C54.9321 9.67124 54.1321 9.47124 53.4321 9.27124C52.6321 9.07124 51.9321 8.67124 51.1321 8.77124C51.1321 8.77124 51.1321 8.77124 51.1321 8.77124L51.1321 5.47124C51.8321 5.07124 52.4321 4.07124 52.8321 1.57124C52.9321 1.27124 52.9321 0.971244 53.0321 0.671244C58.7321 0.0712443 59.5321-3.42876 59.5321-3.42876C71.6321-5.02876 73.9321-6.92876 78.7321-11.7288C83.5321-16.5288 83.5321-23.5288 83.5321-23.5288C83.5321-23.5288 86.7321-22.2288 90.5321-27.3288C94.3321-32.4288 90.5321-36.2288 90.5321-36.2288C90.5321-36.2288 94.3321-39.4288 94.3321-43.2288C94.3321-47.0288 91.5321-45.8288 91.5321-45.8288C91.5321-45.8288 91.5321-45.8288 94.1321-49.6288C96.6321-53.4288 95.3321-56.0288 92.2321-56.6288ZM19.0321-68.8288C17.9321-68.8288 17.1321-69.7288 17.1321-70.7288C17.1321-71.7288 18.0321-72.6288 19.0321-72.6288C20.1321-72.6288 20.9321-71.7288 20.9321-70.7288C20.9321-69.7288 20.1321-68.8288 19.0321-68.8288Z"/>
  </g>
  <g id="Semibold-S" transform="matrix(1 0 0 1 1994.55 696)">
   <path d="M90.1321-56.3314C87.0321-56.9314 77.6321-51.3314 67.6321-45.7314C57.6321-40.1314 43.2321-46.3314 37.6321-52.6314C32.0321-58.9314 32.3321-69.2314 29.2321-73.5314C28.8321-74.0314 28.4321-74.6314 27.9321-75.0314L28.0321-75.0314C33.6321-76.2314 30.5321-84.1314 28.6321-85.3314C26.7321-86.5314 23.0321-80.9314 23.0321-80.9314C23.0321-80.9314 22.4321-84.0314 17.4321-84.0314C12.4321-84.0314 14.3321-80.3314 14.3321-80.3314C14.3321-80.3314 11.3321-82.7314 9.33213-79.1314C6.53213-74.1314 10.1321-72.3314 11.0321-72.0314C10.6321-70.3314 11.2321-69.1314 11.2321-69.1314L5.23213-63.1314C4.83213-62.7314 5.13213-62.0314 5.73213-62.0314L12.5321-63.2314C12.5321-63.1314 11.9321-57.3314 15.0321-56.0314C18.1321-54.8314 18.7321-58.8314 18.7321-58.8314L18.8321-59.2314C19.6321-57.2314 19.9321-54.7314 19.3321-51.6314C18.4321-46.8314 12.9321-42.3314 17.7321-30.7314C22.9321-17.8314 33.2321-13.8314 33.2321-13.8314C33.2321-13.8314 35.9321-2.93143 45.7321-0.531426C45.8321 0.268574 46.0321 1.36857 46.2321 1.86857C46.7321 3.06857 47.3321 4.06857 47.8321 4.66857L47.8321 8.06857C46.7321 7.96857 45.5321 7.96857 44.3321 7.96857C42.9321 7.96857 41.5321 7.86857 40.1321 7.96857L40.1321 8.16857C41.5321 8.46857 42.8321 8.66857 44.2321 8.96857C44.8321 9.06857 45.3321 9.16857 45.9321 9.26857C45.4321 9.56857 44.8321 9.86857 44.4321 10.1686C43.8321 10.5686 43.3321 10.9686 42.8321 11.4686C42.3321 11.9686 41.8321 12.3686 41.3321 12.9686L41.4321 13.1686C42.1321 13.0686 42.8321 12.8686 43.5321 12.6686C44.2321 12.4686 44.8321 12.1686 45.4321 11.8686C46.0321 11.5686 48.1321 10.3686 48.7321 9.96857L49.1321 9.76857C49.4321 9.76857 51.2321 9.86857 51.9321 9.86857C52.6321 9.86857 53.4321 9.86857 54.1321 9.86857C54.8321 9.86857 55.6321 9.86857 56.3321 9.76857L56.3321 9.56857C55.6321 9.26857 54.9321 9.06857 54.2321 8.86857C53.5321 8.66857 52.8321 8.46857 52.1321 8.26857C51.3321 8.06857 50.6321 7.66857 49.8321 7.76857C49.8321 7.76857 49.8321 7.76857 49.8321 7.76857L49.8321 4.56857C50.5321 4.16857 51.1321 3.16857 51.5321 0.768574C51.6321 0.468574 51.6321 0.168574 51.6321-0.131426C57.1321-0.731426 57.9321-4.13143 57.9321-4.13143C69.8321-5.73143 72.0321-7.53143 76.6321-12.2314C81.3321-16.9314 81.3321-23.8314 81.3321-23.8314C81.3321-23.8314 84.4321-22.6314 88.2321-27.5314C91.9321-32.5314 88.2321-36.2314 88.2321-36.2314C88.2321-36.2314 91.9321-39.3314 91.9321-43.1314C91.9321-46.9314 89.4321-45.6314 89.4321-45.6314C89.4321-45.6314 89.4321-45.6314 91.9321-49.3314C94.4321-53.1314 93.2321-55.6314 90.1321-56.3314ZM18.5321-68.1314C17.5321-68.1314 16.6321-68.9314 16.6321-70.0314C16.6321-71.0314 17.4321-71.9314 18.5321-71.9314C19.5321-71.9314 20.4321-71.1314 20.4321-70.0314C20.4321-69.0314 19.6321-68.1314 18.5321-68.1314Z"/>
  </g>
  <g id="Medium-S" transform="matrix(1 0 0 1 1698.73 696)">
   <path d="M88.3321-55.8288C85.2321-56.4288 76.1321-50.9288 66.3321-45.4288C56.5321-39.9288 42.5321-46.0288 37.0321-52.1288C31.5321-58.2288 31.8321-68.3288 28.8321-72.6288C28.4321-73.1288 28.0321-73.6288 27.5321-74.1288L27.6321-74.1288C33.1321-75.3288 30.0321-83.0288 28.2321-84.2288C26.4321-85.4288 22.7321-79.9288 22.7321-79.9288C22.7321-79.9288 22.0321-83.0288 17.2321-83.0288C12.4321-83.0288 14.1321-79.3288 14.1321-79.3288C14.1321-79.3288 11.2321-81.7288 9.23213-78.1288C6.53213-73.2288 10.0321-71.5288 10.9321-71.1288C10.5321-69.4288 11.1321-68.3288 11.1321-68.3288L5.23213-62.4288C4.83213-62.0288 5.13213-61.3288 5.73213-61.3288L12.4321-62.5288C12.4321-62.4288 11.8321-56.7288 14.8321-55.5288C17.9321-54.3288 18.5321-58.2288 18.5321-58.2288L18.6321-58.6288C19.4321-56.7288 19.7321-54.2288 19.1321-51.2288C18.2321-46.5288 12.9321-42.1288 17.6321-30.7288C22.8321-18.2288 32.9321-14.2288 32.9321-14.2288C32.9321-14.2288 35.4321-3.62876 45.0321-1.32876C45.1321-0.528756 45.3321 0.571244 45.5321 0.971244C46.0321 2.17124 46.6321 3.17124 47.1321 3.77124L47.1321 7.07124C46.0321 7.07124 44.8321 6.97124 43.7321 6.97124C42.3321 6.97124 40.9321 6.97124 39.5321 6.97124L39.5321 7.17124C40.8321 7.47124 42.2321 7.67124 43.5321 7.97124C44.1321 8.07124 44.6321 8.17124 45.2321 8.27124C44.7321 8.57124 44.2321 8.77124 43.7321 9.17124C43.1321 9.57124 42.6321 9.97124 42.1321 10.3712C41.6321 10.7712 41.1321 11.2712 40.6321 11.8712L40.7321 12.0712C41.4321 11.9712 42.1321 11.7712 42.7321 11.5712C43.3321 11.3712 44.0321 11.0712 44.6321 10.7712C45.2321 10.4712 47.3321 9.37124 47.8321 8.97124L48.1321 8.77124C48.4321 8.77124 50.1321 8.87124 50.9321 8.87124C51.6321 8.87124 52.3321 8.87124 53.1321 8.87124C53.8321 8.87124 54.5321 8.87124 55.3321 8.77124L55.3321 8.57124C54.6321 8.37124 53.9321 8.17124 53.2321 7.87124C52.5321 7.67124 51.8321 7.47124 51.1321 7.27124C50.4321 7.07124 49.6321 6.67124 48.9321 6.77124C48.9321 6.77124 48.9321 6.77124 48.9321 6.77124L48.9321 3.67124C49.6321 3.27124 50.1321 2.27124 50.5321-0.0287557C50.6321-0.328756 50.6321-0.628756 50.6321-0.928756C56.1321-1.42876 56.9321-4.82876 56.9321-4.82876C68.5321-6.32876 70.6321-8.22876 75.2321-12.7288C79.8321-17.3288 79.8321-24.0288 79.8321-24.0288C79.8321-24.0288 82.9321-22.8288 86.5321-27.7288C90.1321-32.6288 86.5321-36.3288 86.5321-36.3288C86.5321-36.3288 90.2321-39.4288 90.2321-43.0288C90.2321-46.7288 87.8321-45.4288 87.8321-45.4288C87.8321-45.4288 87.8321-45.4288 90.2321-49.1288C92.6321-52.7288 91.4321-55.2288 88.3321-55.8288ZM18.4321-67.4288C17.4321-67.4288 16.6321-68.2288 16.6321-69.2288C16.6321-70.2288 17.4321-71.0288 18.4321-71.0288C19.4321-71.0288 20.2321-70.2288 20.2321-69.2288C20.2321-68.2288 19.4321-67.4288 18.4321-67.4288Z"/>
  </g>
  <g id="Regular-S" transform="matrix(1 0 0 1 1402.92 696)">
   <path d="M86.6321-55.426C83.6321-56.026 74.7321-50.626 65.1321-45.226C55.5321-39.826 41.8321-45.826 36.4321-51.826C31.0321-57.826 31.3321-67.626 28.3321-71.826C27.9321-72.326 27.5321-72.826 27.0321-73.326L27.1321-73.326C32.5321-74.526 29.5321-82.026 27.7321-83.226C26.0321-84.426 22.4321-79.026 22.4321-79.026C22.4321-79.026 21.8321-82.026 17.0321-82.026C12.2321-82.026 14.0321-78.426 14.0321-78.426C14.0321-78.426 11.2321-80.726 9.23213-77.226C6.63213-72.426 10.0321-70.726 10.8321-70.426C10.4321-68.826 11.0321-67.626 11.0321-67.626L5.23213-61.826C4.83213-61.426 5.13213-60.726 5.73213-60.826L12.2321-61.926C12.2321-61.826 11.6321-56.226 14.6321-55.026C17.6321-53.826 18.2321-57.726 18.2321-57.726L18.3321-58.126C19.1321-56.226 19.4321-53.826 18.8321-50.926C18.0321-46.326 12.7321-42.026 17.3321-30.926C22.4321-18.726 32.2321-14.826 32.2321-14.826C32.2321-14.826 34.8321-4.426 44.2321-2.126C44.3321-1.326 44.5321-0.326 44.7321 0.174C45.2321 1.374 45.7321 2.274 46.3321 2.874L46.3321 6.174C45.1321 6.074 44.0321 5.974 42.9321 5.974C41.6321 5.974 40.2321 5.974 38.9321 5.974L38.9321 6.174C40.2321 6.474 41.5321 6.674 42.8321 6.974C43.3321 7.074 43.9321 7.174 44.4321 7.274C43.9321 7.574 43.4321 7.774 42.9321 8.174C42.4321 8.574 41.8321 8.974 41.3321 9.374C40.8321 9.774 40.3321 10.274 39.9321 10.774L40.0321 10.974C40.7321 10.874 41.3321 10.674 42.0321 10.474C42.6321 10.274 43.2321 9.974 43.8321 9.674C44.4321 9.374 46.4321 8.274 46.9321 7.874L47.2321 7.674C47.4321 7.674 49.2321 7.774 49.9321 7.774C50.6321 7.774 51.3321 7.774 52.0321 7.774C52.7321 7.774 53.4321 7.774 54.1321 7.674L54.1321 7.474C53.4321 7.274 52.7321 7.074 52.1321 6.774C51.4321 6.574 50.7321 6.374 50.1321 6.174C49.4321 5.974 48.7321 5.574 47.9321 5.674C47.9321 5.674 47.9321 5.674 47.9321 5.674L47.9321 2.674C48.6321 2.274 49.1321 1.374 49.5321-0.926C49.6321-1.226 49.6321-1.526 49.6321-1.826C54.9321-2.326 55.6321-5.626 55.6321-5.626C67.2321-7.026 69.3321-8.826 73.7321-13.326C78.2321-17.826 78.2321-24.326 78.2321-24.326C78.2321-24.326 81.2321-23.126 84.8321-27.926C88.4321-32.726 84.8321-36.326 84.8321-36.326C84.8321-36.326 88.4321-39.326 88.4321-42.926C88.4321-46.526 86.0321-45.226 86.0321-45.226C86.0321-45.226 86.0321-45.226 88.4321-48.826C90.8321-52.426 89.6321-54.826 86.6321-55.426ZM18.2321-66.726C17.2321-66.726 16.4321-67.526 16.4321-68.526C16.4321-69.526 17.2321-70.326 18.2321-70.326C19.2321-70.326 20.0321-69.526 20.0321-68.526C20.0321-67.526 19.2321-66.726 18.2321-66.726Z"/>
  </g>
  <g id="Light-S" transform="matrix(1 0 0 1 1107.41 696)">
   <path d="M84.3354-54.7232C81.4354-55.3232 72.7354-50.1232 63.4354-44.8232C54.1354-39.5232 40.8354-45.4232 35.5354-51.2232C30.2354-57.0232 30.6354-66.6232 27.7354-70.7232C27.3354-71.2232 26.9354-71.7232 26.5354-72.1232L26.6354-72.1232C31.8354-73.3232 28.9354-80.5232 27.2354-81.7232C25.5354-82.9232 22.0354-77.6232 22.0354-77.6232C22.0354-77.6232 21.4354-80.5232 16.8354-80.5232C12.2354-80.5232 13.9354-77.0232 13.9354-77.0232C13.9354-77.0232 11.1354-79.2232 9.33536-75.8232C6.73536-71.2232 10.1354-69.5232 10.9354-69.2232C10.5354-67.6232 11.1354-66.5232 11.1354-66.5232L5.23536-61.0232C4.83536-60.6232 5.13536-60.0232 5.63536-60.0232L11.9354-61.1232C11.9354-61.0232 11.4354-55.6232 14.2354-54.4232C17.1354-53.2232 17.7354-57.0232 17.7354-57.0232L17.8354-57.4232C18.5354-55.6232 18.8354-53.2232 18.3354-50.4232C17.5354-45.9232 12.4354-41.7232 16.8354-30.9232C21.9354-19.0232 31.4354-15.2232 31.4354-15.2232C31.4354-15.2232 34.0354-5.12315 43.1354-2.92315C43.2354-2.22315 43.4354-1.12315 43.6354-0.723154C44.1354 0.376846 44.6354 1.27685 45.1354 1.87685L45.1354 5.07685C44.0354 4.97685 42.9354 4.97685 41.8354 4.97685C40.5354 4.97685 39.2354 4.97685 37.9354 4.97685L37.9354 5.17685C39.2354 5.47685 40.5354 5.67685 41.7354 5.87685C42.2354 5.87685 42.8354 5.97685 43.3354 6.07685C42.8354 6.27685 42.3354 6.57685 41.9354 6.87685C41.4354 7.27685 40.9354 7.57685 40.4354 8.07685C39.9354 8.47685 39.4354 8.97685 39.0354 9.47685L39.1354 9.67685C39.8354 9.57685 40.4354 9.37685 41.0354 9.17685C41.6354 8.97685 42.2354 8.67685 42.8354 8.47685C43.4354 8.17685 45.3354 7.07685 45.9354 6.77685L46.2354 6.57685C46.4354 6.57685 48.1354 6.67685 48.8354 6.67685C49.5354 6.67685 50.2354 6.67685 50.9354 6.67685C51.6354 6.67685 52.3354 6.67685 53.0354 6.57685L53.0354 6.37685C52.3354 6.17685 51.7354 5.97685 51.0354 5.77685C50.3354 5.57685 49.7354 5.37685 49.0354 5.27685C48.3354 5.07685 47.6354 4.77685 46.9354 4.77685C46.9354 4.77685 46.9354 4.77685 46.9354 4.77685L46.9354 1.77685C47.5354 1.37685 48.1354 0.476846 48.4354-1.72315C48.4354-2.02315 48.5354-2.32315 48.5354-2.52315C53.6354-3.02315 54.4354-6.22315 54.4354-6.22315C65.4354-7.72315 67.5354-9.42315 71.8354-13.7232C76.2354-18.2232 76.2354-24.5232 76.2354-24.5232C76.2354-24.5232 79.1354-23.3232 82.6354-28.0232C86.1354-32.7232 82.6354-36.1232 82.6354-36.1232C82.6354-36.1232 86.1354-39.0232 86.1354-42.5232C86.1354-46.0232 83.8354-44.8232 83.8354-44.8232C83.8354-44.8232 83.8354-44.8232 86.1354-48.3232C88.3354-51.8232 87.2354-54.1232 84.3354-54.7232ZM17.8354-65.8232C16.8354-65.8232 16.1354-66.6232 16.1354-67.5232C16.1354-68.5232 16.9354-69.2232 17.8354-69.2232C18.8354-69.2232 19.5354-68.4232 19.5354-67.5232C19.5354-66.5232 18.8354-65.8232 17.8354-65.8232Z"/>
  </g>
  <g id="Thin-S" transform="matrix(1 0 0 1 811.908 696)">
   <path d="M82.0354-53.8419C79.2354-54.4419 70.7354-49.3419 61.7354-44.2419C52.7354-39.1419 39.7354-44.8419 34.6354-50.4419C29.5354-56.0419 29.8354-65.3419 27.0354-69.3419C26.6354-69.8419 26.2354-70.3419 25.8354-70.7419L25.9354-70.7419C31.0354-71.8419 28.2354-78.9419 26.5354-80.0419C24.8354-81.1419 21.4354-76.1419 21.4354-76.1419C21.4354-76.1419 20.8354-78.9419 16.3354-78.9419C11.8354-78.9419 13.5354-75.5419 13.5354-75.5419C13.5354-75.5419 10.8354-77.7419 9.03536-74.4419C6.53536-69.9419 9.83536-68.3419 10.5354-68.0419C10.1354-66.4419 10.7354-65.4419 10.7354-65.4419L5.23536-59.9419C4.83536-59.5419 5.13536-58.9419 5.63536-58.9419L11.8354-60.0419C11.8354-59.9419 11.3354-54.6419 14.1354-53.5419C16.9354-52.4419 17.5354-56.0419 17.5354-56.0419L17.6354-56.4419C18.3354-54.6419 18.6354-52.3419 18.1354-49.6419C17.3354-45.3419 12.3354-41.2419 16.7354-30.7419C21.5354-19.1419 30.8354-15.5419 30.8354-15.5419C30.8354-15.5419 33.3354-5.74189 42.1354-3.54189C42.2354-2.84189 42.4354-1.84189 42.6354-1.34189C43.1354-0.241888 43.6354 0.658112 44.1354 1.25811L44.1354 4.35811C43.0354 4.35811 42.0354 4.25811 40.9354 4.25811C39.6354 4.25811 38.4354 4.25811 37.1354 4.25811L37.1354 4.45811C38.3354 4.75811 39.6354 4.95811 40.8354 5.15811C41.2354 5.05811 41.7354 5.15811 42.2354 5.25811C41.7354 5.45811 41.2354 5.75811 40.8354 6.05811C40.3354 6.45811 39.8354 6.75811 39.3354 7.15811C38.8354 7.55811 38.4354 7.95811 37.9354 8.55811L38.0354 8.65811C38.7354 8.55811 39.3354 8.35811 39.9354 8.15811C40.5354 7.95811 41.1354 7.65811 41.6354 7.45811C42.2354 7.15811 44.1354 6.15811 44.6354 5.75811L44.9354 5.55811C45.1354 5.55811 46.8354 5.65811 47.4354 5.65811C48.1354 5.65811 48.7354 5.65811 49.4354 5.65811C50.1354 5.65811 50.7354 5.65811 51.4354 5.55811L51.4354 5.35811C50.8354 5.15811 50.1354 4.95811 49.5354 4.75811C48.9354 4.55811 48.2354 4.35811 47.6354 4.25811C46.9354 4.05811 46.3354 3.75811 45.5354 3.85811C45.5354 3.85811 45.5354 3.85811 45.5354 3.85811L45.5354 0.958112C46.1354 0.558112 46.6354-0.341888 47.0354-2.44189C47.2354-2.64189 47.2354-2.94189 47.2354-3.14189C52.2354-3.64189 52.9354-6.74189 52.9354-6.74189C63.6354-8.14189 65.6354-9.84189 69.8354-14.0419C74.0354-18.2419 74.0354-24.4419 74.0354-24.4419C74.0354-24.4419 76.8354-23.3419 80.2354-27.8419C83.6354-32.3419 80.2354-35.7419 80.2354-35.7419C80.2354-35.7419 83.6354-38.5419 83.6354-41.9419C83.6354-45.3419 81.3354-44.2419 81.3354-44.2419C81.3354-44.2419 81.3354-44.2419 83.6354-47.6419C85.9354-51.0419 84.8354-53.3419 82.0354-53.8419ZM17.4354-64.6419C16.5354-64.6419 15.7354-65.4419 15.7354-66.3419C15.7354-67.2419 16.5354-68.0419 17.4354-68.0419C18.3354-68.0419 19.1354-67.2419 19.1354-66.3419C19.1354-65.4419 18.4354-64.6419 17.4354-64.6419Z"/>
  </g>
  <g id="Ultralight-S" transform="matrix(1 0 0 1 516.384 696)">
   <path d="M79.6354-53.2391C76.9354-53.7391 68.7354-48.8391 59.9354-43.9391C51.1354-39.0391 38.6354-44.4391 33.6354-49.9391C28.6354-55.4391 29.0354-64.4391 26.3354-68.3391C26.0354-68.8391 25.6354-69.2391 25.1354-69.7391L25.2354-69.7391C30.1354-70.8391 27.4354-77.6391 25.7354-78.7391C24.1354-79.8391 20.8354-74.9391 20.8354-74.9391C20.8354-74.9391 20.3354-77.6391 15.9354-77.6391C11.5354-77.6391 13.2354-74.3391 13.2354-74.3391C13.2354-74.3391 10.6354-76.4391 8.83536-73.2391C6.43536-68.8391 9.53536-67.3391 10.3354-67.0391C9.93536-65.5391 10.5354-64.5391 10.5354-64.5391L5.23536-59.2391C4.83536-58.8391 5.13536-58.2391 5.63536-58.3391L11.6354-59.3391C11.6354-59.2391 11.1354-54.1391 13.8354-53.0391C16.5354-51.9391 17.1354-55.5391 17.1354-55.5391L17.2354-55.8391C17.9354-54.1391 18.2354-51.8391 17.7354-49.2391C16.9354-45.0391 12.1354-41.0391 16.3354-30.9391C21.0354-19.7391 30.0354-16.1391 30.0354-16.1391C30.0354-16.1391 32.4354-6.63909 41.0354-4.53909C41.1354-3.83909 41.3354-2.83909 41.5354-2.43909C42.0354-1.33909 42.5354-0.539088 42.9354 0.0609124L42.9354 3.06091C41.9354 3.06091 40.8354 2.96091 39.8354 2.96091C38.6354 2.96091 37.4354 2.96091 36.1354 2.96091L36.1354 3.16091C37.3354 3.46091 38.5354 3.66091 39.7354 3.86091C40.0354 3.96091 40.5354 4.06091 41.0354 4.06091C40.5354 4.26091 40.1354 4.56091 39.6354 4.86091C39.1354 5.16091 38.6354 5.56091 38.2354 5.96091C37.7354 6.36091 37.3354 6.76091 36.9354 7.26091L37.0354 7.46091C37.6354 7.36091 38.2354 7.16091 38.8354 6.96091C39.4354 6.76091 39.9354 6.56091 40.5354 6.26091C41.0354 6.06091 42.9354 5.06091 43.4354 4.66091L43.7354 4.46091C43.9354 4.46091 45.5354 4.56091 46.2354 4.56091C46.8354 4.56091 47.5354 4.56091 48.1354 4.56091C48.8354 4.56091 49.4354 4.56091 50.1354 4.46091L50.1354 4.26091C49.5354 4.06091 48.9354 3.86091 48.2354 3.66091C47.6354 3.46091 47.0354 3.26091 46.3354 3.16091C45.6354 2.96091 45.0354 2.66091 44.3354 2.76091C44.3354 2.76091 44.3354 2.76091 44.3354 2.76091L44.3354-0.0390876C44.9354-0.439088 45.4354-1.23909 45.8354-3.33909C45.8354-3.63909 45.9354-3.83909 45.9354-4.13909C50.8354-4.63909 51.4354-7.63909 51.4354-7.63909C61.8354-9.03909 63.7354-10.6391 67.8354-14.7391C72.0354-18.7391 72.0354-24.7391 72.0354-24.7391C72.0354-24.7391 74.7354-23.6391 78.0354-28.0391C81.3354-32.4391 78.0354-35.7391 78.0354-35.7391C78.0354-35.7391 81.3354-38.4391 81.3354-41.7391C81.3354-45.0391 79.1354-43.9391 79.1354-43.9391C79.1354-43.9391 79.1354-43.9391 81.3354-47.2391C83.5354-50.5391 82.4354-52.7391 79.6354-53.2391ZM17.0354-63.6391C16.1354-63.6391 15.4354-64.3391 15.4354-65.2391C15.4354-66.1391 16.1354-66.9391 17.0354-66.9391C17.9354-66.9391 18.6354-66.2391 18.6354-65.3391C18.6354-64.4391 17.9354-63.6391 17.0354-63.6391Z"/>
  </g>
 </g>
</svg>
