<?xml version="1.0" encoding="UTF-8"?>
<!--Generator: Apple Native CoreSVG 175.5-->
<!DOCTYPE svg
PUBLIC "-//W3C//DTD SVG 1.1//EN"
       "http://www.w3.org/Graphics/SVG/1.1/DTD/svg11.dtd">
<svg version="1.1" xmlns="http://www.w3.org/2000/svg" xmlns:xlink="http://www.w3.org/1999/xlink" width="3300" height="2200">
 <!--glyph: "uni1012FA.medium", point size: 100.0, font version: "18.0d9e1", template writer version: "84"-->
 <g id="Notes">
  <rect height="2200" id="artboard" style="fill:white;opacity:1" width="3300" x="0" y="0"/>
  <line style="fill:none;stroke:black;opacity:1;stroke-width:0.5;" x1="263" x2="3036" y1="292" y2="292"/>
  <text style="stroke:none;fill:black;font-family:sans-serif;font-size:13;font-weight:bold;" transform="matrix(1 0 0 1 263 322)">Weight/Scale Variations</text>
  <text style="stroke:none;fill:black;font-family:sans-serif;font-size:13;text-anchor:middle;" transform="matrix(1 0 0 1 559.711 322)">Ultralight</text>
  <text style="stroke:none;fill:black;font-family:sans-serif;font-size:13;text-anchor:middle;" transform="matrix(1 0 0 1 856.422 322)">Thin</text>
  <text style="stroke:none;fill:black;font-family:sans-serif;font-size:13;text-anchor:middle;" transform="matrix(1 0 0 1 1153.13 322)">Light</text>
  <text style="stroke:none;fill:black;font-family:sans-serif;font-size:13;text-anchor:middle;" transform="matrix(1 0 0 1 1449.84 322)">Regular</text>
  <text style="stroke:none;fill:black;font-family:sans-serif;font-size:13;text-anchor:middle;" transform="matrix(1 0 0 1 1746.56 322)">Medium</text>
  <text style="stroke:none;fill:black;font-family:sans-serif;font-size:13;text-anchor:middle;" transform="matrix(1 0 0 1 2043.27 322)">Semibold</text>
  <text style="stroke:none;fill:black;font-family:sans-serif;font-size:13;text-anchor:middle;" transform="matrix(1 0 0 1 2339.98 322)">Bold</text>
  <text style="stroke:none;fill:black;font-family:sans-serif;font-size:13;text-anchor:middle;" transform="matrix(1 0 0 1 2636.69 322)">Heavy</text>
  <text style="stroke:none;fill:black;font-family:sans-serif;font-size:13;text-anchor:middle;" transform="matrix(1 0 0 1 2933.4 322)">Black</text>
  <line style="fill:none;stroke:black;opacity:1;stroke-width:0.5;" x1="263" x2="3036" y1="1903" y2="1903"/>
  <g transform="matrix(1 0 0 1 263 1933)">
   <path d="M9.24805 0.830078Q10.8691 0.830078 12.2949 0.214844Q13.7207-0.400391 14.8096-1.49414Q15.8984-2.58789 16.5186-4.01367Q17.1387-5.43945 17.1387-7.05078Q17.1387-8.66211 16.5186-10.0879Q15.8984-11.5137 14.8047-12.6074Q13.7109-13.7012 12.2852-14.3164Q10.8594-14.9316 9.23828-14.9316Q7.62695-14.9316 6.20117-14.3164Q4.77539-13.7012 3.69141-12.6074Q2.60742-11.5137 1.9873-10.0879Q1.36719-8.66211 1.36719-7.05078Q1.36719-5.43945 1.9873-4.01367Q2.60742-2.58789 3.69629-1.49414Q4.78516-0.400391 6.21094 0.214844Q7.63672 0.830078 9.24805 0.830078ZM9.24805-0.654297Q7.91992-0.654297 6.7627-1.14746Q5.60547-1.64062 4.73145-2.51953Q3.85742-3.39844 3.36426-4.56055Q2.87109-5.72266 2.87109-7.05078Q2.87109-8.37891 3.35938-9.54102Q3.84766-10.7031 4.72168-11.582Q5.5957-12.4609 6.75293-12.9541Q7.91016-13.4473 9.23828-13.4473Q10.5762-13.4473 11.7383-12.9541Q12.9004-12.4609 13.7793-11.582Q14.6582-10.7031 15.1514-9.54102Q15.6445-8.37891 15.6445-7.05078Q15.6445-5.72266 15.1514-4.56055Q14.6582-3.39844 13.7793-2.51953Q12.9004-1.64062 11.7432-1.14746Q10.5859-0.654297 9.24805-0.654297ZM5.6543-7.05078Q5.6543-6.72852 5.85938-6.52832Q6.06445-6.32812 6.40625-6.32812L8.51562-6.32812L8.51562-4.20898Q8.51562-3.88672 8.71094-3.67676Q8.90625-3.4668 9.23828-3.4668Q9.56055-3.4668 9.77051-3.67676Q9.98047-3.88672 9.98047-4.20898L9.98047-6.32812L12.0898-6.32812Q12.4219-6.32812 12.627-6.52832Q12.832-6.72852 12.832-7.05078Q12.832-7.38281 12.627-7.58789Q12.4219-7.79297 12.0898-7.79297L9.98047-7.79297L9.98047-9.90234Q9.98047-10.2344 9.77051-10.4443Q9.56055-10.6543 9.23828-10.6543Q8.90625-10.6543 8.71094-10.4443Q8.51562-10.2344 8.51562-9.90234L8.51562-7.79297L6.40625-7.79297Q6.06445-7.79297 5.85938-7.58789Q5.6543-7.38281 5.6543-7.05078Z"/>
  </g>
  <g transform="matrix(1 0 0 1 281.867 1933)">
   <path d="M11.709 2.91016Q13.75 2.91016 15.5518 2.12891Q17.3535 1.34766 18.7305-0.0292969Q20.1074-1.40625 20.8887-3.20801Q21.6699-5.00977 21.6699-7.05078Q21.6699-9.0918 20.8887-10.8936Q20.1074-12.6953 18.7305-14.0723Q17.3535-15.4492 15.5469-16.2305Q13.7402-17.0117 11.6992-17.0117Q9.6582-17.0117 7.85645-16.2305Q6.05469-15.4492 4.68262-14.0723Q3.31055-12.6953 2.5293-10.8936Q1.74805-9.0918 1.74805-7.05078Q1.74805-5.00977 2.5293-3.20801Q3.31055-1.40625 4.6875-0.0292969Q6.06445 1.34766 7.86621 2.12891Q9.66797 2.91016 11.709 2.91016ZM11.709 1.25Q9.98047 1.25 8.47656 0.605469Q6.97266-0.0390625 5.83496-1.17676Q4.69727-2.31445 4.05762-3.81836Q3.41797-5.32227 3.41797-7.05078Q3.41797-8.7793 4.05762-10.2832Q4.69727-11.7871 5.83008-12.9297Q6.96289-14.0723 8.4668-14.7119Q9.9707-15.3516 11.6992-15.3516Q13.4277-15.3516 14.9365-14.7119Q16.4453-14.0723 17.583-12.9297Q18.7207-11.7871 19.3652-10.2832Q20.0098-8.7793 20.0098-7.05078Q20.0098-5.32227 19.3701-3.81836Q18.7305-2.31445 17.5879-1.17676Q16.4453-0.0390625 14.9414 0.605469Q13.4375 1.25 11.709 1.25ZM7.17773-7.05078Q7.17773-6.69922 7.41211-6.47461Q7.64648-6.25 8.01758-6.25L10.8887-6.25L10.8887-3.36914Q10.8887-2.99805 11.1133-2.76855Q11.3379-2.53906 11.6895-2.53906Q12.0605-2.53906 12.29-2.76855Q12.5195-2.99805 12.5195-3.36914L12.5195-6.25L15.4004-6.25Q15.7715-6.25 16.001-6.47461Q16.2305-6.69922 16.2305-7.05078Q16.2305-7.42188 16.001-7.65137Q15.7715-7.88086 15.4004-7.88086L12.5195-7.88086L12.5195-10.752Q12.5195-11.1328 12.29-11.3623Q12.0605-11.5918 11.6895-11.5918Q11.3379-11.5918 11.1133-11.3574Q10.8887-11.123 10.8887-10.752L10.8887-7.88086L8.01758-7.88086Q7.63672-7.88086 7.40723-7.65137Q7.17773-7.42188 7.17773-7.05078Z"/>
  </g>
  <g transform="matrix(1 0 0 1 305.646 1933)">
   <path d="M14.9707 5.66406Q17.0605 5.66406 18.96 5.01465Q20.8594 4.36523 22.4512 3.19336Q24.043 2.02148 25.2197 0.429688Q26.3965-1.16211 27.0459-3.06641Q27.6953-4.9707 27.6953-7.05078Q27.6953-9.14062 27.0459-11.04Q26.3965-12.9395 25.2197-14.5312Q24.043-16.123 22.4512-17.2998Q20.8594-18.4766 18.9551-19.126Q17.0508-19.7754 14.9609-19.7754Q12.8711-19.7754 10.9717-19.126Q9.07227-18.4766 7.48535-17.2998Q5.89844-16.123 4.72168-14.5312Q3.54492-12.9395 2.90039-11.04Q2.25586-9.14062 2.25586-7.05078Q2.25586-4.9707 2.90527-3.06641Q3.55469-1.16211 4.72656 0.429688Q5.89844 2.02148 7.49023 3.19336Q9.08203 4.36523 10.9814 5.01465Q12.8809 5.66406 14.9707 5.66406ZM14.9707 3.84766Q13.1641 3.84766 11.5283 3.2959Q9.89258 2.74414 8.53516 1.74805Q7.17773 0.751953 6.17676-0.610352Q5.17578-1.97266 4.62891-3.6084Q4.08203-5.24414 4.08203-7.05078Q4.08203-8.86719 4.62891-10.5029Q5.17578-12.1387 6.17188-13.501Q7.16797-14.8633 8.52539-15.8594Q9.88281-16.8555 11.5186-17.4023Q13.1543-17.9492 14.9609-17.9492Q16.7773-17.9492 18.4131-17.4023Q20.0488-16.8555 21.4111-15.8594Q22.7734-14.8633 23.7744-13.501Q24.7754-12.1387 25.3223-10.5029Q25.8691-8.86719 25.8691-7.05078Q25.8691-5.24414 25.3223-3.6084Q24.7754-1.97266 23.7793-0.610352Q22.7832 0.751953 21.4209 1.74805Q20.0586 2.74414 18.4229 3.2959Q16.7871 3.84766 14.9707 3.84766ZM9.19922-7.05078Q9.19922-6.66992 9.45801-6.4209Q9.7168-6.17188 10.1172-6.17188L14.0625-6.17188L14.0625-2.2168Q14.0625-1.81641 14.3115-1.55762Q14.5605-1.29883 14.9512-1.29883Q15.3516-1.29883 15.6104-1.55273Q15.8691-1.80664 15.8691-2.2168L15.8691-6.17188L19.8242-6.17188Q20.2246-6.17188 20.4785-6.4209Q20.7324-6.66992 20.7324-7.05078Q20.7324-7.46094 20.4785-7.71484Q20.2246-7.96875 19.8242-7.96875L15.8691-7.96875L15.8691-11.9141Q15.8691-12.3242 15.6104-12.583Q15.3516-12.8418 14.9512-12.8418Q14.5605-12.8418 14.3115-12.583Q14.0625-12.3242 14.0625-11.9141L14.0625-7.96875L10.1172-7.96875Q9.70703-7.96875 9.45312-7.71484Q9.19922-7.46094 9.19922-7.05078Z"/>
  </g>
  <text style="stroke:none;fill:black;font-family:sans-serif;font-size:13;font-weight:bold;" transform="matrix(1 0 0 1 263 1953)">Design Variations</text>
  <text style="stroke:none;fill:black;font-family:sans-serif;font-size:13;" transform="matrix(1 0 0 1 263 1971)">Symbols are supported in up to nine weights and three scales.</text>
  <text style="stroke:none;fill:black;font-family:sans-serif;font-size:13;" transform="matrix(1 0 0 1 263 1989)">For optimal layout with text and other symbols, vertically align</text>
  <text style="stroke:none;fill:black;font-family:sans-serif;font-size:13;" transform="matrix(1 0 0 1 263 2007)">symbols with the adjacent text.</text>
  <line style="fill:none;stroke:#00AEEF;stroke-width:0.5;opacity:1.0;" x1="776" x2="776" y1="1919" y2="1933"/>
  <g transform="matrix(1 0 0 1 776 1933)">
   <path d="M3.31055 0.15625Q3.70117 0.15625 3.91602-0.00976562Q4.13086-0.175781 4.26758-0.585938L5.52734-4.0332L11.2891-4.0332L12.5488-0.585938Q12.6855-0.175781 12.9004-0.00976562Q13.1152 0.15625 13.4961 0.15625Q13.8867 0.15625 14.1162-0.0585938Q14.3457-0.273438 14.3457-0.644531Q14.3457-0.869141 14.2383-1.17188L9.6582-13.3691Q9.48242-13.8184 9.17969-14.043Q8.87695-14.2676 8.4082-14.2676Q7.5-14.2676 7.17773-13.3789L2.59766-1.16211Q2.49023-0.859375 2.49023-0.634766Q2.49023-0.263672 2.70996-0.0537109Q2.92969 0.15625 3.31055 0.15625ZM6.00586-5.51758L8.37891-12.0898L8.42773-12.0898L10.8008-5.51758Z"/>
  </g>
  <line style="fill:none;stroke:#00AEEF;stroke-width:0.5;opacity:1.0;" x1="793.197" x2="793.197" y1="1919" y2="1933"/>
  <text style="stroke:none;fill:black;font-family:sans-serif;font-size:13;font-weight:bold;" transform="matrix(1 0 0 1 776 1953)">Margins</text>
  <text style="stroke:none;fill:black;font-family:sans-serif;font-size:13;" transform="matrix(1 0 0 1 776 1971)">Leading and trailing margins on the left and right side of each symbol</text>
  <text style="stroke:none;fill:black;font-family:sans-serif;font-size:13;" transform="matrix(1 0 0 1 776 1989)">can be adjusted by modifying the x-location of the margin guidelines.</text>
  <text style="stroke:none;fill:black;font-family:sans-serif;font-size:13;" transform="matrix(1 0 0 1 776 2007)">Modifications are automatically applied proportionally to all</text>
  <text style="stroke:none;fill:black;font-family:sans-serif;font-size:13;" transform="matrix(1 0 0 1 776 2025)">scales and weights.</text>
  <g transform="matrix(1 0 0 1 1289 1933)">
   <path d="M2.8418 1.86523L4.54102 3.57422Q5.18555 4.22852 5.90332 4.17969Q6.62109 4.13086 7.31445 3.35938L18.0078-8.42773L17.041-9.4043L6.42578 2.27539Q6.16211 2.57812 5.89355 2.61719Q5.625 2.65625 5.27344 2.30469L4.10156 1.14258Q3.75 0.791016 3.79395 0.522461Q3.83789 0.253906 4.14062-0.0195312L15.6152-10.8203L14.6387-11.7871L3.04688-0.898438Q2.30469-0.214844 2.25098 0.498047Q2.19727 1.21094 2.8418 1.86523ZM9.25781-16.3281Q8.94531-16.0254 8.90625-15.6348Q8.86719-15.2441 9.04297-14.9512Q9.21875-14.6777 9.55566-14.541Q9.89258-14.4043 10.3809-14.5215Q11.4746-14.7754 12.5977-14.7314Q13.7207-14.6875 14.7949-13.9844L14.209-12.5293Q13.9551-11.9043 14.0674-11.4404Q14.1797-10.9766 14.5801-10.5664L16.875-8.25195Q17.2363-7.88086 17.5781-7.82227Q17.9199-7.76367 18.3398-7.8418L19.4043-8.03711L20.0684-7.36328L20.0293-6.80664Q20-6.43555 20.1221-6.12305Q20.2441-5.81055 20.6055-5.44922L21.3672-4.70703Q21.7285-4.3457 22.1533-4.33105Q22.5781-4.31641 22.9297-4.66797L25.8398-7.58789Q26.1914-7.93945 26.1816-8.35449Q26.1719-8.76953 25.8105-9.13086L25.0391-9.89258Q24.6875-10.2539 24.3799-10.3857Q24.0723-10.5176 23.7109-10.4883L23.1348-10.4395L22.4902-11.0742L22.7344-12.1973Q22.832-12.6172 22.6953-12.9834Q22.5586-13.3496 22.1191-13.7891L19.9219-15.9766Q18.6719-17.2168 17.2607-17.8369Q15.8496-18.457 14.4189-18.4814Q12.9883-18.5059 11.665-17.959Q10.3418-17.4121 9.25781-16.3281ZM10.752-15.957Q11.6602-16.6211 12.7002-16.9043Q13.7402-17.1875 14.8047-17.085Q15.8691-16.9824 16.8701-16.5137Q17.8711-16.0449 18.7012-15.2051L21.1328-12.793Q21.3086-12.6172 21.3525-12.4512Q21.3965-12.2852 21.3379-12.0312L21.0156-10.5469L22.5195-9.0625L23.5059-9.12109Q23.6914-9.13086 23.7891-9.09668Q23.8867-9.0625 24.0332-8.91602L24.6094-8.33984L22.168-5.89844L21.5918-6.47461Q21.4453-6.62109 21.4062-6.71875Q21.3672-6.81641 21.377-7.01172L21.4453-7.98828L19.9512-9.47266L18.4277-9.21875Q18.1836-9.16992 18.042-9.2041Q17.9004-9.23828 17.7148-9.41406L15.7129-11.416Q15.5176-11.5918 15.4932-11.7529Q15.4688-11.9141 15.5859-12.1875L16.4648-14.2773Q15.293-15.3711 13.8281-15.791Q12.3633-16.2109 10.8398-15.7617Q10.7227-15.7324 10.6885-15.8057Q10.6543-15.8789 10.752-15.957Z"/>
  </g>
  <text style="stroke:none;fill:black;font-family:sans-serif;font-size:13;font-weight:bold;" transform="matrix(1 0 0 1 1289 1953)">Exporting</text>
  <text style="stroke:none;fill:black;font-family:sans-serif;font-size:13;" transform="matrix(1 0 0 1 1289 1971)">Symbols should be outlined when exporting to ensure the</text>
  <text style="stroke:none;fill:black;font-family:sans-serif;font-size:13;" transform="matrix(1 0 0 1 1289 1989)">design is preserved when submitting to Xcode.</text>
  <text id="template-version" style="stroke:none;fill:black;font-family:sans-serif;font-size:13;text-anchor:end;" transform="matrix(1 0 0 1 3036 1933)">Template v.2.0</text>
  <text style="stroke:none;fill:black;font-family:sans-serif;font-size:13;text-anchor:end;" transform="matrix(1 0 0 1 3036 1951)">Requires Xcode 12 or greater</text>
  <text id="descriptive-name" style="stroke:none;fill:black;font-family:sans-serif;font-size:13;text-anchor:end;" transform="matrix(1 0 0 1 3036 1969)">Generated from backpack.fill</text>
  <text style="stroke:none;fill:black;font-family:sans-serif;font-size:13;text-anchor:end;" transform="matrix(1 0 0 1 3036 1987)">Typeset at 100 points</text>
  <text style="stroke:none;fill:black;font-family:sans-serif;font-size:13;" transform="matrix(1 0 0 1 263 726)">Small</text>
  <text style="stroke:none;fill:black;font-family:sans-serif;font-size:13;" transform="matrix(1 0 0 1 263 1156)">Medium</text>
  <text style="stroke:none;fill:black;font-family:sans-serif;font-size:13;" transform="matrix(1 0 0 1 263 1586)">Large</text>
 </g>
 <g id="Guides">
  <g id="H-reference" style="fill:#27AAE1;stroke:none;" transform="matrix(1 0 0 1 339 696)">
   <path d="M0.993347 0L3.6377 0L29.3282-67.1326L30.0301-67.1326L30.0301-70.459L28.1227-70.459ZM11.6882-24.4797L46.9818-24.4797L46.2311-26.7288L12.4382-26.7288ZM55.1193 0L57.7637 0L30.6381-70.459L29.4327-70.459L29.4327-67.1326Z"/>
  </g>
  <line id="Baseline-S" style="fill:none;stroke:#27AAE1;opacity:1;stroke-width:0.5;" x1="263" x2="3036" y1="696" y2="696"/>
  <line id="Capline-S" style="fill:none;stroke:#27AAE1;opacity:1;stroke-width:0.5;" x1="263" x2="3036" y1="625.541" y2="625.541"/>
  <g id="H-reference" style="fill:#27AAE1;stroke:none;" transform="matrix(1 0 0 1 339 1126)">
   <path d="M0.993347 0L3.6377 0L29.3282-67.1326L30.0301-67.1326L30.0301-70.459L28.1227-70.459ZM11.6882-24.4797L46.9818-24.4797L46.2311-26.7288L12.4382-26.7288ZM55.1193 0L57.7637 0L30.6381-70.459L29.4327-70.459L29.4327-67.1326Z"/>
  </g>
  <line id="Baseline-M" style="fill:none;stroke:#27AAE1;opacity:1;stroke-width:0.5;" x1="263" x2="3036" y1="1126" y2="1126"/>
  <line id="Capline-M" style="fill:none;stroke:#27AAE1;opacity:1;stroke-width:0.5;" x1="263" x2="3036" y1="1055.54" y2="1055.54"/>
  <g id="H-reference" style="fill:#27AAE1;stroke:none;" transform="matrix(1 0 0 1 339 1556)">
   <path d="M0.993347 0L3.6377 0L29.3282-67.1326L30.0301-67.1326L30.0301-70.459L28.1227-70.459ZM11.6882-24.4797L46.9818-24.4797L46.2311-26.7288L12.4382-26.7288ZM55.1193 0L57.7637 0L30.6381-70.459L29.4327-70.459L29.4327-67.1326Z"/>
  </g>
  <line id="Baseline-L" style="fill:none;stroke:#27AAE1;opacity:1;stroke-width:0.5;" x1="263" x2="3036" y1="1556" y2="1556"/>
  <line id="Capline-L" style="fill:none;stroke:#27AAE1;opacity:1;stroke-width:0.5;" x1="263" x2="3036" y1="1485.54" y2="1485.54"/>
  <line id="left-margin" style="fill:none;stroke:#00AEEF;stroke-width:0.5;opacity:1.0;" x1="1397.22" x2="1397.22" y1="1030.79" y2="1150.12"/>
  <line id="right-margin" style="fill:none;stroke:#00AEEF;stroke-width:0.5;opacity:1.0;" x1="1502.47" x2="1502.47" y1="1030.79" y2="1150.12"/>
 </g>
 <g id="Symbols">
  <g id="Black-L" transform="matrix(1 0 0 1 2861.03 1556)">
   <path d="M52.8657 46.6313L91.8639 46.6313Q110.057 46.6313 119.431 37.0672Q128.805 27.5031 128.665 9.12821Q128.484-10.1302 128.322-24.506Q128.161-38.8818 127.621-49.4412Q126.9-65.6369 123.788-76.5759Q120.677-87.515 114.342-94.0122Q108.006-100.509 97.7205-103.35Q87.4351-106.191 72.3642-106.191Q57.3141-106.191 47.0288-103.35Q36.7434-100.509 30.4077-94.0122Q24.072-87.515 20.9608-76.5759Q17.8496-65.6369 17.1282-49.4412Q16.6469-38.8818 16.4459-24.506Q16.2448-10.1302 16.084 9.12821Q16.0036 27.5031 25.3374 37.0672Q34.6713 46.6313 52.8657 46.6313ZM51.7584 19.2699Q46.7088 19.2699 43.5691 16.0906Q40.4294 12.9113 40.4294 7.99818L40.4294-23.9607Q40.4294-28.853 43.5691-32.0427Q46.7088-35.2324 51.7584-35.2324L92.9909-35.2324Q98.078-35.2324 101.199-32.0719Q104.32-28.9114 104.32-23.9607L104.32 7.99818Q104.32 12.9697 101.199 16.1198Q98.078 19.2699 92.9909 19.2699ZM40.4294-4.42641L104.32-4.42641L104.32-16.0611L40.4294-16.0611ZM72.307-123.782Q61.5847-123.782 55.2112-117.292Q48.8378-110.802 48.8378-100.017L62.2906-100.017Q62.2906-105.065 65.0312-108.008Q67.7717-110.951 72.307-110.951Q76.8423-110.951 79.5822-108.008Q82.3222-105.065 82.3222-100.017L95.7958-100.017Q95.7958-110.802 89.412-117.292Q83.0281-123.782 72.307-123.782Z"/>
  </g>
  <g id="Heavy-L" transform="matrix(1 0 0 1 2565.49 1556)">
   <path d="M51.7753 44.988L90.5913 44.988Q108.326 44.988 117.382 35.7491Q126.438 26.5101 126.307 8.58418Q126.116-10.5854 125.953-24.8762Q125.789-39.167 125.267-49.6547Q124.555-65.5877 121.53-76.3183Q118.505-87.0489 112.321-93.3963Q106.138-99.7438 96.0654-102.505Q85.9933-105.266 71.1805-105.266Q56.3979-105.266 46.3258-102.505Q36.2536-99.7438 30.0698-93.3963Q23.8861-87.0489 20.8612-76.3183Q17.8363-65.5877 17.1238-49.6547Q16.6469-39.167 16.4459-24.8762Q16.2448-10.5854 16.084 8.58418Q16.0036 26.5101 25.0192 35.7491Q34.0348 44.988 51.7753 44.988ZM50.5341 18.2322Q45.7223 18.2322 42.7659 15.2384Q39.8095 12.2447 39.8095 7.54661L39.8095-24.4228Q39.8095-29.0907 42.7659-32.0995Q45.7223-35.1084 50.5341-35.1084L91.8571-35.1084Q96.6834-35.1084 99.6325-32.1219Q102.582-29.1353 102.582-24.4228L102.582 7.54661Q102.582 12.2894 99.6325 15.2608Q96.6834 18.2322 91.8571 18.2322ZM39.8095-5.95579L102.582-5.95579L102.582-16.5227L39.8095-16.5227ZM71.1415-122.106Q60.8881-122.106 54.6962-115.887Q48.5043-109.667 48.5043-99.5228L60.7459-99.5228Q60.7459-104.452 63.6107-107.389Q66.4756-110.325 71.1415-110.325Q75.8074-110.325 78.6695-107.389Q81.5316-104.452 81.5316-99.5228L93.8032-99.5228Q93.8032-109.667 87.5963-115.887Q81.3893-122.106 71.1415-122.106Z"/>
  </g>
  <g id="Bold-L" transform="matrix(1 0 0 1 2270.34 1556)">
   <path d="M50.3708 42.7804L88.8894 42.7804Q106.026 42.7804 114.675 33.956Q123.324 25.1316 123.201 7.79625Q123.002-11.2284 122.835-25.3893Q122.667-39.5502 122.169-49.9309Q121.471-65.5114 118.558-75.9659Q115.644-86.4204 109.66-92.5722Q103.676-98.724 93.8835-101.382Q84.0913-104.04 69.6235-104.04Q55.1937-104.04 45.4015-101.382Q35.6093-98.724 29.625-92.5722Q23.6407-86.4204 20.7271-75.9659Q17.8134-65.5114 17.1161-49.9309Q16.6469-39.5502 16.4459-25.3893Q16.2448-11.2284 16.084 7.79625Q16.0036 25.1316 24.6123 33.956Q33.221 42.7804 50.3708 42.7804ZM49.0575 16.7849Q44.5303 16.7849 41.7857 14.0068Q39.0411 11.2287 39.0411 6.7845L39.0411-24.9692Q39.0411-29.3754 41.7857-32.1725Q44.5303-34.9696 49.0575-34.9696L90.2274-34.9696Q94.7459-34.9696 97.4949-32.1871Q100.244-29.4046 100.244-24.9692L100.244 6.7845Q100.244 11.2579 97.4949 14.0214Q94.7459 16.7849 90.2274 16.7849ZM39.0411-7.88341L100.244-7.88341L100.244-17.0764L39.0411-17.0764ZM69.6074-119.867Q60.0125-119.867 54.092-114.027Q48.1715-108.187 48.1715-98.8634L58.8252-98.8634Q58.8252-103.655 61.8251-106.576Q64.825-109.497 69.6074-109.497Q74.3901-109.497 77.3835-106.576Q80.3768-103.655 80.3768-98.8634L91.0684-98.8634Q91.0684-108.187 85.1288-114.027Q79.1893-119.867 69.6074-119.867Z"/>
  </g>
  <g id="Semibold-L" transform="matrix(1 0 0 1 1974.69 1556)">
   <path d="M49.4025 41.2584L87.7161 41.2584Q104.44 41.2584 112.809 32.7198Q121.177 24.1813 121.06 7.25306Q120.855-11.6716 120.685-25.743Q120.515-39.8143 120.033-50.1213Q119.346-65.4588 116.509-75.7229Q113.672-85.9871 107.825-92.004Q101.978-98.0209 92.3792-100.607Q82.7801-103.194 68.5501-103.194Q54.3635-103.194 44.7643-100.607Q35.1651-98.0209 29.3183-92.004Q23.4715-85.9871 20.6346-75.7229Q17.7976-65.4588 17.1108-50.1213Q16.6469-39.8143 16.4459-25.743Q16.2448-11.6716 16.084 7.25306Q16.0036 24.1813 24.3318 32.7198Q32.66 41.2584 49.4025 41.2584ZM48.0396 15.7871Q43.7086 15.7871 41.11 13.1577Q38.5113 10.5283 38.5113 6.25911L38.5113-25.3459Q38.5113-29.5716 41.11-32.2228Q43.7086-34.8739 48.0396-34.8739L89.1039-34.8739Q93.4102-34.8739 96.0212-32.2321Q98.6322-29.5902 98.6322-25.3459L98.6322 6.25911Q98.6322 10.5469 96.0212 13.167Q93.4102 15.7871 89.1039 15.7871ZM38.5113-9.21231L98.6322-9.21231L98.6322-17.4582L38.5113-17.4582ZM68.5499-118.324Q59.4088-118.324 53.6754-112.745Q47.942-107.166 47.942-98.4089L57.5011-98.4089Q57.5011-103.104 60.594-106.015Q63.687-108.926 68.5499-108.926Q73.4131-108.926 76.4969-106.015Q79.5807-103.104 79.5807-98.4089L89.183-98.4089Q89.183-107.166 83.4278-112.745Q77.6726-118.324 68.5499-118.324Z"/>
  </g>
  <g id="Medium-L" transform="matrix(1 0 0 1 1678.8 1556)">
   <path d="M48.6683 40.1044L86.8265 40.1044Q103.237 40.1044 111.393 31.7826Q119.549 23.4607 119.436 6.84119Q119.228-12.0077 119.056-26.0112Q118.883-40.0146 118.413-50.2657Q117.734-65.4189 114.955-75.5387Q112.177-85.6585 106.434-91.5732Q100.691-97.4879 91.2387-100.02Q81.7858-102.552 67.7363-102.552Q53.734-102.552 44.2811-100.02Q34.8283-97.4879 29.0858-91.5732Q23.3433-85.6585 20.5645-75.5387Q17.7857-65.4189 17.1068-50.2657Q16.6469-40.0146 16.4459-26.0112Q16.2448-12.0077 16.084 6.84119Q16.0036 23.4607 24.1191 31.7826Q32.2347 40.1044 48.6683 40.1044ZM47.2677 15.0306Q43.0856 15.0306 40.5976 12.5139Q38.1096 9.99725 38.1096 5.86074L38.1096-25.6315Q38.1096-29.7204 40.5976-32.2609Q43.0856-34.8014 47.2677-34.8014L88.2521-34.8014Q92.3975-34.8014 94.9038-32.2662Q97.4101-29.7309 97.4101-25.6315L97.4101 5.86074Q97.4101 10.0078 94.9038 12.5192Q92.3975 15.0306 88.2521 15.0306ZM38.1096-10.2199L97.4101-10.2199L97.4101-17.7477L38.1096-17.7477ZM67.748-117.154Q58.9511-117.154 53.3596-111.773Q47.768-106.392 47.768-98.0642L56.497-98.0642Q56.497-102.687 59.6606-105.59Q62.8242-108.493 67.748-108.493Q72.6722-108.493 75.8247-105.59Q78.9771-102.687 78.9771-98.0642L87.7534-98.0642Q87.7534-106.392 82.138-111.773Q76.5226-117.154 67.748-117.154Z"/>
  </g>
  <g id="Regular-L" transform="matrix(1 0 0 1 1383.14 1556)">
   <path d="M47.7107 38.5992L85.6661 38.5992Q101.669 38.5992 109.548 30.56Q117.426 22.5208 117.318 6.30397Q117.105-12.4461 116.93-26.361Q116.755-40.2759 116.3-50.454Q115.632-65.3668 112.929-75.2984Q110.226-85.23 104.619-91.0113Q99.0129-96.7926 89.751-99.2543Q80.489-101.716 66.6747-101.716Q52.9129-101.716 43.6509-99.2543Q34.389-96.7926 28.7825-91.0113Q23.176-85.23 20.473-75.2984Q17.77-65.3668 17.1016-50.454Q16.6469-40.2759 16.4459-26.361Q16.2448-12.4461 16.084 6.30397Q16.0036 22.5208 23.8417 30.56Q31.6798 38.5992 47.7107 38.5992ZM46.261 14.0438Q42.2729 14.0438 39.9293 11.6742Q37.5857 9.30453 37.5857 5.34112L37.5857-26.0041Q37.5857-29.9145 39.9293-32.3106Q42.2729-34.7068 46.261-34.7068L87.1409-34.7068Q91.0765-34.7068 93.4463-32.3106Q95.8162-29.9145 95.8162-26.0041L95.8162 5.34112Q95.8162 9.30453 93.4463 11.6742Q91.0765 14.0438 87.1409 14.0438ZM37.5857-11.5342L95.8162-11.5342L95.8162-18.1252L37.5857-18.1252ZM66.7021-115.627Q58.3541-115.627 52.9476-110.505Q47.541-105.382 47.541-97.6147L55.1875-97.6147Q55.1875-102.143 58.4431-105.036Q61.6987-107.928 66.7021-107.928Q71.7059-107.928 74.9478-105.036Q78.1898-102.143 78.1898-97.6147L85.8888-97.6147Q85.8888-105.382 80.4557-110.505Q75.0226-115.627 66.7021-115.627Z"/>
  </g>
  <g id="Light-L" transform="matrix(1 0 0 1 1088.1 1556)">
   <path d="M46.3938 35.9653L83.6812 35.9653Q99.0733 35.9653 106.589 28.2888Q114.105 20.6123 113.978 5.02519Q113.784-13.4004 113.599-27.0671Q113.415-40.7338 112.98-50.7211Q112.349-65.2142 109.751-74.8404Q107.153-84.4665 101.757-90.0474Q96.3601-95.6283 87.394-97.9851Q78.4278-100.342 65.0143-100.342Q51.6341-100.342 42.668-97.9851Q33.7018-95.6283 28.3053-90.0474Q22.9089-84.4665 20.3108-74.8404Q17.7127-65.2142 17.0823-50.7211Q16.6469-40.7338 16.4459-27.0671Q16.2448-13.4004 16.084 5.02519Q16.0036 20.6123 23.479 28.2888Q30.9545 35.9653 46.3938 35.9653ZM45.4975 12.0015Q41.6431 12.0015 39.3471 9.6893Q37.0512 7.37707 37.0512 3.50889L37.0512-26.2141Q37.0512-30.0482 39.3471-32.3775Q41.6431-34.7068 45.4975-34.7068L84.5645-34.7068Q88.3855-34.7068 90.6981-32.3775Q93.0108-30.0482 93.0108-26.2141L93.0108 3.50889Q93.0108 7.37707 90.6981 9.6893Q88.3855 12.0015 84.5645 12.0015ZM37.0512-13.0801L93.0108-13.0801L93.0108-18.3923L37.0512-18.3923ZM65.0607-113.032Q57.667-113.032 52.7472-108.453Q47.8274-103.875 47.8274-96.8512L53.8135-96.8512Q53.8135-101.342 57.0404-104.177Q60.2673-107.012 65.0607-107.012Q69.8548-107.012 73.0585-104.177Q76.2623-101.342 76.2623-96.8512L82.2817-96.8512Q82.2817-103.875 77.3449-108.453Q72.408-113.032 65.0607-113.032Z"/>
  </g>
  <g id="Thin-L" transform="matrix(1 0 0 1 793.6 1556)">
   <path d="M44.652 32.4818L81.0561 32.4818Q95.6403 32.4818 102.677 25.2849Q109.714 18.0881 109.561 3.33391Q109.392-14.6625 109.195-28.001Q108.998-41.3394 108.588-51.0744Q108.008-65.0123 105.548-74.2345Q103.089-83.4567 97.9703-88.7726Q92.8516-94.0884 84.2767-96.3065Q75.7018-98.5247 62.8184-98.5247Q49.9428-98.5247 41.3679-96.3065Q32.793-94.0884 27.6743-88.7726Q22.5556-83.4567 20.0962-74.2345Q17.6367-65.0123 17.0569-51.0744Q16.6469-41.3394 16.4459-28.001Q16.2448-14.6625 16.084 3.33391Q16.0036 18.0881 22.9994 25.2849Q29.9952 32.4818 44.652 32.4818ZM44.4877 9.30049Q40.8102 9.30049 38.5772 7.06417Q36.3442 4.82784 36.3442 1.08562L36.3442-26.4919Q36.3442-30.2251 38.5772-32.4659Q40.8102-34.7068 44.4877-34.7068L81.1569-34.7068Q84.8265-34.7068 87.0635-32.4659Q89.3004-30.2251 89.3004-26.4919L89.3004 1.08562Q89.3004 4.82784 87.0635 7.06417Q84.8265 9.30049 81.1569 9.30049ZM36.3442-15.1247L89.3004-15.1247L89.3004-18.7456L36.3442-18.7456ZM62.8897-109.599Q56.7581-109.599 52.4821-105.74Q48.2061-101.881 48.2061-95.8414L51.9962-95.8414Q51.9962-100.281 55.1852-103.041Q58.3742-105.801 62.8897-105.801Q67.4065-105.801 70.5598-103.041Q73.7131-100.281 73.7131-95.8414L77.5111-95.8414Q77.5111-101.881 73.2305-105.74Q68.95-109.599 62.8897-109.599Z"/>
  </g>
  <g id="Ultralight-L" transform="matrix(1 0 0 1 498.02 1556)">
   <path d="M43.7599 30.6976L79.7115 30.6976Q93.8819 30.6976 100.673 23.7464Q107.464 16.7952 107.298 2.46764Q107.142-15.309 106.939-28.4793Q106.735-41.6496 106.338-51.2554Q105.784-64.9089 103.396-73.9242Q101.007-82.9395 96.031-88.1196Q91.0545-93.2997 82.68-95.4468Q74.3055-97.5939 61.6936-97.5939Q49.0766-97.5939 40.702-95.4468Q32.3275-93.2997 27.3511-88.1196Q22.3747-82.9395 19.9863-73.9242Q17.5979-64.9089 17.0438-51.2554Q16.6469-41.6496 16.4459-28.4793Q16.2448-15.309 16.084 2.46764Q16.0036 16.7952 22.7537 23.7464Q29.5039 30.6976 43.7599 30.6976ZM43.9705 7.91702Q40.3836 7.91702 38.1828 5.71958Q35.9821 3.52214 35.9821-0.155563L35.9821-26.6342Q35.9821-30.3156 38.1828-32.5112Q40.3836-34.7068 43.9705-34.7068L79.4115-34.7068Q83.0036-34.7068 85.2018-32.5112Q87.3999-30.3156 87.3999-26.6342L87.3999-0.155563Q87.3999 3.52214 85.2018 5.71958Q83.0036 7.91702 79.4115 7.91702ZM35.9821-16.1719L87.3999-16.1719L87.3999-18.9265L35.9821-18.9265ZM61.7778-107.84Q56.2926-107.84 52.3463-104.35Q48.4001-100.859 48.4001-95.3242L51.0654-95.3242Q51.0654-99.7384 54.235-102.459Q57.4045-105.18 61.7778-105.18Q66.1525-105.18 69.2799-102.459Q72.4074-99.7384 72.4074-95.3242L75.0676-95.3242Q75.0676-100.859 71.1232-104.35Q67.1788-107.84 61.7778-107.84Z"/>
  </g>
  <g id="Black-M" transform="matrix(1 0 0 1 2876.54 1126)">
   <path d="M41.716 29.247L71.9956 29.247Q86.4018 29.247 93.8887 21.607Q101.376 13.9669 101.256-0.569413Q101.126-15.5221 101.002-26.6991Q100.877-37.8761 100.446-46.0927Q99.8849-58.8089 97.4146-67.4217Q94.9443-76.0345 89.9335-81.1697Q84.9228-86.3049 76.8112-88.5597Q68.6996-90.8146 56.8559-90.8146Q45.0178-90.8146 36.9062-88.5597Q28.7946-86.3049 23.7838-81.1697Q18.7731-76.0345 16.3028-67.4217Q13.8325-58.8089 13.2712-46.0927Q12.8971-37.8761 12.7413-26.6991Q12.5855-15.5221 12.4609-0.569413Q12.3986 13.9669 19.8543 21.607Q27.31 29.247 41.716 29.247ZM41.0481 7.60864Q36.9498 7.60864 34.3663 4.99379Q31.7827 2.37894 31.7827-1.59936L31.7827-26.1304Q31.7827-30.1032 34.3663-32.7208Q36.9498-35.3384 41.0481-35.3384L72.6693-35.3384Q76.8191-35.3384 79.3769-32.7493Q81.9346-30.1603 81.9346-26.1304L81.9346-1.59936Q81.9346 2.43604 79.3769 5.02234Q76.8191 7.60864 72.6693 7.60864ZM31.7827-10.2601L81.9346-10.2601L81.9346-20.0185L31.7827-20.0185ZM56.7986-104.923Q48.2178-104.923 43.19-99.7364Q38.1621-94.5494 38.1621-85.7436L49.4006-85.7436Q49.4006-89.7523 51.4131-92.0299Q53.4256-94.3074 56.7986-94.3074Q60.1715-94.3074 62.1842-92.0299Q64.1968-89.7523 64.1968-85.7436L75.4408-85.7436Q75.4408-94.5494 70.4102-99.7364Q65.3796-104.923 56.7986-104.923Z"/>
  </g>
  <g id="Heavy-M" transform="matrix(1 0 0 1 2580.83 1126)">
   <path d="M40.7715 27.8835L70.9347 27.8835Q84.9492 27.8835 92.1584 20.5279Q99.3676 13.1723 99.2594-0.983275Q99.1184-15.8791 98.9926-26.9958Q98.8669-38.1126 98.4517-46.2767Q97.8955-58.7749 95.4999-67.2121Q93.1043-75.6492 88.2227-80.6565Q83.3412-85.6638 75.4107-87.8507Q67.4802-90.0376 55.852-90.0376Q44.2401-90.0376 36.3096-87.8507Q28.3791-85.6638 23.4976-80.6565Q18.616-75.6492 16.2204-67.2121Q13.8248-58.7749 13.2686-46.2767Q12.8971-38.1126 12.7413-26.9958Q12.5855-15.8791 12.4609-0.983275Q12.3986 13.1723 19.5767 20.5279Q26.7547 27.8835 40.7715 27.8835ZM39.9217 6.78258Q36.0435 6.78258 33.6348 4.34385Q31.226 1.90513 31.226-1.87177L31.226-26.5628Q31.226-30.3232 33.6348-32.7702Q36.0435-35.2171 39.9217-35.2171L71.7986-35.2171Q75.7041-35.2171 78.0992-32.792Q80.4943-30.3668 80.4943-26.5628L80.4943-1.87177Q80.4943 1.94875 78.0992 4.36566Q75.7041 6.78258 71.7986 6.78258ZM31.226-11.6126L80.4943-11.6126L80.4943-20.445L31.226-20.445ZM55.8106-103.525Q47.6002-103.525 42.705-98.552Q37.8097-93.5794 37.8097-85.3314L48.0173-85.3314Q48.0173-89.2272 50.1539-91.5038Q52.2906-93.7805 55.8106-93.7805Q59.3306-93.7805 61.4662-91.5038Q63.6017-89.2272 63.6017-85.3314L73.8257-85.3314Q73.8257-93.5794 68.9222-98.552Q64.0187-103.525 55.8106-103.525Z"/>
  </g>
  <g id="Bold-M" transform="matrix(1 0 0 1 2285.23 1126)">
   <path d="M39.715 26.3583L69.7479 26.3583Q83.3241 26.3583 90.2228 19.3208Q97.1214 12.2833 97.0254-1.44624Q96.8722-16.2783 96.745-27.3277Q96.6178-38.3771 96.2206-46.4825Q95.6701-58.737 93.3581-66.9776Q91.046-75.2183 86.309-80.0825Q81.572-84.9467 73.8441-87.0576Q66.1162-89.1684 54.7289-89.1684Q43.3702-89.1684 35.6423-87.0576Q27.9144-84.9467 23.1774-80.0825Q18.4404-75.2183 16.1283-66.9776Q13.8162-58.737 13.2657-46.4825Q12.8971-38.3771 12.7413-27.3277Q12.5855-16.2783 12.4609-1.44624Q12.3986 12.2833 19.2661 19.3208Q26.1335 26.3583 39.715 26.3583ZM38.6617 5.85851Q35.0296 5.85851 32.8165 3.6168Q30.6033 1.3751 30.6033-2.1765L30.6033-27.0464Q30.6033-30.5694 32.8165-32.8254Q35.0296-35.0814 38.6617-35.0814L70.8246-35.0814Q74.4567-35.0814 76.6699-32.8397Q78.8831-30.5979 78.8831-27.0464L78.8831-2.1765Q78.8831 1.40364 76.6699 3.63107Q74.4567 5.85851 70.8246 5.85851ZM30.6033-13.1255L78.8831-13.1255L78.8831-20.9222L30.6033-20.9222ZM54.7054-101.96Q46.9094-101.96 42.1624-97.227Q37.4155-92.4942 37.4155-84.8703L46.4698-84.8703Q46.4698-88.6398 48.7454-90.9154Q51.0209-93.191 54.7054-93.191Q58.39-93.191 60.663-90.9154Q62.936-88.6398 62.936-84.8703L72.019-84.8703Q72.019-92.4942 67.2577-97.227Q62.4964-101.96 54.7054-101.96Z"/>
  </g>
  <g id="Semibold-M" transform="matrix(1 0 0 1 1989.29 1126)">
   <path d="M38.9866 25.3068L68.9297 25.3068Q82.2039 25.3068 88.8884 18.4886Q95.5729 11.6705 95.4853-1.7654Q95.3237-16.5536 95.1955-27.5566Q95.0673-38.5595 94.6825-46.6244Q94.136-58.7108 91.8815-66.816Q89.627-74.9212 84.9896-79.6867Q80.3523-84.4523 72.764-86.5108Q65.1758-88.5693 53.9546-88.5693Q42.7704-88.5693 35.1822-86.5108Q27.594-84.4523 22.9566-79.6867Q18.3192-74.9212 16.0648-66.816Q13.8103-58.7108 13.2637-46.6244Q12.8971-38.5595 12.7413-27.5566Q12.5855-16.5536 12.4609-1.7654Q12.3986 11.6705 19.052 18.4886Q25.7053 25.3068 38.9866 25.3068ZM37.7931 5.22146Q34.3307 5.22146 32.2523 3.11557Q30.174 1.00969 30.174-2.38658L30.174-27.3799Q30.174-30.7391 32.2523-32.8635Q34.3307-34.9879 37.7931-34.9879L70.1531-34.9879Q73.5967-34.9879 75.6845-32.8726Q77.7723-30.7572 77.7723-27.3799L77.7723-2.38658Q77.7723 1.02785 75.6845 3.12465Q73.5967 5.22146 70.1531 5.22146ZM30.174-14.1685L77.7723-14.1685L77.7723-21.2511L30.174-21.2511ZM53.9435-100.881Q46.4331-100.881 41.7884-96.3136Q37.1437-91.7461 37.1437-84.5524L45.403-84.5524Q45.403-88.2348 47.7743-90.5097Q50.1456-92.7846 53.9435-92.7846Q57.7415-92.7846 60.1093-90.5097Q62.4771-88.2348 62.4771-84.5524L70.7734-84.5524Q70.7734-91.7461 66.1101-96.3136Q61.4469-100.881 53.9435-100.881Z"/>
  </g>
  <g id="Medium-M" transform="matrix(1 0 0 1 1693.17 1126)">
   <path d="M38.4343 24.5095L68.3093 24.5095Q81.3544 24.5095 87.8766 17.8576Q94.3988 11.2058 94.3175-2.00741Q94.1496-16.7623 94.0206-27.7301Q93.8917-38.6978 93.5163-46.732Q92.9727-58.691 90.7619-66.6934Q88.5511-74.6959 83.9893-79.3866Q79.4274-84.0774 71.9451-86.0962Q64.4628-88.1149 53.3676-88.1149Q42.3157-88.1149 34.8334-86.0962Q27.351-84.0774 22.7892-79.3866Q18.2274-74.6959 16.0166-66.6934Q13.8058-58.691 13.2622-46.732Q12.8971-38.6978 12.7413-27.7301Q12.5855-16.7623 12.4609-2.00741Q12.3986 11.2058 18.8896 17.8576Q25.3806 24.5095 38.4343 24.5095ZM37.1345 4.73842Q33.8007 4.73842 31.8246 2.73552Q29.8484 0.732631 29.8484-2.54587L29.8484-27.6327Q29.8484-30.8677 31.8246-32.8924Q33.8007-34.917 37.1345-34.917L69.644-34.917Q72.9447-34.917 74.9374-32.8975Q76.9301-30.878 76.9301-27.6327L76.9301-2.54587Q76.9301 0.742909 74.9374 2.74066Q72.9447 4.73842 69.644 4.73842ZM29.8484-14.9593L76.9301-14.9593L76.9301-21.5006L29.8484-21.5006ZM53.3658-100.063Q46.072-100.063 41.5048-95.6211Q36.9376-91.1789 36.9376-84.3114L44.5941-84.3114Q44.5941-87.9277 47.038-90.2021Q49.482-92.4764 53.3658-92.4764Q57.2498-92.4764 59.6895-90.2021Q62.1291-87.9277 62.1291-84.3114L69.829-84.3114Q69.829-91.1789 65.24-95.6211Q60.6511-100.063 53.3658-100.063Z"/>
  </g>
  <g id="Regular-M" transform="matrix(1 0 0 1 1397.22 1126)">
   <path d="M37.7139 23.4696L67.5002 23.4696Q80.2464 23.4696 86.5569 17.0346Q92.8673 10.5997 92.7944-2.32307Q92.6181-17.0345 92.4882-27.9564Q92.3582-38.8782 91.995-46.8724Q91.4554-58.6651 89.3016-66.5336Q87.1477-74.402 82.6844-78.9953Q78.2211-83.5885 70.877-85.5554Q63.5328-87.5223 52.6018-87.5223Q41.7225-87.5223 34.3784-85.5554Q27.0342-83.5885 22.5709-78.9953Q18.1076-74.402 15.9538-66.5336Q13.7999-58.6651 13.2603-46.8724Q12.8971-38.8782 12.7413-27.9564Q12.5855-17.0345 12.4609-2.32307Q12.3986 10.5997 18.6778 17.0346Q24.957 23.4696 37.7139 23.4696ZM36.2754 4.10837Q33.1095 4.10837 31.2666 2.23981Q29.4238 0.371245 29.4238-2.75364L29.4238-27.9625Q29.4238-31.0355 31.2666-32.93Q33.1095-34.8245 36.2754-34.8245L68.9799-34.8245Q72.0942-34.8245 73.9628-32.93Q75.8315-31.0355 75.8315-27.9625L75.8315-2.75364Q75.8315 0.371245 73.9628 2.23981Q72.0942 4.10837 68.9799 4.10837ZM29.4238-15.9908L75.8315-15.9908L75.8315-21.8259L29.4238-21.8259ZM52.6123-98.9963Q45.601-98.9963 41.1349-94.7177Q36.6688-90.439 36.6688-83.997L43.539-83.997Q43.539-87.5272 46.0777-89.8009Q48.6163-92.0745 52.6123-92.0745Q56.6085-92.0745 59.1419-89.8009Q61.6752-87.5272 61.6752-83.997L68.5971-83.997Q68.5971-90.439 64.1051-94.7177Q59.6131-98.9963 52.6123-98.9963Z"/>
  </g>
  <g id="Light-M" transform="matrix(1 0 0 1 1102 1126)">
   <path d="M36.5332 21.1082L65.7206 21.1082Q77.9193 21.1082 83.9047 14.9984Q89.8901 8.88857 89.7999-3.46955Q89.6409-17.89 89.5024-28.5894Q89.3638-39.2888 89.0179-47.1118Q88.5124-58.5283 86.4526-66.1229Q84.3927-73.7175 80.1178-78.1311Q75.8428-82.5446 68.7638-84.4175Q61.6848-86.2905 51.1132-86.2905Q40.5761-86.2905 33.4971-84.4175Q26.4181-82.5446 22.1431-78.1311Q17.8681-73.7175 15.8083-66.1229Q13.7484-58.5283 13.243-47.1118Q12.8971-39.2888 12.7413-28.5894Q12.5855-17.89 12.4609-3.46955Q12.3986 8.88857 18.3527 14.9984Q24.3067 21.1082 36.5332 21.1082ZM35.5909 2.27738Q32.5448 2.27738 30.7447 0.460278Q28.9446-1.35682 28.9446-4.39633L28.9446-28.1508Q28.9446-31.1554 30.7447-32.99Q32.5448-34.8245 35.5909-34.8245L66.67-34.8245Q69.6816-34.8245 71.4989-32.99Q73.3163-31.1554 73.3163-28.1508L73.3163-4.39633Q73.3163-1.35682 71.4989 0.460278Q69.6816 2.27738 66.67 2.27738ZM28.9446-17.3768L73.3163-17.3768L73.3163-22.0654L28.9446-22.0654ZM51.1406-96.6692Q44.9849-96.6692 40.9552-92.8782Q36.9256-89.0873 36.9256-83.3125L42.3072-83.3125Q42.3072-86.8085 44.8201-89.0308Q47.333-91.2532 51.1406-91.2532Q54.9488-91.2532 57.448-89.0308Q59.9472-86.8085 59.9472-83.3125L65.3632-83.3125Q65.3632-89.0873 61.3161-92.8782Q57.269-96.6692 51.1406-96.6692Z"/>
  </g>
  <g id="Thin-M" transform="matrix(1 0 0 1 807.272 1126)">
   <path d="M34.9717 17.9851L63.3671 17.9851Q74.8414 17.9851 80.397 12.3053Q85.9526 6.62549 85.8396-4.98588Q85.7033-19.0216 85.5534-29.4267Q85.4034-39.8317 85.0803-47.4286Q84.6201-58.3473 82.6846-65.5798Q80.7491-72.8122 76.7231-76.9881Q72.6972-81.164 65.969-82.9126Q59.2408-84.6612 49.1444-84.6612Q39.0597-84.6612 32.3315-82.9126Q25.6033-81.164 21.5773-76.9881Q17.5514-72.8122 15.6159-65.5798Q13.6804-58.3473 13.2202-47.4286Q12.8971-39.8317 12.7413-29.4267Q12.5855-19.0216 12.4609-4.98588Q12.3986 6.62549 17.9227 12.3053Q23.4467 17.9851 34.9717 17.9851ZM34.6856-0.144249Q31.7981-0.144249 30.0544-1.89329Q28.3108-3.64233 28.3108-6.56892L28.3108-28.3998Q28.3108-31.314 30.0544-33.0692Q31.7981-34.8245 34.6856-34.8245L63.6149-34.8245Q66.4908-34.8245 68.2403-33.0692Q69.9897-31.314 69.9897-28.3998L69.9897-6.56892Q69.9897-3.64233 68.2403-1.89329Q66.4908-0.144249 63.6149-0.144249ZM28.3108-19.2099L69.9897-19.2099L69.9897-22.3821L28.3108-22.3821ZM49.1943-93.5913Q44.1701-93.5913 40.7176-90.4454Q37.2651-87.2995 37.2651-82.4072L40.6779-82.4072Q40.6779-85.858 43.1568-88.0124Q45.6356-90.1669 49.1943-90.1669Q52.7538-90.1669 55.2077-88.0124Q57.6617-85.858 57.6617-82.4072L61.0861-82.4072Q61.0861-87.2995 57.6274-90.4454Q54.1687-93.5913 49.1943-93.5913Z"/>
  </g>
  <g id="Ultralight-M" transform="matrix(1 0 0 1 511.575 1126)">
   <path d="M34.1718 16.3854L62.1616 16.3854Q73.2649 16.3854 78.6003 10.9259Q83.9357 5.46635 83.8111-5.76253Q83.6865-19.6012 83.5307-29.8555Q83.3749-40.1098 83.0635-47.5908Q82.6265-58.2546 80.7546-65.3016Q78.8828-72.3485 74.9844-76.4027Q71.0861-80.4569 64.5375-82.1418Q57.9889-83.8267 48.136-83.8267Q38.2831-83.8267 31.7345-82.1418Q25.1859-80.4569 21.2876-76.4027Q17.3892-72.3485 15.5174-65.3016Q13.6455-58.2546 13.2085-47.5908Q12.8971-40.1098 12.7413-29.8555Q12.5855-19.6012 12.4609-5.76253Q12.3986 5.46635 17.7024 10.9259Q23.0062 16.3854 34.1718 16.3854ZM34.2219-1.3846Q31.4156-1.3846 29.7009-3.09878Q27.9861-4.81296 27.9861-7.6817L27.9861-28.5274Q27.9861-31.3952 29.7009-33.1098Q31.4156-34.8245 34.2219-34.8245L62.0501-34.8245Q64.8565-34.8245 66.5712-33.1098Q68.2859-31.3952 68.2859-28.5274L68.2859-7.6817Q68.2859-4.81296 66.5712-3.09878Q64.8565-1.3846 62.0501-1.3846ZM27.9861-20.1487L68.2859-20.1487L68.2859-22.5443L27.9861-22.5443ZM48.1974-92.0148Q43.7527-92.0148 40.5959-89.1993Q37.439-86.3838 37.439-81.9435L39.8434-81.9435Q39.8434-85.3711 42.3049-87.4908Q44.7663-89.6105 48.1974-89.6105Q51.6295-89.6105 54.0603-87.4908Q56.491-85.3711 56.491-81.9435L58.8954-81.9435Q58.8954-86.3838 55.738-89.1993Q52.5807-92.0148 48.1974-92.0148Z"/>
  </g>
  <g id="Black-S" transform="matrix(1 0 0 1 2888.62 696)">
   <path d="M32.9102 15.5762L56.6406 15.5762Q68.0176 15.5762 73.9502 9.52148Q79.8828 3.4668 79.7852-8.00781Q79.6875-19.7266 79.5898-28.4912Q79.4922-37.2559 79.1504-43.7012Q78.7109-53.7109 76.7578-60.498Q74.8047-67.2852 70.8496-71.3379Q66.8945-75.3906 60.498-77.1729Q54.1016-78.9551 44.7754-78.9551Q35.4492-78.9551 29.0527-77.1729Q22.6562-75.3906 18.7012-71.3379Q14.7461-67.2852 12.793-60.498Q10.8398-53.7109 10.4004-43.7012Q10.1074-37.2559 9.98535-28.4912Q9.86328-19.7266 9.76562-8.00781Q9.7168 3.4668 15.625 9.52148Q21.5332 15.5762 32.9102 15.5762ZM32.4707-1.51367Q29.1992-1.51367 27.124-3.61328Q25.0488-5.71289 25.0488-8.88672L25.0488-27.9785Q25.0488-31.1523 27.124-33.252Q29.1992-35.3516 32.4707-35.3516L57.0801-35.3516Q60.4004-35.3516 62.4512-33.2764Q64.502-31.2012 64.502-27.9785L64.502-8.88672Q64.502-5.66406 62.4512-3.58887Q60.4004-1.51367 57.0801-1.51367ZM25.0488-15.332L64.502-15.332L64.502-23.1934L25.0488-23.1934ZM44.7266-90.1367Q37.9395-90.1367 33.9844-86.0352Q30.0293-81.9336 30.0293-74.9023L39.0625-74.9023Q39.0625-78.0762 40.6006-79.8584Q42.1387-81.6406 44.7266-81.6406Q47.3145-81.6406 48.8525-79.8584Q50.3906-78.0762 50.3906-74.9023L59.4238-74.9023Q59.4238-81.9336 55.4688-86.0352Q51.5137-90.1367 44.7266-90.1367Z"/>
  </g>
  <g id="Heavy-S" transform="matrix(1 0 0 1 2592.58 696)">
   <path d="M32.2533 14.7118L55.9607 14.7118Q67.0726 14.7118 72.8093 8.85883Q78.546 3.00582 78.4598-8.21525Q78.3507-19.9225 78.253-28.6641Q78.1553-37.4057 77.8251-43.8279Q77.3856-53.6994 75.4844-60.3713Q73.5831-67.0431 69.7144-71.0094Q65.8458-74.9757 59.5703-76.7119Q53.2948-78.448 44.107-78.448Q34.9306-78.448 28.6551-76.7119Q22.3797-74.9757 18.511-71.0094Q14.6424-67.0431 12.7411-60.3713Q10.8398-53.6994 10.4004-43.8279Q10.1074-37.4057 9.98535-28.6641Q9.86328-19.9225 9.76562-8.21525Q9.7168 3.00582 15.4291 8.85883Q21.1414 14.7118 32.2533 14.7118ZM31.5948-1.98617Q28.4962-1.98617 26.5651-3.94173Q24.6339-5.89728 24.6339-8.90977L24.6339-28.3242Q24.6339-31.3252 26.5651-33.2865Q28.4962-35.2478 31.5948-35.2478L56.6306-35.2478Q59.755-35.2478 61.6733-33.3052Q63.5915-31.3625 63.5915-28.3242L63.5915-8.90977Q63.5915-5.85998 61.6733-3.92308Q59.755-1.98617 56.6306-1.98617ZM24.6339-16.3116L63.5915-16.3116L63.5915-23.5276L24.6339-23.5276ZM44.0697-89.2378Q37.49-89.2378 33.5925-85.2573Q29.6951-81.2767 29.6951-74.6373L38.0368-74.6373Q38.0368-77.7189 39.6844-79.5069Q41.332-81.2949 44.0697-81.2949Q46.8074-81.2949 48.4549-79.5069Q50.1025-77.7189 50.1025-74.6373L58.4558-74.6373Q58.4558-81.2767 54.5526-85.2573Q50.6493-89.2378 44.0697-89.2378Z"/>
  </g>
  <g id="Bold-S" transform="matrix(1 0 0 1 2296.61 696)">
   <path d="M31.5186 13.7451L55.2002 13.7451Q66.0156 13.7451 71.5332 8.11768Q77.0508 2.49023 76.9775-8.44727Q76.8555-20.1416 76.7578-28.8574Q76.6602-37.5732 76.3428-43.9697Q75.9033-53.6865 74.0601-60.2295Q72.2168-66.7725 68.4448-70.6421Q64.6729-74.5117 58.5327-76.1963Q52.3926-77.8809 43.3594-77.8809Q34.3506-77.8809 28.2104-76.1963Q22.0703-74.5117 18.2983-70.6421Q14.5264-66.7725 12.6831-60.2295Q10.8398-53.6865 10.4004-43.9697Q10.1074-37.5732 9.98535-28.8574Q9.86328-20.1416 9.76562-8.44727Q9.7168 2.49023 15.21 8.11768Q20.7031 13.7451 31.5186 13.7451ZM30.6152-2.51465Q27.71-2.51465 25.9399-4.30908Q24.1699-6.10352 24.1699-8.93555L24.1699-28.7109Q24.1699-31.5186 25.9399-33.3252Q27.71-35.1318 30.6152-35.1318L56.1279-35.1318Q59.0332-35.1318 60.8032-33.3374Q62.5732-31.543 62.5732-28.7109L62.5732-8.93555Q62.5732-6.0791 60.8032-4.29688Q59.0332-2.51465 56.1279-2.51465ZM24.1699-17.4072L62.5732-17.4072L62.5732-23.9014L24.1699-23.9014ZM43.335-88.2324Q36.9873-88.2324 33.1543-84.3872Q29.3213-80.542 29.3213-74.3408L36.8896-74.3408Q36.8896-77.3193 38.6597-79.1138Q40.4297-80.9082 43.335-80.9082Q46.2402-80.9082 48.0103-79.1138Q49.7803-77.3193 49.7803-74.3408L57.373-74.3408Q57.373-80.542 53.5278-84.3872Q49.6826-88.2324 43.335-88.2324Z"/>
  </g>
  <g id="Semibold-S" transform="matrix(1 0 0 1 2000.41 696)">
   <path d="M31.012 13.0786L54.6759 13.0786Q65.2869 13.0786 70.6534 7.60669Q76.0199 2.13477 75.9556-8.60723Q75.8246-20.2927 75.727-28.9907Q75.6293-37.6888 75.3208-44.0675Q74.8813-53.6776 73.0781-60.1317Q71.2748-66.5858 67.5695-70.3888Q63.8642-74.1918 57.8173-75.8408Q51.7705-77.4898 42.8439-77.4898Q33.9507-77.4898 27.9039-75.8408Q21.857-74.1918 18.1517-70.3888Q14.4464-66.5858 12.6431-60.1317Q10.8398-53.6776 10.4004-44.0675Q10.1074-37.6888 9.98535-28.9907Q9.86328-20.2927 9.76562-8.60723Q9.7168 2.13477 15.0589 7.60669Q20.401 13.0786 31.012 13.0786ZM29.9398-2.879Q27.1679-2.879 25.5089-4.56235Q23.85-6.2457 23.85-8.95332L23.85-28.9775Q23.85-31.6519 25.5089-33.3519Q27.1679-35.0519 29.9398-35.0519L55.7813-35.0519Q58.5355-35.0519 60.2034-33.3596Q61.8712-31.6674 61.8712-28.9775L61.8712-8.95332Q61.8712-6.23018 60.2034-4.55459Q58.5355-2.879 55.7813-2.879ZM23.85-18.1626L61.8712-18.1626L61.8712-24.1591L23.85-24.1591ZM42.8284-87.5393Q36.6407-87.5393 32.8521-83.7874Q29.0636-80.0354 29.0636-74.1364L36.0987-74.1364Q36.0987-77.0438 37.9532-78.8427Q39.8076-80.6416 42.8284-80.6416Q45.8492-80.6416 47.7037-78.8427Q49.5581-77.0438 49.5581-74.1364L56.6266-74.1364Q56.6266-80.0354 52.8213-83.7874Q49.0161-87.5393 42.8284-87.5393Z"/>
  </g>
  <g id="Medium-S" transform="matrix(1 0 0 1 1704.08 696)">
   <path d="M30.6279 12.5732L54.2783 12.5732Q64.7344 12.5732 69.9863 7.21924Q75.2383 1.86523 75.1807-8.72852Q75.043-20.4072 74.9453-29.0918Q74.8477-37.7764 74.5459-44.1416Q74.1064-53.6709 72.3335-60.0576Q70.5605-66.4443 66.9058-70.1968Q63.251-73.9492 57.2749-75.5713Q51.2988-77.1934 42.4531-77.1934Q33.6475-77.1934 27.6714-75.5713Q21.6953-73.9492 18.0405-70.1968Q14.3857-66.4443 12.6128-60.0576Q10.8398-53.6709 10.4004-44.1416Q10.1074-37.7764 9.98535-29.0918Q9.86328-20.4072 9.76562-8.72852Q9.7168 1.86523 14.9443 7.21924Q20.1719 12.5732 30.6279 12.5732ZM29.4277-3.15527Q26.7568-3.15527 25.1821-4.75439Q23.6074-6.35352 23.6074-8.9668L23.6074-29.1797Q23.6074-31.7529 25.1821-33.3721Q26.7568-34.9912 29.4277-34.9912L55.5186-34.9912Q58.1582-34.9912 59.7485-33.3765Q61.3389-31.7617 61.3389-29.1797L61.3389-8.9668Q61.3389-6.34473 59.7485-4.75Q58.1582-3.15527 55.5186-3.15527ZM23.6074-18.7354L61.3389-18.7354L61.3389-24.3545L23.6074-24.3545ZM42.4443-87.0137Q36.3779-87.0137 32.623-83.3325Q28.8682-79.6514 28.8682-73.9814L35.499-73.9814Q35.499-76.835 37.4175-78.6372Q39.3359-80.4395 42.4443-80.4395Q45.5527-80.4395 47.4712-78.6372Q49.3896-76.835 49.3896-73.9814L56.0605-73.9814Q56.0605-79.6514 52.2856-83.3325Q48.5107-87.0137 42.4443-87.0137Z"/>
  </g>
  <g id="Regular-S" transform="matrix(1 0 0 1 1407.88 696)">
   <path d="M30.127 11.9141L53.7598 11.9141Q64.0137 11.9141 69.1162 6.71387Q74.2188 1.51367 74.1699-8.88672Q74.0234-20.5566 73.9258-29.2236Q73.8281-37.8906 73.5352-44.2383Q73.0957-53.6621 71.3623-59.9609Q69.6289-66.2598 66.04-69.9463Q62.4512-73.6328 56.5674-75.2197Q50.6836-76.8066 41.9434-76.8066Q33.252-76.8066 27.3682-75.2197Q21.4844-73.6328 17.8955-69.9463Q14.3066-66.2598 12.5732-59.9609Q10.8398-53.6621 10.4004-44.2383Q10.1074-37.8906 9.98535-29.2236Q9.86328-20.5566 9.76562-8.88672Q9.7168 1.51367 14.7949 6.71387Q19.873 11.9141 30.127 11.9141ZM28.7598-3.51562Q26.2207-3.51562 24.7559-5.00488Q23.291-6.49414 23.291-8.98438L23.291-29.4434Q23.291-31.8848 24.7559-33.3984Q26.2207-34.9121 28.7598-34.9121L55.1758-34.9121Q57.666-34.9121 59.1553-33.3984Q60.6445-31.8848 60.6445-29.4434L60.6445-8.98438Q60.6445-6.49414 59.1553-5.00488Q57.666-3.51562 55.1758-3.51562ZM23.291-19.4824L60.6445-19.4824L60.6445-24.6094L23.291-24.6094ZM41.9434-86.3281Q36.0352-86.3281 32.3242-82.7393Q28.6133-79.1504 28.6133-73.7793L34.7168-73.7793Q34.7168-76.5625 36.7188-78.3691Q38.7207-80.1758 41.9434-80.1758Q45.166-80.1758 47.168-78.3691Q49.1699-76.5625 49.1699-73.7793L55.3223-73.7793Q55.3223-79.1504 51.5869-82.7393Q47.8516-86.3281 41.9434-86.3281Z"/>
  </g>
  <g id="Light-S" transform="matrix(1 0 0 1 1112.49 696)">
   <path d="M29.0825 9.82513L52.1856 9.82513Q61.955 9.82513 66.77 4.91257Q71.5851 0 71.521-9.90092Q71.3898-21.3135 71.2845-29.7836Q71.1792-38.2538 70.9015-44.4501Q70.4923-53.5411 68.8421-59.5977Q67.1918-65.6542 63.7695-69.1818Q60.3472-72.7094 54.6981-74.2132Q49.0489-75.7169 40.6265-75.7169Q32.2378-75.7169 26.5886-74.2132Q20.9394-72.7094 17.5171-69.1818Q14.0948-65.6542 12.4446-59.5977Q10.7943-53.5411 10.3851-44.4501Q10.1074-38.2538 9.98535-29.7836Q9.86328-21.3135 9.76562-9.90092Q9.7168 0 14.5073 4.91257Q19.2978 9.82513 29.0825 9.82513ZM28.1542-5.13535Q25.7212-5.13535 24.2942-6.57908Q22.8671-8.02282 22.8671-10.4375L22.8671-29.6099Q22.8671-31.9908 24.2942-33.4515Q25.7212-34.9121 28.1542-34.9121L53.1324-34.9121Q55.5318-34.9121 56.9757-33.4515Q58.4195-31.9908 58.4195-29.6099L58.4195-10.4375Q58.4195-8.02282 56.9757-6.57908Q55.5318-5.13535 53.1324-5.13535ZM22.8671-20.7085L58.4195-20.7085L58.4195-24.8212L22.8671-24.8212ZM40.6415-84.2695Q35.4902-84.2695 32.1653-81.112Q28.8404-77.9546 28.8404-73.1738L33.6271-73.1738Q33.6271-75.9267 35.6063-77.688Q37.5854-79.4492 40.6415-79.4492Q43.6979-79.4492 45.6696-77.688Q47.6412-75.9267 47.6412-73.1738L52.4615-73.1738Q52.4615-77.9546 49.1197-81.112Q45.7779-84.2695 40.6415-84.2695Z"/>
  </g>
  <g id="Thin-S" transform="matrix(1 0 0 1 817.531 696)">
   <path d="M27.7011 7.06236L50.1036 7.06236Q59.2323 7.06236 63.6671 2.5302Q68.1018-2.00195 68.0176-11.2423Q67.9065-22.3145 67.7912-30.5243Q67.6758-38.7341 67.4183-44.7303Q67.0491-53.381 65.5088-59.1172Q63.9686-64.8534 60.7666-68.1708Q57.5646-71.4881 52.2257-72.8819Q46.8868-74.2757 38.8849-74.2757Q30.8964-74.2757 25.5575-72.8819Q20.2186-71.4881 17.0166-68.1708Q13.8146-64.8534 12.2744-59.1172Q10.7341-53.381 10.365-44.7303Q10.1074-38.7341 9.98535-30.5243Q9.86328-22.3145 9.76562-11.2423Q9.7168-2.00195 14.1269 2.5302Q18.537 7.06236 27.7011 7.06236ZM27.3534-7.27756Q25.0606-7.27756 23.6835-8.66109Q22.3064-10.0446 22.3064-12.3594L22.3064-29.8302Q22.3064-32.1311 23.6835-33.5216Q25.0606-34.9121 27.3534-34.9121L50.4298-34.9121Q52.7092-34.9121 54.093-33.5216Q55.4768-32.1311 55.4768-29.8302L55.4768-12.3594Q55.4768-10.0446 54.093-8.66109Q52.7092-7.27756 50.4298-7.27756ZM22.3064-22.33L55.4768-22.33L55.4768-25.1014L22.3064-25.1014ZM38.9198-81.5467Q34.7694-81.5467 31.9551-78.9599Q29.1407-76.3731 29.1407-72.3729L32.1858-72.3729Q32.1858-75.0858 34.1349-76.7871Q36.084-78.4883 38.9198-78.4883Q41.7561-78.4883 43.6878-76.7871Q45.6194-75.0858 45.6194-72.3729L48.6779-72.3729Q48.6779-76.3731 45.8566-78.9599Q43.0353-81.5467 38.9198-81.5467Z"/>
  </g>
  <g id="Ultralight-S" transform="matrix(1 0 0 1 521.717 696)">
   <path d="M26.9936 5.64728L49.0372 5.64728Q57.8377 5.64728 62.0777 1.30997Q66.3177-3.02734 66.2231-11.9293Q66.1224-22.8271 66.0019-30.9036Q65.8813-38.9801 65.6342-44.8738Q65.2855-53.299 63.8016-58.8711Q62.3177-64.4432 59.2285-67.6529Q56.1394-70.8626 50.9594-72.2Q45.7794-73.5374 37.9929-73.5374Q30.2094-73.5374 25.0294-72.2Q19.8494-70.8626 16.7603-67.6529Q13.6711-64.4432 12.1872-58.8711Q10.7033-53.299 10.3546-44.8738Q10.1074-38.9801 9.98535-30.9036Q9.86328-22.8271 9.76562-11.9293Q9.7168-3.02734 13.932 1.30997Q18.1473 5.64728 26.9936 5.64728ZM26.9432-8.37479Q24.7223-8.37479 23.3707-9.72748Q22.0192-11.0802 22.0192-13.3438L22.0192-29.9431Q22.0192-32.2029 23.3707-33.5575Q24.7223-34.9121 26.9432-34.9121L49.0456-34.9121Q51.2634-34.9121 52.6165-33.5575Q53.9696-32.2029 53.9696-29.9431L53.9696-13.3438Q53.9696-11.0802 52.6165-9.72748Q51.2634-8.37479 49.0456-8.37479ZM22.0192-23.1606L53.9696-23.1606L53.9696-25.2449L22.0192-25.2449ZM38.0379-80.1521Q34.4002-80.1521 31.8474-77.8576Q29.2946-75.563 29.2946-71.9627L31.4476-71.9627Q31.4476-74.6552 33.3813-76.3256Q35.3149-77.9961 38.0379-77.9961Q40.7616-77.9961 42.6727-76.3256Q44.5839-74.6552 44.5839-71.9627L46.74-71.9627Q46.74-75.563 44.1853-77.8576Q41.6306-80.1521 38.0379-80.1521Z"/>
  </g>
 </g>
</svg>
