<?xml version="1.0" encoding="UTF-8"?>
<!--Generator: Apple Native CoreSVG 175.5-->
<!DOCTYPE svg
PUBLIC "-//W3C//DTD SVG 1.1//EN"
       "http://www.w3.org/Graphics/SVG/1.1/DTD/svg11.dtd">
<svg version="1.1" xmlns="http://www.w3.org/2000/svg" xmlns:xlink="http://www.w3.org/1999/xlink" width="3300" height="2200">
 <!--glyph: "", point size: 100.0, font version: "18.0d9e1", template writer version: "84"-->
 <g id="Notes">
  <rect height="2200" id="artboard" style="fill:white;opacity:1" width="3300" x="0" y="0"/>
  <line style="fill:none;stroke:black;opacity:1;stroke-width:0.5;" x1="263" x2="3036" y1="292" y2="292"/>
  <text style="stroke:none;fill:black;font-family:sans-serif;font-size:13;font-weight:bold;" transform="matrix(1 0 0 1 263 322)">Weight/Scale Variations</text>
  <text style="stroke:none;fill:black;font-family:sans-serif;font-size:13;text-anchor:middle;" transform="matrix(1 0 0 1 559.711 322)">Ultralight</text>
  <text style="stroke:none;fill:black;font-family:sans-serif;font-size:13;text-anchor:middle;" transform="matrix(1 0 0 1 856.422 322)">Thin</text>
  <text style="stroke:none;fill:black;font-family:sans-serif;font-size:13;text-anchor:middle;" transform="matrix(1 0 0 1 1153.13 322)">Light</text>
  <text style="stroke:none;fill:black;font-family:sans-serif;font-size:13;text-anchor:middle;" transform="matrix(1 0 0 1 1449.84 322)">Regular</text>
  <text style="stroke:none;fill:black;font-family:sans-serif;font-size:13;text-anchor:middle;" transform="matrix(1 0 0 1 1746.56 322)">Medium</text>
  <text style="stroke:none;fill:black;font-family:sans-serif;font-size:13;text-anchor:middle;" transform="matrix(1 0 0 1 2043.27 322)">Semibold</text>
  <text style="stroke:none;fill:black;font-family:sans-serif;font-size:13;text-anchor:middle;" transform="matrix(1 0 0 1 2339.98 322)">Bold</text>
  <text style="stroke:none;fill:black;font-family:sans-serif;font-size:13;text-anchor:middle;" transform="matrix(1 0 0 1 2636.69 322)">Heavy</text>
  <text style="stroke:none;fill:black;font-family:sans-serif;font-size:13;text-anchor:middle;" transform="matrix(1 0 0 1 2933.4 322)">Black</text>
  <line style="fill:none;stroke:black;opacity:1;stroke-width:0.5;" x1="263" x2="3036" y1="1903" y2="1903"/>
  <g transform="matrix(1 0 0 1 263 1933)">
   <path d="M9.24805 0.830078Q10.8691 0.830078 12.2949 0.214844Q13.7207-0.400391 14.8096-1.49414Q15.8984-2.58789 16.5186-4.01367Q17.1387-5.43945 17.1387-7.05078Q17.1387-8.66211 16.5186-10.0879Q15.8984-11.5137 14.8047-12.6074Q13.7109-13.7012 12.2852-14.3164Q10.8594-14.9316 9.23828-14.9316Q7.62695-14.9316 6.20117-14.3164Q4.77539-13.7012 3.69141-12.6074Q2.60742-11.5137 1.9873-10.0879Q1.36719-8.66211 1.36719-7.05078Q1.36719-5.43945 1.9873-4.01367Q2.60742-2.58789 3.69629-1.49414Q4.78516-0.400391 6.21094 0.214844Q7.63672 0.830078 9.24805 0.830078ZM9.24805-0.654297Q7.91992-0.654297 6.7627-1.14746Q5.60547-1.64062 4.73145-2.51953Q3.85742-3.39844 3.36426-4.56055Q2.87109-5.72266 2.87109-7.05078Q2.87109-8.37891 3.35938-9.54102Q3.84766-10.7031 4.72168-11.582Q5.5957-12.4609 6.75293-12.9541Q7.91016-13.4473 9.23828-13.4473Q10.5762-13.4473 11.7383-12.9541Q12.9004-12.4609 13.7793-11.582Q14.6582-10.7031 15.1514-9.54102Q15.6445-8.37891 15.6445-7.05078Q15.6445-5.72266 15.1514-4.56055Q14.6582-3.39844 13.7793-2.51953Q12.9004-1.64062 11.7432-1.14746Q10.5859-0.654297 9.24805-0.654297ZM5.6543-7.05078Q5.6543-6.72852 5.85938-6.52832Q6.06445-6.32812 6.40625-6.32812L8.51562-6.32812L8.51562-4.20898Q8.51562-3.88672 8.71094-3.67676Q8.90625-3.4668 9.23828-3.4668Q9.56055-3.4668 9.77051-3.67676Q9.98047-3.88672 9.98047-4.20898L9.98047-6.32812L12.0898-6.32812Q12.4219-6.32812 12.627-6.52832Q12.832-6.72852 12.832-7.05078Q12.832-7.38281 12.627-7.58789Q12.4219-7.79297 12.0898-7.79297L9.98047-7.79297L9.98047-9.90234Q9.98047-10.2344 9.77051-10.4443Q9.56055-10.6543 9.23828-10.6543Q8.90625-10.6543 8.71094-10.4443Q8.51562-10.2344 8.51562-9.90234L8.51562-7.79297L6.40625-7.79297Q6.06445-7.79297 5.85938-7.58789Q5.6543-7.38281 5.6543-7.05078Z"/>
  </g>
  <g transform="matrix(1 0 0 1 281.867 1933)">
   <path d="M11.709 2.91016Q13.75 2.91016 15.5518 2.12891Q17.3535 1.34766 18.7305-0.0292969Q20.1074-1.40625 20.8887-3.20801Q21.6699-5.00977 21.6699-7.05078Q21.6699-9.0918 20.8887-10.8936Q20.1074-12.6953 18.7305-14.0723Q17.3535-15.4492 15.5469-16.2305Q13.7402-17.0117 11.6992-17.0117Q9.6582-17.0117 7.85645-16.2305Q6.05469-15.4492 4.68262-14.0723Q3.31055-12.6953 2.5293-10.8936Q1.74805-9.0918 1.74805-7.05078Q1.74805-5.00977 2.5293-3.20801Q3.31055-1.40625 4.6875-0.0292969Q6.06445 1.34766 7.86621 2.12891Q9.66797 2.91016 11.709 2.91016ZM11.709 1.25Q9.98047 1.25 8.47656 0.605469Q6.97266-0.0390625 5.83496-1.17676Q4.69727-2.31445 4.05762-3.81836Q3.41797-5.32227 3.41797-7.05078Q3.41797-8.7793 4.05762-10.2832Q4.69727-11.7871 5.83008-12.9297Q6.96289-14.0723 8.4668-14.7119Q9.9707-15.3516 11.6992-15.3516Q13.4277-15.3516 14.9365-14.7119Q16.4453-14.0723 17.583-12.9297Q18.7207-11.7871 19.3652-10.2832Q20.0098-8.7793 20.0098-7.05078Q20.0098-5.32227 19.3701-3.81836Q18.7305-2.31445 17.5879-1.17676Q16.4453-0.0390625 14.9414 0.605469Q13.4375 1.25 11.709 1.25ZM7.17773-7.05078Q7.17773-6.69922 7.41211-6.47461Q7.64648-6.25 8.01758-6.25L10.8887-6.25L10.8887-3.36914Q10.8887-2.99805 11.1133-2.76855Q11.3379-2.53906 11.6895-2.53906Q12.0605-2.53906 12.29-2.76855Q12.5195-2.99805 12.5195-3.36914L12.5195-6.25L15.4004-6.25Q15.7715-6.25 16.001-6.47461Q16.2305-6.69922 16.2305-7.05078Q16.2305-7.42188 16.001-7.65137Q15.7715-7.88086 15.4004-7.88086L12.5195-7.88086L12.5195-10.752Q12.5195-11.1328 12.29-11.3623Q12.0605-11.5918 11.6895-11.5918Q11.3379-11.5918 11.1133-11.3574Q10.8887-11.123 10.8887-10.752L10.8887-7.88086L8.01758-7.88086Q7.63672-7.88086 7.40723-7.65137Q7.17773-7.42188 7.17773-7.05078Z"/>
  </g>
  <g transform="matrix(1 0 0 1 305.646 1933)">
   <path d="M14.9707 5.66406Q17.0605 5.66406 18.96 5.01465Q20.8594 4.36523 22.4512 3.19336Q24.043 2.02148 25.2197 0.429688Q26.3965-1.16211 27.0459-3.06641Q27.6953-4.9707 27.6953-7.05078Q27.6953-9.14062 27.0459-11.04Q26.3965-12.9395 25.2197-14.5312Q24.043-16.123 22.4512-17.2998Q20.8594-18.4766 18.9551-19.126Q17.0508-19.7754 14.9609-19.7754Q12.8711-19.7754 10.9717-19.126Q9.07227-18.4766 7.48535-17.2998Q5.89844-16.123 4.72168-14.5312Q3.54492-12.9395 2.90039-11.04Q2.25586-9.14062 2.25586-7.05078Q2.25586-4.9707 2.90527-3.06641Q3.55469-1.16211 4.72656 0.429688Q5.89844 2.02148 7.49023 3.19336Q9.08203 4.36523 10.9814 5.01465Q12.8809 5.66406 14.9707 5.66406ZM14.9707 3.84766Q13.1641 3.84766 11.5283 3.2959Q9.89258 2.74414 8.53516 1.74805Q7.17773 0.751953 6.17676-0.610352Q5.17578-1.97266 4.62891-3.6084Q4.08203-5.24414 4.08203-7.05078Q4.08203-8.86719 4.62891-10.5029Q5.17578-12.1387 6.17188-13.501Q7.16797-14.8633 8.52539-15.8594Q9.88281-16.8555 11.5186-17.4023Q13.1543-17.9492 14.9609-17.9492Q16.7773-17.9492 18.4131-17.4023Q20.0488-16.8555 21.4111-15.8594Q22.7734-14.8633 23.7744-13.501Q24.7754-12.1387 25.3223-10.5029Q25.8691-8.86719 25.8691-7.05078Q25.8691-5.24414 25.3223-3.6084Q24.7754-1.97266 23.7793-0.610352Q22.7832 0.751953 21.4209 1.74805Q20.0586 2.74414 18.4229 3.2959Q16.7871 3.84766 14.9707 3.84766ZM9.19922-7.05078Q9.19922-6.66992 9.45801-6.4209Q9.7168-6.17188 10.1172-6.17188L14.0625-6.17188L14.0625-2.2168Q14.0625-1.81641 14.3115-1.55762Q14.5605-1.29883 14.9512-1.29883Q15.3516-1.29883 15.6104-1.55273Q15.8691-1.80664 15.8691-2.2168L15.8691-6.17188L19.8242-6.17188Q20.2246-6.17188 20.4785-6.4209Q20.7324-6.66992 20.7324-7.05078Q20.7324-7.46094 20.4785-7.71484Q20.2246-7.96875 19.8242-7.96875L15.8691-7.96875L15.8691-11.9141Q15.8691-12.3242 15.6104-12.583Q15.3516-12.8418 14.9512-12.8418Q14.5605-12.8418 14.3115-12.583Q14.0625-12.3242 14.0625-11.9141L14.0625-7.96875L10.1172-7.96875Q9.70703-7.96875 9.45312-7.71484Q9.19922-7.46094 9.19922-7.05078Z"/>
  </g>
  <text style="stroke:none;fill:black;font-family:sans-serif;font-size:13;font-weight:bold;" transform="matrix(1 0 0 1 263 1953)">Design Variations</text>
  <text style="stroke:none;fill:black;font-family:sans-serif;font-size:13;" transform="matrix(1 0 0 1 263 1971)">Symbols are supported in up to nine weights and three scales.</text>
  <text style="stroke:none;fill:black;font-family:sans-serif;font-size:13;" transform="matrix(1 0 0 1 263 1989)">For optimal layout with text and other symbols, vertically align</text>
  <text style="stroke:none;fill:black;font-family:sans-serif;font-size:13;" transform="matrix(1 0 0 1 263 2007)">symbols with the adjacent text.</text>
  <line style="fill:none;stroke:#00AEEF;stroke-width:0.5;opacity:1.0;" x1="776" x2="776" y1="1919" y2="1933"/>
  <g transform="matrix(1 0 0 1 776 1933)">
   <path d="M3.31055 0.15625Q3.70117 0.15625 3.91602-0.00976562Q4.13086-0.175781 4.26758-0.585938L5.52734-4.0332L11.2891-4.0332L12.5488-0.585938Q12.6855-0.175781 12.9004-0.00976562Q13.1152 0.15625 13.4961 0.15625Q13.8867 0.15625 14.1162-0.0585938Q14.3457-0.273438 14.3457-0.644531Q14.3457-0.869141 14.2383-1.17188L9.6582-13.3691Q9.48242-13.8184 9.17969-14.043Q8.87695-14.2676 8.4082-14.2676Q7.5-14.2676 7.17773-13.3789L2.59766-1.16211Q2.49023-0.859375 2.49023-0.634766Q2.49023-0.263672 2.70996-0.0537109Q2.92969 0.15625 3.31055 0.15625ZM6.00586-5.51758L8.37891-12.0898L8.42773-12.0898L10.8008-5.51758Z"/>
  </g>
  <line style="fill:none;stroke:#00AEEF;stroke-width:0.5;opacity:1.0;" x1="793.197" x2="793.197" y1="1919" y2="1933"/>
  <text style="stroke:none;fill:black;font-family:sans-serif;font-size:13;font-weight:bold;" transform="matrix(1 0 0 1 776 1953)">Margins</text>
  <text style="stroke:none;fill:black;font-family:sans-serif;font-size:13;" transform="matrix(1 0 0 1 776 1971)">Leading and trailing margins on the left and right side of each symbol</text>
  <text style="stroke:none;fill:black;font-family:sans-serif;font-size:13;" transform="matrix(1 0 0 1 776 1989)">can be adjusted by modifying the x-location of the margin guidelines.</text>
  <text style="stroke:none;fill:black;font-family:sans-serif;font-size:13;" transform="matrix(1 0 0 1 776 2007)">Modifications are automatically applied proportionally to all</text>
  <text style="stroke:none;fill:black;font-family:sans-serif;font-size:13;" transform="matrix(1 0 0 1 776 2025)">scales and weights.</text>
  <g transform="matrix(1 0 0 1 1289 1933)">
   <path d="M2.8418 1.86523L4.54102 3.57422Q5.18555 4.22852 5.90332 4.17969Q6.62109 4.13086 7.31445 3.35938L18.0078-8.42773L17.041-9.4043L6.42578 2.27539Q6.16211 2.57812 5.89355 2.61719Q5.625 2.65625 5.27344 2.30469L4.10156 1.14258Q3.75 0.791016 3.79395 0.522461Q3.83789 0.253906 4.14062-0.0195312L15.6152-10.8203L14.6387-11.7871L3.04688-0.898438Q2.30469-0.214844 2.25098 0.498047Q2.19727 1.21094 2.8418 1.86523ZM9.25781-16.3281Q8.94531-16.0254 8.90625-15.6348Q8.86719-15.2441 9.04297-14.9512Q9.21875-14.6777 9.55566-14.541Q9.89258-14.4043 10.3809-14.5215Q11.4746-14.7754 12.5977-14.7314Q13.7207-14.6875 14.7949-13.9844L14.209-12.5293Q13.9551-11.9043 14.0674-11.4404Q14.1797-10.9766 14.5801-10.5664L16.875-8.25195Q17.2363-7.88086 17.5781-7.82227Q17.9199-7.76367 18.3398-7.8418L19.4043-8.03711L20.0684-7.36328L20.0293-6.80664Q20-6.43555 20.1221-6.12305Q20.2441-5.81055 20.6055-5.44922L21.3672-4.70703Q21.7285-4.3457 22.1533-4.33105Q22.5781-4.31641 22.9297-4.66797L25.8398-7.58789Q26.1914-7.93945 26.1816-8.35449Q26.1719-8.76953 25.8105-9.13086L25.0391-9.89258Q24.6875-10.2539 24.3799-10.3857Q24.0723-10.5176 23.7109-10.4883L23.1348-10.4395L22.4902-11.0742L22.7344-12.1973Q22.832-12.6172 22.6953-12.9834Q22.5586-13.3496 22.1191-13.7891L19.9219-15.9766Q18.6719-17.2168 17.2607-17.8369Q15.8496-18.457 14.4189-18.4814Q12.9883-18.5059 11.665-17.959Q10.3418-17.4121 9.25781-16.3281ZM10.752-15.957Q11.6602-16.6211 12.7002-16.9043Q13.7402-17.1875 14.8047-17.085Q15.8691-16.9824 16.8701-16.5137Q17.8711-16.0449 18.7012-15.2051L21.1328-12.793Q21.3086-12.6172 21.3525-12.4512Q21.3965-12.2852 21.3379-12.0312L21.0156-10.5469L22.5195-9.0625L23.5059-9.12109Q23.6914-9.13086 23.7891-9.09668Q23.8867-9.0625 24.0332-8.91602L24.6094-8.33984L22.168-5.89844L21.5918-6.47461Q21.4453-6.62109 21.4062-6.71875Q21.3672-6.81641 21.377-7.01172L21.4453-7.98828L19.9512-9.47266L18.4277-9.21875Q18.1836-9.16992 18.042-9.2041Q17.9004-9.23828 17.7148-9.41406L15.7129-11.416Q15.5176-11.5918 15.4932-11.7529Q15.4688-11.9141 15.5859-12.1875L16.4648-14.2773Q15.293-15.3711 13.8281-15.791Q12.3633-16.2109 10.8398-15.7617Q10.7227-15.7324 10.6885-15.8057Q10.6543-15.8789 10.752-15.957Z"/>
  </g>
  <text style="stroke:none;fill:black;font-family:sans-serif;font-size:13;font-weight:bold;" transform="matrix(1 0 0 1 1289 1953)">Exporting</text>
  <text style="stroke:none;fill:black;font-family:sans-serif;font-size:13;" transform="matrix(1 0 0 1 1289 1971)">Symbols should be outlined when exporting to ensure the</text>
  <text style="stroke:none;fill:black;font-family:sans-serif;font-size:13;" transform="matrix(1 0 0 1 1289 1989)">design is preserved when submitting to Xcode.</text>
  <text id="template-version" style="stroke:none;fill:black;font-family:sans-serif;font-size:13;text-anchor:end;" transform="matrix(1 0 0 1 3036 1933)">Template v.2.0</text>
  <text style="stroke:none;fill:black;font-family:sans-serif;font-size:13;text-anchor:end;" transform="matrix(1 0 0 1 3036 1951)">Requires Xcode 12 or greater</text>
  <text id="descriptive-name" style="stroke:none;fill:black;font-family:sans-serif;font-size:13;text-anchor:end;" transform="matrix(1 0 0 1 3036 1969)">Generated from _custom.wrap</text>
  <text style="stroke:none;fill:black;font-family:sans-serif;font-size:13;text-anchor:end;" transform="matrix(1 0 0 1 3036 1987)">Typeset at 100 points</text>
  <text style="stroke:none;fill:black;font-family:sans-serif;font-size:13;" transform="matrix(1 0 0 1 263 726)">Small</text>
  <text style="stroke:none;fill:black;font-family:sans-serif;font-size:13;" transform="matrix(1 0 0 1 263 1156)">Medium</text>
  <text style="stroke:none;fill:black;font-family:sans-serif;font-size:13;" transform="matrix(1 0 0 1 263 1586)">Large</text>
 </g>
 <g id="Guides">
  <g id="H-reference" style="fill:#27AAE1;stroke:none;" transform="matrix(1 0 0 1 339 696)">
   <path d="M0.993347 0L3.6377 0L29.3282-67.1326L30.0301-67.1326L30.0301-70.459L28.1227-70.459ZM11.6882-24.4797L46.9818-24.4797L46.2311-26.7288L12.4382-26.7288ZM55.1193 0L57.7637 0L30.6381-70.459L29.4327-70.459L29.4327-67.1326Z"/>
  </g>
  <line id="Baseline-S" style="fill:none;stroke:#27AAE1;opacity:1;stroke-width:0.5;" x1="263" x2="3036" y1="696" y2="696"/>
  <line id="Capline-S" style="fill:none;stroke:#27AAE1;opacity:1;stroke-width:0.5;" x1="263" x2="3036" y1="625.541" y2="625.541"/>
  <g id="H-reference" style="fill:#27AAE1;stroke:none;" transform="matrix(1 0 0 1 339 1126)">
   <path d="M0.993347 0L3.6377 0L29.3282-67.1326L30.0301-67.1326L30.0301-70.459L28.1227-70.459ZM11.6882-24.4797L46.9818-24.4797L46.2311-26.7288L12.4382-26.7288ZM55.1193 0L57.7637 0L30.6381-70.459L29.4327-70.459L29.4327-67.1326Z"/>
  </g>
  <line id="Baseline-M" style="fill:none;stroke:#27AAE1;opacity:1;stroke-width:0.5;" x1="263" x2="3036" y1="1126" y2="1126"/>
  <line id="Capline-M" style="fill:none;stroke:#27AAE1;opacity:1;stroke-width:0.5;" x1="263" x2="3036" y1="1055.54" y2="1055.54"/>
  <g id="H-reference" style="fill:#27AAE1;stroke:none;" transform="matrix(1 0 0 1 339 1556)">
   <path d="M0.993347 0L3.6377 0L29.3282-67.1326L30.0301-67.1326L30.0301-70.459L28.1227-70.459ZM11.6882-24.4797L46.9818-24.4797L46.2311-26.7288L12.4382-26.7288ZM55.1193 0L57.7637 0L30.6381-70.459L29.4327-70.459L29.4327-67.1326Z"/>
  </g>
  <line id="Baseline-L" style="fill:none;stroke:#27AAE1;opacity:1;stroke-width:0.5;" x1="263" x2="3036" y1="1556" y2="1556"/>
  <line id="Capline-L" style="fill:none;stroke:#27AAE1;opacity:1;stroke-width:0.5;" x1="263" x2="3036" y1="1485.54" y2="1485.54"/>
  <line id="left-margin" style="fill:none;stroke:#00AEEF;stroke-width:0.5;opacity:1.0;" x1="1390.34" x2="1390.34" y1="1030.73" y2="1150.14"/>
  <line id="right-margin" style="fill:none;stroke:#00AEEF;stroke-width:0.5;opacity:1.0;" x1="1509.34" x2="1509.34" y1="1030.73" y2="1150.14"/>
 </g>
 <g id="Symbols">
  <g id="Black-L" transform="matrix(1 0 0 1 2856.55 1556)">
   <path d="M107.85-77.4C105.55-76.8 103.15-76.3 100.65-75.9C90.55-74.3 85.15-70.4 82.15-66.5C76.15-71.7 66.45-75.7 56.05-79.2C56.55-81.3 57.65-83.8 59.65-85.6C61.95-87.7 64.95-89.7 70.85-87C74.95-98.9 92.85-96.9 95.35-84.7C102.25-86.9 106.05-81.6 107.85-77.4ZM89.95 4.4C93.85-24.5 85.15-48.5 78.35-57.7C72.95-64.9 53.15-70.9 38.75-75.3C33.65-76.9 28.75-78.4 24.85-79.8C22.65-80.6 20.65-81.8 18.95-83.2L25.05-18L30.15 35.4C31.15 46.5 40.55 55.1 51.65 55.1L65.75 55.1C77.65 46.1 86.85 27.5 89.95 4.4ZM88.25-59C96.25-45.4 102.55-21 98.95 5.6C96.15 26.3 88.95 43.6 78.95 55.1L101.15 55.1C112.35 55.1 121.65 46.6 122.65 35.4L127.75-18L133.45-79C125.05-73.4 113.65-68.9 102.05-67.1C92.15-65.5 89.15-61.3 88.25-59ZM27.95-88.2C28.45-88 28.95-87.8 29.45-87.7C29.45-90.6 30.55-94.5 34.65-97.9C42.95-104.9 48.55-100.7 48.55-100.7C48.55-100.7 51.35-110.4 63.85-106.3C63.85-106.3 63.85-117.4 79.15-117.4C90.25-117.4 90.25-106.3 90.25-106.3C90.25-106.3 101.35-111.9 105.55-99.3C105.55-99.3 116.35-104.1 122.25-92.3C123.85-89 124.75-86.3 125.15-84.3C129.15-86.6 132.45-89 134.65-91.4L134.75-92.3C134.75-92.3 129.15-131.2 76.45-131.2C37.55-131.2 23.85-107.6 19.75-97.1C21.55-93 24.25-89.6 27.95-88.2Z"/>
  </g>
  <g id="Heavy-L" transform="matrix(1 0 0 1 2560.99 1556)">
   <path d="M106.15-76.4C103.85-75.8 101.45-75.3 99.05-74.9C89.05-73.4 83.75-69.4 80.95-65.6C75.15-70.7 65.55-74.7 55.35-78.2C55.85-80.3 56.85-82.9 58.95-84.7C61.15-86.7 64.15-88.7 69.85-86.1C73.85-97.8 91.45-95.8 93.85-83.8C100.65-86 104.35-80.5 106.15-76.4ZM88.75 3.6C92.65-24.8 84.05-48.4 77.35-57.4C71.95-64.5 52.55-70.4 38.45-74.7C33.45-76.2 28.65-77.7 24.85-79.1C22.65-79.9 20.65-81.1 18.95-82.6L24.95-18.3L29.95 34C30.95 44.9 40.15 53.3 51.05 53.3L65.25 53.3C76.75 44.3 85.75 26.1 88.75 3.6ZM86.55-58.5C94.65-44.8 100.45-20.3 97.05 4.8C94.25 25.1 87.15 42.1 77.35 53.3L99.45 53.3C110.35 53.3 119.55 45 120.55 34L125.55-18.3L131.15-78.4C122.95-72.9 111.75-68.4 100.35-66.7C90.35-65.1 87.45-60.8 86.55-58.5ZM27.65-87C28.15-86.8 28.65-86.6 29.25-86.4C29.25-89.3 30.25-93.2 34.35-96.7C42.55-103.5 47.95-99.4 47.95-99.4C47.95-99.4 50.65-108.9 62.95-104.9C62.95-104.9 62.95-115.8 77.95-115.8C88.85-115.8 88.85-104.9 88.85-104.9C88.85-104.9 99.75-110.4 103.85-98.1C103.85-98.1 114.45-102.8 120.15-91.3C121.85-88 122.65-85.2 123.05-83.2C126.95-85.4 130.05-87.7 132.35-90.1L132.45-91.4C132.45-91.4 127.05-129.6 75.35-129.6C36.85-129.6 23.55-106 19.65-95.9C21.35-91.7 24.05-88.3 27.65-87Z"/>
  </g>
  <g id="Bold-L" transform="matrix(1 0 0 1 2265.48 1556)">
   <path d="M104.55-75.4C102.25-74.8 99.95-74.3 97.55-73.9C87.65-72.4 82.45-68.4 79.85-64.7C74.25-69.8 64.75-73.7 54.65-77.1C55.15-79.3 56.15-81.9 58.25-83.7C60.45-85.7 63.35-87.6 68.95-85.1C72.85-96.5 90.15-94.6 92.55-82.9C99.25-85.1 102.85-79.4 104.55-75.4ZM87.65 2.8C91.45-25.1 82.95-48.3 76.35-57.1C71.05-64.2 52.05-70 38.15-74.2C33.25-75.7 28.55-77.1 24.85-78.5C22.55-79.3 20.65-80.5 18.95-82L24.85-18.7L29.75 32.5C30.75 43.2 39.75 51.4 50.45 51.4L64.75 51.4C75.95 42.5 84.65 24.7 87.65 2.8ZM85.05-58.1C92.95-44.8 98.65-20.7 95.35 3.8C92.65 23.8 85.65 40.4 76.05 51.3L97.95 51.3C108.65 51.3 117.65 43.1 118.65 32.4L123.55-18.8L129.05-77.9C121.05-72.4 110.05-68.1 98.75-66.3C88.65-64.7 85.85-60.4 85.05-58.1ZM27.45-85.8C27.95-85.6 28.55-85.4 29.05-85.2C28.95-88.1 29.85-92 34.05-95.5C42.05-102.2 47.35-98.2 47.35-98.2C47.35-98.2 50.05-107.5 62.05-103.5C62.05-103.5 62.05-114.2 76.75-114.2C87.45-114.2 87.45-103.5 87.45-103.5C87.45-103.5 98.15-108.8 102.15-96.8C102.15-96.8 112.55-101.4 118.15-90.1C119.85-86.7 120.65-84 120.95-81.9C124.65-84 127.75-86.3 129.95-88.5L130.05-90.1C130.05-90.1 124.75-127.5 74.05-127.5C35.95-127.5 23.05-103.9 19.35-94.2C21.25-90.3 23.85-87.1 27.45-85.8Z"/>
  </g>
  <g id="Semibold-L" transform="matrix(1 0 0 1 1969.82 1556)">
   <path d="M102.95-74.4C100.75-73.8 98.45-73.3 96.05-73C86.25-71.5 81.25-67.5 78.65-63.8C73.15-68.8 63.85-72.7 53.85-76.1C54.35-78.3 55.25-80.9 57.35-82.8C59.55-84.8 62.35-86.6 67.85-84.1C71.65-95.3 88.55-93.4 90.95-81.9C97.75-84.1 101.35-78.4 102.95-74.4ZM86.55 2C90.25-25.4 81.95-48.2 75.45-56.8C70.25-63.8 51.55-69.5 37.85-73.6C33.05-75.1 28.45-76.5 24.85-77.8C22.55-78.6 20.65-79.9 18.95-81.4L24.75-19L29.55 31.1C30.55 41.6 39.35 49.6 49.75 49.6L64.15 49.6C75.15 40.8 83.65 23.4 86.55 2ZM83.45-57.7C91.25-44.7 96.85-21.1 93.55 2.9C90.85 22.5 83.95 38.9 74.55 49.5L96.35 49.5C106.85 49.5 115.65 41.5 116.55 31L121.35-19.2L126.75-77.4C118.95-72 108.05-67.7 97.05-66C86.95-64.4 84.15-59.9 83.45-57.7ZM27.25-84.6C27.75-84.4 28.35-84.2 28.95-84C28.85-86.9 29.65-90.8 33.85-94.3C41.65-100.8 46.95-96.9 46.95-96.9C46.95-96.9 49.55-106.1 61.35-102.1C61.35-102.1 61.35-112.6 75.75-112.6C86.15-112.6 86.15-102.1 86.15-102.1C86.15-102.1 96.55-107.3 100.55-95.6C100.55-95.6 110.75-100.1 116.25-89.1C117.95-85.6 118.75-82.9 119.05-80.8C122.65-82.8 125.65-85 127.75-87.2L127.95-89.1C127.95-89.1 122.75-125.7 73.15-125.7C35.45-125.7 22.95-102.1 19.45-92.8C21.25-89 23.75-85.8 27.25-84.6Z"/>
  </g>
  <g id="Medium-L" transform="matrix(1 0 0 1 1674.21 1556)">
   <path d="M101.25-73.4C99.05-72.8 96.75-72.3 94.45-72C84.65-70.5 79.85-66.5 77.45-62.9C72.15-67.9 62.95-71.7 53.05-75.1C53.45-77.2 54.45-80 56.55-81.9C58.65-83.8 61.45-85.7 66.85-83.2C70.65-94.1 87.15-92.3 89.45-81.1C96.25-83.2 99.75-77.3 101.25-73.4ZM85.35 1.2C89.05-25.6 80.85-48.1 74.45-56.6C69.25-63.5 50.95-69.1 37.55-73.2C32.85-74.6 28.35-76 24.85-77.3C22.55-78.1 20.65-79.4 18.95-80.9L24.65-19.5L29.35 29.6C30.35 39.8 38.85 47.7 49.15 47.7L63.65 47.7C74.35 39 82.55 22 85.35 1.2ZM81.85-57.2C89.45-44.6 94.95-21.5 91.75 2C89.15 21.3 82.35 37.3 73.05 47.6L94.75 47.6C105.05 47.6 113.65 39.8 114.55 29.5L119.25-19.6L124.55-76.9C116.85-71.6 106.25-67.4 95.45-65.7C85.25-64 82.55-59.5 81.85-57.2ZM27.05-83.3C27.65-83.1 28.25-82.9 28.85-82.7C28.65-85.5 29.35-89.5 33.65-93.1C41.35-99.5 46.45-95.7 46.45-95.7C46.45-95.7 49.05-104.7 60.55-100.8C60.55-100.8 60.55-111 74.65-111C84.85-111 84.85-100.8 84.85-100.8C84.85-100.8 95.05-105.9 98.95-94.4C98.95-94.4 108.85-98.8 114.25-88C116.05-84.5 116.75-81.7 117.05-79.6C120.55-81.5 123.35-83.6 125.55-85.7L125.75-87.9C125.75-87.9 120.65-123.7 72.05-123.7C34.65-123.7 22.65-100.1 19.35-91.2C21.05-87.6 23.55-84.6 27.05-83.3Z"/>
  </g>
  <g id="Regular-L" transform="matrix(1 0 0 1 1378.64 1556)">
   <path d="M99.65-72.4C97.45-71.8 95.15-71.3 92.95-71C83.25-69.5 78.55-65.5 76.35-61.9C71.25-66.8 62.25-70.6 52.45-74C52.85-76.1 53.75-79 55.95-80.9C58.05-82.8 60.75-84.6 66.05-82.2C69.75-92.9 85.95-91.2 88.15-80.1C94.75-82.3 98.25-76.2 99.65-72.4ZM84.25 0.3C87.85-26 79.85-48 73.55-56.4C68.45-63.2 50.45-68.7 37.25-72.7C32.65-74.1 28.25-75.4 24.85-76.7C22.55-77.5 20.65-78.8 18.95-80.4L24.55-20L29.15 28C30.05 38 38.45 45.7 48.55 45.7L63.15 45.7C73.55 37.2 81.55 20.6 84.25 0.3ZM80.25-56.8C87.75-44.5 93.15-21.9 90.05 1.1C87.45 20 80.75 35.7 71.65 45.8L93.15 45.8C103.25 45.8 111.65 38.1 112.55 28.1L117.15-19.9L122.45-76.3C114.95-71.1 104.55-66.9 93.85-65.3C83.55-63.7 80.95-59 80.25-56.8ZM26.85-82.1C27.45-81.9 28.05-81.7 28.65-81.5C28.35-84.3 28.95-88.3 33.35-91.9C40.85-98.2 45.85-94.4 45.85-94.4C45.85-94.4 48.35-103.2 59.65-99.4C59.65-99.4 59.65-109.4 73.45-109.4C83.45-109.4 83.45-99.4 83.45-99.4C83.45-99.4 93.45-104.4 97.25-93.1C97.25-93.1 106.95-97.4 112.25-86.8C114.05-83.2 114.75-80.4 115.05-78.4C118.35-80.2 121.15-82.2 123.25-84.2L123.45-86.8C123.45-86.8 118.45-121.9 70.95-121.9C33.85-121.9 22.25-98.2 19.35-89.8C21.05-86.3 23.45-83.3 26.85-82.1Z"/>
  </g>
  <g id="Light-L" transform="matrix(1 0 0 1 1083.03 1556)">
   <path d="M97.95-71.4C95.75-70.8 93.55-70.3 91.35-70C81.75-68.5 77.25-64.5 75.15-61C70.25-65.9 61.35-69.7 51.65-72.9C51.95-75 52.85-77.9 55.05-79.9C57.05-81.7 59.75-83.5 64.85-81.2C68.45-91.7 84.25-90 86.45-79.2C93.25-81.3 96.55-75.1 97.95-71.4ZM83.05-0.5C86.55-26.3 78.65-47.9 72.55-56.1C67.55-62.8 49.85-68.2 36.95-72.1C32.45-73.5 28.15-74.8 24.85-76C22.55-76.8 20.65-78.1 18.95-79.7L24.55-20.2L29.05 26.8C29.95 36.6 38.15 44.1 48.05 44.1L62.75 44.1C72.65 35.4 80.35 19.3 83.05-0.5ZM78.65-56.3C85.95-44.3 91.25-22.3 88.25 0.2C85.65 18.5 78.95 34 69.85 43.9L91.45 43.9C101.25 43.9 109.55 36.4 110.45 26.6L114.95-20.4L120.15-75.9C112.85-70.8 102.65-66.6 92.15-65C81.75-63.3 79.25-58.5 78.65-56.3ZM26.55-80.9C27.15-80.7 27.85-80.5 28.45-80.2C28.15-82.9 28.55-87 32.95-90.7C40.25-96.8 45.15-93.1 45.15-93.1C45.15-93.1 47.55-101.7 58.65-98C58.65-98 58.65-107.8 72.15-107.8C81.95-107.8 81.95-98 81.95-98C81.95-98 91.75-102.9 95.45-91.9C95.45-91.9 104.95-96.1 110.15-85.8C111.95-82.1 112.65-79.2 112.95-77.3C116.05-79 118.85-80.9 120.95-82.9L121.25-85.8C121.25-85.8 116.35-120.1 69.85-120.1C32.95-120.1 21.85-96.1 19.15-88.3C20.75-84.9 23.15-82.1 26.55-80.9Z"/>
  </g>
  <g id="Thin-L" transform="matrix(1 0 0 1 787.472 1556)">
   <path d="M96.35-70.4C94.15-69.8 92.05-69.3 89.85-69C80.25-67.5 75.95-63.4 73.95-60C69.35-64.8 60.35-68.7 50.95-71.9C51.25-74 52.05-77 54.35-79.1C56.35-80.9 58.95-82.6 63.95-80.3C67.45-90.5 82.95-88.9 85.05-78.3C91.85-80.4 95.05-74 96.35-70.4ZM81.95-1.3C85.45-26.6 77.65-47.8 71.65-55.9C66.65-62.5 49.35-67.8 36.75-71.7C32.35-73 28.15-74.3 24.85-75.5C22.55-76.3 20.55-77.7 18.95-79.3L24.45-20.8L28.85 25.1C29.75 34.7 37.75 42 47.35 42L62.05 42C71.85 33.7 79.35 17.9 81.95-1.3ZM77.05-55.9C84.15-44.3 89.45-22.7 86.45-0.7C84.05 17.2 77.45 32.4 68.45 42.1L89.95 42.1C99.55 42.1 107.65 34.8 108.45 25.2L112.85-20.7L117.95-75.2C110.85-70.2 100.75-66.1 90.45-64.5C80.05-62.9 77.65-58 77.05-55.9ZM26.35-79.7C26.95-79.5 27.65-79.2 28.35-79C27.95-81.6 28.25-85.8 32.75-89.5C39.95-95.5 44.75-91.9 44.75-91.9C44.75-91.9 47.15-100.3 57.95-96.7C57.95-96.7 57.95-106.3 71.15-106.3C80.75-106.3 80.75-96.7 80.75-96.7C80.75-96.7 90.35-101.5 93.95-90.7C93.95-90.7 103.25-94.8 108.25-84.7C110.15-80.9 110.75-78 110.95-76.1C113.95-77.8 116.65-79.6 118.65-81.4L118.95-84.7C118.95-84.7 114.15-118.2 68.75-118.2C32.15-118.2 21.45-94 19.15-86.7C20.75-83.6 23.05-80.9 26.35-79.7Z"/>
  </g>
  <g id="Ultralight-L" transform="matrix(1 0 0 1 491.911 1556)">
   <path d="M94.65-69.4C92.55-68.8 90.35-68.4 88.25-68C78.65-66.5 74.55-62.4 72.75-59C68.35-63.8 59.45-67.6 50.15-70.7C50.45-72.7 51.25-75.9 53.55-78C55.45-79.8 58.05-81.4 62.95-79.2C66.35-89.2 81.55-87.6 83.55-77.3C90.35-79.5 93.55-72.8 94.65-69.4ZM71.45-54.4C66.95-63 48.75-67.3 36.45-71.1C32.15-72.4 28.05-73.7 24.85-74.8C22.55-75.6 20.55-77 18.95-78.7L24.35-21.1L28.65 23.7C29.55 33.1 37.35 40.2 46.75 40.2L61.55 40.2C71.05 31.9 78.25 16.5 80.85-2.1C84.05-25.8 78.75-40.8 71.45-54.4ZM88.85-64.2C78.35-62.6 75.95-57.5 75.45-55.4C82.45-44.1 87.55-23.1 84.65-1.6C82.25 16 75.75 30.9 67.05 40.2L88.35 40.2C97.75 40.2 105.55 33 106.45 23.7L110.75-21.1L115.75-74.7C108.85-69.8 98.95-65.8 88.85-64.2ZM26.15-78.5C26.85-78.3 27.55-78 28.25-77.8C27.75-80.3 27.95-84.6 32.45-88.4C39.45-94.2 44.15-90.7 44.15-90.7C44.15-90.7 46.45-98.9 57.05-95.4C57.05-95.4 57.05-104.7 69.95-104.7C79.25-104.7 79.25-95.4 79.25-95.4C79.25-95.4 88.55-100.1 92.15-89.6C92.15-89.6 101.25-93.6 106.15-83.8C108.05-79.9 108.65-77 108.85-75.1C111.75-76.7 114.35-78.4 116.35-80.2L116.65-83.8C116.65-83.8 111.95-116.5 67.55-116.5C31.15-116.5 21.05-92 18.95-85.4C20.65-82.2 22.95-79.6 26.15-78.5Z"/>
  </g>
  <g id="Black-M" transform="matrix(1 0 0 1 2869.65 1126)">
   <path d="M87.75-65.5C85.95-65 84.05-64.6 82.25-64.3C74.45-63.1 70.25-60 67.95-57C63.35-61 55.75-64.1 47.75-66.8C48.15-68.5 48.95-70.4 50.55-71.8C52.35-73.4 54.65-75 59.25-72.9C62.45-82.1 76.35-80.6 78.25-71.1C83.45-72.9 86.35-68.7 87.75-65.5ZM73.95-2.1C76.95-24.5 70.25-43.1 64.95-50.2C60.75-55.8 45.45-60.5 34.25-63.9C30.25-65.1 26.45-66.3 23.55-67.4C21.85-68 20.25-68.9 18.95-70.1L23.65-19.5L27.65 21.9C28.45 30.5 35.65 37.1 44.35 37.1L55.35 37.1C64.35 30.3 71.45 15.8 73.95-2.1ZM72.55-51.2C78.75-40.7 83.65-21.8 80.85-1.1C78.65 15 73.05 28.4 65.35 37.2L82.55 37.2C91.25 37.2 98.45 30.6 99.25 22L103.25-19.4L107.65-66.7C101.15-62.3 92.35-58.8 83.35-57.5C75.65-56.3 73.25-53 72.55-51.2ZM25.85-73.9C26.25-73.8 26.65-73.6 27.05-73.5C27.05-75.8 27.95-78.7 31.15-81.4C37.65-86.8 41.95-83.6 41.95-83.6C41.95-83.6 44.15-91.1 53.75-87.9C53.75-87.9 53.75-96.5 65.55-96.5C74.15-96.5 74.15-87.9 74.15-87.9C74.15-87.9 82.75-92.2 85.95-82.5C85.95-82.5 94.35-86.2 98.85-77.1C100.15-74.6 100.75-72.5 101.05-70.9C104.15-72.7 106.65-74.6 108.45-76.4L108.55-77.1C108.55-77.1 104.25-107.3 63.35-107.3C33.15-107.3 22.65-89 19.35-80.9C20.85-77.6 22.95-75 25.85-73.9Z"/>
  </g>
  <g id="Heavy-M" transform="matrix(1 0 0 1 2573.69 1126)">
   <path d="M86.65-64.7C84.85-64.2 83.05-63.8 81.15-63.6C73.35-62.4 69.25-59.3 67.15-56.4C62.65-60.4 55.25-63.5 47.25-66.1C47.65-67.8 48.45-69.7 50.05-71.2C51.75-72.8 54.05-74.3 58.55-72.3C61.65-81.3 75.35-79.9 77.15-70.5C82.45-72.2 85.25-67.9 86.65-64.7ZM73.15-2.7C76.15-24.7 69.45-43 64.25-50C60.15-55.5 45.05-60.1 34.05-63.5C30.15-64.7 26.45-65.8 23.55-66.9C21.85-67.5 20.25-68.5 18.95-69.6L23.65-19.7L27.55 20.8C28.35 29.3 35.45 35.7 43.95 35.7L54.95 35.7C63.85 28.9 70.75 14.7 73.15-2.7ZM71.45-50.9C77.75-40.3 82.25-21.3 79.55-1.8C77.45 14 71.85 27.1 64.35 35.8L81.45 35.8C89.95 35.8 97.05 29.3 97.85 20.9L101.75-19.6L106.05-66.2C99.65-61.9 90.95-58.5 82.15-57.1C74.45-56 72.15-52.7 71.45-50.9ZM25.85-72.9C26.25-72.8 26.65-72.6 27.05-72.5C27.05-74.8 27.75-77.7 31.05-80.4C37.35-85.7 41.55-82.5 41.55-82.5C41.55-82.5 43.65-90 53.15-86.8C53.15-86.8 53.15-95.3 64.75-95.3C73.15-95.3 73.15-86.8 73.15-86.8C73.15-86.8 81.65-91 84.85-81.5C84.85-81.5 93.05-85.1 97.55-76.2C98.85-73.6 99.45-71.5 99.75-69.9C102.75-71.6 105.25-73.4 106.95-75.2L107.05-76.2C107.05-76.2 102.85-105.8 62.75-105.8C32.85-105.8 22.65-87.5 19.55-79.7C20.95-76.6 22.95-74 25.85-72.9Z"/>
  </g>
  <g id="Bold-M" transform="matrix(1 0 0 1 2277.83 1126)">
   <path d="M85.35-64C83.55-63.5 81.75-63.2 79.95-62.9C72.25-61.7 68.25-58.6 66.25-55.7C61.85-59.6 54.55-62.7 46.65-65.3C47.05-67 47.75-69 49.45-70.4C51.15-72 53.45-73.4 57.75-71.5C60.75-80.4 74.15-78.9 76.05-69.8C81.25-71.5 84.05-67.1 85.35-64ZM72.25-3.3C75.15-24.9 68.65-42.9 63.55-49.7C59.45-55.3 44.65-59.8 33.85-63C30.05-64.2 26.45-65.3 23.55-66.3C21.75-66.9 20.25-67.9 18.95-69L23.55-20L27.35 19.7C28.15 28 35.05 34.3 43.35 34.3L54.45 34.3C63.25 27.5 69.95 13.7 72.25-3.3ZM70.25-50.5C76.35-40.2 80.85-21.5 78.25-2.5C76.15 13 70.75 25.9 63.25 34.4L80.25 34.4C88.55 34.4 95.55 28.1 96.25 19.8L100.05-19.9L104.35-65.7C98.15-61.5 89.55-58.1 80.85-56.7C73.05-55.7 70.85-52.3 70.25-50.5ZM25.65-72C26.05-71.9 26.45-71.7 26.95-71.6C26.85-73.8 27.55-76.9 30.85-79.6C37.05-84.8 41.15-81.7 41.15-81.7C41.15-81.7 43.25-88.9 52.55-85.8C52.55-85.8 52.55-94.1 63.95-94.1C72.25-94.1 72.25-85.8 72.25-85.8C72.25-85.8 80.55-89.9 83.65-80.6C83.65-80.6 91.65-84.2 96.05-75.4C97.35-72.8 97.95-70.6 98.25-69C101.15-70.6 103.55-72.4 105.25-74.1L105.35-75.3C105.35-75.3 101.25-104.3 61.95-104.3C32.35-104.3 22.45-86 19.55-78.5C20.85-75.5 22.85-73 25.65-72Z"/>
  </g>
  <g id="Semibold-M" transform="matrix(1 0 0 1 1982.22 1126)">
   <path d="M84.05-63.2C82.35-62.7 80.55-62.4 78.75-62.1C71.15-60.9 67.25-57.8 65.25-55C61.05-58.9 53.75-61.9 46.05-64.5C46.45-66.2 47.15-68.2 48.75-69.7C50.45-71.2 52.65-72.7 56.85-70.7C59.85-79.4 72.95-77.9 74.75-69C80.05-70.7 82.75-66.2 84.05-63.2ZM71.35-4C74.25-25.2 67.75-42.9 62.75-49.6C58.75-55 44.15-59.4 33.65-62.7C29.95-63.8 26.35-64.9 23.55-65.9C21.75-66.5 20.25-67.5 18.95-68.7L23.45-20.4L27.15 18.5C27.95 26.6 34.75 32.8 42.85 32.8L54.05 32.8C62.55 26.1 69.05 12.6 71.35-4ZM68.95-50.2C74.95-40.1 79.35-21.9 76.75-3.2C74.65 12 69.35 24.6 62.05 32.9L78.95 32.9C87.05 32.9 93.85 26.7 94.65 18.6L98.35-20.3L102.55-65.4C96.45-61.2 88.05-57.9 79.55-56.6C71.65-55.4 69.55-51.9 68.95-50.2ZM25.35-71.1C25.75-70.9 26.25-70.8 26.65-70.6C26.55-72.8 27.15-75.9 30.45-78.6C36.55-83.7 40.55-80.6 40.55-80.6C40.55-80.6 42.55-87.7 51.65-84.7C51.65-84.7 51.65-92.8 62.75-92.8C70.85-92.8 70.85-84.7 70.85-84.7C70.85-84.7 78.95-88.8 81.95-79.6C81.95-79.6 89.85-83.1 94.05-74.5C95.35-71.8 95.95-69.7 96.25-68.1C99.05-69.7 101.35-71.4 103.05-73L103.15-74.5C103.15-74.5 99.15-102.9 60.65-102.9C31.35-102.9 21.75-84.6 19.05-77.4C20.65-74.5 22.65-72.1 25.35-71.1Z"/>
  </g>
  <g id="Medium-M" transform="matrix(1 0 0 1 1686.21 1126)">
   <path d="M82.75-62.4C81.05-62 79.25-61.6 77.45-61.3C69.85-60.1 66.15-57 64.25-54.2C60.15-58.1 53.05-61 45.35-63.6C45.65-65.3 46.45-67.4 48.05-68.9C49.65-70.4 51.85-71.8 56.05-69.9C58.95-78.4 71.75-77 73.55-68.3C78.85-70 81.55-65.4 82.75-62.4ZM70.45-4.6C73.25-25.4 66.95-42.8 62.05-49.4C58.05-54.7 43.85-59.1 33.45-62.2C29.75-63.3 26.35-64.4 23.55-65.4C21.75-66 20.25-67 18.95-68.2L23.35-20.6L26.95 17.5C27.65 25.4 34.35 31.5 42.35 31.5L53.65 31.5C61.95 24.7 68.25 11.5 70.45-4.6ZM67.65-49.9C73.55-40.1 77.85-22.2 75.35-4C73.35 10.9 68.05 23.3 60.85 31.4L77.65 31.4C85.65 31.4 92.25 25.3 93.05 17.4L96.65-20.6L100.75-65C94.85-61 86.65-57.7 78.25-56.4C70.35-55.1 68.25-51.6 67.65-49.9ZM25.25-70.1C25.65-69.9 26.15-69.8 26.65-69.6C26.45-71.8 27.05-74.9 30.35-77.7C36.25-82.7 40.25-79.7 40.25-79.7C40.25-79.7 42.25-86.6 51.15-83.7C51.15-83.7 51.15-91.6 62.05-91.6C69.95-91.6 69.95-83.7 69.95-83.7C69.95-83.7 77.85-87.7 80.85-78.7C80.85-78.7 88.55-82.1 92.75-73.7C94.15-71 94.65-68.8 94.95-67.2C97.65-68.7 99.85-70.3 101.55-71.9L101.75-73.6C101.75-73.6 97.75-101.4 60.15-101.4C31.15-101.4 21.85-83.1 19.35-76.2C20.65-73.4 22.55-71.1 25.25-70.1Z"/>
  </g>
  <g id="Regular-M" transform="matrix(1 0 0 1 1390.34 1126)">
   <path d="M81.45-61.6C79.75-61.1 77.95-60.8 76.25-60.5C68.75-59.3 65.15-56.2 63.35-53.5C59.45-57.3 52.35-60.3 44.85-62.8C45.15-64.5 45.85-66.6 47.55-68.2C49.15-69.7 51.25-71 55.35-69.2C58.15-77.5 70.75-76.1 72.45-67.6C77.65-69.3 80.35-64.6 81.45-61.6ZM69.55-5.2C72.35-25.6 66.15-42.7 61.25-49.2C57.35-54.5 43.35-58.7 33.15-61.8C29.55-62.9 26.15-63.9 23.55-64.9C21.75-65.5 20.25-66.5 18.95-67.8L23.35-21L26.95 16.2C27.55 24.1 34.05 30 41.85 30L53.15 30C61.25 23.3 67.35 10.5 69.55-5.2ZM66.45-49.5C72.25-40 76.45-22.5 74.05-4.6C71.95 10 66.85 22.2 59.75 30L76.45 30C84.25 30 90.75 24.1 91.45 16.3L95.05-20.9L99.15-64.6C93.35-60.6 85.25-57.3 76.95-56C68.95-54.9 66.95-51.2 66.45-49.5ZM25.05-69.2C25.45-69 25.95-68.9 26.45-68.7C26.25-70.8 26.65-74 30.05-76.8C35.85-81.7 39.75-78.7 39.75-78.7C39.75-78.7 41.65-85.5 50.45-82.6C50.45-82.6 50.45-90.4 61.15-90.4C68.95-90.4 68.95-82.6 68.95-82.6C68.95-82.6 76.75-86.5 79.65-77.7C79.65-77.7 87.15-81 91.25-72.8C92.65-70 93.25-67.8 93.45-66.3C95.95-67.7 98.15-69.2 99.85-70.8L100.05-72.8C100.05-72.8 96.15-100 59.35-100C30.65-100 21.65-81.6 19.35-75.1C20.45-72.4 22.45-70.1 25.05-69.2Z"/>
  </g>
  <g id="Light-M" transform="matrix(1 0 0 1 1094.58 1126)">
   <path d="M80.25-60.9C78.55-60.4 76.85-60.1 75.15-59.8C67.65-58.6 64.15-55.5 62.55-52.8C58.75-56.6 51.85-59.5 44.35-62C44.65-63.6 45.25-65.9 47.05-67.5C48.65-68.9 50.65-70.3 54.65-68.5C57.45-76.6 69.75-75.3 71.45-66.9C76.55-68.5 79.15-63.7 80.25-60.9ZM68.75-5.9C71.45-25.9 65.35-42.7 60.55-49C56.65-54.2 42.95-58.4 32.95-61.4C29.45-62.5 26.15-63.5 23.55-64.4C21.75-65 20.25-66.1 18.95-67.3L23.25-21.2L26.75 15.2C27.45 22.8 33.85 28.6 41.45 28.6L52.85 28.6C60.65 22 66.65 9.4 68.75-5.9ZM65.25-49.2C70.85-39.9 75.05-22.8 72.65-5.4C70.75 8.8 65.55 20.8 58.45 28.5L75.15 28.5C82.75 28.5 89.15 22.7 89.85 15.1L93.35-21.3L97.35-64.3C91.75-60.3 83.75-57.1 75.65-55.9C67.75-54.6 65.75-50.9 65.25-49.2ZM24.95-68.2C25.45-68 25.95-67.9 26.45-67.7C26.15-69.8 26.55-73 29.95-75.8C35.65-80.5 39.45-77.7 39.45-77.7C39.45-77.7 41.35-84.3 49.85-81.5C49.85-81.5 49.85-89.1 60.25-89.1C67.85-89.1 67.85-81.5 67.85-81.5C67.85-81.5 75.45-85.3 78.25-76.8C78.25-76.8 85.65-80.1 89.65-72.1C91.05-69.2 91.65-67 91.75-65.5C94.15-66.8 96.25-68.3 97.95-69.8L98.15-72.1C98.15-72.1 94.35-98.7 58.35-98.7C29.75-98.7 21.15-80.1 19.05-74C20.45-71.3 22.25-69.2 24.95-68.2Z"/>
  </g>
  <g id="Thin-M" transform="matrix(1 0 0 1 798.772 1126)">
   <path d="M78.95-60.1C77.25-59.7 75.55-59.3 73.95-59C66.55-57.9 63.15-54.7 61.65-52C58.05-55.7 51.05-58.7 43.75-61.2C43.95-62.8 44.65-65.1 46.35-66.7C47.85-68.1 49.85-69.4 53.85-67.6C56.55-75.5 68.55-74.2 70.25-66.1C75.45-67.8 77.95-62.8 78.95-60.1ZM67.85-6.5C70.55-26.1 64.55-42.6 59.85-48.8C55.95-54 42.55-58 32.75-61C29.35-62 26.15-63 23.55-64C21.75-64.7 20.25-65.7 18.95-67L23.15-21.6L26.65 14C27.35 21.4 33.55 27.1 41.05 27.1L52.45 27.1C60.05 20.6 65.75 8.4 67.85-6.5ZM64.05-48.8C69.55-39.8 73.65-23.1 71.35-6C69.45 7.9 64.35 19.7 57.45 27.2L74.05 27.2C81.55 27.2 87.75 21.5 88.45 14.1L91.85-21.5L95.75-63.8C90.25-60 82.45-56.8 74.45-55.6C66.35-54.3 64.45-50.5 64.05-48.8ZM24.75-67.3C25.25-67.1 25.75-66.9 26.25-66.8C25.95-68.8 26.25-72.1 29.65-75C35.25-79.6 38.95-76.9 38.95-76.9C38.95-76.9 40.85-83.4 49.15-80.6C49.15-80.6 49.15-88 59.35-88C66.75-88 66.75-80.6 66.75-80.6C66.75-80.6 74.15-84.3 76.95-76C76.95-76 84.15-79.2 88.05-71.4C89.55-68.5 90.05-66.2 90.15-64.7C92.45-66 94.55-67.4 96.15-68.8L96.35-71.3C96.35-71.3 92.65-97.3 57.45-97.3C29.05-97.3 20.85-78.5 18.95-72.9C20.35-70.3 22.15-68.2 24.75-67.3Z"/>
  </g>
  <g id="Ultralight-M" transform="matrix(1 0 0 1 502.761 1126)">
   <path d="M77.75-59.3C76.15-58.9 74.45-58.5 72.75-58.2C65.35-57.1 62.15-53.8 60.75-51.3C57.35-55 50.45-57.9 43.25-60.4C43.45-62 44.05-64.4 45.85-66C47.35-67.4 49.35-68.7 53.15-66.9C55.85-74.6 67.55-73.4 69.15-65.4C74.35-67.1 76.85-61.9 77.75-59.3ZM59.75-47.7C56.25-54.4 42.15-57.7 32.55-60.6C29.25-61.6 26.05-62.6 23.55-63.5C21.75-64.2 20.25-65.2 18.95-66.5L23.15-21.8L26.45 13C27.15 20.3 33.25 25.8 40.45 25.8L51.95 25.8C59.35 19.4 64.95 7.4 66.85-7C69.55-25.5 65.35-37.1 59.75-47.7ZM73.25-55.3C65.05-54 63.25-50.1 62.85-48.5C68.25-39.8 72.25-23.5 69.95-6.8C68.05 6.8 63.05 18.4 56.25 25.6L72.85 25.6C80.15 25.6 86.25 20.1 86.85 12.8L90.15-22L94.05-63.6C88.75-59.6 81.05-56.5 73.25-55.3ZM24.65-66.3C25.15-66.1 25.75-65.9 26.25-65.7C25.95-67.7 26.05-71 29.55-73.9C34.95-78.4 38.65-75.7 38.65-75.7C38.65-75.7 40.45-82 48.65-79.3C48.65-79.3 48.65-86.5 58.65-86.5C65.85-86.5 65.85-79.3 65.85-79.3C65.85-79.3 73.05-82.9 75.85-74.8C75.85-74.8 82.85-77.9 86.75-70.3C88.25-67.3 88.75-65 88.85-63.6C91.05-64.8 93.05-66.2 94.65-67.6L94.95-70.4C94.95-70.4 91.35-95.8 56.95-95.8C28.75-95.8 20.85-76.8 19.25-71.7C20.35-69.2 22.15-67.2 24.65-66.3Z"/>
  </g>
  <g id="Black-S" transform="matrix(1 0 0 1 2879.3 696)">
   <path d="M72.85-59.1C71.45-58.7 69.95-58.4 68.55-58.2C62.45-57.3 59.15-54.8 57.35-52.5C53.75-55.6 47.85-58.1 41.55-60.2C41.85-61.5 42.55-63 43.75-64.1C45.15-65.4 46.95-66.6 50.55-65C53.05-72.2 63.95-71 65.45-63.6C69.45-64.9 71.75-61.6 72.85-59.1ZM62.05-9.4C64.45-27 59.15-41.6 54.95-47.1C51.65-51.5 39.65-55.1 30.95-57.8C27.85-58.8 24.85-59.7 22.55-60.5C21.15-61 19.95-61.7 18.95-62.6L22.65-23L25.75 9.4C26.35 16.2 32.05 21.3 38.85 21.3L47.45 21.3C54.55 15.9 60.15 4.5 62.05-9.4ZM60.95-47.9C65.85-39.6 69.65-24.9 67.45-8.7C65.75 3.9 61.35 14.4 55.35 21.3L68.85 21.3C75.65 21.3 81.25 16.1 81.95 9.4L84.95-23L88.45-60C83.35-56.6 76.45-53.9 69.45-52.8C63.35-51.9 61.55-49.3 60.95-47.9ZM24.45-65.7C24.75-65.6 25.05-65.5 25.35-65.4C25.35-67.2 26.05-69.5 28.55-71.6C33.65-75.8 36.95-73.3 36.95-73.3C36.95-73.3 38.65-79.2 46.25-76.7C46.25-76.7 46.25-83.5 55.55-83.5C62.25-83.5 62.25-76.7 62.25-76.7C62.25-76.7 68.95-80.1 71.55-72.5C71.55-72.5 78.15-75.4 81.65-68.3C82.65-66.3 83.15-64.7 83.35-63.4C85.75-64.8 87.75-66.3 89.15-67.7L89.25-68.2C89.25-68.2 85.85-91.8 53.85-91.8C30.25-91.8 21.95-77.5 19.45-71.1C20.55-68.6 22.15-66.5 24.45-65.7Z"/>
  </g>
  <g id="Heavy-S" transform="matrix(1 0 0 1 2583.34 696)">
   <path d="M71.75-58.5C70.35-58.1 68.95-57.8 67.45-57.6C61.35-56.7 58.15-54.3 56.45-51.9C52.95-55 47.05-57.4 40.85-59.5C41.15-60.8 41.75-62.3 43.05-63.5C44.45-64.7 46.25-65.9 49.65-64.3C52.05-71.4 62.75-70.2 64.25-62.9C68.45-64.3 70.75-61 71.75-58.5ZM61.25-9.9C63.55-27.1 58.35-41.5 54.35-46.9C51.15-51.2 39.35-54.8 30.75-57.4C27.65-58.3 24.85-59.2 22.55-60C21.15-60.5 19.95-61.2 18.95-62.1L22.55-23.1L25.55 8.6C26.15 15.2 31.75 20.3 38.35 20.3L46.95 20.3C53.95 14.8 59.35 3.7 61.25-9.9ZM59.85-47.7C64.75-39.4 68.25-24.5 66.25-9.3C64.55 3 60.25 13.4 54.35 20.1L67.75 20.1C74.35 20.1 79.95 15 80.55 8.4L83.55-23.3L86.95-59.8C81.95-56.4 75.15-53.7 68.25-52.7C62.25-51.7 60.45-49.1 59.85-47.7ZM24.15-64.9C24.45-64.8 24.75-64.7 25.15-64.6C25.15-66.4 25.75-68.7 28.25-70.8C33.25-74.9 36.55-72.5 36.55-72.5C36.55-72.5 38.25-78.3 45.65-75.8C45.65-75.8 45.65-82.4 54.75-82.4C61.35-82.4 61.35-75.8 61.35-75.8C61.35-75.8 67.95-79.1 70.45-71.7C70.45-71.7 76.85-74.5 80.35-67.6C81.35-65.6 81.85-63.9 82.05-62.7C84.35-64 86.35-65.5 87.65-66.9L87.75-67.7C87.75-67.7 84.45-90.9 53.05-90.9C29.65-90.9 21.65-76.6 19.25-70.5C20.35-67.8 21.95-65.8 24.15-64.9Z"/>
  </g>
  <g id="Bold-S" transform="matrix(1 0 0 1 2287.23 696)">
   <path d="M70.85-57.9C69.45-57.5 68.05-57.2 66.65-57C60.65-56.1 57.55-53.7 55.85-51.4C52.45-54.5 46.65-56.9 40.55-58.9C40.85-60.2 41.45-61.8 42.75-62.9C44.05-64.1 45.85-65.3 49.25-63.7C51.65-70.6 62.15-69.5 63.55-62.4C67.65-63.8 69.85-60.4 70.85-57.9ZM60.65-10.4C62.95-27.3 57.85-41.4 53.85-46.8C50.65-51.1 39.05-54.6 30.65-57.2C27.65-58.1 24.85-59 22.55-59.8C21.15-60.3 19.95-61 18.95-61.9L22.55-23.5L25.55 7.6C26.15 14.1 31.55 19.1 38.05 19.1L46.75 19.1C53.55 13.7 58.85 2.9 60.65-10.4ZM59.05-47.4C63.85-39.3 67.35-24.7 65.35-9.8C63.65 2.3 59.45 12.4 53.65 19.1L66.95 19.1C73.45 19.1 78.85 14.1 79.45 7.6L82.45-23.5L85.75-59.4C80.85-56.1 74.15-53.4 67.35-52.4C61.25-51.4 59.55-48.8 59.05-47.4ZM24.15-64.2C24.45-64.1 24.85-64 25.15-63.8C25.05-65.6 25.65-67.9 28.25-70C33.15-74.1 36.35-71.6 36.35-71.6C36.35-71.6 37.95-77.3 45.25-74.8C45.25-74.8 45.25-81.3 54.15-81.3C60.65-81.3 60.65-74.8 60.65-74.8C60.65-74.8 67.15-78 69.55-70.7C69.55-70.7 75.85-73.5 79.25-66.6C80.25-64.5 80.75-62.9 80.95-61.6C83.25-62.9 85.05-64.3 86.45-65.6L86.55-66.6C86.55-66.6 83.35-89.3 52.55-89.3C29.45-89.3 21.55-75 19.35-69.1C20.35-67 21.95-65 24.15-64.2Z"/>
  </g>
  <g id="Semibold-S" transform="matrix(1 0 0 1 1991.37 696)">
   <path d="M69.85-57.3C68.45-56.9 67.05-56.6 65.65-56.4C59.65-55.5 56.65-53.1 55.15-50.8C51.85-53.8 46.15-56.2 40.15-58.3C40.45-59.6 41.05-61.2 42.25-62.4C43.55-63.6 45.25-64.7 48.65-63.2C50.95-70 61.25-68.9 62.65-61.9C66.75-63.2 68.95-59.7 69.85-57.3ZM59.95-10.9C62.15-27.5 57.15-41.4 53.25-46.7C50.05-50.9 38.75-54.4 30.45-56.9C27.55-57.8 24.75-58.6 22.55-59.4C21.15-59.9 19.95-60.7 18.95-61.6L22.45-23.8L25.35 6.7C25.95 13.1 31.25 17.9 37.65 17.9L46.45 17.9C53.05 12.6 58.15 2 59.95-10.9ZM58.05-47.1C62.75-39.3 66.15-25 64.15-10.4C62.55 1.5 58.35 11.4 52.65 17.9L65.85 17.9C72.25 17.9 77.55 13 78.15 6.7L81.05-23.8L84.35-59.1C79.55-55.8 73.05-53.2 66.35-52.2C60.25-51.2 58.55-48.5 58.05-47.1ZM23.95-63.5C24.25-63.4 24.65-63.3 24.95-63.1C24.85-64.8 25.35-67.2 27.95-69.4C32.75-73.4 35.85-71 35.85-71C35.85-71 37.45-76.6 44.55-74.2C44.55-74.2 44.55-80.5 53.25-80.5C59.55-80.5 59.55-74.2 59.55-74.2C59.55-74.2 65.85-77.4 68.25-70.2C68.25-70.2 74.45-72.9 77.75-66.2C78.75-64.1 79.25-62.4 79.45-61.2C81.65-62.4 83.45-63.8 84.75-65.1L84.85-66.3C84.85-66.3 81.65-88.5 51.55-88.5C28.65-88.5 21.05-74.2 18.95-68.5C20.25-66.2 21.85-64.2 23.95-63.5Z"/>
  </g>
  <g id="Medium-S" transform="matrix(1 0 0 1 1695.26 696)">
   <path d="M68.85-56.7C67.55-56.3 66.15-56.1 64.75-55.8C58.85-54.9 55.85-52.5 54.45-50.3C51.25-53.3 45.65-55.7 39.65-57.7C39.95-59 40.45-60.7 41.75-61.9C43.05-63.1 44.75-64.2 47.95-62.7C50.25-69.3 60.25-68.3 61.65-61.4C65.85-62.6 67.95-59 68.85-56.7ZM59.25-11.4C61.45-27.7 56.55-41.3 52.65-46.5C49.55-50.7 38.35-54.1 30.25-56.6C27.35-57.5 24.65-58.3 22.55-59.1C21.15-59.6 19.95-60.4 18.95-61.3L22.35-24L25.25 5.8C25.85 12 31.05 16.8 37.25 16.8L46.05 16.8C52.55 11.5 57.45 1.2 59.25-11.4ZM57.05-46.9C61.65-39.2 65.05-25.2 63.05-10.9C61.45 0.8 57.35 10.5 51.65 16.8L64.75 16.8C70.95 16.8 76.25 12 76.75 5.8L79.75-24L82.95-58.8C78.35-55.6 71.95-53 65.35-52C59.15-51 57.45-48.2 57.05-46.9ZM23.85-62.7C24.15-62.6 24.55-62.5 24.95-62.3C24.85-64 25.25-66.4 27.85-68.6C32.55-72.5 35.65-70.2 35.65-70.2C35.65-70.2 37.25-75.6 44.15-73.3C44.15-73.3 44.15-79.5 52.65-79.5C58.85-79.5 58.85-73.3 58.85-73.3C58.85-73.3 65.05-76.4 67.35-69.4C67.35-69.4 73.35-72.1 76.65-65.5C77.75-63.4 78.15-61.7 78.35-60.4C80.45-61.6 82.15-62.8 83.55-64.1L83.65-65.5C83.65-65.5 80.55-87.2 51.05-87.2C28.35-87.2 21.05-72.9 19.05-67.5C20.15-65.3 21.75-63.5 23.85-62.7Z"/>
  </g>
  <g id="Regular-S" transform="matrix(1 0 0 1 1399.29 696)">
   <path d="M67.85-56.1C66.55-55.7 65.15-55.4 63.75-55.2C57.85-54.3 55.05-51.9 53.65-49.7C50.55-52.7 45.05-55 39.15-57C39.35-58.3 39.95-60 41.25-61.2C42.55-62.3 44.15-63.4 47.35-62C49.55-68.5 59.45-67.4 60.75-60.7C64.95-62.1 67.05-58.4 67.85-56.1ZM58.55-11.9C60.75-27.9 55.85-41.2 52.05-46.3C48.95-50.4 38.05-53.8 30.05-56.2C27.25-57.1 24.55-57.9 22.55-58.6C21.15-59.1 19.95-59.9 18.95-60.8L22.35-24.1L25.15 5.1C25.75 11.2 30.85 15.8 36.95 15.8L45.85 15.8C52.05 10.4 56.85 0.4 58.55-11.9ZM56.15-46.6C60.65-39.1 63.95-25.4 62.05-11.4C60.45 0 56.45 9.5 50.85 15.7L63.95 15.7C70.05 15.7 75.15 11 75.75 5L78.55-24.2L81.75-58.4C77.25-55.2 70.85-52.7 64.45-51.7C58.05-50.8 56.55-47.9 56.15-46.6ZM23.75-62C24.15-61.9 24.45-61.7 24.85-61.6C24.65-63.3 25.05-65.7 27.65-67.9C32.25-71.7 35.25-69.4 35.25-69.4C35.25-69.4 36.75-74.7 43.55-72.4C43.55-72.4 43.55-78.5 51.85-78.5C57.95-78.5 57.95-72.4 57.95-72.4C57.95-72.4 64.05-75.4 66.25-68.6C66.25-68.6 72.15-71.2 75.35-64.8C76.45-62.6 76.85-60.9 77.05-59.7C79.05-60.8 80.75-62 82.05-63.2L82.15-64.8C82.15-64.8 79.15-86.1 50.25-86.1C27.75-86.1 20.65-71.7 18.95-66.6C20.15-64.5 21.65-62.7 23.75-62Z"/>
  </g>
  <g id="Light-S" transform="matrix(1 0 0 1 1103.08 696)">
   <path d="M66.95-55.5C65.65-55.1 64.25-54.9 62.95-54.6C57.05-53.7 54.35-51.2 53.05-49.1C50.05-52.1 44.65-54.4 38.75-56.3C38.95-57.6 39.45-59.3 40.85-60.6C42.05-61.7 43.65-62.8 46.85-61.4C49.05-67.8 58.65-66.7 59.95-60.2C64.15-61.5 66.15-57.7 66.95-55.5ZM57.95-12.4C60.05-28.1 55.35-41.2 51.55-46.2C48.45-50.3 37.75-53.5 29.95-55.9C27.25-56.7 24.65-57.5 22.55-58.3C21.15-58.8 19.95-59.6 18.95-60.6L22.35-24.5L25.05 4C25.65 10 30.55 14.5 36.55 14.5L45.45 14.5C51.65 9.4 56.25-0.4 57.95-12.4ZM55.25-46.3C59.65-39 62.95-25.7 61.05-12C59.55-0.9 55.45 8.5 49.95 14.5L63.05 14.5C69.05 14.5 74.05 10 74.55 4L77.25-24.5L80.35-58.2C75.95-55.1 69.65-52.6 63.35-51.6C57.15-50.6 55.65-47.7 55.25-46.3ZM23.65-61.2C24.05-61.1 24.45-60.9 24.85-60.8C24.65-62.4 24.95-64.9 27.65-67.2C32.15-70.9 35.05-68.7 35.05-68.7C35.05-68.7 36.55-73.9 43.25-71.7C43.25-71.7 43.25-77.6 51.45-77.6C57.35-77.6 57.35-71.7 57.35-71.7C57.35-71.7 63.25-74.7 65.55-68C65.55-68 71.35-70.6 74.45-64.3C75.55-62.1 75.95-60.3 76.15-59.1C78.05-60.1 79.75-61.3 80.95-62.5L81.15-64.3C81.15-64.3 78.15-85.1 49.95-85.1C27.45-85 20.65-70.5 19.05-65.7C20.15-63.7 21.55-62 23.65-61.2Z"/>
  </g>
  <g id="Thin-S" transform="matrix(1 0 0 1 807.072 696)">
   <path d="M65.95-54.9C64.65-54.6 63.35-54.3 61.95-54.1C56.15-53.2 53.55-50.7 52.35-48.7C49.55-51.6 44.05-53.9 38.35-55.9C38.55-57.2 39.05-59 40.45-60.2C41.65-61.3 43.25-62.3 46.25-60.9C48.35-67.1 57.75-66.1 59.05-59.7C63.25-60.9 65.15-57 65.95-54.9ZM57.25-12.9C59.35-28.3 54.65-41.1 50.95-46C47.95-50 37.45-53.2 29.75-55.6C27.05-56.4 24.55-57.2 22.55-57.9C21.15-58.4 19.95-59.2 18.95-60.2L22.25-24.7L24.95 3.2C25.55 9 30.35 13.4 36.25 13.4L45.15 13.4C51.15 8.3 55.65-1.3 57.25-12.9ZM54.25-46C58.55-39 61.75-25.9 59.95-12.5C58.45-1.6 54.45 7.6 49.05 13.5L62.05 13.5C67.85 13.5 72.75 9.1 73.35 3.2L76.05-24.7L79.15-57.8C74.85-54.8 68.75-52.3 62.45-51.3C56.05-50.3 54.65-47.4 54.25-46ZM23.45-60.5C23.85-60.4 24.25-60.2 24.65-60.1C24.45-61.7 24.65-64.2 27.35-66.5C31.75-70.1 34.65-68 34.65-68C34.65-68 36.15-73.1 42.65-70.9C42.65-70.9 42.65-76.7 50.65-76.7C56.45-76.7 56.45-70.9 56.45-70.9C56.45-70.9 62.25-73.8 64.45-67.3C64.45-67.3 70.05-69.8 73.15-63.7C74.35-61.4 74.65-59.6 74.85-58.5C76.65-59.5 78.25-60.6 79.55-61.7L79.75-63.7C79.75-63.7 76.85-84 49.25-84C27.05-84 20.55-69.3 19.15-64.9C20.05-62.9 21.45-61.2 23.45-60.5Z"/>
  </g>
  <g id="Ultralight-S" transform="matrix(1 0 0 1 511.111 696)">
   <path d="M64.95-54.3C63.65-54 62.35-53.7 61.05-53.5C55.25-52.6 52.75-50.1 51.65-48.1C48.95-51 43.55-53.3 37.95-55.2C38.15-56.4 38.55-58.3 39.95-59.6C41.15-60.7 42.65-61.7 45.65-60.3C47.75-66.4 56.95-65.4 58.15-59.1C62.35-60.4 64.25-56.3 64.95-54.3ZM50.95-45.2C48.15-50.4 37.15-53 29.65-55.3C27.05-56.1 24.55-56.8 22.65-57.6C21.25-58.1 20.05-58.9 19.05-60L22.35-25L24.95 2.2C25.45 7.9 30.25 12.2 35.95 12.2L44.95 12.2C50.75 7.1 55.05-2.2 56.65-13.5C58.55-27.8 55.25-36.9 50.95-45.2ZM61.45-51.1C55.05-50.1 53.65-47 53.35-45.8C57.55-39 60.75-26.2 58.95-13.1C57.45-2.4 53.45 6.6 48.15 12.3L61.15 12.3C66.85 12.3 71.65 8 72.15 2.3L74.75-25L77.75-57.5C73.55-54.5 67.55-52.1 61.45-51.1ZM23.35-59.8C23.75-59.7 24.15-59.5 24.65-59.4C24.35-60.9 24.45-63.5 27.25-65.8C31.55-69.3 34.35-67.2 34.35-67.2C34.35-67.2 35.75-72.2 42.15-70C42.15-70 42.15-75.7 49.95-75.7C55.65-75.7 55.65-70 55.65-70C55.65-70 61.35-72.8 63.45-66.5C63.45-66.5 68.95-68.9 71.95-63C73.15-60.6 73.45-58.8 73.55-57.7C75.35-58.7 76.85-59.7 78.05-60.8L78.25-63C78.25-63 75.45-82.9 48.45-82.9C26.35-82.9 20.25-68 18.95-64C20.05-62 21.45-60.5 23.35-59.8Z"/>
  </g>
 </g>
</svg>
