<?xml version="1.0" encoding="UTF-8"?>
<!--Generator: Apple Native CoreSVG 175.5-->
<!DOCTYPE svg
PUBLIC "-//W3C//DTD SVG 1.1//EN"
       "http://www.w3.org/Graphics/SVG/1.1/DTD/svg11.dtd">
<svg version="1.1" xmlns="http://www.w3.org/2000/svg" xmlns:xlink="http://www.w3.org/1999/xlink" width="3300" height="2200">
 <!--glyph: "uni101437.medium", point size: 100.0, font version: "18.0d9e1", template writer version: "84"-->
 <g id="Notes">
  <rect height="2200" id="artboard" style="fill:white;opacity:1" width="3300" x="0" y="0"/>
  <line style="fill:none;stroke:black;opacity:1;stroke-width:0.5;" x1="263" x2="3036" y1="292" y2="292"/>
  <text style="stroke:none;fill:black;font-family:sans-serif;font-size:13;font-weight:bold;" transform="matrix(1 0 0 1 263 322)">Weight/Scale Variations</text>
  <text style="stroke:none;fill:black;font-family:sans-serif;font-size:13;text-anchor:middle;" transform="matrix(1 0 0 1 559.711 322)">Ultralight</text>
  <text style="stroke:none;fill:black;font-family:sans-serif;font-size:13;text-anchor:middle;" transform="matrix(1 0 0 1 856.422 322)">Thin</text>
  <text style="stroke:none;fill:black;font-family:sans-serif;font-size:13;text-anchor:middle;" transform="matrix(1 0 0 1 1153.13 322)">Light</text>
  <text style="stroke:none;fill:black;font-family:sans-serif;font-size:13;text-anchor:middle;" transform="matrix(1 0 0 1 1449.84 322)">Regular</text>
  <text style="stroke:none;fill:black;font-family:sans-serif;font-size:13;text-anchor:middle;" transform="matrix(1 0 0 1 1746.56 322)">Medium</text>
  <text style="stroke:none;fill:black;font-family:sans-serif;font-size:13;text-anchor:middle;" transform="matrix(1 0 0 1 2043.27 322)">Semibold</text>
  <text style="stroke:none;fill:black;font-family:sans-serif;font-size:13;text-anchor:middle;" transform="matrix(1 0 0 1 2339.98 322)">Bold</text>
  <text style="stroke:none;fill:black;font-family:sans-serif;font-size:13;text-anchor:middle;" transform="matrix(1 0 0 1 2636.69 322)">Heavy</text>
  <text style="stroke:none;fill:black;font-family:sans-serif;font-size:13;text-anchor:middle;" transform="matrix(1 0 0 1 2933.4 322)">Black</text>
  <line style="fill:none;stroke:black;opacity:1;stroke-width:0.5;" x1="263" x2="3036" y1="1903" y2="1903"/>
  <g transform="matrix(1 0 0 1 263 1933)">
   <path d="M9.24805 0.830078Q10.8691 0.830078 12.2949 0.214844Q13.7207-0.400391 14.8096-1.49414Q15.8984-2.58789 16.5186-4.01367Q17.1387-5.43945 17.1387-7.05078Q17.1387-8.66211 16.5186-10.0879Q15.8984-11.5137 14.8047-12.6074Q13.7109-13.7012 12.2852-14.3164Q10.8594-14.9316 9.23828-14.9316Q7.62695-14.9316 6.20117-14.3164Q4.77539-13.7012 3.69141-12.6074Q2.60742-11.5137 1.9873-10.0879Q1.36719-8.66211 1.36719-7.05078Q1.36719-5.43945 1.9873-4.01367Q2.60742-2.58789 3.69629-1.49414Q4.78516-0.400391 6.21094 0.214844Q7.63672 0.830078 9.24805 0.830078ZM9.24805-0.654297Q7.91992-0.654297 6.7627-1.14746Q5.60547-1.64062 4.73145-2.51953Q3.85742-3.39844 3.36426-4.56055Q2.87109-5.72266 2.87109-7.05078Q2.87109-8.37891 3.35938-9.54102Q3.84766-10.7031 4.72168-11.582Q5.5957-12.4609 6.75293-12.9541Q7.91016-13.4473 9.23828-13.4473Q10.5762-13.4473 11.7383-12.9541Q12.9004-12.4609 13.7793-11.582Q14.6582-10.7031 15.1514-9.54102Q15.6445-8.37891 15.6445-7.05078Q15.6445-5.72266 15.1514-4.56055Q14.6582-3.39844 13.7793-2.51953Q12.9004-1.64062 11.7432-1.14746Q10.5859-0.654297 9.24805-0.654297ZM5.6543-7.05078Q5.6543-6.72852 5.85938-6.52832Q6.06445-6.32812 6.40625-6.32812L8.51562-6.32812L8.51562-4.20898Q8.51562-3.88672 8.71094-3.67676Q8.90625-3.4668 9.23828-3.4668Q9.56055-3.4668 9.77051-3.67676Q9.98047-3.88672 9.98047-4.20898L9.98047-6.32812L12.0898-6.32812Q12.4219-6.32812 12.627-6.52832Q12.832-6.72852 12.832-7.05078Q12.832-7.38281 12.627-7.58789Q12.4219-7.79297 12.0898-7.79297L9.98047-7.79297L9.98047-9.90234Q9.98047-10.2344 9.77051-10.4443Q9.56055-10.6543 9.23828-10.6543Q8.90625-10.6543 8.71094-10.4443Q8.51562-10.2344 8.51562-9.90234L8.51562-7.79297L6.40625-7.79297Q6.06445-7.79297 5.85938-7.58789Q5.6543-7.38281 5.6543-7.05078Z"/>
  </g>
  <g transform="matrix(1 0 0 1 281.867 1933)">
   <path d="M11.709 2.91016Q13.75 2.91016 15.5518 2.12891Q17.3535 1.34766 18.7305-0.0292969Q20.1074-1.40625 20.8887-3.20801Q21.6699-5.00977 21.6699-7.05078Q21.6699-9.0918 20.8887-10.8936Q20.1074-12.6953 18.7305-14.0723Q17.3535-15.4492 15.5469-16.2305Q13.7402-17.0117 11.6992-17.0117Q9.6582-17.0117 7.85645-16.2305Q6.05469-15.4492 4.68262-14.0723Q3.31055-12.6953 2.5293-10.8936Q1.74805-9.0918 1.74805-7.05078Q1.74805-5.00977 2.5293-3.20801Q3.31055-1.40625 4.6875-0.0292969Q6.06445 1.34766 7.86621 2.12891Q9.66797 2.91016 11.709 2.91016ZM11.709 1.25Q9.98047 1.25 8.47656 0.605469Q6.97266-0.0390625 5.83496-1.17676Q4.69727-2.31445 4.05762-3.81836Q3.41797-5.32227 3.41797-7.05078Q3.41797-8.7793 4.05762-10.2832Q4.69727-11.7871 5.83008-12.9297Q6.96289-14.0723 8.4668-14.7119Q9.9707-15.3516 11.6992-15.3516Q13.4277-15.3516 14.9365-14.7119Q16.4453-14.0723 17.583-12.9297Q18.7207-11.7871 19.3652-10.2832Q20.0098-8.7793 20.0098-7.05078Q20.0098-5.32227 19.3701-3.81836Q18.7305-2.31445 17.5879-1.17676Q16.4453-0.0390625 14.9414 0.605469Q13.4375 1.25 11.709 1.25ZM7.17773-7.05078Q7.17773-6.69922 7.41211-6.47461Q7.64648-6.25 8.01758-6.25L10.8887-6.25L10.8887-3.36914Q10.8887-2.99805 11.1133-2.76855Q11.3379-2.53906 11.6895-2.53906Q12.0605-2.53906 12.29-2.76855Q12.5195-2.99805 12.5195-3.36914L12.5195-6.25L15.4004-6.25Q15.7715-6.25 16.001-6.47461Q16.2305-6.69922 16.2305-7.05078Q16.2305-7.42188 16.001-7.65137Q15.7715-7.88086 15.4004-7.88086L12.5195-7.88086L12.5195-10.752Q12.5195-11.1328 12.29-11.3623Q12.0605-11.5918 11.6895-11.5918Q11.3379-11.5918 11.1133-11.3574Q10.8887-11.123 10.8887-10.752L10.8887-7.88086L8.01758-7.88086Q7.63672-7.88086 7.40723-7.65137Q7.17773-7.42188 7.17773-7.05078Z"/>
  </g>
  <g transform="matrix(1 0 0 1 305.646 1933)">
   <path d="M14.9707 5.66406Q17.0605 5.66406 18.96 5.01465Q20.8594 4.36523 22.4512 3.19336Q24.043 2.02148 25.2197 0.429688Q26.3965-1.16211 27.0459-3.06641Q27.6953-4.9707 27.6953-7.05078Q27.6953-9.14062 27.0459-11.04Q26.3965-12.9395 25.2197-14.5312Q24.043-16.123 22.4512-17.2998Q20.8594-18.4766 18.9551-19.126Q17.0508-19.7754 14.9609-19.7754Q12.8711-19.7754 10.9717-19.126Q9.07227-18.4766 7.48535-17.2998Q5.89844-16.123 4.72168-14.5312Q3.54492-12.9395 2.90039-11.04Q2.25586-9.14062 2.25586-7.05078Q2.25586-4.9707 2.90527-3.06641Q3.55469-1.16211 4.72656 0.429688Q5.89844 2.02148 7.49023 3.19336Q9.08203 4.36523 10.9814 5.01465Q12.8809 5.66406 14.9707 5.66406ZM14.9707 3.84766Q13.1641 3.84766 11.5283 3.2959Q9.89258 2.74414 8.53516 1.74805Q7.17773 0.751953 6.17676-0.610352Q5.17578-1.97266 4.62891-3.6084Q4.08203-5.24414 4.08203-7.05078Q4.08203-8.86719 4.62891-10.5029Q5.17578-12.1387 6.17188-13.501Q7.16797-14.8633 8.52539-15.8594Q9.88281-16.8555 11.5186-17.4023Q13.1543-17.9492 14.9609-17.9492Q16.7773-17.9492 18.4131-17.4023Q20.0488-16.8555 21.4111-15.8594Q22.7734-14.8633 23.7744-13.501Q24.7754-12.1387 25.3223-10.5029Q25.8691-8.86719 25.8691-7.05078Q25.8691-5.24414 25.3223-3.6084Q24.7754-1.97266 23.7793-0.610352Q22.7832 0.751953 21.4209 1.74805Q20.0586 2.74414 18.4229 3.2959Q16.7871 3.84766 14.9707 3.84766ZM9.19922-7.05078Q9.19922-6.66992 9.45801-6.4209Q9.7168-6.17188 10.1172-6.17188L14.0625-6.17188L14.0625-2.2168Q14.0625-1.81641 14.3115-1.55762Q14.5605-1.29883 14.9512-1.29883Q15.3516-1.29883 15.6104-1.55273Q15.8691-1.80664 15.8691-2.2168L15.8691-6.17188L19.8242-6.17188Q20.2246-6.17188 20.4785-6.4209Q20.7324-6.66992 20.7324-7.05078Q20.7324-7.46094 20.4785-7.71484Q20.2246-7.96875 19.8242-7.96875L15.8691-7.96875L15.8691-11.9141Q15.8691-12.3242 15.6104-12.583Q15.3516-12.8418 14.9512-12.8418Q14.5605-12.8418 14.3115-12.583Q14.0625-12.3242 14.0625-11.9141L14.0625-7.96875L10.1172-7.96875Q9.70703-7.96875 9.45312-7.71484Q9.19922-7.46094 9.19922-7.05078Z"/>
  </g>
  <text style="stroke:none;fill:black;font-family:sans-serif;font-size:13;font-weight:bold;" transform="matrix(1 0 0 1 263 1953)">Design Variations</text>
  <text style="stroke:none;fill:black;font-family:sans-serif;font-size:13;" transform="matrix(1 0 0 1 263 1971)">Symbols are supported in up to nine weights and three scales.</text>
  <text style="stroke:none;fill:black;font-family:sans-serif;font-size:13;" transform="matrix(1 0 0 1 263 1989)">For optimal layout with text and other symbols, vertically align</text>
  <text style="stroke:none;fill:black;font-family:sans-serif;font-size:13;" transform="matrix(1 0 0 1 263 2007)">symbols with the adjacent text.</text>
  <line style="fill:none;stroke:#00AEEF;stroke-width:0.5;opacity:1.0;" x1="776" x2="776" y1="1919" y2="1933"/>
  <g transform="matrix(1 0 0 1 776 1933)">
   <path d="M3.31055 0.15625Q3.70117 0.15625 3.91602-0.00976562Q4.13086-0.175781 4.26758-0.585938L5.52734-4.0332L11.2891-4.0332L12.5488-0.585938Q12.6855-0.175781 12.9004-0.00976562Q13.1152 0.15625 13.4961 0.15625Q13.8867 0.15625 14.1162-0.0585938Q14.3457-0.273438 14.3457-0.644531Q14.3457-0.869141 14.2383-1.17188L9.6582-13.3691Q9.48242-13.8184 9.17969-14.043Q8.87695-14.2676 8.4082-14.2676Q7.5-14.2676 7.17773-13.3789L2.59766-1.16211Q2.49023-0.859375 2.49023-0.634766Q2.49023-0.263672 2.70996-0.0537109Q2.92969 0.15625 3.31055 0.15625ZM6.00586-5.51758L8.37891-12.0898L8.42773-12.0898L10.8008-5.51758Z"/>
  </g>
  <line style="fill:none;stroke:#00AEEF;stroke-width:0.5;opacity:1.0;" x1="793.197" x2="793.197" y1="1919" y2="1933"/>
  <text style="stroke:none;fill:black;font-family:sans-serif;font-size:13;font-weight:bold;" transform="matrix(1 0 0 1 776 1953)">Margins</text>
  <text style="stroke:none;fill:black;font-family:sans-serif;font-size:13;" transform="matrix(1 0 0 1 776 1971)">Leading and trailing margins on the left and right side of each symbol</text>
  <text style="stroke:none;fill:black;font-family:sans-serif;font-size:13;" transform="matrix(1 0 0 1 776 1989)">can be adjusted by modifying the x-location of the margin guidelines.</text>
  <text style="stroke:none;fill:black;font-family:sans-serif;font-size:13;" transform="matrix(1 0 0 1 776 2007)">Modifications are automatically applied proportionally to all</text>
  <text style="stroke:none;fill:black;font-family:sans-serif;font-size:13;" transform="matrix(1 0 0 1 776 2025)">scales and weights.</text>
  <g transform="matrix(1 0 0 1 1289 1933)">
   <path d="M2.8418 1.86523L4.54102 3.57422Q5.18555 4.22852 5.90332 4.17969Q6.62109 4.13086 7.31445 3.35938L18.0078-8.42773L17.041-9.4043L6.42578 2.27539Q6.16211 2.57812 5.89355 2.61719Q5.625 2.65625 5.27344 2.30469L4.10156 1.14258Q3.75 0.791016 3.79395 0.522461Q3.83789 0.253906 4.14062-0.0195312L15.6152-10.8203L14.6387-11.7871L3.04688-0.898438Q2.30469-0.214844 2.25098 0.498047Q2.19727 1.21094 2.8418 1.86523ZM9.25781-16.3281Q8.94531-16.0254 8.90625-15.6348Q8.86719-15.2441 9.04297-14.9512Q9.21875-14.6777 9.55566-14.541Q9.89258-14.4043 10.3809-14.5215Q11.4746-14.7754 12.5977-14.7314Q13.7207-14.6875 14.7949-13.9844L14.209-12.5293Q13.9551-11.9043 14.0674-11.4404Q14.1797-10.9766 14.5801-10.5664L16.875-8.25195Q17.2363-7.88086 17.5781-7.82227Q17.9199-7.76367 18.3398-7.8418L19.4043-8.03711L20.0684-7.36328L20.0293-6.80664Q20-6.43555 20.1221-6.12305Q20.2441-5.81055 20.6055-5.44922L21.3672-4.70703Q21.7285-4.3457 22.1533-4.33105Q22.5781-4.31641 22.9297-4.66797L25.8398-7.58789Q26.1914-7.93945 26.1816-8.35449Q26.1719-8.76953 25.8105-9.13086L25.0391-9.89258Q24.6875-10.2539 24.3799-10.3857Q24.0723-10.5176 23.7109-10.4883L23.1348-10.4395L22.4902-11.0742L22.7344-12.1973Q22.832-12.6172 22.6953-12.9834Q22.5586-13.3496 22.1191-13.7891L19.9219-15.9766Q18.6719-17.2168 17.2607-17.8369Q15.8496-18.457 14.4189-18.4814Q12.9883-18.5059 11.665-17.959Q10.3418-17.4121 9.25781-16.3281ZM10.752-15.957Q11.6602-16.6211 12.7002-16.9043Q13.7402-17.1875 14.8047-17.085Q15.8691-16.9824 16.8701-16.5137Q17.8711-16.0449 18.7012-15.2051L21.1328-12.793Q21.3086-12.6172 21.3525-12.4512Q21.3965-12.2852 21.3379-12.0312L21.0156-10.5469L22.5195-9.0625L23.5059-9.12109Q23.6914-9.13086 23.7891-9.09668Q23.8867-9.0625 24.0332-8.91602L24.6094-8.33984L22.168-5.89844L21.5918-6.47461Q21.4453-6.62109 21.4062-6.71875Q21.3672-6.81641 21.377-7.01172L21.4453-7.98828L19.9512-9.47266L18.4277-9.21875Q18.1836-9.16992 18.042-9.2041Q17.9004-9.23828 17.7148-9.41406L15.7129-11.416Q15.5176-11.5918 15.4932-11.7529Q15.4688-11.9141 15.5859-12.1875L16.4648-14.2773Q15.293-15.3711 13.8281-15.791Q12.3633-16.2109 10.8398-15.7617Q10.7227-15.7324 10.6885-15.8057Q10.6543-15.8789 10.752-15.957Z"/>
  </g>
  <text style="stroke:none;fill:black;font-family:sans-serif;font-size:13;font-weight:bold;" transform="matrix(1 0 0 1 1289 1953)">Exporting</text>
  <text style="stroke:none;fill:black;font-family:sans-serif;font-size:13;" transform="matrix(1 0 0 1 1289 1971)">Symbols should be outlined when exporting to ensure the</text>
  <text style="stroke:none;fill:black;font-family:sans-serif;font-size:13;" transform="matrix(1 0 0 1 1289 1989)">design is preserved when submitting to Xcode.</text>
  <text id="template-version" style="stroke:none;fill:black;font-family:sans-serif;font-size:13;text-anchor:end;" transform="matrix(1 0 0 1 3036 1933)">Template v.2.0</text>
  <text style="stroke:none;fill:black;font-family:sans-serif;font-size:13;text-anchor:end;" transform="matrix(1 0 0 1 3036 1951)">Requires Xcode 12 or greater</text>
  <text id="descriptive-name" style="stroke:none;fill:black;font-family:sans-serif;font-size:13;text-anchor:end;" transform="matrix(1 0 0 1 3036 1969)">Generated from chair.fill</text>
  <text style="stroke:none;fill:black;font-family:sans-serif;font-size:13;text-anchor:end;" transform="matrix(1 0 0 1 3036 1987)">Typeset at 100 points</text>
  <text style="stroke:none;fill:black;font-family:sans-serif;font-size:13;" transform="matrix(1 0 0 1 263 726)">Small</text>
  <text style="stroke:none;fill:black;font-family:sans-serif;font-size:13;" transform="matrix(1 0 0 1 263 1156)">Medium</text>
  <text style="stroke:none;fill:black;font-family:sans-serif;font-size:13;" transform="matrix(1 0 0 1 263 1586)">Large</text>
 </g>
 <g id="Guides">
  <g id="H-reference" style="fill:#27AAE1;stroke:none;" transform="matrix(1 0 0 1 339 696)">
   <path d="M0.993347 0L3.6377 0L29.3282-67.1326L30.0301-67.1326L30.0301-70.459L28.1227-70.459ZM11.6882-24.4797L46.9818-24.4797L46.2311-26.7288L12.4382-26.7288ZM55.1193 0L57.7637 0L30.6381-70.459L29.4327-70.459L29.4327-67.1326Z"/>
  </g>
  <line id="Baseline-S" style="fill:none;stroke:#27AAE1;opacity:1;stroke-width:0.5;" x1="263" x2="3036" y1="696" y2="696"/>
  <line id="Capline-S" style="fill:none;stroke:#27AAE1;opacity:1;stroke-width:0.5;" x1="263" x2="3036" y1="625.541" y2="625.541"/>
  <g id="H-reference" style="fill:#27AAE1;stroke:none;" transform="matrix(1 0 0 1 339 1126)">
   <path d="M0.993347 0L3.6377 0L29.3282-67.1326L30.0301-67.1326L30.0301-70.459L28.1227-70.459ZM11.6882-24.4797L46.9818-24.4797L46.2311-26.7288L12.4382-26.7288ZM55.1193 0L57.7637 0L30.6381-70.459L29.4327-70.459L29.4327-67.1326Z"/>
  </g>
  <line id="Baseline-M" style="fill:none;stroke:#27AAE1;opacity:1;stroke-width:0.5;" x1="263" x2="3036" y1="1126" y2="1126"/>
  <line id="Capline-M" style="fill:none;stroke:#27AAE1;opacity:1;stroke-width:0.5;" x1="263" x2="3036" y1="1055.54" y2="1055.54"/>
  <g id="H-reference" style="fill:#27AAE1;stroke:none;" transform="matrix(1 0 0 1 339 1556)">
   <path d="M0.993347 0L3.6377 0L29.3282-67.1326L30.0301-67.1326L30.0301-70.459L28.1227-70.459ZM11.6882-24.4797L46.9818-24.4797L46.2311-26.7288L12.4382-26.7288ZM55.1193 0L57.7637 0L30.6381-70.459L29.4327-70.459L29.4327-67.1326Z"/>
  </g>
  <line id="Baseline-L" style="fill:none;stroke:#27AAE1;opacity:1;stroke-width:0.5;" x1="263" x2="3036" y1="1556" y2="1556"/>
  <line id="Capline-L" style="fill:none;stroke:#27AAE1;opacity:1;stroke-width:0.5;" x1="263" x2="3036" y1="1485.54" y2="1485.54"/>
  <line id="left-margin" style="fill:none;stroke:#00AEEF;stroke-width:0.5;opacity:1.0;" x1="1402.09" x2="1402.09" y1="1030.79" y2="1150.12"/>
  <line id="right-margin" style="fill:none;stroke:#00AEEF;stroke-width:0.5;opacity:1.0;" x1="1497.6" x2="1497.6" y1="1030.79" y2="1150.12"/>
 </g>
 <g id="Symbols">
  <g id="Black-L" transform="matrix(1 0 0 1 2866.01 1556)">
   <path d="M38.3878-35.2383L54.0785-35.2383L54.0785-66.4565L38.3878-66.4565ZM80.6925-35.2383L96.3843-35.2383L96.3843-66.4565L80.6925-66.4565ZM32.893 37.8944L34.0867 37.8944Q37.5123 37.8944 39.6996 35.7169Q41.887 33.5394 41.887 30.1126L41.887-16.1093L25.1719-16.1093L25.1719 30.1126Q25.1719 33.5394 27.3196 35.7169Q29.4673 37.8944 32.893 37.8944ZM35.6536 11.9795L99.1185 11.9795L99.1185-1.95264L35.6536-1.95264ZM100.626 37.8944L101.821 37.8944Q105.245 37.8944 107.423 35.7169Q109.6 33.5394 109.6 30.1126L109.6-16.1093L92.9048-16.1093L92.9048 30.1126Q92.9048 33.5394 95.0531 35.7169Q97.2015 37.8944 100.626 37.8944ZM36.2457-56.169L98.5849-56.169Q111.289-56.169 111.289-68.6307L111.289-96.0126Q111.289-108.395 98.5849-108.395L36.2457-108.395Q23.4831-108.395 23.4831-96.0126L23.4831-68.6307Q23.4831-56.169 36.2457-56.169ZM28.7862-7.46414L106.043-7.46414Q118.688-7.46414 118.688-19.8423L118.688-32.3203Q118.688-44.6401 106.043-44.6401L28.7862-44.6401Q16.084-44.6401 16.084-32.3203L16.084-19.8423Q16.084-7.46414 28.7862-7.46414Z"/>
  </g>
  <g id="Heavy-L" transform="matrix(1 0 0 1 2570.81 1556)">
   <path d="M37.3429-35.2707L51.7035-35.2707L51.7035-65.3583L37.3429-65.3583ZM80.0525-35.2707L94.4188-35.2707L94.4188-65.3583L80.0525-65.3583ZM31.6566 36.533L33.0062 36.533Q36.1367 36.533 38.1335 34.5485Q40.1302 32.564 40.1302 29.4279L40.1302-15.5082L24.6073-15.5082L24.6073 29.4279Q24.6073 32.564 26.5667 34.5485Q28.526 36.533 31.6566 36.533ZM34.6358 10.0599L97.1258 10.0599L97.1258-2.67637L34.6358-2.67637ZM98.7053 36.533L100.061 36.533Q103.185 36.533 105.17 34.5485Q107.154 32.564 107.154 29.4279L107.154-15.5082L91.6561-15.5082L91.6561 29.4279Q91.6561 32.564 93.6182 34.5485Q95.5804 36.533 98.7053 36.533ZM35.241-56.2808L96.5653-56.2808Q108.843-56.2808 108.843-68.3119L108.843-95.0961Q108.843-107.052 96.5653-107.052L35.241-107.052Q22.9185-107.052 22.9185-95.0961L22.9185-68.3119Q22.9185-56.2808 35.241-56.2808ZM28.1911-8.17107L103.61-8.17107Q115.678-8.17107 115.678-19.9453L115.678-31.5941Q115.678-43.3236 103.61-43.3236L28.1911-43.3236Q16.084-43.3236 16.084-31.5941L16.084-19.9453Q16.084-8.17107 28.1911-8.17107Z"/>
  </g>
  <g id="Bold-L" transform="matrix(1 0 0 1 2276.05 1556)">
   <path d="M36.1338-35.2346L48.6935-35.2346L48.6935-63.9237L36.1338-63.9237ZM79.1493-35.2346L91.7221-35.2346L91.7221-63.9237L79.1493-63.9237ZM30.1424 34.6861L31.602 34.6861Q34.349 34.6861 36.0964 32.9511Q37.8439 31.216 37.8439 28.4559L37.8439-15.0312L23.9676-15.0312L23.9676 28.4559Q23.9676 31.216 25.6815 32.9511Q27.3954 34.6861 30.1424 34.6861ZM33.2564 7.48427L94.5995 7.48427L94.5995-3.65726L33.2564-3.65726ZM96.2116 34.6861L97.6846 34.6861Q100.418 34.6861 102.153 32.9511Q103.888 31.216 103.888 28.4559L103.888-15.0312L90.037-15.0312L90.037 28.4559Q90.037 31.216 91.7575 32.9511Q93.478 34.6861 96.2116 34.6861ZM34.0931-56.3819L93.7921-56.3819Q105.577-56.3819 105.577-67.9126L105.577-93.7577Q105.577-105.221 93.7921-105.221L34.0931-105.221Q22.2788-105.221 22.2788-93.7577L22.2788-67.9126Q22.2788-56.3819 34.0931-56.3819ZM27.4236-9.24829L100.448-9.24829Q111.772-9.24829 111.772-20.2398L111.772-30.7175Q111.772-41.6797 100.448-41.6797L27.4236-41.6797Q16.084-41.6797 16.084-30.7175L16.084-20.2398Q16.084-9.24829 27.4236-9.24829Z"/>
  </g>
  <g id="Semibold-L" transform="matrix(1 0 0 1 1980.68 1556)">
   <path d="M35.3003-35.2098L46.6184-35.2098L46.6184-62.9347L35.3003-62.9347ZM78.5266-35.2098L89.8631-35.2098L89.8631-62.9347L78.5266-62.9347ZM29.0985 33.4129L30.634 33.4129Q33.1166 33.4129 34.6921 31.8498Q36.2677 30.2867 36.2677 27.7858L36.2677-14.7023L23.5266-14.7023L23.5266 27.7858Q23.5266 30.2867 25.0713 31.8498Q26.6159 33.4129 29.0985 33.4129ZM32.3054 5.70864L92.858 5.70864L92.858-4.33348L32.3054-4.33348ZM94.4924 33.4129L96.0466 33.4129Q98.5105 33.4129 100.074 31.8498Q101.637 30.2867 101.637 27.7858L101.637-14.7023L88.9209-14.7023L88.9209 27.7858Q88.9209 30.2867 90.4747 31.8498Q92.0285 33.4129 94.4924 33.4129ZM33.3017-56.4515L91.8803-56.4515Q103.326-56.4515 103.326-67.6372L103.326-92.835Q103.326-103.959 91.8803-103.959L33.3017-103.959Q21.8378-103.959 21.8378-92.835L21.8378-67.6372Q21.8378-56.4515 33.3017-56.4515ZM26.8945-9.99092L98.2691-9.99092Q109.08-9.99092 109.08-20.4428L109.08-30.1131Q109.08-40.5464 98.2691-40.5464L26.8945-40.5464Q16.084-40.5464 16.084-30.1131L16.084-20.4428Q16.084-9.99092 26.8945-9.99092Z"/>
  </g>
  <g id="Medium-L" transform="matrix(1 0 0 1 1684.99 1556)">
   <path d="M34.6683-35.1909L45.045-35.1909L45.045-62.1848L34.6683-62.1848ZM78.0545-35.1909L88.4534-35.1909L88.4534-62.1848L78.0545-62.1848ZM28.3069 32.4475L29.9001 32.4475Q32.1821 32.4475 33.6273 31.0148Q35.0726 29.582 35.0726 27.2777L35.0726-14.453L23.1922-14.453L23.1922 27.2777Q23.1922 29.582 24.6086 31.0148Q26.0249 32.4475 28.3069 32.4475ZM31.5843 4.36228L91.5374 4.36228L91.5374-4.84622L31.5843-4.84622ZM93.1889 32.4475L94.8047 32.4475Q97.064 32.4475 98.4968 31.0148Q99.9295 29.582 99.9295 27.2777L99.9295-14.453L88.0746-14.453L88.0746 27.2777Q88.0746 29.582 89.502 31.0148Q90.9295 32.4475 93.1889 32.4475ZM32.7016-56.5043L90.4307-56.5043Q101.618-56.5043 101.618-67.4285L101.618-92.1354Q101.618-103.001 90.4307-103.001L32.7016-103.001Q21.5034-103.001 21.5034-92.1354L21.5034-67.4285Q21.5034-56.5043 32.7016-56.5043ZM26.4933-10.554L96.6167-10.554Q107.038-10.554 107.038-20.5967L107.038-29.6549Q107.038-39.6871 96.6167-39.6871L26.4933-39.6871Q16.084-39.6871 16.084-29.6549L16.084-20.5967Q16.084-10.554 26.4933-10.554Z"/>
  </g>
  <g id="Regular-L" transform="matrix(1 0 0 1 1389.61 1556)">
   <path d="M33.8439-35.1663L42.9927-35.1663L42.9927-61.2067L33.8439-61.2067ZM77.4387-35.1663L86.6148-35.1663L86.6148-61.2067L77.4387-61.2067ZM27.2745 31.1883L28.9427 31.1883Q30.9632 31.1883 32.2384 29.9256Q33.5137 28.6629 33.5137 26.615L33.5137-14.1277L22.7561-14.1277L22.7561 26.615Q22.7561 28.6629 24.0051 29.9256Q25.254 31.1883 27.2745 31.1883ZM30.6438 2.60617L89.815 2.60617L89.815-5.515L30.6438-5.515ZM91.4886 31.1883L93.1847 31.1883Q95.1773 31.1883 96.44 29.9256Q97.7027 28.6629 97.7027 26.615L97.7027-14.1277L86.9707-14.1277L86.9707 26.615Q86.9707 28.6629 88.2334 29.9256Q89.496 31.1883 91.4886 31.1883ZM31.9189-56.5732L88.5399-56.5732Q99.3915-56.5732 99.3915-67.1561L99.3915-91.2228Q99.3915-101.753 88.5399-101.753L31.9189-101.753Q21.0673-101.753 21.0673-91.2228L21.0673-67.1561Q21.0673-56.5732 31.9189-56.5732ZM25.97-11.2885L94.4613-11.2885Q104.375-11.2885 104.375-20.7975L104.375-29.0572Q104.375-38.5662 94.4613-38.5662L25.97-38.5662Q16.084-38.5662 16.084-29.0572L16.084-20.7975Q16.084-11.2885 25.97-11.2885Z"/>
  </g>
  <g id="Light-L" transform="matrix(1 0 0 1 1094.82 1556)">
   <path d="M33.5576-34.6511L40.4733-34.6511L40.4733-59.7371L33.5576-59.7371ZM76.1028-34.6511L83.0648-34.6511L83.0648-59.7371L76.1028-59.7371ZM26.3395 28.8789L27.5494 28.8789Q29.1884 28.8789 30.206 27.8548Q31.2236 26.8307 31.2236 25.1454L31.2236-15.521L22.6987-15.521L22.6987 25.1454Q22.6987 26.8307 23.6996 27.8548Q24.7006 28.8789 26.3395 28.8789ZM28.926-0.447437L87.6964-0.447437L87.6964-6.73638L28.926-6.73638ZM89.0267 28.8789L90.2837 28.8789Q91.8755 28.8789 92.8996 27.8548Q93.9238 26.8307 93.9238 25.1454L93.9238-15.521L85.3866-15.521L85.3866 25.1454Q85.3866 26.8307 86.4107 27.8548Q87.4349 28.8789 89.0267 28.8789ZM31.747-56.4013L84.8754-56.4013Q95.6126-56.4013 95.6126-66.8509L95.6126-88.9898Q95.6126-99.4053 84.8754-99.4053L31.747-99.4053Q21.0099-99.4053 21.0099-88.9898L21.0099-66.8509Q21.0099-56.4013 31.747-56.4013ZM25.2447-13.3307L91.3314-13.3307Q100.539-13.3307 100.539-22.0763L100.539-28.5993Q100.539-37.3449 91.3314-37.3449L25.2447-37.3449Q16.084-37.3449 16.084-28.5993L16.084-22.0763Q16.084-13.3307 25.2447-13.3307Z"/>
  </g>
  <g id="Thin-L" transform="matrix(1 0 0 1 800.648 1556)">
   <path d="M33.1789-33.9695L37.1412-33.9695L37.1412-57.7935L33.1789-57.7935ZM74.336-33.9695L78.3697-33.9695L78.3697-57.7935L74.336-57.7935ZM25.1028 25.8246L25.7068 25.8246Q26.841 25.8246 27.5178 25.116Q28.1947 24.4074 28.1947 23.2018L28.1947-17.3637L22.6228-17.3637L22.6228 23.2018Q22.6228 24.4074 23.2957 25.116Q23.9686 25.8246 25.1028 25.8246ZM26.6542-4.48607L84.8944-4.48607L84.8944-8.35175L26.6542-8.35175ZM85.7705 25.8246L86.447 25.8246Q87.5086 25.8246 88.2172 25.116Q88.9258 24.4074 88.9258 23.2018L88.9258-17.3637L83.2916-17.3637L83.2916 23.2018Q83.2916 24.4074 84.0002 25.116Q84.7088 25.8246 85.7705 25.8246ZM31.5197-56.174L80.0289-56.174Q90.6146-56.174 90.6146-66.4471L90.6146-86.0364Q90.6146-96.3005 80.0289-96.3005L31.5197-96.3005Q20.934-96.3005 20.934-86.0364L20.934-66.4471Q20.934-56.174 31.5197-56.174ZM24.2854-16.0318L87.1918-16.0318Q95.4658-16.0318 95.4658-23.7676L95.4658-27.9937Q95.4658-35.7295 87.1918-35.7295L24.2854-35.7295Q16.084-35.7295 16.084-27.9937L16.084-23.7676Q16.084-16.0318 24.2854-16.0318Z"/>
  </g>
  <g id="Ultralight-L" transform="matrix(1 0 0 1 505.236 1556)">
   <path d="M32.9849-33.6205L35.4345-33.6205L35.4345-56.798L32.9849-56.798ZM73.4311-33.6205L75.9649-33.6205L75.9649-56.798L73.4311-56.798ZM24.4694 24.2602L24.763 24.2602Q25.6387 24.2602 26.141 23.7132Q26.6433 23.1662 26.6433 22.2063L26.6433-18.3075L22.5839-18.3075L22.5839 22.2063Q22.5839 23.1662 23.0888 23.7132Q23.5937 24.2602 24.4694 24.2602ZM25.4905-6.55465L83.4592-6.55465L83.4592-9.17914L25.4905-9.17914ZM84.1027 24.2602L84.4818 24.2602Q85.2719 24.2602 85.8189 23.7132Q86.3659 23.1662 86.3659 22.2063L86.3659-18.3075L82.2185-18.3075L82.2185 22.2063Q82.2185 23.1662 82.7655 23.7132Q83.3125 24.2602 84.1027 24.2602ZM31.4033-56.0576L77.5465-56.0576Q88.0547-56.0576 88.0547-66.2404L88.0547-84.5237Q88.0547-94.7102 77.5465-94.7102L31.4033-94.7102Q20.8951-94.7102 20.8951-84.5237L20.8951-66.2404Q20.8951-56.0576 31.4033-56.0576ZM23.7941-17.4153L85.0716-17.4153Q92.8672-17.4153 92.8672-24.6339L92.8672-27.6835Q92.8672-34.9021 85.0716-34.9021L23.7941-34.9021Q16.084-34.9021 16.084-27.6835L16.084-24.6339Q16.084-17.4153 23.7941-17.4153Z"/>
  </g>
  <g id="Black-M" transform="matrix(1 0 0 1 2880.16 1126)">
   <path d="M30.5999-35.1387L43.5966-35.1387L43.5966-60.1671L30.5999-60.1671ZM62.8849-35.1387L75.8813-35.1387L75.8813-60.1671L62.8849-60.1671ZM26.4195 22.2799L27.1483 22.2799Q30.0041 22.2799 31.8276 20.4593Q33.6511 18.6387 33.6511 15.7831L33.6511-21.1217L19.9792-21.1217L19.9792 15.7831Q19.9792 18.6387 21.7714 20.4593Q23.5636 22.2799 26.4195 22.2799ZM28.2643 2.58139L78.2168 2.58139L78.2168-8.99201L28.2643-8.99201ZM79.2761 22.2799L80.0046 22.2799Q82.8608 22.2799 84.6813 20.4593Q86.5019 18.6387 86.5019 15.7831L86.5019-21.1217L72.8359-21.1217L72.8359 15.7831Q72.8359 18.6387 74.6279 20.4593Q76.42 22.2799 79.2761 22.2799ZM28.9212-51.3328L77.6171-51.3328Q87.8103-51.3328 87.8103-61.3394L87.8103-82.8058Q87.8103-92.7498 77.6171-92.7498L28.9212-92.7498Q18.6708-92.7498 18.6708-82.8058L18.6708-61.3394Q18.6708-51.3328 28.9212-51.3328ZM22.7151-13.3876L83.8234-13.3876Q94.0202-13.3876 94.0202-23.3932L94.0202-33.5377Q94.0202-43.4862 83.8234-43.4862L22.7151-43.4862Q12.4609-43.4862 12.4609-33.5377L12.4609-23.3932Q12.4609-13.3876 22.7151-13.3876Z"/>
  </g>
  <g id="Heavy-M" transform="matrix(1 0 0 1 2584.74 1126)">
   <path d="M29.6048-35.2179L41.5074-35.2179L41.5074-59.2291L29.6048-59.2291ZM62.3825-35.2179L74.2873-35.2179L74.2873-59.2291L62.3825-59.2291ZM25.2971 21.162L26.2205 21.162Q28.8231 21.162 30.4841 19.5081Q32.145 17.8542 32.145 15.2493L32.145-20.4055L19.4326-20.4055L19.4326 15.2493Q19.4326 17.8542 21.0635 19.5081Q22.6945 21.162 25.2971 21.162ZM27.4279 0.986522L76.4643 0.986522L76.4643-9.58683L27.4279-9.58683ZM77.6257 21.162L78.5515 21.162Q81.1518 21.162 82.8057 19.5081Q84.4596 17.8542 84.4596 15.2493L84.4596-20.4055L71.7613-20.4055L71.7613 15.2493Q71.7613 17.8542 73.3933 19.5081Q75.0254 21.162 77.6257 21.162ZM27.9549-51.458L75.9808-51.458Q85.768-51.458 85.768-61.0559L85.768-82.1159Q85.768-91.6538 75.9808-91.6538L27.9549-91.6538Q18.1242-91.6538 18.1242-82.1159L18.1242-61.0559Q18.1242-51.458 27.9549-51.458ZM22.2002-13.8903L81.7333-13.8903Q91.4312-13.8903 91.4312-23.3758L91.4312-32.87Q91.4312-42.3119 81.7333-42.3119L22.2002-42.3119Q12.4609-42.3119 12.4609-32.87L12.4609-23.3758Q12.4609-13.8903 22.2002-13.8903Z"/>
  </g>
  <g id="Bold-M" transform="matrix(1 0 0 1 2289.48 1126)">
   <path d="M28.4917-35.3064L39.1703-35.3064L39.1703-58.1798L28.4917-58.1798ZM61.8205-35.3064L72.5042-35.3064L72.5042-58.1798L61.8205-58.1798ZM24.0415 19.9115L25.1827 19.9115Q27.502 19.9115 28.9811 18.4441Q30.4603 16.9767 30.4603 14.6523L30.4603-19.6044L18.821-19.6044L18.821 14.6523Q18.821 16.9767 20.2716 18.4441Q21.7222 19.9115 24.0415 19.9115ZM26.4921-0.797567L74.5038-0.797567L74.5038-10.2522L26.4921-10.2522ZM75.7796 19.9115L76.9259 19.9115Q79.2401 19.9115 80.7075 18.4441Q82.1749 16.9767 82.1749 14.6523L82.1749-19.6044L70.5592-19.6044L70.5592 14.6523Q70.5592 16.9767 72.0123 18.4441Q73.4654 19.9115 75.7796 19.9115ZM26.874-51.598L74.1504-51.598Q83.4833-51.598 83.4833-60.7389L83.4833-81.3441Q83.4833-90.4277 74.1504-90.4277L26.874-90.4277Q17.5126-90.4277 17.5126-81.3441L17.5126-60.7389Q17.5126-51.598 26.874-51.598ZM21.6243-14.4526L79.3951-14.4526Q88.535-14.4526 88.535-23.3565L88.535-32.1231Q88.535-40.9984 79.3951-40.9984L21.6243-40.9984Q12.4609-40.9984 12.4609-32.1231L12.4609-23.3565Q12.4609-14.4526 21.6243-14.4526Z"/>
  </g>
  <g id="Semibold-M" transform="matrix(1 0 0 1 1993.77 1126)">
   <path d="M27.7243-35.3675L37.5591-35.3675L37.5591-57.4564L27.7243-57.4564ZM61.4331-35.3675L71.2749-35.3675L71.2749-57.4564L61.4331-57.4564ZM23.1759 19.0494L24.4672 19.0494Q26.5912 19.0494 27.945 17.7106Q29.2988 16.3717 29.2988 14.2407L29.2988-19.0521L18.3994-19.0521L18.3994 14.2407Q18.3994 16.3717 19.7257 17.7106Q21.0519 19.0494 23.1759 19.0494ZM25.847-2.02751L73.1522-2.02751L73.1522-10.7109L25.847-10.7109ZM74.5068 19.0494L75.8053 19.0494Q77.9221 19.0494 79.261 17.7106Q80.5998 16.3717 80.5998 14.2407L80.5998-19.0521L69.7305-19.0521L69.7305 14.2407Q69.7305 16.3717 71.0602 17.7106Q72.39 19.0494 74.5068 19.0494ZM26.1288-51.6946L72.8885-51.6946Q81.9082-51.6946 81.9082-60.5203L81.9082-80.812Q81.9082-89.5825 72.8885-89.5825L26.1288-89.5825Q17.091-89.5825 17.091-80.812L17.091-60.5203Q17.091-51.6946 26.1288-51.6946ZM21.2272-14.8403L77.7832-14.8403Q86.5384-14.8403 86.5384-23.3431L86.5384-31.6082Q86.5384-40.0928 77.7832-40.0928L21.2272-40.0928Q12.4609-40.0928 12.4609-31.6082L12.4609-23.3431Q12.4609-14.8403 21.2272-14.8403Z"/>
  </g>
  <g id="Medium-M" transform="matrix(1 0 0 1 1697.81 1126)">
   <path d="M27.1424-35.4138L36.3374-35.4138L36.3374-56.908L27.1424-56.908ZM61.1394-35.4138L70.3428-35.4138L70.3428-56.908L61.1394-56.908ZM22.5196 18.3957L23.9247 18.3957Q25.9006 18.3957 27.1594 17.1544Q28.4182 15.913 28.4182 13.9286L28.4182-18.6334L18.0798-18.6334L18.0798 13.9286Q18.0798 15.913 19.3117 17.1544Q20.5437 18.3957 22.5196 18.3957ZM25.3579-2.9601L72.1274-2.9601L72.1274-11.0588L25.3579-11.0588ZM73.5418 18.3957L74.9555 18.3957Q76.9228 18.3957 78.1642 17.1544Q79.4055 15.913 79.4055 13.9286L79.4055-18.6334L69.1021-18.6334L69.1021 13.9286Q69.1021 15.913 70.3383 17.1544Q71.5745 18.3957 73.5418 18.3957ZM25.5638-51.7678L71.9317-51.7678Q80.7139-51.7678 80.7139-60.3546L80.7139-80.4086Q80.7139-88.9416 71.9317-88.9416L25.5638-88.9416Q16.7714-88.9416 16.7714-80.4086L16.7714-60.3546Q16.7714-51.7678 25.5638-51.7678ZM20.9261-15.1342L76.5609-15.1342Q85.0245-15.1342 85.0245-23.333L85.0245-31.2177Q85.0245-39.4062 76.5609-39.4062L20.9261-39.4062Q12.4609-39.4062 12.4609-31.2177L12.4609-23.333Q12.4609-15.1342 20.9261-15.1342Z"/>
  </g>
  <g id="Regular-M" transform="matrix(1 0 0 1 1402.09 1126)">
   <path d="M26.3835-35.4742L34.7439-35.4742L34.7439-56.1926L26.3835-56.1926ZM60.7562-35.4742L69.1271-35.4742L69.1271-56.1926L60.7562-56.1926ZM21.6635 17.5431L23.2171 17.5431Q24.9999 17.5431 26.1347 16.4289Q27.2695 15.3147 27.2695 13.5215L27.2695-18.0871L17.6628-18.0871L17.6628 13.5215Q17.6628 15.3147 18.7718 16.4289Q19.8808 17.5431 21.6635 17.5431ZM24.7199-4.17652L70.7907-4.17652L70.7907-11.5124L24.7199-11.5124ZM72.2831 17.5431L73.8472 17.5431Q75.6194 17.5431 76.7336 16.4289Q77.8478 15.3147 77.8478 13.5215L77.8478-18.0871L68.2825-18.0871L68.2825 13.5215Q68.2825 15.3147 69.3967 16.4289Q70.5109 17.5431 72.2831 17.5431ZM24.8269-51.8633L70.6837-51.8633Q79.1562-51.8633 79.1562-60.1384L79.1562-79.8824Q79.1562-88.1056 70.6837-88.1056L24.8269-88.1056Q16.3544-88.1056 16.3544-79.8824L16.3544-60.1384Q16.3544-51.8633 24.8269-51.8633ZM20.5334-15.5176L74.9667-15.5176Q83.0498-15.5176 83.0498-23.3197L83.0498-30.7085Q83.0498-38.5106 74.9667-38.5106L20.5334-38.5106Q12.4609-38.5106 12.4609-30.7085L12.4609-23.3197Q12.4609-15.5176 20.5334-15.5176Z"/>
  </g>
  <g id="Light-M" transform="matrix(1 0 0 1 1107.1 1126)">
   <path d="M26.1268-35.0122L32.4851-35.0122L32.4851-54.875L26.1268-54.875ZM59.5586-35.0122L65.9444-35.0122L65.9444-54.875L59.5586-54.875ZM20.8252 15.4727L21.9679 15.4727Q23.4086 15.4727 24.3125 14.5723Q25.2163 13.672 25.2163 12.2039L25.2163-19.3363L17.6113-19.3363L17.6113 12.2039Q17.6113 13.672 18.4979 14.5723Q19.3846 15.4727 20.8252 15.4727ZM23.1798-6.91424L68.8913-6.91424L68.8913-12.6075L23.1798-12.6075ZM70.0758 15.4727L71.2463 15.4727Q72.6591 15.4727 73.5595 14.5723Q74.4598 13.672 74.4598 12.2039L74.4598-19.3363L66.8623-19.3363L66.8623 12.2039Q66.8623 13.672 67.7626 14.5723Q68.6629 15.4727 70.0758 15.4727ZM24.6728-51.7092L67.3984-51.7092Q75.7682-51.7092 75.7682-59.8647L75.7682-77.8803Q75.7682-86.0009 67.3984-86.0009L24.6728-86.0009Q16.3029-86.0009 16.3029-77.8803L16.3029-59.8647Q16.3029-51.7092 24.6728-51.7092ZM19.8831-17.3486L72.1606-17.3486Q79.6106-17.3486 79.6106-24.4662L79.6106-30.298Q79.6106-37.4156 72.1606-37.4156L19.8831-37.4156Q12.4609-37.4156 12.4609-30.298L12.4609-24.4662Q12.4609-17.3486 19.8831-17.3486Z"/>
  </g>
  <g id="Thin-M" transform="matrix(1 0 0 1 812.661 1126)">
   <path d="M25.7872-34.4012L29.4977-34.4012L29.4977-53.1325L25.7872-53.1325ZM57.9746-34.4012L61.7349-34.4012L61.7349-53.1325L57.9746-53.1325ZM19.7165 12.7343L20.3159 12.7343Q21.3041 12.7343 21.9024 12.1169Q22.5007 11.4994 22.5007 10.4614L22.5007-20.9883L17.5433-20.9883L17.5433 10.4614Q17.5433 11.4994 18.1358 12.1169Q18.7283 12.7343 19.7165 12.7343ZM21.143-10.5351L66.3792-10.5351L66.3792-14.0557L21.143-14.0557ZM67.1564 12.7343L67.8065 12.7343Q68.744 12.7343 69.3614 12.1169Q69.9789 11.4994 69.9789 10.4614L69.9789-20.9883L64.984-20.9883L64.984 10.4614Q64.984 11.4994 65.6015 12.1169Q66.2189 12.7343 67.1564 12.7343ZM24.469-51.5054L63.0532-51.5054Q71.2873-51.5054 71.2873-59.5027L71.2873-75.2325Q71.2873-83.2173 63.0532-83.2173L24.469-83.2173Q16.2349-83.2173 16.2349-75.2325L16.2349-59.5027Q16.2349-51.5054 24.469-51.5054ZM19.023-19.7702L68.4493-19.7702Q75.0621-19.7702 75.0621-25.9826L75.0621-29.755Q75.0621-35.9673 68.4493-35.9673L19.023-35.9673Q12.4609-35.9673 12.4609-29.755L12.4609-25.9826Q12.4609-19.7702 19.023-19.7702Z"/>
  </g>
  <g id="Ultralight-M" transform="matrix(1 0 0 1 517.115 1126)">
   <path d="M25.6133-34.0882L27.9676-34.0882L27.9676-52.2399L25.6133-52.2399ZM57.1632-34.0882L59.5789-34.0882L59.5789-52.2399L57.1632-52.2399ZM19.1486 11.3317L19.4697 11.3317Q20.2262 11.3317 20.668 10.8592Q21.1098 10.3867 21.1098 9.56883L21.1098-21.8345L17.5084-21.8345L17.5084 9.56883Q17.5084 10.3867 17.9503 10.8592Q18.3922 11.3317 19.1486 11.3317ZM20.0997-12.3897L65.0925-12.3897L65.0925-14.7975L20.0997-14.7975ZM65.6611 11.3317L66.0446 11.3317Q66.7387 11.3317 67.2112 10.8592Q67.6838 10.3867 67.6838 9.56883L67.6838-21.8345L64.022-21.8345L64.022 9.56883Q64.022 10.3867 64.4945 10.8592Q64.967 11.3317 65.6611 11.3317ZM24.3646-51.401L60.8276-51.401Q68.9922-51.401 68.9922-59.3173L68.9922-73.8763Q68.9922-81.7916 60.8276-81.7916L24.3646-81.7916Q16.2-81.7916 16.2-73.8763L16.2-59.3173Q16.2-51.401 24.3646-51.401ZM18.5825-21.0106L66.5483-21.0106Q72.7323-21.0106 72.7323-26.7592L72.7323-29.4769Q72.7323-35.2255 66.5483-35.2255L18.5825-35.2255Q12.4609-35.2255 12.4609-29.4769L12.4609-26.7592Q12.4609-21.0106 18.5825-21.0106Z"/>
  </g>
  <g id="Black-S" transform="matrix(1 0 0 1 2891.38 696)">
   <path d="M24.2676-35.1074L34.668-35.1074L34.668-54.9805L24.2676-54.9805ZM49.3652-35.1074L59.7656-35.1074L59.7656-54.9805L49.3652-54.9805ZM20.9961 10.0586L21.4844 10.0586Q23.7793 10.0586 25.2441 8.59375Q26.709 7.12891 26.709 4.83398L26.709-24.4629L15.8203-24.4629L15.8203 4.83398Q15.8203 7.12891 17.2607 8.59375Q18.7012 10.0586 20.9961 10.0586ZM22.3145-5.27344L61.7188-5.27344L61.7188-14.5508L22.3145-14.5508ZM62.5 10.0586L62.9883 10.0586Q65.2832 10.0586 66.748 8.59375Q68.2129 7.12891 68.2129 4.83398L68.2129-24.4629L57.3242-24.4629L57.3242 4.83398Q57.3242 7.12891 58.7646 8.59375Q60.2051 10.0586 62.5 10.0586ZM22.9492-47.8027L61.1328-47.8027Q69.2383-47.8027 69.2383-55.7617L69.2383-72.6074Q69.2383-80.5176 61.1328-80.5176L22.9492-80.5176Q14.7949-80.5176 14.7949-72.6074L14.7949-55.7617Q14.7949-47.8027 22.9492-47.8027ZM17.9199-18.0664L66.1621-18.0664Q74.2676-18.0664 74.2676-26.0254L74.2676-34.082Q74.2676-41.9922 66.1621-41.9922L17.9199-41.9922Q9.76562-41.9922 9.76562-34.082L9.76562-26.0254Q9.76562-18.0664 17.9199-18.0664Z"/>
  </g>
  <g id="Heavy-S" transform="matrix(1 0 0 1 2595.56 696)">
   <path d="M23.4493-35.2342L33.1698-35.2342L33.1698-54.3466L23.4493-54.3466ZM49.0886-35.2342L58.8091-35.2342L58.8091-54.3466L49.0886-54.3466ZM20.1433 9.36713L20.8505 9.36713Q22.9726 9.36713 24.3279 8.01753Q25.6833 6.66793 25.6833 4.54587L25.6833-23.6908L15.3593-23.6908L15.3593 4.54587Q15.3593 6.66793 16.6903 8.01753Q18.0212 9.36713 20.1433 9.36713ZM21.7959-6.28759L60.4626-6.28759L60.4626-14.9196L21.7959-14.9196ZM61.3706 9.36713L62.0778 9.36713Q64.1999 9.36713 65.5495 8.01753Q66.8991 6.66793 66.8991 4.54587L66.8991-23.6908L56.5867-23.6908L56.5867 4.54587Q56.5867 6.66793 57.9176 8.01753Q59.2485 9.36713 61.3706 9.36713ZM22.1425-47.9295L60.1532-47.9295Q67.9245-47.9295 67.9245-55.5543L67.9245-72.2732Q67.9245-79.8492 60.1532-79.8492L22.1425-79.8492Q14.3339-79.8492 14.3339-72.2732L14.3339-55.5543Q14.3339-47.9295 22.1425-47.9295ZM17.5627-18.2623L64.7331-18.2623Q72.4928-18.2623 72.4928-25.864L72.4928-33.5634Q72.4928-41.1279 64.7331-41.1279L17.5627-41.1279Q9.76562-41.1279 9.76562-33.5634L9.76562-25.864Q9.76562-18.2623 17.5627-18.2623Z"/>
  </g>
  <g id="Bold-S" transform="matrix(1 0 0 1 2299.84 696)">
   <path d="M22.5342-35.376L31.4941-35.376L31.4941-53.6377L22.5342-53.6377ZM48.7793-35.376L57.7393-35.376L57.7393-53.6377L48.7793-53.6377ZM19.1895 8.59375L20.1416 8.59375Q22.0703 8.59375 23.3032 7.37305Q24.5361 6.15234 24.5361 4.22363L24.5361-22.8271L14.8438-22.8271L14.8438 4.22363Q14.8438 6.15234 16.0522 7.37305Q17.2607 8.59375 19.1895 8.59375ZM21.2158-7.42188L59.0576-7.42188L59.0576-15.332L21.2158-15.332ZM60.1074 8.59375L61.0596 8.59375Q62.9883 8.59375 64.209 7.37305Q65.4297 6.15234 65.4297 4.22363L65.4297-22.8271L55.7617-22.8271L55.7617 4.22363Q55.7617 6.15234 56.9702 7.37305Q58.1787 8.59375 60.1074 8.59375ZM21.2402-48.0713L59.0576-48.0713Q66.4551-48.0713 66.4551-55.3223L66.4551-71.8994Q66.4551-79.1016 59.0576-79.1016L21.2402-79.1016Q13.8184-79.1016 13.8184-71.8994L13.8184-55.3223Q13.8184-48.0713 21.2402-48.0713ZM17.1631-18.4814L63.1348-18.4814Q70.5078-18.4814 70.5078-25.6836L70.5078-32.9834Q70.5078-40.1611 63.1348-40.1611L17.1631-40.1611Q9.76562-40.1611 9.76562-32.9834L9.76562-25.6836Q9.76562-18.4814 17.1631-18.4814Z"/>
  </g>
  <g id="Semibold-S" transform="matrix(1 0 0 1 2003.81 696)">
   <path d="M21.9032-35.4737L30.3389-35.4737L30.3389-53.1489L21.9032-53.1489ZM48.566-35.4737L57.0017-35.4737L57.0017-53.1489L48.566-53.1489ZM18.5318 8.06055L19.6528 8.06055Q21.4482 8.06055 22.5967 6.92871Q23.7452 5.79688 23.7452 4.00146L23.7452-22.2317L14.4883-22.2317L14.4883 4.00146Q14.4883 5.79688 15.6124 6.92871Q16.7364 8.06055 18.5318 8.06055ZM20.8159-8.20391L58.089-8.20391L58.089-15.6164L20.8159-15.6164ZM59.2365 8.06055L60.3575 8.06055Q62.1529 8.06055 63.2848 6.92871Q64.4166 5.79688 64.4166 4.00146L64.4166-22.2317L55.193-22.2317L55.193 4.00146Q55.193 5.79688 56.317 6.92871Q57.4411 8.06055 59.2365 8.06055ZM20.6182-48.169L58.3022-48.169Q65.442-48.169 65.442-55.1623L65.442-71.6417Q65.442-78.5861 58.3022-78.5861L20.6182-78.5861Q13.4629-78.5861 13.4629-71.6417L13.4629-55.1623Q13.4629-48.169 20.6182-48.169ZM16.8876-18.6325L62.0328-18.6325Q69.1393-18.6325 69.1393-25.5592L69.1393-32.5835Q69.1393-39.4946 62.0328-39.4946L16.8876-39.4946Q9.76562-39.4946 9.76562-32.5835L9.76562-25.5592Q9.76562-18.6325 16.8876-18.6325Z"/>
  </g>
  <g id="Medium-S" transform="matrix(1 0 0 1 1707.62 696)">
   <path d="M21.4248-35.5479L29.4629-35.5479L29.4629-52.7783L21.4248-52.7783ZM48.4043-35.5479L56.4424-35.5479L56.4424-52.7783L48.4043-52.7783ZM18.0332 7.65625L19.2822 7.65625Q20.9766 7.65625 22.061 6.5918Q23.1455 5.52734 23.1455 3.83301L23.1455-21.7803L14.2188-21.7803L14.2188 3.83301Q14.2188 5.52734 15.2788 6.5918Q16.3389 7.65625 18.0332 7.65625ZM20.5127-8.79688L57.3545-8.79688L57.3545-15.832L20.5127-15.832ZM58.5762 7.65625L59.8252 7.65625Q61.5195 7.65625 62.584 6.5918Q63.6484 5.52734 63.6484 3.83301L63.6484-21.7803L54.7617-21.7803L54.7617 3.83301Q54.7617 5.52734 55.8218 6.5918Q56.8818 7.65625 58.5762 7.65625ZM20.1465-48.2432L57.7295-48.2432Q64.6738-48.2432 64.6738-55.041L64.6738-71.4463Q64.6738-78.1953 57.7295-78.1953L20.1465-78.1953Q13.1934-78.1953 13.1934-71.4463L13.1934-55.041Q13.1934-48.2432 20.1465-48.2432ZM16.6787-18.7471L61.1973-18.7471Q68.1016-18.7471 68.1016-25.4648L68.1016-32.2803Q68.1016-38.9893 61.1973-38.9893L16.6787-38.9893Q9.76562-38.9893 9.76562-32.2803L9.76562-25.4648Q9.76562-18.7471 16.6787-18.7471Z"/>
  </g>
  <g id="Regular-S" transform="matrix(1 0 0 1 1411.59 696)">
   <path d="M20.8008-35.6445L28.3203-35.6445L28.3203-52.2949L20.8008-52.2949ZM48.1934-35.6445L55.7129-35.6445L55.7129-52.2949L48.1934-52.2949ZM17.3828 7.12891L18.7988 7.12891Q20.3613 7.12891 21.3623 6.15234Q22.3633 5.17578 22.3633 3.61328L22.3633-21.1914L13.8672-21.1914L13.8672 3.61328Q13.8672 5.17578 14.8438 6.15234Q15.8203 7.12891 17.3828 7.12891ZM20.1172-9.57031L56.3965-9.57031L56.3965-16.1133L20.1172-16.1133ZM57.7148 7.12891L59.1309 7.12891Q60.6934 7.12891 61.6699 6.15234Q62.6465 5.17578 62.6465 3.61328L62.6465-21.1914L54.1992-21.1914L54.1992 3.61328Q54.1992 5.17578 55.1758 6.15234Q56.1523 7.12891 57.7148 7.12891ZM19.5312-48.3398L56.9824-48.3398Q63.6719-48.3398 63.6719-54.8828L63.6719-71.1914Q63.6719-77.6855 56.9824-77.6855L19.5312-77.6855Q12.8418-77.6855 12.8418-71.1914L12.8418-54.8828Q12.8418-48.3398 19.5312-48.3398ZM16.4062-18.8965L60.1074-18.8965Q66.748-18.8965 66.748-25.3418L66.748-31.8848Q66.748-38.3301 60.1074-38.3301L16.4062-38.3301Q9.76562-38.3301 9.76562-31.8848L9.76562-25.3418Q9.76562-18.8965 16.4062-18.8965Z"/>
  </g>
  <g id="Light-S" transform="matrix(1 0 0 1 1116.4 696)">
   <path d="M20.5737-35.2359L26.3222-35.2359L26.3222-51.1294L20.5737-51.1294ZM47.1339-35.2359L52.8974-35.2359L52.8974-51.1294L47.1339-51.1294ZM16.6412 5.29734L17.6938 5.29734Q18.9537 5.29734 19.7503 4.50999Q20.547 3.72264 20.547 2.44776L20.547-22.2964L13.8217-22.2964L13.8217 2.44776Q13.8217 3.72264 14.6015 4.50999Q15.3814 5.29734 16.6412 5.29734ZM18.7548-11.9921L54.7162-11.9921L54.7162-17.082L18.7548-17.082ZM55.7622 5.29734L56.8301 5.29734Q58.0747 5.29734 58.8621 4.50999Q59.6494 3.72264 59.6494 2.44776L59.6494-22.2964L52.9429-22.2964L52.9429 2.44776Q52.9429 3.72264 53.7303 4.50999Q54.5176 5.29734 55.7622 5.29734ZM19.3949-48.2035L54.0761-48.2035Q60.6748-48.2035 60.6748-54.6407L60.6748-69.4204Q60.6748-75.8237 54.0761-75.8237L19.3949-75.8237Q12.7963-75.8237 12.7963-69.4204L12.7963-54.6407Q12.7963-48.2035 19.3949-48.2035ZM15.831-20.5162L57.6251-20.5162Q63.7057-20.5162 63.7057-26.356L63.7057-31.5216Q63.7057-37.3614 57.6251-37.3614L15.831-37.3614Q9.76562-37.3614 9.76562-31.5216L9.76562-26.356Q9.76562-20.5162 15.831-20.5162Z"/>
  </g>
  <g id="Thin-S" transform="matrix(1 0 0 1 821.699 696)">
   <path d="M20.2733-34.6953L23.6795-34.6953L23.6795-49.5879L20.2733-49.5879ZM45.7327-34.6953L49.1737-34.6953L49.1737-49.5879L45.7327-49.5879ZM15.6604 2.87495L16.2324 2.87495Q17.092 2.87495 17.6184 2.33784Q18.1448 1.80073 18.1448 0.906274L18.1448-23.7578L13.7615-23.7578L13.7615 0.906274Q13.7615 1.80073 14.2811 2.33784Q14.8008 2.87495 15.6604 2.87495ZM16.953-15.1952L52.494-15.1952L52.494-18.3631L16.953-18.3631ZM53.1797 2.87495L53.7871 2.87495Q54.6113 2.87495 55.1484 2.33784Q55.6855 1.80073 55.6855 0.906274L55.6855-23.7578L51.2813-23.7578L51.2813 0.906274Q51.2813 1.80073 51.8185 2.33784Q52.3556 2.87495 53.1797 2.87495ZM19.2147-48.0232L50.2323-48.0232Q56.7109-48.0232 56.7109-54.3205L56.7109-67.078Q56.7109-73.3613 50.2323-73.3613L19.2147-73.3613Q12.7361-73.3613 12.7361-67.078L12.7361-54.3205Q12.7361-48.0232 19.2147-48.0232ZM15.0702-22.6584L54.342-22.6584Q59.6819-22.6584 59.6819-27.6974L59.6819-31.0413Q59.6819-36.0802 54.342-36.0802L15.0702-36.0802Q9.76562-36.0802 9.76562-31.0413L9.76562-27.6974Q9.76562-22.6584 15.0702-22.6584Z"/>
  </g>
  <g id="Ultralight-S" transform="matrix(1 0 0 1 526.018 696)">
   <path d="M20.1195-34.4185L22.3259-34.4185L22.3259-48.7984L20.1195-48.7984ZM45.015-34.4185L47.2664-34.4185L47.2664-48.7984L45.015-48.7984ZM15.1581 1.63422L15.4839 1.63422Q16.1385 1.63422 16.5264 1.22528Q16.9144 0.816345 16.9144 0.11673L16.9144-24.5064L13.7306-24.5064L13.7306 0.11673Q13.7306 0.816345 14.1171 1.22528Q14.5035 1.63422 15.1581 1.63422ZM16.0301-16.8358L51.3557-16.8358L51.3557-19.0193L16.0301-19.0193ZM51.857 1.63422L52.2285 1.63422Q52.8374 1.63422 53.2463 1.22528Q53.6552 0.816345 53.6552 0.11673L53.6552-24.5064L50.4303-24.5064L50.4303 0.11673Q50.4303 0.816345 50.8392 1.22528Q51.2482 1.63422 51.857 1.63422ZM19.1223-47.9309L48.2635-47.9309Q54.6806-47.9309 54.6806-54.1565L54.6806-65.8783Q54.6806-72.1001 48.2635-72.1001L19.1223-72.1001Q12.7052-72.1001 12.7052-65.8783L12.7052-54.1565Q12.7052-47.9309 19.1223-47.9309ZM14.6805-23.7556L52.6604-23.7556Q57.621-23.7556 57.621-28.3844L57.621-30.7953Q57.621-35.424 52.6604-35.424L14.6805-35.424Q9.76562-35.424 9.76562-30.7953L9.76562-28.3844Q9.76562-23.7556 14.6805-23.7556Z"/>
  </g>
 </g>
</svg>
