<?xml version="1.0" encoding="UTF-8"?>
<!--Generator: Apple Native CoreSVG 175.5-->
<!DOCTYPE svg
PUBLIC "-//W3C//DTD SVG 1.1//EN"
       "http://www.w3.org/Graphics/SVG/1.1/DTD/svg11.dtd">
<svg version="1.1" xmlns="http://www.w3.org/2000/svg" xmlns:xlink="http://www.w3.org/1999/xlink" width="3300" height="2200">
 <!--glyph: "", point size: 100.0, font version: "18.0d9e1", template writer version: "84"-->
 <g id="Notes">
  <rect height="2200" id="artboard" style="fill:white;opacity:1" width="3300" x="0" y="0"/>
  <line style="fill:none;stroke:black;opacity:1;stroke-width:0.5;" x1="263" x2="3036" y1="292" y2="292"/>
  <text style="stroke:none;fill:black;font-family:sans-serif;font-size:13;font-weight:bold;" transform="matrix(1 0 0 1 263 322)">Weight/Scale Variations</text>
  <text style="stroke:none;fill:black;font-family:sans-serif;font-size:13;text-anchor:middle;" transform="matrix(1 0 0 1 559.711 322)">Ultralight</text>
  <text style="stroke:none;fill:black;font-family:sans-serif;font-size:13;text-anchor:middle;" transform="matrix(1 0 0 1 856.422 322)">Thin</text>
  <text style="stroke:none;fill:black;font-family:sans-serif;font-size:13;text-anchor:middle;" transform="matrix(1 0 0 1 1153.13 322)">Light</text>
  <text style="stroke:none;fill:black;font-family:sans-serif;font-size:13;text-anchor:middle;" transform="matrix(1 0 0 1 1449.84 322)">Regular</text>
  <text style="stroke:none;fill:black;font-family:sans-serif;font-size:13;text-anchor:middle;" transform="matrix(1 0 0 1 1746.56 322)">Medium</text>
  <text style="stroke:none;fill:black;font-family:sans-serif;font-size:13;text-anchor:middle;" transform="matrix(1 0 0 1 2043.27 322)">Semibold</text>
  <text style="stroke:none;fill:black;font-family:sans-serif;font-size:13;text-anchor:middle;" transform="matrix(1 0 0 1 2339.98 322)">Bold</text>
  <text style="stroke:none;fill:black;font-family:sans-serif;font-size:13;text-anchor:middle;" transform="matrix(1 0 0 1 2636.69 322)">Heavy</text>
  <text style="stroke:none;fill:black;font-family:sans-serif;font-size:13;text-anchor:middle;" transform="matrix(1 0 0 1 2933.4 322)">Black</text>
  <line style="fill:none;stroke:black;opacity:1;stroke-width:0.5;" x1="263" x2="3036" y1="1903" y2="1903"/>
  <g transform="matrix(1 0 0 1 263 1933)">
   <path d="M9.24805 0.830078Q10.8691 0.830078 12.2949 0.214844Q13.7207-0.400391 14.8096-1.49414Q15.8984-2.58789 16.5186-4.01367Q17.1387-5.43945 17.1387-7.05078Q17.1387-8.66211 16.5186-10.0879Q15.8984-11.5137 14.8047-12.6074Q13.7109-13.7012 12.2852-14.3164Q10.8594-14.9316 9.23828-14.9316Q7.62695-14.9316 6.20117-14.3164Q4.77539-13.7012 3.69141-12.6074Q2.60742-11.5137 1.9873-10.0879Q1.36719-8.66211 1.36719-7.05078Q1.36719-5.43945 1.9873-4.01367Q2.60742-2.58789 3.69629-1.49414Q4.78516-0.400391 6.21094 0.214844Q7.63672 0.830078 9.24805 0.830078ZM9.24805-0.654297Q7.91992-0.654297 6.7627-1.14746Q5.60547-1.64062 4.73145-2.51953Q3.85742-3.39844 3.36426-4.56055Q2.87109-5.72266 2.87109-7.05078Q2.87109-8.37891 3.35938-9.54102Q3.84766-10.7031 4.72168-11.582Q5.5957-12.4609 6.75293-12.9541Q7.91016-13.4473 9.23828-13.4473Q10.5762-13.4473 11.7383-12.9541Q12.9004-12.4609 13.7793-11.582Q14.6582-10.7031 15.1514-9.54102Q15.6445-8.37891 15.6445-7.05078Q15.6445-5.72266 15.1514-4.56055Q14.6582-3.39844 13.7793-2.51953Q12.9004-1.64062 11.7432-1.14746Q10.5859-0.654297 9.24805-0.654297ZM5.6543-7.05078Q5.6543-6.72852 5.85938-6.52832Q6.06445-6.32812 6.40625-6.32812L8.51562-6.32812L8.51562-4.20898Q8.51562-3.88672 8.71094-3.67676Q8.90625-3.4668 9.23828-3.4668Q9.56055-3.4668 9.77051-3.67676Q9.98047-3.88672 9.98047-4.20898L9.98047-6.32812L12.0898-6.32812Q12.4219-6.32812 12.627-6.52832Q12.832-6.72852 12.832-7.05078Q12.832-7.38281 12.627-7.58789Q12.4219-7.79297 12.0898-7.79297L9.98047-7.79297L9.98047-9.90234Q9.98047-10.2344 9.77051-10.4443Q9.56055-10.6543 9.23828-10.6543Q8.90625-10.6543 8.71094-10.4443Q8.51562-10.2344 8.51562-9.90234L8.51562-7.79297L6.40625-7.79297Q6.06445-7.79297 5.85938-7.58789Q5.6543-7.38281 5.6543-7.05078Z"/>
  </g>
  <g transform="matrix(1 0 0 1 281.867 1933)">
   <path d="M11.709 2.91016Q13.75 2.91016 15.5518 2.12891Q17.3535 1.34766 18.7305-0.0292969Q20.1074-1.40625 20.8887-3.20801Q21.6699-5.00977 21.6699-7.05078Q21.6699-9.0918 20.8887-10.8936Q20.1074-12.6953 18.7305-14.0723Q17.3535-15.4492 15.5469-16.2305Q13.7402-17.0117 11.6992-17.0117Q9.6582-17.0117 7.85645-16.2305Q6.05469-15.4492 4.68262-14.0723Q3.31055-12.6953 2.5293-10.8936Q1.74805-9.0918 1.74805-7.05078Q1.74805-5.00977 2.5293-3.20801Q3.31055-1.40625 4.6875-0.0292969Q6.06445 1.34766 7.86621 2.12891Q9.66797 2.91016 11.709 2.91016ZM11.709 1.25Q9.98047 1.25 8.47656 0.605469Q6.97266-0.0390625 5.83496-1.17676Q4.69727-2.31445 4.05762-3.81836Q3.41797-5.32227 3.41797-7.05078Q3.41797-8.7793 4.05762-10.2832Q4.69727-11.7871 5.83008-12.9297Q6.96289-14.0723 8.4668-14.7119Q9.9707-15.3516 11.6992-15.3516Q13.4277-15.3516 14.9365-14.7119Q16.4453-14.0723 17.583-12.9297Q18.7207-11.7871 19.3652-10.2832Q20.0098-8.7793 20.0098-7.05078Q20.0098-5.32227 19.3701-3.81836Q18.7305-2.31445 17.5879-1.17676Q16.4453-0.0390625 14.9414 0.605469Q13.4375 1.25 11.709 1.25ZM7.17773-7.05078Q7.17773-6.69922 7.41211-6.47461Q7.64648-6.25 8.01758-6.25L10.8887-6.25L10.8887-3.36914Q10.8887-2.99805 11.1133-2.76855Q11.3379-2.53906 11.6895-2.53906Q12.0605-2.53906 12.29-2.76855Q12.5195-2.99805 12.5195-3.36914L12.5195-6.25L15.4004-6.25Q15.7715-6.25 16.001-6.47461Q16.2305-6.69922 16.2305-7.05078Q16.2305-7.42188 16.001-7.65137Q15.7715-7.88086 15.4004-7.88086L12.5195-7.88086L12.5195-10.752Q12.5195-11.1328 12.29-11.3623Q12.0605-11.5918 11.6895-11.5918Q11.3379-11.5918 11.1133-11.3574Q10.8887-11.123 10.8887-10.752L10.8887-7.88086L8.01758-7.88086Q7.63672-7.88086 7.40723-7.65137Q7.17773-7.42188 7.17773-7.05078Z"/>
  </g>
  <g transform="matrix(1 0 0 1 305.646 1933)">
   <path d="M14.9707 5.66406Q17.0605 5.66406 18.96 5.01465Q20.8594 4.36523 22.4512 3.19336Q24.043 2.02148 25.2197 0.429688Q26.3965-1.16211 27.0459-3.06641Q27.6953-4.9707 27.6953-7.05078Q27.6953-9.14062 27.0459-11.04Q26.3965-12.9395 25.2197-14.5312Q24.043-16.123 22.4512-17.2998Q20.8594-18.4766 18.9551-19.126Q17.0508-19.7754 14.9609-19.7754Q12.8711-19.7754 10.9717-19.126Q9.07227-18.4766 7.48535-17.2998Q5.89844-16.123 4.72168-14.5312Q3.54492-12.9395 2.90039-11.04Q2.25586-9.14062 2.25586-7.05078Q2.25586-4.9707 2.90527-3.06641Q3.55469-1.16211 4.72656 0.429688Q5.89844 2.02148 7.49023 3.19336Q9.08203 4.36523 10.9814 5.01465Q12.8809 5.66406 14.9707 5.66406ZM14.9707 3.84766Q13.1641 3.84766 11.5283 3.2959Q9.89258 2.74414 8.53516 1.74805Q7.17773 0.751953 6.17676-0.610352Q5.17578-1.97266 4.62891-3.6084Q4.08203-5.24414 4.08203-7.05078Q4.08203-8.86719 4.62891-10.5029Q5.17578-12.1387 6.17188-13.501Q7.16797-14.8633 8.52539-15.8594Q9.88281-16.8555 11.5186-17.4023Q13.1543-17.9492 14.9609-17.9492Q16.7773-17.9492 18.4131-17.4023Q20.0488-16.8555 21.4111-15.8594Q22.7734-14.8633 23.7744-13.501Q24.7754-12.1387 25.3223-10.5029Q25.8691-8.86719 25.8691-7.05078Q25.8691-5.24414 25.3223-3.6084Q24.7754-1.97266 23.7793-0.610352Q22.7832 0.751953 21.4209 1.74805Q20.0586 2.74414 18.4229 3.2959Q16.7871 3.84766 14.9707 3.84766ZM9.19922-7.05078Q9.19922-6.66992 9.45801-6.4209Q9.7168-6.17188 10.1172-6.17188L14.0625-6.17188L14.0625-2.2168Q14.0625-1.81641 14.3115-1.55762Q14.5605-1.29883 14.9512-1.29883Q15.3516-1.29883 15.6104-1.55273Q15.8691-1.80664 15.8691-2.2168L15.8691-6.17188L19.8242-6.17188Q20.2246-6.17188 20.4785-6.4209Q20.7324-6.66992 20.7324-7.05078Q20.7324-7.46094 20.4785-7.71484Q20.2246-7.96875 19.8242-7.96875L15.8691-7.96875L15.8691-11.9141Q15.8691-12.3242 15.6104-12.583Q15.3516-12.8418 14.9512-12.8418Q14.5605-12.8418 14.3115-12.583Q14.0625-12.3242 14.0625-11.9141L14.0625-7.96875L10.1172-7.96875Q9.70703-7.96875 9.45312-7.71484Q9.19922-7.46094 9.19922-7.05078Z"/>
  </g>
  <text style="stroke:none;fill:black;font-family:sans-serif;font-size:13;font-weight:bold;" transform="matrix(1 0 0 1 263 1953)">Design Variations</text>
  <text style="stroke:none;fill:black;font-family:sans-serif;font-size:13;" transform="matrix(1 0 0 1 263 1971)">Symbols are supported in up to nine weights and three scales.</text>
  <text style="stroke:none;fill:black;font-family:sans-serif;font-size:13;" transform="matrix(1 0 0 1 263 1989)">For optimal layout with text and other symbols, vertically align</text>
  <text style="stroke:none;fill:black;font-family:sans-serif;font-size:13;" transform="matrix(1 0 0 1 263 2007)">symbols with the adjacent text.</text>
  <line style="fill:none;stroke:#00AEEF;stroke-width:0.5;opacity:1.0;" x1="776" x2="776" y1="1919" y2="1933"/>
  <g transform="matrix(1 0 0 1 776 1933)">
   <path d="M3.31055 0.15625Q3.70117 0.15625 3.91602-0.00976562Q4.13086-0.175781 4.26758-0.585938L5.52734-4.0332L11.2891-4.0332L12.5488-0.585938Q12.6855-0.175781 12.9004-0.00976562Q13.1152 0.15625 13.4961 0.15625Q13.8867 0.15625 14.1162-0.0585938Q14.3457-0.273438 14.3457-0.644531Q14.3457-0.869141 14.2383-1.17188L9.6582-13.3691Q9.48242-13.8184 9.17969-14.043Q8.87695-14.2676 8.4082-14.2676Q7.5-14.2676 7.17773-13.3789L2.59766-1.16211Q2.49023-0.859375 2.49023-0.634766Q2.49023-0.263672 2.70996-0.0537109Q2.92969 0.15625 3.31055 0.15625ZM6.00586-5.51758L8.37891-12.0898L8.42773-12.0898L10.8008-5.51758Z"/>
  </g>
  <line style="fill:none;stroke:#00AEEF;stroke-width:0.5;opacity:1.0;" x1="793.197" x2="793.197" y1="1919" y2="1933"/>
  <text style="stroke:none;fill:black;font-family:sans-serif;font-size:13;font-weight:bold;" transform="matrix(1 0 0 1 776 1953)">Margins</text>
  <text style="stroke:none;fill:black;font-family:sans-serif;font-size:13;" transform="matrix(1 0 0 1 776 1971)">Leading and trailing margins on the left and right side of each symbol</text>
  <text style="stroke:none;fill:black;font-family:sans-serif;font-size:13;" transform="matrix(1 0 0 1 776 1989)">can be adjusted by modifying the x-location of the margin guidelines.</text>
  <text style="stroke:none;fill:black;font-family:sans-serif;font-size:13;" transform="matrix(1 0 0 1 776 2007)">Modifications are automatically applied proportionally to all</text>
  <text style="stroke:none;fill:black;font-family:sans-serif;font-size:13;" transform="matrix(1 0 0 1 776 2025)">scales and weights.</text>
  <g transform="matrix(1 0 0 1 1289 1933)">
   <path d="M2.8418 1.86523L4.54102 3.57422Q5.18555 4.22852 5.90332 4.17969Q6.62109 4.13086 7.31445 3.35938L18.0078-8.42773L17.041-9.4043L6.42578 2.27539Q6.16211 2.57812 5.89355 2.61719Q5.625 2.65625 5.27344 2.30469L4.10156 1.14258Q3.75 0.791016 3.79395 0.522461Q3.83789 0.253906 4.14062-0.0195312L15.6152-10.8203L14.6387-11.7871L3.04688-0.898438Q2.30469-0.214844 2.25098 0.498047Q2.19727 1.21094 2.8418 1.86523ZM9.25781-16.3281Q8.94531-16.0254 8.90625-15.6348Q8.86719-15.2441 9.04297-14.9512Q9.21875-14.6777 9.55566-14.541Q9.89258-14.4043 10.3809-14.5215Q11.4746-14.7754 12.5977-14.7314Q13.7207-14.6875 14.7949-13.9844L14.209-12.5293Q13.9551-11.9043 14.0674-11.4404Q14.1797-10.9766 14.5801-10.5664L16.875-8.25195Q17.2363-7.88086 17.5781-7.82227Q17.9199-7.76367 18.3398-7.8418L19.4043-8.03711L20.0684-7.36328L20.0293-6.80664Q20-6.43555 20.1221-6.12305Q20.2441-5.81055 20.6055-5.44922L21.3672-4.70703Q21.7285-4.3457 22.1533-4.33105Q22.5781-4.31641 22.9297-4.66797L25.8398-7.58789Q26.1914-7.93945 26.1816-8.35449Q26.1719-8.76953 25.8105-9.13086L25.0391-9.89258Q24.6875-10.2539 24.3799-10.3857Q24.0723-10.5176 23.7109-10.4883L23.1348-10.4395L22.4902-11.0742L22.7344-12.1973Q22.832-12.6172 22.6953-12.9834Q22.5586-13.3496 22.1191-13.7891L19.9219-15.9766Q18.6719-17.2168 17.2607-17.8369Q15.8496-18.457 14.4189-18.4814Q12.9883-18.5059 11.665-17.959Q10.3418-17.4121 9.25781-16.3281ZM10.752-15.957Q11.6602-16.6211 12.7002-16.9043Q13.7402-17.1875 14.8047-17.085Q15.8691-16.9824 16.8701-16.5137Q17.8711-16.0449 18.7012-15.2051L21.1328-12.793Q21.3086-12.6172 21.3525-12.4512Q21.3965-12.2852 21.3379-12.0312L21.0156-10.5469L22.5195-9.0625L23.5059-9.12109Q23.6914-9.13086 23.7891-9.09668Q23.8867-9.0625 24.0332-8.91602L24.6094-8.33984L22.168-5.89844L21.5918-6.47461Q21.4453-6.62109 21.4062-6.71875Q21.3672-6.81641 21.377-7.01172L21.4453-7.98828L19.9512-9.47266L18.4277-9.21875Q18.1836-9.16992 18.042-9.2041Q17.9004-9.23828 17.7148-9.41406L15.7129-11.416Q15.5176-11.5918 15.4932-11.7529Q15.4688-11.9141 15.5859-12.1875L16.4648-14.2773Q15.293-15.3711 13.8281-15.791Q12.3633-16.2109 10.8398-15.7617Q10.7227-15.7324 10.6885-15.8057Q10.6543-15.8789 10.752-15.957Z"/>
  </g>
  <text style="stroke:none;fill:black;font-family:sans-serif;font-size:13;font-weight:bold;" transform="matrix(1 0 0 1 1289 1953)">Exporting</text>
  <text style="stroke:none;fill:black;font-family:sans-serif;font-size:13;" transform="matrix(1 0 0 1 1289 1971)">Symbols should be outlined when exporting to ensure the</text>
  <text style="stroke:none;fill:black;font-family:sans-serif;font-size:13;" transform="matrix(1 0 0 1 1289 1989)">design is preserved when submitting to Xcode.</text>
  <text id="template-version" style="stroke:none;fill:black;font-family:sans-serif;font-size:13;text-anchor:end;" transform="matrix(1 0 0 1 3036 1933)">Template v.2.0</text>
  <text style="stroke:none;fill:black;font-family:sans-serif;font-size:13;text-anchor:end;" transform="matrix(1 0 0 1 3036 1951)">Requires Xcode 12 or greater</text>
  <text id="descriptive-name" style="stroke:none;fill:black;font-family:sans-serif;font-size:13;text-anchor:end;" transform="matrix(1 0 0 1 3036 1969)">Generated from custom.hammock</text>
  <text style="stroke:none;fill:black;font-family:sans-serif;font-size:13;text-anchor:end;" transform="matrix(1 0 0 1 3036 1987)">Typeset at 100 points</text>
  <text style="stroke:none;fill:black;font-family:sans-serif;font-size:13;" transform="matrix(1 0 0 1 263 726)">Small</text>
  <text style="stroke:none;fill:black;font-family:sans-serif;font-size:13;" transform="matrix(1 0 0 1 263 1156)">Medium</text>
  <text style="stroke:none;fill:black;font-family:sans-serif;font-size:13;" transform="matrix(1 0 0 1 263 1586)">Large</text>
 </g>
 <g id="Guides">
  <g id="H-reference" style="fill:#27AAE1;stroke:none;" transform="matrix(1 0 0 1 339 696)">
   <path d="M0.993347 0L3.6377 0L29.3282-67.1326L30.0301-67.1326L30.0301-70.459L28.1227-70.459ZM11.6882-24.4797L46.9818-24.4797L46.2311-26.7288L12.4382-26.7288ZM55.1193 0L57.7637 0L30.6381-70.459L29.4327-70.459L29.4327-67.1326Z"/>
  </g>
  <line id="Baseline-S" style="fill:none;stroke:#27AAE1;opacity:1;stroke-width:0.5;" x1="263" x2="3036" y1="696" y2="696"/>
  <line id="Capline-S" style="fill:none;stroke:#27AAE1;opacity:1;stroke-width:0.5;" x1="263" x2="3036" y1="625.541" y2="625.541"/>
  <g id="H-reference" style="fill:#27AAE1;stroke:none;" transform="matrix(1 0 0 1 339 1126)">
   <path d="M0.993347 0L3.6377 0L29.3282-67.1326L30.0301-67.1326L30.0301-70.459L28.1227-70.459ZM11.6882-24.4797L46.9818-24.4797L46.2311-26.7288L12.4382-26.7288ZM55.1193 0L57.7637 0L30.6381-70.459L29.4327-70.459L29.4327-67.1326Z"/>
  </g>
  <line id="Baseline-M" style="fill:none;stroke:#27AAE1;opacity:1;stroke-width:0.5;" x1="263" x2="3036" y1="1126" y2="1126"/>
  <line id="Capline-M" style="fill:none;stroke:#27AAE1;opacity:1;stroke-width:0.5;" x1="263" x2="3036" y1="1055.54" y2="1055.54"/>
  <g id="H-reference" style="fill:#27AAE1;stroke:none;" transform="matrix(1 0 0 1 339 1556)">
   <path d="M0.993347 0L3.6377 0L29.3282-67.1326L30.0301-67.1326L30.0301-70.459L28.1227-70.459ZM11.6882-24.4797L46.9818-24.4797L46.2311-26.7288L12.4382-26.7288ZM55.1193 0L57.7637 0L30.6381-70.459L29.4327-70.459L29.4327-67.1326Z"/>
  </g>
  <line id="Baseline-L" style="fill:none;stroke:#27AAE1;opacity:1;stroke-width:0.5;" x1="263" x2="3036" y1="1556" y2="1556"/>
  <line id="Capline-L" style="fill:none;stroke:#27AAE1;opacity:1;stroke-width:0.5;" x1="263" x2="3036" y1="1485.54" y2="1485.54"/>
  <line id="left-margin" style="fill:none;stroke:#00AEEF;stroke-width:0.5;opacity:1.0;" x1="1390.67" x2="1390.67" y1="1030.73" y2="1150.14"/>
  <line id="right-margin" style="fill:none;stroke:#00AEEF;stroke-width:0.5;opacity:1.0;" x1="1509.02" x2="1509.02" y1="1030.73" y2="1150.14"/>
 </g>
 <g id="Symbols">
  <g id="Black-L" transform="matrix(1 0 0 1 2851.59 1556)">
   <path d="M33.5352-87.2C31.3352-87.2 29.1352-86.4 27.4352-84.7L2.83523-60.6C0.335231-58.1-0.464769-54.4 0.935231-51.1C2.23523-47.8 5.43523-45.7 8.93523-45.7L58.0352-45.7C61.5352-45.7 64.7352-47.8 66.0352-51.1C67.3352-54.4 66.6352-58.1 64.1352-60.6L39.5352-84.7C37.8352-86.4 35.6352-87.2 33.5352-87.2L33.5352-87.2ZM37.8352-85.6L37.8352-98C37.8352-100.4 35.9352-102.3 33.5352-102.3C31.1352-102.3 29.2352-100.4 29.2352-98L29.2352-85.6C29.2352-83.2 31.1352-81.3 33.5352-81.3C35.9352-81.3 37.8352-83.2 37.8352-85.6ZM129.935-87.2C127.735-87.2 125.535-86.4 123.835-84.7L99.3352-60.6C96.8352-58.1 96.0352-54.4 97.4352-51.1C98.7352-47.8 101.935-45.7 105.435-45.7L154.535-45.7C158.035-45.7 161.235-47.8 162.535-51.1C163.835-54.4 163.135-58.1 160.635-60.6L136.135-84.7C134.335-86.4 132.135-87.2 129.935-87.2L129.935-87.2ZM134.235-85.2L134.235-98C134.235-100.4 132.335-102.3 129.935-102.3C127.535-102.3 125.635-100.4 125.635-98L125.635-85.2C125.635-82.8 127.535-80.9 129.935-80.9C132.335-80.8 134.235-82.8 134.235-85.2ZM102.135 13.1C93.3352 11.5 83.8352 8.2 79.7352 5.8C79.3352 5.8 79.7352 5.8 79.7352 5.8C58.6352-8.8 56.1352-36.4 56.1352-36.4L10.9352-36.4C10.9352-24.9 13.4352 3.5 37.2352 19.1C68.6352 39.8 107.735 32.4 128.535 16.9C129.735 16 130.835 15.1 131.835 14.1C128.435 14.4 124.735 14.7 120.735 14.7C114.935 14.8 108.635 14.3 102.135 13.1ZM120.635 6.1C128.535 6.1 135.435 5.2 140.135 4.3C149.735-10.1 153.335-28.3 153.335-36.4L107.335-36.4C102.935-15 95.9352-4.5 90.1352 0.7C93.8352 2.1 98.8352 3.7 103.735 4.6C109.135 5.6 114.835 6.1 120.635 6.1Z"/>
  </g>
  <g id="Heavy-L" transform="matrix(1 0 0 1 2555.36 1556)">
   <path d="M32.8282-85.6C30.8282-85.6 28.7282-84.8 27.2282-83.3L2.62824-59.2C0.328241-56.9-0.371759-53.4 0.828241-50.4C2.02824-47.4 5.02824-45.4 8.32824-45.4L57.4282-45.4C60.7282-45.4 63.6282-47.4 64.9282-50.4C66.1282-53.4 65.4282-56.9 63.1282-59.2L38.4282-83.3C36.9282-84.8 34.8282-85.6 32.8282-85.6L32.8282-85.6ZM36.8282-83.3L36.8282-97C36.8282-99.2 35.0282-101 32.8282-101C30.6282-101 28.8282-99.2 28.8282-97L28.8282-83.3C28.8282-81.1 30.6282-79.3 32.8282-79.3C35.0282-79.3 36.8282-81.1 36.8282-83.3ZM129.428-85.6C127.428-85.6 125.328-84.8 123.828-83.3L99.2282-59.2C96.9282-56.9 96.2282-53.4 97.4282-50.4C98.6282-47.4 101.628-45.4 104.928-45.4L154.128-45.4C157.428-45.4 160.328-47.4 161.628-50.4C162.828-53.4 162.128-56.9 159.828-59.2L135.228-83.3C133.528-84.8 131.428-85.6 129.428-85.6L129.428-85.6ZM133.428-82.9L133.428-97C133.428-99.2 131.628-101 129.428-101C127.228-101 125.428-99.2 125.428-97L125.428-82.9C125.428-80.7 127.228-78.9 129.428-78.9C131.628-78.9 133.428-80.7 133.428-82.9ZM101.628 11.8C92.7282 10.2 83.2282 6.9 79.2282 4.5C78.8282 4.6 79.2282 4.5 79.2282 4.5C58.0282-10.2 55.4282-37.8 55.4282-37.8L10.2282-37.8C10.2282-26.3 12.7282 2.2 36.5282 17.8C68.0282 38.5 107.128 31.1 127.928 15.6C129.128 14.7 130.228 13.8 131.328 12.8C127.928 13.1 124.228 13.4 120.228 13.4C114.428 13.5 108.128 13 101.628 11.8ZM120.128 5.4C127.828 5.4 134.428 4.5 139.128 3.7C149.128-10.8 152.828-29.5 152.828-37.8L106.728-37.8C102.228-15.7 94.9282-5.2 89.0282-0.2C92.8282 1.3 97.9282 2.9 103.128 3.8C108.528 4.9 114.228 5.4 120.128 5.4Z"/>
  </g>
  <g id="Bold-L" transform="matrix(1 0 0 1 2260 1556)">
   <path d="M32.0662-84.1C30.1662-84.1 28.3662-83.4 26.8662-82L2.4662-58.1C0.366202-56-0.333798-52.8 0.766202-50.1C1.8662-47.3 4.5662-45.5 7.5662-45.5L56.3662-45.5C59.3662-45.5 62.0662-47.3 63.1662-50.1C64.2662-52.9 63.6662-56.1 61.4662-58.1L37.1662-82C35.7662-83.4 33.8662-84.1 32.0662-84.1L32.0662-84.1ZM35.6662-82.5L35.6662-96.1C35.6662-98.1 34.0662-99.8 31.9662-99.8C29.8662-99.8 28.2662-98.1 28.2662-96.1L28.2662-82.5C28.2662-80.5 29.8662-78.8 31.9662-78.8C34.0662-78.8 35.6662-80.5 35.6662-82.5ZM127.866-84.1C125.966-84.1 124.166-83.4 122.666-82L98.2662-58C96.1662-55.9 95.4662-52.7 96.5662-50C97.6662-47.2 100.366-45.4 103.366-45.4L152.166-45.4C155.166-45.4 157.866-47.2 158.966-50C160.066-52.8 159.466-56 157.266-58L132.866-82C131.566-83.4 129.666-84.1 127.866-84.1L127.866-84.1ZM131.566-82.1L131.566-96.1C131.566-98.1 129.966-99.8 127.866-99.8C125.766-99.8 124.166-98.1 124.166-96.1L124.166-82.1C124.166-80.1 125.766-78.4 127.866-78.4C129.966-78.4 131.566-80 131.566-82.1ZM118.666 4.9C125.966 4.9 132.366 4.1 137.066 3.3C147.366-11.2 151.166-30.3 151.166-38.5L105.366-38.5C100.766-16 93.2662-5.6 87.1662-0.8C91.0662 0.7 96.2662 2.4 101.566 3.4C107.066 4.4 112.766 4.9 118.666 4.9ZM100.266 10.6C91.4662 9 81.9662 5.7 77.9662 3.4C77.5662 3.4 77.9662 3.4 77.9662 3.4C57.0662-11.2 54.4662-38.5 54.4662-38.5L9.5662-38.5C9.5662-27.1 12.0662 1.2 35.6662 16.7C66.8662 37.2 105.766 29.9 126.366 14.6C127.566 13.7 128.666 12.8 129.666 11.9C126.266 12.2 122.566 12.4 118.666 12.4C112.966 12.3 106.666 11.9 100.266 10.6Z"/>
  </g>
  <g id="Semibold-L" transform="matrix(1 0 0 1 1964.54 1556)">
   <path d="M31.1283-82.7C29.4283-82.7 27.7283-82.1 26.4283-80.8L2.22833-57C0.328333-55.1-0.271667-52.2 0.728333-49.7C1.72833-47.2 4.22833-45.5 6.92833-45.5L55.3283-45.5C58.0283-45.5 60.5283-47.1 61.5283-49.7C62.5283-52.2 61.9283-55.1 60.0283-57L35.8283-80.7C34.4283-82 32.8283-82.7 31.1283-82.7L31.1283-82.7ZM34.4283-81.7L34.4283-95.1C34.4283-97 32.9283-98.5 31.0283-98.5C29.1283-98.5 27.6283-97 27.6283-95.1L27.6283-81.7C27.6283-79.8 29.1283-78.3 31.0283-78.3C32.9283-78.3 34.4283-79.8 34.4283-81.7ZM126.128-82.7C124.428-82.7 122.728-82.1 121.428-80.8L97.2283-57C95.3283-55.1 94.7283-52.2 95.7283-49.7C96.7283-47.2 99.2283-45.5 101.928-45.5L150.328-45.5C153.028-45.5 155.528-47.1 156.528-49.7C157.528-52.2 156.928-55.1 155.028-57L130.828-80.8C129.528-82 127.828-82.7 126.128-82.7L126.128-82.7ZM129.428-81.2L129.428-95.1C129.428-97 127.928-98.5 126.028-98.5C124.128-98.5 122.628-97 122.628-95.1L122.628-81.2C122.628-79.3 124.128-77.8 126.028-77.8C127.928-77.9 129.428-79.4 129.428-81.2ZM117.028 4.4C124.028 4.4 130.128 3.7 134.728 2.9C145.328-11.6 149.228-31 149.228-39.3L103.828-39.3C99.1283-16.2 91.3283-5.9 85.2283-1.4C89.1283 0.2 94.4283 1.9 99.9283 2.9C105.428 3.9 111.128 4.4 117.028 4.4ZM98.7283 9.5C90.0283 7.9 80.6283 4.7 76.7283 2.3C76.3283 2.3 76.7283 2.3 76.7283 2.3C55.9283-12.1 53.3283-39.3 53.3283-39.3L8.82833-39.3C8.82833-28 11.3283 0 34.7283 15.4C65.7283 35.8 104.228 28.5 124.628 13.3C125.728 12.4 126.828 11.5 127.928 10.6C124.628 10.9 120.928 11.1 117.028 11.1C111.328 11.1 105.128 10.7 98.7283 9.5Z"/>
  </g>
  <g id="Medium-L" transform="matrix(1 0 0 1 1669.08 1556)">
   <path d="M30.2665-81.2C28.7665-81.2 27.1665-80.6 26.0665-79.5L2.06651-55.9C0.366505-54.2-0.233495-51.6 0.666505-49.3C1.56651-47 3.76651-45.5 6.26651-45.5L54.2665-45.5C56.7665-45.5 58.9665-47 59.8665-49.3C60.7665-51.6 60.2665-54.2 58.4665-55.9L34.4665-79.5C33.3665-80.6 31.7665-81.2 30.2665-81.2L30.2665-81.2ZM33.2665-79.6L33.2665-94.1C33.2665-95.8 31.8665-97.1 30.2665-97.1C28.6665-97.1 27.2665-95.7 27.2665-94.1L27.2665-79.6C27.2665-77.9 28.6665-76.6 30.2665-76.6C31.8665-76.6 33.2665-77.9 33.2665-79.6ZM124.467-81.2C122.967-81.2 121.367-80.6 120.267-79.5L96.2665-55.9C94.5665-54.2 93.9665-51.6 94.8665-49.3C95.7665-47 97.9665-45.5 100.467-45.5L148.467-45.5C150.967-45.5 153.167-47 154.067-49.3C154.967-51.6 154.467-54.2 152.667-55.9L128.667-79.5C127.567-80.6 126.067-81.2 124.467-81.2L124.467-81.2ZM127.467-79.2L127.467-94.2C127.467-95.9 126.067-97.2 124.467-97.2C122.767-97.2 121.467-95.8 121.467-94.2L121.467-79.2C121.467-77.5 122.867-76.2 124.467-76.2C126.167-76.2 127.467-77.5 127.467-79.2ZM97.3665 8.4C88.7665 6.8 79.4665 3.6 75.4665 1.2C75.0665 1.2 75.4665 1.2 75.4665 1.2C54.8665-13.1 52.3665-40 52.3665-40L8.16651-40C8.16651-28.8 10.6665-1 33.8665 14.3C64.5665 34.5 102.767 27.3 123.067 12.2C124.167 11.4 125.267 10.5 126.367 9.5C123.067 9.8 119.467 10 115.567 10C109.867 10 103.667 9.6 97.3665 8.4ZM115.467 4C122.167 4 127.967 3.3 132.567 2.6C143.467-11.8 147.467-31.5 147.467-39.9L102.467-39.9C97.5665-16.4 89.4665-6.3 83.3665-2C87.2665-0.4 92.7665 1.4 98.4665 2.4C103.867 3.4 109.567 4 115.467 4Z"/>
  </g>
  <g id="Regular-L" transform="matrix(1 0 0 1 1373.66 1556)">
   <path d="M29.35-79.8C27.95-79.8 26.65-79.3 25.55-78.3L1.85-54.9C0.25-53.4-0.15-51 0.65-49C1.45-47 3.45-45.7 5.65-45.7L53.15-45.7C55.35-45.7 57.35-47 58.15-49C58.95-51 58.45-53.4 56.95-54.9L33.15-78.2C32.15-79.2 30.75-79.8 29.35-79.8L29.35-79.8ZM32.05-78.8L32.05-93.2C32.05-94.7 30.85-95.9 29.35-95.9C27.85-95.9 26.65-94.7 26.65-93.2L26.65-78.8C26.65-77.3 27.85-76.1 29.35-76.1C30.85-76.1 32.05-77.3 32.05-78.8ZM122.85-79.8C121.45-79.8 120.15-79.3 119.05-78.3L95.25-54.9C93.65-53.4 93.25-51 94.05-49C94.85-47 96.85-45.7 99.05-45.7L146.55-45.7C148.75-45.7 150.75-47 151.55-49C152.35-51 151.85-53.4 150.35-54.9L126.55-78.3C125.55-79.2 124.15-79.8 122.85-79.8L122.85-79.8ZM125.45-78.4L125.45-93.2C125.45-94.7 124.25-95.9 122.75-95.9C121.25-95.9 120.05-94.7 120.05-93.2L120.05-78.4C120.05-76.9 121.25-75.7 122.75-75.7C124.25-75.7 125.45-76.9 125.45-78.4ZM95.95 7.2C87.35 5.6 78.15 2.4 74.25 0.1C73.85 0.1 74.25 0.1 74.25 0.1C53.75-14 51.25-40.7 51.25-40.7L7.55-40.7C7.45-29.6 9.95-2 32.95 13.1C63.35 33.1 101.25 26 121.35 11C122.45 10.2 123.55 9.3 124.55 8.3C121.25 8.6 117.65 8.8 113.85 8.8C108.25 8.9 102.25 8.4 95.95 7.2ZM113.85 3.5C120.15 3.5 125.85 2.9 130.25 2.2C141.45-12.2 145.55-32.2 145.55-40.7L100.95-40.7C95.95-16.5 87.55-6.7 81.45-2.6C85.35-1 91.05 0.9 96.85 2C102.25 3 107.95 3.5 113.85 3.5Z"/>
  </g>
  <g id="Light-L" transform="matrix(1 0 0 1 1078.7 1556)">
   <path d="M28.3874-78.4C27.1874-78.4 25.9874-77.9 25.0874-77L1.68738-54C0.287384-52.7-0.112616-50.6 0.587384-48.9C1.28738-47.2 3.08738-46 4.98738-46L51.7874-46C53.6874-46 55.3874-47.2 56.1874-48.9C56.8874-50.7 56.4874-52.7 55.0874-54L31.6874-77C30.7874-78 29.5874-78.4 28.3874-78.4L28.3874-78.4ZM30.6874-76.9L30.6874-92.3C30.6874-93.6 29.5874-94.7 28.2874-94.7C26.9874-94.7 25.9874-93.5 25.9874-92.2L25.9874-76.8C25.9874-75.5 27.0874-74.4 28.3874-74.4C29.6874-74.4 30.6874-75.6 30.6874-76.9ZM120.287-78.4C119.087-78.4 117.887-77.9 116.987-77L93.5874-54C92.1874-52.7 91.7874-50.6 92.4874-48.9C93.1874-47.1 94.8874-46 96.8874-46L143.687-46C145.587-46 147.287-47.2 148.087-48.9C148.787-50.7 148.387-52.7 146.987-54L123.587-77C122.687-78 121.487-78.4 120.287-78.4L120.287-78.4ZM122.587-77.6L122.587-92.2C122.587-93.5 121.487-94.6 120.187-94.6C118.887-94.6 117.787-93.5 117.787-92.2L117.787-77.6C117.787-76.3 118.887-75.2 120.187-75.2C121.487-75.2 122.587-76.3 122.587-77.6ZM111.487 3.1C117.487 3.1 122.787 2.6 127.087 1.9C138.487-12.3 142.687-32.5 142.687-41L98.6874-41C93.6874-16.3 84.9874-6.8 78.9874-3.1C82.8874-1.4 88.6874 0.5 94.6874 1.6C99.9874 2.6 105.687 3.1 111.487 3.1ZM93.7874 6.2C85.3874 4.6 76.2874 1.5 72.4874-0.8C72.0874-0.8 72.4874-0.8 72.4874-0.8C52.3874-14.8 49.8874-41 49.8874-41L6.78738-41C6.78738-30 9.18738-2.9 31.7874 11.9C61.7874 31.6 98.9874 24.6 118.787 9.8C119.887 9 120.987 8.1 121.987 7.2C118.787 7.5 115.187 7.7 111.387 7.7C105.987 7.8 99.9874 7.4 93.7874 6.2Z"/>
  </g>
  <g id="Thin-L" transform="matrix(1 0 0 1 783.272 1556)">
   <path d="M27.55-77C26.55-77 25.45-76.6 24.65-75.8L1.45-53.1C0.25-51.9-0.05-50.2 0.55-48.6C1.15-47.1 2.65-46.1 4.35-46.1L50.65-46.1C52.35-46.1 53.85-47.1 54.45-48.6C55.05-50.1 54.75-51.9 53.55-53.1L30.35-75.8C29.55-76.6 28.55-77 27.55-77L27.55-77ZM29.55-76L29.55-91.2C29.55-92.3 28.65-93.2 27.55-93.2C26.45-93.2 25.55-92.3 25.55-91.2L25.55-76C25.55-74.9 26.45-74 27.55-74C28.65-74 29.55-74.9 29.55-76ZM118.55-77C117.55-77 116.45-76.6 115.65-75.8L92.55-53.1C91.35-51.9 91.05-50.2 91.65-48.6C92.25-47.1 93.75-46.1 95.45-46.1L141.75-46.1C143.45-46.1 144.95-47.1 145.55-48.6C146.15-50.1 145.85-51.9 144.65-53.1L121.45-75.8C120.65-76.6 119.55-77 118.55-77L118.55-77ZM120.55-75.6L120.55-91.2C120.55-92.3 119.65-93.2 118.55-93.2C117.45-93.2 116.55-92.3 116.55-91.2L116.55-75.6C116.55-74.5 117.45-73.6 118.55-73.6C119.65-73.6 120.55-74.5 120.55-75.6ZM109.85 2.6C115.55 2.6 120.55 2.1 124.75 1.5C136.45-12.6 140.75-33.1 140.75-41.6L97.25-41.6C92.05-16.4 83.05-7.2 77.05-3.8C80.85-2.1 86.75-0.1 93.05 1.1C98.45 2.1 104.05 2.6 109.85 2.6ZM92.35 5.1C84.05 3.5 75.05 0.4 71.25-1.8C70.85-1.8 71.25-1.8 71.25-1.8C51.25-15.6 48.85-41.6 48.85-41.6L6.15-41.6C6.15-30.7 8.55-3.9 30.95 10.8C60.65 30.3 97.55 23.4 117.15 8.8C118.25 8 119.25 7.1 120.35 6.2C117.15 6.5 113.65 6.7 109.85 6.7C104.35 6.7 98.45 6.3 92.35 5.1Z"/>
  </g>
  <g id="Ultralight-L" transform="matrix(1 0 0 1 487.724 1556)">
   <path d="M26.7875-75.5C25.8875-75.5 24.9875-75.2 24.3875-74.5L1.28752-52C0.28752-51-0.0124802-49.5 0.48752-48.2C0.98752-46.9 2.28752-46 3.68752-46L49.6875-46C51.0875-46 52.3875-46.9 52.8875-48.2C53.3875-49.5 53.0875-51 52.0875-52L29.0875-74.6C28.4875-75.2 27.5875-75.5 26.7875-75.5L26.7875-75.5ZM28.4875-75.2L28.4875-90.3C28.4875-91.3 27.6875-92 26.7875-92C25.8875-92 25.0875-91.2 25.0875-90.3L25.0875-75.2C25.0875-74.2 25.8875-73.5 26.7875-73.5C27.6875-73.5 28.4875-74.2 28.4875-75.2ZM117.088-75.5C116.188-75.5 115.288-75.2 114.688-74.5L91.6875-52C90.6875-51 90.3875-49.5 90.8875-48.2C91.3875-46.9 92.6875-46 94.0875-46L140.088-46C141.488-46 142.788-46.9 143.288-48.2C143.788-49.5 143.488-51 142.488-52L119.488-74.6C118.888-75.2 117.988-75.5 117.088-75.5L117.088-75.5ZM118.788-74.8L118.788-90.3C118.788-91.3 117.988-92 117.088-92C116.088-92 115.388-91.2 115.388-90.3L115.388-74.8C115.388-73.8 116.188-73.1 117.088-73.1C118.088-73 118.788-73.8 118.788-74.8ZM91.0875 4C82.7875 2.5 73.8875-0.6 70.0875-2.9C69.6875-2.9 70.0875-2.9 70.0875-2.9C50.2875-16.6 47.8875-42.4 47.8875-42.4L5.58752-42.4C5.58752-31.6 7.98752-5 30.1875 9.6C59.5875 29 96.1875 22.1 115.688 7.6C116.788 6.8 117.788 5.9 118.788 5C115.588 5.3 112.088 5.5 108.388 5.5C102.988 5.5 97.1875 5.1 91.0875 4ZM108.388 2.1C113.788 2.1 118.588 1.7 122.588 1.1C134.588-12.9 138.988-33.8 138.988-42.4L95.8875-42.4C90.5875-16.5 81.1875-7.6 75.2875-4.5C79.0875-2.8 85.1875-0.7 91.6875 0.5C96.9875 1.5 102.688 2.1 108.388 2.1Z"/>
  </g>
  <g id="Black-M" transform="matrix(1 0 0 1 2869.97 1126)">
   <path d="M25.9283-75.3C24.2283-75.3 22.5283-74.7 21.2283-73.4L2.22833-54.7C0.328333-52.8-0.271667-49.9 0.728333-47.4C1.72833-44.9 4.22833-43.2 6.92833-43.2L44.9283-43.2C47.6283-43.2 50.1283-44.8 51.1283-47.4C52.1283-49.9 51.5283-52.8 49.6283-54.7L30.6283-73.4C29.3283-74.7 27.6283-75.3 25.9283-75.3L25.9283-75.3ZM29.3283-74L29.3283-83.6C29.3283-85.5 27.8283-87 25.9283-87C24.0283-87 22.5283-85.5 22.5283-83.7L22.5283-74.1C22.5283-72.2 24.0283-70.7 25.9283-70.7C27.8283-70.7 29.3283-72.2 29.3283-74ZM100.728-75.3C99.0283-75.3 97.3283-74.7 96.0283-73.4L77.0283-54.7C75.1283-52.8 74.5283-49.9 75.5283-47.4C76.5283-44.9 79.0283-43.2 81.7283-43.2L119.728-43.2C122.428-43.2 124.928-44.8 125.928-47.4C126.928-49.9 126.328-52.8 124.428-54.7L105.428-73.4C104.128-74.7 102.428-75.3 100.728-75.3L100.728-75.3ZM104.028-73.7L104.028-83.7C104.028-85.6 102.528-87.1 100.628-87.1C98.7283-87.1 97.2283-85.6 97.2283-83.7L97.2283-73.7C97.2283-71.8 98.7283-70.3 100.628-70.3C102.528-70.4 104.028-71.9 104.028-73.7ZM79.1283 2.5C72.2283 1.2 64.9283-1.3 61.7283-3.2C61.4283-3.2 61.7283-3.2 61.7283-3.2C45.4283-14.6 43.4283-35.9 43.4283-35.9L8.42833-35.9C8.42833-27 10.4283-4.9 28.8283 7.1C53.2283 23.1 83.5283 17.4 99.5283 5.4C100.428 4.7 101.328 4 102.128 3.3C99.5283 3.6 96.6283 3.8 93.5283 3.8C89.0283 3.8 84.2283 3.4 79.1283 2.5ZM93.5283-3C99.7283-3 105.028-3.7 108.628-4.4C116.028-15.6 118.828-29.7 118.828-35.9L83.1283-35.9C79.7283-19.3 74.3283-11.2 69.7283-7.1C72.6283-6 76.4283-4.8 80.3283-4.1C84.5283-3.4 89.0283-3 93.5283-3Z"/>
  </g>
  <g id="Heavy-M" transform="matrix(1 0 0 1 2573.61 1126)">
   <path d="M25.5317-74.1C23.9317-74.1 22.3317-73.5 21.1317-72.3L2.13173-53.6C0.331734-51.8-0.268266-49.1 0.731734-46.8C1.73173-44.5 3.93173-42.9 6.53173-42.9L44.6317-42.9C47.1317-42.9 49.4317-44.4 50.4317-46.8C51.4317-49.1 50.8317-51.8 49.0317-53.6L29.9317-72.3C28.7317-73.5 27.1317-74.1 25.5317-74.1L25.5317-74.1ZM28.6317-72.3L28.6317-82.9C28.6317-84.6 27.2317-86 25.5317-86C23.8317-86 22.4317-84.6 22.4317-82.9L22.4317-72.3C22.4317-70.6 23.8317-69.2 25.5317-69.2C27.2317-69.2 28.6317-70.6 28.6317-72.3ZM100.432-74.1C98.8317-74.1 97.2317-73.5 96.0317-72.3L76.9317-53.6C75.1317-51.8 74.5317-49.1 75.5317-46.8C76.5317-44.5 78.7317-42.9 81.3317-42.9L119.432-42.9C121.932-42.9 124.232-44.4 125.232-46.8C126.232-49.1 125.632-51.8 123.832-53.6L104.732-72.3C103.532-73.5 101.932-74.1 100.432-74.1L100.432-74.1ZM103.532-72L103.532-82.9C103.532-84.6 102.132-86 100.432-86C98.7317-86 97.3317-84.6 97.3317-82.9L97.3317-72C97.3317-70.3 98.7317-68.9 100.432-68.9C102.132-68.9 103.532-70.2 103.532-72ZM78.8317 1.4C71.9317 0.1 64.5317-2.4 61.4317-4.3C61.1317-4.3 61.4317-4.3 61.4317-4.3C45.0317-15.6 43.0317-37 43.0317-37L7.93173-37C7.93173-28.1 9.93173-6 28.3317 6.1C52.7317 22.1 83.0317 16.4 99.2317 4.4C100.132 3.7 101.032 3 101.832 2.3C99.2317 2.6 96.3317 2.7 93.2317 2.7C88.7317 2.7 83.9317 2.4 78.8317 1.4ZM93.2317-3.5C99.1317-3.5 104.332-4.2 108.032-4.9C115.732-16.1 118.632-30.6 118.632-37L82.8317-37C79.3317-19.9 73.6317-11.7 69.0317-7.8C72.0317-6.6 75.9317-5.4 79.9317-4.7C84.2317-3.9 88.6317-3.5 93.2317-3.5Z"/>
  </g>
  <g id="Bold-M" transform="matrix(1 0 0 1 2277.84 1126)">
   <path d="M24.8908-72.9C23.4908-72.9 21.9908-72.4 20.8908-71.3L1.99081-52.7C0.29081-51.1-0.20919-48.6 0.69081-46.5C1.59081-44.4 3.69081-42.9 5.99081-42.9L43.7908-42.9C46.0908-42.9 48.1908-44.3 49.0908-46.5C49.9908-48.6 49.4908-51.1 47.7908-52.7L28.8908-71.3C27.7908-72.4 26.3908-72.9 24.8908-72.9L24.8908-72.9ZM27.7908-71.7L27.7908-82.2C27.7908-83.8 26.4908-85.1 24.8908-85.1C23.2908-85.1 21.9908-83.8 21.9908-82.2L21.9908-71.7C21.9908-70.1 23.2908-68.8 24.8908-68.8C26.4908-68.8 27.7908-70.1 27.7908-71.7ZM99.1908-72.9C97.7908-72.9 96.2908-72.4 95.1908-71.3L76.2908-52.7C74.5908-51.1 74.0908-48.6 74.9908-46.5C75.8908-44.4 77.9908-42.9 80.2908-42.9L118.091-42.9C120.391-42.9 122.491-44.3 123.391-46.5C124.291-48.6 123.791-51.1 122.091-52.7L103.191-71.3C102.091-72.4 100.591-72.9 99.1908-72.9L99.1908-72.9ZM101.991-71.3L101.991-82.1C101.991-83.7 100.691-85 99.0908-85C97.4908-85 96.1908-83.7 96.1908-82.1L96.1908-71.3C96.1908-69.7 97.4908-68.4 99.0908-68.4C100.691-68.4 101.991-69.7 101.991-71.3ZM92.0908-3.9C97.7908-3.9 102.691-4.5 106.391-5.2C114.391-16.5 117.291-31.2 117.291-37.6L81.7908-37.6C78.1908-20.1 72.2908-12 67.6908-8.3C70.6908-7.1 74.7908-5.8 78.8908-5.1C83.0908-4.3 87.4908-3.9 92.0908-3.9ZM77.7908 0.6C70.9908-0.7 63.6908-3.2 60.5908-5C60.2908-5 60.5908-5 60.5908-5C44.2908-16.4 42.2908-37.6 42.2908-37.6L7.49081-37.6C7.49081-28.7 9.39081-6.8 27.6908 5.2C51.8908 21.1 81.9908 15.4 97.9908 3.5C98.8908 2.8 99.7908 2.1 100.591 1.4C97.9908 1.7 95.0908 1.8 92.0908 1.8C87.5908 1.8 82.7908 1.5 77.7908 0.6Z"/>
  </g>
  <g id="Semibold-M" transform="matrix(1 0 0 1 1982.14 1126)">
   <path d="M24.2285-71.8C22.9285-71.8 21.6285-71.3 20.6285-70.3L1.82847-51.9C0.328471-50.4-0.171529-48.2 0.628471-46.2C1.42847-44.2 3.32847-43 5.42847-43L42.9285-43C45.0285-43 46.9285-44.3 47.7285-46.2C48.5285-48.2 48.0285-50.4 46.5285-51.9L27.8285-70.3C26.8285-71.3 25.5285-71.8 24.2285-71.8L24.2285-71.8ZM26.8285-71L26.8285-81.4C26.8285-82.8 25.6285-84 24.2285-84C22.8285-84 21.6285-82.8 21.6285-81.4L21.6285-71C21.6285-69.6 22.8285-68.4 24.2285-68.4C25.6285-68.4 26.8285-69.6 26.8285-71ZM97.8285-71.8C96.5285-71.8 95.2285-71.3 94.2285-70.3L75.5285-51.9C74.0285-50.4 73.5285-48.2 74.3285-46.2C75.1285-44.2 77.0285-43 79.1285-43L116.628-43C118.728-43 120.628-44.3 121.428-46.2C122.228-48.1 121.728-50.4 120.228-51.9L101.528-70.3C100.528-71.3 99.2285-71.8 97.8285-71.8L97.8285-71.8ZM100.428-70.7L100.428-81.5C100.428-82.9 99.2285-84.1 97.8285-84.1C96.4285-84.1 95.2285-82.9 95.2285-81.5L95.2285-70.7C95.2285-69.3 96.4285-68.1 97.8285-68.1C99.2285-68.1 100.428-69.2 100.428-70.7ZM90.8285-4.2C96.2285-4.2 101.028-4.8 104.628-5.4C112.828-16.6 115.828-31.6 115.828-38.1L80.6285-38.1C76.9285-20.2 70.9285-12.3 66.2285-8.7C69.2285-7.5 73.4285-6.2 77.6285-5.4C81.8285-4.6 86.2285-4.2 90.8285-4.2ZM76.6285-0.3C69.8285-1.6 62.6285-4.1 59.5285-5.9C59.2285-5.9 59.5285-5.9 59.5285-5.9C43.4285-17.1 41.4285-38.1 41.4285-38.1L6.92847-38.1C6.92847-29.3 8.82847-7.6 27.0285 4.3C51.0285 20.1 80.9285 14.5 96.7285 2.7C97.6285 2 98.4285 1.3 99.2285 0.5C96.6285 0.8 93.8285 0.9 90.7285 0.9C86.4285 0.9 81.6285 0.6 76.6285-0.3Z"/>
  </g>
  <g id="Medium-M" transform="matrix(1 0 0 1 1686.47 1126)">
   <path d="M23.4874-70.6C22.2874-70.6 21.0874-70.2 20.1874-69.3L1.68738-51C0.287384-49.7-0.112616-47.6 0.587384-45.9C1.28738-44.2 2.98738-43 4.88738-43L42.0874-43C43.9874-43 45.6874-44.1 46.3874-45.9C47.0874-47.7 46.6874-49.7 45.2874-51L26.7874-69.3C25.8874-70.2 24.6874-70.6 23.4874-70.6L23.4874-70.6ZM25.8874-69.4L25.8874-80.7C25.8874-82 24.8874-83 23.5874-83C22.2874-83 21.2874-82 21.2874-80.7L21.2874-69.4C21.2874-68.1 22.2874-67.1 23.5874-67.1C24.7874-67.1 25.8874-68.1 25.8874-69.4ZM96.5874-70.6C95.3874-70.6 94.1874-70.2 93.2874-69.3L74.6874-51C73.2874-49.7 72.8874-47.6 73.5874-45.9C74.2874-44.1 75.9874-43 77.8874-43L115.087-43C116.987-43 118.687-44.1 119.387-45.9C120.087-47.7 119.687-49.7 118.287-51L99.6874-69.3C98.8874-70.2 97.6874-70.6 96.5874-70.6L96.5874-70.6ZM98.8874-69.1L98.8874-80.7C98.8874-82 97.8874-83 96.5874-83C95.2874-83 94.2874-82 94.2874-80.7L94.2874-69.1C94.2874-67.8 95.2874-66.8 96.5874-66.8C97.8874-66.7 98.8874-67.8 98.8874-69.1ZM75.4874-1.2C68.7874-2.4 61.5874-4.9 58.4874-6.7C58.1874-6.7 58.4874-6.7 58.4874-6.7C42.4874-17.8 40.5874-38.7 40.5874-38.7L6.38738-38.7C6.38738-30 8.28738-8.5 26.2874 3.4C50.0874 19 79.6874 13.4 95.3874 1.7C96.2874 1 97.0874 0.3 97.8874-0.4C95.2874-0.1 92.4874 0 89.4874 0C85.1874 0.1 80.4874-0.3 75.4874-1.2ZM89.4874-4.6C94.6874-4.6 99.1874-5.1 102.687-5.7C111.087-16.9 114.287-32.2 114.287-38.7L79.3874-38.7C75.6874-20.4 69.3874-12.6 64.6874-9.2C67.6874-8 71.9874-6.6 76.3874-5.8C80.5874-5 84.9874-4.6 89.4874-4.6Z"/>
  </g>
  <g id="Regular-M" transform="matrix(1 0 0 1 1390.67 1126)">
   <path d="M22.7944-69.5C21.6944-69.5 20.6944-69.1 19.8944-68.3L1.49444-50.2C0.294444-49-0.105556-47.2 0.594444-45.6C1.19444-44 2.79444-43 4.49444-43L41.2944-43C42.9944-43 44.4944-44 45.1944-45.6C45.7944-47.2 45.4944-49 44.2944-50.2L25.7944-68.3C24.9944-69.1 23.8944-69.5 22.7944-69.5L22.7944-69.5ZM24.8944-68.8L24.8944-80C24.8944-81.2 23.9944-82.1 22.7944-82.1C21.5944-82.1 20.6944-81.1 20.6944-79.9L20.6944-68.7C20.6944-67.5 21.5944-66.6 22.7944-66.6C23.9944-66.6 24.8944-67.6 24.8944-68.8ZM95.1944-69.5C94.0944-69.5 93.0944-69.1 92.2944-68.3L73.8944-50.2C72.6944-49 72.2944-47.2 72.9944-45.6C73.5944-44 75.1944-43 76.8944-43L113.694-43C115.394-43 116.894-44 117.594-45.6C118.194-47.2 117.894-49 116.694-50.2L98.1944-68.3C97.3944-69.1 96.2944-69.5 95.1944-69.5L95.1944-69.5ZM97.2944-68.4L97.2944-79.9C97.2944-81.1 96.3944-82 95.1944-82C93.9944-82 93.0944-81.1 93.0944-79.9L93.0944-68.4C93.0944-67.2 93.9944-66.3 95.1944-66.3C96.3944-66.3 97.2944-67.3 97.2944-68.4ZM74.3944-2.1C67.7944-3.3 60.5944-5.8 57.5944-7.6C57.2944-7.6 57.5944-7.6 57.5944-7.6C41.6944-18.6 39.7944-39.2 39.7944-39.2L5.89444-39.2C5.89444-30.6 7.79444-9.2 25.5944 2.5C49.1944 18 78.4944 12.5 94.0944 0.9C94.9944 0.3 95.7944-0.4 96.5944-1.2C94.0944-1 91.2944-0.8 88.2944-0.8C83.9944-0.8 79.2944-1.2 74.3944-2.1ZM88.2944-5C93.1944-5 97.5944-5.5 100.994-6C109.694-17.1 112.894-32.7 112.894-39.2L78.2944-39.2C74.3944-20.5 67.8944-12.9 63.1944-9.7C66.1944-8.4 70.5944-7 75.0944-6.1C79.2944-5.4 83.7944-5 88.2944-5Z"/>
  </g>
  <g id="Light-M" transform="matrix(1 0 0 1 1095.29 1126)">
   <path d="M22.0538-68.5C21.1538-68.5 20.1538-68.2 19.4538-67.5L1.35381-49.6C0.253811-48.6-0.0461894-47 0.553811-45.6C1.15381-44.2 2.45381-43.3 3.95381-43.3L40.2538-43.3C41.7538-43.3 43.0538-44.2 43.6538-45.6C44.2538-47 43.8538-48.6 42.8538-49.6L24.6538-67.4C23.9538-68.1 22.9538-68.5 22.0538-68.5L22.0538-68.5ZM23.8538-67.3L23.8538-79.2C23.8538-80.2 23.0538-81 22.0538-81C21.0538-81 20.2538-80.2 20.2538-79.2L20.2538-67.3C20.2538-66.3 21.0538-65.5 22.0538-65.5C23.0538-65.5 23.8538-66.3 23.8538-67.3ZM93.3538-68.5C92.4538-68.5 91.4538-68.2 90.7538-67.5L72.6538-49.6C71.5538-48.6 71.2538-47 71.8538-45.6C72.4538-44.2 73.7538-43.3 75.2538-43.3L111.554-43.3C113.054-43.3 114.354-44.2 114.954-45.6C115.554-47 115.154-48.6 114.154-49.6L95.8538-67.4C95.1538-68.1 94.2538-68.5 93.3538-68.5L93.3538-68.5ZM95.1538-67.9L95.1538-79.2C95.1538-80.2 94.3538-81 93.3538-81C92.3538-81 91.5538-80.2 91.5538-79.2L91.5538-67.9C91.5538-66.9 92.3538-66.1 93.3538-66.1C94.3538-66.1 95.1538-66.9 95.1538-67.9ZM86.4538-5.3C91.0538-5.3 95.2538-5.7 98.5538-6.2C107.354-17.2 110.654-32.9 110.654-39.4L76.6538-39.4C72.7538-20.4 65.9538-13 61.3538-10.1C64.3538-8.8 68.8538-7.3 73.4538-6.5C77.6538-5.7 81.9538-5.3 86.4538-5.3ZM72.7538-2.9C66.2538-4.1 59.1538-6.5 56.2538-8.3C55.9538-8.3 56.2538-8.3 56.2538-8.3C40.6538-19.1 38.7538-39.4 38.7538-39.4L5.35381-39.4C5.35381-30.9 7.25381-9.9 24.7538 1.6C47.9538 16.9 76.8538 11.4 92.1538 0C93.0538-0.6 93.8538-1.3 94.6538-2C92.1538-1.8 89.4538-1.6 86.4538-1.6C82.2538-1.6 77.5538-2 72.7538-2.9Z"/>
  </g>
  <g id="Thin-M" transform="matrix(1 0 0 1 799.731 1126)">
   <path d="M21.3909-67.4C20.5909-67.4 19.7909-67.1 19.1909-66.5L1.19087-48.9C0.290867-48-0.00913308-46.6 0.490867-45.4C0.990867-44.2 2.09087-43.4 3.39087-43.4L39.2909-43.4C40.5909-43.4 41.6909-44.2 42.1909-45.4C42.6909-46.6 42.3909-48 41.4909-48.9L23.4909-66.5C22.9909-67.1 22.1909-67.4 21.3909-67.4L21.3909-67.4ZM22.9909-66.6L22.9909-78.4C22.9909-79.3 22.2909-80 21.3909-80C20.4909-80 19.7909-79.3 19.7909-78.4L19.7909-66.6C19.7909-65.7 20.4909-65 21.3909-65C22.1909-65.1 22.9909-65.8 22.9909-66.6ZM91.8909-67.4C91.0909-67.4 90.2909-67.1 89.6909-66.5L71.6909-48.9C70.7909-48 70.4909-46.6 70.9909-45.4C71.4909-44.2 72.5909-43.4 73.8909-43.4L109.791-43.4C111.091-43.4 112.191-44.2 112.691-45.4C113.191-46.6 112.891-48 111.991-48.9L93.9909-66.5C93.4909-67.1 92.6909-67.4 91.8909-67.4L91.8909-67.4ZM93.4909-66.3L93.4909-78.4C93.4909-79.3 92.7909-80 91.8909-80C90.9909-80 90.3909-79.3 90.3909-78.4L90.3909-66.3C90.3909-65.4 91.0909-64.7 91.9909-64.7C92.8909-64.7 93.4909-65.5 93.4909-66.3ZM85.1909-5.7C89.5909-5.7 93.4909-6.1 96.7909-6.6C105.891-17.5 109.191-33.4 109.191-40L75.3909-40C71.3909-20.4 64.3909-13.3 59.7909-10.7C62.7909-9.4 67.2909-7.8 72.1909-6.9C76.2909-6.1 80.6909-5.7 85.1909-5.7ZM71.5909-3.7C65.0909-4.9 58.1909-7.3 55.1909-9.1C54.8909-9.1 55.1909-9.1 55.1909-9.1C39.7909-19.8 37.8909-40 37.8909-40L4.79087-40C4.79087-31.6 6.59087-10.8 23.9909 0.6C46.9909 15.7 75.5909 10.3 90.7909-1C91.6909-1.6 92.4909-2.3 93.1909-3C90.6909-2.8 87.9909-2.6 85.0909-2.6C80.9909-2.5 76.3909-2.8 71.5909-3.7Z"/>
  </g>
  <g id="Ultralight-M" transform="matrix(1 0 0 1 503.811 1126)">
   <path d="M20.75-66.3C20.05-66.3 19.35-66 18.85-65.5L1.05-48C0.25-47.2 0.05-46.1 0.45-45.1C0.85-44.1 1.85-43.4 2.95-43.4L38.55-43.4C39.65-43.4 40.65-44.1 41.05-45.1C41.45-46.1 41.25-47.3 40.45-48L22.65-65.5C22.15-66 21.45-66.3 20.75-66.3L20.75-66.3ZM22.15-66L22.15-77.7C22.15-78.4 21.55-79 20.85-79C20.15-79 19.55-78.4 19.55-77.7L19.55-66C19.55-65.3 20.15-64.7 20.85-64.7C21.55-64.6 22.15-65.2 22.15-66ZM90.85-66.3C90.15-66.3 89.45-66 88.95-65.5L71.15-48C70.35-47.2 70.15-46.1 70.55-45.1C70.95-44.1 71.95-43.4 73.05-43.4L108.65-43.4C109.75-43.4 110.75-44.1 111.15-45.1C111.55-46.1 111.35-47.3 110.55-48L92.75-65.5C92.15-66 91.45-66.3 90.85-66.3L90.85-66.3ZM92.15-65.7L92.15-77.7C92.15-78.4 91.55-79 90.85-79C90.15-79 89.55-78.4 89.55-77.7L89.55-65.7C89.55-65 90.15-64.4 90.85-64.4C91.55-64.3 92.15-64.9 92.15-65.7ZM70.65-4.6C64.25-5.8 57.35-8.2 54.35-9.9C54.05-9.9 54.35-9.9 54.35-9.9C39.05-20.6 37.15-40.6 37.15-40.6L4.35-40.6C4.35-32.2 6.15-11.6 23.45-0.3C46.25 14.7 74.65 9.4 89.75-1.9C90.55-2.5 91.45-3.2 92.15-3.9C89.75-3.7 86.95-3.5 84.05-3.5C79.95-3.4 75.35-3.7 70.65-4.6ZM84.05-6.1C88.25-6.1 91.95-6.4 95.05-6.9C104.35-17.7 107.75-33.9 107.75-40.6L74.45-40.6C70.35-20.5 63.05-13.6 58.45-11.2C61.45-9.9 66.15-8.2 71.15-7.3C75.25-6.5 79.65-6.1 84.05-6.1Z"/>
  </g>
  <g id="Black-S" transform="matrix(1 0 0 1 2883.62 696)">
   <path d="M20.3285-66.8C19.0285-66.8 17.6285-66.3 16.6285-65.3L1.82847-50.6C0.328471-49.1-0.171529-46.8 0.628471-44.9C1.42847-42.9 3.32847-41.6 5.52847-41.6L35.3285-41.6C37.4285-41.6 39.4285-42.9 40.2285-44.9C41.0285-46.9 40.5285-49.1 39.0285-50.6L24.0285-65.2C23.0285-66.2 21.7285-66.8 20.3285-66.8L20.3285-66.8ZM23.0285-65.8L23.0285-73.3C23.0285-74.8 21.8285-75.9 20.4285-75.9C18.9285-75.9 17.8285-74.7 17.8285-73.3L17.8285-65.8C17.8285-64.3 19.0285-63.2 20.4285-63.2C21.8285-63.1 23.0285-64.3 23.0285-65.8ZM78.9285-66.8C77.6285-66.8 76.2285-66.3 75.2285-65.3L60.3285-50.6C58.8285-49.1 58.3285-46.8 59.1285-44.9C59.9285-42.9 61.8285-41.6 64.0285-41.6L93.8285-41.6C95.9285-41.6 97.9285-42.9 98.7285-44.9C99.5285-46.9 99.0285-49.1 97.5285-50.6L82.6285-65.2C81.5285-66.2 80.2285-66.8 78.9285-66.8L78.9285-66.8ZM81.5285-65.5L81.5285-73.3C81.5285-74.8 80.3285-75.9 78.9285-75.9C77.5285-75.9 76.3285-74.7 76.3285-73.3L76.3285-65.5C76.3285-64 77.5285-62.9 78.9285-62.9C80.3285-62.9 81.5285-64 81.5285-65.5ZM62.0285-5.8C56.6285-6.8 50.9285-8.8 48.4285-10.2C48.2285-10.2 48.4285-10.2 48.4285-10.2C35.6285-19.1 34.0285-35.8 34.0285-35.8L6.62847-35.8C6.62847-28.8 8.12847-11.6 22.5285-2.1C41.6285 10.4 65.3285 6 77.9285-3.4C78.6285-3.9 79.3285-4.5 79.9285-5.1C77.9285-4.9 75.6285-4.8 73.2285-4.8C69.8285-4.8 66.0285-5.1 62.0285-5.8ZM73.3285-10.1C78.1285-10.1 82.3285-10.7 85.1285-11.2C90.9285-20 93.1285-31 93.1285-35.9L65.1285-35.9C62.5285-22.9 58.2285-16.5 54.6285-13.4C56.9285-12.5 59.9285-11.6 62.9285-11C66.3285-10.4 69.7285-10.1 73.3285-10.1Z"/>
  </g>
  <g id="Heavy-S" transform="matrix(1 0 0 1 2587.23 696)">
   <path d="M20.0874-65.8C18.8874-65.8 17.5874-65.3 16.6874-64.4L1.68738-49.7C0.287384-48.3-0.112616-46.2 0.587384-44.4C1.38738-42.6 3.08738-41.4 5.08738-41.4L34.8874-41.4C36.8874-41.4 38.6874-42.6 39.3874-44.4C40.1874-46.2 39.6874-48.3 38.2874-49.7L23.4874-64.4C22.5874-65.3 21.2874-65.8 20.0874-65.8L20.0874-65.8ZM22.4874-64.4L22.4874-72.7C22.4874-74 21.3874-75.1 20.0874-75.1C18.7874-75.1 17.6874-74 17.6874-72.7L17.6874-64.4C17.6874-63.1 18.7874-62 20.0874-62C21.3874-62 22.4874-63 22.4874-64.4ZM78.6874-65.8C77.4874-65.8 76.1874-65.3 75.2874-64.4L60.3874-49.7C58.9874-48.3 58.5874-46.2 59.2874-44.4C60.0874-42.6 61.7874-41.4 63.7874-41.4L93.5874-41.4C95.5874-41.4 97.3874-42.6 98.0874-44.4C98.8874-46.2 98.3874-48.3 96.9874-49.7L82.0874-64.4C81.1874-65.3 79.8874-65.8 78.6874-65.8L78.6874-65.8ZM81.1874-64.1L81.1874-72.7C81.1874-74 80.0874-75.1 78.7874-75.1C77.4874-75.1 76.3874-74 76.3874-72.7L76.3874-64.1C76.3874-62.8 77.4874-61.7 78.7874-61.7C80.0874-61.7 81.1874-62.8 81.1874-64.1ZM61.7874-6.6C56.3874-7.6 50.5874-9.6 48.1874-11C47.9874-11 48.1874-11 48.1874-11C35.3874-20 33.7874-36.7 33.7874-36.7L6.28738-36.7C6.28738-29.7 7.78738-12.4 22.2874-2.9C41.3874 9.6 65.1874 5.1 77.7874-4.3C78.4874-4.8 79.1874-5.4 79.7874-6C77.7874-5.8 75.4874-5.7 73.0874-5.7C69.5874-5.6 65.7874-5.9 61.7874-6.6ZM73.0874-10.5C77.6874-10.5 81.7874-11 84.6874-11.6C90.7874-20.4 92.9874-31.8 92.9874-36.8L64.9874-36.8C62.1874-23.4 57.7874-17 54.1874-13.9C56.4874-13 59.5874-12 62.7874-11.4C65.9874-10.8 69.4874-10.5 73.0874-10.5Z"/>
  </g>
  <g id="Bold-S" transform="matrix(1 0 0 1 2291.29 696)">
   <path d="M19.4908-64.9C18.3908-64.9 17.1908-64.5 16.3908-63.6L1.59083-49C0.29083-47.7-0.10917-45.8 0.59083-44.1C1.29083-42.4 2.89083-41.3 4.69083-41.3L34.2908-41.3C36.0908-41.3 37.7908-42.4 38.3908-44.1C39.0908-45.8 38.6908-47.7 37.3908-49L22.6908-63.6C21.7908-64.4 20.6908-64.9 19.4908-64.9L19.4908-64.9ZM21.7908-63.9L21.7908-72.1C21.7908-73.3 20.7908-74.3 19.5908-74.3C18.3908-74.3 17.3908-73.3 17.3908-72.1L17.3908-63.9C17.3908-62.7 18.3908-61.7 19.5908-61.7C20.7908-61.7 21.7908-62.6 21.7908-63.9ZM77.6908-64.9C76.5908-64.9 75.3908-64.5 74.5908-63.6L59.7908-49C58.4908-47.7 58.0908-45.8 58.7908-44.1C59.4908-42.4 61.0908-41.3 62.8908-41.3L92.4908-41.3C94.2908-41.3 95.9908-42.4 96.5908-44.1C97.2908-45.8 96.8908-47.7 95.5908-49L80.7908-63.6C79.9908-64.4 78.7908-64.9 77.6908-64.9L77.6908-64.9ZM79.8908-63.6L79.8908-72.1C79.8908-73.3 78.8908-74.3 77.6908-74.3C76.4908-74.3 75.4908-73.3 75.4908-72.1L75.4908-63.6C75.4908-62.4 76.4908-61.4 77.6908-61.4C78.8908-61.4 79.8908-62.4 79.8908-63.6ZM72.0908-10.8C76.4908-10.8 80.3908-11.3 83.2908-11.8C89.4908-20.6 91.8908-32.2 91.8908-37.2L64.0908-37.2C61.2908-23.5 56.6908-17.2 53.0908-14.3C55.3908-13.4 58.5908-12.4 61.7908-11.8C65.0908-11.1 68.4908-10.8 72.0908-10.8ZM60.8908-7.3C55.5908-8.3 49.7908-10.3 47.3908-11.7C47.1908-11.7 47.3908-11.7 47.3908-11.7C34.6908-20.5 33.0908-37.1 33.0908-37.1L5.89083-37.1C5.89083-30.2 7.39083-13 21.6908-3.6C40.6908 8.9 64.1908 4.4 76.6908-4.9C77.3908-5.4 78.0908-6 78.6908-6.6C76.6908-6.4 74.3908-6.3 71.9908-6.3C68.5908-6.3 64.8908-6.6 60.8908-7.3Z"/>
  </g>
  <g id="Semibold-S" transform="matrix(1 0 0 1 1995.32 696)">
   <path d="M18.95-64C17.95-64 16.85-63.6 16.05-62.8L1.45-48.4C0.25-47.2-0.05-45.5 0.55-44C1.15-42.5 2.65-41.5 4.35-41.5L33.75-41.5C35.45-41.5 36.85-42.5 37.55-44C38.15-45.5 37.85-47.3 36.65-48.4L21.75-62.8C20.95-63.6 19.95-64 18.95-64L18.95-64ZM20.95-63.4L20.95-71.6C20.95-72.7 20.05-73.6 18.95-73.6C17.85-73.6 16.95-72.7 16.95-71.6L16.95-63.4C16.95-62.3 17.85-61.4 18.95-61.4C20.05-61.3 20.95-62.2 20.95-63.4ZM76.65-64C75.65-64 74.55-63.6 73.75-62.8L59.05-48.4C57.85-47.2 57.55-45.5 58.15-44C58.75-42.5 60.25-41.5 61.95-41.5L91.35-41.5C93.05-41.5 94.45-42.5 95.15-44C95.75-45.5 95.45-47.3 94.25-48.4L79.45-62.8C78.65-63.6 77.65-64 76.65-64L76.65-64ZM78.65-63.1L78.65-71.5C78.65-72.6 77.75-73.5 76.65-73.5C75.55-73.5 74.65-72.6 74.65-71.5L74.65-63.1C74.65-62 75.55-61.1 76.65-61.1C77.75-61.1 78.65-62 78.65-63.1ZM71.05-11.1C75.25-11.1 79.05-11.5 81.85-12C88.25-20.8 90.65-32.6 90.65-37.6L63.15-37.6C60.25-23.6 55.55-17.4 51.85-14.6C54.15-13.7 57.45-12.6 60.75-12C64.05-11.4 67.55-11.1 71.05-11.1ZM60.05-8C54.75-9 49.05-10.9 46.65-12.4C46.45-12.4 46.65-12.4 46.65-12.4C34.05-21.2 32.45-37.6 32.45-37.6L5.45-37.6C5.45-30.7 6.95-13.7 21.15-4.4C39.95 7.9 63.35 3.5 75.75-5.7C76.45-6.2 77.15-6.8 77.75-7.4C75.75-7.2 73.55-7.1 71.15-7.1C67.65-7 63.85-7.3 60.05-8Z"/>
  </g>
  <g id="Medium-S" transform="matrix(1 0 0 1 1699.36 696)">
   <path d="M18.4538-63.1C17.5538-63.1 16.5538-62.7 15.8538-62L1.35381-47.7C0.253811-46.7-0.0461894-45.1 0.553811-43.7C1.15381-42.3 2.45381-41.4 3.95381-41.4L33.0538-41.4C34.5538-41.4 35.8538-42.3 36.4538-43.7C37.0538-45.1 36.6538-46.7 35.6538-47.7L21.0538-62C20.3538-62.7 19.3538-63.1 18.4538-63.1L18.4538-63.1ZM20.2538-62.1L20.2538-71C20.2538-72 19.4538-72.8 18.4538-72.8C17.4538-72.8 16.6538-72 16.6538-71L16.6538-62.2C16.6538-61.2 17.4538-60.4 18.4538-60.4C19.4538-60.3 20.2538-61.1 20.2538-62.1ZM75.6538-63.1C74.7538-63.1 73.7538-62.7 73.0538-62L58.5538-47.7C57.4538-46.7 57.1538-45.1 57.7538-43.7C58.3538-42.3 59.6538-41.4 61.1538-41.4L90.2538-41.4C91.7538-41.4 93.0538-42.3 93.6538-43.7C94.2538-45.1 93.8538-46.7 92.8538-47.7L78.2538-62C77.5538-62.7 76.5538-63.1 75.6538-63.1L75.6538-63.1ZM77.4538-61.9L77.4538-71C77.4538-72 76.6538-72.8 75.6538-72.8C74.6538-72.8 73.8538-72 73.8538-71L73.8538-61.9C73.8538-60.9 74.6538-60.1 75.6538-60.1C76.6538-60 77.4538-60.9 77.4538-61.9ZM59.1538-8.7C53.9538-9.7 48.2538-11.6 45.8538-13C45.6538-13 45.8538-13 45.8538-13C33.3538-21.7 31.8538-38 31.8538-38L5.05381-38C5.05381-31.2 6.55381-14.3 20.6538-5.1C39.2538 7.1 62.4538 2.7 74.7538-6.4C75.4538-6.9 76.1538-7.5 76.7538-8C74.7538-7.8 72.5538-7.7 70.1538-7.7C66.7538-7.7 63.0538-8 59.1538-8.7ZM70.1538-11.4C74.1538-11.4 77.7538-11.8 80.5538-12.3C87.1538-21.1 89.5538-33 89.5538-38.1L62.2538-38.1C59.3538-23.7 54.3538-17.6 50.7538-15C53.1538-14 56.4538-12.9 59.8538-12.3C63.1538-11.7 66.6538-11.4 70.1538-11.4Z"/>
  </g>
  <g id="Regular-S" transform="matrix(1 0 0 1 1403.45 696)">
   <path d="M17.8909-62.2C17.0909-62.2 16.1909-61.9 15.5909-61.3L1.19087-47.1C0.290867-46.2-0.00913308-44.8 0.490867-43.5C0.990867-42.3 2.19087-41.5 3.49087-41.5L32.3909-41.5C33.6909-41.5 34.8909-42.3 35.3909-43.5C35.8909-44.7 35.5909-46.1 34.6909-47.1L20.1909-61.3C19.5909-61.9 18.6909-62.2 17.8909-62.2L17.8909-62.2ZM19.4909-61.6L19.4909-70.3C19.4909-71.2 18.7909-71.9 17.8909-71.9C16.9909-71.9 16.2909-71.2 16.2909-70.3L16.2909-61.6C16.2909-60.7 16.9909-60 17.8909-60C18.7909-60 19.4909-60.7 19.4909-61.6ZM74.5909-62.2C73.7909-62.2 72.8909-61.9 72.2909-61.3L57.8909-47.1C56.9909-46.2 56.6909-44.8 57.1909-43.5C57.6909-42.3 58.8909-41.5 60.1909-41.5L89.0909-41.5C90.3909-41.5 91.5909-42.3 92.0909-43.5C92.5909-44.7 92.2909-46.1 91.3909-47.1L76.8909-61.3C76.2909-61.9 75.3909-62.2 74.5909-62.2L74.5909-62.2ZM76.1909-61.4L76.1909-70.4C76.1909-71.3 75.4909-72 74.5909-72C73.6909-72 72.9909-71.3 72.9909-70.4L72.9909-61.4C72.9909-60.5 73.6909-59.8 74.5909-59.8C75.4909-59.7 76.1909-60.5 76.1909-61.4ZM58.2909-9.4C53.0909-10.4 47.4909-12.3 45.0909-13.7C44.8909-13.7 45.0909-13.7 45.0909-13.7C32.6909-22.3 31.1909-38.5 31.1909-38.5L4.59087-38.5C4.59087-31.7 6.09087-15 19.9909-5.9C38.4909 6.3 61.4909 2 73.6909-7.1C74.3909-7.6 74.9909-8.2 75.6909-8.7C73.6909-8.5 71.4909-8.4 69.1909-8.4C65.7909-8.4 62.0909-8.7 58.2909-9.4ZM69.1909-11.7C72.9909-11.7 76.4909-12.1 79.1909-12.5C85.9909-21.2 88.4909-33.4 88.4909-38.5L61.2909-38.5C58.2909-23.8 53.1909-17.8 49.4909-15.4C51.8909-14.4 55.2909-13.3 58.8909-12.6C62.1909-12 65.5909-11.7 69.1909-11.7Z"/>
  </g>
  <g id="Light-S" transform="matrix(1 0 0 1 1107.91 696)">
   <path d="M17.2944-61.4C16.5944-61.4 15.8944-61.1 15.2944-60.6L1.09444-46.6C0.294444-45.8-0.00555556-44.6 0.494444-43.5C0.894444-42.4 1.99444-41.7 3.09444-41.7L31.4944-41.7C32.6944-41.7 33.6944-42.4 34.0944-43.5C34.4944-44.6 34.2944-45.8 33.4944-46.6L19.2944-60.6C18.6944-61.1 17.9944-61.4 17.2944-61.4L17.2944-61.4ZM18.6944-60.5L18.6944-69.8C18.6944-70.6 18.0944-71.2 17.2944-71.2C16.4944-71.2 15.8944-70.6 15.8944-69.8L15.8944-60.5C15.8944-59.7 16.4944-59.1 17.2944-59.1C18.0944-59.1 18.6944-59.7 18.6944-60.5ZM72.9944-61.4C72.2944-61.4 71.5944-61.1 70.9944-60.6L56.7944-46.6C55.9944-45.8 55.6944-44.6 56.1944-43.5C56.5944-42.4 57.6944-41.7 58.7944-41.7L87.1944-41.7C88.3944-41.7 89.3944-42.4 89.7944-43.5C90.1944-44.6 89.9944-45.8 89.1944-46.6L74.9944-60.6C74.4944-61.1 73.7944-61.4 72.9944-61.4L72.9944-61.4ZM74.4944-60.9L74.4944-69.8C74.4944-70.6 73.8944-71.2 73.0944-71.2C72.2944-71.2 71.6944-70.6 71.6944-69.8L71.6944-60.9C71.6944-60.1 72.2944-59.5 73.0944-59.5C73.7944-59.5 74.4944-60.1 74.4944-60.9ZM67.6944-11.9C71.2944-11.9 74.5944-12.2 77.1944-12.6C84.0944-21.2 86.6944-33.5 86.6944-38.6L59.9944-38.6C56.9944-23.7 51.6944-17.9 47.9944-15.6C50.3944-14.6 53.8944-13.4 57.4944-12.7C60.7944-12.2 64.1944-11.9 67.6944-11.9ZM56.9944-10C51.8944-11 46.3944-12.9 43.9944-14.2C43.7944-14.2 43.9944-14.2 43.9944-14.2C31.7944-22.7 30.2944-38.6 30.2944-38.6L4.19444-38.6C4.19444-32 5.59444-15.6 19.3944-6.5C37.5944 5.4 60.1944 1.2 72.1944-7.8C72.8944-8.3 73.4944-8.8 74.0944-9.4C72.0944-9.2 69.9944-9.1 67.6944-9.1C64.3944-9.1 60.6944-9.3 56.9944-10Z"/>
  </g>
  <g id="Thin-S" transform="matrix(1 0 0 1 811.905 696)">
   <path d="M16.785-60.5C16.185-60.5 15.485-60.3 15.085-59.8L0.985-46C0.285-45.3 0.085-44.2 0.385-43.3C0.785-42.4 1.685-41.8 2.685-41.8L30.785-41.8C31.785-41.8 32.685-42.4 33.085-43.3C33.485-44.2 33.285-45.3 32.485-46L18.585-59.8C18.085-60.3 17.485-60.5 16.785-60.5L16.785-60.5ZM18.085-60L18.085-69.2C18.085-69.9 17.485-70.4 16.885-70.4C16.185-70.4 15.685-69.8 15.685-69.2L15.685-60C15.685-59.3 16.285-58.8 16.885-58.8C17.485-58.7 18.085-59.3 18.085-60ZM72.085-60.5C71.485-60.5 70.785-60.3 70.385-59.8L56.285-46C55.585-45.3 55.385-44.2 55.685-43.3C56.085-42.4 56.985-41.8 57.985-41.8L86.085-41.8C87.085-41.8 87.985-42.4 88.385-43.3C88.785-44.2 88.585-45.3 87.785-46L73.785-59.8C73.285-60.3 72.685-60.5 72.085-60.5L72.085-60.5ZM73.285-59.7L73.285-69.2C73.285-69.9 72.685-70.4 72.085-70.4C71.385-70.4 70.885-69.8 70.885-69.2L70.885-59.7C70.885-59 71.485-58.5 72.085-58.5C72.785-58.5 73.285-59 73.285-59.7ZM66.785-12.2C70.185-12.2 73.285-12.5 75.785-12.9C82.885-21.4 85.485-33.9 85.485-39.1L59.085-39.1C55.985-23.8 50.485-18.2 46.885-16.1C49.185-15.1 52.785-13.9 56.585-13.1C59.885-12.5 63.285-12.2 66.785-12.2ZM56.185-10.7C51.085-11.6 45.685-13.5 43.385-14.9C43.185-14.9 43.385-14.9 43.385-14.9C31.285-23.3 29.785-39.1 29.785-39.1L3.885-39.1C3.885-32.5 5.285-16.2 18.885-7.3C36.885 4.5 59.285 0.3 71.185-8.5C71.885-9 72.485-9.5 73.085-10.1C71.185-9.9 68.985-9.8 66.685-9.8C63.485-9.7 59.885-10 56.185-10.7Z"/>
  </g>
  <g id="Ultralight-S" transform="matrix(1 0 0 1 515.888 696)">
   <path d="M16.3581-59.7C15.8581-59.7 15.2581-59.5 14.8581-59.1L0.858104-45.4C0.258104-44.7 0.0581037-43.8 0.458104-43C0.758104-42.2 1.5581-41.7 2.4581-41.7L30.3581-41.7C31.2581-41.7 31.9581-42.2 32.3581-43C32.6581-43.8 32.4581-44.7 31.8581-45.3L17.8581-59C17.3581-59.5 16.8581-59.7 16.3581-59.7L16.3581-59.7ZM17.3581-59.4L17.3581-68.6C17.3581-69.2 16.8581-69.7 16.2581-69.7C15.6581-69.7 15.1581-69.2 15.1581-68.6L15.1581-59.4C15.1581-58.8 15.6581-58.3 16.2581-58.3C16.8581-58.3 17.3581-58.8 17.3581-59.4ZM71.1581-59.7C70.6581-59.7 70.0581-59.5 69.6581-59.1L55.6581-45.4C55.0581-44.8 54.8581-43.9 55.1581-43.1C55.4581-42.3 56.2581-41.8 57.1581-41.8L85.0581-41.8C85.9581-41.8 86.6581-42.3 87.0581-43.1C87.3581-43.9 87.1581-44.8 86.5581-45.4L72.5581-59.1C72.2581-59.5 71.6581-59.7 71.1581-59.7L71.1581-59.7ZM72.2581-59.2L72.2581-68.6C72.2581-69.2 71.7581-69.7 71.1581-69.7C70.5581-69.7 70.0581-69.2 70.0581-68.6L70.0581-59.2C70.0581-58.6 70.5581-58.1 71.1581-58.1C71.7581-58.1 72.2581-58.6 72.2581-59.2ZM55.3581-11.4C50.3581-12.3 44.9581-14.2 42.6581-15.6C42.4581-15.6 42.6581-15.6 42.6581-15.6C30.6581-23.9 29.1581-39.6 29.1581-39.6L3.4581-39.6C3.4581-33 4.9581-16.8 18.4581-8C36.2581 3.8 58.4581-0.4 70.3581-9.2C71.0581-9.7 71.6581-10.2 72.2581-10.8C70.3581-10.6 68.2581-10.5 65.9581-10.5C62.6581-10.4 59.0581-10.7 55.3581-11.4ZM65.8581-12.6C69.1581-12.6 72.0581-12.9 74.4581-13.2C81.7581-21.7 84.4581-34.4 84.4581-39.6L58.3581-39.6C55.1581-23.9 49.3581-18.4 45.8581-16.6C48.1581-15.6 51.8581-14.3 55.8581-13.5C58.9581-12.9 62.4581-12.6 65.8581-12.6Z"/>
  </g>
 </g>
</svg>
