<?xml version="1.0" encoding="UTF-8"?>
<!--Generator: Apple Native CoreSVG 175.5-->
<!DOCTYPE svg
PUBLIC "-//W3C//DTD SVG 1.1//EN"
       "http://www.w3.org/Graphics/SVG/1.1/DTD/svg11.dtd">
<svg version="1.1" xmlns="http://www.w3.org/2000/svg" xmlns:xlink="http://www.w3.org/1999/xlink" width="3300" height="2200">
 <!--glyph: "", point size: 100.0, font version: "18.0d9e1", template writer version: "84"-->
 <g id="Notes">
  <rect height="2200" id="artboard" style="fill:white;opacity:1" width="3300" x="0" y="0"/>
  <line style="fill:none;stroke:black;opacity:1;stroke-width:0.5;" x1="263" x2="3036" y1="292" y2="292"/>
  <text style="stroke:none;fill:black;font-family:sans-serif;font-size:13;font-weight:bold;" transform="matrix(1 0 0 1 263 322)">Weight/Scale Variations</text>
  <text style="stroke:none;fill:black;font-family:sans-serif;font-size:13;text-anchor:middle;" transform="matrix(1 0 0 1 559.711 322)">Ultralight</text>
  <text style="stroke:none;fill:black;font-family:sans-serif;font-size:13;text-anchor:middle;" transform="matrix(1 0 0 1 856.422 322)">Thin</text>
  <text style="stroke:none;fill:black;font-family:sans-serif;font-size:13;text-anchor:middle;" transform="matrix(1 0 0 1 1153.13 322)">Light</text>
  <text style="stroke:none;fill:black;font-family:sans-serif;font-size:13;text-anchor:middle;" transform="matrix(1 0 0 1 1449.84 322)">Regular</text>
  <text style="stroke:none;fill:black;font-family:sans-serif;font-size:13;text-anchor:middle;" transform="matrix(1 0 0 1 1746.56 322)">Medium</text>
  <text style="stroke:none;fill:black;font-family:sans-serif;font-size:13;text-anchor:middle;" transform="matrix(1 0 0 1 2043.27 322)">Semibold</text>
  <text style="stroke:none;fill:black;font-family:sans-serif;font-size:13;text-anchor:middle;" transform="matrix(1 0 0 1 2339.98 322)">Bold</text>
  <text style="stroke:none;fill:black;font-family:sans-serif;font-size:13;text-anchor:middle;" transform="matrix(1 0 0 1 2636.69 322)">Heavy</text>
  <text style="stroke:none;fill:black;font-family:sans-serif;font-size:13;text-anchor:middle;" transform="matrix(1 0 0 1 2933.4 322)">Black</text>
  <line style="fill:none;stroke:black;opacity:1;stroke-width:0.5;" x1="263" x2="3036" y1="1903" y2="1903"/>
  <g transform="matrix(1 0 0 1 263 1933)">
   <path d="M9.24805 0.830078Q10.8691 0.830078 12.2949 0.214844Q13.7207-0.400391 14.8096-1.49414Q15.8984-2.58789 16.5186-4.01367Q17.1387-5.43945 17.1387-7.05078Q17.1387-8.66211 16.5186-10.0879Q15.8984-11.5137 14.8047-12.6074Q13.7109-13.7012 12.2852-14.3164Q10.8594-14.9316 9.23828-14.9316Q7.62695-14.9316 6.20117-14.3164Q4.77539-13.7012 3.69141-12.6074Q2.60742-11.5137 1.9873-10.0879Q1.36719-8.66211 1.36719-7.05078Q1.36719-5.43945 1.9873-4.01367Q2.60742-2.58789 3.69629-1.49414Q4.78516-0.400391 6.21094 0.214844Q7.63672 0.830078 9.24805 0.830078ZM9.24805-0.654297Q7.91992-0.654297 6.7627-1.14746Q5.60547-1.64062 4.73145-2.51953Q3.85742-3.39844 3.36426-4.56055Q2.87109-5.72266 2.87109-7.05078Q2.87109-8.37891 3.35938-9.54102Q3.84766-10.7031 4.72168-11.582Q5.5957-12.4609 6.75293-12.9541Q7.91016-13.4473 9.23828-13.4473Q10.5762-13.4473 11.7383-12.9541Q12.9004-12.4609 13.7793-11.582Q14.6582-10.7031 15.1514-9.54102Q15.6445-8.37891 15.6445-7.05078Q15.6445-5.72266 15.1514-4.56055Q14.6582-3.39844 13.7793-2.51953Q12.9004-1.64062 11.7432-1.14746Q10.5859-0.654297 9.24805-0.654297ZM5.6543-7.05078Q5.6543-6.72852 5.85938-6.52832Q6.06445-6.32812 6.40625-6.32812L8.51562-6.32812L8.51562-4.20898Q8.51562-3.88672 8.71094-3.67676Q8.90625-3.4668 9.23828-3.4668Q9.56055-3.4668 9.77051-3.67676Q9.98047-3.88672 9.98047-4.20898L9.98047-6.32812L12.0898-6.32812Q12.4219-6.32812 12.627-6.52832Q12.832-6.72852 12.832-7.05078Q12.832-7.38281 12.627-7.58789Q12.4219-7.79297 12.0898-7.79297L9.98047-7.79297L9.98047-9.90234Q9.98047-10.2344 9.77051-10.4443Q9.56055-10.6543 9.23828-10.6543Q8.90625-10.6543 8.71094-10.4443Q8.51562-10.2344 8.51562-9.90234L8.51562-7.79297L6.40625-7.79297Q6.06445-7.79297 5.85938-7.58789Q5.6543-7.38281 5.6543-7.05078Z"/>
  </g>
  <g transform="matrix(1 0 0 1 281.867 1933)">
   <path d="M11.709 2.91016Q13.75 2.91016 15.5518 2.12891Q17.3535 1.34766 18.7305-0.0292969Q20.1074-1.40625 20.8887-3.20801Q21.6699-5.00977 21.6699-7.05078Q21.6699-9.0918 20.8887-10.8936Q20.1074-12.6953 18.7305-14.0723Q17.3535-15.4492 15.5469-16.2305Q13.7402-17.0117 11.6992-17.0117Q9.6582-17.0117 7.85645-16.2305Q6.05469-15.4492 4.68262-14.0723Q3.31055-12.6953 2.5293-10.8936Q1.74805-9.0918 1.74805-7.05078Q1.74805-5.00977 2.5293-3.20801Q3.31055-1.40625 4.6875-0.0292969Q6.06445 1.34766 7.86621 2.12891Q9.66797 2.91016 11.709 2.91016ZM11.709 1.25Q9.98047 1.25 8.47656 0.605469Q6.97266-0.0390625 5.83496-1.17676Q4.69727-2.31445 4.05762-3.81836Q3.41797-5.32227 3.41797-7.05078Q3.41797-8.7793 4.05762-10.2832Q4.69727-11.7871 5.83008-12.9297Q6.96289-14.0723 8.4668-14.7119Q9.9707-15.3516 11.6992-15.3516Q13.4277-15.3516 14.9365-14.7119Q16.4453-14.0723 17.583-12.9297Q18.7207-11.7871 19.3652-10.2832Q20.0098-8.7793 20.0098-7.05078Q20.0098-5.32227 19.3701-3.81836Q18.7305-2.31445 17.5879-1.17676Q16.4453-0.0390625 14.9414 0.605469Q13.4375 1.25 11.709 1.25ZM7.17773-7.05078Q7.17773-6.69922 7.41211-6.47461Q7.64648-6.25 8.01758-6.25L10.8887-6.25L10.8887-3.36914Q10.8887-2.99805 11.1133-2.76855Q11.3379-2.53906 11.6895-2.53906Q12.0605-2.53906 12.29-2.76855Q12.5195-2.99805 12.5195-3.36914L12.5195-6.25L15.4004-6.25Q15.7715-6.25 16.001-6.47461Q16.2305-6.69922 16.2305-7.05078Q16.2305-7.42188 16.001-7.65137Q15.7715-7.88086 15.4004-7.88086L12.5195-7.88086L12.5195-10.752Q12.5195-11.1328 12.29-11.3623Q12.0605-11.5918 11.6895-11.5918Q11.3379-11.5918 11.1133-11.3574Q10.8887-11.123 10.8887-10.752L10.8887-7.88086L8.01758-7.88086Q7.63672-7.88086 7.40723-7.65137Q7.17773-7.42188 7.17773-7.05078Z"/>
  </g>
  <g transform="matrix(1 0 0 1 305.646 1933)">
   <path d="M14.9707 5.66406Q17.0605 5.66406 18.96 5.01465Q20.8594 4.36523 22.4512 3.19336Q24.043 2.02148 25.2197 0.429688Q26.3965-1.16211 27.0459-3.06641Q27.6953-4.9707 27.6953-7.05078Q27.6953-9.14062 27.0459-11.04Q26.3965-12.9395 25.2197-14.5312Q24.043-16.123 22.4512-17.2998Q20.8594-18.4766 18.9551-19.126Q17.0508-19.7754 14.9609-19.7754Q12.8711-19.7754 10.9717-19.126Q9.07227-18.4766 7.48535-17.2998Q5.89844-16.123 4.72168-14.5312Q3.54492-12.9395 2.90039-11.04Q2.25586-9.14062 2.25586-7.05078Q2.25586-4.9707 2.90527-3.06641Q3.55469-1.16211 4.72656 0.429688Q5.89844 2.02148 7.49023 3.19336Q9.08203 4.36523 10.9814 5.01465Q12.8809 5.66406 14.9707 5.66406ZM14.9707 3.84766Q13.1641 3.84766 11.5283 3.2959Q9.89258 2.74414 8.53516 1.74805Q7.17773 0.751953 6.17676-0.610352Q5.17578-1.97266 4.62891-3.6084Q4.08203-5.24414 4.08203-7.05078Q4.08203-8.86719 4.62891-10.5029Q5.17578-12.1387 6.17188-13.501Q7.16797-14.8633 8.52539-15.8594Q9.88281-16.8555 11.5186-17.4023Q13.1543-17.9492 14.9609-17.9492Q16.7773-17.9492 18.4131-17.4023Q20.0488-16.8555 21.4111-15.8594Q22.7734-14.8633 23.7744-13.501Q24.7754-12.1387 25.3223-10.5029Q25.8691-8.86719 25.8691-7.05078Q25.8691-5.24414 25.3223-3.6084Q24.7754-1.97266 23.7793-0.610352Q22.7832 0.751953 21.4209 1.74805Q20.0586 2.74414 18.4229 3.2959Q16.7871 3.84766 14.9707 3.84766ZM9.19922-7.05078Q9.19922-6.66992 9.45801-6.4209Q9.7168-6.17188 10.1172-6.17188L14.0625-6.17188L14.0625-2.2168Q14.0625-1.81641 14.3115-1.55762Q14.5605-1.29883 14.9512-1.29883Q15.3516-1.29883 15.6104-1.55273Q15.8691-1.80664 15.8691-2.2168L15.8691-6.17188L19.8242-6.17188Q20.2246-6.17188 20.4785-6.4209Q20.7324-6.66992 20.7324-7.05078Q20.7324-7.46094 20.4785-7.71484Q20.2246-7.96875 19.8242-7.96875L15.8691-7.96875L15.8691-11.9141Q15.8691-12.3242 15.6104-12.583Q15.3516-12.8418 14.9512-12.8418Q14.5605-12.8418 14.3115-12.583Q14.0625-12.3242 14.0625-11.9141L14.0625-7.96875L10.1172-7.96875Q9.70703-7.96875 9.45312-7.71484Q9.19922-7.46094 9.19922-7.05078Z"/>
  </g>
  <text style="stroke:none;fill:black;font-family:sans-serif;font-size:13;font-weight:bold;" transform="matrix(1 0 0 1 263 1953)">Design Variations</text>
  <text style="stroke:none;fill:black;font-family:sans-serif;font-size:13;" transform="matrix(1 0 0 1 263 1971)">Symbols are supported in up to nine weights and three scales.</text>
  <text style="stroke:none;fill:black;font-family:sans-serif;font-size:13;" transform="matrix(1 0 0 1 263 1989)">For optimal layout with text and other symbols, vertically align</text>
  <text style="stroke:none;fill:black;font-family:sans-serif;font-size:13;" transform="matrix(1 0 0 1 263 2007)">symbols with the adjacent text.</text>
  <line style="fill:none;stroke:#00AEEF;stroke-width:0.5;opacity:1.0;" x1="776" x2="776" y1="1919" y2="1933"/>
  <g transform="matrix(1 0 0 1 776 1933)">
   <path d="M3.31055 0.15625Q3.70117 0.15625 3.91602-0.00976562Q4.13086-0.175781 4.26758-0.585938L5.52734-4.0332L11.2891-4.0332L12.5488-0.585938Q12.6855-0.175781 12.9004-0.00976562Q13.1152 0.15625 13.4961 0.15625Q13.8867 0.15625 14.1162-0.0585938Q14.3457-0.273438 14.3457-0.644531Q14.3457-0.869141 14.2383-1.17188L9.6582-13.3691Q9.48242-13.8184 9.17969-14.043Q8.87695-14.2676 8.4082-14.2676Q7.5-14.2676 7.17773-13.3789L2.59766-1.16211Q2.49023-0.859375 2.49023-0.634766Q2.49023-0.263672 2.70996-0.0537109Q2.92969 0.15625 3.31055 0.15625ZM6.00586-5.51758L8.37891-12.0898L8.42773-12.0898L10.8008-5.51758Z"/>
  </g>
  <line style="fill:none;stroke:#00AEEF;stroke-width:0.5;opacity:1.0;" x1="793.197" x2="793.197" y1="1919" y2="1933"/>
  <text style="stroke:none;fill:black;font-family:sans-serif;font-size:13;font-weight:bold;" transform="matrix(1 0 0 1 776 1953)">Margins</text>
  <text style="stroke:none;fill:black;font-family:sans-serif;font-size:13;" transform="matrix(1 0 0 1 776 1971)">Leading and trailing margins on the left and right side of each symbol</text>
  <text style="stroke:none;fill:black;font-family:sans-serif;font-size:13;" transform="matrix(1 0 0 1 776 1989)">can be adjusted by modifying the x-location of the margin guidelines.</text>
  <text style="stroke:none;fill:black;font-family:sans-serif;font-size:13;" transform="matrix(1 0 0 1 776 2007)">Modifications are automatically applied proportionally to all</text>
  <text style="stroke:none;fill:black;font-family:sans-serif;font-size:13;" transform="matrix(1 0 0 1 776 2025)">scales and weights.</text>
  <g transform="matrix(1 0 0 1 1289 1933)">
   <path d="M2.8418 1.86523L4.54102 3.57422Q5.18555 4.22852 5.90332 4.17969Q6.62109 4.13086 7.31445 3.35938L18.0078-8.42773L17.041-9.4043L6.42578 2.27539Q6.16211 2.57812 5.89355 2.61719Q5.625 2.65625 5.27344 2.30469L4.10156 1.14258Q3.75 0.791016 3.79395 0.522461Q3.83789 0.253906 4.14062-0.0195312L15.6152-10.8203L14.6387-11.7871L3.04688-0.898438Q2.30469-0.214844 2.25098 0.498047Q2.19727 1.21094 2.8418 1.86523ZM9.25781-16.3281Q8.94531-16.0254 8.90625-15.6348Q8.86719-15.2441 9.04297-14.9512Q9.21875-14.6777 9.55566-14.541Q9.89258-14.4043 10.3809-14.5215Q11.4746-14.7754 12.5977-14.7314Q13.7207-14.6875 14.7949-13.9844L14.209-12.5293Q13.9551-11.9043 14.0674-11.4404Q14.1797-10.9766 14.5801-10.5664L16.875-8.25195Q17.2363-7.88086 17.5781-7.82227Q17.9199-7.76367 18.3398-7.8418L19.4043-8.03711L20.0684-7.36328L20.0293-6.80664Q20-6.43555 20.1221-6.12305Q20.2441-5.81055 20.6055-5.44922L21.3672-4.70703Q21.7285-4.3457 22.1533-4.33105Q22.5781-4.31641 22.9297-4.66797L25.8398-7.58789Q26.1914-7.93945 26.1816-8.35449Q26.1719-8.76953 25.8105-9.13086L25.0391-9.89258Q24.6875-10.2539 24.3799-10.3857Q24.0723-10.5176 23.7109-10.4883L23.1348-10.4395L22.4902-11.0742L22.7344-12.1973Q22.832-12.6172 22.6953-12.9834Q22.5586-13.3496 22.1191-13.7891L19.9219-15.9766Q18.6719-17.2168 17.2607-17.8369Q15.8496-18.457 14.4189-18.4814Q12.9883-18.5059 11.665-17.959Q10.3418-17.4121 9.25781-16.3281ZM10.752-15.957Q11.6602-16.6211 12.7002-16.9043Q13.7402-17.1875 14.8047-17.085Q15.8691-16.9824 16.8701-16.5137Q17.8711-16.0449 18.7012-15.2051L21.1328-12.793Q21.3086-12.6172 21.3525-12.4512Q21.3965-12.2852 21.3379-12.0312L21.0156-10.5469L22.5195-9.0625L23.5059-9.12109Q23.6914-9.13086 23.7891-9.09668Q23.8867-9.0625 24.0332-8.91602L24.6094-8.33984L22.168-5.89844L21.5918-6.47461Q21.4453-6.62109 21.4062-6.71875Q21.3672-6.81641 21.377-7.01172L21.4453-7.98828L19.9512-9.47266L18.4277-9.21875Q18.1836-9.16992 18.042-9.2041Q17.9004-9.23828 17.7148-9.41406L15.7129-11.416Q15.5176-11.5918 15.4932-11.7529Q15.4688-11.9141 15.5859-12.1875L16.4648-14.2773Q15.293-15.3711 13.8281-15.791Q12.3633-16.2109 10.8398-15.7617Q10.7227-15.7324 10.6885-15.8057Q10.6543-15.8789 10.752-15.957Z"/>
  </g>
  <text style="stroke:none;fill:black;font-family:sans-serif;font-size:13;font-weight:bold;" transform="matrix(1 0 0 1 1289 1953)">Exporting</text>
  <text style="stroke:none;fill:black;font-family:sans-serif;font-size:13;" transform="matrix(1 0 0 1 1289 1971)">Symbols should be outlined when exporting to ensure the</text>
  <text style="stroke:none;fill:black;font-family:sans-serif;font-size:13;" transform="matrix(1 0 0 1 1289 1989)">design is preserved when submitting to Xcode.</text>
  <text id="template-version" style="stroke:none;fill:black;font-family:sans-serif;font-size:13;text-anchor:end;" transform="matrix(1 0 0 1 3036 1933)">Template v.2.0</text>
  <text style="stroke:none;fill:black;font-family:sans-serif;font-size:13;text-anchor:end;" transform="matrix(1 0 0 1 3036 1951)">Requires Xcode 12 or greater</text>
  <text id="descriptive-name" style="stroke:none;fill:black;font-family:sans-serif;font-size:13;text-anchor:end;" transform="matrix(1 0 0 1 3036 1969)">Generated from custom.folding_cloths</text>
  <text style="stroke:none;fill:black;font-family:sans-serif;font-size:13;text-anchor:end;" transform="matrix(1 0 0 1 3036 1987)">Typeset at 100 points</text>
  <text style="stroke:none;fill:black;font-family:sans-serif;font-size:13;" transform="matrix(1 0 0 1 263 726)">Small</text>
  <text style="stroke:none;fill:black;font-family:sans-serif;font-size:13;" transform="matrix(1 0 0 1 263 1156)">Medium</text>
  <text style="stroke:none;fill:black;font-family:sans-serif;font-size:13;" transform="matrix(1 0 0 1 263 1586)">Large</text>
 </g>
 <g id="Guides">
  <g id="H-reference" style="fill:#27AAE1;stroke:none;" transform="matrix(1 0 0 1 339 696)">
   <path d="M0.993347 0L3.6377 0L29.3282-67.1326L30.0301-67.1326L30.0301-70.459L28.1227-70.459ZM11.6882-24.4797L46.9818-24.4797L46.2311-26.7288L12.4382-26.7288ZM55.1193 0L57.7637 0L30.6381-70.459L29.4327-70.459L29.4327-67.1326Z"/>
  </g>
  <line id="Baseline-S" style="fill:none;stroke:#27AAE1;opacity:1;stroke-width:0.5;" x1="263" x2="3036" y1="696" y2="696"/>
  <line id="Capline-S" style="fill:none;stroke:#27AAE1;opacity:1;stroke-width:0.5;" x1="263" x2="3036" y1="625.541" y2="625.541"/>
  <g id="H-reference" style="fill:#27AAE1;stroke:none;" transform="matrix(1 0 0 1 339 1126)">
   <path d="M0.993347 0L3.6377 0L29.3282-67.1326L30.0301-67.1326L30.0301-70.459L28.1227-70.459ZM11.6882-24.4797L46.9818-24.4797L46.2311-26.7288L12.4382-26.7288ZM55.1193 0L57.7637 0L30.6381-70.459L29.4327-70.459L29.4327-67.1326Z"/>
  </g>
  <line id="Baseline-M" style="fill:none;stroke:#27AAE1;opacity:1;stroke-width:0.5;" x1="263" x2="3036" y1="1126" y2="1126"/>
  <line id="Capline-M" style="fill:none;stroke:#27AAE1;opacity:1;stroke-width:0.5;" x1="263" x2="3036" y1="1055.54" y2="1055.54"/>
  <g id="H-reference" style="fill:#27AAE1;stroke:none;" transform="matrix(1 0 0 1 339 1556)">
   <path d="M0.993347 0L3.6377 0L29.3282-67.1326L30.0301-67.1326L30.0301-70.459L28.1227-70.459ZM11.6882-24.4797L46.9818-24.4797L46.2311-26.7288L12.4382-26.7288ZM55.1193 0L57.7637 0L30.6381-70.459L29.4327-70.459L29.4327-67.1326Z"/>
  </g>
  <line id="Baseline-L" style="fill:none;stroke:#27AAE1;opacity:1;stroke-width:0.5;" x1="263" x2="3036" y1="1556" y2="1556"/>
  <line id="Capline-L" style="fill:none;stroke:#27AAE1;opacity:1;stroke-width:0.5;" x1="263" x2="3036" y1="1485.54" y2="1485.54"/>
  <line id="left-margin" style="fill:none;stroke:#00AEEF;stroke-width:0.5;opacity:1.0;" x1="1390.34" x2="1390.34" y1="1030.73" y2="1150.14"/>
  <line id="right-margin" style="fill:none;stroke:#00AEEF;stroke-width:0.5;opacity:1.0;" x1="1509.34" x2="1509.34" y1="1030.73" y2="1150.14"/>
 </g>
 <g id="Symbols">
  <g id="Black-L" transform="matrix(1 0 0 1 2869.15 1556)">
   <path d="M98.45-36.9L39.65-36.9C25.05-36.9 13.15-48.8 13.15-63.4C13.15-78 25.05-89.9 39.65-89.9L107.95-89.9C112.05-89.9 115.45-86.6 115.45-82.4C115.45-78.3 112.15-74.9 107.95-74.9L39.65-74.9C33.25-74.9 28.05-69.7 28.05-63.3C28.05-56.9 33.25-51.7 39.65-51.7L98.35-51.7C99.55-51.7 100.55-52.7 100.55-53.9C100.55-55.1 99.55-56.1 98.35-56.1L40.35-56.1C36.25-56.1 32.85-59.4 32.85-63.6C32.85-67.8 36.15-71.1 40.35-71.1L98.45-71.1C107.85-71.1 115.55-63.4 115.55-54C115.45-44.5 107.85-36.9 98.45-36.9ZM115.45 3.1C115.45-6.3 107.75-14 98.35-14L40.35-14C36.25-14 32.85-10.7 32.85-6.5C32.85-2.3 36.15 1 40.35 1L98.45 1C99.65 1 100.65 2 100.65 3.2C100.65 4.4 99.65 5.4 98.45 5.4L39.65 5.4C33.35 5.2 28.15 0 28.15-6.3C28.15-12.6 33.35-17.9 39.75-17.9L108.05-17.9C112.15-17.9 115.55-21.2 115.55-25.4C115.55-29.6 112.25-32.9 108.05-32.9L39.65-32.9C25.05-32.9 13.15-21 13.15-6.4C13.15 8.2 25.05 20.1 39.65 20.1L98.35 20.1C107.85 20.2 115.45 12.5 115.45 3.1Z"/>
  </g>
  <g id="Heavy-L" transform="matrix(1 0 0 1 2573.44 1556)">
   <path d="M96.95-37.1L39.05-37.1C24.75-37.1 13.15-48.7 13.15-63C13.15-77.3 24.75-88.9 39.05-88.9L106.45-88.9C110.35-88.9 113.55-85.7 113.55-81.8C113.55-77.9 110.35-74.7 106.45-74.7L39.05-74.7C32.65-74.7 27.45-69.5 27.45-63.1C27.45-56.7 32.65-51.5 39.05-51.5L96.95-51.5C98.25-51.5 99.25-52.6 99.25-53.8C99.25-55.1 98.15-56.2 96.95-56.2L39.65-56.2C35.75-56.2 32.55-59.4 32.55-63.3C32.55-67.2 35.75-70.4 39.65-70.4L96.95-70.4C106.15-70.4 113.55-63 113.55-53.8C113.55-44.5 106.05-37.1 96.95-37.1ZM113.55 2.5C113.55-6.7 106.15-14.1 96.95-14.1L39.65-14.1C35.75-14.1 32.55-10.9 32.55-7C32.55-3.1 35.75 0.1 39.65 0.1L96.95 0.1C98.25 0.1 99.25 1.2 99.25 2.4C99.25 3.6 98.15 4.7 96.95 4.7L39.05 4.7C32.65 4.7 27.45-0.5 27.45-6.9C27.45-13.3 32.65-18.5 39.05-18.5L106.45-18.5C110.35-18.5 113.55-21.7 113.55-25.6C113.55-29.5 110.35-32.7 106.45-32.7L39.05-32.7C24.75-32.6 13.15-21 13.15-6.7C13.15 7.6 24.75 19.2 39.05 19.2L96.95 19.2C106.05 19.2 113.55 11.7 113.55 2.5Z"/>
  </g>
  <g id="Bold-L" transform="matrix(1 0 0 1 2277.68 1556)">
   <path d="M95.55-37.3L38.45-37.3C24.55-37.3 13.15-48.6 13.15-62.6C13.15-76.6 24.45-87.9 38.45-87.9L104.85-87.9C108.65-87.9 111.65-84.9 111.65-81.1C111.65-77.3 108.65-74.3 104.85-74.3L38.45-74.3C32.05-74.2 26.75-69 26.75-62.6C26.75-56.2 31.95-50.9 38.45-50.9L95.55-50.9C96.95-50.9 98.05-52 98.05-53.4C98.05-54.8 96.95-55.9 95.55-55.9L39.05-55.9C35.25-55.9 32.25-58.9 32.25-62.7C32.25-66.5 35.25-69.5 39.05-69.5L95.55-69.5C104.45-69.5 111.65-62.3 111.65-53.4C111.65-44.5 104.45-37.3 95.55-37.3ZM111.65 2C111.65-6.9 104.45-14.1 95.55-14.1L39.05-14.1C35.25-14.1 32.25-11.1 32.25-7.3C32.25-3.5 35.25-0.5 39.05-0.5L95.55-0.5C96.95-0.5 98.05 0.6 98.05 2C98.05 3.4 96.95 4.5 95.55 4.5L38.45 4.5C32.05 4.5 26.75-0.7 26.75-7.1C26.75-13.5 31.95-18.8 38.45-18.8L104.85-18.8C108.65-18.8 111.65-21.8 111.65-25.6C111.65-29.4 108.65-32.4 104.85-32.4L38.45-32.4C24.55-32.4 13.15-21.1 13.15-7.1C13.15 6.9 24.45 18.2 38.45 18.2L95.55 18.2C104.45 18.2 111.65 10.9 111.65 2Z"/>
  </g>
  <g id="Semibold-L" transform="matrix(1 0 0 1 1981.92 1556)">
   <path d="M94.05-37.4L37.85-37.4C24.25-37.4 13.15-48.5 13.15-62.1C13.15-75.7 24.25-86.8 37.85-86.8L103.25-86.8C106.85-86.8 109.75-83.9 109.75-80.3C109.75-76.7 106.85-73.8 103.25-73.8L37.85-73.8C31.35-73.8 26.15-68.5 26.15-62.1C26.15-55.7 31.35-50.4 37.85-50.4L94.05-50.4C95.55-50.4 96.75-51.6 96.75-53.1C96.75-54.6 95.55-55.8 94.05-55.8L38.45-55.8C34.85-55.8 31.95-58.7 31.95-62.3C31.95-65.9 34.85-68.8 38.45-68.8L94.05-68.8C102.65-68.8 109.75-61.8 109.75-53.1C109.75-44.4 102.65-37.4 94.05-37.4ZM109.75 1.5C109.75-7.1 102.75-14.2 94.05-14.2L38.45-14.2C34.85-14.2 31.95-11.3 31.95-7.7C31.95-4.1 34.85-1.2 38.45-1.2L94.05-1.2C95.55-1.2 96.75 0 96.75 1.5C96.75 3 95.55 4.2 94.05 4.2L37.85 4.2C31.35 4.2 26.05-1.1 26.05-7.6C26.05-14.1 31.35-19.3 37.85-19.3L103.25-19.3C106.85-19.3 109.75-22.2 109.75-25.8C109.75-29.4 106.85-32.3 103.25-32.3L37.85-32.3C24.25-32.3 13.15-21.2 13.15-7.6C13.15 6 24.25 17.1 37.85 17.1L94.05 17.1C102.65 17.2 109.75 10.1 109.75 1.5Z"/>
  </g>
  <g id="Medium-L" transform="matrix(1 0 0 1 1686.11 1556)">
   <path d="M92.65-37.6L37.25-37.6C23.95-37.6 13.15-48.4 13.15-61.7C13.15-75 23.95-85.8 37.25-85.8L101.65-85.8C105.05-85.8 107.85-83 107.85-79.6C107.85-76.2 105.05-73.4 101.65-73.4L37.25-73.4C30.75-73.4 25.45-68.1 25.45-61.6C25.45-55.1 30.85-50 37.25-50L92.65-50C94.25-50 95.55-51.3 95.55-52.9C95.55-54.5 94.25-55.8 92.65-55.8L37.85-55.8C34.45-55.8 31.65-58.6 31.65-62C31.65-65.4 34.45-68.2 37.85-68.2L92.65-68.2C101.05-68.2 107.85-61.4 107.85-53C107.85-44.6 101.05-37.6 92.65-37.6ZM107.95 0.9C107.95-7.5 101.15-14.3 92.75-14.3L37.85-14.3C34.45-14.3 31.65-11.5 31.65-8.1C31.65-4.7 34.45-2 37.85-2L92.65-2C94.25-2 95.55-0.7 95.55 0.9C95.55 2.5 94.25 3.8 92.65 3.8L37.25 3.8C30.85 3.8 25.55-1.5 25.55-8C25.55-14.5 30.85-19.8 37.35-19.8L101.75-19.8C105.15-19.8 107.95-22.6 107.95-26C107.95-29.4 105.15-32.2 101.75-32.2L37.25-32.2C24.05-32.1 13.15-21.3 13.15-8C13.15 5.3 23.95 16.1 37.25 16.1L92.65 16.1C101.05 16.2 107.95 9.3 107.95 0.9Z"/>
  </g>
  <g id="Regular-L" transform="matrix(1 0 0 1 1390.34 1556)">
   <path d="M91.15-37.8L36.65-37.8C23.65-37.8 13.15-48.4 13.15-61.3C13.15-74.2 23.75-84.8 36.65-84.8L100.15-84.8C103.35-84.8 106.05-82.2 106.05-78.9C106.05-75.6 103.45-73 100.15-73L36.65-73C30.15-73 24.85-67.7 24.85-61.2C24.85-54.7 30.15-49.4 36.65-49.4L91.15-49.4C92.85-49.4 94.25-50.8 94.25-52.5C94.25-54.2 92.85-55.6 91.15-55.6L37.25-55.6C34.05-55.6 31.35-58.2 31.35-61.5C31.35-64.8 33.95-67.4 37.25-67.4L91.25-67.4C99.45-67.4 106.05-60.8 106.05-52.6C106.05-44.4 99.35-37.8 91.15-37.8ZM105.95 0.4C105.95-7.8 99.35-14.4 91.15-14.4L37.25-14.4C34.05-14.4 31.35-11.8 31.35-8.5C31.35-5.2 33.95-2.6 37.25-2.6L91.25-2.6C92.95-2.6 94.35-1.2 94.35 0.5C94.35 2.2 92.95 3.6 91.25 3.6L36.65 3.6C30.15 3.6 24.85-1.7 24.85-8.2C24.85-14.7 30.15-20 36.65-20L100.15-20C103.35-20 106.05-22.6 106.05-25.9C106.05-29.1 103.45-31.8 100.15-31.8L36.65-31.8C23.65-31.8 13.15-21.2 13.15-8.3C13.15 4.6 23.75 15.2 36.65 15.2L91.15 15.2C99.35 15.2 105.95 8.5 105.95 0.4Z"/>
  </g>
  <g id="Light-L" transform="matrix(1 0 0 1 1094.58 1556)">
   <path d="M89.75-38L36.05-38C23.35-38 13.15-48.3 13.15-60.9C13.15-73.5 23.45-83.8 36.05-83.8L98.55-83.8C101.65-83.8 104.15-81.3 104.15-78.2C104.15-75.1 101.65-72.6 98.55-72.6L36.05-72.6C29.55-72.6 24.25-67.3 24.25-60.8C24.25-54.3 29.55-49.1 36.05-49.1L89.75-49.1C91.55-49.1 92.95-50.5 92.95-52.3C92.95-54.1 91.55-55.5 89.75-55.5L36.65-55.5C33.55-55.5 31.05-58 31.05-61.1C31.05-64.2 33.55-66.7 36.65-66.7L89.75-66.7C97.65-66.7 104.05-60.3 104.05-52.4C104.05-44.4 97.65-38 89.75-38ZM104.05-0.2C104.05-8.1 97.65-14.5 89.75-14.5L36.65-14.5C33.55-14.5 31.05-12 31.05-9C31.05-6 33.55-3.4 36.65-3.4L89.75-3.4C91.55-3.4 92.95-2 92.95-0.2C92.95 1.6 91.55 3 89.75 3L36.05 3C29.55 3 24.25-2.3 24.25-8.8C24.25-15.3 29.55-20.6 36.05-20.6L98.55-20.6C101.65-20.6 104.15-23.1 104.15-26.2C104.15-29.3 101.65-31.8 98.55-31.8L36.05-31.8C23.35-31.8 13.15-21.5 13.15-8.9C13.15 3.7 23.45 14.2 36.05 14.2L89.75 14.2C97.65 14.2 104.05 7.7 104.05-0.2Z"/>
  </g>
  <g id="Thin-L" transform="matrix(1 0 0 1 798.772 1556)">
   <path d="M88.45-38.1L35.55-38.1C23.25-38.1 13.15-48.1 13.15-60.5C13.15-72.9 23.15-82.9 35.55-82.9L97.05-82.9C99.95-82.9 102.35-80.5 102.35-77.6C102.35-74.7 99.95-72.3 97.05-72.3L35.55-72.3C29.05-72.3 23.75-67 23.75-60.5C23.75-54 29.05-48.6 35.55-48.6L88.35-48.6C90.25-48.6 91.75-50.1 91.75-52C91.75-53.9 90.25-55.4 88.35-55.4L36.15-55.4C33.25-55.4 30.85-57.8 30.85-60.7C30.85-63.6 33.25-66 36.15-66L88.35-66C96.05-66 102.25-59.8 102.25-52.1C102.35-44.3 96.05-38.1 88.45-38.1ZM102.35-0.8C102.35-8.5 96.15-14.7 88.45-14.7L36.15-14.7C33.25-14.7 30.85-12.3 30.85-9.4C30.85-6.5 33.25-4.1 36.15-4.1L88.35-4.1C90.25-4.1 91.75-2.6 91.75-0.7C91.75 1.2 90.25 2.7 88.35 2.7L35.55 2.7C29.05 2.6 23.75-2.7 23.75-9.2C23.75-15.7 29.05-21.1 35.55-21.1L97.05-21.1C99.95-21.1 102.35-23.5 102.35-26.4C102.35-29.3 99.95-31.7 97.05-31.7L35.55-31.7C23.25-31.7 13.15-21.7 13.15-9.3C13.15 3.1 23.15 13.1 35.55 13.1L88.35 13.1C96.05 13.2 102.35 6.9 102.35-0.8Z"/>
  </g>
  <g id="Ultralight-L" transform="matrix(1 0 0 1 503.061 1556)">
   <path d="M86.85-38.3L34.95-38.3C22.95-38.3 13.15-48.1 13.15-60.1C13.15-72.1 22.95-81.9 34.95-81.9L95.35-81.9C98.05-81.9 100.35-79.7 100.35-76.9C100.35-74.1 98.15-71.9 95.35-71.9L34.95-71.9C28.45-71.9 23.05-66.6 23.05-60C23.05-53.4 28.45-48.2 34.95-48.2L86.85-48.2C88.75-48.2 90.35-49.8 90.35-51.7C90.35-53.6 88.75-55.2 86.85-55.2L35.45-55.2C32.75-55.2 30.45-57.4 30.45-60.2C30.45-63 32.65-65.2 35.45-65.2L86.85-65.2C94.25-65.2 100.35-59.2 100.35-51.7C100.35-44.3 94.25-38.3 86.85-38.3ZM100.35-1.3C100.35-8.7 94.35-14.8 86.85-14.8L35.45-14.8C32.75-14.8 30.45-12.6 30.45-9.8C30.45-7 32.65-4.8 35.45-4.8L86.85-4.8C88.75-4.8 90.35-3.2 90.35-1.3C90.35 0.6 88.75 2.2 86.85 2.2L34.95 2.2C28.45 2.2 23.05-3.1 23.05-9.6C23.05-16.1 28.45-21.5 34.95-21.5L95.35-21.5C98.05-21.5 100.35-23.7 100.35-26.5C100.35-29.3 98.15-31.5 95.35-31.5L34.95-31.5C22.95-31.5 13.15-21.7 13.15-9.7C13.15 2.3 22.95 12.1 34.95 12.1L86.85 12.1C94.25 12.2 100.35 6.1 100.35-1.3Z"/>
  </g>
  <g id="Black-M" transform="matrix(1 0 0 1 2869.2 1126)">
   <path d="M98.35-37L39.65-37C25.05-37 13.15-48.9 13.15-63.5C13.15-78.1 25.05-90 39.65-90L107.95-90C112.05-90 115.45-86.7 115.45-82.5C115.45-78.3 112.15-75 107.95-75L39.65-75C33.25-75 28.05-69.8 28.05-63.4C28.05-57 33.25-51.9 39.65-51.9L98.35-51.9C99.55-51.9 100.55-52.9 100.55-54.1C100.55-55.3 99.55-56.3 98.35-56.3L40.25-56.3C36.15-56.3 32.75-59.6 32.75-63.8C32.75-68 36.05-71.3 40.25-71.3L98.35-71.3C107.75-71.3 115.45-63.6 115.45-54.2C115.45-44.6 107.75-37 98.35-37ZM115.45 3C115.45-6.4 107.75-14.1 98.35-14.1L40.25-14.1C36.15-14.1 32.75-10.8 32.75-6.6C32.75-2.4 36.05 0.9 40.25 0.9L98.35 0.9C99.55 0.9 100.55 1.9 100.55 3.1C100.55 4.3 99.55 5.3 98.35 5.3L39.65 5.3C33.25 5.1 28.05-0.1 28.05-6.4C28.05-12.7 33.25-18 39.65-18L107.95-18C112.05-18 115.45-21.3 115.45-25.5C115.45-29.7 112.15-33 107.95-33L39.65-33C24.95-32.9 13.15-21 13.15-6.4C13.15 8.2 25.05 20.1 39.65 20.1L98.35 20.1C107.75 20.1 115.45 12.4 115.45 3Z"/>
  </g>
  <g id="Heavy-M" transform="matrix(1 0 0 1 2573.44 1126)">
   <path d="M96.95-37.2L39.05-37.2C24.75-37.2 13.15-48.8 13.15-63.1C13.15-77.4 24.75-89 39.05-89L106.45-89C110.35-89 113.55-85.8 113.55-81.9C113.55-78 110.35-74.8 106.45-74.8L39.05-74.8C32.65-74.8 27.45-69.6 27.45-63.2C27.45-56.8 32.65-51.6 39.05-51.6L96.95-51.6C98.25-51.6 99.25-52.7 99.25-53.9C99.25-55.2 98.15-56.3 96.95-56.3L39.65-56.3C35.75-56.3 32.55-59.5 32.55-63.4C32.55-67.3 35.75-70.5 39.65-70.5L96.95-70.5C106.15-70.5 113.55-63.1 113.55-53.9C113.55-44.6 106.15-37.2 96.95-37.2ZM113.55 2.4C113.55-6.8 106.15-14.2 96.95-14.2L39.65-14.2C35.75-14.2 32.55-11 32.55-7.1C32.55-3.2 35.75 0 39.65 0L96.95 0C98.25 0 99.25 1.1 99.25 2.3C99.25 3.5 98.25 4.8 96.95 4.8L39.05 4.8C32.65 4.8 27.45-0.4 27.45-6.8C27.45-13.2 32.65-18.4 39.05-18.4L106.45-18.4C110.35-18.4 113.55-21.6 113.55-25.5C113.55-29.4 110.35-32.6 106.45-32.6L39.05-32.6C24.75-32.6 13.15-21 13.15-6.7C13.15 7.6 24.75 19.2 39.05 19.2L96.95 19.2C106.15 19.1 113.55 11.6 113.55 2.4Z"/>
  </g>
  <g id="Bold-M" transform="matrix(1 0 0 1 2277.68 1126)">
   <path d="M95.55-37.4L38.45-37.4C24.55-37.4 13.15-48.7 13.15-62.7C13.15-76.7 24.45-88 38.45-88L104.85-88C108.65-88 111.65-85 111.65-81.2C111.65-77.4 108.65-74.4 104.85-74.4L38.45-74.4C32.05-74.4 26.75-69.2 26.75-62.7C26.75-56.2 31.95-51 38.45-51L95.55-51C96.95-51 98.05-52.1 98.05-53.5C98.05-54.9 96.95-56 95.55-56L39.05-56C35.25-56 32.25-59 32.25-62.8C32.25-66.6 35.25-69.6 39.05-69.6L95.55-69.6C104.45-69.6 111.65-62.4 111.65-53.5C111.65-44.6 104.45-37.4 95.55-37.4ZM111.65 1.9C111.65-7 104.45-14.2 95.55-14.2L39.05-14.2C35.25-14.2 32.25-11.2 32.25-7.4C32.25-3.6 35.25-0.6 39.05-0.6L95.55-0.6C96.95-0.6 98.05 0.5 98.05 1.9C98.05 3.3 96.95 4.4 95.55 4.4L38.45 4.4C32.05 4.4 26.75-0.8 26.75-7.3C26.75-13.8 31.95-19 38.45-19L104.85-19C108.65-19 111.65-22 111.65-25.8C111.65-29.6 108.65-32.6 104.85-32.6L38.45-32.6C24.55-32.6 13.15-21.3 13.15-7.3C13.15 6.7 24.45 18 38.45 18L95.55 18C104.45 18.1 111.65 10.8 111.65 1.9Z"/>
  </g>
  <g id="Semibold-M" transform="matrix(1 0 0 1 1981.92 1126)">
   <path d="M94.05-37.5L37.85-37.5C24.25-37.5 13.15-48.6 13.15-62.2C13.15-75.8 24.25-86.9 37.85-86.9L103.25-86.9C106.85-86.9 109.75-84 109.75-80.4C109.75-76.8 106.85-74 103.25-74L37.85-74C31.35-74 26.15-68.7 26.15-62.3C26.15-55.9 31.35-50.5 37.85-50.5L94.05-50.5C95.55-50.5 96.75-51.7 96.75-53.2C96.75-54.7 95.55-55.9 94.05-55.9L38.45-55.9C34.85-55.9 31.95-58.8 31.95-62.4C31.95-66 34.85-68.9 38.45-68.9L94.05-68.9C102.65-68.9 109.75-61.9 109.75-53.2C109.75-44.5 102.75-37.5 94.05-37.5ZM109.75 1.4C109.75-7.2 102.75-14.3 94.05-14.3L38.45-14.3C34.85-14.3 31.95-11.4 31.95-7.8C31.95-4.2 34.85-1.3 38.45-1.3L94.05-1.3C95.55-1.3 96.75-0.1 96.75 1.4C96.75 2.9 95.55 4.1 94.05 4.1L37.85 4.1C31.35 4.1 26.15-1.2 26.15-7.6C26.15-14 31.35-19.4 37.85-19.4L103.25-19.4C106.85-19.4 109.75-22.3 109.75-25.9C109.75-29.5 106.85-32.4 103.25-32.4L37.85-32.4C24.25-32.4 13.15-21.3 13.15-7.7C13.15 5.9 24.25 17.1 37.85 17.1L94.05 17.1C102.75 17.1 109.75 10 109.75 1.4Z"/>
  </g>
  <g id="Medium-M" transform="matrix(1 0 0 1 1686.16 1126)">
   <path d="M92.65-37.7L37.25-37.7C23.95-37.7 13.15-48.5 13.15-61.8C13.15-75.1 23.95-85.9 37.25-85.9L101.65-85.9C105.05-85.9 107.85-83.1 107.85-79.7C107.85-76.3 105.05-73.5 101.65-73.5L37.25-73.5C30.75-73.5 25.45-68.2 25.45-61.7C25.45-55.2 30.75-50.1 37.25-50.1L92.65-50.1C94.25-50.1 95.55-51.4 95.55-53C95.55-54.6 94.25-55.9 92.65-55.9L37.85-55.9C34.45-55.9 31.65-58.7 31.65-62.1C31.65-65.5 34.45-68.3 37.85-68.3L92.65-68.3C101.05-68.3 107.85-61.5 107.85-53.1C107.85-44.7 101.05-37.7 92.65-37.7ZM107.85 0.8C107.85-7.6 101.05-14.4 92.65-14.4L37.85-14.4C34.45-14.4 31.65-11.6 31.65-8.2C31.65-4.8 34.45-2 37.85-2L92.65-2C94.25-2 95.55-0.7 95.55 0.9C95.55 2.5 94.25 3.8 92.65 3.8L37.25 3.8C30.75 3.7 25.45-1.6 25.45-8.1C25.45-14.6 30.75-19.8 37.25-19.8L101.65-19.8C105.05-19.8 107.85-22.6 107.85-26C107.85-29.4 105.05-32.2 101.65-32.2L37.25-32.2C23.95-32.2 13.15-21.4 13.15-8.1C13.15 5.2 23.95 16 37.25 16L92.65 16C101.05 16.1 107.85 9.2 107.85 0.8Z"/>
  </g>
  <g id="Regular-M" transform="matrix(1 0 0 1 1390.34 1126)">
   <path d="M91.15-37.9L36.65-37.9C23.65-37.9 13.15-48.5 13.15-61.4C13.15-74.3 23.75-84.9 36.65-84.9L100.15-84.9C103.35-84.9 106.05-82.3 106.05-79C106.05-75.7 103.45-73.1 100.15-73.1L36.65-73.1C30.15-73.1 24.85-67.8 24.85-61.3C24.85-54.8 30.15-49.5 36.65-49.5L91.15-49.5C92.85-49.5 94.25-50.9 94.25-52.6C94.25-54.3 92.85-55.7 91.15-55.7L37.15-55.7C33.95-55.7 31.25-58.3 31.25-61.6C31.25-64.8 33.85-67.5 37.15-67.5L91.15-67.5C99.35-67.5 105.95-60.9 105.95-52.7C105.95-44.5 99.35-37.9 91.15-37.9ZM105.95 0.3C105.95-7.9 99.35-14.5 91.15-14.5L37.15-14.5C33.95-14.5 31.25-11.9 31.25-8.6C31.25-5.3 33.85-2.7 37.15-2.7L91.15-2.7C92.85-2.7 94.25-1.3 94.25 0.4C94.25 2.1 92.85 3.5 91.15 3.5L36.65 3.5C30.15 3.3 24.85-2 24.85-8.5C24.85-15 30.15-20.3 36.65-20.3L100.15-20.3C103.35-20.3 106.05-22.9 106.05-26.2C106.05-29.4 103.45-32.1 100.15-32.1L36.65-32.1C23.65-32.1 13.15-21.5 13.15-8.6C13.15 4.3 23.75 14.9 36.65 14.9L91.15 14.9C99.35 15.1 105.95 8.4 105.95 0.3Z"/>
  </g>
  <g id="Light-M" transform="matrix(1 0 0 1 1094.58 1126)">
   <path d="M89.75-38.1L36.05-38.1C23.35-38.1 13.15-48.4 13.15-61C13.15-73.6 23.45-83.9 36.05-83.9L98.55-83.9C101.65-83.9 104.15-81.4 104.15-78.3C104.15-75.2 101.65-72.7 98.55-72.7L36.05-72.7C29.55-72.7 24.25-67.4 24.25-60.9C24.25-54.4 29.55-49.1 36.05-49.1L89.75-49.1C91.55-49.1 92.95-50.5 92.95-52.3C92.95-54.1 91.55-55.5 89.75-55.5L36.65-55.5C33.55-55.5 31.05-58 31.05-61.1C31.05-64.2 33.55-66.7 36.65-66.7L89.75-66.7C97.65-66.7 104.05-60.3 104.05-52.4C104.05-44.5 97.65-38.1 89.75-38.1ZM104.05-0.3C104.05-8.2 97.65-14.6 89.75-14.6L36.65-14.6C33.55-14.6 31.05-12.1 31.05-9C31.05-5.9 33.55-3.4 36.65-3.4L89.75-3.4C91.55-3.4 92.95-2 92.95-0.2C92.95 1.6 91.55 3 89.75 3L36.05 3C29.55 3 24.25-2.3 24.25-8.8C24.25-15.3 29.55-20.6 36.05-20.6L98.55-20.6C101.65-20.6 104.15-23.1 104.15-26.2C104.15-29.3 101.65-31.8 98.55-31.8L36.05-31.8C23.35-31.8 13.15-21.5 13.15-8.9C13.15 3.7 23.45 14 36.05 14L89.75 14C97.65 14.1 104.05 7.6 104.05-0.3Z"/>
  </g>
  <g id="Thin-M" transform="matrix(1 0 0 1 798.822 1126)">
   <path d="M88.35-38.2L35.55-38.2C23.25-38.2 13.15-48.2 13.15-60.6C13.15-73 23.15-83 35.55-83L96.95-83C99.85-83 102.25-80.6 102.25-77.7C102.25-74.8 99.85-72.4 96.95-72.4L35.55-72.4C29.05-72.4 23.75-67.1 23.75-60.6C23.75-54.1 29.05-48.8 35.55-48.8L88.35-48.8C90.25-48.8 91.75-50.3 91.75-52.2C91.75-54.1 90.25-55.6 88.35-55.6L36.15-55.6C33.25-55.6 30.85-58 30.85-60.9C30.85-63.8 33.25-66.2 36.15-66.2L88.35-66.2C96.05-66.2 102.25-60 102.25-52.3C102.25-44.4 96.05-38.2 88.35-38.2ZM102.25-0.9C102.25-8.6 96.05-14.8 88.35-14.8L36.15-14.8C33.25-14.8 30.85-12.4 30.85-9.5C30.85-6.6 33.25-4.2 36.15-4.2L88.35-4.2C90.25-4.2 91.75-2.7 91.75-0.8C91.75 1.1 90.25 2.5 88.35 2.5L35.55 2.5C29.05 2.5 23.75-2.8 23.75-9.3C23.75-15.8 29.05-21.1 35.55-21.1L96.95-21.1C99.85-21.1 102.25-23.5 102.25-26.4C102.25-29.3 99.85-31.7 96.95-31.7L35.55-31.7C23.25-31.7 13.15-21.7 13.15-9.3C13.15 3.1 23.15 13.1 35.55 13.1L88.35 13.1C96.05 13.1 102.25 6.8 102.25-0.9Z"/>
  </g>
  <g id="Ultralight-M" transform="matrix(1 0 0 1 503.011 1126)">
   <path d="M86.95-38.4L34.95-38.4C22.95-38.4 13.15-48.2 13.15-60.2C13.15-72.2 22.95-82 34.95-82L95.35-82C98.05-82 100.35-79.8 100.35-77C100.35-74.2 98.15-72 95.35-72L34.95-72C28.45-72 23.05-66.7 23.05-60.1C23.05-53.5 28.35-48.2 34.95-48.2L86.85-48.2C88.75-48.2 90.35-49.8 90.35-51.7C90.35-53.6 88.75-55.2 86.85-55.2L35.55-55.2C32.85-55.2 30.55-57.4 30.55-60.2C30.55-63 32.75-65.2 35.55-65.2L86.95-65.2C94.35-65.2 100.45-59.2 100.45-51.7C100.35-44.4 94.35-38.4 86.95-38.4ZM100.35-1.4C100.35-8.8 94.35-14.9 86.85-14.9L35.55-14.9C32.85-14.9 30.55-12.7 30.55-9.9C30.55-7.1 32.75-4.9 35.55-4.9L86.95-4.9C88.85-4.9 90.45-3.3 90.45-1.4C90.45 0.5 88.85 2.1 86.95 2.1L34.95 2.1C28.45 2.1 23.05-3.2 23.05-9.8C23.05-16.4 28.35-21.7 34.95-21.7L95.35-21.7C98.05-21.7 100.35-23.9 100.35-26.7C100.35-29.5 98.15-31.7 95.35-31.7L34.95-31.7C22.95-31.7 13.15-21.9 13.15-9.9C13.15 2.1 22.95 11.9 34.95 11.9L86.85 11.9C94.35 12.1 100.35 6 100.35-1.4Z"/>
  </g>
  <g id="Black-S" transform="matrix(1 0 0 1 2869.2 696)">
   <path d="M98.35-36.9L39.65-36.9C25.05-36.9 13.15-48.8 13.15-63.4C13.15-78 25.05-89.9 39.65-89.9L107.95-89.9C112.05-89.9 115.45-86.6 115.45-82.4C115.45-78.3 112.15-74.9 107.95-74.9L39.65-74.9C33.25-74.9 28.05-69.7 28.05-63.3C28.05-56.9 33.25-51.7 39.65-51.7L98.35-51.7C99.55-51.7 100.55-52.7 100.55-53.9C100.55-55.1 99.55-56.1 98.35-56.1L40.25-56.1C36.15-56.1 32.75-59.4 32.75-63.6C32.75-67.8 36.15-71 40.25-71L98.35-71C107.75-71 115.45-63.3 115.45-53.9C115.45-44.5 107.75-36.9 98.35-36.9ZM115.45 3.1C115.45-6.3 107.75-14 98.35-14L40.25-14C36.15-14 32.75-10.7 32.75-6.5C32.75-2.3 36.05 1 40.25 1L98.35 1C99.55 1 100.55 2 100.55 3.2C100.55 4.4 99.55 5.4 98.35 5.4L39.65 5.4C33.25 5.2 28.05 0 28.05-6.3C28.05-12.6 33.25-17.9 39.65-17.9L107.95-17.9C112.05-17.9 115.45-21.2 115.45-25.4C115.45-29.6 112.15-32.9 107.95-32.9L39.65-32.9C25.05-32.8 13.15-20.9 13.15-6.3C13.15 8.3 25.05 20.2 39.65 20.2L98.35 20.2C107.75 20.1 115.45 12.5 115.45 3.1Z"/>
  </g>
  <g id="Heavy-S" transform="matrix(1 0 0 1 2573.44 696)">
   <path d="M96.95-37.1L39.05-37.1C24.75-37.1 13.15-48.7 13.15-63C13.15-77.3 24.75-88.9 39.05-88.9L106.45-88.9C110.35-88.9 113.55-85.7 113.55-81.8C113.55-77.9 110.35-74.7 106.45-74.7L39.05-74.7C32.65-74.7 27.45-69.5 27.45-63.1C27.45-56.7 32.65-51.5 39.05-51.5L96.95-51.5C98.25-51.5 99.25-52.6 99.25-53.8C99.25-55.1 98.15-56.2 96.95-56.2L39.65-56.2C35.75-56.2 32.55-59.4 32.55-63.3C32.55-67.2 35.75-70.4 39.65-70.4L96.95-70.4C106.15-70.4 113.55-63 113.55-53.8C113.55-44.5 106.15-37.1 96.95-37.1ZM113.55 2.5C113.55-6.7 106.15-14.1 96.95-14.1L39.65-14.1C35.75-14.1 32.55-10.9 32.55-7C32.55-3.1 35.75 0.1 39.65 0.1L96.95 0.1C98.25 0.1 99.25 1.2 99.25 2.4C99.25 3.6 98.15 4.7 96.95 4.7L39.05 4.7C32.65 4.7 27.45-0.5 27.45-6.9C27.45-13.3 32.65-18.5 39.05-18.5L106.45-18.5C110.35-18.5 113.55-21.7 113.55-25.6C113.55-29.5 110.35-32.7 106.45-32.7L39.05-32.7C24.75-32.6 13.15-21 13.15-6.7C13.15 7.6 24.75 19.2 39.05 19.2L96.95 19.2C106.15 19.1 113.55 11.7 113.55 2.5Z"/>
  </g>
  <g id="Bold-S" transform="matrix(1 0 0 1 2277.68 696)">
   <path d="M95.45-37.3L38.35-37.3C24.45-37.3 13.15-48.6 13.15-62.6C13.15-76.6 24.45-87.8 38.35-87.8L104.75-87.8C108.55-87.8 111.55-84.8 111.55-81C111.55-77.2 108.55-74.2 104.75-74.2L38.35-74.2C31.95-74.2 26.65-69 26.65-62.5C26.65-56 31.85-50.8 38.35-50.8L95.45-50.8C96.85-50.8 97.95-51.9 97.95-53.3C97.95-54.7 96.85-55.8 95.45-55.8L38.95-55.8C35.15-55.8 32.15-58.8 32.15-62.6C32.15-66.4 35.15-69.4 38.95-69.4L95.45-69.4C104.35-69.4 111.55-62.2 111.55-53.3C111.65-44.5 104.35-37.3 95.45-37.3ZM111.65 2C111.65-6.9 104.45-14.1 95.55-14.1L38.95-14.1C35.15-14.1 32.15-11.1 32.15-7.3C32.15-3.5 35.15-0.5 38.95-0.5L95.45-0.5C96.85-0.5 97.95 0.6 97.95 2C97.95 3.4 96.85 4.5 95.45 4.5L38.35 4.5C31.95 4.5 26.65-0.7 26.65-7.2C26.65-13.7 31.85-18.9 38.35-18.9L104.75-18.9C108.55-18.9 111.55-21.9 111.55-25.7C111.55-29.5 108.55-32.5 104.75-32.5L38.35-32.5C24.45-32.4 13.15-21.1 13.15-7.1C13.15 6.9 24.45 18.1 38.35 18.1L95.45 18.1C104.35 18.1 111.65 10.9 111.65 2Z"/>
  </g>
  <g id="Semibold-S" transform="matrix(1 0 0 1 1981.92 696)">
   <path d="M94.15-37.4L37.85-37.4C24.25-37.4 13.15-48.5 13.15-62.1C13.15-75.7 24.25-86.8 37.85-86.8L103.25-86.8C106.85-86.8 109.75-83.9 109.75-80.3C109.75-76.7 106.85-73.8 103.25-73.8L37.85-73.8C31.35-73.8 26.15-68.5 26.15-62.1C26.15-55.7 31.45-50.4 37.85-50.4L94.05-50.4C95.55-50.4 96.75-51.6 96.75-53.1C96.75-54.6 95.55-55.8 94.05-55.8L38.45-55.8C34.85-55.8 31.95-58.7 31.95-62.3C31.95-65.9 34.85-68.8 38.45-68.8L94.05-68.8C102.65-68.8 109.75-61.8 109.75-53.1C109.75-44.4 102.75-37.4 94.15-37.4ZM109.75 1.5C109.75-7.1 102.75-14.2 94.05-14.2L38.45-14.2C34.85-14.2 31.95-11.3 31.95-7.7C31.95-4.1 34.85-1.2 38.45-1.2L94.05-1.2C95.55-1.2 96.75 0 96.75 1.5C96.75 3 95.55 4.2 94.05 4.2L37.85 4.2C31.45 4.2 26.15-1.1 26.15-7.6C26.15-14.1 31.45-19.3 37.85-19.3L103.25-19.3C106.85-19.3 109.75-22.2 109.75-25.8C109.75-29.4 106.85-32.3 103.25-32.3L37.85-32.3C24.25-32.3 13.15-21.2 13.15-7.6C13.15 6 24.25 17.1 37.85 17.1L94.05 17.1C102.75 17.1 109.75 10.1 109.75 1.5Z"/>
  </g>
  <g id="Medium-S" transform="matrix(1 0 0 1 1686.11 696)">
   <path d="M92.65-37.6L37.25-37.6C24.05-37.6 13.15-48.4 13.15-61.7C13.15-75 23.95-85.8 37.25-85.8L101.65-85.8C105.05-85.8 107.85-83 107.85-79.6C107.85-76.2 105.05-73.4 101.65-73.4L37.25-73.4C30.75-73.4 25.45-68.1 25.45-61.6C25.45-55.1 30.85-50 37.25-50L92.65-50C94.25-50 95.55-51.3 95.55-52.9C95.55-54.5 94.25-55.8 92.65-55.8L37.85-55.8C34.45-55.8 31.65-58.6 31.65-62C31.65-65.4 34.45-68.2 37.85-68.2L92.65-68.2C101.05-68.2 107.85-61.4 107.85-53C107.85-44.6 101.05-37.6 92.65-37.6ZM107.95 0.9C107.95-7.5 101.15-14.3 92.75-14.3L37.85-14.3C34.45-14.3 31.65-11.5 31.65-8.1C31.65-4.7 34.45-2 37.85-2L92.65-2C94.25-2 95.55-0.7 95.55 0.9C95.55 2.5 94.25 3.8 92.65 3.8L37.25 3.8C30.85 3.8 25.55-1.5 25.55-8C25.55-14.5 30.85-19.8 37.35-19.8L101.75-19.8C105.15-19.8 107.95-22.6 107.95-26C107.95-29.4 105.15-32.2 101.75-32.2L37.25-32.2C24.05-32.1 13.15-21.3 13.15-8C13.15 5.3 23.95 16.1 37.25 16.1L92.65 16.1C101.05 16.1 107.95 9.3 107.95 0.9Z"/>
  </g>
  <g id="Regular-S" transform="matrix(1 0 0 1 1390.34 696)">
   <path d="M91.25-37.8L36.65-37.8C23.65-37.8 13.15-48.4 13.15-61.3C13.15-74.2 23.75-84.8 36.65-84.8L100.15-84.8C103.35-84.8 106.05-82.2 106.05-78.9C106.05-75.7 103.45-73 100.15-73L36.65-73C30.15-73 24.85-67.7 24.85-61.2C24.85-54.7 30.15-49.4 36.65-49.4L91.15-49.4C92.85-49.4 94.25-50.8 94.25-52.5C94.25-54.2 92.85-55.6 91.15-55.6L37.15-55.6C33.95-55.6 31.25-58.2 31.25-61.5C31.25-64.7 33.85-67.4 37.15-67.4L91.15-67.4C99.35-67.4 105.95-60.8 105.95-52.6C105.95-44.4 99.35-37.8 91.25-37.8ZM105.95 0.4C105.95-7.8 99.35-14.4 91.15-14.4L37.15-14.4C33.95-14.4 31.25-11.8 31.25-8.5C31.25-5.2 33.85-2.6 37.15-2.6L91.15-2.6C92.85-2.6 94.25-1.2 94.25 0.5C94.25 2.2 92.85 3.6 91.15 3.6L36.65 3.6C30.15 3.6 24.85-1.7 24.85-8.2C24.85-14.7 30.15-20 36.65-20L100.15-20C103.35-20 106.05-22.6 106.05-25.9C106.05-29.1 103.45-31.8 100.15-31.8L36.65-31.8C23.65-31.8 13.15-21.2 13.15-8.3C13.15 4.6 23.75 15.2 36.65 15.2L91.15 15.2C99.35 15.1 105.95 8.5 105.95 0.4Z"/>
  </g>
  <g id="Light-S" transform="matrix(1 0 0 1 1094.58 696)">
   <path d="M89.75-38L36.05-38C23.45-38 13.15-48.3 13.15-60.9C13.15-73.5 23.45-83.8 36.05-83.8L98.55-83.8C101.65-83.8 104.15-81.3 104.15-78.2C104.15-75.1 101.65-72.6 98.55-72.6L36.05-72.6C29.55-72.6 24.25-67.3 24.25-60.8C24.25-54.3 29.55-49 36.05-49L89.75-49C91.55-49 92.95-50.4 92.95-52.2C92.95-54 91.55-55.4 89.75-55.4L36.65-55.4C33.55-55.4 31.05-57.9 31.05-61C31.05-64.1 33.55-66.6 36.65-66.6L89.75-66.6C97.65-66.6 104.05-60.2 104.05-52.3C104.15-44.4 97.65-38 89.75-38ZM104.15-0.2C104.15-8.1 97.75-14.5 89.85-14.5L36.65-14.5C33.55-14.5 31.05-12 31.05-8.9C31.05-5.8 33.55-3.3 36.65-3.3L89.75-3.3C91.55-3.3 92.95-1.9 92.95-0.1C92.95 1.7 91.55 3 89.75 3L36.05 3C29.55 3 24.25-2.3 24.25-8.8C24.25-15.3 29.55-20.6 36.05-20.6L98.55-20.6C101.65-20.6 104.15-23.1 104.15-26.2C104.15-29.3 101.65-31.8 98.55-31.8L36.05-31.8C23.45-31.7 13.15-21.4 13.15-8.8C13.15 3.8 23.45 14.1 36.05 14.1L89.75 14.1C97.65 14.1 104.15 7.7 104.15-0.2Z"/>
  </g>
  <g id="Thin-S" transform="matrix(1 0 0 1 798.822 696)">
   <path d="M88.35-38.1L35.55-38.1C23.25-38.1 13.15-48.1 13.15-60.5C13.15-72.9 23.15-82.9 35.55-82.9L96.95-82.9C99.85-82.9 102.25-80.5 102.25-77.6C102.25-74.7 99.85-72.3 96.95-72.3L35.55-72.3C29.05-72.3 23.75-67 23.75-60.5C23.75-54 29.05-48.7 35.55-48.7L88.35-48.7C90.25-48.7 91.75-50.2 91.75-52.1C91.75-54 90.25-55.5 88.35-55.5L36.15-55.5C33.25-55.5 30.85-57.9 30.85-60.8C30.85-63.7 33.25-66.1 36.15-66.1L88.35-66.1C96.05-66.1 102.25-59.9 102.25-52.2C102.25-44.3 96.05-38.1 88.35-38.1ZM102.25-0.8C102.25-8.5 96.05-14.7 88.35-14.7L36.15-14.7C33.25-14.7 30.85-12.3 30.85-9.4C30.85-6.5 33.25-4.1 36.15-4.1L88.35-4.1C90.25-4.1 91.75-2.6 91.75-0.7C91.75 1.2 90.25 2.7 88.35 2.7L35.55 2.7C29.05 2.6 23.75-2.7 23.75-9.2C23.75-15.7 29.05-21 35.55-21L96.95-21C99.85-21 102.25-23.4 102.25-26.3C102.25-29.2 99.85-31.6 96.95-31.6L35.55-31.6C23.25-31.6 13.15-21.6 13.15-9.2C13.15 3.2 23.15 13.2 35.55 13.2L88.35 13.2C96.05 13.1 102.25 6.9 102.25-0.8Z"/>
  </g>
  <g id="Ultralight-S" transform="matrix(1 0 0 1 503.061 696)">
   <path d="M86.85-38.3L34.95-38.3C22.95-38.3 13.15-48 13.15-60.1C13.15-72.2 22.95-81.8 34.95-81.8L95.35-81.8C98.05-81.8 100.35-79.6 100.35-76.8C100.35-74.1 98.15-71.8 95.35-71.8L34.95-71.8C28.45-71.8 23.05-66.5 23.05-59.9C23.05-53.3 28.35-48.2 34.95-48.2L86.85-48.2C88.75-48.2 90.35-49.8 90.35-51.7C90.35-53.6 88.75-55.2 86.85-55.2L35.45-55.2C32.75-55.2 30.45-57.4 30.45-60.2C30.45-62.9 32.65-65.2 35.45-65.2L86.85-65.2C94.25-65.2 100.35-59.2 100.35-51.7C100.35-44.3 94.25-38.3 86.85-38.3ZM100.35-1.3C100.35-8.7 94.35-14.8 86.85-14.8L35.45-14.8C32.75-14.8 30.45-12.6 30.45-9.8C30.45-7 32.65-4.8 35.45-4.8L86.85-4.8C88.75-4.8 90.35-3.2 90.35-1.3C90.35 0.6 88.75 2.2 86.85 2.2L34.95 2.2C28.45 2.2 23.05-3.1 23.05-9.7C23.05-16.3 28.35-21.5 34.95-21.5L95.35-21.5C98.05-21.5 100.35-23.7 100.35-26.5C100.35-29.3 98.15-31.5 95.35-31.5L34.95-31.5C22.95-31.5 13.15-21.7 13.15-9.7C13.15 2.3 22.95 12.1 34.95 12.1L86.85 12.1C94.25 12.1 100.35 6.1 100.35-1.3Z"/>
  </g>
 </g>
</svg>
