<?xml version="1.0" encoding="UTF-8"?>
<!--Generator: Apple Native CoreSVG 175.5-->
<!DOCTYPE svg
PUBLIC "-//W3C//DTD SVG 1.1//EN"
       "http://www.w3.org/Graphics/SVG/1.1/DTD/svg11.dtd">
<svg version="1.1" xmlns="http://www.w3.org/2000/svg" xmlns:xlink="http://www.w3.org/1999/xlink" width="3300" height="2200">
 <!--glyph: "", point size: 100.0, font version: "18.0d9e1", template writer version: "84"-->
 <g id="Notes">
  <rect height="2200" id="artboard" style="fill:white;opacity:1" width="3300" x="0" y="0"/>
  <line style="fill:none;stroke:black;opacity:1;stroke-width:0.5;" x1="263" x2="3036" y1="292" y2="292"/>
  <text style="stroke:none;fill:black;font-family:sans-serif;font-size:13;font-weight:bold;" transform="matrix(1 0 0 1 263 322)">Weight/Scale Variations</text>
  <text style="stroke:none;fill:black;font-family:sans-serif;font-size:13;text-anchor:middle;" transform="matrix(1 0 0 1 559.711 322)">Ultralight</text>
  <text style="stroke:none;fill:black;font-family:sans-serif;font-size:13;text-anchor:middle;" transform="matrix(1 0 0 1 856.422 322)">Thin</text>
  <text style="stroke:none;fill:black;font-family:sans-serif;font-size:13;text-anchor:middle;" transform="matrix(1 0 0 1 1153.13 322)">Light</text>
  <text style="stroke:none;fill:black;font-family:sans-serif;font-size:13;text-anchor:middle;" transform="matrix(1 0 0 1 1449.84 322)">Regular</text>
  <text style="stroke:none;fill:black;font-family:sans-serif;font-size:13;text-anchor:middle;" transform="matrix(1 0 0 1 1746.56 322)">Medium</text>
  <text style="stroke:none;fill:black;font-family:sans-serif;font-size:13;text-anchor:middle;" transform="matrix(1 0 0 1 2043.27 322)">Semibold</text>
  <text style="stroke:none;fill:black;font-family:sans-serif;font-size:13;text-anchor:middle;" transform="matrix(1 0 0 1 2339.98 322)">Bold</text>
  <text style="stroke:none;fill:black;font-family:sans-serif;font-size:13;text-anchor:middle;" transform="matrix(1 0 0 1 2636.69 322)">Heavy</text>
  <text style="stroke:none;fill:black;font-family:sans-serif;font-size:13;text-anchor:middle;" transform="matrix(1 0 0 1 2933.4 322)">Black</text>
  <line style="fill:none;stroke:black;opacity:1;stroke-width:0.5;" x1="263" x2="3036" y1="1903" y2="1903"/>
  <g transform="matrix(1 0 0 1 263 1933)">
   <path d="M9.24805 0.830078Q10.8691 0.830078 12.2949 0.214844Q13.7207-0.400391 14.8096-1.49414Q15.8984-2.58789 16.5186-4.01367Q17.1387-5.43945 17.1387-7.05078Q17.1387-8.66211 16.5186-10.0879Q15.8984-11.5137 14.8047-12.6074Q13.7109-13.7012 12.2852-14.3164Q10.8594-14.9316 9.23828-14.9316Q7.62695-14.9316 6.20117-14.3164Q4.77539-13.7012 3.69141-12.6074Q2.60742-11.5137 1.9873-10.0879Q1.36719-8.66211 1.36719-7.05078Q1.36719-5.43945 1.9873-4.01367Q2.60742-2.58789 3.69629-1.49414Q4.78516-0.400391 6.21094 0.214844Q7.63672 0.830078 9.24805 0.830078ZM9.24805-0.654297Q7.91992-0.654297 6.7627-1.14746Q5.60547-1.64062 4.73145-2.51953Q3.85742-3.39844 3.36426-4.56055Q2.87109-5.72266 2.87109-7.05078Q2.87109-8.37891 3.35938-9.54102Q3.84766-10.7031 4.72168-11.582Q5.5957-12.4609 6.75293-12.9541Q7.91016-13.4473 9.23828-13.4473Q10.5762-13.4473 11.7383-12.9541Q12.9004-12.4609 13.7793-11.582Q14.6582-10.7031 15.1514-9.54102Q15.6445-8.37891 15.6445-7.05078Q15.6445-5.72266 15.1514-4.56055Q14.6582-3.39844 13.7793-2.51953Q12.9004-1.64062 11.7432-1.14746Q10.5859-0.654297 9.24805-0.654297ZM5.6543-7.05078Q5.6543-6.72852 5.85938-6.52832Q6.06445-6.32812 6.40625-6.32812L8.51562-6.32812L8.51562-4.20898Q8.51562-3.88672 8.71094-3.67676Q8.90625-3.4668 9.23828-3.4668Q9.56055-3.4668 9.77051-3.67676Q9.98047-3.88672 9.98047-4.20898L9.98047-6.32812L12.0898-6.32812Q12.4219-6.32812 12.627-6.52832Q12.832-6.72852 12.832-7.05078Q12.832-7.38281 12.627-7.58789Q12.4219-7.79297 12.0898-7.79297L9.98047-7.79297L9.98047-9.90234Q9.98047-10.2344 9.77051-10.4443Q9.56055-10.6543 9.23828-10.6543Q8.90625-10.6543 8.71094-10.4443Q8.51562-10.2344 8.51562-9.90234L8.51562-7.79297L6.40625-7.79297Q6.06445-7.79297 5.85938-7.58789Q5.6543-7.38281 5.6543-7.05078Z"/>
  </g>
  <g transform="matrix(1 0 0 1 281.867 1933)">
   <path d="M11.709 2.91016Q13.75 2.91016 15.5518 2.12891Q17.3535 1.34766 18.7305-0.0292969Q20.1074-1.40625 20.8887-3.20801Q21.6699-5.00977 21.6699-7.05078Q21.6699-9.0918 20.8887-10.8936Q20.1074-12.6953 18.7305-14.0723Q17.3535-15.4492 15.5469-16.2305Q13.7402-17.0117 11.6992-17.0117Q9.6582-17.0117 7.85645-16.2305Q6.05469-15.4492 4.68262-14.0723Q3.31055-12.6953 2.5293-10.8936Q1.74805-9.0918 1.74805-7.05078Q1.74805-5.00977 2.5293-3.20801Q3.31055-1.40625 4.6875-0.0292969Q6.06445 1.34766 7.86621 2.12891Q9.66797 2.91016 11.709 2.91016ZM11.709 1.25Q9.98047 1.25 8.47656 0.605469Q6.97266-0.0390625 5.83496-1.17676Q4.69727-2.31445 4.05762-3.81836Q3.41797-5.32227 3.41797-7.05078Q3.41797-8.7793 4.05762-10.2832Q4.69727-11.7871 5.83008-12.9297Q6.96289-14.0723 8.4668-14.7119Q9.9707-15.3516 11.6992-15.3516Q13.4277-15.3516 14.9365-14.7119Q16.4453-14.0723 17.583-12.9297Q18.7207-11.7871 19.3652-10.2832Q20.0098-8.7793 20.0098-7.05078Q20.0098-5.32227 19.3701-3.81836Q18.7305-2.31445 17.5879-1.17676Q16.4453-0.0390625 14.9414 0.605469Q13.4375 1.25 11.709 1.25ZM7.17773-7.05078Q7.17773-6.69922 7.41211-6.47461Q7.64648-6.25 8.01758-6.25L10.8887-6.25L10.8887-3.36914Q10.8887-2.99805 11.1133-2.76855Q11.3379-2.53906 11.6895-2.53906Q12.0605-2.53906 12.29-2.76855Q12.5195-2.99805 12.5195-3.36914L12.5195-6.25L15.4004-6.25Q15.7715-6.25 16.001-6.47461Q16.2305-6.69922 16.2305-7.05078Q16.2305-7.42188 16.001-7.65137Q15.7715-7.88086 15.4004-7.88086L12.5195-7.88086L12.5195-10.752Q12.5195-11.1328 12.29-11.3623Q12.0605-11.5918 11.6895-11.5918Q11.3379-11.5918 11.1133-11.3574Q10.8887-11.123 10.8887-10.752L10.8887-7.88086L8.01758-7.88086Q7.63672-7.88086 7.40723-7.65137Q7.17773-7.42188 7.17773-7.05078Z"/>
  </g>
  <g transform="matrix(1 0 0 1 305.646 1933)">
   <path d="M14.9707 5.66406Q17.0605 5.66406 18.96 5.01465Q20.8594 4.36523 22.4512 3.19336Q24.043 2.02148 25.2197 0.429688Q26.3965-1.16211 27.0459-3.06641Q27.6953-4.9707 27.6953-7.05078Q27.6953-9.14062 27.0459-11.04Q26.3965-12.9395 25.2197-14.5312Q24.043-16.123 22.4512-17.2998Q20.8594-18.4766 18.9551-19.126Q17.0508-19.7754 14.9609-19.7754Q12.8711-19.7754 10.9717-19.126Q9.07227-18.4766 7.48535-17.2998Q5.89844-16.123 4.72168-14.5312Q3.54492-12.9395 2.90039-11.04Q2.25586-9.14062 2.25586-7.05078Q2.25586-4.9707 2.90527-3.06641Q3.55469-1.16211 4.72656 0.429688Q5.89844 2.02148 7.49023 3.19336Q9.08203 4.36523 10.9814 5.01465Q12.8809 5.66406 14.9707 5.66406ZM14.9707 3.84766Q13.1641 3.84766 11.5283 3.2959Q9.89258 2.74414 8.53516 1.74805Q7.17773 0.751953 6.17676-0.610352Q5.17578-1.97266 4.62891-3.6084Q4.08203-5.24414 4.08203-7.05078Q4.08203-8.86719 4.62891-10.5029Q5.17578-12.1387 6.17188-13.501Q7.16797-14.8633 8.52539-15.8594Q9.88281-16.8555 11.5186-17.4023Q13.1543-17.9492 14.9609-17.9492Q16.7773-17.9492 18.4131-17.4023Q20.0488-16.8555 21.4111-15.8594Q22.7734-14.8633 23.7744-13.501Q24.7754-12.1387 25.3223-10.5029Q25.8691-8.86719 25.8691-7.05078Q25.8691-5.24414 25.3223-3.6084Q24.7754-1.97266 23.7793-0.610352Q22.7832 0.751953 21.4209 1.74805Q20.0586 2.74414 18.4229 3.2959Q16.7871 3.84766 14.9707 3.84766ZM9.19922-7.05078Q9.19922-6.66992 9.45801-6.4209Q9.7168-6.17188 10.1172-6.17188L14.0625-6.17188L14.0625-2.2168Q14.0625-1.81641 14.3115-1.55762Q14.5605-1.29883 14.9512-1.29883Q15.3516-1.29883 15.6104-1.55273Q15.8691-1.80664 15.8691-2.2168L15.8691-6.17188L19.8242-6.17188Q20.2246-6.17188 20.4785-6.4209Q20.7324-6.66992 20.7324-7.05078Q20.7324-7.46094 20.4785-7.71484Q20.2246-7.96875 19.8242-7.96875L15.8691-7.96875L15.8691-11.9141Q15.8691-12.3242 15.6104-12.583Q15.3516-12.8418 14.9512-12.8418Q14.5605-12.8418 14.3115-12.583Q14.0625-12.3242 14.0625-11.9141L14.0625-7.96875L10.1172-7.96875Q9.70703-7.96875 9.45312-7.71484Q9.19922-7.46094 9.19922-7.05078Z"/>
  </g>
  <text style="stroke:none;fill:black;font-family:sans-serif;font-size:13;font-weight:bold;" transform="matrix(1 0 0 1 263 1953)">Design Variations</text>
  <text style="stroke:none;fill:black;font-family:sans-serif;font-size:13;" transform="matrix(1 0 0 1 263 1971)">Symbols are supported in up to nine weights and three scales.</text>
  <text style="stroke:none;fill:black;font-family:sans-serif;font-size:13;" transform="matrix(1 0 0 1 263 1989)">For optimal layout with text and other symbols, vertically align</text>
  <text style="stroke:none;fill:black;font-family:sans-serif;font-size:13;" transform="matrix(1 0 0 1 263 2007)">symbols with the adjacent text.</text>
  <line style="fill:none;stroke:#00AEEF;stroke-width:0.5;opacity:1.0;" x1="776" x2="776" y1="1919" y2="1933"/>
  <g transform="matrix(1 0 0 1 776 1933)">
   <path d="M3.31055 0.15625Q3.70117 0.15625 3.91602-0.00976562Q4.13086-0.175781 4.26758-0.585938L5.52734-4.0332L11.2891-4.0332L12.5488-0.585938Q12.6855-0.175781 12.9004-0.00976562Q13.1152 0.15625 13.4961 0.15625Q13.8867 0.15625 14.1162-0.0585938Q14.3457-0.273438 14.3457-0.644531Q14.3457-0.869141 14.2383-1.17188L9.6582-13.3691Q9.48242-13.8184 9.17969-14.043Q8.87695-14.2676 8.4082-14.2676Q7.5-14.2676 7.17773-13.3789L2.59766-1.16211Q2.49023-0.859375 2.49023-0.634766Q2.49023-0.263672 2.70996-0.0537109Q2.92969 0.15625 3.31055 0.15625ZM6.00586-5.51758L8.37891-12.0898L8.42773-12.0898L10.8008-5.51758Z"/>
  </g>
  <line style="fill:none;stroke:#00AEEF;stroke-width:0.5;opacity:1.0;" x1="793.197" x2="793.197" y1="1919" y2="1933"/>
  <text style="stroke:none;fill:black;font-family:sans-serif;font-size:13;font-weight:bold;" transform="matrix(1 0 0 1 776 1953)">Margins</text>
  <text style="stroke:none;fill:black;font-family:sans-serif;font-size:13;" transform="matrix(1 0 0 1 776 1971)">Leading and trailing margins on the left and right side of each symbol</text>
  <text style="stroke:none;fill:black;font-family:sans-serif;font-size:13;" transform="matrix(1 0 0 1 776 1989)">can be adjusted by modifying the x-location of the margin guidelines.</text>
  <text style="stroke:none;fill:black;font-family:sans-serif;font-size:13;" transform="matrix(1 0 0 1 776 2007)">Modifications are automatically applied proportionally to all</text>
  <text style="stroke:none;fill:black;font-family:sans-serif;font-size:13;" transform="matrix(1 0 0 1 776 2025)">scales and weights.</text>
  <g transform="matrix(1 0 0 1 1289 1933)">
   <path d="M2.8418 1.86523L4.54102 3.57422Q5.18555 4.22852 5.90332 4.17969Q6.62109 4.13086 7.31445 3.35938L18.0078-8.42773L17.041-9.4043L6.42578 2.27539Q6.16211 2.57812 5.89355 2.61719Q5.625 2.65625 5.27344 2.30469L4.10156 1.14258Q3.75 0.791016 3.79395 0.522461Q3.83789 0.253906 4.14062-0.0195312L15.6152-10.8203L14.6387-11.7871L3.04688-0.898438Q2.30469-0.214844 2.25098 0.498047Q2.19727 1.21094 2.8418 1.86523ZM9.25781-16.3281Q8.94531-16.0254 8.90625-15.6348Q8.86719-15.2441 9.04297-14.9512Q9.21875-14.6777 9.55566-14.541Q9.89258-14.4043 10.3809-14.5215Q11.4746-14.7754 12.5977-14.7314Q13.7207-14.6875 14.7949-13.9844L14.209-12.5293Q13.9551-11.9043 14.0674-11.4404Q14.1797-10.9766 14.5801-10.5664L16.875-8.25195Q17.2363-7.88086 17.5781-7.82227Q17.9199-7.76367 18.3398-7.8418L19.4043-8.03711L20.0684-7.36328L20.0293-6.80664Q20-6.43555 20.1221-6.12305Q20.2441-5.81055 20.6055-5.44922L21.3672-4.70703Q21.7285-4.3457 22.1533-4.33105Q22.5781-4.31641 22.9297-4.66797L25.8398-7.58789Q26.1914-7.93945 26.1816-8.35449Q26.1719-8.76953 25.8105-9.13086L25.0391-9.89258Q24.6875-10.2539 24.3799-10.3857Q24.0723-10.5176 23.7109-10.4883L23.1348-10.4395L22.4902-11.0742L22.7344-12.1973Q22.832-12.6172 22.6953-12.9834Q22.5586-13.3496 22.1191-13.7891L19.9219-15.9766Q18.6719-17.2168 17.2607-17.8369Q15.8496-18.457 14.4189-18.4814Q12.9883-18.5059 11.665-17.959Q10.3418-17.4121 9.25781-16.3281ZM10.752-15.957Q11.6602-16.6211 12.7002-16.9043Q13.7402-17.1875 14.8047-17.085Q15.8691-16.9824 16.8701-16.5137Q17.8711-16.0449 18.7012-15.2051L21.1328-12.793Q21.3086-12.6172 21.3525-12.4512Q21.3965-12.2852 21.3379-12.0312L21.0156-10.5469L22.5195-9.0625L23.5059-9.12109Q23.6914-9.13086 23.7891-9.09668Q23.8867-9.0625 24.0332-8.91602L24.6094-8.33984L22.168-5.89844L21.5918-6.47461Q21.4453-6.62109 21.4062-6.71875Q21.3672-6.81641 21.377-7.01172L21.4453-7.98828L19.9512-9.47266L18.4277-9.21875Q18.1836-9.16992 18.042-9.2041Q17.9004-9.23828 17.7148-9.41406L15.7129-11.416Q15.5176-11.5918 15.4932-11.7529Q15.4688-11.9141 15.5859-12.1875L16.4648-14.2773Q15.293-15.3711 13.8281-15.791Q12.3633-16.2109 10.8398-15.7617Q10.7227-15.7324 10.6885-15.8057Q10.6543-15.8789 10.752-15.957Z"/>
  </g>
  <text style="stroke:none;fill:black;font-family:sans-serif;font-size:13;font-weight:bold;" transform="matrix(1 0 0 1 1289 1953)">Exporting</text>
  <text style="stroke:none;fill:black;font-family:sans-serif;font-size:13;" transform="matrix(1 0 0 1 1289 1971)">Symbols should be outlined when exporting to ensure the</text>
  <text style="stroke:none;fill:black;font-family:sans-serif;font-size:13;" transform="matrix(1 0 0 1 1289 1989)">design is preserved when submitting to Xcode.</text>
  <text id="template-version" style="stroke:none;fill:black;font-family:sans-serif;font-size:13;text-anchor:end;" transform="matrix(1 0 0 1 3036 1933)">Template v.2.0</text>
  <text style="stroke:none;fill:black;font-family:sans-serif;font-size:13;text-anchor:end;" transform="matrix(1 0 0 1 3036 1951)">Requires Xcode 12 or greater</text>
  <text id="descriptive-name" style="stroke:none;fill:black;font-family:sans-serif;font-size:13;text-anchor:end;" transform="matrix(1 0 0 1 3036 1969)">Generated from custom.white_cane</text>
  <text style="stroke:none;fill:black;font-family:sans-serif;font-size:13;text-anchor:end;" transform="matrix(1 0 0 1 3036 1987)">Typeset at 100 points</text>
  <text style="stroke:none;fill:black;font-family:sans-serif;font-size:13;" transform="matrix(1 0 0 1 263 726)">Small</text>
  <text style="stroke:none;fill:black;font-family:sans-serif;font-size:13;" transform="matrix(1 0 0 1 263 1156)">Medium</text>
  <text style="stroke:none;fill:black;font-family:sans-serif;font-size:13;" transform="matrix(1 0 0 1 263 1586)">Large</text>
 </g>
 <g id="Guides">
  <g id="H-reference" style="fill:#27AAE1;stroke:none;" transform="matrix(1 0 0 1 339 696)">
   <path d="M0.993347 0L3.6377 0L29.3282-67.1326L30.0301-67.1326L30.0301-70.459L28.1227-70.459ZM11.6882-24.4797L46.9818-24.4797L46.2311-26.7288L12.4382-26.7288ZM55.1193 0L57.7637 0L30.6381-70.459L29.4327-70.459L29.4327-67.1326Z"/>
  </g>
  <line id="Baseline-S" style="fill:none;stroke:#27AAE1;opacity:1;stroke-width:0.5;" x1="263" x2="3036" y1="696" y2="696"/>
  <line id="Capline-S" style="fill:none;stroke:#27AAE1;opacity:1;stroke-width:0.5;" x1="263" x2="3036" y1="625.541" y2="625.541"/>
  <g id="H-reference" style="fill:#27AAE1;stroke:none;" transform="matrix(1 0 0 1 339 1126)">
   <path d="M0.993347 0L3.6377 0L29.3282-67.1326L30.0301-67.1326L30.0301-70.459L28.1227-70.459ZM11.6882-24.4797L46.9818-24.4797L46.2311-26.7288L12.4382-26.7288ZM55.1193 0L57.7637 0L30.6381-70.459L29.4327-70.459L29.4327-67.1326Z"/>
  </g>
  <line id="Baseline-M" style="fill:none;stroke:#27AAE1;opacity:1;stroke-width:0.5;" x1="263" x2="3036" y1="1126" y2="1126"/>
  <line id="Capline-M" style="fill:none;stroke:#27AAE1;opacity:1;stroke-width:0.5;" x1="263" x2="3036" y1="1055.54" y2="1055.54"/>
  <g id="H-reference" style="fill:#27AAE1;stroke:none;" transform="matrix(1 0 0 1 339 1556)">
   <path d="M0.993347 0L3.6377 0L29.3282-67.1326L30.0301-67.1326L30.0301-70.459L28.1227-70.459ZM11.6882-24.4797L46.9818-24.4797L46.2311-26.7288L12.4382-26.7288ZM55.1193 0L57.7637 0L30.6381-70.459L29.4327-70.459L29.4327-67.1326Z"/>
  </g>
  <line id="Baseline-L" style="fill:none;stroke:#27AAE1;opacity:1;stroke-width:0.5;" x1="263" x2="3036" y1="1556" y2="1556"/>
  <line id="Capline-L" style="fill:none;stroke:#27AAE1;opacity:1;stroke-width:0.5;" x1="263" x2="3036" y1="1485.54" y2="1485.54"/>
  <line id="left-margin" style="fill:none;stroke:#00AEEF;stroke-width:0.5;opacity:1.0;" x1="1390.65" x2="1390.65" y1="1030.73" y2="1150.14"/>
  <line id="right-margin" style="fill:none;stroke:#00AEEF;stroke-width:0.5;opacity:1.0;" x1="1509.04" x2="1509.04" y1="1030.73" y2="1150.14"/>
 </g>
 <g id="Symbols">
  <g id="Black-L" transform="matrix(1 0 0 1 2850.1 1556)">
   <path d="M164.975-85.175C164.275-83.575 163.175-82.575 161.775-82.075C161.175-81.875 160.575-81.775 159.975-81.775C158.775-81.775 157.875-82.175 157.275-82.675C154.975-84.375 154.075-88.175 154.275-94.875C154.475-100.275 149.675-103.675 149.575-103.775C148.775-104.375 148.475-105.375 148.875-106.275C149.275-107.175 150.275-107.575 151.175-107.375C151.575-107.275 160.175-105.075 163.375-98.375C165.675-93.575 166.275-88.375 164.975-85.175ZM159.775-96.575C159.175-97.775 158.375-98.775 157.475-99.575C157.975-98.175 158.275-96.575 158.275-94.775C158.075-87.475 159.375-86.075 159.675-85.875C159.775-85.775 159.875-85.675 160.575-85.875C160.675-85.875 161.075-85.975 161.375-86.775C161.975-88.575 161.775-92.575 159.775-96.575ZM19.975 26.225L15.475 21.725L114.375-77.075L118.875-72.575L19.975 26.225ZM124.475-76.875L118.675-82.675C117.975-83.375 117.975-84.575 118.675-85.275L144.375-110.975C145.075-111.675 146.275-111.675 146.975-110.975L152.775-105.175C153.475-104.475 153.475-103.275 152.775-102.575L127.075-76.875C126.275-76.175 125.175-76.175 124.475-76.875ZM7.375 40.125L1.575 34.325C0.875 33.625 0.875 32.425 1.575 31.725L7.375 25.925C8.075 25.225 9.275 25.225 9.975 25.925L15.775 31.725C16.475 32.425 16.475 33.625 15.775 34.325L9.975 40.125C9.175 40.825 8.075 40.825 7.375 40.125Z"/>
  </g>
  <g id="Heavy-L" transform="matrix(1 0 0 1 2554.8 1556)">
   <path d="M162.075-84.375C161.375-82.875 159.975-81.775 158.975-81.375C158.375-81.075 157.775-81.075 157.275-81.075C156.075-81.075 155.275-81.475 154.675-81.975C152.475-83.575 151.575-87.375 151.775-93.875C151.875-99.175 147.175-102.675 147.175-102.675C146.475-103.175 146.175-104.175 146.575-104.975C146.975-105.775 147.875-106.275 148.775-105.975C149.175-105.875 157.575-103.675 160.675-97.175C162.875-92.575 163.475-87.575 162.075-84.375ZM157.275-95.575C156.675-96.875 155.675-97.975 154.675-98.775C155.275-97.275 155.575-95.575 155.575-93.775C155.375-86.675 156.575-85.175 156.975-84.975C157.075-84.875 157.275-84.775 157.875-84.975C157.975-84.975 158.375-85.175 158.675-85.875C159.475-87.675 159.175-91.575 157.275-95.575ZM18.875 26.025L14.475 21.625L112.475-76.275L116.875-71.875L18.875 26.025ZM122.475-76.175L116.775-81.875C116.075-82.575 116.075-83.675 116.775-84.375L142.075-109.675C142.775-110.375 143.875-110.375 144.575-109.675L150.275-103.975C150.975-103.275 150.975-102.175 150.275-101.475L124.975-76.175C124.275-75.475 123.075-75.475 122.475-76.175ZM7.275 38.825L1.575 33.125C0.875 32.425 0.875 31.325 1.575 30.625L7.275 24.925C7.975 24.225 9.075 24.225 9.775 24.925L15.475 30.625C16.175 31.325 16.175 32.425 15.475 33.125L9.875 38.825C9.175 39.525 7.975 39.525 7.275 38.825Z"/>
  </g>
  <g id="Bold-L" transform="matrix(1 0 0 1 2259.58 1556)">
   <path d="M154.475-80.475C153.375-80.475 152.475-80.875 151.975-81.275C149.875-82.875 148.975-86.575 149.175-92.975C149.275-98.275 144.575-101.675 144.575-101.675C143.875-102.175 143.675-103.075 143.975-103.875C144.375-104.675 145.175-105.075 145.975-104.875C146.275-104.775 154.575-102.675 157.675-96.275C159.875-91.675 160.475-86.775 159.175-83.775C158.575-82.275 157.675-81.375 156.175-80.875C155.575-80.575 154.975-80.475 154.475-80.475ZM151.675-98.075C152.275-96.575 152.775-94.775 152.675-92.775C152.475-85.775 153.675-84.275 154.075-83.975C154.175-83.875 154.375-83.775 155.075-83.975C155.175-83.975 155.575-84.175 155.975-84.875C156.675-86.575 156.575-90.375 154.575-94.475C153.875-95.975 152.775-97.175 151.675-98.075ZM18.575 24.925L14.175 20.625L111.275-76.475L115.675-72.175L18.575 24.925ZM120.275-75.475L114.675-81.075C113.975-81.775 113.975-82.875 114.675-83.575L139.575-108.475C140.275-109.175 141.375-109.175 142.075-108.475L147.675-102.875C148.375-102.175 148.375-101.075 147.675-100.375L122.775-75.475C122.075-74.775 120.975-74.775 120.275-75.475ZM7.175 37.625L1.575 32.025C0.875 31.325 0.875 30.225 1.575 29.525L7.175 23.925C7.875 23.225 8.975 23.225 9.675 23.925L15.275 29.525C15.975 30.225 15.975 31.325 15.275 32.025L9.675 37.625C8.975 38.325 7.775 38.325 7.175 37.625Z"/>
  </g>
  <g id="Semibold-L" transform="matrix(1 0 0 1 1964.28 1556)">
   <path d="M156.375-82.775C155.775-81.375 154.775-80.375 153.475-79.975C152.875-79.775 152.375-79.675 151.875-79.675C150.775-79.675 149.975-80.075 149.475-80.475C147.475-81.975 146.575-85.575 146.775-91.875C146.875-97.175 142.275-100.475 142.175-100.475C141.575-100.875 141.275-101.775 141.675-102.475C141.975-103.175 142.775-103.575 143.575-103.375C143.875-103.275 151.975-101.175 154.975-94.975C157.075-90.575 157.575-85.775 156.375-82.775ZM151.975-93.675C151.275-95.175 150.075-96.375 148.875-97.375C149.575-95.775 150.075-93.975 149.975-91.875C149.775-84.975 151.075-83.475 151.375-83.175C151.475-83.075 151.675-82.875 152.475-83.175C152.575-83.175 153.075-83.375 153.375-84.175C154.075-85.775 153.975-89.475 151.975-93.675ZM17.475 24.725L13.175 20.425L109.375-75.775L113.675-71.475L17.475 24.725ZM118.175-74.775L112.675-80.275C111.975-80.975 111.975-82.075 112.675-82.675L137.175-107.175C137.875-107.875 138.975-107.875 139.575-107.175L145.075-101.675C145.775-100.975 145.775-99.875 145.075-99.275L120.675-74.875C119.975-74.175 118.875-74.175 118.175-74.775ZM7.075 36.325L1.575 30.825C0.875 30.125 0.875 29.025 1.575 28.425L7.075 22.925C7.775 22.225 8.875 22.225 9.475 22.925L14.975 28.425C15.675 29.125 15.675 30.225 14.975 30.825L9.475 36.325C8.875 37.025 7.775 37.025 7.075 36.325Z"/>
  </g>
  <g id="Medium-L" transform="matrix(1 0 0 1 1669.04 1556)">
   <path d="M153.475-81.975C152.875-80.675 151.575-79.675 150.775-79.375C150.375-79.275 149.775-79.175 149.275-79.175C148.275-79.175 147.475-79.575 146.975-79.875C144.975-81.375 144.175-84.875 144.375-90.875C144.475-96.175 139.875-99.475 139.875-99.475C139.275-99.875 139.075-100.575 139.375-101.275C139.675-101.875 140.375-102.275 140.975-102.075C141.275-101.975 149.075-99.975 152.075-93.875C154.075-89.575 154.675-84.875 153.475-81.975ZM149.475-92.675C148.675-94.375 147.275-95.675 145.775-96.775C146.575-95.175 147.175-93.175 147.175-90.875C146.975-84.175 148.175-82.575 148.675-82.175C148.775-82.075 149.075-81.875 149.875-82.075C150.075-82.075 150.475-82.275 150.875-83.175C151.675-85.175 151.175-89.175 149.475-92.675ZM17.175 23.625L12.975 19.425L107.375-74.975L111.575-70.775L17.175 23.625ZM116.075-74.075L110.675-79.475C109.975-80.175 109.975-81.175 110.675-81.875L134.675-105.875C135.375-106.575 136.375-106.575 137.075-105.875L142.475-100.475C143.175-99.775 143.175-98.775 142.475-98.075L118.475-74.075C117.875-73.475 116.775-73.475 116.075-74.075ZM6.975 35.025L1.575 29.625C0.875 28.925 0.875 27.925 1.575 27.225L6.975 21.825C7.675 21.125 8.675 21.125 9.375 21.825L14.775 27.225C15.475 27.925 15.475 28.925 14.775 29.625L9.375 35.025C8.775 35.725 7.675 35.725 6.975 35.025Z"/>
  </g>
  <g id="Regular-L" transform="matrix(1 0 0 1 1373.77 1556)">
   <path d="M150.575-81.075C150.075-79.775 148.775-78.875 147.975-78.575C147.675-78.475 146.975-78.375 146.575-78.375C145.575-78.375 144.875-78.675 144.475-79.075C142.575-80.475 141.775-83.875 141.975-89.875C142.075-95.175 137.475-98.475 137.375-98.575C136.875-98.875 136.675-99.575 136.975-100.075C137.175-100.575 137.775-100.875 138.375-100.775C138.675-100.675 146.375-98.675 149.175-92.775C151.175-88.475 151.775-83.875 150.575-81.075ZM146.875-91.575C145.875-93.575 144.275-94.975 142.575-96.075C143.575-94.375 144.375-92.275 144.275-89.675C144.075-82.975 145.275-81.375 145.775-80.975C145.875-80.875 146.275-80.575 147.075-80.875C147.575-80.975 147.875-81.375 148.175-81.975C149.175-84.175 148.675-88.075 146.875-91.575ZM16.275 23.125L12.175 19.025L105.975-74.775L110.075-70.675L16.275 23.125ZM113.875-73.175L108.575-78.475C107.875-79.175 107.875-80.175 108.575-80.875L132.275-104.575C132.975-105.275 133.975-105.275 134.675-104.575L139.975-99.275C140.675-98.575 140.675-97.575 139.975-96.875L116.175-73.175C115.575-72.575 114.475-72.575 113.875-73.175ZM6.875 33.725L1.575 28.425C0.875 27.725 0.875 26.725 1.575 26.025L6.875 20.725C7.575 20.025 8.575 20.025 9.275 20.725L14.575 26.025C15.275 26.725 15.275 27.725 14.575 28.425L9.275 33.725C8.575 34.425 7.575 34.425 6.875 33.725Z"/>
  </g>
  <g id="Light-L" transform="matrix(1 0 0 1 1078.62 1556)">
   <path d="M147.5-80.45C147-79.25 146.1-78.45 145.1-78.05C144.6-77.85 144.2-77.85 143.8-77.85C142.9-77.85 142.3-78.15 141.8-78.55C140-79.85 139.3-83.15 139.4-88.95C139.5-94.25 134.9-97.55 134.9-97.55C134.5-97.85 134.3-98.35 134.6-98.85C134.8-99.35 135.3-99.55 135.8-99.45C136.1-99.35 143.5-97.45 146.2-91.75C148.1-87.45 148.6-83.15 147.5-80.45ZM144.2-90.75C143.1-92.95 141.2-94.45 139.4-95.55C140.5-93.85 141.4-91.55 141.4-88.85C141.2-82.45 142.3-80.75 143-80.25C143.2-80.05 143.6-79.85 144.5-80.15C145-80.35 145.4-80.75 145.7-81.35C146.5-83.35 145.9-87.25 144.2-90.75ZM15.7 22.35L11.7 18.35L105.2-75.15L109.2-71.15L15.7 22.35ZM111.8-72.65L106.6-77.85C106-78.45 106-79.55 106.6-80.15L129.7-103.25C130.3-103.85 131.4-103.85 132-103.25L137.2-98.05C137.8-97.45 137.8-96.35 137.2-95.75L114.1-72.65C113.5-72.05 112.5-72.05 111.8-72.65ZM6.7 32.45L1.5 27.25C0.9 26.65 0.9 25.55 1.5 24.95L6.7 19.75C7.3 19.15 8.4 19.15 9 19.75L14.2 24.95C14.8 25.55 14.8 26.65 14.2 27.25L9 32.45C8.4 33.15 7.3 33.15 6.7 32.45Z"/>
  </g>
  <g id="Thin-L" transform="matrix(1 0 0 1 783.389 1556)">
   <path d="M144.5-79.65C144-78.55 143.2-77.75 142.2-77.45C141.7-77.35 141.3-77.25 140.9-77.25C140.1-77.25 139.5-77.55 139.1-77.85C137.4-79.15 136.7-82.35 136.8-87.85C136.9-93.15 132.3-96.45 132.3-96.45C132-96.65 131.9-97.15 132-97.45C132.2-97.85 132.6-98.05 133-97.95C133.3-97.85 140.5-95.95 143.1-90.45C145.1-86.45 145.7-82.25 144.5-79.65ZM141.7-89.75C140.5-92.15 138.2-93.85 136.3-94.85C137.5-93.15 138.7-90.75 138.6-87.75C138.4-81.75 139.4-79.75 140.2-79.15C140.5-78.95 140.9-78.75 141.8-79.05C142.3-79.25 142.8-79.65 143.1-80.35C143.9-82.45 143.4-86.25 141.7-89.75ZM15 21.65L11 17.65L103.6-74.95L107.6-70.95L15 21.65ZM109.7-71.95L104.6-77.05C104-77.65 104-78.65 104.6-79.35L127.3-102.05C127.9-102.65 128.9-102.65 129.6-102.05L134.7-96.95C135.3-96.35 135.3-95.35 134.7-94.65L112-71.95C111.4-71.35 110.4-71.35 109.7-71.95ZM6.6 31.25L1.5 26.15C0.9 25.55 0.9 24.55 1.5 23.85L6.6 18.75C7.2 18.15 8.2 18.15 8.9 18.75L14 23.85C14.6 24.45 14.6 25.45 14 26.15L8.9 31.25C8.2 31.85 7.2 31.85 6.6 31.25Z"/>
  </g>
  <g id="Ultralight-L" transform="matrix(1 0 0 1 488.15 1556)">
   <path d="M141.6-78.85C141.1-77.75 140.4-77.05 139.5-76.75C139.1-76.65 138.7-76.55 138.3-76.55C137.7-76.55 137.1-76.75 136.6-77.15C135-78.35 134.3-81.55 134.4-86.85C134.5-92.15 129.9-95.35 129.9-95.45C129.6-95.65 129.6-95.95 129.7-96.25C129.8-96.55 130.1-96.65 130.4-96.65C130.7-96.55 137.6-94.75 140.2-89.45C142.2-85.55 142.7-81.35 141.6-78.85ZM139.2-88.75C137.9-91.45 135.2-93.25 133.1-94.15C134.5-92.45 135.9-89.95 135.8-86.75C135.6-80.75 136.6-78.75 137.4-78.15C137.8-77.85 138.4-77.75 139.1-77.95C139.7-78.15 140.1-78.55 140.4-79.35C141.4-81.45 140.8-85.35 139.2-88.75ZM14.3 21.05L10.4 17.15L102.1-74.55L106-70.65L14.3 21.05ZM107.7-71.25L102.7-76.25C102.1-76.85 102.1-77.85 102.7-78.45L124.9-100.65C125.5-101.25 126.5-101.25 127.1-100.65L132.1-95.65C132.7-95.05 132.7-94.05 132.1-93.45L109.9-71.25C109.3-70.65 108.3-70.65 107.7-71.25ZM6.5 29.95L1.5 24.95C0.9 24.35 0.9 23.35 1.5 22.75L6.5 17.75C7.1 17.15 8.1 17.15 8.7 17.75L13.7 22.75C14.3 23.35 14.3 24.35 13.7 24.95L8.7 29.95C8.1 30.55 7.1 30.55 6.5 29.95Z"/>
  </g>
  <g id="Black-M" transform="matrix(1 0 0 1 2868.58 1126)">
   <path d="M128.1-73.75C127.6-72.55 126.7-71.75 125.6-71.35C125.1-71.15 124.6-71.15 124.2-71.15C123.3-71.15 122.6-71.45 122.1-71.85C120.3-73.15 119.6-76.05 119.8-81.35C119.9-85.55 116.2-88.15 116.2-88.25C115.6-88.65 115.4-89.45 115.7-90.15C116-90.85 116.8-91.15 117.5-91.05C117.8-90.95 124.4-89.25 127-84.05C128.7-80.25 129.2-76.25 128.1-73.75ZM124.1-82.65C123.7-83.55 123-84.35 122.3-84.95C122.7-83.85 122.9-82.65 122.9-81.25C122.7-75.55 123.8-74.45 124-74.35C124.1-74.35 124.2-74.25 124.7-74.35C124.8-74.35 125.1-74.45 125.3-75.05C125.9-76.35 125.7-79.45 124.1-82.65ZM15.8 12.65L12.3 9.15L88.9-67.45L92.4-63.95L15.8 12.65ZM96.8-67.35L92.3-71.85C91.7-72.45 91.7-73.25 92.3-73.85L112.3-93.75C112.9-94.35 113.7-94.35 114.3-93.75L118.8-89.25C119.4-88.65 119.4-87.85 118.8-87.25L98.8-67.35C98.2-66.75 97.3-66.75 96.8-67.35ZM6 23.45L1.5 18.95C0.9 18.35 0.9 17.55 1.5 16.95L6 12.45C6.6 11.85 7.4 11.85 8 12.45L12.5 16.95C13.1 17.55 13.1 18.35 12.5 18.95L8 23.45C7.4 23.95 6.5 23.95 6 23.45Z"/>
  </g>
  <g id="Heavy-M" transform="matrix(1 0 0 1 2573.05 1126)">
   <path d="M125.825-73.125C125.325-71.925 124.125-71.125 123.425-70.825C122.925-70.625 122.525-70.625 122.125-70.625C121.225-70.625 120.525-70.925 120.125-71.325C118.425-72.625 117.725-75.525 117.825-80.625C117.925-84.725 114.225-87.425 114.225-87.425C113.625-87.825 113.425-88.625 113.725-89.225C114.025-89.825 114.725-90.225 115.425-90.025C115.725-89.925 122.225-88.225 124.625-83.225C126.325-79.425 126.825-75.525 125.825-73.125ZM122.025-81.825C121.525-82.825 120.825-83.625 120.025-84.325C120.425-83.225 120.725-81.925 120.725-80.425C120.525-74.925 121.525-73.825 121.825-73.525C121.925-73.525 122.025-73.325 122.525-73.525C122.625-73.525 122.925-73.625 123.125-74.225C123.725-75.625 123.525-78.625 122.025-81.825ZM14.725 12.475L11.325 9.075L87.325-66.825L90.725-63.425L14.725 12.475ZM95.025-66.725L90.625-71.125C90.125-71.625 90.125-72.525 90.625-73.125L110.225-92.725C110.725-93.225 111.625-93.225 112.225-92.725L116.625-88.325C117.125-87.825 117.125-86.925 116.625-86.325L97.025-66.725C96.425-66.225 95.525-66.225 95.025-66.725ZM5.825 22.475L1.425 18.075C0.925 17.575 0.925 16.675 1.425 16.075L5.825 11.675C6.325 11.175 7.225 11.175 7.825 11.675L12.225 16.075C12.725 16.575 12.725 17.475 12.225 18.075L7.825 22.475C7.225 22.975 6.325 22.975 5.825 22.475Z"/>
  </g>
  <g id="Bold-M" transform="matrix(1 0 0 1 2277.38 1126)">
   <path d="M120.025-70.025C119.125-70.025 118.525-70.325 118.125-70.625C116.525-71.825 115.825-74.725 115.925-79.625C116.025-83.725 112.425-86.325 112.325-86.425C111.825-86.825 111.625-87.525 111.925-88.125C112.225-88.725 112.825-89.025 113.525-88.825C113.825-88.725 120.125-87.125 122.525-82.125C124.225-78.625 124.725-74.725 123.725-72.425C123.225-71.325 122.625-70.525 121.425-70.225C120.825-70.125 120.425-70.025 120.025-70.025ZM117.825-83.725C118.325-82.525 118.625-81.225 118.625-79.625C118.425-74.225 119.425-73.025 119.725-72.825C119.825-72.725 119.925-72.625 120.525-72.825C120.625-72.825 120.925-72.925 121.225-73.525C121.825-74.825 121.725-77.725 120.125-81.025C119.525-82.125 118.725-83.025 117.825-83.725ZM14.625 11.675L11.225 8.275L86.525-66.925L89.925-63.525L14.625 11.675ZM93.425-66.225L89.125-70.525C88.625-71.025 88.625-71.925 89.125-72.425L108.425-91.725C108.925-92.225 109.825-92.225 110.325-91.725L114.625-87.425C115.125-86.925 115.125-86.025 114.625-85.525L95.325-66.225C94.825-65.725 93.925-65.725 93.425-66.225ZM5.725 21.475L1.425 17.175C0.925 16.675 0.925 15.775 1.425 15.275L5.725 10.875C6.225 10.375 7.125 10.375 7.625 10.875L11.925 15.175C12.425 15.675 12.425 16.575 11.925 17.075L7.625 21.375C7.125 21.975 6.325 21.975 5.725 21.475Z"/>
  </g>
  <g id="Semibold-M" transform="matrix(1 0 0 1 1981.81 1126)">
   <path d="M121.425-71.825C120.925-70.725 120.225-70.025 119.225-69.625C118.825-69.525 118.325-69.425 118.025-69.425C117.225-69.425 116.525-69.725 116.125-70.025C114.525-71.225 113.925-74.025 114.025-78.825C114.125-82.925 110.525-85.525 110.525-85.525C110.025-85.825 109.825-86.525 110.125-87.025C110.425-87.525 111.025-87.825 111.525-87.725C111.825-87.625 118.025-86.025 120.325-81.225C122.025-77.925 122.425-74.125 121.425-71.825ZM118.025-80.225C117.425-81.425 116.525-82.325 115.625-83.025C116.125-81.825 116.525-80.425 116.525-78.825C116.425-73.425 117.325-72.325 117.625-72.125C117.725-72.025 117.925-71.925 118.425-72.125C118.525-72.125 118.825-72.225 119.125-72.925C119.725-74.125 119.625-77.025 118.025-80.225ZM13.825 11.475L10.525 8.175L85.125-66.425L88.425-63.125L13.825 11.475ZM91.925-65.625L87.625-69.925C87.125-70.425 87.125-71.325 87.625-71.825L106.525-90.725C107.025-91.225 107.925-91.225 108.425-90.725L112.725-86.425C113.225-85.925 113.225-85.025 112.725-84.525L93.825-65.625C93.225-65.125 92.425-65.125 91.925-65.625ZM5.725 20.475L1.425 16.175C0.925 15.675 0.925 14.775 1.425 14.275L5.725 9.975C6.225 9.475 7.125 9.475 7.625 9.975L11.925 14.275C12.425 14.775 12.425 15.675 11.925 16.175L7.625 20.475C7.125 20.975 6.225 20.975 5.725 20.475Z"/>
  </g>
  <g id="Medium-M" transform="matrix(1 0 0 1 1686.25 1126)">
   <path d="M119.125-71.225C118.725-70.225 117.725-69.425 117.025-69.225C116.725-69.125 116.225-69.025 115.825-69.025C115.025-69.025 114.425-69.325 114.025-69.625C112.525-70.725 111.825-73.525 112.025-78.125C112.125-82.225 108.525-84.825 108.525-84.825C108.125-85.125 107.925-85.725 108.125-86.225C108.325-86.725 108.925-86.925 109.425-86.825C109.725-86.725 115.725-85.125 118.025-80.525C119.725-77.125 120.125-73.525 119.125-71.225ZM116.025-79.525C115.425-80.825 114.325-81.925 113.225-82.625C113.825-81.325 114.325-79.825 114.325-78.025C114.225-72.825 115.125-71.625 115.525-71.325C115.625-71.225 115.825-71.125 116.425-71.325C116.525-71.325 116.925-71.525 117.225-72.125C117.825-73.725 117.425-76.825 116.025-79.525ZM13.525 10.575L10.225 7.275L83.425-65.925L86.725-62.625L13.525 10.575ZM90.225-65.125L86.025-69.325C85.525-69.825 85.525-70.625 86.025-71.225L104.625-89.825C105.125-90.325 105.925-90.325 106.525-89.825L110.725-85.625C111.225-85.125 111.225-84.325 110.725-83.725L92.125-65.125C91.625-64.625 90.725-64.625 90.225-65.125ZM5.625 19.475L1.425 15.275C0.925 14.775 0.925 13.975 1.425 13.375L5.625 9.175C6.125 8.675 6.925 8.675 7.525 9.175L11.725 13.375C12.225 13.875 12.225 14.675 11.725 15.275L7.525 19.475C7.025 19.975 6.125 19.975 5.625 19.475Z"/>
  </g>
  <g id="Regular-M" transform="matrix(1 0 0 1 1390.65 1126)">
   <path d="M116.913-70.525C116.513-69.525 115.513-68.825 114.913-68.625C114.613-68.525 114.113-68.425 113.813-68.425C113.113-68.425 112.513-68.725 112.113-68.925C110.613-70.025 110.013-72.625 110.213-77.225C110.313-81.325 106.713-83.925 106.713-83.925C106.313-84.225 106.213-84.725 106.413-85.125C106.613-85.525 107.013-85.725 107.513-85.625C107.813-85.525 113.713-84.025 115.913-79.425C117.413-76.225 117.913-72.725 116.913-70.525ZM114.113-78.725C113.413-80.225 112.113-81.425 110.813-82.225C111.613-80.925 112.213-79.225 112.113-77.325C112.013-72.125 112.913-70.825 113.313-70.525C113.413-70.425 113.713-70.225 114.313-70.425C114.713-70.525 114.913-70.825 115.113-71.325C115.913-72.925 115.413-75.925 114.113-78.725ZM12.9134 10.275L9.61335 7.075L82.3134-65.625L85.5134-62.425L12.9134 10.275ZM88.5134-64.425L84.4134-68.525C83.9134-69.025 83.9134-69.825 84.4134-70.325L102.813-88.725C103.313-89.225 104.113-89.225 104.613-88.725L108.713-84.625C109.213-84.125 109.213-83.325 108.713-82.825L90.3134-64.425C89.8134-63.925 89.0134-63.925 88.5134-64.425ZM5.61335 18.475L1.51335 14.375C0.913353 13.875 0.913353 12.975 1.41335 12.475L5.51335 8.375C6.11335 7.875 6.91335 7.875 7.41335 8.375L11.5134 12.475C12.0134 12.975 12.0134 13.775 11.5134 14.275L7.41335 18.375C6.91335 18.975 6.11335 18.975 5.61335 18.475Z"/>
  </g>
  <g id="Light-M" transform="matrix(1 0 0 1 1095.12 1126)">
   <path d="M114.625-70.025C114.225-69.125 113.525-68.425 112.725-68.225C112.325-68.125 112.025-68.025 111.725-68.025C111.025-68.025 110.525-68.225 110.225-68.525C108.825-69.525 108.225-72.125 108.425-76.525C108.525-80.625 104.925-83.125 104.925-83.225C104.625-83.425 104.525-83.825 104.625-84.225C104.825-84.625 105.125-84.725 105.525-84.625C105.725-84.525 111.525-83.025 113.625-78.625C115.025-75.525 115.525-72.125 114.625-70.025ZM112.125-78.025C111.325-79.725 109.825-80.925 108.425-81.725C109.325-80.425 110.025-78.625 109.925-76.525C109.825-71.625 110.625-70.225 111.125-69.825C111.325-69.725 111.625-69.525 112.225-69.725C112.625-69.825 112.925-70.125 113.125-70.625C113.825-72.325 113.425-75.325 112.125-78.025ZM12.425 9.575L9.325 6.475L81.825-66.025L84.925-62.925L12.425 9.575ZM86.925-64.025L82.925-68.025C82.425-68.525 82.425-69.325 82.925-69.825L100.825-87.725C101.325-88.225 102.125-88.225 102.625-87.725L106.625-83.725C107.125-83.225 107.125-82.425 106.625-81.925L88.725-64.025C88.225-63.525 87.425-63.525 86.925-64.025ZM5.425 17.475L1.425 13.475C0.925 12.975 0.925 12.175 1.425 11.675L5.425 7.675C5.925 7.175 6.725 7.175 7.225 7.675L11.225 11.675C11.725 12.175 11.725 12.975 11.225 13.475L7.225 17.475C6.725 17.975 5.925 17.975 5.425 17.475Z"/>
  </g>
  <g id="Thin-M" transform="matrix(1 0 0 1 799.531 1126)">
   <path d="M112.425-69.425C112.025-68.525 111.425-67.925 110.625-67.725C110.225-67.625 109.925-67.525 109.625-67.525C109.025-67.525 108.525-67.725 108.225-68.025C106.925-69.025 106.325-71.525 106.425-75.825C106.525-79.925 102.925-82.425 102.925-82.525C102.625-82.725 102.625-83.025 102.725-83.325C102.825-83.625 103.125-83.725 103.525-83.725C103.725-83.625 109.325-82.225 111.425-77.925C112.825-74.725 113.225-71.425 112.425-69.425ZM110.225-77.225C109.325-79.125 107.525-80.425 106.025-81.225C107.025-79.925 107.925-78.025 107.825-75.725C107.725-71.025 108.425-69.525 109.025-69.025C109.225-68.925 109.525-68.725 110.225-68.925C110.625-69.025 110.925-69.425 111.225-69.925C111.925-71.625 111.425-74.625 110.225-77.225ZM12.025 9.075L8.925 5.975L80.725-65.825L83.825-62.725L12.025 9.075ZM85.425-63.525L81.425-67.525C80.925-68.025 80.925-68.825 81.425-69.325L99.025-86.925C99.525-87.425 100.325-87.425 100.825-86.925L104.825-82.925C105.325-82.425 105.325-81.625 104.825-81.125L87.125-63.525C86.725-63.025 85.925-63.025 85.425-63.525ZM5.425 16.475L1.425 12.475C0.925 11.975 0.925 11.175 1.425 10.675L5.425 6.675C5.925 6.175 6.725 6.175 7.225 6.675L11.225 10.675C11.725 11.175 11.725 11.975 11.225 12.475L7.225 16.475C6.725 16.975 5.925 16.975 5.425 16.475Z"/>
  </g>
  <g id="Ultralight-M" transform="matrix(1 0 0 1 504 1126)">
   <path d="M110.025-68.825C109.625-68.025 109.125-67.425 108.325-67.225C108.025-67.125 107.725-67.025 107.425-67.025C106.925-67.025 106.525-67.125 106.125-67.425C104.925-68.325 104.325-70.825 104.425-74.925C104.525-79.025 100.925-81.525 100.925-81.525C100.725-81.625 100.625-81.925 100.725-82.125C100.825-82.325 101.025-82.425 101.325-82.425C101.525-82.325 106.925-80.925 108.925-76.825C110.425-74.025 110.925-70.725 110.025-68.825ZM108.125-76.525C107.125-78.625 105.025-80.025 103.425-80.725C104.525-79.425 105.625-77.525 105.525-74.925C105.425-70.325 106.125-68.725 106.825-68.225C107.125-67.925 107.625-67.925 108.125-68.125C108.625-68.225 108.925-68.625 109.125-69.125C109.825-70.825 109.425-73.825 108.125-76.525ZM11.325 8.575L8.325 5.575L79.425-65.525L82.425-62.525L11.325 8.575ZM83.725-62.925L79.825-66.825C79.325-67.325 79.325-68.025 79.825-68.525L97.025-85.725C97.525-86.225 98.225-86.225 98.725-85.725L102.625-81.825C103.125-81.325 103.125-80.625 102.625-80.125L85.425-62.925C85.025-62.425 84.225-62.425 83.725-62.925ZM5.325 15.475L1.425 11.575C0.925 11.075 0.925 10.375 1.425 9.875L5.325 5.975C5.825 5.475 6.525 5.475 7.025 5.975L10.925 9.875C11.425 10.375 11.425 11.075 10.925 11.575L7.025 15.475C6.525 15.975 5.825 15.975 5.325 15.475Z"/>
  </g>
  <g id="Black-S" transform="matrix(1 0 0 1 2882.42 696)">
   <path d="M100.525-65.5C100.125-64.5 99.425-63.9 98.525-63.6C98.125-63.5 97.825-63.4 97.425-63.4C96.725-63.4 96.125-63.7 95.825-63.9C94.425-64.9 93.925-67.2 94.025-71.3C94.125-74.6 91.225-76.7 91.225-76.7C90.725-77 90.525-77.7 90.825-78.2C91.025-78.7 91.625-79 92.225-78.9C92.425-78.8 97.625-77.5 99.625-73.4C101.025-70.6 101.425-67.5 100.525-65.5ZM97.425-72.4C97.125-73.1 96.625-73.7 96.025-74.2C96.325-73.3 96.525-72.4 96.525-71.3C96.425-66.9 97.225-66 97.425-65.9C97.425-65.9 97.525-65.8 97.925-65.9C98.025-65.9 98.225-66 98.425-66.4C98.825-67.6 98.625-70 97.425-72.4ZM12.625 2.1L9.925-0.6L69.925-60.6L72.625-57.9L12.625 2.1ZM76.025-60.5L72.525-64C72.125-64.4 72.125-65.1 72.525-65.6L88.125-81.2C88.525-81.6 89.225-81.6 89.725-81.2L93.225-77.7C93.625-77.3 93.625-76.6 93.225-76.1L77.525-60.5C77.125-60.1 76.425-60.1 76.025-60.5ZM4.925 10.6L1.425 7.1C0.925 6.6 0.925 5.9 1.425 5.5L4.925 2C5.325 1.6 6.025 1.6 6.525 2L10.025 5.5C10.425 5.9 10.425 6.6 10.025 7.1L6.525 10.6C6.025 11 5.325 11 4.925 10.6Z"/>
  </g>
  <g id="Heavy-S" transform="matrix(1 0 0 1 2586.59 696)">
   <path d="M98.85-65C98.45-64.1 97.55-63.5 96.95-63.2C96.55-63 96.25-63 95.95-63C95.25-63 94.75-63.3 94.35-63.5C93.05-64.5 92.45-66.8 92.55-70.7C92.65-73.9 89.75-76 89.75-76C89.35-76.3 89.15-76.9 89.35-77.4C89.55-77.9 90.15-78.2 90.65-78C90.85-77.9 95.95-76.6 97.85-72.6C99.25-70 99.65-66.9 98.85-65ZM95.85-71.8C95.45-72.6 94.95-73.2 94.25-73.8C94.55-72.9 94.85-71.9 94.75-70.7C94.65-66.4 95.35-65.5 95.65-65.3C95.75-65.3 95.85-65.2 96.25-65.3C96.35-65.3 96.55-65.4 96.75-65.9C97.15-67 97.05-69.4 95.85-71.8ZM11.85 2L9.15-0.7L68.65-60.1L71.35-57.4L11.85 2ZM74.75-60.1L71.25-63.5C70.85-63.9 70.85-64.6 71.25-65L86.65-80.4C87.05-80.8 87.75-80.8 88.15-80.4L91.65-76.9C92.05-76.5 92.05-75.8 91.65-75.4L76.25-60.1C75.85-59.6 75.15-59.6 74.75-60.1ZM4.85 9.8L1.35 6.3C0.95 5.9 0.95 5.2 1.35 4.8L4.85 1.3C5.25 0.9 5.95 0.9 6.35 1.4L9.85 4.9C10.25 5.2 10.25 5.9 9.85 6.3L6.35 9.8C5.95 10.2 5.25 10.2 4.85 9.8Z"/>
  </g>
  <g id="Bold-S" transform="matrix(1 0 0 1 2290.77 696)">
   <path d="M94.25-62.6C93.55-62.6 93.05-62.8 92.75-63.1C91.45-64.1 90.95-66.3 91.05-70.2C91.15-73.4 88.25-75.5 88.25-75.5C87.85-75.8 87.65-76.3 87.85-76.8C88.05-77.3 88.55-77.5 89.05-77.4C89.25-77.3 94.25-76 96.15-72.2C97.45-69.4 97.85-66.4 97.05-64.6C96.65-63.7 96.15-63.1 95.25-62.8C94.85-62.7 94.55-62.6 94.25-62.6ZM92.45-73.3C92.85-72.4 93.05-71.3 93.05-70.1C92.95-65.9 93.65-65 93.95-64.8C94.05-64.8 94.15-64.7 94.55-64.8C94.65-64.8 94.85-64.9 95.05-65.4C95.45-66.4 95.45-68.7 94.15-71.3C93.85-72.1 93.15-72.8 92.45-73.3ZM11.75 1.3L9.05-1.3L67.95-60.2L70.55-57.6L11.75 1.3ZM73.45-59.6L70.05-63C69.65-63.4 69.65-64.1 70.05-64.5L85.15-79.6C85.55-80 86.25-80 86.65-79.6L90.05-76.2C90.45-75.8 90.45-75.1 90.05-74.7L74.95-59.6C74.55-59.2 73.85-59.2 73.45-59.6ZM4.75 9L1.35 5.6C0.95 5.2 0.95 4.5 1.35 4.1L4.75 0.7C5.15 0.3 5.85 0.3 6.25 0.7L9.65 4.1C10.05 4.5 10.05 5.2 9.65 5.6L6.25 9C5.85 9.4 5.15 9.4 4.75 9Z"/>
  </g>
  <g id="Semibold-S" transform="matrix(1 0 0 1 1994.95 696)">
   <path d="M95.25-64.1C94.85-63.2 94.25-62.7 93.45-62.4C93.05-62.3 92.75-62.2 92.45-62.2C91.75-62.2 91.35-62.4 90.95-62.7C89.75-63.6 89.15-65.8 89.25-69.6C89.35-72.8 86.55-74.8 86.45-74.8C86.05-75.1 85.95-75.6 86.15-76C86.35-76.4 86.85-76.7 87.25-76.5C87.45-76.4 92.35-75.2 94.15-71.4C95.75-68.8 96.05-65.9 95.25-64.1ZM92.65-70.6C92.25-71.5 91.55-72.3 90.75-72.8C91.15-71.9 91.45-70.7 91.45-69.5C91.35-65.3 92.05-64.4 92.35-64.2C92.45-64.2 92.55-64 92.95-64.2C93.05-64.2 93.25-64.3 93.55-64.8C93.95-65.9 93.85-68.1 92.65-70.6ZM10.95 1.2L8.35-1.4L66.75-59.8L69.35-57.2L10.95 1.2ZM72.15-59.2L68.85-62.5C68.45-62.9 68.45-63.6 68.85-64L83.65-78.8C84.05-79.2 84.75-79.2 85.15-78.8L88.45-75.5C88.85-75.1 88.85-74.4 88.45-74L73.65-59.2C73.25-58.8 72.55-58.8 72.15-59.2ZM4.65 8.2L1.35 4.9C0.95 4.5 0.95 3.8 1.35 3.4L4.65 0.1C5.05-0.3 5.75-0.3 6.15 0.1L9.55 3.4C9.95 3.8 9.95 4.5 9.55 4.9L6.15 8.2C5.75 8.7 5.15 8.7 4.65 8.2Z"/>
  </g>
  <g id="Medium-S" transform="matrix(1 0 0 1 1699.14 696)">
   <path d="M93.45-63.6C93.15-62.8 92.35-62.2 91.75-62C91.55-61.9 91.15-61.9 90.85-61.9C90.25-61.9 89.75-62.1 89.45-62.4C88.25-63.3 87.75-65.4 87.85-69.1C87.95-72.3 85.15-74.3 85.05-74.3C84.75-74.5 84.55-75 84.75-75.4C84.95-75.8 85.35-76 85.75-75.9C85.95-75.8 90.65-74.6 92.45-70.9C93.95-68.2 94.25-65.3 93.45-63.6ZM91.05-70C90.55-71 89.75-71.9 88.85-72.5C89.35-71.5 89.75-70.3 89.65-68.9C89.55-64.8 90.25-63.9 90.55-63.6C90.65-63.5 90.85-63.4 91.25-63.6C91.35-63.6 91.65-63.7 91.85-64.2C92.45-65.5 92.15-67.9 91.05-70ZM10.85 0.5L8.25-2L65.55-59.3L68.05-56.8L10.85 0.5ZM70.85-58.8L67.55-62.1C67.15-62.5 67.15-63.2 67.55-63.6L82.15-78.1C82.55-78.5 83.25-78.5 83.65-78.1L86.95-74.8C87.35-74.4 87.35-73.7 86.95-73.3L72.35-58.8C71.95-58.4 71.25-58.4 70.85-58.8ZM4.65 7.5L1.35 4.2C0.95 3.8 0.95 3.1 1.35 2.7L4.65-0.6C5.05-1 5.75-1 6.15-0.6L9.45 2.7C9.85 3.1 9.85 3.8 9.45 4.2L6.05 7.5C5.65 7.9 5.05 7.9 4.65 7.5Z"/>
  </g>
  <g id="Regular-S" transform="matrix(1 0 0 1 1403.29 696)">
   <path d="M91.75-63C91.45-62.2 90.65-61.7 90.15-61.5C89.95-61.4 89.55-61.4 89.25-61.4C88.65-61.4 88.25-61.6 87.95-61.8C86.85-62.7 86.35-64.7 86.45-68.3C86.55-71.5 83.75-73.5 83.65-73.6C83.35-73.8 83.25-74.2 83.45-74.5C83.55-74.8 83.95-75 84.35-74.9C84.55-74.8 89.15-73.6 90.95-70.1C92.15-67.5 92.55-64.7 91.75-63ZM89.55-69.4C88.95-70.6 87.95-71.5 86.95-72.1C87.55-71.1 88.05-69.8 87.95-68.2C87.85-64.1 88.55-63.1 88.85-62.9C88.95-62.8 89.15-62.7 89.65-62.8C89.95-62.9 90.15-63.1 90.35-63.5C90.95-64.9 90.65-67.3 89.55-69.4ZM10.25 0.3L7.75-2.3L64.65-59.2L67.15-56.7L10.25 0.3ZM69.45-58.2L66.25-61.5C65.85-61.9 65.85-62.5 66.25-62.9L80.65-77.3C81.05-77.7 81.65-77.7 82.05-77.3L85.25-74.1C85.65-73.7 85.65-73.1 85.25-72.7L70.95-58.2C70.55-57.8 69.85-57.8 69.45-58.2ZM4.55 6.7L1.35 3.4C0.95 3 0.95 2.4 1.35 2L4.55-1.2C4.95-1.6 5.55-1.6 5.95-1.2L9.25 2C9.65 2.4 9.65 3 9.25 3.4L6.05 6.7C5.65 7.1 4.95 7.1 4.55 6.7Z"/>
  </g>
  <g id="Light-S" transform="matrix(1 0 0 1 1107.5 696)">
   <path d="M89.95-62.6C89.65-61.9 89.15-61.4 88.45-61.2C88.15-61.1 87.95-61.1 87.65-61.1C87.15-61.1 86.75-61.3 86.45-61.5C85.35-62.3 84.95-64.3 85.05-67.8C85.15-71 82.35-73 82.35-73C82.15-73.2 82.05-73.5 82.15-73.8C82.25-74.1 82.55-74.2 82.85-74.1C83.05-74.1 87.55-72.9 89.15-69.4C90.35-66.9 90.65-64.3 89.95-62.6ZM88.05-68.9C87.45-70.2 86.25-71.2 85.15-71.8C85.85-70.8 86.35-69.4 86.35-67.7C86.25-63.8 86.85-62.8 87.25-62.5C87.35-62.4 87.65-62.3 88.15-62.4C88.45-62.5 88.65-62.7 88.85-63.1C89.35-64.4 89.05-66.8 88.05-68.9ZM9.95-0.3L7.55-2.7L64.35-59.5L66.85-57L9.95-0.3ZM68.35-57.9L65.15-61.1C64.75-61.5 64.75-62.1 65.15-62.5L79.15-76.5C79.55-76.9 80.15-76.9 80.55-76.5L83.75-73.3C84.15-72.9 84.15-72.3 83.75-71.9L69.75-57.9C69.35-57.5 68.75-57.5 68.35-57.9ZM4.55 5.9L1.35 2.8C0.95 2.4 0.95 1.8 1.35 1.4L4.55-1.8C4.95-2.2 5.55-2.2 5.95-1.8L9.15 1.4C9.55 1.8 9.55 2.4 9.15 2.8L5.95 5.9C5.55 6.3 4.95 6.3 4.55 5.9Z"/>
  </g>
  <g id="Thin-S" transform="matrix(1 0 0 1 811.686 696)">
   <path d="M88.15-62.2C87.85-61.5 87.35-61 86.75-60.9C86.45-60.8 86.25-60.8 85.95-60.8C85.45-60.8 85.05-61 84.85-61.2C83.85-62 83.35-63.9 83.45-67.3C83.55-70.5 80.75-72.5 80.75-72.5C80.55-72.6 80.45-72.9 80.55-73.1C80.65-73.3 80.95-73.4 81.15-73.4C81.35-73.4 85.65-72.2 87.35-68.9C88.55-66.3 88.85-63.7 88.15-62.2ZM86.45-68.3C85.75-69.8 84.35-70.8 83.15-71.4C83.95-70.4 84.65-68.9 84.55-67.1C84.45-63.5 85.05-62.2 85.55-61.9C85.75-61.8 85.95-61.6 86.55-61.8C86.85-61.9 87.15-62.2 87.35-62.6C87.85-63.8 87.45-66.2 86.45-68.3ZM9.55-0.7L7.15-3.1L63.35-59.3L65.75-56.9L9.55-0.7ZM67.05-57.5L63.95-60.6C63.55-61 63.55-61.6 63.95-62L77.75-75.8C78.15-76.2 78.75-76.2 79.15-75.8L82.25-72.7C82.65-72.3 82.65-71.7 82.25-71.3L68.45-57.5C68.05-57.1 67.45-57.1 67.05-57.5ZM4.45 5.1L1.35 2C0.95 1.6 0.95 1 1.35 0.6L4.45-2.5C4.85-2.9 5.45-2.9 5.85-2.5L8.95 0.6C9.35 1 9.35 1.6 8.95 2L5.85 5.1C5.45 5.5 4.85 5.5 4.45 5.1Z"/>
  </g>
  <g id="Ultralight-S" transform="matrix(1 0 0 1 515.905 696)">
   <path d="M86.35-61.7C86.05-61.1 85.65-60.6 85.05-60.4C84.75-60.3 84.55-60.3 84.35-60.3C83.95-60.3 83.65-60.4 83.35-60.6C82.35-61.3 81.95-63.3 82.05-66.5C82.15-69.7 79.35-71.7 79.35-71.7C79.15-71.8 79.15-72 79.25-72.2C79.35-72.4 79.55-72.5 79.75-72.4C79.95-72.4 84.15-71.2 85.75-68C86.65-65.7 86.95-63.2 86.35-61.7ZM84.85-67.7C84.05-69.4 82.45-70.4 81.15-71C81.95-70 82.85-68.5 82.75-66.5C82.65-62.9 83.25-61.7 83.75-61.3C84.05-61.1 84.35-61.1 84.75-61.2C85.15-61.3 85.35-61.6 85.55-62C86.15-63.3 85.85-65.6 84.85-67.7ZM9.05-1L6.65-3.4L62.35-59.1L64.75-56.7L9.05-1ZM65.75-57.1L62.75-60.1C62.35-60.5 62.35-61.1 62.75-61.4L76.15-75C76.55-75.4 77.15-75.4 77.45-75L80.45-72C80.85-71.6 80.85-71 80.45-70.7L67.05-57.1C66.75-56.7 66.15-56.7 65.75-57.1ZM4.35 4.4L1.35 1.4C0.95 1 0.95 0.4 1.35 0.1L4.35-2.9C4.75-3.3 5.35-3.3 5.65-2.9L8.65 0.1C9.05 0.5 9.05 1.1 8.65 1.4L5.65 4.4C5.35 4.7 4.75 4.7 4.35 4.4Z"/>
  </g>
 </g>
</svg>
