<?xml version="1.0" encoding="UTF-8"?>
<!--Generator: Apple Native CoreSVG 175.5-->
<!DOCTYPE svg
PUBLIC "-//W3C//DTD SVG 1.1//EN"
       "http://www.w3.org/Graphics/SVG/1.1/DTD/svg11.dtd">
<svg version="1.1" xmlns="http://www.w3.org/2000/svg" xmlns:xlink="http://www.w3.org/1999/xlink" width="3300" height="2200">
 <!--glyph: "", point size: 100.0, font version: "18.0d9e1", template writer version: "84"-->
 <g id="Notes">
  <rect height="2200" id="artboard" style="fill:white;opacity:1" width="3300" x="0" y="0"/>
  <line style="fill:none;stroke:black;opacity:1;stroke-width:0.5;" x1="263" x2="3036" y1="292" y2="292"/>
  <text style="stroke:none;fill:black;font-family:sans-serif;font-size:13;font-weight:bold;" transform="matrix(1 0 0 1 263 322)">Weight/Scale Variations</text>
  <text style="stroke:none;fill:black;font-family:sans-serif;font-size:13;text-anchor:middle;" transform="matrix(1 0 0 1 559.711 322)">Ultralight</text>
  <text style="stroke:none;fill:black;font-family:sans-serif;font-size:13;text-anchor:middle;" transform="matrix(1 0 0 1 856.422 322)">Thin</text>
  <text style="stroke:none;fill:black;font-family:sans-serif;font-size:13;text-anchor:middle;" transform="matrix(1 0 0 1 1153.13 322)">Light</text>
  <text style="stroke:none;fill:black;font-family:sans-serif;font-size:13;text-anchor:middle;" transform="matrix(1 0 0 1 1449.84 322)">Regular</text>
  <text style="stroke:none;fill:black;font-family:sans-serif;font-size:13;text-anchor:middle;" transform="matrix(1 0 0 1 1746.56 322)">Medium</text>
  <text style="stroke:none;fill:black;font-family:sans-serif;font-size:13;text-anchor:middle;" transform="matrix(1 0 0 1 2043.27 322)">Semibold</text>
  <text style="stroke:none;fill:black;font-family:sans-serif;font-size:13;text-anchor:middle;" transform="matrix(1 0 0 1 2339.98 322)">Bold</text>
  <text style="stroke:none;fill:black;font-family:sans-serif;font-size:13;text-anchor:middle;" transform="matrix(1 0 0 1 2636.69 322)">Heavy</text>
  <text style="stroke:none;fill:black;font-family:sans-serif;font-size:13;text-anchor:middle;" transform="matrix(1 0 0 1 2933.4 322)">Black</text>
  <line style="fill:none;stroke:black;opacity:1;stroke-width:0.5;" x1="263" x2="3036" y1="1903" y2="1903"/>
  <g transform="matrix(1 0 0 1 263 1933)">
   <path d="M9.24805 0.830078Q10.8691 0.830078 12.2949 0.214844Q13.7207-0.400391 14.8096-1.49414Q15.8984-2.58789 16.5186-4.01367Q17.1387-5.43945 17.1387-7.05078Q17.1387-8.66211 16.5186-10.0879Q15.8984-11.5137 14.8047-12.6074Q13.7109-13.7012 12.2852-14.3164Q10.8594-14.9316 9.23828-14.9316Q7.62695-14.9316 6.20117-14.3164Q4.77539-13.7012 3.69141-12.6074Q2.60742-11.5137 1.9873-10.0879Q1.36719-8.66211 1.36719-7.05078Q1.36719-5.43945 1.9873-4.01367Q2.60742-2.58789 3.69629-1.49414Q4.78516-0.400391 6.21094 0.214844Q7.63672 0.830078 9.24805 0.830078ZM9.24805-0.654297Q7.91992-0.654297 6.7627-1.14746Q5.60547-1.64062 4.73145-2.51953Q3.85742-3.39844 3.36426-4.56055Q2.87109-5.72266 2.87109-7.05078Q2.87109-8.37891 3.35938-9.54102Q3.84766-10.7031 4.72168-11.582Q5.5957-12.4609 6.75293-12.9541Q7.91016-13.4473 9.23828-13.4473Q10.5762-13.4473 11.7383-12.9541Q12.9004-12.4609 13.7793-11.582Q14.6582-10.7031 15.1514-9.54102Q15.6445-8.37891 15.6445-7.05078Q15.6445-5.72266 15.1514-4.56055Q14.6582-3.39844 13.7793-2.51953Q12.9004-1.64062 11.7432-1.14746Q10.5859-0.654297 9.24805-0.654297ZM5.6543-7.05078Q5.6543-6.72852 5.85938-6.52832Q6.06445-6.32812 6.40625-6.32812L8.51562-6.32812L8.51562-4.20898Q8.51562-3.88672 8.71094-3.67676Q8.90625-3.4668 9.23828-3.4668Q9.56055-3.4668 9.77051-3.67676Q9.98047-3.88672 9.98047-4.20898L9.98047-6.32812L12.0898-6.32812Q12.4219-6.32812 12.627-6.52832Q12.832-6.72852 12.832-7.05078Q12.832-7.38281 12.627-7.58789Q12.4219-7.79297 12.0898-7.79297L9.98047-7.79297L9.98047-9.90234Q9.98047-10.2344 9.77051-10.4443Q9.56055-10.6543 9.23828-10.6543Q8.90625-10.6543 8.71094-10.4443Q8.51562-10.2344 8.51562-9.90234L8.51562-7.79297L6.40625-7.79297Q6.06445-7.79297 5.85938-7.58789Q5.6543-7.38281 5.6543-7.05078Z"/>
  </g>
  <g transform="matrix(1 0 0 1 281.867 1933)">
   <path d="M11.709 2.91016Q13.75 2.91016 15.5518 2.12891Q17.3535 1.34766 18.7305-0.0292969Q20.1074-1.40625 20.8887-3.20801Q21.6699-5.00977 21.6699-7.05078Q21.6699-9.0918 20.8887-10.8936Q20.1074-12.6953 18.7305-14.0723Q17.3535-15.4492 15.5469-16.2305Q13.7402-17.0117 11.6992-17.0117Q9.6582-17.0117 7.85645-16.2305Q6.05469-15.4492 4.68262-14.0723Q3.31055-12.6953 2.5293-10.8936Q1.74805-9.0918 1.74805-7.05078Q1.74805-5.00977 2.5293-3.20801Q3.31055-1.40625 4.6875-0.0292969Q6.06445 1.34766 7.86621 2.12891Q9.66797 2.91016 11.709 2.91016ZM11.709 1.25Q9.98047 1.25 8.47656 0.605469Q6.97266-0.0390625 5.83496-1.17676Q4.69727-2.31445 4.05762-3.81836Q3.41797-5.32227 3.41797-7.05078Q3.41797-8.7793 4.05762-10.2832Q4.69727-11.7871 5.83008-12.9297Q6.96289-14.0723 8.4668-14.7119Q9.9707-15.3516 11.6992-15.3516Q13.4277-15.3516 14.9365-14.7119Q16.4453-14.0723 17.583-12.9297Q18.7207-11.7871 19.3652-10.2832Q20.0098-8.7793 20.0098-7.05078Q20.0098-5.32227 19.3701-3.81836Q18.7305-2.31445 17.5879-1.17676Q16.4453-0.0390625 14.9414 0.605469Q13.4375 1.25 11.709 1.25ZM7.17773-7.05078Q7.17773-6.69922 7.41211-6.47461Q7.64648-6.25 8.01758-6.25L10.8887-6.25L10.8887-3.36914Q10.8887-2.99805 11.1133-2.76855Q11.3379-2.53906 11.6895-2.53906Q12.0605-2.53906 12.29-2.76855Q12.5195-2.99805 12.5195-3.36914L12.5195-6.25L15.4004-6.25Q15.7715-6.25 16.001-6.47461Q16.2305-6.69922 16.2305-7.05078Q16.2305-7.42188 16.001-7.65137Q15.7715-7.88086 15.4004-7.88086L12.5195-7.88086L12.5195-10.752Q12.5195-11.1328 12.29-11.3623Q12.0605-11.5918 11.6895-11.5918Q11.3379-11.5918 11.1133-11.3574Q10.8887-11.123 10.8887-10.752L10.8887-7.88086L8.01758-7.88086Q7.63672-7.88086 7.40723-7.65137Q7.17773-7.42188 7.17773-7.05078Z"/>
  </g>
  <g transform="matrix(1 0 0 1 305.646 1933)">
   <path d="M14.9707 5.66406Q17.0605 5.66406 18.96 5.01465Q20.8594 4.36523 22.4512 3.19336Q24.043 2.02148 25.2197 0.429688Q26.3965-1.16211 27.0459-3.06641Q27.6953-4.9707 27.6953-7.05078Q27.6953-9.14062 27.0459-11.04Q26.3965-12.9395 25.2197-14.5312Q24.043-16.123 22.4512-17.2998Q20.8594-18.4766 18.9551-19.126Q17.0508-19.7754 14.9609-19.7754Q12.8711-19.7754 10.9717-19.126Q9.07227-18.4766 7.48535-17.2998Q5.89844-16.123 4.72168-14.5312Q3.54492-12.9395 2.90039-11.04Q2.25586-9.14062 2.25586-7.05078Q2.25586-4.9707 2.90527-3.06641Q3.55469-1.16211 4.72656 0.429688Q5.89844 2.02148 7.49023 3.19336Q9.08203 4.36523 10.9814 5.01465Q12.8809 5.66406 14.9707 5.66406ZM14.9707 3.84766Q13.1641 3.84766 11.5283 3.2959Q9.89258 2.74414 8.53516 1.74805Q7.17773 0.751953 6.17676-0.610352Q5.17578-1.97266 4.62891-3.6084Q4.08203-5.24414 4.08203-7.05078Q4.08203-8.86719 4.62891-10.5029Q5.17578-12.1387 6.17188-13.501Q7.16797-14.8633 8.52539-15.8594Q9.88281-16.8555 11.5186-17.4023Q13.1543-17.9492 14.9609-17.9492Q16.7773-17.9492 18.4131-17.4023Q20.0488-16.8555 21.4111-15.8594Q22.7734-14.8633 23.7744-13.501Q24.7754-12.1387 25.3223-10.5029Q25.8691-8.86719 25.8691-7.05078Q25.8691-5.24414 25.3223-3.6084Q24.7754-1.97266 23.7793-0.610352Q22.7832 0.751953 21.4209 1.74805Q20.0586 2.74414 18.4229 3.2959Q16.7871 3.84766 14.9707 3.84766ZM9.19922-7.05078Q9.19922-6.66992 9.45801-6.4209Q9.7168-6.17188 10.1172-6.17188L14.0625-6.17188L14.0625-2.2168Q14.0625-1.81641 14.3115-1.55762Q14.5605-1.29883 14.9512-1.29883Q15.3516-1.29883 15.6104-1.55273Q15.8691-1.80664 15.8691-2.2168L15.8691-6.17188L19.8242-6.17188Q20.2246-6.17188 20.4785-6.4209Q20.7324-6.66992 20.7324-7.05078Q20.7324-7.46094 20.4785-7.71484Q20.2246-7.96875 19.8242-7.96875L15.8691-7.96875L15.8691-11.9141Q15.8691-12.3242 15.6104-12.583Q15.3516-12.8418 14.9512-12.8418Q14.5605-12.8418 14.3115-12.583Q14.0625-12.3242 14.0625-11.9141L14.0625-7.96875L10.1172-7.96875Q9.70703-7.96875 9.45312-7.71484Q9.19922-7.46094 9.19922-7.05078Z"/>
  </g>
  <text style="stroke:none;fill:black;font-family:sans-serif;font-size:13;font-weight:bold;" transform="matrix(1 0 0 1 263 1953)">Design Variations</text>
  <text style="stroke:none;fill:black;font-family:sans-serif;font-size:13;" transform="matrix(1 0 0 1 263 1971)">Symbols are supported in up to nine weights and three scales.</text>
  <text style="stroke:none;fill:black;font-family:sans-serif;font-size:13;" transform="matrix(1 0 0 1 263 1989)">For optimal layout with text and other symbols, vertically align</text>
  <text style="stroke:none;fill:black;font-family:sans-serif;font-size:13;" transform="matrix(1 0 0 1 263 2007)">symbols with the adjacent text.</text>
  <line style="fill:none;stroke:#00AEEF;stroke-width:0.5;opacity:1.0;" x1="776" x2="776" y1="1919" y2="1933"/>
  <g transform="matrix(1 0 0 1 776 1933)">
   <path d="M3.31055 0.15625Q3.70117 0.15625 3.91602-0.00976562Q4.13086-0.175781 4.26758-0.585938L5.52734-4.0332L11.2891-4.0332L12.5488-0.585938Q12.6855-0.175781 12.9004-0.00976562Q13.1152 0.15625 13.4961 0.15625Q13.8867 0.15625 14.1162-0.0585938Q14.3457-0.273438 14.3457-0.644531Q14.3457-0.869141 14.2383-1.17188L9.6582-13.3691Q9.48242-13.8184 9.17969-14.043Q8.87695-14.2676 8.4082-14.2676Q7.5-14.2676 7.17773-13.3789L2.59766-1.16211Q2.49023-0.859375 2.49023-0.634766Q2.49023-0.263672 2.70996-0.0537109Q2.92969 0.15625 3.31055 0.15625ZM6.00586-5.51758L8.37891-12.0898L8.42773-12.0898L10.8008-5.51758Z"/>
  </g>
  <line style="fill:none;stroke:#00AEEF;stroke-width:0.5;opacity:1.0;" x1="793.197" x2="793.197" y1="1919" y2="1933"/>
  <text style="stroke:none;fill:black;font-family:sans-serif;font-size:13;font-weight:bold;" transform="matrix(1 0 0 1 776 1953)">Margins</text>
  <text style="stroke:none;fill:black;font-family:sans-serif;font-size:13;" transform="matrix(1 0 0 1 776 1971)">Leading and trailing margins on the left and right side of each symbol</text>
  <text style="stroke:none;fill:black;font-family:sans-serif;font-size:13;" transform="matrix(1 0 0 1 776 1989)">can be adjusted by modifying the x-location of the margin guidelines.</text>
  <text style="stroke:none;fill:black;font-family:sans-serif;font-size:13;" transform="matrix(1 0 0 1 776 2007)">Modifications are automatically applied proportionally to all</text>
  <text style="stroke:none;fill:black;font-family:sans-serif;font-size:13;" transform="matrix(1 0 0 1 776 2025)">scales and weights.</text>
  <g transform="matrix(1 0 0 1 1289 1933)">
   <path d="M2.8418 1.86523L4.54102 3.57422Q5.18555 4.22852 5.90332 4.17969Q6.62109 4.13086 7.31445 3.35938L18.0078-8.42773L17.041-9.4043L6.42578 2.27539Q6.16211 2.57812 5.89355 2.61719Q5.625 2.65625 5.27344 2.30469L4.10156 1.14258Q3.75 0.791016 3.79395 0.522461Q3.83789 0.253906 4.14062-0.0195312L15.6152-10.8203L14.6387-11.7871L3.04688-0.898438Q2.30469-0.214844 2.25098 0.498047Q2.19727 1.21094 2.8418 1.86523ZM9.25781-16.3281Q8.94531-16.0254 8.90625-15.6348Q8.86719-15.2441 9.04297-14.9512Q9.21875-14.6777 9.55566-14.541Q9.89258-14.4043 10.3809-14.5215Q11.4746-14.7754 12.5977-14.7314Q13.7207-14.6875 14.7949-13.9844L14.209-12.5293Q13.9551-11.9043 14.0674-11.4404Q14.1797-10.9766 14.5801-10.5664L16.875-8.25195Q17.2363-7.88086 17.5781-7.82227Q17.9199-7.76367 18.3398-7.8418L19.4043-8.03711L20.0684-7.36328L20.0293-6.80664Q20-6.43555 20.1221-6.12305Q20.2441-5.81055 20.6055-5.44922L21.3672-4.70703Q21.7285-4.3457 22.1533-4.33105Q22.5781-4.31641 22.9297-4.66797L25.8398-7.58789Q26.1914-7.93945 26.1816-8.35449Q26.1719-8.76953 25.8105-9.13086L25.0391-9.89258Q24.6875-10.2539 24.3799-10.3857Q24.0723-10.5176 23.7109-10.4883L23.1348-10.4395L22.4902-11.0742L22.7344-12.1973Q22.832-12.6172 22.6953-12.9834Q22.5586-13.3496 22.1191-13.7891L19.9219-15.9766Q18.6719-17.2168 17.2607-17.8369Q15.8496-18.457 14.4189-18.4814Q12.9883-18.5059 11.665-17.959Q10.3418-17.4121 9.25781-16.3281ZM10.752-15.957Q11.6602-16.6211 12.7002-16.9043Q13.7402-17.1875 14.8047-17.085Q15.8691-16.9824 16.8701-16.5137Q17.8711-16.0449 18.7012-15.2051L21.1328-12.793Q21.3086-12.6172 21.3525-12.4512Q21.3965-12.2852 21.3379-12.0312L21.0156-10.5469L22.5195-9.0625L23.5059-9.12109Q23.6914-9.13086 23.7891-9.09668Q23.8867-9.0625 24.0332-8.91602L24.6094-8.33984L22.168-5.89844L21.5918-6.47461Q21.4453-6.62109 21.4062-6.71875Q21.3672-6.81641 21.377-7.01172L21.4453-7.98828L19.9512-9.47266L18.4277-9.21875Q18.1836-9.16992 18.042-9.2041Q17.9004-9.23828 17.7148-9.41406L15.7129-11.416Q15.5176-11.5918 15.4932-11.7529Q15.4688-11.9141 15.5859-12.1875L16.4648-14.2773Q15.293-15.3711 13.8281-15.791Q12.3633-16.2109 10.8398-15.7617Q10.7227-15.7324 10.6885-15.8057Q10.6543-15.8789 10.752-15.957Z"/>
  </g>
  <text style="stroke:none;fill:black;font-family:sans-serif;font-size:13;font-weight:bold;" transform="matrix(1 0 0 1 1289 1953)">Exporting</text>
  <text style="stroke:none;fill:black;font-family:sans-serif;font-size:13;" transform="matrix(1 0 0 1 1289 1971)">Symbols should be outlined when exporting to ensure the</text>
  <text style="stroke:none;fill:black;font-family:sans-serif;font-size:13;" transform="matrix(1 0 0 1 1289 1989)">design is preserved when submitting to Xcode.</text>
  <text id="template-version" style="stroke:none;fill:black;font-family:sans-serif;font-size:13;text-anchor:end;" transform="matrix(1 0 0 1 3036 1933)">Template v.2.0</text>
  <text style="stroke:none;fill:black;font-family:sans-serif;font-size:13;text-anchor:end;" transform="matrix(1 0 0 1 3036 1951)">Requires Xcode 12 or greater</text>
  <text id="descriptive-name" style="stroke:none;fill:black;font-family:sans-serif;font-size:13;text-anchor:end;" transform="matrix(1 0 0 1 3036 1969)">Generated from custom.dress</text>
  <text style="stroke:none;fill:black;font-family:sans-serif;font-size:13;text-anchor:end;" transform="matrix(1 0 0 1 3036 1987)">Typeset at 100 points</text>
  <text style="stroke:none;fill:black;font-family:sans-serif;font-size:13;" transform="matrix(1 0 0 1 263 726)">Small</text>
  <text style="stroke:none;fill:black;font-family:sans-serif;font-size:13;" transform="matrix(1 0 0 1 263 1156)">Medium</text>
  <text style="stroke:none;fill:black;font-family:sans-serif;font-size:13;" transform="matrix(1 0 0 1 263 1586)">Large</text>
 </g>
 <g id="Guides">
  <g id="H-reference" style="fill:#27AAE1;stroke:none;" transform="matrix(1 0 0 1 339 696)">
   <path d="M0.993347 0L3.6377 0L29.3282-67.1326L30.0301-67.1326L30.0301-70.459L28.1227-70.459ZM11.6882-24.4797L46.9818-24.4797L46.2311-26.7288L12.4382-26.7288ZM55.1193 0L57.7637 0L30.6381-70.459L29.4327-70.459L29.4327-67.1326Z"/>
  </g>
  <line id="Baseline-S" style="fill:none;stroke:#27AAE1;opacity:1;stroke-width:0.5;" x1="263" x2="3036" y1="696" y2="696"/>
  <line id="Capline-S" style="fill:none;stroke:#27AAE1;opacity:1;stroke-width:0.5;" x1="263" x2="3036" y1="625.541" y2="625.541"/>
  <g id="H-reference" style="fill:#27AAE1;stroke:none;" transform="matrix(1 0 0 1 339 1126)">
   <path d="M0.993347 0L3.6377 0L29.3282-67.1326L30.0301-67.1326L30.0301-70.459L28.1227-70.459ZM11.6882-24.4797L46.9818-24.4797L46.2311-26.7288L12.4382-26.7288ZM55.1193 0L57.7637 0L30.6381-70.459L29.4327-70.459L29.4327-67.1326Z"/>
  </g>
  <line id="Baseline-M" style="fill:none;stroke:#27AAE1;opacity:1;stroke-width:0.5;" x1="263" x2="3036" y1="1126" y2="1126"/>
  <line id="Capline-M" style="fill:none;stroke:#27AAE1;opacity:1;stroke-width:0.5;" x1="263" x2="3036" y1="1055.54" y2="1055.54"/>
  <g id="H-reference" style="fill:#27AAE1;stroke:none;" transform="matrix(1 0 0 1 339 1556)">
   <path d="M0.993347 0L3.6377 0L29.3282-67.1326L30.0301-67.1326L30.0301-70.459L28.1227-70.459ZM11.6882-24.4797L46.9818-24.4797L46.2311-26.7288L12.4382-26.7288ZM55.1193 0L57.7637 0L30.6381-70.459L29.4327-70.459L29.4327-67.1326Z"/>
  </g>
  <line id="Baseline-L" style="fill:none;stroke:#27AAE1;opacity:1;stroke-width:0.5;" x1="263" x2="3036" y1="1556" y2="1556"/>
  <line id="Capline-L" style="fill:none;stroke:#27AAE1;opacity:1;stroke-width:0.5;" x1="263" x2="3036" y1="1485.54" y2="1485.54"/>
  <line id="left-margin" style="fill:none;stroke:#00AEEF;stroke-width:0.5;opacity:1.0;" x1="1390.56" x2="1390.56" y1="1030.73" y2="1150.14"/>
  <line id="right-margin" style="fill:none;stroke:#00AEEF;stroke-width:0.5;opacity:1.0;" x1="1509.13" x2="1509.13" y1="1030.73" y2="1150.14"/>
 </g>
 <g id="Symbols">
  <g id="Black-L" transform="matrix(1 0 0 1 2854.15 1556)">
   <path d="M60.5337-109.8L60.5337-130C60.5337-133.2 57.9337-135.8 54.7337-135.8C51.5337-135.8 48.9337-133.2 48.9337-130L48.9337-109.7C48.9337-106.5 51.5337-103.9 54.7337-103.9C57.9337-104 60.5337-106.5 60.5337-109.8ZM109.234-109.8L109.234-130C109.234-133.2 106.634-135.8 103.434-135.8C100.234-135.8 97.6337-133.2 97.6337-130L97.6337-109.7C97.6337-106.5 100.234-103.9 103.434-103.9C106.634-103.9 109.234-106.5 109.234-109.8ZM153.734 48.8C153.034 35.9 149.334 23.6 143.234 12.3C130.334-11.6 116.634-35.1 103.034-58.6C102.834-58.9 102.034-68.5 102.334-69C106.434-75.4 110.334-82 114.034-88.6C116.234-92.7 117.534-97.3 115.134-101.5C109.834-110.7 100.334-115 96.5337-109.8C87.3337-97.1 70.9337-97.2 61.6337-109.8C57.3337-115.7 49.8337-112.6 44.9337-105.5C41.1337-100 41.1337-94 44.3337-88.2C48.0337-81.7 51.8337-75.3 55.8337-69C56.2337-68.3 55.3337-58.9 55.1337-58.6C42.5337-37 29.5337-15.4 17.5337 6.7C10.5337 19.4 6.03368 33 4.53368 47.4C4.03368 52.1 5.73368 54.3 10.7337 55.7C56.8337 68.8 102.834 68.7 148.934 55.3C152.634 54.2 153.934 52.4 153.734 48.8Z"/>
  </g>
  <g id="Heavy-L" transform="matrix(1 0 0 1 2558.24 1556)">
   <path d="M59.5338-109L59.5338-129C59.5338-132 57.1338-134.4 54.1338-134.4C51.1338-134.4 48.7338-132 48.7338-129L48.7338-109C48.7338-106 51.1338-103.6 54.1338-103.6C57.1338-103.6 59.5338-106 59.5338-109ZM107.734-109L107.734-129C107.734-132 105.334-134.4 102.334-134.4C99.3338-134.4 96.9338-132 96.9338-129L96.9338-109C96.9338-106 99.3338-103.6 102.334-103.6C105.334-103.6 107.734-106 107.734-109ZM152.134 47.8C151.434 35.1 147.834 22.9 141.834 11.7C129.134-11.9 115.434-35.1 102.034-58.5C101.834-58.8 101.034-68.3 101.334-68.8C105.334-75.2 109.234-81.6 112.934-88.2C115.134-92.2 116.334-96.8 114.034-101C108.834-110.1 99.3338-114.3 95.6338-109.2C86.5338-96.7 70.2338-96.7 61.0338-109.2C56.7338-115 49.3338-112 44.5338-104.9C40.8338-99.5 40.7338-93.5 44.0338-87.8C47.6338-81.4 51.4338-75 55.4338-68.8C55.8338-68.2 54.9338-58.8 54.7338-58.6C42.1338-37 29.2338-15.6 17.3338 6.2C10.5338 18.8 6.03381 32.3 4.53381 46.5C4.03381 51.1 5.73381 53.3 10.6338 54.7C56.2338 67.6 101.734 67.5 147.334 54.3C151.034 53.3 152.334 51.4 152.134 47.8Z"/>
  </g>
  <g id="Bold-L" transform="matrix(1 0 0 1 2262.33 1556)">
   <path d="M58.534-108.2L58.534-128C58.534-130.7 56.334-132.9 53.634-132.9C50.934-132.9 48.734-130.7 48.734-128L48.734-108.2C48.734-105.5 50.934-103.3 53.634-103.3C56.334-103.3 58.534-105.5 58.534-108.2ZM106.234-108.2L106.234-128C106.234-130.7 104.034-132.9 101.334-132.9C98.634-132.9 96.434-130.7 96.434-128L96.434-108.2C96.434-105.5 98.634-103.3 101.334-103.3C104.034-103.3 106.234-105.5 106.234-108.2ZM150.534 46.9C149.834 34.3 146.234 22.3 140.334 11.2C127.734-12.2 114.234-35.1 101.034-58.2C100.834-58.5 100.034-67.9 100.434-68.4C104.434-74.7 108.234-81.1 111.834-87.6C114.034-91.6 115.234-96.2 112.934-100.2C107.834-109.2 98.434-113.4 94.734-108.3C85.734-95.9 69.634-95.9 60.534-108.3C56.234-114 48.934-111 44.034-104C40.334-98.7 40.234-92.8 43.534-87.1C47.134-80.8 50.834-74.5 54.834-68.3C55.234-67.7 54.334-58.4 54.234-58.2C41.734-37 29.034-15.8 17.234 5.7C10.434 18.2 6.03395 31.5 4.53395 45.6C4.03395 50.2 5.73395 52.3 10.534 53.7C55.634 66.5 100.634 66.4 145.734 53.3C149.434 52.3 150.734 50.5 150.534 46.9Z"/>
  </g>
  <g id="Semibold-L" transform="matrix(1 0 0 1 1966.41 1556)">
   <path d="M57.534-107.4L57.534-127C57.534-129.5 55.534-131.5 53.034-131.5C50.534-131.5 48.534-129.5 48.534-127L48.534-107.4C48.534-104.9 50.534-102.9 53.034-102.9C55.534-102.9 57.534-104.9 57.534-107.4ZM104.734-107.4L104.734-127C104.734-129.5 102.734-131.5 100.234-131.5C97.734-131.5 95.734-129.5 95.734-127L95.734-107.4C95.734-104.9 97.734-102.9 100.234-102.9C102.734-102.9 104.734-104.9 104.734-107.4ZM148.934 46C148.234 33.6 144.734 21.7 138.834 10.7C126.434-12.4 113.034-35.1 99.934-57.9C99.734-58.2 98.934-67.5 99.334-68C103.234-74.2 107.134-80.5 110.634-87C112.834-90.9 114.034-95.5 111.734-99.5C106.634-108.4 97.434-112.5 93.734-107.5C84.834-95.2 68.934-95.3 59.934-107.5C55.734-113.2 48.534-110.2 43.734-103.3C40.034-98 40.034-92.2 43.234-86.6C46.834-80.3 50.534-74.1 54.334-68C54.734-67.4 53.834-58.2 53.734-58C41.334-37 28.734-16.1 17.134 5.3C10.434 17.5 6.03395 30.7 4.53395 44.7C4.03395 49.2 5.73395 51.4 10.534 52.7C55.134 65.3 99.634 65.2 144.234 52.3C147.834 51.3 149.134 49.5 148.934 46Z"/>
  </g>
  <g id="Medium-L" transform="matrix(1 0 0 1 1670.55 1556)">
   <path d="M56.5341-106.6L56.5341-126C56.5341-128.2 54.7341-130 52.5341-130C50.3341-130 48.5341-128.2 48.5341-126L48.5341-106.6C48.5341-104.4 50.3341-102.6 52.5341-102.6C54.7341-102.6 56.5341-104.4 56.5341-106.6ZM103.134-106.6L103.134-126C103.134-128.2 101.334-130 99.1341-130C96.9341-130 95.1341-128.2 95.1341-126L95.1341-106.6C95.1341-104.4 96.9341-102.6 99.1341-102.6C101.334-102.6 103.134-104.4 103.134-106.6ZM147.234 45C146.534 32.7 143.034 20.9 137.234 10.1C124.934-12.8 111.734-35.2 98.8341-57.7C98.6341-58 97.8341-67.1 98.2341-67.7C102.134-73.9 105.934-80.1 109.434-86.4C111.534-90.3 112.734-94.8 110.434-98.8C105.434-107.6 96.2341-111.7 92.6341-106.7C83.8341-94.6 68.1341-94.6 59.2341-106.7C55.0341-112.3 47.9341-109.4 43.2341-102.6C39.6341-97.4 39.5341-91.6 42.7341-86.1C46.2341-79.9 49.9341-73.8 53.7341-67.7C54.0341-67 53.1341-58 53.0341-57.7C40.8341-37 28.4341-16.3 16.9341 4.8C10.3341 16.9 5.93409 30 4.53409 43.8C4.03409 48.3 5.73409 50.4 10.4341 51.7C54.5341 64.2 98.5341 64.1 142.534 51.3C146.134 50.3 147.434 48.5 147.234 45Z"/>
  </g>
  <g id="Regular-L" transform="matrix(1 0 0 1 1374.7 1556)">
   <path d="M55.5117-105.8L55.5117-124.9C55.5117-126.9 53.9117-128.5 51.9117-128.5C49.9117-128.5 48.3117-126.9 48.3117-124.9L48.3117-105.8C48.3117-103.8 49.9117-102.2 51.9117-102.2C53.9117-102.2 55.5117-103.8 55.5117-105.8ZM101.612-105.8L101.612-124.9C101.612-126.9 100.012-128.5 98.0117-128.5C96.0117-128.5 94.4117-126.9 94.4117-124.9L94.4117-105.8C94.4117-103.8 96.0117-102.2 98.0117-102.2C100.012-102.1 101.612-103.8 101.612-105.8ZM145.512 44.1C144.812 31.9 141.412 20.3 135.612 9.6C123.412-13 110.412-35.2 97.6117-57.4C97.4117-57.7 96.6117-66.7 97.0117-67.3C100.812-73.4 104.612-79.5 108.012-85.8C110.112-89.6 111.312-94.1 109.012-98C104.012-106.7 95.0117-110.7 91.4117-105.8C82.7117-93.8 67.2117-93.8 58.4117-105.8C54.3117-111.4 47.2117-108.4 42.6117-101.7C39.0117-96.5 39.0117-90.8 42.1117-85.4C45.6117-79.3 49.2117-73.2 53.0117-67.2C53.4117-66.6 52.5117-57.7 52.4117-57.4C40.4117-37 28.1117-16.5 16.7117 4.3C10.2117 16.3 5.81172 29.2 4.51172 42.8C4.11172 47.2 5.61172 49.3 10.3117 50.6C53.9117 63 97.4117 62.9 140.912 50.3C144.412 49.3 145.712 47.5 145.512 44.1Z"/>
  </g>
  <g id="Light-L" transform="matrix(1 0 0 1 1078.8 1556)">
   <path d="M54.5117-105L54.5117-123.9C54.5117-125.6 53.1117-127.1 51.3117-127.1C49.6117-127.1 48.1117-125.7 48.1117-123.9L48.1117-105C48.1117-103.3 49.5117-101.8 51.3117-101.8C53.1117-101.8 54.5117-103.2 54.5117-105ZM100.112-105L100.112-123.9C100.112-125.6 98.7117-127.1 96.9117-127.1C95.2117-127.1 93.7117-125.7 93.7117-123.9L93.7117-105C93.7117-103.3 95.1117-101.8 96.9117-101.8C98.6117-101.8 100.112-103.2 100.112-105ZM143.912 43.1C143.212 31.1 139.812 19.6 134.112 9C122.112-13.3 109.212-35.2 96.6117-57.3C96.4117-57.6 95.7117-66.5 96.0117-67C99.8117-73 103.512-79.1 106.912-85.3C109.012-89.1 110.212-93.5 107.912-97.4C103.012-106 94.0117-110 90.5117-105.1C81.9117-93.2 66.5117-93.3 57.9117-105.1C53.8117-110.6 46.9117-107.7 42.3117-101.1C38.8117-96 38.7117-90.4 41.8117-84.9C45.2117-78.8 48.8117-72.9 52.5117-67C52.9117-66.4 52.0117-57.6 51.9117-57.3C39.9117-37 27.8117-16.8 16.6117 3.8C10.1117 15.7 5.81172 28.4 4.51172 41.9C4.11172 46.3 5.61172 48.3 10.3117 49.7C53.4117 61.9 96.4117 61.8 139.412 49.3C142.812 48.3 144.012 46.5 143.912 43.1Z"/>
  </g>
  <g id="Thin-L" transform="matrix(1 0 0 1 782.881 1556)">
   <path d="M53.6118-104.2L53.6118-122.9C53.6118-124.4 52.4118-125.6 50.9118-125.6C49.4118-125.6 48.2118-124.4 48.2118-122.9L48.2118-104.2C48.2118-102.7 49.4118-101.5 50.9118-101.5C52.4118-101.5 53.6118-102.7 53.6118-104.2ZM98.6118-104.2L98.6118-122.9C98.6118-124.4 97.4118-125.6 95.9118-125.6C94.4118-125.6 93.2118-124.4 93.2118-122.9L93.2118-104.2C93.2118-102.7 94.4118-101.5 95.9118-101.5C97.4118-101.5 98.6118-102.7 98.6118-104.2ZM142.312 42.2C141.612 30.3 138.312 19 132.612 8.5C120.712-13.5 108.012-35.2 95.5118-57C95.3118-57.3 94.6118-66.1 94.9118-66.6C98.7118-72.5 102.312-78.6 105.712-84.7C107.812-88.5 108.912-92.8 106.712-96.6C101.812-105.1 93.0118-109 89.5118-104.3C81.0118-92.6 65.8118-92.6 57.2118-104.3C53.2118-109.7 46.3118-106.9 41.8118-100.3C38.3118-95.3 38.3118-89.7 41.3118-84.3C44.7118-78.3 48.2118-72.4 51.9118-66.6C52.3118-66 51.4118-57.3 51.3118-57C39.6118-37 27.6118-17 16.5118 3.3C10.1118 15.1 5.91182 27.7 4.51182 41C4.11182 45.3 5.61182 47.4 10.2118 48.7C52.8118 60.7 95.3118 60.6 137.812 48.3C141.212 47.3 142.512 45.6 142.312 42.2Z"/>
  </g>
  <g id="Ultralight-L" transform="matrix(1 0 0 1 487.02 1556)">
   <path d="M52.5119-103.4L52.5119-121.9C52.5119-123.1 51.5119-124.2 50.2119-124.2C49.0119-124.2 47.9119-123.2 47.9119-121.9L47.9119-103.4C47.9119-102.2 48.9119-101.1 50.2119-101.1C51.5119-101.1 52.5119-102.1 52.5119-103.4ZM97.0119-103.4L97.0119-121.9C97.0119-123.1 96.0119-124.2 94.7119-124.2C93.4119-124.2 92.4119-123.2 92.4119-121.9L92.4119-103.4C92.4119-102.2 93.4119-101.1 94.7119-101.1C96.0119-101.1 97.0119-102.1 97.0119-103.4ZM140.612 41.3C139.912 29.6 136.612 18.3 131.112 8C119.312-13.8 106.812-35.2 94.4119-56.7C94.2119-57 93.5119-65.7 93.8119-66.2C97.5119-72.1 101.112-78 104.512-84.1C106.512-87.8 107.712-92.1 105.512-95.9C100.712-104.3 92.0119-108.2 88.5119-103.5C80.1119-91.9 65.1119-92 56.6119-103.5C52.6119-108.9 45.8119-106 41.3119-99.6C37.9119-94.6 37.8119-89.1 40.8119-83.8C44.2119-77.8 47.7119-72 51.3119-66.2C51.7119-65.6 50.8119-57 50.7119-56.7C39.1119-37 27.3119-17.2 16.3119 2.9C10.0119 14.5 5.81193 26.9 4.51193 40C4.11193 44.3 5.61193 46.3 10.1119 47.6C52.2119 59.5 94.2119 59.4 136.212 47.3C139.612 46.3 140.812 44.6 140.612 41.3Z"/>
  </g>
  <g id="Black-M" transform="matrix(1 0 0 1 2870.95 1126)">
   <path d="M47.9192-94.1L47.9192-109.8C47.9192-112.3 45.9192-114.3 43.4192-114.3C40.9192-114.3 38.9192-112.3 38.9192-109.8L38.9192-94.1C38.9192-91.6 40.9192-89.6 43.4192-89.6C45.9192-89.6 47.9192-91.6 47.9192-94.1ZM85.7192-94.1L85.7192-109.8C85.7192-112.3 83.7192-114.3 81.2192-114.3C78.7192-114.3 76.7192-112.3 76.7192-109.8L76.7192-94.1C76.7192-91.6 78.7192-89.6 81.2192-89.6C83.7192-89.6 85.7192-91.6 85.7192-94.1ZM120.119 28.8C119.519 18.8 116.719 9.3 112.019 0.5C102.019-18 91.3192-36.2 80.8192-54.5C80.7192-54.7 80.0192-62.2 80.3192-62.6C83.5192-67.6 86.5192-72.6 89.4192-77.8C91.1192-81 92.1192-84.6 90.2192-87.8C86.1192-94.9 78.7192-98.2 75.8192-94.2C68.7192-84.4 55.9192-84.4 48.7192-94.2C45.3192-98.8 39.5192-96.4 35.7192-90.8C32.8192-86.6 32.7192-81.9 35.3192-77.4C38.2192-72.4 41.1192-67.4 44.2192-62.5C44.5192-62 43.8192-54.7 43.7192-54.5C33.9192-37.6 23.8192-20.9 14.5192-3.8C9.11919 6.1 5.61919 16.6 4.51919 27.8C4.11919 31.4 5.41919 33.1 9.31919 34.2C45.1192 44.3 80.7192 44.2 116.419 33.9C119.319 33.1 120.319 31.7 120.119 28.8Z"/>
  </g>
  <g id="Heavy-M" transform="matrix(1 0 0 1 2574.89 1126)">
   <path d="M47.1193-93.4L47.1193-108.9C47.1193-111.2 45.2193-113 42.9193-113C40.6193-113 38.7193-111.1 38.7193-108.9L38.7193-93.4C38.7193-91.1 40.6193-89.3 42.9193-89.3C45.2193-89.3 47.1193-91.1 47.1193-93.4ZM84.5193-93.4L84.5193-108.9C84.5193-111.2 82.6193-113 80.3193-113C78.0193-113 76.1193-111.1 76.1193-108.9L76.1193-93.4C76.1193-91.1 78.0193-89.3 80.3193-89.3C82.6193-89.3 84.5193-91.1 84.5193-93.4ZM118.819 28.1C118.219 18.2 115.419 8.8 110.819 0.1C100.919-18.2 90.4193-36.2 80.0193-54.3C79.9193-54.5 79.2193-61.9 79.5193-62.3C82.6193-67.2 85.6193-72.2 88.5193-77.3C90.2193-80.4 91.2193-84 89.3193-87.2C85.3193-94.2 77.9193-97.5 75.1193-93.6C68.0193-83.9 55.4193-83.9 48.3193-93.6C45.0193-98.1 39.2193-95.7 35.5193-90.3C32.6193-86.1 32.6193-81.5 35.1193-77C37.9193-72 40.9193-67.1 43.9193-62.3C44.2193-61.8 43.5193-54.6 43.4193-54.4C33.6193-37.6 23.6193-21 14.4193-4.1C9.11934 5.6 5.61934 16.1 4.51934 27.1C4.11934 30.7 5.41934 32.4 9.21934 33.5C44.6193 43.5 79.8193 43.4 115.119 33.2C118.019 32.3 119.019 30.9 118.819 28.1Z"/>
  </g>
  <g id="Bold-M" transform="matrix(1 0 0 1 2278.78 1126)">
   <path d="M46.4193-92.7L46.4193-108.1C46.4193-110.2 44.7193-111.9 42.6193-111.9C40.5193-111.9 38.8193-110.2 38.8193-108.1L38.8193-92.7C38.8193-90.6 40.5193-88.9 42.6193-88.9C44.7193-88.9 46.4193-90.6 46.4193-92.7ZM83.3193-92.7L83.3193-108.1C83.3193-110.2 81.6193-111.9 79.5193-111.9C77.4193-111.9 75.7193-110.2 75.7193-108.1L75.7193-92.7C75.7193-90.6 77.4193-88.9 79.5193-88.9C81.6193-88.9 83.3193-90.6 83.3193-92.7ZM117.619 27.5C117.119 17.7 114.319 8.4 109.719-0.1C100.019-18.3 89.5193-36.1 79.2193-54C79.1193-54.2 78.4193-61.5 78.7193-61.9C81.8193-66.8 84.8193-71.7 87.6193-76.8C89.3193-79.9 90.2193-83.4 88.4193-86.6C84.4193-93.5 77.2193-96.8 74.3193-92.9C67.3193-83.3 54.9193-83.3 47.8193-92.9C44.5193-97.4 38.8193-95 35.1193-89.6C32.2193-85.5 32.2193-80.9 34.7193-76.5C37.5193-71.6 40.4193-66.7 43.4193-61.9C43.7193-61.4 43.0193-54.3 42.9193-54C33.3193-37.5 23.5193-21.2 14.3193-4.5C9.01934 5.1 5.61934 15.5 4.51934 26.4C4.11934 30 5.41934 31.7 9.21934 32.7C44.2193 42.6 79.1193 42.5 114.019 32.4C116.819 31.6 117.819 30.2 117.619 27.5Z"/>
  </g>
  <g id="Semibold-M" transform="matrix(1 0 0 1 1982.68 1126)">
   <path d="M45.6195-92.1L45.6195-107.3C45.6195-109.2 44.1195-110.8 42.1195-110.8C40.1195-110.8 38.6195-109.3 38.6195-107.3L38.6195-92.1C38.6195-90.2 40.1195-88.6 42.1195-88.6C44.1195-88.6 45.6195-90.2 45.6195-92.1ZM82.1195-92.1L82.1195-107.3C82.1195-109.2 80.6195-110.8 78.6195-110.8C76.6195-110.8 75.1195-109.3 75.1195-107.3L75.1195-92.1C75.1195-90.2 76.6195-88.6 78.6195-88.6C80.6195-88.6 82.1195-90.2 82.1195-92.1ZM116.419 26.8C115.919 17.2 113.119 7.9 108.619-0.5C99.0195-18.4 88.6195-36 78.5195-53.7C78.4195-53.9 77.7195-61.1 78.0195-61.5C81.0195-66.3 84.0195-71.2 86.8195-76.2C88.5195-79.2 89.4195-82.8 87.6195-85.9C83.7195-92.8 76.5195-96 73.7195-92.1C66.8195-82.6 54.5195-82.6 47.5195-92.1C44.2195-96.5 38.6195-94.2 35.0195-88.9C32.2195-84.8 32.1195-80.3 34.6195-75.9C37.4195-71 40.2195-66.2 43.2195-61.5C43.5195-61 42.8195-53.9 42.7195-53.7C33.0195-37.5 23.2195-21.3 14.2195-4.8C9.01949 4.7 5.61949 15 4.51949 25.8C4.11949 29.3 5.41949 31 9.11949 32C43.7195 41.8 78.2195 41.7 112.719 31.7C115.519 30.9 116.519 29.5 116.419 26.8Z"/>
  </g>
  <g id="Medium-M" transform="matrix(1 0 0 1 1686.62 1126)">
   <path d="M44.8195-91.4L44.8195-106.4C44.8195-108.1 43.4195-109.5 41.7195-109.5C40.0195-109.5 38.6195-108.1 38.6195-106.4L38.6195-91.4C38.6195-89.7 40.0195-88.3 41.7195-88.3C43.4195-88.3 44.8195-89.7 44.8195-91.4ZM80.9195-91.4L80.9195-106.4C80.9195-108.1 79.5195-109.5 77.8195-109.5C76.1195-109.5 74.7195-108.1 74.7195-106.4L74.7195-91.4C74.7195-89.7 76.1195-88.3 77.8195-88.3C79.5195-88.3 80.9195-89.7 80.9195-91.4ZM115.119 26.1C114.619 16.6 111.919 7.5 107.319-0.9C97.8195-18.6 87.5195-36 77.5195-53.5C77.4195-53.7 76.8195-60.8 77.0195-61.2C80.0195-66 82.9195-70.8 85.7195-75.7C87.4195-78.7 88.3195-82.2 86.5195-85.3C82.6195-92.1 75.5195-95.3 72.7195-91.4C65.9195-82 53.7195-82 46.8195-91.4C43.6195-95.8 38.0195-93.5 34.4195-88.2C31.6195-84.1 31.6195-79.7 34.0195-75.4C36.7195-70.6 39.6195-65.8 42.5195-61.2C42.8195-60.7 42.1195-53.7 42.0195-53.5C32.6195-37.5 23.0195-21.5 14.1195-5.1C8.91949 4.3 5.51949 14.4 4.51949 25.1C4.11949 28.6 5.41949 30.2 9.11949 31.3C43.3195 41 77.4195 40.9 111.519 31C114.219 30.2 115.219 28.8 115.119 26.1Z"/>
  </g>
  <g id="Regular-M" transform="matrix(1 0 0 1 1390.56 1126)">
   <path d="M44.0941-90.8L44.0941-105.6C44.0941-107.1 42.7941-108.4 41.2941-108.4C39.7941-108.4 38.4941-107.1 38.4941-105.6L38.4941-90.8C38.4941-89.3 39.7941-88 41.2941-88C42.7941-88 44.0941-89.2 44.0941-90.8ZM79.7941-90.8L79.7941-105.6C79.7941-107.1 78.4941-108.4 76.9941-108.4C75.4941-108.4 74.1941-107.1 74.1941-105.6L74.1941-90.8C74.1941-89.3 75.4941-88 76.9941-88C78.4941-88 79.7941-89.2 79.7941-90.8ZM113.794 25.4C113.294 16 110.594 7 106.094-1.3C96.6941-18.8 86.5941-36 76.6941-53.3C76.5941-53.5 75.9941-60.5 76.1941-60.9C79.1941-65.6 82.0941-70.4 84.7941-75.3C86.3941-78.3 87.3941-81.7 85.5941-84.8C81.7941-91.5 74.6941-94.7 71.9941-90.9C65.2941-81.6 53.1941-81.6 46.3941-90.9C43.1941-95.2 37.6941-92.9 34.0941-87.7C31.2941-83.7 31.2941-79.3 33.6941-75C36.3941-70.3 39.1941-65.6 42.0941-60.9C42.3941-60.4 41.6941-53.5 41.5941-53.3C32.2941-37.4 22.7941-21.6 13.9941-5.4C8.89414 3.9 5.59414 13.9 4.49414 24.4C4.19414 27.8 5.39414 29.5 8.99414 30.5C42.7941 40.1 76.4941 40 110.294 30.2C112.994 29.4 113.994 28.1 113.794 25.4Z"/>
  </g>
  <g id="Light-M" transform="matrix(1 0 0 1 1094.46 1126)">
   <path d="M43.2941-90.1L43.2941-104.8C43.2941-106.2 42.1941-107.3 40.7941-107.3C39.3941-107.3 38.2941-106.2 38.2941-104.8L38.2941-90.1C38.2941-88.7 39.3941-87.6 40.7941-87.6C42.1941-87.6 43.2941-88.8 43.2941-90.1ZM78.5941-90.1L78.5941-104.8C78.5941-106.2 77.4941-107.3 76.0941-107.3C74.6941-107.3 73.5941-106.2 73.5941-104.8L73.5941-90.1C73.5941-88.7 74.6941-87.6 76.0941-87.6C77.4941-87.6 78.5941-88.8 78.5941-90.1ZM112.594 24.7C112.094 15.4 109.394 6.5 104.994-1.7C95.6941-19 85.6941-36 75.8941-53.1C75.7941-53.3 75.1941-60.3 75.3941-60.7C78.2941-65.4 81.1941-70.1 83.8941-74.9C85.4941-77.8 86.3941-81.2 84.6941-84.3C80.8941-90.9 73.9941-94 71.1941-90.3C64.4941-81.1 52.5941-81.1 45.8941-90.3C42.7941-94.6 37.2941-92.3 33.7941-87.2C31.0941-83.2 30.9941-78.9 33.3941-74.7C36.0941-70 38.7941-65.4 41.6941-60.8C41.9941-60.3 41.2941-53.5 41.1941-53.3C31.9941-37.4 22.5941-21.7 13.8941-5.8C8.89414 3.4 5.59414 13.3 4.49414 23.7C4.19414 27.1 5.39414 28.7 8.99414 29.7C42.3941 39.2 75.6941 39.1 109.094 29.4C111.794 28.7 112.694 27.3 112.594 24.7Z"/>
  </g>
  <g id="Thin-M" transform="matrix(1 0 0 1 798.382 1126)">
   <path d="M42.5235-89.5L42.5235-104C42.5235-105.2 41.6235-106.1 40.4235-106.1C39.2235-106.1 38.3235-105.2 38.3235-104L38.3235-89.5C38.3235-88.3 39.2235-87.4 40.4235-87.4C41.6235-87.4 42.5235-88.3 42.5235-89.5ZM77.4235-89.5L77.4235-104C77.4235-105.2 76.5235-106.1 75.3235-106.1C74.1235-106.1 73.2235-105.2 73.2235-104L73.2235-89.5C73.2235-88.3 74.1235-87.4 75.3235-87.4C76.5235-87.4 77.4235-88.3 77.4235-89.5ZM111.324 24C110.824 14.8 108.224 6 103.824-2.1C94.6235-19.2 84.7235-36 75.0235-52.9C74.9235-53.1 74.3235-60 74.5235-60.4C77.4235-65 80.2235-69.7 82.9235-74.4C84.5235-77.3 85.4235-80.7 83.7235-83.7C79.9235-90.3 73.1235-93.3 70.4235-89.6C63.8235-80.5 52.0235-80.5 45.4235-89.6C42.3235-93.8 36.9235-91.6 33.4235-86.5C30.7235-82.6 30.7235-78.3 33.0235-74.1C35.6235-69.5 38.4235-64.9 41.2235-60.3C41.5235-59.8 40.8235-53.1 40.7235-52.9C31.6235-37.4 22.3235-21.9 13.7235-6.1C8.82351 3 5.52351 12.8 4.52351 23.1C4.12351 26.4 5.32351 28 8.92351 29C41.9235 38.4 74.9235 38.3 107.824 28.7C110.524 27.9 111.424 26.6 111.324 24Z"/>
  </g>
  <g id="Ultralight-M" transform="matrix(1 0 0 1 502.327 1126)">
   <path d="M41.7942-88.8L41.7942-103.1C41.7942-104.1 40.9942-104.9 39.9942-104.9C38.9942-104.9 38.1942-104.1 38.1942-103.1L38.1942-88.8C38.1942-87.8 38.9942-87 39.9942-87C40.9942-87 41.7942-87.8 41.7942-88.8ZM76.1942-88.8L76.1942-103.1C76.1942-104.1 75.3942-104.9 74.3942-104.9C73.3942-104.9 72.5942-104.1 72.5942-103.1L72.5942-88.8C72.5942-87.8 73.3942-87 74.3942-87C75.3942-87 76.1942-87.8 76.1942-88.8ZM109.994 23.3C109.494 14.2 106.894 5.5 102.594-2.5C93.4942-19.4 83.7942-36 74.1942-52.6C74.0942-52.8 73.4942-59.6 73.6942-60C76.5942-64.6 79.3942-69.2 81.9942-73.9C83.5942-76.8 84.4942-80.1 82.7942-83C79.0942-89.5 72.2942-92.5 69.6942-88.9C63.1942-79.9 51.5942-80 44.9942-88.9C41.8942-93.1 36.5942-90.9 33.1942-85.8C30.4942-81.9 30.4942-77.7 32.7942-73.6C35.3942-69 38.0942-64.5 40.8942-60C41.1942-59.5 40.4942-52.9 40.3942-52.7C31.3942-37.3 22.1942-22 13.6942-6.4C8.79423 2.6 5.59423 12.2 4.49423 22.4C4.19423 25.7 5.39423 27.3 8.89423 28.3C41.4942 37.5 74.0942 37.5 106.594 28C109.194 27.2 110.194 25.9 109.994 23.3Z"/>
  </g>
  <g id="Black-S" transform="matrix(1 0 0 1 2883.47 696)">
   <path d="M38.5009-80.5L38.5009-92.8C38.5009-94.7 36.9009-96.3 35.0009-96.3C33.1009-96.3 31.5009-94.7 31.5009-92.8L31.5009-80.5C31.5009-78.6 33.1009-77 35.0009-77C36.9009-77 38.5009-78.5 38.5009-80.5ZM68.1009-80.5L68.1009-92.8C68.1009-94.7 66.5009-96.3 64.6009-96.3C62.7009-96.3 61.1009-94.7 61.1009-92.8L61.1009-80.5C61.1009-78.6 62.7009-77 64.6009-77C66.5009-77 68.1009-78.5 68.1009-80.5ZM95.1009 15.8C94.7009 8 92.4009 0.5 88.8009-6.4C81.0009-20.9 72.6009-35.1 64.4009-49.5C64.3009-49.7 63.8009-55.5 64.0009-55.8C66.5009-59.7 68.9009-63.7 71.1009-67.7C72.5009-70.2 73.2009-73 71.8009-75.5C68.6009-81.1 62.8009-83.7 60.5009-80.5C54.9009-72.8 44.9009-72.8 39.3009-80.5C36.7009-84.1 32.1009-82.2 29.2009-77.9C26.9009-74.6 26.9009-70.9 28.9009-67.4C31.1009-63.5 33.5009-59.6 35.9009-55.7C36.2009-55.3 35.6009-49.6 35.5009-49.4C27.6009-36.3 19.7009-23.2 12.4009-9.8C8.20089-2.1 5.40089 6.2 4.50089 14.9C4.20089 17.7 5.20089 19.1 8.20089 19.9C36.2009 27.8 64.1009 27.8 92.1009 19.7C94.4009 19.1 95.2009 18 95.1009 15.8Z"/>
  </g>
  <g id="Heavy-S" transform="matrix(1 0 0 1 2587.26 696)">
   <path d="M37.9009-79.9L37.9009-92.1C37.9009-93.9 36.4009-95.3 34.7009-95.3C32.9009-95.3 31.5009-93.8 31.5009-92.1L31.5009-79.9C31.5009-78.1 33.0009-76.7 34.7009-76.7C36.5009-76.7 37.9009-78.1 37.9009-79.9ZM67.2009-79.9L67.2009-92.1C67.2009-93.9 65.7009-95.3 64.0009-95.3C62.2009-95.3 60.8009-93.8 60.8009-92.1L60.8009-79.9C60.8009-78.1 62.3009-76.7 64.0009-76.7C65.7009-76.7 67.2009-78.1 67.2009-79.9ZM94.1009 15.3C93.7009 7.6 91.5009 0.2 87.8009-6.6C80.1009-20.9 71.8009-35 63.7009-49.2C63.6009-49.4 63.1009-55.1 63.3009-55.5C65.7009-59.4 68.1009-63.3 70.3009-67.3C71.6009-69.7 72.4009-72.5 71.0009-75.1C67.8009-80.6 62.1009-83.2 59.8009-80.1C54.3009-72.5 44.4009-72.5 38.8009-80.1C36.2009-83.6 31.7009-81.8 28.8009-77.5C26.5009-74.2 26.5009-70.6 28.5009-67.1C30.7009-63.2 33.0009-59.4 35.4009-55.6C35.6009-55.2 35.1009-49.5 35.0009-49.4C27.4009-36.4 19.6009-23.4 12.3009-10.2C8.10089-2.4 5.40089 5.8 4.50089 14.5C4.20089 17.3 5.20089 18.6 8.20089 19.5C35.9009 27.3 63.5009 27.3 91.2009 19.3C93.4009 18.6 94.2009 17.5 94.1009 15.3Z"/>
  </g>
  <g id="Bold-S" transform="matrix(1 0 0 1 2291.05 696)">
   <path d="M37.3009-79.4L37.3009-91.4C37.3009-93 36.0009-94.4 34.3009-94.4C32.6009-94.4 31.3009-93.1 31.3009-91.4L31.3009-79.4C31.3009-77.8 32.6009-76.4 34.3009-76.4C36.0009-76.4 37.3009-77.7 37.3009-79.4ZM66.3009-79.4L66.3009-91.4C66.3009-93 65.0009-94.4 63.3009-94.4C61.7009-94.4 60.3009-93.1 60.3009-91.4L60.3009-79.4C60.3009-77.8 61.6009-76.4 63.3009-76.4C64.9009-76.4 66.3009-77.7 66.3009-79.4ZM93.1009 14.8C92.7009 7.2 90.5009-0.1 86.9009-6.8C79.3009-21.1 71.1009-35 63.0009-49C62.9009-49.2 62.4009-54.9 62.6009-55.2C65.0009-59 67.4009-62.9 69.5009-66.8C70.8009-69.2 71.6009-72 70.1009-74.5C67.0009-79.9 61.3009-82.5 59.1009-79.4C53.6009-71.9 43.9009-71.9 38.4009-79.4C35.8009-82.9 31.4009-81.1 28.5009-76.8C26.3009-73.6 26.2009-70 28.2009-66.5C30.4009-62.7 32.7009-58.8 35.0009-55.1C35.2009-54.7 34.7009-49.1 34.6009-48.9C27.1009-36.1 19.4009-23.3 12.2009-10.2C8.10089-2.7 5.40089 5.4 4.50089 14C4.20089 16.8 5.20089 18.1 8.20089 18.9C35.6009 26.7 62.9009 26.6 90.2009 18.7C92.5009 18 93.2009 16.9 93.1009 14.8Z"/>
  </g>
  <g id="Semibold-S" transform="matrix(1 0 0 1 1994.83 696)">
   <path d="M36.701-78.8L36.701-90.7C36.701-92.2 35.501-93.4 34.001-93.4C32.501-93.4 31.301-92.2 31.301-90.7L31.301-78.8C31.301-77.3 32.501-76.1 34.001-76.1C35.501-76.1 36.701-77.3 36.701-78.8ZM65.301-78.8L65.301-90.7C65.301-92.2 64.101-93.4 62.601-93.4C61.101-93.4 59.901-92.2 59.901-90.7L59.901-78.8C59.901-77.3 61.101-76.1 62.601-76.1C64.101-76.1 65.301-77.3 65.301-78.8ZM92.101 14.3C91.701 6.7 89.501-0.5 86.001-7.1C78.401-21.1 70.401-34.9 62.401-48.7C62.301-48.9 61.801-54.5 62.001-54.8C64.401-58.6 66.701-62.4 68.901-66.3C70.201-68.7 70.901-71.4 69.501-73.9C66.401-79.3 60.801-81.8 58.601-78.8C53.201-71.4 43.501-71.4 38.101-78.8C35.501-82.3 31.201-80.4 28.301-76.3C26.101-73.1 26.001-69.6 28.001-66.1C30.201-62.3 32.401-58.5 34.801-54.8C35.001-54.4 34.501-48.9 34.401-48.7C26.901-36 19.301-23.3 12.201-10.3C8.10104-3 5.40104 5 4.50104 13.5C4.20104 16.3 5.20104 17.6 8.10104 18.4C35.201 26 62.301 26 89.301 18.1C91.501 17.5 92.301 16.4 92.101 14.3Z"/>
  </g>
  <g id="Medium-S" transform="matrix(1 0 0 1 1698.63 696)">
   <path d="M36.101-78.3L36.101-90C36.101-91.3 35.001-92.4 33.701-92.4C32.401-92.4 31.301-91.3 31.301-90L31.301-78.2C31.301-76.9 32.401-75.8 33.701-75.8C35.001-75.8 36.101-76.9 36.101-78.3ZM64.401-78.3L64.401-90C64.401-91.3 63.301-92.4 62.001-92.4C60.701-92.4 59.601-91.3 59.601-90L59.601-78.2C59.601-76.9 60.701-75.8 62.001-75.8C63.301-75.8 64.401-76.9 64.401-78.3ZM91.101 13.8C90.701 6.3 88.601-0.8 85.001-7.4C77.501-21.3 69.501-34.9 61.701-48.6C61.601-48.8 61.101-54.3 61.301-54.7C63.701-58.4 66.001-62.2 68.101-66.1C69.401-68.5 70.101-71.2 68.701-73.6C65.701-78.9 60.101-81.4 57.901-78.4C52.601-71 43.001-71.1 37.601-78.4C35.101-81.8 30.701-80 27.901-75.9C25.701-72.7 25.701-69.2 27.601-65.9C29.701-62.1 32.001-58.4 34.301-54.7C34.501-54.3 34.001-48.8 33.901-48.7C26.601-36 19.001-23.5 12.001-10.7C8.00104-3.3 5.40104 4.6 4.50104 13C4.20104 15.7 5.20104 17 8.10104 17.8C34.901 25.4 61.601 25.3 88.301 17.6C90.501 17 91.201 15.9 91.101 13.8Z"/>
  </g>
  <g id="Regular-S" transform="matrix(1 0 0 1 1402.41 696)">
   <path d="M35.5012-77.7L35.5012-89.3C35.5012-90.5 34.5012-91.5 33.3012-91.5C32.1012-91.5 31.1012-90.5 31.1012-89.3L31.1012-77.7C31.1012-76.5 32.1012-75.5 33.3012-75.5C34.5012-75.5 35.5012-76.5 35.5012-77.7ZM63.4012-77.7L63.4012-89.3C63.4012-90.5 62.4012-91.5 61.2012-91.5C60.0012-91.5 59.0012-90.5 59.0012-89.3L59.0012-77.7C59.0012-76.5 60.0012-75.5 61.2012-75.5C62.5012-75.5 63.4012-76.5 63.4012-77.7ZM90.1012 13.3C89.7012 5.9 87.6012-1.1 84.1012-7.6C76.7012-21.3 68.8012-34.8 61.0012-48.3C60.9012-48.5 60.4012-54 60.6012-54.3C62.9012-58 65.2012-61.7 67.3012-65.5C68.6012-67.8 69.3012-70.5 67.9012-72.9C64.9012-78.2 59.4012-80.6 57.2012-77.7C51.9012-70.4 42.5012-70.4 37.2012-77.7C34.7012-81.1 30.4012-79.3 27.6012-75.2C25.4012-72.1 25.4012-68.6 27.3012-65.3C29.4012-61.6 31.6012-57.9 33.9012-54.3C34.1012-53.9 33.6012-48.5 33.5012-48.4C26.3012-35.9 18.8012-23.5 11.9012-10.9C7.90118-3.6 5.30118 4.2 4.50118 12.5C4.20118 15.2 5.20118 16.5 8.00118 17.3C34.5012 24.7 60.9012 24.7 87.3012 17C89.4012 16.4 90.2012 15.3 90.1012 13.3Z"/>
  </g>
  <g id="Light-S" transform="matrix(1 0 0 1 1106.2 696)">
   <path d="M34.8012-77.1L34.8012-88.6C34.8012-89.7 33.9012-90.5 32.9012-90.5C31.8012-90.5 31.0012-89.6 31.0012-88.6L31.0012-77.1C31.0012-76 31.9012-75.2 32.9012-75.2C34.0012-75.2 34.8012-76.1 34.8012-77.1ZM62.5012-77.1L62.5012-88.6C62.5012-89.7 61.6012-90.5 60.6012-90.5C59.6012-90.5 58.7012-89.6 58.7012-88.6L58.7012-77.1C58.7012-76 59.6012-75.2 60.6012-75.2C61.6012-75.2 62.5012-76.1 62.5012-77.1ZM89.1012 12.8C88.7012 5.5 86.6012-1.5 83.2012-7.9C75.8012-21.5 68.0012-34.8 60.3012-48.1C60.2012-48.3 59.7012-53.7 59.9012-54C62.2012-57.7 64.4012-61.3 66.5012-65.1C67.8012-67.4 68.5012-70.1 67.1012-72.4C64.1012-77.6 58.7012-80 56.6012-77.1C51.4012-69.9 42.1012-69.9 36.8012-77.1C34.3012-80.4 30.1012-78.7 27.3012-74.6C25.2012-71.5 25.1012-68.1 27.0012-64.8C29.1012-61.1 31.3012-57.5 33.5012-53.9C33.7012-53.5 33.2012-48.2 33.1012-48C26.0012-35.9 18.6012-23.6 11.8012-11.1C7.90118-3.9 5.30118 3.8 4.50118 12C4.20118 14.7 5.20118 15.9 8.00118 16.7C34.2012 24.1 60.3012 24 86.4012 16.5C88.4012 15.9 89.2012 14.8 89.1012 12.8Z"/>
  </g>
  <g id="Thin-S" transform="matrix(1 0 0 1 809.992 696)">
   <path d="M34.2013-76.6L34.2013-88C34.2013-88.9 33.5013-89.6 32.6013-89.6C31.7013-89.6 31.0013-88.9 31.0013-88L31.0013-76.6C31.0013-75.7 31.7013-75 32.6013-75C33.5013-74.9 34.2013-75.7 34.2013-76.6ZM61.6013-76.6L61.6013-88C61.6013-88.9 60.9013-89.6 60.0013-89.6C59.1013-89.6 58.4013-88.9 58.4013-88L58.4013-76.6C58.4013-75.7 59.1013-75 60.0013-75C60.9013-75 61.6013-75.7 61.6013-76.6ZM88.1013 12.3C87.7013 5 85.6013-1.8 82.2013-8.2C75.0013-21.6 67.3013-34.7 59.7013-48C59.6013-48.2 59.1013-53.5 59.3013-53.8C61.6013-57.4 63.8013-61.1 65.8013-64.8C67.1013-67.1 67.8013-69.7 66.4013-72C63.5013-77.1 58.1013-79.5 56.0013-76.6C50.8013-69.5 41.6013-69.5 36.4013-76.6C34.0013-79.9 29.8013-78.2 27.0013-74.2C24.9013-71.1 24.8013-67.8 26.7013-64.5C28.8013-60.9 30.9013-57.3 33.1013-53.7C33.3013-53.3 32.8013-48 32.7013-47.9C25.7013-35.8 18.5013-23.7 11.7013-11.3C7.80132-4.2 5.30132 3.4 4.50132 11.5C4.20132 14.1 5.20132 15.4 7.90132 16.2C33.8013 23.5 59.5013 23.5 85.3013 16C87.5013 15.3 88.2013 14.3 88.1013 12.3Z"/>
  </g>
  <g id="Ultralight-S" transform="matrix(1 0 0 1 513.781 696)">
   <path d="M33.7013-76L33.7013-87.2C33.7013-88 33.1013-88.6 32.3013-88.6C31.5013-88.6 30.9013-88 30.9013-87.2L30.9013-76C30.9013-75.2 31.5013-74.6 32.3013-74.6C33.1013-74.6 33.7013-75.3 33.7013-76ZM60.7013-76L60.7013-87.2C60.7013-88 60.1013-88.6 59.3013-88.6C58.5013-88.6 57.9013-88 57.9013-87.2L57.9013-76C57.9013-75.2 58.5013-74.6 59.3013-74.6C60.1013-74.6 60.7013-75.3 60.7013-76ZM87.1013 11.8C86.7013 4.7 84.7013-2.1 81.3013-8.4C74.2013-21.7 66.6013-34.7 59.1013-47.7C59.0013-47.9 58.5013-53.2 58.7013-53.5C61.0013-57.1 63.1013-60.7 65.2013-64.4C66.4013-66.7 67.1013-69.2 65.8013-71.6C62.9013-76.7 57.6013-79.1 55.5013-76.2C50.4013-69.2 41.3013-69.2 36.1013-76.2C33.7013-79.5 29.6013-77.7 26.8013-73.8C24.7013-70.8 24.7013-67.4 26.5013-64.2C28.5013-60.6 30.7013-57.1 32.9013-53.6C33.1013-53.2 32.6013-48 32.5013-47.9C25.4013-35.9 18.3013-23.9 11.6013-11.7C7.80132-4.5 5.30132 3 4.50132 11C4.20132 13.6 5.20132 14.8 7.90132 15.6C33.5013 22.8 58.9013 22.8 84.4013 15.4C86.5013 14.8 87.2013 13.8 87.1013 11.8Z"/>
  </g>
 </g>
</svg>
