<?xml version="1.0" encoding="UTF-8"?>
<!--Generator: Apple Native CoreSVG 175.5-->
<!DOCTYPE svg
PUBLIC "-//W3C//DTD SVG 1.1//EN"
       "http://www.w3.org/Graphics/SVG/1.1/DTD/svg11.dtd">
<svg version="1.1" xmlns="http://www.w3.org/2000/svg" xmlns:xlink="http://www.w3.org/1999/xlink" width="3300" height="2200">
 <!--glyph: "", point size: 100.0, font version: "18.0d9e1", template writer version: "84"-->
 <g id="Notes">
  <rect height="2200" id="artboard" style="fill:white;opacity:1" width="3300" x="0" y="0"/>
  <line style="fill:none;stroke:black;opacity:1;stroke-width:0.5;" x1="263" x2="3036" y1="292" y2="292"/>
  <text style="stroke:none;fill:black;font-family:sans-serif;font-size:13;font-weight:bold;" transform="matrix(1 0 0 1 263 322)">Weight/Scale Variations</text>
  <text style="stroke:none;fill:black;font-family:sans-serif;font-size:13;text-anchor:middle;" transform="matrix(1 0 0 1 559.711 322)">Ultralight</text>
  <text style="stroke:none;fill:black;font-family:sans-serif;font-size:13;text-anchor:middle;" transform="matrix(1 0 0 1 856.422 322)">Thin</text>
  <text style="stroke:none;fill:black;font-family:sans-serif;font-size:13;text-anchor:middle;" transform="matrix(1 0 0 1 1153.13 322)">Light</text>
  <text style="stroke:none;fill:black;font-family:sans-serif;font-size:13;text-anchor:middle;" transform="matrix(1 0 0 1 1449.84 322)">Regular</text>
  <text style="stroke:none;fill:black;font-family:sans-serif;font-size:13;text-anchor:middle;" transform="matrix(1 0 0 1 1746.56 322)">Medium</text>
  <text style="stroke:none;fill:black;font-family:sans-serif;font-size:13;text-anchor:middle;" transform="matrix(1 0 0 1 2043.27 322)">Semibold</text>
  <text style="stroke:none;fill:black;font-family:sans-serif;font-size:13;text-anchor:middle;" transform="matrix(1 0 0 1 2339.98 322)">Bold</text>
  <text style="stroke:none;fill:black;font-family:sans-serif;font-size:13;text-anchor:middle;" transform="matrix(1 0 0 1 2636.69 322)">Heavy</text>
  <text style="stroke:none;fill:black;font-family:sans-serif;font-size:13;text-anchor:middle;" transform="matrix(1 0 0 1 2933.4 322)">Black</text>
  <line style="fill:none;stroke:black;opacity:1;stroke-width:0.5;" x1="263" x2="3036" y1="1903" y2="1903"/>
  <g transform="matrix(1 0 0 1 263 1933)">
   <path d="M9.24805 0.830078Q10.8691 0.830078 12.2949 0.214844Q13.7207-0.400391 14.8096-1.49414Q15.8984-2.58789 16.5186-4.01367Q17.1387-5.43945 17.1387-7.05078Q17.1387-8.66211 16.5186-10.0879Q15.8984-11.5137 14.8047-12.6074Q13.7109-13.7012 12.2852-14.3164Q10.8594-14.9316 9.23828-14.9316Q7.62695-14.9316 6.20117-14.3164Q4.77539-13.7012 3.69141-12.6074Q2.60742-11.5137 1.9873-10.0879Q1.36719-8.66211 1.36719-7.05078Q1.36719-5.43945 1.9873-4.01367Q2.60742-2.58789 3.69629-1.49414Q4.78516-0.400391 6.21094 0.214844Q7.63672 0.830078 9.24805 0.830078ZM9.24805-0.654297Q7.91992-0.654297 6.7627-1.14746Q5.60547-1.64062 4.73145-2.51953Q3.85742-3.39844 3.36426-4.56055Q2.87109-5.72266 2.87109-7.05078Q2.87109-8.37891 3.35938-9.54102Q3.84766-10.7031 4.72168-11.582Q5.5957-12.4609 6.75293-12.9541Q7.91016-13.4473 9.23828-13.4473Q10.5762-13.4473 11.7383-12.9541Q12.9004-12.4609 13.7793-11.582Q14.6582-10.7031 15.1514-9.54102Q15.6445-8.37891 15.6445-7.05078Q15.6445-5.72266 15.1514-4.56055Q14.6582-3.39844 13.7793-2.51953Q12.9004-1.64062 11.7432-1.14746Q10.5859-0.654297 9.24805-0.654297ZM5.6543-7.05078Q5.6543-6.72852 5.85938-6.52832Q6.06445-6.32812 6.40625-6.32812L8.51562-6.32812L8.51562-4.20898Q8.51562-3.88672 8.71094-3.67676Q8.90625-3.4668 9.23828-3.4668Q9.56055-3.4668 9.77051-3.67676Q9.98047-3.88672 9.98047-4.20898L9.98047-6.32812L12.0898-6.32812Q12.4219-6.32812 12.627-6.52832Q12.832-6.72852 12.832-7.05078Q12.832-7.38281 12.627-7.58789Q12.4219-7.79297 12.0898-7.79297L9.98047-7.79297L9.98047-9.90234Q9.98047-10.2344 9.77051-10.4443Q9.56055-10.6543 9.23828-10.6543Q8.90625-10.6543 8.71094-10.4443Q8.51562-10.2344 8.51562-9.90234L8.51562-7.79297L6.40625-7.79297Q6.06445-7.79297 5.85938-7.58789Q5.6543-7.38281 5.6543-7.05078Z"/>
  </g>
  <g transform="matrix(1 0 0 1 281.867 1933)">
   <path d="M11.709 2.91016Q13.75 2.91016 15.5518 2.12891Q17.3535 1.34766 18.7305-0.0292969Q20.1074-1.40625 20.8887-3.20801Q21.6699-5.00977 21.6699-7.05078Q21.6699-9.0918 20.8887-10.8936Q20.1074-12.6953 18.7305-14.0723Q17.3535-15.4492 15.5469-16.2305Q13.7402-17.0117 11.6992-17.0117Q9.6582-17.0117 7.85645-16.2305Q6.05469-15.4492 4.68262-14.0723Q3.31055-12.6953 2.5293-10.8936Q1.74805-9.0918 1.74805-7.05078Q1.74805-5.00977 2.5293-3.20801Q3.31055-1.40625 4.6875-0.0292969Q6.06445 1.34766 7.86621 2.12891Q9.66797 2.91016 11.709 2.91016ZM11.709 1.25Q9.98047 1.25 8.47656 0.605469Q6.97266-0.0390625 5.83496-1.17676Q4.69727-2.31445 4.05762-3.81836Q3.41797-5.32227 3.41797-7.05078Q3.41797-8.7793 4.05762-10.2832Q4.69727-11.7871 5.83008-12.9297Q6.96289-14.0723 8.4668-14.7119Q9.9707-15.3516 11.6992-15.3516Q13.4277-15.3516 14.9365-14.7119Q16.4453-14.0723 17.583-12.9297Q18.7207-11.7871 19.3652-10.2832Q20.0098-8.7793 20.0098-7.05078Q20.0098-5.32227 19.3701-3.81836Q18.7305-2.31445 17.5879-1.17676Q16.4453-0.0390625 14.9414 0.605469Q13.4375 1.25 11.709 1.25ZM7.17773-7.05078Q7.17773-6.69922 7.41211-6.47461Q7.64648-6.25 8.01758-6.25L10.8887-6.25L10.8887-3.36914Q10.8887-2.99805 11.1133-2.76855Q11.3379-2.53906 11.6895-2.53906Q12.0605-2.53906 12.29-2.76855Q12.5195-2.99805 12.5195-3.36914L12.5195-6.25L15.4004-6.25Q15.7715-6.25 16.001-6.47461Q16.2305-6.69922 16.2305-7.05078Q16.2305-7.42188 16.001-7.65137Q15.7715-7.88086 15.4004-7.88086L12.5195-7.88086L12.5195-10.752Q12.5195-11.1328 12.29-11.3623Q12.0605-11.5918 11.6895-11.5918Q11.3379-11.5918 11.1133-11.3574Q10.8887-11.123 10.8887-10.752L10.8887-7.88086L8.01758-7.88086Q7.63672-7.88086 7.40723-7.65137Q7.17773-7.42188 7.17773-7.05078Z"/>
  </g>
  <g transform="matrix(1 0 0 1 305.646 1933)">
   <path d="M14.9707 5.66406Q17.0605 5.66406 18.96 5.01465Q20.8594 4.36523 22.4512 3.19336Q24.043 2.02148 25.2197 0.429688Q26.3965-1.16211 27.0459-3.06641Q27.6953-4.9707 27.6953-7.05078Q27.6953-9.14062 27.0459-11.04Q26.3965-12.9395 25.2197-14.5312Q24.043-16.123 22.4512-17.2998Q20.8594-18.4766 18.9551-19.126Q17.0508-19.7754 14.9609-19.7754Q12.8711-19.7754 10.9717-19.126Q9.07227-18.4766 7.48535-17.2998Q5.89844-16.123 4.72168-14.5312Q3.54492-12.9395 2.90039-11.04Q2.25586-9.14062 2.25586-7.05078Q2.25586-4.9707 2.90527-3.06641Q3.55469-1.16211 4.72656 0.429688Q5.89844 2.02148 7.49023 3.19336Q9.08203 4.36523 10.9814 5.01465Q12.8809 5.66406 14.9707 5.66406ZM14.9707 3.84766Q13.1641 3.84766 11.5283 3.2959Q9.89258 2.74414 8.53516 1.74805Q7.17773 0.751953 6.17676-0.610352Q5.17578-1.97266 4.62891-3.6084Q4.08203-5.24414 4.08203-7.05078Q4.08203-8.86719 4.62891-10.5029Q5.17578-12.1387 6.17188-13.501Q7.16797-14.8633 8.52539-15.8594Q9.88281-16.8555 11.5186-17.4023Q13.1543-17.9492 14.9609-17.9492Q16.7773-17.9492 18.4131-17.4023Q20.0488-16.8555 21.4111-15.8594Q22.7734-14.8633 23.7744-13.501Q24.7754-12.1387 25.3223-10.5029Q25.8691-8.86719 25.8691-7.05078Q25.8691-5.24414 25.3223-3.6084Q24.7754-1.97266 23.7793-0.610352Q22.7832 0.751953 21.4209 1.74805Q20.0586 2.74414 18.4229 3.2959Q16.7871 3.84766 14.9707 3.84766ZM9.19922-7.05078Q9.19922-6.66992 9.45801-6.4209Q9.7168-6.17188 10.1172-6.17188L14.0625-6.17188L14.0625-2.2168Q14.0625-1.81641 14.3115-1.55762Q14.5605-1.29883 14.9512-1.29883Q15.3516-1.29883 15.6104-1.55273Q15.8691-1.80664 15.8691-2.2168L15.8691-6.17188L19.8242-6.17188Q20.2246-6.17188 20.4785-6.4209Q20.7324-6.66992 20.7324-7.05078Q20.7324-7.46094 20.4785-7.71484Q20.2246-7.96875 19.8242-7.96875L15.8691-7.96875L15.8691-11.9141Q15.8691-12.3242 15.6104-12.583Q15.3516-12.8418 14.9512-12.8418Q14.5605-12.8418 14.3115-12.583Q14.0625-12.3242 14.0625-11.9141L14.0625-7.96875L10.1172-7.96875Q9.70703-7.96875 9.45312-7.71484Q9.19922-7.46094 9.19922-7.05078Z"/>
  </g>
  <text style="stroke:none;fill:black;font-family:sans-serif;font-size:13;font-weight:bold;" transform="matrix(1 0 0 1 263 1953)">Design Variations</text>
  <text style="stroke:none;fill:black;font-family:sans-serif;font-size:13;" transform="matrix(1 0 0 1 263 1971)">Symbols are supported in up to nine weights and three scales.</text>
  <text style="stroke:none;fill:black;font-family:sans-serif;font-size:13;" transform="matrix(1 0 0 1 263 1989)">For optimal layout with text and other symbols, vertically align</text>
  <text style="stroke:none;fill:black;font-family:sans-serif;font-size:13;" transform="matrix(1 0 0 1 263 2007)">symbols with the adjacent text.</text>
  <line style="fill:none;stroke:#00AEEF;stroke-width:0.5;opacity:1.0;" x1="776" x2="776" y1="1919" y2="1933"/>
  <g transform="matrix(1 0 0 1 776 1933)">
   <path d="M3.31055 0.15625Q3.70117 0.15625 3.91602-0.00976562Q4.13086-0.175781 4.26758-0.585938L5.52734-4.0332L11.2891-4.0332L12.5488-0.585938Q12.6855-0.175781 12.9004-0.00976562Q13.1152 0.15625 13.4961 0.15625Q13.8867 0.15625 14.1162-0.0585938Q14.3457-0.273438 14.3457-0.644531Q14.3457-0.869141 14.2383-1.17188L9.6582-13.3691Q9.48242-13.8184 9.17969-14.043Q8.87695-14.2676 8.4082-14.2676Q7.5-14.2676 7.17773-13.3789L2.59766-1.16211Q2.49023-0.859375 2.49023-0.634766Q2.49023-0.263672 2.70996-0.0537109Q2.92969 0.15625 3.31055 0.15625ZM6.00586-5.51758L8.37891-12.0898L8.42773-12.0898L10.8008-5.51758Z"/>
  </g>
  <line style="fill:none;stroke:#00AEEF;stroke-width:0.5;opacity:1.0;" x1="793.197" x2="793.197" y1="1919" y2="1933"/>
  <text style="stroke:none;fill:black;font-family:sans-serif;font-size:13;font-weight:bold;" transform="matrix(1 0 0 1 776 1953)">Margins</text>
  <text style="stroke:none;fill:black;font-family:sans-serif;font-size:13;" transform="matrix(1 0 0 1 776 1971)">Leading and trailing margins on the left and right side of each symbol</text>
  <text style="stroke:none;fill:black;font-family:sans-serif;font-size:13;" transform="matrix(1 0 0 1 776 1989)">can be adjusted by modifying the x-location of the margin guidelines.</text>
  <text style="stroke:none;fill:black;font-family:sans-serif;font-size:13;" transform="matrix(1 0 0 1 776 2007)">Modifications are automatically applied proportionally to all</text>
  <text style="stroke:none;fill:black;font-family:sans-serif;font-size:13;" transform="matrix(1 0 0 1 776 2025)">scales and weights.</text>
  <g transform="matrix(1 0 0 1 1289 1933)">
   <path d="M2.8418 1.86523L4.54102 3.57422Q5.18555 4.22852 5.90332 4.17969Q6.62109 4.13086 7.31445 3.35938L18.0078-8.42773L17.041-9.4043L6.42578 2.27539Q6.16211 2.57812 5.89355 2.61719Q5.625 2.65625 5.27344 2.30469L4.10156 1.14258Q3.75 0.791016 3.79395 0.522461Q3.83789 0.253906 4.14062-0.0195312L15.6152-10.8203L14.6387-11.7871L3.04688-0.898438Q2.30469-0.214844 2.25098 0.498047Q2.19727 1.21094 2.8418 1.86523ZM9.25781-16.3281Q8.94531-16.0254 8.90625-15.6348Q8.86719-15.2441 9.04297-14.9512Q9.21875-14.6777 9.55566-14.541Q9.89258-14.4043 10.3809-14.5215Q11.4746-14.7754 12.5977-14.7314Q13.7207-14.6875 14.7949-13.9844L14.209-12.5293Q13.9551-11.9043 14.0674-11.4404Q14.1797-10.9766 14.5801-10.5664L16.875-8.25195Q17.2363-7.88086 17.5781-7.82227Q17.9199-7.76367 18.3398-7.8418L19.4043-8.03711L20.0684-7.36328L20.0293-6.80664Q20-6.43555 20.1221-6.12305Q20.2441-5.81055 20.6055-5.44922L21.3672-4.70703Q21.7285-4.3457 22.1533-4.33105Q22.5781-4.31641 22.9297-4.66797L25.8398-7.58789Q26.1914-7.93945 26.1816-8.35449Q26.1719-8.76953 25.8105-9.13086L25.0391-9.89258Q24.6875-10.2539 24.3799-10.3857Q24.0723-10.5176 23.7109-10.4883L23.1348-10.4395L22.4902-11.0742L22.7344-12.1973Q22.832-12.6172 22.6953-12.9834Q22.5586-13.3496 22.1191-13.7891L19.9219-15.9766Q18.6719-17.2168 17.2607-17.8369Q15.8496-18.457 14.4189-18.4814Q12.9883-18.5059 11.665-17.959Q10.3418-17.4121 9.25781-16.3281ZM10.752-15.957Q11.6602-16.6211 12.7002-16.9043Q13.7402-17.1875 14.8047-17.085Q15.8691-16.9824 16.8701-16.5137Q17.8711-16.0449 18.7012-15.2051L21.1328-12.793Q21.3086-12.6172 21.3525-12.4512Q21.3965-12.2852 21.3379-12.0312L21.0156-10.5469L22.5195-9.0625L23.5059-9.12109Q23.6914-9.13086 23.7891-9.09668Q23.8867-9.0625 24.0332-8.91602L24.6094-8.33984L22.168-5.89844L21.5918-6.47461Q21.4453-6.62109 21.4062-6.71875Q21.3672-6.81641 21.377-7.01172L21.4453-7.98828L19.9512-9.47266L18.4277-9.21875Q18.1836-9.16992 18.042-9.2041Q17.9004-9.23828 17.7148-9.41406L15.7129-11.416Q15.5176-11.5918 15.4932-11.7529Q15.4688-11.9141 15.5859-12.1875L16.4648-14.2773Q15.293-15.3711 13.8281-15.791Q12.3633-16.2109 10.8398-15.7617Q10.7227-15.7324 10.6885-15.8057Q10.6543-15.8789 10.752-15.957Z"/>
  </g>
  <text style="stroke:none;fill:black;font-family:sans-serif;font-size:13;font-weight:bold;" transform="matrix(1 0 0 1 1289 1953)">Exporting</text>
  <text style="stroke:none;fill:black;font-family:sans-serif;font-size:13;" transform="matrix(1 0 0 1 1289 1971)">Symbols should be outlined when exporting to ensure the</text>
  <text style="stroke:none;fill:black;font-family:sans-serif;font-size:13;" transform="matrix(1 0 0 1 1289 1989)">design is preserved when submitting to Xcode.</text>
  <text id="template-version" style="stroke:none;fill:black;font-family:sans-serif;font-size:13;text-anchor:end;" transform="matrix(1 0 0 1 3036 1933)">Template v.2.0</text>
  <text style="stroke:none;fill:black;font-family:sans-serif;font-size:13;text-anchor:end;" transform="matrix(1 0 0 1 3036 1951)">Requires Xcode 12 or greater</text>
  <text id="descriptive-name" style="stroke:none;fill:black;font-family:sans-serif;font-size:13;text-anchor:end;" transform="matrix(1 0 0 1 3036 1969)">Generated from custom.apple</text>
  <text style="stroke:none;fill:black;font-family:sans-serif;font-size:13;text-anchor:end;" transform="matrix(1 0 0 1 3036 1987)">Typeset at 100 points</text>
  <text style="stroke:none;fill:black;font-family:sans-serif;font-size:13;" transform="matrix(1 0 0 1 263 726)">Small</text>
  <text style="stroke:none;fill:black;font-family:sans-serif;font-size:13;" transform="matrix(1 0 0 1 263 1156)">Medium</text>
  <text style="stroke:none;fill:black;font-family:sans-serif;font-size:13;" transform="matrix(1 0 0 1 263 1586)">Large</text>
 </g>
 <g id="Guides">
  <g id="H-reference" style="fill:#27AAE1;stroke:none;" transform="matrix(1 0 0 1 339 696)">
   <path d="M0.993347 0L3.6377 0L29.3282-67.1326L30.0301-67.1326L30.0301-70.459L28.1227-70.459ZM11.6882-24.4797L46.9818-24.4797L46.2311-26.7288L12.4382-26.7288ZM55.1193 0L57.7637 0L30.6381-70.459L29.4327-70.459L29.4327-67.1326Z"/>
  </g>
  <line id="Baseline-S" style="fill:none;stroke:#27AAE1;opacity:1;stroke-width:0.5;" x1="263" x2="3036" y1="696" y2="696"/>
  <line id="Capline-S" style="fill:none;stroke:#27AAE1;opacity:1;stroke-width:0.5;" x1="263" x2="3036" y1="625.541" y2="625.541"/>
  <g id="H-reference" style="fill:#27AAE1;stroke:none;" transform="matrix(1 0 0 1 339 1126)">
   <path d="M0.993347 0L3.6377 0L29.3282-67.1326L30.0301-67.1326L30.0301-70.459L28.1227-70.459ZM11.6882-24.4797L46.9818-24.4797L46.2311-26.7288L12.4382-26.7288ZM55.1193 0L57.7637 0L30.6381-70.459L29.4327-70.459L29.4327-67.1326Z"/>
  </g>
  <line id="Baseline-M" style="fill:none;stroke:#27AAE1;opacity:1;stroke-width:0.5;" x1="263" x2="3036" y1="1126" y2="1126"/>
  <line id="Capline-M" style="fill:none;stroke:#27AAE1;opacity:1;stroke-width:0.5;" x1="263" x2="3036" y1="1055.54" y2="1055.54"/>
  <g id="H-reference" style="fill:#27AAE1;stroke:none;" transform="matrix(1 0 0 1 339 1556)">
   <path d="M0.993347 0L3.6377 0L29.3282-67.1326L30.0301-67.1326L30.0301-70.459L28.1227-70.459ZM11.6882-24.4797L46.9818-24.4797L46.2311-26.7288L12.4382-26.7288ZM55.1193 0L57.7637 0L30.6381-70.459L29.4327-70.459L29.4327-67.1326Z"/>
  </g>
  <line id="Baseline-L" style="fill:none;stroke:#27AAE1;opacity:1;stroke-width:0.5;" x1="263" x2="3036" y1="1556" y2="1556"/>
  <line id="Capline-L" style="fill:none;stroke:#27AAE1;opacity:1;stroke-width:0.5;" x1="263" x2="3036" y1="1485.54" y2="1485.54"/>
  <line id="left-margin" style="fill:none;stroke:#00AEEF;stroke-width:0.5;opacity:1.0;" x1="1390.78" x2="1390.78" y1="1030.73" y2="1150.14"/>
  <line id="right-margin" style="fill:none;stroke:#00AEEF;stroke-width:0.5;opacity:1.0;" x1="1508.91" x2="1508.91" y1="1030.73" y2="1150.14"/>
 </g>
 <g id="Symbols">
  <g id="Black-L" transform="matrix(1 0 0 1 2855.07 1556)">
   <path d="M152.613-35.3607L152.613-34.8607C150.413-8.36072 139.313 17.4393 119.513 41.8393C115.213 47.5393 109.013 50.6393 102.613 50.6393C100.013 50.6393 97.4133 50.1393 94.9133 49.1393C92.6133 48.4393 90.6133 47.8393 88.9133 47.2393C84.9133 45.9393 81.7133 44.9393 77.7133 44.8393C73.4133 44.8393 70.4133 45.9393 65.8133 47.5393C64.3133 48.0393 62.8133 48.6393 61.1133 49.2393C52.5133 52.0393 40.7133 50.0393 35.4133 41.0393C15.3133 14.8393 5.31332-9.16072 3.61332-34.2607C1.91332-59.3607 13.8133-71.7607 24.0133-77.6607C40.6133-87.0607 58.3133-86.1607 75.1133-74.7607C77.6133-73.0607 77.9133-72.9607 81.0133-74.7607C87.9133-78.6607 97.1133-83.2607 106.713-84.1607C118.613-85.3607 129.213-82.5607 137.313-75.8607C145.713-68.9607 150.813-58.5607 152.013-45.7607C152.213-44.0607 152.213-42.4607 152.313-40.5607C152.413-39.1607 152.413-37.6607 152.513-35.9607L152.613-35.3607ZM77.8133-61.1607C77.2133-61.1607 76.5133-61.2607 75.9133-61.4607C72.1133-62.5607 69.9133-66.4607 71.0133-70.1607C71.1133-70.4607 75.5133-87.2607 67.6133-100.961C65.6133-104.361 66.8133-108.661 70.2133-110.661C73.6133-112.661 77.9133-111.461 79.9133-108.061C91.0133-89.0607 85.0133-67.2607 84.7133-66.3607C83.7133-63.1607 80.9133-61.1607 77.8133-61.1607ZM95.0133-88.9607C91.9133-88.9607 89.8133-89.2607 89.6133-89.2607C87.5133-89.5607 85.6133-90.8607 84.5133-92.6607C83.4133-94.4607 83.2133-96.7607 84.0133-98.7607C84.2133-99.2607 89.3133-112.261 101.113-119.261C112.913-126.261 126.913-124.261 127.513-124.161C129.613-123.861 131.513-122.561 132.613-120.761C133.713-118.861 133.913-116.661 133.113-114.661C132.913-114.161 127.813-101.161 116.013-94.1607C108.513-89.8607 100.313-88.9607 95.0133-88.9607Z"/>
  </g>
  <g id="Heavy-L" transform="matrix(1 0 0 1 2559.01 1556)">
   <path d="M151.116-35.5555L151.116-35.0555C149.016-8.65546 137.916 17.0445 118.216 41.2445C114.016 46.7445 108.016 49.8445 101.816 49.8445C99.3158 49.8445 96.7158 49.3445 94.3158 48.3445C92.1158 47.7445 90.1158 47.1445 88.4158 46.5445C84.3158 45.2445 81.1158 44.2445 77.0158 44.1445C72.5158 44.1445 69.5158 45.2445 64.9158 46.9445C63.4158 47.4445 61.9158 48.0445 60.2158 48.6445C51.7158 51.4445 40.2158 49.1445 35.2158 40.6445C15.3158 14.4445 5.2158-9.35546 3.6158-34.3555C1.9158-59.1555 13.6158-71.3555 23.7158-77.1555C40.0158-86.5555 57.5158-85.5555 74.1158-74.3555C76.8158-72.5555 77.4158-72.4555 80.7158-74.3555C87.6158-78.2555 96.6158-82.7555 106.116-83.6555C117.816-84.8555 128.316-82.0555 136.316-75.4555C144.616-68.6555 149.616-58.3555 150.716-45.8555L150.816-44.7555C150.916-42.3555 151.016-39.6555 151.316-35.9555L151.116-35.5555ZM76.9158-61.9555C76.3158-61.9555 75.7158-62.0555 75.1158-62.1555C71.7158-63.1555 69.7158-66.6555 70.6158-70.0555C70.7158-70.2555 75.2158-87.3555 67.1158-101.355C65.3158-104.455 66.4158-108.355 69.4158-110.155C72.5158-111.955 76.4158-110.855 78.2158-107.855C89.1158-89.0555 83.2158-67.5555 83.0158-66.6555C82.3158-63.7555 79.7158-61.9555 76.9158-61.9555ZM92.7158-88.4555C89.6158-88.4555 87.6158-88.7555 87.3158-88.7555C85.4158-89.0555 83.7158-90.1555 82.7158-91.8555C81.7158-93.5555 81.6158-95.5555 82.3158-97.4555C82.5158-97.9555 87.5158-110.755 99.1158-117.555C110.916-124.455 124.516-122.455 125.016-122.355C126.916-122.055 128.616-120.955 129.616-119.255C130.616-117.555 130.716-115.555 130.016-113.755C129.816-113.255 124.816-100.455 113.216-93.6555C106.016-89.3555 97.9158-88.4555 92.7158-88.4555Z"/>
  </g>
  <g id="Bold-L" transform="matrix(1 0 0 1 2262.95 1556)">
   <path d="M101.31 49.05C98.9104 49.05 96.4104 48.55 94.0104 47.55C91.8104 46.95 89.9104 46.35 88.1104 45.75C84.0104 44.45 80.7104 43.35 76.5104 43.35C71.9104 43.35 68.8104 44.45 64.2104 46.15C62.7104 46.65 61.2104 47.25 59.5104 47.85C51.2104 50.55 40.1104 48.35 35.3104 40.15C15.3104 13.95 5.31044-9.75005 3.61044-34.55C2.31044-54.25 8.91044-68.45 23.4104-76.75C39.5104-85.95 56.7104-85.05 73.1104-73.95C76.1104-71.95 76.9104-71.95 80.4104-73.95C87.2104-77.75 96.2104-82.25 105.61-83.25C117.21-84.45 127.41-81.65 135.31-75.25C143.51-68.55 148.41-58.45 149.51-46.05C149.71-44.35 149.71-42.75 149.81-40.85C149.91-39.45 149.91-37.95 150.01-36.15L150.01-35.75L150.01-35.35C147.91-9.05005 136.81 16.45 117.21 40.65C113.21 46.05 107.31 49.05 101.31 49.05ZM82.1104-66.95C81.4104-64.35 79.0104-62.75 76.5104-62.75C76.0104-62.75 75.4104-62.85 74.9104-62.95C71.8104-63.85 70.0104-67.05 70.9104-70.15C71.0104-70.45 75.6104-87.75 67.3104-101.95C65.7104-104.75 66.6104-108.25 69.4104-109.85C72.2104-111.45 75.7104-110.55 77.3104-107.75C88.2104-89.15 82.3104-67.85 82.1104-66.95ZM91.2104-87.95C88.2104-87.95 86.1104-88.25 85.9104-88.25C84.2104-88.55 82.6104-89.55 81.8104-91.05C80.9104-92.55 80.8104-94.45 81.4104-96.05C81.6104-96.55 86.5104-109.15 97.9104-115.85C109.41-122.65 122.81-120.65 123.41-120.55C125.11-120.25 126.71-119.25 127.51-117.75C128.41-116.25 128.51-114.35 127.91-112.75C127.71-112.25 122.81-99.65 111.41-92.95C104.31-88.85 96.3104-87.95 91.2104-87.95Z"/>
  </g>
  <g id="Semibold-L" transform="matrix(1 0 0 1 1966.79 1556)">
   <path d="M100.613 48.2795C98.2125 48.2795 95.8125 47.7795 93.5125 46.8795C91.3125 46.2795 89.4125 45.6795 87.5125 45.0795C83.3125 43.7795 80.0125 42.6795 75.7125 42.5795C71.0125 42.5795 67.9125 43.6795 63.1125 45.4795C61.7125 45.9795 60.1125 46.5795 58.4125 47.1795C50.4125 49.7795 39.5125 47.6795 34.9125 39.6795C15.2125 13.5795 5.2125-10.0205 3.6125-34.7205C2.3125-54.1205 8.8125-68.1205 23.1125-76.3205C39.0125-85.4205 55.9125-84.4205 72.2125-73.5205C75.4125-71.4205 76.5125-71.3205 80.2125-73.4205C87.0125-77.2205 95.8125-81.7205 105.113-82.6205C116.513-83.8205 126.613-81.1205 134.313-74.7205C142.313-68.1205 147.113-58.2205 148.313-45.9205L148.413-44.9205C148.513-42.4205 148.613-39.8205 148.913-36.1205L148.913-35.7205L148.913-35.3205C146.813-9.2205 135.813 16.2795 116.212 40.2795C112.113 45.3795 106.413 48.2795 100.613 48.2795ZM80.8125-67.2205C80.2125-64.9205 78.1125-63.4205 75.8125-63.4205C75.3125-63.4205 74.9125-63.5205 74.4125-63.6205C71.7125-64.4205 70.1125-67.2205 70.8125-70.0205C70.8125-70.2205 75.6125-87.8205 67.2125-102.32C65.8125-104.82 66.6125-107.92 69.1125-109.42C71.6125-110.82 74.7125-110.02 76.2125-107.52C86.8125-89.1205 81.0125-68.1205 80.8125-67.2205ZM89.1125-87.4205C86.1125-87.4205 84.1125-87.7205 83.9125-87.7205C82.4125-87.9205 81.0125-88.9205 80.2125-90.2205C79.4125-91.6205 79.3125-93.2205 79.8125-94.6205C80.0125-95.1205 84.8125-107.42 96.0125-114.12C107.313-120.82 120.513-118.82 121.113-118.82C122.613-118.62 124.013-117.62 124.813-116.32C125.613-114.92 125.712-113.32 125.212-111.92C125.013-111.42 120.212-99.1205 109.013-92.4205C102.013-88.2205 94.1125-87.4205 89.1125-87.4205Z"/>
  </g>
  <g id="Medium-L" transform="matrix(1 0 0 1 1670.82 1556)">
   <path d="M99.9146 47.5287C97.6146 47.5287 95.3146 47.0287 93.0146 46.1287C90.8146 45.5287 88.9146 44.9287 87.0146 44.3287C82.8146 43.0287 79.4146 41.9287 75.0146 41.8287C70.2146 41.8287 66.8146 43.0287 62.2146 44.7287C60.8146 45.2287 59.2146 45.8287 57.5146 46.3287C49.7146 48.8287 39.2146 46.8287 34.7146 39.1287C15.2146 13.2287 5.21461-10.2713 3.61461-34.8713C2.31461-53.9713 8.71461-67.7713 22.8146-75.8713C38.4146-84.8713 55.2146-83.8713 71.2146-73.1713C74.6146-70.8713 76.0146-70.8713 79.8146-73.0713C86.5146-76.8713 95.3146-81.2713 104.415-82.1713C115.615-83.3713 125.615-80.6713 133.215-74.3713C141.115-67.8713 145.815-58.0713 146.915-46.0713L146.915-45.3713C147.015-42.8713 147.115-40.1713 147.415-36.2713L147.415-35.9713L147.415-35.6713C145.315-9.67129 134.315 15.7287 114.915 39.6287C111.115 44.7287 105.615 47.5287 99.9146 47.5287ZM79.4146-67.4713C78.8146-65.4713 77.0146-64.1713 75.1146-64.1713C74.7146-64.1713 74.3146-64.2713 73.9146-64.3713C71.5146-65.0713 70.1146-67.5713 70.8146-69.9713C70.9146-70.1713 75.7146-87.9713 67.1146-102.771C65.8146-104.971 66.6146-107.671 68.7146-108.971C70.9146-110.271 73.6146-109.471 74.9146-107.371C85.3146-89.1713 79.6146-68.3713 79.4146-67.4713ZM88.5146-86.8713C85.6146-86.8713 83.6146-87.1713 83.4146-87.1713C82.0146-87.3713 80.9146-88.1713 80.2146-89.3713C79.5146-90.5713 79.4146-91.9713 79.9146-93.2713C80.1146-93.7713 84.8146-105.871 95.9146-112.471C107.015-119.071 120.015-117.171 120.615-117.071C122.015-116.871 123.115-116.071 123.815-114.871C124.515-113.671 124.615-112.271 124.115-110.971C123.915-110.471 119.215-98.3713 108.115-91.7713C101.115-87.6713 93.4146-86.8713 88.5146-86.8713Z"/>
  </g>
  <g id="Regular-L" transform="matrix(1 0 0 1 1374.76 1556)">
   <path d="M99.3168 46.9077C97.1168 46.9077 94.8168 46.5077 92.6168 45.5077C90.4168 44.9077 88.5168 44.3077 86.6168 43.7077C82.3168 42.3077 78.9168 41.3077 74.4168 41.2077C69.4168 41.2077 66.1168 42.4077 61.4168 44.1077C60.0168 44.6077 58.4168 45.2077 56.8168 45.7077C49.3168 48.2077 39.1168 46.2077 34.8168 38.7077C15.1168 13.1077 5.21684-10.3923 3.61684-34.8923C2.31684-53.6923 8.61684-67.2923 22.4168-75.1923C37.8168-83.9923 54.3168-83.0923 70.1168-72.4923C73.7168-70.0923 75.4168-70.0923 79.4168-72.3923C86.0168-76.0923 94.8168-80.4923 103.817-81.3923C114.917-82.4923 124.617-79.8923 132.117-73.7923C139.817-67.3923 144.517-57.7923 145.617-45.8923C145.817-44.2923 145.817-42.6923 145.917-40.7923C146.017-39.3923 146.017-37.8923 146.117-36.0923L146.117-35.7923L146.117-35.4923C144.017-9.59227 133.117 15.6077 113.717 39.4077C110.017 44.3077 104.717 46.9077 99.3168 46.9077ZM74.5168-64.7923C74.2168-64.7923 73.8168-64.7923 73.4168-64.8923C71.3168-65.4923 70.1168-67.5923 70.7168-69.6923C70.8168-69.9923 75.6168-87.9923 67.0168-102.992C65.9168-104.792 66.6168-107.192 68.4168-108.292C70.2168-109.392 72.6168-108.692 73.7168-106.892C84.1168-88.9923 78.5168-68.4923 78.2168-67.6923C77.7168-65.8923 76.2168-64.7923 74.5168-64.7923ZM86.5168-87.4923C83.6168-87.4923 81.7168-87.7923 81.5168-87.7923C80.3168-87.9923 79.3168-88.6923 78.7168-89.6923C78.1168-90.6923 78.0168-91.8923 78.4168-92.9923C78.6168-93.4923 83.3168-105.392 94.1168-111.792C105.017-118.192 117.817-116.392 118.317-116.292C119.517-116.092 120.517-115.392 121.117-114.392C121.717-113.392 121.817-112.192 121.417-111.092C121.217-110.592 116.517-98.6923 105.717-92.2923C98.9168-88.2923 91.3168-87.4923 86.5168-87.4923Z"/>
  </g>
  <g id="Light-L" transform="matrix(1 0 0 1 1078.7 1556)">
   <path d="M98.617 46.1129C96.417 46.1129 94.317 45.7129 92.117 44.8129C89.917 44.2129 88.017 43.6129 86.117 43.0129C81.917 41.7129 78.317 40.5129 73.717 40.4129C68.617 40.4129 65.217 41.6129 60.417 43.4129C59.017 43.9129 57.417 44.5129 55.817 45.0129C48.617 47.4129 38.817 45.6129 34.717 38.4129C15.117 12.6129 5.21703-10.6871 3.61703-34.9871C2.31703-53.5871 8.61703-66.9871 22.117-74.7871C37.317-83.4871 53.517-82.5871 69.117-72.0871C73.017-69.4871 74.817-69.4871 79.117-71.9871C85.717-75.6871 94.317-80.0871 103.217-80.8871C114.117-81.9871 123.717-79.3871 131.017-73.3871C138.617-67.0871 143.217-57.5871 144.317-45.9871C144.517-44.3871 144.517-42.7871 144.617-40.9871C144.717-39.5871 144.717-38.0871 144.817-36.2871L144.817-36.0871L144.817-35.8871C142.717-10.0871 131.817 15.0129 112.517 38.7129C109.017 43.6129 103.917 46.1129 98.617 46.1129ZM77.017-67.8871C76.617-66.4871 75.317-65.5871 73.917-65.5871C73.617-65.5871 73.317-65.5871 73.017-65.6871C71.317-66.1871 70.317-67.9871 70.817-69.6871C70.917-69.8871 75.817-88.1871 67.017-103.487C66.117-104.987 66.617-106.987 68.217-107.887C69.717-108.787 71.717-108.287 72.617-106.687C82.817-88.9871 77.217-68.7871 77.017-67.8871ZM84.817-86.9871C81.917-86.9871 80.117-87.2871 79.917-87.2871C78.917-87.3871 78.117-87.9871 77.617-88.8871C77.117-89.6871 77.017-90.7871 77.417-91.6871C77.617-92.1871 82.217-103.887 92.817-110.187C103.517-116.487 116.117-114.687 116.617-114.587C117.617-114.487 118.417-113.887 118.917-112.987C119.417-112.187 119.517-111.087 119.117-110.187C118.917-109.687 114.317-97.9871 103.717-91.6871C97.017-87.6871 89.517-86.9871 84.817-86.9871Z"/>
  </g>
  <g id="Thin-L" transform="matrix(1 0 0 1 782.648 1556)">
   <path d="M98.098 45.3182C95.998 45.3182 93.898 44.9182 91.798 44.0182C89.598 43.4182 87.698 42.8182 85.798 42.2182C81.598 40.9182 77.898 39.7182 73.298 39.6182C68.098 39.6182 64.598 40.9182 59.798 42.6182C58.398 43.1182 56.898 43.7182 55.198 44.2182C48.098 46.5182 38.598 44.7182 34.698 37.7182C15.098 12.2182 5.198-10.9818 3.598-35.1818C2.398-53.5818 8.498-66.7818 21.798-74.3818C36.798-82.9818 52.798-82.0818 68.098-71.6818C72.098-68.9818 74.298-68.9818 78.798-71.4818C85.298-75.1818 93.898-79.4818 102.698-80.2818C113.398-81.3818 122.898-78.8818 129.998-72.9818C137.498-66.8818 141.998-57.4818 142.998-45.9818L142.998-45.1818C143.098-42.6818 143.198-39.9818 143.498-36.1818L143.498-35.9818L143.498-35.7818C141.398-10.0818 130.598 14.8182 111.298 38.5182C108.098 42.9182 103.098 45.3182 98.098 45.3182ZM73.298-66.3818C73.098-66.3818 72.798-66.3818 72.598-66.4818C71.198-66.8818 70.398-68.2818 70.798-69.6818C70.898-69.8818 75.898-88.4818 66.898-103.982C66.198-105.182 66.598-106.782 67.798-107.482C68.998-108.182 70.598-107.782 71.298-106.582C81.398-89.1818 75.898-69.1818 75.698-68.3818C75.498-67.0818 74.398-66.3818 73.298-66.3818ZM82.798-86.4818C79.998-86.4818 78.198-86.7818 77.998-86.7818C77.198-86.8818 76.598-87.3818 76.198-88.0818C75.798-88.7818 75.698-89.5818 75.998-90.2818C76.198-90.7818 80.698-102.282 91.198-108.482C101.798-114.682 114.098-112.882 114.598-112.782C115.398-112.682 115.998-112.182 116.398-111.482C116.798-110.782 116.898-109.982 116.598-109.282C116.398-108.782 111.898-97.2818 101.398-91.0818C94.698-87.1818 87.398-86.4818 82.798-86.4818Z"/>
  </g>
  <g id="Ultralight-L" transform="matrix(1 0 0 1 486.536 1556)">
   <path d="M97.4001 44.6237C95.4001 44.6237 93.3001 44.2237 91.4001 43.3237C89.2001 42.7237 87.3001 42.1237 85.4001 41.5237C81.1001 40.1237 77.4001 39.0237 72.7001 38.9237C67.4001 38.9237 63.9001 40.2237 59.0001 42.0237C57.6001 42.5237 56.1001 43.1237 54.4001 43.6237C47.6001 45.8237 38.4001 44.1237 34.6001 37.4237C15.0001 11.8237 5.20006-11.2763 3.60006-35.3763C2.40006-53.4763 8.40006-66.4763 21.5001-73.9763C36.2001-82.4763 52.0001-81.4763 67.1001-71.2763C71.4001-68.4763 73.8001-68.3763 78.5001-71.0763C85.0001-74.6763 93.5001-78.9763 102.1-79.8763C112.6-80.9763 121.9-78.4763 129-72.6763C136.3-66.6763 140.8-57.4763 141.8-46.0763L141.8-45.3763C141.9-42.8763 142-40.1763 142.3-36.3763L142.3-36.2763L142.3-36.1763C140.2-10.6763 129.4 14.2237 110.3 37.8237C107 42.2237 102.3 44.6237 97.4001 44.6237ZM72.5001-67.1763C72.3001-67.1763 72.1001-67.1763 72.0001-67.2763C71.0001-67.5763 70.4001-68.6763 70.7001-69.6763C70.8001-69.8763 75.9001-88.6763 66.8001-104.476C66.3001-105.376 66.6001-106.576 67.5001-107.076C68.4001-107.576 69.6001-107.276 70.1001-106.376C80.1001-89.1763 74.7001-69.4763 74.4001-68.6763C74.1001-67.6763 73.4001-67.1763 72.5001-67.1763ZM80.8001-85.9763C78.1001-85.9763 76.2001-86.2763 76.1001-86.2763C75.5001-86.3763 75.0001-86.6763 74.7001-87.1763C74.4001-87.6763 74.4001-88.2763 74.6001-88.8763C74.8001-89.3763 79.2001-100.676 89.5001-106.776C99.8001-112.876 111.9-111.076 112.4-110.976C113-110.876 113.5-110.576 113.8-110.076C114.1-109.576 114.1-108.976 113.9-108.376C113.7-107.876 109.3-96.5763 99.0001-90.4763C92.5001-86.6763 85.4001-85.9763 80.8001-85.9763Z"/>
  </g>
  <g id="Black-M" transform="matrix(1 0 0 1 2871.79 1126)">
   <path d="M119.074-36.5344L119.074-36.1344C117.374-15.6344 108.774 4.36556 93.4736 23.2656C90.1736 27.6656 85.3736 30.0656 80.3736 30.0656C78.3736 30.0656 76.3736 29.6656 74.3736 28.8656C72.6736 28.3656 71.1736 27.9656 69.7736 27.4656C66.6736 26.4656 64.1736 25.6656 61.0736 25.6656C57.6736 25.6656 55.3736 26.4656 51.8736 27.7656C50.7736 28.1656 49.5736 28.5656 48.1736 29.0656C41.4736 31.2656 32.2736 29.7656 28.1736 22.6656C12.6736 2.36556 4.87364-16.2344 3.57364-35.6344C2.27364-55.1344 11.4736-64.7344 19.4736-69.3344C32.2736-76.7344 45.9736-75.9344 59.0736-67.1344C60.9736-65.8344 61.2736-65.7344 63.6736-67.1344C69.0736-70.1344 76.0736-73.7344 83.5736-74.4344C92.7736-75.4344 101.074-73.1344 107.374-67.9344C113.874-62.5344 117.874-54.5344 118.774-44.6344C118.874-43.3344 118.974-42.0344 118.974-40.5344C118.974-39.4344 119.074-38.3344 119.174-36.9344L119.074-36.5344ZM61.0736-56.5344C60.5736-56.5344 60.0736-56.6344 59.5736-56.7344C56.6736-57.5344 54.9736-60.6344 55.7736-63.5344C55.8736-63.8344 59.2736-76.8344 53.0736-87.4344C51.5736-90.0344 52.4736-93.4344 55.0736-94.9344C57.6736-96.4344 61.0736-95.5344 62.5736-92.9344C71.1736-78.2344 66.4736-61.3344 66.2736-60.5344C65.6736-58.1344 63.4736-56.5344 61.0736-56.5344ZM74.4736-78.1344C72.0736-78.1344 70.4736-78.3344 70.2736-78.4344C68.6736-78.7344 67.1736-79.6344 66.3736-81.1344C65.5736-82.6344 65.3736-84.3344 65.9736-85.8344C66.1736-86.2344 70.0736-96.2344 79.1736-101.734C88.3736-107.134 99.1736-105.634 99.5736-105.534C101.174-105.234 102.674-104.334 103.474-102.834C104.274-101.334 104.474-99.6344 103.874-98.1344C103.674-97.7344 99.7736-87.7344 90.6736-82.2344C84.9736-78.8344 78.5736-78.1344 74.4736-78.1344Z"/>
  </g>
  <g id="Heavy-M" transform="matrix(1 0 0 1 2575.63 1126)">
   <path d="M118.076-36.6293L118.076-36.2293C116.376-15.7293 107.776 4.17071 92.4761 22.9707C89.2761 27.2707 84.5761 29.5707 79.7761 29.5707C77.7761 29.5707 75.8761 29.1707 73.9761 28.3707C72.2761 27.8707 70.7761 27.4707 69.3761 26.9707C66.1761 25.9707 63.6761 25.1707 60.4761 25.0707C56.9761 25.0707 54.6761 25.9707 51.0761 27.2707C49.9761 27.6707 48.7761 28.0707 47.3761 28.5707C40.7761 30.6707 31.8761 28.9707 27.9761 22.3707C12.5761 2.17071 4.87608-16.3293 3.57608-35.7293C2.27608-54.9293 11.2761-64.3293 19.1761-68.8293C31.7761-76.1293 45.3761-75.3293 58.2761-66.6293C60.3761-65.2293 60.7761-65.1293 63.3761-66.6293C68.6761-69.6293 75.6761-73.1293 83.0761-73.8293C92.1761-74.7293 100.276-72.6293 106.476-67.5293C112.876-62.2293 116.776-54.3293 117.676-44.5293L117.676-43.7293C117.776-41.8293 117.876-39.8293 118.076-36.9293L118.076-36.6293ZM60.5761-57.0293C60.0761-57.0293 59.6761-57.1293 59.1761-57.2293C56.4761-58.0293 54.9761-60.7293 55.6761-63.4293C55.7761-63.6293 59.2761-76.8293 52.9761-87.6293C51.5761-90.0293 52.3761-93.0293 54.7761-94.4293C57.1761-95.8293 60.1761-95.0293 61.5761-92.6293C70.0761-78.0293 65.4761-61.3293 65.2761-60.6293C64.7761-58.4293 62.7761-57.0293 60.5761-57.0293ZM72.8761-77.6293C70.4761-77.6293 68.8761-77.8293 68.6761-77.9293C67.1761-78.1293 65.8761-79.0293 65.0761-80.3293C64.2761-81.6293 64.1761-83.2293 64.7761-84.6293C64.9761-85.0293 68.7761-94.9293 77.7761-100.229C86.9761-105.529 97.4761-104.029 97.8761-103.929C99.3761-103.729 100.676-102.829 101.476-101.529C102.276-100.229 102.376-98.6293 101.776-97.2293C101.576-96.8293 97.7761-86.9293 88.7761-81.6293C83.1761-78.2293 76.8761-77.6293 72.8761-77.6293Z"/>
  </g>
  <g id="Bold-M" transform="matrix(1 0 0 1 2279.47 1126)">
   <path d="M79.273 29.0268C77.373 29.0268 75.473 28.6268 73.573 27.9268C71.873 27.4268 70.373 27.0268 68.973 26.5268C65.773 25.5268 63.273 24.7268 59.973 24.6268C56.473 24.6268 54.073 25.5268 50.373 26.8268C49.273 27.2268 48.073 27.6268 46.773 28.1268C40.373 30.2268 31.673 28.5268 27.973 22.1268C12.673 1.92677 4.87295-16.4732 3.57295-35.7732C2.57295-50.9732 7.67295-62.0732 18.873-68.4732C31.373-75.6732 44.673-74.8732 57.473-66.2732C59.773-64.6732 60.473-64.6732 63.073-66.2732C68.373-69.2732 75.273-72.7732 82.573-73.4732C91.573-74.3732 99.473-72.2732 105.573-67.2732C111.873-62.0732 115.673-54.2732 116.573-44.6732C116.673-43.3732 116.773-42.1732 116.773-40.6732C116.773-39.5732 116.873-38.4732 116.973-37.0732L116.973-36.7732L116.973-36.4732C115.473-15.9732 106.873 3.92677 91.673 22.6268C88.573 26.7268 83.973 29.0268 79.273 29.0268ZM64.473-60.8732C63.873-58.8732 62.073-57.5732 60.173-57.5732C59.773-57.5732 59.373-57.6732 58.973-57.7732C56.573-58.4732 55.173-60.9732 55.873-63.2732C55.973-63.4732 59.473-76.8732 53.073-87.8732C51.873-89.9732 52.573-92.7732 54.673-94.0732C56.773-95.3732 59.573-94.5732 60.873-92.4732C69.173-78.0732 64.673-61.5732 64.473-60.8732ZM71.573-77.1732C69.173-77.1732 67.673-77.3732 67.473-77.4732C66.173-77.6732 64.973-78.4732 64.273-79.6732C63.573-80.8732 63.473-82.2732 63.973-83.5732C64.173-83.9732 67.973-93.6732 76.773-98.9732C85.673-104.273 96.073-102.673 96.573-102.673C97.873-102.473 99.073-101.673 99.773-100.473C100.473-99.2732 100.573-97.8732 100.073-96.5732C99.873-96.1732 96.073-86.4732 87.273-81.1732C81.673-77.7732 75.473-77.1732 71.573-77.1732Z"/>
  </g>
  <g id="Semibold-M" transform="matrix(1 0 0 1 1983.21 1126)">
   <path d="M78.7731 28.576C76.9731 28.576 75.0731 28.176 73.2731 27.476C71.5731 26.976 70.0731 26.576 68.6731 26.076C65.3731 25.076 62.8731 24.276 59.5731 24.176C55.9731 24.176 53.4731 25.076 49.8731 26.376C48.7731 26.776 47.5731 27.176 46.2731 27.676C40.0731 29.676 31.6731 28.076 28.0731 21.876C12.5731 1.67603 4.87306-16.624 3.57306-35.724C2.57306-50.724 7.67306-61.624 18.6731-67.924C30.9731-75.024 44.0731-74.224 56.6731-65.724C59.1731-64.024 60.0731-64.024 62.8731-65.624C68.0731-68.524 74.9731-72.024 82.1731-72.724C90.9731-73.624 98.8731-71.524 104.873-66.624C111.073-61.524 114.873-53.824 115.673-44.324L115.673-43.524C115.773-41.624 115.873-39.524 116.073-36.724L116.073-36.424L116.073-36.124C114.473-15.824 105.873 3.87603 90.7731 22.476C87.6731 26.376 83.2731 28.576 78.7731 28.576ZM63.4731-60.924C62.9731-59.124 61.3731-58.024 59.6731-58.024C59.2731-58.024 58.9731-58.024 58.5731-58.224C56.4731-58.824 55.1731-61.024 55.7731-63.124C55.7731-63.224 59.4731-76.924 52.9731-88.124C51.8731-90.024 52.4731-92.524 54.3731-93.624C56.2731-94.724 58.7731-94.124 59.8731-92.224C68.0731-77.924 63.6731-61.624 63.4731-60.924ZM69.8731-76.624C67.5731-76.624 65.9731-76.824 65.8731-76.824C64.6731-77.024 63.6731-77.724 62.9731-78.724C62.2731-79.724 62.2731-81.024 62.6731-82.124C62.8731-82.524 66.5731-92.124 75.2731-97.224C83.9731-102.424 94.2731-100.924 94.6731-100.824C95.8731-100.624 96.8731-99.924 97.5731-98.924C98.1731-97.924 98.2731-96.624 97.8731-95.524C97.6731-95.124 93.9731-85.524 85.2731-80.424C79.8731-77.224 73.7731-76.624 69.8731-76.624Z"/>
  </g>
  <g id="Medium-M" transform="matrix(1 0 0 1 1687.04 1126)">
   <path d="M78.2751 28.0815C76.4751 28.0815 74.6751 27.6815 72.9751 26.9815C71.2751 26.4815 69.7751 26.0815 68.3751 25.5815C65.0751 24.5815 62.4751 23.6815 59.0751 23.6815C55.3751 23.6815 52.7751 24.5815 49.1751 25.8815C48.0751 26.2815 46.8751 26.6815 45.5751 27.1815C39.5751 29.1815 31.3751 27.5815 27.9751 21.5815C12.4751 1.48154 4.77512-16.7185 3.57512-35.8185C2.57512-50.6185 7.57512-61.3185 18.3751-67.5185C30.4751-74.5185 43.4751-73.7185 55.8751-65.4185C58.5751-63.6185 59.5751-63.6185 62.5751-65.3185C67.7751-68.2185 74.5751-71.7185 81.6751-72.3185C90.3751-73.2185 98.0751-71.1185 103.975-66.3185C110.075-61.3185 113.775-53.7185 114.575-44.3185L114.575-43.7185C114.675-41.7185 114.775-39.6185 114.975-36.7185L114.975-36.4185L114.975-36.1185C113.375-15.9185 104.875 3.68154 89.7751 22.2815C86.8751 25.9815 82.5751 28.0815 78.2751 28.0815ZM62.2751-61.0185C61.8751-59.5185 60.4751-58.5185 58.8751-58.5185C58.5751-58.5185 58.2751-58.5185 57.8751-58.6185C55.9751-59.1185 54.9751-61.1185 55.4751-62.9185C55.4751-63.0185 59.2751-76.9185 52.5751-88.3185C51.5751-90.0185 52.1751-92.1185 53.8751-93.1185C55.5751-94.1185 57.6751-93.5185 58.6751-91.8185C66.8751-77.8185 62.4751-61.7185 62.2751-61.0185ZM69.3751-76.1185C67.0751-76.1185 65.5751-76.3185 65.3751-76.3185C64.3751-76.5185 63.3751-77.1185 62.8751-78.0185C62.3751-78.9185 62.2751-80.0185 62.6751-81.0185C62.8751-81.4185 66.4751-90.8185 75.0751-95.9185C83.6751-101.018 93.7751-99.5185 94.1751-99.4185C95.1751-99.2185 96.1751-98.6185 96.6751-97.7185C97.1751-96.8185 97.2751-95.7185 96.8751-94.7185C96.7751-94.3185 93.0751-85.0185 84.5751-79.9185C79.1751-76.7185 73.1751-76.1185 69.3751-76.1185Z"/>
  </g>
  <g id="Regular-M" transform="matrix(1 0 0 1 1390.78 1126)">
   <path d="M77.6772 27.6109C75.9772 27.6109 74.1772 27.3109 72.4772 26.5109C70.7772 26.0109 69.2772 25.6109 67.8772 25.1109C64.5772 24.0109 61.8772 23.2109 58.4772 23.1109C54.6772 23.1109 51.9772 24.1109 48.3772 25.4109C47.2772 25.8109 46.0772 26.2109 44.7772 26.7109C38.9772 28.6109 30.9772 27.1109 27.6772 21.3109C12.4772 1.31094 4.77718-16.7891 3.57718-35.7891C2.57718-50.3891 7.47718-60.9891 18.1772-67.0891C30.0772-73.9891 42.8772-73.1891 55.1772-64.9891C57.9772-63.0891 59.2772-63.0891 62.3772-64.8891C67.4772-67.7891 74.2772-71.1891 81.2772-71.8891C89.8772-72.7891 97.4772-70.7891 103.177-65.9891C109.177-61.0891 112.777-53.5891 113.677-44.3891C113.777-43.1891 113.877-41.8891 113.877-40.4891C113.877-39.3891 113.977-38.1891 114.077-36.8891L114.077-36.6891L114.077-36.4891C112.377-16.2891 103.977 3.31094 88.8772 21.7109C86.0772 25.5109 81.9772 27.6109 77.6772 27.6109ZM58.5772-58.9891C58.2772-58.9891 58.0772-58.9891 57.7772-59.0891C56.1772-59.5891 55.2772-61.1891 55.6772-62.7891C55.7772-62.9891 59.4772-76.9891 52.7772-88.5891C51.9772-89.9891 52.4772-91.8891 53.8772-92.6891C55.2772-93.4891 57.1772-92.9891 57.9772-91.5891C65.9772-77.7891 61.6772-61.7891 61.4772-61.1891C61.0772-59.8891 59.8772-58.9891 58.5772-58.9891ZM67.8772-76.5891C65.6772-76.5891 64.1772-76.7891 63.9772-76.7891C63.0772-76.8891 62.2772-77.4891 61.8772-78.2891C61.4772-79.0891 61.3772-79.9891 61.6772-80.8891C61.7772-81.2891 65.4772-90.4891 73.8772-95.4891C82.2772-100.489 92.2772-98.9891 92.6772-98.9891C93.5772-98.8891 94.3772-98.2891 94.7772-97.4891C95.2772-96.6891 95.2772-95.7891 94.9772-94.8891C94.7772-94.4891 91.1772-85.2891 82.7772-80.2891C77.3772-77.1891 71.5772-76.5891 67.8772-76.5891Z"/>
  </g>
  <g id="Light-M" transform="matrix(1 0 0 1 1094.53 1126)">
   <path d="M77.2566 27.1602C75.5566 27.1602 73.8566 26.8602 72.2566 26.1602C70.5566 25.6602 69.0566 25.2602 67.6566 24.7602C64.4566 23.7602 61.6566 22.8602 58.0566 22.7602C54.1566 22.7602 51.4566 23.7602 47.7566 25.0602C46.6566 25.4602 45.4566 25.8602 44.1566 26.3602C38.4566 28.1602 30.8566 26.7602 27.6566 21.1602C12.4566 1.16018 4.85658-16.9398 3.55658-35.7398C2.65658-50.2398 7.45658-60.5398 17.9566-66.6398C29.7566-73.4398 42.3566-72.6398 54.3566-64.5398C57.3566-62.5398 58.7566-62.5398 62.1566-64.4398C67.2566-67.3398 73.9566-70.6398 80.8566-71.3398C89.2566-72.2398 96.7566-70.2398 102.457-65.5398C108.357-60.6398 111.957-53.3398 112.757-44.2398C112.857-43.0398 112.957-41.7398 112.957-40.3398C112.957-39.2398 113.057-38.0398 113.157-36.6398L113.157-36.4398L113.157-36.2398C111.557-16.2398 103.157 3.16018 88.1566 21.5602C85.3566 25.1602 81.3566 27.1602 77.2566 27.1602ZM60.4566-61.2398C60.1566-60.1398 59.1566-59.4398 58.0566-59.4398C57.8566-59.4398 57.5566-59.4398 57.3566-59.5398C56.0566-59.9398 55.2566-61.3398 55.6566-62.6398C55.6566-62.7398 59.5566-77.0398 52.6566-88.8398C51.9566-90.0398 52.3566-91.5398 53.5566-92.2398C54.7566-92.9398 56.2566-92.5398 56.9566-91.3398C64.9566-77.6398 60.6566-61.9398 60.4566-61.2398ZM66.5566-76.0398C64.3566-76.0398 62.8566-76.2398 62.7566-76.2398C62.0566-76.3398 61.3566-76.8398 60.9566-77.4398C60.5566-78.0398 60.5566-78.8398 60.7566-79.6398C60.8566-80.0398 64.4566-89.1398 72.7566-94.0398C81.0566-98.9398 90.7566-97.5398 91.1566-97.4398C91.8566-97.3398 92.5566-96.8398 92.9566-96.2398C93.3566-95.6398 93.3566-94.8398 93.1566-94.0398C93.0566-93.6398 89.4566-84.5398 81.1566-79.6398C75.9566-76.6398 70.2566-76.0398 66.5566-76.0398Z"/>
  </g>
  <g id="Thin-M" transform="matrix(1 0 0 1 798.368 1126)">
   <path d="M76.7585 26.69C75.1585 26.69 73.4585 26.39 71.9585 25.69C70.2585 25.19 68.7585 24.79 67.2585 24.29C63.9585 23.29 61.1585 22.39 57.5585 22.29C53.5585 22.29 50.8585 23.29 47.0585 24.59C45.9585 24.99 44.7585 25.39 43.4585 25.89C37.9585 27.69 30.5585 26.29 27.5585 20.89C12.4585 0.990028 4.85848-17.01 3.55848-35.81C2.65848-50.01 7.35848-60.21 17.6585-66.11C29.2585-72.81 41.6585-72.01 53.5585-64.01C56.6585-61.91 58.3585-61.91 61.8585-63.91C66.8585-66.71 73.5585-70.11 80.3585-70.81C88.6585-71.71 95.9585-69.71 101.558-65.11C107.358-60.31 110.858-53.11 111.658-44.21L111.658-43.61C111.758-41.71 111.858-39.61 112.058-36.71L112.058-36.61L112.058-36.51C110.458-16.61 102.058 2.79003 87.1585 21.09C84.5585 24.79 80.7585 26.69 76.7585 26.69ZM57.5585-59.91C57.3585-59.91 57.1585-59.91 57.0585-60.01C55.9585-60.31 55.3585-61.41 55.6585-62.51C55.6585-62.71 59.6585-77.11 52.6585-89.11C52.0585-90.11 52.4585-91.31 53.3585-91.81C54.3585-92.41 55.5585-92.01 56.0585-91.11C63.8585-77.61 59.6585-62.11 59.4585-61.51C59.2585-60.51 58.4585-59.91 57.5585-59.91ZM64.9585-75.51C62.7585-75.51 61.3585-75.71 61.2585-75.71C60.6585-75.81 60.1585-76.11 59.8585-76.71C59.5585-77.21 59.4585-77.91 59.7585-78.41C59.8585-78.81 63.3585-87.71 71.4585-92.51C79.6585-97.31 89.1585-95.91 89.5585-95.91C90.1585-95.81 90.6585-95.51 90.9585-94.91C91.2585-94.41 91.3585-93.71 91.0585-93.21C90.9585-92.81 87.4585-83.91 79.3585-79.11C74.1585-76.11 68.5585-75.51 64.9585-75.51Z"/>
  </g>
  <g id="Ultralight-M" transform="matrix(1 0 0 1 502.145 1126)">
   <path d="M76.2817 26.2391C74.6817 26.2391 73.0817 25.9391 71.5817 25.2391C69.8817 24.7391 68.3817 24.3391 66.8817 23.8391C63.5817 22.7391 60.6817 21.8391 56.9817 21.8391C52.8817 21.8391 50.0817 22.8391 46.3817 24.2391C45.2817 24.6391 44.0817 25.0391 42.7817 25.5391C37.4817 27.2391 30.3817 25.9391 27.4817 20.7391C12.4817 0.839141 4.88171-17.0609 3.58171-35.7609C2.58171-49.7609 7.28171-59.8609 17.4817-65.6609C28.8817-72.2609 41.0817-71.4609 52.8817-63.5609C56.1817-61.3609 58.0817-61.3609 61.6817-63.4609C66.6817-66.2609 73.2817-69.5609 79.9817-70.2609C88.1817-71.0609 95.3817-69.1609 100.782-64.6609C106.482-59.9609 109.882-52.8609 110.682-44.0609L110.682-43.5609C110.782-41.5609 110.882-39.4609 111.082-36.5609L111.082-36.4609L111.082-36.3609C109.482-16.5609 101.082 2.73914 86.2817 20.9391C83.7817 24.3391 80.0817 26.2391 76.2817 26.2391ZM56.9817-60.3609C56.8817-60.3609 56.6817-60.3609 56.5817-60.4609C55.7817-60.6609 55.2817-61.5609 55.5817-62.2609C55.5817-62.3609 59.5817-77.0609 52.4817-89.1609C52.0817-89.8609 52.2817-90.7609 52.9817-91.2609C53.6817-91.6609 54.5817-91.4609 55.0817-90.7609C62.7817-77.4609 58.5817-62.1609 58.3817-61.4609C58.2817-60.7609 57.6817-60.3609 56.9817-60.3609ZM63.4817-74.9609C61.3817-74.9609 59.9817-75.1609 59.7817-75.1609C59.3817-75.2609 58.9817-75.4609 58.6817-75.8609C58.4817-76.2609 58.3817-76.7609 58.5817-77.1609C58.6817-77.5609 62.1817-86.2609 70.0817-91.0609C78.0817-95.7609 87.4817-94.4609 87.8817-94.3609C88.2817-94.2609 88.6817-94.0609 88.9817-93.6609C89.1817-93.2609 89.2817-92.7609 89.0817-92.3609C88.9817-91.9609 85.4817-83.2609 77.5817-78.4609C72.4817-75.5609 66.9817-74.9609 63.4817-74.9609Z"/>
  </g>
  <g id="Black-S" transform="matrix(1 0 0 1 2884.4 696)">
   <path d="M93.9437-35.4154L93.9437-35.1154C92.6437-19.0154 85.8437-3.31542 73.8437 11.3846C71.2437 14.8846 67.4437 16.6846 63.5437 16.6846C61.9437 16.6846 60.3437 16.3846 58.8437 15.7846C57.5437 15.3846 56.3437 15.0846 55.2437 14.6846C52.7437 13.8846 50.8437 13.2846 48.4437 13.2846C45.8437 13.2846 44.0437 13.9846 41.2437 14.9846C40.3437 15.2846 39.4437 15.6846 38.3437 15.9846C33.1437 17.6846 25.9437 16.4846 22.7437 10.9846C10.6437-4.91542 4.54366-19.4154 3.54366-34.7154C2.54366-50.0154 9.74366-57.5154 15.9437-61.0154C25.9437-66.8154 36.7437-66.2154 46.9437-59.3154C48.4437-58.3154 48.6437-58.2154 50.5437-59.3154C54.7437-61.7154 60.2437-64.4154 66.1437-65.0154C73.3437-65.8154 79.8437-64.0154 84.7437-59.9154C89.8437-55.7154 92.9437-49.4154 93.6437-41.6154C93.7437-40.6154 93.7437-39.6154 93.8437-38.4154C93.8437-37.6154 93.9437-36.6154 93.9437-35.6154L93.9437-35.4154ZM48.5437-51.0154C48.1437-51.0154 47.7437-51.1154 47.3437-51.2154C45.0437-51.8154 43.7437-54.2154 44.3437-56.5154C44.4437-56.7154 47.0437-66.9154 42.2437-75.2154C41.0437-77.3154 41.7437-79.9154 43.8437-81.1154C45.9437-82.3154 48.5437-81.6154 49.7437-79.5154C56.4437-68.0154 52.8437-54.7154 52.6437-54.2154C52.1437-52.2154 50.4437-51.0154 48.5437-51.0154ZM59.0437-67.9154C57.1437-67.9154 55.8437-68.1154 55.7437-68.1154C54.4437-68.3154 53.3437-69.1154 52.6437-70.2154C51.9437-71.3154 51.8437-72.7154 52.3437-73.9154C52.4437-74.2154 55.5437-82.1154 62.7437-86.3154C69.9437-90.6154 78.3437-89.3154 78.7437-89.3154C80.0437-89.1154 81.1437-88.3154 81.8437-87.2154C82.5437-86.1154 82.6437-84.7154 82.1437-83.5154C81.9437-83.2154 78.8437-75.3154 71.7437-71.1154C67.2437-68.4154 62.2437-67.9154 59.0437-67.9154Z"/>
  </g>
  <g id="Heavy-S" transform="matrix(1 0 0 1 2588.09 696)">
   <path d="M93.1449-35.2661L93.1449-34.9661C91.8449-18.9661 85.1449-3.36614 73.1449 11.3339C70.6449 14.7339 66.9449 16.5339 63.1449 16.5339C61.6449 16.5339 60.0449 16.2339 58.5449 15.6339C57.2449 15.2339 56.0449 14.9339 54.9449 14.5339C52.4449 13.7339 50.5449 13.1339 48.0449 13.0339C45.3449 13.0339 43.5449 13.7339 40.7449 14.7339C39.8449 15.0339 38.9449 15.4339 37.8449 15.7339C32.6449 17.4339 25.7449 16.0339 22.6449 10.9339C10.6449-4.96614 4.54485-19.3661 3.54485-34.5661C2.54485-49.6661 9.64485-56.9661 15.7449-60.5661C25.6449-66.2661 36.2449-65.6661 46.3449-58.8661C48.0449-57.7661 48.3449-57.6661 50.3449-58.8661C54.5449-61.2661 60.0449-63.9661 65.7449-64.5661C72.8449-65.2661 79.2449-63.5661 84.0449-59.5661C89.0449-55.4661 92.1449-49.1661 92.8449-41.5661L92.8449-40.8661C92.9449-39.3661 92.9449-37.7661 93.1449-35.5661L93.1449-35.2661ZM48.1449-51.2661C47.7449-51.2661 47.4449-51.2661 47.0449-51.3661C44.9449-51.9661 43.7449-54.0661 44.3449-56.1661C44.3449-56.2661 47.1449-66.6661 42.2449-75.1661C41.1449-77.0661 41.7449-79.4661 43.6449-80.5661C45.5449-81.6661 47.9449-81.0661 49.0449-79.1661C55.6449-67.7661 52.0449-54.6661 51.9449-54.1661C51.4449-52.3661 49.8449-51.2661 48.1449-51.2661ZM57.7449-67.3661C55.8449-67.3661 54.6449-67.5661 54.5449-67.5661C53.3449-67.7661 52.3449-68.4661 51.7449-69.4661C51.1449-70.4661 51.0449-71.7661 51.4449-72.8661C51.5449-73.1661 54.6449-80.9661 61.6449-85.0661C68.8449-89.2661 77.0449-88.0661 77.3449-87.9661C78.5449-87.7661 79.5449-87.0661 80.1449-86.0661C80.7449-85.0661 80.8449-83.7661 80.4449-82.6661C80.3449-82.3661 77.2449-74.5661 70.2449-70.4661C65.8449-67.8661 60.9449-67.3661 57.7449-67.3661Z"/>
  </g>
  <g id="Bold-S" transform="matrix(1 0 0 1 2291.78 696)">
   <path d="M62.85 16.2636C61.35 16.2636 59.85 15.9636 58.45 15.3636C57.15 14.9636 55.95 14.6636 54.85 14.2636C52.35 13.4636 50.35 12.8636 47.75 12.7636C44.95 12.7636 43.15 13.4636 40.25 14.4636C39.35 14.7636 38.45 15.1636 37.35 15.4636C32.35 17.0636 25.55 15.7636 22.65 10.7636C10.65-4.9364 4.55-19.3364 3.55-34.4364C2.75-46.3364 6.75-55.0364 15.55-60.0364C25.35-65.6364 35.75-65.0364 45.75-58.3364C47.55-57.1364 48.05-57.1364 50.15-58.3364C54.25-60.6364 59.75-63.4364 65.45-63.9364C72.45-64.6364 78.75-62.9364 83.45-59.0364C88.35-54.9364 91.35-48.8364 92.05-41.3364C92.15-40.3364 92.15-39.3364 92.25-38.2364C92.25-37.4364 92.35-36.4364 92.35-35.4364L92.35-35.1364L92.35-34.8364C91.05-18.9364 84.35-3.3364 72.45 11.2636C70.05 14.5636 66.45 16.2636 62.85 16.2636ZM51.15-54.0364C50.75-52.4364 49.25-51.4364 47.75-51.4364C47.45-51.4364 47.15-51.4364 46.75-51.5364C44.85-52.0364 43.75-54.0364 44.35-55.8364C44.35-56.0364 47.15-66.5364 42.15-75.1364C41.15-76.8364 41.75-78.9364 43.45-79.9364C45.15-80.9364 47.25-80.3364 48.25-78.6364C54.85-67.5364 51.35-54.6364 51.15-54.0364ZM56.75-66.8364C54.95-66.8364 53.65-67.0364 53.55-67.0364C52.45-67.2364 51.55-67.8364 51.05-68.7364C50.55-69.6364 50.45-70.7364 50.85-71.7364C50.95-72.0364 53.95-79.6364 60.85-83.7364C67.85-87.8364 75.95-86.6364 76.35-86.6364C77.45-86.4364 78.35-85.8364 78.85-84.9364C79.35-84.0364 79.45-82.9364 79.05-81.9364C78.95-81.6364 75.95-74.0364 69.05-69.9364C64.65-67.3364 59.85-66.8364 56.75-66.8364Z"/>
  </g>
  <g id="Semibold-S" transform="matrix(1 0 0 1 1995.42 696)">
   <path d="M62.4501 16.1127C61.0501 16.1127 59.5501 15.8127 58.1501 15.2127C56.8501 14.8127 55.6501 14.5127 54.5501 14.1127C52.0501 13.3127 49.9501 12.7127 47.3501 12.6127C44.4501 12.6127 42.5501 13.3127 39.7501 14.3127C38.8501 14.6127 37.9501 15.0127 36.9501 15.3127C32.0501 16.9127 25.4501 15.6127 22.6501 10.8127C10.6501-4.98727 4.55006-19.2873 3.55006-34.2873C2.75006-46.0873 6.75006-54.5873 15.4501-59.5873C25.0501-65.0873 35.3501-64.4873 45.2501-57.8873C47.2501-56.5873 47.8501-56.5873 50.0501-57.8873C54.1501-60.1873 59.5501-62.8873 65.1501-63.4873C72.0501-64.1873 78.2501-62.5873 82.8501-58.6873C87.7501-54.6873 90.6501-48.6873 91.3501-41.1873L91.3501-40.5873C91.4501-39.0873 91.4501-37.4873 91.6501-35.2873L91.6501-35.0873L91.6501-34.8873C90.3501-18.9873 83.6501-3.58727 71.8501 11.0127C69.4501 14.3127 66.0501 16.1127 62.4501 16.1127ZM50.4501-53.9873C50.0501-52.5873 48.8501-51.6873 47.4501-51.6873C47.1501-51.6873 46.8501-51.6873 46.5501-51.7873C44.8501-52.2873 43.9501-53.9873 44.3501-55.6873C44.3501-55.7873 47.2501-66.4873 42.1501-75.2873C41.2501-76.7873 41.7501-78.6873 43.2501-79.5873C44.7501-80.4873 46.6501-79.9873 47.5501-78.4873C54.0501-67.2873 50.5501-54.5873 50.4501-53.9873ZM55.5501-66.2873C53.7501-66.2873 52.5501-66.4873 52.3501-66.4873C51.4501-66.5873 50.5501-67.1873 50.1501-67.9873C49.7501-68.7873 49.5501-69.7873 49.9501-70.6873C50.0501-70.9873 53.0501-78.4873 59.8501-82.4873C66.6501-86.4873 74.7501-85.3873 75.0501-85.2873C75.9501-85.1873 76.8501-84.5873 77.2501-83.7873C77.7501-82.9873 77.8501-81.9873 77.4501-81.0873C77.3501-80.7873 74.3501-73.2873 67.5501-69.2873C63.2501-66.7873 58.5501-66.2873 55.5501-66.2873Z"/>
  </g>
  <g id="Medium-S" transform="matrix(1 0 0 1 1699.1 696)">
   <path d="M62.0522 15.7687C60.6522 15.7687 59.2522 15.4688 57.8522 14.9688C56.5522 14.5688 55.3522 14.2687 54.2522 13.8687C51.6522 13.0688 49.6522 12.3687 46.9522 12.3687C44.0522 12.3687 41.9522 13.0688 39.1522 14.1688C38.2522 14.4688 37.3522 14.8687 36.3522 15.1688C31.6522 16.6688 25.2522 15.4688 22.5522 10.7687C10.5522-4.93125 4.55219-19.2313 3.55219-34.1313C2.75219-45.7313 6.65219-54.1313 15.1522-59.0312C24.6522-64.4312 34.7522-63.9312 44.5522-57.3312C46.6522-55.9312 47.4522-55.9312 49.7522-57.2313C53.8522-59.5312 59.1522-62.2313 64.7522-62.7313C71.5522-63.4312 77.6522-61.8312 82.2522-58.0312C87.0522-54.1313 89.9522-48.1313 90.5522-40.8312L90.5522-40.3312C90.6522-38.8312 90.6522-37.1313 90.8522-34.8312L90.8522-34.6313L90.8522-34.4312C89.5522-18.9312 82.9522-3.53125 71.1522 10.9688C68.8522 14.0688 65.4522 15.7687 62.0522 15.7687ZM49.5522-54.0312C49.2522-52.8312 48.1522-52.0312 46.9522-52.0312C46.7522-52.0312 46.4522-52.0312 46.2522-52.1313C44.7522-52.5312 43.9522-54.0312 44.3522-55.5312C44.3522-55.6313 47.3522-66.5312 42.1522-75.4312C41.3522-76.7313 41.8522-78.4312 43.1522-79.1313C44.4522-79.9312 46.1522-79.4312 46.8522-78.1313C53.2522-67.2313 49.7522-54.6313 49.5522-54.0312ZM55.1522-65.8312C53.3522-65.8312 52.1522-66.0312 52.0522-66.0312C51.2522-66.1313 50.5522-66.6313 50.0522-67.3312C49.6522-68.0312 49.5522-68.9312 49.8522-69.7313C49.9522-70.0312 52.8522-77.4312 59.5522-81.3312C66.2522-85.3312 74.1522-84.1313 74.5522-84.1313C75.3522-84.0312 76.0522-83.5312 76.5522-82.8312C76.9522-82.1313 77.0522-81.2313 76.7522-80.4312C76.6522-80.1313 73.7522-72.7313 67.0522-68.8312C62.7522-66.3312 58.1522-65.8312 55.1522-65.8312Z"/>
  </g>
  <g id="Regular-S" transform="matrix(1 0 0 1 1402.79 696)">
   <path d="M61.5543 15.418C60.1543 15.418 58.8543 15.118 57.5543 14.618C56.2543 14.218 55.0543 13.918 53.9543 13.518C51.3543 12.718 49.2543 12.018 46.5543 12.018C43.5543 12.018 41.4543 12.718 38.6543 13.818C37.7543 14.118 36.8543 14.518 35.8543 14.818C31.2543 16.318 25.0543 15.118 22.4543 10.618C10.4543-5.18201 4.45435-19.382 3.55435-34.282C2.75435-45.682 6.55435-53.982 14.9543-58.782C24.3543-64.182 34.3543-63.582 43.8543-57.082C46.0543-55.582 47.0543-55.582 49.5543-56.982C53.5543-59.282 58.8543-61.882 64.3543-62.482C71.0543-63.182 76.9543-61.582 81.5543-57.882C86.2543-53.982 89.0543-48.182 89.7543-40.982C89.8543-39.982 89.8543-38.982 89.9543-37.882C89.9543-37.082 90.0543-36.082 90.0543-34.982L90.0543-34.782L90.0543-34.582C88.7543-18.982 82.1543-3.68201 70.3543 10.818C68.1543 13.818 64.9543 15.418 61.5543 15.418ZM46.5543-52.382C46.3543-52.382 46.1543-52.382 45.9543-52.482C44.7543-52.882 43.9543-54.082 44.3543-55.382C44.3543-55.582 47.3543-66.482 42.0543-75.582C41.3543-76.682 41.7543-78.182 42.9543-78.782C44.0543-79.482 45.5543-79.082 46.1543-77.882C52.4543-67.082 49.0543-54.582 48.8543-54.082C48.5543-53.082 47.5543-52.382 46.5543-52.382ZM53.8543-66.182C52.0543-66.182 50.9543-66.382 50.8543-66.382C50.1543-66.482 49.5543-66.882 49.1543-67.482C48.7543-68.082 48.7543-68.882 48.9543-69.482C49.0543-69.782 51.9543-76.982 58.4543-80.882C65.0543-84.782 72.8543-83.682 73.1543-83.582C73.8543-83.482 74.4543-83.082 74.8543-82.482C75.2543-81.882 75.2543-81.082 75.0543-80.482C74.9543-80.182 72.0543-72.982 65.5543-69.082C61.3543-66.682 56.7543-66.182 53.8543-66.182Z"/>
  </g>
  <g id="Light-S" transform="matrix(1 0 0 1 1106.53 696)">
   <path d="M61.2545 15.1479C59.9545 15.1479 58.6545 14.8479 57.3545 14.3479C56.0545 13.9479 54.8545 13.6479 53.7545 13.2479C51.2545 12.4479 49.0545 11.7479 46.2545 11.7479C43.1545 11.7479 41.0545 12.5479 38.2545 13.5479C37.3545 13.8479 36.4545 14.2479 35.4545 14.5479C31.0545 15.9479 25.0545 14.8479 22.5545 10.4479C10.5545-5.15211 4.55448-19.3521 3.55448-34.1521C2.75448-45.4521 6.55448-53.5521 14.7545-58.2521C23.9545-63.5521 33.8545-62.9521 43.2545-56.6521C45.5545-55.0521 46.7545-55.0521 49.3545-56.5521C53.3545-58.7521 58.5545-61.4521 63.9545-61.9521C70.5545-62.6521 76.3545-61.0521 80.8545-57.4521C85.4545-53.6521 88.2545-47.8521 88.8545-40.7521C88.9545-39.7521 88.9545-38.8521 89.0545-37.6521C89.0545-36.8521 89.1545-35.8521 89.1545-34.7521L89.1545-34.6521L89.1545-34.5521C88.0545-18.9521 81.4545-3.65211 69.7545 10.7479C67.5545 13.5479 64.4545 15.1479 61.2545 15.1479ZM48.1545-54.0521C47.9545-53.1521 47.1545-52.6521 46.2545-52.6521C46.0545-52.6521 45.8545-52.6521 45.7545-52.7521C44.7545-53.0521 44.1545-54.1521 44.3545-55.1521C44.3545-55.2521 47.4545-66.4521 42.0545-75.6521C41.5545-76.5521 41.8545-77.7521 42.7545-78.3521C43.6545-78.8521 44.8545-78.5521 45.4545-77.6521C51.6545-66.9521 48.2545-54.5521 48.1545-54.0521ZM52.8545-65.6521C51.1545-65.6521 49.9545-65.8521 49.8545-65.8521C49.2545-65.9521 48.7545-66.2521 48.4545-66.8521C48.1545-67.3521 48.1545-67.9521 48.3545-68.5521C48.4545-68.8521 51.2545-75.9521 57.7545-79.7521C64.2545-83.5521 71.8545-82.4521 72.1545-82.4521C72.7545-82.3521 73.2545-82.0521 73.5545-81.4521C73.8545-80.9521 73.8545-80.3521 73.6545-79.7521C73.5545-79.4521 70.7545-72.3521 64.2545-68.5521C60.2545-66.1521 55.7545-65.6521 52.8545-65.6521Z"/>
  </g>
  <g id="Thin-S" transform="matrix(1 0 0 1 810.17 696)">
   <path d="M60.8546 14.8235C59.5546 14.8235 58.2546 14.5235 57.0546 14.0235C55.7546 13.6235 54.5546 13.3235 53.4546 12.9235C50.8546 12.1235 48.6546 11.4235 45.8546 11.3235C42.6546 11.3235 40.5546 12.1235 37.6546 13.1235C36.7546 13.4235 35.8546 13.7235 34.8546 14.1235C30.5546 15.5235 24.7546 14.4235 22.3546 10.2235C10.4546-5.27651 4.55461-19.3765 3.55461-34.0765C2.75461-45.1765 6.55461-53.1765 14.5546-57.8765C23.6546-63.0765 33.3546-62.4765 42.6546-56.2765C45.0546-54.6765 46.4546-54.5765 49.1546-56.1765C53.1546-58.3765 58.3546-60.9765 63.6546-61.5765C70.1546-62.2765 75.8546-60.6765 80.2546-57.1765C84.7546-53.4765 87.5546-47.7765 88.1546-40.7765L88.1546-40.2765C88.2546-38.7765 88.2546-37.1765 88.4546-34.8765L88.4546-34.7765L88.4546-34.6765C87.2546-18.9765 80.6546-3.77651 68.9546 10.6235C66.9546 13.3235 63.9546 14.8235 60.8546 14.8235ZM45.8546-52.9765C45.7546-52.9765 45.5546-52.9765 45.4546-53.0765C44.6546-53.2765 44.1546-54.1765 44.3546-54.9765C44.3546-55.0765 47.4546-66.3765 41.9546-75.7765C41.5546-76.4765 41.7546-77.4765 42.5546-77.8765C43.2546-78.2765 44.2546-78.0765 44.6546-77.2765C50.7546-66.6765 47.4546-54.5765 47.3546-54.0765C47.1546-53.3765 46.5546-52.9765 45.8546-52.9765ZM51.5546-65.1765C49.8546-65.1765 48.7546-65.3765 48.6546-65.3765C48.1546-65.4765 47.7546-65.7765 47.5546-66.1765C47.2546-66.4765 47.2546-66.9765 47.4546-67.4765C47.5546-67.7765 50.3546-74.7765 56.6546-78.4765C63.0546-82.2765 70.5546-81.1765 70.8546-81.0765C71.3546-80.9765 71.7546-80.6765 71.9546-80.2765C72.1546-79.8765 72.2546-79.3765 72.0546-78.9765C71.9546-78.6765 69.1546-71.6765 62.8546-67.9765C58.8546-65.6765 54.3546-65.1765 51.5546-65.1765Z"/>
  </g>
  <g id="Ultralight-S" transform="matrix(1 0 0 1 513.818 696)">
   <path d="M60.4354 14.5529C59.2354 14.5529 57.9354 14.3529 56.7354 13.7529C55.4354 13.3529 54.2354 13.0529 53.0354 12.6529C50.4354 11.8529 48.2354 11.1529 45.3354 11.0529C42.1354 11.0529 39.9354 11.8529 37.0354 12.9529C36.1354 13.2529 35.2354 13.5529 34.2354 13.9529C30.1354 15.2529 24.5354 14.2529 22.2354 10.1529C10.4354-5.24706 4.53541-19.3471 3.53541-33.9471C2.83541-44.9471 6.43541-52.8471 14.4354-57.3471C23.3354-62.4471 32.9354-61.9471 42.1354-55.7471C44.7354-54.0471 46.2354-54.0471 49.0354-55.6471C52.9354-57.8471 58.1354-60.4471 63.3354-60.9471C69.7354-61.6471 75.3354-60.1471 79.6354-56.5471C84.1354-52.8471 86.7354-47.3471 87.4354-40.4471L87.4354-40.0471C87.5354-38.5471 87.6354-36.8471 87.7354-34.5471L87.7354-34.4471L87.7354-34.3471C86.4354-18.9471 79.9354-3.84706 68.2354 10.4529C66.3354 13.1529 63.4354 14.5529 60.4354 14.5529ZM45.3354-53.2471C45.2354-53.2471 45.1354-53.2471 45.0354-53.2471C44.4354-53.4471 44.0354-54.0471 44.2354-54.6471C44.2354-54.7471 47.4354-66.2471 41.8354-75.7471C41.5354-76.3471 41.7354-77.0471 42.2354-77.3471C42.8354-77.6471 43.5354-77.4471 43.8354-76.9471C49.9354-66.5471 46.6354-54.5471 46.4354-54.0471C46.3354-53.5471 45.8354-53.2471 45.3354-53.2471ZM50.4354-64.6471C48.7354-64.6471 47.6354-64.8471 47.5354-64.8471C47.1354-64.9471 46.8354-65.1471 46.7354-65.4471C46.5354-65.7471 46.5354-66.1471 46.6354-66.4471C46.7354-66.7471 49.4354-73.6471 55.6354-77.2471C61.8354-80.9471 69.2354-79.8471 69.5354-79.8471C69.9354-79.7471 70.2354-79.5471 70.3354-79.2471C70.5354-78.9471 70.5354-78.5471 70.4354-78.2471C70.3354-77.9471 67.6354-71.0471 61.4354-67.4471C57.5354-65.0471 53.1354-64.6471 50.4354-64.6471Z"/>
  </g>
 </g>
</svg>
