<?xml version="1.0" encoding="UTF-8"?>
<!--Generator: Apple Native CoreSVG 175.5-->
<!DOCTYPE svg
PUBLIC "-//W3C//DTD SVG 1.1//EN"
       "http://www.w3.org/Graphics/SVG/1.1/DTD/svg11.dtd">
<svg version="1.1" xmlns="http://www.w3.org/2000/svg" xmlns:xlink="http://www.w3.org/1999/xlink" width="3300" height="2200">
 <!--glyph: "uni10130D.medium", point size: 100.0, font version: "18.0d9e1", template writer version: "84"-->
 <g id="Notes">
  <rect height="2200" id="artboard" style="fill:white;opacity:1" width="3300" x="0" y="0"/>
  <line style="fill:none;stroke:black;opacity:1;stroke-width:0.5;" x1="263" x2="3036" y1="292" y2="292"/>
  <text style="stroke:none;fill:black;font-family:sans-serif;font-size:13;font-weight:bold;" transform="matrix(1 0 0 1 263 322)">Weight/Scale Variations</text>
  <text style="stroke:none;fill:black;font-family:sans-serif;font-size:13;text-anchor:middle;" transform="matrix(1 0 0 1 559.711 322)">Ultralight</text>
  <text style="stroke:none;fill:black;font-family:sans-serif;font-size:13;text-anchor:middle;" transform="matrix(1 0 0 1 856.422 322)">Thin</text>
  <text style="stroke:none;fill:black;font-family:sans-serif;font-size:13;text-anchor:middle;" transform="matrix(1 0 0 1 1153.13 322)">Light</text>
  <text style="stroke:none;fill:black;font-family:sans-serif;font-size:13;text-anchor:middle;" transform="matrix(1 0 0 1 1449.84 322)">Regular</text>
  <text style="stroke:none;fill:black;font-family:sans-serif;font-size:13;text-anchor:middle;" transform="matrix(1 0 0 1 1746.56 322)">Medium</text>
  <text style="stroke:none;fill:black;font-family:sans-serif;font-size:13;text-anchor:middle;" transform="matrix(1 0 0 1 2043.27 322)">Semibold</text>
  <text style="stroke:none;fill:black;font-family:sans-serif;font-size:13;text-anchor:middle;" transform="matrix(1 0 0 1 2339.98 322)">Bold</text>
  <text style="stroke:none;fill:black;font-family:sans-serif;font-size:13;text-anchor:middle;" transform="matrix(1 0 0 1 2636.69 322)">Heavy</text>
  <text style="stroke:none;fill:black;font-family:sans-serif;font-size:13;text-anchor:middle;" transform="matrix(1 0 0 1 2933.4 322)">Black</text>
  <line style="fill:none;stroke:black;opacity:1;stroke-width:0.5;" x1="263" x2="3036" y1="1903" y2="1903"/>
  <g transform="matrix(1 0 0 1 263 1933)">
   <path d="M9.24805 0.830078Q10.8691 0.830078 12.2949 0.214844Q13.7207-0.400391 14.8096-1.49414Q15.8984-2.58789 16.5186-4.01367Q17.1387-5.43945 17.1387-7.05078Q17.1387-8.66211 16.5186-10.0879Q15.8984-11.5137 14.8047-12.6074Q13.7109-13.7012 12.2852-14.3164Q10.8594-14.9316 9.23828-14.9316Q7.62695-14.9316 6.20117-14.3164Q4.77539-13.7012 3.69141-12.6074Q2.60742-11.5137 1.9873-10.0879Q1.36719-8.66211 1.36719-7.05078Q1.36719-5.43945 1.9873-4.01367Q2.60742-2.58789 3.69629-1.49414Q4.78516-0.400391 6.21094 0.214844Q7.63672 0.830078 9.24805 0.830078ZM9.24805-0.654297Q7.91992-0.654297 6.7627-1.14746Q5.60547-1.64062 4.73145-2.51953Q3.85742-3.39844 3.36426-4.56055Q2.87109-5.72266 2.87109-7.05078Q2.87109-8.37891 3.35938-9.54102Q3.84766-10.7031 4.72168-11.582Q5.5957-12.4609 6.75293-12.9541Q7.91016-13.4473 9.23828-13.4473Q10.5762-13.4473 11.7383-12.9541Q12.9004-12.4609 13.7793-11.582Q14.6582-10.7031 15.1514-9.54102Q15.6445-8.37891 15.6445-7.05078Q15.6445-5.72266 15.1514-4.56055Q14.6582-3.39844 13.7793-2.51953Q12.9004-1.64062 11.7432-1.14746Q10.5859-0.654297 9.24805-0.654297ZM5.6543-7.05078Q5.6543-6.72852 5.85938-6.52832Q6.06445-6.32812 6.40625-6.32812L8.51562-6.32812L8.51562-4.20898Q8.51562-3.88672 8.71094-3.67676Q8.90625-3.4668 9.23828-3.4668Q9.56055-3.4668 9.77051-3.67676Q9.98047-3.88672 9.98047-4.20898L9.98047-6.32812L12.0898-6.32812Q12.4219-6.32812 12.627-6.52832Q12.832-6.72852 12.832-7.05078Q12.832-7.38281 12.627-7.58789Q12.4219-7.79297 12.0898-7.79297L9.98047-7.79297L9.98047-9.90234Q9.98047-10.2344 9.77051-10.4443Q9.56055-10.6543 9.23828-10.6543Q8.90625-10.6543 8.71094-10.4443Q8.51562-10.2344 8.51562-9.90234L8.51562-7.79297L6.40625-7.79297Q6.06445-7.79297 5.85938-7.58789Q5.6543-7.38281 5.6543-7.05078Z"/>
  </g>
  <g transform="matrix(1 0 0 1 281.867 1933)">
   <path d="M11.709 2.91016Q13.75 2.91016 15.5518 2.12891Q17.3535 1.34766 18.7305-0.0292969Q20.1074-1.40625 20.8887-3.20801Q21.6699-5.00977 21.6699-7.05078Q21.6699-9.0918 20.8887-10.8936Q20.1074-12.6953 18.7305-14.0723Q17.3535-15.4492 15.5469-16.2305Q13.7402-17.0117 11.6992-17.0117Q9.6582-17.0117 7.85645-16.2305Q6.05469-15.4492 4.68262-14.0723Q3.31055-12.6953 2.5293-10.8936Q1.74805-9.0918 1.74805-7.05078Q1.74805-5.00977 2.5293-3.20801Q3.31055-1.40625 4.6875-0.0292969Q6.06445 1.34766 7.86621 2.12891Q9.66797 2.91016 11.709 2.91016ZM11.709 1.25Q9.98047 1.25 8.47656 0.605469Q6.97266-0.0390625 5.83496-1.17676Q4.69727-2.31445 4.05762-3.81836Q3.41797-5.32227 3.41797-7.05078Q3.41797-8.7793 4.05762-10.2832Q4.69727-11.7871 5.83008-12.9297Q6.96289-14.0723 8.4668-14.7119Q9.9707-15.3516 11.6992-15.3516Q13.4277-15.3516 14.9365-14.7119Q16.4453-14.0723 17.583-12.9297Q18.7207-11.7871 19.3652-10.2832Q20.0098-8.7793 20.0098-7.05078Q20.0098-5.32227 19.3701-3.81836Q18.7305-2.31445 17.5879-1.17676Q16.4453-0.0390625 14.9414 0.605469Q13.4375 1.25 11.709 1.25ZM7.17773-7.05078Q7.17773-6.69922 7.41211-6.47461Q7.64648-6.25 8.01758-6.25L10.8887-6.25L10.8887-3.36914Q10.8887-2.99805 11.1133-2.76855Q11.3379-2.53906 11.6895-2.53906Q12.0605-2.53906 12.29-2.76855Q12.5195-2.99805 12.5195-3.36914L12.5195-6.25L15.4004-6.25Q15.7715-6.25 16.001-6.47461Q16.2305-6.69922 16.2305-7.05078Q16.2305-7.42188 16.001-7.65137Q15.7715-7.88086 15.4004-7.88086L12.5195-7.88086L12.5195-10.752Q12.5195-11.1328 12.29-11.3623Q12.0605-11.5918 11.6895-11.5918Q11.3379-11.5918 11.1133-11.3574Q10.8887-11.123 10.8887-10.752L10.8887-7.88086L8.01758-7.88086Q7.63672-7.88086 7.40723-7.65137Q7.17773-7.42188 7.17773-7.05078Z"/>
  </g>
  <g transform="matrix(1 0 0 1 305.646 1933)">
   <path d="M14.9707 5.66406Q17.0605 5.66406 18.96 5.01465Q20.8594 4.36523 22.4512 3.19336Q24.043 2.02148 25.2197 0.429688Q26.3965-1.16211 27.0459-3.06641Q27.6953-4.9707 27.6953-7.05078Q27.6953-9.14062 27.0459-11.04Q26.3965-12.9395 25.2197-14.5312Q24.043-16.123 22.4512-17.2998Q20.8594-18.4766 18.9551-19.126Q17.0508-19.7754 14.9609-19.7754Q12.8711-19.7754 10.9717-19.126Q9.07227-18.4766 7.48535-17.2998Q5.89844-16.123 4.72168-14.5312Q3.54492-12.9395 2.90039-11.04Q2.25586-9.14062 2.25586-7.05078Q2.25586-4.9707 2.90527-3.06641Q3.55469-1.16211 4.72656 0.429688Q5.89844 2.02148 7.49023 3.19336Q9.08203 4.36523 10.9814 5.01465Q12.8809 5.66406 14.9707 5.66406ZM14.9707 3.84766Q13.1641 3.84766 11.5283 3.2959Q9.89258 2.74414 8.53516 1.74805Q7.17773 0.751953 6.17676-0.610352Q5.17578-1.97266 4.62891-3.6084Q4.08203-5.24414 4.08203-7.05078Q4.08203-8.86719 4.62891-10.5029Q5.17578-12.1387 6.17188-13.501Q7.16797-14.8633 8.52539-15.8594Q9.88281-16.8555 11.5186-17.4023Q13.1543-17.9492 14.9609-17.9492Q16.7773-17.9492 18.4131-17.4023Q20.0488-16.8555 21.4111-15.8594Q22.7734-14.8633 23.7744-13.501Q24.7754-12.1387 25.3223-10.5029Q25.8691-8.86719 25.8691-7.05078Q25.8691-5.24414 25.3223-3.6084Q24.7754-1.97266 23.7793-0.610352Q22.7832 0.751953 21.4209 1.74805Q20.0586 2.74414 18.4229 3.2959Q16.7871 3.84766 14.9707 3.84766ZM9.19922-7.05078Q9.19922-6.66992 9.45801-6.4209Q9.7168-6.17188 10.1172-6.17188L14.0625-6.17188L14.0625-2.2168Q14.0625-1.81641 14.3115-1.55762Q14.5605-1.29883 14.9512-1.29883Q15.3516-1.29883 15.6104-1.55273Q15.8691-1.80664 15.8691-2.2168L15.8691-6.17188L19.8242-6.17188Q20.2246-6.17188 20.4785-6.4209Q20.7324-6.66992 20.7324-7.05078Q20.7324-7.46094 20.4785-7.71484Q20.2246-7.96875 19.8242-7.96875L15.8691-7.96875L15.8691-11.9141Q15.8691-12.3242 15.6104-12.583Q15.3516-12.8418 14.9512-12.8418Q14.5605-12.8418 14.3115-12.583Q14.0625-12.3242 14.0625-11.9141L14.0625-7.96875L10.1172-7.96875Q9.70703-7.96875 9.45312-7.71484Q9.19922-7.46094 9.19922-7.05078Z"/>
  </g>
  <text style="stroke:none;fill:black;font-family:sans-serif;font-size:13;font-weight:bold;" transform="matrix(1 0 0 1 263 1953)">Design Variations</text>
  <text style="stroke:none;fill:black;font-family:sans-serif;font-size:13;" transform="matrix(1 0 0 1 263 1971)">Symbols are supported in up to nine weights and three scales.</text>
  <text style="stroke:none;fill:black;font-family:sans-serif;font-size:13;" transform="matrix(1 0 0 1 263 1989)">For optimal layout with text and other symbols, vertically align</text>
  <text style="stroke:none;fill:black;font-family:sans-serif;font-size:13;" transform="matrix(1 0 0 1 263 2007)">symbols with the adjacent text.</text>
  <line style="fill:none;stroke:#00AEEF;stroke-width:0.5;opacity:1.0;" x1="776" x2="776" y1="1919" y2="1933"/>
  <g transform="matrix(1 0 0 1 776 1933)">
   <path d="M3.31055 0.15625Q3.70117 0.15625 3.91602-0.00976562Q4.13086-0.175781 4.26758-0.585938L5.52734-4.0332L11.2891-4.0332L12.5488-0.585938Q12.6855-0.175781 12.9004-0.00976562Q13.1152 0.15625 13.4961 0.15625Q13.8867 0.15625 14.1162-0.0585938Q14.3457-0.273438 14.3457-0.644531Q14.3457-0.869141 14.2383-1.17188L9.6582-13.3691Q9.48242-13.8184 9.17969-14.043Q8.87695-14.2676 8.4082-14.2676Q7.5-14.2676 7.17773-13.3789L2.59766-1.16211Q2.49023-0.859375 2.49023-0.634766Q2.49023-0.263672 2.70996-0.0537109Q2.92969 0.15625 3.31055 0.15625ZM6.00586-5.51758L8.37891-12.0898L8.42773-12.0898L10.8008-5.51758Z"/>
  </g>
  <line style="fill:none;stroke:#00AEEF;stroke-width:0.5;opacity:1.0;" x1="793.197" x2="793.197" y1="1919" y2="1933"/>
  <text style="stroke:none;fill:black;font-family:sans-serif;font-size:13;font-weight:bold;" transform="matrix(1 0 0 1 776 1953)">Margins</text>
  <text style="stroke:none;fill:black;font-family:sans-serif;font-size:13;" transform="matrix(1 0 0 1 776 1971)">Leading and trailing margins on the left and right side of each symbol</text>
  <text style="stroke:none;fill:black;font-family:sans-serif;font-size:13;" transform="matrix(1 0 0 1 776 1989)">can be adjusted by modifying the x-location of the margin guidelines.</text>
  <text style="stroke:none;fill:black;font-family:sans-serif;font-size:13;" transform="matrix(1 0 0 1 776 2007)">Modifications are automatically applied proportionally to all</text>
  <text style="stroke:none;fill:black;font-family:sans-serif;font-size:13;" transform="matrix(1 0 0 1 776 2025)">scales and weights.</text>
  <g transform="matrix(1 0 0 1 1289 1933)">
   <path d="M2.8418 1.86523L4.54102 3.57422Q5.18555 4.22852 5.90332 4.17969Q6.62109 4.13086 7.31445 3.35938L18.0078-8.42773L17.041-9.4043L6.42578 2.27539Q6.16211 2.57812 5.89355 2.61719Q5.625 2.65625 5.27344 2.30469L4.10156 1.14258Q3.75 0.791016 3.79395 0.522461Q3.83789 0.253906 4.14062-0.0195312L15.6152-10.8203L14.6387-11.7871L3.04688-0.898438Q2.30469-0.214844 2.25098 0.498047Q2.19727 1.21094 2.8418 1.86523ZM9.25781-16.3281Q8.94531-16.0254 8.90625-15.6348Q8.86719-15.2441 9.04297-14.9512Q9.21875-14.6777 9.55566-14.541Q9.89258-14.4043 10.3809-14.5215Q11.4746-14.7754 12.5977-14.7314Q13.7207-14.6875 14.7949-13.9844L14.209-12.5293Q13.9551-11.9043 14.0674-11.4404Q14.1797-10.9766 14.5801-10.5664L16.875-8.25195Q17.2363-7.88086 17.5781-7.82227Q17.9199-7.76367 18.3398-7.8418L19.4043-8.03711L20.0684-7.36328L20.0293-6.80664Q20-6.43555 20.1221-6.12305Q20.2441-5.81055 20.6055-5.44922L21.3672-4.70703Q21.7285-4.3457 22.1533-4.33105Q22.5781-4.31641 22.9297-4.66797L25.8398-7.58789Q26.1914-7.93945 26.1816-8.35449Q26.1719-8.76953 25.8105-9.13086L25.0391-9.89258Q24.6875-10.2539 24.3799-10.3857Q24.0723-10.5176 23.7109-10.4883L23.1348-10.4395L22.4902-11.0742L22.7344-12.1973Q22.832-12.6172 22.6953-12.9834Q22.5586-13.3496 22.1191-13.7891L19.9219-15.9766Q18.6719-17.2168 17.2607-17.8369Q15.8496-18.457 14.4189-18.4814Q12.9883-18.5059 11.665-17.959Q10.3418-17.4121 9.25781-16.3281ZM10.752-15.957Q11.6602-16.6211 12.7002-16.9043Q13.7402-17.1875 14.8047-17.085Q15.8691-16.9824 16.8701-16.5137Q17.8711-16.0449 18.7012-15.2051L21.1328-12.793Q21.3086-12.6172 21.3525-12.4512Q21.3965-12.2852 21.3379-12.0312L21.0156-10.5469L22.5195-9.0625L23.5059-9.12109Q23.6914-9.13086 23.7891-9.09668Q23.8867-9.0625 24.0332-8.91602L24.6094-8.33984L22.168-5.89844L21.5918-6.47461Q21.4453-6.62109 21.4062-6.71875Q21.3672-6.81641 21.377-7.01172L21.4453-7.98828L19.9512-9.47266L18.4277-9.21875Q18.1836-9.16992 18.042-9.2041Q17.9004-9.23828 17.7148-9.41406L15.7129-11.416Q15.5176-11.5918 15.4932-11.7529Q15.4688-11.9141 15.5859-12.1875L16.4648-14.2773Q15.293-15.3711 13.8281-15.791Q12.3633-16.2109 10.8398-15.7617Q10.7227-15.7324 10.6885-15.8057Q10.6543-15.8789 10.752-15.957Z"/>
  </g>
  <text style="stroke:none;fill:black;font-family:sans-serif;font-size:13;font-weight:bold;" transform="matrix(1 0 0 1 1289 1953)">Exporting</text>
  <text style="stroke:none;fill:black;font-family:sans-serif;font-size:13;" transform="matrix(1 0 0 1 1289 1971)">Symbols should be outlined when exporting to ensure the</text>
  <text style="stroke:none;fill:black;font-family:sans-serif;font-size:13;" transform="matrix(1 0 0 1 1289 1989)">design is preserved when submitting to Xcode.</text>
  <text id="template-version" style="stroke:none;fill:black;font-family:sans-serif;font-size:13;text-anchor:end;" transform="matrix(1 0 0 1 3036 1933)">Template v.2.0</text>
  <text style="stroke:none;fill:black;font-family:sans-serif;font-size:13;text-anchor:end;" transform="matrix(1 0 0 1 3036 1951)">Requires Xcode 12 or greater</text>
  <text id="descriptive-name" style="stroke:none;fill:black;font-family:sans-serif;font-size:13;text-anchor:end;" transform="matrix(1 0 0 1 3036 1969)">Generated from figure.stair.stepper</text>
  <text style="stroke:none;fill:black;font-family:sans-serif;font-size:13;text-anchor:end;" transform="matrix(1 0 0 1 3036 1987)">Typeset at 100 points</text>
  <text style="stroke:none;fill:black;font-family:sans-serif;font-size:13;" transform="matrix(1 0 0 1 263 726)">Small</text>
  <text style="stroke:none;fill:black;font-family:sans-serif;font-size:13;" transform="matrix(1 0 0 1 263 1156)">Medium</text>
  <text style="stroke:none;fill:black;font-family:sans-serif;font-size:13;" transform="matrix(1 0 0 1 263 1586)">Large</text>
 </g>
 <g id="Guides">
  <g id="H-reference" style="fill:#27AAE1;stroke:none;" transform="matrix(1 0 0 1 339 696)">
   <path d="M0.993347 0L3.6377 0L29.3282-67.1326L30.0301-67.1326L30.0301-70.459L28.1227-70.459ZM11.6882-24.4797L46.9818-24.4797L46.2311-26.7288L12.4382-26.7288ZM55.1193 0L57.7637 0L30.6381-70.459L29.4327-70.459L29.4327-67.1326Z"/>
  </g>
  <line id="Baseline-S" style="fill:none;stroke:#27AAE1;opacity:1;stroke-width:0.5;" x1="263" x2="3036" y1="696" y2="696"/>
  <line id="Capline-S" style="fill:none;stroke:#27AAE1;opacity:1;stroke-width:0.5;" x1="263" x2="3036" y1="625.541" y2="625.541"/>
  <g id="H-reference" style="fill:#27AAE1;stroke:none;" transform="matrix(1 0 0 1 339 1126)">
   <path d="M0.993347 0L3.6377 0L29.3282-67.1326L30.0301-67.1326L30.0301-70.459L28.1227-70.459ZM11.6882-24.4797L46.9818-24.4797L46.2311-26.7288L12.4382-26.7288ZM55.1193 0L57.7637 0L30.6381-70.459L29.4327-70.459L29.4327-67.1326Z"/>
  </g>
  <line id="Baseline-M" style="fill:none;stroke:#27AAE1;opacity:1;stroke-width:0.5;" x1="263" x2="3036" y1="1126" y2="1126"/>
  <line id="Capline-M" style="fill:none;stroke:#27AAE1;opacity:1;stroke-width:0.5;" x1="263" x2="3036" y1="1055.54" y2="1055.54"/>
  <g id="H-reference" style="fill:#27AAE1;stroke:none;" transform="matrix(1 0 0 1 339 1556)">
   <path d="M0.993347 0L3.6377 0L29.3282-67.1326L30.0301-67.1326L30.0301-70.459L28.1227-70.459ZM11.6882-24.4797L46.9818-24.4797L46.2311-26.7288L12.4382-26.7288ZM55.1193 0L57.7637 0L30.6381-70.459L29.4327-70.459L29.4327-67.1326Z"/>
  </g>
  <line id="Baseline-L" style="fill:none;stroke:#27AAE1;opacity:1;stroke-width:0.5;" x1="263" x2="3036" y1="1556" y2="1556"/>
  <line id="Capline-L" style="fill:none;stroke:#27AAE1;opacity:1;stroke-width:0.5;" x1="263" x2="3036" y1="1485.54" y2="1485.54"/>
  <line id="left-margin" style="fill:none;stroke:#00AEEF;stroke-width:0.5;opacity:1.0;" x1="1397.13" x2="1397.13" y1="1030.79" y2="1150.12"/>
  <line id="right-margin" style="fill:none;stroke:#00AEEF;stroke-width:0.5;opacity:1.0;" x1="1502.56" x2="1502.56" y1="1030.79" y2="1150.12"/>
 </g>
 <g id="Symbols">
  <g id="Black-L" transform="matrix(1 0 0 1 2861.23 1556)">
   <path d="M55.9809-88.0267Q62.3844-88.0267 66.9283-92.5998Q71.4722-97.1728 71.4722-103.518Q71.4722-109.942 66.9283-114.476Q62.3844-119.009 55.9809-119.009Q49.615-119.009 45.0523-114.476Q40.4896-109.942 40.4896-103.518Q40.4896-97.1728 45.0523-92.5998Q49.615-88.0267 55.9809-88.0267ZM65.9959 14.2113Q68.6345 14.539 71.1256 13.1533Q73.6168 11.7676 74.6182 8.42599L83.5032-21.419Q84.5618-24.9946 83.1749-27.8495Q81.788-30.7043 78.4304-31.9226L56.2228-39.8954L59.4776-62.4024Q59.6605-63.5552 60.7769-63.0003L72.019-57.8617Q73.2396-57.3208 74.4293-57.0906Q75.619-56.8603 77.1226-56.7007L106.324-53.6935Q109.559-53.3939 112.085-55.3905Q114.611-57.3872 114.829-60.6215Q115.128-63.7742 113.092-66.2892Q111.056-68.8041 107.843-69.1038L78.2332-72.0526L55.8864-82.2659Q50.7608-84.5881 45.8478-83.8181Q40.9349-83.0481 37.5034-79.7555Q34.072-76.4629 33.3715-71.2205L29.6417-43.0631Q28.8011-36.4571 32.5134-31.0726Q36.2257-25.6881 42.6721-24.1482L66.5749-18.6076L59.7048 3.91377Q58.4073 8.26037 60.6562 10.985Q62.9051 13.7096 65.9959 14.2113ZM19.842 34.84Q22.2786 36.1167 25.3515 35.5862Q28.4244 35.0557 30.6417 31.8017L48.4921 5.12592Q49.1135 4.1489 49.5508 3.04945Q49.9881 1.95 50.1489 0.687692L52.5679-14.1338L40.9801-16.77Q38.083-17.507 35.7233-18.6472L34.5766-1.96168L17.764 23.2158Q15.2654 26.9338 16.3038 30.139Q17.3423 33.3441 19.842 34.84ZM127.689-75.7416Q126.62-77.9197 124.405-78.7004Q122.19-79.4812 119.974-78.4142Q118.312-77.6124 116.737-76.8086Q115.161-76.0047 113.585-75.2429Q119.532-72.4643 121.601-66.2865Q122.443-66.7499 123.315-67.2272Q124.187-67.7046 125.116-68.1507Q127.194-69.2189 127.974-71.4522Q128.755-73.6855 127.689-75.7416ZM37.3781 48.6283L62.0631 48.6283Q64.4164 48.6283 66.087 46.9577Q67.7575 45.2872 67.7575 42.9338L67.7575 33.2893L86.8028 33.2893Q89.0769 33.2893 90.7871 31.5791Q92.4973 29.869 92.4973 27.4948L92.4973 17.7919L102.43 17.7919Q104.704 17.7919 106.375 16.161Q108.046 14.53 108.125 12.2143L110.491-48.2059Q108.845-48.2035 108.339-48.2017Q107.833-48.1999 107.259-48.1975Q105.103-48.1927 103.013-48.4358Q100.923-48.6789 99.0801-48.9142L96.8515 6.30294L86.8028 6.30294Q84.3703 6.30294 82.7289 7.94431Q81.0875 9.58568 81.0875 12.0182L81.0875 21.8004L62.0631 21.8004Q59.6305 21.8004 57.9885 23.4709Q56.3466 25.1415 56.3466 27.4948L56.3466 37.2173L37.3781 37.2173Q35.0248 37.2173 33.3146 38.9281Q31.6044 40.6389 31.6044 42.9338Q31.6044 45.2079 33.3542 46.9181Q35.104 48.6283 37.3781 48.6283Z"/>
  </g>
  <g id="Heavy-L" transform="matrix(1 0 0 1 2565.6 1556)">
   <path d="M55.2171-87.2363Q61.4287-87.2363 65.8518-91.6817Q70.2749-96.1271 70.2749-102.294Q70.2749-108.536 65.8518-112.944Q61.4287-117.352 55.2171-117.352Q49.0198-117.352 44.5895-112.944Q40.1592-108.536 40.1592-102.294Q40.1592-96.1271 44.5895-91.6817Q49.0198-87.2363 55.2171-87.2363ZM65.0665 13.3646Q67.5948 13.7143 69.9914 12.4017Q72.388 11.0891 73.3618 7.86709L82.1338-21.6072Q83.1466-25.0366 81.8284-27.7564Q80.5101-30.4762 77.2805-31.6443L55.1645-39.5911L58.4248-62.1399Q58.6215-63.5 59.9728-62.8529L71.1529-57.7453Q72.3323-57.2182 73.4809-56.9948Q74.6295-56.7714 76.1105-56.6162L104.941-53.6543Q108.025-53.3684 110.436-55.2736Q112.848-57.1787 113.048-60.2619Q113.333-63.2591 111.391-65.6527Q109.448-68.0464 106.401-68.3323L77.1108-71.2496L55.0167-81.3686Q50.0234-83.6268 45.2519-82.8819Q40.4803-82.137 37.154-78.9357Q33.8277-75.7344 33.1453-70.6518L29.4652-42.8608Q28.6522-36.428 32.2572-31.1918Q35.8622-25.9556 42.1398-24.4659L66.0018-18.9562L59.1394 3.5655Q57.8965 7.68381 60.0136 10.2852Q62.1307 12.8866 65.0665 13.3646ZM19.6811 33.7947Q22.0172 35.0074 24.9368 34.4954Q27.8564 33.9834 29.9872 30.8755L47.6114 4.52955Q48.2189 3.60271 48.6243 2.54684Q49.0296 1.49097 49.1904 0.251271L51.6602-14.9159L40.5576-17.433Q37.7747-18.1242 35.5021-19.2231L34.346-2.2332L17.7044 22.6832Q15.3068 26.2546 16.2923 29.3156Q17.2778 32.3765 19.6811 33.7947ZM125.575-74.9275Q124.606-76.9147 122.607-77.6158Q120.608-78.3169 118.606-77.3591Q116.787-76.4718 115.191-75.6559Q113.596-74.8399 112.045-74.0726Q117.367-71.5079 119.328-66.018Q120.205-66.505 121.151-67.024Q122.098-67.5429 123.242-68.1109Q125.125-69.0744 125.826-71.0777Q126.527-73.081 125.575-74.9275ZM36.6 46.9622L60.9601 46.9622Q63.0812 46.9622 64.5833 45.4601Q66.0854 43.958 66.0854 41.8368L66.0854 31.7555L85.3478 31.7555Q87.3942 31.7555 88.9337 30.216Q90.4731 28.6766 90.4731 26.5253L90.4731 16.3993L101.274 16.3993Q103.32 16.3993 104.823 14.9346Q106.325 13.4699 106.399 11.3633L108.729-48.1504Q107.377-48.1392 106.912-48.1307Q106.447-48.1223 105.927-48.1111Q103.976-48.0886 102.059-48.2911Q100.141-48.4936 98.4428-48.7069L96.2325 6.0437L85.3478 6.0437Q83.1519 6.0437 81.6721 7.52347Q80.1924 9.00323 80.1924 11.1992L80.1924 21.4L60.9601 21.4Q58.7641 21.4 57.2815 22.9021Q55.799 24.4041 55.799 26.5253L55.799 36.6757L36.6 36.6757Q34.4789 36.6757 32.9394 38.218Q31.4 39.7603 31.4 41.8368Q31.4 43.8832 32.9769 45.4227Q34.5537 46.9622 36.6 46.9622Z"/>
  </g>
  <g id="Bold-L" transform="matrix(1 0 0 1 2270.31 1556)">
   <path d="M54.2422-86.2157Q60.223-86.2157 64.4963-90.5036Q68.7696-94.7914 68.7696-100.743Q68.7696-106.762 64.4963-111.016Q60.223-115.271 54.2422-115.271Q48.2524-115.271 43.9834-111.016Q39.7145-106.762 39.7145-100.743Q39.7145-94.7914 43.9834-90.5036Q48.2524-86.2157 54.2422-86.2157ZM63.8394 12.2301Q66.2444 12.6178 68.5406 11.3936Q70.8368 10.1695 71.7798 7.0786L80.3985-21.8899Q81.3574-25.1425 80.12-27.7045Q78.8826-30.2665 75.8067-31.3731L53.8656-39.2667L57.1186-61.7873Q57.3307-63.3712 58.9368-62.6239L70.0102-57.5695Q71.1432-57.0578 72.2419-56.8421Q73.3406-56.6265 74.7909-56.479L103.116-53.5784Q106.022-53.3079 108.299-55.1053Q110.576-56.9027 110.753-59.8088Q111.023-62.6213 109.192-64.8725Q107.361-67.1238 104.506-67.3942L75.6679-70.2656L53.926-80.247Q49.0942-82.4283 44.4956-81.7142Q39.8969-81 36.6975-77.9102Q33.4981-74.8204 32.8388-69.93L29.2276-42.6372Q28.4454-36.4195 31.9197-31.3639Q35.3941-26.3084 41.4641-24.8801L65.2053-19.4238L58.373 3.02334Q57.1993 6.86485 59.1475 9.31639Q61.0956 11.7679 63.8394 12.2301ZM19.5037 32.3844Q21.7167 33.5202 24.4555 33.0275Q27.1944 32.5349 29.2176 29.6038L46.5351 3.70984Q47.1273 2.84448 47.4941 1.83871Q47.861 0.832939 48.0218-0.376111L50.5458-15.9139L40.0127-18.2924Q37.3682-18.9297 35.1958-19.9823L34.0318-2.66806L17.635 21.8734Q15.353 25.2753 16.2807 28.1669Q17.2084 31.0585 19.5037 32.3844ZM122.813-73.8911Q121.967-75.6326 120.24-76.2339Q118.514-76.8351 116.781-76.0155Q114.733-75.0058 113.14-74.1857Q111.547-73.3656 110.064-72.6054Q114.604-70.3097 116.411-65.6801Q117.297-66.1829 118.313-66.7444Q119.329-67.3058 120.78-68.0423Q122.417-68.8753 123.018-70.5905Q123.619-72.3058 122.813-73.8911ZM35.6841 44.8655L59.5924 44.8655Q61.4217 44.8655 62.7125 43.5747Q64.0034 42.2838 64.0034 40.4545L64.0034 29.8202L83.49 29.8202Q85.2522 29.8202 86.5766 28.4958Q87.901 27.1714 87.901 25.3042L87.901 14.6407L99.9565 14.6407Q101.719 14.6407 103.01 13.3834Q104.3 12.1261 104.368 10.2881L106.651-48.1633Q105.638-48.1368 105.223-48.117Q104.808-48.0971 104.357-48.0706Q102.667-48.0177 100.976-48.1628Q99.2846-48.3078 97.778-48.4831L95.5908 5.71355L83.49 5.71355Q81.5936 5.71355 80.3173 6.98978Q79.0411 8.26601 79.0411 10.1626L79.0411 20.8932L59.5924 20.8932Q57.6959 20.8932 56.413 22.1841Q55.1301 23.4749 55.1301 25.3042L55.1301 35.9923L35.6841 35.9923Q33.8548 35.9923 32.5304 37.3233Q31.2061 38.6544 31.2061 40.4545Q31.2061 42.2165 32.5641 43.541Q33.9221 44.8655 35.6841 44.8655Z"/>
  </g>
  <g id="Semibold-L" transform="matrix(1 0 0 1 1974.58 1556)">
   <path d="M53.57-85.5121Q59.3919-85.5121 63.5618-89.6913Q67.7318-93.8706 67.7318-99.6738Q67.7318-105.539 63.5618-109.687Q59.3919-113.836 53.57-113.836Q47.7233-113.836 43.5656-109.687Q39.408-105.539 39.408-99.6738Q39.408-93.8706 43.5656-89.6913Q47.7233-85.5121 53.57-85.5121ZM62.9935 11.448Q65.3135 11.8619 67.5404 10.6987Q69.7674 9.5355 70.6891 6.53501L79.2022-22.0849Q80.1239-25.2154 78.9422-27.6687Q77.7606-30.1219 74.7908-31.1861L52.9702-39.0431L56.2181-61.5443Q56.4408-63.2824 58.2225-62.466L69.2224-57.4483Q70.3235-56.9473 71.3878-56.7369Q72.4521-56.5266 73.8812-56.3844L101.858-53.526Q104.642-53.2662 106.826-54.9893Q109.01-56.7124 109.171-59.4964Q109.431-62.1816 107.677-64.3347Q105.923-66.4877 103.2-66.7475L74.6732-69.5873L53.174-79.4738Q48.4536-81.6021 43.9742-80.9091Q39.4947-80.2162 36.3828-77.2032Q33.2709-74.1903 32.6276-69.4324L29.0637-42.483Q28.3028-36.4136 31.6871-31.4826Q35.0713-26.5516 40.9982-25.1657L64.6563-19.7462L57.8447 2.64957Q56.7187 6.30027 58.5504 8.64848Q60.3821 10.9967 62.9935 11.448ZM19.3815 31.4122Q21.5096 32.495 24.1238 32.0156Q26.7379 31.5363 28.687 28.7271L45.7932 3.14473Q46.3747 2.32176 46.715 1.35053Q47.0554 0.379296 47.2162-0.808625L49.7775-16.602L39.6371-18.8849Q37.0879-19.485 34.9846-20.5057L33.8152-2.96785L17.5872 21.315Q15.3849 24.6002 16.2727 27.3751Q17.1605 30.1499 19.3815 31.4122ZM120.909-73.1766Q120.148-74.7488 118.609-75.2812Q117.071-75.8136 115.523-75.0892Q113.316-73.9951 111.726-73.1722Q110.135-72.3492 108.699-71.594Q112.699-69.4836 114.401-65.4471Q115.292-65.9609 116.357-66.5516Q117.421-67.1424 119.083-67.995Q120.55-68.738 121.082-70.2547Q121.615-71.7714 120.909-73.1766ZM35.0527 43.4201L58.6495 43.4201Q60.2776 43.4201 61.4228 42.2749Q62.568 41.1296 62.568 39.5015L62.568 28.486L82.2092 28.486Q83.7756 28.486 84.9517 27.3099Q86.1278 26.1338 86.1278 24.4624L86.1278 13.4284L99.0482 13.4284Q100.615 13.4284 101.76 12.3141Q102.905 11.1998 102.967 9.54696L105.219-48.1722Q104.439-48.1352 104.058-48.1074Q103.678-48.0797 103.275-48.0427Q101.765-47.9688 100.23-48.0743Q98.6943-48.1798 97.3198-48.3288L95.1485 5.48594L82.2092 5.48594Q80.5193 5.48594 79.3834 6.62186Q78.2474 7.75778 78.2474 9.44803L78.2474 20.5439L58.6495 20.5439Q56.9595 20.5439 55.8143 21.6891Q54.6691 22.8343 54.6691 24.4624L54.6691 35.5211L35.0527 35.5211Q33.4246 35.5211 32.2485 36.7065Q31.0724 37.8919 31.0724 39.5015Q31.0724 41.0675 32.2795 42.2438Q33.4867 43.4201 35.0527 43.4201Z"/>
  </g>
  <g id="Medium-L" transform="matrix(1 0 0 1 1678.61 1556)">
   <path d="M53.0604-84.9786Q58.7617-84.9786 62.8533-89.0755Q66.9449-93.1723 66.9449-98.8631Q66.9449-104.612 62.8533-108.68Q58.7617-112.748 53.0604-112.748Q47.3221-112.748 43.2488-108.68Q39.1756-104.612 39.1756-98.8631Q39.1756-93.1723 43.2488-89.0755Q47.3221-84.9786 53.0604-84.9786ZM62.3521 10.8549Q64.6076 11.2887 66.782 10.1718Q68.9565 9.05481 69.8622 6.12285L78.2951-22.2327Q79.1886-25.2708 78.0492-27.6415Q76.9098-30.0123 74.0204-31.0444L52.2912-38.8735L55.5353-61.36Q55.7661-63.2151 57.681-62.3463L68.625-57.3565Q69.702-56.8634 70.7402-56.6571Q71.7783-56.4508 73.1915-56.3126L100.904-53.4863Q103.595-53.2345 105.709-54.9013Q107.823-56.5681 107.971-59.2595Q108.223-61.8483 106.527-63.9268Q104.832-66.0054 102.21-66.2572L73.9189-69.073L52.6039-78.8876Q47.9679-80.9756 43.5788-80.2987Q39.1898-79.6219 36.1442-76.6672Q33.0986-73.7125 32.4673-69.0551L28.9395-42.3662Q28.1947-36.4092 31.5106-31.5726Q34.8266-26.736 40.645-25.3822L64.24-19.9906L57.4441 2.36617Q56.3542 5.87218 58.0977 8.14204Q59.8411 10.4119 62.3521 10.8549ZM19.2887 30.675Q21.3525 31.7176 23.8722 31.2483Q26.3918 30.7791 28.2847 28.0623L45.2306 2.71625Q45.804 1.92542 46.1243 0.980372Q46.4445 0.0353255 46.6054-1.13657L49.1949-17.1236L39.3522-19.3342Q36.8755-19.906 34.8245-20.9026L33.651-3.19516L17.551 20.8917Q15.4091 24.0883 16.2667 26.7746Q17.1242 29.461 19.2887 30.675ZM119.465-72.6349Q118.768-74.0786 117.372-74.5588Q115.977-75.039 114.57-74.3869Q112.243-73.2288 110.654-72.4037Q109.065-71.5786 107.664-70.8271Q111.254-68.8572 112.876-65.2705Q113.772-65.7925 114.873-66.4055Q115.974-67.0185 117.796-67.9592Q119.135-68.6339 119.615-70Q120.095-71.3661 119.465-72.6349ZM34.574 42.3241L57.9345 42.3241Q59.4101 42.3241 60.4449 41.2893Q61.4797 40.2545 61.4797 38.7789L61.4797 27.4744L81.2381 27.4744Q82.6559 27.4744 83.7196 26.4107Q84.7833 25.347 84.7833 23.8242L84.7833 12.5091L98.3595 12.5091Q99.7773 12.5091 100.812 11.5032Q101.847 10.4973 101.905 8.98497L104.133-48.1789Q103.53-48.134 103.175-48.1002Q102.821-48.0665 102.454-48.0215Q101.081-47.9317 99.6636-48.0072Q98.2466-48.0826 96.9723-48.2118L94.8131 5.31336L81.2381 5.31336Q79.7047 5.31336 78.6752 6.34289Q77.6456 7.37242 77.6456 8.90617L77.6456 20.279L57.9345 20.279Q56.4012 20.279 55.3603 21.3138Q54.3195 22.3486 54.3195 23.8242L54.3195 35.1638L34.574 35.1638Q33.0984 35.1638 32.0347 36.2388Q30.971 37.3138 30.971 38.7789Q30.971 40.1963 32.0638 41.2602Q33.1565 42.3241 34.574 42.3241Z"/>
  </g>
  <g id="Regular-L" transform="matrix(1 0 0 1 1382.87 1556)">
   <path d="M52.3957-84.2827Q57.9396-84.2827 61.9291-88.2722Q65.9185-92.2616 65.9185-97.8056Q65.9185-103.402 61.9291-107.365Q57.9396-111.328 52.3957-111.328Q46.7988-111.328 42.8356-107.365Q38.8724-103.402 38.8724-97.8056Q38.8724-92.2616 42.8356-88.2722Q46.7988-84.2827 52.3957-84.2827ZM61.5155 10.0814Q63.6869 10.5411 65.7929 9.48446Q67.8989 8.42781 68.7835 5.58524L77.1119-22.4255Q77.9687-25.3429 76.8844-27.6061Q75.8001-29.8693 73.0156-30.8595L51.4056-38.6524L54.6447-61.1196Q54.886-63.1274 56.9746-62.1902L67.8459-57.2366Q68.8913-56.7541 69.8954-56.553Q70.8995-56.352 72.2918-56.219L99.6591-53.4345Q102.23-53.1933 104.252-54.7866Q106.274-56.3799 106.407-58.9506Q106.648-61.4134 105.028-63.3949Q103.409-65.3764 100.918-65.6176L72.9352-68.4021L51.8602-78.1229Q47.3343-80.1585 43.0632-79.5026Q38.792-78.8466 35.8329-75.968Q32.8739-73.0893 32.2584-68.563L28.7775-42.2137Q28.0537-36.4034 31.2805-31.6899Q34.5074-26.9765 40.1843-25.6646L63.697-20.3094L56.9216 1.99651Q55.8789 5.31381 57.5071 7.48148Q59.1354 9.64915 61.5155 10.0814ZM19.1678 29.7134Q21.1477 30.7036 23.5441 30.2475Q25.9404 29.7915 27.7599 27.1953L44.4968 2.15735Q45.0597 1.40845 45.3537 0.497557Q45.6478-0.413332 45.8086-1.56434L48.4351-17.8041L38.9807-19.9202Q36.5983-20.4552 34.6157-21.4203L33.4368-3.49166L17.5037 20.3395Q15.4406 23.4206 16.2588 25.9915Q17.0769 28.5624 19.1678 29.7134ZM117.582-71.9282Q116.969-73.2044 115.759-73.6165Q114.549-74.0287 113.325-73.4708Q110.842-72.2293 109.255-71.4013Q107.668-70.5734 106.314-69.8268Q109.37-68.0402 110.887-65.0401Q111.79-65.5729 112.938-66.2149Q114.086-66.8568 116.117-67.9124Q117.288-68.4982 117.7-69.6679Q118.112-70.8376 117.582-71.9282ZM33.9495 40.8945L57.002 40.8945Q58.2786 40.8945 59.1694 40.0038Q60.0602 39.113 60.0602 37.8364L60.0602 26.1548L79.9714 26.1548Q81.1955 26.1548 82.1125 25.2378Q83.0295 24.3208 83.0295 22.9916L83.0295 11.3101L97.4611 11.3101Q98.6852 11.3101 99.576 10.4456Q100.467 9.58111 100.519 8.25194L102.716-48.1877Q102.344-48.1324 102.024-48.0908Q101.703-48.0492 101.384-47.9939Q100.188-47.8834 98.9254-47.9197Q97.6627-47.956 96.519-48.0592L94.3756 5.08825L79.9714 5.08825Q78.6422 5.08825 77.7515 5.97901Q76.8607 6.86977 76.8607 8.1994L76.8607 19.9335L57.002 19.9335Q55.6729 19.9335 54.7682 20.8242Q53.8635 21.715 53.8635 22.9916L53.8635 34.6978L33.9495 34.6978Q32.6729 34.6978 31.7558 35.6288Q30.8388 36.5598 30.8388 37.8364Q30.8388 39.06 31.7823 39.9773Q32.7259 40.8945 33.9495 40.8945Z"/>
  </g>
  <g id="Light-L" transform="matrix(1 0 0 1 1087.61 1556)">
   <path d="M51.537-83.3095Q56.9665-83.3095 60.8509-87.194Q64.7353-91.0784 64.7353-96.5079Q64.7353-101.971 60.8509-105.838Q56.9665-109.706 51.537-109.706Q46.0735-109.706 42.2057-105.838Q38.3379-101.971 38.3379-96.5079Q38.3379-91.0784 42.2057-87.194Q46.0735-83.3095 51.537-83.3095ZM60.1797 8.74556Q62.351 9.30048 64.4952 8.29162Q66.6393 7.28275 67.5239 4.42094L75.6616-22.9407Q76.4991-25.7627 75.4435-27.9782Q74.3879-30.1938 71.6797-31.1458L50.585-38.7669L53.7286-60.6999Q53.9699-62.6502 56.0014-61.7323L66.6052-56.9121Q67.6507-56.4296 68.6263-56.2285Q69.6018-56.0275 70.9559-55.9138L97.6743-53.2056Q100.188-52.9643 102.162-54.5195Q104.136-56.0746 104.25-58.5879Q104.491-60.9744 102.919-62.9081Q101.348-64.8418 98.9139-65.0831L71.5993-67.7913L51.0204-77.2831Q46.5901-79.2805 42.4238-78.6437Q38.2575-78.0068 35.3653-75.195Q32.473-72.3832 31.8768-67.9521L28.4911-42.2329Q27.7674-36.5753 30.9179-31.9666Q34.0684-27.358 39.6116-26.0844L62.59-20.8629L55.9673 0.908525Q54.982 4.07319 56.4575 6.15508Q57.9329 8.23698 60.1797 8.74556ZM19.1871 27.9956Q21.0903 28.9477 23.42 28.4822Q25.7496 28.0167 27.4928 25.5157L43.8478 1.06937Q44.4107 0.358619 44.6857-0.54265Q44.9606-1.44392 45.1215-2.55677L47.729-18.6821L38.4654-20.76Q36.1593-21.2758 34.1959-22.2408L33.036-4.42669L17.4844 18.8125Q15.4406 21.8554 16.2684 24.3691Q17.0961 26.8828 19.1871 27.9956ZM114.757-71.0314Q114.221-72.0783 113.23-72.4141Q112.24-72.7499 111.226-72.3065Q108.361-70.8742 106.955-70.1131Q105.55-69.352 104.482-68.7006Q106.927-67.1241 108.215-64.773Q108.908-65.2295 109.961-65.8427Q111.013-66.456 113.503-67.7405Q114.483-68.2311 114.818-69.1813Q115.154-70.1315 114.757-71.0314ZM33.625 39.2342L56.0477 39.2342Q57.0954 39.2342 57.8239 38.5057Q58.5524 37.7772 58.5524 36.7295L58.5524 24.5897L78.3299 24.5897Q79.3443 24.5897 80.0895 23.8446Q80.8346 23.0994 80.8346 22.0184L80.8346 9.87868L97.2893 9.87868Q98.3037 9.87868 99.0322 9.16682Q99.7607 8.45496 99.794 7.37399L101.952-48.7222Q101.657-48.6288 101.365-48.5585Q101.073-48.4882 100.811-48.3948Q99.8447-48.2079 98.8205-48.1582Q97.7964-48.1086 96.8625-48.1166L94.7382 4.80191L78.3299 4.80191Q77.249 4.80191 76.5205 5.53041Q75.7919 6.25892 75.7919 7.34068L75.7919 19.5137L56.0477 19.5137Q54.9668 19.5137 54.2147 20.2422Q53.4626 20.9708 53.4626 22.0184L53.4626 34.1444L33.625 34.1444Q32.5773 34.1444 31.8321 34.9131Q31.087 35.6818 31.087 36.7295Q31.087 37.7431 31.8492 38.4886Q32.6114 39.2342 33.625 39.2342Z"/>
  </g>
  <g id="Thin-L" transform="matrix(1 0 0 1 792.812 1556)">
   <path d="M50.4013-82.0224Q55.6793-82.0224 59.4249-85.768Q63.1704-89.5135 63.1704-94.7916Q63.1704-100.077 59.4249-103.819Q55.6793-107.561 50.4013-107.561Q45.1142-107.561 41.3725-103.819Q37.6309-100.077 37.6309-94.7916Q37.6309-89.5135 41.3725-85.768Q45.1142-82.0224 50.4013-82.0224ZM58.4129 6.97879Q60.5842 7.65967 62.7789 6.71399Q64.9735 5.76832 65.8581 2.88105L73.7434-23.6223Q74.5555-26.3178 73.5379-28.4704Q72.5202-30.623 69.9129-31.5245L49.4997-38.9183L52.517-60.1447Q52.7582-62.0192 54.7143-61.1267L64.9644-56.4829Q66.0099-56.0004 66.9477-55.7994Q67.8855-55.5983 69.1892-55.51L95.0491-52.9028Q97.4865-52.6615 99.3978-54.1662Q101.309-55.6709 101.397-58.1083Q101.639-60.3938 100.13-62.2644Q98.6214-64.1349 96.2633-64.3761L69.8325-66.9834L49.9097-76.1724Q45.6057-78.1194 41.5781-77.5078Q37.5505-76.8961 34.7467-74.1728Q31.9429-71.4494 31.3721-67.1442L28.1124-42.2584Q27.3886-36.8026 30.4382-32.3326Q33.4878-27.8627 38.8541-26.6395L61.1261-21.5948L54.7052-0.530422Q53.7958 2.43237 55.0692 4.40082Q56.3426 6.36927 58.4129 6.97879ZM19.2125 25.7238Q21.0144 26.6253 23.2558 26.1473Q25.4973 25.6693 27.1395 23.2943L42.9894-0.369582Q43.5523-1.02986 43.8021-1.91841Q44.0518-2.80695 44.2126-3.86933L46.7951-19.8432L37.7839-21.8707Q35.5787-22.361 33.6408-23.3261L32.5059-5.66335L17.459 16.793Q15.4406 19.7854 16.2811 22.2234Q17.1216 24.6614 19.2125 25.7238ZM111.022-69.8452Q110.586-70.5888 109.886-70.8237Q109.185-71.0586 108.45-70.7666Q105.079-69.082 103.913-68.4093Q102.748-67.7366 102.058-67.2112Q103.696-65.9125 104.681-64.4197Q105.097-64.7752 106.023-65.3506Q106.949-65.9259 110.045-67.5132Q110.772-67.8778 111.007-68.5377Q111.241-69.1976 111.022-69.8452ZM33.1958 37.0382L54.7856 37.0382Q55.5305 37.0382 56.0444 36.5243Q56.5584 36.0104 56.5584 35.2655L56.5584 22.5197L76.159 22.5197Q76.896 22.5197 77.4139 22.0019Q77.9317 21.484 77.9317 20.7313L77.9317 7.98553L97.062 7.98553Q97.799 7.98553 98.3129 7.47554Q98.8268 6.96555 98.8347 6.21282L100.943-49.4292Q100.748-49.2853 100.494-49.177Q100.241-49.0688 100.054-48.9249Q99.3905-48.637 98.6819-48.4738Q97.9733-48.3105 97.3167-48.1925L95.2179 4.42319L76.159 4.42319Q75.4063 4.42319 74.8924 4.93711Q74.3784 5.45102 74.3784 6.20496L74.3784 18.9586L54.7856 18.9586Q54.0329 18.9586 53.4827 19.4725Q52.9325 19.9864 52.9325 20.7313L52.9325 33.4124L33.1958 33.4124Q32.4509 33.4124 31.9331 33.9665Q31.4152 34.5206 31.4152 35.2655Q31.4152 36.0013 31.9376 36.5198Q32.46 37.0382 33.1958 37.0382Z"/>
  </g>
  <g id="Ultralight-L" transform="matrix(1 0 0 1 497.084 1556)">
   <path d="M49.8196-81.3632Q55.0201-81.3632 58.6945-85.0376Q62.3689-88.712 62.3689-93.9125Q62.3689-99.1078 58.6945-102.785Q55.0201-106.462 49.8196-106.462Q44.6228-106.462 40.9458-102.785Q37.2688-99.1078 37.2688-93.9125Q37.2688-88.712 40.9458-85.0376Q44.6228-81.3632 49.8196-81.3632ZM57.508 6.07386Q59.6793 6.81925 61.8998 5.90594Q64.1203 4.99263 65.0049 2.09233L72.761-23.9713Q73.56-26.6022 72.5618-28.7225Q71.5636-30.8428 69.008-31.7185L48.9439-38.9958L51.8964-59.8604Q52.1376-61.6959 54.055-60.8165L64.124-56.2631Q65.1695-55.7806 66.088-55.5795Q67.0064-55.3785 68.2842-55.3032L93.7045-52.7477Q96.103-52.5064 97.9821-53.9852Q99.8612-55.4641 99.9364-57.8626Q100.178-60.0965 98.7014-61.9346Q97.2252-63.7728 94.9057-64.014L68.9276-66.5696L49.3408-75.6035Q45.1016-77.5246 41.145-76.9259Q37.1884-76.3272 34.4299-73.6492Q31.6714-70.9711 31.1136-66.7304L27.9184-42.2714Q27.1947-36.919 30.1926-32.5201Q33.1904-28.1212 38.4662-26.9238L60.3762-21.9698L54.0588-1.26744Q53.1883 1.59196 54.3581 3.5023Q55.528 5.41264 57.508 6.07386ZM19.2255 24.5601Q20.9755 25.4358 23.1718 24.9514Q25.368 24.467 26.9586 22.1565L42.5498-1.1066Q43.1127-1.74103 43.3495-2.62306Q43.5863-3.50509 43.7471-4.54162L46.3168-20.438L37.4348-22.4395Q35.2814-22.9169 33.3565-23.8819L32.2343-6.29675L17.4459 15.7586Q15.4406 18.7252 16.2876 21.1244Q17.1346 23.5236 19.2255 24.5601ZM109.108-69.2376Q108.724-69.826 108.172-70.0092Q107.621-70.1924 107.027-69.9779Q103.398-68.164 102.355-67.5366Q101.312-66.9092 100.817-66.4483Q102.041-65.2919 102.871-64.2388Q103.144-64.5426 104.006-65.0985Q104.868-65.6544 108.273-67.3968Q108.872-67.6968 109.055-68.2081Q109.237-68.7193 109.108-69.2376ZM32.976 35.9135L54.1392 35.9135Q54.729 35.9135 55.133 35.5095Q55.537 35.1055 55.537 34.5157L55.537 21.4595L75.0471 21.4595Q75.642 21.4595 76.0434 21.0581Q76.4449 20.6567 76.4449 20.0721L76.4449 7.01586L96.9455 7.01586Q97.5405 7.01586 97.9445 6.60927Q98.3485 6.20268 98.3433 5.61807L100.425-49.7913Q100.282-49.6215 100.048-49.4939Q99.8139-49.3662 99.6658-49.1964Q99.1578-48.8569 98.6108-48.6354Q98.0639-48.4139 97.5493-48.2314L95.4636 4.22922L75.0471 4.22922Q74.4625 4.22922 74.0585 4.63322Q73.6545 5.03722 73.6545 5.62325L73.6545 18.6743L54.1392 18.6743Q53.5546 18.6743 53.1078 19.0783Q52.661 19.4823 52.661 20.0721L52.661 33.0375L32.976 33.0375Q32.3862 33.0375 31.9848 33.4817Q31.5834 33.9259 31.5834 34.5157Q31.5834 35.1092 31.9829 35.5113Q32.3824 35.9135 32.976 35.9135Z"/>
  </g>
  <g id="Black-M" transform="matrix(1 0 0 1 2876.75 1126)">
   <path d="M43.9109-76.6811Q49.0214-76.6811 52.6313-80.3195Q56.2412-83.958 56.2412-89.0114Q56.2412-94.1274 52.6313-97.7346Q49.0214-101.342 43.9109-101.342Q38.852-101.342 35.2163-97.7346Q31.5806-94.1274 31.5806-89.0114Q31.5806-83.958 35.2163-80.3195Q38.852-76.6811 43.9109-76.6811ZM51.7475 3.62108Q53.8865 3.86889 55.903 2.73898Q57.9194 1.60907 58.7189-1.08517L65.6739-24.438Q66.5308-27.3209 65.4012-29.6423Q64.2715-31.9637 61.5707-32.9455L44.3565-39.1214L46.8605-56.4503Q46.9903-57.1575 47.6457-56.8092L56.3723-52.8198Q57.3536-52.3888 58.3067-52.2045Q59.2598-52.0202 60.439-51.8953L83.2934-49.537Q85.9212-49.293 87.9701-50.9134Q90.0189-52.5338 90.2009-55.1617Q90.4449-57.7275 88.7933-59.7738Q87.1416-61.82 84.5189-62.064L61.3942-64.3652L43.9313-72.328Q39.8594-74.1769 35.9458-73.5613Q32.0321-72.9458 29.2925-70.3255Q26.5528-67.7052 25.9969-63.5192L23.0776-41.475Q22.4027-36.2289 25.3606-31.9441Q28.3185-27.6592 33.4397-26.4282L51.921-22.1272L46.6125-4.75167Q45.5681-1.20865 47.403 0.996528Q49.238 3.20171 51.7475 3.62108ZM15.5134 19.722Q17.477 20.7609 19.9804 20.3327Q22.4838 19.9045 24.2657 17.2709L38.2379-3.59933Q38.7311-4.39423 39.0948-5.28216Q39.4585-6.1701 39.5831-7.16233L41.4111-18.3326L32.0423-20.4721Q29.71-21.0799 27.8095-21.9988L26.9318-9.34886L13.8111 10.3013Q11.7912 13.3027 12.6425 15.9021Q13.4938 18.5014 15.5134 19.722ZM100.361-67.194Q99.4566-69.0145 97.5844-69.6775Q95.7122-70.3405 93.8402-69.4355Q92.636-68.862 91.4573-68.2587Q90.2785-67.6554 89.0748-67.0828Q94.1352-64.7746 95.8-59.4853Q96.3951-59.8136 96.9937-60.1438Q97.5923-60.4739 98.1879-60.7458Q99.9403-61.6505 100.603-63.5487Q101.266-65.4468 100.361-67.194ZM29.5831 30.9456L48.9015 30.9456Q50.8933 30.9456 52.3104 29.5285Q53.7274 28.1114 53.7274 26.1197L53.7274 18.9611L68.2779 18.9611Q70.207 18.9611 71.6554 17.5127Q73.1038 16.0643 73.1038 14.0671L73.1038 6.85134L80.3275 6.85134Q82.2567 6.85134 83.6738 5.46555Q85.0909 4.07976 85.1535 2.13962L87.0128-45.403Q85.4959-45.4035 85.0723-45.404Q84.6488-45.4044 84.1651-45.405Q82.3499-45.4061 80.6149-45.6176Q78.88-45.8291 77.3557-46.0175L75.6161-2.86857L68.2779-2.86857Q66.2235-2.86857 64.835-1.48003Q63.4464-0.0914937 63.4464 1.96283L63.4464 9.24115L48.9015 9.24115Q46.8472 9.24115 45.4588 10.6582Q44.0704 12.0753 44.0704 14.0671L44.0704 21.2886L29.5831 21.2886Q27.5914 21.2886 26.143 22.7368Q24.6946 24.1851 24.6946 26.1197Q24.6946 28.0489 26.1743 29.4972Q27.654 30.9456 29.5831 30.9456Z"/>
  </g>
  <g id="Heavy-M" transform="matrix(1 0 0 1 2580.96 1126)">
   <path d="M43.2434-75.9982Q48.1769-75.9982 51.6784-79.5216Q55.1799-83.0449 55.1799-87.9347Q55.1799-92.8846 51.6784-96.3779Q48.1769-99.8713 43.2434-99.8713Q38.3371-99.8713 34.822-96.3779Q31.3069-92.8846 31.3069-87.9347Q31.3069-83.0449 34.822-79.5216Q38.3371-75.9982 43.2434-75.9982ZM50.9622 2.9166Q52.9934 3.17717 54.9139 2.1143Q56.8344 1.05143 57.607-1.52412L64.4689-24.5744Q65.2829-27.3232 64.2177-29.517Q63.1526-31.7107 60.5697-32.647L43.3977-38.8134L45.9158-56.2323Q46.0591-57.1475 46.9494-56.7075L55.6402-52.7359Q56.581-52.3184 57.4966-52.1408Q58.4122-51.9633 59.5728-51.8409L82.1247-49.5198Q84.6101-49.2893 86.5515-50.8237Q88.4929-52.3581 88.6588-54.8436Q88.8894-57.2645 87.3249-59.1965Q85.7605-61.1286 83.2937-61.3591L60.4202-63.6366L43.1585-71.5283Q39.2072-73.3181 35.4222-72.7254Q31.6371-72.1326 28.994-69.5954Q26.3508-67.0582 25.8111-63.0196L22.9315-41.2755Q22.2835-36.1846 25.1436-32.035Q28.0037-27.8855 32.9722-26.7L51.4628-22.4169L46.1477-4.99175Q45.1515-1.65783 46.8716 0.434801Q48.5918 2.52743 50.9622 2.9166ZM15.3543 18.8586Q17.2268 19.8385 19.5865 19.4292Q21.9462 19.02 23.6505 16.5204L37.4368-4.08195Q37.9165-4.83132 38.2507-5.67754Q38.5849-6.52376 38.7095-7.49741L40.5888-19.0161L31.6768-21.0428Q29.4491-21.6075 27.632-22.486L26.7433-9.52802L13.7546 9.92159Q11.8316 12.7831 12.6303 15.2468Q13.429 17.7104 15.3543 18.8586ZM98.5544-66.481Q97.741-68.136 96.0599-68.7281Q94.3788-69.3203 92.6966-68.5115Q91.3739-67.872 90.1587-67.2507Q88.9436-66.6294 87.7379-66.0426Q92.2449-63.9243 93.825-59.2474Q94.4729-59.6059 95.153-59.9794Q95.8332-60.3529 96.598-60.7228Q98.1766-61.5339 98.7687-63.2275Q99.3609-64.921 98.5544-66.481ZM28.8524 29.47L47.9113 29.47Q49.6972 29.47 50.9645 28.2027Q52.2319 26.9354 52.2319 25.1495L52.2319 17.606L67.0069 17.606Q68.7328 17.606 70.0302 16.3087Q71.3275 15.0113 71.3275 13.2091L71.3275 5.62202L79.2131 5.62202Q80.939 5.62202 82.2063 4.38469Q83.4736 3.14735 83.5336 1.38868L85.3609-45.2994Q84.1237-45.2949 83.7377-45.2915Q83.3517-45.288 82.9161-45.2835Q81.2798-45.2744 79.6913-45.4542Q78.1029-45.634 76.701-45.8096L74.9775-3.09558L67.0069-3.09558Q65.161-3.09558 63.9155-1.85005Q62.67-0.604521 62.67 1.24143L62.67 8.88848L47.9113 8.88848Q46.0654 8.88848 44.8187 10.1558Q43.572 11.4232 43.572 13.2091L43.572 20.8102L28.8524 20.8102Q27.0665 20.8102 25.7692 22.1087Q24.4719 23.4072 24.4719 25.1495Q24.4719 26.8753 25.7992 28.1727Q27.1266 29.47 28.8524 29.47Z"/>
  </g>
  <g id="Bold-M" transform="matrix(1 0 0 1 2285.29 1126)">
   <path d="M42.4967-75.2344Q47.2321-75.2344 50.6124-78.6289Q53.9927-82.0235 53.9927-86.7303Q53.9927-91.4943 50.6124-94.8603Q47.2321-98.2263 42.4967-98.2263Q37.7612-98.2263 34.3809-94.8603Q31.0006-91.4943 31.0006-86.7303Q31.0006-82.0235 34.3809-78.6289Q37.7612-75.2344 42.4967-75.2344ZM50.0837 2.12854Q51.9943 2.40338 53.8075 1.4155Q55.6206 0.42762 56.3631-2.01515L63.1211-24.727Q63.8869-27.3258 62.8939-29.3768Q61.9009-31.4278 59.4501-32.3131L42.3251-38.4688L44.8591-55.9886Q45.0174-57.1363 46.1704-56.5936L54.8212-52.642Q55.7168-52.2396 56.5904-52.0696Q57.4641-51.8996 58.6038-51.7801L80.8173-49.5006Q83.1434-49.2851 84.9646-50.7234Q86.7858-52.1617 86.9338-54.4878Q87.1493-56.7465 85.6824-58.5508Q84.2156-60.3551 81.9232-60.5705L59.3307-62.8215L42.294-70.6337Q38.4777-72.3575 34.8365-71.7902Q31.1953-71.223 28.6601-68.7786Q26.125-66.3343 25.6031-62.4608L22.768-41.0522Q22.1501-36.135 24.9008-32.1368Q27.6515-28.1386 32.4492-27.0041L50.9503-22.741L45.6279-5.26031Q44.6854-2.16029 46.2772-0.193571Q47.8689 1.77315 50.0837 2.12854ZM15.1763 17.8927Q16.9469 18.8066 19.1459 18.4185Q21.3448 18.0305 22.9624 15.6808L36.5406-4.62184Q37.0053-5.32026 37.3065-6.11982Q37.6077-6.91939 37.7323-7.87224L39.669-19.7808L31.268-21.6811Q29.1572-22.1978 27.4335-23.0311L26.5325-9.72845L13.6914 9.4968Q11.8769 12.2019 12.6167 14.5138Q13.3565 16.8256 15.1763 17.8927ZM96.5333-65.6833Q95.8218-67.1532 94.3544-67.6661Q92.8871-68.1791 91.4172-67.4778Q89.9619-66.7645 88.7062-66.1231Q87.4504-65.4816 86.2424-64.879Q90.1303-62.973 91.6158-58.9813Q92.3227-59.3735 93.094-59.7955Q93.8653-60.2174 94.8194-60.697Q96.2036-61.4034 96.7164-62.8682Q97.2293-64.3329 96.5333-65.6833ZM28.0351 27.8194L46.8036 27.8194Q48.3592 27.8194 49.459 26.7195Q50.5589 25.6197 50.5589 24.0641L50.5589 16.0902L65.5852 16.0902Q67.0837 16.0902 68.2121 14.9618Q69.3405 13.8335 69.3405 12.2492L69.3405 4.24685L77.9664 4.24685Q79.4649 4.24685 80.5647 3.17559Q81.6645 2.10432 81.7217 0.548658L83.513-45.1836Q82.5888-45.1733 82.2447-45.1656Q81.9007-45.1579 81.5189-45.1476Q80.0827-45.1271 78.6582-45.2714Q77.2336-45.4157 75.9687-45.577L74.2631-3.34952L65.5852-3.34952Q63.9724-3.34952 62.8869-2.26397Q61.8013-1.17842 61.8013 0.434433L61.8013 8.49396L46.8036 8.49396Q45.1908 8.49396 44.1027 9.59378Q43.0145 10.6936 43.0145 12.2492L43.0145 20.275L28.0351 20.275Q26.4794 20.275 25.351 21.406Q24.2227 22.537 24.2227 24.0641Q24.2227 25.5625 25.3797 26.6909Q26.5367 27.8194 28.0351 27.8194Z"/>
  </g>
  <g id="Semibold-M" transform="matrix(1 0 0 1 1989.3 1126)">
   <path d="M41.9819-74.7078Q46.5808-74.7078 49.8775-78.0135Q53.1742-81.3193 53.1742-85.9Q53.1742-90.5359 49.8775-93.8141Q46.5808-97.0923 41.9819-97.0923Q37.3641-97.0923 34.0768-93.8141Q30.7895-90.5359 30.7895-85.9Q30.7895-81.3193 34.0768-78.0135Q37.3641-74.7078 41.9819-74.7078ZM49.4781 1.58526Q51.3056 1.86994 53.0447 0.933753Q54.7839-0.00242873 55.5055-2.35367L62.1919-24.8322Q62.9245-27.3276 61.9813-29.2802Q61.038-31.2327 58.6782-32.0829L41.5856-38.2312L44.1305-55.8205Q44.2993-57.1285 45.6334-56.5151L54.2565-52.5773Q55.121-52.1853 55.9657-52.0205Q56.8104-51.8556 57.9359-51.7382L79.916-49.4873Q82.1322-49.2823 83.8706-50.6542Q85.609-52.0262 85.7446-54.2425Q85.9496-56.3894 84.5501-58.1056Q83.1505-59.8218 80.9783-60.0269L58.5795-62.2596L41.6981-70.0169Q37.9747-71.6953 34.4327-71.1456Q30.8906-70.5958 28.4299-68.2156Q25.9692-65.8353 25.4598-62.0756L22.6552-40.8984Q22.0582-36.1008 24.7334-32.207Q27.4087-28.3132 32.0887-27.2137L50.5969-22.9645L45.2695-5.44546Q44.3642-2.50669 45.8674-0.626766Q47.3706 1.25316 49.4781 1.58526ZM15.0536 17.2268Q16.7539 18.0952 18.8421 17.7217Q20.9302 17.3483 22.4879 15.102L35.9228-4.99403Q36.3771-5.65734 36.6555-6.42473Q36.934-7.19213 37.0586-8.13065L39.035-20.308L30.9861-22.1212Q28.956-22.6047 27.2966-23.4068L26.3872-9.86662L13.6479 9.20395Q11.908 11.8012 12.6073 14.0084Q13.3065 16.2157 15.0536 17.2268ZM95.1399-65.1334Q94.4987-66.4757 93.1787-66.934Q91.8588-67.3923 90.5353-66.7652Q88.9886-66.001 87.7048-65.3457Q86.421-64.6904 85.2114-64.0768Q88.6725-62.3172 90.0927-58.7978Q90.8403-59.2134 91.6745-59.6687Q92.5087-60.1241 93.5932-60.6793Q94.8434-61.3135 95.3016-62.6204Q95.7598-63.9274 95.1399-65.1334ZM27.4716 26.6814L46.0399 26.6814Q47.4368 26.6814 48.4212 25.6971Q49.4055 24.7127 49.4055 23.3158L49.4055 15.0453L64.6051 15.0453Q65.9468 15.0453 66.9587 14.0333Q67.9707 13.0214 67.9707 11.5876L67.9707 3.29881L77.1069 3.29881Q78.4486 3.29881 79.433 2.34204Q80.4173 1.38527 80.4725-0.0304502L82.2391-45.1037Q81.5306-45.0895 81.2155-45.0788Q80.9004-45.0681 80.5557-45.0539Q79.2575-45.0255 77.9459-45.1454Q76.6343-45.2652 75.4638-45.4167L73.7706-3.52459L64.6051-3.52459Q63.1531-3.52459 62.1778-2.54932Q61.2025-1.57405 61.2025-0.121905L61.2025 8.22198L46.0399 8.22198Q44.5879 8.22198 43.6091 9.20632Q42.6302 10.1907 42.6302 11.5876L42.6302 19.9061L27.4716 19.9061Q26.0747 19.9061 25.0628 20.9216Q24.0509 21.9371 24.0509 23.3158Q24.0509 24.6575 25.0904 25.6694Q26.1299 26.6814 27.4716 26.6814Z"/>
  </g>
  <g id="Medium-M" transform="matrix(1 0 0 1 1693.13 1126)">
   <path d="M41.5916-74.3085Q46.087-74.3085 49.3203-77.5469Q52.5536-80.7854 52.5536-85.2705Q52.5536-89.8092 49.3203-93.0208Q46.087-96.2325 41.5916-96.2325Q37.063-96.2325 33.8462-93.0208Q30.6295-89.8092 30.6295-85.2705Q30.6295-80.7854 33.8462-77.5469Q37.063-74.3085 41.5916-74.3085ZM49.0189 1.17332Q50.7833 1.46546 52.4664 0.568473Q54.1494-0.32851 54.8553-2.61034L61.4873-24.912Q62.1948-27.329 61.2893-29.2069Q60.3837-31.0847 58.0929-31.9083L41.0249-38.0511L43.5781-55.6931Q43.7548-57.1227 45.2263-56.4556L53.8284-52.5282Q54.6692-52.1441 55.492-51.9832Q56.3148-51.8223 57.4294-51.7064L79.2326-49.4773Q81.3655-49.2801 83.0411-50.6018Q84.7166-51.9235 84.8428-54.0565Q85.04-56.1186 83.6915-57.7681Q82.343-59.4175 80.2619-59.6147L58.01-61.8336L41.2462-69.5493Q37.5934-71.1931 34.1265-70.6567Q30.6597-70.1203 28.2554-67.7886Q25.8512-65.457 25.3511-61.7835L22.5698-40.7817Q21.9885-36.0748 24.6065-32.2602Q27.2246-28.4455 31.8153-27.3727L50.329-23.1339L44.9978-5.58585Q44.1206-2.76934 45.5566-0.955233Q46.9927 0.858875 49.0189 1.17332ZM14.9605 16.7219Q16.6076 17.5558 18.6117 17.1934Q20.6159 16.8311 22.1282 14.6631L35.4544-5.27624Q35.9008-5.91293 36.162-6.65593Q36.4231-7.39893 36.5477-8.32658L38.5542-20.7077L30.7724-22.4549Q28.8034-22.9132 27.1928-23.6917L26.277-9.97138L13.6149 8.9819Q11.9317 11.4974 12.6002 13.6253Q13.2687 15.7531 14.9605 16.7219ZM94.0834-64.7165Q93.4954-65.962 92.2872-66.3789Q91.079-66.7957 89.8666-66.2249Q88.2505-65.4221 86.9455-64.7563Q85.6404-64.0904 84.4296-63.4686Q87.5671-61.82 88.9379-58.6587Q89.7163-59.0919 90.5982-59.5726Q91.48-60.0533 92.6635-60.6658Q93.8121-61.2453 94.2288-62.4326Q94.6456-63.62 94.0834-64.7165ZM27.0443 25.8186L45.4609 25.8186Q46.7374 25.8186 47.6342 24.9218Q48.531 24.025 48.531 22.7485L48.531 14.2529L63.8619 14.2529Q65.0848 14.2529 66.0084 13.3293Q66.932 12.4057 66.932 11.0858L66.932 2.57997L76.4552 2.57997Q77.6781 2.57997 78.5749 1.71001Q79.4717 0.840047 79.5253-0.469555L81.2732-45.0431Q80.7282-45.026 80.4351-45.013Q80.1419-45.0001 79.8253-44.9829Q78.6318-44.9485 77.4058-45.0498Q76.1799-45.1511 75.081-45.2951L73.3972-3.65733L63.8619-3.65733Q62.5318-3.65733 61.6401-2.76569Q60.7485-1.87404 60.7485-0.543744L60.7485 8.01575L45.4609 8.01575Q44.1307 8.01575 43.2348 8.91253Q42.3388 9.80931 42.3388 11.0858L42.3388 19.6264L27.0443 19.6264Q25.7678 19.6264 24.8442 20.5543Q23.9206 21.4823 23.9206 22.7485Q23.9206 23.9712 24.8711 24.8949Q25.8216 25.8186 27.0443 25.8186Z"/>
  </g>
  <g id="Regular-M" transform="matrix(1 0 0 1 1397.13 1126)">
   <path d="M41.0825-73.7877Q45.4428-73.7877 48.5935-76.9383Q51.7441-80.0889 51.7441-84.4493Q51.7441-88.8613 48.5935-91.9861Q45.4428-95.1109 41.0825-95.1109Q36.6703-95.1109 33.5455-91.9861Q30.4207-88.8613 30.4207-84.4493Q30.4207-80.0889 33.5455-76.9383Q36.6703-73.7877 41.0825-73.7877ZM48.4199 0.636004Q50.1021 0.937872 51.712 0.0920198Q53.3218-0.753833 54.0072-2.94513L60.5683-25.016Q61.243-27.3308 60.3866-29.1113Q59.5302-30.8918 57.3295-31.6807L40.2936-37.8161L42.8576-55.5268Q43.0445-57.115 44.6952-56.378L53.27-52.4643Q54.08-52.0904 54.8741-51.9347Q55.6683-51.7789 56.7687-51.6649L78.3412-49.4642Q80.3655-49.2772 81.9591-50.5334Q83.5527-51.7895 83.6667-53.8139Q83.8536-55.7654 82.5716-57.3278Q81.2896-58.8901 79.3274-59.077L57.2672-61.2778L40.6568-68.9393Q37.096-70.5382 33.7272-70.0191Q30.3584-69.5001 28.0278-67.2318Q25.6972-64.9635 25.2094-61.4024L22.4583-40.6295Q21.8976-36.041 24.441-32.3295Q26.9845-28.6181 31.4588-27.58L49.9795-23.3549L44.6433-5.76896Q43.8028-3.11193 45.1513-1.38367Q46.4999 0.344595 48.4199 0.636004ZM14.8392 16.0634Q16.4167 16.8522 18.3113 16.5043Q20.2059 16.1564 21.659 14.0907L34.8434-5.64435Q35.2795-6.2463 35.5182-6.95749Q35.7568-7.66867 35.8814-8.58215L37.927-21.229L30.4936-22.8901Q28.6044-23.3156 27.0574-24.0633L26.1333-10.108L13.5718 8.69227Q11.9625 11.1011 12.5909 13.1255Q13.2192 15.1499 14.8392 16.0634ZM92.7054-64.1726Q92.1869-65.292 91.1244-65.6548Q90.062-66.0176 88.9943-65.5201Q87.2879-64.667 85.9551-63.9874Q84.6223-63.3079 83.4099-62.6752Q86.1253-61.1714 87.4316-58.4772Q88.2502-58.9335 89.1943-59.4472Q90.1383-59.9609 91.4508-60.6482Q92.4668-61.1563 92.8295-62.1876Q93.1922-63.2189 92.7054-64.1726ZM26.487 24.6931L44.7056 24.6931Q45.8252 24.6931 46.6077 23.9106Q47.3903 23.128 47.3903 22.0085L47.3903 13.2194L62.8926 13.2194Q63.9604 13.2194 64.7688 12.411Q65.5772 11.6026 65.5772 10.4314L65.5772 1.64236L75.6052 1.64236Q76.673 1.64236 77.4556 0.885625Q78.2382 0.128892 78.2898-1.0423L80.0133-44.9642Q79.6816-44.9431 79.4171-44.9272Q79.1526-44.9113 78.8727-44.8902Q77.8156-44.848 76.7014-44.9252Q75.5872-45.0023 74.5817-45.1365L72.9101-3.83047L62.8926-3.83047Q61.7214-3.83047 60.9388-3.0479Q60.1562-2.26534 60.1562-1.09397L60.1562 7.74676L44.7056 7.74676Q43.5345 7.74676 42.7466 8.52933Q41.9587 9.3119 41.9587 10.4314L41.9587 19.2615L26.487 19.2615Q25.3675 19.2615 24.5591 20.0752Q23.7507 20.889 23.7507 22.0085Q23.7507 23.0762 24.585 23.8846Q25.4193 24.6931 26.487 24.6931Z"/>
  </g>
  <g id="Light-M" transform="matrix(1 0 0 1 1101.72 1126)">
   <path d="M40.3126-72.9152Q44.5703-72.9152 47.6268-75.9716Q50.6833-79.0281 50.6833-83.2858Q50.6833-87.578 47.6268-90.6172Q44.5703-93.6565 40.3126-93.6565Q36.02-93.6565 32.9807-90.6172Q29.9415-87.578 29.9415-83.2858Q29.9415-79.0281 32.9807-75.9716Q36.02-72.9152 40.3126-72.9152ZM47.2222-0.561656Q48.9045-0.174405 50.5485-0.977422Q52.1926-1.78044 52.878-3.98899L59.268-25.478Q59.9255-27.7071 59.0948-29.4449Q58.2642-31.1827 56.1318-31.9374L39.558-37.9187L42.0363-55.1505Q42.2232-56.6873 43.8227-55.9675L52.1577-52.1733Q52.9677-51.7995 53.7363-51.6437Q54.5049-51.488 55.5711-51.3912L76.5616-49.2589Q78.5345-49.072 80.0854-50.2939Q81.6363-51.5159 81.733-53.4887Q81.92-55.3719 80.6808-56.8914Q79.4417-58.4109 77.5306-58.5978L56.0695-60.7302L39.9039-68.1864Q36.4287-69.751 33.1539-69.2491Q29.8792-68.7472 27.6085-66.5388Q25.3378-64.3304 24.8673-60.8548L22.2016-40.6467Q21.6408-36.1951 24.1159-32.5776Q26.5909-28.9602 30.9453-27.9563L48.9871-23.8511L43.7878-6.74439Q42.9987-4.22421 44.2103-2.57285Q45.4218-0.921486 47.2222-0.561656ZM14.8564 14.5233Q16.3652 15.278 18.2 14.9216Q20.0348 14.5652 21.4195 12.5849L34.2615-6.61978Q34.6976-7.18752 34.9192-7.89009Q35.1407-8.59265 35.2654-9.47191L37.294-22.0162L30.0317-23.6431Q28.2108-24.0513 26.6811-24.799L25.7739-10.9463L13.5545 7.32326Q11.9625 9.69784 12.5995 11.6709Q13.2365 13.644 14.8564 14.5233ZM90.173-63.3685Q89.7228-64.2823 88.8572-64.5767Q87.9915-64.8711 87.1121-64.4762Q85.0633-63.4521 83.8931-62.8325Q82.7229-62.2129 81.7672-61.6655Q83.9353-60.35 85.036-58.2378Q85.6666-58.6256 86.525-59.1136Q87.3834-59.6016 89.1067-60.4942Q89.9516-60.9169 90.2458-61.7514Q90.5399-62.5859 90.173-63.3685ZM26.1961 23.2045L43.8501 23.2045Q44.7644 23.2045 45.4015 22.5674Q46.0386 21.9303 46.0386 21.0161L46.0386 11.8162L61.4209 11.8162Q62.3008 11.8162 62.9551 11.1619Q63.6094 10.5076 63.6094 9.5589L63.6094 0.359027L75.4511 0.359027Q76.3309 0.359027 76.968-0.260863Q77.6051-0.880753 77.6395-1.82943L79.3288-45.4434Q79.0656-45.3881 78.8268-45.3465Q78.588-45.3049 78.3592-45.2496Q77.5077-45.139 76.6074-45.139Q75.7071-45.1391 74.8895-45.188L73.2352-4.08719L61.4209-4.08719Q60.4722-4.08719 59.8351-3.45009Q59.198-2.81299 59.198-1.86385L59.198 7.37044L43.8501 7.37044Q42.9014 7.37044 42.2504 8.00754Q41.5993 8.64464 41.5993 9.5589L41.5993 18.7653L26.1961 18.7653Q25.2818 18.7653 24.6275 19.4336Q23.9732 20.1018 23.9732 21.0161Q23.9732 21.8955 24.6449 22.55Q25.3167 23.2045 26.1961 23.2045Z"/>
  </g>
  <g id="Thin-M" transform="matrix(1 0 0 1 806.725 1126)">
   <path d="M39.2944-71.7612Q43.4164-71.7612 46.3483-74.6931Q49.2803-77.6251 49.2803-81.7471Q49.2803-85.8807 46.3483-88.8068Q43.4164-91.733 39.2944-91.733Q35.16-91.733 32.2338-88.8068Q29.3076-85.8807 29.3076-81.7471Q29.3076-77.6251 32.2338-74.6931Q35.16-71.7612 39.2944-71.7612ZM45.6382-2.14566Q47.3205-1.64548 49.0098-2.39185Q50.6991-3.13821 51.3845-5.36957L57.5483-26.089Q58.1829-28.2048 57.3863-29.8862Q56.5897-31.5675 54.5478-32.2769L38.585-38.0545L40.95-54.6528Q41.1369-56.1215 42.6687-55.4245L50.6866-51.7885Q51.4966-51.4147 52.2314-51.2589Q52.9661-51.1032 53.9871-51.0293L74.2081-48.9874Q76.1129-48.8005 77.6073-49.9772Q79.1018-51.1539 79.1757-53.0587Q79.3626-54.8513 78.1801-56.3142Q76.9976-57.7771 75.1543-57.964L54.4855-60.0058L38.9081-67.1906Q35.5462-68.71 32.3958-68.2307Q29.2453-67.7514 27.0539-65.6223Q24.8625-63.4932 24.4148-60.1305L21.862-40.6695Q21.3013-36.3989 23.6858-32.9058Q26.0704-29.4127 30.2663-28.454L47.6745-24.5074L42.6563-8.03448Q41.9352-5.69529 42.9656-4.14563Q43.996-2.59598 45.6382-2.14566ZM14.8792 12.4865Q16.2972 13.1959 18.0529 12.8283Q19.8086 12.4607 21.1028 10.5933L33.4919-7.90987Q33.928-8.43237 34.127-9.12352Q34.3259-9.81468 34.4505-10.6487L36.4567-23.0572L29.4206-24.6389Q27.6903-25.0243 26.1834-25.772L25.2987-12.0551L13.5317 5.51265Q11.9625 7.84198 12.6109 9.74721Q13.2593 11.6524 14.8792 12.4865ZM86.8236-62.3051Q86.464-62.947 85.8586-63.1509Q85.2532-63.3547 84.6228-63.0957Q82.1211-61.8452 81.166-61.3049Q80.2108-60.7646 79.5947-60.3302Q81.0388-59.2637 81.8676-57.921Q82.2496-58.2184 82.9946-58.6723Q83.7397-59.1263 86.0064-60.2904Q86.6251-60.6001 86.8285-61.1744Q87.032-61.7486 86.8236-62.3051ZM25.8113 21.2357L42.7186 21.2357Q43.3613 21.2357 43.806 20.791Q44.2508 20.3463 44.2508 19.7036L44.2508 9.96034L59.4746 9.96034Q60.1057 9.96034 60.5563 9.50983Q61.0068 9.05932 61.0068 8.40493L61.0068-1.33828L75.2473-1.33828Q75.8785-1.33828 76.3232-1.77719Q76.7679-2.21609 76.7795-2.87048L78.4235-46.0772Q78.2507-45.9767 78.046-45.901Q77.8412-45.8254 77.6801-45.7249Q77.1005-45.5238 76.4831-45.4219Q75.8656-45.3201 75.2968-45.256L73.6652-4.42673L59.4746-4.42673Q58.8202-4.42673 58.3755-3.98202Q57.9308-3.53732 57.9308-2.88208L57.9308 6.87274L42.7186 6.87274Q42.0642 6.87274 41.5941 7.31744Q41.1241 7.76215 41.1241 8.40493L41.1241 18.1091L25.8113 18.1091Q25.1685 18.1091 24.718 18.5849Q24.2675 19.0608 24.2675 19.7036Q24.2675 20.3339 24.7242 20.7848Q25.181 21.2357 25.8113 21.2357Z"/>
  </g>
  <g id="Ultralight-M" transform="matrix(1 0 0 1 510.895 1126)">
   <path d="M38.7728-71.1701Q42.8253-71.1701 45.6935-74.0383Q48.5617-76.9065 48.5617-80.9589Q48.5617-85.0113 45.6935-87.8795Q42.8253-90.7478 38.7728-90.7478Q34.7194-90.7478 31.8512-87.8795Q28.983-85.0113 28.983-80.9589Q28.983-76.9065 31.8512-74.0383Q34.7194-71.1701 38.7728-71.1701ZM44.8269-2.95698Q46.5091-2.39896 48.2216-3.11631Q49.9341-3.83365 50.6195-6.0767L56.6674-26.402Q57.2904-28.4597 56.5112-30.1122Q55.732-31.7646 53.7365-32.4508L38.0866-38.124L40.3936-54.3979Q40.5805-55.8317 42.0776-55.1464L49.9332-51.5915Q50.7431-51.2176 51.4606-51.0619Q52.178-50.9061 53.1757-50.8439L73.0026-48.8484Q74.8725-48.6614 76.3381-49.815Q77.8036-50.9685 77.8658-52.8384Q78.0527-54.5847 76.8992-56.0186Q75.7458-57.4524 73.9371-57.6393L53.6742-59.6349L38.3981-66.6806Q35.0942-68.1768 32.0075-67.709Q28.9207-67.2413 26.7699-65.1528Q24.6191-63.0643 24.183-59.7595L21.6881-40.6812Q21.1274-36.5033 23.4656-33.0738Q25.8038-29.6444 29.9184-28.7089L47.0023-24.8435L42.0767-8.69526Q41.3905-6.44876 42.3281-4.95121Q43.2657-3.45365 44.8269-2.95698ZM14.8909 11.4432Q16.2623 12.1294 17.9775 11.7561Q19.6927 11.3827 20.9406 9.57317L33.0977-8.57065Q33.5339-9.06997 33.7212-9.75528Q33.9086-10.4406 34.0332-11.2514L36.0279-23.5904L29.1077-25.1489Q27.4237-25.5227 25.9285-26.2703L25.0552-12.6229L13.52 4.58526Q11.9625 6.89142 12.6167 8.76188Q13.271 10.6323 14.8909 11.4432ZM85.1081-61.7604Q84.7948-62.263 84.3227-62.4206Q83.8506-62.5781 83.3478-62.3885Q80.6142-61.0222 79.7691-60.5225Q78.9241-60.0228 78.4819-59.6462Q79.5552-58.7073 80.2448-57.7588Q80.4994-58.0098 81.1864-58.4463Q81.8734-58.8829 84.4184-60.186Q84.9212-60.4379 85.0782-60.8789Q85.2352-61.3198 85.1081-61.7604ZM25.6142 20.2273L42.139 20.2273Q42.6427 20.2273 42.9889 19.8812Q43.335 19.535 43.335 19.0313L43.335 9.00978L58.4777 9.00978Q58.9815 9.00978 59.3276 8.66365Q59.6737 8.31753 59.6737 7.81387L59.6737-2.20763L75.1429-2.20763Q75.6467-2.20763 75.9929-2.55384Q76.339-2.90004 76.339-3.4037L77.9598-46.4019Q77.8334-46.2781 77.6461-46.1851Q77.4588-46.092 77.3323-45.9683Q76.8919-45.7209 76.4194-45.5668Q75.9468-45.4128 75.5053-45.2909L73.8855-4.60064L58.4777-4.60064Q57.974-4.60064 57.6278-4.25448Q57.2817-3.90831 57.2817-3.40362L57.2817 6.61781L42.139 6.61781Q41.6353 6.61781 41.258 6.96398Q40.8806 7.31014 40.8806 7.81387L40.8806 17.7729L25.6142 17.7729Q25.1105 17.7729 24.7643 18.1502Q24.4182 18.5276 24.4182 19.0313Q24.4182 19.5341 24.7648 19.8807Q25.1114 20.2273 25.6142 20.2273Z"/>
  </g>
  <g id="Black-S" transform="matrix(1 0 0 1 2888.8 696)">
   <path d="M34.5703-67.8711Q38.623-67.8711 41.4795-70.752Q44.3359-73.6328 44.3359-77.6367Q44.3359-81.6895 41.4795-84.5459Q38.623-87.4023 34.5703-87.4023Q30.5664-87.4023 27.6855-84.5459Q24.8047-81.6895 24.8047-77.6367Q24.8047-73.6328 27.6855-70.752Q30.5664-67.8711 34.5703-67.8711ZM40.7227-4.63867Q42.4316-4.44336 44.043-5.34668Q45.6543-6.25 46.2891-8.39844L51.7578-26.7578Q52.4414-29.0527 51.5381-30.9082Q50.6348-32.7637 48.4863-33.5449L35.0098-38.3789L36.9629-51.9043Q37.0605-52.3926 37.5-52.1484L44.3359-49.0234Q45.1172-48.6816 45.874-48.5352Q46.6309-48.3887 47.5586-48.291L65.5273-46.4355Q67.627-46.2402 69.2627-47.5342Q70.8984-48.8281 71.0449-50.9277Q71.2402-52.9785 69.9219-54.6143Q68.6035-56.25 66.5039-56.4453L48.3398-58.252L34.6191-64.502Q31.3965-65.9668 28.2959-65.4785Q25.1953-64.9902 23.0225-62.915Q20.8496-60.8398 20.4102-57.5195L18.1152-40.1855Q17.5781-36.0352 19.9219-32.6416Q22.2656-29.248 26.3184-28.2715L40.7715-24.9023L36.6211-11.3281Q35.791-8.49609 37.2559-6.73828Q38.7207-4.98047 40.7227-4.63867ZM12.207 8.00781Q13.7695 8.83789 15.7715 8.49609Q17.7734 8.1543 19.1895 6.05469L30.1758-10.3516Q30.5664-10.9863 30.8594-11.6943Q31.1523-12.4023 31.25-13.1836L32.666-21.8262L25.1953-23.5352Q23.3398-24.0234 21.8262-24.7559L21.1426-14.9414L10.8398 0.488281Q9.22852 2.88086 9.91211 4.95605Q10.5957 7.03125 12.207 8.00781ZM79.0527-60.4492Q78.3203-61.9141 76.8066-62.4512Q75.293-62.9883 73.7793-62.2559Q72.8516-61.8164 71.9482-61.3525Q71.0449-60.8887 70.1172-60.4492Q74.2188-58.5938 75.5371-54.2969Q75.9766-54.541 76.416-54.7852Q76.8555-55.0293 77.2949-55.2246Q78.7109-55.957 79.248-57.4951Q79.7852-59.0332 79.0527-60.4492ZM23.3887 16.9922L38.5742 16.9922Q40.1855 16.9922 41.333 15.8447Q42.4805 14.6973 42.4805 13.0859L42.4805 7.56836L53.8086 7.56836Q55.3711 7.56836 56.543 6.39648Q57.7148 5.22461 57.7148 3.61328L57.7148-1.95312L63.2812-1.95312Q64.8438-1.95312 65.9912-3.07617Q67.1387-4.19922 67.1875-5.76172L68.6523-43.2617Q67.3828-43.2617 67.041-43.2617Q66.6992-43.2617 66.3086-43.2617Q64.8438-43.2617 63.4521-43.4326Q62.0605-43.6035 60.8398-43.75L59.4727-9.81445L53.8086-9.81445Q52.1484-9.81445 51.0254-8.69141Q49.9023-7.56836 49.9023-5.9082L49.9023-0.292969L38.5742-0.292969Q36.9141-0.292969 35.791 0.854492Q34.668 2.00195 34.668 3.61328L34.668 9.17969L23.3887 9.17969Q21.7773 9.17969 20.6055 10.3516Q19.4336 11.5234 19.4336 13.0859Q19.4336 14.6484 20.6299 15.8203Q21.8262 16.9922 23.3887 16.9922Z"/>
  </g>
  <g id="Heavy-S" transform="matrix(1 0 0 1 2592.71 696)">
   <path d="M34.0978-67.3986Q38.0123-67.3986 40.788-70.193Q43.5638-72.9874 43.5638-76.8646Q43.5638-80.7905 40.788-83.5606Q38.0123-86.3306 34.0978-86.3306Q30.2091-86.3306 27.4205-83.5606Q24.6318-80.7905 24.6318-76.8646Q24.6318-72.9874 27.4205-70.193Q30.2091-67.3986 34.0978-67.3986ZM40.2041-5.08813Q41.8208-4.89281 43.3457-5.74427Q44.8706-6.59573 45.4823-8.64045L50.8935-26.8154Q51.5425-29.0066 50.691-30.7584Q49.8396-32.5101 47.7833-33.2568L34.2837-38.1023L36.2599-51.766Q36.3691-52.4387 37.016-52.1139L43.8519-48.9889Q44.5986-48.6586 45.3266-48.5179Q46.0546-48.3771 46.9708-48.2795L64.7552-46.4471Q66.7396-46.2633 68.2889-47.4881Q69.8382-48.7129 69.9731-50.6972Q70.1569-52.6328 68.9077-54.1763Q67.6585-55.7199 65.6857-55.9037L47.6599-57.6988L34.0544-63.9142Q30.924-65.333 27.9214-64.862Q24.9187-64.391 22.8208-62.3792Q20.7228-60.3673 20.2949-57.1623L18.023-40.0127Q17.509-35.9775 19.7778-32.6877Q22.0467-29.3979 25.9841-28.4559L40.5064-25.0867L36.333-11.4088Q35.5375-8.73811 36.9216-7.06673Q38.3058-5.39535 40.2041-5.08813ZM12.0687 7.46616Q13.5621 8.25014 15.4488 7.92563Q17.3355 7.60112 18.6939 5.60523L29.565-10.6397Q29.9441-11.2399 30.214-11.9133Q30.4839-12.5867 30.5816-13.3565L32.0437-22.3102L24.9418-23.927Q23.167-24.3807 21.7225-25.0785L21.0273-14.9875L10.7937 0.338463Q9.26309 2.6158 9.90058 4.58151Q10.5381 6.54722 12.0687 7.46616ZM77.8311-59.9421Q77.1679-61.2917 75.7925-61.777Q74.4171-62.2622 73.0417-61.599Q72.0564-61.1249 71.1012-60.638Q70.146-60.1511 69.1837-59.6886Q72.8819-57.9714 74.1542-54.124Q74.6628-54.4027 75.1829-54.6872Q75.703-54.9717 76.2347-55.2246Q77.5239-55.8879 78.0092-57.2762Q78.4944-58.6644 77.8311-59.9421ZM22.8009 15.9204L37.8367 15.9204Q39.2982 15.9204 40.3361 14.8824Q41.3741 13.8445 41.3741 12.3829L41.3741 6.58878L52.9097 6.58878Q54.3224 6.58878 55.3848 5.52639Q56.4472 4.46399 56.4472 2.99096L56.4472-2.84051L62.3478-2.84051Q63.7605-2.84051 64.7984-3.85407Q65.8364-4.86764 65.8852-6.30337L67.327-43.1119Q66.288-43.1119 65.975-43.1119Q65.662-43.1119 65.306-43.1119Q63.9679-43.1119 62.6742-43.2655Q61.3806-43.4191 60.2406-43.5656L58.8849-9.9758L52.9097-9.9758Q51.3993-9.9758 50.38-8.95647Q49.3607-7.93714 49.3607-6.4268L49.3607-0.546507L37.8367-0.546507Q36.3263-0.546507 35.307 0.491472Q34.2877 1.52945 34.2877 2.99096L34.2877 8.83395L22.8009 8.83395Q21.3394 8.83395 20.277 9.89635Q19.2146 10.9587 19.2146 12.3829Q19.2146 13.7956 20.3014 14.858Q21.3882 15.9204 22.8009 15.9204Z"/>
  </g>
  <g id="Bold-S" transform="matrix(1 0 0 1 2296.7 696)">
   <path d="M33.5693-66.8701Q37.3291-66.8701 40.0146-69.5679Q42.7002-72.2656 42.7002-76.001Q42.7002-79.7852 40.0146-82.4585Q37.3291-85.1318 33.5693-85.1318Q29.8096-85.1318 27.124-82.4585Q24.4385-79.7852 24.4385-76.001Q24.4385-72.2656 27.124-69.5679Q29.8096-66.8701 33.5693-66.8701ZM39.624-5.59082Q41.1377-5.39551 42.5659-6.18896Q43.9941-6.98242 44.5801-8.91113L49.9268-26.8799Q50.5371-28.9551 49.7437-30.5908Q48.9502-32.2266 46.9971-32.9346L33.4717-37.793L35.4736-51.6113Q35.5957-52.4902 36.4746-52.0752L43.3105-48.9502Q44.0186-48.6328 44.7144-48.4985Q45.4102-48.3643 46.3135-48.2666L63.8916-46.46Q65.7471-46.2891 67.1997-47.4365Q68.6523-48.584 68.7744-50.4395Q68.9453-52.2461 67.7734-53.6865Q66.6016-55.127 64.7705-55.2979L46.8994-57.0801L33.4229-63.2568Q30.3955-64.624 27.5024-64.1724Q24.6094-63.7207 22.5952-61.7798Q20.5811-59.8389 20.166-56.7627L17.9199-39.8193Q17.4316-35.9131 19.6167-32.7393Q21.8018-29.5654 25.6104-28.6621L40.21-25.293L36.0107-11.499Q35.2539-9.00879 36.5479-7.43408Q37.8418-5.85938 39.624-5.59082ZM11.9141 6.86035Q13.3301 7.59277 15.0879 7.2876Q16.8457 6.98242 18.1396 5.10254L28.8818-10.9619Q29.248-11.5234 29.4922-12.1582Q29.7363-12.793 29.834-13.5498L31.3477-22.8516L24.6582-24.3652Q22.9736-24.7803 21.6064-25.4395L20.8984-15.0391L10.7422 0.170898Q9.30176 2.31934 9.8877 4.1626Q10.4736 6.00586 11.9141 6.86035ZM76.4648-59.375Q75.8789-60.5957 74.6582-61.0229Q73.4375-61.4502 72.2168-60.8643Q71.167-60.3516 70.1538-59.8389Q69.1406-59.3262 68.1396-58.8379Q71.3867-57.2754 72.6074-53.9307Q73.1934-54.248 73.8037-54.5776Q74.4141-54.9072 75.0488-55.2246Q76.1963-55.8105 76.6235-57.0312Q77.0508-58.252 76.4648-59.375ZM22.1436 14.7217L37.0117 14.7217Q38.3057 14.7217 39.2212 13.8062Q40.1367 12.8906 40.1367 11.5967L40.1367 5.49316L51.9043 5.49316Q53.1494 5.49316 54.0894 4.55322Q55.0293 3.61328 55.0293 2.29492L55.0293-3.83301L61.3037-3.83301Q62.5488-3.83301 63.4644-4.72412Q64.3799-5.61523 64.4287-6.90918L65.8447-42.9443Q65.0635-42.9443 64.7827-42.9443Q64.502-42.9443 64.1846-42.9443Q62.9883-42.9443 61.8042-43.0786Q60.6201-43.2129 59.5703-43.3594L58.2275-10.1562L51.9043-10.1562Q50.5615-10.1562 49.6582-9.25293Q48.7549-8.34961 48.7549-7.00684L48.7549-0.830078L37.0117-0.830078Q35.6689-0.830078 34.7656 0.0854492Q33.8623 1.00098 33.8623 2.29492L33.8623 8.44727L22.1436 8.44727Q20.8496 8.44727 19.9097 9.38721Q18.9697 10.3271 18.9697 11.5967Q18.9697 12.8418 19.9341 13.7817Q20.8984 14.7217 22.1436 14.7217Z"/>
  </g>
  <g id="Semibold-S" transform="matrix(1 0 0 1 2000.48 696)">
   <path d="M33.205-66.5058Q36.8581-66.5058 39.4814-69.1369Q42.1048-71.768 42.1048-75.4056Q42.1048-79.092 39.4814-81.6987Q36.8581-84.3054 33.205-84.3054Q29.5341-84.3054 26.9196-81.6987Q24.3052-79.092 24.3052-75.4056Q24.3052-71.768 26.9196-69.1369Q29.5341-66.5058 33.205-66.5058ZM39.2241-5.9374Q40.6667-5.74209 42.0283-6.49556Q43.3898-7.24902 43.958-9.09775L49.2603-26.9243Q49.8439-28.9195 49.0905-30.4753Q48.337-32.0311 46.455-32.7124L32.9118-37.5797L34.9315-51.5047Q35.0625-52.5258 36.1014-52.0485L42.9373-48.9235Q43.6187-48.615 44.2922-48.4852Q44.9658-48.3554 45.8603-48.2577L63.2962-46.4688Q65.0628-46.3068 66.4488-47.401Q67.8348-48.4951 67.9479-50.2617Q68.11-51.9795 66.9914-53.3488Q65.8729-54.7182 64.1396-54.8802L46.3751-56.6535L32.9874-62.8036Q30.0312-64.1353 27.2136-63.6969Q24.3961-63.2586 22.4397-61.3666Q20.4833-59.4745 20.0771-56.4872L17.8488-39.686Q17.3783-35.8687 19.5056-32.7748Q21.6329-29.681 25.3526-28.8043L40.0056-25.4352L35.7886-11.5612Q35.0584-9.19541 36.2901-7.68735Q37.5219-6.1793 39.2241-5.9374ZM11.8074 6.44268Q13.1701 7.13955 14.8391 6.84771Q16.508 6.55586 17.7575 4.75596L28.4108-11.1841Q28.7682-11.7189 28.9945-12.3271Q29.2209-12.9352 29.3186-13.6831L30.8678-23.2248L24.4627-24.6674Q22.8403-25.0558 21.5265-25.6883L20.8096-15.0746L10.7066 0.0553711Q9.32842 2.11494 9.87881 3.87378Q10.4292 5.63262 11.8074 6.44268ZM75.5229-58.984Q74.9902-60.1158 73.8762-60.5031Q72.7621-60.8903 71.648-60.3577Q70.5538-59.8184 69.5006-59.2879Q68.4475-58.7574 67.4198-58.2514Q70.3559-56.7955 71.541-53.7974Q72.1803-54.1414 72.8528-54.5021Q73.5254-54.8628 74.2313-55.2246Q75.281-55.7572 75.6682-56.8624Q76.0555-57.9676 75.5229-58.984ZM21.6903 13.8952L36.443 13.8952Q37.6214 13.8952 38.4525 13.0641Q39.2836 12.233 39.2836 11.0546L39.2836 4.73779L51.2111 4.73779Q52.3407 4.73779 53.1962 3.88228Q54.0518 3.02676 54.0518 1.81504L54.0518-4.51729L60.5839-4.51729Q61.7135-4.51729 62.5446-5.32397Q63.3757-6.13066 63.4245-7.32686L64.8228-42.8288Q64.2192-42.8288 63.9607-42.8288Q63.7021-42.8288 63.4114-42.8288Q62.3129-42.8288 61.2043-42.9498Q60.0958-43.0707 59.1082-43.2172L57.7743-10.2807L51.2111-10.2807Q49.9839-10.2807 49.1605-9.45732Q48.3372-8.63398 48.3372-7.40674L48.3372-1.02559L36.443-1.02559Q35.2157-1.02559 34.3924-0.194482Q33.569 0.636621 33.569 1.81504L33.569 8.18066L21.6903 8.18066Q20.5119 8.18066 19.6564 9.03618Q18.8009 9.8917 18.8009 11.0546Q18.8009 12.1842 19.6808 13.0397Q20.5607 13.8952 21.6903 13.8952Z"/>
  </g>
  <g id="Medium-S" transform="matrix(1 0 0 1 1704.13 696)">
   <path d="M32.9287-66.2295Q36.501-66.2295 39.0771-68.8101Q41.6533-71.3906 41.6533-74.9541Q41.6533-78.5664 39.0771-81.1226Q36.501-83.6787 32.9287-83.6787Q29.3252-83.6787 26.7646-81.1226Q24.2041-78.5664 24.2041-74.9541Q24.2041-71.3906 26.7646-68.8101Q29.3252-66.2295 32.9287-66.2295ZM38.9209-6.2002Q40.3096-6.00488 41.6206-6.72803Q42.9316-7.45117 43.4863-9.23926L48.7549-26.958Q49.3184-28.8926 48.5952-30.3877Q47.8721-31.8828 46.0439-32.5439L32.4873-37.418L34.5205-51.4238Q34.6582-52.5527 35.8184-52.0283L42.6543-48.9033Q43.3154-48.6016 43.9722-48.4751Q44.6289-48.3486 45.5166-48.251L62.8447-46.4756Q64.5439-46.3203 65.8794-47.374Q67.2148-48.4277 67.3213-50.127Q67.4766-51.7773 66.3984-53.0928Q65.3203-54.4082 63.6611-54.5635L45.9775-56.3301L32.6572-62.46Q29.7549-63.7646 26.9946-63.3364Q24.2344-62.9082 22.3218-61.0532Q20.4092-59.1982 20.0098-56.2783L17.7949-39.585Q17.3379-35.835 19.4214-32.8018Q21.5049-29.7686 25.1572-28.9121L39.8506-25.543L35.6201-11.6084Q34.9102-9.33691 36.0947-7.87939Q37.2793-6.42188 38.9209-6.2002ZM11.7266 6.12598Q13.0488 6.7959 14.6504 6.51416Q16.252 6.23242 17.4678 4.49316L28.0537-11.3525Q28.4043-11.8672 28.6172-12.4551Q28.8301-13.043 28.9277-13.7842L30.5039-23.5078L24.3145-24.8965Q22.7393-25.2646 21.4658-25.877L20.7422-15.1016L10.6797-0.0322266Q9.34863 1.95996 9.87207 3.65479Q10.3955 5.34961 11.7266 6.12598ZM74.8086-58.6875Q74.3164-59.752 73.2832-60.1089Q72.25-60.4658 71.2168-59.9736Q70.0889-59.4141 69.0054-58.8701Q67.9219-58.3262 66.874-57.8066Q69.5742-56.4316 70.7324-53.6963Q71.4121-54.0605 72.1318-54.4448Q72.8516-54.8291 73.6113-55.2246Q74.5869-55.7168 74.9438-56.7344Q75.3008-57.752 74.8086-58.6875ZM21.3467 13.2686L36.0117 13.2686Q37.1025 13.2686 37.8696 12.5015Q38.6367 11.7344 38.6367 10.6436L38.6367 4.16504L50.6855 4.16504Q51.7275 4.16504 52.519 3.37354Q53.3105 2.58203 53.3105 1.45117L53.3105-5.03613L60.0381-5.03613Q61.0801-5.03613 61.8472-5.77881Q62.6143-6.52148 62.6631-7.64355L64.0479-42.7412Q63.5791-42.7412 63.3374-42.7412Q63.0957-42.7412 62.8252-42.7412Q61.8008-42.7412 60.7495-42.8521Q59.6982-42.9629 58.7578-43.1094L57.4307-10.375L50.6855-10.375Q49.5459-10.375 48.7832-9.6123Q48.0205-8.84961 48.0205-7.70996L48.0205-1.17383L36.0117-1.17383Q34.8721-1.17383 34.1094-0.406738Q33.3467 0.360352 33.3467 1.45117L33.3467 7.97852L21.3467 7.97852Q20.2559 7.97852 19.4644 8.77002Q18.6729 9.56152 18.6729 10.6436Q18.6729 11.6855 19.4888 12.4771Q20.3047 13.2686 21.3467 13.2686Z"/>
  </g>
  <g id="Regular-S" transform="matrix(1 0 0 1 1407.9 696)">
   <path d="M32.5684-65.8691Q36.0352-65.8691 38.5498-68.3838Q41.0645-70.8984 41.0645-74.3652Q41.0645-77.8809 38.5498-80.3711Q36.0352-82.8613 32.5684-82.8613Q29.0527-82.8613 26.5625-80.3711Q24.0723-77.8809 24.0723-74.3652Q24.0723-70.8984 26.5625-68.3838Q29.0527-65.8691 32.5684-65.8691ZM38.5254-6.54297Q39.8438-6.34766 41.0889-7.03125Q42.334-7.71484 42.8711-9.42383L48.0957-27.002Q48.6328-28.8574 47.9492-30.2734Q47.2656-31.6895 45.5078-32.3242L31.9336-37.207L33.9844-51.3184Q34.1309-52.5879 35.4492-52.002L42.2852-48.877Q42.9199-48.584 43.5547-48.4619Q44.1895-48.3398 45.0684-48.2422L62.2559-46.4844Q63.8672-46.3379 65.1367-47.3389Q66.4062-48.3398 66.5039-49.9512Q66.6504-51.5137 65.625-52.7588Q64.5996-54.0039 63.0371-54.1504L45.459-55.9082L32.2266-62.0117Q29.3945-63.2812 26.709-62.8662Q24.0234-62.4512 22.168-60.6445Q20.3125-58.8379 19.9219-56.0059L17.7246-39.4531Q17.2852-35.791 19.3115-32.8369Q21.3379-29.8828 24.9023-29.0527L39.6484-25.6836L35.4004-11.6699Q34.7168-9.52148 35.8398-8.12988Q36.9629-6.73828 38.5254-6.54297ZM11.6211 5.71289Q12.8906 6.34766 14.4043 6.0791Q15.918 5.81055 17.0898 4.15039L27.5879-11.5723Q27.9297-12.0605 28.125-12.6221Q28.3203-13.1836 28.418-13.916L30.0293-23.877L24.1211-25.1953Q22.6074-25.5371 21.3867-26.123L20.6543-15.1367L10.6445-0.146484Q9.375 1.75781 9.86328 3.36914Q10.3516 4.98047 11.6211 5.71289ZM73.877-58.3008Q73.4375-59.2773 72.5098-59.5947Q71.582-59.9121 70.6543-59.4727Q69.4824-58.8867 68.3594-58.3252Q67.2363-57.7637 66.1621-57.2266Q68.5547-55.957 69.6777-53.5645Q70.4102-53.9551 71.1914-54.3701Q71.9727-54.7852 72.8027-55.2246Q73.6816-55.6641 73.999-56.5674Q74.3164-57.4707 73.877-58.3008ZM20.8984 12.4512L35.4492 12.4512Q36.4258 12.4512 37.1094 11.7676Q37.793 11.084 37.793 10.1074L37.793 3.41797L50 3.41797Q50.9277 3.41797 51.6357 2.70996Q52.3438 2.00195 52.3438 0.976562L52.3438-5.71289L59.3262-5.71289Q60.2539-5.71289 60.9375-6.37207Q61.6211-7.03125 61.6699-8.05664L63.0371-42.627Q62.7441-42.627 62.5244-42.627Q62.3047-42.627 62.0605-42.627Q61.1328-42.627 60.1562-42.7246Q59.1797-42.8223 58.3008-42.9688L56.9824-10.498L50-10.498Q48.9746-10.498 48.291-9.81445Q47.6074-9.13086 47.6074-8.10547L47.6074-1.36719L35.4492-1.36719Q34.4238-1.36719 33.7402-0.683594Q33.0566 0 33.0566 0.976562L33.0566 7.71484L20.8984 7.71484Q19.9219 7.71484 19.2139 8.42285Q18.5059 9.13086 18.5059 10.1074Q18.5059 11.0352 19.2383 11.7432Q19.9707 12.4512 20.8984 12.4512Z"/>
  </g>
  <g id="Light-S" transform="matrix(1 0 0 1 1112.34 696)">
   <path d="M31.8873-65.0973Q35.2633-65.0973 37.6947-67.5287Q40.126-69.96 40.126-73.336Q40.126-76.7456 37.6947-79.1602Q35.2633-81.5748 31.8873-81.5748Q28.4775-81.5748 26.0629-79.1602Q23.6483-76.7456 23.6483-73.336Q23.6483-69.96 26.0629-67.5287Q28.4775-65.0973 31.8873-65.0973ZM37.4659-7.60244Q38.7843-7.33159 40.0597-7.97729Q41.335-8.623 41.8722-10.3472L46.9454-27.4106Q47.4673-29.1903 46.8065-30.5686Q46.1456-31.9468 44.4483-32.5513L31.2828-37.2978L33.2578-50.9855Q33.4043-52.2095 34.6774-51.6388L41.3012-48.6196Q41.936-48.3266 42.5481-48.2045Q43.1602-48.0825 44.0089-48.0001L60.6817-46.3028Q62.2475-46.1563 63.4792-47.127Q64.711-48.0977 64.7934-49.6635Q64.9399-51.1655 63.9524-52.3727Q62.9649-53.58 61.4477-53.7265L44.3995-55.4237L31.5605-61.3457Q28.8043-62.5849 26.2019-62.185Q23.5995-61.7851 21.7971-60.0315Q19.9946-58.2779 19.6192-55.5214L17.4975-39.4684Q17.0581-35.9273 19.0239-33.0564Q20.9897-30.1854 24.4481-29.3856L38.7705-26.1225L34.6436-12.5328Q34.0055-10.5054 35.0073-9.18185Q36.0092-7.85828 37.4659-7.60244ZM11.6364 4.35054Q12.8451 4.95504 14.3059 4.67898Q15.7667 4.40292 16.878 2.8183L27.0732-12.4352Q27.415-12.8932 27.5951-13.4471Q27.7753-14.001 27.873-14.7031L29.4693-24.5733L23.7124-25.8614Q22.2593-26.1879 21.0538-26.7738L20.3364-15.8783L10.6293-1.35752Q9.375 0.51651 9.87091 2.08244Q10.3668 3.64838 11.6364 4.35054ZM71.6367-57.5895Q71.2578-58.3842 70.5041-58.6411Q69.7505-58.8979 68.9893-58.5492Q67.5145-57.812 66.5353-57.3035Q65.5561-56.795 64.709-56.3334Q66.6173-55.2305 67.5585-53.3526Q68.1246-53.6827 68.8301-54.075Q69.5356-54.4673 70.7291-55.0883Q71.4567-55.4522 71.7134-56.1815Q71.9701-56.9107 71.6367-57.5895ZM20.6411 11.1343L34.6924 11.1343Q35.4874 11.1343 36.0423 10.5794Q36.5972 10.0245 36.5972 9.22953L36.5972 2.17667L48.6982 2.17667Q49.4596 2.17667 50.0313 1.60497Q50.603 1.03327 50.603 0.204722L50.603-6.84814L59.1899-6.84814Q59.9513-6.84814 60.5062-7.38627Q61.0611-7.9244 61.0947-8.75295L62.4316-43.0509Q62.1991-43.0206 62.0022-42.9979Q61.8052-42.9751 61.6063-42.9448Q60.8604-42.8843 60.0731-42.9138Q59.2857-42.9433 58.5732-43.0143L57.2701-10.7251L48.6982-10.7251Q47.8696-10.7251 47.3147-10.1702Q46.7598-9.61533 46.7598-8.78652L46.7598-1.70008L34.6924-1.70008Q33.8638-1.70008 33.3013-1.14517Q32.7387-0.590261 32.7387 0.204722L32.7387 7.2759L20.6411 7.2759Q19.8461 7.2759 19.2744 7.85522Q18.7027 8.43455 18.7027 9.22953Q18.7027 9.99069 19.2913 10.5625Q19.8799 11.1343 20.6411 11.1343Z"/>
  </g>
  <g id="Thin-S" transform="matrix(1 0 0 1 817.151 696)">
   <path d="M30.9866-64.0765Q34.2425-64.0765 36.5637-66.3977Q38.8849-68.7189 38.8849-71.9748Q38.8849-75.2441 36.5637-77.5587Q34.2425-79.8732 30.9866-79.8732Q27.7167-79.8732 25.4021-77.5587Q23.0876-75.2441 23.0876-71.9748Q23.0876-68.7189 25.4021-66.3977Q27.7167-64.0765 30.9866-64.0765ZM36.0647-9.00367Q37.383-8.63293 38.6985-9.22852Q40.0139-9.8241 40.551-11.5685L45.4241-27.9511Q45.9258-29.6306 45.2951-30.9589Q44.6643-32.2872 43.0471-32.8517L30.4221-37.4179L32.2969-50.5452Q32.4433-51.709 33.6566-51.1585L39.9999-48.2792Q40.6346-47.9862 41.2168-47.8642Q41.799-47.7421 42.6077-47.6799L58.5997-46.0626Q60.1053-45.9162 61.2871-46.8468Q62.4689-47.7775 62.5311-49.2831Q62.6776-50.7051 61.7402-51.8622Q60.8028-53.0193 59.3455-53.1658L42.9983-54.783L30.6796-60.4648Q28.0236-61.664 25.5312-61.2841Q23.0388-60.9042 21.3065-59.2207Q19.5742-57.5373 19.219-54.8806L17.1971-39.4886Q16.7577-36.1076 18.6435-33.3467Q20.5293-30.5857 23.8474-29.8259L37.6095-26.7031L33.6426-13.674Q33.0647-11.8068 33.9063-10.5732Q34.7479-9.33956 36.0647-9.00367ZM11.6565 2.54871Q12.7849 3.11319 14.1757 2.82721Q15.5665 2.54123 16.5978 1.0565L26.3924-13.5764Q26.7342-13.9944 26.8944-14.5382Q27.0545-15.082 27.1522-15.7441L28.7287-25.4942L23.1719-26.7423Q21.7988-27.0486 20.6135-27.6346L19.916-16.8591L10.6091-2.95922Q9.375-1.12521 9.881 0.380682Q10.387 1.88658 11.6565 2.54871ZM68.6738-56.6487Q68.3749-57.2029 67.8515-57.3797Q67.3281-57.5565 66.7872-57.328Q64.9119-56.3906 64.1228-55.9522Q63.3338-55.5138 62.7871-55.1522Q64.055-54.2695 64.7557-53.0724Q65.1019-53.3225 65.7071-53.6847Q66.3123-54.0468 67.9865-54.908Q68.5139-55.172 68.6904-55.6711Q68.867-56.1701 68.6738-56.6487ZM20.3007 9.39272L33.6914 9.39272Q34.2462 9.39272 34.631 9.008Q35.0157 8.62328 35.0157 8.06845L35.0157 0.534944L46.9764 0.534944Q47.5178 0.534944 47.9093 0.143531Q48.3007-0.247881 48.3007-0.816099L48.3007-8.34961L59.0096-8.34961Q59.551-8.34961 59.9357-8.72763Q60.3205-9.10566 60.3338-9.67388L61.6307-43.6116Q61.4784-43.5413 61.3115-43.4884Q61.1446-43.4356 61.0056-43.3653Q60.5002-43.2247 59.9631-43.1641Q59.426-43.1034 58.9334-43.0745L57.6505-11.0255L46.9764-11.0255Q46.4082-11.0255 46.0235-10.6408Q45.6387-10.2561 45.6387-9.68726L45.6387-2.14037L33.6914-2.14037Q33.1232-2.14037 32.7208-1.75565Q32.3183-1.37093 32.3183-0.816099L32.3183 6.69536L20.3007 6.69536Q19.7459 6.69536 19.3544 7.10449Q18.963 7.51362 18.963 8.06845Q18.963 8.6093 19.3614 9.00101Q19.7598 9.39272 20.3007 9.39272Z"/>
  </g>
  <g id="Ultralight-S" transform="matrix(1 0 0 1 521.219 696)">
   <path d="M30.5252-63.5536Q33.7196-63.5536 35.9844-65.8184Q38.2492-68.0832 38.2492-71.2776Q38.2492-74.4751 35.9844-76.7384Q33.7196-79.0016 30.5252-79.0016Q27.327-79.0016 25.0637-76.7384Q22.8004-74.4751 22.8004-71.2776Q22.8004-68.0832 25.0637-65.8184Q27.327-63.5536 30.5252-63.5536ZM35.347-9.72137Q36.6653-9.29947 38.0013-9.86938Q39.3372-10.4393 39.8743-12.1941L44.6449-28.228Q45.1363-29.8561 44.521-31.1588Q43.9056-32.4615 42.3294-33.0055L29.9812-37.4794L31.8047-50.3197Q31.9511-51.4526 33.1337-50.9125L39.3333-48.1049Q39.9681-47.8119 40.535-47.6898Q41.1018-47.5677 41.89-47.5159L57.5333-45.9396Q59.008-45.7932 60.1643-46.7033Q61.3205-47.6135 61.3724-49.0883Q61.5189-50.4692 60.6071-51.6006Q59.6954-52.7321 58.2687-52.8786L42.2806-54.4548L30.2284-60.0136Q27.6237-61.1923 25.1877-60.8227Q22.7516-60.453 21.0552-58.8055Q19.3588-57.1579 19.014-54.5525L17.0433-39.4989Q16.6039-36.2 18.4486-33.4953Q20.2934-30.7907 23.5397-30.0514L37.0148-27.0004L33.1299-14.2586Q32.5829-12.4733 33.3424-11.2858Q34.1019-10.0983 35.347-9.72137ZM11.6669 1.62582Q12.7541 2.1698 14.109 1.87874Q15.464 1.58768 16.4543 0.154114L26.0437-14.1609Q26.3855-14.5584 26.5354-15.097Q26.6853-15.6357 26.783-16.2773L28.3493-25.9659L22.8951-27.1935Q21.563-27.4895 20.388-28.0754L19.7006-17.3615L10.5988-3.7796Q9.375-1.96609 9.88617-0.490952Q10.3973 0.984192 11.6669 1.62582ZM67.1562-56.1668Q66.8983-56.5979 66.4928-56.7337Q66.0873-56.8695 65.6593-56.7024Q63.5788-55.6625 62.8872-55.2601Q62.1956-54.8576 61.8027-54.5471Q62.7426-53.7773 63.3202-52.9289Q63.5536-53.138 64.1075-53.4847Q64.6614-53.8315 66.5817-54.8157Q67.0067-55.0285 67.1421-55.4096Q67.2775-55.7907 67.1562-56.1668ZM20.1263 8.50067L33.1787 8.50067Q33.6105 8.50067 33.9081 8.20312Q34.2056 7.90558 34.2056 7.47375L34.2056-0.305939L46.0945-0.305939Q46.5233-0.305939 46.8224-0.605011Q47.1214-0.904083 47.1214-1.33896L47.1214-9.11865L58.9172-9.11865Q59.346-9.11865 59.6436-9.41467Q59.9411-9.71069 59.9442-10.1456L61.2206-43.8988Q61.1092-43.808 60.9577-43.7397Q60.8063-43.6714 60.6979-43.5806Q60.3157-43.399 59.9068-43.2922Q59.4978-43.1854 59.1179-43.1053L57.8453-11.1794L46.0945-11.1794Q45.6596-11.1794 45.3621-10.8818Q45.0645-10.5843 45.0645-10.1486L45.0645-2.36588L33.1787-2.36588Q32.7438-2.36588 32.4234-2.06833Q32.103-1.77078 32.103-1.33896L32.103 6.39801L20.1263 6.39801Q19.6945 6.39801 19.3954 6.71997Q19.0964 7.04193 19.0964 7.47375Q19.0964 7.90176 19.3974 8.20122Q19.6983 8.50067 20.1263 8.50067Z"/>
  </g>
 </g>
</svg>
