<?xml version="1.0" encoding="UTF-8"?>
<!--Generator: Apple Native CoreSVG 175.5-->
<!DOCTYPE svg
PUBLIC "-//W3C//DTD SVG 1.1//EN"
       "http://www.w3.org/Graphics/SVG/1.1/DTD/svg11.dtd">
<svg version="1.1" xmlns="http://www.w3.org/2000/svg" xmlns:xlink="http://www.w3.org/1999/xlink" width="3300" height="2200">
 <!--glyph: "uni101314.medium", point size: 100.0, font version: "18.0d9e1", template writer version: "84"-->
 <g id="Notes">
  <rect height="2200" id="artboard" style="fill:white;opacity:1" width="3300" x="0" y="0"/>
  <line style="fill:none;stroke:black;opacity:1;stroke-width:0.5;" x1="263" x2="3036" y1="292" y2="292"/>
  <text style="stroke:none;fill:black;font-family:sans-serif;font-size:13;font-weight:bold;" transform="matrix(1 0 0 1 263 322)">Weight/Scale Variations</text>
  <text style="stroke:none;fill:black;font-family:sans-serif;font-size:13;text-anchor:middle;" transform="matrix(1 0 0 1 559.711 322)">Ultralight</text>
  <text style="stroke:none;fill:black;font-family:sans-serif;font-size:13;text-anchor:middle;" transform="matrix(1 0 0 1 856.422 322)">Thin</text>
  <text style="stroke:none;fill:black;font-family:sans-serif;font-size:13;text-anchor:middle;" transform="matrix(1 0 0 1 1153.13 322)">Light</text>
  <text style="stroke:none;fill:black;font-family:sans-serif;font-size:13;text-anchor:middle;" transform="matrix(1 0 0 1 1449.84 322)">Regular</text>
  <text style="stroke:none;fill:black;font-family:sans-serif;font-size:13;text-anchor:middle;" transform="matrix(1 0 0 1 1746.56 322)">Medium</text>
  <text style="stroke:none;fill:black;font-family:sans-serif;font-size:13;text-anchor:middle;" transform="matrix(1 0 0 1 2043.27 322)">Semibold</text>
  <text style="stroke:none;fill:black;font-family:sans-serif;font-size:13;text-anchor:middle;" transform="matrix(1 0 0 1 2339.98 322)">Bold</text>
  <text style="stroke:none;fill:black;font-family:sans-serif;font-size:13;text-anchor:middle;" transform="matrix(1 0 0 1 2636.69 322)">Heavy</text>
  <text style="stroke:none;fill:black;font-family:sans-serif;font-size:13;text-anchor:middle;" transform="matrix(1 0 0 1 2933.4 322)">Black</text>
  <line style="fill:none;stroke:black;opacity:1;stroke-width:0.5;" x1="263" x2="3036" y1="1903" y2="1903"/>
  <g transform="matrix(1 0 0 1 263 1933)">
   <path d="M9.24805 0.830078Q10.8691 0.830078 12.2949 0.214844Q13.7207-0.400391 14.8096-1.49414Q15.8984-2.58789 16.5186-4.01367Q17.1387-5.43945 17.1387-7.05078Q17.1387-8.66211 16.5186-10.0879Q15.8984-11.5137 14.8047-12.6074Q13.7109-13.7012 12.2852-14.3164Q10.8594-14.9316 9.23828-14.9316Q7.62695-14.9316 6.20117-14.3164Q4.77539-13.7012 3.69141-12.6074Q2.60742-11.5137 1.9873-10.0879Q1.36719-8.66211 1.36719-7.05078Q1.36719-5.43945 1.9873-4.01367Q2.60742-2.58789 3.69629-1.49414Q4.78516-0.400391 6.21094 0.214844Q7.63672 0.830078 9.24805 0.830078ZM9.24805-0.654297Q7.91992-0.654297 6.7627-1.14746Q5.60547-1.64062 4.73145-2.51953Q3.85742-3.39844 3.36426-4.56055Q2.87109-5.72266 2.87109-7.05078Q2.87109-8.37891 3.35938-9.54102Q3.84766-10.7031 4.72168-11.582Q5.5957-12.4609 6.75293-12.9541Q7.91016-13.4473 9.23828-13.4473Q10.5762-13.4473 11.7383-12.9541Q12.9004-12.4609 13.7793-11.582Q14.6582-10.7031 15.1514-9.54102Q15.6445-8.37891 15.6445-7.05078Q15.6445-5.72266 15.1514-4.56055Q14.6582-3.39844 13.7793-2.51953Q12.9004-1.64062 11.7432-1.14746Q10.5859-0.654297 9.24805-0.654297ZM5.6543-7.05078Q5.6543-6.72852 5.85938-6.52832Q6.06445-6.32812 6.40625-6.32812L8.51562-6.32812L8.51562-4.20898Q8.51562-3.88672 8.71094-3.67676Q8.90625-3.4668 9.23828-3.4668Q9.56055-3.4668 9.77051-3.67676Q9.98047-3.88672 9.98047-4.20898L9.98047-6.32812L12.0898-6.32812Q12.4219-6.32812 12.627-6.52832Q12.832-6.72852 12.832-7.05078Q12.832-7.38281 12.627-7.58789Q12.4219-7.79297 12.0898-7.79297L9.98047-7.79297L9.98047-9.90234Q9.98047-10.2344 9.77051-10.4443Q9.56055-10.6543 9.23828-10.6543Q8.90625-10.6543 8.71094-10.4443Q8.51562-10.2344 8.51562-9.90234L8.51562-7.79297L6.40625-7.79297Q6.06445-7.79297 5.85938-7.58789Q5.6543-7.38281 5.6543-7.05078Z"/>
  </g>
  <g transform="matrix(1 0 0 1 281.867 1933)">
   <path d="M11.709 2.91016Q13.75 2.91016 15.5518 2.12891Q17.3535 1.34766 18.7305-0.0292969Q20.1074-1.40625 20.8887-3.20801Q21.6699-5.00977 21.6699-7.05078Q21.6699-9.0918 20.8887-10.8936Q20.1074-12.6953 18.7305-14.0723Q17.3535-15.4492 15.5469-16.2305Q13.7402-17.0117 11.6992-17.0117Q9.6582-17.0117 7.85645-16.2305Q6.05469-15.4492 4.68262-14.0723Q3.31055-12.6953 2.5293-10.8936Q1.74805-9.0918 1.74805-7.05078Q1.74805-5.00977 2.5293-3.20801Q3.31055-1.40625 4.6875-0.0292969Q6.06445 1.34766 7.86621 2.12891Q9.66797 2.91016 11.709 2.91016ZM11.709 1.25Q9.98047 1.25 8.47656 0.605469Q6.97266-0.0390625 5.83496-1.17676Q4.69727-2.31445 4.05762-3.81836Q3.41797-5.32227 3.41797-7.05078Q3.41797-8.7793 4.05762-10.2832Q4.69727-11.7871 5.83008-12.9297Q6.96289-14.0723 8.4668-14.7119Q9.9707-15.3516 11.6992-15.3516Q13.4277-15.3516 14.9365-14.7119Q16.4453-14.0723 17.583-12.9297Q18.7207-11.7871 19.3652-10.2832Q20.0098-8.7793 20.0098-7.05078Q20.0098-5.32227 19.3701-3.81836Q18.7305-2.31445 17.5879-1.17676Q16.4453-0.0390625 14.9414 0.605469Q13.4375 1.25 11.709 1.25ZM7.17773-7.05078Q7.17773-6.69922 7.41211-6.47461Q7.64648-6.25 8.01758-6.25L10.8887-6.25L10.8887-3.36914Q10.8887-2.99805 11.1133-2.76855Q11.3379-2.53906 11.6895-2.53906Q12.0605-2.53906 12.29-2.76855Q12.5195-2.99805 12.5195-3.36914L12.5195-6.25L15.4004-6.25Q15.7715-6.25 16.001-6.47461Q16.2305-6.69922 16.2305-7.05078Q16.2305-7.42188 16.001-7.65137Q15.7715-7.88086 15.4004-7.88086L12.5195-7.88086L12.5195-10.752Q12.5195-11.1328 12.29-11.3623Q12.0605-11.5918 11.6895-11.5918Q11.3379-11.5918 11.1133-11.3574Q10.8887-11.123 10.8887-10.752L10.8887-7.88086L8.01758-7.88086Q7.63672-7.88086 7.40723-7.65137Q7.17773-7.42188 7.17773-7.05078Z"/>
  </g>
  <g transform="matrix(1 0 0 1 305.646 1933)">
   <path d="M14.9707 5.66406Q17.0605 5.66406 18.96 5.01465Q20.8594 4.36523 22.4512 3.19336Q24.043 2.02148 25.2197 0.429688Q26.3965-1.16211 27.0459-3.06641Q27.6953-4.9707 27.6953-7.05078Q27.6953-9.14062 27.0459-11.04Q26.3965-12.9395 25.2197-14.5312Q24.043-16.123 22.4512-17.2998Q20.8594-18.4766 18.9551-19.126Q17.0508-19.7754 14.9609-19.7754Q12.8711-19.7754 10.9717-19.126Q9.07227-18.4766 7.48535-17.2998Q5.89844-16.123 4.72168-14.5312Q3.54492-12.9395 2.90039-11.04Q2.25586-9.14062 2.25586-7.05078Q2.25586-4.9707 2.90527-3.06641Q3.55469-1.16211 4.72656 0.429688Q5.89844 2.02148 7.49023 3.19336Q9.08203 4.36523 10.9814 5.01465Q12.8809 5.66406 14.9707 5.66406ZM14.9707 3.84766Q13.1641 3.84766 11.5283 3.2959Q9.89258 2.74414 8.53516 1.74805Q7.17773 0.751953 6.17676-0.610352Q5.17578-1.97266 4.62891-3.6084Q4.08203-5.24414 4.08203-7.05078Q4.08203-8.86719 4.62891-10.5029Q5.17578-12.1387 6.17188-13.501Q7.16797-14.8633 8.52539-15.8594Q9.88281-16.8555 11.5186-17.4023Q13.1543-17.9492 14.9609-17.9492Q16.7773-17.9492 18.4131-17.4023Q20.0488-16.8555 21.4111-15.8594Q22.7734-14.8633 23.7744-13.501Q24.7754-12.1387 25.3223-10.5029Q25.8691-8.86719 25.8691-7.05078Q25.8691-5.24414 25.3223-3.6084Q24.7754-1.97266 23.7793-0.610352Q22.7832 0.751953 21.4209 1.74805Q20.0586 2.74414 18.4229 3.2959Q16.7871 3.84766 14.9707 3.84766ZM9.19922-7.05078Q9.19922-6.66992 9.45801-6.4209Q9.7168-6.17188 10.1172-6.17188L14.0625-6.17188L14.0625-2.2168Q14.0625-1.81641 14.3115-1.55762Q14.5605-1.29883 14.9512-1.29883Q15.3516-1.29883 15.6104-1.55273Q15.8691-1.80664 15.8691-2.2168L15.8691-6.17188L19.8242-6.17188Q20.2246-6.17188 20.4785-6.4209Q20.7324-6.66992 20.7324-7.05078Q20.7324-7.46094 20.4785-7.71484Q20.2246-7.96875 19.8242-7.96875L15.8691-7.96875L15.8691-11.9141Q15.8691-12.3242 15.6104-12.583Q15.3516-12.8418 14.9512-12.8418Q14.5605-12.8418 14.3115-12.583Q14.0625-12.3242 14.0625-11.9141L14.0625-7.96875L10.1172-7.96875Q9.70703-7.96875 9.45312-7.71484Q9.19922-7.46094 9.19922-7.05078Z"/>
  </g>
  <text style="stroke:none;fill:black;font-family:sans-serif;font-size:13;font-weight:bold;" transform="matrix(1 0 0 1 263 1953)">Design Variations</text>
  <text style="stroke:none;fill:black;font-family:sans-serif;font-size:13;" transform="matrix(1 0 0 1 263 1971)">Symbols are supported in up to nine weights and three scales.</text>
  <text style="stroke:none;fill:black;font-family:sans-serif;font-size:13;" transform="matrix(1 0 0 1 263 1989)">For optimal layout with text and other symbols, vertically align</text>
  <text style="stroke:none;fill:black;font-family:sans-serif;font-size:13;" transform="matrix(1 0 0 1 263 2007)">symbols with the adjacent text.</text>
  <line style="fill:none;stroke:#00AEEF;stroke-width:0.5;opacity:1.0;" x1="776" x2="776" y1="1919" y2="1933"/>
  <g transform="matrix(1 0 0 1 776 1933)">
   <path d="M3.31055 0.15625Q3.70117 0.15625 3.91602-0.00976562Q4.13086-0.175781 4.26758-0.585938L5.52734-4.0332L11.2891-4.0332L12.5488-0.585938Q12.6855-0.175781 12.9004-0.00976562Q13.1152 0.15625 13.4961 0.15625Q13.8867 0.15625 14.1162-0.0585938Q14.3457-0.273438 14.3457-0.644531Q14.3457-0.869141 14.2383-1.17188L9.6582-13.3691Q9.48242-13.8184 9.17969-14.043Q8.87695-14.2676 8.4082-14.2676Q7.5-14.2676 7.17773-13.3789L2.59766-1.16211Q2.49023-0.859375 2.49023-0.634766Q2.49023-0.263672 2.70996-0.0537109Q2.92969 0.15625 3.31055 0.15625ZM6.00586-5.51758L8.37891-12.0898L8.42773-12.0898L10.8008-5.51758Z"/>
  </g>
  <line style="fill:none;stroke:#00AEEF;stroke-width:0.5;opacity:1.0;" x1="793.197" x2="793.197" y1="1919" y2="1933"/>
  <text style="stroke:none;fill:black;font-family:sans-serif;font-size:13;font-weight:bold;" transform="matrix(1 0 0 1 776 1953)">Margins</text>
  <text style="stroke:none;fill:black;font-family:sans-serif;font-size:13;" transform="matrix(1 0 0 1 776 1971)">Leading and trailing margins on the left and right side of each symbol</text>
  <text style="stroke:none;fill:black;font-family:sans-serif;font-size:13;" transform="matrix(1 0 0 1 776 1989)">can be adjusted by modifying the x-location of the margin guidelines.</text>
  <text style="stroke:none;fill:black;font-family:sans-serif;font-size:13;" transform="matrix(1 0 0 1 776 2007)">Modifications are automatically applied proportionally to all</text>
  <text style="stroke:none;fill:black;font-family:sans-serif;font-size:13;" transform="matrix(1 0 0 1 776 2025)">scales and weights.</text>
  <g transform="matrix(1 0 0 1 1289 1933)">
   <path d="M2.8418 1.86523L4.54102 3.57422Q5.18555 4.22852 5.90332 4.17969Q6.62109 4.13086 7.31445 3.35938L18.0078-8.42773L17.041-9.4043L6.42578 2.27539Q6.16211 2.57812 5.89355 2.61719Q5.625 2.65625 5.27344 2.30469L4.10156 1.14258Q3.75 0.791016 3.79395 0.522461Q3.83789 0.253906 4.14062-0.0195312L15.6152-10.8203L14.6387-11.7871L3.04688-0.898438Q2.30469-0.214844 2.25098 0.498047Q2.19727 1.21094 2.8418 1.86523ZM9.25781-16.3281Q8.94531-16.0254 8.90625-15.6348Q8.86719-15.2441 9.04297-14.9512Q9.21875-14.6777 9.55566-14.541Q9.89258-14.4043 10.3809-14.5215Q11.4746-14.7754 12.5977-14.7314Q13.7207-14.6875 14.7949-13.9844L14.209-12.5293Q13.9551-11.9043 14.0674-11.4404Q14.1797-10.9766 14.5801-10.5664L16.875-8.25195Q17.2363-7.88086 17.5781-7.82227Q17.9199-7.76367 18.3398-7.8418L19.4043-8.03711L20.0684-7.36328L20.0293-6.80664Q20-6.43555 20.1221-6.12305Q20.2441-5.81055 20.6055-5.44922L21.3672-4.70703Q21.7285-4.3457 22.1533-4.33105Q22.5781-4.31641 22.9297-4.66797L25.8398-7.58789Q26.1914-7.93945 26.1816-8.35449Q26.1719-8.76953 25.8105-9.13086L25.0391-9.89258Q24.6875-10.2539 24.3799-10.3857Q24.0723-10.5176 23.7109-10.4883L23.1348-10.4395L22.4902-11.0742L22.7344-12.1973Q22.832-12.6172 22.6953-12.9834Q22.5586-13.3496 22.1191-13.7891L19.9219-15.9766Q18.6719-17.2168 17.2607-17.8369Q15.8496-18.457 14.4189-18.4814Q12.9883-18.5059 11.665-17.959Q10.3418-17.4121 9.25781-16.3281ZM10.752-15.957Q11.6602-16.6211 12.7002-16.9043Q13.7402-17.1875 14.8047-17.085Q15.8691-16.9824 16.8701-16.5137Q17.8711-16.0449 18.7012-15.2051L21.1328-12.793Q21.3086-12.6172 21.3525-12.4512Q21.3965-12.2852 21.3379-12.0312L21.0156-10.5469L22.5195-9.0625L23.5059-9.12109Q23.6914-9.13086 23.7891-9.09668Q23.8867-9.0625 24.0332-8.91602L24.6094-8.33984L22.168-5.89844L21.5918-6.47461Q21.4453-6.62109 21.4062-6.71875Q21.3672-6.81641 21.377-7.01172L21.4453-7.98828L19.9512-9.47266L18.4277-9.21875Q18.1836-9.16992 18.042-9.2041Q17.9004-9.23828 17.7148-9.41406L15.7129-11.416Q15.5176-11.5918 15.4932-11.7529Q15.4688-11.9141 15.5859-12.1875L16.4648-14.2773Q15.293-15.3711 13.8281-15.791Q12.3633-16.2109 10.8398-15.7617Q10.7227-15.7324 10.6885-15.8057Q10.6543-15.8789 10.752-15.957Z"/>
  </g>
  <text style="stroke:none;fill:black;font-family:sans-serif;font-size:13;font-weight:bold;" transform="matrix(1 0 0 1 1289 1953)">Exporting</text>
  <text style="stroke:none;fill:black;font-family:sans-serif;font-size:13;" transform="matrix(1 0 0 1 1289 1971)">Symbols should be outlined when exporting to ensure the</text>
  <text style="stroke:none;fill:black;font-family:sans-serif;font-size:13;" transform="matrix(1 0 0 1 1289 1989)">design is preserved when submitting to Xcode.</text>
  <text id="template-version" style="stroke:none;fill:black;font-family:sans-serif;font-size:13;text-anchor:end;" transform="matrix(1 0 0 1 3036 1933)">Template v.2.0</text>
  <text style="stroke:none;fill:black;font-family:sans-serif;font-size:13;text-anchor:end;" transform="matrix(1 0 0 1 3036 1951)">Requires Xcode 12 or greater</text>
  <text id="descriptive-name" style="stroke:none;fill:black;font-family:sans-serif;font-size:13;text-anchor:end;" transform="matrix(1 0 0 1 3036 1969)">Generated from figure.table.tennis</text>
  <text style="stroke:none;fill:black;font-family:sans-serif;font-size:13;text-anchor:end;" transform="matrix(1 0 0 1 3036 1987)">Typeset at 100 points</text>
  <text style="stroke:none;fill:black;font-family:sans-serif;font-size:13;" transform="matrix(1 0 0 1 263 726)">Small</text>
  <text style="stroke:none;fill:black;font-family:sans-serif;font-size:13;" transform="matrix(1 0 0 1 263 1156)">Medium</text>
  <text style="stroke:none;fill:black;font-family:sans-serif;font-size:13;" transform="matrix(1 0 0 1 263 1586)">Large</text>
 </g>
 <g id="Guides">
  <g id="H-reference" style="fill:#27AAE1;stroke:none;" transform="matrix(1 0 0 1 339 696)">
   <path d="M0.993347 0L3.6377 0L29.3282-67.1326L30.0301-67.1326L30.0301-70.459L28.1227-70.459ZM11.6882-24.4797L46.9818-24.4797L46.2311-26.7288L12.4382-26.7288ZM55.1193 0L57.7637 0L30.6381-70.459L29.4327-70.459L29.4327-67.1326Z"/>
  </g>
  <line id="Baseline-S" style="fill:none;stroke:#27AAE1;opacity:1;stroke-width:0.5;" x1="263" x2="3036" y1="696" y2="696"/>
  <line id="Capline-S" style="fill:none;stroke:#27AAE1;opacity:1;stroke-width:0.5;" x1="263" x2="3036" y1="625.541" y2="625.541"/>
  <g id="H-reference" style="fill:#27AAE1;stroke:none;" transform="matrix(1 0 0 1 339 1126)">
   <path d="M0.993347 0L3.6377 0L29.3282-67.1326L30.0301-67.1326L30.0301-70.459L28.1227-70.459ZM11.6882-24.4797L46.9818-24.4797L46.2311-26.7288L12.4382-26.7288ZM55.1193 0L57.7637 0L30.6381-70.459L29.4327-70.459L29.4327-67.1326Z"/>
  </g>
  <line id="Baseline-M" style="fill:none;stroke:#27AAE1;opacity:1;stroke-width:0.5;" x1="263" x2="3036" y1="1126" y2="1126"/>
  <line id="Capline-M" style="fill:none;stroke:#27AAE1;opacity:1;stroke-width:0.5;" x1="263" x2="3036" y1="1055.54" y2="1055.54"/>
  <g id="H-reference" style="fill:#27AAE1;stroke:none;" transform="matrix(1 0 0 1 339 1556)">
   <path d="M0.993347 0L3.6377 0L29.3282-67.1326L30.0301-67.1326L30.0301-70.459L28.1227-70.459ZM11.6882-24.4797L46.9818-24.4797L46.2311-26.7288L12.4382-26.7288ZM55.1193 0L57.7637 0L30.6381-70.459L29.4327-70.459L29.4327-67.1326Z"/>
  </g>
  <line id="Baseline-L" style="fill:none;stroke:#27AAE1;opacity:1;stroke-width:0.5;" x1="263" x2="3036" y1="1556" y2="1556"/>
  <line id="Capline-L" style="fill:none;stroke:#27AAE1;opacity:1;stroke-width:0.5;" x1="263" x2="3036" y1="1485.54" y2="1485.54"/>
  <line id="left-margin" style="fill:none;stroke:#00AEEF;stroke-width:0.5;opacity:1.0;" x1="1381.86" x2="1381.86" y1="1030.79" y2="1150.12"/>
  <line id="right-margin" style="fill:none;stroke:#00AEEF;stroke-width:0.5;opacity:1.0;" x1="1517.82" x2="1517.82" y1="1030.79" y2="1150.12"/>
 </g>
 <g id="Symbols">
  <g id="Black-L" transform="matrix(1 0 0 1 2840.82 1556)">
   <path d="M101.177-79.1217Q107.579-79.1217 112.123-83.6948Q116.667-88.2679 116.667-94.6119Q116.667-101.037 112.123-105.571Q107.579-110.104 101.177-110.104Q94.811-110.104 90.2477-105.571Q85.6844-101.037 85.6844-94.6119Q85.6844-88.2679 90.2477-83.6948Q94.811-79.1217 101.177-79.1217ZM119.438 37.9457Q122.226 37.1624 124.006 34.5902Q125.786 32.018 124.728 28.288L114.742-6.54908Q113.902-9.56298 111.266-11.0613L91.2054-22.8275L100.783-51.3359Q101.149-52.4746 101.962-52.5875Q102.775-52.7003 103.667-51.7873L118.448-37.1072Q120.807-34.7719 123.859-34.7719Q127.038-34.7719 129.371-37.1072L149.287-57.0229Q151.543-59.2999 151.612-62.494Q151.68-65.6881 149.287-68.0247Q147.089-70.2808 143.884-70.3502Q140.68-70.4196 138.285-68.0247L123.859-53.5994L111.902-65.9581Q107.295-70.7841 101.667-72.1968Q96.0384-73.6096 86.7357-73.6096L24.2822-73.6096Q21.0479-73.6096 18.7411-71.3431Q16.4344-69.0766 16.4344-65.7826Q16.4344-62.5495 18.7411-60.2824Q21.0479-58.0152 24.2822-58.0152L70.6325-58.0152Q71.7636-58.0152 72.2998-57.3986Q72.836-56.782 72.3483-55.3424L64.588-32.1586Q62.4046-25.5735 65.1673-19.3276Q67.93-13.0816 74.2763-10.2794L100.665 1.35712L109.814 32.4201Q110.953 36.2614 113.787 37.5167Q116.622 38.772 119.438 37.9457ZM34.6765 35.3543Q36.254 37.4328 38.95 38.1822Q41.6461 38.9316 44.782 37.1944L74.3858 20.8279Q77.1012 19.3088 78.0782 16.2949L82.9591 1.83386L71.266-3.34135Q70.1477-3.87988 69.0885-4.4694Q68.0292-5.05892 67.051-5.71666L63.9238 8.68716L37.1963 23.6757Q33.3835 25.7942 33.0818 29.297Q32.7801 32.7997 34.6765 35.3543ZM127.187-16.4039L169.07-16.4039L169.07-27.8149L127.187-27.8149Q124.834-27.8149 123.163-26.1443Q121.493-24.4737 121.493-22.1204Q121.493-19.7671 123.163-18.0855Q124.834-16.4039 127.187-16.4039ZM24.8749-69.4321L34.5007-69.4321L34.5007-81.1115L24.8749-81.1115ZM29.7072-107.738Q24.0263-107.738 20.0551-103.748Q16.084-99.7583 16.084-94.0369Q16.084-90.5757 17.8944-86.9945Q19.7048-83.4132 22.786-80.77Q25.8671-78.1267 29.7072-77.3249Q33.5473-78.1267 36.6278-80.77Q39.7084-83.4132 41.5188-86.9945Q43.3292-90.5757 43.3292-94.0369Q43.3292-99.7583 39.3691-103.748Q35.409-107.738 29.7072-107.738Z"/>
  </g>
  <g id="Heavy-L" transform="matrix(1 0 0 1 2545.38 1556)">
   <path d="M99.7654-78.4923Q105.971-78.4923 110.395-82.9378Q114.818-87.3832 114.818-93.5446Q114.818-99.792 110.395-104.2Q105.971-108.608 99.7654-108.608Q93.5683-108.608 89.1351-104.2Q84.7019-99.792 84.7019-93.5446Q84.7019-87.3832 89.1351-82.9378Q93.5683-78.4923 99.7654-78.4923ZM117.86 36.504Q120.47 35.73 122.119 33.2973Q123.768 30.8647 122.761 27.3315L112.91-7.06261Q112.103-9.93478 109.585-11.3642L89.5938-23.0872L99.1323-51.4455Q99.5255-52.6857 100.486-52.817Q101.447-52.9483 102.394-51.9708L116.995-37.4805Q119.262-35.2548 122.149-35.2548Q125.204-35.2548 127.418-37.4805L147.081-57.143Q149.232-59.3239 149.291-62.367Q149.351-65.41 147.081-67.6412Q144.975-69.792 141.917-69.8545Q138.859-69.917 136.583-67.6412L122.149-53.2128L110.166-65.5973Q105.664-70.3048 100.161-71.6902Q94.6578-73.0756 85.5051-73.0756L23.8472-73.0756Q20.7639-73.0756 18.5578-70.9097Q16.3517-68.7439 16.3517-65.6104Q16.3517-62.5328 18.5578-60.3641Q20.7639-58.1954 23.8472-58.1954L69.6144-58.1954Q70.7918-58.1954 71.4316-57.4751Q72.0715-56.7548 71.5374-55.2231L63.8858-32.3329Q61.7526-25.9303 64.4447-19.8509Q67.1367-13.7715 73.3094-11.0421L99.4838 0.47746L108.533 31.2668Q109.626 34.9845 112.392 36.1643Q115.158 37.344 117.86 36.504ZM34.275 34.0351Q35.7792 36.0407 38.3611 36.77Q40.9429 37.4992 43.9559 35.8398L73.1889 19.672Q75.7809 18.2123 76.7077 15.3401L81.7132 0.514765L70.454-4.45476Q69.3909-4.97068 68.3752-5.53016Q67.3596-6.08963 66.4271-6.70602L63.2122 8.08038L36.732 22.9249Q33.1071 24.9563 32.7983 28.2801Q32.4894 31.604 34.275 34.0351ZM125.432-17.9685L166.529-17.9685L166.529-28.2549L125.432-28.2549Q123.311-28.2549 121.809-26.7528Q120.307-25.2507 120.307-23.1296Q120.307-21.0084 121.809-19.4884Q123.311-17.9685 125.432-17.9685ZM24.8733-69.2917L33.6531-69.2917L33.6531-80.284L24.8733-80.284ZM29.2732-106.278Q23.7797-106.278 19.9319-102.423Q16.084-98.5681 16.084-93.0199Q16.084-89.6683 17.8373-86.199Q19.5907-82.7298 22.5759-80.1527Q25.5611-77.5756 29.2732-76.7827Q32.9854-77.5756 35.9678-80.1527Q38.9501-82.7298 40.7035-86.199Q42.4568-89.6683 42.4568-93.0199Q42.4568-98.5681 38.6268-102.423Q34.7969-106.278 29.2732-106.278Z"/>
  </g>
  <g id="Bold-L" transform="matrix(1 0 0 1 2250.33 1556)">
   <path d="M97.9241-77.6491Q103.892-77.6491 108.165-81.9369Q112.438-86.2248 112.438-92.1634Q112.438-98.1955 108.165-102.45Q103.892-106.704 97.9241-106.704Q91.9345-106.704 87.659-102.45Q83.3834-98.1955 83.3834-92.1634Q83.3834-86.2248 87.659-81.9369Q91.9345-77.6491 97.9241-77.6491ZM115.782 34.6691Q118.183 33.9028 119.679 31.6356Q121.174 29.3684 120.228 26.0661L110.561-7.72273Q109.792-10.4257 107.414-11.778L87.5662-23.4099L97.0287-51.5093Q97.4528-52.8576 98.5717-53.0082Q99.6906-53.1588 100.7-52.1118L115.048-37.8819Q117.207-35.787 119.901-35.787Q122.818-35.787 124.886-37.8819L144.204-57.1996Q146.231-59.2652 146.28-62.1312Q146.328-64.9972 144.204-67.1052Q142.206-69.1328 139.321-69.1876Q136.436-69.2425 134.298-67.1052L119.901-52.7214L107.933-65.092Q103.561-69.6535 98.2156-71.0043Q92.8699-72.3551 83.909-72.3551L23.3391-72.3551Q20.4328-72.3551 18.346-70.3086Q16.2592-68.262 16.2592-65.3134Q16.2592-62.4204 18.346-60.3671Q20.4328-58.3139 23.3391-58.3139L68.3095-58.3139Q69.5334-58.3139 70.2851-57.4816Q71.0368-56.6494 70.4563-55.0175L62.9504-32.5331Q60.8787-26.3535 63.4824-20.4778Q66.0861-14.602 72.0511-11.9649L97.8971-0.613642L106.808 29.7705Q107.848 33.342 110.533 34.4333Q113.217 35.5245 115.782 34.6691ZM33.7831 32.3613Q35.2025 34.2746 37.646 34.9733Q40.0895 35.672 42.9488 34.1049L71.6761 18.2129Q74.1219 16.8225 74.9873 14.1195L80.124-1.09197L69.3878-5.81535Q68.3863-6.30062 67.4208-6.82916Q66.4552-7.35771 65.5765-7.92784L62.2689 7.26778L36.1483 21.9057Q32.7392 23.837 32.4263 26.9567Q32.1134 30.0763 33.7831 32.3613ZM123.123-19.8899L163.214-19.8899L163.214-28.7631L123.123-28.7631Q121.294-28.7631 120.003-27.4723Q118.712-26.1815 118.712-24.3521Q118.712-22.5228 120.003-21.2064Q121.294-19.8899 123.123-19.8899ZM24.8957-68.9659L32.6005-68.9659L32.6005-79.1576L24.8957-79.1576ZM28.7503-104.42Q23.4798-104.42 19.7819-100.727Q16.084-97.0332 16.084-91.7001Q16.084-88.4793 17.7681-85.1446Q19.4523-81.81 22.3221-79.3136Q25.1919-76.8172 28.7503-76.0397Q32.3087-76.8172 35.1718-79.3136Q38.035-81.81 39.7191-85.1446Q41.4033-88.4793 41.4033-91.7001Q41.4033-97.0332 37.731-100.727Q34.0586-104.42 28.7503-104.42Z"/>
  </g>
  <g id="Semibold-L" transform="matrix(1 0 0 1 1954.76 1556)">
   <path d="M96.6548-77.0678Q102.458-77.0678 106.628-81.247Q110.798-85.4262 110.798-91.2112Q110.798-97.0949 106.628-101.243Q102.458-105.391 96.6548-105.391Q90.8083-105.391 86.6413-101.243Q82.4744-97.0949 82.4744-91.2112Q82.4744-85.4262 86.6413-81.247Q90.8083-77.0678 96.6548-77.0678ZM114.349 33.4041Q116.607 32.6431 117.996 30.49Q119.386 28.3369 118.482 25.1938L108.942-8.17781Q108.199-10.7641 105.916-12.0633L86.1684-23.6323L95.5785-51.5532Q96.0238-52.9761 97.2519-53.14Q98.48-53.3039 99.5316-52.2091L113.706-38.1587Q115.791-36.1539 118.352-36.1539Q121.173-36.1539 123.14-38.1587L142.221-57.2387Q144.163-59.2246 144.203-61.9686Q144.244-64.7125 142.221-66.7357Q140.297-68.6784 137.531-68.7279Q134.765-68.7774 132.723-66.7357L118.352-52.3827L106.393-64.7436Q102.112-69.2045 96.8745-70.5315Q91.6374-71.8584 82.8087-71.8584L22.9888-71.8584Q20.2045-71.8584 18.2-69.8941Q16.1954-67.9298 16.1954-65.1086Q16.1954-62.3429 18.2-60.3692Q20.2045-58.3956 22.9888-58.3956L67.4099-58.3956Q68.6658-58.3956 69.4947-57.4862Q70.3235-56.5767 69.711-54.8757L62.3055-32.6712Q60.2763-26.6453 62.819-20.91Q65.3618-15.1746 71.1837-12.6011L96.8032-1.36584L105.619 28.739Q106.621 32.2096 109.251 33.2399Q111.88 34.2702 114.349 33.4041ZM33.444 31.2074Q34.805 33.0571 37.153 33.7347Q39.5011 34.4124 42.2546 32.9089L70.6332 17.207Q72.9782 15.8643 73.8012 13.278L79.0284-2.19964L68.6527-6.75333Q67.6938-7.21748 66.7628-7.72469Q65.8318-8.23191 64.9902-8.77015L61.6186 6.70757L35.7459 21.203Q32.4855 23.0654 32.1698 26.0443Q31.8541 29.0231 33.444 31.2074ZM121.532-21.2146L160.93-21.2146L160.93-29.1135L121.532-29.1135Q119.904-29.1135 118.759-27.9683Q117.613-26.8231 117.613-25.195Q117.613-23.5668 118.759-22.3907Q119.904-21.2146 121.532-21.2146ZM24.9111-68.7414L31.8748-68.7414L31.8748-78.3811L24.9111-78.3811ZM28.3898-103.139Q23.2731-103.139 19.6785-99.5572Q16.084-95.9751 16.084-90.7903Q16.084-87.6596 17.7204-84.4177Q19.3569-81.1759 22.1472-78.7351Q24.9375-76.2943 28.3898-75.5274Q31.8421-76.2943 34.6231-78.7351Q37.4041-81.1759 39.0405-84.4177Q40.677-87.6596 40.677-90.7903Q40.677-95.9751 37.1133-99.5572Q33.5497-103.139 28.3898-103.139Z"/>
  </g>
  <g id="Medium-L" transform="matrix(1 0 0 1 1658.92 1556)">
   <path d="M95.6923-76.627Q101.371-76.627 105.463-80.7238Q109.554-84.8207 109.554-90.4892Q109.554-96.2603 105.463-100.328Q101.371-104.396 95.6923-104.396Q89.9543-104.396 85.8697-100.328Q81.7852-96.2603 81.7852-90.4892Q81.7852-84.8207 85.8697-80.7238Q89.9543-76.627 95.6923-76.627ZM113.262 32.445Q115.412 31.688 116.721 29.6214Q118.029 27.5548 117.158 24.5324L107.714-8.52287Q106.992-11.0207 104.781-12.2796L85.1085-23.801L94.4789-51.5866Q94.9404-53.066 96.2512-53.2399Q97.562-53.4139 98.6458-52.2828L112.688-38.3686Q114.716-36.4321 117.177-36.4321Q119.926-36.4321 121.817-38.3686L140.717-57.2683Q142.595-59.1939 142.629-61.8453Q142.664-64.4967 140.717-66.4555Q138.849-68.3338 136.174-68.3793Q133.499-68.4248 131.529-66.4555L117.177-52.1259L105.225-64.4794Q101.012-68.864 95.8576-70.1729Q90.7028-71.4818 81.9744-71.4818L22.7232-71.4818Q20.0314-71.4818 18.0892-69.5799Q16.1471-67.6779 16.1471-64.9533Q16.1471-62.2841 18.0892-60.3709Q20.0314-58.4576 22.7232-58.4576L66.7278-58.4576Q68.008-58.4576 68.8954-57.4896Q69.7827-56.5216 69.1459-54.7682L61.8166-32.7759Q59.8194-26.8665 62.316-21.2376Q64.8126-15.6088 70.526-13.0835L95.9738-1.93619L104.718 27.9569Q105.692 31.351 108.279 32.3351Q110.866 33.3191 113.262 32.445ZM33.1869 30.3324Q34.5035 32.1339 36.7792 32.7956Q39.055 33.4573 41.7281 32.0021L69.8424 16.4443Q72.1111 15.1378 72.9019 12.64L78.1978-3.03952L68.0954-7.46455Q67.1687-7.91267 66.2639-8.40372Q65.359-8.89477 64.5455-9.40883L61.1256 6.2828L35.4409 20.6703Q32.2931 22.4803 31.9753 25.3525Q31.6576 28.2246 33.1869 30.3324ZM120.325-22.219L159.197-22.219L159.197-29.3792L120.325-29.3792Q118.849-29.3792 117.815-28.3444Q116.78-27.3097 116.78-25.8341Q116.78-24.3585 117.815-23.2887Q118.849-22.219 120.325-22.219ZM24.9227-68.5711L31.3246-68.5711L31.3246-77.7923L24.9227-77.7923ZM28.1164-102.168Q23.1163-102.168 19.6002-98.6704Q16.084-95.1728 16.084-90.1004Q16.084-87.0381 17.6843-83.8666Q19.2846-80.6951 22.0145-78.2965Q24.7445-75.8979 28.1164-75.139Q31.4884-75.8979 34.207-78.2965Q36.9257-80.6951 38.526-83.8666Q40.1263-87.0381 40.1263-90.1004Q40.1263-95.1728 36.645-98.6704Q33.1638-102.168 28.1164-102.168Z"/>
  </g>
  <g id="Regular-L" transform="matrix(1 0 0 1 1363.33 1556)">
   <path d="M94.4369-76.052Q99.9529-76.052 103.943-80.0415Q107.932-84.0309 107.932-89.5474Q107.932-95.1718 103.943-99.1347Q99.9529-103.098 94.4369-103.098Q88.8404-103.098 84.8633-99.1347Q80.8862-95.1718 80.8862-89.5474Q80.8862-84.0309 84.8633-80.0415Q88.8404-76.052 94.4369-76.052ZM111.845 31.1939Q113.853 30.4422 115.057 28.4884Q116.261 26.5346 115.431 23.6696L106.113-8.97296Q105.416-11.3554 103.3-12.5617L83.726-24.021L93.0446-51.6301Q93.5271-53.1832 94.9459-53.3703Q96.3647-53.5574 97.4905-52.379L111.36-38.6423Q113.315-36.7949 115.645-36.7949Q118.299-36.7949 120.09-38.6423L138.755-57.3069Q140.549-59.1539 140.576-61.6846Q140.602-64.2153 138.755-66.09Q136.961-67.8844 134.404-67.9246Q131.847-67.9648 129.972-66.09L115.645-51.7909L103.702-64.1348Q99.5787-68.4199 94.5312-69.7053Q89.4838-70.9906 80.8862-70.9906L22.3768-70.9906Q19.8057-70.9906 17.9448-69.17Q16.084-67.3493 16.084-64.7508Q16.084-62.2075 17.9448-60.3729Q19.8057-58.5384 22.3768-58.5384L65.8381-58.5384Q67.15-58.5384 68.1136-57.4941Q69.0773-56.4497 68.4088-54.628L61.1788-32.9124Q59.2236-27.1551 61.66-21.6651Q64.0963-16.1751 69.6681-13.7127L94.892-2.68012L103.542 26.9367Q104.479 30.2311 107.011 31.1548Q109.543 32.0785 111.845 31.1939ZM32.8515 29.1912Q34.1103 30.9298 36.2917 31.5706Q38.4731 32.2115 41.0415 30.8192L68.8109 15.4495Q70.9799 14.1902 71.7289 11.8077L77.1142-4.13502L67.3684-8.39223Q66.4838-8.81945 65.6131-9.28941Q64.7424-9.75937 63.9656-10.2419L60.4824 5.72875L35.0429 19.9754Q32.0422 21.7172 31.7217 24.4501Q31.4012 27.183 32.8515 29.1912ZM118.751-23.5291L156.938-23.5291L156.938-29.7258L118.751-29.7258Q117.474-29.7258 116.584-28.835Q115.693-27.9443 115.693-26.6676Q115.693-25.391 116.584-24.46Q117.474-23.5291 118.751-23.5291ZM24.938-68.349L30.607-68.349L30.607-77.0243L24.938-77.0243ZM27.7599-100.901Q22.9119-100.901 19.4979-97.5138Q16.084-94.1263 16.084-89.2006Q16.084-86.2274 17.6371-83.1477Q19.1902-80.068 21.8415-77.7244Q24.4929-75.3808 27.7599-74.6323Q31.027-75.3808 33.6643-77.7244Q36.3017-80.068 37.8548-83.1477Q39.4079-86.2274 39.4079-89.2006Q39.4079-94.1263 36.0342-97.5138Q32.6605-100.901 27.7599-100.901Z"/>
  </g>
  <g id="Light-L" transform="matrix(1 0 0 1 1068.3 1556)">
   <path d="M92.5665-75.0596Q97.9488-75.0596 101.834-78.944Q105.718-82.8285 105.718-88.2116Q105.718-93.7215 101.834-97.5888Q97.9488-101.456 92.5665-101.456Q87.1037-101.456 83.2124-97.5888Q79.321-93.7215 79.321-88.2116Q79.321-82.8285 83.2124-78.944Q87.1037-75.0596 92.5665-75.0596ZM109.612 29.6098Q111.563 28.8389 112.71 26.952Q113.856 25.065 113.065 22.2764L103.975-9.58381Q103.298-11.8899 101.22-13.0962L82.1227-24.25L91.2124-51.2103Q91.6949-52.7253 93.066-52.9028Q94.4372-53.0802 95.5631-51.9211L109.07-38.5278Q110.987-36.7375 113.259-36.7375Q115.913-36.7375 117.609-38.5278L135.835-56.7535Q137.591-58.543 137.608-61.0165Q137.625-63.4899 135.835-65.3266Q134.079-67.0828 131.589-67.123Q129.098-67.1632 127.262-65.3266L113.259-51.3712L101.622-63.4095Q97.5938-67.5994 92.6705-68.856Q87.7471-70.1127 79.321-70.1127L22.2242-70.1127Q19.7101-70.1127 17.897-68.3398Q16.084-66.5669 16.084-64.0065Q16.084-61.5396 17.897-59.7432Q19.7101-57.9468 22.2242-57.9468L64.6549-57.9468Q65.9286-57.9468 66.8635-56.931Q67.7985-55.9152 67.1682-54.1127L60.1101-32.9506Q58.193-27.327 60.5625-21.9609Q62.932-16.5948 68.4086-14.2091L93.0027-3.4436L101.461 25.4671Q102.38 28.7042 104.883 29.5993Q107.386 30.4945 109.612 29.6098ZM32.5462 27.779Q33.7858 29.441 35.8909 30.0246Q37.9959 30.6082 40.4499 29.2541L67.5703 14.2663Q69.6823 13.0259 70.393 10.7198L75.721-5.07005L66.2422-9.21279Q65.3576-9.60185 64.4966-10.0909Q63.6355-10.5799 62.8776-11.0624L59.4326 4.77448L34.585 18.6966Q31.6225 20.4195 31.3305 23.1237Q31.0385 25.8279 32.5462 27.779ZM116.289-24.7504L153.579-24.7504L153.579-29.8402L116.289-29.8402Q115.241-29.8402 114.513-29.1117Q113.784-28.3832 113.784-27.3356Q113.784-26.2879 114.513-25.5192Q115.241-24.7504 116.289-24.7504ZM25.1098-67.1466L29.8627-67.1466L29.8627-75.5929L25.1098-75.5929ZM27.4928-99.2979Q22.74-99.2979 19.412-95.987Q16.084-92.676 16.084-87.9029Q16.084-84.9868 17.5989-81.9739Q19.1139-78.9611 21.708-76.6651Q24.3021-74.3691 27.4928-73.6592Q30.6835-74.3691 33.2541-76.6651Q35.8246-78.9611 37.3396-81.9739Q38.8545-84.9868 38.8545-87.9029Q38.8545-92.676 35.5667-95.987Q32.2789-99.2979 27.4928-99.2979Z"/>
  </g>
  <g id="Thin-L" transform="matrix(1 0 0 1 773.812 1556)">
   <path d="M90.0928-73.747Q95.2982-73.747 99.0444-77.4926Q102.791-81.2381 102.791-86.4448Q102.791-91.8033 99.0444-95.5443Q95.2982-99.2853 90.0928-99.2853Q84.8068-99.2853 81.0289-95.5443Q77.251-91.8033 77.251-86.4448Q77.251-81.2381 81.0289-77.4926Q84.8068-73.747 90.0928-73.747ZM106.659 27.5148Q108.534 26.7185 109.605 24.9199Q110.676 23.1214 109.935 20.4337L101.148-10.3917Q100.496-12.5969 98.4685-13.8032L80.0022-24.5528L88.7891-50.6552Q89.2716-52.1197 90.5798-52.2844Q91.888-52.4492 93.0139-51.3155L106.041-38.3764Q107.908-36.6616 110.104-36.6616Q112.758-36.6616 114.327-38.3764L131.974-56.0215Q133.678-57.7351 133.683-60.1329Q133.687-62.5306 131.974-64.3168Q130.268-66.0225 127.866-66.0627Q125.463-66.103 123.677-64.3168L110.104-50.816L98.8706-62.4502Q94.9687-66.5141 90.2095-67.7328Q85.4502-68.9515 77.251-68.9515L22.0223-68.9515Q19.5837-68.9515 17.8339-67.2418Q16.084-65.5322 16.084-63.0222Q16.084-60.6562 17.8339-58.9103Q19.5837-57.1643 22.0223-57.1643L63.09-57.1643Q64.3132-57.1643 65.2102-56.1863Q66.1072-55.2082 65.5274-53.4312L58.6966-33.001Q56.83-27.5543 59.111-22.3521Q61.3921-17.1499 66.7427-14.8656L90.5039-4.45337L98.7097 23.5235Q99.6034 26.6846 102.069 27.542Q104.534 28.3994 106.659 27.5148ZM32.1425 25.9113Q33.3566 27.4719 35.3608 27.9798Q37.3649 28.4877 39.6674 27.1841L65.9295 12.7013Q67.966 11.486 68.6262 9.28081L73.8783-6.30671L64.7528-10.298Q63.8682-10.6366 63.0199-11.1509Q62.1715-11.6652 61.4387-12.1477L58.0441 3.51238L33.9794 17.0053Q31.0674 18.7032 30.8131 21.3694Q30.5589 24.0357 32.1425 25.9113ZM113.033-26.3658L149.136-26.3658L149.136-29.9916L113.033-29.9916Q112.288-29.9916 111.774-29.4777Q111.26-28.9638 111.26-28.2189Q111.26-27.4741 111.774-26.9199Q112.288-26.3658 113.033-26.3658ZM25.3372-65.5562L28.8784-65.5562L28.8784-73.6997L25.3372-73.6997ZM27.1395-97.1775Q22.5127-97.1775 19.2983-93.9676Q16.084-90.7578 16.084-86.1866Q16.084-83.3459 17.5485-80.4215Q19.0129-77.4971 21.5313-75.2641Q24.0497-73.0311 27.1395-72.372Q30.2293-73.0311 32.7114-75.2641Q35.1936-77.4971 36.658-80.4215Q38.1225-83.3459 38.1225-86.1866Q38.1225-90.7578 34.9484-93.9676Q31.7742-97.1775 27.1395-97.1775Z"/>
  </g>
  <g id="Ultralight-L" transform="matrix(1 0 0 1 478.239 1556)">
   <path d="M88.8257-73.0747Q93.9406-73.0747 97.6157-76.7491Q101.291-80.4235 101.291-85.5399Q101.291-90.8208 97.6157-94.4971Q93.9406-98.1734 88.8257-98.1734Q83.6304-98.1734 79.9106-94.4971Q76.1908-90.8208 76.1908-85.5399Q76.1908-80.4235 79.9106-76.7491Q83.6304-73.0747 88.8257-73.0747ZM105.146 26.4418Q106.983 25.6324 108.015 23.8791Q109.047 22.1259 108.332 19.4899L99.7003-10.8055Q99.0607-12.959 97.0591-14.1653L78.9162-24.7078L87.5479-50.3708Q88.0304-51.8095 89.3064-51.9677Q90.5823-52.126 91.7082-51.0053L104.49-38.2989Q106.331-36.6227 108.488-36.6227Q111.142-36.6227 112.647-38.2989L129.996-55.6466Q131.674-57.3213 131.672-59.6803Q131.67-62.0393 129.996-63.7996Q128.316-65.4795 125.959-65.5197Q123.602-65.5599 121.841-63.7996L108.488-50.5317L97.4612-61.9589Q93.6241-65.9583 88.9489-67.1575Q84.2737-68.3567 76.1908-68.3567L21.9189-68.3567Q19.519-68.3567 17.8015-66.6794Q16.084-65.0021 16.084-62.5181Q16.084-60.2037 17.8015-58.4836Q19.519-56.7635 21.9189-56.7635L62.2885-56.7635Q63.4858-56.7635 64.3634-55.8048Q65.241-54.8461 64.687-53.0821L57.9726-33.0269Q56.1318-27.6707 58.3676-22.5525Q60.6034-17.4343 65.8895-15.2018L89.2241-4.97057L97.3004 22.528Q98.1813 25.6502 100.627 26.4883Q103.073 27.3264 105.146 26.4418ZM31.9357 24.9547Q33.1368 26.4634 35.0892 26.9325Q37.0417 27.4016 39.2666 26.1238L65.089 11.8998Q67.0869 10.6973 67.7213 8.54379L72.9345-6.94011L63.99-10.8539Q63.1053-11.1667 62.2635-11.6938Q61.4217-12.221 60.7017-12.7036L57.333 2.86594L33.6692 16.139Q30.783 17.8241 30.5481 20.4709Q30.3132 23.1177 31.9357 24.9547ZM111.365-27.1932L146.861-27.1932L146.861-30.0692L111.365-30.0692Q110.775-30.0692 110.371-29.6652Q109.967-29.2612 109.967-28.6714Q109.967-28.0816 110.371-27.6374Q110.775-27.1932 111.365-27.1932ZM25.4536-64.7417L28.3742-64.7417L28.3742-72.7301L25.4536-72.7301ZM26.9586-96.0914Q22.3963-96.0914 19.2401-92.9334Q16.084-89.7753 16.084-85.3075Q16.084-82.5055 17.5226-79.6264Q18.9612-76.7473 21.4409-74.5465Q23.9205-72.3458 26.9586-71.7128Q29.9967-72.3458 32.4335-74.5465Q34.8703-76.7473 36.309-79.6264Q37.7476-82.5055 37.7476-85.3075Q37.7476-89.7753 34.6317-92.9334Q31.5157-96.0914 26.9586-96.0914Z"/>
  </g>
  <g id="Black-M" transform="matrix(1 0 0 1 2860.81 1126)">
   <path d="M79.3456-69.6411Q84.4564-69.6411 88.0663-73.2796Q91.6763-76.9181 91.6763-81.9717Q91.6763-87.0874 88.0663-90.6946Q84.4564-94.3018 79.3456-94.3018Q74.2868-94.3018 70.6512-90.6946Q67.0156-87.0874 67.0156-81.9717Q67.0156-76.9181 70.6512-73.2796Q74.2868-69.6411 79.3456-69.6411ZM93.5875 22.4869Q95.8935 21.8693 97.3765 19.7657Q98.8596 17.6621 98.0023 14.6134L90.1798-12.651Q89.5046-15.0974 87.365-16.3175L71.8285-25.4289L79.2513-47.5567Q79.511-48.3466 80.0077-48.4169Q80.5044-48.4871 81.1483-47.8377L92.7059-36.348Q94.6067-34.4521 97.1047-34.4521Q99.6746-34.4521 101.571-36.348L117.159-51.9356Q118.992-53.7744 119.052-56.3711Q119.112-58.9678 117.159-60.8634Q115.383-62.6966 112.783-62.7563Q110.184-62.816 108.231-60.8634L97.1047-49.7368L87.9049-59.2481Q84.2588-63.0759 79.8075-64.19Q75.3562-65.3041 68.0433-65.3041L19.1657-65.3041Q16.5378-65.3041 14.6707-63.4681Q12.8035-61.6321 12.8035-58.9475Q12.8035-56.3193 14.6707-54.4835Q16.5378-52.6476 19.1657-52.6476L55.4367-52.6476Q56.268-52.6476 56.5905-52.2628Q56.913-51.8781 56.5801-50.8445L50.4977-32.7058Q48.7682-27.4652 50.9602-22.4999Q53.1522-17.5346 58.2053-15.3114L78.7491-6.23174L85.8962 17.9736Q86.8154 21.048 89.0665 22.0816Q91.3176 23.1151 93.5875 22.4869ZM27.169 20.3972Q28.4516 22.0597 30.6281 22.6499Q32.8046 23.24 35.3243 21.8325L58.4903 9.03373Q60.6924 7.80819 61.4873 5.36174L65.1539-5.50797L55.758-9.67868Q54.8442-10.1102 53.9875-10.5953Q53.1307-11.0804 52.3361-11.6256L49.9938-0.813223L29.1546 10.8788Q26.0442 12.5924 25.8205 15.456Q25.5968 18.3197 27.169 20.3972ZM99.7122-19.4654L132.715-19.4654L132.715-29.1224L99.7122-29.1224Q97.7205-29.1224 96.3034-27.7053Q94.8863-26.2882 94.8863-24.2965Q94.8863-22.3048 96.3034-20.8851Q97.7205-19.4654 99.7122-19.4654ZM19.2963-61.6854L27.3568-61.6854L27.3568-71.2934L19.2963-71.2934ZM23.3522-92.4425Q18.8027-92.4425 15.6318-89.2458Q12.4609-86.0491 12.4609-81.4884Q12.4609-78.7203 13.9074-75.8586Q15.3539-72.9969 17.8157-70.8986Q20.2775-68.8004 23.3522-68.1768Q26.4269-68.8004 28.8888-70.8986Q31.3508-72.9969 32.7973-75.8586Q34.2438-78.7203 34.2438-81.4884Q34.2438-86.0491 31.0755-89.2458Q27.9072-92.4425 23.3522-92.4425Z"/>
  </g>
  <g id="Heavy-M" transform="matrix(1 0 0 1 2565.19 1126)">
   <path d="M78.1384-69.1174Q83.0695-69.1174 86.5711-72.6407Q90.0726-76.1641 90.0726-81.0517Q90.0726-86.0038 86.5711-89.4971Q83.0695-92.9904 78.1384-92.9904Q73.2321-92.9904 69.7158-89.4971Q66.1996-86.0038 66.1996-81.0517Q66.1996-76.1641 69.7158-72.6407Q73.2321-69.1174 78.1384-69.1174ZM92.2508 21.2236Q94.3874 20.617 95.7483 18.6436Q97.1091 16.6702 96.2974 13.8069L88.5864-13.0967Q87.9407-15.4116 85.914-16.5643L70.4009-25.6617L77.8066-47.7026Q78.0932-48.5952 78.7385-48.6844Q79.3838-48.7735 80.0816-48.0594L91.4963-36.7234Q93.3111-34.9295 95.6532-34.9295Q98.1019-34.9295 99.8912-36.7234L115.272-52.104Q117.006-53.8543 117.057-56.3086Q117.109-58.7629 115.272-60.559Q113.582-62.2928 111.119-62.3457Q108.657-62.3987 106.817-60.559L95.6532-49.3976L86.4-58.9623Q82.8475-62.683 78.5072-63.7731Q74.1668-64.8631 66.9847-64.8631L18.7545-64.8631Q16.269-64.8631 14.4958-63.1211Q12.7227-61.3791 12.7227-58.8478Q12.7227-56.3646 14.4958-54.6214Q16.269-52.8783 18.7545-52.8783L54.5505-52.8783Q55.4307-52.8783 55.8571-52.3895Q56.2835-51.9008 55.9018-50.7754L49.9098-32.8726Q48.2259-27.7981 50.355-22.9842Q52.4841-18.1703 57.3763-16.0112L77.7684-7.02124L84.8359 16.9817Q85.7122 19.9406 87.8988 20.903Q90.0854 21.8654 92.2508 21.2236ZM26.8047 19.2378Q28.0174 20.8362 30.0893 21.4119Q32.1613 21.9877 34.5713 20.6526L57.4347 8.01283Q59.5214 6.84372 60.2708 4.52877L64.0645-6.71122L55.0681-10.6914Q54.2083-11.1043 53.3932-11.5583Q52.5781-12.0123 51.8265-12.517L49.395-1.31836L28.7429 10.2628Q25.8128 11.893 25.5794 14.5844Q25.3461 17.2758 26.8047 19.2378ZM98.2236-20.8822L130.54-20.8822L130.54-29.542L98.2236-29.542Q96.4377-29.542 95.1703-28.2747Q93.903-27.0073 93.903-25.2214Q93.903-23.4355 95.1703-22.1588Q96.4377-20.8822 98.2236-20.8822ZM19.2789-61.6591L26.5968-61.6591L26.5968-70.6165L19.2789-70.6165ZM22.9526-91.1632Q18.5776-91.1632 15.5193-88.0913Q12.4609-85.0193 12.4609-80.6138Q12.4609-77.9477 13.8552-75.1893Q15.2494-72.4308 17.6227-70.3929Q19.9959-68.3549 22.9526-67.7365Q25.9093-68.3549 28.2814-70.3929Q30.6535-72.4308 32.0478-75.1893Q33.442-77.9477 33.442-80.6138Q33.442-85.0193 30.393-88.0913Q27.344-91.1632 22.9526-91.1632Z"/>
  </g>
  <g id="Bold-M" transform="matrix(1 0 0 1 2269.69 1126)">
   <path d="M76.7878-68.5315Q81.5181-68.5315 84.8984-71.9261Q88.2787-75.3206 88.2787-80.0224Q88.2787-84.7916 84.8984-88.1575Q81.5181-91.5235 76.7878-91.5235Q72.0524-91.5235 68.6695-88.1575Q65.2867-84.7916 65.2867-80.0224Q65.2867-75.3206 68.6695-71.9261Q72.0524-68.5315 76.7878-68.5315ZM90.7555 19.8105Q92.7027 19.216 93.9268 17.3883Q95.1509 15.5606 94.3902 12.9047L86.8039-13.5952Q86.1912-15.763 84.2909-16.8403L68.8041-25.9221L76.1905-47.8658Q76.5072-48.8732 77.3187-48.9836Q78.1303-49.0939 78.8883-48.3073L90.1432-37.1434Q91.8618-35.4636 94.0295-35.4636Q96.3425-35.4636 98.012-37.1434L113.161-52.2924Q114.784-53.9436 114.826-56.2386Q114.869-58.5336 113.161-60.2184Q111.567-61.841 109.258-61.8865Q106.948-61.9319 105.235-60.2184L94.0295-49.0181L84.7166-58.6425Q81.2688-62.2435 77.0526-63.3067Q72.8363-64.3698 65.8006-64.3698L18.2945-64.3698Q15.9683-64.3698 14.3002-62.7329Q12.6322-61.096 12.6322-58.7362Q12.6322-56.4152 14.3002-54.7758Q15.9683-53.1363 18.2945-53.1363L53.5592-53.1363Q54.494-53.1363 55.0367-52.5312Q55.5794-51.9262 55.1431-50.6982L49.2523-33.0592Q47.6193-28.1706 49.6781-23.526Q51.7369-18.8813 56.4489-16.794L76.6713-7.9044L83.6499 15.8721Q84.4781 18.7019 86.5926 19.5846Q88.7071 20.4673 90.7555 19.8105ZM26.3972 17.9409Q27.5316 19.4675 29.4866 20.0271Q31.4416 20.5867 33.729 19.3328L56.254 6.87081Q58.2115 5.76483 58.91 3.59698L62.8458-8.05722L54.2964-11.8243Q53.4969-12.2164 52.7285-12.6356Q51.9601-13.0548 51.2565-13.5143L48.7251-1.88343L28.2824 9.57378Q25.5539 11.1107 25.3098 13.6093Q25.0656 16.108 26.3972 17.9409ZM96.5583-22.467L128.108-22.467L128.108-30.0114L96.5583-30.0114Q95.0027-30.0114 93.9028-28.9115Q92.803-27.8117 92.803-26.2561Q92.803-24.7004 93.9028-23.5837Q95.0027-22.467 96.5583-22.467ZM19.2594-61.6296L25.7467-61.6296L25.7467-69.8594L19.2594-69.8594ZM22.5056-89.7321Q18.3257-89.7321 15.3933-86.7998Q12.4609-83.8674 12.4609-79.6355Q12.4609-77.0835 13.7967-74.4406Q15.1324-71.7977 17.4067-69.8272Q19.6809-67.8566 22.5056-67.2439Q25.3302-67.8566 27.6019-69.8272Q29.8736-71.7977 31.2093-74.4406Q32.5451-77.0835 32.5451-79.6355Q32.5451-83.8674 29.6295-86.7998Q26.714-89.7321 22.5056-89.7321Z"/>
  </g>
  <g id="Semibold-M" transform="matrix(1 0 0 1 1973.82 1126)">
   <path d="M75.8568-68.1276Q80.4485-68.1276 83.7453-71.4334Q87.042-74.7392 87.042-79.3129Q87.042-83.9559 83.7453-87.2341Q80.4485-90.5122 75.8568-90.5122Q71.2391-90.5122 67.9482-87.2341Q64.6574-83.9559 64.6574-79.3129Q64.6574-74.7392 67.9482-71.4334Q71.2391-68.1276 75.8568-68.1276ZM89.7247 18.8363Q91.5412 18.2503 92.6711 16.523Q93.801 14.7957 93.0754 12.2828L85.5751-13.9389Q84.9851-16.0053 83.1718-17.0307L67.7032-26.1017L75.0763-47.9783Q75.4139-49.0649 76.34-49.1899Q77.2661-49.3148 78.0657-48.4782L89.2103-37.4329Q90.8627-35.8317 92.9102-35.8317Q95.1296-35.8317 96.7165-37.4329L111.706-52.4223Q113.252-54.0052 113.288-56.1903Q113.325-58.3755 111.706-59.9837Q110.178-61.5296 107.975-61.5698Q105.771-61.6101 104.144-59.9837L92.9102-48.7566L83.556-58.4221Q80.1805-61.9405 76.0498-62.9851Q71.9191-64.0297 64.9842-64.0297L17.9773-64.0297Q15.761-64.0297 14.1654-62.4653Q12.5699-60.9009 12.5699-58.6593Q12.5699-56.4501 14.1654-54.8822Q15.761-53.3142 17.9773-53.3142L52.8759-53.3142Q53.8482-53.3142 54.4711-52.6289Q55.0939-51.9437 54.62-50.645L48.7989-33.1878Q47.201-28.4273 49.2114-23.8994Q51.2217-19.3715 55.8096-17.3337L75.9149-8.51325L82.8322 15.1072Q83.6273 17.8479 85.6921 18.6757Q87.7568 19.5035 89.7247 18.8363ZM26.1162 17.0468Q27.1967 18.5239 29.0711 19.0724Q30.9455 19.621 33.1483 18.4229L55.4399 6.0835Q57.3085 5.02104 57.9718 2.9546L62.0056-8.98515L53.7644-12.6053Q53.0064-12.9831 52.2702-13.3783Q51.5339-13.7734 50.8635-14.2017L48.2634-2.27298L27.9649 9.09874Q25.3755 10.5713 25.1239 12.9371Q24.8723 15.3029 26.1162 17.0468ZM95.4103-23.5596L126.431-23.5596L126.431-30.3349L95.4103-30.3349Q94.0134-30.3349 93.029-29.3506Q92.0447-28.3662 92.0447-26.9694Q92.0447-25.5725 93.029-24.566Q94.0134-23.5596 95.4103-23.5596ZM19.246-61.6093L25.1606-61.6093L25.1606-69.3374L19.246-69.3374ZM22.1974-88.7456Q18.1521-88.7456 15.3065-85.9094Q12.4609-83.0733 12.4609-78.9611Q12.4609-76.4877 13.7564-73.9244Q15.0518-71.3612 17.2578-69.4371Q19.4638-67.5131 22.1974-66.9044Q24.9311-67.5131 27.1335-69.4371Q29.3359-71.3612 30.6313-73.9244Q31.9267-76.4877 31.9267-78.9611Q31.9267-83.0733 29.1032-85.9094Q26.2797-88.7456 22.1974-88.7456Z"/>
  </g>
  <g id="Medium-M" transform="matrix(1 0 0 1 1677.75 1126)">
   <path d="M75.1509-67.8214Q79.6376-67.8214 82.8709-71.0598Q86.1043-74.2983 86.1043-78.7749Q86.1043-83.3223 82.8709-86.5338Q79.6376-89.7454 75.1509-89.7454Q70.6224-89.7454 67.4013-86.5338Q64.1802-83.3223 64.1802-78.7749Q64.1802-74.2983 67.4013-71.0598Q70.6224-67.8214 75.1509-67.8214ZM88.943 18.0976Q90.6606 17.5179 91.719 15.8668Q92.7774 14.2157 92.0784 11.8112L84.6434-14.1995Q84.0706-16.189 82.3234-17.175L66.8684-26.2378L74.2316-48.0636Q74.5848-49.2103 75.5978-49.3463Q76.6108-49.4823 77.442-48.6078L88.503-37.6524Q90.1051-36.1109 92.0614-36.1109Q94.21-36.1109 95.7342-37.6524L110.603-52.5208Q112.09-54.0519 112.122-56.1538Q112.154-58.2556 110.603-59.8057Q109.125-61.2935 107.002-61.3297Q104.878-61.366 103.318-59.8057L92.0614-48.5582L82.676-58.255Q79.3553-61.7108 75.2894-62.7413Q71.2236-63.7718 64.3652-63.7718L17.7369-63.7718Q15.6038-63.7718 14.0632-62.2624Q12.5226-60.7529 12.5226-58.601Q12.5226-56.4766 14.0632-54.9628Q15.6038-53.4491 17.7369-53.4491L52.3577-53.4491Q53.3586-53.4491 54.0422-52.703Q54.7259-51.957 54.2234-50.6046L48.4552-33.2854Q46.8839-28.622 48.8575-24.1826Q50.8311-19.7432 55.3248-17.7429L75.3414-8.9749L82.2122 14.5272Q82.9822 17.2003 85.0093 17.9865Q87.0363 18.7727 88.943 18.0976ZM25.9032 16.3689Q26.9428 17.8085 28.7561 18.3486Q30.5693 18.8887 32.708 17.733L54.8227 5.48654Q56.6238 4.45708 57.2604 2.46753L61.3685-9.68874L53.361-13.1975Q52.6346-13.5644 51.9227-13.9414Q51.2109-14.3184 50.5655-14.723L47.9132-2.56836L27.7241 8.73855Q25.2402 10.1624 24.9829 12.4274Q24.7257 14.6925 25.9032 16.3689ZM94.5398-24.3881L125.159-24.3881L125.159-30.5803L94.5398-30.5803Q93.2632-30.5803 92.3665-29.6835Q91.4697-28.7867 91.4697-27.5102Q91.4697-26.2337 92.3665-25.3109Q93.2632-24.3881 94.5398-24.3881ZM19.2358-61.5939L24.7162-61.5939L24.7162-68.9416L19.2358-68.9416ZM21.9638-87.9975Q18.0205-87.9975 15.2407-85.2343Q12.4609-82.4712 12.4609-78.4497Q12.4609-76.0359 13.7258-73.5331Q14.9907-71.0302 17.1449-69.1414Q19.2991-67.2526 21.9638-66.6469Q24.6284-67.2526 26.7783-69.1414Q28.9282-71.0302 30.193-73.5331Q31.4579-76.0359 31.4579-78.4497Q31.4579-82.4712 28.7042-85.2343Q25.9504-87.9975 21.9638-87.9975Z"/>
  </g>
  <g id="Regular-M" transform="matrix(1 0 0 1 1381.86 1126)">
   <path d="M74.23-67.422Q78.5798-67.422 81.7305-70.5726Q84.8812-73.7232 84.8812-78.0731Q84.8812-82.4958 81.7305-85.6205Q78.5798-88.7452 74.23-88.7452Q69.818-88.7452 66.6879-85.6205Q63.5578-82.4958 63.5578-78.0731Q63.5578-73.7232 66.6879-70.5726Q69.818-67.422 74.23-67.422ZM87.9235 17.1341Q89.5119 16.5628 90.4771 15.011Q91.4423 13.4592 90.7781 11.1961L83.4281-14.5394Q82.8778-16.4286 81.2167-17.3632L65.7797-26.4153L73.1297-48.1749Q73.5035-49.3999 74.6298-49.5503Q75.7561-49.7008 76.6284-48.7768L87.5804-37.9388Q89.1169-36.475 90.9544-36.475Q93.0104-36.475 94.4529-37.9388L109.164-52.6492Q110.575-54.1128 110.601-56.106Q110.627-58.0993 109.164-59.5735Q107.752-60.9854 105.732-61.0166Q103.713-61.0477 102.239-59.5735L90.9544-48.2995L81.5282-58.037Q78.2789-61.4111 74.2977-62.4233Q70.3165-63.4354 63.5578-63.4354L17.4232-63.4354Q15.3987-63.4354 13.9298-61.9977Q12.4609-60.5599 12.4609-58.525Q12.4609-56.5111 13.9298-55.0681Q15.3987-53.625 17.4232-53.625L51.6818-53.625Q52.7199-53.625 53.4828-52.7997Q54.2458-51.9743 53.7061-50.5519L48.0068-33.4126Q46.4703-28.876 48.3959-24.552Q50.3216-20.228 54.6925-18.2767L74.5934-9.57706L81.4036 13.7707Q82.1408 16.3557 84.1187 17.0876Q86.0965 17.8195 87.9235 17.1341ZM25.6254 15.4846Q26.6116 16.8753 28.3451 17.4044Q30.0786 17.9335 32.1337 16.8331L54.0177 4.70788Q55.7306 3.72147 56.3326 1.83221L60.5376-10.6065L52.8348-13.9699Q52.1495-14.3227 51.4695-14.6759Q50.7894-15.0291 50.1768-15.403L47.4565-2.95363L27.4101 8.26873Q25.0637 9.62897 24.7991 11.7626Q24.5345 13.8963 25.6254 15.4846ZM93.4043-25.4687L123.5-25.4687L123.5-30.9003L93.4043-30.9003Q92.2848-30.9003 91.5023-30.1177Q90.7197-29.3352 90.7197-28.2156Q90.7197-27.0961 91.5023-26.2824Q92.2848-25.4687 93.4043-25.4687ZM19.2226-61.5738L24.1366-61.5738L24.1366-68.4254L19.2226-68.4254ZM21.659-87.0218Q17.8487-87.0218 15.1548-84.3538Q12.4609-81.6858 12.4609-77.7827Q12.4609-75.4467 13.6859-73.0226Q14.9109-70.5985 16.9977-68.7557Q19.0844-66.9129 21.659-66.3111Q24.2336-66.9129 26.315-68.7557Q28.3964-70.5985 29.6214-73.0226Q30.8464-75.4467 30.8464-77.7827Q30.8464-81.6858 28.1836-84.3538Q25.5209-87.0218 21.659-87.0218Z"/>
  </g>
  <g id="Light-M" transform="matrix(1 0 0 1 1086.66 1126)">
   <path d="M72.5531-66.5322Q76.783-66.5322 79.8397-69.5887Q82.8964-72.6452 82.8964-76.8755Q82.8964-81.1955 79.8397-84.2345Q76.783-87.2736 72.5531-87.2736Q68.261-87.2736 65.2078-84.2345Q62.1546-81.1955 62.1546-76.8755Q62.1546-72.6452 65.2078-69.5887Q68.261-66.5322 72.5531-66.5322ZM85.9215 15.714Q87.4587 15.1253 88.3726 13.6335Q89.2865 12.1416 88.6564 9.94695L81.5117-15.087Q80.9784-16.9079 79.3515-17.8424L64.3422-26.6206L71.487-47.7986Q71.8608-48.9894 72.9444-49.1312Q74.028-49.273 74.9003-48.3663L85.5272-37.8361Q87.0295-36.4235 88.8155-36.4235Q90.8715-36.4235 92.2283-37.8361L106.546-52.153Q107.923-53.5651 107.94-55.5071Q107.958-57.449 106.546-58.889Q105.168-60.2667 103.209-60.2979Q101.249-60.329 99.8092-58.889L88.8155-47.9232L79.663-57.3867Q76.4993-60.6754 72.6294-61.6619Q68.7595-62.6483 62.1546-62.6483L17.2864-62.6483Q15.3131-62.6483 13.887-61.2534Q12.4609-59.8585 12.4609-57.8577Q12.4609-55.9123 13.887-54.5034Q15.3131-53.0946 17.2864-53.0946L50.621-53.0946Q51.6249-53.0946 52.3621-52.2948Q53.0993-51.4951 52.5939-50.09L47.0486-33.4468Q45.5463-29.0301 47.412-24.8172Q49.2777-20.6044 53.5633-18.7217L72.8996-10.2616L79.5384 12.4531Q80.2586 14.9867 82.2108 15.693Q84.1629 16.3993 85.9215 15.714ZM25.3517 14.2186Q26.3207 15.5405 27.9858 16.0183Q29.6508 16.4961 31.6033 15.4299L52.9054 3.64707Q54.5672 2.67761 55.1349 0.856779L59.2885-11.4448L51.8252-14.7056Q51.1399-15.0241 50.4684-15.3945Q49.797-15.7648 49.2014-16.1386L46.5153-3.80918L26.9996 7.12224Q24.6873 8.46552 24.4483 10.5734Q24.2093 12.6814 25.3517 14.2186ZM91.197-26.5637L120.489-26.5637L120.489-31.0029L91.197-31.0029Q90.2828-31.0029 89.6457-30.3658Q89.0086-29.7287 89.0086-28.8145Q89.0086-27.9002 89.6457-27.232Q90.2828-26.5637 91.197-26.5637ZM19.3766-60.4957L23.4694-60.4957L23.4694-67.142L19.3766-67.142ZM21.4195-85.5843Q17.6946-85.5843 15.0778-82.9849Q12.4609-80.3855 12.4609-76.6192Q12.4609-74.3344 13.6517-71.9703Q14.8425-69.6061 16.8779-67.806Q18.9133-66.0059 21.4195-65.4386Q23.9257-66.0059 25.9471-67.806Q27.9686-69.6061 29.1594-71.9703Q30.3502-74.3344 30.3502-76.6192Q30.3502-80.3855 27.7645-82.9849Q25.1788-85.5843 21.4195-85.5843Z"/>
  </g>
  <g id="Thin-M" transform="matrix(1 0 0 1 791.939 1126)">
   <path d="M70.3353-65.3554Q74.4066-65.3554 77.339-68.2874Q80.2714-71.2193 80.2714-75.2915Q80.2714-79.4757 77.339-82.4015Q74.4066-85.3272 70.3353-85.3272Q66.2017-85.3272 63.2502-82.4015Q60.2987-79.4757 60.2987-75.2915Q60.2987-71.2193 63.2502-68.2874Q66.2017-65.3554 70.3353-65.3554ZM83.2736 13.8357Q84.7431 13.2242 85.5892 11.8116Q86.4352 10.3991 85.8504 8.29489L78.9772-15.8113Q78.4663-17.5417 76.8846-18.4763L62.4411-26.8921L69.3144-47.3009Q69.6882-48.4464 70.7154-48.5768Q71.7425-48.7072 72.6148-47.8234L82.8117-37.7004Q84.2687-36.3555 85.9866-36.3555Q88.0427-36.3555 89.2862-37.7004L103.083-51.4967Q104.415-52.8408 104.421-54.7149Q104.427-56.589 103.083-57.9837Q101.751-59.3162 99.8706-59.3473Q97.9903-59.3785 96.5956-57.9837L85.9866-47.4255L77.1961-56.5267Q74.1458-59.7025 70.423-60.6549Q66.7002-61.6073 60.2987-61.6073L17.1054-61.6073Q15.1998-61.6073 13.8303-60.269Q12.4609-58.9307 12.4609-56.9752Q12.4609-55.1203 13.8303-53.7567Q15.1998-52.3931 17.1054-52.3931L49.218-52.3931Q50.1766-52.3931 50.8798-51.6272Q51.583-50.8612 51.1228-49.4789L45.7814-33.4921Q44.3243-29.2339 46.1107-25.168Q47.8971-21.1021 52.0698-19.3103L70.6593-11.1669L77.0715 10.7106Q77.7693 13.1761 79.6874 13.8486Q81.6056 14.521 83.2736 13.8357ZM24.9897 12.5441Q25.9359 13.7751 27.5105 14.185Q29.0851 14.5949 30.9018 13.574L51.4343 2.24405Q53.0284 1.29703 53.5509-0.433312L57.6364-12.5535L50.4899-15.6786Q49.8045-15.9519 49.1445-16.3448Q48.4845-16.7378 47.9113-17.1116L45.2705-4.94072L26.4567 5.60592Q24.1896 6.92677 23.9845 9.00066Q23.7793 11.0745 24.9897 12.5441ZM88.2777-28.012L116.506-28.012L116.506-31.1387L88.2777-31.1387Q87.6349-31.1387 87.1902-30.694Q86.7455-30.2493 86.7455-29.6065Q86.7455-28.9637 87.1902-28.4878Q87.6349-28.012 88.2777-28.012ZM19.5804-59.0699L22.5869-59.0699L22.5869-65.4447L19.5804-65.4447ZM21.1028-83.6832Q17.4908-83.6832 14.9759-81.1745Q12.4609-78.6658 12.4609-75.0805Q12.4609-72.8633 13.6065-70.5784Q14.752-68.2936 16.7196-66.5499Q18.6871-64.8063 21.1028-64.2846Q23.5185-64.8063 25.4607-66.5499Q27.4028-68.2936 28.5484-70.5784Q29.6939-72.8633 29.6939-75.0805Q29.6939-78.6658 27.2101-81.1745Q24.7263-83.6832 21.1028-83.6832Z"/>
  </g>
  <g id="Ultralight-M" transform="matrix(1 0 0 1 496.248 1126)">
   <path d="M69.1994-64.7527Q73.1894-64.7527 76.0581-67.6208Q78.9268-70.489 78.9268-74.4801Q78.9268-78.5949 76.0581-81.4626Q73.1894-84.3303 69.1994-84.3303Q65.147-84.3303 62.2476-81.4626Q59.3482-78.5949 59.3482-74.4801Q59.3482-70.489 62.2476-67.6208Q65.147-64.7527 69.1994-64.7527ZM81.9174 12.8736Q83.3522 12.2505 84.1635 10.8785Q84.9748 9.50653 84.4132 7.44871L77.679-16.1823Q77.1796-17.8663 75.6211-18.8009L61.4674-27.0311L68.2016-47.0459Q68.5754-48.1683 69.5737-48.2929Q70.5719-48.4174 71.4442-47.5453L81.4208-37.6309Q82.8547-36.3206 84.5377-36.3206Q86.5938-36.3206 87.7792-37.6309L101.31-51.1606Q102.618-52.4698 102.619-54.3091Q102.619-56.1484 101.31-57.52Q100.001-58.8293 98.1609-58.8605Q96.3211-58.8916 94.9496-57.52L84.5377-47.1705L75.9326-56.0861Q72.9403-59.2041 69.2929-60.1391Q65.6454-61.074 59.3482-61.074L17.0127-61.074Q15.1417-61.074 13.8013-59.7648Q12.4609-58.4556 12.4609-56.5232Q12.4609-54.7146 13.8013-53.3742Q15.1417-52.0338 17.0127-52.0338L48.4994-52.0338Q49.4348-52.0338 50.1206-51.2852Q50.8063-50.5366 50.3693-49.166L45.1323-33.5152Q43.6984-29.3382 45.4442-25.3476Q47.19-21.357 51.3048-19.6117L69.5118-11.6306L75.808 9.81805Q76.4943 12.2487 78.395 12.9039Q80.2957 13.559 81.9174 12.8736ZM24.8043 11.6864Q25.7388 12.8709 27.267 13.2461Q28.7953 13.6212 30.5425 12.6234L50.6808 1.52543Q52.2403 0.589901 52.7396-1.09409L56.7902-13.1214L49.8059-16.177Q49.1206-16.4271 48.4664-16.8316Q47.8122-17.2361 47.2505-17.61L44.6329-5.52029L26.1786 4.82927Q23.9347 6.13863 23.7469 8.19508Q23.559 10.2515 24.8043 11.6864ZM86.7824-28.7538L114.466-28.7538L114.466-31.2082L86.7824-31.2082Q86.2787-31.2082 85.9325-30.862Q85.5864-30.5159 85.5864-30.0121Q85.5864-29.5084 85.9325-29.1311Q86.2787-28.7538 86.7824-28.7538ZM19.6848-58.3396L22.1348-58.3396L22.1348-64.5754L19.6848-64.5754ZM20.9406-82.7095Q17.3865-82.7095 14.9237-80.2472Q12.4609-77.7849 12.4609-74.2923Q12.4609-72.1098 13.5833-69.8656Q14.7057-67.6213 16.6384-65.9066Q18.5712-64.1918 20.9406-63.6936Q23.3099-64.1918 25.2115-65.9066Q27.113-67.6213 28.2354-69.8656Q29.3578-72.1098 29.3578-74.2923Q29.3578-77.7849 26.9262-80.2472Q24.4946-82.7095 20.9406-82.7095Z"/>
  </g>
  <g id="Black-S" transform="matrix(1 0 0 1 2876.27 696)">
   <path d="M62.4512-62.3047Q66.5039-62.3047 69.3604-65.1855Q72.2168-68.0664 72.2168-72.0703Q72.2168-76.123 69.3604-78.9795Q66.5039-81.8359 62.4512-81.8359Q58.4473-81.8359 55.5664-78.9795Q52.6855-76.123 52.6855-72.0703Q52.6855-68.0664 55.5664-65.1855Q58.4473-62.3047 62.4512-62.3047ZM73.6328 10.3027Q75.4883 9.81445 76.6846 8.12988Q77.8809 6.44531 77.1973 4.00391L71.0449-17.4316Q70.5078-19.3848 68.7988-20.3613L56.6406-27.4902L62.4512-44.8242Q62.6465-45.4102 62.9883-45.459Q63.3301-45.5078 63.8184-45.0195L72.9004-35.9863Q74.4141-34.4727 76.416-34.4727Q78.4668-34.4727 79.9805-35.9863L92.2363-48.2422Q93.7012-49.707 93.75-51.7822Q93.7988-53.8574 92.2363-55.3711Q90.8203-56.8359 88.7451-56.8848Q86.6699-56.9336 85.1074-55.3711L76.416-46.6797L69.2383-54.1016Q66.3574-57.1289 62.8418-58.0078Q59.3262-58.8867 53.5645-58.8867L15.1367-58.8867Q13.0371-58.8867 11.5479-57.4219Q10.0586-55.957 10.0586-53.8086Q10.0586-51.709 11.5479-50.2441Q13.0371-48.7793 15.1367-48.7793L43.6523-48.7793Q44.2871-48.7793 44.5068-48.5107Q44.7266-48.2422 44.4824-47.4609L39.6973-33.2031Q38.3301-29.0527 40.0635-25.1221Q41.7969-21.1914 45.8008-19.4336L61.9141-12.3047L67.5293 6.68945Q68.2617 9.13086 70.0439 9.96094Q71.8262 10.791 73.6328 10.3027ZM21.3867 8.64258Q22.4121 9.96094 24.1455 10.4248Q25.8789 10.8887 27.8809 9.76562L46.0938-0.292969Q47.8516-1.26953 48.4863-3.22266L51.3184-11.6211L43.8477-14.9414Q43.1152-15.2832 42.4316-15.6738Q41.748-16.0645 41.1133-16.5039L39.3066-8.1543L22.9492 1.02539Q20.459 2.39258 20.2881 4.6875Q20.1172 6.98242 21.3867 8.64258ZM78.4668-22.5098L104.492-22.5098L104.492-30.3223L78.4668-30.3223Q76.8555-30.3223 75.708-29.1748Q74.5605-28.0273 74.5605-26.416Q74.5605-24.8047 75.708-23.6572Q76.8555-22.5098 78.4668-22.5098ZM15.1367-55.9082L21.6309-55.9082L21.6309-63.623L15.1367-63.623ZM18.4082-80.3711Q14.7949-80.3711 12.2803-77.832Q9.76562-75.293 9.76562-71.6797Q9.76562-69.4824 10.9131-67.2119Q12.0605-64.9414 14.0137-63.2812Q15.9668-61.6211 18.4082-61.1328Q20.8496-61.6211 22.8027-63.2812Q24.7559-64.9414 25.9033-67.2119Q27.0508-69.4824 27.0508-71.6797Q27.0508-75.293 24.5361-77.832Q22.0215-80.3711 18.4082-80.3711Z"/>
  </g>
  <g id="Heavy-S" transform="matrix(1 0 0 1 2580.3 696)">
   <path d="M61.6329-61.9705Q65.5474-61.9705 68.3231-64.7649Q71.0989-67.5593 71.0989-71.4365Q71.0989-75.3624 68.3231-78.1324Q65.5474-80.9025 61.6329-80.9025Q57.7443-80.9025 54.9556-78.1324Q52.1669-75.3624 52.1669-71.4365Q52.1669-67.5593 54.9556-64.7649Q57.7443-61.9705 61.6329-61.9705ZM72.7454 9.40383Q74.4626 8.92707 75.5609 7.34622Q76.6593 5.76537 76.0102 3.47378L69.927-17.7428Q69.413-19.5922 67.7962-20.5111L55.6034-27.6631L61.4255-44.9971Q61.6439-45.6752 62.1182-45.7413Q62.5925-45.8074 63.1269-45.2615L72.1283-36.3205Q73.5728-34.8875 75.448-34.8875Q77.395-34.8875 78.828-36.3205L90.9571-48.4496Q92.3413-49.8453 92.3844-51.8053Q92.4274-53.7652 90.9571-55.1982Q89.6102-56.5824 87.6445-56.6255Q85.6788-56.6685 84.2085-55.1982L75.448-46.4377L68.1896-53.9402Q65.3778-56.8869 61.9429-57.7485Q58.5079-58.6101 52.8384-58.6101L14.8025-58.6101Q12.8181-58.6101 11.4038-57.2202Q9.98945-55.8303 9.98945-53.8086Q9.98945-51.8242 11.4038-50.4343Q12.8181-49.0444 14.8025-49.0444L43.03-49.0444Q43.7109-49.0444 44.0228-48.6836Q44.3347-48.3229 44.0445-47.4609L39.317-33.3414Q37.9843-29.3178 39.6716-25.5024Q41.3589-21.687 45.2361-19.9752L61.2917-12.8924L66.8609 6.00951Q67.5587 8.35872 69.2891 9.13118Q71.0195 9.90363 72.7454 9.40383ZM21.1101 7.81282Q22.0779 9.08508 23.7306 9.54318Q25.3834 10.0013 27.3046 8.93586L45.3331-1.03053Q46.9988-1.961 47.5989-3.8104L50.5462-12.5431L43.3867-15.7135Q42.7004-16.0438 42.0513-16.4056Q41.4023-16.7674 40.8021-17.1723L38.9148-8.47698L22.6496 0.645083Q20.3092 1.94312 20.1267 4.09399Q19.9443 6.24486 21.1101 7.81282ZM77.4757-23.5815L103.017-23.5815L103.017-30.668L77.4757-30.668Q76.0142-30.668 74.9762-29.63Q73.9382-28.592 73.9382-27.1305Q73.9382-25.669 74.9762-24.6253Q76.0142-23.5815 77.4757-23.5815ZM15.1021-56.0234L21.0662-56.0234L21.0662-63.2082L15.1021-63.2082ZM18.097-79.4607Q14.6221-79.4607 12.1938-77.0196Q9.76562-74.5785 9.76562-71.0804Q9.76562-68.9638 10.8728-66.774Q11.9799-64.5841 13.8639-62.9701Q15.7478-61.356 18.097-60.8677Q20.4463-61.356 22.3302-62.9701Q24.2142-64.5841 25.3213-66.774Q26.4285-68.9638 26.4285-71.0804Q26.4285-74.5785 24.006-77.0196Q21.5836-79.4607 18.097-79.4607Z"/>
  </g>
  <g id="Bold-S" transform="matrix(1 0 0 1 2284.41 696)">
   <path d="M60.7178-61.5967Q64.4775-61.5967 67.1631-64.2944Q69.8486-66.9922 69.8486-70.7275Q69.8486-74.5117 67.1631-77.1851Q64.4775-79.8584 60.7178-79.8584Q56.958-79.8584 54.2725-77.1851Q51.5869-74.5117 51.5869-70.7275Q51.5869-66.9922 54.2725-64.2944Q56.958-61.5967 60.7178-61.5967ZM71.7529 8.39844Q73.3154 7.93457 74.3042 6.46973Q75.293 5.00488 74.6826 2.88086L68.6768-18.0908Q68.1885-19.8242 66.6748-20.6787L54.4434-27.8564L60.2783-45.1904Q60.5225-45.9717 61.145-46.0571Q61.7676-46.1426 62.3535-45.5322L71.2646-36.6943Q72.6318-35.3516 74.3652-35.3516Q76.1963-35.3516 77.5391-36.6943L89.5264-48.6816Q90.8203-50 90.8569-51.8311Q90.8936-53.6621 89.5264-55.0049Q88.2568-56.2988 86.4136-56.3354Q84.5703-56.3721 83.2031-55.0049L74.3652-46.167L67.0166-53.7598Q64.2822-56.6162 60.9375-57.4585Q57.5928-58.3008 52.0264-58.3008L14.4287-58.3008Q12.5732-58.3008 11.2427-56.9946Q9.91211-55.6885 9.91211-53.8086Q9.91211-51.9531 11.2427-50.647Q12.5732-49.3408 14.4287-49.3408L42.334-49.3408Q43.0664-49.3408 43.4814-48.877Q43.8965-48.4131 43.5547-47.4609L38.8916-33.4961Q37.5977-29.6143 39.2334-25.9277Q40.8691-22.2412 44.6045-20.5811L60.5957-13.5498L66.1133 5.24902Q66.7725 7.49512 68.4448 8.20312Q70.1172 8.91113 71.7529 8.39844ZM20.8008 6.88477Q21.7041 8.10547 23.2666 8.55713Q24.8291 9.00879 26.6602 8.00781L44.4824-1.85547Q46.0449-2.73438 46.6064-4.46777L49.6826-13.5742L42.8711-16.5771Q42.2363-16.8945 41.626-17.2241Q41.0156-17.5537 40.4541-17.9199L38.4766-8.83789L22.3145 0.219727Q20.1416 1.44043 19.9463 3.43018Q19.751 5.41992 20.8008 6.88477ZM76.3672-24.7803L101.367-24.7803L101.367-31.0547L76.3672-31.0547Q75.0732-31.0547 74.1577-30.1392Q73.2422-29.2236 73.2422-27.9297Q73.2422-26.6357 74.1577-25.708Q75.0732-24.7803 76.3672-24.7803ZM15.0635-56.1523L20.4346-56.1523L20.4346-62.7441L15.0635-62.7441ZM17.749-78.4424Q14.4287-78.4424 12.0972-76.1108Q9.76562-73.7793 9.76562-70.4102Q9.76562-68.3838 10.8276-66.2842Q11.8896-64.1846 13.6963-62.6221Q15.5029-61.0596 17.749-60.5713Q19.9951-61.0596 21.8018-62.6221Q23.6084-64.1846 24.6704-66.2842Q25.7324-68.3838 25.7324-70.4102Q25.7324-73.7793 23.4131-76.1108Q21.0938-78.4424 17.749-78.4424Z"/>
  </g>
  <g id="Semibold-S" transform="matrix(1 0 0 1 1988.27 696)">
   <path d="M60.0868-61.339Q63.7399-61.339 66.3633-63.9701Q68.9866-66.6012 68.9866-70.2388Q68.9866-73.9252 66.3633-76.5319Q63.7399-79.1386 60.0868-79.1386Q56.4159-79.1386 53.8015-76.5319Q51.187-73.9252 51.187-70.2388Q51.187-66.6012 53.8015-63.9701Q56.4159-61.339 60.0868-61.339ZM71.0687 7.70527Q72.5245 7.25029 73.4377 5.86543Q74.351 4.48057 73.7673 2.47207L67.8147-18.3308Q67.3442-19.9842 65.9017-20.7942L53.6436-27.9897L59.4874-45.3237Q59.7493-46.1761 60.4741-46.2749Q61.1988-46.3736 61.8203-45.7188L70.6692-36.9521Q71.9831-35.6715 73.6188-35.6715Q75.3698-35.6715 76.6504-36.9521L88.5399-48.8416Q89.7717-50.1066 89.8039-51.8488Q89.836-53.591 88.5399-54.8716Q87.3237-56.1033 85.5649-56.1355Q83.8061-56.1677 82.51-54.8716L73.6188-45.9804L66.2079-53.6354Q63.5269-56.4296 60.2443-57.2585Q56.9618-58.0875 51.4665-58.0875L14.171-58.0875Q12.4044-58.0875 11.1316-56.8391Q9.85879-55.5907 9.85879-53.8086Q9.85879-52.042 11.1316-50.7936Q12.4044-49.5452 14.171-49.5452L41.8541-49.5452Q42.6221-49.5452 43.1082-49.0103Q43.5943-48.4753 43.217-47.4609L38.5983-33.6027Q37.3311-29.8187 38.9312-26.221Q40.5314-22.6233 44.169-20.9987L60.1158-14.003L65.5979 4.72471Q66.2304 6.89971 67.8627 7.56328Q69.4951 8.22686 71.0687 7.70527ZM20.5875 6.24492Q21.4464 7.43008 22.9467 7.87729Q24.447 8.32451 26.2158 7.36797L43.8959-2.42422Q45.3873-3.26758 45.9222-4.921L49.0872-14.2852L42.5156-17.1726Q41.9164-17.4811 41.3327-17.7884Q40.749-18.0958 40.2142-18.4354L38.1744-9.08672L22.0834-0.0735352Q20.0261 1.09385 19.8219 2.97251Q19.6177 4.85117 20.5875 6.24492ZM75.6029-25.6067L100.23-25.6067L100.23-31.3213L75.6029-31.3213Q74.4245-31.3213 73.5934-30.4902Q72.7623-29.6591 72.7623-28.4807Q72.7623-27.3022 73.5934-26.4545Q74.4245-25.6067 75.6029-25.6067ZM15.0368-56.2412L19.9991-56.2412L19.9991-62.4242L15.0368-62.4242ZM17.5091-77.7403Q14.2954-77.7403 12.0305-75.4843Q9.76562-73.2283 9.76562-69.948Q9.76562-67.9839 10.7965-65.9465Q11.8274-63.9091 13.5808-62.3821Q15.3341-60.8552 17.5091-60.3669Q19.6841-60.8552 21.4374-62.3821Q23.1907-63.9091 24.2216-65.9465Q25.2525-67.9839 25.2525-69.948Q25.2525-73.2283 23.0043-75.4843Q20.7561-77.7403 17.5091-77.7403Z"/>
  </g>
  <g id="Medium-S" transform="matrix(1 0 0 1 1691.99 696)">
   <path d="M59.6084-61.1436Q63.1807-61.1436 65.7568-63.7241Q68.333-66.3047 68.333-69.8682Q68.333-73.4805 65.7568-76.0366Q63.1807-78.5928 59.6084-78.5928Q56.0049-78.5928 53.4443-76.0366Q50.8838-73.4805 50.8838-69.8682Q50.8838-66.3047 53.4443-63.7241Q56.0049-61.1436 59.6084-61.1436ZM70.5498 7.17969Q71.9248 6.73145 72.7808 5.40723Q73.6367 4.08301 73.0732 2.16211L67.1611-18.5127Q66.7041-20.1055 65.3154-20.8818L53.0371-28.0908L58.8877-45.4248Q59.1631-46.3311 59.9653-46.4399Q60.7676-46.5488 61.416-45.8604L70.2178-37.1475Q71.4912-35.9141 73.0527-35.9141Q74.7432-35.9141 75.9766-37.1475L87.792-48.9629Q88.9766-50.1875 89.0054-51.8623Q89.0342-53.5371 87.792-54.7705Q86.6162-55.9551 84.9214-55.9839Q83.2266-56.0127 81.9844-54.7705L73.0527-45.8389L65.5947-53.541Q62.9541-56.2881 59.7188-57.1069Q56.4834-57.9258 51.042-57.9258L13.9756-57.9258Q12.2764-57.9258 11.0474-56.7212Q9.81836-55.5166 9.81836-53.8086Q9.81836-52.1094 11.0474-50.9048Q12.2764-49.7002 13.9756-49.7002L41.4902-49.7002Q42.2852-49.7002 42.8252-49.1113Q43.3652-48.5225 42.9609-47.4609L38.376-33.6836Q37.1289-29.9736 38.7021-26.4434Q40.2754-22.9131 43.8389-21.3154L59.752-14.3467L65.207 4.32715Q65.8193 6.44824 67.4214 7.07812Q69.0234 7.70801 70.5498 7.17969ZM20.4258 5.75977Q21.251 6.91797 22.7041 7.36182Q24.1572 7.80566 25.8789 6.88281L43.4512-2.85547Q44.8887-3.67188 45.4033-5.26465L48.6357-14.8242L42.2461-17.624Q41.6738-17.9258 41.1104-18.2163Q40.5469-18.5068 40.0322-18.8262L37.9453-9.27539L21.9082-0.295898Q19.9385 0.831055 19.7275 2.62549Q19.5166 4.41992 20.4258 5.75977ZM75.0234-26.2334L99.3672-26.2334L99.3672-31.5234L75.0234-31.5234Q73.9326-31.5234 73.1655-30.7563Q72.3984-29.9893 72.3984-28.8984Q72.3984-27.8076 73.1655-27.0205Q73.9326-26.2334 75.0234-26.2334ZM15.0166-56.3086L19.6689-56.3086L19.6689-62.1816L15.0166-62.1816ZM17.3271-77.208Q14.1943-77.208 11.98-75.0093Q9.76562-72.8105 9.76562-69.5977Q9.76562-67.6807 10.7729-65.6904Q11.7803-63.7002 13.4932-62.2002Q15.2061-60.7002 17.3271-60.2119Q19.4482-60.7002 21.1611-62.2002Q22.874-63.7002 23.8813-65.6904Q24.8887-67.6807 24.8887-69.5977Q24.8887-72.8105 22.6943-75.0093Q20.5-77.208 17.3271-77.208Z"/>
  </g>
  <g id="Regular-S" transform="matrix(1 0 0 1 1395.84 696)">
   <path d="M58.9844-60.8887Q62.4512-60.8887 64.9658-63.4033Q67.4805-65.918 67.4805-69.3848Q67.4805-72.9004 64.9658-75.3906Q62.4512-77.8809 58.9844-77.8809Q55.4688-77.8809 52.9785-75.3906Q50.4883-72.9004 50.4883-69.3848Q50.4883-65.918 52.9785-63.4033Q55.4688-60.8887 58.9844-60.8887ZM69.873 6.49414Q71.1426 6.05469 71.9238 4.80957Q72.7051 3.56445 72.168 1.75781L66.3086-18.75Q65.8691-20.2637 64.5508-20.9961L52.2461-28.2227L58.1055-45.5566Q58.3984-46.5332 59.3018-46.6553Q60.2051-46.7773 60.8887-46.0449L69.6289-37.4023Q70.8496-36.2305 72.3145-36.2305Q73.9258-36.2305 75.0977-37.4023L86.8164-49.1211Q87.9395-50.293 87.9639-51.8799Q87.9883-53.4668 86.8164-54.6387Q85.6934-55.7617 84.082-55.7861Q82.4707-55.8105 81.2988-54.6387L72.3145-45.6543L64.7949-53.418Q62.207-56.1035 59.0332-56.9092Q55.8594-57.7148 50.4883-57.7148L13.7207-57.7148Q12.1094-57.7148 10.9375-56.5674Q9.76562-55.4199 9.76562-53.8086Q9.76562-52.1973 10.9375-51.0498Q12.1094-49.9023 13.7207-49.9023L41.0156-49.9023Q41.8457-49.9023 42.4561-49.2432Q43.0664-48.584 42.627-47.4609L38.0859-33.7891Q36.8652-30.1758 38.4033-26.7334Q39.9414-23.291 43.4082-21.7285L59.2773-14.7949L64.6973 3.80859Q65.2832 5.85938 66.8457 6.44531Q68.4082 7.03125 69.873 6.49414ZM20.2148 5.12695Q20.9961 6.25 22.3877 6.68945Q23.7793 7.12891 25.4395 6.25L42.8711-3.41797Q44.2383-4.19922 44.7266-5.71289L48.0469-15.5273L41.8945-18.2129Q41.3574-18.5059 40.8203-18.7744Q40.2832-19.043 39.7949-19.3359L37.6465-9.52148L21.6797-0.585938Q19.8242 0.488281 19.6045 2.17285Q19.3848 3.85742 20.2148 5.12695ZM74.2676-27.0508L98.2422-27.0508L98.2422-31.7871L74.2676-31.7871Q73.291-31.7871 72.6074-31.1035Q71.9238-30.4199 71.9238-29.4434Q71.9238-28.4668 72.6074-27.7588Q73.291-27.0508 74.2676-27.0508ZM14.9902-56.3965L19.2383-56.3965L19.2383-61.8652L14.9902-61.8652ZM17.0898-76.5137Q14.0625-76.5137 11.9141-74.3896Q9.76562-72.2656 9.76562-69.1406Q9.76562-67.2852 10.7422-65.3564Q11.7188-63.4277 13.3789-61.9629Q15.0391-60.498 17.0898-60.0098Q19.1406-60.498 20.8008-61.9629Q22.4609-63.4277 23.4375-65.3564Q24.4141-67.2852 24.4141-69.1406Q24.4141-72.2656 22.29-74.3896Q20.166-76.5137 17.0898-76.5137Z"/>
  </g>
  <g id="Light-S" transform="matrix(1 0 0 1 1100.46 696)">
   <path d="M57.501-60.1016Q60.8617-60.1016 63.2932-62.5329Q65.7247-64.9643 65.7247-68.3253Q65.7247-71.7501 63.2932-74.1646Q60.8617-76.579 57.501-76.579Q54.0914-76.579 51.6692-74.1646Q49.247-71.7501 49.247-68.3253Q49.247-64.9643 51.6692-62.5329Q54.0914-60.1016 57.501-60.1016ZM68.102 5.23783Q69.3263 4.78312 70.0621 3.59103Q70.798 2.39894 70.2911 0.652822L64.6133-19.2345Q64.1889-20.6876 62.9008-21.42L50.9745-28.4042L56.6523-45.2237Q56.9453-46.17 57.8108-46.2845Q58.6764-46.3989 59.36-45.6818L67.8126-37.3116Q69.003-36.1849 70.4224-36.1849Q72.0337-36.1849 73.1298-37.3116L84.5006-48.6821Q85.5932-49.8085 85.6101-51.35Q85.627-52.8915 84.5006-54.0332Q83.4078-55.1259 81.8494-55.1503Q80.291-55.1748 79.1494-54.0332L70.4224-45.3214L63.1449-52.8427Q60.6328-55.4527 57.5574-56.2356Q54.482-57.0185 49.247-57.0185L13.5997-57.0185Q12.0336-57.0185 10.8996-55.909Q9.76562-54.7994 9.76562-53.2183Q9.76562-51.6675 10.8996-50.5503Q12.0336-49.4331 13.5997-49.4331L40.0772-49.4331Q40.877-49.4331 41.4646-48.7966Q42.0522-48.16 41.643-47.0523L37.2383-33.8193Q36.0479-30.3121 37.5329-26.968Q39.018-23.6239 42.4093-22.1222L57.7789-15.4004L63.0473 2.64308Q63.6182 4.64834 65.158 5.21164Q66.6977 5.77494 68.102 5.23783ZM19.9727 4.00696Q20.7387 5.06922 22.0698 5.46328Q23.4009 5.85734 24.9702 5.0087L41.8872-4.35638Q43.2091-5.12263 43.6671-6.57578L46.9419-16.2689L41.0014-18.8637Q40.4643-19.1264 39.9348-19.4101Q39.4053-19.6938 38.932-19.9867L36.8139-10.2783L21.3165-1.60014Q19.4913-0.540924 19.2942 1.12089Q19.0971 2.78269 19.9727 4.00696ZM72.315-28.0195L95.5783-28.0195L95.5783-31.8779L72.315-31.8779Q71.52-31.8779 70.9651-31.323Q70.4102-30.7681 70.4102-29.9731Q70.4102-29.1781 70.9651-28.5988Q71.52-28.0195 72.315-28.0195ZM15.1265-55.4428L18.648-55.4428L18.648-60.73L15.1265-60.73ZM16.878-75.2421Q13.9262-75.2421 11.8459-73.1787Q9.76562-71.1154 9.76562-68.1114Q9.76562-66.3012 10.7119-64.4255Q11.6582-62.5498 13.273-61.1228Q14.8877-59.6957 16.878-59.2379Q18.8683-59.6957 20.4754-61.1228Q22.0825-62.5498 23.0288-64.4255Q23.9751-66.3012 23.9751-68.1114Q23.9751-71.1154 21.9193-73.1787Q19.8634-75.2421 16.878-75.2421Z"/>
  </g>
  <g id="Thin-S" transform="matrix(1 0 0 1 805.512 696)">
   <path d="M55.539-59.0606Q58.7595-59.0606 61.081-61.3818Q63.4025-63.703 63.4025-66.9241Q63.4025-70.2288 61.081-72.543Q58.7595-74.8573 55.539-74.8573Q52.2697-74.8573 49.9375-72.543Q47.6053-70.2288 47.6053-66.9241Q47.6053-63.703 49.9375-61.3818Q52.2697-59.0606 55.539-59.0606ZM65.7597 3.57627Q66.9241 3.10137 67.5999 1.97941Q68.2757 0.857446 67.8089-0.808617L62.3712-19.8752Q61.9666-21.2483 60.7186-21.9807L49.2928-28.6444L54.7304-44.7835Q55.0234-45.6897 55.839-45.7941Q56.6546-45.8984 57.3382-45.2015L65.4104-37.1915Q66.5608-36.1247 67.9199-36.1247Q69.5312-36.1247 70.5271-37.1915L81.4378-48.1016Q82.49-49.1678 82.497-50.6492Q82.504-52.1307 81.4378-53.2323Q80.3851-54.2851 78.8966-54.3095Q77.4081-54.3339 76.3065-53.2323L67.9199-44.8811L60.9627-52.0819Q58.5508-54.592 55.6056-55.3448Q52.6603-56.0976 47.6053-56.0976L13.4395-56.0976Q11.9334-56.0976 10.8495-55.0382Q9.76562-53.9787 9.76562-52.4377Q9.76562-50.9669 10.8495-49.8897Q11.9334-48.8126 13.4395-48.8126L38.8361-48.8126Q39.5959-48.8126 40.1534-48.206Q40.7108-47.5993 40.3417-46.5117L36.1173-33.8594Q34.9668-30.4924 36.3818-27.2783Q37.7967-24.0642 41.0881-22.6429L55.7972-16.2013L60.865 1.10159Q61.4161 3.04664 62.9258 3.58001Q64.4354 4.11338 65.7597 3.57627ZM19.6525 2.52567Q20.3983 3.50755 21.6494 3.84157Q22.9004 4.17559 24.3497 3.36697L40.5858-5.59751Q41.8479-6.34392 42.2659-7.71701L45.4804-17.2497L39.8201-19.7244Q39.283-19.9471 38.7636-20.2508Q38.2442-20.5545 37.7908-20.8474L35.7127-11.2793L20.8362-2.9415Q19.051-1.90213 18.8839-0.270425Q18.7167 1.36128 19.6525 2.52567ZM69.7325-29.3006L92.055-29.3006L92.055-31.998L69.7325-31.998Q69.1776-31.998 68.7929-31.6133Q68.4082-31.2285 68.4082-30.6737Q68.4082-30.1189 68.7929-29.7097Q69.1776-29.3006 69.7325-29.3006ZM15.3068-54.1815L17.8674-54.1815L17.8674-59.2285L15.3068-59.2285ZM16.5978-73.5604Q13.7459-73.5604 11.7558-71.5772Q9.76562-69.5941 9.76562-66.7502Q9.76562-64.9999 10.6719-63.1943Q11.5782-61.3888 13.1329-60.0116Q14.6876-58.6345 16.5978-58.2171Q18.508-58.6345 20.045-60.0116Q21.582-61.3888 22.4883-63.1943Q23.3946-64.9999 23.3946-66.7502Q23.3946-69.5941 21.4289-71.5772Q19.4631-73.5604 16.5978-73.5604Z"/>
  </g>
  <g id="Ultralight-S" transform="matrix(1 0 0 1 509.703 696)">
   <path d="M54.5341-58.5274Q57.6828-58.5274 59.948-60.7922Q62.2131-63.0569 62.2131-66.2064Q62.2131-69.4496 59.948-71.7125Q57.6828-73.9754 54.5341-73.9754Q51.3367-73.9754 49.0505-71.7125Q46.7644-69.4496 46.7644-66.2064Q46.7644-63.0569 49.0505-60.7922Q51.3367-58.5274 54.5341-58.5274ZM64.5599 2.72522Q65.6937 2.23999 66.3387 1.15395Q66.9838 0.0679016 66.5375-1.55716L61.2228-20.2034Q60.8284-21.5355 59.6008-22.2679L48.4314-28.7674L53.746-44.558Q54.039-45.4437 54.829-45.5429Q55.619-45.6421 56.3026-44.9554L64.18-37.13Q65.3099-36.0939 66.6382-36.0939Q68.2495-36.0939 69.194-37.13L79.8691-47.8043Q80.9006-48.8396 80.9025-50.2903Q80.9044-51.741 79.8691-52.8221Q78.8368-53.8544 77.3842-53.8788Q75.9315-53.9032 74.8505-52.8221L66.6382-44.6556L59.845-51.6922Q57.4844-54.1512 54.6059-54.8885Q51.7273-55.6259 46.7644-55.6259L13.3575-55.6259Q11.882-55.6259 10.8238-54.5921Q9.76562-53.5583 9.76562-52.0378Q9.76562-50.6081 10.8238-49.5514Q11.882-48.4947 13.3575-48.4947L38.2004-48.4947Q38.9397-48.4947 39.4817-47.9034Q40.0238-47.3122 39.6751-46.2349L35.5431-33.8799Q34.4131-30.5847 35.7922-27.4372Q37.1712-24.2897 40.4114-22.9095L54.7821-16.6115L59.7473 0.312042Q60.2882 2.22626 61.7825 2.74429Q63.2767 3.26233 64.5599 2.72522ZM19.4885 1.76697Q20.224 2.70767 21.434 3.01094Q22.644 3.31421 24.0318 2.52609L39.9193-6.23322Q41.1507-6.96945 41.5482-8.30154L44.7319-17.7521L39.2151-20.1653Q38.678-20.3674 38.1638-20.6814Q37.6495-20.9953 37.2063-21.2883L35.1486-11.792L20.5902-3.62854Q18.8255-2.59933 18.6737-0.983047Q18.5219 0.63324 19.4885 1.76697ZM68.4097-29.9568L90.2504-29.9568L90.2504-32.0595L68.4097-32.0595Q67.9779-32.0595 67.6804-31.7619Q67.3828-31.4644 67.3828-31.0326Q67.3828-30.6007 67.6804-30.2788Q67.9779-29.9568 68.4097-29.9568ZM15.3992-53.5355L17.4675-53.5355L17.4675-58.4595L15.3992-58.4595ZM16.4543-72.699Q13.6536-72.699 11.7096-70.7569Q9.76562-68.8148 9.76562-66.053Q9.76562-64.3333 10.6514-62.5637Q11.5372-60.7941 13.0611-59.4425Q14.5851-58.091 16.4543-57.6942Q18.3235-58.091 19.8246-59.4425Q21.3257-60.7941 22.2115-62.5637Q23.0972-64.3333 23.0972-66.053Q23.0972-68.8148 21.1777-70.7569Q19.2581-72.699 16.4543-72.699Z"/>
  </g>
 </g>
</svg>
