<?xml version="1.0" encoding="UTF-8"?>
<!--Generator: Apple Native CoreSVG 175.5-->
<!DOCTYPE svg
PUBLIC "-//W3C//DTD SVG 1.1//EN"
       "http://www.w3.org/Graphics/SVG/1.1/DTD/svg11.dtd">
<svg version="1.1" xmlns="http://www.w3.org/2000/svg" xmlns:xlink="http://www.w3.org/1999/xlink" width="3300" height="2200">
 <!--glyph: "uni101533.medium", point size: 100.0, font version: "18.0d9e1", template writer version: "84"-->
 <g id="Notes">
  <rect height="2200" id="artboard" style="fill:white;opacity:1" width="3300" x="0" y="0"/>
  <line style="fill:none;stroke:black;opacity:1;stroke-width:0.5;" x1="263" x2="3036" y1="292" y2="292"/>
  <text style="stroke:none;fill:black;font-family:sans-serif;font-size:13;font-weight:bold;" transform="matrix(1 0 0 1 263 322)">Weight/Scale Variations</text>
  <text style="stroke:none;fill:black;font-family:sans-serif;font-size:13;text-anchor:middle;" transform="matrix(1 0 0 1 559.711 322)">Ultralight</text>
  <text style="stroke:none;fill:black;font-family:sans-serif;font-size:13;text-anchor:middle;" transform="matrix(1 0 0 1 856.422 322)">Thin</text>
  <text style="stroke:none;fill:black;font-family:sans-serif;font-size:13;text-anchor:middle;" transform="matrix(1 0 0 1 1153.13 322)">Light</text>
  <text style="stroke:none;fill:black;font-family:sans-serif;font-size:13;text-anchor:middle;" transform="matrix(1 0 0 1 1449.84 322)">Regular</text>
  <text style="stroke:none;fill:black;font-family:sans-serif;font-size:13;text-anchor:middle;" transform="matrix(1 0 0 1 1746.56 322)">Medium</text>
  <text style="stroke:none;fill:black;font-family:sans-serif;font-size:13;text-anchor:middle;" transform="matrix(1 0 0 1 2043.27 322)">Semibold</text>
  <text style="stroke:none;fill:black;font-family:sans-serif;font-size:13;text-anchor:middle;" transform="matrix(1 0 0 1 2339.98 322)">Bold</text>
  <text style="stroke:none;fill:black;font-family:sans-serif;font-size:13;text-anchor:middle;" transform="matrix(1 0 0 1 2636.69 322)">Heavy</text>
  <text style="stroke:none;fill:black;font-family:sans-serif;font-size:13;text-anchor:middle;" transform="matrix(1 0 0 1 2933.4 322)">Black</text>
  <line style="fill:none;stroke:black;opacity:1;stroke-width:0.5;" x1="263" x2="3036" y1="1903" y2="1903"/>
  <g transform="matrix(1 0 0 1 263 1933)">
   <path d="M9.24805 0.830078Q10.8691 0.830078 12.2949 0.214844Q13.7207-0.400391 14.8096-1.49414Q15.8984-2.58789 16.5186-4.01367Q17.1387-5.43945 17.1387-7.05078Q17.1387-8.66211 16.5186-10.0879Q15.8984-11.5137 14.8047-12.6074Q13.7109-13.7012 12.2852-14.3164Q10.8594-14.9316 9.23828-14.9316Q7.62695-14.9316 6.20117-14.3164Q4.77539-13.7012 3.69141-12.6074Q2.60742-11.5137 1.9873-10.0879Q1.36719-8.66211 1.36719-7.05078Q1.36719-5.43945 1.9873-4.01367Q2.60742-2.58789 3.69629-1.49414Q4.78516-0.400391 6.21094 0.214844Q7.63672 0.830078 9.24805 0.830078ZM9.24805-0.654297Q7.91992-0.654297 6.7627-1.14746Q5.60547-1.64062 4.73145-2.51953Q3.85742-3.39844 3.36426-4.56055Q2.87109-5.72266 2.87109-7.05078Q2.87109-8.37891 3.35938-9.54102Q3.84766-10.7031 4.72168-11.582Q5.5957-12.4609 6.75293-12.9541Q7.91016-13.4473 9.23828-13.4473Q10.5762-13.4473 11.7383-12.9541Q12.9004-12.4609 13.7793-11.582Q14.6582-10.7031 15.1514-9.54102Q15.6445-8.37891 15.6445-7.05078Q15.6445-5.72266 15.1514-4.56055Q14.6582-3.39844 13.7793-2.51953Q12.9004-1.64062 11.7432-1.14746Q10.5859-0.654297 9.24805-0.654297ZM5.6543-7.05078Q5.6543-6.72852 5.85938-6.52832Q6.06445-6.32812 6.40625-6.32812L8.51562-6.32812L8.51562-4.20898Q8.51562-3.88672 8.71094-3.67676Q8.90625-3.4668 9.23828-3.4668Q9.56055-3.4668 9.77051-3.67676Q9.98047-3.88672 9.98047-4.20898L9.98047-6.32812L12.0898-6.32812Q12.4219-6.32812 12.627-6.52832Q12.832-6.72852 12.832-7.05078Q12.832-7.38281 12.627-7.58789Q12.4219-7.79297 12.0898-7.79297L9.98047-7.79297L9.98047-9.90234Q9.98047-10.2344 9.77051-10.4443Q9.56055-10.6543 9.23828-10.6543Q8.90625-10.6543 8.71094-10.4443Q8.51562-10.2344 8.51562-9.90234L8.51562-7.79297L6.40625-7.79297Q6.06445-7.79297 5.85938-7.58789Q5.6543-7.38281 5.6543-7.05078Z"/>
  </g>
  <g transform="matrix(1 0 0 1 281.867 1933)">
   <path d="M11.709 2.91016Q13.75 2.91016 15.5518 2.12891Q17.3535 1.34766 18.7305-0.0292969Q20.1074-1.40625 20.8887-3.20801Q21.6699-5.00977 21.6699-7.05078Q21.6699-9.0918 20.8887-10.8936Q20.1074-12.6953 18.7305-14.0723Q17.3535-15.4492 15.5469-16.2305Q13.7402-17.0117 11.6992-17.0117Q9.6582-17.0117 7.85645-16.2305Q6.05469-15.4492 4.68262-14.0723Q3.31055-12.6953 2.5293-10.8936Q1.74805-9.0918 1.74805-7.05078Q1.74805-5.00977 2.5293-3.20801Q3.31055-1.40625 4.6875-0.0292969Q6.06445 1.34766 7.86621 2.12891Q9.66797 2.91016 11.709 2.91016ZM11.709 1.25Q9.98047 1.25 8.47656 0.605469Q6.97266-0.0390625 5.83496-1.17676Q4.69727-2.31445 4.05762-3.81836Q3.41797-5.32227 3.41797-7.05078Q3.41797-8.7793 4.05762-10.2832Q4.69727-11.7871 5.83008-12.9297Q6.96289-14.0723 8.4668-14.7119Q9.9707-15.3516 11.6992-15.3516Q13.4277-15.3516 14.9365-14.7119Q16.4453-14.0723 17.583-12.9297Q18.7207-11.7871 19.3652-10.2832Q20.0098-8.7793 20.0098-7.05078Q20.0098-5.32227 19.3701-3.81836Q18.7305-2.31445 17.5879-1.17676Q16.4453-0.0390625 14.9414 0.605469Q13.4375 1.25 11.709 1.25ZM7.17773-7.05078Q7.17773-6.69922 7.41211-6.47461Q7.64648-6.25 8.01758-6.25L10.8887-6.25L10.8887-3.36914Q10.8887-2.99805 11.1133-2.76855Q11.3379-2.53906 11.6895-2.53906Q12.0605-2.53906 12.29-2.76855Q12.5195-2.99805 12.5195-3.36914L12.5195-6.25L15.4004-6.25Q15.7715-6.25 16.001-6.47461Q16.2305-6.69922 16.2305-7.05078Q16.2305-7.42188 16.001-7.65137Q15.7715-7.88086 15.4004-7.88086L12.5195-7.88086L12.5195-10.752Q12.5195-11.1328 12.29-11.3623Q12.0605-11.5918 11.6895-11.5918Q11.3379-11.5918 11.1133-11.3574Q10.8887-11.123 10.8887-10.752L10.8887-7.88086L8.01758-7.88086Q7.63672-7.88086 7.40723-7.65137Q7.17773-7.42188 7.17773-7.05078Z"/>
  </g>
  <g transform="matrix(1 0 0 1 305.646 1933)">
   <path d="M14.9707 5.66406Q17.0605 5.66406 18.96 5.01465Q20.8594 4.36523 22.4512 3.19336Q24.043 2.02148 25.2197 0.429688Q26.3965-1.16211 27.0459-3.06641Q27.6953-4.9707 27.6953-7.05078Q27.6953-9.14062 27.0459-11.04Q26.3965-12.9395 25.2197-14.5312Q24.043-16.123 22.4512-17.2998Q20.8594-18.4766 18.9551-19.126Q17.0508-19.7754 14.9609-19.7754Q12.8711-19.7754 10.9717-19.126Q9.07227-18.4766 7.48535-17.2998Q5.89844-16.123 4.72168-14.5312Q3.54492-12.9395 2.90039-11.04Q2.25586-9.14062 2.25586-7.05078Q2.25586-4.9707 2.90527-3.06641Q3.55469-1.16211 4.72656 0.429688Q5.89844 2.02148 7.49023 3.19336Q9.08203 4.36523 10.9814 5.01465Q12.8809 5.66406 14.9707 5.66406ZM14.9707 3.84766Q13.1641 3.84766 11.5283 3.2959Q9.89258 2.74414 8.53516 1.74805Q7.17773 0.751953 6.17676-0.610352Q5.17578-1.97266 4.62891-3.6084Q4.08203-5.24414 4.08203-7.05078Q4.08203-8.86719 4.62891-10.5029Q5.17578-12.1387 6.17188-13.501Q7.16797-14.8633 8.52539-15.8594Q9.88281-16.8555 11.5186-17.4023Q13.1543-17.9492 14.9609-17.9492Q16.7773-17.9492 18.4131-17.4023Q20.0488-16.8555 21.4111-15.8594Q22.7734-14.8633 23.7744-13.501Q24.7754-12.1387 25.3223-10.5029Q25.8691-8.86719 25.8691-7.05078Q25.8691-5.24414 25.3223-3.6084Q24.7754-1.97266 23.7793-0.610352Q22.7832 0.751953 21.4209 1.74805Q20.0586 2.74414 18.4229 3.2959Q16.7871 3.84766 14.9707 3.84766ZM9.19922-7.05078Q9.19922-6.66992 9.45801-6.4209Q9.7168-6.17188 10.1172-6.17188L14.0625-6.17188L14.0625-2.2168Q14.0625-1.81641 14.3115-1.55762Q14.5605-1.29883 14.9512-1.29883Q15.3516-1.29883 15.6104-1.55273Q15.8691-1.80664 15.8691-2.2168L15.8691-6.17188L19.8242-6.17188Q20.2246-6.17188 20.4785-6.4209Q20.7324-6.66992 20.7324-7.05078Q20.7324-7.46094 20.4785-7.71484Q20.2246-7.96875 19.8242-7.96875L15.8691-7.96875L15.8691-11.9141Q15.8691-12.3242 15.6104-12.583Q15.3516-12.8418 14.9512-12.8418Q14.5605-12.8418 14.3115-12.583Q14.0625-12.3242 14.0625-11.9141L14.0625-7.96875L10.1172-7.96875Q9.70703-7.96875 9.45312-7.71484Q9.19922-7.46094 9.19922-7.05078Z"/>
  </g>
  <text style="stroke:none;fill:black;font-family:sans-serif;font-size:13;font-weight:bold;" transform="matrix(1 0 0 1 263 1953)">Design Variations</text>
  <text style="stroke:none;fill:black;font-family:sans-serif;font-size:13;" transform="matrix(1 0 0 1 263 1971)">Symbols are supported in up to nine weights and three scales.</text>
  <text style="stroke:none;fill:black;font-family:sans-serif;font-size:13;" transform="matrix(1 0 0 1 263 1989)">For optimal layout with text and other symbols, vertically align</text>
  <text style="stroke:none;fill:black;font-family:sans-serif;font-size:13;" transform="matrix(1 0 0 1 263 2007)">symbols with the adjacent text.</text>
  <line style="fill:none;stroke:#00AEEF;stroke-width:0.5;opacity:1.0;" x1="776" x2="776" y1="1919" y2="1933"/>
  <g transform="matrix(1 0 0 1 776 1933)">
   <path d="M3.31055 0.15625Q3.70117 0.15625 3.91602-0.00976562Q4.13086-0.175781 4.26758-0.585938L5.52734-4.0332L11.2891-4.0332L12.5488-0.585938Q12.6855-0.175781 12.9004-0.00976562Q13.1152 0.15625 13.4961 0.15625Q13.8867 0.15625 14.1162-0.0585938Q14.3457-0.273438 14.3457-0.644531Q14.3457-0.869141 14.2383-1.17188L9.6582-13.3691Q9.48242-13.8184 9.17969-14.043Q8.87695-14.2676 8.4082-14.2676Q7.5-14.2676 7.17773-13.3789L2.59766-1.16211Q2.49023-0.859375 2.49023-0.634766Q2.49023-0.263672 2.70996-0.0537109Q2.92969 0.15625 3.31055 0.15625ZM6.00586-5.51758L8.37891-12.0898L8.42773-12.0898L10.8008-5.51758Z"/>
  </g>
  <line style="fill:none;stroke:#00AEEF;stroke-width:0.5;opacity:1.0;" x1="793.197" x2="793.197" y1="1919" y2="1933"/>
  <text style="stroke:none;fill:black;font-family:sans-serif;font-size:13;font-weight:bold;" transform="matrix(1 0 0 1 776 1953)">Margins</text>
  <text style="stroke:none;fill:black;font-family:sans-serif;font-size:13;" transform="matrix(1 0 0 1 776 1971)">Leading and trailing margins on the left and right side of each symbol</text>
  <text style="stroke:none;fill:black;font-family:sans-serif;font-size:13;" transform="matrix(1 0 0 1 776 1989)">can be adjusted by modifying the x-location of the margin guidelines.</text>
  <text style="stroke:none;fill:black;font-family:sans-serif;font-size:13;" transform="matrix(1 0 0 1 776 2007)">Modifications are automatically applied proportionally to all</text>
  <text style="stroke:none;fill:black;font-family:sans-serif;font-size:13;" transform="matrix(1 0 0 1 776 2025)">scales and weights.</text>
  <g transform="matrix(1 0 0 1 1289 1933)">
   <path d="M2.8418 1.86523L4.54102 3.57422Q5.18555 4.22852 5.90332 4.17969Q6.62109 4.13086 7.31445 3.35938L18.0078-8.42773L17.041-9.4043L6.42578 2.27539Q6.16211 2.57812 5.89355 2.61719Q5.625 2.65625 5.27344 2.30469L4.10156 1.14258Q3.75 0.791016 3.79395 0.522461Q3.83789 0.253906 4.14062-0.0195312L15.6152-10.8203L14.6387-11.7871L3.04688-0.898438Q2.30469-0.214844 2.25098 0.498047Q2.19727 1.21094 2.8418 1.86523ZM9.25781-16.3281Q8.94531-16.0254 8.90625-15.6348Q8.86719-15.2441 9.04297-14.9512Q9.21875-14.6777 9.55566-14.541Q9.89258-14.4043 10.3809-14.5215Q11.4746-14.7754 12.5977-14.7314Q13.7207-14.6875 14.7949-13.9844L14.209-12.5293Q13.9551-11.9043 14.0674-11.4404Q14.1797-10.9766 14.5801-10.5664L16.875-8.25195Q17.2363-7.88086 17.5781-7.82227Q17.9199-7.76367 18.3398-7.8418L19.4043-8.03711L20.0684-7.36328L20.0293-6.80664Q20-6.43555 20.1221-6.12305Q20.2441-5.81055 20.6055-5.44922L21.3672-4.70703Q21.7285-4.3457 22.1533-4.33105Q22.5781-4.31641 22.9297-4.66797L25.8398-7.58789Q26.1914-7.93945 26.1816-8.35449Q26.1719-8.76953 25.8105-9.13086L25.0391-9.89258Q24.6875-10.2539 24.3799-10.3857Q24.0723-10.5176 23.7109-10.4883L23.1348-10.4395L22.4902-11.0742L22.7344-12.1973Q22.832-12.6172 22.6953-12.9834Q22.5586-13.3496 22.1191-13.7891L19.9219-15.9766Q18.6719-17.2168 17.2607-17.8369Q15.8496-18.457 14.4189-18.4814Q12.9883-18.5059 11.665-17.959Q10.3418-17.4121 9.25781-16.3281ZM10.752-15.957Q11.6602-16.6211 12.7002-16.9043Q13.7402-17.1875 14.8047-17.085Q15.8691-16.9824 16.8701-16.5137Q17.8711-16.0449 18.7012-15.2051L21.1328-12.793Q21.3086-12.6172 21.3525-12.4512Q21.3965-12.2852 21.3379-12.0312L21.0156-10.5469L22.5195-9.0625L23.5059-9.12109Q23.6914-9.13086 23.7891-9.09668Q23.8867-9.0625 24.0332-8.91602L24.6094-8.33984L22.168-5.89844L21.5918-6.47461Q21.4453-6.62109 21.4062-6.71875Q21.3672-6.81641 21.377-7.01172L21.4453-7.98828L19.9512-9.47266L18.4277-9.21875Q18.1836-9.16992 18.042-9.2041Q17.9004-9.23828 17.7148-9.41406L15.7129-11.416Q15.5176-11.5918 15.4932-11.7529Q15.4688-11.9141 15.5859-12.1875L16.4648-14.2773Q15.293-15.3711 13.8281-15.791Q12.3633-16.2109 10.8398-15.7617Q10.7227-15.7324 10.6885-15.8057Q10.6543-15.8789 10.752-15.957Z"/>
  </g>
  <text style="stroke:none;fill:black;font-family:sans-serif;font-size:13;font-weight:bold;" transform="matrix(1 0 0 1 1289 1953)">Exporting</text>
  <text style="stroke:none;fill:black;font-family:sans-serif;font-size:13;" transform="matrix(1 0 0 1 1289 1971)">Symbols should be outlined when exporting to ensure the</text>
  <text style="stroke:none;fill:black;font-family:sans-serif;font-size:13;" transform="matrix(1 0 0 1 1289 1989)">design is preserved when submitting to Xcode.</text>
  <text id="template-version" style="stroke:none;fill:black;font-family:sans-serif;font-size:13;text-anchor:end;" transform="matrix(1 0 0 1 3036 1933)">Template v.2.0</text>
  <text style="stroke:none;fill:black;font-family:sans-serif;font-size:13;text-anchor:end;" transform="matrix(1 0 0 1 3036 1951)">Requires Xcode 12 or greater</text>
  <text id="descriptive-name" style="stroke:none;fill:black;font-family:sans-serif;font-size:13;text-anchor:end;" transform="matrix(1 0 0 1 3036 1969)">Generated from figure.martial.arts</text>
  <text style="stroke:none;fill:black;font-family:sans-serif;font-size:13;text-anchor:end;" transform="matrix(1 0 0 1 3036 1987)">Typeset at 100 points</text>
  <text style="stroke:none;fill:black;font-family:sans-serif;font-size:13;" transform="matrix(1 0 0 1 263 726)">Small</text>
  <text style="stroke:none;fill:black;font-family:sans-serif;font-size:13;" transform="matrix(1 0 0 1 263 1156)">Medium</text>
  <text style="stroke:none;fill:black;font-family:sans-serif;font-size:13;" transform="matrix(1 0 0 1 263 1586)">Large</text>
 </g>
 <g id="Guides">
  <g id="H-reference" style="fill:#27AAE1;stroke:none;" transform="matrix(1 0 0 1 339 696)">
   <path d="M0.993347 0L3.6377 0L29.3282-67.1326L30.0301-67.1326L30.0301-70.459L28.1227-70.459ZM11.6882-24.4797L46.9818-24.4797L46.2311-26.7288L12.4382-26.7288ZM55.1193 0L57.7637 0L30.6381-70.459L29.4327-70.459L29.4327-67.1326Z"/>
  </g>
  <line id="Baseline-S" style="fill:none;stroke:#27AAE1;opacity:1;stroke-width:0.5;" x1="263" x2="3036" y1="696" y2="696"/>
  <line id="Capline-S" style="fill:none;stroke:#27AAE1;opacity:1;stroke-width:0.5;" x1="263" x2="3036" y1="625.541" y2="625.541"/>
  <g id="H-reference" style="fill:#27AAE1;stroke:none;" transform="matrix(1 0 0 1 339 1126)">
   <path d="M0.993347 0L3.6377 0L29.3282-67.1326L30.0301-67.1326L30.0301-70.459L28.1227-70.459ZM11.6882-24.4797L46.9818-24.4797L46.2311-26.7288L12.4382-26.7288ZM55.1193 0L57.7637 0L30.6381-70.459L29.4327-70.459L29.4327-67.1326Z"/>
  </g>
  <line id="Baseline-M" style="fill:none;stroke:#27AAE1;opacity:1;stroke-width:0.5;" x1="263" x2="3036" y1="1126" y2="1126"/>
  <line id="Capline-M" style="fill:none;stroke:#27AAE1;opacity:1;stroke-width:0.5;" x1="263" x2="3036" y1="1055.54" y2="1055.54"/>
  <g id="H-reference" style="fill:#27AAE1;stroke:none;" transform="matrix(1 0 0 1 339 1556)">
   <path d="M0.993347 0L3.6377 0L29.3282-67.1326L30.0301-67.1326L30.0301-70.459L28.1227-70.459ZM11.6882-24.4797L46.9818-24.4797L46.2311-26.7288L12.4382-26.7288ZM55.1193 0L57.7637 0L30.6381-70.459L29.4327-70.459L29.4327-67.1326Z"/>
  </g>
  <line id="Baseline-L" style="fill:none;stroke:#27AAE1;opacity:1;stroke-width:0.5;" x1="263" x2="3036" y1="1556" y2="1556"/>
  <line id="Capline-L" style="fill:none;stroke:#27AAE1;opacity:1;stroke-width:0.5;" x1="263" x2="3036" y1="1485.54" y2="1485.54"/>
  <line id="left-margin" style="fill:none;stroke:#00AEEF;stroke-width:0.5;opacity:1.0;" x1="1393.76" x2="1393.76" y1="1030.79" y2="1150.12"/>
  <line id="right-margin" style="fill:none;stroke:#00AEEF;stroke-width:0.5;opacity:1.0;" x1="1505.93" x2="1505.93" y1="1030.79" y2="1150.12"/>
 </g>
 <g id="Symbols">
  <g id="Black-L" transform="matrix(1 0 0 1 2857.07 1556)">
   <path d="M64.543-85.4601Q70.9674-85.4601 75.5009-90.0234Q80.0343-94.5866 80.0343-100.994Q80.0343-107.397 75.5009-111.93Q70.9674-116.463 64.543-116.463Q58.1563-116.463 53.5936-111.93Q49.0309-107.397 49.0309-100.994Q49.0309-94.5866 53.5936-90.0234Q58.1563-85.4601 64.543-85.4601ZM94.8694 44.8803Q98.1829 44.8803 100.479 42.5443Q102.776 40.2084 102.776 36.9729L102.776-0.492406Q102.776-1.98835 102.016-3.75475Q101.256-5.52115 99.3012-6.79905L75.7197-22.4726L75.7197-61.5145Q75.7197-63.1205 77.3841-63.1205L128.583-63.1205Q131.918-63.1205 134.243-65.4862Q136.568-67.852 136.568-71.0863Q136.568-74.3427 134.243-76.6786Q131.918-79.0145 128.583-79.0145L54.0753-79.0145Q49.03-79.0145 45.8295-77.2333Q42.6289-75.4521 40.1239-72.3269L22.5159-50.6884Q20.1574-47.7109 20.4058-44.3449Q20.6543-40.9789 22.8002-38.5626Q24.9461-36.1462 28.2012-36.1462L46.4091-36.1462L46.4091-28.0064Q46.4091-23.0428 48.9719-18.7494Q51.5347-14.456 55.9586-12.0546L86.9412 4.58155L86.9412 36.9729Q86.9412 40.2084 89.2771 42.5443Q91.613 44.8803 94.8694 44.8803ZM41.9049-50.9725L47.3733-57.7392L47.3733-50.9725ZM17.9612 42.1649Q20.1797 44.7403 23.4823 44.8907Q26.7848 45.0411 29.2822 42.8434L55.7764 19.6793Q57.6964 18.0553 58.4334 16.2633L64.4842 1.08086L52.3878-5.41627Q51.4888-5.93518 50.6085-6.71033Q49.7283-7.48547 48.9098-8.49486L44.0585 8.93321L18.7202 31.0231Q16.324 33.1404 16.0944 36.4552Q15.8647 39.7699 17.9612 42.1649Z"/>
  </g>
  <g id="Heavy-L" transform="matrix(1 0 0 1 2561.39 1556)">
   <path d="M63.6617-84.8434Q69.9034-84.8434 74.3115-89.2765Q78.7195-93.7096 78.7195-99.9672Q78.7195-106.173 74.3115-110.581Q69.9034-114.989 63.6617-114.989Q57.4343-114.989 53.004-110.581Q48.5736-106.173 48.5736-99.9672Q48.5736-93.7096 53.004-89.2765Q57.4343-84.8434 63.6617-84.8434ZM93.6129 43.4391Q96.7709 43.4391 98.9619 41.2107Q101.153 38.9823 101.153 35.8934L101.153-1.10184Q101.153-2.52003 100.423-4.20179Q99.6933-5.88355 97.8341-7.10194L74.4407-22.6502L74.4407-61.5904Q74.4407-63.1876 76.0825-63.1876L126.892-63.1876Q130.086-63.1876 132.297-65.4411Q134.507-67.6946 134.507-70.7778Q134.507-73.8969 132.297-76.1253Q130.086-78.3537 126.892-78.3537L53.334-78.3537Q48.4211-78.3537 45.3209-76.6226Q42.2207-74.8916 39.7659-71.8349L22.3885-50.4859Q20.1215-47.6226 20.3493-44.4008Q20.577-41.179 22.6223-38.8702Q24.6676-36.5613 27.781-36.5613L46.0295-36.5613L46.0295-28.2496Q46.0295-23.4228 48.5262-19.2504Q51.0229-15.078 55.3281-12.745L86.037 3.75703L86.037 35.8934Q86.037 38.9823 88.2654 41.2107Q90.4938 43.4391 93.6129 43.4391ZM41.0506-50.7931L46.8421-57.9799L46.8421-50.7931ZM17.874 40.8472Q20.0104 43.3085 23.1506 43.4542Q26.2908 43.5999 28.6828 41.4937L54.8377 18.628Q56.6938 17.041 57.385 15.3537L63.5879-0.184173L51.9211-6.44368Q51.0635-6.93502 50.213-7.64344Q49.3626-8.35185 48.5853-9.24163L43.6784 8.34408L18.6011 30.2183Q16.3196 32.244 16.0991 35.4077Q15.8785 38.5714 17.874 40.8472Z"/>
  </g>
  <g id="Bold-L" transform="matrix(1 0 0 1 2266.02 1556)">
   <path d="M62.5258-84.0304Q68.5446-84.0304 72.7989-88.3059Q77.0532-92.5813 77.0532-98.6471Q77.0532-104.615 72.7989-108.869Q68.5446-113.123 62.5258-113.123Q56.4981-113.123 52.2292-108.869Q47.9603-104.615 47.9603-98.6471Q47.9603-92.5813 52.2292-88.3059Q56.4981-84.0304 62.5258-84.0304ZM91.9638 41.5967Q94.9372 41.5967 97.005 39.4953Q99.0728 37.3939 99.0728 34.4745L99.0728-1.87726Q99.0728-3.20312 98.3776-4.78485Q97.6824-6.36657 95.9386-7.51573L72.828-22.873L72.828-61.5709Q72.828-63.1528 74.4392-63.1528L124.653-63.1528Q127.678-63.1528 129.753-65.2755Q131.829-67.3981 131.829-70.3042Q131.829-73.2618 129.753-75.3632Q127.678-77.4646 124.653-77.4646L52.3897-77.4646Q47.6382-77.4646 44.661-75.795Q41.6837-74.1254 39.2904-71.1533L22.2272-50.1952Q20.0679-47.4703 20.2726-44.4178Q20.4772-41.3654 22.4033-39.1835Q24.3293-37.0015 27.2735-37.0015L45.5086-37.0015L45.5086-28.5269Q45.5086-23.8692 47.9246-19.8429Q50.3405-15.8166 54.4997-13.5682L84.8035 2.7276L84.8035 34.4745Q84.8035 37.3939 86.9048 39.4953Q89.0062 41.5967 91.9638 41.5967ZM40.0201-50.5256L46.1515-58.1529L46.1515-50.5256ZM17.7738 39.1511Q19.8104 41.4739 22.7582 41.6157Q25.706 41.7575 27.9749 39.7591L53.6699 17.2995Q55.449 15.7512 56.0865 14.1944L62.4515-1.71438L51.3001-7.68935Q50.4887-8.14986 49.6728-8.78495Q48.857-9.42004 48.126-10.1787L43.165 7.56194L18.4625 29.1225Q16.3119 31.0405 16.1029 34.0272Q15.8939 37.0138 17.7738 39.1511Z"/>
  </g>
  <g id="Semibold-L" transform="matrix(1 0 0 1 1970.23 1556)">
   <path d="M61.7428-83.4699Q67.6078-83.4699 71.7562-87.6367Q75.9045-91.8035 75.9045-97.737Q75.9045-103.54 71.7562-107.689Q67.6078-111.837 61.7428-111.837Q55.8528-111.837 51.6951-107.689Q47.5375-103.54 47.5375-97.737Q47.5375-91.8035 51.6951-87.6367Q55.8528-83.4699 61.7428-83.4699ZM90.8269 40.3265Q93.673 40.3265 95.6559 38.3127Q97.6388 36.2989 97.6388 33.4962L97.6388-2.41183Q97.6388-3.67404 96.9675-5.1868Q96.2961-6.69956 94.6319-7.801L71.7162-23.0266L71.7162-61.5575Q71.7162-63.1289 73.3062-63.1289L123.109-63.1289Q126.017-63.1289 128-65.1613Q129.983-67.1938 129.983-69.9778Q129.983-72.8239 128-74.8378Q126.017-76.8516 123.109-76.8516L51.7388-76.8516Q47.0985-76.8516 44.206-75.2244Q41.3136-73.5973 38.9626-70.6834L22.116-49.9948Q20.031-47.3653 20.2197-44.4296Q20.4084-41.4938 22.2523-39.3994Q24.0961-37.305 26.9237-37.305L45.1494-37.305L45.1494-28.7182Q45.1494-24.1769 47.5098-20.2513Q49.8701-16.3258 53.9286-14.1357L83.953 2.01792L83.953 33.4962Q83.953 36.2989 85.9669 38.3127Q87.9807 40.3265 90.8269 40.3265ZM39.3096-50.3412L45.6754-58.2721L45.6754-50.3412ZM17.7048 37.9817Q19.6724 40.2092 22.4876 40.3483Q25.3028 40.4873 27.4868 38.5632L52.8648 16.3836Q54.5909 14.862 55.1913 13.3952L61.6681-2.76929L50.8719-8.54811Q50.0924-8.98736 49.3005-9.57191Q48.5085-10.1565 47.8094-10.8248L42.811 7.02273L18.367 28.3671Q16.3066 30.2109 16.1056 33.0754Q15.9046 35.94 17.7048 37.9817Z"/>
  </g>
  <g id="Medium-L" transform="matrix(1 0 0 1 1674.22 1556)">
   <path d="M61.149-83.045Q66.8975-83.045 70.9655-87.1293Q75.0335-91.2137 75.0335-97.047Q75.0335-102.726 70.9655-106.794Q66.8975-110.862 61.149-110.862Q55.3634-110.862 51.2902-106.794Q47.2169-102.726 47.2169-97.047Q47.2169-91.2137 51.2902-87.1293Q55.3634-83.045 61.149-83.045ZM89.9648 39.3634Q92.7144 39.3634 94.6329 37.416Q96.5515 35.4686 96.5515 32.7545L96.5515-2.81716Q96.5515-4.03111 95.8982-5.49158Q95.245-6.95205 93.6411-8.0173L70.8732-23.143L70.8732-61.5473Q70.8732-63.1108 72.4472-63.1108L121.939-63.1108Q124.758-63.1108 126.671-65.0748Q128.584-67.0388 128.584-69.7302Q128.584-72.4919 126.671-74.4394Q124.758-76.3868 121.939-76.3868L51.2452-76.3868Q46.6892-76.3868 43.8611-74.7918Q41.0329-73.1968 38.7141-70.3272L22.0317-49.8429Q20.003-47.2857 20.1796-44.4385Q20.3562-41.5913 22.1378-39.5632Q23.9193-37.5352 26.6584-37.5352L44.8771-37.5352L44.8771-28.8631Q44.8771-24.4102 47.1953-20.5611Q49.5135-16.7119 53.4956-14.5661L83.3082 1.47981L83.3082 32.7545Q83.3082 35.4686 85.2557 37.416Q87.2031 39.3634 89.9648 39.3634ZM38.7709-50.2013L45.3144-58.3624L45.3144-50.2013ZM17.6524 37.0951Q19.5679 39.2502 22.2825 39.3872Q24.9971 39.5243 27.1167 37.6564L52.2543 15.6891Q53.9403 14.1877 54.5125 12.7892L61.0741-3.56917L50.5473-9.19926Q49.792-9.62239 49.0181-10.1686Q48.2442-10.7148 47.5693-11.3146L42.5426 6.61388L18.2945 27.7944Q16.3026 29.5818 16.1076 32.3538Q15.9126 35.1259 17.6524 37.0951Z"/>
  </g>
  <g id="Regular-L" transform="matrix(1 0 0 1 1378.42 1556)">
   <path d="M60.3746-82.4907Q65.9711-82.4907 69.9343-86.4675Q73.8974-90.4444 73.8974-96.1469Q73.8974-101.663 69.9343-105.626Q65.9711-109.589 60.3746-109.589Q54.7251-109.589 50.762-105.626Q46.7988-101.663 46.7988-96.1469Q46.7988-90.4444 50.762-86.4675Q54.7251-82.4907 60.3746-82.4907ZM88.8404 38.1072Q91.4641 38.1072 93.2987 36.2464Q95.1332 34.3856 95.1332 31.787L95.1332-3.34585Q95.1332-4.49686 94.5036-5.88912Q93.8739-7.28138 92.3487-8.29943L69.7736-23.2949L69.7736-61.534Q69.7736-63.0871 71.3268-63.0871L120.412-63.0871Q123.116-63.0871 124.937-64.9619Q126.758-66.8367 126.758-69.4073Q126.758-72.0589 124.937-73.9197Q123.116-75.7806 120.412-75.7806L50.6014-75.7806Q46.1554-75.7806 43.4111-74.2275Q40.6668-72.6744 38.3899-69.8624L21.9217-49.6447Q19.9665-47.1818 20.1274-44.4501Q20.2882-41.7183 21.9884-39.7768Q23.6887-37.8353 26.3123-37.8353L44.5219-37.8353L44.5219-29.0522Q44.5219-24.7146 46.7851-20.965Q49.0482-17.2155 52.9308-15.1273L82.4672 0.777933L82.4672 31.787Q82.4672 34.3856 84.328 36.2464Q86.1888 38.1072 88.8404 38.1072ZM38.0682-50.0189L44.8436-58.4803L44.8436-50.0189ZM17.5841 35.9387Q19.4315 37.9994 22.0149 38.1337Q24.5984 38.2681 26.634 36.4737L51.4581 14.7833Q53.0916 13.3083 53.6271 11.9988L60.2992-4.61249L50.1239-10.0486Q49.4001-10.4507 48.6498-10.9469Q47.8995-11.4431 47.2562-11.9535L42.1925 6.0806L18.2 27.0473Q16.2974 28.7612 16.1103 31.4125Q15.9231 34.0639 17.5841 35.9387Z"/>
  </g>
  <g id="Light-L" transform="matrix(1 0 0 1 1083.04 1556)">
   <path d="M59.3059-81.6127Q64.7686-81.6127 68.6364-85.5037Q72.5042-89.3946 72.5042-94.9255Q72.5042-100.308 68.6364-104.176Q64.7686-108.043 59.3059-108.043Q53.809-108.043 49.9412-104.176Q46.0735-100.308 46.0735-94.9255Q46.0735-89.3946 49.9412-85.5037Q53.809-81.6127 59.3059-81.6127ZM87.1037 36.4658Q89.6511 36.4658 91.4475 34.6527Q93.2439 32.8397 93.2439 30.2793L93.2439-4.01378Q93.2439-5.12662 92.6237-6.48073Q92.0035-7.83483 90.5357-8.83396L68.476-23.4668L68.476-60.7897Q68.476-62.3047 69.9909-62.3047L117.931-62.3047Q120.558-62.3047 122.332-64.1413Q124.105-65.9779 124.105-68.4912Q124.105-71.0857 122.332-72.8988Q120.558-74.7118 117.931-74.7118L49.7808-74.7118Q45.4301-74.7118 42.7621-73.1969Q40.0941-71.682 37.8554-68.9274L21.788-49.1868Q19.871-46.8003 20.0318-44.1257Q20.1926-41.4512 21.8453-39.5573Q23.4979-37.6635 26.0452-37.6635L43.8347-37.6635L43.8347-29.0904Q43.8347-24.8672 46.0503-21.194Q48.2658-17.5207 52.0528-15.49L80.8831 0.0144521L80.8831 30.2793Q80.8831 32.8397 82.6962 34.6527Q84.5092 36.4658 87.1037 36.4658ZM37.5337-49.5418L44.1564-57.7932L44.1564-49.5418ZM17.5648 34.3546Q19.3551 36.3391 21.8623 36.4828Q24.3695 36.6266 26.3669 34.8704L50.6183 13.6953Q52.2137 12.2014 52.7303 10.9871L59.345-5.43305L49.4178-10.7358Q48.694-11.1379 47.9532-11.6435Q47.2124-12.1492 46.569-12.6789L41.5627 5.20265L18.1619 25.654Q16.2781 27.3298 16.1006 29.9239Q15.9231 32.518 17.5648 34.3546Z"/>
  </g>
  <g id="Thin-L" transform="matrix(1 0 0 1 788.082 1556)">
   <path d="M57.8924-80.4515Q63.1783-80.4515 66.9199-84.2288Q70.6615-88.0061 70.6615-93.3102Q70.6615-98.5157 66.9199-102.257Q63.1783-105.999 57.8924-105.999Q52.5974-105.999 48.8558-102.257Q45.1142-98.5157 45.1142-93.3102Q45.1142-88.0061 48.8558-84.2288Q52.5974-80.4515 57.8924-80.4515ZM84.8068 34.2949Q87.2533 34.2949 88.9992 32.545Q90.7452 30.7951 90.7452 28.2852L90.7452-4.89716Q90.7452-5.95954 90.1375-7.26318Q89.5298-8.56682 88.1379-9.54092L66.7597-23.6941L66.7597-59.8054Q66.7597-61.2699 68.2241-61.2699L114.649-61.2699Q117.176-61.2699 118.886-63.0561Q120.596-64.8422 120.596-67.2796Q120.596-69.7986 118.886-71.5485Q117.176-73.2983 114.649-73.2983L48.6955-73.2983Q44.4708-73.2983 41.9037-71.8339Q39.3367-70.3694 37.1484-67.6908L21.6112-48.5812Q19.7446-46.2956 19.9054-43.6968Q20.0663-41.098 21.6559-39.2671Q23.2455-37.4362 25.692-37.4362L42.9259-37.4362L42.9259-29.1409Q42.9259-25.0691 45.0785-21.4968Q47.2311-17.9245 50.8917-15.9696L78.7881-0.995313L78.7881 28.2852Q78.7881 30.7951 80.538 32.545Q82.2878 34.2949 84.8068 34.2949ZM36.8267-48.9107L43.2476-56.8843L43.2476-48.9107ZM17.5394 32.2596Q19.2542 34.1431 21.6604 34.2994Q24.0667 34.4557 26.0137 32.75L49.5076 12.2563Q51.0525 10.7374 51.5441 9.64907L58.0829-6.5183L48.4839-11.6446Q47.7602-12.0467 47.0318-12.5649Q46.3035-13.0831 45.6602-13.6382L40.7298 4.04148L18.1114 23.8113Q16.2527 25.4366 16.0879 27.955Q15.9231 30.4734 17.5394 32.2596Z"/>
  </g>
  <g id="Ultralight-L" transform="matrix(1 0 0 1 492.27 1556)">
   <path d="M57.1684-79.8568Q62.3637-79.8568 66.0407-83.5759Q69.7177-87.295 69.7177-92.4828Q69.7177-97.5977 66.0407-101.275Q62.3637-104.952 57.1684-104.952Q51.9768-104.952 48.2998-101.275Q44.6228-97.5977 44.6228-92.4828Q44.6228-87.295 48.2998-83.5759Q51.9768-79.8568 57.1684-79.8568ZM83.6304 33.1829Q86.0251 33.1829 87.7452 31.4654Q89.4653 29.7479 89.4653 27.2638L89.4653-5.34963Q89.4653-6.38616 88.8641-7.66395Q88.2628-8.94174 86.9097-9.90303L65.8806-23.8105L65.8806-59.3013Q65.8806-60.7399 67.3192-60.7399L112.968-60.7399Q115.443-60.7399 117.121-62.5002Q118.799-64.2605 118.799-66.659Q118.799-69.1393 117.121-70.8568Q115.443-72.5744 112.968-72.5744L48.1397-72.5744Q43.9795-72.5744 41.4641-71.1357Q38.9487-69.6971 36.7863-67.0573L21.5206-48.271Q19.6798-46.0371 19.8407-43.4771Q20.0015-40.917 21.5589-39.1184Q23.1163-37.3197 25.511-37.3197L42.4604-37.3197L42.4604-29.1667Q42.4604-25.1725 44.5807-21.6519Q46.701-18.1313 50.2969-16.2153L77.715-1.51251L77.715 27.2638Q77.715 29.7479 79.4325 31.4654Q81.1501 33.1829 83.6304 33.1829ZM36.4646-48.5875L42.7821-56.4188L42.7821-48.5875ZM17.5264 31.1865Q19.2025 33.0183 21.557 33.1811Q23.9116 33.3438 25.8327 31.6639L48.9387 11.5193Q50.4577 9.98759 50.9365 8.96374L57.4364-7.07417L48.0056-12.1101Q47.2818-12.5122 46.5599-13.0368Q45.838-13.5614 45.1947-14.1295L40.3032 3.44674L18.0856 22.8675Q16.2396 24.467 16.0814 26.9466Q15.9231 29.4262 17.5264 31.1865Z"/>
  </g>
  <g id="Black-M" transform="matrix(1 0 0 1 2873.56 1126)">
   <path d="M50.6169-74.5563Q55.7329-74.5563 59.34-78.1919Q62.9472-81.8275 62.9472-86.8973Q62.9472-92.0081 59.34-95.6153Q55.7329-99.2224 50.6169-99.2224Q45.5525-99.2224 41.9168-95.6153Q38.2811-92.0081 38.2811-86.8973Q38.2811-81.8275 41.9168-78.1919Q45.5525-74.5563 50.6169-74.5563ZM74.3439 27.8511Q77.0343 27.8511 78.8987 25.9554Q80.7631 24.0597 80.7631 21.4322L80.7631-7.88394Q80.7631-9.10456 80.1503-10.5406Q79.5376-11.9767 77.948-13.0153L59.5866-25.2168L59.5866-55.4275Q59.5866-56.6742 60.8903-56.6742L100.735-56.6742Q103.431-56.6742 105.324-58.5983Q107.217-60.5224 107.217-63.1503Q107.217-65.7833 105.324-67.679Q103.431-69.5747 100.735-69.5747L42.4202-69.5747Q38.4107-69.5747 35.8552-68.1568Q33.2996-66.7388 31.3209-64.2666L17.5354-47.3181Q15.6347-44.9235 15.8449-42.1996Q16.0552-39.4757 17.7977-37.5177Q19.5403-35.5597 22.1736-35.5597L36.1882-35.5597L36.1882-29.4297Q36.1882-25.4821 38.2241-22.0622Q40.26-18.6422 43.7764-16.7307L67.9194-3.78103L67.9194 21.4322Q67.9194 24.0597 69.8151 25.9554Q71.7108 27.8511 74.3439 27.8511ZM33.1272-47.5157L37.0655-52.3688L37.0655-47.5157ZM13.9876 25.649Q15.7692 27.732 18.4571 27.8539Q21.1449 27.9757 23.1651 26.1996L43.9052 8.06669Q45.4426 6.7742 46.0503 5.30872L50.5996-6.1223L40.8924-11.3421Q40.1603-11.7678 39.4541-12.4269Q38.7479-13.0861 38.0782-13.9735L34.3753-0.627441L14.6005 16.6021Q12.6481 18.316 12.4637 21.0062Q12.2792 23.6963 13.9876 25.649Z"/>
  </g>
  <g id="Heavy-M" transform="matrix(1 0 0 1 2577.73 1126)">
   <path d="M49.8539-74.0344Q54.8037-74.0344 58.2971-77.5507Q61.7904-81.067 61.7904-86.0061Q61.7904-90.9372 58.2971-94.4305Q54.8037-97.9239 49.8539-97.9239Q44.9312-97.9239 41.4161-94.4305Q37.9009-90.9372 37.9009-86.0061Q37.9009-81.067 41.4161-77.5507Q44.9312-74.0344 49.8539-74.0344ZM73.2758 26.5937Q75.8212 26.5937 77.5862 24.7987Q79.3512 23.0037 79.3512 20.516L79.3512-8.41809Q79.3512-9.56622 78.7666-10.9231Q78.1821-12.2799 76.6811-13.2621L58.456-25.3746L58.456-55.5704Q58.456-56.8119 59.7412-56.8119L99.3116-56.8119Q101.876-56.8119 103.661-58.6299Q105.447-60.4478 105.447-62.9332Q105.447-65.4374 103.661-67.2323Q101.876-69.0273 99.3116-69.0273L41.7713-69.0273Q37.8823-69.0273 35.4179-67.6549Q32.9534-66.2825 31.0203-63.8719L17.4232-47.1624Q15.6084-44.8724 15.7985-42.2842Q15.9885-39.6959 17.6371-37.8386Q19.2856-35.9813 21.7875-35.9813L35.8805-35.9813L35.8805-29.6639Q35.8805-25.8395 37.8562-22.5308Q39.8318-19.2221 43.241-17.3722L67.1817-4.51662L67.1817 20.516Q67.1817 23.0037 68.9766 24.7987Q70.7716 26.5937 73.2758 26.5937ZM32.3414-47.3844L36.6096-52.6675L36.6096-47.3844ZM13.9042 24.507Q15.6108 26.4855 18.1469 26.6019Q20.6831 26.7183 22.6038 25.0281L43.0651 7.1394Q44.5434 5.88479 45.1082 4.51293L49.8115-7.28326L40.5013-12.283Q39.8097-12.6818 39.1317-13.2749Q38.4537-13.8679 37.8244-14.6366L34.0619-1.12235L14.4876 15.9439Q12.6456 17.5718 12.4691 20.1195Q12.2927 22.6673 13.9042 24.507Z"/>
  </g>
  <g id="Bold-M" transform="matrix(1 0 0 1 2282.01 1126)">
   <path d="M49.0003-73.4506Q53.7643-73.4506 57.1303-76.8335Q60.4963-80.2163 60.4963-85.009Q60.4963-89.7393 57.1303-93.1053Q53.7643-96.4713 49.0003-96.4713Q44.2362-96.4713 40.8559-93.1053Q37.4757-89.7393 37.4757-85.009Q37.4757-80.2163 40.8559-76.8335Q44.2362-73.4506 49.0003-73.4506ZM72.0809 25.187Q74.4643 25.187 76.118 23.5047Q77.7717 21.8224 77.7717 19.4912L77.7717-9.01561Q77.7717-10.0827 77.2187-11.3509Q76.6657-12.6191 75.2638-13.5382L57.1913-25.5511L57.1913-55.7302Q57.1913-56.966 58.4557-56.966L97.7188-56.966Q100.136-56.966 101.801-58.6652Q103.467-60.3643 103.467-62.6904Q103.467-65.0504 101.801-66.7326Q100.136-68.4149 97.7188-68.4149L41.0454-68.4149Q37.2913-68.4149 34.9287-67.0935Q32.5661-65.772 30.6839-63.4303L17.2977-46.9883Q15.579-44.8152 15.7464-42.3788Q15.9139-39.9423 17.4573-38.1976Q19.0008-36.453 21.3556-36.453L35.5364-36.453L35.5364-29.9258Q35.5364-26.2392 37.4446-23.055Q39.3528-19.8708 42.6422-18.0898L66.3564-5.33949L66.3564 19.4912Q66.3564 21.8224 68.0387 23.5047Q69.721 25.187 72.0809 25.187ZM31.4624-47.2375L36.0996-53.0016L36.0996-47.2375ZM13.8108 23.2296Q15.4335 25.0911 17.8 25.2014Q20.1664 25.3116 21.9759 23.7176L42.1253 6.10209Q43.5376 4.88987 44.0543 3.62272L48.9299-8.58196L40.0639-13.3356Q39.4175-13.7043 38.7711-14.2234Q38.1246-14.7425 37.5405-15.3784L33.7112-1.67598L14.3613 15.2075Q12.6427 16.7392 12.4752 19.1277Q12.3078 21.5161 13.8108 23.2296Z"/>
  </g>
  <g id="Semibold-M" transform="matrix(1 0 0 1 1985.99 1126)">
   <path d="M48.4119-73.0482Q53.0478-73.0482 56.326-76.339Q59.6042-79.6298 59.6042-84.3217Q59.6042-88.9134 56.326-92.1916Q53.0478-95.4698 48.4119-95.4698Q43.7571-95.4698 40.4698-92.1916Q37.1825-88.9134 37.1825-84.3217Q37.1825-79.6298 40.4698-76.339Q43.7571-73.0482 48.4119-73.0482ZM71.2572 24.2173Q73.5288 24.2173 75.1058 22.6127Q76.6829 21.0081 76.6829 18.7846L76.6829-9.42754Q76.6829-10.4387 76.1516-11.6458Q75.6204-12.853 74.2867-13.7285L56.3194-25.6728L56.3194-55.8403Q56.3194-57.0722 57.5695-57.0722L96.6207-57.0722Q98.9364-57.0722 100.519-58.6895Q102.102-60.3068 102.102-62.523Q102.102-64.7835 100.519-66.3882Q98.9364-67.9928 96.6207-67.9928L40.545-67.9928Q36.8838-67.9928 34.5915-66.7064Q32.2991-65.4201 30.452-63.1258L17.2111-46.8682Q15.5588-44.7758 15.7106-42.444Q15.8624-40.1121 17.3334-38.4451Q18.8044-36.7781 21.0578-36.7781L35.2991-36.7781L35.2991-30.1064Q35.2991-26.5147 37.1608-23.4163Q39.0226-20.318 42.2293-18.5845L65.7875-5.90677L65.7875 18.7846Q65.7875 21.0081 67.3921 22.6127Q68.9967 24.2173 71.2572 24.2173ZM30.8564-47.1363L35.7481-53.232L35.7481-47.1363ZM13.7465 22.3489Q15.3113 24.1298 17.5608 24.2358Q19.8102 24.3419 21.543 22.8142L41.4774 5.38697Q42.8442 4.20398 43.3277 3.00901L48.3221-9.47728L39.7623-14.0613Q39.1471-14.4091 38.5224-14.8773Q37.8978-15.3454 37.3448-15.8898L33.4695-2.05765L14.2742 14.6999Q12.6407 16.1653 12.4794 18.4439Q12.3182 20.7225 13.7465 22.3489Z"/>
  </g>
  <g id="Medium-M" transform="matrix(1 0 0 1 1689.79 1126)">
   <path d="M47.9657-72.743Q52.5045-72.743 55.7161-75.9641Q58.9277-79.1851 58.9277-83.8006Q58.9277-88.2873 55.7161-91.4989Q52.5045-94.7105 47.9657-94.7105Q43.3938-94.7105 40.177-91.4989Q36.9602-88.2873 36.9602-83.8006Q36.9602-79.1851 40.177-75.9641Q43.3938-72.743 47.9657-72.743ZM70.6327 23.482Q72.8194 23.482 74.3383 21.9363Q75.8572 20.3906 75.8572 18.2489L75.8572-9.73988Q75.8572-10.7086 75.3425-11.8695Q74.8278-13.0303 73.5459-13.8728L55.6584-25.765L55.6584-55.9238Q55.6584-57.1527 56.8975-57.1527L95.7881-57.1527Q98.0269-57.1527 99.5467-58.7079Q101.066-60.2631 101.066-62.3961Q101.066-64.5812 99.5467-66.127Q98.0269-67.6727 95.7881-67.6727L40.1655-67.6727Q36.5749-67.6727 34.3358-66.4129Q32.0967-65.1532 30.2762-62.895L17.1455-46.7772Q15.5434-44.7459 15.6834-42.4934Q15.8234-40.2409 17.2395-38.6328Q18.6555-37.0247 20.832-37.0247L35.1192-37.0247L35.1192-30.2434Q35.1192-26.7237 36.9457-23.6904Q38.7722-20.657 41.9163-18.9596L65.3561-6.33691L65.3561 18.2489Q65.3561 20.3906 66.9018 21.9363Q68.4475 23.482 70.6327 23.482ZM30.397-47.0595L35.4815-53.4066L35.4815-47.0595ZM13.6977 21.6811Q15.2187 23.4009 17.3794 23.5038Q19.5402 23.6066 21.2148 22.1291L40.9861 4.84474Q42.3184 3.6839 42.7768 2.54367L47.8612-10.1561L39.5337-14.6115Q38.9421-14.9436 38.3339-15.3731Q37.7257-15.8026 37.1965-16.2775L33.2862-2.34705L14.2082 14.3149Q12.6392 15.7301 12.4826 17.9254Q12.3261 20.1208 13.6977 21.6811Z"/>
  </g>
  <g id="Regular-M" transform="matrix(1 0 0 1 1393.76 1126)">
   <path d="M47.3838-72.345Q51.7958-72.345 54.9206-75.475Q58.0454-78.6051 58.0454-83.1208Q58.0454-87.4705 54.9206-90.5953Q51.7958-93.7201 47.3838-93.7201Q42.9199-93.7201 39.7951-90.5953Q36.6703-87.4705 36.6703-83.1208Q36.6703-78.6051 39.7951-75.475Q42.9199-72.345 47.3838-72.345ZM69.818 22.5229Q71.8942 22.5229 73.3373 21.054Q74.7803 19.5851 74.7803 17.5502L74.7803-10.1473Q74.7803-11.0608 74.2871-12.1611Q73.7939-13.2615 72.5796-14.061L54.7961-25.8853L54.7961-56.0328Q54.7961-57.2578 56.0211-57.2578L94.7021-57.2578Q96.8406-57.2578 98.2784-58.732Q99.7163-60.2062 99.7163-62.2306Q99.7163-64.3174 98.2784-65.7863Q96.8406-67.2552 94.7021-67.2552L39.6706-67.2552Q36.1719-67.2552 34.0022-66.0302Q31.8326-64.8052 30.0469-62.5939L17.0599-46.6585Q15.5233-44.7069 15.648-42.5579Q15.7726-40.4089 17.1169-38.8776Q18.4613-37.3463 20.5375-37.3463L34.8846-37.3463L34.8846-30.422Q34.8846-26.9962 36.6651-24.0478Q38.4456-21.0993 41.508-19.4488L64.7934-6.89796L64.7934 17.5502Q64.7934 19.5851 66.2623 21.054Q67.7312 22.5229 69.818 22.5229ZM29.7977-46.9594L35.1338-53.6345L35.1338-46.9594ZM13.6341 20.8101Q15.0978 22.4502 17.1429 22.5488Q19.1879 22.6475 20.7867 21.2356L40.3453 4.13749Q41.6326 3.00554 42.0583 1.93671L47.2601-11.0416L39.2354-15.3292Q38.6747-15.6407 38.088-16.0198Q37.5014-16.3988 37.0029-16.7833L33.0472-2.72453L14.1221 13.8129Q12.6372 15.1625 12.4868 17.2492Q12.3363 19.3359 13.6341 20.8101Z"/>
  </g>
  <g id="Light-M" transform="matrix(1 0 0 1 1098.23 1126)">
   <path d="M46.4256-71.5579Q50.7177-71.5579 53.757-74.6109Q56.7963-77.6638 56.7963-82.0257Q56.7963-86.2556 53.757-89.2949Q50.7177-92.3341 46.4256-92.3341Q42.0986-92.3341 39.0593-89.2949Q36.02-86.2556 36.02-82.0257Q36.02-77.6638 39.0593-74.6109Q42.0986-71.5579 46.4256-71.5579ZM68.261 21.0513Q70.2688 21.0513 71.6776 19.6252Q73.0865 18.1992 73.0865 16.1984L73.0865-10.7461Q73.0865-11.6254 72.6017-12.6916Q72.117-13.7577 70.9541-14.5403L53.6326-26.0394L53.6326-55.3655Q53.6326-56.5563 54.8234-56.5563L92.4776-56.5563Q94.5476-56.5563 95.9428-57.9963Q97.3379-59.4363 97.3379-61.4092Q97.3379-63.4448 95.9428-64.8709Q94.5476-66.297 92.4776-66.297L38.9349-66.297Q35.5216-66.297 33.4204-65.1062Q31.3192-63.9154 29.5676-61.7556L16.94-46.248Q15.4377-44.3648 15.5623-42.2671Q15.6869-40.1694 16.9886-38.6808Q18.2903-37.1922 20.298-37.1922L34.2685-37.1922L34.2685-30.4562Q34.2685-27.133 36.0063-24.253Q37.7441-21.373 40.7209-19.774L63.3733-7.58246L63.3733 16.1984Q63.3733 18.1992 64.7993 19.6252Q66.2254 21.0513 68.261 21.0513ZM29.3184-46.5316L34.5177-53.0184L34.5177-46.5316ZM13.6168 19.39Q15.0294 20.9616 17.006 21.0687Q18.9826 21.1759 20.5472 19.7982L39.5924 3.16205Q40.8455 2.01315 41.2542 1.0297L46.4046-11.7773L38.6024-15.9453Q38.0416-16.2568 37.4635-16.6443Q36.8853-17.0319 36.3868-17.4336L32.4825-3.51166L14.0879 12.5637Q12.62 13.8791 12.4781 15.9145Q12.3363 17.9499 13.6168 19.39Z"/>
  </g>
  <g id="Thin-M" transform="matrix(1 0 0 1 803.096 1126)">
   <path d="M45.1583-70.5168Q49.2919-70.5168 52.218-73.4679Q55.1442-76.419 55.1442-80.5775Q55.1442-84.6488 52.218-87.5749Q49.2919-90.5011 45.1583-90.5011Q41.0123-90.5011 38.0861-87.5749Q35.16-84.6488 35.16-80.5775Q35.16-76.419 38.0861-73.4679Q41.0123-70.5168 45.1583-70.5168ZM66.2017 19.1049Q68.119 19.1049 69.4826 17.7355Q70.8462 16.3661 70.8462 14.4106L70.8462-11.5381Q70.8462-12.3721 70.3727-13.3931Q69.8992-14.414 68.8043-15.1741L52.0939-26.2432L52.0939-54.483Q52.0939-55.6286 53.2394-55.6286L89.5354-55.6286Q91.515-55.6286 92.8536-57.0234Q94.1923-58.4181 94.1923-60.3229Q94.1923-62.2909 92.8536-63.6603Q91.515-65.0297 89.5354-65.0297L37.9619-65.0297Q34.6615-65.0297 32.6508-63.8841Q30.6401-62.7386 28.9338-60.6469L16.7814-45.705Q15.3244-43.9123 15.449-41.8825Q15.5736-39.8527 16.8188-38.4205Q18.064-36.9884 19.9813-36.9884L33.4537-36.9884L33.4537-30.5014Q33.4537-27.314 35.135-24.5245Q36.8164-21.735 39.6798-20.204L61.495-8.48777L61.495 14.4106Q61.495 16.3661 62.8644 17.7355Q64.2338 19.1049 66.2017 19.1049ZM28.6846-45.9658L33.7029-52.2036L33.7029-45.9658ZM13.594 17.5117Q14.9389 18.9928 16.825 19.1112Q18.7111 19.2295 20.2305 17.8971L38.5966 1.87196Q39.8044 0.700623 40.1907-0.169903L45.273-12.7503L37.7651-16.7601Q37.2044-17.0716 36.6374-17.4704Q36.0705-17.8691 35.572-18.2937L31.7358-4.5527L14.0426 10.9117Q12.5972 12.1818 12.4667 14.1494Q12.3363 16.1169 13.594 17.5117Z"/>
  </g>
  <g id="Ultralight-M" transform="matrix(1 0 0 1 507.19 1126)">
   <path d="M44.5092-69.9836Q48.5616-69.9836 51.4298-72.8825Q54.298-75.7814 54.298-79.8357Q54.298-83.8258 51.4298-86.694Q48.5616-89.5622 44.5092-89.5622Q40.4559-89.5622 37.5877-86.694Q34.7194-83.8258 34.7194-79.8357Q34.7194-75.7814 37.5877-72.8825Q40.4559-69.9836 44.5092-69.9836ZM65.147 18.108Q67.0179 18.108 68.3583 16.7676Q69.6988 15.4272 69.6988 13.4949L69.6988-11.9438Q69.6988-12.7546 69.231-13.7524Q68.7632-14.7501 67.7032-15.4987L51.3057-26.3476L51.3057-54.031Q51.3057-55.1534 52.4281-55.1534L88.0284-55.1534Q89.9617-55.1534 91.2714-56.525Q92.5812-57.8966 92.5812-59.7665Q92.5812-61.6998 91.2714-63.0402Q89.9617-64.3806 88.0284-64.3806L37.4636-64.3806Q34.221-64.3806 32.2566-63.2582Q30.2923-62.1359 28.6092-60.079L16.7002-45.4269Q15.2663-43.6806 15.3909-41.6855Q15.5156-39.6905 16.7319-38.2872Q17.9482-36.884 19.8191-36.884L33.0363-36.884L33.0363-30.5246Q33.0363-27.4067 34.6888-24.6636Q36.3412-21.9204 39.1466-20.4243L60.5329-8.95146L60.5329 13.4949Q60.5329 15.4272 61.8733 16.7676Q63.2137 18.108 65.147 18.108ZM28.3599-45.676L33.2855-51.7862L33.2855-45.676ZM13.5823 16.5496Q14.8926 17.9844 16.7323 18.1085Q18.5721 18.2326 20.0683 16.9234L38.0865 1.21118Q39.2712 0.0283551 39.646-0.784331L44.6935-13.2486L37.3363-17.1774Q36.7756-17.489 36.2143-17.8935Q35.6531-18.298 35.1547-18.7342L31.3533-5.08592L14.0194 10.0655Q12.5855 11.3125 12.4609 13.2453Q12.3363 15.178 13.5823 16.5496Z"/>
  </g>
  <g id="Black-S" transform="matrix(1 0 0 1 2886.31 696)">
   <path d="M39.8438-66.1621Q43.8965-66.1621 46.7529-69.043Q49.6094-71.9238 49.6094-75.9277Q49.6094-79.9805 46.7529-82.8369Q43.8965-85.6934 39.8438-85.6934Q35.8398-85.6934 32.959-82.8369Q30.0781-79.9805 30.0781-75.9277Q30.0781-71.9238 32.959-69.043Q35.8398-66.1621 39.8438-66.1621ZM58.4961 14.502Q60.6445 14.502 62.1338 12.9883Q63.623 11.4746 63.623 9.375L63.623-13.6719Q63.623-14.6484 63.1348-15.7959Q62.6465-16.9434 61.377-17.7734L46.9727-27.3438L46.9727-50.9766Q46.9727-51.9531 47.998-51.9531L79.248-51.9531Q81.3965-51.9531 82.9102-53.4912Q84.4238-55.0293 84.4238-57.1289Q84.4238-59.2285 82.9102-60.7422Q81.3965-62.2559 79.248-62.2559L33.3984-62.2559Q30.2246-62.2559 28.1982-61.1328Q26.1719-60.0098 24.6094-58.0566L13.7695-44.7266Q12.2559-42.8223 12.4268-40.6494Q12.5977-38.4766 13.9893-36.9141Q15.3809-35.3516 17.4805-35.3516L28.418-35.3516L28.418-30.6152Q28.418-27.4902 30.0293-24.7803Q31.6406-22.0703 34.4238-20.5566L53.3691-10.4004L53.3691 9.375Q53.3691 11.4746 54.8828 12.9883Q56.3965 14.502 58.4961 14.502ZM26.1719-44.873L29.1504-48.5352L29.1504-44.873ZM10.9863 12.7441Q12.4023 14.4043 14.5508 14.502Q16.6992 14.5996 18.3105 13.1836L34.6191-1.07422Q35.8398-2.09961 36.3281-3.27148L39.8438-12.1094L32.1289-16.2598Q31.543-16.6016 30.9814-17.1387Q30.4199-17.6758 29.8828-18.4082L27.002-8.00781L11.4746 5.51758Q9.91211 6.88477 9.76562 9.0332Q9.61914 11.1816 10.9863 12.7441Z"/>
  </g>
  <g id="Heavy-S" transform="matrix(1 0 0 1 2590.2 696)">
   <path d="M39.3136-65.8164Q43.2396-65.8164 46.0096-68.605Q48.7796-71.3937 48.7796-75.3054Q48.7796-79.2199 46.0096-81.9899Q43.2396-84.7599 39.3136-84.7599Q35.4134-84.7599 32.6248-81.9899Q29.8361-79.2199 29.8361-75.3054Q29.8361-71.3937 32.6248-68.605Q35.4134-65.8164 39.3136-65.8164ZM57.7816 13.6146Q59.8148 13.6146 61.2234 12.1816Q62.6319 10.7486 62.6319 8.7642L62.6319-14.0522Q62.6319-14.9711 62.1667-16.0552Q61.7015-17.1393 60.5011-17.9233L46.1544-27.459L46.1544-51.184Q46.1544-52.1606 47.1683-52.1606L78.3146-52.1606Q80.3593-52.1606 81.7865-53.6122Q83.2138-55.0639 83.2138-57.0482Q83.2138-59.0441 81.7865-60.4771Q80.3593-61.9101 78.3146-61.9101L32.9375-61.9101Q29.8558-61.9101 27.8986-60.8217Q25.9414-59.7332 24.4135-57.8262L13.6889-44.6459Q12.2443-42.8223 12.3979-40.7589Q12.5516-38.6955 13.8683-37.2137Q15.1849-35.7319 17.1808-35.7319L28.2336-35.7319L28.2336-30.8112Q28.2336-27.7783 29.7988-25.1548Q31.364-22.5313 34.0666-21.0637L52.9197-10.942L52.9197 8.7642Q52.9197 10.7486 54.3527 12.1816Q55.7857 13.6146 57.7816 13.6146ZM25.5611-44.8154L28.8392-48.8694L28.8392-44.8154ZM10.9172 11.949Q12.2756 13.5284 14.303 13.6203Q16.3304 13.7122 17.8611 12.3654L33.9968-1.74264Q35.1714-2.73345 35.6251-3.83618L39.2791-13.0083L31.8754-16.9858Q31.324-17.3046 30.7855-17.784Q30.2471-18.2635 29.7445-18.8922L26.806-8.3305L11.3824 5.11422Q9.91211 6.41226 9.77139 8.44546Q9.63067 10.4786 10.9172 11.949Z"/>
  </g>
  <g id="Bold-S" transform="matrix(1 0 0 1 2294.16 696)">
   <path d="M38.7207-65.4297Q42.5049-65.4297 45.1782-68.1152Q47.8516-70.8008 47.8516-74.6094Q47.8516-78.3691 45.1782-81.0425Q42.5049-83.7158 38.7207-83.7158Q34.9365-83.7158 32.251-81.0425Q29.5654-78.3691 29.5654-74.6094Q29.5654-70.8008 32.251-68.1152Q34.9365-65.4297 38.7207-65.4297ZM56.9824 12.6221Q58.8867 12.6221 60.2051 11.2793Q61.5234 9.93652 61.5234 8.08105L61.5234-14.4775Q61.5234-15.332 61.084-16.3452Q60.6445-17.3584 59.5215-18.0908L45.2393-27.5879L45.2393-51.416Q45.2393-52.3926 46.2402-52.3926L77.2705-52.3926Q79.1992-52.3926 80.5298-53.7476Q81.8604-55.1025 81.8604-56.958Q81.8604-58.8379 80.5298-60.1807Q79.1992-61.5234 77.2705-61.5234L32.4219-61.5234Q29.4434-61.5234 27.5635-60.4736Q25.6836-59.4238 24.1943-57.5684L13.5986-44.5557Q12.2314-42.8223 12.3657-40.8813Q12.5-38.9404 13.7329-37.5488Q14.9658-36.1572 16.8457-36.1572L28.0273-36.1572L28.0273-31.0303Q28.0273-28.1006 29.541-25.5737Q31.0547-23.0469 33.667-21.6309L52.417-11.5479L52.417 8.08105Q52.417 9.93652 53.7598 11.2793Q55.1025 12.6221 56.9824 12.6221ZM24.8779-44.751L28.4912-49.2432L28.4912-44.751ZM10.8398 11.0596Q12.1338 12.5488 14.0259 12.6343Q15.918 12.7197 17.3584 11.4502L33.3008-2.49023Q34.4238-3.44238 34.8389-4.46777L38.6475-14.0137L31.5918-17.7979Q31.0791-18.0908 30.5664-18.5059Q30.0537-18.9209 29.5898-19.4336L26.5869-8.69141L11.2793 4.66309Q9.91211 5.88379 9.77783 7.78809Q9.64355 9.69238 10.8398 11.0596Z"/>
  </g>
  <g id="Semibold-S" transform="matrix(1 0 0 1 1997.92 696)">
   <path d="M38.3119-65.1631Q41.9983-65.1631 44.605-67.7775Q47.2117-70.392 47.2117-74.1295Q47.2117-77.7826 44.605-80.3893Q41.9983-82.996 38.3119-82.996Q34.6077-82.996 31.9933-80.3893Q29.3788-77.7826 29.3788-74.1295Q29.3788-70.392 31.9933-67.7775Q34.6077-65.1631 38.3119-65.1631ZM56.4314 11.9378Q58.2469 11.9378 59.503 10.6572Q60.7592 9.37666 60.7592 7.61006L60.7592-14.7708Q60.7592-15.5809 60.3375-16.5452Q59.9158-17.5095 58.8461-18.2063L44.6083-27.6768L44.6083-51.576Q44.6083-52.5525 45.6004-52.5525L76.5507-52.5525Q78.3994-52.5525 79.6633-53.8409Q80.9272-55.1292 80.9272-56.8958Q80.9272-58.6957 79.6633-59.9763Q78.3994-61.2568 76.5507-61.2568L32.0664-61.2568Q29.159-61.2568 27.3324-60.2337Q25.5059-59.2105 24.0433-57.3906L13.5364-44.4935Q12.2226-42.8223 12.3435-40.9658Q12.4645-39.1093 13.6396-37.7799Q14.8147-36.4505 16.6146-36.4505L27.8852-36.4505L27.8852-31.1813Q27.8852-28.3228 29.3633-25.8625Q30.8414-23.4023 33.3915-22.0219L52.0704-11.9655L52.0704 7.61006Q52.0704 9.37666 53.351 10.6572Q54.6315 11.9378 56.4314 11.9378ZM24.4069-44.7065L28.2513-49.5009L28.2513-44.7065ZM10.7865 10.4464Q12.036 11.8734 13.8348 11.9544Q15.6336 12.0354 17.0118 10.8192L32.8209-3.00566Q33.9084-3.93115 34.2968-4.90322L38.212-14.7068L31.3963-18.3577Q30.9103-18.6329 30.4153-19.0035Q29.9204-19.3741 29.4832-19.8068L26.4358-8.94023L11.2082 4.35205Q9.91211 5.51943 9.78228 7.33486Q9.65244 9.15029 10.7865 10.4464Z"/>
  </g>
  <g id="Medium-S" transform="matrix(1 0 0 1 1701.56 696)">
   <path d="M38.002-64.9609Q41.6143-64.9609 44.1704-67.5215Q46.7266-70.082 46.7266-73.7656Q46.7266-77.3379 44.1704-79.894Q41.6143-82.4502 38.002-82.4502Q34.3584-82.4502 31.7979-79.894Q29.2373-77.3379 29.2373-73.7656Q29.2373-70.082 31.7979-67.5215Q34.3584-64.9609 38.002-64.9609ZM56.0137 11.4189Q57.7617 11.4189 58.9707 10.1855Q60.1797 8.95215 60.1797 7.25293L60.1797-14.9932Q60.1797-15.7695 59.7715-16.6968Q59.3633-17.624 58.334-18.2939L44.1299-27.7441L44.1299-51.6973Q44.1299-52.6738 45.1152-52.6738L76.0049-52.6738Q77.793-52.6738 79.0063-53.9116Q80.2197-55.1494 80.2197-56.8486Q80.2197-58.5879 79.0063-59.8213Q77.793-61.0547 76.0049-61.0547L31.7969-61.0547Q28.9434-61.0547 27.1572-60.0518Q25.3711-59.0488 23.9287-57.2559L13.4893-44.4463Q12.2158-42.8223 12.3267-41.0298Q12.4375-39.2373 13.5688-37.9551Q14.7002-36.6729 16.4395-36.6729L27.7773-36.6729L27.7773-31.2959Q27.7773-28.4912 29.2285-26.0815Q30.6797-23.6719 33.1826-22.3184L51.8076-12.2822L51.8076 7.25293Q51.8076 8.95215 53.041 10.1855Q54.2744 11.4189 56.0137 11.4189ZM24.0498-44.6729L28.0693-49.6963L28.0693-44.6729ZM10.7461 9.98145Q11.9619 11.3613 13.6899 11.439Q15.418 11.5166 16.749 10.3408L32.457-3.39648Q33.5176-4.30176 33.8857-5.2334L37.8818-15.2324L31.248-18.7822Q30.7822-19.0439 30.3008-19.3809Q29.8193-19.7178 29.4023-20.0898L26.3213-9.12891L11.1543 4.11621Q9.91211 5.24316 9.78564 6.99121Q9.65918 8.73926 10.7461 9.98145Z"/>
  </g>
  <g id="Regular-S" transform="matrix(1 0 0 1 1405.31 696)">
   <path d="M37.5977-64.6973Q41.1133-64.6973 43.6035-67.1875Q46.0938-69.6777 46.0938-73.291Q46.0938-76.7578 43.6035-79.248Q41.1133-81.7383 37.5977-81.7383Q34.0332-81.7383 31.543-79.248Q29.0527-76.7578 29.0527-73.291Q29.0527-69.6777 31.543-67.1875Q34.0332-64.6973 37.5977-64.6973ZM55.4688 10.7422Q57.1289 10.7422 58.2764 9.57031Q59.4238 8.39844 59.4238 6.78711L59.4238-15.2832Q59.4238-16.0156 59.0332-16.8945Q58.6426-17.7734 57.666-18.4082L43.5059-27.832L43.5059-51.8555Q43.5059-52.832 44.4824-52.832L75.293-52.832Q77.002-52.832 78.1494-54.0039Q79.2969-55.1758 79.2969-56.7871Q79.2969-58.4473 78.1494-59.6191Q77.002-60.791 75.293-60.791L31.4453-60.791Q28.6621-60.791 26.9287-59.8145Q25.1953-58.8379 23.7793-57.0801L13.4277-44.3848Q12.207-42.8223 12.3047-41.1133Q12.4023-39.4043 13.4766-38.1836Q14.5508-36.9629 16.2109-36.9629L27.6367-36.9629L27.6367-31.4453Q27.6367-28.7109 29.0527-26.3672Q30.4688-24.0234 32.9102-22.7051L51.4648-12.6953L51.4648 6.78711Q51.4648 8.39844 52.6367 9.57031Q53.8086 10.7422 55.4688 10.7422ZM23.584-44.6289L27.832-49.9512L27.832-44.6289ZM10.6934 9.375Q11.8652 10.6934 13.501 10.7666Q15.1367 10.8398 16.4062 9.7168L31.9824-3.90625Q33.0078-4.78516 33.3496-5.66406L37.4512-15.918L31.0547-19.3359Q30.6152-19.5801 30.1514-19.873Q29.6875-20.166 29.2969-20.459L26.1719-9.375L11.084 3.80859Q9.91211 4.88281 9.79004 6.54297Q9.66797 8.20312 10.6934 9.375Z"/>
  </g>
  <g id="Light-S" transform="matrix(1 0 0 1 1109.65 696)">
   <path d="M36.75-64.001Q40.1596-64.001 42.5742-66.423Q44.9888-68.8451 44.9888-72.3223Q44.9888-75.6831 42.5742-78.0977Q40.1596-80.5122 36.75-80.5122Q33.3066-80.5122 30.8921-78.0977Q28.4775-75.6831 28.4775-72.3223Q28.4775-68.8451 30.8921-66.423Q33.3066-64.001 36.75-64.001ZM54.0914 9.44036Q55.691 9.44036 56.8082 8.30638Q57.9254 7.17239 57.9254 5.59133L57.9254-15.8129Q57.9254-16.5151 57.5423-17.3637Q57.1592-18.2124 56.2281-18.8321L42.4767-27.9683L42.4767-51.2652Q42.4767-52.2115 43.423-52.2115L73.3251-52.2115Q74.9736-52.2115 76.0832-53.3531Q77.1929-54.4947 77.1929-56.0605Q77.1929-57.6754 76.0832-58.8094Q74.9736-59.9434 73.3251-59.9434L30.7945-59.9434Q28.0869-59.9434 26.414-58.9971Q24.7411-58.0508 23.3554-56.3385L13.3217-44.0216Q12.1312-42.5196 12.2289-40.856Q12.3266-39.1925 13.363-38.0095Q14.3995-36.8266 15.9991-36.8266L27.0917-36.8266L27.0917-31.4756Q27.0917-28.832 28.47-26.5488Q29.8482-24.2655 32.2138-22.9927L50.2085-13.3008L50.2085 5.59133Q50.2085 7.17239 51.3425 8.30638Q52.4765 9.44036 54.0914 9.44036ZM23.16-44.2505L27.287-49.4062L27.287-44.2505ZM10.6781 8.11869Q11.8047 9.37653 13.3799 9.45727Q14.9551 9.53801 16.1944 8.44523L31.3164-4.76913Q32.3115-5.66305 32.6383-6.46642L36.6943-16.5688L30.4947-19.8809Q30.0552-20.1251 29.5989-20.4255Q29.1425-20.726 28.7519-21.0342L25.6724-10.0713L11.0537 2.7036Q9.89685 3.74756 9.78241 5.36232Q9.66797 6.97708 10.6781 8.11869Z"/>
  </g>
  <g id="Thin-S" transform="matrix(1 0 0 1 814.334 696)">
   <path d="M35.629-63.08Q38.8983-63.08 41.2128-65.412Q43.5273-67.7439 43.5273-71.0412Q43.5273-74.2617 41.2128-76.5762Q38.8983-78.8907 35.629-78.8907Q32.3457-78.8907 30.0312-76.5762Q27.7167-74.2617 27.7167-71.0412Q27.7167-67.7439 30.0312-65.412Q32.3457-63.08 35.629-63.08ZM52.2697 7.71858Q53.7893 7.71858 54.8665 6.63472Q55.9436 5.55085 55.9436 4.00981L55.9436-16.5136Q55.9436-17.1757 55.5704-17.9843Q55.1972-18.7929 54.3264-19.3928L41.1154-28.1486L41.1154-50.4845Q41.1154-51.3908 42.0217-51.3908L70.7224-51.3908Q72.2908-51.3908 73.3506-52.4924Q74.4103-53.594 74.4103-55.0996Q74.4103-56.6546 73.3506-57.7385Q72.2908-58.8223 70.7224-58.8223L29.9338-58.8223Q27.326-58.8223 25.7332-57.9161Q24.1404-57.0098 22.7947-55.3577L13.1814-43.5413Q12.031-42.1194 12.1287-40.5158Q12.2263-38.9123 13.2128-37.7793Q14.1993-36.6463 15.7189-36.6463L26.3709-36.6463L26.3709-31.5156Q26.3709-28.9921 27.6992-26.7889Q29.0275-24.5857 31.2929-23.3731L48.547-14.1017L48.547 4.00981Q48.547 5.55085 49.6308 6.63472Q50.7147 7.71858 52.2697 7.71858ZM22.5993-43.75L26.5662-48.6854L26.5662-43.75ZM10.6579 6.45713Q11.7247 7.63491 13.2198 7.72557Q14.715 7.81624 15.9142 6.76348L30.4355-5.91037Q31.3906-6.82412 31.6975-7.5276L35.6934-17.4295L29.754-20.6017Q29.3146-20.8459 28.8682-21.1563Q28.4217-21.4667 28.0311-21.7951L25.0118-10.9922L11.0137 1.24216Q9.87667 2.24609 9.77232 3.80082Q9.66797 5.35554 10.6579 6.45713Z"/>
  </g>
  <g id="Ultralight-S" transform="matrix(1 0 0 1 518.336 696)">
   <path d="M35.0548-62.6083Q38.2523-62.6083 40.5155-64.8941Q42.7788-67.1799 42.7788-70.385Q42.7788-73.5336 40.5155-75.7969Q38.2523-78.0602 35.0548-78.0602Q31.8535-78.0602 29.5902-75.7969Q27.327-73.5336 27.327-70.385Q27.327-67.1799 29.5902-64.8941Q31.8535-62.6083 35.0548-62.6083ZM51.3367 6.8367Q52.8152 6.8367 53.8719 5.7785Q54.9286 4.72031 54.9286 3.19977L54.9286-16.8724Q54.9286-17.514 54.5605-18.3022Q54.1924-19.0903 53.3524-19.68L40.4182-28.241L40.4182-50.0847Q40.4182-50.9705 41.304-50.9705L69.3893-50.9705Q70.9167-50.9705 71.9509-52.0515Q72.9851-53.1326 72.9851-54.6074Q72.9851-56.1317 71.9509-57.1899Q70.9167-58.2481 69.3893-58.2481L29.493-58.2481Q26.9363-58.2481 25.3845-57.3624Q23.8327-56.4766 22.5075-54.8553L13.1096-43.2953Q11.9797-41.9144 12.0773-40.3416Q12.175-38.7688 13.1359-37.6614Q14.0968-36.554 15.5754-36.554L26.0017-36.554L26.0017-31.5361Q26.0017-29.0741 27.3045-26.9119Q28.6072-24.7498 30.8212-23.568L47.6959-14.5119L47.6959 3.19977Q47.6959 4.72031 48.7541 5.7785Q49.8123 6.8367 51.3367 6.8367ZM22.3122-43.4937L26.1971-48.3162L26.1971-43.4937ZM10.6476 5.60608Q11.6837 6.74286 13.1378 6.83861Q14.592 6.93436 15.7707 5.9021L29.9843-6.4949Q30.9189-7.41882 31.2157-8.07114L35.1807-17.8703L29.3747-20.9709Q28.9352-21.2151 28.4939-21.5305Q28.0525-21.846 27.6619-22.1848L24.6735-11.4639L10.9932 0.493622Q9.86633 1.47705 9.76715 3.00102Q9.66797 4.52499 10.6476 5.60608Z"/>
  </g>
 </g>
</svg>
