<?xml version="1.0" encoding="UTF-8"?>
<!--Generator: Apple Native CoreSVG 175.5-->
<!DOCTYPE svg
PUBLIC "-//W3C//DTD SVG 1.1//EN"
       "http://www.w3.org/Graphics/SVG/1.1/DTD/svg11.dtd">
<svg version="1.1" xmlns="http://www.w3.org/2000/svg" xmlns:xlink="http://www.w3.org/1999/xlink" width="3300" height="2200">
 <!--glyph: "uni101551.medium", point size: 100.0, font version: "18.0d9e1", template writer version: "84"-->
 <g id="Notes">
  <rect height="2200" id="artboard" style="fill:white;opacity:1" width="3300" x="0" y="0"/>
  <line style="fill:none;stroke:black;opacity:1;stroke-width:0.5;" x1="263" x2="3036" y1="292" y2="292"/>
  <text style="stroke:none;fill:black;font-family:sans-serif;font-size:13;font-weight:bold;" transform="matrix(1 0 0 1 263 322)">Weight/Scale Variations</text>
  <text style="stroke:none;fill:black;font-family:sans-serif;font-size:13;text-anchor:middle;" transform="matrix(1 0 0 1 559.711 322)">Ultralight</text>
  <text style="stroke:none;fill:black;font-family:sans-serif;font-size:13;text-anchor:middle;" transform="matrix(1 0 0 1 856.422 322)">Thin</text>
  <text style="stroke:none;fill:black;font-family:sans-serif;font-size:13;text-anchor:middle;" transform="matrix(1 0 0 1 1153.13 322)">Light</text>
  <text style="stroke:none;fill:black;font-family:sans-serif;font-size:13;text-anchor:middle;" transform="matrix(1 0 0 1 1449.84 322)">Regular</text>
  <text style="stroke:none;fill:black;font-family:sans-serif;font-size:13;text-anchor:middle;" transform="matrix(1 0 0 1 1746.56 322)">Medium</text>
  <text style="stroke:none;fill:black;font-family:sans-serif;font-size:13;text-anchor:middle;" transform="matrix(1 0 0 1 2043.27 322)">Semibold</text>
  <text style="stroke:none;fill:black;font-family:sans-serif;font-size:13;text-anchor:middle;" transform="matrix(1 0 0 1 2339.98 322)">Bold</text>
  <text style="stroke:none;fill:black;font-family:sans-serif;font-size:13;text-anchor:middle;" transform="matrix(1 0 0 1 2636.69 322)">Heavy</text>
  <text style="stroke:none;fill:black;font-family:sans-serif;font-size:13;text-anchor:middle;" transform="matrix(1 0 0 1 2933.4 322)">Black</text>
  <line style="fill:none;stroke:black;opacity:1;stroke-width:0.5;" x1="263" x2="3036" y1="1903" y2="1903"/>
  <g transform="matrix(1 0 0 1 263 1933)">
   <path d="M9.24805 0.830078Q10.8691 0.830078 12.2949 0.214844Q13.7207-0.400391 14.8096-1.49414Q15.8984-2.58789 16.5186-4.01367Q17.1387-5.43945 17.1387-7.05078Q17.1387-8.66211 16.5186-10.0879Q15.8984-11.5137 14.8047-12.6074Q13.7109-13.7012 12.2852-14.3164Q10.8594-14.9316 9.23828-14.9316Q7.62695-14.9316 6.20117-14.3164Q4.77539-13.7012 3.69141-12.6074Q2.60742-11.5137 1.9873-10.0879Q1.36719-8.66211 1.36719-7.05078Q1.36719-5.43945 1.9873-4.01367Q2.60742-2.58789 3.69629-1.49414Q4.78516-0.400391 6.21094 0.214844Q7.63672 0.830078 9.24805 0.830078ZM9.24805-0.654297Q7.91992-0.654297 6.7627-1.14746Q5.60547-1.64062 4.73145-2.51953Q3.85742-3.39844 3.36426-4.56055Q2.87109-5.72266 2.87109-7.05078Q2.87109-8.37891 3.35938-9.54102Q3.84766-10.7031 4.72168-11.582Q5.5957-12.4609 6.75293-12.9541Q7.91016-13.4473 9.23828-13.4473Q10.5762-13.4473 11.7383-12.9541Q12.9004-12.4609 13.7793-11.582Q14.6582-10.7031 15.1514-9.54102Q15.6445-8.37891 15.6445-7.05078Q15.6445-5.72266 15.1514-4.56055Q14.6582-3.39844 13.7793-2.51953Q12.9004-1.64062 11.7432-1.14746Q10.5859-0.654297 9.24805-0.654297ZM5.6543-7.05078Q5.6543-6.72852 5.85938-6.52832Q6.06445-6.32812 6.40625-6.32812L8.51562-6.32812L8.51562-4.20898Q8.51562-3.88672 8.71094-3.67676Q8.90625-3.4668 9.23828-3.4668Q9.56055-3.4668 9.77051-3.67676Q9.98047-3.88672 9.98047-4.20898L9.98047-6.32812L12.0898-6.32812Q12.4219-6.32812 12.627-6.52832Q12.832-6.72852 12.832-7.05078Q12.832-7.38281 12.627-7.58789Q12.4219-7.79297 12.0898-7.79297L9.98047-7.79297L9.98047-9.90234Q9.98047-10.2344 9.77051-10.4443Q9.56055-10.6543 9.23828-10.6543Q8.90625-10.6543 8.71094-10.4443Q8.51562-10.2344 8.51562-9.90234L8.51562-7.79297L6.40625-7.79297Q6.06445-7.79297 5.85938-7.58789Q5.6543-7.38281 5.6543-7.05078Z"/>
  </g>
  <g transform="matrix(1 0 0 1 281.867 1933)">
   <path d="M11.709 2.91016Q13.75 2.91016 15.5518 2.12891Q17.3535 1.34766 18.7305-0.0292969Q20.1074-1.40625 20.8887-3.20801Q21.6699-5.00977 21.6699-7.05078Q21.6699-9.0918 20.8887-10.8936Q20.1074-12.6953 18.7305-14.0723Q17.3535-15.4492 15.5469-16.2305Q13.7402-17.0117 11.6992-17.0117Q9.6582-17.0117 7.85645-16.2305Q6.05469-15.4492 4.68262-14.0723Q3.31055-12.6953 2.5293-10.8936Q1.74805-9.0918 1.74805-7.05078Q1.74805-5.00977 2.5293-3.20801Q3.31055-1.40625 4.6875-0.0292969Q6.06445 1.34766 7.86621 2.12891Q9.66797 2.91016 11.709 2.91016ZM11.709 1.25Q9.98047 1.25 8.47656 0.605469Q6.97266-0.0390625 5.83496-1.17676Q4.69727-2.31445 4.05762-3.81836Q3.41797-5.32227 3.41797-7.05078Q3.41797-8.7793 4.05762-10.2832Q4.69727-11.7871 5.83008-12.9297Q6.96289-14.0723 8.4668-14.7119Q9.9707-15.3516 11.6992-15.3516Q13.4277-15.3516 14.9365-14.7119Q16.4453-14.0723 17.583-12.9297Q18.7207-11.7871 19.3652-10.2832Q20.0098-8.7793 20.0098-7.05078Q20.0098-5.32227 19.3701-3.81836Q18.7305-2.31445 17.5879-1.17676Q16.4453-0.0390625 14.9414 0.605469Q13.4375 1.25 11.709 1.25ZM7.17773-7.05078Q7.17773-6.69922 7.41211-6.47461Q7.64648-6.25 8.01758-6.25L10.8887-6.25L10.8887-3.36914Q10.8887-2.99805 11.1133-2.76855Q11.3379-2.53906 11.6895-2.53906Q12.0605-2.53906 12.29-2.76855Q12.5195-2.99805 12.5195-3.36914L12.5195-6.25L15.4004-6.25Q15.7715-6.25 16.001-6.47461Q16.2305-6.69922 16.2305-7.05078Q16.2305-7.42188 16.001-7.65137Q15.7715-7.88086 15.4004-7.88086L12.5195-7.88086L12.5195-10.752Q12.5195-11.1328 12.29-11.3623Q12.0605-11.5918 11.6895-11.5918Q11.3379-11.5918 11.1133-11.3574Q10.8887-11.123 10.8887-10.752L10.8887-7.88086L8.01758-7.88086Q7.63672-7.88086 7.40723-7.65137Q7.17773-7.42188 7.17773-7.05078Z"/>
  </g>
  <g transform="matrix(1 0 0 1 305.646 1933)">
   <path d="M14.9707 5.66406Q17.0605 5.66406 18.96 5.01465Q20.8594 4.36523 22.4512 3.19336Q24.043 2.02148 25.2197 0.429688Q26.3965-1.16211 27.0459-3.06641Q27.6953-4.9707 27.6953-7.05078Q27.6953-9.14062 27.0459-11.04Q26.3965-12.9395 25.2197-14.5312Q24.043-16.123 22.4512-17.2998Q20.8594-18.4766 18.9551-19.126Q17.0508-19.7754 14.9609-19.7754Q12.8711-19.7754 10.9717-19.126Q9.07227-18.4766 7.48535-17.2998Q5.89844-16.123 4.72168-14.5312Q3.54492-12.9395 2.90039-11.04Q2.25586-9.14062 2.25586-7.05078Q2.25586-4.9707 2.90527-3.06641Q3.55469-1.16211 4.72656 0.429688Q5.89844 2.02148 7.49023 3.19336Q9.08203 4.36523 10.9814 5.01465Q12.8809 5.66406 14.9707 5.66406ZM14.9707 3.84766Q13.1641 3.84766 11.5283 3.2959Q9.89258 2.74414 8.53516 1.74805Q7.17773 0.751953 6.17676-0.610352Q5.17578-1.97266 4.62891-3.6084Q4.08203-5.24414 4.08203-7.05078Q4.08203-8.86719 4.62891-10.5029Q5.17578-12.1387 6.17188-13.501Q7.16797-14.8633 8.52539-15.8594Q9.88281-16.8555 11.5186-17.4023Q13.1543-17.9492 14.9609-17.9492Q16.7773-17.9492 18.4131-17.4023Q20.0488-16.8555 21.4111-15.8594Q22.7734-14.8633 23.7744-13.501Q24.7754-12.1387 25.3223-10.5029Q25.8691-8.86719 25.8691-7.05078Q25.8691-5.24414 25.3223-3.6084Q24.7754-1.97266 23.7793-0.610352Q22.7832 0.751953 21.4209 1.74805Q20.0586 2.74414 18.4229 3.2959Q16.7871 3.84766 14.9707 3.84766ZM9.19922-7.05078Q9.19922-6.66992 9.45801-6.4209Q9.7168-6.17188 10.1172-6.17188L14.0625-6.17188L14.0625-2.2168Q14.0625-1.81641 14.3115-1.55762Q14.5605-1.29883 14.9512-1.29883Q15.3516-1.29883 15.6104-1.55273Q15.8691-1.80664 15.8691-2.2168L15.8691-6.17188L19.8242-6.17188Q20.2246-6.17188 20.4785-6.4209Q20.7324-6.66992 20.7324-7.05078Q20.7324-7.46094 20.4785-7.71484Q20.2246-7.96875 19.8242-7.96875L15.8691-7.96875L15.8691-11.9141Q15.8691-12.3242 15.6104-12.583Q15.3516-12.8418 14.9512-12.8418Q14.5605-12.8418 14.3115-12.583Q14.0625-12.3242 14.0625-11.9141L14.0625-7.96875L10.1172-7.96875Q9.70703-7.96875 9.45312-7.71484Q9.19922-7.46094 9.19922-7.05078Z"/>
  </g>
  <text style="stroke:none;fill:black;font-family:sans-serif;font-size:13;font-weight:bold;" transform="matrix(1 0 0 1 263 1953)">Design Variations</text>
  <text style="stroke:none;fill:black;font-family:sans-serif;font-size:13;" transform="matrix(1 0 0 1 263 1971)">Symbols are supported in up to nine weights and three scales.</text>
  <text style="stroke:none;fill:black;font-family:sans-serif;font-size:13;" transform="matrix(1 0 0 1 263 1989)">For optimal layout with text and other symbols, vertically align</text>
  <text style="stroke:none;fill:black;font-family:sans-serif;font-size:13;" transform="matrix(1 0 0 1 263 2007)">symbols with the adjacent text.</text>
  <line style="fill:none;stroke:#00AEEF;stroke-width:0.5;opacity:1.0;" x1="776" x2="776" y1="1919" y2="1933"/>
  <g transform="matrix(1 0 0 1 776 1933)">
   <path d="M3.31055 0.15625Q3.70117 0.15625 3.91602-0.00976562Q4.13086-0.175781 4.26758-0.585938L5.52734-4.0332L11.2891-4.0332L12.5488-0.585938Q12.6855-0.175781 12.9004-0.00976562Q13.1152 0.15625 13.4961 0.15625Q13.8867 0.15625 14.1162-0.0585938Q14.3457-0.273438 14.3457-0.644531Q14.3457-0.869141 14.2383-1.17188L9.6582-13.3691Q9.48242-13.8184 9.17969-14.043Q8.87695-14.2676 8.4082-14.2676Q7.5-14.2676 7.17773-13.3789L2.59766-1.16211Q2.49023-0.859375 2.49023-0.634766Q2.49023-0.263672 2.70996-0.0537109Q2.92969 0.15625 3.31055 0.15625ZM6.00586-5.51758L8.37891-12.0898L8.42773-12.0898L10.8008-5.51758Z"/>
  </g>
  <line style="fill:none;stroke:#00AEEF;stroke-width:0.5;opacity:1.0;" x1="793.197" x2="793.197" y1="1919" y2="1933"/>
  <text style="stroke:none;fill:black;font-family:sans-serif;font-size:13;font-weight:bold;" transform="matrix(1 0 0 1 776 1953)">Margins</text>
  <text style="stroke:none;fill:black;font-family:sans-serif;font-size:13;" transform="matrix(1 0 0 1 776 1971)">Leading and trailing margins on the left and right side of each symbol</text>
  <text style="stroke:none;fill:black;font-family:sans-serif;font-size:13;" transform="matrix(1 0 0 1 776 1989)">can be adjusted by modifying the x-location of the margin guidelines.</text>
  <text style="stroke:none;fill:black;font-family:sans-serif;font-size:13;" transform="matrix(1 0 0 1 776 2007)">Modifications are automatically applied proportionally to all</text>
  <text style="stroke:none;fill:black;font-family:sans-serif;font-size:13;" transform="matrix(1 0 0 1 776 2025)">scales and weights.</text>
  <g transform="matrix(1 0 0 1 1289 1933)">
   <path d="M2.8418 1.86523L4.54102 3.57422Q5.18555 4.22852 5.90332 4.17969Q6.62109 4.13086 7.31445 3.35938L18.0078-8.42773L17.041-9.4043L6.42578 2.27539Q6.16211 2.57812 5.89355 2.61719Q5.625 2.65625 5.27344 2.30469L4.10156 1.14258Q3.75 0.791016 3.79395 0.522461Q3.83789 0.253906 4.14062-0.0195312L15.6152-10.8203L14.6387-11.7871L3.04688-0.898438Q2.30469-0.214844 2.25098 0.498047Q2.19727 1.21094 2.8418 1.86523ZM9.25781-16.3281Q8.94531-16.0254 8.90625-15.6348Q8.86719-15.2441 9.04297-14.9512Q9.21875-14.6777 9.55566-14.541Q9.89258-14.4043 10.3809-14.5215Q11.4746-14.7754 12.5977-14.7314Q13.7207-14.6875 14.7949-13.9844L14.209-12.5293Q13.9551-11.9043 14.0674-11.4404Q14.1797-10.9766 14.5801-10.5664L16.875-8.25195Q17.2363-7.88086 17.5781-7.82227Q17.9199-7.76367 18.3398-7.8418L19.4043-8.03711L20.0684-7.36328L20.0293-6.80664Q20-6.43555 20.1221-6.12305Q20.2441-5.81055 20.6055-5.44922L21.3672-4.70703Q21.7285-4.3457 22.1533-4.33105Q22.5781-4.31641 22.9297-4.66797L25.8398-7.58789Q26.1914-7.93945 26.1816-8.35449Q26.1719-8.76953 25.8105-9.13086L25.0391-9.89258Q24.6875-10.2539 24.3799-10.3857Q24.0723-10.5176 23.7109-10.4883L23.1348-10.4395L22.4902-11.0742L22.7344-12.1973Q22.832-12.6172 22.6953-12.9834Q22.5586-13.3496 22.1191-13.7891L19.9219-15.9766Q18.6719-17.2168 17.2607-17.8369Q15.8496-18.457 14.4189-18.4814Q12.9883-18.5059 11.665-17.959Q10.3418-17.4121 9.25781-16.3281ZM10.752-15.957Q11.6602-16.6211 12.7002-16.9043Q13.7402-17.1875 14.8047-17.085Q15.8691-16.9824 16.8701-16.5137Q17.8711-16.0449 18.7012-15.2051L21.1328-12.793Q21.3086-12.6172 21.3525-12.4512Q21.3965-12.2852 21.3379-12.0312L21.0156-10.5469L22.5195-9.0625L23.5059-9.12109Q23.6914-9.13086 23.7891-9.09668Q23.8867-9.0625 24.0332-8.91602L24.6094-8.33984L22.168-5.89844L21.5918-6.47461Q21.4453-6.62109 21.4062-6.71875Q21.3672-6.81641 21.377-7.01172L21.4453-7.98828L19.9512-9.47266L18.4277-9.21875Q18.1836-9.16992 18.042-9.2041Q17.9004-9.23828 17.7148-9.41406L15.7129-11.416Q15.5176-11.5918 15.4932-11.7529Q15.4688-11.9141 15.5859-12.1875L16.4648-14.2773Q15.293-15.3711 13.8281-15.791Q12.3633-16.2109 10.8398-15.7617Q10.7227-15.7324 10.6885-15.8057Q10.6543-15.8789 10.752-15.957Z"/>
  </g>
  <text style="stroke:none;fill:black;font-family:sans-serif;font-size:13;font-weight:bold;" transform="matrix(1 0 0 1 1289 1953)">Exporting</text>
  <text style="stroke:none;fill:black;font-family:sans-serif;font-size:13;" transform="matrix(1 0 0 1 1289 1971)">Symbols should be outlined when exporting to ensure the</text>
  <text style="stroke:none;fill:black;font-family:sans-serif;font-size:13;" transform="matrix(1 0 0 1 1289 1989)">design is preserved when submitting to Xcode.</text>
  <text id="template-version" style="stroke:none;fill:black;font-family:sans-serif;font-size:13;text-anchor:end;" transform="matrix(1 0 0 1 3036 1933)">Template v.2.0</text>
  <text style="stroke:none;fill:black;font-family:sans-serif;font-size:13;text-anchor:end;" transform="matrix(1 0 0 1 3036 1951)">Requires Xcode 12 or greater</text>
  <text id="descriptive-name" style="stroke:none;fill:black;font-family:sans-serif;font-size:13;text-anchor:end;" transform="matrix(1 0 0 1 3036 1969)">Generated from figure.flexibility</text>
  <text style="stroke:none;fill:black;font-family:sans-serif;font-size:13;text-anchor:end;" transform="matrix(1 0 0 1 3036 1987)">Typeset at 100 points</text>
  <text style="stroke:none;fill:black;font-family:sans-serif;font-size:13;" transform="matrix(1 0 0 1 263 726)">Small</text>
  <text style="stroke:none;fill:black;font-family:sans-serif;font-size:13;" transform="matrix(1 0 0 1 263 1156)">Medium</text>
  <text style="stroke:none;fill:black;font-family:sans-serif;font-size:13;" transform="matrix(1 0 0 1 263 1586)">Large</text>
 </g>
 <g id="Guides">
  <g id="H-reference" style="fill:#27AAE1;stroke:none;" transform="matrix(1 0 0 1 339 696)">
   <path d="M0.993347 0L3.6377 0L29.3282-67.1326L30.0301-67.1326L30.0301-70.459L28.1227-70.459ZM11.6882-24.4797L46.9818-24.4797L46.2311-26.7288L12.4382-26.7288ZM55.1193 0L57.7637 0L30.6381-70.459L29.4327-70.459L29.4327-67.1326Z"/>
  </g>
  <line id="Baseline-S" style="fill:none;stroke:#27AAE1;opacity:1;stroke-width:0.5;" x1="263" x2="3036" y1="696" y2="696"/>
  <line id="Capline-S" style="fill:none;stroke:#27AAE1;opacity:1;stroke-width:0.5;" x1="263" x2="3036" y1="625.541" y2="625.541"/>
  <g id="H-reference" style="fill:#27AAE1;stroke:none;" transform="matrix(1 0 0 1 339 1126)">
   <path d="M0.993347 0L3.6377 0L29.3282-67.1326L30.0301-67.1326L30.0301-70.459L28.1227-70.459ZM11.6882-24.4797L46.9818-24.4797L46.2311-26.7288L12.4382-26.7288ZM55.1193 0L57.7637 0L30.6381-70.459L29.4327-70.459L29.4327-67.1326Z"/>
  </g>
  <line id="Baseline-M" style="fill:none;stroke:#27AAE1;opacity:1;stroke-width:0.5;" x1="263" x2="3036" y1="1126" y2="1126"/>
  <line id="Capline-M" style="fill:none;stroke:#27AAE1;opacity:1;stroke-width:0.5;" x1="263" x2="3036" y1="1055.54" y2="1055.54"/>
  <g id="H-reference" style="fill:#27AAE1;stroke:none;" transform="matrix(1 0 0 1 339 1556)">
   <path d="M0.993347 0L3.6377 0L29.3282-67.1326L30.0301-67.1326L30.0301-70.459L28.1227-70.459ZM11.6882-24.4797L46.9818-24.4797L46.2311-26.7288L12.4382-26.7288ZM55.1193 0L57.7637 0L30.6381-70.459L29.4327-70.459L29.4327-67.1326Z"/>
  </g>
  <line id="Baseline-L" style="fill:none;stroke:#27AAE1;opacity:1;stroke-width:0.5;" x1="263" x2="3036" y1="1556" y2="1556"/>
  <line id="Capline-L" style="fill:none;stroke:#27AAE1;opacity:1;stroke-width:0.5;" x1="263" x2="3036" y1="1485.54" y2="1485.54"/>
  <line id="left-margin" style="fill:none;stroke:#00AEEF;stroke-width:0.5;opacity:1.0;" x1="1385.03" x2="1385.03" y1="1030.79" y2="1150.12"/>
  <line id="right-margin" style="fill:none;stroke:#00AEEF;stroke-width:0.5;opacity:1.0;" x1="1514.66" x2="1514.66" y1="1030.79" y2="1150.12"/>
 </g>
 <g id="Symbols">
  <g id="Black-L" transform="matrix(1 0 0 1 2845.25 1556)">
   <path d="M57.6453-73.8836Q64.0893-73.8836 68.6234-78.4469Q73.1574-83.0102 73.1574-89.3969Q73.1574-95.8201 68.6234-100.343Q64.0893-104.866 57.6453-104.866Q51.3002-104.866 46.7265-100.343Q42.1528-95.8201 42.1528-89.3969Q42.1528-83.0102 46.7265-78.4469Q51.3002-73.8836 57.6453-73.8836ZM156.06 17.8579L112.5-5.57074L87.3494-23.0983Q85.1444-24.6743 83.3051-26.7041Q86.7944-29.7764 85.5893-34.5516L80.6545-54.5478Q79.2534-60.2715 74.6103-63.8444Q69.9671-67.4173 64.0837-67.4173L48.3582-67.4173Q44.5545-67.4173 41.6536-66.3664Q38.7527-65.3156 36.2101-62.7742L18.3401-44.8457Q16.4629-42.9685 16.1346-40.3115Q15.8063-37.6545 17.1426-35.2607L29.5029-13.5705L29.5029 24.8651Q29.5029 28.0786 31.8388 30.4249Q34.1748 32.7713 37.4287 32.7713Q40.7227 32.7713 43.0586 30.4249Q45.3945 28.0786 45.3945 24.8651L45.3945-7.16022L82.3843-4.43194L105.455 8.68732L148.556 31.7723Q152.009 33.6691 155.053 32.3626Q158.098 31.0561 159.316 28.6183Q160.813 25.7045 159.864 22.5402Q158.915 19.3758 156.06 17.8579ZM33.8749-37.8957L43.5983-47.7204L51.6721-27.0029L45.6792-23.594L42.1018-23.594Z"/>
  </g>
  <g id="Heavy-L" transform="matrix(1 0 0 1 2549.72 1556)">
   <path d="M56.8589-73.4032Q63.1252-73.4032 67.536-77.8363Q71.9468-82.2695 71.9468-88.4968Q71.9468-94.733 67.536-99.1259Q63.1252-103.519 56.8589-103.519Q50.6919-103.519 46.2436-99.1259Q41.7954-94.733 41.7954-88.4968Q41.7954-82.2695 46.2436-77.8363Q50.6919-73.4032 56.8589-73.4032ZM153.879 17.2886L110.879-5.85984L86.0499-23.1568Q83.7341-24.8023 81.8116-26.9843Q85.4029-29.901 84.2022-34.6266L79.3215-54.3695Q77.9567-59.929 73.446-63.4061Q68.9352-66.8833 63.2205-66.8833L47.6848-66.8833Q43.9815-66.8833 41.1672-65.8597Q38.3529-64.8362 35.8836-62.3726L18.2348-44.6791Q16.4446-42.889 16.1393-40.3417Q15.8339-37.7944 17.0968-35.5242L29.3402-14.0409L29.3402 23.971Q29.3402 27.0241 31.5686 29.2676Q33.797 31.5111 36.9048 31.5111Q40.0383 31.5111 42.2667 29.2676Q44.4951 27.0241 44.4951 23.971L44.4951-7.91899L81.3644-5.21281L104.182 7.75748L146.741 30.5484Q150.029 32.3631 152.93 31.1252Q155.83 29.8874 156.998 27.5455Q158.421 24.7784 157.511 21.7605Q156.601 18.7426 153.879 17.2886ZM33.0648-38.0357L43.0848-48.1663L51.2892-27.1176L45.1017-23.6067L41.3672-23.6067Z"/>
  </g>
  <g id="Bold-L" transform="matrix(1 0 0 1 2254.56 1556)">
   <path d="M55.8533-72.7668Q61.8968-72.7668 66.1577-77.0422Q70.4186-81.3177 70.4186-87.3454Q70.4186-93.351 66.1577-97.5863Q61.8968-101.822 55.8533-101.822Q49.9016-101.822 45.6071-97.5863Q41.3126-93.351 41.3126-87.3454Q41.3126-81.3177 45.6071-77.0422Q49.9016-72.7668 55.8533-72.7668ZM151.003 16.5072L108.769-6.25822L84.3767-23.241Q81.9451-24.9561 79.9375-27.3003Q83.6295-30.0323 82.4363-34.689L77.6323-54.0871Q76.3136-59.4467 71.9642-62.8047Q67.6149-66.1628 62.1076-66.1628L46.8325-66.1628Q43.2521-66.1628 40.5454-65.1739Q37.8386-64.1849 35.4542-61.8136L18.1116-44.4418Q16.4215-42.752 16.1431-40.3354Q15.8647-37.9189 17.0429-35.7948L29.1179-14.6099L29.1179 22.8049Q29.1179 25.6731 31.2194 27.7935Q33.3209 29.914 36.2518 29.914Q39.2004 29.914 41.3018 27.7935Q43.4032 25.6731 43.4032 22.8049L43.4032-8.82664L80.0146-6.1586L102.48 6.60489L144.296 28.9974Q147.392 30.712 150.123 29.555Q152.853 28.3981 153.96 26.1715Q155.299 23.5737 154.435 20.729Q153.571 17.8843 151.003 16.5072ZM32.1105-38.1602L42.4247-48.5928L50.7458-27.2487L44.3647-23.637L40.4679-23.637Z"/>
  </g>
  <g id="Semibold-L" transform="matrix(1 0 0 1 1958.91 1556)">
   <path d="M55.1601-72.328Q61.05-72.328 65.2075-76.4948Q69.365-80.6616 69.365-86.5516Q69.365-92.3983 65.2075-96.5249Q61.05-100.651 55.1601-100.651Q49.3568-100.651 45.1683-96.5249Q40.9797-92.3983 40.9797-86.5516Q40.9797-80.6616 45.1683-76.4948Q49.3568-72.328 55.1601-72.328ZM149.02 15.9685L107.315-6.53285L83.2233-23.299Q80.7117-25.0621 78.6456-27.5182Q82.4069-30.1228 81.2189-34.7321L76.4677-53.8925Q75.1808-59.1142 70.9428-62.3902Q66.7047-65.6661 61.3404-65.6661L46.2449-65.6661Q42.7493-65.6661 40.1167-64.701Q37.4841-63.7359 35.1581-61.4282L18.0267-44.2782Q16.4056-42.6575 16.1458-40.3311Q15.886-38.0048 17.0057-35.9814L28.9647-15.0021L28.9647 22.001Q28.9647 24.7418 30.9787 26.7774Q32.9927 28.8129 35.8016 28.8129Q38.6228 28.8129 40.6366 26.7774Q42.6505 24.7418 42.6505 22.001L42.6505-9.45237L79.0841-6.81062L101.307 5.8103L142.61 27.9281Q145.574 29.5738 148.188 28.4726Q150.802 27.3713 151.866 25.2242Q153.146 22.7433 152.314 20.0179Q151.482 17.2926 149.02 15.9685ZM31.4527-38.246L41.9696-48.8869L50.3712-27.339L43.8566-23.6578L39.8479-23.6578Z"/>
  </g>
  <g id="Medium-L" transform="matrix(1 0 0 1 1663.01 1556)">
   <path d="M54.6344-71.9953Q60.4079-71.9953 64.487-76.0797Q68.5662-80.1641 68.5662-85.9497Q68.5662-91.6759 64.487-95.7201Q60.4079-99.7642 54.6344-99.7642Q48.9437-99.7642 44.8355-95.7201Q40.7273-91.6759 40.7273-85.9497Q40.7273-80.1641 44.8355-76.0797Q48.9437-71.9953 54.6344-71.9953ZM147.516 15.5601L106.212-6.74109L82.3486-23.3431Q79.7765-25.1425 77.6659-27.6835Q81.4798-30.1914 80.2958-34.7647L75.5847-53.7449Q74.3219-58.8621 70.1682-62.0758Q66.0145-65.2895 60.7587-65.2895L45.7994-65.2895Q42.3681-65.2895 39.7917-64.3425Q37.2153-63.3954 34.9336-61.136L17.9623-44.1542Q16.3935-42.5858 16.1478-40.3278Q15.9021-38.0698 16.9775-36.1228L28.8486-15.2996L28.8486 21.3914Q28.8486 24.0356 30.7962 26.0068Q32.7438 27.9781 35.4603 27.9781Q38.1848 27.9781 40.1323 26.0068Q42.0797 24.0356 42.0797 21.3914L42.0797-9.92682L78.3786-7.30501L100.417 5.20781L141.332 27.1174Q144.195 28.7108 146.72 27.6518Q149.246 26.5928 150.278 24.506Q151.514 22.1136 150.706 19.4787Q149.898 16.8439 147.516 15.5601ZM30.9538-38.3111L41.6245-49.1099L50.0872-27.4075L43.4713-23.6736L39.3778-23.6736Z"/>
  </g>
  <g id="Regular-L" transform="matrix(1 0 0 1 1367.35 1556)">
   <path d="M53.9488-71.5614Q59.5704-71.5614 63.5473-75.5382Q67.5242-79.5151 67.5242-85.1646Q67.5242-90.7337 63.5473-94.6703Q59.5704-98.607 53.9488-98.607Q48.4049-98.607 44.4015-94.6703Q40.3981-90.7337 40.3981-85.1646Q40.3981-79.5151 44.4015-75.5382Q48.4049-71.5614 53.9488-71.5614ZM145.555 15.0273L104.773-7.01271L81.2078-23.4005Q78.5567-25.2474 76.3882-27.8989Q80.2707-30.2809 79.0918-34.8073L74.433-53.5523Q73.2015-58.5333 69.1579-61.6658Q65.1143-64.7983 59.9999-64.7983L45.2183-64.7983Q41.8708-64.7983 39.3677-63.8748Q36.8647-62.9514 34.6408-60.7549L17.8783-43.9925Q16.3778-42.4924 16.1505-40.3235Q15.9231-38.1547 16.9407-36.3074L28.6971-15.6875L28.6971 20.5963Q28.6971 23.1145 30.5581 25.0018Q32.4192 26.8892 35.015 26.8892Q37.6136 26.8892 39.4744 25.0018Q41.3353 23.1145 41.3353 20.5963L41.3353-10.5457L77.4583-7.94987L99.257 4.42195L139.665 26.0599Q142.397 27.5851 144.807 26.5812Q147.217 25.5773 148.207 23.5691Q149.385 21.2922 148.609 18.7755Q147.832 16.2587 145.555 15.0273ZM30.3032-38.396L41.1744-49.4007L49.7167-27.4968L42.9688-23.6943L38.7646-23.6943Z"/>
  </g>
  <g id="Light-L" transform="matrix(1 0 0 1 1072.23 1556)">
   <path d="M53.0519-70.8553Q58.5017-70.8553 62.3926-74.7462Q66.2836-78.6372 66.2836-84.134Q66.2836-89.5504 62.3926-93.4012Q58.5017-97.2519 53.0519-97.2519Q47.6225-97.2519 43.7145-93.4012Q39.8065-89.5504 39.8065-84.134Q39.8065-78.6372 43.7145-74.7462Q47.6225-70.8553 53.0519-70.8553ZM142.444 13.9967L102.654-7.54724L79.6427-23.5342Q77.049-25.3237 74.9378-27.9182Q78.7248-30.2235 77.5648-34.6546L73.0208-52.9607Q71.8275-57.8272 67.8793-60.8738Q63.9311-63.9203 58.9501-63.9203L44.5122-63.9203Q41.241-63.9203 38.8143-63.0256Q36.3875-62.1308 34.1829-59.9725L17.8402-43.6298Q16.3585-42.1489 16.1408-40.0374Q15.9231-37.9258 16.9215-36.1355L28.4107-15.9928L28.4107 19.4131Q28.4107 21.8931 30.2242 23.7232Q32.0376 25.5533 34.5379 25.5533Q37.0983 25.5533 38.9114 23.7232Q40.7244 21.8931 40.7244 19.4131L40.7244-10.9654L75.9695-8.46516L97.2722 3.62032L136.706 24.7622Q139.381 26.23 141.734 25.2548Q144.087 24.2796 145.039 22.3285Q146.198 20.0898 145.441 17.6399Q144.683 15.19 142.444 13.9967ZM29.9598-38.167L40.5636-48.8854L48.8962-27.5161L42.3198-23.8088L38.2111-23.8088Z"/>
  </g>
  <g id="Thin-L" transform="matrix(1 0 0 1 777.63 1556)">
   <path d="M51.8658-69.9214Q57.0882-69.9214 60.8655-73.6987Q64.6427-77.476 64.6427-82.771Q64.6427-87.9855 60.8655-91.7226Q57.0882-95.4597 51.8658-95.4597Q46.5877-95.4597 42.8059-91.7226Q39.0241-87.9855 39.0241-82.771Q39.0241-77.476 42.8059-73.6987Q46.5877-69.9214 51.8658-69.9214ZM138.33 12.6337L99.8525-8.2542L77.5727-23.711Q75.0549-25.4246 73.0197-27.9436Q76.6803-30.1476 75.5453-34.4528L71.1531-52.1783Q70.0103-56.8934 66.1883-59.8263Q62.3662-62.7592 57.5616-62.7592L43.5783-62.7592Q40.4081-62.7592 38.0823-61.9024Q35.7565-61.0456 33.5773-58.9377L17.7897-43.1501Q16.3331-41.6947 16.1281-39.6589Q15.9231-37.623 16.896-35.9082L28.032-16.3965L28.032 17.8482Q28.032 20.2777 29.7825 22.0321Q31.533 23.7866 33.9068 23.7866Q36.4168 23.7866 38.1666 22.0321Q39.9165 20.2777 39.9165 17.8482L39.9165-11.5205L74.0004-9.14668L94.647 2.56008L132.794 23.0459Q135.393 24.4378 137.67 23.5006Q139.947 22.5633 140.849 20.6877Q141.983 18.4994 141.25 16.138Q140.518 13.7765 138.33 12.6337ZM29.5055-37.8642L39.7557-48.2039L47.8109-27.5415L41.4614-23.9602L37.4792-23.9602Z"/>
  </g>
  <g id="Ultralight-L" transform="matrix(1 0 0 1 481.998 1556)">
   <path d="M51.2582-69.4431Q56.3642-69.4431 60.0833-73.1622Q63.8023-76.8813 63.8023-82.0728Q63.8023-87.184 60.0833-90.8629Q56.3642-94.5417 51.2582-94.5417Q46.0577-94.5417 42.3405-90.8629Q38.6233-87.184 38.6233-82.0728Q38.6233-76.8813 42.3405-73.1622Q46.0577-69.4431 51.2582-69.4431ZM136.222 11.9355L98.4174-8.61631L76.5125-23.8016Q74.0336-25.4763 72.0372-27.9567Q75.633-30.1087 74.5109-34.3494L70.1965-51.7775Q69.0795-56.4151 65.3221-59.2897Q61.5647-62.1644 56.8504-62.1644L43.1-62.1644Q39.9815-62.1644 37.7074-61.3271Q35.4333-60.4897 33.2671-58.4077L17.7639-42.9045Q16.3201-41.4621 16.1216-39.465Q15.9231-37.4679 16.883-35.7917L27.838-16.6033L27.838 17.0467Q27.838 19.4504 29.5563 21.166Q31.2745 22.8816 33.5836 22.8816Q36.0677 22.8816 37.7852 21.166Q39.5027 19.4504 39.5027 17.0467L39.5027-11.8049L72.9919-9.49575L93.3024 2.01704L130.79 22.1668Q133.35 23.5198 135.589 22.602Q137.827 21.6843 138.703 19.8473Q139.823 17.6849 139.104 15.3687Q138.385 13.0525 136.222 11.9355ZM29.2729-37.7091L39.3419-47.8548L47.2551-27.5546L41.0218-24.0377L37.1042-24.0377Z"/>
  </g>
  <g id="Black-M" transform="matrix(1 0 0 1 2864.31 1126)">
   <path d="M45.2147-65.4937Q50.3364-65.4937 53.9435-69.1293Q57.5505-72.7649 57.5505-77.8292Q57.5505-82.9455 53.9435-86.5499Q50.3364-90.1544 45.2147-90.1544Q40.1613-90.1544 36.5229-86.5499Q32.8846-82.9455 32.8846-77.8292Q32.8846-72.7649 36.5229-69.1293Q40.1613-65.4937 45.2147-65.4937ZM122.359 6.24917L88.2639-12.0756L68.578-25.7988Q66.9727-26.9524 65.627-28.3864Q68.2298-30.8899 67.2949-34.6192L63.4407-50.2692Q62.3291-54.8294 58.6311-57.668Q54.933-60.5067 50.248-60.5067L37.9482-60.5067Q34.9254-60.5067 32.6139-59.6729Q30.3024-58.8392 28.2721-56.8086L14.2942-42.7736Q12.7675-41.247 12.4948-39.1019Q12.2221-36.9569 13.3179-35.0039L22.9582-18.0865L22.9582 11.9364Q22.9582 14.5588 24.8539 16.4572Q26.7496 18.3557 29.3832 18.3557Q32.0679 18.3557 33.9636 16.4572Q35.8593 14.5588 35.8593 11.9364L35.8593-12.8878L64.5014-10.768L82.5251-0.514771L116.251 17.5555Q119.061 19.088 121.535 18.0206Q124.01 16.9533 124.992 14.99Q126.212 12.6116 125.446 10.0433Q124.68 7.475 122.359 6.24917ZM26.8939-37.1438L34.136-44.4537L40.2504-28.76L35.798-26.2196L33.1744-26.2196Z"/>
  </g>
  <g id="Heavy-M" transform="matrix(1 0 0 1 2568.6 1126)">
   <path d="M44.5286-65.0892Q49.4926-65.0892 52.987-68.6055Q56.4815-72.1217 56.4815-77.0444Q56.4815-81.992 52.987-85.4771Q49.4926-88.9622 44.5286-88.9622Q39.6387-88.9622 36.1143-85.4771Q32.5898-81.992 32.5898-77.0444Q32.5898-72.1217 36.1143-68.6055Q39.6387-65.0892 44.5286-65.0892ZM120.514 5.78771L86.8752-12.3089L67.4521-25.8436Q65.7331-27.0704 64.3008-28.6585Q67.0121-31.017 66.0797-34.7066L62.2679-50.1495Q61.1883-54.5596 57.6109-57.3126Q54.0334-60.0657 49.501-60.0657L37.3551-60.0657Q34.4233-60.0657 32.1894-59.256Q29.9555-58.4463 27.9952-56.4882L14.1948-42.6442Q12.7515-41.201 12.5003-39.1579Q12.2491-37.1149 13.2749-35.2774L22.8255-18.5181L22.8255 11.1715Q22.8255 13.6406 24.6205 15.4437Q26.4155 17.2469 28.9151 17.2469Q31.4464 17.2469 33.2414 15.4437Q35.0364 13.6406 35.0364 11.1715L35.0364-13.5908L63.6417-11.4839L81.4642-1.3498L114.75 16.4789Q117.404 17.9362 119.743 16.9334Q122.082 15.9306 123.018 14.0557Q124.168 11.8172 123.439 9.38587Q122.709 6.95453 120.514 5.78771ZM26.1337-37.3018L33.6904-44.9371L39.9518-28.8704L35.2933-26.2214L32.5073-26.2214Z"/>
  </g>
  <g id="Bold-M" transform="matrix(1 0 0 1 2273.02 1126)">
   <path d="M43.7611-64.6367Q48.5486-64.6367 51.9171-68.0195Q55.2856-71.4023 55.2856-76.1664Q55.2856-80.9253 51.9171-84.277Q48.5486-87.6286 43.7611-87.6286Q39.0542-87.6286 35.6571-84.277Q32.2599-80.9253 32.2599-76.1664Q32.2599-71.4023 35.6571-68.0195Q39.0542-64.6367 43.7611-64.6367ZM118.45 5.2715L85.3216-12.5699L66.1925-25.8938Q64.3465-27.2024 62.8173-28.9628Q65.6499-31.1591 64.7204-34.8043L60.9559-50.0157Q59.9122-54.2578 56.4696-56.9151Q53.0271-59.5723 48.6653-59.5723L36.6915-59.5723Q33.8617-59.5723 31.7146-58.7896Q29.5675-58.0068 27.6854-56.1298L14.0835-42.4994Q12.7335-41.1495 12.5064-39.2205Q12.2792-37.2916 13.2268-35.5832L22.6771-19.001L22.6771 10.3159Q22.6771 12.6134 24.3594 14.31Q26.0418 16.0067 28.3914 16.0067Q30.7512 16.0067 32.4335 14.31Q34.1158 12.6134 34.1158 10.3159L34.1158-14.3773L62.68-12.2846L80.2774-2.2839L113.071 15.2745Q115.55 16.6479 117.737 15.7172Q119.924 14.7865 120.81 13.0106Q121.882 10.9286 121.193 8.65043Q120.503 6.3723 118.45 5.2715ZM25.2834-37.4785L33.1918-45.4779L39.6178-28.9939L34.7288-26.2235L31.7611-26.2235Z"/>
  </g>
  <g id="Semibold-M" transform="matrix(1 0 0 1 1977.09 1126)">
   <path d="M43.232-64.3247Q47.8978-64.3247 51.1795-67.6155Q54.4612-70.9063 54.4612-75.5612Q54.4612-80.19 51.1795-83.4496Q47.8978-86.7093 43.232-86.7093Q38.6512-86.7093 35.3419-83.4496Q32.0325-80.19 32.0325-75.5612Q32.0325-70.9063 35.3419-67.6155Q38.6512-64.3247 43.232-64.3247ZM117.027 4.91563L84.2506-12.7498L65.3242-25.9284Q63.3906-27.2934 61.7946-29.1726Q64.7108-31.2571 63.7833-34.8716L60.0514-49.9234Q59.0324-54.0498 55.6829-56.641Q52.3333-59.2322 48.0893-59.2322L36.2341-59.2322Q33.4745-59.2322 31.3872-58.468Q29.2999-57.7038 27.4718-55.8827L14.0068-42.3996Q12.7211-41.114 12.5106-39.2637Q12.3-37.4134 13.1936-35.7941L22.5748-19.3339L22.5748 9.72603Q22.5748 11.9053 24.1795 13.5285Q25.7841 15.1516 28.0303 15.1516Q30.2719 15.1516 31.8765 13.5285Q33.4811 11.9053 33.4811 9.72603L33.4811-14.9194L62.017-12.8366L79.4592-2.92787L111.913 14.4442Q114.272 15.7597 116.355 14.8787Q118.437 13.9977 119.287 12.2901Q120.306 10.3159 119.644 8.14342Q118.983 5.97092 117.027 4.91563ZM24.6971-37.6003L32.8482-45.8507L39.3876-29.079L34.3396-26.2249L31.2467-26.2249Z"/>
  </g>
  <g id="Medium-M" transform="matrix(1 0 0 1 1680.97 1126)">
   <path d="M42.8308-64.0882Q47.4043-64.0882 50.6202-67.3092Q53.8361-70.5303 53.8361-75.1022Q53.8361-79.6324 50.6202-82.8223Q47.4043-86.0122 42.8308-86.0122Q38.3457-86.0122 35.1029-82.8223Q31.8601-79.6324 31.8601-75.1022Q31.8601-70.5303 35.1029-67.3092Q38.3457-64.0882 42.8308-64.0882ZM115.948 4.64579L83.4386-12.8862L64.6658-25.9546Q62.6658-27.3624 61.0191-29.3317Q63.9987-31.3314 63.0727-34.9227L59.3656-49.8534Q58.3654-53.8921 55.0863-56.4332Q51.8072-58.9743 47.6525-58.9743L35.8873-58.9743Q33.1809-58.9743 31.139-58.2242Q29.0971-57.4741 27.3098-55.6953L13.9487-42.3239Q12.7118-41.0871 12.5138-39.2965Q12.3158-37.5058 13.1685-35.954L22.4972-19.5863L22.4972 9.27877Q22.4972 11.3684 24.043 12.9358Q25.5888 14.5033 27.7566 14.5033Q29.9085 14.5033 31.4542 12.9358Q32.9999 11.3684 32.9999 9.27877L32.9999-15.3305L61.5143-13.2552L78.8388-3.41615L111.035 13.8146Q113.303 15.0862 115.306 14.2429Q117.309 13.3997 118.133 11.7438Q119.11 9.85139 118.47 7.75899Q117.83 5.66658 115.948 4.64579ZM24.2526-37.6927L32.5876-46.1334L39.213-29.1435L34.0445-26.226L30.8567-26.226Z"/>
  </g>
  <g id="Regular-M" transform="matrix(1 0 0 1 1385.03 1126)">
   <path d="M42.3075-63.7797Q46.7607-63.7797 49.8908-66.9097Q53.0208-70.0397 53.0208-74.5036Q53.0208-78.9052 49.8908-82.004Q46.7607-85.1029 42.3075-85.1029Q37.9471-85.1029 34.7912-82.004Q31.6352-78.9052 31.6352-74.5036Q31.6352-70.0397 34.7912-66.9097Q37.9471-63.7797 42.3075-63.7797ZM114.541 4.29383L82.3794-13.0642L63.807-25.9889Q61.7204-27.4524 60.0076-29.5392Q63.07-31.4283 62.1459-34.9893L58.4711-49.7621Q57.4953-53.6863 54.3082-56.1621Q51.1211-58.638 47.0827-58.638L35.4348-58.638Q32.7979-58.638 30.8152-57.9062Q28.8325-57.1744 27.0986-55.451L13.8729-42.2252Q12.6995-41.052 12.5179-39.3391Q12.3363-37.6263 13.1357-36.1625L22.396-19.9155L22.396 8.69538Q22.396 10.668 23.865 12.1629Q25.334 13.6577 27.3995 13.6577Q29.4345 13.6577 30.9034 12.1629Q32.3723 10.668 32.3723 8.69538L32.3723-15.8667L60.8586-13.8012L78.0297-4.05304L109.89 12.9934Q112.039 14.2078 113.939 13.4137Q115.839 12.6196 116.627 11.0312Q117.551 9.24549 116.939 7.25755Q116.326 5.26961 114.541 4.29383ZM23.6728-37.8132L32.2477-46.5021L38.9852-29.2277L33.6596-26.2274L30.3479-26.2274Z"/>
  </g>
  <g id="Light-M" transform="matrix(1 0 0 1 1089.74 1126)">
   <path d="M41.5034-63.1466Q45.8025-63.1466 48.8555-66.1996Q51.9085-69.2526 51.9085-73.5796Q51.9085-77.8443 48.8555-80.8662Q45.8025-83.888 41.5034-83.888Q37.2457-83.888 34.1753-80.8662Q31.1048-77.8443 31.1048-73.5796Q31.1048-69.2526 34.1753-66.1996Q37.2457-63.1466 41.5034-63.1466ZM111.751 3.36985L80.48-13.5434L62.4038-26.1087Q60.3686-27.5209 58.7073-29.5565Q61.684-31.3769 60.7769-34.8525L57.205-49.2317Q56.2634-53.0533 53.1618-55.4521Q50.0603-57.8508 46.1415-57.8508L34.8018-57.8508Q32.2333-57.8508 30.319-57.1448Q28.4047-56.4387 26.6881-54.7495L13.8386-41.9Q12.6823-40.7441 12.5093-39.0826Q12.3363-37.421 13.1184-36.0084L22.1393-20.1892L22.1393 7.63457Q22.1393 9.57301 23.5656 11.0165Q24.9919 12.46 26.9717 12.46Q28.9725 12.46 30.3985 11.0165Q31.8246 9.57301 31.8246 7.63457L31.8246-16.243L59.5238-14.2632L76.2501-4.77175L107.238 11.83Q109.336 12.9929 111.184 12.2245Q113.032 11.4561 113.787 9.91895Q114.694 8.16742 114.098 6.23942Q113.503 4.31142 111.751 3.36985ZM23.3649-37.6079L31.7-46.0402L38.2496-29.245L33.0777-26.3301L29.8517-26.3301Z"/>
  </g>
  <g id="Thin-M" transform="matrix(1 0 0 1 794.921 1126)">
   <path d="M40.4399-62.3094Q44.5353-62.3094 47.4863-65.2605Q50.4374-68.2116 50.4374-72.3576Q50.4374-76.4413 47.4863-79.3612Q44.5353-82.2812 40.4399-82.2812Q36.3179-82.2812 33.3606-79.3612Q30.4033-76.4413 30.4033-72.3576Q30.4033-68.2116 33.3606-65.2605Q36.3179-62.3094 40.4399-62.3094ZM108.063 2.14782L77.9678-14.1772L60.5479-26.2673Q58.5808-27.6114 56.9875-29.5793Q59.851-31.3088 58.9663-34.6715L55.5305-48.5302Q54.6342-52.216 51.6457-54.5129Q48.6572-56.8098 44.8966-56.8098L33.9646-56.8098Q31.4866-56.8098 29.6628-56.1378Q27.839-55.4657 26.1451-53.8218L13.7934-41.47Q12.6595-40.3369 12.4979-38.7432Q12.3363-37.1495 13.0956-35.8046L21.7997-20.5512L21.7997 6.23155Q21.7997 8.12475 23.1696 9.50038Q24.5394 10.876 26.406 10.876Q28.3615 10.876 29.7309 9.50038Q31.1003 8.12475 31.1003 6.23155L31.1003-16.7407L57.7584-14.8742L73.8966-5.7223L103.73 10.2912Q105.76 11.3861 107.541 10.6517Q109.321 9.91739 110.031 8.44788Q110.914 6.74159 110.342 4.89287Q109.769 3.04414 108.063 2.14782ZM22.9577-37.3364L30.9757-45.4291L37.2766-29.2678L32.3081-26.4658L29.1955-26.4658Z"/>
  </g>
  <g id="Ultralight-M" transform="matrix(1 0 0 1 499.178 1126)">
   <path d="M39.8952-61.8805Q43.8862-61.8805 46.7851-64.7794Q49.684-67.6783 49.684-71.7317Q49.684-75.7227 46.7851-78.5904Q43.8862-81.4582 39.8952-81.4582Q35.8428-81.4582 32.9434-78.5904Q30.044-75.7227 30.044-71.7317Q30.044-67.6783 32.9434-64.7794Q35.8428-61.8805 39.8952-61.8805ZM106.173 1.5219L76.6811-14.5019L59.5974-26.3485Q57.6651-27.6577 56.1067-29.591Q58.9121-31.2739 58.0389-34.5788L54.6728-48.1709Q53.7997-51.7872 50.8691-54.0319Q47.9386-56.2766 44.259-56.2766L33.5357-56.2766Q31.1041-56.2766 29.3266-55.622Q27.5492-54.9674 25.867-53.3466L13.7702-41.2498Q12.6478-40.1284 12.4921-38.5694Q12.3363-37.0105 13.0839-35.7002L21.6258-20.7366L21.6258 5.51293Q21.6258 7.38296 22.9667 8.72383Q24.3077 10.0647 26.1162 10.0647Q28.0485 10.0647 29.3889 8.72383Q30.7293 7.38296 30.7293 5.51293L30.7293-16.9957L56.8542-15.1871L72.6911-6.20917L101.933 9.50308Q103.928 10.5631 105.674 9.84616Q107.42 9.12925 108.106 7.6944Q108.979 6.01129 108.417 4.20317Q107.856 2.39505 106.173 1.5219ZM22.7492-37.1974L30.6047-45.1162L36.7782-29.2795L31.914-26.5353L28.8593-26.5353Z"/>
  </g>
  <g id="Black-S" transform="matrix(1 0 0 1 2879.03 696)">
   <path d="M35.5957-59.0332Q39.6484-59.0332 42.5049-61.9141Q45.3613-64.7949 45.3613-68.7988Q45.3613-72.8516 42.5049-75.708Q39.6484-78.5645 35.5957-78.5645Q31.5918-78.5645 28.7109-75.708Q25.8301-72.8516 25.8301-68.7988Q25.8301-64.7949 28.7109-61.9141Q31.5918-59.0332 35.5957-59.0332ZM96.2891-2.63672L69.4824-17.041L54.0039-27.832Q52.7832-28.7109 51.7578-29.7852Q53.7598-31.7871 53.0273-34.7168L50-47.0215Q49.1211-50.6348 46.1914-52.8809Q43.2617-55.127 39.5508-55.127L29.8828-55.127Q27.4902-55.127 25.6592-54.4678Q23.8281-53.8086 22.2168-52.1973L11.2305-41.1621Q10.0098-39.9414 9.79004-38.2324Q9.57031-36.5234 10.4492-34.9609L18.0176-21.6797L18.0176 1.9043Q18.0176 4.00391 19.5312 5.51758Q21.0449 7.03125 23.1445 7.03125Q25.293 7.03125 26.8066 5.51758Q28.3203 4.00391 28.3203 1.9043L28.3203-17.5293L50.7324-15.8691L64.8926-7.8125L91.4062 6.39648Q93.6523 7.61719 95.6299 6.7627Q97.6074 5.9082 98.3887 4.3457Q99.3652 2.44141 98.7549 0.390625Q98.1445-1.66016 96.2891-2.63672ZM21.2891-36.6699L26.8555-42.2852L31.5918-30.127L28.1738-28.1738L26.1719-28.1738Z"/>
  </g>
  <g id="Heavy-S" transform="matrix(1 0 0 1 2583 696)">
   <path d="M35.1117-58.7681Q39.0492-58.7681 41.8192-61.5568Q44.5892-64.3455 44.5892-68.2457Q44.5892-72.1716 41.8192-74.9359Q39.0492-77.7001 35.1117-77.7001Q31.2345-77.7001 28.4401-74.9359Q25.6457-72.1716 25.6457-68.2457Q25.6457-64.3455 28.4401-61.5568Q31.2345-58.7681 35.1117-58.7681ZM95.0675-2.91331L68.5374-17.1793L53.2202-27.8551Q51.8958-28.8031 50.7898-30.0156Q52.8954-31.9024 52.163-34.809L49.1587-46.9869Q48.3029-50.4849 45.4654-52.6677Q42.6279-54.8504 39.0322-54.8504L29.4564-54.8504Q27.133-54.8504 25.3595-54.2085Q23.5861-53.5666 22.0324-52.0129L11.1498-41.093Q9.99824-39.9414 9.7958-38.3131Q9.59336-36.6848 10.4146-35.2145L17.9369-22.0139L17.9369 1.3857Q17.9369 3.35854 19.3699 4.7973Q20.8029 6.23606 22.7988 6.23606Q24.8205 6.23606 26.2535 4.7973Q27.6865 3.35854 27.6865 1.3857L27.6865-18.0825L50.1677-16.4223L64.2126-8.43482L90.4612 5.62435Q92.5806 6.78743 94.4486 5.98479Q96.3167 5.18216 97.0634 3.68881Q97.9823 1.89976 97.4008-0.0415425Q96.8192-1.98284 95.0675-2.91331ZM20.6783-36.8313L26.5443-42.7577L31.4305-30.2191L27.8166-28.1623L25.6648-28.1623Z"/>
  </g>
  <g id="Bold-S" transform="matrix(1 0 0 1 2287.05 696)">
   <path d="M34.5703-58.4717Q38.3789-58.4717 41.0522-61.1572Q43.7256-63.8428 43.7256-67.627Q43.7256-71.4111 41.0522-74.0723Q38.3789-76.7334 34.5703-76.7334Q30.835-76.7334 28.1372-74.0723Q25.4395-71.4111 25.4395-67.627Q25.4395-63.8428 28.1372-61.1572Q30.835-58.4717 34.5703-58.4717ZM93.7012-3.22266L67.4805-17.334L52.3438-27.8809Q50.9033-28.9062 49.707-30.2734Q51.9287-32.0312 51.1963-34.9121L48.2178-46.9482Q47.3877-50.3174 44.6533-52.4292Q41.9189-54.541 38.4521-54.541L28.9795-54.541Q26.7334-54.541 25.0244-53.9185Q23.3154-53.2959 21.8262-51.8066L11.0596-41.0156Q9.98535-39.9414 9.80225-38.4033Q9.61914-36.8652 10.376-35.498L17.8467-22.3877L17.8467 0.805664Q17.8467 2.63672 19.1895 3.9917Q20.5322 5.34668 22.4121 5.34668Q24.292 5.34668 25.6348 3.9917Q26.9775 2.63672 26.9775 0.805664L26.9775-18.7012L49.5361-17.041L63.4521-9.13086L89.4043 4.76074Q91.3818 5.85938 93.1274 5.11475Q94.873 4.37012 95.5811 2.9541Q96.4355 1.29395 95.8862-0.524902Q95.3369-2.34375 93.7012-3.22266ZM19.9951-37.0117L26.1963-43.2861L31.25-30.3223L27.417-28.1494L25.0977-28.1494Z"/>
  </g>
  <g id="Semibold-S" transform="matrix(1 0 0 1 1990.86 696)">
   <path d="M34.1971-58.2673Q37.9168-58.2673 40.5235-60.8817Q43.1302-63.4962 43.1302-67.2004Q43.1302-70.8868 40.5235-73.4769Q37.9168-76.0669 34.1971-76.0669Q30.5595-76.0669 27.9284-73.4769Q25.2973-70.8868 25.2973-67.2004Q25.2973-63.4962 27.9284-60.8817Q30.5595-58.2673 34.1971-58.2673ZM92.7592-3.43594L66.7518-17.4406L51.7395-27.8986Q50.219-28.9773 48.9605-30.4512Q51.2622-32.1201 50.5298-34.9832L47.569-46.9216Q46.7567-50.2019 44.0935-52.2648Q41.4302-54.3277 38.0522-54.3277L28.6507-54.3277Q26.4579-54.3277 24.7934-53.7185Q23.1288-53.1093 21.684-51.6645L10.9974-40.9623Q9.97646-39.9414 9.80669-38.4655Q9.63691-36.9896 10.3493-35.6936L17.7845-22.6454L17.7845 0.405762Q17.7845 2.13906 19.065 3.43628Q20.3456 4.7335 22.1455 4.7335Q23.9276 4.7335 25.2082 3.43628Q26.4888 2.13906 26.4888 0.405762L26.4888-19.1277L49.1007-17.4676L62.9278-9.61074L88.6756 4.16533Q90.5554 5.21953 92.2166 4.51489Q93.8777 3.81025 94.5591 2.44756Q95.3691 0.87627 94.842-0.858154Q94.3149-2.59258 92.7592-3.43594ZM19.5241-37.1361L25.9563-43.6505L31.1256-30.3934L27.1415-28.1405L24.7066-28.1405Z"/>
  </g>
  <g id="Medium-S" transform="matrix(1 0 0 1 1694.55 696)">
   <path d="M33.9141-58.1123Q37.5664-58.1123 40.1226-60.6729Q42.6787-63.2334 42.6787-66.877Q42.6787-70.4893 40.1226-73.0254Q37.5664-75.5615 33.9141-75.5615Q30.3506-75.5615 27.77-73.0254Q25.1895-70.4893 25.1895-66.877Q25.1895-63.2334 27.77-60.6729Q30.3506-58.1123 33.9141-58.1123ZM92.0449-3.59766L66.1992-17.5215L51.2812-27.9121Q49.7002-29.0312 48.3945-30.5859Q50.7568-32.1875 50.0244-35.0371L47.0771-46.9014Q46.2783-50.1143 43.6689-52.1401Q41.0596-54.166 37.749-54.166L28.4014-54.166Q26.249-54.166 24.6182-53.5669Q22.9873-52.9678 21.5762-51.5566L10.9502-40.9219Q9.96973-39.9414 9.81006-38.5127Q9.65039-37.084 10.3291-35.8418L17.7373-22.8408L17.7373 0.102539Q17.7373 1.76172 18.9707 3.01514Q20.2041 4.26855 21.9434 4.26855Q23.6514 4.26855 24.8848 3.01514Q26.1182 1.76172 26.1182 0.102539L26.1182-19.4512L48.7705-17.791L62.5303-9.97461L88.123 3.71387Q89.9287 4.73438 91.5259 4.06006Q93.123 3.38574 93.7842 2.06348Q94.5605 0.55957 94.0503-1.11084Q93.54-2.78125 92.0449-3.59766ZM19.167-37.2305L25.7744-43.9268L31.0312-30.4473L26.9326-28.1338L24.4102-28.1338Z"/>
  </g>
  <g id="Regular-S" transform="matrix(1 0 0 1 1398.36 696)">
   <path d="M33.5449-57.9102Q37.1094-57.9102 39.5996-60.4004Q42.0898-62.8906 42.0898-66.4551Q42.0898-69.9707 39.5996-72.4365Q37.1094-74.9023 33.5449-74.9023Q30.0781-74.9023 27.5635-72.4365Q25.0488-69.9707 25.0488-66.4551Q25.0488-62.8906 27.5635-60.4004Q30.0781-57.9102 33.5449-57.9102ZM91.1133-3.80859L65.4785-17.627L50.6836-27.9297Q49.0234-29.1016 47.6562-30.7617Q50.0977-32.2754 49.3652-35.1074L46.4355-46.875Q45.6543-50 43.1152-51.9775Q40.5762-53.9551 37.3535-53.9551L28.0762-53.9551Q25.9766-53.9551 24.3896-53.3691Q22.8027-52.7832 21.4355-51.416L10.8887-40.8691Q9.96094-39.9414 9.81445-38.5742Q9.66797-37.207 10.3027-36.0352L17.6758-23.0957L17.6758-0.292969Q17.6758 1.26953 18.8477 2.46582Q20.0195 3.66211 21.6797 3.66211Q23.291 3.66211 24.4629 2.46582Q25.6348 1.26953 25.6348-0.292969L25.6348-19.873L48.3398-18.2129L62.0117-10.4492L87.4023 3.125Q89.1113 4.10156 90.625 3.4668Q92.1387 2.83203 92.7734 1.5625Q93.5059 0.146484 93.0176-1.44043Q92.5293-3.02734 91.1133-3.80859ZM18.7012-37.3535L25.5371-44.2871L30.9082-30.5176L26.6602-28.125L24.0234-28.125Z"/>
  </g>
  <g id="Light-S" transform="matrix(1 0 0 1 1102.91 696)">
   <path d="M32.8336-57.3502Q36.2617-57.3502 38.6838-59.7722Q41.1059-62.1943 41.1059-65.6377Q41.1059-69.0323 38.6838-71.43Q36.2617-73.8276 32.8336-73.8276Q29.4576-73.8276 27.0186-71.43Q24.5796-69.0323 24.5796-65.6377Q24.5796-62.1943 27.0186-59.7722Q29.4576-57.3502 32.8336-57.3502ZM88.6459-4.62596L63.7983-18.0509L49.4423-28.0357Q47.8277-29.1621 46.506-30.777Q48.8716-32.2299 48.1542-34.9864L45.3156-46.4058Q44.5646-49.44 42.1012-51.3494Q39.6378-53.2588 36.5209-53.2588L27.5162-53.2588Q25.4771-53.2588 23.9507-52.6956Q22.4243-52.1324 21.0724-50.7955L10.8584-40.5815Q9.94568-39.669 9.80682-38.3472Q9.66797-37.0255 10.2875-35.8988L17.4487-23.3378L17.4487-1.23138Q17.4487 0.300852 18.5828 1.45175Q19.7169 2.60264 21.3013 2.60264Q22.8823 2.60264 24.0163 1.45175Q25.1503 0.300852 25.1503-1.23138L25.1503-20.2059L47.1591-18.6216L60.4375-11.085L85.0561 2.09579Q86.7198 3.02684 88.188 2.41483Q89.6563 1.80283 90.2608 0.578562Q90.978-0.80719 90.5048-2.34108Q90.0317-3.87497 88.6459-4.62596ZM18.4288-37.1719L25.0526-43.8784L30.2574-30.5328L26.1454-28.2158L23.5845-28.2158Z"/>
  </g>
  <g id="Thin-S" transform="matrix(1 0 0 1 807.868 696)">
   <path d="M31.8928-56.6095Q35.1407-56.6095 37.4726-58.9415Q39.8046-61.2734 39.8046-64.5567Q39.8046-67.7912 37.4726-70.0987Q35.1407-72.4062 31.8928-72.4062Q28.6369-72.4062 26.298-70.0987Q23.9591-67.7912 23.9591-64.5567Q23.9591-61.2734 26.298-58.9415Q28.6369-56.6095 31.8928-56.6095ZM85.3827-5.70698L61.576-18.6116L47.8006-28.176Q46.2461-29.2421 44.9847-30.7972Q47.2501-32.1697 46.5525-34.8263L43.8343-45.7852Q43.1233-48.6994 40.76-50.5186Q38.3966-52.3378 35.4197-52.3378L26.7755-52.3378Q24.8165-52.3378 23.3702-51.8048Q21.9238-51.2717 20.5921-49.9748L10.8184-40.2011Q9.9255-39.3088 9.79673-38.0471Q9.66797-36.7853 10.2673-35.7186L17.1483-23.658L17.1483-2.47251Q17.1483-0.980303 18.2325 0.110552Q19.3166 1.20141 20.8008 1.20141Q22.3418 1.20141 23.4257 0.110552Q24.5096-0.980303 24.5096-2.47251L24.5096-20.6462L45.5974-19.1621L58.3555-11.9259L81.9529 0.734588Q83.5567 1.60542 84.965 1.02352Q86.3732 0.441619 86.9377-0.722774Q87.6347-2.0685 87.1815-3.53226Q86.7284-4.99602 85.3827-5.70698ZM18.0686-36.9318L24.4119-43.3379L29.3967-30.553L25.4647-28.3359L23.004-28.3359Z"/>
  </g>
  <g id="Ultralight-S" transform="matrix(1 0 0 1 512.014 696)">
   <path d="M31.411-56.2302Q34.5665-56.2302 36.8523-58.5159Q39.138-60.8017 39.138-64.003Q39.138-67.1555 36.8523-69.4168Q34.5665-71.6782 31.411-71.6782Q28.2166-71.6782 25.9289-69.4168Q23.6412-67.1555 23.6412-64.003Q23.6412-60.8017 25.9289-58.5159Q28.2166-56.2302 31.411-56.2302ZM83.7112-6.26068L60.4378-18.8988L46.9597-28.2478Q45.4361-29.2831 44.2055-30.8075Q46.4195-32.1388 45.7321-34.7443L43.0756-45.4674Q42.3851-48.32 40.073-50.0931Q37.7609-51.8661 34.8557-51.8661L26.3962-51.8661Q24.4781-51.8661 23.0728-51.3485Q21.6675-50.8308 20.3461-49.5544L10.7979-40.0063Q9.91516-39.1243 9.79156-37.8933Q9.66797-36.6623 10.257-35.6262L16.9945-23.822L16.9945-3.10822Q16.9945-1.63651 18.0531-0.576401Q19.1116 0.483704 20.5444 0.483704Q22.065 0.483704 23.1232-0.576401Q24.1814-1.63651 24.1814-3.10822L24.1814-20.8717L44.7975-19.4389L57.2891-12.3566L80.3635 0.037384Q81.9366 0.87738 83.3141 0.310898Q84.6916-0.255585 85.2356-1.38931Q85.9222-2.71454 85.4794-4.14238Q85.0365-5.57022 83.7112-6.26068ZM17.8841-36.8088L24.0837-43.0611L28.9558-30.5634L25.116-28.3974L22.7066-28.3974Z"/>
  </g>
 </g>
</svg>
