<?xml version="1.0" encoding="UTF-8"?>
<!--Generator: Apple Native CoreSVG 175.5-->
<!DOCTYPE svg
PUBLIC "-//W3C//DTD SVG 1.1//EN"
       "http://www.w3.org/Graphics/SVG/1.1/DTD/svg11.dtd">
<svg version="1.1" xmlns="http://www.w3.org/2000/svg" xmlns:xlink="http://www.w3.org/1999/xlink" width="3300" height="2200">
 <!--glyph: "uni101492.medium", point size: 100.0, font version: "18.0d9e1", template writer version: "84"-->
 <g id="Notes">
  <rect height="2200" id="artboard" style="fill:white;opacity:1" width="3300" x="0" y="0"/>
  <line style="fill:none;stroke:black;opacity:1;stroke-width:0.5;" x1="263" x2="3036" y1="292" y2="292"/>
  <text style="stroke:none;fill:black;font-family:sans-serif;font-size:13;font-weight:bold;" transform="matrix(1 0 0 1 263 322)">Weight/Scale Variations</text>
  <text style="stroke:none;fill:black;font-family:sans-serif;font-size:13;text-anchor:middle;" transform="matrix(1 0 0 1 559.711 322)">Ultralight</text>
  <text style="stroke:none;fill:black;font-family:sans-serif;font-size:13;text-anchor:middle;" transform="matrix(1 0 0 1 856.422 322)">Thin</text>
  <text style="stroke:none;fill:black;font-family:sans-serif;font-size:13;text-anchor:middle;" transform="matrix(1 0 0 1 1153.13 322)">Light</text>
  <text style="stroke:none;fill:black;font-family:sans-serif;font-size:13;text-anchor:middle;" transform="matrix(1 0 0 1 1449.84 322)">Regular</text>
  <text style="stroke:none;fill:black;font-family:sans-serif;font-size:13;text-anchor:middle;" transform="matrix(1 0 0 1 1746.56 322)">Medium</text>
  <text style="stroke:none;fill:black;font-family:sans-serif;font-size:13;text-anchor:middle;" transform="matrix(1 0 0 1 2043.27 322)">Semibold</text>
  <text style="stroke:none;fill:black;font-family:sans-serif;font-size:13;text-anchor:middle;" transform="matrix(1 0 0 1 2339.98 322)">Bold</text>
  <text style="stroke:none;fill:black;font-family:sans-serif;font-size:13;text-anchor:middle;" transform="matrix(1 0 0 1 2636.69 322)">Heavy</text>
  <text style="stroke:none;fill:black;font-family:sans-serif;font-size:13;text-anchor:middle;" transform="matrix(1 0 0 1 2933.4 322)">Black</text>
  <line style="fill:none;stroke:black;opacity:1;stroke-width:0.5;" x1="263" x2="3036" y1="1903" y2="1903"/>
  <g transform="matrix(1 0 0 1 263 1933)">
   <path d="M9.24805 0.830078Q10.8691 0.830078 12.2949 0.214844Q13.7207-0.400391 14.8096-1.49414Q15.8984-2.58789 16.5186-4.01367Q17.1387-5.43945 17.1387-7.05078Q17.1387-8.66211 16.5186-10.0879Q15.8984-11.5137 14.8047-12.6074Q13.7109-13.7012 12.2852-14.3164Q10.8594-14.9316 9.23828-14.9316Q7.62695-14.9316 6.20117-14.3164Q4.77539-13.7012 3.69141-12.6074Q2.60742-11.5137 1.9873-10.0879Q1.36719-8.66211 1.36719-7.05078Q1.36719-5.43945 1.9873-4.01367Q2.60742-2.58789 3.69629-1.49414Q4.78516-0.400391 6.21094 0.214844Q7.63672 0.830078 9.24805 0.830078ZM9.24805-0.654297Q7.91992-0.654297 6.7627-1.14746Q5.60547-1.64062 4.73145-2.51953Q3.85742-3.39844 3.36426-4.56055Q2.87109-5.72266 2.87109-7.05078Q2.87109-8.37891 3.35938-9.54102Q3.84766-10.7031 4.72168-11.582Q5.5957-12.4609 6.75293-12.9541Q7.91016-13.4473 9.23828-13.4473Q10.5762-13.4473 11.7383-12.9541Q12.9004-12.4609 13.7793-11.582Q14.6582-10.7031 15.1514-9.54102Q15.6445-8.37891 15.6445-7.05078Q15.6445-5.72266 15.1514-4.56055Q14.6582-3.39844 13.7793-2.51953Q12.9004-1.64062 11.7432-1.14746Q10.5859-0.654297 9.24805-0.654297ZM5.6543-7.05078Q5.6543-6.72852 5.85938-6.52832Q6.06445-6.32812 6.40625-6.32812L8.51562-6.32812L8.51562-4.20898Q8.51562-3.88672 8.71094-3.67676Q8.90625-3.4668 9.23828-3.4668Q9.56055-3.4668 9.77051-3.67676Q9.98047-3.88672 9.98047-4.20898L9.98047-6.32812L12.0898-6.32812Q12.4219-6.32812 12.627-6.52832Q12.832-6.72852 12.832-7.05078Q12.832-7.38281 12.627-7.58789Q12.4219-7.79297 12.0898-7.79297L9.98047-7.79297L9.98047-9.90234Q9.98047-10.2344 9.77051-10.4443Q9.56055-10.6543 9.23828-10.6543Q8.90625-10.6543 8.71094-10.4443Q8.51562-10.2344 8.51562-9.90234L8.51562-7.79297L6.40625-7.79297Q6.06445-7.79297 5.85938-7.58789Q5.6543-7.38281 5.6543-7.05078Z"/>
  </g>
  <g transform="matrix(1 0 0 1 281.867 1933)">
   <path d="M11.709 2.91016Q13.75 2.91016 15.5518 2.12891Q17.3535 1.34766 18.7305-0.0292969Q20.1074-1.40625 20.8887-3.20801Q21.6699-5.00977 21.6699-7.05078Q21.6699-9.0918 20.8887-10.8936Q20.1074-12.6953 18.7305-14.0723Q17.3535-15.4492 15.5469-16.2305Q13.7402-17.0117 11.6992-17.0117Q9.6582-17.0117 7.85645-16.2305Q6.05469-15.4492 4.68262-14.0723Q3.31055-12.6953 2.5293-10.8936Q1.74805-9.0918 1.74805-7.05078Q1.74805-5.00977 2.5293-3.20801Q3.31055-1.40625 4.6875-0.0292969Q6.06445 1.34766 7.86621 2.12891Q9.66797 2.91016 11.709 2.91016ZM11.709 1.25Q9.98047 1.25 8.47656 0.605469Q6.97266-0.0390625 5.83496-1.17676Q4.69727-2.31445 4.05762-3.81836Q3.41797-5.32227 3.41797-7.05078Q3.41797-8.7793 4.05762-10.2832Q4.69727-11.7871 5.83008-12.9297Q6.96289-14.0723 8.4668-14.7119Q9.9707-15.3516 11.6992-15.3516Q13.4277-15.3516 14.9365-14.7119Q16.4453-14.0723 17.583-12.9297Q18.7207-11.7871 19.3652-10.2832Q20.0098-8.7793 20.0098-7.05078Q20.0098-5.32227 19.3701-3.81836Q18.7305-2.31445 17.5879-1.17676Q16.4453-0.0390625 14.9414 0.605469Q13.4375 1.25 11.709 1.25ZM7.17773-7.05078Q7.17773-6.69922 7.41211-6.47461Q7.64648-6.25 8.01758-6.25L10.8887-6.25L10.8887-3.36914Q10.8887-2.99805 11.1133-2.76855Q11.3379-2.53906 11.6895-2.53906Q12.0605-2.53906 12.29-2.76855Q12.5195-2.99805 12.5195-3.36914L12.5195-6.25L15.4004-6.25Q15.7715-6.25 16.001-6.47461Q16.2305-6.69922 16.2305-7.05078Q16.2305-7.42188 16.001-7.65137Q15.7715-7.88086 15.4004-7.88086L12.5195-7.88086L12.5195-10.752Q12.5195-11.1328 12.29-11.3623Q12.0605-11.5918 11.6895-11.5918Q11.3379-11.5918 11.1133-11.3574Q10.8887-11.123 10.8887-10.752L10.8887-7.88086L8.01758-7.88086Q7.63672-7.88086 7.40723-7.65137Q7.17773-7.42188 7.17773-7.05078Z"/>
  </g>
  <g transform="matrix(1 0 0 1 305.646 1933)">
   <path d="M14.9707 5.66406Q17.0605 5.66406 18.96 5.01465Q20.8594 4.36523 22.4512 3.19336Q24.043 2.02148 25.2197 0.429688Q26.3965-1.16211 27.0459-3.06641Q27.6953-4.9707 27.6953-7.05078Q27.6953-9.14062 27.0459-11.04Q26.3965-12.9395 25.2197-14.5312Q24.043-16.123 22.4512-17.2998Q20.8594-18.4766 18.9551-19.126Q17.0508-19.7754 14.9609-19.7754Q12.8711-19.7754 10.9717-19.126Q9.07227-18.4766 7.48535-17.2998Q5.89844-16.123 4.72168-14.5312Q3.54492-12.9395 2.90039-11.04Q2.25586-9.14062 2.25586-7.05078Q2.25586-4.9707 2.90527-3.06641Q3.55469-1.16211 4.72656 0.429688Q5.89844 2.02148 7.49023 3.19336Q9.08203 4.36523 10.9814 5.01465Q12.8809 5.66406 14.9707 5.66406ZM14.9707 3.84766Q13.1641 3.84766 11.5283 3.2959Q9.89258 2.74414 8.53516 1.74805Q7.17773 0.751953 6.17676-0.610352Q5.17578-1.97266 4.62891-3.6084Q4.08203-5.24414 4.08203-7.05078Q4.08203-8.86719 4.62891-10.5029Q5.17578-12.1387 6.17188-13.501Q7.16797-14.8633 8.52539-15.8594Q9.88281-16.8555 11.5186-17.4023Q13.1543-17.9492 14.9609-17.9492Q16.7773-17.9492 18.4131-17.4023Q20.0488-16.8555 21.4111-15.8594Q22.7734-14.8633 23.7744-13.501Q24.7754-12.1387 25.3223-10.5029Q25.8691-8.86719 25.8691-7.05078Q25.8691-5.24414 25.3223-3.6084Q24.7754-1.97266 23.7793-0.610352Q22.7832 0.751953 21.4209 1.74805Q20.0586 2.74414 18.4229 3.2959Q16.7871 3.84766 14.9707 3.84766ZM9.19922-7.05078Q9.19922-6.66992 9.45801-6.4209Q9.7168-6.17188 10.1172-6.17188L14.0625-6.17188L14.0625-2.2168Q14.0625-1.81641 14.3115-1.55762Q14.5605-1.29883 14.9512-1.29883Q15.3516-1.29883 15.6104-1.55273Q15.8691-1.80664 15.8691-2.2168L15.8691-6.17188L19.8242-6.17188Q20.2246-6.17188 20.4785-6.4209Q20.7324-6.66992 20.7324-7.05078Q20.7324-7.46094 20.4785-7.71484Q20.2246-7.96875 19.8242-7.96875L15.8691-7.96875L15.8691-11.9141Q15.8691-12.3242 15.6104-12.583Q15.3516-12.8418 14.9512-12.8418Q14.5605-12.8418 14.3115-12.583Q14.0625-12.3242 14.0625-11.9141L14.0625-7.96875L10.1172-7.96875Q9.70703-7.96875 9.45312-7.71484Q9.19922-7.46094 9.19922-7.05078Z"/>
  </g>
  <text style="stroke:none;fill:black;font-family:sans-serif;font-size:13;font-weight:bold;" transform="matrix(1 0 0 1 263 1953)">Design Variations</text>
  <text style="stroke:none;fill:black;font-family:sans-serif;font-size:13;" transform="matrix(1 0 0 1 263 1971)">Symbols are supported in up to nine weights and three scales.</text>
  <text style="stroke:none;fill:black;font-family:sans-serif;font-size:13;" transform="matrix(1 0 0 1 263 1989)">For optimal layout with text and other symbols, vertically align</text>
  <text style="stroke:none;fill:black;font-family:sans-serif;font-size:13;" transform="matrix(1 0 0 1 263 2007)">symbols with the adjacent text.</text>
  <line style="fill:none;stroke:#00AEEF;stroke-width:0.5;opacity:1.0;" x1="776" x2="776" y1="1919" y2="1933"/>
  <g transform="matrix(1 0 0 1 776 1933)">
   <path d="M3.31055 0.15625Q3.70117 0.15625 3.91602-0.00976562Q4.13086-0.175781 4.26758-0.585938L5.52734-4.0332L11.2891-4.0332L12.5488-0.585938Q12.6855-0.175781 12.9004-0.00976562Q13.1152 0.15625 13.4961 0.15625Q13.8867 0.15625 14.1162-0.0585938Q14.3457-0.273438 14.3457-0.644531Q14.3457-0.869141 14.2383-1.17188L9.6582-13.3691Q9.48242-13.8184 9.17969-14.043Q8.87695-14.2676 8.4082-14.2676Q7.5-14.2676 7.17773-13.3789L2.59766-1.16211Q2.49023-0.859375 2.49023-0.634766Q2.49023-0.263672 2.70996-0.0537109Q2.92969 0.15625 3.31055 0.15625ZM6.00586-5.51758L8.37891-12.0898L8.42773-12.0898L10.8008-5.51758Z"/>
  </g>
  <line style="fill:none;stroke:#00AEEF;stroke-width:0.5;opacity:1.0;" x1="793.197" x2="793.197" y1="1919" y2="1933"/>
  <text style="stroke:none;fill:black;font-family:sans-serif;font-size:13;font-weight:bold;" transform="matrix(1 0 0 1 776 1953)">Margins</text>
  <text style="stroke:none;fill:black;font-family:sans-serif;font-size:13;" transform="matrix(1 0 0 1 776 1971)">Leading and trailing margins on the left and right side of each symbol</text>
  <text style="stroke:none;fill:black;font-family:sans-serif;font-size:13;" transform="matrix(1 0 0 1 776 1989)">can be adjusted by modifying the x-location of the margin guidelines.</text>
  <text style="stroke:none;fill:black;font-family:sans-serif;font-size:13;" transform="matrix(1 0 0 1 776 2007)">Modifications are automatically applied proportionally to all</text>
  <text style="stroke:none;fill:black;font-family:sans-serif;font-size:13;" transform="matrix(1 0 0 1 776 2025)">scales and weights.</text>
  <g transform="matrix(1 0 0 1 1289 1933)">
   <path d="M2.8418 1.86523L4.54102 3.57422Q5.18555 4.22852 5.90332 4.17969Q6.62109 4.13086 7.31445 3.35938L18.0078-8.42773L17.041-9.4043L6.42578 2.27539Q6.16211 2.57812 5.89355 2.61719Q5.625 2.65625 5.27344 2.30469L4.10156 1.14258Q3.75 0.791016 3.79395 0.522461Q3.83789 0.253906 4.14062-0.0195312L15.6152-10.8203L14.6387-11.7871L3.04688-0.898438Q2.30469-0.214844 2.25098 0.498047Q2.19727 1.21094 2.8418 1.86523ZM9.25781-16.3281Q8.94531-16.0254 8.90625-15.6348Q8.86719-15.2441 9.04297-14.9512Q9.21875-14.6777 9.55566-14.541Q9.89258-14.4043 10.3809-14.5215Q11.4746-14.7754 12.5977-14.7314Q13.7207-14.6875 14.7949-13.9844L14.209-12.5293Q13.9551-11.9043 14.0674-11.4404Q14.1797-10.9766 14.5801-10.5664L16.875-8.25195Q17.2363-7.88086 17.5781-7.82227Q17.9199-7.76367 18.3398-7.8418L19.4043-8.03711L20.0684-7.36328L20.0293-6.80664Q20-6.43555 20.1221-6.12305Q20.2441-5.81055 20.6055-5.44922L21.3672-4.70703Q21.7285-4.3457 22.1533-4.33105Q22.5781-4.31641 22.9297-4.66797L25.8398-7.58789Q26.1914-7.93945 26.1816-8.35449Q26.1719-8.76953 25.8105-9.13086L25.0391-9.89258Q24.6875-10.2539 24.3799-10.3857Q24.0723-10.5176 23.7109-10.4883L23.1348-10.4395L22.4902-11.0742L22.7344-12.1973Q22.832-12.6172 22.6953-12.9834Q22.5586-13.3496 22.1191-13.7891L19.9219-15.9766Q18.6719-17.2168 17.2607-17.8369Q15.8496-18.457 14.4189-18.4814Q12.9883-18.5059 11.665-17.959Q10.3418-17.4121 9.25781-16.3281ZM10.752-15.957Q11.6602-16.6211 12.7002-16.9043Q13.7402-17.1875 14.8047-17.085Q15.8691-16.9824 16.8701-16.5137Q17.8711-16.0449 18.7012-15.2051L21.1328-12.793Q21.3086-12.6172 21.3525-12.4512Q21.3965-12.2852 21.3379-12.0312L21.0156-10.5469L22.5195-9.0625L23.5059-9.12109Q23.6914-9.13086 23.7891-9.09668Q23.8867-9.0625 24.0332-8.91602L24.6094-8.33984L22.168-5.89844L21.5918-6.47461Q21.4453-6.62109 21.4062-6.71875Q21.3672-6.81641 21.377-7.01172L21.4453-7.98828L19.9512-9.47266L18.4277-9.21875Q18.1836-9.16992 18.042-9.2041Q17.9004-9.23828 17.7148-9.41406L15.7129-11.416Q15.5176-11.5918 15.4932-11.7529Q15.4688-11.9141 15.5859-12.1875L16.4648-14.2773Q15.293-15.3711 13.8281-15.791Q12.3633-16.2109 10.8398-15.7617Q10.7227-15.7324 10.6885-15.8057Q10.6543-15.8789 10.752-15.957Z"/>
  </g>
  <text style="stroke:none;fill:black;font-family:sans-serif;font-size:13;font-weight:bold;" transform="matrix(1 0 0 1 1289 1953)">Exporting</text>
  <text style="stroke:none;fill:black;font-family:sans-serif;font-size:13;" transform="matrix(1 0 0 1 1289 1971)">Symbols should be outlined when exporting to ensure the</text>
  <text style="stroke:none;fill:black;font-family:sans-serif;font-size:13;" transform="matrix(1 0 0 1 1289 1989)">design is preserved when submitting to Xcode.</text>
  <text id="template-version" style="stroke:none;fill:black;font-family:sans-serif;font-size:13;text-anchor:end;" transform="matrix(1 0 0 1 3036 1933)">Template v.2.0</text>
  <text style="stroke:none;fill:black;font-family:sans-serif;font-size:13;text-anchor:end;" transform="matrix(1 0 0 1 3036 1951)">Requires Xcode 12 or greater</text>
  <text id="descriptive-name" style="stroke:none;fill:black;font-family:sans-serif;font-size:13;text-anchor:end;" transform="matrix(1 0 0 1 3036 1969)">Generated from figure.australian.football</text>
  <text style="stroke:none;fill:black;font-family:sans-serif;font-size:13;text-anchor:end;" transform="matrix(1 0 0 1 3036 1987)">Typeset at 100 points</text>
  <text style="stroke:none;fill:black;font-family:sans-serif;font-size:13;" transform="matrix(1 0 0 1 263 726)">Small</text>
  <text style="stroke:none;fill:black;font-family:sans-serif;font-size:13;" transform="matrix(1 0 0 1 263 1156)">Medium</text>
  <text style="stroke:none;fill:black;font-family:sans-serif;font-size:13;" transform="matrix(1 0 0 1 263 1586)">Large</text>
 </g>
 <g id="Guides">
  <g id="H-reference" style="fill:#27AAE1;stroke:none;" transform="matrix(1 0 0 1 339 696)">
   <path d="M0.993347 0L3.6377 0L29.3282-67.1326L30.0301-67.1326L30.0301-70.459L28.1227-70.459ZM11.6882-24.4797L46.9818-24.4797L46.2311-26.7288L12.4382-26.7288ZM55.1193 0L57.7637 0L30.6381-70.459L29.4327-70.459L29.4327-67.1326Z"/>
  </g>
  <line id="Baseline-S" style="fill:none;stroke:#27AAE1;opacity:1;stroke-width:0.5;" x1="263" x2="3036" y1="696" y2="696"/>
  <line id="Capline-S" style="fill:none;stroke:#27AAE1;opacity:1;stroke-width:0.5;" x1="263" x2="3036" y1="625.541" y2="625.541"/>
  <g id="H-reference" style="fill:#27AAE1;stroke:none;" transform="matrix(1 0 0 1 339 1126)">
   <path d="M0.993347 0L3.6377 0L29.3282-67.1326L30.0301-67.1326L30.0301-70.459L28.1227-70.459ZM11.6882-24.4797L46.9818-24.4797L46.2311-26.7288L12.4382-26.7288ZM55.1193 0L57.7637 0L30.6381-70.459L29.4327-70.459L29.4327-67.1326Z"/>
  </g>
  <line id="Baseline-M" style="fill:none;stroke:#27AAE1;opacity:1;stroke-width:0.5;" x1="263" x2="3036" y1="1126" y2="1126"/>
  <line id="Capline-M" style="fill:none;stroke:#27AAE1;opacity:1;stroke-width:0.5;" x1="263" x2="3036" y1="1055.54" y2="1055.54"/>
  <g id="H-reference" style="fill:#27AAE1;stroke:none;" transform="matrix(1 0 0 1 339 1556)">
   <path d="M0.993347 0L3.6377 0L29.3282-67.1326L30.0301-67.1326L30.0301-70.459L28.1227-70.459ZM11.6882-24.4797L46.9818-24.4797L46.2311-26.7288L12.4382-26.7288ZM55.1193 0L57.7637 0L30.6381-70.459L29.4327-70.459L29.4327-67.1326Z"/>
  </g>
  <line id="Baseline-L" style="fill:none;stroke:#27AAE1;opacity:1;stroke-width:0.5;" x1="263" x2="3036" y1="1556" y2="1556"/>
  <line id="Capline-L" style="fill:none;stroke:#27AAE1;opacity:1;stroke-width:0.5;" x1="263" x2="3036" y1="1485.54" y2="1485.54"/>
  <line id="left-margin" style="fill:none;stroke:#00AEEF;stroke-width:0.5;opacity:1.0;" x1="1383.89" x2="1383.89" y1="1030.79" y2="1150.12"/>
  <line id="right-margin" style="fill:none;stroke:#00AEEF;stroke-width:0.5;opacity:1.0;" x1="1515.8" x2="1515.8" y1="1030.79" y2="1150.12"/>
 </g>
 <g id="Symbols">
  <g id="Black-L" transform="matrix(1 0 0 1 2843.71 1556)">
   <path d="M115.624-85.6197Q122.011-85.6197 126.562-90.1812Q131.113-94.7427 131.113-101.109Q131.113-107.553 126.562-112.074Q122.011-116.596 115.624-116.596Q109.201-116.596 104.669-112.074Q100.137-107.553 100.137-101.109Q100.137-94.7427 104.669-90.1812Q109.201-85.6197 115.624-85.6197ZM43.9851-15.2654L81.933-15.2654L116.975-10.3306Q127.312-8.84904 134.167-13.3825Q141.022-17.916 141.022-27.9248L141.022-50.4086Q141.022-50.8623 141.354-50.9972Q141.687-51.1321 142.037-50.7819L147.249-45.4896L147.249-23.3921Q147.249-20.0773 149.665-17.6714Q152.082-15.2654 155.316-15.2654Q158.631-15.2654 160.967-17.6714Q163.303-20.0773 163.303-23.3921L163.303-48.8836Q163.303-52.28 160.887-54.5933L144.219-71.1218Q140.335-74.9475 135.448-77.0608Q130.561-79.1742 125.092-79.1742L59.8495-79.1742Q56.5359-79.1742 54.1598-76.7974Q51.7836-74.4207 51.7836-71.1655Q51.7836-67.8496 54.13-65.4844Q56.4763-63.1193 59.8495-63.1193L110.009-63.1193Q111.105-63.1193 111.707-62.5247Q112.309-61.9301 112.309-60.8562L112.309-31.3995L43.9851-31.3995Q40.5912-31.3995 38.215-29.0636Q35.8389-26.7277 35.8389-23.3921Q35.8389-20.0773 38.2254-17.6714Q40.612-15.2654 43.9851-15.2654ZM127.502 42.8666Q129.78 45.2032 133.094 45.2032Q136.408 45.2032 138.687 42.8666Q141.08 40.6093 141.022 37.2952Q140.963 33.981 138.687 31.6237L117.427 10.0658L123.911-2.47635Q121.99-2.39474 119.977-2.47516Q117.964-2.55558 115.919-2.85525L104.838-4.3732L99.9944 8.89038Q98.256 13.6803 101.891 17.3155ZM23.1737-44.8187Q27.6988-40.3132 32.3529-38.8609Q37.007-37.4085 40.8283-38.1273Q44.6496-38.8461 46.7085-40.7673Q49.6872-43.9057 49.2059-50.3592Q48.7246-56.8127 41.9565-63.66Q35.1081-70.5072 28.5747-70.9897Q22.0414-71.4723 19.0419-68.3535Q16.983-66.3543 16.3032-62.5622Q15.6235-58.77 17.1062-54.1263Q18.589-49.4826 23.1737-44.8187Z"/>
  </g>
  <g id="Heavy-L" transform="matrix(1 0 0 1 2548.2 1556)">
   <path d="M114.083-84.9987Q120.31-84.9987 124.72-89.4233Q129.129-93.848 129.129-100.045Q129.129-106.312 124.72-110.699Q120.31-115.086 114.083-115.086Q107.847-115.086 103.444-110.699Q99.0418-106.312 99.0418-100.045Q99.0418-93.848 103.444-89.4233Q107.847-84.9987 114.083-84.9987ZM43.3613-15.9337L80.8392-15.9337L115.466-11.053Q125.584-9.6078 132.248-14.0158Q138.911-18.4239 138.911-28.1636L138.911-50.6708Q138.911-51.2073 139.324-51.3744Q139.737-51.5416 140.152-51.1269L145.576-45.6219L145.576-23.6849Q145.576-20.5212 147.885-18.2275Q150.194-15.9337 153.277-15.9337Q156.441-15.9337 158.669-18.2275Q160.898-20.5212 160.898-23.6849L160.898-48.8604Q160.898-52.11 158.592-54.2998L142.132-70.6341Q138.349-74.3733 133.571-76.4411Q128.793-78.5089 123.442-78.5089L59.0222-78.5089Q55.8641-78.5089 53.5955-76.2374Q51.3269-73.966 51.3269-70.8527Q51.3269-67.6834 53.5704-65.4326Q55.8139-63.1819 59.0222-63.1819L108.544-63.1819Q109.718-63.1819 110.392-62.4975Q111.066-61.813 111.066-60.6745L111.066-31.3356L43.3613-31.3356Q40.1229-31.3356 37.8543-29.1072Q35.5857-26.8788 35.5857-23.6849Q35.5857-20.5212 37.8694-18.2275Q40.1531-15.9337 43.3613-15.9337ZM125.99 41.5352Q128.177 43.7664 131.338 43.7664Q134.499 43.7664 136.685 41.5352Q138.956 39.3787 138.911 36.2179Q138.866 33.0571 136.685 30.7957L115.55 9.38022L122.26-3.59471Q120.398-3.50873 118.438-3.58915Q116.478-3.66957 114.464-3.95545L103.891-5.40944L98.8999 8.27815Q97.2349 12.8298 100.715 16.3095ZM23.0049-45.038Q27.4208-40.6467 31.9495-39.2239Q36.4781-37.801 40.1831-38.4878Q43.888-39.1746 45.8691-41.0363Q48.7381-44.0605 48.2612-50.3246Q47.7843-56.5886 41.185-63.2627Q34.5053-69.9368 28.1636-70.4193Q21.8219-70.9019 18.9228-67.9023Q16.9416-65.9714 16.2894-62.2887Q15.6373-58.6061 17.088-54.0925Q18.5388-49.579 23.0049-45.038Z"/>
  </g>
  <g id="Bold-L" transform="matrix(1 0 0 1 2253.06 1556)">
   <path d="M112.05-84.1781Q118.078-84.1781 122.315-88.4337Q126.551-92.6893 126.551-98.6791Q126.551-104.723 122.315-108.945Q118.078-113.167 112.05-113.167Q106.045-113.167 101.804-108.945Q97.5627-104.723 97.5627-98.6791Q97.5627-92.6893 101.804-88.4337Q106.045-84.1781 112.05-84.1781ZM42.5779-16.7188L79.4123-16.7188L113.464-11.9145Q123.306-10.5155 129.735-14.7698Q136.164-19.0241 136.164-28.4334L136.164-50.8892Q136.164-51.5182 136.666-51.7201Q137.168-51.922 137.652-51.4378L143.293-45.7163L143.293-24.0313Q143.293-21.0445 145.475-18.8817Q147.657-16.7188 150.563-16.7188Q153.55-16.7188 155.651-18.8817Q157.753-21.0445 157.753-24.0313L157.753-48.7701Q157.753-51.8502 155.577-53.8939L139.401-69.9601Q135.741-73.5917 131.101-75.6019Q126.461-77.6121 121.257-77.6121L57.9628-77.6121Q54.9894-77.6121 52.8478-75.4638Q50.7062-73.3155 50.7062-70.3716Q50.7062-67.3717 52.8267-65.2556Q54.9471-63.1395 57.9628-63.1395L106.612-63.1395Q107.871-63.1395 108.622-62.3586Q109.373-61.5776 109.373-60.3696L109.373-31.2586L42.5779-31.2586Q39.524-31.2586 37.3824-29.1573Q35.2409-27.0559 35.2409-24.0313Q35.2409-21.0445 37.4015-18.8817Q39.5621-16.7188 42.5779-16.7188ZM123.952 39.8236Q126.03 41.9317 129.011 41.9317Q131.991 41.9317 134.069 39.8236Q136.193 37.7827 136.164 34.8027Q136.135 31.8227 134.069 29.6768L113.14 8.49014L120.096-4.9555Q118.304-4.86196 116.405-4.94238Q114.507-5.0228 112.532-5.29326L102.559-6.67034L97.4133 7.47284Q95.8331 11.7473 99.1281 15.0422ZM22.7973-45.2325Q27.075-40.9796 31.45-39.5951Q35.8249-38.2106 39.3876-38.8589Q42.9503-39.5073 44.8391-41.2998Q47.5774-44.1856 47.1081-50.219Q46.6388-56.2523 40.2469-62.7113Q33.7748-69.1703 27.6676-69.6528Q21.5604-70.1353 18.7842-67.2743Q16.8954-65.428 16.274-61.8798Q15.6527-58.3316 17.065-53.9757Q18.4773-49.6198 22.7973-45.2325Z"/>
  </g>
  <g id="Semibold-L" transform="matrix(1 0 0 1 1957.43 1556)">
   <path d="M110.649-83.6125Q116.539-83.6125 120.657-87.7515Q124.774-91.8904 124.774-97.7372Q124.774-103.627 120.657-107.735Q116.539-111.843 110.649-111.843Q104.802-111.843 100.673-107.735Q96.543-103.627 96.543-97.7372Q96.543-91.8904 100.673-87.7515Q104.802-83.6125 110.649-83.6125ZM42.0377-17.26L78.4286-17.26L112.084-12.5085Q121.736-11.1412 128.003-15.2895Q134.271-19.4379 134.271-28.6194L134.271-51.0398Q134.271-51.7326 134.834-51.9584Q135.397-52.1843 135.928-51.6521L141.719-45.7814L141.719-24.27Q141.719-21.4053 143.813-19.3326Q145.908-17.26 148.692-17.26Q151.556-17.26 153.57-19.3326Q155.584-21.4053 155.584-24.27L155.584-48.7079Q155.584-51.6711 153.499-53.6141L137.519-69.4954Q133.943-73.0529 129.398-75.0233Q124.854-76.9938 119.75-76.9938L57.2326-76.9938Q54.3864-76.9938 52.3324-74.9304Q50.2784-72.8671 50.2784-70.0399Q50.2784-67.1568 52.314-65.1335Q54.3495-63.1103 57.2326-63.1103L105.279-63.1103Q106.597-63.1103 107.401-62.2628Q108.205-61.4154 108.205-60.1594L108.205-31.2056L42.0377-31.2056Q39.1112-31.2056 37.0572-29.1918Q35.0031-27.178 35.0031-24.27Q35.0031-21.4053 37.0789-19.3326Q39.1547-17.26 42.0377-17.26ZM122.546 38.6437Q124.551 40.6668 127.406 40.6668Q130.262 40.6668 132.266 38.6437Q134.289 36.6823 134.271 33.8271Q134.252 30.9718 132.266 28.9054L111.479 7.87652L118.605-5.89361Q116.86-5.79487 115.004-5.87529Q113.148-5.95571 111.2-6.21554L101.641-7.5396L96.3884 6.91767Q94.8666 11.0011 98.0344 14.1686ZM22.6542-45.3666Q26.8367-41.2091 31.1056-39.851Q35.3746-38.493 38.8393-39.1148Q42.3039-39.7366 44.129-41.4814Q46.7772-44.2718 46.3132-50.1461Q45.8491-56.0205 39.6002-62.3312Q33.2712-68.6418 27.3256-69.1244Q21.38-69.6069 18.6886-66.8414Q16.8635-65.0534 16.2634-61.5979Q15.6633-58.1424 17.0491-53.8952Q18.4349-49.648 22.6542-45.3666Z"/>
  </g>
  <g id="Medium-L" transform="matrix(1 0 0 1 1661.54 1556)">
   <path d="M109.587-83.1835Q115.372-83.1835 119.399-87.2341Q123.426-91.2847 123.426-97.0231Q123.426-102.797 119.399-106.818Q115.372-110.84 109.587-110.84Q103.86-110.84 99.8152-106.818Q95.7698-102.797 95.7698-97.0231Q95.7698-91.2847 99.8152-87.2341Q103.86-83.1835 109.587-83.1835ZM41.6282-17.6704L77.6827-17.6704L111.038-12.9589Q120.545-11.6156 126.69-15.6836Q132.835-19.7516 132.835-28.7604L132.835-51.154Q132.835-51.8951 133.444-52.1391Q134.053-52.3832 134.622-51.8147L140.526-45.8307L140.526-24.4511Q140.526-21.6788 142.553-19.6746Q144.581-17.6704 147.273-17.6704Q150.045-17.6704 151.993-19.6746Q153.94-21.6788 153.94-24.4511L153.94-48.6608Q153.94-51.5353 151.923-53.4019L136.091-69.1431Q132.579-72.6443 128.107-74.5847Q123.635-76.525 118.608-76.525L56.6788-76.525Q53.9292-76.525 51.9416-74.526Q49.9539-72.5271 49.9539-69.7884Q49.9539-66.9939 51.9252-65.041Q53.8965-63.0881 56.6788-63.0881L104.269-63.0881Q105.631-63.0881 106.475-62.1902Q107.32-61.2924 107.32-60.0001L107.32-31.1654L41.6282-31.1654Q38.7982-31.1654 36.8105-29.218Q34.8229-27.2706 34.8229-24.4511Q34.8229-21.6788 36.8344-19.6746Q38.8458-17.6704 41.6282-17.6704ZM121.48 37.749Q123.429 39.7078 126.19 39.7078Q128.95 39.7078 130.899 37.749Q132.845 35.848 132.835 33.0873Q132.824 30.3266 130.899 28.3206L110.219 7.41126L117.474-6.60493Q115.766-6.50224 113.942-6.58266Q112.118-6.66308 110.19-6.91485L100.944-8.19871L95.6113 6.49671Q94.1338 10.4353 97.2051 13.5061ZM22.5458-45.4683Q26.6559-41.3831 30.8445-40.0451Q35.0332-38.7071 38.4235-39.3088Q41.8138-39.9105 43.5906-41.6191Q46.1705-44.3372 45.7104-50.0909Q45.2504-55.8447 39.1099-62.0429Q32.8894-68.2412 27.0664-68.7237Q21.2433-69.2062 18.6162-66.5131Q16.8393-64.7694 16.2553-61.3842Q15.6714-57.999 17.0371-53.8342Q18.4028-49.6694 22.5458-45.4683Z"/>
  </g>
  <g id="Regular-L" transform="matrix(1 0 0 1 1365.9 1556)">
   <path d="M108.201-82.6241Q113.85-82.6241 117.759-86.5594Q121.668-90.4947 121.668-96.0916Q121.668-101.713 117.759-105.622Q113.85-109.531 108.201-109.531Q102.632-109.531 98.6966-105.622Q94.7613-101.713 94.7613-96.0916Q94.7613-90.4947 98.6966-86.5594Q102.632-82.6241 108.201-82.6241ZM41.094-18.2056L76.7098-18.2056L109.674-13.5463Q118.992-12.2345 124.977-16.1977Q130.962-20.1608 130.962-28.9444L130.962-51.3029Q130.962-52.1071 131.632-52.3748Q132.302-52.6426 132.917-52.0266L138.969-45.8951L138.969-24.6872Q138.969-22.0356 140.91-20.1206Q142.851-18.2056 145.422-18.2056Q148.074-18.2056 149.935-20.1206Q151.796-22.0356 151.796-24.6872L151.796-48.5992Q151.796-51.3582 149.868-53.1251L134.229-68.6836Q130.801-72.1114 126.423-74.0125Q122.045-75.9136 117.117-75.9136L55.9566-75.9136Q53.3329-75.9136 51.4318-73.9986Q49.5308-72.0836 49.5308-69.4603Q49.5308-66.7814 51.4181-64.9203Q53.3055-63.0592 55.9566-63.0592L102.951-63.0592Q104.371-63.0592 105.268-62.0955Q106.165-61.1319 106.165-59.7922L106.165-31.113L41.094-31.113Q38.3899-31.113 36.4889-29.2521Q34.5878-27.3913 34.5878-24.6872Q34.5878-22.0356 36.5154-20.1206Q38.4429-18.2056 41.094-18.2056ZM120.09 36.582Q121.965 38.4568 124.603 38.4568Q127.24 38.4568 129.115 36.582Q130.962 34.7598 130.962 32.1224Q130.962 29.485 129.115 27.5577L108.576 6.80438L115.999-7.53273Q114.338-7.4249 112.556-7.50532Q110.774-7.58574 108.872-7.827L100.036-9.05842L94.5977 5.94764Q93.178 9.69721 96.1234 12.6421ZM22.4042-45.6009Q26.4202-41.61 30.504-40.2982Q34.5878-38.9863 37.8811-39.5618Q41.1744-40.1373 42.8884-41.7987Q45.3791-44.4224 44.9242-50.0189Q44.4694-55.6154 38.4703-61.6669Q32.3913-67.7185 26.7282-68.201Q21.065-68.6836 18.5217-66.085Q16.8078-64.3989 16.2448-61.1054Q15.6819-57.8118 17.0214-53.7545Q18.3609-49.6972 22.4042-45.6009Z"/>
  </g>
  <g id="Light-L" transform="matrix(1 0 0 1 1070.82 1556)">
   <path d="M106.006-81.7272Q111.503-81.7272 115.307-85.5479Q119.111-89.3685 119.111-94.8321Q119.111-100.282 115.307-104.086Q111.503-107.89 106.006-107.89Q100.59-107.89 96.769-104.086Q92.9483-100.282 92.9483-94.8321Q92.9483-89.3685 96.769-85.5479Q100.59-81.7272 106.006-81.7272ZM40.4832-18.4728L75.2595-18.4728L107.441-13.9279Q116.53-12.6542 122.372-16.522Q128.214-20.3898 128.214-28.9636L128.214-50.7683Q128.214-51.5725 128.874-51.8308Q129.534-52.0891 130.131-51.4921L136.03-45.5135L136.03-24.8209Q136.03-22.2264 137.923-20.3496Q139.817-18.4728 142.331-18.4728Q144.924-18.4728 146.738-20.3496Q148.551-22.2264 148.551-24.8209L148.551-48.1413Q148.551-50.8618 146.681-52.5717L131.404-67.7674Q128.053-71.119 123.789-72.9723Q119.526-74.8256 114.694-74.8256L55.0023-74.8256Q52.4549-74.8256 50.6016-72.9487Q48.7484-71.0719 48.7484-68.5253Q48.7484-65.8845 50.5785-64.071Q52.4086-62.2576 55.0023-62.2576L100.852-62.2576Q102.252-62.2576 103.131-61.3226Q104.009-60.3876 104.009-59.0668L104.009-31.0748L40.4832-31.0748Q37.8554-31.0748 36.0021-29.2618Q34.1488-27.4487 34.1488-24.8209Q34.1488-22.2264 36.0191-20.3496Q37.8895-18.4728 40.4832-18.4728ZM117.609 34.998Q119.446 36.8346 122.017 36.8346Q124.588 36.8346 126.424 34.998Q128.214 33.1947 128.214 30.6241Q128.214 28.0536 126.424 26.1837L106.362 5.92643L113.747-8.31513Q112.105-8.18838 110.342-8.2688Q108.58-8.34922 106.697-8.59048L98.0894-9.78375L92.7273 5.08893Q91.3269 8.76218 94.1959 11.6304ZM22.2705-45.2382Q26.172-41.3237 30.1604-40.05Q34.1488-38.7763 37.3562-39.3327Q40.5636-39.8892 42.2394-41.5316Q44.673-44.079 44.2372-49.5418Q43.8014-55.0045 37.9358-60.9035Q31.9905-66.8024 26.4705-67.2849Q20.9505-67.7674 18.4835-65.207Q16.8078-63.5784 16.2448-60.3706Q15.6819-57.1628 17.0023-53.1915Q18.3227-49.2201 22.2705-45.2382Z"/>
  </g>
  <g id="Thin-L" transform="matrix(1 0 0 1 776.25 1556)">
   <path d="M103.103-80.541Q108.398-80.541 112.063-84.2101Q115.728-87.8791 115.728-93.1662Q115.728-98.3887 112.063-102.054Q108.398-105.719 103.103-105.719Q97.8886-105.719 94.2195-102.054Q90.5505-98.3887 90.5505-93.1662Q90.5505-87.8791 94.2195-84.2101Q97.8886-80.541 103.103-80.541ZM39.6753-18.826L73.3413-18.826L104.487-14.4326Q113.274-13.2094 118.926-16.951Q124.579-20.6926 124.579-28.9891L124.579-50.0614Q124.579-50.8656 125.227-51.1114Q125.875-51.3572 126.445-50.7852L132.142-45.0089L132.142-24.9978Q132.142-22.4788 133.973-20.6524Q135.803-18.826 138.242-18.826Q140.759-18.826 142.51-20.6524Q144.26-22.4788 144.26-24.9978L144.26-47.5357Q144.26-50.2053 142.465-51.8397L127.669-66.5558Q124.418-69.8064 120.306-71.5965Q116.194-73.3866 111.488-73.3866L53.7402-73.3866Q51.2938-73.3866 49.5037-71.5603Q47.7136-69.7339 47.7136-67.2887Q47.7136-64.6983 49.468-62.9478Q51.2224-61.1973 53.7402-61.1973L98.0754-61.1973Q99.4504-61.1973 100.303-60.3003Q101.156-59.4033 101.156-58.1075L101.156-31.0244L39.6753-31.0244Q37.1484-31.0244 35.3583-29.2745Q33.5682-27.5246 33.5682-24.9978Q33.5682-22.4788 35.3629-20.6524Q37.1575-18.826 39.6753-18.826ZM114.327 32.903Q116.114 34.6891 118.596 34.6891Q121.079 34.6891 122.865 32.903Q124.579 31.1247 124.579 28.6425Q124.579 26.1604 122.865 24.3664L103.434 4.76526L110.769-9.34992Q109.152-9.19815 107.414-9.27857Q105.677-9.35899 103.819-9.60025L95.5147-10.743L90.2536 3.95321Q88.8786 7.52552 91.6467 10.2924ZM22.0937-44.7585Q25.8437-40.945 29.706-39.7218Q33.5682-38.4985 36.662-39.0297Q39.7557-39.5609 41.381-41.1784Q43.7392-43.6248 43.3286-48.9107Q42.918-54.1966 37.2288-59.8937Q31.4604-65.5908 26.1297-66.0733Q20.7991-66.5558 18.4331-64.0459Q16.8078-62.4931 16.2448-59.3988Q15.6819-56.3045 16.9771-52.4468Q18.2722-48.589 22.0937-44.7585Z"/>
  </g>
  <g id="Ultralight-L" transform="matrix(1 0 0 1 480.638 1556)">
   <path d="M101.616-79.9335Q106.808-79.9335 110.402-83.5249Q113.996-87.1163 113.996-92.313Q113.996-97.419 110.402-101.013Q106.808-104.607 101.616-104.607Q96.5051-104.607 92.9137-101.013Q89.3223-97.419 89.3223-92.313Q89.3223-87.1163 92.9137-83.5249Q96.5051-79.9335 101.616-79.9335ZM39.2615-19.007L72.3589-19.007L102.975-14.6911Q111.606-13.4937 117.162-17.1707Q122.717-20.8477 122.717-29.0021L122.717-49.6993Q122.717-50.5035 123.358-50.7429Q124-50.9822 124.558-50.423L130.151-44.7504L130.151-25.0883Q130.151-22.608 131.949-20.8075Q133.747-19.007 136.147-19.007Q138.626-19.007 140.344-20.8075Q142.062-22.608 142.062-25.0883L142.062-47.2255Q142.062-49.869 140.306-51.4648L125.755-65.9352Q122.556-69.1342 118.522-70.8919Q114.487-72.6496 109.846-72.6496L53.0937-72.6496Q50.699-72.6496 48.9413-70.8491Q47.1836-69.0486 47.1836-66.6552Q47.1836-64.0907 48.8992-62.3725Q50.6148-60.6543 53.0937-60.6543L96.6533-60.6543Q98.0153-60.6543 98.8552-59.7767Q99.6951-58.8992 99.6951-57.6162L99.6951-30.9985L39.2615-30.9985Q36.7863-30.9985 35.0286-29.281Q33.2709-27.5635 33.2709-25.0883Q33.2709-22.608 35.0267-20.8075Q36.7826-19.007 39.2615-19.007ZM112.647 31.8299Q114.407 33.5902 116.844 33.5902Q119.282 33.5902 121.042 31.8299Q122.717 30.0644 122.717 27.6276Q122.717 25.1908 121.042 23.4356L101.934 4.17052L109.244-9.87993Q107.639-9.71534 105.914-9.79576Q104.19-9.87618 102.345-10.1174L94.196-11.2344L88.9866 3.37149Q87.6246 6.89211 90.341 9.6071ZM22.0031-44.5129Q25.6756-40.751 29.4732-39.5536Q33.2709-38.3563 36.3064-38.8745Q39.3419-39.3928 40.9414-40.9974Q43.2608-43.3922 42.8632-48.5875Q42.4656-53.7828 36.8667-59.3765Q31.1889-64.9702 25.9552-65.4527Q20.7216-65.9352 18.4072-63.4511Q16.8078-61.9373 16.2448-58.901Q15.6819-55.8648 16.9641-52.0653Q18.2464-48.2658 22.0031-44.5129Z"/>
  </g>
  <g id="Black-M" transform="matrix(1 0 0 1 2863.1 1126)">
   <path d="M90.6068-74.6812Q95.6711-74.6812 99.3044-78.3172Q102.938-81.9532 102.938-87.0121Q102.938-92.1338 99.3044-95.7385Q95.6711-99.3433 90.6068-99.3433Q85.4905-99.3433 81.883-95.7385Q78.2756-92.1338 78.2756-87.0121Q78.2756-81.9532 81.883-78.3172Q85.4905-74.6812 90.6068-74.6812ZM34.5305-19.2243L64.2204-19.2243L91.6198-15.3702Q99.785-14.1962 105.241-17.8034Q110.697-21.4106 110.697-29.3677L110.697-46.6916Q110.697-46.972 110.884-47.0475Q111.072-47.123 111.285-46.9097L115.119-43.0131L115.119-25.825Q115.119-23.1348 117.077-21.1796Q119.035-19.2243 121.663-19.2243Q124.353-19.2243 126.249-21.1796Q128.145-23.1348 128.145-25.825L128.145-45.7659Q128.145-48.5181 126.186-50.4087L113.144-63.3318Q110.059-66.3598 106.194-68.0297Q102.33-69.6996 98.0036-69.6996L46.9496-69.6996Q44.2592-69.6996 42.3323-67.7729Q40.4055-65.8462 40.4055-63.2129Q40.4055-60.523 42.3039-58.5987Q44.2024-56.6745 46.9496-56.6745L86.2026-56.6745Q86.9817-56.6745 87.3845-56.2949Q87.7873-55.9154 87.7873-55.1414L87.7873-32.3121L34.5305-32.3121Q31.7777-32.3121 29.8509-30.4164Q27.924-28.5207 27.924-25.825Q27.924-23.1348 29.8536-21.1796Q31.7832-19.2243 34.5305-19.2243ZM99.744 26.2045Q101.582 28.1001 104.273 28.1001Q106.963 28.1001 108.801 26.2045Q110.754 24.3716 110.697 21.6812Q110.64 18.9909 108.801 17.0899L92.2889 0.332976L97.1132-8.99911Q95.5761-8.93708 93.9741-8.99939Q92.3721-9.06169 90.7623-9.3057L81.772-10.5315L78.157-0.638143Q76.7498 3.26716 79.6895 6.20683ZM18.0806-42.421Q21.6647-38.8427 25.3653-37.6973Q29.066-36.5519 32.1148-37.1337Q35.1637-37.7154 36.8205-39.2525Q39.2148-41.7717 38.8407-46.9162Q38.4665-52.0607 33.0961-57.4937Q27.6634-62.9267 22.4565-63.3005Q17.2495-63.6744 14.8497-61.161Q13.193-59.561 12.6426-56.5407Q12.0923-53.5203 13.266-49.8224Q14.4396-46.1246 18.0806-42.421Z"/>
  </g>
  <g id="Heavy-M" transform="matrix(1 0 0 1 2567.41 1126)">
   <path d="M89.3021-74.1568Q94.2248-74.1568 97.7294-77.6696Q101.234-81.1825 101.234-86.0887Q101.234-91.0527 97.7294-94.5356Q94.2248-98.0184 89.3021-98.0184Q84.3545-98.0184 80.8635-94.5356Q77.3724-91.0527 77.3724-86.0887Q77.3724-81.1825 80.8635-77.6696Q84.3545-74.1568 89.3021-74.1568ZM33.977-19.853L63.285-19.853L90.3505-16.0411Q98.3232-14.8992 103.605-18.3926Q108.887-21.8859 108.887-29.5993L108.887-46.9972Q108.887-47.3586 109.154-47.4664Q109.421-47.5743 109.699-47.2962L113.755-43.1776L113.755-26.0989Q113.755-23.5512 115.613-21.7021Q117.47-19.853 119.955-19.853Q122.503-19.853 124.298-21.7021Q126.093-23.5512 126.093-26.0989L126.093-45.7854Q126.093-48.3977 124.237-50.1729L111.364-62.9396Q108.37-65.89 104.602-67.5198Q100.834-69.1496 96.6144-69.1496L46.2289-69.1496Q43.6834-69.1496 41.8573-67.3224Q40.0312-65.4951 40.0312-62.9933Q40.0312-60.4432 41.8344-58.6264Q43.6375-56.8096 46.2289-56.8096L84.9646-56.8096Q85.8221-56.8096 86.2964-56.3396Q86.7707-55.8696 86.7707-55.0307L86.7707-32.253L33.977-32.253Q31.3692-32.253 29.5431-30.4581Q27.717-28.6631 27.717-26.0989Q27.717-23.5512 29.5513-21.7021Q31.3857-19.853 33.977-19.853ZM98.4953 25.0491Q100.248 26.8452 102.794 26.8452Q105.341 26.8452 107.094 25.0491Q108.931 23.313 108.887 20.7664Q108.844 18.2197 107.094 16.4072L90.6583-0.25626L95.7065-10.0202Q94.2259-9.95565 92.6736-10.018Q91.1214-10.0803 89.5411-10.3108L81.0261-11.4776L77.2597-1.15743Q75.9224 2.52205 78.7171 5.31672ZM17.9279-42.6689Q21.4158-39.1951 25.0026-38.075Q28.5894-36.955 31.5325-37.5072Q34.4755-38.0595 36.0598-39.5401Q38.3521-41.9547 37.9806-46.9264Q37.609-51.898 32.3912-57.1758Q27.1112-62.4536 22.0783-62.8275Q17.0455-63.2013 14.7368-60.8008Q13.1525-59.2625 12.6292-56.3412Q12.1058-53.4199 13.2499-49.8413Q14.3941-46.2628 17.9279-42.6689Z"/>
  </g>
  <g id="Bold-M" transform="matrix(1 0 0 1 2271.85 1126)">
   <path d="M87.8427-73.5702Q92.6068-73.5702 95.9676-76.9453Q99.3284-80.3203 99.3284-85.0559Q99.3284-89.8434 95.9676-93.1899Q92.6068-96.5364 87.8427-96.5364Q83.0838-96.5364 79.723-93.1899Q76.3621-89.8434 76.3621-85.0559Q76.3621-80.3203 79.723-76.9453Q83.0838-73.5702 87.8427-73.5702ZM33.3579-20.5563L62.2386-20.5563L88.9306-16.7917Q96.6881-15.6857 101.775-19.0517Q106.863-22.4176 106.863-29.8584L106.863-47.3392Q106.863-47.7909 107.218-47.9351Q107.574-48.0792 107.925-47.7286L112.229-43.3616L112.229-26.4054Q112.229-24.0169 113.974-22.2866Q115.719-20.5563 118.045-20.5563Q120.433-20.5563 122.116-22.2866Q123.798-24.0169 123.798-26.4054L123.798-45.8072Q123.798-48.263 122.056-49.909L109.373-62.5008Q106.481-65.3644 102.82-66.9494Q99.1596-68.5344 95.0603-68.5344L45.4227-68.5344Q43.0393-68.5344 41.3259-66.8183Q39.6124-65.1023 39.6124-62.7476Q39.6124-60.3541 41.3091-58.6574Q43.0057-56.9608 45.4227-56.9608L83.5798-56.9608Q84.5248-56.9608 85.0791-56.3896Q85.6335-55.8183 85.6335-54.907L85.6335-32.187L33.3579-32.187Q30.9123-32.187 29.1988-30.5047Q27.4854-28.8224 27.4854-26.4054Q27.4854-24.0169 29.2132-22.2866Q30.941-20.5563 33.3579-20.5563ZM97.0984 23.7565Q98.7548 25.4414 101.141 25.4414Q103.527 25.4414 105.183 23.7565Q106.891 22.1288 106.863 19.7429Q106.834 17.3571 105.183 15.6436L88.8343-0.915404L94.133-11.1625Q92.7155-11.0951 91.2189-11.1574Q89.7222-11.2197 88.175-11.4351L80.1918-12.5359L76.2558-1.73832Q74.9968 1.68855 77.6293 4.32099ZM17.7571-42.9462Q21.1375-39.5893 24.5969-38.4976Q28.0564-37.4058 30.881-37.9251Q33.7057-38.4443 35.2089-39.8618Q37.3871-42.1595 37.0184-46.9378Q36.6497-51.7161 31.6027-56.8202Q26.4934-61.9244 21.6554-62.2983Q16.8173-62.6721 14.6105-60.3979Q13.1073-58.9285 12.6141-56.118Q12.1209-53.3076 13.232-49.8625Q14.3432-46.4174 17.7571-42.9462Z"/>
  </g>
  <g id="Semibold-M" transform="matrix(1 0 0 1 1975.93 1126)">
   <path d="M86.8365-73.1658Q91.4914-73.1658 94.753-76.4459Q98.0146-79.726 98.0146-84.3438Q98.0146-89.0096 94.753-92.2622Q91.4914-95.5147 86.8365-95.5147Q82.2077-95.5147 78.9367-92.2622Q75.6656-89.0096 75.6656-84.3438Q75.6656-79.726 78.9367-76.4459Q82.2077-73.1658 86.8365-73.1658ZM32.9311-21.0411L61.5172-21.0411L87.9517-17.3091Q95.5609-16.2278 100.514-19.506Q105.467-22.7842 105.467-30.0371L105.467-47.5749Q105.467-48.089 105.884-48.2582Q106.301-48.4273 106.702-48.0267L111.178-43.4884L111.178-26.6166Q111.178-24.3379 112.845-22.6895Q114.511-21.0411 116.728-21.0411Q119.006-21.0411 120.611-22.6895Q122.216-24.3379 122.216-26.6166L122.216-45.8222Q122.216-48.1701 120.552-49.7272L108.001-62.1983Q105.179-65.0021 101.592-66.5562Q98.0057-68.1102 93.989-68.1102L44.8668-68.1102Q42.5953-68.1102 40.9596-66.4709Q39.3238-64.8315 39.3238-62.5783Q39.3238-60.2926 40.947-58.6788Q42.5701-57.065 44.8668-57.065L82.6251-57.065Q83.6305-57.065 84.24-56.424Q84.8495-55.783 84.8495-54.8216L84.8495-32.1415L32.9311-32.1415Q30.5973-32.1415 28.9615-30.5369Q27.3257-28.9323 27.3257-26.6166Q27.3257-24.3379 28.9801-22.6895Q30.6344-21.0411 32.9311-21.0411ZM96.1355 22.8655Q97.7255 24.4737 100.001 24.4737Q102.276 24.4737 103.866 22.8655Q105.485 21.3124 105.467 19.0374Q105.449 16.7623 103.866 15.1172L87.5768-1.36981L93.0482-11.9499Q91.6743-11.8806 90.216-11.9429Q88.7577-12.0052 87.2332-12.2102L79.6165-13.2655L75.5638-2.13879Q74.3587 1.11393 76.8794 3.63454ZM17.6394-43.1373Q20.9456-39.8611 24.3172-38.7889Q27.6889-37.7167 30.4319-38.2132Q33.175-38.7097 34.6222-40.0836Q36.7218-42.3007 36.3551-46.9456Q35.9884-51.5906 31.059-56.5751Q26.0675-61.5596 21.3637-61.9334Q16.66-62.3073 14.5234-60.1202Q13.0761-58.6982 12.6037-55.9642Q12.1313-53.2301 13.2196-49.877Q14.308-46.5239 17.6394-43.1373Z"/>
  </g>
  <g id="Medium-M" transform="matrix(1 0 0 1 1679.82 1126)">
   <path d="M86.0737-72.8591Q90.6456-72.8591 93.832-76.0672Q97.0184-79.2753 97.0184-83.8039Q97.0184-88.3775 93.832-91.5588Q90.6456-94.74 86.0737-94.74Q81.5434-94.74 78.3405-91.5588Q75.1375-88.3775 75.1375-83.8039Q75.1375-79.2753 78.3405-76.0672Q81.5434-72.8591 86.0737-72.8591ZM32.6075-21.4087L60.9702-21.4087L87.2094-17.7014Q94.7061-16.6389 99.5573-19.8505Q104.408-23.0622 104.408-30.1725L104.408-47.7537Q104.408-48.3151 104.872-48.5032Q105.336-48.6913 105.774-48.2527L110.38-43.5846L110.38-26.7768Q110.38-24.5814 111.988-22.995Q113.596-21.4087 115.729-21.4087Q117.925-21.4087 119.47-22.995Q121.016-24.5814 121.016-26.7768L121.016-45.8336Q121.016-48.0997 119.412-49.5892L106.96-61.969Q104.191-64.7274 100.661-66.258Q97.1307-67.7886 93.1766-67.7886L44.4454-67.7886Q42.2587-67.7886 40.6818-66.2074Q39.1049-64.6262 39.1049-62.4499Q39.1049-60.2459 40.6724-58.695Q42.2399-57.1441 44.4454-57.1441L81.9012-57.1441Q82.9523-57.1441 83.6037-56.4501Q84.2551-55.7562 84.2551-54.7569L84.2551-32.107L32.6075-32.107Q30.3584-32.107 28.7816-30.5613Q27.2047-29.0156 27.2047-26.7768Q27.2047-24.5814 28.8033-22.995Q30.4019-21.4087 32.6075-21.4087ZM95.4053 22.1898Q96.9451 23.7399 99.1361 23.7399Q101.327 23.7399 102.867 22.1898Q104.419 20.6934 104.408 18.5024Q104.398 16.3114 102.867 14.718L86.6233-1.71437L92.2257-12.547Q90.8847-12.4762 89.4555-12.5385Q88.0263-12.6008 86.5191-12.798L79.1804-13.8188L75.0391-2.44243Q73.8749 0.678235 76.3108 3.11405ZM17.5501-43.2822Q20.8001-40.0672 24.1051-39.0098Q27.4102-37.9524 30.0914-38.4316Q32.7725-38.9108 34.1774-40.2518Q36.2174-42.4077 35.8522-46.9516Q35.487-51.4955 30.6468-56.3892Q25.7446-61.283 21.1426-61.6568Q16.5407-62.0306 14.4574-59.9096Q13.0525-58.5236 12.5958-55.8475Q12.1391-53.1714 13.2103-49.8881Q14.2814-46.6047 17.5501-43.2822Z"/>
  </g>
  <g id="Regular-M" transform="matrix(1 0 0 1 1383.89 1126)">
   <path d="M85.0786-72.4592Q89.5424-72.4592 92.6308-75.5733Q95.7191-78.6875 95.7191-83.0997Q95.7191-87.5529 92.6308-90.6412Q89.5424-93.7296 85.0786-93.7296Q80.677-93.7296 77.5629-90.6412Q74.4487-87.5529 74.4487-83.0997Q74.4487-78.6875 77.5629-75.5733Q80.677-72.4592 85.0786-72.4592ZM32.1853-21.8882L60.2568-21.8882L86.2413-18.2132Q93.5913-17.1751 98.3096-20.2999Q103.028-23.4247 103.028-30.3492L103.028-47.9868Q103.028-48.6099 103.552-48.8227Q104.077-49.0355 104.564-48.5476L109.34-43.71L109.34-26.9857Q109.34-24.8989 110.871-23.3936Q112.402-21.8882 114.427-21.8882Q116.513-21.8882 117.982-23.3936Q119.451-24.8989 119.451-26.9857L119.451-45.8485Q119.451-48.0079 117.925-49.4094L105.602-61.6698Q102.903-64.369 99.4463-65.8691Q95.9894-67.3691 92.117-67.3691L43.8957-67.3691Q41.8195-67.3691 40.3195-65.8638Q38.8194-64.3584 38.8194-62.2824Q38.8194-60.1851 40.3142-58.7161Q41.8091-57.2472 43.8957-57.2472L80.957-57.2472Q82.0678-57.2472 82.7738-56.4842Q83.4798-55.7213 83.4798-54.6726L83.4798-32.062L32.1853-32.062Q30.0469-32.062 28.5468-30.5931Q27.0468-29.1242 27.0468-26.9857Q27.0468-24.8989 28.5727-23.3936Q30.0987-21.8882 32.1853-21.8882ZM94.4529 21.3086Q95.9271 22.7828 98.0086 22.7828Q100.09 22.7828 101.564 21.3086Q103.028 19.886 103.028 17.8046Q103.028 15.7232 101.564 14.1973L85.3796-2.16378L91.1529-13.3258Q89.8549-13.253 88.4636-13.3153Q87.0723-13.3776 85.5877-13.5646L78.6115-14.5403L74.3547-2.8385Q73.2438 0.109936 75.5692 2.43515ZM17.4337-43.4713Q20.6103-40.3359 23.8285-39.2979Q27.0468-38.2598 29.6472-38.7165Q32.2477-39.1732 33.5973-40.4712Q35.5595-42.5474 35.1962-46.9594Q34.8329-51.3714 30.1092-56.1468Q25.3233-60.9222 20.8542-61.296Q16.3852-61.6698 14.3713-59.6348Q13.0217-58.2959 12.5855-55.6953Q12.1494-53.0948 13.198-49.9025Q14.2467-46.7101 17.4337-43.4713Z"/>
  </g>
  <g id="Light-M" transform="matrix(1 0 0 1 1088.63 1126)">
   <path d="M83.1107-71.6551Q87.4378-71.6551 90.4319-74.6665Q93.4261-77.6778 93.4261-81.9704Q93.4261-86.2696 90.4319-89.2638Q87.4378-92.2579 83.1107-92.2579Q78.846-92.2579 75.8346-89.2638Q72.8233-86.2696 72.8233-81.9704Q72.8233-77.6778 75.8346-74.6665Q78.846-71.6551 83.1107-71.6551ZM31.6377-22.1277L58.9565-22.1277L84.2392-18.5553Q91.384-17.5514 95.9739-20.5907Q100.564-23.63 100.564-30.3665L100.564-47.5076Q100.564-48.1306 101.08-48.335Q101.596-48.5393 102.066-48.0683L106.705-43.3679L106.705-27.1056Q106.705-25.07 108.193-23.5988Q109.681-22.1277 111.655-22.1277Q113.69-22.1277 115.116-23.5988Q116.543-25.07 116.543-27.1056L116.543-45.438Q116.543-47.5629 115.068-48.9132L103.07-60.8485Q100.439-63.4793 97.0849-64.9365Q93.7306-66.3937 89.944-66.3937L43.0401-66.3937Q41.0324-66.3937 39.5752-64.9225Q38.118-63.4514 38.118-61.4441Q38.118-59.381 39.5615-57.9547Q41.005-56.5284 43.0401-56.5284L79.0748-56.5284Q80.1684-56.5284 80.8573-55.7912Q81.5461-55.054 81.5461-54.0223L81.5461-32.0278L31.6377-32.0278Q29.5676-32.0278 28.1104-30.6017Q26.6532-29.1757 26.6532-27.1056Q26.6532-25.07 28.1279-23.5988Q29.6025-22.1277 31.6377-22.1277ZM92.2283 19.8884Q93.6683 21.3284 95.69 21.3284Q97.7117 21.3284 99.1517 19.8884Q100.564 18.4828 100.564 16.4613Q100.564 14.4399 99.1517 12.9655L83.3948-2.95092L89.1339-14.0273Q87.8529-13.9375 86.4787-13.9998Q85.1045-14.0621 83.6371-14.2491L76.8662-15.1906L72.6778-3.60838Q71.5842-0.728369 73.8411 1.52813ZM17.3138-43.1461Q20.3877-40.0792 23.5205-39.0753Q26.6532-38.0715 29.1766-38.5111Q31.7-38.9507 33.0154-40.2317Q34.9264-42.2395 34.5802-46.5316Q34.2341-50.8237 29.6299-55.4623Q24.964-60.1008 20.6232-60.4746Q16.2825-60.8485 14.3371-58.8477Q13.0217-57.5602 12.5855-55.0366Q12.1494-52.5129 13.1809-49.3977Q14.2125-46.2824 17.3138-43.1461Z"/>
  </g>
  <g id="Thin-M" transform="matrix(1 0 0 1 793.844 1126)">
   <path d="M80.5081-70.5916Q84.6542-70.5916 87.5238-73.467Q90.3935-76.3425 90.3935-80.4769Q90.3935-84.5723 87.5238-87.4419Q84.6542-90.3116 80.5081-90.3116Q76.4244-90.3116 73.5489-87.4419Q70.6735-84.5723 70.6735-80.4769Q70.6735-76.3425 73.5489-73.467Q76.4244-70.5916 80.5081-70.5916ZM30.9134-22.4444L57.2368-22.4444L81.5914-19.0078Q88.4646-18.0491 92.8848-20.9753Q97.305-23.9015 97.305-30.3893L97.305-46.8737Q97.305-47.4968 97.8096-47.6899Q98.3143-47.8831 98.762-47.4345L103.22-42.9155L103.22-27.2642Q103.22-25.2962 104.651-23.8703Q106.083-22.4444 107.989-22.4444Q109.956-22.4444 111.326-23.8703Q112.695-25.2962 112.695-27.2642L112.695-44.895Q112.695-46.9743 111.288-48.2569L99.7207-59.7622Q97.1804-62.3025 93.9618-63.703Q90.7433-65.1036 87.0699-65.1036L41.9086-65.1036Q39.9913-65.1036 38.5908-63.6777Q37.1902-62.2518 37.1902-60.3354Q37.1902-58.3176 38.5658-56.9477Q39.9415-55.5779 41.9086-55.5779L76.5855-55.5779Q77.6563-55.5779 78.3225-54.8747Q78.9888-54.1715 78.9888-53.1622L78.9888-31.9826L30.9134-31.9826Q28.9338-31.9826 27.5332-30.6131Q26.1327-29.2437 26.1327-27.2642Q26.1327-25.2962 27.5395-23.8703Q28.9463-22.4444 30.9134-22.4444ZM89.2862 18.0101Q90.6809 19.4049 92.6236 19.4049Q94.5662 19.4049 95.9609 18.0101Q97.305 16.6269 97.305 14.6848Q97.305 12.7426 95.9609 11.3362L80.7698-3.99196L86.4636-14.955Q85.205-14.8428 83.8535-14.9051Q82.5019-14.9675 81.0573-15.1544L74.5578-16.0507L70.4599-4.62662Q69.3891-1.83709 71.5556 0.328534ZM17.1553-42.7161Q20.0934-39.7397 23.1131-38.781Q26.1327-37.8224 28.5542-38.2394Q30.9757-38.6564 32.2458-39.915Q34.0892-41.8322 33.7656-45.9658Q33.4421-50.0994 28.9961-54.557Q24.4887-59.0145 20.3177-59.3883Q16.1468-59.7622 14.2918-57.8067Q13.0217-56.5872 12.5855-54.1653Q12.1494-51.7434 13.1583-48.73Q14.1672-45.7166 17.1553-42.7161Z"/>
  </g>
  <g id="Ultralight-M" transform="matrix(1 0 0 1 498.118 1126)">
   <path d="M79.1751-70.0469Q83.2284-70.0469 86.0343-72.8527Q88.8402-75.6585 88.8402-79.712Q88.8402-83.7029 86.0343-86.5088Q83.2284-89.3147 79.1751-89.3147Q75.1841-89.3147 72.3782-86.5088Q69.5724-83.7029 69.5724-79.712Q69.5724-75.6585 72.3782-72.8527Q75.1841-70.0469 79.1751-70.0469ZM30.5424-22.6066L56.3559-22.6066L80.2351-19.2395Q86.9693-18.3041 91.3026-21.1723Q95.6358-24.0405 95.6358-30.401L95.6358-46.5491Q95.6358-47.1722 96.1347-47.3595Q96.6336-47.5469 97.0697-47.1098L101.435-42.6837L101.435-27.3454Q101.435-25.4121 102.837-24.0094Q104.24-22.6066 106.111-22.6066Q108.043-22.6066 109.384-24.0094Q110.725-25.4121 110.725-27.3454L110.725-44.6169Q110.725-46.6728 109.352-47.9208L98.0051-59.2058Q95.5112-61.6997 92.3622-63.0713Q89.2131-64.4428 85.5978-64.4428L41.329-64.4428Q39.4581-64.4428 38.0866-63.0401Q36.715-61.6373 36.715-59.7675Q36.715-57.7729 38.0559-56.4319Q39.3968-55.091 41.329-55.091L75.3105-55.091Q76.3696-55.091 77.0242-54.4053Q77.6789-53.7195 77.6789-52.7217L77.6789-31.9594L30.5424-31.9594Q28.6092-31.9594 27.2376-30.619Q25.8661-29.2786 25.8661-27.3454Q25.8661-25.4121 27.2381-24.0094Q28.6101-22.6066 30.5424-22.6066ZM87.7792 17.048Q89.1508 18.4196 91.0529 18.4196Q92.955 18.4196 94.3266 17.048Q95.6358 15.6764 95.6358 13.7748Q95.6358 11.8732 94.3266 10.5017L79.4253-4.52518L85.0959-15.4302Q83.8488-15.3065 82.5088-15.3688Q81.1688-15.4311 79.7359-15.6181L73.3755-16.4912L69.324-5.14815Q68.2649-2.40498 70.385-0.285894ZM17.0741-42.4959Q19.9427-39.5658 22.9044-38.6303Q25.8661-37.6949 28.2354-38.1003Q30.6047-38.5057 31.8517-39.7528Q33.6603-41.6237 33.3484-45.676Q33.0364-49.7284 28.6715-54.0933Q24.2453-58.4581 20.1613-58.832Q16.0773-59.2058 14.2687-57.2735Q13.0217-56.0889 12.5855-53.719Q12.1494-51.3492 13.1467-48.388Q14.144-45.4268 17.0741-42.4959Z"/>
  </g>
  <g id="Black-S" transform="matrix(1 0 0 1 2878.08 696)">
   <path d="M71.2891-66.2598Q75.293-66.2598 78.1738-69.1406Q81.0547-72.0215 81.0547-76.0254Q81.0547-80.0781 78.1738-82.9346Q75.293-85.791 71.2891-85.791Q67.2363-85.791 64.3799-82.9346Q61.5234-80.0781 61.5234-76.0254Q61.5234-72.0215 64.3799-69.1406Q67.2363-66.2598 71.2891-66.2598ZM27.1973-22.5098L50.5371-22.5098L72.0703-19.4824Q78.5156-18.5547 82.8369-21.4111Q87.1582-24.2676 87.1582-30.5664L87.1582-44.0918Q87.1582-44.2871 87.2803-44.3359Q87.4023-44.3848 87.5488-44.2383L90.4785-41.2598L90.4785-27.7832Q90.4785-25.6348 92.041-24.0723Q93.6035-22.5098 95.7031-22.5098Q97.8516-22.5098 99.3652-24.0723Q100.879-25.6348 100.879-27.7832L100.879-43.457Q100.879-45.6543 99.3164-47.168L89.0625-57.3242Q86.6211-59.7168 83.5693-61.0352Q80.5176-62.3535 77.0996-62.3535L36.9629-62.3535Q34.8145-62.3535 33.2764-60.8154Q31.7383-59.2773 31.7383-57.1777Q31.7383-55.0293 33.252-53.4912Q34.7656-51.9531 36.9629-51.9531L67.8223-51.9531Q68.4082-51.9531 68.7012-51.6846Q68.9941-51.416 68.9941-50.8301L68.9941-32.959L27.1973-32.959Q25-32.959 23.4619-31.4453Q21.9238-29.9316 21.9238-27.7832Q21.9238-25.6348 23.4619-24.0723Q25-22.5098 27.1973-22.5098ZM78.418 13.1836Q79.8828 14.6973 82.0312 14.6973Q84.1797 14.6973 85.6445 13.1836Q87.207 11.7188 87.1582 9.57031Q87.1094 7.42188 85.6445 5.9082L72.7051-7.22656L76.416-14.4043Q75.1953-14.3555 73.9258-14.4043Q72.6562-14.4531 71.3867-14.6484L64.209-15.625L61.4258-8.00781Q60.3027-4.88281 62.6465-2.53906ZM14.209-40.7715Q17.041-37.9395 19.9707-37.0361Q22.9004-36.1328 25.3174-36.5967Q27.7344-37.0605 29.0527-38.2812Q30.957-40.2832 30.6641-44.3604Q30.3711-48.4375 26.123-52.7344Q21.8262-57.0312 17.7002-57.3242Q13.5742-57.6172 11.6699-55.6152Q10.3516-54.3457 9.91211-51.9531Q9.47266-49.5605 10.4004-46.6309Q11.3281-43.7012 14.209-40.7715Z"/>
  </g>
  <g id="Heavy-S" transform="matrix(1 0 0 1 2582.06 696)">
   <path d="M70.4247-65.914Q74.3249-65.914 77.1078-68.7027Q79.8907-71.4914 79.8907-75.38Q79.8907-79.3175 77.1078-82.0818Q74.3249-84.846 70.4247-84.846Q66.4988-84.846 63.7288-82.0818Q60.9587-79.3175 60.9587-75.38Q60.9587-71.4914 63.7288-68.7027Q66.4988-65.914 70.4247-65.914ZM26.7939-23.0168L49.9033-23.0168L71.2406-20.0125Q77.5476-19.1079 81.7363-21.8779Q85.9251-24.6479 85.9251-30.7623L85.9251-44.4145Q85.9251-44.6789 86.1163-44.7566Q86.3075-44.8342 86.5116-44.6301L89.6488-41.4442L89.6488-28.0022Q89.6488-25.969 91.1306-24.4929Q92.6124-23.0168 94.5968-23.0168Q96.63-23.0168 98.063-24.4929Q99.496-25.969 99.496-28.0022L99.496-43.5262Q99.496-45.6082 98.0141-47.0297L87.864-57.0937Q85.4917-59.4287 82.5091-60.7182Q79.5265-62.0078 76.1892-62.0078L36.4558-62.0078Q34.4226-62.0078 32.9652-60.5504Q31.5078-59.093 31.5078-57.0971Q31.5078-55.0639 32.9466-53.6122Q34.3853-52.1606 36.4558-52.1606L67.004-52.1606Q67.6591-52.1606 68.0155-51.8113Q68.3718-51.4621 68.3718-50.8186L68.3718-32.9129L26.7939-32.9129Q24.7119-32.9129 23.2545-31.4799Q21.7971-30.0469 21.7971-28.0022Q21.7971-25.969 23.2602-24.4929Q24.7234-23.0168 26.7939-23.0168ZM77.6343 12.3769Q79.03 13.8099 81.0632 13.8099Q83.0964 13.8099 84.4921 12.3769Q85.9624 10.9927 85.9251 8.95952Q85.8878 6.92632 84.4921 5.4818L71.5642-7.62992L75.471-15.188Q74.2964-15.1391 73.0672-15.188Q71.838-15.2368 70.5915-15.4206L63.7941-16.351L60.8726-8.35355Q59.8072-5.41294 62.0357-3.18443ZM14.0937-41.025Q16.8566-38.2737 19.6999-37.3876Q22.5431-36.5016 24.8795-36.9424Q27.2158-37.3832 28.4765-38.5578Q30.3001-40.4791 30.0072-44.4237Q29.7142-48.3684 25.5814-52.55Q21.3998-56.7316 17.4063-57.0246Q13.4129-57.3176 11.5777-55.4078Q10.317-54.1844 9.90058-51.8667Q9.48418-49.549 10.3889-46.7115Q11.2936-43.874 14.0937-41.025Z"/>
  </g>
  <g id="Bold-S" transform="matrix(1 0 0 1 2286.12 696)">
   <path d="M69.458-65.5273Q73.2422-65.5273 75.9155-68.2129Q78.5889-70.8984 78.5889-74.6582Q78.5889-78.4668 75.9155-81.1279Q73.2422-83.7891 69.458-83.7891Q65.6738-83.7891 63.0005-81.1279Q60.3271-78.4668 60.3271-74.6582Q60.3271-70.8984 63.0005-68.2129Q65.6738-65.5273 69.458-65.5273ZM26.3428-23.584L49.1943-23.584L70.3125-20.6055Q76.4648-19.7266 80.5054-22.3999Q84.5459-25.0732 84.5459-30.9814L84.5459-44.7754Q84.5459-45.1172 84.8145-45.2271Q85.083-45.3369 85.3516-45.0684L88.7207-41.6504L88.7207-28.2471Q88.7207-26.3428 90.1123-24.9634Q91.5039-23.584 93.3594-23.584Q95.2637-23.584 96.6064-24.9634Q97.9492-26.3428 97.9492-28.2471L97.9492-43.6035Q97.9492-45.5566 96.5576-46.875L86.5234-56.8359Q84.2285-59.1064 81.3232-60.3638Q78.418-61.6211 75.1709-61.6211L35.8887-61.6211Q33.9844-61.6211 32.6172-60.2539Q31.25-58.8867 31.25-57.0068Q31.25-55.1025 32.605-53.7476Q33.96-52.3926 35.8887-52.3926L66.0889-52.3926Q66.8213-52.3926 67.2485-51.9531Q67.6758-51.5137 67.6758-50.8057L67.6758-32.8613L26.3428-32.8613Q24.3896-32.8613 23.0225-31.5186Q21.6553-30.1758 21.6553-28.2471Q21.6553-26.3428 23.0347-24.9634Q24.4141-23.584 26.3428-23.584ZM76.7578 11.4746Q78.0762 12.8174 79.9805 12.8174Q81.8848 12.8174 83.2031 11.4746Q84.5703 10.1807 84.5459 8.27637Q84.5215 6.37207 83.2031 5.00488L70.2881-8.08105L74.4141-16.0645Q73.291-16.0156 72.1069-16.0645Q70.9229-16.1133 69.7021-16.2842L63.3301-17.1631L60.2539-8.74023Q59.2529-6.00586 61.3525-3.90625ZM13.9648-41.3086Q16.6504-38.6475 19.397-37.7808Q22.1436-36.9141 24.3896-37.3291Q26.6357-37.7441 27.832-38.8672Q29.5654-40.6982 29.2725-44.4946Q28.9795-48.291 24.9756-52.3438Q20.9229-56.3965 17.0776-56.6895Q13.2324-56.9824 11.4746-55.1758Q10.2783-54.0039 9.8877-51.77Q9.49707-49.5361 10.376-46.8018Q11.2549-44.0674 13.9648-41.3086Z"/>
  </g>
  <g id="Semibold-S" transform="matrix(1 0 0 1 1989.94 696)">
   <path d="M68.7915-65.2607Q72.4957-65.2607 75.0935-67.8752Q77.6913-70.4896 77.6913-74.1605Q77.6913-77.8803 75.0935-80.4703Q72.4957-83.0604 68.7915-83.0604Q65.1051-83.0604 62.4984-80.4703Q59.8917-77.8803 59.8917-74.1605Q59.8917-70.4896 62.4984-67.8752Q65.1051-65.2607 68.7915-65.2607ZM26.0317-23.975L48.7056-23.975L69.6727-21.0143Q75.7184-20.1531 79.6567-22.7598Q83.595-25.3665 83.595-31.1325L83.595-45.0242Q83.595-45.4193 83.9169-45.5514Q84.2388-45.6835 84.5518-45.3705L88.0809-41.7926L88.0809-28.4159Q88.0809-26.6005 89.4103-25.2877Q90.7396-23.975 92.5062-23.975Q94.3217-23.975 95.6022-25.2877Q96.8828-26.6005 96.8828-28.4159L96.8828-43.6568Q96.8828-45.5211 95.5534-46.7684L85.5992-56.6582Q83.3576-58.8843 80.5057-60.1194Q77.6537-61.3545 74.4688-61.3545L35.4977-61.3545Q33.6822-61.3545 32.3772-60.0495Q31.0723-58.7445 31.0723-56.9446Q31.0723-55.1292 32.3695-53.8409Q33.6667-52.5525 35.4977-52.5525L65.4579-52.5525Q66.2437-52.5525 66.7198-52.0509Q67.1959-51.5492 67.1959-50.7968L67.1959-32.8258L26.0317-32.8258Q24.1675-32.8258 22.8625-31.5452Q21.5575-30.2646 21.5575-28.4159Q21.5575-26.6005 22.8792-25.2877Q24.2008-23.975 26.0317-23.975ZM76.1535 10.8525Q77.4186 12.1331 79.234 12.1331Q81.0494 12.1331 82.3145 10.8525Q83.6105 9.6208 83.595 7.80537Q83.5795 5.98994 82.3145 4.67607L69.4083-8.39209L73.6854-16.6687Q72.5979-16.6199 71.4449-16.6687Q70.2919-16.7176 69.089-16.8796L63.0102-17.7229L59.8273-9.00684Q58.8708-6.41465 60.8815-4.40391ZM13.876-41.5041Q16.5082-38.9052 19.1881-38.0518Q21.8681-37.1984 24.052-37.5957Q26.2358-37.993 27.3877-39.0805Q29.0589-40.8493 28.7659-44.5435Q28.4729-48.2377 24.5579-52.2016Q20.594-56.1654 16.851-56.4584Q13.108-56.7514 11.4035-55.0158Q10.2517-53.8795 9.87881-51.7034Q9.50596-49.5272 10.3671-46.864Q11.2282-44.2007 13.876-41.5041Z"/>
  </g>
  <g id="Medium-S" transform="matrix(1 0 0 1 1693.64 696)">
   <path d="M68.2861-65.0586Q71.9297-65.0586 74.4702-67.6191Q77.0107-70.1797 77.0107-73.7832Q77.0107-77.4355 74.4702-79.9717Q71.9297-82.5078 68.2861-82.5078Q64.6738-82.5078 62.1177-79.9717Q59.5615-77.4355 59.5615-73.7832Q59.5615-70.1797 62.1177-67.6191Q64.6738-65.0586 68.2861-65.0586ZM25.7959-24.2715L48.335-24.2715L69.1875-21.3242Q75.1523-20.4766 79.0132-23.0327Q82.874-25.5889 82.874-31.2471L82.874-45.2129Q82.874-45.6484 83.2363-45.7974Q83.5986-45.9463 83.9453-45.5996L87.5957-41.9004L87.5957-28.5439Q87.5957-26.7959 88.8779-25.5337Q90.1602-24.2715 91.8594-24.2715Q93.6074-24.2715 94.8408-25.5337Q96.0742-26.7959 96.0742-28.5439L96.0742-43.6973Q96.0742-45.4941 94.792-46.6875L84.8984-56.5234Q82.6973-58.7158 79.8857-59.9341Q77.0742-61.1523 73.9365-61.1523L35.2012-61.1523Q33.4531-61.1523 32.1953-59.8945Q30.9375-58.6367 30.9375-56.8975Q30.9375-55.1494 32.1909-53.9116Q33.4443-52.6738 35.2012-52.6738L64.9795-52.6738Q65.8057-52.6738 66.3188-52.125Q66.832-51.5762 66.832-50.79L66.832-32.7988L25.7959-32.7988Q23.999-32.7988 22.7412-31.5654Q21.4834-30.332 21.4834-28.5439Q21.4834-26.7959 22.7612-25.5337Q24.0391-24.2715 25.7959-24.2715ZM75.6953 10.3809Q76.9199 11.6143 78.668 11.6143Q80.416 11.6143 81.6406 10.3809Q82.8828 9.19629 82.874 7.44824Q82.8652 5.7002 81.6406 4.42676L68.7412-8.62793L73.1328-17.127Q72.0723-17.0781 70.9429-17.127Q69.8135-17.1758 68.624-17.3311L62.7676-18.1475L59.5039-9.20898Q58.5811-6.72461 60.5244-4.78125ZM13.8086-41.6523Q16.4004-39.1006 19.0298-38.2573Q21.6592-37.4141 23.7959-37.7979Q25.9326-38.1816 27.0508-39.2422Q28.6748-40.9639 28.3818-44.5806Q28.0889-48.1973 24.2412-52.0938Q20.3447-55.9902 16.6792-56.2832Q13.0137-56.5762 11.3496-54.8945Q10.2314-53.7852 9.87207-51.6528Q9.5127-49.5205 10.3604-46.9111Q11.208-44.3018 13.8086-41.6523Z"/>
  </g>
  <g id="Regular-S" transform="matrix(1 0 0 1 1397.45 696)">
   <path d="M67.627-64.7949Q71.1914-64.7949 73.6572-67.2852Q76.123-69.7754 76.123-73.291Q76.123-76.8555 73.6572-79.3213Q71.1914-81.7871 67.627-81.7871Q64.1113-81.7871 61.6211-79.3213Q59.1309-76.8555 59.1309-73.291Q59.1309-69.7754 61.6211-67.2852Q64.1113-64.7949 67.627-64.7949ZM25.4883-24.6582L47.8516-24.6582L68.5547-21.7285Q74.4141-20.8984 78.1738-23.3887Q81.9336-25.8789 81.9336-31.3965L81.9336-45.459Q81.9336-45.9473 82.3486-46.1182Q82.7637-46.2891 83.1543-45.8984L86.9629-42.041L86.9629-28.7109Q86.9629-27.0508 88.1836-25.8545Q89.4043-24.6582 91.0156-24.6582Q92.6758-24.6582 93.8477-25.8545Q95.0195-27.0508 95.0195-28.7109L95.0195-43.75Q95.0195-45.459 93.7988-46.582L83.9844-56.3477Q81.8359-58.4961 79.0771-59.6924Q76.3184-60.8887 73.2422-60.8887L34.8145-60.8887Q33.1543-60.8887 31.958-59.6924Q30.7617-58.4961 30.7617-56.8359Q30.7617-55.1758 31.958-54.0039Q33.1543-52.832 34.8145-52.832L64.3555-52.832Q65.2344-52.832 65.7959-52.2217Q66.3574-51.6113 66.3574-50.7812L66.3574-32.7637L25.4883-32.7637Q23.7793-32.7637 22.583-31.5918Q21.3867-30.4199 21.3867-28.7109Q21.3867-27.0508 22.6074-25.8545Q23.8281-24.6582 25.4883-24.6582ZM75.0977 9.76562Q76.2695 10.9375 77.9297 10.9375Q79.5898 10.9375 80.7617 9.76562Q81.9336 8.64258 81.9336 6.98242Q81.9336 5.32227 80.7617 4.10156L67.8711-8.93555L72.4121-17.7246Q71.3867-17.6758 70.2881-17.7246Q69.1895-17.7734 68.0176-17.9199L62.4512-18.7012L59.082-9.47266Q58.2031-7.12891 60.0586-5.27344ZM13.7207-41.8457Q16.2598-39.3555 18.8232-38.5254Q21.3867-37.6953 23.4619-38.0615Q25.5371-38.4277 26.6113-39.4531Q28.1738-41.1133 27.8809-44.6289Q27.5879-48.1445 23.8281-51.9531Q20.0195-55.7617 16.4551-56.0547Q12.8906-56.3477 11.2793-54.7363Q10.2051-53.6621 9.86328-51.5869Q9.52148-49.5117 10.3516-46.9727Q11.1816-44.4336 13.7207-41.8457Z"/>
  </g>
  <g id="Light-S" transform="matrix(1 0 0 1 1102.03 696)">
   <path d="M65.8862-64.0836Q69.3296-64.0836 71.7121-66.4829Q74.0946-68.8822 74.0946-72.2921Q74.0946-75.7202 71.7121-78.1027Q69.3296-80.4853 65.8862-80.4853Q62.4916-80.4853 60.0923-78.1027Q57.693-75.7202 57.693-72.2921Q57.693-68.8822 60.0923-66.4829Q62.4916-64.0836 65.8862-64.0836ZM25.0038-24.87L46.7013-24.87L66.7837-22.0311Q72.4614-21.2313 76.1077-23.6459Q79.7539-26.0605 79.7539-31.4117L79.7539-45.035Q79.7539-45.5233 80.1614-45.6867Q80.5689-45.8501 80.9443-45.4745L84.6319-41.7384L84.6319-28.817Q84.6319-27.2021 85.8147-26.0361Q86.9975-24.87 88.5635-24.87Q90.1782-24.87 91.3123-26.0361Q92.4464-27.2021 92.4464-28.817L92.4464-43.3868Q92.4464-45.0653 91.271-46.1431L81.7441-55.6211Q79.6562-57.709 76.9882-58.8674Q74.3202-60.0258 71.3198-60.0258L34.0576-60.0258Q32.458-60.0258 31.2996-58.8598Q30.1412-57.6937 30.1412-56.0944Q30.1412-54.4645 31.2921-53.3304Q32.443-52.1962 34.0576-52.1962L62.6905-52.1962Q63.5541-52.1962 64.1005-51.6087Q64.6469-51.0211 64.6469-50.206L64.6469-32.7334L25.0038-32.7334Q23.3554-32.7334 22.197-31.5994Q21.0386-30.4654 21.0386-28.817Q21.0386-27.2021 22.2139-26.0361Q23.3892-24.87 25.0038-24.87ZM73.1298 8.50932Q74.2714 9.65093 75.8787 9.65093Q77.4859 9.65093 78.6275 8.50932Q79.7539 7.40128 79.7539 5.79414Q79.7539 4.18701 78.6275 3.01183L66.1153-9.63186L70.6261-18.3451Q69.6157-18.2813 68.5322-18.3301Q67.4487-18.379 66.2921-18.5254L60.9072-19.2764L57.5986-10.1537Q56.735-7.87048 58.5299-6.0758ZM13.6147-41.5581Q16.0629-39.1284 18.5507-38.3286Q21.0386-37.5287 23.0456-37.8798Q25.0526-38.2309 26.0966-39.2413Q27.6138-40.8409 27.336-44.2505Q27.0582-47.6601 23.4042-51.3476Q19.7016-55.0351 16.2507-55.3281Q12.7998-55.6211 11.249-54.04Q10.2051-53.0113 9.86328-51.0042Q9.52148-48.997 10.3364-46.5261Q11.1514-44.0552 13.6147-41.5581Z"/>
  </g>
  <g id="Thin-S" transform="matrix(1 0 0 1 807.018 696)">
   <path d="M63.5839-63.1428Q66.8672-63.1428 69.1395-65.4219Q71.4119-67.701 71.4119-70.9709Q71.4119-74.2188 69.1395-76.4911Q66.8672-78.7635 63.5839-78.7635Q60.3494-78.7635 58.0703-76.4911Q55.7913-74.2188 55.7913-70.9709Q55.7913-67.701 58.0703-65.4219Q60.3494-63.1428 63.5839-63.1428ZM24.3631-25.1502L45.18-25.1502L64.4413-22.4314Q69.879-21.6716 73.375-23.9861Q76.871-26.3006 76.871-31.4319L76.871-44.4743Q76.871-44.9626 77.2686-45.1161Q77.6663-45.2696 78.0214-44.9138L81.5489-41.3381L81.5489-28.9572Q81.5489-27.4022 82.6816-26.2762Q83.8143-25.1502 85.3205-25.1502Q86.8749-25.1502 87.959-26.2762Q89.0432-27.4022 89.0432-28.9572L89.0432-42.9065Q89.0432-44.5446 87.9276-45.5625L78.7812-54.6601Q76.7734-56.668 74.2254-57.7763Q71.6775-58.8846 68.7774-58.8846L33.0566-58.8846Q31.5371-58.8846 30.4288-57.7586Q29.3205-56.6326 29.3205-55.1136Q29.3205-53.5237 30.4114-52.4395Q31.5022-51.3554 33.0566-51.3554L60.4884-51.3554Q61.3319-51.3554 61.8582-50.7979Q62.3846-50.2404 62.3846-49.4452L62.3846-32.6934L24.3631-32.6934Q22.7947-32.6934 21.6864-31.6095Q20.5781-30.5257 20.5781-28.9572Q20.5781-27.4022 21.6934-26.2762Q22.8086-25.1502 24.3631-25.1502ZM70.5271 6.84775Q71.6287 7.94934 73.166 7.94934Q74.7033 7.94934 75.8049 6.84775Q76.871 5.75955 76.871 4.22255Q76.871 2.68555 75.8049 1.57057L63.7932-10.5528L68.2639-19.1658Q67.2733-19.0821 66.2099-19.131Q65.1464-19.1798 64.0099-19.3263L58.8653-20.0373L55.6367-11.0545Q54.7932-8.85128 56.5081-7.13698ZM13.4744-41.1777Q15.8026-38.828 18.1903-38.0682Q20.5781-37.3084 22.495-37.6395Q24.4119-37.9706 25.4158-38.9611Q26.8732-40.4807 26.6154-43.75Q26.3575-47.0193 22.8435-50.5468Q19.2812-54.0742 15.9805-54.3672Q12.6798-54.6601 11.209-53.1191Q10.2051-52.1506 9.86328-50.2334Q9.52148-48.3162 10.3164-45.9355Q11.1114-43.5547 13.4744-41.1777Z"/>
  </g>
  <g id="Ultralight-S" transform="matrix(1 0 0 1 511.178 696)">
   <path d="M62.4046-62.661Q65.6059-62.661 67.8219-64.8785Q70.0378-67.0959 70.0378-70.2942Q70.0378-73.4497 67.8219-75.6657Q65.6059-77.8816 62.4046-77.8816Q59.2522-77.8816 57.0347-75.6657Q54.8172-73.4497 54.8172-70.2942Q54.8172-67.0959 57.0347-64.8785Q59.2522-62.661 62.4046-62.661ZM24.0349-25.2937L44.4008-25.2937L63.2416-22.6364Q68.5562-21.8971 71.9753-24.1604Q75.3944-26.4236 75.3944-31.4423L75.3944-44.1872Q75.3944-44.6754 75.787-44.8238Q76.1795-44.9722 76.5244-44.6266L79.9698-41.1331L79.9698-29.0291Q79.9698-27.5047 81.0768-26.3992Q82.1838-25.2937 83.6594-25.2937Q85.183-25.2937 86.2415-26.3992Q87.3001-27.5047 87.3001-29.0291L87.3001-42.6605Q87.3001-44.278 86.2152-45.2652L77.2636-54.1679Q75.2968-56.1348 72.8104-57.2174Q70.3239-58.3 67.4751-58.3L32.5439-58.3Q31.0654-58.3 29.9828-57.1945Q28.9001-56.089 28.9001-54.6112Q28.9001-53.0418 29.9603-51.9833Q31.0204-50.9247 32.5439-50.9247L59.3605-50.9247Q60.1936-50.9247 60.7098-50.3826Q61.2259-49.8405 61.2259-49.0555L61.2259-32.6729L24.0349-32.6729Q22.5075-32.6729 21.4249-31.6147Q20.3423-30.5565 20.3423-29.0291Q20.3423-27.5047 21.4268-26.3992Q22.5113-25.2937 24.0349-25.2937ZM69.194 5.9967Q70.2751 7.07779 71.7766 7.07779Q73.278 7.07779 74.3591 5.9967Q75.3944 4.91867 75.3944 3.41759Q75.3944 1.9165 74.3591 0.832367L62.6038-11.0245L67.054-19.5862Q66.0736-19.4923 65.0204-19.5412Q63.9671-19.59 62.841-19.7365L57.8194-20.4269L54.6318-11.5158Q53.7987-9.35364 55.4726-7.68051ZM13.4026-40.9828Q15.6693-38.6742 18.0058-37.9349Q20.3423-37.1956 22.213-37.5164Q24.0837-37.8372 25.0671-38.8176Q26.4938-40.2962 26.2463-43.4937Q25.9987-46.6911 22.5563-50.1366Q19.0659-53.582 15.8421-53.875Q12.6183-54.1679 11.1885-52.6474Q10.2051-51.7097 9.86328-49.8386Q9.52148-47.9675 10.3062-45.6329Q11.0909-43.2983 13.4026-40.9828Z"/>
  </g>
 </g>
</svg>
