<?xml version="1.0" encoding="UTF-8"?>
<!--Generator: Apple Native CoreSVG 175.5-->
<!DOCTYPE svg
PUBLIC "-//W3C//DTD SVG 1.1//EN"
       "http://www.w3.org/Graphics/SVG/1.1/DTD/svg11.dtd">
<svg version="1.1" xmlns="http://www.w3.org/2000/svg" xmlns:xlink="http://www.w3.org/1999/xlink" width="3300" height="2200">
 <!--glyph: "uni10130A.medium", point size: 100.0, font version: "18.0d9e1", template writer version: "84"-->
 <g id="Notes">
  <rect height="2200" id="artboard" style="fill:white;opacity:1" width="3300" x="0" y="0"/>
  <line style="fill:none;stroke:black;opacity:1;stroke-width:0.5;" x1="263" x2="3036" y1="292" y2="292"/>
  <text style="stroke:none;fill:black;font-family:sans-serif;font-size:13;font-weight:bold;" transform="matrix(1 0 0 1 263 322)">Weight/Scale Variations</text>
  <text style="stroke:none;fill:black;font-family:sans-serif;font-size:13;text-anchor:middle;" transform="matrix(1 0 0 1 559.711 322)">Ultralight</text>
  <text style="stroke:none;fill:black;font-family:sans-serif;font-size:13;text-anchor:middle;" transform="matrix(1 0 0 1 856.422 322)">Thin</text>
  <text style="stroke:none;fill:black;font-family:sans-serif;font-size:13;text-anchor:middle;" transform="matrix(1 0 0 1 1153.13 322)">Light</text>
  <text style="stroke:none;fill:black;font-family:sans-serif;font-size:13;text-anchor:middle;" transform="matrix(1 0 0 1 1449.84 322)">Regular</text>
  <text style="stroke:none;fill:black;font-family:sans-serif;font-size:13;text-anchor:middle;" transform="matrix(1 0 0 1 1746.56 322)">Medium</text>
  <text style="stroke:none;fill:black;font-family:sans-serif;font-size:13;text-anchor:middle;" transform="matrix(1 0 0 1 2043.27 322)">Semibold</text>
  <text style="stroke:none;fill:black;font-family:sans-serif;font-size:13;text-anchor:middle;" transform="matrix(1 0 0 1 2339.98 322)">Bold</text>
  <text style="stroke:none;fill:black;font-family:sans-serif;font-size:13;text-anchor:middle;" transform="matrix(1 0 0 1 2636.69 322)">Heavy</text>
  <text style="stroke:none;fill:black;font-family:sans-serif;font-size:13;text-anchor:middle;" transform="matrix(1 0 0 1 2933.4 322)">Black</text>
  <line style="fill:none;stroke:black;opacity:1;stroke-width:0.5;" x1="263" x2="3036" y1="1903" y2="1903"/>
  <g transform="matrix(1 0 0 1 263 1933)">
   <path d="M9.24805 0.830078Q10.8691 0.830078 12.2949 0.214844Q13.7207-0.400391 14.8096-1.49414Q15.8984-2.58789 16.5186-4.01367Q17.1387-5.43945 17.1387-7.05078Q17.1387-8.66211 16.5186-10.0879Q15.8984-11.5137 14.8047-12.6074Q13.7109-13.7012 12.2852-14.3164Q10.8594-14.9316 9.23828-14.9316Q7.62695-14.9316 6.20117-14.3164Q4.77539-13.7012 3.69141-12.6074Q2.60742-11.5137 1.9873-10.0879Q1.36719-8.66211 1.36719-7.05078Q1.36719-5.43945 1.9873-4.01367Q2.60742-2.58789 3.69629-1.49414Q4.78516-0.400391 6.21094 0.214844Q7.63672 0.830078 9.24805 0.830078ZM9.24805-0.654297Q7.91992-0.654297 6.7627-1.14746Q5.60547-1.64062 4.73145-2.51953Q3.85742-3.39844 3.36426-4.56055Q2.87109-5.72266 2.87109-7.05078Q2.87109-8.37891 3.35938-9.54102Q3.84766-10.7031 4.72168-11.582Q5.5957-12.4609 6.75293-12.9541Q7.91016-13.4473 9.23828-13.4473Q10.5762-13.4473 11.7383-12.9541Q12.9004-12.4609 13.7793-11.582Q14.6582-10.7031 15.1514-9.54102Q15.6445-8.37891 15.6445-7.05078Q15.6445-5.72266 15.1514-4.56055Q14.6582-3.39844 13.7793-2.51953Q12.9004-1.64062 11.7432-1.14746Q10.5859-0.654297 9.24805-0.654297ZM5.6543-7.05078Q5.6543-6.72852 5.85938-6.52832Q6.06445-6.32812 6.40625-6.32812L8.51562-6.32812L8.51562-4.20898Q8.51562-3.88672 8.71094-3.67676Q8.90625-3.4668 9.23828-3.4668Q9.56055-3.4668 9.77051-3.67676Q9.98047-3.88672 9.98047-4.20898L9.98047-6.32812L12.0898-6.32812Q12.4219-6.32812 12.627-6.52832Q12.832-6.72852 12.832-7.05078Q12.832-7.38281 12.627-7.58789Q12.4219-7.79297 12.0898-7.79297L9.98047-7.79297L9.98047-9.90234Q9.98047-10.2344 9.77051-10.4443Q9.56055-10.6543 9.23828-10.6543Q8.90625-10.6543 8.71094-10.4443Q8.51562-10.2344 8.51562-9.90234L8.51562-7.79297L6.40625-7.79297Q6.06445-7.79297 5.85938-7.58789Q5.6543-7.38281 5.6543-7.05078Z"/>
  </g>
  <g transform="matrix(1 0 0 1 281.867 1933)">
   <path d="M11.709 2.91016Q13.75 2.91016 15.5518 2.12891Q17.3535 1.34766 18.7305-0.0292969Q20.1074-1.40625 20.8887-3.20801Q21.6699-5.00977 21.6699-7.05078Q21.6699-9.0918 20.8887-10.8936Q20.1074-12.6953 18.7305-14.0723Q17.3535-15.4492 15.5469-16.2305Q13.7402-17.0117 11.6992-17.0117Q9.6582-17.0117 7.85645-16.2305Q6.05469-15.4492 4.68262-14.0723Q3.31055-12.6953 2.5293-10.8936Q1.74805-9.0918 1.74805-7.05078Q1.74805-5.00977 2.5293-3.20801Q3.31055-1.40625 4.6875-0.0292969Q6.06445 1.34766 7.86621 2.12891Q9.66797 2.91016 11.709 2.91016ZM11.709 1.25Q9.98047 1.25 8.47656 0.605469Q6.97266-0.0390625 5.83496-1.17676Q4.69727-2.31445 4.05762-3.81836Q3.41797-5.32227 3.41797-7.05078Q3.41797-8.7793 4.05762-10.2832Q4.69727-11.7871 5.83008-12.9297Q6.96289-14.0723 8.4668-14.7119Q9.9707-15.3516 11.6992-15.3516Q13.4277-15.3516 14.9365-14.7119Q16.4453-14.0723 17.583-12.9297Q18.7207-11.7871 19.3652-10.2832Q20.0098-8.7793 20.0098-7.05078Q20.0098-5.32227 19.3701-3.81836Q18.7305-2.31445 17.5879-1.17676Q16.4453-0.0390625 14.9414 0.605469Q13.4375 1.25 11.709 1.25ZM7.17773-7.05078Q7.17773-6.69922 7.41211-6.47461Q7.64648-6.25 8.01758-6.25L10.8887-6.25L10.8887-3.36914Q10.8887-2.99805 11.1133-2.76855Q11.3379-2.53906 11.6895-2.53906Q12.0605-2.53906 12.29-2.76855Q12.5195-2.99805 12.5195-3.36914L12.5195-6.25L15.4004-6.25Q15.7715-6.25 16.001-6.47461Q16.2305-6.69922 16.2305-7.05078Q16.2305-7.42188 16.001-7.65137Q15.7715-7.88086 15.4004-7.88086L12.5195-7.88086L12.5195-10.752Q12.5195-11.1328 12.29-11.3623Q12.0605-11.5918 11.6895-11.5918Q11.3379-11.5918 11.1133-11.3574Q10.8887-11.123 10.8887-10.752L10.8887-7.88086L8.01758-7.88086Q7.63672-7.88086 7.40723-7.65137Q7.17773-7.42188 7.17773-7.05078Z"/>
  </g>
  <g transform="matrix(1 0 0 1 305.646 1933)">
   <path d="M14.9707 5.66406Q17.0605 5.66406 18.96 5.01465Q20.8594 4.36523 22.4512 3.19336Q24.043 2.02148 25.2197 0.429688Q26.3965-1.16211 27.0459-3.06641Q27.6953-4.9707 27.6953-7.05078Q27.6953-9.14062 27.0459-11.04Q26.3965-12.9395 25.2197-14.5312Q24.043-16.123 22.4512-17.2998Q20.8594-18.4766 18.9551-19.126Q17.0508-19.7754 14.9609-19.7754Q12.8711-19.7754 10.9717-19.126Q9.07227-18.4766 7.48535-17.2998Q5.89844-16.123 4.72168-14.5312Q3.54492-12.9395 2.90039-11.04Q2.25586-9.14062 2.25586-7.05078Q2.25586-4.9707 2.90527-3.06641Q3.55469-1.16211 4.72656 0.429688Q5.89844 2.02148 7.49023 3.19336Q9.08203 4.36523 10.9814 5.01465Q12.8809 5.66406 14.9707 5.66406ZM14.9707 3.84766Q13.1641 3.84766 11.5283 3.2959Q9.89258 2.74414 8.53516 1.74805Q7.17773 0.751953 6.17676-0.610352Q5.17578-1.97266 4.62891-3.6084Q4.08203-5.24414 4.08203-7.05078Q4.08203-8.86719 4.62891-10.5029Q5.17578-12.1387 6.17188-13.501Q7.16797-14.8633 8.52539-15.8594Q9.88281-16.8555 11.5186-17.4023Q13.1543-17.9492 14.9609-17.9492Q16.7773-17.9492 18.4131-17.4023Q20.0488-16.8555 21.4111-15.8594Q22.7734-14.8633 23.7744-13.501Q24.7754-12.1387 25.3223-10.5029Q25.8691-8.86719 25.8691-7.05078Q25.8691-5.24414 25.3223-3.6084Q24.7754-1.97266 23.7793-0.610352Q22.7832 0.751953 21.4209 1.74805Q20.0586 2.74414 18.4229 3.2959Q16.7871 3.84766 14.9707 3.84766ZM9.19922-7.05078Q9.19922-6.66992 9.45801-6.4209Q9.7168-6.17188 10.1172-6.17188L14.0625-6.17188L14.0625-2.2168Q14.0625-1.81641 14.3115-1.55762Q14.5605-1.29883 14.9512-1.29883Q15.3516-1.29883 15.6104-1.55273Q15.8691-1.80664 15.8691-2.2168L15.8691-6.17188L19.8242-6.17188Q20.2246-6.17188 20.4785-6.4209Q20.7324-6.66992 20.7324-7.05078Q20.7324-7.46094 20.4785-7.71484Q20.2246-7.96875 19.8242-7.96875L15.8691-7.96875L15.8691-11.9141Q15.8691-12.3242 15.6104-12.583Q15.3516-12.8418 14.9512-12.8418Q14.5605-12.8418 14.3115-12.583Q14.0625-12.3242 14.0625-11.9141L14.0625-7.96875L10.1172-7.96875Q9.70703-7.96875 9.45312-7.71484Q9.19922-7.46094 9.19922-7.05078Z"/>
  </g>
  <text style="stroke:none;fill:black;font-family:sans-serif;font-size:13;font-weight:bold;" transform="matrix(1 0 0 1 263 1953)">Design Variations</text>
  <text style="stroke:none;fill:black;font-family:sans-serif;font-size:13;" transform="matrix(1 0 0 1 263 1971)">Symbols are supported in up to nine weights and three scales.</text>
  <text style="stroke:none;fill:black;font-family:sans-serif;font-size:13;" transform="matrix(1 0 0 1 263 1989)">For optimal layout with text and other symbols, vertically align</text>
  <text style="stroke:none;fill:black;font-family:sans-serif;font-size:13;" transform="matrix(1 0 0 1 263 2007)">symbols with the adjacent text.</text>
  <line style="fill:none;stroke:#00AEEF;stroke-width:0.5;opacity:1.0;" x1="776" x2="776" y1="1919" y2="1933"/>
  <g transform="matrix(1 0 0 1 776 1933)">
   <path d="M3.31055 0.15625Q3.70117 0.15625 3.91602-0.00976562Q4.13086-0.175781 4.26758-0.585938L5.52734-4.0332L11.2891-4.0332L12.5488-0.585938Q12.6855-0.175781 12.9004-0.00976562Q13.1152 0.15625 13.4961 0.15625Q13.8867 0.15625 14.1162-0.0585938Q14.3457-0.273438 14.3457-0.644531Q14.3457-0.869141 14.2383-1.17188L9.6582-13.3691Q9.48242-13.8184 9.17969-14.043Q8.87695-14.2676 8.4082-14.2676Q7.5-14.2676 7.17773-13.3789L2.59766-1.16211Q2.49023-0.859375 2.49023-0.634766Q2.49023-0.263672 2.70996-0.0537109Q2.92969 0.15625 3.31055 0.15625ZM6.00586-5.51758L8.37891-12.0898L8.42773-12.0898L10.8008-5.51758Z"/>
  </g>
  <line style="fill:none;stroke:#00AEEF;stroke-width:0.5;opacity:1.0;" x1="793.197" x2="793.197" y1="1919" y2="1933"/>
  <text style="stroke:none;fill:black;font-family:sans-serif;font-size:13;font-weight:bold;" transform="matrix(1 0 0 1 776 1953)">Margins</text>
  <text style="stroke:none;fill:black;font-family:sans-serif;font-size:13;" transform="matrix(1 0 0 1 776 1971)">Leading and trailing margins on the left and right side of each symbol</text>
  <text style="stroke:none;fill:black;font-family:sans-serif;font-size:13;" transform="matrix(1 0 0 1 776 1989)">can be adjusted by modifying the x-location of the margin guidelines.</text>
  <text style="stroke:none;fill:black;font-family:sans-serif;font-size:13;" transform="matrix(1 0 0 1 776 2007)">Modifications are automatically applied proportionally to all</text>
  <text style="stroke:none;fill:black;font-family:sans-serif;font-size:13;" transform="matrix(1 0 0 1 776 2025)">scales and weights.</text>
  <g transform="matrix(1 0 0 1 1289 1933)">
   <path d="M2.8418 1.86523L4.54102 3.57422Q5.18555 4.22852 5.90332 4.17969Q6.62109 4.13086 7.31445 3.35938L18.0078-8.42773L17.041-9.4043L6.42578 2.27539Q6.16211 2.57812 5.89355 2.61719Q5.625 2.65625 5.27344 2.30469L4.10156 1.14258Q3.75 0.791016 3.79395 0.522461Q3.83789 0.253906 4.14062-0.0195312L15.6152-10.8203L14.6387-11.7871L3.04688-0.898438Q2.30469-0.214844 2.25098 0.498047Q2.19727 1.21094 2.8418 1.86523ZM9.25781-16.3281Q8.94531-16.0254 8.90625-15.6348Q8.86719-15.2441 9.04297-14.9512Q9.21875-14.6777 9.55566-14.541Q9.89258-14.4043 10.3809-14.5215Q11.4746-14.7754 12.5977-14.7314Q13.7207-14.6875 14.7949-13.9844L14.209-12.5293Q13.9551-11.9043 14.0674-11.4404Q14.1797-10.9766 14.5801-10.5664L16.875-8.25195Q17.2363-7.88086 17.5781-7.82227Q17.9199-7.76367 18.3398-7.8418L19.4043-8.03711L20.0684-7.36328L20.0293-6.80664Q20-6.43555 20.1221-6.12305Q20.2441-5.81055 20.6055-5.44922L21.3672-4.70703Q21.7285-4.3457 22.1533-4.33105Q22.5781-4.31641 22.9297-4.66797L25.8398-7.58789Q26.1914-7.93945 26.1816-8.35449Q26.1719-8.76953 25.8105-9.13086L25.0391-9.89258Q24.6875-10.2539 24.3799-10.3857Q24.0723-10.5176 23.7109-10.4883L23.1348-10.4395L22.4902-11.0742L22.7344-12.1973Q22.832-12.6172 22.6953-12.9834Q22.5586-13.3496 22.1191-13.7891L19.9219-15.9766Q18.6719-17.2168 17.2607-17.8369Q15.8496-18.457 14.4189-18.4814Q12.9883-18.5059 11.665-17.959Q10.3418-17.4121 9.25781-16.3281ZM10.752-15.957Q11.6602-16.6211 12.7002-16.9043Q13.7402-17.1875 14.8047-17.085Q15.8691-16.9824 16.8701-16.5137Q17.8711-16.0449 18.7012-15.2051L21.1328-12.793Q21.3086-12.6172 21.3525-12.4512Q21.3965-12.2852 21.3379-12.0312L21.0156-10.5469L22.5195-9.0625L23.5059-9.12109Q23.6914-9.13086 23.7891-9.09668Q23.8867-9.0625 24.0332-8.91602L24.6094-8.33984L22.168-5.89844L21.5918-6.47461Q21.4453-6.62109 21.4062-6.71875Q21.3672-6.81641 21.377-7.01172L21.4453-7.98828L19.9512-9.47266L18.4277-9.21875Q18.1836-9.16992 18.042-9.2041Q17.9004-9.23828 17.7148-9.41406L15.7129-11.416Q15.5176-11.5918 15.4932-11.7529Q15.4688-11.9141 15.5859-12.1875L16.4648-14.2773Q15.293-15.3711 13.8281-15.791Q12.3633-16.2109 10.8398-15.7617Q10.7227-15.7324 10.6885-15.8057Q10.6543-15.8789 10.752-15.957Z"/>
  </g>
  <text style="stroke:none;fill:black;font-family:sans-serif;font-size:13;font-weight:bold;" transform="matrix(1 0 0 1 1289 1953)">Exporting</text>
  <text style="stroke:none;fill:black;font-family:sans-serif;font-size:13;" transform="matrix(1 0 0 1 1289 1971)">Symbols should be outlined when exporting to ensure the</text>
  <text style="stroke:none;fill:black;font-family:sans-serif;font-size:13;" transform="matrix(1 0 0 1 1289 1989)">design is preserved when submitting to Xcode.</text>
  <text id="template-version" style="stroke:none;fill:black;font-family:sans-serif;font-size:13;text-anchor:end;" transform="matrix(1 0 0 1 3036 1933)">Template v.2.0</text>
  <text style="stroke:none;fill:black;font-family:sans-serif;font-size:13;text-anchor:end;" transform="matrix(1 0 0 1 3036 1951)">Requires Xcode 12 or greater</text>
  <text id="descriptive-name" style="stroke:none;fill:black;font-family:sans-serif;font-size:13;text-anchor:end;" transform="matrix(1 0 0 1 3036 1969)">Generated from figure.indoor.cycle</text>
  <text style="stroke:none;fill:black;font-family:sans-serif;font-size:13;text-anchor:end;" transform="matrix(1 0 0 1 3036 1987)">Typeset at 100 points</text>
  <text style="stroke:none;fill:black;font-family:sans-serif;font-size:13;" transform="matrix(1 0 0 1 263 726)">Small</text>
  <text style="stroke:none;fill:black;font-family:sans-serif;font-size:13;" transform="matrix(1 0 0 1 263 1156)">Medium</text>
  <text style="stroke:none;fill:black;font-family:sans-serif;font-size:13;" transform="matrix(1 0 0 1 263 1586)">Large</text>
 </g>
 <g id="Guides">
  <g id="H-reference" style="fill:#27AAE1;stroke:none;" transform="matrix(1 0 0 1 339 696)">
   <path d="M0.993347 0L3.6377 0L29.3282-67.1326L30.0301-67.1326L30.0301-70.459L28.1227-70.459ZM11.6882-24.4797L46.9818-24.4797L46.2311-26.7288L12.4382-26.7288ZM55.1193 0L57.7637 0L30.6381-70.459L29.4327-70.459L29.4327-67.1326Z"/>
  </g>
  <line id="Baseline-S" style="fill:none;stroke:#27AAE1;opacity:1;stroke-width:0.5;" x1="263" x2="3036" y1="696" y2="696"/>
  <line id="Capline-S" style="fill:none;stroke:#27AAE1;opacity:1;stroke-width:0.5;" x1="263" x2="3036" y1="625.541" y2="625.541"/>
  <g id="H-reference" style="fill:#27AAE1;stroke:none;" transform="matrix(1 0 0 1 339 1126)">
   <path d="M0.993347 0L3.6377 0L29.3282-67.1326L30.0301-67.1326L30.0301-70.459L28.1227-70.459ZM11.6882-24.4797L46.9818-24.4797L46.2311-26.7288L12.4382-26.7288ZM55.1193 0L57.7637 0L30.6381-70.459L29.4327-70.459L29.4327-67.1326Z"/>
  </g>
  <line id="Baseline-M" style="fill:none;stroke:#27AAE1;opacity:1;stroke-width:0.5;" x1="263" x2="3036" y1="1126" y2="1126"/>
  <line id="Capline-M" style="fill:none;stroke:#27AAE1;opacity:1;stroke-width:0.5;" x1="263" x2="3036" y1="1055.54" y2="1055.54"/>
  <g id="H-reference" style="fill:#27AAE1;stroke:none;" transform="matrix(1 0 0 1 339 1556)">
   <path d="M0.993347 0L3.6377 0L29.3282-67.1326L30.0301-67.1326L30.0301-70.459L28.1227-70.459ZM11.6882-24.4797L46.9818-24.4797L46.2311-26.7288L12.4382-26.7288ZM55.1193 0L57.7637 0L30.6381-70.459L29.4327-70.459L29.4327-67.1326Z"/>
  </g>
  <line id="Baseline-L" style="fill:none;stroke:#27AAE1;opacity:1;stroke-width:0.5;" x1="263" x2="3036" y1="1556" y2="1556"/>
  <line id="Capline-L" style="fill:none;stroke:#27AAE1;opacity:1;stroke-width:0.5;" x1="263" x2="3036" y1="1485.54" y2="1485.54"/>
  <line id="left-margin" style="fill:none;stroke:#00AEEF;stroke-width:0.5;opacity:1.0;" x1="1398.8" x2="1398.8" y1="1030.79" y2="1150.12"/>
  <line id="right-margin" style="fill:none;stroke:#00AEEF;stroke-width:0.5;opacity:1.0;" x1="1500.89" x2="1500.89" y1="1030.79" y2="1150.12"/>
 </g>
 <g id="Symbols">
  <g id="Black-L" transform="matrix(1 0 0 1 2864.32 1556)">
   <path d="M106.318-83.7317Q112.683-83.7317 117.236-88.2944Q121.789-92.8571 121.789-99.2438Q121.789-105.668 117.236-110.191Q112.683-114.714 106.318-114.714Q99.8734-114.714 95.3393-110.191Q90.8052-105.668 90.8052-99.2438Q90.8052-92.8571 95.3393-88.2944Q99.8734-83.7317 106.318-83.7317ZM72.3327 19.7884Q75.6487 19.7884 78.0352 17.4227Q80.4218 15.057 80.4218 11.8018L80.4218-22.816Q80.4218-25.4962 78.5457-27.8679L63.0771-46.8275Q62.1123-48.0167 63.3468-48.6157L81.9118-58.2893Q82.4876-58.6175 82.9622-58.4308Q83.4368-58.2441 83.5392-57.6451L85.2036-46.185Q85.803-41.8724 90.3801-39.6139L109.192-30.1683Q113.525-28.0302 116.695-29.2509Q119.864-30.4716 121.119-33.2114Q122.294-35.8672 121.365-39.0772Q120.435-42.2871 116.741-44.1839L100.441-52.4552L97.8701-71.8673Q97.0891-77.5911 93.0959-81.4636Q89.1028-85.3361 83.379-86.256Q77.6553-87.1758 71.7266-84.0726L46.8993-71.079Q40.7746-67.8954 38.2118-62.7016Q35.649-57.5078 36.62-51.8826Q37.591-46.2575 42.1537-41.752L64.4861-19.4804L64.4861 11.8018Q64.4861 15.057 66.7928 17.4227Q69.0996 19.7884 72.3327 19.7884ZM19.348-20.7723Q21.4497-16.9906 25.1191-15.6919Q28.7886-14.3932 32.7287-15.2534L47.0079-18.363Q51.192-19.24 51.192-23.5021Q51.192-25.473 49.9179-26.8567Q48.6438-28.2404 46.7898-28.54L22.4218-32.7523Q18.5737-33.4308 16.88-30.8315Q15.1862-28.2321 16.9818-25.043ZM29.3281-22.0449L47.1833 31.167L58.2618 27.2521L40.705-25.4664ZM72.1731 44.0837Q80.0354 44.0837 86.4623 40.2464Q92.8893 36.4091 96.6864 30.0113Q100.484 23.6135 100.484 15.8525Q100.484 7.70123 96.2549 1.04019Q92.0262-5.62086 85.2797-9.1821L85.2797 6.96141Q88.0063 10.6245 88.0063 15.8525Q88.0063 22.5617 83.4547 27.0835Q78.9032 31.6053 72.1731 31.6053Q67.7619 31.6053 64.1622 29.5055Q60.5625 27.4058 58.4726 23.8061Q56.3826 20.2063 56.3826 15.8525Q56.3826 13.1425 57.2023 10.7872Q58.022 8.43187 59.6061 6.48534L59.6061-9.34176Q52.6428-5.99974 48.2929 0.810537Q43.943 7.62081 43.943 15.8525Q43.943 23.6135 47.7907 30.0113Q51.6385 36.4091 58.0654 40.2464Q64.4924 44.0837 72.1731 44.0837ZM85.9651 28.1648L97.2045 31.9044L113.227-17.1216Q113.941-19.3993 112.941-21.6826Q111.941-23.9659 109.608-24.6773Q107.155-25.4471 105.029-24.2808Q102.903-23.1146 102.248-20.9329ZM35.0607 35.5946Q33.1167 36.8249 32.8182 38.8463Q32.5198 40.8678 33.6586 42.4817Q34.7974 44.0957 37.0948 44.0957L107.251 44.0957Q109.547 44.0957 110.627 42.4811Q111.707 40.8666 111.45 38.8451Q111.192 36.8237 109.307 35.5946L93.0514 25.0212L78.5875 34.9393L65.839 34.9393L51.2947 25.0212Z"/>
  </g>
  <g id="Heavy-L" transform="matrix(1 0 0 1 2568.44 1556)">
   <path d="M104.955-83.158Q111.147-83.158 115.565-87.5883Q119.983-92.0186 119.983-98.246Q119.983-104.488 115.565-108.881Q111.147-113.274 104.955-113.274Q98.6831-113.274 94.2723-108.881Q89.8614-104.488 89.8614-98.246Q89.8614-92.0186 94.2723-87.5883Q98.6831-83.158 104.955-83.158ZM71.5588 18.7489Q74.7281 18.7489 77.0118 16.4954Q79.2955 14.2418 79.2955 11.1284L79.2955-23.0602Q79.2955-25.6489 77.511-27.8833L62.1951-46.6492Q61.0832-48.0181 62.5294-48.7368L80.9559-58.3343Q81.6331-58.7132 82.1998-58.4851Q82.7664-58.2571 82.8826-57.5384L84.5244-46.1584Q85.0962-42.0377 89.4996-39.8756L108.072-30.552Q112.223-28.4961 115.278-29.6754Q118.333-30.8548 119.51-33.4936Q120.612-36.0353 119.712-39.0715Q118.812-42.1078 115.287-43.9224L99.0798-52.1495L96.5176-71.4463Q95.7549-77.0057 91.8711-80.7688Q87.9874-84.5319 82.428-85.4197Q76.8686-86.3074 71.0768-83.2865L46.5748-70.4738Q40.619-67.3724 38.1223-62.3223Q35.6257-57.2721 36.5716-51.7975Q37.5175-46.3229 41.9479-41.9315L64.0689-19.8664L64.0689 11.1284Q64.0689 14.2418 66.275 16.4954Q68.4812 18.7489 71.5588 18.7489ZM19.2658-21.7978Q21.3129-18.1302 24.852-16.8818Q28.391-15.6333 32.2082-16.4709L46.3019-19.5489Q50.2246-20.3708 50.2246-24.3628Q50.2246-26.2007 49.0377-27.4904Q47.8507-28.7801 46.102-29.066L22.0413-33.2285Q18.4133-33.8751 16.8226-31.4431Q15.232-29.0111 16.936-26.0051ZM29.5184-22.6L47.165 29.9087L57.1736 26.3853L39.8072-25.6845ZM71.4035 42.6033Q79.0479 42.6033 85.2684 38.8907Q91.4888 35.178 95.1613 28.9799Q98.8337 22.7818 98.8337 15.248Q98.8337 7.36812 94.7695 0.940146Q90.7052-5.48783 84.2069-8.94426L84.2069 5.49012Q87.566 9.45096 87.566 15.248Q87.566 22.0438 82.8978 26.6869Q78.2296 31.33 71.4035 31.33Q66.9422 31.33 63.2717 29.1707Q59.6011 27.0114 57.4541 23.3408Q55.3071 19.6702 55.3071 15.248Q55.3071 12.2904 56.2985 9.70817Q57.2899 7.12598 59.1217 5.0648L59.1217-9.09953Q52.4292-5.84847 48.2415 0.719614Q44.0537 7.2877 44.0537 15.248Q44.0537 22.7818 47.7815 28.9799Q51.5093 35.178 57.7297 38.8907Q63.9502 42.6033 71.4035 42.6033ZM85.533 27.2395L95.7024 30.6289L111.701-18.2053Q112.351-20.2684 111.445-22.3242Q110.538-24.38 108.447-25.0185Q106.221-25.7017 104.309-24.6563Q102.397-23.6108 101.792-21.6067ZM34.9576 34.9056Q33.1779 36.0355 32.8976 37.8816Q32.6173 39.7277 33.6489 41.1936Q34.6805 42.6594 36.7683 42.6594L106.039 42.6594Q108.121 42.6594 109.105 41.1908Q110.089 39.7221 109.852 37.876Q109.615 36.03 107.885 34.9056L92.0199 24.5684L77.8416 34.3005L65.0458 34.3005L50.7872 24.5684Z"/>
  </g>
  <g id="Bold-L" transform="matrix(1 0 0 1 2272.82 1556)">
   <path d="M103.205-82.3689Q109.181-82.3689 113.438-86.6378Q117.694-90.9067 117.694-96.9344Q117.694-102.953 113.438-107.189Q109.181-111.424 103.205-111.424Q97.1483-111.424 92.8873-107.189Q88.6263-102.953 88.6263-96.9344Q88.6263-90.9067 92.8873-86.6378Q97.1483-82.3689 103.205-82.3689ZM70.5164 17.4656Q73.5163 17.4656 75.6769 15.3429Q77.8376 13.2203 77.8376 10.2761L77.8376-23.3227Q77.8376-25.8037 76.1608-27.8764L61.0666-46.3668Q59.7928-47.9287 61.4704-48.7786L79.6832-58.2614Q80.4684-58.6944 81.1354-58.4201Q81.8023-58.1459 81.934-57.2959L83.5451-46.0456Q84.086-42.1556 88.2818-40.1015L106.525-30.9464Q110.453-28.9905 113.373-30.1235Q116.293-31.2566 117.378-33.7799Q118.395-36.1831 117.533-39.0117Q116.672-41.8402 113.347-43.5549L97.3-51.7059L94.753-70.812Q94.0134-76.1715 90.2641-79.8001Q86.5149-83.4288 81.1554-84.278Q75.796-85.1273 70.1732-82.2064L46.1155-69.6389Q40.3672-66.6375 37.9514-61.7641Q35.5355-56.8906 36.4506-51.6005Q37.3657-46.3104 41.6347-42.0574L63.4497-20.2981L63.4497 10.2761Q63.4497 13.2203 65.5365 15.3429Q67.6234 17.4656 70.5164 17.4656ZM19.1657-22.9315Q21.1439-19.4024 24.529-18.2154Q27.9141-17.0285 31.5777-17.8355L45.4186-20.8675Q49.0408-21.6277 49.0408-25.3041Q49.0408-26.988 47.954-28.1699Q46.8672-29.3517 45.2417-29.6222L21.6022-33.7158Q18.2284-34.324 16.7572-32.0845Q15.2859-29.8451 16.882-27.0545ZM29.7715-23.1647L47.1419 28.4234L55.8065 25.3916L38.6931-25.8268ZM70.3687 40.685Q77.7292 40.685 83.6811 37.1372Q89.6331 33.5894 93.1406 27.6522Q96.6482 21.715 96.6482 14.4727Q96.6482 6.96068 92.8174 0.846965Q88.9865-5.26675 82.8329-8.59252L82.8329 3.72113Q86.9236 8.0285 86.9236 14.4727Q86.9236 21.3762 82.1169 26.1616Q77.3102 30.947 70.3687 30.947Q65.8459 30.947 62.0907 28.7184Q58.3355 26.4898 56.1193 22.7346Q53.9031 18.9794 53.9031 14.4727Q53.9031 11.2301 55.0947 8.38607Q56.2863 5.54203 58.4031 3.34995L58.4031-8.74025Q52.0859-5.60429 48.1277 0.637982Q44.1696 6.88026 44.1696 14.4727Q44.1696 21.715 47.7364 27.6522Q51.3033 33.5894 57.2552 37.1372Q63.2071 40.685 70.3687 40.685ZM84.8463 26.1617L93.6714 29.1057L109.655-19.4978Q110.228-21.2994 109.436-23.0672Q108.645-24.8351 106.854-25.3815Q104.919-25.9571 103.273-25.0615Q101.626-24.1659 101.082-22.3846ZM34.8047 33.993Q33.2249 34.9999 32.9676 36.6272Q32.7104 38.2544 33.6113 39.5358Q34.5122 40.8172 36.3388 40.8172L104.399 40.8172Q106.212 40.8172 107.077 39.5291Q107.942 38.2411 107.732 36.6139Q107.521 34.9868 105.984 33.993L90.625 23.9627L76.8226 33.4495L63.9952 33.4495L50.1124 23.9627Z"/>
  </g>
  <g id="Semibold-L" transform="matrix(1 0 0 1 1976.86 1556)">
   <path d="M101.998-81.8249Q107.827-81.8249 111.972-85.9826Q116.117-90.1402 116.117-96.0302Q116.117-101.895 111.972-106.022Q107.827-110.149 101.998-110.149Q96.0902-110.149 91.9325-106.022Q87.7749-101.895 87.7749-96.0302Q87.7749-90.1402 91.9325-85.9826Q96.0902-81.8249 101.998-81.8249ZM69.7978 16.5809Q72.6809 16.5809 74.7567 14.5485Q76.8325 12.516 76.8325 9.6885L76.8325-23.5037Q76.8325-25.9104 75.23-27.8716L60.2886-46.1722Q58.9032-47.8671 60.7404-48.8075L78.8058-58.2112Q79.6654-58.6815 80.4016-58.3753Q81.1377-58.0692 81.28-57.1288L82.87-45.9679Q83.3897-42.2369 87.4423-40.2573L105.458-31.2182Q109.232-29.3313 112.06-30.4325Q114.887-31.5336 115.908-33.9772Q116.867-36.2851 116.032-38.9704Q115.197-41.6558 112.01-43.3015L96.0731-51.4L93.5366-70.3747Q92.8128-75.5964 89.1563-79.1324Q85.4997-82.6683 80.2781-83.491Q75.0565-84.3137 69.5502-81.4617L45.7989-69.0633Q40.1937-66.1308 37.8335-61.3793Q35.4733-56.6277 36.3671-51.4647Q37.261-46.3017 41.4188-42.1442L63.0227-20.5957L63.0227 9.6885Q63.0227 12.516 65.0274 14.5485Q67.0321 16.5809 69.7978 16.5809ZM19.0968-23.7131Q21.0273-20.2794 24.3064-19.1349Q27.5854-17.9904 31.143-18.7762L44.8096-21.7765Q48.2247-22.4942 48.2247-25.9531Q48.2247-27.5308 47.2069-28.6383Q46.1891-29.7458 44.6485-30.0057L21.2996-34.0517Q18.101-34.6335 16.7121-32.5267Q15.3231-30.42 16.8449-27.778ZM29.9459-23.554L47.126 27.3994L54.864 24.7065L37.9251-25.9249ZM69.6553 39.3625Q76.8201 39.3625 82.5869 35.9283Q88.3537 32.4942 91.7476 26.7369Q95.1415 20.9795 95.1415 13.9383Q95.1415 6.67979 91.4716 0.782727Q87.8017-5.11433 81.8856-8.35004L81.8856 2.50161Q86.4807 7.04787 86.4807 13.9383Q86.4807 20.9159 81.5786 25.7994Q76.6764 30.683 69.6553 30.683Q65.0901 30.683 61.2766 28.4066Q57.4631 26.1303 55.1992 22.3168Q52.9352 18.5032 52.9352 13.9383Q52.9352 10.4992 54.2649 7.47461Q55.5945 4.45007 57.9077 2.16774L57.9077-8.49256Q51.8492-5.43596 48.0494 0.581706Q44.2495 6.59937 44.2495 13.9383Q44.2495 20.9795 47.7054 26.7369Q51.1612 32.4942 56.928 35.9283Q62.6948 39.3625 69.6553 39.3625ZM84.3728 25.4187L92.2713 28.0556L108.244-20.3888Q108.764-22.0101 108.052-23.5795Q107.34-25.1488 105.755-25.6317Q104.022-26.1332 102.558-25.3409Q101.094-24.5486 100.593-22.9209ZM34.6993 33.3639Q33.2573 34.286 33.0159 35.7623Q32.7746 37.2387 33.5854 38.3929Q34.3962 39.5472 36.0427 39.5472L103.268 39.5472Q104.896 39.5472 105.679 38.3836Q106.462 37.22 106.27 35.7439Q106.078 34.2677 104.673 33.3639L89.6634 23.5452L76.1201 32.8629L63.2709 32.8629L49.6472 23.5452Z"/>
  </g>
  <g id="Medium-L" transform="matrix(1 0 0 1 1680.72 1556)">
   <path d="M101.084-81.4125Q106.799-81.4125 110.86-85.4857Q114.921-89.5589 114.921-95.3446Q114.921-101.093 110.86-105.137Q106.799-109.182 101.084-109.182Q95.2879-109.182 91.2086-105.137Q87.1293-101.093 87.1293-95.3446Q87.1293-89.5589 91.2086-85.4857Q95.2879-81.4125 101.084-81.4125ZM69.2529 15.9101Q72.0474 15.9101 74.0589 13.9461Q76.0704 11.982 76.0704 9.24297L76.0704-23.6409Q76.0704-25.9913 74.5242-27.868L59.6988-46.0246Q58.2287-47.8203 60.1869-48.8293L78.1405-58.1731Q79.0566-58.6717 79.8452-58.3414Q80.6337-58.011 80.7841-57.002L82.3581-45.9089Q82.8616-42.2986 86.8058-40.3753L104.65-31.4244Q108.307-29.5897 111.064-30.6667Q113.821-31.7437 114.794-34.1268Q115.709-36.3624 114.893-38.9392Q114.078-41.516 110.996-43.1094L95.1427-51.1681L92.6142-70.0431Q91.9025-75.1604 88.3163-78.626Q84.73-82.0917 79.6129-82.8943Q74.4958-83.6968 69.0779-80.8971L45.5588-68.6268Q40.0621-65.7467 37.7441-61.0875Q35.4261-56.4283 36.3039-51.3617Q37.1816-46.2952 41.255-42.21L62.699-20.8214L62.699 9.24297Q62.699 11.982 64.6414 13.9461Q66.5838 15.9101 69.2529 15.9101ZM19.0445-24.3057Q20.939-20.9443 24.1376-19.832Q27.3361-18.7197 30.8135-19.4895L44.3479-22.4658Q47.6059-23.1512 47.6059-26.4451Q47.6059-27.9424 46.6405-28.9935Q45.675-30.0447 44.1988-30.2964L21.0701-34.3064Q18.0044-34.8681 16.6778-32.862Q15.3513-30.856 16.8167-28.3266ZM30.0782-23.8492L47.1139 26.6231L54.1494 24.187L37.3428-25.9992ZM69.1144 38.3597Q76.1308 38.3597 81.7572 35.0117Q87.3837 31.6638 90.6914 26.0428Q93.9991 20.4218 93.9991 13.5331Q93.9991 6.46681 90.4512 0.734019Q86.9033-4.99877 81.1674-8.16618L81.1674 1.57691Q86.1449 6.30431 86.1449 13.5331Q86.1449 20.5669 81.1703 25.5248Q76.1958 30.4828 69.1144 30.4828Q64.5171 30.4828 60.6593 28.1702Q56.8015 25.8577 54.5015 21.9999Q52.2014 18.1421 52.2014 13.5331Q52.2014 9.94493 53.6356 6.78351Q55.0698 3.62209 57.5321 1.27133L57.5321-8.30475Q51.6698-5.30832 47.9899 0.539034Q44.31 6.38639 44.31 13.5331Q44.31 20.4218 47.6818 26.0428Q51.0535 31.6638 56.68 35.0117Q62.3064 38.3597 69.1144 38.3597ZM84.0138 24.8552L91.2097 27.2594L107.174-21.0644Q107.653-22.5491 107.002-23.9679Q106.35-25.3867 104.922-25.8214Q103.341-26.2667 102.016-25.5527Q100.691-24.8387 100.221-23.3275ZM34.6194 32.8868Q33.2819 33.7447 33.0526 35.1066Q32.8232 36.4685 33.5657 37.5264Q34.3082 38.5842 35.8182 38.5842L102.411 38.5842Q103.898 38.5842 104.619 37.515Q105.34 36.4459 105.162 35.0841Q104.984 33.7224 103.68 32.8868L88.9342 23.2287L75.5874 32.418L62.7217 32.418L49.2945 23.2287Z"/>
  </g>
  <g id="Regular-L" transform="matrix(1 0 0 1 1384.75 1556)">
   <path d="M99.8904-80.8745Q105.459-80.8745 109.41-84.8376Q113.361-88.8008 113.361-94.4503Q113.361-100.047 109.41-103.984Q105.459-107.921 99.8904-107.921Q94.2414-107.921 90.2643-103.984Q86.2871-100.047 86.2871-94.4503Q86.2871-88.8008 90.2643-84.8376Q94.2414-80.8745 99.8904-80.8745ZM68.5422 15.0351Q71.2212 15.0351 73.1488 13.1603Q75.0763 11.2855 75.0763 8.66184L75.0763-23.8199Q75.0763-26.0968 73.6036-27.8633L58.9293-45.832Q57.3488-47.7593 59.4649-48.8578L77.2728-58.1234Q78.2625-58.6589 79.1195-58.2971Q79.9764-57.9352 80.1373-56.8367L81.6904-45.832Q82.1729-42.379 85.9755-40.5294L103.595-31.6933Q107.1-29.9268 109.765-30.9722Q112.431-32.0177 113.34-34.322Q114.197-36.4632 113.408-38.8984Q112.619-41.3336 109.674-42.8588L93.9292-50.8656L91.4111-69.6106Q90.7152-74.5916 87.2206-77.9656Q83.726-81.3396 78.7452-82.1159Q73.7645-82.8922 68.4618-80.1607L45.2457-68.0575Q39.8905-65.2456 37.6275-60.7069Q35.3646-56.1682 36.2213-51.2274Q37.0781-46.2867 41.0415-42.2958L62.2768-21.1158L62.2768 8.66184Q62.2768 11.2855 64.1379 13.1603Q65.999 15.0351 68.5422 15.0351ZM18.9763-25.0787Q20.8237-21.8117 23.9174-20.7413Q27.011-19.671 30.3836-20.4199L43.7456-23.3648Q46.7988-24.0082 46.7988-27.0869Q46.7988-28.4792 45.9016-29.4568Q45.0044-30.4344 43.6122-30.6757L20.7707-34.6386Q17.8783-35.1741 16.6332-33.2994Q15.3881-31.4246 16.7799-29.0422ZM30.2507-24.2343L47.0982 25.6104L53.2172 23.5095L36.5832-26.0962ZM68.4088 37.0517Q75.2316 37.0517 80.675 33.8162Q86.1184 30.5807 89.3137 25.1375Q92.509 19.6944 92.509 13.0045Q92.509 6.18901 89.1202 0.670486Q85.7314-4.84803 80.2305-7.92636L80.2305 0.370788Q85.7069 5.33445 85.7069 13.0045Q85.7069 20.1116 80.6379 25.1667Q75.5689 30.2217 68.4088 30.2217Q63.7696 30.2217 59.8541 27.8619Q55.9387 25.5021 53.5914 21.5866Q51.2441 17.6712 51.2441 13.0045Q51.2441 9.22203 52.8149 5.88208Q54.3856 2.54213 57.0422 0.102113L57.0422-8.05978Q51.4357-5.14183 47.9124 0.483376Q44.389 6.10859 44.389 13.0045Q44.389 19.6944 47.651 25.1375Q50.913 30.5807 56.3564 33.8162Q61.7998 37.0517 68.4088 37.0517ZM83.5455 24.1204L89.825 26.2208L105.778-21.9457Q106.205-23.252 105.633-24.4745Q105.06-25.697 103.836-26.0689Q102.454-26.4408 101.309-25.829Q100.165-25.2172 99.7374-23.8579ZM34.5152 32.2646Q33.3139 33.0386 33.1003 34.2513Q32.8867 35.4639 33.5401 36.3961Q34.1935 37.3282 35.5254 37.3282L101.293 37.3282Q102.597 37.3282 103.236 36.3821Q103.876 35.4361 103.716 34.2236Q103.557 33.0112 102.383 32.2646L87.9832 22.8157L74.8926 31.8378L62.0054 31.8378L48.8344 22.8157Z"/>
  </g>
  <g id="Light-L" transform="matrix(1 0 0 1 1089.13 1556)">
   <path d="M98.2871-79.8246Q103.704-79.8246 107.578-83.6924Q111.452-87.5602 111.452-93.057Q111.452-98.5198 107.578-102.371Q103.704-106.222 98.2871-106.222Q92.7911-106.222 88.8997-102.371Q85.0084-98.5198 85.0084-93.057Q85.0084-87.5602 88.8997-83.6924Q92.7911-79.8246 98.2871-79.8246ZM67.2827 14.1764Q69.9235 14.1764 71.7938 12.3398Q73.6642 10.5031 73.6642 7.95576L73.6642-23.7436Q73.6642-25.9823 72.2296-27.6914L57.9177-45.2404Q56.3564-47.1103 58.4343-48.1899L75.8225-57.2455Q76.7737-57.7621 77.6116-57.4002Q78.4495-57.0383 78.6103-55.9588L80.1252-45.2404Q80.6078-41.9019 84.3151-40.0522L101.495-31.4451Q104.867-29.736 107.485-30.7814Q110.102-31.8269 110.974-34.112Q111.812-36.1768 111.061-38.5166Q110.31-40.8564 107.441-42.3242L92.097-50.1402L89.617-68.4463Q88.9404-73.3128 85.5315-76.601Q82.1227-79.8892 77.2566-80.6463Q72.3905-81.4034 67.2023-78.7293L44.5585-66.9314Q39.337-64.1768 37.1219-59.7526Q34.9067-55.3284 35.7442-50.5021Q36.5817-45.6758 40.4499-41.7613L61.1888-21.1158L61.1888 7.95576Q61.1888 10.5031 63.0023 12.3398Q64.8157 14.1764 67.2827 14.1764ZM18.9189-24.9832Q20.7092-21.7925 23.7456-20.7604Q26.7821-19.7284 30.0402-20.4391L43.0777-23.3074Q46.0735-23.9508 46.0735-26.9343Q46.0735-28.2884 45.1954-29.2469Q44.3173-30.2055 42.9631-30.4467L20.6752-34.3141Q17.8402-34.8307 16.6238-32.9941Q15.4073-31.1575 16.7606-28.8514ZM30.5371-23.8335L47.079 25.0569L52.1485 23.3376L35.8008-25.3709ZM67.1682 35.1813Q73.7047 35.1813 78.881 32.1271Q84.0572 29.073 87.0712 23.8971Q90.0851 18.7212 90.0851 12.2984Q90.0851 5.94082 87.0494 0.804039Q84.0137-4.33274 78.9899-7.31551L78.9899-0.507167Q84.6381 4.55205 84.6381 12.2984Q84.6381 19.4819 79.5119 24.5845Q74.3857 29.6872 67.1682 29.6872Q62.4908 29.6872 58.5372 27.3083Q54.5836 24.9294 52.1982 20.9758Q49.8127 17.0222 49.8127 12.2984Q49.8127 8.45854 51.4407 5.06136Q53.0686 1.66417 55.7826-0.794761L55.7826-7.43002Q50.6915-4.6073 47.5116 0.626549Q44.3316 5.8604 44.3316 12.2984Q44.3316 18.7212 47.4029 23.8971Q50.4741 29.073 55.6503 32.1271Q60.8266 35.1813 67.1682 35.1813ZM82.0952 23.8151L87.3248 25.5336L103.354-22.5184Q103.743-23.6718 103.247-24.6557Q102.75-25.6396 101.737-25.9352Q100.622-26.2308 99.6583-25.724Q98.695-25.2172 98.3059-24.0297ZM34.2481 31.2529Q33.1613 31.9506 32.9668 33.0012Q32.7722 34.0518 33.3493 34.8502Q33.9264 35.6486 35.0675 35.6486L99.2696 35.6486Q100.364 35.6486 100.918 34.8266Q101.471 34.0047 101.34 32.9545Q101.209 31.9043 100.17 31.2529L86.2654 22.1097L73.5757 30.8646L60.8411 30.8646L48.0709 22.1097Z"/>
  </g>
  <g id="Thin-L" transform="matrix(1 0 0 1 793.857 1556)">
   <path d="M96.1666-78.4362Q101.381-78.4362 105.155-82.1778Q108.928-85.9194 108.928-91.2144Q108.928-96.5003 105.155-100.238Q101.381-103.976 96.1666-103.976Q90.8729-103.976 87.095-100.238Q83.3171-96.5003 83.3171-91.2144Q83.3171-85.9194 87.095-82.1778Q90.8729-78.4362 96.1666-78.4362ZM65.6169 13.0407Q68.2072 13.0407 70.0018 11.2545Q71.7964 9.46834 71.7964 7.0219L71.7964-23.6427Q71.7964-25.8309 70.4124-27.4641L56.5797-44.458Q55.0438-46.252 57.0712-47.3065L73.9043-56.0843Q74.8046-56.5759 75.6173-56.214Q76.4299-55.8521 76.5908-54.7976L78.0552-44.458Q78.5378-41.2708 82.1191-39.4212L98.7188-31.1168Q101.914-29.4836 104.468-30.5291Q107.023-31.5746 107.844-33.8342Q108.656-35.7981 107.956-38.0117Q107.255-40.2254 104.487-41.6173L89.6737-49.1809L87.2442-66.9064Q86.593-71.6216 83.2976-74.7963Q80.0022-77.9711 75.2877-78.7027Q70.5732-79.4343 65.5364-76.8361L43.6497-65.442Q38.605-62.7633 36.4531-58.4905Q34.3011-54.2177 35.1131-49.5428Q35.9252-44.8679 39.6674-41.0543L59.7499-21.1158L59.7499 7.0219Q59.7499 9.46834 61.5004 11.2545Q63.2508 13.0407 65.6169 13.0407ZM18.843-24.8568Q20.5578-21.767 23.5185-20.7857Q26.4793-19.8043 29.586-20.4646L42.1943-23.2315Q45.1142-23.8748 45.1142-26.7324Q45.1142-28.0361 44.2613-28.9694Q43.4084-29.9027 42.1048-30.1439L20.5488-33.8849Q17.7897-34.3765 16.6112-32.5904Q15.4328-30.8042 16.7352-28.599ZM30.9158-23.3033L47.0535 24.3249L50.735 23.1103L34.766-24.4116ZM65.5274 32.7076Q71.6852 32.7076 76.5082 29.8932Q81.3312 27.0789 84.1053 22.2565Q86.8794 17.4341 86.8794 11.3646Q86.8794 5.61257 84.3106 0.980674Q81.7418-3.65122 77.3491-6.50761L77.3491-1.66833Q83.2246 3.51727 83.2246 11.3646Q83.2246 18.649 78.0227 23.8146Q72.8208 28.9802 65.5274 28.9802Q60.7995 28.9802 56.7954 26.5761Q52.7914 24.1719 50.3555 20.1679Q47.9196 16.1638 47.9196 11.3646Q47.9196 7.44878 49.6232 3.97589Q51.3269 0.503004 54.1168-1.98095L54.1168-6.5971Q49.7072-3.90034 46.9814 0.815907Q44.2557 5.53215 44.2557 11.3646Q44.2557 17.4341 47.0746 22.2565Q49.8935 27.0789 54.7165 29.8932Q59.5395 32.7076 65.5274 32.7076ZM80.177 23.4114L84.0181 24.6248L100.149-23.2758Q100.487-24.2269 100.092-24.8953Q99.6959-25.5637 98.96-25.7583Q98.1982-25.953 97.4748-25.5851Q96.7514-25.2172 96.4128-24.2571ZM33.8948 29.9149Q32.9594 30.5117 32.7901 31.3479Q32.6208 32.1841 33.097 32.8056Q33.5731 33.4272 34.4619 33.4272L96.594 33.4272Q97.4103 33.4272 97.8507 32.7693Q98.2912 32.1115 98.1978 31.2759Q98.1044 30.4403 97.2416 29.9149L83.9936 21.1758L71.834 29.5775L59.3012 29.5775L47.0612 21.1758Z"/>
  </g>
  <g id="Ultralight-L" transform="matrix(1 0 0 1 497.883 1556)">
   <path d="M95.0806-77.725Q100.192-77.725 103.913-81.402Q107.635-85.079 107.635-90.2705Q107.635-95.4659 103.913-99.1455Q100.192-102.825 95.0806-102.825Q89.8904-102.825 86.1706-99.1455Q82.4508-95.4659 82.4508-90.2705Q82.4508-85.079 86.1706-81.402Q89.8904-77.725 95.0806-77.725ZM64.7636 12.4589Q67.3281 12.4589 69.084 10.6986Q70.8398 8.93833 70.8398 6.54359L70.8398-23.591Q70.8398-25.7534 69.4816-27.3477L55.8943-44.0572Q54.3715-45.8123 56.3731-46.854L72.9218-55.4896Q73.7961-55.9683 74.5958-55.6064Q75.3955-55.2445 75.5564-54.2028L76.995-44.0572Q77.4775-40.9476 80.9944-39.0979L97.2967-30.9487Q100.401-29.3544 102.923-30.3999Q105.446-31.4453 106.241-33.6919Q107.04-35.6041 106.366-37.7531Q105.691-39.9021 102.975-41.2552L88.4325-48.6896L86.0289-66.1177Q85.3907-70.7553 82.1534-73.8719Q78.9162-76.9886 74.2793-77.7072Q69.6424-78.4258 64.6832-75.8664L43.1842-64.6791Q38.2301-62.0393 36.1105-57.8441Q33.9909-53.6488 34.7899-49.0515Q35.5889-44.4541 39.2666-40.6922L59.0129-21.1158L59.0129 6.54359Q59.0129 8.93833 60.7311 10.6986Q62.4493 12.4589 64.7636 12.4589ZM18.8042-24.7921Q20.4803-21.754 23.4022-20.7986Q26.3242-19.8432 29.3533-20.4776L41.7418-23.1926Q44.6228-23.836 44.6228-26.6291Q44.6228-27.9068 43.7829-28.8272Q42.9429-29.7476 41.6651-29.9888L20.484-33.6651Q17.7639-34.1439 16.6048-32.3836Q15.4458-30.6233 16.7222-28.4698ZM31.1098-23.0318L47.0405 23.95L50.011 22.9938L34.236-23.9202ZM64.687 31.4405Q70.6508 31.4405 75.2928 28.749Q79.9349 26.0575 82.5862 21.4162Q85.2375 16.7748 85.2375 10.8863Q85.2375 5.44444 82.9078 1.07115Q80.5782-3.30215 76.5087-6.09381L76.5087-2.26308Q82.5006 2.98725 82.5006 10.8863Q82.5006 18.2223 77.26 23.4202Q72.0193 28.6181 64.687 28.6181Q59.9332 28.6181 55.9033 26.2011Q51.8734 23.784 49.4117 19.7541Q46.9499 15.7241 46.9499 10.8863Q46.9499 6.93158 48.6923 3.41992Q50.4348-0.0917401 53.2636-2.58851L53.2636-6.17048Q49.203-3.53823 46.7099 0.912895Q44.2168 5.36402 44.2168 10.8863Q44.2168 16.7748 46.9065 21.4162Q49.5961 26.0575 54.2382 28.749Q58.8802 31.4405 64.687 31.4405ZM79.1946 23.2046L82.3245 24.1593L98.5068-23.6638Q98.8195-24.5112 98.4755-25.018Q98.1314-25.5248 97.5379-25.6678Q96.9571-25.8107 96.3565-25.514Q95.7559-25.2172 95.4431-24.3735ZM33.7139 29.2296Q32.856 29.7746 32.6997 30.501Q32.5433 31.2274 32.9677 31.7584Q33.3922 32.2894 34.1517 32.2894L95.2236 32.2894Q95.8975 32.2894 96.2799 31.7156Q96.6623 31.1418 96.5882 30.4162Q96.5141 29.6905 95.7419 29.2296L82.8299 20.6975L70.9418 28.9182L58.5125 28.9182L46.544 20.6975Z"/>
  </g>
  <g id="Black-M" transform="matrix(1 0 0 1 2879.31 1126)">
   <path d="M83.324-73.1571Q88.3831-73.1571 92.016-76.7928Q95.6488-80.4285 95.6488-85.4929Q95.6488-90.6089 92.016-94.2133Q88.3831-97.8177 83.324-97.8177Q78.2025-97.8177 74.5955-94.2133Q70.9884-90.6089 70.9884-85.4929Q70.9884-80.4285 74.5955-76.7928Q78.2025-73.1571 83.324-73.1571ZM56.5337 8.17227Q59.2235 8.17227 61.1531 6.24817Q63.0827 4.32407 63.0827 1.69071L63.0827-25.392Q63.0827-27.542 61.5558-29.4897L49.4894-44.288Q48.871-45.0471 49.6403-45.4058L64.0856-52.9373Q64.4393-53.1454 64.7253-53.0363Q65.0113-52.9272 65.0788-52.5685L66.3825-43.6599Q66.8705-40.1693 70.5529-38.3367L85.2736-30.9451Q88.7696-29.2257 91.3169-30.207Q93.8642-31.1882 94.8979-33.395Q95.869-35.5403 95.1286-38.1636Q94.3882-40.7868 91.3915-42.3192L78.7377-48.7394L76.7433-63.8185Q76.1252-68.3786 72.9491-71.4613Q69.773-74.5439 65.2128-75.2815Q60.6527-76.019 55.9575-73.552L36.5205-63.3712Q31.6486-60.8419 29.6126-56.71Q27.5767-52.5782 28.348-48.1063Q29.1193-43.6344 32.755-40.056L50.1712-22.6963L50.1712 1.69071Q50.1712 4.32407 52.0384 6.24817Q53.9055 8.17227 56.5337 8.17227ZM15.0525-23.1347Q16.72-20.117 19.6672-19.0729Q22.6144-18.0288 25.7572-18.7095L36.9352-21.1353Q40.3936-21.8621 40.3936-25.3835Q40.3936-27.0194 39.3343-28.1696Q38.2749-29.3198 36.7532-29.5638L17.6851-32.857Q14.5226-33.4076 13.1256-31.2551Q11.7286-29.1026 13.1933-26.4849ZM22.5969-24.4835L36.5679 17.2172L45.9282 13.8993L32.2015-27.3799ZM56.4088 27.2367Q62.6485 27.2367 67.7691 24.1812Q72.8896 21.1256 75.914 16.0336Q78.9384 10.9416 78.9384 4.76968Q78.9384-1.7166 75.5688-7.02578Q72.1992-12.335 66.8237-15.1711L66.8237-1.39691Q68.4158 1.19803 68.4158 4.76968Q68.4158 9.90358 64.982 13.309Q61.5481 16.7144 56.4088 16.7144Q53.0293 16.7144 50.2961 15.1362Q47.563 13.5581 45.9877 10.8249Q44.4124 8.09182 44.4124 4.76968Q44.4124 2.87516 44.9076 1.23766Q45.4028-0.399837 46.4251-1.81193L46.4251-15.296Q40.8673-12.6416 37.4044-7.21023Q33.9415-1.7789 33.9415 4.76968Q33.9415 10.9416 36.9997 16.0336Q40.058 21.1256 45.1786 24.1812Q50.2991 27.2367 56.4088 27.2367ZM66.7757 14.6385L76.2606 17.7851L88.7048-20.3469Q89.3075-22.2752 88.4628-24.2074Q87.618-26.1396 85.6318-26.7429Q83.572-27.4033 81.7652-26.4102Q79.9585-25.4171 79.4128-23.5975ZM27.2155 20.096Q25.5836 21.125 25.3394 22.8199Q25.0951 24.5147 26.0592 25.8743Q27.0234 27.2339 28.9574 27.2339L83.8601 27.2339Q85.7944 27.2339 86.7016 25.8744Q87.6088 24.515 87.3956 22.8202Q87.1823 21.1253 85.6072 20.096L72.7447 11.7428L61.3476 19.5503L51.5322 19.5503L40.0728 11.7428Z"/>
  </g>
  <g id="Heavy-M" transform="matrix(1 0 0 1 2583.31 1126)">
   <path d="M82.139-72.693Q87.043-72.693 90.551-76.2082Q94.0591-79.7233 94.0591-84.646Q94.0591-89.5958 90.551-93.081Q87.043-96.5661 82.139-96.5661Q77.1728-96.5661 73.6783-93.081Q70.1838-89.5958 70.1838-84.646Q70.1838-79.7233 73.6783-76.2082Q77.1728-72.693 82.139-72.693ZM55.8933 7.23527Q58.4433 7.23527 60.2777 5.41734Q62.112 3.59942 62.112 1.09755L62.112-25.6378Q62.112-27.7018 60.671-29.5206L48.7205-44.1683Q47.9565-45.1084 48.9363-45.5858L63.2849-53.0623Q63.7413-53.3217 64.119-53.1721Q64.4968-53.0226 64.5778-52.5452L65.8629-43.6885Q66.324-40.3749 69.8454-38.6366L84.3725-31.343Q87.7024-29.6987 90.1423-30.6395Q92.5821-31.5804 93.5433-33.6903Q94.4445-35.7311 93.7294-38.1933Q93.0143-40.6555 90.176-42.1129L77.5759-48.5075L75.5867-63.5143Q74.9846-67.9243 71.9076-70.9079Q68.8306-73.8915 64.4205-74.5995Q60.0105-75.3075 55.4384-72.9156L36.2668-62.8834Q31.5475-60.4292 29.5718-56.4272Q27.5962-52.4252 28.3447-48.0899Q29.0932-43.7546 32.6084-40.2808L49.8638-23.0736L49.8638 1.09755Q49.8638 3.59942 51.6369 5.41734Q53.4101 7.23527 55.8933 7.23527ZM14.9775-24.1459Q16.5969-21.2329 19.4219-20.2343Q22.2469-19.2357 25.28-19.8979L36.3067-22.2999Q39.5149-22.9729 39.5149-26.2389Q39.5149-27.7484 38.539-28.8085Q37.563-29.8686 36.1407-30.0991L17.322-33.3525Q14.3692-33.8736 13.0704-31.8812Q11.7716-29.8888 13.1503-27.443ZM22.7566-25.0631L36.5519 16.0381L44.9631 13.0678L31.396-27.6601ZM55.7709 25.962Q61.8241 25.962 66.7674 23.0117Q71.7107 20.0613 74.6299 15.1398Q77.5491 10.2183 77.5491 4.2439Q77.5491-2.01934 74.3077-7.13589Q71.0662-12.2524 65.8894-14.995L65.8894-2.7542Q68.084 0.123031 68.084 4.2439Q68.084 9.45539 64.5414 12.975Q60.9989 16.4946 55.7709 16.4946Q52.3459 16.4946 49.547 14.8599Q46.7481 13.2253 45.1206 10.4265Q43.493 7.62758 43.493 4.2439Q43.493 2.11261 44.1508 0.258589Q44.8087-1.59544 46.0677-3.11786L46.0677-15.1173Q40.7272-12.543 37.3911-7.31232Q34.0551-2.08165 34.0551 4.2439Q34.0551 10.2183 37.0137 15.1398Q39.9722 20.0613 44.9155 23.0117Q49.8588 25.962 55.7709 25.962ZM66.4871 13.7622L75.0228 16.6016L87.4368-21.3534Q87.9806-23.086 87.2202-24.8178Q86.4597-26.5496 84.6903-27.0888Q82.8279-27.6716 81.2139-26.7869Q79.5999-25.9022 79.0998-24.2403ZM27.1393 19.5158Q25.6575 20.4538 25.4293 21.9921Q25.201 23.5305 26.0673 24.7576Q26.9337 25.9848 28.6805 25.9848L82.8614 25.9848Q84.606 25.9848 85.4275 24.7565Q86.2491 23.5282 86.0532 21.9899Q85.8572 20.4515 84.4213 19.5158L71.8947 11.3652L60.74 19.0157L50.8642 19.0157L39.6472 11.3652Z"/>
  </g>
  <g id="Bold-M" transform="matrix(1 0 0 1 2287.41 1126)">
   <path d="M80.8134-72.1739Q85.5438-72.1739 88.9123-75.5542Q92.2808-78.9345 92.2808-83.6986Q92.2808-88.4626 88.9123-91.8143Q85.5438-95.166 80.8134-95.166Q76.0209-95.166 72.6523-91.8143Q69.2837-88.4626 69.2837-83.6986Q69.2837-78.9345 72.6523-75.5542Q76.0209-72.1739 80.8134-72.1739ZM55.177 6.1871Q57.5705 6.1871 59.2983 4.48794Q61.0261 2.78878 61.0261 0.43402L61.0261-25.9127Q61.0261-27.8806 59.6813-29.5551L47.8604-44.0344Q46.9336-45.1769 48.1487-45.7872L62.3893-53.202Q62.9605-53.5189 63.4409-53.3241Q63.9212-53.1294 64.0173-52.5192L65.2817-43.7204Q65.7126-40.6049 69.0539-38.972L83.3645-31.7882Q86.5086-30.2278 88.8282-31.1234Q91.1479-32.0191 92.028-34.0206Q92.851-35.9444 92.1642-38.2265Q91.4774-40.5086 88.8164-41.882L76.2763-48.2481L74.2928-63.174Q73.7087-67.4162 70.7425-70.2889Q67.7763-73.1616 63.5342-73.8366Q59.292-74.5116 54.8577-72.2036L35.9829-62.3378Q31.4344-59.9676 29.5262-56.1109Q27.618-52.2542 28.341-48.0717Q29.064-43.8892 32.4443-40.5323L49.5198-23.4957L49.5198 0.43402Q49.5198 2.78878 51.1879 4.48794Q52.856 6.1871 55.177 6.1871ZM14.8935-25.2772Q16.4591-22.4811 19.1474-21.5335Q21.8357-20.5859 24.7462-21.2272L35.6037-23.6027Q38.532-24.2154 38.532-27.1958Q38.532-28.5639 37.6493-29.5232Q36.7666-30.4824 35.4556-30.6979L16.9158-33.9068Q14.1977-34.395 13.0087-32.5816Q11.8197-30.7683 13.1021-28.5148ZM22.9351-25.7114L36.5339 14.7191L43.8834 12.1377L30.4949-27.9734ZM55.0574 24.5362Q60.9019 24.5362 65.6469 21.7034Q70.3919 18.8706 73.1935 14.1399Q75.9951 9.40927 75.9951 3.65573Q75.9951-2.35801 72.897-7.25908Q69.7989-12.1601 64.8443-14.7979L64.8443-4.27253Q67.7128-1.07951 67.7128 3.65573Q67.7128 8.95403 64.0486 12.6013Q60.3844 16.2487 55.0574 16.2487Q51.5815 16.2487 48.709 14.5509Q45.8366 12.8531 44.1506 9.98068Q42.4646 7.10826 42.4646 3.65573Q42.4646 1.2596 43.3043-0.836644Q44.144-2.93288 45.6679-4.57873L45.6679-14.9174Q40.5704-12.4327 37.3763-7.42653Q34.1821-2.42031 34.1821 3.65573Q34.1821 9.40927 37.0292 14.1399Q39.8763 18.8706 44.6213 21.7034Q49.3663 24.5362 55.0574 24.5362ZM66.1642 12.7819L73.6382 15.2777L86.0184-22.4793Q86.4962-23.993 85.8301-25.5006Q85.164-27.0083 83.6371-27.4757Q81.9956-27.9718 80.5972-27.2083Q79.1988-26.4448 78.7496-24.9595ZM27.054 18.8667Q25.7402 19.7028 25.5298 21.0662Q25.3195 22.4296 26.0764 23.5085Q26.8334 24.5875 28.3707 24.5875L81.7443 24.5875Q83.2765 24.5875 84.0023 23.5059Q84.7281 22.4244 84.5515 21.0611Q84.3749 19.6977 83.0947 18.8667L70.9439 10.9429L60.0603 18.4176L50.1169 18.4176L39.171 10.9429Z"/>
  </g>
  <g id="Semibold-M" transform="matrix(1 0 0 1 1991.25 1126)">
   <path d="M79.8996-71.8161Q84.5103-71.8161 87.7826-75.1034Q91.0549-78.3906 91.0549-83.0455Q91.0549-87.6813 87.7826-90.941Q84.5103-94.2007 79.8996-94.2007Q75.2267-94.2007 71.945-90.941Q68.6632-87.6813 68.6632-83.0455Q68.6632-78.3906 71.945-75.1034Q75.2267-71.8161 79.8996-71.8161ZM54.6831 5.4645Q56.9689 5.4645 58.6232 3.84722Q60.2775 2.22994 60.2775-0.0234163L60.2775-26.1023Q60.2775-28.0039 58.999-29.5789L47.2675-43.9421Q46.2283-45.2242 47.6058-45.926L61.7718-53.2984Q62.4222-53.6548 62.9733-53.4289Q63.5245-53.203 63.6309-52.5012L64.881-43.7424Q65.2911-40.7634 68.5083-39.2033L82.6696-32.095Q85.6856-30.5926 87.9224-31.457Q90.1592-32.3215 90.9834-34.2482Q91.7524-36.0915 91.0851-38.2494Q90.4179-40.4074 87.879-41.7229L75.3804-48.0692L73.4009-62.9394Q72.8291-67.0658 69.9393-69.8622Q67.0495-72.6585 62.9232-73.3107Q58.7968-73.9629 54.4574-71.7128L35.7872-61.9617Q31.3564-59.6493 29.4948-55.8928Q27.6331-52.1362 28.3385-48.0591Q29.0439-43.982 32.3313-40.7057L49.2827-23.7866L49.2827-0.0234163Q49.2827 2.22994 50.8783 3.84722Q52.4739 5.4645 54.6831 5.4645ZM14.8356-26.0571Q16.3642-23.3416 18.9582-22.4291Q21.5523-21.5167 24.3782-22.1437L35.119-24.5009Q37.8543-25.0719 37.8543-27.8555Q37.8543-29.1262 37.036-30.0159Q36.2176-30.9056 34.9833-31.1107L16.6357-34.289Q14.0795-34.7544 12.9662-33.0644Q11.8529-31.3745 13.069-29.2536ZM23.0582-26.1584L36.5215 13.8098L43.1391 11.4964L29.8737-28.1894ZM54.5656 23.5532Q60.2661 23.5532 64.8744 20.8015Q69.4827 18.0498 72.2032 13.4506Q74.9237 8.8515 74.9237 3.25025Q74.9237-2.59148 71.9245-7.344Q68.9252-12.0965 64.1238-14.6621L64.1238-5.31926Q67.4569-1.90854 67.4569 3.25025Q67.4569 8.60839 63.7088 12.3438Q59.9608 16.0791 54.5656 16.0791Q51.0545 16.0791 48.1313 14.3378Q45.2082 12.5965 43.4819 9.67337Q41.7555 6.75024 41.7555 3.25025Q41.7555 0.671531 42.7207-1.59169Q43.6858-3.85491 45.3923-5.58585L45.3923-14.7796Q40.4623-12.3567 37.366-7.50526Q34.2697-2.65378 34.2697 3.25025Q34.2697 8.8515 37.0399 13.4506Q39.8102 18.0498 44.4185 20.8015Q49.0268 23.5532 54.5656 23.5532ZM65.9416 12.1061L72.6837 14.3649L85.0406-23.2554Q85.4728-24.6183 84.8718-25.9714Q84.2708-27.3245 82.911-27.7425Q81.4219-28.1787 80.1721-27.4988Q78.9223-26.8189 78.5082-25.4553ZM26.9953 18.4193Q25.7971 19.1852 25.5992 20.4279Q25.4012 21.6706 26.0827 22.6474Q26.7642 23.6242 28.1571 23.6242L80.9741 23.6242Q82.3599 23.6242 83.0197 22.6438Q83.6795 21.6634 83.5163 20.4208Q83.353 19.1781 82.1802 18.4193L70.2884 10.6517L59.5917 18.0053L49.6018 18.0053L38.8427 10.6517Z"/>
  </g>
  <g id="Medium-M" transform="matrix(1 0 0 1 1694.96 1126)">
   <path d="M79.2067-71.5447Q83.7266-71.5447 86.926-74.7615Q90.1253-77.9783 90.1253-82.5502Q90.1253-87.089 86.926-90.2789Q83.7266-93.4689 79.2067-93.4689Q74.6246-93.4689 71.4086-90.2789Q68.1927-87.089 68.1927-82.5502Q68.1927-77.9783 71.4086-74.7615Q74.6246-71.5447 79.2067-71.5447ZM54.3087 4.91659Q56.5126 4.91659 58.1113 3.3614Q59.7099 1.8062 59.7099-0.370264L59.7099-26.246Q59.7099-28.0973 58.4816-29.597L46.8179-43.8721Q45.6936-45.26 47.1942-46.0312L61.3036-53.3714Q62.014-53.7579 62.6188-53.5084Q63.2236-53.2588 63.338-52.4876L64.5771-43.7591Q64.9715-40.8836 68.0946-39.3787L82.1427-32.3277Q85.0615-30.8692 87.2355-31.71Q89.4095-32.5508 90.1913-34.4209Q90.9194-36.203 90.267-38.2668Q89.6145-40.3306 87.1683-41.6022L74.7011-47.9336L72.7245-62.7615Q72.1622-66.8002 69.3303-69.5386Q66.4985-72.277 62.4599-72.9119Q58.4212-73.5468 54.1539-71.3407L35.6388-61.6765Q31.2973-59.408 29.4709-55.7274Q27.6445-52.0468 28.3366-48.0496Q29.0287-44.0523 32.2455-40.8372L49.1029-24.0073L49.1029-0.370264Q49.1029 1.8062 50.6436 3.3614Q52.1843 4.91659 54.3087 4.91659ZM14.7917-26.6484Q16.2922-23.9941 18.8148-23.1082Q21.3374-22.2224 24.0991-22.8385L34.7515-25.1819Q37.3405-25.7214 37.3405-28.3557Q37.3405-29.5525 36.5709-30.3895Q35.8014-31.2265 34.6251-31.4237L16.4234-34.5787Q13.9898-35.0269 12.9339-33.4306Q11.878-31.8343 13.0438-29.8139ZM23.1516-26.4974L36.5122 13.1204L42.5748 11.0102L29.4027-28.3532ZM54.1926 22.8078Q59.784 22.8078 64.2887 20.1176Q68.7933 17.4274 71.4523 12.928Q74.1114 8.42857 74.1114 2.9428Q74.1114-2.76851 71.187-7.40839Q68.2627-12.0483 63.5775-14.5591L63.5775-6.11293Q67.2628-2.53714 67.2628 2.9428Q67.2628 8.34632 63.4512 12.1484Q59.6396 15.9506 54.1926 15.9506Q50.6549 15.9506 47.6933 14.1763Q44.7317 12.4019 42.9748 9.44036Q41.2179 6.47878 41.2179 2.9428Q41.2179 0.225636 42.2782-2.1642Q43.3384-4.55403 45.1833-6.34948L45.1833-14.6751Q40.3804-12.2991 37.3583-7.56495Q34.3361-2.83081 34.3361 2.9428Q34.3361 8.42857 37.0481 12.928Q39.76 17.4274 44.2647 20.1176Q48.7693 22.8078 54.1926 22.8078ZM65.7728 11.5937L71.9599 13.6729L84.2992-23.844Q84.6969-25.0924 84.1452-26.3283Q83.5935-27.5642 82.3604-27.9448Q80.9868-28.3356 79.8497-27.7191Q78.7126-27.1026 78.3252-25.8312ZM26.9507 18.08Q25.8403 18.7926 25.6517 19.9438Q25.4631 21.0951 26.0874 21.9944Q26.7118 22.8938 27.9952 22.8938L80.3902 22.8938Q81.6649 22.8938 82.2747 21.9901Q82.8845 21.0864 82.7313 19.9353Q82.5781 18.7841 81.4867 18.08L69.7914 10.4309L59.2364 17.6927L49.2112 17.6927L38.5938 10.4309Z"/>
  </g>
  <g id="Regular-M" transform="matrix(1 0 0 1 1398.8 1126)">
   <path d="M78.3029-71.1908Q82.7045-71.1908 85.8087-74.3156Q88.9129-77.4404 88.9129-81.9043Q88.9129-86.3163 85.8087-89.4153Q82.7045-92.5142 78.3029-92.5142Q73.8392-92.5142 70.7091-89.4153Q67.579-86.3163 67.579-81.9043Q67.579-77.4404 70.7091-74.3156Q73.8392-71.1908 78.3029-71.1908ZM53.8203 4.20193Q55.9175 4.20193 57.4435 2.72771Q58.9695 1.2535 58.9695-0.822673L58.9695-26.4335Q58.9695-28.2192 57.8068-29.6205L46.2315-43.7808Q44.9961-45.3067 46.6572-46.1685L60.6929-53.4667Q61.4816-53.8924 62.1564-53.612Q62.8312-53.3316 62.9558-52.4698L64.1808-43.7808Q64.5547-41.0404 67.5549-39.6074L81.4554-32.6312Q84.2475-31.23 86.3396-32.0399Q88.4316-32.8499 89.1582-34.6461Q89.8329-36.3484 89.1998-38.2894Q88.5667-40.2305 86.2413-41.4448L73.815-47.7567L71.8424-62.5295Q71.2922-66.4537 68.536-69.1165Q65.7797-71.7794 61.8555-72.3918Q57.9314-73.0042 53.758-70.8552L35.4453-61.3045Q31.2202-59.0932 29.4398-55.5117Q27.6594-51.9302 28.3341-48.0371Q29.0088-44.144 32.1337-41.0087L48.8684-24.295L48.8684-0.822673Q48.8684 1.2535 50.3374 2.72771Q51.8064 4.20193 53.8203 4.20193ZM14.7345-27.4197Q16.1982-24.8451 18.6276-23.994Q21.057-23.143 23.7351-23.7449L34.2722-26.0701Q36.6703-26.5686 36.6703-29.0081Q36.6703-30.1085 35.9643-30.8768Q35.2584-31.645 34.158-31.8319L16.1464-34.9566Q13.8729-35.3823 12.8918-33.9081Q11.9108-32.4339 13.011-30.5446ZM23.2733-26.9394L36.4999 12.2211L41.8387 10.376L28.7884-28.5669ZM53.7061 21.8356Q59.1553 21.8356 63.5247 19.2256Q67.8941 16.6156 70.473 12.2463Q73.0518 7.87693 73.0518 2.54178Q73.0518-2.99941 70.2252-7.49238Q67.3986-11.9853 62.8649-14.4247L62.8649-7.14816Q67.0097-3.35705 67.0097 2.54178Q67.0097 8.00448 63.1152 11.8937Q59.2207 15.7829 53.7061 15.7829Q50.1337 15.7829 47.122 13.9655Q44.1102 12.1481 42.3135 9.13642Q40.5167 6.1247 40.5167 2.54178Q40.5167-0.355967 41.701-2.91095Q42.8852-5.46593 44.9107-7.34553L44.9107-14.5389Q40.2735-12.2239 37.3481-7.64282Q34.4228-3.06172 34.4228 2.54178Q34.4228 7.87693 37.0587 12.2463Q39.6946 16.6156 44.064 19.2256Q48.4335 21.8356 53.7061 21.8356ZM65.5527 10.9253L71.0159 12.7702L83.3321-24.6116Q83.6848-25.7109 83.1974-26.7939Q82.71-27.877 81.6423-28.2086Q80.4193-28.5402 79.4292-28.0064Q78.4391-27.4726 78.0864-26.3215ZM26.8926 17.6375Q25.8967 18.2807 25.7203 19.3125Q25.5439 20.3444 26.0936 21.1427Q26.6433 21.9411 27.784 21.9411L79.6285 21.9411Q80.7585 21.9411 81.3029 21.1374Q81.8474 20.3338 81.7074 19.302Q81.5674 18.2702 80.5822 17.6375L69.1431 10.143L58.7729 17.2849L48.7016 17.2849L38.2691 10.143Z"/>
  </g>
  <g id="Light-M" transform="matrix(1 0 0 1 1103.06 1126)">
   <path d="M76.8655-70.2496Q81.1302-70.2496 84.166-73.2889Q87.2017-76.3281 87.2017-80.6552Q87.2017-84.9473 84.166-87.9694Q81.1302-90.9914 76.8655-90.9914Q72.5389-90.9914 69.4857-87.9694Q66.4325-84.9473 66.4325-80.6552Q66.4325-76.3281 69.4857-73.2889Q72.5389-70.2496 76.8655-70.2496ZM52.691 3.43205Q54.7541 3.43205 56.2288 1.99204Q57.7034 0.552034 57.7034-1.45571L57.7034-26.3651Q57.7034-28.1166 56.5749-29.4664L45.3245-43.2504Q44.1063-44.7249 45.7332-45.5697L59.3926-52.6796Q60.1468-53.0883 60.8045-52.8079Q61.4622-52.5275 61.5868-51.6827L62.7776-43.2504Q63.1515-40.6126 66.0664-39.1796L79.5733-32.4087Q82.2455-31.0589 84.2948-31.8689Q86.3442-32.6788 87.0365-34.4578Q87.694-36.0917 87.0951-37.9472Q86.4962-39.8027 84.2392-40.9656L72.1723-47.1064L70.2339-61.4856Q69.701-65.3072 67.0216-67.8931Q64.3422-70.4791 60.5209-71.0742Q56.6995-71.6694 52.6287-69.5719L34.8292-60.2948Q30.724-58.1351 28.9864-54.6561Q27.2488-51.1772 27.9063-47.3868Q28.5638-43.5964 31.6033-40.5295L47.893-24.295L47.893-1.45571Q47.893 0.552034 49.3193 1.99204Q50.7456 3.43205 52.691 3.43205ZM14.683-27.3341Q16.0956-24.8279 18.4737-24.0111Q20.8518-23.1944 23.4272-23.7622L33.6733-26.0187Q36.02-26.5171 36.02-28.8713Q36.02-29.9374 35.3312-30.6886Q34.6423-31.4397 33.5761-31.6267L16.0607-34.6657Q13.8386-35.0744 12.8834-33.6344Q11.9281-32.1944 12.9938-30.3736ZM23.5301-26.5801L36.4827 11.7249L40.8805 10.2219L28.0869-27.9166ZM52.5939 20.1587Q57.7863 20.1587 61.9162 17.7113Q66.0462 15.2638 68.4624 11.1341Q70.8787 7.00441 70.8787 1.90874Q70.8787-3.22193 68.3686-7.37264Q65.8586-11.5234 61.7526-13.877L61.7526-7.93529Q66.0516-4.05851 66.0516 1.90874Q66.0516 7.43986 62.1057 11.3718Q58.1599 15.3037 52.5939 15.3037Q48.9872 15.3037 45.9413 13.4692Q42.8953 11.6347 41.0643 8.58876Q39.2333 5.54283 39.2333 1.90874Q39.2333-1.04047 40.4689-3.64677Q41.7045-6.25306 43.7815-8.14963L43.7815-13.9742Q39.6063-11.7447 36.9888-7.51446Q34.3713-3.28423 34.3713 1.90874Q34.3713 7.00441 36.8362 11.1341Q39.3011 15.2638 43.431 17.7113Q47.561 20.1587 52.5939 20.1587ZM64.2524 10.6516L68.7744 12.1541L81.159-25.1251Q81.4775-26.0872 81.0585-26.9563Q80.6396-27.8255 79.7602-28.0887Q78.7766-28.3519 77.9491-27.9122Q77.1216-27.4726 76.8031-26.4756ZM26.6531 16.7305Q25.7598 17.3052 25.6006 18.1918Q25.4413 19.0783 25.9226 19.7568Q26.4039 20.4352 27.3734 20.4352L77.8147 20.4352Q78.7564 20.4352 79.224 19.7428Q79.6916 19.0504 79.5772 18.1641Q79.4628 17.2778 78.5974 16.7305L67.6031 9.50991L57.5922 16.4124L47.6578 16.4124L37.5846 9.50991Z"/>
  </g>
  <g id="Thin-M" transform="matrix(1 0 0 1 807.638 1126)">
   <path d="M74.9644-69.0047Q79.0481-69.0047 81.9934-71.9309Q84.9387-74.8571 84.9387-79.0031Q84.9387-83.1367 81.9934-86.057Q79.0481-88.9774 74.9644-88.9774Q70.8192-88.9774 67.8677-86.057Q64.9162-83.1367 64.9162-79.0031Q64.9162-74.8571 67.8677-71.9309Q70.8192-69.0047 74.9644-69.0047ZM51.1975 2.41381Q53.2153 2.41381 54.6221 1.01905Q56.0289-0.375706 56.0289-2.29296L56.0289-26.2746Q56.0289-27.9809 54.9457-29.2626L44.1249-42.5489Q42.9295-43.9553 44.5112-44.7777L57.6729-51.6385Q58.3815-52.0248 59.0165-51.7444Q59.6516-51.464 59.7762-50.6416L60.9218-42.5489Q61.2956-40.0469 64.0976-38.6139L77.084-32.1144Q79.5976-30.8327 81.5905-31.6426Q83.5834-32.4526 84.2305-34.2087Q84.8651-35.7522 84.3115-37.4945Q83.7578-39.2369 81.5914-40.3318L69.9997-46.2464L68.1065-60.105Q67.5965-63.7909 65.0188-66.2751Q62.4411-68.7593 58.7557-69.3317Q55.0703-69.904 51.1352-67.8746L34.0144-58.9595Q30.0677-56.8678 28.3868-53.5246Q26.7059-50.1814 27.3405-46.5268Q27.9752-42.8721 30.9018-39.8956L46.6029-24.295L46.6029-2.29296Q46.6029-0.375706 47.9728 1.01905Q49.3426 2.41381 51.1975 2.41381ZM14.615-27.2208Q15.9599-24.8051 18.2701-24.0338Q20.5803-23.2625 23.02-23.785L32.8813-25.9506Q35.16-26.449 35.16-28.6903Q35.16-29.7112 34.4937-30.4397Q33.8275-31.1683 32.8066-31.3552L15.9474-34.2809Q13.7934-34.6672 12.8721-33.2724Q11.9509-31.8777 12.971-30.1473ZM23.8696-26.1048L36.4598 11.0686L39.6132 10.0181L27.1592-27.0565ZM51.1228 17.9409Q55.9756 17.9409 59.7889 15.7085Q63.6021 13.476 65.8034 9.66324Q68.0046 5.85044 68.0046 1.07149Q68.0046-3.51622 65.9132-7.21428Q63.8217-10.9123 60.2816-13.1527L60.2816-8.97634Q64.7843-4.98625 64.7843 1.07149Q64.7843 6.6931 60.7706 10.6815Q56.7568 14.6698 51.1228 14.6698Q47.4709 14.6698 44.3797 12.8127Q41.2885 10.9556 39.4123 7.86444Q37.536 4.77326 37.536 1.07149Q37.536-1.94577 38.8395-4.61994Q40.143-7.29411 42.288-9.2131L42.288-13.2275Q38.7238-11.1109 36.5135-7.34469Q34.3032-3.57852 34.3032 1.07149Q34.3032 5.85044 36.5419 9.66324Q38.7805 13.476 42.5938 15.7085Q46.407 17.9409 51.1228 17.9409ZM62.5327 10.2896L65.8098 11.3393L78.2849-25.8041Q78.5582-26.5849 78.2297-27.1712Q77.9012-27.7574 77.2709-27.9302Q76.604-28.1029 75.9915-27.7877Q75.379-27.4726 75.1058-26.6794ZM26.3364 15.5309Q25.5788 16.0151 25.4422 16.7095Q25.3056 17.4038 25.6964 17.9237Q26.0872 18.4436 26.8305 18.4436L75.4159 18.4436Q76.1086 18.4436 76.4744 17.8984Q76.8403 17.3531 76.7597 16.6592Q76.6792 15.9653 75.9723 15.5309L65.5662 8.67266L56.0307 15.2584L46.2772 15.2584L36.6793 8.67266Z"/>
  </g>
  <g id="Ultralight-M" transform="matrix(1 0 0 1 511.588 1126)">
   <path d="M73.9906-68.3671Q77.9817-68.3671 80.8806-71.2354Q83.7795-74.1036 83.7795-78.1569Q83.7795-82.2093 80.8806-85.0775Q77.9817-87.9458 73.9906-87.9458Q69.9383-87.9458 67.0389-85.0775Q64.1395-82.2093 64.1395-78.1569Q64.1395-74.1036 67.0389-71.2354Q69.9383-68.3671 73.9906-68.3671ZM50.4326 1.89228Q52.4272 1.89228 53.7992 0.520695Q55.1713-0.85089 55.1713-2.7218L55.1713-26.2282Q55.1713-27.9113 54.1112-29.1582L43.5105-42.1896Q42.3268-43.5611 43.8853-44.372L56.7921-51.1053Q57.4773-51.4801 58.1007-51.1997Q58.7242-50.9193 58.8488-50.1084L59.9712-42.1896Q60.345-39.7571 63.0892-38.3241L75.8089-31.9637Q78.2414-30.7168 80.2054-31.5268Q82.1693-32.3367 82.7932-34.0812Q83.4162-35.5783 82.8857-37.2627Q82.3553-38.9471 80.2351-40.0071L68.8869-45.8059L67.0169-59.3979Q66.5186-63.0142 63.993-65.4464Q61.4674-67.8785 57.8516-68.4391Q54.2358-68.9998 50.3703-67.0053L33.5971-58.2755Q29.7316-56.2187 28.0797-52.945Q26.4278-49.6714 27.0507-46.0862Q27.6737-42.5011 30.5425-39.571L45.9421-24.295L45.9421-2.7218Q45.9421-0.85089 47.2831 0.520695Q48.624 1.89228 50.4326 1.89228ZM14.5801-27.1627Q15.8903-24.7934 18.1658-24.0454Q20.4412-23.2973 22.8115-23.7967L32.4757-25.9157Q34.7194-26.4142 34.7194-28.5976Q34.7194-29.5953 34.0648-30.3123Q33.4102-31.0292 32.4124-31.2161L15.8894-34.0838Q13.7702-34.4586 12.8664-33.087Q11.9626-31.7155 12.9593-30.0315ZM24.0435-25.8614L36.4482 10.7325L38.9641 9.9137L26.684-26.616ZM50.3693 16.8049Q55.0483 16.8049 58.6993 14.6826Q62.3503 12.5603 64.4414 8.90986Q66.5325 5.25938 66.5325 0.642658Q66.5325-3.66695 64.6555-7.13317Q62.7784-10.5994 59.5281-12.7817L59.5281-9.50956Q64.1352-5.46144 64.1352 0.642658Q64.1352 6.31062 60.0867 10.3279Q56.0382 14.3452 50.3693 14.3452Q46.6942 14.3452 43.5799 12.4765Q40.4655 10.6078 38.5661 7.49345Q36.6667 4.3791 36.6667 0.642658Q36.6667-2.40947 38.0049-5.1184Q39.3431-7.82733 41.523-9.75781L41.523-12.845Q38.2718-10.7862 36.2701-7.25774Q34.2684-3.72926 34.2684 0.642658Q34.2684 5.25938 36.3912 8.90986Q38.5139 12.5603 42.1649 14.6826Q45.8159 16.8049 50.3693 16.8049ZM61.6518 10.1042L64.2913 10.922L76.8128-26.152Q77.0629-26.8398 76.7808-27.2812Q76.4986-27.7226 75.9959-27.849Q75.4912-27.9753 74.9889-27.7239Q74.4865-27.4726 74.2364-26.7838ZM26.1741 14.9164Q25.4861 15.3543 25.3611 15.9503Q25.236 16.5462 25.5805 16.9849Q25.9249 17.4236 26.5524 17.4236L74.1873 17.4236Q74.7523 17.4236 75.0661 16.9537Q75.3799 16.4838 75.3166 15.8884Q75.2534 15.293 74.6278 14.9164L64.523 8.24383L55.2308 14.6674L45.5701 14.6674L36.2156 8.24383Z"/>
  </g>
  <g id="Black-S" transform="matrix(1 0 0 1 2890.85 696)">
   <path d="M65.5762-65.0391Q69.5801-65.0391 72.4609-67.9199Q75.3418-70.8008 75.3418-74.8047Q75.3418-78.8574 72.4609-81.7139Q69.5801-84.5703 65.5762-84.5703Q61.5234-84.5703 58.667-81.7139Q55.8105-78.8574 55.8105-74.8047Q55.8105-70.8008 58.667-67.9199Q61.5234-65.0391 65.5762-65.0391ZM44.4336-0.976562Q46.582-0.976562 48.1201-2.51465Q49.6582-4.05273 49.6582-6.15234L49.6582-27.4414Q49.6582-29.1504 48.4375-30.7129L38.9648-42.334Q38.5254-42.8711 39.0625-43.1152L50.3906-49.0234Q50.6348-49.1699 50.8301-49.0967Q51.0254-49.0234 51.0742-48.7793L52.0996-41.7969Q52.4902-39.0137 55.4199-37.5488L66.9922-31.7383Q69.7754-30.3711 71.8018-31.1523Q73.8281-31.9336 74.6582-33.6914Q75.4395-35.4004 74.8535-37.5Q74.2676-39.5996 71.875-40.8203L61.9629-45.8496L60.4004-57.666Q59.9121-61.2793 57.3975-63.7207Q54.8828-66.1621 51.2695-66.748Q47.6562-67.334 43.9453-65.3809L28.6621-57.373Q24.8047-55.3711 23.1934-52.0996Q21.582-48.8281 22.1924-45.2881Q22.8027-41.748 25.6836-38.916L39.3555-25.293L39.3555-6.15234Q39.3555-4.05273 40.8447-2.51465Q42.334-0.976562 44.4336-0.976562ZM11.8164-25.4395Q13.1348-23.0469 15.4785-22.2168Q17.8223-21.3867 20.3125-21.9238L29.1016-23.8281Q31.8848-24.4141 31.8848-27.2461Q31.8848-28.5645 31.0303-29.4922Q30.1758-30.4199 28.9551-30.6152L13.9648-33.2031Q11.4258-33.6426 10.3027-31.9092Q9.17969-30.1758 10.3516-28.0762ZM17.6758-26.6113L28.6621 6.20117L36.2305 3.51562L25.4395-28.9551ZM44.3359 14.0137Q49.2676 14.0137 53.3203 11.5967Q57.373 9.17969 59.7656 5.15137Q62.1582 1.12305 62.1582-3.75977Q62.1582-8.88672 59.4971-13.0859Q56.8359-17.2852 52.5879-19.5312L52.5879-8.34961Q53.6621-6.39648 53.6621-3.75977Q53.6621 0.244141 51.001 2.88086Q48.3398 5.51758 44.3359 5.51758Q41.6992 5.51758 39.5752 4.29688Q37.4512 3.07617 36.2305 0.952148Q35.0098-1.17188 35.0098-3.75977Q35.0098-5.17578 35.3516-6.39648Q35.6934-7.61719 36.4258-8.69141L36.4258-19.6289Q32.0312-17.5293 29.2969-13.2324Q26.5625-8.93555 26.5625-3.75977Q26.5625 1.12305 28.9795 5.15137Q31.3965 9.17969 35.4492 11.5967Q39.502 14.0137 44.3359 14.0137ZM52.3438 4.10156L60.0098 6.64062L69.7754-23.291Q70.2637-24.8535 69.5801-26.416Q68.8965-27.9785 67.2852-28.4668Q65.625-29.0039 64.1602-28.1982Q62.6953-27.3926 62.2559-25.9277ZM21.3379 8.25195Q20.0195 9.08203 19.8242 10.4492Q19.6289 11.8164 20.4102 12.915Q21.1914 14.0137 22.7539 14.0137L65.918 14.0137Q67.4805 14.0137 68.2129 12.915Q68.9453 11.8164 68.7744 10.4492Q68.6035 9.08203 67.334 8.25195L57.1777 1.66016L48.1934 7.8125L40.5273 7.8125L31.4941 1.66016Z"/>
  </g>
  <g id="Heavy-S" transform="matrix(1 0 0 1 2594.62 696)">
   <path d="M64.7464-64.7625Q68.6351-64.7625 71.418-67.5511Q74.2009-70.3398 74.2009-74.24Q74.2009-78.166 71.418-80.9302Q68.6351-83.6945 64.7464-83.6945Q60.8089-83.6945 58.0389-80.9302Q55.2689-78.166 55.2689-74.24Q55.2689-70.3398 58.0389-67.5511Q60.8089-64.7625 64.7464-64.7625ZM44.0302-1.67955Q46.0634-1.67955 47.5266-3.13121Q48.9898-4.58286 48.9898-6.57875L48.9898-27.6604Q48.9898-29.3002 47.8382-30.759L38.4232-42.2994Q37.857-42.9979 38.5785-43.3457L49.872-49.2309Q50.2084-49.4235 50.4843-49.3156Q50.7603-49.2078 50.8207-48.86L51.8345-41.8891Q52.2021-39.2442 55.005-37.86L66.4621-32.1071Q69.1185-30.7975 71.0584-31.5442Q72.9984-32.2909 73.7708-33.968Q74.4944-35.5963 73.9258-37.5691Q73.3571-39.542 71.0913-40.7051L61.1792-45.7344L59.6167-57.5392Q59.14-61.0373 56.7002-63.4038Q54.2605-65.7703 50.7625-66.3332Q47.2644-66.8961 43.6457-65.0006L28.5238-57.0849Q24.7816-55.1406 23.2164-51.9671Q21.6512-48.7936 22.2442-45.3572Q22.8373-41.9209 25.626-39.1696L39.2172-25.6157L39.2172-6.57875Q39.2172-4.58286 40.6315-3.13121Q42.0459-1.67955 44.0302-1.67955ZM11.7588-26.3153Q13.0426-24.0034 15.2884-23.2079Q17.5342-22.4124 19.9437-22.938L28.6406-24.8308Q31.2163-25.3706 31.2163-27.9952Q31.2163-29.2098 30.431-30.0626Q29.6457-30.9155 28.5056-31.0993L13.6652-33.6641Q11.299-34.0805 10.2566-32.4796Q9.21426-30.8788 10.317-28.9175ZM17.7795-27.153L28.6506 5.25617L35.5275 2.82416L24.8402-29.2778ZM43.9326 13.1378Q48.7375 13.1378 52.6692 10.79Q56.6009 8.44212 58.9243 4.52905Q61.2478 0.61597 61.2478-4.12855Q61.2478-9.11721 58.6558-13.1954Q56.0638-17.2736 51.931-19.4506L51.931-9.40986Q53.5008-7.22625 53.5008-4.12855Q53.5008-0.0670199 50.7532 2.66189Q48.0056 5.39081 43.9326 5.39081Q41.2613 5.39081 39.0854 4.12401Q36.9095 2.85721 35.6485 0.681323Q34.3874-1.49456 34.3874-4.12855Q34.3874-5.74048 34.8618-7.13981Q35.3361-8.53914 36.2644-9.70556L36.2644-19.5482Q31.9967-17.5062 29.3314-13.3361Q26.6662-9.16604 26.6662-4.12855Q26.6662 0.61597 29.0198 4.52905Q31.3734 8.44212 35.3052 10.79Q39.2369 13.1378 43.9326 13.1378ZM52.2631 3.38705L59.2376 5.70714L68.9687-24.0862Q69.4109-25.4989 68.7907-26.9173Q68.1704-28.3358 66.7205-28.778Q65.1986-29.2574 63.8778-28.5325Q62.557-27.8075 62.1521-26.4579ZM21.3033 7.87165Q20.1002 8.63258 19.9164 9.88452Q19.7326 11.1365 20.439 12.1371Q21.1453 13.1378 22.5695 13.1378L65.2956 13.1378Q66.7199 13.1378 67.3889 12.1371Q68.0579 11.1365 67.8986 9.88452Q67.7392 8.63258 66.5734 7.87165L56.6476 1.41814L47.8246 7.46677L40.0894 7.46677L31.2176 1.41814Z"/>
  </g>
  <g id="Bold-S" transform="matrix(1 0 0 1 2298.46 696)">
   <path d="M63.8184-64.4531Q67.5781-64.4531 70.2515-67.1387Q72.9248-69.8242 72.9248-73.6084Q72.9248-77.3926 70.2515-80.0537Q67.5781-82.7148 63.8184-82.7148Q60.0098-82.7148 57.3364-80.0537Q54.6631-77.3926 54.6631-73.6084Q54.6631-69.8242 57.3364-67.1387Q60.0098-64.4531 63.8184-64.4531ZM43.5791-2.46582Q45.4834-2.46582 46.8628-3.8208Q48.2422-5.17578 48.2422-7.05566L48.2422-27.9053Q48.2422-29.4678 47.168-30.8105L37.8174-42.2607Q37.1094-43.1396 38.0371-43.6035L49.292-49.4629Q49.7314-49.707 50.0977-49.5605Q50.4639-49.4141 50.5371-48.9502L51.5381-41.9922Q51.8799-39.502 54.541-38.208L65.8691-32.5195Q68.3838-31.2744 70.2271-31.9824Q72.0703-32.6904 72.7783-34.2773Q73.4375-35.8154 72.8882-37.6465Q72.3389-39.4775 70.2148-40.5762L60.3027-45.6055L58.7402-57.3975Q58.2764-60.7666 55.9204-63.0493Q53.5645-65.332 50.1953-65.8691Q46.8262-66.4062 43.3105-64.5752L28.3691-56.7627Q24.7559-54.8828 23.2422-51.8188Q21.7285-48.7549 22.3022-45.4346Q22.876-42.1143 25.5615-39.4531L39.0625-25.9766L39.0625-7.05566Q39.0625-5.17578 40.3931-3.8208Q41.7236-2.46582 43.5791-2.46582ZM11.6943-27.2949Q12.9395-25.0732 15.0757-24.3164Q17.2119-23.5596 19.5312-24.0723L28.125-25.9521Q30.4688-26.4404 30.4688-28.833Q30.4688-29.9316 29.7607-30.7007Q29.0527-31.4697 28.0029-31.6406L13.3301-34.1797Q11.1572-34.5703 10.2051-33.1177Q9.25293-31.665 10.2783-29.8584ZM17.8955-27.7588L28.6377 4.19922L34.7412 2.05078L24.1699-29.6387ZM43.4814 12.1582Q48.1445 12.1582 51.9409 9.8877Q55.7373 7.61719 57.9834 3.83301Q60.2295 0.0488281 60.2295-4.54102Q60.2295-9.375 57.7148-13.3179Q55.2002-17.2607 51.1963-19.3604L51.1963-10.5957Q53.3203-8.1543 53.3203-4.54102Q53.3203-0.415039 50.4761 2.41699Q47.6318 5.24902 43.4814 5.24902Q40.7715 5.24902 38.5376 3.93066Q36.3037 2.6123 34.9976 0.378418Q33.6914-1.85547 33.6914-4.54102Q33.6914-6.37207 34.314-7.97119Q34.9365-9.57031 36.084-10.8398L36.084-19.458Q31.958-17.4805 29.3701-13.4521Q26.7822-9.42383 26.7822-4.54102Q26.7822 0.0488281 29.0649 3.83301Q31.3477 7.61719 35.144 9.8877Q38.9404 12.1582 43.4814 12.1582ZM52.1729 2.58789L58.374 4.66309L68.0664-24.9756Q68.457-26.2207 67.9077-27.478Q67.3584-28.7354 66.0889-29.126Q64.7217-29.541 63.562-28.9062Q62.4023-28.2715 62.0361-27.0508ZM21.2646 7.44629Q20.1904 8.12988 20.0195 9.25293Q19.8486 10.376 20.4712 11.2671Q21.0938 12.1582 22.3633 12.1582L64.5996 12.1582Q65.8691 12.1582 66.4673 11.2671Q67.0654 10.376 66.9189 9.25293Q66.7725 8.12988 65.7227 7.44629L56.0547 1.14746L47.4121 7.08008L39.5996 7.08008L30.9082 1.14746Z"/>
  </g>
  <g id="Semibold-S" transform="matrix(1 0 0 1 2002.13 696)">
   <path d="M63.1785-64.2398Q66.8494-64.2398 69.4472-66.8543Q72.045-69.4688 72.045-73.1729Q72.045-76.8594 69.4472-79.4494Q66.8494-82.0395 63.1785-82.0395Q59.4588-82.0395 56.8521-79.4494Q54.2454-76.8594 54.2454-73.1729Q54.2454-69.4688 56.8521-66.8543Q59.4588-64.2398 63.1785-64.2398ZM43.2681-3.00791Q45.0835-3.00791 46.4051-4.29624Q47.7268-5.58457 47.7268-7.38447L47.7268-28.0741Q47.7268-29.5833 46.7059-30.8461L37.3997-42.2341Q36.5939-43.2374 37.6639-43.7812L48.8921-49.6229Q49.4026-49.9025 49.8311-49.7294Q50.2595-49.5562 50.3416-49.0124L51.3337-42.0633Q51.6577-39.6797 54.2211-38.4479L65.4604-32.8039Q67.8772-31.6032 69.6539-32.2846Q71.4305-32.9659 72.094-34.4906Q72.7088-35.9665 72.1728-37.6998Q71.6368-39.4331 69.6105-40.4873L59.6984-45.5166L58.1359-57.2997Q57.681-60.58 55.3828-62.8049Q53.0846-65.0299 49.8043-65.5492Q46.524-66.0686 43.0795-64.2819L28.2625-56.5405Q24.7381-54.7051 23.26-51.7167Q21.7818-48.7282 22.3422-45.4879Q22.9026-42.2476 25.5171-39.6486L38.9559-26.2254L38.9559-7.38447Q38.9559-5.58457 40.2287-4.29624Q41.5015-3.00791 43.2681-3.00791ZM11.6499-27.9703Q12.8684-25.8108 14.9291-25.0807Q16.9897-24.3505 19.2469-24.8543L27.7695-26.7253Q29.9533-27.178 29.9533-29.4106Q29.9533-30.4293 29.2986-31.1406Q28.6439-31.8519 27.6563-32.0139L13.099-34.5352Q11.0595-34.908 10.1695-33.5576Q9.27959-32.2071 10.2517-30.5071ZM17.9755-28.1765L28.6288 3.47051L34.1991 1.51758L23.7078-29.8875ZM43.1704 11.4828Q47.7357 11.4828 51.4388 9.26562Q55.1419 7.04844 57.3347 3.35312Q59.5274-0.342187 59.5274-4.82539Q59.5274-9.55273 57.0661-13.4023Q54.6048-17.2519 50.6897-19.2981L50.6897-11.4133Q53.1959-8.79414 53.1959-4.82539Q53.1959-0.65498 50.285 2.24814Q47.3741 5.15127 43.1704 5.15127Q40.4338 5.15127 38.1599 3.79736Q35.886 2.44346 34.5488 0.16958Q33.2115-2.1043 33.2115-4.82539Q33.2115-6.80752 33.9363-8.54438Q34.661-10.2812 35.9596-11.6219L35.9596-19.3958Q31.9313-17.4627 29.3968-13.5321Q26.8622-9.60156 26.8622-4.82539Q26.8622-0.342187 29.096 3.35312Q31.3299 7.04844 35.033 9.26562Q38.736 11.4828 43.1704 11.4828ZM52.1106 2.03691L57.7786 3.94326L67.4443-25.5888Q67.7994-26.7184 67.299-27.8646Q66.7985-29.0108 65.6534-29.3659Q64.3929-29.7365 63.3443-29.164Q62.2957-28.5914 61.9562-27.4596ZM21.238 7.15303Q20.2526 7.7833 20.0906 8.81748Q19.9286 9.85166 20.4934 10.6672Q21.0582 11.4828 22.2211 11.4828L64.1197 11.4828Q65.2826 11.4828 65.8319 10.6672Q66.3812 9.85166 66.2436 8.81748Q66.106 7.7833 65.1361 7.15303L55.6459 0.96084L47.1277 6.81348L39.2619 6.81348L30.6949 0.96084Z"/>
  </g>
  <g id="Medium-S" transform="matrix(1 0 0 1 1705.7 696)">
   <path d="M62.6934-64.0781Q66.2969-64.0781 68.8374-66.6387Q71.3779-69.1992 71.3779-72.8428Q71.3779-76.4551 68.8374-78.9912Q66.2969-81.5273 62.6934-81.5273Q59.041-81.5273 56.4849-78.9912Q53.9287-76.4551 53.9287-72.8428Q53.9287-69.1992 56.4849-66.6387Q59.041-64.0781 62.6934-64.0781ZM43.0322-3.41895Q44.7803-3.41895 46.0581-4.65674Q47.3359-5.89453 47.3359-7.63379L47.3359-28.2021Q47.3359-29.6709 46.3555-30.873L37.083-42.2139Q36.2031-43.3115 37.3809-43.916L48.5889-49.7441Q49.1533-50.0508 49.6289-49.8574Q50.1045-49.6641 50.1934-49.0596L51.1787-42.1172Q51.4893-39.8145 53.9785-38.6299L65.1504-33.0195Q67.4932-31.8525 69.2192-32.5137Q70.9453-33.1748 71.5752-34.6523Q72.1562-36.0811 71.6304-37.7402Q71.1045-39.3994 69.1523-40.4199L59.2402-45.4492L57.6777-57.2256Q57.2295-60.4385 54.9751-62.6196Q52.7207-64.8008 49.5078-65.3066Q46.2949-65.8125 42.9043-64.0596L28.1816-56.3721Q24.7246-54.5703 23.2734-51.6392Q21.8223-48.708 22.3726-45.5283Q22.9229-42.3486 25.4834-39.7969L38.875-26.4141L38.875-7.63379Q38.875-5.89453 40.104-4.65674Q41.333-3.41895 43.0322-3.41895ZM11.6162-28.4824Q12.8145-26.3701 14.8179-25.6602Q16.8213-24.9502 19.0312-25.4473L27.5-27.3115Q29.5625-27.7373 29.5625-29.8486Q29.5625-30.8066 28.9482-31.4741Q28.334-32.1416 27.3936-32.2969L12.9238-34.8047Q10.9854-35.1641 10.1426-33.8911Q9.2998-32.6182 10.2314-30.999ZM18.0361-28.4932L28.6221 2.91797L33.7881 1.11328L23.3574-30.0762ZM42.9346 10.9707Q47.4258 10.9707 51.0581 8.79395Q54.6904 6.61719 56.8428 2.98926Q58.9951-0.638672 58.9951-5.04102Q58.9951-9.6875 56.5742-13.4663Q54.1533-17.2451 50.3057-19.251L50.3057-12.0332Q53.1016-9.2793 53.1016-5.04102Q53.1016-0.836914 50.1401 2.12012Q47.1787 5.07715 42.9346 5.07715Q40.1777 5.07715 37.8735 3.69629Q35.5693 2.31543 34.2085 0.0112305Q32.8477-2.29297 32.8477-5.04102Q32.8477-7.1377 33.6499-8.979Q34.4521-10.8203 35.8652-12.2148L35.8652-19.3486Q31.9111-17.4492 29.417-13.5928Q26.9229-9.73633 26.9229-5.04102Q26.9229-0.638672 29.1196 2.98926Q31.3164 6.61719 34.9487 8.79395Q38.5811 10.9707 42.9346 10.9707ZM52.0635 1.61914L57.3271 3.39746L66.9727-26.0537Q67.3008-27.0957 66.8374-28.1577Q66.374-29.2197 65.3232-29.5479Q64.1436-29.8848 63.1792-29.3594Q62.2148-28.834 61.8955-27.7695ZM21.2178 6.93066Q20.2998 7.52051 20.1445 8.4873Q19.9893 9.4541 20.5103 10.2124Q21.0312 10.9707 22.1133 10.9707L63.7559 10.9707Q64.8379 10.9707 65.3501 10.2124Q65.8623 9.4541 65.7314 8.4873Q65.6006 7.52051 64.6914 6.93066L55.3359 0.819336L46.9121 6.61133L39.0059 6.61133L30.5332 0.819336Z"/>
  </g>
  <g id="Regular-S" transform="matrix(1 0 0 1 1409.37 696)">
   <path d="M62.0605-63.8672Q65.5762-63.8672 68.042-66.3574Q70.5078-68.8477 70.5078-72.4121Q70.5078-75.9277 68.042-78.3936Q65.5762-80.8594 62.0605-80.8594Q58.4961-80.8594 56.0059-78.3936Q53.5156-75.9277 53.5156-72.4121Q53.5156-68.8477 56.0059-66.3574Q58.4961-63.8672 62.0605-63.8672ZM42.7246-3.95508Q44.3848-3.95508 45.6055-5.12695Q46.8262-6.29883 46.8262-7.95898L46.8262-28.3691Q46.8262-29.7852 45.8984-30.9082L36.6699-42.1875Q35.6934-43.4082 37.0117-44.0918L48.1934-49.9023Q48.8281-50.2441 49.3652-50.0244Q49.9023-49.8047 50-49.1211L50.9766-42.1875Q51.2695-39.9902 53.6621-38.8672L64.7461-33.3008Q66.9922-32.1777 68.6523-32.8125Q70.3125-33.4473 70.8984-34.8633Q71.4355-36.2305 70.9229-37.793Q70.4102-39.3555 68.5547-40.332L58.6426-45.3613L57.0801-57.1289Q56.6406-60.2539 54.4434-62.3779Q52.2461-64.502 49.1211-64.9902Q45.9961-65.4785 42.6758-63.7695L28.0762-56.1523Q24.707-54.3945 23.291-51.5381Q21.875-48.6816 22.4121-45.5811Q22.9492-42.4805 25.4395-39.9902L38.7695-26.6602L38.7695-7.95898Q38.7695-6.29883 39.9414-5.12695Q41.1133-3.95508 42.7246-3.95508ZM11.5723-29.1504Q12.7441-27.0996 14.6729-26.416Q16.6016-25.7324 18.75-26.2207L27.1484-28.0762Q29.0527-28.4668 29.0527-30.4199Q29.0527-31.2988 28.4912-31.9092Q27.9297-32.5195 27.0508-32.666L12.6953-35.1562Q10.8887-35.498 10.1074-34.3262Q9.32617-33.1543 10.2051-31.6406ZM18.1152-28.9062L28.6133 2.19727L33.252 0.585938L22.9004-30.3223ZM42.627 10.3027Q47.0215 10.3027 50.5615 8.17871Q54.1016 6.05469 56.2012 2.51465Q58.3008-1.02539 58.3008-5.32227Q58.3008-9.86328 55.9326-13.5498Q53.5645-17.2363 49.8047-19.1895L49.8047-12.8418Q52.9785-9.91211 52.9785-5.32227Q52.9785-1.07422 49.9512 1.95312Q46.9238 4.98047 42.627 4.98047Q39.8438 4.98047 37.5 3.56445Q35.1562 2.14844 33.7646-0.195312Q32.373-2.53906 32.373-5.32227Q32.373-7.56836 33.2764-9.5459Q34.1797-11.5234 35.7422-12.9883L35.7422-19.2871Q31.8848-17.4316 29.4434-13.6719Q27.002-9.91211 27.002-5.32227Q27.002-1.02539 29.1504 2.51465Q31.2988 6.05469 34.8389 8.17871Q38.3789 10.3027 42.627 10.3027ZM52.002 1.07422L56.7383 2.68555L66.3574-26.6602Q66.6504-27.5879 66.2354-28.54Q65.8203-29.4922 64.8926-29.7852Q63.8184-30.0781 62.9639-29.6143Q62.1094-29.1504 61.8164-28.1738ZM21.1914 6.64062Q20.3613 7.17773 20.2148 8.05664Q20.0684 8.93555 20.5322 9.61914Q20.9961 10.3027 21.9727 10.3027L63.2812 10.3027Q64.2578 10.3027 64.7217 9.61914Q65.1855 8.93555 65.0635 8.05664Q64.9414 7.17773 64.1113 6.64062L54.9316 0.634766L46.6309 6.34766L38.6719 6.34766L30.3223 0.634766Z"/>
  </g>
  <g id="Light-S" transform="matrix(1 0 0 1 1113.52 696)">
   <path d="M60.789-63.0346Q64.1836-63.0346 66.5888-65.4491Q68.9941-67.8637 68.9941-71.3071Q68.9941-74.7167 66.5888-77.1145Q64.1836-79.5123 60.789-79.5123Q57.3458-79.5123 54.9236-77.1145Q52.5014-74.7167 52.5014-71.3071Q52.5014-67.8637 54.9236-65.4491Q57.3458-63.0346 60.789-63.0346ZM41.7257-4.63613Q43.3556-4.63613 44.5309-5.77774Q45.7062-6.91935 45.7062-8.51898L45.7062-28.3086Q45.7062-29.6944 44.8087-30.7719L35.8676-41.7183Q34.9063-42.8935 36.1944-43.5621L47.0431-49.206Q47.6473-49.5328 48.1693-49.3131Q48.6913-49.0934 48.789-48.4248L49.7353-41.7183Q50.0282-39.6118 52.3453-38.4888L63.0811-33.1039Q65.2212-32.0264 66.8435-32.6612Q68.4659-33.2959 69.0216-34.6967Q69.5435-36.0034 69.061-37.4902Q68.5786-38.9771 66.7837-39.9081L57.1894-44.7861L55.6572-56.2055Q55.233-59.2397 53.1038-61.2957Q50.9745-63.3517 47.9404-63.8247Q44.9064-64.2977 41.6768-62.6343L27.5312-55.2592Q24.2681-53.5469 22.89-50.7812Q21.5118-48.0156 22.0337-45.0058Q22.5555-41.996 24.9702-39.5663L37.9066-26.6602L37.9066-8.51898Q37.9066-6.91935 39.0408-5.77774Q40.1749-4.63613 41.7257-4.63613ZM11.5267-29.0746Q12.6534-27.0844 14.5367-26.4311Q16.42-25.7779 18.4776-26.236L26.6187-28.0306Q28.4775-28.4213 28.4775-30.2989Q28.4775-31.1475 27.9311-31.7427Q27.3847-32.338 26.5361-32.4844L12.6195-34.8989Q10.8584-35.2257 10.0999-34.0841Q9.34143-32.9425 10.1898-31.4893ZM18.3423-28.5884L28.598 1.75832L32.4043 0.449626L22.2799-29.747ZM41.643 8.81933Q45.8104 8.81933 49.1386 6.83912Q52.4668 4.85891 54.4226 1.53084Q56.3784-1.79723 56.3784-5.88226Q56.3784-10.0601 54.2903-13.4439Q52.2021-16.8276 48.8207-18.705L48.8207-13.5381Q52.1309-10.5326 52.1309-5.88226Q52.1309-1.57369 49.0582 1.49142Q45.9854 4.55653 41.643 4.55653Q38.8295 4.55653 36.4555 3.12538Q34.0815 1.69423 32.6597-0.679779Q31.2378-3.05379 31.2378-5.88226Q31.2378-8.17388 32.1865-10.1968Q33.1352-12.2197 34.7432-13.6996L34.7432-18.7876Q31.2945-17.0077 29.1255-13.5583Q26.9564-10.1089 26.9564-5.88226Q26.9564-1.79723 28.9536 1.53084Q30.9507 4.85891 34.2789 6.83912Q37.6071 8.81933 41.643 8.81933ZM50.8517 0.832113L54.7554 2.14055L64.4351-27.1144Q64.6978-27.9208 64.3433-28.6837Q63.9887-29.4467 63.2276-29.6791Q62.3652-29.9115 61.6545-29.531Q60.9439-29.1504 60.6812-28.3101ZM20.9796 5.83827Q20.2403 6.31485 20.1089 7.0652Q19.9776 7.81555 20.3809 8.3931Q20.7843 8.97064 21.6095 8.97064L61.6768 8.97064Q62.4868 8.97064 62.8826 8.38547Q63.2785 7.80029 63.179 7.05007Q63.0796 6.29985 62.3556 5.83827L53.5693 0.0747681L45.5864 5.57582L37.7485 5.57582L29.7167 0.0747681Z"/>
  </g>
  <g id="Thin-S" transform="matrix(1 0 0 1 817.948 696)">
   <path d="M59.1072-61.9334Q62.3417-61.9334 64.6669-64.2479Q66.9922-66.5624 66.9922-69.8457Q66.9922-73.115 64.6669-75.4228Q62.3417-77.7306 59.1072-77.7306Q55.8245-77.7306 53.4923-75.4228Q51.1601-73.115 51.1601-69.8457Q51.1601-66.5624 53.4923-64.2479Q55.8245-61.9334 59.1072-61.9334ZM40.4045-5.53687Q41.9944-5.53687 43.1096-6.63846Q44.2249-7.74005 44.2249-9.25962L44.2249-28.2286Q44.2249-29.5743 43.3674-30.5916L34.8064-41.0977Q33.8653-42.2127 35.1133-42.8614L45.5218-48.2851Q46.0857-48.5921 46.5876-48.3723Q47.0896-48.1526 47.1873-47.5039L48.0935-41.0977Q48.3865-39.1113 50.6037-37.9883L60.879-32.8436Q62.8788-31.8263 64.4513-32.4611Q66.0237-33.0958 66.5393-34.4764Q67.041-35.703 66.5986-37.0898Q66.1562-38.4766 64.4413-39.3474L55.2675-44.0252L53.7753-54.9842Q53.3713-57.8983 51.332-59.8644Q49.2928-61.8304 46.3789-62.2832Q43.4651-62.7361 40.3557-61.1328L26.8104-54.0779Q23.6875-52.4259 22.3595-49.7803Q21.0315-47.1347 21.5332-44.245Q22.0349-41.3553 24.3497-39.0056L36.7654-26.6602L36.7654-9.25962Q36.7654-7.74005 37.8496-6.63846Q38.9337-5.53687 40.4045-5.53687ZM11.4665-28.9744Q12.5333-27.0642 14.3566-26.4512Q16.1798-25.8382 18.1174-26.2561L25.9181-27.9704Q27.7167-28.3611 27.7167-30.1388Q27.7167-30.9474 27.1903-31.5226Q26.6639-32.0978 25.8553-32.2443L12.5193-34.5585Q10.8184-34.8654 10.09-33.7639Q9.36161-32.6623 10.1696-31.2892ZM18.6427-28.1679L28.5778 1.17778L31.2833 0.269342L21.4592-28.9862ZM40.3417 6.8574Q44.2087 6.8574 47.2568 5.06739Q50.3048 3.27739 52.0704 0.229669Q53.836-2.81805 53.836-6.62291Q53.836-10.3205 52.1181-13.3038Q50.4003-16.2871 47.5194-18.0642L47.5194-14.459Q51.0098-11.3533 51.0098-6.62291Q51.0098-2.23428 47.8771 0.880777Q44.7443 3.99583 40.3417 3.99583Q37.4882 3.99583 35.0741 2.54467Q32.6601 1.09351 31.1982-1.32053Q29.7363-3.73456 29.7363-6.62291Q29.7363-8.97473 30.7451-11.0577Q31.7538-13.1407 33.4221-14.6404L33.4221-18.127Q30.5138-16.447 28.705-13.4081Q26.8962-10.3693 26.8962-6.62291Q26.8962-2.81805 28.6932 0.229669Q30.4902 3.27739 33.5382 5.06739Q36.5862 6.8574 40.3417 6.8574ZM49.3304 0.511908L52.1329 1.41976L61.8926-27.7151Q62.1153-28.3611 61.8408-28.8738Q61.5664-29.3865 61.0255-29.5388Q60.4433-29.6912 59.9228-29.4208Q59.4024-29.1504 59.1797-28.4904ZM20.6994 4.77708Q20.0802 5.17362 19.9688 5.75394Q19.8575 6.33427 20.1808 6.77156Q20.5041 7.20884 21.1292 7.20884L59.5548 7.20884Q60.1444 7.20884 60.4503 6.75384Q60.7562 6.29883 60.6867 5.7188Q60.6172 5.13877 60.0334 4.77708L51.7675-0.665874L44.205 4.55499L36.5272 4.55499L28.9159-0.665874Z"/>
  </g>
  <g id="Ultralight-S" transform="matrix(1 0 0 1 521.821 696)">
   <path d="M58.2458-61.3693Q61.3983-61.3693 63.6826-63.6326Q65.9668-65.8958 65.9668-69.0971Q65.9668-72.2946 63.6826-74.5564Q61.3983-76.8181 58.2458-76.8181Q55.0453-76.8181 52.7592-74.5564Q50.473-72.2946 50.473-69.0971Q50.473-65.8958 52.7592-63.6326Q55.0453-61.3693 58.2458-61.3693ZM39.7278-5.99823Q41.2971-5.99823 42.3817-7.07932Q43.4662-8.1604 43.4662-9.63898L43.4662-28.1876Q43.4662-29.5128 42.6292-30.4993L34.2628-40.7799Q33.3321-41.864 34.5596-42.5026L44.7426-47.8134Q45.2858-48.1102 45.7775-47.8905Q46.2692-47.6707 46.3669-47.0322L47.2527-40.7799Q47.5456-38.855 49.7116-37.7319L59.7511-32.7103Q61.6791-31.7238 63.2259-32.3586Q64.7728-32.9933 65.2679-34.3636Q65.7593-35.5492 65.3374-36.8847Q64.9155-38.2202 63.2416-39.0602L54.2831-43.6356L52.8114-54.3587Q52.4178-57.2113 50.4246-59.1312Q48.4314-61.0512 45.5791-61.4937Q42.7269-61.9362 39.679-60.3638L26.4412-53.4729Q23.3902-51.8517 22.0879-49.2676Q20.7855-46.6835 21.2769-43.8553Q21.7682-41.0271 24.0318-38.7184L36.1809-26.6602L36.1809-9.63898Q36.1809-8.1604 37.2395-7.07932Q38.298-5.99823 39.7278-5.99823ZM11.4357-28.923Q12.4718-27.0538 14.2643-26.4614Q16.0568-25.869 17.9329-26.2665L25.5592-27.9396Q27.327-28.3302 27.327-30.0568Q27.327-30.8449 26.8108-31.4098Q26.2947-31.9748 25.5066-32.1213L12.468-34.3842Q10.7979-34.6809 10.0849-33.5999Q9.37195-32.5188 10.1593-31.1867ZM18.7965-27.9526L28.5675 0.880432L30.7091 0.177002L21.0388-28.5965ZM39.6751 5.85251Q43.3884 5.85251 46.2929 4.15993Q49.1974 2.46735 50.8656-0.436783Q52.5337-3.34091 52.5337-7.00226Q52.5337-10.4538 51.0056-13.232Q49.4774-16.0103 46.8529-17.7361L46.8529-14.9307Q50.4356-11.7737 50.4356-7.00226Q50.4356-2.57263 47.2721 0.568008Q44.1086 3.70865 39.6751 3.70865Q36.8011 3.70865 34.3666 2.24724Q31.9321 0.785828 30.4497-1.64871Q28.9673-4.08325 28.9673-7.00226Q28.9673-9.38492 30.0068-11.4986Q31.0463-13.6124 32.7454-15.1222L32.7454-17.7887Q30.114-16.1598 28.4897-13.3312Q26.8654-10.5026 26.8654-7.00226Q26.8654-3.34091 28.5599-0.436783Q30.2544 2.46735 33.1589 4.15993Q36.0634 5.85251 39.6751 5.85251ZM48.5512 0.3479L50.7896 1.05057L60.5904-28.0228Q60.7925-28.5866 60.5591-28.9711Q60.3256-29.3556 59.8976-29.467Q59.4589-29.5784 59.0359-29.3644Q58.6128-29.1504 58.4106-28.5828ZM20.5559 4.23355Q19.9982 4.58908 19.8971 5.08232Q19.796 5.57556 20.0783 5.94101Q20.3606 6.30646 20.8832 6.30646L58.4679 6.30646Q58.9447 6.30646 59.2045 5.91812Q59.4643 5.52979 59.4101 5.03693Q59.3559 4.54407 58.844 4.23355L50.8446-1.04523L43.4975 4.03214L35.9016 4.03214L28.5057-1.04523Z"/>
  </g>
 </g>
</svg>
