<?xml version="1.0" encoding="UTF-8"?>
<!--Generator: Apple Native CoreSVG 175.5-->
<!DOCTYPE svg
PUBLIC "-//W3C//DTD SVG 1.1//EN"
       "http://www.w3.org/Graphics/SVG/1.1/DTD/svg11.dtd">
<svg version="1.1" xmlns="http://www.w3.org/2000/svg" xmlns:xlink="http://www.w3.org/1999/xlink" width="3300" height="2200">
 <!--glyph: "uni101528.medium", point size: 100.0, font version: "18.0d9e1", template writer version: "84"-->
 <g id="Notes">
  <rect height="2200" id="artboard" style="fill:white;opacity:1" width="3300" x="0" y="0"/>
  <line style="fill:none;stroke:black;opacity:1;stroke-width:0.5;" x1="263" x2="3036" y1="292" y2="292"/>
  <text style="stroke:none;fill:black;font-family:sans-serif;font-size:13;font-weight:bold;" transform="matrix(1 0 0 1 263 322)">Weight/Scale Variations</text>
  <text style="stroke:none;fill:black;font-family:sans-serif;font-size:13;text-anchor:middle;" transform="matrix(1 0 0 1 559.711 322)">Ultralight</text>
  <text style="stroke:none;fill:black;font-family:sans-serif;font-size:13;text-anchor:middle;" transform="matrix(1 0 0 1 856.422 322)">Thin</text>
  <text style="stroke:none;fill:black;font-family:sans-serif;font-size:13;text-anchor:middle;" transform="matrix(1 0 0 1 1153.13 322)">Light</text>
  <text style="stroke:none;fill:black;font-family:sans-serif;font-size:13;text-anchor:middle;" transform="matrix(1 0 0 1 1449.84 322)">Regular</text>
  <text style="stroke:none;fill:black;font-family:sans-serif;font-size:13;text-anchor:middle;" transform="matrix(1 0 0 1 1746.56 322)">Medium</text>
  <text style="stroke:none;fill:black;font-family:sans-serif;font-size:13;text-anchor:middle;" transform="matrix(1 0 0 1 2043.27 322)">Semibold</text>
  <text style="stroke:none;fill:black;font-family:sans-serif;font-size:13;text-anchor:middle;" transform="matrix(1 0 0 1 2339.98 322)">Bold</text>
  <text style="stroke:none;fill:black;font-family:sans-serif;font-size:13;text-anchor:middle;" transform="matrix(1 0 0 1 2636.69 322)">Heavy</text>
  <text style="stroke:none;fill:black;font-family:sans-serif;font-size:13;text-anchor:middle;" transform="matrix(1 0 0 1 2933.4 322)">Black</text>
  <line style="fill:none;stroke:black;opacity:1;stroke-width:0.5;" x1="263" x2="3036" y1="1903" y2="1903"/>
  <g transform="matrix(1 0 0 1 263 1933)">
   <path d="M9.24805 0.830078Q10.8691 0.830078 12.2949 0.214844Q13.7207-0.400391 14.8096-1.49414Q15.8984-2.58789 16.5186-4.01367Q17.1387-5.43945 17.1387-7.05078Q17.1387-8.66211 16.5186-10.0879Q15.8984-11.5137 14.8047-12.6074Q13.7109-13.7012 12.2852-14.3164Q10.8594-14.9316 9.23828-14.9316Q7.62695-14.9316 6.20117-14.3164Q4.77539-13.7012 3.69141-12.6074Q2.60742-11.5137 1.9873-10.0879Q1.36719-8.66211 1.36719-7.05078Q1.36719-5.43945 1.9873-4.01367Q2.60742-2.58789 3.69629-1.49414Q4.78516-0.400391 6.21094 0.214844Q7.63672 0.830078 9.24805 0.830078ZM9.24805-0.654297Q7.91992-0.654297 6.7627-1.14746Q5.60547-1.64062 4.73145-2.51953Q3.85742-3.39844 3.36426-4.56055Q2.87109-5.72266 2.87109-7.05078Q2.87109-8.37891 3.35938-9.54102Q3.84766-10.7031 4.72168-11.582Q5.5957-12.4609 6.75293-12.9541Q7.91016-13.4473 9.23828-13.4473Q10.5762-13.4473 11.7383-12.9541Q12.9004-12.4609 13.7793-11.582Q14.6582-10.7031 15.1514-9.54102Q15.6445-8.37891 15.6445-7.05078Q15.6445-5.72266 15.1514-4.56055Q14.6582-3.39844 13.7793-2.51953Q12.9004-1.64062 11.7432-1.14746Q10.5859-0.654297 9.24805-0.654297ZM5.6543-7.05078Q5.6543-6.72852 5.85938-6.52832Q6.06445-6.32812 6.40625-6.32812L8.51562-6.32812L8.51562-4.20898Q8.51562-3.88672 8.71094-3.67676Q8.90625-3.4668 9.23828-3.4668Q9.56055-3.4668 9.77051-3.67676Q9.98047-3.88672 9.98047-4.20898L9.98047-6.32812L12.0898-6.32812Q12.4219-6.32812 12.627-6.52832Q12.832-6.72852 12.832-7.05078Q12.832-7.38281 12.627-7.58789Q12.4219-7.79297 12.0898-7.79297L9.98047-7.79297L9.98047-9.90234Q9.98047-10.2344 9.77051-10.4443Q9.56055-10.6543 9.23828-10.6543Q8.90625-10.6543 8.71094-10.4443Q8.51562-10.2344 8.51562-9.90234L8.51562-7.79297L6.40625-7.79297Q6.06445-7.79297 5.85938-7.58789Q5.6543-7.38281 5.6543-7.05078Z"/>
  </g>
  <g transform="matrix(1 0 0 1 281.867 1933)">
   <path d="M11.709 2.91016Q13.75 2.91016 15.5518 2.12891Q17.3535 1.34766 18.7305-0.0292969Q20.1074-1.40625 20.8887-3.20801Q21.6699-5.00977 21.6699-7.05078Q21.6699-9.0918 20.8887-10.8936Q20.1074-12.6953 18.7305-14.0723Q17.3535-15.4492 15.5469-16.2305Q13.7402-17.0117 11.6992-17.0117Q9.6582-17.0117 7.85645-16.2305Q6.05469-15.4492 4.68262-14.0723Q3.31055-12.6953 2.5293-10.8936Q1.74805-9.0918 1.74805-7.05078Q1.74805-5.00977 2.5293-3.20801Q3.31055-1.40625 4.6875-0.0292969Q6.06445 1.34766 7.86621 2.12891Q9.66797 2.91016 11.709 2.91016ZM11.709 1.25Q9.98047 1.25 8.47656 0.605469Q6.97266-0.0390625 5.83496-1.17676Q4.69727-2.31445 4.05762-3.81836Q3.41797-5.32227 3.41797-7.05078Q3.41797-8.7793 4.05762-10.2832Q4.69727-11.7871 5.83008-12.9297Q6.96289-14.0723 8.4668-14.7119Q9.9707-15.3516 11.6992-15.3516Q13.4277-15.3516 14.9365-14.7119Q16.4453-14.0723 17.583-12.9297Q18.7207-11.7871 19.3652-10.2832Q20.0098-8.7793 20.0098-7.05078Q20.0098-5.32227 19.3701-3.81836Q18.7305-2.31445 17.5879-1.17676Q16.4453-0.0390625 14.9414 0.605469Q13.4375 1.25 11.709 1.25ZM7.17773-7.05078Q7.17773-6.69922 7.41211-6.47461Q7.64648-6.25 8.01758-6.25L10.8887-6.25L10.8887-3.36914Q10.8887-2.99805 11.1133-2.76855Q11.3379-2.53906 11.6895-2.53906Q12.0605-2.53906 12.29-2.76855Q12.5195-2.99805 12.5195-3.36914L12.5195-6.25L15.4004-6.25Q15.7715-6.25 16.001-6.47461Q16.2305-6.69922 16.2305-7.05078Q16.2305-7.42188 16.001-7.65137Q15.7715-7.88086 15.4004-7.88086L12.5195-7.88086L12.5195-10.752Q12.5195-11.1328 12.29-11.3623Q12.0605-11.5918 11.6895-11.5918Q11.3379-11.5918 11.1133-11.3574Q10.8887-11.123 10.8887-10.752L10.8887-7.88086L8.01758-7.88086Q7.63672-7.88086 7.40723-7.65137Q7.17773-7.42188 7.17773-7.05078Z"/>
  </g>
  <g transform="matrix(1 0 0 1 305.646 1933)">
   <path d="M14.9707 5.66406Q17.0605 5.66406 18.96 5.01465Q20.8594 4.36523 22.4512 3.19336Q24.043 2.02148 25.2197 0.429688Q26.3965-1.16211 27.0459-3.06641Q27.6953-4.9707 27.6953-7.05078Q27.6953-9.14062 27.0459-11.04Q26.3965-12.9395 25.2197-14.5312Q24.043-16.123 22.4512-17.2998Q20.8594-18.4766 18.9551-19.126Q17.0508-19.7754 14.9609-19.7754Q12.8711-19.7754 10.9717-19.126Q9.07227-18.4766 7.48535-17.2998Q5.89844-16.123 4.72168-14.5312Q3.54492-12.9395 2.90039-11.04Q2.25586-9.14062 2.25586-7.05078Q2.25586-4.9707 2.90527-3.06641Q3.55469-1.16211 4.72656 0.429688Q5.89844 2.02148 7.49023 3.19336Q9.08203 4.36523 10.9814 5.01465Q12.8809 5.66406 14.9707 5.66406ZM14.9707 3.84766Q13.1641 3.84766 11.5283 3.2959Q9.89258 2.74414 8.53516 1.74805Q7.17773 0.751953 6.17676-0.610352Q5.17578-1.97266 4.62891-3.6084Q4.08203-5.24414 4.08203-7.05078Q4.08203-8.86719 4.62891-10.5029Q5.17578-12.1387 6.17188-13.501Q7.16797-14.8633 8.52539-15.8594Q9.88281-16.8555 11.5186-17.4023Q13.1543-17.9492 14.9609-17.9492Q16.7773-17.9492 18.4131-17.4023Q20.0488-16.8555 21.4111-15.8594Q22.7734-14.8633 23.7744-13.501Q24.7754-12.1387 25.3223-10.5029Q25.8691-8.86719 25.8691-7.05078Q25.8691-5.24414 25.3223-3.6084Q24.7754-1.97266 23.7793-0.610352Q22.7832 0.751953 21.4209 1.74805Q20.0586 2.74414 18.4229 3.2959Q16.7871 3.84766 14.9707 3.84766ZM9.19922-7.05078Q9.19922-6.66992 9.45801-6.4209Q9.7168-6.17188 10.1172-6.17188L14.0625-6.17188L14.0625-2.2168Q14.0625-1.81641 14.3115-1.55762Q14.5605-1.29883 14.9512-1.29883Q15.3516-1.29883 15.6104-1.55273Q15.8691-1.80664 15.8691-2.2168L15.8691-6.17188L19.8242-6.17188Q20.2246-6.17188 20.4785-6.4209Q20.7324-6.66992 20.7324-7.05078Q20.7324-7.46094 20.4785-7.71484Q20.2246-7.96875 19.8242-7.96875L15.8691-7.96875L15.8691-11.9141Q15.8691-12.3242 15.6104-12.583Q15.3516-12.8418 14.9512-12.8418Q14.5605-12.8418 14.3115-12.583Q14.0625-12.3242 14.0625-11.9141L14.0625-7.96875L10.1172-7.96875Q9.70703-7.96875 9.45312-7.71484Q9.19922-7.46094 9.19922-7.05078Z"/>
  </g>
  <text style="stroke:none;fill:black;font-family:sans-serif;font-size:13;font-weight:bold;" transform="matrix(1 0 0 1 263 1953)">Design Variations</text>
  <text style="stroke:none;fill:black;font-family:sans-serif;font-size:13;" transform="matrix(1 0 0 1 263 1971)">Symbols are supported in up to nine weights and three scales.</text>
  <text style="stroke:none;fill:black;font-family:sans-serif;font-size:13;" transform="matrix(1 0 0 1 263 1989)">For optimal layout with text and other symbols, vertically align</text>
  <text style="stroke:none;fill:black;font-family:sans-serif;font-size:13;" transform="matrix(1 0 0 1 263 2007)">symbols with the adjacent text.</text>
  <line style="fill:none;stroke:#00AEEF;stroke-width:0.5;opacity:1.0;" x1="776" x2="776" y1="1919" y2="1933"/>
  <g transform="matrix(1 0 0 1 776 1933)">
   <path d="M3.31055 0.15625Q3.70117 0.15625 3.91602-0.00976562Q4.13086-0.175781 4.26758-0.585938L5.52734-4.0332L11.2891-4.0332L12.5488-0.585938Q12.6855-0.175781 12.9004-0.00976562Q13.1152 0.15625 13.4961 0.15625Q13.8867 0.15625 14.1162-0.0585938Q14.3457-0.273438 14.3457-0.644531Q14.3457-0.869141 14.2383-1.17188L9.6582-13.3691Q9.48242-13.8184 9.17969-14.043Q8.87695-14.2676 8.4082-14.2676Q7.5-14.2676 7.17773-13.3789L2.59766-1.16211Q2.49023-0.859375 2.49023-0.634766Q2.49023-0.263672 2.70996-0.0537109Q2.92969 0.15625 3.31055 0.15625ZM6.00586-5.51758L8.37891-12.0898L8.42773-12.0898L10.8008-5.51758Z"/>
  </g>
  <line style="fill:none;stroke:#00AEEF;stroke-width:0.5;opacity:1.0;" x1="793.197" x2="793.197" y1="1919" y2="1933"/>
  <text style="stroke:none;fill:black;font-family:sans-serif;font-size:13;font-weight:bold;" transform="matrix(1 0 0 1 776 1953)">Margins</text>
  <text style="stroke:none;fill:black;font-family:sans-serif;font-size:13;" transform="matrix(1 0 0 1 776 1971)">Leading and trailing margins on the left and right side of each symbol</text>
  <text style="stroke:none;fill:black;font-family:sans-serif;font-size:13;" transform="matrix(1 0 0 1 776 1989)">can be adjusted by modifying the x-location of the margin guidelines.</text>
  <text style="stroke:none;fill:black;font-family:sans-serif;font-size:13;" transform="matrix(1 0 0 1 776 2007)">Modifications are automatically applied proportionally to all</text>
  <text style="stroke:none;fill:black;font-family:sans-serif;font-size:13;" transform="matrix(1 0 0 1 776 2025)">scales and weights.</text>
  <g transform="matrix(1 0 0 1 1289 1933)">
   <path d="M2.8418 1.86523L4.54102 3.57422Q5.18555 4.22852 5.90332 4.17969Q6.62109 4.13086 7.31445 3.35938L18.0078-8.42773L17.041-9.4043L6.42578 2.27539Q6.16211 2.57812 5.89355 2.61719Q5.625 2.65625 5.27344 2.30469L4.10156 1.14258Q3.75 0.791016 3.79395 0.522461Q3.83789 0.253906 4.14062-0.0195312L15.6152-10.8203L14.6387-11.7871L3.04688-0.898438Q2.30469-0.214844 2.25098 0.498047Q2.19727 1.21094 2.8418 1.86523ZM9.25781-16.3281Q8.94531-16.0254 8.90625-15.6348Q8.86719-15.2441 9.04297-14.9512Q9.21875-14.6777 9.55566-14.541Q9.89258-14.4043 10.3809-14.5215Q11.4746-14.7754 12.5977-14.7314Q13.7207-14.6875 14.7949-13.9844L14.209-12.5293Q13.9551-11.9043 14.0674-11.4404Q14.1797-10.9766 14.5801-10.5664L16.875-8.25195Q17.2363-7.88086 17.5781-7.82227Q17.9199-7.76367 18.3398-7.8418L19.4043-8.03711L20.0684-7.36328L20.0293-6.80664Q20-6.43555 20.1221-6.12305Q20.2441-5.81055 20.6055-5.44922L21.3672-4.70703Q21.7285-4.3457 22.1533-4.33105Q22.5781-4.31641 22.9297-4.66797L25.8398-7.58789Q26.1914-7.93945 26.1816-8.35449Q26.1719-8.76953 25.8105-9.13086L25.0391-9.89258Q24.6875-10.2539 24.3799-10.3857Q24.0723-10.5176 23.7109-10.4883L23.1348-10.4395L22.4902-11.0742L22.7344-12.1973Q22.832-12.6172 22.6953-12.9834Q22.5586-13.3496 22.1191-13.7891L19.9219-15.9766Q18.6719-17.2168 17.2607-17.8369Q15.8496-18.457 14.4189-18.4814Q12.9883-18.5059 11.665-17.959Q10.3418-17.4121 9.25781-16.3281ZM10.752-15.957Q11.6602-16.6211 12.7002-16.9043Q13.7402-17.1875 14.8047-17.085Q15.8691-16.9824 16.8701-16.5137Q17.8711-16.0449 18.7012-15.2051L21.1328-12.793Q21.3086-12.6172 21.3525-12.4512Q21.3965-12.2852 21.3379-12.0312L21.0156-10.5469L22.5195-9.0625L23.5059-9.12109Q23.6914-9.13086 23.7891-9.09668Q23.8867-9.0625 24.0332-8.91602L24.6094-8.33984L22.168-5.89844L21.5918-6.47461Q21.4453-6.62109 21.4062-6.71875Q21.3672-6.81641 21.377-7.01172L21.4453-7.98828L19.9512-9.47266L18.4277-9.21875Q18.1836-9.16992 18.042-9.2041Q17.9004-9.23828 17.7148-9.41406L15.7129-11.416Q15.5176-11.5918 15.4932-11.7529Q15.4688-11.9141 15.5859-12.1875L16.4648-14.2773Q15.293-15.3711 13.8281-15.791Q12.3633-16.2109 10.8398-15.7617Q10.7227-15.7324 10.6885-15.8057Q10.6543-15.8789 10.752-15.957Z"/>
  </g>
  <text style="stroke:none;fill:black;font-family:sans-serif;font-size:13;font-weight:bold;" transform="matrix(1 0 0 1 1289 1953)">Exporting</text>
  <text style="stroke:none;fill:black;font-family:sans-serif;font-size:13;" transform="matrix(1 0 0 1 1289 1971)">Symbols should be outlined when exporting to ensure the</text>
  <text style="stroke:none;fill:black;font-family:sans-serif;font-size:13;" transform="matrix(1 0 0 1 1289 1989)">design is preserved when submitting to Xcode.</text>
  <text id="template-version" style="stroke:none;fill:black;font-family:sans-serif;font-size:13;text-anchor:end;" transform="matrix(1 0 0 1 3036 1933)">Template v.2.0</text>
  <text style="stroke:none;fill:black;font-family:sans-serif;font-size:13;text-anchor:end;" transform="matrix(1 0 0 1 3036 1951)">Requires Xcode 12 or greater</text>
  <text id="descriptive-name" style="stroke:none;fill:black;font-family:sans-serif;font-size:13;text-anchor:end;" transform="matrix(1 0 0 1 3036 1969)">Generated from figure.strengthtraining.functional</text>
  <text style="stroke:none;fill:black;font-family:sans-serif;font-size:13;text-anchor:end;" transform="matrix(1 0 0 1 3036 1987)">Typeset at 100 points</text>
  <text style="stroke:none;fill:black;font-family:sans-serif;font-size:13;" transform="matrix(1 0 0 1 263 726)">Small</text>
  <text style="stroke:none;fill:black;font-family:sans-serif;font-size:13;" transform="matrix(1 0 0 1 263 1156)">Medium</text>
  <text style="stroke:none;fill:black;font-family:sans-serif;font-size:13;" transform="matrix(1 0 0 1 263 1586)">Large</text>
 </g>
 <g id="Guides">
  <g id="H-reference" style="fill:#27AAE1;stroke:none;" transform="matrix(1 0 0 1 339 696)">
   <path d="M0.993347 0L3.6377 0L29.3282-67.1326L30.0301-67.1326L30.0301-70.459L28.1227-70.459ZM11.6882-24.4797L46.9818-24.4797L46.2311-26.7288L12.4382-26.7288ZM55.1193 0L57.7637 0L30.6381-70.459L29.4327-70.459L29.4327-67.1326Z"/>
  </g>
  <line id="Baseline-S" style="fill:none;stroke:#27AAE1;opacity:1;stroke-width:0.5;" x1="263" x2="3036" y1="696" y2="696"/>
  <line id="Capline-S" style="fill:none;stroke:#27AAE1;opacity:1;stroke-width:0.5;" x1="263" x2="3036" y1="625.541" y2="625.541"/>
  <g id="H-reference" style="fill:#27AAE1;stroke:none;" transform="matrix(1 0 0 1 339 1126)">
   <path d="M0.993347 0L3.6377 0L29.3282-67.1326L30.0301-67.1326L30.0301-70.459L28.1227-70.459ZM11.6882-24.4797L46.9818-24.4797L46.2311-26.7288L12.4382-26.7288ZM55.1193 0L57.7637 0L30.6381-70.459L29.4327-70.459L29.4327-67.1326Z"/>
  </g>
  <line id="Baseline-M" style="fill:none;stroke:#27AAE1;opacity:1;stroke-width:0.5;" x1="263" x2="3036" y1="1126" y2="1126"/>
  <line id="Capline-M" style="fill:none;stroke:#27AAE1;opacity:1;stroke-width:0.5;" x1="263" x2="3036" y1="1055.54" y2="1055.54"/>
  <g id="H-reference" style="fill:#27AAE1;stroke:none;" transform="matrix(1 0 0 1 339 1556)">
   <path d="M0.993347 0L3.6377 0L29.3282-67.1326L30.0301-67.1326L30.0301-70.459L28.1227-70.459ZM11.6882-24.4797L46.9818-24.4797L46.2311-26.7288L12.4382-26.7288ZM55.1193 0L57.7637 0L30.6381-70.459L29.4327-70.459L29.4327-67.1326Z"/>
  </g>
  <line id="Baseline-L" style="fill:none;stroke:#27AAE1;opacity:1;stroke-width:0.5;" x1="263" x2="3036" y1="1556" y2="1556"/>
  <line id="Capline-L" style="fill:none;stroke:#27AAE1;opacity:1;stroke-width:0.5;" x1="263" x2="3036" y1="1485.54" y2="1485.54"/>
  <line id="left-margin" style="fill:none;stroke:#00AEEF;stroke-width:0.5;opacity:1.0;" x1="1395.22" x2="1395.22" y1="1030.79" y2="1150.12"/>
  <line id="right-margin" style="fill:none;stroke:#00AEEF;stroke-width:0.5;opacity:1.0;" x1="1504.46" x2="1504.46" y1="1030.79" y2="1150.12"/>
 </g>
 <g id="Symbols">
  <g id="Black-L" transform="matrix(1 0 0 1 2859.06 1556)">
   <path d="M61.8863 27.8597Q63.9088 27.2603 65.3464 26.4203Q66.7839 25.5803 67.7621 23.8443L82.0513-1.71008Q82.429-2.40826 83.2076-2.40826L116.784-2.40826L116.784 29.9191Q116.784 33.2535 119.109 35.5388Q121.435 37.8241 124.611 37.8241Q127.925 37.8241 130.261 35.5388Q132.597 33.2535 132.597 29.9191L132.597-9.51145Q132.597-17.4605 124.486-18.1611L95.6146-20.7905L95.6146-57.2849Q95.6146-63.2279 91.5734-67.5493Q87.5323-71.8708 80.2465-71.8708L77.0786-71.8708Q72.9312-71.8708 69.3467-70.8887Q65.7622-69.9067 61.6172-66.8035L39.3937-50.1362Q36.079-47.6996 36.2294-43.5973Q36.3798-39.495 39.8322-37.2389L66.4625-19.4988L66.4625-18.5925L54.922 13.3615L21.9533 22.471Q18.7982 23.3104 17.142 26.1251Q15.4859 28.9397 16.3837 32.034Q17.3035 35.3708 20.0371 36.9081Q22.7707 38.4455 26.0282 37.6049ZM57.8423-44.2473L64.9525-49.5457Q65.4558-49.9686 65.9591-49.7759Q66.4625-49.5832 66.4625-48.9179L66.4625-38.4871ZM80.2465-78.3371Q86.6113-78.3371 91.1641-82.9004Q95.717-87.4637 95.717-93.8504Q95.717-100.253 91.1641-104.786Q86.6113-109.32 80.2465-109.32Q73.8014-109.32 69.2679-104.786Q64.7344-100.253 64.7344-93.8504Q64.7344-87.4637 69.2679-82.9004Q73.8014-78.3371 80.2465-78.3371Z"/>
  </g>
  <g id="Heavy-L" transform="matrix(1 0 0 1 2563.35 1556)">
   <path d="M60.9675 26.6717Q62.9398 26.0999 64.3134 25.2897Q65.6869 24.4795 66.6193 22.8256L80.7872-2.56375Q81.1423-3.23494 81.8938-3.23494L115.5-3.23494L115.5 28.9522Q115.5 32.1404 117.713 34.3135Q119.927 36.4866 122.965 36.4866Q126.129 36.4866 128.357 34.3135Q130.586 32.1404 130.586 28.9522L130.586-9.97638Q130.586-17.5824 122.813-18.2648L94.073-20.8716L94.073-57.1441Q94.073-62.909 90.1598-67.0981Q86.2466-71.2872 79.1616-71.2872L76.0389-71.2872Q71.9781-71.2872 68.4802-70.3233Q64.9823-69.3595 60.9327-66.3385L38.985-49.8791Q35.8214-47.5429 35.9671-43.6328Q36.1128-39.7226 39.3959-37.5718L65.8115-19.9797L65.8115-18.9123L54.3511 12.8187L21.6787 21.8477Q18.6703 22.655 17.0941 25.3346Q15.5179 28.0142 16.3699 30.9668Q17.2577 34.1662 19.854 35.6302Q22.4503 37.0942 25.5749 36.2812ZM56.5822-44.2598L64.2734-49.969Q64.7861-50.4012 65.2988-50.1923Q65.8115-49.9833 65.8115-49.3042L65.8115-38.0984ZM79.1616-77.807Q85.3531-77.807 89.7712-82.2402Q94.1892-86.6734 94.1892-92.9006Q94.1892-99.1067 89.7712-103.515Q85.3531-107.923 79.1616-107.923Q72.8896-107.923 68.4816-103.515Q64.0736-99.1067 64.0736-92.9006Q64.0736-86.6734 68.4816-82.2402Q72.8896-77.807 79.1616-77.807Z"/>
  </g>
  <g id="Bold-L" transform="matrix(1 0 0 1 2267.95 1556)">
   <path d="M59.8004 25.1741Q61.7112 24.6331 63.0079 23.8576Q64.3046 23.0821 65.183 21.5281L79.1751-3.60167Q79.4995-4.23467 80.2127-4.23467L113.746-4.23467L113.746 27.694Q113.746 30.7053 115.828 32.7475Q117.91 34.7897 120.788 34.7897Q123.774 34.7897 125.875 32.7475Q127.977 30.7053 127.977 27.694L127.977-10.5527Q127.977-17.7509 120.605-18.4103L92.1076-20.9865L92.1076-56.893Q92.1076-62.4426 88.3482-66.4702Q84.5888-70.4979 77.75-70.4979L74.6885-70.4979Q70.7352-70.4979 67.3449-69.5571Q63.9546-68.6163 60.0277-65.6951L38.4555-49.5193Q35.469-47.306 35.6108-43.6229Q35.7526-39.9398 38.8356-37.9122L64.9228-20.5417L64.9228-19.2968L53.592 12.083L21.3555 20.9898Q18.5165 21.7586 17.0364 24.2804Q15.5564 26.8022 16.3544 29.5855Q17.2037 32.6233 19.6384 34.0026Q22.0731 35.3819 25.0438 34.5997ZM55.0522-44.223L63.3612-50.3648Q63.8818-50.8048 64.4023-50.5804Q64.9228-50.3559 64.9228-49.6614L64.9228-37.6368ZM77.75-77.1016Q83.7262-77.1016 87.9827-81.3772Q92.2393-85.6528 92.2393-91.6802Q92.2393-97.648 87.9827-101.902Q83.7262-106.157 77.75-106.157Q71.6931-106.157 67.4388-101.902Q63.1844-97.648 63.1844-91.6802Q63.1844-85.6528 67.4388-81.3772Q71.6931-77.1016 77.75-77.1016Z"/>
  </g>
  <g id="Semibold-L" transform="matrix(1 0 0 1 1972.14 1556)">
   <path d="M58.9959 24.1416Q60.8643 23.622 62.1079 22.8703Q63.3516 22.1187 64.1929 20.6336L78.0637-4.31721Q78.367-4.92387 79.0537-4.92387L112.536-4.92387L112.536 26.8266Q112.536 29.7159 114.528 31.6679Q116.52 33.6199 119.286 33.6199Q122.151 33.6199 124.164 31.6679Q126.178 29.7159 126.178 26.8266L126.178-10.95Q126.178-17.867 119.082-18.5106L90.7527-21.0657L90.7527-56.7198Q90.7527-62.121 87.0993-66.0374Q83.446-69.9537 76.7768-69.9537L73.7575-69.9537Q69.8784-69.9537 66.5622-69.0288Q63.2461-68.1039 59.4039-65.2516L38.0905-49.2712Q35.2261-47.1427 35.3652-43.6161Q35.5042-40.0896 38.4493-38.1468L64.3101-20.9291L64.3101-19.5619L53.0688 11.5758L21.1326 20.3983Q18.4104 21.1406 16.9967 23.5536Q15.5829 25.9666 16.3438 28.6333Q17.1665 31.5596 19.4898 32.8805Q21.8131 34.2014 24.6776 33.4405ZM53.9974-44.1976L62.7323-50.6378Q63.2583-51.0831 63.7842-50.8479Q64.3101-50.6128 64.3101-49.9076L64.3101-37.3185ZM76.7768-76.6153Q82.6046-76.6153 86.7498-80.7822Q90.895-84.9492 90.895-90.8389Q90.895-96.6424 86.7498-100.791Q82.6046-104.939 76.7768-104.939Q70.8682-104.939 66.7198-100.791Q62.5715-96.6424 62.5715-90.8389Q62.5715-84.9492 66.7198-80.7822Q70.8682-76.6153 76.7768-76.6153Z"/>
  </g>
  <g id="Medium-L" transform="matrix(1 0 0 1 1676.11 1556)">
   <path d="M58.3858 23.3588Q60.2221 22.8552 61.4255 22.1218Q62.629 21.3883 63.4421 19.9553L77.221-4.85976Q77.5082-5.44646 78.175-5.44646L111.619-5.44646L111.619 26.1688Q111.619 28.9657 113.543 30.8493Q115.466 32.7329 118.148 32.7329Q120.92 32.7329 122.867 30.8493Q124.814 28.9657 124.814 26.1688L124.814-11.2512Q124.814-17.9551 117.927-18.5867L89.7253-21.1257L89.7253-56.5885Q89.7253-61.8772 86.1524-65.7091Q82.5794-69.5411 76.0388-69.5411L73.0517-69.5411Q69.2288-69.5411 65.9688-68.6282Q62.7088-67.7153 58.9309-64.9153L37.8137-49.0831Q35.0419-47.0189 35.1789-43.611Q35.3159-40.2031 38.1565-38.3248L63.8455-21.2229L63.8455-19.763L52.672 11.1913L20.9637 19.9499Q18.33 20.672 16.9666 23.0026Q15.6031 25.3331 16.3358 27.9113Q17.1383 30.7531 19.3771 32.0297Q21.6159 33.3063 24.3999 32.5615ZM53.1976-44.1784L62.2554-50.8447Q62.7856-51.2941 63.3156-51.0508Q63.8455-50.8076 63.8455-50.0943L63.8455-37.0772ZM76.0388-76.2465Q81.7542-76.2465 85.8149-80.3311Q89.8757-84.4157 89.8757-90.2009Q89.8757-95.8799 85.8149-99.9479Q81.7542-104.016 76.0388-104.016Q70.2427-104.016 66.1747-99.9479Q62.1067-95.8799 62.1067-90.2009Q62.1067-84.4157 66.1747-80.3311Q70.2427-76.2465 76.0388-76.2465Z"/>
  </g>
  <g id="Regular-L" transform="matrix(1 0 0 1 1380.28 1556)">
   <path d="M57.5901 22.3377Q59.3844 21.8552 60.5354 21.1453Q61.6865 20.4355 62.4628 19.0707L76.1218-5.56744Q76.3882-6.12809 77.0288-6.12809L110.423-6.12809L110.423 25.311Q110.423 27.9872 112.257 29.7815Q114.092 31.5759 116.663 31.5759Q119.314 31.5759 121.175 29.7815Q123.036 27.9872 123.036 25.311L123.036-11.6441Q123.036-18.0699 116.422-18.6859L88.3853-21.204L88.3853-56.4173Q88.3853-61.5591 84.9172-65.281Q81.4491-69.0029 75.0763-69.0029L72.131-69.0029Q68.3814-69.0029 65.1948-68.1058Q62.0081-67.2086 58.3139-64.4766L37.4527-48.8377Q34.8016-46.8574 34.936-43.6043Q35.0703-40.3512 37.7744-38.5568L63.2396-21.6061L63.2396-20.0251L52.1545 10.6897L20.7433 19.3649Q18.2252 20.0608 16.9272 22.2838Q15.6293 24.5068 16.3252 26.9696Q17.1016 29.7011 19.2302 30.92Q21.3588 32.1388 24.0378 31.4151ZM52.1545-44.1533L61.6334-51.1146Q62.169-51.5693 62.7043-51.3154Q63.2396-51.0616 63.2396-50.3378L63.2396-36.7625ZM75.0763-75.7656Q80.6449-75.7656 84.5955-79.7427Q88.5461-83.7198 88.5461-89.3688Q88.5461-94.8853 84.5955-98.8485Q80.6449-102.812 75.0763-102.812Q69.4268-102.812 65.4637-98.8485Q61.5005-94.8853 61.5005-89.3688Q61.5005-83.7198 65.4637-79.7427Q69.4268-75.7656 75.0763-75.7656Z"/>
  </g>
  <g id="Light-L" transform="matrix(1 0 0 1 1084.85 1556)">
   <path d="M56.5977 21.1352Q58.3539 20.6527 59.4667 19.9525Q60.5795 19.2523 61.3366 17.9445L74.7096-6.15905Q74.9378-6.66262 75.521-6.66262L108.151-6.66262L108.151 24.0514Q108.151 26.6321 109.948 28.3883Q111.744 30.1445 114.258 30.1445Q116.852 30.1445 118.665 28.3883Q120.478 26.6321 120.478 24.0514L120.478-12.045Q120.478-18.2989 114.017-18.8959L86.6675-21.3759L86.6675-55.7494Q86.6675-60.7767 83.2758-64.4032Q79.884-68.0298 73.6642-68.0298L70.7951-68.0298Q67.1219-68.0298 64.0115-67.1517Q60.9012-66.2736 57.3214-63.5986L36.9375-48.3224Q34.3437-46.4184 34.4875-43.2513Q34.6313-40.0841 37.2591-38.3279L62.0945-21.778L62.0945-20.2159L51.2957 9.77355L20.6288 18.2199Q18.1488 18.8965 16.8987 21.0719Q15.6486 23.2472 16.3252 25.6337Q17.0823 28.3079 19.1537 29.5077Q21.2251 30.7074 23.8659 29.9837ZM51.2957-43.7906L60.5455-50.5612Q61.0621-50.9966 61.5783-50.7618Q62.0945-50.5271 62.0945-49.8033L62.0945-36.5717ZM73.6642-74.9639Q79.0798-74.9639 82.9541-78.8553Q86.8284-82.7466 86.8284-88.2427Q86.8284-93.6258 82.9541-97.4936Q79.0798-101.361 73.6642-101.361Q68.1673-101.361 64.2995-97.4936Q60.4317-93.6258 60.4317-88.2427Q60.4317-82.7466 64.2995-78.8553Q68.1673-74.9639 73.6642-74.9639Z"/>
  </g>
  <g id="Thin-L" transform="matrix(1 0 0 1 789.832 1556)">
   <path d="M55.2851 19.5449Q56.9908 19.0624 58.0532 18.3749Q59.1156 17.6874 59.8472 16.4551L72.8419-6.9415Q73.0197-7.36958 73.527-7.36958L105.147-7.36958L105.147 22.3856Q105.147 24.8399 106.893 26.5456Q108.639 28.2513 111.078 28.2513Q113.596 28.2513 115.346 26.5456Q117.096 24.8399 117.096 22.3856L117.096-12.5751Q117.096-18.6017 110.837-19.1737L84.3957-21.6032L84.3957-54.866Q84.3957-59.7419 81.1048-63.2423Q77.814-66.7426 71.7964-66.7426L69.0283-66.7426Q65.456-66.7426 62.4466-65.8898Q59.4373-65.0369 56.0089-62.4375L36.2559-47.6409Q33.7381-45.8378 33.8944-42.7843Q34.0508-39.7308 36.5776-38.0251L60.5801-22.0053L60.5801-20.4683L50.16 8.56192L20.4774 16.7054Q18.0479 17.3566 16.861 19.469Q15.674 21.5814 16.3252 23.867Q17.0569 26.4652 19.0525 27.6397Q21.0482 28.8143 23.6386 28.0905ZM50.16-43.311L59.1065-49.8292Q59.5981-50.2391 60.0891-50.0296Q60.5801-49.8201 60.5801-49.0963L60.5801-36.3193ZM71.7964-73.9037Q77.0098-73.9037 80.7832-77.6816Q84.5565-81.4595 84.5565-86.7532Q84.5565-91.9599 80.7832-95.7016Q77.0098-99.4432 71.7964-99.4432Q66.5015-99.4432 62.7599-95.7016Q59.0182-91.9599 59.0182-86.7532Q59.0182-81.4595 62.7599-77.6816Q66.5015-73.9037 71.7964-73.9037Z"/>
  </g>
  <g id="Ultralight-L" transform="matrix(1 0 0 1 493.987 1556)">
   <path d="M54.6128 18.7303Q56.2927 18.2478 57.3292 17.5668Q58.3657 16.8858 59.0843 15.6922L71.8853-7.34227Q72.0372-7.73169 72.5056-7.73169L103.609-7.73169L103.609 21.5323Q103.609 23.9219 105.329 25.6018Q107.049 27.2817 109.449 27.2817Q111.928 27.2817 113.645 25.6018Q115.363 23.9219 115.363 21.5323L115.363-12.8466Q115.363-18.7568 109.208-19.316L83.232-21.7196L83.232-54.4135Q83.232-59.2119 79.9929-62.6476Q76.7537-66.0834 70.8398-66.0834L68.1234-66.0834Q64.6028-66.0834 61.6451-65.2434Q58.6874-64.4035 55.3366-61.8427L35.9069-47.2918Q33.428-45.5405 33.5907-42.5452Q33.7534-39.5499 36.2285-37.87L59.8044-22.1217L59.8044-20.5975L49.5783 7.94132L20.3999 15.9297Q17.9962 16.5679 16.8416 18.648Q15.6871 20.7281 16.3252 22.962Q17.0438 25.5214 19.0007 26.683Q20.9576 27.8446 23.5221 27.1208ZM49.5783-43.0653L58.3695-49.4543Q58.8483-49.8512 59.3263-49.6546Q59.8044-49.458 59.8044-48.7342L59.8044-36.1901ZM70.8398-73.3606Q75.9495-73.3606 79.6712-77.0804Q83.3929-80.8002 83.3929-85.9904Q83.3929-91.1067 79.6712-94.7837Q75.9495-98.4607 70.8398-98.4607Q65.6482-98.4607 61.9712-94.7837Q58.2943-91.1067 58.2943-85.9904Q58.2943-80.8002 61.9712-77.0804Q65.6482-73.3606 70.8398-73.3606Z"/>
  </g>
  <g id="Black-M" transform="matrix(1 0 0 1 2875.11 1126)">
   <path d="M48.6012 14.5064Q50.206 14.0184 51.3696 13.3433Q52.5331 12.6682 53.3277 11.2604L64.4637-8.60708Q64.7705-9.16346 65.3892-9.16346L91.2728-9.16346L91.2728 15.9042Q91.2728 18.6001 93.1658 20.4619Q95.0587 22.3237 97.6295 22.3237Q100.32 22.3237 102.215 20.4619Q104.111 18.6001 104.111 15.9042L104.111-14.9594Q104.111-21.3893 97.5568-21.9452L75.1688-23.9966L75.1688-52.3472Q75.1688-57.0891 71.9383-60.5379Q68.7078-63.9867 62.9114-63.9867L60.4285-63.9867Q57.1513-63.9867 54.3102-63.2128Q51.4691-62.439 48.1913-59.972L30.8014-46.9295Q28.1112-44.9659 28.2331-41.6341Q28.3549-38.3023 31.1648-36.4691L51.8956-22.6523L51.8956-22.0911L42.9246 2.75841L17.2287 9.85412Q14.6634 10.5293 13.318 12.8196Q11.9726 15.1099 12.7049 17.6186Q13.4425 20.314 15.6706 21.5655Q17.8987 22.817 20.5315 22.142ZM45.7795-42.156L50.7576-45.8821Q51.1369-46.1991 51.5162-46.0664Q51.8956-45.9337 51.8956-45.43L51.8956-38.0616ZM62.9114-68.9738Q67.9706-68.9738 71.6034-72.6094Q75.2363-76.2449 75.2363-81.3093Q75.2363-86.4201 71.6034-90.0273Q67.9706-93.6344 62.9114-93.6344Q57.79-93.6344 54.1828-90.0273Q50.5756-86.4201 50.5756-81.3093Q50.5756-76.2449 54.1828-72.6094Q57.79-68.9738 62.9114-68.9738Z"/>
  </g>
  <g id="Heavy-M" transform="matrix(1 0 0 1 2579.27 1126)">
   <path d="M47.7945 13.456Q49.3538 12.9949 50.4583 12.3481Q51.5628 11.7012 52.3145 10.3684L63.3582-9.38702Q63.6465-9.92228 64.244-9.92228L90.2274-9.92228L90.2274 15.0752Q90.2274 17.6371 92.0142 19.3927Q93.801 21.1483 96.2428 21.1483Q98.7906 21.1483 100.586 19.3927Q102.381 17.6371 102.381 15.0752L102.381-15.3769Q102.381-21.4874 96.1432-22.0272L73.8202-24.06L73.8202-52.2712Q73.8202-56.8495 70.7078-60.1778Q67.5954-63.506 61.9811-63.506L59.5354-63.506Q56.3358-63.506 53.5723-62.7482Q50.8088-61.9903 47.6137-59.5983L30.4494-46.7257Q27.9017-44.8531 28.018-41.7013Q28.1344-38.5495 30.7859-36.8157L51.3649-23.1065L51.3649-22.3861L42.4458 2.31229L16.9708 9.35038Q14.5453 9.99607 13.2738 12.1587Q12.0022 14.3213 12.6915 16.6985Q13.3995 19.265 15.4986 20.4465Q17.5978 21.6281 20.1042 20.9801ZM44.6269-42.2017L50.1941-46.3469Q50.5844-46.6748 50.9746-46.5245Q51.3649-46.3741 51.3649-45.857L51.3649-37.6992ZM61.9811-68.5295Q66.8851-68.5295 70.3932-72.0458Q73.9012-75.5621 73.9012-80.4847Q73.9012-85.4159 70.3932-88.9092Q66.8851-92.4026 61.9811-92.4026Q57.0149-92.4026 53.5215-88.9092Q50.0282-85.4159 50.0282-80.4847Q50.0282-75.5621 53.5215-72.0458Q57.0149-68.5295 61.9811-68.5295Z"/>
  </g>
  <g id="Bold-M" transform="matrix(1 0 0 1 2283.52 1126)">
   <path d="M46.8921 12.2809Q48.4005 11.85 49.439 11.2348Q50.4775 10.6195 51.181 9.37063L62.1216-10.2595Q62.3891-10.7711 62.9629-10.7711L89.058-10.7711L89.058 14.1478Q89.058 16.5597 90.726 18.1966Q92.394 19.8334 94.6917 19.8334Q97.0801 19.8334 98.7624 18.1966Q100.445 16.5597 100.445 14.1478L100.445-15.844Q100.445-21.5971 94.5618-22.119L72.3117-24.131L72.3117-52.1862Q72.3117-56.5816 69.3313-59.7749Q66.3509-62.9683 60.9405-62.9683L58.5363-62.9683Q55.4235-62.9683 52.7468-62.2283Q50.0701-61.4884 46.9675-59.1804L30.0556-46.4977Q27.6672-44.7271 27.7775-41.7765Q27.8878-38.826 30.3619-37.2034L50.7712-23.6146L50.7712-22.7162L41.9101 1.81323L16.6823 8.78686Q14.4133 9.39953 13.2243 11.4193Q12.0352 13.4391 12.6764 15.6693Q13.3514 18.0915 15.3063 19.1948Q17.2612 20.2981 19.6262 19.6803ZM43.3375-42.2529L49.5638-46.8669Q49.9663-47.207 50.3688-47.0369Q50.7712-46.8668 50.7712-46.3346L50.7712-37.2937ZM60.9405-68.0325Q65.6707-68.0325 69.0393-71.4154Q72.4078-74.7982 72.4078-79.5623Q72.4078-84.2926 69.0393-87.6586Q65.6707-91.0246 60.9405-91.0246Q56.1478-91.0246 52.7818-87.6586Q49.4158-84.2926 49.4158-79.5623Q49.4158-74.7982 52.7818-71.4154Q56.1478-68.0325 60.9405-68.0325Z"/>
  </g>
  <g id="Semibold-M" transform="matrix(1 0 0 1 1987.48 1126)">
   <path d="M46.27 11.4709Q47.7432 11.0607 48.7362 10.4672Q49.7292 9.87377 50.3996 8.68275L61.269-10.861Q61.5222-11.3563 62.0797-11.3563L88.2518-11.3563L88.2518 13.5085Q88.2518 15.817 89.838 17.372Q91.4241 18.927 93.6223 18.927Q95.9009 18.927 97.5055 17.372Q99.1101 15.817 99.1101 13.5085L99.1101-16.1659Q99.1101-21.6727 93.4717-22.1822L71.2717-24.1799L71.2717-52.1276Q71.2717-56.3968 68.3823-59.4972Q65.493-62.5975 60.223-62.5975L57.8476-62.5975Q54.7946-62.5975 52.1777-61.87Q49.5608-61.1424 46.5221-58.8922L29.7842-46.3406Q27.5056-44.6401 27.6117-41.8284Q27.7177-39.0166 30.0697-37.4707L50.3619-23.9649L50.3619-22.9437L41.5408 1.46919L16.4834 8.39838Q14.3223 8.98827 13.1901 10.9096Q12.058 12.831 12.666 14.9597Q13.3182 17.2825 15.1737 18.3319Q17.0292 19.3813 19.2967 18.7842ZM42.4487-42.2882L49.1293-47.2254Q49.5402-47.5739 49.9511-47.3902Q50.3619-47.2064 50.3619-46.6639L50.3619-37.0142ZM60.223-67.6899Q64.8336-67.6899 68.1059-70.9808Q71.3782-74.2716 71.3782-78.9263Q71.3782-83.5182 68.1059-86.7964Q64.8336-90.0746 60.223-90.0746Q55.5501-90.0746 52.2719-86.7964Q48.9937-83.5182 48.9937-78.9263Q48.9937-74.2716 52.2719-70.9808Q55.5501-67.6899 60.223-67.6899Z"/>
  </g>
  <g id="Medium-M" transform="matrix(1 0 0 1 1691.28 1126)">
   <path d="M45.7983 10.8566Q47.2449 10.4622 48.2034 9.88528Q49.1619 9.30832 49.8071 8.16117L60.6226-11.3171Q60.8649-11.8 61.4101-11.8L87.6405-11.8L87.6405 13.0238Q87.6405 15.2539 89.1646 16.7468Q90.6886 18.2396 92.8115 18.2396Q95.0067 18.2396 96.5525 16.7468Q98.0982 15.2539 98.0982 13.0238L98.0982-16.4101Q98.0982-21.73 92.6451-22.2302L70.4832-24.217L70.4832-52.0832Q70.4832-56.2567 67.6628-59.2866Q64.8424-62.3164 59.679-62.3164L57.3253-62.3164Q54.3177-62.3164 51.7462-61.5982Q49.1747-60.8801 46.1843-58.6737L29.5783-46.2214Q27.3831-44.5742 27.4859-41.8677Q27.5888-39.1612 29.8481-37.6734L50.0516-24.2305L50.0516-23.1163L41.2608 1.20832L16.3326 8.10382Q14.2533 8.67645 13.1643 10.5232Q12.0752 12.3699 12.6581 14.4217Q13.2931 16.669 15.0731 17.6775Q16.8532 18.6861 19.0469 18.1048ZM41.7747-42.3149L48.7998-47.4972Q49.2171-47.8521 49.6344-47.658Q50.0516-47.464 50.0516-46.9135L50.0516-36.8023ZM59.679-67.4301Q64.1988-67.4301 67.3982-70.6512Q70.5975-73.8723 70.5975-78.4442Q70.5975-82.931 67.3982-86.1426Q64.1988-89.3543 59.679-89.3543Q55.0968-89.3543 51.8852-86.1426Q48.6736-82.931 48.6736-78.4442Q48.6736-73.8723 51.8852-70.6512Q55.0968-67.4301 59.679-67.4301Z"/>
  </g>
  <g id="Regular-M" transform="matrix(1 0 0 1 1395.22 1126)">
   <path d="M45.183 10.0555Q46.5949 9.68162 47.5084 9.1262Q48.4219 8.57078 49.0343 7.48085L59.7795-11.9119Q60.0076-12.3788 60.5366-12.3788L86.8432-12.3788L86.8432 12.3915Q86.8432 14.5193 88.2863 15.9312Q89.7294 17.3431 91.7539 17.3431Q93.8405 17.3431 95.3094 15.9312Q96.7783 14.5193 96.7783 12.3915L96.7783-16.7285Q96.7783-21.8048 91.5669-22.2928L69.4547-24.2654L69.4547-52.0252Q69.4547-56.074 66.7243-59.0119Q63.9939-61.9498 58.9695-61.9498L56.6441-61.9498Q53.6957-61.9498 51.1834-61.2438Q48.6711-60.5379 45.7437-58.3888L29.3099-46.066Q27.2232-44.4883 27.3219-41.919Q27.4206-39.3497 29.5591-37.9378L49.6469-24.577L49.6469-23.3413L40.8956 0.868051L16.1359 7.7196Q14.1633 8.26971 13.1305 10.0191Q12.0977 11.7684 12.6479 13.72Q13.2603 15.8689 14.942 16.8241Q16.6237 17.7793 18.721 17.2185ZM40.8956-42.3498L48.37-47.8517Q48.7957-48.2149 49.2213-48.0074Q49.6469-47.7999 49.6469-47.2392L49.6469-36.5259ZM58.9695-67.0913Q63.3709-67.0913 66.4751-70.2214Q69.5793-73.3515 69.5793-77.8152Q69.5793-82.1651 66.4751-85.2899Q63.3709-88.4147 58.9695-88.4147Q54.5056-88.4147 51.3808-85.2899Q48.256-82.1651 48.256-77.8152Q48.256-73.3515 51.3808-70.2214Q54.5056-67.0913 58.9695-67.0913Z"/>
  </g>
  <g id="Light-M" transform="matrix(1 0 0 1 1099.66 1126)">
   <path d="M44.2932 8.97739Q45.6709 8.60356 46.5502 8.05676Q47.4295 7.50996 48.0246 6.4712L58.5134-12.4423Q58.7073-12.858 59.1848-12.858L84.807-12.858L84.807 11.2622Q84.807 13.3044 86.2158 14.6821Q87.6247 16.0598 89.598 16.0598Q91.6332 16.0598 93.0592 14.6821Q94.4853 13.3044 94.4853 11.2622L94.4853-17.0879Q94.4853-22.0101 89.4111-22.4811L67.9146-24.4195L67.9146-51.4263Q67.9146-55.3725 65.2527-58.2249Q62.5907-61.0773 57.7034-61.0773L55.4464-61.0773Q52.5664-61.0773 50.1226-60.3884Q47.6787-59.6996 44.854-57.6016L28.8479-45.604Q26.8127-44.0947 26.9199-41.6025Q27.027-39.1102 29.0971-37.7325L48.6202-24.731L48.6202-23.5124L40.1257 0.0467078L16.0333 6.693Q14.0949 7.22585 13.1049 8.93252Q12.115 10.6392 12.6479 12.5223Q13.243 14.6198 14.8734 15.5579Q16.5039 16.4959 18.5669 15.9352ZM40.1257-42.0247L47.3946-47.3555Q47.8033-47.7015 48.2118-47.5111Q48.6202-47.3207 48.6202-46.7599L48.6202-36.3548ZM57.7034-66.3726Q61.9677-66.3726 65.0034-69.4258Q68.0392-72.479 68.0392-76.8056Q68.0392-81.0359 65.0034-84.0751Q61.9677-87.1144 57.7034-87.1144Q53.3764-87.1144 50.3371-84.0751Q47.2978-81.0359 47.2978-76.8056Q47.2978-72.479 50.3371-69.4258Q53.3764-66.3726 57.7034-66.3726Z"/>
  </g>
  <g id="Thin-M" transform="matrix(1 0 0 1 804.465 1126)">
   <path d="M43.1164 7.55156Q44.4489 7.17773 45.2829 6.64233Q46.1169 6.10694 46.6893 5.13586L56.8389-13.1438Q56.9875-13.4919 57.397-13.4919L82.1139-13.4919L82.1139 9.76873Q82.1139 11.6976 83.4775 13.03Q84.8411 14.3625 86.7467 14.3625Q88.7138 14.3625 90.0832 13.03Q91.4527 11.6976 91.4527 9.76873L91.4527-17.5632Q91.4527-22.2815 86.5598-22.7301L65.8778-24.6233L65.8778-50.6343Q65.8778-54.4448 63.3063-57.184Q60.7349-59.9233 56.0289-59.9233L53.8624-59.9233Q51.0729-59.9233 48.7195-59.2571Q46.3662-58.5908 43.6772-56.5606L28.2369-44.993Q26.2697-43.5742 26.3881-41.1838Q26.5065-38.7935 28.4861-37.461L47.2625-24.9348L47.2625-23.7386L39.1075-1.03958L15.8976 5.33523Q14.0044 5.84527 13.0711 7.49548Q12.1378 9.14568 12.6479 10.9383Q13.2202 12.9677 14.7828 13.8832Q16.3453 14.7986 18.3631 14.2379ZM39.1075-41.5946L46.1045-46.6993Q46.4908-47.0224 46.8766-46.8546Q47.2625-46.6868 47.2625-46.1261L47.2625-36.1286ZM56.0289-65.422Q60.1118-65.422 63.0571-68.3735Q66.0024-71.325 66.0024-75.4702Q66.0024-79.5424 63.0571-82.4685Q60.1118-85.3947 56.0289-85.3947Q51.8829-85.3947 48.9567-82.4685Q46.0306-79.5424 46.0306-75.4702Q46.0306-71.325 48.9567-68.3735Q51.8829-65.422 56.0289-65.422Z"/>
  </g>
  <g id="Ultralight-M" transform="matrix(1 0 0 1 508.531 1126)">
   <path d="M42.5137 6.82125Q43.823 6.44742 44.6338 5.91787Q45.4447 5.38832 46.0053 4.45191L55.9812-13.5032Q56.1067-13.8165 56.4813-13.8165L80.7345-13.8165L80.7345 9.00376Q80.7345 10.8746 82.0749 12.1839Q83.4153 13.4931 85.2863 13.4931Q87.2186 13.4931 88.559 12.1839Q89.8994 10.8746 89.8994 9.00376L89.8994-17.8066Q89.8994-22.4206 85.0994-22.8577L64.8345-24.7277L64.8345-50.2287Q64.8345-53.9696 62.3094-56.6509Q59.7843-59.3322 55.1713-59.3322L53.0511-59.3322Q50.308-59.3322 48.0009-58.6776Q45.6939-58.023 43.0744-56.0274L27.9239-44.68Q25.9916-43.3076 26.1158-40.9694Q26.2399-38.6313 28.1731-37.322L46.567-25.0392L46.567-23.8545L38.5859-1.59598L15.828 4.63978Q13.958 5.13814 13.0538 6.75943Q12.1495 8.38071 12.6479 10.127Q13.2085 12.1216 14.7363 13.0254Q16.2641 13.9293 18.2587 13.3685ZM38.5859-41.3744L45.4437-46.3632Q45.8185-46.6746 46.1928-46.5184Q46.567-46.3622 46.567-45.8014L46.567-36.0127ZM55.1713-64.9352Q59.1612-64.9352 62.0602-67.8346Q64.9591-70.734 64.9591-74.7863Q64.9591-78.7774 62.0602-81.6456Q59.1612-84.5138 55.1713-84.5138Q51.1179-84.5138 48.2497-81.6456Q45.3815-78.7774 45.3815-74.7863Q45.3815-70.734 48.2497-67.8346Q51.1179-64.9352 55.1713-64.9352Z"/>
  </g>
  <g id="Black-S" transform="matrix(1 0 0 1 2887.53 696)">
   <path d="M38.2812 4.00391Q39.5508 3.61328 40.4785 3.07617Q41.4062 2.53906 42.041 1.41602L50.7812-14.1602Q51.0254-14.5996 51.5137-14.5996L71.7285-14.5996L71.7285 5.0293Q71.7285 7.17773 73.2422 8.66699Q74.7559 10.1562 76.8066 10.1562Q78.9551 10.1562 80.4688 8.66699Q81.9824 7.17773 81.9824 5.0293L81.9824-19.2383Q81.9824-24.3652 76.7578-24.8047L59.2285-26.416L59.2285-48.6328Q59.2285-52.3926 56.665-55.127Q54.1016-57.8613 49.5117-57.8613L47.5586-57.8613Q44.9707-57.8613 42.7246-57.251Q40.4785-56.6406 37.8906-54.6875L24.2188-44.4336Q22.0703-42.8711 22.168-40.21Q22.2656-37.5488 24.5117-36.084L40.7715-25.2441L40.7715-24.8535L33.7402-5.37109L13.5742 0.195312Q11.5234 0.732422 10.4492 2.56348Q9.375 4.39453 9.96094 6.39648Q10.5469 8.54492 12.3291 9.5459Q14.1113 10.5469 16.2109 10.0098ZM36.1816-40.625L39.8926-43.4082Q40.1855-43.6523 40.4785-43.5547Q40.7715-43.457 40.7715-43.0664L40.7715-37.5488ZM49.5117-61.7676Q53.5156-61.7676 56.3965-64.6484Q59.2773-67.5293 59.2773-71.5332Q59.2773-75.5859 56.3965-78.4424Q53.5156-81.2988 49.5117-81.2988Q45.459-81.2988 42.6025-78.4424Q39.7461-75.5859 39.7461-71.5332Q39.7461-67.5293 42.6025-64.6484Q45.459-61.7676 49.5117-61.7676Z"/>
  </g>
  <g id="Heavy-S" transform="matrix(1 0 0 1 2591.41 696)">
   <path d="M37.705 3.24329Q38.94 2.87572 39.8216 2.36166Q40.7033 1.84759 41.3034 0.78217L49.9976-14.7594Q50.2302-15.1874 50.707-15.1874L71.0947-15.1874L71.0947 4.4646Q71.0947 6.50932 72.5219 7.91214Q73.9491 9.31496 75.8962 9.31496Q77.9294 9.31496 79.3624 7.91214Q80.7954 6.50932 80.7954 4.4646L80.7954-19.5494Q80.7954-24.4229 75.8243-24.8508L58.272-26.4506L58.272-48.6443Q58.272-52.2773 55.8007-54.9195Q53.3294-57.5617 48.8779-57.5617L46.9478-57.5617Q44.4175-57.5617 42.2291-56.9629Q40.0406-56.364 37.5103-54.4685L23.9767-44.3183Q21.9435-42.825 22.0354-40.3079Q22.1273-37.7908 24.2467-36.4067L40.4488-25.6129L40.4488-25.084L33.4291-5.64768L13.3668-0.104324Q11.4312 0.409737 10.4146 2.13707Q9.39805 3.86441 9.94941 5.76264Q10.5123 7.80736 12.1908 8.75071Q13.8693 9.69406 15.8652 9.18ZM35.2943-40.7057L39.5353-43.8692Q39.8398-44.1248 40.1443-44.0099Q40.4488-43.895 40.4488-43.4928L40.4488-37.2607ZM48.8779-61.4795Q52.7665-61.4795 55.5494-64.2681Q58.3323-67.0568 58.3323-70.957Q58.3323-74.8714 55.5494-77.6414Q52.7665-80.4114 48.8779-80.4114Q44.9404-80.4114 42.1704-77.6414Q39.4004-74.8714 39.4004-70.957Q39.4004-67.0568 42.1704-64.2681Q44.9404-61.4795 48.8779-61.4795Z"/>
  </g>
  <g id="Bold-S" transform="matrix(1 0 0 1 2295.36 696)">
   <path d="M37.0605 2.39258Q38.2568 2.05078 39.0869 1.5625Q39.917 1.07422 40.4785 0.0732422L49.1211-15.4297Q49.3408-15.8447 49.8047-15.8447L70.3857-15.8447L70.3857 3.83301Q70.3857 5.76172 71.7163 7.06787Q73.0469 8.37402 74.8779 8.37402Q76.7822 8.37402 78.125 7.06787Q79.4678 5.76172 79.4678 3.83301L79.4678-19.8975Q79.4678-24.4873 74.7803-24.9023L57.2021-26.4893L57.2021-48.6572Q57.2021-52.1484 54.834-54.6875Q52.4658-57.2266 48.1689-57.2266L46.2646-57.2266Q43.7988-57.2266 41.6748-56.6406Q39.5508-56.0547 37.085-54.2236L23.7061-44.1895Q21.8018-42.7734 21.8872-40.4175Q21.9727-38.0615 23.9502-36.7676L40.0879-26.0254L40.0879-25.3418L33.0811-5.95703L13.1348-0.439453Q11.3281 0.0488281 10.376 1.66016Q9.42383 3.27148 9.93652 5.05371Q10.4736 6.98242 12.0361 7.86133Q13.5986 8.74023 15.4785 8.25195ZM34.3018-40.7959L39.1357-44.3848Q39.4531-44.6533 39.7705-44.519Q40.0879-44.3848 40.0879-43.9697L40.0879-36.9385ZM48.1689-61.1572Q51.9287-61.1572 54.6021-63.8428Q57.2754-66.5283 57.2754-70.3125Q57.2754-74.0723 54.6021-76.7456Q51.9287-79.4189 48.1689-79.4189Q44.3604-79.4189 41.687-76.7456Q39.0137-74.0723 39.0137-70.3125Q39.0137-66.5283 41.687-63.8428Q44.3604-61.1572 48.1689-61.1572Z"/>
  </g>
  <g id="Semibold-S" transform="matrix(1 0 0 1 1999.11 696)">
   <path d="M36.6162 1.80605Q37.7858 1.48203 38.5804 1.01152Q39.3749 0.541016 39.9098-0.415527L48.5168-15.8918Q48.7276-16.2979 49.1826-16.2979L69.897-16.2979L69.897 3.39756Q69.897 5.24629 71.1609 6.48579Q72.4248 7.72529 74.1759 7.72529Q75.9913 7.72529 77.2719 6.48579Q78.5524 5.24629 78.5524 3.39756L78.5524-20.1374Q78.5524-24.5317 74.0604-24.9379L56.4646-26.5159L56.4646-48.6661Q56.4646-52.0596 54.1675-54.5275Q51.8704-56.9955 47.6802-56.9955L45.7937-56.9955Q43.3723-56.9955 41.2927-56.4185Q39.2131-55.8414 36.7917-54.0548L23.5194-44.1006Q21.704-42.7379 21.785-40.493Q21.866-38.2481 23.7458-37.0164L39.8391-26.3098L39.8391-25.5195L32.8411-6.17031L12.9748-0.670508Q11.257-0.2 10.3493 1.33135Q9.4416 2.8627 9.92764 4.56494Q10.447 6.41367 11.9295 7.24814Q13.412 8.08262 15.2119 7.61211ZM33.6175-40.8581L38.8603-44.7402Q39.1865-45.0177 39.5128-44.8701Q39.8391-44.7225 39.8391-44.2985L39.8391-36.7163ZM47.6802-60.9351Q51.3511-60.9351 53.9489-63.5495Q56.5467-66.164 56.5467-69.8682Q56.5467-73.5213 53.9489-76.128Q51.3511-78.7347 47.6802-78.7347Q43.9604-78.7347 41.3538-76.128Q38.7471-73.5213 38.7471-69.8682Q38.7471-66.164 41.3538-63.5495Q43.9604-60.9351 47.6802-60.9351Z"/>
  </g>
  <g id="Medium-S" transform="matrix(1 0 0 1 1702.74 696)">
   <path d="M36.2793 1.36133Q37.4287 1.05078 38.1963 0.59375Q38.9639 0.136719 39.4785-0.786133L48.0586-16.2422Q48.2627-16.6416 48.7109-16.6416L69.5264-16.6416L69.5264 3.06738Q69.5264 4.85547 70.7397 6.04443Q71.9531 7.2334 73.6436 7.2334Q75.3916 7.2334 76.625 6.04443Q77.8584 4.85547 77.8584 3.06738L77.8584-20.3193Q77.8584-24.5654 73.5146-24.9648L55.9053-26.5361L55.9053-48.6729Q55.9053-51.9922 53.6621-54.4062Q51.4189-56.8203 47.3096-56.8203L45.4365-56.8203Q43.0488-56.8203 41.0029-56.25Q38.957-55.6797 36.5693-53.9268L23.3779-44.0332Q21.6299-42.7109 21.7075-40.5503Q21.7852-38.3896 23.5908-37.2051L39.6504-26.5254L39.6504-25.6543L32.6592-6.33203L12.8535-0.845703Q11.2031-0.388672 10.3291 1.08203Q9.45508 2.55273 9.9209 4.19434Q10.4268 5.98242 11.8486 6.7832Q13.2705 7.58398 15.0098 7.12695ZM33.0986-40.9053L38.6514-45.0098Q38.9844-45.2939 39.3174-45.1362Q39.6504-44.9785 39.6504-44.5479L39.6504-36.5479ZM47.3096-60.7666Q50.9131-60.7666 53.4536-63.3271Q55.9941-65.8877 55.9941-69.5312Q55.9941-73.1035 53.4536-75.6597Q50.9131-78.2158 47.3096-78.2158Q43.6572-78.2158 41.1011-75.6597Q38.5449-73.1035 38.5449-69.5312Q38.5449-65.8877 41.1011-63.3271Q43.6572-60.7666 47.3096-60.7666Z"/>
  </g>
  <g id="Regular-S" transform="matrix(1 0 0 1 1406.49 696)">
   <path d="M35.8398 0.78125Q36.9629 0.488281 37.6953 0.0488281Q38.4277-0.390625 38.916-1.26953L47.4609-16.6992Q47.6562-17.0898 48.0957-17.0898L69.043-17.0898L69.043 2.63672Q69.043 4.3457 70.1904 5.46875Q71.3379 6.5918 72.9492 6.5918Q74.6094 6.5918 75.7812 5.46875Q76.9531 4.3457 76.9531 2.63672L76.9531-20.5566Q76.9531-24.6094 72.8027-25L55.1758-26.5625L55.1758-48.6816Q55.1758-51.9043 53.0029-54.248Q50.8301-56.5918 46.8262-56.5918L44.9707-56.5918Q42.627-56.5918 40.625-56.0303Q38.623-55.4688 36.2793-53.7598L23.1934-43.9453Q21.5332-42.6758 21.6064-40.625Q21.6797-38.5742 23.3887-37.4512L39.4043-26.8066L39.4043-25.8301L32.4219-6.54297L12.6953-1.07422Q11.1328-0.634766 10.3027 0.756836Q9.47266 2.14844 9.91211 3.71094Q10.4004 5.41992 11.7432 6.17676Q13.0859 6.93359 14.7461 6.49414ZM32.4219-40.9668L38.3789-45.3613Q38.7207-45.6543 39.0625-45.4834Q39.4043-45.3125 39.4043-44.873L39.4043-36.3281ZM46.8262-60.5469Q50.3418-60.5469 52.8076-63.0371Q55.2734-65.5273 55.2734-69.0918Q55.2734-72.5586 52.8076-75.0488Q50.3418-77.5391 46.8262-77.5391Q43.2617-77.5391 40.7715-75.0488Q38.2812-72.5586 38.2812-69.0918Q38.2812-65.5273 40.7715-63.0371Q43.2617-60.5469 46.8262-60.5469Z"/>
  </g>
  <g id="Light-S" transform="matrix(1 0 0 1 1110.79 696)">
   <path d="M35.0527-0.172424Q36.1455-0.465393 36.8477-0.897217Q37.5498-1.32904 38.0229-2.16268L46.3409-17.1684Q46.506-17.5138 46.8999-17.5138L67.2417-17.5138L67.2417 1.63778Q67.2417 3.27098 68.3589 4.36376Q69.4761 5.45654 71.0421 5.45654Q72.6568 5.45654 73.7907 4.36376Q74.9247 3.27098 74.9247 1.63778L74.9247-20.8745Q74.9247-24.791 70.8956-25.1666L53.8134-26.6988L53.8134-48.1519Q53.8134-51.2838 51.7011-53.5519Q49.5888-55.82 45.7062-55.82L43.9112-55.82Q41.628-55.82 39.6866-55.2736Q37.7452-54.7272 35.4922-53.0635L22.7847-43.5366Q21.17-42.3276 21.2508-40.345Q21.3315-38.3624 22.98-37.2696L38.4961-26.943L38.4961-25.9814L31.7408-7.26954L12.6045-1.98237Q11.0723-1.55818 10.2801-0.204341Q9.48792 1.1495 9.91211 2.65147Q10.3851 4.31493 11.6825 5.05664Q12.9799 5.79834 14.6098 5.35889ZM31.7408-40.6792L37.516-44.9224Q37.8428-45.2001 38.1695-45.0443Q38.4961-44.8886 38.4961-44.4491L38.4961-36.1768ZM45.7062-59.9111Q49.1005-59.9111 51.5058-62.3333Q53.9111-64.7555 53.9111-68.1986Q53.9111-71.5597 51.5058-73.9742Q49.1005-76.3888 45.7062-76.3888Q42.2628-76.3888 39.8482-73.9742Q37.4336-71.5597 37.4336-68.1986Q37.4336-64.7555 39.8482-62.3333Q42.2628-59.9111 45.7062-59.9111Z"/>
  </g>
  <g id="Thin-S" transform="matrix(1 0 0 1 815.418 696)">
   <path d="M34.0117-1.43374Q35.0645-1.7267 35.7266-2.14844Q36.3888-2.57017 36.8416-3.34394L44.8597-17.789Q44.9847-18.0745 45.3184-18.0745L64.8593-18.0745L64.8593 0.316595Q64.8593 1.84956 65.9365 2.90232Q67.0136 3.95508 68.5198 3.95508Q70.0743 3.95508 71.1581 2.90232Q72.242 1.84956 72.242 0.316595L72.242-21.295Q72.242-25.0311 68.3734-25.3869L52.0116-26.8791L52.0116-47.4513Q52.0116-50.4631 49.9793-52.6311Q47.9471-54.7991 44.2249-54.7991L42.51-54.7991Q40.3068-54.7991 38.4455-54.2728Q36.5841-53.7464 34.4512-52.1425L22.2442-42.9961Q20.6897-41.8672 20.7804-39.9747Q20.8711-38.0822 22.4395-37.0294L37.295-27.1232L37.295-26.1815L30.8401-8.23049L12.4844-3.18348Q10.9922-2.77946 10.2502-1.47557Q9.5081-0.171686 9.91211 1.25024Q10.365 2.85349 11.6023 3.57518Q12.8396 4.29688 14.4295 3.85742ZM30.8401-40.2988L36.3748-44.3418Q36.6817-44.5994 36.9884-44.4636Q37.295-44.3279 37.295-43.8884L37.295-35.9767ZM44.2249-59.0702Q47.4588-59.0702 49.784-61.4025Q52.1093-63.7347 52.1093-67.0174Q52.1093-70.2385 49.784-72.553Q47.4588-74.8675 44.2249-74.8675Q40.9416-74.8675 38.6271-72.553Q36.3126-70.2385 36.3126-67.0174Q36.3126-63.7347 38.6271-61.4025Q40.9416-59.0702 44.2249-59.0702Z"/>
  </g>
  <g id="Ultralight-S" transform="matrix(1 0 0 1 519.394 696)">
   <path d="M33.4785-2.07977Q34.5108-2.37274 35.1524-2.78931Q35.7941-3.20587 36.2366-3.94897L44.101-18.1068Q44.2055-18.3617 44.5084-18.3617L63.6391-18.3617L63.6391-0.360107Q63.6391 1.12152 64.6957 2.15378Q65.7524 3.18604 67.2279 3.18604Q68.7515 3.18604 69.8097 2.15378Q70.8679 1.12152 70.8679-0.360107L70.8679-21.5103Q70.8679-25.1541 67.0815-25.4997L51.0887-26.9714L51.0887-47.0924Q51.0887-50.0427 49.0974-52.1595Q47.1062-54.2763 43.4662-54.2763L41.7923-54.2763Q39.6301-54.2763 37.8098-53.7601Q35.9894-53.244 33.918-51.6708L21.9673-42.7193Q20.4437-41.6313 20.5395-39.785Q20.6352-37.9387 22.1626-36.9064L36.6798-27.2156L36.6798-26.284L30.3787-8.72269L12.4229-3.79868Q10.9512-3.405 10.2348-2.12669Q9.51843-0.848389 9.91211 0.532532Q10.3546 2.10495 11.5612 2.81639Q12.7678 3.52783 14.3372 3.08838ZM30.3787-40.1039L35.7903-44.0445Q36.087-44.2917 36.3834-44.1662Q36.6798-44.0407 36.6798-43.6012L36.6798-35.8742ZM43.4662-58.6395Q46.6179-58.6395 48.9021-60.9257Q51.1864-63.2118 51.1864-66.4124Q51.1864-69.5618 48.9021-71.825Q46.6179-74.0883 43.4662-74.0883Q40.2649-74.0883 38.0016-71.825Q35.7384-69.5618 35.7384-66.4124Q35.7384-63.2118 38.0016-60.9257Q40.2649-58.6395 43.4662-58.6395Z"/>
  </g>
 </g>
</svg>
