<?xml version="1.0" encoding="UTF-8"?>
<!--Generator: Apple Native CoreSVG 175.5-->
<!DOCTYPE svg
PUBLIC "-//W3C//DTD SVG 1.1//EN"
       "http://www.w3.org/Graphics/SVG/1.1/DTD/svg11.dtd">
<svg version="1.1" xmlns="http://www.w3.org/2000/svg" xmlns:xlink="http://www.w3.org/1999/xlink" width="3300" height="2200">
 <!--glyph: "uni10152C.medium", point size: 100.0, font version: "18.0d9e1", template writer version: "84"-->
 <g id="Notes">
  <rect height="2200" id="artboard" style="fill:white;opacity:1" width="3300" x="0" y="0"/>
  <line style="fill:none;stroke:black;opacity:1;stroke-width:0.5;" x1="263" x2="3036" y1="292" y2="292"/>
  <text style="stroke:none;fill:black;font-family:sans-serif;font-size:13;font-weight:bold;" transform="matrix(1 0 0 1 263 322)">Weight/Scale Variations</text>
  <text style="stroke:none;fill:black;font-family:sans-serif;font-size:13;text-anchor:middle;" transform="matrix(1 0 0 1 559.711 322)">Ultralight</text>
  <text style="stroke:none;fill:black;font-family:sans-serif;font-size:13;text-anchor:middle;" transform="matrix(1 0 0 1 856.422 322)">Thin</text>
  <text style="stroke:none;fill:black;font-family:sans-serif;font-size:13;text-anchor:middle;" transform="matrix(1 0 0 1 1153.13 322)">Light</text>
  <text style="stroke:none;fill:black;font-family:sans-serif;font-size:13;text-anchor:middle;" transform="matrix(1 0 0 1 1449.84 322)">Regular</text>
  <text style="stroke:none;fill:black;font-family:sans-serif;font-size:13;text-anchor:middle;" transform="matrix(1 0 0 1 1746.56 322)">Medium</text>
  <text style="stroke:none;fill:black;font-family:sans-serif;font-size:13;text-anchor:middle;" transform="matrix(1 0 0 1 2043.27 322)">Semibold</text>
  <text style="stroke:none;fill:black;font-family:sans-serif;font-size:13;text-anchor:middle;" transform="matrix(1 0 0 1 2339.98 322)">Bold</text>
  <text style="stroke:none;fill:black;font-family:sans-serif;font-size:13;text-anchor:middle;" transform="matrix(1 0 0 1 2636.69 322)">Heavy</text>
  <text style="stroke:none;fill:black;font-family:sans-serif;font-size:13;text-anchor:middle;" transform="matrix(1 0 0 1 2933.4 322)">Black</text>
  <line style="fill:none;stroke:black;opacity:1;stroke-width:0.5;" x1="263" x2="3036" y1="1903" y2="1903"/>
  <g transform="matrix(1 0 0 1 263 1933)">
   <path d="M9.24805 0.830078Q10.8691 0.830078 12.2949 0.214844Q13.7207-0.400391 14.8096-1.49414Q15.8984-2.58789 16.5186-4.01367Q17.1387-5.43945 17.1387-7.05078Q17.1387-8.66211 16.5186-10.0879Q15.8984-11.5137 14.8047-12.6074Q13.7109-13.7012 12.2852-14.3164Q10.8594-14.9316 9.23828-14.9316Q7.62695-14.9316 6.20117-14.3164Q4.77539-13.7012 3.69141-12.6074Q2.60742-11.5137 1.9873-10.0879Q1.36719-8.66211 1.36719-7.05078Q1.36719-5.43945 1.9873-4.01367Q2.60742-2.58789 3.69629-1.49414Q4.78516-0.400391 6.21094 0.214844Q7.63672 0.830078 9.24805 0.830078ZM9.24805-0.654297Q7.91992-0.654297 6.7627-1.14746Q5.60547-1.64062 4.73145-2.51953Q3.85742-3.39844 3.36426-4.56055Q2.87109-5.72266 2.87109-7.05078Q2.87109-8.37891 3.35938-9.54102Q3.84766-10.7031 4.72168-11.582Q5.5957-12.4609 6.75293-12.9541Q7.91016-13.4473 9.23828-13.4473Q10.5762-13.4473 11.7383-12.9541Q12.9004-12.4609 13.7793-11.582Q14.6582-10.7031 15.1514-9.54102Q15.6445-8.37891 15.6445-7.05078Q15.6445-5.72266 15.1514-4.56055Q14.6582-3.39844 13.7793-2.51953Q12.9004-1.64062 11.7432-1.14746Q10.5859-0.654297 9.24805-0.654297ZM5.6543-7.05078Q5.6543-6.72852 5.85938-6.52832Q6.06445-6.32812 6.40625-6.32812L8.51562-6.32812L8.51562-4.20898Q8.51562-3.88672 8.71094-3.67676Q8.90625-3.4668 9.23828-3.4668Q9.56055-3.4668 9.77051-3.67676Q9.98047-3.88672 9.98047-4.20898L9.98047-6.32812L12.0898-6.32812Q12.4219-6.32812 12.627-6.52832Q12.832-6.72852 12.832-7.05078Q12.832-7.38281 12.627-7.58789Q12.4219-7.79297 12.0898-7.79297L9.98047-7.79297L9.98047-9.90234Q9.98047-10.2344 9.77051-10.4443Q9.56055-10.6543 9.23828-10.6543Q8.90625-10.6543 8.71094-10.4443Q8.51562-10.2344 8.51562-9.90234L8.51562-7.79297L6.40625-7.79297Q6.06445-7.79297 5.85938-7.58789Q5.6543-7.38281 5.6543-7.05078Z"/>
  </g>
  <g transform="matrix(1 0 0 1 281.867 1933)">
   <path d="M11.709 2.91016Q13.75 2.91016 15.5518 2.12891Q17.3535 1.34766 18.7305-0.0292969Q20.1074-1.40625 20.8887-3.20801Q21.6699-5.00977 21.6699-7.05078Q21.6699-9.0918 20.8887-10.8936Q20.1074-12.6953 18.7305-14.0723Q17.3535-15.4492 15.5469-16.2305Q13.7402-17.0117 11.6992-17.0117Q9.6582-17.0117 7.85645-16.2305Q6.05469-15.4492 4.68262-14.0723Q3.31055-12.6953 2.5293-10.8936Q1.74805-9.0918 1.74805-7.05078Q1.74805-5.00977 2.5293-3.20801Q3.31055-1.40625 4.6875-0.0292969Q6.06445 1.34766 7.86621 2.12891Q9.66797 2.91016 11.709 2.91016ZM11.709 1.25Q9.98047 1.25 8.47656 0.605469Q6.97266-0.0390625 5.83496-1.17676Q4.69727-2.31445 4.05762-3.81836Q3.41797-5.32227 3.41797-7.05078Q3.41797-8.7793 4.05762-10.2832Q4.69727-11.7871 5.83008-12.9297Q6.96289-14.0723 8.4668-14.7119Q9.9707-15.3516 11.6992-15.3516Q13.4277-15.3516 14.9365-14.7119Q16.4453-14.0723 17.583-12.9297Q18.7207-11.7871 19.3652-10.2832Q20.0098-8.7793 20.0098-7.05078Q20.0098-5.32227 19.3701-3.81836Q18.7305-2.31445 17.5879-1.17676Q16.4453-0.0390625 14.9414 0.605469Q13.4375 1.25 11.709 1.25ZM7.17773-7.05078Q7.17773-6.69922 7.41211-6.47461Q7.64648-6.25 8.01758-6.25L10.8887-6.25L10.8887-3.36914Q10.8887-2.99805 11.1133-2.76855Q11.3379-2.53906 11.6895-2.53906Q12.0605-2.53906 12.29-2.76855Q12.5195-2.99805 12.5195-3.36914L12.5195-6.25L15.4004-6.25Q15.7715-6.25 16.001-6.47461Q16.2305-6.69922 16.2305-7.05078Q16.2305-7.42188 16.001-7.65137Q15.7715-7.88086 15.4004-7.88086L12.5195-7.88086L12.5195-10.752Q12.5195-11.1328 12.29-11.3623Q12.0605-11.5918 11.6895-11.5918Q11.3379-11.5918 11.1133-11.3574Q10.8887-11.123 10.8887-10.752L10.8887-7.88086L8.01758-7.88086Q7.63672-7.88086 7.40723-7.65137Q7.17773-7.42188 7.17773-7.05078Z"/>
  </g>
  <g transform="matrix(1 0 0 1 305.646 1933)">
   <path d="M14.9707 5.66406Q17.0605 5.66406 18.96 5.01465Q20.8594 4.36523 22.4512 3.19336Q24.043 2.02148 25.2197 0.429688Q26.3965-1.16211 27.0459-3.06641Q27.6953-4.9707 27.6953-7.05078Q27.6953-9.14062 27.0459-11.04Q26.3965-12.9395 25.2197-14.5312Q24.043-16.123 22.4512-17.2998Q20.8594-18.4766 18.9551-19.126Q17.0508-19.7754 14.9609-19.7754Q12.8711-19.7754 10.9717-19.126Q9.07227-18.4766 7.48535-17.2998Q5.89844-16.123 4.72168-14.5312Q3.54492-12.9395 2.90039-11.04Q2.25586-9.14062 2.25586-7.05078Q2.25586-4.9707 2.90527-3.06641Q3.55469-1.16211 4.72656 0.429688Q5.89844 2.02148 7.49023 3.19336Q9.08203 4.36523 10.9814 5.01465Q12.8809 5.66406 14.9707 5.66406ZM14.9707 3.84766Q13.1641 3.84766 11.5283 3.2959Q9.89258 2.74414 8.53516 1.74805Q7.17773 0.751953 6.17676-0.610352Q5.17578-1.97266 4.62891-3.6084Q4.08203-5.24414 4.08203-7.05078Q4.08203-8.86719 4.62891-10.5029Q5.17578-12.1387 6.17188-13.501Q7.16797-14.8633 8.52539-15.8594Q9.88281-16.8555 11.5186-17.4023Q13.1543-17.9492 14.9609-17.9492Q16.7773-17.9492 18.4131-17.4023Q20.0488-16.8555 21.4111-15.8594Q22.7734-14.8633 23.7744-13.501Q24.7754-12.1387 25.3223-10.5029Q25.8691-8.86719 25.8691-7.05078Q25.8691-5.24414 25.3223-3.6084Q24.7754-1.97266 23.7793-0.610352Q22.7832 0.751953 21.4209 1.74805Q20.0586 2.74414 18.4229 3.2959Q16.7871 3.84766 14.9707 3.84766ZM9.19922-7.05078Q9.19922-6.66992 9.45801-6.4209Q9.7168-6.17188 10.1172-6.17188L14.0625-6.17188L14.0625-2.2168Q14.0625-1.81641 14.3115-1.55762Q14.5605-1.29883 14.9512-1.29883Q15.3516-1.29883 15.6104-1.55273Q15.8691-1.80664 15.8691-2.2168L15.8691-6.17188L19.8242-6.17188Q20.2246-6.17188 20.4785-6.4209Q20.7324-6.66992 20.7324-7.05078Q20.7324-7.46094 20.4785-7.71484Q20.2246-7.96875 19.8242-7.96875L15.8691-7.96875L15.8691-11.9141Q15.8691-12.3242 15.6104-12.583Q15.3516-12.8418 14.9512-12.8418Q14.5605-12.8418 14.3115-12.583Q14.0625-12.3242 14.0625-11.9141L14.0625-7.96875L10.1172-7.96875Q9.70703-7.96875 9.45312-7.71484Q9.19922-7.46094 9.19922-7.05078Z"/>
  </g>
  <text style="stroke:none;fill:black;font-family:sans-serif;font-size:13;font-weight:bold;" transform="matrix(1 0 0 1 263 1953)">Design Variations</text>
  <text style="stroke:none;fill:black;font-family:sans-serif;font-size:13;" transform="matrix(1 0 0 1 263 1971)">Symbols are supported in up to nine weights and three scales.</text>
  <text style="stroke:none;fill:black;font-family:sans-serif;font-size:13;" transform="matrix(1 0 0 1 263 1989)">For optimal layout with text and other symbols, vertically align</text>
  <text style="stroke:none;fill:black;font-family:sans-serif;font-size:13;" transform="matrix(1 0 0 1 263 2007)">symbols with the adjacent text.</text>
  <line style="fill:none;stroke:#00AEEF;stroke-width:0.5;opacity:1.0;" x1="776" x2="776" y1="1919" y2="1933"/>
  <g transform="matrix(1 0 0 1 776 1933)">
   <path d="M3.31055 0.15625Q3.70117 0.15625 3.91602-0.00976562Q4.13086-0.175781 4.26758-0.585938L5.52734-4.0332L11.2891-4.0332L12.5488-0.585938Q12.6855-0.175781 12.9004-0.00976562Q13.1152 0.15625 13.4961 0.15625Q13.8867 0.15625 14.1162-0.0585938Q14.3457-0.273438 14.3457-0.644531Q14.3457-0.869141 14.2383-1.17188L9.6582-13.3691Q9.48242-13.8184 9.17969-14.043Q8.87695-14.2676 8.4082-14.2676Q7.5-14.2676 7.17773-13.3789L2.59766-1.16211Q2.49023-0.859375 2.49023-0.634766Q2.49023-0.263672 2.70996-0.0537109Q2.92969 0.15625 3.31055 0.15625ZM6.00586-5.51758L8.37891-12.0898L8.42773-12.0898L10.8008-5.51758Z"/>
  </g>
  <line style="fill:none;stroke:#00AEEF;stroke-width:0.5;opacity:1.0;" x1="793.197" x2="793.197" y1="1919" y2="1933"/>
  <text style="stroke:none;fill:black;font-family:sans-serif;font-size:13;font-weight:bold;" transform="matrix(1 0 0 1 776 1953)">Margins</text>
  <text style="stroke:none;fill:black;font-family:sans-serif;font-size:13;" transform="matrix(1 0 0 1 776 1971)">Leading and trailing margins on the left and right side of each symbol</text>
  <text style="stroke:none;fill:black;font-family:sans-serif;font-size:13;" transform="matrix(1 0 0 1 776 1989)">can be adjusted by modifying the x-location of the margin guidelines.</text>
  <text style="stroke:none;fill:black;font-family:sans-serif;font-size:13;" transform="matrix(1 0 0 1 776 2007)">Modifications are automatically applied proportionally to all</text>
  <text style="stroke:none;fill:black;font-family:sans-serif;font-size:13;" transform="matrix(1 0 0 1 776 2025)">scales and weights.</text>
  <g transform="matrix(1 0 0 1 1289 1933)">
   <path d="M2.8418 1.86523L4.54102 3.57422Q5.18555 4.22852 5.90332 4.17969Q6.62109 4.13086 7.31445 3.35938L18.0078-8.42773L17.041-9.4043L6.42578 2.27539Q6.16211 2.57812 5.89355 2.61719Q5.625 2.65625 5.27344 2.30469L4.10156 1.14258Q3.75 0.791016 3.79395 0.522461Q3.83789 0.253906 4.14062-0.0195312L15.6152-10.8203L14.6387-11.7871L3.04688-0.898438Q2.30469-0.214844 2.25098 0.498047Q2.19727 1.21094 2.8418 1.86523ZM9.25781-16.3281Q8.94531-16.0254 8.90625-15.6348Q8.86719-15.2441 9.04297-14.9512Q9.21875-14.6777 9.55566-14.541Q9.89258-14.4043 10.3809-14.5215Q11.4746-14.7754 12.5977-14.7314Q13.7207-14.6875 14.7949-13.9844L14.209-12.5293Q13.9551-11.9043 14.0674-11.4404Q14.1797-10.9766 14.5801-10.5664L16.875-8.25195Q17.2363-7.88086 17.5781-7.82227Q17.9199-7.76367 18.3398-7.8418L19.4043-8.03711L20.0684-7.36328L20.0293-6.80664Q20-6.43555 20.1221-6.12305Q20.2441-5.81055 20.6055-5.44922L21.3672-4.70703Q21.7285-4.3457 22.1533-4.33105Q22.5781-4.31641 22.9297-4.66797L25.8398-7.58789Q26.1914-7.93945 26.1816-8.35449Q26.1719-8.76953 25.8105-9.13086L25.0391-9.89258Q24.6875-10.2539 24.3799-10.3857Q24.0723-10.5176 23.7109-10.4883L23.1348-10.4395L22.4902-11.0742L22.7344-12.1973Q22.832-12.6172 22.6953-12.9834Q22.5586-13.3496 22.1191-13.7891L19.9219-15.9766Q18.6719-17.2168 17.2607-17.8369Q15.8496-18.457 14.4189-18.4814Q12.9883-18.5059 11.665-17.959Q10.3418-17.4121 9.25781-16.3281ZM10.752-15.957Q11.6602-16.6211 12.7002-16.9043Q13.7402-17.1875 14.8047-17.085Q15.8691-16.9824 16.8701-16.5137Q17.8711-16.0449 18.7012-15.2051L21.1328-12.793Q21.3086-12.6172 21.3525-12.4512Q21.3965-12.2852 21.3379-12.0312L21.0156-10.5469L22.5195-9.0625L23.5059-9.12109Q23.6914-9.13086 23.7891-9.09668Q23.8867-9.0625 24.0332-8.91602L24.6094-8.33984L22.168-5.89844L21.5918-6.47461Q21.4453-6.62109 21.4062-6.71875Q21.3672-6.81641 21.377-7.01172L21.4453-7.98828L19.9512-9.47266L18.4277-9.21875Q18.1836-9.16992 18.042-9.2041Q17.9004-9.23828 17.7148-9.41406L15.7129-11.416Q15.5176-11.5918 15.4932-11.7529Q15.4688-11.9141 15.5859-12.1875L16.4648-14.2773Q15.293-15.3711 13.8281-15.791Q12.3633-16.2109 10.8398-15.7617Q10.7227-15.7324 10.6885-15.8057Q10.6543-15.8789 10.752-15.957Z"/>
  </g>
  <text style="stroke:none;fill:black;font-family:sans-serif;font-size:13;font-weight:bold;" transform="matrix(1 0 0 1 1289 1953)">Exporting</text>
  <text style="stroke:none;fill:black;font-family:sans-serif;font-size:13;" transform="matrix(1 0 0 1 1289 1971)">Symbols should be outlined when exporting to ensure the</text>
  <text style="stroke:none;fill:black;font-family:sans-serif;font-size:13;" transform="matrix(1 0 0 1 1289 1989)">design is preserved when submitting to Xcode.</text>
  <text id="template-version" style="stroke:none;fill:black;font-family:sans-serif;font-size:13;text-anchor:end;" transform="matrix(1 0 0 1 3036 1933)">Template v.2.0</text>
  <text style="stroke:none;fill:black;font-family:sans-serif;font-size:13;text-anchor:end;" transform="matrix(1 0 0 1 3036 1951)">Requires Xcode 12 or greater</text>
  <text id="descriptive-name" style="stroke:none;fill:black;font-family:sans-serif;font-size:13;text-anchor:end;" transform="matrix(1 0 0 1 3036 1969)">Generated from figure.handball</text>
  <text style="stroke:none;fill:black;font-family:sans-serif;font-size:13;text-anchor:end;" transform="matrix(1 0 0 1 3036 1987)">Typeset at 100 points</text>
  <text style="stroke:none;fill:black;font-family:sans-serif;font-size:13;" transform="matrix(1 0 0 1 263 726)">Small</text>
  <text style="stroke:none;fill:black;font-family:sans-serif;font-size:13;" transform="matrix(1 0 0 1 263 1156)">Medium</text>
  <text style="stroke:none;fill:black;font-family:sans-serif;font-size:13;" transform="matrix(1 0 0 1 263 1586)">Large</text>
 </g>
 <g id="Guides">
  <g id="H-reference" style="fill:#27AAE1;stroke:none;" transform="matrix(1 0 0 1 339 696)">
   <path d="M0.993347 0L3.6377 0L29.3282-67.1326L30.0301-67.1326L30.0301-70.459L28.1227-70.459ZM11.6882-24.4797L46.9818-24.4797L46.2311-26.7288L12.4382-26.7288ZM55.1193 0L57.7637 0L30.6381-70.459L29.4327-70.459L29.4327-67.1326Z"/>
  </g>
  <line id="Baseline-S" style="fill:none;stroke:#27AAE1;opacity:1;stroke-width:0.5;" x1="263" x2="3036" y1="696" y2="696"/>
  <line id="Capline-S" style="fill:none;stroke:#27AAE1;opacity:1;stroke-width:0.5;" x1="263" x2="3036" y1="625.541" y2="625.541"/>
  <g id="H-reference" style="fill:#27AAE1;stroke:none;" transform="matrix(1 0 0 1 339 1126)">
   <path d="M0.993347 0L3.6377 0L29.3282-67.1326L30.0301-67.1326L30.0301-70.459L28.1227-70.459ZM11.6882-24.4797L46.9818-24.4797L46.2311-26.7288L12.4382-26.7288ZM55.1193 0L57.7637 0L30.6381-70.459L29.4327-70.459L29.4327-67.1326Z"/>
  </g>
  <line id="Baseline-M" style="fill:none;stroke:#27AAE1;opacity:1;stroke-width:0.5;" x1="263" x2="3036" y1="1126" y2="1126"/>
  <line id="Capline-M" style="fill:none;stroke:#27AAE1;opacity:1;stroke-width:0.5;" x1="263" x2="3036" y1="1055.54" y2="1055.54"/>
  <g id="H-reference" style="fill:#27AAE1;stroke:none;" transform="matrix(1 0 0 1 339 1556)">
   <path d="M0.993347 0L3.6377 0L29.3282-67.1326L30.0301-67.1326L30.0301-70.459L28.1227-70.459ZM11.6882-24.4797L46.9818-24.4797L46.2311-26.7288L12.4382-26.7288ZM55.1193 0L57.7637 0L30.6381-70.459L29.4327-70.459L29.4327-67.1326Z"/>
  </g>
  <line id="Baseline-L" style="fill:none;stroke:#27AAE1;opacity:1;stroke-width:0.5;" x1="263" x2="3036" y1="1556" y2="1556"/>
  <line id="Capline-L" style="fill:none;stroke:#27AAE1;opacity:1;stroke-width:0.5;" x1="263" x2="3036" y1="1485.54" y2="1485.54"/>
  <line id="left-margin" style="fill:none;stroke:#00AEEF;stroke-width:0.5;opacity:1.0;" x1="1370.13" x2="1370.13" y1="1030.79" y2="1150.12"/>
  <line id="right-margin" style="fill:none;stroke:#00AEEF;stroke-width:0.5;opacity:1.0;" x1="1529.56" x2="1529.56" y1="1030.79" y2="1150.12"/>
 </g>
 <g id="Symbols">
  <g id="Black-L" transform="matrix(1 0 0 1 2825.09 1556)">
   <path d="M87.2552-86.5707Q91.9723-86.5707 95.2715-89.8589Q98.5707-93.1471 98.5707-97.885Q98.5707-102.623 95.2715-105.923Q91.9723-109.222 87.2552-109.222Q82.5757-109.222 79.2474-105.923Q75.919-102.623 75.919-97.885Q75.919-93.1471 79.2474-89.8589Q82.5757-86.5707 87.2552-86.5707ZM23.9318 6.92561L60.0907 6.92561Q61.6527 6.92561 62.5835 6.83477Q63.5144 6.74394 64.617 6.44427L98.5558-1.77864Q99.4436-1.99668 100.055-1.49177Q100.666-0.986856 100.549-0.0406616L98.688 15.2473L87.9485 7.62705Q85.2927 5.74984 82.0577 6.27916Q78.8228 6.80847 76.926 9.44467Q74.9695 12.1017 75.4982 15.3464Q76.027 18.5912 78.7216 20.5476L98.7608 34.7093Q102.879 37.6088 107.262 36.6708Q111.645 35.7328 112.705 31.3594L130.663-40.8699Q131.007-42.2566 132.415-41.9361L191.124-30.2776Q195.577-29.3798 198.052-32.044Q200.528-34.7082 200.528-38.045Q200.528-40.4828 199.02-42.8375Q197.513-45.1922 194.277-45.7915L135.474-57.6229Q122.399-60.2303 113.175-61.464Q103.952-62.6977 94.5489-62.6977L79.1301-62.6977L79.1301-78.4382Q79.1301-81.7738 76.8234-84.0987Q74.5167-86.4236 71.2239-86.4236Q67.8883-86.4236 65.592-84.0987Q63.2957-81.7738 63.2957-78.4382L63.2957-54.8708Q63.2957-51.6168 65.592-49.2803Q67.8883-46.9438 71.2239-46.9438L98.2055-46.9438Q98.9721-46.9438 99.3593-46.4074Q99.7464-45.871 99.5051-44.9876L94.381-25.1802Q93.1342-20.5477 88.6423-18.9173L59.7559-8.82839L23.9318-8.82839Q20.5962-8.82839 18.3401-6.52167Q16.084-4.21494 16.084-0.901383Q16.084 2.41457 18.3401 4.67009Q20.5962 6.92561 23.9318 6.92561ZM123.112-66.4926Q129.536-66.4926 134.07-71.0553Q138.603-75.618 138.603-82.0047Q138.603-88.429 134.07-92.9521Q129.536-97.4752 123.112-97.4752Q116.725-97.4752 112.163-92.9521Q107.6-88.429 107.6-82.0047Q107.6-75.618 112.163-71.0553Q116.725-66.4926 123.112-66.4926Z"/>
  </g>
  <g id="Heavy-L" transform="matrix(1 0 0 1 2529.82 1556)">
   <path d="M85.7027-85.7494Q90.2367-85.7494 93.4217-88.9166Q96.6068-92.0837 96.6068-96.6479Q96.6068-101.212 93.4217-104.4Q90.2367-107.588 85.7027-107.588Q81.1831-107.588 77.9758-104.4Q74.7684-101.212 74.7684-96.6479Q74.7684-92.0837 77.9758-88.9166Q81.1831-85.7494 85.7027-85.7494ZM23.5794 5.78075L59.2634 5.78075Q60.789 5.78075 61.6947 5.68521Q62.6005 5.58968 63.6849 5.30379L97.791-2.95272Q98.5691-3.15252 99.1027-2.69312Q99.6363-2.23373 99.547-1.41102L97.5886 14.7298L86.1754 6.61558Q83.6338 4.82553 80.5477 5.33194Q77.4616 5.83836 75.647 8.35545Q73.7821 10.9027 74.2857 14.0011Q74.7894 17.0994 77.3511 18.9643L97.6063 33.2627Q101.569 36.0568 105.757 35.1646Q109.946 34.2723 110.965 30.0958L128.757-41.4228Q129.114-42.8145 130.542-42.4985L188.693-30.9431Q192.945-30.0911 195.301-32.6249Q197.657-35.1586 197.657-38.3582Q197.657-40.6999 196.218-42.9356Q194.78-45.1712 191.691-45.7429L133.638-57.4209Q120.739-59.992 111.647-61.2122Q102.554-62.4323 93.2968-62.4323L77.8103-62.4323L77.8103-78.2406Q77.8103-81.4343 75.6042-83.6449Q73.3981-85.8554 70.2702-85.8554Q67.0764-85.8554 64.8854-83.6449Q62.6944-81.4343 62.6944-78.2406L62.6944-54.9671Q62.6944-51.8593 64.8854-49.6281Q67.0764-47.3969 70.2702-47.3969L97.1061-47.3969Q97.8959-47.3969 98.3222-46.8305Q98.7484-46.2641 98.5071-45.3851L93.3726-25.5965Q92.1115-20.866 87.5407-19.2218L58.9744-9.25476L23.5794-9.25476Q20.3856-9.25476 18.2348-7.04869Q16.084-4.84262 16.084-1.68456Q16.084 1.48473 18.2348 3.63274Q20.3856 5.78075 23.5794 5.78075ZM121.507-66.256Q127.749-66.256 132.157-70.6863Q136.565-75.1166 136.565-81.344Q136.565-87.5858 132.157-91.9787Q127.749-96.3717 121.507-96.3717Q115.279-96.3717 110.849-91.9787Q106.419-87.5858 106.419-81.344Q106.419-75.1166 110.849-70.6863Q115.279-66.256 121.507-66.256Z"/>
  </g>
  <g id="Bold-L" transform="matrix(1 0 0 1 2235 1556)">
   <path d="M83.7518-84.6755Q88.0703-84.6755 91.1169-87.6965Q94.1636-90.7175 94.1636-95.0739Q94.1636-99.4306 91.1169-102.484Q88.0703-105.537 83.7518-105.537Q79.4245-105.537 76.3633-102.484Q73.3021-99.4306 73.3021-95.0739Q73.3021-90.7175 76.3633-87.6965Q79.4245-84.6755 83.7518-84.6755ZM23.1639 4.37428L58.2041 4.37428Q59.6836 4.37428 60.5586 4.27481Q61.4336 4.17534 62.4949 3.90488L96.6893-4.36781Q97.3367-4.54452 97.778-4.14274Q98.2192-3.74096 98.1608-3.06438L96.1018 13.9875L83.9777 5.35563Q81.5747 3.66577 78.6618 4.14521Q75.7489 4.62466 74.0343 7.00317Q72.2771 9.41956 72.75 12.3448Q73.2229 15.2701 75.6306 17.0273L96.0578 31.4276Q99.8354 34.0985 103.793 33.2602Q107.751 32.4218 108.724 28.4762L126.271-42.0172Q126.644-43.4091 128.087-43.1008L185.428-31.6983Q189.441-30.9002 191.658-33.28Q193.876-35.6598 193.876-38.6978Q193.876-40.9241 192.518-43.0211Q191.16-45.1182 188.241-45.6591L131.214-57.1228Q118.553-59.6477 109.637-60.8488Q100.721-62.0498 91.6552-62.0498L76.1438-62.0498L76.1438-77.883Q76.1438-80.9074 74.0571-82.9833Q71.9703-85.0592 69.0348-85.0592Q66.0101-85.0592 63.9423-82.9833Q61.8745-80.9074 61.8745-77.883L61.8745-55.008Q61.8745-52.0771 63.9423-49.9691Q66.0101-47.861 69.0348-47.861L95.6193-47.861Q96.4324-47.861 96.901-47.2637Q97.3697-46.6663 97.1284-45.7948L92.001-26.089Q90.7319-21.2728 86.0836-19.6132L57.969-9.81469L23.1639-9.81469Q20.1392-9.81469 18.1116-7.72791Q16.084-5.64113 16.084-2.66772Q16.084 0.332136 18.1116 2.35321Q20.1392 4.37428 23.1639 4.37428ZM119.39-65.9564Q125.409-65.9564 129.663-70.2254Q133.918-74.4943 133.918-80.522Q133.918-86.5407 129.663-90.7761Q125.409-95.0115 119.39-95.0115Q113.362-95.0115 109.094-90.7761Q104.825-86.5407 104.825-80.522Q104.825-74.4943 109.094-70.2254Q113.362-65.9564 119.39-65.9564Z"/>
  </g>
  <g id="Semibold-L" transform="matrix(1 0 0 1 1939.59 1556)">
   <path d="M82.4068-83.9351Q86.5768-83.9351 89.528-86.8554Q92.4792-89.7757 92.4792-93.9889Q92.4792-98.2024 89.528-101.163Q86.5768-104.123 82.4068-104.123Q78.2122-104.123 75.2517-101.163Q72.2912-98.2024 72.2912-93.9889Q72.2912-89.7757 75.2517-86.8554Q78.2122-83.9351 82.4068-83.9351ZM22.8774 3.40467L57.4738 3.40467Q58.9216 3.40467 59.7754 3.30249Q60.6292 3.2003 61.6746 2.94047L95.9298-5.34337Q96.4871-5.50416 96.8647-5.1421Q97.2423-4.78004 97.2051-4.20421L95.0768 13.4758L82.4627 4.48702Q80.1552 2.86624 77.3617 3.32709Q74.5682 3.78794 72.9225 6.07092Q71.2396 8.39711 71.6913 11.203Q72.143 14.009 74.4446 15.6919L94.9903 30.1624Q98.6406 32.7485 102.439 31.9473Q106.238 31.146 107.179 27.3596L124.557-42.427Q124.941-43.8191 126.395-43.516L183.177-32.2189Q187.025-31.458 189.147-33.7317Q191.269-36.0053 191.269-38.9319Q191.269-41.0787 189.967-43.0802Q188.665-45.0817 185.862-45.6013L129.544-56.9172Q117.046-59.4104 108.252-60.5982Q99.4575-61.786 90.5235-61.786L74.995-61.786L74.995-77.6365Q74.995-80.5441 72.9905-82.5272Q70.9859-84.5103 68.183-84.5103Q65.2751-84.5103 63.2921-82.5272Q61.3092-80.5441 61.3092-77.6365L61.3092-55.0361Q61.3092-52.2272 63.2921-50.2041Q65.2751-48.181 68.183-48.181L94.5943-48.181Q95.4234-48.181 95.9213-47.5623Q96.4192-46.9436 96.178-46.0773L91.0555-26.4285Q89.7808-21.5533 85.0791-19.8831L57.2759-10.2007L22.8774-10.2007Q19.9694-10.2007 18.0267-8.19616Q16.084-6.19162 16.084-3.34551Q16.084-0.462453 18.0267 1.47111Q19.9694 3.40467 22.8774 3.40467ZM117.931-65.75Q123.796-65.75 127.944-69.9076Q132.093-74.0652 132.093-79.9552Q132.093-85.8203 127.944-89.947Q123.796-94.0738 117.931-94.0738Q112.041-94.0738 107.883-89.947Q103.726-85.8203 103.726-79.9552Q103.726-74.0652 107.883-69.9076Q112.041-65.75 117.931-65.75Z"/>
  </g>
  <g id="Medium-L" transform="matrix(1 0 0 1 1643.87 1556)">
   <path d="M81.387-83.3737Q85.4443-83.3737 88.3232-86.2176Q91.2021-89.0615 91.2021-93.1661Q91.2021-97.2711 88.3232-100.161Q85.4443-103.051 81.387-103.051Q77.2929-103.051 74.4088-100.161Q71.5246-97.2711 71.5246-93.1661Q71.5246-89.0615 74.4088-86.2176Q77.2929-83.3737 81.387-83.3737ZM22.6602 2.66947L56.9201 2.66947Q58.3438 2.66947 59.1815 2.56523Q60.0192 2.46099 61.0525 2.20922L95.3539-6.08308Q95.8429-6.23179 96.1722-5.89985Q96.5015-5.56791 96.4805-5.06847L94.2996 13.0878L81.314 3.82841Q79.0788 2.26 76.3759 2.70675Q73.6729 3.15351 72.0795 5.36404Q70.453 7.62184 70.8886 10.3373Q71.3242 13.0527 73.5452 14.6793L94.1808 29.2032Q97.7346 31.7249 101.413 30.9518Q105.091 30.1787 106.007 26.513L123.258-42.7378Q123.649-44.1299 125.111-43.8309L181.47-32.6136Q185.193-31.881 187.243-34.0741Q189.293-36.2673 189.293-39.1094Q189.293-41.1958 188.033-43.1249Q186.773-45.054 184.059-45.5575L128.277-56.7613Q115.904-59.2305 107.201-60.4083Q98.4992-61.586 89.6654-61.586L74.1239-61.586L74.1239-77.4496Q74.1239-80.2687 72.1817-82.1814Q70.2395-84.094 67.5372-84.094Q64.7177-84.094 62.7992-82.1814Q60.8806-80.2687 60.8806-77.4496L60.8806-55.0575Q60.8806-52.3411 62.7992-50.3823Q64.7177-48.4236 67.5372-48.4236L93.8171-48.4236Q94.6584-48.4236 95.1785-47.7887Q95.6986-47.1539 95.4573-46.2915L90.3385-26.6859Q89.0596-21.766 84.3174-20.0877L56.7503-10.4934L22.6602-10.4934Q19.8407-10.4934 17.9623-8.55121Q16.084-6.60903 16.084-3.85944Q16.084-1.06494 17.9623 0.802263Q19.8407 2.66947 22.6602 2.66947ZM116.824-65.5934Q122.573-65.5934 126.641-69.6667Q130.709-73.7399 130.709-79.5255Q130.709-85.274 126.641-89.3184Q122.573-93.3627 116.824-93.3627Q111.039-93.3627 106.966-89.3184Q102.892-85.274 102.892-79.5255Q102.892-73.7399 106.966-69.6667Q111.039-65.5934 116.824-65.5934Z"/>
  </g>
  <g id="Regular-L" transform="matrix(1 0 0 1 1348.45 1556)">
   <path d="M80.0568-82.6414Q83.9672-82.6414 86.7518-85.3857Q89.5363-88.13 89.5363-92.093Q89.5363-96.0564 86.7518-98.8546Q83.9672-101.653 80.0568-101.653Q76.0939-101.653 73.3094-98.8546Q70.5248-96.0564 70.5248-92.093Q70.5248-88.13 73.3094-85.3857Q76.0939-82.6414 80.0568-82.6414ZM22.3768 1.71051L56.1978 1.71051Q57.5901 1.71051 58.4068 1.60359Q59.2236 1.49667 60.2412 1.25541L94.6028-7.04792Q95.0026-7.18088 95.269-6.88823Q95.5353-6.59557 95.5353-6.19577L93.2859 12.5818L79.8156 2.96935Q77.6749 1.46925 75.09 1.89762Q72.5052 2.32599 70.9799 4.44203Q69.4268 6.61062 69.8415 9.20803Q70.2562 11.8055 72.3722 13.3586L93.125 27.952Q96.5529 30.3897 100.074 29.6533Q103.595 28.917 104.479 25.4087L121.563-43.1431Q121.965-44.5353 123.438-44.2415L179.243-33.1285Q182.804-32.4326 184.759-34.5208Q186.715-36.609 186.715-39.3409Q186.715-41.3487 185.51-43.1833Q184.305-45.0178 181.706-45.5004L126.624-56.558Q114.413-58.9958 105.831-60.1605Q97.2493-61.3252 88.5461-61.3252L72.9877-61.3252L72.9877-77.2058Q72.9877-79.9094 71.1268-81.7303Q69.266-83.5512 66.6949-83.5512Q63.9908-83.5512 62.1562-81.7303Q60.3216-79.9094 60.3216-77.2058L60.3216-55.0854Q60.3216-52.4896 62.1562-50.6148Q63.9908-48.74 66.6949-48.74L92.8033-48.74Q93.6606-48.74 94.2096-48.0841Q94.7586-47.4281 94.5173-46.5709L89.4033-27.0217Q88.1189-22.0434 83.3239-20.3546L56.0649-10.8752L22.3768-10.8752Q19.6727-10.8752 17.8783-9.01431Q16.084-7.15347 16.084-4.52978Q16.084-1.8508 17.8783-0.0701439Q19.6727 1.71051 22.3768 1.71051ZM115.381-65.3892Q120.978-65.3892 124.941-69.3524Q128.904-73.3156 128.904-78.965Q128.904-84.5615 124.941-88.4984Q120.978-92.4353 115.381-92.4353Q109.732-92.4353 105.769-88.4984Q101.805-84.5615 101.805-78.965Q101.805-73.3156 105.769-69.3524Q109.732-65.3892 115.381-65.3892Z"/>
  </g>
  <g id="Light-L" transform="matrix(1 0 0 1 1053.77 1556)">
   <path d="M78.5299-81.5345Q82.364-81.5345 85.0722-84.2025Q87.7804-86.8705 87.7804-90.7379Q87.7804-94.6061 85.0722-97.3375Q82.364-100.069 78.5299-100.069Q74.6625-100.069 71.9543-97.3375Q69.2461-94.6061 69.2461-90.7379Q69.2461-86.8705 71.9543-84.2025Q74.6625-81.5345 78.5299-81.5345ZM22.2242 0.813637L55.2435 0.813637Q56.5977 0.813637 57.3953 0.716175Q58.193 0.618712 59.1914 0.377452L92.8468-7.77325Q93.1896-7.88697 93.4178-7.64209Q93.646-7.39721 93.646-7.05448L91.4536 11.4175L78.2886 2.05324Q76.2246 0.572378 73.6873 0.991128Q71.1501 1.40988 69.6823 3.48776Q68.1673 5.59895 68.5629 8.12967Q68.9585 10.6604 71.0364 12.1753L91.2928 26.4061Q94.6444 28.8056 98.0698 28.0884Q101.495 27.3711 102.38 23.9391L119.044-42.9712Q119.446-44.3253 120.88-44.0507L175.35-33.2049Q178.815-32.5282 180.732-34.559Q182.649-36.5897 182.649-39.2646Q182.649-41.215 181.473-43.0114Q180.297-44.8078 177.737-45.2903L123.99-56.0427Q112.066-58.4423 103.694-59.5783Q95.3218-60.7143 86.8284-60.7143L71.6326-60.7143L71.6326-76.2326Q71.6326-78.8596 69.8195-80.6328Q68.0065-82.4061 65.4924-82.4061Q62.8646-82.4061 61.0682-80.6328Q59.2718-78.8596 59.2718-76.2326L59.2718-54.6082Q59.2718-52.108 61.0682-50.2713Q62.8646-48.4347 65.4924-48.4347L90.9711-48.4347Q91.8094-48.4347 92.3488-47.7979Q92.8882-47.161 92.6469-46.3228L87.6667-27.2125Q86.4393-22.4061 81.7206-20.7173L55.1298-11.4668L22.2242-11.4668Q19.5964-11.4668 17.8402-9.6537Q16.084-7.84063 16.084-5.29326Q16.084-2.65244 17.8402-0.919401Q19.5964 0.813637 22.2242 0.813637ZM113.091-65.141Q118.554-65.141 122.422-69.0088Q126.289-72.8766 126.289-78.3734Q126.289-83.8362 122.422-87.6873Q118.554-91.5384 113.091-91.5384Q107.594-91.5384 103.726-87.6873Q99.8586-83.8362 99.8586-78.3734Q99.8586-72.8766 103.726-69.0088Q107.594-65.141 113.091-65.141Z"/>
  </g>
  <g id="Thin-L" transform="matrix(1 0 0 1 759.744 1556)">
   <path d="M76.5103-80.0705Q80.2435-80.0705 82.8508-82.6376Q85.4581-85.2047 85.4581-88.9457Q85.4581-92.6879 82.8508-95.3309Q80.2435-97.9738 76.5103-97.9738Q72.7693-97.9738 70.1621-95.3309Q67.5548-92.6879 67.5548-88.9457Q67.5548-85.2047 70.1621-82.6376Q72.7693-80.0705 76.5103-80.0705ZM22.0223-0.372551L53.9814-0.372551Q55.2851-0.372551 56.0575-0.457503Q56.83-0.542455 57.8029-0.783715L90.5245-8.73255Q90.7918-8.82082 90.9695-8.63913Q91.1473-8.45745 91.1473-8.1902L89.0304 9.87759L76.2691 0.841603Q74.3064-0.613811 71.8321-0.207783Q69.3579 0.198244 67.966 2.22566Q66.5015 4.26093 66.8718 6.70344Q67.2422 9.14595 69.2696 10.6104L88.8695 24.3615Q92.1202 26.7106 95.4195 26.0186Q98.7188 25.3266 99.6034 21.9955L115.711-42.7439Q116.114-44.0475 117.498-43.7984L170.201-33.3058Q173.54-32.6546 175.406-34.6094Q177.273-36.5643 177.273-39.1637Q177.273-41.0381 176.134-42.7841Q174.996-44.53 172.486-45.0125L120.507-55.3612Q108.961-57.7103 100.867-58.8084Q92.7726-59.9064 84.5565-59.9064L69.8404-59.9064L69.8404-74.9455Q69.8404-77.4711 68.0905-79.1814Q66.3406-80.8917 63.9021-80.8917Q61.3752-80.8917 59.6292-79.1814Q57.8833-77.4711 57.8833-74.9455L57.8833-53.9772Q57.8833-51.6033 59.6292-49.8171Q61.3752-48.031 63.9021-48.031L88.5479-48.031Q89.3611-48.031 89.8878-47.4194Q90.4144-46.8078 90.1732-45.9945L85.3698-27.4648Q84.2179-22.8857 79.6001-21.1969L53.8932-12.2492L22.0223-12.2492Q19.4955-12.2492 17.7897-10.4993Q16.084-8.74947 16.084-6.30303Q16.084-3.71267 17.7897-2.04261Q19.4955-0.372551 22.0223-0.372551ZM110.062-64.8128Q115.348-64.8128 119.09-68.5544Q122.831-72.296 122.831-77.591Q122.831-82.8769 119.09-86.6146Q115.348-90.3523 110.062-90.3523Q104.767-90.3523 101.026-86.6146Q97.284-82.8769 97.284-77.591Q97.284-72.296 101.026-68.5544Q104.767-64.8128 110.062-64.8128Z"/>
  </g>
  <g id="Ultralight-L" transform="matrix(1 0 0 1 464.409 1556)">
   <path d="M75.476-79.3207Q79.1574-79.3207 81.713-81.8361Q84.2686-84.3514 84.2686-88.0277Q84.2686-91.7054 81.713-94.3031Q79.1574-96.9008 75.476-96.9008Q71.7997-96.9008 69.2441-94.3031Q66.6885-91.7054 66.6885-88.0277Q66.6885-84.3514 69.2441-81.8361Q71.7997-79.3207 75.476-79.3207ZM21.9189-0.980111L53.335-0.980111Q54.6128-0.980111 55.3723-1.05865Q56.1318-1.1372 57.0917-1.37846L89.335-9.22389Q89.5636-9.29914 89.7155-9.14981Q89.8674-9.00049 89.8674-8.77191L87.7892 9.08887L75.2347 0.22101Q73.3239-1.22137 70.8819-0.82186Q68.4399-0.422349 67.0869 1.57922Q65.6482 3.57561 66.0057 5.97294Q66.3631 8.37027 68.3647 9.80889L87.6283 23.3143Q90.8273 25.6376 94.062 24.9585Q97.2967 24.2794 98.1813 21L114.005-42.6274Q114.407-43.9052 115.765-43.6691L167.563-33.3575Q170.837-32.7193 172.678-34.6353Q174.519-36.5512 174.519-39.112Q174.519-40.9476 173.4-42.6676Q172.281-44.3877 169.797-44.8703L118.723-55.0122Q107.371-57.3354 99.4189-58.414Q91.4669-59.4926 83.3929-59.4926L68.9224-59.4926L68.9224-74.2862Q68.9224-76.7599 67.2049-78.438Q65.4874-80.116 63.0875-80.116Q60.6123-80.116 58.8922-78.438Q57.1721-76.7599 57.1721-74.2862L57.1721-53.654Q57.1721-51.3448 58.8922-49.5845Q60.6123-47.8242 63.0875-47.8242L87.3067-47.8242Q88.1071-47.8242 88.6273-47.2255Q89.1474-46.6268 88.9061-45.8264L84.1933-27.594Q83.0801-23.1314 78.5141-21.4426L53.2598-12.65L21.9189-12.65Q19.4438-12.65 17.7639-10.9325Q16.084-9.21496 16.084-6.82023Q16.084-4.25572 17.7639-2.61791Q19.4438-0.980111 21.9189-0.980111ZM108.511-64.6446Q113.706-64.6446 117.383-68.3216Q121.06-71.9986 121.06-77.1902Q121.06-82.3855 117.383-86.0651Q113.706-89.7447 108.511-89.7447Q103.319-89.7447 99.6422-86.0651Q95.9652-82.3855 95.9652-77.1902Q95.9652-71.9986 99.6422-68.3216Q103.319-64.6446 108.511-64.6446Z"/>
  </g>
  <g id="Black-M" transform="matrix(1 0 0 1 2848.53 1126)">
   <path d="M68.7277-75.5616Q72.5292-75.5616 75.173-78.2027Q77.8168-80.8439 77.8168-84.6509Q77.8168-88.4579 75.173-91.1016Q72.5292-93.7452 68.7277-93.7452Q64.9778-93.7452 62.3055-91.1016Q59.6332-88.4579 59.6332-84.6509Q59.6332-80.8439 62.3055-78.2027Q64.9778-75.5616 68.7277-75.5616ZM18.8231-1.70776L47.1365-1.70776Q48.3728-1.70776 49.1129-1.77281Q49.853-1.83786 50.7204-2.08187L76.7746-8.40295Q77.549-8.58494 78.0842-8.16112Q78.6195-7.7373 78.5053-6.90585L77.1544 4.16405L69.4544-1.28156Q67.309-2.80822 64.6813-2.37975Q62.0536-1.95129 60.5211 0.188274Q58.9319 2.33333 59.3605 4.96394Q59.7891 7.59455 61.9858 9.18379L77.2582 19.9889Q80.5717 22.3206 84.1216 21.5571Q87.6716 20.7937 88.5283 17.2466L102.527-39.1008Q102.781-40.1658 103.852-39.9163L149.634-30.8315Q153.244-30.0991 155.259-32.2675Q157.274-34.4359 157.274-37.1313Q157.274-39.0947 156.05-41.0162Q154.827-42.9377 152.2-43.4257L106.179-52.6823Q95.936-54.7286 88.7056-55.6921Q81.4753-56.6556 74.0944-56.6556L62.2561-56.6556L62.2561-68.7431Q62.2561-71.4388 60.389-73.3319Q58.5218-75.225 55.8368-75.225Q53.1412-75.225 51.2768-73.3319Q49.4124-71.4388 49.4124-68.7431L49.4124-50.299Q49.4124-47.6653 51.2768-45.7698Q53.1412-43.8742 55.8368-43.8742L76.7806-43.8742Q77.352-43.8742 77.617-43.4871Q77.882-43.1 77.6951-42.4143L73.7523-27.1119Q72.8064-23.6305 69.4044-22.3792L46.8404-14.4892L18.8231-14.4892Q16.1274-14.4892 14.2942-12.622Q12.4609-10.7549 12.4609-8.06443Q12.4609-5.37454 14.2942-3.54115Q16.1274-1.70776 18.8231-1.70776ZM96.4492-59.6201Q101.565-59.6201 105.172-63.2558Q108.78-66.8915 108.78-71.9559Q108.78-77.0719 105.172-80.6763Q101.565-84.2807 96.4492-84.2807Q91.3848-84.2807 87.7491-80.6763Q84.1134-77.0719 84.1134-71.9559Q84.1134-66.8915 87.7491-63.2558Q91.3848-59.6201 96.4492-59.6201Z"/>
  </g>
  <g id="Heavy-M" transform="matrix(1 0 0 1 2553.04 1126)">
   <path d="M67.3509-74.8608Q70.9805-74.8608 73.5197-77.3907Q76.0589-79.9206 76.0589-83.5666Q76.0589-87.2126 73.5197-89.753Q70.9805-92.2933 67.3509-92.2933Q63.7485-92.2933 61.1874-89.753Q58.6264-87.2126 58.6264-83.5666Q58.6264-79.9206 61.1874-77.3907Q63.7485-74.8608 67.3509-74.8608ZM18.4927-2.7442L46.4158-2.7442Q47.62-2.7442 48.3374-2.81471Q49.0547-2.88523 49.906-3.11577L76.189-9.48377Q76.8614-9.64971 77.3242-9.26598Q77.787-8.88225 77.6997-8.16625L76.2487 3.76552L67.8619-2.18583Q65.8211-3.62906 63.3345-3.22209Q60.8479-2.81513 59.3906-0.788478Q57.8873 1.25457 58.2931 3.74823Q58.699 6.2419 60.7692 7.74518L76.2985 18.7173Q79.4671 20.9496 82.8358 20.2291Q86.2046 19.5086 87.0208 16.1469L100.896-39.6572Q101.164-40.7305 102.256-40.4836L147.617-31.475Q151.038-30.7857 152.94-32.8318Q154.842-34.878 154.842-37.4445Q154.842-39.3193 153.684-41.1279Q152.525-42.9365 150.037-43.3975L104.627-52.5325Q94.53-54.5466 87.4087-55.4996Q80.2873-56.4525 73.0288-56.4525L61.0909-56.4525L61.0909-68.6397Q61.0909-71.2038 59.3177-72.9895Q57.5446-74.7751 55.0155-74.7751Q52.4513-74.7751 50.6864-72.9895Q48.9214-71.2038 48.9214-68.6397L48.9214-50.4372Q48.9214-47.9376 50.6864-46.1415Q52.4513-44.3454 55.0155-44.3454L75.8748-44.3454Q76.4707-44.3454 76.7748-43.9271Q77.0789-43.5088 76.892-42.8257L72.9267-27.5013Q71.9616-23.9082 68.4754-22.6434L46.1626-14.8514L18.4927-14.8514Q15.9286-14.8514 14.1948-13.0782Q12.4609-11.3051 12.4609-8.7596Q12.4609-6.20957 14.1948-4.47688Q15.9286-2.7442 18.4927-2.7442ZM95.0914-59.4116Q100.041-59.4116 103.535-62.9268Q107.028-66.4419 107.028-71.3646Q107.028-76.3144 103.535-79.7996Q100.041-83.2847 95.0914-83.2847Q90.1687-83.2847 86.6536-79.7996Q83.1384-76.3144 83.1384-71.3646Q83.1384-66.4419 86.6536-62.9268Q90.1687-59.4116 95.0914-59.4116Z"/>
  </g>
  <g id="Bold-M" transform="matrix(1 0 0 1 2257.69 1126)">
   <path d="M65.8106-74.0769Q69.2479-74.0769 71.6702-76.4823Q74.0925-78.8877 74.0925-82.3536Q74.0925-85.8195 71.6702-88.2443Q69.2479-90.6692 65.8106-90.6692Q62.3733-90.6692 59.9368-88.2443Q57.5002-85.8195 57.5002-82.3536Q57.5002-78.8877 59.9368-76.4823Q62.3733-74.0769 65.8106-74.0769ZM18.1232-3.9036L45.6096-3.9036Q46.7779-3.9036 47.4698-3.98024Q48.1617-4.05688 48.995-4.27234L75.534-10.6928Q76.0923-10.8408 76.474-10.5019Q76.8557-10.163 76.7986-9.57618L75.2355 3.31971L66.0805-3.19738Q64.1567-4.54728 61.828-4.16437Q59.4993-3.78146 58.1259-1.88112Q56.7188 0.0478129 57.0991 2.38829Q57.4795 4.72876 59.4084 6.13588L75.2251 17.2948Q78.2314 19.4158 81.3975 18.7434Q84.5635 18.071 85.3345 14.9167L99.0713-40.2796Q99.3543-41.3623 100.471-41.1182L145.36-32.1949Q148.571-31.5537 150.347-33.4631Q152.123-35.3726 152.123-37.7948Q152.123-39.5706 151.036-41.2529Q149.95-42.9351 147.619-43.3661L102.89-52.3648Q92.9573-54.3431 85.9578-55.2842Q78.9584-56.2253 71.8368-56.2253L59.7875-56.2253L59.7875-68.524Q59.7875-70.941 58.1194-72.6064Q56.4514-74.2719 54.0967-74.2719Q51.6796-74.2719 50.0259-72.6064Q48.3722-70.941 48.3722-68.524L48.3722-50.5918Q48.3722-48.2422 50.0259-46.5573Q51.6796-44.8724 54.0967-44.8724L74.8617-44.8724Q75.4848-44.8724 75.8327-44.4193Q76.1806-43.9662 75.9937-43.286L72.0032-27.9369Q71.0165-24.2188 67.4363-22.9389L45.4045-15.2566L18.1232-15.2566Q15.7061-15.2566 14.0835-13.5886Q12.4609-11.9206 12.4609-9.53725Q12.4609-7.14367 14.0835-5.52363Q15.7061-3.9036 18.1232-3.9036ZM93.5724-59.1785Q98.3364-59.1785 101.702-62.5587Q105.068-65.939 105.068-70.7031Q105.068-75.4671 101.702-78.8188Q98.3364-82.1705 93.5724-82.1705Q88.8083-82.1705 85.428-78.8188Q82.0478-75.4671 82.0478-70.7031Q82.0478-65.939 85.428-62.5587Q88.8083-59.1785 93.5724-59.1785Z"/>
  </g>
  <g id="Semibold-M" transform="matrix(1 0 0 1 1961.91 1126)">
   <path d="M64.7488-73.5365Q68.0535-73.5365 70.3952-75.8561Q72.7368-78.1757 72.7368-81.5173Q72.7368-84.8591 70.3952-87.2043Q68.0535-89.5495 64.7488-89.5495Q61.4253-89.5495 59.0745-87.2043Q56.7238-84.8591 56.7238-81.5173Q56.7238-78.1757 59.0745-75.8561Q61.4253-73.5365 64.7488-73.5365ZM17.8684-4.70288L45.0538-4.70288Q46.1973-4.70288 46.8717-4.78374Q47.546-4.8646 48.367-5.06967L75.0824-11.5264Q75.5621-11.662 75.8878-11.354Q76.2136-11.046 76.1773-10.5482L74.537 3.01237L64.8524-3.89474Q63.0093-5.1803 60.7894-4.81398Q58.5695-4.44765 57.254-2.63437Q55.9132-0.784116 56.276 1.45075Q56.6388 3.68561 58.4702 5.02644L74.485 16.3142Q77.3796 18.3585 80.4059 17.7193Q83.4322 17.08 84.172 14.0687L97.8134-40.7087Q98.1068-41.7978 99.2401-41.5558L143.804-32.6912Q146.871-32.0831 148.559-33.8983Q150.248-35.7135 150.248-38.0363Q150.248-39.7438 149.211-41.339Q148.175-42.9342 145.951-43.3444L101.694-52.2492Q91.873-54.2028 84.9576-55.1357Q78.0422-56.0687 71.0151-56.0687L58.8889-56.0687L58.8889-68.4442Q58.8889-70.7598 57.2933-72.3424Q55.6978-73.925 53.4633-73.925Q51.1476-73.925 49.5706-72.3424Q47.9935-70.7598 47.9935-68.4442L47.9935-50.6983Q47.9935-48.4522 49.5706-46.8439Q51.1476-45.2357 53.4633-45.2357L74.1632-45.2357Q74.8052-45.2357 75.1832-44.7587Q75.5613-44.2816 75.3744-43.6033L71.3666-28.2372Q70.3649-24.4329 66.7199-23.1427L44.8818-15.536L17.8684-15.536Q15.5527-15.536 14.0068-13.9404Q12.4609-12.3449 12.4609-10.0734Q12.4609-7.78764 14.0068-6.24526Q15.5527-4.70288 17.8684-4.70288ZM92.5253-59.0178Q97.1612-59.0178 100.439-62.305Q103.718-65.5923 103.718-70.2471Q103.718-74.883 100.439-78.1427Q97.1612-81.4024 92.5253-81.4024Q87.8705-81.4024 84.5832-78.1427Q81.2959-74.883 81.2959-70.2471Q81.2959-65.5923 84.5832-62.305Q87.8705-59.0178 92.5253-59.0178Z"/>
  </g>
  <g id="Medium-M" transform="matrix(1 0 0 1 1665.91 1126)">
   <path d="M63.9437-73.1267Q67.1479-73.1267 69.4284-75.3812Q71.7089-77.6357 71.7089-80.8833Q71.7089-84.1309 69.4284-86.4157Q67.1479-88.7005 63.9437-88.7005Q60.7064-88.7005 58.4208-86.4157Q56.1351-84.1309 56.1351-80.8833Q56.1351-77.6357 58.4208-75.3812Q60.7064-73.1267 63.9437-73.1267ZM17.6752-5.30894L44.6323-5.30894Q45.7572-5.30894 46.4182-5.39299Q47.0792-5.47705 47.8908-5.67424L74.74-12.1584Q75.16-12.2846 75.4434-12Q75.7268-11.7155 75.7063-11.2852L74.0074 2.77934L63.9212-4.4235Q62.1393-5.66029 60.0019-5.30653Q57.8645-4.95277 56.5929-3.20552Q55.3024-1.41492 55.6519 0.739866Q56.0014 2.89465 57.7589 4.18521L73.9239 15.5706Q76.7337 17.5568 79.654 16.9427Q82.5743 16.3286 83.2905 13.4256L96.8596-41.034Q97.1609-42.128 98.3069-41.8875L142.625-33.0675Q145.581-32.4846 147.204-34.2283Q148.827-35.972 148.827-38.2194Q148.827-39.8752 147.827-41.4043Q146.828-42.9335 144.687-43.3279L100.786-52.1616Q91.0509-54.0964 84.1992-55.0232Q77.3475-55.9499 70.392-55.9499L58.2075-55.9499L58.2075-68.3837Q58.2075-70.6224 56.667-72.1421Q55.1264-73.6619 52.983-73.6619Q50.7442-73.6619 49.2253-72.1421Q47.7064-70.6224 47.7064-68.3837L47.7064-50.7792Q47.7064-48.6114 49.2253-47.0613Q50.7442-45.5112 52.983-45.5112L73.6335-45.5112Q74.2898-45.5112 74.6908-45.0159Q75.0918-44.5207 74.9048-43.8438L70.8838-28.4648Q69.8709-24.5953 66.1767-23.2971L44.4855-15.7478L17.6752-15.7478Q15.4364-15.7478 13.9487-14.2072Q12.4609-12.6666 12.4609-10.4799Q12.4609-8.27592 13.9487-6.79243Q15.4364-5.30894 17.6752-5.30894ZM91.7313-58.8959Q96.27-58.8959 99.4817-62.1126Q102.693-65.3294 102.693-69.9014Q102.693-74.4401 99.4817-77.63Q96.27-80.82 91.7313-80.82Q87.1593-80.82 83.9426-77.63Q80.7258-74.4401 80.7258-69.9014Q80.7258-65.3294 83.9426-62.1126Q87.1593-58.8959 91.7313-58.8959Z"/>
  </g>
  <g id="Regular-M" transform="matrix(1 0 0 1 1370.13 1126)">
   <path d="M62.8935-72.5923Q65.9666-72.5923 68.1674-74.7619Q70.3681-76.9315 70.3681-80.0562Q70.3681-83.1811 68.1674-85.3871Q65.9666-87.5931 62.8935-87.5931Q59.7688-87.5931 57.568-85.3871Q55.3673-83.1811 55.3673-80.0562Q55.3673-76.9315 57.568-74.7619Q59.7688-72.5923 62.8935-72.5923ZM17.4232-6.09944L44.0826-6.09944Q45.183-6.09944 45.8266-6.18767Q46.4703-6.27589 47.2696-6.46281L74.2933-12.9827Q74.6356-13.0967 74.8637-12.8427Q75.0919-12.5888 75.0919-12.2465L73.3166 2.47537L62.7066-5.1132Q61.0045-6.28635 58.9747-5.94899Q56.945-5.61164 55.7306-3.95051Q54.5056-2.23771 54.8378-0.187371Q55.1699 1.86296 56.831 3.08796L73.192 14.6008Q75.8912 16.5111 78.6733 15.9298Q81.4554 15.3484 82.1408 12.5869L95.6156-41.4584Q95.9271-42.5588 97.0898-42.3202L141.086-33.5583Q143.899-33.0082 145.436-34.6587Q146.972-36.3092 146.972-38.4583Q146.972-40.0465 146.022-41.4896Q145.073-42.9326 143.038-43.3064L99.6021-52.0473Q89.9786-53.9576 83.21-54.8763Q76.4415-55.795 69.5793-55.795L57.3188-55.795L57.3188-68.3049Q57.3188-70.4432 55.8499-71.881Q54.381-73.3188 52.3565-73.3188Q50.2181-73.3188 48.775-71.881Q47.3319-70.4432 47.3319-68.3049L47.3319-50.8846Q47.3319-48.819 48.775-47.3448Q50.2181-45.8706 52.3565-45.8706L72.9427-45.8706Q73.6176-45.8706 74.0484-45.3516Q74.4793-44.8325 74.2924-44.1576L70.2542-28.7618Q69.2265-24.807 65.4681-23.4986L43.9686-16.024L17.4232-16.024Q15.2848-16.024 13.8729-14.5551Q12.4609-13.0862 12.4609-11.0101Q12.4609-8.9128 13.8729-7.50612Q15.2848-6.09944 17.4232-6.09944ZM90.6957-58.7369Q95.1077-58.7369 98.2325-61.8617Q101.357-64.9865 101.357-69.4504Q101.357-73.8624 98.2325-76.9614Q95.1077-80.0603 90.6957-80.0603Q86.2318-80.0603 83.107-76.9614Q79.9822-73.8624 79.9822-69.4504Q79.9822-64.9865 83.107-61.8617Q86.2318-58.7369 90.6957-58.7369Z"/>
  </g>
  <g id="Light-M" transform="matrix(1 0 0 1 1075.24 1126)">
   <path d="M61.5245-71.5999Q64.5292-71.5999 66.6615-73.7011Q68.7939-75.8023 68.7939-78.8413Q68.7939-81.8808 66.6615-84.0269Q64.5292-86.173 61.5245-86.173Q58.4855-86.173 56.3531-84.0269Q54.2208-81.8808 54.2208-78.8413Q54.2208-75.8023 56.3531-73.7011Q58.4855-71.5999 61.5245-71.5999ZM17.2864-6.90353L43.227-6.90353Q44.2932-6.90353 44.9198-6.98328Q45.5463-7.06303 46.3284-7.24994L72.7191-13.633Q73.0102-13.7297 73.2041-13.5186Q73.398-13.3075 73.398-13.0164L71.6739 1.43152L61.3376-5.93454Q59.7042-7.09045 57.7171-6.76171Q55.7301-6.43298 54.5672-4.80606Q53.3764-3.14472 53.6914-1.15418Q54.0064 0.836357 55.6334 2.02715L71.5493 13.2148Q74.1801 15.0909 76.8767 14.5267Q79.5733 13.9624 80.2586 11.2693L93.3568-41.3043Q93.6683-42.3705 94.7968-42.1492L137.595-33.6267Q140.323-33.0939 141.825-34.6929Q143.328-36.2919 143.328-38.3899Q143.328-39.9266 142.403-41.3355Q141.479-42.7443 139.479-43.1181L97.2407-51.5853Q87.8739-53.4614 81.2936-54.3544Q74.7134-55.2474 68.0392-55.2474L56.1039-55.2474L56.1039-67.4323Q56.1039-69.5019 54.6779-70.8971Q53.2518-72.2922 51.2785-72.2922Q49.2084-72.2922 47.7996-70.8971Q46.3907-69.5019 46.3907-67.4323L46.3907-50.4568Q46.3907-48.4769 47.7996-47.0369Q49.2084-45.5969 51.2785-45.5969L71.3001-45.5969Q71.958-45.5969 72.3802-45.095Q72.8024-44.593 72.6155-43.9351L68.6971-28.9329Q67.7207-25.1322 64.0307-23.8238L43.1303-16.5544L17.2864-16.5544Q15.2163-16.5544 13.8386-15.1284Q12.4609-13.7023 12.4609-11.6946Q12.4609-9.63152 13.8386-8.26752Q15.2163-6.90353 17.2864-6.90353ZM88.6424-58.5144Q92.9346-58.5144 95.9739-61.5537Q99.0131-64.593 99.0131-68.92Q99.0131-73.2121 95.9739-76.2342Q92.9346-79.2562 88.6424-79.2562Q84.3154-79.2562 81.2761-76.2342Q78.2369-73.2121 78.2369-68.92Q78.2369-64.593 81.2761-61.5537Q84.3154-58.5144 88.6424-58.5144Z"/>
  </g>
  <g id="Thin-M" transform="matrix(1 0 0 1 780.938 1126)">
   <path d="M59.7139-70.2873Q62.628-70.2873 64.6699-72.2981Q66.7118-74.3088 66.7118-77.2345Q66.7118-80.1611 64.6699-82.2279Q62.628-84.2947 59.7139-84.2947Q56.7882-84.2947 54.7463-82.2279Q52.7045-80.1611 52.7045-77.2345Q52.7045-74.3088 54.7463-72.2981Q56.7882-70.2873 59.7139-70.2873ZM17.1054-7.96701L42.0955-7.96701Q43.1164-7.96701 43.7204-8.03554Q44.3243-8.10407 45.0835-8.29099L70.637-14.4931Q70.8604-14.567 71.0091-14.4125Q71.1577-14.258 71.1577-14.0346L69.5013 0.0509353L59.527-7.02083Q57.9844-8.15393 56.0538-7.8366Q54.1233-7.51927 53.0284-5.9376Q51.8829-4.34432 52.1753-2.43287Q52.4677-0.521413 54.0494 0.624129L69.3767 11.3817Q71.917 13.2126 74.5005 12.671Q77.084 12.1294 77.7693 9.52679L90.3694-41.1005Q90.6809-42.1214 91.7642-41.9229L132.979-33.7172Q135.593-33.2072 137.05-34.7381Q138.507-36.2691 138.507-38.2994Q138.507-39.7681 137.617-41.1317Q136.727-42.4953 134.771-42.8691L94.1176-50.9743Q85.0903-52.8051 78.7591-53.6641Q72.4279-54.523 66.0024-54.523L54.4971-54.523L54.4971-66.2784Q54.4971-68.2571 53.1277-69.5958Q51.7583-70.9344 49.8526-70.9344Q47.8731-70.9344 46.5095-69.5958Q45.1459-68.2571 45.1459-66.2784L45.1459-49.891Q45.1459-48.0245 46.5095-46.6297Q47.8731-45.2349 49.8526-45.2349L69.1275-45.2349Q69.763-45.2349 70.1738-44.7556Q70.5845-44.2763 70.3976-43.6408L66.6379-29.1591Q65.7291-25.5622 62.1296-24.2538L42.0216-17.256L17.1054-17.256Q15.1258-17.256 13.7934-15.8865Q12.4609-14.5171 12.4609-12.5999Q12.4609-10.5821 13.7934-9.27454Q15.1258-7.96701 17.1054-7.96701ZM85.9269-58.2201Q90.0605-58.2201 92.9866-61.1463Q95.9128-64.0724 95.9128-68.2185Q95.9128-72.352 92.9866-75.2724Q90.0605-78.1928 85.9269-78.1928Q81.7809-78.1928 78.8547-75.2724Q75.9285-72.352 75.9285-68.2185Q75.9285-64.0724 78.8547-61.1463Q81.7809-58.2201 85.9269-58.2201Z"/>
  </g>
  <g id="Ultralight-M" transform="matrix(1 0 0 1 485.461 1126)">
   <path d="M58.7865-69.6151Q61.6543-69.6151 63.6498-71.5794Q65.6453-73.5438 65.6453-76.4115Q65.6453-79.2802 63.6498-81.3064Q61.6543-83.3326 58.7865-83.3326Q55.9188-83.3326 53.9233-81.3064Q51.9278-79.2802 51.9278-76.4115Q51.9278-73.5438 53.9233-71.5794Q55.9188-69.6151 58.7865-69.6151ZM17.0127-8.51172L41.5159-8.51172Q42.5137-8.51172 43.106-8.57451Q43.6984-8.63729 44.4459-8.8242L69.5705-14.9336Q69.7593-14.9958 69.8848-14.8704Q70.0103-14.7449 70.0103-14.5562L68.3885-0.656193L58.5996-7.57723Q57.1036-8.69863 55.2019-8.38715Q53.3003-8.07567 52.2403-6.51717Q51.1179-4.95875 51.3987-3.0878Q51.6795-1.21686 53.238-0.0944897L68.2639 10.4429Q70.7579 12.2506 73.2834 11.7206Q75.8089 11.1905 76.4943 8.63426L88.8393-40.9961Q89.1508-41.9939 90.2109-41.807L130.614-33.7636Q133.17-33.2652 134.604-34.7613Q136.038-36.2574 136.038-38.253Q136.038-39.6868 135.165-41.0273Q134.293-42.3677 132.36-42.7415L92.5179-50.6613Q83.6646-52.469 77.4609-53.3105Q71.2573-54.152 64.9591-54.152L53.6741-54.152L53.6741-65.6873Q53.6741-67.6195 52.3337-68.9292Q50.9933-70.239 49.1223-70.239Q47.1891-70.239 45.8487-68.9292Q44.5083-67.6195 44.5083-65.6873L44.5083-49.6012Q44.5083-47.7927 45.8487-46.4211Q47.1891-45.0495 49.1223-45.0495L68.0147-45.0495Q68.6387-45.0495 69.0436-44.5818Q69.4486-44.1141 69.2617-43.4901L65.5831-29.275Q64.709-25.7825 61.1559-24.4741L41.4537-17.6153L17.0127-17.6153Q15.0795-17.6153 13.7702-16.2749Q12.4609-14.9345 12.4609-13.0636Q12.4609-11.0689 13.7702-9.79033Q15.0795-8.51172 17.0127-8.51172ZM84.536-58.0694Q88.5884-58.0694 91.4566-60.9376Q94.3248-63.8058 94.3248-67.8592Q94.3248-71.9115 91.4566-74.7798Q88.5884-77.648 84.536-77.648Q80.4827-77.648 77.6145-74.7798Q74.7462-71.9115 74.7462-67.8592Q74.7462-63.8058 77.6145-60.9376Q80.4827-58.0694 84.536-58.0694Z"/>
  </g>
  <g id="Black-S" transform="matrix(1 0 0 1 2866.63 696)">
   <path d="M54.1992-66.9922Q57.2266-66.9922 59.3262-69.0918Q61.4258-71.1914 61.4258-74.2188Q61.4258-77.2461 59.3262-79.3457Q57.2266-81.4453 54.1992-81.4453Q51.2207-81.4453 49.0967-79.3457Q46.9727-77.2461 46.9727-74.2188Q46.9727-71.1914 49.0967-69.0918Q51.2207-66.9922 54.1992-66.9922ZM14.8438-8.69141L37.1094-8.69141Q38.0859-8.69141 38.6719-8.74023Q39.2578-8.78906 39.9414-8.98438L60.2539-13.916Q60.8887-14.0625 61.3281-13.7207Q61.7676-13.3789 61.6699-12.6953L60.6445-4.29688L54.834-8.39844Q53.125-9.61914 51.0254-9.27734Q48.9258-8.93555 47.7051-7.22656Q46.4355-5.51758 46.7773-3.41797Q47.1191-1.31836 48.877-0.0488281L60.7422 8.34961Q63.3789 10.2051 66.2109 9.59473Q69.043 8.98438 69.7266 6.15234L80.7129-38.0859Q80.9082-38.916 81.7383-38.7207L117.676-31.5918Q120.557-31.0059 122.168-32.7393Q123.779-34.4727 123.779-36.6211Q123.779-38.1836 122.803-39.7217Q121.826-41.2598 119.727-41.6504L83.5449-48.9258Q75.4883-50.5371 69.7998-51.2939Q64.1113-52.0508 58.3008-52.0508L49.0723-52.0508L49.0723-61.4746Q49.0723-63.623 47.583-65.1367Q46.0938-66.6504 43.9453-66.6504Q41.7969-66.6504 40.3076-65.1367Q38.8184-63.623 38.8184-61.4746L38.8184-46.9727Q38.8184-44.873 40.3076-43.3594Q41.7969-41.8457 43.9453-41.8457L60.3516-41.8457Q60.791-41.8457 60.9863-41.5527Q61.1816-41.2598 61.0352-40.7227L57.959-28.7598Q57.2266-26.0742 54.5898-25.0977L36.8652-18.8965L14.8438-18.8965Q12.6953-18.8965 11.2305-17.4072Q9.76562-15.918 9.76562-13.7695Q9.76562-11.6211 11.2305-10.1562Q12.6953-8.69141 14.8438-8.69141ZM75.8789-54.3945Q79.9316-54.3945 82.7881-57.2754Q85.6445-60.1562 85.6445-64.1602Q85.6445-68.2129 82.7881-71.0693Q79.9316-73.9258 75.8789-73.9258Q71.875-73.9258 68.9941-71.0693Q66.1133-68.2129 66.1133-64.1602Q66.1133-60.1562 68.9941-57.2754Q71.875-54.3945 75.8789-54.3945Z"/>
  </g>
  <g id="Heavy-S" transform="matrix(1 0 0 1 2570.72 696)">
   <path d="M53.1966-66.5197Q56.0856-66.5197 58.1046-68.5329Q60.1235-70.546 60.1235-73.4466Q60.1235-76.3472 58.1046-78.3661Q56.0856-80.3851 53.1966-80.3851Q50.3333-80.3851 48.2957-78.3661Q46.2581-76.3472 46.2581-73.4466Q46.2581-70.546 48.2957-68.5329Q50.3333-66.5197 53.1966-66.5197ZM14.5787-9.47507L36.6023-9.47507Q37.5558-9.47507 38.1245-9.52966Q38.6931-9.58425 39.3652-9.76804L59.9543-14.7573Q60.5084-14.8923 60.8902-14.5793Q61.272-14.2663 61.1974-13.6749L60.0798-4.50432L53.647-9.06686Q52.0187-10.2184 50.0343-9.8939Q48.0499-9.56939 46.8868-7.9526Q45.6865-6.32429 46.011-4.33416Q46.3355-2.34404 47.9896-1.14365L60.1314 7.43918Q62.6529 9.21397 65.3408 8.6382Q68.0288 8.06242 68.6778 5.3802L79.6065-38.5815Q79.8134-39.4231 80.6665-39.2278L116.397-32.1334Q119.128-31.5821 120.647-33.2175Q122.166-34.853 122.166-36.8977Q122.166-38.391 121.241-39.8369Q120.316-41.2828 118.332-41.6504L82.5192-48.8566Q74.5548-50.4449 68.9355-51.196Q63.3161-51.9471 57.5863-51.9471L48.231-51.9471L48.231-61.4977Q48.231-63.5424 46.8166-64.9696Q45.4023-66.3969 43.3806-66.3969Q41.3359-66.3969 39.9273-64.9696Q38.5187-63.5424 38.5187-61.4977L38.5187-47.1455Q38.5187-45.1496 39.9273-43.7166Q41.3359-42.2836 43.3806-42.2836L59.7869-42.2836Q60.2494-42.2836 60.4793-41.9619Q60.7091-41.6401 60.5627-41.103L57.4519-29.0709Q56.6964-26.2701 53.979-25.282L36.3927-19.1385L14.5787-19.1385Q12.534-19.1385 11.1498-17.7241Q9.76562-16.3098 9.76562-14.2766Q9.76562-12.2434 11.1498-10.8592Q12.534-9.47507 14.5787-9.47507ZM74.98-54.2447Q78.906-54.2447 81.676-57.0334Q84.446-59.822 84.446-63.7222Q84.446-67.6482 81.676-70.4124Q78.906-73.1767 74.98-73.1767Q71.0798-73.1767 68.2911-70.4124Q65.5025-67.6482 65.5025-63.7222Q65.5025-59.822 68.2911-57.0334Q71.0798-54.2447 74.98-54.2447Z"/>
  </g>
  <g id="Bold-S" transform="matrix(1 0 0 1 2274.91 696)">
   <path d="M52.0752-65.9912Q54.8096-65.9912 56.7383-67.9077Q58.667-69.8242 58.667-72.583Q58.667-75.3418 56.7383-77.2705Q54.8096-79.1992 52.0752-79.1992Q49.3408-79.1992 47.3999-77.2705Q45.459-75.3418 45.459-72.583Q45.459-69.8242 47.3999-67.9077Q49.3408-65.9912 52.0752-65.9912ZM14.2822-10.3516L36.0352-10.3516Q36.9629-10.3516 37.5122-10.4126Q38.0615-10.4736 38.7207-10.6445L59.6191-15.6982Q60.083-15.8203 60.4004-15.5396Q60.7178-15.2588 60.6689-14.7705L59.4482-4.73633L52.3193-9.81445Q50.7812-10.8887 48.9258-10.5835Q47.0703-10.2783 45.9717-8.76465Q44.8486-7.22656 45.1538-5.35889Q45.459-3.49121 46.9971-2.36816L59.4482 6.4209Q61.8408 8.10547 64.3677 7.56836Q66.8945 7.03125 67.5049 4.5166L78.3691-39.1357Q78.5889-39.9902 79.4678-39.7949L114.966-32.7393Q117.529-32.2266 118.945-33.7524Q120.361-35.2783 120.361-37.207Q120.361-38.623 119.495-39.9658Q118.628-41.3086 116.772-41.6504L81.3721-48.7793Q73.5107-50.3418 67.9688-51.0864Q62.4268-51.8311 56.7871-51.8311L47.29-51.8311L47.29-61.5234Q47.29-63.4521 45.9595-64.7827Q44.6289-66.1133 42.749-66.1133Q40.8203-66.1133 39.502-64.7827Q38.1836-63.4521 38.1836-61.5234L38.1836-47.3389Q38.1836-45.459 39.502-44.1162Q40.8203-42.7734 42.749-42.7734L59.1553-42.7734Q59.6436-42.7734 59.9121-42.4194Q60.1807-42.0654 60.0342-41.5283L56.8848-29.4189Q56.1035-26.4893 53.2959-25.4883L35.8643-19.4092L14.2822-19.4092Q12.3535-19.4092 11.0596-18.0786Q9.76562-16.748 9.76562-14.8438Q9.76562-12.9395 11.0596-11.6455Q12.3535-10.3516 14.2822-10.3516ZM73.9746-54.0771Q77.7588-54.0771 80.4321-56.7627Q83.1055-59.4482 83.1055-63.2324Q83.1055-67.0166 80.4321-69.6777Q77.7588-72.3389 73.9746-72.3389Q70.1904-72.3389 67.5049-69.6777Q64.8193-67.0166 64.8193-63.2324Q64.8193-59.4482 67.5049-56.7627Q70.1904-54.0771 73.9746-54.0771Z"/>
  </g>
  <g id="Semibold-S" transform="matrix(1 0 0 1 1978.83 696)">
   <path d="M51.3021-65.6269Q53.9298-65.6269 55.7963-67.4767Q57.6628-69.3266 57.6628-71.9876Q57.6628-74.6486 55.7963-76.5151Q53.9298-78.3816 51.3021-78.3816Q48.6565-78.3816 46.7823-76.5151Q44.908-74.6486 44.908-71.9876Q44.908-69.3266 46.7823-67.4767Q48.6565-65.6269 51.3021-65.6269ZM14.0778-10.9559L35.6441-10.9559Q36.5541-10.9559 37.0901-11.0213Q37.6261-11.0868 38.2764-11.2488L59.3881-16.347Q59.7897-16.4602 60.0627-16.2016Q60.3356-15.9431 60.3046-15.5259L59.0128-4.89629L51.404-10.3299Q49.9281-11.3508 48.1615-11.0589Q46.3949-10.7671 45.3407-9.32451Q44.271-7.84863 44.5628-6.06538Q44.8547-4.28213 46.3128-3.2124L58.9772 5.71885Q61.281 7.34121 63.6967 6.83076Q66.1125 6.32031 66.6962 3.92119L77.516-39.5179Q77.7446-40.3813 78.6413-40.1859L113.979-33.1569Q116.427-32.6709 117.772-34.1212Q119.117-35.5716 119.117-37.4203Q119.117-38.783 118.29-40.0547Q117.464-41.3264 115.697-41.6504L80.5812-48.726Q72.7909-50.2707 67.3022-51.0109Q61.8136-51.7511 56.2361-51.7511L46.6413-51.7511L46.6413-61.5412Q46.6413-63.3899 45.3685-64.6539Q44.0957-65.9178 42.3136-65.9178Q40.4648-65.9178 39.2087-64.6539Q37.9525-63.3899 37.9525-61.5412L37.9525-47.4722Q37.9525-45.6723 39.2087-44.3917Q40.4648-43.1111 42.3136-43.1111L58.7198-43.1111Q59.2259-43.1111 59.5211-42.7349Q59.8163-42.3587 59.6698-41.8216L56.4937-29.6589Q55.6947-26.6403 52.8249-25.6305L35.4999-19.5958L14.0778-19.5958Q12.2291-19.5958 10.9974-18.323Q9.76562-17.0502 9.76562-15.2348Q9.76562-13.4193 10.9974-12.1876Q12.2291-10.9559 14.0778-10.9559ZM73.2814-53.9616Q76.9679-53.9616 79.5746-56.5761Q82.1813-59.1905 82.1813-62.8947Q82.1813-66.5812 79.5746-69.1712Q76.9679-71.7612 73.2814-71.7612Q69.5772-71.7612 66.9628-69.1712Q64.3483-66.5812 64.3483-62.8947Q64.3483-59.1905 66.9628-56.5761Q69.5772-53.9616 73.2814-53.9616Z"/>
  </g>
  <g id="Medium-S" transform="matrix(1 0 0 1 1682.59 696)">
   <path d="M50.7158-65.3506Q53.2627-65.3506 55.082-67.1499Q56.9014-68.9492 56.9014-71.5361Q56.9014-74.123 55.082-75.9424Q53.2627-77.7617 50.7158-77.7617Q48.1377-77.7617 46.314-75.9424Q44.4902-74.123 44.4902-71.5361Q44.4902-68.9492 46.314-67.1499Q48.1377-65.3506 50.7158-65.3506ZM13.9229-11.4141L35.3477-11.4141Q36.2441-11.4141 36.77-11.4829Q37.2959-11.5518 37.9395-11.707L59.2129-16.8389Q59.5674-16.9453 59.8066-16.7036Q60.0459-16.4619 60.0283-16.0986L58.6826-5.01758L50.71-10.7207Q49.2812-11.7012 47.582-11.4194Q45.8828-11.1377 44.8623-9.74902Q43.833-8.32031 44.1147-6.60107Q44.3965-4.88184 45.7939-3.85254L58.6201 5.18652Q60.8564 6.76172 63.188 6.27148Q65.5195 5.78125 66.083 3.46973L76.8691-39.8076Q77.1045-40.6777 78.0146-40.4824L113.231-33.4736Q115.592-33.0078 116.883-34.4009Q118.174-35.7939 118.174-37.582Q118.174-38.9043 117.377-40.1221Q116.581-41.3398 114.882-41.6504L79.9814-48.6855Q72.2451-50.2168 66.7969-50.9536Q61.3486-51.6904 55.8184-51.6904L46.1494-51.6904L46.1494-61.5547Q46.1494-63.3428 44.9204-64.5562Q43.6914-65.7695 41.9834-65.7695Q40.1953-65.7695 38.9863-64.5562Q37.7773-63.3428 37.7773-61.5547L37.7773-47.5732Q37.7773-45.834 38.9863-44.6006Q40.1953-43.3672 41.9834-43.3672L58.3896-43.3672Q58.9092-43.3672 59.2246-42.9741Q59.54-42.5811 59.3936-42.0439L56.1973-29.8408Q55.3848-26.7549 52.4678-25.7383L35.2236-19.7373L13.9229-19.7373Q12.1348-19.7373 10.9502-18.5083Q9.76562-17.2793 9.76562-15.5312Q9.76562-13.7832 10.9502-12.5986Q12.1348-11.4141 13.9229-11.4141ZM72.7559-53.874Q76.3682-53.874 78.9243-56.4346Q81.4805-58.9951 81.4805-62.6387Q81.4805-66.251 78.9243-68.7871Q76.3682-71.3232 72.7559-71.3232Q69.1123-71.3232 66.5518-68.7871Q63.9912-66.251 63.9912-62.6387Q63.9912-58.9951 66.5518-56.4346Q69.1123-53.874 72.7559-53.874Z"/>
  </g>
  <g id="Regular-S" transform="matrix(1 0 0 1 1386.49 696)">
   <path d="M49.9512-64.9902Q52.3926-64.9902 54.1504-66.7236Q55.9082-68.457 55.9082-70.9473Q55.9082-73.4375 54.1504-75.1953Q52.3926-76.9531 49.9512-76.9531Q47.4609-76.9531 45.7031-75.1953Q43.9453-73.4375 43.9453-70.9473Q43.9453-68.457 45.7031-66.7236Q47.4609-64.9902 49.9512-64.9902ZM13.7207-12.0117L34.9609-12.0117Q35.8398-12.0117 36.3525-12.085Q36.8652-12.1582 37.5-12.3047L58.9844-17.4805Q59.2773-17.5781 59.4727-17.3584Q59.668-17.1387 59.668-16.8457L58.252-5.17578L49.8047-11.2305Q48.4375-12.1582 46.8262-11.8896Q45.2148-11.6211 44.2383-10.3027Q43.2617-8.93555 43.5303-7.2998Q43.7988-5.66406 45.1172-4.6875L58.1543 4.49219Q60.3027 6.00586 62.5244 5.54199Q64.7461 5.07812 65.2832 2.88086L76.0254-40.1855Q76.2695-41.0645 77.1973-40.8691L112.256-33.8867Q114.502-33.4473 115.723-34.7656Q116.943-36.084 116.943-37.793Q116.943-39.0625 116.187-40.21Q115.43-41.3574 113.818-41.6504L79.1992-48.6328Q71.5332-50.1465 66.1377-50.8789Q60.7422-51.6113 55.2734-51.6113L45.5078-51.6113L45.5078-61.5723Q45.5078-63.2812 44.3359-64.4287Q43.1641-65.5762 41.5527-65.5762Q39.8438-65.5762 38.6963-64.4287Q37.5488-63.2812 37.5488-61.5723L37.5488-47.7051Q37.5488-46.0449 38.6963-44.873Q39.8438-43.7012 41.5527-43.7012L57.959-43.7012Q58.4961-43.7012 58.8379-43.2861Q59.1797-42.8711 59.0332-42.334L55.8105-30.0781Q54.9805-26.9043 52.002-25.8789L34.8633-19.9219L13.7207-19.9219Q12.0117-19.9219 10.8887-18.75Q9.76562-17.5781 9.76562-15.918Q9.76562-14.2578 10.8887-13.1348Q12.0117-12.0117 13.7207-12.0117ZM72.0703-53.7598Q75.5859-53.7598 78.0762-56.25Q80.5664-58.7402 80.5664-62.3047Q80.5664-65.8203 78.0762-68.2861Q75.5859-70.752 72.0703-70.752Q68.5059-70.752 66.0156-68.2861Q63.5254-65.8203 63.5254-62.3047Q63.5254-58.7402 66.0156-56.25Q68.5059-53.7598 72.0703-53.7598Z"/>
  </g>
  <g id="Light-S" transform="matrix(1 0 0 1 1091.39 696)">
   <path d="M48.7401-64.1123Q51.121-64.1123 52.8183-65.7852Q54.5156-67.4581 54.5156-69.8725Q54.5156-72.2872 52.8183-73.992Q51.121-75.6968 48.7401-75.6968Q46.3257-75.6968 44.6284-73.992Q42.9311-72.2872 42.9311-69.8725Q42.9311-67.4581 44.6284-65.7852Q46.3257-64.1123 48.7401-64.1123ZM13.5997-12.723L34.2041-12.723Q35.0527-12.723 35.5503-12.7888Q36.0479-12.8545 36.6674-13.001L57.5918-18.0557Q57.8395-18.1381 58.0045-17.9563Q58.1696-17.7745 58.1696-17.5268L56.7988-6.09919L48.5936-11.957Q47.2872-12.8695 45.7137-12.6086Q44.1401-12.3477 43.2091-11.0596Q42.2628-9.7379 42.5162-8.15506Q42.7696-6.57221 44.0577-5.62592L56.7012 3.26614Q58.7891 4.74955 60.9351 4.30082Q63.0811 3.85208 63.6182 1.71534L74.0273-40.0492Q74.2714-40.8979 75.1689-40.7178L109.168-33.9472Q111.338-33.5231 112.529-34.7959Q113.719-36.0687 113.719-37.7324Q113.719-38.9565 112.985-40.0736Q112.251-41.1908 110.67-41.4838L77.1103-48.2241Q69.6714-49.7075 64.4424-50.4172Q59.2135-51.1269 53.9111-51.1269L44.4331-51.1269L44.4331-60.8004Q44.4331-62.4486 43.2991-63.5583Q42.1651-64.668 40.5991-64.668Q38.9506-64.668 37.8334-63.5583Q36.7162-62.4486 36.7162-60.8004L36.7162-47.3267Q36.7162-45.7423 37.8334-44.6007Q38.9506-43.4591 40.5991-43.4591L56.5058-43.4591Q57.0279-43.4591 57.3621-43.0592Q57.6963-42.6593 57.5498-42.1371L54.4332-30.2294Q53.6484-27.1919 50.7304-26.1665L34.1217-20.3911L13.5997-20.3911Q11.9512-20.3911 10.8584-19.2571Q9.76562-18.1231 9.76562-16.5235Q9.76562-14.8936 10.8584-13.8083Q11.9512-12.723 13.5997-12.723ZM70.254-53.5629Q73.6636-53.5629 76.0782-55.9775Q78.4927-58.3921 78.4927-61.8355Q78.4927-65.2451 76.0782-67.6428Q73.6636-70.0406 70.254-70.0406Q66.8106-70.0406 64.396-67.6428Q61.9815-65.2451 61.9815-61.8355Q61.9815-58.3921 64.396-55.9775Q66.8106-53.5629 70.254-53.5629Z"/>
  </g>
  <g id="Thin-S" transform="matrix(1 0 0 1 796.812 696)">
   <path d="M47.1384-62.9513Q49.4393-62.9513 51.0565-64.5441Q52.6737-66.1369 52.6737-68.4511Q52.6737-70.7659 51.0565-72.4006Q49.4393-74.0353 47.1384-74.0353Q44.8242-74.0353 43.207-72.4006Q41.5897-70.7659 41.5897-68.4511Q41.5897-66.1369 43.207-64.5441Q44.8242-62.9513 47.1384-62.9513ZM13.4395-13.6638L33.2031-13.6638Q34.0117-13.6638 34.4893-13.7196Q34.9668-13.7754 35.5662-13.9219L55.7499-18.8165Q55.9377-18.8788 56.0628-18.747Q56.1878-18.6153 56.1878-18.4275L54.8769-7.32048L46.992-12.918Q45.7659-13.8103 44.2423-13.5595Q42.7187-13.3086 41.8479-12.0605Q40.9416-10.7991 41.175-9.2862Q41.4084-7.77332 42.6565-6.86705L54.7792 1.6446Q56.7871 3.08799 58.8331 2.65926Q60.879 2.23054 61.4161 0.173852L71.3846-39.869Q71.6287-40.6776 72.4861-40.5177L105.084-34.0273Q107.154-33.6233 108.305-34.8359Q109.455-36.0485 109.455-37.6524Q109.455-38.8162 108.751-39.8934Q108.047-40.9705 106.506-41.2635L74.3475-47.6836Q67.209-49.127 62.2003-49.8066Q57.1917-50.4861 52.1093-50.4861L43.0117-50.4861L43.0117-59.7796Q43.0117-61.3474 41.9278-62.4072Q40.8439-63.4669 39.3377-63.4669Q37.7693-63.4669 36.6922-62.4072Q35.615-61.3474 35.615-59.7796L35.615-46.8262Q35.615-45.342 36.6922-44.2404Q37.7693-43.1389 39.3377-43.1389L54.5839-43.1389Q55.0862-43.1389 55.4103-42.759Q55.7344-42.3791 55.5879-41.8768L52.6115-30.4296Q51.8866-27.5723 49.0486-26.5469L33.1409-21.0116L13.4395-21.0116Q11.8711-21.0116 10.8184-19.9278Q9.76562-18.8439 9.76562-17.3243Q9.76562-15.7345 10.8184-14.6991Q11.8711-13.6638 13.4395-13.6638ZM67.8518-53.3026Q71.1211-53.3026 73.4356-55.6171Q75.7501-57.9316 75.7501-61.2149Q75.7501-64.4842 73.4356-66.7921Q71.1211-69.0999 67.8518-69.0999Q64.5685-69.0999 62.254-66.7921Q59.9395-64.4842 59.9395-61.2149Q59.9395-57.9316 62.254-55.6171Q64.5685-53.3026 67.8518-53.3026Z"/>
  </g>
  <g id="Ultralight-S" transform="matrix(1 0 0 1 501.193 696)">
   <path d="M46.3181-62.3566Q48.5779-62.3566 50.1541-63.9084Q51.7303-65.4602 51.7303-67.7231Q51.7303-69.9867 50.1541-71.5855Q48.5779-73.1842 46.3181-73.1842Q44.0552-73.1842 42.4789-71.5855Q40.9027-69.9867 40.9027-67.7231Q40.9027-65.4602 42.4789-63.9084Q44.0552-62.3566 46.3181-62.3566ZM13.3575-14.1457L32.6904-14.1457Q33.4785-14.1457 33.9458-14.1964Q34.4131-14.2471 35.0021-14.3936L54.8065-19.2062Q54.9637-19.2581 55.0682-19.1521Q55.1727-19.046 55.1727-18.8889L53.8925-7.94601L46.1716-13.4102Q44.9867-14.2921 43.4887-14.0465Q41.9907-13.8008 41.1507-12.5732Q40.2649-11.3426 40.4881-9.86557Q40.7112-8.38852 41.9388-7.50275L53.7949 0.814056Q55.7617 2.23694 57.7564 1.81847Q59.7511 1.39999 60.2882-0.615692L70.031-39.7766Q70.2751-40.5647 71.1121-40.4152L102.992-34.0683Q105.011-33.6746 106.141-34.8564Q107.271-36.0382 107.271-37.6114Q107.271-38.7444 106.582-39.801Q105.894-40.8577 104.373-41.1507L72.9324-47.4068Q65.9477-48.8297 61.0519-49.4938Q56.1562-50.1579 51.1864-50.1579L42.2836-50.1579L42.2836-59.2567Q42.2836-60.7834 41.2254-61.8176Q40.1672-62.8517 38.6917-62.8517Q37.1643-62.8517 36.1076-61.8176Q35.051-60.7834 35.051-59.2567L35.051-46.5698Q35.051-45.137 36.1076-44.0559Q37.1643-42.9749 38.6917-42.9749L53.5995-42.9749Q54.0916-42.9749 54.4106-42.6052Q54.7295-42.2356 54.583-41.7435L51.6785-30.5321Q50.9842-27.7672 48.1873-26.7418L32.6385-21.3295L13.3575-21.3295Q11.8301-21.3295 10.7979-20.2713Q9.76562-19.2131 9.76562-17.7345Q9.76562-16.1652 10.7979-15.1554Q11.8301-14.1457 13.3575-14.1457ZM66.6214-53.1693Q69.8189-53.1693 72.0821-55.4325Q74.3454-57.6958 74.3454-60.8971Q74.3454-64.0945 72.0821-66.3563Q69.8189-68.618 66.6214-68.618Q63.4201-68.618 61.1568-66.3563Q58.8936-64.0945 58.8936-60.8971Q58.8936-57.6958 61.1568-55.4325Q63.4201-53.1693 66.6214-53.1693Z"/>
  </g>
 </g>
</svg>
