<?xml version="1.0" encoding="UTF-8"?>
<!--Generator: Apple Native CoreSVG 175.5-->
<!DOCTYPE svg
PUBLIC "-//W3C//DTD SVG 1.1//EN"
       "http://www.w3.org/Graphics/SVG/1.1/DTD/svg11.dtd">
<svg version="1.1" xmlns="http://www.w3.org/2000/svg" xmlns:xlink="http://www.w3.org/1999/xlink" width="3300" height="2200">
 <!--glyph: "uni10152A.medium", point size: 100.0, font version: "18.0d9e1", template writer version: "84"-->
 <g id="Notes">
  <rect height="2200" id="artboard" style="fill:white;opacity:1" width="3300" x="0" y="0"/>
  <line style="fill:none;stroke:black;opacity:1;stroke-width:0.5;" x1="263" x2="3036" y1="292" y2="292"/>
  <text style="stroke:none;fill:black;font-family:sans-serif;font-size:13;font-weight:bold;" transform="matrix(1 0 0 1 263 322)">Weight/Scale Variations</text>
  <text style="stroke:none;fill:black;font-family:sans-serif;font-size:13;text-anchor:middle;" transform="matrix(1 0 0 1 559.711 322)">Ultralight</text>
  <text style="stroke:none;fill:black;font-family:sans-serif;font-size:13;text-anchor:middle;" transform="matrix(1 0 0 1 856.422 322)">Thin</text>
  <text style="stroke:none;fill:black;font-family:sans-serif;font-size:13;text-anchor:middle;" transform="matrix(1 0 0 1 1153.13 322)">Light</text>
  <text style="stroke:none;fill:black;font-family:sans-serif;font-size:13;text-anchor:middle;" transform="matrix(1 0 0 1 1449.84 322)">Regular</text>
  <text style="stroke:none;fill:black;font-family:sans-serif;font-size:13;text-anchor:middle;" transform="matrix(1 0 0 1 1746.56 322)">Medium</text>
  <text style="stroke:none;fill:black;font-family:sans-serif;font-size:13;text-anchor:middle;" transform="matrix(1 0 0 1 2043.27 322)">Semibold</text>
  <text style="stroke:none;fill:black;font-family:sans-serif;font-size:13;text-anchor:middle;" transform="matrix(1 0 0 1 2339.98 322)">Bold</text>
  <text style="stroke:none;fill:black;font-family:sans-serif;font-size:13;text-anchor:middle;" transform="matrix(1 0 0 1 2636.69 322)">Heavy</text>
  <text style="stroke:none;fill:black;font-family:sans-serif;font-size:13;text-anchor:middle;" transform="matrix(1 0 0 1 2933.4 322)">Black</text>
  <line style="fill:none;stroke:black;opacity:1;stroke-width:0.5;" x1="263" x2="3036" y1="1903" y2="1903"/>
  <g transform="matrix(1 0 0 1 263 1933)">
   <path d="M9.24805 0.830078Q10.8691 0.830078 12.2949 0.214844Q13.7207-0.400391 14.8096-1.49414Q15.8984-2.58789 16.5186-4.01367Q17.1387-5.43945 17.1387-7.05078Q17.1387-8.66211 16.5186-10.0879Q15.8984-11.5137 14.8047-12.6074Q13.7109-13.7012 12.2852-14.3164Q10.8594-14.9316 9.23828-14.9316Q7.62695-14.9316 6.20117-14.3164Q4.77539-13.7012 3.69141-12.6074Q2.60742-11.5137 1.9873-10.0879Q1.36719-8.66211 1.36719-7.05078Q1.36719-5.43945 1.9873-4.01367Q2.60742-2.58789 3.69629-1.49414Q4.78516-0.400391 6.21094 0.214844Q7.63672 0.830078 9.24805 0.830078ZM9.24805-0.654297Q7.91992-0.654297 6.7627-1.14746Q5.60547-1.64062 4.73145-2.51953Q3.85742-3.39844 3.36426-4.56055Q2.87109-5.72266 2.87109-7.05078Q2.87109-8.37891 3.35938-9.54102Q3.84766-10.7031 4.72168-11.582Q5.5957-12.4609 6.75293-12.9541Q7.91016-13.4473 9.23828-13.4473Q10.5762-13.4473 11.7383-12.9541Q12.9004-12.4609 13.7793-11.582Q14.6582-10.7031 15.1514-9.54102Q15.6445-8.37891 15.6445-7.05078Q15.6445-5.72266 15.1514-4.56055Q14.6582-3.39844 13.7793-2.51953Q12.9004-1.64062 11.7432-1.14746Q10.5859-0.654297 9.24805-0.654297ZM5.6543-7.05078Q5.6543-6.72852 5.85938-6.52832Q6.06445-6.32812 6.40625-6.32812L8.51562-6.32812L8.51562-4.20898Q8.51562-3.88672 8.71094-3.67676Q8.90625-3.4668 9.23828-3.4668Q9.56055-3.4668 9.77051-3.67676Q9.98047-3.88672 9.98047-4.20898L9.98047-6.32812L12.0898-6.32812Q12.4219-6.32812 12.627-6.52832Q12.832-6.72852 12.832-7.05078Q12.832-7.38281 12.627-7.58789Q12.4219-7.79297 12.0898-7.79297L9.98047-7.79297L9.98047-9.90234Q9.98047-10.2344 9.77051-10.4443Q9.56055-10.6543 9.23828-10.6543Q8.90625-10.6543 8.71094-10.4443Q8.51562-10.2344 8.51562-9.90234L8.51562-7.79297L6.40625-7.79297Q6.06445-7.79297 5.85938-7.58789Q5.6543-7.38281 5.6543-7.05078Z"/>
  </g>
  <g transform="matrix(1 0 0 1 281.867 1933)">
   <path d="M11.709 2.91016Q13.75 2.91016 15.5518 2.12891Q17.3535 1.34766 18.7305-0.0292969Q20.1074-1.40625 20.8887-3.20801Q21.6699-5.00977 21.6699-7.05078Q21.6699-9.0918 20.8887-10.8936Q20.1074-12.6953 18.7305-14.0723Q17.3535-15.4492 15.5469-16.2305Q13.7402-17.0117 11.6992-17.0117Q9.6582-17.0117 7.85645-16.2305Q6.05469-15.4492 4.68262-14.0723Q3.31055-12.6953 2.5293-10.8936Q1.74805-9.0918 1.74805-7.05078Q1.74805-5.00977 2.5293-3.20801Q3.31055-1.40625 4.6875-0.0292969Q6.06445 1.34766 7.86621 2.12891Q9.66797 2.91016 11.709 2.91016ZM11.709 1.25Q9.98047 1.25 8.47656 0.605469Q6.97266-0.0390625 5.83496-1.17676Q4.69727-2.31445 4.05762-3.81836Q3.41797-5.32227 3.41797-7.05078Q3.41797-8.7793 4.05762-10.2832Q4.69727-11.7871 5.83008-12.9297Q6.96289-14.0723 8.4668-14.7119Q9.9707-15.3516 11.6992-15.3516Q13.4277-15.3516 14.9365-14.7119Q16.4453-14.0723 17.583-12.9297Q18.7207-11.7871 19.3652-10.2832Q20.0098-8.7793 20.0098-7.05078Q20.0098-5.32227 19.3701-3.81836Q18.7305-2.31445 17.5879-1.17676Q16.4453-0.0390625 14.9414 0.605469Q13.4375 1.25 11.709 1.25ZM7.17773-7.05078Q7.17773-6.69922 7.41211-6.47461Q7.64648-6.25 8.01758-6.25L10.8887-6.25L10.8887-3.36914Q10.8887-2.99805 11.1133-2.76855Q11.3379-2.53906 11.6895-2.53906Q12.0605-2.53906 12.29-2.76855Q12.5195-2.99805 12.5195-3.36914L12.5195-6.25L15.4004-6.25Q15.7715-6.25 16.001-6.47461Q16.2305-6.69922 16.2305-7.05078Q16.2305-7.42188 16.001-7.65137Q15.7715-7.88086 15.4004-7.88086L12.5195-7.88086L12.5195-10.752Q12.5195-11.1328 12.29-11.3623Q12.0605-11.5918 11.6895-11.5918Q11.3379-11.5918 11.1133-11.3574Q10.8887-11.123 10.8887-10.752L10.8887-7.88086L8.01758-7.88086Q7.63672-7.88086 7.40723-7.65137Q7.17773-7.42188 7.17773-7.05078Z"/>
  </g>
  <g transform="matrix(1 0 0 1 305.646 1933)">
   <path d="M14.9707 5.66406Q17.0605 5.66406 18.96 5.01465Q20.8594 4.36523 22.4512 3.19336Q24.043 2.02148 25.2197 0.429688Q26.3965-1.16211 27.0459-3.06641Q27.6953-4.9707 27.6953-7.05078Q27.6953-9.14062 27.0459-11.04Q26.3965-12.9395 25.2197-14.5312Q24.043-16.123 22.4512-17.2998Q20.8594-18.4766 18.9551-19.126Q17.0508-19.7754 14.9609-19.7754Q12.8711-19.7754 10.9717-19.126Q9.07227-18.4766 7.48535-17.2998Q5.89844-16.123 4.72168-14.5312Q3.54492-12.9395 2.90039-11.04Q2.25586-9.14062 2.25586-7.05078Q2.25586-4.9707 2.90527-3.06641Q3.55469-1.16211 4.72656 0.429688Q5.89844 2.02148 7.49023 3.19336Q9.08203 4.36523 10.9814 5.01465Q12.8809 5.66406 14.9707 5.66406ZM14.9707 3.84766Q13.1641 3.84766 11.5283 3.2959Q9.89258 2.74414 8.53516 1.74805Q7.17773 0.751953 6.17676-0.610352Q5.17578-1.97266 4.62891-3.6084Q4.08203-5.24414 4.08203-7.05078Q4.08203-8.86719 4.62891-10.5029Q5.17578-12.1387 6.17188-13.501Q7.16797-14.8633 8.52539-15.8594Q9.88281-16.8555 11.5186-17.4023Q13.1543-17.9492 14.9609-17.9492Q16.7773-17.9492 18.4131-17.4023Q20.0488-16.8555 21.4111-15.8594Q22.7734-14.8633 23.7744-13.501Q24.7754-12.1387 25.3223-10.5029Q25.8691-8.86719 25.8691-7.05078Q25.8691-5.24414 25.3223-3.6084Q24.7754-1.97266 23.7793-0.610352Q22.7832 0.751953 21.4209 1.74805Q20.0586 2.74414 18.4229 3.2959Q16.7871 3.84766 14.9707 3.84766ZM9.19922-7.05078Q9.19922-6.66992 9.45801-6.4209Q9.7168-6.17188 10.1172-6.17188L14.0625-6.17188L14.0625-2.2168Q14.0625-1.81641 14.3115-1.55762Q14.5605-1.29883 14.9512-1.29883Q15.3516-1.29883 15.6104-1.55273Q15.8691-1.80664 15.8691-2.2168L15.8691-6.17188L19.8242-6.17188Q20.2246-6.17188 20.4785-6.4209Q20.7324-6.66992 20.7324-7.05078Q20.7324-7.46094 20.4785-7.71484Q20.2246-7.96875 19.8242-7.96875L15.8691-7.96875L15.8691-11.9141Q15.8691-12.3242 15.6104-12.583Q15.3516-12.8418 14.9512-12.8418Q14.5605-12.8418 14.3115-12.583Q14.0625-12.3242 14.0625-11.9141L14.0625-7.96875L10.1172-7.96875Q9.70703-7.96875 9.45312-7.71484Q9.19922-7.46094 9.19922-7.05078Z"/>
  </g>
  <text style="stroke:none;fill:black;font-family:sans-serif;font-size:13;font-weight:bold;" transform="matrix(1 0 0 1 263 1953)">Design Variations</text>
  <text style="stroke:none;fill:black;font-family:sans-serif;font-size:13;" transform="matrix(1 0 0 1 263 1971)">Symbols are supported in up to nine weights and three scales.</text>
  <text style="stroke:none;fill:black;font-family:sans-serif;font-size:13;" transform="matrix(1 0 0 1 263 1989)">For optimal layout with text and other symbols, vertically align</text>
  <text style="stroke:none;fill:black;font-family:sans-serif;font-size:13;" transform="matrix(1 0 0 1 263 2007)">symbols with the adjacent text.</text>
  <line style="fill:none;stroke:#00AEEF;stroke-width:0.5;opacity:1.0;" x1="776" x2="776" y1="1919" y2="1933"/>
  <g transform="matrix(1 0 0 1 776 1933)">
   <path d="M3.31055 0.15625Q3.70117 0.15625 3.91602-0.00976562Q4.13086-0.175781 4.26758-0.585938L5.52734-4.0332L11.2891-4.0332L12.5488-0.585938Q12.6855-0.175781 12.9004-0.00976562Q13.1152 0.15625 13.4961 0.15625Q13.8867 0.15625 14.1162-0.0585938Q14.3457-0.273438 14.3457-0.644531Q14.3457-0.869141 14.2383-1.17188L9.6582-13.3691Q9.48242-13.8184 9.17969-14.043Q8.87695-14.2676 8.4082-14.2676Q7.5-14.2676 7.17773-13.3789L2.59766-1.16211Q2.49023-0.859375 2.49023-0.634766Q2.49023-0.263672 2.70996-0.0537109Q2.92969 0.15625 3.31055 0.15625ZM6.00586-5.51758L8.37891-12.0898L8.42773-12.0898L10.8008-5.51758Z"/>
  </g>
  <line style="fill:none;stroke:#00AEEF;stroke-width:0.5;opacity:1.0;" x1="793.197" x2="793.197" y1="1919" y2="1933"/>
  <text style="stroke:none;fill:black;font-family:sans-serif;font-size:13;font-weight:bold;" transform="matrix(1 0 0 1 776 1953)">Margins</text>
  <text style="stroke:none;fill:black;font-family:sans-serif;font-size:13;" transform="matrix(1 0 0 1 776 1971)">Leading and trailing margins on the left and right side of each symbol</text>
  <text style="stroke:none;fill:black;font-family:sans-serif;font-size:13;" transform="matrix(1 0 0 1 776 1989)">can be adjusted by modifying the x-location of the margin guidelines.</text>
  <text style="stroke:none;fill:black;font-family:sans-serif;font-size:13;" transform="matrix(1 0 0 1 776 2007)">Modifications are automatically applied proportionally to all</text>
  <text style="stroke:none;fill:black;font-family:sans-serif;font-size:13;" transform="matrix(1 0 0 1 776 2025)">scales and weights.</text>
  <g transform="matrix(1 0 0 1 1289 1933)">
   <path d="M2.8418 1.86523L4.54102 3.57422Q5.18555 4.22852 5.90332 4.17969Q6.62109 4.13086 7.31445 3.35938L18.0078-8.42773L17.041-9.4043L6.42578 2.27539Q6.16211 2.57812 5.89355 2.61719Q5.625 2.65625 5.27344 2.30469L4.10156 1.14258Q3.75 0.791016 3.79395 0.522461Q3.83789 0.253906 4.14062-0.0195312L15.6152-10.8203L14.6387-11.7871L3.04688-0.898438Q2.30469-0.214844 2.25098 0.498047Q2.19727 1.21094 2.8418 1.86523ZM9.25781-16.3281Q8.94531-16.0254 8.90625-15.6348Q8.86719-15.2441 9.04297-14.9512Q9.21875-14.6777 9.55566-14.541Q9.89258-14.4043 10.3809-14.5215Q11.4746-14.7754 12.5977-14.7314Q13.7207-14.6875 14.7949-13.9844L14.209-12.5293Q13.9551-11.9043 14.0674-11.4404Q14.1797-10.9766 14.5801-10.5664L16.875-8.25195Q17.2363-7.88086 17.5781-7.82227Q17.9199-7.76367 18.3398-7.8418L19.4043-8.03711L20.0684-7.36328L20.0293-6.80664Q20-6.43555 20.1221-6.12305Q20.2441-5.81055 20.6055-5.44922L21.3672-4.70703Q21.7285-4.3457 22.1533-4.33105Q22.5781-4.31641 22.9297-4.66797L25.8398-7.58789Q26.1914-7.93945 26.1816-8.35449Q26.1719-8.76953 25.8105-9.13086L25.0391-9.89258Q24.6875-10.2539 24.3799-10.3857Q24.0723-10.5176 23.7109-10.4883L23.1348-10.4395L22.4902-11.0742L22.7344-12.1973Q22.832-12.6172 22.6953-12.9834Q22.5586-13.3496 22.1191-13.7891L19.9219-15.9766Q18.6719-17.2168 17.2607-17.8369Q15.8496-18.457 14.4189-18.4814Q12.9883-18.5059 11.665-17.959Q10.3418-17.4121 9.25781-16.3281ZM10.752-15.957Q11.6602-16.6211 12.7002-16.9043Q13.7402-17.1875 14.8047-17.085Q15.8691-16.9824 16.8701-16.5137Q17.8711-16.0449 18.7012-15.2051L21.1328-12.793Q21.3086-12.6172 21.3525-12.4512Q21.3965-12.2852 21.3379-12.0312L21.0156-10.5469L22.5195-9.0625L23.5059-9.12109Q23.6914-9.13086 23.7891-9.09668Q23.8867-9.0625 24.0332-8.91602L24.6094-8.33984L22.168-5.89844L21.5918-6.47461Q21.4453-6.62109 21.4062-6.71875Q21.3672-6.81641 21.377-7.01172L21.4453-7.98828L19.9512-9.47266L18.4277-9.21875Q18.1836-9.16992 18.042-9.2041Q17.9004-9.23828 17.7148-9.41406L15.7129-11.416Q15.5176-11.5918 15.4932-11.7529Q15.4688-11.9141 15.5859-12.1875L16.4648-14.2773Q15.293-15.3711 13.8281-15.791Q12.3633-16.2109 10.8398-15.7617Q10.7227-15.7324 10.6885-15.8057Q10.6543-15.8789 10.752-15.957Z"/>
  </g>
  <text style="stroke:none;fill:black;font-family:sans-serif;font-size:13;font-weight:bold;" transform="matrix(1 0 0 1 1289 1953)">Exporting</text>
  <text style="stroke:none;fill:black;font-family:sans-serif;font-size:13;" transform="matrix(1 0 0 1 1289 1971)">Symbols should be outlined when exporting to ensure the</text>
  <text style="stroke:none;fill:black;font-family:sans-serif;font-size:13;" transform="matrix(1 0 0 1 1289 1989)">design is preserved when submitting to Xcode.</text>
  <text id="template-version" style="stroke:none;fill:black;font-family:sans-serif;font-size:13;text-anchor:end;" transform="matrix(1 0 0 1 3036 1933)">Template v.2.0</text>
  <text style="stroke:none;fill:black;font-family:sans-serif;font-size:13;text-anchor:end;" transform="matrix(1 0 0 1 3036 1951)">Requires Xcode 12 or greater</text>
  <text id="descriptive-name" style="stroke:none;fill:black;font-family:sans-serif;font-size:13;text-anchor:end;" transform="matrix(1 0 0 1 3036 1969)">Generated from figure.gymnastics</text>
  <text style="stroke:none;fill:black;font-family:sans-serif;font-size:13;text-anchor:end;" transform="matrix(1 0 0 1 3036 1987)">Typeset at 100 points</text>
  <text style="stroke:none;fill:black;font-family:sans-serif;font-size:13;" transform="matrix(1 0 0 1 263 726)">Small</text>
  <text style="stroke:none;fill:black;font-family:sans-serif;font-size:13;" transform="matrix(1 0 0 1 263 1156)">Medium</text>
  <text style="stroke:none;fill:black;font-family:sans-serif;font-size:13;" transform="matrix(1 0 0 1 263 1586)">Large</text>
 </g>
 <g id="Guides">
  <g id="H-reference" style="fill:#27AAE1;stroke:none;" transform="matrix(1 0 0 1 339 696)">
   <path d="M0.993347 0L3.6377 0L29.3282-67.1326L30.0301-67.1326L30.0301-70.459L28.1227-70.459ZM11.6882-24.4797L46.9818-24.4797L46.2311-26.7288L12.4382-26.7288ZM55.1193 0L57.7637 0L30.6381-70.459L29.4327-70.459L29.4327-67.1326Z"/>
  </g>
  <line id="Baseline-S" style="fill:none;stroke:#27AAE1;opacity:1;stroke-width:0.5;" x1="263" x2="3036" y1="696" y2="696"/>
  <line id="Capline-S" style="fill:none;stroke:#27AAE1;opacity:1;stroke-width:0.5;" x1="263" x2="3036" y1="625.541" y2="625.541"/>
  <g id="H-reference" style="fill:#27AAE1;stroke:none;" transform="matrix(1 0 0 1 339 1126)">
   <path d="M0.993347 0L3.6377 0L29.3282-67.1326L30.0301-67.1326L30.0301-70.459L28.1227-70.459ZM11.6882-24.4797L46.9818-24.4797L46.2311-26.7288L12.4382-26.7288ZM55.1193 0L57.7637 0L30.6381-70.459L29.4327-70.459L29.4327-67.1326Z"/>
  </g>
  <line id="Baseline-M" style="fill:none;stroke:#27AAE1;opacity:1;stroke-width:0.5;" x1="263" x2="3036" y1="1126" y2="1126"/>
  <line id="Capline-M" style="fill:none;stroke:#27AAE1;opacity:1;stroke-width:0.5;" x1="263" x2="3036" y1="1055.54" y2="1055.54"/>
  <g id="H-reference" style="fill:#27AAE1;stroke:none;" transform="matrix(1 0 0 1 339 1556)">
   <path d="M0.993347 0L3.6377 0L29.3282-67.1326L30.0301-67.1326L30.0301-70.459L28.1227-70.459ZM11.6882-24.4797L46.9818-24.4797L46.2311-26.7288L12.4382-26.7288ZM55.1193 0L57.7637 0L30.6381-70.459L29.4327-70.459L29.4327-67.1326Z"/>
  </g>
  <line id="Baseline-L" style="fill:none;stroke:#27AAE1;opacity:1;stroke-width:0.5;" x1="263" x2="3036" y1="1556" y2="1556"/>
  <line id="Capline-L" style="fill:none;stroke:#27AAE1;opacity:1;stroke-width:0.5;" x1="263" x2="3036" y1="1485.54" y2="1485.54"/>
  <line id="left-margin" style="fill:none;stroke:#00AEEF;stroke-width:0.5;opacity:1.0;" x1="1385.11" x2="1385.11" y1="1030.79" y2="1150.12"/>
  <line id="right-margin" style="fill:none;stroke:#00AEEF;stroke-width:0.5;opacity:1.0;" x1="1514.58" x2="1514.58" y1="1030.79" y2="1150.12"/>
 </g>
 <g id="Symbols">
  <g id="Black-L" transform="matrix(1 0 0 1 2845.4 1556)">
   <path d="M88.3517-66.8239Q94.7749-66.8239 99.3084-71.3872Q103.842-75.9504 103.842-82.3372Q103.842-88.7603 99.3084-93.2944Q94.7749-97.8285 88.3517-97.8285Q81.9638-97.8285 77.4011-93.2944Q72.8384-88.7603 72.8384-82.3372Q72.8384-75.9504 77.4011-71.3872Q81.9638-66.8239 88.3517-66.8239ZM26.7429-3.89222L59.9155-1.06553Q61.9893-0.882677 64.1242-0.543393Q66.2591-0.20411 68.4128 0.2668Q70.5665 0.73771 72.6547 1.34349L113.01 12.6959L149.352 26.0332Q152.03 27.0114 155.253 25.9132Q158.477 24.8149 159.536 21.2225Q160.513 18.2062 159.236 15.2606Q157.958 12.3149 154.863 11.177L118.523-2.05906Q118.121-2.19789 117.428-2.44955Q116.735-2.70121 116.376-2.86205L89.3438-12.6225Q92.1317-18.0763 95.1068-26.0953Q98.082-34.1143 99.0447-43.1314Q99.1691-44.3062 100.264-44.3062L148.76-44.3062Q152.053-44.3062 154.349-46.6416Q156.645-48.9769 156.645-52.132Q156.645-55.4676 154.349-57.7931Q152.053-60.1186 148.76-60.1186L95.5699-60.1186Q91.1176-60.1186 88.719-60.2101Q86.3204-60.3015 83.7914-60.8632Q81.2624-61.425 76.4288-62.7677L26.1075-76.7264Q22.9535-77.6242 20.1279-75.9966Q17.3023-74.369 16.3824-71.2735Q15.4859-68.0404 17.1134-65.1849Q18.741-62.3295 21.8949-61.4901L68.8654-48.4953Q69.9169-48.1684 69.8145-47.0948Q69.0907-41.5089 67.3317-36.246Q65.5726-30.983 63.5541-26.6866Q61.5356-22.3901 59.9516-19.667L35.3277-19.667L35.3277-45.4744Q35.3277-48.7659 32.9223-51.033Q30.5169-53.3001 27.3994-53.3001Q24.1651-53.3001 21.8-51.033Q19.4348-48.7659 19.4348-45.4744L19.4348-11.8192Q19.4348-8.46164 21.1902-6.36637Q22.9456-4.2711 26.7429-3.89222Z"/>
  </g>
  <g id="Heavy-L" transform="matrix(1 0 0 1 2549.86 1556)">
   <path d="M87.1763-66.4339Q93.4125-66.4339 97.8205-70.867Q102.229-75.3002 102.229-81.5275Q102.229-87.7637 97.8205-92.1745Q93.4125-96.5853 87.1763-96.5853Q80.9434-96.5853 76.513-92.1745Q72.0827-87.7637 72.0827-81.5275Q72.0827-75.3002 76.513-70.867Q80.9434-66.4339 87.1763-66.4339ZM26.3772-4.69133L59.1295-1.91482Q61.3831-1.71819 63.4104-1.39488Q65.4378-1.07157 67.4724-0.609774Q69.507-0.147982 71.7335 0.480988L111.601 11.6933L147.482 24.8634Q150.06 25.7959 153.125 24.7456Q156.19 23.6953 157.209 20.2815Q158.136 17.3981 156.917 14.5829Q155.699 11.7677 152.746 10.68L116.871-2.37961Q116.469-2.50465 115.776-2.76098Q115.083-3.01731 114.747-3.17815L87.7824-12.9132Q90.5388-18.2853 93.5261-26.2533Q96.5134-34.2212 97.4673-43.2079Q97.6193-44.6039 98.9347-44.6039L146.821-44.6039Q149.954-44.6039 152.142-46.8295Q154.331-49.055 154.331-52.0634Q154.331-55.2573 152.142-57.4706Q149.954-59.6839 146.821-59.6839L94.2952-59.6839Q89.897-59.6839 87.5163-59.7823Q85.1357-59.8806 82.6221-60.4379Q80.1085-60.9952 75.3383-62.3154L25.6498-76.0931Q22.6469-76.9451 19.9495-75.3884Q17.2521-73.8317 16.3642-70.8735Q15.5179-67.7959 17.0745-65.0733Q18.6312-62.3507 21.6341-61.5434L68.0032-48.725Q69.2527-48.3519 69.1365-47.0666Q68.4127-41.4797 66.6441-36.22Q64.8754-30.9604 62.861-26.686Q60.8466-22.4116 59.2853-19.757L34.5639-19.757L34.5639-45.4963Q34.5639-48.6186 32.273-50.7873Q29.982-52.9559 26.9881-52.9559Q23.9048-52.9559 21.6541-50.7873Q19.4034-48.6186 19.4034-45.4963L19.4034-12.2615Q19.4034-9.03188 21.0672-7.04193Q22.7311-5.05197 26.3772-4.69133Z"/>
  </g>
  <g id="Bold-L" transform="matrix(1 0 0 1 2254.69 1556)">
   <path d="M85.6419-65.9201Q91.6476-65.9201 95.9019-70.1955Q100.156-74.471 100.156-80.4987Q100.156-86.5043 95.9019-90.7652Q91.6476-95.0261 85.6419-95.0261Q79.6011-95.0261 75.3322-90.7652Q71.0633-86.5043 71.0633-80.4987Q71.0633-74.471 75.3322-70.1955Q79.6011-65.9201 85.6419-65.9201ZM25.9388-5.66021L58.1165-2.9452Q60.563-2.73314 62.4634-2.42903Q64.3639-2.12491 66.2598-1.67467Q68.1558-1.22442 70.5291-0.572167L109.723 10.4485L144.975 23.389Q147.43 24.2674 150.31 23.2749Q153.191 22.2823 154.163 19.0763Q155.029 16.347 153.88 13.6857Q152.731 11.0245 149.947 9.99826L114.708-2.82386Q114.306-2.93348 113.617-3.19368Q112.927-3.45388 112.615-3.61472L85.8162-13.2893Q88.5268-18.554 91.5183-26.438Q94.5099-34.322 95.4484-43.248Q95.6313-44.8833 97.186-44.8833L144.237-44.8833Q147.185-44.8833 149.247-46.9781Q151.308-49.0728 151.308-51.9118Q151.308-54.9364 149.247-57.0189Q147.185-59.1013 144.237-59.1013L92.623-59.1013Q88.3013-59.1013 85.9474-59.2073Q83.5935-59.3133 81.1066-59.8631Q78.6197-60.4128 73.9338-61.7022L25.1111-75.2348Q22.2852-76.0329 19.7379-74.5608Q17.1906-73.0887 16.3411-70.2922Q15.5564-67.3992 17.0284-64.8306Q18.5004-62.2621 21.3263-61.4932L66.8755-48.9124Q68.3411-48.4929 68.2094-46.9761Q67.4857-41.4041 65.7129-36.1669Q63.9402-30.9298 61.9371-26.6934Q59.934-22.4571 58.4035-19.8871L33.6561-19.8871L33.6561-45.4674Q33.6561-48.3896 31.4998-50.4427Q29.3435-52.4959 26.4958-52.4959Q23.5895-52.4959 21.4735-50.4427Q19.3575-48.3896 19.3575-45.4674L19.3575-12.8072Q19.3575-9.73134 20.9136-7.86455Q22.4697-5.99776 25.9388-5.66021Z"/>
  </g>
  <g id="Semibold-L" transform="matrix(1 0 0 1 1959.03 1556)">
   <path d="M84.5841-65.5658Q90.4308-65.5658 94.5792-69.7326Q98.7275-73.8994 98.7275-79.7894Q98.7275-85.6361 94.5792-89.7936Q90.4308-93.9511 84.5841-93.9511Q78.6758-93.9511 74.5181-89.7936Q70.3605-85.6361 70.3605-79.7894Q70.3605-73.8994 74.5181-69.7326Q78.6758-65.5658 84.5841-65.5658ZM25.6365-6.32816L57.4181-3.65553Q59.9976-3.43285 61.8105-3.14196Q63.6235-2.85108 65.4239-2.4088Q67.2244-1.96652 69.6988-1.29821L108.428 9.59043L143.247 22.3724Q145.617 23.2137 148.37 22.261Q151.123 21.3082 152.064 18.2455Q152.887 15.6223 151.785 13.0672Q150.684 10.5121 148.017 9.52826L113.217-3.13012Q112.815-3.22912 112.128-3.49198Q111.441-3.75485 111.144-3.91569L84.4608-13.5485Q87.1397-18.7392 90.1342-26.5654Q93.1286-34.3915 94.0567-43.2757Q94.2608-45.076 95.9804-45.076L142.455-45.076Q145.277-45.076 147.25-47.0805Q149.224-49.085 149.224-51.8072Q149.224-54.7152 147.25-56.7074Q145.277-58.6996 142.455-58.6996L91.4702-58.6996Q87.2012-58.6996 84.8658-58.811Q82.5304-58.9223 80.0619-59.4668Q77.5934-60.0112 72.9655-61.2796L24.7397-74.6431Q22.0358-75.404 19.592-73.9902Q17.1482-72.5764 16.3252-69.8914Q15.5829-67.1257 16.9966-64.6633Q18.4102-62.201 21.1141-61.4587L66.098-49.0415Q67.7126-48.5902 67.5703-46.9138Q66.8465-41.352 65.071-36.1303Q63.2955-30.9086 61.3002-26.6986Q59.3048-22.4885 57.7956-19.9767L33.0302-19.9767L33.0302-45.4475Q33.0302-48.2317 30.9668-50.2052Q28.9033-52.1787 26.1564-52.1787Q23.3721-52.1787 21.349-50.2052Q19.3259-48.2317 19.3259-45.4475L19.3259-13.1833Q19.3259-10.2135 20.8077-8.43166Q22.2895-6.64978 25.6365-6.32816Z"/>
  </g>
  <g id="Medium-L" transform="matrix(1 0 0 1 1663.12 1556)">
   <path d="M83.782-65.2972Q89.5082-65.2972 93.5762-69.3816Q97.6442-73.466 97.6442-79.2516Q97.6442-84.9778 93.5762-89.0569Q89.5082-93.136 83.782-93.136Q77.9741-93.136 73.9009-89.0569Q69.8276-84.9778 69.8276-79.2516Q69.8276-73.466 73.9009-69.3816Q77.9741-65.2972 83.782-65.2972ZM25.4073-6.83462L56.8885-4.19414Q59.5689-3.96339 61.3155-3.68254Q63.0621-3.40169 64.7901-2.96545Q66.5181-2.5292 69.0692-1.84872L107.446 8.93978L141.937 21.6017Q144.242 22.4148 146.899 21.4922Q149.556 20.5696 150.472 17.6155Q151.263 15.0728 150.197 12.5982Q149.132 10.1235 146.554 9.17188L112.086-3.36234Q111.684-3.45328 110.999-3.71817Q110.314-3.98306 110.03-4.1439L83.433-13.7451Q86.088-18.8797 89.0846-26.662Q92.0813-34.4443 93.0014-43.2966Q93.2216-45.2221 95.0663-45.2221L141.105-45.2221Q143.829-45.2221 145.737-47.1582Q147.644-49.0943 147.644-51.728Q147.644-54.5474 145.737-56.4713Q143.829-58.3951 141.105-58.3951L90.596-58.3951Q86.3671-58.3951 84.0457-58.5104Q81.7242-58.6258 79.2697-59.1663Q76.8152-59.7068 72.2314-60.9591L24.4581-74.1945Q21.8467-74.9271 19.4814-73.5576Q17.1161-72.1881 16.3131-69.5876Q15.6031-66.9184 16.9724-64.5365Q18.3418-62.1546 20.9532-61.4325L65.5086-49.1395Q67.236-48.6639 67.0857-46.8665Q66.3619-41.3125 64.5843-36.1025Q62.8066-30.8926 60.8172-26.7024Q58.8278-22.5123 57.3346-20.0447L32.5557-20.0447L32.5557-45.4323Q32.5557-48.112 30.5626-50.0251Q28.5695-51.9382 25.8991-51.9382Q23.2073-51.9382 21.2546-50.0251Q19.3019-48.112 19.3019-45.4323L19.3019-13.4686Q19.3019-10.5792 20.7274-8.86167Q22.1529-7.14417 25.4073-6.83462Z"/>
  </g>
  <g id="Regular-L" transform="matrix(1 0 0 1 1367.46 1556)">
   <path d="M82.7358-64.9468Q88.3049-64.9468 92.2681-68.9237Q96.2312-72.9006 96.2312-78.5501Q96.2312-84.1191 92.2681-88.096Q88.3049-92.0729 82.7358-92.0729Q77.0589-92.0729 73.0958-88.096Q69.1326-84.1191 69.1326-78.5501Q69.1326-72.9006 73.0958-68.9237Q77.0589-64.9468 82.7358-64.9468ZM25.1083-7.49523L56.1978-4.89666Q59.0098-4.65541 60.6698-4.38764Q62.3298-4.11988 63.9633-3.69151Q65.5969-3.26314 68.248-2.56678L106.165 8.0911L140.228 20.5963Q142.449 21.3727 144.98 20.4894Q147.511 19.6062 148.395 16.7938Q149.144 14.3561 148.126 11.9864Q147.108 9.61679 144.646 8.70704L110.611-3.66524Q110.209-3.74566 109.527-4.01319Q108.844-4.28072 108.576-4.44156L82.0925-14.0014Q84.7162-19.0628 87.7157-26.7879Q90.7152-34.513 91.6249-43.324Q91.8662-45.4126 93.8739-45.4126L139.343-45.4126Q141.942-45.4126 143.762-47.2595Q145.583-49.1064 145.583-51.6245Q145.583-54.3287 143.762-56.1632Q141.942-57.9978 139.343-57.9978L89.4559-57.9978Q85.2791-57.9978 82.9759-58.1184Q80.6728-58.2391 78.2364-58.7744Q75.8001-59.3096 71.2737-60.5411L24.0908-73.6093Q21.6-74.3052 19.3371-72.9933Q17.0741-71.6815 16.2974-69.1912Q15.6293-66.6479 16.941-64.3711Q18.2526-62.0942 20.7433-61.3983L64.7397-49.2672Q66.6144-48.7601 66.4536-46.8049Q65.7298-41.2609 63.9494-36.0663Q62.169-30.8717 60.1873-26.7075Q58.2056-22.5433 56.7333-20.1334L31.9367-20.1334L31.9367-45.4126Q31.9367-47.9559 30.0354-49.7902Q28.1341-51.6245 25.5634-51.6245Q22.9923-51.6245 21.1315-49.7902Q19.2706-47.9559 19.2706-45.4126L19.2706-13.8406Q19.2706-11.0561 20.6227-9.42255Q21.9747-7.78903 25.1083-7.49523Z"/>
  </g>
  <g id="Light-L" transform="matrix(1 0 0 1 1072.33 1556)">
   <path d="M81.1707-64.3934Q86.5871-64.3934 90.4549-68.2843Q94.3227-72.1753 94.3227-77.6721Q94.3227-83.0886 90.4549-86.9795Q86.5871-90.8705 81.1707-90.8705Q75.6275-90.8705 71.7597-86.9795Q67.892-83.0886 67.892-77.6721Q67.892-72.1753 71.7597-68.2843Q75.6275-64.3934 81.1707-64.3934ZM24.8983-8.02976L55.2435-5.46936Q57.9981-5.2281 59.6105-4.96979Q61.2229-4.71149 62.8183-4.29274Q64.4136-3.87399 67.0073-3.19655L104.009 7.21315L137.269 19.4131Q139.414 20.1702 141.888 19.3157Q144.361 18.4611 145.246 15.7058Q145.957 13.3062 144.958 10.994Q143.959 8.68176 141.573 7.81017L108.359-4.27609Q107.957-4.35651 107.303-4.61442Q106.649-4.87233 106.362-5.03317L80.5273-14.3641Q83.0747-19.311 86.0075-26.8452Q88.9404-34.3793 89.8119-42.9995Q90.0532-45.031 92.0035-45.031L136.385-45.031Q138.945-45.031 140.718-46.8205Q142.492-48.61 142.492-51.09Q142.492-53.7178 140.718-55.5142Q138.945-57.3106 136.385-57.3106L87.7-57.3106Q83.6377-57.3106 81.3823-57.4313Q79.1269-57.5519 76.7574-58.0681Q74.3879-58.5843 69.9568-59.7776L23.9-72.5405Q21.4663-73.2172 19.2512-71.9435Q17.036-70.6698 16.2781-68.2369Q15.6486-65.77 16.9219-63.5313Q18.1952-61.2925 20.6288-60.6159L63.5754-48.7709Q65.412-48.3022 65.2511-46.3851Q64.5274-40.9557 62.7947-35.8946Q61.0621-30.8336 59.128-26.7647Q57.1939-22.6959 55.7602-20.3435L31.5551-20.3435L31.5551-45.031Q31.5551-47.498 29.7014-49.294Q27.8478-51.09 25.3345-51.09Q22.8204-51.09 21.0074-49.294Q19.1943-47.498 19.1943-45.031L19.1943-14.2033Q19.1943-11.4951 20.5082-9.89969Q21.8221-8.30432 24.8983-8.02976Z"/>
  </g>
  <g id="Thin-L" transform="matrix(1 0 0 1 777.715 1556)">
   <path d="M79.1007-63.6614Q84.3153-63.6614 88.0569-67.4387Q91.7985-71.216 91.7985-76.511Q91.7985-81.7255 88.0569-85.5028Q84.3153-89.2801 79.1007-89.2801Q73.7344-89.2801 69.9928-85.5028Q66.2511-81.7255 66.2511-76.511Q66.2511-71.216 69.9928-67.4387Q73.7344-63.6614 79.1007-63.6614ZM24.6205-8.73672L53.9814-6.22679Q56.6601-5.98553 58.2095-5.73973Q59.7589-5.49394 61.3038-5.08792Q62.8487-4.68189 65.3665-4.02946L101.156 6.05198L133.357 17.8482Q135.401 18.5799 137.799 17.7633Q140.196 16.9467 141.081 14.2668Q141.741 11.9177 140.768 9.68142Q139.794 7.4451 137.509 6.62398L105.381-5.08399Q104.979-5.16441 104.363-5.40959Q103.747-5.65478 103.434-5.81562L78.4573-14.8438Q80.9038-19.6393 83.7484-26.9209Q86.593-34.2024 87.4141-42.5703Q87.6554-44.5263 89.5298-44.5263L132.472-44.5263Q134.982-44.5263 136.692-46.2399Q138.402-47.9535 138.402-50.3831Q138.402-52.9099 136.692-54.6559Q134.982-56.4018 132.472-56.4018L85.3776-56.4018Q81.4667-56.4018 79.2745-56.5224Q77.0824-56.6431 74.8013-57.134Q72.5202-57.625 68.2151-58.7678L23.6476-71.127Q21.2895-71.7782 19.1375-70.555Q16.9855-69.3318 16.2527-66.9748Q15.674-64.6088 16.8966-62.4206Q18.1193-60.2323 20.4774-59.5811L62.0355-48.1144Q63.8216-47.6966 63.6608-45.83Q62.937-40.5519 61.2676-35.6675Q59.5981-30.7831 57.727-26.8404Q55.8559-22.8978 54.473-20.6212L31.0504-20.6212L31.0504-44.5263Q31.0504-46.8924 29.2598-48.6377Q27.4691-50.3831 25.0317-50.3831Q22.5931-50.3831 20.8432-48.6377Q19.0934-46.8924 19.0934-44.5263L19.0934-14.6829Q19.0934-12.0756 20.3568-10.5307Q21.6202-8.98584 24.6205-8.73672Z"/>
  </g>
  <g id="Ultralight-L" transform="matrix(1 0 0 1 482.077 1556)">
   <path d="M78.0405-63.2865Q83.1516-63.2865 86.8286-67.0056Q90.5056-70.7246 90.5056-75.9162Q90.5056-81.0274 86.8286-84.7465Q83.1516-88.4655 78.0405-88.4655Q72.7647-88.4655 69.0877-84.7465Q65.4107-81.0274 65.4107-75.9162Q65.4107-70.7246 69.0877-67.0056Q72.7647-63.2865 78.0405-63.2865ZM24.4783-9.09883L53.335-6.61474Q55.9748-6.37348 57.4919-6.13409Q59.0091-5.89471 60.5282-5.4952Q62.0472-5.09569 64.5261-4.45608L99.6951 5.45723L131.352 17.0467Q133.345 17.7653 135.704 16.9681Q138.063 16.171 138.948 13.5298Q139.582 11.2066 138.622 9.00913Q137.661 6.81169 135.427 6.01642L103.855-5.49779Q103.453-5.57821 102.856-5.81688Q102.26-6.05555 101.934-6.21639L77.3971-15.0894Q79.7918-19.8074 82.5913-26.9596Q85.3907-34.1119 86.186-42.3505Q86.4272-44.2679 88.2628-44.2679L130.468-44.2679Q132.952-44.2679 134.63-45.9426Q136.308-47.6173 136.308-50.0209Q136.308-52.4961 134.63-54.2162Q132.952-55.9363 130.468-55.9363L84.1882-55.9363Q80.3548-55.9363 78.195-56.0569Q76.0351-56.1776 73.7994-56.6556Q71.5636-57.1337 67.3229-58.2506L23.5184-70.403Q21.1989-71.0412 19.0793-69.8438Q16.9597-68.6465 16.2396-66.3284Q15.6871-64.0141 16.8837-61.8517Q18.0804-59.6893 20.3999-59.0511L61.2468-47.7781Q63.0071-47.3864 62.8462-45.5456Q62.1224-40.3451 60.4854-35.5512Q58.8483-30.7573 57.0094-26.8792Q55.1706-23.0012 53.8138-20.7635L30.792-20.7635L30.792-44.2679Q30.792-46.5822 29.0335-48.3016Q27.2751-50.0209 24.8766-50.0209Q22.4767-50.0209 20.7592-48.3016Q19.0417-46.5822 19.0417-44.2679L19.0417-14.9286Q19.0417-12.373 20.2792-10.854Q21.5168-9.33491 24.4783-9.09883Z"/>
  </g>
  <g id="Black-M" transform="matrix(1 0 0 1 2864.43 1126)">
   <path d="M69.248-59.9672Q74.3642-59.9672 77.9714-63.6027Q81.5786-67.2383 81.5786-72.3027Q81.5786-77.419 77.9714-81.026Q74.3642-84.633 69.248-84.633Q64.1839-84.633 60.5481-81.026Q56.9124-77.419 56.9124-72.3027Q56.9124-67.2383 60.5481-63.6027Q64.1839-59.9672 69.248-59.9672ZM21.0046-10.3368L46.9653-8.10892Q48.4097-7.9791 50.1497-7.7038Q51.8896-7.4285 53.6553-7.05713Q55.4211-6.68576 56.9122-6.23893L88.4724 2.64307L116.916 13.0783Q119.066 13.8729 121.691 12.9847Q124.317 12.0965 125.173 9.16754Q125.968 6.72166 124.93 4.33519Q123.891 1.94873 121.382 1.02922L92.9387-9.33824Q92.6272-9.45764 92.0946-9.6473Q91.562-9.83696 91.2612-9.96157L70.3482-17.5143Q72.5248-21.7941 74.8103-28.0248Q77.0959-34.2555 77.8441-41.2417Q77.9168-41.9541 78.5669-41.9541L116.516-41.9541Q119.2-41.9541 121.065-43.85Q122.93-45.7458 122.93-48.3111Q122.93-51.0067 121.065-52.8997Q119.2-54.7926 116.516-54.7926L74.8997-54.7926Q71.4193-54.7926 69.5521-54.8576Q67.6848-54.9225 65.7213-55.3589Q63.7577-55.7953 59.9713-56.8498L20.594-67.7783Q18.0285-68.5106 15.7356-67.194Q13.4428-65.8773 12.7052-63.3688Q11.9726-60.7407 13.2893-58.4194Q14.606-56.0981 17.1716-55.4229L53.9361-45.2424Q54.5755-45.034 54.508-44.3894Q53.9473-40.0783 52.5992-36.0161Q51.2511-31.9539 49.6902-28.6191Q48.1293-25.2844 46.8878-23.1237L27.9745-23.1237L27.9745-43.0961Q27.9745-45.7813 26.0191-47.6172Q24.0637-49.453 21.55-49.453Q18.9221-49.453 16.9979-47.6172Q15.0737-45.7813 15.0737-43.0961L15.0737-16.7616Q15.0737-14.0607 16.5071-12.3521Q17.9406-10.6434 21.0046-10.3368Z"/>
  </g>
  <g id="Heavy-M" transform="matrix(1 0 0 1 2568.72 1126)">
   <path d="M68.2433-59.637Q73.1909-59.637 76.6842-63.1533Q80.1775-66.6695 80.1775-71.5922Q80.1775-76.5398 76.6842-80.0342Q73.1909-83.5287 68.2433-83.5287Q63.3184-83.5287 59.8032-80.0342Q56.2881-76.5398 56.2881-71.5922Q56.2881-66.6695 59.8032-63.1533Q63.3184-59.637 68.2433-59.637ZM20.6666-11.0687L46.285-8.88633Q47.9104-8.74304 49.5496-8.48248Q51.1888-8.22192 52.8417-7.85858Q54.4945-7.49524 56.1262-7.02399L87.2941 1.74391L115.361 12.0439Q117.42 12.7956 119.896 11.9516Q122.372 11.1077 123.188 8.34804Q123.938 6.02855 122.956 3.76431Q121.973 1.50007 119.596 0.626096L91.5321-9.59525Q91.2206-9.70117 90.6851-9.89628Q90.1495-10.0914 89.8731-10.216L68.9662-17.765Q71.1191-21.9756 73.4227-28.174Q75.7262-34.3724 76.4693-41.3464Q76.569-42.2803 77.4405-42.2803L114.893-42.2803Q117.425-42.2803 119.188-44.0741Q120.952-45.868 120.952-48.2934Q120.952-50.8575 119.188-52.6443Q117.425-54.4311 114.893-54.4311L73.8155-54.4311Q70.3775-54.4311 68.5234-54.5027Q66.6693-54.5744 64.7146-55.0082Q62.76-55.4421 59.0268-56.4781L20.1642-67.2578Q17.7411-67.9472 15.5691-66.6962Q13.3972-65.4453 12.6892-63.0658Q12.0022-60.5826 13.2531-58.3877Q14.504-56.1928 16.9271-55.5472L53.2007-45.5127Q54.0371-45.2557 53.9561-44.4005Q53.3954-40.0778 52.0335-36.0065Q50.6716-31.9353 49.1103-28.6133Q47.5491-25.2914 46.3262-23.1923L27.2631-23.1923L27.2631-43.1527Q27.2631-45.6795 25.4151-47.4227Q23.5672-49.1658 21.169-49.1658Q18.6835-49.1658 16.8667-47.4227Q15.05-45.6795 15.05-43.1527L15.05-17.1605Q15.05-14.5777 16.3975-12.9685Q17.745-11.3593 20.6666-11.0687Z"/>
  </g>
  <g id="Bold-M" transform="matrix(1 0 0 1 2273.13 1126)">
   <path d="M67.1194-59.2677Q71.8783-59.2677 75.2443-62.6505Q78.6103-66.0333 78.6103-70.7974Q78.6103-75.5563 75.2443-78.9248Q71.8783-82.2934 67.1194-82.2934Q62.3502-82.2934 58.9699-78.9248Q55.5896-75.5563 55.5896-70.7974Q55.5896-66.0333 58.9699-62.6505Q62.3502-59.2677 67.1194-59.2677ZM20.2884-11.8874L45.5239-9.75598Q47.3518-9.59761 48.8784-9.35354Q50.4049-9.10947 51.9315-8.75511Q53.458-8.40075 55.2469-7.90219L85.9761 0.738079L113.621 10.8869Q115.578 11.5904 117.888 10.7959Q120.197 10.0015 120.968 7.43132Q121.666 5.25321 120.747 3.12569Q119.828 0.998181 117.598 0.175145L89.9586-9.88274Q89.6471-9.9736 89.1083-10.1748Q88.5695-10.376 88.3204-10.5006L67.4203-18.0454Q69.5467-22.1786 71.8704-28.3408Q74.1941-34.5031 74.9314-41.4636Q75.0613-42.6452 76.1804-42.6452L113.078-42.6452Q115.438-42.6452 117.089-44.3249Q118.74-46.0046 118.74-48.2736Q118.74-50.6906 117.089-52.3586Q115.438-54.0266 113.078-54.0266L72.6028-54.0266Q69.212-54.0266 67.3726-54.1058Q65.5332-54.185 63.5886-54.616Q61.644-55.047 57.9703-56.0622L19.6834-66.6756Q17.4196-67.3168 15.3829-66.1395Q13.3463-64.9621 12.6712-62.7268Q12.0352-60.4058 13.2125-58.3523Q14.3899-56.2988 16.6537-55.6861L52.378-45.8152Q53.4349-45.5036 53.3388-44.413Q52.7781-40.0773 51.4007-35.9959Q50.0234-31.9145 48.4617-28.6068Q46.9-25.2992 45.698-23.269L26.4673-23.269L26.4673-43.2161Q26.4673-45.5657 24.7395-47.2051Q23.0118-48.8445 20.7428-48.8445Q18.4166-48.8445 16.72-47.2051Q15.0234-45.5657 15.0234-43.2161L15.0234-17.6068Q15.0234-15.1559 16.2748-13.658Q17.5262-12.16 20.2884-11.8874Z"/>
  </g>
  <g id="Semibold-M" transform="matrix(1 0 0 1 1977.19 1126)">
   <path d="M66.3446-59.013Q70.9734-59.013 74.2516-62.3038Q77.5298-65.5946 77.5298-70.2495Q77.5298-74.8783 74.2516-78.16Q70.9734-81.4417 66.3446-81.4417Q61.6827-81.4417 58.3954-78.16Q55.1082-74.8783 55.1082-70.2495Q55.1082-65.5946 58.3954-62.3038Q61.6827-59.013 66.3446-59.013ZM20.0277-12.4518L44.9993-10.3555Q46.9667-10.1867 48.4156-9.95405Q49.8645-9.72134 51.304-9.37317Q52.7434-9.025 54.6407-8.50761L85.0674 0.0446635L112.422 10.0892Q114.309 10.7595 116.503 9.99922Q118.697 9.23894 119.437 6.79934Q120.101 4.71869 119.225 2.68544Q118.35 0.652181 116.221-0.135738L88.8738-10.0809Q88.5623-10.1614 88.0213-10.3668Q87.4802-10.5722 87.25-10.6968L66.3545-18.2388Q68.4626-22.3186 70.8002-28.4559Q73.1378-34.5932 73.8712-41.5444Q74.0218-42.8967 75.3117-42.8967L111.827-42.8967Q114.069-42.8967 115.642-44.4978Q117.216-46.0988 117.216-48.2599Q117.216-50.5756 115.642-52.1617Q114.069-53.7478 111.827-53.7478L71.7667-53.7478Q68.4085-53.7478 66.5792-53.8322Q64.75-53.9166 62.8123-54.3456Q60.8746-54.7746 57.2419-55.7755L19.352-66.2742Q17.1979-66.8823 15.2545-65.7556Q13.3112-64.6289 12.6588-62.4931Q12.058-60.2839 13.1846-58.3279Q14.3112-56.3719 16.4653-55.782L51.8109-46.0237Q53.0197-45.6745 52.9132-44.4216Q52.3525-40.0769 50.9645-35.9885Q49.5765-31.9001 48.0145-28.6024Q46.4526-25.3046 45.265-23.3219L25.9187-23.3219L25.9187-43.2598Q25.9187-45.4872 24.2738-47.0551Q22.6289-48.623 20.4489-48.623Q18.2326-48.623 16.6189-47.0551Q15.0052-45.4872 15.0052-43.2598L15.0052-17.9144Q15.0052-15.5546 16.1902-14.1333Q17.3753-12.712 20.0277-12.4518Z"/>
  </g>
  <g id="Medium-M" transform="matrix(1 0 0 1 1681.06 1126)">
   <path d="M65.7571-58.82Q70.2873-58.82 73.4989-62.041Q76.7105-65.262 76.7105-69.834Q76.7105-74.3642 73.4989-77.5801Q70.2873-80.796 65.7571-80.796Q61.1766-80.796 57.9598-77.5801Q54.7431-74.3642 54.7431-69.834Q54.7431-65.262 57.9598-62.041Q61.1766-58.82 65.7571-58.82ZM19.83-12.8798L44.6015-10.8101Q46.6747-10.6335 48.0647-10.4094Q49.4548-10.1853 50.8282-9.84181Q52.2016-9.49833 54.181-8.96667L84.3784-0.481113L111.512 9.48431Q113.346 10.1295 115.453 9.39512Q117.56 8.66072 118.276 6.32014Q118.913 4.3134 118.071 2.35161Q117.228 0.389829 115.176-0.371463L88.0513-10.2312Q87.7398-10.3038 87.1971-10.5124Q86.6543-10.721 86.4383-10.8456L65.5464-18.3853Q67.6407-22.4247 69.9888-28.5431Q72.3369-34.6615 73.0674-41.6057Q73.2337-43.0874 74.6531-43.0874L110.878-43.0874Q113.03-43.0874 114.545-44.6288Q116.059-46.1702 116.059-48.2495Q116.059-50.4883 114.545-52.0124Q113.03-53.5364 110.878-53.5364L71.1327-53.5364Q67.7993-53.5364 65.9777-53.6247Q64.1561-53.713 62.2236-54.1406Q60.2912-54.5681 56.6896-55.5581L19.1007-65.9699Q17.0299-66.5528 15.1572-65.4646Q13.2845-64.3763 12.6495-62.316Q12.0752-60.1915 13.1634-58.3094Q14.2515-56.4273 16.3223-55.8546L51.3809-46.1818Q52.7049-45.8041 52.5905-44.4281Q52.0298-40.0766 50.6337-35.9829Q49.2377-31.8893 47.6755-28.599Q46.1133-25.3087 44.9366-23.362L25.5027-23.362L25.5027-43.293Q25.5027-45.4277 23.9206-46.9414Q22.3386-48.4551 20.2261-48.4551Q18.093-48.4551 16.5422-46.9414Q14.9913-45.4277 14.9913-43.293L14.9913-18.1477Q14.9913-15.8569 16.1261-14.4938Q17.2609-13.1306 19.83-12.8798Z"/>
  </g>
  <g id="Regular-M" transform="matrix(1 0 0 1 1385.11 1126)">
   <path d="M64.9908-58.5682Q69.3924-58.5682 72.5172-61.6982Q75.642-64.8282 75.642-69.2921Q75.642-73.6936 72.5172-76.8237Q69.3924-79.9537 64.9908-79.9537Q60.5165-79.9537 57.3917-76.8237Q54.2669-73.6936 54.2669-69.2921Q54.2669-64.8282 57.3917-61.6982Q60.5165-58.5682 64.9908-58.5682ZM19.5722-13.438L44.0826-11.403Q46.2938-11.2161 47.6071-11.0033Q48.9203-10.7904 50.2076-10.4531Q51.4949-10.1157 53.5815-9.56544L83.4798-1.16691L110.326 8.69538Q112.091 9.3078 114.084 8.60716Q116.077 7.90652 116.763 5.6951Q117.364 3.78475 116.565 1.91619Q115.766 0.047631 113.814-0.67893L86.9785-10.4273Q86.6669-10.4896 86.122-10.7023Q85.577-10.9151 85.3796-11.0397L64.4924-18.5766Q66.5685-22.5631 68.9304-28.6568Q71.2922-34.7506 72.0188-41.6855Q72.2057-43.3362 73.7939-43.3362L109.641-43.3362Q111.676-43.3362 113.113-44.7998Q114.551-46.2634 114.551-48.236Q114.551-50.3745 113.113-51.8176Q111.676-53.2606 109.641-53.2606L70.3058-53.2606Q67.0047-53.2606 65.1931-53.3541Q63.3815-53.4476 61.4559-53.8731Q59.5302-54.2987 55.9692-55.2745L18.7728-65.5729Q16.8106-66.123 15.0302-65.0849Q13.2498-64.0469 12.6372-62.0848Q12.0977-60.071 13.1357-58.2852Q14.1737-56.4995 16.1359-55.9494L50.82-46.388Q52.2942-45.9731 52.1696-44.4366Q51.6089-40.0763 50.2023-35.9757Q48.7957-31.8751 47.2332-28.5945Q45.6708-25.314 44.5083-23.4143L24.9601-23.4143L24.9601-43.3362Q24.9601-45.3501 23.46-46.7931Q21.9599-48.236 19.9355-48.236Q17.911-48.236 16.4421-46.7931Q14.9732-45.3501 14.9732-43.3362L14.9732-18.452Q14.9732-16.2512 16.0425-14.9639Q17.1117-13.6766 19.5722-13.438Z"/>
  </g>
  <g id="Light-M" transform="matrix(1 0 0 1 1089.82 1126)">
   <path d="M63.5876-58.072Q67.8523-58.072 70.8916-61.1249Q73.9309-64.1779 73.9309-68.5049Q73.9309-72.7697 70.8916-75.8226Q67.8523-78.8756 63.5876-78.8756Q59.2331-78.8756 56.1939-75.8226Q53.1546-72.7697 53.1546-68.5049Q53.1546-64.1779 56.1939-61.1249Q59.2331-58.072 63.5876-58.072ZM19.3839-13.9172L43.227-11.9165Q45.3868-11.7296 46.6574-11.5252Q47.9279-11.3209 49.181-10.9921Q50.4341-10.6634 52.4692-10.1301L81.5461-1.95404L107.674 7.63457Q109.37 8.22973 111.312 7.55482Q113.254 6.87991 113.939 4.71967Q114.507 2.84353 113.725 1.02643Q112.942-0.790674 111.059-1.48302L84.9595-10.9749Q84.6479-11.0372 84.1286-11.2413Q83.6092-11.4455 83.3948-11.5701L63.0891-18.9017Q65.0969-22.7856 67.399-28.7082Q69.701-34.6307 70.3934-41.3946Q70.5803-42.9941 72.117-42.9941L106.988-42.9941Q108.989-42.9941 110.384-44.4062Q111.779-45.8184 111.779-47.7568Q111.779-49.8268 110.384-51.2357Q108.989-52.6446 106.988-52.6446L68.7316-52.6446Q65.533-52.6446 63.7643-52.738Q61.9956-52.8315 60.1299-53.24Q58.2642-53.6484 54.7885-54.59L18.6018-64.6147Q16.6908-65.1476 14.9532-64.1437Q13.2156-63.1399 12.62-61.2293Q12.115-59.2838 13.1186-57.5323Q14.1223-55.7808 16.0333-55.2479L49.7761-45.943Q51.2162-45.5626 51.0915-44.0603Q50.5308-39.8026 49.167-35.8217Q47.8033-31.8409 46.2835-28.6458Q44.7638-25.4508 43.6358-23.6026L24.618-23.6026L24.618-42.9941Q24.618-44.9396 23.1606-46.3482Q21.7031-47.7568 19.7303-47.7568Q17.7569-47.7568 16.3309-46.3482Q14.9048-44.9396 14.9048-42.9941L14.9048-18.7771Q14.9048-16.6447 15.9398-15.3917Q16.9749-14.1386 19.3839-13.9172Z"/>
  </g>
  <g id="Thin-M" transform="matrix(1 0 0 1 794.99 1126)">
   <path d="M61.7317-57.4157Q65.8155-57.4157 68.7416-60.3668Q71.6678-63.3179 71.6678-67.4639Q71.6678-71.5476 68.7416-74.4987Q65.8155-77.4498 61.7317-77.4498Q57.5358-77.4498 54.6097-74.4987Q51.6835-71.5476 51.6835-67.4639Q51.6835-63.3179 54.6097-60.3668Q57.5358-57.4157 61.7317-57.4157ZM19.1348-14.5511L42.0955-12.5956Q44.1872-12.4086 45.4013-12.2155Q46.6154-12.0224 47.8232-11.705Q49.0311-11.3877 50.9982-10.8768L78.9888-2.99509L104.166 6.23155Q105.772 6.8039 107.646 6.16302Q109.52 5.52214 110.205 3.42958Q110.728 1.59869 109.968-0.150357Q109.208-1.8994 107.415-2.5465L82.2892-11.6992Q81.9776-11.7615 81.4921-11.9543Q81.0066-12.147 80.7698-12.2716L61.2333-19.3317Q63.1505-23.0799 65.3735-28.776Q67.5965-34.4722 68.2436-41.0098Q68.4305-42.5416 69.8992-42.5416L103.48-42.5416Q105.436-42.5416 106.775-43.8857Q108.113-45.2298 108.113-47.123Q108.113-49.1025 106.775-50.4661Q105.436-51.8297 103.48-51.8297L66.6495-51.8297Q63.5867-51.8297 61.8746-51.9232Q60.1625-52.0167 58.3761-52.4025Q56.5897-52.7884 53.2269-53.6847L18.3756-63.3475Q16.5322-63.8575 14.8513-62.8989Q13.1703-61.9403 12.5972-60.0978Q12.1378-58.2428 13.096-56.5365Q14.0542-54.8302 15.8976-54.3202L48.3956-45.3544Q49.7903-45.0196 49.6657-43.5626Q49.105-39.4406 47.7979-35.6181Q46.4908-31.7956 45.0275-28.7137Q43.5642-25.6318 42.4818-23.8516L24.1656-23.8516L24.1656-42.5416Q24.1656-44.3966 22.7646-45.7598Q21.3636-47.123 19.4588-47.123Q17.5531-47.123 16.1837-45.7598Q14.8143-44.3966 14.8143-42.5416L14.8143-19.2071Q14.8143-17.1653 15.8041-15.9574Q16.7939-14.7496 19.1348-14.5511Z"/>
  </g>
  <g id="Ultralight-M" transform="matrix(1 0 0 1 499.241 1126)">
   <path d="M60.7812-57.0796Q64.7722-57.0796 67.6404-59.9785Q70.5086-62.8773 70.5086-66.9307Q70.5086-70.9217 67.6404-73.8206Q64.7722-76.7195 60.7812-76.7195Q56.6665-76.7195 53.7983-73.8206Q50.93-70.9217 50.93-66.9307Q50.93-62.8773 53.7983-59.9785Q56.6665-57.0796 60.7812-57.0796ZM19.0073-14.8757L41.5159-12.9434Q43.5728-12.7565 44.7579-12.5691Q45.9431-12.3817 47.1278-12.0702Q48.3124-11.7587 50.2447-11.2593L77.6789-3.52831L102.369 5.51293Q103.928 6.0736 105.768 5.45015Q107.607 4.8267 108.292 2.7688Q108.792 0.961082 108.044-0.7531Q107.296-2.46728 105.549-3.09121L80.9215-12.0702Q80.6099-12.1325 80.1417-12.3194Q79.6735-12.5063 79.4253-12.6309L60.2827-19.552Q62.1536-23.2306 64.3361-28.8108Q66.5186-34.3909 67.1425-40.8127Q67.3294-42.3099 68.7632-42.3099L101.684-42.3099Q103.616-42.3099 104.926-43.6191Q106.236-44.9283 106.236-46.7983Q106.236-48.7315 104.926-50.072Q103.616-51.4124 101.684-51.4124L65.583-51.4124Q62.5898-51.4124 60.9067-51.5059Q59.2236-51.5993 57.4778-51.9736Q55.732-52.3479 52.4271-53.221L18.2597-62.6984Q16.451-63.1967 14.7991-62.2613Q13.1472-61.3258 12.5855-59.5182Q12.1495-57.7096 13.0844-56.0265Q14.0194-54.3434 15.828-53.845L47.6884-45.0529Q49.06-44.7415 48.9354-43.3077Q48.3747-39.2552 47.0966-35.5138Q45.8185-31.7725 44.3841-28.7485Q42.9498-25.7245 41.8907-23.9792L23.9338-23.9792L23.9338-42.3099Q23.9338-44.1185 22.5618-45.4584Q21.1897-46.7983 19.3197-46.7983Q17.4488-46.7983 16.1084-45.4584Q14.768-44.1185 14.768-42.3099L14.768-19.4274Q14.768-17.4319 15.7346-16.2472Q16.7012-15.0625 19.0073-14.8757Z"/>
  </g>
  <g id="Black-S" transform="matrix(1 0 0 1 2879.13 696)">
   <path d="M54.4922-54.6875Q58.5449-54.6875 61.4014-57.5684Q64.2578-60.4492 64.2578-64.4531Q64.2578-68.5059 61.4014-71.3623Q58.5449-74.2188 54.4922-74.2188Q50.4883-74.2188 47.6074-71.3623Q44.7266-68.5059 44.7266-64.4531Q44.7266-60.4492 47.6074-57.5684Q50.4883-54.6875 54.4922-54.6875ZM16.5527-15.5273L36.9629-13.7695Q38.0371-13.6719 39.4287-13.4521Q40.8203-13.2324 42.2363-12.9395Q43.6523-12.6465 44.7754-12.3047L69.5801-5.32227L91.9434 2.88086Q93.6523 3.51562 95.752 2.80762Q97.8516 2.09961 98.5352-0.244141Q99.1699-2.19727 98.3398-4.10156Q97.5098-6.00586 95.5078-6.73828L73.1445-14.8926Q72.9004-14.9902 72.4854-15.1367Q72.0703-15.2832 71.8262-15.3809L55.4688-21.2891Q57.1777-24.6582 58.96-29.541Q60.7422-34.4238 61.3281-39.8926Q61.377-40.3809 61.8164-40.3809L91.6504-40.3809Q93.7988-40.3809 95.2881-41.8945Q96.7773-43.4082 96.7773-45.459Q96.7773-47.6074 95.2881-49.1211Q93.7988-50.6348 91.6504-50.6348L58.9355-50.6348Q56.2012-50.6348 54.7363-50.6836Q53.2715-50.7324 51.7334-51.0742Q50.1953-51.416 47.2168-52.2461L16.2598-60.8398Q14.209-61.4258 12.3779-60.376Q10.5469-59.3262 9.96094-57.3242Q9.375-55.2246 10.4248-53.3691Q11.4746-51.5137 13.5254-50.9766L42.4316-42.9688Q42.8711-42.8223 42.8223-42.3828Q42.3828-39.0137 41.333-35.8398Q40.2832-32.666 39.0625-30.0537Q37.8418-27.4414 36.8652-25.7324L22.1191-25.7324L22.1191-41.3574Q22.1191-43.5059 20.5566-44.9707Q18.9941-46.4355 16.9922-46.4355Q14.8926-46.4355 13.3545-44.9707Q11.8164-43.5059 11.8164-41.3574L11.8164-20.6543Q11.8164-18.5059 12.9639-17.1387Q14.1113-15.7715 16.5527-15.5273Z"/>
  </g>
  <g id="Heavy-S" transform="matrix(1 0 0 1 2583.09 696)">
   <path d="M53.8122-54.4685Q57.7382-54.4685 60.5082-57.2572Q63.2782-60.0459 63.2782-63.946Q63.2782-67.872 60.5082-70.642Q57.7382-73.412 53.8122-73.412Q49.9121-73.412 47.1234-70.642Q44.3347-67.872 44.3347-63.946Q44.3347-60.0459 47.1234-57.2572Q49.9121-54.4685 53.8122-54.4685ZM16.2877-16.092L36.4904-14.3688Q37.7259-14.2596 39.0369-14.0514Q40.3478-13.8432 41.6716-13.556Q42.9954-13.2688 44.2453-12.904L68.8195-5.99068L90.9523 2.13177Q92.5921 2.73196 94.5707 2.05853Q96.5493 1.38509 97.1983-0.820364Q97.7985-2.66977 97.0145-4.47611Q96.2305-6.28245 94.3323-6.9803L72.1995-15.0424Q71.9554-15.1285 71.5346-15.2808Q71.1138-15.433 70.8927-15.5307L54.4661-21.4619Q56.1636-24.785 57.9689-29.662Q59.7741-34.5391 60.3601-40.0193Q60.4319-40.7035 61.0673-40.7035L90.6017-40.7035Q92.6233-40.7035 94.0319-42.1365Q95.4405-43.5695 95.4405-45.5051Q95.4405-47.5498 94.0319-48.977Q92.6233-50.4043 90.6017-50.4043L58.2095-50.4043Q55.4982-50.4043 54.0391-50.4589Q52.58-50.5135 51.0419-50.8553Q49.5038-51.1971 46.5599-52.0156L15.914-60.5172Q13.9785-61.0685 12.2454-60.0706Q10.5123-59.0726 9.94941-57.1744Q9.39805-55.19 10.396-53.4383Q11.3939-51.6865 13.3295-51.1725L41.9361-43.2569Q42.5484-43.0643 42.4881-42.4404Q42.0486-39.0482 40.9815-35.8514Q39.9144-32.6545 38.688-30.0422Q37.4615-27.4299 36.4965-25.767L21.5544-25.767L21.5544-41.4496Q21.5544-43.4713 20.0784-44.8612Q18.6023-46.2512 16.6926-46.2512Q14.7082-46.2512 13.2565-44.8612Q11.8049-43.4713 11.8049-41.4496L11.8049-20.9539Q11.8049-18.8977 12.8832-17.6112Q13.9615-16.3247 16.2877-16.092Z"/>
  </g>
  <g id="Bold-S" transform="matrix(1 0 0 1 2287.13 696)">
   <path d="M53.0518-54.2236Q56.8359-54.2236 59.5093-56.9092Q62.1826-59.5947 62.1826-63.3789Q62.1826-67.1631 59.5093-69.8364Q56.8359-72.5098 53.0518-72.5098Q49.2676-72.5098 46.582-69.8364Q43.8965-67.1631 43.8965-63.3789Q43.8965-59.5947 46.582-56.9092Q49.2676-54.2236 53.0518-54.2236ZM15.9912-16.7236L35.9619-15.0391Q37.3779-14.917 38.5986-14.7217Q39.8193-14.5264 41.04-14.2456Q42.2607-13.9648 43.6523-13.5742L67.9688-6.73828L89.8438 1.29395Q91.4062 1.85547 93.2495 1.2207Q95.0928 0.585938 95.7031-1.46484Q96.2646-3.19824 95.5322-4.89502Q94.7998-6.5918 93.0176-7.25098L71.1426-15.21Q70.8984-15.2832 70.4712-15.4419Q70.0439-15.6006 69.8486-15.6982L53.3447-21.6553Q55.0293-24.9268 56.8604-29.7974Q58.6914-34.668 59.2773-40.1611Q59.375-41.0645 60.2295-41.0645L89.4287-41.0645Q91.3086-41.0645 92.627-42.4072Q93.9453-43.75 93.9453-45.5566Q93.9453-47.4854 92.627-48.8159Q91.3086-50.1465 89.4287-50.1465L57.3975-50.1465Q54.7119-50.1465 53.2593-50.2075Q51.8066-50.2686 50.2686-50.6104Q48.7305-50.9521 45.8252-51.7578L15.5273-60.1562Q13.7207-60.6689 12.0972-59.729Q10.4736-58.7891 9.93652-57.0068Q9.42383-55.1514 10.3638-53.5156Q11.3037-51.8799 13.1104-51.3916L41.3818-43.5791Q42.1875-43.335 42.1143-42.5049Q41.6748-39.0869 40.5884-35.8643Q39.502-32.6416 38.269-30.0293Q37.0361-27.417 36.084-25.8057L20.9229-25.8057L20.9229-41.5527Q20.9229-43.4326 19.5435-44.7388Q18.1641-46.0449 16.3574-46.0449Q14.502-46.0449 13.147-44.7388Q11.792-43.4326 11.792-41.5527L11.792-21.2891Q11.792-19.3359 12.793-18.1396Q13.7939-16.9434 15.9912-16.7236Z"/>
  </g>
  <g id="Semibold-S" transform="matrix(1 0 0 1 1990.94 696)">
   <path d="M52.5274-54.0548Q56.2139-54.0548 58.8206-56.6692Q61.4272-59.2837 61.4272-62.9879Q61.4272-66.6743 58.8206-69.281Q56.2139-71.8877 52.5274-71.8877Q48.8232-71.8877 46.2088-69.281Q43.5943-66.6743 43.5943-62.9879Q43.5943-59.2837 46.2088-56.6692Q48.8232-54.0548 52.5274-54.0548ZM15.7868-17.1591L35.5976-15.5012Q37.138-15.3702 38.2965-15.1838Q39.455-14.9974 40.6046-14.721Q41.7542-14.4447 43.2436-14.0363L67.3822-7.25371L89.0795 0.716309Q90.5887 1.25117 92.3386 0.643066Q94.0886 0.0349609 94.6723-1.90918Q95.2071-3.5626 94.5103-5.18384Q93.8134-6.80508 92.1111-7.4376L70.4139-15.3255Q70.1697-15.3898 69.738-15.553Q69.3063-15.7161 69.1288-15.8138L52.5716-21.7886Q54.2473-25.0245 56.0961-29.8907Q57.9449-34.7568 58.5309-40.2589Q58.6463-41.3133 59.6519-41.3133L88.62-41.3133Q90.4021-41.3133 91.6583-42.5938Q92.9145-43.8744 92.9145-45.5922Q92.9145-47.4409 91.6583-48.7048Q90.4021-49.9688 88.62-49.9688L56.8376-49.9688Q54.1698-49.9688 52.7216-50.0342Q51.2734-50.0997 49.7354-50.4415Q48.1973-50.7833 45.3187-51.5801L15.2607-59.9074Q13.543-60.3935 11.995-59.4935Q10.447-58.5936 9.92764-56.8913Q9.4416-55.1247 10.3416-53.5689Q11.2415-52.0132 12.9593-51.5427L40.9997-43.8013Q41.9387-43.5216 41.8565-42.5493Q41.4171-39.1136 40.3173-35.8731Q39.2176-32.6327 37.9802-30.0204Q36.7429-27.4081 35.7996-25.8323L20.4874-25.8323L20.4874-41.6238Q20.4874-43.406 19.1747-44.6543Q17.8619-45.9027 16.1264-45.9027Q14.3598-45.9027 13.0714-44.6543Q11.7831-43.406 11.7831-41.6238L11.7831-21.5201Q11.7831-19.6381 12.7308-18.504Q13.6784-17.3699 15.7868-17.1591Z"/>
  </g>
  <g id="Medium-S" transform="matrix(1 0 0 1 1694.63 696)">
   <path d="M52.1299-53.9268Q55.7422-53.9268 58.2983-56.4873Q60.8545-59.0479 60.8545-62.6914Q60.8545-66.3037 58.2983-68.8599Q55.7422-71.416 52.1299-71.416Q48.4863-71.416 45.9258-68.8599Q43.3652-66.3037 43.3652-62.6914Q43.3652-59.0479 45.9258-56.4873Q48.4863-53.9268 52.1299-53.9268ZM15.6318-17.4893L35.3213-15.8516Q36.9561-15.7139 38.0674-15.5342Q39.1787-15.3545 40.2744-15.0815Q41.3701-14.8086 42.9336-14.3867L66.9375-7.64453L88.5 0.27832Q89.9688 0.792969 91.6479 0.205078Q93.3271-0.382812 93.8906-2.24609Q94.4053-3.83887 93.7354-5.40283Q93.0654-6.9668 91.4238-7.5791L69.8613-15.4131Q69.6172-15.4707 69.1821-15.6372Q68.7471-15.8037 68.583-15.9014L51.9854-21.8896Q53.6543-25.0986 55.5166-29.9614Q57.3789-34.8242 57.9648-40.333Q58.0938-41.502 59.2139-41.502L88.0068-41.502Q89.7148-41.502 90.9238-42.7354Q92.1328-43.9688 92.1328-45.6191Q92.1328-47.4072 90.9238-48.6206Q89.7148-49.834 88.0068-49.834L56.4131-49.834Q53.7588-49.834 52.314-49.9028Q50.8691-49.9717 49.3311-50.3135Q47.793-50.6553 44.9346-51.4453L15.0586-59.7188Q13.4082-60.1846 11.9175-59.3149Q10.4268-58.4453 9.9209-56.8037Q9.45508-55.1045 10.3247-53.6094Q11.1943-52.1143 12.8447-51.6572L40.71-43.9697Q41.75-43.6631 41.6611-42.583Q41.2217-39.1338 40.1118-35.8799Q39.002-32.626 37.7612-30.0137Q36.5205-27.4014 35.584-25.8525L20.1572-25.8525L20.1572-41.6777Q20.1572-43.3857 18.895-44.5903Q17.6328-45.7949 15.9512-45.7949Q14.252-45.7949 13.0142-44.5903Q11.7764-43.3857 11.7764-41.6777L11.7764-21.6953Q11.7764-19.8672 12.6836-18.7803Q13.5908-17.6934 15.6318-17.4893Z"/>
  </g>
  <g id="Regular-S" transform="matrix(1 0 0 1 1398.43 696)">
   <path d="M51.6113-53.7598Q55.127-53.7598 57.6172-56.25Q60.1074-58.7402 60.1074-62.3047Q60.1074-65.8203 57.6172-68.3105Q55.127-70.8008 51.6113-70.8008Q48.0469-70.8008 45.5566-68.3105Q43.0664-65.8203 43.0664-62.3047Q43.0664-58.7402 45.5566-56.25Q48.0469-53.7598 51.6113-53.7598ZM15.4297-17.9199L34.9609-16.3086Q36.7188-16.1621 37.7686-15.9912Q38.8184-15.8203 39.8438-15.5518Q40.8691-15.2832 42.5293-14.8438L66.3574-8.1543L87.7441-0.292969Q89.1602 0.195312 90.7471-0.366211Q92.334-0.927734 92.8711-2.68555Q93.3594-4.19922 92.7246-5.68848Q92.0898-7.17773 90.5273-7.76367L69.1406-15.5273Q68.8965-15.5762 68.457-15.7471Q68.0176-15.918 67.8711-16.0156L51.2207-22.0215Q52.8809-25.1953 54.7607-30.0537Q56.6406-34.9121 57.2266-40.4297Q57.373-41.748 58.6426-41.748L87.207-41.748Q88.8184-41.748 89.9658-42.9199Q91.1133-44.0918 91.1133-45.6543Q91.1133-47.3633 89.9658-48.5107Q88.8184-49.6582 87.207-49.6582L55.8594-49.6582Q53.2227-49.6582 51.7822-49.7314Q50.3418-49.8047 48.8037-50.1465Q47.2656-50.4883 44.4336-51.2695L14.7949-59.4727Q13.2324-59.9121 11.8164-59.082Q10.4004-58.252 9.91211-56.6895Q9.47266-55.0781 10.3027-53.6621Q11.1328-52.2461 12.6953-51.8066L40.332-44.1895Q41.5039-43.8477 41.4062-42.627Q40.9668-39.1602 39.8438-35.8887Q38.7207-32.6172 37.4756-30.0049Q36.2305-27.3926 35.3027-25.8789L19.7266-25.8789L19.7266-41.748Q19.7266-43.3594 18.5303-44.5068Q17.334-45.6543 15.7227-45.6543Q14.1113-45.6543 12.9395-44.5068Q11.7676-43.3594 11.7676-41.748L11.7676-21.9238Q11.7676-20.166 12.6221-19.1406Q13.4766-18.1152 15.4297-17.9199Z"/>
  </g>
  <g id="Light-S" transform="matrix(1 0 0 1 1102.97 696)">
   <path d="M50.37-53.3208Q53.7646-53.3208 56.1792-55.7429Q58.5938-58.165 58.5938-61.6084Q58.5938-65.003 56.1792-67.425Q53.7646-69.8471 50.37-69.8471Q46.9116-69.8471 44.497-67.425Q42.0825-65.003 42.0825-61.6084Q42.0825-58.165 44.497-55.7429Q46.9116-53.3208 50.37-53.3208ZM15.2631-18.3439L34.2041-16.7628Q35.9164-16.6163 36.9284-16.4529Q37.9405-16.2895 38.9356-16.0286Q39.9307-15.7677 41.5454-15.3432L64.6469-8.85061L85.3978-1.23138Q86.7533-0.758362 88.2949-1.29712Q89.8364-1.83589 90.3735-3.54843Q90.8315-5.03184 90.2119-6.47558Q89.5922-7.91931 88.0903-8.47499L67.3546-16.0118Q67.1104-16.0606 66.6936-16.2239Q66.2768-16.3872 66.1153-16.4848L49.9794-22.3091Q51.579-25.3922 53.406-30.0991Q55.233-34.8061 55.7887-40.1723Q55.9352-41.4454 57.1592-41.4454L84.8607-41.4454Q86.4418-41.4454 87.5515-42.5718Q88.6612-43.6981 88.6612-45.2304Q88.6612-46.8788 87.5515-47.996Q86.4418-49.1132 84.8607-49.1132L54.4668-49.1132Q51.9208-49.1132 50.5183-49.1865Q49.1158-49.2597 47.6307-49.5864Q46.1456-49.913 43.3891-50.664L14.6436-58.625Q13.1264-59.0492 11.7483-58.2494Q10.3701-57.4496 9.89685-55.9326Q9.48792-54.3818 10.2876-52.9961Q11.0873-51.6103 12.6045-51.1861L39.4086-43.7958Q40.5502-43.4845 40.4526-42.2941Q40.0131-38.9181 38.928-35.7525Q37.8428-32.5869 36.6355-30.0503Q35.4281-27.5136 34.5309-26.0455L19.4239-26.0455L19.4239-41.4454Q19.4239-42.9962 18.2654-44.1133Q17.1069-45.2304 15.5411-45.2304Q13.975-45.2304 12.841-44.1133Q11.7071-42.9962 11.7071-41.4454L11.7071-22.2115Q11.7071-20.5142 12.5313-19.519Q13.3555-18.5239 15.2631-18.3439Z"/>
  </g>
  <g id="Thin-S" transform="matrix(1 0 0 1 807.924 696)">
   <path d="M48.7283-52.7403Q51.9628-52.7403 54.2773-55.0722Q56.5918-57.4042 56.5918-60.6875Q56.5918-63.9219 54.2773-66.2539Q51.9628-68.5858 48.7283-68.5858Q45.4102-68.5858 43.0956-66.2539Q40.7811-63.9219 40.7811-60.6875Q40.7811-57.4042 43.0956-55.0722Q45.4102-52.7403 48.7283-52.7403ZM15.0428-18.9046L33.2031-17.3635Q34.8552-17.217 35.8173-17.0636Q36.7794-16.9101 37.7345-16.6593Q38.6896-16.4084 40.244-16.0038L62.3846-9.77153L82.2947-2.47251Q83.5701-2.01967 85.0516-2.52833Q86.5331-3.03699 87.0702-4.68967Q87.4882-6.13305 86.8886-7.51658Q86.2889-8.90011 84.867-9.41576L64.9924-16.6526Q64.7483-16.7014 64.3614-16.8546Q63.9745-17.0077 63.7932-17.1054L48.3377-22.6895Q49.8573-25.6525 51.6143-30.1591Q53.3713-34.6658 53.887-39.8319Q54.0334-41.0452 55.1972-41.0452L81.7576-41.0452Q83.2986-41.0452 84.3584-42.1113Q85.4181-43.1775 85.4181-44.6697Q85.4181-46.2381 84.3584-47.3152Q83.2986-48.3924 81.7576-48.3924L52.6249-48.3924Q50.1991-48.3924 48.8466-48.4657Q47.4942-48.5389 46.0793-48.8455Q44.6643-49.1522 42.0077-49.8632L14.4435-57.504Q12.9861-57.908 11.6581-57.1482Q10.3301-56.3884 9.87667-54.9316Q9.5081-53.4609 10.2676-52.1152Q11.0271-50.7694 12.4844-50.3654L38.1873-43.2751Q39.2889-43.0042 39.1913-41.8538Q38.7518-38.5978 37.7168-35.5724Q36.6817-32.5469 35.5243-30.1103Q34.3669-27.6737 33.5101-26.2658L19.0237-26.2658L19.0237-41.0452Q19.0237-42.5159 17.9151-43.5928Q16.8065-44.6697 15.3009-44.6697Q13.7947-44.6697 12.7109-43.5928Q11.627-42.5159 11.627-41.0452L11.627-22.5919Q11.627-20.9746 12.4112-20.0195Q13.1954-19.0644 15.0428-18.9046Z"/>
  </g>
  <g id="Ultralight-S" transform="matrix(1 0 0 1 512.064 696)">
   <path d="M47.8874-52.4429Q51.0399-52.4429 53.3031-54.7287Q55.5664-57.0145 55.5664-60.2158Q55.5664-63.3682 53.3031-65.654Q51.0399-67.9398 47.8874-67.9398Q44.6411-67.9398 42.3779-65.654Q40.1146-63.3682 40.1146-60.2158Q40.1146-57.0145 42.3779-54.7287Q44.6411-52.4429 47.8874-52.4429ZM14.93-19.1917L32.6904-17.6712Q34.3117-17.5247 35.2482-17.3763Q36.1847-17.2279 37.1193-16.9823Q38.0539-16.7366 39.5775-16.3422L61.2259-10.2432L80.7053-3.10822Q81.9397-2.66571 83.3904-3.15895Q84.8412-3.65219 85.3783-5.2742Q85.7758-6.69708 85.1864-8.04977Q84.597-9.40247 83.2161-9.89761L63.7825-16.9807Q63.5384-17.0296 63.1668-17.1776Q62.7953-17.3256 62.6038-17.4232L47.4968-22.8844Q48.9754-25.7858 50.6966-30.1899Q52.4178-34.594 52.9129-39.6576Q53.0594-40.8401 54.1924-40.8401L80.1682-40.8401Q81.6887-40.8401 82.7229-41.8755Q83.757-42.9108 83.757-44.3825Q83.757-45.9099 82.7229-46.9666Q81.6887-48.0232 80.1682-48.0232L51.6815-48.0232Q49.3172-48.0232 47.9904-48.0965Q46.6637-48.1697 45.2847-48.4661Q43.9056-48.7625 41.3002-49.453L14.341-56.9298Q12.9143-57.3235 11.6119-56.5842Q10.3096-55.8449 9.86633-54.4189Q9.51843-52.9892 10.2573-51.664Q10.9962-50.3387 12.4229-49.9451L37.5618-43.0084Q38.6429-42.7582 38.5452-41.6283Q38.1058-38.4338 37.0964-35.4801Q36.087-32.5264 34.9552-30.1411Q33.8234-27.7557 32.9872-26.3786L18.8187-26.3786L18.8187-40.8401Q18.8187-42.2699 17.7357-43.3262Q16.6527-44.3825 15.1779-44.3825Q13.7024-44.3825 12.6442-43.3262Q11.586-42.2699 11.586-40.8401L11.586-22.7867Q11.586-21.2105 12.3497-20.2759Q13.1134-19.3413 14.93-19.1917Z"/>
  </g>
 </g>
</svg>
