<?xml version="1.0" encoding="UTF-8"?>
<!--Generator: Apple Native CoreSVG 175.5-->
<!DOCTYPE svg
PUBLIC "-//W3C//DTD SVG 1.1//EN"
       "http://www.w3.org/Graphics/SVG/1.1/DTD/svg11.dtd">
<svg version="1.1" xmlns="http://www.w3.org/2000/svg" xmlns:xlink="http://www.w3.org/1999/xlink" width="3300" height="2200">
 <!--glyph: "uni10130F.medium", point size: 100.0, font version: "18.0d9e1", template writer version: "84"-->
 <g id="Notes">
  <rect height="2200" id="artboard" style="fill:white;opacity:1" width="3300" x="0" y="0"/>
  <line style="fill:none;stroke:black;opacity:1;stroke-width:0.5;" x1="263" x2="3036" y1="292" y2="292"/>
  <text style="stroke:none;fill:black;font-family:sans-serif;font-size:13;font-weight:bold;" transform="matrix(1 0 0 1 263 322)">Weight/Scale Variations</text>
  <text style="stroke:none;fill:black;font-family:sans-serif;font-size:13;text-anchor:middle;" transform="matrix(1 0 0 1 559.711 322)">Ultralight</text>
  <text style="stroke:none;fill:black;font-family:sans-serif;font-size:13;text-anchor:middle;" transform="matrix(1 0 0 1 856.422 322)">Thin</text>
  <text style="stroke:none;fill:black;font-family:sans-serif;font-size:13;text-anchor:middle;" transform="matrix(1 0 0 1 1153.13 322)">Light</text>
  <text style="stroke:none;fill:black;font-family:sans-serif;font-size:13;text-anchor:middle;" transform="matrix(1 0 0 1 1449.84 322)">Regular</text>
  <text style="stroke:none;fill:black;font-family:sans-serif;font-size:13;text-anchor:middle;" transform="matrix(1 0 0 1 1746.56 322)">Medium</text>
  <text style="stroke:none;fill:black;font-family:sans-serif;font-size:13;text-anchor:middle;" transform="matrix(1 0 0 1 2043.27 322)">Semibold</text>
  <text style="stroke:none;fill:black;font-family:sans-serif;font-size:13;text-anchor:middle;" transform="matrix(1 0 0 1 2339.98 322)">Bold</text>
  <text style="stroke:none;fill:black;font-family:sans-serif;font-size:13;text-anchor:middle;" transform="matrix(1 0 0 1 2636.69 322)">Heavy</text>
  <text style="stroke:none;fill:black;font-family:sans-serif;font-size:13;text-anchor:middle;" transform="matrix(1 0 0 1 2933.4 322)">Black</text>
  <line style="fill:none;stroke:black;opacity:1;stroke-width:0.5;" x1="263" x2="3036" y1="1903" y2="1903"/>
  <g transform="matrix(1 0 0 1 263 1933)">
   <path d="M9.24805 0.830078Q10.8691 0.830078 12.2949 0.214844Q13.7207-0.400391 14.8096-1.49414Q15.8984-2.58789 16.5186-4.01367Q17.1387-5.43945 17.1387-7.05078Q17.1387-8.66211 16.5186-10.0879Q15.8984-11.5137 14.8047-12.6074Q13.7109-13.7012 12.2852-14.3164Q10.8594-14.9316 9.23828-14.9316Q7.62695-14.9316 6.20117-14.3164Q4.77539-13.7012 3.69141-12.6074Q2.60742-11.5137 1.9873-10.0879Q1.36719-8.66211 1.36719-7.05078Q1.36719-5.43945 1.9873-4.01367Q2.60742-2.58789 3.69629-1.49414Q4.78516-0.400391 6.21094 0.214844Q7.63672 0.830078 9.24805 0.830078ZM9.24805-0.654297Q7.91992-0.654297 6.7627-1.14746Q5.60547-1.64062 4.73145-2.51953Q3.85742-3.39844 3.36426-4.56055Q2.87109-5.72266 2.87109-7.05078Q2.87109-8.37891 3.35938-9.54102Q3.84766-10.7031 4.72168-11.582Q5.5957-12.4609 6.75293-12.9541Q7.91016-13.4473 9.23828-13.4473Q10.5762-13.4473 11.7383-12.9541Q12.9004-12.4609 13.7793-11.582Q14.6582-10.7031 15.1514-9.54102Q15.6445-8.37891 15.6445-7.05078Q15.6445-5.72266 15.1514-4.56055Q14.6582-3.39844 13.7793-2.51953Q12.9004-1.64062 11.7432-1.14746Q10.5859-0.654297 9.24805-0.654297ZM5.6543-7.05078Q5.6543-6.72852 5.85938-6.52832Q6.06445-6.32812 6.40625-6.32812L8.51562-6.32812L8.51562-4.20898Q8.51562-3.88672 8.71094-3.67676Q8.90625-3.4668 9.23828-3.4668Q9.56055-3.4668 9.77051-3.67676Q9.98047-3.88672 9.98047-4.20898L9.98047-6.32812L12.0898-6.32812Q12.4219-6.32812 12.627-6.52832Q12.832-6.72852 12.832-7.05078Q12.832-7.38281 12.627-7.58789Q12.4219-7.79297 12.0898-7.79297L9.98047-7.79297L9.98047-9.90234Q9.98047-10.2344 9.77051-10.4443Q9.56055-10.6543 9.23828-10.6543Q8.90625-10.6543 8.71094-10.4443Q8.51562-10.2344 8.51562-9.90234L8.51562-7.79297L6.40625-7.79297Q6.06445-7.79297 5.85938-7.58789Q5.6543-7.38281 5.6543-7.05078Z"/>
  </g>
  <g transform="matrix(1 0 0 1 281.867 1933)">
   <path d="M11.709 2.91016Q13.75 2.91016 15.5518 2.12891Q17.3535 1.34766 18.7305-0.0292969Q20.1074-1.40625 20.8887-3.20801Q21.6699-5.00977 21.6699-7.05078Q21.6699-9.0918 20.8887-10.8936Q20.1074-12.6953 18.7305-14.0723Q17.3535-15.4492 15.5469-16.2305Q13.7402-17.0117 11.6992-17.0117Q9.6582-17.0117 7.85645-16.2305Q6.05469-15.4492 4.68262-14.0723Q3.31055-12.6953 2.5293-10.8936Q1.74805-9.0918 1.74805-7.05078Q1.74805-5.00977 2.5293-3.20801Q3.31055-1.40625 4.6875-0.0292969Q6.06445 1.34766 7.86621 2.12891Q9.66797 2.91016 11.709 2.91016ZM11.709 1.25Q9.98047 1.25 8.47656 0.605469Q6.97266-0.0390625 5.83496-1.17676Q4.69727-2.31445 4.05762-3.81836Q3.41797-5.32227 3.41797-7.05078Q3.41797-8.7793 4.05762-10.2832Q4.69727-11.7871 5.83008-12.9297Q6.96289-14.0723 8.4668-14.7119Q9.9707-15.3516 11.6992-15.3516Q13.4277-15.3516 14.9365-14.7119Q16.4453-14.0723 17.583-12.9297Q18.7207-11.7871 19.3652-10.2832Q20.0098-8.7793 20.0098-7.05078Q20.0098-5.32227 19.3701-3.81836Q18.7305-2.31445 17.5879-1.17676Q16.4453-0.0390625 14.9414 0.605469Q13.4375 1.25 11.709 1.25ZM7.17773-7.05078Q7.17773-6.69922 7.41211-6.47461Q7.64648-6.25 8.01758-6.25L10.8887-6.25L10.8887-3.36914Q10.8887-2.99805 11.1133-2.76855Q11.3379-2.53906 11.6895-2.53906Q12.0605-2.53906 12.29-2.76855Q12.5195-2.99805 12.5195-3.36914L12.5195-6.25L15.4004-6.25Q15.7715-6.25 16.001-6.47461Q16.2305-6.69922 16.2305-7.05078Q16.2305-7.42188 16.001-7.65137Q15.7715-7.88086 15.4004-7.88086L12.5195-7.88086L12.5195-10.752Q12.5195-11.1328 12.29-11.3623Q12.0605-11.5918 11.6895-11.5918Q11.3379-11.5918 11.1133-11.3574Q10.8887-11.123 10.8887-10.752L10.8887-7.88086L8.01758-7.88086Q7.63672-7.88086 7.40723-7.65137Q7.17773-7.42188 7.17773-7.05078Z"/>
  </g>
  <g transform="matrix(1 0 0 1 305.646 1933)">
   <path d="M14.9707 5.66406Q17.0605 5.66406 18.96 5.01465Q20.8594 4.36523 22.4512 3.19336Q24.043 2.02148 25.2197 0.429688Q26.3965-1.16211 27.0459-3.06641Q27.6953-4.9707 27.6953-7.05078Q27.6953-9.14062 27.0459-11.04Q26.3965-12.9395 25.2197-14.5312Q24.043-16.123 22.4512-17.2998Q20.8594-18.4766 18.9551-19.126Q17.0508-19.7754 14.9609-19.7754Q12.8711-19.7754 10.9717-19.126Q9.07227-18.4766 7.48535-17.2998Q5.89844-16.123 4.72168-14.5312Q3.54492-12.9395 2.90039-11.04Q2.25586-9.14062 2.25586-7.05078Q2.25586-4.9707 2.90527-3.06641Q3.55469-1.16211 4.72656 0.429688Q5.89844 2.02148 7.49023 3.19336Q9.08203 4.36523 10.9814 5.01465Q12.8809 5.66406 14.9707 5.66406ZM14.9707 3.84766Q13.1641 3.84766 11.5283 3.2959Q9.89258 2.74414 8.53516 1.74805Q7.17773 0.751953 6.17676-0.610352Q5.17578-1.97266 4.62891-3.6084Q4.08203-5.24414 4.08203-7.05078Q4.08203-8.86719 4.62891-10.5029Q5.17578-12.1387 6.17188-13.501Q7.16797-14.8633 8.52539-15.8594Q9.88281-16.8555 11.5186-17.4023Q13.1543-17.9492 14.9609-17.9492Q16.7773-17.9492 18.4131-17.4023Q20.0488-16.8555 21.4111-15.8594Q22.7734-14.8633 23.7744-13.501Q24.7754-12.1387 25.3223-10.5029Q25.8691-8.86719 25.8691-7.05078Q25.8691-5.24414 25.3223-3.6084Q24.7754-1.97266 23.7793-0.610352Q22.7832 0.751953 21.4209 1.74805Q20.0586 2.74414 18.4229 3.2959Q16.7871 3.84766 14.9707 3.84766ZM9.19922-7.05078Q9.19922-6.66992 9.45801-6.4209Q9.7168-6.17188 10.1172-6.17188L14.0625-6.17188L14.0625-2.2168Q14.0625-1.81641 14.3115-1.55762Q14.5605-1.29883 14.9512-1.29883Q15.3516-1.29883 15.6104-1.55273Q15.8691-1.80664 15.8691-2.2168L15.8691-6.17188L19.8242-6.17188Q20.2246-6.17188 20.4785-6.4209Q20.7324-6.66992 20.7324-7.05078Q20.7324-7.46094 20.4785-7.71484Q20.2246-7.96875 19.8242-7.96875L15.8691-7.96875L15.8691-11.9141Q15.8691-12.3242 15.6104-12.583Q15.3516-12.8418 14.9512-12.8418Q14.5605-12.8418 14.3115-12.583Q14.0625-12.3242 14.0625-11.9141L14.0625-7.96875L10.1172-7.96875Q9.70703-7.96875 9.45312-7.71484Q9.19922-7.46094 9.19922-7.05078Z"/>
  </g>
  <text style="stroke:none;fill:black;font-family:sans-serif;font-size:13;font-weight:bold;" transform="matrix(1 0 0 1 263 1953)">Design Variations</text>
  <text style="stroke:none;fill:black;font-family:sans-serif;font-size:13;" transform="matrix(1 0 0 1 263 1971)">Symbols are supported in up to nine weights and three scales.</text>
  <text style="stroke:none;fill:black;font-family:sans-serif;font-size:13;" transform="matrix(1 0 0 1 263 1989)">For optimal layout with text and other symbols, vertically align</text>
  <text style="stroke:none;fill:black;font-family:sans-serif;font-size:13;" transform="matrix(1 0 0 1 263 2007)">symbols with the adjacent text.</text>
  <line style="fill:none;stroke:#00AEEF;stroke-width:0.5;opacity:1.0;" x1="776" x2="776" y1="1919" y2="1933"/>
  <g transform="matrix(1 0 0 1 776 1933)">
   <path d="M3.31055 0.15625Q3.70117 0.15625 3.91602-0.00976562Q4.13086-0.175781 4.26758-0.585938L5.52734-4.0332L11.2891-4.0332L12.5488-0.585938Q12.6855-0.175781 12.9004-0.00976562Q13.1152 0.15625 13.4961 0.15625Q13.8867 0.15625 14.1162-0.0585938Q14.3457-0.273438 14.3457-0.644531Q14.3457-0.869141 14.2383-1.17188L9.6582-13.3691Q9.48242-13.8184 9.17969-14.043Q8.87695-14.2676 8.4082-14.2676Q7.5-14.2676 7.17773-13.3789L2.59766-1.16211Q2.49023-0.859375 2.49023-0.634766Q2.49023-0.263672 2.70996-0.0537109Q2.92969 0.15625 3.31055 0.15625ZM6.00586-5.51758L8.37891-12.0898L8.42773-12.0898L10.8008-5.51758Z"/>
  </g>
  <line style="fill:none;stroke:#00AEEF;stroke-width:0.5;opacity:1.0;" x1="793.197" x2="793.197" y1="1919" y2="1933"/>
  <text style="stroke:none;fill:black;font-family:sans-serif;font-size:13;font-weight:bold;" transform="matrix(1 0 0 1 776 1953)">Margins</text>
  <text style="stroke:none;fill:black;font-family:sans-serif;font-size:13;" transform="matrix(1 0 0 1 776 1971)">Leading and trailing margins on the left and right side of each symbol</text>
  <text style="stroke:none;fill:black;font-family:sans-serif;font-size:13;" transform="matrix(1 0 0 1 776 1989)">can be adjusted by modifying the x-location of the margin guidelines.</text>
  <text style="stroke:none;fill:black;font-family:sans-serif;font-size:13;" transform="matrix(1 0 0 1 776 2007)">Modifications are automatically applied proportionally to all</text>
  <text style="stroke:none;fill:black;font-family:sans-serif;font-size:13;" transform="matrix(1 0 0 1 776 2025)">scales and weights.</text>
  <g transform="matrix(1 0 0 1 1289 1933)">
   <path d="M2.8418 1.86523L4.54102 3.57422Q5.18555 4.22852 5.90332 4.17969Q6.62109 4.13086 7.31445 3.35938L18.0078-8.42773L17.041-9.4043L6.42578 2.27539Q6.16211 2.57812 5.89355 2.61719Q5.625 2.65625 5.27344 2.30469L4.10156 1.14258Q3.75 0.791016 3.79395 0.522461Q3.83789 0.253906 4.14062-0.0195312L15.6152-10.8203L14.6387-11.7871L3.04688-0.898438Q2.30469-0.214844 2.25098 0.498047Q2.19727 1.21094 2.8418 1.86523ZM9.25781-16.3281Q8.94531-16.0254 8.90625-15.6348Q8.86719-15.2441 9.04297-14.9512Q9.21875-14.6777 9.55566-14.541Q9.89258-14.4043 10.3809-14.5215Q11.4746-14.7754 12.5977-14.7314Q13.7207-14.6875 14.7949-13.9844L14.209-12.5293Q13.9551-11.9043 14.0674-11.4404Q14.1797-10.9766 14.5801-10.5664L16.875-8.25195Q17.2363-7.88086 17.5781-7.82227Q17.9199-7.76367 18.3398-7.8418L19.4043-8.03711L20.0684-7.36328L20.0293-6.80664Q20-6.43555 20.1221-6.12305Q20.2441-5.81055 20.6055-5.44922L21.3672-4.70703Q21.7285-4.3457 22.1533-4.33105Q22.5781-4.31641 22.9297-4.66797L25.8398-7.58789Q26.1914-7.93945 26.1816-8.35449Q26.1719-8.76953 25.8105-9.13086L25.0391-9.89258Q24.6875-10.2539 24.3799-10.3857Q24.0723-10.5176 23.7109-10.4883L23.1348-10.4395L22.4902-11.0742L22.7344-12.1973Q22.832-12.6172 22.6953-12.9834Q22.5586-13.3496 22.1191-13.7891L19.9219-15.9766Q18.6719-17.2168 17.2607-17.8369Q15.8496-18.457 14.4189-18.4814Q12.9883-18.5059 11.665-17.959Q10.3418-17.4121 9.25781-16.3281ZM10.752-15.957Q11.6602-16.6211 12.7002-16.9043Q13.7402-17.1875 14.8047-17.085Q15.8691-16.9824 16.8701-16.5137Q17.8711-16.0449 18.7012-15.2051L21.1328-12.793Q21.3086-12.6172 21.3525-12.4512Q21.3965-12.2852 21.3379-12.0312L21.0156-10.5469L22.5195-9.0625L23.5059-9.12109Q23.6914-9.13086 23.7891-9.09668Q23.8867-9.0625 24.0332-8.91602L24.6094-8.33984L22.168-5.89844L21.5918-6.47461Q21.4453-6.62109 21.4062-6.71875Q21.3672-6.81641 21.377-7.01172L21.4453-7.98828L19.9512-9.47266L18.4277-9.21875Q18.1836-9.16992 18.042-9.2041Q17.9004-9.23828 17.7148-9.41406L15.7129-11.416Q15.5176-11.5918 15.4932-11.7529Q15.4688-11.9141 15.5859-12.1875L16.4648-14.2773Q15.293-15.3711 13.8281-15.791Q12.3633-16.2109 10.8398-15.7617Q10.7227-15.7324 10.6885-15.8057Q10.6543-15.8789 10.752-15.957Z"/>
  </g>
  <text style="stroke:none;fill:black;font-family:sans-serif;font-size:13;font-weight:bold;" transform="matrix(1 0 0 1 1289 1953)">Exporting</text>
  <text style="stroke:none;fill:black;font-family:sans-serif;font-size:13;" transform="matrix(1 0 0 1 1289 1971)">Symbols should be outlined when exporting to ensure the</text>
  <text style="stroke:none;fill:black;font-family:sans-serif;font-size:13;" transform="matrix(1 0 0 1 1289 1989)">design is preserved when submitting to Xcode.</text>
  <text id="template-version" style="stroke:none;fill:black;font-family:sans-serif;font-size:13;text-anchor:end;" transform="matrix(1 0 0 1 3036 1933)">Template v.2.0</text>
  <text style="stroke:none;fill:black;font-family:sans-serif;font-size:13;text-anchor:end;" transform="matrix(1 0 0 1 3036 1951)">Requires Xcode 12 or greater</text>
  <text id="descriptive-name" style="stroke:none;fill:black;font-family:sans-serif;font-size:13;text-anchor:end;" transform="matrix(1 0 0 1 3036 1969)">Generated from figure.barre</text>
  <text style="stroke:none;fill:black;font-family:sans-serif;font-size:13;text-anchor:end;" transform="matrix(1 0 0 1 3036 1987)">Typeset at 100 points</text>
  <text style="stroke:none;fill:black;font-family:sans-serif;font-size:13;" transform="matrix(1 0 0 1 263 726)">Small</text>
  <text style="stroke:none;fill:black;font-family:sans-serif;font-size:13;" transform="matrix(1 0 0 1 263 1156)">Medium</text>
  <text style="stroke:none;fill:black;font-family:sans-serif;font-size:13;" transform="matrix(1 0 0 1 263 1586)">Large</text>
 </g>
 <g id="Guides">
  <g id="H-reference" style="fill:#27AAE1;stroke:none;" transform="matrix(1 0 0 1 339 696)">
   <path d="M0.993347 0L3.6377 0L29.3282-67.1326L30.0301-67.1326L30.0301-70.459L28.1227-70.459ZM11.6882-24.4797L46.9818-24.4797L46.2311-26.7288L12.4382-26.7288ZM55.1193 0L57.7637 0L30.6381-70.459L29.4327-70.459L29.4327-67.1326Z"/>
  </g>
  <line id="Baseline-S" style="fill:none;stroke:#27AAE1;opacity:1;stroke-width:0.5;" x1="263" x2="3036" y1="696" y2="696"/>
  <line id="Capline-S" style="fill:none;stroke:#27AAE1;opacity:1;stroke-width:0.5;" x1="263" x2="3036" y1="625.541" y2="625.541"/>
  <g id="H-reference" style="fill:#27AAE1;stroke:none;" transform="matrix(1 0 0 1 339 1126)">
   <path d="M0.993347 0L3.6377 0L29.3282-67.1326L30.0301-67.1326L30.0301-70.459L28.1227-70.459ZM11.6882-24.4797L46.9818-24.4797L46.2311-26.7288L12.4382-26.7288ZM55.1193 0L57.7637 0L30.6381-70.459L29.4327-70.459L29.4327-67.1326Z"/>
  </g>
  <line id="Baseline-M" style="fill:none;stroke:#27AAE1;opacity:1;stroke-width:0.5;" x1="263" x2="3036" y1="1126" y2="1126"/>
  <line id="Capline-M" style="fill:none;stroke:#27AAE1;opacity:1;stroke-width:0.5;" x1="263" x2="3036" y1="1055.54" y2="1055.54"/>
  <g id="H-reference" style="fill:#27AAE1;stroke:none;" transform="matrix(1 0 0 1 339 1556)">
   <path d="M0.993347 0L3.6377 0L29.3282-67.1326L30.0301-67.1326L30.0301-70.459L28.1227-70.459ZM11.6882-24.4797L46.9818-24.4797L46.2311-26.7288L12.4382-26.7288ZM55.1193 0L57.7637 0L30.6381-70.459L29.4327-70.459L29.4327-67.1326Z"/>
  </g>
  <line id="Baseline-L" style="fill:none;stroke:#27AAE1;opacity:1;stroke-width:0.5;" x1="263" x2="3036" y1="1556" y2="1556"/>
  <line id="Capline-L" style="fill:none;stroke:#27AAE1;opacity:1;stroke-width:0.5;" x1="263" x2="3036" y1="1485.54" y2="1485.54"/>
  <line id="left-margin" style="fill:none;stroke:#00AEEF;stroke-width:0.5;opacity:1.0;" x1="1379.05" x2="1379.05" y1="1030.79" y2="1150.12"/>
  <line id="right-margin" style="fill:none;stroke:#00AEEF;stroke-width:0.5;opacity:1.0;" x1="1520.63" x2="1520.63" y1="1030.79" y2="1150.12"/>
 </g>
 <g id="Symbols">
  <g id="Black-L" transform="matrix(1 0 0 1 2836.31 1556)">
   <path d="M84.1606-84.4218Q90.5629-84.4218 95.0958-88.9833Q99.6287-93.5448 99.6287-99.9303Q99.6287-106.355 95.0958-110.877Q90.5629-115.398 84.1606-115.398Q77.775-115.398 73.2135-110.877Q68.652-106.355 68.652-99.9303Q68.652-93.5448 73.2135-88.9833Q77.775-84.4218 84.1606-84.4218ZM88.497-20.8083L124.86-9.5583L159.558 6.1088Q163.414 7.86681 166.319 6.5091Q169.225 5.1514 170.483 2.24593Q171.741-0.659535 170.833-3.71483Q169.924-6.77013 166.209-8.44893L107.083-35.2116L107.083-66.5223Q107.083-67.6907 107.528-68.2238Q107.973-68.757 108.93-69.1435L126.962-76.5029Q128.509-77.1659 129.196-77.7068Q129.882-78.2477 130.999-79.562L149.951-101.622Q152.147-104.12 151.837-107.394Q151.527-110.669 149.031-112.785Q146.556-115.019 143.242-114.701Q139.927-114.383 137.81-111.945L119.895-91.0814L36.8539-57.163Q35.6471-56.6717 34.3168-55.9377Q32.9865-55.2037 31.9719-54.3024L72.4752-54.3024L76.4948-55.9514Q78.173-56.6464 78.173-55.0604L78.173-35.0153Q78.173-23.9906 88.497-20.8083ZM81.7211 35.3902Q80.4224 39.9829 83.2474 42.6289Q86.0725 45.2749 89.6065 45.2749Q92.0222 45.2749 94.1797 43.9166Q96.3372 42.5583 97.1754 39.5432L106.784 4.38566Q107.083 3.2722 107.083 2.2892L107.083-7.23311L89.3117-12.7104L91.0082 1.77148ZM21.7785-35.3236L70.5833-35.3236L70.5833-46.7334L21.7785-46.7334Q19.4251-46.7334 17.7546-45.0628Q16.084-43.3923 16.084-41.0181Q16.084-38.6648 17.7546-36.9942Q19.4251-35.3236 21.7785-35.3236ZM172.4-35.3236Q174.753-35.3236 176.424-36.9942Q178.094-38.6648 178.094-41.0181Q178.094-43.3923 176.424-45.0628Q174.753-46.7334 172.4-46.7334L115.842-46.7334L115.842-40.2654L125.362-35.3236Z"/>
  </g>
  <g id="Heavy-L" transform="matrix(1 0 0 1 2541.12 1556)">
   <path d="M82.8426-83.7373Q89.0486-83.7373 93.4538-88.162Q97.8591-92.5868 97.8591-98.8085Q97.8591-105.05 93.4538-109.438Q89.0486-113.825 82.8426-113.825Q76.6209-113.825 72.1962-109.438Q67.7714-105.05 67.7714-98.8085Q67.7714-92.5868 72.1962-88.162Q76.6209-83.7373 82.8426-83.7373ZM87.1698-21.2787L123.081-10.1826L157.35 5.30854Q161.041 6.99813 163.816 5.7022Q166.591 4.40627 167.799 1.63122Q169.007-1.14384 168.137-4.06184Q167.267-6.97984 163.713-8.59466L105.18-35.0782L105.18-66.1659Q105.18-67.5047 105.648-68.0425Q106.116-68.5803 107.166-69.0038L124.981-76.259Q126.533-76.9269 127.169-77.454Q127.805-77.9812 128.863-79.2083L147.566-100.984Q149.666-103.376 149.365-106.499Q149.064-109.623 146.678-111.643Q144.322-113.758 141.161-113.468Q138-113.177 135.974-110.836L118.248-90.1923L36.1914-56.6804Q34.8616-56.1295 33.5796-55.4052Q32.2975-54.6809 31.3563-53.812L69.8666-53.812L75.2571-56.0157Q77.1657-56.7935 77.1657-55.074L77.1657-35.0611Q77.1657-24.3744 87.1698-21.2787ZM80.6548 34.5137Q79.4063 38.8957 82.1008 41.4251Q84.7954 43.9544 88.1646 43.9544Q90.4706 43.9544 92.5366 42.6557Q94.6025 41.3569 95.4043 38.4791L104.9 3.76897Q105.18 2.72831 105.18 1.77346L105.18-8.3013L88.0771-13.5679L89.8287 1.28768ZM21.2093-36.2915L69.8958-36.2915L69.8958-46.5723L21.2093-46.5723Q19.0881-46.5723 17.5861-45.0702Q16.084-43.5681 16.084-41.4168Q16.084-39.2956 17.5861-37.7935Q19.0881-36.2915 21.2093-36.2915ZM169.923-36.2915Q172.044-36.2915 173.546-37.7935Q175.048-39.2956 175.048-41.4168Q175.048-43.5681 173.546-45.0702Q172.044-46.5723 169.923-46.5723L113.348-46.5723L113.348-40.571L120.622-36.2915Z"/>
  </g>
  <g id="Bold-L" transform="matrix(1 0 0 1 2246.43 1556)">
   <path d="M81.0123-82.8324Q86.9799-82.8324 91.2276-87.088Q95.4754-91.3437 95.4754-97.3581Q95.4754-103.377 91.2276-107.599Q86.9799-111.821 81.0123-111.821Q74.998-111.821 70.7423-107.599Q66.4866-103.377 66.4866-97.3581Q66.4866-91.3437 70.7423-87.088Q74.998-82.8324 81.0123-82.8324ZM85.3987-21.8477L120.689-10.9586L154.368 4.28756Q157.867 5.89256 160.488 4.66976Q163.109 3.44696 164.256 0.825817Q165.403-1.79533 164.579-4.55171Q163.755-7.30809 160.393-8.84601L102.71-34.9317L102.71-65.6682Q102.71-67.1922 103.201-67.7339Q103.692-68.2756 104.842-68.7378L122.358-75.8549Q123.911-76.5231 124.489-77.0348Q125.067-77.5465 126.055-78.6734L144.421-100.058Q146.407-102.327 146.117-105.274Q145.828-108.22 143.572-110.125Q141.354-112.101 138.374-111.842Q135.394-111.582 133.476-109.356L116.018-89.0264L35.3247-56.0737Q33.8411-55.4534 32.613-54.7332Q31.3849-54.013 30.5285-53.1752L66.6542-53.1752L73.6236-56.0181Q75.7793-56.8883 75.7793-55.0224L75.7793-35.115Q75.7793-24.8359 85.3987-21.8477ZM79.1916 33.3109Q78.0046 37.4466 80.5452 39.8375Q83.0858 42.2284 86.2626 42.2284Q88.4377 42.2284 90.396 40.9989Q92.3542 39.7695 93.1099 37.0532L102.452 2.95599Q102.71 2.00746 102.71 1.07609L102.71-9.60059L86.3989-14.6209L88.2122 0.628694ZM20.495-37.4678L68.8939-37.4678L68.8939-46.3279L20.495-46.3279Q18.6657-46.3279 17.3748-45.0369Q16.084-43.746 16.084-41.8788Q16.084-40.0494 17.3748-38.7586Q18.6657-37.4678 20.495-37.4678ZM166.604-37.4678Q168.433-37.4678 169.724-38.7586Q171.015-40.0494 171.015-41.8788Q171.015-43.746 169.724-45.0369Q168.433-46.3279 166.604-46.3279L110.192-46.3279L110.192-40.9476L114.952-37.4678Z"/>
  </g>
  <g id="Semibold-L" transform="matrix(1 0 0 1 1951.11 1556)">
   <path d="M79.7505-82.2085Q85.5537-82.2085 89.6929-86.3477Q93.8321-90.4868 93.8321-96.3582Q93.8321-102.223 89.6929-106.332Q85.5537-110.44 79.7505-110.44Q73.8791-110.44 69.74-106.332Q65.6008-102.223 65.6008-96.3582Q65.6008-90.4868 69.74-86.3477Q73.8791-82.2085 79.7505-82.2085ZM84.1778-22.2399L119.04-11.4935L152.313 3.5837Q155.679 5.13039 158.194 3.958Q160.709 2.78562 161.813 0.270578Q162.918-2.24447 162.126-4.88943Q161.334-7.53439 158.104-9.01929L101.007-34.8307L101.007-65.3251Q101.007-66.9768 101.514-67.5211Q102.021-68.0655 103.24-68.5544L120.55-75.5764Q122.103-76.2447 122.641-76.7458Q123.179-77.2468 124.12-78.3047L142.254-99.4203Q144.159-101.604 143.878-104.429Q143.596-107.253 141.431-109.078Q139.309-110.959 136.453-110.721Q133.598-110.483 131.754-108.336L114.481-88.2226L34.7271-55.6554Q33.1375-54.9873 31.9467-54.2699Q30.7558-53.5526 29.9578-52.7362L64.4395-52.7362L72.4974-56.0197Q74.8235-56.9537 74.8235-54.9867L74.8235-35.1522Q74.8235-25.154 84.1778-22.2399ZM78.1829 32.4818Q77.0383 36.4476 79.4728 38.7431Q81.9072 41.0385 84.9514 41.0385Q87.0363 41.0385 88.9203 39.8568Q90.8042 38.6751 91.5282 36.0702L100.765 2.39552Q101.007 1.51051 101.007 0.595323L101.007-10.4963L85.242-15.3468L87.0978 0.174397ZM20.0025-38.2787L68.2032-38.2787L68.2032-46.1594L20.0025-46.1594Q18.3744-46.1594 17.2292-45.014Q16.084-43.8687 16.084-42.1973Q16.084-40.5691 17.2292-39.4239Q18.3744-38.2787 20.0025-38.2787ZM164.316-38.2787Q165.943-38.2787 167.089-39.4239Q168.234-40.5691 168.234-42.1973Q168.234-43.8687 167.089-45.014Q165.943-46.1594 164.316-46.1594L108.017-46.1594L108.017-41.2072L111.044-38.2787Z"/>
  </g>
  <g id="Medium-L" transform="matrix(1 0 0 1 1655.45 1556)">
   <path d="M78.7938-81.7355Q84.4724-81.7355 88.5292-85.7863Q92.5861-89.837 92.5861-95.6Q92.5861-101.349 88.5292-105.37Q84.4724-109.392 78.7938-109.392Q73.0308-109.392 68.98-105.37Q64.9292-101.349 64.9292-95.6Q64.9292-89.837 68.98-85.7863Q73.0308-81.7355 78.7938-81.7355ZM83.252-22.5373L117.79-11.8992L150.755 3.05Q154.019 4.55247 156.454 3.41832Q158.889 2.28417 159.961-0.150427Q161.033-2.58502 160.265-5.1455Q159.498-7.70598 156.369-9.15068L99.715-34.7541L99.715-65.065Q99.715-66.8135 100.234-67.3598Q100.754-67.9062 102.025-68.4153L119.179-75.3652Q120.732-76.0336 121.24-76.5266Q121.748-77.0196 122.653-78.0251L140.61-98.9365Q142.455-101.056 142.18-103.788Q141.904-106.52 139.807-108.284Q137.757-110.093 134.997-109.871Q132.236-109.649 130.448-107.562L113.315-87.6131L34.274-55.3382Q32.6041-54.6338 31.4414-53.9187Q30.2787-53.2035 29.525-52.4033L62.7603-52.4033L71.6435-56.0209Q74.0988-57.0033 74.0988-54.9597L74.0988-35.1804Q74.0988-25.3952 83.252-22.5373ZM77.4181 31.8531Q76.3056 35.6902 78.6596 37.9132Q81.0136 40.1362 83.9572 40.1362Q85.9737 40.1362 87.8013 38.9908Q89.6289 37.8453 90.3288 35.3248L99.4855 1.97055Q99.715 1.13371 99.715 0.230788L99.715-11.1755L84.3648-15.8972L86.2528-0.170071ZM19.6292-38.8936L67.6795-38.8936L67.6795-46.0316L19.6292-46.0316Q18.1536-46.0316 17.1188-44.9966Q16.084-43.9617 16.084-42.4388Q16.084-40.9632 17.1188-39.9284Q18.1536-38.8936 19.6292-38.8936ZM162.58-38.8936Q164.056-38.8936 165.09-39.9284Q166.125-40.9632 166.125-42.4388Q166.125-43.9617 165.09-44.9966Q164.056-46.0316 162.58-46.0316L106.367-46.0316L106.367-41.4041L108.081-38.8936Z"/>
  </g>
  <g id="Regular-L" transform="matrix(1 0 0 1 1360.11 1556)">
   <path d="M77.5458-81.1185Q83.0619-81.1185 87.0113-85.054Q90.9608-88.9895 90.9608-94.6111Q90.9608-100.208 87.0113-104.117Q83.0619-108.026 77.5458-108.026Q71.9242-108.026 67.9887-104.117Q64.0532-100.208 64.0532-94.6111Q64.0532-88.9895 67.9887-85.054Q71.9242-81.1185 77.5458-81.1185ZM82.0444-22.9253L116.16-12.4283L148.722 2.35387Q151.855 3.79867 154.185 2.71438Q156.515 1.63009 157.545-0.699563Q158.576-3.02922 157.839-5.4795Q157.103-7.92979 154.105-9.32205L98.0305-34.6542L98.0305-64.7257Q98.0305-66.6004 98.5656-67.1494Q99.1007-67.6984 100.44-68.234L117.391-75.0897Q118.944-75.7582 119.413-76.2407Q119.881-76.7233 120.739-77.6604L138.466-98.3054Q140.233-100.341 139.965-102.952Q139.697-105.563 137.689-107.249Q135.734-108.963 133.097-108.762Q130.459-108.561 128.745-106.553L111.795-86.8182L33.683-54.9245Q31.9082-54.1729 30.7824-53.4605Q29.6565-52.7481 28.9606-51.9691L60.57-51.9691L70.5298-56.0225Q73.1535-57.068 73.1535-54.9245L73.1535-35.2172Q73.1535-25.7098 82.0444-22.9253ZM76.4205 31.033Q75.3499 34.7022 77.5989 36.8308Q79.8479 38.9594 82.6603 38.9594Q84.5877 38.9594 86.3418 37.8612Q88.096 36.7629 88.7645 34.3526L97.8167 1.41625Q98.0305 0.642218 98.0305-0.244691L98.0305-12.0614L83.2205-16.6151L85.1506-0.619376ZM19.1421-39.6957L66.9964-39.6957L66.9964-45.8649L19.1421-45.8649Q17.8655-45.8649 16.9747-44.974Q16.084-44.083 16.084-42.7538Q16.084-41.4772 16.9747-40.5864Q17.8655-39.6957 19.1421-39.6957ZM160.317-39.6957Q161.593-39.6957 162.484-40.5864Q163.375-41.4772 163.375-42.7538Q163.375-44.083 162.484-44.974Q161.593-45.8649 160.317-45.8649L104.215-45.8649L104.215-41.6608L104.215-39.6957Z"/>
  </g>
  <g id="Light-L" transform="matrix(1 0 0 1 1065.64 1556)">
   <path d="M75.0075-80.126Q80.3899-80.126 84.2345-83.9471Q88.0791-87.7682 88.0791-93.2179Q88.0791-98.6806 84.2345-102.485Q80.3899-106.289 75.0075-106.289Q69.5578-106.289 65.7367-102.485Q61.9157-98.6806 61.9157-93.2179Q61.9157-87.7682 65.7367-83.9471Q69.5578-80.126 75.0075-80.126ZM80.0021-23.2306L113.297-12.9817L145.077 1.457Q148.153 2.8444 150.425 1.78881Q152.698 0.733217 153.69-1.5392Q154.682-3.81162 153.965-6.20467Q153.248-8.59771 150.345-9.95182L95.5878-34.6735L95.5878-64.0196Q95.5878-65.8562 96.1036-66.3956Q96.6194-66.935 97.9402-67.4516L114.49-74.1547Q116.005-74.785 116.464-75.2676Q116.923-75.7501 117.761-76.668L135.069-96.7977Q136.778-98.7951 136.52-101.349Q136.262-103.903 134.311-105.532Q132.394-107.207 129.824-107.006Q127.253-106.805 125.577-104.855L109.027-85.5968L32.7861-54.4474Q30.8966-53.6765 29.7707-52.9165Q28.6448-52.1565 27.9682-51.3393L58.4707-51.3393L68.755-55.5261Q71.3023-56.5716 71.3023-54.4474L71.3023-35.2364Q71.3023-25.9388 80.0021-23.2306ZM74.4931 29.449Q73.4606 33.0418 75.6522 35.1132Q77.8438 37.1846 80.5992 37.1846Q82.4691 37.1846 84.1851 36.1054Q85.9011 35.0263 86.5314 32.673L95.3929 0.538292Q95.5878-0.159421 95.5878-1.10341L95.5878-12.8056L81.102-17.2831L83.032-1.45917ZM18.5887-40.3636L65.336-40.3636L65.336-45.4071L18.5887-45.4071Q17.541-45.4071 16.8125-44.6782Q16.084-43.9493 16.084-42.8683Q16.084-41.8206 16.8125-41.0921Q17.541-40.3636 18.5887-40.3636ZM156.405-40.3636Q157.452-40.3636 158.18-41.0921Q158.909-41.8206 158.909-42.8683Q158.909-43.9493 158.18-44.6782Q157.452-45.4071 156.405-45.4071L101.6-45.4071L101.6-41.909L101.6-40.3636Z"/>
  </g>
  <g id="Thin-L" transform="matrix(1 0 0 1 771.879 1556)">
   <path d="M71.6504-78.8135Q76.8559-78.8135 80.5618-82.4831Q84.2678-86.1528 84.2678-91.3752Q84.2678-96.6611 80.5618-100.327Q76.8559-103.993 71.6504-103.993Q66.428-103.993 62.7583-100.327Q59.0887-96.6611 59.0887-91.3752Q59.0887-86.1528 62.7583-82.4831Q66.428-78.8135 71.6504-78.8135ZM77.3011-23.6343L109.511-13.7137L140.256 0.270809Q143.256 1.5823 145.453 0.564666Q147.649-0.452971 148.591-2.64969Q149.533-4.84641 148.841-7.16375Q148.149-9.4811 145.373-10.7847L92.357-34.6989L92.357-63.0857Q92.357-64.8719 92.8474-65.3985Q93.3378-65.9252 94.6336-66.4168L110.653-72.9181Q112.118-73.4979 112.564-73.9804Q113.01-74.4629 113.824-75.3554L130.576-94.8036Q132.209-96.7506 131.964-99.2288Q131.718-101.707 129.843-103.26Q127.977-104.885 125.495-104.684Q123.013-104.483 121.387-102.609L105.367-83.9815L31.5999-53.8163Q29.5586-53.02 28.4327-52.197Q27.3068-51.3741 26.6556-50.5064L55.6941-50.5064L66.4076-54.8696Q68.854-55.9151 68.854-53.8163L68.854-35.2618Q68.854-26.2416 77.3011-23.6343ZM71.9438 27.354Q70.9619 30.8459 73.0776 32.8415Q75.1933 34.8372 77.8731 34.8372Q79.6671 34.8372 81.3326 33.7833Q82.9982 32.7294 83.578 30.4516L92.1871-0.622875Q92.357-1.21965 92.357-2.23913L92.357-13.7899L78.3-18.1665L80.2301-2.56987ZM17.8567-41.247L63.14-41.247L63.14-44.8014L17.8567-44.8014Q17.1118-44.8014 16.5979-44.2869Q16.084-43.7724 16.084-43.0197Q16.084-42.2748 16.5979-41.7609Q17.1118-41.247 17.8567-41.247ZM151.231-41.247Q151.974-41.247 152.488-41.7609Q153.002-42.2748 153.002-43.0197Q153.002-43.7724 152.488-44.2869Q151.974-44.8014 151.231-44.8014L98.1424-44.8014L98.1424-42.2373L98.1424-41.247Z"/>
  </g>
  <g id="Ultralight-L" transform="matrix(1 0 0 1 476.68 1556)">
   <path d="M69.9309-78.1412Q75.0458-78.1412 78.6807-81.7333Q82.3156-85.3254 82.3156-90.4314Q82.3156-95.6267 78.6807-99.2214Q75.0458-102.816 69.9309-102.816Q64.8249-102.816 61.2328-99.2214Q57.6407-95.6267 57.6407-90.4314Q57.6407-85.3254 61.2328-81.7333Q64.8249-78.1412 69.9309-78.1412ZM75.9176-23.8411L107.571-14.0886L137.786-0.336751Q140.748 0.93586 142.906-0.0623353Q145.064-1.06053 145.979-3.21847Q146.895-5.37642 146.216-7.65499Q145.537-9.93357 142.826-11.2114L90.7023-34.7119L90.7023-62.6074Q90.7023-64.3677 91.1796-64.8879Q91.657-65.408 92.9399-65.8868L108.688-72.2846Q110.127-72.8387 110.567-73.3212Q111.006-73.8037 111.807-74.6831L128.275-93.7822Q129.869-95.7034 129.63-98.1428Q129.39-100.582 127.555-102.096Q125.714-103.696 123.277-103.494Q120.841-103.293 119.241-101.458L103.493-83.1541L30.9924-53.4931Q28.8732-52.6837 27.7474-51.8285Q26.6215-50.9733 25.9833-50.0798L54.272-50.0798L65.2053-54.5334Q67.6-55.5789 67.6-53.4931L67.6-35.2749Q67.6-26.3967 75.9176-23.8411ZM70.6381 26.2809Q69.682 29.7211 71.7588 31.678Q73.8356 33.6349 76.4768 33.6349Q78.232 33.6349 79.8716 32.5939Q81.5113 31.5529 82.0653 29.3138L90.5452-1.21762Q90.7023-1.7627 90.7023-2.82084L90.7023-14.2941L76.8648-18.6189L78.7949-3.13877ZM17.4818-41.6994L62.0153-41.6994L62.0153-44.4913L17.4818-44.4913Q16.892-44.4913 16.488-44.0865Q16.084-43.6818 16.084-43.0972Q16.084-42.5074 16.488-42.1034Q16.892-41.6994 17.4818-41.6994ZM148.58-41.6994Q149.169-41.6994 149.573-42.1034Q149.977-42.5074 149.977-43.0972Q149.977-43.6818 149.573-44.0865Q149.169-44.4913 148.58-44.4913L96.3712-44.4913L96.3712-42.4054L96.3712-41.6994Z"/>
  </g>
  <g id="Black-M" transform="matrix(1 0 0 1 2857.17 1126)">
   <path d="M65.9915-73.7947Q71.1023-73.7947 74.7096-77.4307Q78.3169-81.0667 78.3169-86.1314Q78.3169-91.2474 74.7096-94.8521Q71.1023-98.4568 65.9915-98.4568Q60.9268-98.4568 57.2908-94.8521Q53.6548-91.2474 53.6548-86.1314Q53.6548-81.0667 57.2908-77.4307Q60.9268-73.7947 65.9915-73.7947ZM69.4263-23.6939L97.8751-14.8794L125.02-2.63673Q128.141-1.2237 130.496-2.32478Q132.852-3.42586 133.865-5.78117Q134.878-8.13648 134.143-10.6138Q133.408-13.0911 130.406-14.4415L84.2654-35.3329L84.2654-59.6839Q84.2654-60.4376 84.5876-60.8453Q84.9098-61.253 85.5696-61.5181L99.6719-67.2887Q100.861-67.7929 101.435-68.2238Q102.009-68.6548 102.923-69.7453L117.763-87.0111Q119.539-89.0313 119.292-91.6903Q119.046-94.3493 117.025-96.0635Q115.01-97.8915 112.32-97.6216Q109.63-97.3516 107.916-95.3882L93.9278-79.099L29-52.5724Q28.1553-52.2403 27.0832-51.657Q26.0111-51.0736 25.1646-50.3421L58.107-50.3421L60.0871-51.1611Q61.1788-51.6285 61.1788-50.5169L61.1788-35.0268Q61.1788-26.2235 69.4263-23.6939ZM63.968 20.0213Q62.9239 23.7501 65.2169 25.8926Q67.5099 28.035 70.3818 28.035Q72.3399 28.035 74.0849 26.9341Q75.8299 25.8331 76.5054 23.387L84.0211-4.12692Q84.2654-5.04179 84.2654-5.83528L84.2654-12.7223L69.9676-17.1365L71.2345-6.26128ZM17.2869-34.5612L55.0497-34.5612L55.0497-44.2185L17.2869-44.2185Q15.2951-44.2185 13.878-42.8014Q12.4609-41.3843 12.4609-39.3871Q12.4609-37.3953 13.878-35.9782Q15.2951-34.5612 17.2869-34.5612ZM135.164-34.5612Q137.156-34.5612 138.573-35.9782Q139.99-37.3953 139.99-39.3871Q139.99-41.3843 138.573-42.8014Q137.156-44.2185 135.164-44.2185L91.5362-44.2185L91.5362-38.9021L100.843-34.5612Z"/>
  </g>
  <g id="Heavy-M" transform="matrix(1 0 0 1 2561.75 1126)">
   <path d="M64.9373-73.2171Q69.8684-73.2171 73.3606-76.73Q76.8528-80.2428 76.8528-85.1632Q76.8528-90.113 73.3606-93.5959Q69.8684-97.0788 64.9373-97.0788Q60.0169-97.0788 56.504-93.5959Q52.9912-90.113 52.9912-85.1632Q52.9912-80.2428 56.504-76.73Q60.0169-73.2171 64.9373-73.2171ZM68.3173-24.1255L96.4001-15.4386L123.198-3.3363Q126.163-1.98486 128.396-3.02819Q130.629-4.07153 131.597-6.30463Q132.564-8.53774 131.865-10.8861Q131.167-13.2345 128.312-14.5259L82.6311-35.2007L82.6311-59.4007Q82.6311-60.3244 82.9777-60.7376Q83.3243-61.1507 84.0759-61.4538L98.0031-67.1365Q99.2011-67.6491 99.7264-68.0665Q100.252-68.484 101.109-69.4911L115.745-86.5262Q117.433-88.4469 117.194-90.9635Q116.955-93.4801 115.037-95.1057Q113.135-96.8208 110.588-96.5778Q108.041-96.3348 106.413-94.46L92.5734-78.3425L28.4352-52.1447Q27.4808-51.7561 26.4558-51.1866Q25.4309-50.617 24.6543-49.9209L55.7506-49.9209L59.0408-51.2698Q60.3649-51.818 60.3649-50.5743L60.3649-35.0698Q60.3649-26.5775 68.3173-24.1255ZM63.1035 19.3105Q62.1049 22.8405 64.2757 24.8742Q66.4464 26.9079 69.1624 26.9079Q71.0186 26.9079 72.6776 25.8634Q74.3366 24.819 74.9801 22.5017L82.4028-4.64878Q82.6311-5.49953 82.6311-6.26024L82.6311-13.6979L68.9561-17.9132L70.2769-6.65675ZM16.7815-35.4456L54.5308-35.4456L54.5308-44.1032L16.7815-44.1032Q14.9956-44.1032 13.7283-42.8359Q12.4609-41.5685 12.4609-39.7662Q12.4609-37.9803 13.7283-36.713Q14.9956-35.4456 16.7815-35.4456ZM133.104-35.4456Q134.889-35.4456 136.157-36.713Q137.424-37.9803 137.424-39.7662Q137.424-41.5685 136.157-42.8359Q134.889-44.1032 133.104-44.1032L89.3399-44.1032L89.3399-39.1779L96.4502-35.4456Z"/>
  </g>
  <g id="Bold-M" transform="matrix(1 0 0 1 2266.47 1126)">
   <path d="M63.758-72.5709Q68.4882-72.5709 71.8517-75.9461Q75.2151-79.3212 75.2151-84.0801Q75.2151-88.8441 71.8517-92.1907Q68.4882-95.5373 63.758-95.5373Q58.999-95.5373 55.6239-92.1907Q52.2488-88.8441 52.2488-84.0801Q52.2488-79.3212 55.6239-75.9461Q58.999-72.5709 63.758-72.5709ZM67.0767-24.6084L94.7501-16.0642L121.159-4.11887Q123.95-2.83632 126.046-3.81506Q128.143-4.7938 129.059-6.8902Q129.976-8.98661 129.318-11.1907Q128.659-13.3949 125.97-14.6203L80.8029-35.0529L80.8029-59.0839Q80.8029-60.1978 81.1767-60.617Q81.5506-61.0363 82.4049-61.3817L96.1364-66.9662Q97.3437-67.4881 97.8148-67.8905Q98.286-68.2929 99.0804-69.2067L113.487-85.9837Q115.076-87.7932 114.846-90.1505Q114.616-92.5078 112.812-94.0343Q111.036-95.6231 108.65-95.4103Q106.265-95.1974 104.733-93.4216L91.0584-77.4962L27.8034-51.6662Q26.7262-51.2145 25.754-50.6604Q24.7819-50.1063 24.0836-49.4497L53.1147-49.4497L57.8704-51.3913Q59.4544-52.03 59.4544-50.6384L59.4544-35.1179Q59.4544-26.9736 67.0767-24.6084ZM62.1363 18.5154Q61.1886 21.8229 63.2227 23.735Q65.2568 25.6471 67.7984 25.6471Q69.5404 25.6471 71.1033 24.6658Q72.6662 23.6844 73.2738 21.5114L80.5925-5.23256Q80.8029-6.01157 80.8029-6.73562L80.8029-14.7892L67.8246-18.782L69.2057-7.09915ZM16.2162-36.4351L53.9504-36.4351L53.9504-43.9743L16.2162-43.9743Q14.6606-43.9743 13.5608-42.8744Q12.4609-41.7746 12.4609-40.1904Q12.4609-38.6347 13.5608-37.5349Q14.6606-36.4351 16.2162-36.4351ZM130.799-36.4351Q132.354-36.4351 133.454-37.5349Q134.554-38.6347 134.554-40.1904Q134.554-41.7746 133.454-42.8744Q132.354-43.9743 130.799-43.9743L86.883-43.9743L86.883-39.4864L91.5363-36.4351Z"/>
  </g>
  <g id="Semibold-M" transform="matrix(1 0 0 1 1970.75 1126)">
   <path d="M62.945-72.1255Q67.5367-72.1255 70.8114-75.4056Q74.0861-78.6858 74.0861-83.3335Q74.0861-87.9694 70.8114-91.222Q67.5367-94.4746 62.945-94.4746Q58.2973-94.4746 55.0171-91.222Q51.737-87.9694 51.737-83.3335Q51.737-78.6858 55.0171-75.4056Q58.2973-72.1255 62.945-72.1255ZM66.2214-24.9413L93.6126-16.4955L119.754-4.65836Q122.424-3.42332 124.427-4.35752Q126.429-5.29173 127.31-7.29389Q128.191-9.29605 127.561-11.4008Q126.931-13.5054 124.355-14.6854L79.5425-34.9509L79.5425-58.8654Q79.5425-60.1105 79.9352-60.534Q80.3278-60.9574 81.2529-61.3321L94.8495-66.8488Q96.0632-67.3772 96.497-67.7692Q96.9308-68.1612 97.6817-69.0106L111.931-85.6097Q113.451-87.3425 113.228-89.59Q113.004-91.8374 111.278-93.2957Q109.59-94.7974 107.315-94.6054Q105.04-94.4133 103.574-92.7058L90.0139-76.9128L27.3678-51.3363Q26.206-50.841 25.2702-50.2976Q24.3344-49.7542 23.6901-49.1248L51.2975-49.1248L57.0636-51.4752Q58.8267-52.1762 58.8267-50.6827L58.8267-35.151Q58.8267-27.2467 66.2214-24.9413ZM61.4695 17.9673Q60.557 21.1214 62.4968 22.9496Q64.4366 24.7779 66.858 24.7779Q68.5214 24.7779 70.018 23.8401Q71.5146 22.9023 72.0974 20.8287L79.3445-5.63501Q79.5425-6.36458 79.5425-7.06334L79.5425-15.5415L67.0446-19.381L68.4673-7.40414ZM15.8265-37.1172L53.5502-37.1172L53.5502-43.8854L15.8265-43.8854Q14.4296-43.8854 13.4453-42.901Q12.4609-41.9166 12.4609-40.4828Q12.4609-39.0859 13.4453-38.1015Q14.4296-37.1172 15.8265-37.1172ZM129.21-37.1172Q130.607-37.1172 131.591-38.1015Q132.576-39.0859 132.576-40.4828Q132.576-41.9166 131.591-42.901Q130.607-43.8854 129.21-43.8854L85.1892-43.8854L85.1892-39.6991L88.1487-37.1172Z"/>
  </g>
  <g id="Medium-M" transform="matrix(1 0 0 1 1674.79 1126)">
   <path d="M62.3285-71.7877Q66.8152-71.7877 70.0226-74.9959Q73.23-78.204 73.23-82.7673Q73.23-87.3061 70.0226-90.4874Q66.8152-93.6688 62.3285-93.6688Q57.7652-93.6688 54.5571-90.4874Q51.3489-87.3061 51.3489-82.7673Q51.3489-78.204 54.5571-74.9959Q57.7652-71.7877 62.3285-71.7877ZM65.5729-25.1937L92.7501-16.8225L118.688-5.06743Q121.268-3.8684 123.198-4.76884Q125.129-5.66928 125.984-7.59999Q126.838-9.53069 126.229-11.56Q125.62-13.5893 123.131-14.7347L78.5869-34.8737L78.5869-58.6998Q78.5869-60.0443 78.9938-60.471Q79.4007-60.8976 80.3794-61.2944L93.8737-66.7598Q95.0923-67.2931 95.4978-67.6772Q95.9032-68.0613 96.6212-68.862L110.751-85.3261Q112.219-87.0008 112-89.165Q111.781-91.3291 110.115-92.7356Q108.493-94.1714 106.302-93.9951Q104.111-93.8187 102.696-92.163L89.2219-76.4704L27.0375-51.0862Q25.8116-50.5579 24.9034-50.0226Q23.9952-49.4873 23.3917-48.8785L49.9196-48.8785L56.4518-51.5387Q58.3507-52.287 58.3507-50.7162L58.3507-35.1762Q58.3507-27.4537 65.5729-25.1937ZM60.964 17.5517Q60.0781 20.5895 61.9464 22.3541Q63.8147 24.1188 66.145 24.1188Q67.7487 24.1188 69.195 23.214Q70.6414 22.3092 71.2055 20.311L78.3982-5.94017Q78.5869-6.63224 78.5869-7.31184L78.5869-16.112L66.4532-19.8352L67.9074-7.63539ZM15.531-37.6344L53.2468-37.6344L53.2468-43.8181L15.531-43.8181Q14.2545-43.8181 13.3577-42.9212Q12.4609-42.0244 12.4609-40.7045Q12.4609-39.4279 13.3577-38.5312Q14.2545-37.6344 15.531-37.6344ZM128.005-37.6344Q129.282-37.6344 130.179-38.5312Q131.075-39.4279 131.075-40.7045Q131.075-42.0244 130.179-42.9212Q129.282-43.8181 128.005-43.8181L83.9049-43.8181L83.9049-39.8604L85.5801-37.6344Z"/>
  </g>
  <g id="Regular-M" transform="matrix(1 0 0 1 1379.05 1126)">
   <path d="M61.5245-71.3471Q65.8742-71.3471 68.9937-74.4614Q72.1133-77.5757 72.1133-82.0289Q72.1133-86.4409 68.9937-89.5293Q65.8742-92.6177 61.5245-92.6177Q57.0712-92.6177 53.957-89.5293Q50.8427-86.4409 50.8427-82.0289Q50.8427-77.5757 53.957-74.4614Q57.0712-71.3471 61.5245-71.3471ZM64.727-25.523L91.6251-17.249L117.298-5.601Q119.759-4.44894 121.596-5.30534Q123.434-6.16174 124.254-7.99924Q125.074-9.83674 124.492-11.7677Q123.911-13.6986 121.534-14.799L77.3404-34.7728L77.3404-58.4838Q77.3404-59.958 77.7659-60.3888Q78.1914-60.8196 79.2401-61.2453L92.6009-66.6437Q93.8259-67.1834 94.1944-67.5572Q94.5629-67.931 95.2378-68.668L109.211-84.9562Q110.613-86.555 110.4-88.6106Q110.187-90.6662 108.599-92.0051Q107.062-93.3548 104.981-93.199Q102.899-93.0432 101.55-91.455L88.1889-75.8934L26.6067-50.76Q25.2972-50.1886 24.4249-49.6638Q23.5526-49.139 23.0025-48.5572L48.1224-48.5572L55.6538-51.6216Q57.7299-52.4315 57.7299-50.76L57.7299-35.209Q57.7299-27.7237 64.727-25.523ZM60.3045 17.0095Q59.4534 19.8957 61.2285 21.5774Q63.0036 23.2591 65.215 23.2591Q66.7409 23.2591 68.1216 22.3974Q69.5024 21.5357 70.0421 19.6358L77.1639-6.3382Q77.3404-6.98136 77.3404-7.63596L77.3404-16.8561L65.6817-20.4276L67.177-7.93702ZM15.1456-38.309L52.851-38.309L52.851-43.7302L15.1456-43.7302Q14.0261-43.7302 13.2435-42.9475Q12.4609-42.1648 12.4609-40.9937Q12.4609-39.8741 13.2435-39.0916Q14.0261-38.309 15.1456-38.309ZM126.434-38.309Q127.553-38.309 128.336-39.0916Q129.118-39.8741 129.118-40.9937Q129.118-42.1648 128.336-42.9475Q127.553-43.7302 126.434-43.7302L82.2297-43.7302L82.2297-40.0707L82.2297-38.309Z"/>
  </g>
  <g id="Light-M" transform="matrix(1 0 0 1 1084.35 1126)">
   <path d="M59.2487-70.4574Q63.4786-70.4574 66.5041-73.469Q69.5297-76.4806 69.5297-80.7798Q69.5297-85.0719 66.5041-88.0663Q63.4786-91.0607 59.2487-91.0607Q54.9496-91.0607 51.938-88.0663Q48.9264-85.0719 48.9264-80.7798Q48.9264-76.4806 51.938-73.469Q54.9496-70.4574 59.2487-70.4574ZM62.896-25.7966L89.0585-17.7452L114.03-6.40509Q116.439-5.3045 118.225-6.13517Q120.012-6.96584 120.797-8.75202Q121.583-10.5382 121.019-12.4178Q120.455-14.2975 118.163-15.3637L75.1503-34.7901L75.1503-57.8507Q75.1503-59.2907 75.5586-59.7129Q75.9668-60.1351 76.9986-60.5438L90.0001-65.8054Q91.1908-66.3109 91.5507-66.6847Q91.9106-67.0585 92.5685-67.7783L106.166-83.6045Q107.515-85.1691 107.311-87.1733Q107.107-89.1776 105.57-90.4651Q104.068-91.7805 102.046-91.6247Q100.025-91.469 98.7094-89.9322L85.7079-74.7984L25.8026-50.3322Q24.3901-49.7435 23.5179-49.1761Q22.6456-48.6086 22.1128-47.9926L46.2403-47.9926L54.0625-51.1766Q56.0703-51.9865 56.0703-50.3322L56.0703-35.2262Q56.0703-27.929 62.896-25.7966ZM58.5765 15.5894Q57.7595 18.4071 59.4832 20.0375Q61.2068 21.6679 63.367 21.6679Q64.8415 21.6679 66.188 20.8233Q67.5346 19.9787 68.04 18.13L74.9908-7.12533Q75.1503-7.70007 75.1503-8.40584L75.1503-17.5233L63.7823-21.0264L65.2776-8.68995ZM14.6494-38.9078L51.3624-38.9078L51.3624-43.3196L14.6494-43.3196Q13.7351-43.3196 13.098-42.6823Q12.4609-42.045 12.4609-41.0963Q12.4609-40.182 13.098-39.5449Q13.7351-38.9078 14.6494-38.9078ZM122.926-38.9078Q123.84-38.9078 124.477-39.5449Q125.114-40.182 125.114-41.0963Q125.114-42.045 124.477-42.6823Q123.84-43.3196 122.926-43.3196L79.8856-43.3196L79.8856-40.2932L79.8856-38.9078Z"/>
  </g>
  <g id="Thin-M" transform="matrix(1 0 0 1 790.282 1126)">
   <path d="M56.2389-69.2806Q60.3102-69.2806 63.2114-72.1565Q66.1126-75.0324 66.1126-79.1277Q66.1126-83.2613 63.2114-86.1314Q60.3102-89.0014 56.2389-89.0014Q52.1436-89.0014 49.2677-86.1314Q46.3918-83.2613 46.3918-79.1277Q46.3918-75.0324 49.2677-72.1565Q52.1436-69.2806 56.2389-69.2806ZM60.4744-26.1586L85.6639-18.4015L109.708-7.46857Q112.049-6.43604 113.767-7.23268Q115.485-8.02932 116.226-9.74763Q116.966-11.4659 116.425-13.2777Q115.883-15.0895 113.705-16.1104L72.2538-34.8129L72.2538-57.0135Q72.2538-58.4082 72.6392-58.819Q73.0247-59.2298 74.034-59.6161L86.5602-64.6967Q87.7057-65.1569 88.0542-65.5307Q88.4027-65.9045 89.0382-66.6015L102.138-81.8167Q103.419-83.336 103.226-85.2724Q103.033-87.2088 101.564-88.4282Q100.107-89.6984 98.1651-89.5426Q96.223-89.3869 94.9528-87.9182L82.4266-73.3501L24.7391-49.7664Q23.1905-49.155 22.3183-48.531Q21.446-47.9071 20.936-47.2458L43.751-47.2458L51.958-50.588Q53.8753-51.3979 53.8753-49.7664L53.8753-35.249Q53.8753-28.2005 60.4744-26.1586ZM56.291 13.7111Q55.5193 16.4383 57.1748 18.0008Q58.8304 19.5634 60.923 19.5634Q62.3294 19.5634 63.6307 18.7414Q64.932 17.9194 65.3921 16.1384L72.1167-8.16638Q72.2538-8.65062 72.2538-9.42408L72.2538-18.4058L61.2702-21.8184L62.7655-9.68575ZM13.9931-39.6998L49.3937-39.6998L49.3937-42.7767L13.9931-42.7767Q13.3504-42.7767 12.9056-42.3315Q12.4609-41.8864 12.4609-41.232Q12.4609-40.5892 12.9056-40.1445Q13.3504-39.6998 13.9931-39.6998ZM118.287-39.6998Q118.929-39.6998 119.374-40.1445Q119.819-40.5892 119.819-41.232Q119.819-41.8864 119.374-42.3315Q118.929-42.7767 118.287-42.7767L76.7853-42.7767L76.7853-40.5875L76.7853-39.6998Z"/>
  </g>
  <g id="Ultralight-M" transform="matrix(1 0 0 1 494.927 1126)">
   <path d="M54.6973-68.6779Q58.6874-68.6779 61.5249-71.4842Q64.3625-74.2906 64.3625-78.2815Q64.3625-82.3339 61.5249-85.1403Q58.6874-87.9467 54.6973-87.9467Q50.7063-87.9467 47.9-85.1403Q45.0936-82.3339 45.0936-78.2815Q45.0936-74.2906 47.9-71.4842Q50.7063-68.6779 54.6973-68.6779ZM59.2341-26.344L83.9252-18.7376L107.494-8.01328Q109.8-7.0156 111.484-7.79481Q113.167-8.57402 113.884-10.2576Q114.602-11.9411 114.072-13.7181Q113.542-15.4951 111.422-16.4929L70.7702-34.8246L70.7702-56.5847Q70.7702-57.9562 71.144-58.3612Q71.5177-58.7661 72.5155-59.1409L84.7983-64.1288Q85.9207-64.5658 86.2633-64.9397Q86.6059-65.3135 87.23-65.9988L100.074-80.901Q101.321-82.3972 101.134-84.2988Q100.947-86.2004 99.5127-87.385Q98.0788-88.632 96.1773-88.4762Q94.2757-88.3204 93.0287-86.8866L80.7459-72.6083L24.1944-49.4766Q22.5761-48.8535 21.7039-48.2007Q20.8316-47.5478 20.3332-46.8634L42.4759-46.8634L50.8801-50.2865Q52.751-51.0965 52.751-49.4766L52.751-35.2607Q52.751-28.3395 59.2341-26.344ZM55.1203 12.749Q54.3718 15.4299 55.9925 16.9577Q57.6133 18.4855 59.6711 18.4855Q61.0427 18.4855 62.3208 17.6751Q63.5989 16.8647 64.0359 15.1183L70.6446-8.69959Q70.7702-9.13749 70.7702-9.94561L70.7702-18.8578L59.9835-22.224L61.4788-10.1958ZM13.657-40.1055L48.3853-40.1055L48.3853-42.4986L13.657-42.4986Q13.1533-42.4986 12.8071-42.1519Q12.4609-41.8052 12.4609-41.3016Q12.4609-40.7978 12.8071-40.4517Q13.1533-40.1055 13.657-40.1055ZM115.911-40.1055Q116.414-40.1055 116.76-40.4517Q117.106-40.7978 117.106-41.3016Q117.106-41.8052 116.76-42.1519Q116.414-42.4986 115.911-42.4986L75.1973-42.4986L75.1973-40.7382L75.1973-40.1055Z"/>
  </g>
  <g id="Black-S" transform="matrix(1 0 0 1 2873.39 696)">
   <path d="M51.9043-65.5762Q55.957-65.5762 58.8135-68.457Q61.6699-71.3379 61.6699-75.3418Q61.6699-79.3945 58.8135-82.251Q55.957-85.1074 51.9043-85.1074Q47.9004-85.1074 45.0195-82.251Q42.1387-79.3945 42.1387-75.3418Q42.1387-71.3379 45.0195-68.457Q47.9004-65.5762 51.9043-65.5762ZM54.6387-26.0742L77.002-19.1406L98.3398-9.52148Q100.83-8.39844 102.71-9.27734Q104.59-10.1562 105.396-12.0361Q106.201-13.916 105.615-15.8936Q105.029-17.8711 102.637-18.9453L66.4062-35.3516L66.4062-54.4434Q66.4062-54.9805 66.6504-55.2979Q66.8945-55.6152 67.3828-55.8105L78.4668-60.3516Q79.3945-60.7422 79.8584-61.084Q80.3223-61.4258 81.0547-62.3047L92.7246-75.8789Q94.1406-77.4902 93.9453-79.6143Q93.75-81.7383 92.1387-83.1055Q90.5273-84.5703 88.3789-84.3506Q86.2305-84.1309 84.8633-82.5684L73.877-69.7754L22.8516-48.9258Q22.2168-48.6816 21.3623-48.2178Q20.5078-47.7539 19.8242-47.168L46.1426-47.168L47.3145-47.6562Q48.0957-47.998 48.0957-47.168L48.0957-35.0586Q48.0957-28.0762 54.6387-26.0742ZM50.293 8.20312Q49.4629 11.1816 51.2939 12.8906Q53.125 14.5996 55.4199 14.5996Q56.9824 14.5996 58.374 13.7207Q59.7656 12.8418 60.3027 10.8887L66.2109-10.7422Q66.4062-11.4746 66.4062-12.1094L66.4062-17.334L55.0293-20.8496L56.0059-12.4512ZM13.6719-34.4727L43.2129-34.4727L43.2129-42.2852L13.6719-42.2852Q12.0605-42.2852 10.9131-41.1377Q9.76562-39.9902 9.76562-38.3789Q9.76562-36.7676 10.9131-35.6201Q12.0605-34.4727 13.6719-34.4727ZM106.348-34.4727Q107.959-34.4727 109.106-35.6201Q110.254-36.7676 110.254-38.3789Q110.254-39.9902 109.106-41.1377Q107.959-42.2852 106.348-42.2852L72.2656-42.2852L72.2656-38.0371L80.2246-34.4727Z"/>
  </g>
  <g id="Heavy-S" transform="matrix(1 0 0 1 2577.52 696)">
   <path d="M51.2935-65.1959Q55.2079-65.1959 57.978-67.9845Q60.748-70.7732 60.748-74.6734Q60.748-78.5993 57.978-81.3636Q55.2079-84.1278 51.2935-84.1278Q47.3933-84.1278 44.6047-81.3636Q41.816-78.5993 41.816-74.6734Q41.816-70.7732 44.6047-67.9845Q47.3933-65.1959 51.2935-65.1959ZM53.9242-26.4084L76.0685-19.5555L97.1989-10.017Q99.5624-8.94009 101.344-9.7729Q103.126-10.6057 103.897-12.3876Q104.668-14.1696 104.111-16.0434Q103.554-17.9172 101.277-18.9453L65.2884-35.2363L65.2884-54.282Q65.2884-54.9689 65.5556-55.2921Q65.8228-55.6152 66.3917-55.8451L77.372-60.3285Q78.3112-60.7307 78.7348-61.0609Q79.1583-61.3912 79.8446-62.201L91.3878-75.6369Q92.7346-77.1675 92.5451-79.1763Q92.3555-81.1851 90.8249-82.4831Q89.3058-83.8558 87.2726-83.6591Q85.2394-83.4624 83.9413-81.9691L73.0357-69.2683L22.4713-48.6146Q21.7558-48.3244 20.9417-47.8778Q20.1275-47.4312 19.5015-46.8799L44.3678-46.8799L46.623-47.8061Q47.6117-48.217 47.6117-47.2717L47.6117-35.0932Q47.6117-28.3528 53.9242-26.4084ZM49.7744 7.77672Q48.9789 10.5939 50.712 12.2164Q52.4451 13.839 54.6132 13.839Q56.095 13.839 57.4175 13.0062Q58.7399 12.1734 59.254 10.324L65.1046-11.0879Q65.2884-11.7742 65.2884-12.3744L65.2884-18.0831L54.407-21.4374L55.4296-12.6932ZM13.3031-35.1526L42.9594-35.1526L42.9594-42.2391L13.3031-42.2391Q11.8416-42.2391 10.8036-41.2011Q9.76562-40.1631 9.76562-38.6901Q9.76562-37.2286 10.8036-36.1906Q11.8416-35.1526 13.3031-35.1526ZM105.034-35.1526Q106.495-35.1526 107.533-36.1906Q108.571-37.2286 108.571-38.6901Q108.571-40.1631 107.533-41.2011Q106.495-42.2391 105.034-42.2391L70.6868-42.2391L70.6868-38.2445L76.7673-35.1526Z"/>
  </g>
  <g id="Bold-S" transform="matrix(1 0 0 1 2281.75 696)">
   <path d="M50.6104-64.7705Q54.3701-64.7705 57.0435-67.4561Q59.7168-70.1416 59.7168-73.9258Q59.7168-77.71 57.0435-80.3711Q54.3701-83.0322 50.6104-83.0322Q46.8262-83.0322 44.1406-80.3711Q41.4551-77.71 41.4551-73.9258Q41.4551-70.1416 44.1406-67.4561Q46.8262-64.7705 50.6104-64.7705ZM53.125-26.7822L75.0244-20.0195L95.9229-10.5713Q98.1445-9.5459 99.8169-10.3271Q101.489-11.1084 102.222-12.7808Q102.954-14.4531 102.429-16.2109Q101.904-17.9688 99.7559-18.9453L64.0381-35.1074L64.0381-54.1016Q64.0381-54.9561 64.3311-55.2856Q64.624-55.6152 65.2832-55.8838L76.1475-60.3027Q77.0996-60.7178 77.478-61.0352Q77.8564-61.3525 78.4912-62.085L89.8926-75.3662Q91.1621-76.8066 90.979-78.6865Q90.7959-80.5664 89.3555-81.7871Q87.9395-83.0566 86.0352-82.8857Q84.1309-82.7148 82.9102-81.2988L72.0947-68.7012L22.0459-48.2666Q21.2402-47.9248 20.4712-47.4976Q19.7021-47.0703 19.1406-46.5576L42.3828-46.5576L45.8496-47.9736Q47.0703-48.4619 47.0703-47.3877L47.0703-35.1318Q47.0703-28.6621 53.125-26.7822ZM49.1943 7.2998Q48.4375 9.93652 50.061 11.4624Q51.6846 12.9883 53.7109 12.9883Q55.1025 12.9883 56.3477 12.207Q57.5928 11.4258 58.0811 9.69238L63.8672-11.4746Q64.0381-12.1094 64.0381-12.6709L64.0381-18.9209L53.7109-22.0947L54.7852-12.9639ZM12.8906-35.9131L42.6758-35.9131L42.6758-42.1875L12.8906-42.1875Q11.5967-42.1875 10.6812-41.272Q9.76562-40.3564 9.76562-39.0381Q9.76562-37.7441 10.6812-36.8286Q11.5967-35.9131 12.8906-35.9131ZM103.564-35.9131Q104.858-35.9131 105.774-36.8286Q106.689-37.7441 106.689-39.0381Q106.689-40.3564 105.774-41.272Q104.858-42.1875 103.564-42.1875L68.9209-42.1875L68.9209-38.4766L72.9004-35.9131Z"/>
  </g>
  <g id="Semibold-S" transform="matrix(1 0 0 1 1985.69 696)">
   <path d="M50.1394-64.4772Q53.7925-64.4772 56.3992-67.0917Q59.0059-69.7062 59.0059-73.4104Q59.0059-77.0968 56.3992-79.6868Q53.7925-82.2769 50.1394-82.2769Q46.4352-82.2769 43.8207-79.6868Q41.2062-77.0968 41.2062-73.4104Q41.2062-69.7062 43.8207-67.0917Q46.4352-64.4772 50.1394-64.4772ZM52.574-27.0399L74.3046-20.3395L95.0431-10.9534Q97.167-9.96357 98.7638-10.7093Q100.361-11.455 101.066-13.0518Q101.772-14.6486 101.269-16.3265Q100.767-18.0043 98.7072-18.9453L63.1761-35.0186L63.1761-53.9771Q63.1761-54.9472 63.4868-55.2812Q63.7976-55.6152 64.5189-55.9104L75.3032-60.285Q76.2643-60.7089 76.6116-61.0174Q76.9589-61.3259 77.5581-62.005L88.8617-75.1796Q90.0779-76.5578 89.8993-78.3488Q89.7206-80.1398 88.3424-81.3072Q86.9975-82.5057 85.182-82.3525Q83.3666-82.1994 82.1992-80.8367L71.446-68.3102L21.7526-48.0267Q20.8848-47.6493 20.1468-47.2354Q19.4089-46.8215 18.8918-46.3354L41.0143-46.3354L45.3164-48.0892Q46.6971-48.6308 46.6971-47.4677L46.6971-35.1585Q46.6971-28.8754 52.574-27.0399ZM48.7944 6.971Q48.0643 9.4833 49.6123 10.9425Q51.1603 12.4018 53.0889 12.4018Q54.4183 12.4018 55.6101 11.6561Q56.8019 10.9104 57.2724 9.25693L63.0141-11.7412Q63.1761-12.3404 63.1761-12.8753L63.1761-19.4985L53.2311-22.5479L54.3408-13.1505ZM12.6062-36.4374L42.4803-36.4374L42.4803-42.152L12.6062-42.152Q11.4278-42.152 10.5967-41.3208Q9.76562-40.4897 9.76562-39.278Q9.76562-38.0996 10.5967-37.2685Q11.4278-36.4374 12.6062-36.4374ZM102.551-36.4374Q103.73-36.4374 104.561-37.2685Q105.392-38.0996 105.392-39.278Q105.392-40.4897 104.561-41.3208Q103.73-42.152 102.551-42.152L67.7034-42.152L67.7034-38.6365L70.2344-36.4374Z"/>
  </g>
  <g id="Medium-S" transform="matrix(1 0 0 1 1689.47 696)">
   <path d="M49.7822-64.2549Q53.3545-64.2549 55.9106-66.8154Q58.4668-69.376 58.4668-73.0195Q58.4668-76.6318 55.9106-79.168Q53.3545-81.7041 49.7822-81.7041Q46.1387-81.7041 43.5781-79.168Q41.0176-76.6318 41.0176-73.0195Q41.0176-69.376 43.5781-66.8154Q46.1387-64.2549 49.7822-64.2549ZM52.1562-27.2354L73.7588-20.582L94.376-11.2432Q96.4258-10.2803 97.9653-10.999Q99.5049-11.7178 100.19-13.2573Q100.876-14.7969 100.39-16.4141Q99.9043-18.0312 97.9121-18.9453L62.5225-34.9512L62.5225-53.8828Q62.5225-54.9404 62.8467-55.2778Q63.1709-55.6152 63.9395-55.9307L74.6631-60.2715Q75.6309-60.7021 75.9546-61.0039Q76.2783-61.3057 76.8506-61.9443L88.0801-75.0381Q89.2559-76.3691 89.0806-78.0928Q88.9053-79.8164 87.5742-80.9434Q86.2832-82.0879 84.5352-81.9482Q82.7871-81.8086 81.6602-80.4863L70.9541-68.0137L21.5303-47.8447Q20.6152-47.4404 19.9009-47.0366Q19.1865-46.6328 18.7031-46.167L39.9766-46.167L44.9121-48.1768Q46.4141-48.7588 46.4141-47.5283L46.4141-35.1787Q46.4141-29.0371 52.1562-27.2354ZM48.4912 6.72168Q47.7812 9.13965 49.272 10.5483Q50.7627 11.957 52.6172 11.957Q53.8994 11.957 55.0508 11.2383Q56.2021 10.5195 56.6592 8.92676L62.3672-11.9434Q62.5225-12.5156 62.5225-13.0303L62.5225-19.9365L52.8672-22.8916L54.0039-13.292ZM12.3906-36.835L42.332-36.835L42.332-42.125L12.3906-42.125Q11.2998-42.125 10.5327-41.3579Q9.76562-40.5908 9.76562-39.46Q9.76562-38.3691 10.5327-37.6021Q11.2998-36.835 12.3906-36.835ZM101.783-36.835Q102.874-36.835 103.641-37.6021Q104.408-38.3691 104.408-39.46Q104.408-40.5908 103.641-41.3579Q102.874-42.125 101.783-42.125L66.7803-42.125L66.7803-38.7578L68.2129-36.835Z"/>
  </g>
  <g id="Regular-S" transform="matrix(1 0 0 1 1393.4 696)">
   <path d="M49.3164-63.9648Q52.7832-63.9648 55.2734-66.4551Q57.7637-68.9453 57.7637-72.5098Q57.7637-76.0254 55.2734-78.4912Q52.7832-80.957 49.3164-80.957Q45.752-80.957 43.2617-78.4912Q40.7715-76.0254 40.7715-72.5098Q40.7715-68.9453 43.2617-66.4551Q45.752-63.9648 49.3164-63.9648ZM51.6113-27.4902L73.0469-20.8984L93.5059-11.6211Q95.459-10.6934 96.9238-11.377Q98.3887-12.0605 99.0479-13.5254Q99.707-14.9902 99.2432-16.5283Q98.7793-18.0664 96.875-18.9453L61.6699-34.8633L61.6699-53.7598Q61.6699-54.9316 62.0117-55.2734Q62.3535-55.6152 63.1836-55.957L73.8281-60.2539Q74.8047-60.6934 75.0977-60.9863Q75.3906-61.2793 75.9277-61.8652L87.0605-74.8535Q88.1836-76.123 88.0127-77.7588Q87.8418-79.3945 86.5723-80.4688Q85.3516-81.543 83.6914-81.4209Q82.0312-81.2988 80.957-80.0293L70.3125-67.627L21.2402-47.6074Q20.2637-47.168 19.5801-46.7773Q18.8965-46.3867 18.457-45.9473L38.623-45.9473L44.3848-48.291Q46.0449-48.9258 46.0449-47.6074L46.0449-35.2051Q46.0449-29.248 51.6113-27.4902ZM48.0957 6.39648Q47.4121 8.69141 48.8281 10.0342Q50.2441 11.377 52.002 11.377Q53.2227 11.377 54.3213 10.6934Q55.4199 10.0098 55.8594 8.49609L61.5234-12.207Q61.6699-12.7441 61.6699-13.2324L61.6699-20.5078L52.3926-23.3398L53.5645-13.4766ZM12.1094-37.3535L42.1387-37.3535L42.1387-42.0898L12.1094-42.0898Q11.1328-42.0898 10.4492-41.4062Q9.76562-40.7227 9.76562-39.6973Q9.76562-38.7207 10.4492-38.0371Q11.1328-37.3535 12.1094-37.3535ZM100.781-37.3535Q101.758-37.3535 102.441-38.0371Q103.125-38.7207 103.125-39.6973Q103.125-40.7227 102.441-41.4062Q101.758-42.0898 100.781-42.0898L65.5762-42.0898L65.5762-38.916L65.5762-37.3535Z"/>
  </g>
  <g id="Light-S" transform="matrix(1 0 0 1 1098.46 696)">
   <path d="M47.3033-63.1777Q50.664-63.1777 53.0711-65.5772Q55.4782-67.9766 55.4782-71.4048Q55.4782-74.8144 53.0711-77.197Q50.664-79.5797 47.3033-79.5797Q43.8751-79.5797 41.4757-77.197Q39.0762-74.8144 39.0762-71.4048Q39.0762-67.9766 41.4757-65.5772Q43.8751-63.1777 47.3033-63.1777ZM49.9916-27.7323L70.7764-21.3374L90.6148-12.3324Q92.5224-11.4502 93.9419-12.111Q95.3613-12.7719 95.9902-14.1913Q96.6192-15.6108 96.1704-17.1034Q95.7217-18.5961 93.8932-19.4448L59.7326-34.8785L59.7326-53.1998Q59.7326-54.3414 60.0591-54.6755Q60.3856-55.0097 61.2007-55.3365L71.5274-59.5123Q72.4737-59.9215 72.759-60.2145Q73.0443-60.5075 73.5664-61.0781L84.3664-73.6577Q85.4439-74.897 85.2805-76.4874Q85.1171-78.0777 83.8931-79.1064Q82.7026-80.1503 81.0955-80.0283Q79.4884-79.9062 78.4444-78.6822L68.1178-66.6583L20.5289-47.229Q19.4613-46.7743 18.7777-46.3459Q18.0941-45.9175 17.6699-45.4478L36.9581-45.4478L42.9771-47.8973Q44.5768-48.5321 44.5768-47.229L44.5768-35.2203Q44.5768-29.4296 49.9916-27.7323ZM46.567 5.14018Q45.9137 7.37457 47.2842 8.67195Q48.6547 9.96933 50.3672 9.96933Q51.5424 9.96933 52.6108 9.30087Q53.6791 8.63241 54.0883 7.164L59.6011-12.9033Q59.7326-13.3799 59.7326-13.9135L59.7326-21.0981L50.7123-23.8696L51.8842-14.1426ZM11.6704-37.8832L40.8218-37.8832L40.8218-41.7267L11.6704-41.7267Q10.8754-41.7267 10.3205-41.1716Q9.76562-40.6166 9.76562-39.7881Q9.76562-38.9931 10.3205-38.4382Q10.8754-37.8832 11.6704-37.8832ZM97.6784-37.8832Q98.4731-37.8832 99.028-38.4382Q99.5829-38.9931 99.5829-39.7881Q99.5829-40.6166 99.028-41.1716Q98.4731-41.7267 97.6784-41.7267L63.5025-41.7267L63.5025-39.1129L63.5025-37.8832Z"/>
  </g>
  <g id="Thin-S" transform="matrix(1 0 0 1 804.09 696)">
   <path d="M44.6407-62.1367Q47.8612-62.1367 50.1583-64.4161Q52.4554-66.6955 52.4554-69.9433Q52.4554-73.2127 50.1583-75.4853Q47.8612-77.758 44.6407-77.758Q41.3929-77.758 39.1135-75.4853Q36.8341-73.2127 36.8341-69.9433Q36.8341-66.6955 39.1135-64.4161Q41.3929-62.1367 44.6407-62.1367ZM47.8494-28.0525L67.7734-21.9179L86.7912-13.2732Q88.6386-12.4512 89.998-13.0819Q91.3574-13.7126 91.9463-15.072Q92.5352-16.4315 92.1065-17.8641Q91.6778-19.2968 89.9495-20.1054L57.1703-34.8987L57.1703-52.4591Q57.1703-53.5607 57.4766-53.8848Q57.783-54.2089 58.5782-54.5158L68.4844-58.5315Q69.3907-58.9007 69.6659-59.1937Q69.9412-59.4866 70.4434-60.0371L80.8031-72.0762Q81.8204-73.2755 81.6669-74.8058Q81.5134-76.3361 80.3496-77.3046Q79.1992-78.3085 77.6622-78.1864Q76.1252-78.0644 75.1213-76.9006L65.2151-65.3771L19.5882-46.7285Q18.4001-46.2536 17.7165-45.7753Q17.0329-45.2969 16.6289-44.7872L34.756-44.7872L41.1154-47.3767Q42.635-48.0114 42.635-46.7285L42.635-35.2405Q42.635-29.6698 47.8494-28.0525ZM44.5452 3.47861Q43.9319 5.63295 45.2422 6.87029Q46.5525 8.10763 48.2052 8.10763Q49.3201 8.10763 50.3485 7.45919Q51.3768 6.81074 51.746 5.4022L57.0586-13.8243Q57.1703-14.2208 57.1703-14.8142L57.1703-21.8787L48.4901-24.5702L49.6619-15.0235ZM11.0899-38.5839L39.0802-38.5839L39.0802-41.2464L11.0899-41.2464Q10.5351-41.2464 10.1503-40.8614Q9.76562-40.4763 9.76562-39.9081Q9.76562-39.3533 10.1503-38.9686Q10.5351-38.5839 11.0899-38.5839ZM93.5746-38.5839Q94.1288-38.5839 94.5135-38.9686Q94.8982-39.3533 94.8982-39.9081Q94.8982-40.4763 94.5135-40.8614Q94.1288-41.2464 93.5746-41.2464L60.7599-41.2464L60.7599-39.3732L60.7599-38.5839Z"/>
  </g>
  <g id="Ultralight-S" transform="matrix(1 0 0 1 508.579 696)">
   <path d="M43.277-61.6035Q46.4256-61.6035 48.6664-63.8214Q50.9071-66.0393 50.9071-69.1948Q50.9071-72.3923 48.6664-74.6086Q46.4256-76.825 43.277-76.825Q40.1215-76.825 37.9036-74.6086Q35.6857-72.3923 35.6857-69.1948Q35.6857-66.0393 37.9036-63.8214Q40.1215-61.6035 43.277-61.6035ZM46.7522-28.2166L66.2354-22.2153L84.8328-13.755Q86.6493-12.9639 87.978-13.5792Q89.3066-14.1945 89.875-15.5231Q90.4434-16.8518 90.0249-18.2537Q89.6065-19.6556 87.9295-20.4437L55.8578-34.9091L55.8578-52.0798Q55.8578-53.1609 56.1539-53.4798Q56.4499-53.7987 57.235-54.0955L66.9258-58.0292Q67.8116-58.3778 68.0817-58.6708Q68.3517-58.9638 68.8438-59.5039L78.978-71.2662Q79.9644-72.4449 79.8161-73.9445Q79.6677-75.444 78.5347-76.3817Q77.4048-77.3651 75.9037-77.243Q74.4026-77.121 73.4192-75.988L63.7283-64.7209L19.1063-46.4722Q17.8566-45.9869 17.173-45.483Q16.4894-44.9791 16.0957-44.4489L33.6281-44.4489L40.1619-47.11Q41.6405-47.7448 41.6405-46.4722L41.6405-35.2509Q41.6405-29.7928 46.7522-28.2166ZM43.5097 2.62756Q42.9169 4.74091 44.1963 5.94749Q45.4758 7.15408 47.0978 7.15408Q48.1819 7.15408 49.1898 6.51588Q50.1976 5.87769 50.5463 4.49982L55.7564-14.296Q55.8578-14.6515 55.8578-15.2756L55.8578-22.2786L47.3518-24.929L48.5237-15.4747ZM10.7925-38.9427L38.1882-38.9427L38.1882-41.0004L10.7925-41.0004Q10.3607-41.0004 10.0632-40.7024Q9.76562-40.4045 9.76562-39.9696Q9.76562-39.5378 10.0632-39.2403Q10.3607-38.9427 10.7925-38.9427ZM91.4726-38.9427Q91.9037-38.9427 92.2012-39.2403Q92.4988-39.5378 92.4988-39.9696Q92.4988-40.4045 92.2012-40.7024Q91.9037-41.0004 91.4726-41.0004L59.3552-41.0004L59.3552-39.5065L59.3552-38.9427Z"/>
  </g>
 </g>
</svg>
