<?xml version="1.0" encoding="UTF-8"?>
<!--Generator: Apple Native CoreSVG 175.5-->
<!DOCTYPE svg
PUBLIC "-//W3C//DTD SVG 1.1//EN"
       "http://www.w3.org/Graphics/SVG/1.1/DTD/svg11.dtd">
<svg version="1.1" xmlns="http://www.w3.org/2000/svg" xmlns:xlink="http://www.w3.org/1999/xlink" width="3300" height="2200">
 <!--glyph: "uni101309.medium", point size: 100.0, font version: "18.0d9e1", template writer version: "84"-->
 <g id="Notes">
  <rect height="2200" id="artboard" style="fill:white;opacity:1" width="3300" x="0" y="0"/>
  <line style="fill:none;stroke:black;opacity:1;stroke-width:0.5;" x1="263" x2="3036" y1="292" y2="292"/>
  <text style="stroke:none;fill:black;font-family:sans-serif;font-size:13;font-weight:bold;" transform="matrix(1 0 0 1 263 322)">Weight/Scale Variations</text>
  <text style="stroke:none;fill:black;font-family:sans-serif;font-size:13;text-anchor:middle;" transform="matrix(1 0 0 1 559.711 322)">Ultralight</text>
  <text style="stroke:none;fill:black;font-family:sans-serif;font-size:13;text-anchor:middle;" transform="matrix(1 0 0 1 856.422 322)">Thin</text>
  <text style="stroke:none;fill:black;font-family:sans-serif;font-size:13;text-anchor:middle;" transform="matrix(1 0 0 1 1153.13 322)">Light</text>
  <text style="stroke:none;fill:black;font-family:sans-serif;font-size:13;text-anchor:middle;" transform="matrix(1 0 0 1 1449.84 322)">Regular</text>
  <text style="stroke:none;fill:black;font-family:sans-serif;font-size:13;text-anchor:middle;" transform="matrix(1 0 0 1 1746.56 322)">Medium</text>
  <text style="stroke:none;fill:black;font-family:sans-serif;font-size:13;text-anchor:middle;" transform="matrix(1 0 0 1 2043.27 322)">Semibold</text>
  <text style="stroke:none;fill:black;font-family:sans-serif;font-size:13;text-anchor:middle;" transform="matrix(1 0 0 1 2339.98 322)">Bold</text>
  <text style="stroke:none;fill:black;font-family:sans-serif;font-size:13;text-anchor:middle;" transform="matrix(1 0 0 1 2636.69 322)">Heavy</text>
  <text style="stroke:none;fill:black;font-family:sans-serif;font-size:13;text-anchor:middle;" transform="matrix(1 0 0 1 2933.4 322)">Black</text>
  <line style="fill:none;stroke:black;opacity:1;stroke-width:0.5;" x1="263" x2="3036" y1="1903" y2="1903"/>
  <g transform="matrix(1 0 0 1 263 1933)">
   <path d="M9.24805 0.830078Q10.8691 0.830078 12.2949 0.214844Q13.7207-0.400391 14.8096-1.49414Q15.8984-2.58789 16.5186-4.01367Q17.1387-5.43945 17.1387-7.05078Q17.1387-8.66211 16.5186-10.0879Q15.8984-11.5137 14.8047-12.6074Q13.7109-13.7012 12.2852-14.3164Q10.8594-14.9316 9.23828-14.9316Q7.62695-14.9316 6.20117-14.3164Q4.77539-13.7012 3.69141-12.6074Q2.60742-11.5137 1.9873-10.0879Q1.36719-8.66211 1.36719-7.05078Q1.36719-5.43945 1.9873-4.01367Q2.60742-2.58789 3.69629-1.49414Q4.78516-0.400391 6.21094 0.214844Q7.63672 0.830078 9.24805 0.830078ZM9.24805-0.654297Q7.91992-0.654297 6.7627-1.14746Q5.60547-1.64062 4.73145-2.51953Q3.85742-3.39844 3.36426-4.56055Q2.87109-5.72266 2.87109-7.05078Q2.87109-8.37891 3.35938-9.54102Q3.84766-10.7031 4.72168-11.582Q5.5957-12.4609 6.75293-12.9541Q7.91016-13.4473 9.23828-13.4473Q10.5762-13.4473 11.7383-12.9541Q12.9004-12.4609 13.7793-11.582Q14.6582-10.7031 15.1514-9.54102Q15.6445-8.37891 15.6445-7.05078Q15.6445-5.72266 15.1514-4.56055Q14.6582-3.39844 13.7793-2.51953Q12.9004-1.64062 11.7432-1.14746Q10.5859-0.654297 9.24805-0.654297ZM5.6543-7.05078Q5.6543-6.72852 5.85938-6.52832Q6.06445-6.32812 6.40625-6.32812L8.51562-6.32812L8.51562-4.20898Q8.51562-3.88672 8.71094-3.67676Q8.90625-3.4668 9.23828-3.4668Q9.56055-3.4668 9.77051-3.67676Q9.98047-3.88672 9.98047-4.20898L9.98047-6.32812L12.0898-6.32812Q12.4219-6.32812 12.627-6.52832Q12.832-6.72852 12.832-7.05078Q12.832-7.38281 12.627-7.58789Q12.4219-7.79297 12.0898-7.79297L9.98047-7.79297L9.98047-9.90234Q9.98047-10.2344 9.77051-10.4443Q9.56055-10.6543 9.23828-10.6543Q8.90625-10.6543 8.71094-10.4443Q8.51562-10.2344 8.51562-9.90234L8.51562-7.79297L6.40625-7.79297Q6.06445-7.79297 5.85938-7.58789Q5.6543-7.38281 5.6543-7.05078Z"/>
  </g>
  <g transform="matrix(1 0 0 1 281.867 1933)">
   <path d="M11.709 2.91016Q13.75 2.91016 15.5518 2.12891Q17.3535 1.34766 18.7305-0.0292969Q20.1074-1.40625 20.8887-3.20801Q21.6699-5.00977 21.6699-7.05078Q21.6699-9.0918 20.8887-10.8936Q20.1074-12.6953 18.7305-14.0723Q17.3535-15.4492 15.5469-16.2305Q13.7402-17.0117 11.6992-17.0117Q9.6582-17.0117 7.85645-16.2305Q6.05469-15.4492 4.68262-14.0723Q3.31055-12.6953 2.5293-10.8936Q1.74805-9.0918 1.74805-7.05078Q1.74805-5.00977 2.5293-3.20801Q3.31055-1.40625 4.6875-0.0292969Q6.06445 1.34766 7.86621 2.12891Q9.66797 2.91016 11.709 2.91016ZM11.709 1.25Q9.98047 1.25 8.47656 0.605469Q6.97266-0.0390625 5.83496-1.17676Q4.69727-2.31445 4.05762-3.81836Q3.41797-5.32227 3.41797-7.05078Q3.41797-8.7793 4.05762-10.2832Q4.69727-11.7871 5.83008-12.9297Q6.96289-14.0723 8.4668-14.7119Q9.9707-15.3516 11.6992-15.3516Q13.4277-15.3516 14.9365-14.7119Q16.4453-14.0723 17.583-12.9297Q18.7207-11.7871 19.3652-10.2832Q20.0098-8.7793 20.0098-7.05078Q20.0098-5.32227 19.3701-3.81836Q18.7305-2.31445 17.5879-1.17676Q16.4453-0.0390625 14.9414 0.605469Q13.4375 1.25 11.709 1.25ZM7.17773-7.05078Q7.17773-6.69922 7.41211-6.47461Q7.64648-6.25 8.01758-6.25L10.8887-6.25L10.8887-3.36914Q10.8887-2.99805 11.1133-2.76855Q11.3379-2.53906 11.6895-2.53906Q12.0605-2.53906 12.29-2.76855Q12.5195-2.99805 12.5195-3.36914L12.5195-6.25L15.4004-6.25Q15.7715-6.25 16.001-6.47461Q16.2305-6.69922 16.2305-7.05078Q16.2305-7.42188 16.001-7.65137Q15.7715-7.88086 15.4004-7.88086L12.5195-7.88086L12.5195-10.752Q12.5195-11.1328 12.29-11.3623Q12.0605-11.5918 11.6895-11.5918Q11.3379-11.5918 11.1133-11.3574Q10.8887-11.123 10.8887-10.752L10.8887-7.88086L8.01758-7.88086Q7.63672-7.88086 7.40723-7.65137Q7.17773-7.42188 7.17773-7.05078Z"/>
  </g>
  <g transform="matrix(1 0 0 1 305.646 1933)">
   <path d="M14.9707 5.66406Q17.0605 5.66406 18.96 5.01465Q20.8594 4.36523 22.4512 3.19336Q24.043 2.02148 25.2197 0.429688Q26.3965-1.16211 27.0459-3.06641Q27.6953-4.9707 27.6953-7.05078Q27.6953-9.14062 27.0459-11.04Q26.3965-12.9395 25.2197-14.5312Q24.043-16.123 22.4512-17.2998Q20.8594-18.4766 18.9551-19.126Q17.0508-19.7754 14.9609-19.7754Q12.8711-19.7754 10.9717-19.126Q9.07227-18.4766 7.48535-17.2998Q5.89844-16.123 4.72168-14.5312Q3.54492-12.9395 2.90039-11.04Q2.25586-9.14062 2.25586-7.05078Q2.25586-4.9707 2.90527-3.06641Q3.55469-1.16211 4.72656 0.429688Q5.89844 2.02148 7.49023 3.19336Q9.08203 4.36523 10.9814 5.01465Q12.8809 5.66406 14.9707 5.66406ZM14.9707 3.84766Q13.1641 3.84766 11.5283 3.2959Q9.89258 2.74414 8.53516 1.74805Q7.17773 0.751953 6.17676-0.610352Q5.17578-1.97266 4.62891-3.6084Q4.08203-5.24414 4.08203-7.05078Q4.08203-8.86719 4.62891-10.5029Q5.17578-12.1387 6.17188-13.501Q7.16797-14.8633 8.52539-15.8594Q9.88281-16.8555 11.5186-17.4023Q13.1543-17.9492 14.9609-17.9492Q16.7773-17.9492 18.4131-17.4023Q20.0488-16.8555 21.4111-15.8594Q22.7734-14.8633 23.7744-13.501Q24.7754-12.1387 25.3223-10.5029Q25.8691-8.86719 25.8691-7.05078Q25.8691-5.24414 25.3223-3.6084Q24.7754-1.97266 23.7793-0.610352Q22.7832 0.751953 21.4209 1.74805Q20.0586 2.74414 18.4229 3.2959Q16.7871 3.84766 14.9707 3.84766ZM9.19922-7.05078Q9.19922-6.66992 9.45801-6.4209Q9.7168-6.17188 10.1172-6.17188L14.0625-6.17188L14.0625-2.2168Q14.0625-1.81641 14.3115-1.55762Q14.5605-1.29883 14.9512-1.29883Q15.3516-1.29883 15.6104-1.55273Q15.8691-1.80664 15.8691-2.2168L15.8691-6.17188L19.8242-6.17188Q20.2246-6.17188 20.4785-6.4209Q20.7324-6.66992 20.7324-7.05078Q20.7324-7.46094 20.4785-7.71484Q20.2246-7.96875 19.8242-7.96875L15.8691-7.96875L15.8691-11.9141Q15.8691-12.3242 15.6104-12.583Q15.3516-12.8418 14.9512-12.8418Q14.5605-12.8418 14.3115-12.583Q14.0625-12.3242 14.0625-11.9141L14.0625-7.96875L10.1172-7.96875Q9.70703-7.96875 9.45312-7.71484Q9.19922-7.46094 9.19922-7.05078Z"/>
  </g>
  <text style="stroke:none;fill:black;font-family:sans-serif;font-size:13;font-weight:bold;" transform="matrix(1 0 0 1 263 1953)">Design Variations</text>
  <text style="stroke:none;fill:black;font-family:sans-serif;font-size:13;" transform="matrix(1 0 0 1 263 1971)">Symbols are supported in up to nine weights and three scales.</text>
  <text style="stroke:none;fill:black;font-family:sans-serif;font-size:13;" transform="matrix(1 0 0 1 263 1989)">For optimal layout with text and other symbols, vertically align</text>
  <text style="stroke:none;fill:black;font-family:sans-serif;font-size:13;" transform="matrix(1 0 0 1 263 2007)">symbols with the adjacent text.</text>
  <line style="fill:none;stroke:#00AEEF;stroke-width:0.5;opacity:1.0;" x1="776" x2="776" y1="1919" y2="1933"/>
  <g transform="matrix(1 0 0 1 776 1933)">
   <path d="M3.31055 0.15625Q3.70117 0.15625 3.91602-0.00976562Q4.13086-0.175781 4.26758-0.585938L5.52734-4.0332L11.2891-4.0332L12.5488-0.585938Q12.6855-0.175781 12.9004-0.00976562Q13.1152 0.15625 13.4961 0.15625Q13.8867 0.15625 14.1162-0.0585938Q14.3457-0.273438 14.3457-0.644531Q14.3457-0.869141 14.2383-1.17188L9.6582-13.3691Q9.48242-13.8184 9.17969-14.043Q8.87695-14.2676 8.4082-14.2676Q7.5-14.2676 7.17773-13.3789L2.59766-1.16211Q2.49023-0.859375 2.49023-0.634766Q2.49023-0.263672 2.70996-0.0537109Q2.92969 0.15625 3.31055 0.15625ZM6.00586-5.51758L8.37891-12.0898L8.42773-12.0898L10.8008-5.51758Z"/>
  </g>
  <line style="fill:none;stroke:#00AEEF;stroke-width:0.5;opacity:1.0;" x1="793.197" x2="793.197" y1="1919" y2="1933"/>
  <text style="stroke:none;fill:black;font-family:sans-serif;font-size:13;font-weight:bold;" transform="matrix(1 0 0 1 776 1953)">Margins</text>
  <text style="stroke:none;fill:black;font-family:sans-serif;font-size:13;" transform="matrix(1 0 0 1 776 1971)">Leading and trailing margins on the left and right side of each symbol</text>
  <text style="stroke:none;fill:black;font-family:sans-serif;font-size:13;" transform="matrix(1 0 0 1 776 1989)">can be adjusted by modifying the x-location of the margin guidelines.</text>
  <text style="stroke:none;fill:black;font-family:sans-serif;font-size:13;" transform="matrix(1 0 0 1 776 2007)">Modifications are automatically applied proportionally to all</text>
  <text style="stroke:none;fill:black;font-family:sans-serif;font-size:13;" transform="matrix(1 0 0 1 776 2025)">scales and weights.</text>
  <g transform="matrix(1 0 0 1 1289 1933)">
   <path d="M2.8418 1.86523L4.54102 3.57422Q5.18555 4.22852 5.90332 4.17969Q6.62109 4.13086 7.31445 3.35938L18.0078-8.42773L17.041-9.4043L6.42578 2.27539Q6.16211 2.57812 5.89355 2.61719Q5.625 2.65625 5.27344 2.30469L4.10156 1.14258Q3.75 0.791016 3.79395 0.522461Q3.83789 0.253906 4.14062-0.0195312L15.6152-10.8203L14.6387-11.7871L3.04688-0.898438Q2.30469-0.214844 2.25098 0.498047Q2.19727 1.21094 2.8418 1.86523ZM9.25781-16.3281Q8.94531-16.0254 8.90625-15.6348Q8.86719-15.2441 9.04297-14.9512Q9.21875-14.6777 9.55566-14.541Q9.89258-14.4043 10.3809-14.5215Q11.4746-14.7754 12.5977-14.7314Q13.7207-14.6875 14.7949-13.9844L14.209-12.5293Q13.9551-11.9043 14.0674-11.4404Q14.1797-10.9766 14.5801-10.5664L16.875-8.25195Q17.2363-7.88086 17.5781-7.82227Q17.9199-7.76367 18.3398-7.8418L19.4043-8.03711L20.0684-7.36328L20.0293-6.80664Q20-6.43555 20.1221-6.12305Q20.2441-5.81055 20.6055-5.44922L21.3672-4.70703Q21.7285-4.3457 22.1533-4.33105Q22.5781-4.31641 22.9297-4.66797L25.8398-7.58789Q26.1914-7.93945 26.1816-8.35449Q26.1719-8.76953 25.8105-9.13086L25.0391-9.89258Q24.6875-10.2539 24.3799-10.3857Q24.0723-10.5176 23.7109-10.4883L23.1348-10.4395L22.4902-11.0742L22.7344-12.1973Q22.832-12.6172 22.6953-12.9834Q22.5586-13.3496 22.1191-13.7891L19.9219-15.9766Q18.6719-17.2168 17.2607-17.8369Q15.8496-18.457 14.4189-18.4814Q12.9883-18.5059 11.665-17.959Q10.3418-17.4121 9.25781-16.3281ZM10.752-15.957Q11.6602-16.6211 12.7002-16.9043Q13.7402-17.1875 14.8047-17.085Q15.8691-16.9824 16.8701-16.5137Q17.8711-16.0449 18.7012-15.2051L21.1328-12.793Q21.3086-12.6172 21.3525-12.4512Q21.3965-12.2852 21.3379-12.0312L21.0156-10.5469L22.5195-9.0625L23.5059-9.12109Q23.6914-9.13086 23.7891-9.09668Q23.8867-9.0625 24.0332-8.91602L24.6094-8.33984L22.168-5.89844L21.5918-6.47461Q21.4453-6.62109 21.4062-6.71875Q21.3672-6.81641 21.377-7.01172L21.4453-7.98828L19.9512-9.47266L18.4277-9.21875Q18.1836-9.16992 18.042-9.2041Q17.9004-9.23828 17.7148-9.41406L15.7129-11.416Q15.5176-11.5918 15.4932-11.7529Q15.4688-11.9141 15.5859-12.1875L16.4648-14.2773Q15.293-15.3711 13.8281-15.791Q12.3633-16.2109 10.8398-15.7617Q10.7227-15.7324 10.6885-15.8057Q10.6543-15.8789 10.752-15.957Z"/>
  </g>
  <text style="stroke:none;fill:black;font-family:sans-serif;font-size:13;font-weight:bold;" transform="matrix(1 0 0 1 1289 1953)">Exporting</text>
  <text style="stroke:none;fill:black;font-family:sans-serif;font-size:13;" transform="matrix(1 0 0 1 1289 1971)">Symbols should be outlined when exporting to ensure the</text>
  <text style="stroke:none;fill:black;font-family:sans-serif;font-size:13;" transform="matrix(1 0 0 1 1289 1989)">design is preserved when submitting to Xcode.</text>
  <text id="template-version" style="stroke:none;fill:black;font-family:sans-serif;font-size:13;text-anchor:end;" transform="matrix(1 0 0 1 3036 1933)">Template v.2.0</text>
  <text style="stroke:none;fill:black;font-family:sans-serif;font-size:13;text-anchor:end;" transform="matrix(1 0 0 1 3036 1951)">Requires Xcode 12 or greater</text>
  <text id="descriptive-name" style="stroke:none;fill:black;font-family:sans-serif;font-size:13;text-anchor:end;" transform="matrix(1 0 0 1 3036 1969)">Generated from figure.outdoor.cycle</text>
  <text style="stroke:none;fill:black;font-family:sans-serif;font-size:13;text-anchor:end;" transform="matrix(1 0 0 1 3036 1987)">Typeset at 100 points</text>
  <text style="stroke:none;fill:black;font-family:sans-serif;font-size:13;" transform="matrix(1 0 0 1 263 726)">Small</text>
  <text style="stroke:none;fill:black;font-family:sans-serif;font-size:13;" transform="matrix(1 0 0 1 263 1156)">Medium</text>
  <text style="stroke:none;fill:black;font-family:sans-serif;font-size:13;" transform="matrix(1 0 0 1 263 1586)">Large</text>
 </g>
 <g id="Guides">
  <g id="H-reference" style="fill:#27AAE1;stroke:none;" transform="matrix(1 0 0 1 339 696)">
   <path d="M0.993347 0L3.6377 0L29.3282-67.1326L30.0301-67.1326L30.0301-70.459L28.1227-70.459ZM11.6882-24.4797L46.9818-24.4797L46.2311-26.7288L12.4382-26.7288ZM55.1193 0L57.7637 0L30.6381-70.459L29.4327-70.459L29.4327-67.1326Z"/>
  </g>
  <line id="Baseline-S" style="fill:none;stroke:#27AAE1;opacity:1;stroke-width:0.5;" x1="263" x2="3036" y1="696" y2="696"/>
  <line id="Capline-S" style="fill:none;stroke:#27AAE1;opacity:1;stroke-width:0.5;" x1="263" x2="3036" y1="625.541" y2="625.541"/>
  <g id="H-reference" style="fill:#27AAE1;stroke:none;" transform="matrix(1 0 0 1 339 1126)">
   <path d="M0.993347 0L3.6377 0L29.3282-67.1326L30.0301-67.1326L30.0301-70.459L28.1227-70.459ZM11.6882-24.4797L46.9818-24.4797L46.2311-26.7288L12.4382-26.7288ZM55.1193 0L57.7637 0L30.6381-70.459L29.4327-70.459L29.4327-67.1326Z"/>
  </g>
  <line id="Baseline-M" style="fill:none;stroke:#27AAE1;opacity:1;stroke-width:0.5;" x1="263" x2="3036" y1="1126" y2="1126"/>
  <line id="Capline-M" style="fill:none;stroke:#27AAE1;opacity:1;stroke-width:0.5;" x1="263" x2="3036" y1="1055.54" y2="1055.54"/>
  <g id="H-reference" style="fill:#27AAE1;stroke:none;" transform="matrix(1 0 0 1 339 1556)">
   <path d="M0.993347 0L3.6377 0L29.3282-67.1326L30.0301-67.1326L30.0301-70.459L28.1227-70.459ZM11.6882-24.4797L46.9818-24.4797L46.2311-26.7288L12.4382-26.7288ZM55.1193 0L57.7637 0L30.6381-70.459L29.4327-70.459L29.4327-67.1326Z"/>
  </g>
  <line id="Baseline-L" style="fill:none;stroke:#27AAE1;opacity:1;stroke-width:0.5;" x1="263" x2="3036" y1="1556" y2="1556"/>
  <line id="Capline-L" style="fill:none;stroke:#27AAE1;opacity:1;stroke-width:0.5;" x1="263" x2="3036" y1="1485.54" y2="1485.54"/>
  <line id="left-margin" style="fill:none;stroke:#00AEEF;stroke-width:0.5;opacity:1.0;" x1="1375.54" x2="1375.54" y1="1030.79" y2="1150.12"/>
  <line id="right-margin" style="fill:none;stroke:#00AEEF;stroke-width:0.5;opacity:1.0;" x1="1524.15" x2="1524.15" y1="1030.79" y2="1150.12"/>
 </g>
 <g id="Symbols">
  <g id="Black-L" transform="matrix(1 0 0 1 2828.54 1556)">
   <path d="M104.852 1.98381Q108.085 1.98381 110.351-0.282112Q112.618-2.54803 112.618-5.78236L112.618-39.0366Q112.618-41.9493 110.501-44.2846L93.6595-63.1129Q93.2665-63.5875 93.5032-64.0945Q93.7399-64.6015 94.3026-64.6015L114.859-64.6015Q116.181-64.6015 116.611-63.9843Q117.042-63.3671 117.042-62.1787L117.042-45.7527Q117.042-42.5391 119.327-40.244Q121.612-37.9489 124.847-37.9489L151.5-37.9489Q154.676-37.9489 156.932-40.244Q159.187-42.5391 159.187-45.7527Q159.187-48.9286 156.932-51.2243Q154.676-53.52 151.5-53.52L132.614-53.52L132.614-75.6769Q132.614-81.7783 128.413-85.9797Q124.211-90.1811 118.129-90.1811L85.7377-90.1811Q80.2928-90.1811 75.8689-87.1888Q71.4451-84.1965 69.3046-79.2329Q67.2029-74.2085 68.2934-68.9739Q69.3838-63.7392 73.1667-59.8563L97.1051-35.7803L97.1051-5.78236Q97.1051-2.54803 99.3716-0.282112Q101.638 1.98381 104.852 1.98381ZM53.8237 30.966Q64.2327 30.966 72.7782 25.8741Q81.3237 20.7823 86.4058 12.2186Q91.4878 3.65484 91.4878-6.77492Q91.4878-17.1839 86.4058-25.7586Q81.3237-34.3333 72.7782-39.4154Q64.2327-44.4974 53.8237-44.4974Q43.3951-44.4974 34.8308-39.4154Q26.2665-34.3333 21.1753-25.7586Q16.084-17.1839 16.084-6.77492Q16.084 3.65484 21.1753 12.2186Q26.2665 20.7823 34.8308 25.8741Q43.3951 30.966 53.8237 30.966ZM53.8237 18.0973Q46.8844 18.0973 41.2494 14.7658Q35.6144 11.4344 32.283 5.7994Q28.9515 0.16439 28.9515-6.77492Q28.9515-13.6946 32.283-19.3296Q35.6144-24.9646 41.2494-28.2669Q46.8844-31.5691 53.8237-31.5691Q60.7434-31.5691 66.3784-28.2669Q72.0134-24.9646 75.3157-19.3296Q78.6179-13.6946 78.6179-6.77492Q78.6179 0.16439 75.3157 5.7994Q72.0134 11.4344 66.3784 14.7658Q60.7434 18.0973 53.8237 18.0973ZM172.478-25.1683Q176.279-21.7687 178.514-17.0585Q180.749-12.3483 180.749-6.77492Q180.749 0.16439 177.418 5.7994Q174.087 11.4344 168.462 14.7658Q162.837 18.0973 155.898 18.0973Q148.978 18.0973 143.343 14.7658Q137.708 11.4344 134.407 5.7994Q131.105 0.16439 131.105-6.77492Q131.105-11.9486 133.058-16.5754Q134.603-20.0658 133.3-22.5706Q131.996-25.0754 129.695-25.8892Q127.611-26.703 125.189-25.8508Q122.766-24.9986 121.516-22.1259Q119.957-18.5802 119.086-14.6807Q118.215-10.7811 118.215-6.77492Q118.215 3.65484 123.307 12.2186Q128.398 20.7823 136.973 25.8741Q145.547 30.966 155.898 30.966Q166.327 30.966 174.891 25.8741Q183.455 20.7823 188.547 12.2186Q193.639 3.65484 193.639-6.77492Q193.639-15.243 190.147-22.584Q186.656-29.925 180.711-35.1119Q178.272-37.2512 175.631-36.8968Q172.989-36.5423 171.362-34.8367Q169.736-33.0518 169.738-30.3698Q169.741-27.6877 172.478-25.1683ZM153.154-70.6613Q159.558-70.6613 164.091-75.2136Q168.625-79.7659 168.625-86.1526Q168.625-92.5561 164.091-97.1Q159.558-101.644 153.154-101.644Q146.768-101.644 142.205-97.1Q137.642-92.5561 137.642-86.1526Q137.642-79.7659 142.205-75.2136Q146.768-70.6613 153.154-70.6613Z"/>
  </g>
  <g id="Heavy-L" transform="matrix(1 0 0 1 2534.18 1556)">
   <path d="M102.5 1.50123Q105.577 1.50123 107.743-0.661853Q109.909-2.82493 109.909-5.90814L109.909-38.7465Q109.909-41.508 107.883-43.7336L91.1489-62.4372Q90.6683-63.0039 90.9488-63.6214Q91.2293-64.239 91.9392-64.239L112.381-64.239Q113.818-64.239 114.313-63.5159Q114.808-62.7928 114.808-61.5764L114.808-45.3582Q114.808-42.3052 116.981-40.1198Q119.154-37.9345 122.237-37.9345L148.547-37.9345Q151.586-37.9345 153.734-40.1198Q155.882-42.3052 155.882-45.3582Q155.882-48.3969 153.734-50.5851Q151.586-52.7733 148.547-52.7733L129.652-52.7733L129.652-74.9074Q129.652-80.8219 125.581-84.8931Q121.51-88.9643 115.62-88.9643L83.6302-88.9643Q78.3264-88.9643 74.0212-86.0517Q69.7159-83.1392 67.6487-78.3123Q65.6016-73.4297 66.6626-68.3364Q67.7236-63.2432 71.3967-59.4651L95.115-35.6274L95.115-5.90814Q95.115-2.82493 97.2808-0.661853Q99.4467 1.50123 102.5 1.50123ZM52.8826 29.3974Q63.0423 29.3974 71.382 24.4344Q79.7218 19.4713 84.6725 11.1271Q89.6233 2.78293 89.6233-7.40683Q89.6233-17.5665 84.6725-25.9285Q79.7218-34.2906 71.382-39.2414Q63.0423-44.1922 52.8826-44.1922Q42.6984-44.1922 34.3514-39.2414Q26.0045-34.2906 21.0442-25.9285Q16.084-17.5665 16.084-7.40683Q16.084 2.78293 21.0442 11.1271Q26.0045 19.4713 34.3514 24.4344Q42.6984 29.3974 52.8826 29.3974ZM52.8826 17.6021Q45.9251 17.6021 40.2559 14.2456Q34.5867 10.8891 31.2302 5.21986Q27.8736-0.449356 27.8736-7.40683Q27.8736-14.3398 31.2302-20.009Q34.5867-25.6782 40.2559-29.0124Q45.9251-32.3466 52.8826-32.3466Q59.8156-32.3466 65.4848-29.0124Q71.154-25.6782 74.4882-20.009Q77.8225-14.3398 77.8225-7.40683Q77.8225-0.449356 74.4882 5.21986Q71.154 10.8891 65.4848 14.2456Q59.8156 17.6021 52.8826 17.6021ZM168.793-25.905Q172.603-22.4916 174.859-17.7472Q177.115-13.0028 177.115-7.40683Q177.115-0.449356 173.758 5.21986Q170.402 10.8891 164.747 14.2456Q159.093 17.6021 152.136 17.6021Q145.203 17.6021 139.534 14.2456Q133.865 10.8891 130.533 5.21986Q127.202-0.449356 127.202-7.40683Q127.202-12.6119 129.173-17.2619Q130.591-20.4942 129.414-22.793Q128.238-25.0917 126.104-25.8465Q124.17-26.6013 121.96-25.8147Q119.75-25.0282 118.596-22.3866Q117.082-18.9088 116.229-15.1201Q115.376-11.3314 115.376-7.40683Q115.376 2.78293 120.336 11.1271Q125.297 19.4713 133.659 24.4344Q142.021 29.3974 152.136 29.3974Q162.32 29.3974 170.667 24.4344Q179.014 19.4713 183.977 11.1271Q188.94 2.78293 188.94-7.40683Q188.94-15.6802 185.534-22.8221Q182.129-29.964 176.329-35.0422Q174.076-37.0094 171.661-36.6957Q169.245-36.382 167.741-34.8034Q166.237-33.1497 166.249-30.6942Q166.26-28.2386 168.793-25.905ZM150.086-70.0931Q156.298-70.0931 160.706-74.5083Q165.114-78.9236 165.114-85.1509Q165.114-91.3625 160.706-95.7856Q156.298-100.209 150.086-100.209Q143.859-100.209 139.428-95.7856Q134.998-91.3625 134.998-85.1509Q134.998-78.9236 139.428-74.5083Q143.859-70.0931 150.086-70.0931Z"/>
  </g>
  <g id="Bold-L" transform="matrix(1 0 0 1 2240.52 1556)">
   <path d="M99.4459 0.894476Q102.339 0.894476 104.385-1.14554Q106.432-3.18555 106.432-6.09165L106.432-38.3631Q106.432-40.9475 104.514-43.0423L87.9549-61.5475Q87.3816-62.2146 87.7085-62.9517Q88.0354-63.6889 88.9073-63.6889L109.151-63.6889Q110.711-63.6889 111.276-62.8501Q111.84-62.0112 111.84-60.7715L111.84-44.8367Q111.84-41.9685 113.882-39.914Q115.925-37.8595 118.831-37.8595L144.673-37.8595Q147.551-37.8595 149.572-39.914Q151.593-41.9685 151.593-44.8367Q151.593-47.7138 149.572-49.775Q147.551-51.8362 144.673-51.8362L125.83-51.8362L125.83-73.8725Q125.83-79.5565 121.917-83.4701Q118.003-87.3837 112.344-87.3837L80.906-87.3837Q75.7788-87.3837 71.6196-84.571Q67.4604-81.7583 65.4779-77.1005Q63.5-72.3871 64.5226-67.4668Q65.5452-62.5465 69.0874-58.899L92.4846-35.4056L92.4846-6.09165Q92.4846-3.18555 94.5311-1.14554Q96.5777 0.894476 99.4459 0.894476ZM51.6103 27.3939Q61.4404 27.3939 69.5004 22.607Q77.5604 17.8201 82.3349 9.77099Q87.1094 1.72191 87.1094-8.14582Q87.1094-17.9757 82.3349-26.0504Q77.5604-34.125 69.5004-38.8996Q61.4404-43.6741 51.6103-43.6741Q41.7557-43.6741 33.7001-38.8996Q25.6444-34.125 20.8642-26.0504Q16.084-17.9757 16.084-8.14582Q16.084 1.72191 20.8642 9.77099Q25.6444 17.8201 33.7001 22.607Q41.7557 27.3939 51.6103 27.3939ZM51.6103 17.0322Q44.6299 17.0322 38.9184 13.6449Q33.2069 10.2576 29.8196 4.54614Q26.4323-1.16537 26.4323-8.14582Q26.4323-15.1017 29.8196-20.8131Q33.2069-26.5245 38.9184-29.8972Q44.6299-33.2699 51.6103-33.2699Q58.5662-33.2699 64.2777-29.8972Q69.9893-26.5245 73.3619-20.8131Q76.7346-15.1017 76.7346-8.14582Q76.7346-1.16537 73.3619 4.54614Q69.9893 10.2576 64.2777 13.6449Q58.5662 17.0322 51.6103 17.0322ZM164.05-26.7747Q167.868-23.3458 170.15-18.5591Q172.433-13.7725 172.433-8.14582Q172.433-1.16537 169.046 4.54614Q165.658 10.2576 159.966 13.6449Q154.273 17.0322 147.293 17.0322Q140.337 17.0322 134.626 13.6449Q128.914 10.2576 125.548 4.54614Q122.182-1.16537 122.182-8.14582Q122.182-13.3968 124.177-18.0701Q125.426-20.9574 124.418-22.9801Q123.41-25.0029 121.499-25.681Q119.764-26.359 117.842-25.6606Q115.919-24.9623 114.887-22.6273Q113.434-19.2414 112.608-15.6022Q111.782-11.963 111.782-8.14582Q111.782 1.72191 116.563 9.77099Q121.343 17.8201 129.418 22.607Q137.492 27.3939 147.293 27.3939Q157.148 27.3939 165.203 22.607Q173.259 17.8201 178.046 9.77099Q182.833 1.72191 182.833-8.14582Q182.833-16.1586 179.546-23.0322Q176.259-29.9058 170.651-34.8385Q168.643-36.5755 166.531-36.3155Q164.418-36.0555 163.075-34.6457Q161.732-33.1683 161.759-31.0156Q161.785-28.8628 164.05-26.7747ZM146.089-69.2969Q152.07-69.2969 156.324-73.5467Q160.578-77.7966 160.578-83.8243Q160.578-89.8052 156.324-94.0784Q152.07-98.3517 146.089-98.3517Q140.061-98.3517 135.792-94.0784Q131.523-89.8052 131.523-83.8243Q131.523-77.7966 135.792-73.5467Q140.061-69.2969 146.089-69.2969Z"/>
  </g>
  <g id="Semibold-L" transform="matrix(1 0 0 1 1945.91 1556)">
   <path d="M97.3406 0.476183Q100.106 0.476183 102.071-1.47899Q104.035-3.43415 104.035-6.21816L104.035-38.0988Q104.035-40.5611 102.191-42.5656L85.7531-60.9342Q85.1158-61.6705 85.4747-62.49Q85.8335-63.3096 86.8172-63.3096L106.924-63.3096Q108.57-63.3096 109.182-62.391Q109.794-61.4724 109.794-60.2166L109.794-44.4772Q109.794-41.7364 111.746-39.7721Q113.698-37.8078 116.482-37.8078L142.003-37.8078Q144.769-37.8078 146.702-39.7721Q148.635-41.7364 148.635-44.4772Q148.635-47.2429 146.702-49.2165Q144.769-51.1901 142.003-51.1901L123.195-51.1901L123.195-73.1591Q123.195-78.6842 119.391-82.4891Q115.586-86.294 110.085-86.294L79.0279-86.294Q74.0224-86.294 69.964-83.5502Q65.9055-80.8064 63.9813-76.2651Q62.0511-71.6684 63.0472-66.8672Q64.0434-62.0661 67.4955-58.5087L90.6712-35.2526L90.6712-6.21816Q90.6712-3.43415 92.6355-1.47899Q94.5999 0.476183 97.3406 0.476183ZM50.7332 26.0126Q60.336 26.0126 68.2032 21.3472Q76.0703 16.6817 80.7233 8.83609Q85.3763 0.990446 85.3763-8.65527Q85.3763-18.2578 80.7233-26.1343Q76.0703-34.0109 68.2032-38.6639Q60.336-43.3169 50.7332-43.3169Q41.1058-43.3169 33.251-38.6639Q25.3962-34.0109 20.7401-26.1343Q16.084-18.2578 16.084-8.65527Q16.084 0.990446 20.7401 8.83609Q25.3962 16.6817 33.251 21.3472Q41.1058 26.0126 50.7332 26.0126ZM50.7332 16.6393Q43.7369 16.6393 37.9963 13.2308Q32.2556 9.82234 28.8472 4.08168Q25.4387-1.65899 25.4387-8.65527Q25.4387-15.627 28.8472-21.3675Q32.2556-27.108 37.9963-30.5072Q43.7369-33.9063 50.7332-33.9063Q57.7049-33.9063 63.4456-30.5072Q69.1863-27.108 72.5854-21.3675Q75.9846-15.627 75.9846-8.65527Q75.9846-1.65899 72.5854 4.08168Q69.1863 9.82234 63.4456 13.2308Q57.7049 16.6393 50.7332 16.6393ZM160.78-27.3742Q164.603-23.9347 166.904-19.1189Q169.206-14.303 169.206-8.65527Q169.206-1.65899 165.797 4.08168Q162.388 9.82234 156.67 13.2308Q150.951 16.6393 143.954 16.6393Q136.983 16.6393 131.242 13.2308Q125.502 9.82234 122.112 4.08168Q118.722-1.65899 118.722-8.65527Q118.722-13.9379 120.732-18.6272Q121.865-21.2766 120.973-23.1091Q120.082-24.9416 118.324-25.5668Q116.727-26.192 115.002-25.5544Q113.278-24.9168 112.331-22.7933Q110.92-19.4708 110.112-15.9346Q109.305-12.3985 109.305-8.65527Q109.305 0.990446 113.961 8.83609Q118.617 16.6817 126.494 21.3472Q134.37 26.0126 143.954 26.0126Q153.582 26.0126 161.437 21.3472Q169.291 16.6817 173.957 8.83609Q178.622 0.990446 178.622-8.65527Q178.622-16.4884 175.417-23.177Q172.212-29.8656 166.736-34.698Q164.898-36.2764 162.994-36.0535Q161.09-35.8305 159.858-34.537Q158.626-33.181 158.663-31.2371Q158.7-29.2932 160.78-27.3742ZM143.333-68.748Q149.155-68.748 153.303-72.8838Q157.451-77.0197 157.451-82.9097Q157.451-88.7315 153.303-92.9015Q149.155-97.0714 143.333-97.0714Q137.443-97.0714 133.286-92.9015Q129.128-88.7315 129.128-82.9097Q129.128-77.0197 133.286-72.8838Q137.443-68.748 143.333-68.748Z"/>
  </g>
  <g id="Medium-L" transform="matrix(1 0 0 1 1650.8 1556)">
   <path d="M95.7443 0.159017Q98.4135 0.159017 100.315-1.73182Q102.217-3.62266 102.217-6.31409L102.217-37.8984Q102.217-40.2682 100.43-42.2043L84.0835-60.4691Q83.3978-61.2579 83.7809-62.14Q84.1639-63.0221 85.2323-63.0221L105.236-63.0221Q106.946-63.0221 107.594-62.043Q108.243-61.0639 108.243-59.7958L108.243-44.2045Q108.243-41.5604 110.127-39.6645Q112.01-37.7686 114.702-37.7686L139.978-37.7686Q142.659-37.7686 144.526-39.6645Q146.393-41.5604 146.393-44.2045Q146.393-46.8858 144.526-48.7931Q142.659-50.7003 139.978-50.7003L121.198-50.7003L121.198-72.6182Q121.198-78.0228 117.475-81.7452Q113.753-85.4677 108.373-85.4677L77.6039-85.4677Q72.6907-85.4677 68.7086-82.7761Q64.7265-80.0846 62.8465-75.6317Q60.9525-71.1234 61.9286-66.4127Q62.9047-61.7019 66.2883-58.2128L89.2962-35.1367L89.2962-6.31409Q89.2962-3.62266 91.1982-1.73182Q93.1002 0.159017 95.7443 0.159017ZM50.0682 24.9653Q59.4987 24.9653 67.2196 20.3919Q74.9405 15.8186 79.5013 8.12721Q84.0622 0.43582 84.0622-9.04156Q84.0622-18.4717 79.5013-26.198Q74.9405-33.9244 67.2196-38.4852Q59.4987-43.046 50.0682-43.046Q40.6131-43.046 32.9105-38.4852Q25.208-33.9244 20.646-26.198Q16.084-18.4717 16.084-9.04156Q16.084 0.43582 20.646 8.12721Q25.208 15.8186 32.9105 20.3919Q40.6131 24.9653 50.0682 24.9653ZM50.0682 16.3413Q43.0599 16.3413 37.2971 12.9168Q31.5343 9.49228 28.1098 3.7295Q24.6853-2.03328 24.6853-9.04156Q24.6853-16.0252 28.1098-21.7878Q31.5343-27.5504 37.2971-30.9697Q43.0599-34.389 50.0682-34.389Q57.0518-34.389 62.8146-30.9697Q68.5774-27.5504 71.9967-21.7878Q75.416-16.0252 75.416-9.04156Q75.416-2.03328 71.9967 3.7295Q68.5774 9.49228 62.8146 12.9168Q57.0518 16.3413 50.0682 16.3413ZM158.301-27.8288Q162.128-24.3812 164.443-19.5433Q166.758-14.7054 166.758-9.04156Q166.758-2.03328 163.334 3.7295Q159.909 9.49228 154.17 12.9168Q148.431 16.3413 141.423 16.3413Q134.439 16.3413 128.677 12.9168Q122.914 9.49228 119.506 3.7295Q116.098-2.03328 116.098-9.04156Q116.098-14.3482 118.12-19.0496Q119.165-21.5187 118.362-23.207Q117.558-24.8952 115.916-25.4803Q114.423-26.0654 112.849-25.4738Q111.275-24.8823 110.392-22.9191Q109.013-19.6447 108.22-16.1867Q107.427-12.7286 107.427-9.04156Q107.427 0.43582 111.989 8.12721Q116.551 15.8186 124.277 20.3919Q132.003 24.9653 141.423 24.9653Q150.878 24.9653 158.58 20.3919Q166.283 15.8186 170.856 8.12721Q175.43 0.43582 175.43-9.04156Q175.43-16.7385 172.287-23.2868Q169.144-29.8352 163.768-34.5915Q162.058-36.0496 160.312-35.8547Q158.567-35.6598 157.419-34.4545Q156.271-33.1907 156.316-31.4051Q156.361-29.6195 158.301-27.8288ZM141.243-68.3317Q146.945-68.3317 151.013-72.3812Q155.081-76.4306 155.081-82.2162Q155.081-87.9174 151.013-92.0091Q146.945-96.1007 141.243-96.1007Q135.458-96.1007 131.385-92.0091Q127.312-87.9174 127.312-82.2162Q127.312-76.4306 131.385-72.3812Q135.458-68.3317 141.243-68.3317Z"/>
  </g>
  <g id="Regular-L" transform="matrix(1 0 0 1 1356.17 1556)">
   <path d="M93.6622-0.254679Q96.2054-0.254679 98.0261-2.0616Q99.8467-3.86853 99.8467-6.43921L99.8467-37.637Q99.8467-39.886 98.1328-41.7329L81.9058-59.8625Q81.1569-60.7197 81.5716-61.6834Q81.9862-62.647 83.1651-62.647L103.033-62.647Q104.828-62.647 105.524-61.589Q106.22-60.531 106.22-59.247L106.22-43.8489Q106.22-41.3308 108.014-39.5241Q109.809-37.7174 112.379-37.7174L137.337-37.7174Q139.908-37.7174 141.688-39.5241Q143.469-41.3308 143.469-43.8489Q143.469-46.4201 141.688-48.2407Q139.908-50.0614 137.337-50.0614L118.592-50.0614L118.592-71.9126Q118.592-77.16 114.977-80.775Q111.362-84.39 106.14-84.39L75.7464-84.39Q70.9537-84.39 67.0712-81.7665Q63.1886-79.1431 61.3664-74.8055Q59.5195-70.4125 60.4694-65.8197Q61.4194-61.2269 64.7139-57.8269L87.5028-34.9854L87.5028-6.43921Q87.5028-3.86853 89.3234-2.0616Q91.144-0.254679 93.6622-0.254679ZM49.2007 23.5992Q58.4065 23.5992 65.9366 19.146Q73.4668 14.6928 77.9074 7.20258Q82.3481-0.287605 82.3481-9.54542Q82.3481-18.7507 77.9074-26.2811Q73.4668-33.8115 65.9366-38.2521Q58.4065-42.6928 49.2007-42.6928Q39.9703-42.6928 32.4664-38.2521Q24.9625-33.8115 20.5233-26.2811Q16.084-18.7507 16.084-9.54542Q16.084-0.287605 20.5233 7.20258Q24.9625 14.6928 32.4664 19.146Q39.9703 23.5992 49.2007 23.5992ZM49.2007 15.9527Q42.1768 15.9527 36.3852 12.5072Q30.5935 9.06175 27.1481 3.27014Q23.7026-2.52147 23.7026-9.54542Q23.7026-16.5447 27.1481-22.3361Q30.5935-28.1275 36.3852-31.573Q42.1768-35.0185 49.2007-35.0185Q56.2-35.0185 61.9916-31.573Q67.7832-28.1275 71.2287-22.3361Q74.6742-16.5447 74.6742-9.54542Q74.6742-2.52147 71.2287 3.27014Q67.7832 9.06175 61.9916 12.5072Q56.2 15.9527 49.2007 15.9527ZM155.067-28.4217Q158.899-24.9637 161.233-20.0969Q163.566-15.2301 163.566-9.54542Q163.566-2.52147 160.121 3.27014Q156.675 9.06175 150.91 12.5072Q145.145 15.9527 138.121 15.9527Q131.122 15.9527 125.33 12.5072Q119.539 9.06175 116.107 3.27014Q112.675-2.52147 112.675-9.54542Q112.675-14.8833 114.714-19.6007Q115.643-21.8345 114.955-23.3346Q114.266-24.8346 112.776-25.3674Q111.419-25.9002 110.041-25.3688Q108.663-24.8374 107.864-23.0833Q106.527-19.8715 105.751-16.5154Q104.976-13.1593 104.976-9.54542Q104.976-0.287605 109.416 7.20258Q113.855 14.6928 121.385 19.146Q128.916 23.5992 138.121 23.5992Q147.351 23.5992 154.855 19.146Q162.359 14.6928 166.812 7.20258Q171.265-0.287605 171.265-9.54542Q171.265-17.0646 168.203-23.4301Q165.141-29.7955 159.896-34.4526Q158.354-35.7538 156.815-35.5955Q155.275-35.4372 154.238-34.347Q153.2-33.2033 153.255-31.6243Q153.31-30.0452 155.067-28.4217ZM138.518-67.7888Q144.062-67.7888 148.025-71.7255Q151.988-75.6622 151.988-81.3117Q151.988-86.8556 148.025-90.8451Q144.062-94.8345 138.518-94.8345Q132.869-94.8345 128.906-90.8451Q124.943-86.8556 124.943-81.3117Q124.943-75.6622 128.906-71.7255Q132.869-67.7888 138.518-67.7888Z"/>
  </g>
  <g id="Light-L" transform="matrix(1 0 0 1 1062.49 1556)">
   <path d="M90.6467-0.731815Q93.1137-0.731815 94.8865-2.4815Q96.6594-4.23119 96.6594-6.74448L96.6594-37.2173Q96.6594-39.4089 94.9836-41.1984L79.1575-58.9082Q78.4467-59.7465 78.8423-60.6815Q79.2379-61.6164 80.3979-61.6164L99.7697-61.6164Q101.526-61.6164 102.203-60.5775Q102.88-59.5385 102.88-58.312L102.88-43.2762Q102.88-40.7963 104.636-39.047Q106.392-37.2977 108.906-37.2977L133.272-37.2977Q135.786-37.2977 137.518-39.047Q139.251-40.7963 139.251-43.2762Q139.251-45.7903 137.518-47.5632Q135.786-49.336 133.272-49.336L114.965-49.336L114.965-70.672Q114.965-75.7668 111.436-79.2958Q107.907-82.8249 102.8-82.8249L73.1318-82.8249Q68.4725-82.8249 64.6855-80.2779Q60.8985-77.7309 59.0952-73.5078Q57.3057-69.1912 58.2175-64.7032Q59.1293-60.2152 62.3663-56.9108L84.621-34.6228L84.621-6.74448Q84.621-4.23119 86.3939-2.4815Q88.1667-0.731815 90.6467-0.731815ZM47.6356 21.8244Q56.479 21.8244 63.656 17.6001Q70.8329 13.3758 75.0637 6.23869Q79.2945-0.898454 79.2945-9.77437Q79.2945-18.617 75.0637-25.7943Q70.8329-32.9717 63.656-37.2025Q56.479-41.4333 47.6356-41.4333Q38.806-41.4333 31.6457-37.2025Q24.4854-32.9717 20.2847-25.7943Q16.084-18.617 16.084-9.77437Q16.084-0.898454 20.2847 6.23869Q24.4854 13.3758 31.6457 17.6001Q38.806 21.8244 47.6356 21.8244ZM47.6356 15.8383Q40.5927 15.8383 34.7724 12.3737Q28.9521 8.90912 25.4875 3.08881Q22.023-2.7315 22.023-9.77437Q22.023-16.8311 25.4875-22.651Q28.9521-28.4709 34.7724-31.9355Q40.5927-35.4 47.6356-35.4Q54.6923-35.4 60.5126-31.9355Q66.3329-28.4709 69.7975-22.651Q73.2621-16.8311 73.2621-9.77437Q73.2621-2.7315 69.7975 3.08881Q66.3329 8.90912 60.5126 12.3737Q54.6923 15.8383 47.6356 15.8383ZM150.639-28.7462Q154.453-25.2882 156.815-20.3927Q159.177-15.4972 159.177-9.77437Q159.177-2.7315 155.712 3.08881Q152.247 8.90912 146.444 12.3737Q140.641 15.8383 133.598 15.8383Q126.541 15.8383 120.721 12.3737Q114.901 8.90912 111.46 3.08881Q108.018-2.7315 108.018-9.77437Q108.018-15.1886 110.076-19.887Q110.815-21.7201 110.317-22.8956Q109.819-24.0711 108.578-24.5276Q107.45-24.984 106.424-24.5577Q105.399-24.1313 104.714-22.7206Q103.454-19.6233 102.726-16.4485Q101.999-13.2737 101.999-9.77437Q101.999-0.898454 106.2 6.23869Q110.4 13.3758 117.578 17.6001Q124.755 21.8244 133.598 21.8244Q142.427 21.8244 149.588 17.6001Q156.748 13.3758 160.972 6.23869Q165.196-0.898454 165.196-9.77437Q165.196-16.9883 162.297-23.0293Q159.397-29.0702 154.361-33.5557Q153.086-34.5895 151.9-34.4885Q150.714-34.3874 149.848-33.4883Q148.982-32.5543 149.075-31.3284Q149.169-30.1026 150.639-28.7462ZM134.491-66.6438Q139.92-66.6438 143.788-70.4945Q147.656-74.3453 147.656-79.8421Q147.656-85.2716 143.788-89.156Q139.92-93.0404 134.491-93.0404Q128.995-93.0404 125.127-89.156Q121.259-85.2716 121.259-79.8421Q121.259-74.3453 125.127-70.4945Q128.995-66.6438 134.491-66.6438Z"/>
  </g>
  <g id="Thin-L" transform="matrix(1 0 0 1 769.796 1556)">
   <path d="M86.6586-1.36287Q89.0246-1.36287 90.7342-3.03685Q92.4439-4.71084 92.4439-7.14821L92.4439-36.6621Q92.4439-38.7778 90.8186-40.4914L75.5226-57.6461Q74.8623-58.4594 75.2327-59.3564Q75.603-60.2534 76.738-60.2534L95.4533-60.2534Q97.159-60.2534 97.8108-59.2397Q98.4627-58.226 98.4627-57.0753L98.4627-42.5188Q98.4627-40.0893 100.168-38.4159Q101.874-36.7425 104.312-36.7425L127.895-36.7425Q130.334-36.7425 132.003-38.4159Q133.672-40.0893 133.672-42.5188Q133.672-44.9574 132.003-46.6671Q130.334-48.3767 127.895-48.3767L110.169-48.3767L110.169-69.0312Q110.169-73.9241 106.754-77.3395Q103.339-80.7549 98.3822-80.7549L69.6737-80.7549Q65.1908-80.7549 61.5302-78.309Q57.8696-75.8632 56.0913-71.7915Q54.3777-67.5758 55.2391-63.2265Q56.1004-58.8772 59.2616-55.6991L80.8097-34.1431L80.8097-7.14821Q80.8097-4.71084 82.5194-3.03685Q84.229-1.36287 86.6586-1.36287ZM45.5656 19.477Q53.9298 19.477 60.6396 15.5555Q67.3494 11.6341 71.3026 4.96387Q75.2558-1.70635 75.2558-10.0772Q75.2558-18.4401 71.3026-25.1506Q67.3494-31.861 60.6396-35.8142Q53.9298-39.7674 45.5656-39.7674Q37.2661-39.7674 30.5602-35.8142Q23.8543-31.861 19.9692-25.1506Q16.084-18.4401 16.084-10.0772Q16.084-1.70635 19.9692 4.96387Q23.8543 11.6341 30.5602 15.5555Q37.2661 19.477 45.5656 19.477ZM45.5656 15.6869Q38.4977 15.6869 32.6394 12.1971Q26.7812 8.70725 23.2914 2.84899Q19.8016-3.00928 19.8016-10.0772Q19.8016-17.2098 23.2914-23.0674Q26.7812-28.9251 32.6394-32.4149Q38.4977-35.9047 45.5656-35.9047Q52.6982-35.9047 58.5565-32.4149Q64.4147-28.9251 67.9045-23.0674Q71.3943-17.2098 71.3943-10.0772Q71.3943-3.00928 67.9045 2.84899Q64.4147 8.70725 58.5565 12.1971Q52.6982 15.6869 45.5656 15.6869ZM144.782-29.1754Q148.571-25.7174 150.971-20.7839Q153.372-15.8505 153.372-10.0772Q153.372-3.00928 149.881 2.84899Q146.391 8.70725 140.537 12.1971Q134.683 15.6869 127.615 15.6869Q120.483 15.6869 114.625 12.1971Q108.768 8.70725 105.313 2.84899Q101.859-3.00928 101.859-10.0772Q101.859-15.5923 103.942-20.2657Q104.429-21.5687 104.184-22.315Q103.938-23.0614 103.025-23.4169Q102.199-23.7724 101.641-23.4849Q101.083-23.1974 100.549-22.241Q99.3897-19.2951 98.7255-16.3601Q98.0613-13.4251 98.0613-10.0772Q98.0613-1.70635 101.946 4.96387Q105.832 11.6341 112.542 15.5555Q119.252 19.477 127.615 19.477Q135.915 19.477 142.621 15.5555Q149.327 11.6341 153.248 4.96387Q157.17-1.70635 157.17-10.0772Q157.17-16.8874 154.484-22.4991Q151.799-28.1109 147.041-32.3695Q146.12-33.0497 145.401-33.0243Q144.681-32.9989 144.043-32.3526Q143.403-31.696 143.547-30.9372Q143.691-30.1785 144.782-29.1754ZM129.165-65.1294Q134.443-65.1294 138.184-68.8664Q141.926-72.6035 141.926-77.8985Q141.926-83.1765 138.184-86.9221Q134.443-90.6676 129.165-90.6676Q123.871-90.6676 120.129-86.9221Q116.388-83.1765 116.388-77.8985Q116.388-72.6035 120.129-68.8664Q123.871-65.1294 129.165-65.1294Z"/>
  </g>
  <g id="Ultralight-L" transform="matrix(1 0 0 1 475.14 1556)">
   <path d="M84.6158-1.68609Q86.9302-1.68609 88.6075-3.3213Q90.2848-4.95651 90.2848-7.355L90.2848-36.3778Q90.2848-38.4546 88.6853-40.1293L73.6608-56.9997Q73.0264-57.8001 73.3838-58.6777Q73.7412-59.5553 74.8634-59.5553L93.2424-59.5553Q94.9223-59.5553 95.5612-58.5545Q96.2001-57.5537 96.2001-56.4419L96.2001-42.1309Q96.2001-39.7272 97.88-38.0927Q99.5599-36.4582 101.958-36.4582L125.141-36.4582Q127.541-36.4582 129.178-38.0927Q130.815-39.7272 130.815-42.1309Q130.815-44.5308 129.178-46.2081Q127.541-47.8854 125.141-47.8854L107.713-47.8854L107.713-68.1908Q107.713-72.9803 104.356-76.3374Q100.999-79.6946 96.1197-79.6946L67.9025-79.6946Q63.51-79.6946 59.9141-77.3006Q56.3183-74.9066 54.5528-70.9124Q52.8781-66.7484 53.7135-62.4701Q54.549-58.1919 57.6713-55.0785L78.8576-33.8974L78.8576-7.355Q78.8576-4.95651 80.5349-3.3213Q82.2122-1.68609 84.6158-1.68609ZM44.5054 18.2747Q52.6241 18.2747 59.0946 14.5083Q65.5652 10.742 69.3762 4.31091Q73.1873-2.12015 73.1873-10.2323Q73.1873-18.3496 69.3762-24.8208Q65.5652-31.2921 59.0946-35.1031Q52.6241-38.9142 44.5054-38.9142Q36.4774-38.9142 30.0043-35.1031Q23.5311-31.2921 19.8076-24.8208Q16.084-18.3496 16.084-10.2323Q16.084-2.12015 19.8076 4.31091Q23.5311 10.742 30.0043 14.5083Q36.4774 18.2747 44.5054 18.2747ZM44.5054 15.6093Q37.4247 15.6093 31.5469 12.1066Q25.6692 8.60386 22.1665 2.72615Q18.6638-3.15156 18.6638-10.2323Q18.6638-17.4037 22.1665-23.2807Q25.6692-29.1577 31.5469-32.6605Q37.4247-36.1632 44.5054-36.1632Q51.6768-36.1632 57.5545-32.6605Q63.4323-29.1577 66.935-23.2807Q70.4377-17.4037 70.4377-10.2323Q70.4377-3.15156 66.935 2.72615Q63.4323 8.60386 57.5545 12.1066Q51.6768 15.6093 44.5054 15.6093ZM141.783-29.3952Q145.559-25.9372 147.978-20.9843Q150.398-16.0314 150.398-10.2323Q150.398-3.15156 146.895 2.72615Q143.391 8.60386 137.512 12.1066Q131.632 15.6093 124.551 15.6093Q117.38 15.6093 111.503 12.1066Q105.626 8.60386 102.165 2.72615Q98.7046-3.15156 98.7046-10.2323Q98.7046-15.7991 100.801-20.4597Q101.158-21.4911 101.042-22.0176Q100.926-22.5442 100.18-22.848Q99.5101-23.1518 99.191-22.9355Q98.8718-22.7191 98.4161-21.9953Q97.3081-19.127 96.6762-16.3148Q96.0444-13.5027 96.0444-10.2323Q96.0444-2.12015 99.768 4.31091Q103.492 10.742 109.963 14.5083Q116.434 18.2747 124.551 18.2747Q132.579 18.2747 139.052 14.5083Q145.526 10.742 149.292 4.31091Q153.058-2.12015 153.058-10.2323Q153.058-16.8357 150.483-22.2276Q147.908-27.6196 143.292-31.7619Q142.551-32.2609 142.071-32.2743Q141.591-32.2877 141.069-31.7709Q140.546-31.2563 140.716-30.7368Q140.885-30.2174 141.783-29.3952ZM126.437-64.3537Q131.637-64.3537 135.314-68.0325Q138.991-71.7114 138.991-76.903Q138.991-82.1035 135.314-85.7779Q131.637-89.4523 126.437-89.4523Q121.247-89.4523 117.57-85.7779Q113.893-82.1035 113.893-76.903Q113.893-71.7114 117.57-68.0325Q121.247-64.3537 126.437-64.3537Z"/>
  </g>
  <g id="Black-M" transform="matrix(1 0 0 1 2850.55 1126)">
   <path d="M82.8457-6.04869Q85.4738-6.04869 87.3098-7.88482Q89.1458-9.72096 89.1458-12.3488L89.1458-38.3715Q89.1458-40.7501 87.432-42.646L74.3473-57.2834Q74.1233-57.5693 74.2665-57.8633Q74.4096-58.1572 74.7164-58.1572L90.6737-58.1572Q91.5934-58.1572 91.869-57.7726Q92.1445-57.3879 92.1445-56.4992L92.1445-43.6436Q92.1445-41.0212 94.0063-39.1566Q95.8681-37.2919 98.496-37.2919L119.361-37.2919Q121.932-37.2919 123.765-39.1566Q125.599-41.0212 125.599-43.6436Q125.599-46.2144 123.765-48.0789Q121.932-49.9435 119.361-49.9435L104.796-49.9435L104.796-67.0591Q104.796-71.9261 101.441-75.2813Q98.0854-78.6365 93.2241-78.6365L67.8816-78.6365Q63.56-78.6365 60.0437-76.2601Q56.5273-73.8837 54.8086-69.9361Q53.1411-65.9321 54.0061-61.7692Q54.8711-57.6064 57.8885-54.521L76.5513-35.7384L76.5513-12.3488Q76.5513-9.72096 78.3873-7.88482Q80.2233-6.04869 82.8457-6.04869ZM42.2963 17.1626Q50.5257 17.1626 57.2752 13.138Q64.0248 9.11344 68.0465 2.33793Q72.0681-4.43759 72.0681-12.6725Q72.0681-20.9019 68.0465-27.68Q64.0248-34.4581 57.2752-38.4798Q50.5257-42.5015 42.2963-42.5015Q34.0611-42.5015 27.2857-38.4798Q20.5103-34.4581 16.4856-27.68Q12.4609-20.9019 12.4609-12.6725Q12.4609-4.43759 16.4856 2.33793Q20.5103 9.11344 27.2857 13.138Q34.0611 17.1626 42.2963 17.1626ZM42.2963 6.49502Q36.9331 6.49502 32.593 3.933Q28.2528 1.37098 25.6908-2.96919Q23.1288-7.30935 23.1288-12.6725Q23.1288-18.0298 25.6908-22.37Q28.2528-26.7102 32.593-29.2436Q36.9331-31.7771 42.2963-31.7771Q47.6536-31.7771 51.9938-29.2436Q56.3339-26.7102 58.8674-22.37Q61.4009-18.0298 61.4009-12.6725Q61.4009-7.30935 58.8674-2.96919Q56.3339 1.37098 51.9938 3.933Q47.6536 6.49502 42.2963 6.49502ZM136.193-26.8455Q139.127-24.2235 140.845-20.5998Q142.563-16.9761 142.563-12.6725Q142.563-7.30935 140.001-2.96919Q137.439 1.37098 133.102 3.933Q128.764 6.49502 123.401 6.49502Q118.044 6.49502 113.704 3.933Q109.364 1.37098 106.83-2.96919Q104.296-7.30935 104.296-12.6725Q104.296-16.6641 105.797-20.2261Q107.076-23.0979 105.983-25.1716Q104.89-27.2453 102.997-27.9161Q101.285-28.587 99.2736-27.8846Q97.2618-27.1821 96.227-24.8044Q94.9902-22.0147 94.3067-18.9228Q93.6233-15.8309 93.6233-12.6725Q93.6233-4.43759 97.648 2.33793Q101.673 9.11344 108.451 13.138Q115.229 17.1626 123.401 17.1626Q131.636 17.1626 138.412 13.138Q145.187 9.11344 149.212 2.33793Q153.236-4.43759 153.236-12.6725Q153.236-19.359 150.48-25.1736Q147.723-30.9882 143.021-35.0768Q141.008-36.8459 138.814-36.544Q136.621-36.242 135.279-34.8374Q133.937-33.3703 133.936-31.1456Q133.936-28.9209 136.193-26.8455ZM120.747-63.0132Q125.857-63.0132 129.464-66.6462Q133.071-70.2792 133.071-75.3436Q133.071-80.4541 129.464-84.064Q125.857-87.6739 120.747-87.6739Q115.682-87.6739 112.046-84.064Q108.411-80.4541 108.411-75.3436Q108.411-70.2792 112.046-66.6462Q115.682-63.0132 120.747-63.0132Z"/>
  </g>
  <g id="Heavy-M" transform="matrix(1 0 0 1 2555.86 1126)">
   <path d="M80.8248-6.47642Q83.3079-6.47642 85.0499-8.21731Q86.7919-9.95819 86.7919-12.4436L86.7919-38.1266Q86.7919-40.3628 85.1641-42.1567L72.1465-56.7109Q71.8334-57.0886 72.0211-57.4932Q72.2088-57.8978 72.6613-57.8978L88.5522-57.8978Q89.588-57.8978 89.9284-57.408Q90.2687-56.9181 90.2687-55.9966L90.2687-43.3109Q90.2687-40.8418 92.0244-39.0792Q93.78-37.3165 96.2654-37.3165L116.849-37.3165Q119.291-37.3165 121.024-39.0792Q122.756-40.8418 122.756-43.3109Q122.756-45.7527 121.024-47.5165Q119.291-49.2804 116.849-49.2804L102.235-49.2804L102.235-66.4212Q102.235-71.1196 98.999-74.3555Q95.7631-77.5914 91.0789-77.5914L66.0626-77.5914Q61.8666-77.5914 58.4574-75.2859Q55.0482-72.9803 53.3994-69.1559Q51.78-65.2834 52.6197-61.2491Q53.4594-57.2148 56.3747-54.2231L74.8717-35.6225L74.8717-12.4436Q74.8717-9.95819 76.6137-8.21731Q78.3557-6.47642 80.8248-6.47642ZM41.5206 15.7929Q49.5398 15.7929 56.1208 11.8731Q62.7018 7.95336 66.6145 1.35989Q70.5272-5.23358 70.5272-13.2691Q70.5272-21.2882 66.6145-27.891Q62.7018-34.4938 56.1208-38.4065Q49.5398-42.3192 41.5206-42.3192Q33.4874-42.3192 26.8928-38.4065Q20.2982-34.4938 16.3796-27.891Q12.4609-21.2882 12.4609-13.2691Q12.4609-5.23358 16.3796 1.35989Q20.2982 7.95336 26.8928 11.8731Q33.4874 15.7929 41.5206 15.7929ZM41.5206 6.02155Q36.1415 6.02155 31.7705 3.43676Q27.3996 0.851968 24.8148-3.51899Q22.23-7.88995 22.23-13.2691Q22.23-18.6341 24.8148-23.0051Q27.3996-27.376 31.7705-29.939Q36.1415-32.502 41.5206-32.502Q46.8857-32.502 51.2566-29.939Q55.6276-27.376 58.1906-23.0051Q60.7536-18.6341 60.7536-13.2691Q60.7536-7.88995 58.1906-3.51899Q55.6276 0.851968 51.2566 3.43676Q46.8857 6.02155 41.5206 6.02155ZM132.999-27.5357Q135.944-24.9003 137.679-21.2458Q139.415-17.5913 139.415-13.2691Q139.415-7.88995 136.83-3.51899Q134.245 0.851968 129.883 3.43676Q125.52 6.02155 120.141 6.02155Q114.776 6.02155 110.405 3.43676Q106.034 0.851968 103.472-3.51899Q100.91-7.88995 100.91-13.2691Q100.91-17.2844 102.426-20.8708Q103.6-23.5272 102.613-25.4294Q101.627-27.3316 99.8742-27.9518Q98.2877-28.5721 96.4512-27.9241Q94.6147-27.2762 93.6626-25.0927Q92.463-22.3587 91.7927-19.3585Q91.1223-16.3583 91.1223-13.2691Q91.1223-5.23358 95.041 1.35989Q98.9596 7.95336 105.562 11.8731Q112.165 15.7929 120.141 15.7929Q128.174 15.7929 134.769 11.8731Q141.363 7.95336 145.283 1.35989Q149.203-5.23358 149.203-13.2691Q149.203-19.7935 146.515-25.4433Q143.827-31.0931 139.248-35.0914Q137.392-36.7169 135.387-36.4496Q133.382-36.1822 132.144-34.8841Q130.906-33.5259 130.91-31.49Q130.915-29.4541 132.999-27.5357ZM118.118-62.5634Q123.052-62.5634 126.545-66.0703Q130.039-69.5773 130.039-74.4999Q130.039-79.4334 126.545-82.9349Q123.052-86.4364 118.118-86.4364Q113.196-86.4364 109.681-82.9349Q106.166-79.4334 106.166-74.4999Q106.166-69.5773 109.681-66.0703Q113.196-62.5634 118.118-62.5634Z"/>
  </g>
  <g id="Bold-M" transform="matrix(1 0 0 1 2261.4 1126)">
   <path d="M78.564-6.95491Q80.885-6.95491 82.5219-8.58924Q84.1588-10.2236 84.1588-12.5497L84.1588-37.8527Q84.1588-39.9296 82.6271-41.6093L69.6846-56.0704Q69.2717-56.5509 69.5093-57.0793Q69.747-57.6077 70.3624-57.6077L86.1789-57.6077Q87.3447-57.6077 87.7576-57.0001Q88.1704-56.3925 88.1704-55.4344L88.1704-42.9387Q88.1704-40.6411 89.8073-38.9926Q91.4441-37.344 93.7702-37.344L114.039-37.344Q116.337-37.344 117.957-38.9926Q119.577-40.6411 119.577-42.9387Q119.577-45.2363 117.957-46.8874Q116.337-48.5386 114.039-48.5386L99.3702-48.5386L99.3702-65.7077Q99.3702-70.2174 96.2677-73.3199Q93.1653-76.4223 88.6791-76.4223L64.0277-76.4223Q59.9724-76.4223 56.683-74.1961Q53.3936-71.9698 51.823-68.2831Q50.2574-64.5577 51.0688-60.6672Q51.8802-56.7768 54.6814-53.8898L72.9928-35.4927L72.9928-12.5497Q72.9928-10.2236 74.6296-8.58924Q76.2665-6.95491 78.564-6.95491ZM40.653 14.2607Q48.437 14.2607 54.8294 10.4582Q61.2218 6.65564 65.0126 0.265808Q68.8034-6.12402 68.8034-13.9365Q68.8034-21.7204 65.0126-28.1271Q61.2218-34.5338 54.8294-38.3246Q48.437-42.1154 40.653-42.1154Q32.8456-42.1154 26.4532-38.3246Q20.0609-34.5338 16.2609-28.1271Q12.4609-21.7204 12.4609-13.9365Q12.4609-6.12402 16.2609 0.265808Q20.0609 6.65564 26.4532 10.4582Q32.8456 14.2607 40.653 14.2607ZM40.653 5.49189Q35.256 5.49189 30.8505 2.88164Q26.4451 0.271376 23.8349-4.13403Q21.2246-8.53944 21.2246-13.9365Q21.2246-19.3101 23.8349-23.7155Q26.4451-28.1209 30.8505-30.7168Q35.256-33.3128 40.653-33.3128Q46.0266-33.3128 50.4321-30.7168Q54.8375-28.1209 57.4334-23.7155Q60.0294-19.3101 60.0294-13.9365Q60.0294-8.53944 57.4334-4.13403Q54.8375 0.271376 50.4321 2.88164Q46.0266 5.49189 40.653 5.49189ZM129.426-28.3079Q132.383-25.6573 134.138-21.9684Q135.893-18.2795 135.893-13.9365Q135.893-8.53944 133.283-4.13403Q130.673 0.271376 126.282 2.88164Q121.89 5.49189 116.493 5.49189Q111.12 5.49189 106.714 2.88164Q102.309 0.271376 99.7156-4.13403Q97.1221-8.53944 97.1221-13.9365Q97.1221-17.9783 98.6564-21.5921Q99.7109-24.0075 98.8433-25.7179Q97.9757-27.4282 96.381-27.9918Q94.9344-28.5554 93.294-27.9684Q91.6536-27.3814 90.794-25.4152Q89.6359-22.7436 88.9803-19.8459Q88.3247-16.9482 88.3247-13.9365Q88.3247-6.12402 92.1247 0.265808Q95.9246 6.65564 102.331 10.4582Q108.738 14.2607 116.493 14.2607Q124.301 14.2607 130.693 10.4582Q137.086 6.65564 140.888 0.265808Q144.691-6.12402 144.691-13.9365Q144.691-20.2795 142.08-25.745Q139.469-31.2106 135.027-35.1077Q133.346-36.5726 131.553-36.344Q129.759-36.1153 128.637-34.9363Q127.515-33.6999 127.526-31.8753Q127.536-30.0506 129.426-28.3079ZM115.179-62.0602Q119.914-62.0602 123.28-65.4261Q126.646-68.792 126.646-73.5561Q126.646-78.2916 123.28-81.6718Q119.914-85.0521 115.179-85.0521Q110.415-85.0521 107.034-81.6718Q103.654-78.2916 103.654-73.5561Q103.654-68.792 107.034-65.4261Q110.415-62.0602 115.179-62.0602Z"/>
  </g>
  <g id="Semibold-M" transform="matrix(1 0 0 1 1966.25 1126)">
   <path d="M77.0055-7.28478Q79.2147-7.28478 80.7791-8.84565Q82.3435-10.4065 82.3435-12.6228L82.3435-37.6638Q82.3435-39.6309 80.8781-41.2319L67.9875-55.6289Q67.5057-56.1801 67.7777-56.7939Q68.0498-57.4077 68.7776-57.4077L84.5428-57.4077Q85.7981-57.4077 86.261-56.719Q86.7239-56.0302 86.7239-55.0469L86.7239-42.682Q86.7239-40.5028 88.2788-38.9329Q89.8338-37.363 92.0501-37.363L112.102-37.363Q114.3-37.363 115.842-38.9329Q117.385-40.5028 117.385-42.682Q117.385-44.8803 115.842-46.4537Q114.3-48.0272 112.102-48.0272L97.3952-48.0272L97.3952-65.2159Q97.3952-69.5955 94.3848-72.6059Q91.3744-75.6163 87.0247-75.6163L62.6249-75.6163Q58.6665-75.6163 55.4597-73.4447Q52.2529-71.2731 50.7362-67.6815Q49.2078-64.0574 49.9996-60.2661Q50.7915-56.4749 53.514-53.6601L71.6975-35.4033L71.6975-12.6228Q71.6975-10.4065 73.2618-8.84565Q74.8262-7.28478 77.0055-7.28478ZM40.0549 13.2045Q47.6767 13.2045 53.9391 9.48274Q60.2014 5.761 63.9082-0.488443Q67.615-6.73788 67.615-14.3966Q67.615-22.0183 63.9082-28.2898Q60.2014-34.5613 53.9391-38.2681Q47.6767-41.9749 40.0549-41.9749Q32.4032-41.9749 26.1502-38.2681Q19.8973-34.5613 16.1791-28.2898Q12.4609-22.0183 12.4609-14.3966Q12.4609-6.73788 16.1791-0.488443Q19.8973 5.761 26.1502 9.48274Q32.4032 13.2045 40.0549 13.2045ZM40.0549 5.12676Q34.6455 5.12676 30.2163 2.49894Q25.7871-0.12888 23.1593-4.55804Q20.5315-8.98719 20.5315-14.3966Q20.5315-19.7762 23.1593-24.2053Q25.7871-28.6344 30.2163-31.2531Q34.6455-33.8718 40.0549-33.8718Q45.4344-33.8718 49.8636-31.2531Q54.2927-28.6344 56.9115-24.2053Q59.5302-19.7762 59.5302-14.3966Q59.5302-8.98719 56.9115-4.55804Q54.2927-0.12888 49.8636 2.49894Q45.4344 5.12676 40.0549 5.12676ZM126.963-28.8402Q129.929-26.1793 131.697-22.4666Q133.465-18.754 133.465-14.3966Q133.465-8.98719 130.837-4.55804Q128.21-0.12888 123.799 2.49894Q119.388 5.12676 113.979 5.12676Q108.599 5.12676 104.17 2.49894Q99.7412-0.12888 97.1259-4.55804Q94.5107-8.98719 94.5107-14.3966Q94.5107-18.4567 96.0574-22.0893Q97.0298-24.3386 96.2443-25.9167Q95.4587-27.4948 93.9729-28.0193Q92.6226-28.5438 91.1174-27.9989Q89.6122-27.4539 88.8164-25.6375Q87.687-23.0089 87.0415-20.1819Q86.396-17.3549 86.396-14.3966Q86.396-6.73788 90.1142-0.488443Q93.8323 5.761 100.104 9.48274Q106.375 13.2045 113.979 13.2045Q121.631 13.2045 127.884 9.48274Q134.137 5.761 137.858-0.488443Q141.58-6.73788 141.58-14.3966Q141.58-20.6145 139.022-25.953Q136.465-31.2915 132.117-35.119Q130.558-36.4731 128.91-36.2712Q127.262-36.0692 126.22-34.9723Q125.178-33.8199 125.192-32.1409Q125.206-30.4618 126.963-28.8402ZM113.152-61.7133Q117.751-61.7133 121.029-64.982Q124.307-68.2507 124.307-72.9055Q124.307-77.5044 121.029-80.8011Q117.751-84.0978 113.152-84.0978Q108.497-84.0978 105.21-80.8011Q101.923-77.5044 101.923-72.9055Q101.923-68.2507 105.21-64.982Q108.497-61.7133 113.152-61.7133Z"/>
  </g>
  <g id="Medium-M" transform="matrix(1 0 0 1 1670.71 1126)">
   <path d="M75.8238-7.5349Q77.9482-7.5349 79.4576-9.04007Q80.9671-10.5452 80.9671-12.6782L80.9671-37.5206Q80.9671-39.4044 79.5519-40.9458L66.7006-55.2942Q66.1667-55.899 66.4648-56.5776Q66.7629-57.2561 67.5759-57.2561L83.3022-57.2561Q84.6255-57.2561 85.1262-56.5058Q85.627-55.7555 85.627-54.753L85.627-42.4875Q85.627-40.3979 87.1199-38.8876Q88.6128-37.3774 90.7457-37.3774L110.633-37.3774Q112.756-37.3774 114.239-38.8876Q115.723-40.3979 115.723-42.4875Q115.723-44.6103 114.239-46.1249Q112.756-47.6394 110.633-47.6394L95.8977-47.6394L95.8977-64.8429Q95.8977-69.1239 92.9571-72.0645Q90.0164-75.0052 85.7702-75.0052L61.5613-75.0052Q57.6763-75.0052 54.5322-72.8751Q51.388-70.7449 49.9122-67.2252Q48.4119-63.6781 49.1889-59.962Q49.966-56.2459 52.6288-53.4859L70.7153-35.3355L70.7153-12.6782Q70.7153-10.5452 72.2247-9.04007Q73.7342-7.5349 75.8238-7.5349ZM39.6013 12.4036Q47.1002 12.4036 53.264 8.74312Q59.4278 5.08264 63.0709-1.06035Q66.7139-7.20334 66.7139-14.7455Q66.7139-22.2442 63.0709-28.4132Q59.4278-34.5822 53.264-38.2253Q47.1002-41.8683 39.6013-41.8683Q32.0677-41.8683 25.9205-38.2253Q19.7732-34.5822 16.1171-28.4132Q12.4609-22.2442 12.4609-14.7455Q12.4609-7.20334 16.1171-1.06035Q19.7732 5.08264 25.9205 8.74312Q32.0677 12.4036 39.6013 12.4036ZM39.6013 4.84989Q34.1826 4.84989 29.7354 2.20876Q25.2882-0.432371 22.6471-4.87953Q20.006-9.3267 20.006-14.7455Q20.006-20.1295 22.6471-24.5766Q25.2882-29.0237 29.7354-31.6597Q34.1826-34.2957 39.6013-34.2957Q44.9854-34.2957 49.4326-31.6597Q53.8797-29.0237 56.5157-24.5766Q59.1517-20.1295 59.1517-14.7455Q59.1517-9.3267 56.5157-4.87953Q53.8797-0.432371 49.4326 2.20876Q44.9854 4.84989 39.6013 4.84989ZM125.096-29.2438Q128.068-26.575 129.846-22.8444Q131.624-19.1137 131.624-14.7455Q131.624-9.3267 128.983-4.87953Q126.342-0.432371 121.917 2.20876Q117.491 4.84989 112.072 4.84989Q106.688 4.84989 102.241 2.20876Q97.7941-0.432371 95.1624-4.87953Q92.5307-9.3267 92.5307-14.7455Q92.5307-18.8194 94.0867-22.4663Q94.9969-24.5896 94.2736-26.0675Q93.5502-27.5454 92.1469-28.0402Q90.8697-28.5351 89.467-28.022Q88.0643-27.5089 87.3169-25.8061Q86.2092-23.2101 85.5714-20.4367Q84.9336-17.6633 84.9336-14.7455Q84.9336-7.20334 88.5897-1.06035Q92.2459 5.08264 98.4149 8.74312Q104.584 12.4036 112.072 12.4036Q119.606 12.4036 125.753 8.74312Q131.9 5.08264 135.561-1.06035Q139.221-7.20334 139.221-14.7455Q139.221-20.8685 136.704-26.1107Q134.187-31.3529 129.91-35.1275Q128.443-36.3976 126.905-36.2159Q125.368-36.0343 124.387-34.9995Q123.406-33.9109 123.423-32.3422Q123.44-30.7736 125.096-29.2438ZM111.615-61.4502Q116.11-61.4502 119.322-64.6452Q122.534-67.8402 122.534-72.4122Q122.534-76.9076 119.322-80.1409Q116.11-83.3742 111.615-83.3742Q107.043-83.3742 103.826-80.1409Q100.61-76.9076 100.61-72.4122Q100.61-67.8402 103.826-64.6452Q107.043-61.4502 111.615-61.4502Z"/>
  </g>
  <g id="Regular-M" transform="matrix(1 0 0 1 1375.54 1126)">
   <path d="M74.2824-7.86114Q76.2962-7.86114 77.734-9.29366Q79.1717-10.7262 79.1717-12.7505L79.1717-37.3339Q79.1717-39.109 77.8221-40.5726L65.022-54.8575Q64.4201-55.5324 64.7522-56.2953Q65.0843-57.0583 66.0084-57.0583L81.684-57.0583Q83.0959-57.0583 83.6461-56.2277Q84.1963-55.3971 84.1963-54.3697L84.1963-42.2337Q84.1963-40.261 85.6082-38.8286Q87.0202-37.3962 89.0445-37.3962L108.717-37.3962Q110.742-37.3962 112.148-38.8286Q113.555-40.261 113.555-42.2337Q113.555-44.2582 112.148-45.6959Q110.742-47.1337 108.717-47.1337L93.9445-47.1337L93.9445-64.3564Q93.9445-68.5088 91.0948-71.3584Q88.2452-74.2081 84.134-74.2081L60.1739-74.2081Q56.3847-74.2081 53.3223-72.132Q50.2599-70.0559 48.8374-66.6301Q47.3738-63.1833 48.1315-59.5653Q48.8892-55.9473 51.4743-53.2587L69.4342-35.2471L69.4342-12.7505Q69.4342-10.7262 70.872-9.29366Q72.3097-7.86114 74.2824-7.86114ZM39.0097 11.3589Q46.3483 11.3589 52.3835 7.77839Q58.4187 4.19783 61.9787-1.80631Q65.5386-7.81045 65.5386-15.2005Q65.5386-22.5389 61.9787-28.5742Q58.4187-34.6095 52.3835-38.1694Q46.3483-41.7294 39.0097-41.7294Q31.6302-41.7294 25.6208-38.1694Q19.6114-34.6095 16.0362-28.5742Q12.4609-22.5389 12.4609-15.2005Q12.4609-7.81045 16.0362-1.80631Q19.6114 4.19783 25.6208 7.77839Q31.6302 11.3589 39.0097 11.3589ZM39.0097 4.48877Q33.5788 4.48877 29.1081 1.83027Q24.6375-0.828228 21.979-5.29888Q19.3205-9.76953 19.3205-15.2005Q19.3205-20.5904 21.979-25.061Q24.6375-29.5316 29.1081-32.1901Q33.5788-34.8485 39.0097-34.8485Q44.3997-34.8485 48.8703-32.1901Q53.341-29.5316 55.9995-25.061Q58.658-20.5904 58.658-15.2005Q58.658-9.76953 55.9995-5.29888Q53.341-0.828228 48.8703 1.83027Q44.3997 4.48877 39.0097 4.48877ZM122.66-29.7703Q125.64-27.0912 127.432-23.3371Q129.223-19.5829 129.223-15.2005Q129.223-9.76953 126.565-5.29888Q123.906-0.828228 119.461 1.83027Q115.017 4.48877 109.586 4.48877Q104.196 4.48877 99.7251 1.83027Q95.2545-0.828228 92.6012-5.29888Q89.948-9.76953 89.948-15.2005Q89.948-19.2925 91.5162-22.958Q92.3453-24.9171 91.7031-26.2642Q91.061-27.6112 89.7652-28.0675Q88.5833-28.5237 87.3143-28.0522Q86.0454-27.5806 85.361-26.026Q84.2817-23.4725 83.6539-20.769Q83.0261-18.0655 83.0261-15.2005Q83.0261-7.81045 86.6014-1.80631Q90.1766 4.19783 96.2119 7.77839Q102.247 11.3589 109.586 11.3589Q116.965 11.3589 122.975 7.77839Q128.984 4.19783 132.564-1.80631Q136.145-7.81045 136.145-15.2005Q136.145-21.1999 133.68-26.3164Q131.215-31.4329 127.032-35.1386Q125.685-36.2992 124.291-36.1439Q122.898-35.9887 121.996-35.0351Q121.094-34.0296 121.115-32.6049Q121.136-31.1803 122.66-29.7703ZM109.611-61.1071Q113.971-61.1071 117.096-64.206Q120.221-67.3049 120.221-71.7687Q120.221-76.1291 117.096-79.2797Q113.971-82.4303 109.611-82.4303Q105.147-82.4303 102.022-79.2797Q98.8973-76.1291 98.8973-71.7687Q98.8973-67.3049 102.022-64.206Q105.147-61.1071 109.611-61.1071Z"/>
  </g>
  <g id="Light-M" transform="matrix(1 0 0 1 1081.55 1126)">
   <path d="M71.5789-8.28892Q73.5243-8.28892 74.9192-9.67012Q76.3141-11.0513 76.3141-13.0242L76.3141-36.9576Q76.3141-38.6812 74.9987-40.0933L62.558-54.0019Q61.9903-54.6599 62.3053-55.3971Q62.6203-56.1343 63.5274-56.1343L78.758-56.1343Q80.1357-56.1343 80.6688-55.3208Q81.2019-54.5074 81.2019-53.5314L81.2019-41.7202Q81.2019-39.7818 82.5796-38.4008Q83.9573-37.0199 85.9302-37.0199L105.072-37.0199Q107.046-37.0199 108.41-38.4008Q109.773-39.7818 109.773-41.7202Q109.773-43.6936 108.41-45.0885Q107.046-46.4834 105.072-46.4834L90.6933-46.4834L90.6933-63.2441Q90.6933-67.2596 87.9207-70.0323Q85.1481-72.8049 81.1396-72.8049L57.8297-72.8049Q54.1602-72.8049 51.1834-70.7974Q48.2067-68.7898 46.8011-65.4667Q45.389-62.0882 46.1125-58.5642Q46.836-55.0402 49.3696-52.4373L66.8506-34.9219L66.8506-13.0242Q66.8506-11.0513 68.2455-9.67012Q69.6404-8.28892 71.5789-8.28892ZM37.6065 9.76772Q44.6202 9.76772 50.3388 6.39243Q56.0573 3.01713 59.4291-2.67049Q62.8009-8.35811 62.8009-15.4058Q62.8009-22.419 59.4291-28.1378Q56.0573-33.8565 50.3388-37.2283Q44.6202-40.6001 37.6065-40.6001Q30.5863-40.6001 24.885-37.2283Q19.1836-33.8565 15.8223-28.1378Q12.4609-22.419 12.4609-15.4058Q12.4609-8.35811 15.8223-2.67049Q19.1836 3.01713 24.885 6.39243Q30.5863 9.76772 37.6065 9.76772ZM37.6065 4.38613Q32.1586 4.38613 27.6622 1.71053Q23.1658-0.965071 20.4902-5.46145Q17.8146-9.95783 17.8146-15.4058Q17.8146-20.8472 20.4902-25.3433Q23.1658-29.8395 27.6622-32.5151Q32.1586-35.1907 37.6065-35.1907Q43.0479-35.1907 47.5443-32.5151Q52.0407-29.8395 54.7163-25.3433Q57.3919-20.8472 57.3919-15.4058Q57.3919-9.95783 54.7163-5.46145Q52.0407-0.965071 47.5443 1.71053Q43.0479 4.38613 37.6065 4.38613ZM118.69-30.0612Q121.653-27.3821 123.47-23.6023Q125.288-19.8224 125.288-15.4058Q125.288-9.95783 122.612-5.46145Q119.936-0.965071 115.457 1.71053Q110.978 4.38613 105.53 4.38613Q100.089 4.38613 95.5928 1.71053Q91.0966-0.965071 88.4347-5.46145Q85.7728-9.95783 85.7728-15.4058Q85.7728-19.5662 87.3583-23.2147Q88.0164-24.8145 87.5452-25.8706Q87.0741-26.9267 86.0008-27.3145Q85.0243-27.7024 84.0718-27.325Q83.1193-26.9476 82.5376-25.7008Q81.5267-23.2499 80.9418-20.7091Q80.3568-18.1682 80.3568-15.4058Q80.3568-8.35811 83.7182-2.67049Q87.0795 3.01713 92.7983 6.39243Q98.5171 9.76772 105.53 9.76772Q112.551 9.76772 118.252 6.39243Q123.953 3.01713 127.328-2.67049Q130.704-8.35811 130.704-15.4058Q130.704-21.1315 128.384-25.957Q126.065-30.7826 122.07-34.3346Q120.962-35.2553 119.885-35.1514Q118.808-35.0474 118.06-34.2653Q117.312-33.4477 117.368-32.3397Q117.423-31.2317 118.69-30.0612ZM106-60.0805Q110.258-60.0805 113.297-63.1023Q116.336-66.1242 116.336-70.4512Q116.336-74.7089 113.297-77.7654Q110.258-80.8219 106-80.8219Q101.674-80.8219 98.6342-77.7654Q95.595-74.7089 95.595-70.4512Q95.595-66.1242 98.6342-63.1023Q101.674-60.0805 106-60.0805Z"/>
  </g>
  <g id="Thin-M" transform="matrix(1 0 0 1 788.438 1126)">
   <path d="M68.0033-8.85469Q69.8582-8.85469 71.1965-10.168Q72.5347-11.4814 72.5347-13.3862L72.5347-36.4598Q72.5347-38.1154 71.2646-39.4595L59.2991-52.8704Q58.7766-53.5059 59.069-54.2091Q59.3614-54.9123 60.2461-54.9123L74.8881-54.9123Q76.2206-54.9123 76.731-54.1214Q77.2415-53.3306 77.2415-52.4227L77.2415-41.0412Q77.2415-39.148 78.574-37.8351Q79.9064-36.5221 81.8112-36.5221L100.252-36.5221Q102.158-36.5221 103.465-37.8351Q104.772-39.148 104.772-41.0412Q104.772-42.9468 103.465-44.2851Q102.158-45.6233 100.252-45.6233L86.3934-45.6233L86.3934-61.7731Q86.3934-65.6076 83.7227-68.2783Q81.052-70.949 77.1792-70.949L54.7294-70.949Q51.218-70.949 48.3546-69.0322Q45.4912-67.1153 44.108-63.9279Q42.7639-60.64 43.4422-57.2403Q44.1205-53.8406 46.586-51.351L63.4335-34.4919L63.4335-13.3862Q63.4335-11.4814 64.7718-10.168Q66.1101-8.85469 68.0033-8.85469ZM35.7507 7.66319Q42.3347 7.66319 47.6344 4.55938Q52.9342 1.45556 56.0571-3.81344Q59.1801-9.08243 59.1801-15.6772Q59.1801-22.2604 56.0571-27.5606Q52.9342-32.8607 47.6344-35.9837Q42.3347-39.1066 35.7507-39.1066Q29.2057-39.1066 23.9118-35.9837Q18.6179-32.8607 15.5394-27.5606Q12.4609-22.2604 12.4609-15.6772Q12.4609-9.08243 15.5394-3.81344Q18.6179 1.45556 23.9118 4.55938Q29.2057 7.66319 35.7507 7.66319ZM35.7507 4.25039Q30.2803 4.25039 25.7499 1.55217Q21.2195-1.14606 18.5213-5.67647Q15.823-10.2069 15.823-15.6772Q15.823-21.1867 18.5213-25.7167Q21.2195-30.2467 25.7499-32.9449Q30.2803-35.6431 35.7507-35.6431Q41.2601-35.6431 45.7905-32.9449Q50.3209-30.2467 53.0192-25.7167Q55.7174-21.1867 55.7174-15.6772Q55.7174-10.2069 53.0192-5.67647Q50.3209-1.14606 45.7905 1.55217Q41.2601 4.25039 35.7507 4.25039ZM113.44-30.446Q116.38-27.7669 118.232-23.953Q120.083-20.1391 120.083-15.6772Q120.083-10.2069 117.384-5.67647Q114.686-1.14606 110.161 1.55217Q105.637 4.25039 100.167 4.25039Q94.6574 4.25039 90.1275 1.55217Q85.5975-1.14606 82.9242-5.67647Q80.2509-10.2069 80.2509-15.6772Q80.2509-19.9281 81.8592-23.5543Q82.291-24.6787 82.0461-25.3501Q81.8012-26.0214 81.0222-26.3187Q80.3171-26.6161 79.7833-26.3632Q79.2494-26.1104 78.8034-25.2708Q77.8831-22.9557 77.3548-20.6298Q76.8265-18.3039 76.8265-15.6772Q76.8265-9.08243 79.9049-3.81344Q82.9834 1.45556 88.2836 4.55938Q93.5837 7.66319 100.167 7.66319Q106.712 7.66319 112.006 4.55938Q117.3 1.45556 120.404-3.81344Q123.507-9.08243 123.507-15.6772Q123.507-21.041 121.38-25.4818Q119.253-29.9226 115.507-33.2711Q114.716-33.8748 114.058-33.8387Q113.4-33.8026 112.856-33.247Q112.311-32.6781 112.411-31.989Q112.512-31.2998 113.44-30.446ZM101.225-58.7227Q105.347-58.7227 108.273-61.6427Q111.199-64.5626 111.199-68.7086Q111.199-72.8306 108.273-75.7626Q105.347-78.6945 101.225-78.6945Q97.0797-78.6945 94.1535-75.7626Q91.2274-72.8306 91.2274-68.7086Q91.2274-64.5626 94.1535-61.6427Q97.0797-58.7227 101.225-58.7227Z"/>
  </g>
  <g id="Ultralight-M" transform="matrix(1 0 0 1 493.57 1126)">
   <path d="M66.1719-9.14447Q67.9805-9.14447 69.2897-10.423Q70.5989-11.7016 70.5989-13.5716L70.5989-36.2049Q70.5989-37.8256 69.352-39.1348L57.6299-52.2908Q57.1306-52.9148 57.4114-53.6006Q57.6922-54.2864 58.5655-54.2864L72.906-54.2864Q74.2153-54.2864 74.7141-53.5071Q75.213-52.7279 75.213-51.8548L75.213-40.6933Q75.213-38.8233 76.5223-37.5453Q77.8316-36.2672 79.7015-36.2672L97.783-36.2672Q99.654-36.2672 100.932-37.5453Q102.21-38.8233 102.21-40.6933Q102.21-42.5643 100.932-43.8736Q99.654-45.1828 97.783-45.1828L84.191-45.1828L84.191-61.0196Q84.191-64.7614 81.5725-67.3799Q78.9539-69.9984 75.1507-69.9984L53.1414-69.9984Q49.7111-69.9984 46.9057-68.1281Q44.1003-66.2577 42.7286-63.1398Q41.4194-59.8982 42.0745-56.5622Q42.7296-53.2262 45.1603-50.7946L61.6833-34.2716L61.6833-13.5716Q61.6833-11.7016 62.9926-10.423Q64.3018-9.14447 66.1719-9.14447ZM34.8001 6.58527Q41.1641 6.58527 46.2493 3.6205Q51.3345 0.655735 54.33-4.39885Q57.3255-9.45343 57.3255-15.8163Q57.3255-22.1792 54.33-27.265Q51.3345-32.3507 46.2493-35.3462Q41.1641-38.3416 34.8001-38.3416Q28.4986-38.3416 23.4133-35.3462Q18.3281-32.3507 15.3945-27.265Q12.4609-22.1792 12.4609-15.8163Q12.4609-9.45343 15.3945-4.39885Q18.3281 0.655735 23.4133 3.6205Q28.4986 6.58527 34.8001 6.58527ZM34.8001 4.18087Q29.3183 4.18087 24.7704 1.47106Q20.2226-1.23876 17.5128-5.7866Q14.803-10.3344 14.803-15.8163Q14.803-21.3606 17.5128-25.9079Q20.2226-30.4552 24.7704-33.1651Q29.3183-35.8749 34.8001-35.8749Q40.3444-35.8749 44.8923-33.1651Q49.4401-30.4552 52.1499-25.9079Q54.8597-21.3606 54.8597-15.8163Q54.8597-10.3344 52.1499-5.7866Q49.4401-1.23876 44.8923 1.47106Q40.3444 4.18087 34.8001 4.18087ZM110.75-30.6431Q113.68-27.964 115.548-24.1327Q117.417-20.3013 117.417-15.8163Q117.417-10.3344 114.707-5.7866Q111.996-1.23876 107.449 1.47106Q102.902 4.18087 97.4198 4.18087Q91.8755 4.18087 87.3282 1.47106Q82.7808-1.23876 80.1017-5.7866Q77.4226-10.3344 77.4226-15.8163Q77.4226-20.1135 79.0426-23.7282Q79.3585-24.6092 79.2295-25.0835Q79.1005-25.5577 78.4722-25.8087Q77.9062-26.0597 77.5867-25.8706Q77.2673-25.6815 76.8908-25.0505Q76.0168-22.8049 75.5175-20.5892Q75.0182-18.3734 75.0182-15.8163Q75.0182-9.45343 77.9518-4.39885Q80.8854 0.655735 85.9711 3.6205Q91.0569 6.58527 97.4198 6.58527Q103.721 6.58527 108.807 3.6205Q113.892 0.655735 116.857-4.39885Q119.821-9.45343 119.821-15.8163Q119.821-20.9946 117.793-25.2383Q115.765-29.482 112.146-32.7264Q111.517-33.1676 111.073-33.1663Q110.629-33.165 110.19-32.7255Q109.749-32.284 109.873-31.8093Q109.997-31.3346 110.75-30.6431ZM98.779-58.0273Q102.831-58.0273 105.7-60.895Q108.568-63.7628 108.568-67.8161Q108.568-71.8686 105.7-74.7367Q102.831-77.6049 98.779-77.6049Q94.7267-77.6049 91.8585-74.7367Q88.9903-71.8686 88.9903-67.8161Q88.9903-63.7628 91.8585-60.895Q94.7267-58.0273 98.779-58.0273Z"/>
  </g>
  <g id="Black-S" transform="matrix(1 0 0 1 2868.02 696)">
   <path d="M65.3809-12.2559Q67.4805-12.2559 68.9453-13.7207Q70.4102-15.1855 70.4102-17.2852L70.4102-37.7441Q70.4102-39.6484 69.043-41.1621L58.7891-52.6367Q58.6426-52.832 58.7402-53.0273Q58.8379-53.2227 59.0332-53.2227L71.5332-53.2227Q72.2168-53.2227 72.4121-52.9541Q72.6074-52.6855 72.6074-52.002L72.6074-41.8945Q72.6074-39.7949 74.0967-38.3057Q75.5859-36.8164 77.6855-36.8164L94.0918-36.8164Q96.1426-36.8164 97.6074-38.3057Q99.0723-39.7949 99.0723-41.8945Q99.0723-43.9453 97.6074-45.4346Q96.1426-46.9238 94.0918-46.9238L82.7148-46.9238L82.7148-60.3027Q82.7148-64.1602 80.0537-66.8213Q77.3926-69.4824 73.5352-69.4824L53.6133-69.4824Q50.1953-69.4824 47.4121-67.6025Q44.6289-65.7227 43.2617-62.5977Q41.9434-59.4238 42.627-56.1279Q43.3105-52.832 45.7031-50.3906L60.3516-35.6445L60.3516-17.2852Q60.3516-15.1855 61.8164-13.7207Q63.2812-12.2559 65.3809-12.2559ZM33.3008 6.15234Q39.7949 6.15234 45.1172 2.97852Q50.4395-0.195312 53.6133-5.54199Q56.7871-10.8887 56.7871-17.3828Q56.7871-23.877 53.6133-29.2236Q50.4395-34.5703 45.1172-37.7441Q39.7949-40.918 33.3008-40.918Q26.8066-40.918 21.46-37.7441Q16.1133-34.5703 12.9395-29.2236Q9.76562-23.877 9.76562-17.3828Q9.76562-10.8887 12.9395-5.54199Q16.1133-0.195312 21.46 2.97852Q26.8066 6.15234 33.3008 6.15234ZM33.3008-2.39258Q29.1016-2.39258 25.708-4.39453Q22.3145-6.39648 20.3125-9.79004Q18.3105-13.1836 18.3105-17.3828Q18.3105-21.582 20.3125-24.9756Q22.3145-28.3691 25.708-30.3467Q29.1016-32.3242 33.3008-32.3242Q37.5-32.3242 40.8936-30.3467Q44.2871-28.3691 46.2646-24.9756Q48.2422-21.582 48.2422-17.3828Q48.2422-13.1836 46.2646-9.79004Q44.2871-6.39648 40.8936-4.39453Q37.5-2.39258 33.3008-2.39258ZM107.471-28.4668Q109.766-26.416 111.108-23.584Q112.451-20.752 112.451-17.3828Q112.451-13.1836 110.449-9.79004Q108.447-6.39648 105.054-4.39453Q101.66-2.39258 97.4609-2.39258Q93.2617-2.39258 89.8682-4.39453Q86.4746-6.39648 84.4971-9.79004Q82.5195-13.1836 82.5195-17.3828Q82.5195-20.5078 83.6914-23.291Q84.7168-25.5859 83.8379-27.2461Q82.959-28.9062 81.4453-29.4434Q80.0781-29.9805 78.4668-29.4189Q76.8555-28.8574 76.0254-26.9531Q75.0488-24.7559 74.5117-22.3145Q73.9746-19.873 73.9746-17.3828Q73.9746-10.8887 77.1484-5.54199Q80.3223-0.195312 85.6689 2.97852Q91.0156 6.15234 97.4609 6.15234Q103.955 6.15234 109.302 2.97852Q114.648-0.195312 117.822-5.54199Q120.996-10.8887 120.996-17.3828Q120.996-22.6562 118.823-27.2461Q116.65-31.8359 112.939-35.0586Q111.328-36.4746 109.57-36.2305Q107.812-35.9863 106.738-34.8633Q105.664-33.6914 105.664-31.9092Q105.664-30.127 107.471-28.4668ZM95.2148-57.0801Q99.2676-57.0801 102.124-59.9609Q104.98-62.8418 104.98-66.8457Q104.98-70.8984 102.124-73.7549Q99.2676-76.6113 95.2148-76.6113Q91.2109-76.6113 88.3301-73.7549Q85.4492-70.8984 85.4492-66.8457Q85.4492-62.8418 88.3301-59.9609Q91.2109-57.0801 95.2148-57.0801Z"/>
  </g>
  <g id="Heavy-S" transform="matrix(1 0 0 1 2572.69 696)">
   <path d="M63.9979-12.567Q65.9823-12.567 67.3722-13.957Q68.7622-15.3469 68.7622-17.3313L68.7622-37.5828Q68.7622-39.3719 67.4641-40.8049L57.2217-52.2564Q56.9946-52.5324 57.1326-52.8257Q57.2706-53.1189 57.5926-53.1189L70.0926-53.1189Q70.88-53.1189 71.1329-52.7582Q71.3858-52.3974 71.3858-51.6793L71.3858-41.6756Q71.3858-39.7027 72.7887-38.2941Q74.1915-36.8856 76.1758-36.8856L92.4092-36.8856Q94.3563-36.8856 95.7405-38.2941Q97.1246-39.7027 97.1246-41.6756Q97.1246-43.6226 95.7405-45.0312Q94.3563-46.4398 92.4092-46.4398L80.9401-46.4398L80.9401-59.8994Q80.9401-63.63 78.3711-66.199Q75.8022-68.7679 72.0831-68.7679L52.3571-68.7679Q49.0313-68.7679 46.3288-66.9399Q43.6263-65.1119 42.3167-62.0791Q41.0329-59.0089 41.6992-55.811Q42.3655-52.6131 44.6774-50.2408L59.2452-35.5869L59.2452-17.3313Q59.2452-15.3469 60.6351-13.957Q62.0251-12.567 63.9979-12.567ZM32.8168 5.18429Q39.1726 5.18429 44.3911 2.07385Q49.6097-1.0366 52.7144-6.26803Q55.8191-11.4995 55.8191-17.8668Q55.8191-24.2227 52.7144-29.4599Q49.6097-34.6971 44.3911-37.8018Q39.1726-40.9064 32.8168-40.9064Q26.4494-40.9064 21.2179-37.8018Q15.9865-34.6971 12.8761-29.4599Q9.76562-24.2227 9.76562-17.8668Q9.76562-11.4995 12.8761-6.26803Q15.9865-1.0366 21.2179 2.07385Q26.4494 5.18429 32.8168 5.18429ZM32.8168-2.78441Q28.606-2.78441 25.1894-4.80365Q21.7728-6.82289 19.7536-10.2395Q17.7343-13.6561 17.7343-17.8668Q17.7343-22.0661 19.7536-25.4827Q21.7728-28.8993 25.1894-30.8999Q28.606-32.9004 32.8168-32.9004Q37.016-32.9004 40.4326-30.8999Q43.8492-28.8993 45.8498-25.4827Q47.8504-22.0661 47.8504-17.8668Q47.8504-13.6561 45.8498-10.2395Q43.8492-6.82289 40.4326-4.80365Q37.016-2.78441 32.8168-2.78441ZM105.246-29.02Q107.553-26.9577 108.907-24.1026Q110.262-21.2475 110.262-17.8668Q110.262-13.6561 108.242-10.2395Q106.223-6.82289 102.812-4.80365Q99.4014-2.78441 95.1906-2.78441Q90.9914-2.78441 87.5748-4.80365Q84.1582-6.82289 82.1576-10.2395Q80.157-13.6561 80.157-17.8668Q80.157-21.0034 81.3404-23.8096Q82.2967-25.9662 81.4869-27.5169Q80.6771-29.0676 79.2557-29.5701Q77.9691-30.0727 76.4673-29.5457Q74.9655-29.0188 74.193-27.2412Q73.2395-25.0785 72.7081-22.6948Q72.1768-20.311 72.1768-17.8668Q72.1768-11.4995 75.2872-6.26803Q78.3977-1.0366 83.6349 2.07385Q88.8721 5.18429 95.1906 5.18429Q101.558 5.18429 106.789 2.07385Q112.021-1.0366 115.131-6.26803Q118.242-11.4995 118.242-17.8668Q118.242-23.0366 116.109-27.5227Q113.977-32.0088 110.346-35.1738Q108.839-36.4977 107.202-36.2766Q105.565-36.0555 104.56-35.0016Q103.555-33.8988 103.555-32.2376Q103.555-30.5764 105.246-29.02ZM93.4286-56.8265Q97.343-56.8265 100.113-59.6094Q102.883-62.3923 102.883-66.2925Q102.883-70.207 100.113-72.9827Q97.343-75.7585 93.4286-75.7585Q89.5284-75.7585 86.7397-72.9827Q83.951-70.207 83.951-66.2925Q83.951-62.3923 86.7397-59.6094Q89.5284-56.8265 93.4286-56.8265Z"/>
  </g>
  <g id="Bold-S" transform="matrix(1 0 0 1 2277.51 696)">
   <path d="M62.4512-12.915Q64.3066-12.915 65.6128-14.2212Q66.9189-15.5273 66.9189-17.3828L66.9189-37.4023Q66.9189-39.0625 65.6982-40.4053L55.4688-51.8311Q55.1514-52.1973 55.3345-52.6001Q55.5176-53.0029 55.9814-53.0029L68.4814-53.0029Q69.3848-53.0029 69.7021-52.5391Q70.0195-52.0752 70.0195-51.3184L70.0195-41.4307Q70.0195-39.5996 71.3257-38.2812Q72.6318-36.9629 74.4873-36.9629L90.5273-36.9629Q92.3584-36.9629 93.6523-38.2812Q94.9463-39.5996 94.9463-41.4307Q94.9463-43.2617 93.6523-44.5801Q92.3584-45.8984 90.5273-45.8984L78.9551-45.8984L78.9551-59.4482Q78.9551-63.0371 76.4893-65.5029Q74.0234-67.9688 70.459-67.9688L50.9521-67.9688Q47.7295-67.9688 45.1172-66.1987Q42.5049-64.4287 41.2598-61.499Q40.0146-58.5449 40.6616-55.4565Q41.3086-52.3682 43.5303-50.0732L58.0078-35.5225L58.0078-17.3828Q58.0078-15.5273 59.314-14.2212Q60.6201-12.915 62.4512-12.915ZM32.2754 4.10156Q38.4766 4.10156 43.5791 1.06201Q48.6816-1.97754 51.709-7.08008Q54.7363-12.1826 54.7363-18.4082Q54.7363-24.6094 51.709-29.7241Q48.6816-34.8389 43.5791-37.8662Q38.4766-40.8936 32.2754-40.8936Q26.0498-40.8936 20.9473-37.8662Q15.8447-34.8389 12.8052-29.7241Q9.76562-24.6094 9.76562-18.4082Q9.76562-12.1826 12.8052-7.08008Q15.8447-1.97754 20.9473 1.06201Q26.0498 4.10156 32.2754 4.10156ZM32.2754-3.22266Q28.0518-3.22266 24.6094-5.26123Q21.167-7.2998 19.1284-10.7422Q17.0898-14.1846 17.0898-18.4082Q17.0898-22.6074 19.1284-26.0498Q21.167-29.4922 24.6094-31.5186Q28.0518-33.5449 32.2754-33.5449Q36.4746-33.5449 39.917-31.5186Q43.3594-29.4922 45.3857-26.0498Q47.4121-22.6074 47.4121-18.4082Q47.4121-14.1846 45.3857-10.7422Q43.3594-7.2998 39.917-5.26123Q36.4746-3.22266 32.2754-3.22266ZM102.759-29.6387Q105.078-27.5635 106.445-24.6826Q107.812-21.8018 107.812-18.4082Q107.812-14.1846 105.774-10.7422Q103.735-7.2998 100.305-5.26123Q96.875-3.22266 92.6514-3.22266Q88.4521-3.22266 85.0098-5.26123Q81.5674-7.2998 79.541-10.7422Q77.5146-14.1846 77.5146-18.4082Q77.5146-21.5576 78.7109-24.3896Q79.5898-26.3916 78.8574-27.8198Q78.125-29.248 76.8066-29.7119Q75.6104-30.1758 74.231-29.6875Q72.8516-29.1992 72.1436-27.5635Q71.2158-25.4395 70.6909-23.1201Q70.166-20.8008 70.166-18.4082Q70.166-12.1826 73.2056-7.08008Q76.2451-1.97754 81.3599 1.06201Q86.4746 4.10156 92.6514 4.10156Q98.877 4.10156 103.979 1.06201Q109.082-1.97754 112.122-7.08008Q115.161-12.1826 115.161-18.4082Q115.161-23.4619 113.074-27.832Q110.986-32.2021 107.446-35.3027Q106.055-36.5234 104.553-36.3281Q103.052-36.1328 102.124-35.1562Q101.196-34.1309 101.196-32.605Q101.196-31.0791 102.759-29.6387ZM91.4307-56.543Q95.1904-56.543 97.8638-59.2163Q100.537-61.8896 100.537-65.6738Q100.537-69.4336 97.8638-72.1191Q95.1904-74.8047 91.4307-74.8047Q87.6465-74.8047 84.9609-72.1191Q82.2754-69.4336 82.2754-65.6738Q82.2754-61.8896 84.9609-59.2163Q87.6465-56.543 91.4307-56.543Z"/>
  </g>
  <g id="Semibold-S" transform="matrix(1 0 0 1 1981.87 696)">
   <path d="M61.3848-13.155Q63.1514-13.155 64.3998-14.4034Q65.6481-15.6518 65.6481-17.4184L65.6481-37.2779Q65.6481-38.8492 64.4808-40.1298L54.2602-51.5378Q53.8806-51.9662 54.0948-52.4446Q54.309-52.9229 54.8706-52.9229L67.3706-52.9229Q68.3539-52.9229 68.7157-52.388Q69.0775-51.853 69.0775-51.0695L69.0775-41.2618Q69.0775-39.5285 70.317-38.2724Q71.5565-37.0162 73.3231-37.0162L89.2299-37.0162Q90.981-37.0162 92.2127-38.2724Q93.4444-39.5285 93.4444-41.2618Q93.4444-43.0129 92.2127-44.269Q90.981-45.5252 89.2299-45.5252L77.5865-45.5252L77.5865-59.1372Q77.5865-62.6283 75.1918-65.023Q72.7971-67.4178 69.3393-67.4178L49.9835-67.4178Q46.8319-67.4178 44.2818-65.6877Q41.7317-63.9577 40.5311-61.0991Q39.3126-58.225 39.9462-55.2122Q40.5799-52.1993 42.7394-49.9577L57.1547-35.478L57.1547-17.4184Q57.1547-15.6518 58.4031-14.4034Q59.6515-13.155 61.3848-13.155ZM31.9021 3.35508Q37.9967 3.35508 43.0192 0.364404Q48.0418-2.62627 51.0158-7.63994Q53.9898-12.6536 53.9898-18.7814Q53.9898-24.876 51.0158-29.9063Q48.0418-34.9366 43.0192-37.9106Q37.9967-40.8847 31.9021-40.8847Q25.7743-40.8847 20.7606-37.9106Q15.747-34.9366 12.7563-29.9063Q9.76562-24.876 9.76562-18.7814Q9.76562-12.6536 12.7563-7.63994Q15.747-2.62627 20.7606 0.364404Q25.7743 3.35508 31.9021 3.35508ZM31.9021-3.5248Q27.6696-3.5248 24.2095-5.57671Q20.7493-7.62861 18.6974-11.0888Q16.6455-14.5489 16.6455-18.7814Q16.6455-22.9807 18.6974-26.4408Q20.7493-29.901 24.2095-31.9451Q27.6696-33.9893 31.9021-33.9893Q36.1014-33.9893 39.5615-31.9451Q43.0217-29.901 45.0658-26.4408Q47.11-22.9807 47.11-18.7814Q47.11-14.5489 45.0658-11.0888Q43.0217-7.62861 39.5615-5.57671Q36.1014-3.5248 31.9021-3.5248ZM101.044-30.0652Q103.372-27.9812 104.748-25.0825Q106.124-22.1839 106.124-18.7814Q106.124-14.5489 104.072-11.0888Q102.02-7.62861 98.5767-5.57671Q95.1332-3.5248 90.9007-3.5248Q86.7015-3.5248 83.2413-5.57671Q79.7812-7.62861 77.737-11.0888Q75.6929-14.5489 75.6929-18.7814Q75.6929-21.9397 76.898-24.7896Q77.7236-26.6849 77.0445-28.0287Q76.3654-29.3725 75.1182-29.8097Q73.9841-30.2469 72.6891-29.7853Q71.3941-29.3236 70.7306-27.7856Q69.8206-25.6883 69.3001-23.4134Q68.7797-21.1385 68.7797-18.7814Q68.7797-12.6536 71.7704-7.63994Q74.761-2.62627 79.7914 0.364404Q84.8217 3.35508 90.9007 3.35508Q97.0285 3.35508 102.042 0.364404Q107.056-2.62627 110.047-7.63994Q113.037-12.6536 113.037-18.7814Q113.037-23.7552 110.981-28.0453Q108.925-32.3354 105.447-35.3916Q104.135-36.5412 102.727-36.3637Q101.319-36.1861 100.444-35.2629Q99.57-34.2908 99.57-32.8583Q99.57-31.4257 101.044-30.0652ZM90.0532-56.3475Q93.7063-56.3475 96.313-58.9453Q98.9197-61.5431 98.9197-65.2473Q98.9197-68.9004 96.313-71.5237Q93.7063-74.1471 90.0532-74.1471Q86.349-74.1471 83.7346-71.5237Q81.1201-68.9004 81.1201-65.2473Q81.1201-61.5431 83.7346-58.9453Q86.349-56.3475 90.0532-56.3475Z"/>
  </g>
  <g id="Medium-S" transform="matrix(1 0 0 1 1685.96 696)">
   <path d="M60.5762-13.3369Q62.2754-13.3369 63.48-14.5415Q64.6846-15.7461 64.6846-17.4453L64.6846-37.1836Q64.6846-38.6875 63.5576-39.9209L53.3438-51.3154Q52.917-51.791 53.1548-52.3267Q53.3926-52.8623 54.0283-52.8623L66.5283-52.8623Q67.5723-52.8623 67.9678-52.2734Q68.3633-51.6846 68.3633-50.8809L68.3633-41.1338Q68.3633-39.4746 69.5522-38.2656Q70.7412-37.0566 72.4404-37.0566L88.2461-37.0566Q89.9365-37.0566 91.1211-38.2656Q92.3057-39.4746 92.3057-41.1338Q92.3057-42.8242 91.1211-44.0332Q89.9365-45.2422 88.2461-45.2422L76.5488-45.2422L76.5488-58.9014Q76.5488-62.3184 74.208-64.6592Q71.8672-67 68.4902-67L49.249-67Q46.1514-67 43.6484-65.3003Q41.1455-63.6006 39.9785-60.7959Q38.7803-57.9824 39.4038-55.0269Q40.0273-52.0713 42.1396-49.8701L56.5078-35.4443L56.5078-17.4453Q56.5078-15.7461 57.7124-14.5415Q58.917-13.3369 60.5762-13.3369ZM31.6191 2.78906Q37.6328 2.78906 42.5947-0.164551Q47.5566-3.11816 50.4902-8.06445Q53.4238-13.0107 53.4238-19.0645Q53.4238-25.0781 50.4902-30.0444Q47.5566-35.0107 42.5947-37.9443Q37.6328-40.8779 31.6191-40.8779Q25.5654-40.8779 20.6191-37.9443Q15.6729-35.0107 12.7192-30.0444Q9.76562-25.0781 9.76562-19.0645Q9.76562-13.0107 12.7192-8.06445Q15.6729-3.11816 20.6191-0.164551Q25.5654 2.78906 31.6191 2.78906ZM31.6191-3.75391Q27.3799-3.75391 23.9062-5.81592Q20.4326-7.87793 18.3706-11.3516Q16.3086-14.8252 16.3086-19.0645Q16.3086-23.2637 18.3706-26.7373Q20.4326-30.2109 23.9062-32.2686Q27.3799-34.3262 31.6191-34.3262Q35.8184-34.3262 39.292-32.2686Q42.7656-30.2109 44.8232-26.7373Q46.8809-23.2637 46.8809-19.0645Q46.8809-14.8252 44.8232-11.3516Q42.7656-7.87793 39.292-5.81592Q35.8184-3.75391 31.6191-3.75391ZM99.7432-30.3887Q102.078-28.2979 103.461-25.3857Q104.844-22.4736 104.844-19.0645Q104.844-14.8252 102.782-11.3516Q100.72-7.87793 97.2661-5.81592Q93.8125-3.75391 89.5732-3.75391Q85.374-3.75391 81.9004-5.81592Q78.4268-7.87793 76.3691-11.3516Q74.3115-14.8252 74.3115-19.0645Q74.3115-22.2295 75.5234-25.0928Q76.3086-26.9072 75.6699-28.187Q75.0312-29.4668 73.8379-29.8838Q72.751-30.3008 71.52-29.8594Q70.2891-29.418 69.6592-27.9541Q68.7627-25.877 68.2456-23.6357Q67.7285-21.3945 67.7285-19.0645Q67.7285-13.0107 70.6821-8.06445Q73.6357-3.11816 78.6021-0.164551Q83.5684 2.78906 89.5732 2.78906Q95.627 2.78906 100.573-0.164551Q105.52-3.11816 108.473-8.06445Q111.427-13.0107 111.427-19.0645Q111.427-23.9775 109.394-28.207Q107.361-32.4365 103.931-35.459Q102.68-36.5547 101.342-36.3906Q100.005-36.2266 99.1709-35.3438Q98.3369-34.4121 98.3369-33.0503Q98.3369-31.6885 99.7432-30.3887ZM89.0088-56.1992Q92.5811-56.1992 95.1372-58.7397Q97.6934-61.2803 97.6934-64.9238Q97.6934-68.4961 95.1372-71.0723Q92.5811-73.6484 89.0088-73.6484Q85.3652-73.6484 82.8047-71.0723Q80.2441-68.4961 80.2441-64.9238Q80.2441-61.2803 82.8047-58.7397Q85.3652-56.1992 89.0088-56.1992Z"/>
  </g>
  <g id="Regular-S" transform="matrix(1 0 0 1 1390.3 696)">
   <path d="M59.5215-13.5742Q61.1328-13.5742 62.2803-14.7217Q63.4277-15.8691 63.4277-17.4805L63.4277-37.0605Q63.4277-38.4766 62.3535-39.6484L52.1484-51.0254Q51.6602-51.5625 51.9287-52.1729Q52.1973-52.7832 52.9297-52.7832L65.4297-52.7832Q66.5527-52.7832 66.9922-52.124Q67.4316-51.4648 67.4316-50.6348L67.4316-40.9668Q67.4316-39.4043 68.5547-38.2568Q69.6777-37.1094 71.2891-37.1094L86.9629-37.1094Q88.5742-37.1094 89.6973-38.2568Q90.8203-39.4043 90.8203-40.9668Q90.8203-42.5781 89.6973-43.7256Q88.5742-44.873 86.9629-44.873L75.1953-44.873L75.1953-58.5938Q75.1953-61.9141 72.9248-64.1846Q70.6543-66.4551 67.3828-66.4551L48.291-66.4551Q45.2637-66.4551 42.8223-64.7949Q40.3809-63.1348 39.2578-60.4004Q38.0859-57.666 38.6963-54.7852Q39.3066-51.9043 41.3574-49.7559L55.6641-35.4004L55.6641-17.4805Q55.6641-15.8691 56.8115-14.7217Q57.959-13.5742 59.5215-13.5742ZM31.25 2.05078Q37.1582 2.05078 42.041-0.854492Q46.9238-3.75977 49.8047-8.61816Q52.6855-13.4766 52.6855-19.4336Q52.6855-25.3418 49.8047-30.2246Q46.9238-35.1074 42.041-37.9883Q37.1582-40.8691 31.25-40.8691Q25.293-40.8691 20.4346-37.9883Q15.5762-35.1074 12.6709-30.2246Q9.76562-25.3418 9.76562-19.4336Q9.76562-13.4766 12.6709-8.61816Q15.5762-3.75977 20.4346-0.854492Q25.293 2.05078 31.25 2.05078ZM31.25-4.05273Q27.002-4.05273 23.5107-6.12793Q20.0195-8.20312 17.9443-11.6943Q15.8691-15.1855 15.8691-19.4336Q15.8691-23.6328 17.9443-27.124Q20.0195-30.6152 23.5107-32.6904Q27.002-34.7656 31.25-34.7656Q35.4492-34.7656 38.9404-32.6904Q42.4316-30.6152 44.5068-27.124Q46.582-23.6328 46.582-19.4336Q46.582-15.1855 44.5068-11.6943Q42.4316-8.20312 38.9404-6.12793Q35.4492-4.05273 31.25-4.05273ZM98.0469-30.8105Q100.391-28.7109 101.782-25.7812Q103.174-22.8516 103.174-19.4336Q103.174-15.1855 101.099-11.6943Q99.0234-8.20312 95.5566-6.12793Q92.0898-4.05273 87.8418-4.05273Q83.6426-4.05273 80.1514-6.12793Q76.6602-8.20312 74.585-11.6943Q72.5098-15.1855 72.5098-19.4336Q72.5098-22.6074 73.7305-25.4883Q74.4629-27.1973 73.877-28.3936Q73.291-29.5898 72.168-29.9805Q71.1426-30.3711 69.9951-29.9561Q68.8477-29.541 68.2617-28.1738Q67.3828-26.123 66.8701-23.9258Q66.3574-21.7285 66.3574-19.4336Q66.3574-13.4766 69.2627-8.61816Q72.168-3.75977 77.0508-0.854492Q81.9336 2.05078 87.8418 2.05078Q93.7988 2.05078 98.6572-0.854492Q103.516-3.75977 106.421-8.61816Q109.326-13.4766 109.326-19.4336Q109.326-24.2676 107.324-28.418Q105.322-32.5684 101.953-35.5469Q100.781-36.5723 99.5361-36.4258Q98.291-36.2793 97.5098-35.4492Q96.7285-34.5703 96.7285-33.3008Q96.7285-32.0312 98.0469-30.8105ZM87.6465-56.0059Q91.1133-56.0059 93.6035-58.4717Q96.0938-60.9375 96.0938-64.502Q96.0938-67.9688 93.6035-70.4834Q91.1133-72.998 87.6465-72.998Q84.082-72.998 81.5918-70.4834Q79.1016-67.9688 79.1016-64.502Q79.1016-60.9375 81.5918-58.4717Q84.082-56.0059 87.6465-56.0059Z"/>
  </g>
  <g id="Light-S" transform="matrix(1 0 0 1 1095.99 696)">
   <path d="M57.1299-13.9526Q58.6807-13.9526 59.7903-15.0547Q60.8999-16.1568 60.8999-17.7226L60.8999-36.7277Q60.8999-38.0981 59.8559-39.2245L49.9687-50.2686Q49.5107-50.7907 49.7641-51.3783Q50.0175-51.9658 50.735-51.9658L62.8413-51.9658Q63.9341-51.9658 64.3584-51.3218Q64.7827-50.6777 64.7827-49.8932L64.7827-40.5126Q64.7827-38.9804 65.8755-37.8784Q66.9683-36.7765 68.5341-36.7765L83.7387-36.7765Q85.3048-36.7765 86.3899-37.8784Q87.4751-38.9804 87.4751-40.5126Q87.4751-42.0787 86.3899-43.1882Q85.3048-44.2978 83.7387-44.2978L72.3193-44.2978L72.3193-57.6098Q72.3193-60.8091 70.1169-63.0114Q67.9146-65.2138 64.7339-65.2138L46.2173-65.2138Q43.2958-65.2138 40.9302-63.6143Q38.5646-62.0148 37.4565-59.3712Q36.3302-56.6973 36.9102-53.8996Q37.4903-51.1019 39.4956-49.0293L53.3786-35.1128L53.3786-17.7226Q53.3786-16.1568 54.4881-15.0547Q55.5977-13.9526 57.1299-13.9526ZM30.0087 0.643158Q35.6295 0.643158 40.2322-2.08054Q44.8349-4.80423 47.5493-9.38263Q50.2637-13.961 50.2637-19.6152Q50.2637-25.2357 47.5493-29.8386Q44.8349-34.4414 40.2322-37.1558Q35.6295-39.8702 30.0087-39.8702Q24.3696-39.8702 19.7837-37.1558Q15.1978-34.4414 12.4817-29.8386Q9.76562-25.2357 9.76562-19.6152Q9.76562-13.961 12.4817-9.38263Q15.1978-4.80423 19.7837-2.08054Q24.3696 0.643158 30.0087 0.643158ZM30.0087-4.14352Q25.7456-4.14352 22.2317-6.23385Q18.7177-8.32418 16.6274-11.8382Q14.537-15.3521 14.537-19.6152Q14.537-23.8599 16.6274-27.3738Q18.7177-30.8876 22.2317-32.9779Q25.7456-35.0683 30.0087-35.0683Q34.2534-35.0683 37.7674-32.9779Q41.2814-30.8876 43.3717-27.3738Q45.462-23.8599 45.462-19.6152Q45.462-15.3521 43.3717-11.8382Q41.2814-8.32418 37.7674-6.23385Q34.2534-4.14352 30.0087-4.14352ZM94.5351-31.0679Q96.8638-28.9683 98.2782-26.0159Q99.6925-23.0634 99.6925-19.6152Q99.6925-15.3521 97.6021-11.8382Q95.5116-8.32418 92.0146-6.23385Q88.5175-4.14352 84.2545-4.14352Q80.0097-4.14352 76.4959-6.23385Q72.982-8.32418 70.8992-11.8382Q68.8164-15.3521 68.8164-19.6152Q68.8164-22.8495 70.0523-25.7154Q70.6334-27.1065 70.1988-28.0454Q69.7642-28.9843 68.838-29.3144Q67.9942-29.6445 67.1267-29.3128Q66.2593-28.981 65.7641-27.8862Q64.9457-25.9262 64.4709-23.8728Q63.9961-21.8193 63.9961-19.6152Q63.9961-13.961 66.7122-9.38263Q69.4283-4.80423 74.0311-2.08054Q78.6339 0.643158 84.2545 0.643158Q89.8936 0.643158 94.4795-2.08054Q99.0654-4.80423 101.789-9.38263Q104.513-13.961 104.513-19.6152Q104.513-24.2071 102.64-28.1001Q100.766-31.9931 97.5634-34.8356Q96.6036-35.6489 95.6385-35.5478Q94.6734-35.4467 94.0285-34.7682Q93.3833-34.0556 93.4135-33.0662Q93.4438-32.0768 94.5351-31.0679ZM84.4526-55.0977Q87.8286-55.0977 90.2431-57.4954Q92.6577-59.893 92.6577-63.3364Q92.6577-66.7124 90.2431-69.1438Q87.8286-71.5752 84.4526-71.5752Q81.0094-71.5752 78.5948-69.1438Q76.1803-66.7124 76.1803-63.3364Q76.1803-59.893 78.5948-57.4954Q81.0094-55.0977 84.4526-55.0977Z"/>
  </g>
  <g id="Thin-S" transform="matrix(1 0 0 1 802.466 696)">
   <path d="M53.9669-14.4531Q55.4376-14.4531 56.4971-15.4952Q57.5565-16.5372 57.5565-18.0428L57.5565-36.2874Q57.5565-37.5977 56.5526-38.6638L47.0859-49.2676Q46.6679-49.7698 46.9013-50.3273Q47.1347-50.8848 47.8323-50.8848L59.4179-50.8848Q60.4707-50.8848 60.875-50.2608Q61.2793-49.6367 61.2793-48.9124L61.2793-39.9119Q61.2793-38.4197 62.3321-37.3779Q63.3848-36.3362 64.8904-36.3362L79.4745-36.3362Q80.9807-36.3362 82.0157-37.3779Q83.0507-38.4197 83.0507-39.9119Q83.0507-41.4181 82.0157-42.4775Q80.9807-43.537 79.4745-43.537L68.5155-43.537L68.5155-56.3085Q68.5155-59.3476 66.4033-61.4598Q64.2911-63.5721 61.2305-63.5721L43.4748-63.5721Q40.6931-63.5721 38.4277-62.0528Q36.1623-60.5335 35.0741-58.01Q34.008-55.4162 34.5481-52.7285Q35.0881-50.0408 37.0332-48.0683L50.3558-34.7324L50.3558-18.0428Q50.3558-16.5372 51.4152-15.4952Q52.4747-14.4531 53.9669-14.4531ZM28.367-1.21854Q33.6077-1.21854 37.8399-3.70208Q42.0721-6.18562 44.5664-10.3937Q47.0607-14.6018 47.0607-19.8553Q47.0607-25.0955 44.5664-29.328Q42.0721-33.5605 37.8399-36.0547Q33.6077-38.549 28.367-38.549Q23.1483-38.549 18.9228-36.0547Q14.6973-33.5605 12.2314-29.328Q9.76562-25.0955 9.76562-19.8553Q9.76562-14.6018 12.2314-10.3937Q14.6973-6.18562 18.9228-3.70208Q23.1483-1.21854 28.367-1.21854ZM28.367-4.2636Q24.0841-4.2636 20.54-6.37394Q16.9959-8.48428 14.8856-12.0284Q12.7752-15.5724 12.7752-19.8553Q12.7752-24.1603 14.8856-27.7041Q16.9959-31.2478 20.54-33.3582Q24.0841-35.4685 28.367-35.4685Q32.6719-35.4685 36.216-33.3582Q39.7601-31.2478 41.8704-27.7041Q43.9808-24.1603 43.9808-19.8553Q43.9808-15.5724 41.8704-12.0284Q39.7601-8.48428 36.216-6.37394Q32.6719-4.2636 28.367-4.2636ZM89.8904-31.4083Q92.1993-29.3087 93.6438-26.3261Q95.0882-23.3436 95.0882-19.8553Q95.0882-15.5724 92.9776-12.0284Q90.867-8.48428 87.3299-6.37394Q83.7928-4.2636 79.5099-4.2636Q75.205-4.2636 71.6612-6.37394Q68.1174-8.48428 66.0245-12.0284Q63.9316-15.5724 63.9316-19.8553Q63.9316-23.1697 65.1877-26.0157Q65.5687-26.9864 65.3342-27.5849Q65.0997-28.1835 64.4338-28.4335Q63.8302-28.6836 63.333-28.462Q62.8359-28.2404 62.4608-27.5058Q61.7225-25.6659 61.2978-23.8026Q60.8731-21.9394 60.8731-19.8553Q60.8731-14.6018 63.3389-10.3937Q65.8048-6.18562 70.0373-3.70208Q74.2697-1.21854 79.5099-1.21854Q84.7286-1.21854 88.9541-3.70208Q93.1796-6.18562 95.6632-10.3937Q98.1467-14.6018 98.1467-19.8553Q98.1467-24.127 96.4436-27.6796Q94.7405-31.2323 91.7577-33.8948Q91.0784-34.4276 90.4836-34.3865Q89.8888-34.3455 89.4242-33.8674Q88.9589-33.3748 89.0292-32.7559Q89.0995-32.137 89.8904-31.4083ZM80.2284-53.8966Q83.4843-53.8966 85.7988-56.2041Q88.1133-58.5116 88.1133-61.7949Q88.1133-65.0509 85.7988-67.3721Q83.4843-69.6933 80.2284-69.6933Q76.9456-69.6933 74.6311-67.3721Q72.3166-65.0509 72.3166-61.7949Q72.3166-58.5116 74.6311-56.2041Q76.9456-53.8966 80.2284-53.8966Z"/>
  </g>
  <g id="Ultralight-S" transform="matrix(1 0 0 1 507.385 696)">
   <path d="M52.3468-14.7095Q53.7766-14.7095 54.8103-15.7207Q55.8441-16.732 55.8441-18.2068L55.8441-36.0619Q55.8441-37.3413 54.8607-38.3766L45.6093-48.7549Q45.2118-49.247 45.435-49.789Q45.6581-50.3311 46.3455-50.3311L57.6645-50.3311Q58.6967-50.3311 59.0908-49.7173Q59.4849-49.1035 59.4849-48.41L59.4849-39.6042Q59.4849-38.1325 60.5171-37.1216Q61.5494-36.1107 63.0241-36.1107L77.2903-36.1107Q78.7659-36.1107 79.7752-37.1216Q80.7846-38.1325 80.7846-39.6042Q80.7846-41.0797 79.7752-42.1135Q78.7659-43.1473 77.2903-43.1473L66.5672-43.1473L66.5672-55.6419Q66.5672-58.5991 64.5012-60.6651Q62.4352-62.7312 59.436-62.7312L42.07-62.7312Q39.36-62.7312 37.146-61.253Q34.9319-59.7748 33.8539-57.3128Q32.8186-54.76 33.3382-52.1286Q33.8577-49.4972 35.7719-47.5761L48.8075-34.5375L48.8075-18.2068Q48.8075-16.732 49.8413-15.7207Q50.8751-14.7095 52.3468-14.7095ZM27.5261-2.17209Q32.5722-2.17209 36.6146-4.53262Q40.657-6.89316 43.0386-10.9116Q45.4201-14.93 45.4201-19.9783Q45.4201-25.0237 43.0386-29.0665Q40.657-33.1093 36.6146-35.4908Q32.5722-37.8723 27.5261-37.8723Q22.5227-37.8723 18.4818-35.4908Q14.4409-33.1093 12.1033-29.0665Q9.76562-25.0237 9.76562-19.9783Q9.76562-14.93 12.1033-10.9116Q14.4409-6.89316 18.4818-4.53262Q22.5227-2.17209 27.5261-2.17209ZM27.5261-4.3251Q23.233-4.3251 19.6735-6.44569Q16.114-8.56628 13.9935-12.1258Q11.8729-15.6853 11.8729-19.9783Q11.8729-24.3141 13.9935-27.8732Q16.114-31.4323 19.6735-33.5529Q23.233-35.6735 27.5261-35.6735Q31.8619-35.6735 35.4214-33.5529Q38.9809-31.4323 41.1015-27.8732Q43.222-24.3141 43.222-19.9783Q43.222-15.6853 41.1015-12.1258Q38.9809-8.56628 35.4214-6.44569Q31.8619-4.3251 27.5261-4.3251ZM87.5114-31.5826Q89.8102-29.483 91.2701-26.4851Q92.7299-23.4871 92.7299-19.9783Q92.7299-15.6853 90.609-12.1258Q88.488-8.56628 84.9304-6.44569Q81.3728-4.3251 77.0798-4.3251Q72.744-4.3251 69.1849-6.44569Q65.6258-8.56628 63.5277-12.1258Q61.4296-15.6853 61.4296-19.9783Q61.4296-23.3337 62.6961-26.1696Q62.9745-26.9249 62.8426-27.3491Q62.7106-27.7733 62.178-27.9823Q61.6974-28.1914 61.3899-28.0262Q61.0825-27.861 60.7689-27.3109Q60.0716-25.5325 59.6725-23.7667Q59.2735-22.0009 59.2735-19.9783Q59.2735-14.93 61.6112-10.9116Q63.9488-6.89316 67.9916-4.53262Q72.0345-2.17209 77.0798-2.17209Q82.0831-2.17209 86.124-4.53262Q90.1649-6.89316 92.5255-10.9116Q94.886-14.93 94.886-19.9783Q94.886-24.086 93.2701-27.4643Q91.6542-30.8426 88.784-33.4129Q88.2484-33.802 87.8433-33.7917Q87.4382-33.7814 87.0659-33.4061Q86.6928-33.0261 86.7836-32.597Q86.8744-32.1678 87.5114-31.5826ZM78.0647-53.2814Q81.2592-53.2814 83.5224-55.5428Q85.7857-57.8041 85.7857-61.0054Q85.7857-64.1998 83.5224-66.4646Q81.2592-68.7294 78.0647-68.7294Q74.8642-68.7294 72.6009-66.4646Q70.3377-64.1998 70.3377-61.0054Q70.3377-57.8041 72.6009-55.5428Q74.8642-53.2814 78.0647-53.2814Z"/>
  </g>
 </g>
</svg>
