<?xml version="1.0" encoding="UTF-8"?>
<!--Generator: Apple Native CoreSVG 175.5-->
<!DOCTYPE svg
PUBLIC "-//W3C//DTD SVG 1.1//EN"
       "http://www.w3.org/Graphics/SVG/1.1/DTD/svg11.dtd">
<svg version="1.1" xmlns="http://www.w3.org/2000/svg" xmlns:xlink="http://www.w3.org/1999/xlink" width="3300" height="2200">
 <!--glyph: "uni101439.medium", point size: 100.0, font version: "18.0d9e1", template writer version: "84"-->
 <g id="Notes">
  <rect height="2200" id="artboard" style="fill:white;opacity:1" width="3300" x="0" y="0"/>
  <line style="fill:none;stroke:black;opacity:1;stroke-width:0.5;" x1="263" x2="3036" y1="292" y2="292"/>
  <text style="stroke:none;fill:black;font-family:sans-serif;font-size:13;font-weight:bold;" transform="matrix(1 0 0 1 263 322)">Weight/Scale Variations</text>
  <text style="stroke:none;fill:black;font-family:sans-serif;font-size:13;text-anchor:middle;" transform="matrix(1 0 0 1 559.711 322)">Ultralight</text>
  <text style="stroke:none;fill:black;font-family:sans-serif;font-size:13;text-anchor:middle;" transform="matrix(1 0 0 1 856.422 322)">Thin</text>
  <text style="stroke:none;fill:black;font-family:sans-serif;font-size:13;text-anchor:middle;" transform="matrix(1 0 0 1 1153.13 322)">Light</text>
  <text style="stroke:none;fill:black;font-family:sans-serif;font-size:13;text-anchor:middle;" transform="matrix(1 0 0 1 1449.84 322)">Regular</text>
  <text style="stroke:none;fill:black;font-family:sans-serif;font-size:13;text-anchor:middle;" transform="matrix(1 0 0 1 1746.56 322)">Medium</text>
  <text style="stroke:none;fill:black;font-family:sans-serif;font-size:13;text-anchor:middle;" transform="matrix(1 0 0 1 2043.27 322)">Semibold</text>
  <text style="stroke:none;fill:black;font-family:sans-serif;font-size:13;text-anchor:middle;" transform="matrix(1 0 0 1 2339.98 322)">Bold</text>
  <text style="stroke:none;fill:black;font-family:sans-serif;font-size:13;text-anchor:middle;" transform="matrix(1 0 0 1 2636.69 322)">Heavy</text>
  <text style="stroke:none;fill:black;font-family:sans-serif;font-size:13;text-anchor:middle;" transform="matrix(1 0 0 1 2933.4 322)">Black</text>
  <line style="fill:none;stroke:black;opacity:1;stroke-width:0.5;" x1="263" x2="3036" y1="1903" y2="1903"/>
  <g transform="matrix(1 0 0 1 263 1933)">
   <path d="M9.24805 0.830078Q10.8691 0.830078 12.2949 0.214844Q13.7207-0.400391 14.8096-1.49414Q15.8984-2.58789 16.5186-4.01367Q17.1387-5.43945 17.1387-7.05078Q17.1387-8.66211 16.5186-10.0879Q15.8984-11.5137 14.8047-12.6074Q13.7109-13.7012 12.2852-14.3164Q10.8594-14.9316 9.23828-14.9316Q7.62695-14.9316 6.20117-14.3164Q4.77539-13.7012 3.69141-12.6074Q2.60742-11.5137 1.9873-10.0879Q1.36719-8.66211 1.36719-7.05078Q1.36719-5.43945 1.9873-4.01367Q2.60742-2.58789 3.69629-1.49414Q4.78516-0.400391 6.21094 0.214844Q7.63672 0.830078 9.24805 0.830078ZM9.24805-0.654297Q7.91992-0.654297 6.7627-1.14746Q5.60547-1.64062 4.73145-2.51953Q3.85742-3.39844 3.36426-4.56055Q2.87109-5.72266 2.87109-7.05078Q2.87109-8.37891 3.35938-9.54102Q3.84766-10.7031 4.72168-11.582Q5.5957-12.4609 6.75293-12.9541Q7.91016-13.4473 9.23828-13.4473Q10.5762-13.4473 11.7383-12.9541Q12.9004-12.4609 13.7793-11.582Q14.6582-10.7031 15.1514-9.54102Q15.6445-8.37891 15.6445-7.05078Q15.6445-5.72266 15.1514-4.56055Q14.6582-3.39844 13.7793-2.51953Q12.9004-1.64062 11.7432-1.14746Q10.5859-0.654297 9.24805-0.654297ZM5.6543-7.05078Q5.6543-6.72852 5.85938-6.52832Q6.06445-6.32812 6.40625-6.32812L8.51562-6.32812L8.51562-4.20898Q8.51562-3.88672 8.71094-3.67676Q8.90625-3.4668 9.23828-3.4668Q9.56055-3.4668 9.77051-3.67676Q9.98047-3.88672 9.98047-4.20898L9.98047-6.32812L12.0898-6.32812Q12.4219-6.32812 12.627-6.52832Q12.832-6.72852 12.832-7.05078Q12.832-7.38281 12.627-7.58789Q12.4219-7.79297 12.0898-7.79297L9.98047-7.79297L9.98047-9.90234Q9.98047-10.2344 9.77051-10.4443Q9.56055-10.6543 9.23828-10.6543Q8.90625-10.6543 8.71094-10.4443Q8.51562-10.2344 8.51562-9.90234L8.51562-7.79297L6.40625-7.79297Q6.06445-7.79297 5.85938-7.58789Q5.6543-7.38281 5.6543-7.05078Z"/>
  </g>
  <g transform="matrix(1 0 0 1 281.867 1933)">
   <path d="M11.709 2.91016Q13.75 2.91016 15.5518 2.12891Q17.3535 1.34766 18.7305-0.0292969Q20.1074-1.40625 20.8887-3.20801Q21.6699-5.00977 21.6699-7.05078Q21.6699-9.0918 20.8887-10.8936Q20.1074-12.6953 18.7305-14.0723Q17.3535-15.4492 15.5469-16.2305Q13.7402-17.0117 11.6992-17.0117Q9.6582-17.0117 7.85645-16.2305Q6.05469-15.4492 4.68262-14.0723Q3.31055-12.6953 2.5293-10.8936Q1.74805-9.0918 1.74805-7.05078Q1.74805-5.00977 2.5293-3.20801Q3.31055-1.40625 4.6875-0.0292969Q6.06445 1.34766 7.86621 2.12891Q9.66797 2.91016 11.709 2.91016ZM11.709 1.25Q9.98047 1.25 8.47656 0.605469Q6.97266-0.0390625 5.83496-1.17676Q4.69727-2.31445 4.05762-3.81836Q3.41797-5.32227 3.41797-7.05078Q3.41797-8.7793 4.05762-10.2832Q4.69727-11.7871 5.83008-12.9297Q6.96289-14.0723 8.4668-14.7119Q9.9707-15.3516 11.6992-15.3516Q13.4277-15.3516 14.9365-14.7119Q16.4453-14.0723 17.583-12.9297Q18.7207-11.7871 19.3652-10.2832Q20.0098-8.7793 20.0098-7.05078Q20.0098-5.32227 19.3701-3.81836Q18.7305-2.31445 17.5879-1.17676Q16.4453-0.0390625 14.9414 0.605469Q13.4375 1.25 11.709 1.25ZM7.17773-7.05078Q7.17773-6.69922 7.41211-6.47461Q7.64648-6.25 8.01758-6.25L10.8887-6.25L10.8887-3.36914Q10.8887-2.99805 11.1133-2.76855Q11.3379-2.53906 11.6895-2.53906Q12.0605-2.53906 12.29-2.76855Q12.5195-2.99805 12.5195-3.36914L12.5195-6.25L15.4004-6.25Q15.7715-6.25 16.001-6.47461Q16.2305-6.69922 16.2305-7.05078Q16.2305-7.42188 16.001-7.65137Q15.7715-7.88086 15.4004-7.88086L12.5195-7.88086L12.5195-10.752Q12.5195-11.1328 12.29-11.3623Q12.0605-11.5918 11.6895-11.5918Q11.3379-11.5918 11.1133-11.3574Q10.8887-11.123 10.8887-10.752L10.8887-7.88086L8.01758-7.88086Q7.63672-7.88086 7.40723-7.65137Q7.17773-7.42188 7.17773-7.05078Z"/>
  </g>
  <g transform="matrix(1 0 0 1 305.646 1933)">
   <path d="M14.9707 5.66406Q17.0605 5.66406 18.96 5.01465Q20.8594 4.36523 22.4512 3.19336Q24.043 2.02148 25.2197 0.429688Q26.3965-1.16211 27.0459-3.06641Q27.6953-4.9707 27.6953-7.05078Q27.6953-9.14062 27.0459-11.04Q26.3965-12.9395 25.2197-14.5312Q24.043-16.123 22.4512-17.2998Q20.8594-18.4766 18.9551-19.126Q17.0508-19.7754 14.9609-19.7754Q12.8711-19.7754 10.9717-19.126Q9.07227-18.4766 7.48535-17.2998Q5.89844-16.123 4.72168-14.5312Q3.54492-12.9395 2.90039-11.04Q2.25586-9.14062 2.25586-7.05078Q2.25586-4.9707 2.90527-3.06641Q3.55469-1.16211 4.72656 0.429688Q5.89844 2.02148 7.49023 3.19336Q9.08203 4.36523 10.9814 5.01465Q12.8809 5.66406 14.9707 5.66406ZM14.9707 3.84766Q13.1641 3.84766 11.5283 3.2959Q9.89258 2.74414 8.53516 1.74805Q7.17773 0.751953 6.17676-0.610352Q5.17578-1.97266 4.62891-3.6084Q4.08203-5.24414 4.08203-7.05078Q4.08203-8.86719 4.62891-10.5029Q5.17578-12.1387 6.17188-13.501Q7.16797-14.8633 8.52539-15.8594Q9.88281-16.8555 11.5186-17.4023Q13.1543-17.9492 14.9609-17.9492Q16.7773-17.9492 18.4131-17.4023Q20.0488-16.8555 21.4111-15.8594Q22.7734-14.8633 23.7744-13.501Q24.7754-12.1387 25.3223-10.5029Q25.8691-8.86719 25.8691-7.05078Q25.8691-5.24414 25.3223-3.6084Q24.7754-1.97266 23.7793-0.610352Q22.7832 0.751953 21.4209 1.74805Q20.0586 2.74414 18.4229 3.2959Q16.7871 3.84766 14.9707 3.84766ZM9.19922-7.05078Q9.19922-6.66992 9.45801-6.4209Q9.7168-6.17188 10.1172-6.17188L14.0625-6.17188L14.0625-2.2168Q14.0625-1.81641 14.3115-1.55762Q14.5605-1.29883 14.9512-1.29883Q15.3516-1.29883 15.6104-1.55273Q15.8691-1.80664 15.8691-2.2168L15.8691-6.17188L19.8242-6.17188Q20.2246-6.17188 20.4785-6.4209Q20.7324-6.66992 20.7324-7.05078Q20.7324-7.46094 20.4785-7.71484Q20.2246-7.96875 19.8242-7.96875L15.8691-7.96875L15.8691-11.9141Q15.8691-12.3242 15.6104-12.583Q15.3516-12.8418 14.9512-12.8418Q14.5605-12.8418 14.3115-12.583Q14.0625-12.3242 14.0625-11.9141L14.0625-7.96875L10.1172-7.96875Q9.70703-7.96875 9.45312-7.71484Q9.19922-7.46094 9.19922-7.05078Z"/>
  </g>
  <text style="stroke:none;fill:black;font-family:sans-serif;font-size:13;font-weight:bold;" transform="matrix(1 0 0 1 263 1953)">Design Variations</text>
  <text style="stroke:none;fill:black;font-family:sans-serif;font-size:13;" transform="matrix(1 0 0 1 263 1971)">Symbols are supported in up to nine weights and three scales.</text>
  <text style="stroke:none;fill:black;font-family:sans-serif;font-size:13;" transform="matrix(1 0 0 1 263 1989)">For optimal layout with text and other symbols, vertically align</text>
  <text style="stroke:none;fill:black;font-family:sans-serif;font-size:13;" transform="matrix(1 0 0 1 263 2007)">symbols with the adjacent text.</text>
  <line style="fill:none;stroke:#00AEEF;stroke-width:0.5;opacity:1.0;" x1="776" x2="776" y1="1919" y2="1933"/>
  <g transform="matrix(1 0 0 1 776 1933)">
   <path d="M3.31055 0.15625Q3.70117 0.15625 3.91602-0.00976562Q4.13086-0.175781 4.26758-0.585938L5.52734-4.0332L11.2891-4.0332L12.5488-0.585938Q12.6855-0.175781 12.9004-0.00976562Q13.1152 0.15625 13.4961 0.15625Q13.8867 0.15625 14.1162-0.0585938Q14.3457-0.273438 14.3457-0.644531Q14.3457-0.869141 14.2383-1.17188L9.6582-13.3691Q9.48242-13.8184 9.17969-14.043Q8.87695-14.2676 8.4082-14.2676Q7.5-14.2676 7.17773-13.3789L2.59766-1.16211Q2.49023-0.859375 2.49023-0.634766Q2.49023-0.263672 2.70996-0.0537109Q2.92969 0.15625 3.31055 0.15625ZM6.00586-5.51758L8.37891-12.0898L8.42773-12.0898L10.8008-5.51758Z"/>
  </g>
  <line style="fill:none;stroke:#00AEEF;stroke-width:0.5;opacity:1.0;" x1="793.197" x2="793.197" y1="1919" y2="1933"/>
  <text style="stroke:none;fill:black;font-family:sans-serif;font-size:13;font-weight:bold;" transform="matrix(1 0 0 1 776 1953)">Margins</text>
  <text style="stroke:none;fill:black;font-family:sans-serif;font-size:13;" transform="matrix(1 0 0 1 776 1971)">Leading and trailing margins on the left and right side of each symbol</text>
  <text style="stroke:none;fill:black;font-family:sans-serif;font-size:13;" transform="matrix(1 0 0 1 776 1989)">can be adjusted by modifying the x-location of the margin guidelines.</text>
  <text style="stroke:none;fill:black;font-family:sans-serif;font-size:13;" transform="matrix(1 0 0 1 776 2007)">Modifications are automatically applied proportionally to all</text>
  <text style="stroke:none;fill:black;font-family:sans-serif;font-size:13;" transform="matrix(1 0 0 1 776 2025)">scales and weights.</text>
  <g transform="matrix(1 0 0 1 1289 1933)">
   <path d="M2.8418 1.86523L4.54102 3.57422Q5.18555 4.22852 5.90332 4.17969Q6.62109 4.13086 7.31445 3.35938L18.0078-8.42773L17.041-9.4043L6.42578 2.27539Q6.16211 2.57812 5.89355 2.61719Q5.625 2.65625 5.27344 2.30469L4.10156 1.14258Q3.75 0.791016 3.79395 0.522461Q3.83789 0.253906 4.14062-0.0195312L15.6152-10.8203L14.6387-11.7871L3.04688-0.898438Q2.30469-0.214844 2.25098 0.498047Q2.19727 1.21094 2.8418 1.86523ZM9.25781-16.3281Q8.94531-16.0254 8.90625-15.6348Q8.86719-15.2441 9.04297-14.9512Q9.21875-14.6777 9.55566-14.541Q9.89258-14.4043 10.3809-14.5215Q11.4746-14.7754 12.5977-14.7314Q13.7207-14.6875 14.7949-13.9844L14.209-12.5293Q13.9551-11.9043 14.0674-11.4404Q14.1797-10.9766 14.5801-10.5664L16.875-8.25195Q17.2363-7.88086 17.5781-7.82227Q17.9199-7.76367 18.3398-7.8418L19.4043-8.03711L20.0684-7.36328L20.0293-6.80664Q20-6.43555 20.1221-6.12305Q20.2441-5.81055 20.6055-5.44922L21.3672-4.70703Q21.7285-4.3457 22.1533-4.33105Q22.5781-4.31641 22.9297-4.66797L25.8398-7.58789Q26.1914-7.93945 26.1816-8.35449Q26.1719-8.76953 25.8105-9.13086L25.0391-9.89258Q24.6875-10.2539 24.3799-10.3857Q24.0723-10.5176 23.7109-10.4883L23.1348-10.4395L22.4902-11.0742L22.7344-12.1973Q22.832-12.6172 22.6953-12.9834Q22.5586-13.3496 22.1191-13.7891L19.9219-15.9766Q18.6719-17.2168 17.2607-17.8369Q15.8496-18.457 14.4189-18.4814Q12.9883-18.5059 11.665-17.959Q10.3418-17.4121 9.25781-16.3281ZM10.752-15.957Q11.6602-16.6211 12.7002-16.9043Q13.7402-17.1875 14.8047-17.085Q15.8691-16.9824 16.8701-16.5137Q17.8711-16.0449 18.7012-15.2051L21.1328-12.793Q21.3086-12.6172 21.3525-12.4512Q21.3965-12.2852 21.3379-12.0312L21.0156-10.5469L22.5195-9.0625L23.5059-9.12109Q23.6914-9.13086 23.7891-9.09668Q23.8867-9.0625 24.0332-8.91602L24.6094-8.33984L22.168-5.89844L21.5918-6.47461Q21.4453-6.62109 21.4062-6.71875Q21.3672-6.81641 21.377-7.01172L21.4453-7.98828L19.9512-9.47266L18.4277-9.21875Q18.1836-9.16992 18.042-9.2041Q17.9004-9.23828 17.7148-9.41406L15.7129-11.416Q15.5176-11.5918 15.4932-11.7529Q15.4688-11.9141 15.5859-12.1875L16.4648-14.2773Q15.293-15.3711 13.8281-15.791Q12.3633-16.2109 10.8398-15.7617Q10.7227-15.7324 10.6885-15.8057Q10.6543-15.8789 10.752-15.957Z"/>
  </g>
  <text style="stroke:none;fill:black;font-family:sans-serif;font-size:13;font-weight:bold;" transform="matrix(1 0 0 1 1289 1953)">Exporting</text>
  <text style="stroke:none;fill:black;font-family:sans-serif;font-size:13;" transform="matrix(1 0 0 1 1289 1971)">Symbols should be outlined when exporting to ensure the</text>
  <text style="stroke:none;fill:black;font-family:sans-serif;font-size:13;" transform="matrix(1 0 0 1 1289 1989)">design is preserved when submitting to Xcode.</text>
  <text id="template-version" style="stroke:none;fill:black;font-family:sans-serif;font-size:13;text-anchor:end;" transform="matrix(1 0 0 1 3036 1933)">Template v.2.0</text>
  <text style="stroke:none;fill:black;font-family:sans-serif;font-size:13;text-anchor:end;" transform="matrix(1 0 0 1 3036 1951)">Requires Xcode 12 or greater</text>
  <text id="descriptive-name" style="stroke:none;fill:black;font-family:sans-serif;font-size:13;text-anchor:end;" transform="matrix(1 0 0 1 3036 1969)">Generated from fireplace.fill</text>
  <text style="stroke:none;fill:black;font-family:sans-serif;font-size:13;text-anchor:end;" transform="matrix(1 0 0 1 3036 1987)">Typeset at 100 points</text>
  <text style="stroke:none;fill:black;font-family:sans-serif;font-size:13;" transform="matrix(1 0 0 1 263 726)">Small</text>
  <text style="stroke:none;fill:black;font-family:sans-serif;font-size:13;" transform="matrix(1 0 0 1 263 1156)">Medium</text>
  <text style="stroke:none;fill:black;font-family:sans-serif;font-size:13;" transform="matrix(1 0 0 1 263 1586)">Large</text>
 </g>
 <g id="Guides">
  <g id="H-reference" style="fill:#27AAE1;stroke:none;" transform="matrix(1 0 0 1 339 696)">
   <path d="M0.993347 0L3.6377 0L29.3282-67.1326L30.0301-67.1326L30.0301-70.459L28.1227-70.459ZM11.6882-24.4797L46.9818-24.4797L46.2311-26.7288L12.4382-26.7288ZM55.1193 0L57.7637 0L30.6381-70.459L29.4327-70.459L29.4327-67.1326Z"/>
  </g>
  <line id="Baseline-S" style="fill:none;stroke:#27AAE1;opacity:1;stroke-width:0.5;" x1="263" x2="3036" y1="696" y2="696"/>
  <line id="Capline-S" style="fill:none;stroke:#27AAE1;opacity:1;stroke-width:0.5;" x1="263" x2="3036" y1="625.541" y2="625.541"/>
  <g id="H-reference" style="fill:#27AAE1;stroke:none;" transform="matrix(1 0 0 1 339 1126)">
   <path d="M0.993347 0L3.6377 0L29.3282-67.1326L30.0301-67.1326L30.0301-70.459L28.1227-70.459ZM11.6882-24.4797L46.9818-24.4797L46.2311-26.7288L12.4382-26.7288ZM55.1193 0L57.7637 0L30.6381-70.459L29.4327-70.459L29.4327-67.1326Z"/>
  </g>
  <line id="Baseline-M" style="fill:none;stroke:#27AAE1;opacity:1;stroke-width:0.5;" x1="263" x2="3036" y1="1126" y2="1126"/>
  <line id="Capline-M" style="fill:none;stroke:#27AAE1;opacity:1;stroke-width:0.5;" x1="263" x2="3036" y1="1055.54" y2="1055.54"/>
  <g id="H-reference" style="fill:#27AAE1;stroke:none;" transform="matrix(1 0 0 1 339 1556)">
   <path d="M0.993347 0L3.6377 0L29.3282-67.1326L30.0301-67.1326L30.0301-70.459L28.1227-70.459ZM11.6882-24.4797L46.9818-24.4797L46.2311-26.7288L12.4382-26.7288ZM55.1193 0L57.7637 0L30.6381-70.459L29.4327-70.459L29.4327-67.1326Z"/>
  </g>
  <line id="Baseline-L" style="fill:none;stroke:#27AAE1;opacity:1;stroke-width:0.5;" x1="263" x2="3036" y1="1556" y2="1556"/>
  <line id="Capline-L" style="fill:none;stroke:#27AAE1;opacity:1;stroke-width:0.5;" x1="263" x2="3036" y1="1485.54" y2="1485.54"/>
  <line id="left-margin" style="fill:none;stroke:#00AEEF;stroke-width:0.5;opacity:1.0;" x1="1381.6" x2="1381.6" y1="1030.79" y2="1150.12"/>
  <line id="right-margin" style="fill:none;stroke:#00AEEF;stroke-width:0.5;opacity:1.0;" x1="1518.09" x2="1518.09" y1="1030.79" y2="1150.12"/>
 </g>
 <g id="Symbols">
  <g id="Black-L" transform="matrix(1 0 0 1 2832.56 1556)">
   <path d="M26.0329-73.663L175.726-73.663Q179.824-73.663 182.447-76.2966Q185.07-78.9302 185.07-83.0291L185.07-101.008Q185.07-105.107 182.447-107.701Q179.824-110.295 175.726-110.295L26.0329-110.295Q21.9144-110.295 19.2912-107.701Q16.6681-105.107 16.6681-101.008L16.6681-83.0291Q16.6681-78.9302 19.2912-76.2966Q21.9144-73.663 26.0329-73.663ZM33.4717 25.5804L168.229 25.5804L168.229-64.5435L33.4717-64.5435ZM60.7259 19.6915L60.7259-43.2488Q60.7259-47.2722 63.1751-49.6824Q65.6243-52.0926 69.6453-52.0926L132.056-52.0926Q136.077-52.0926 138.515-49.6824Q140.954-47.2722 140.954-43.2488L140.954 19.6915L128.96 19.6915L128.96-37.5008Q128.96-40.237 126.249-40.237L75.4517-40.237Q72.7203-40.237 72.7203-37.5008L72.7203 19.6915ZM100.086 15.3093Q92.6261 15.3093 88.045 11.2722Q83.4639 7.23498 83.4639 0.664223Q83.4639-3.1919 84.3289-5.72191Q85.1939-8.25193 86.0699-10.3926Q86.9459-12.5333 86.9459-15.0943Q86.9459-15.6985 86.9441-16.3752Q86.9423-17.052 86.9423-17.376Q86.9423-18.8676 88.4947-18.8676Q89.9751-18.8676 91.4188-17.7912Q92.8625-16.7147 93.8068-14.9627Q93.7615-18.9153 92.2189-21.6747Q90.6763-24.4341 88.8504-26.7074Q87.594-28.3998 88.4799-29.5781Q89.3657-30.7564 91.7187-30.7564Q95.8453-30.7564 100.562-29.2085Q105.279-27.6605 109.481-24.4135Q113.682-21.1666 116.325-16.0219Q118.968-10.8773 118.968-3.74121Q118.968 4.80083 113.824 10.0551Q108.681 15.3093 100.086 15.3093ZM100.784 9.35512Q104.637 9.35512 106.504 6.91713Q108.371 4.47915 108.371 1.30758Q108.371-2.98991 105.852-6.07125Q103.332-9.1526 100.886-9.97115Q101.485-6.83235 100.977-4.66244Q100.469-2.49252 99.6037-1.22183Q98.6411-3.60644 97.1732-4.61145Q96.8515-2.62417 95.4265-1.10001Q94.0016 0.424149 94.0016 3.27405Q94.0016 6.04231 95.887 7.69871Q97.7725 9.35512 100.784 9.35512ZM26.1097 39.6933L175.592 39.6933Q179.709 39.6933 182.646 36.7569Q185.583 33.8205 185.583 29.682Q185.583 25.5644 182.646 22.6279Q179.709 19.6915 175.592 19.6915L26.1097 19.6915Q21.9712 19.6915 19.0452 22.6279Q16.1192 25.5644 16.1192 29.682Q16.1192 33.8205 19.0452 36.7569Q21.9712 39.6933 26.1097 39.6933Z"/>
  </g>
  <g id="Heavy-L" transform="matrix(1 0 0 1 2539.07 1556)">
   <path d="M25.2328-72.9617L170.081-72.9617Q173.895-72.9617 176.324-75.4059Q178.753-77.8501 178.753-81.6699L178.753-98.6577Q178.753-102.478 176.324-104.884Q173.895-107.291 170.081-107.291L25.2328-107.291Q21.3883-107.291 18.9593-104.884Q16.5302-102.478 16.5302-98.6577L16.5302-81.6699Q16.5302-77.8501 18.9593-75.4059Q21.3883-72.9617 25.2328-72.9617ZM32.7387 24.6953L162.53 24.6953L162.53-64.3177L32.7387-64.3177ZM58.3981 19.1305L58.3981-43.2864Q58.3981-47.3186 60.8341-49.72Q63.2701-52.1214 67.2911-52.1214L127.978-52.1214Q131.999-52.1214 134.42-49.72Q136.841-47.3186 136.841-43.2864L136.841 19.1305L125.908 19.1305L125.908-38.4093Q125.908-41.3143 123.056-41.3143L72.2128-41.3143Q69.3302-41.3143 69.3302-38.4093L69.3302 19.1305ZM96.903 14.2924Q89.4721 14.2924 84.9284 10.2899Q80.3848 6.28748 80.3848-0.236399Q80.3848-4.05067 81.2449-6.55534Q82.1049-9.06001 82.9829-11.1889Q83.8608-13.3177 83.8608-15.9003Q83.8608-16.4945 83.8524-17.1798Q83.8439-17.8651 83.8439-18.198Q83.8439-19.6228 85.3246-19.6228Q86.7641-19.6228 88.2275-18.5466Q89.6909-17.4705 90.6257-15.7146Q90.6428-19.617 89.1273-22.4219Q87.6117-25.2269 85.7382-27.5797Q84.5266-29.191 85.3697-30.3335Q86.2128-31.4759 88.4808-31.4759Q92.6058-31.4759 97.3075-29.9351Q102.009-28.3943 106.189-25.1641Q110.37-21.9339 112.991-16.8246Q115.612-11.7152 115.612-4.61713Q115.612 3.86818 110.509 9.08029Q105.405 14.2924 96.903 14.2924ZM97.5742 8.35355Q101.372 8.35355 103.223 5.95003Q105.074 3.5465 105.074 0.40696Q105.074-3.76425 102.617-6.81114Q100.16-9.85802 97.6848-10.7296Q98.2565-7.67626 97.7685-5.52508Q97.2805-3.37391 96.4205-2.09488Q95.4667-4.44367 94.0181-5.43433Q93.6964-3.46528 92.2874-1.96869Q90.8784-0.472095 90.8784 2.34586Q90.8784 5.07765 92.7341 6.7156Q94.5898 8.35355 97.5742 8.35355ZM24.9317 36.6611L170.343 36.6611Q173.935 36.6611 176.514 34.0848Q179.093 31.5085 179.093 27.8807Q179.093 24.2831 176.514 21.7068Q173.935 19.1305 170.343 19.1305L24.9317 19.1305Q21.304 19.1305 18.7428 21.7068Q16.1816 24.2831 16.1816 27.8807Q16.1816 31.5085 18.7428 34.0848Q21.304 36.6611 24.9317 36.6611Z"/>
  </g>
  <g id="Bold-L" transform="matrix(1 0 0 1 2246.34 1556)">
   <path d="M24.2789-71.9444L163.058-71.9444Q166.534-71.9444 168.729-74.1579Q170.923-76.3715 170.923-79.8604L170.923-95.6561Q170.923-99.145 168.729-101.325Q166.534-103.505 163.058-103.505L24.2789-103.505Q20.765-103.505 18.5705-101.325Q16.376-99.145 16.376-95.6561L16.376-79.8604Q16.376-76.3715 18.5705-74.1579Q20.765-71.9444 24.2789-71.9444ZM31.817 23.4028L155.491 23.4028L155.491-63.9367L31.817-63.9367ZM55.5613 18.3719L55.5613-43.3847Q55.5613-47.4321 57.9744-49.8183Q60.3876-52.2044 64.4086-52.2044L122.9-52.2044Q126.921-52.2044 129.315-49.8183Q131.709-47.4321 131.709-43.3847L131.709 18.3719L122.158 18.3719L122.158-39.5834Q122.158-42.7629 119.069-42.7629L68.239-42.7629Q65.1122-42.7629 65.1122-39.5834L65.1122 18.3719ZM92.9834 13.0397Q85.5611 13.0397 81.0487 9.07209Q76.5363 5.10443 76.5363-1.38036Q76.5363-5.15586 77.3962-7.63353Q78.256-10.1112 79.1415-12.2322Q80.0269-14.3531 80.0269-16.9812Q80.0269-17.575 80.0071-18.2793Q79.9872-18.9836 79.9872-19.3317Q79.9872-20.6496 81.3609-20.6496Q82.7466-20.6496 84.248-19.5697Q85.7495-18.4899 86.6764-16.719Q86.7928-20.5598 85.3155-23.4559Q83.8382-26.3519 81.866-28.842Q80.7232-30.3384 81.5051-31.4274Q82.287-32.5163 84.4251-32.5163Q88.5724-32.5163 93.2773-30.9795Q97.9821-29.4426 102.15-26.2205Q106.318-22.9985 108.924-17.9165Q111.53-12.8345 111.53-5.76027Q111.53 2.68571 106.461 7.86273Q101.392 13.0397 92.9834 13.0397ZM93.6164 7.09398Q97.3521 7.09398 99.1841 4.729Q101.016 2.36403 101.016-0.737001Q101.016-4.73219 98.651-7.74052Q96.2859-10.7489 93.7347-11.7118Q94.2756-8.78088 93.8182-6.64531Q93.3607-4.50975 92.5009-3.20801Q91.5623-5.50337 90.122-6.48596Q89.8003-4.54002 88.4105-3.07426Q87.0207-1.60851 87.0207 1.17106Q87.0207 3.85665 88.8418 5.47532Q90.6629 7.09398 93.6164 7.09398ZM23.5016 32.8515L163.82 32.8515Q166.766 32.8515 168.903 30.7209Q171.04 28.5904 171.04 25.5926Q171.04 22.633 168.903 20.5024Q166.766 18.3719 163.82 18.3719L23.5016 18.3719Q20.5041 18.3719 18.3924 20.5024Q16.2808 22.633 16.2808 25.5926Q16.2808 28.5904 18.3924 30.7209Q20.5041 32.8515 23.5016 32.8515Z"/>
  </g>
  <g id="Semibold-L" transform="matrix(1 0 0 1 1952.38 1556)">
   <path d="M23.6213-71.2431L158.217-71.2431Q161.46-71.2431 163.493-73.2976Q165.525-75.3522 165.525-78.613L165.525-93.5868Q165.525-96.8476 163.493-98.8711Q161.46-100.895 158.217-100.895L23.6213-100.895Q20.3353-100.895 18.3025-98.8711Q16.2697-96.8476 16.2697-93.5868L16.2697-78.613Q16.2697-75.3522 18.3025-73.2976Q20.3353-71.2431 23.6213-71.2431ZM31.1816 22.5118L150.638 22.5118L150.638-63.674L31.1816-63.674ZM53.6056 17.8489L53.6056-43.4524Q53.6056-47.5104 56.003-49.886Q58.4004-52.2617 62.4214-52.2617L119.399-52.2617Q123.42-52.2617 125.795-49.886Q128.171-47.5104 128.171-43.4524L128.171 17.8489L119.572 17.8489L119.572-40.3929Q119.572-43.7616 116.32-43.7616L65.4995-43.7616Q62.2044-43.7616 62.2044-40.3929L62.2044 17.8489ZM90.2813 12.1762Q82.8649 12.1762 78.374 8.23251Q73.8832 4.28884 73.8832-2.169Q73.8832-5.91777 74.7429-8.37683Q75.6026-10.8359 76.4933-12.9514Q77.3839-15.0669 77.3839-17.7263Q77.3839-18.3199 77.3561-19.0373Q77.3283-19.7547 77.3283-20.1133Q77.3283-21.3574 78.6283-21.3574Q79.977-21.3574 81.5046-20.275Q83.0323-19.1926 83.9538-17.4114Q84.1386-21.2099 82.6877-24.1687Q81.2368-27.1276 79.1966-29.7122Q78.1012-31.1294 78.8408-32.1815Q79.5805-33.2336 81.6291-33.2336Q85.7918-33.2336 90.4988-31.6995Q95.2058-30.1653 99.3658-26.9488Q103.526-23.7323 106.121-18.6692Q108.715-13.6061 108.715-6.54835Q108.715 1.87051 103.671 7.02334Q98.6262 12.1762 90.2813 12.1762ZM90.8879 6.22563Q94.5811 6.22563 96.3998 3.88723Q98.2185 1.54883 98.2185-1.52564Q98.2185-5.39948 95.9167-8.38124Q93.615-11.363 91.0116-12.3889Q91.5312-9.5424 91.0948-7.41759Q90.6585-5.29279 89.7987-3.97539Q88.8707-6.23392 87.436-7.21095Q87.1143-5.28093 85.7378-3.83644Q84.3612-2.39194 84.3612 0.361164Q84.3612 3.01491 86.1584 4.62027Q87.9557 6.22563 90.8879 6.22563ZM22.5156 30.2252L159.323 30.2252Q161.824 30.2252 163.657 28.4019Q165.489 26.5786 165.489 24.0153Q165.489 21.4955 163.657 19.6722Q161.824 17.8489 159.323 17.8489L22.5156 17.8489Q19.9526 17.8489 18.1509 19.6722Q16.3492 21.4955 16.3492 24.0153Q16.3492 26.5786 18.1509 28.4019Q19.9526 30.2252 22.5156 30.2252Z"/>
  </g>
  <g id="Medium-L" transform="matrix(1 0 0 1 1657.75 1556)">
   <path d="M23.1227-70.7113L154.547-70.7113Q157.612-70.7113 159.522-72.6453Q161.433-74.5793 161.433-77.6671L161.433-92.0178Q161.433-95.1056 159.522-97.0105Q157.612-98.9154 154.547-98.9154L23.1227-98.9154Q20.0095-98.9154 18.0993-97.0105Q16.1891-95.1056 16.1891-92.0178L16.1891-77.6671Q16.1891-74.5793 18.0993-72.6453Q20.0095-70.7113 23.1227-70.7113ZM30.6999 21.8361L146.959 21.8361L146.959-63.4748L30.6999-63.4748ZM52.1228 17.4523L52.1228-43.5038Q52.1228-47.5697 54.5082-49.9374Q56.8937-52.3051 60.9146-52.3051L116.744-52.3051Q120.765-52.3051 123.127-49.9374Q125.488-47.5697 125.488-43.5038L125.488 17.4523L117.612 17.4523L117.612-41.0067Q117.612-44.5189 114.236-44.5189L63.4223-44.5189Q59.9995-44.5189 59.9995-41.0067L59.9995 17.4523ZM88.2324 11.5214Q80.8205 11.5214 76.346 7.5959Q71.8714 3.67043 71.8714-2.76698Q71.8714-6.49549 72.7311-8.94043Q73.5907-11.3854 74.4853-13.4968Q75.3798-15.6082 75.3798-18.2913Q75.3798-18.8847 75.3461-19.612Q75.3123-20.3393 75.3123-20.7059Q75.3123-21.8941 76.5563-21.8941Q77.8769-21.8941 79.4244-20.8098Q80.972-19.7255 81.8894-17.9364Q82.1261-21.7027 80.6951-24.7092Q79.2642-27.7157 77.1725-30.372Q76.113-31.7292 76.8207-32.7533Q77.5284-33.7774 79.5091-33.7774Q83.6835-33.7774 88.3921-32.2454Q93.1007-30.7133 97.2544-27.5011Q101.408-24.2888 103.995-19.24Q106.581-14.1912 106.581-7.1459Q106.581 1.2524 101.555 6.38689Q96.5287 11.5214 88.2324 11.5214ZM88.8191 5.56722Q92.48 5.56722 94.2887 3.24897Q96.0973 0.930718 96.0973-2.12362Q96.0973-5.90545 93.8435-8.86706Q91.5897-11.8287 88.9468-12.9023Q89.4503-10.1198 89.0299-8.00317Q88.6095-5.88652 87.7499-4.55724Q86.8297-6.78785 85.3994-7.76067Q85.0777-5.84272 83.7112-4.41435Q82.3447-2.98597 82.3447-0.252936Q82.3447 2.37666 84.1238 3.97194Q85.9029 5.56722 88.8191 5.56722ZM21.7681 28.2339L155.913 28.2339Q158.077 28.2339 159.678 26.6435Q161.28 25.0532 161.28 22.8193Q161.28 20.6329 159.678 19.0426Q158.077 17.4523 155.913 17.4523L21.7681 17.4523Q19.5345 17.4523 17.9678 19.0426Q16.4011 20.6329 16.4011 22.8193Q16.4011 25.0532 17.9678 26.6435Q19.5345 28.2339 21.7681 28.2339Z"/>
  </g>
  <g id="Regular-L" transform="matrix(1 0 0 1 1363.76 1556)">
   <path d="M22.4723-70.0177L149.759-70.0177Q152.594-70.0177 154.344-71.7944Q156.094-73.5712 156.094-76.4334L156.094-89.9712Q156.094-92.8334 154.344-94.5837Q152.594-96.3339 149.759-96.3339L22.4723-96.3339Q19.5845-96.3339 17.8342-94.5837Q16.084-92.8334 16.084-89.9712L16.084-76.4334Q16.084-73.5712 17.8342-71.7944Q19.5845-70.0177 22.4723-70.0177ZM30.0714 20.9549L142.159 20.9549L142.159-63.215L30.0714-63.215ZM50.1886 16.935L50.1886-43.5708Q50.1886-47.6471 52.5585-50.0044Q54.9283-52.3617 58.9493-52.3617L113.282-52.3617Q117.303-52.3617 119.646-50.0044Q121.989-47.6471 121.989-43.5708L121.989 16.935L115.054 16.935L115.054-41.8072Q115.054-45.5066 111.518-45.5066L60.7129-45.5066Q57.1236-45.5066 57.1236-41.8072L57.1236 16.935ZM85.5599 10.6673Q78.154 10.6673 73.7007 6.76555Q69.2474 2.86381 69.2474-3.54695Q69.2474-7.24903 70.1069-9.67556Q70.9664-12.1021 71.8661-14.2081Q72.7658-16.3141 72.7658-19.0283Q72.7658-19.6214 72.7243-20.3617Q72.6827-21.1019 72.6827-21.4789Q72.6827-22.5942 73.8537-22.5942Q75.1377-22.5942 76.7112-21.5074Q78.2846-20.4206 79.1967-18.6212Q79.501-22.3456 78.0962-25.4142Q76.6914-28.4827 74.5323-31.2326Q73.5198-32.5115 74.1857-33.4992Q74.8517-34.4868 76.7438-34.4868Q80.9335-34.4868 85.6442-32.9575Q90.355-31.4281 94.5005-28.2214Q98.646-25.0146 101.222-19.9845Q103.798-14.9543 103.798-7.92531Q103.798 0.446162 98.7954 5.55673Q93.7929 10.6673 85.5599 10.6673ZM86.1206 4.70842Q89.7395 4.70842 91.535 2.41645Q93.3305 0.124483 93.3305-2.90359Q93.3305-6.5654 91.1393-9.50073Q88.9481-12.4361 86.2536-13.572Q86.7361-10.873 86.3365-8.76696Q85.9369-6.66096 85.0774-5.31619Q84.1677-7.51036 82.743-8.47769Q82.4213-6.5755 81.0678-5.16815Q79.7144-3.7608 79.7144-1.05394Q79.7144 1.54416 81.4699 3.12629Q83.2255 4.70842 86.1206 4.70842ZM20.793 25.6364L151.466 25.6364Q153.189 25.6364 154.489 24.35Q155.79 23.0636 155.79 21.2592Q155.79 19.5079 154.489 18.2214Q153.189 16.935 151.466 16.935L20.793 16.935Q18.9891 16.935 17.7289 18.2214Q16.4688 19.5079 16.4688 21.2592Q16.4688 23.0636 17.7289 24.35Q18.9891 25.6364 20.793 25.6364Z"/>
  </g>
  <g id="Light-L" transform="matrix(1 0 0 1 1069.76 1556)">
   <path d="M22.0525-68.3573L144.72-68.3573Q147.403-68.3573 149.029-70.0005Q150.655-71.6437 150.655-74.3722L150.655-87.3184Q150.655-90.0469 149.029-91.6731Q147.403-93.2992 144.72-93.2992L22.0525-93.2992Q19.3363-93.2992 17.7101-91.6731Q16.084-90.0469 16.084-87.3184L16.084-74.3722Q16.084-71.6437 17.7101-70.0005Q19.3363-68.3573 22.0525-68.3573ZM29.3461 18.7981L137.426 18.7981L137.426-62.2989L29.3461-62.2989ZM48.5282 16L48.5282-43.9717Q48.5282-48.0861 50.8409-50.4053Q53.1535-52.7244 57.1745-52.7244L109.598-52.7244Q113.619-52.7244 115.915-50.4053Q118.211-48.0861 118.211-43.9717L118.211 16L112.65 16L112.65-42.9334Q112.65-47.2433 108.559-47.2433L58.2128-47.2433Q54.089-47.2433 54.089-42.9334L54.089 16ZM83.0024 9.84674Q75.4249 9.84674 70.8953 5.91629Q66.3657 1.98585 66.3657-4.52014Q66.3657-8.27961 67.2634-10.7158Q68.161-13.1519 69.0989-15.2961Q70.0367-17.4403 70.0367-20.3071Q70.0367-20.9765 69.9665-21.7836Q69.8962-22.5907 69.8962-23.0058Q69.8962-23.8919 70.8765-23.8919Q72.103-23.8919 73.7911-22.7765Q75.4792-21.6612 76.4102-19.7855Q76.9246-23.4717 75.577-26.8265Q74.2294-30.1813 71.7458-33.2749Q70.867-34.3819 71.4376-35.2742Q72.0081-36.1664 73.6521-36.1664Q78.0136-36.1664 82.8673-34.6084Q87.7211-33.0503 91.9526-29.7672Q96.184-26.4842 98.8172-21.3681Q101.45-16.252 101.45-9.08961Q101.45-0.546267 96.3811 4.65023Q91.3117 9.84674 83.0024 9.84674ZM83.506 3.71599Q87.1249 3.71599 88.9107 1.42402Q90.6966-0.867947 90.6966-3.87678Q90.6966-7.29073 88.6582-10.2261Q86.6199-13.1614 83.6197-14.5263Q84.1022-12.018 83.7599-9.87387Q83.4175-7.72971 82.5199-6.28938Q81.6483-8.38832 80.1283-9.41273Q79.8066-7.52977 78.4627-6.12242Q77.1187-4.71507 77.1187-2.02713Q77.1187 0.532492 78.8648 2.12424Q80.6108 3.71599 83.506 3.71599ZM19.9913 22.6591L146.828 22.6591Q148.131 22.6591 149.136 21.6781Q150.14 20.6971 150.14 19.3125Q150.14 17.962 149.136 16.981Q148.131 16 146.828 16L19.9913 16Q18.6075 16 17.6431 16.981Q16.6788 17.962 16.6788 19.3125Q16.6788 20.6971 17.6431 21.6781Q18.6075 22.6591 19.9913 22.6591Z"/>
  </g>
  <g id="Thin-L" transform="matrix(1 0 0 1 776.65 1556)">
   <path d="M21.4974-66.1614L138.057-66.1614Q140.537-66.1614 141.999-67.6279Q143.461-69.0945 143.461-71.6461L143.461-83.8099Q143.461-86.3616 141.999-87.8236Q140.537-89.2856 138.057-89.2856L21.4974-89.2856Q19.0081-89.2856 17.546-87.8236Q16.084-86.3616 16.084-83.8099L16.084-71.6461Q16.084-69.0945 17.546-67.6279Q19.0081-66.1614 21.4974-66.1614ZM28.3868 15.9457L131.166 15.9457L131.166-61.0873L28.3868-61.0873ZM46.3323 14.7633L46.3323-44.5018Q46.3323-48.6667 48.5692-50.9354Q50.8061-53.2041 54.8271-53.2041L104.727-53.2041Q108.748-53.2041 110.98-50.9354Q113.213-48.6667 113.213-44.5018L113.213 14.7633L109.47 14.7633L109.47-44.4228Q109.47-49.5402 104.647-49.5402L54.9061-49.5402Q50.0753-49.5402 50.0753-44.4228L50.0753 14.7633ZM79.6198 8.76148Q71.8154 8.76148 67.1849 4.79308Q62.5544 0.824684 62.5544-5.80727Q62.5544-9.64265 63.5025-12.0915Q64.4506-14.5404 65.439-16.735Q66.4273-18.9297 66.4273-21.9984Q66.4273-22.7687 66.319-23.6642Q66.2108-24.5598 66.2108-25.0254Q66.2108-25.6082 66.9388-25.6082Q68.0894-25.6082 69.9291-24.4551Q71.7688-23.302 72.7248-21.3253Q73.517-24.9612 72.2451-28.6944Q70.9732-32.4277 68.0605-35.9759Q67.3585-36.8557 67.8029-37.6217Q68.2473-38.3878 69.5629-38.3878Q74.1518-38.3878 79.1947-36.7918Q84.2376-35.1958 88.5827-31.8118Q92.9278-28.4278 95.6367-23.198Q98.3456-17.9683 98.3456-10.6295Q98.3456-1.85884 93.1879 3.45132Q88.0301 8.76148 79.6198 8.76148ZM80.0479 2.40342Q83.6668 2.40342 85.44 0.111453Q87.2131-2.18051 87.2131-5.16391Q87.2131-8.25003 85.3768-11.1854Q83.5405-14.1207 80.1362-15.7884Q80.6187-13.5325 80.3521-11.3378Q80.0854-9.14321 79.1373-7.5765Q78.3162-9.54949 76.6703-10.6494Q76.3486-8.79187 75.0171-7.38452Q73.6857-5.97717 73.6857-3.31425Q73.6857-0.805521 75.4192 0.79895Q77.1528 2.40342 80.0479 2.40342ZM18.9311 18.7214L140.694 18.7214Q141.442 18.7214 142.055 18.1444Q142.669 17.5673 142.669 16.7378Q142.669 15.9174 142.055 15.3404Q141.442 14.7633 140.694 14.7633L18.9311 14.7633Q18.1028 14.7633 17.5297 15.3404Q16.9566 15.9174 16.9566 16.7378Q16.9566 17.5673 17.5297 18.1444Q18.1028 18.7214 18.9311 18.7214Z"/>
  </g>
  <g id="Ultralight-L" transform="matrix(1 0 0 1 481.781 1556)">
   <path d="M21.2131-65.0366L134.643-65.0366Q137.02-65.0366 138.398-66.4127Q139.776-67.7888 139.776-70.2498L139.776-82.0129Q139.776-84.4739 138.398-85.8519Q137.02-87.2299 134.643-87.2299L21.2131-87.2299Q18.8399-87.2299 17.462-85.8519Q16.084-84.4739 16.084-82.0129L16.084-70.2498Q16.084-67.7888 17.462-66.4127Q18.8399-65.0366 21.2131-65.0366ZM27.8955 14.4847L127.96 14.4847L127.96-60.4667L27.8955-60.4667ZM45.2075 14.1299L45.2075-44.7733Q45.2075-48.9641 47.4057-51.2069Q49.6038-53.4497 53.6248-53.4497L102.232-53.4497Q106.253-53.4497 108.453-51.2069Q110.653-48.9641 110.653-44.7733L110.653 14.1299L107.841 14.1299L107.841-45.1857Q107.841-50.7167 102.643-50.7167L53.2125-50.7167Q48.0196-50.7167 48.0196-45.1857L48.0196 14.1299ZM77.8873 8.20562Q69.9667 8.20562 65.2845 4.21778Q60.6022 0.22994 60.6022-6.46652Q60.6022-10.3408 61.5762-12.7962Q62.5502-15.2516 63.5644-17.4721Q64.5785-19.6925 64.5785-22.8646Q64.5785-23.6867 64.4509-24.6275Q64.3232-25.5683 64.3232-26.0598Q64.3232-26.4873 64.9219-26.4873Q66.0337-26.4873 67.951-25.3148Q69.8684-24.1424 70.8372-22.1141Q71.7716-25.724 70.5385-29.6512Q69.3054-33.5783 66.1728-37.3594Q65.5614-38.1227 65.9412-38.8242Q66.321-39.5256 67.4685-39.5256Q72.1738-39.5256 77.3136-37.9102Q82.4534-36.2947 86.8567-32.859Q91.26-29.4233 94.0077-24.1353Q96.7554-18.8474 96.7554-11.4182Q96.7554-2.53113 91.5523 2.83725Q86.3492 8.20562 77.8873 8.20562ZM78.2767 1.73113Q81.8956 1.73113 83.6623-0.560838Q85.4289-2.85281 85.4289-5.82316Q85.4289-8.74137 83.6961-11.6767Q81.9633-14.612 78.352-16.4348Q78.8345-14.3082 78.6066-12.0877Q78.3787-9.8672 77.4048-8.23576Q76.6095-10.1442 74.8991-11.2828Q74.5774-9.43831 73.2523-8.03096Q71.9273-6.62361 71.9273-3.97351Q71.9273-1.49085 73.6544 0.120142Q75.3816 1.73113 78.2767 1.73113ZM18.3881 16.7046L137.553 16.7046Q138.016 16.7046 138.429 16.3344Q138.842 15.9642 138.842 15.4191Q138.842 14.8702 138.429 14.5001Q138.016 14.1299 137.553 14.1299L18.3881 14.1299Q17.8443 14.1299 17.4716 14.5001Q17.0988 14.8702 17.0988 15.4191Q17.0988 15.9642 17.4716 16.3344Q17.8443 16.7046 18.3881 16.7046Z"/>
  </g>
  <g id="Black-M" transform="matrix(1 0 0 1 2852.88 1126)">
   <path d="M20.7996-65.3833L140.312-65.3833Q143.71-65.3833 145.892-67.5683Q148.074-69.7534 148.074-73.1507L148.074-87.8519Q148.074-91.2492 145.892-93.403Q143.71-95.5568 140.312-95.5568L20.7996-95.5568Q17.3965-95.5568 15.2142-93.403Q13.0319-91.2492 13.0319-87.8519L13.0319-73.1507Q13.0319-69.7534 15.2142-67.5683Q17.3965-65.3833 20.7996-65.3833ZM26.4636 12.3509L134.591 12.3509L134.591-58.0102L26.4636-58.0102ZM48.8225 7.67555L48.8225-41.4643Q48.8225-44.579 50.7236-46.4487Q52.6248-48.3184 55.74-48.3184L105.315-48.3184Q108.43-48.3184 110.328-46.4487Q112.227-44.579 112.227-41.4643L112.227 7.67555L102.207 7.67555L102.207-36.361Q102.207-38.4184 100.154-38.4184L60.9004-38.4184Q58.8419-38.4184 58.8419-36.361L58.8419 7.67555ZM79.9302 4.68785Q74.1022 4.68785 70.5105 1.52637Q66.9188-1.63512 66.9188-6.77896Q66.9188-9.8102 67.5984-11.7934Q68.2779-13.7766 68.9601-15.4504Q69.6423-17.1243 69.6423-19.1106Q69.6423-19.5974 69.6427-20.1234Q69.6432-20.6494 69.6432-20.8981Q69.6432-22.0801 70.8817-22.0801Q72.0559-22.0801 73.1731-21.242Q74.2902-20.4039 75.0324-19.0395Q74.9722-22.1397 73.7616-24.2772Q72.551-26.4146 71.1333-28.1541Q70.1396-29.5117 70.8497-30.4425Q71.5598-31.3732 73.4222-31.3732Q76.6439-31.3732 80.3307-30.1639Q84.0174-28.9546 87.3027-26.4143Q90.5879-23.8739 92.6613-19.8462Q94.7346-15.8185 94.7346-10.2391Q94.7346-3.54925 90.7066 0.569304Q86.6787 4.68785 79.9302 4.68785ZM80.4866 0.0383844Q83.5187 0.0383844 84.9778-1.88004Q86.4369-3.79846 86.4369-6.28052Q86.4369-9.68491 84.4513-12.1018Q82.4657-14.5186 80.5544-15.1383Q81.0424-12.6589 80.6392-10.9565Q80.236-9.2541 79.5564-8.26385Q78.8082-10.1292 77.6414-10.9279Q77.3922-9.3752 76.2758-8.17068Q75.1594-6.96615 75.1594-4.73332Q75.1594-2.5625 76.6444-1.26206Q78.1295 0.0383844 80.4866 0.0383844ZM21.132 25.019L139.922 25.019Q143.505 25.019 146.048 22.4759Q148.591 19.9328 148.591 16.3445Q148.591 12.7618 146.048 10.2187Q143.505 7.67555 139.922 7.67555L21.132 7.67555Q17.5437 7.67555 15.0034 10.2187Q12.463 12.7618 12.463 16.3445Q12.463 19.9328 15.0034 22.4759Q17.5437 25.019 21.132 25.019Z"/>
  </g>
  <g id="Heavy-M" transform="matrix(1 0 0 1 2559.06 1126)">
   <path d="M20.0561-64.8509L135.258-64.8509Q138.392-64.8509 140.396-66.8631Q142.4-68.8753 142.4-72.0121L142.4-85.7987Q142.4-88.9356 140.396-90.9177Q138.392-92.8999 135.258-92.8999L20.0561-92.8999Q16.9051-92.8999 14.9011-90.9177Q12.8972-88.9356 12.8972-85.7987L12.8972-72.0121Q12.8972-68.8753 14.9011-66.8631Q16.9051-64.8509 20.0561-64.8509ZM25.814 11.6847L129.456 11.6847L129.456-57.874L25.814-57.874ZM46.7001 7.21342L46.7001-41.4641Q46.7001-44.5839 48.5936-46.4485Q50.487-48.3131 53.6023-48.3131L101.668-48.3131Q104.783-48.3131 106.669-46.4485Q108.554-44.5839 108.554-41.4641L108.554 7.21342L99.4461 7.21342L99.4461-37.1452Q99.4461-39.3113 97.3054-39.3113L57.9649-39.3113Q55.8078-39.3113 55.8078-37.1452L55.8078 7.21342ZM77.0544 3.76944Q71.2707 3.76944 67.7227 0.64453Q64.1746-2.48038 64.1746-7.5696Q64.1746-10.5546 64.8459-12.5122Q65.5171-14.4697 66.1976-16.1284Q66.8782-17.7872 66.8782-19.7804Q66.8782-20.2506 66.8748-20.7788Q66.8713-21.307 66.8713-21.5608Q66.8713-22.6986 68.0573-22.6986Q69.1969-22.6986 70.3227-21.8634Q71.4485-21.0282 72.1797-19.6671Q72.1612-22.7218 70.9717-24.8774Q69.7823-27.0329 68.348-28.8184Q67.3857-30.1126 68.0628-31.0171Q68.7399-31.9216 70.5421-31.9216Q73.7464-31.9216 77.4052-30.722Q81.064-29.5223 84.3203-27.0054Q87.5766-24.4885 89.624-20.5032Q91.6713-16.5179 91.6713-10.988Q91.6713-4.36941 87.6882-0.299987Q83.7052 3.76944 77.0544 3.76944ZM77.5896-0.849156Q80.5678-0.849156 82.0122-2.73389Q83.4565-4.61863 83.4565-7.07116Q83.4565-10.375 81.5183-12.7581Q79.5801-15.1413 77.6683-15.7916Q78.1294-13.3782 77.7406-11.6977Q77.3518-10.0171 76.6805-9.02754Q75.9374-10.8667 74.7983-11.6461Q74.5491-10.1094 73.4474-8.93183Q72.3458-7.75426 72.3458-5.55091Q72.3458-3.4122 73.8026-2.13068Q75.2594-0.849156 77.5896-0.849156ZM20.0544 22.3294L135.218 22.3294Q138.327 22.3294 140.548 20.1102Q142.768 17.891 142.768 14.7632Q142.768 11.6519 140.548 9.43264Q138.327 7.21342 135.218 7.21342L20.0544 7.21342Q16.9267 7.21342 14.7157 9.43264Q12.5046 11.6519 12.5046 14.7632Q12.5046 17.891 14.7157 20.1102Q16.9267 22.3294 20.0544 22.3294Z"/>
  </g>
  <g id="Bold-M" transform="matrix(1 0 0 1 2265.59 1126)">
   <path d="M19.2245-64.2554L129.604-64.2554Q132.444-64.2554 134.249-66.0742Q136.053-67.8931 136.053-70.7385L136.053-83.5019Q136.053-86.3474 134.249-88.1376Q132.444-89.9279 129.604-89.9279L19.2245-89.9279Q16.3554-89.9279 14.5509-88.1376Q12.7464-86.3474 12.7464-83.5019L12.7464-70.7385Q12.7464-67.8931 14.5509-66.0742Q16.3554-64.2554 19.2245-64.2554ZM25.0873 10.9394L123.712 10.9394L123.712-57.7217L25.0873-57.7217ZM44.3259 6.69646L44.3259-41.4639Q44.3259-44.5894 46.2108-46.4483Q48.0957-48.3072 51.2109-48.3072L97.5889-48.3072Q100.704-48.3072 102.575-46.4483Q104.445-44.5894 104.445-41.4639L104.445 6.69646L96.3575 6.69646L96.3575-38.0224Q96.3575-40.3102 94.1187-40.3102L54.681-40.3102Q52.4136-40.3102 52.4136-38.0224L52.4136 6.69646ZM73.8373 2.74206Q68.1033 2.74206 64.6041-0.341929Q61.1049-3.42592 61.1049-8.45404Q61.1049-11.3874 61.7668-13.3162Q62.4286-15.245 63.1074-16.8869Q63.7861-18.5287 63.7861-20.5298Q63.7861-20.9813 63.7784-21.512Q63.7707-22.0426 63.7707-22.3021Q63.7707-23.3905 64.8979-23.3905Q65.9988-23.3905 67.1342-22.5586Q68.2697-21.7267 68.9886-20.3692Q69.0166-23.3729 67.8508-25.5488Q66.685-27.7246 65.2322-29.5616Q64.3051-30.7848 64.9453-31.66Q65.5855-32.5351 67.3204-32.5351Q70.5052-32.5351 74.1326-31.3462Q77.7601-30.1573 80.9841-27.6667Q84.2081-25.176 86.2263-21.2382Q88.2445-17.3003 88.2445-11.8257Q88.2445-5.28689 84.3117-1.27241Q80.379 2.74206 73.8373 2.74206ZM74.3489-1.842Q77.2668-1.842 78.6946-3.68905Q80.1224-5.53611 80.1224-7.95561Q80.1224-11.1469 78.2373-13.4924Q76.3522-15.8379 74.4398-16.5225Q74.8707-14.1829 74.498-12.5268Q74.1253-10.8707 73.4634-9.88184Q72.7261-11.6916 71.6179-12.4494Q71.3687-10.9307 70.2835-9.7833Q69.1983-8.63587 69.1983-6.4655Q69.1983-4.3627 70.6236-3.10235Q72.0488-1.842 74.3489-1.842ZM18.849 19.3207L129.956 19.3207Q132.535 19.3207 134.394 17.4638Q136.254 15.6069 136.254 12.9943Q136.254 10.4103 134.394 8.55336Q132.535 6.69646 129.956 6.69646L18.849 6.69646Q16.2364 6.69646 14.3938 8.55336Q12.5512 10.4103 12.5512 12.9943Q12.5512 15.6069 14.3938 17.4638Q16.2364 19.3207 18.849 19.3207Z"/>
  </g>
  <g id="Semibold-M" transform="matrix(1 0 0 1 1971.12 1126)">
   <path d="M18.6512-63.8448L125.706-63.8448Q128.344-63.8448 130.011-65.5304Q131.678-67.2159 131.678-69.8605L131.678-81.9185Q131.678-84.5631 130.011-86.221Q128.344-87.879 125.706-87.879L18.6512-87.879Q15.9765-87.879 14.3095-86.221Q12.6425-84.5631 12.6425-81.9185L12.6425-69.8605Q12.6425-67.2159 14.3095-65.5304Q15.9765-63.8448 18.6512-63.8448ZM24.5863 10.4256L119.753 10.4256L119.753-57.6166L24.5863-57.6166ZM42.6892 6.34006L42.6892-41.4638Q42.6892-44.5932 44.5682-46.4481Q46.4471-48.3031 49.5624-48.3031L94.7767-48.3031Q97.8919-48.3031 99.7523-46.4481Q101.613-44.5932 101.613-41.4638L101.613 6.34006L94.2282 6.34006L94.2282-38.6272Q94.2282-40.9988 91.9218-40.9988L52.4171-40.9988Q50.0738-40.9988 50.0738-38.6272L50.0738 6.34006ZM71.6194 2.03379Q65.9197 2.03379 62.4542-1.02199Q58.9887-4.07777 58.9887-9.06377Q58.9887-11.9615 59.6441-13.8705Q60.2995-15.7796 60.977-17.4098Q61.6545-19.04 61.6545-21.0464Q61.6545-21.485 61.6438-22.0174Q61.6331-22.5498 61.6331-22.8132Q61.6331-23.8675 62.7199-23.8675Q63.794-23.8675 64.9361-23.0378Q66.0782-22.2082 66.7887-20.8532Q66.8488-23.8218 65.6993-26.0116Q64.5498-28.2015 63.0843-30.074Q62.1813-31.2482 62.7961-32.1031Q63.4108-32.958 65.0993-32.958Q68.2707-32.958 71.8765-31.7766Q75.4824-30.5951 78.6841-28.1225Q81.8858-25.65 83.8839-21.7448Q85.8821-17.8396 85.8821-12.4033Q85.8821-5.91939 81.984-1.9428Q78.0859 2.03379 71.6194 2.03379ZM72.1148-2.52646Q74.9911-2.52646 76.4075-4.34753Q77.824-6.16861 77.824-8.56534Q77.824-11.6791 75.9754-13.9986Q74.1268-16.3181 72.2141-17.0264Q72.6242-14.7377 72.2626-13.0984Q71.901-11.4591 71.2456-10.4708Q70.5122-12.2603 69.4253-13.0032Q69.1761-11.4969 68.1023-10.3703Q67.0285-9.24364 67.0285-7.09602Q67.0285-5.01797 68.432-3.77222Q69.8355-2.52646 72.1148-2.52646ZM18.018 17.2466L126.328 17.2466Q128.541 17.2466 130.152 15.6395Q131.763 14.0323 131.763 11.7748Q131.763 9.55431 130.152 7.94719Q128.541 6.34006 126.328 6.34006L18.018 6.34006Q15.7605 6.34006 14.1719 7.94719Q12.5833 9.55431 12.5833 11.7748Q12.5833 14.0323 14.1719 15.6395Q15.7605 17.2466 18.018 17.2466Z"/>
  </g>
  <g id="Medium-M" transform="matrix(1 0 0 1 1676.1 1126)">
   <path d="M18.2164-63.5335L122.751-63.5335Q125.234-63.5335 126.797-65.118Q128.36-66.7025 128.36-69.1948L128.36-80.7179Q128.36-83.2102 126.797-84.7678Q125.234-86.3254 122.751-86.3254L18.2164-86.3254Q15.6891-86.3254 14.1264-84.7678Q12.5637-83.2102 12.5637-80.7179L12.5637-69.1948Q12.5637-66.7025 14.1264-65.118Q15.6891-63.5335 18.2164-63.5335ZM24.2064 10.036L116.75 10.036L116.75-57.537L24.2064-57.537ZM41.4481 6.06983L41.4481-41.4636Q41.4481-44.5961 43.3226-46.448Q45.1971-48.3 48.3124-48.3L92.6444-48.3Q95.7596-48.3 97.6124-46.448Q99.4651-44.5961 99.4651-41.4636L99.4651 6.06983L92.6137 6.06983L92.6137-39.0857Q92.6137-41.5209 90.256-41.5209L50.7006-41.5209Q48.2996-41.5209 48.2996-39.0857L48.2996 6.06983ZM69.9378 1.49675Q64.264 1.49675 60.824-1.53764Q57.384-4.57203 57.384-9.5261Q57.384-12.3968 58.0346-14.2908Q58.6851-16.1848 59.3616-17.8062Q60.0382-19.4276 60.0382-21.4381Q60.0382-21.8669 60.0252-22.4006Q60.0123-22.9343 60.0123-23.2007Q60.0123-24.2292 61.0683-24.2292Q62.1222-24.2292 63.2693-23.4012Q64.4165-22.5732 65.1206-21.2202Q65.205-24.1621 64.0679-26.3626Q62.9308-28.563 61.4556-30.4624Q60.571-31.5996 61.1665-32.4392Q61.7619-33.2787 63.4152-33.2787Q66.5764-33.2787 70.1659-32.1029Q73.7553-30.927 76.9401-28.4682Q80.1249-26.0094 82.1079-22.129Q84.0908-18.2485 84.0908-12.8411Q84.0908-6.39898 80.219-2.45111Q76.3472 1.49675 69.9378 1.49675ZM70.4208-3.04544Q73.2656-3.04544 74.6734-4.84682Q76.0812-6.6482 76.0812-9.02766Q76.0812-12.0826 74.2603-14.3824Q72.4395-16.6822 70.5264-17.4084Q70.9208-15.1583 70.5676-13.5318Q70.2145-11.9053 69.5639-10.9174Q68.8335-12.6916 67.7629-13.4232Q67.5136-11.9263 66.4484-10.8154Q65.3832-9.70449 65.3832-7.5741Q65.3832-5.51483 66.7702-4.28014Q68.1572-3.04544 70.4208-3.04544ZM17.3879 15.6739L123.577 15.6739Q125.514 15.6739 126.936 14.2561Q128.358 12.8384 128.358 10.8501Q128.358 8.9053 126.936 7.48757Q125.514 6.06983 123.577 6.06983L17.3879 6.06983Q15.3997 6.06983 14.0037 7.48757Q12.6076 8.9053 12.6076 10.8501Q12.6076 12.8384 14.0037 14.2561Q15.3997 15.6739 17.3879 15.6739Z"/>
  </g>
  <g id="Regular-M" transform="matrix(1 0 0 1 1381.6 1126)">
   <path d="M17.6494-63.1275L118.896-63.1275Q121.179-63.1275 122.606-64.5801Q124.032-66.0328 124.032-68.3264L124.032-79.1519Q124.032-81.4456 122.606-82.8723Q121.179-84.299 118.896-84.299L17.6494-84.299Q15.3144-84.299 13.8876-82.8723Q12.4609-81.4456 12.4609-79.1519L12.4609-68.3264Q12.4609-66.0328 13.8876-64.5801Q15.3144-63.1275 17.6494-63.1275ZM23.7109 9.5279L112.834 9.5279L112.834-57.4331L23.7109-57.4331ZM39.8294 5.71736L39.8294-41.4635Q39.8294-44.5998 41.698-46.4479Q43.5667-48.2959 46.6819-48.2959L89.8631-48.2959Q92.9783-48.2959 94.8211-46.4479Q96.6638-44.5998 96.6638-41.4635L96.6638 5.71736L90.5078 5.71736L90.5078-39.6838Q90.5078-42.202 88.0833-42.202L48.4616-42.202Q45.9854-42.202 45.9854-39.6838L45.9854 5.71736ZM67.7443 0.796268Q62.1043 0.796268 58.6977-2.21022Q55.2911-5.21671 55.2911-10.1291Q55.2911-12.9646 55.9352-14.839Q56.5793-16.7135 57.2546-18.3234Q57.9299-19.9332 57.9299-21.949Q57.9299-22.3651 57.9141-22.9005Q57.8982-23.4359 57.8982-23.7062Q57.8982-24.7009 58.9142-24.7009Q59.9417-24.7009 61.0954-23.8752Q62.2491-23.0494 62.9449-21.6988Q63.061-24.6061 61.94-26.8203Q60.819-29.0346 59.3312-30.9692Q58.4706-32.0579 59.0409-32.8775Q59.6112-33.697 61.2185-33.697Q64.3664-33.697 67.9346-32.5285Q71.5027-31.36 74.6654-28.9191Q77.8282-26.4782 79.7913-22.6301Q81.7544-18.782 81.7544-13.4123Q81.7544-7.02453 77.9168-3.11413Q74.0793 0.796268 67.7443 0.796268ZM68.2112-3.72238Q71.0149-3.72238 72.4114-5.49807Q73.808-7.27375 73.808-9.63069Q73.808-12.6089 72.0233-14.883Q70.2386-17.1571 68.3252-17.9068Q68.699-15.707 68.3568-14.0971Q68.0146-12.4872 67.3705-11.4998Q66.6439-13.254 65.5944-13.9709Q65.3452-12.4862 64.2912-11.3959Q63.2373-10.3056 63.2373-8.19768Q63.2373-6.1629 64.6027-4.94264Q65.9682-3.72238 68.2112-3.72238ZM16.566 13.6225L119.989 13.6225Q121.564 13.6225 122.74 12.4518Q123.916 11.2811 123.916 9.64401Q123.916 8.05876 122.74 6.88806Q121.564 5.71736 119.989 5.71736L16.566 5.71736Q14.9291 5.71736 13.7842 6.88806Q12.6394 8.05876 12.6394 9.64401Q12.6394 11.2811 13.7842 12.4518Q14.9291 13.6225 16.566 13.6225Z"/>
  </g>
  <g id="Light-M" transform="matrix(1 0 0 1 1087.33 1126)">
   <path d="M17.2731-61.6389L114.378-61.6389Q116.525-61.6389 117.84-62.9718Q119.156-64.3047 119.156-66.4785L119.156-76.7735Q119.156-78.9473 117.84-80.2628Q116.525-81.5782 114.378-81.5782L17.2731-81.5782Q15.0918-81.5782 13.7764-80.2628Q12.4609-78.9473 12.4609-76.7735L12.4609-66.4785Q12.4609-64.3047 13.7764-62.9718Q15.0918-61.6389 17.2731-61.6389ZM23.0606 7.59428L108.59 7.59428L108.59-56.6117L23.0606-56.6117ZM38.3408 4.87905L38.3408-41.8228Q38.3408-44.9934 40.1581-46.8072Q41.9754-48.621 45.0907-48.621L86.5608-48.621Q89.676-48.621 91.4759-46.8072Q93.2758-44.9934 93.2758-41.8228L93.2758 4.87905L88.3519 4.87905L88.3519-40.6934Q88.3519-43.759 85.4309-43.759L46.2201-43.759Q43.2646-43.759 43.2646-40.6934L43.2646 4.87905ZM65.4513 0.0605953Q59.6576 0.0605953 56.1825-2.97163Q52.7074-6.00385 52.7074-11.0016Q52.7074-13.8885 53.3858-15.7716Q54.0641-17.6547 54.7736-19.2988Q55.4831-20.9429 55.4831-23.0955Q55.4831-23.58 55.4415-24.1753Q55.4-24.7706 55.4-25.0752Q55.4-25.8644 56.2449-25.8644Q57.2209-25.8644 58.4774-25.013Q59.7339-24.1617 60.4466-22.7427Q60.751-25.6157 59.6814-28.0866Q58.6117-30.5574 56.833-32.8002Q56.0922-33.7348 56.577-34.4688Q57.0618-35.2028 58.4466-35.2028Q61.7486-35.2028 65.445-34.0086Q69.1413-32.8144 72.3811-30.305Q75.6209-27.7957 77.6353-23.8706Q79.6497-19.9454 79.6497-14.4562Q79.6497-7.91429 75.7522-3.92685Q71.8547 0.0605953 65.4513 0.0605953ZM65.867-4.61215Q68.6707-4.61215 70.0587-6.38783Q71.4466-8.16351 71.4466-10.5032Q71.4466-13.2592 69.7989-15.5333Q68.1512-17.8074 65.9638-18.7623Q66.3376-16.7336 66.0467-15.0895Q65.7558-13.4454 65.0775-12.3723Q64.3851-14.0412 63.2502-14.8092Q63.001-13.3418 61.9555-12.2515Q60.9101-11.1611 60.9101-9.0702Q60.9101-7.06991 62.2671-5.84103Q63.6241-4.61215 65.867-4.61215ZM15.8473 10.9532L115.832 10.9532Q117.03 10.9532 117.94 10.0563Q118.851 9.15947 118.851 7.89869Q118.851 6.6728 117.94 5.77592Q117.03 4.87905 115.832 4.87905L15.8473 4.87905Q14.587 4.87905 13.7073 5.77592Q12.8277 6.6728 12.8277 7.89869Q12.8277 9.15947 13.7073 10.0563Q14.587 10.9532 15.8473 10.9532Z"/>
  </g>
  <g id="Thin-M" transform="matrix(1 0 0 1 793.839 1126)">
   <path d="M16.7754-59.6701L108.404-59.6701Q110.369-59.6701 111.538-60.8447Q112.706-62.0192 112.706-64.0344L112.706-73.628Q112.706-75.6432 111.538-76.8115Q110.369-77.9798 108.404-77.9798L16.7754-77.9798Q14.7976-77.9798 13.6292-76.8115Q12.4609-75.6432 12.4609-73.628L12.4609-64.0344Q12.4609-62.0192 13.6292-60.8447Q14.7976-59.6701 16.7754-59.6701ZM22.2006 5.03691L102.978 5.03691L102.978-55.5255L22.2006-55.5255ZM36.372 3.77033L36.372-42.2981Q36.372-45.5139 38.1214-47.2825Q39.8709-49.0511 42.9861-49.0511L82.1932-49.0511Q85.3084-49.0511 87.0516-47.2825Q88.7949-45.5139 88.7949-42.2981L88.7949 3.77033L85.5006 3.77033L85.5006-42.0288Q85.5006-45.8183 81.923-45.8183L43.2555-45.8183Q39.6662-45.8183 39.6662-42.0288L39.6662 3.77033ZM62.4187-0.912391Q56.4215-0.912391 52.8559-3.97864Q49.2904-7.04489 49.2904-12.1556Q49.2904-15.1106 50.014-17.0051Q50.7376-18.8996 51.4923-20.5889Q52.2471-22.2782 52.2471-24.6119Q52.2471-25.1868 52.1715-25.8614Q52.0958-26.536 52.0958-26.8858Q52.0958-27.4031 52.7146-27.4031Q53.6225-27.4031 55.0149-26.5179Q56.4073-25.6328 57.1425-24.1233Q57.696-26.9511 56.6942-29.7612Q55.6924-32.5714 53.5288-35.2218Q52.9466-35.9527 53.3183-36.5736Q53.69-37.1944 54.7805-37.1944Q58.2863-37.1944 62.1522-35.9662Q66.0182-34.7379 69.3598-32.1381Q72.7015-29.5382 74.7838-25.5112Q76.8661-21.4842 76.8661-15.8368Q76.8661-9.09108 72.8893-5.00174Q68.9126-0.912391 62.4187-0.912391ZM62.7667-5.78893Q65.5704-5.78893 66.9469-7.56461Q68.3234-9.3403 68.3234-11.6572Q68.3234-14.1192 66.8569-16.3934Q65.3904-18.6675 62.8406-19.8938Q63.2144-18.0913 62.9914-16.402Q62.7684-14.7127 62.0448-13.5263Q61.3977-15.0822 60.1499-15.918Q59.9007-14.4733 58.8664-13.383Q57.8322-12.2927 57.8322-10.2242Q57.8322-8.26951 59.178-7.02922Q60.5237-5.78893 62.7667-5.78893ZM14.8967 7.42286L110.332 7.42286Q111.032 7.42286 111.592 6.88814Q112.152 6.35343 112.152 5.59037Q112.152 4.83975 111.592 4.30504Q111.032 3.77033 110.332 3.77033L14.8967 3.77033Q14.1345 3.77033 13.6056 4.30504Q13.0767 4.83975 13.0767 5.59037Q13.0767 6.35343 13.6056 6.88814Q14.1345 7.42286 14.8967 7.42286Z"/>
  </g>
  <g id="Ultralight-M" transform="matrix(1 0 0 1 498.779 1126)">
   <path d="M16.5204-58.6617L105.344-58.6617Q107.217-58.6617 108.309-59.7551Q109.402-60.8486 109.402-62.7826L109.402-72.0168Q109.402-73.9508 108.309-75.0438Q107.217-76.1367 105.344-76.1367L16.5204-76.1367Q14.6468-76.1367 13.5539-75.0438Q12.4609-73.9508 12.4609-72.0168L12.4609-62.7826Q12.4609-60.8486 13.5539-59.7551Q14.6468-58.6617 16.5204-58.6617ZM21.7601 3.72703L100.103 3.72703L100.103-54.9691L21.7601-54.9691ZM35.3636 3.20244L35.3636-42.5415Q35.3636-45.7805 37.0783-47.5259Q38.793-49.2713 41.9082-49.2713L79.9561-49.2713Q83.0713-49.2713 84.7856-47.5259Q86.4998-45.7805 86.4998-42.5415L86.4998 3.20244L84.0402 3.20244L84.0402-42.7127Q84.0402-46.873 80.1263-46.873L41.737-46.873Q37.8231-46.873 37.8231-42.7127L37.8231 3.20244ZM60.8654-1.41075Q54.764-1.41075 51.1521-4.49443Q47.5402-7.57811 47.5402-12.7467Q47.5402-15.7365 48.287-17.6368Q49.0337-19.5372 49.8117-21.2497Q50.5896-22.9622 50.5896-25.3885Q50.5896-26.0098 50.4965-26.725Q50.4035-27.4402 50.4035-27.8132Q50.4035-28.1913 50.9063-28.1913Q51.7794-28.1913 53.2414-27.2888Q54.7035-26.3863 55.4502-24.8304Q56.1312-27.635 55.1641-30.619Q54.1971-33.603 51.8365-36.4621Q51.3355-37.0886 51.6492-37.6516Q51.9629-38.2145 52.9027-38.2145Q56.5129-38.2145 60.4657-36.9688Q64.4185-35.7231 67.8124-33.077Q71.2063-30.4308 73.3233-26.3515Q75.4403-22.2723 75.4403-16.5439Q75.4403-9.69382 71.423-5.55229Q67.4056-1.41075 60.8654-1.41075ZM61.1787-6.39167Q63.9824-6.39167 65.3531-8.16736Q66.7238-9.94304 66.7238-12.2482Q66.7238-14.5598 65.3501-16.8339Q63.9763-19.108 61.241-20.4734Q61.6148-18.7868 61.4266-17.0743Q61.2383-15.3618 60.4915-14.1174Q59.8676-15.6154 58.5619-16.4858Q58.3127-15.0529 57.2842-13.9626Q56.2557-12.8722 56.2557-10.8152Q56.2557-8.88394 57.5957-7.63781Q58.9358-6.39167 61.1787-6.39167ZM14.4099 5.61462L107.516 5.61462Q107.961 5.61462 108.341 5.26541Q108.721 4.9162 108.721 4.40805Q108.721 3.90087 108.341 3.55166Q107.961 3.20244 107.516 3.20244L14.4099 3.20244Q13.9028 3.20244 13.5535 3.55166Q13.2043 3.90087 13.2043 4.40805Q13.2043 4.9162 13.5535 5.26541Q13.9028 5.61462 14.4099 5.61462Z"/>
  </g>
  <g id="Black-S" transform="matrix(1 0 0 1 2869.56 696)">
   <path d="M16.5039-58.9355L111.23-58.9355Q113.965-58.9355 115.723-60.6934Q117.48-62.4512 117.48-65.1855L117.48-76.9531Q117.48-79.6875 115.723-81.4209Q113.965-83.1543 111.23-83.1543L16.5039-83.1543Q13.7695-83.1543 12.0117-81.4209Q10.2539-79.6875 10.2539-76.9531L10.2539-65.1855Q10.2539-62.4512 12.0117-60.6934Q13.7695-58.9355 16.5039-58.9355ZM20.8984 2.14844L106.787 2.14844L106.787-53.0762L20.8984-53.0762ZM38.8184-1.51367L38.8184-40.1367Q38.8184-42.5781 40.3076-44.043Q41.7969-45.5078 44.2383-45.5078L83.4473-45.5078Q85.8887-45.5078 87.3779-44.043Q88.8672-42.5781 88.8672-40.1367L88.8672-1.51367L80.8105-1.51367L80.8105-35.9375Q80.8105-37.5488 79.1992-37.5488L48.4863-37.5488Q46.875-37.5488 46.875-35.9375L46.875-1.51367ZM63.3789-3.71094Q58.7891-3.71094 55.957-6.20117Q53.125-8.69141 53.125-12.7441Q53.125-15.1367 53.6621-16.6992Q54.1992-18.2617 54.7363-19.5801Q55.2734-20.8984 55.2734-22.4609Q55.2734-22.8516 55.2734-23.2666Q55.2734-23.6816 55.2734-23.877Q55.2734-24.8047 56.25-24.8047Q57.1777-24.8047 58.0566-24.1455Q58.9355-23.4863 59.5215-22.4121Q59.4727-24.8535 58.5205-26.5381Q57.5684-28.2227 56.4453-29.5898Q55.6641-30.6641 56.2256-31.3965Q56.7871-32.1289 58.252-32.1289Q60.791-32.1289 63.6963-31.1768Q66.6016-30.2246 69.1895-28.2227Q71.7773-26.2207 73.4131-23.0469Q75.0488-19.873 75.0488-15.4785Q75.0488-10.2051 71.875-6.95801Q68.7012-3.71094 63.3789-3.71094ZM63.8184-7.37305Q66.2109-7.37305 67.3584-8.88672Q68.5059-10.4004 68.5059-12.3535Q68.5059-15.0391 66.9434-16.9434Q65.3809-18.8477 63.8672-19.3359Q64.2578-17.3828 63.9404-16.04Q63.623-14.6973 63.0859-13.916Q62.5-15.3809 61.5723-16.0156Q61.377-14.7949 60.498-13.8428Q59.6191-12.8906 59.6191-11.1328Q59.6191-9.42383 60.791-8.39844Q61.9629-7.37305 63.8184-7.37305ZM16.8457 12.6465L110.84 12.6465Q113.77 12.6465 115.845 10.5713Q117.92 8.49609 117.92 5.56641Q117.92 2.63672 115.845 0.561523Q113.77-1.51367 110.84-1.51367L16.8457-1.51367Q13.916-1.51367 11.8408 0.561523Q9.76562 2.63672 9.76562 5.56641Q9.76562 8.49609 11.8408 10.5713Q13.916 12.6465 16.8457 12.6465Z"/>
  </g>
  <g id="Heavy-S" transform="matrix(1 0 0 1 2575.01 696)">
   <path d="M15.9162-58.6705L107.485-58.6705Q110.012-58.6705 111.631-60.2958Q113.251-61.921 113.251-64.448L113.251-75.501Q113.251-78.028 111.631-79.6288Q110.012-81.2297 107.485-81.2297L15.9162-81.2297Q13.3777-81.2297 11.7582-79.6288Q10.1387-78.028 10.1387-75.501L10.1387-64.448Q10.1387-61.921 11.7582-60.2958Q13.3777-58.6705 15.9162-58.6705ZM20.4259 1.82575L102.938 1.82575L102.938-53.0646L20.4259-53.0646ZM37.1934-1.80178L37.1934-40.0906Q37.1934-42.532 38.6827-43.9969Q40.1719-45.4617 42.6133-45.4617L80.7505-45.4617Q83.1919-45.4617 84.6754-43.9969Q86.1589-42.532 86.1589-40.0906L86.1589-1.80178L78.7246-1.80178L78.7246-36.4791Q78.7246-38.1135 77.1018-38.1135L46.2621-38.1135Q44.6277-38.1135 44.6277-36.4791L44.6277-1.80178ZM61.2123-4.40241Q56.6801-4.40241 53.8942-6.85807Q51.1082-9.31373 51.1082-13.3088Q51.1082-15.6553 51.6338-17.1948Q52.1594-18.7342 52.6907-20.0353Q53.2221-21.3364 53.2221-22.8873Q53.2221-23.2549 53.2221-23.6642Q53.2221-24.0735 53.2221-24.2688Q53.2221-25.185 54.1756-25.185Q55.0803-25.185 55.9534-24.5316Q56.8266-23.8782 57.401-22.8155Q57.3637-25.2223 56.4231-26.8896Q55.4824-28.5569 54.3824-29.9241Q53.6127-30.9637 54.1569-31.6846Q54.7012-32.4055 56.143-32.4055Q58.6475-32.4055 61.5124-31.4649Q64.3773-30.5242 66.9307-28.5511Q69.484-26.578 71.0909-23.4502Q72.6978-20.3225 72.6978-15.9856Q72.6978-10.7928 69.5701-7.59762Q66.4424-4.40241 61.2123-4.40241ZM61.6402-8.01842Q63.9867-8.01842 65.1227-9.50328Q66.2586-10.9881 66.2586-12.9182Q66.2586-15.5461 64.7191-17.4216Q63.1797-19.2971 61.7006-19.7854Q62.0682-17.8668 61.7565-16.5471Q61.4449-15.2274 60.9193-14.4577Q60.3334-15.911 59.4402-16.5227Q59.2449-15.3135 58.3775-14.3844Q57.5102-13.4553 57.5102-11.7206Q57.5102-10.0346 58.659-9.02652Q59.8078-8.01842 61.6402-8.01842ZM16.0159 10.6873L107.348 10.6873Q109.92 10.6873 111.754 8.85414Q113.587 7.02096 113.587 4.43701Q113.587 1.86458 111.754 0.031398Q109.92-1.80178 107.348-1.80178L16.0159-1.80178Q13.432-1.80178 11.6046 0.031398Q9.77715 1.86458 9.77715 4.43701Q9.77715 7.02096 11.6046 8.85414Q13.432 10.6873 16.0159 10.6873Z"/>
  </g>
  <g id="Bold-S" transform="matrix(1 0 0 1 2280.72 696)">
   <path d="M15.2588-58.374L103.296-58.374Q105.591-58.374 107.056-59.8511Q108.521-61.3281 108.521-63.623L108.521-73.877Q108.521-76.1719 107.056-77.6245Q105.591-79.0771 103.296-79.0771L15.2588-79.0771Q12.9395-79.0771 11.4746-77.6245Q10.0098-76.1719 10.0098-73.877L10.0098-63.623Q10.0098-61.3281 11.4746-59.8511Q12.9395-58.374 15.2588-58.374ZM19.8975 1.46484L98.6328 1.46484L98.6328-53.0518L19.8975-53.0518ZM35.376-2.12402L35.376-40.0391Q35.376-42.4805 36.8652-43.9453Q38.3545-45.4102 40.7959-45.4102L77.7344-45.4102Q80.1758-45.4102 81.6528-43.9453Q83.1299-42.4805 83.1299-40.0391L83.1299-2.12402L76.3916-2.12402L76.3916-37.085Q76.3916-38.7451 74.7559-38.7451L43.7744-38.7451Q42.1143-38.7451 42.1143-37.085L42.1143-2.12402ZM58.7891-5.17578Q54.3213-5.17578 51.5869-7.59277Q48.8525-10.0098 48.8525-13.9404Q48.8525-16.2354 49.3652-17.749Q49.8779-19.2627 50.4028-20.5444Q50.9277-21.8262 50.9277-23.3643Q50.9277-23.7061 50.9277-24.1089Q50.9277-24.5117 50.9277-24.707Q50.9277-25.6104 51.8555-25.6104Q52.7344-25.6104 53.6011-24.9634Q54.4678-24.3164 55.0293-23.2666Q55.0049-25.6348 54.0771-27.2827Q53.1494-28.9307 52.0752-30.2979Q51.3184-31.2988 51.8433-32.0068Q52.3682-32.7148 53.7842-32.7148Q56.25-32.7148 59.0698-31.7871Q61.8896-30.8594 64.4043-28.9185Q66.9189-26.9775 68.4937-23.9014Q70.0684-20.8252 70.0684-16.5527Q70.0684-11.4502 66.9922-8.31299Q63.916-5.17578 58.7891-5.17578ZM59.2041-8.74023Q61.499-8.74023 62.6221-10.1929Q63.7451-11.6455 63.7451-13.5498Q63.7451-16.1133 62.2314-17.9565Q60.7178-19.7998 59.2773-20.2881Q59.6191-18.4082 59.314-17.1143Q59.0088-15.8203 58.4961-15.0635Q57.9102-16.5039 57.0557-17.0898Q56.8604-15.8936 56.0059-14.9902Q55.1514-14.0869 55.1514-12.3779Q55.1514-10.7178 56.2744-9.729Q57.3975-8.74023 59.2041-8.74023ZM15.0879 8.49609L103.442 8.49609Q105.615 8.49609 107.178 6.93359Q108.74 5.37109 108.74 3.17383Q108.74 1.00098 107.178-0.561523Q105.615-2.12402 103.442-2.12402L15.0879-2.12402Q12.8906-2.12402 11.3403-0.561523Q9.79004 1.00098 9.79004 3.17383Q9.79004 5.37109 11.3403 6.93359Q12.8906 8.49609 15.0879 8.49609Z"/>
  </g>
  <g id="Semibold-S" transform="matrix(1 0 0 1 1985.68 696)">
   <path d="M14.8056-58.1696L100.408-58.1696Q102.543-58.1696 103.901-59.5445Q105.259-60.9193 105.259-63.0543L105.259-72.7572Q105.259-74.8922 103.901-76.2426Q102.543-77.5931 100.408-77.5931L14.8056-77.5931Q12.6373-77.5931 11.2791-76.2426Q9.9209-74.8922 9.9209-72.7572L9.9209-63.0543Q9.9209-60.9193 11.2791-59.5445Q12.6373-58.1696 14.8056-58.1696ZM19.5331 1.21602L95.6646 1.21602L95.6646-53.0429L19.5331-53.0429ZM34.1229-2.34619L34.1229-40.0035Q34.1229-42.4449 35.6122-43.9098Q37.1015-45.3746 39.5429-45.3746L75.6549-45.3746Q78.0963-45.3746 79.5689-43.9098Q81.0415-42.4449 81.0415-40.0035L81.0415-2.34619L74.7831-2.34619L74.7831-37.5026Q74.7831-39.1806 73.1385-39.1806L42.0593-39.1806Q40.3813-39.1806 40.3813-37.5026L40.3813-2.34619ZM57.1184-5.70898Q52.695-5.70898 49.9962-8.09932Q47.2974-10.4896 47.2974-14.3759Q47.2974-16.6353 47.8012-18.1312Q48.305-19.6271 48.8254-20.8955Q49.3459-22.1639 49.3459-23.6931Q49.3459-24.0171 49.3459-24.4155Q49.3459-24.8139 49.3459-25.0092Q49.3459-25.9036 50.2559-25.9036Q51.117-25.9036 51.9792-25.2611Q52.8415-24.6186 53.3941-23.5776Q53.3786-25.9191 52.4598-27.5538Q51.5409-29.1884 50.4845-30.5556Q49.7365-31.5299 50.2481-32.229Q50.7597-32.9281 52.1579-32.9281Q54.5971-32.9281 57.3858-32.0093Q60.1745-31.0904 62.6625-29.1717Q65.1505-27.253 66.703-24.2124Q68.2555-21.1718 68.2555-16.9438Q68.2555-11.9034 65.2148-8.8062Q62.1742-5.70898 57.1184-5.70898ZM57.5245-9.23789Q59.7839-9.23789 60.898-10.6683Q62.0122-12.0987 62.0122-13.9853Q62.0122-16.5043 60.5163-18.3253Q59.0204-20.1464 57.6066-20.6347Q57.9307-18.7814 57.6299-17.5053Q57.3292-16.2291 56.8254-15.4812Q56.2395-16.9127 55.4116-17.4809Q55.2163-16.2935 54.3707-15.4079Q53.5251-14.5224 53.5251-12.8312Q53.5251-11.1888 54.6304-10.2133Q55.7356-9.23789 57.5245-9.23789ZM14.448 6.98535L100.75 6.98535Q102.647 6.98535 104.023 5.60947Q105.399 4.23359 105.399 2.30293Q105.399 0.405566 104.023-0.970313Q102.647-2.34619 100.75-2.34619L14.448-2.34619Q12.5174-2.34619 11.1582-0.970313Q9.79893 0.405566 9.79893 2.30293Q9.79893 4.23359 11.1582 5.60947Q12.5174 6.98535 14.448 6.98535Z"/>
  </g>
  <g id="Medium-S" transform="matrix(1 0 0 1 1690.24 696)">
   <path d="M14.4619-58.0146L98.2178-58.0146Q100.231-58.0146 101.509-59.312Q102.786-60.6094 102.786-62.623L102.786-71.9082Q102.786-73.9219 101.509-75.1948Q100.231-76.4678 98.2178-76.4678L14.4619-76.4678Q12.4082-76.4678 11.1309-75.1948Q9.85352-73.9219 9.85352-71.9082L9.85352-62.623Q9.85352-60.6094 11.1309-59.312Q12.4082-58.0146 14.4619-58.0146ZM19.2568 1.02734L93.4141 1.02734L93.4141-53.0361L19.2568-53.0361ZM33.1729-2.51465L33.1729-39.9766Q33.1729-42.418 34.6621-43.8828Q36.1514-45.3477 38.5928-45.3477L74.0781-45.3477Q76.5195-45.3477 77.9888-43.8828Q79.458-42.418 79.458-39.9766L79.458-2.51465L73.5635-2.51465L73.5635-37.8193Q73.5635-39.5107 71.9121-39.5107L40.7588-39.5107Q39.0674-39.5107 39.0674-37.8193L39.0674-2.51465ZM55.8516-6.11328Q51.4619-6.11328 48.79-8.4834Q46.1182-10.8535 46.1182-14.7061Q46.1182-16.9385 46.6152-18.4209Q47.1123-19.9033 47.6294-21.1616Q48.1465-22.4199 48.1465-23.9424Q48.1465-24.2529 48.1465-24.6479Q48.1465-25.043 48.1465-25.2383Q48.1465-26.126 49.043-26.126Q49.8906-26.126 50.7495-25.4868Q51.6084-24.8477 52.1543-23.8135Q52.1455-26.1348 51.2334-27.7593Q50.3213-29.3838 49.2783-30.751Q48.5371-31.7051 49.0386-32.3975Q49.54-33.0898 50.9248-33.0898Q53.3438-33.0898 56.1089-32.1777Q58.874-31.2656 61.3418-29.3638Q63.8096-27.4619 65.3452-24.4482Q66.8809-21.4346 66.8809-17.2402Q66.8809-12.2471 63.8672-9.18018Q60.8535-6.11328 55.8516-6.11328ZM56.251-9.61523Q58.4834-9.61523 59.5908-11.0288Q60.6982-12.4424 60.6982-14.3154Q60.6982-16.8008 59.2158-18.605Q57.7334-20.4092 56.3398-20.8975Q56.6504-19.0645 56.353-17.8018Q56.0557-16.5391 55.5586-15.7979Q54.9727-17.2227 54.165-17.7773Q53.9697-16.5967 53.1309-15.7246Q52.292-14.8525 52.292-13.1748Q52.292-11.5459 53.3838-10.5806Q54.4756-9.61523 56.251-9.61523ZM13.9629 5.83984L98.708 5.83984Q100.396 5.83984 101.631 4.60547Q102.865 3.37109 102.865 1.64258Q102.865-0.0458984 101.631-1.28027Q100.396-2.51465 98.708-2.51465L13.9629-2.51465Q12.2344-2.51465 11.02-1.28027Q9.80566-0.0458984 9.80566 1.64258Q9.80566 3.37109 11.02 4.60547Q12.2344 5.83984 13.9629 5.83984Z"/>
  </g>
  <g id="Regular-S" transform="matrix(1 0 0 1 1395.18 696)">
   <path d="M14.0137-57.8125L95.3613-57.8125Q97.2168-57.8125 98.3887-59.0088Q99.5605-60.2051 99.5605-62.0605L99.5605-70.8008Q99.5605-72.6562 98.3887-73.8281Q97.2168-75 95.3613-75L14.0137-75Q12.1094-75 10.9375-73.8281Q9.76562-72.6562 9.76562-70.8008L9.76562-62.0605Q9.76562-60.2051 10.9375-59.0088Q12.1094-57.8125 14.0137-57.8125ZM18.8965 0.78125L90.4785 0.78125L90.4785-53.0273L18.8965-53.0273ZM31.9336-2.73438L31.9336-39.9414Q31.9336-42.3828 33.4229-43.8477Q34.9121-45.3125 37.3535-45.3125L72.0215-45.3125Q74.4629-45.3125 75.9277-43.8477Q77.3926-42.3828 77.3926-39.9414L77.3926-2.73438L71.9727-2.73438L71.9727-38.2324Q71.9727-39.9414 70.3125-39.9414L39.0625-39.9414Q37.3535-39.9414 37.3535-38.2324L37.3535-2.73438ZM54.1992-6.64062Q49.8535-6.64062 47.2168-8.98438Q44.5801-11.3281 44.5801-15.1367Q44.5801-17.334 45.0684-18.7988Q45.5566-20.2637 46.0693-21.5088Q46.582-22.7539 46.582-24.2676Q46.582-24.5605 46.582-24.9512Q46.582-25.3418 46.582-25.5371Q46.582-26.416 47.4609-26.416Q48.291-26.416 49.1455-25.7812Q50-25.1465 50.5371-24.1211Q50.5371-26.416 49.6338-28.0273Q48.7305-29.6387 47.7051-31.0059Q46.9727-31.9336 47.4609-32.6172Q47.9492-33.3008 49.3164-33.3008Q51.709-33.3008 54.4434-32.3975Q57.1777-31.4941 59.6191-29.6143Q62.0605-27.7344 63.5742-24.7559Q65.0879-21.7773 65.0879-17.627Q65.0879-12.6953 62.1094-9.66797Q59.1309-6.64062 54.1992-6.64062ZM54.5898-10.1074Q56.7871-10.1074 57.8857-11.499Q58.9844-12.8906 58.9844-14.7461Q58.9844-17.1875 57.5195-18.9697Q56.0547-20.752 54.6875-21.2402Q54.9805-19.4336 54.6875-18.1885Q54.3945-16.9434 53.9062-16.2109Q53.3203-17.627 52.5391-18.1641Q52.3438-16.9922 51.5137-16.1377Q50.6836-15.2832 50.6836-13.623Q50.6836-12.0117 51.7578-11.0596Q52.832-10.1074 54.5898-10.1074ZM13.3301 4.3457L96.0449 4.3457Q97.4609 4.3457 98.5107 3.2959Q99.5605 2.24609 99.5605 0.78125Q99.5605-0.634766 98.5107-1.68457Q97.4609-2.73438 96.0449-2.73438L13.3301-2.73438Q11.8652-2.73438 10.8398-1.68457Q9.81445-0.634766 9.81445 0.78125Q9.81445 2.24609 10.8398 3.2959Q11.8652 4.3457 13.3301 4.3457Z"/>
  </g>
  <g id="Light-S" transform="matrix(1 0 0 1 1100.63 696)">
   <path d="M13.6808-56.4957L91.3653-56.4957Q93.0997-56.4957 94.1732-57.586Q95.2466-58.6764 95.2466-60.4258L95.2466-68.6968Q95.2466-70.4463 94.1732-71.5197Q93.0997-72.5932 91.3653-72.5932L13.6808-72.5932Q11.9125-72.5932 10.8391-71.5197Q9.76562-70.4463 9.76562-68.6968L9.76562-60.4258Q9.76562-58.6764 10.8391-57.586Q11.9125-56.4957 13.6808-56.4957ZM18.3212-0.92926L86.7246-0.92926L86.7246-52.3008L18.3212-52.3008ZM30.6168-3.47595L30.6168-40.2593Q30.6168-42.731 32.0606-44.1655Q33.5045-45.6001 35.9459-45.6001L69.1002-45.6001Q71.5416-45.6001 72.9685-44.1655Q74.3955-42.731 74.3955-40.2593L74.3955-3.47595L70.0656-3.47595L70.0656-39.1256Q70.0656-41.3188 67.9662-41.3188L37.0796-41.3188Q34.9467-41.3188 34.9467-39.1256L34.9467-3.47595ZM52.1708-7.29141Q47.6891-7.29141 44.9918-9.65792Q42.2946-12.0244 42.2946-15.9086Q42.2946-18.1513 42.8131-19.6238Q43.3317-21.0963 43.8746-22.3717Q44.4176-23.6471 44.4176-25.2818Q44.4176-25.6353 44.3948-26.0789Q44.372-26.5226 44.372-26.7481Q44.372-27.4452 45.0996-27.4452Q45.8842-27.4452 46.8296-26.7878Q47.775-26.1304 48.3271-25.0445Q48.4937-27.3092 47.6358-29.1475Q46.7779-30.9858 45.4951-32.6256Q44.8687-33.417 45.2813-34.0249Q45.694-34.6329 46.8643-34.6329Q49.3932-34.6329 52.241-33.7068Q55.0888-32.7807 57.5984-30.8403Q60.1079-28.8999 61.667-25.8532Q63.2261-22.8065 63.2261-18.5504Q63.2261-13.4824 60.1945-10.3869Q57.163-7.29141 52.1708-7.29141ZM52.5162-10.8945Q54.7134-10.8945 55.8044-12.2861Q56.8954-13.6777 56.8954-15.5179Q56.8954-17.7628 55.5518-19.545Q54.2081-21.3272 52.5986-21.9971Q52.8915-20.3417 52.644-19.0664Q52.3964-17.791 51.8778-16.9828Q51.3222-18.3233 50.4654-18.9056Q50.2701-17.749 49.4475-16.8945Q48.6249-16.04 48.6249-14.3949Q48.6249-12.8141 49.6916-11.8543Q50.7584-10.8945 52.5162-10.8945ZM12.6943 1.98441L92.3668 1.98441Q93.4497 1.98441 94.2649 1.17683Q95.0801 0.369263 95.0801-0.762685Q95.0801-1.86081 94.2649-2.66838Q93.4497-3.47595 92.3668-3.47595L12.6943-3.47595Q11.5626-3.47595 10.7718-2.66838Q9.98103-1.86081 9.98103-0.762685Q9.98103 0.369263 10.7718 1.17683Q11.5626 1.98441 12.6943 1.98441Z"/>
  </g>
  <g id="Thin-S" transform="matrix(1 0 0 1 806.769 696)">
   <path d="M13.2405-54.754L86.0802-54.754Q87.6546-54.754 88.5978-55.7043Q89.5411-56.6546 89.5411-58.2638L89.5411-65.9142Q89.5411-67.5234 88.5978-68.4667Q87.6546-69.41 86.0802-69.41L13.2405-69.41Q11.6522-69.41 10.7089-68.4667Q9.76562-67.5234 9.76562-65.9142L9.76562-58.2638Q9.76562-56.6546 10.7089-55.7043Q11.6522-54.754 13.2405-54.754ZM17.5604-3.19155L81.7597-3.19155L81.7597-51.3398L17.5604-51.3398ZM28.8751-4.45675L28.8751-40.6797Q28.8751-43.1914 30.259-44.586Q31.6428-45.9805 34.0842-45.9805L65.2365-45.9805Q67.6779-45.9805 69.0548-44.586Q70.4316-43.1914 70.4316-40.6797L70.4316-4.45675L67.5433-4.45675L67.5433-40.3068Q67.5433-43.1404 64.863-43.1404L34.4571-43.1404Q31.7635-43.1404 31.7635-40.3068L31.7635-4.45675ZM49.4881-8.15213Q44.8264-8.15213 42.0491-10.5487Q39.2718-12.9454 39.2718-16.9294Q39.2718-19.2324 39.8304-20.7149Q40.3889-22.1975 40.9719-23.5129Q41.5549-24.8283 41.5549-26.6231Q41.5549-27.0567 41.502-27.5705Q41.4492-28.0842 41.4492-28.3498Q41.4492-28.8064 41.9766-28.8064Q42.701-28.8064 43.7666-28.1191Q44.8323-27.4318 45.4042-26.2658Q45.7911-28.4904 44.9932-30.6289Q44.1954-32.7674 42.5722-34.7678Q42.0861-35.3789 42.3987-35.8868Q42.7112-36.3947 43.6212-36.3947Q46.3304-36.3947 49.3282-35.4385Q52.326-34.4823 54.9257-32.4618Q57.5254-30.4414 59.1445-27.3046Q60.7636-24.1678 60.7636-19.7716Q60.7636-14.5234 57.662-11.3378Q54.5603-8.15213 49.4881-8.15213ZM49.7736-11.9355Q51.9708-11.9355 53.0518-13.3271Q54.1327-14.7187 54.1327-16.5388Q54.1327-18.5236 52.9493-20.3058Q51.7659-22.088 49.8358-22.998Q50.1288-21.5429 49.9412-20.2274Q49.7537-18.912 49.1951-18.0036Q48.6795-19.2442 47.7228-19.8864Q47.5275-18.75 46.7148-17.8955Q45.9022-17.041 45.9022-15.4157Q45.9022-13.8753 46.959-12.9054Q48.0158-11.9355 49.7736-11.9355ZM11.8534-1.1386L87.5022-1.1386Q88.1444-1.1386 88.6493-1.6258Q89.1542-2.113 89.1542-2.80466Q89.1542-3.48235 88.6493-3.96955Q88.1444-4.45675 87.5022-4.45675L11.8534-4.45675Q11.1623-4.45675 10.6818-3.96955Q10.2013-3.48235 10.2013-2.80466Q10.2013-2.113 10.6818-1.6258Q11.1623-1.1386 11.8534-1.1386Z"/>
  </g>
  <g id="Ultralight-S" transform="matrix(1 0 0 1 511.519 696)">
   <path d="M13.015-53.862L83.3733-53.862Q84.8656-53.862 85.7422-54.7405Q86.6188-55.619 86.6188-57.1564L86.6188-64.489Q86.6188-66.0263 85.7422-66.9029Q84.8656-67.7795 83.3733-67.7795L13.015-67.7795Q11.5189-67.7795 10.6422-66.9029Q9.76562-66.0263 9.76562-64.489L9.76562-57.1564Q9.76562-55.619 10.6422-54.7405Q11.5189-53.862 13.015-53.862ZM17.1707-4.35028L79.2168-4.35028L79.2168-50.8476L17.1707-50.8476ZM27.9831-4.95911L27.9831-40.8951Q27.9831-43.4273 29.3362-44.8013Q30.6892-46.1754 33.1306-46.1754L63.2576-46.1754Q65.699-46.1754 67.0502-44.8013Q68.4013-43.4273 68.4013-40.8951L68.4013-4.95911L66.2514-4.95911L66.2514-40.9119Q66.2514-44.0735 63.2736-44.0735L33.1139-44.0735Q30.1331-44.0735 30.1331-40.9119L30.1331-4.95911ZM48.114-8.59299Q43.3601-8.59299 40.5418-11.005Q37.7235-13.4171 37.7235-17.4522Q37.7235-19.7861 38.3026-21.2738Q38.8817-22.7615 39.4852-24.0974Q40.0887-25.4333 40.0887-27.3102Q40.0887-27.7847 40.0204-28.3344Q39.9521-28.8841 39.9521-29.1702Q39.9521-29.5036 40.377-29.5036Q41.0706-29.5036 42.1978-28.801Q43.325-28.0983 43.9072-26.8913Q44.4069-29.0955 43.6398-31.3877Q42.8726-33.68 41.0751-35.865Q40.6609-36.3838 40.9222-36.8404Q41.1835-37.2971 41.9601-37.2971Q44.7617-37.2971 47.8363-36.3255Q50.9109-35.3539 53.5568-33.2924Q56.2027-31.2309 57.8526-28.0479Q59.5024-24.865 59.5024-20.3972Q59.5024-15.0566 56.3648-11.8248Q53.2272-8.59299 48.114-8.59299ZM48.3688-12.4687Q50.5661-12.4687 51.6418-13.8603Q52.7176-15.2519 52.7176-17.0616Q52.7176-18.9133 51.6163-20.6955Q50.515-22.4777 48.4207-23.5107Q48.7137-22.1581 48.5569-20.8221Q48.4001-19.4862 47.821-18.5265Q47.3259-19.7159 46.3181-20.3888Q46.1227-19.2627 45.3152-18.4082Q44.5076-17.5537 44.5076-15.9386Q44.5076-14.4188 45.5593-13.4438Q46.611-12.4687 48.3688-12.4687ZM11.4227-2.73819L85.0105-2.73819Q85.4271-2.73819 85.7731-3.06129Q86.1191-3.3844 86.1191-3.85056Q86.1191-4.3129 85.7731-4.636Q85.4271-4.95911 85.0105-4.95911L11.4227-4.95911Q10.9573-4.95911 10.6358-4.636Q10.3142-4.3129 10.3142-3.85056Q10.3142-3.3844 10.6358-3.06129Q10.9573-2.73819 11.4227-2.73819Z"/>
  </g>
 </g>
</svg>
