<?xml version="1.0" encoding="UTF-8"?>
<!--Generator: Apple Native CoreSVG 175.5-->
<!DOCTYPE svg
PUBLIC "-//W3C//DTD SVG 1.1//EN"
       "http://www.w3.org/Graphics/SVG/1.1/DTD/svg11.dtd">
<svg version="1.1" xmlns="http://www.w3.org/2000/svg" xmlns:xlink="http://www.w3.org/1999/xlink" width="3300" height="2200">
 <!--glyph: "uni101406.medium", point size: 100.0, font version: "18.0d9e1", template writer version: "84"-->
 <g id="Notes">
  <rect height="2200" id="artboard" style="fill:white;opacity:1" width="3300" x="0" y="0"/>
  <line style="fill:none;stroke:black;opacity:1;stroke-width:0.5;" x1="263" x2="3036" y1="292" y2="292"/>
  <text style="stroke:none;fill:black;font-family:sans-serif;font-size:13;font-weight:bold;" transform="matrix(1 0 0 1 263 322)">Weight/Scale Variations</text>
  <text style="stroke:none;fill:black;font-family:sans-serif;font-size:13;text-anchor:middle;" transform="matrix(1 0 0 1 559.711 322)">Ultralight</text>
  <text style="stroke:none;fill:black;font-family:sans-serif;font-size:13;text-anchor:middle;" transform="matrix(1 0 0 1 856.422 322)">Thin</text>
  <text style="stroke:none;fill:black;font-family:sans-serif;font-size:13;text-anchor:middle;" transform="matrix(1 0 0 1 1153.13 322)">Light</text>
  <text style="stroke:none;fill:black;font-family:sans-serif;font-size:13;text-anchor:middle;" transform="matrix(1 0 0 1 1449.84 322)">Regular</text>
  <text style="stroke:none;fill:black;font-family:sans-serif;font-size:13;text-anchor:middle;" transform="matrix(1 0 0 1 1746.56 322)">Medium</text>
  <text style="stroke:none;fill:black;font-family:sans-serif;font-size:13;text-anchor:middle;" transform="matrix(1 0 0 1 2043.27 322)">Semibold</text>
  <text style="stroke:none;fill:black;font-family:sans-serif;font-size:13;text-anchor:middle;" transform="matrix(1 0 0 1 2339.98 322)">Bold</text>
  <text style="stroke:none;fill:black;font-family:sans-serif;font-size:13;text-anchor:middle;" transform="matrix(1 0 0 1 2636.69 322)">Heavy</text>
  <text style="stroke:none;fill:black;font-family:sans-serif;font-size:13;text-anchor:middle;" transform="matrix(1 0 0 1 2933.4 322)">Black</text>
  <line style="fill:none;stroke:black;opacity:1;stroke-width:0.5;" x1="263" x2="3036" y1="1903" y2="1903"/>
  <g transform="matrix(1 0 0 1 263 1933)">
   <path d="M9.24805 0.830078Q10.8691 0.830078 12.2949 0.214844Q13.7207-0.400391 14.8096-1.49414Q15.8984-2.58789 16.5186-4.01367Q17.1387-5.43945 17.1387-7.05078Q17.1387-8.66211 16.5186-10.0879Q15.8984-11.5137 14.8047-12.6074Q13.7109-13.7012 12.2852-14.3164Q10.8594-14.9316 9.23828-14.9316Q7.62695-14.9316 6.20117-14.3164Q4.77539-13.7012 3.69141-12.6074Q2.60742-11.5137 1.9873-10.0879Q1.36719-8.66211 1.36719-7.05078Q1.36719-5.43945 1.9873-4.01367Q2.60742-2.58789 3.69629-1.49414Q4.78516-0.400391 6.21094 0.214844Q7.63672 0.830078 9.24805 0.830078ZM9.24805-0.654297Q7.91992-0.654297 6.7627-1.14746Q5.60547-1.64062 4.73145-2.51953Q3.85742-3.39844 3.36426-4.56055Q2.87109-5.72266 2.87109-7.05078Q2.87109-8.37891 3.35938-9.54102Q3.84766-10.7031 4.72168-11.582Q5.5957-12.4609 6.75293-12.9541Q7.91016-13.4473 9.23828-13.4473Q10.5762-13.4473 11.7383-12.9541Q12.9004-12.4609 13.7793-11.582Q14.6582-10.7031 15.1514-9.54102Q15.6445-8.37891 15.6445-7.05078Q15.6445-5.72266 15.1514-4.56055Q14.6582-3.39844 13.7793-2.51953Q12.9004-1.64062 11.7432-1.14746Q10.5859-0.654297 9.24805-0.654297ZM5.6543-7.05078Q5.6543-6.72852 5.85938-6.52832Q6.06445-6.32812 6.40625-6.32812L8.51562-6.32812L8.51562-4.20898Q8.51562-3.88672 8.71094-3.67676Q8.90625-3.4668 9.23828-3.4668Q9.56055-3.4668 9.77051-3.67676Q9.98047-3.88672 9.98047-4.20898L9.98047-6.32812L12.0898-6.32812Q12.4219-6.32812 12.627-6.52832Q12.832-6.72852 12.832-7.05078Q12.832-7.38281 12.627-7.58789Q12.4219-7.79297 12.0898-7.79297L9.98047-7.79297L9.98047-9.90234Q9.98047-10.2344 9.77051-10.4443Q9.56055-10.6543 9.23828-10.6543Q8.90625-10.6543 8.71094-10.4443Q8.51562-10.2344 8.51562-9.90234L8.51562-7.79297L6.40625-7.79297Q6.06445-7.79297 5.85938-7.58789Q5.6543-7.38281 5.6543-7.05078Z"/>
  </g>
  <g transform="matrix(1 0 0 1 281.867 1933)">
   <path d="M11.709 2.91016Q13.75 2.91016 15.5518 2.12891Q17.3535 1.34766 18.7305-0.0292969Q20.1074-1.40625 20.8887-3.20801Q21.6699-5.00977 21.6699-7.05078Q21.6699-9.0918 20.8887-10.8936Q20.1074-12.6953 18.7305-14.0723Q17.3535-15.4492 15.5469-16.2305Q13.7402-17.0117 11.6992-17.0117Q9.6582-17.0117 7.85645-16.2305Q6.05469-15.4492 4.68262-14.0723Q3.31055-12.6953 2.5293-10.8936Q1.74805-9.0918 1.74805-7.05078Q1.74805-5.00977 2.5293-3.20801Q3.31055-1.40625 4.6875-0.0292969Q6.06445 1.34766 7.86621 2.12891Q9.66797 2.91016 11.709 2.91016ZM11.709 1.25Q9.98047 1.25 8.47656 0.605469Q6.97266-0.0390625 5.83496-1.17676Q4.69727-2.31445 4.05762-3.81836Q3.41797-5.32227 3.41797-7.05078Q3.41797-8.7793 4.05762-10.2832Q4.69727-11.7871 5.83008-12.9297Q6.96289-14.0723 8.4668-14.7119Q9.9707-15.3516 11.6992-15.3516Q13.4277-15.3516 14.9365-14.7119Q16.4453-14.0723 17.583-12.9297Q18.7207-11.7871 19.3652-10.2832Q20.0098-8.7793 20.0098-7.05078Q20.0098-5.32227 19.3701-3.81836Q18.7305-2.31445 17.5879-1.17676Q16.4453-0.0390625 14.9414 0.605469Q13.4375 1.25 11.709 1.25ZM7.17773-7.05078Q7.17773-6.69922 7.41211-6.47461Q7.64648-6.25 8.01758-6.25L10.8887-6.25L10.8887-3.36914Q10.8887-2.99805 11.1133-2.76855Q11.3379-2.53906 11.6895-2.53906Q12.0605-2.53906 12.29-2.76855Q12.5195-2.99805 12.5195-3.36914L12.5195-6.25L15.4004-6.25Q15.7715-6.25 16.001-6.47461Q16.2305-6.69922 16.2305-7.05078Q16.2305-7.42188 16.001-7.65137Q15.7715-7.88086 15.4004-7.88086L12.5195-7.88086L12.5195-10.752Q12.5195-11.1328 12.29-11.3623Q12.0605-11.5918 11.6895-11.5918Q11.3379-11.5918 11.1133-11.3574Q10.8887-11.123 10.8887-10.752L10.8887-7.88086L8.01758-7.88086Q7.63672-7.88086 7.40723-7.65137Q7.17773-7.42188 7.17773-7.05078Z"/>
  </g>
  <g transform="matrix(1 0 0 1 305.646 1933)">
   <path d="M14.9707 5.66406Q17.0605 5.66406 18.96 5.01465Q20.8594 4.36523 22.4512 3.19336Q24.043 2.02148 25.2197 0.429688Q26.3965-1.16211 27.0459-3.06641Q27.6953-4.9707 27.6953-7.05078Q27.6953-9.14062 27.0459-11.04Q26.3965-12.9395 25.2197-14.5312Q24.043-16.123 22.4512-17.2998Q20.8594-18.4766 18.9551-19.126Q17.0508-19.7754 14.9609-19.7754Q12.8711-19.7754 10.9717-19.126Q9.07227-18.4766 7.48535-17.2998Q5.89844-16.123 4.72168-14.5312Q3.54492-12.9395 2.90039-11.04Q2.25586-9.14062 2.25586-7.05078Q2.25586-4.9707 2.90527-3.06641Q3.55469-1.16211 4.72656 0.429688Q5.89844 2.02148 7.49023 3.19336Q9.08203 4.36523 10.9814 5.01465Q12.8809 5.66406 14.9707 5.66406ZM14.9707 3.84766Q13.1641 3.84766 11.5283 3.2959Q9.89258 2.74414 8.53516 1.74805Q7.17773 0.751953 6.17676-0.610352Q5.17578-1.97266 4.62891-3.6084Q4.08203-5.24414 4.08203-7.05078Q4.08203-8.86719 4.62891-10.5029Q5.17578-12.1387 6.17188-13.501Q7.16797-14.8633 8.52539-15.8594Q9.88281-16.8555 11.5186-17.4023Q13.1543-17.9492 14.9609-17.9492Q16.7773-17.9492 18.4131-17.4023Q20.0488-16.8555 21.4111-15.8594Q22.7734-14.8633 23.7744-13.501Q24.7754-12.1387 25.3223-10.5029Q25.8691-8.86719 25.8691-7.05078Q25.8691-5.24414 25.3223-3.6084Q24.7754-1.97266 23.7793-0.610352Q22.7832 0.751953 21.4209 1.74805Q20.0586 2.74414 18.4229 3.2959Q16.7871 3.84766 14.9707 3.84766ZM9.19922-7.05078Q9.19922-6.66992 9.45801-6.4209Q9.7168-6.17188 10.1172-6.17188L14.0625-6.17188L14.0625-2.2168Q14.0625-1.81641 14.3115-1.55762Q14.5605-1.29883 14.9512-1.29883Q15.3516-1.29883 15.6104-1.55273Q15.8691-1.80664 15.8691-2.2168L15.8691-6.17188L19.8242-6.17188Q20.2246-6.17188 20.4785-6.4209Q20.7324-6.66992 20.7324-7.05078Q20.7324-7.46094 20.4785-7.71484Q20.2246-7.96875 19.8242-7.96875L15.8691-7.96875L15.8691-11.9141Q15.8691-12.3242 15.6104-12.583Q15.3516-12.8418 14.9512-12.8418Q14.5605-12.8418 14.3115-12.583Q14.0625-12.3242 14.0625-11.9141L14.0625-7.96875L10.1172-7.96875Q9.70703-7.96875 9.45312-7.71484Q9.19922-7.46094 9.19922-7.05078Z"/>
  </g>
  <text style="stroke:none;fill:black;font-family:sans-serif;font-size:13;font-weight:bold;" transform="matrix(1 0 0 1 263 1953)">Design Variations</text>
  <text style="stroke:none;fill:black;font-family:sans-serif;font-size:13;" transform="matrix(1 0 0 1 263 1971)">Symbols are supported in up to nine weights and three scales.</text>
  <text style="stroke:none;fill:black;font-family:sans-serif;font-size:13;" transform="matrix(1 0 0 1 263 1989)">For optimal layout with text and other symbols, vertically align</text>
  <text style="stroke:none;fill:black;font-family:sans-serif;font-size:13;" transform="matrix(1 0 0 1 263 2007)">symbols with the adjacent text.</text>
  <line style="fill:none;stroke:#00AEEF;stroke-width:0.5;opacity:1.0;" x1="776" x2="776" y1="1919" y2="1933"/>
  <g transform="matrix(1 0 0 1 776 1933)">
   <path d="M3.31055 0.15625Q3.70117 0.15625 3.91602-0.00976562Q4.13086-0.175781 4.26758-0.585938L5.52734-4.0332L11.2891-4.0332L12.5488-0.585938Q12.6855-0.175781 12.9004-0.00976562Q13.1152 0.15625 13.4961 0.15625Q13.8867 0.15625 14.1162-0.0585938Q14.3457-0.273438 14.3457-0.644531Q14.3457-0.869141 14.2383-1.17188L9.6582-13.3691Q9.48242-13.8184 9.17969-14.043Q8.87695-14.2676 8.4082-14.2676Q7.5-14.2676 7.17773-13.3789L2.59766-1.16211Q2.49023-0.859375 2.49023-0.634766Q2.49023-0.263672 2.70996-0.0537109Q2.92969 0.15625 3.31055 0.15625ZM6.00586-5.51758L8.37891-12.0898L8.42773-12.0898L10.8008-5.51758Z"/>
  </g>
  <line style="fill:none;stroke:#00AEEF;stroke-width:0.5;opacity:1.0;" x1="793.197" x2="793.197" y1="1919" y2="1933"/>
  <text style="stroke:none;fill:black;font-family:sans-serif;font-size:13;font-weight:bold;" transform="matrix(1 0 0 1 776 1953)">Margins</text>
  <text style="stroke:none;fill:black;font-family:sans-serif;font-size:13;" transform="matrix(1 0 0 1 776 1971)">Leading and trailing margins on the left and right side of each symbol</text>
  <text style="stroke:none;fill:black;font-family:sans-serif;font-size:13;" transform="matrix(1 0 0 1 776 1989)">can be adjusted by modifying the x-location of the margin guidelines.</text>
  <text style="stroke:none;fill:black;font-family:sans-serif;font-size:13;" transform="matrix(1 0 0 1 776 2007)">Modifications are automatically applied proportionally to all</text>
  <text style="stroke:none;fill:black;font-family:sans-serif;font-size:13;" transform="matrix(1 0 0 1 776 2025)">scales and weights.</text>
  <g transform="matrix(1 0 0 1 1289 1933)">
   <path d="M2.8418 1.86523L4.54102 3.57422Q5.18555 4.22852 5.90332 4.17969Q6.62109 4.13086 7.31445 3.35938L18.0078-8.42773L17.041-9.4043L6.42578 2.27539Q6.16211 2.57812 5.89355 2.61719Q5.625 2.65625 5.27344 2.30469L4.10156 1.14258Q3.75 0.791016 3.79395 0.522461Q3.83789 0.253906 4.14062-0.0195312L15.6152-10.8203L14.6387-11.7871L3.04688-0.898438Q2.30469-0.214844 2.25098 0.498047Q2.19727 1.21094 2.8418 1.86523ZM9.25781-16.3281Q8.94531-16.0254 8.90625-15.6348Q8.86719-15.2441 9.04297-14.9512Q9.21875-14.6777 9.55566-14.541Q9.89258-14.4043 10.3809-14.5215Q11.4746-14.7754 12.5977-14.7314Q13.7207-14.6875 14.7949-13.9844L14.209-12.5293Q13.9551-11.9043 14.0674-11.4404Q14.1797-10.9766 14.5801-10.5664L16.875-8.25195Q17.2363-7.88086 17.5781-7.82227Q17.9199-7.76367 18.3398-7.8418L19.4043-8.03711L20.0684-7.36328L20.0293-6.80664Q20-6.43555 20.1221-6.12305Q20.2441-5.81055 20.6055-5.44922L21.3672-4.70703Q21.7285-4.3457 22.1533-4.33105Q22.5781-4.31641 22.9297-4.66797L25.8398-7.58789Q26.1914-7.93945 26.1816-8.35449Q26.1719-8.76953 25.8105-9.13086L25.0391-9.89258Q24.6875-10.2539 24.3799-10.3857Q24.0723-10.5176 23.7109-10.4883L23.1348-10.4395L22.4902-11.0742L22.7344-12.1973Q22.832-12.6172 22.6953-12.9834Q22.5586-13.3496 22.1191-13.7891L19.9219-15.9766Q18.6719-17.2168 17.2607-17.8369Q15.8496-18.457 14.4189-18.4814Q12.9883-18.5059 11.665-17.959Q10.3418-17.4121 9.25781-16.3281ZM10.752-15.957Q11.6602-16.6211 12.7002-16.9043Q13.7402-17.1875 14.8047-17.085Q15.8691-16.9824 16.8701-16.5137Q17.8711-16.0449 18.7012-15.2051L21.1328-12.793Q21.3086-12.6172 21.3525-12.4512Q21.3965-12.2852 21.3379-12.0312L21.0156-10.5469L22.5195-9.0625L23.5059-9.12109Q23.6914-9.13086 23.7891-9.09668Q23.8867-9.0625 24.0332-8.91602L24.6094-8.33984L22.168-5.89844L21.5918-6.47461Q21.4453-6.62109 21.4062-6.71875Q21.3672-6.81641 21.377-7.01172L21.4453-7.98828L19.9512-9.47266L18.4277-9.21875Q18.1836-9.16992 18.042-9.2041Q17.9004-9.23828 17.7148-9.41406L15.7129-11.416Q15.5176-11.5918 15.4932-11.7529Q15.4688-11.9141 15.5859-12.1875L16.4648-14.2773Q15.293-15.3711 13.8281-15.791Q12.3633-16.2109 10.8398-15.7617Q10.7227-15.7324 10.6885-15.8057Q10.6543-15.8789 10.752-15.957Z"/>
  </g>
  <text style="stroke:none;fill:black;font-family:sans-serif;font-size:13;font-weight:bold;" transform="matrix(1 0 0 1 1289 1953)">Exporting</text>
  <text style="stroke:none;fill:black;font-family:sans-serif;font-size:13;" transform="matrix(1 0 0 1 1289 1971)">Symbols should be outlined when exporting to ensure the</text>
  <text style="stroke:none;fill:black;font-family:sans-serif;font-size:13;" transform="matrix(1 0 0 1 1289 1989)">design is preserved when submitting to Xcode.</text>
  <text id="template-version" style="stroke:none;fill:black;font-family:sans-serif;font-size:13;text-anchor:end;" transform="matrix(1 0 0 1 3036 1933)">Template v.2.0</text>
  <text style="stroke:none;fill:black;font-family:sans-serif;font-size:13;text-anchor:end;" transform="matrix(1 0 0 1 3036 1951)">Requires Xcode 12 or greater</text>
  <text id="descriptive-name" style="stroke:none;fill:black;font-family:sans-serif;font-size:13;text-anchor:end;" transform="matrix(1 0 0 1 3036 1969)">Generated from frying.pan.fill</text>
  <text style="stroke:none;fill:black;font-family:sans-serif;font-size:13;text-anchor:end;" transform="matrix(1 0 0 1 3036 1987)">Typeset at 100 points</text>
  <text style="stroke:none;fill:black;font-family:sans-serif;font-size:13;" transform="matrix(1 0 0 1 263 726)">Small</text>
  <text style="stroke:none;fill:black;font-family:sans-serif;font-size:13;" transform="matrix(1 0 0 1 263 1156)">Medium</text>
  <text style="stroke:none;fill:black;font-family:sans-serif;font-size:13;" transform="matrix(1 0 0 1 263 1586)">Large</text>
 </g>
 <g id="Guides">
  <g id="H-reference" style="fill:#27AAE1;stroke:none;" transform="matrix(1 0 0 1 339 696)">
   <path d="M0.993347 0L3.6377 0L29.3282-67.1326L30.0301-67.1326L30.0301-70.459L28.1227-70.459ZM11.6882-24.4797L46.9818-24.4797L46.2311-26.7288L12.4382-26.7288ZM55.1193 0L57.7637 0L30.6381-70.459L29.4327-70.459L29.4327-67.1326Z"/>
  </g>
  <line id="Baseline-S" style="fill:none;stroke:#27AAE1;opacity:1;stroke-width:0.5;" x1="263" x2="3036" y1="696" y2="696"/>
  <line id="Capline-S" style="fill:none;stroke:#27AAE1;opacity:1;stroke-width:0.5;" x1="263" x2="3036" y1="625.541" y2="625.541"/>
  <g id="H-reference" style="fill:#27AAE1;stroke:none;" transform="matrix(1 0 0 1 339 1126)">
   <path d="M0.993347 0L3.6377 0L29.3282-67.1326L30.0301-67.1326L30.0301-70.459L28.1227-70.459ZM11.6882-24.4797L46.9818-24.4797L46.2311-26.7288L12.4382-26.7288ZM55.1193 0L57.7637 0L30.6381-70.459L29.4327-70.459L29.4327-67.1326Z"/>
  </g>
  <line id="Baseline-M" style="fill:none;stroke:#27AAE1;opacity:1;stroke-width:0.5;" x1="263" x2="3036" y1="1126" y2="1126"/>
  <line id="Capline-M" style="fill:none;stroke:#27AAE1;opacity:1;stroke-width:0.5;" x1="263" x2="3036" y1="1055.54" y2="1055.54"/>
  <g id="H-reference" style="fill:#27AAE1;stroke:none;" transform="matrix(1 0 0 1 339 1556)">
   <path d="M0.993347 0L3.6377 0L29.3282-67.1326L30.0301-67.1326L30.0301-70.459L28.1227-70.459ZM11.6882-24.4797L46.9818-24.4797L46.2311-26.7288L12.4382-26.7288ZM55.1193 0L57.7637 0L30.6381-70.459L29.4327-70.459L29.4327-67.1326Z"/>
  </g>
  <line id="Baseline-L" style="fill:none;stroke:#27AAE1;opacity:1;stroke-width:0.5;" x1="263" x2="3036" y1="1556" y2="1556"/>
  <line id="Capline-L" style="fill:none;stroke:#27AAE1;opacity:1;stroke-width:0.5;" x1="263" x2="3036" y1="1485.54" y2="1485.54"/>
  <line id="left-margin" style="fill:none;stroke:#00AEEF;stroke-width:0.5;opacity:1.0;" x1="1362" x2="1362" y1="1030.79" y2="1150.12"/>
  <line id="right-margin" style="fill:none;stroke:#00AEEF;stroke-width:0.5;opacity:1.0;" x1="1537.69" x2="1537.69" y1="1030.79" y2="1150.12"/>
 </g>
 <g id="Symbols">
  <g id="Black-L" transform="matrix(1 0 0 1 2811.96 1556)">
   <path d="M16.084-25.5755Q16.084-11.6201 22.2911-0.207572Q28.4982 11.205 39.9652 19.3944Q51.4322 27.5838 67.3396 32.0284Q83.2471 36.4731 102.684 36.4743Q122.142 36.4731 138.078 32.0576Q154.014 27.6422 165.482 19.4236Q176.949 11.205 183.157-0.207572Q189.365-11.6201 189.365-25.5755Q189.365-32.2002 183.02-37.6923Q176.675-43.1844 165.043-47.2118Q153.411-51.2392 137.577-53.4585Q121.742-55.6779 102.684-55.6779Q83.7055-55.6779 67.8424-53.4585Q51.9794-51.2392 40.3768-47.2118Q28.7742-43.1844 22.4291-37.6923Q16.084-32.2002 16.084-25.5755ZM33.5535-25.5755Q33.5535-27.2966 37.7534-29.1567Q41.9532-31.0167 49.0998-32.759Q56.2464-34.5013 65.2137-35.9049Q74.181-37.3085 83.8548-38.1441Q93.5286-38.9798 102.684-38.9798Q111.839-38.9798 121.523-38.1441Q131.207-37.3085 140.174-35.9049Q149.142-34.5013 156.288-32.759Q163.435-31.0167 167.636-29.1567Q171.837-27.2966 171.837-25.5755Q171.837-23.9224 167.718-22.1431Q163.6-20.3639 156.508-18.691Q149.416-17.0181 140.495-15.6717Q131.574-14.3253 121.808-13.5469Q112.041-12.7685 102.684-12.7685Q93.3479-12.7685 83.5817-13.5469Q73.8156-14.3253 64.8944-15.6717Q55.9733-17.0181 48.8813-18.691Q41.7893-20.3639 37.6714-22.1431Q33.5535-23.9224 33.5535-25.5755ZM175.755-28.7354L219.467-59.7724Q225.014-63.7437 226.331-69.2284Q227.649-74.7131 225.559-79.9365Q223.469-85.1599 218.828-88.4976Q214.188-91.8352 207.798-91.6415Q201.408-91.4479 194.139-85.8402L139.335-43.9498ZM62.3561-5.70664L136.967-5.66909Q137.73-13.6009 134.37-19.8394Q131.01-26.078 124.749-29.6986Q118.488-33.3191 110.613-33.3191Q104.532-33.3191 99.087-30.984Q93.6417-28.6488 89.8629-24.5479Q88.5541-24.8063 87.2234-24.9532Q85.8927-25.1 84.4439-25.1Q78.4822-25.1 73.4665-22.508Q68.4508-19.9161 65.4289-15.5147Q62.407-11.1134 62.3561-5.70664Z"/>
  </g>
  <g id="Heavy-L" transform="matrix(1 0 0 1 2517.31 1556)">
   <path d="M16.084-26.1826Q16.084-12.5687 22.1433-1.43851Q28.2026 9.6917 39.4194 17.6831Q50.6363 25.6745 66.2161 30.0099Q81.796 34.3454 100.846 34.351Q119.926 34.3454 135.525 30.0323Q151.125 25.7191 162.345 17.7054Q173.564 9.6917 179.626-1.43851Q185.688-12.5687 185.688-26.1826Q185.688-32.4875 179.474-37.7563Q173.26-43.025 161.877-46.9209Q150.494-50.8167 134.994-52.9704Q119.493-55.1241 100.846-55.1241Q82.2732-55.1241 66.7533-52.9704Q51.2333-50.8167 39.8728-46.9209Q28.5123-43.025 22.2981-37.7563Q16.084-32.4875 16.084-26.1826ZM31.6656-26.1826Q31.6656-28.023 35.7702-29.9821Q39.8748-31.9412 46.9209-33.7728Q53.9669-35.6044 62.8957-37.0683Q71.8245-38.5323 81.598-39.3963Q91.3715-40.2604 100.846-40.2604Q110.315-40.2604 120.103-39.3963Q129.892-38.5323 138.821-37.0683Q147.75-35.6044 154.796-33.7728Q161.842-31.9412 165.952-29.9821Q170.062-28.023 170.062-26.1826Q170.062-24.4319 166.076-22.5414Q162.09-20.651 155.152-18.882Q148.213-17.1129 139.353-15.6879Q130.492-14.263 120.582-13.438Q110.672-12.613 100.846-12.613Q91.05-12.613 81.14-13.438Q71.2299-14.263 62.3694-15.6879Q53.5089-17.1129 46.5704-18.882Q39.6319-20.651 35.6488-22.5414Q31.6656-24.4319 31.6656-26.1826ZM172.251-30.2657L215.372-59.9756Q220.815-63.75 222.159-68.9705Q223.503-74.191 221.55-79.1574Q219.597-84.1239 215.159-87.2935Q210.721-90.4631 204.574-90.2632Q198.427-90.0632 191.421-84.7108L138.229-44.4967ZM61.3629-7.03658L134.448-6.92789Q135.045-14.5205 131.731-20.4374Q128.416-26.3542 122.387-29.7584Q116.358-33.1625 108.857-33.1625Q102.755-33.1625 97.369-30.7692Q91.9827-28.3758 88.3555-24.2092Q86.9385-24.5581 85.5331-24.7342Q84.1276-24.9103 82.5801-24.9103Q76.9431-24.9103 72.2023-22.5265Q67.4615-20.1427 64.5383-16.0846Q61.6151-12.0265 61.3629-7.03658Z"/>
  </g>
  <g id="Bold-L" transform="matrix(1 0 0 1 2223.2 1556)">
   <path d="M16.084-26.9207Q16.084-13.7369 21.9552-2.96002Q27.8263 7.81687 38.7246 15.5587Q49.6229 23.3004 64.788 27.4977Q79.9532 31.695 98.5194 31.7081Q117.123 31.695 132.296 27.5123Q147.47 23.3296 158.374 15.5733Q169.279 7.81687 175.157-2.96002Q181.035-13.7369 181.035-26.9207Q181.035-32.841 174.967-37.8332Q168.9-42.8254 157.817-46.5486Q146.734-50.2718 131.663-52.3373Q116.593-54.4029 98.5194-54.4029Q80.5131-54.4029 65.4345-52.3373Q50.3559-50.2718 39.2876-46.5486Q28.2193-42.8254 22.1516-37.8332Q16.084-32.841 16.084-26.9207ZM29.27-26.9207Q29.27-28.9667 33.3189-31.0674Q37.3678-33.168 44.3616-35.1036Q51.3555-37.0392 60.2679-38.5612Q69.1803-40.0833 79.0172-40.9671Q88.8541-41.8509 98.5194-41.8509Q108.171-41.8509 118.027-40.9671Q127.883-40.0833 136.795-38.5612Q145.708-37.0392 152.702-35.1036Q159.696-33.168 163.758-31.0674Q167.82-28.9667 167.82-26.9207Q167.82-25.0099 163.958-22.9737Q160.096-20.9374 153.301-19.0568Q146.507-17.1761 137.7-15.6699Q128.894-14.1637 118.845-13.296Q108.795-12.4283 98.5194-12.4283Q88.2814-12.4283 78.2319-13.296Q68.1823-14.1637 59.3762-15.6699Q50.5702-17.1761 43.7752-19.0568Q36.9803-20.9374 33.1252-22.9737Q29.27-25.0099 29.27-26.9207ZM167.961-32.1114L210.263-60.326Q215.554-63.8695 216.913-68.7597Q218.273-73.6498 216.481-78.2899Q214.69-82.93 210.506-85.881Q206.322-88.832 200.493-88.6169Q194.664-88.4018 188.01-83.3645L136.899-45.1058ZM59.9173-8.56176L131.44-8.33872Q131.859-15.5386 128.603-21.0968Q125.346-26.6551 119.575-29.8239Q113.805-32.9927 106.698-32.9927Q100.543-32.9927 95.1995-30.5115Q89.8565-28.0302 86.3989-23.7419Q84.8288-24.2134 83.3237-24.4316Q81.8185-24.6498 80.1257-24.6498Q74.8735-24.6498 70.4522-22.5123Q66.0309-20.3747 63.2195-16.7207Q60.4081-13.0667 59.9173-8.56176Z"/>
  </g>
  <g id="Semibold-L" transform="matrix(1 0 0 1 1928.28 1556)">
   <path d="M16.084-27.4295Q16.084-14.5423 21.8255-4.00894Q27.567 6.52437 38.2456 14.0941Q48.9242 21.6638 63.8035 25.7658Q78.6828 29.8678 96.9154 29.8861Q115.191 29.8678 130.07 25.7751Q144.95 21.6824 155.638 14.1034Q166.325 6.52437 172.076-4.00894Q177.827-14.5423 177.827-27.4295Q177.827-33.0847 171.86-37.8862Q165.894-42.6877 155.017-46.2919Q144.141-49.8962 129.367-51.9009Q114.593-53.9056 96.9154-53.9056Q79.2997-53.9056 64.5254-51.9009Q49.7511-49.8962 38.8842-46.2919Q28.0173-42.6877 22.0507-37.8862Q16.084-33.0847 16.084-27.4295ZM27.6185-27.4295Q27.6185-29.6173 31.629-31.8155Q35.6395-34.0138 42.5973-36.021Q49.5551-38.0283 58.4563-39.5904Q67.3574-41.1526 77.238-42.05Q87.1186-42.9474 96.9154-42.9474Q106.694-42.9474 116.596-42.05Q126.498-41.1526 135.399-39.5904Q144.3-38.0283 151.258-36.021Q158.216-34.0138 162.245-31.8155Q166.274-29.6173 166.274-27.4295Q166.274-25.4084 162.498-23.2716Q158.722-21.1349 152.026-19.1773Q145.33-17.2197 136.561-15.6575Q127.793-14.0953 117.647-13.1982Q107.501-12.301 96.9154-12.301Q86.3728-12.301 76.227-13.1982Q66.0813-14.0953 57.3127-15.6575Q48.5442-17.2197 41.8483-19.1773Q35.1523-21.1349 31.3854-23.2716Q27.6185-25.4084 27.6185-27.4295ZM165.004-33.3839L206.741-60.5675Q211.926-63.9519 213.297-68.6143Q214.667-73.2767 212.987-77.6919Q211.307-82.107 207.298-84.9072Q203.289-87.7075 197.679-87.4819Q192.07-87.2564 185.659-82.4364L135.981-45.5257ZM58.9208-9.61322L129.366-9.31135Q129.663-16.2404 126.446-21.5515Q123.229-26.8625 117.637-29.8691Q112.044-32.8757 105.209-32.8757Q99.0172-32.8757 93.7039-30.3338Q88.3907-27.792 85.05-23.4198Q83.3743-23.9759 81.8005-24.2231Q80.2267-24.4703 78.4337-24.4703Q73.4467-24.4703 69.2457-22.5025Q65.0447-20.5347 62.3104-17.1593Q59.5761-13.7838 58.9208-9.61322Z"/>
  </g>
  <g id="Medium-L" transform="matrix(1 0 0 1 1632.93 1556)">
   <path d="M16.084-27.8153Q16.084-15.1529 21.7271-4.80428Q27.3703 5.54435 37.8824 12.9836Q48.3945 20.4228 63.057 24.4526Q77.7195 28.4823 95.6992 28.5046Q113.726 28.4823 128.383 24.4578Q143.039 20.4333 153.562 12.9888Q164.086 5.54435 169.74-4.80428Q175.395-15.1529 175.395-27.8153Q175.395-33.2695 169.504-37.9264Q163.614-42.5833 152.895-46.0973Q142.176-49.6113 127.626-51.57Q113.076-53.5286 95.6992-53.5286Q78.3797-53.5286 63.8361-51.57Q49.2924-49.6113 38.5783-46.0973Q27.8642-42.5833 21.9741-37.9264Q16.084-33.2695 16.084-27.8153ZM26.3662-27.8153Q26.3662-30.1106 30.3476-32.3828Q34.329-34.6551 41.2595-36.7167Q48.1901-38.7783 57.0826-40.3708Q65.9752-41.9633 75.8889-42.871Q85.8026-43.7788 95.6992-43.7788Q105.573-43.7788 115.511-42.871Q125.448-41.9633 134.34-40.3708Q143.233-38.7783 150.164-36.7167Q157.094-34.6551 161.098-32.3828Q165.102-30.1106 165.102-27.8153Q165.102-25.7105 161.391-23.4976Q157.679-21.2846 151.059-19.2687Q144.438-17.2527 135.698-15.6481Q126.958-14.0434 116.739-13.124Q106.52-12.2045 95.6992-12.2045Q84.9256-12.2045 74.7069-13.124Q64.4882-14.0434 55.7481-15.6481Q47.008-17.2527 40.3872-19.2687Q33.7663-21.2846 30.0663-23.4976Q26.3662-25.7105 26.3662-27.8153ZM162.762-34.3487L204.071-60.7507Q209.176-64.0143 210.555-68.5041Q211.934-72.9938 210.338-77.2384Q208.743-81.483 204.866-84.1689Q200.989-86.8548 195.546-86.6214Q190.103-86.3879 183.876-81.7326L135.286-45.8441ZM58.1651-10.4105L127.794-10.0488Q127.998-16.7726 124.811-21.8962Q121.624-27.0198 116.167-29.9034Q110.709-32.7869 104.08-32.7869Q97.8606-32.7869 92.5699-30.1991Q87.2793-27.6113 84.0273-23.1756Q82.2715-23.7957 80.6456-24.0649Q79.0197-24.3342 77.1507-24.3342Q72.3648-24.3342 68.3309-22.4951Q64.297-20.656 61.621-17.4918Q58.9451-14.3276 58.1651-10.4105Z"/>
  </g>
  <g id="Regular-L" transform="matrix(1 0 0 1 1337.99 1556)">
   <path d="M16.084-28.3185Q16.084-15.9494 21.5989-5.84168Q27.1138 4.26606 37.4086 11.5351Q47.7035 18.8042 62.0833 22.7397Q76.4631 26.6752 94.1129 26.7026Q111.815 26.6752 126.181 22.7397Q140.547 18.8042 150.856 11.5351Q161.164 4.26606 166.693-5.84168Q172.222-15.9494 172.222-28.3185Q172.222-33.5106 166.432-37.9789Q160.641-42.4472 150.126-45.8435Q139.612-49.2398 125.355-51.1384Q111.098-53.0369 94.1129-53.0369Q77.1796-53.0369 62.9369-51.1384Q48.6942-49.2398 38.1793-45.8435Q27.6645-42.4472 21.8742-37.9789Q16.084-33.5106 16.084-28.3185ZM24.7329-28.3185Q24.7329-30.754 28.6763-33.1228Q32.6196-35.4916 39.5146-37.6241Q46.4095-39.7566 55.2909-41.3887Q64.1723-43.0209 74.1293-43.942Q84.0862-44.8632 94.1129-44.8632Q104.112-44.8632 114.095-43.942Q124.078-43.0209 132.96-41.3887Q141.841-39.7566 148.736-37.6241Q155.631-35.4916 159.602-33.1228Q163.573-30.754 163.573-28.3185Q163.573-26.1046 159.946-23.7923Q156.32-21.4799 149.797-19.3879Q143.274-17.2958 134.571-15.6358Q125.868-13.9757 115.554-13.0272Q105.24-12.0786 94.1129-12.0786Q83.0379-12.0786 72.7241-13.0272Q62.4102-13.9757 53.7073-15.6358Q45.0043-17.2958 38.4814-19.3879Q31.9584-21.4799 28.3456-23.7923Q24.7329-26.1046 24.7329-28.3185ZM159.838-35.6071L200.588-60.9896Q205.588-64.0958 206.978-68.3603Q208.368-72.6248 206.882-76.6469Q205.397-80.669 201.693-83.2058Q197.989-85.7427 192.763-85.4989Q187.537-85.2551 181.551-80.8147L134.379-46.2594ZM57.1795-11.4504L125.743-11.0108Q125.826-17.4667 122.679-22.3458Q119.531-27.225 114.25-29.948Q108.968-32.6711 102.607-32.6711Q96.3519-32.6711 91.0908-30.0234Q85.8296-27.3757 82.6933-22.8571Q80.8331-23.5608 79.1392-23.8587Q77.4453-24.1566 75.4773-24.1566Q70.9537-24.1566 67.1376-22.4854Q63.3216-20.8142 60.7219-17.9255Q58.1222-15.0368 57.1795-11.4504Z"/>
  </g>
  <g id="Light-L" transform="matrix(1 0 0 1 1043.37 1556)">
   <path d="M16.084-28.7382Q16.084-16.7129 21.4366-6.87226Q26.7893 2.96836 36.8074 10.037Q46.8255 17.1057 60.8617 20.9267Q74.898 24.7478 92.1854 24.7941Q109.505 24.7478 123.518 20.9267Q137.532 17.1057 147.573 10.037Q157.614 2.96836 162.99-6.87226Q168.367-16.7129 168.367-28.7382Q168.367-33.7395 162.576-38.017Q156.786-42.2945 146.424-45.5095Q136.062-48.7245 122.206-50.5181Q108.35-52.3116 92.1854-52.3116Q76.0535-52.3116 62.2212-50.5181Q48.3889-48.7245 38.0267-45.5095Q27.6645-42.2945 21.8742-38.017Q16.084-33.7395 16.084-28.7382ZM22.7099-28.7382Q22.7099-31.689 27.0159-34.2773Q31.322-36.8656 38.6463-39.0268Q45.9705-41.188 55.0427-42.7533Q64.1149-44.3186 73.7285-45.1539Q83.342-45.9893 92.1854-45.9893Q100.982-45.9893 110.612-45.1539Q120.242-44.3186 129.314-42.7533Q138.387-41.188 145.711-39.0268Q153.035-36.8656 157.388-34.2773Q161.741-31.689 161.741-28.7382Q161.741-26.162 157.942-23.6969Q154.144-21.2317 147.421-19.1111Q140.698-16.9905 131.899-15.3781Q123.101-13.7657 112.94-12.884Q102.778-12.0023 92.1854-12.0023Q81.6257-12.0023 71.4645-12.884Q61.3033-13.7657 52.505-15.3781Q43.7066-16.9905 36.9833-19.1111Q30.2599-21.2317 26.4849-23.6969Q22.7099-26.162 22.7099-28.7382ZM157.204-36.5614L196.828-61.8676Q201.561-64.8975 202.855-68.9138Q204.15-72.9301 202.722-76.6754Q201.294-80.4208 197.781-82.7382Q194.268-85.0555 189.376-84.7545Q184.484-84.4535 178.917-80.2231L133.711-46.2401ZM54.7938-11.7175L124.388-11.03Q124.529-17.3904 121.428-22.279Q118.328-27.1676 113.038-29.9384Q107.747-32.7093 101.214-32.7093Q94.7486-32.7093 89.3254-29.8993Q83.9022-27.0894 80.7658-22.2273Q78.6763-23.0836 76.868-23.4484Q75.0597-23.8132 72.8434-23.8132Q68.4725-23.8132 64.7423-22.2374Q61.0122-20.6616 58.4221-17.916Q55.8321-15.1705 54.7938-11.7175Z"/>
  </g>
  <g id="Thin-L" transform="matrix(1 0 0 1 749.425 1556)">
   <path d="M16.084-29.2934Q16.084-17.7227 21.222-8.2353Q26.3601 1.25206 36.0122 8.05565Q45.6644 14.8592 59.2462 18.5289Q72.828 22.1985 89.6362 22.2699Q106.451 22.1985 119.997 18.5289Q133.543 14.8592 143.231 8.05565Q152.919 1.25206 158.093-8.2353Q163.268-17.7227 163.268-29.2934Q163.268-34.0423 157.477-38.0675Q151.687-42.0927 141.527-45.0678Q131.366-48.043 118.041-49.6976Q104.715-51.3523 89.6362-51.3523Q74.5641-51.3523 61.2746-49.6976Q47.9852-48.043 37.8248-45.0678Q27.6645-42.0927 21.8742-38.0675Q16.084-34.0423 16.084-29.2934ZM20.0343-29.2934Q20.0343-32.9257 24.82-35.8043Q29.6056-38.6828 37.4978-40.882Q45.39-43.0811 54.7145-44.558Q64.039-46.0349 73.1983-46.7568Q82.3576-47.4787 89.6362-47.4787Q96.8422-47.4787 106.005-46.7568Q115.169-46.0349 124.493-44.558Q133.818-43.0811 141.71-40.882Q149.602-38.6828 154.46-35.8043Q159.317-32.9257 159.317-29.2934Q159.317-26.2379 155.292-23.5707Q151.267-20.9035 144.278-18.7451Q137.29-16.5868 128.365-15.0374Q119.441-13.4879 109.482-12.6946Q99.5223-11.9013 89.6362-11.9013Q79.758-11.9013 69.7987-12.6946Q59.8394-13.4879 50.9148-15.0374Q41.9903-16.5868 35.0019-18.7451Q28.0135-20.9035 24.0239-23.5707Q20.0343-26.2379 20.0343-29.2934ZM153.72-37.8235L191.855-63.0287Q196.235-65.9577 197.403-69.6457Q198.571-73.3338 197.219-76.7132Q195.867-80.0926 192.606-82.1196Q189.346-84.1467 184.895-83.77Q180.445-83.3932 175.434-79.4406L132.828-46.2147ZM51.6386-12.0707L122.596-11.0555Q122.812-17.2895 119.775-22.1906Q116.738-27.0916 111.435-29.9257Q106.132-32.7598 99.3714-32.7598Q92.6282-32.7598 86.9906-29.7352Q81.353-26.7106 78.2166-21.3944Q75.8239-22.4526 73.8641-22.9058Q71.9044-23.359 69.3599-23.359Q65.1908-23.359 61.5744-21.9093Q57.9579-20.4597 55.3805-17.9035Q52.8032-15.3474 51.6386-12.0707Z"/>
  </g>
  <g id="Ultralight-L" transform="matrix(1 0 0 1 454.129 1556)">
   <path d="M16.084-29.5777Q16.084-18.2399 21.1121-8.93344Q26.1403 0.372976 35.6049 7.0408Q45.0696 13.7086 58.4187 17.3007Q71.7677 20.8928 88.3305 20.977Q104.887 20.8928 118.194 17.3007Q131.501 13.7086 141.007 7.0408Q150.514 0.372976 155.585-8.93344Q160.656-18.2399 160.656-29.5777Q160.656-34.1974 154.866-38.0933Q149.076-41.9893 139.019-44.8416Q128.962-47.6939 115.907-49.2774Q102.853-50.8609 88.3305-50.8609Q73.8012-50.8609 60.7898-49.2774Q47.7784-47.6939 37.7214-44.8416Q27.6645-41.9893 21.8742-38.0933Q16.084-34.1974 16.084-29.5777ZM18.6638-29.5777Q18.6638-33.5591 23.6952-36.5863Q28.7266-39.6136 36.9096-41.8322Q45.0926-44.0508 54.5464-45.4824Q64.0002-46.9139 72.9268-47.5778Q81.8535-48.2416 88.3305-48.2416Q94.722-48.2416 103.646-47.5778Q112.57-46.9139 122.024-45.4824Q131.478-44.0508 139.661-41.8322Q147.844-39.6136 152.96-36.5863Q158.076-33.5591 158.076-29.5777Q158.076-26.2768 153.935-23.5061Q149.793-20.7354 142.669-18.5577Q135.545-16.38 126.555-14.8628Q117.566-13.3457 107.71-12.5977Q97.8545-11.8496 88.3305-11.8496Q78.8014-11.8496 68.9455-12.5977Q59.0895-13.3457 50.1004-14.8628Q41.1112-16.38 33.987-18.5577Q26.8629-20.7354 22.7633-23.5061Q18.6638-26.2768 18.6638-29.5777ZM151.936-38.4699L189.309-63.6235Q193.507-66.5007 194.61-70.0207Q195.714-73.5406 194.4-76.7325Q193.087-79.9244 189.956-81.8028Q186.824-83.6812 182.601-83.2657Q178.377-82.8502 173.65-79.0399L132.375-46.2016ZM50.0225-12.2517L121.678-11.0685Q121.933-17.2378 118.928-22.1453Q115.923-27.0528 110.614-29.9192Q105.304-32.7856 98.4276-32.7856Q91.5421-32.7856 85.7947-29.6511Q80.0473-26.5167 76.9109-20.9677Q74.3629-22.1293 72.3256-22.6278Q70.2883-23.1263 67.5757-23.1263Q63.51-23.1263 59.9517-21.7413Q56.3935-20.3563 53.8227-17.8971Q51.2518-15.4379 50.0225-12.2517Z"/>
  </g>
  <g id="Black-M" transform="matrix(1 0 0 1 2837.83 1126)">
   <path d="M12.4609-27.2852Q12.4609-16.2265 17.3749-7.17827Q22.2889 1.87 31.3503 8.35767Q40.4117 14.8453 52.9709 18.3672Q65.5301 21.889 80.8725 21.8887Q96.2203 21.889 108.808 18.3957Q121.396 14.9024 130.457 8.38622Q139.519 1.87 144.432-7.17827Q149.346-16.2265 149.346-27.2852Q149.346-32.6667 144.318-37.0877Q139.29-41.5088 130.085-44.7175Q120.88-47.9262 108.379-49.6878Q95.879-51.4494 80.8725-51.4494Q65.9285-51.4494 53.3994-49.6878Q40.8704-47.9262 31.694-44.7175Q22.5176-41.5088 17.4893-37.0877Q12.4609-32.6667 12.4609-27.2852ZM27.3437-27.2852Q27.3437-28.586 30.7286-29.9716Q34.1134-31.3573 39.7947-32.6342Q45.476-33.9112 52.4823-34.9377Q59.4887-35.9642 66.8511-36.5756Q74.2136-37.187 80.8725-37.187Q87.5316-37.187 94.8968-36.5756Q102.262-35.9642 109.268-34.9377Q116.275-33.9112 121.956-32.6342Q127.637-31.3573 131.022-29.9716Q134.406-28.586 134.406-27.2852Q134.406-26.0393 131.078-24.7357Q127.75-23.432 122.097-22.2148Q116.443-20.9976 109.467-20.0285Q102.49-19.0593 95.0683-18.5053Q87.6463-17.9513 80.8725-17.9513Q74.1041-17.9513 66.6822-18.5053Q59.2602-19.0593 52.2836-20.0285Q45.307-20.9976 39.6535-22.2148Q33.9999-23.432 30.6718-24.7357Q27.3437-26.0393 27.3437-27.2852ZM138.819-29.0124L173.041-54.1882Q177.391-57.4238 178.376-61.8665Q179.361-66.3091 177.632-70.5393Q175.902-74.7695 172.158-77.4699Q168.415-80.1703 163.301-80.018Q158.187-79.8657 152.387-75.3302L108.808-41.5128ZM48.8402-11.2501L108.095-11.2486Q108.837-17.6722 106.201-22.7833Q103.565-27.8943 98.514-30.8917Q93.4626-33.8892 87.0171-33.8892Q82.2955-33.8892 78.0041-32.1081Q73.7128-30.327 70.6549-27.1598Q69.7029-27.3029 68.7206-27.4006Q67.7384-27.4983 66.6673-27.4983Q61.79-27.4983 57.6795-25.3242Q53.569-23.1501 51.1443-19.4646Q48.7196-15.7791 48.8402-11.2501Z"/>
  </g>
  <g id="Heavy-M" transform="matrix(1 0 0 1 2542.94 1126)">
   <path d="M12.4609-27.84Q12.4609-17.0834 17.2454-8.28652Q22.0298 0.510367 30.8722 6.82297Q39.7147 13.1356 51.9853 16.5612Q64.2559 19.9868 79.2533 19.9891Q94.267 19.9868 106.558 16.583Q118.85 13.1792 127.693 6.84478Q136.537 0.510367 141.322-8.28652Q146.108-17.0834 146.108-27.84Q146.108-32.9264 141.208-37.1468Q136.307-41.3671 127.332-44.4639Q118.356-47.5607 106.145-49.2678Q93.9343-50.9749 79.2533-50.9749Q64.6323-50.9749 52.4008-49.2678Q40.1693-47.5607 31.2154-44.4639Q22.2616-41.3671 17.3613-37.1468Q12.4609-32.9264 12.4609-27.84ZM25.6848-27.84Q25.6848-29.2098 28.9431-30.672Q32.2013-32.1343 37.7447-33.4959Q43.2882-34.8575 50.2392-35.9492Q57.1903-37.0408 64.6819-37.6879Q72.1735-38.335 79.2533-38.335Q86.3308-38.335 93.8306-37.6879Q101.33-37.0408 108.281-35.9492Q115.233-34.8575 120.776-33.4959Q126.319-32.1343 129.58-30.672Q132.84-29.2098 132.84-27.84Q132.84-26.5321 129.658-25.1339Q126.475-23.7357 120.99-22.427Q115.505-21.1184 108.597-20.0681Q101.688-19.0177 94.1116-18.412Q86.535-17.8063 79.2533-17.8063Q71.988-17.8063 64.4114-18.412Q56.8347-19.0177 49.9262-20.0681Q43.0176-21.1184 37.5326-22.427Q32.0476-23.7357 28.8662-25.1339Q25.6848-26.5321 25.6848-27.84ZM135.637-30.4203L169.384-54.3059Q173.658-57.356 174.677-61.5633Q175.697-65.7706 174.096-69.7751Q172.496-73.7796 168.933-76.336Q165.37-78.8925 160.462-78.7392Q155.555-78.586 149.973-74.2807L107.789-42.0492ZM48.0894-12.5256L105.758-12.4774Q106.332-18.5783 103.736-23.3739Q101.141-28.1696 96.317-30.9511Q91.4933-33.7326 85.4291-33.7326Q80.7062-33.7326 76.4875-31.9096Q72.2688-30.0865 69.3591-26.8867Q68.3225-27.1043 67.2777-27.2244Q66.233-27.3445 65.0882-27.3445Q60.5143-27.3445 56.6647-25.3651Q52.815-23.3857 50.4859-20.0226Q48.1568-16.6594 48.0894-12.5256Z"/>
  </g>
  <g id="Bold-M" transform="matrix(1 0 0 1 2248.27 1126)">
   <path d="M12.4609-28.4606Q12.4609-18.0419 17.1005-9.52625Q21.74-1.01057 30.3375 5.10619Q38.935 11.2229 50.8828 14.541Q62.8306 17.859 77.442 17.8641Q92.082 17.859 104.042 14.5553Q116.001 11.2515 124.601 5.12046Q133.201-1.01057 137.843-9.52625Q142.485-18.0419 142.485-28.4606Q142.485-33.217 137.728-37.2128Q132.971-41.2086 124.252-44.1802Q115.533-47.1518 103.646-48.798Q91.7588-50.4442 77.442-50.4442Q63.1823-50.4442 51.2836-48.798Q39.3849-47.1518 30.6801-44.1802Q21.9752-41.2086 17.2181-37.2128Q12.4609-33.217 12.4609-28.4606ZM23.8291-28.4606Q23.8291-29.9076 26.9457-31.4555Q30.0623-33.0034 35.4516-34.4598Q40.8408-35.9161 47.73-37.0807Q54.6192-38.2452 62.2553-38.9322Q69.8914-39.6192 77.442-39.6192Q84.9875-39.6192 92.6379-38.9322Q100.288-38.2452 107.177-37.0807Q114.067-35.9161 119.456-34.4598Q124.845-33.0034 127.967-31.4555Q131.089-29.9076 131.089-28.4606Q131.089-27.0833 128.069-25.5793Q125.049-24.0753 119.752-22.6644Q114.456-21.2535 107.624-20.1123Q100.791-18.9712 93.0415-18.3077Q85.2918-17.6442 77.442-17.6442Q69.6209-17.6442 61.8711-18.3077Q54.1214-18.9712 47.289-20.1123Q40.4566-21.2535 35.1601-22.6644Q29.8637-24.0753 26.8464-25.5793Q23.8291-27.0833 23.8291-28.4606ZM132.077-31.9953L165.294-54.4374Q169.482-57.2802 170.54-61.2242Q171.598-65.1682 170.142-68.9202Q168.685-72.6722 165.324-75.0676Q161.963-77.463 157.287-77.3088Q152.61-77.1545 147.272-73.1068L106.649-42.6493ZM47.2495-13.9524L103.143-13.8519Q103.53-19.5918 100.979-24.0347Q98.4281-28.4775 93.8593-31.0175Q89.2905-33.5574 83.6526-33.5574Q78.9285-33.5574 74.791-31.6875Q70.6535-29.8175 67.9096-26.5813Q66.7783-26.882 65.6637-27.0272Q64.549-27.1724 63.3218-27.1724Q59.0874-27.1724 55.5294-25.4108Q51.9715-23.6492 49.7493-20.6467Q47.5271-17.6441 47.2495-13.9524Z"/>
  </g>
  <g id="Semibold-M" transform="matrix(1 0 0 1 1952.96 1126)">
   <path d="M12.4609-28.8885Q12.4609-18.7027 17.0006-10.3809Q21.5402-2.0591 29.9688 3.92265Q38.3974 9.90439 50.1227 13.1483Q61.8479 16.3921 76.1933 16.3992Q90.5756 16.3921 102.306 13.1573Q114.037 9.92255 122.469 3.93172Q130.902-2.0591 135.445-10.3809Q139.988-18.7027 139.988-28.8885Q139.988-33.4173 135.33-37.2583Q130.671-41.0993 122.129-43.9846Q113.587-46.87 101.923-48.4741Q90.2591-50.0783 76.1933-50.0783Q62.1826-50.0783 50.5134-48.4741Q38.8442-46.87 30.311-43.9846Q21.7778-41.0993 17.1194-37.2583Q12.4609-33.4173 12.4609-28.8885ZM22.5497-28.8885Q22.5497-30.3887 25.5688-31.9957Q28.5878-33.6026 33.8707-35.1243Q39.1536-36.646 46.0001-37.8607Q52.8467-39.0755 60.5824-39.79Q68.3181-40.5045 76.1933-40.5045Q84.0614-40.5045 91.8156-39.79Q99.5698-39.0755 106.416-37.8607Q113.263-36.646 118.546-35.1243Q123.829-33.6026 126.855-31.9957Q129.881-30.3887 129.881-28.8885Q129.881-27.4633 126.973-25.8864Q124.066-24.3094 118.899-22.8281Q113.733-21.3467 106.953-20.1429Q100.173-18.9391 92.3037-18.2357Q84.4347-17.5324 76.1933-17.5324Q67.989-17.5324 60.1199-18.2357Q52.2509-18.9391 45.471-20.1429Q38.6911-21.3467 33.5246-22.8281Q28.3581-24.3094 25.4539-25.8864Q22.5497-27.4633 22.5497-28.8885ZM129.622-33.0811L162.473-54.5281Q166.603-57.228 167.688-60.9904Q168.772-64.7529 167.415-68.3308Q166.058-71.9087 162.836-74.1932Q159.615-76.4776 155.097-76.3226Q150.58-76.1676 145.41-72.2975L105.863-43.063ZM46.6705-14.936L101.34-14.7995Q101.598-20.2905 99.0779-24.4902Q96.5581-28.6898 92.1649-31.0632Q87.7718-33.4367 82.428-33.4367Q77.7029-33.4367 73.6214-31.5344Q69.5399-29.632 66.9103-26.3708Q65.7138-26.7288 64.5509-26.8913Q63.3881-27.0538 62.104-27.0538Q58.1036-27.0538 54.7468-25.4424Q51.3899-23.8309 49.2415-21.077Q47.0931-18.323 46.6705-14.936Z"/>
  </g>
  <g id="Medium-M" transform="matrix(1 0 0 1 1657.32 1126)">
   <path d="M12.4609-29.2129Q12.4609-19.2038 16.9248-11.029Q21.3887-2.85414 29.6893 3.02524Q37.9898 8.90461 49.5463 12.0922Q61.1029 15.2798 75.2465 15.2884Q89.4334 15.2798 100.991 12.0974Q112.548 8.91489 120.853 3.03038Q129.158-2.85414 133.626-11.029Q138.094-19.2038 138.094-29.2129Q138.094-33.5692 133.511-37.2928Q128.927-41.0164 120.519-43.8363Q112.111-46.6563 100.616-48.2286Q89.1219-49.8008 75.2465-49.8008Q61.4247-49.8008 49.9294-48.2286Q38.4342-46.6563 30.0311-43.8363Q21.6281-41.0164 17.0445-37.2928Q12.4609-33.5692 12.4609-29.2129ZM21.5797-29.2129Q21.5797-30.7535 24.5247-32.4052Q27.4697-34.0569 32.672-35.6281Q37.8742-37.1993 44.6885-38.4522Q51.5027-39.7051 59.314-40.4405Q67.1252-41.1758 75.2465-41.1758Q83.3592-41.1758 91.1921-40.4405Q99.025-39.7051 105.839-38.4522Q112.654-37.1993 117.856-35.6281Q123.058-34.0569 126.012-32.4052Q128.965-30.7535 128.965-29.2129Q128.965-27.7515 126.143-26.1192Q123.32-24.487 118.252-22.9522Q113.184-21.4173 106.444-20.166Q99.7039-18.9147 91.7443-18.1812Q83.7848-17.4476 75.2465-17.4476Q66.7516-17.4476 58.7921-18.1812Q50.8326-18.9147 44.0925-20.166Q37.3524-21.4173 32.2844-22.9522Q27.2165-24.487 24.3981-26.1192Q21.5797-27.7515 21.5797-29.2129ZM127.761-33.9044L160.335-54.5969Q164.42-57.1883 165.525-60.8132Q166.63-64.438 165.348-67.8839Q164.066-71.3299 160.95-73.5301Q157.834-75.7304 153.437-75.5748Q149.041-75.4193 143.998-71.6838L105.267-43.3766ZM46.2315-15.6818L99.9735-15.5181Q100.133-20.8204 97.6366-24.8356Q95.1402-28.8508 90.8802-31.098Q86.6203-33.3451 81.4994-33.3451Q76.7736-33.3451 72.7346-31.4183Q68.6955-29.4914 66.1526-26.2111Q64.9066-26.6127 63.7072-26.7883Q62.5078-26.9639 61.1807-26.9639Q57.3577-26.9639 54.1533-25.4663Q50.949-23.9687 48.8565-21.4032Q46.764-18.8378 46.2315-15.6818Z"/>
  </g>
  <g id="Regular-M" transform="matrix(1 0 0 1 1362 1126)">
   <path d="M12.4609-29.6361Q12.4609-19.8573 16.826-11.8742Q21.1911-3.89114 29.3246 1.8547Q37.4582 7.60055 48.7946 10.7148Q60.131 13.8291 74.0116 13.8395Q87.9436 13.8291 99.2748 10.7148Q110.606 7.60055 118.745 1.8547Q126.884-3.89114 131.254-11.8742Q135.624-19.8573 135.624-29.6361Q135.624-33.7673 131.138-37.3378Q126.652-40.9083 118.419-43.6429Q110.186-46.3775 98.9123-47.9082Q87.6386-49.439 74.0116-49.439Q60.436-49.439 49.1677-47.9082Q37.8994-46.3775 29.6661-43.6429Q21.4328-40.9083 16.9469-37.3378Q12.4609-33.7673 12.4609-29.6361ZM20.3144-29.6361Q20.3144-31.2293 23.1629-32.9394Q26.0113-34.6495 31.1084-36.2853Q36.2056-37.9211 42.9776-39.2237Q49.7497-40.5263 57.6595-41.2888Q65.5692-42.0514 74.0116-42.0514Q82.4433-42.0514 90.3789-41.2888Q98.3145-40.5263 105.087-39.2237Q111.859-37.9211 116.956-36.2853Q122.053-34.6495 124.912-32.9394Q127.771-31.2293 127.771-29.6361Q127.771-28.1273 125.059-26.4229Q122.347-24.7186 117.408-23.114Q112.469-21.5095 105.78-20.1962Q99.0922-18.883 91.0147-18.11Q82.9372-17.337 74.0116-17.337Q65.1377-17.337 57.0601-18.11Q48.9826-18.883 42.2944-20.1962Q35.6062-21.5095 30.6668-23.114Q25.7274-24.7186 23.0209-26.4229Q20.3144-28.1273 20.3144-29.6361ZM125.334-34.9782L157.546-54.6866Q161.573-57.1366 162.704-60.5819Q163.835-64.0273 162.651-67.301Q161.468-70.5748 158.49-72.6653Q155.511-74.7558 151.272-74.5995Q147.033-74.4433 142.156-70.8834L104.49-43.7858ZM45.6588-16.6546L98.1907-16.4553Q98.2224-21.5114 95.7566-25.2861Q93.2907-29.0607 89.2045-31.1432Q85.1183-33.2257 80.2882-33.2257Q75.5615-33.2257 71.5778-31.2668Q67.5942-29.308 65.1643-26.0029Q63.8538-26.4611 62.6067-26.6538Q61.3596-26.8466 59.9763-26.8466Q56.3847-26.8466 53.3793-25.4975Q50.3739-24.1483 48.3543-21.8288Q46.3347-19.5092 45.6588-16.6546Z"/>
  </g>
  <g id="Light-M" transform="matrix(1 0 0 1 1067.16 1126)">
   <path d="M12.4609-30.0124Q12.4609-20.5418 16.6806-12.7982Q20.9002-5.05459 28.7856 0.511577Q36.6711 6.07775 47.6994 9.08937Q58.7278 12.101 72.2835 12.1284Q85.8731 12.101 96.8878 9.08937Q107.902 6.07775 115.802 0.511577Q123.701-5.05459 127.934-12.7982Q132.168-20.5418 132.168-30.0124Q132.168-33.9726 127.682-37.372Q123.196-40.7715 115.1-43.3435Q107.003-45.9155 96.0889-47.3521Q85.1746-48.7887 72.2835-48.7887Q59.4264-48.7887 48.526-47.3521Q37.6257-45.9155 29.5293-43.3435Q21.4328-40.7715 16.9469-37.372Q12.4609-33.9726 12.4609-30.0124ZM18.5007-30.0124Q18.5007-32.0676 21.6743-33.9745Q24.8478-35.8814 30.3299-37.5429Q35.812-39.2044 42.7551-40.4471Q49.6983-41.6897 57.3001-42.3754Q64.902-43.061 72.2835-43.061Q79.6372-43.061 87.2562-42.3754Q94.8753-41.6897 101.818-40.4471Q108.762-39.2044 114.244-37.5429Q119.726-35.8814 122.927-33.9745Q126.128-32.0676 126.128-30.0124Q126.128-28.1788 123.263-26.3374Q120.397-24.496 115.278-22.8659Q110.159-21.2358 103.385-19.9652Q96.6112-18.6947 88.6705-17.9816Q80.7299-17.2686 72.2835-17.2686Q63.8716-17.2686 55.9309-17.9816Q47.9902-18.6947 41.2165-19.9652Q34.4428-21.2358 29.3237-22.8659Q24.2046-24.496 21.3526-26.3374Q18.5007-28.1788 18.5007-30.0124ZM122.973-35.8338L154.175-55.4738Q157.962-57.8553 159.008-61.0781Q160.053-64.3009 158.921-67.3266Q157.789-70.3523 154.982-72.246Q152.175-74.1397 148.235-73.9321Q144.295-73.7245 139.795-70.353L103.891-43.7685ZM43.52-16.8941L96.9758-16.4725Q97.059-21.443 94.6358-25.2261Q92.2126-29.0093 88.118-31.1346Q84.0233-33.2599 79.039-33.2599Q74.1241-33.2599 69.9951-31.1556Q65.8661-29.0513 63.4362-25.4383Q61.9202-26.0333 60.5704-26.286Q59.2207-26.5387 57.6149-26.5387Q54.1602-26.5387 51.2318-25.2751Q48.3034-24.0115 46.2925-21.8203Q44.2815-19.6291 43.52-16.8941Z"/>
  </g>
  <g id="Thin-M" transform="matrix(1 0 0 1 772.927 1126)">
   <path d="M12.4609-30.5101Q12.4609-21.4471 16.4882-14.0202Q20.5154-6.59335 28.0727-1.26482Q35.63 4.06371 46.251 6.9396Q56.872 9.81548 69.998 9.86533Q83.1348 9.81548 93.7308 6.9396Q104.327 4.06371 111.909-1.26482Q119.491-6.59335 123.544-14.0202Q127.597-21.4471 127.597-30.5101Q127.597-34.244 123.111-37.4173Q118.625-40.5905 110.709-42.9475Q102.794-45.3045 92.3547-46.6166Q81.9157-47.9286 69.998-47.9286Q58.091-47.9286 47.6774-46.6166Q37.2637-45.3045 29.3483-42.9475Q21.4328-40.5905 16.9469-37.4173Q12.4609-34.244 12.4609-30.5101ZM16.1019-30.5101Q16.1019-33.1764 19.7055-35.3435Q23.3091-37.5107 29.3003-39.2062Q35.2915-40.9018 42.4608-42.0651Q49.6302-43.2285 56.8248-43.8124Q64.0195-44.3964 69.998-44.3964Q75.9258-44.3964 83.1263-43.8124Q90.3267-43.2285 97.4961-42.0651Q104.665-40.9018 110.657-39.2062Q116.648-37.5107 120.302-35.3435Q123.956-33.1764 123.956-30.5101Q123.956-28.2469 120.886-26.2243Q117.817-24.2018 112.46-22.5378Q107.104-20.8738 100.217-19.6597Q93.3299-18.4457 85.5702-17.8119Q77.8105-17.1781 69.998-17.1781Q62.1971-17.1781 54.4374-17.8119Q46.6777-18.4457 39.7908-19.6597Q32.904-20.8738 27.5473-22.5378Q22.1906-24.2018 19.1462-26.2243Q16.1019-28.2469 16.1019-30.5101ZM119.849-36.9653L149.717-56.5148Q153.187-58.8059 154.119-61.7344Q155.052-64.6629 153.988-67.3605Q152.924-70.058 150.343-71.6914Q147.762-73.3249 144.218-73.0494Q140.675-72.774 136.672-69.6515L103.099-43.7457ZM40.6911-17.2108L95.369-16.4953Q95.5202-21.3525 93.1535-25.1469Q90.7868-28.9412 86.6809-31.1232Q82.575-33.3051 77.387-33.3051Q72.223-33.3051 67.9018-31.0084Q63.5806-28.7117 61.1507-24.6915Q59.3628-25.4676 57.8773-25.7995Q56.3919-26.1315 54.4918-26.1315Q51.218-26.1315 48.3915-24.981Q45.5651-23.8305 43.5655-21.8091Q41.566-19.7876 40.6911-17.2108Z"/>
  </g>
  <g id="Ultralight-M" transform="matrix(1 0 0 1 477.485 1126)">
   <path d="M12.4609-30.765Q12.4609-21.9108 16.3896-14.6462Q20.3183-7.38149 27.7075-2.17468Q35.0968 3.03214 45.5091 5.83849Q55.9214 8.64485 68.8274 8.70619Q81.7322 8.64485 92.1139 5.83849Q102.495 3.03214 109.915-2.17468Q117.335-7.38149 121.295-14.6462Q125.255-21.9108 125.255-30.765Q125.255-34.3831 120.769-37.4404Q116.283-40.4978 108.46-42.7447Q100.638-44.9916 90.4421-46.2398Q80.2465-47.4881 68.8274-47.4881Q57.4071-47.4881 47.2427-46.2398Q37.0783-44.9916 29.2556-42.7447Q21.4328-40.4978 16.9469-37.4404Q12.4609-34.3831 12.4609-30.765ZM14.8732-30.765Q14.8732-33.7442 18.6971-36.0447Q22.521-38.3452 28.7729-40.0581Q35.0249-41.7711 42.3101-42.8939Q49.5953-44.0166 56.5814-44.5485Q63.5675-45.0803 68.8274-45.0803Q74.0249-45.0803 81.0109-44.5485Q87.9969-44.0166 95.2822-42.8939Q102.567-41.7711 108.819-40.0581Q115.071-38.3452 118.957-36.0447Q122.843-33.7442 122.843-30.765Q122.843-28.2817 119.669-26.1664Q116.496-24.051 111.017-22.3697Q105.539-20.6884 98.594-19.5033Q91.6493-18.3181 83.9823-17.7249Q76.3152-17.1317 68.8274-17.1317Q61.3394-17.1317 53.6724-17.7249Q46.0054-18.3181 39.0606-19.5033Q32.1159-20.6884 26.6374-22.3697Q21.159-24.051 18.0161-26.1664Q14.8732-28.2817 14.8732-30.765ZM118.25-37.5449L147.434-57.048Q150.741-59.2928 151.616-62.0705Q152.49-64.8483 151.461-67.3778Q150.431-69.9073 147.966-71.4074Q145.502-72.9075 142.161-72.5973Q138.82-72.2871 135.072-69.2922L102.693-43.734ZM39.2422-17.373L94.546-16.507Q94.7321-21.3062 92.3943-25.1063Q90.0565-28.9064 85.9449-31.1173Q81.8332-33.3283 76.5408-33.3283Q71.2492-33.3283 66.8296-30.9331Q62.41-28.5378 59.9801-24.3091Q58.0529-25.1778 56.4979-25.5503Q54.943-25.9229 52.8921-25.9229Q49.7111-25.9229 46.9368-24.8303Q44.1625-23.7378 42.1688-21.8033Q40.1751-19.8688 39.2422-17.373Z"/>
  </g>
  <g id="Black-S" transform="matrix(1 0 0 1 2858.06 696)">
   <path d="M9.76562-28.8574Q9.76562-20.1172 13.6475-12.9639Q17.5293-5.81055 24.6826-0.683594Q31.8359 4.44336 41.748 7.22656Q51.6602 10.0098 63.7695 10.0098Q75.8789 10.0098 85.8154 7.25098Q95.752 4.49219 102.905-0.65918Q110.059-5.81055 113.94-12.9639Q117.822-20.1172 117.822-28.8574Q117.822-33.1543 113.843-36.6699Q109.863-40.1855 102.588-42.7246Q95.3125-45.2637 85.4492-46.6553Q75.5859-48.0469 63.7695-48.0469Q52.002-48.0469 42.1143-46.6553Q32.2266-45.2637 24.9756-42.7246Q17.7246-40.1855 13.7451-36.6699Q9.76562-33.1543 9.76562-28.8574ZM21.8262-28.8574Q21.8262-29.8828 24.5361-30.957Q27.2461-32.0312 31.7627-33.0078Q36.2793-33.9844 41.7969-34.7656Q47.3145-35.5469 53.0273-36.0107Q58.7402-36.4746 63.7695-36.4746Q68.7988-36.4746 74.5117-36.0107Q80.2246-35.5469 85.7422-34.7656Q91.2598-33.9844 95.7764-33.0078Q100.293-32.0312 103.003-30.957Q105.713-29.8828 105.713-28.8574Q105.713-27.8809 103.052-26.8799Q100.391-25.8789 95.8984-24.9512Q91.4062-24.0234 85.9131-23.291Q80.4199-22.5586 74.6582-22.1436Q68.8965-21.7285 63.7695-21.7285Q58.6426-21.7285 52.8809-22.1436Q47.1191-22.5586 41.626-23.291Q36.1328-24.0234 31.6406-24.9512Q27.1484-25.8789 24.4873-26.8799Q21.8262-27.8809 21.8262-28.8574ZM109.619-29.9805L136.523-50.0977Q139.941-52.6855 140.698-56.2256Q141.455-59.7656 140.063-63.1348Q138.672-66.5039 135.693-68.6523Q132.715-70.8008 128.662-70.6787Q124.609-70.5566 120.02-66.9434L85.5469-39.9902ZM38.3789-16.0645L85.3516-16.0645Q85.9863-21.1914 83.9111-25.293Q81.8359-29.3945 77.8076-31.8115Q73.7793-34.2285 68.6035-34.2285Q64.8926-34.2285 61.499-32.8369Q58.1055-31.4453 55.6641-28.9551Q54.9316-29.0527 54.1748-29.126Q53.418-29.1992 52.5879-29.1992Q48.6816-29.1992 45.3857-27.4414Q42.0898-25.6836 40.1611-22.7051Q38.2324-19.7266 38.3789-16.0645Z"/>
  </g>
  <g id="Heavy-S" transform="matrix(1 0 0 1 2562.67 696)">
   <path d="M9.76562-29.2838Q9.76562-20.7626 13.5553-13.7936Q17.3449-6.8247 24.3426-1.82452Q31.3404 3.17567 41.0451 5.88972Q50.7497 8.60378 62.6056 8.60378Q74.4729 8.60378 84.1962 5.90838Q93.9196 3.21297 100.917-1.80586Q107.915-6.8247 111.705-13.7936Q115.494-20.7626 115.494-29.2838Q115.494-33.3502 111.624-36.716Q107.754-40.0818 100.658-42.546Q93.5608-45.0101 83.8992-46.3672Q74.2376-47.7242 62.6056-47.7242Q51.0224-47.7242 41.3421-46.3672Q31.6619-45.0101 24.5838-42.546Q17.5056-40.0818 13.6356-36.716Q9.76562-33.3502 9.76562-29.2838ZM20.6392-29.2838Q20.6392-30.3092 23.1993-31.4238Q25.7594-32.5383 30.1089-33.584Q34.4584-34.6297 39.9069-35.4744Q45.3553-36.319 51.218-36.8232Q57.0807-37.3274 62.6056-37.3274Q68.1304-37.3274 73.9989-36.8232Q79.8674-36.319 85.3158-35.4744Q90.7642-34.6297 95.1137-33.584Q99.4632-32.5383 102.023-31.4238Q104.583-30.3092 104.583-29.2838Q104.583-28.2957 102.066-27.2314Q99.5493-26.167 95.2243-25.1644Q90.8992-24.1617 85.4752-23.3544Q80.0511-22.5471 74.1396-22.0802Q68.2281-21.6133 62.6056-21.6133Q56.9946-21.6133 51.083-22.0802Q45.1715-22.5471 39.7475-23.3544Q34.3235-24.1617 29.9984-25.1644Q25.6733-26.167 23.1562-27.2314Q20.6392-28.2957 20.6392-29.2838ZM107.199-31.0753L133.827-50.0977Q137.21-52.5357 138.007-55.9029Q138.804-59.2701 137.517-62.4779Q136.229-65.6857 133.383-67.7361Q130.537-69.7866 126.622-69.6703Q122.708-69.554 118.256-66.1136L84.7517-40.4512ZM38.0101-17.1247L83.5076-17.1132Q83.9926-21.9751 81.9462-25.8058Q79.8998-29.6365 76.0674-31.8634Q72.235-34.0902 67.405-34.0902Q63.7171-34.0902 60.4042-32.6813Q57.0913-31.2724 54.7767-28.7937Q53.9982-28.9375 53.201-29.0223Q52.4038-29.107 51.5392-29.107Q47.8749-29.107 44.7922-27.5048Q41.7095-25.9026 39.8615-23.1833Q38.0135-20.4641 38.0101-17.1247Z"/>
  </g>
  <g id="Bold-S" transform="matrix(1 0 0 1 2267.43 696)">
   <path d="M9.76562-29.7607Q9.76562-21.4844 13.4521-14.7217Q17.1387-7.95898 23.9624-3.10059Q30.7861 1.75781 40.2588 4.39453Q49.7314 7.03125 61.3037 7.03125Q72.9004 7.03125 82.3853 4.40674Q91.8701 1.78223 98.6938-3.08838Q105.518-7.95898 109.204-14.7217Q112.891-21.4844 112.891-29.7607Q112.891-33.5693 109.143-36.7676Q105.396-39.9658 98.4985-42.3462Q91.6016-44.7266 82.1655-46.0449Q72.7295-47.3633 61.3037-47.3633Q49.9268-47.3633 40.4785-46.0449Q31.0303-44.7266 24.1455-42.3462Q17.2607-39.9658 13.5132-36.7676Q9.76562-33.5693 9.76562-29.7607ZM19.3115-29.7607Q19.3115-30.7861 21.7041-31.9458Q24.0967-33.1055 28.2593-34.2285Q32.4219-35.3516 37.793-36.2671Q43.1641-37.1826 49.1943-37.7319Q55.2246-38.2812 61.3037-38.2812Q67.3828-38.2812 73.4253-37.7319Q79.4678-37.1826 84.8389-36.2671Q90.21-35.3516 94.3726-34.2285Q98.5352-33.1055 100.928-31.9458Q103.32-30.7861 103.32-29.7607Q103.32-28.7598 100.964-27.6245Q98.6084-26.4893 94.4702-25.4028Q90.332-24.3164 84.9854-23.4253Q79.6387-22.5342 73.5596-22.0093Q67.4805-21.4844 61.3037-21.4844Q55.1514-21.4844 49.0723-22.0093Q42.9932-22.5342 37.6465-23.4253Q32.2998-24.3164 28.1616-25.4028Q24.0234-26.4893 21.6675-27.6245Q19.3115-28.7598 19.3115-29.7607ZM104.492-32.2998L130.811-50.0977Q134.155-52.3682 134.998-55.542Q135.84-58.7158 134.668-61.7432Q133.496-64.7705 130.798-66.7114Q128.101-68.6523 124.341-68.5425Q120.581-68.4326 116.284-65.1855L83.8623-40.9668ZM37.5977-18.3105L81.4453-18.2861Q81.7627-22.8516 79.7485-26.3794Q77.7344-29.9072 74.1211-31.9214Q70.5078-33.9355 66.0645-33.9355Q62.4023-33.9355 59.1797-32.5073Q55.957-31.0791 53.7842-28.6133Q52.9541-28.8086 52.1118-28.9062Q51.2695-29.0039 50.3662-29.0039Q46.9727-29.0039 44.1284-27.5757Q41.2842-26.1475 39.5264-23.7183Q37.7686-21.2891 37.5977-18.3105Z"/>
  </g>
  <g id="Semibold-S" transform="matrix(1 0 0 1 1971.74 696)">
   <path d="M9.76562-30.0896Q9.76562-21.982 13.3811-15.3615Q16.9965-8.74102 23.7002-3.98037Q30.404 0.780273 39.7167 3.36367Q49.0294 5.94707 60.4062 5.94707Q71.8162 5.94707 81.1367 3.37144Q90.4571 0.795801 97.1609-3.97261Q103.865-8.74102 107.48-15.3615Q111.096-21.982 111.096-30.0896Q111.096-33.7204 107.432-36.8031Q103.769-39.8858 97.01-42.2084Q90.2508-44.5311 80.9703-45.8228Q71.6897-47.1145 60.4062-47.1145Q49.1714-47.1145 39.8831-45.8228Q30.5948-44.5311 23.8434-42.2084Q17.0919-39.8858 13.4288-36.8031Q9.76562-33.7204 9.76562-30.0896ZM18.3962-30.0896Q18.3962-31.1149 20.6732-32.3057Q22.9503-33.4965 26.984-34.6729Q31.0178-35.8492 36.3355-36.8136Q41.6533-37.778 47.7991-38.3584Q53.9449-38.9389 60.4062-38.9389Q66.8674-38.9389 73.0298-38.3584Q79.1923-37.778 84.5101-36.8136Q89.8278-35.8492 93.8616-34.6729Q97.8953-33.4965 100.172-32.3057Q102.449-31.1149 102.449-30.0896Q102.449-29.0797 100.205-27.8956Q97.9597-26.7114 93.9503-25.5672Q89.941-24.423 84.6477-23.4742Q79.3543-22.5253 73.1597-21.9604Q66.965-21.3955 60.4062-21.3955Q53.8806-21.3955 47.6859-21.9604Q41.4913-22.5253 36.1979-23.4742Q30.9046-24.423 26.8953-25.5672Q22.8859-26.7114 20.6411-27.8956Q18.3962-29.0797 18.3962-30.0896ZM102.626-33.144L128.731-50.0977Q132.049-52.2526 132.923-55.2932Q133.796-58.3337 132.704-61.2366Q131.612-64.1396 129.017-66.0049Q126.421-67.8703 122.768-67.7649Q119.115-67.6595 114.925-64.5457L83.2491-41.3223ZM37.3133-19.1281L80.0234-19.0948Q80.2253-23.4559 78.2333-26.7749Q76.2414-30.0938 72.7792-31.9614Q69.317-33.8289 65.1402-33.8289Q61.4959-33.8289 58.3354-32.3874Q55.175-30.9458 53.0999-28.4889Q52.2343-28.7197 51.3609-28.8263Q50.4875-28.9328 49.5575-28.9328Q46.3506-28.9328 43.6708-27.6246Q40.9909-26.3163 39.2953-24.0871Q37.5997-21.8578 37.3133-19.1281Z"/>
  </g>
  <g id="Medium-S" transform="matrix(1 0 0 1 1675.8 696)">
   <path d="M9.76562-30.3389Q9.76562-22.3594 13.3271-15.8467Q16.8887-9.33398 23.5015-4.64746Q30.1143 0.0390625 39.3057 2.58203Q48.4971 5.125 59.7256 5.125Q70.9941 5.125 80.1899 2.58643Q89.3857 0.0478516 95.9985-4.64307Q102.611-9.33398 106.173-15.8467Q109.734-22.3594 109.734-30.3389Q109.734-33.835 106.135-36.8301Q102.536-39.8252 95.8813-42.104Q89.2266-44.3828 80.064-45.6543Q70.9014-46.9258 59.7256-46.9258Q48.5986-46.9258 39.4316-45.6543Q30.2646-44.3828 23.6143-42.104Q16.9639-39.8252 13.3647-36.8301Q9.76562-33.835 9.76562-30.3389ZM17.7021-30.3389Q17.7021-31.3643 19.8916-32.5786Q22.0811-33.793 26.0171-35.0098Q29.9531-36.2266 35.2305-37.228Q40.5078-38.2295 46.7412-38.8335Q52.9746-39.4375 59.7256-39.4375Q66.4766-39.4375 72.73-38.8335Q78.9834-38.2295 84.2607-37.228Q89.5381-36.2266 93.4741-35.0098Q97.4102-33.793 99.5996-32.5786Q101.789-31.3643 101.789-30.3389Q101.789-29.3223 99.6284-28.1011Q97.4678-26.8799 93.5562-25.6919Q89.6445-24.5039 84.3916-23.5112Q79.1387-22.5186 72.8564-21.9233Q66.5742-21.3281 59.7256-21.3281Q52.917-21.3281 46.6348-21.9233Q40.3525-22.5186 35.0996-23.5112Q29.8467-24.5039 25.9351-25.6919Q22.0234-26.8799 19.8628-28.1011Q17.7021-29.3223 17.7021-30.3389ZM101.211-33.7842L127.154-50.0977Q130.452-52.165 131.349-55.1045Q132.246-58.0439 131.215-60.8525Q130.184-63.6611 127.666-65.4692Q125.147-67.2773 121.575-67.1753Q118.003-67.0732 113.894-64.0605L82.7842-41.5918ZM37.0977-19.748L78.9453-19.708Q79.0596-23.9141 77.0845-27.0747Q75.1094-30.2354 71.7617-31.9917Q68.4141-33.748 64.4395-33.748Q60.8086-33.748 57.6953-32.2964Q54.582-30.8447 52.5811-28.3945Q51.6885-28.6523 50.7915-28.7656Q49.8945-28.8789 48.9443-28.8789Q45.8789-28.8789 43.3237-27.6616Q40.7686-26.4443 39.1201-24.3667Q37.4717-22.2891 37.0977-19.748Z"/>
  </g>
  <g id="Regular-S" transform="matrix(1 0 0 1 1380.09 696)">
   <path d="M9.76562-30.6641Q9.76562-22.8516 13.2568-16.4795Q16.748-10.1074 23.2422-5.51758Q29.7363-0.927734 38.7695 1.5625Q47.8027 4.05273 58.8379 4.05273Q69.9219 4.05273 78.9551 1.5625Q87.9883-0.927734 94.4824-5.51758Q100.977-10.1074 104.468-16.4795Q107.959-22.8516 107.959-30.6641Q107.959-33.9844 104.443-36.8652Q100.928-39.7461 94.4092-41.9678Q87.8906-44.1895 78.8818-45.4346Q69.873-46.6797 58.8379-46.6797Q47.8516-46.6797 38.8428-45.4346Q29.834-44.1895 23.3154-41.9678Q16.7969-39.7461 13.2812-36.8652Q9.76562-33.9844 9.76562-30.6641ZM16.7969-30.6641Q16.7969-31.6895 18.8721-32.9346Q20.9473-34.1797 24.7559-35.4492Q28.5645-36.7188 33.7891-37.7686Q39.0137-38.8184 45.3613-39.4531Q51.709-40.0879 58.8379-40.0879Q65.9668-40.0879 72.3389-39.4531Q78.7109-38.8184 83.9355-37.7686Q89.1602-36.7188 92.9688-35.4492Q96.7773-34.1797 98.8525-32.9346Q100.928-31.6895 100.928-30.6641Q100.928-29.6387 98.877-28.3691Q96.8262-27.0996 93.042-25.8545Q89.2578-24.6094 84.0576-23.5596Q78.8574-22.5098 72.4609-21.875Q66.0645-21.2402 58.8379-21.2402Q51.6602-21.2402 45.2637-21.875Q38.8672-22.5098 33.667-23.5596Q28.4668-24.6094 24.6826-25.8545Q20.8984-27.0996 18.8477-28.3691Q16.7969-29.6387 16.7969-30.6641ZM99.3652-34.6191L125.098-50.0977Q128.369-52.0508 129.297-54.8584Q130.225-57.666 129.272-60.3516Q128.32-63.0371 125.903-64.7705Q123.486-66.5039 120.02-66.4062Q116.553-66.3086 112.549-63.4277L82.1777-41.9434ZM36.8164-20.5566L77.5391-20.5078Q77.5391-24.5117 75.5859-27.4658Q73.6328-30.4199 70.4346-32.0312Q67.2363-33.6426 63.5254-33.6426Q59.9121-33.6426 56.8604-32.1777Q53.8086-30.7129 51.9043-28.2715Q50.9766-28.5645 50.0488-28.6865Q49.1211-28.8086 48.1445-28.8086Q45.2637-28.8086 42.8711-27.71Q40.4785-26.6113 38.8916-24.7314Q37.3047-22.8516 36.8164-20.5566Z"/>
  </g>
  <g id="Light-S" transform="matrix(1 0 0 1 1085.04 696)">
   <path d="M9.76562-30.997Q9.76562-23.4571 13.1282-17.2969Q16.4907-11.1366 22.7654-6.70573Q29.04-2.27483 37.8007 0.124613Q46.5614 2.52406 57.3092 2.53906Q68.0903 2.52406 76.8435 0.124613Q85.5967-2.27483 91.8789-6.70573Q98.1611-11.1366 101.531-17.2969Q104.901-23.4571 104.901-30.997Q104.901-34.166 101.386-36.8955Q97.8701-39.625 91.4726-41.7029Q85.0751-43.7808 76.3842-44.9426Q67.6933-46.1044 57.3092-46.1044Q46.9584-46.1044 38.2751-44.9426Q29.5919-43.7808 23.1944-41.7029Q16.7969-39.625 13.2812-36.8955Q9.76562-34.166 9.76562-30.997ZM15.1924-30.997Q15.1924-32.431 17.5552-33.8502Q19.9181-35.2694 24.0672-36.5617Q28.2163-37.854 33.5922-38.8508Q38.9681-39.8476 45.0434-40.4143Q51.1187-40.981 57.3092-40.981Q63.4844-40.981 69.5765-40.4143Q75.6686-39.8476 81.0445-38.8508Q86.4204-37.854 90.5696-36.5617Q94.7187-35.2694 97.0966-33.8502Q99.4746-32.431 99.4746-30.997Q99.4746-29.6842 97.2876-28.2935Q95.1007-26.9028 91.1575-25.635Q87.2144-24.3673 81.9386-23.3552Q76.6627-22.3432 70.3873-21.7614Q64.1118-21.1797 57.3092-21.1797Q50.5402-21.1797 44.2647-21.7614Q37.9893-22.3432 32.7134-23.3552Q27.4376-24.3673 23.4945-25.635Q19.5513-26.9028 17.3719-28.2935Q15.1924-29.6842 15.1924-30.997ZM97.2763-35.376L122.116-50.794Q125.175-52.6866 126.027-55.2973Q126.879-57.9081 125.973-60.3742Q125.066-62.8403 122.8-64.3996Q120.535-65.9589 117.333-65.8159Q114.131-65.6728 110.46-62.9585L81.648-41.9281ZM34.9243-20.7685L76.4643-20.5231Q76.5099-24.4512 74.5945-27.4128Q72.6791-30.3744 69.4734-32.0236Q66.2676-33.6728 62.4204-33.6728Q58.6405-33.6728 55.4602-32.0793Q52.2799-30.4858 50.3756-27.772Q49.2661-28.186 48.2475-28.3611Q47.229-28.5362 46.0556-28.5362Q43.2958-28.5362 40.9714-27.5132Q38.647-26.4903 37.0677-24.7239Q35.4884-22.9576 34.9243-20.7685Z"/>
  </g>
  <g id="Thin-S" transform="matrix(1 0 0 1 790.521 696)">
   <path d="M9.76562-31.4372Q9.76562-24.2579 12.958-18.3779Q16.1503-12.4978 22.1347-8.27715Q28.1191-4.05648 36.5194-1.77711Q44.9197 0.50226 55.2874 0.537109Q65.6679 0.50226 74.0508-1.77711Q82.4337-4.05648 88.4355-8.27715Q94.4373-12.4978 97.6474-18.3779Q100.857-24.2579 100.857-31.4372Q100.857-34.4061 97.3418-36.9355Q93.8262-39.4649 87.5888-41.3526Q81.3514-43.2403 73.0809-44.2919Q64.8105-45.3436 55.2874-45.3436Q45.7772-45.3436 37.5244-44.2919Q29.2717-43.2403 23.0343-41.3526Q16.7969-39.4649 13.2812-36.9355Q9.76562-34.4061 9.76562-31.4372ZM13.0704-31.4372Q13.0704-33.4118 15.8136-35.0613Q18.5569-36.7107 23.1563-38.0331Q27.7558-39.3555 33.3319-40.2821Q38.9079-41.2088 44.623-41.6855Q50.3381-42.1623 55.2874-42.1623Q60.2013-42.1623 65.9231-41.6855Q71.6448-41.2088 77.2209-40.2821Q82.7969-39.3555 87.3964-38.0331Q91.9959-36.7107 94.7743-35.0613Q97.5527-33.4118 97.5527-31.4372Q97.5527-29.7444 95.1856-28.1934Q92.8185-26.6424 88.6652-25.3448Q84.5118-24.0471 79.1359-23.085Q73.76-22.1229 67.6447-21.6113Q61.5293-21.0997 55.2874-21.0997Q49.0589-21.0997 42.9435-21.6113Q36.8282-22.1229 31.4523-23.085Q26.0764-24.0471 21.923-25.3448Q17.7697-26.6424 15.42-28.1934Q13.0704-29.7444 13.0704-31.4372ZM94.5135-36.377L118.172-51.7149Q120.951-53.5274 121.703-55.8779Q122.455-58.2283 121.608-60.4041Q120.762-62.5799 118.696-63.909Q116.631-65.2381 113.779-65.035Q110.928-64.8319 107.697-62.338L80.9474-41.9079ZM32.4219-21.0487L75.0429-20.5433Q75.1487-24.3711 73.2832-27.3427Q71.4178-30.3142 68.2022-32.0135Q64.9865-33.7129 60.959-33.7129Q56.9588-33.7129 53.6085-31.9491Q50.2581-30.1854 48.3538-27.1114Q47.0038-27.6855 45.8652-27.9308Q44.7266-28.176 43.2928-28.176Q40.6931-28.176 38.4588-27.2531Q36.2246-26.3302 34.6554-24.714Q33.0862-23.0979 32.4219-21.0487Z"/>
  </g>
  <g id="Ultralight-S" transform="matrix(1 0 0 1 494.933 696)">
   <path d="M9.76562-31.6628Q9.76562-24.6681 12.8708-18.9316Q15.976-13.195 21.8117-9.08203Q27.6474-4.96902 35.8631-2.75116Q44.0788-0.533295 54.2519-0.488281Q64.4272-0.533295 72.6204-2.75116Q80.8136-4.96902 86.6718-9.08203Q92.5301-13.195 95.6581-18.9316Q98.7862-24.6681 98.7862-31.6628Q98.7862-34.5291 95.2705-36.956Q91.7549-39.3829 85.5995-41.1732Q79.4441-42.9634 71.389-43.9587Q63.3339-44.9539 54.2519-44.9539Q45.1721-44.9539 37.1399-43.9587Q29.1077-42.9634 22.9523-41.1732Q16.7969-39.3829 13.2812-36.956Q9.76562-34.5291 9.76562-31.6628ZM11.9835-31.6628Q11.9835-33.9142 14.9216-35.6815Q17.8596-37.4489 22.6898-38.7867Q27.52-40.1245 33.1985-41.0152Q38.8771-41.906 44.4077-42.3367Q49.9382-42.7673 54.2519-42.7673Q58.5197-42.7673 64.0518-42.3367Q69.5839-41.906 75.2625-41.0152Q80.941-40.1245 85.7712-38.7867Q90.6013-37.4489 93.5848-35.6815Q96.5683-33.9142 96.5683-31.6628Q96.5683-29.7752 94.109-28.1422Q91.6496-26.5091 87.3886-25.1961Q83.1276-23.8831 77.7004-22.9465Q72.2733-22.01 66.2399-21.5343Q60.2066-21.0587 54.2519-21.0587Q48.3002-21.0587 42.2668-21.5343Q36.2335-22.01 30.8064-22.9465Q25.3792-23.8831 21.1182-25.1961Q16.8571-26.5091 14.4203-28.1422Q11.9835-29.7752 11.9835-31.6628ZM93.0984-36.8896L116.152-52.1866Q118.787-53.9581 119.488-56.1752Q120.189-58.3923 119.373-60.4195Q118.557-62.4466 116.594-63.6578Q114.632-64.8689 111.959-64.6351Q109.287-64.4012 106.282-62.0201L80.5885-41.8976ZM31.1401-21.1922L74.3149-20.5536Q74.4514-24.3301 72.6116-27.3067Q70.7718-30.2834 67.551-32.0084Q64.3303-33.7334 60.2104-33.7334Q56.0974-33.7334 52.66-31.8825Q49.2226-30.0316 47.3183-26.7731Q45.845-27.4292 44.6449-27.7103Q43.4448-27.9915 41.8777-27.9915Q39.36-27.9915 37.1719-27.1198Q34.9838-26.2482 33.4198-24.7089Q31.8558-23.1697 31.1401-21.1922Z"/>
  </g>
 </g>
</svg>
