<?xml version="1.0" encoding="UTF-8"?>
<!--Generator: Apple Native CoreSVG 175.5-->
<!DOCTYPE svg
PUBLIC "-//W3C//DTD SVG 1.1//EN"
       "http://www.w3.org/Graphics/SVG/1.1/DTD/svg11.dtd">
<svg version="1.1" xmlns="http://www.w3.org/2000/svg" xmlns:xlink="http://www.w3.org/1999/xlink" width="3300" height="2200">
 <!--glyph: "uni1013CC.medium", point size: 100.0, font version: "18.0d9e1", template writer version: "84"-->
 <g id="Notes">
  <rect height="2200" id="artboard" style="fill:white;opacity:1" width="3300" x="0" y="0"/>
  <line style="fill:none;stroke:black;opacity:1;stroke-width:0.5;" x1="263" x2="3036" y1="292" y2="292"/>
  <text style="stroke:none;fill:black;font-family:sans-serif;font-size:13;font-weight:bold;" transform="matrix(1 0 0 1 263 322)">Weight/Scale Variations</text>
  <text style="stroke:none;fill:black;font-family:sans-serif;font-size:13;text-anchor:middle;" transform="matrix(1 0 0 1 559.711 322)">Ultralight</text>
  <text style="stroke:none;fill:black;font-family:sans-serif;font-size:13;text-anchor:middle;" transform="matrix(1 0 0 1 856.422 322)">Thin</text>
  <text style="stroke:none;fill:black;font-family:sans-serif;font-size:13;text-anchor:middle;" transform="matrix(1 0 0 1 1153.13 322)">Light</text>
  <text style="stroke:none;fill:black;font-family:sans-serif;font-size:13;text-anchor:middle;" transform="matrix(1 0 0 1 1449.84 322)">Regular</text>
  <text style="stroke:none;fill:black;font-family:sans-serif;font-size:13;text-anchor:middle;" transform="matrix(1 0 0 1 1746.56 322)">Medium</text>
  <text style="stroke:none;fill:black;font-family:sans-serif;font-size:13;text-anchor:middle;" transform="matrix(1 0 0 1 2043.27 322)">Semibold</text>
  <text style="stroke:none;fill:black;font-family:sans-serif;font-size:13;text-anchor:middle;" transform="matrix(1 0 0 1 2339.98 322)">Bold</text>
  <text style="stroke:none;fill:black;font-family:sans-serif;font-size:13;text-anchor:middle;" transform="matrix(1 0 0 1 2636.69 322)">Heavy</text>
  <text style="stroke:none;fill:black;font-family:sans-serif;font-size:13;text-anchor:middle;" transform="matrix(1 0 0 1 2933.4 322)">Black</text>
  <line style="fill:none;stroke:black;opacity:1;stroke-width:0.5;" x1="263" x2="3036" y1="1903" y2="1903"/>
  <g transform="matrix(1 0 0 1 263 1933)">
   <path d="M9.24805 0.830078Q10.8691 0.830078 12.2949 0.214844Q13.7207-0.400391 14.8096-1.49414Q15.8984-2.58789 16.5186-4.01367Q17.1387-5.43945 17.1387-7.05078Q17.1387-8.66211 16.5186-10.0879Q15.8984-11.5137 14.8047-12.6074Q13.7109-13.7012 12.2852-14.3164Q10.8594-14.9316 9.23828-14.9316Q7.62695-14.9316 6.20117-14.3164Q4.77539-13.7012 3.69141-12.6074Q2.60742-11.5137 1.9873-10.0879Q1.36719-8.66211 1.36719-7.05078Q1.36719-5.43945 1.9873-4.01367Q2.60742-2.58789 3.69629-1.49414Q4.78516-0.400391 6.21094 0.214844Q7.63672 0.830078 9.24805 0.830078ZM9.24805-0.654297Q7.91992-0.654297 6.7627-1.14746Q5.60547-1.64062 4.73145-2.51953Q3.85742-3.39844 3.36426-4.56055Q2.87109-5.72266 2.87109-7.05078Q2.87109-8.37891 3.35938-9.54102Q3.84766-10.7031 4.72168-11.582Q5.5957-12.4609 6.75293-12.9541Q7.91016-13.4473 9.23828-13.4473Q10.5762-13.4473 11.7383-12.9541Q12.9004-12.4609 13.7793-11.582Q14.6582-10.7031 15.1514-9.54102Q15.6445-8.37891 15.6445-7.05078Q15.6445-5.72266 15.1514-4.56055Q14.6582-3.39844 13.7793-2.51953Q12.9004-1.64062 11.7432-1.14746Q10.5859-0.654297 9.24805-0.654297ZM5.6543-7.05078Q5.6543-6.72852 5.85938-6.52832Q6.06445-6.32812 6.40625-6.32812L8.51562-6.32812L8.51562-4.20898Q8.51562-3.88672 8.71094-3.67676Q8.90625-3.4668 9.23828-3.4668Q9.56055-3.4668 9.77051-3.67676Q9.98047-3.88672 9.98047-4.20898L9.98047-6.32812L12.0898-6.32812Q12.4219-6.32812 12.627-6.52832Q12.832-6.72852 12.832-7.05078Q12.832-7.38281 12.627-7.58789Q12.4219-7.79297 12.0898-7.79297L9.98047-7.79297L9.98047-9.90234Q9.98047-10.2344 9.77051-10.4443Q9.56055-10.6543 9.23828-10.6543Q8.90625-10.6543 8.71094-10.4443Q8.51562-10.2344 8.51562-9.90234L8.51562-7.79297L6.40625-7.79297Q6.06445-7.79297 5.85938-7.58789Q5.6543-7.38281 5.6543-7.05078Z"/>
  </g>
  <g transform="matrix(1 0 0 1 281.867 1933)">
   <path d="M11.709 2.91016Q13.75 2.91016 15.5518 2.12891Q17.3535 1.34766 18.7305-0.0292969Q20.1074-1.40625 20.8887-3.20801Q21.6699-5.00977 21.6699-7.05078Q21.6699-9.0918 20.8887-10.8936Q20.1074-12.6953 18.7305-14.0723Q17.3535-15.4492 15.5469-16.2305Q13.7402-17.0117 11.6992-17.0117Q9.6582-17.0117 7.85645-16.2305Q6.05469-15.4492 4.68262-14.0723Q3.31055-12.6953 2.5293-10.8936Q1.74805-9.0918 1.74805-7.05078Q1.74805-5.00977 2.5293-3.20801Q3.31055-1.40625 4.6875-0.0292969Q6.06445 1.34766 7.86621 2.12891Q9.66797 2.91016 11.709 2.91016ZM11.709 1.25Q9.98047 1.25 8.47656 0.605469Q6.97266-0.0390625 5.83496-1.17676Q4.69727-2.31445 4.05762-3.81836Q3.41797-5.32227 3.41797-7.05078Q3.41797-8.7793 4.05762-10.2832Q4.69727-11.7871 5.83008-12.9297Q6.96289-14.0723 8.4668-14.7119Q9.9707-15.3516 11.6992-15.3516Q13.4277-15.3516 14.9365-14.7119Q16.4453-14.0723 17.583-12.9297Q18.7207-11.7871 19.3652-10.2832Q20.0098-8.7793 20.0098-7.05078Q20.0098-5.32227 19.3701-3.81836Q18.7305-2.31445 17.5879-1.17676Q16.4453-0.0390625 14.9414 0.605469Q13.4375 1.25 11.709 1.25ZM7.17773-7.05078Q7.17773-6.69922 7.41211-6.47461Q7.64648-6.25 8.01758-6.25L10.8887-6.25L10.8887-3.36914Q10.8887-2.99805 11.1133-2.76855Q11.3379-2.53906 11.6895-2.53906Q12.0605-2.53906 12.29-2.76855Q12.5195-2.99805 12.5195-3.36914L12.5195-6.25L15.4004-6.25Q15.7715-6.25 16.001-6.47461Q16.2305-6.69922 16.2305-7.05078Q16.2305-7.42188 16.001-7.65137Q15.7715-7.88086 15.4004-7.88086L12.5195-7.88086L12.5195-10.752Q12.5195-11.1328 12.29-11.3623Q12.0605-11.5918 11.6895-11.5918Q11.3379-11.5918 11.1133-11.3574Q10.8887-11.123 10.8887-10.752L10.8887-7.88086L8.01758-7.88086Q7.63672-7.88086 7.40723-7.65137Q7.17773-7.42188 7.17773-7.05078Z"/>
  </g>
  <g transform="matrix(1 0 0 1 305.646 1933)">
   <path d="M14.9707 5.66406Q17.0605 5.66406 18.96 5.01465Q20.8594 4.36523 22.4512 3.19336Q24.043 2.02148 25.2197 0.429688Q26.3965-1.16211 27.0459-3.06641Q27.6953-4.9707 27.6953-7.05078Q27.6953-9.14062 27.0459-11.04Q26.3965-12.9395 25.2197-14.5312Q24.043-16.123 22.4512-17.2998Q20.8594-18.4766 18.9551-19.126Q17.0508-19.7754 14.9609-19.7754Q12.8711-19.7754 10.9717-19.126Q9.07227-18.4766 7.48535-17.2998Q5.89844-16.123 4.72168-14.5312Q3.54492-12.9395 2.90039-11.04Q2.25586-9.14062 2.25586-7.05078Q2.25586-4.9707 2.90527-3.06641Q3.55469-1.16211 4.72656 0.429688Q5.89844 2.02148 7.49023 3.19336Q9.08203 4.36523 10.9814 5.01465Q12.8809 5.66406 14.9707 5.66406ZM14.9707 3.84766Q13.1641 3.84766 11.5283 3.2959Q9.89258 2.74414 8.53516 1.74805Q7.17773 0.751953 6.17676-0.610352Q5.17578-1.97266 4.62891-3.6084Q4.08203-5.24414 4.08203-7.05078Q4.08203-8.86719 4.62891-10.5029Q5.17578-12.1387 6.17188-13.501Q7.16797-14.8633 8.52539-15.8594Q9.88281-16.8555 11.5186-17.4023Q13.1543-17.9492 14.9609-17.9492Q16.7773-17.9492 18.4131-17.4023Q20.0488-16.8555 21.4111-15.8594Q22.7734-14.8633 23.7744-13.501Q24.7754-12.1387 25.3223-10.5029Q25.8691-8.86719 25.8691-7.05078Q25.8691-5.24414 25.3223-3.6084Q24.7754-1.97266 23.7793-0.610352Q22.7832 0.751953 21.4209 1.74805Q20.0586 2.74414 18.4229 3.2959Q16.7871 3.84766 14.9707 3.84766ZM9.19922-7.05078Q9.19922-6.66992 9.45801-6.4209Q9.7168-6.17188 10.1172-6.17188L14.0625-6.17188L14.0625-2.2168Q14.0625-1.81641 14.3115-1.55762Q14.5605-1.29883 14.9512-1.29883Q15.3516-1.29883 15.6104-1.55273Q15.8691-1.80664 15.8691-2.2168L15.8691-6.17188L19.8242-6.17188Q20.2246-6.17188 20.4785-6.4209Q20.7324-6.66992 20.7324-7.05078Q20.7324-7.46094 20.4785-7.71484Q20.2246-7.96875 19.8242-7.96875L15.8691-7.96875L15.8691-11.9141Q15.8691-12.3242 15.6104-12.583Q15.3516-12.8418 14.9512-12.8418Q14.5605-12.8418 14.3115-12.583Q14.0625-12.3242 14.0625-11.9141L14.0625-7.96875L10.1172-7.96875Q9.70703-7.96875 9.45312-7.71484Q9.19922-7.46094 9.19922-7.05078Z"/>
  </g>
  <text style="stroke:none;fill:black;font-family:sans-serif;font-size:13;font-weight:bold;" transform="matrix(1 0 0 1 263 1953)">Design Variations</text>
  <text style="stroke:none;fill:black;font-family:sans-serif;font-size:13;" transform="matrix(1 0 0 1 263 1971)">Symbols are supported in up to nine weights and three scales.</text>
  <text style="stroke:none;fill:black;font-family:sans-serif;font-size:13;" transform="matrix(1 0 0 1 263 1989)">For optimal layout with text and other symbols, vertically align</text>
  <text style="stroke:none;fill:black;font-family:sans-serif;font-size:13;" transform="matrix(1 0 0 1 263 2007)">symbols with the adjacent text.</text>
  <line style="fill:none;stroke:#00AEEF;stroke-width:0.5;opacity:1.0;" x1="776" x2="776" y1="1919" y2="1933"/>
  <g transform="matrix(1 0 0 1 776 1933)">
   <path d="M3.31055 0.15625Q3.70117 0.15625 3.91602-0.00976562Q4.13086-0.175781 4.26758-0.585938L5.52734-4.0332L11.2891-4.0332L12.5488-0.585938Q12.6855-0.175781 12.9004-0.00976562Q13.1152 0.15625 13.4961 0.15625Q13.8867 0.15625 14.1162-0.0585938Q14.3457-0.273438 14.3457-0.644531Q14.3457-0.869141 14.2383-1.17188L9.6582-13.3691Q9.48242-13.8184 9.17969-14.043Q8.87695-14.2676 8.4082-14.2676Q7.5-14.2676 7.17773-13.3789L2.59766-1.16211Q2.49023-0.859375 2.49023-0.634766Q2.49023-0.263672 2.70996-0.0537109Q2.92969 0.15625 3.31055 0.15625ZM6.00586-5.51758L8.37891-12.0898L8.42773-12.0898L10.8008-5.51758Z"/>
  </g>
  <line style="fill:none;stroke:#00AEEF;stroke-width:0.5;opacity:1.0;" x1="793.197" x2="793.197" y1="1919" y2="1933"/>
  <text style="stroke:none;fill:black;font-family:sans-serif;font-size:13;font-weight:bold;" transform="matrix(1 0 0 1 776 1953)">Margins</text>
  <text style="stroke:none;fill:black;font-family:sans-serif;font-size:13;" transform="matrix(1 0 0 1 776 1971)">Leading and trailing margins on the left and right side of each symbol</text>
  <text style="stroke:none;fill:black;font-family:sans-serif;font-size:13;" transform="matrix(1 0 0 1 776 1989)">can be adjusted by modifying the x-location of the margin guidelines.</text>
  <text style="stroke:none;fill:black;font-family:sans-serif;font-size:13;" transform="matrix(1 0 0 1 776 2007)">Modifications are automatically applied proportionally to all</text>
  <text style="stroke:none;fill:black;font-family:sans-serif;font-size:13;" transform="matrix(1 0 0 1 776 2025)">scales and weights.</text>
  <g transform="matrix(1 0 0 1 1289 1933)">
   <path d="M2.8418 1.86523L4.54102 3.57422Q5.18555 4.22852 5.90332 4.17969Q6.62109 4.13086 7.31445 3.35938L18.0078-8.42773L17.041-9.4043L6.42578 2.27539Q6.16211 2.57812 5.89355 2.61719Q5.625 2.65625 5.27344 2.30469L4.10156 1.14258Q3.75 0.791016 3.79395 0.522461Q3.83789 0.253906 4.14062-0.0195312L15.6152-10.8203L14.6387-11.7871L3.04688-0.898438Q2.30469-0.214844 2.25098 0.498047Q2.19727 1.21094 2.8418 1.86523ZM9.25781-16.3281Q8.94531-16.0254 8.90625-15.6348Q8.86719-15.2441 9.04297-14.9512Q9.21875-14.6777 9.55566-14.541Q9.89258-14.4043 10.3809-14.5215Q11.4746-14.7754 12.5977-14.7314Q13.7207-14.6875 14.7949-13.9844L14.209-12.5293Q13.9551-11.9043 14.0674-11.4404Q14.1797-10.9766 14.5801-10.5664L16.875-8.25195Q17.2363-7.88086 17.5781-7.82227Q17.9199-7.76367 18.3398-7.8418L19.4043-8.03711L20.0684-7.36328L20.0293-6.80664Q20-6.43555 20.1221-6.12305Q20.2441-5.81055 20.6055-5.44922L21.3672-4.70703Q21.7285-4.3457 22.1533-4.33105Q22.5781-4.31641 22.9297-4.66797L25.8398-7.58789Q26.1914-7.93945 26.1816-8.35449Q26.1719-8.76953 25.8105-9.13086L25.0391-9.89258Q24.6875-10.2539 24.3799-10.3857Q24.0723-10.5176 23.7109-10.4883L23.1348-10.4395L22.4902-11.0742L22.7344-12.1973Q22.832-12.6172 22.6953-12.9834Q22.5586-13.3496 22.1191-13.7891L19.9219-15.9766Q18.6719-17.2168 17.2607-17.8369Q15.8496-18.457 14.4189-18.4814Q12.9883-18.5059 11.665-17.959Q10.3418-17.4121 9.25781-16.3281ZM10.752-15.957Q11.6602-16.6211 12.7002-16.9043Q13.7402-17.1875 14.8047-17.085Q15.8691-16.9824 16.8701-16.5137Q17.8711-16.0449 18.7012-15.2051L21.1328-12.793Q21.3086-12.6172 21.3525-12.4512Q21.3965-12.2852 21.3379-12.0312L21.0156-10.5469L22.5195-9.0625L23.5059-9.12109Q23.6914-9.13086 23.7891-9.09668Q23.8867-9.0625 24.0332-8.91602L24.6094-8.33984L22.168-5.89844L21.5918-6.47461Q21.4453-6.62109 21.4062-6.71875Q21.3672-6.81641 21.377-7.01172L21.4453-7.98828L19.9512-9.47266L18.4277-9.21875Q18.1836-9.16992 18.042-9.2041Q17.9004-9.23828 17.7148-9.41406L15.7129-11.416Q15.5176-11.5918 15.4932-11.7529Q15.4688-11.9141 15.5859-12.1875L16.4648-14.2773Q15.293-15.3711 13.8281-15.791Q12.3633-16.2109 10.8398-15.7617Q10.7227-15.7324 10.6885-15.8057Q10.6543-15.8789 10.752-15.957Z"/>
  </g>
  <text style="stroke:none;fill:black;font-family:sans-serif;font-size:13;font-weight:bold;" transform="matrix(1 0 0 1 1289 1953)">Exporting</text>
  <text style="stroke:none;fill:black;font-family:sans-serif;font-size:13;" transform="matrix(1 0 0 1 1289 1971)">Symbols should be outlined when exporting to ensure the</text>
  <text style="stroke:none;fill:black;font-family:sans-serif;font-size:13;" transform="matrix(1 0 0 1 1289 1989)">design is preserved when submitting to Xcode.</text>
  <text id="template-version" style="stroke:none;fill:black;font-family:sans-serif;font-size:13;text-anchor:end;" transform="matrix(1 0 0 1 3036 1933)">Template v.2.0</text>
  <text style="stroke:none;fill:black;font-family:sans-serif;font-size:13;text-anchor:end;" transform="matrix(1 0 0 1 3036 1951)">Requires Xcode 12 or greater</text>
  <text id="descriptive-name" style="stroke:none;fill:black;font-family:sans-serif;font-size:13;text-anchor:end;" transform="matrix(1 0 0 1 3036 1969)">Generated from medal.fill</text>
  <text style="stroke:none;fill:black;font-family:sans-serif;font-size:13;text-anchor:end;" transform="matrix(1 0 0 1 3036 1987)">Typeset at 100 points</text>
  <text style="stroke:none;fill:black;font-family:sans-serif;font-size:13;" transform="matrix(1 0 0 1 263 726)">Small</text>
  <text style="stroke:none;fill:black;font-family:sans-serif;font-size:13;" transform="matrix(1 0 0 1 263 1156)">Medium</text>
  <text style="stroke:none;fill:black;font-family:sans-serif;font-size:13;" transform="matrix(1 0 0 1 263 1586)">Large</text>
 </g>
 <g id="Guides">
  <g id="H-reference" style="fill:#27AAE1;stroke:none;" transform="matrix(1 0 0 1 339 696)">
   <path d="M0.993347 0L3.6377 0L29.3282-67.1326L30.0301-67.1326L30.0301-70.459L28.1227-70.459ZM11.6882-24.4797L46.9818-24.4797L46.2311-26.7288L12.4382-26.7288ZM55.1193 0L57.7637 0L30.6381-70.459L29.4327-70.459L29.4327-67.1326Z"/>
  </g>
  <line id="Baseline-S" style="fill:none;stroke:#27AAE1;opacity:1;stroke-width:0.5;" x1="263" x2="3036" y1="696" y2="696"/>
  <line id="Capline-S" style="fill:none;stroke:#27AAE1;opacity:1;stroke-width:0.5;" x1="263" x2="3036" y1="625.541" y2="625.541"/>
  <g id="H-reference" style="fill:#27AAE1;stroke:none;" transform="matrix(1 0 0 1 339 1126)">
   <path d="M0.993347 0L3.6377 0L29.3282-67.1326L30.0301-67.1326L30.0301-70.459L28.1227-70.459ZM11.6882-24.4797L46.9818-24.4797L46.2311-26.7288L12.4382-26.7288ZM55.1193 0L57.7637 0L30.6381-70.459L29.4327-70.459L29.4327-67.1326Z"/>
  </g>
  <line id="Baseline-M" style="fill:none;stroke:#27AAE1;opacity:1;stroke-width:0.5;" x1="263" x2="3036" y1="1126" y2="1126"/>
  <line id="Capline-M" style="fill:none;stroke:#27AAE1;opacity:1;stroke-width:0.5;" x1="263" x2="3036" y1="1055.54" y2="1055.54"/>
  <g id="H-reference" style="fill:#27AAE1;stroke:none;" transform="matrix(1 0 0 1 339 1556)">
   <path d="M0.993347 0L3.6377 0L29.3282-67.1326L30.0301-67.1326L30.0301-70.459L28.1227-70.459ZM11.6882-24.4797L46.9818-24.4797L46.2311-26.7288L12.4382-26.7288ZM55.1193 0L57.7637 0L30.6381-70.459L29.4327-70.459L29.4327-67.1326Z"/>
  </g>
  <line id="Baseline-L" style="fill:none;stroke:#27AAE1;opacity:1;stroke-width:0.5;" x1="263" x2="3036" y1="1556" y2="1556"/>
  <line id="Capline-L" style="fill:none;stroke:#27AAE1;opacity:1;stroke-width:0.5;" x1="263" x2="3036" y1="1485.54" y2="1485.54"/>
  <line id="left-margin" style="fill:none;stroke:#00AEEF;stroke-width:0.5;opacity:1.0;" x1="1390.93" x2="1390.93" y1="1030.79" y2="1150.12"/>
  <line id="right-margin" style="fill:none;stroke:#00AEEF;stroke-width:0.5;opacity:1.0;" x1="1508.76" x2="1508.76" y1="1030.79" y2="1150.12"/>
 </g>
 <g id="Symbols">
  <g id="Black-L" transform="matrix(1 0 0 1 2851.96 1556)">
   <path d="M81.4412 41.146Q90.7082 41.146 98.8032 37.6839Q106.898 34.2219 113.042 28.0684Q119.186 21.9149 122.648 13.8193Q126.11 5.72375 126.11-3.52127Q126.11-12.7871 122.648-20.8827Q119.186-28.9783 113.042-35.1213Q106.898-41.2644 98.8032-44.7369Q90.7082-48.2093 81.4412-48.2093Q72.1753-48.2093 64.0803-44.7369Q55.9854-41.2644 49.8423-35.1213Q43.6992-28.9783 40.2372-20.8827Q36.7751-12.7871 36.7751-3.52127Q36.7751 5.72375 40.2372 13.8193Q43.6992 21.9149 49.8423 28.0684Q55.9854 34.2219 64.0803 37.6839Q72.1753 41.146 81.4412 41.146ZM69.3195 19.3922Q66.9789 21.0786 65.0064 19.7973Q63.0339 18.5159 64.0633 15.5628L68.8189 1.40859L56.6544-7.40032Q54.6254-8.8711 55.0465-11.2907Q55.4677-13.7103 58.6-13.6519L73.6521-13.4934L78.1712-27.8437Q79.0838-30.6776 81.4236-30.6776Q83.7633-30.6776 84.676-27.8437L89.2535-13.4934L104.305-13.6519Q107.496-13.7103 107.846-11.2609Q108.196-8.81149 106.251-7.4015L94.0866 1.35019L98.785 15.5628Q99.8144 18.6911 97.8706 19.8849Q95.9267 21.0786 93.5849 19.3922L81.462 10.5016ZM36.4463-33.5767Q41.5904-41.29 49.0631-46.9387Q56.5358-52.5874 65.5811-55.3541L36.5619-107.507L18.4412-80.5031Q16.0464-76.9881 16.084-73.4109Q16.1216-69.8336 18.6696-65.3061ZM66.5909-74.1503L96.295-74.1503L116.676-110.644L46.209-110.644ZM97.3048-55.3541Q106.35-52.5862 113.822-46.9375Q121.293-41.2888 126.438-33.5755L144.216-65.3061Q146.764-69.8336 146.802-73.4109Q146.84-76.9881 144.445-80.5031L126.324-107.507Z"/>
  </g>
  <g id="Heavy-L" transform="matrix(1 0 0 1 2556.76 1556)">
   <path d="M79.9218 39.7239Q88.9478 39.7239 96.8269 36.3551Q104.706 32.9862 110.684 26.9962Q116.661 21.0063 120.03 13.1244Q123.399 5.2426 123.399-3.74755Q123.399-12.768 120.03-20.6499Q116.661-28.5317 110.684-34.5066Q104.706-40.4814 96.8269-43.8653Q88.9478-47.2493 79.9218-47.2493Q70.9014-47.2493 63.0224-43.8653Q55.1433-40.4814 49.1685-34.5066Q43.1936-28.5317 39.8248-20.6499Q36.4559-12.768 36.4559-3.74755Q36.4559 5.2426 39.8248 13.1244Q43.1936 21.0063 49.1685 26.9962Q55.1433 32.9862 63.0224 36.3551Q70.9014 39.7239 79.9218 39.7239ZM67.9611 18.6034Q65.7783 20.1867 63.9528 18.9724Q62.1273 17.758 63.0708 15.0361L67.7717 1.02903L55.745-7.65582Q53.8099-9.05044 54.2337-11.2935Q54.6576-13.5365 57.5593-13.4919L72.4184-13.3423L76.9006-27.5134Q77.7547-30.1349 79.9202-30.1349Q82.0856-30.1349 82.9398-27.5134L87.4666-13.3423L102.326-13.4919Q105.272-13.5365 105.625-11.2684Q105.978-9.00016 104.14-7.66139L92.1133 0.984408L96.7753 15.0361Q97.7187 17.8919 95.9127 19.0393Q94.1068 20.1867 91.9183 18.6034L79.952 9.83247ZM36.6539-33.6692Q41.6661-40.9386 48.8322-46.2605Q55.9983-51.5825 64.6317-54.1854L35.834-106.153L18.0751-79.5622Q16.0695-76.6058 16.084-73.5733Q16.0985-70.5409 18.202-66.8013ZM65.2131-73.7097L94.6473-73.7097L114.589-109.44L45.2663-109.44ZM95.2287-54.1854Q103.862-51.5769 111.023-46.2549Q118.183-40.933 123.201-33.6635L141.658-66.8013Q143.762-70.5409 143.776-73.5733Q143.791-76.6058 141.785-79.5622L124.026-106.153Z"/>
  </g>
  <g id="Bold-L" transform="matrix(1 0 0 1 2262.17 1556)">
   <path d="M77.7858 37.8227Q86.5048 37.8227 94.1075 34.5728Q101.71 31.3229 107.477 25.5439Q113.243 19.765 116.493 12.1557Q119.743 4.54644 119.743-4.12112Q119.743-12.827 116.493-20.4363Q113.243-28.0456 107.477-33.8055Q101.71-39.5653 94.1075-42.8342Q86.5048-46.103 77.7858-46.103Q69.0801-46.103 61.4775-42.8342Q53.8749-39.5653 48.1149-33.8055Q42.3549-28.0456 39.1051-20.4363Q35.8553-12.827 35.8553-4.12112Q35.8553 4.54644 39.1051 12.1557Q42.3549 19.765 48.1149 25.5439Q53.8749 31.3229 61.4775 34.5728Q69.0801 37.8227 77.7858 37.8227ZM66.0026 17.5605Q64.0418 18.9909 62.4156 17.8796Q60.7893 16.7683 61.6178 14.3532L66.2496 0.508064L54.3771-8.03802Q52.5871-9.31797 53.0073-11.3234Q53.4275-13.3288 56.0151-13.2996L70.6583-13.1652L75.1019-27.1358Q75.8718-29.4663 77.8035-29.4663Q79.7351-29.4663 80.505-27.1358L84.9779-13.1652L99.621-13.2996Q102.238-13.3288 102.583-11.3021Q102.929-9.27543 101.259-8.05113L89.3866 0.478861L94.0025 14.3532Q94.831 16.8559 93.2128 17.9234Q91.5945 18.9909 89.6204 17.5605L77.8239 8.92062ZM36.7361-33.695Q41.5795-40.4411 48.3839-45.3707Q55.1882-50.3003 63.3368-52.696L34.9796-104.485L17.6441-78.357Q16.0927-76.0549 16.084-73.6614Q16.0753-71.2679 17.6629-68.4444ZM63.1793-73.2088L92.4321-73.2088L111.582-107.755L44.0163-107.755ZM92.2745-52.696Q100.423-50.2872 107.214-45.3575Q114.005-40.4278 118.862-33.6817L137.948-68.4444Q139.536-71.2679 139.527-73.6614Q139.519-76.0549 137.967-78.357L120.632-104.485Z"/>
  </g>
  <g id="Semibold-L" transform="matrix(1 0 0 1 1966.93 1556)">
   <path d="M76.3133 36.512Q84.8206 36.512 92.2328 33.3441Q99.6451 30.1762 105.266 24.5427Q110.887 18.9093 114.055 11.4879Q117.223 4.0665 117.223-4.37865Q117.223-12.8676 114.055-20.2891Q110.887-27.7105 105.266-33.3221Q99.6451-38.9338 92.2328-42.1233Q84.8206-45.3128 76.3133-45.3128Q67.8246-45.3128 60.4125-42.1233Q53.0004-38.9338 47.3886-33.3221Q41.7768-27.7105 38.609-20.2891Q35.4413-12.8676 35.4413-4.37865Q35.4413 4.0665 38.609 11.4879Q41.7768 18.9093 47.3886 24.5427Q53.0004 30.1762 60.4125 33.3441Q67.8246 36.512 76.3133 36.512ZM64.6524 16.8415Q62.8447 18.1665 61.3558 17.1263Q59.8668 16.086 60.6162 13.8824L65.2002 0.148913L53.434-8.3015Q51.7441-9.5024 52.1618-11.344Q52.5795-13.1856 54.9505-13.167L69.4448-13.0431L73.8619-26.8755Q74.5737-29.0054 76.3442-29.0054Q78.1147-29.0054 78.8266-26.8755L83.2622-13.0431L97.7565-13.167Q100.146-13.1856 100.487-11.3254Q100.827-9.4652 99.273-8.31982L87.5068 0.13034L92.0909 13.8824Q92.8402 16.1417 91.3514 17.1541Q89.8626 18.1665 88.0363 16.8415L76.3568 8.292ZM36.7929-33.7128Q41.5199-40.0982 48.0748-44.7573Q54.6298-49.4165 62.4442-51.6693L34.3906-103.335L17.347-77.5261Q16.1086-75.6751 16.084-73.7221Q16.0593-71.7691 17.2913-69.5772ZM61.7772-72.8635L90.905-72.8635L109.509-106.594L43.1547-106.594ZM90.238-51.6693Q98.0524-49.3982 104.589-44.7389Q111.125-40.0795 115.871-33.6942L135.391-69.5772Q136.623-71.7691 136.598-73.7221Q136.573-75.6751 135.335-77.5261L118.292-103.335Z"/>
  </g>
  <g id="Medium-L" transform="matrix(1 0 0 1 1671.33 1556)">
   <path d="M75.1967 35.5182Q83.5435 35.5182 90.8114 32.4124Q98.0792 29.3067 103.59 23.7836Q109.1 18.2605 112.206 10.9815Q115.311 3.70259 115.311-4.57392Q115.311-12.8985 112.206-20.1774Q109.1-27.4564 103.59-32.9556Q98.0792-38.4549 90.8114-41.5843Q83.5435-44.7136 75.1967-44.7136Q66.8726-44.7136 59.605-41.5843Q52.3373-38.4549 46.8379-32.9556Q41.3384-27.4564 38.2329-20.1774Q35.1273-12.8985 35.1273-4.57392Q35.1273 3.70259 38.2329 10.9815Q41.3384 18.2605 46.8379 23.7836Q52.3373 29.3067 59.605 32.4124Q66.8726 35.5182 75.1967 35.5182ZM63.6287 16.2963Q61.937 17.5414 60.5522 16.555Q59.1674 15.5687 59.8567 13.5254L64.4046-0.12341L52.719-8.50128Q51.1049-9.64224 51.5207-11.3596Q51.9365-13.077 54.1433-13.0665L68.5248-12.9505L72.9216-26.6782Q73.5895-28.6559 75.2378-28.6559Q76.886-28.6559 77.5539-26.6782L81.9612-12.9505L96.3428-13.0665Q98.5601-13.077 98.8968-11.343Q99.2335-9.60909 97.767-8.52355L86.0814-0.133924L90.6415 13.5254Q91.3307 15.6002 89.9401 16.5708Q88.5494 17.5414 86.8351 16.2963L75.2444 7.81535ZM36.8359-33.7263Q41.4746-39.8381 47.8405-44.2922Q54.2063-48.7463 61.7673-50.8907L33.944-102.463L17.1217-76.8961Q16.1207-75.3872 16.084-73.7682Q16.0472-72.1491 17.0095-70.4361ZM60.714-72.6016L89.747-72.6016L107.937-105.714L42.5013-105.714ZM88.6937-50.8907Q96.2547-48.724 102.598-44.2697Q108.942-39.8155 113.603-33.7037L133.452-70.4361Q134.414-72.1491 134.377-73.7682Q134.34-75.3872 133.339-76.8961L116.517-102.463Z"/>
  </g>
  <g id="Regular-L" transform="matrix(1 0 0 1 1376.06 1556)">
   <path d="M73.7404 34.2219Q81.8778 34.2219 88.9573 31.1972Q96.0367 28.1726 101.403 22.7934Q106.77 17.4142 109.794 10.3211Q112.819 3.22793 112.819-4.82863Q112.819-12.9387 109.794-20.0318Q106.77-27.1249 101.403-32.4776Q96.0367-37.8303 88.9573-40.8812Q81.8778-43.9321 73.7404-43.9321Q65.6308-43.9321 58.5516-40.8812Q51.4725-37.8303 46.1195-32.4776Q40.7666-27.1249 37.7422-20.0318Q34.7178-12.9387 34.7178-4.82863Q34.7178 3.22793 37.7422 10.3211Q40.7666 17.4142 46.1195 22.7934Q51.4725 28.1726 58.5516 31.1972Q65.6308 34.2219 73.7404 34.2219ZM62.2934 15.5852Q60.7531 16.7261 59.5041 15.81Q58.2551 14.8939 58.866 13.0598L63.3668-0.478615L51.7863-8.76187Q50.2712-9.82465 50.6845-11.38Q51.0978-12.9353 53.0904-12.9353L67.3247-12.8298L71.6953-26.4208Q72.3057-28.2 73.7945-28.2Q75.2834-28.2 75.8938-26.4208L80.2644-12.8298L94.4987-12.9353Q96.4913-12.9353 96.8231-11.3661Q97.1548-9.79677 95.8028-8.78928L84.2223-0.478615L88.7509 13.0598Q89.3618 14.8939 88.0992 15.81Q86.8365 16.7261 85.2683 15.5852L73.7934 7.19363ZM36.892-33.7439Q41.4156-39.4989 47.5348-43.6855Q53.654-47.8721 60.8844-49.8753L33.3614-101.326L16.8278-76.0744Q16.1365-75.0116 16.084-73.8282Q16.0314-72.6448 16.6419-71.5564ZM59.3273-72.2601L88.2366-72.2601L105.888-104.565L41.649-104.565ZM86.6795-49.8753Q93.91-47.8447 100.002-43.6579Q106.093-39.471 110.645-33.716L130.922-71.5564Q131.533-72.6448 131.48-73.8282Q131.427-75.0116 130.736-76.0744L114.203-101.326Z"/>
  </g>
  <g id="Light-L" transform="matrix(1 0 0 1 1082.43 1556)">
   <path d="M70.6294 32.0081Q78.4997 32.0081 85.3311 29.0883Q92.1625 26.1685 97.3478 20.9897Q102.533 15.8109 105.453 8.95635Q108.372 2.10179 108.372-5.68734Q108.372-13.5113 105.453-20.3659Q102.533-27.2205 97.3478-32.3822Q92.1625-37.5439 85.3311-40.4804Q78.4997-43.4168 70.6294-43.4168Q62.8062-43.4168 55.9752-40.4804Q49.1442-37.5439 43.982-32.3822Q38.8199-27.2205 35.9005-20.3659Q32.9811-13.5113 32.9811-5.68734Q32.9811 2.10179 35.9005 8.95635Q38.8199 15.8109 43.982 20.9897Q49.1442 26.1685 55.9752 29.0883Q62.8062 32.0081 70.6294 32.0081ZM59.1634 14.4401Q57.9477 15.3139 56.9467 14.5981Q55.9458 13.8822 56.4233 12.3919L60.8666-1.16578L49.2862-9.44903Q48.0574-10.3018 48.4229-11.5708Q48.7884-12.8398 50.3802-12.8398L64.6145-12.7724L69.0043-26.3634Q69.481-27.761 70.6932-27.761Q71.9053-27.761 72.382-26.3634L76.7718-12.7724L91.0061-12.8398Q92.5979-12.8398 92.8533-11.5472Q93.1087-10.2547 92.1002-9.49537L80.5197-1.16578L85.0102 12.3919Q85.4877 13.8822 84.4636 14.5981Q83.4394 15.3139 82.1766 14.4401L70.6635 6.02933ZM35.8232-33.1905Q40.1942-38.7547 46.1797-42.7503Q52.1652-46.746 59.2241-48.5776L33.0751-100.238L16.6752-74.9864Q16.1173-74.1337 16.084-73.1603Q16.0507-72.1869 16.5274-71.3464ZM55.8155-72.2027L85.5838-72.2027L101.097-102.161L40.2558-102.161ZM82.1753-48.5776Q89.2342-46.6996 95.1729-42.7036Q101.112-38.7076 105.53-33.1433L124.872-71.3464Q125.349-72.1869 125.316-73.1603Q125.282-74.1337 124.724-74.9864L108.324-100.238Z"/>
  </g>
  <g id="Thin-L" transform="matrix(1 0 0 1 789.799 1556)">
   <path d="M66.5148 29.0801Q74.0319 29.0801 80.5353 26.299Q87.0386 23.5179 91.9841 18.6042Q96.9296 13.6905 99.7101 7.15141Q102.491 0.612376 102.491-6.82306Q102.491-14.2688 99.7101-20.8078Q96.9296-27.3469 91.9841-32.256Q87.0386-37.1652 80.5353-39.9503Q74.0319-42.7353 66.5148-42.7353Q59.0703-42.7353 52.5676-39.9503Q46.0648-37.1652 41.155-32.256Q36.2452-27.3469 33.4647-20.8078Q30.6842-14.2688 30.6842-6.82306Q30.6842 0.612376 33.4647 7.15141Q36.2452 13.6905 41.155 18.6042Q46.0648 23.5179 52.5676 26.299Q59.0703 29.0801 66.5148 29.0801ZM55.0239 12.9257Q54.2373 13.4462 53.5644 12.9952Q52.8915 12.5442 53.1925 11.5085L57.56-2.07461L45.9795-10.3579Q45.1295-10.9328 45.4318-11.8231Q45.7341-12.7134 46.7958-12.7134L61.0301-12.6965L65.4453-26.2874Q65.7452-27.1804 66.5913-27.1804Q67.4375-27.1804 67.7374-26.2874L72.1526-12.6965L86.3869-12.7134Q87.4486-12.7134 87.6031-11.7868Q87.7575-10.8603 87.2032-10.4292L75.6227-2.07461L80.0627 11.5085Q80.3638 12.5442 79.6552 12.9952Q78.9466 13.4462 78.0875 12.9257L66.5239 4.48945ZM34.4097-32.4585Q38.5788-37.7704 44.3875-41.5135Q50.1961-45.2566 57.0281-46.8613L32.6964-98.7993L16.4733-73.5475Q16.0918-72.9725 16.084-72.2769Q16.0761-71.5813 16.376-71.0686ZM51.1709-72.1268L82.0753-72.1268L94.7617-98.9803L38.4131-98.9803ZM76.218-46.8613Q83.0501-45.1852 88.7867-41.4415Q94.5234-37.6978 98.7651-32.3859L116.87-71.0686Q117.171-71.5813 117.163-72.2769Q117.154-72.9725 116.773-73.5475L100.55-98.7993Z"/>
  </g>
  <g id="Ultralight-L" transform="matrix(1 0 0 1 495.176 1556)">
   <path d="M64.4074 27.5804Q71.7435 27.5804 78.0789 24.8704Q84.4142 22.1603 89.2368 17.3823Q94.0595 12.6044 96.7688 6.22693Q99.4782-0.150495 99.4782-7.40477Q99.4782-14.6567 96.7688-21.0342Q94.0595-27.4116 89.2368-32.1914Q84.4142-36.9713 78.0789-39.6787Q71.7435-42.3862 64.4074-42.3862Q57.1569-42.3862 50.8222-39.6787Q44.4876-36.9713 39.7071-32.1914Q34.9265-27.4116 32.2171-21.0342Q29.5078-14.6567 29.5078-7.40477Q29.5078-0.150495 32.2171 6.22693Q34.9265 12.6044 39.7071 17.3823Q44.4876 22.1603 50.8222 24.8704Q57.1569 27.5804 64.4074 27.5804ZM52.9036 12.15Q52.3368 12.4896 51.832 12.1742Q51.3271 11.8589 51.5378 11.056L55.8663-2.54011L44.2859-10.8234Q43.6298-11.2561 43.8997-11.9524Q44.1697-12.6487 44.9598-12.6487L59.1942-12.6576L63.6224-26.2486Q63.8317-26.883 64.4904-26.883Q65.1491-26.883 65.3584-26.2486L69.7867-12.6576L84.021-12.6487Q84.8111-12.6487 84.9139-11.9096Q85.0167-11.1705 84.6949-10.9075L73.1145-2.54011L77.5286 11.056Q77.7394 11.8589 77.1924 12.1742Q76.6454 12.4896 75.993 12.15L64.4036 3.70073ZM33.6858-32.0836Q37.7515-37.2662 43.4695-40.8799Q49.1876-44.4937 55.9034-45.9822L32.5024-98.0623L16.3699-72.8104Q16.0788-72.3777 16.084-71.8244Q16.0892-71.2711 16.2985-70.9263ZM48.7919-72.0879L80.2783-72.0879L91.5167-97.3514L37.4693-97.3514ZM73.1668-45.9822Q79.8826-44.4095 85.5158-40.7951Q91.1489-37.1806 95.3002-31.998L112.772-70.9263Q112.982-71.2711 112.987-71.8244Q112.991-72.3777 112.7-72.8104L96.5678-98.0623Z"/>
  </g>
  <g id="Black-M" transform="matrix(1 0 0 1 2869.42 1126)">
   <path d="M63.9802 24.864Q71.3307 24.864 77.7542 22.1159Q84.1776 19.3678 89.0555 14.4871Q93.9334 9.6063 96.6815 3.18297Q99.4296-3.24036 99.4296-10.5857Q99.4296-17.9365 96.6815-24.3598Q93.9334-30.7831 89.0555-35.6611Q84.1776-40.5392 77.7542-43.29Q71.3307-46.0408 63.9802-46.0408Q56.6294-46.0408 50.2059-43.29Q43.7824-40.5392 38.9044-35.6611Q34.0264-30.7831 31.2783-24.3598Q28.5302-17.9365 28.5302-10.5857Q28.5302-3.24036 31.2783 3.18297Q34.0264 9.6063 38.9044 14.4871Q43.7824 19.3678 50.2059 22.1159Q56.6294 24.864 63.9802 24.864ZM54.448 7.61096Q52.543 8.97 50.9221 7.94682Q49.3012 6.92363 50.1547 4.48364L53.8782-6.61133L44.3353-13.5426Q42.7216-14.7191 43.039-16.7065Q43.3565-18.694 45.9271-18.6369L57.7544-18.5118L61.2898-29.7835Q62.0291-32.1099 63.9541-32.1099Q65.8791-32.1099 66.6184-29.7835L70.2109-18.5118L82.0382-18.6369Q84.6659-18.694 84.9241-16.6781Q85.1823-14.6623 83.63-13.5423L74.0871-6.66842L77.7533 4.48364Q78.6067 7.09492 77.0145 8.03246Q75.4223 8.97 73.5175 7.61096L63.9857 0.617691ZM27.9133-33.7946Q31.9912-40.126 38.0261-44.7573Q44.0609-49.3885 51.3994-51.6494L28.9128-92.2427L14.5812-70.9662Q12.4093-67.7913 12.4609-64.5801Q12.5125-61.3689 14.8505-57.2176ZM52.2991-65.7539L75.6604-65.7539L91.5384-94.3656L36.4214-94.3656ZM76.5602-51.6494Q83.8986-49.3888 89.9338-44.7575Q95.9689-40.1263 100.046-33.7949L113.109-57.2176Q115.447-61.3689 115.499-64.5801Q115.55-67.7913 113.378-70.9662L99.0467-92.2427Z"/>
  </g>
  <g id="Heavy-M" transform="matrix(1 0 0 1 2573.9 1126)">
   <path d="M62.7819 23.6781Q69.9214 23.6781 76.1567 21.0114Q82.392 18.3448 87.1243 13.6054Q91.8566 8.86599 94.5233 2.62958Q97.1899-3.60683 97.1899-10.7277Q97.1899-17.865 94.5233-24.1014Q91.8566-30.3378 87.1243-35.069Q82.392-39.8001 76.1567-42.475Q69.9214-45.1498 62.7819-45.1498Q55.6446-45.1498 49.4093-42.475Q43.1741-39.8001 38.4429-35.069Q33.7117-30.3378 31.0451-24.1014Q28.3784-17.865 28.3784-10.7277Q28.3784-3.60683 31.0451 2.62958Q33.7117 8.86599 38.4429 13.6054Q43.1741 18.3448 49.4093 21.0114Q55.6446 23.6781 62.7819 23.6781ZM53.4089 6.94552Q51.6282 8.22835 50.1281 7.2522Q48.628 6.27606 49.4097 4.03034L53.0851-6.91898L43.677-13.729Q42.1285-14.8504 42.4531-16.6917Q42.7776-18.533 45.1598-18.4894L56.7984-18.3693L60.296-29.4659Q60.9904-31.6199 62.7706-31.6199Q64.5507-31.6199 65.2451-29.4659L68.7863-18.3693L80.4249-18.4894Q82.8508-18.533 83.1189-16.6687Q83.3871-14.8044 81.9077-13.7312L72.4996-6.9626L76.1337 4.03034Q76.9154 6.40692 75.436 7.31764Q73.9566 8.22835 72.1736 6.94552L62.7983 0.0709429ZM28.2148-33.936Q32.1779-39.8512 37.9254-44.1806Q43.6728-48.51 50.6245-50.6267L28.2277-91.019L14.2373-70.1467Q12.4337-67.4985 12.4609-64.8005Q12.4882-62.1025 14.4039-58.6986ZM51.2761-65.3285L74.2944-65.3285L89.9399-93.4101L35.6284-93.4101ZM74.9461-50.6267Q81.8978-48.5077 87.643-44.1783Q93.3881-39.8489 97.3535-33.9337L111.167-58.6986Q113.082-62.1025 113.11-64.8005Q113.137-67.4985 111.333-70.1467L97.3429-91.019Z"/>
  </g>
  <g id="Bold-M" transform="matrix(1 0 0 1 2278.53 1126)">
   <path d="M61.4414 22.3515Q68.345 22.3515 74.3697 19.7759Q80.3945 17.2003 84.964 12.6191Q89.5335 8.03785 92.109 2.01054Q94.6845-4.01677 94.6845-10.8865Q94.6845-17.785 92.109-23.8123Q89.5335-29.8396 84.964-34.4065Q80.3945-38.9734 74.3697-41.5633Q68.345-44.1531 61.4414-44.1531Q54.543-44.1531 48.5183-41.5633Q42.4935-38.9734 37.9266-34.4065Q33.3597-29.8396 30.7841-23.8123Q28.2086-17.785 28.2086-10.8865Q28.2086-4.01677 30.7841 2.01054Q33.3597 8.03785 37.9266 12.6191Q42.4935 17.2003 48.5183 19.7759Q54.543 22.3515 61.4414 22.3515ZM52.2465 6.20112Q50.6048 7.3987 49.2399 6.47518Q47.875 5.55165 48.5763 3.52326L52.1979-7.26314L42.9405-13.9375Q41.4652-14.9972 41.7976-16.6751Q42.13-18.3529 44.3014-18.3243L55.729-18.21L59.1843-29.1106Q59.8285-31.0717 61.4466-31.0717Q63.0647-31.0717 63.7089-29.1106L67.1927-18.21L78.6203-18.3243Q80.8202-18.3529 81.0996-16.6582Q81.3789-14.9635 79.9812-13.9425L70.7238-7.29169L74.322 3.52326Q75.0234 5.6373 73.6702 6.518Q72.317 7.3987 70.6702 6.20112L61.4701-0.540674ZM28.5521-34.0943Q32.3868-39.5437 37.8127-43.5355Q43.2386-47.5272 49.7576-49.4826L27.4613-89.6501L13.8527-69.23Q12.461-67.171 12.4609-65.0471Q12.4609-62.9232 13.9044-60.3554ZM50.1318-64.8527L72.7664-64.8527L88.1518-92.3413L34.7413-92.3413ZM73.1406-49.4826Q79.6596-47.5222 85.0804-43.5303Q90.5011-39.5385 94.3411-34.0891L108.994-60.3554Q110.437-62.9232 110.437-65.0471Q110.437-67.171 109.046-69.23L95.437-89.6501Z"/>
  </g>
  <g id="Semibold-M" transform="matrix(1 0 0 1 1982.74 1126)">
   <path d="M60.5173 21.4369Q67.2581 21.4369 73.1378 18.9241Q79.0174 16.4113 83.4747 11.9391Q87.9319 7.46694 90.4446 1.58378Q92.9573-4.29938 92.9573-10.996Q92.9573-17.7298 90.4446-23.613Q87.9319-29.4962 83.4747-33.9498Q79.0174-38.4035 73.1378-40.9347Q67.2581-43.466 60.5173-43.466Q53.7835-43.466 47.904-40.9347Q42.0244-38.4035 37.5707-33.9498Q33.117-29.4962 30.6043-23.613Q28.0915-17.7298 28.0915-10.996Q28.0915-4.29938 30.6043 1.58378Q33.117 7.46694 37.5707 11.9391Q42.0244 16.4113 47.904 18.9241Q53.7835 21.4369 60.5173 21.4369ZM51.4451 5.68794Q49.8993 6.82675 48.6276 5.9395Q47.3558 5.05225 48.0018 3.17368L51.5863-7.5004L42.4328-14.0812Q41.0078-15.0985 41.3457-16.6636Q41.6836-18.2287 43.7097-18.2105L54.9918-18.1001L58.4179-28.8657Q59.0275-30.6938 60.5338-30.6938Q62.0402-30.6938 62.6498-28.8657L66.094-18.1001L77.3762-18.2105Q79.4204-18.2287 79.7074-16.6509Q79.9945-15.0732 78.653-14.0882L69.4996-7.51855L73.073 3.17368Q73.719 5.10672 72.4528 5.96674Q71.1866 6.82675 69.6337 5.68794L60.5544-0.962319ZM28.7846-34.2033Q32.5308-39.3317 37.7351-43.0907Q42.9393-46.8497 49.16-48.6938L26.9329-88.7063L13.5875-68.598Q12.4798-66.9452 12.4609-65.2171Q12.4421-63.489 13.5601-61.4975ZM49.343-64.5246L71.7129-64.5246L86.9191-91.6045L34.1298-91.6045ZM71.8959-48.6938Q78.1166-46.8427 83.3137-43.0836Q88.5109-39.3245 92.2643-34.1962L107.496-61.4975Q108.614-63.489 108.595-65.2171Q108.576-66.9452 107.468-68.598L94.123-88.7063Z"/>
  </g>
  <g id="Medium-M" transform="matrix(1 0 0 1 1686.73 1126)">
   <path d="M59.8166 20.7434Q66.4341 20.7434 72.2037 18.2783Q77.9733 15.8131 82.3454 11.4236Q86.7175 7.03405 89.1826 1.26019Q91.6477-4.51367 91.6477-11.079Q91.6477-17.688 89.1826-23.4619Q86.7175-29.2358 82.3454-33.6035Q77.9733-37.9713 72.2037-40.4581Q66.4341-42.945 59.8166-42.945Q53.2077-42.945 47.4382-40.4581Q41.6686-37.9713 37.3008-33.6035Q32.933-29.2358 30.4679-23.4619Q28.0028-17.688 28.0028-11.079Q28.0028-4.51367 30.4679 1.26019Q32.933 7.03405 37.3008 11.4236Q41.6686 15.8131 47.4382 18.2783Q53.2077 20.7434 59.8166 20.7434ZM50.8374 5.29883Q49.3644 6.39307 48.1633 5.53333Q46.9622 4.67359 47.5662 2.90861L51.1225-7.6803L42.0479-14.1902Q40.6611-15.1753 41.0031-16.6549Q41.3451-18.1345 43.261-18.1243L54.4328-18.0168L57.8368-28.6799Q58.4201-30.4073 59.8418-30.4073Q61.2634-30.4073 61.8468-28.6799L65.261-18.0168L76.4328-18.1243Q78.359-18.1345 78.6519-16.6454Q78.9447-15.1563 77.6459-14.1987L68.5713-7.69057L72.126 2.90861Q72.73 4.70442 71.5298 5.54875Q70.3296 6.39307 68.8478 5.29883L59.8601-1.28203ZM28.9609-34.286Q32.64-39.171 37.6762-42.7535Q42.7124-46.336 48.7069-48.0958L26.5322-87.9908L13.3865-68.1188Q12.494-66.774 12.4609-65.346Q12.4279-63.918 13.299-62.3636ZM48.7448-64.2758L70.9142-64.2758L85.9844-91.0458L33.666-91.0458ZM70.9521-48.0958Q76.9466-46.3275 81.9742-42.7449Q87.0018-39.1623 90.6896-34.2774L106.36-62.3636Q107.231-63.918 107.198-65.346Q107.165-66.774 106.273-68.1188L93.1267-87.9908Z"/>
  </g>
  <g id="Regular-M" transform="matrix(1 0 0 1 1390.93 1126)">
   <path d="M58.9026 19.8389Q65.3592 19.8389 70.9853 17.4359Q76.6113 15.0328 80.8724 10.7511Q85.1335 6.46941 87.5365 0.838116Q89.9395-4.79318 89.9395-11.1873Q89.9395-17.6335 87.5365-23.2648Q85.1335-28.8961 80.8724-33.1519Q76.6113-37.4076 70.9853-39.8365Q65.3592-42.2654 58.9026-42.2654Q52.4566-42.2654 46.8306-39.8365Q41.2046-37.4076 36.9488-33.1519Q32.6929-28.8961 30.29-23.2648Q27.887-17.6335 27.887-11.1873Q27.887-4.79318 30.29 0.838116Q32.6929 6.46941 36.9488 10.7511Q41.2046 15.0328 46.8306 17.4359Q52.4566 19.8389 58.9026 19.8389ZM50.0449 4.79128Q48.6666 5.82741 47.5577 5.00354Q46.4487 4.17968 46.998 2.56288L50.5176-7.91495L41.5458-14.3323Q40.2087-15.2754 40.5562-16.6436Q40.9036-18.0117 42.6757-18.0117L53.7037-17.9082L57.0788-28.4377Q57.6279-30.0336 58.9391-30.0336Q60.2502-30.0336 60.7994-28.4377L64.1744-17.9082L75.2024-18.0117Q76.9745-18.0117 77.275-16.6382Q77.5755-15.2648 76.3324-14.3428L67.3605-7.91495L70.8908 2.56288Q71.4401 4.17968 70.3259 5.00354Q69.2116 5.82741 67.8228 4.79128L58.9544-1.69904ZM29.1908-34.3939Q32.7824-38.9613 37.5994-42.3137Q42.4164-45.666 48.1159-47.3157L26.0097-87.0574L13.1242-67.4937Q12.5126-66.5507 12.4609-65.5141Q12.4093-64.4776 12.9584-63.4932ZM47.9646-63.9514L69.8723-63.9514L84.7652-90.317L33.0612-90.317ZM69.721-47.3157Q75.4205-45.6555 80.227-42.3031Q85.0334-38.9507 88.6356-34.3833L104.879-63.4932Q105.428-64.4776 105.376-65.5141Q105.324-66.5507 104.713-67.4937L91.8272-87.0574Z"/>
  </g>
  <g id="Light-M" transform="matrix(1 0 0 1 1096.98 1126)">
   <path d="M56.1134 17.8541Q62.3306 17.8541 67.7343 15.5451Q73.138 13.236 77.2365 9.134Q81.335 5.03199 83.6438-0.385417Q85.9526-5.80282 85.9526-11.9572Q85.9526-18.1469 83.6438-23.5644Q81.335-28.9818 77.2365-33.0663Q73.138-37.1509 67.7343-39.4772Q62.3306-41.8034 56.1134-41.8034Q49.9241-41.8034 44.5207-39.4772Q39.1172-37.1509 35.0324-33.0663Q30.9476-28.9818 28.6388-23.5644Q26.33-18.1469 26.33-11.9572Q26.33-5.80282 28.6388-0.385417Q30.9476 5.03199 35.0324 9.134Q39.1172 13.236 44.5207 15.5451Q49.9241 17.8541 56.1134 17.8541ZM47.2387 3.76468Q46.1514 4.56133 45.2648 3.917Q44.3782 3.27266 44.8079 1.96405L48.2761-8.53103L39.3042-14.9484Q38.224-15.7032 38.5285-16.8146Q38.8331-17.9261 40.2459-17.9261L51.2738-17.8568L54.6662-28.3862Q55.0954-29.64 56.1585-29.64Q57.2216-29.64 57.6508-28.3862L61.0432-17.8568L72.0711-17.9261Q73.4839-17.9261 73.716-16.8007Q73.948-15.6753 73.0128-14.9758L64.0409-8.53103L67.537 1.96405Q67.9667 3.27266 67.0664 3.917Q66.166 4.56133 65.0509 3.76468L56.1483-2.7429ZM28.2326-33.8977Q31.6874-38.2941 36.3845-41.4752Q41.0816-44.6564 46.6273-46.1522L25.7529-86.082L12.9874-66.5183Q12.4954-65.7635 12.4609-64.9153Q12.4265-64.0671 12.8558-63.3049ZM44.8161-63.8999L67.494-63.8999L80.4705-88.1612L31.8121-88.1612ZM65.6827-46.1522Q71.2284-44.6289 75.8979-41.4476Q80.5673-38.2662 84.05-33.8699L99.4543-63.3049Q99.884-64.0671 99.8493-64.9153Q99.8147-65.7635 99.3226-66.5183L86.5571-86.082Z"/>
  </g>
  <g id="Thin-M" transform="matrix(1 0 0 1 803.922 1126)">
   <path d="M52.4245 15.2291Q58.3249 15.2291 63.4345 13.0444Q68.5441 10.8596 72.4276 6.99525Q76.3111 3.13088 78.4954-2.00364Q80.6797-7.13816 80.6797-12.9754Q80.6797-18.826 78.4954-23.9605Q76.3111-29.0951 72.4276-32.9532Q68.5441-36.8114 63.4345-39.0019Q58.3249-41.1924 52.4245-41.1924Q46.5748-41.1924 41.4656-39.0019Q36.3564-36.8114 32.4979-32.9532Q28.6393-29.0951 26.455-23.9605Q24.2707-18.826 24.2707-12.9754Q24.2707-7.13816 26.455-2.00364Q28.6393 3.13088 32.4979 6.99525Q36.3564 10.8596 41.4656 13.0444Q46.5748 15.2291 52.4245 15.2291ZM43.5274 2.40691Q42.8249 2.88683 42.2324 2.47995Q41.6399 2.07307 41.9114 1.17204L45.3115-9.34584L36.3397-15.7632Q35.5989-16.2689 35.8468-17.0408Q36.0948-17.8127 37.0323-17.8127L48.0602-17.7887L51.4754-28.3182Q51.7461-29.1195 52.481-29.1195Q53.216-29.1195 53.4866-28.3182L56.9018-17.7887L67.9297-17.8127Q68.8673-17.8127 69.0088-17.0155Q69.1504-16.2182 68.6224-15.8131L59.6505-9.34584L63.1013 1.17204Q63.3728 2.07307 62.7554 2.47995Q62.138 2.88683 61.3848 2.40691L52.437-4.12348ZM26.9653-33.2415Q30.2391-37.4116 34.7777-40.3663Q39.3162-43.321 44.6585-44.6135L25.4134-84.7919L12.8064-65.2282Q12.4725-64.7225 12.4609-64.1233Q12.4493-63.5241 12.72-63.0558ZM40.6519-63.8319L64.3484-63.8319L74.7904-85.3099L30.16-85.3099ZM60.3418-44.6135Q65.684-43.2712 70.1723-40.316Q74.6606-37.3609 77.9851-33.1908L92.2802-63.0558Q92.5518-63.5241 92.5397-64.1233Q92.5277-64.7225 92.1939-65.2282L79.5869-84.7919Z"/>
  </g>
  <g id="Ultralight-M" transform="matrix(1 0 0 1 509.083 1126)">
   <path d="M50.5351 13.8845Q56.2733 13.8845 61.2322 11.7635Q66.1912 9.64245 69.9646 5.8998Q73.7379 2.15714 75.8584-2.83248Q77.979-7.82211 77.979-13.497Q77.979-19.1738 75.8584-24.1635Q73.7379-29.1531 69.9646-32.8953Q66.1912-36.6374 61.2322-38.7585Q56.2733-40.8795 50.5351-40.8795Q44.8592-40.8795 39.9008-38.7585Q34.9424-36.6374 31.1997-32.8953Q27.457-29.1531 25.3365-24.1635Q23.2159-19.1738 23.2159-13.497Q23.2159-7.82211 25.3365-2.83248Q27.457 2.15714 31.1997 5.8998Q34.9424 9.64245 39.9008 11.7635Q44.8592 13.8845 50.5351 13.8845ZM41.6265 1.71146Q41.121 2.02916 40.6792 1.7439Q40.2373 1.45864 40.4278 0.766385L43.7931-9.76319L34.8212-16.1806Q34.2544-16.5587 34.4733-17.1567Q34.6922-17.7547 35.3863-17.7547L46.4142-17.7538L49.841-28.2833Q50.0305-28.8529 50.5974-28.8529Q51.1643-28.8529 51.3538-28.2833L54.7806-17.7538L65.8085-17.7547Q66.5026-17.7547 66.5979-17.1255Q66.6931-16.4963 66.3736-16.2419L57.4017-9.76319L60.8294 0.766385Q61.0199 1.45864 60.5474 1.7439Q60.0748 2.02916 59.507 1.71146L50.536-4.83061ZM26.3162-32.9053Q29.4973-36.9596 33.9547-39.7983Q38.412-42.6371 43.6501-43.8253L25.2395-84.1311L12.7137-64.5674Q12.4609-64.1893 12.4609-63.7177Q12.461-63.246 12.6505-62.9283ZM38.519-63.797L62.7372-63.797L71.881-83.8495L29.3138-83.8495ZM57.6061-43.8253Q62.8442-42.5757 67.2397-39.7364Q71.6352-36.8972 74.8787-32.843L88.6057-62.9283Q88.7963-63.246 88.7958-63.7177Q88.7954-64.1893 88.5426-64.5674L76.0167-84.1311Z"/>
  </g>
  <g id="Black-S" transform="matrix(1 0 0 1 2883.06 696)">
   <path d="M50.3418 12.1094Q56.1523 12.1094 61.2305 9.93652Q66.3086 7.76367 70.166 3.90625Q74.0234 0.0488281 76.1963-5.0293Q78.3691-10.1074 78.3691-15.918Q78.3691-21.7285 76.1963-26.8066Q74.0234-31.8848 70.166-35.7422Q66.3086-39.5996 61.2305-41.7725Q56.1523-43.9453 50.3418-43.9453Q44.5312-43.9453 39.4531-41.7725Q34.375-39.5996 30.5176-35.7422Q26.6602-31.8848 24.4873-26.8066Q22.3145-21.7285 22.3145-15.918Q22.3145-10.1074 24.4873-5.0293Q26.6602 0.0488281 30.5176 3.90625Q34.375 7.76367 39.4531 9.93652Q44.5312 12.1094 50.3418 12.1094ZM42.8223-1.51367Q41.3086-0.439453 40.0146-1.24512Q38.7207-2.05078 39.4043-4.00391L42.334-12.7441L34.8145-18.2129Q33.5449-19.1406 33.7891-20.7275Q34.0332-22.3145 36.084-22.2656L45.4102-22.168L48.1934-31.0547Q48.7793-32.9102 50.3174-32.9102Q51.8555-32.9102 52.4414-31.0547L55.2734-22.168L64.5996-22.2656Q66.6992-22.3145 66.8945-20.7031Q67.0898-19.0918 65.8691-18.2129L58.3496-12.793L61.2305-4.00391Q61.9141-1.9043 60.6445-1.17188Q59.375-0.439453 57.8613-1.51367L50.3418-7.03125ZM21.7285-34.0332Q24.9512-39.1113 29.7607-42.8223Q34.5703-46.5332 40.4297-48.3398L22.8516-80.2246L11.5234-63.4277Q9.7168-60.791 9.76562-58.1299Q9.81445-55.4688 11.7676-52.002ZM41.1133-59.2773L59.5703-59.2773L71.9727-81.7383L28.7109-81.7383ZM60.2539-48.3398Q66.1133-46.5332 70.9229-42.8223Q75.7324-39.1113 78.9551-34.0332L88.916-52.002Q90.8691-55.4688 90.918-58.1299Q90.9668-60.791 89.1602-63.4277L77.832-80.2246Z"/>
  </g>
  <g id="Heavy-S" transform="matrix(1 0 0 1 2587.02 696)">
   <path d="M49.6734 11.3488Q55.3341 11.3488 60.2797 9.23353Q65.2253 7.1183 68.979 3.35884Q72.7327-0.400626 74.8479-5.34622Q76.9632-10.2918 76.9632-15.941Q76.9632-21.6017 74.8479-26.5473Q72.7327-31.4929 68.979-35.2466Q65.2253-39.0003 60.2797-41.1213Q55.3341-43.2423 49.6734-43.2423Q44.0126-43.2423 39.0671-41.1213Q34.1215-39.0003 30.3678-35.2466Q26.6141-31.4929 24.4988-26.5473Q22.3836-21.6017 22.3836-15.941Q22.3836-10.2918 24.4988-5.34622Q26.6141-0.400626 30.3678 3.35884Q34.1215 7.1183 39.0671 9.23353Q44.0126 11.3488 49.6734 11.3488ZM42.2921-1.9516Q40.8476-0.911956 39.6286-1.70033Q38.4095-2.48871 39.047-4.31507L41.9422-12.9285L34.5379-18.2936Q33.2914-19.1982 33.547-20.693Q33.8027-22.1877 35.7383-22.1504L44.9031-22.0527L47.6517-30.7896Q48.2146-32.5414 49.6605-32.5414Q51.1064-32.5414 51.6693-30.7896L54.4552-22.0527L63.62-22.1504Q65.5929-22.1877 65.8055-20.6743Q66.0181-19.1609 64.8204-18.2936L57.4161-12.9658L60.2739-4.31507Q60.9114-2.3768 59.711-1.64438Q58.5107-0.911956 57.0661-1.9516L49.6849-7.36546ZM22.1088-34.2176Q25.2508-38.9615 29.8299-42.4362Q34.409-45.9109 39.9572-47.6138L22.2984-79.3027L11.2469-62.8515Q9.73985-60.6412 9.76562-58.3949Q9.7914-56.1487 11.3988-53.2927ZM40.6408-58.9201L58.706-58.9201L71.1544-81.1966L28.1923-81.1966ZM59.3896-47.6138Q64.9378-45.9109 69.5169-42.4362Q74.0959-38.9615 77.2379-34.2176L87.948-53.2927Q89.5554-56.1487 89.5811-58.3949Q89.6069-60.6412 88.0999-62.8515L77.0484-79.3027Z"/>
  </g>
  <g id="Bold-S" transform="matrix(1 0 0 1 2291.05 696)">
   <path d="M48.9258 10.498Q54.4189 10.498 59.2163 8.44727Q64.0137 6.39648 67.6514 2.74658Q71.2891-0.90332 73.3398-5.70068Q75.3906-10.498 75.3906-15.9668Q75.3906-21.46 73.3398-26.2573Q71.2891-31.0547 67.6514-34.6924Q64.0137-38.3301 59.2163-40.3931Q54.4189-42.4561 48.9258-42.4561Q43.4326-42.4561 38.6353-40.3931Q33.8379-38.3301 30.2002-34.6924Q26.5625-31.0547 24.5117-26.2573Q22.4609-21.46 22.4609-15.9668Q22.4609-10.498 24.5117-5.70068Q26.5625-0.90332 30.2002 2.74658Q33.8379 6.39648 38.6353 8.44727Q43.4326 10.498 48.9258 10.498ZM41.6992-2.44141Q40.332-1.44043 39.1968-2.20947Q38.0615-2.97852 38.6475-4.66309L41.5039-13.1348L34.2285-18.3838Q33.0078-19.2627 33.2764-20.6543Q33.5449-22.0459 35.3516-22.0215L44.3359-21.9238L47.0459-30.4932Q47.583-32.1289 48.9258-32.1289Q50.2686-32.1289 50.8057-30.4932L53.54-21.9238L62.5244-22.0215Q64.3555-22.0459 64.5874-20.6421Q64.8193-19.2383 63.6475-18.3838L56.3721-13.1592L59.2041-4.66309Q59.79-2.90527 58.667-2.17285Q57.5439-1.44043 56.1768-2.44141L48.9502-7.73926ZM22.5342-34.4238Q25.5859-38.7939 29.9072-42.0044Q34.2285-45.2148 39.4287-46.8018L21.6797-78.2715L10.9375-62.207Q9.76562-60.4736 9.76562-58.6914Q9.76562-56.9092 10.9863-54.7363ZM40.1123-58.5205L57.7393-58.5205L70.2393-80.5908L27.6123-80.5908ZM58.4229-46.8018Q63.623-45.2148 67.9443-42.0044Q72.2656-38.7939 75.3174-34.4238L86.8652-54.7363Q88.0859-56.9092 88.0859-58.6914Q88.0859-60.4736 86.9141-62.207L76.1719-78.2715Z"/>
  </g>
  <g id="Semibold-S" transform="matrix(1 0 0 1 1994.86 696)">
   <path d="M48.4104 9.91152Q53.788 9.91152 58.4832 7.90518Q63.1783 5.89883 66.736 2.32446Q70.2938-1.2499 72.3001-5.94507Q74.3064-10.6402 74.3064-15.9846Q74.3064-21.3622 72.3001-26.0574Q70.2938-30.7525 66.736-34.3103Q63.1783-37.868 58.4832-39.891Q53.788-41.914 48.4104-41.914Q43.0327-41.914 38.3375-39.891Q33.6424-37.868 30.0847-34.3103Q26.527-30.7525 24.5206-26.0574Q22.5143-21.3622 22.5143-15.9846Q22.5143-10.6402 24.5206-5.94507Q26.527-1.2499 30.0847 2.32446Q33.6424 5.89883 38.3375 7.90518Q43.0327 9.91152 48.4104 9.91152ZM41.2904-2.7791Q39.9766-1.80479 38.8991-2.5605Q37.8216-3.31621 38.372-4.90303L41.2018-13.277L34.0152-18.446Q32.8123-19.3071 33.0897-20.6276Q33.3672-21.9481 35.085-21.9326L43.9449-21.835L46.6282-30.2888Q47.1476-31.8445 48.4192-31.8445Q49.6909-31.8445 50.2103-30.2888L52.9091-21.835L61.769-21.9326Q63.5023-21.9481 63.7476-20.6199Q63.9929-19.2916 62.8388-18.446L55.6522-13.2925L58.4665-4.90303Q59.0169-3.26963 57.9472-2.53721Q56.8774-1.80479 55.5636-2.7791L48.4437-7.99697ZM22.8274-34.566Q25.817-38.6784 29.9605-41.7067Q34.1041-44.735 39.0644-46.2419L21.2531-77.5605L10.7242-61.7627Q9.7834-60.3581 9.76562-58.8958Q9.74785-57.4335 10.702-55.7316ZM39.7479-58.245L57.0728-58.245L69.6083-80.1731L27.2124-80.1731ZM57.7563-46.2419Q62.7166-44.735 66.8602-41.7067Q71.0037-38.6784 73.9933-34.566L86.1188-55.7316Q87.0729-57.4335 87.0551-58.8958Q87.0373-60.3581 86.0965-61.7627L75.5676-77.5605Z"/>
  </g>
  <g id="Medium-S" transform="matrix(1 0 0 1 1698.54 696)">
   <path d="M48.0195 9.4668Q53.3096 9.4668 57.9272 7.49414Q62.5449 5.52148 66.042 2.00439Q69.5391-1.5127 71.5117-6.13037Q73.4844-10.748 73.4844-15.998Q73.4844-21.2881 71.5117-25.9058Q69.5391-30.5234 66.042-34.0205Q62.5449-37.5176 57.9272-39.5103Q53.3096-41.5029 48.0195-41.5029Q42.7295-41.5029 38.1118-39.5103Q33.4941-37.5176 29.9971-34.0205Q26.5-30.5234 24.5273-25.9058Q22.5547-21.2881 22.5547-15.998Q22.5547-10.748 24.5273-6.13037Q26.5-1.5127 29.9971 2.00439Q33.4941 5.52148 38.1118 7.49414Q42.7295 9.4668 48.0195 9.4668ZM40.9805-3.03516Q39.707-2.08105 38.6733-2.82666Q37.6396-3.57227 38.1631-5.08496L40.9727-13.3848L33.8535-18.4932Q32.6641-19.3408 32.9482-20.6074Q33.2324-21.874 34.8828-21.8652L43.6484-21.7676L46.3115-30.1338Q46.8174-31.6289 48.0352-31.6289Q49.2529-31.6289 49.7588-30.1338L52.4307-21.7676L61.1963-21.8652Q62.8555-21.874 63.1108-20.603Q63.3662-19.332 62.2256-18.4932L55.1064-13.3936L57.9072-5.08496Q58.4307-3.5459 57.4014-2.81348Q56.3721-2.08105 55.0986-3.03516L48.0596-8.19238ZM23.0498-34.6738Q25.9922-38.5908 30.001-41.481Q34.0098-44.3711 38.7881-45.8174L20.9297-77.0215L10.5625-61.4258Q9.79688-60.2705 9.76562-59.0508Q9.73438-57.8311 10.4863-56.4863ZM39.4717-58.0361L56.5674-58.0361L69.1299-79.8564L26.9092-79.8564ZM57.251-45.8174Q62.0293-44.3711 66.0381-41.481Q70.0469-38.5908 72.9893-34.6738L85.5527-56.4863Q86.3047-57.8311 86.2734-59.0508Q86.2422-60.2705 85.4766-61.4258L75.1094-77.0215Z"/>
  </g>
  <g id="Regular-S" transform="matrix(1 0 0 1 1402.33 696)">
   <path d="M47.5098 8.88672Q52.6855 8.88672 57.2021 6.95801Q61.7188 5.0293 65.1367 1.58691Q68.5547-1.85547 70.4834-6.37207Q72.4121-10.8887 72.4121-16.0156Q72.4121-21.1914 70.4834-25.708Q68.5547-30.2246 65.1367-33.6426Q61.7188-37.0605 57.2021-39.0137Q52.6855-40.9668 47.5098-40.9668Q42.334-40.9668 37.8174-39.0137Q33.3008-37.0605 29.8828-33.6426Q26.4648-30.2246 24.5361-25.708Q22.6074-21.1914 22.6074-16.0156Q22.6074-10.8887 24.5361-6.37207Q26.4648-1.85547 29.8828 1.58691Q33.3008 5.0293 37.8174 6.95801Q42.334 8.88672 47.5098 8.88672ZM40.5762-3.36914Q39.3555-2.44141 38.3789-3.17383Q37.4023-3.90625 37.8906-5.32227L40.6738-13.5254L33.6426-18.5547Q32.4707-19.3848 32.7637-20.5811Q33.0566-21.7773 34.6191-21.7773L43.2617-21.6797L45.8984-29.9316Q46.3867-31.3477 47.5342-31.3477Q48.6816-31.3477 49.1699-29.9316L51.8066-21.6797L60.4492-21.7773Q62.0117-21.7773 62.2803-20.5811Q62.5488-19.3848 61.4258-18.5547L54.3945-13.5254L57.1777-5.32227Q57.666-3.90625 56.6895-3.17383Q55.7129-2.44141 54.4922-3.36914L47.5586-8.44727ZM23.3398-34.8145Q26.2207-38.4766 30.0537-41.1865Q33.8867-43.8965 38.4277-45.2637L20.5078-76.3184L10.3516-60.9863Q9.81445-60.1562 9.76562-59.2529Q9.7168-58.3496 10.2051-57.4707ZM39.1113-57.7637L55.9082-57.7637L68.5059-79.4434L26.5137-79.4434ZM56.5918-45.2637Q61.1328-43.8965 64.9658-41.1865Q68.7988-38.4766 71.6797-34.8145L84.8145-57.4707Q85.3027-58.3496 85.2539-59.2529Q85.2051-60.1562 84.668-60.9863L74.5117-76.3184Z"/>
  </g>
  <g id="Light-S" transform="matrix(1 0 0 1 1108.07 696)">
   <path d="M45.0424 7.13094Q50.0064 7.13094 54.3262 5.28539Q58.6461 3.43984 61.9203 0.156403Q65.1944-3.12703 67.0399-7.45443Q68.8853-11.7818 68.8853-16.6967Q68.8853-21.6456 67.0399-25.973Q65.1944-30.3004 61.9203-33.5669Q58.6461-36.8334 54.3262-38.6958Q50.0064-40.5581 45.0424-40.5581Q40.0937-40.5581 35.774-38.6958Q31.4542-36.8334 28.1876-33.5669Q24.9209-30.3004 23.0755-25.973Q21.2301-21.6456 21.2301-16.6967Q21.2301-11.7818 23.0755-7.45443Q24.9209-3.12703 28.1876 0.156403Q31.4542 3.43984 35.774 5.28539Q40.0937 7.13094 45.0424 7.13094ZM38.0938-4.27729Q37.1305-3.5614 36.3506-4.135Q35.5708-4.70861 35.9533-5.852L38.6909-14.0704L31.6597-19.0997Q30.7149-19.7632 30.97-20.7324Q31.2251-21.7016 32.4697-21.7016L41.1123-21.6342L43.7642-29.8861Q44.1465-30.9995 45.0745-30.9995Q46.0025-30.9995 46.3847-29.8861L49.0367-21.6342L57.6792-21.7016Q58.9238-21.7016 59.1319-20.7247Q59.3399-19.7479 58.4892-19.1147L51.458-14.0704L54.2109-5.852Q54.5934-4.70861 53.8061-4.135Q53.0187-3.5614 52.0401-4.27729L45.0762-9.37068ZM22.4922-34.3755Q25.252-37.8863 28.979-40.4448Q32.7059-43.0033 37.1109-44.2345L20.2807-75.4555L10.2305-60.1234Q9.79919-59.4599 9.76562-58.7232Q9.73206-57.9865 10.1143-57.3041ZM36.3261-57.7181L53.8043-57.7181L64.7067-77.5363L25.4087-77.5363ZM53.0195-44.2345Q57.4244-42.9883 61.1362-40.4297Q64.8481-37.871 67.6231-34.3602L80.0161-57.3041Q80.3986-57.9865 80.3649-58.7232Q80.3312-59.4599 79.8999-60.1234L69.8497-75.4555Z"/>
  </g>
  <g id="Thin-S" transform="matrix(1 0 0 1 814.59 696)">
   <path d="M41.7792 4.80878Q46.4629 4.80878 50.5226 3.07322Q54.5824 1.33765 57.6663-1.73556Q60.7503-4.80878 62.4855-8.88593Q64.2208-12.9631 64.2208-17.5974Q64.2208-22.2463 62.4855-26.3235Q60.7503-30.4006 57.6663-33.4669Q54.5824-36.5331 50.5226-38.2753Q46.4629-40.0176 41.7792-40.0176Q37.1308-40.0176 33.0714-38.2753Q29.012-36.5331 25.9455-33.4669Q22.8789-30.4006 21.1437-26.3235Q19.4084-22.2463 19.4084-17.5974Q19.4084-12.9631 21.1437-8.88593Q22.8789-4.80878 25.9455-1.73556Q29.012 1.33765 33.0714 3.07322Q37.1308 4.80878 41.7792 4.80878ZM34.8107-5.4784Q34.1878-5.04269 33.6681-5.40624Q33.1484-5.76979 33.391-6.55262L36.0684-14.7912L29.0372-19.8205Q28.3928-20.2637 28.5977-20.9325Q28.8027-21.6013 29.6269-21.6013L38.2694-21.574L40.9416-29.8259Q41.1836-30.539 41.8213-30.539Q42.459-30.539 42.701-29.8259L45.3731-21.574L54.0157-21.6013Q54.8399-21.6013 54.9679-20.9148Q55.0958-20.2282 54.6054-19.8553L47.5741-14.7912L50.2871-6.55262Q50.5296-5.76979 49.9925-5.40624Q49.4554-5.04269 48.797-5.4784L41.7931-10.592ZM21.3712-33.795Q23.9709-37.1056 27.5576-39.4639Q31.1443-41.8221 35.3693-42.8733L19.9804-74.3142L10.0704-58.9822Q9.77901-58.539 9.76562-58.0226Q9.75224-57.5061 9.99421-57.0838ZM32.6424-57.6579L51.0216-57.6579L59.6819-75.014L23.9472-75.014ZM48.2948-42.8733Q52.5198-41.7872 56.0713-39.4287Q59.6229-37.0702 62.258-33.7595L73.6698-57.0838Q73.9124-57.5061 73.8987-58.0226Q73.885-58.539 73.5936-58.9822L63.6837-74.3142Z"/>
  </g>
  <g id="Ultralight-S" transform="matrix(1 0 0 1 519.535 696)">
   <path d="M40.1077 3.61938Q44.648 3.61938 48.5744 1.94016Q52.5009 0.260925 55.4874-2.70462Q58.474-5.67017 60.1528-9.61914Q61.8317-13.5681 61.8317-18.0588Q61.8317-22.554 60.1528-26.503Q58.474-30.452 55.4874-33.4156Q52.5009-36.3792 48.5744-38.06Q44.648-39.7408 40.1077-39.7408Q35.6133-39.7408 31.6872-38.06Q27.7611-36.3792 24.7971-33.4156Q21.833-30.452 20.1542-26.503Q18.4753-22.554 18.4753-18.0588Q18.4753-13.5681 20.1542-9.61914Q21.833-5.67017 24.7971-2.70462Q27.7611 0.260925 31.6872 1.94016Q35.6133 3.61938 40.1077 3.61938ZM33.1291-6.0936Q32.6805-5.80139 32.2941-6.05736Q31.9077-6.31332 32.0786-6.91147L34.7252-15.1604L27.6939-20.1897Q27.2034-20.52 27.3827-21.035Q27.562-21.55 28.1708-21.55L36.8134-21.5431L39.4958-29.7951Q39.666-30.3032 40.155-30.3032Q40.6441-30.3032 40.8142-29.7951L43.4967-21.5431L52.1393-21.55Q52.7481-21.55 52.8351-21.0121Q52.9221-20.4742 52.6161-20.2347L45.5849-15.1604L48.2773-6.91147Q48.4482-6.31332 48.0392-6.05736Q47.6303-5.80139 47.1359-6.0936L40.1115-11.2175ZM20.797-33.4976Q23.3147-36.7058 26.8295-38.9614Q30.3444-41.217 34.4772-42.1761L19.8265-73.7297L9.9884-58.3977Q9.76868-58.0673 9.76562-57.6637Q9.76257-57.2601 9.93271-56.971ZM30.7556-57.6271L49.5964-57.6271L57.1083-73.7221L23.1987-73.7221ZM45.8748-42.1761Q50.0076-41.172 53.4771-38.916Q56.9466-36.66 59.51-33.4518L70.4193-56.971Q70.5902-57.2601 70.5868-57.6637Q70.5833-58.0673 70.3636-58.3977L60.5255-73.7297Z"/>
  </g>
 </g>
</svg>
