<?xml version="1.0" encoding="UTF-8"?>
<!--Generator: Apple Native CoreSVG 175.5-->
<!DOCTYPE svg
PUBLIC "-//W3C//DTD SVG 1.1//EN"
       "http://www.w3.org/Graphics/SVG/1.1/DTD/svg11.dtd">
<svg version="1.1" xmlns="http://www.w3.org/2000/svg" xmlns:xlink="http://www.w3.org/1999/xlink" width="3300" height="2200">
 <!--glyph: "uni101545.medium", point size: 100.0, font version: "18.0d9e1", template writer version: "84"-->
 <g id="Notes">
  <rect height="2200" id="artboard" style="fill:white;opacity:1" width="3300" x="0" y="0"/>
  <line style="fill:none;stroke:black;opacity:1;stroke-width:0.5;" x1="263" x2="3036" y1="292" y2="292"/>
  <text style="stroke:none;fill:black;font-family:sans-serif;font-size:13;font-weight:bold;" transform="matrix(1 0 0 1 263 322)">Weight/Scale Variations</text>
  <text style="stroke:none;fill:black;font-family:sans-serif;font-size:13;text-anchor:middle;" transform="matrix(1 0 0 1 559.711 322)">Ultralight</text>
  <text style="stroke:none;fill:black;font-family:sans-serif;font-size:13;text-anchor:middle;" transform="matrix(1 0 0 1 856.422 322)">Thin</text>
  <text style="stroke:none;fill:black;font-family:sans-serif;font-size:13;text-anchor:middle;" transform="matrix(1 0 0 1 1153.13 322)">Light</text>
  <text style="stroke:none;fill:black;font-family:sans-serif;font-size:13;text-anchor:middle;" transform="matrix(1 0 0 1 1449.84 322)">Regular</text>
  <text style="stroke:none;fill:black;font-family:sans-serif;font-size:13;text-anchor:middle;" transform="matrix(1 0 0 1 1746.56 322)">Medium</text>
  <text style="stroke:none;fill:black;font-family:sans-serif;font-size:13;text-anchor:middle;" transform="matrix(1 0 0 1 2043.27 322)">Semibold</text>
  <text style="stroke:none;fill:black;font-family:sans-serif;font-size:13;text-anchor:middle;" transform="matrix(1 0 0 1 2339.98 322)">Bold</text>
  <text style="stroke:none;fill:black;font-family:sans-serif;font-size:13;text-anchor:middle;" transform="matrix(1 0 0 1 2636.69 322)">Heavy</text>
  <text style="stroke:none;fill:black;font-family:sans-serif;font-size:13;text-anchor:middle;" transform="matrix(1 0 0 1 2933.4 322)">Black</text>
  <line style="fill:none;stroke:black;opacity:1;stroke-width:0.5;" x1="263" x2="3036" y1="1903" y2="1903"/>
  <g transform="matrix(1 0 0 1 263 1933)">
   <path d="M9.24805 0.830078Q10.8691 0.830078 12.2949 0.214844Q13.7207-0.400391 14.8096-1.49414Q15.8984-2.58789 16.5186-4.01367Q17.1387-5.43945 17.1387-7.05078Q17.1387-8.66211 16.5186-10.0879Q15.8984-11.5137 14.8047-12.6074Q13.7109-13.7012 12.2852-14.3164Q10.8594-14.9316 9.23828-14.9316Q7.62695-14.9316 6.20117-14.3164Q4.77539-13.7012 3.69141-12.6074Q2.60742-11.5137 1.9873-10.0879Q1.36719-8.66211 1.36719-7.05078Q1.36719-5.43945 1.9873-4.01367Q2.60742-2.58789 3.69629-1.49414Q4.78516-0.400391 6.21094 0.214844Q7.63672 0.830078 9.24805 0.830078ZM9.24805-0.654297Q7.91992-0.654297 6.7627-1.14746Q5.60547-1.64062 4.73145-2.51953Q3.85742-3.39844 3.36426-4.56055Q2.87109-5.72266 2.87109-7.05078Q2.87109-8.37891 3.35938-9.54102Q3.84766-10.7031 4.72168-11.582Q5.5957-12.4609 6.75293-12.9541Q7.91016-13.4473 9.23828-13.4473Q10.5762-13.4473 11.7383-12.9541Q12.9004-12.4609 13.7793-11.582Q14.6582-10.7031 15.1514-9.54102Q15.6445-8.37891 15.6445-7.05078Q15.6445-5.72266 15.1514-4.56055Q14.6582-3.39844 13.7793-2.51953Q12.9004-1.64062 11.7432-1.14746Q10.5859-0.654297 9.24805-0.654297ZM5.6543-7.05078Q5.6543-6.72852 5.85938-6.52832Q6.06445-6.32812 6.40625-6.32812L8.51562-6.32812L8.51562-4.20898Q8.51562-3.88672 8.71094-3.67676Q8.90625-3.4668 9.23828-3.4668Q9.56055-3.4668 9.77051-3.67676Q9.98047-3.88672 9.98047-4.20898L9.98047-6.32812L12.0898-6.32812Q12.4219-6.32812 12.627-6.52832Q12.832-6.72852 12.832-7.05078Q12.832-7.38281 12.627-7.58789Q12.4219-7.79297 12.0898-7.79297L9.98047-7.79297L9.98047-9.90234Q9.98047-10.2344 9.77051-10.4443Q9.56055-10.6543 9.23828-10.6543Q8.90625-10.6543 8.71094-10.4443Q8.51562-10.2344 8.51562-9.90234L8.51562-7.79297L6.40625-7.79297Q6.06445-7.79297 5.85938-7.58789Q5.6543-7.38281 5.6543-7.05078Z"/>
  </g>
  <g transform="matrix(1 0 0 1 281.867 1933)">
   <path d="M11.709 2.91016Q13.75 2.91016 15.5518 2.12891Q17.3535 1.34766 18.7305-0.0292969Q20.1074-1.40625 20.8887-3.20801Q21.6699-5.00977 21.6699-7.05078Q21.6699-9.0918 20.8887-10.8936Q20.1074-12.6953 18.7305-14.0723Q17.3535-15.4492 15.5469-16.2305Q13.7402-17.0117 11.6992-17.0117Q9.6582-17.0117 7.85645-16.2305Q6.05469-15.4492 4.68262-14.0723Q3.31055-12.6953 2.5293-10.8936Q1.74805-9.0918 1.74805-7.05078Q1.74805-5.00977 2.5293-3.20801Q3.31055-1.40625 4.6875-0.0292969Q6.06445 1.34766 7.86621 2.12891Q9.66797 2.91016 11.709 2.91016ZM11.709 1.25Q9.98047 1.25 8.47656 0.605469Q6.97266-0.0390625 5.83496-1.17676Q4.69727-2.31445 4.05762-3.81836Q3.41797-5.32227 3.41797-7.05078Q3.41797-8.7793 4.05762-10.2832Q4.69727-11.7871 5.83008-12.9297Q6.96289-14.0723 8.4668-14.7119Q9.9707-15.3516 11.6992-15.3516Q13.4277-15.3516 14.9365-14.7119Q16.4453-14.0723 17.583-12.9297Q18.7207-11.7871 19.3652-10.2832Q20.0098-8.7793 20.0098-7.05078Q20.0098-5.32227 19.3701-3.81836Q18.7305-2.31445 17.5879-1.17676Q16.4453-0.0390625 14.9414 0.605469Q13.4375 1.25 11.709 1.25ZM7.17773-7.05078Q7.17773-6.69922 7.41211-6.47461Q7.64648-6.25 8.01758-6.25L10.8887-6.25L10.8887-3.36914Q10.8887-2.99805 11.1133-2.76855Q11.3379-2.53906 11.6895-2.53906Q12.0605-2.53906 12.29-2.76855Q12.5195-2.99805 12.5195-3.36914L12.5195-6.25L15.4004-6.25Q15.7715-6.25 16.001-6.47461Q16.2305-6.69922 16.2305-7.05078Q16.2305-7.42188 16.001-7.65137Q15.7715-7.88086 15.4004-7.88086L12.5195-7.88086L12.5195-10.752Q12.5195-11.1328 12.29-11.3623Q12.0605-11.5918 11.6895-11.5918Q11.3379-11.5918 11.1133-11.3574Q10.8887-11.123 10.8887-10.752L10.8887-7.88086L8.01758-7.88086Q7.63672-7.88086 7.40723-7.65137Q7.17773-7.42188 7.17773-7.05078Z"/>
  </g>
  <g transform="matrix(1 0 0 1 305.646 1933)">
   <path d="M14.9707 5.66406Q17.0605 5.66406 18.96 5.01465Q20.8594 4.36523 22.4512 3.19336Q24.043 2.02148 25.2197 0.429688Q26.3965-1.16211 27.0459-3.06641Q27.6953-4.9707 27.6953-7.05078Q27.6953-9.14062 27.0459-11.04Q26.3965-12.9395 25.2197-14.5312Q24.043-16.123 22.4512-17.2998Q20.8594-18.4766 18.9551-19.126Q17.0508-19.7754 14.9609-19.7754Q12.8711-19.7754 10.9717-19.126Q9.07227-18.4766 7.48535-17.2998Q5.89844-16.123 4.72168-14.5312Q3.54492-12.9395 2.90039-11.04Q2.25586-9.14062 2.25586-7.05078Q2.25586-4.9707 2.90527-3.06641Q3.55469-1.16211 4.72656 0.429688Q5.89844 2.02148 7.49023 3.19336Q9.08203 4.36523 10.9814 5.01465Q12.8809 5.66406 14.9707 5.66406ZM14.9707 3.84766Q13.1641 3.84766 11.5283 3.2959Q9.89258 2.74414 8.53516 1.74805Q7.17773 0.751953 6.17676-0.610352Q5.17578-1.97266 4.62891-3.6084Q4.08203-5.24414 4.08203-7.05078Q4.08203-8.86719 4.62891-10.5029Q5.17578-12.1387 6.17188-13.501Q7.16797-14.8633 8.52539-15.8594Q9.88281-16.8555 11.5186-17.4023Q13.1543-17.9492 14.9609-17.9492Q16.7773-17.9492 18.4131-17.4023Q20.0488-16.8555 21.4111-15.8594Q22.7734-14.8633 23.7744-13.501Q24.7754-12.1387 25.3223-10.5029Q25.8691-8.86719 25.8691-7.05078Q25.8691-5.24414 25.3223-3.6084Q24.7754-1.97266 23.7793-0.610352Q22.7832 0.751953 21.4209 1.74805Q20.0586 2.74414 18.4229 3.2959Q16.7871 3.84766 14.9707 3.84766ZM9.19922-7.05078Q9.19922-6.66992 9.45801-6.4209Q9.7168-6.17188 10.1172-6.17188L14.0625-6.17188L14.0625-2.2168Q14.0625-1.81641 14.3115-1.55762Q14.5605-1.29883 14.9512-1.29883Q15.3516-1.29883 15.6104-1.55273Q15.8691-1.80664 15.8691-2.2168L15.8691-6.17188L19.8242-6.17188Q20.2246-6.17188 20.4785-6.4209Q20.7324-6.66992 20.7324-7.05078Q20.7324-7.46094 20.4785-7.71484Q20.2246-7.96875 19.8242-7.96875L15.8691-7.96875L15.8691-11.9141Q15.8691-12.3242 15.6104-12.583Q15.3516-12.8418 14.9512-12.8418Q14.5605-12.8418 14.3115-12.583Q14.0625-12.3242 14.0625-11.9141L14.0625-7.96875L10.1172-7.96875Q9.70703-7.96875 9.45312-7.71484Q9.19922-7.46094 9.19922-7.05078Z"/>
  </g>
  <text style="stroke:none;fill:black;font-family:sans-serif;font-size:13;font-weight:bold;" transform="matrix(1 0 0 1 263 1953)">Design Variations</text>
  <text style="stroke:none;fill:black;font-family:sans-serif;font-size:13;" transform="matrix(1 0 0 1 263 1971)">Symbols are supported in up to nine weights and three scales.</text>
  <text style="stroke:none;fill:black;font-family:sans-serif;font-size:13;" transform="matrix(1 0 0 1 263 1989)">For optimal layout with text and other symbols, vertically align</text>
  <text style="stroke:none;fill:black;font-family:sans-serif;font-size:13;" transform="matrix(1 0 0 1 263 2007)">symbols with the adjacent text.</text>
  <line style="fill:none;stroke:#00AEEF;stroke-width:0.5;opacity:1.0;" x1="776" x2="776" y1="1919" y2="1933"/>
  <g transform="matrix(1 0 0 1 776 1933)">
   <path d="M3.31055 0.15625Q3.70117 0.15625 3.91602-0.00976562Q4.13086-0.175781 4.26758-0.585938L5.52734-4.0332L11.2891-4.0332L12.5488-0.585938Q12.6855-0.175781 12.9004-0.00976562Q13.1152 0.15625 13.4961 0.15625Q13.8867 0.15625 14.1162-0.0585938Q14.3457-0.273438 14.3457-0.644531Q14.3457-0.869141 14.2383-1.17188L9.6582-13.3691Q9.48242-13.8184 9.17969-14.043Q8.87695-14.2676 8.4082-14.2676Q7.5-14.2676 7.17773-13.3789L2.59766-1.16211Q2.49023-0.859375 2.49023-0.634766Q2.49023-0.263672 2.70996-0.0537109Q2.92969 0.15625 3.31055 0.15625ZM6.00586-5.51758L8.37891-12.0898L8.42773-12.0898L10.8008-5.51758Z"/>
  </g>
  <line style="fill:none;stroke:#00AEEF;stroke-width:0.5;opacity:1.0;" x1="793.197" x2="793.197" y1="1919" y2="1933"/>
  <text style="stroke:none;fill:black;font-family:sans-serif;font-size:13;font-weight:bold;" transform="matrix(1 0 0 1 776 1953)">Margins</text>
  <text style="stroke:none;fill:black;font-family:sans-serif;font-size:13;" transform="matrix(1 0 0 1 776 1971)">Leading and trailing margins on the left and right side of each symbol</text>
  <text style="stroke:none;fill:black;font-family:sans-serif;font-size:13;" transform="matrix(1 0 0 1 776 1989)">can be adjusted by modifying the x-location of the margin guidelines.</text>
  <text style="stroke:none;fill:black;font-family:sans-serif;font-size:13;" transform="matrix(1 0 0 1 776 2007)">Modifications are automatically applied proportionally to all</text>
  <text style="stroke:none;fill:black;font-family:sans-serif;font-size:13;" transform="matrix(1 0 0 1 776 2025)">scales and weights.</text>
  <g transform="matrix(1 0 0 1 1289 1933)">
   <path d="M2.8418 1.86523L4.54102 3.57422Q5.18555 4.22852 5.90332 4.17969Q6.62109 4.13086 7.31445 3.35938L18.0078-8.42773L17.041-9.4043L6.42578 2.27539Q6.16211 2.57812 5.89355 2.61719Q5.625 2.65625 5.27344 2.30469L4.10156 1.14258Q3.75 0.791016 3.79395 0.522461Q3.83789 0.253906 4.14062-0.0195312L15.6152-10.8203L14.6387-11.7871L3.04688-0.898438Q2.30469-0.214844 2.25098 0.498047Q2.19727 1.21094 2.8418 1.86523ZM9.25781-16.3281Q8.94531-16.0254 8.90625-15.6348Q8.86719-15.2441 9.04297-14.9512Q9.21875-14.6777 9.55566-14.541Q9.89258-14.4043 10.3809-14.5215Q11.4746-14.7754 12.5977-14.7314Q13.7207-14.6875 14.7949-13.9844L14.209-12.5293Q13.9551-11.9043 14.0674-11.4404Q14.1797-10.9766 14.5801-10.5664L16.875-8.25195Q17.2363-7.88086 17.5781-7.82227Q17.9199-7.76367 18.3398-7.8418L19.4043-8.03711L20.0684-7.36328L20.0293-6.80664Q20-6.43555 20.1221-6.12305Q20.2441-5.81055 20.6055-5.44922L21.3672-4.70703Q21.7285-4.3457 22.1533-4.33105Q22.5781-4.31641 22.9297-4.66797L25.8398-7.58789Q26.1914-7.93945 26.1816-8.35449Q26.1719-8.76953 25.8105-9.13086L25.0391-9.89258Q24.6875-10.2539 24.3799-10.3857Q24.0723-10.5176 23.7109-10.4883L23.1348-10.4395L22.4902-11.0742L22.7344-12.1973Q22.832-12.6172 22.6953-12.9834Q22.5586-13.3496 22.1191-13.7891L19.9219-15.9766Q18.6719-17.2168 17.2607-17.8369Q15.8496-18.457 14.4189-18.4814Q12.9883-18.5059 11.665-17.959Q10.3418-17.4121 9.25781-16.3281ZM10.752-15.957Q11.6602-16.6211 12.7002-16.9043Q13.7402-17.1875 14.8047-17.085Q15.8691-16.9824 16.8701-16.5137Q17.8711-16.0449 18.7012-15.2051L21.1328-12.793Q21.3086-12.6172 21.3525-12.4512Q21.3965-12.2852 21.3379-12.0312L21.0156-10.5469L22.5195-9.0625L23.5059-9.12109Q23.6914-9.13086 23.7891-9.09668Q23.8867-9.0625 24.0332-8.91602L24.6094-8.33984L22.168-5.89844L21.5918-6.47461Q21.4453-6.62109 21.4062-6.71875Q21.3672-6.81641 21.377-7.01172L21.4453-7.98828L19.9512-9.47266L18.4277-9.21875Q18.1836-9.16992 18.042-9.2041Q17.9004-9.23828 17.7148-9.41406L15.7129-11.416Q15.5176-11.5918 15.4932-11.7529Q15.4688-11.9141 15.5859-12.1875L16.4648-14.2773Q15.293-15.3711 13.8281-15.791Q12.3633-16.2109 10.8398-15.7617Q10.7227-15.7324 10.6885-15.8057Q10.6543-15.8789 10.752-15.957Z"/>
  </g>
  <text style="stroke:none;fill:black;font-family:sans-serif;font-size:13;font-weight:bold;" transform="matrix(1 0 0 1 1289 1953)">Exporting</text>
  <text style="stroke:none;fill:black;font-family:sans-serif;font-size:13;" transform="matrix(1 0 0 1 1289 1971)">Symbols should be outlined when exporting to ensure the</text>
  <text style="stroke:none;fill:black;font-family:sans-serif;font-size:13;" transform="matrix(1 0 0 1 1289 1989)">design is preserved when submitting to Xcode.</text>
  <text id="template-version" style="stroke:none;fill:black;font-family:sans-serif;font-size:13;text-anchor:end;" transform="matrix(1 0 0 1 3036 1933)">Template v.2.0</text>
  <text style="stroke:none;fill:black;font-family:sans-serif;font-size:13;text-anchor:end;" transform="matrix(1 0 0 1 3036 1951)">Requires Xcode 12 or greater</text>
  <text id="descriptive-name" style="stroke:none;fill:black;font-family:sans-serif;font-size:13;text-anchor:end;" transform="matrix(1 0 0 1 3036 1969)">Generated from figure.surfing</text>
  <text style="stroke:none;fill:black;font-family:sans-serif;font-size:13;text-anchor:end;" transform="matrix(1 0 0 1 3036 1987)">Typeset at 100 points</text>
  <text style="stroke:none;fill:black;font-family:sans-serif;font-size:13;" transform="matrix(1 0 0 1 263 726)">Small</text>
  <text style="stroke:none;fill:black;font-family:sans-serif;font-size:13;" transform="matrix(1 0 0 1 263 1156)">Medium</text>
  <text style="stroke:none;fill:black;font-family:sans-serif;font-size:13;" transform="matrix(1 0 0 1 263 1586)">Large</text>
 </g>
 <g id="Guides">
  <g id="H-reference" style="fill:#27AAE1;stroke:none;" transform="matrix(1 0 0 1 339 696)">
   <path d="M0.993347 0L3.6377 0L29.3282-67.1326L30.0301-67.1326L30.0301-70.459L28.1227-70.459ZM11.6882-24.4797L46.9818-24.4797L46.2311-26.7288L12.4382-26.7288ZM55.1193 0L57.7637 0L30.6381-70.459L29.4327-70.459L29.4327-67.1326Z"/>
  </g>
  <line id="Baseline-S" style="fill:none;stroke:#27AAE1;opacity:1;stroke-width:0.5;" x1="263" x2="3036" y1="696" y2="696"/>
  <line id="Capline-S" style="fill:none;stroke:#27AAE1;opacity:1;stroke-width:0.5;" x1="263" x2="3036" y1="625.541" y2="625.541"/>
  <g id="H-reference" style="fill:#27AAE1;stroke:none;" transform="matrix(1 0 0 1 339 1126)">
   <path d="M0.993347 0L3.6377 0L29.3282-67.1326L30.0301-67.1326L30.0301-70.459L28.1227-70.459ZM11.6882-24.4797L46.9818-24.4797L46.2311-26.7288L12.4382-26.7288ZM55.1193 0L57.7637 0L30.6381-70.459L29.4327-70.459L29.4327-67.1326Z"/>
  </g>
  <line id="Baseline-M" style="fill:none;stroke:#27AAE1;opacity:1;stroke-width:0.5;" x1="263" x2="3036" y1="1126" y2="1126"/>
  <line id="Capline-M" style="fill:none;stroke:#27AAE1;opacity:1;stroke-width:0.5;" x1="263" x2="3036" y1="1055.54" y2="1055.54"/>
  <g id="H-reference" style="fill:#27AAE1;stroke:none;" transform="matrix(1 0 0 1 339 1556)">
   <path d="M0.993347 0L3.6377 0L29.3282-67.1326L30.0301-67.1326L30.0301-70.459L28.1227-70.459ZM11.6882-24.4797L46.9818-24.4797L46.2311-26.7288L12.4382-26.7288ZM55.1193 0L57.7637 0L30.6381-70.459L29.4327-70.459L29.4327-67.1326Z"/>
  </g>
  <line id="Baseline-L" style="fill:none;stroke:#27AAE1;opacity:1;stroke-width:0.5;" x1="263" x2="3036" y1="1556" y2="1556"/>
  <line id="Capline-L" style="fill:none;stroke:#27AAE1;opacity:1;stroke-width:0.5;" x1="263" x2="3036" y1="1485.54" y2="1485.54"/>
  <line id="left-margin" style="fill:none;stroke:#00AEEF;stroke-width:0.5;opacity:1.0;" x1="1379.51" x2="1379.51" y1="1030.79" y2="1150.12"/>
  <line id="right-margin" style="fill:none;stroke:#00AEEF;stroke-width:0.5;opacity:1.0;" x1="1520.17" x2="1520.17" y1="1030.79" y2="1150.12"/>
 </g>
 <g id="Symbols">
  <g id="Black-L" transform="matrix(1 0 0 1 2837.26 1556)">
   <path d="M120.445-77.6257Q126.847-77.6257 131.392-82.1988Q135.936-86.7719 135.936-93.1158Q135.936-99.5401 131.392-104.074Q126.847-108.608 120.445-108.608Q114.079-108.608 109.516-104.074Q104.953-99.5401 104.953-93.1158Q104.953-86.7719 109.516-82.1988Q114.079-77.6257 120.445-77.6257ZM72.4707 8.83644Q75.0485 10.6333 78.2938 10.1435Q81.5392 9.65384 83.4152 7.07723L98.6294-14.1589L110.899-12.1003L97.3521 8.12089Q95.5553 10.8375 96.154 14.1225Q96.7528 17.4074 99.6654 19.1226Q103.001 21.0218 105.987 20.222Q108.973 19.4223 110.631 16.8677L130.283-12.7349Q132.56-16.1312 131.313-20.3762Q130.065-24.6212 125.151-25.8187L98.0741-32.3375Q96.8109-32.6436 96.4024-33.6507Q95.9938-34.6578 96.7305-35.7406L108.083-52.8076Q108.864-53.9592 110.016-53.1577L126.603-41.8065Q127.963-40.8855 129.678-40.5286L166.822-33.7309Q169.698-33.1912 172.633-34.9186Q175.567-36.646 176.107-40.1788Q176.566-43.3535 174.719-46.0982Q172.873-48.8428 169.698-49.3825L134.211-55.8221L80.6552-92.3385L95.0957-102.734Q97.8111-104.691 98.3697-107.936Q98.9282-111.18 96.9938-113.758Q95.0737-116.394 91.8102-116.992Q88.5466-117.591 85.9116-115.635L62.2662-98.7476Q58.871-96.3098 58.8606-92.2075Q58.8502-88.1052 62.405-85.6894L82.4804-71.9488Q83.6696-71.1473 82.8305-70.0373L66.0631-45.6097Q62.3398-40.1844 62.5695-34.1291Q62.7991-28.0738 66.6931-23.4203Q70.587-18.7668 77.9532-17.6045L81.137-17.0936L70.5947-2.26769Q68.6978 0.448926 69.1973 3.69366Q69.6969 6.9384 72.4707 8.83644ZM17.9064-12.4002Q16.4761-10.757 16.3468-8.38947Q16.2176-6.02192 18.4541-4.06305Q30.2426 6.38273 46.2616 15.7446Q62.2805 25.1065 81.3164 32.3143Q100.352 39.5221 121.232 43.6716Q142.112 47.821 163.566 47.821Q165.94 47.821 167.611 46.1498Q169.282 44.4786 169.282 42.1253Q169.282 39.7512 167.611 38.0806Q165.94 36.41 163.566 36.41Q143.121 36.41 123.269 32.5183Q103.417 28.6265 85.419 21.814Q67.4209 15.0015 52.2631 6.12309Q37.1053-2.75532 25.8906-12.7066Q23.7785-14.6018 21.5648-14.2896Q19.3512-13.9773 17.9064-12.4002ZM22.472 22.021Q26.8233 22.021 33.0095 20.156Q39.1958 18.291 45.2364 14.3209L31.9843 0.430055Q30.0638 3.30227 28.4282 5.08446Q26.7926 6.86666 24.7796 8.3158Q22.7665 9.76494 19.6346 11.6106Q17.4953 12.9141 16.8203 14.8897Q16.1454 16.8654 16.8335 18.5906Q17.3644 19.9781 18.8092 20.9996Q20.2539 22.021 22.472 22.021Z"/>
  </g>
  <g id="Heavy-L" transform="matrix(1 0 0 1 2541.97 1556)">
   <path d="M118.009-76.7095Q124.215-76.7095 128.641-81.1549Q133.067-85.6003 133.067-91.7618Q133.067-98.0035 128.641-102.414Q124.215-106.825 118.009-106.825Q111.812-106.825 107.379-102.414Q102.946-98.0035 102.946-91.7618Q102.946-85.6003 107.379-81.1549Q111.812-76.7095 118.009-76.7095ZM71.3426 8.40282Q73.8151 10.1126 76.9162 9.64352Q80.0174 9.17449 81.8019 6.70758L96.9091-14.3861L109.591-12.2581L95.9901 8.04127Q94.2804 10.6388 94.8494 13.7773Q95.4184 16.9158 98.1799 18.5395Q101.374 20.3654 104.229 19.5954Q107.085 18.8254 108.669 16.3944L128.055-12.8331Q130.236-16.0828 129.045-20.1494Q127.855-24.216 123.151-25.3539L96.4089-31.796Q95.0167-32.139 94.5574-33.2407Q94.0982-34.3424 94.9363-35.5492L106.149-52.3994Q107.058-53.7539 108.418-52.8141L124.797-41.6074Q126.102-40.7139 127.725-40.3891L164.399-33.6912Q167.152-33.1697 169.949-34.8169Q172.746-36.464 173.268-39.8275Q173.709-42.8606 171.947-45.4748Q170.185-48.089 167.152-48.6105L132.057-54.9778L78.839-91.2861L93.393-101.749Q95.9849-103.614 96.5137-106.712Q97.0424-109.81 95.2133-112.283Q93.3572-114.8 90.2517-115.366Q87.1461-115.932 84.6346-114.073L61.292-97.4024Q58.048-95.0605 58.0329-91.1504Q58.0177-87.2402 61.4171-84.9342L81.2349-71.3563Q82.6038-70.4165 81.6495-69.1223L65.0851-45.0113Q61.4622-39.7321 61.6827-33.8387Q61.9033-27.9453 65.6993-23.4195Q69.4954-18.8937 76.6608-17.759L80.2086-17.1835L69.5581-2.21162Q67.7435 0.385893 68.2248 3.48421Q68.7061 6.58253 71.3426 8.40282ZM17.752-12.6257Q16.4121-11.1375 16.2848-8.96991Q16.1575-6.80229 18.1894-5.02046Q29.8014 5.27139 45.5804 14.486Q61.3594 23.7007 80.1126 30.8045Q98.8658 37.9083 119.429 41.9921Q139.992 46.0759 161.133 46.0759Q163.284 46.0759 164.789 44.571Q166.294 43.0661 166.294 40.9449Q166.294 38.7936 164.789 37.2915Q163.284 35.7895 161.133 35.7895Q140.905 35.7895 121.265 31.9429Q101.625 28.0964 83.8078 21.3492Q65.9902 14.6021 50.9926 5.81392Q35.9951-2.97429 24.9023-12.8218Q23.0224-14.5075 21.0437-14.257Q19.0649-14.0064 17.752-12.6257ZM22.1283 19.953Q26.3634 19.953 32.3045 18.1864Q38.2456 16.4198 44.0099 12.651L31.6302-0.161077Q29.745 2.54573 28.1373 4.26784Q26.5295 5.98994 24.5812 7.38424Q22.633 8.77853 19.6659 10.4879Q17.6987 11.6646 17.069 13.4306Q16.4393 15.1967 17.0364 16.8Q17.4895 18.0739 18.8025 19.0134Q20.1154 19.953 22.1283 19.953Z"/>
  </g>
  <g id="Bold-L" transform="matrix(1 0 0 1 2247.13 1556)">
   <path d="M114.878-75.5052Q120.845-75.5052 125.125-79.7931Q129.405-84.081 129.405-90.0195Q129.405-96.0383 125.125-100.299Q120.845-104.56 114.878-104.56Q108.888-104.56 104.613-100.299Q100.337-96.0383 100.337-90.0195Q100.337-84.081 104.613-79.7931Q108.888-75.5052 114.878-75.5052ZM69.8398 7.80533Q72.1891 9.41499 75.1209 8.96909Q78.0528 8.52318 79.7295 6.18699L94.6688-14.6778L107.761-12.4802L94.1508 7.83713Q92.5411 10.2961 93.0755 13.2614Q93.6099 16.2268 96.1943 17.7427Q99.2189 19.4838 101.92 18.7485Q104.622 18.0132 106.122 15.7284L125.147-12.9858Q127.213-16.066 126.092-19.9211Q124.97-23.7762 120.513-24.8447L94.2303-31.1796Q92.6991-31.5612 92.1858-32.7633Q91.6725-33.9654 92.6187-35.311L103.639-51.8624Q104.688-53.4332 106.272-52.3467L122.368-41.3391Q123.61-40.4765 125.126-40.1901L161.156-33.6226Q163.763-33.1242 166.398-34.6789Q169.034-36.2337 169.533-39.3971Q169.951-42.2609 168.289-44.7212Q166.626-47.1815 163.763-47.6799L129.219-53.9476L76.5504-89.9055L91.1832-100.408Q93.6288-102.165 94.123-105.09Q94.6171-108.015 92.9112-110.365Q91.132-112.743 88.2112-113.271Q85.2904-113.798 82.925-112.055L59.9962-95.6754Q56.9293-93.4488 56.9102-89.7657Q56.8912-86.0826 60.1058-83.9075L79.5713-70.5516Q81.1331-69.4651 80.0553-67.9703L63.7743-44.2885Q60.2743-39.1861 60.4833-33.4925Q60.6923-27.7989 64.3655-23.4306Q68.0386-19.0623 74.9581-17.9585L78.8996-17.3136L68.1631-2.23187Q66.4484 0.22706 66.9067 3.15221Q67.365 6.07737 69.8398 7.80533ZM17.5525-12.8726Q16.3352-11.5766 16.2154-9.66606Q16.0956-7.75557 17.8665-6.20389Q29.2409 3.88098 44.6979 12.9001Q60.1549 21.9192 78.5249 28.8813Q96.895 35.8435 117.033 39.8391Q137.17 43.8347 157.89 43.8347Q159.757 43.8347 161.055 42.5371Q162.352 41.2396 162.352 39.4103Q162.352 37.5431 161.055 36.2523Q159.757 34.9614 157.89 34.9614Q137.961 34.9614 118.616 31.1762Q99.2707 27.391 81.7058 20.7357Q64.1408 14.0804 49.3653 5.41853Q34.5898-3.24333 23.6656-12.9454Q22.0776-14.3698 20.3871-14.1924Q18.6966-14.0149 17.5525-12.8726ZM21.6609 17.4388Q25.7873 17.4388 31.4435 15.7877Q37.0997 14.1366 42.4959 10.6064L31.1699-0.846446Q29.3456 1.67533 27.765 3.33557Q26.1843 4.9958 24.3019 6.32474Q22.4194 7.65368 19.6447 9.18652Q17.9074 10.1945 17.3391 11.6994Q16.7708 13.2043 17.2526 14.639Q17.6135 15.7672 18.7575 16.603Q19.9016 17.4388 21.6609 17.4388Z"/>
  </g>
  <g id="Semibold-L" transform="matrix(1 0 0 1 1951.71 1556)">
   <path d="M112.719-74.675Q118.522-74.675 122.702-78.8543Q126.881-83.0335 126.881-88.8185Q126.881-94.6835 122.702-98.8412Q118.522-102.999 112.719-102.999Q106.873-102.999 102.706-98.8412Q98.5387-94.6835 98.5387-88.8185Q98.5387-83.0335 102.706-78.8543Q106.873-74.675 112.719-74.675ZM68.8038 7.39342Q71.0682 8.9341 73.8833 8.50414Q76.6984 8.07418 78.3008 5.8281L93.1244-14.8788L106.5-12.6332L92.8827 7.69639Q91.3421 10.0598 91.8526 12.9058Q92.3631 15.7518 94.8254 17.1934Q97.7333 18.876 100.329 18.1646Q102.924 17.4532 104.366 15.2693L123.143-13.091Q125.129-16.0545 124.055-19.7637Q122.982-23.4729 118.694-24.4936L92.7284-30.7547Q91.1014-31.1629 90.5508-32.4342Q90.0002-33.7055 91.021-35.1467L101.91-51.4923Q103.054-53.2121 104.792-52.0244L120.693-41.1541Q121.893-40.3128 123.334-40.053L158.921-33.5753Q161.426-33.0928 163.951-34.5839Q166.475-36.0749 166.957-39.1004Q167.36-41.8475 165.767-44.2017Q164.173-46.5559 161.426-47.0384L127.263-53.2374L74.9726-88.9537L89.6598-99.4833Q92.0046-101.166 92.4749-103.972Q92.9452-106.778 91.3241-109.042Q89.598-111.325 86.8045-111.826Q84.0111-112.327 81.7464-110.663L59.1029-94.4848Q56.158-92.3377 56.1363-88.8111Q56.1145-85.2845 59.2019-83.1996L78.4244-69.9969Q80.1193-68.8092 78.9563-67.1761L62.8706-43.7902Q59.4554-38.8097 59.6564-33.2538Q59.8574-27.6979 63.4459-23.4383Q67.0344-19.1786 73.7843-18.096L77.9972-17.4033L67.2013-2.24583Q65.5556 0.117562 65.9981 2.92333Q66.4405 5.72911 68.8038 7.39342ZM17.415-13.0428Q16.2822-11.8792 16.1676-10.146Q16.053-8.41275 17.644-7.01974Q28.8545 2.92243 44.0895 11.8067Q59.3246 20.691 77.4305 27.5555Q95.5363 34.4199 115.381 38.3548Q135.225 42.2896 155.654 42.2896Q157.325 42.2896 158.48 41.135Q159.635 39.9805 159.635 38.3524Q159.635 36.681 158.48 35.5358Q157.325 34.3906 155.654 34.3906Q135.931 34.3906 116.789 30.6476Q97.6474 26.9046 80.2566 20.3127Q62.8658 13.7207 48.2434 5.14595Q33.621-3.42881 22.8131-13.0305Q21.4262-14.275 19.9344-14.1479Q18.4426-14.0208 17.415-13.0428ZM21.3387 15.7056Q25.3901 15.7056 30.8499 14.1341Q36.3098 12.5625 41.4522 9.1968L30.8526-1.31894Q29.0703 1.07528 27.5083 2.69287Q25.9463 4.31045 24.1092 5.59433Q22.2722 6.87821 19.6301 8.28935Q18.0514 9.18108 17.5253 10.5059Q16.9993 11.8308 17.4017 13.1492Q17.6989 14.1769 18.7266 14.9413Q19.7542 15.7056 21.3387 15.7056Z"/>
  </g>
  <g id="Medium-L" transform="matrix(1 0 0 1 1655.97 1556)">
   <path d="M111.082-74.0456Q116.761-74.0456 120.864-78.1424Q124.967-82.2393 124.967-87.9078Q124.967-93.6563 120.864-97.7356Q116.761-101.815 111.082-101.815Q105.344-101.815 101.26-97.7356Q97.175-93.6563 97.175-87.9078Q97.175-82.2393 101.26-78.1424Q105.344-74.0456 111.082-74.0456ZM68.0182 7.08109Q70.2183 8.56946 72.9448 8.1516Q75.6714 7.73373 77.2176 5.55597L91.9533-15.0313L105.543-12.7493L91.9212 7.58968Q90.4329 9.88064 90.9253 12.6361Q91.4177 15.3916 93.7874 16.7769Q96.6069 18.4152 99.122 17.7219Q101.637 17.0286 103.034 14.9212L121.623-13.1708Q123.549-16.0457 122.511-19.6444Q121.474-23.243 117.315-24.2274L91.5896-30.4325Q89.89-30.8608 89.3111-32.1846Q88.7323-33.5084 89.8096-35.0222L100.598-51.2116Q101.815-53.0445 103.67-51.7801L119.422-41.0139Q120.59-40.1887 121.975-39.949L157.226-33.5394Q159.655-33.069 162.095-34.5118Q164.534-35.9545 165.005-38.8754Q165.395-41.5341 163.854-43.8078Q162.313-46.0816 159.655-46.552L125.78-52.6989L73.7763-88.232L88.5047-98.7824Q90.773-100.409 91.2252-103.124Q91.6774-105.839 90.1207-108.039Q88.4348-110.25 85.7379-110.731Q83.041-111.212 80.8527-109.608L58.4255-93.5821Q55.5733-91.4952 55.5494-88.0873Q55.5256-84.6794 58.5165-82.6629L77.5548-69.5762Q79.3505-68.3119 78.1229-66.5739L62.1853-43.4124Q58.8345-38.5243 59.0294-33.0728Q59.2244-27.6214 62.7487-23.4441Q66.2729-19.2668 72.8943-18.2003L77.313-17.4713L66.4721-2.25642Q64.8787 0.0345352 65.3091 2.74979Q65.7394 5.46504 68.0182 7.08109ZM17.3107-13.1718Q16.242-12.1087 16.1313-10.5099Q16.0206-8.91106 17.4752-7.63835Q28.5615 2.19562 43.6282 10.9777Q58.695 19.7598 76.6006 26.5502Q94.5061 33.3406 114.128 37.2293Q133.75 41.118 153.959 41.118Q155.482 41.118 156.528 40.0719Q157.574 39.0258 157.574 37.5502Q157.574 36.0273 156.528 34.9926Q155.482 33.9578 153.959 33.9578Q134.392 33.9578 115.404 30.2468Q96.4165 26.5359 79.1578 19.9919Q61.8991 13.448 47.3928 4.93927Q32.8865-3.56945 22.1666-13.0951Q20.9323-14.203 19.5912-14.1141Q18.2501-14.0252 17.3107-13.1718ZM21.0943 14.3914Q25.0889 14.3914 30.3999 12.8802Q35.7108 11.369 40.6608 8.12802L30.612-1.6772Q28.8615 0.620298 27.3137 2.20554Q25.7659 3.79079 23.9632 5.04051Q22.1605 6.29022 19.619 7.60908Q18.1605 8.41264 17.6665 9.60096Q17.1726 10.7893 17.5148 12.0196Q17.7637 12.9711 18.7031 13.6812Q19.6425 14.3914 21.0943 14.3914Z"/>
  </g>
  <g id="Regular-L" transform="matrix(1 0 0 1 1360.53 1556)">
   <path d="M108.947-73.2245Q114.463-73.2245 118.466-77.2139Q122.47-81.2034 122.47-86.7199Q122.47-92.3164 118.466-96.2935Q114.463-100.271 108.947-100.271Q103.351-100.271 99.3734-96.2935Q95.3963-92.3164 95.3963-86.7199Q95.3963-81.2034 99.3734-77.2139Q103.351-73.2245 108.947-73.2245ZM66.9936 6.67371Q69.1096 8.09386 71.7208 7.69176Q74.3319 7.28966 75.8046 5.20103L90.4259-15.2301L104.295-12.9007L90.6671 7.4505Q89.247 9.64696 89.7158 12.2844Q90.1846 14.9217 92.4336 16.2336Q95.1377 17.8141 97.5478 17.1445Q99.9579 16.4749 101.297 14.4671L119.64-13.2749Q121.487-16.0343 120.497-19.4887Q119.507-22.9431 115.516-23.8802L90.1042-30.0122Q88.3098-30.4669 87.6941-31.8591Q87.0784-33.2514 88.2294-34.8598L98.8873-50.8455Q100.199-52.8258 102.207-51.4614L117.766-40.831Q118.892-40.0268 120.203-39.8134L155.015-33.4927Q157.344-33.038 159.674-34.4177Q162.003-35.7974 162.458-38.582Q162.833-41.1252 161.36-43.294Q159.887-45.4628 157.344-45.9175L123.845-51.9965L72.2158-87.2906L86.998-97.8681Q89.1666-99.4212 89.5952-102.018Q90.0238-104.616 88.5511-106.732Q86.9176-108.848 84.3466-109.303Q81.7757-109.757 79.6871-108.232L57.542-92.4046Q54.8105-90.3964 54.784-87.1433Q54.7575-83.8902 57.6224-81.9628L76.4205-69.0276Q78.3478-67.6632 77.036-65.7884L61.2916-42.9196Q58.0245-38.152 58.2116-32.8367Q58.3988-27.5215 61.8392-23.4516Q65.2797-19.3818 71.7333-18.3363L76.4205-17.56L65.5209-2.27022Q63.9957-0.0737601 64.4104 2.52342Q64.825 5.12061 66.9936 6.67371ZM17.1746-13.3402Q16.1895-12.4081 16.084-10.9845Q15.9784-9.56102 17.2551-8.44523Q28.1793 1.24761 43.0266 9.89636Q57.8738 18.5451 75.5181 25.2389Q93.1624 31.9327 112.494 35.7613Q131.826 39.5899 151.748 39.5899Q153.077 39.5899 153.981 38.6852Q154.886 37.7805 154.886 36.5039Q154.886 35.1747 153.981 34.284Q153.077 33.3932 151.748 33.3932Q132.384 33.3932 113.598 29.7241Q94.811 26.0549 77.7246 19.5736Q60.6381 13.0923 46.2832 4.66969Q31.9283-3.75289 21.3235-13.1793Q20.2881-14.1092 19.1435-14.0701Q17.9989-14.031 17.1746-13.3402ZM20.7757 12.6772Q24.6961 12.6772 29.8129 11.2447Q34.9296 9.81228 39.6286 6.73395L30.2981-2.1445Q28.5892 0.0268426 27.0599 1.56991Q25.5305 3.11297 23.7727 4.31812Q22.0149 5.52328 19.6046 6.72178Q18.3028 7.41034 17.8507 8.42058Q17.3986 9.43082 17.6622 10.5461Q17.8482 11.3983 18.6725 12.0378Q19.4967 12.6772 20.7757 12.6772Z"/>
  </g>
  <g id="Light-L" transform="matrix(1 0 0 1 1065.82 1556)">
   <path d="M106.046-71.9457Q111.428-71.9457 115.336-75.8301Q119.244-79.7146 119.244-85.0977Q119.244-90.5604 115.336-94.4518Q111.428-98.3431 106.046-98.3431Q100.583-98.3431 96.6919-94.4518Q92.8006-90.5604 92.8006-85.0977Q92.8006-79.7146 96.6919-75.8301Q100.583-71.9457 106.046-71.9457ZM65.2758 5.87207Q67.3537 7.2733 69.9076 6.8712Q72.4615 6.4691 73.896 4.43755L88.1739-15.4972L101.681-13.2252L88.4152 6.62994Q87.0139 8.78824 87.4733 11.3588Q87.9326 13.9293 90.1242 15.203Q92.752 16.7643 95.1049 16.1043Q97.4577 15.4443 98.7777 13.4939L116.682-13.5802Q118.472-16.3014 117.52-19.67Q116.568-23.0386 112.653-23.9566L87.8522-29.9359Q86.096-30.3713 85.4994-31.7254Q84.9027-33.0795 86.0156-34.6879L96.4253-50.2728Q97.699-52.1768 99.6493-50.8698L114.846-40.5065Q115.972-39.7023 117.245-39.5081L151.217-33.3208Q153.489-32.8854 155.761-34.246Q158.034-35.6066 158.469-38.3148Q158.825-40.7818 157.39-42.8934Q155.956-45.005 153.489-45.4404L120.791-51.3856L70.3836-85.8403L84.8223-96.1696Q86.9335-97.6845 87.3527-100.215Q87.7718-102.745 86.3373-104.823Q84.7419-106.901 82.2282-107.337Q79.7146-107.773 77.683-106.305L56.0725-90.8205Q53.3983-88.8694 53.3813-85.7022Q53.3642-82.5351 56.1529-80.6651L74.4931-68.0159Q76.363-66.709 75.0893-64.8723L59.7457-42.538Q56.555-37.8656 56.7325-32.6839Q56.91-27.5023 60.255-23.5374Q63.6001-19.5726 69.9011-18.5271L74.4931-17.77L63.8413-2.86183Q62.3735-0.703528 62.7691 1.8268Q63.1647 4.35713 65.2758 5.87207ZM16.9839-13.302Q16.1514-12.5036 16.084-11.3187Q16.0166-10.1337 17.0643-9.24687Q27.7022 0.197779 42.1677 8.62705Q56.6332 17.0563 73.8004 23.5689Q90.9675 30.0816 109.794 33.8051Q128.62 37.5287 148.026 37.5287Q149.107 37.5287 149.859 36.7767Q150.611 36.0246 150.611 34.9769Q150.611 33.8959 149.859 33.1674Q149.107 32.4389 148.026 32.4389Q129.064 32.4389 110.687 28.8461Q92.3108 25.2533 75.5871 18.9055Q58.8633 12.5577 44.8137 4.31649Q30.764-3.92477 20.3884-13.1412Q19.582-13.8802 18.6188-13.8697Q17.6555-13.8592 16.9839-13.302ZM20.184 11.2458Q24.2572 11.2458 29.2976 9.8515Q34.3379 8.45718 38.6169 5.47441L29.8402-2.31637Q28.284-0.145029 26.7259 1.43619Q25.1679 3.01741 23.3624 4.19403Q21.557 5.37065 19.2037 6.39727Q18.1691 6.89504 17.7935 7.7145Q17.4178 8.53395 17.5859 9.42Q17.7337 10.1388 18.4053 10.6923Q19.077 11.2458 20.184 11.2458Z"/>
  </g>
  <g id="Thin-L" transform="matrix(1 0 0 1 771.743 1556)">
   <path d="M102.209-70.2544Q107.415-70.2544 111.197-74Q114.978-77.7455 114.978-82.9522Q114.978-88.2381 111.197-92.016Q107.415-95.7939 102.209-95.7939Q96.9234-95.7939 93.1455-92.016Q89.3676-88.2381 89.3676-82.9522Q89.3676-77.7455 93.1455-74Q96.9234-70.2544 102.209-70.2544ZM63.004 4.81184Q65.0314 6.18804 67.5096 5.78594Q69.9878 5.38384 71.3718 3.42778L85.1955-15.8505L98.2228-13.6544L85.4368 5.54468Q84.0605 7.65252 84.5074 10.1346Q84.9542 12.6168 87.0699 13.84Q89.5968 15.3758 91.8739 14.7285Q94.1511 14.0812 95.4456 12.2068L112.769-13.9839Q114.484-16.6547 113.582-19.9099Q112.681-23.165 108.867-24.0575L84.8738-29.835Q83.1681-30.2449 82.5967-31.5486Q82.0253-32.8522 83.0877-34.4606L93.1691-49.5154Q94.3923-51.3184 96.2667-50.0874L110.984-40.0773Q112.11-39.2731 113.332-39.1044L146.194-33.0935Q148.39-32.6835 150.587-34.0189Q152.783-35.3543 153.193-37.9616Q153.524-40.3276 152.14-42.3635Q150.756-44.3993 148.39-44.8093L116.753-50.5777L67.9604-83.9221L81.9449-93.9232Q83.9801-95.3876 84.3868-97.8295Q84.7934-100.271 83.4093-102.299Q81.8644-104.326 79.4265-104.737Q76.9885-105.147 75.0324-103.755L54.1288-88.7255Q51.5306-86.8499 51.5261-83.7964Q51.5216-80.7428 54.2093-78.9488L71.9438-66.6779Q73.7378-65.4469 72.5146-63.6607L57.7012-42.0333Q54.6114-37.4869 54.7761-32.4819Q54.9409-27.4768 58.1598-23.6509Q61.3787-19.8249 67.4778-18.7794L71.9438-18.0478L61.6199-3.64428Q60.228-1.53645 60.5984 0.905458Q60.9687 3.34736 63.004 4.81184ZM16.7315-13.2516Q16.1009-12.63 16.084-11.7606Q16.0671-10.8911 16.8119-10.3071Q27.0711-1.1907 41.0318 6.94828Q54.9924 15.0873 71.5285 21.3603Q88.0646 27.6333 106.222 31.218Q124.38 34.8027 143.104 34.8027Q143.857 34.8027 144.407 34.2525Q144.957 33.7023 144.957 32.9574Q144.957 32.2047 144.407 31.6907Q143.857 31.1768 143.104 31.1768Q124.672 31.1768 106.838 27.6849Q89.0042 24.193 72.7601 18.0219Q56.516 11.8508 42.87 3.84935Q29.2241-4.15208 19.1518-13.0907Q18.6481-13.5774 17.9247-13.6046Q17.2013-13.6319 16.7315-13.2516ZM19.4016 9.35266Q23.6766 9.35266 28.616 8.00882Q33.5555 6.66497 37.2789 3.80858L29.2346-2.54368Q27.8802-0.372343 26.2842 1.25935Q24.6882 2.89104 22.8198 4.02991Q20.9514 5.16878 18.6736 5.96809Q17.9923 6.21353 17.7178 6.78064Q17.4433 7.34776 17.485 7.93059Q17.5823 8.47293 18.0521 8.9128Q18.5219 9.35266 19.4016 9.35266Z"/>
  </g>
  <g id="Ultralight-L" transform="matrix(1 0 0 1 476.383 1556)">
   <path d="M100.244-69.3882Q105.359-69.3882 109.076-73.0626Q112.793-76.737 112.793-81.8533Q112.793-87.0486 109.076-90.7684Q105.359-94.4882 100.244-94.4882Q95.0488-94.4882 91.329-90.7684Q87.6092-87.0486 87.6092-81.8533Q87.6092-76.737 91.329-73.0626Q95.0488-69.3882 100.244-69.3882ZM61.8403 4.26879Q63.8419 5.63218 66.2813 5.23008Q68.7207 4.82798 70.0789 2.91059L83.67-16.0314L96.4516-13.8742L83.9112 4.98882Q82.5478 7.07081 82.9883 9.50764Q83.4287 11.9445 85.5055 13.1418Q87.9807 14.6646 90.219 14.0239Q92.4574 13.3831 93.7389 11.5475L110.765-14.1907Q112.441-16.8356 111.565-20.0327Q110.69-23.2298 106.928-24.1092L83.3483-29.7833Q81.6684-30.1802 81.1099-31.458Q80.5515-32.7358 81.588-34.3442L91.5013-49.1274Q92.6987-50.8788 94.5342-49.6866L109.006-39.8574Q110.132-39.0532 111.328-38.8976L143.621-32.977Q145.778-32.5801 147.936-33.9026Q150.094-35.2251 150.491-37.7806Q150.809-40.095 149.451-42.0921Q148.093-44.0892 145.778-44.4861L114.684-50.1639L66.7192-82.9397L80.471-92.7725Q82.4674-94.2112 82.8676-96.6078Q83.2679-99.0044 81.9097-101.006Q80.3906-103.008 77.9914-103.405Q75.5922-103.803 73.6748-102.45L53.1333-87.6525Q50.574-85.8155 50.5759-82.8202Q50.5777-79.8249 53.2137-78.0698L70.6381-65.9926Q72.3933-64.8004 71.1959-63.0401L56.6539-41.7748Q53.6158-37.2929 53.7741-32.3784Q53.9323-27.4638 57.0866-23.709Q60.2409-19.9541 66.2366-18.9087L70.6381-18.1901L60.4821-4.04505Q59.1291-1.96306 59.4865 0.433551Q59.844 2.83017 61.8403 4.26879ZM16.6023-13.2257Q16.0751-12.6947 16.084-11.9869Q16.0929-11.2791 16.6827-10.8502Q26.7479-1.90187 40.4499 6.08842Q54.1519 14.0787 70.3649 20.229Q86.5778 26.3793 104.393 29.8928Q122.208 33.4064 140.583 33.4064Q141.168 33.4064 141.614 32.9596Q142.061 32.5128 142.061 31.923Q142.061 31.3384 141.614 30.9344Q141.168 30.5304 140.583 30.5304Q122.422 30.5304 104.866 27.0902Q87.3105 23.65 71.3121 17.5693Q55.3136 11.4887 41.8745 3.61008Q28.4354-4.26851 18.5184-13.0649Q18.1698-13.4223 17.5692-13.4689Q16.9687-13.5154 16.6023-13.2257ZM19.0008 8.383Q23.3792 8.383 28.267 7.065Q33.1547 5.747 36.5936 2.95534L28.9244-2.66011Q27.6734-0.488772 26.058 1.16877Q24.4425 2.8263 22.5419 3.94584Q20.6412 5.06538 18.4021 5.74826Q17.9017 5.86446 17.679 6.30233Q17.4563 6.7402 17.4333 7.16772Q17.5048 7.6197 17.8711 8.00135Q18.2375 8.383 19.0008 8.383Z"/>
  </g>
  <g id="Black-M" transform="matrix(1 0 0 1 2857.97 1126)">
   <path d="M95.0141-68.6898Q100.125-68.6898 103.735-72.3282Q107.344-75.9667 107.344-81.0204Q107.344-86.1364 103.735-89.7434Q100.125-93.3504 95.0141-93.3504Q89.9552-93.3504 86.3196-89.7434Q82.684-86.1364 82.684-81.0204Q82.684-75.9667 86.3196-72.3282Q89.9552-68.6898 95.0141-68.6898ZM56.8828-0.825708Q58.9653 0.638635 61.5958 0.241467Q64.2262-0.155701 65.7532-2.23845L77.5857-18.7461L86.6882-17.2187L76.2882-1.68689Q74.8238 0.514982 75.312 3.17675Q75.8001 5.83851 78.1788 7.24084Q80.8744 8.7727 83.2921 8.12877Q85.7097 7.48485 87.0546 5.4073L102.45-17.7589Q104.289-20.5111 103.279-23.9415Q102.268-27.372 98.2902-28.3483L77.1081-33.4439Q76.2455-33.6468 75.9752-34.3406Q75.7049-35.0344 76.1832-35.7666L85.0652-49.1212Q85.554-49.8287 86.2612-49.3345L99.2414-40.4522Q100.342-39.7149 101.744-39.4135L130.811-34.0794Q133.138-33.6482 135.522-35.0528Q137.906-36.4575 138.337-39.3296Q138.706-41.9007 137.207-44.1314Q135.709-46.3621 133.138-46.7933L105.416-51.8263L63.7996-80.1822L74.8432-88.1455Q77.0454-89.7347 77.5024-92.3653Q77.9594-94.9959 76.3753-97.0784Q74.838-99.218 72.1816-99.7063Q69.5252-100.195 67.3853-98.6051L48.8783-85.3811Q46.1258-83.4178 46.1231-80.086Q46.1203-76.7542 48.9977-74.7961L64.7103-64.0496Q65.4694-63.5553 64.9235-62.8588L51.813-43.7339Q48.8525-39.4181 49.0369-34.6058Q49.2214-29.7935 52.3094-26.0928Q55.3974-22.392 61.2561-21.4678L63.3971-21.13L55.3559-9.82095Q53.8235-7.61908 54.2235-4.98846Q54.6236-2.35785 56.8828-0.825708ZM13.9797-17.3437Q12.8145-15.9556 12.7179-13.9818Q12.6212-12.0081 14.4988-10.3693Q23.7448-2.17789 36.3098 5.17202Q48.8749 12.5219 63.8012 18.1709Q78.7274 23.8199 95.1078 27.0768Q111.488 30.3337 128.308 30.3337Q130.305 30.3337 131.722 28.9168Q133.139 27.4998 133.139 25.5081Q133.139 23.5109 131.722 22.0938Q130.305 20.6767 128.308 20.6767Q112.336 20.6767 96.8293 17.633Q81.3225 14.5894 67.2727 9.27339Q53.2229 3.95737 41.3832-2.97406Q29.5435-9.90549 20.7812-17.6759Q18.9764-19.2984 17.084-19.0073Q15.1916-18.7162 13.9797-17.3437ZM17.6252 10.7082Q21.117 10.7082 26.11 9.18391Q31.103 7.65958 35.9636 4.42373L25.0218-7.1178Q23.5243-4.75041 22.2293-3.31286Q20.9344-1.87531 19.3126-0.709325Q17.6909 0.456658 15.1306 1.98037Q13.3614 3.07343 12.81 4.75829Q12.2585 6.44315 12.8569 7.85352Q13.3299 9.00804 14.5418 9.85814Q15.7537 10.7082 17.6252 10.7082Z"/>
  </g>
  <g id="Heavy-M" transform="matrix(1 0 0 1 2562.46 1126)">
   <path d="M92.9006-67.9121Q97.8318-67.9121 101.334-71.4354Q104.837-74.9588 104.837-79.8463Q104.837-84.7962 101.334-88.2907Q97.8318-91.7852 92.9006-91.7852Q87.9944-91.7852 84.4781-88.2907Q80.9618-84.7962 80.9618-79.8463Q80.9618-74.9588 84.4781-71.4354Q87.9944-67.9121 92.9006-67.9121ZM55.9385-1.17565Q57.9216 0.205311 60.4164-0.171645Q62.9112-0.548601 64.3521-2.52938L76.1117-18.9436L85.6507-17.343L75.1645-1.68902Q73.7835 0.39994 74.2435 2.92474Q74.7034 5.44954 76.9396 6.7659Q79.5038 8.22781 81.7992 7.61213Q84.0946 6.99644 85.3696 5.03438L100.545-17.8268Q102.295-20.4391 101.337-23.7031Q100.379-26.9671 96.5996-27.8869L75.688-32.9217Q74.6958-33.1623 74.3741-33.9521Q74.0524-34.7419 74.6335-35.5954L83.4014-48.775Q84.0198-49.6879 84.9349-49.0531L97.7453-40.2874Q98.7921-39.5771 100.108-39.3053L128.793-34.0564Q131.005-33.6412 133.259-34.9692Q135.514-36.2972 135.93-39.0109Q136.282-41.4504 134.863-43.5589Q133.444-45.6674 131.005-46.0826L103.592-51.0573L62.1932-79.2872L73.3794-87.3385Q75.4661-88.8418 75.8949-91.3354Q76.3237-93.8291 74.8391-95.8121Q73.3607-97.8388 70.8535-98.2976Q68.3462-98.7564 66.3218-97.2554L48.0616-84.2122Q45.4515-82.3374 45.4433-79.1855Q45.4351-76.0337 48.1675-74.1776L63.6705-63.5637Q64.6106-62.9289 63.9486-62.0489L50.9995-43.1843Q48.1301-39.0024 48.3065-34.3361Q48.4829-29.6697 51.484-26.084Q54.4851-22.4984 60.1617-21.6012L62.6672-21.1986L54.4976-9.71156Q53.0402-7.6226 53.4242-5.12895Q53.8083-2.6353 55.9385-1.17565ZM13.8464-17.5677Q12.7555-16.3187 12.6572-14.5184Q12.559-12.7181 14.2576-11.2313Q23.3575-3.16744 35.7232 4.05873Q48.0889 11.2849 62.7828 16.849Q77.4767 22.413 93.5939 25.6155Q109.711 28.8179 126.273 28.8179Q128.075 28.8179 129.344 27.5494Q130.612 26.2809 130.612 24.495Q130.612 22.6928 129.344 21.4254Q128.075 20.1581 126.273 20.1581Q110.476 20.1581 95.1391 17.1516Q79.8018 14.1451 65.8949 8.8807Q51.988 3.61627 40.2768-3.24371Q28.5656-10.1037 19.9013-17.792Q18.3023-19.2273 16.6229-18.9939Q14.9435-18.7605 13.8464-17.5677ZM17.3438 8.81866Q20.7078 8.81866 25.4683 7.38703Q30.2288 5.9554 34.8579 2.90751L24.7179-7.67981Q23.2408-5.47413 21.9757-4.09883Q20.7106-2.72354 19.1566-1.60855Q17.6026-0.493547 15.1981 0.912812Q13.5726 1.89947 13.0583 3.39707Q12.5441 4.89468 13.0623 6.20695Q13.4628 7.26275 14.5599 8.04071Q15.657 8.81866 17.3438 8.81866Z"/>
  </g>
  <g id="Bold-M" transform="matrix(1 0 0 1 2267.1 1126)">
   <path d="M90.5365-67.0421Q95.2667-67.0421 98.6496-70.4367Q102.032-73.8312 102.032-78.533Q102.032-83.297 98.6496-86.6656Q95.2667-90.0342 90.5365-90.0342Q85.801-90.0342 82.4182-86.6656Q79.0353-83.297 79.0353-78.533Q79.0353-73.8312 82.4182-70.4367Q85.801-67.0421 90.5365-67.0421ZM54.8822-1.56711Q56.754-0.279424 59.097-0.633769Q61.4401-0.988115 62.7849-2.85483L74.4629-19.1645L84.4901-17.4821L73.9075-1.6914Q72.6198 0.271249 73.0482 2.64283Q73.4766 5.01441 75.5535 6.23462Q77.9706 7.61828 80.1293 7.03418Q82.288 6.45008 83.4847 4.61721L98.4131-17.9027Q100.064-20.3585 99.1647-23.4363Q98.2651-26.5141 94.7084-27.3708L74.0995-32.3374Q72.9622-32.6205 72.5831-33.5176Q72.204-34.4147 72.8999-35.4038L81.5402-48.3877Q82.3036-49.5303 83.4513-48.7383L96.0717-40.1031Q97.0582-39.423 98.2783-39.1842L126.536-34.0306Q128.618-33.6334 130.729-34.8756Q132.839-36.1179 133.237-38.6543Q133.572-40.9468 132.241-42.9186Q130.91-44.8904 128.618-45.2876L101.552-50.197L60.3962-78.2861L71.742-86.4358Q73.6995-87.8429 74.0967-90.1834Q74.4939-92.5238 73.1206-94.3956Q71.7082-96.2959 69.3678-96.7217Q67.0274-97.1475 65.1321-95.7456L47.148-82.9046Q44.6973-81.1288 44.6829-78.1782Q44.6686-75.2277 47.2388-73.4857L62.5074-63.0202Q63.6499-62.2282 62.8579-61.1428L50.0895-42.5694Q47.322-38.5375 47.4894-34.0343Q47.6569-29.5312 50.5608-26.0743Q53.4647-22.6174 58.9375-21.7504L61.8508-21.2752L53.5374-9.58919Q52.164-7.62654 52.5301-5.28611Q52.8962-2.94568 54.8822-1.56711ZM13.6972-17.8182Q12.6895-16.725 12.5894-15.1187Q12.4893-13.5124 13.9879-12.1956Q22.9242-4.2744 35.0669 2.81337Q47.2096 9.90114 61.6435 15.3702Q76.0775 20.8393 91.9004 23.9808Q107.723 27.1223 123.997 27.1223Q125.581 27.1223 126.683 26.0198Q127.786 24.9174 127.786 23.3618Q127.786 21.7776 126.683 20.6778Q125.581 19.5779 123.997 19.5779Q108.396 19.5779 93.2484 16.613Q78.1006 13.6482 64.3536 8.44143Q50.6066 3.23469 39.0391-3.54535Q27.4716-10.3254 18.9171-17.922Q17.5484-19.1478 16.1071-18.979Q14.6659-18.8101 13.6972-17.8182ZM17.029 6.70489Q20.2501 6.70489 24.7505 5.37695Q29.2508 4.04902 33.621 1.21141L24.378-8.30851Q22.9237-6.2837 21.692-4.97806Q20.4603-3.67242 18.9821-2.61445Q17.5038-1.55649 15.2737-0.2814Q13.8088 0.586222 13.3361 1.87435Q12.8635 3.16248 13.292 4.36503Q13.6114 5.3104 14.5802 6.00764Q15.5489 6.70489 17.029 6.70489Z"/>
  </g>
  <g id="Semibold-M" transform="matrix(1 0 0 1 1971.32 1126)">
   <path d="M88.9067-66.4424Q93.4984-66.4424 96.7987-69.7482Q100.099-73.0539 100.099-77.6276Q100.099-82.2635 96.7987-85.5453Q93.4984-88.8271 88.9067-88.8271Q84.2889-88.8271 80.9981-85.5453Q77.7072-82.2635 77.7072-77.6276Q77.7072-73.0539 80.9981-69.7482Q84.2889-66.4424 88.9067-66.4424ZM54.154-1.83698Q55.9491-0.613597 58.1875-0.952355Q60.4259-1.29111 61.7044-3.07919L73.3261-19.3168L83.69-17.578L73.041-1.69305Q71.8176 0.182531 72.2242 2.44849Q72.6308 4.71444 74.5979 5.86835Q76.9135 7.19807 78.978 6.63575Q81.0425 6.07342 82.1853 4.32962L96.9436-17.955Q98.5266-20.303 97.6673-23.2524Q96.808-26.2019 93.4047-27.015L73.0043-31.9347Q71.7671-32.2469 71.3484-33.218Q70.9296-34.1891 71.7048-35.2718L80.257-48.1207Q81.1204-49.4217 82.4285-48.5213L94.9179-39.9761Q95.8628-39.3167 97.0166-39.1007L124.98-34.0129Q126.973-33.628 128.984-34.8111Q130.995-35.9942 131.38-38.4085Q131.703-40.5996 130.433-42.4771Q129.164-44.3547 126.973-44.7395L100.146-49.6039L59.1573-77.5959L70.6131-85.8135Q72.4816-87.1543 72.857-89.3891Q73.2325-91.6239 71.9358-93.419Q70.569-95.2323 68.3436-95.6353Q66.1182-96.0384 64.312-94.7047L46.5181-82.0032Q44.1773-80.2956 44.1587-77.4838Q44.1402-74.672 46.5986-73.0087L61.7056-62.6455Q62.9876-61.7451 62.1061-60.5182L49.4622-42.1454Q46.7649-38.2169 46.9261-33.8263Q47.0874-29.4356 49.9243-26.0676Q52.7612-22.6995 58.0935-21.8532L61.288-21.3281L52.8755-9.50483Q51.56-7.62925 51.9137-5.39445Q52.2674-3.15965 54.154-1.83698ZM13.5943-17.9909Q12.644-17.005 12.5426-15.5325Q12.4413-14.06 13.8019-12.8603Q22.6255-5.03753 34.6144 1.95482Q46.6034 8.94717 60.8582 14.3508Q75.1129 19.7544 90.733 22.8538Q106.353 25.9533 122.428 25.9533Q123.861 25.9533 124.849 24.9654Q125.837 23.9774 125.837 22.5806Q125.837 21.1467 124.849 20.1623Q123.861 19.178 122.428 19.178Q106.962 19.178 91.9449 16.2418Q76.9279 13.3055 63.2911 8.13859Q49.6543 2.97164 38.1858-3.75331Q26.7174-10.4782 18.2386-18.0115Q17.0286-19.093 15.7516-18.9687Q14.4746-18.8443 13.5943-17.9909ZM16.812 5.24767Q19.9346 5.24767 24.2556 3.99122Q28.5766 2.73477 32.7683 0.0421263L24.1436-8.74192Q22.7052-6.84182 21.4964-5.58419Q20.2877-4.32656 18.8617-3.30792Q17.4358-2.28927 15.3258-1.10468Q13.9716-0.319122 13.5277 0.824598Q13.0837 1.96832 13.4504 3.09522Q13.7139 3.96446 14.5941 4.60607Q15.4744 5.24767 16.812 5.24767Z"/>
  </g>
  <g id="Medium-M" transform="matrix(1 0 0 1 1675.31 1126)">
   <path d="M87.6709-65.9877Q92.1576-65.9877 95.3952-69.2261Q98.6328-72.4645 98.6328-76.9411Q98.6328-81.4798 95.3952-84.6958Q92.1576-87.9118 87.6709-87.9118Q83.1424-87.9118 79.9213-84.6958Q76.7002-81.4798 76.7002-76.9411Q76.7002-72.4645 79.9213-69.2261Q83.1424-65.9877 87.6709-65.9877ZM53.6018-2.0416Q55.3388-0.866981 57.4979-1.19392Q59.6569-1.52086 60.8852-3.24931L72.4642-19.4323L83.0833-17.6507L72.3839-1.69429Q71.2093 0.11526 71.5994 2.30113Q71.9895 4.48699 73.8733 5.59064Q76.1121 6.87945 78.1051 6.33364Q80.0981 5.78783 81.2 4.11155L95.8294-17.9947Q97.3606-20.2609 96.5319-23.113Q95.7032-25.9651 92.4161-26.7452L72.1739-31.6293Q70.8609-31.9636 70.4121-32.9908Q69.9634-34.018 70.7986-35.1716L79.2841-47.9183Q80.2233-49.3394 81.6529-48.3568L94.0431-39.8798Q94.9565-39.2362 96.06-39.0374L123.8-33.9994Q125.725-33.624 127.661-34.7622Q129.597-35.9005 129.972-38.2221Q130.286-40.3363 129.062-42.1424Q127.839-43.9485 125.725-44.3239L99.079-49.1542L58.218-77.0725L69.7572-85.3416Q71.5581-86.6322 71.9171-88.7869Q72.276-90.9416 71.0375-92.6786Q69.7052-94.4258 67.567-94.8116Q65.4288-95.1974 63.6901-93.9155L46.0406-81.3196Q43.783-79.6638 43.7612-76.9572Q43.7395-74.2507 46.1131-72.647L61.0976-62.3614Q62.4854-61.3788 61.536-60.0446L48.9865-41.824Q46.3425-37.9739 46.499-33.6685Q46.6556-29.3632 49.4417-26.0625Q52.2278-22.7617 57.4536-21.9312L60.8612-21.3682L52.3736-9.44087Q51.102-7.63131 51.4463-5.4766Q51.7907-3.32189 53.6018-2.0416ZM13.5164-18.1219Q12.6095-17.2174 12.5072-15.8463Q12.4049-14.4751 13.6609-13.3643Q22.399-5.61617 34.2714 1.30383Q46.1437 8.22383 60.2627 13.5778Q74.3816 18.9318 89.8477 21.9993Q105.314 25.0669 121.238 25.0669Q122.558 25.0669 123.459 24.1658Q124.36 23.2647 124.36 21.9882Q124.36 20.6683 123.459 19.7715Q122.558 18.8747 121.238 18.8747Q105.874 18.8747 90.9565 15.9603Q76.0386 13.0458 62.4854 7.90897Q48.9322 2.77218 37.5389-3.91098Q26.1456-10.5941 17.7241-18.0795Q16.6345-19.0514 15.482-18.9608Q14.3295-18.8703 13.5164-18.1219ZM16.6475 4.14274Q19.6954 4.14274 23.8803 2.9405Q28.0653 1.73826 32.1217-0.844473L23.9659-9.07056Q22.5394-7.26501 21.3482-6.04379Q20.1569-4.82257 18.7705-3.83373Q17.3841-2.8449 15.3653-1.72893Q14.0951-1.00559 13.6729 0.0286309Q13.2507 1.06285 13.5705 2.1324Q13.7916 2.94391 14.6047 3.54333Q15.4178 4.14274 16.6475 4.14274Z"/>
  </g>
  <g id="Regular-M" transform="matrix(1 0 0 1 1379.51 1126)">
   <path d="M86.0589-65.3945Q90.4086-65.3945 93.5646-68.5451Q96.7206-71.6958 96.7206-76.0457Q96.7206-80.4577 93.5646-83.5878Q90.4086-86.7179 86.0589-86.7179Q81.6469-86.7179 78.5168-83.5878Q75.3867-80.4577 75.3867-76.0457Q75.3867-71.6958 78.5168-68.5451Q81.6469-65.3945 86.0589-65.3945ZM52.8816-2.30851Q54.5427-1.19748 56.5983-1.50901Q58.6539-1.82053 59.8166-3.4712L71.34-19.5829L82.292-17.7455L71.5269-1.69592Q70.4159 0.0275166 70.7845 2.10892Q71.1531 4.19031 72.9282 5.2284Q75.0667 6.46386 76.9665 5.93958Q78.8663 5.41531 79.9148 3.82712L94.376-18.0464Q95.8398-20.206 95.0509-22.9311Q94.2621-25.6562 91.1267-26.3933L71.0908-31.231Q69.6789-31.5941 69.191-32.6945Q68.7031-33.7949 69.6166-35.041L78.0151-47.6542Q79.0532-49.2319 80.6414-48.1422L92.902-39.7541Q93.7743-39.1311 94.8122-38.9548L122.261-33.9818Q124.098-33.6186 125.935-34.6984Q127.773-35.7782 128.136-37.979Q128.437-39.9929 127.275-41.7057Q126.112-43.4186 124.098-43.7818L97.6878-48.5677L56.9927-76.3899L68.6408-84.7261Q70.3536-85.9511 70.691-88.0014Q71.0285-90.0516 69.8658-91.7128Q68.5785-93.3739 66.5541-93.7372Q64.5296-94.1005 62.879-92.8861L45.4176-80.4281Q43.2687-78.8397 43.2428-76.2704Q43.2169-73.7011 45.48-72.1753L60.3045-61.9908Q61.8304-60.9011 60.7923-59.4268L48.3661-41.4048Q45.7915-37.6568 45.9419-33.4628Q46.0924-29.2688 48.8122-26.0558Q51.532-22.8429 56.6189-22.0329L60.3045-21.4205L51.7189-9.35743Q50.5046-7.634 50.8367-5.58375Q51.1688-3.53351 52.8816-2.30851ZM13.4146-18.2927Q12.5645-17.4943 12.4609-16.2555Q12.3574-15.0167 13.4769-14.0218Q22.1036-6.37091 33.8239 0.454721Q45.5442 7.28035 59.4859 12.5696Q73.4276 17.8587 88.6931 20.8848Q103.959 23.9108 119.686 23.9108Q120.857 23.9108 121.645 23.1229Q122.433 22.335 122.433 21.2155Q122.433 20.0443 121.645 19.2617Q120.857 18.4792 119.686 18.4792Q104.456 18.4792 89.6674 15.5931Q74.8788 12.7069 61.4345 7.60947Q47.9903 2.51201 36.695-4.11665Q25.3997-10.7453 17.053-18.1681Q16.1204-18.9972 15.1303-18.9506Q14.1402-18.9041 13.4146-18.2927ZM16.4329 2.70154Q19.3833 2.70154 23.3909 1.57Q27.3985 0.438454 31.2784-2.00091L23.7342-9.49922Q22.3232-7.81699 21.1547-6.64326Q19.9862-5.46953 18.6515-4.51958Q17.3168-3.56963 15.4169-2.54317Q14.2562-1.90099 13.8623-1.00959Q13.4684-0.118188 13.7271 0.876548Q13.893 1.61276 14.6185 2.15715Q15.3441 2.70154 16.4329 2.70154Z"/>
  </g>
  <g id="Light-M" transform="matrix(1 0 0 1 1084.59 1126)">
   <path d="M83.4581-64.248Q87.6879-64.248 90.7583-67.3045Q93.8287-70.361 93.8287-74.5913Q93.8287-78.8834 90.7583-81.9366Q87.6879-84.9899 83.4581-84.9899Q79.1659-84.9899 76.1127-81.9366Q73.0595-78.8834 73.0595-74.5913Q73.0595-70.361 76.1127-67.3045Q79.1659-64.248 83.4581-64.248ZM51.3416-3.02722Q52.9685-1.93315 54.9727-2.24468Q56.977-2.5562 58.1055-4.1557L69.321-19.8224L79.9479-18.0364L69.5079-2.43159Q68.4138-0.742367 68.774 1.27909Q69.1341 3.30055 70.8577 4.30442Q72.9278 5.52263 74.7763 5.00698Q76.6247 4.49134 77.656 2.95461L91.7237-18.3201Q93.1363-20.4454 92.3816-23.0937Q91.627-25.7419 88.56-26.4617L69.0718-31.1625Q67.6941-31.5085 67.2233-32.5747Q66.7525-33.6408 67.6318-34.8869L75.8078-47.1407Q76.8117-48.6501 78.3484-47.6118L90.2842-39.4632Q91.1564-38.8401 92.1598-38.6811L118.856-33.8277Q120.642-33.4818 122.428-34.5445Q124.214-35.6072 124.56-37.7395Q124.844-39.685 123.715-41.3465Q122.587-43.0081 120.642-43.3541L94.9501-48.02L55.3501-75.0896L66.6902-83.2033Q68.3515-84.3941 68.6805-86.3844Q69.0095-88.3747 67.881-90.0017Q66.6279-91.6286 64.6548-91.9747Q62.6817-92.3209 61.0822-91.158L44.1001-79.0079Q42.0026-77.4707 41.9852-74.9785Q41.9678-72.4862 44.1624-71.0118L58.5765-61.0838Q60.0509-60.0455 59.047-58.6055L46.9801-41.0627Q44.4739-37.4001 44.6158-33.3258Q44.7576-29.2515 47.3919-26.1327Q50.0262-23.0139 54.9762-22.204L58.5765-21.6088L50.2131-9.88784Q49.0502-8.19862 49.3652-6.20831Q49.6802-4.21801 51.3416-3.02722ZM13.2436-18.2585Q12.5302-17.58 12.4609-16.5551Q12.3916-15.5301 13.3059-14.7405Q21.6758-7.31213 33.0539-0.683286Q44.4319 5.94556 57.9459 11.0723Q71.4598 16.1991 86.2719 19.131Q101.084 22.0629 116.349 22.0629Q117.298 22.0629 117.949 21.4118Q118.6 20.7608 118.6 19.8465Q118.6 18.8978 117.949 18.2607Q117.298 17.6236 116.349 17.6236Q101.479 17.6236 87.058 14.8059Q72.6372 11.9882 59.5182 7.01049Q46.3991 2.03277 35.3775-4.43331Q24.3558-10.8994 16.2147-18.1339Q15.4874-18.7919 14.6598-18.771Q13.8323-18.75 13.2436-18.2585ZM15.9025 1.41821Q18.9897 1.41821 22.9289 0.320876Q26.8681-0.776455 30.3714-3.13015L23.3236-9.65331Q22.0495-7.97108 20.8553-6.76314Q19.6611-5.5552 18.2837-4.63084Q16.9063-3.70648 15.0575-2.8341Q14.1363-2.36297 13.811-1.64263Q13.4857-0.922282 13.6587-0.133097Q13.7903 0.483526 14.3791 0.950866Q14.9678 1.41821 15.9025 1.41821Z"/>
  </g>
  <g id="Thin-M" transform="matrix(1 0 0 1 790.245 1126)">
   <path d="M80.0182-62.7317Q84.0895-62.7317 87.0468-65.6637Q90.0041-68.5956 90.0041-72.6677Q90.0041-76.8013 87.0468-79.7528Q84.0895-82.7043 80.0182-82.7043Q75.8846-82.7043 72.9331-79.7528Q69.9816-76.8013 69.9816-72.6677Q69.9816-68.5956 72.9331-65.6637Q75.8846-62.7317 80.0182-62.7317ZM49.3047-3.97777Q50.8864-2.90614 52.8228-3.21766Q54.7591-3.52919 55.8424-5.06101L66.6507-20.1391L76.8476-18.4212L66.8376-3.40458Q65.766-1.7606 66.1149 0.181582Q66.4638 2.12376 68.1194 3.08239Q70.0989 4.27779 71.8795 3.77355Q73.6602 3.26931 74.6686 1.80063L88.2158-18.6821Q89.5607-20.7622 88.8513-23.3087Q88.1419-25.8552 85.1654-26.5522L66.4015-31.072Q65.069-31.3952 64.6209-32.4161Q64.1727-33.437 65.0067-34.6831L72.8884-46.4617Q73.8471-47.8805 75.3157-46.9103L86.8219-39.0784Q87.6941-38.4553 88.6519-38.3191L114.352-33.6239Q116.07-33.3008 117.788-34.3409Q119.507-35.3809 119.83-37.4228Q120.092-39.2777 119.008-40.8714Q117.925-42.4652 116.07-42.7883L91.3293-47.2957L53.1775-73.3699L64.1104-81.1893Q65.7037-82.3348 66.0214-84.2459Q66.3392-86.1569 65.2559-87.7386Q64.0481-89.3202 62.1429-89.6438Q60.2376-89.9674 58.7058-88.8725L42.3576-77.1296Q40.3281-75.6601 40.3219-73.2698Q40.3157-70.8794 42.4199-69.4731L56.291-59.8842Q57.6973-58.914 56.7387-57.5192L45.1471-40.6102Q42.7314-37.0606 42.8618-33.1446Q42.9922-29.2287 45.5134-26.2344Q48.0346-23.2402 52.8036-22.4302L56.291-21.8579L48.2215-10.5894Q47.1266-8.94537 47.419-7.03434Q47.7114-5.12331 49.3047-3.97777ZM13.0174-18.2132Q12.485-17.6933 12.4609-16.9513Q12.4369-16.2092 13.0797-15.6911Q21.1101-8.55698 32.0355-2.18839Q42.9609 4.18019 55.909 9.09214Q68.8572 14.0041 83.0696 16.8114Q97.2821 19.6188 111.937 19.6188Q112.591 19.6188 113.061 19.1487Q113.531 18.6787 113.531 18.0359Q113.531 17.3815 113.061 16.9368Q112.591 16.4921 111.937 16.4921Q97.5412 16.4921 83.6069 13.7649Q69.6727 11.0377 56.9836 6.2183Q44.2945 1.39894 33.6349-4.85213Q22.9753-11.1032 15.106-18.0886Q14.6501-18.5204 14.0376-18.5333Q13.4251-18.5462 13.0174-18.2132ZM15.201-0.279102Q18.4692-0.279102 22.3179-1.33119Q26.1666-2.38327 29.1718-4.62366L22.7807-9.85711Q21.6876-8.17488 20.4593-6.92169Q19.2311-5.6685 17.7972-4.77798Q16.3633-3.88746 14.5823-3.21889Q13.9777-2.97399 13.7431-2.47988Q13.5085-1.98576 13.5682-1.46843Q13.6546-1.00998 14.0623-0.644543Q14.4701-0.279102 15.201-0.279102Z"/>
  </g>
  <g id="Ultralight-M" transform="matrix(1 0 0 1 494.746 1126)">
   <path d="M78.2563-61.955Q82.2464-61.955 85.1458-64.8232Q88.0451-67.6914 88.0451-71.6825Q88.0451-75.7349 85.1458-78.6343Q82.2464-81.5337 78.2563-81.5337Q74.2039-81.5337 71.3045-78.6343Q68.4051-75.7349 68.4051-71.6825Q68.4051-67.6914 71.3045-64.8232Q74.2039-61.955 78.2563-61.955ZM48.2615-4.46464Q49.82-3.4045 51.7216-3.71602Q53.6232-4.02755 54.6832-5.5247L65.283-20.3013L75.2596-18.6183L65.4699-3.90294Q64.4098-2.28213 64.7529-0.380556Q65.0961 1.52102 66.7168 2.45647Q68.65 3.64018 70.3959 3.14179Q72.1417 2.64339 73.1385 1.20958L86.419-18.8675Q87.7293-20.9244 87.043-23.4188Q86.3568-25.9133 83.4267-26.5985L65.0338-31.0257Q63.7245-31.3371 63.2879-32.3349Q62.8513-33.3326 63.6622-34.5787L71.3932-46.1139Q72.3286-47.4863 73.7624-46.5509L85.0485-38.8813Q85.9208-38.2582 86.8552-38.1337L112.046-33.5196Q113.729-33.2081 115.412-34.2366Q117.096-35.2651 117.407-37.2606Q117.657-39.0692 116.597-40.6281Q115.537-42.1871 113.729-42.4985L89.4747-46.9247L52.0647-72.489L62.789-80.1577Q64.3475-81.2801 64.6595-83.1505Q64.9715-85.0209 63.9114-86.5794Q62.7267-88.1379 60.8563-88.4499Q58.9858-88.7619 57.4886-87.7019L41.465-76.1676Q39.4705-74.7327 39.47-72.3946Q39.4695-70.0564 41.5273-68.6849L55.1203-59.2698Q56.4918-58.3344 55.5564-56.9628L44.2082-40.3785Q41.8389-36.8867 41.9634-33.0518Q42.088-29.217 44.5512-26.2865Q47.0145-23.356 51.6909-22.5461L55.1203-21.9854L47.2014-10.9487Q46.1414-9.32786 46.4222-7.45743Q46.703-5.58701 48.2615-4.46464ZM12.9015-18.19Q12.4618-17.7513 12.4609-17.1542Q12.4601-16.557 12.9638-16.1779Q20.8203-9.19458 31.5138-2.9593Q42.2074 3.27598 54.8657 8.07789Q67.5241 12.8798 81.4295 15.6234Q95.3349 18.367 109.676 18.367Q110.18 18.367 110.557 17.9896Q110.935 17.6122 110.935 17.1085Q110.935 16.6049 110.557 16.2587Q110.18 15.9125 109.676 15.9125Q95.5244 15.9125 81.8393 13.2317Q68.1542 10.5508 55.6854 5.81254Q43.2166 1.0743 32.7424-5.06664Q22.2681-11.2076 14.5381-18.0654Q14.2213-18.3814 13.7189-18.4116Q13.2165-18.4418 12.9015-18.19ZM14.8417-1.14845Q18.2026-1.14845 22.0049-2.17736Q25.8073-3.20627 28.5574-5.38862L22.5026-9.96149Q21.5022-8.27926 20.2565-7.0029Q19.0108-5.72654 17.548-4.85335Q16.0852-3.98016 14.3388-3.41597Q13.8965-3.28695 13.7084-2.90871Q13.5202-2.53047 13.5219-2.15239Q13.5851-1.77495 13.9001-1.4617Q14.2152-1.14845 14.8417-1.14845Z"/>
  </g>
  <g id="Black-S" transform="matrix(1 0 0 1 2874.03 696)">
   <path d="M74.9512-61.6211Q79.0039-61.6211 81.8604-64.502Q84.7168-67.3828 84.7168-71.3867Q84.7168-75.4395 81.8604-78.2959Q79.0039-81.1523 74.9512-81.1523Q70.9473-81.1523 68.0664-78.2959Q65.1855-75.4395 65.1855-71.3867Q65.1855-67.3828 68.0664-64.502Q70.9473-61.6211 74.9512-61.6211ZM44.7754-8.20312Q46.4355-7.03125 48.5352-7.34863Q50.6348-7.66602 51.8555-9.32617L61.1328-22.2656L68.1152-21.0938L60.0098-8.98438Q58.8379-7.22656 59.2285-5.10254Q59.6191-2.97852 61.5234-1.85547Q63.6719-0.634766 65.6006-1.14746Q67.5293-1.66016 68.6035-3.32031L80.7129-21.5332Q82.1777-23.7305 81.3721-26.4648Q80.5664-29.1992 77.3926-29.9805L60.7422-33.9844Q60.1074-34.1309 59.9121-34.6436Q59.7168-35.1562 60.0586-35.6934L67.041-46.1914Q67.3828-46.6797 67.8711-46.3379L78.0762-39.3555Q78.9551-38.7695 80.0781-38.5254L102.93-34.3262Q104.785-33.9844 106.689-35.1074Q108.594-36.2305 108.936-38.5254Q109.229-40.5762 108.032-42.3584Q106.836-44.1406 104.785-44.4824L83.0078-48.4375L50.3906-70.6543L58.9844-76.8555Q60.7422-78.125 61.1084-80.2246Q61.4746-82.3242 60.2051-83.9844Q58.9844-85.6934 56.8604-86.084Q54.7363-86.4746 53.0273-85.2051L38.4766-74.8047Q36.2793-73.2422 36.2793-70.5811Q36.2793-67.9199 38.5742-66.3574L50.9277-57.9102Q51.4648-57.5684 51.0742-57.0801L40.7715-42.041Q38.4277-38.623 38.5742-34.8145Q38.7207-31.0059 41.1621-28.0762Q43.6035-25.1465 48.2422-24.4141L49.8047-24.1699L43.5547-15.3809Q42.334-13.623 42.6514-11.5234Q42.9688-9.42383 44.7754-8.20312ZM10.9863-21.1426Q10.0586-20.0195 9.98535-18.4326Q9.91211-16.8457 11.4258-15.5273Q18.7012-9.08203 28.5889-3.2959Q38.4766 2.49023 50.2197 6.93359Q61.9629 11.377 74.8535 13.9404Q87.7441 16.5039 100.977 16.5039Q102.588 16.5039 103.735 15.3564Q104.883 14.209 104.883 12.5977Q104.883 10.9863 103.735 9.83887Q102.588 8.69141 100.977 8.69141Q88.4277 8.69141 76.2451 6.29883Q64.0625 3.90625 53.0273-0.268555Q41.9922-4.44336 32.6904-9.8877Q23.3887-15.332 16.5039-21.4355Q15.0391-22.7539 13.501-22.5098Q11.9629-22.2656 10.9863-21.1426ZM13.8672 1.26953Q16.6504 1.26953 20.6299 0.0488281Q24.6094-1.17188 28.4668-3.75977L19.6777-13.0371Q18.5059-11.1328 17.4805-9.98535Q16.4551-8.83789 15.1611-7.91016Q13.8672-6.98242 11.8164-5.76172Q10.4004-4.88281 9.96094-3.51562Q9.52148-2.14844 10.0098-1.02539Q10.4004-0.0976562 11.377 0.585938Q12.3535 1.26953 13.8672 1.26953Z"/>
  </g>
  <g id="Heavy-S" transform="matrix(1 0 0 1 2578.11 696)">
   <path d="M73.476-61.1025Q77.3905-61.1025 80.1663-63.8969Q82.942-66.6913 82.942-70.5685Q82.942-74.4944 80.1663-77.2645Q77.3905-80.0345 73.476-80.0345Q69.5874-80.0345 66.7987-77.2645Q64.0101-74.4944 64.0101-70.5685Q64.0101-66.6913 66.7987-63.8969Q69.5874-61.1025 73.476-61.1025ZM44.1646-8.41057Q45.7441-7.30784 47.7342-7.60793Q49.7243-7.90803 50.8759-9.48751L60.1302-22.4039L67.5275-21.1629L59.3068-8.89218Q58.204-7.22656 58.5716-5.21202Q58.9392-3.19748 60.7282-2.14358Q62.773-0.9805 64.6037-1.47015Q66.4345-1.95979 67.4511-3.52775L79.4222-21.5563Q80.8178-23.6383 80.0525-26.2401Q79.2872-28.842 76.2747-29.5771L59.7857-33.5464Q59.0356-33.7275 58.7942-34.3266Q58.5528-34.9258 58.9868-35.5666L65.9001-45.9609Q66.3571-46.6336 67.0298-46.165L77.1312-39.2517Q77.964-38.6889 79.0179-38.4678L101.639-34.3262Q103.402-33.9959 105.203-35.0556Q107.003-36.1152 107.334-38.2834Q107.615-40.2304 106.482-41.9147Q105.349-43.599 103.402-43.9292L81.7977-47.8498L49.2267-70.055L57.9817-76.3599Q59.6474-77.5603 59.9905-79.5504Q60.3337-81.5406 59.1448-83.12Q57.9702-84.7368 55.9672-85.1044Q53.9642-85.472 52.3474-84.2716L37.9464-73.9865Q35.8644-72.4931 35.8587-69.976Q35.8529-67.4589 38.0326-65.9771L50.2593-57.6105Q50.9578-57.142 50.4634-56.4923L40.2529-41.6146Q37.9783-38.3004 38.119-34.6013Q38.2597-30.9021 40.6377-28.0589Q43.0158-25.2156 47.5161-24.5063L49.4013-24.2045L43.013-15.2195Q41.85-13.5539 42.1558-11.5638Q42.4617-9.57365 44.1646-8.41057ZM10.8941-21.3385Q10.0125-20.3192 9.93349-18.8533Q9.85449-17.3874 11.2414-16.1727Q18.4246-9.80807 28.1855-4.10261Q37.9464 1.60285 49.5455 5.99435Q61.1447 10.3858 73.8682 12.9148Q86.5917 15.4437 99.6628 15.4437Q101.136 15.4437 102.174 14.4057Q103.212 13.3677 103.212 11.9062Q103.212 10.4332 102.174 9.39518Q101.136 8.3572 99.6628 8.3572Q87.2177 8.3572 75.133 5.98767Q63.0483 3.61814 52.0939-0.527855Q41.1394-4.67385 31.9125-10.0778Q22.6857-15.4818 15.8585-21.5393Q14.5435-22.7193 13.1668-22.5213Q11.79-22.3232 10.8941-21.3385ZM13.6943-0.182551Q16.3508-0.182551 20.1401-1.32835Q23.9294-2.47414 27.637-4.91221L19.4703-13.4981Q18.2984-11.7321 17.3018-10.6422Q16.3053-9.55241 15.0747-8.66501Q13.8441-7.77761 11.9201-6.63758Q10.5963-5.82782 10.1799-4.59892Q9.7635-3.37003 10.1942-2.30461Q10.5272-1.44602 11.4231-0.814285Q12.3189-0.182551 13.6943-0.182551Z"/>
  </g>
  <g id="Bold-S" transform="matrix(1 0 0 1 2282.3 696)">
   <path d="M71.8262-60.5225Q75.5859-60.5225 78.2715-63.2202Q80.957-65.918 80.957-69.6533Q80.957-73.4375 78.2715-76.1108Q75.5859-78.7842 71.8262-78.7842Q68.0664-78.7842 65.3809-76.1108Q62.6953-73.4375 62.6953-69.6533Q62.6953-65.918 65.3809-63.2202Q68.0664-60.5225 71.8262-60.5225ZM43.4814-8.64258Q44.9707-7.61719 46.8384-7.89795Q48.7061-8.17871 49.7803-9.66797L59.0088-22.5586L66.8701-21.2402L58.5205-8.78906Q57.4951-7.22656 57.8369-5.33447Q58.1787-3.44238 59.8389-2.46582Q61.7676-1.36719 63.4888-1.83105Q65.21-2.29492 66.1621-3.75977L77.9785-21.582Q79.2969-23.5352 78.5767-25.9888Q77.8564-28.4424 75.0244-29.126L58.7158-33.0566Q57.8369-33.2764 57.5439-33.9722Q57.251-34.668 57.7881-35.4248L64.624-45.7031Q65.21-46.582 66.0889-45.9717L76.0742-39.1357Q76.8555-38.5986 77.832-38.4033L100.195-34.3262Q101.855-34.0088 103.54-34.9976Q105.225-35.9863 105.542-38.0127Q105.811-39.8438 104.749-41.4185Q103.687-42.9932 101.855-43.3105L80.4443-47.1924L47.9248-69.3848L56.8604-75.8057Q58.4229-76.9287 58.7402-78.7964Q59.0576-80.6641 57.959-82.1533Q56.8359-83.667 54.9683-84.0088Q53.1006-84.3506 51.5869-83.2275L37.3535-73.0713Q35.4004-71.6553 35.3882-69.2993Q35.376-66.9434 37.4268-65.5518L49.5117-57.2754Q50.3906-56.665 49.7803-55.835L39.6729-41.1377Q37.4756-37.9395 37.6099-34.3628Q37.7441-30.7861 40.0513-28.0396Q42.3584-25.293 46.7041-24.6094L48.9502-24.2432L42.4072-15.0391Q41.3086-13.4766 41.6016-11.6089Q41.8945-9.74121 43.4814-8.64258ZM10.791-21.5576Q9.96094-20.6543 9.87549-19.3237Q9.79004-17.9932 11.0352-16.8945Q18.1152-10.6201 27.7344-5.00488Q37.3535 0.610352 48.7915 4.94385Q60.2295 9.27734 72.7661 11.7676Q85.3027 14.2578 98.1934 14.2578Q99.5117 14.2578 100.427 13.3423Q101.343 12.4268 101.343 11.1328Q101.343 9.81445 100.427 8.89893Q99.5117 7.9834 98.1934 7.9834Q85.8643 7.9834 73.8892 5.63965Q61.9141 3.2959 51.0498-0.817871Q40.1855-4.93164 31.0425-10.2905Q21.8994-15.6494 15.1367-21.6553Q13.9893-22.6807 12.793-22.5342Q11.5967-22.3877 10.791-21.5576ZM13.501-1.80664Q16.0156-1.80664 19.5923-2.86865Q23.1689-3.93066 26.709-6.20117L19.2383-14.0137Q18.0664-12.4023 17.1021-11.377Q16.1377-10.3516 14.978-9.50928Q13.8184-8.66699 12.0361-7.61719Q10.8154-6.88477 10.4248-5.81055Q10.0342-4.73633 10.4004-3.73535Q10.6689-2.9541 11.4746-2.38037Q12.2803-1.80664 13.501-1.80664Z"/>
  </g>
  <g id="Semibold-S" transform="matrix(1 0 0 1 1986.21 696)">
   <path d="M70.6887-60.1226Q74.3418-60.1226 76.9651-62.7537Q79.5885-65.3848 79.5885-69.0224Q79.5885-72.7088 76.9651-75.3155Q74.3418-77.9222 70.6887-77.9222Q67.0178-77.9222 64.4033-75.3155Q61.7889-72.7088 61.7889-69.0224Q61.7889-65.3848 64.4033-62.7537Q67.0178-60.1226 70.6887-60.1226ZM43.0104-8.80254Q44.4375-7.83047 46.2208-8.0979Q48.004-8.36533 49.0249-9.79238L58.2356-22.6652L66.4169-21.2936L57.9784-8.71797Q57.0063-7.22656 57.3304-5.4189Q57.6544-3.61123 59.2257-2.68799Q61.0744-1.63379 62.7201-2.07988Q64.3657-2.52598 65.2734-3.91973L76.9832-21.5998Q78.2482-23.4641 77.5591-25.8155Q76.87-28.1669 74.1624-28.8149L57.9782-32.7189Q57.0104-32.9653 56.6819-33.7278Q56.3534-34.4902 56.9616-35.3271L63.7442-45.5254Q64.419-46.5465 65.4401-45.8384L75.3455-39.0558Q76.0912-38.5364 77.0145-38.3589L99.2-34.3262Q100.789-34.0177 102.394-34.9576Q103.998-35.8975 104.307-37.8261Q104.566-39.5771 103.553-41.0763Q102.54-42.5755 100.789-42.884L79.5112-46.7392L47.0272-68.9227L56.0872-75.4235Q57.5786-76.4933 57.8782-78.2765Q58.1778-80.0598 57.1414-81.4868Q56.0539-82.9294 54.2795-83.2534Q52.5052-83.5774 51.0626-82.5077L36.9447-72.4403Q35.0805-71.0776 35.0638-68.8328Q35.0472-66.5879 37.0091-65.2585L48.9963-57.0443Q49.9996-56.3362 49.3093-55.3817L39.2729-40.8089Q37.129-37.6906 37.2588-34.1984Q37.3887-30.7062 39.6469-28.0262Q41.9052-25.3463 46.1442-24.6805L48.6392-24.2698L41.9896-14.9146Q40.9354-13.4232 41.2194-11.64Q41.5035-9.85674 43.0104-8.80254ZM10.7199-21.7087Q9.92539-20.8854 9.8355-19.6481Q9.74561-18.4108 10.893-17.3922Q17.902-11.18 27.4233-5.62695Q36.9447-0.0739258 48.2716 4.21958Q59.5985 8.51309 72.0063 10.9767Q84.4141 13.4402 97.1803 13.4402Q98.392 13.4402 99.2231 12.6091Q100.054 11.778 100.054 10.5996Q100.054 9.38789 99.2231 8.55679Q98.392 7.72568 97.1803 7.72568Q84.9312 7.72568 73.0316 5.39971Q61.132 3.07373 50.33-1.01782Q39.5279-5.10938 30.4426-10.4372Q21.3573-15.7649 14.6391-21.7353Q13.6071-22.654 12.5353-22.5431Q11.4634-22.4321 10.7199-21.7087ZM13.3677-2.92637Q15.7846-2.92637 19.2146-3.93062Q22.6446-4.93486 26.0691-7.08984L19.0783-14.3691Q17.9064-12.8645 16.9643-11.8835Q16.0222-10.9025 14.9114-10.0914Q13.8006-9.28018 12.1161-8.29258Q10.9665-7.61348 10.5937-6.6459Q10.2208-5.67832 10.5426-4.72178Q10.7667-3.99385 11.5102-3.46011Q12.2536-2.92637 13.3677-2.92637Z"/>
  </g>
  <g id="Medium-S" transform="matrix(1 0 0 1 1689.96 696)">
   <path d="M69.8262-59.8193Q73.3984-59.8193 75.9746-62.3999Q78.5508-64.9805 78.5508-68.5439Q78.5508-72.1562 75.9746-74.7124Q73.3984-77.2686 69.8262-77.2686Q66.2227-77.2686 63.6621-74.7124Q61.1016-72.1562 61.1016-68.5439Q61.1016-64.9805 63.6621-62.3999Q66.2227-59.8193 69.8262-59.8193ZM42.6533-8.92383Q44.0332-7.99219 45.7524-8.24951Q47.4717-8.50684 48.4521-9.88672L57.6494-22.7461L66.0732-21.334L57.5674-8.66406Q56.6357-7.22656 56.9463-5.48291Q57.2568-3.73926 58.7607-2.85645Q60.5488-1.83594 62.1372-2.26855Q63.7256-2.70117 64.5996-4.04102L76.2285-21.6133Q77.4531-23.4102 76.7876-25.6841Q76.1221-27.958 73.5088-28.5791L57.4189-32.4629Q56.3838-32.7295 56.0283-33.5425Q55.6729-34.3555 56.335-35.2529L63.0771-45.3906Q63.8193-46.5195 64.9482-45.7373L74.793-38.9951Q75.5117-38.4893 76.3945-38.3252L98.4453-34.3262Q99.9805-34.0244 101.524-34.9272Q103.068-35.8301 103.37-37.6846Q103.623-39.375 102.647-40.8169Q101.671-42.2588 99.9805-42.5605L78.8037-46.3955L46.3467-68.5723L55.501-75.1338Q56.9385-76.1631 57.2246-77.8823Q57.5107-79.6016 56.5215-80.9814Q55.4609-82.3701 53.7573-82.6807Q52.0537-82.9912 50.665-81.9619L36.6348-71.9619Q34.8379-70.6396 34.8179-68.479Q34.7979-66.3184 36.6924-65.0361L48.6055-56.8691Q49.7031-56.0869 48.9521-55.0381L38.9697-40.5596Q36.8662-37.502 36.9927-34.0737Q37.1191-30.6455 39.3403-28.0161Q41.5615-25.3867 45.7197-24.7344L48.4033-24.29L41.6729-14.8203Q40.6523-13.3828 40.9297-11.6636Q41.207-9.94434 42.6533-8.92383ZM10.666-21.8232Q9.89844-21.0605 9.80518-19.894Q9.71191-18.7275 10.7852-17.7695Q17.7402-11.6045 27.1875-6.09863Q36.6348-0.592773 47.8774 3.67041Q59.1201 7.93359 71.4302 10.377Q83.7402 12.8203 96.4121 12.8203Q97.543 12.8203 98.3101 12.0532Q99.0771 11.2861 99.0771 10.1953Q99.0771 9.06445 98.3101 8.29736Q97.543 7.53027 96.4121 7.53027Q84.2236 7.53027 72.3813 5.21777Q60.5391 2.90527 49.7842-1.16943Q39.0293-5.24414 29.9878-10.5483Q20.9463-15.8525 14.2617-21.7959Q13.3174-22.6338 12.3398-22.5498Q11.3623-22.4658 10.666-21.8232ZM13.2666-3.77539Q15.6094-3.77539 18.9282-4.73584Q22.2471-5.69629 25.584-7.76367L18.957-14.6387Q17.7852-13.2148 16.8599-12.2676Q15.9346-11.3203 14.8608-10.5327Q13.7871-9.74512 12.1768-8.80469Q11.0811-8.16602 10.7217-7.2793Q10.3623-6.39258 10.6504-5.46973Q10.8408-4.78223 11.5371-4.27881Q12.2334-3.77539 13.2666-3.77539Z"/>
  </g>
  <g id="Regular-S" transform="matrix(1 0 0 1 1393.86 696)">
   <path d="M68.7012-59.4238Q72.168-59.4238 74.6826-61.9385Q77.1973-64.4531 77.1973-67.9199Q77.1973-71.4355 74.6826-73.9258Q72.168-76.416 68.7012-76.416Q65.1855-76.416 62.6953-73.9258Q60.2051-71.4355 60.2051-67.9199Q60.2051-64.4531 62.6953-61.9385Q65.1855-59.4238 68.7012-59.4238ZM42.1875-9.08203Q43.5059-8.20312 45.1416-8.44727Q46.7773-8.69141 47.7051-10.0098L56.8848-22.8516L65.625-21.3867L57.0312-8.59375Q56.1523-7.22656 56.4453-5.56641Q56.7383-3.90625 58.1543-3.07617Q59.8633-2.09961 61.377-2.51465Q62.8906-2.92969 63.7207-4.19922L75.2441-21.6309Q76.416-23.3398 75.7812-25.5127Q75.1465-27.6855 72.6562-28.2715L56.6895-32.1289Q55.5664-32.4219 55.1758-33.3008Q54.7852-34.1797 55.5176-35.1562L62.207-45.2148Q63.0371-46.4844 64.3066-45.6055L74.0723-38.916Q74.7559-38.4277 75.5859-38.2812L97.4609-34.3262Q98.9258-34.0332 100.391-34.8877Q101.855-35.7422 102.148-37.5Q102.393-39.1113 101.465-40.4785Q100.537-41.8457 98.9258-42.1387L77.8809-45.9473L45.459-68.1152L54.7363-74.7559Q56.1035-75.7324 56.3721-77.3682Q56.6406-79.0039 55.7129-80.3223Q54.6875-81.6406 53.0762-81.9336Q51.4648-82.2266 50.1465-81.25L36.2305-71.3379Q34.5215-70.0684 34.4971-68.0176Q34.4727-65.9668 36.2793-64.7461L48.0957-56.6406Q49.3164-55.7617 48.4863-54.5898L38.5742-40.2344Q36.5234-37.2559 36.6455-33.9111Q36.7676-30.5664 38.9404-28.0029Q41.1133-25.4395 45.166-24.8047L48.0957-24.3164L41.2598-14.6973Q40.2832-13.3301 40.5518-11.6943Q40.8203-10.0586 42.1875-9.08203ZM10.5957-21.9727Q9.86328-21.2891 9.76562-20.2148Q9.66797-19.1406 10.6445-18.2617Q17.5293-12.1582 26.8799-6.71387Q36.2305-1.26953 47.3633 2.9541Q58.4961 7.17773 70.6787 9.59473Q82.8613 12.0117 95.4102 12.0117Q96.4355 12.0117 97.1191 11.3281Q97.8027 10.6445 97.8027 9.66797Q97.8027 8.64258 97.1191 7.95898Q96.4355 7.27539 95.4102 7.27539Q83.3008 7.27539 71.5332 4.98047Q59.7656 2.68555 49.0723-1.36719Q38.3789-5.41992 29.3945-10.6934Q20.4102-15.9668 13.7695-21.875Q12.9395-22.6074 12.085-22.5586Q11.2305-22.5098 10.5957-21.9727ZM13.1348-4.88281Q15.3809-4.88281 18.5547-5.78613Q21.7285-6.68945 24.9512-8.64258L18.7988-14.9902Q17.627-13.6719 16.7236-12.7686Q15.8203-11.8652 14.7949-11.1084Q13.7695-10.3516 12.2559-9.47266Q11.2305-8.88672 10.8887-8.10547Q10.5469-7.32422 10.791-6.44531Q10.9375-5.81055 11.5723-5.34668Q12.207-4.88281 13.1348-4.88281Z"/>
  </g>
  <g id="Light-S" transform="matrix(1 0 0 1 1098.73 696)">
   <path d="M66.4004-58.4096Q69.7611-58.4096 72.2001-60.841Q74.6391-63.2723 74.6391-66.6334Q74.6391-70.0429 72.2001-72.4651Q69.7611-74.8873 66.4004-74.8873Q62.9908-74.8873 60.5686-72.4651Q58.1464-70.0429 58.1464-66.6334Q58.1464-63.2723 60.5686-60.841Q62.9908-58.4096 66.4004-58.4096ZM40.8251-9.71781Q42.1132-8.85391 43.7036-9.09805Q45.2939-9.34219 46.1914-10.6153L55.0987-23.0634L63.5513-21.6441L55.2452-9.24454Q54.3813-7.90761 54.6668-6.30048Q54.9522-4.69335 56.3227-3.89353Q57.9712-2.93223 59.4395-3.33964Q60.9077-3.74705 61.7226-4.97106L72.8978-21.873Q74.0245-23.5517 73.42-25.6565Q72.8155-27.7613 70.3857-28.332L54.9034-32.0684Q53.8106-32.3461 53.4351-33.1947Q53.0596-34.0434 53.7618-35.0199L60.2544-44.7606Q61.0542-45.9696 62.2782-45.1363L71.7565-38.6587Q72.4401-38.1704 73.2396-38.0391L94.4489-34.1899Q95.8682-33.9122 97.2876-34.7515Q98.7071-35.5909 98.9848-37.2882Q99.2139-38.839 98.3164-40.1608Q97.419-41.4825 95.8682-41.7603L75.459-45.4628L44.0058-66.965L53.0108-73.4088Q54.3325-74.3551 54.5935-75.9378Q54.8546-77.5205 53.9571-78.8086Q52.962-80.0967 51.3961-80.3745Q49.8301-80.6524 48.557-79.7213L35.065-70.0816Q33.4015-68.8573 33.3846-66.8747Q33.3677-64.8921 35.1138-63.7169L46.567-55.8383Q47.7422-55.0049 46.9424-53.8633L37.3482-39.9317Q35.3579-37.0288 35.4724-33.79Q35.5868-30.5511 37.684-28.071Q39.7812-25.5908 43.7129-24.956L46.567-24.483L39.9277-15.1665Q38.9966-13.8295 39.2501-12.2468Q39.5035-10.6641 40.8251-9.71781ZM10.4444-21.9424Q9.83302-21.3648 9.76562-20.4798Q9.69823-19.5948 10.4932-18.8975Q17.1509-12.9908 26.1987-7.72057Q35.2465-2.45031 46.0009 1.62964Q56.7553 5.70958 68.5369 8.04329Q80.3185 10.377 92.4586 10.377Q93.2872 10.377 93.8497 9.81445Q94.4122 9.25191 94.4122 8.45693Q94.4122 7.62838 93.8497 7.07347Q93.2872 6.51855 92.4586 6.51855Q80.6671 6.51855 69.2249 4.28416Q57.7827 2.04976 47.377-1.89705Q36.9713-5.84386 28.229-10.9735Q19.4867-16.1031 13.028-21.8447Q12.3795-22.4258 11.6688-22.3996Q10.9581-22.3735 10.4444-21.9424ZM12.6656-6.01807Q15.0327-6.01807 18.146-6.89112Q21.2593-7.76418 24.1488-9.64152L18.4357-15.1265Q17.3848-13.8082 16.4588-12.8746Q15.5327-11.941 14.4695-11.2068Q13.4064-10.4726 11.938-9.73002Q11.1244-9.2954 10.8433-8.66547Q10.5621-8.03553 10.7305-7.33846Q10.8467-6.80949 11.3604-6.41378Q11.8741-6.01807 12.6656-6.01807Z"/>
  </g>
  <g id="Thin-S" transform="matrix(1 0 0 1 804.115 696)">
   <path d="M63.3574-57.0683Q66.5779-57.0683 68.9169-59.3895Q71.2558-61.7107 71.2558-64.9318Q71.2558-68.2011 68.9169-70.5333Q66.5779-72.8655 63.3574-72.8655Q60.0881-72.8655 57.7559-70.5333Q55.4237-68.2011 55.4237-64.9318Q55.4237-61.7107 57.7559-59.3895Q60.0881-57.0683 63.3574-57.0683ZM39.0233-10.5587Q40.2714-9.71463 41.8017-9.95877Q43.332-10.2029 44.1895-11.4161L52.7365-23.3436L60.8087-21.9845L52.883-10.1053Q52.039-8.80836 52.3145-7.27135Q52.5901-5.73435 53.9003-4.97456Q55.4688-4.03344 56.877-4.43076Q58.2852-4.82808 59.0799-5.99188L69.7947-22.1932Q70.8614-23.8319 70.2969-25.8467Q69.7325-27.8616 67.3828-28.4121L52.5412-31.9883Q51.4885-32.2459 51.133-33.0545Q50.7775-33.8631 51.4396-34.8397L57.6719-44.1599Q58.4317-45.2889 59.5955-44.5157L68.6937-38.3183Q69.3773-37.83 70.1365-37.7189L90.4651-34.0096Q91.8242-33.752 93.1837-34.5714Q94.5431-35.3907 94.8006-37.008Q95.0099-38.4787 94.1524-39.7405Q93.295-41.0022 91.8242-41.2598L72.256-44.8221L42.0839-65.4437L50.7287-71.6271Q51.9901-72.5334 52.2413-74.046Q52.4924-75.5586 51.635-76.8066Q50.6799-78.0547 49.174-78.3125Q47.6681-78.5704 46.4548-77.6995L33.5235-68.42Q31.9202-67.2556 31.9132-65.3631Q31.9062-63.4707 33.5723-62.3557L44.5452-54.7771Q45.6602-54.0039 44.9004-52.9023L35.7266-39.5315Q33.8164-36.7284 33.9208-33.6297Q34.0251-30.531 36.0223-28.1609Q38.0194-25.7909 41.791-25.1561L44.5452-24.7033L38.1659-15.787Q37.295-14.4901 37.5285-12.9776Q37.7619-11.465 39.0233-10.5587ZM10.2443-21.9024Q9.79299-21.4651 9.76562-20.8303Q9.73826-20.1955 10.2931-19.7384Q16.6504-14.092 25.2978-9.05201Q33.9452-4.01198 44.1991-0.12207Q54.453 3.76784 65.7041 5.99139Q76.9553 8.21494 88.5549 8.21494Q89.1231 8.21494 89.5256 7.8125Q89.928 7.41006 89.928 6.85523Q89.928 6.28701 89.5256 5.9023Q89.1231 5.51758 88.5549 5.51758Q77.1839 5.51758 66.1721 3.36323Q55.1602 1.20889 45.1349-2.59783Q35.1096-6.40456 26.6875-11.344Q18.2655-16.2834 12.0472-21.8047Q11.6388-22.1857 11.1183-22.1894Q10.5979-22.1932 10.2443-21.9024ZM12.045-7.51953Q14.5722-7.51953 17.6055-8.35256Q20.6387-9.18559 23.0876-10.9627L17.9554-15.3068Q17.0646-13.9885 16.1085-13.0149Q15.1523-12.0413 14.0392-11.337Q12.9261-10.6327 11.5175-10.0704Q10.9842-9.83591 10.7832-9.40611Q10.5823-8.9763 10.6504-8.51972Q10.7266-8.13067 11.0802-7.8251Q11.4339-7.51953 12.045-7.51953Z"/>
  </g>
  <g id="Ultralight-S" transform="matrix(1 0 0 1 508.475 696)">
   <path d="M61.7989-56.3812Q64.9475-56.3812 67.2352-58.646Q69.5229-60.9108 69.5229-64.0602Q69.5229-67.2577 67.2352-69.5438Q64.9475-71.83 61.7989-71.83Q58.6014-71.83 56.3152-69.5438Q54.0291-67.2577 54.0291-64.0602Q54.0291-60.9108 56.3152-58.646Q58.6014-56.3812 61.7989-56.3812ZM38.1004-10.9894Q39.328-10.1555 40.8276-10.3996Q42.3271-10.6438 43.1641-11.8263L51.5266-23.4871L59.404-22.1588L51.6731-10.5461Q50.8392-9.26971 51.1097-7.76863Q51.3802-6.26755 52.6596-5.52826Q54.187-4.59747 55.5645-4.98962Q56.942-5.38177 57.7263-6.51474L68.2053-22.3572Q69.2413-23.9754 68.6974-25.9441Q68.1534-27.9129 65.8447-28.4531L51.3313-31.9473Q50.2991-32.1945 49.9538-32.9826Q49.6086-33.7708 50.2502-34.7473L56.3492-43.8522Q57.0885-44.9402 58.2214-44.1978L67.1249-38.1439Q67.8085-37.6556 68.5471-37.5549L88.4247-33.9172Q89.753-33.67 91.0816-34.4791Q92.4103-35.2882 92.6575-36.8645Q92.8566-38.2942 92.0197-39.5252Q91.1827-40.7562 89.753-41.0034L70.6154-44.4939L41.0995-64.6645L49.5598-70.7146Q50.7904-71.6003 51.0365-73.077Q51.2825-74.5537 50.4456-75.7812Q49.511-77.0088 48.0358-77.2564Q46.5607-77.504 45.3781-76.664L32.7339-67.569Q31.1615-66.4352 31.1596-64.5889Q31.1577-62.7426 32.7827-61.6585L43.5097-54.2336Q44.5938-53.4912 43.8545-52.4101L34.8961-39.3265Q33.0269-36.5746 33.1261-33.5476Q33.2253-30.5206 35.1711-28.207Q37.117-25.8934 40.8066-25.2586L43.5097-24.8161L37.2635-16.1049Q36.4235-14.8285 36.6467-13.3518Q36.8698-11.8752 38.1004-10.9894ZM10.1418-21.8819Q9.77249-21.5164 9.76562-21.0098Q9.75876-20.5032 10.1906-20.1691Q16.394-14.6561 24.8363-9.73396Q33.2787-4.81186 43.2762-1.01929Q53.2738 2.77328 64.2532 4.94041Q75.2327 7.10754 86.5555 7.10754Q86.9904 7.10754 87.3108 6.78711Q87.6312 6.46667 87.6312 6.03485Q87.6312 5.59998 87.3108 5.30243Q86.9904 5.00488 86.5555 5.00488Q75.3998 5.00488 64.6084 2.89154Q53.817 0.778198 43.9865-2.95677Q34.156-6.69174 25.898-11.5337Q17.6399-16.3757 11.5448-21.7842Q11.2595-22.0627 10.8364-22.0818Q10.4134-22.1008 10.1418-21.8819ZM11.7271-8.28857Q14.3364-8.28857 17.3286-9.1011Q20.3209-9.91364 22.5441-11.6394L17.7094-15.3992Q16.9006-14.0808 15.929-13.0867Q14.9574-12.0926 13.8187-11.4037Q12.6801-10.7147 11.3022-10.2448Q10.9123-10.1128 10.7525-9.78546Q10.5927-9.45816 10.6094-9.12476Q10.6651-8.80737 10.9367-8.54797Q11.2083-8.28857 11.7271-8.28857Z"/>
  </g>
 </g>
</svg>
