<?xml version="1.0" encoding="UTF-8"?>
<!--Generator: Apple Native CoreSVG 175.5-->
<!DOCTYPE svg
PUBLIC "-//W3C//DTD SVG 1.1//EN"
       "http://www.w3.org/Graphics/SVG/1.1/DTD/svg11.dtd">
<svg version="1.1" xmlns="http://www.w3.org/2000/svg" xmlns:xlink="http://www.w3.org/1999/xlink" width="3300" height="2200">
 <!--glyph: "uni101522.medium", point size: 100.0, font version: "18.0d9e1", template writer version: "84"-->
 <g id="Notes">
  <rect height="2200" id="artboard" style="fill:white;opacity:1" width="3300" x="0" y="0"/>
  <line style="fill:none;stroke:black;opacity:1;stroke-width:0.5;" x1="263" x2="3036" y1="292" y2="292"/>
  <text style="stroke:none;fill:black;font-family:sans-serif;font-size:13;font-weight:bold;" transform="matrix(1 0 0 1 263 322)">Weight/Scale Variations</text>
  <text style="stroke:none;fill:black;font-family:sans-serif;font-size:13;text-anchor:middle;" transform="matrix(1 0 0 1 559.711 322)">Ultralight</text>
  <text style="stroke:none;fill:black;font-family:sans-serif;font-size:13;text-anchor:middle;" transform="matrix(1 0 0 1 856.422 322)">Thin</text>
  <text style="stroke:none;fill:black;font-family:sans-serif;font-size:13;text-anchor:middle;" transform="matrix(1 0 0 1 1153.13 322)">Light</text>
  <text style="stroke:none;fill:black;font-family:sans-serif;font-size:13;text-anchor:middle;" transform="matrix(1 0 0 1 1449.84 322)">Regular</text>
  <text style="stroke:none;fill:black;font-family:sans-serif;font-size:13;text-anchor:middle;" transform="matrix(1 0 0 1 1746.56 322)">Medium</text>
  <text style="stroke:none;fill:black;font-family:sans-serif;font-size:13;text-anchor:middle;" transform="matrix(1 0 0 1 2043.27 322)">Semibold</text>
  <text style="stroke:none;fill:black;font-family:sans-serif;font-size:13;text-anchor:middle;" transform="matrix(1 0 0 1 2339.98 322)">Bold</text>
  <text style="stroke:none;fill:black;font-family:sans-serif;font-size:13;text-anchor:middle;" transform="matrix(1 0 0 1 2636.69 322)">Heavy</text>
  <text style="stroke:none;fill:black;font-family:sans-serif;font-size:13;text-anchor:middle;" transform="matrix(1 0 0 1 2933.4 322)">Black</text>
  <line style="fill:none;stroke:black;opacity:1;stroke-width:0.5;" x1="263" x2="3036" y1="1903" y2="1903"/>
  <g transform="matrix(1 0 0 1 263 1933)">
   <path d="M9.24805 0.830078Q10.8691 0.830078 12.2949 0.214844Q13.7207-0.400391 14.8096-1.49414Q15.8984-2.58789 16.5186-4.01367Q17.1387-5.43945 17.1387-7.05078Q17.1387-8.66211 16.5186-10.0879Q15.8984-11.5137 14.8047-12.6074Q13.7109-13.7012 12.2852-14.3164Q10.8594-14.9316 9.23828-14.9316Q7.62695-14.9316 6.20117-14.3164Q4.77539-13.7012 3.69141-12.6074Q2.60742-11.5137 1.9873-10.0879Q1.36719-8.66211 1.36719-7.05078Q1.36719-5.43945 1.9873-4.01367Q2.60742-2.58789 3.69629-1.49414Q4.78516-0.400391 6.21094 0.214844Q7.63672 0.830078 9.24805 0.830078ZM9.24805-0.654297Q7.91992-0.654297 6.7627-1.14746Q5.60547-1.64062 4.73145-2.51953Q3.85742-3.39844 3.36426-4.56055Q2.87109-5.72266 2.87109-7.05078Q2.87109-8.37891 3.35938-9.54102Q3.84766-10.7031 4.72168-11.582Q5.5957-12.4609 6.75293-12.9541Q7.91016-13.4473 9.23828-13.4473Q10.5762-13.4473 11.7383-12.9541Q12.9004-12.4609 13.7793-11.582Q14.6582-10.7031 15.1514-9.54102Q15.6445-8.37891 15.6445-7.05078Q15.6445-5.72266 15.1514-4.56055Q14.6582-3.39844 13.7793-2.51953Q12.9004-1.64062 11.7432-1.14746Q10.5859-0.654297 9.24805-0.654297ZM5.6543-7.05078Q5.6543-6.72852 5.85938-6.52832Q6.06445-6.32812 6.40625-6.32812L8.51562-6.32812L8.51562-4.20898Q8.51562-3.88672 8.71094-3.67676Q8.90625-3.4668 9.23828-3.4668Q9.56055-3.4668 9.77051-3.67676Q9.98047-3.88672 9.98047-4.20898L9.98047-6.32812L12.0898-6.32812Q12.4219-6.32812 12.627-6.52832Q12.832-6.72852 12.832-7.05078Q12.832-7.38281 12.627-7.58789Q12.4219-7.79297 12.0898-7.79297L9.98047-7.79297L9.98047-9.90234Q9.98047-10.2344 9.77051-10.4443Q9.56055-10.6543 9.23828-10.6543Q8.90625-10.6543 8.71094-10.4443Q8.51562-10.2344 8.51562-9.90234L8.51562-7.79297L6.40625-7.79297Q6.06445-7.79297 5.85938-7.58789Q5.6543-7.38281 5.6543-7.05078Z"/>
  </g>
  <g transform="matrix(1 0 0 1 281.867 1933)">
   <path d="M11.709 2.91016Q13.75 2.91016 15.5518 2.12891Q17.3535 1.34766 18.7305-0.0292969Q20.1074-1.40625 20.8887-3.20801Q21.6699-5.00977 21.6699-7.05078Q21.6699-9.0918 20.8887-10.8936Q20.1074-12.6953 18.7305-14.0723Q17.3535-15.4492 15.5469-16.2305Q13.7402-17.0117 11.6992-17.0117Q9.6582-17.0117 7.85645-16.2305Q6.05469-15.4492 4.68262-14.0723Q3.31055-12.6953 2.5293-10.8936Q1.74805-9.0918 1.74805-7.05078Q1.74805-5.00977 2.5293-3.20801Q3.31055-1.40625 4.6875-0.0292969Q6.06445 1.34766 7.86621 2.12891Q9.66797 2.91016 11.709 2.91016ZM11.709 1.25Q9.98047 1.25 8.47656 0.605469Q6.97266-0.0390625 5.83496-1.17676Q4.69727-2.31445 4.05762-3.81836Q3.41797-5.32227 3.41797-7.05078Q3.41797-8.7793 4.05762-10.2832Q4.69727-11.7871 5.83008-12.9297Q6.96289-14.0723 8.4668-14.7119Q9.9707-15.3516 11.6992-15.3516Q13.4277-15.3516 14.9365-14.7119Q16.4453-14.0723 17.583-12.9297Q18.7207-11.7871 19.3652-10.2832Q20.0098-8.7793 20.0098-7.05078Q20.0098-5.32227 19.3701-3.81836Q18.7305-2.31445 17.5879-1.17676Q16.4453-0.0390625 14.9414 0.605469Q13.4375 1.25 11.709 1.25ZM7.17773-7.05078Q7.17773-6.69922 7.41211-6.47461Q7.64648-6.25 8.01758-6.25L10.8887-6.25L10.8887-3.36914Q10.8887-2.99805 11.1133-2.76855Q11.3379-2.53906 11.6895-2.53906Q12.0605-2.53906 12.29-2.76855Q12.5195-2.99805 12.5195-3.36914L12.5195-6.25L15.4004-6.25Q15.7715-6.25 16.001-6.47461Q16.2305-6.69922 16.2305-7.05078Q16.2305-7.42188 16.001-7.65137Q15.7715-7.88086 15.4004-7.88086L12.5195-7.88086L12.5195-10.752Q12.5195-11.1328 12.29-11.3623Q12.0605-11.5918 11.6895-11.5918Q11.3379-11.5918 11.1133-11.3574Q10.8887-11.123 10.8887-10.752L10.8887-7.88086L8.01758-7.88086Q7.63672-7.88086 7.40723-7.65137Q7.17773-7.42188 7.17773-7.05078Z"/>
  </g>
  <g transform="matrix(1 0 0 1 305.646 1933)">
   <path d="M14.9707 5.66406Q17.0605 5.66406 18.96 5.01465Q20.8594 4.36523 22.4512 3.19336Q24.043 2.02148 25.2197 0.429688Q26.3965-1.16211 27.0459-3.06641Q27.6953-4.9707 27.6953-7.05078Q27.6953-9.14062 27.0459-11.04Q26.3965-12.9395 25.2197-14.5312Q24.043-16.123 22.4512-17.2998Q20.8594-18.4766 18.9551-19.126Q17.0508-19.7754 14.9609-19.7754Q12.8711-19.7754 10.9717-19.126Q9.07227-18.4766 7.48535-17.2998Q5.89844-16.123 4.72168-14.5312Q3.54492-12.9395 2.90039-11.04Q2.25586-9.14062 2.25586-7.05078Q2.25586-4.9707 2.90527-3.06641Q3.55469-1.16211 4.72656 0.429688Q5.89844 2.02148 7.49023 3.19336Q9.08203 4.36523 10.9814 5.01465Q12.8809 5.66406 14.9707 5.66406ZM14.9707 3.84766Q13.1641 3.84766 11.5283 3.2959Q9.89258 2.74414 8.53516 1.74805Q7.17773 0.751953 6.17676-0.610352Q5.17578-1.97266 4.62891-3.6084Q4.08203-5.24414 4.08203-7.05078Q4.08203-8.86719 4.62891-10.5029Q5.17578-12.1387 6.17188-13.501Q7.16797-14.8633 8.52539-15.8594Q9.88281-16.8555 11.5186-17.4023Q13.1543-17.9492 14.9609-17.9492Q16.7773-17.9492 18.4131-17.4023Q20.0488-16.8555 21.4111-15.8594Q22.7734-14.8633 23.7744-13.501Q24.7754-12.1387 25.3223-10.5029Q25.8691-8.86719 25.8691-7.05078Q25.8691-5.24414 25.3223-3.6084Q24.7754-1.97266 23.7793-0.610352Q22.7832 0.751953 21.4209 1.74805Q20.0586 2.74414 18.4229 3.2959Q16.7871 3.84766 14.9707 3.84766ZM9.19922-7.05078Q9.19922-6.66992 9.45801-6.4209Q9.7168-6.17188 10.1172-6.17188L14.0625-6.17188L14.0625-2.2168Q14.0625-1.81641 14.3115-1.55762Q14.5605-1.29883 14.9512-1.29883Q15.3516-1.29883 15.6104-1.55273Q15.8691-1.80664 15.8691-2.2168L15.8691-6.17188L19.8242-6.17188Q20.2246-6.17188 20.4785-6.4209Q20.7324-6.66992 20.7324-7.05078Q20.7324-7.46094 20.4785-7.71484Q20.2246-7.96875 19.8242-7.96875L15.8691-7.96875L15.8691-11.9141Q15.8691-12.3242 15.6104-12.583Q15.3516-12.8418 14.9512-12.8418Q14.5605-12.8418 14.3115-12.583Q14.0625-12.3242 14.0625-11.9141L14.0625-7.96875L10.1172-7.96875Q9.70703-7.96875 9.45312-7.71484Q9.19922-7.46094 9.19922-7.05078Z"/>
  </g>
  <text style="stroke:none;fill:black;font-family:sans-serif;font-size:13;font-weight:bold;" transform="matrix(1 0 0 1 263 1953)">Design Variations</text>
  <text style="stroke:none;fill:black;font-family:sans-serif;font-size:13;" transform="matrix(1 0 0 1 263 1971)">Symbols are supported in up to nine weights and three scales.</text>
  <text style="stroke:none;fill:black;font-family:sans-serif;font-size:13;" transform="matrix(1 0 0 1 263 1989)">For optimal layout with text and other symbols, vertically align</text>
  <text style="stroke:none;fill:black;font-family:sans-serif;font-size:13;" transform="matrix(1 0 0 1 263 2007)">symbols with the adjacent text.</text>
  <line style="fill:none;stroke:#00AEEF;stroke-width:0.5;opacity:1.0;" x1="776" x2="776" y1="1919" y2="1933"/>
  <g transform="matrix(1 0 0 1 776 1933)">
   <path d="M3.31055 0.15625Q3.70117 0.15625 3.91602-0.00976562Q4.13086-0.175781 4.26758-0.585938L5.52734-4.0332L11.2891-4.0332L12.5488-0.585938Q12.6855-0.175781 12.9004-0.00976562Q13.1152 0.15625 13.4961 0.15625Q13.8867 0.15625 14.1162-0.0585938Q14.3457-0.273438 14.3457-0.644531Q14.3457-0.869141 14.2383-1.17188L9.6582-13.3691Q9.48242-13.8184 9.17969-14.043Q8.87695-14.2676 8.4082-14.2676Q7.5-14.2676 7.17773-13.3789L2.59766-1.16211Q2.49023-0.859375 2.49023-0.634766Q2.49023-0.263672 2.70996-0.0537109Q2.92969 0.15625 3.31055 0.15625ZM6.00586-5.51758L8.37891-12.0898L8.42773-12.0898L10.8008-5.51758Z"/>
  </g>
  <line style="fill:none;stroke:#00AEEF;stroke-width:0.5;opacity:1.0;" x1="793.197" x2="793.197" y1="1919" y2="1933"/>
  <text style="stroke:none;fill:black;font-family:sans-serif;font-size:13;font-weight:bold;" transform="matrix(1 0 0 1 776 1953)">Margins</text>
  <text style="stroke:none;fill:black;font-family:sans-serif;font-size:13;" transform="matrix(1 0 0 1 776 1971)">Leading and trailing margins on the left and right side of each symbol</text>
  <text style="stroke:none;fill:black;font-family:sans-serif;font-size:13;" transform="matrix(1 0 0 1 776 1989)">can be adjusted by modifying the x-location of the margin guidelines.</text>
  <text style="stroke:none;fill:black;font-family:sans-serif;font-size:13;" transform="matrix(1 0 0 1 776 2007)">Modifications are automatically applied proportionally to all</text>
  <text style="stroke:none;fill:black;font-family:sans-serif;font-size:13;" transform="matrix(1 0 0 1 776 2025)">scales and weights.</text>
  <g transform="matrix(1 0 0 1 1289 1933)">
   <path d="M2.8418 1.86523L4.54102 3.57422Q5.18555 4.22852 5.90332 4.17969Q6.62109 4.13086 7.31445 3.35938L18.0078-8.42773L17.041-9.4043L6.42578 2.27539Q6.16211 2.57812 5.89355 2.61719Q5.625 2.65625 5.27344 2.30469L4.10156 1.14258Q3.75 0.791016 3.79395 0.522461Q3.83789 0.253906 4.14062-0.0195312L15.6152-10.8203L14.6387-11.7871L3.04688-0.898438Q2.30469-0.214844 2.25098 0.498047Q2.19727 1.21094 2.8418 1.86523ZM9.25781-16.3281Q8.94531-16.0254 8.90625-15.6348Q8.86719-15.2441 9.04297-14.9512Q9.21875-14.6777 9.55566-14.541Q9.89258-14.4043 10.3809-14.5215Q11.4746-14.7754 12.5977-14.7314Q13.7207-14.6875 14.7949-13.9844L14.209-12.5293Q13.9551-11.9043 14.0674-11.4404Q14.1797-10.9766 14.5801-10.5664L16.875-8.25195Q17.2363-7.88086 17.5781-7.82227Q17.9199-7.76367 18.3398-7.8418L19.4043-8.03711L20.0684-7.36328L20.0293-6.80664Q20-6.43555 20.1221-6.12305Q20.2441-5.81055 20.6055-5.44922L21.3672-4.70703Q21.7285-4.3457 22.1533-4.33105Q22.5781-4.31641 22.9297-4.66797L25.8398-7.58789Q26.1914-7.93945 26.1816-8.35449Q26.1719-8.76953 25.8105-9.13086L25.0391-9.89258Q24.6875-10.2539 24.3799-10.3857Q24.0723-10.5176 23.7109-10.4883L23.1348-10.4395L22.4902-11.0742L22.7344-12.1973Q22.832-12.6172 22.6953-12.9834Q22.5586-13.3496 22.1191-13.7891L19.9219-15.9766Q18.6719-17.2168 17.2607-17.8369Q15.8496-18.457 14.4189-18.4814Q12.9883-18.5059 11.665-17.959Q10.3418-17.4121 9.25781-16.3281ZM10.752-15.957Q11.6602-16.6211 12.7002-16.9043Q13.7402-17.1875 14.8047-17.085Q15.8691-16.9824 16.8701-16.5137Q17.8711-16.0449 18.7012-15.2051L21.1328-12.793Q21.3086-12.6172 21.3525-12.4512Q21.3965-12.2852 21.3379-12.0312L21.0156-10.5469L22.5195-9.0625L23.5059-9.12109Q23.6914-9.13086 23.7891-9.09668Q23.8867-9.0625 24.0332-8.91602L24.6094-8.33984L22.168-5.89844L21.5918-6.47461Q21.4453-6.62109 21.4062-6.71875Q21.3672-6.81641 21.377-7.01172L21.4453-7.98828L19.9512-9.47266L18.4277-9.21875Q18.1836-9.16992 18.042-9.2041Q17.9004-9.23828 17.7148-9.41406L15.7129-11.416Q15.5176-11.5918 15.4932-11.7529Q15.4688-11.9141 15.5859-12.1875L16.4648-14.2773Q15.293-15.3711 13.8281-15.791Q12.3633-16.2109 10.8398-15.7617Q10.7227-15.7324 10.6885-15.8057Q10.6543-15.8789 10.752-15.957Z"/>
  </g>
  <text style="stroke:none;fill:black;font-family:sans-serif;font-size:13;font-weight:bold;" transform="matrix(1 0 0 1 1289 1953)">Exporting</text>
  <text style="stroke:none;fill:black;font-family:sans-serif;font-size:13;" transform="matrix(1 0 0 1 1289 1971)">Symbols should be outlined when exporting to ensure the</text>
  <text style="stroke:none;fill:black;font-family:sans-serif;font-size:13;" transform="matrix(1 0 0 1 1289 1989)">design is preserved when submitting to Xcode.</text>
  <text id="template-version" style="stroke:none;fill:black;font-family:sans-serif;font-size:13;text-anchor:end;" transform="matrix(1 0 0 1 3036 1933)">Template v.2.0</text>
  <text style="stroke:none;fill:black;font-family:sans-serif;font-size:13;text-anchor:end;" transform="matrix(1 0 0 1 3036 1951)">Requires Xcode 12 or greater</text>
  <text id="descriptive-name" style="stroke:none;fill:black;font-family:sans-serif;font-size:13;text-anchor:end;" transform="matrix(1 0 0 1 3036 1969)">Generated from figure.curling</text>
  <text style="stroke:none;fill:black;font-family:sans-serif;font-size:13;text-anchor:end;" transform="matrix(1 0 0 1 3036 1987)">Typeset at 100 points</text>
  <text style="stroke:none;fill:black;font-family:sans-serif;font-size:13;" transform="matrix(1 0 0 1 263 726)">Small</text>
  <text style="stroke:none;fill:black;font-family:sans-serif;font-size:13;" transform="matrix(1 0 0 1 263 1156)">Medium</text>
  <text style="stroke:none;fill:black;font-family:sans-serif;font-size:13;" transform="matrix(1 0 0 1 263 1586)">Large</text>
 </g>
 <g id="Guides">
  <g id="H-reference" style="fill:#27AAE1;stroke:none;" transform="matrix(1 0 0 1 339 696)">
   <path d="M0.993347 0L3.6377 0L29.3282-67.1326L30.0301-67.1326L30.0301-70.459L28.1227-70.459ZM11.6882-24.4797L46.9818-24.4797L46.2311-26.7288L12.4382-26.7288ZM55.1193 0L57.7637 0L30.6381-70.459L29.4327-70.459L29.4327-67.1326Z"/>
  </g>
  <line id="Baseline-S" style="fill:none;stroke:#27AAE1;opacity:1;stroke-width:0.5;" x1="263" x2="3036" y1="696" y2="696"/>
  <line id="Capline-S" style="fill:none;stroke:#27AAE1;opacity:1;stroke-width:0.5;" x1="263" x2="3036" y1="625.541" y2="625.541"/>
  <g id="H-reference" style="fill:#27AAE1;stroke:none;" transform="matrix(1 0 0 1 339 1126)">
   <path d="M0.993347 0L3.6377 0L29.3282-67.1326L30.0301-67.1326L30.0301-70.459L28.1227-70.459ZM11.6882-24.4797L46.9818-24.4797L46.2311-26.7288L12.4382-26.7288ZM55.1193 0L57.7637 0L30.6381-70.459L29.4327-70.459L29.4327-67.1326Z"/>
  </g>
  <line id="Baseline-M" style="fill:none;stroke:#27AAE1;opacity:1;stroke-width:0.5;" x1="263" x2="3036" y1="1126" y2="1126"/>
  <line id="Capline-M" style="fill:none;stroke:#27AAE1;opacity:1;stroke-width:0.5;" x1="263" x2="3036" y1="1055.54" y2="1055.54"/>
  <g id="H-reference" style="fill:#27AAE1;stroke:none;" transform="matrix(1 0 0 1 339 1556)">
   <path d="M0.993347 0L3.6377 0L29.3282-67.1326L30.0301-67.1326L30.0301-70.459L28.1227-70.459ZM11.6882-24.4797L46.9818-24.4797L46.2311-26.7288L12.4382-26.7288ZM55.1193 0L57.7637 0L30.6381-70.459L29.4327-70.459L29.4327-67.1326Z"/>
  </g>
  <line id="Baseline-L" style="fill:none;stroke:#27AAE1;opacity:1;stroke-width:0.5;" x1="263" x2="3036" y1="1556" y2="1556"/>
  <line id="Capline-L" style="fill:none;stroke:#27AAE1;opacity:1;stroke-width:0.5;" x1="263" x2="3036" y1="1485.54" y2="1485.54"/>
  <line id="left-margin" style="fill:none;stroke:#00AEEF;stroke-width:0.5;opacity:1.0;" x1="1376.4" x2="1376.4" y1="1030.79" y2="1150.12"/>
  <line id="right-margin" style="fill:none;stroke:#00AEEF;stroke-width:0.5;opacity:1.0;" x1="1523.29" x2="1523.29" y1="1030.79" y2="1150.12"/>
 </g>
 <g id="Symbols">
  <g id="Black-L" transform="matrix(1 0 0 1 2830.89 1556)">
   <path d="M116.575-67.1688Q122.977-67.1688 127.509-71.7309Q132.042-76.293 132.042-82.6369Q132.042-89.06 127.509-93.5929Q122.977-98.1258 116.575-98.1258Q110.209-98.1258 105.647-93.5929Q101.086-89.06 101.086-82.6369Q101.086-76.293 105.647-71.7309Q110.209-67.1688 116.575-67.1688ZM90.3504 14.549Q89.6122 18.4619 91.6095 20.8088Q93.6067 23.1558 96.7309 23.6345Q99.855 24.1132 102.571 22.5252Q105.287 20.9372 106.025 17.0023L112.844-20.1413Q113.442-23.216 111.635-26.0014Q109.829-28.7868 106.295-29.3046L86.2697-32.1221L98.4541-44.3065Q99.943-45.7954 101.432-44.3065L139.978-5.79819Q142.234-3.54207 145.519-3.40325Q148.804-3.26442 151.14-5.79819Q153.397-8.21393 153.397-11.3899Q153.397-14.5658 151.082-16.9011L100.038-68.0034Q94.7529-73.2679 87.3271-73.2679L57.7842-73.2679Q54.4914-73.2679 52.1549-70.9313L31.9187-50.6939Q29.5821-48.3586 29.5827-45.1132Q29.5833-41.8679 31.9187-39.5326Q34.3124-37.196 37.5285-37.196Q40.7447-37.196 43.0592-39.5326L61.0405-57.5127L71.2389-57.5127Q71.6759-57.5127 71.8107-57.2203Q71.9456-56.928 71.655-56.6363L54.3006-39.2635Q50.7382-35.7218 49.8476-31.3492Q48.957-26.9766 50.4281-22.9244Q51.8992-18.8722 55.6005-16.251Q59.3018-13.6298 64.9451-13.6298L95.5121-13.6298ZM51.9301-9.65323L50.4761 7.75865L24.0122 7.75865Q20.7558 7.75865 18.4199 10.055Q16.084 12.3513 16.084 15.5856Q16.084 18.8408 18.4199 21.1773Q20.7558 23.5138 24.0122 23.5138L57.7842 23.5138Q60.7408 23.5138 62.9269 21.5172Q65.113 19.5205 65.6319 16.6222L69.7374-6.07401L64.9451-6.07401Q57.4478-6.07401 51.9301-9.65323ZM159.151 23.5138L179.386 23.5138Q183.338 23.5138 186.142 20.6996Q188.945 17.8853 188.945 13.954Q188.945 10.0019 186.142 7.19859Q183.338 4.39533 179.386 4.39533L159.151 4.39533Q155.196 4.39533 152.353 7.19859Q149.51 10.0019 149.51 13.954Q149.51 17.8853 152.353 20.6996Q155.196 23.5138 159.151 23.5138ZM171.58 9.34792L180.514 9.34792L180.514 1.53052Q180.514-3.54946 177.451-6.64063Q174.389-9.73181 169.329-9.73181L161.973-9.73181Q160.091-9.73181 158.765-8.43452Q157.438-7.13723 157.438-5.25519Q157.438-3.37317 158.765-2.04607Q160.091-0.718981 161.973-0.718981L169.329-0.718981Q170.372-0.718981 170.976-0.115388Q171.58 0.488205 171.58 1.53052Z"/>
  </g>
  <g id="Heavy-L" transform="matrix(1 0 0 1 2536.15 1556)">
   <path d="M114.723-66.797Q120.929-66.797 125.331-71.2245Q129.734-75.6521 129.734-81.8134Q129.734-88.0496 125.331-92.4548Q120.929-96.86 114.723-96.86Q108.526-96.86 104.101-92.4548Q99.6762-88.0496 99.6762-81.8134Q99.6762-75.6521 104.101-71.2245Q108.526-66.797 114.723-66.797ZM89.401 13.8827Q88.7042 17.6124 90.6121 19.8588Q92.52 22.1051 95.4978 22.5562Q98.4755 23.0074 101.07 21.488Q103.665 19.9687 104.362 16.2031L111.09-20.4705Q111.656-23.3985 109.934-26.0558Q108.212-28.713 104.843-29.1987L84.5605-32.0537L96.9638-44.4569Q98.6187-46.1118 100.273-44.4569L138.317-6.42744Q140.468-4.27664 143.607-4.1516Q146.745-4.02656 148.977-6.42744Q151.127-8.73341 151.127-11.772Q151.127-14.8107 148.932-17.0363L98.5252-67.4877Q93.3767-72.6059 86.1611-72.6059L56.9839-72.6059Q53.856-72.6059 51.6248-70.3747L31.6462-50.3905Q29.415-48.165 29.4178-45.0638Q29.4206-41.9627 31.6462-39.737Q33.9164-37.5058 36.9952-37.5058Q40.0741-37.5058 42.2695-39.737L60.1029-57.5649L70.5427-57.5649Q71.0949-57.5649 71.262-57.192Q71.4291-56.8192 71.0647-56.4492L53.7435-39.109Q50.2814-35.6771 49.4159-31.43Q48.5504-27.1828 49.9804-23.2517Q51.4105-19.3206 54.9976-16.7793Q58.5847-14.238 64.0638-14.238L94.55-14.238ZM51.5147-10.5064L50.0099 7.39452L23.6598 7.39452Q20.5408 7.39452 18.3124 9.58553Q16.084 11.7765 16.084 14.8597Q16.084 17.9732 18.3124 20.2044Q20.5408 22.4356 23.6598 22.4356L56.9839 22.4356Q59.817 22.4356 61.9025 20.5305Q63.9879 18.6254 64.4793 15.8368L68.6267-7.06006L64.0638-7.06006Q56.8361-7.06006 51.5147-10.5064ZM155.898 22.4356L175.871 22.4356Q179.65 22.4356 182.326 19.7443Q185.003 17.053 185.003 13.3043Q185.003 9.5253 182.326 6.85191Q179.65 4.17852 175.871 4.17852L155.898 4.17852Q152.108 4.17852 149.397 6.85191Q146.687 9.5253 146.687 13.3043Q146.687 17.053 149.397 19.7443Q152.108 22.4356 155.898 22.4356ZM168.507 8.81874L176.644 8.81874L176.644 1.39842Q176.644-3.39425 173.698-6.35907Q170.753-9.32389 165.991-9.32389L158.805-9.32389Q157.087-9.32389 155.883-8.14272Q154.68-6.96156 154.68-5.24327Q154.68-3.52508 155.883-2.31877Q157.087-1.11247 158.805-1.11247L165.991-1.11247Q167.143-1.11247 167.825-0.433066Q168.507 0.246339 168.507 1.39842Z"/>
  </g>
  <g id="Bold-L" transform="matrix(1 0 0 1 2241.91 1556)">
   <path d="M112.381-66.3061Q118.348-66.3061 122.589-70.5684Q126.831-74.8308 126.831-80.7691Q126.831-86.7748 122.589-91.0224Q118.348-95.2701 112.381-95.2701Q106.391-95.2701 102.135-91.0224Q97.8797-86.7748 97.8797-80.7691Q97.8797-74.8308 102.135-70.5684Q106.391-66.3061 112.381-66.3061ZM88.1062 13.0009Q87.4556 16.515 89.2596 18.6421Q91.0635 20.7692 93.8681 21.1895Q96.6728 21.6098 99.125 20.1712Q101.577 18.7327 102.228 15.1671L108.833-20.8629Q109.361-23.6215 107.739-26.1286Q106.117-28.6357 102.94-29.0831L82.4398-31.9691L95.0451-44.5743Q96.8776-46.4069 98.7099-44.5743L136.072-7.20362Q138.1-5.17599 141.065-5.06636Q144.03-4.95674 146.138-7.20362Q148.166-9.37875 148.166-12.2558Q148.166-15.1328 146.109-17.2277L96.5758-66.7903Q91.5963-71.7317 84.6345-71.7317L55.9629-71.7317Q53.0274-71.7317 50.9193-69.6236L31.2933-49.9842Q29.1852-47.8895 29.1918-44.9577Q29.1984-42.0259 31.2933-39.9309Q33.4172-37.8229 36.3344-37.8229Q39.2516-37.8229 41.3085-39.9309L58.9202-57.5296L69.5927-57.5296Q70.2684-57.5296 70.4702-57.068Q70.672-56.6064 70.2303-56.1516L52.9999-38.9095Q49.6608-35.6083 48.826-31.515Q47.9912-27.4216 49.3713-23.6366Q50.7513-19.8516 54.2001-17.4064Q57.6488-14.9612 62.9279-14.9612L93.2249-14.9612ZM50.9403-11.5518L49.3814 6.86676L23.2443 6.86676Q20.2867 6.86676 18.1854 8.9346Q16.084 11.0024 16.084 13.9085Q16.084 16.8527 18.1854 18.9608Q20.2867 21.0688 23.2443 21.0688L55.9629 21.0688Q58.6498 21.0688 60.6159 19.2715Q62.5821 17.4741 63.0426 14.8162L67.2289-8.25948L62.9279-8.25948Q56.0233-8.25948 50.9403-11.5518ZM151.835 21.0688L171.447 21.0688Q175.011 21.0688 177.53 18.5312Q180.049 15.9935 180.049 12.4678Q180.049 8.90389 177.53 6.39183Q175.011 3.87978 171.447 3.87978L151.835 3.87978Q148.244 3.87978 145.699 6.39183Q143.153 8.90389 143.153 12.4678Q143.153 15.9935 145.699 18.5312Q148.244 21.0688 151.835 21.0688ZM164.644 8.03139L171.782 8.03139L171.782 1.09541Q171.782-3.34375 169.001-6.13242Q166.221-8.92108 161.819-8.92108L154.819-8.92108Q153.308-8.92108 152.258-7.8859Q151.208-6.85071 151.208-5.33967Q151.208-3.82884 152.258-2.77239Q153.308-1.71593 154.819-1.71593L161.819-1.71593Q163.102-1.71593 163.873-0.951722Q164.644-0.187511 164.644 1.09541Z"/>
  </g>
  <g id="Semibold-L" transform="matrix(1 0 0 1 1946.91 1556)">
   <path d="M110.766-65.9677Q116.569-65.9677 120.699-70.1161Q124.829-74.2646 124.829-80.0492Q124.829-85.896 120.699-90.035Q116.569-94.174 110.766-94.174Q104.919-94.174 100.78-90.035Q96.6411-85.896 96.6411-80.0492Q96.6411-74.2646 100.78-70.1161Q104.919-65.9677 110.766-65.9677ZM87.2135 12.3929Q86.5948 15.7584 88.3271 17.8033Q90.0594 19.8482 92.7447 20.2472Q95.43 20.6463 97.784 19.2634Q100.138 17.8805 100.757 14.4529L107.278-21.1334Q107.779-23.7752 106.226-26.1788Q104.673-28.5824 101.629-29.0033L80.9778-31.9108L93.7223-44.6553Q95.6773-46.6103 97.6321-44.6553L134.524-7.73871Q136.467-5.79599 139.313-5.69699Q142.159-5.598 144.182-7.73871Q146.125-9.82364 146.125-12.5892Q146.125-15.3548 144.163-17.3596L95.2319-66.3095Q90.369-71.1289 83.5822-71.1289L55.2591-71.1289Q52.4562-71.1289 50.433-69.1058L31.05-49.7041Q29.0268-47.6996 29.036-44.8845Q29.0452-42.0694 31.05-40.0646Q33.0731-38.0415 35.8789-38.0415Q38.6847-38.0415 40.646-40.0646L58.1049-57.5052L68.9377-57.5052Q69.6986-57.5052 69.9243-56.9825Q70.1501-56.4597 69.6551-55.9464L52.4872-38.772Q49.2329-35.5609 48.4193-31.5735Q47.6057-27.5862 48.9513-23.9019Q50.2969-20.2176 53.6502-17.8387Q57.0035-15.4597 62.1449-15.4597L92.3114-15.4597ZM50.5443-12.2725L48.9481 6.50293L22.9578 6.50293Q20.1116 6.50293 18.0978 8.48586Q16.084 10.4688 16.084 13.2528Q16.084 16.0803 18.0978 18.1035Q20.1116 20.1266 22.9578 20.1266L55.2591 20.1266Q57.8451 20.1266 59.729 18.4035Q61.6129 16.6804 62.0521 14.1127L66.2653-9.08635L62.1449-9.08635Q55.4629-9.08635 50.5443-12.2725ZM149.033 20.1266L168.398 20.1266Q171.813 20.1266 174.223 17.6949Q176.634 15.2631 176.634 11.8911Q176.634 8.47549 174.223 6.07466Q171.813 3.67382 168.398 3.67382L149.033 3.67382Q145.581 3.67382 143.149 6.07466Q140.717 8.47549 140.717 11.8911Q140.717 15.2631 143.149 17.6949Q145.581 20.1266 149.033 20.1266ZM161.98 7.48859L168.43 7.48859L168.43 0.886522Q168.43-3.30894 165.763-5.97617Q163.096-8.64339 158.944-8.64339L152.071-8.64339Q150.703-8.64339 149.759-7.70885Q148.815-6.7743 148.815-5.40612Q148.815-4.03826 149.759-3.08511Q150.703-2.13196 152.071-2.13196L158.944-2.13196Q160.317-2.13196 161.149-1.30928Q161.98-0.486605 161.98 0.886522Z"/>
  </g>
  <g id="Medium-L" transform="matrix(1 0 0 1 1651.49 1556)">
   <path d="M109.542-65.7111Q115.221-65.7111 119.266-69.7732Q123.312-73.8353 123.312-79.5033Q123.312-85.2296 119.266-89.2862Q115.221-93.3429 109.542-93.3429Q103.804-93.3429 99.7528-89.2862Q95.702-85.2296 95.702-79.5033Q95.702-73.8353 99.7528-69.7732Q103.804-65.7111 109.542-65.7111ZM86.5366 11.932Q85.9422 15.1847 87.6201 17.1673Q89.298 19.1499 91.8928 19.5328Q94.4876 19.9157 96.7672 18.5751Q99.0469 17.2344 99.6413 13.9114L106.098-21.3386Q106.579-23.8918 105.078-26.2169Q103.578-28.542 100.635-28.9429L79.8693-31.8666L92.7193-44.7166Q94.7672-46.7645 96.8148-44.7166L133.35-8.14443Q135.229-6.2661 137.984-6.17516Q140.739-6.08423 142.698-8.14443Q144.577-10.161 144.577-12.8421Q144.577-15.5232 142.688-17.4597L94.2129-65.945Q89.4383-70.6719 82.7842-70.6719L54.7254-70.6719Q52.023-70.6719 50.0643-68.7132L30.8655-49.4917Q28.9067-47.5556 28.9179-44.829Q28.929-42.1025 30.8655-40.166Q32.8121-38.2072 35.5334-38.2072Q38.2548-38.2072 40.1436-40.166L57.4867-57.4868L68.4411-57.4868Q69.2666-57.4868 69.5105-56.9177Q69.7543-56.3485 69.219-55.7909L52.0985-38.6677Q48.9085-35.5249 48.111-31.618Q47.3135-27.711 48.6329-24.1031Q49.9523-20.4952 53.2333-18.1665Q56.5143-15.8378 61.5511-15.8378L91.6187-15.8378ZM50.2441-12.819L48.6196 6.22706L22.7406 6.22706Q19.9789 6.22706 18.0314 8.14561Q16.084 10.0642 16.084 12.7556Q16.084 15.4947 18.0314 17.4534Q19.9789 19.4122 22.7406 19.4122L54.7254 19.4122Q57.2349 19.4122 59.0565 17.7454Q60.878 16.0786 61.3012 13.5792L65.5346-9.71332L61.5511-9.71332Q55.0381-9.71332 50.2441-12.819ZM146.909 19.4122L166.085 19.4122Q169.388 19.4122 171.716 17.0607Q174.044 14.7093 174.044 11.4538Q174.044 8.15066 171.716 5.83416Q169.388 3.51766 166.085 3.51766L146.909 3.51766Q143.561 3.51766 141.216 5.83416Q138.87 8.15066 138.87 11.4538Q138.87 14.7093 141.216 17.0607Q143.561 19.4122 146.909 19.4122ZM159.961 7.07702L165.889 7.07702L165.889 0.728132Q165.889-3.28254 163.308-5.85769Q160.727-8.43284 156.763-8.43284L149.987-8.43284Q148.728-8.43284 147.864-7.5746Q147-6.71636 147-5.45651Q147-4.19704 147.864-3.32222Q148.728-2.4474 149.987-2.4474L156.763-2.4474Q158.205-2.4474 159.083-1.5804Q159.961-0.71339 159.961 0.728132Z"/>
  </g>
  <g id="Regular-L" transform="matrix(1 0 0 1 1356.47 1556)">
   <path d="M107.945-65.3764Q113.461-65.3764 117.397-69.3258Q121.332-73.2753 121.332-78.7913Q121.332-84.3604 117.397-88.3096Q113.461-92.2589 107.945-92.2589Q102.348-92.2589 98.4127-88.3096Q94.4771-84.3604 94.4771-78.7913Q94.4771-73.2753 98.4127-69.3258Q102.348-65.3764 107.945-65.3764ZM85.6538 11.3307Q85.0908 14.4365 86.6979 16.3378Q88.3049 18.239 90.7817 18.6009Q93.2585 18.9628 95.441 17.6772Q97.6235 16.3917 98.1864 13.205L104.56-21.6061Q105.014-24.0438 103.582-26.2666Q102.149-28.4893 99.3374-28.864L78.4233-31.8089L91.4111-44.7967Q93.5801-46.9657 95.7487-44.7967L131.819-8.67365Q133.614-6.87928 136.251-6.79886Q138.888-6.71844 140.763-8.67365Q142.557-10.601 142.557-13.1719Q142.557-15.7428 140.763-17.5902L92.8838-65.4695Q88.2245-70.0758 81.7434-70.0758L54.0292-70.0758Q51.4581-70.0758 49.5833-68.201L30.6249-49.2147Q28.7501-47.3678 28.7638-44.7567Q28.7775-42.1456 30.6249-40.2982Q32.4718-38.4234 35.0829-38.4234Q37.694-38.4234 39.4884-40.2982L56.6803-57.4627L67.7933-57.4627Q68.7031-57.4627 68.9706-56.8331Q69.2381-56.2034 68.6501-55.588L51.5915-38.5317Q48.4853-35.478 47.7088-31.6759Q46.9322-27.8738 48.2175-24.3655Q49.5029-20.8572 52.6895-18.594Q55.8761-16.3309 60.7767-16.3309L90.7152-16.3309ZM49.8524-13.5318L48.191 5.86722L22.4572 5.86722Q19.8057 5.86722 17.9448 7.7018Q16.084 9.53637 16.084 12.1071Q16.084 14.7307 17.9448 16.6055Q19.8057 18.4803 22.4572 18.4803L54.0292 18.4803Q56.4391 18.4803 58.1793 16.887Q59.9195 15.2937 60.3216 12.8834L64.5816-10.5311L60.7767-10.5311Q54.4839-10.5311 49.8524-13.5318ZM144.138 18.4803L163.069 18.4803Q166.225 18.4803 168.446 16.2336Q170.666 13.9869 170.666 10.8834Q170.666 7.72697 168.446 5.52047Q166.225 3.31397 163.069 3.31397L144.138 3.31397Q140.927 3.31397 138.694 5.52047Q136.461 7.72697 136.461 10.8834Q136.461 13.9869 138.694 16.2336Q140.927 18.4803 144.138 18.4803ZM157.327 6.54018L162.574 6.54018L162.574 0.521536Q162.574-3.24811 160.105-5.70315Q157.636-8.1582 153.919-8.1582L147.269-8.1582Q146.151-8.1582 145.392-7.39949Q144.633-6.64078 144.633-5.52224Q144.633-4.40416 145.392-3.63151Q146.151-2.85886 147.269-2.85886L153.919-2.85886Q155.45-2.85886 156.388-1.93403Q157.327-1.0092 157.327 0.521536Z"/>
  </g>
  <g id="Light-L" transform="matrix(1 0 0 1 1061.7 1556)">
   <path d="M106.018-64.8418Q111.4-64.8418 115.221-68.6864Q119.042-72.5311 119.042-77.9134Q119.042-83.3298 115.221-87.174Q111.4-91.0183 106.018-91.0183Q100.554-91.0183 96.7331-87.174Q92.912-83.3298 92.912-77.9134Q92.912-72.5311 96.7331-68.6864Q100.554-64.8418 106.018-64.8418ZM83.9934 10.3575Q83.4305 13.3866 85.0088 15.2403Q86.5871 17.094 88.9972 17.4559Q91.4073 17.8178 93.5421 16.5607Q95.6768 15.3037 96.2397 12.1934L102.46-21.778Q102.896-24.1776 101.501-26.3525Q100.107-28.5275 97.3526-28.8832L76.9345-31.7515L89.617-44.434Q91.729-46.546 93.8402-44.434L129.052-9.18894Q130.808-7.43273 133.379-7.35231Q135.949-7.27189 137.786-9.18894Q139.542-11.0589 139.542-13.5725Q139.542-16.0862 137.786-17.8765L91.0515-64.6108Q86.5067-69.1216 80.1593-69.1216L53.1324-69.1216Q50.6183-69.1216 48.7817-67.2849L30.2814-48.7376Q28.4448-46.9481 28.468-44.3942Q28.4911-41.8403 30.2814-40.05Q32.0709-38.2134 34.6248-38.2134Q37.1787-38.2134 38.9349-40.05L55.7261-56.7948L66.5719-56.7948Q67.4435-56.7948 67.7014-56.1746Q67.9594-55.5544 67.4094-54.9582L50.7328-38.3409Q47.7029-35.3443 46.9454-31.6378Q46.188-27.9312 47.4446-24.4992Q48.7012-21.0672 51.8116-18.8517Q54.9219-16.6361 59.708-16.6361L88.9404-16.6361ZM49.07-14.1808L47.4276 5.00851L22.3046 5.00851Q19.7101 5.00851 17.897 6.80492Q16.084 8.60134 16.084 11.1146Q16.084 13.662 17.897 15.4986Q19.7101 17.3352 22.3046 17.3352L53.1324 17.3352Q55.4848 17.3352 57.1772 15.7801Q58.8697 14.2249 59.2718 11.8717L63.4747-11.2183L59.708-11.2183Q53.5678-11.2183 49.07-14.1808ZM141.103 17.3352L159.557 17.3352Q162.561 17.3352 164.677 15.203Q166.792 13.0708 166.792 10.101Q166.792 7.0972 164.677 5.00518Q162.561 2.91315 159.557 2.91315L141.103 2.91315Q138.007 2.91315 135.898 5.00518Q133.789 7.0972 133.789 10.101Q133.789 13.0708 135.898 15.203Q138.007 17.3352 141.103 17.3352ZM154.292 5.14693L158.776 5.14693L158.776-0.585367Q158.776-4.12606 156.546-6.33292Q154.315-8.53978 150.808-8.53978L144.12-8.53978Q143.174-8.53978 142.529-7.8957Q141.885-7.25163 141.885-6.30464Q141.885-5.35843 142.529-4.69079Q143.174-4.02316 144.12-4.02316L150.808-4.02316Q152.396-4.02316 153.344-3.09833Q154.292-2.1735 154.292-0.585367Z"/>
  </g>
  <g id="Thin-L" transform="matrix(1 0 0 1 767.546 1556)">
   <path d="M103.468-64.1349Q108.674-64.1349 112.344-67.8408Q116.013-71.5467 116.013-76.7522Q116.013-81.9668 112.344-85.6721Q108.674-89.3774 103.468-89.3774Q98.1813-89.3774 94.5117-85.6721Q90.842-81.9668 90.842-76.7522Q90.842-71.5467 94.5117-67.8408Q98.1813-64.1349 103.468-64.1349ZM81.7975 9.07042Q81.2345 11.9982 82.7749 13.7889Q84.3153 15.5795 86.6371 15.9414Q88.959 16.3033 91.0306 15.084Q93.1021 13.8647 93.6651 10.8554L99.6838-22.0053Q100.094-24.3544 98.7499-26.4662Q97.4061-28.5779 94.7274-28.9087L74.9655-31.6756L87.2442-43.9543Q89.2807-45.9908 91.316-43.9543L125.392-9.87046Q127.098-8.16472 129.58-8.0843Q132.062-8.00388 133.848-9.87046Q135.554-11.6645 135.554-14.1024Q135.554-16.5404 133.848-18.2552L88.6283-63.4751Q84.2348-67.8595 78.0643-67.8595L51.9462-67.8595Q49.5076-67.8595 47.7214-66.0733L29.8272-48.1065Q28.0411-46.3929 28.0767-43.9147Q28.1124-41.4366 29.8272-39.7218Q31.5408-37.9356 34.019-37.9356Q36.4972-37.9356 38.2029-39.7218L54.464-55.9114L64.9566-55.9114Q65.7777-55.9114 66.0229-55.3037Q66.2681-54.6961 65.7686-54.1253L49.5971-38.0886Q46.6681-35.1675 45.9359-31.5873Q45.2036-28.0071 46.4223-24.6761Q47.641-21.345 50.6504-19.1924Q53.6598-17.0399 58.2945-17.0399L86.593-17.0399ZM48.0353-15.0391L46.4178 3.87279L22.1027 3.87279Q19.5837 3.87279 17.8339 5.61873Q16.084 7.36468 16.084 9.80205Q16.084 12.2485 17.8339 14.0346Q19.5837 15.8208 22.1027 15.8208L51.9462 15.8208Q54.2227 15.8208 55.852 14.3161Q57.4812 12.8114 57.8833 10.5337L62.0107-12.1271L58.2945-12.1271Q52.3561-12.1271 48.0353-15.0391ZM137.09 15.8208L154.913 15.8208Q157.715 15.8208 159.691 13.84Q161.668 11.8591 161.668 9.06624Q161.668 6.26429 159.691 4.32366Q157.715 2.38303 154.913 2.38303L137.09 2.38303Q134.145 2.38303 132.2 4.32366Q130.255 6.26429 130.255 9.06624Q130.255 11.8591 132.2 13.84Q134.145 15.8208 137.09 15.8208ZM150.279 3.30425L153.753 3.30425L153.753-2.04934Q153.753-5.28723 151.838-7.16584Q149.924-9.04445 146.694-9.04445L139.955-9.04445Q139.236-9.04445 138.743-8.55199Q138.25-8.05952 138.25-7.33942Q138.25-6.62053 138.743-6.09178Q139.236-5.56304 139.955-5.56304L146.694-5.56304Q148.358-5.56304 149.318-4.63821Q150.279-3.71338 150.279-2.04934Z"/>
  </g>
  <g id="Ultralight-L" transform="matrix(1 0 0 1 472.148 1556)">
   <path d="M102.163-63.7728Q107.278-63.7728 110.87-67.4077Q114.462-71.0426 114.462-76.1575Q114.462-81.2686 110.87-84.9028Q107.278-88.537 102.163-88.537Q96.966-88.537 93.3739-84.9028Q89.7818-81.2686 89.7818-76.1575Q89.7818-71.0426 93.3739-67.4077Q96.966-63.7728 102.163-63.7728ZM80.6727 8.41116Q80.1098 11.287 81.6307 13.0454Q83.1516 14.8039 85.4283 15.1657Q87.705 15.5276 89.7442 14.3277Q91.7834 13.1277 92.3463 10.17L98.2617-22.1217Q98.6586-24.445 97.3406-26.5244Q96.0226-28.6038 93.3829-28.9217L73.9569-31.6367L86.0289-43.7087Q88.0267-45.7065 90.0231-43.7087L123.517-10.2195Q125.197-8.53964 127.634-8.45922Q130.071-8.3788 131.831-10.2195Q133.511-11.9747 133.511-14.3739Q133.511-16.7731 131.831-18.4492L87.3871-62.8934Q83.0712-67.213 76.9913-67.213L51.3386-67.213Q48.9387-67.213 47.1784-65.4527L29.5946-47.7833Q27.8343-46.1086 27.8764-43.6692Q27.9184-41.2298 29.5946-39.5536Q31.2693-37.7933 33.7087-37.7933Q36.1481-37.7933 37.828-39.5536L53.8175-55.459L64.1292-55.459Q64.9245-55.459 65.1631-54.8577Q65.4018-54.2564 64.9282-53.6987L49.0154-37.9593Q46.1381-35.0769 45.4188-31.5615Q44.6995-28.046 45.8987-24.7667Q47.098-21.4873 50.0556-19.367Q53.0133-17.2467 57.5705-17.2467L85.3907-17.2467ZM47.5052-15.4788L45.9006 3.29107L21.9993 3.29107Q19.519 3.29107 17.8015 5.01117Q16.084 6.73127 16.084 9.12976Q16.084 11.5245 17.8015 13.2848Q19.519 15.0451 21.9993 15.0451L51.3386 15.0451Q53.5763 15.0451 55.1731 13.5663Q56.77 12.0874 57.1721 9.84836L61.2609-12.5926L57.5705-12.5926Q51.7355-12.5926 47.5052-15.4788ZM135.034 15.0451L152.534 15.0451Q155.232 15.0451 157.138 13.1418Q159.044 11.2385 159.044 8.53623Q159.044 5.83767 157.138 3.97459Q155.232 2.11151 152.534 2.11151L135.034 2.11151Q132.167 2.11151 130.306 3.97459Q128.445 5.83767 128.445 8.53623Q128.445 11.2385 130.306 13.1418Q132.167 15.0451 135.034 15.0451ZM148.223 2.36044L151.181 2.36044L151.181-2.79917Q151.181-5.88197 149.427-7.59246Q147.674-9.30294 144.586-9.30294L137.822-9.30294Q137.219-9.30294 136.804-8.88813Q136.388-8.47333 136.388-7.86944Q136.388-7.26697 136.804-6.80937Q137.219-6.35176 137.822-6.35176L144.586-6.35176Q146.289-6.35176 147.256-5.42693Q148.223-4.5021 148.223-2.79917Z"/>
  </g>
  <g id="Black-M" transform="matrix(1 0 0 1 2852.55 1126)">
   <path d="M91.646-60.2213Q96.7567-60.2213 100.364-63.8572Q103.972-67.493 103.972-72.5467Q103.972-77.663 100.364-81.2703Q96.7567-84.8776 91.646-84.8776Q86.5871-84.8776 82.9511-81.2703Q79.3151-77.663 79.3151-72.5467Q79.3151-67.493 82.9511-63.8572Q86.5871-60.2213 91.646-60.2213ZM70.5892 3.77677Q69.9818 6.95525 71.602 8.85355Q73.2223 10.7518 75.7594 11.1464Q78.2966 11.541 80.4986 10.2556Q82.7006 8.97021 83.308 5.78652L88.6477-23.2804Q89.136-25.7833 87.6687-28.045Q86.2015-30.3068 83.3296-30.7328L68.1039-32.8731L77.3143-42.0835Q78.3174-43.0866 79.3206-42.0835L109.499-11.9568Q111.332-10.1236 113.994-10.0042Q116.656-9.88479 118.551-11.9568Q120.384-13.915 120.384-16.4858Q120.384-19.0565 118.494-20.9524L78.5558-60.9477Q74.359-65.139 68.4435-65.139L45.3341-65.139Q42.6491-65.139 40.7536-63.2434L24.9164-47.4065Q23.0208-45.5107 23.0207-42.8802Q23.0205-40.2497 24.9164-38.3539Q26.8693-36.4584 29.4712-36.4584Q32.0731-36.4584 33.9635-38.3539L47.9671-52.3579L55.6246-52.3579Q55.8589-52.3579 55.9344-52.2019Q56.0099-52.0459 55.8534-51.8897L42.4314-38.4617Q39.5955-35.6312 38.8865-32.1487Q38.1776-28.6661 39.3488-25.433Q40.52-22.2 43.4753-20.107Q46.4306-18.0139 50.9284-18.0139L74.5836-18.0139ZM40.4834-14.7692L39.4031-1.72818L18.8854-1.72818Q16.2523-1.72818 14.3566 0.136218Q12.4609 2.00062 12.4609 4.62849Q12.4609 7.26185 14.3566 9.1574Q16.2523 11.053 18.8854 11.053L45.3341 11.053Q47.7231 11.053 49.4968 9.43256Q51.2705 7.81217 51.6962 5.48021L54.8331-11.8872L50.9284-11.8872Q44.9088-11.8872 40.4834-14.7692ZM125.685 11.053L141.522 11.053Q144.712 11.053 146.98 8.78244Q149.248 6.51193 149.248 3.32739Q149.248 0.137368 146.98-2.13054Q144.712-4.39845 141.522-4.39845L125.685-4.39845Q122.495-4.39845 120.196-2.13054Q117.897 0.137368 117.897 3.32739Q117.897 6.51193 120.196 8.78244Q122.495 11.053 125.685 11.053ZM135.16-0.427481L142.663-0.427481L142.663-6.78642Q142.663-10.938 140.222-13.4078Q137.781-15.8776 133.635-15.8776L127.784-15.8776Q126.208-15.8776 125.091-14.7883Q123.973-13.699 123.973-12.1234Q123.973-10.5478 125.091-9.43006Q126.208-8.31232 127.784-8.31232L133.635-8.31232Q134.356-8.31232 134.758-7.90985Q135.16-7.50737 135.16-6.78642Z"/>
  </g>
  <g id="Heavy-M" transform="matrix(1 0 0 1 2557.58 1126)">
   <path d="M90.0133-59.9072Q94.9445-59.9072 98.4355-63.4212Q101.927-66.9352 101.927-71.8227Q101.927-76.7703 98.4355-80.2625Q94.9445-83.7547 90.0133-83.7547Q85.1071-83.7547 81.5942-80.2625Q78.0813-76.7703 78.0813-71.8227Q78.0813-66.9352 81.5942-63.4212Q85.1071-59.9072 90.0133-59.9072ZM69.8143 3.2152Q69.2473 6.22172 70.7829 8.02605Q72.3184 9.83038 74.7186 10.198Q77.1188 10.5656 79.2067 9.34469Q81.2945 8.12376 81.8615 5.09852L87.1267-23.5864Q87.5855-25.9495 86.1975-28.0902Q84.8095-30.231 82.0935-30.6275L66.5705-32.8115L76.0229-42.264Q77.1936-43.4346 78.3642-42.264L108.131-12.5244Q109.865-10.7906 112.39-10.6847Q114.914-10.5788 116.71-12.5244Q118.444-14.3806 118.444-16.8224Q118.444-19.2642 116.667-21.0581L77.2458-60.5228Q73.1722-64.58 67.4497-64.58L44.6345-64.58Q42.1054-64.58 40.3093-62.7838L24.6817-47.154Q22.8856-45.3601 22.8867-42.8653Q22.8878-40.3705 24.6817-38.5767Q26.5191-36.7806 28.9921-36.7806Q31.4651-36.7806 33.2425-38.5767L47.1386-52.4705L55.0567-52.4705Q55.4072-52.4705 55.5151-52.2349Q55.6229-51.9993 55.3908-51.7649L41.966-38.3283Q39.2212-35.5999 38.535-32.2312Q37.8488-28.8624 38.9825-25.7407Q40.1161-22.6189 42.9669-20.5996Q45.8176-18.5803 50.1654-18.5803L73.8069-18.5803ZM40.1495-15.5433L39.0179-2.00492L18.555-2.00492Q16.0509-2.00492 14.2559-0.239955Q12.4609 1.52501 12.4609 4.01044Q12.4609 6.5123 14.2559 8.30842Q16.0509 10.1045 18.555 10.1045L44.6345 10.1045Q46.9081 10.1045 48.5878 8.57011Q50.2675 7.03568 50.6663 4.80568L53.8494-12.7877L50.1654-12.7877Q44.3953-12.7877 40.1495-15.5433ZM122.785 10.1045L138.411 10.1045Q141.445 10.1045 143.598 7.94369Q145.751 5.78283 145.751 2.76443Q145.751-0.270396 143.598-2.42191Q141.445-4.57342 138.411-4.57342L122.785-4.57342Q119.746-4.57342 117.564-2.42191Q115.383-0.270396 115.383 2.76443Q115.383 5.78283 117.564 7.94369Q119.746 10.1045 122.785 10.1045ZM132.436-0.816255L139.23-0.816255L139.23-6.81343Q139.23-10.7053 136.882-13.0745Q134.533-15.4437 130.658-15.4437L124.977-15.4437Q123.546-15.4437 122.538-14.4573Q121.529-13.4709 121.529-12.0396Q121.529-10.6083 122.538-9.59892Q123.546-8.58958 124.977-8.58958L130.658-8.58958Q131.481-8.58958 131.958-8.11299Q132.436-7.63641 132.436-6.81343Z"/>
  </g>
  <g id="Bold-M" transform="matrix(1 0 0 1 2262.83 1126)">
   <path d="M88.187-59.5557Q92.9172-59.5557 96.2781-62.9334Q99.6389-66.3112 99.6389-71.0129Q99.6389-75.7718 96.2781-79.1352Q92.9172-82.4986 88.187-82.4986Q83.4514-82.4986 80.0763-79.1352Q76.7012-75.7718 76.7012-71.0129Q76.7012-66.3112 80.0763-62.9334Q83.4514-59.5557 88.187-59.5557ZM68.9475 2.587Q68.4257 5.40116 69.8665 7.10037Q71.3073 8.79959 73.5543 9.13706Q75.8014 9.47453 77.7614 8.32571Q79.7215 7.17689 80.2433 4.3289L85.4254-23.9287Q85.8511-26.1353 84.5517-28.1408Q83.2524-30.1463 80.7108-30.5098L64.8551-32.7426L74.5783-42.4659Q75.9364-43.8239 77.2943-42.4659L106.601-13.1594Q108.223-11.5368 110.595-11.446Q112.967-11.3551 114.651-13.1594Q116.274-14.9014 116.274-17.199Q116.274-19.4966 114.623-21.1764L75.7804-60.0474Q71.8445-63.9546 66.3381-63.9546L43.8519-63.9546Q41.4972-63.9546 39.8123-62.2697L24.4192-46.8714Q22.7343-45.1917 22.7369-42.8487Q22.7394-40.5057 24.4192-38.8259Q26.1275-37.141 28.4562-37.141Q30.785-37.141 32.4361-38.8259L46.2118-52.5965L54.4214-52.5965Q54.9019-52.5965 55.046-52.2719Q55.1901-51.9473 54.8732-51.6253L41.4454-38.1791Q38.8025-35.5647 38.1418-32.3234Q37.481-29.0821 38.5727-26.0848Q39.6644-23.0875 42.3982-21.1507Q45.132-19.214 49.3119-19.214L72.9379-19.214ZM39.776-16.4094L38.5869-2.31449L18.1855-2.31449Q15.8255-2.31449 14.1432-0.66076Q12.4609 0.992973 12.4609 3.31907Q12.4609 5.67383 14.1432 7.35872Q15.8255 9.0436 18.1855 9.0436L43.8519 9.0436Q45.9963 9.0436 47.5709 7.60533Q49.1455 6.16706 49.5141 4.05113L52.749-13.7951L49.3119-13.7951Q43.8209-13.7951 39.776-16.4094ZM119.542 9.0436L134.93 9.0436Q137.791 9.0436 139.815 7.00542Q141.839 4.96724 141.839 2.13468Q141.839-0.726538 139.815-2.74784Q137.791-4.76915 134.93-4.76915L119.542-4.76915Q116.67-4.76915 114.621-2.74784Q112.571-0.726538 112.571 2.13468Q112.571 4.96724 114.621 7.00542Q116.67 9.0436 119.542 9.0436ZM129.389-1.25115L135.39-1.25115L135.39-6.84366Q135.39-10.4449 133.145-12.7016Q130.9-14.9582 127.328-14.9582L121.837-14.9582Q120.567-14.9582 119.682-14.087Q118.796-13.2158 118.796-11.9458Q118.796-10.6759 119.682-9.78782Q120.567-8.89972 121.837-8.89972L127.328-8.89972Q128.265-8.89972 128.827-8.34023Q129.389-7.78075 129.389-6.84366Z"/>
  </g>
  <g id="Semibold-M" transform="matrix(1 0 0 1 1967.47 1126)">
   <path d="M86.9279-59.3134Q91.5196-59.3134 94.7907-62.5972Q98.0618-65.881 98.0618-70.4545Q98.0618-75.0834 94.7907-78.358Q91.5196-81.6326 86.9279-81.6326Q82.3101-81.6326 79.0299-78.358Q75.7497-75.0834 75.7497-70.4545Q75.7497-65.881 79.0299-62.5972Q82.3101-59.3134 86.9279-59.3134ZM68.3499 2.15393Q67.8593 4.83546 69.2348 6.46222Q70.6103 8.08897 72.7517 8.40566Q74.8931 8.72234 76.7651 7.62323Q78.6371 6.52413 79.1277 3.79833L84.2525-24.1646Q84.6554-26.2634 83.4172-28.1757Q82.1789-30.0879 79.7575-30.4287L63.6725-32.6951L73.5824-42.605Q75.0697-44.0923 76.5568-42.605L105.546-13.5971Q107.092-12.0512 109.358-11.9707Q111.624-11.8903 113.232-13.5971Q114.778-15.2605 114.778-17.4586Q114.778-19.6568 113.214-21.2579L74.7702-59.7197Q70.9293-63.5235 65.5717-63.5235L43.3124-63.5235Q41.0779-63.5235 39.4697-61.9153L24.2382-46.6766Q22.63-45.0756 22.6336-42.8372Q22.6371-40.5988 24.2382-38.9977Q25.8574-37.3895 28.0867-37.3895Q30.3161-37.3895 31.8801-38.9977L45.5728-52.6834L53.9835-52.6834Q54.5536-52.6834 54.7226-52.2974Q54.8917-51.9114 54.5164-51.5291L41.0865-38.0763Q38.5138-35.5405 37.8706-32.387Q37.2275-29.2335 38.2902-26.322Q39.3529-23.4105 42.0061-21.5307Q44.6593-19.6508 48.7234-19.6508L72.3389-19.6508ZM39.5185-17.0064L38.2898-2.52791L17.9307-2.52791Q15.6702-2.52791 14.0656-0.95086Q12.4609 0.626189 12.4609 2.84244Q12.4609 5.0958 14.0656 6.704Q15.6702 8.3122 17.9307 8.3122L43.3124 8.3122Q45.3678 8.3122 46.8699 6.94022Q48.3719 5.56824 48.7198 3.53095L51.9903-14.4896L48.7234-14.4896Q43.4249-14.4896 39.5185-17.0064ZM117.306 8.3122L132.53 8.3122Q135.272 8.3122 137.207 6.35858Q139.142 4.40497 139.142 1.70054Q139.142-1.041 137.207-2.97254Q135.272-4.90408 132.53-4.90408L117.306-4.90408Q114.55-4.90408 112.591-2.97254Q110.632-1.041 110.632 1.70054Q110.632 4.40497 112.591 6.35858Q114.55 8.3122 117.306 8.3122ZM127.288-1.55097L132.743-1.55097L132.743-6.86449Q132.743-10.2655 130.569-12.4445Q128.396-14.6235 125.032-14.6235L119.672-14.6235Q118.514-14.6235 117.713-13.8317Q116.912-13.0399 116.912-11.8811Q116.912-10.7225 117.713-9.91804Q118.514-9.11354 119.672-9.11354L125.032-9.11354Q126.047-9.11354 126.668-8.4969Q127.288-7.88025 127.288-6.86449Z"/>
  </g>
  <g id="Medium-M" transform="matrix(1 0 0 1 1671.78 1126)">
   <path d="M85.9732-59.1297Q90.4599-59.1297 93.663-62.3423Q96.866-65.5548 96.866-70.0312Q96.866-74.5614 93.663-77.7687Q90.4599-80.976 85.9732-80.976Q81.4446-80.976 78.2365-77.7687Q75.0283-74.5614 75.0283-70.0312Q75.0283-65.5548 78.2365-62.3423Q81.4446-59.1297 85.9732-59.1297ZM67.8968 1.82555Q67.4298 4.40653 68.7558 5.97834Q70.0817 7.55015 72.1431 7.85108Q74.2044 8.152 76.0096 7.09059Q77.8148 6.02917 78.2818 3.39602L83.3631-24.3436Q83.7488-26.3606 82.5569-28.2021Q81.3649-30.0436 79.0347-30.3672L62.7758-32.6591L72.8273-42.7106Q74.4125-44.2958 75.9976-42.7106L104.746-13.929Q106.234-12.4413 108.42-12.3687Q110.606-12.2961 112.156-13.929Q113.643-15.5327 113.643-17.6555Q113.643-19.7782 112.145-21.3197L74.0042-59.4712Q70.2353-63.1966 64.9906-63.1966L42.9034-63.1966Q40.76-63.1966 39.2099-61.6465L24.101-46.529Q22.551-44.9876 22.5552-42.8285Q22.5595-40.6695 24.101-39.1279Q25.6527-37.5779 27.8066-37.5779Q29.9605-37.5779 31.4585-39.1279L45.0884-52.7492L53.6515-52.7492Q54.2894-52.7492 54.4775-52.3167Q54.6655-51.8842 54.2459-51.4561L40.8144-37.9983Q38.2949-35.5222 37.6651-32.4352Q37.0352-29.3483 38.076-26.5019Q39.1168-23.6555 41.7088-21.8187Q44.3009-19.982 48.2773-19.982L71.8847-19.982ZM39.3233-17.4591L38.0645-2.68973L17.7375-2.68973Q15.5524-2.68973 14.0067-1.17083Q12.4609 0.348079 12.4609 2.48104Q12.4609 4.6575 14.0067 6.20756Q15.5524 7.75762 17.7375 7.75762L42.9034 7.75762Q44.8912 7.75762 46.3383 6.43591Q47.7854 5.11419 48.1175 3.13653L51.4151-15.0162L48.2773-15.0162Q43.1246-15.0162 39.3233-17.4591ZM115.61 7.75762L130.711 7.75762Q133.362 7.75762 135.229 5.86813Q137.097 3.97863 137.097 1.37135Q137.097-1.27944 135.229-3.14292Q133.362-5.0064 130.711-5.0064L115.61-5.0064Q112.943-5.0064 111.052-3.14292Q109.162-1.27944 109.162 1.37135Q109.162 3.97863 111.052 5.86813Q112.943 7.75762 115.61 7.75762ZM125.695-1.77831L130.735-1.77831L130.735-6.88029Q130.735-10.1294 128.616-12.2496Q126.497-14.3698 123.291-14.3698L118.031-14.3698Q116.957-14.3698 116.22-13.6381Q115.483-12.9065 115.483-11.8321Q115.483-10.7579 116.22-10.0168Q116.957-9.27566 118.031-9.27566L123.291-9.27566Q124.366-9.27566 125.031-8.61568Q125.695-7.9557 125.695-6.88029Z"/>
  </g>
  <g id="Regular-M" transform="matrix(1 0 0 1 1376.4 1126)">
   <path d="M84.728-58.8901Q89.0777-58.8901 92.1919-62.0097Q95.3062-65.1293 95.3062-69.479Q95.3062-73.8805 92.1919-77Q89.0777-80.1195 84.728-80.1195Q80.3158-80.1195 77.2015-77Q74.0873-73.8805 74.0873-69.479Q74.0873-65.1293 77.2015-62.0097Q80.3158-58.8901 84.728-58.8901ZM67.3057 1.39724Q66.8696 3.84706 68.131 5.3472Q69.3924 6.84734 71.3492 7.12771Q73.3061 7.40808 75.0242 6.39583Q76.7423 5.38358 77.1785 2.87128L82.2031-24.577Q82.5663-26.4873 81.4347-28.2366Q80.3032-29.9858 78.092-30.2869L61.6062-32.6121L71.8424-42.8482Q73.5553-44.5612 75.2681-42.8482L103.703-14.3619Q105.115-12.95 107.196-12.8877Q109.277-12.8254 110.752-14.3619Q112.164-15.8878 112.164-17.9122Q112.164-19.9366 110.752-21.4004L73.005-59.147Q69.3301-62.7702 64.2327-62.7702L42.3698-62.7702Q40.3453-62.7702 38.8711-61.296L23.9221-46.3363Q22.4478-44.8727 22.4531-42.8172Q22.4583-40.7616 23.9221-39.2979Q25.3856-37.8236 27.4412-37.8236Q29.4968-37.8236 30.9087-39.2979L44.4564-52.8351L53.2183-52.8351Q53.9449-52.8351 54.1576-52.3419Q54.3704-51.8487 53.893-51.3609L40.4595-37.8966Q38.0095-35.4982 37.397-32.4981Q36.7845-29.498 37.7966-26.7365Q38.8088-23.975 41.3211-22.1945Q43.8334-20.414 47.6953-20.414L71.2922-20.414ZM39.0686-18.0495L37.7707-2.9008L17.4855-2.9008Q15.3987-2.9008 13.9298-1.45774Q12.4609-0.0146737 12.4609 2.00965Q12.4609 4.08582 13.9298 5.56004Q15.3987 7.03425 17.4855 7.03425L42.3698 7.03425Q44.2695 7.03425 45.645 5.7781Q47.0204 4.52195 47.3319 2.62206L50.6648-15.703L47.6953-15.703Q42.733-15.703 39.0686-18.0495ZM113.399 7.03425L128.338 7.03425Q130.87 7.03425 132.65 5.2284Q134.43 3.42254 134.43 0.941972Q134.43-1.59044 132.65-3.36515Q130.87-5.13985 128.338-5.13985L113.399-5.13985Q110.846-5.13985 109.045-3.36515Q107.244-1.59044 107.244 0.941972Q107.244 3.42254 109.045 5.2284Q110.846 7.03425 113.399 7.03425ZM123.617-2.07483L128.117-2.07483L128.117-6.9009Q128.117-9.95187 126.068-11.9953Q124.02-14.0388 121.02-14.0388L115.89-14.0388Q114.926-14.0388 114.273-13.3857Q113.62-12.7325 113.62-11.7682Q113.62-10.804 114.273-10.1456Q114.926-9.48713 115.89-9.48713L121.02-9.48713Q122.174-9.48713 122.895-8.77062Q123.617-8.05412 123.617-6.9009Z"/>
  </g>
  <g id="Light-M" transform="matrix(1 0 0 1 1081.42 1126)">
   <path d="M82.9999-58.4109Q87.2297-58.4109 90.2414-61.4365Q93.253-64.462 93.253-68.6919Q93.253-72.9566 90.2414-75.9819Q87.2297-79.0072 82.9999-79.0072Q78.7073-79.0072 75.6957-75.9819Q72.6841-72.9566 72.6841-68.6919Q72.6841-64.462 75.6957-61.4365Q78.7073-58.4109 82.9999-58.4109ZM65.8171 0.524724Q65.381 2.90583 66.6167 4.36328Q67.8523 5.82073 69.7494 6.1011Q71.6465 6.38147 73.3217 5.39481Q74.997 4.40815 75.4332 1.96427L80.3209-24.731Q80.6669-26.6072 79.5695-28.3136Q78.4722-30.0201 76.3124-30.3042L60.2714-32.5607L70.2339-42.5231Q71.8957-44.1849 73.557-42.5231L101.222-14.8239Q102.599-13.4462 104.621-13.3839Q106.642-13.3216 108.082-14.8239Q109.46-16.2983 109.46-18.2714Q109.46-20.2445 108.082-21.6571L71.3624-58.3772Q67.79-61.9146 62.8125-61.9146L41.5657-61.9146Q39.5924-61.9146 38.1524-60.4746L23.6142-45.9085Q22.1742-44.4964 22.1879-42.4922Q22.2016-40.4879 23.6142-39.0753Q25.0263-37.6353 27.0305-37.6353Q29.0348-37.6353 30.4125-39.0753L43.6009-52.2363L52.1233-52.2363Q52.8157-52.2363 53.0198-51.7516Q53.2239-51.2669 52.7808-50.7963L39.6896-37.7255Q37.308-35.3784 36.7126-32.4639Q36.1172-29.5495 37.1036-26.8564Q38.0901-24.1633 40.5339-22.4255Q42.9778-20.6877 46.7371-20.6877L69.701-20.6877ZM38.3672-18.6314L37.0862-3.67069L17.3487-3.67069Q15.3131-3.67069 13.887-2.26183Q12.4609-0.852978 12.4609 1.11989Q12.4609 3.12763 13.887 4.56764Q15.3131 6.00765 17.3487 6.00765L41.5657 6.00765Q43.414 6.00765 44.7466 4.78571Q46.0792 3.56377 46.3907 1.71505L49.6724-16.3191L46.7371-16.3191Q41.9116-16.3191 38.3672-18.6314ZM110.678 6.00765L125.189 6.00765Q127.585 6.00765 129.271 4.30442Q130.957 2.6012 130.957 0.24051Q130.957-2.15506 129.271-3.82713Q127.585-5.4992 125.189-5.4992L110.678-5.4992Q108.228-5.4992 106.538-3.82713Q104.849-2.15506 104.849 0.24051Q104.849 2.6012 106.538 4.30442Q108.228 6.00765 110.678 6.00765ZM120.896-3.32395L124.712-3.32395L124.712-7.8933Q124.712-10.739 122.877-12.5599Q121.042-14.3809 118.231-14.3809L113.067-14.3809Q112.257-14.3809 111.706-13.8305Q111.156-13.2802 111.156-12.4696Q111.156-11.6596 111.706-11.0953Q112.257-10.531 113.067-10.531L118.231-10.531Q119.436-10.531 120.166-9.81448Q120.896-9.09797 120.896-7.8933Z"/>
  </g>
  <g id="Thin-M" transform="matrix(1 0 0 1 787.011 1126)">
   <path d="M80.7144-57.7771Q84.7857-57.7771 87.6616-60.6783Q90.5374-63.5795 90.5374-67.6508Q90.5374-71.7345 87.6616-74.6353Q84.7857-77.5362 80.7144-77.5362Q76.58-77.5362 73.7041-74.6353Q70.8282-71.7345 70.8282-67.6508Q70.8282-63.5795 73.7041-60.6783Q76.58-57.7771 80.7144-57.7771ZM63.8483-0.629248Q63.4122 1.66099 64.6138 3.06198Q65.8155 4.46296 67.6335 4.74333Q69.4514 5.0237 71.0701 4.07088Q72.6887 3.11806 73.1248 0.764667L77.8316-24.9348Q78.1547-26.7657 77.1027-28.4155Q76.0506-30.0653 73.9589-30.327L58.5061-32.4926L68.1065-42.0931Q69.7007-43.6872 71.2939-42.0931L97.9405-15.4349Q99.2729-14.1025 101.215-14.0402Q103.157-13.9779 104.552-15.4349Q105.885-16.8413 105.885-18.7465Q105.885-20.6517 104.552-21.9967L69.1898-57.3589Q65.7532-60.7831 60.9342-60.7831L40.5022-60.7831Q38.5966-60.7831 37.2018-59.3883L23.2069-45.3428Q21.8122-43.9987 21.8371-42.0623Q21.862-40.126 23.2069-38.781Q24.551-37.3863 26.4874-37.3863Q28.4238-37.3863 29.7562-38.781L42.4693-51.4443L50.675-51.4443Q51.3221-51.4443 51.5149-50.9708Q51.7076-50.4973 51.3097-50.0495L38.6713-37.4993Q36.3803-35.2198 35.8075-32.4187Q35.2347-29.6176 36.1871-27.015Q37.1395-24.4123 39.4929-22.731Q41.8463-21.0496 45.4698-21.0496L67.5965-21.0496ZM37.4394-19.401L36.1809-4.68892L17.1677-4.68892Q15.1998-4.68892 13.8303-3.32531Q12.4609-1.9617 12.4609-0.0568998Q12.4609 1.86036 13.8303 3.25512Q15.1998 4.64988 17.1677 4.64988L40.5022 4.64988Q42.2824 4.64988 43.5584 3.47318Q44.8343 2.29649 45.1459 0.515449L48.3599-17.1339L45.4698-17.1339Q40.8254-17.1339 37.4394-19.401ZM107.08 4.64988L121.025 4.64988Q123.24 4.64988 124.801 3.08239Q126.363 1.51491 126.363-0.68723Q126.363-2.90182 124.801-4.43815Q123.24-5.97448 121.025-5.97448L107.08-5.97448Q104.766-5.97448 103.223-4.43815Q101.68-2.90182 101.68-0.68723Q101.68 1.51491 103.223 3.08239Q104.766 4.64988 107.08 4.64988ZM117.298-4.97601L120.209-4.97601L120.209-9.20582Q120.209-11.78 118.657-13.3067Q117.105-14.8334 114.542-14.8334L109.333-14.8334Q108.726-14.8334 108.312-14.4189Q107.897-14.0045 107.897-13.3974Q107.897-12.7911 108.312-12.3513Q108.726-11.9116 109.333-11.9116L114.542-11.9116Q115.815-11.9116 116.556-11.1951Q117.298-10.4786 117.298-9.20582Z"/>
  </g>
  <g id="Ultralight-M" transform="matrix(1 0 0 1 491.476 1126)">
   <path d="M79.5438-57.4524Q83.5338-57.4524 86.3402-60.29Q89.1466-63.1275 89.1466-67.1176Q89.1466-71.1086 86.3402-73.9457Q83.5338-76.7827 79.5438-76.7827Q75.4904-76.7827 72.684-73.9457Q69.8776-71.1086 69.8776-67.1176Q69.8776-63.1275 72.684-60.29Q75.4904-57.4524 79.5438-57.4524ZM62.8399-1.22031Q62.4038 1.02339 63.588 2.39545Q64.7722 3.76752 66.5497 4.04789Q68.3272 4.32826 69.9168 3.39277Q71.5064 2.45728 71.9425 0.150239L76.5566-25.0392Q76.868-26.8469 75.8391-28.4677Q74.8102-30.0885 72.7534-30.3387L57.6019-32.4577L67.0169-41.8728Q68.5764-43.4323 70.1348-41.8728L96.2598-15.7479Q97.5691-14.4386 99.4707-14.3763Q101.372-14.314 102.744-15.7479Q104.053-17.1194 104.053-18.9899Q104.053-20.8603 102.744-22.1706L68.077-56.8374Q64.7099-60.2035 59.9722-60.2035L39.9575-60.2035Q38.0865-60.2035 36.7149-58.832L22.9984-45.053Q21.6268-43.7438 21.6575-41.8422Q21.6881-39.9406 22.9984-38.6303Q24.3076-37.2587 26.2092-37.2587Q28.1108-37.2587 29.4201-38.6303L41.8898-51.0387L49.9332-51.0387Q50.5572-51.0387 50.7441-50.5709Q50.9309-50.1031 50.5562-49.6671L38.1498-37.3834Q35.9051-35.1386 35.3439-32.3955Q34.7827-29.6524 35.7177-27.0962Q36.6526-24.5399 38.9597-22.8875Q41.2667-21.235 44.8207-21.235L66.5186-21.235ZM36.9642-19.7951L35.7172-5.21045L17.075-5.21045Q15.1417-5.21045 13.8013-3.87002Q12.4609-2.52959 12.4609-0.659643Q12.4609 1.21126 13.8013 2.58285Q15.1417 3.95443 17.075 3.95443L39.9575 3.95443Q41.7029 3.95443 42.9498 2.80091Q44.1967 1.64739 44.5083-0.0989799L47.6876-17.5513L44.8207-17.5513Q40.269-17.5513 36.9642-19.7951ZM105.237 3.95443L118.892 3.95443Q121.014 3.95443 122.512 2.45647Q124.01 0.958514 124.01-1.16241Q124.01-3.2843 122.512-4.75111Q121.014-6.21792 118.892-6.21792L105.237-6.21792Q102.992-6.21792 101.525-4.75111Q100.058-3.2843 100.058-1.16241Q100.058 0.958514 101.525 2.45647Q102.992 3.95443 105.237 3.95443ZM115.455-5.82219L117.902-5.82219L117.902-9.87809Q117.902-12.3133 116.495-13.6892Q115.088-15.0651 112.653-15.0651L107.42-15.0651Q106.918-15.0651 106.573-14.7203Q106.228-14.3755 106.228-13.8726Q106.228-13.3707 106.573-12.9947Q106.918-12.6187 107.42-12.6187L112.653-12.6187Q113.96-12.6187 114.708-11.9022Q115.455-11.1857 115.455-9.87809Z"/>
  </g>
  <g id="Black-S" transform="matrix(1 0 0 1 2869.61 696)">
   <path d="M72.2168-54.8828Q76.2695-54.8828 79.126-57.7637Q81.9824-60.6445 81.9824-64.6484Q81.9824-68.7012 79.126-71.5576Q76.2695-74.4141 72.2168-74.4141Q68.2129-74.4141 65.332-71.5576Q62.4512-68.7012 62.4512-64.6484Q62.4512-60.6445 65.332-57.7637Q68.2129-54.8828 72.2168-54.8828ZM55.4688-4.54102Q54.9805-2.00195 56.2744-0.488281Q57.5684 1.02539 59.5947 1.34277Q61.6211 1.66016 63.3789 0.634766Q65.1367-0.390625 65.625-2.92969L69.8242-25.7812Q70.2148-27.7832 69.043-29.5898Q67.8711-31.3965 65.5762-31.7383L53.7598-33.3984L60.8887-40.5273Q61.6211-41.2598 62.3535-40.5273L86.084-16.8457Q87.5488-15.3809 89.6729-15.2832Q91.7969-15.1855 93.3105-16.8457Q94.7754-18.4082 94.7754-20.459Q94.7754-22.5098 93.2617-24.0234L61.8652-55.4688Q58.5449-58.7891 53.8574-58.7891L35.6934-58.7891Q33.5449-58.7891 32.0312-57.2754L19.5801-44.8242Q18.0664-43.3105 18.0664-41.2109Q18.0664-39.1113 19.5801-37.5977Q21.1426-36.084 23.2178-36.084Q25.293-36.084 26.8066-37.5977L37.793-48.584L43.7012-48.584Q43.8477-48.584 43.8965-48.4863Q43.9453-48.3887 43.8477-48.291L33.3496-37.793Q31.1035-35.5469 30.542-32.7881Q29.9805-30.0293 30.9082-27.4658Q31.8359-24.9023 34.1797-23.2422Q36.5234-21.582 40.0879-21.582L58.5938-21.582ZM31.7871-18.9941L30.957-8.93555L14.8926-8.93555Q12.793-8.93555 11.2793-7.44629Q9.76562-5.95703 9.76562-3.85742Q9.76562-1.75781 11.2793-0.244141Q12.793 1.26953 14.8926 1.26953L35.6934 1.26953Q37.5977 1.26953 39.0137-0.0244141Q40.4297-1.31836 40.7715-3.17383L43.2129-16.6992L40.0879-16.6992Q35.3027-16.6992 31.7871-18.9941ZM99.2188 1.26953L111.67 1.26953Q114.209 1.26953 116.016-0.537109Q117.822-2.34375 117.822-4.88281Q117.822-7.42188 116.016-9.22852Q114.209-11.0352 111.67-11.0352L99.2188-11.0352Q96.6797-11.0352 94.8486-9.22852Q93.0176-7.42188 93.0176-4.88281Q93.0176-2.34375 94.8486-0.537109Q96.6797 1.26953 99.2188 1.26953ZM106.592-7.91016L112.646-7.91016L112.646-12.9883Q112.646-16.3086 110.718-18.2617Q108.789-20.2148 105.469-20.2148L100.83-20.2148Q99.5605-20.2148 98.6572-19.3359Q97.7539-18.457 97.7539-17.1875Q97.7539-15.918 98.6572-15.0146Q99.5605-14.1113 100.83-14.1113L105.469-14.1113Q106.006-14.1113 106.299-13.8184Q106.592-13.5254 106.592-12.9883Z"/>
  </g>
  <g id="Heavy-S" transform="matrix(1 0 0 1 2574.17 696)">
   <path d="M71.0413-54.6754Q74.9557-54.6754 77.7258-57.464Q80.4958-60.2527 80.4958-64.1298Q80.4958-68.0558 77.7258-70.8258Q74.9557-73.5958 71.0413-73.5958Q67.1526-73.5958 64.364-70.8258Q61.5753-68.0558 61.5753-64.1298Q61.5753-60.2527 64.364-57.464Q67.1526-54.6754 71.0413-54.6754ZM54.9962-4.9098Q54.5425-2.50903 55.7673-1.07027Q56.9921 0.368496 58.909 0.66283Q60.8259 0.957164 62.4915-0.0163667Q64.1571-0.989897 64.6108-3.40219L68.764-26.0233Q69.1315-27.91 68.0231-29.6187Q66.9146-31.3273 64.7464-31.6461L52.6188-33.3523L59.9898-40.7233Q60.872-41.6055 61.7542-40.7233L85.2312-17.2721Q86.6153-15.8879 88.6299-15.8018Q90.6444-15.7157 92.0774-17.2721Q93.4616-18.7539 93.4616-20.701Q93.4616-22.6481 92.0401-24.0811L60.9548-55.2037Q57.7267-58.4203 53.189-58.4203L35.1978-58.4203Q33.1761-58.4203 31.7431-56.9873L19.4187-44.6629Q17.9857-43.2299 17.9857-41.2397Q17.9857-39.2496 19.4187-37.8166Q20.889-36.3836 22.8605-36.3836Q24.832-36.3836 26.2535-37.8166L37.1937-48.7569L43.3554-48.7569Q43.6056-48.7569 43.6833-48.59Q43.7609-48.4232 43.5941-48.2564L33.05-37.7008Q30.873-35.5354 30.3288-32.863Q29.7846-30.1906 30.6835-27.7136Q31.5824-25.2366 33.8455-23.634Q36.1086-22.0315 39.5578-22.0315L58.1328-22.0315ZM31.5912-19.5819L30.715-9.07384L14.6275-9.07384Q12.6316-9.07384 11.1986-7.66525Q9.76562-6.25667 9.76562-4.2723Q9.76562-2.27641 11.1986-0.843413Q12.6316 0.589588 14.6275 0.589588L35.1978 0.589588Q37.0099 0.589588 38.351-0.635211Q39.6921-1.86001 40.0109-3.63481L42.4984-17.3907L39.5578-17.3907Q34.9685-17.3907 31.5912-19.5819ZM97.0867 0.589588L109.411 0.589588Q111.835 0.589588 113.555-1.13638Q115.275-2.86235 115.275-5.27464Q115.275-7.69846 113.555-9.41867Q111.835-11.1389 109.411-11.1389L97.0867-11.1389Q94.6629-11.1389 92.9183-9.41867Q91.1737-7.69846 91.1737-5.27464Q91.1737-2.86235 92.9183-1.13638Q94.6629 0.589588 97.0867 0.589588ZM104.61-8.08302L110.146-8.08302L110.146-12.8846Q110.146-16.009 108.269-17.9045Q106.392-19.8 103.279-19.8L98.7902-19.8Q97.6244-19.8 96.8018-18.996Q95.9791-18.192 95.9791-17.0262Q95.9791-15.8603 96.8018-15.0377Q97.6244-14.215 98.7902-14.215L103.279-14.215Q103.897-14.215 104.253-13.8587Q104.61-13.5023 104.61-12.8846Z"/>
  </g>
  <g id="Bold-S" transform="matrix(1 0 0 1 2278.88 696)">
   <path d="M69.7266-54.4434Q73.4863-54.4434 76.1597-57.1289Q78.833-59.8145 78.833-63.5498Q78.833-67.334 76.1597-70.0073Q73.4863-72.6807 69.7266-72.6807Q65.9668-72.6807 63.2812-70.0073Q60.5957-67.334 60.5957-63.5498Q60.5957-59.8145 63.2812-57.1289Q65.9668-54.4434 69.7266-54.4434ZM54.4678-5.32227Q54.0527-3.07617 55.2002-1.72119Q56.3477-0.366211 58.1421-0.0976562Q59.9365 0.170898 61.499-0.744629Q63.0615-1.66016 63.4766-3.93066L67.5781-26.2939Q67.9199-28.0518 66.8823-29.6509Q65.8447-31.25 63.8184-31.543L51.3428-33.3008L58.9844-40.9424Q60.0342-41.9922 61.084-40.9424L84.2773-17.749Q85.5713-16.4551 87.4634-16.3818Q89.3555-16.3086 90.6982-17.749Q91.9922-19.1406 91.9922-20.9717Q91.9922-22.8027 90.6738-24.1455L59.9365-54.9072Q56.8115-58.0078 52.4414-58.0078L34.6436-58.0078Q32.7637-58.0078 31.4209-56.665L19.2383-44.4824Q17.8955-43.1396 17.8955-41.272Q17.8955-39.4043 19.2383-38.0615Q20.6055-36.7188 22.4609-36.7188Q24.3164-36.7188 25.6348-38.0615L36.5234-48.9502L42.9688-48.9502Q43.335-48.9502 43.4448-48.7061Q43.5547-48.4619 43.3105-48.2178L32.7148-37.5977Q30.6152-35.5225 30.0903-32.9468Q29.5654-30.3711 30.4321-27.9907Q31.2988-25.6104 33.4717-24.0723Q35.6445-22.5342 38.9648-22.5342L57.6172-22.5342ZM31.3721-20.2393L30.4443-9.22852L14.3311-9.22852Q12.4512-9.22852 11.1084-7.91016Q9.76562-6.5918 9.76562-4.73633Q9.76562-2.85645 11.1084-1.51367Q12.4512-0.170898 14.3311-0.170898L34.6436-0.170898Q36.3525-0.170898 37.6099-1.31836Q38.8672-2.46582 39.1602-4.15039L41.6992-18.1641L38.9648-18.1641Q34.5947-18.1641 31.3721-20.2393ZM94.7021-0.170898L106.885-0.170898Q109.18-0.170898 110.803-1.80664Q112.427-3.44238 112.427-5.71289Q112.427-8.00781 110.803-9.63135Q109.18-11.2549 106.885-11.2549L94.7021-11.2549Q92.4072-11.2549 90.7593-9.63135Q89.1113-8.00781 89.1113-5.71289Q89.1113-3.44238 90.7593-1.80664Q92.4072-0.170898 94.7021-0.170898ZM102.393-8.27637L107.349-8.27637L107.349-12.7686Q107.349-15.6738 105.53-17.5049Q103.711-19.3359 100.83-19.3359L96.5088-19.3359Q95.459-19.3359 94.7266-18.6157Q93.9941-17.8955 93.9941-16.8457Q93.9941-15.7959 94.7266-15.0635Q95.459-14.3311 96.5088-14.3311L100.83-14.3311Q101.538-14.3311 101.965-13.9038Q102.393-13.4766 102.393-12.7686Z"/>
  </g>
  <g id="Semibold-S" transform="matrix(1 0 0 1 1983.15 696)">
   <path d="M68.8201-54.2834Q72.4732-54.2834 75.0799-56.8979Q77.6866-59.5123 77.6866-63.1499Q77.6866-66.8363 75.0799-69.443Q72.4732-72.0497 68.8201-72.0497Q65.1492-72.0497 62.5348-69.443Q59.9203-66.8363 59.9203-63.1499Q59.9203-59.5123 62.5348-56.8979Q65.1492-54.2834 68.8201-54.2834ZM54.1034-5.60664Q53.715-3.46719 54.8092-2.16997Q55.9033-0.872754 57.6133-0.621973Q59.3233-0.371191 60.8147-1.24673Q62.3062-2.12227 62.6945-4.29502L66.7605-26.4806Q67.0846-28.1495 66.0958-29.6731Q65.1071-31.1967 63.1785-31.4719L50.463-33.2652L58.2912-41.0935Q59.4565-42.2588 60.6219-41.0935L83.6197-18.0778Q84.8515-16.8461 86.6591-16.7817Q88.4668-16.7174 89.7474-18.0778Q90.9791-19.4072 90.9791-21.1583Q90.9791-22.9094 89.7318-24.1899L59.2345-54.7028Q56.1806-57.7234 51.926-57.7234L34.2614-57.7234Q32.4793-57.7234 31.1987-56.4429L19.1139-44.358Q17.8333-43.0774 17.8333-41.2942Q17.8333-39.5109 19.1139-38.2304Q20.41-36.9498 22.1854-36.9498Q23.9609-36.9498 25.2082-38.2304L36.0613-49.0835L42.7021-49.0835Q43.1483-49.0835 43.2804-48.786Q43.4125-48.4886 43.115-48.1911L32.4838-37.5266Q30.4375-35.5136 29.9259-33.0045Q29.4144-30.4955 30.2588-28.1818Q31.1033-25.8681 33.214-24.3744Q35.3246-22.8808 38.5561-22.8808L57.2617-22.8808ZM31.221-20.6925L30.2577-9.33516L14.1267-9.33516Q12.3268-9.33516 11.0462-8.079Q9.76562-6.82285 9.76562-5.05625Q9.76562-3.25635 11.0462-1.97578Q12.3268-0.695215 14.1267-0.695215L34.2614-0.695215Q35.8993-0.695215 37.0989-1.78936Q38.2984-2.8835 38.5736-4.50586L41.1482-18.6973L38.5561-18.6973Q34.337-18.6973 31.221-20.6925ZM93.0581-0.695215L105.143-0.695215Q107.349-0.695215 108.906-2.26875Q110.463-3.84229 110.463-6.01504Q110.463-8.22109 108.906-9.77798Q107.349-11.3349 105.143-11.3349L93.0581-11.3349Q90.8521-11.3349 89.2708-9.77798Q87.6895-8.22109 87.6895-6.01504Q87.6895-3.84229 89.2708-2.26875Q90.8521-0.695215 93.0581-0.695215ZM100.864-8.40967L105.42-8.40967L105.42-12.6886Q105.42-15.4428 103.641-17.2294Q101.862-19.016 99.1416-19.016L94.9358-19.016Q93.966-19.016 93.2958-18.3536Q92.6256-17.6911 92.6256-16.7213Q92.6256-15.7515 93.2958-15.0813Q93.966-14.411 94.9358-14.411L99.1416-14.411Q99.9118-14.411 100.388-13.9349Q100.864-13.4588 100.864-12.6886Z"/>
  </g>
  <g id="Medium-S" transform="matrix(1 0 0 1 1687.19 696)">
   <path d="M68.1328-54.1621Q71.7051-54.1621 74.2612-56.7227Q76.8174-59.2832 76.8174-62.8467Q76.8174-66.459 74.2612-69.0151Q71.7051-71.5713 68.1328-71.5713Q64.5293-71.5713 61.9688-69.0151Q59.4082-66.459 59.4082-62.8467Q59.4082-59.2832 61.9688-56.7227Q64.5293-54.1621 68.1328-54.1621ZM53.8271-5.82227Q53.459-3.76367 54.5127-2.51025Q55.5664-1.25684 57.2124-1.01953Q58.8584-0.782227 60.2959-1.62744Q61.7334-2.47266 62.1016-4.57129L66.1406-26.6221Q66.4512-28.2236 65.4995-29.6899Q64.5479-31.1562 62.6934-31.418L49.7959-33.2383L57.7656-41.208Q59.0186-42.4609 60.2715-41.208L83.1211-18.3271Q84.3057-17.1426 86.0493-17.085Q87.793-17.0273 89.0264-18.3271Q90.2109-19.6094 90.2109-21.2998Q90.2109-22.9902 89.0176-24.2236L58.7021-54.5479Q55.7021-57.5078 51.5352-57.5078L33.9717-57.5078Q32.2637-57.5078 31.0303-56.2744L19.0195-44.2637Q17.7861-43.0303 17.7861-41.311Q17.7861-39.5918 19.0195-38.3584Q20.2617-37.125 21.9766-37.125Q23.6914-37.125 24.8848-38.3584L35.7109-49.1846L42.5-49.1846Q43.0068-49.1846 43.1558-48.8467Q43.3047-48.5088 42.9668-48.1709L32.3086-37.4727Q30.3027-35.5068 29.8013-33.0483Q29.2998-30.5898 30.1274-28.3267Q30.9551-26.0635 33.0186-24.6035Q35.082-23.1436 38.2461-23.1436L56.9922-23.1436ZM31.1064-21.0361L30.1162-9.41602L13.9717-9.41602Q12.2324-9.41602 10.999-8.20703Q9.76562-6.99805 9.76562-5.29883Q9.76562-3.55957 10.999-2.32617Q12.2324-1.09277 13.9717-1.09277L33.9717-1.09277Q35.5557-1.09277 36.7114-2.14648Q37.8672-3.2002 38.1289-4.77539L40.7305-19.1016L38.2461-19.1016Q34.1416-19.1016 31.1064-21.0361ZM91.8115-1.09277L103.822-1.09277Q105.961-1.09277 107.467-2.61914Q108.974-4.14551 108.974-6.24414Q108.974-8.38281 107.467-9.88916Q105.961-11.3955 103.822-11.3955L91.8115-11.3955Q89.6729-11.3955 88.1421-9.88916Q86.6113-8.38281 86.6113-6.24414Q86.6113-4.14551 88.1421-2.61914Q89.6729-1.09277 91.8115-1.09277ZM99.7051-8.51074L103.958-8.51074L103.958-12.6279Q103.958-15.2676 102.209-17.0205Q100.461-18.7734 97.8613-18.7734L93.7432-18.7734Q92.834-18.7734 92.2109-18.1548Q91.5879-17.5361 91.5879-16.627Q91.5879-15.7178 92.2109-15.0947Q92.834-14.4717 93.7432-14.4717L97.8613-14.4717Q98.6787-14.4717 99.1919-13.9585Q99.7051-13.4453 99.7051-12.6279Z"/>
  </g>
  <g id="Regular-S" transform="matrix(1 0 0 1 1391.45 696)">
   <path d="M67.2363-54.0039Q70.7031-54.0039 73.1934-56.4941Q75.6836-58.9844 75.6836-62.4512Q75.6836-65.9668 73.1934-68.457Q70.7031-70.9473 67.2363-70.9473Q63.7207-70.9473 61.2305-68.457Q58.7402-65.9668 58.7402-62.4512Q58.7402-58.9844 61.2305-56.4941Q63.7207-54.0039 67.2363-54.0039ZM53.4668-6.10352Q53.125-4.15039 54.126-2.9541Q55.127-1.75781 56.6895-1.53809Q58.252-1.31836 59.6191-2.12402Q60.9863-2.92969 61.3281-4.93164L65.332-26.8066Q65.625-28.3203 64.7217-29.7119Q63.8184-31.1035 62.0605-31.3477L48.9258-33.2031L57.0801-41.3574Q58.4473-42.7246 59.8145-41.3574L82.4707-18.6523Q83.5938-17.5293 85.2539-17.4805Q86.9141-17.4316 88.0859-18.6523Q89.209-19.873 89.209-21.4844Q89.209-23.0957 88.0859-24.2676L58.0078-54.3457Q55.0781-57.2266 51.0254-57.2266L33.5938-57.2266Q31.9824-57.2266 30.8105-56.0547L18.8965-44.1406Q17.7246-42.9688 17.7246-41.333Q17.7246-39.6973 18.8965-38.5254Q20.0684-37.3535 21.7041-37.3535Q23.3398-37.3535 24.4629-38.5254L35.2539-49.3164L42.2363-49.3164Q42.8223-49.3164 42.9932-48.9258Q43.1641-48.5352 42.7734-48.1445L32.0801-37.4023Q30.127-35.498 29.6387-33.1055Q29.1504-30.7129 29.9561-28.5156Q30.7617-26.3184 32.7637-24.9023Q34.7656-23.4863 37.8418-23.4863L56.6406-23.4863ZM30.957-21.4844L29.9316-9.52148L13.7695-9.52148Q12.1094-9.52148 10.9375-8.37402Q9.76562-7.22656 9.76562-5.61523Q9.76562-3.95508 10.9375-2.7832Q12.1094-1.61133 13.7695-1.61133L33.5938-1.61133Q35.1074-1.61133 36.2061-2.6123Q37.3047-3.61328 37.5488-5.12695L40.1855-19.6289L37.8418-19.6289Q33.8867-19.6289 30.957-21.4844ZM90.1855-1.61133L102.1-1.61133Q104.15-1.61133 105.591-3.07617Q107.031-4.54102 107.031-6.54297Q107.031-8.59375 105.591-10.0342Q104.15-11.4746 102.1-11.4746L90.1855-11.4746Q88.1348-11.4746 86.6699-10.0342Q85.2051-8.59375 85.2051-6.54297Q85.2051-4.54102 86.6699-3.07617Q88.1348-1.61133 90.1855-1.61133ZM98.1934-8.64258L102.051-8.64258L102.051-12.5488Q102.051-15.0391 100.342-16.748Q98.6328-18.457 96.1914-18.457L92.1875-18.457Q91.3574-18.457 90.7959-17.8955Q90.2344-17.334 90.2344-16.5039Q90.2344-15.6738 90.7959-15.1123Q91.3574-14.5508 92.1875-14.5508L96.1914-14.5508Q97.0703-14.5508 97.6318-13.9893Q98.1934-13.4277 98.1934-12.5488Z"/>
  </g>
  <g id="Light-S" transform="matrix(1 0 0 1 1096.27 696)">
   <path d="M65.7077-53.58Q69.0684-53.58 71.4678-55.987Q73.8673-58.3941 73.8673-61.7549Q73.8673-65.1494 71.4678-67.5564Q69.0684-69.9633 65.7077-69.9633Q62.2978-69.9633 59.8984-67.5564Q57.4989-65.1494 57.4989-61.7549Q57.4989-58.3941 59.8984-55.987Q62.2978-53.58 65.7077-53.58ZM52.15-6.87536Q51.8082-4.98301 52.7864-3.82449Q53.7646-2.66596 55.2742-2.44624Q56.7838-2.22651 58.1131-3.00954Q59.4424-3.79257 59.7842-5.734L63.667-26.943Q63.9448-28.4264 63.0717-29.7801Q62.1986-31.1338 60.4863-31.3629L47.745-33.1576L55.6572-41.0698Q56.9791-42.3917 58.3008-41.0698L80.276-19.061Q81.3688-17.9682 82.9759-17.9194Q84.583-17.8706 85.7246-19.061Q86.8174-20.2362 86.8174-21.8021Q86.8174-23.3681 85.7246-24.4947L56.5547-53.6647Q53.7158-56.4697 49.7691-56.4697L32.8824-56.4697Q31.3164-56.4697 30.1748-55.3281L18.6241-43.7622Q17.4825-42.6359 17.49-41.0455Q17.4975-39.4552 18.6241-38.3286Q19.7505-37.1869 21.3408-37.1869Q22.9312-37.1869 24.0239-38.3286L34.4971-48.7867L41.2676-48.7867Q41.8233-48.7867 41.9866-48.4035Q42.1499-48.0204 41.7895-47.6451L31.399-37.251Q29.5064-35.392 29.0333-33.0752Q28.5601-30.7584 29.343-28.6217Q30.1259-26.4849 32.0674-25.1067Q34.0088-23.7284 36.9942-23.7284L55.233-23.7284ZM30.3365-21.9991L29.3261-10.2025L13.6485-10.2025Q12.0336-10.2025 10.8996-9.08534Q9.76562-7.96814 9.76562-6.40233Q9.76562-4.8027 10.8996-3.66109Q12.0336-2.51948 13.6485-2.51948L32.8824-2.51948Q34.3506-2.51948 35.4113-3.49019Q36.4721-4.46091 36.7162-5.92931L39.3077-20.1739L36.9942-20.1739Q33.1601-20.1739 30.3365-21.9991ZM87.7787-2.51948L99.3144-2.51948Q101.244-2.51948 102.601-3.89353Q103.959-5.26759 103.959-7.16349Q103.959-9.09322 102.601-10.4429Q101.244-11.7925 99.3144-11.7925L87.7787-11.7925Q85.819-11.7925 84.4524-10.4429Q83.0859-9.09322 83.0859-7.16349Q83.0859-5.26759 84.4524-3.89353Q85.819-2.51948 87.7787-2.51948ZM95.7865-9.74757L99.0387-9.74757L99.0387-13.4267Q99.0387-15.7354 97.5189-17.2475Q95.9991-18.7597 93.7241-18.7597L89.6899-18.7597Q88.9961-18.7597 88.5254-18.2891Q88.0547-17.8185 88.0547-17.1244Q88.0547-16.4307 88.5254-15.9524Q88.9961-15.4742 89.6899-15.4742L93.7241-15.4742Q94.6485-15.4742 95.2175-14.9127Q95.7865-14.3511 95.7865-13.4267Z"/>
  </g>
  <g id="Thin-S" transform="matrix(1 0 0 1 801.592 696)">
   <path d="M63.6859-53.0193Q66.9063-53.0193 69.1857-55.3164Q71.4651-57.6134 71.4651-60.8339Q71.4651-64.0684 69.1857-66.3652Q66.9063-68.662 63.6859-68.662Q60.4159-68.662 58.1366-66.3652Q55.8572-64.0684 55.8572-60.8339Q55.8572-57.6134 58.1366-55.3164Q60.4159-53.0193 63.6859-53.0193ZM50.4083-7.89618Q50.0665-6.08422 51.0147-4.97565Q51.9628-3.86707 53.4024-3.64734Q54.8421-3.42762 56.1212-4.18071Q57.4004-4.93381 57.7422-6.79518L61.465-27.1232Q61.7225-28.5666 60.8895-29.8702Q60.0564-31.1738 58.4043-31.3831L46.1833-33.0974L53.7753-40.6894Q55.0374-41.9514 56.2988-40.6894L77.3733-19.6015Q78.426-18.5488 79.963-18.5Q81.5-18.4511 82.6016-19.6015Q83.6544-20.7165 83.6544-22.2224Q83.6544-23.7283 82.6016-24.795L54.6328-52.7639Q51.9139-55.4688 48.1075-55.4688L31.9417-55.4688Q30.4355-55.4688 29.3339-54.3672L18.2639-43.2617Q17.1623-42.1956 17.1797-40.6653Q17.1971-39.135 18.2639-38.0682Q19.33-36.9666 20.8603-36.9666Q22.3906-36.9666 23.4434-38.0682L33.4961-48.0861L39.9865-48.0861Q40.5021-48.0861 40.6553-47.7129Q40.8085-47.3397 40.4882-46.9845L30.4983-37.0509Q28.6857-35.2517 28.2326-33.0352Q27.7795-30.8186 28.5323-28.7619Q29.2851-26.7052 31.1464-25.3769Q33.0078-24.0486 35.8731-24.0486L53.3713-24.0486ZM29.5158-22.6799L28.5253-11.1033L13.4884-11.1033Q11.9334-11.1033 10.8495-10.0261Q9.76562-8.94894 9.76562-7.44334Q9.76562-5.92376 10.8495-4.82217Q11.9334-3.72058 13.4884-3.72058L31.9417-3.72058Q33.3496-3.72058 34.3602-4.65127Q35.3709-5.58196 35.615-6.99049L38.1466-20.8947L35.8731-20.8947Q32.1992-20.8947 29.5158-22.6799ZM84.5955-3.72058L95.6307-3.72058Q97.4003-3.72058 98.6476-4.97456Q99.8949-6.22854 99.8949-7.98419Q99.8949-9.75381 98.6476-10.9834Q97.4003-12.2129 95.6307-12.2129L84.5955-12.2129Q82.7562-12.2129 81.5196-10.9834Q80.2831-9.75381 80.2831-7.98419Q80.2831-6.22854 81.5196-4.97456Q82.7562-3.72058 84.5955-3.72058ZM92.6033-11.209L95.055-11.209L95.055-14.5878Q95.055-16.6563 93.7854-17.9081Q92.5159-19.1599 90.4608-19.1599L86.3866-19.1599Q85.8731-19.1599 85.5225-18.8096Q85.1718-18.4592 85.1718-17.9451Q85.1718-17.4316 85.5225-17.0636Q85.8731-16.6955 86.3866-16.6955L90.4608-16.6955Q91.4454-16.6955 92.0244-16.134Q92.6033-15.5724 92.6033-14.5878Z"/>
  </g>
  <g id="Ultralight-S" transform="matrix(1 0 0 1 505.922 696)">
   <path d="M62.6503-52.7321Q65.799-52.7321 68.0168-54.9728Q70.2347-57.2136 70.2347-60.3622Q70.2347-63.5147 68.0168-65.7551Q65.799-67.9955 62.6503-67.9955Q59.4521-67.9955 57.2342-65.7551Q55.0163-63.5147 55.0163-60.3622Q55.0163-57.2136 57.2342-54.9728Q59.4521-52.7321 62.6503-52.7321ZM49.5163-8.41904Q49.1745-6.64825 50.1072-5.56526Q51.0399-4.48227 52.4437-4.26254Q53.8475-4.04282 55.101-4.78058Q56.3545-5.51834 56.6963-7.33871L60.3371-27.2156Q60.5843-28.6385 59.7717-29.9164Q58.9592-31.1943 57.338-31.3934L45.3835-33.0666L52.8114-40.4945Q54.0428-41.7259 55.2734-40.4945L75.8865-19.8784Q76.9188-18.8461 78.4199-18.7973Q79.921-18.7485 81.002-19.8784Q82.0343-20.9625 82.0343-22.4377Q82.0343-23.9128 81.002-24.9489L53.6484-52.3026Q50.9911-54.9561 47.2565-54.9561L31.4598-54.9561Q29.9843-54.9561 28.9032-53.875L18.0794-43.0054Q16.9983-41.9701 17.0208-40.4705Q17.0433-38.9709 18.0794-37.9349Q19.1147-36.8538 20.6142-36.8538Q22.1138-36.8538 23.1461-37.9349L32.9834-47.7272L39.3303-47.7272Q39.8254-47.7272 39.9734-47.3591Q40.1215-46.991 39.8216-46.6461L30.0369-36.9484Q28.2654-35.1799 27.8225-33.0147Q27.3796-30.8495 28.117-28.8338Q28.8544-26.8181 30.6747-25.5154Q32.4951-24.2126 35.2989-24.2126L52.4178-24.2126ZM29.0955-23.0286L28.1151-11.5646L13.4064-11.5646Q11.882-11.5646 10.8238-10.508Q9.76562-9.45129 9.76562-7.97653Q9.76562-6.49796 10.8238-5.41687Q11.882-4.33578 13.4064-4.33578L31.4598-4.33578Q32.8369-4.33578 33.8219-5.24597Q34.8068-6.15616 35.051-7.53403L37.5519-21.2639L35.2989-21.2639Q31.707-21.2639 29.0955-23.0286ZM82.9651-4.33578L93.7439-4.33578Q95.4315-4.33578 96.6225-5.52826Q97.8134-6.72073 97.8134-8.40454Q97.8134-10.0922 96.6225-11.2602Q95.4315-12.4283 93.7439-12.4283L82.9651-12.4283Q81.1874-12.4283 80.0175-11.2602Q78.8475-10.0922 78.8475-8.40454Q78.8475-6.72073 80.0175-5.52826Q81.1874-4.33578 82.9651-4.33578ZM90.9729-11.9576L93.0145-11.9576L93.0145-15.1825Q93.0145-17.128 91.8732-18.2465Q90.7318-19.3649 88.7894-19.3649L84.6947-19.3649Q84.2735-19.3649 83.9844-19.0762Q83.6952-18.7874 83.6952-18.3655Q83.6952-17.9443 83.9844-17.6327Q84.2735-17.321 84.6947-17.321L88.7894-17.321Q89.8048-17.321 90.3889-16.7595Q90.9729-16.198 90.9729-15.1825Z"/>
  </g>
 </g>
</svg>
