<?xml version="1.0" encoding="UTF-8"?>
<!--Generator: Apple Native CoreSVG 175.5-->
<!DOCTYPE svg
PUBLIC "-//W3C//DTD SVG 1.1//EN"
       "http://www.w3.org/Graphics/SVG/1.1/DTD/svg11.dtd">
<svg version="1.1" xmlns="http://www.w3.org/2000/svg" xmlns:xlink="http://www.w3.org/1999/xlink" width="3300" height="2200">
 <!--glyph: "uni10152F.medium", point size: 100.0, font version: "18.0d9e1", template writer version: "84"-->
 <g id="Notes">
  <rect height="2200" id="artboard" style="fill:white;opacity:1" width="3300" x="0" y="0"/>
  <line style="fill:none;stroke:black;opacity:1;stroke-width:0.5;" x1="263" x2="3036" y1="292" y2="292"/>
  <text style="stroke:none;fill:black;font-family:sans-serif;font-size:13;font-weight:bold;" transform="matrix(1 0 0 1 263 322)">Weight/Scale Variations</text>
  <text style="stroke:none;fill:black;font-family:sans-serif;font-size:13;text-anchor:middle;" transform="matrix(1 0 0 1 559.711 322)">Ultralight</text>
  <text style="stroke:none;fill:black;font-family:sans-serif;font-size:13;text-anchor:middle;" transform="matrix(1 0 0 1 856.422 322)">Thin</text>
  <text style="stroke:none;fill:black;font-family:sans-serif;font-size:13;text-anchor:middle;" transform="matrix(1 0 0 1 1153.13 322)">Light</text>
  <text style="stroke:none;fill:black;font-family:sans-serif;font-size:13;text-anchor:middle;" transform="matrix(1 0 0 1 1449.84 322)">Regular</text>
  <text style="stroke:none;fill:black;font-family:sans-serif;font-size:13;text-anchor:middle;" transform="matrix(1 0 0 1 1746.56 322)">Medium</text>
  <text style="stroke:none;fill:black;font-family:sans-serif;font-size:13;text-anchor:middle;" transform="matrix(1 0 0 1 2043.27 322)">Semibold</text>
  <text style="stroke:none;fill:black;font-family:sans-serif;font-size:13;text-anchor:middle;" transform="matrix(1 0 0 1 2339.98 322)">Bold</text>
  <text style="stroke:none;fill:black;font-family:sans-serif;font-size:13;text-anchor:middle;" transform="matrix(1 0 0 1 2636.69 322)">Heavy</text>
  <text style="stroke:none;fill:black;font-family:sans-serif;font-size:13;text-anchor:middle;" transform="matrix(1 0 0 1 2933.4 322)">Black</text>
  <line style="fill:none;stroke:black;opacity:1;stroke-width:0.5;" x1="263" x2="3036" y1="1903" y2="1903"/>
  <g transform="matrix(1 0 0 1 263 1933)">
   <path d="M9.24805 0.830078Q10.8691 0.830078 12.2949 0.214844Q13.7207-0.400391 14.8096-1.49414Q15.8984-2.58789 16.5186-4.01367Q17.1387-5.43945 17.1387-7.05078Q17.1387-8.66211 16.5186-10.0879Q15.8984-11.5137 14.8047-12.6074Q13.7109-13.7012 12.2852-14.3164Q10.8594-14.9316 9.23828-14.9316Q7.62695-14.9316 6.20117-14.3164Q4.77539-13.7012 3.69141-12.6074Q2.60742-11.5137 1.9873-10.0879Q1.36719-8.66211 1.36719-7.05078Q1.36719-5.43945 1.9873-4.01367Q2.60742-2.58789 3.69629-1.49414Q4.78516-0.400391 6.21094 0.214844Q7.63672 0.830078 9.24805 0.830078ZM9.24805-0.654297Q7.91992-0.654297 6.7627-1.14746Q5.60547-1.64062 4.73145-2.51953Q3.85742-3.39844 3.36426-4.56055Q2.87109-5.72266 2.87109-7.05078Q2.87109-8.37891 3.35938-9.54102Q3.84766-10.7031 4.72168-11.582Q5.5957-12.4609 6.75293-12.9541Q7.91016-13.4473 9.23828-13.4473Q10.5762-13.4473 11.7383-12.9541Q12.9004-12.4609 13.7793-11.582Q14.6582-10.7031 15.1514-9.54102Q15.6445-8.37891 15.6445-7.05078Q15.6445-5.72266 15.1514-4.56055Q14.6582-3.39844 13.7793-2.51953Q12.9004-1.64062 11.7432-1.14746Q10.5859-0.654297 9.24805-0.654297ZM5.6543-7.05078Q5.6543-6.72852 5.85938-6.52832Q6.06445-6.32812 6.40625-6.32812L8.51562-6.32812L8.51562-4.20898Q8.51562-3.88672 8.71094-3.67676Q8.90625-3.4668 9.23828-3.4668Q9.56055-3.4668 9.77051-3.67676Q9.98047-3.88672 9.98047-4.20898L9.98047-6.32812L12.0898-6.32812Q12.4219-6.32812 12.627-6.52832Q12.832-6.72852 12.832-7.05078Q12.832-7.38281 12.627-7.58789Q12.4219-7.79297 12.0898-7.79297L9.98047-7.79297L9.98047-9.90234Q9.98047-10.2344 9.77051-10.4443Q9.56055-10.6543 9.23828-10.6543Q8.90625-10.6543 8.71094-10.4443Q8.51562-10.2344 8.51562-9.90234L8.51562-7.79297L6.40625-7.79297Q6.06445-7.79297 5.85938-7.58789Q5.6543-7.38281 5.6543-7.05078Z"/>
  </g>
  <g transform="matrix(1 0 0 1 281.867 1933)">
   <path d="M11.709 2.91016Q13.75 2.91016 15.5518 2.12891Q17.3535 1.34766 18.7305-0.0292969Q20.1074-1.40625 20.8887-3.20801Q21.6699-5.00977 21.6699-7.05078Q21.6699-9.0918 20.8887-10.8936Q20.1074-12.6953 18.7305-14.0723Q17.3535-15.4492 15.5469-16.2305Q13.7402-17.0117 11.6992-17.0117Q9.6582-17.0117 7.85645-16.2305Q6.05469-15.4492 4.68262-14.0723Q3.31055-12.6953 2.5293-10.8936Q1.74805-9.0918 1.74805-7.05078Q1.74805-5.00977 2.5293-3.20801Q3.31055-1.40625 4.6875-0.0292969Q6.06445 1.34766 7.86621 2.12891Q9.66797 2.91016 11.709 2.91016ZM11.709 1.25Q9.98047 1.25 8.47656 0.605469Q6.97266-0.0390625 5.83496-1.17676Q4.69727-2.31445 4.05762-3.81836Q3.41797-5.32227 3.41797-7.05078Q3.41797-8.7793 4.05762-10.2832Q4.69727-11.7871 5.83008-12.9297Q6.96289-14.0723 8.4668-14.7119Q9.9707-15.3516 11.6992-15.3516Q13.4277-15.3516 14.9365-14.7119Q16.4453-14.0723 17.583-12.9297Q18.7207-11.7871 19.3652-10.2832Q20.0098-8.7793 20.0098-7.05078Q20.0098-5.32227 19.3701-3.81836Q18.7305-2.31445 17.5879-1.17676Q16.4453-0.0390625 14.9414 0.605469Q13.4375 1.25 11.709 1.25ZM7.17773-7.05078Q7.17773-6.69922 7.41211-6.47461Q7.64648-6.25 8.01758-6.25L10.8887-6.25L10.8887-3.36914Q10.8887-2.99805 11.1133-2.76855Q11.3379-2.53906 11.6895-2.53906Q12.0605-2.53906 12.29-2.76855Q12.5195-2.99805 12.5195-3.36914L12.5195-6.25L15.4004-6.25Q15.7715-6.25 16.001-6.47461Q16.2305-6.69922 16.2305-7.05078Q16.2305-7.42188 16.001-7.65137Q15.7715-7.88086 15.4004-7.88086L12.5195-7.88086L12.5195-10.752Q12.5195-11.1328 12.29-11.3623Q12.0605-11.5918 11.6895-11.5918Q11.3379-11.5918 11.1133-11.3574Q10.8887-11.123 10.8887-10.752L10.8887-7.88086L8.01758-7.88086Q7.63672-7.88086 7.40723-7.65137Q7.17773-7.42188 7.17773-7.05078Z"/>
  </g>
  <g transform="matrix(1 0 0 1 305.646 1933)">
   <path d="M14.9707 5.66406Q17.0605 5.66406 18.96 5.01465Q20.8594 4.36523 22.4512 3.19336Q24.043 2.02148 25.2197 0.429688Q26.3965-1.16211 27.0459-3.06641Q27.6953-4.9707 27.6953-7.05078Q27.6953-9.14062 27.0459-11.04Q26.3965-12.9395 25.2197-14.5312Q24.043-16.123 22.4512-17.2998Q20.8594-18.4766 18.9551-19.126Q17.0508-19.7754 14.9609-19.7754Q12.8711-19.7754 10.9717-19.126Q9.07227-18.4766 7.48535-17.2998Q5.89844-16.123 4.72168-14.5312Q3.54492-12.9395 2.90039-11.04Q2.25586-9.14062 2.25586-7.05078Q2.25586-4.9707 2.90527-3.06641Q3.55469-1.16211 4.72656 0.429688Q5.89844 2.02148 7.49023 3.19336Q9.08203 4.36523 10.9814 5.01465Q12.8809 5.66406 14.9707 5.66406ZM14.9707 3.84766Q13.1641 3.84766 11.5283 3.2959Q9.89258 2.74414 8.53516 1.74805Q7.17773 0.751953 6.17676-0.610352Q5.17578-1.97266 4.62891-3.6084Q4.08203-5.24414 4.08203-7.05078Q4.08203-8.86719 4.62891-10.5029Q5.17578-12.1387 6.17188-13.501Q7.16797-14.8633 8.52539-15.8594Q9.88281-16.8555 11.5186-17.4023Q13.1543-17.9492 14.9609-17.9492Q16.7773-17.9492 18.4131-17.4023Q20.0488-16.8555 21.4111-15.8594Q22.7734-14.8633 23.7744-13.501Q24.7754-12.1387 25.3223-10.5029Q25.8691-8.86719 25.8691-7.05078Q25.8691-5.24414 25.3223-3.6084Q24.7754-1.97266 23.7793-0.610352Q22.7832 0.751953 21.4209 1.74805Q20.0586 2.74414 18.4229 3.2959Q16.7871 3.84766 14.9707 3.84766ZM9.19922-7.05078Q9.19922-6.66992 9.45801-6.4209Q9.7168-6.17188 10.1172-6.17188L14.0625-6.17188L14.0625-2.2168Q14.0625-1.81641 14.3115-1.55762Q14.5605-1.29883 14.9512-1.29883Q15.3516-1.29883 15.6104-1.55273Q15.8691-1.80664 15.8691-2.2168L15.8691-6.17188L19.8242-6.17188Q20.2246-6.17188 20.4785-6.4209Q20.7324-6.66992 20.7324-7.05078Q20.7324-7.46094 20.4785-7.71484Q20.2246-7.96875 19.8242-7.96875L15.8691-7.96875L15.8691-11.9141Q15.8691-12.3242 15.6104-12.583Q15.3516-12.8418 14.9512-12.8418Q14.5605-12.8418 14.3115-12.583Q14.0625-12.3242 14.0625-11.9141L14.0625-7.96875L10.1172-7.96875Q9.70703-7.96875 9.45312-7.71484Q9.19922-7.46094 9.19922-7.05078Z"/>
  </g>
  <text style="stroke:none;fill:black;font-family:sans-serif;font-size:13;font-weight:bold;" transform="matrix(1 0 0 1 263 1953)">Design Variations</text>
  <text style="stroke:none;fill:black;font-family:sans-serif;font-size:13;" transform="matrix(1 0 0 1 263 1971)">Symbols are supported in up to nine weights and three scales.</text>
  <text style="stroke:none;fill:black;font-family:sans-serif;font-size:13;" transform="matrix(1 0 0 1 263 1989)">For optimal layout with text and other symbols, vertically align</text>
  <text style="stroke:none;fill:black;font-family:sans-serif;font-size:13;" transform="matrix(1 0 0 1 263 2007)">symbols with the adjacent text.</text>
  <line style="fill:none;stroke:#00AEEF;stroke-width:0.5;opacity:1.0;" x1="776" x2="776" y1="1919" y2="1933"/>
  <g transform="matrix(1 0 0 1 776 1933)">
   <path d="M3.31055 0.15625Q3.70117 0.15625 3.91602-0.00976562Q4.13086-0.175781 4.26758-0.585938L5.52734-4.0332L11.2891-4.0332L12.5488-0.585938Q12.6855-0.175781 12.9004-0.00976562Q13.1152 0.15625 13.4961 0.15625Q13.8867 0.15625 14.1162-0.0585938Q14.3457-0.273438 14.3457-0.644531Q14.3457-0.869141 14.2383-1.17188L9.6582-13.3691Q9.48242-13.8184 9.17969-14.043Q8.87695-14.2676 8.4082-14.2676Q7.5-14.2676 7.17773-13.3789L2.59766-1.16211Q2.49023-0.859375 2.49023-0.634766Q2.49023-0.263672 2.70996-0.0537109Q2.92969 0.15625 3.31055 0.15625ZM6.00586-5.51758L8.37891-12.0898L8.42773-12.0898L10.8008-5.51758Z"/>
  </g>
  <line style="fill:none;stroke:#00AEEF;stroke-width:0.5;opacity:1.0;" x1="793.197" x2="793.197" y1="1919" y2="1933"/>
  <text style="stroke:none;fill:black;font-family:sans-serif;font-size:13;font-weight:bold;" transform="matrix(1 0 0 1 776 1953)">Margins</text>
  <text style="stroke:none;fill:black;font-family:sans-serif;font-size:13;" transform="matrix(1 0 0 1 776 1971)">Leading and trailing margins on the left and right side of each symbol</text>
  <text style="stroke:none;fill:black;font-family:sans-serif;font-size:13;" transform="matrix(1 0 0 1 776 1989)">can be adjusted by modifying the x-location of the margin guidelines.</text>
  <text style="stroke:none;fill:black;font-family:sans-serif;font-size:13;" transform="matrix(1 0 0 1 776 2007)">Modifications are automatically applied proportionally to all</text>
  <text style="stroke:none;fill:black;font-family:sans-serif;font-size:13;" transform="matrix(1 0 0 1 776 2025)">scales and weights.</text>
  <g transform="matrix(1 0 0 1 1289 1933)">
   <path d="M2.8418 1.86523L4.54102 3.57422Q5.18555 4.22852 5.90332 4.17969Q6.62109 4.13086 7.31445 3.35938L18.0078-8.42773L17.041-9.4043L6.42578 2.27539Q6.16211 2.57812 5.89355 2.61719Q5.625 2.65625 5.27344 2.30469L4.10156 1.14258Q3.75 0.791016 3.79395 0.522461Q3.83789 0.253906 4.14062-0.0195312L15.6152-10.8203L14.6387-11.7871L3.04688-0.898438Q2.30469-0.214844 2.25098 0.498047Q2.19727 1.21094 2.8418 1.86523ZM9.25781-16.3281Q8.94531-16.0254 8.90625-15.6348Q8.86719-15.2441 9.04297-14.9512Q9.21875-14.6777 9.55566-14.541Q9.89258-14.4043 10.3809-14.5215Q11.4746-14.7754 12.5977-14.7314Q13.7207-14.6875 14.7949-13.9844L14.209-12.5293Q13.9551-11.9043 14.0674-11.4404Q14.1797-10.9766 14.5801-10.5664L16.875-8.25195Q17.2363-7.88086 17.5781-7.82227Q17.9199-7.76367 18.3398-7.8418L19.4043-8.03711L20.0684-7.36328L20.0293-6.80664Q20-6.43555 20.1221-6.12305Q20.2441-5.81055 20.6055-5.44922L21.3672-4.70703Q21.7285-4.3457 22.1533-4.33105Q22.5781-4.31641 22.9297-4.66797L25.8398-7.58789Q26.1914-7.93945 26.1816-8.35449Q26.1719-8.76953 25.8105-9.13086L25.0391-9.89258Q24.6875-10.2539 24.3799-10.3857Q24.0723-10.5176 23.7109-10.4883L23.1348-10.4395L22.4902-11.0742L22.7344-12.1973Q22.832-12.6172 22.6953-12.9834Q22.5586-13.3496 22.1191-13.7891L19.9219-15.9766Q18.6719-17.2168 17.2607-17.8369Q15.8496-18.457 14.4189-18.4814Q12.9883-18.5059 11.665-17.959Q10.3418-17.4121 9.25781-16.3281ZM10.752-15.957Q11.6602-16.6211 12.7002-16.9043Q13.7402-17.1875 14.8047-17.085Q15.8691-16.9824 16.8701-16.5137Q17.8711-16.0449 18.7012-15.2051L21.1328-12.793Q21.3086-12.6172 21.3525-12.4512Q21.3965-12.2852 21.3379-12.0312L21.0156-10.5469L22.5195-9.0625L23.5059-9.12109Q23.6914-9.13086 23.7891-9.09668Q23.8867-9.0625 24.0332-8.91602L24.6094-8.33984L22.168-5.89844L21.5918-6.47461Q21.4453-6.62109 21.4062-6.71875Q21.3672-6.81641 21.377-7.01172L21.4453-7.98828L19.9512-9.47266L18.4277-9.21875Q18.1836-9.16992 18.042-9.2041Q17.9004-9.23828 17.7148-9.41406L15.7129-11.416Q15.5176-11.5918 15.4932-11.7529Q15.4688-11.9141 15.5859-12.1875L16.4648-14.2773Q15.293-15.3711 13.8281-15.791Q12.3633-16.2109 10.8398-15.7617Q10.7227-15.7324 10.6885-15.8057Q10.6543-15.8789 10.752-15.957Z"/>
  </g>
  <text style="stroke:none;fill:black;font-family:sans-serif;font-size:13;font-weight:bold;" transform="matrix(1 0 0 1 1289 1953)">Exporting</text>
  <text style="stroke:none;fill:black;font-family:sans-serif;font-size:13;" transform="matrix(1 0 0 1 1289 1971)">Symbols should be outlined when exporting to ensure the</text>
  <text style="stroke:none;fill:black;font-family:sans-serif;font-size:13;" transform="matrix(1 0 0 1 1289 1989)">design is preserved when submitting to Xcode.</text>
  <text id="template-version" style="stroke:none;fill:black;font-family:sans-serif;font-size:13;text-anchor:end;" transform="matrix(1 0 0 1 3036 1933)">Template v.2.0</text>
  <text style="stroke:none;fill:black;font-family:sans-serif;font-size:13;text-anchor:end;" transform="matrix(1 0 0 1 3036 1951)">Requires Xcode 12 or greater</text>
  <text id="descriptive-name" style="stroke:none;fill:black;font-family:sans-serif;font-size:13;text-anchor:end;" transform="matrix(1 0 0 1 3036 1969)">Generated from figure.hunting</text>
  <text style="stroke:none;fill:black;font-family:sans-serif;font-size:13;text-anchor:end;" transform="matrix(1 0 0 1 3036 1987)">Typeset at 100 points</text>
  <text style="stroke:none;fill:black;font-family:sans-serif;font-size:13;" transform="matrix(1 0 0 1 263 726)">Small</text>
  <text style="stroke:none;fill:black;font-family:sans-serif;font-size:13;" transform="matrix(1 0 0 1 263 1156)">Medium</text>
  <text style="stroke:none;fill:black;font-family:sans-serif;font-size:13;" transform="matrix(1 0 0 1 263 1586)">Large</text>
 </g>
 <g id="Guides">
  <g id="H-reference" style="fill:#27AAE1;stroke:none;" transform="matrix(1 0 0 1 339 696)">
   <path d="M0.993347 0L3.6377 0L29.3282-67.1326L30.0301-67.1326L30.0301-70.459L28.1227-70.459ZM11.6882-24.4797L46.9818-24.4797L46.2311-26.7288L12.4382-26.7288ZM55.1193 0L57.7637 0L30.6381-70.459L29.4327-70.459L29.4327-67.1326Z"/>
  </g>
  <line id="Baseline-S" style="fill:none;stroke:#27AAE1;opacity:1;stroke-width:0.5;" x1="263" x2="3036" y1="696" y2="696"/>
  <line id="Capline-S" style="fill:none;stroke:#27AAE1;opacity:1;stroke-width:0.5;" x1="263" x2="3036" y1="625.541" y2="625.541"/>
  <g id="H-reference" style="fill:#27AAE1;stroke:none;" transform="matrix(1 0 0 1 339 1126)">
   <path d="M0.993347 0L3.6377 0L29.3282-67.1326L30.0301-67.1326L30.0301-70.459L28.1227-70.459ZM11.6882-24.4797L46.9818-24.4797L46.2311-26.7288L12.4382-26.7288ZM55.1193 0L57.7637 0L30.6381-70.459L29.4327-70.459L29.4327-67.1326Z"/>
  </g>
  <line id="Baseline-M" style="fill:none;stroke:#27AAE1;opacity:1;stroke-width:0.5;" x1="263" x2="3036" y1="1126" y2="1126"/>
  <line id="Capline-M" style="fill:none;stroke:#27AAE1;opacity:1;stroke-width:0.5;" x1="263" x2="3036" y1="1055.54" y2="1055.54"/>
  <g id="H-reference" style="fill:#27AAE1;stroke:none;" transform="matrix(1 0 0 1 339 1556)">
   <path d="M0.993347 0L3.6377 0L29.3282-67.1326L30.0301-67.1326L30.0301-70.459L28.1227-70.459ZM11.6882-24.4797L46.9818-24.4797L46.2311-26.7288L12.4382-26.7288ZM55.1193 0L57.7637 0L30.6381-70.459L29.4327-70.459L29.4327-67.1326Z"/>
  </g>
  <line id="Baseline-L" style="fill:none;stroke:#27AAE1;opacity:1;stroke-width:0.5;" x1="263" x2="3036" y1="1556" y2="1556"/>
  <line id="Capline-L" style="fill:none;stroke:#27AAE1;opacity:1;stroke-width:0.5;" x1="263" x2="3036" y1="1485.54" y2="1485.54"/>
  <line id="left-margin" style="fill:none;stroke:#00AEEF;stroke-width:0.5;opacity:1.0;" x1="1378.57" x2="1378.57" y1="1030.79" y2="1150.12"/>
  <line id="right-margin" style="fill:none;stroke:#00AEEF;stroke-width:0.5;opacity:1.0;" x1="1521.12" x2="1521.12" y1="1030.79" y2="1150.12"/>
 </g>
 <g id="Symbols">
  <g id="Black-L" transform="matrix(1 0 0 1 2835.64 1556)">
   <path d="M77.379-38.6957Q83.8034-38.6957 88.3264-43.2589Q92.8495-47.8222 92.8495-54.209Q92.8495-60.6113 88.3264-65.1448Q83.8034-69.6783 77.379-69.6783Q70.9923-69.6783 66.4296-65.1448Q61.8669-60.6113 61.8669-54.209Q61.8669-47.8222 66.4296-43.2589Q70.9923-38.6957 77.379-38.6957ZM85.9376 13.4415Q88.579 11.8587 91.2826 10.4984Q93.9863 9.13804 96.847 8.09379L96.847-16.4061Q96.847-17.4072 97.9273-17.4072L105.747-17.4072Q109.06-17.4072 111.368-19.7542Q113.675-22.1011 113.675-25.3355L113.675-68.3581L97.8187-57.0564L97.8187-33.2417L75.283-33.2417Q70.3622-33.2417 67.2045-30.1027Q64.0468-26.9638 64.0468-22.065L64.0468-10.3706Q70.0494-6.26084 75.6311-0.373618Q81.2128 5.51361 85.9376 13.4415ZM125.458-33.9866Q128.713-33.9866 131.079-36.2421Q133.444-38.4976 133.444-41.8123L133.444-88.5423L117.53-72.7871L117.53-41.8123Q117.53-38.4976 119.895-36.2421Q122.261-33.9866 125.458-33.9866ZM97.8187-49.1488L109.391-49.1488L109.391-56.7022L155.033-102.287Q156.753-104.009 156.753-106.391Q156.753-108.773 155.033-110.494Q153.333-112.194 150.94-112.194Q148.547-112.194 146.826-110.494L100.343-63.9354Q97.8187-61.3164 97.8187-57.4923ZM21.7785-2.92116Q31.6529-2.92116 41.535 0.212827Q51.4171 3.34681 60.1062 11.8513Q68.7954 20.3559 74.9806 36.4399Q76.3705 40.0127 79.8647 40.6954Q83.3589 41.3782 85.8182 38.9176Q96.6421 28.0365 109.462 24.7703Q122.282 21.5041 140.328 26.6034Q142.628 27.1771 144.474 26.2489Q146.321 25.3207 147.136 23.1586Q150.834 14.8349 157.737 10.7497Q164.639 6.66441 173.741 6.66441Q176.095 6.66441 177.766 4.99384Q179.437 3.32327 179.437 0.969933Q179.437-1.3834 177.766-3.05456Q176.095-4.72573 173.741-4.72573Q163.135-4.72573 153.73 0.210303Q144.324 5.14633 138.847 14.4214Q121.823 10.5304 108.021 13.6298Q94.2192 16.7292 82.9604 26.0732Q77.3118 13.9405 69.9884 6.08799Q62.665-1.76457 54.4758-6.24129Q46.2865-10.718 37.9243-12.5245Q29.562-14.3309 21.7785-14.3309Q19.4251-14.3309 17.7546-12.6604Q16.084-10.9898 16.084-8.61563Q16.084-6.20389 17.7546-4.56253Q19.4251-2.92116 21.7785-2.92116Z"/>
  </g>
  <g id="Heavy-L" transform="matrix(1 0 0 1 2540.46 1556)">
   <path d="M76.4229-38.402Q82.6646-38.402 87.0575-42.8352Q91.4504-47.2684 91.4504-53.4957Q91.4504-59.7017 87.0575-64.1097Q82.6646-68.5178 76.4229-68.5178Q70.1955-68.5178 65.7651-64.1097Q61.3348-59.7017 61.3348-53.4957Q61.3348-47.2684 65.7651-42.8352Q70.1955-38.402 76.4229-38.402ZM84.5404 12.87Q87.109 11.3143 89.7536 9.99257Q92.3983 8.67082 95.1724 7.63102L95.1724-16.7515Q95.1724-17.8723 96.3679-17.8723L104.217-17.8723Q107.375-17.8723 109.584-20.1186Q111.793-22.3649 111.793-25.4482L111.793-67.5328L96.6409-56.4366L96.6409-32.9882L74.1461-32.9882Q69.3853-32.9882 66.3511-29.9612Q63.3169-26.9342 63.3169-22.2092L63.3169-10.3911Q69.132-6.34477 74.5378-0.598721Q79.9436 5.14733 84.5404 12.87ZM123.054-33.5953Q126.167-33.5953 128.421-35.7433Q130.674-37.8912 130.674-41.0549L130.674-86.6604L115.478-71.6193L115.478-41.0549Q115.478-37.8912 117.731-35.7433Q119.985-33.5953 123.054-33.5953ZM96.6409-49.3082L107.088-49.3082L107.088-56.475L152.422-101.77Q153.974-103.327 153.974-105.468Q153.974-107.609 152.422-109.166Q150.895-110.693 148.737-110.693Q146.578-110.693 145.021-109.166L98.9968-63.0844Q96.6409-60.675 96.6409-57.0649ZM21.2093-3.79249Q30.9933-3.79249 40.84-0.667335Q50.6867 2.45782 59.3563 10.9223Q68.0259 19.3868 74.1846 35.3765Q75.4697 38.6713 78.6454 39.2904Q81.821 39.9094 84.0753 37.6496Q94.8456 26.8403 107.653 23.5738Q120.461 20.3073 138.367 25.3658Q140.466 25.8848 142.12 25.052Q143.773 24.2192 144.533 22.2397Q148.227 13.9018 155.188 9.78176Q162.148 5.66177 171.238 5.66177Q173.359 5.66177 174.864 4.15969Q176.368 2.65762 176.368 0.536456Q176.368-1.5847 174.864-3.08956Q173.359-4.59442 171.238-4.59442Q160.785-4.59442 151.563 0.291966Q142.341 5.17835 137.046 14.3905Q120.02 10.4262 106.31 13.5509Q92.6003 16.6756 81.4358 26.1299Q75.9053 14.037 68.7178 6.22256Q61.5304-1.59191 53.4655-6.03718Q45.4007-10.4825 37.1515-12.2779Q28.9024-14.0733 21.2093-14.0733Q19.0881-14.0733 17.5861-12.5712Q16.084-11.0691 16.084-8.9178Q16.084-6.75202 17.5861-5.27225Q19.0881-3.79249 21.2093-3.79249Z"/>
  </g>
  <g id="Bold-L" transform="matrix(1 0 0 1 2245.78 1556)">
   <path d="M75.016-38.2047Q81.0348-38.2047 85.27-42.4803Q89.5053-46.7559 89.5053-52.7835Q89.5053-58.7511 85.27-63.0054Q81.0348-67.2597 75.016-67.2597Q68.9883-67.2597 64.7194-63.0054Q60.4505-58.7511 60.4505-52.7835Q60.4505-46.7559 64.7194-42.4803Q68.9883-38.2047 75.016-38.2047ZM82.7072 12.1184Q85.1835 10.601 87.7514 9.32906Q90.3194 8.05715 92.9859 7.02503L92.9859-17.2637Q92.9859-18.5157 94.305-18.5157L102.163-18.5157Q105.136-18.5157 107.229-20.6427Q109.323-22.7697 109.323-25.676L109.323-66.6524L95.0022-55.7352L95.0022-32.7851L72.6281-32.7851Q68.0596-32.7851 65.1716-29.8926Q62.2836-27.0001 62.2836-22.4829L62.2836-10.4515Q67.8755-6.48951 73.0699-0.920121Q78.2642 4.64927 82.7072 12.1184ZM119.968-33.2379Q122.912-33.2379 125.035-35.2589Q127.158-37.2799 127.158-40.2664L127.158-84.5258L112.808-70.3237L112.808-40.2664Q112.808-37.2799 114.93-35.2589Q117.053-33.2379 119.968-33.2379ZM95.0022-49.5078L104.036-49.5078L104.036-56.1833L148.964-101.095Q150.301-102.445 150.301-104.282Q150.301-106.12 148.964-107.47Q147.652-108.782 145.789-108.782Q143.926-108.782 142.576-107.47L97.143-62.0093Q95.0022-59.861 95.0022-56.5198ZM20.495-4.86087Q30.1564-4.86087 39.9421-1.75095Q49.7278 1.35898 58.3595 9.75863Q66.9911 18.1583 73.104 34.0103Q74.2587 36.9594 77.0312 37.4978Q79.8036 38.0362 81.8044 36.0223Q92.4907 25.3201 105.261 22.0573Q118.031 18.7944 135.738 23.7993Q137.591 24.2492 138.999 23.5392Q140.406 22.8292 141.098 21.0727Q144.784 12.7268 151.802 8.5719Q158.821 4.41704 167.88 4.41704Q169.709 4.41704 171.007 3.12621Q172.304 1.83537 172.304 0.00603969Q172.304-1.82329 171.007-3.12068Q169.709-4.41808 167.88-4.41808Q157.634-4.41808 148.658 0.399396Q139.681 5.21687 134.616 14.3371Q117.613 10.2882 104.04 13.4399Q90.4682 16.5916 79.4413 26.1692Q74.0642 14.145 67.057 6.38783Q60.0497-1.36931 52.1535-5.76871Q44.2572-10.1681 36.1613-11.9445Q28.0655-13.721 20.495-13.721Q18.6657-13.721 17.3748-12.43Q16.084-11.1391 16.084-9.27188Q16.084-7.41334 17.3748-6.13711Q18.6657-4.86087 20.495-4.86087Z"/>
  </g>
  <g id="Semibold-L" transform="matrix(1 0 0 1 1950.47 1556)">
   <path d="M74.0461-38.0687Q79.9112-38.0687 84.0377-42.2356Q88.1643-46.4025 88.1643-52.2926Q88.1643-58.0958 84.0377-62.2441Q79.9112-66.3924 74.0461-66.3924Q68.1561-66.3924 63.9985-62.2441Q59.8408-58.0958 59.8408-52.2926Q59.8408-46.4025 63.9985-42.2356Q68.1561-38.0687 74.0461-38.0687ZM81.4434 11.6001Q83.8561 10.1092 86.3711 8.87163Q88.8862 7.63409 91.4786 6.60726L91.4786-17.6167Q91.4786-18.9592 92.8829-18.9592L100.746-18.9592Q103.592-18.9592 105.606-21.004Q107.62-23.0487 107.62-25.833L107.62-66.0454L93.8725-55.2517L93.8725-32.645L71.5815-32.645Q67.1457-32.645 64.3584-29.8453Q61.5712-27.0456 61.5712-22.6716L61.5712-10.4931Q67.0093-6.5893 72.0579-1.14169Q77.1065 4.30591 81.4434 11.6001ZM117.841-32.9916Q120.668-32.9916 122.701-34.925Q124.733-36.8584 124.733-39.7228L124.733-83.0542L110.967-69.4306L110.967-39.7228Q110.967-36.8584 112.999-34.925Q115.032-32.9916 117.841-32.9916ZM93.8725-49.6455L101.932-49.6455L101.932-55.9823L146.58-100.629Q147.768-101.837 147.768-103.465Q147.768-105.093 146.58-106.3Q145.416-107.464 143.757-107.464Q142.098-107.464 140.89-106.3L95.8651-61.2681Q93.8725-59.2999 93.8725-56.144ZM20.0025-5.59741Q29.5794-5.59741 39.3231-2.49799Q49.0668 0.601441 57.6722 8.95639Q66.2777 17.3113 72.3591 33.0685Q73.4238 35.7792 75.9183 36.262Q78.4128 36.7448 80.2388 34.9004Q90.8672 24.2721 103.611 21.0118Q116.356 17.7515 133.925 22.7194Q135.609 23.1217 136.847 22.4963Q138.085 21.8709 138.729 20.2681Q142.41 11.9167 149.468 7.73784Q156.527 3.55894 165.565 3.55894Q167.193 3.55894 168.348 2.41373Q169.502 1.26852 169.502-0.359626Q169.502-1.98777 168.348-3.14214Q167.193-4.29651 165.565-4.29651Q155.462-4.29651 146.655 0.473457Q137.848 5.24342 132.941 14.3003Q115.953 10.193 102.476 13.3634Q88.9983 16.5337 78.0663 26.1964Q72.7949 14.2194 65.912 6.50176Q59.029-1.21585 51.2489-5.58362Q43.4688-9.95139 35.4787-11.7147Q27.4885-13.4781 20.0025-13.4781Q18.3744-13.4781 17.2292-12.3327Q16.084-11.1873 16.084-9.51597Q16.084-7.86925 17.2292-6.73333Q18.3744-5.59741 20.0025-5.59741Z"/>
  </g>
  <g id="Medium-L" transform="matrix(1 0 0 1 1654.82 1556)">
   <path d="M73.3107-37.9655Q79.0592-37.9655 83.1034-42.0501Q87.1475-46.1346 87.1475-51.9203Q87.1475-57.5989 83.1034-61.6668Q79.0592-65.7348 73.3107-65.7348Q67.5251-65.7348 63.4518-61.6668Q59.3786-57.5989 59.3786-51.9203Q59.3786-46.1346 63.4518-42.0501Q67.5251-37.9655 73.3107-37.9655ZM80.4851 11.2072Q82.8496 9.73629 85.3245 8.5248Q87.7995 7.31331 90.3357 6.29049L90.3357-17.8844Q90.3357-19.2955 91.8045-19.2955L99.6725-19.2955Q102.422-19.2955 104.375-21.2779Q106.329-23.2603 106.329-25.9521L106.329-65.5852L93.0159-54.8851L93.0159-32.5388L70.788-32.5388Q66.4527-32.5388 63.7419-29.8094Q61.0311-27.0801 61.0311-22.8146L61.0311-10.5246Q66.3525-6.66496 71.2905-1.3097Q76.2286 4.04556 80.4851 11.2072ZM116.228-32.8048Q118.967-32.8048 120.931-34.6718Q122.895-36.5388 122.895-39.3107L122.895-81.9384L109.571-68.7533L109.571-39.3107Q109.571-36.5388 111.535-34.6718Q113.499-32.8048 116.228-32.8048ZM93.0159-49.7499L100.337-49.7499L100.337-55.8298L144.772-100.276Q145.848-101.376 145.848-102.845Q145.848-104.315 144.772-105.413Q143.721-106.465 142.216-106.465Q140.712-106.465 139.613-105.413L94.896-60.7061Q93.0159-58.8744 93.0159-55.8591ZM19.6292-6.15589Q29.142-6.15589 38.8538-3.06442Q48.5656 0.0270458 57.1512 8.34809Q65.7367 16.6691 71.7943 32.3544Q72.7908 34.8843 75.0745 35.3249Q77.3583 35.7656 79.0517 34.0498Q89.6362 23.4774 102.361 20.2191Q115.085 16.9607 132.551 21.9006Q134.106 22.2667 135.216 21.7055Q136.326 21.1443 136.933 19.658Q140.61 11.3025 147.699 7.10541Q154.788 2.90828 163.81 2.90828Q165.286 2.90828 166.332 1.8735Q167.378 0.838711 167.378-0.63689Q167.378-2.11249 166.332-3.15841Q165.286-4.20433 163.81-4.20433Q153.815-4.20433 145.136 0.529614Q136.457 5.26356 131.671 14.2724Q114.695 10.1209 101.289 13.3053Q87.8837 16.4898 77.0237 26.2169Q71.8326 14.2758 65.0438 6.58815Q58.255-1.09949 50.563-5.44328Q42.8711-9.78706 34.9611-11.5405Q27.051-13.2939 19.6292-13.2939Q18.1536-13.2939 17.1188-12.2589Q16.084-11.2239 16.084-9.70106Q16.084-8.21494 17.1188-7.18541Q18.1536-6.15589 19.6292-6.15589Z"/>
  </g>
  <g id="Regular-L" transform="matrix(1 0 0 1 1359.5 1556)">
   <path d="M72.3515-37.831Q77.9479-37.831 81.8846-41.8081Q85.8213-45.7852 85.8213-51.4347Q85.8213-56.9507 81.8846-60.9139Q77.9479-64.8771 72.3515-64.8771Q66.702-64.8771 62.7388-60.9139Q58.7756-56.9507 58.7756-51.4347Q58.7756-45.7852 62.7388-41.8081Q66.702-37.831 72.3515-37.831ZM79.2352 10.6947Q81.5368 9.24991 83.9594 8.0724Q86.382 6.89489 88.8449 5.87731L88.8449-18.2336Q88.8449-19.7342 90.398-19.7342L98.2718-19.7342Q100.895-19.7342 102.77-21.6352Q104.645-23.5363 104.645-26.1074L104.645-64.9849L91.8985-54.4069L91.8985-32.4003L69.753-32.4003Q65.5488-32.4003 62.9377-29.7627Q60.3265-27.125 60.3265-23.0012L60.3265-10.5658Q65.4958-6.76365 70.2897-1.52884Q75.0836 3.70598 79.2352 10.6947ZM114.124-32.5611Q116.748-32.5611 118.623-34.3415Q120.497-36.122 120.497-38.7731L120.497-80.483L107.751-67.8699L107.751-38.7731Q107.751-36.122 109.626-34.3415Q111.5-32.5611 114.124-32.5611ZM91.8985-49.886L98.2561-49.886L98.2561-55.631L142.414-99.8162Q143.343-100.774 143.343-102.037Q143.343-103.299 142.414-104.256Q141.509-105.161 140.206-105.161Q138.903-105.161 137.946-104.256L93.6321-59.9731Q91.8985-58.3195 91.8985-55.4875ZM19.1421-6.88433Q28.5713-6.88433 38.2416-3.80325Q47.9118-0.722165 56.4715 7.55466Q65.0312 15.8315 71.0576 31.4229Q71.9651 33.7171 73.9739 34.1027Q75.9827 34.4883 77.5034 32.9403Q88.0306 22.441 100.729 19.1851Q113.428 15.9292 130.758 20.8326Q132.145 21.1515 133.088 20.674Q134.03 20.1965 134.59 18.8623Q138.262 10.5014 145.391 6.28051Q152.519 2.05961 161.521 2.05961Q162.798 2.05961 163.702 1.16885Q164.606 0.27809 164.606-0.998537Q164.606-2.27516 163.702-3.17963Q162.798-4.0841 161.521-4.0841Q151.667-4.0841 143.155 0.602861Q134.643 5.28982 130.014 14.236Q113.053 10.0268 99.7417 13.2296Q86.43 16.4325 75.6638 26.2437Q70.5773 14.3494 63.9114 6.70084Q57.2455-0.947719 49.6684-5.26022Q42.0914-9.57273 34.2859-11.3132Q26.4804-13.0536 19.1421-13.0536Q17.8655-13.0536 16.9747-12.1626Q16.084-11.2716 16.084-9.94247Q16.084-8.66585 16.9747-7.77509Q17.8655-6.88433 19.1421-6.88433Z"/>
  </g>
  <g id="Light-L" transform="matrix(1 0 0 1 1065.04 1556)">
   <path d="M69.9469-38.766Q75.4096-38.766 79.2604-42.6573Q83.1111-46.5487 83.1111-52.0455Q83.1111-57.4279 79.2604-61.2956Q75.4096-65.1634 69.9469-65.1634Q64.45-65.1634 60.5822-61.2956Q56.7145-57.4279 56.7145-52.0455Q56.7145-46.5487 60.5822-42.6573Q64.45-38.766 69.9469-38.766ZM77.3078 9.89307Q79.5327 8.50566 81.879 7.37577Q84.2253 6.24589 86.6118 5.24755L86.6118-19.1305Q86.6118-20.6121 88.1268-20.6121L95.829-20.6121Q98.3756-20.6121 100.212-22.4654Q102.049-24.3187 102.049-26.8328L102.049-65.2902L89.6084-54.3495L89.6084-32.973L67.9971-32.973Q63.8884-32.973 61.3346-30.402Q58.7807-27.8311 58.7807-23.8029L58.7807-10.8329Q63.8544-7.12631 68.5434-2.02505Q73.2324 3.07621 77.3078 9.89307ZM111.299-33.1338Q113.847-33.1338 115.683-34.8665Q117.52-36.5991 117.52-39.1928L117.52-80.273L105.079-67.9463L105.079-39.1928Q105.079-36.5991 106.915-34.8665Q108.752-33.1338 111.299-33.1338ZM89.6084-50.0387L94.8591-50.0387L94.8591-55.3639L138.578-99.129Q139.316-99.9151 139.316-100.939Q139.316-101.963 138.578-102.749Q137.826-103.501 136.761-103.501Q135.697-103.501 134.911-102.749L91.1509-59.0951Q89.6084-57.6323 89.6084-55.0103ZM18.5887-7.55225Q27.8653-7.55225 37.3827-4.50933Q46.9001-1.46641 55.3453 6.66725Q63.7905 14.8009 69.7025 30.1633Q70.5147 32.2093 72.1895 32.5281Q73.8642 32.8469 75.2133 31.4515Q85.5686 21.1433 98.0957 17.9159Q110.623 14.6886 127.647 19.5349Q128.882 19.7964 129.614 19.4334Q130.347 19.0704 130.85 17.8699Q134.503 9.56638 141.583 5.37401Q148.664 1.18165 157.551 1.18165Q158.599 1.18165 159.351 0.453145Q160.102-0.275362 160.102-1.32304Q160.102-2.37072 159.351-3.12239Q158.599-3.87407 157.551-3.87407Q147.946-3.87407 139.72 0.717495Q131.494 5.30906 127.056 14.1023Q110.267 9.87416 97.2034 13.0674Q84.1399 16.2606 73.6026 26.0719Q68.6687 14.3494 62.2032 6.80585Q55.7377-0.73769 48.3706-4.97388Q41.0034-9.21007 33.3889-10.9029Q25.7743-12.5957 18.5887-12.5957Q17.541-12.5957 16.8125-11.8668Q16.084-11.1379 16.084-10.0569Q16.084-9.00927 16.8125-8.28076Q17.541-7.55225 18.5887-7.55225Z"/>
  </g>
  <g id="Thin-L" transform="matrix(1 0 0 1 771.308 1556)">
   <path d="M66.7666-40.0027Q72.0525-40.0027 75.7896-43.7806Q79.5267-47.5584 79.5267-52.8534Q79.5267-58.0589 75.7896-61.8005Q72.0525-65.5421 66.7666-65.5421Q61.4716-65.5421 57.73-61.8005Q53.9884-58.0589 53.9884-52.8534Q53.9884-47.5584 57.73-43.7806Q61.4716-40.0027 66.7666-40.0027ZM74.7585 8.83284Q76.8821 7.52134 79.1275 6.45443Q81.3729 5.38752 83.6585 4.41463L83.6585-20.3167Q83.6585-21.7733 85.1229-21.7733L92.5983-21.7733Q95.0435-21.7733 96.8297-23.5634Q98.6158-25.3535 98.6158-27.7921L98.6158-65.6939L86.5796-54.2736L86.5796-33.7304L65.6748-33.7304Q61.6925-33.7304 59.2143-31.2477Q56.7361-28.765 56.7361-24.8631L56.7361-11.1861Q61.6834-7.60596 66.2338-2.68133Q70.7841 2.24329 74.7585 8.83284ZM107.564-33.8912Q110.01-33.8912 111.796-35.5607Q113.582-37.2302 113.582-39.7479L113.582-79.9952L101.545-68.0472L101.545-39.7479Q101.545-37.2302 103.331-35.5607Q105.117-33.8912 107.564-33.8912ZM86.5796-50.2405L90.3662-50.2405L90.3662-55.0106L133.504-98.2202Q133.99-98.7794 133.99-99.488Q133.99-100.197 133.504-100.755Q132.954-101.305 132.205-101.305Q131.457-101.305 130.897-100.755L87.8692-57.934Q86.5796-56.7235 86.5796-54.3793ZM17.8567-8.43564Q26.9314-8.43564 36.2468-5.44318Q45.5621-2.45073 53.8559 5.49357Q62.1497 13.4379 67.9103 28.4975Q68.5966 30.2153 69.8294 30.4456Q71.0622 30.676 72.1844 29.4824Q82.3124 19.427 94.6124 16.2374Q106.912 13.0478 123.533 17.8186Q124.565 18.0042 125.02 17.7926Q125.475 17.581 125.902 16.5573Q129.53 8.32972 136.547 4.1751Q143.565 0.0204843 152.301 0.0204843Q153.046 0.0204843 153.595-0.493431Q154.145-1.00735 154.145-1.75222Q154.145-2.4971 153.595-3.04669Q153.046-3.59629 152.301-3.59629Q143.024-3.59629 135.176 0.869109Q127.329 5.3345 123.143 13.9255Q106.582 9.67229 93.8463 12.8528Q81.111 16.0333 70.8766 25.8446Q66.1445 14.3494 59.9441 6.94474Q53.7437-0.459909 46.6541-4.59516Q39.5645-8.73042 32.2025-10.3603Q24.8405-11.9901 17.8567-11.9901Q17.1118-11.9901 16.5979-11.4756Q16.084-10.9611 16.084-10.2083Q16.084-9.46347 16.5979-8.94956Q17.1118-8.43564 17.8567-8.43564Z"/>
  </g>
  <g id="Ultralight-L" transform="matrix(1 0 0 1 476.122 1556)">
   <path d="M65.1377-40.6361Q70.333-40.6361 74.0119-44.3559Q77.6907-48.0756 77.6907-53.2672Q77.6907-58.3821 74.0119-62.0591Q70.333-65.7361 65.1377-65.7361Q59.9461-65.7361 56.2691-62.0591Q52.5921-58.3821 52.5921-53.2672Q52.5921-48.0756 56.2691-44.3559Q59.9461-40.6361 65.1377-40.6361ZM73.4528 8.28979Q75.5245 7.01718 77.7182 5.98253Q79.9118 4.94787 82.1457 3.98801L82.1457-20.9243Q82.1457-22.3681 83.5844-22.3681L90.9435-22.3681Q93.3368-22.3681 95.0972-24.1258Q96.8575-25.8835 96.8575-28.2834L96.8575-65.9007L85.0282-54.2347L85.0282-34.1184L64.4853-34.1184Q60.5677-34.1184 58.1283-31.6808Q55.6889-29.2433 55.6889-25.4062L55.6889-11.3671Q60.5715-7.85163 65.0508-3.01748Q69.5301 1.81667 73.4528 8.28979ZM105.65-34.2792Q108.045-34.2792 109.805-35.9163Q111.565-37.5534 111.565-40.0323L111.565-79.8529L99.7347-68.0989L99.7347-40.0323Q99.7347-37.5534 101.495-35.9163Q103.255-34.2792 105.65-34.2792ZM85.0282-50.3439L88.065-50.3439L88.065-54.8297L130.906-97.7547Q131.262-98.1977 131.262-98.7447Q131.262-99.2917 130.906-99.7333Q130.459-100.18 129.872-100.18Q129.285-100.18 128.842-99.7333L86.1884-57.3392Q85.0282-56.258 85.0282-54.0561ZM17.4818-8.88811Q26.4531-8.88811 35.6649-5.9215Q44.8768-2.95489 53.0931 4.89242Q61.3093 12.7397 66.9923 27.6443Q67.6141 29.1939 68.6206 29.379Q69.627 29.564 70.633 28.4739Q80.6446 18.5479 92.8283 15.3776Q105.012 12.2074 121.425 16.9395Q122.354 17.0862 122.667 16.9522Q122.98 16.8181 123.368 15.885Q126.983 7.69631 133.968 3.56103Q140.953-0.57426 149.612-0.57426Q150.202-0.57426 150.648-0.978262Q151.094-1.38227 151.094-1.97205Q151.094-2.56183 150.648-3.00792Q150.202-3.45401 149.612-3.45401Q140.503-3.45401 132.849 0.946764Q125.196 5.34754 121.139 13.8349Q104.694 9.5689 92.1268 12.7429Q79.5596 15.9169 69.4803 25.7281Q64.8517 14.3494 58.787 7.01588Q52.7223-0.317631 45.7749-4.40119Q38.8275-8.48475 31.5948-10.0823Q24.3622-11.6799 17.4818-11.6799Q16.892-11.6799 16.488-11.2752Q16.084-10.8705 16.084-10.2859Q16.084-9.69611 16.488-9.29211Q16.892-8.88811 17.4818-8.88811Z"/>
  </g>
  <g id="Black-M" transform="matrix(1 0 0 1 2856.65 1126)">
   <path d="M60.4448-38.2939Q65.5608-38.2939 69.1652-41.9295Q72.7696-45.5651 72.7696-50.6294Q72.7696-55.7402 69.1652-59.3474Q65.5608-62.9546 60.4448-62.9546Q55.3804-62.9546 51.7447-59.3474Q48.109-55.7402 48.109-50.6294Q48.109-45.5651 51.7447-41.9295Q55.3804-38.2939 60.4448-38.2939ZM67.519 2.86049Q69.6177 1.61875 71.7527 0.538131Q73.8877-0.54249 76.1681-1.35274L76.1681-20.4709Q76.1681-21.1411 76.9009-21.1411L82.9107-21.1411Q85.6012-21.1411 87.4682-23.0394Q89.3352-24.9377 89.3352-27.5656L89.3352-61.6463L76.4862-52.6646L76.4862-33.9848L59.0641-33.9848Q55.1272-33.9848 52.5824-31.4658Q50.0376-28.9468 50.0376-25.0152L50.0376-15.9889Q54.8363-12.7633 59.2976-8.09896Q63.759-3.43464 67.519 2.86049ZM98.881-34.6804Q101.514-34.6804 103.438-36.5138Q105.363-38.3472 105.363-41.0374L105.363-78.122L92.4566-65.3409L92.4566-41.0374Q92.4566-38.3472 94.3807-36.5138Q96.3048-34.6804 98.881-34.6804ZM76.4862-45.8971L86.2679-45.8971L86.2679-52.0244L121.835-87.5337Q123.286-88.9846 123.286-91.0051Q123.286-93.0255 121.835-94.4765Q120.389-95.922 118.366-95.922Q116.343-95.922 114.892-94.4765L78.5606-58.0816Q76.4862-55.8983 76.4862-52.7802ZM17.2869-9.54052Q24.9941-9.54052 32.6598-7.11007Q40.3256-4.67962 47.0588 1.9242Q53.792 8.52801 58.5911 21.039Q59.7451 24.0123 62.6807 24.587Q65.6163 25.1616 67.6747 23.1035Q76.0831 14.6376 86.0025 12.1113Q95.9219 9.5849 109.981 13.5628Q111.915 14.0465 113.483 13.2609Q115.052 12.4753 115.722 10.6614Q118.588 4.23278 123.88 1.1015Q129.171-2.02978 136.219-2.02978Q138.21-2.02978 139.627-3.44687Q141.044-4.86396 141.044-6.8557Q141.044-8.84744 139.627-10.2644Q138.21-11.6813 136.219-11.6813Q127.903-11.6813 120.497-7.82745Q113.092-3.97356 108.718 3.24564Q95.553 0.291554 84.8148 2.66969Q74.0766 5.04783 65.3039 12.1922Q60.8469 2.78167 55.0835-3.32054Q49.32-9.42274 42.897-12.9077Q36.474-16.3927 29.9241-17.7953Q23.3741-19.1978 17.2869-19.1978Q15.2951-19.1978 13.878-17.7808Q12.4609-16.3637 12.4609-14.3664Q12.4609-12.3176 13.878-10.9291Q15.2951-9.54052 17.2869-9.54052Z"/>
  </g>
  <g id="Heavy-M" transform="matrix(1 0 0 1 2561.23 1126)">
   <path d="M59.7319-37.9206Q64.6817-37.9206 68.1668-41.4369Q71.652-44.9532 71.652-49.8759Q71.652-54.807 68.1668-58.3003Q64.6817-61.7937 59.7319-61.7937Q54.8092-61.7937 51.2941-58.3003Q47.7789-54.807 47.7789-49.8759Q47.7789-44.9532 51.2941-41.4369Q54.8092-37.9206 59.7319-37.9206ZM66.331 2.3758Q68.3655 1.15523 70.4499 0.107936Q72.5343-0.939357 74.737-1.74703L74.737-20.7258Q74.737-21.5148 75.586-21.5148L81.6402-21.5148Q84.1857-21.5148 85.96-23.3191Q87.7343-25.1234 87.7343-27.6088L87.7343-60.8113L75.5461-52.064L75.5461-33.6843L58.1147-33.6843Q54.3254-33.6843 51.896-31.2685Q49.4667-28.8527 49.4667-25.0821L49.4667-15.9843Q54.0908-12.8119 58.3899-8.27323Q62.689-3.7346 66.331 2.3758ZM96.7913-34.2451Q99.2932-34.2451 101.111-35.9778Q102.929-37.7104 102.929-40.2582L102.929-76.3017L90.6972-64.1923L90.6972-40.2582Q90.6972-37.7104 92.5151-35.9778Q94.3331-34.2451 96.7913-34.2451ZM75.5461-46.0388L84.3306-46.0388L84.3306-51.8269L119.636-87.0913Q120.941-88.398 120.941-90.2045Q120.941-92.0111 119.636-93.3178Q118.346-94.6081 116.53-94.6081Q114.714-94.6081 113.407-93.3178L77.4736-57.3307Q75.5461-55.3346 75.5461-52.4063ZM16.7815-10.3307Q24.4144-10.3307 32.0597-7.90535Q39.7049-5.48001 46.4295 1.09789Q53.1541 7.67578 57.938 20.1157Q58.9983 22.8401 61.6533 23.3587Q64.3083 23.8772 66.1821 22.0012Q74.554 13.5879 84.4774 11.0586Q94.4008 8.52937 108.352 12.4727Q110.103 12.9082 111.502 12.2053Q112.901 11.5024 113.523 9.85474Q116.387 3.40683 121.739 0.238945Q127.092-2.92894 134.137-2.92894Q135.923-2.92894 137.192-4.19628Q138.46-5.46362 138.46-7.24952Q138.46-9.03542 137.192-10.3039Q135.923-11.5724 134.137-11.5724Q125.949-11.5724 118.696-7.75819Q111.444-3.94403 107.23 3.22772Q94.0479 0.203732 83.3766 2.60753Q72.7053 5.01133 64.0037 12.2635Q59.648 2.876 53.999-3.19867Q48.35-9.27333 42.0292-12.7346Q35.7084-16.1959 29.2514-17.5921Q22.7945-18.9883 16.7815-18.9883Q14.9956-18.9883 13.7283-17.7209Q12.4609-16.4536 12.4609-14.6513Q12.4609-12.8217 13.7283-11.5762Q14.9956-10.3307 16.7815-10.3307Z"/>
  </g>
  <g id="Bold-M" transform="matrix(1 0 0 1 2265.96 1126)">
   <path d="M58.9344-37.503Q63.6984-37.503 67.05-40.8859Q70.4017-44.2687 70.4017-49.0328Q70.4017-53.7631 67.05-57.1291Q63.6984-60.4951 58.9344-60.4951Q54.1703-60.4951 50.79-57.1291Q47.4097-53.7631 47.4097-49.0328Q47.4097-44.2687 50.79-40.8859Q54.1703-37.503 58.9344-37.503ZM65.0021 1.83361Q66.9648 0.636711 68.9925-0.373299Q71.0203-1.38331 73.1362-2.18809L73.1362-21.011Q73.1362-21.9327 74.1151-21.9327L80.219-21.9327Q82.6022-21.9327 84.2728-23.6319Q85.9434-25.3311 85.9434-27.6573L85.9434-59.8773L74.4945-51.3921L74.4945-33.348L57.0526-33.348Q53.4284-33.348 51.1282-31.0478Q48.828-28.7475 48.828-25.157L48.828-15.9791Q53.257-12.8662 57.3745-8.46818Q61.4921-4.07016 65.0021 1.83361ZM94.4537-33.7581Q96.8084-33.7581 98.5076-35.3781Q100.207-36.9981 100.207-39.3865L100.207-74.2655L88.7291-62.9074L88.7291-39.3865Q88.7291-36.9981 90.4283-35.3781Q92.1275-33.7581 94.4537-33.7581ZM74.4945-46.1973L82.1634-46.1973L82.1634-51.606L117.177-86.5964Q118.317-87.7417 118.317-89.309Q118.317-90.8764 117.177-92.0216Q116.061-93.1383 114.476-93.1383Q112.892-93.1383 111.747-92.0216L76.2576-56.4907Q74.4945-54.7041 74.4945-51.9881ZM16.2162-11.2146Q23.7659-11.2146 31.3883-8.79498Q39.0107-6.37537 45.7257 0.173539Q52.4407 6.72244 57.2073 19.0828Q58.163 21.5289 60.5041 21.9847Q62.8453 22.4404 64.5124 20.7682Q72.8435 12.4137 82.7713 9.88114Q92.6991 7.3486 106.529 11.2532Q108.077 11.635 109.286 11.0246Q110.495 10.4142 111.063 8.95234Q113.924 2.48288 119.345-0.725946Q124.766-3.93477 131.809-3.93477Q133.365-3.93477 134.467-5.0346Q135.569-6.13443 135.569-7.69006Q135.569-9.24569 134.467-10.3481Q133.365-11.4504 131.809-11.4504Q123.763-11.4504 116.682-7.68072Q109.6-3.911 105.565 3.20768Q92.3641 0.105491 81.7677 2.53799Q71.1713 4.9705 62.5492 12.3433Q58.3068 2.98151 52.7858-3.06234Q47.2648-9.1062 41.0584-12.541Q34.852-15.9758 28.499-17.3648Q22.146-18.7538 16.2162-18.7538Q14.6606-18.7538 13.5608-17.654Q12.4609-16.5541 12.4609-14.9699Q12.4609-13.3857 13.5608-12.3002Q14.6606-11.2146 16.2162-11.2146Z"/>
  </g>
  <g id="Semibold-M" transform="matrix(1 0 0 1 1970.25 1126)">
   <path d="M58.3846-37.2151Q63.0205-37.2151 66.2801-40.506Q69.5398-43.7969 69.5398-48.4517Q69.5398-53.0434 66.2801-56.3216Q63.0205-59.5998 58.3846-59.5998Q53.7298-59.5998 50.4425-56.3216Q47.1552-53.0434 47.1552-48.4517Q47.1552-43.7969 50.4425-40.506Q53.7298-37.2151 58.3846-37.2151ZM64.086 1.45982Q65.9992 0.279248 67.9878-0.705059Q69.9765-1.68937 72.0326-2.49216L72.0326-21.2075Q72.0326-22.2209 73.1011-22.2209L79.2392-22.2209Q81.5106-22.2209 83.1097-23.8476Q84.7089-25.4743 84.7089-27.6906L84.7089-59.2334L73.7695-50.929L73.7695-33.1162L56.3205-33.1162Q52.81-33.1162 50.5989-30.8956Q48.3877-28.675 48.3877-25.2087L48.3877-15.9755Q52.6821-12.9037 56.6746-8.60258Q60.667-4.30149 64.086 1.45982ZM92.8421-33.4224Q95.0955-33.4224 96.7127-34.9647Q98.33-36.507 98.33-38.7856L98.33-72.8617L87.3724-62.0216L87.3724-38.7856Q87.3724-36.507 88.9896-34.9647Q90.6069-33.4224 92.8421-33.4224ZM73.7695-46.3066L80.6694-46.3066L80.6694-51.4537L115.482-86.2552Q116.509-87.2893 116.509-88.6917Q116.509-90.0941 115.482-91.1281Q114.485-92.1251 113.061-92.1251Q111.636-92.1251 110.602-91.1281L75.4193-55.9115Q73.7695-54.2694 73.7695-51.6998ZM15.8265-11.824Q23.3189-11.824 30.9255-9.40829Q38.5321-6.99262 45.2404-0.4637Q51.9488 6.06522 56.7036 18.3708Q57.5871 20.6249 59.7118 21.0374Q61.8366 21.4499 63.3613 19.9181Q71.6643 11.6042 81.5951 9.06937Q91.526 6.53458 105.272 10.4125Q106.679 10.7572 107.758 10.2106Q108.836 9.66396 109.367 8.33023Q112.226 1.84592 117.694-1.39113Q123.162-4.62819 130.204-4.62819Q131.601-4.62819 132.589-5.61253Q133.576-6.59688 133.576-7.99377Q133.576-9.39065 132.589-10.3785Q131.601-11.3664 130.204-11.3664Q122.256-11.3664 115.293-7.62731Q108.329-3.88823 104.418 3.19387Q91.2033 0.0377641 80.6585 2.49006Q70.1138 4.94235 61.5465 12.3983Q57.3823 3.05425 51.9495-2.96836Q46.5167-8.99097 40.3892-12.4075Q34.2616-15.824 27.9803-17.2081Q21.699-18.5922 15.8265-18.5922Q14.4296-18.5922 13.4453-17.6078Q12.4609-16.6234 12.4609-15.1895Q12.4609-13.7745 13.4453-12.7992Q14.4296-11.824 15.8265-11.824Z"/>
  </g>
  <g id="Medium-M" transform="matrix(1 0 0 1 1674.29 1126)">
   <path d="M57.9677-36.9969Q62.5064-36.9969 65.6963-40.218Q68.8862-43.4391 68.8862-48.011Q68.8862-52.4977 65.6963-55.7093Q62.5064-58.921 57.9677-58.921Q53.3958-58.921 50.179-55.7093Q46.9622-52.4977 46.9622-48.011Q46.9622-43.4391 50.179-40.218Q53.3958-36.9969 57.9677-36.9969ZM63.3913 1.1764Q65.267 0.00820428 67.226-0.956614Q69.1851-1.92143 71.1958-2.72272L71.1958-21.3566Q71.1958-22.4394 72.3322-22.4394L78.4963-22.4394Q80.6829-22.4394 82.2278-24.0111Q83.7727-25.5828 83.7727-27.7159L83.7727-58.7451L73.2197-50.5778L73.2197-32.9405L55.7653-32.9405Q52.3411-32.9405 50.1975-30.7802Q48.0539-28.62 48.0539-25.2479L48.0539-15.9728Q52.2462-12.9321 56.1438-8.70449Q60.0413-4.47689 63.3913 1.1764ZM91.6202-33.1679Q93.7966-33.1679 95.3518-34.6513Q96.907-36.1347 96.907-38.33L96.907-71.7973L86.3436-61.35L86.3436-38.33Q86.3436-36.1347 87.8988-34.6513Q89.454-33.1679 91.6202-33.1679ZM73.2197-46.3895L79.5365-46.3895L79.5365-51.3382L114.197-85.9965Q115.138-86.9463 115.138-88.2236Q115.138-89.5009 114.197-90.4505Q113.29-91.3568 111.987-91.3568Q110.684-91.3568 109.734-90.4505L74.7837-55.4724Q73.2197-53.9398 73.2197-51.4812ZM15.531-12.286Q22.9799-12.286 30.5745-9.87333Q38.1691-7.46064 44.8725-0.946882Q51.5758 5.56688 56.3217 17.8309Q57.1504 19.9395 59.1111 20.3192Q61.0718 20.6988 62.4886 19.2736Q70.7702 10.9903 80.7033 8.45385Q90.6364 5.91736 104.319 9.77508Q105.62 10.0916 106.599 9.59333Q107.578 9.0951 108.082 7.85852Q110.939 1.36295 116.442-1.89551Q121.946-5.15396 128.987-5.15396Q130.263-5.15396 131.164-6.05075Q132.065-6.94753 132.065-8.22405Q132.065-9.50057 131.164-10.4016Q130.263-11.3027 128.987-11.3027Q121.114-11.3027 114.24-7.58681Q107.365-3.87097 103.548 3.18339Q90.3232-0.0135893 79.8175 2.45371Q69.3119 4.92101 60.7862 12.44Q56.6812 3.10941 51.3154-2.8971Q45.9495-8.90361 39.8817-12.3062Q33.8139-15.7089 27.5869-17.0893Q21.36-18.4697 15.531-18.4697Q14.2545-18.4697 13.3577-17.5728Q12.4609-16.676 12.4609-15.3561Q12.4609-14.0693 13.3577-13.1777Q14.2545-12.286 15.531-12.286Z"/>
  </g>
  <g id="Regular-M" transform="matrix(1 0 0 1 1378.57 1126)">
   <path d="M57.424-36.7121Q61.836-36.7121 64.9349-39.8423Q68.0337-42.9724 68.0337-47.4362Q68.0337-51.7859 64.9349-54.9107Q61.836-58.0355 57.424-58.0355Q52.9601-58.0355 49.8353-54.9107Q46.7105-51.7859 46.7105-47.4362Q46.7105-42.9724 49.8353-39.8423Q52.9601-36.7121 57.424-36.7121ZM62.4852 0.806727Q64.312-0.345331 66.2324-1.28473Q68.1528-2.22413 70.1044-3.02345L70.1044-21.551Q70.1044-22.7243 71.3294-22.7243L77.5273-22.7243Q79.6033-22.7243 81.0775-24.2244Q82.5517-25.7244 82.5517-27.7489L82.5517-58.1083L72.5027-50.1197L72.5027-32.7112L55.0412-32.7112Q51.7296-32.7112 49.674-30.6297Q47.6184-28.5483 47.6184-25.2989L47.6184-15.9692Q51.6777-12.9691 55.4515-8.83741Q59.2253-4.70568 62.4852 0.806727ZM90.0263-32.8358Q92.1025-32.8358 93.5767-34.2424Q95.0509-35.649 95.0509-37.7357L95.0509-70.409L85.0017-60.4739L85.0017-37.7357Q85.0017-35.649 86.4759-34.2424Q87.9501-32.8358 90.0263-32.8358ZM72.5027-46.4976L78.0589-46.4976L78.0589-51.1876L112.52-85.6591Q113.349-86.4988 113.349-87.613Q113.349-88.7272 112.52-89.5668Q111.732-90.3547 110.587-90.3547Q109.441-90.3547 108.602-89.5668L73.9547-54.8997Q72.5027-53.5099 72.5027-51.1961ZM15.1456-12.8887Q22.5378-12.8887 30.1168-10.4799Q37.6958-8.07111 44.3926-1.57712Q51.0893 4.91687 55.8235 17.1266Q56.5808 19.0455 58.3276 19.3823Q60.0743 19.7192 61.3501 18.4329Q69.604 10.1897 79.5401 7.651Q89.4762 5.11229 103.077 8.94362Q104.238 9.22341 105.088 8.78826Q105.938 8.35311 106.404 7.24324Q109.26 0.732983 114.81-2.55339Q120.36-5.83976 127.399-5.83976Q128.519-5.83976 129.306-6.62233Q130.094-7.40489 130.094-8.52442Q130.094-9.64394 129.306-10.4317Q128.519-11.2195 127.399-11.2195Q119.624-11.2195 112.866-7.53399Q106.108-3.84845 102.413 3.16973Q89.1751-0.080572 78.7206 2.4063Q68.266 4.89317 59.7945 12.4943Q55.7668 3.18135 50.4882-2.80415Q45.2096-8.78965 39.2198-12.1742Q33.23-15.5588 27.0739-16.9343Q20.9179-18.3098 15.1456-18.3098Q14.0261-18.3098 13.2435-17.5272Q12.4609-16.7445 12.4609-15.5733Q12.4609-14.4538 13.2435-13.6713Q14.0261-12.8887 15.1456-12.8887Z"/>
  </g>
  <g id="Light-M" transform="matrix(1 0 0 1 1083.87 1126)">
   <path d="M55.2681-37.5504Q59.5603-37.5504 62.5821-40.6037Q65.6039-43.6569 65.6039-47.9839Q65.6039-52.2137 62.5821-55.253Q59.5603-58.2923 55.2681-58.2923Q50.9411-58.2923 47.9018-55.253Q44.8626-52.2137 44.8626-47.9839Q44.8626-43.6569 47.9018-40.6037Q50.9411-37.5504 55.2681-37.5504ZM60.7571 0.0880158Q62.5152-1.01258 64.3672-1.90929Q66.2192-2.806 68.1023-3.58807L68.1023-22.3551Q68.1023-23.5115 69.2931-23.5115L75.3372-23.5115Q77.3445-23.5115 78.7845-24.9687Q80.2245-26.4259 80.2245-28.3992L80.2245-58.382L70.4495-50.0683L70.4495-33.2247L53.4669-33.2247Q50.241-33.2247 48.2367-31.203Q46.2325-29.1813 46.2325-26.0176L46.2325-16.2087Q50.2061-13.2943 53.8858-9.28229Q57.5656-5.2703 60.7571 0.0880158ZM87.4939-33.3493Q89.5016-33.3493 90.9416-34.713Q92.3816-36.0768 92.3816-38.112L92.3816-70.2207L82.6061-60.5423L82.6061-38.112Q82.6061-36.0768 84.0461-34.713Q85.4861-33.3493 87.4939-33.3493ZM70.4495-46.6344L75.0133-46.6344L75.0133-50.9481L109.081-85.043Q109.738-85.7289 109.738-86.6292Q109.738-87.5296 109.081-88.215Q108.43-88.8661 107.498-88.8661Q106.567-88.8661 105.881-88.215L71.7301-54.1126Q70.4495-52.8938 70.4495-50.7683ZM14.6494-13.4875Q21.9047-13.4875 29.3468-11.1129Q36.7888-8.73836 43.3829-2.37273Q49.9771 3.9929 54.6086 15.9974Q55.2805 17.6937 56.7277 17.9707Q58.1749 18.2476 59.2969 17.0981Q67.3967 9.02627 77.1788 6.51314Q86.961 4.00001 100.287 7.78017Q101.312 8.00851 101.974 7.67599Q102.635 7.34347 103.051 6.35348Q105.889-0.105322 111.396-3.36611Q116.903-6.62689 123.84-6.62689Q124.754-6.62689 125.405-7.26399Q126.056-7.90109 126.056-8.81535Q126.056-9.72961 125.405-10.3804Q124.754-11.0312 123.84-11.0312Q116.287-11.0312 109.786-7.43121Q103.285-3.8312 99.761 3.04985Q86.6769-0.217415 76.4448 2.26083Q66.2128 4.73908 57.9465 12.3402Q54.0557 3.18135 48.9568-2.71Q43.8579-8.60135 38.0562-11.9175Q32.2545-15.2336 26.2697-16.5665Q20.2848-17.8993 14.6494-17.8993Q13.7351-17.8993 13.098-17.262Q12.4609-16.6247 12.4609-15.676Q12.4609-14.7617 13.098-14.1246Q13.7351-13.4875 14.6494-13.4875Z"/>
  </g>
  <g id="Thin-M" transform="matrix(1 0 0 1 789.834 1126)">
   <path d="M52.4168-38.6592Q56.5504-38.6592 59.4704-41.6107Q62.3903-44.5622 62.3903-48.7082Q62.3903-52.7795 59.4704-55.7057Q56.5504-58.6318 52.4168-58.6318Q48.2708-58.6318 45.3447-55.7057Q42.4185-52.7795 42.4185-48.7082Q42.4185-44.5622 45.3447-41.6107Q48.2708-38.6592 52.4168-38.6592ZM58.4716-0.862538Q60.1388-1.89508 61.9003-2.73532Q63.6618-3.57556 65.4545-4.33483L65.4545-23.4186Q65.4545-24.5525 66.6-24.5525L72.4407-24.5525Q74.3571-24.5525 75.7519-25.9531Q77.1466-27.3536 77.1466-29.2593L77.1466-58.744L67.7339-50.0002L67.7339-33.9038L51.3848-33.9038Q48.2722-33.9038 46.3358-31.9612Q44.3994-30.0185 44.3994-26.9682L44.3994-16.5254Q48.2597-13.7243 51.8152-9.87069Q55.3706-6.01705 58.4716-0.862538ZM84.1445-34.0284Q86.0618-34.0284 87.4565-35.3355Q88.8513-36.6426 88.8513-38.6097L88.8513-69.9716L79.4377-60.6328L79.4377-38.6097Q79.4377-36.6426 80.8325-35.3355Q82.2272-34.0284 84.1445-34.0284ZM67.7339-46.8154L70.9852-46.8154L70.9852-50.6314L104.532-84.2282Q104.963-84.7107 104.963-85.3281Q104.963-85.9456 104.532-86.4272Q104.062-86.8973 103.414-86.8973Q102.765-86.8973 102.282-86.4272L68.7879-53.0715Q67.7339-52.079 67.7339-50.2025ZM13.9931-14.2795Q21.0675-14.2795 28.3283-11.9502Q35.5892-9.62086 42.0476-3.42499Q48.506 2.77087 53.0018 14.5039Q53.5608 15.9059 54.6118 16.1036Q55.6628 16.3012 56.5814 15.3327Q64.4773 7.48751 74.0559 5.00822Q83.6345 2.52893 96.5985 6.24142Q97.4424 6.40169 97.8551 6.20491Q98.2678 6.00813 98.615 5.17669Q101.431-1.21405 106.882-4.44099Q112.332-7.66794 119.133-7.66794Q119.776-7.66794 120.245-8.11265Q120.715-8.55735 120.715-9.20014Q120.715-9.84292 120.245-10.3126Q119.776-10.7822 119.133-10.7822Q111.874-10.7822 105.713-7.29528Q99.5509-3.80838 96.2531 2.8913Q83.3728-0.3984 73.435 2.06844Q63.4972 4.53528 55.5025 12.1364Q51.7926 3.18135 46.9313-2.58548Q42.0701-8.3523 36.5173-11.578Q30.9644-14.8036 25.206-16.08Q19.4476-17.3564 13.9931-17.3564Q13.3504-17.3564 12.9056-16.9112Q12.4609-16.4661 12.4609-15.8117Q12.4609-15.1689 12.9056-14.7242Q13.3504-14.2795 13.9931-14.2795Z"/>
  </g>
  <g id="Ultralight-M" transform="matrix(1 0 0 1 494.491 1126)">
   <path d="M50.9564-39.227Q55.0088-39.227 57.8765-42.1265Q60.7443-45.0259 60.7443-49.0792Q60.7443-53.0693 57.8765-55.9375Q55.0088-58.8057 50.9564-58.8057Q46.9031-58.8057 44.0349-55.9375Q41.1667-53.0693 41.1667-49.0792Q41.1667-45.0259 44.0349-42.1265Q46.9031-39.227 50.9564-39.227ZM57.301-1.34941Q58.9217-2.34708 60.6368-3.15841Q62.3519-3.96973 64.0982-4.71731L64.0982-23.9633Q64.0982-25.0857 65.2206-25.0857L70.9571-25.0857Q72.827-25.0857 74.1986-26.4573Q75.5702-27.8288 75.5702-29.6998L75.5702-58.9294L66.343-49.9654L66.343-34.2516L50.3184-34.2516Q47.2638-34.2516 45.3622-32.3495Q43.4605-30.4474 43.4605-27.4551L43.4605-16.6877Q47.2628-13.9446 50.7546-10.1721Q54.2463-6.39954 57.301-1.34941ZM82.429-34.3762Q84.2999-34.3762 85.6715-35.6543Q87.043-36.9324 87.043-38.8646L87.043-69.8441L77.8149-60.6792L77.8149-38.8646Q77.8149-36.9324 79.1865-35.6543Q80.5581-34.3762 82.429-34.3762ZM66.343-46.9081L68.9221-46.9081L68.9221-50.4692L102.202-83.8108Q102.517-84.1892 102.517-84.6617Q102.517-85.1342 102.202-85.5115Q101.825-85.8889 101.321-85.8889Q100.818-85.8889 100.439-85.5115L67.281-52.5383Q66.343-51.6616 66.343-49.9128ZM13.657-14.6852Q20.6387-14.6852 27.8067-12.379Q34.9748-10.0729 41.3636-3.96396Q47.7525 2.14495 52.1788 13.7389Q52.6799 14.9902 53.528 15.1473Q54.3761 15.3043 55.1905 14.4285Q62.982 6.69937 72.4563 4.23741Q81.9306 1.77545 94.7091 5.45327Q95.4603 5.57869 95.7455 5.45143Q96.0307 5.32417 96.343 4.57395Q99.1477-1.78193 104.569-4.99154Q109.99-8.20116 116.722-8.20116Q117.226-8.20116 117.603-8.54732Q117.979-8.89349 117.979-9.39722Q117.979-9.90095 117.603-10.2778Q117.226-10.6546 116.722-10.6546Q109.614-10.6546 103.626-7.22566Q97.6383-3.7967 94.4563 2.81009Q81.6804-0.4911 71.8934 1.9699Q62.1063 4.43089 54.2506 12.0321Q50.6334 3.18135 45.8939-2.5217Q41.1544-8.22474 35.729-11.404Q30.3037-14.5834 24.6612-15.8308Q19.0187-17.0783 13.657-17.0783Q13.1533-17.0783 12.8071-16.7316Q12.4609-16.3849 12.4609-15.8812Q12.4609-15.3775 12.8071-15.0313Q13.1533-14.6852 13.657-14.6852Z"/>
  </g>
  <g id="Black-S" transform="matrix(1 0 0 1 2872.98 696)">
   <path d="M47.4609-37.793Q51.5137-37.793 54.3701-40.6738Q57.2266-43.5547 57.2266-47.5586Q57.2266-51.6113 54.3701-54.4678Q51.5137-57.3242 47.4609-57.3242Q43.457-57.3242 40.5762-54.4678Q37.6953-51.6113 37.6953-47.5586Q37.6953-43.5547 40.5762-40.6738Q43.457-37.793 47.4609-37.793ZM53.1738-5.27344Q54.834-6.25 56.5186-7.10449Q58.2031-7.95898 60.0098-8.59375L60.0098-23.6328Q60.0098-24.1211 60.5469-24.1211L65.2344-24.1211Q67.3828-24.1211 68.8721-25.6348Q70.3613-27.1484 70.3613-29.248L70.3613-56.2012L60.1074-49.0723L60.1074-34.375L46.4844-34.375Q43.3594-34.375 41.333-32.373Q39.3066-30.3711 39.3066-27.2461L39.3066-20.166Q43.1152-17.627 46.6553-13.9404Q50.1953-10.2539 53.1738-5.27344ZM77.9785-34.9609Q80.0781-34.9609 81.6162-36.4258Q83.1543-37.8906 83.1543-40.0391L83.1543-69.3848L72.8516-59.1797L72.8516-40.0391Q72.8516-37.8906 74.3896-36.4258Q75.9277-34.9609 77.9785-34.9609ZM60.1074-43.5547L68.0176-43.5547L68.0176-48.4375L95.9473-76.3184Q97.1191-77.4902 97.1191-79.126Q97.1191-80.7617 95.9473-81.9336Q94.7754-83.1055 93.1396-83.1055Q91.5039-83.1055 90.332-81.9336L61.7676-53.3203Q60.1074-51.5625 60.1074-49.0723ZM13.6719-14.8926Q19.7266-14.8926 25.7324-12.9883Q31.7383-11.084 37.0117-5.9082Q42.2852-0.732422 46.0449 9.08203Q46.9727 11.4746 49.3408 11.9385Q51.709 12.4023 53.3691 10.7422Q59.9609 4.10156 67.7246 2.12402Q75.4883 0.146484 86.5234 3.27148Q88.0859 3.66211 89.3555 3.02734Q90.625 2.39258 91.1621 0.927734Q93.4082-4.10156 97.5342-6.54297Q101.66-8.98438 107.178-8.98438Q108.789-8.98438 109.937-10.1318Q111.084-11.2793 111.084-12.8906Q111.084-14.502 109.937-15.6494Q108.789-16.7969 107.178-16.7969Q100.635-16.7969 94.7998-13.7695Q88.9648-10.7422 85.498-5.07812Q75.1953-7.37305 66.7725-5.51758Q58.3496-3.66211 51.4648 1.9043Q47.9492-5.46875 43.4082-10.2539Q38.8672-15.0391 33.8135-17.7734Q28.7598-20.5078 23.6084-21.6064Q18.457-22.7051 13.6719-22.7051Q12.0605-22.7051 10.9131-21.5576Q9.76562-20.4102 9.76562-18.7988Q9.76562-17.1387 10.9131-16.0156Q12.0605-14.8926 13.6719-14.8926Z"/>
  </g>
  <g id="Heavy-S" transform="matrix(1 0 0 1 2577.11 696)">
   <path d="M47.1267-37.3666Q51.0527-37.3666 53.8169-40.1552Q56.5812-42.9439 56.5812-46.8441Q56.5812-50.7585 53.8169-53.5285Q51.0527-56.2985 47.1267-56.2985Q43.2265-56.2985 40.4379-53.5285Q37.6492-50.7585 37.6492-46.8441Q37.6492-42.9439 40.4379-40.1552Q43.2265-37.3666 47.1267-37.3666ZM52.3786-5.59612Q53.9927-6.56116 55.6427-7.3926Q57.2927-8.22405 59.0417-8.85881L59.0417-23.7481Q59.0417-24.3401 59.6825-24.3401L64.4277-24.3401Q66.4609-24.3401 67.8752-25.7788Q69.2896-27.2176 69.2896-29.2019L69.2896-55.4521L59.5658-48.5652L59.5658-34.0523L45.8736-34.0523Q42.8638-34.0523 40.9297-32.131Q38.9955-30.2098 38.9955-27.2115L38.9955-20.1314Q42.6658-17.627 46.0791-14.0326Q49.4923-10.4383 52.3786-5.59612ZM76.5149-34.523Q78.5108-34.523 79.9625-35.9072Q81.4141-37.2914 81.4141-39.3245L81.4141-67.852L71.653-58.1886L71.653-39.3245Q71.653-37.2914 73.1047-35.9072Q74.5563-34.523 76.5149-34.523ZM59.5658-43.6584L66.7499-43.6584L66.7499-48.2992L94.5067-76.0187Q95.5749-77.0869 95.5749-78.567Q95.5749-80.0472 94.5067-81.1154Q93.4501-82.172 91.9642-82.172Q90.4782-82.172 89.4101-81.1154L61.1222-52.7787Q59.5658-51.1591 59.5658-48.8072ZM13.3031-15.4919Q19.3117-15.4919 25.3175-13.5876Q31.3234-11.6833 36.6026-6.51324Q41.8818-1.34322 45.6416 8.43666Q46.5002 10.6448 48.6666 11.0684Q50.8331 11.4919 52.355 9.97005Q58.9353 3.35247 66.722 1.36917Q74.5087-0.61413 85.4862 2.48782Q86.9104 2.84387 88.059 2.26673Q89.2075 1.68959 89.71 0.351511Q91.9561-4.70083 96.1397-7.17681Q100.323-9.65279 105.852-9.65279Q107.314-9.65279 108.352-10.6908Q109.39-11.7288 109.39-13.1903Q109.39-14.6518 108.352-15.6897Q107.314-16.7277 105.852-16.7277Q99.3901-16.7277 93.6531-13.7234Q87.9161-10.7191 84.5646-5.07812Q74.2273-7.43067 65.8332-5.55215Q57.4392-3.67363 50.589 1.98497Q47.1425-5.38808 42.6764-10.1617Q38.2103-14.9353 33.22-17.6582Q28.2296-20.381 23.1359-21.4797Q18.0422-22.5783 13.3031-22.5783Q11.8416-22.5783 10.8036-21.5403Q9.76562-20.5024 9.76562-19.0293Q9.76562-17.5305 10.8036-16.5112Q11.8416-15.4919 13.3031-15.4919Z"/>
  </g>
  <g id="Bold-S" transform="matrix(1 0 0 1 2281.35 696)">
   <path d="M46.7529-36.8896Q50.5371-36.8896 53.1982-39.5752Q55.8594-42.2607 55.8594-46.0449Q55.8594-49.8047 53.1982-52.478Q50.5371-55.1514 46.7529-55.1514Q42.9688-55.1514 40.2832-52.478Q37.5977-49.8047 37.5977-46.0449Q37.5977-42.2607 40.2832-39.5752Q42.9688-36.8896 46.7529-36.8896ZM51.4893-5.95703Q53.0518-6.90918 54.6631-7.71484Q56.2744-8.52051 57.959-9.15527L57.959-23.877Q57.959-24.585 58.7158-24.585L63.5254-24.585Q65.4297-24.585 66.7603-25.9399Q68.0908-27.2949 68.0908-29.1504L68.0908-54.6143L58.96-47.998L58.96-33.6914L45.1904-33.6914Q42.3096-33.6914 40.4785-31.8604Q38.6475-30.0293 38.6475-27.1729L38.6475-20.0928Q42.1631-17.627 45.4346-14.1357Q48.7061-10.6445 51.4893-5.95703ZM74.8779-34.0332Q76.7578-34.0332 78.1128-35.3271Q79.4678-36.6211 79.4678-38.5254L79.4678-66.1377L70.3125-57.0801L70.3125-38.5254Q70.3125-36.6211 71.6675-35.3271Q73.0225-34.0332 74.8779-34.0332ZM58.96-43.7744L65.332-43.7744L65.332-48.1445L92.8955-75.6836Q93.8477-76.6357 93.8477-77.9419Q93.8477-79.248 92.8955-80.2002Q91.9678-81.1279 90.6494-81.1279Q89.3311-81.1279 88.3789-80.2002L60.4004-52.1729Q58.96-50.708 58.96-48.5107ZM12.8906-16.1621Q18.8477-16.1621 24.8535-14.2578Q30.8594-12.3535 36.145-7.18994Q41.4307-2.02637 45.1904 7.71484Q45.9717 9.7168 47.9126 10.0952Q49.8535 10.4736 51.2207 9.10645Q57.7881 2.51465 65.6006 0.524902Q73.4131-1.46484 84.3262 1.61133Q85.5957 1.92871 86.6089 1.41602Q87.6221 0.90332 88.0859-0.292969Q90.332-5.37109 94.5801-7.88574Q98.8281-10.4004 104.37-10.4004Q105.664-10.4004 106.58-11.3159Q107.495-12.2314 107.495-13.5254Q107.495-14.8193 106.58-15.7349Q105.664-16.6504 104.37-16.6504Q97.998-16.6504 92.3706-13.6719Q86.7432-10.6934 83.5205-5.07812Q73.1445-7.49512 64.7827-5.59082Q56.4209-3.68652 49.6094 2.0752Q46.2402-5.29785 41.8579-10.0586Q37.4756-14.8193 32.5562-17.5293Q27.6367-20.2393 22.6074-21.3379Q17.5781-22.4365 12.8906-22.4365Q11.5967-22.4365 10.6812-21.521Q9.76562-20.6055 9.76562-19.2871Q9.76562-17.9688 10.6812-17.0654Q11.5967-16.1621 12.8906-16.1621Z"/>
  </g>
  <g id="Semibold-S" transform="matrix(1 0 0 1 1985.29 696)">
   <path d="M46.4952-36.5608Q50.1816-36.5608 52.7717-39.1753Q55.3617-41.7897 55.3617-45.4939Q55.3617-49.1471 52.7717-51.7538Q50.1816-54.3604 46.4952-54.3604Q42.791-54.3604 40.1766-51.7538Q37.5621-49.1471 37.5621-45.4939Q37.5621-41.7897 40.1766-39.1753Q42.791-36.5608 46.4952-36.5608ZM50.8761-6.20586Q52.403-7.14912 53.9877-7.93701Q55.5724-8.7249 57.2125-9.35967L57.2125-23.9658Q57.2125-24.7538 58.0493-24.7538L62.9033-24.7538Q64.7188-24.7538 65.9916-26.051Q67.2644-27.3482 67.2644-29.1148L67.2644-54.0366L58.5423-47.607L58.5423-33.4426L44.7194-33.4426Q41.9274-33.4426 40.1675-31.6737Q38.4075-29.9049 38.4075-27.1462L38.4075-20.0661Q41.8165-17.627 44.9902-14.2068Q48.164-10.7867 50.8761-6.20586ZM73.7493-33.6955Q75.5492-33.6955 76.8375-34.9272Q78.1259-36.159 78.1259-37.9744L78.1259-64.9558L69.3883-56.3158L69.3883-37.9744Q69.3883-36.159 70.6766-34.9272Q71.9649-33.6955 73.7493-33.6955ZM58.5423-43.8544L64.3545-43.8544L64.3545-48.0379L91.7847-75.4525Q92.6568-76.3247 92.6568-77.5109Q92.6568-78.6971 91.7847-79.5692Q90.9458-80.4081 89.743-80.4081Q88.5401-80.4081 87.668-79.5692L59.9027-51.7552Q58.5423-50.397 58.5423-48.3063ZM12.6062-16.6242Q18.5277-16.6242 24.5336-14.7199Q30.5395-12.8156 35.8295-7.65649Q41.1196-2.49736 44.8794 7.21719Q45.6073 9.07695 47.3927 9.42427Q49.1781 9.77158 50.4387 8.51104Q56.9972 1.93701 64.8274-0.0571777Q72.6577-2.05137 83.5264 1.00703Q84.6893 1.29775 85.6091 0.829492Q86.529 0.36123 86.9662-0.737305Q89.2123-5.8332 93.5048-8.37451Q97.7973-10.9158 103.348-10.9158Q104.527-10.9158 105.358-11.7469Q106.189-12.578 106.189-13.7564Q106.189-14.9349 105.358-15.766Q104.527-16.5971 103.348-16.5971Q97.0383-16.5971 91.4864-13.6363Q85.9345-10.6756 82.8007-5.07812Q72.398-7.53955 64.0584-5.61748Q55.7188-3.69541 48.934 2.1374Q45.6182-5.23564 41.2936-9.9875Q36.969-14.7394 32.0985-17.4404Q27.2279-20.1415 22.2431-21.2401Q17.2582-22.3388 12.6062-22.3388Q11.4278-22.3388 10.5967-21.5077Q9.76562-20.6766 9.76562-19.4648Q9.76562-18.2709 10.5967-17.4476Q11.4278-16.6242 12.6062-16.6242Z"/>
  </g>
  <g id="Medium-S" transform="matrix(1 0 0 1 1689.07 696)">
   <path d="M46.2998-36.3115Q49.9121-36.3115 52.4482-38.8721Q54.9844-41.4326 54.9844-45.0762Q54.9844-48.6484 52.4482-51.2046Q49.9121-53.7607 46.2998-53.7607Q42.6562-53.7607 40.0957-51.2046Q37.5352-48.6484 37.5352-45.0762Q37.5352-41.4326 40.0957-38.8721Q42.6562-36.3115 46.2998-36.3115ZM50.4111-6.39453Q51.9111-7.33105 53.4756-8.10547Q55.04-8.87988 56.6465-9.51465L56.6465-24.0332Q56.6465-24.8818 57.5439-24.8818L62.4316-24.8818Q64.1797-24.8818 65.4087-26.1353Q66.6377-27.3887 66.6377-29.0879L66.6377-53.5986L58.2256-47.3105L58.2256-33.2539L44.3623-33.2539Q41.6377-33.2539 39.9316-31.5322Q38.2256-29.8105 38.2256-27.126L38.2256-20.0459Q41.5537-17.627 44.6533-14.2607Q47.7529-10.8945 50.4111-6.39453ZM72.8936-33.4395Q74.6328-33.4395 75.8706-34.624Q77.1084-35.8086 77.1084-37.5566L77.1084-64.0596L68.6875-55.7363L68.6875-37.5566Q68.6875-35.8086 69.9253-34.624Q71.1631-33.4395 72.8936-33.4395ZM58.2256-43.915L63.6133-43.915L63.6133-47.957L90.9424-75.2773Q91.7539-76.0889 91.7539-77.1841Q91.7539-78.2793 90.9424-79.0908Q90.1709-79.8623 89.0557-79.8623Q87.9404-79.8623 87.1289-79.0908L59.5254-51.4385Q58.2256-50.1611 58.2256-48.1514ZM12.3906-16.9746Q18.2852-16.9746 24.291-15.0703Q30.2969-13.166 35.5903-8.01025Q40.8838-2.85449 44.6436 6.83984Q45.3311 8.5918 46.9985 8.91553Q48.666 9.23926 49.8457 8.05957Q56.3975 1.49902 64.2412-0.498535Q72.085-2.49609 82.9199 0.548828Q84.002 0.819336 84.8511 0.384766Q85.7002-0.0498047 86.1172-1.07422Q88.3633-6.18359 92.6895-8.74512Q97.0156-11.3066 102.573-11.3066Q103.664-11.3066 104.431-12.0737Q105.198-12.8408 105.198-13.9316Q105.198-15.0225 104.431-15.7896Q103.664-16.5566 102.573-16.5566Q96.3105-16.5566 90.8159-13.6094Q85.3213-10.6621 82.2549-5.07812Q71.832-7.57324 63.5093-5.6377Q55.1865-3.70215 48.4219 2.18457Q45.1465-5.18848 40.8657-9.93359Q36.585-14.6787 31.7515-17.373Q26.918-20.0674 21.9668-21.166Q17.0156-22.2646 12.3906-22.2646Q11.2998-22.2646 10.5327-21.4976Q9.76562-20.7305 9.76562-19.5996Q9.76562-18.5 10.5327-17.7373Q11.2998-16.9746 12.3906-16.9746Z"/>
  </g>
  <g id="Regular-S" transform="matrix(1 0 0 1 1393.01 696)">
   <path d="M46.0449-35.9863Q49.5605-35.9863 52.0264-38.4766Q54.4922-40.9668 54.4922-44.5312Q54.4922-47.998 52.0264-50.4883Q49.5605-52.9785 46.0449-52.9785Q42.4805-52.9785 39.9902-50.4883Q37.5-47.998 37.5-44.5312Q37.5-40.9668 39.9902-38.4766Q42.4805-35.9863 46.0449-35.9863ZM49.8047-6.64062Q51.2695-7.56836 52.8076-8.3252Q54.3457-9.08203 55.9082-9.7168L55.9082-24.1211Q55.9082-25.0488 56.8848-25.0488L61.8164-25.0488Q63.4766-25.0488 64.6484-26.2451Q65.8203-27.4414 65.8203-29.0527L65.8203-53.0273L57.8125-46.9238L57.8125-33.0078L43.8965-33.0078Q41.2598-33.0078 39.624-31.3477Q37.9883-29.6875 37.9883-27.0996L37.9883-20.0195Q41.2109-17.627 44.2139-14.3311Q47.2168-11.0352 49.8047-6.64062ZM71.7773-33.1055Q73.4375-33.1055 74.6094-34.2285Q75.7812-35.3516 75.7812-37.0117L75.7812-62.8906L67.7734-54.9805L67.7734-37.0117Q67.7734-35.3516 68.9453-34.2285Q70.1172-33.1055 71.7773-33.1055ZM57.8125-43.9941L62.6465-43.9941L62.6465-47.8516L89.8438-75.0488Q90.5762-75.7812 90.5762-76.7578Q90.5762-77.7344 89.8438-78.4668Q89.1602-79.1504 88.1592-79.1504Q87.1582-79.1504 86.4258-78.4668L59.0332-51.0254Q57.8125-49.8535 57.8125-47.9492ZM12.1094-17.4316Q17.9688-17.4316 23.9746-15.5273Q29.9805-13.623 35.2783-8.47168Q40.5762-3.32031 44.3359 6.34766Q44.9707 7.95898 46.4844 8.25195Q47.998 8.54492 49.0723 7.4707Q55.6152 0.927734 63.4766-1.07422Q71.3379-3.07617 82.1289-0.0488281Q83.1055 0.195312 83.8623-0.195312Q84.6191-0.585938 85.0098-1.51367Q87.2559-6.64062 91.626-9.22852Q95.9961-11.8164 101.562-11.8164Q102.539-11.8164 103.223-12.5Q103.906-13.1836 103.906-14.1602Q103.906-15.1367 103.223-15.8203Q102.539-16.5039 101.562-16.5039Q95.3613-16.5039 89.9414-13.5742Q84.5215-10.6445 81.543-5.07812Q71.0938-7.61719 62.793-5.66406Q54.4922-3.71094 47.7539 2.24609Q44.5312-5.12695 40.3076-9.86328Q36.084-14.5996 31.2988-17.2852Q26.5137-19.9707 21.6064-21.0693Q16.6992-22.168 12.1094-22.168Q11.1328-22.168 10.4492-21.4844Q9.76562-20.8008 9.76562-19.7754Q9.76562-18.7988 10.4492-18.1152Q11.1328-17.4316 12.1094-17.4316Z"/>
  </g>
  <g id="Light-S" transform="matrix(1 0 0 1 1098.08 696)">
   <path d="M44.1378-36.7279Q47.5474-36.7279 49.9451-39.1501Q52.3427-41.5723 52.3427-45.0157Q52.3427-48.3765 49.9451-50.791Q47.5474-53.2056 44.1378-53.2056Q40.6944-53.2056 38.2799-50.791Q35.8653-48.3765 35.8653-45.0157Q35.8653-41.5723 38.2799-39.1501Q40.6944-36.7279 44.1378-36.7279ZM48.276-7.27641Q49.6801-8.15862 51.1576-8.87769Q52.6352-9.59676 54.1372-10.2163L54.1372-24.8324Q54.1372-25.7451 55.0835-25.7451L59.879-25.7451Q61.4784-25.7451 62.62-26.9035Q63.7616-28.0619 63.7616-29.628L63.7616-53.2694L55.9962-46.8783L55.9962-33.462L42.5039-33.462Q39.9429-33.462 38.3526-31.8548Q36.7622-30.2475 36.7622-27.7354L36.7622-20.2314Q39.9091-17.9146 42.8289-14.7246Q45.7486-11.5346 48.276-7.27641ZM69.5371-33.5597Q71.1367-33.5597 72.2783-34.6448Q73.42-35.73 73.42-37.3446L73.42-62.724L65.6542-55.041L65.6542-37.3446Q65.6542-35.73 66.7959-34.6448Q67.9375-33.5597 69.5371-33.5597ZM55.9962-44.1152L59.9523-44.1152L59.9523-47.6397L86.8014-74.5038Q87.3823-75.1002 87.3823-75.8876Q87.3823-76.6749 86.8014-77.271Q86.2389-77.8336 85.4271-77.8336Q84.6153-77.8336 84.019-77.271L57.0653-50.3291Q55.9962-49.3085 55.9962-47.5708ZM11.6704-17.9614Q17.4088-17.9614 23.2934-16.0873Q29.1781-14.2133 34.3852-9.17549Q39.5922-4.13767 43.2612 5.34871Q43.8204 6.7632 45.0691 7.00315Q46.3178 7.24309 47.256 6.28993Q53.6626-0.101471 61.3878-2.08079Q69.1129-4.06011 79.6616-1.07803Q80.5171-0.879415 81.1075-1.17925Q81.6978-1.47909 82.0429-2.30077Q84.274-7.3822 88.6063-9.94746Q92.9385-12.5127 98.4141-12.5127Q99.2091-12.5127 99.7715-13.0676Q100.334-13.6225 100.334-14.4175Q100.334-15.2125 99.7715-15.7749Q99.2091-16.3373 98.4141-16.3373Q92.4098-16.3373 87.2168-13.4833Q82.0239-10.6293 79.1967-5.18417Q68.8838-7.73824 60.7798-5.79274Q52.6759-3.84725 46.1192 2.10978Q43.0176-5.12695 38.9529-9.77999Q34.8882-14.433 30.2695-17.0581Q25.6508-19.6831 20.895-20.7439Q16.1392-21.8048 11.6704-21.8048Q10.8754-21.8048 10.3205-21.2498Q9.76562-20.6947 9.76562-19.8662Q9.76562-19.0712 10.3205-18.5163Q10.8754-17.9614 11.6704-17.9614Z"/>
  </g>
  <g id="Thin-S" transform="matrix(1 0 0 1 803.735 696)">
   <path d="M41.6155-37.7087Q44.8849-37.7087 47.1924-40.0409Q49.4999-42.3732 49.4999-45.6565Q49.4999-48.877 47.1924-51.1915Q44.8849-53.506 41.6155-53.506Q38.3322-53.506 36.0177-51.1915Q33.7032-48.877 33.7032-45.6565Q33.7032-42.3732 36.0177-40.0409Q38.3322-37.7087 41.6155-37.7087ZM46.2542-8.11728Q47.5779-8.93929 48.9754-9.60841Q50.3729-10.2775 51.7948-10.8769L51.7948-25.7732Q51.7948-26.6661 52.7011-26.6661L57.3167-26.6661Q58.8357-26.6661 59.9373-27.7743Q61.0389-28.8826 61.0389-30.3888L61.0389-53.5897L53.594-46.8181L53.594-34.0627L40.662-34.0627Q38.2013-34.0627 36.671-32.5254Q35.1407-30.9881 35.1407-28.5763L35.1407-20.5116Q38.1873-18.295 40.9971-15.2451Q43.8069-12.1952 46.2542-8.11728ZM66.5742-34.1604Q68.0938-34.1604 69.1954-35.1954Q70.2969-36.2305 70.2969-37.7849L70.2969-62.5037L62.8514-55.121L62.8514-37.7849Q62.8514-36.2305 63.953-35.1954Q65.0546-34.1604 66.5742-34.1604ZM53.594-44.2753L56.389-44.2753L56.389-47.3595L82.7777-73.783Q83.158-74.1995 83.158-74.7366Q83.158-75.2737 82.7777-75.6895Q82.3752-76.0919 81.8137-76.0919Q81.2522-76.0919 80.8357-75.6895L54.4627-49.4082Q53.594-48.5877 53.594-47.0703ZM11.0899-18.662Q16.6681-18.662 22.3925-16.828Q28.1169-14.994 33.2039-10.1063Q38.2909-5.2187 41.8398 4.02753Q42.2991 5.18169 43.1973 5.3515Q44.0955 5.52132 44.8538 4.72826Q51.0801-1.46268 58.6252-3.41206Q66.1702-5.36145 76.3983-2.43924Q77.0937-2.30083 77.4639-2.48059Q77.8342-2.66035 78.1191-3.34177Q80.3303-8.363 84.6124-10.8983Q88.8946-13.4336 94.2501-13.4336Q94.8049-13.4336 95.2071-13.8184Q95.6092-14.2031 95.6092-14.7579Q95.6092-15.3127 95.2071-15.7149Q94.8049-16.117 94.2501-16.117Q88.5061-16.117 83.6133-13.3631Q78.7206-10.6091 76.0935-5.32443Q65.9609-7.89834 58.1173-5.96294Q50.2737-4.02753 43.9571 1.9295Q41.0156-5.12695 37.1612-9.66984Q33.3067-14.2127 28.9081-16.7577Q24.5096-19.3027 19.9541-20.3136Q15.3986-21.3245 11.0899-21.3245Q10.5351-21.3245 10.1503-20.9395Q9.76562-20.5545 9.76562-19.9863Q9.76562-19.4314 10.1503-19.0467Q10.5351-18.662 11.0899-18.662Z"/>
  </g>
  <g id="Ultralight-S" transform="matrix(1 0 0 1 508.234 696)">
   <path d="M40.3236-38.2111Q43.5211-38.2111 45.7825-40.4972Q48.0438-42.7834 48.0438-45.9846Q48.0438-49.1333 45.7825-51.3966Q43.5211-53.6598 40.3236-53.6598Q37.1223-53.6598 34.8591-51.3966Q32.5958-49.1333 32.5958-45.9846Q32.5958-42.7834 34.8591-40.4972Q37.1223-38.2111 40.3236-38.2111ZM45.2187-8.54797Q46.5012-9.33914 47.8577-9.98268Q49.2142-10.6262 50.5951-11.2152L50.5951-26.255Q50.5951-27.1378 51.4809-27.1378L56.0043-27.1378Q57.4821-27.1378 58.5632-28.2204Q59.6443-29.303 59.6443-30.7785L59.6443-53.7537L52.3636-46.7873L52.3636-34.3704L39.7186-34.3704Q37.3093-34.3704 35.8097-32.869Q34.3102-31.3675 34.3102-29.007L34.3102-20.6551Q37.3055-18.4898 40.0589-15.5117Q42.8123-12.5336 45.2187-8.54797ZM65.0566-34.4681Q66.5352-34.4681 67.6163-35.4774Q68.6974-36.4868 68.6974-38.0104L68.6974-62.3909L61.4159-55.162L61.4159-38.0104Q61.4159-36.4868 62.4969-35.4774Q63.578-34.4681 65.0566-34.4681ZM52.3636-44.3573L54.5639-44.3573L54.5639-47.216L80.7167-73.4138Q80.9944-73.7381 80.9944-74.147Q80.9944-74.556 80.7167-74.8795Q80.3963-75.1999 79.9629-75.1999Q79.5296-75.1999 79.2053-74.8795L53.1296-48.9365Q52.3636-48.2185 52.3636-46.814ZM10.7925-19.0208Q16.2888-19.0208 21.9311-17.2073Q27.5734-15.3938 32.5989-10.5831Q37.6244-5.7724 41.1118 3.35083Q41.5199 4.37164 42.2386 4.50554Q42.9573 4.63943 43.6234 3.92838Q49.7574-2.15988 57.2102-4.09393Q64.6629-6.02798 74.7269-3.13644Q75.3403-3.02887 75.5978-3.14713Q75.8553-3.26538 76.1093-3.87497Q78.3104-8.86536 82.5668-11.3853Q86.8233-13.9053 92.1173-13.9053Q92.5491-13.9053 92.8692-14.2029Q93.1892-14.5004 93.1892-14.9323Q93.1892-15.3641 92.8692-15.6841Q92.5491-16.0042 92.1173-16.0042Q86.5067-16.0042 81.7677-13.3015Q77.0287-10.5988 74.5041-5.39627Q64.4638-7.98035 56.7535-6.05011Q49.0433-4.11987 42.8497 1.83716Q39.9902-5.12695 36.2434-9.61342Q32.4966-14.0999 28.2108-16.6039Q23.925-19.1078 19.4721-20.0932Q15.0192-21.0785 10.7925-21.0785Q10.3607-21.0785 10.0632-20.7806Q9.76562-20.4826 9.76562-20.0478Q9.76562-19.6159 10.0632-19.3184Q10.3607-19.0208 10.7925-19.0208Z"/>
  </g>
 </g>
</svg>
