<?xml version="1.0" encoding="UTF-8"?>
<!--Generator: Apple Native CoreSVG 175.5-->
<!DOCTYPE svg
PUBLIC "-//W3C//DTD SVG 1.1//EN"
       "http://www.w3.org/Graphics/SVG/1.1/DTD/svg11.dtd">
<svg version="1.1" xmlns="http://www.w3.org/2000/svg" xmlns:xlink="http://www.w3.org/1999/xlink" width="3300" height="2200">
 <!--glyph: "uni101428.medium", point size: 100.0, font version: "18.0d9e1", template writer version: "84"-->
 <g id="Notes">
  <rect height="2200" id="artboard" style="fill:white;opacity:1" width="3300" x="0" y="0"/>
  <line style="fill:none;stroke:black;opacity:1;stroke-width:0.5;" x1="263" x2="3036" y1="292" y2="292"/>
  <text style="stroke:none;fill:black;font-family:sans-serif;font-size:13;font-weight:bold;" transform="matrix(1 0 0 1 263 322)">Weight/Scale Variations</text>
  <text style="stroke:none;fill:black;font-family:sans-serif;font-size:13;text-anchor:middle;" transform="matrix(1 0 0 1 559.711 322)">Ultralight</text>
  <text style="stroke:none;fill:black;font-family:sans-serif;font-size:13;text-anchor:middle;" transform="matrix(1 0 0 1 856.422 322)">Thin</text>
  <text style="stroke:none;fill:black;font-family:sans-serif;font-size:13;text-anchor:middle;" transform="matrix(1 0 0 1 1153.13 322)">Light</text>
  <text style="stroke:none;fill:black;font-family:sans-serif;font-size:13;text-anchor:middle;" transform="matrix(1 0 0 1 1449.84 322)">Regular</text>
  <text style="stroke:none;fill:black;font-family:sans-serif;font-size:13;text-anchor:middle;" transform="matrix(1 0 0 1 1746.56 322)">Medium</text>
  <text style="stroke:none;fill:black;font-family:sans-serif;font-size:13;text-anchor:middle;" transform="matrix(1 0 0 1 2043.27 322)">Semibold</text>
  <text style="stroke:none;fill:black;font-family:sans-serif;font-size:13;text-anchor:middle;" transform="matrix(1 0 0 1 2339.98 322)">Bold</text>
  <text style="stroke:none;fill:black;font-family:sans-serif;font-size:13;text-anchor:middle;" transform="matrix(1 0 0 1 2636.69 322)">Heavy</text>
  <text style="stroke:none;fill:black;font-family:sans-serif;font-size:13;text-anchor:middle;" transform="matrix(1 0 0 1 2933.4 322)">Black</text>
  <line style="fill:none;stroke:black;opacity:1;stroke-width:0.5;" x1="263" x2="3036" y1="1903" y2="1903"/>
  <g transform="matrix(1 0 0 1 263 1933)">
   <path d="M9.24805 0.830078Q10.8691 0.830078 12.2949 0.214844Q13.7207-0.400391 14.8096-1.49414Q15.8984-2.58789 16.5186-4.01367Q17.1387-5.43945 17.1387-7.05078Q17.1387-8.66211 16.5186-10.0879Q15.8984-11.5137 14.8047-12.6074Q13.7109-13.7012 12.2852-14.3164Q10.8594-14.9316 9.23828-14.9316Q7.62695-14.9316 6.20117-14.3164Q4.77539-13.7012 3.69141-12.6074Q2.60742-11.5137 1.9873-10.0879Q1.36719-8.66211 1.36719-7.05078Q1.36719-5.43945 1.9873-4.01367Q2.60742-2.58789 3.69629-1.49414Q4.78516-0.400391 6.21094 0.214844Q7.63672 0.830078 9.24805 0.830078ZM9.24805-0.654297Q7.91992-0.654297 6.7627-1.14746Q5.60547-1.64062 4.73145-2.51953Q3.85742-3.39844 3.36426-4.56055Q2.87109-5.72266 2.87109-7.05078Q2.87109-8.37891 3.35938-9.54102Q3.84766-10.7031 4.72168-11.582Q5.5957-12.4609 6.75293-12.9541Q7.91016-13.4473 9.23828-13.4473Q10.5762-13.4473 11.7383-12.9541Q12.9004-12.4609 13.7793-11.582Q14.6582-10.7031 15.1514-9.54102Q15.6445-8.37891 15.6445-7.05078Q15.6445-5.72266 15.1514-4.56055Q14.6582-3.39844 13.7793-2.51953Q12.9004-1.64062 11.7432-1.14746Q10.5859-0.654297 9.24805-0.654297ZM5.6543-7.05078Q5.6543-6.72852 5.85938-6.52832Q6.06445-6.32812 6.40625-6.32812L8.51562-6.32812L8.51562-4.20898Q8.51562-3.88672 8.71094-3.67676Q8.90625-3.4668 9.23828-3.4668Q9.56055-3.4668 9.77051-3.67676Q9.98047-3.88672 9.98047-4.20898L9.98047-6.32812L12.0898-6.32812Q12.4219-6.32812 12.627-6.52832Q12.832-6.72852 12.832-7.05078Q12.832-7.38281 12.627-7.58789Q12.4219-7.79297 12.0898-7.79297L9.98047-7.79297L9.98047-9.90234Q9.98047-10.2344 9.77051-10.4443Q9.56055-10.6543 9.23828-10.6543Q8.90625-10.6543 8.71094-10.4443Q8.51562-10.2344 8.51562-9.90234L8.51562-7.79297L6.40625-7.79297Q6.06445-7.79297 5.85938-7.58789Q5.6543-7.38281 5.6543-7.05078Z"/>
  </g>
  <g transform="matrix(1 0 0 1 281.867 1933)">
   <path d="M11.709 2.91016Q13.75 2.91016 15.5518 2.12891Q17.3535 1.34766 18.7305-0.0292969Q20.1074-1.40625 20.8887-3.20801Q21.6699-5.00977 21.6699-7.05078Q21.6699-9.0918 20.8887-10.8936Q20.1074-12.6953 18.7305-14.0723Q17.3535-15.4492 15.5469-16.2305Q13.7402-17.0117 11.6992-17.0117Q9.6582-17.0117 7.85645-16.2305Q6.05469-15.4492 4.68262-14.0723Q3.31055-12.6953 2.5293-10.8936Q1.74805-9.0918 1.74805-7.05078Q1.74805-5.00977 2.5293-3.20801Q3.31055-1.40625 4.6875-0.0292969Q6.06445 1.34766 7.86621 2.12891Q9.66797 2.91016 11.709 2.91016ZM11.709 1.25Q9.98047 1.25 8.47656 0.605469Q6.97266-0.0390625 5.83496-1.17676Q4.69727-2.31445 4.05762-3.81836Q3.41797-5.32227 3.41797-7.05078Q3.41797-8.7793 4.05762-10.2832Q4.69727-11.7871 5.83008-12.9297Q6.96289-14.0723 8.4668-14.7119Q9.9707-15.3516 11.6992-15.3516Q13.4277-15.3516 14.9365-14.7119Q16.4453-14.0723 17.583-12.9297Q18.7207-11.7871 19.3652-10.2832Q20.0098-8.7793 20.0098-7.05078Q20.0098-5.32227 19.3701-3.81836Q18.7305-2.31445 17.5879-1.17676Q16.4453-0.0390625 14.9414 0.605469Q13.4375 1.25 11.709 1.25ZM7.17773-7.05078Q7.17773-6.69922 7.41211-6.47461Q7.64648-6.25 8.01758-6.25L10.8887-6.25L10.8887-3.36914Q10.8887-2.99805 11.1133-2.76855Q11.3379-2.53906 11.6895-2.53906Q12.0605-2.53906 12.29-2.76855Q12.5195-2.99805 12.5195-3.36914L12.5195-6.25L15.4004-6.25Q15.7715-6.25 16.001-6.47461Q16.2305-6.69922 16.2305-7.05078Q16.2305-7.42188 16.001-7.65137Q15.7715-7.88086 15.4004-7.88086L12.5195-7.88086L12.5195-10.752Q12.5195-11.1328 12.29-11.3623Q12.0605-11.5918 11.6895-11.5918Q11.3379-11.5918 11.1133-11.3574Q10.8887-11.123 10.8887-10.752L10.8887-7.88086L8.01758-7.88086Q7.63672-7.88086 7.40723-7.65137Q7.17773-7.42188 7.17773-7.05078Z"/>
  </g>
  <g transform="matrix(1 0 0 1 305.646 1933)">
   <path d="M14.9707 5.66406Q17.0605 5.66406 18.96 5.01465Q20.8594 4.36523 22.4512 3.19336Q24.043 2.02148 25.2197 0.429688Q26.3965-1.16211 27.0459-3.06641Q27.6953-4.9707 27.6953-7.05078Q27.6953-9.14062 27.0459-11.04Q26.3965-12.9395 25.2197-14.5312Q24.043-16.123 22.4512-17.2998Q20.8594-18.4766 18.9551-19.126Q17.0508-19.7754 14.9609-19.7754Q12.8711-19.7754 10.9717-19.126Q9.07227-18.4766 7.48535-17.2998Q5.89844-16.123 4.72168-14.5312Q3.54492-12.9395 2.90039-11.04Q2.25586-9.14062 2.25586-7.05078Q2.25586-4.9707 2.90527-3.06641Q3.55469-1.16211 4.72656 0.429688Q5.89844 2.02148 7.49023 3.19336Q9.08203 4.36523 10.9814 5.01465Q12.8809 5.66406 14.9707 5.66406ZM14.9707 3.84766Q13.1641 3.84766 11.5283 3.2959Q9.89258 2.74414 8.53516 1.74805Q7.17773 0.751953 6.17676-0.610352Q5.17578-1.97266 4.62891-3.6084Q4.08203-5.24414 4.08203-7.05078Q4.08203-8.86719 4.62891-10.5029Q5.17578-12.1387 6.17188-13.501Q7.16797-14.8633 8.52539-15.8594Q9.88281-16.8555 11.5186-17.4023Q13.1543-17.9492 14.9609-17.9492Q16.7773-17.9492 18.4131-17.4023Q20.0488-16.8555 21.4111-15.8594Q22.7734-14.8633 23.7744-13.501Q24.7754-12.1387 25.3223-10.5029Q25.8691-8.86719 25.8691-7.05078Q25.8691-5.24414 25.3223-3.6084Q24.7754-1.97266 23.7793-0.610352Q22.7832 0.751953 21.4209 1.74805Q20.0586 2.74414 18.4229 3.2959Q16.7871 3.84766 14.9707 3.84766ZM9.19922-7.05078Q9.19922-6.66992 9.45801-6.4209Q9.7168-6.17188 10.1172-6.17188L14.0625-6.17188L14.0625-2.2168Q14.0625-1.81641 14.3115-1.55762Q14.5605-1.29883 14.9512-1.29883Q15.3516-1.29883 15.6104-1.55273Q15.8691-1.80664 15.8691-2.2168L15.8691-6.17188L19.8242-6.17188Q20.2246-6.17188 20.4785-6.4209Q20.7324-6.66992 20.7324-7.05078Q20.7324-7.46094 20.4785-7.71484Q20.2246-7.96875 19.8242-7.96875L15.8691-7.96875L15.8691-11.9141Q15.8691-12.3242 15.6104-12.583Q15.3516-12.8418 14.9512-12.8418Q14.5605-12.8418 14.3115-12.583Q14.0625-12.3242 14.0625-11.9141L14.0625-7.96875L10.1172-7.96875Q9.70703-7.96875 9.45312-7.71484Q9.19922-7.46094 9.19922-7.05078Z"/>
  </g>
  <text style="stroke:none;fill:black;font-family:sans-serif;font-size:13;font-weight:bold;" transform="matrix(1 0 0 1 263 1953)">Design Variations</text>
  <text style="stroke:none;fill:black;font-family:sans-serif;font-size:13;" transform="matrix(1 0 0 1 263 1971)">Symbols are supported in up to nine weights and three scales.</text>
  <text style="stroke:none;fill:black;font-family:sans-serif;font-size:13;" transform="matrix(1 0 0 1 263 1989)">For optimal layout with text and other symbols, vertically align</text>
  <text style="stroke:none;fill:black;font-family:sans-serif;font-size:13;" transform="matrix(1 0 0 1 263 2007)">symbols with the adjacent text.</text>
  <line style="fill:none;stroke:#00AEEF;stroke-width:0.5;opacity:1.0;" x1="776" x2="776" y1="1919" y2="1933"/>
  <g transform="matrix(1 0 0 1 776 1933)">
   <path d="M3.31055 0.15625Q3.70117 0.15625 3.91602-0.00976562Q4.13086-0.175781 4.26758-0.585938L5.52734-4.0332L11.2891-4.0332L12.5488-0.585938Q12.6855-0.175781 12.9004-0.00976562Q13.1152 0.15625 13.4961 0.15625Q13.8867 0.15625 14.1162-0.0585938Q14.3457-0.273438 14.3457-0.644531Q14.3457-0.869141 14.2383-1.17188L9.6582-13.3691Q9.48242-13.8184 9.17969-14.043Q8.87695-14.2676 8.4082-14.2676Q7.5-14.2676 7.17773-13.3789L2.59766-1.16211Q2.49023-0.859375 2.49023-0.634766Q2.49023-0.263672 2.70996-0.0537109Q2.92969 0.15625 3.31055 0.15625ZM6.00586-5.51758L8.37891-12.0898L8.42773-12.0898L10.8008-5.51758Z"/>
  </g>
  <line style="fill:none;stroke:#00AEEF;stroke-width:0.5;opacity:1.0;" x1="793.197" x2="793.197" y1="1919" y2="1933"/>
  <text style="stroke:none;fill:black;font-family:sans-serif;font-size:13;font-weight:bold;" transform="matrix(1 0 0 1 776 1953)">Margins</text>
  <text style="stroke:none;fill:black;font-family:sans-serif;font-size:13;" transform="matrix(1 0 0 1 776 1971)">Leading and trailing margins on the left and right side of each symbol</text>
  <text style="stroke:none;fill:black;font-family:sans-serif;font-size:13;" transform="matrix(1 0 0 1 776 1989)">can be adjusted by modifying the x-location of the margin guidelines.</text>
  <text style="stroke:none;fill:black;font-family:sans-serif;font-size:13;" transform="matrix(1 0 0 1 776 2007)">Modifications are automatically applied proportionally to all</text>
  <text style="stroke:none;fill:black;font-family:sans-serif;font-size:13;" transform="matrix(1 0 0 1 776 2025)">scales and weights.</text>
  <g transform="matrix(1 0 0 1 1289 1933)">
   <path d="M2.8418 1.86523L4.54102 3.57422Q5.18555 4.22852 5.90332 4.17969Q6.62109 4.13086 7.31445 3.35938L18.0078-8.42773L17.041-9.4043L6.42578 2.27539Q6.16211 2.57812 5.89355 2.61719Q5.625 2.65625 5.27344 2.30469L4.10156 1.14258Q3.75 0.791016 3.79395 0.522461Q3.83789 0.253906 4.14062-0.0195312L15.6152-10.8203L14.6387-11.7871L3.04688-0.898438Q2.30469-0.214844 2.25098 0.498047Q2.19727 1.21094 2.8418 1.86523ZM9.25781-16.3281Q8.94531-16.0254 8.90625-15.6348Q8.86719-15.2441 9.04297-14.9512Q9.21875-14.6777 9.55566-14.541Q9.89258-14.4043 10.3809-14.5215Q11.4746-14.7754 12.5977-14.7314Q13.7207-14.6875 14.7949-13.9844L14.209-12.5293Q13.9551-11.9043 14.0674-11.4404Q14.1797-10.9766 14.5801-10.5664L16.875-8.25195Q17.2363-7.88086 17.5781-7.82227Q17.9199-7.76367 18.3398-7.8418L19.4043-8.03711L20.0684-7.36328L20.0293-6.80664Q20-6.43555 20.1221-6.12305Q20.2441-5.81055 20.6055-5.44922L21.3672-4.70703Q21.7285-4.3457 22.1533-4.33105Q22.5781-4.31641 22.9297-4.66797L25.8398-7.58789Q26.1914-7.93945 26.1816-8.35449Q26.1719-8.76953 25.8105-9.13086L25.0391-9.89258Q24.6875-10.2539 24.3799-10.3857Q24.0723-10.5176 23.7109-10.4883L23.1348-10.4395L22.4902-11.0742L22.7344-12.1973Q22.832-12.6172 22.6953-12.9834Q22.5586-13.3496 22.1191-13.7891L19.9219-15.9766Q18.6719-17.2168 17.2607-17.8369Q15.8496-18.457 14.4189-18.4814Q12.9883-18.5059 11.665-17.959Q10.3418-17.4121 9.25781-16.3281ZM10.752-15.957Q11.6602-16.6211 12.7002-16.9043Q13.7402-17.1875 14.8047-17.085Q15.8691-16.9824 16.8701-16.5137Q17.8711-16.0449 18.7012-15.2051L21.1328-12.793Q21.3086-12.6172 21.3525-12.4512Q21.3965-12.2852 21.3379-12.0312L21.0156-10.5469L22.5195-9.0625L23.5059-9.12109Q23.6914-9.13086 23.7891-9.09668Q23.8867-9.0625 24.0332-8.91602L24.6094-8.33984L22.168-5.89844L21.5918-6.47461Q21.4453-6.62109 21.4062-6.71875Q21.3672-6.81641 21.377-7.01172L21.4453-7.98828L19.9512-9.47266L18.4277-9.21875Q18.1836-9.16992 18.042-9.2041Q17.9004-9.23828 17.7148-9.41406L15.7129-11.416Q15.5176-11.5918 15.4932-11.7529Q15.4688-11.9141 15.5859-12.1875L16.4648-14.2773Q15.293-15.3711 13.8281-15.791Q12.3633-16.2109 10.8398-15.7617Q10.7227-15.7324 10.6885-15.8057Q10.6543-15.8789 10.752-15.957Z"/>
  </g>
  <text style="stroke:none;fill:black;font-family:sans-serif;font-size:13;font-weight:bold;" transform="matrix(1 0 0 1 1289 1953)">Exporting</text>
  <text style="stroke:none;fill:black;font-family:sans-serif;font-size:13;" transform="matrix(1 0 0 1 1289 1971)">Symbols should be outlined when exporting to ensure the</text>
  <text style="stroke:none;fill:black;font-family:sans-serif;font-size:13;" transform="matrix(1 0 0 1 1289 1989)">design is preserved when submitting to Xcode.</text>
  <text id="template-version" style="stroke:none;fill:black;font-family:sans-serif;font-size:13;text-anchor:end;" transform="matrix(1 0 0 1 3036 1933)">Template v.2.0</text>
  <text style="stroke:none;fill:black;font-family:sans-serif;font-size:13;text-anchor:end;" transform="matrix(1 0 0 1 3036 1951)">Requires Xcode 12 or greater</text>
  <text id="descriptive-name" style="stroke:none;fill:black;font-family:sans-serif;font-size:13;text-anchor:end;" transform="matrix(1 0 0 1 3036 1969)">Generated from microwave</text>
  <text style="stroke:none;fill:black;font-family:sans-serif;font-size:13;text-anchor:end;" transform="matrix(1 0 0 1 3036 1987)">Typeset at 100 points</text>
  <text style="stroke:none;fill:black;font-family:sans-serif;font-size:13;" transform="matrix(1 0 0 1 263 726)">Small</text>
  <text style="stroke:none;fill:black;font-family:sans-serif;font-size:13;" transform="matrix(1 0 0 1 263 1156)">Medium</text>
  <text style="stroke:none;fill:black;font-family:sans-serif;font-size:13;" transform="matrix(1 0 0 1 263 1586)">Large</text>
 </g>
 <g id="Guides">
  <g id="H-reference" style="fill:#27AAE1;stroke:none;" transform="matrix(1 0 0 1 339 696)">
   <path d="M0.993347 0L3.6377 0L29.3282-67.1326L30.0301-67.1326L30.0301-70.459L28.1227-70.459ZM11.6882-24.4797L46.9818-24.4797L46.2311-26.7288L12.4382-26.7288ZM55.1193 0L57.7637 0L30.6381-70.459L29.4327-70.459L29.4327-67.1326Z"/>
  </g>
  <line id="Baseline-S" style="fill:none;stroke:#27AAE1;opacity:1;stroke-width:0.5;" x1="263" x2="3036" y1="696" y2="696"/>
  <line id="Capline-S" style="fill:none;stroke:#27AAE1;opacity:1;stroke-width:0.5;" x1="263" x2="3036" y1="625.541" y2="625.541"/>
  <g id="H-reference" style="fill:#27AAE1;stroke:none;" transform="matrix(1 0 0 1 339 1126)">
   <path d="M0.993347 0L3.6377 0L29.3282-67.1326L30.0301-67.1326L30.0301-70.459L28.1227-70.459ZM11.6882-24.4797L46.9818-24.4797L46.2311-26.7288L12.4382-26.7288ZM55.1193 0L57.7637 0L30.6381-70.459L29.4327-70.459L29.4327-67.1326Z"/>
  </g>
  <line id="Baseline-M" style="fill:none;stroke:#27AAE1;opacity:1;stroke-width:0.5;" x1="263" x2="3036" y1="1126" y2="1126"/>
  <line id="Capline-M" style="fill:none;stroke:#27AAE1;opacity:1;stroke-width:0.5;" x1="263" x2="3036" y1="1055.54" y2="1055.54"/>
  <g id="H-reference" style="fill:#27AAE1;stroke:none;" transform="matrix(1 0 0 1 339 1556)">
   <path d="M0.993347 0L3.6377 0L29.3282-67.1326L30.0301-67.1326L30.0301-70.459L28.1227-70.459ZM11.6882-24.4797L46.9818-24.4797L46.2311-26.7288L12.4382-26.7288ZM55.1193 0L57.7637 0L30.6381-70.459L29.4327-70.459L29.4327-67.1326Z"/>
  </g>
  <line id="Baseline-L" style="fill:none;stroke:#27AAE1;opacity:1;stroke-width:0.5;" x1="263" x2="3036" y1="1556" y2="1556"/>
  <line id="Capline-L" style="fill:none;stroke:#27AAE1;opacity:1;stroke-width:0.5;" x1="263" x2="3036" y1="1485.54" y2="1485.54"/>
  <line id="left-margin" style="fill:none;stroke:#00AEEF;stroke-width:0.5;opacity:1.0;" x1="1379.45" x2="1379.45" y1="1030.79" y2="1150.12"/>
  <line id="right-margin" style="fill:none;stroke:#00AEEF;stroke-width:0.5;opacity:1.0;" x1="1520.24" x2="1520.24" y1="1030.79" y2="1150.12"/>
 </g>
 <g id="Symbols">
  <g id="Black-L" transform="matrix(1 0 0 1 2834.61 1556)">
   <path d="M35.1973 21.3342L162.33 21.3342Q170.834 21.3342 176.168 15.9188Q181.502 10.5034 181.502 1.97578L181.502-72.3556Q181.502-80.8831 176.168-86.2986Q170.834-91.714 162.33-91.714L35.1973-91.714Q26.7521-91.714 21.418-86.2986Q16.084-80.8831 16.084-72.3556L16.084 1.97578Q16.084 10.5034 21.418 15.9188Q26.7521 21.3342 35.1973 21.3342ZM37.4352 3.0846Q36.0872 3.0846 35.2292 2.21199Q34.3712 1.33938 34.3712-0.0365454L34.3712-70.3432Q34.3712-71.7191 35.2292-72.5917Q36.0872-73.4644 37.4352-73.4644L160.656-73.4644Q161.849-73.4644 162.521-72.767Q163.194-72.0696 163.194-70.9273L163.194 0.54752Q163.194 1.68982 162.521 2.38721Q161.849 3.0846 160.656 3.0846ZM47.5014-5.85922L106.123-5.85922Q108.528-5.85922 109.982-7.3532Q111.436-8.84718 111.436-11.1942L111.436-59.1856Q111.436-61.6118 109.982-63.0662Q108.528-64.5205 106.123-64.5205L47.5014-64.5205Q45.0752-64.5205 43.6209-63.0662Q42.1665-61.6118 42.1665-59.1856L42.1665-11.1942Q42.1665-8.84718 43.6209-7.3532Q45.0752-5.85922 47.5014-5.85922ZM54.136-16.7433Q52.9934-16.7433 52.9934-17.9079L52.9934-52.4718Q52.9934-53.6365 54.136-53.6365L99.409-53.6365Q100.61-53.6365 100.61-52.4718L100.61-17.9079Q100.61-16.7433 99.409-16.7433ZM119.461 5.51101L130.851 5.51101L130.851-75.97L119.461-75.97ZM125.278-8.94924L167.036-8.94924L167.036-20.4186L125.278-20.4186ZM137.88-52.4769L154.493-52.4769Q155.443-52.4769 156.126-53.1595Q156.808-53.842 156.808-54.7334L156.808-62.2057Q156.808-63.1555 156.126-63.838Q155.443-64.5205 154.493-64.5205L137.88-64.5205Q136.932-64.5205 136.249-63.838Q135.565-63.1555 135.565-62.2057L135.565-54.7334Q135.565-52.4769 137.88-52.4769ZM140.068-40.394L152.305-40.394Q154.25-40.394 155.529-41.6731Q156.808-42.9522 156.808-44.8966Q156.808-46.8411 155.529-48.1196Q154.25-49.3981 152.305-49.3981L140.068-49.3981Q138.065-49.3981 136.815-48.1196Q135.565-46.8411 135.565-44.8966Q135.565-42.9522 136.815-41.6731Q138.065-40.394 140.068-40.394ZM140.068-28.2329L152.305-28.2329Q154.25-28.2329 155.529-29.4828Q156.808-30.7327 156.808-32.7148Q156.808-34.6593 155.529-35.9086Q154.25-37.1579 152.305-37.1579L140.068-37.1579Q138.065-37.1579 136.815-35.9086Q135.565-34.6593 135.565-32.7148Q135.565-30.7327 136.815-29.4828Q138.065-28.2329 140.068-28.2329Z"/>
  </g>
  <g id="Heavy-L" transform="matrix(1 0 0 1 2539.91 1556)">
   <path d="M34.1008 19.3488L159.413 19.3488Q167.448 19.3488 172.461 14.2642Q177.474 9.17967 177.474 1.12635L177.474-71.5106Q177.474-79.5639 172.461-84.6484Q167.448-89.733 159.413-89.733L34.1008-89.733Q26.1101-89.733 21.0971-84.6484Q16.084-79.5639 16.084-71.5106L16.084 1.12635Q16.084 9.17967 21.0971 14.2642Q26.1101 19.3488 34.1008 19.3488ZM35.8155 3.1569Q34.2551 3.1569 33.2727 2.13973Q32.2903 1.12257 32.2903-0.501611L32.2903-69.8826Q32.2903-71.5068 33.2727-72.5239Q34.2551-73.541 35.8155-73.541L158.114-73.541Q159.571-73.541 160.404-72.6578Q161.238-71.7745 161.238-70.3288L161.238-0.0553845Q161.238 1.3903 160.404 2.2736Q159.571 3.1569 158.114 3.1569ZM45.5415-5.47292L104.86-5.47292Q107.333-5.47292 108.823-7.00329Q110.314-8.53367 110.314-10.9623L110.314-59.4219Q110.314-61.9253 108.823-63.4183Q107.333-64.9113 104.86-64.9113L45.5415-64.9113Q43.0382-64.9113 41.5452-63.4183Q40.0522-61.9253 40.0522-59.4219L40.0522-10.9623Q40.0522-8.53367 41.5452-7.00329Q43.0382-5.47292 45.5415-5.47292ZM51.1911-15.3521Q49.8924-15.3521 49.8924-16.6866L49.8924-53.6975Q49.8924-55.0322 51.1911-55.0322L99.1356-55.0322Q100.479-55.0322 100.479-53.6975L100.479-16.6866Q100.479-15.3521 99.1356-15.3521ZM118.413 6.05217L128.669 6.05217L128.669-76.5112L118.413-76.5112ZM123.708-9.88885L165.324-9.88885L165.324-20.2199L123.708-20.2199ZM135.817-52.7368L152.831-52.7368Q153.671-52.7368 154.275-53.3413Q154.88-53.9458 154.88-54.7407L154.88-62.8627Q154.88-63.7022 154.275-64.3068Q153.671-64.9113 152.831-64.9113L135.817-64.9113Q134.984-64.9113 134.376-64.3068Q133.769-63.7022 133.769-62.8627L133.769-54.7407Q133.769-52.7368 135.817-52.7368ZM137.931-41.0791L150.717-41.0791Q152.526-41.0791 153.703-42.2559Q154.88-43.4327 154.88-45.2414Q154.88-47.0502 153.703-48.2242Q152.526-49.3982 150.717-49.3982L137.931-49.3982Q136.078-49.3982 134.923-48.2242Q133.769-47.0502 133.769-45.2414Q133.769-43.4327 134.923-42.2559Q136.078-41.0791 137.931-41.0791ZM137.931-29.3522L150.717-29.3522Q152.526-29.3522 153.703-30.5067Q154.88-31.6612 154.88-33.4844Q154.88-35.2932 153.703-36.4448Q152.526-37.5965 150.717-37.5965L137.931-37.5965Q136.078-37.5965 134.923-36.4448Q133.769-35.2932 133.769-33.4844Q133.769-31.6612 134.923-30.5067Q136.078-29.3522 137.931-29.3522Z"/>
  </g>
  <g id="Bold-L" transform="matrix(1 0 0 1 2245.71 1556)">
   <path d="M32.711 16.8601L155.801 16.8601Q163.238 16.8601 167.848 12.1791Q172.458 7.49819 172.458 0.0288959L172.458-70.4208Q172.458-77.8901 167.848-82.571Q163.238-87.252 155.801-87.252L32.711-87.252Q25.3037-87.252 20.6938-82.571Q16.084-77.8901 16.084-70.4208L16.084 0.0288959Q16.084 7.49819 20.6938 12.1791Q25.3037 16.8601 32.711 16.8601ZM33.8323 3.25652Q31.9808 3.25652 30.8298 2.04017Q29.6789 0.823819 29.6789-1.14498L29.6789-69.2469Q29.6789-71.2157 30.8298-72.432Q31.9808-73.6482 33.8323-73.6482L154.934-73.6482Q156.736-73.6482 157.78-72.5196Q158.825-71.3909 158.825-69.539L158.825-0.852949Q158.825 0.999039 157.78 2.12778Q156.736 3.25652 154.934 3.25652ZM43.1805-5.11574L103.091-5.11574Q105.657-5.11574 107.193-6.69218Q108.729-8.26863 108.729-10.8046L108.729-59.5873Q108.729-62.1904 107.193-63.7333Q105.657-65.2762 103.091-65.2762L43.1805-65.2762Q40.5774-65.2762 39.0345-63.7333Q37.4916-62.1904 37.4916-59.5873L37.4916-10.8046Q37.4916-8.26863 39.0345-6.69218Q40.5774-5.11574 43.1805-5.11574ZM47.6158-13.7128Q46.0728-13.7128 46.0728-15.307L46.0728-55.0847Q46.0728-56.6791 47.6158-56.6791L98.5888-56.6791Q100.161-56.6791 100.161-55.0847L100.161-15.307Q100.161-13.7128 98.5888-13.7128ZM116.973 6.53441L125.808 6.53441L125.808-76.9934L116.973-76.9934ZM121.585-10.9747L163.039-10.9747L163.039-19.8772L121.585-19.8772ZM133.162-52.8509L150.675-52.8509Q151.391-52.8509 151.907-53.3667Q152.423-53.8826 152.423-54.5695L152.423-63.5281Q152.423-64.2443 151.907-64.7602Q151.391-65.2762 150.675-65.2762L133.162-65.2762Q132.459-65.2762 131.936-64.7602Q131.414-64.2443 131.414-63.5281L131.414-54.5695Q131.414-52.8509 133.162-52.8509ZM135.131-41.768L148.706-41.768Q150.331-41.768 151.377-42.8143Q152.423-43.8606 152.423-45.4853Q152.423-47.1102 151.377-48.1498Q150.331-49.1894 148.706-49.1894L135.131-49.1894Q133.477-49.1894 132.446-48.1498Q131.414-47.1102 131.414-45.4853Q131.414-43.8606 132.446-42.8143Q133.477-41.768 135.131-41.768ZM135.131-30.6311L148.706-30.6311Q150.331-30.6311 151.377-31.6628Q152.423-32.6945 152.423-34.3105Q152.423-35.9354 151.377-36.9604Q150.331-37.9855 148.706-37.9855L135.131-37.9855Q133.477-37.9855 132.446-36.9604Q131.414-35.9354 131.414-34.3105Q131.414-32.6945 132.446-31.6628Q133.477-30.6311 135.131-30.6311Z"/>
  </g>
  <g id="Semibold-L" transform="matrix(1 0 0 1 1950.73 1556)">
   <path d="M31.7528 15.1444L153.311 15.1444Q160.335 15.1444 164.667 10.7417Q168.999 6.33898 168.999-0.72768L168.999-69.6695Q168.999-76.7362 164.667-81.1389Q160.335-85.5416 153.311-85.5416L31.7528-85.5416Q24.7477-85.5416 20.4158-81.1389Q16.084-76.7362 16.084-69.6695L16.084-0.72768Q16.084 6.33898 20.4158 10.7417Q24.7477 15.1444 31.7528 15.1444ZM32.4652 3.3252Q30.4129 3.3252 29.1457 1.97153Q27.8785 0.617865 27.8785-1.58852L27.8785-68.8087Q27.8785-71.0151 29.1457-72.3686Q30.4129-73.7221 32.4652-73.7221L152.742-73.7221Q154.781-73.7221 155.971-72.4243Q157.161-71.1265 157.161-68.9944L157.161-1.40279Q157.161 0.729305 155.971 2.02725Q154.781 3.3252 152.742 3.3252ZM41.5528-4.8695L101.872-4.8695Q104.501-4.8695 106.069-6.47771Q107.637-8.08591 107.637-10.6959L107.637-59.7013Q107.637-62.3731 106.069-63.9504Q104.501-65.5277 101.872-65.5277L41.5528-65.5277Q38.881-65.5277 37.3037-63.9504Q35.7263-62.3731 35.7263-59.7013L35.7263-10.6959Q35.7263-8.08591 37.3037-6.47771Q38.881-4.8695 41.5528-4.8695ZM45.1509-12.5827Q43.4396-12.5827 43.4396-14.3559L43.4396-56.041Q43.4396-57.8145 45.1509-57.8145L98.2118-57.8145Q99.9421-57.8145 99.9421-56.041L99.9421-14.3559Q99.9421-12.5827 98.2118-12.5827ZM115.98 6.86686L123.835 6.86686L123.835-77.3258L115.98-77.3258ZM120.122-11.7233L161.464-11.7233L161.464-19.6409L120.122-19.6409ZM131.331-52.9295L149.189-52.9295Q149.82-52.9295 150.275-53.3843Q150.73-53.839 150.73-54.4515L150.73-63.9868Q150.73-64.6179 150.275-65.0728Q149.82-65.5277 149.189-65.5277L131.331-65.5277Q130.719-65.5277 130.255-65.0728Q129.79-64.6179 129.79-63.9868L129.79-54.4515Q129.79-52.9295 131.331-52.9295ZM133.201-42.2429L147.319-42.2429Q148.817-42.2429 149.773-43.1992Q150.73-44.1555 150.73-45.6534Q150.73-47.1515 149.773-48.0985Q148.817-49.0456 147.319-49.0456L133.201-49.0456Q131.685-49.0456 130.738-48.0985Q129.79-47.1515 129.79-45.6534Q129.79-44.1555 130.738-43.1992Q131.685-42.2429 133.201-42.2429ZM133.201-31.5127L147.319-31.5127Q148.817-31.5127 149.773-32.4598Q150.73-33.4068 150.73-34.88Q150.73-36.3781 149.773-37.3159Q148.817-38.2536 147.319-38.2536L133.201-38.2536Q131.685-38.2536 130.738-37.3159Q129.79-36.3781 129.79-34.88Q129.79-33.4068 130.738-32.4598Q131.685-31.5127 133.201-31.5127Z"/>
  </g>
  <g id="Medium-L" transform="matrix(1 0 0 1 1655.33 1556)">
   <path d="M31.0263 13.8435L151.423 13.8435Q158.134 13.8435 162.256 9.65175Q166.377 5.46002 166.377-1.30135L166.377-69.0999Q166.377-75.8612 162.256-80.053Q158.134-84.2447 151.423-84.2447L31.0263-84.2447Q24.3262-84.2447 20.2051-80.053Q16.084-75.8612 16.084-69.0999L16.084-1.30135Q16.084 5.46002 20.2051 9.65175Q24.3262 13.8435 31.0263 13.8435ZM31.4285 3.37728Q29.224 3.37728 27.8687 1.91949Q26.5134 0.461702 26.5134-1.92483L26.5134-68.4764Q26.5134-70.8629 27.8687-72.3205Q29.224-73.7781 31.4285-73.7781L151.079-73.7781Q153.299-73.7781 154.599-72.3521Q155.9-70.926 155.9-68.5815L155.9-1.81969Q155.9 0.524781 154.599 1.95103Q153.299 3.37728 151.079 3.37728ZM40.3186-4.6828L100.948-4.6828Q103.624-4.6828 105.216-6.31508Q106.808-7.94737 106.808-10.6135L106.808-59.7877Q106.808-62.5116 105.216-64.115Q103.624-65.7184 100.948-65.7184L40.3186-65.7184Q37.5947-65.7184 35.9913-64.115Q34.3879-62.5116 34.3879-59.7877L34.3879-10.6135Q34.3879-7.94737 35.9913-6.31508Q37.5947-4.6828 40.3186-4.6828ZM43.282-11.7258Q41.443-11.7258 41.443-13.6347L41.443-56.7661Q41.443-58.6754 43.282-58.6754L97.926-58.6754Q99.7759-58.6754 99.7759-56.7661L99.7759-13.6347Q99.7759-11.7258 97.926-11.7258ZM115.227 7.11894L122.34 7.11894L122.34-77.5779L115.227-77.5779ZM119.012-12.291L160.27-12.291L160.27-19.4617L119.012-19.4617ZM129.943-52.9892L148.062-52.9892Q148.628-52.9892 149.037-53.3976Q149.445-53.806 149.445-54.3621L149.445-64.3346Q149.445-64.9013 149.037-65.3098Q148.628-65.7184 148.062-65.7184L129.943-65.7184Q129.399-65.7184 128.979-65.3098Q128.559-64.9013 128.559-64.3346L128.559-54.3621Q128.559-52.9892 129.943-52.9892ZM131.738-42.603L146.267-42.603Q147.669-42.603 148.557-43.4911Q149.445-44.3792 149.445-45.7808Q149.445-47.1828 148.557-48.0596Q147.669-48.9365 146.267-48.9365L131.738-48.9365Q130.325-48.9365 129.442-48.0596Q128.559-47.1828 128.559-45.7808Q128.559-44.3792 129.442-43.4911Q130.325-42.603 131.738-42.603ZM131.738-32.1812L146.267-32.1812Q147.669-32.1812 148.557-33.0641Q149.445-33.947 149.445-35.3118Q149.445-36.7138 148.557-37.5854Q147.669-38.4569 146.267-38.4569L131.738-38.4569Q130.325-38.4569 129.442-37.5854Q128.559-36.7138 128.559-35.3118Q128.559-33.947 129.442-33.0641Q130.325-32.1812 131.738-32.1812Z"/>
  </g>
  <g id="Regular-L" transform="matrix(1 0 0 1 1360.32 1556)">
   <path d="M30.0787 12.1466L148.961 12.1466Q155.264 12.1466 159.11 8.2301Q162.956 4.31355 162.956-2.04961L162.956-68.3568Q162.956-74.72 159.11-78.6365Q155.264-82.5531 148.961-82.5531L30.0787-82.5531Q23.7763-82.5531 19.9301-78.6365Q16.084-74.72 16.084-68.3568L16.084-2.04961Q16.084 4.31355 19.9301 8.2301Q23.7763 12.1466 30.0787 12.1466ZM30.0764 3.44521Q27.6733 3.44521 26.2031 1.85161Q24.7329 0.258011 24.7329-2.36349L24.7329-68.043Q24.7329-70.6645 26.2031-72.2578Q27.6733-73.8512 30.0764-73.8512L148.911-73.8512Q151.366-73.8512 152.81-72.2578Q154.254-70.6645 154.254-68.043L154.254-2.36349Q154.254 0.258011 152.81 1.85161Q151.366 3.44521 148.911 3.44521ZM38.7087-4.43927L99.7417-4.43927Q102.481-4.43927 104.105-6.10296Q105.728-7.76666 105.728-10.506L105.728-59.9005Q105.728-62.6923 104.105-64.3298Q102.481-65.9672 99.7417-65.9672L38.7087-65.9672Q35.9169-65.9672 34.2794-64.3298Q32.642-62.6923 32.642-59.9005L32.642-10.506Q32.642-7.76666 34.2794-6.10296Q35.9169-4.43927 38.7087-4.43927ZM40.8443-10.6081Q38.8387-10.6081 38.8387-12.6941L38.8387-57.7119Q38.8387-59.7983 40.8443-59.7983L97.5532-59.7983Q99.5592-59.7983 99.5592-57.7119L99.5592-12.6941Q99.5592-10.6081 97.5532-10.6081ZM114.245 7.44774L120.389 7.44774L120.389-77.9067L114.245-77.9067ZM117.565-13.0314L158.712-13.0314L158.712-19.2281L117.565-19.2281ZM128.132-53.067L146.591-53.067Q147.074-53.067 147.422-53.4149Q147.77-53.7629 147.77-54.2454L147.77-64.7883Q147.77-65.2708 147.422-65.619Q147.074-65.9672 146.591-65.9672L128.132-65.9672Q127.678-65.9672 127.316-65.619Q126.954-65.2708 126.954-64.7883L126.954-54.2454Q126.954-53.067 128.132-53.067ZM129.829-43.0726L144.895-43.0726Q146.172-43.0726 146.971-43.8718Q147.77-44.6709 147.77-45.9471Q147.77-47.2237 146.971-48.0089Q146.172-48.7941 144.895-48.7941L129.829-48.7941Q128.552-48.7941 127.753-48.0089Q126.954-47.2237 126.954-45.9471Q126.954-44.6709 127.753-43.8718Q128.552-43.0726 129.829-43.0726ZM129.829-33.0532L144.895-33.0532Q146.172-33.0532 146.971-33.8523Q147.77-34.6515 147.77-35.8751Q147.77-37.1517 146.971-37.9369Q146.172-38.7221 144.895-38.7221L129.829-38.7221Q128.552-38.7221 127.753-37.9369Q126.954-37.1517 126.954-35.8751Q126.954-34.6515 127.753-33.8523Q128.552-33.0532 129.829-33.0532Z"/>
  </g>
  <g id="Light-L" transform="matrix(1 0 0 1 1065.44 1556)">
   <path d="M28.9144 10.2381L146.48 10.2381Q152.248 10.2381 155.78 6.56012Q159.311 2.88214 159.311-3.09944L159.311-67.3262Q159.311-73.3078 155.78-76.9858Q152.248-80.6638 146.48-80.6638L28.9144-80.6638Q23.1465-80.6638 19.6153-76.9858Q16.084-73.3078 16.084-67.3262L16.084-3.09944Q16.084 2.88214 19.6153 6.56012Q23.1465 10.2381 28.9144 10.2381ZM28.855 3.57892Q26.07 3.57892 24.3899 1.71806Q22.7099-0.142809 22.7099-3.24144L22.7099-67.1842Q22.7099-70.2829 24.3899-72.1433Q26.07-74.0038 28.855-74.0038L146.507-74.0038Q149.324-74.0038 150.988-72.1433Q152.651-70.2829 152.651-67.1842L152.651-3.24144Q152.651-0.142809 150.988 1.71806Q149.324 3.57892 146.507 3.57892ZM37.5063-4.9738L97.2034-4.9738Q100.057-4.9738 101.719-6.67565Q103.38-8.37751 103.38-11.2313L103.38-59.1944Q103.38-62.0815 101.719-63.7667Q100.057-65.4519 97.2034-65.4519L37.5063-65.4519Q34.6192-65.4519 32.934-63.7667Q31.2488-62.0815 31.2488-59.1944L31.2488-11.2313Q31.2488-8.37751 32.934-6.67565Q34.6192-4.9738 37.5063-4.9738ZM38.8402-10.0165Q36.3386-10.0165 36.3386-12.5985L36.3386-57.8264Q36.3386-60.4092 38.8402-60.4092L95.8354-60.4092Q98.3378-60.4092 98.3378-57.8264L98.3378-12.5985Q98.3378-10.0165 95.8354-10.0165ZM112.337 6.56979L117.392 6.56979L117.392-77.0288L112.337-77.0288ZM114.95-13.2795L156.078-13.2795L156.078-18.3693L114.95-18.3693ZM125.651-51.8074L144.473-51.8074Q144.955-51.8074 145.294-52.1458Q145.633-52.4841 145.633-52.9666L145.633-64.2919Q145.633-64.7744 145.294-65.1132Q144.955-65.4519 144.473-65.4519L125.651-65.4519Q125.216-65.4519 124.854-65.1132Q124.492-64.7744 124.492-64.2919L124.492-52.9666Q124.492-51.8074 125.651-51.8074ZM126.909-42.5192L143.216-42.5192Q144.263-42.5192 144.948-43.2038Q145.633-43.8885 145.633-44.9354Q145.633-45.9831 144.948-46.6442Q144.263-47.3053 143.216-47.3053L126.909-47.3053Q125.861-47.3053 125.177-46.6442Q124.492-45.9831 124.492-44.9354Q124.492-43.8885 125.177-43.2038Q125.861-42.5192 126.909-42.5192ZM126.909-33.244L143.216-33.244Q144.263-33.244 144.948-33.9286Q145.633-34.6133 145.633-35.6269Q145.633-36.6746 144.948-37.3357Q144.263-37.9968 143.216-37.9968L126.909-37.9968Q125.861-37.9968 125.177-37.3357Q124.492-36.6746 124.492-35.6269Q124.492-34.6133 125.177-33.9286Q125.861-33.244 126.909-33.244Z"/>
  </g>
  <g id="Thin-L" transform="matrix(1 0 0 1 771.135 1556)">
   <path d="M27.3745 7.7139L143.198 7.7139Q148.26 7.7139 151.375 4.35144Q154.49 0.988992 154.49-4.48792L154.49-65.9632Q154.49-71.4401 151.375-74.8026Q148.26-78.165 143.198-78.165L27.3745-78.165Q22.3136-78.165 19.1988-74.8026Q16.084-71.4401 16.084-65.9632L16.084-4.48792Q16.084 0.988992 19.1988 4.35144Q22.3136 7.7139 27.3745 7.7139ZM27.2396 3.75577Q23.9496 3.75577 21.9919 1.54142Q20.0343-0.672925 20.0343-4.40261L20.0343-66.0485Q20.0343-69.7782 21.9919-71.9919Q23.9496-74.2057 27.2396-74.2057L143.326-74.2057Q146.623-74.2057 148.577-71.9919Q150.531-69.7782 150.531-66.0485L150.531-4.40261Q150.531-0.672925 148.577 1.54142Q146.623 3.75577 143.326 3.75577ZM35.9159-5.68077L93.8463-5.68077Q96.8515-5.68077 98.5636-7.43309Q100.276-9.1854 100.276-12.1906L100.276-58.2605Q100.276-61.2736 98.5636-63.022Q96.8515-64.7704 93.8463-64.7704L35.9159-64.7704Q32.9029-64.7704 31.1545-63.022Q29.4061-61.2736 29.4061-58.2605L29.4061-12.1906Q29.4061-9.1854 31.1545-7.43309Q32.9029-5.68077 35.9159-5.68077ZM36.1896-9.23404Q33.0319-9.23404 33.0319-12.4721L33.0319-57.9778Q33.0319-61.2171 36.1896-61.2171L93.5636-61.2171Q96.7224-61.2171 96.7224-57.9778L96.7224-12.4721Q96.7224-9.23404 93.5636-9.23404ZM109.813 5.40862L113.429 5.40862L113.429-75.8676L109.813-75.8676ZM111.492-13.6078L152.595-13.6078L152.595-17.2336L111.492-17.2336ZM122.369-50.1416L141.671-50.1416Q142.153-50.1416 142.48-50.4672Q142.806-50.7928 142.806-51.2753L142.806-63.6354Q142.806-64.1179 142.48-64.4442Q142.153-64.7704 141.671-64.7704L122.369-64.7704Q121.959-64.7704 121.598-64.4442Q121.236-64.1179 121.236-63.6354L121.236-51.2753Q121.236-50.1416 122.369-50.1416ZM123.047-41.7872L140.994-41.7872Q141.739-41.7872 142.273-42.3205Q142.806-42.8537 142.806-43.5974Q142.806-44.3423 142.273-44.8393Q141.739-45.3363 140.994-45.3363L123.047-45.3363Q122.302-45.3363 121.769-44.8393Q121.236-44.3423 121.236-43.5974Q121.236-42.8537 121.769-42.3205Q122.302-41.7872 123.047-41.7872ZM123.047-33.4963L140.994-33.4963Q141.739-33.4963 142.273-34.0296Q142.806-34.5628 142.806-35.2987Q142.806-36.0435 142.273-36.5405Q141.739-37.0375 140.994-37.0375L123.047-37.0375Q122.302-37.0375 121.769-36.5405Q121.236-36.0435 121.236-35.2987Q121.236-34.5628 121.769-34.0296Q122.302-33.4963 123.047-33.4963Z"/>
  </g>
  <g id="Ultralight-L" transform="matrix(1 0 0 1 475.659 1556)">
   <path d="M26.5858 6.42101L141.517 6.42101Q146.217 6.42101 149.119 3.22017Q152.021 0.0193296 152.021-5.19909L152.021-65.2651Q152.021-70.4835 149.119-73.6843Q146.217-76.8852 141.517-76.8852L26.5858-76.8852Q21.887-76.8852 18.9855-73.6843Q16.084-70.4835 16.084-65.2651L16.084-5.19909Q16.084 0.0193296 18.9855 3.22017Q21.887 6.42101 26.5858 6.42101ZM26.4122 3.84635Q22.8635 3.84635 20.7636 1.45095Q18.6638-0.944448 18.6638-4.99736L18.6638-65.4668Q18.6638-69.5197 20.7636-71.9144Q22.8635-74.3091 26.4122-74.3091L141.697-74.3091Q145.24-74.3091 147.342-71.9144Q149.444-69.5197 149.444-65.4668L149.444-4.99736Q149.444-0.944448 147.342 1.45095Q145.24 3.84635 141.697 3.84635ZM35.1013-6.04287L92.1268-6.04287Q95.2095-6.04287 96.9475-7.82104Q98.6855-9.5992 98.6855-12.682L98.6855-57.7822Q98.6855-60.8598 96.9475-62.6405Q95.2095-64.4213 92.1268-64.4213L35.1013-64.4213Q32.0238-64.4213 30.243-62.6405Q28.4623-60.8598 28.4623-57.7822L28.4623-12.682Q28.4623-9.5992 30.243-7.82104Q32.0238-6.04287 35.1013-6.04287ZM34.832-8.83327Q31.3383-8.83327 31.3383-12.4074L31.3383-58.0553Q31.3383-61.6309 34.832-61.6309L92.3999-61.6309Q95.8951-61.6309 95.8951-58.0553L95.8951-12.4074Q95.8951-8.83327 92.3999-8.83327ZM108.52 4.81388L111.399 4.81388L111.399-75.2729L108.52-75.2729ZM109.721-13.7759L150.81-13.7759L150.81-16.6519L109.721-16.6519ZM120.689-49.2884L140.236-49.2884Q140.718-49.2884 141.038-49.6074Q141.358-49.9265 141.358-50.4091L141.358-63.2992Q141.358-63.7817 141.038-64.1015Q140.718-64.4213 140.236-64.4213L120.689-64.4213Q120.292-64.4213 119.93-64.1015Q119.568-63.7817 119.568-63.2992L119.568-50.4091Q119.568-49.2884 120.689-49.2884ZM121.069-41.4123L139.857-41.4123Q140.446-41.4123 140.902-41.868Q141.358-42.3237 141.358-42.9121Q141.358-43.5019 140.902-43.9148Q140.446-44.3277 139.857-44.3277L121.069-44.3277Q120.479-44.3277 120.024-43.9148Q119.568-43.5019 119.568-42.9121Q119.568-42.3237 120.024-41.868Q120.479-41.4123 121.069-41.4123ZM121.069-33.6255L139.857-33.6255Q140.446-33.6255 140.902-34.0813Q141.358-34.537 141.358-35.1305Q141.358-35.7203 140.902-36.1332Q140.446-36.5462 139.857-36.5462L121.069-36.5462Q120.479-36.5462 120.024-36.1332Q119.568-35.7203 119.568-35.1305Q119.568-34.537 120.024-34.0813Q120.479-33.6255 121.069-33.6255Z"/>
  </g>
  <g id="Black-M" transform="matrix(1 0 0 1 2855.38 1126)">
   <path d="M28.0534 10.0406L127.935 10.0406Q134.853 10.0406 139.219 5.59296Q143.585 1.14535 143.585-5.81721L143.585-64.5792Q143.585-71.5417 139.219-75.9894Q134.853-80.437 127.935-80.437L28.0534-80.437Q21.1923-80.437 16.8266-75.9894Q12.4609-71.5417 12.4609-64.5792L12.4609-5.81721Q12.4609 1.14535 16.8266 5.59296Q21.1923 10.0406 28.0534 10.0406ZM30.2291-5.58997Q29.3156-5.58997 28.7294-6.178Q28.1431-6.76603 28.1431-7.6833L28.1431-62.7131Q28.1431-63.6304 28.7294-64.2184Q29.3156-64.8064 30.2291-64.8064L126.325-64.8064Q127.073-64.8064 127.485-64.3897Q127.897-63.9729 127.897-63.2841L127.897-7.11234Q127.897-6.42345 127.485-6.00671Q127.073-5.58997 126.325-5.58997ZM38.3228-12.8795L82.9592-12.8795Q84.78-12.8795 85.8801-14.0109Q86.9803-15.1422 86.9803-16.9059L86.9803-53.4905Q86.9803-55.3168 85.8801-56.4168Q84.78-57.5169 82.9592-57.5169L38.3228-57.5169Q36.4966-57.5169 35.3966-56.4168Q34.2965-55.3168 34.2965-53.4905L34.2965-16.9059Q34.2965-15.1422 35.3966-14.0109Q36.4966-12.8795 38.3228-12.8795ZM44.2008-22.023Q43.3826-22.023 43.3826-22.8464L43.3826-47.55Q43.3826-48.3734 44.2008-48.3734L77.0186-48.3734Q77.894-48.3734 77.894-47.55L77.894-22.8464Q77.894-22.023 77.0186-22.023ZM93.1939-4.25016L102.845-4.25016L102.845-66.2088L93.1939-66.2088ZM98.0533-14.0952L130.525-14.0952L130.525-23.8093L98.0533-23.8093ZM108.258-48.1978L120.834-48.1978Q121.664-48.1978 122.259-48.7924Q122.853-49.3869 122.853-50.1604L122.853-55.4972Q122.853-56.3278 122.259-56.9223Q121.664-57.5169 120.834-57.5169L108.258-57.5169Q107.427-57.5169 106.833-56.9223Q106.239-56.3278 106.239-55.4972L106.239-50.1604Q106.239-48.1978 108.258-48.1978ZM109.957-38.5668L119.134-38.5668Q120.727-38.5668 121.79-39.6302Q122.853-40.6935 122.853-42.2856Q122.853-43.8777 121.79-44.9412Q120.727-46.0047 119.134-46.0047L109.957-46.0047Q108.308-46.0047 107.273-44.9412Q106.239-43.8777 106.239-42.2856Q106.239-40.6935 107.273-39.6302Q108.308-38.5668 109.957-38.5668ZM109.957-28.8729L119.134-28.8729Q120.727-28.8729 121.79-29.9077Q122.853-30.9425 122.853-32.5862Q122.853-34.1783 121.79-35.2132Q120.727-36.2482 119.134-36.2482L109.957-36.2482Q108.308-36.2482 107.273-35.2132Q106.239-34.1783 106.239-32.5862Q106.239-30.9425 107.273-29.9077Q108.308-28.8729 109.957-28.8729Z"/>
  </g>
  <g id="Heavy-M" transform="matrix(1 0 0 1 2560.47 1126)">
   <path d="M27.0889 8.27572L125.312 8.27572Q131.822 8.27572 135.903 4.12956Q139.984-0.0165956 139.984-6.55074L139.984-63.8482Q139.984-70.3824 135.903-74.5285Q131.822-78.6747 125.312-78.6747L27.0889-78.6747Q20.6229-78.6747 16.5419-74.5285Q12.4609-70.3824 12.4609-63.8482L12.4609-6.55074Q12.4609-0.0165956 16.5419 4.12956Q20.6229 8.27572 27.0889 8.27572ZM28.7584-5.53163Q27.6725-5.53163 26.984-6.23632Q26.2955-6.941 26.2955-8.05694L26.2955-62.342Q26.2955-63.458 26.984-64.1626Q27.6725-64.8673 28.7584-64.8673L124.062-64.8673Q125.034-64.8673 125.583-64.2935Q126.133-63.7197 126.133-62.7782L126.133-7.62072Q126.133-6.67927 125.583-6.10545Q125.034-5.53163 124.062-5.53163ZM36.5178-12.4526L81.9589-12.4526Q83.8354-12.4526 84.9676-13.616Q86.0999-14.7794 86.0999-16.6123L86.0999-53.7867Q86.0999-55.6796 84.9676-56.813Q83.8354-57.9464 81.9589-57.9464L36.5178-57.9464Q34.6249-57.9464 33.4915-56.813Q32.3581-55.6796 32.3581-53.7867L32.3581-16.6123Q32.3581-14.7794 33.4915-13.616Q34.6249-12.4526 36.5178-12.4526ZM41.5069-20.7175Q40.5818-20.7175 40.5818-21.6613L40.5818-48.7376Q40.5818-49.6814 41.5069-49.6814L76.9098-49.6814Q77.8786-49.6814 77.8786-48.7376L77.8786-21.6613Q77.8786-20.7175 76.9098-20.7175ZM92.3453-3.64015L100.989-3.64015L100.989-66.8188L92.3453-66.8188ZM96.7598-14.9908L129.094-14.9908L129.094-23.6943L96.7598-23.6943ZM106.471-48.5681L119.404-48.5681Q120.127-48.5681 120.646-49.0872Q121.166-49.6064 121.166-50.2855L121.166-56.1853Q121.166-56.9081 120.646-57.4272Q120.127-57.9464 119.404-57.9464L106.471-57.9464Q105.75-57.9464 105.23-57.4272Q104.71-56.9081 104.71-56.1853L104.71-50.2855Q104.71-48.5681 106.471-48.5681ZM108.138-39.2876L117.737-39.2876Q119.218-39.2876 120.192-40.2616Q121.166-41.2355 121.166-42.716Q121.166-44.1966 120.192-45.1694Q119.218-46.1421 117.737-46.1421L108.138-46.1421Q106.614-46.1421 105.662-45.1694Q104.71-44.1966 104.71-42.716Q104.71-41.2355 105.662-40.2616Q106.614-39.2876 108.138-39.2876ZM108.138-29.9494L117.737-29.9494Q119.218-29.9494 120.192-30.9016Q121.166-31.8537 121.166-33.3614Q121.166-34.842 120.192-35.793Q119.218-36.7439 117.737-36.7439L108.138-36.7439Q106.614-36.7439 105.662-35.793Q104.71-34.842 104.71-33.3614Q104.71-31.8537 105.662-30.9016Q106.614-29.9494 108.138-29.9494Z"/>
  </g>
  <g id="Bold-M" transform="matrix(1 0 0 1 2265.77 1126)">
   <path d="M26.01 6.30147L122.378 6.30147Q128.431 6.30147 132.193 2.49254Q135.955-1.3164 135.955-7.37131L135.955-63.0305Q135.955-69.0855 132.193-72.8944Q128.431-76.7033 122.378-76.7033L26.01-76.7033Q19.9859-76.7033 16.2234-72.8944Q12.4609-69.0855 12.4609-63.0305L12.4609-7.37131Q12.4609-1.3164 16.2234 2.49254Q19.9859 6.30147 26.01 6.30147ZM27.1133-5.46637Q25.8345-5.46637 25.0316-6.30155Q24.2288-7.13673 24.2288-8.47491L24.2288-61.9269Q24.2288-63.2651 25.0316-64.1003Q25.8345-64.9354 27.1133-64.9354L121.531-64.9354Q122.753-64.9354 123.456-64.1859Q124.159-63.4364 124.159-62.2124L124.159-8.18943Q124.159-6.96544 123.456-6.21591Q122.753-5.46637 121.531-5.46637ZM34.4987-11.975L80.8399-11.975Q82.7788-11.975 83.9469-13.1742Q85.115-14.3735 85.115-16.2839L85.115-54.118Q85.115-56.0855 83.9469-57.2562Q82.7788-58.4269 80.8399-58.4269L34.4987-58.4269Q32.5312-58.4269 31.3605-57.2562Q30.1898-56.0855 30.1898-54.118L30.1898-16.2839Q30.1898-14.3735 31.3605-13.1742Q32.5312-11.975 34.4987-11.975ZM38.4933-19.2572Q37.4486-19.2572 37.4486-20.3356L37.4486-50.0661Q37.4486-51.1447 38.4933-51.1447L76.788-51.1447Q77.8613-51.1447 77.8613-50.0661L77.8613-20.3356Q77.8613-19.2572 76.788-19.2572ZM91.396-2.95775L98.9117-2.95775L98.9117-67.5012L91.396-67.5012ZM95.3128-15.9927L127.493-15.9927L127.493-23.5656L95.3128-23.5656ZM104.471-48.9822L117.806-48.9822Q118.408-48.9822 118.843-49.417Q119.278-49.8518 119.278-50.4255L119.278-56.955Q119.278-57.5572 118.843-57.992Q118.408-58.4269 117.806-58.4269L104.471-58.4269Q103.874-58.4269 103.436-57.992Q102.999-57.5572 102.999-56.955L102.999-50.4255Q102.999-48.9822 104.471-48.9822ZM106.103-40.094L116.174-40.094Q117.53-40.094 118.404-40.9679Q119.278-41.8418 119.278-43.1975Q119.278-44.5533 118.404-45.4246Q117.53-46.2959 116.174-46.2959L106.103-46.2959Q104.718-46.2959 103.859-45.4246Q102.999-44.5533 102.999-43.1975Q102.999-41.8418 103.859-40.9679Q104.718-40.094 106.103-40.094ZM106.103-31.1538L116.174-31.1538Q117.53-31.1538 118.404-32.0134Q119.278-32.873 119.278-34.2286Q119.278-35.5844 118.404-36.4415Q117.53-37.2985 116.174-37.2985L106.103-37.2985Q104.718-37.2985 103.859-36.4415Q102.999-35.5844 102.999-34.2286Q102.999-32.873 103.859-32.0134Q104.718-31.1538 106.103-31.1538Z"/>
  </g>
  <g id="Semibold-M" transform="matrix(1 0 0 1 1970.45 1126)">
   <path d="M25.2663 4.94044L120.355 4.94044Q126.093 4.94044 129.636 1.36398Q133.178-2.21248 133.178-7.937L133.178-62.4668Q133.178-68.1914 129.636-71.7678Q126.093-75.3443 120.355-75.3443L25.2663-75.3443Q19.5467-75.3443 16.0038-71.7678Q12.4609-68.1914 12.4609-62.4668L12.4609-7.937Q12.4609-2.21248 16.0038 1.36398Q19.5467 4.94044 25.2663 4.94044ZM25.9791-5.42139Q24.5673-5.42139 23.6856-6.34652Q22.8039-7.27166 22.8039-8.76305L22.8039-61.6408Q22.8039-63.1322 23.6856-64.0573Q24.5673-64.9823 25.9791-64.9823L119.787-64.9823Q121.181-64.9823 121.99-64.1117Q122.798-63.2411 122.798-61.8224L122.798-8.58149Q122.798-7.16272 121.99-6.29205Q121.181-5.42139 119.787-5.42139ZM33.1067-11.6457L80.0684-11.6457Q82.0503-11.6457 83.2432-12.8697Q84.436-14.0937 84.436-16.0574L84.436-54.3464Q84.436-56.3653 83.2432-57.5617Q82.0503-58.7581 80.0684-58.7581L33.1067-58.7581Q31.0878-58.7581 29.8914-57.5617Q28.695-56.3653 28.695-54.3464L28.695-16.0574Q28.695-14.0937 29.8914-12.8697Q31.0878-11.6457 33.1067-11.6457ZM36.4158-18.2504Q35.2887-18.2504 35.2887-19.4217L35.2887-50.982Q35.2887-52.1534 36.4158-52.1534L76.7041-52.1534Q77.8494-52.1534 77.8494-50.982L77.8494-19.4217Q77.8494-18.2504 76.7041-18.2504ZM90.7416-2.48732L97.4798-2.48732L97.4798-67.9717L90.7416-67.9717ZM94.3153-16.6834L126.39-16.6834L126.39-23.4769L94.3153-23.4769ZM103.092-49.2678L116.704-49.2678Q117.223-49.2678 117.599-49.6444Q117.976-50.0211 117.976-50.522L117.976-57.4856Q117.976-58.0047 117.599-58.3814Q117.223-58.7581 116.704-58.7581L103.092-58.7581Q102.58-58.7581 102.2-58.3814Q101.82-58.0047 101.82-57.4856L101.82-50.522Q101.82-49.2678 103.092-49.2678ZM104.699-40.6499L115.096-40.6499Q116.366-40.6499 117.171-41.4548Q117.976-42.2597 117.976-43.5294Q117.976-44.7992 117.171-45.6005Q116.366-46.4018 115.096-46.4018L104.699-46.4018Q103.411-46.4018 102.616-45.6005Q101.82-44.7992 101.82-43.5294Q101.82-42.2597 102.616-41.4548Q103.411-40.6499 104.699-40.6499ZM104.699-31.984L115.096-31.984Q116.366-31.984 117.171-32.7798Q117.976-33.5757 117.976-34.8265Q117.976-36.0963 117.171-36.8885Q116.366-37.6808 115.096-37.6808L104.699-37.6808Q103.411-37.6808 102.616-36.8885Q101.82-36.0963 101.82-34.8265Q101.82-33.5757 102.616-32.7798Q103.411-31.984 104.699-31.984Z"/>
  </g>
  <g id="Medium-M" transform="matrix(1 0 0 1 1674.79 1126)">
   <path d="M24.7023 3.90845L118.821 3.90845Q124.32 3.90845 127.696 0.508263Q131.073-2.89192 131.073-8.36593L131.073-62.0394Q131.073-67.5134 127.696-70.9136Q124.32-74.3138 118.821-74.3138L24.7023-74.3138Q19.2137-74.3138 15.8373-70.9136Q12.4609-67.5134 12.4609-62.0394L12.4609-8.36593Q12.4609-2.89192 15.8373 0.508263Q19.2137 3.90845 24.7023 3.90845ZM25.1191-5.38727Q23.6065-5.38727 22.665-6.38062Q21.7236-7.37398 21.7236-8.98154L21.7236-61.4238Q21.7236-63.0314 22.665-64.0247Q23.6065-65.0179 25.1191-65.0179L118.464-65.0179Q119.989-65.0179 120.878-64.0555Q121.767-63.093 121.767-61.5266L121.767-8.87877Q121.767-7.31231 120.878-6.34979Q119.989-5.38727 118.464-5.38727ZM32.0512-11.3961L79.4835-11.3961Q81.498-11.3961 82.7096-12.6388Q83.9212-13.8815 83.9212-15.8858L83.9212-54.5196Q83.9212-56.5775 82.7096-57.7934Q81.498-59.0093 79.4835-59.0093L32.0512-59.0093Q29.9933-59.0093 28.7774-57.7934Q27.5615-56.5775 27.5615-54.5196L27.5615-15.8858Q27.5615-13.8815 28.7774-12.6388Q29.9933-11.3961 32.0512-11.3961ZM34.8405-17.4871Q33.6509-17.4871 33.6509-18.7287L33.6509-51.6765Q33.6509-52.9183 34.8405-52.9183L76.6404-52.9183Q77.8404-52.9183 77.8404-51.6765L77.8404-18.7287Q77.8404-17.4871 76.6404-17.4871ZM90.2454-2.13061L96.3941-2.13061L96.3941-68.3284L90.2454-68.3284ZM93.5589-17.2071L125.553-17.2071L125.553-23.4096L93.5589-23.4096ZM102.047-49.4843L115.868-49.4843Q116.324-49.4843 116.657-49.8168Q116.989-50.1494 116.989-50.5952L116.989-57.888Q116.989-58.344 116.657-58.6767Q116.324-59.0093 115.868-59.0093L102.047-59.0093Q101.599-59.0093 101.263-58.6767Q100.926-58.344 100.926-57.888L100.926-50.5952Q100.926-49.4843 102.047-49.4843ZM103.635-41.0715L114.279-41.0715Q115.484-41.0715 116.237-41.8241Q116.989-42.5767 116.989-43.7811Q116.989-44.9857 116.237-45.7339Q115.484-46.4822 114.279-46.4822L103.635-46.4822Q102.421-46.4822 101.673-45.7339Q100.926-44.9857 100.926-43.7811Q100.926-42.5767 101.673-41.8241Q102.421-41.0715 103.635-41.0715ZM103.635-32.6135L114.279-32.6135Q115.484-32.6135 116.237-33.361Q116.989-34.1085 116.989-35.2798Q116.989-36.4844 116.237-37.2275Q115.484-37.9706 114.279-37.9706L103.635-37.9706Q102.421-37.9706 101.673-37.2275Q100.926-36.4844 100.926-35.2798Q100.926-34.1085 101.673-33.361Q102.421-32.6135 103.635-32.6135Z"/>
  </g>
  <g id="Regular-M" transform="matrix(1 0 0 1 1379.45 1126)">
   <path d="M23.9667 2.56237L116.82 2.56237Q122.008 2.56237 125.167-0.607891Q128.326-3.77815 128.326-8.9254L128.326-61.4819Q128.326-66.6292 125.167-69.7994Q122.008-72.9697 116.82-72.9697L23.9667-72.9697Q18.7794-72.9697 15.6202-69.7994Q12.4609-66.6292 12.4609-61.4819L12.4609-8.9254Q12.4609-3.77815 15.6202-0.607891Q18.7794 2.56237 23.9667 2.56237ZM23.9974-5.34278Q22.3533-5.34278 21.3339-6.4251Q20.3144-7.50743 20.3144-9.26652L20.3144-61.1408Q20.3144-62.8999 21.3339-63.9821Q22.3533-65.0644 23.9974-65.0644L116.738-65.0644Q118.434-65.0644 119.427-63.9821Q120.421-62.8999 120.421-61.1408L120.421-9.26652Q120.421-7.50743 119.427-6.4251Q118.434-5.34278 116.738-5.34278ZM30.6745-11.0704L78.7206-11.0704Q80.7776-11.0704 82.0136-12.3376Q83.2497-13.6048 83.2497-15.6618L83.2497-54.7455Q83.2497-56.8542 82.0136-58.0955Q80.7776-59.3369 78.7206-59.3369L30.6745-59.3369Q28.5658-59.3369 27.3244-58.0955Q26.0831-56.8542 26.0831-54.7455L26.0831-15.6618Q26.0831-13.6048 27.3244-12.3376Q28.5658-11.0704 30.6745-11.0704ZM32.7858-16.4914Q31.5147-16.4914 31.5147-17.8248L31.5147-52.5823Q31.5147-53.9159 32.7858-53.9159L76.5574-53.9159Q77.8287-53.9159 77.8287-52.5823L77.8287-17.8248Q77.8287-16.4914 76.5574-16.4914ZM89.5982-1.66535L94.978-1.66535L94.978-68.7936L89.5982-68.7936ZM92.5723-17.8902L124.462-17.8902L124.462-23.3219L92.5723-23.3219ZM100.683-49.7667L114.778-49.7667Q115.152-49.7667 115.427-50.0417Q115.702-50.3168 115.702-50.6906L115.702-58.4128Q115.702-58.7866 115.427-59.0618Q115.152-59.3369 114.778-59.3369L100.683-59.3369Q100.32-59.3369 100.04-59.0618Q99.7594-58.7866 99.7594-58.4128L99.7594-50.6906Q99.7594-49.7667 100.683-49.7667ZM102.248-41.6213L113.214-41.6213Q114.333-41.6213 115.018-42.3056Q115.702-42.99 115.702-44.1094Q115.702-45.2289 115.018-45.9079Q114.333-46.587 113.214-46.587L102.248-46.587Q101.128-46.587 100.444-45.9079Q99.7594-45.2289 99.7594-44.1094Q99.7594-42.99 100.444-42.3056Q101.128-41.6213 102.248-41.6213ZM102.248-33.4347L113.214-33.4347Q114.333-33.4347 115.018-34.119Q115.702-34.8034 115.702-35.8711Q115.702-36.9906 115.018-37.6697Q114.333-38.3487 113.214-38.3487L102.248-38.3487Q101.128-38.3487 100.444-37.6697Q99.7594-36.9906 99.7594-35.8711Q99.7594-34.8034 100.444-34.119Q101.128-33.4347 102.248-33.4347Z"/>
  </g>
  <g id="Light-M" transform="matrix(1 0 0 1 1084.37 1126)">
   <path d="M22.9228 0.851261L114.596 0.851261Q119.304 0.851261 122.181-2.10511Q125.058-5.06148 125.058-9.86663L125.058-60.5579Q125.058-65.3631 122.181-68.3195Q119.304-71.2758 114.596-71.2758L22.9228-71.2758Q18.2148-71.2758 15.3378-68.3195Q12.4609-65.3631 12.4609-60.5579L12.4609-9.86663Q12.4609-5.06148 15.3378-2.10511Q18.2148 0.851261 22.9228 0.851261ZM22.9024-5.2229Q20.9159-5.2229 19.7083-6.54484Q18.5007-7.86678 18.5007-10.0537L18.5007-60.3709Q18.5007-62.5578 19.7083-63.8795Q20.9159-65.2012 22.9024-65.2012L114.582-65.2012Q116.603-65.2012 117.793-63.8795Q118.983-62.5578 118.983-60.3709L118.983-10.0537Q118.983-7.86678 117.793-6.54484Q116.603-5.2229 114.582-5.2229ZM29.5964-11.5496L76.4448-11.5496Q78.6045-11.5496 79.8747-12.851Q81.145-14.1524 81.145-16.3121L81.145-54.1125Q81.145-56.3065 79.8747-57.5907Q78.6045-58.8749 76.4448-58.8749L29.5964-58.8749Q27.4023-58.8749 26.1182-57.5907Q24.834-56.3065 24.834-54.1125L24.834-16.3121Q24.834-14.1524 26.1182-12.851Q27.4023-11.5496 29.5964-11.5496ZM30.989-15.961Q29.2732-15.961 29.2732-17.7391L29.2732-52.685Q29.2732-54.4636 30.989-54.4636L75.0173-54.4636Q76.7337-54.4636 76.7337-52.685L76.7337-17.7391Q76.7337-15.961 75.0173-15.961ZM87.8871-2.45248L92.2914-2.45248L92.2914-68.0065L87.8871-68.0065ZM90.2282-18.1127L122.1-18.1127L122.1-22.552L90.2282-22.552ZM98.4588-48.6374L112.878-48.6374Q113.252-48.6374 113.519-48.9039Q113.786-49.1703 113.786-49.5441L113.786-57.9678Q113.786-58.3416 113.519-58.6083Q113.252-58.8749 112.878-58.8749L98.4588-58.8749Q98.1129-58.8749 97.8325-58.6083Q97.5521-58.3416 97.5521-57.9678L97.5521-49.5441Q97.5521-48.6374 98.4588-48.6374ZM99.6299-41.1251L111.708-41.1251Q112.622-41.1251 113.204-41.7068Q113.786-42.2886 113.786-43.2024Q113.786-44.1166 113.204-44.6844Q112.622-45.2522 111.708-45.2522L99.6299-45.2522Q98.7156-45.2522 98.1339-44.6844Q97.5521-44.1166 97.5521-43.2024Q97.5521-42.2886 98.1339-41.7068Q98.7156-41.1251 99.6299-41.1251ZM99.6299-33.6057L111.708-33.6057Q112.622-33.6057 113.204-34.1875Q113.786-34.7692 113.786-35.6486Q113.786-36.5628 113.204-37.1306Q112.622-37.6984 111.708-37.6984L99.6299-37.6984Q98.7156-37.6984 98.1339-37.1306Q97.5521-36.5628 97.5521-35.6486Q97.5521-34.7692 98.1339-34.1875Q98.7156-33.6057 99.6299-33.6057Z"/>
  </g>
  <g id="Thin-M" transform="matrix(1 0 0 1 789.824 1126)">
   <path d="M21.5422-1.41182L111.654-1.41182Q115.729-1.41182 118.232-4.0853Q120.736-6.75879 120.736-11.1115L120.736-59.3359Q120.736-63.6886 118.232-66.3621Q115.729-69.0356 111.654-69.0356L21.5422-69.0356Q17.468-69.0356 14.9645-66.3621Q12.4609-63.6886 12.4609-59.3359L12.4609-11.1115Q12.4609-6.75879 14.9645-4.0853Q17.468-1.41182 21.5422-1.41182ZM21.4541-5.06434Q19.0148-5.06434 17.5583-6.7032Q16.1019-8.34206 16.1019-11.0947L16.1019-59.3527Q16.1019-62.1053 17.5583-63.7438Q19.0148-65.3822 21.4541-65.3822L111.731-65.3822Q114.181-65.3822 115.632-63.7438Q117.082-62.1053 117.082-59.3527L117.082-11.0947Q117.082-8.34206 115.632-6.7032Q114.181-5.06434 111.731-5.06434ZM28.1706-12.1835L73.435-12.1835Q75.7304-12.1835 77.0459-13.5301Q78.3614-14.8768 78.3614-17.1722L78.3614-53.2752Q78.3614-55.5822 77.0459-56.9231Q75.7304-58.2639 73.435-58.2639L28.1706-58.2639Q25.8636-58.2639 24.5227-56.9231Q23.1819-55.5822 23.1819-53.2752L23.1819-17.1722Q23.1819-14.8768 24.5227-13.5301Q25.8636-12.1835 28.1706-12.1835ZM28.6127-15.2595Q26.3086-15.2595 26.3086-17.6258L26.3086-52.8207Q26.3086-55.1879 28.6127-55.1879L72.9805-55.1879Q75.2854-55.1879 75.2854-52.8207L75.2854-17.6258Q75.2854-15.2595 72.9805-15.2595ZM85.624-3.49352L88.7383-3.49352L88.7383-66.9655L85.624-66.9655ZM87.1278-18.407L118.977-18.407L118.977-21.5337L87.1278-21.5337ZM95.5167-47.1439L110.366-47.1439Q110.74-47.1439 110.996-47.3989Q111.251-47.654 111.251-48.0278L111.251-57.3792Q111.251-57.753 110.996-58.0085Q110.74-58.2639 110.366-58.2639L95.5167-58.2639Q95.1935-58.2639 94.9132-58.0085Q94.6328-57.753 94.6328-57.3792L94.6328-48.0278Q94.6328-47.1439 95.5167-47.1439ZM96.1676-40.4688L109.716-40.4688Q110.359-40.4688 110.805-40.9148Q111.251-41.3608 111.251-42.0028Q111.251-42.6455 110.805-43.0662Q110.359-43.4868 109.716-43.4868L96.1676-43.4868Q95.5248-43.4868 95.0788-43.0662Q94.6328-42.6455 94.6328-42.0028Q94.6328-41.3608 95.0788-40.9148Q95.5248-40.4688 96.1676-40.4688ZM96.1676-33.832L109.716-33.832Q110.359-33.832 110.805-34.278Q111.251-34.724 111.251-35.3543Q111.251-35.9971 110.805-36.4177Q110.359-36.8384 109.716-36.8384L96.1676-36.8384Q95.5248-36.8384 95.0788-36.4177Q94.6328-35.9971 94.6328-35.3543Q94.6328-34.724 95.0788-34.278Q95.5248-33.832 96.1676-33.832Z"/>
  </g>
  <g id="Ultralight-M" transform="matrix(1 0 0 1 494.22 1126)">
   <path d="M20.8351-2.57095L110.147-2.57095Q113.897-2.57095 116.21-5.09955Q118.522-7.62814 118.522-11.7491L118.522-58.71Q118.522-62.8309 116.21-65.3595Q113.897-67.8881 110.147-67.8881L20.8351-67.8881Q17.0855-67.8881 14.7732-65.3595Q12.4609-62.8309 12.4609-58.71L12.4609-11.7491Q12.4609-7.62814 14.7732-5.09955Q17.0855-2.57095 20.8351-2.57095ZM20.7123-4.98313Q18.041-4.98313 16.4571-6.78431Q14.8732-8.58549 14.8732-11.6279L14.8732-58.8311Q14.8732-61.8736 16.4571-63.6742Q18.041-65.4749 20.7123-65.4749L110.27-65.4749Q112.941-65.4749 114.525-63.6742Q116.109-61.8736 116.109-58.8311L116.109-11.6279Q116.109-8.58549 114.525-6.78431Q112.941-4.98313 110.27-4.98313ZM27.4403-12.5081L71.8934-12.5081Q74.2583-12.5081 75.597-13.8779Q76.9356-15.2478 76.9356-17.6127L76.9356-52.8464Q76.9356-55.2112 75.597-56.5811Q74.2583-57.9509 71.8934-57.9509L27.4403-57.9509Q25.0754-57.9509 23.7056-56.5811Q22.3357-55.2112 22.3357-52.8464L22.3357-17.6127Q22.3357-15.2478 23.7056-13.8779Q25.0754-12.5081 27.4403-12.5081ZM27.3955-14.9002Q24.7902-14.9002 24.7902-17.5678L24.7902-52.8902Q24.7902-55.5589 27.3955-55.5589L71.9372-55.5589Q74.5436-55.5589 74.5436-52.8902L74.5436-17.5678Q74.5436-14.9002 71.9372-14.9002ZM84.4649-4.02674L86.9184-4.02674L86.9184-66.4322L84.4649-66.4322ZM85.5399-18.5578L117.377-18.5578L117.377-21.0122L85.5399-21.0122ZM94.0097-46.379L109.08-46.379Q109.453-46.379 109.703-46.6281Q109.953-46.8773 109.953-47.2511L109.953-57.0777Q109.953-57.4515 109.703-57.7012Q109.453-57.9509 109.08-57.9509L94.0097-57.9509Q93.6983-57.9509 93.4179-57.7012Q93.1375-57.4515 93.1375-57.0777L93.1375-47.2511Q93.1375-46.379 94.0097-46.379ZM94.3942-40.1327L108.696-40.1327Q109.2-40.1327 109.576-40.5092Q109.953-40.8856 109.953-41.3883Q109.953-41.8921 109.576-42.2373Q109.2-42.5826 108.696-42.5826L94.3942-42.5826Q93.8905-42.5826 93.514-42.2373Q93.1375-41.8921 93.1375-41.3883Q93.1375-40.8856 93.514-40.5092Q93.8905-40.1327 94.3942-40.1327ZM94.3942-33.9478L108.696-33.9478Q109.2-33.9478 109.576-34.3243Q109.953-34.7008 109.953-35.2036Q109.953-35.7073 109.576-36.0526Q109.2-36.3979 108.696-36.3979L94.3942-36.3979Q93.8905-36.3979 93.514-36.0526Q93.1375-35.7073 93.1375-35.2036Q93.1375-34.7008 93.514-34.3243Q93.8905-33.9478 94.3942-33.9478Z"/>
  </g>
  <g id="Black-S" transform="matrix(1 0 0 1 2871.8 696)">
   <path d="M22.2168 0.683594L100.928 0.683594Q106.445 0.683594 109.937-2.88086Q113.428-6.44531 113.428-12.0117L113.428-58.3984Q113.428-63.9648 109.937-67.5293Q106.445-71.0938 100.928-71.0938L22.2168-71.0938Q16.748-71.0938 13.2568-67.5293Q9.76562-63.9648 9.76562-58.3984L9.76562-12.0117Q9.76562-6.44531 13.2568-2.88086Q16.748 0.683594 22.2168 0.683594ZM24.0723-12.0117Q23.3887-12.0117 22.9492-12.4512Q22.5098-12.8906 22.5098-13.5742L22.5098-56.8359Q22.5098-57.5195 22.9492-57.959Q23.3887-58.3984 24.0723-58.3984L99.5605-58.3984Q100.098-58.3984 100.391-58.1055Q100.684-57.8125 100.684-57.3242L100.684-13.0859Q100.684-12.5977 100.391-12.3047Q100.098-12.0117 99.5605-12.0117ZM30.5176-17.8711L65.1855-17.8711Q66.6016-17.8711 67.4561-18.75Q68.3105-19.6289 68.3105-20.9961L68.3105-49.4141Q68.3105-50.8301 67.4561-51.6846Q66.6016-52.5391 65.1855-52.5391L30.5176-52.5391Q29.1016-52.5391 28.2471-51.6846Q27.3926-50.8301 27.3926-49.4141L27.3926-20.9961Q27.3926-19.6289 28.2471-18.75Q29.1016-17.8711 30.5176-17.8711ZM35.3516-25.2441Q34.7168-25.2441 34.7168-25.8789L34.7168-44.5312Q34.7168-45.166 35.3516-45.166L60.3027-45.166Q60.9863-45.166 60.9863-44.5312L60.9863-25.8789Q60.9863-25.2441 60.3027-25.2441ZM73.1934-11.1816L81.0059-11.1816L81.0059-59.2773L73.1934-59.2773ZM77.0996-18.4082L102.588-18.4082L102.588-26.2695L77.0996-26.2695ZM85.2539-45.2148L95.0195-45.2148Q95.7031-45.2148 96.1914-45.7031Q96.6797-46.1914 96.6797-46.8262L96.6797-50.8789Q96.6797-51.5625 96.1914-52.0508Q95.7031-52.5391 95.0195-52.5391L85.2539-52.5391Q84.5703-52.5391 84.082-52.0508Q83.5938-51.5625 83.5938-50.8789L83.5938-46.8262Q83.5938-45.2148 85.2539-45.2148ZM86.5723-37.5977L93.7012-37.5977Q94.9707-37.5977 95.8252-38.4521Q96.6797-39.3066 96.6797-40.5762Q96.6797-41.8457 95.8252-42.7002Q94.9707-43.5547 93.7012-43.5547L86.5723-43.5547Q85.2539-43.5547 84.4238-42.7002Q83.5938-41.8457 83.5938-40.5762Q83.5938-39.3066 84.4238-38.4521Q85.2539-37.5977 86.5723-37.5977ZM86.5723-29.9316L93.7012-29.9316Q94.9707-29.9316 95.8252-30.7617Q96.6797-31.5918 96.6797-32.9102Q96.6797-34.1797 95.8252-35.0098Q94.9707-35.8398 93.7012-35.8398L86.5723-35.8398Q85.2539-35.8398 84.4238-35.0098Q83.5938-34.1797 83.5938-32.9102Q83.5938-31.5918 84.4238-30.7617Q85.2539-29.9316 86.5723-29.9316Z"/>
  </g>
  <g id="Heavy-S" transform="matrix(1 0 0 1 2576.42 696)">
   <path d="M21.5253-0.607146L98.9686-0.607146Q104.198-0.607146 107.482-3.94111Q110.766-7.27507 110.766-12.5188L110.766-57.8914Q110.766-63.1351 107.482-66.469Q104.198-69.803 98.9686-69.803L21.5253-69.803Q16.3332-69.803 13.0494-66.469Q9.76562-63.1351 9.76562-57.8914L9.76562-12.5188Q9.76562-7.27507 13.0494-3.94111Q16.3332-0.607146 21.5253-0.607146ZM22.9544-11.9771Q22.1671-11.9771 21.6642-12.4857Q21.1614-12.9943 21.1614-13.7932L21.1614-56.617Q21.1614-57.4158 21.6642-57.9244Q22.1671-58.433 22.9544-58.433L97.901-58.433Q98.588-58.433 98.9731-58.0363Q99.3583-57.6396 99.3583-56.99L99.3583-13.4201Q99.3583-12.7705 98.9731-12.3738Q98.588-11.9771 97.901-11.9771ZM29.1116-17.4447L64.6208-17.4447Q66.0714-17.4447 66.949-18.3466Q67.8265-19.2486 67.8265-20.6619L67.8265-49.7483Q67.8265-51.2104 66.949-52.0879Q66.0714-52.9655 64.6208-52.9655L29.1116-52.9655Q27.6495-52.9655 26.7719-52.0879Q25.8944-51.2104 25.8944-49.7483L25.8944-20.6619Q25.8944-19.2486 26.7719-18.3466Q27.6495-17.4447 29.1116-17.4447ZM33.2772-24.1954Q32.6078-24.1954 32.6078-24.8763L32.6078-45.5339Q32.6078-46.2147 33.2772-46.2147L60.4065-46.2147Q61.1131-46.2147 61.1131-45.5339L61.1131-24.8763Q61.1131-24.1954 60.4065-24.1954ZM72.6863-10.5593L79.7612-10.5593L79.7612-59.8997L72.6863-59.8997ZM76.2929-19.1458L101.666-19.1458L101.666-26.2695L76.2929-26.2695ZM84.0093-45.6758L94.04-45.6758Q94.6313-45.6758 95.0562-46.1007Q95.4811-46.5256 95.4811-47.0797L95.4811-51.5243Q95.4811-52.1157 95.0562-52.5406Q94.6313-52.9655 94.04-52.9655L84.0093-52.9655Q83.4179-52.9655 82.993-52.5406Q82.5681-52.1157 82.5681-51.5243L82.5681-47.0797Q82.5681-45.6758 84.0093-45.6758ZM85.3507-38.2776L92.6985-38.2776Q93.8989-38.2776 94.69-39.0687Q95.4811-39.8598 95.4811-41.0602Q95.4811-42.2606 94.69-43.0517Q93.8989-43.8428 92.6985-43.8428L85.3507-43.8428Q84.113-43.8428 83.3405-43.0517Q82.5681-42.2606 82.5681-41.0602Q82.5681-39.8598 83.3405-39.0687Q84.113-38.2776 85.3507-38.2776ZM85.3507-30.8305L92.6985-30.8305Q93.8989-30.8305 94.69-31.603Q95.4811-32.3755 95.4811-33.6016Q95.4811-34.802 94.69-35.5745Q93.8989-36.3469 92.6985-36.3469L85.3507-36.3469Q84.113-36.3469 83.3405-35.5745Q82.5681-34.802 82.5681-33.6016Q82.5681-32.3755 83.3405-31.603Q84.113-30.8305 85.3507-30.8305Z"/>
  </g>
  <g id="Bold-S" transform="matrix(1 0 0 1 2281.2 696)">
   <path d="M20.752-2.05078L96.7773-2.05078Q101.685-2.05078 104.736-5.12695Q107.788-8.20312 107.788-13.0859L107.788-57.3242Q107.788-62.207 104.736-65.2832Q101.685-68.3594 96.7773-68.3594L20.752-68.3594Q15.8691-68.3594 12.8174-65.2832Q9.76562-62.207 9.76562-57.3242L9.76562-13.0859Q9.76562-8.20312 12.8174-5.12695Q15.8691-2.05078 20.752-2.05078ZM21.7041-11.9385Q20.8008-11.9385 20.2271-12.5244Q19.6533-13.1104 19.6533-14.0381L19.6533-56.3721Q19.6533-57.2998 20.2271-57.8857Q20.8008-58.4717 21.7041-58.4717L96.0449-58.4717Q96.8994-58.4717 97.3877-57.959Q97.876-57.4463 97.876-56.6162L97.876-13.7939Q97.876-12.9639 97.3877-12.4512Q96.8994-11.9385 96.0449-11.9385ZM27.5391-16.9678L63.9893-16.9678Q65.4785-16.9678 66.3818-17.8955Q67.2852-18.8232 67.2852-20.2881L67.2852-50.1221Q67.2852-51.6357 66.3818-52.5391Q65.4785-53.4424 63.9893-53.4424L27.5391-53.4424Q26.0254-53.4424 25.1221-52.5391Q24.2188-51.6357 24.2188-50.1221L24.2188-20.2881Q24.2188-18.8232 25.1221-17.8955Q26.0254-16.9678 27.5391-16.9678ZM30.957-23.0225Q30.249-23.0225 30.249-23.7549L30.249-46.6553Q30.249-47.3877 30.957-47.3877L60.5225-47.3877Q61.2549-47.3877 61.2549-46.6553L61.2549-23.7549Q61.2549-23.0225 60.5225-23.0225ZM72.1191-9.86328L78.3691-9.86328L78.3691-60.5957L72.1191-60.5957ZM75.3906-19.9707L100.635-19.9707L100.635-26.2695L75.3906-26.2695ZM82.6172-46.1914L92.9443-46.1914Q93.4326-46.1914 93.7866-46.5454Q94.1406-46.8994 94.1406-47.3633L94.1406-52.2461Q94.1406-52.7344 93.7866-53.0884Q93.4326-53.4424 92.9443-53.4424L82.6172-53.4424Q82.1289-53.4424 81.7749-53.0884Q81.4209-52.7344 81.4209-52.2461L81.4209-47.3633Q81.4209-46.1914 82.6172-46.1914ZM83.9844-39.0381L91.5771-39.0381Q92.7002-39.0381 93.4204-39.7583Q94.1406-40.4785 94.1406-41.6016Q94.1406-42.7246 93.4204-43.4448Q92.7002-44.165 91.5771-44.165L83.9844-44.165Q82.8369-44.165 82.1289-43.4448Q81.4209-42.7246 81.4209-41.6016Q81.4209-40.4785 82.1289-39.7583Q82.8369-39.0381 83.9844-39.0381ZM83.9844-31.8359L91.5771-31.8359Q92.7002-31.8359 93.4204-32.5439Q94.1406-33.252 94.1406-34.375Q94.1406-35.498 93.4204-36.2061Q92.7002-36.9141 91.5771-36.9141L83.9844-36.9141Q82.8369-36.9141 82.1289-36.2061Q81.4209-35.498 81.4209-34.375Q81.4209-33.252 82.1289-32.5439Q82.8369-31.8359 83.9844-31.8359Z"/>
  </g>
  <g id="Semibold-S" transform="matrix(1 0 0 1 1985.52 696)">
   <path d="M20.2188-3.04609L95.2666-3.04609Q99.9517-3.04609 102.843-5.94453Q105.735-8.84297 105.735-13.477L105.735-56.9332Q105.735-61.5672 102.843-64.4656Q99.9517-67.3641 95.2666-67.3641L20.2188-67.3641Q15.5492-67.3641 12.6574-64.4656Q9.76562-61.5672 9.76562-56.9332L9.76562-13.477Q9.76562-8.84297 12.6574-5.94453Q15.5492-3.04609 20.2188-3.04609ZM20.8421-11.9118Q19.8588-11.9118 19.2362-12.5511Q18.6136-13.1903 18.6136-14.2069L18.6136-56.2032Q18.6136-57.2198 19.2362-57.8591Q19.8588-58.4983 20.8421-58.4983L94.7652-58.4983Q95.7353-58.4983 96.2946-57.9057Q96.854-57.313 96.854-56.3585L96.854-14.0517Q96.854-13.0972 96.2946-12.5045Q95.7353-11.9118 94.7652-11.9118ZM26.4549-16.639L63.5538-16.639Q65.0697-16.639 65.9908-17.5845Q66.9119-18.53 66.9119-20.0304L66.9119-50.3798Q66.9119-51.929 65.9908-52.8501Q65.0697-53.7712 63.5538-53.7712L26.4549-53.7712Q24.9057-53.7712 23.9846-52.8501Q23.0635-51.929 23.0635-50.3798L23.0635-20.0304Q23.0635-18.53 23.9846-17.5845Q24.9057-16.639 26.4549-16.639ZM29.3574-22.2138Q28.6228-22.2138 28.6228-22.9817L28.6228-47.4284Q28.6228-48.1964 29.3574-48.1964L60.6024-48.1964Q61.3526-48.1964 61.3526-47.4284L61.3526-22.9817Q61.3526-22.2138 60.6024-22.2138ZM71.7281-9.3834L77.4094-9.3834L77.4094-61.0756L71.7281-61.0756ZM74.7686-20.5395L99.9238-20.5395L99.9238-26.2695L74.7686-26.2695ZM81.6574-46.5469L92.189-46.5469Q92.6062-46.5469 92.9113-46.852Q93.2164-47.1571 93.2164-47.5588L93.2164-52.7437Q93.2164-53.1609 92.9113-53.4661Q92.6062-53.7712 92.189-53.7712L81.6574-53.7712Q81.2402-53.7712 80.9351-53.4661Q80.63-53.1609 80.63-52.7437L80.63-47.5588Q80.63-46.5469 81.6574-46.5469ZM83.0424-39.5624L90.804-39.5624Q91.8737-39.5624 92.5451-40.2337Q93.2164-40.9051 93.2164-41.9748Q93.2164-43.0445 92.5451-43.7159Q91.8737-44.3872 90.804-44.3872L83.0424-44.3872Q81.9571-44.3872 81.2936-43.7159Q80.63-43.0445 80.63-41.9748Q80.63-40.9051 81.2936-40.2337Q81.9571-39.5624 83.0424-39.5624ZM83.0424-32.5291L90.804-32.5291Q91.8737-32.5291 92.5451-33.1927Q93.2164-33.8563 93.2164-34.9082Q93.2164-35.9779 92.5451-36.6415Q91.8737-37.3051 90.804-37.3051L83.0424-37.3051Q81.9571-37.3051 81.2936-36.6415Q80.63-35.9779 80.63-34.9082Q80.63-33.8563 81.2936-33.1927Q81.9571-32.5291 83.0424-32.5291Z"/>
  </g>
  <g id="Medium-S" transform="matrix(1 0 0 1 1689.58 696)">
   <path d="M19.8145-3.80078L94.1211-3.80078Q98.6377-3.80078 101.408-6.56445Q104.179-9.32812 104.179-13.7734L104.179-56.6367Q104.179-61.082 101.408-63.8457Q98.6377-66.6094 94.1211-66.6094L19.8145-66.6094Q15.3066-66.6094 12.5361-63.8457Q9.76562-61.082 9.76562-56.6367L9.76562-13.7734Q9.76562-9.32812 12.5361-6.56445Q15.3066-3.80078 19.8145-3.80078ZM20.1885-11.8916Q19.1445-11.8916 18.4849-12.5713Q17.8252-13.251 17.8252-14.335L17.8252-56.0752Q17.8252-57.1592 18.4849-57.8389Q19.1445-58.5186 20.1885-58.5186L93.7949-58.5186Q94.8525-58.5186 95.4658-57.8652Q96.0791-57.2119 96.0791-56.1631L96.0791-14.2471Q96.0791-13.1982 95.4658-12.5449Q94.8525-11.8916 93.7949-11.8916ZM25.6328-16.3896L63.2236-16.3896Q64.7598-16.3896 65.6943-17.3486Q66.6289-18.3076 66.6289-19.835L66.6289-50.5752Q66.6289-52.1514 65.6943-53.0859Q64.7598-54.0205 63.2236-54.0205L25.6328-54.0205Q24.0566-54.0205 23.1221-53.0859Q22.1875-52.1514 22.1875-50.5752L22.1875-19.835Q22.1875-18.3076 23.1221-17.3486Q24.0566-16.3896 25.6328-16.3896ZM28.1445-21.6006Q27.3896-21.6006 27.3896-22.3955L27.3896-48.0146Q27.3896-48.8096 28.1445-48.8096L60.6631-48.8096Q61.4268-48.8096 61.4268-48.0146L61.4268-22.3955Q61.4268-21.6006 60.6631-21.6006ZM71.4316-9.01953L76.6816-9.01953L76.6816-61.4395L71.4316-61.4395ZM74.2969-20.9707L99.3848-20.9707L99.3848-26.2695L74.2969-26.2695ZM80.9297-46.8164L91.6162-46.8164Q91.9795-46.8164 92.2476-47.0845Q92.5156-47.3525 92.5156-47.707L92.5156-53.1211Q92.5156-53.4844 92.2476-53.7524Q91.9795-54.0205 91.6162-54.0205L80.9297-54.0205Q80.5664-54.0205 80.2983-53.7524Q80.0303-53.4844 80.0303-53.1211L80.0303-47.707Q80.0303-46.8164 80.9297-46.8164ZM82.3281-39.96L90.2178-39.96Q91.2471-39.96 91.8813-40.5942Q92.5156-41.2285 92.5156-42.2578Q92.5156-43.2871 91.8813-43.9214Q91.2471-44.5557 90.2178-44.5557L82.3281-44.5557Q81.29-44.5557 80.6602-43.9214Q80.0303-43.2871 80.0303-42.2578Q80.0303-41.2285 80.6602-40.5942Q81.29-39.96 82.3281-39.96ZM82.3281-33.0547L90.2178-33.0547Q91.2471-33.0547 91.8813-33.6846Q92.5156-34.3145 92.5156-35.3125Q92.5156-36.3418 91.8813-36.9717Q91.2471-37.6016 90.2178-37.6016L82.3281-37.6016Q81.29-37.6016 80.6602-36.9717Q80.0303-36.3418 80.0303-35.3125Q80.0303-34.3145 80.6602-33.6846Q81.29-33.0547 82.3281-33.0547Z"/>
  </g>
  <g id="Regular-S" transform="matrix(1 0 0 1 1393.89 696)">
   <path d="M19.2871-4.78516L92.627-4.78516Q96.9238-4.78516 99.5361-7.37305Q102.148-9.96094 102.148-14.1602L102.148-56.25Q102.148-60.4492 99.5361-63.0371Q96.9238-65.625 92.627-65.625L19.2871-65.625Q14.9902-65.625 12.3779-63.0371Q9.76562-60.4492 9.76562-56.25L9.76562-14.1602Q9.76562-9.96094 12.3779-7.37305Q14.9902-4.78516 19.2871-4.78516ZM19.3359-11.8652Q18.2129-11.8652 17.5049-12.5977Q16.7969-13.3301 16.7969-14.502L16.7969-55.9082Q16.7969-57.0801 17.5049-57.8125Q18.2129-58.5449 19.3359-58.5449L92.5293-58.5449Q93.7012-58.5449 94.3848-57.8125Q95.0684-57.0801 95.0684-55.9082L95.0684-14.502Q95.0684-13.3301 94.3848-12.5977Q93.7012-11.8652 92.5293-11.8652ZM24.5605-16.0645L62.793-16.0645Q64.3555-16.0645 65.3076-17.041Q66.2598-18.0176 66.2598-19.5801L66.2598-50.8301Q66.2598-52.4414 65.3076-53.3936Q64.3555-54.3457 62.793-54.3457L24.5605-54.3457Q22.9492-54.3457 21.9971-53.3936Q21.0449-52.4414 21.0449-50.8301L21.0449-19.5801Q21.0449-18.0176 21.9971-17.041Q22.9492-16.0645 24.5605-16.0645ZM26.5625-20.8008Q25.7812-20.8008 25.7812-21.6309L25.7812-48.7793Q25.7812-49.6094 26.5625-49.6094L60.7422-49.6094Q61.5234-49.6094 61.5234-48.7793L61.5234-21.6309Q61.5234-20.8008 60.7422-20.8008ZM71.0449-8.54492L75.7324-8.54492L75.7324-61.9141L71.0449-61.9141ZM73.6816-21.5332L98.6816-21.5332L98.6816-26.2695L73.6816-26.2695ZM79.9805-47.168L90.8691-47.168Q91.1621-47.168 91.3818-47.3877Q91.6016-47.6074 91.6016-47.9004L91.6016-53.6133Q91.6016-53.9062 91.3818-54.126Q91.1621-54.3457 90.8691-54.3457L79.9805-54.3457Q79.6875-54.3457 79.4678-54.126Q79.248-53.9062 79.248-53.6133L79.248-47.9004Q79.248-47.168 79.9805-47.168ZM81.3965-40.4785L89.4531-40.4785Q90.4297-40.4785 91.0156-41.0645Q91.6016-41.6504 91.6016-42.627Q91.6016-43.6035 91.0156-44.1895Q90.4297-44.7754 89.4531-44.7754L81.3965-44.7754Q80.4199-44.7754 79.834-44.1895Q79.248-43.6035 79.248-42.627Q79.248-41.6504 79.834-41.0645Q80.4199-40.4785 81.3965-40.4785ZM81.3965-33.7402L89.4531-33.7402Q90.4297-33.7402 91.0156-34.3262Q91.6016-34.9121 91.6016-35.8398Q91.6016-36.8164 91.0156-37.4023Q90.4297-37.9883 89.4531-37.9883L81.3965-37.9883Q80.4199-37.9883 79.834-37.4023Q79.248-36.8164 79.248-35.8398Q79.248-34.9121 79.834-34.3262Q80.4199-33.7402 81.3965-33.7402Z"/>
  </g>
  <g id="Light-S" transform="matrix(1 0 0 1 1098.62 696)">
   <path d="M18.3637-6.29883L90.6591-6.29883Q94.5323-6.29883 96.8948-8.69751Q99.2574-11.0962 99.2574-14.9928L99.2574-55.4326Q99.2574-59.3292 96.8948-61.7279Q94.5323-64.1266 90.6591-64.1266L18.3637-64.1266Q14.4908-64.1266 12.1282-61.7279Q9.76562-59.3292 9.76562-55.4326L9.76562-14.9928Q9.76562-11.0962 12.1282-8.69751Q14.4908-6.29883 18.3637-6.29883ZM18.3673-11.7592Q16.9413-11.7592 16.0669-12.7036Q15.1924-13.648 15.1924-15.1983L15.1924-55.2272Q15.1924-56.7774 16.0669-57.7217Q16.9413-58.666 18.3673-58.666L90.6222-58.666Q92.0815-58.666 92.9391-57.7217Q93.7968-56.7774 93.7968-55.2272L93.7968-15.1983Q93.7968-13.648 92.9391-12.7036Q92.0815-11.7592 90.6222-11.7592ZM23.6069-16.4884L60.7798-16.4884Q62.4331-16.4884 63.4155-17.4952Q64.3979-18.502 64.3979-20.1553L64.3979-50.2701Q64.3979-51.9569 63.4155-52.947Q62.4331-53.937 60.7798-53.937L23.6069-53.937Q21.92-53.937 20.93-52.947Q19.9399-51.9569 19.9399-50.2701L19.9399-20.1553Q19.9399-18.502 20.93-17.4952Q21.92-16.4884 23.6069-16.4884ZM24.973-20.3316Q23.7984-20.3316 23.7984-21.5551L23.7984-48.8701Q23.7984-50.0938 24.973-50.0938L59.3798-50.0938Q60.5548-50.0938 60.5548-48.8701L60.5548-21.5551Q60.5548-20.3316 59.3798-20.3316ZM69.5312-9.24123L73.3559-9.24123L73.3559-61.2178L69.5312-61.2178ZM71.608-21.73L96.5927-21.73L96.5927-25.5885L71.608-25.5885ZM78.0126-46.169L89.1889-46.169Q89.4819-46.169 89.6941-46.3811Q89.9063-46.5932 89.9063-46.8862L89.9063-53.2196Q89.9063-53.5126 89.6941-53.7248Q89.4819-53.937 89.1889-53.937L78.0126-53.937Q77.7349-53.937 77.5152-53.7248Q77.2954-53.5126 77.2954-53.2196L77.2954-46.8862Q77.2954-46.169 78.0126-46.169ZM79.0807-40.0396L88.121-40.0396Q88.916-40.0396 89.4112-40.5347Q89.9063-41.0299 89.9063-41.8246Q89.9063-42.6196 89.4112-43.1071Q88.916-43.5946 88.121-43.5946L79.0807-43.5946Q78.2857-43.5946 77.7906-43.1071Q77.2954-42.6196 77.2954-41.8246Q77.2954-41.0299 77.7906-40.5347Q78.2857-40.0396 79.0807-40.0396ZM79.0807-33.8916L88.121-33.8916Q88.916-33.8916 89.4112-34.3867Q89.9063-34.8818 89.9063-35.643Q89.9063-36.438 89.4112-36.9255Q88.916-37.413 88.121-37.413L79.0807-37.413Q78.2857-37.413 77.7906-36.9255Q77.2954-36.438 77.2954-35.643Q77.2954-34.8818 77.7906-34.3867Q78.2857-33.8916 79.0807-33.8916Z"/>
  </g>
  <g id="Thin-S" transform="matrix(1 0 0 1 803.823 696)">
   <path d="M17.1424-8.30078L88.0564-8.30078Q91.3692-8.30078 93.4015-10.4492Q95.4338-12.5977 95.4338-16.094L95.4338-54.3516Q95.4338-57.8479 93.4015-59.9964Q91.3692-62.1448 88.0564-62.1448L17.1424-62.1448Q13.8302-62.1448 11.7979-59.9964Q9.76562-57.8479 9.76562-54.3516L9.76562-16.094Q9.76562-12.5977 11.7979-10.4492Q13.8302-8.30078 17.1424-8.30078ZM17.0861-11.6189Q15.2596-11.6189 14.165-12.8437Q13.0704-14.0684 13.0704-16.1192L13.0704-54.3264Q13.0704-56.3772 14.165-57.6016Q15.2596-58.8261 17.0861-58.8261L88.0999-58.8261Q89.9392-58.8261 91.0271-57.6016Q92.115-56.3772 92.115-54.3264L92.115-16.1192Q92.115-14.0684 91.0271-12.8437Q89.9392-11.6189 88.0999-11.6189ZM22.3456-17.0491L58.1173-17.0491Q59.8906-17.0491 60.9131-18.0959Q61.9355-19.1428 61.9355-20.9162L61.9355-49.5294Q61.9355-51.3162 60.9131-52.3564Q59.8906-53.3965 58.1173-53.3965L22.3456-53.3965Q20.5588-53.3965 19.5186-52.3564Q18.4785-51.3162 18.4785-49.5294L18.4785-20.9162Q18.4785-19.1428 19.5186-18.0959Q20.5588-17.0491 22.3456-17.0491ZM22.8709-19.711Q21.1759-19.711 21.1759-21.4548L21.1759-48.9902Q21.1759-50.7346 22.8709-50.7346L57.578-50.7346Q59.2736-50.7346 59.2736-48.9902L59.2736-21.4548Q59.2736-19.711 57.578-19.711ZM67.5293-10.1622L70.2127-10.1622L70.2127-60.2968L67.5293-60.2968ZM68.8654-21.9904L93.8299-21.9904L93.8299-24.6877L68.8654-24.6877ZM75.4099-44.8478L86.9666-44.8478Q87.2596-44.8478 87.4619-45.0499Q87.6642-45.2519 87.6642-45.5448L87.6642-52.6989Q87.6642-52.9919 87.4619-53.1942Q87.2596-53.3965 86.9666-53.3965L75.4099-53.3965Q75.1524-53.3965 74.9327-53.1942Q74.7129-52.9919 74.7129-52.6989L74.7129-45.5448Q74.7129-44.8478 75.4099-44.8478ZM76.0179-39.459L86.3592-39.459Q86.9141-39.459 87.2891-39.8341Q87.6642-40.2092 87.6642-40.7634Q87.6642-41.3182 87.2891-41.6756Q86.9141-42.0329 86.3592-42.0329L76.0179-42.0329Q75.4631-42.0329 75.088-41.6756Q74.7129-41.3182 74.7129-40.7634Q74.7129-40.2092 75.088-39.8341Q75.4631-39.459 76.0179-39.459ZM76.0179-34.0917L86.3592-34.0917Q86.9141-34.0917 87.2891-34.4667Q87.6642-34.8418 87.6642-35.3827Q87.6642-35.9375 87.2891-36.2949Q86.9141-36.6522 86.3592-36.6522L76.0179-36.6522Q75.4631-36.6522 75.088-36.2949Q74.7129-35.9375 74.7129-35.3827Q74.7129-34.8418 75.088-34.4667Q75.4631-34.0917 76.0179-34.0917Z"/>
  </g>
  <g id="Ultralight-S" transform="matrix(1 0 0 1 508.091 696)">
   <path d="M16.5169-9.32617L86.7233-9.32617Q89.7491-9.32617 91.6122-11.3464Q93.4753-13.3667 93.4753-16.658L93.4753-53.7979Q93.4753-57.0892 91.6122-59.1095Q89.7491-61.1298 86.7233-61.1298L16.5169-61.1298Q13.4918-61.1298 11.6287-59.1095Q9.76562-57.0892 9.76562-53.7979L9.76562-16.658Q9.76562-13.3667 11.6287-11.3464Q13.4918-9.32617 16.5169-9.32617ZM16.4299-11.5471Q14.3982-11.5471 13.1908-12.9154Q11.9835-14.2838 11.9835-16.5909L11.9835-53.8651Q11.9835-56.1722 13.1908-57.5401Q14.3982-58.9081 16.4299-58.9081L86.808-58.9081Q88.842-58.9081 90.0478-57.5401Q91.2537-56.1722 91.2537-53.8651L91.2537-16.5909Q91.2537-14.2838 90.0478-12.9154Q88.842-11.5471 86.808-11.5471ZM21.6995-17.3363L56.7535-17.3363Q58.5884-17.3363 59.6313-18.4036Q60.6743-19.471 60.6743-21.3058L60.6743-49.1501Q60.6743-50.988 59.6313-52.0538Q58.5884-53.1197 56.7535-53.1197L21.6995-53.1197Q19.8616-53.1197 18.7958-52.0538Q17.7299-50.988 17.7299-49.1501L17.7299-21.3058Q17.7299-19.471 18.7958-18.4036Q19.8616-17.3363 21.6995-17.3363ZM21.7941-19.3932Q19.8326-19.3932 19.8326-21.4035L19.8326-49.0517Q19.8326-51.0628 21.7941-51.0628L56.6551-51.0628Q58.6174-51.0628 58.6174-49.0517L58.6174-21.4035Q58.6174-19.3932 56.6551-19.3932ZM66.5039-10.6339L68.6028-10.6339L68.6028-59.8251L66.5039-59.8251ZM67.4606-22.1237L92.4149-22.1237L92.4149-24.2264L67.4606-24.2264ZM74.0768-44.1711L85.8284-44.1711Q86.1214-44.1711 86.3186-44.368Q86.5158-44.5648 86.5158-44.8578L86.5158-52.4323Q86.5158-52.7252 86.3186-52.9224Q86.1214-53.1197 85.8284-53.1197L74.0768-53.1197Q73.8297-53.1197 73.6099-52.9224Q73.3902-52.7252 73.3902-52.4323L73.3902-44.8578Q73.3902-44.1711 74.0768-44.1711ZM74.4492-39.1617L85.4568-39.1617Q85.8887-39.1617 86.2022-39.4753Q86.5158-39.7888 86.5158-40.2199Q86.5158-40.6517 86.2022-40.9424Q85.8887-41.2331 85.4568-41.2331L74.4492-41.2331Q74.0173-41.2331 73.7038-40.9424Q73.3902-40.6517 73.3902-40.2199Q73.3902-39.7888 73.7038-39.4753Q74.0173-39.1617 74.4492-39.1617ZM74.4492-34.1942L85.4568-34.1942Q85.8887-34.1942 86.2022-34.5078Q86.5158-34.8213 86.5158-35.2493Q86.5158-35.6812 86.2022-35.9718Q85.8887-36.2625 85.4568-36.2625L74.4492-36.2625Q74.0173-36.2625 73.7038-35.9718Q73.3902-35.6812 73.3902-35.2493Q73.3902-34.8213 73.7038-34.5078Q74.0173-34.1942 74.4492-34.1942Z"/>
  </g>
 </g>
</svg>
