<?xml version="1.0" encoding="UTF-8"?>
<!--Generator: Apple Native CoreSVG 175.5-->
<!DOCTYPE svg
PUBLIC "-//W3C//DTD SVG 1.1//EN"
       "http://www.w3.org/Graphics/SVG/1.1/DTD/svg11.dtd">
<svg version="1.1" xmlns="http://www.w3.org/2000/svg" xmlns:xlink="http://www.w3.org/1999/xlink" width="3300" height="2200">
 <!--glyph: "", point size: 100.0, font version: "18.0d9e1", template writer version: "84"-->
 <g id="Notes">
  <rect height="2200" id="artboard" style="fill:white;opacity:1" width="3300" x="0" y="0"/>
  <line style="fill:none;stroke:black;opacity:1;stroke-width:0.5;" x1="263" x2="3036" y1="292" y2="292"/>
  <text style="stroke:none;fill:black;font-family:sans-serif;font-size:13;font-weight:bold;" transform="matrix(1 0 0 1 263 322)">Weight/Scale Variations</text>
  <text style="stroke:none;fill:black;font-family:sans-serif;font-size:13;text-anchor:middle;" transform="matrix(1 0 0 1 559.711 322)">Ultralight</text>
  <text style="stroke:none;fill:black;font-family:sans-serif;font-size:13;text-anchor:middle;" transform="matrix(1 0 0 1 856.422 322)">Thin</text>
  <text style="stroke:none;fill:black;font-family:sans-serif;font-size:13;text-anchor:middle;" transform="matrix(1 0 0 1 1153.13 322)">Light</text>
  <text style="stroke:none;fill:black;font-family:sans-serif;font-size:13;text-anchor:middle;" transform="matrix(1 0 0 1 1449.84 322)">Regular</text>
  <text style="stroke:none;fill:black;font-family:sans-serif;font-size:13;text-anchor:middle;" transform="matrix(1 0 0 1 1746.56 322)">Medium</text>
  <text style="stroke:none;fill:black;font-family:sans-serif;font-size:13;text-anchor:middle;" transform="matrix(1 0 0 1 2043.27 322)">Semibold</text>
  <text style="stroke:none;fill:black;font-family:sans-serif;font-size:13;text-anchor:middle;" transform="matrix(1 0 0 1 2339.98 322)">Bold</text>
  <text style="stroke:none;fill:black;font-family:sans-serif;font-size:13;text-anchor:middle;" transform="matrix(1 0 0 1 2636.69 322)">Heavy</text>
  <text style="stroke:none;fill:black;font-family:sans-serif;font-size:13;text-anchor:middle;" transform="matrix(1 0 0 1 2933.4 322)">Black</text>
  <line style="fill:none;stroke:black;opacity:1;stroke-width:0.5;" x1="263" x2="3036" y1="1903" y2="1903"/>
  <g transform="matrix(1 0 0 1 263 1933)">
   <path d="M9.24805 0.830078Q10.8691 0.830078 12.2949 0.214844Q13.7207-0.400391 14.8096-1.49414Q15.8984-2.58789 16.5186-4.01367Q17.1387-5.43945 17.1387-7.05078Q17.1387-8.66211 16.5186-10.0879Q15.8984-11.5137 14.8047-12.6074Q13.7109-13.7012 12.2852-14.3164Q10.8594-14.9316 9.23828-14.9316Q7.62695-14.9316 6.20117-14.3164Q4.77539-13.7012 3.69141-12.6074Q2.60742-11.5137 1.9873-10.0879Q1.36719-8.66211 1.36719-7.05078Q1.36719-5.43945 1.9873-4.01367Q2.60742-2.58789 3.69629-1.49414Q4.78516-0.400391 6.21094 0.214844Q7.63672 0.830078 9.24805 0.830078ZM9.24805-0.654297Q7.91992-0.654297 6.7627-1.14746Q5.60547-1.64062 4.73145-2.51953Q3.85742-3.39844 3.36426-4.56055Q2.87109-5.72266 2.87109-7.05078Q2.87109-8.37891 3.35938-9.54102Q3.84766-10.7031 4.72168-11.582Q5.5957-12.4609 6.75293-12.9541Q7.91016-13.4473 9.23828-13.4473Q10.5762-13.4473 11.7383-12.9541Q12.9004-12.4609 13.7793-11.582Q14.6582-10.7031 15.1514-9.54102Q15.6445-8.37891 15.6445-7.05078Q15.6445-5.72266 15.1514-4.56055Q14.6582-3.39844 13.7793-2.51953Q12.9004-1.64062 11.7432-1.14746Q10.5859-0.654297 9.24805-0.654297ZM5.6543-7.05078Q5.6543-6.72852 5.85938-6.52832Q6.06445-6.32812 6.40625-6.32812L8.51562-6.32812L8.51562-4.20898Q8.51562-3.88672 8.71094-3.67676Q8.90625-3.4668 9.23828-3.4668Q9.56055-3.4668 9.77051-3.67676Q9.98047-3.88672 9.98047-4.20898L9.98047-6.32812L12.0898-6.32812Q12.4219-6.32812 12.627-6.52832Q12.832-6.72852 12.832-7.05078Q12.832-7.38281 12.627-7.58789Q12.4219-7.79297 12.0898-7.79297L9.98047-7.79297L9.98047-9.90234Q9.98047-10.2344 9.77051-10.4443Q9.56055-10.6543 9.23828-10.6543Q8.90625-10.6543 8.71094-10.4443Q8.51562-10.2344 8.51562-9.90234L8.51562-7.79297L6.40625-7.79297Q6.06445-7.79297 5.85938-7.58789Q5.6543-7.38281 5.6543-7.05078Z"/>
  </g>
  <g transform="matrix(1 0 0 1 281.867 1933)">
   <path d="M11.709 2.91016Q13.75 2.91016 15.5518 2.12891Q17.3535 1.34766 18.7305-0.0292969Q20.1074-1.40625 20.8887-3.20801Q21.6699-5.00977 21.6699-7.05078Q21.6699-9.0918 20.8887-10.8936Q20.1074-12.6953 18.7305-14.0723Q17.3535-15.4492 15.5469-16.2305Q13.7402-17.0117 11.6992-17.0117Q9.6582-17.0117 7.85645-16.2305Q6.05469-15.4492 4.68262-14.0723Q3.31055-12.6953 2.5293-10.8936Q1.74805-9.0918 1.74805-7.05078Q1.74805-5.00977 2.5293-3.20801Q3.31055-1.40625 4.6875-0.0292969Q6.06445 1.34766 7.86621 2.12891Q9.66797 2.91016 11.709 2.91016ZM11.709 1.25Q9.98047 1.25 8.47656 0.605469Q6.97266-0.0390625 5.83496-1.17676Q4.69727-2.31445 4.05762-3.81836Q3.41797-5.32227 3.41797-7.05078Q3.41797-8.7793 4.05762-10.2832Q4.69727-11.7871 5.83008-12.9297Q6.96289-14.0723 8.4668-14.7119Q9.9707-15.3516 11.6992-15.3516Q13.4277-15.3516 14.9365-14.7119Q16.4453-14.0723 17.583-12.9297Q18.7207-11.7871 19.3652-10.2832Q20.0098-8.7793 20.0098-7.05078Q20.0098-5.32227 19.3701-3.81836Q18.7305-2.31445 17.5879-1.17676Q16.4453-0.0390625 14.9414 0.605469Q13.4375 1.25 11.709 1.25ZM7.17773-7.05078Q7.17773-6.69922 7.41211-6.47461Q7.64648-6.25 8.01758-6.25L10.8887-6.25L10.8887-3.36914Q10.8887-2.99805 11.1133-2.76855Q11.3379-2.53906 11.6895-2.53906Q12.0605-2.53906 12.29-2.76855Q12.5195-2.99805 12.5195-3.36914L12.5195-6.25L15.4004-6.25Q15.7715-6.25 16.001-6.47461Q16.2305-6.69922 16.2305-7.05078Q16.2305-7.42188 16.001-7.65137Q15.7715-7.88086 15.4004-7.88086L12.5195-7.88086L12.5195-10.752Q12.5195-11.1328 12.29-11.3623Q12.0605-11.5918 11.6895-11.5918Q11.3379-11.5918 11.1133-11.3574Q10.8887-11.123 10.8887-10.752L10.8887-7.88086L8.01758-7.88086Q7.63672-7.88086 7.40723-7.65137Q7.17773-7.42188 7.17773-7.05078Z"/>
  </g>
  <g transform="matrix(1 0 0 1 305.646 1933)">
   <path d="M14.9707 5.66406Q17.0605 5.66406 18.96 5.01465Q20.8594 4.36523 22.4512 3.19336Q24.043 2.02148 25.2197 0.429688Q26.3965-1.16211 27.0459-3.06641Q27.6953-4.9707 27.6953-7.05078Q27.6953-9.14062 27.0459-11.04Q26.3965-12.9395 25.2197-14.5312Q24.043-16.123 22.4512-17.2998Q20.8594-18.4766 18.9551-19.126Q17.0508-19.7754 14.9609-19.7754Q12.8711-19.7754 10.9717-19.126Q9.07227-18.4766 7.48535-17.2998Q5.89844-16.123 4.72168-14.5312Q3.54492-12.9395 2.90039-11.04Q2.25586-9.14062 2.25586-7.05078Q2.25586-4.9707 2.90527-3.06641Q3.55469-1.16211 4.72656 0.429688Q5.89844 2.02148 7.49023 3.19336Q9.08203 4.36523 10.9814 5.01465Q12.8809 5.66406 14.9707 5.66406ZM14.9707 3.84766Q13.1641 3.84766 11.5283 3.2959Q9.89258 2.74414 8.53516 1.74805Q7.17773 0.751953 6.17676-0.610352Q5.17578-1.97266 4.62891-3.6084Q4.08203-5.24414 4.08203-7.05078Q4.08203-8.86719 4.62891-10.5029Q5.17578-12.1387 6.17188-13.501Q7.16797-14.8633 8.52539-15.8594Q9.88281-16.8555 11.5186-17.4023Q13.1543-17.9492 14.9609-17.9492Q16.7773-17.9492 18.4131-17.4023Q20.0488-16.8555 21.4111-15.8594Q22.7734-14.8633 23.7744-13.501Q24.7754-12.1387 25.3223-10.5029Q25.8691-8.86719 25.8691-7.05078Q25.8691-5.24414 25.3223-3.6084Q24.7754-1.97266 23.7793-0.610352Q22.7832 0.751953 21.4209 1.74805Q20.0586 2.74414 18.4229 3.2959Q16.7871 3.84766 14.9707 3.84766ZM9.19922-7.05078Q9.19922-6.66992 9.45801-6.4209Q9.7168-6.17188 10.1172-6.17188L14.0625-6.17188L14.0625-2.2168Q14.0625-1.81641 14.3115-1.55762Q14.5605-1.29883 14.9512-1.29883Q15.3516-1.29883 15.6104-1.55273Q15.8691-1.80664 15.8691-2.2168L15.8691-6.17188L19.8242-6.17188Q20.2246-6.17188 20.4785-6.4209Q20.7324-6.66992 20.7324-7.05078Q20.7324-7.46094 20.4785-7.71484Q20.2246-7.96875 19.8242-7.96875L15.8691-7.96875L15.8691-11.9141Q15.8691-12.3242 15.6104-12.583Q15.3516-12.8418 14.9512-12.8418Q14.5605-12.8418 14.3115-12.583Q14.0625-12.3242 14.0625-11.9141L14.0625-7.96875L10.1172-7.96875Q9.70703-7.96875 9.45312-7.71484Q9.19922-7.46094 9.19922-7.05078Z"/>
  </g>
  <text style="stroke:none;fill:black;font-family:sans-serif;font-size:13;font-weight:bold;" transform="matrix(1 0 0 1 263 1953)">Design Variations</text>
  <text style="stroke:none;fill:black;font-family:sans-serif;font-size:13;" transform="matrix(1 0 0 1 263 1971)">Symbols are supported in up to nine weights and three scales.</text>
  <text style="stroke:none;fill:black;font-family:sans-serif;font-size:13;" transform="matrix(1 0 0 1 263 1989)">For optimal layout with text and other symbols, vertically align</text>
  <text style="stroke:none;fill:black;font-family:sans-serif;font-size:13;" transform="matrix(1 0 0 1 263 2007)">symbols with the adjacent text.</text>
  <line style="fill:none;stroke:#00AEEF;stroke-width:0.5;opacity:1.0;" x1="776" x2="776" y1="1919" y2="1933"/>
  <g transform="matrix(1 0 0 1 776 1933)">
   <path d="M3.31055 0.15625Q3.70117 0.15625 3.91602-0.00976562Q4.13086-0.175781 4.26758-0.585938L5.52734-4.0332L11.2891-4.0332L12.5488-0.585938Q12.6855-0.175781 12.9004-0.00976562Q13.1152 0.15625 13.4961 0.15625Q13.8867 0.15625 14.1162-0.0585938Q14.3457-0.273438 14.3457-0.644531Q14.3457-0.869141 14.2383-1.17188L9.6582-13.3691Q9.48242-13.8184 9.17969-14.043Q8.87695-14.2676 8.4082-14.2676Q7.5-14.2676 7.17773-13.3789L2.59766-1.16211Q2.49023-0.859375 2.49023-0.634766Q2.49023-0.263672 2.70996-0.0537109Q2.92969 0.15625 3.31055 0.15625ZM6.00586-5.51758L8.37891-12.0898L8.42773-12.0898L10.8008-5.51758Z"/>
  </g>
  <line style="fill:none;stroke:#00AEEF;stroke-width:0.5;opacity:1.0;" x1="793.197" x2="793.197" y1="1919" y2="1933"/>
  <text style="stroke:none;fill:black;font-family:sans-serif;font-size:13;font-weight:bold;" transform="matrix(1 0 0 1 776 1953)">Margins</text>
  <text style="stroke:none;fill:black;font-family:sans-serif;font-size:13;" transform="matrix(1 0 0 1 776 1971)">Leading and trailing margins on the left and right side of each symbol</text>
  <text style="stroke:none;fill:black;font-family:sans-serif;font-size:13;" transform="matrix(1 0 0 1 776 1989)">can be adjusted by modifying the x-location of the margin guidelines.</text>
  <text style="stroke:none;fill:black;font-family:sans-serif;font-size:13;" transform="matrix(1 0 0 1 776 2007)">Modifications are automatically applied proportionally to all</text>
  <text style="stroke:none;fill:black;font-family:sans-serif;font-size:13;" transform="matrix(1 0 0 1 776 2025)">scales and weights.</text>
  <g transform="matrix(1 0 0 1 1289 1933)">
   <path d="M2.8418 1.86523L4.54102 3.57422Q5.18555 4.22852 5.90332 4.17969Q6.62109 4.13086 7.31445 3.35938L18.0078-8.42773L17.041-9.4043L6.42578 2.27539Q6.16211 2.57812 5.89355 2.61719Q5.625 2.65625 5.27344 2.30469L4.10156 1.14258Q3.75 0.791016 3.79395 0.522461Q3.83789 0.253906 4.14062-0.0195312L15.6152-10.8203L14.6387-11.7871L3.04688-0.898438Q2.30469-0.214844 2.25098 0.498047Q2.19727 1.21094 2.8418 1.86523ZM9.25781-16.3281Q8.94531-16.0254 8.90625-15.6348Q8.86719-15.2441 9.04297-14.9512Q9.21875-14.6777 9.55566-14.541Q9.89258-14.4043 10.3809-14.5215Q11.4746-14.7754 12.5977-14.7314Q13.7207-14.6875 14.7949-13.9844L14.209-12.5293Q13.9551-11.9043 14.0674-11.4404Q14.1797-10.9766 14.5801-10.5664L16.875-8.25195Q17.2363-7.88086 17.5781-7.82227Q17.9199-7.76367 18.3398-7.8418L19.4043-8.03711L20.0684-7.36328L20.0293-6.80664Q20-6.43555 20.1221-6.12305Q20.2441-5.81055 20.6055-5.44922L21.3672-4.70703Q21.7285-4.3457 22.1533-4.33105Q22.5781-4.31641 22.9297-4.66797L25.8398-7.58789Q26.1914-7.93945 26.1816-8.35449Q26.1719-8.76953 25.8105-9.13086L25.0391-9.89258Q24.6875-10.2539 24.3799-10.3857Q24.0723-10.5176 23.7109-10.4883L23.1348-10.4395L22.4902-11.0742L22.7344-12.1973Q22.832-12.6172 22.6953-12.9834Q22.5586-13.3496 22.1191-13.7891L19.9219-15.9766Q18.6719-17.2168 17.2607-17.8369Q15.8496-18.457 14.4189-18.4814Q12.9883-18.5059 11.665-17.959Q10.3418-17.4121 9.25781-16.3281ZM10.752-15.957Q11.6602-16.6211 12.7002-16.9043Q13.7402-17.1875 14.8047-17.085Q15.8691-16.9824 16.8701-16.5137Q17.8711-16.0449 18.7012-15.2051L21.1328-12.793Q21.3086-12.6172 21.3525-12.4512Q21.3965-12.2852 21.3379-12.0312L21.0156-10.5469L22.5195-9.0625L23.5059-9.12109Q23.6914-9.13086 23.7891-9.09668Q23.8867-9.0625 24.0332-8.91602L24.6094-8.33984L22.168-5.89844L21.5918-6.47461Q21.4453-6.62109 21.4062-6.71875Q21.3672-6.81641 21.377-7.01172L21.4453-7.98828L19.9512-9.47266L18.4277-9.21875Q18.1836-9.16992 18.042-9.2041Q17.9004-9.23828 17.7148-9.41406L15.7129-11.416Q15.5176-11.5918 15.4932-11.7529Q15.4688-11.9141 15.5859-12.1875L16.4648-14.2773Q15.293-15.3711 13.8281-15.791Q12.3633-16.2109 10.8398-15.7617Q10.7227-15.7324 10.6885-15.8057Q10.6543-15.8789 10.752-15.957Z"/>
  </g>
  <text style="stroke:none;fill:black;font-family:sans-serif;font-size:13;font-weight:bold;" transform="matrix(1 0 0 1 1289 1953)">Exporting</text>
  <text style="stroke:none;fill:black;font-family:sans-serif;font-size:13;" transform="matrix(1 0 0 1 1289 1971)">Symbols should be outlined when exporting to ensure the</text>
  <text style="stroke:none;fill:black;font-family:sans-serif;font-size:13;" transform="matrix(1 0 0 1 1289 1989)">design is preserved when submitting to Xcode.</text>
  <text id="template-version" style="stroke:none;fill:black;font-family:sans-serif;font-size:13;text-anchor:end;" transform="matrix(1 0 0 1 3036 1933)">Template v.2.0</text>
  <text style="stroke:none;fill:black;font-family:sans-serif;font-size:13;text-anchor:end;" transform="matrix(1 0 0 1 3036 1951)">Requires Xcode 12 or greater</text>
  <text id="descriptive-name" style="stroke:none;fill:black;font-family:sans-serif;font-size:13;text-anchor:end;" transform="matrix(1 0 0 1 3036 1969)">Generated from custom.ax</text>
  <text style="stroke:none;fill:black;font-family:sans-serif;font-size:13;text-anchor:end;" transform="matrix(1 0 0 1 3036 1987)">Typeset at 100 points</text>
  <text style="stroke:none;fill:black;font-family:sans-serif;font-size:13;" transform="matrix(1 0 0 1 263 726)">Small</text>
  <text style="stroke:none;fill:black;font-family:sans-serif;font-size:13;" transform="matrix(1 0 0 1 263 1156)">Medium</text>
  <text style="stroke:none;fill:black;font-family:sans-serif;font-size:13;" transform="matrix(1 0 0 1 263 1586)">Large</text>
 </g>
 <g id="Guides">
  <g id="H-reference" style="fill:#27AAE1;stroke:none;" transform="matrix(1 0 0 1 339 696)">
   <path d="M0.993347 0L3.6377 0L29.3282-67.1326L30.0301-67.1326L30.0301-70.459L28.1227-70.459ZM11.6882-24.4797L46.9818-24.4797L46.2311-26.7288L12.4382-26.7288ZM55.1193 0L57.7637 0L30.6381-70.459L29.4327-70.459L29.4327-67.1326Z"/>
  </g>
  <line id="Baseline-S" style="fill:none;stroke:#27AAE1;opacity:1;stroke-width:0.5;" x1="263" x2="3036" y1="696" y2="696"/>
  <line id="Capline-S" style="fill:none;stroke:#27AAE1;opacity:1;stroke-width:0.5;" x1="263" x2="3036" y1="625.541" y2="625.541"/>
  <g id="H-reference" style="fill:#27AAE1;stroke:none;" transform="matrix(1 0 0 1 339 1126)">
   <path d="M0.993347 0L3.6377 0L29.3282-67.1326L30.0301-67.1326L30.0301-70.459L28.1227-70.459ZM11.6882-24.4797L46.9818-24.4797L46.2311-26.7288L12.4382-26.7288ZM55.1193 0L57.7637 0L30.6381-70.459L29.4327-70.459L29.4327-67.1326Z"/>
  </g>
  <line id="Baseline-M" style="fill:none;stroke:#27AAE1;opacity:1;stroke-width:0.5;" x1="263" x2="3036" y1="1126" y2="1126"/>
  <line id="Capline-M" style="fill:none;stroke:#27AAE1;opacity:1;stroke-width:0.5;" x1="263" x2="3036" y1="1055.54" y2="1055.54"/>
  <g id="H-reference" style="fill:#27AAE1;stroke:none;" transform="matrix(1 0 0 1 339 1556)">
   <path d="M0.993347 0L3.6377 0L29.3282-67.1326L30.0301-67.1326L30.0301-70.459L28.1227-70.459ZM11.6882-24.4797L46.9818-24.4797L46.2311-26.7288L12.4382-26.7288ZM55.1193 0L57.7637 0L30.6381-70.459L29.4327-70.459L29.4327-67.1326Z"/>
  </g>
  <line id="Baseline-L" style="fill:none;stroke:#27AAE1;opacity:1;stroke-width:0.5;" x1="263" x2="3036" y1="1556" y2="1556"/>
  <line id="Capline-L" style="fill:none;stroke:#27AAE1;opacity:1;stroke-width:0.5;" x1="263" x2="3036" y1="1485.54" y2="1485.54"/>
  <line id="left-margin" style="fill:none;stroke:#00AEEF;stroke-width:0.5;opacity:1.0;" x1="1390.34" x2="1390.34" y1="1030.73" y2="1150.14"/>
  <line id="right-margin" style="fill:none;stroke:#00AEEF;stroke-width:0.5;opacity:1.0;" x1="1509.34" x2="1509.34" y1="1030.73" y2="1150.14"/>
 </g>
 <g id="Symbols">
  <g id="Black-L" transform="matrix(1 0 0 1 2848.7 1556)">
   <path d="M123.85-81.4L109.35-95.9L117.05-103.6L131.75-89.1L123.85-81.4ZM1.25 12.1L22.25 33.1L50.25-7.8L87.35-44.7L72.65-59.2L1.25 12.1ZM125.95-69.2L97.85-97.2L70.85-70.2C70.85-70.2 89.35-53.8 97.35-43.7C105.35-33.6 104.95-0.2 104.95-0.2C104.95-0.2 123.85 3.8 143.95-10.3C164.05-24.2 168.05-46.2 168.05-46.2L125.95-69.2Z"/>
  </g>
  <g id="Heavy-L" transform="matrix(1 0 0 1 2553.84 1556)">
   <path d="M120.95-79.7L106.75-94L114.95-102.2L129.25-88L120.95-79.7ZM1.25 11.3L21.85 31.9L49.35-8.2L86.15-44.9L71.75-59.1L1.25 11.3ZM95.65-95.6L69.05-69C69.05-69 87.25-52.9 94.95-43.1C102.65-33.3 102.25-0.4 102.25-0.4C102.25-0.4 121.35 3.1 141.05-10.7C160.75-24.4 164.35-45.6 164.35-45.6L123.15-68.1L95.65-95.6Z"/>
  </g>
  <g id="Bold-L" transform="matrix(1 0 0 1 2258.83 1556)">
   <path d="M118.35-78.5L104.45-92.6L112.85-101L126.85-87L118.35-78.5ZM1.25 10.4L21.55 30.7L48.55-8.6L85.15-45.1L70.85-59.1L1.25 10.4ZM93.55-94.2L68.15-68.8C68.15-68.8 85.95-52.9 93.65-43.3C101.35-33.7 100.85-1.4 100.85-1.4C100.85-1.4 118.05 3.2 137.35-10.3C156.75-23.7 160.95-45.3 160.95-45.3L120.65-67.3L93.55-94.2Z"/>
  </g>
  <g id="Semibold-L" transform="matrix(1 0 0 1 1963.82 1556)">
   <path d="M115.15-76.9L101.45-90.6L110.65-99.8L124.45-86.1L115.15-76.9ZM1.25 9.4L21.15 29.3L47.55-9.3L83.95-45.5L69.95-59.2L1.25 9.4ZM91.45-92.8L66.85-68.3C66.85-68.3 84.25-52.8 91.85-43.3C99.35-33.8 98.95-2.3 98.95-2.3C98.95-2.3 115.85 2.3 134.85-10.9C153.85-24 157.55-44.8 157.55-44.8L117.95-66.5L91.45-92.8Z"/>
  </g>
  <g id="Medium-L" transform="matrix(1 0 0 1 1668.66 1556)">
   <path d="M112.75-75.9L99.35-89.3L108.45-98.4L122.05-85L112.75-75.9ZM1.25 8.6L20.75 28L46.55-9.7L82.65-45.7L69.15-59.1L1.25 8.6ZM89.55-91.5L66.45-68.4C66.45-68.4 83.55-53.2 90.95-43.9C98.25-34.6 97.95-3.7 97.95-3.7C97.95-3.7 114.55 0.7 133.15-12.2C151.75-25.1 154.45-44.4 154.45-44.4L115.65-65.7L89.55-91.5Z"/>
  </g>
  <g id="Regular-L" transform="matrix(1 0 0 1 1373.49 1556)">
   <path d="M110.15-74.7L96.95-87.9L106.25-97.2L119.55-84L110.15-74.7ZM1.25 7.6L20.35 26.7L45.65-10.3L81.65-46.2L68.35-59.2L1.25 7.6ZM87.85-90.5L65.25-67.9C65.25-67.9 82.05-53.1 89.25-43.9C96.45-34.7 96.05-4.6 96.05-4.6C96.05-4.6 112.15-0.1 130.45-12.9C148.65-25.5 151.35-44.5 151.35-44.5L113.25-65.3L87.85-90.5Z"/>
  </g>
  <g id="Light-L" transform="matrix(1 0 0 1 1078.33 1556)">
   <path d="M107.45-73.4L94.65-86.2L104.25-95.8L117.25-82.9L107.45-73.4ZM1.25 6.9L19.85 25.5L44.65-10.8L80.25-46.2L67.25-59L1.25 6.9ZM86.05-89.3L63.85-67.1C63.85-67.1 80.25-52.5 87.35-43.6C94.45-34.7 94.05-5 94.05-5C94.05-5 109.95-0.6 127.75-13.1C145.55-25.5 148.25-44.1 148.25-44.1L110.95-64.4L86.05-89.3Z"/>
  </g>
  <g id="Thin-L" transform="matrix(1 0 0 1 783.172 1556)">
   <path d="M104.65-71.5L91.95-84.1L102.05-94.2L114.85-81.6L104.65-71.5ZM1.25 6.3L19.45 24.5L43.75-11L79.05-46.2L66.45-58.7L1.25 6.3ZM84.25-87.7L62.55-66.1C62.55-66.1 78.55-51.8 85.55-43.1C92.55-34.5 92.15-5.3 92.15-5.3C92.15-5.3 107.65-1 125.15-13.3C142.55-25.3 145.15-43.6 145.15-43.6L108.65-63.5L84.25-87.7Z"/>
  </g>
  <g id="Ultralight-L" transform="matrix(1 0 0 1 488.061 1556)">
   <path d="M101.85-70.5L89.55-82.7L99.65-92.8L112.05-80.5L101.85-70.5ZM1.25 5.4L19.05 23.3L42.75-11.4L77.55-46.1L65.15-58.5L1.25 5.4ZM82.35-86.6L61.15-65.3C61.15-65.3 76.85-51.4 83.55-42.9C90.35-34.4 90.05-6 90.05-6C90.05-6 105.35-1.7 122.35-13.7C139.35-25.6 141.95-43.4 141.95-43.4L106.25-62.7L82.35-86.6Z"/>
  </g>
  <g id="Black-M" transform="matrix(1 0 0 1 2867.4 1126)">
   <path d="M96.35-71.2L85.15-82.4L91.15-88.4L102.55-77.2L96.35-71.2ZM1.25 1.2L17.55 17.5L39.25-14.2L67.95-42.8L56.65-54L1.25 1.2ZM97.95-61.8L76.15-83.5L55.25-62.6C55.25-62.6 69.55-49.9 75.75-42.1C81.95-34.3 81.65-8.4 81.65-8.4C81.65-8.4 96.25-5.3 111.85-16.2C127.55-27 130.65-44 130.65-44L97.95-61.8Z"/>
  </g>
  <g id="Heavy-M" transform="matrix(1 0 0 1 2572.14 1126)">
   <path d="M94.05-70L83.05-81.1L89.45-87.5L100.55-76.5L94.05-70ZM1.25 0.6L17.25 16.6L38.55-14.5L67.05-43L55.85-54L1.25 0.6ZM74.45-82.3L53.75-61.7C53.75-61.7 67.85-49.2 73.85-41.6C79.85-34 79.55-8.5 79.55-8.5C79.55-8.5 94.35-5.8 109.65-16.5C124.95-27.1 127.75-43.6 127.75-43.6L95.75-61L74.45-82.3Z"/>
  </g>
  <g id="Bold-M" transform="matrix(1 0 0 1 2276.73 1126)">
   <path d="M92.05-69L81.25-79.9L87.75-86.4L98.65-75.6L92.05-69ZM1.25-0.1L16.95 15.6L37.85-14.9L66.25-43.2L55.25-54L1.25-0.1ZM72.85-81.2L53.15-61.5C53.15-61.5 66.95-49.2 72.95-41.7C78.95-34.2 78.55-9.2 78.55-9.2C78.55-9.2 91.85-5.6 106.85-16.1C121.85-26.5 125.15-43.2 125.15-43.2L93.85-60.3L72.85-81.2Z"/>
  </g>
  <g id="Semibold-M" transform="matrix(1 0 0 1 1981.37 1126)">
   <path d="M89.55-67.8L78.95-78.4L86.05-85.5L96.75-74.9L89.55-67.8ZM1.25-0.9L16.65 14.5L37.15-15.4L65.35-43.5L54.55-54.1L1.25-0.9ZM71.15-80.1L52.15-61.1C52.15-61.1 65.65-49.1 71.55-41.7C77.35-34.3 77.05-9.9 77.05-9.9C77.05-9.9 90.15-6.3 104.85-16.6C119.55-26.8 122.45-42.9 122.45-42.9L91.75-59.7L71.15-80.1Z"/>
  </g>
  <g id="Medium-M" transform="matrix(1 0 0 1 1685.91 1126)">
   <path d="M87.65-67L77.25-77.4L84.35-84.5L94.85-74.1L87.65-67ZM1.25-1.5L16.35 13.6L36.35-15.7L64.35-43.6L53.85-54L1.25-1.5ZM69.65-79.1L51.75-61.2C51.75-61.2 65.05-49.4 70.75-42.2C76.45-35 76.15-11 76.15-11C76.15-11 89.05-7.6 103.45-17.6C117.85-27.6 119.95-42.6 119.95-42.6L89.85-59.1L69.65-79.1Z"/>
  </g>
  <g id="Regular-M" transform="matrix(1 0 0 1 1390.34 1126)">
   <path d="M85.65-66.1L75.45-76.3L82.65-83.5L92.95-73.3L85.65-66.1ZM1.25-2.3L16.05 12.5L35.65-16.2L63.55-44L53.25-54.1L1.25-2.3ZM68.35-78.3L50.85-60.8C50.85-60.8 63.85-49.3 69.45-42.2C75.05-35.1 74.75-11.7 74.75-11.7C74.75-11.7 87.25-8.2 101.45-18.1C115.55-27.9 117.65-42.6 117.65-42.6L88.15-58.7L68.35-78.3Z"/>
  </g>
  <g id="Light-M" transform="matrix(1 0 0 1 1094.83 1126)">
   <path d="M83.55-65L73.65-74.9L81.05-82.3L91.15-72.3L83.55-65ZM1.25-2.8L15.65 11.6L34.85-16.5L62.55-43.9L52.45-53.8L1.25-2.8ZM67.05-77.3L49.85-60.1C49.85-60.1 62.55-48.8 68.05-41.9C73.55-35 73.25-12 73.25-12C73.25-12 85.55-8.6 99.35-18.3C113.15-27.9 115.25-42.3 115.25-42.3L86.35-58L67.05-77.3Z"/>
  </g>
  <g id="Thin-M" transform="matrix(1 0 0 1 799.372 1126)">
   <path d="M81.35-63.5L71.55-73.3L79.35-81.1L89.25-71.3L81.35-63.5ZM1.25-3.2L15.35 10.9L34.15-16.6L61.55-43.9L51.75-53.6L1.25-3.2ZM65.55-76.1L48.75-59.3C48.75-59.3 61.15-48.2 66.55-41.5C71.95-34.8 71.65-12.2 71.65-12.2C71.65-12.2 83.65-8.9 97.25-18.4C110.75-27.7 112.75-41.9 112.75-41.9L84.45-57.3L65.55-76.1Z"/>
  </g>
  <g id="Ultralight-M" transform="matrix(1 0 0 1 503.861 1126)">
   <path d="M79.25-62.7L69.75-72.2L77.55-80L87.15-70.5L79.25-62.7ZM1.25-3.9L15.05 10L33.45-16.9L60.45-43.8L50.85-53.4L1.25-3.9ZM64.15-75.2L47.75-58.7C47.75-58.7 59.95-47.9 65.15-41.3C70.35-34.7 70.15-12.7 70.15-12.7C70.15-12.7 81.95-9.4 95.15-18.7C108.35-27.9 110.35-41.7 110.35-41.7L82.65-56.7L64.15-75.2Z"/>
  </g>
  <g id="Black-S" transform="matrix(1 0 0 1 2881.45 696)">
   <path d="M75.75-63.3L66.95-72L71.65-76.7L80.55-67.9L75.75-63.3ZM1.25-6.5L14.05 6.2L31.05-18.6L53.55-41L44.65-49.8L1.25-6.5ZM76.95-55.9L59.85-72.9L43.45-56.5C43.45-56.5 54.65-46.5 59.55-40.4C64.45-34.3 64.15-14 64.15-14C64.15-14 75.55-11.6 87.85-20.1C100.05-28.6 102.55-41.9 102.55-41.9L76.95-55.9Z"/>
  </g>
  <g id="Heavy-S" transform="matrix(1 0 0 1 2585.89 696)">
   <path d="M73.85-62.3L65.25-71L70.25-76L78.95-67.4L73.85-62.3ZM1.25-7L13.75 5.5L30.45-18.8L52.85-41.1L44.05-49.7L1.25-7ZM58.55-71.9L42.35-55.8C42.35-55.8 53.35-46 58.05-40.1C62.75-34.2 62.55-14.2 62.55-14.2C62.55-14.2 74.15-12.1 86.05-20.5C98.05-28.8 100.25-41.7 100.25-41.7L75.25-55.3L58.55-71.9Z"/>
  </g>
  <g id="Bold-S" transform="matrix(1 0 0 1 2290.18 696)">
   <path d="M72.35-61.5L63.85-70L68.95-75.1L77.45-66.6L72.35-61.5ZM1.25-7.6L13.55 4.7L29.95-19.2L52.15-41.4L43.55-49.9L1.25-7.6ZM57.35-71.1L41.85-55.6C41.85-55.6 52.65-46 57.35-40.1C62.05-34.2 61.75-14.7 61.75-14.7C61.75-14.7 72.15-11.9 83.95-20.1C95.65-28.2 98.25-41.3 98.25-41.3L73.75-54.7L57.35-71.1Z"/>
  </g>
  <g id="Semibold-S" transform="matrix(1 0 0 1 1994.52 696)">
   <path d="M70.35-60.6L62.05-68.9L67.65-74.5L76.05-66.2L70.35-60.6ZM1.25-8.2L13.25 3.8L29.35-19.6L51.45-41.6L42.95-49.9L1.25-8.2ZM55.95-70.2L41.05-55.3C41.05-55.3 51.65-45.9 56.25-40.1C60.75-34.3 60.55-15.2 60.55-15.2C60.55-15.2 70.85-12.4 82.35-20.4C93.85-28.4 96.15-41 96.15-41L72.15-54.2L55.95-70.2Z"/>
  </g>
  <g id="Medium-S" transform="matrix(1 0 0 1 1698.76 696)">
   <path d="M68.95-59.9L60.85-68L66.45-73.6L74.65-65.5L68.95-59.9ZM1.25-8.7L13.05 3.1L28.65-19.8L50.55-41.6L42.45-49.8L1.25-8.7ZM54.85-69.4L40.85-55.4C40.85-55.4 51.25-46.2 55.75-40.5C60.25-34.9 59.95-16.1 59.95-16.1C59.95-16.1 70.05-13.4 81.35-21.3C92.65-29.1 94.25-40.9 94.25-40.9L70.65-53.7L54.85-69.4Z"/>
  </g>
  <g id="Regular-S" transform="matrix(1 0 0 1 1402.94 696)">
   <path d="M67.35-59.3L59.35-67.3L64.95-72.9L73.05-64.9L67.35-59.3ZM1.25-9.3L12.85 2.3L28.15-20.2L50.05-42L41.95-49.9L1.25-9.3ZM53.85-68.8L40.15-55.1C40.15-55.1 50.35-46.1 54.75-40.5C59.15-34.9 58.85-16.6 58.85-16.6C58.85-16.6 68.65-13.9 79.75-21.6C90.75-29.3 92.45-40.9 92.45-40.9L69.35-53.5L53.85-68.8Z"/>
  </g>
  <g id="Light-S" transform="matrix(1 0 0 1 1107.18 696)">
   <path d="M65.75-58.4L57.95-66.2L63.75-72L71.65-64.2L65.75-58.4ZM1.25-9.6L12.55 1.7L27.55-20.3L49.15-41.8L41.25-49.6L1.25-9.6ZM52.75-68L39.25-54.5C39.25-54.5 49.25-45.6 53.55-40.2C57.85-34.8 57.65-16.8 57.65-16.8C57.65-16.8 67.25-14.1 78.15-21.7C88.95-29.3 90.55-40.6 90.55-40.6L67.95-52.9L52.75-68Z"/>
  </g>
  <g id="Thin-S" transform="matrix(1 0 0 1 811.522 696)">
   <path d="M63.95-57.1L56.25-64.8L62.35-70.9L70.15-63.2L63.95-57.1ZM1.25-9.9L12.25 1.1L26.95-20.4L48.45-41.8L40.75-49.4L1.25-9.9ZM51.55-67L38.45-53.8C38.45-53.8 48.15-45.1 52.35-39.9C56.55-34.7 56.35-17 56.35-17C56.35-17 65.75-14.4 76.35-21.9C86.95-29.2 88.45-40.3 88.45-40.3L66.35-52.3L51.55-67Z"/>
  </g>
  <g id="Ultralight-S" transform="matrix(1 0 0 1 515.711 696)">
   <path d="M62.35-56.5L54.95-63.9L61.05-70L68.55-62.6L62.35-56.5ZM1.25-10.4L12.05 0.4L26.45-20.7L47.55-41.8L40.05-49.3L1.25-10.4ZM50.45-66.3L37.65-53.4C37.65-53.4 47.25-44.9 51.25-39.8C55.35-34.6 55.15-17.4 55.15-17.4C55.15-17.4 64.35-14.8 74.75-22.1C85.05-29.3 86.65-40.1 86.65-40.1L64.95-51.8L50.45-66.3Z"/>
  </g>
 </g>
</svg>
