<?xml version="1.0" encoding="UTF-8"?>
<!--Generator: Apple Native CoreSVG 175.5-->
<!DOCTYPE svg
PUBLIC "-//W3C//DTD SVG 1.1//EN"
       "http://www.w3.org/Graphics/SVG/1.1/DTD/svg11.dtd">
<svg version="1.1" xmlns="http://www.w3.org/2000/svg" xmlns:xlink="http://www.w3.org/1999/xlink" width="3300" height="2200">
 <!--glyph: "", point size: 100.0, font version: "18.0d9e1", template writer version: "84"-->
 <g id="Notes">
  <rect height="2200" id="artboard" style="fill:white;opacity:1" width="3300" x="0" y="0"/>
  <line style="fill:none;stroke:black;opacity:1;stroke-width:0.5;" x1="263" x2="3036" y1="292" y2="292"/>
  <text style="stroke:none;fill:black;font-family:sans-serif;font-size:13;font-weight:bold;" transform="matrix(1 0 0 1 263 322)">Weight/Scale Variations</text>
  <text style="stroke:none;fill:black;font-family:sans-serif;font-size:13;text-anchor:middle;" transform="matrix(1 0 0 1 559.711 322)">Ultralight</text>
  <text style="stroke:none;fill:black;font-family:sans-serif;font-size:13;text-anchor:middle;" transform="matrix(1 0 0 1 856.422 322)">Thin</text>
  <text style="stroke:none;fill:black;font-family:sans-serif;font-size:13;text-anchor:middle;" transform="matrix(1 0 0 1 1153.13 322)">Light</text>
  <text style="stroke:none;fill:black;font-family:sans-serif;font-size:13;text-anchor:middle;" transform="matrix(1 0 0 1 1449.84 322)">Regular</text>
  <text style="stroke:none;fill:black;font-family:sans-serif;font-size:13;text-anchor:middle;" transform="matrix(1 0 0 1 1746.56 322)">Medium</text>
  <text style="stroke:none;fill:black;font-family:sans-serif;font-size:13;text-anchor:middle;" transform="matrix(1 0 0 1 2043.27 322)">Semibold</text>
  <text style="stroke:none;fill:black;font-family:sans-serif;font-size:13;text-anchor:middle;" transform="matrix(1 0 0 1 2339.98 322)">Bold</text>
  <text style="stroke:none;fill:black;font-family:sans-serif;font-size:13;text-anchor:middle;" transform="matrix(1 0 0 1 2636.69 322)">Heavy</text>
  <text style="stroke:none;fill:black;font-family:sans-serif;font-size:13;text-anchor:middle;" transform="matrix(1 0 0 1 2933.4 322)">Black</text>
  <line style="fill:none;stroke:black;opacity:1;stroke-width:0.5;" x1="263" x2="3036" y1="1903" y2="1903"/>
  <g transform="matrix(1 0 0 1 263 1933)">
   <path d="M9.24805 0.830078Q10.8691 0.830078 12.2949 0.214844Q13.7207-0.400391 14.8096-1.49414Q15.8984-2.58789 16.5186-4.01367Q17.1387-5.43945 17.1387-7.05078Q17.1387-8.66211 16.5186-10.0879Q15.8984-11.5137 14.8047-12.6074Q13.7109-13.7012 12.2852-14.3164Q10.8594-14.9316 9.23828-14.9316Q7.62695-14.9316 6.20117-14.3164Q4.77539-13.7012 3.69141-12.6074Q2.60742-11.5137 1.9873-10.0879Q1.36719-8.66211 1.36719-7.05078Q1.36719-5.43945 1.9873-4.01367Q2.60742-2.58789 3.69629-1.49414Q4.78516-0.400391 6.21094 0.214844Q7.63672 0.830078 9.24805 0.830078ZM9.24805-0.654297Q7.91992-0.654297 6.7627-1.14746Q5.60547-1.64062 4.73145-2.51953Q3.85742-3.39844 3.36426-4.56055Q2.87109-5.72266 2.87109-7.05078Q2.87109-8.37891 3.35938-9.54102Q3.84766-10.7031 4.72168-11.582Q5.5957-12.4609 6.75293-12.9541Q7.91016-13.4473 9.23828-13.4473Q10.5762-13.4473 11.7383-12.9541Q12.9004-12.4609 13.7793-11.582Q14.6582-10.7031 15.1514-9.54102Q15.6445-8.37891 15.6445-7.05078Q15.6445-5.72266 15.1514-4.56055Q14.6582-3.39844 13.7793-2.51953Q12.9004-1.64062 11.7432-1.14746Q10.5859-0.654297 9.24805-0.654297ZM5.6543-7.05078Q5.6543-6.72852 5.85938-6.52832Q6.06445-6.32812 6.40625-6.32812L8.51562-6.32812L8.51562-4.20898Q8.51562-3.88672 8.71094-3.67676Q8.90625-3.4668 9.23828-3.4668Q9.56055-3.4668 9.77051-3.67676Q9.98047-3.88672 9.98047-4.20898L9.98047-6.32812L12.0898-6.32812Q12.4219-6.32812 12.627-6.52832Q12.832-6.72852 12.832-7.05078Q12.832-7.38281 12.627-7.58789Q12.4219-7.79297 12.0898-7.79297L9.98047-7.79297L9.98047-9.90234Q9.98047-10.2344 9.77051-10.4443Q9.56055-10.6543 9.23828-10.6543Q8.90625-10.6543 8.71094-10.4443Q8.51562-10.2344 8.51562-9.90234L8.51562-7.79297L6.40625-7.79297Q6.06445-7.79297 5.85938-7.58789Q5.6543-7.38281 5.6543-7.05078Z"/>
  </g>
  <g transform="matrix(1 0 0 1 281.867 1933)">
   <path d="M11.709 2.91016Q13.75 2.91016 15.5518 2.12891Q17.3535 1.34766 18.7305-0.0292969Q20.1074-1.40625 20.8887-3.20801Q21.6699-5.00977 21.6699-7.05078Q21.6699-9.0918 20.8887-10.8936Q20.1074-12.6953 18.7305-14.0723Q17.3535-15.4492 15.5469-16.2305Q13.7402-17.0117 11.6992-17.0117Q9.6582-17.0117 7.85645-16.2305Q6.05469-15.4492 4.68262-14.0723Q3.31055-12.6953 2.5293-10.8936Q1.74805-9.0918 1.74805-7.05078Q1.74805-5.00977 2.5293-3.20801Q3.31055-1.40625 4.6875-0.0292969Q6.06445 1.34766 7.86621 2.12891Q9.66797 2.91016 11.709 2.91016ZM11.709 1.25Q9.98047 1.25 8.47656 0.605469Q6.97266-0.0390625 5.83496-1.17676Q4.69727-2.31445 4.05762-3.81836Q3.41797-5.32227 3.41797-7.05078Q3.41797-8.7793 4.05762-10.2832Q4.69727-11.7871 5.83008-12.9297Q6.96289-14.0723 8.4668-14.7119Q9.9707-15.3516 11.6992-15.3516Q13.4277-15.3516 14.9365-14.7119Q16.4453-14.0723 17.583-12.9297Q18.7207-11.7871 19.3652-10.2832Q20.0098-8.7793 20.0098-7.05078Q20.0098-5.32227 19.3701-3.81836Q18.7305-2.31445 17.5879-1.17676Q16.4453-0.0390625 14.9414 0.605469Q13.4375 1.25 11.709 1.25ZM7.17773-7.05078Q7.17773-6.69922 7.41211-6.47461Q7.64648-6.25 8.01758-6.25L10.8887-6.25L10.8887-3.36914Q10.8887-2.99805 11.1133-2.76855Q11.3379-2.53906 11.6895-2.53906Q12.0605-2.53906 12.29-2.76855Q12.5195-2.99805 12.5195-3.36914L12.5195-6.25L15.4004-6.25Q15.7715-6.25 16.001-6.47461Q16.2305-6.69922 16.2305-7.05078Q16.2305-7.42188 16.001-7.65137Q15.7715-7.88086 15.4004-7.88086L12.5195-7.88086L12.5195-10.752Q12.5195-11.1328 12.29-11.3623Q12.0605-11.5918 11.6895-11.5918Q11.3379-11.5918 11.1133-11.3574Q10.8887-11.123 10.8887-10.752L10.8887-7.88086L8.01758-7.88086Q7.63672-7.88086 7.40723-7.65137Q7.17773-7.42188 7.17773-7.05078Z"/>
  </g>
  <g transform="matrix(1 0 0 1 305.646 1933)">
   <path d="M14.9707 5.66406Q17.0605 5.66406 18.96 5.01465Q20.8594 4.36523 22.4512 3.19336Q24.043 2.02148 25.2197 0.429688Q26.3965-1.16211 27.0459-3.06641Q27.6953-4.9707 27.6953-7.05078Q27.6953-9.14062 27.0459-11.04Q26.3965-12.9395 25.2197-14.5312Q24.043-16.123 22.4512-17.2998Q20.8594-18.4766 18.9551-19.126Q17.0508-19.7754 14.9609-19.7754Q12.8711-19.7754 10.9717-19.126Q9.07227-18.4766 7.48535-17.2998Q5.89844-16.123 4.72168-14.5312Q3.54492-12.9395 2.90039-11.04Q2.25586-9.14062 2.25586-7.05078Q2.25586-4.9707 2.90527-3.06641Q3.55469-1.16211 4.72656 0.429688Q5.89844 2.02148 7.49023 3.19336Q9.08203 4.36523 10.9814 5.01465Q12.8809 5.66406 14.9707 5.66406ZM14.9707 3.84766Q13.1641 3.84766 11.5283 3.2959Q9.89258 2.74414 8.53516 1.74805Q7.17773 0.751953 6.17676-0.610352Q5.17578-1.97266 4.62891-3.6084Q4.08203-5.24414 4.08203-7.05078Q4.08203-8.86719 4.62891-10.5029Q5.17578-12.1387 6.17188-13.501Q7.16797-14.8633 8.52539-15.8594Q9.88281-16.8555 11.5186-17.4023Q13.1543-17.9492 14.9609-17.9492Q16.7773-17.9492 18.4131-17.4023Q20.0488-16.8555 21.4111-15.8594Q22.7734-14.8633 23.7744-13.501Q24.7754-12.1387 25.3223-10.5029Q25.8691-8.86719 25.8691-7.05078Q25.8691-5.24414 25.3223-3.6084Q24.7754-1.97266 23.7793-0.610352Q22.7832 0.751953 21.4209 1.74805Q20.0586 2.74414 18.4229 3.2959Q16.7871 3.84766 14.9707 3.84766ZM9.19922-7.05078Q9.19922-6.66992 9.45801-6.4209Q9.7168-6.17188 10.1172-6.17188L14.0625-6.17188L14.0625-2.2168Q14.0625-1.81641 14.3115-1.55762Q14.5605-1.29883 14.9512-1.29883Q15.3516-1.29883 15.6104-1.55273Q15.8691-1.80664 15.8691-2.2168L15.8691-6.17188L19.8242-6.17188Q20.2246-6.17188 20.4785-6.4209Q20.7324-6.66992 20.7324-7.05078Q20.7324-7.46094 20.4785-7.71484Q20.2246-7.96875 19.8242-7.96875L15.8691-7.96875L15.8691-11.9141Q15.8691-12.3242 15.6104-12.583Q15.3516-12.8418 14.9512-12.8418Q14.5605-12.8418 14.3115-12.583Q14.0625-12.3242 14.0625-11.9141L14.0625-7.96875L10.1172-7.96875Q9.70703-7.96875 9.45312-7.71484Q9.19922-7.46094 9.19922-7.05078Z"/>
  </g>
  <text style="stroke:none;fill:black;font-family:sans-serif;font-size:13;font-weight:bold;" transform="matrix(1 0 0 1 263 1953)">Design Variations</text>
  <text style="stroke:none;fill:black;font-family:sans-serif;font-size:13;" transform="matrix(1 0 0 1 263 1971)">Symbols are supported in up to nine weights and three scales.</text>
  <text style="stroke:none;fill:black;font-family:sans-serif;font-size:13;" transform="matrix(1 0 0 1 263 1989)">For optimal layout with text and other symbols, vertically align</text>
  <text style="stroke:none;fill:black;font-family:sans-serif;font-size:13;" transform="matrix(1 0 0 1 263 2007)">symbols with the adjacent text.</text>
  <line style="fill:none;stroke:#00AEEF;stroke-width:0.5;opacity:1.0;" x1="776" x2="776" y1="1919" y2="1933"/>
  <g transform="matrix(1 0 0 1 776 1933)">
   <path d="M3.31055 0.15625Q3.70117 0.15625 3.91602-0.00976562Q4.13086-0.175781 4.26758-0.585938L5.52734-4.0332L11.2891-4.0332L12.5488-0.585938Q12.6855-0.175781 12.9004-0.00976562Q13.1152 0.15625 13.4961 0.15625Q13.8867 0.15625 14.1162-0.0585938Q14.3457-0.273438 14.3457-0.644531Q14.3457-0.869141 14.2383-1.17188L9.6582-13.3691Q9.48242-13.8184 9.17969-14.043Q8.87695-14.2676 8.4082-14.2676Q7.5-14.2676 7.17773-13.3789L2.59766-1.16211Q2.49023-0.859375 2.49023-0.634766Q2.49023-0.263672 2.70996-0.0537109Q2.92969 0.15625 3.31055 0.15625ZM6.00586-5.51758L8.37891-12.0898L8.42773-12.0898L10.8008-5.51758Z"/>
  </g>
  <line style="fill:none;stroke:#00AEEF;stroke-width:0.5;opacity:1.0;" x1="793.197" x2="793.197" y1="1919" y2="1933"/>
  <text style="stroke:none;fill:black;font-family:sans-serif;font-size:13;font-weight:bold;" transform="matrix(1 0 0 1 776 1953)">Margins</text>
  <text style="stroke:none;fill:black;font-family:sans-serif;font-size:13;" transform="matrix(1 0 0 1 776 1971)">Leading and trailing margins on the left and right side of each symbol</text>
  <text style="stroke:none;fill:black;font-family:sans-serif;font-size:13;" transform="matrix(1 0 0 1 776 1989)">can be adjusted by modifying the x-location of the margin guidelines.</text>
  <text style="stroke:none;fill:black;font-family:sans-serif;font-size:13;" transform="matrix(1 0 0 1 776 2007)">Modifications are automatically applied proportionally to all</text>
  <text style="stroke:none;fill:black;font-family:sans-serif;font-size:13;" transform="matrix(1 0 0 1 776 2025)">scales and weights.</text>
  <g transform="matrix(1 0 0 1 1289 1933)">
   <path d="M2.8418 1.86523L4.54102 3.57422Q5.18555 4.22852 5.90332 4.17969Q6.62109 4.13086 7.31445 3.35938L18.0078-8.42773L17.041-9.4043L6.42578 2.27539Q6.16211 2.57812 5.89355 2.61719Q5.625 2.65625 5.27344 2.30469L4.10156 1.14258Q3.75 0.791016 3.79395 0.522461Q3.83789 0.253906 4.14062-0.0195312L15.6152-10.8203L14.6387-11.7871L3.04688-0.898438Q2.30469-0.214844 2.25098 0.498047Q2.19727 1.21094 2.8418 1.86523ZM9.25781-16.3281Q8.94531-16.0254 8.90625-15.6348Q8.86719-15.2441 9.04297-14.9512Q9.21875-14.6777 9.55566-14.541Q9.89258-14.4043 10.3809-14.5215Q11.4746-14.7754 12.5977-14.7314Q13.7207-14.6875 14.7949-13.9844L14.209-12.5293Q13.9551-11.9043 14.0674-11.4404Q14.1797-10.9766 14.5801-10.5664L16.875-8.25195Q17.2363-7.88086 17.5781-7.82227Q17.9199-7.76367 18.3398-7.8418L19.4043-8.03711L20.0684-7.36328L20.0293-6.80664Q20-6.43555 20.1221-6.12305Q20.2441-5.81055 20.6055-5.44922L21.3672-4.70703Q21.7285-4.3457 22.1533-4.33105Q22.5781-4.31641 22.9297-4.66797L25.8398-7.58789Q26.1914-7.93945 26.1816-8.35449Q26.1719-8.76953 25.8105-9.13086L25.0391-9.89258Q24.6875-10.2539 24.3799-10.3857Q24.0723-10.5176 23.7109-10.4883L23.1348-10.4395L22.4902-11.0742L22.7344-12.1973Q22.832-12.6172 22.6953-12.9834Q22.5586-13.3496 22.1191-13.7891L19.9219-15.9766Q18.6719-17.2168 17.2607-17.8369Q15.8496-18.457 14.4189-18.4814Q12.9883-18.5059 11.665-17.959Q10.3418-17.4121 9.25781-16.3281ZM10.752-15.957Q11.6602-16.6211 12.7002-16.9043Q13.7402-17.1875 14.8047-17.085Q15.8691-16.9824 16.8701-16.5137Q17.8711-16.0449 18.7012-15.2051L21.1328-12.793Q21.3086-12.6172 21.3525-12.4512Q21.3965-12.2852 21.3379-12.0312L21.0156-10.5469L22.5195-9.0625L23.5059-9.12109Q23.6914-9.13086 23.7891-9.09668Q23.8867-9.0625 24.0332-8.91602L24.6094-8.33984L22.168-5.89844L21.5918-6.47461Q21.4453-6.62109 21.4062-6.71875Q21.3672-6.81641 21.377-7.01172L21.4453-7.98828L19.9512-9.47266L18.4277-9.21875Q18.1836-9.16992 18.042-9.2041Q17.9004-9.23828 17.7148-9.41406L15.7129-11.416Q15.5176-11.5918 15.4932-11.7529Q15.4688-11.9141 15.5859-12.1875L16.4648-14.2773Q15.293-15.3711 13.8281-15.791Q12.3633-16.2109 10.8398-15.7617Q10.7227-15.7324 10.6885-15.8057Q10.6543-15.8789 10.752-15.957Z"/>
  </g>
  <text style="stroke:none;fill:black;font-family:sans-serif;font-size:13;font-weight:bold;" transform="matrix(1 0 0 1 1289 1953)">Exporting</text>
  <text style="stroke:none;fill:black;font-family:sans-serif;font-size:13;" transform="matrix(1 0 0 1 1289 1971)">Symbols should be outlined when exporting to ensure the</text>
  <text style="stroke:none;fill:black;font-family:sans-serif;font-size:13;" transform="matrix(1 0 0 1 1289 1989)">design is preserved when submitting to Xcode.</text>
  <text id="template-version" style="stroke:none;fill:black;font-family:sans-serif;font-size:13;text-anchor:end;" transform="matrix(1 0 0 1 3036 1933)">Template v.2.0</text>
  <text style="stroke:none;fill:black;font-family:sans-serif;font-size:13;text-anchor:end;" transform="matrix(1 0 0 1 3036 1951)">Requires Xcode 12 or greater</text>
  <text id="descriptive-name" style="stroke:none;fill:black;font-family:sans-serif;font-size:13;text-anchor:end;" transform="matrix(1 0 0 1 3036 1969)">Generated from custom.dog</text>
  <text style="stroke:none;fill:black;font-family:sans-serif;font-size:13;text-anchor:end;" transform="matrix(1 0 0 1 3036 1987)">Typeset at 100 points</text>
  <text style="stroke:none;fill:black;font-family:sans-serif;font-size:13;" transform="matrix(1 0 0 1 263 726)">Small</text>
  <text style="stroke:none;fill:black;font-family:sans-serif;font-size:13;" transform="matrix(1 0 0 1 263 1156)">Medium</text>
  <text style="stroke:none;fill:black;font-family:sans-serif;font-size:13;" transform="matrix(1 0 0 1 263 1586)">Large</text>
 </g>
 <g id="Guides">
  <g id="H-reference" style="fill:#27AAE1;stroke:none;" transform="matrix(1 0 0 1 339 696)">
   <path d="M0.993347 0L3.6377 0L29.3282-67.1326L30.0301-67.1326L30.0301-70.459L28.1227-70.459ZM11.6882-24.4797L46.9818-24.4797L46.2311-26.7288L12.4382-26.7288ZM55.1193 0L57.7637 0L30.6381-70.459L29.4327-70.459L29.4327-67.1326Z"/>
  </g>
  <line id="Baseline-S" style="fill:none;stroke:#27AAE1;opacity:1;stroke-width:0.5;" x1="263" x2="3036" y1="696" y2="696"/>
  <line id="Capline-S" style="fill:none;stroke:#27AAE1;opacity:1;stroke-width:0.5;" x1="263" x2="3036" y1="625.541" y2="625.541"/>
  <g id="H-reference" style="fill:#27AAE1;stroke:none;" transform="matrix(1 0 0 1 339 1126)">
   <path d="M0.993347 0L3.6377 0L29.3282-67.1326L30.0301-67.1326L30.0301-70.459L28.1227-70.459ZM11.6882-24.4797L46.9818-24.4797L46.2311-26.7288L12.4382-26.7288ZM55.1193 0L57.7637 0L30.6381-70.459L29.4327-70.459L29.4327-67.1326Z"/>
  </g>
  <line id="Baseline-M" style="fill:none;stroke:#27AAE1;opacity:1;stroke-width:0.5;" x1="263" x2="3036" y1="1126" y2="1126"/>
  <line id="Capline-M" style="fill:none;stroke:#27AAE1;opacity:1;stroke-width:0.5;" x1="263" x2="3036" y1="1055.54" y2="1055.54"/>
  <g id="H-reference" style="fill:#27AAE1;stroke:none;" transform="matrix(1 0 0 1 339 1556)">
   <path d="M0.993347 0L3.6377 0L29.3282-67.1326L30.0301-67.1326L30.0301-70.459L28.1227-70.459ZM11.6882-24.4797L46.9818-24.4797L46.2311-26.7288L12.4382-26.7288ZM55.1193 0L57.7637 0L30.6381-70.459L29.4327-70.459L29.4327-67.1326Z"/>
  </g>
  <line id="Baseline-L" style="fill:none;stroke:#27AAE1;opacity:1;stroke-width:0.5;" x1="263" x2="3036" y1="1556" y2="1556"/>
  <line id="Capline-L" style="fill:none;stroke:#27AAE1;opacity:1;stroke-width:0.5;" x1="263" x2="3036" y1="1485.54" y2="1485.54"/>
  <line id="left-margin" style="fill:none;stroke:#FF3B30;stroke-width:0.5;opacity:1.0;" x1="1396.92" x2="1396.92" y1="1030.73" y2="1150.14"/>
  <line id="right-margin" style="fill:none;stroke:#FF3B30;stroke-width:0.5;opacity:1.0;" x1="1502.77" x2="1502.77" y1="1030.73" y2="1150.14"/>
 </g>
 <g id="Symbols">
  <g id="Black-L" transform="matrix(1 0 0 1 2851.16 1556)">
   <path d="M21.5003-51.1L21.5003 5.6C17.8003 9.6 11.7003 12.6 2.40034 10.1C-17.4997 4.7-5.69966-28.9 8.70034-53.2C13.7003-61.7 18.6003-67 24.4003-68.4C22.4003-61.8 21.5003-55.6 21.5003-51.1ZM155.6-53.2C149.5-63.5 144.8-68 139.1-68.3C141.4-61.6 142.6-55.4 142.6-51L142.6 5.2C146.3 9.3 152.4 12.6 162.1 10C181.8 4.7 170.1-28.9 155.6-53.2ZM133.4-51.1L133.4 8.7C133.4 22.9 121.9 34.5 107.6 34.5C94.1003 34.5 82.7003 23.8 81.9003 10.2C84.5003 10.2 87.1003 9 88.7003 7L95.8003-1.5C98.1003-4.2 98.6003-7.8 97.2003-11.2C95.7003-14.6 92.6003-16.6 88.9003-16.6L74.5003-16.6C71.0003-16.6 68.1003-14.7 66.5003-11.4C65.0003-8.2 65.3003-4.3 67.7003-1.6L74.9003 7C76.6003 8.9 78.9003 10.1 81.5003 10.2C80.0003 15.6 73.5003 34.5 56.1003 34.5C41.9003 34.5 30.3003 22.9 30.3003 8.7L30.3003-51C30.3003-65.2 40.2003-104.9 81.8003-104.9C120.8-104.8 133.4-65.2 133.4-51.1ZM61.5003-38.8C61.5003-41.4 59.4003-43.4 56.9003-43.4C54.3003-43.4 52.3003-41.3 52.3003-38.8C52.3003-36.2 54.4003-34.2 56.9003-34.2C59.4003-34.2 61.5003-36.1 61.5003-38.8ZM112.4-38.3C112.4-40.9 110.3-42.9 107.8-42.9C105.3-42.9 103.2-40.8 103.2-38.3C103.2-35.7 105.3-33.7 107.8-33.7C110.3-33.7 112.4-35.7 112.4-38.3ZM91.6003-8.6C91.5003-9 90.7003-10.3 89.1003-10.3L74.6003-10.3C73.3003-10.3 72.7003-9.3 72.4003-8.9C72.3003-8.5 71.8003-7.2 72.8003-5.9L79.9003 2.6C80.9003 3.9 82.9003 3.9 83.9003 2.6L91.1003-5.9C92.2003-6.9 91.8003-8.1 91.6003-8.6Z"/>
  </g>
  <g id="Heavy-L" transform="matrix(1 0 0 1 2557.36 1556)">
   <path d="M20.8768-50.7L20.8768 4.9C17.1768 8.8 11.3768 11.7 2.17682 9.3C-17.3232 4-5.72318-28.8 8.37682-52.8C13.2768-61.2 18.1768-66.3 23.8768-67.6C21.6768-61.2 20.8768-55 20.8768-50.7ZM133.977-67.7C136.277-61.1 137.377-55.1 137.377-50.7L137.377 4.6C140.977 8.6 147.077 11.8 156.377 9.2C175.877 3.9 164.277-29 150.177-53C144.377-62.9 139.677-67.3 133.977-67.7ZM88.5768-9.1C88.4768-9.5 87.6768-10.8 86.0768-10.8L71.9768-10.8C70.5768-10.8 69.8768-9.8 69.6768-9.3C69.5768-8.9 68.8768-7.5 70.0768-6.2L77.0768 2.2C78.2768 3.5 80.1768 3.5 81.1768 2.2L88.2768-6.2C89.2768-7.3 88.8768-8.6 88.5768-9.1ZM129.677-50.7L129.677 7.9C129.677 21.8 118.277 33.2 104.377 33.2C90.9768 33.2 79.8768 22.6 79.1768 9.2C81.7768 9.2 84.1768 8 85.8768 6L92.8768-2.4C95.1768-5 95.6768-8.6 94.1768-11.7C92.7768-14.9 89.6768-17 86.1768-17L71.9768-17C68.5768-17 65.6768-15.1 64.2768-12.1C62.7768-8.9 63.2768-5.3 65.4768-2.6L72.5768 5.8C74.2768 7.7 76.5768 8.9 78.9768 8.9C77.5768 14.1 71.2768 32.9 54.0768 32.9C40.1768 32.9 28.7768 21.4 28.7768 7.6L28.7768-51C28.7768-64.9 38.4768-103.9 79.3768-103.9C117.077-103.5 129.677-64.6 129.677-50.7ZM58.7768-38.7C58.7768-41.2 56.6768-43.2 54.2768-43.2C51.7768-43.2 49.7768-41.1 49.7768-38.7C49.7768-36.3 51.8768-34.2 54.2768-34.2C56.7768-34.1 58.7768-36.1 58.7768-38.7ZM108.877-38.1C108.877-40.6 106.777-42.6 104.377-42.6C101.977-42.6 99.8768-40.5 99.8768-38.1C99.8768-35.7 101.977-33.6 104.377-33.6C106.777-33.6 108.877-35.7 108.877-38.1Z"/>
  </g>
  <g id="Bold-L" transform="matrix(1 0 0 1 2262.59 1556)">
   <path d="M20.3733-50.5992L20.3733 3.90078C16.7733 7.60078 10.9733 10.5008 2.07329 8.20078C-17.2267 3.00078-5.72671-29.1992 8.07329-52.7992C12.8733-60.8992 17.5733-65.9992 23.1733-67.3992C21.2733-60.8992 20.3733-54.8992 20.3733-50.5992ZM130.673-67.2992C132.873-60.7992 134.073-54.8992 134.073-50.6992L134.073 3.70078C137.673 7.60078 143.473 10.7008 152.673 8.20078C171.873 3.00078 160.373-29.1992 146.573-52.7992C140.673-62.5992 136.173-66.8992 130.673-67.2992ZM86.9733-8.59922C86.8733-8.99922 86.0733-10.1992 84.4733-10.1992L70.4733-10.1992C69.0733-10.1992 68.3733-9.19922 68.1733-8.69922C68.0733-8.29922 67.3733-6.89922 68.5733-5.49922L75.3733 2.60078C76.6733 3.90078 78.4733 4.00078 79.6733 2.60078L86.6733-5.69922C87.5733-6.79922 87.1733-8.09922 86.9733-8.59922ZM126.973-50.5992L126.973 6.90078C126.973 20.6008 115.873 31.7008 102.173 31.7008C89.3733 31.7008 78.6733 21.9008 77.5733 9.40078C80.0733 9.40078 82.3733 8.20078 83.8733 6.30078L90.6733-1.79922C92.8733-4.29922 93.3733-7.69922 91.9733-10.7992C90.5733-13.8992 87.5733-15.7992 84.2733-15.7992L70.3733-15.7992C67.1733-15.7992 64.2733-13.9992 62.8733-10.9992C61.4733-7.89922 61.8733-4.39922 63.8733-1.79922L70.8733 6.50078C72.3733 8.30078 74.4733 9.30078 76.6733 9.50078C74.7733 15.7008 68.3733 31.9008 52.5733 31.9008C38.8733 31.9008 27.7733 20.7008 27.7733 7.10078L27.7733-50.3992C27.7733-64.0992 37.2733-102.299 77.2733-102.299C114.773-102.499 126.973-64.2992 126.973-50.5992ZM57.4733-38.7992C57.4733-41.0992 55.5733-43.0992 53.1733-43.0992C50.7733-43.0992 48.8733-41.1992 48.8733-38.7992C48.8733-36.3992 50.7733-34.4992 53.1733-34.4992C55.5733-34.4992 57.4733-36.3992 57.4733-38.7992ZM106.473-38.3992C106.473-40.6992 104.573-42.6992 102.173-42.6992C99.8733-42.6992 97.8733-40.7992 97.8733-38.3992C97.8733-35.9992 99.7733-34.0992 102.173-34.0992C104.673-33.9992 106.473-35.8992 106.473-38.3992Z"/>
  </g>
  <g id="Semibold-L" transform="matrix(1 0 0 1 1968.26 1556)">
   <path d="M19.806-50.4982L19.806 3.10179C16.106 6.70179 10.606 9.50179 1.80595 7.20179C-16.994 2.20179-5.79405-29.5982 7.70595-52.4982C12.506-60.4982 17.006-65.3982 22.406-66.7982C20.506-60.6982 19.806-54.6982 19.806-50.4982ZM126.706-66.8982C128.906-60.5982 129.906-54.7982 129.906-50.4982L129.906 2.80179C133.406 6.50179 139.206 9.60179 148.106 7.20179C166.906 2.20179 155.706-29.5982 142.206-52.4982C136.506-62.1982 132.106-66.4982 126.706-66.8982ZM123.506-50.4982L123.506 5.90179C123.506 19.3018 112.706 30.2018 99.206 30.2018C86.306 30.2018 75.506 19.9018 74.906 6.90179C77.206 6.90179 79.506 5.90179 81.106 3.90179L87.806-4.09821C89.906-6.59821 90.406-9.79821 89.106-12.6982C87.706-15.6982 84.806-17.5982 81.606-17.5982L68.006-17.5982C64.906-17.5982 62.206-15.7982 60.806-12.9982C59.406-9.99821 59.806-6.69821 61.806-4.09821L68.606 4.00179C70.106 5.80179 72.306 6.80179 74.706 7.00179C73.506 11.5018 67.606 30.3018 50.606 30.3018C37.206 30.3018 26.306 19.3018 26.306 6.00179L26.306-50.2982C26.306-63.6982 35.606-101.098 74.906-101.098C111.506-101.398 123.506-63.8982 123.506-50.4982ZM55.106-38.8982C55.106-41.1982 53.306-42.9982 51.006-42.9982C48.706-42.9982 46.906-41.1982 46.906-38.8982C46.906-36.5982 48.706-34.7982 51.006-34.7982C53.206-34.8982 55.106-36.6982 55.106-38.8982ZM103.206-38.4982C103.206-40.7982 101.406-42.5982 99.106-42.5982C96.806-42.5982 95.006-40.7982 95.006-38.4982C95.006-36.1982 96.806-34.3982 99.106-34.3982C101.406-34.3982 103.206-36.1982 103.206-38.4982ZM84.306-10.5982C83.906-11.4982 83.006-12.3982 81.606-12.3982L67.906-12.3982C66.406-12.3982 65.706-11.1982 65.406-10.8982C65.106-10.4982 64.606-9.09821 65.806-7.69821L72.506 0.30179C73.706 1.70179 75.706 1.70179 76.906 0.30179L83.706-7.69821C84.906-8.79821 84.406-10.1982 84.306-10.5982Z"/>
  </g>
  <g id="Medium-L" transform="matrix(1 0 0 1 1673.45 1556)">
   <path d="M19.1093-49.9L19.1093 2.7C15.6093 6.3 10.1093 8.9 1.60931 6.7C-16.7907 1.7-5.89069-29.3 7.40931-51.9C12.0093-59.8 16.6093-64.5 21.8093-65.8C19.9093-59.8 19.1093-54 19.1093-49.9ZM123.509-66C125.709-59.8 126.709-54.1 126.709-50L126.709 2.2C130.209 5.9 135.709 8.8 144.509 6.5C162.909 1.5 152.009-29.5 138.709-52.1C133.209-61.4 128.809-65.6 123.509-66ZM120.809-49.9L120.809 5.4C120.809 18.6 110.109 29.3 96.9093 29.3C84.4093 29.3 73.9093 19.4 73.2093 7C75.5093 7 77.6093 6 79.1093 4.2L85.7093-3.7C87.8093-6 88.2093-9.2 86.9093-12.1C85.6093-15.1 82.8093-16.7 79.7093-16.7L66.2093-16.7C63.2093-16.7 60.5093-15 59.2093-12.3C57.8093-9.5 58.2093-6.2 60.2093-3.8L66.9093 4.2C68.3093 5.9 70.4093 6.9 72.6093 7C71.2093 12.2 65.1093 29.3 49.1093 29.3C35.9093 29.3 25.2093 18.5 25.2093 5.4L25.2093-49.9C25.2093-63.1 34.4093-99.8 72.8093-99.8C109.009-99.8 120.809-63 120.809-49.9ZM53.6093-38.5C53.6093-40.7 51.8093-42.4 49.7093-42.4C47.6093-42.4 45.8093-40.6 45.8093-38.5C45.8093-36.4 47.6093-34.6 49.7093-34.6C51.8093-34.7 53.6093-36.3 53.6093-38.5ZM100.809-38.2C100.809-40.4 99.0093-42.1 96.9093-42.1C94.7093-42.1 93.0093-40.3 93.0093-38.2C93.0093-36.1 94.8093-34.3 96.9093-34.3C99.1093-34.3 100.809-36 100.809-38.2ZM82.5093-10.2C82.1093-11.1 81.2093-12 79.8093-12L66.3093-12C65.3093-12 64.2093-11.4 63.8093-10.3C63.3093-9.1 63.4093-8 64.2093-6.9L70.8093 1C72.0093 2.4 74.2093 2.4 75.3093 1L82.0093-6.9C83.2093-8.4 82.7093-9.8 82.5093-10.2Z"/>
  </g>
  <g id="Regular-L" transform="matrix(1 0 0 1 1379.22 1556)">
   <path d="M18.5858-49.6998L18.5858 1.90021C15.1858 5.40021 9.78578 7.90021 1.38578 5.80021C-16.6142 0.800208-5.91422-29.5998 7.08578-51.6998C11.5858-59.2998 15.9858-64.0998 21.1858-65.3998C19.2858-59.3998 18.5858-53.6998 18.5858-49.6998ZM119.186-65.4998C121.286-59.3998 122.286-53.7998 122.286-49.7998L122.286 1.60021C125.686 5.20021 131.186 8.00021 139.686 5.70021C157.786 0.800208 147.086-29.5998 133.986-51.6998C128.586-60.8998 124.386-65.0998 119.186-65.4998ZM117.086-49.6998L117.086 4.50021C117.086 17.4002 106.686 27.8002 93.7858 27.8002C81.3858 27.8002 71.0858 17.9002 70.3858 5.50021C72.5858 5.50021 74.6858 4.50021 76.1858 2.80021L82.6858-4.89979C84.5858-7.09979 85.1858-10.1998 83.8858-12.8998C82.5858-15.6998 79.9858-17.3998 76.8858-17.3998L63.6858-17.3998C60.8858-17.3998 58.2858-15.6998 56.9858-13.0998C55.6858-10.3998 56.0858-7.19979 57.8858-4.79979L64.4858 2.90021C65.8858 4.60021 67.8858 5.60021 69.9858 5.60021C68.6858 10.2002 62.9858 27.9002 46.8858 27.9002C33.9858 27.9002 23.5858 17.3002 23.5858 4.60021L23.5858-49.5998C23.5858-62.4998 32.4858-98.4998 70.2858-98.4998C105.486-98.5998 117.086-62.5998 117.086-49.6998ZM51.1858-38.4998C51.1858-40.5998 49.4858-42.1998 47.4858-42.1998C45.4858-42.1998 43.7858-40.4998 43.7858-38.4998C43.7858-36.4998 45.4858-34.7998 47.4858-34.7998C49.4858-34.7998 51.1858-36.5998 51.1858-38.4998ZM97.4858-38.0998C97.4858-40.1998 95.7858-41.7998 93.7858-41.7998C91.6858-41.7998 90.0858-40.0998 90.0858-38.0998C90.0858-36.0998 91.7858-34.3998 93.7858-34.3998C95.7858-34.3998 97.4858-35.9998 97.4858-38.0998ZM79.6858-10.9998C79.2858-11.8998 78.2858-12.8998 76.8858-12.8998L63.6858-12.8998C62.4858-12.8998 61.5858-12.2998 61.0858-11.1998C60.5858-9.99979 60.6858-8.69979 61.4858-7.69979L67.9858-0.0997921C69.2858 1.30021 71.4858 1.30021 72.5858-0.0997921L79.1858-7.79979C80.4858-9.09979 79.9858-10.5998 79.6858-10.9998Z"/>
  </g>
  <g id="Light-L" transform="matrix(1 0 0 1 1085.24 1556)">
   <path d="M17.9385-49.1L17.9385 1.4C14.6385 4.8 9.33845 7.4 1.23845 5.2C-16.4615 0.4-5.96155-29.4 6.73845-51C11.1385-58.5 15.3385-63.1 20.4385-64.4C18.7385-58.7 17.9385-53.1 17.9385-49.1ZM114.338-64.5C116.438-58.6 117.438-53 117.438-49.1L117.438 1.2C120.838 4.7 126.038 7.4 134.438 5.2C152.138 0.4 141.638-29.4 128.938-51C123.538-60.1 119.338-64.1 114.338-64.5ZM113.338-49.1L113.338 3.9C113.338 16.5 103.138 26.7 90.5385 26.7C78.3385 26.7 68.1385 17 67.6385 4.9C69.7385 4.9 71.7385 3.9 73.1385 2.3L79.4385-5.3C81.3385-7.5 81.7385-10.3 80.6385-13C79.4385-15.7 76.9385-17.4 73.9385-17.4L61.0385-17.4C58.3385-17.4 55.8385-15.9 54.6385-13.3C53.3385-10.7 53.7385-7.6 55.5385-5.4L62.0385 2.2C63.3385 3.7 65.2385 4.8 67.3385 4.8C66.1385 9.3 60.5385 26.6 44.7385 26.6C32.1385 26.6 21.9385 16.3 21.9385 3.8L21.9385-49.1C21.9385-61.7 30.7385-97 67.7385-97C101.938-97 113.338-61.8 113.338-49.1ZM48.4385-38.3C48.4385-40.2 46.9385-41.8 44.9385-41.8C43.0385-41.8 41.4385-40.3 41.4385-38.3C41.4385-36.4 42.9385-34.8 44.9385-34.8C46.8385-34.8 48.4385-36.4 48.4385-38.3ZM93.8385-37.8C93.8385-39.7 92.3385-41.3 90.3385-41.3C88.4385-41.3 86.8385-39.8 86.8385-37.8C86.8385-35.8 88.3385-34.3 90.3385-34.3C92.2385-34.3 93.8385-36 93.8385-37.8ZM76.8385-11.2C76.4385-12.1 75.4385-13.1 74.0385-13.1L61.0385-13.1C59.8385-13.1 58.8385-12.5 58.3385-11.3C57.8385-10.1 57.9385-8.8 58.7385-7.8L65.0385-0.2C66.3385 1.3 68.6385 1.3 69.8385-0.2L76.1385-7.8C77.0385-8.9 77.3385-10.1 76.8385-11.2Z"/>
  </g>
  <g id="Thin-L" transform="matrix(1 0 0 1 790.305 1556)">
   <path d="M17.2925-48.8981L17.2925 0.601939C14.0925 3.80194 8.89251 6.30194 0.992512 4.20194C-16.2075-0.398061-6.10749-29.6981 6.49251-50.8981C10.7925-58.0981 14.9925-62.5981 19.8925-64.0981C18.0925-58.1981 17.2925-52.8981 17.2925-48.8981ZM111.593-63.9981C113.693-58.1981 114.593-52.7981 114.593-48.8981L114.593 0.301939C117.793 3.70194 123.093 6.40194 131.093 4.20194C148.393-0.398061 138.193-29.6981 125.693-50.8981C120.593-59.5981 116.493-63.5981 111.593-63.9981ZM110.693-48.8981L110.693 3.10194C110.693 15.5019 100.593 25.5019 88.2925 25.5019C76.3925 25.5019 66.4925 16.0019 65.9925 4.10194C68.0925 4.10194 69.8925 3.20194 71.2925 1.60194L77.4925-5.79806C79.2925-7.89806 79.6925-10.5981 78.4925-13.1981C77.2925-15.7981 74.8925-17.2981 72.1925-17.2981L59.4925-17.2981C56.8925-17.2981 54.5925-15.7981 53.3925-13.3981C52.1925-10.8981 52.4925-7.99806 54.2925-5.89806L60.5925 1.60194C61.8925 3.10194 63.6925 4.10194 65.5925 4.10194C64.4925 8.30194 59.0925 25.6019 43.4925 25.6019C31.0925 25.6019 21.0925 15.4019 21.0925 3.20194L21.0925-48.7981C21.0925-61.1981 29.6925-95.5981 65.8925-95.5981C99.6925-95.8981 110.693-61.2981 110.693-48.8981ZM47.0925-38.1981C47.0925-39.9981 45.6925-41.3981 43.8925-41.3981C42.0925-41.3981 40.6925-39.9981 40.6925-38.1981C40.6925-36.3981 42.0925-34.9981 43.8925-34.9981C45.6925-34.9981 47.0925-36.4981 47.0925-38.1981ZM91.4925-37.7981C91.4925-39.5981 90.0925-40.9981 88.2925-40.9981C86.4925-40.9981 85.0925-39.5981 85.0925-37.7981C85.0925-35.9981 86.4925-34.5981 88.2925-34.5981C90.0925-34.5981 91.4925-36.1981 91.4925-37.7981ZM75.1925-11.7981C74.7925-12.7981 73.7925-13.8981 72.1925-13.8981L59.5925-13.8981C58.3925-13.8981 57.3925-13.2981 56.7925-12.0981C56.1925-10.7981 56.3925-9.49806 57.1925-8.39806L63.3925-0.998061C64.6925 0.501939 67.0925 0.501939 68.3925-0.998061L74.5925-8.49806C75.5925-9.29806 75.6925-10.5981 75.1925-11.7981Z"/>
  </g>
  <g id="Ultralight-L" transform="matrix(1 0 0 1 496.328 1556)">
   <path d="M16.6805-48.2L16.6805 0.4C13.4805 3.6 8.48049 6 0.78049 3.9C-16.1195-0.7-6.01951-29.3 6.28049-50C10.3805-57.1 14.5805-61.5 19.2805-62.8C17.4805-57.2 16.6805-52.1 16.6805-48.2ZM106.78-62.9C108.68-57.2 109.78-51.9 109.78-48.2L109.78 0.2C112.98 3.6 118.08 6 125.88 3.9C142.78-0.7 132.68-29.3 120.48-50C115.38-58.7 111.48-62.5 106.78-62.9ZM72.3805-11.3C71.9805-12.3 70.8805-13.4 69.2805-13.4L56.9805-13.4C55.6805-13.4 54.6805-12.8 54.1805-11.5C53.6805-10.5 53.5805-9 54.5805-7.8L60.6805-0.6C61.9805 0.9 64.5805 0.9 65.8805-0.6L71.9805-7.8C72.7805-8.7 72.9805-10 72.3805-11.3ZM106.98-48.2L106.98 2.6C106.98 14.7 97.1805 24.5 85.0805 24.5C73.5805 24.5 63.8805 15.5 63.2805 4C65.1805 4 66.9805 3.1 68.2805 1.5L74.3805-5.7C76.0805-7.6 76.4805-10.3 75.3805-12.7C74.1805-15.2 71.9805-16.7 69.2805-16.7L56.9805-16.7C54.4805-16.7 52.3805-15.3 51.1805-13C49.9805-10.5 50.3805-7.8 52.0805-5.8L58.2805 1.6C59.3805 3.1 61.0805 4 62.8805 4C61.5805 8.8 56.0805 24.5 41.2805 24.5C29.1805 24.5 19.3805 14.6 19.3805 2.6L19.3805-48.2C19.3805-60.3 27.7805-94.1 63.2805-94.1C96.1805-94.1 106.98-60.3 106.98-48.2ZM44.5805-37.8C44.5805-39.5 43.2805-40.8 41.5805-40.8C39.8805-40.8 38.5805-39.5 38.5805-37.8C38.5805-36.1 39.8805-34.8 41.5805-34.8C43.2805-34.8 44.5805-36.1 44.5805-37.8ZM87.9805-37.4C87.9805-39.1 86.6805-40.4 84.9805-40.4C83.2805-40.4 81.9805-39.1 81.9805-37.4C81.9805-35.7 83.2805-34.4 84.9805-34.4C86.6805-34.4 87.9805-35.7 87.9805-37.4Z"/>
  </g>
  <g id="Black-M" transform="matrix(1 0 0 1 2871.47 1126)">
   <path d="M14.8217-47.7L14.8217-3.8C11.9217-0.7 7.22174 1.6 0.0217427-0.3C-15.3783-4.5-6.27826-30.5 4.92174-49.4C8.82174-56 12.6217-60.1 17.1217-61.2C15.5217-56 14.8217-51.2 14.8217-47.7ZM118.822-49.4C114.122-57.4 110.422-60.9 106.022-61.1C107.822-55.9 108.722-51.1 108.722-47.7L108.722-4.1C111.622-0.9 116.322 1.6 123.822-0.4C139.122-4.5 130.022-30.5 118.822-49.4ZM101.622-47.7L101.622-1.4C101.622 9.6 92.7217 18.6 81.6217 18.6C71.1217 18.6 62.3217 10.3 61.7217-0.2C63.7217-0.2 65.7217-1.1 67.0217-2.7L72.5217-9.3C74.3217-11.4 74.7217-14.2 73.6217-16.8C72.4217-19.4 70.0217-21 67.2217-21L55.9217-21C53.2217-21 50.9217-19.5 49.7217-17C48.5217-14.5 48.8217-11.5 50.6217-9.4L56.2217-2.7C57.5217-1.2 59.3217-0.3 61.3217-0.2C60.1217 4 55.1217 18.6 41.6217 18.6C30.6217 18.6 21.6217 9.6 21.6217-1.4L21.6217-47.7C21.6217-58.7 29.3217-89.5 61.5217-89.5C91.8217-89.5 101.622-58.7 101.622-47.7ZM45.8217-38.2C45.8217-40.2 44.2217-41.8 42.2217-41.8C40.2217-41.8 38.6217-40.2 38.6217-38.2C38.6217-36.2 40.2217-34.6 42.2217-34.6C44.2217-34.6 45.8217-36.2 45.8217-38.2ZM85.3217-37.8C85.3217-39.8 83.7217-41.4 81.7217-41.4C79.7217-41.4 78.1217-39.8 78.1217-37.8C78.1217-35.8 79.7217-34.2 81.7217-34.2C83.7217-34.2 85.3217-35.8 85.3217-37.8ZM69.2217-14.8C69.1217-15.1 68.5217-16.1 67.3217-16.1L56.0217-16.1C55.0217-16.1 54.5217-15.3 54.3217-15C54.2217-14.7 53.8217-13.7 54.6217-12.7L60.1217-6.1C60.9217-5.1 62.4217-5.1 63.2217-6.1L68.8217-12.7C69.6217-13.5 69.3217-14.5 69.2217-14.8Z"/>
  </g>
  <g id="Heavy-M" transform="matrix(1 0 0 1 2577.05 1126)">
   <path d="M14.342-47.4L14.342-4.3C11.442-1.3 6.94204 1-0.157957-0.9C-15.258-5-6.25796-30.5 4.64204-49.1C8.44204-55.6 12.242-59.6 16.642-60.6C14.942-55.6 14.342-50.9 14.342-47.4ZM102.042-60.6C103.842-55.5 104.642-50.8 104.642-47.4L104.642-4.6C107.442-1.5 112.142 1 119.342-1C134.442-5.1 125.442-30.6 114.542-49.2C110.042-57 106.442-60.4 102.042-60.6ZM66.842-15.2C66.742-15.5 66.142-16.5 64.942-16.5L53.942-16.5C52.842-16.5 52.342-15.7 52.142-15.3C52.042-15 51.542-13.9 52.442-12.9L57.842-6.4C58.742-5.4 60.242-5.4 61.042-6.4L66.542-12.9C67.342-13.9 67.042-14.8 66.842-15.2ZM98.642-47.4L98.642-2C98.642 8.8 89.842 17.6 79.042 17.6C68.642 17.6 60.042 9.4 59.542-1C61.542-1 63.442-1.9 64.742-3.5L70.142-10C71.942-12 72.342-14.8 71.142-17.2C70.042-19.7 67.642-21.3 64.942-21.3L53.942-21.3C51.342-21.3 49.042-19.8 47.942-17.5C46.742-15 47.142-12.2 48.842-10.1L54.342-3.6C55.642-2.1 57.442-1.2 59.342-1.2C58.242 2.8 53.342 17.4 40.042 17.4C29.242 17.4 20.442 8.5 20.442-2.2L20.442-47.6C20.442-58.4 27.942-88.6 59.642-88.6C88.942-88.4 98.642-58.3 98.642-47.4ZM43.742-38.1C43.742-40 42.142-41.6 40.242-41.6C38.342-41.6 36.742-40 36.742-38.1C36.742-36.2 38.342-34.6 40.242-34.6C42.142-34.6 43.742-36.2 43.742-38.1ZM82.542-37.8C82.542-39.7 80.942-41.3 79.042-41.3C77.142-41.3 75.542-39.7 75.542-37.8C75.542-35.9 77.142-34.3 79.042-34.3C80.942-34.3 82.542-35.8 82.542-37.8Z"/>
  </g>
  <g id="Bold-M" transform="matrix(1 0 0 1 2281.84 1126)">
   <path d="M13.933-47.2L13.933-4.9C11.133-2 6.63303 0.2-0.26697-1.6C-15.167-5.6-6.26697-30.6 4.43303-48.9C8.13303-55.2 11.833-59.1 16.133-60.2C14.633-55.2 13.933-50.6 13.933-47.2ZM99.433-60.1C101.133-55.1 102.033-50.5 102.033-47.2L102.033-5.1C104.833-2.1 109.333 0.3 116.433-1.6C131.333-5.6 122.433-30.6 111.733-48.9C107.233-56.5 103.733-59.9 99.433-60.1ZM65.633-14.6C65.533-14.9 64.933-15.9 63.633-15.9L52.833-15.9C51.733-15.9 51.233-15.1 51.033-14.7C50.933-14.4 50.433-13.3 51.333-12.2L56.633-5.9C57.633-4.9 59.033-4.8 59.933-5.9L65.333-12.3C66.033-13.2 65.733-14.2 65.633-14.6ZM96.633-47.2L96.633-2.6C96.633 8 88.033 16.6 77.433 16.6C67.533 16.6 59.233 9 58.333-0.7C60.233-0.7 62.033-1.6 63.233-3.1L68.533-9.4C70.233-11.3 70.633-14 69.533-16.4C68.433-18.8 66.133-20.3 63.533-20.3L52.733-20.3C50.233-20.3 48.033-18.9 46.933-16.6C45.833-14.2 46.133-11.5 47.733-9.5L53.133-3.1C54.333-1.7 55.933-0.9 57.633-0.8C56.133 4 51.233 16.6 38.933 16.6C28.333 16.6 19.733 7.9 19.733-2.6L19.733-47.2C19.733-57.8 27.133-87.4 58.133-87.4C87.133-87.4 96.633-57.8 96.633-47.2ZM42.733-38C42.733-39.8 41.233-41.3 39.433-41.3C37.633-41.3 36.133-39.8 36.133-38C36.133-36.2 37.633-34.7 39.433-34.7C41.233-34.7 42.733-36.2 42.733-38ZM80.733-37.7C80.733-39.5 79.233-41 77.433-41C75.633-41 74.133-39.5 74.133-37.7C74.133-35.9 75.633-34.4 77.433-34.4C79.333-34.4 80.733-35.9 80.733-37.7Z"/>
  </g>
  <g id="Semibold-M" transform="matrix(1 0 0 1 1986.94 1126)">
   <path d="M13.4802-47.0997L13.4802-5.59974C10.6802-2.79974 6.38019-0.599742-0.419811-2.39974C-15.0198-6.29974-6.31981-30.8997 4.18019-48.6997C7.88019-54.8997 11.3802-58.6997 15.5802-59.7997C14.0802-54.9997 13.4802-50.3997 13.4802-47.0997ZM96.3802-59.7997C98.0802-54.8997 98.8802-50.3997 98.8802-47.0997L98.8802-5.79974C101.58-2.89974 106.08-0.499742 112.98-2.39974C127.58-6.29974 118.88-30.8997 108.38-48.6997C103.98-56.2997 100.58-59.5997 96.3802-59.7997ZM93.8802-47.0997L93.8802-3.39974C93.8802 7.00026 85.4802 15.4003 75.0802 15.4003C65.0802 15.4003 56.6802 7.40026 56.2802-2.69974C58.0802-2.69974 59.8802-3.49974 61.0802-4.99974L66.2802-11.1997C67.8802-13.0997 68.2802-15.5997 67.2802-17.8997C66.1802-20.1997 63.9802-21.6997 61.4802-21.6997L50.8802-21.6997C48.4802-21.6997 46.3802-20.2997 45.2802-18.0997C44.1802-15.7997 44.4802-13.1997 46.0802-11.1997L51.3802-4.89974C52.5802-3.49974 54.2802-2.69974 56.0802-2.59974C55.1802 0.900258 50.5802 15.5003 37.3802 15.5003C26.9802 15.5003 18.5802 7.00026 18.5802-3.29974L18.5802-47.0997C18.5802-57.4997 25.7802-86.4997 56.2802-86.4997C84.5802-86.5997 93.8802-57.5997 93.8802-47.0997ZM40.8802-38.1997C40.8802-39.9997 39.4802-41.3997 37.6802-41.3997C35.8802-41.3997 34.4802-39.9997 34.4802-38.1997C34.4802-36.3997 35.8802-34.9997 37.6802-34.9997C39.3802-34.9997 40.8802-36.3997 40.8802-38.1997ZM78.1802-37.7997C78.1802-39.5997 76.7802-40.9997 74.9802-40.9997C73.1802-40.9997 71.7802-39.5997 71.7802-37.7997C71.7802-35.9997 73.1802-34.5997 74.9802-34.5997C76.7802-34.5997 78.1802-36.0997 78.1802-37.7997ZM63.4802-16.1997C63.1802-16.8997 62.4802-17.5997 61.3802-17.5997L50.7802-17.5997C49.5802-17.5997 49.0802-16.6997 48.8802-16.3997C48.6802-16.0997 48.2802-14.9997 49.1802-13.8997L54.3802-7.69974C55.2802-6.59974 56.8802-6.59974 57.7802-7.69974L63.0802-13.8997C63.9802-14.7997 63.5802-15.8997 63.4802-16.1997Z"/>
  </g>
  <g id="Medium-M" transform="matrix(1 0 0 1 1691.68 1126)">
   <path d="M13.0274-46.8L13.0274-6C10.3274-3.2 6.02735-1.2-0.572647-2.9C-14.8726-6.8-6.37265-30.8 3.92735-48.3C7.52735-54.4 11.0274-58.1 15.1274-59.1C13.6274-54.5 13.0274-50.1 13.0274-46.8ZM93.9274-59.3C95.6274-54.5 96.4274-50.1 96.4274-46.9L96.4274-6.4C99.1274-3.5 103.427-1.3 110.227-3.1C124.527-7 116.027-31 105.727-48.5C101.427-55.8 98.0274-59 93.9274-59.3ZM91.8274-46.8L91.8274-3.9C91.8274 6.3 83.5274 14.6 73.3274 14.6C63.6274 14.6 55.5274 6.9 54.9274-2.7C56.7274-2.7 58.3274-3.5 59.5274-4.9L64.6274-11C66.2274-12.8 66.5274-15.3 65.5274-17.5C64.5274-19.8 62.3274-21.1 59.9274-21.1L49.5274-21.1C47.2274-21.1 45.1274-19.8 44.1274-17.7C43.0274-15.5 43.3274-13 44.9274-11.1L50.1274-4.9C51.2274-3.6 52.8274-2.8 54.5274-2.7C53.4274 1.3 48.7274 14.6 36.3274 14.6C26.1274 14.6 17.8274 6.2 17.8274-3.9L17.8274-46.8C17.8274-57 24.9274-85.5 54.7274-85.5C82.7274-85.5 91.8274-57 91.8274-46.8ZM39.7274-38C39.7274-39.7 38.3274-41 36.7274-41C35.1274-41 33.7274-39.6 33.7274-38C33.7274-36.4 35.1274-35 36.7274-35C38.3274-35 39.7274-36.4 39.7274-38ZM76.3274-37.7C76.3274-39.4 74.9274-40.7 73.3274-40.7C71.6274-40.7 70.3274-39.3 70.3274-37.7C70.3274-36.1 71.7274-34.7 73.3274-34.7C75.0274-34.7 76.3274-36 76.3274-37.7ZM62.1274-16.1C61.8274-16.8 61.1274-17.5 60.0274-17.5L49.6274-17.5C48.8274-17.5 48.0274-17 47.7274-16.2C47.3274-15.3 47.4274-14.4 48.0274-13.6L53.1274-7.5C54.0274-6.4 55.7274-6.4 56.6274-7.5L61.8274-13.6C62.7274-14.6 62.3274-15.7 62.1274-16.1Z"/>
  </g>
  <g id="Regular-M" transform="matrix(1 0 0 1 1396.92 1126)">
   <path d="M12.5745-46.6L12.5745-6.6C9.97452-3.9 5.77452-1.9-0.725476-3.6C-14.7255-7.4-6.42548-31 3.67452-48.1C7.17452-54 10.5745-57.7 14.5745-58.7C13.1745-54.1 12.5745-49.8 12.5745-46.6ZM90.5745-58.8C92.1745-54.1 92.9745-49.7 92.9745-46.6L92.9745-6.8C95.5745-4 99.8745-1.8 106.475-3.6C120.475-7.4 112.175-31 102.075-48.1C97.7745-55.3 94.5745-58.5 90.5745-58.8ZM88.9745-46.6L88.9745-4.6C88.9745 5.4 80.8745 13.5 70.8745 13.5C61.2745 13.5 53.2745 5.8 52.7745-3.8C54.4745-3.8 56.0745-4.6 57.2745-5.9L62.2745-11.9C63.7745-13.6 64.1745-16 63.1745-18.1C62.1745-20.3 60.1745-21.6 57.7745-21.6L47.5745-21.6C45.3745-21.6 43.3745-20.3 42.3745-18.3C41.3745-16.2 41.6745-13.7 43.0745-11.9L48.1745-5.9C49.2745-4.6 50.7745-3.8 52.4745-3.8C51.4745-0.2 47.0745 13.5 34.5745 13.5C24.5745 13.5 16.4745 5.3 16.4745-4.6L16.4745-46.6C16.4745-56.6 23.3745-84.5 52.6745-84.5C79.9745-84.5 88.9745-56.6 88.9745-46.6ZM37.7745-38C37.7745-39.6 36.4745-40.9 34.8745-40.9C33.2745-40.9 31.9745-39.6 31.9745-38C31.9745-36.4 33.2745-35.1 34.8745-35.1C36.4745-35.1 37.7745-36.4 37.7745-38ZM73.7745-37.7C73.7745-39.3 72.4745-40.6 70.8745-40.6C69.2745-40.6 67.9745-39.3 67.9745-37.7C67.9745-36.1 69.2745-34.8 70.8745-34.8C72.4745-34.8 73.7745-36.1 73.7745-37.7ZM59.9745-16.6C59.6745-17.3 58.8745-18.1 57.7745-18.1L47.5745-18.1C46.6745-18.1 45.9745-17.6 45.5745-16.8C45.1745-15.9 45.2745-14.9 45.8745-14.1L50.8745-8.1C51.8745-7 53.5745-7 54.4745-8.1L59.5745-14.1C60.5745-15.2 60.1745-16.3 59.9745-16.6Z"/>
  </g>
  <g id="Light-M" transform="matrix(1 0 0 1 1102.31 1126)">
   <path d="M12.1217-46.2L12.1217-7C9.5217-4.4 5.4217-2.4-0.878299-4.1C-14.5783-7.8-6.4783-30.9 3.4217-47.7C6.8217-53.5 10.1217-57.1 14.0217-58.1C12.7217-53.6 12.1217-49.3 12.1217-46.2ZM86.8217-58.2C88.4217-53.6 89.2217-49.3 89.2217-46.3L89.2217-7.3C91.8217-4.6 95.9217-2.5 102.422-4.2C116.122-7.9 108.022-31 98.1217-47.8C93.9217-54.8 90.7217-57.8 86.8217-58.2ZM86.0217-46.2L86.0217-5.1C86.0217 4.7 78.1217 12.6 68.3217 12.6C58.9217 12.6 51.0217 5.1 50.6217-4.3C52.2217-4.3 53.8217-5.1 54.9217-6.3L59.8217-12.2C61.3217-13.9 61.6217-16.1 60.7217-18.2C59.8217-20.3 57.8217-21.6 55.5217-21.6L45.5217-21.6C43.4217-21.6 41.5217-20.4 40.5217-18.4C39.5217-16.4 39.8217-14 41.2217-12.3L46.2217-6.4C47.2217-5.2 48.7217-4.4 50.3217-4.4C49.4217-0.9 45.0217 12.5 32.8217 12.5C23.0217 12.5 15.1217 4.5 15.1217-5.2L15.1217-46.3C15.1217-56.1 21.9217-83.4 50.6217-83.4C77.2217-83.4 86.0217-56 86.0217-46.2ZM35.7217-37.8C35.7217-39.3 34.5217-40.5 33.0217-40.5C31.5217-40.5 30.3217-39.3 30.3217-37.8C30.3217-36.3 31.5217-35.1 33.0217-35.1C34.5217-35.1 35.7217-36.3 35.7217-37.8ZM70.9217-37.5C70.9217-39 69.7217-40.2 68.2217-40.2C66.7217-40.2 65.5217-39 65.5217-37.5C65.5217-36 66.7217-34.8 68.2217-34.8C69.7217-34.8 70.9217-36 70.9217-37.5ZM57.7217-16.8C57.4217-17.5 56.6217-18.3 55.5217-18.3L45.5217-18.3C44.6217-18.3 43.8217-17.8 43.4217-16.9C43.0217-16 43.1217-15 43.7217-14.2L48.6217-8.3C49.6217-7.1 51.4217-7.1 52.3217-8.3L57.2217-14.2C57.9217-15 58.1217-15.9 57.7217-16.8Z"/>
  </g>
  <g id="Thin-M" transform="matrix(1 0 0 1 807.003 1126)">
   <path d="M11.5689-45.8997L11.5689-7.49972C9.06889-4.99972 5.06889-3.09972-1.03111-4.69972C-14.4311-8.29972-6.53111-30.9997 3.16889-47.3997C6.46889-52.9997 9.76889-56.4997 13.5689-57.5997C12.1689-53.0997 11.5689-48.8997 11.5689-45.8997ZM84.6689-57.4997C86.2689-52.9997 86.9689-48.7997 86.9689-45.7997L86.9689-7.59972C89.4689-4.99972 93.5689-2.89972 99.7689-4.59972C113.169-8.19972 105.269-30.8997 95.5689-47.2997C91.6689-54.1997 88.4689-57.1997 84.6689-57.4997ZM83.9689-45.8997L83.9689-5.59972C83.9689 4.00028 76.1689 11.8003 66.5689 11.8003C57.3689 11.8003 49.6689 4.40028 49.2689-4.79972C50.8689-4.79972 52.2689-5.49972 53.3689-6.69972L58.1689-12.3997C59.5689-13.9997 59.8689-16.0997 58.9689-18.0997C58.0689-20.0997 56.1689-21.2997 54.0689-21.2997L44.2689-21.2997C42.2689-21.2997 40.4689-20.0997 39.5689-18.2997C38.6689-16.3997 38.8689-14.0997 40.2689-12.4997L45.1689-6.69972C46.1689-5.49972 47.5689-4.79972 49.0689-4.79972C48.1689-1.49972 43.9689 11.9003 31.8689 11.9003C22.2689 11.9003 14.4689 4.00028 14.4689-5.49972L14.4689-45.7997C14.4689-55.3997 21.1689-82.0997 49.1689-82.0997C75.4689-82.1997 83.9689-55.4997 83.9689-45.8997ZM34.6689-37.5997C34.6689-38.9997 33.5689-40.0997 32.1689-40.0997C30.7689-40.0997 29.6689-38.9997 29.6689-37.5997C29.6689-36.1997 30.7689-35.0997 32.1689-35.0997C33.5689-35.0997 34.6689-36.1997 34.6689-37.5997ZM69.0689-37.2997C69.0689-38.6997 67.9689-39.7997 66.5689-39.7997C65.1689-39.7997 64.0689-38.6997 64.0689-37.2997C64.0689-35.8997 65.1689-34.7997 66.5689-34.7997C67.9689-34.7997 69.0689-35.8997 69.0689-37.2997ZM56.4689-16.9997C56.1689-17.7997 55.3689-18.5997 54.1689-18.5997L44.3689-18.5997C43.4689-18.5997 42.6689-18.0997 42.1689-17.1997C41.6689-16.1997 41.8689-15.1997 42.4689-14.2997L47.2689-8.59972C48.2689-7.39972 50.1689-7.39972 51.1689-8.59972L55.9689-14.3997C56.7689-15.0997 56.8689-16.0997 56.4689-16.9997Z"/>
  </g>
  <g id="Ultralight-M" transform="matrix(1 0 0 1 512.427 1126)">
   <path d="M11.0837-45.4L11.0837-7.7C8.58367-5.2 4.68367-3.4-1.21633-5C-14.3163-8.6-6.51633-30.7 2.98367-46.8C6.18367-52.3 9.38367-55.7 13.0837-56.7C11.6837-52.5 11.0837-48.4 11.0837-45.4ZM80.8837-56.9C82.3837-52.5 83.1837-48.4 83.1837-45.5L83.1837-8C85.6837-5.4 89.5837-3.5 95.6837-5.1C108.784-8.7 100.984-30.8 91.4837-46.9C87.5837-53.5 84.5837-56.5 80.8837-56.9ZM54.2837-16.8C53.9837-17.6 53.0837-18.4 51.8837-18.4L42.2837-18.4C41.2837-18.4 40.4837-17.9 40.0837-16.9C39.6837-16.1 39.5837-15 40.3837-14L45.0837-8.4C46.0837-7.2 48.0837-7.2 49.0837-8.4L53.7837-14C54.5837-14.8 54.6837-15.8 54.2837-16.8ZM81.0837-45.4L81.0837-6C81.0837 3.4 73.4837 11 64.0837 11C55.1837 11 47.6837 4 47.1837-4.9C48.6837-4.9 50.0837-5.6 51.0837-6.8L55.7837-12.4C57.0837-13.9 57.3837-16 56.5837-17.8C55.6837-19.7 53.9837-20.9 51.8837-20.9L42.2837-20.9C40.3837-20.9 38.6837-19.8 37.7837-18C36.8837-16.1 37.1837-14 38.4837-12.4L43.2837-6.7C44.1837-5.6 45.4837-4.9 46.8837-4.9C45.8837-1.2 41.5837 11 30.1837 11C20.7837 11 13.1837 3.3 13.1837-6L13.1837-45.4C13.1837-54.8 19.6837-81 47.1837-81C72.6837-81 81.0837-54.8 81.0837-45.4ZM32.6837-37.3C32.6837-38.6 31.6837-39.6 30.3837-39.6C29.0837-39.6 28.0837-38.6 28.0837-37.3C28.0837-36 29.0837-35 30.3837-35C31.6837-35 32.6837-36.1 32.6837-37.3ZM66.3837-37C66.3837-38.3 65.3837-39.3 64.0837-39.3C62.7837-39.3 61.7837-38.3 61.7837-37C61.7837-35.7 62.7837-34.7 64.0837-34.7C65.3837-34.7 66.3837-35.8 66.3837-37Z"/>
  </g>
  <g id="Black-S" transform="matrix(1 0 0 1 2886.66 696)">
   <path d="M9.85996-44.8L9.85996-10.4C7.55996-8 3.85996-6.2-1.74004-7.7C-13.84-11-6.64004-31.4 2.05996-46.2C5.15996-51.4 8.05996-54.6 11.66-55.4C10.36-51.3 9.85996-47.6 9.85996-44.8ZM91.26-46.2C87.56-52.5 84.66-55.2 81.26-55.4C82.66-51.3 83.36-47.6 83.36-44.9L83.36-10.8C85.66-8.3 89.36-6.3 95.16-7.9C107.16-11 100.06-31.4 91.26-46.2ZM77.76-44.8L77.76-8.5C77.76 0.1 70.76 7.2 62.06 7.2C53.86 7.2 46.96 0.7 46.46-7.5C48.06-7.5 49.56-8.2 50.56-9.5L54.86-14.7C56.26-16.3 56.56-18.5 55.76-20.6C54.86-22.6 52.96-23.9 50.76-23.9L41.96-23.9C39.86-23.9 38.06-22.7 37.06-20.8C36.16-18.8 36.36-16.5 37.76-14.8L42.16-9.6C43.16-8.4 44.56-7.7 46.16-7.6C45.26-4.4 41.36 7.1 30.86 7.1C22.26 7.1 15.16 0.1 15.16-8.6L15.16-44.9C15.16-53.5 21.16-77.6 46.36-77.6C70.16-77.5 77.76-53.5 77.76-44.8ZM34.06-37.4C34.06-39 32.76-40.2 31.26-40.2C29.66-40.2 28.46-38.9 28.46-37.4C28.46-35.8 29.76-34.6 31.26-34.6C32.86-34.6 34.06-35.8 34.06-37.4ZM65.06-37.1C65.06-38.7 63.76-39.9 62.26-39.9C60.76-39.9 59.46-38.6 59.46-37.1C59.46-35.5 60.76-34.3 62.26-34.3C63.76-34.3 65.06-35.5 65.06-37.1ZM52.46-19.1C52.36-19.3 51.96-20.1 50.96-20.1L42.16-20.1C41.36-20.1 40.96-19.5 40.86-19.2C40.76-19 40.46-18.2 41.06-17.4L45.36-12.2C45.96-11.4 47.16-11.4 47.76-12.2L52.16-17.4C52.76-18.1 52.46-18.8 52.46-19.1Z"/>
  </g>
  <g id="Heavy-S" transform="matrix(1 0 0 1 2591.79 696)">
   <path d="M9.50164-44.6L9.50164-10.9C7.20164-8.5 3.70164-6.7-1.89836-8.2C-13.6984-11.4-6.69836-31.4 1.90164-45.9C4.90164-51 7.90164-54.1 11.3016-54.9C9.90164-51 9.50164-47.3 9.50164-44.6ZM78.1016-55C79.5016-51 80.1016-47.3 80.1016-44.7L80.1016-11.2C82.3016-8.8 86.0016-6.8 91.6016-8.4C103.402-11.6 96.4016-31.6 87.8016-46.1C84.4016-52.1 81.6016-54.7 78.1016-55ZM50.6016-19.4C50.5016-19.6 50.1016-20.4 49.1016-20.4L40.5016-20.4C39.6016-20.4 39.2016-19.8 39.1016-19.5C39.0016-19.3 38.6016-18.4 39.3016-17.6L43.5016-12.5C44.2016-11.7 45.4016-11.7 46.0016-12.5L50.3016-17.6C51.0016-18.3 50.7016-19.1 50.6016-19.4ZM75.5016-44.6L75.5016-9.1C75.5016-0.6 68.6016 6.2 60.2016 6.2C52.0016 6.3 45.2016-0.1 44.9016-8.3C46.5016-8.3 48.0016-9 49.0016-10.3L53.2016-15.4C54.6016-17 54.9016-19.2 54.0016-21C53.1016-23 51.3016-24.2 49.1016-24.2L40.5016-24.2C38.5016-24.2 36.7016-23 35.8016-21.2C34.9016-19.2 35.2016-17.1 36.5016-15.4L40.8016-10.3C41.8016-9.1 43.2016-8.4 44.7016-8.4C43.8016-5.3 40.0016 6.1 29.6016 6.1C21.1016 6.1 14.3016-0.9 14.3016-9.2L14.3016-44.7C14.3016-53.2 20.2016-76.8 45.0016-76.8C67.9016-76.7 75.5016-53.1 75.5016-44.6ZM32.5016-37.3C32.5016-38.8 31.2016-40 29.8016-40C28.3016-40 27.1016-38.7 27.1016-37.3C27.1016-35.8 28.4016-34.6 29.8016-34.6C31.2016-34.6 32.5016-35.8 32.5016-37.3ZM62.9016-37C62.9016-38.5 61.6016-39.7 60.2016-39.7C58.8016-39.7 57.5016-38.4 57.5016-37C57.5016-35.6 58.8016-34.3 60.2016-34.3C61.6016-34.3 62.9016-35.5 62.9016-37Z"/>
  </g>
  <g id="Bold-S" transform="matrix(1 0 0 1 2296.24 696)">
   <path d="M9.13646-44.4L9.13646-11.3C6.93646-9 3.43646-7.3-1.96354-8.7C-13.6635-11.8-6.66354-31.4 1.73646-45.7C4.63646-50.6 7.53646-53.7 10.9365-54.5C9.63646-50.7 9.13646-47 9.13646-44.4ZM76.0365-54.5C77.3365-50.6 78.0365-47 78.0365-44.4L78.0365-11.4C80.2365-9.1 83.7365-7.2 89.3365-8.7C101.036-11.8 94.0365-31.4 85.6365-45.7C82.1365-51.7 79.4365-54.3 76.0365-54.5ZM49.6365-18.9C49.5365-19.1 49.1365-19.9 48.0365-19.9L39.5365-19.9C38.6365-19.9 38.2365-19.3 38.1365-19C38.0365-18.8 37.6365-17.9 38.3365-17L42.4365-12.1C43.2365-11.3 44.3365-11.2 45.0365-12.1L49.2365-17.1C49.9365-17.8 49.6365-18.6 49.6365-18.9ZM73.8365-44.4L73.8365-9.5C73.8365-1.2 67.1365 5.5 58.8365 5.5C51.0365 5.5 44.5365-0.5 43.8365-8C45.3365-8 46.7365-8.7 47.6365-9.9L51.7365-14.8C53.0365-16.3 53.3365-18.4 52.5365-20.3C51.6365-22.2 49.8365-23.4 47.8365-23.4L39.3365-23.4C37.3365-23.4 35.6365-22.3 34.8365-20.5C33.9365-18.6 34.2365-16.5 35.4365-14.9L39.6365-9.9C40.5365-8.8 41.8365-8.2 43.1365-8.1C41.9365-4.3 38.1365 5.5 28.5365 5.5C20.2365 5.5 13.5365-1.3 13.5365-9.5L13.5365-44.4C13.5365-52.7 19.3365-75.9 43.6365-75.9C66.4365-75.9 73.8365-52.7 73.8365-44.4ZM31.6365-37.2C31.6365-38.6 30.4365-39.8 29.0365-39.8C27.6365-39.8 26.4365-38.6 26.4365-37.2C26.4365-35.8 27.6365-34.6 29.0365-34.6C30.4365-34.6 31.6365-35.8 31.6365-37.2ZM61.4365-37C61.4365-38.4 60.2365-39.6 58.8365-39.6C57.4365-39.6 56.2365-38.4 56.2365-37C56.2365-35.6 57.4365-34.4 58.8365-34.4C60.3365-34.3 61.4365-35.5 61.4365-37Z"/>
  </g>
  <g id="Semibold-S" transform="matrix(1 0 0 1 2000.93 696)">
   <path d="M8.78361-44.3997L8.78361-11.8997C6.58361-9.69967 3.28361-7.99967-2.11639-9.39967C-13.5164-12.3997-6.71639-31.6997 1.48361-45.5997C4.38361-50.4997 7.08361-53.3997 10.3836-54.2997C9.28361-50.5997 8.78361-46.9997 8.78361-44.3997ZM73.6836-54.2997C74.9836-50.4997 75.6836-46.8997 75.6836-44.3997L75.6836-12.0997C77.7836-9.79967 81.2836-7.99967 86.6836-9.39967C98.0836-12.4997 91.2836-31.6997 83.0836-45.6997C79.6836-51.4997 76.9836-54.0997 73.6836-54.2997ZM71.7836-44.3997L71.7836-10.1997C71.7836-2.09967 65.1836 4.50033 57.0836 4.50033C49.2836 4.50033 42.6836-1.79967 42.3836-9.69967C43.7836-9.69967 45.1836-10.2997 46.1836-11.4997L50.2836-16.3997C51.5836-17.8997 51.8836-19.7997 51.0836-21.5997C50.1836-23.3997 48.4836-24.5997 46.5836-24.5997L38.2836-24.5997C36.3836-24.5997 34.7836-23.4997 33.8836-21.7997C32.9836-19.9997 33.2836-17.9997 34.4836-16.3997L38.5836-11.4997C39.4836-10.3997 40.8836-9.79967 42.2836-9.69967C41.4836-6.79967 37.8836 4.60033 27.4836 4.60033C19.3836 4.60033 12.7836-2.09967 12.7836-10.0997L12.7836-44.2997C12.7836-52.3997 18.3836-75.1997 42.2836-75.1997C64.4836-75.2997 71.7836-52.4997 71.7836-44.3997ZM30.2836-37.2997C30.2836-38.6997 29.1836-39.7997 27.7836-39.7997C26.3836-39.7997 25.2836-38.6997 25.2836-37.2997C25.2836-35.8997 26.3836-34.7997 27.7836-34.7997C29.0836-34.8997 30.2836-35.9997 30.2836-37.2997ZM59.4836-37.0997C59.4836-38.4997 58.3836-39.5997 56.9836-39.5997C55.5836-39.5997 54.4836-38.4997 54.4836-37.0997C54.4836-35.6997 55.5836-34.5997 56.9836-34.5997C58.3836-34.5997 59.4836-35.6997 59.4836-37.0997ZM47.9836-20.1997C47.7836-20.6997 47.1836-21.2997 46.3836-21.2997L38.0836-21.2997C37.1836-21.2997 36.7836-20.5997 36.5836-20.3997C36.3836-20.1997 36.0836-19.2997 36.7836-18.3997L40.8836-13.4997C41.5836-12.5997 42.8836-12.5997 43.5836-13.4997L47.6836-18.3997C48.3836-19.0997 47.9836-19.8997 47.9836-20.1997Z"/>
  </g>
  <g id="Medium-S" transform="matrix(1 0 0 1 1705.33 696)">
   <path d="M8.3746-44.1L8.3746-12.2C6.2746-10 2.8746-8.4-2.2254-9.8C-13.4254-12.9-6.7254-31.6 1.2746-45.3C4.0746-50.1 6.8746-53 10.0746-53.8C8.8746-50.2 8.3746-46.6 8.3746-44.1ZM71.7746-53.9C73.0746-50.1 73.7746-46.7 73.7746-44.2L73.7746-12.5C75.8746-10.2 79.2746-8.5 84.5746-9.9C95.7746-13 89.0746-31.7 81.0746-45.4C77.5746-51.1 74.9746-53.7 71.7746-53.9ZM70.0746-44.1L70.0746-10.5C70.0746-2.5 63.5746 4 55.5746 4C47.9746 4 41.6746-2 41.1746-9.5C42.5746-9.5 43.8746-10.1 44.7746-11.2L48.7746-16C50.0746-17.4 50.2746-19.4 49.4746-21.1C48.6746-23 46.9746-24 45.0746-24L36.9746-24C35.1746-24 33.5746-23 32.7746-21.3C31.8746-19.6 32.1746-17.6 33.3746-16.1L37.4746-11.2C38.3746-10.2 39.5746-9.6 40.8746-9.5C39.9746-6.5 36.3746 3.9 26.6746 3.9C18.6746 3.9 12.1746-2.7 12.1746-10.6L12.1746-44.2C12.1746-52.2 17.7746-74.5 41.0746-74.5C62.9746-74.4 70.0746-52.1 70.0746-44.1ZM29.2746-37.2C29.2746-38.5 28.1746-39.5 26.9746-39.5C25.7746-39.5 24.6746-38.4 24.6746-37.2C24.6746-36 25.7746-34.9 26.9746-34.9C28.1746-34.9 29.2746-35.9 29.2746-37.2ZM57.9746-37C57.9746-38.3 56.8746-39.3 55.6746-39.3C54.3746-39.3 53.3746-38.2 53.3746-37C53.3746-35.8 54.4746-34.7 55.6746-34.7C56.9746-34.7 57.9746-35.7 57.9746-37ZM46.8746-20C46.6746-20.5 46.0746-21.1 45.2746-21.1L37.1746-21.1C36.5746-21.1 35.8746-20.7 35.6746-20.1C35.3746-19.4 35.4746-18.7 35.8746-18.1L39.8746-13.3C40.5746-12.4 41.8746-12.4 42.5746-13.3L46.6746-18.1C47.2746-18.9 46.9746-19.8 46.8746-20Z"/>
  </g>
  <g id="Regular-S" transform="matrix(1 0 0 1 1410.1 696)">
   <path d="M8.09248-44L8.09248-12.7C6.09248-10.6 2.79248-9-2.30752-10.4C-13.3075-13.4-6.80752-31.9 1.09248-45.2C3.79248-49.8 6.49248-52.7 9.59248-53.5C8.59248-49.9 8.09248-46.4 8.09248-44ZM69.1925-53.5C70.4925-49.8 71.0925-46.4 71.0925-43.9L71.0925-12.7C73.0925-10.5 76.4925-8.8 81.6925-10.2C92.6925-13.2 86.1925-31.7 78.2925-45C74.8925-50.8 72.2925-53.3 69.1925-53.5ZM67.8925-44L67.8925-11.1C67.8925-3.3 61.5925 3.1 53.6925 3.1C46.1925 3.1 39.8925-2.9 39.4925-10.4C40.7925-10.4 42.0925-11 42.9925-12L46.8925-16.7C48.0925-18 48.3925-19.9 47.5925-21.6C46.7925-23.3 45.2925-24.3 43.3925-24.3L35.3925-24.3C33.6925-24.3 32.0925-23.3 31.2925-21.7C30.4925-20.1 30.7925-18.1 31.7925-16.7L35.7925-12C36.6925-11 37.7925-10.4 39.1925-10.4C38.5925-7.7 35.0925 3.1 25.2925 3.1C17.4925 3.1 11.0925-3.3 11.0925-11.1L11.0925-44C11.0925-51.8 16.4925-73.7 39.3925-73.7C60.8925-73.7 67.8925-51.8 67.8925-44ZM27.8925-37.2C27.8925-38.5 26.8925-39.5 25.5925-39.5C24.2925-39.5 23.2925-38.5 23.2925-37.2C23.2925-35.9 24.2925-34.9 25.5925-34.9C26.8925-34.9 27.8925-36 27.8925-37.2ZM55.9925-36.9C55.9925-38.2 54.9925-39.2 53.6925-39.2C52.3925-39.2 51.3925-38.2 51.3925-36.9C51.3925-35.6 52.3925-34.6 53.6925-34.6C54.9925-34.6 55.9925-35.7 55.9925-36.9ZM45.1925-20.5C44.9925-21 44.2925-21.7 43.4925-21.7L35.4925-21.7C34.7925-21.7 34.1925-21.3 33.8925-20.7C33.5925-20 33.6925-19.2 34.0925-18.6L37.9925-13.9C38.7925-13 40.0925-13 40.7925-13.9L44.7925-18.6C45.6925-19.3 45.3925-20.3 45.1925-20.5Z"/>
  </g>
  <g id="Light-S" transform="matrix(1 0 0 1 1115.2 696)">
   <path d="M7.63414-43.6L7.63414-12.9C5.63414-10.9 2.43414-9.3-2.46586-10.7C-13.1659-13.6-6.86586-31.7 0.934138-44.9C3.63414-49.4 6.23414-52.2 9.23414-53C8.13414-49.4 7.63414-46.1 7.63414-43.6ZM66.1341-53C67.3341-49.4 67.9341-46.1 67.9341-43.7L67.9341-13.2C69.9341-11.1 73.2341-9.4 78.2341-10.8C88.9341-13.7 82.6341-31.8 74.8341-45C71.7341-50.3 69.2341-52.7 66.1341-53ZM65.4341-43.6L65.4341-11.4C65.4341-3.7 59.2341 2.5 51.5341 2.5C44.1341 2.5 38.0341-3.4 37.6341-10.8C38.9341-10.8 40.1341-11.4 40.9341-12.4L44.8341-17C45.9341-18.3 46.2341-20.1 45.5341-21.7C44.8341-23.3 43.2341-24.3 41.5341-24.3L33.7341-24.3C32.0341-24.3 30.6341-23.3 29.8341-21.8C29.0341-20.2 29.3341-18.4 30.4341-17L34.3341-12.4C35.1341-11.4 36.3341-10.9 37.5341-10.8C36.8341-8.1 33.3341 2.5 23.8341 2.5C16.1341 2.5 9.93414-3.8 9.93414-11.4L9.93414-43.6C9.93414-51.3 15.2341-72.7 37.7341-72.7C58.6341-72.7 65.4341-51.3 65.4341-43.6ZM26.1341-37C26.1341-38.1 25.2341-39.1 24.0341-39.1C22.9341-39.1 21.9341-38.2 21.9341-37C21.9341-35.8 22.8341-34.9 24.0341-34.9C25.2341-34.9 26.1341-35.9 26.1341-37ZM53.6341-36.8C53.6341-37.9 52.7341-38.9 51.5341-38.9C50.3341-38.9 49.4341-38 49.4341-36.8C49.4341-35.6 50.3341-34.7 51.5341-34.7C52.7341-34.7 53.6341-35.6 53.6341-36.8ZM43.3341-20.6C43.0341-21.2 42.5341-21.8 41.5341-21.8L33.7341-21.8C33.0341-21.8 32.4341-21.4 32.1341-20.7C31.8341-20 31.8341-19.2 32.3341-18.6L36.2341-14C37.0341-13.1 38.4341-13.1 39.1341-14L43.0341-18.6C43.5341-19.2 43.6341-19.9 43.3341-20.6Z"/>
  </g>
  <g id="Thin-S" transform="matrix(1 0 0 1 819.397 696)">
   <path d="M7.32512-43.2L7.32512-13.1C5.32512-11.1 2.22512-9.6-2.57488-10.9C-13.0749-13.7-6.87488-31.5 0.725122-44.3C3.32512-48.7 5.82512-51.4 8.82512-52.3C7.72512-48.8 7.32512-45.6 7.32512-43.2ZM64.6251-52.4C65.8251-48.9 66.4251-45.6 66.4251-43.3L66.4251-13.4C68.4251-11.3 71.5251-9.8 76.5251-11.1C87.0251-13.9 80.8251-31.7 73.2251-44.5C70.0251-49.7 67.5251-52.1 64.6251-52.4ZM64.0251-43.2L64.0251-11.7C64.0251-4.2 57.9251 1.9 50.4251 1.9C43.2251 1.9 37.1251-3.9 36.8251-11.1C38.0251-11.1 39.2251-11.7 40.0251-12.6L43.8251-17.1C44.9251-18.3 45.1251-20 44.4251-21.6C43.7251-23.1 42.2251-24.1 40.6251-24.1L32.9251-24.1C31.3251-24.1 29.9251-23.2 29.2251-21.7C28.5251-20.2 28.7251-18.4 29.7251-17.1L33.5251-12.6C34.3251-11.7 35.4251-11.1 36.6251-11.1C35.9251-8.5 32.6251 1.9 23.1251 1.9C15.6251 1.9 9.52512-4.3 9.52512-11.7L9.52512-43.2C9.52512-50.7 14.7251-71.7 36.7251-71.7C57.3251-71.7 64.0251-50.7 64.0251-43.2ZM25.4251-36.7C25.4251-37.8 24.5251-38.6 23.5251-38.6C22.4251-38.6 21.6251-37.7 21.6251-36.7C21.6251-35.7 22.5251-34.8 23.5251-34.8C24.5251-34.8 25.4251-35.7 25.4251-36.7ZM52.4251-36.5C52.4251-37.6 51.5251-38.4 50.5251-38.4C49.4251-38.4 48.6251-37.5 48.6251-36.5C48.6251-35.4 49.5251-34.6 50.5251-34.6C51.5251-34.6 52.4251-35.4 52.4251-36.5ZM42.5251-20.7C42.2251-21.3 41.6251-21.9 40.7251-21.9L33.0251-21.9C32.3251-21.9 31.6251-21.5 31.3251-20.8C30.9251-20 31.0251-19.2 31.6251-18.6L35.4251-14.1C36.2251-13.2 37.7251-13.2 38.5251-14.1L42.3251-18.6C42.7251-19.1 42.8251-19.9 42.5251-20.7Z"/>
  </g>
  <g id="Ultralight-S" transform="matrix(1 0 0 1 524.395 696)">
   <path d="M7.01611-42.9L7.01611-13.4C5.01611-11.5 2.01611-10.1-2.68389-11.3C-12.9839-14.1-6.88389-31.4 0.516106-44C3.01611-48.3 5.51611-51 8.41611-51.8C7.41611-48.5 7.01611-45.3 7.01611-42.9ZM61.6161-51.9C62.8161-48.5 63.4161-45.2 63.4161-43L63.4161-13.7C65.3161-11.7 68.4161-10.2 73.2161-11.5C83.5161-14.3 77.4161-31.6 70.0161-44.2C66.9161-49.3 64.5161-51.6 61.6161-51.9ZM40.7161-20.5C40.4161-21.1 39.8161-21.7 38.8161-21.7L31.3161-21.7C30.5161-21.7 29.9161-21.3 29.6161-20.6C29.3161-20 29.2161-19.1 29.9161-18.3L33.6161-13.9C34.4161-12.9 35.9161-12.9 36.7161-13.9L40.4161-18.3C41.0161-19 41.1161-19.8 40.7161-20.5ZM61.8161-42.9L61.8161-12C61.8161-4.6 55.8161 1.3 48.5161 1.3C41.5161 1.3 35.7161-4.2 35.2161-11.2C36.4161-11.2 37.5161-11.7 38.2161-12.6L41.9161-17C42.9161-18.2 43.2161-19.8 42.5161-21.3C41.8161-22.8 40.4161-23.7 38.8161-23.7L31.3161-23.7C29.8161-23.7 28.5161-22.8 27.8161-21.4C27.1161-20 27.3161-18.3 28.3161-17L32.0161-12.6C32.7161-11.7 33.8161-11.2 34.9161-11.2C34.1161-8.3 30.7161 1.3 21.8161 1.3C14.4161 1.3 8.51611-4.7 8.51611-12L8.51611-42.9C8.51611-50.3 13.6161-70.8 35.1161-70.8C55.2161-70.8 61.8161-50.3 61.8161-42.9ZM23.9161-36.6C23.9161-37.6 23.1161-38.4 22.1161-38.4C21.1161-38.4 20.3161-37.6 20.3161-36.6C20.3161-35.6 21.1161-34.8 22.1161-34.8C23.1161-34.8 23.9161-35.6 23.9161-36.6ZM50.3161-36.4C50.3161-37.4 49.5161-38.2 48.5161-38.2C47.5161-38.2 46.7161-37.4 46.7161-36.4C46.7161-35.4 47.5161-34.6 48.5161-34.6C49.5161-34.6 50.3161-35.4 50.3161-36.4Z"/>
  </g>
 </g>
</svg>
