<?xml version="1.0" encoding="UTF-8"?>
<!--Generator: Apple Native CoreSVG 175.5-->
<!DOCTYPE svg
PUBLIC "-//W3C//DTD SVG 1.1//EN"
       "http://www.w3.org/Graphics/SVG/1.1/DTD/svg11.dtd">
<svg version="1.1" xmlns="http://www.w3.org/2000/svg" xmlns:xlink="http://www.w3.org/1999/xlink" width="3300" height="2200">
 <!--glyph: "", point size: 100.0, font version: "18.0d9e1", template writer version: "84"-->
 <g id="Notes">
  <rect height="2200" id="artboard" style="fill:white;opacity:1" width="3300" x="0" y="0"/>
  <line style="fill:none;stroke:black;opacity:1;stroke-width:0.5;" x1="263" x2="3036" y1="292" y2="292"/>
  <text style="stroke:none;fill:black;font-family:sans-serif;font-size:13;font-weight:bold;" transform="matrix(1 0 0 1 263 322)">Weight/Scale Variations</text>
  <text style="stroke:none;fill:black;font-family:sans-serif;font-size:13;text-anchor:middle;" transform="matrix(1 0 0 1 559.711 322)">Ultralight</text>
  <text style="stroke:none;fill:black;font-family:sans-serif;font-size:13;text-anchor:middle;" transform="matrix(1 0 0 1 856.422 322)">Thin</text>
  <text style="stroke:none;fill:black;font-family:sans-serif;font-size:13;text-anchor:middle;" transform="matrix(1 0 0 1 1153.13 322)">Light</text>
  <text style="stroke:none;fill:black;font-family:sans-serif;font-size:13;text-anchor:middle;" transform="matrix(1 0 0 1 1449.84 322)">Regular</text>
  <text style="stroke:none;fill:black;font-family:sans-serif;font-size:13;text-anchor:middle;" transform="matrix(1 0 0 1 1746.56 322)">Medium</text>
  <text style="stroke:none;fill:black;font-family:sans-serif;font-size:13;text-anchor:middle;" transform="matrix(1 0 0 1 2043.27 322)">Semibold</text>
  <text style="stroke:none;fill:black;font-family:sans-serif;font-size:13;text-anchor:middle;" transform="matrix(1 0 0 1 2339.98 322)">Bold</text>
  <text style="stroke:none;fill:black;font-family:sans-serif;font-size:13;text-anchor:middle;" transform="matrix(1 0 0 1 2636.69 322)">Heavy</text>
  <text style="stroke:none;fill:black;font-family:sans-serif;font-size:13;text-anchor:middle;" transform="matrix(1 0 0 1 2933.4 322)">Black</text>
  <line style="fill:none;stroke:black;opacity:1;stroke-width:0.5;" x1="263" x2="3036" y1="1903" y2="1903"/>
  <g transform="matrix(1 0 0 1 263 1933)">
   <path d="M9.24805 0.830078Q10.8691 0.830078 12.2949 0.214844Q13.7207-0.400391 14.8096-1.49414Q15.8984-2.58789 16.5186-4.01367Q17.1387-5.43945 17.1387-7.05078Q17.1387-8.66211 16.5186-10.0879Q15.8984-11.5137 14.8047-12.6074Q13.7109-13.7012 12.2852-14.3164Q10.8594-14.9316 9.23828-14.9316Q7.62695-14.9316 6.20117-14.3164Q4.77539-13.7012 3.69141-12.6074Q2.60742-11.5137 1.9873-10.0879Q1.36719-8.66211 1.36719-7.05078Q1.36719-5.43945 1.9873-4.01367Q2.60742-2.58789 3.69629-1.49414Q4.78516-0.400391 6.21094 0.214844Q7.63672 0.830078 9.24805 0.830078ZM9.24805-0.654297Q7.91992-0.654297 6.7627-1.14746Q5.60547-1.64062 4.73145-2.51953Q3.85742-3.39844 3.36426-4.56055Q2.87109-5.72266 2.87109-7.05078Q2.87109-8.37891 3.35938-9.54102Q3.84766-10.7031 4.72168-11.582Q5.5957-12.4609 6.75293-12.9541Q7.91016-13.4473 9.23828-13.4473Q10.5762-13.4473 11.7383-12.9541Q12.9004-12.4609 13.7793-11.582Q14.6582-10.7031 15.1514-9.54102Q15.6445-8.37891 15.6445-7.05078Q15.6445-5.72266 15.1514-4.56055Q14.6582-3.39844 13.7793-2.51953Q12.9004-1.64062 11.7432-1.14746Q10.5859-0.654297 9.24805-0.654297ZM5.6543-7.05078Q5.6543-6.72852 5.85938-6.52832Q6.06445-6.32812 6.40625-6.32812L8.51562-6.32812L8.51562-4.20898Q8.51562-3.88672 8.71094-3.67676Q8.90625-3.4668 9.23828-3.4668Q9.56055-3.4668 9.77051-3.67676Q9.98047-3.88672 9.98047-4.20898L9.98047-6.32812L12.0898-6.32812Q12.4219-6.32812 12.627-6.52832Q12.832-6.72852 12.832-7.05078Q12.832-7.38281 12.627-7.58789Q12.4219-7.79297 12.0898-7.79297L9.98047-7.79297L9.98047-9.90234Q9.98047-10.2344 9.77051-10.4443Q9.56055-10.6543 9.23828-10.6543Q8.90625-10.6543 8.71094-10.4443Q8.51562-10.2344 8.51562-9.90234L8.51562-7.79297L6.40625-7.79297Q6.06445-7.79297 5.85938-7.58789Q5.6543-7.38281 5.6543-7.05078Z"/>
  </g>
  <g transform="matrix(1 0 0 1 281.867 1933)">
   <path d="M11.709 2.91016Q13.75 2.91016 15.5518 2.12891Q17.3535 1.34766 18.7305-0.0292969Q20.1074-1.40625 20.8887-3.20801Q21.6699-5.00977 21.6699-7.05078Q21.6699-9.0918 20.8887-10.8936Q20.1074-12.6953 18.7305-14.0723Q17.3535-15.4492 15.5469-16.2305Q13.7402-17.0117 11.6992-17.0117Q9.6582-17.0117 7.85645-16.2305Q6.05469-15.4492 4.68262-14.0723Q3.31055-12.6953 2.5293-10.8936Q1.74805-9.0918 1.74805-7.05078Q1.74805-5.00977 2.5293-3.20801Q3.31055-1.40625 4.6875-0.0292969Q6.06445 1.34766 7.86621 2.12891Q9.66797 2.91016 11.709 2.91016ZM11.709 1.25Q9.98047 1.25 8.47656 0.605469Q6.97266-0.0390625 5.83496-1.17676Q4.69727-2.31445 4.05762-3.81836Q3.41797-5.32227 3.41797-7.05078Q3.41797-8.7793 4.05762-10.2832Q4.69727-11.7871 5.83008-12.9297Q6.96289-14.0723 8.4668-14.7119Q9.9707-15.3516 11.6992-15.3516Q13.4277-15.3516 14.9365-14.7119Q16.4453-14.0723 17.583-12.9297Q18.7207-11.7871 19.3652-10.2832Q20.0098-8.7793 20.0098-7.05078Q20.0098-5.32227 19.3701-3.81836Q18.7305-2.31445 17.5879-1.17676Q16.4453-0.0390625 14.9414 0.605469Q13.4375 1.25 11.709 1.25ZM7.17773-7.05078Q7.17773-6.69922 7.41211-6.47461Q7.64648-6.25 8.01758-6.25L10.8887-6.25L10.8887-3.36914Q10.8887-2.99805 11.1133-2.76855Q11.3379-2.53906 11.6895-2.53906Q12.0605-2.53906 12.29-2.76855Q12.5195-2.99805 12.5195-3.36914L12.5195-6.25L15.4004-6.25Q15.7715-6.25 16.001-6.47461Q16.2305-6.69922 16.2305-7.05078Q16.2305-7.42188 16.001-7.65137Q15.7715-7.88086 15.4004-7.88086L12.5195-7.88086L12.5195-10.752Q12.5195-11.1328 12.29-11.3623Q12.0605-11.5918 11.6895-11.5918Q11.3379-11.5918 11.1133-11.3574Q10.8887-11.123 10.8887-10.752L10.8887-7.88086L8.01758-7.88086Q7.63672-7.88086 7.40723-7.65137Q7.17773-7.42188 7.17773-7.05078Z"/>
  </g>
  <g transform="matrix(1 0 0 1 305.646 1933)">
   <path d="M14.9707 5.66406Q17.0605 5.66406 18.96 5.01465Q20.8594 4.36523 22.4512 3.19336Q24.043 2.02148 25.2197 0.429688Q26.3965-1.16211 27.0459-3.06641Q27.6953-4.9707 27.6953-7.05078Q27.6953-9.14062 27.0459-11.04Q26.3965-12.9395 25.2197-14.5312Q24.043-16.123 22.4512-17.2998Q20.8594-18.4766 18.9551-19.126Q17.0508-19.7754 14.9609-19.7754Q12.8711-19.7754 10.9717-19.126Q9.07227-18.4766 7.48535-17.2998Q5.89844-16.123 4.72168-14.5312Q3.54492-12.9395 2.90039-11.04Q2.25586-9.14062 2.25586-7.05078Q2.25586-4.9707 2.90527-3.06641Q3.55469-1.16211 4.72656 0.429688Q5.89844 2.02148 7.49023 3.19336Q9.08203 4.36523 10.9814 5.01465Q12.8809 5.66406 14.9707 5.66406ZM14.9707 3.84766Q13.1641 3.84766 11.5283 3.2959Q9.89258 2.74414 8.53516 1.74805Q7.17773 0.751953 6.17676-0.610352Q5.17578-1.97266 4.62891-3.6084Q4.08203-5.24414 4.08203-7.05078Q4.08203-8.86719 4.62891-10.5029Q5.17578-12.1387 6.17188-13.501Q7.16797-14.8633 8.52539-15.8594Q9.88281-16.8555 11.5186-17.4023Q13.1543-17.9492 14.9609-17.9492Q16.7773-17.9492 18.4131-17.4023Q20.0488-16.8555 21.4111-15.8594Q22.7734-14.8633 23.7744-13.501Q24.7754-12.1387 25.3223-10.5029Q25.8691-8.86719 25.8691-7.05078Q25.8691-5.24414 25.3223-3.6084Q24.7754-1.97266 23.7793-0.610352Q22.7832 0.751953 21.4209 1.74805Q20.0586 2.74414 18.4229 3.2959Q16.7871 3.84766 14.9707 3.84766ZM9.19922-7.05078Q9.19922-6.66992 9.45801-6.4209Q9.7168-6.17188 10.1172-6.17188L14.0625-6.17188L14.0625-2.2168Q14.0625-1.81641 14.3115-1.55762Q14.5605-1.29883 14.9512-1.29883Q15.3516-1.29883 15.6104-1.55273Q15.8691-1.80664 15.8691-2.2168L15.8691-6.17188L19.8242-6.17188Q20.2246-6.17188 20.4785-6.4209Q20.7324-6.66992 20.7324-7.05078Q20.7324-7.46094 20.4785-7.71484Q20.2246-7.96875 19.8242-7.96875L15.8691-7.96875L15.8691-11.9141Q15.8691-12.3242 15.6104-12.583Q15.3516-12.8418 14.9512-12.8418Q14.5605-12.8418 14.3115-12.583Q14.0625-12.3242 14.0625-11.9141L14.0625-7.96875L10.1172-7.96875Q9.70703-7.96875 9.45312-7.71484Q9.19922-7.46094 9.19922-7.05078Z"/>
  </g>
  <text style="stroke:none;fill:black;font-family:sans-serif;font-size:13;font-weight:bold;" transform="matrix(1 0 0 1 263 1953)">Design Variations</text>
  <text style="stroke:none;fill:black;font-family:sans-serif;font-size:13;" transform="matrix(1 0 0 1 263 1971)">Symbols are supported in up to nine weights and three scales.</text>
  <text style="stroke:none;fill:black;font-family:sans-serif;font-size:13;" transform="matrix(1 0 0 1 263 1989)">For optimal layout with text and other symbols, vertically align</text>
  <text style="stroke:none;fill:black;font-family:sans-serif;font-size:13;" transform="matrix(1 0 0 1 263 2007)">symbols with the adjacent text.</text>
  <line style="fill:none;stroke:#00AEEF;stroke-width:0.5;opacity:1.0;" x1="776" x2="776" y1="1919" y2="1933"/>
  <g transform="matrix(1 0 0 1 776 1933)">
   <path d="M3.31055 0.15625Q3.70117 0.15625 3.91602-0.00976562Q4.13086-0.175781 4.26758-0.585938L5.52734-4.0332L11.2891-4.0332L12.5488-0.585938Q12.6855-0.175781 12.9004-0.00976562Q13.1152 0.15625 13.4961 0.15625Q13.8867 0.15625 14.1162-0.0585938Q14.3457-0.273438 14.3457-0.644531Q14.3457-0.869141 14.2383-1.17188L9.6582-13.3691Q9.48242-13.8184 9.17969-14.043Q8.87695-14.2676 8.4082-14.2676Q7.5-14.2676 7.17773-13.3789L2.59766-1.16211Q2.49023-0.859375 2.49023-0.634766Q2.49023-0.263672 2.70996-0.0537109Q2.92969 0.15625 3.31055 0.15625ZM6.00586-5.51758L8.37891-12.0898L8.42773-12.0898L10.8008-5.51758Z"/>
  </g>
  <line style="fill:none;stroke:#00AEEF;stroke-width:0.5;opacity:1.0;" x1="793.197" x2="793.197" y1="1919" y2="1933"/>
  <text style="stroke:none;fill:black;font-family:sans-serif;font-size:13;font-weight:bold;" transform="matrix(1 0 0 1 776 1953)">Margins</text>
  <text style="stroke:none;fill:black;font-family:sans-serif;font-size:13;" transform="matrix(1 0 0 1 776 1971)">Leading and trailing margins on the left and right side of each symbol</text>
  <text style="stroke:none;fill:black;font-family:sans-serif;font-size:13;" transform="matrix(1 0 0 1 776 1989)">can be adjusted by modifying the x-location of the margin guidelines.</text>
  <text style="stroke:none;fill:black;font-family:sans-serif;font-size:13;" transform="matrix(1 0 0 1 776 2007)">Modifications are automatically applied proportionally to all</text>
  <text style="stroke:none;fill:black;font-family:sans-serif;font-size:13;" transform="matrix(1 0 0 1 776 2025)">scales and weights.</text>
  <g transform="matrix(1 0 0 1 1289 1933)">
   <path d="M2.8418 1.86523L4.54102 3.57422Q5.18555 4.22852 5.90332 4.17969Q6.62109 4.13086 7.31445 3.35938L18.0078-8.42773L17.041-9.4043L6.42578 2.27539Q6.16211 2.57812 5.89355 2.61719Q5.625 2.65625 5.27344 2.30469L4.10156 1.14258Q3.75 0.791016 3.79395 0.522461Q3.83789 0.253906 4.14062-0.0195312L15.6152-10.8203L14.6387-11.7871L3.04688-0.898438Q2.30469-0.214844 2.25098 0.498047Q2.19727 1.21094 2.8418 1.86523ZM9.25781-16.3281Q8.94531-16.0254 8.90625-15.6348Q8.86719-15.2441 9.04297-14.9512Q9.21875-14.6777 9.55566-14.541Q9.89258-14.4043 10.3809-14.5215Q11.4746-14.7754 12.5977-14.7314Q13.7207-14.6875 14.7949-13.9844L14.209-12.5293Q13.9551-11.9043 14.0674-11.4404Q14.1797-10.9766 14.5801-10.5664L16.875-8.25195Q17.2363-7.88086 17.5781-7.82227Q17.9199-7.76367 18.3398-7.8418L19.4043-8.03711L20.0684-7.36328L20.0293-6.80664Q20-6.43555 20.1221-6.12305Q20.2441-5.81055 20.6055-5.44922L21.3672-4.70703Q21.7285-4.3457 22.1533-4.33105Q22.5781-4.31641 22.9297-4.66797L25.8398-7.58789Q26.1914-7.93945 26.1816-8.35449Q26.1719-8.76953 25.8105-9.13086L25.0391-9.89258Q24.6875-10.2539 24.3799-10.3857Q24.0723-10.5176 23.7109-10.4883L23.1348-10.4395L22.4902-11.0742L22.7344-12.1973Q22.832-12.6172 22.6953-12.9834Q22.5586-13.3496 22.1191-13.7891L19.9219-15.9766Q18.6719-17.2168 17.2607-17.8369Q15.8496-18.457 14.4189-18.4814Q12.9883-18.5059 11.665-17.959Q10.3418-17.4121 9.25781-16.3281ZM10.752-15.957Q11.6602-16.6211 12.7002-16.9043Q13.7402-17.1875 14.8047-17.085Q15.8691-16.9824 16.8701-16.5137Q17.8711-16.0449 18.7012-15.2051L21.1328-12.793Q21.3086-12.6172 21.3525-12.4512Q21.3965-12.2852 21.3379-12.0312L21.0156-10.5469L22.5195-9.0625L23.5059-9.12109Q23.6914-9.13086 23.7891-9.09668Q23.8867-9.0625 24.0332-8.91602L24.6094-8.33984L22.168-5.89844L21.5918-6.47461Q21.4453-6.62109 21.4062-6.71875Q21.3672-6.81641 21.377-7.01172L21.4453-7.98828L19.9512-9.47266L18.4277-9.21875Q18.1836-9.16992 18.042-9.2041Q17.9004-9.23828 17.7148-9.41406L15.7129-11.416Q15.5176-11.5918 15.4932-11.7529Q15.4688-11.9141 15.5859-12.1875L16.4648-14.2773Q15.293-15.3711 13.8281-15.791Q12.3633-16.2109 10.8398-15.7617Q10.7227-15.7324 10.6885-15.8057Q10.6543-15.8789 10.752-15.957Z"/>
  </g>
  <text style="stroke:none;fill:black;font-family:sans-serif;font-size:13;font-weight:bold;" transform="matrix(1 0 0 1 1289 1953)">Exporting</text>
  <text style="stroke:none;fill:black;font-family:sans-serif;font-size:13;" transform="matrix(1 0 0 1 1289 1971)">Symbols should be outlined when exporting to ensure the</text>
  <text style="stroke:none;fill:black;font-family:sans-serif;font-size:13;" transform="matrix(1 0 0 1 1289 1989)">design is preserved when submitting to Xcode.</text>
  <text id="template-version" style="stroke:none;fill:black;font-family:sans-serif;font-size:13;text-anchor:end;" transform="matrix(1 0 0 1 3036 1933)">Template v.2.0</text>
  <text style="stroke:none;fill:black;font-family:sans-serif;font-size:13;text-anchor:end;" transform="matrix(1 0 0 1 3036 1951)">Requires Xcode 12 or greater</text>
  <text id="descriptive-name" style="stroke:none;fill:black;font-family:sans-serif;font-size:13;text-anchor:end;" transform="matrix(1 0 0 1 3036 1969)">Generated from custom.chess</text>
  <text style="stroke:none;fill:black;font-family:sans-serif;font-size:13;text-anchor:end;" transform="matrix(1 0 0 1 3036 1987)">Typeset at 100 points</text>
  <text style="stroke:none;fill:black;font-family:sans-serif;font-size:13;" transform="matrix(1 0 0 1 263 726)">Small</text>
  <text style="stroke:none;fill:black;font-family:sans-serif;font-size:13;" transform="matrix(1 0 0 1 263 1156)">Medium</text>
  <text style="stroke:none;fill:black;font-family:sans-serif;font-size:13;" transform="matrix(1 0 0 1 263 1586)">Large</text>
 </g>
 <g id="Guides">
  <g id="H-reference" style="fill:#27AAE1;stroke:none;" transform="matrix(1 0 0 1 339 696)">
   <path d="M0.993347 0L3.6377 0L29.3282-67.1326L30.0301-67.1326L30.0301-70.459L28.1227-70.459ZM11.6882-24.4797L46.9818-24.4797L46.2311-26.7288L12.4382-26.7288ZM55.1193 0L57.7637 0L30.6381-70.459L29.4327-70.459L29.4327-67.1326Z"/>
  </g>
  <line id="Baseline-S" style="fill:none;stroke:#27AAE1;opacity:1;stroke-width:0.5;" x1="263" x2="3036" y1="696" y2="696"/>
  <line id="Capline-S" style="fill:none;stroke:#27AAE1;opacity:1;stroke-width:0.5;" x1="263" x2="3036" y1="625.541" y2="625.541"/>
  <g id="H-reference" style="fill:#27AAE1;stroke:none;" transform="matrix(1 0 0 1 339 1126)">
   <path d="M0.993347 0L3.6377 0L29.3282-67.1326L30.0301-67.1326L30.0301-70.459L28.1227-70.459ZM11.6882-24.4797L46.9818-24.4797L46.2311-26.7288L12.4382-26.7288ZM55.1193 0L57.7637 0L30.6381-70.459L29.4327-70.459L29.4327-67.1326Z"/>
  </g>
  <line id="Baseline-M" style="fill:none;stroke:#27AAE1;opacity:1;stroke-width:0.5;" x1="263" x2="3036" y1="1126" y2="1126"/>
  <line id="Capline-M" style="fill:none;stroke:#27AAE1;opacity:1;stroke-width:0.5;" x1="263" x2="3036" y1="1055.54" y2="1055.54"/>
  <g id="H-reference" style="fill:#27AAE1;stroke:none;" transform="matrix(1 0 0 1 339 1556)">
   <path d="M0.993347 0L3.6377 0L29.3282-67.1326L30.0301-67.1326L30.0301-70.459L28.1227-70.459ZM11.6882-24.4797L46.9818-24.4797L46.2311-26.7288L12.4382-26.7288ZM55.1193 0L57.7637 0L30.6381-70.459L29.4327-70.459L29.4327-67.1326Z"/>
  </g>
  <line id="Baseline-L" style="fill:none;stroke:#27AAE1;opacity:1;stroke-width:0.5;" x1="263" x2="3036" y1="1556" y2="1556"/>
  <line id="Capline-L" style="fill:none;stroke:#27AAE1;opacity:1;stroke-width:0.5;" x1="263" x2="3036" y1="1485.54" y2="1485.54"/>
  <line id="left-margin" style="fill:none;stroke:#00AEEF;stroke-width:0.5;opacity:1.0;" x1="1390.34" x2="1390.34" y1="1030.73" y2="1150.14"/>
  <line id="right-margin" style="fill:none;stroke:#00AEEF;stroke-width:0.5;opacity:1.0;" x1="1509.34" x2="1509.34" y1="1030.73" y2="1150.14"/>
 </g>
 <g id="Symbols">
  <g id="Black-L" transform="matrix(1 0 0 1 2856.4 1556)">
   <path d="M102.85-92.5C102.85-106.8 91.25-118.5 76.85-118.5C62.45-118.5 50.85-106.9 50.85-92.5C50.85-78.1 62.45-66.5 76.85-66.5C91.25-66.5 102.85-78.1 102.85-92.5ZM117.35-66.5L117.35-66.5C117.35-72 112.85-76.4 107.45-76.4L46.35-76.4C40.85-76.4 36.45-71.9 36.45-66.5L36.45-66.5C36.45-61 40.95-56.6 46.35-56.6L107.45-56.6C112.95-56.6 117.35-61 117.35-66.5ZM93.75-41.9C93.75-57.2 93.75-47.4 93.75-47.4L60.15-47.4C60.15-47.4 60.15-57.1 60.15-41.9C60.15-27.7 60.15-4.4 41.85 8.7C38.95 10.7 37.25 14 37.25 17.5L37.25 25.3L73.85 25.3L79.95 25.3L116.55 25.3L116.55 17.5C116.55 14 114.75 10.8 111.95 8.7C93.75-4.4 93.75-27.7 93.75-41.9ZM140.25 48C140.25 35.9 128.95 23 115.25 23L38.55 23C24.75 23 13.55 35.9 13.55 48L140.25 48Z"/>
  </g>
  <g id="Heavy-L" transform="matrix(1 0 0 1 2560.44 1556)">
   <path d="M101.75-91.5C101.75-105.7 90.25-117.2 76.05-117.2C61.85-117.2 50.45-105.6 50.45-91.5C50.45-77.4 61.95-65.8 76.15-65.8C90.35-65.8 101.75-77.3 101.75-91.5ZM116.15-65.8L116.15-65.8C116.15-71.2 111.75-75.6 106.35-75.6L45.95-75.6C40.55-75.6 36.15-71.2 36.15-65.8L36.15-65.8C36.15-60.4 40.55-56 45.95-56L106.35-56C111.75-56 116.15-60.4 116.15-65.8ZM92.75-42.2C92.75-57.3 92.75-47.7 92.75-47.7L59.55-47.7C59.55-47.7 59.55-57.3 59.55-42.2C59.55-28.2 59.55-5.1 41.45 7.8C38.65 9.8 36.85 13 36.85 16.5L36.85 24.2L73.05 24.2L79.05 24.2L115.25 24.2L115.25 16.5C115.25 13 113.55 9.8 110.65 7.8C92.75-5.1 92.75-28.2 92.75-42.2ZM138.75 46.7C138.75 34.7 127.65 22 114.05 22L38.25 22C24.65 22 13.55 34.7 13.55 46.7L138.75 46.7Z"/>
  </g>
  <g id="Bold-L" transform="matrix(1 0 0 1 2264.43 1556)">
   <path d="M100.75-90.5C100.75-104.5 89.35-115.9 75.35-115.9C61.35-115.9 49.95-104.5 49.95-90.5C49.95-76.5 61.35-65.1 75.35-65.1C89.35-65.1 100.75-76.5 100.75-90.5ZM114.95-65.1L114.95-65.1C114.95-70.4 110.55-74.8 105.25-74.8L45.55-74.8C40.25-74.8 35.85-70.4 35.85-65.1L35.85-65.1C35.85-59.8 40.25-55.4 45.55-55.4L105.25-55.4C110.55-55.4 114.95-59.8 114.95-65.1ZM91.85-42.4C91.85-57.3 91.85-47.8 91.85-47.8L59.05-47.8C59.05-47.8 59.05-57.3 59.05-42.4C59.05-28.6 59.05-5.7 41.15 7C38.35 9 36.65 12.1 36.65 15.6L36.65 23.2L72.45 23.2L78.45 23.2L114.25 23.2L114.25 15.6C114.25 12.2 112.55 9 109.75 7C91.85-5.8 91.85-28.6 91.85-42.4ZM137.35 45.4C137.35 33.5 126.35 21 112.95 21L37.95 21C24.55 21 13.55 33.6 13.55 45.4L137.35 45.4Z"/>
  </g>
  <g id="Semibold-L" transform="matrix(1 0 0 1 1968.47 1556)">
   <path d="M99.75-89.5C99.75-103.3 88.55-114.6 74.65-114.6C60.75-114.6 49.55-103.4 49.55-89.5C49.55-75.6 60.85-64.4 74.75-64.4C88.65-64.4 99.75-75.6 99.75-89.5ZM113.75-64.4L113.75-64.4C113.75-69.7 109.45-74 104.15-74L45.15-74C39.85-74 35.55-69.7 35.55-64.4L35.55-64.4C35.55-59.1 39.85-54.8 45.15-54.8L104.15-54.8C109.45-54.8 113.75-59.2 113.75-64.4ZM90.95-42.7C90.95-57.4 90.95-48 90.95-48L58.55-48C58.55-48 58.55-57.4 58.55-42.7C58.55-29 58.55-6.5 40.95 6.1C38.15 8.1 36.45 11.2 36.45 14.6L36.45 22.2L71.85 22.2L77.75 22.2L113.15 22.2L113.15 14.6C113.15 11.2 111.45 8.1 108.65 6.1C90.95-6.4 90.95-29 90.95-42.7ZM135.85 44.1C135.85 32.4 124.95 20 111.75 20L37.65 20C24.35 20 13.55 32.4 13.55 44.1L135.85 44.1Z"/>
  </g>
  <g id="Medium-L" transform="matrix(1 0 0 1 1672.71 1556)">
   <path d="M98.45-88.3C98.45-101.9 87.45-113 73.75-113C60.05-113 49.05-102 49.05-88.3C49.05-74.6 60.05-63.6 73.75-63.6C87.45-63.6 98.45-74.7 98.45-88.3ZM112.15-63.6L112.15-63.6C112.15-68.8 107.95-73 102.75-73L44.75-73C39.55-73 35.35-68.8 35.35-63.6L35.35-63.6C35.35-58.4 39.55-54.2 44.75-54.2L102.75-54.2C107.95-54.2 112.15-58.4 112.15-63.6ZM89.75-42.9C89.75-57.4 89.75-48.2 89.75-48.2L57.85-48.2C57.85-48.2 57.85-57.4 57.85-42.9C57.85-29.4 57.85-7.3 40.45 5.1C37.75 7 36.05 10.1 36.05 13.4L36.05 20.8L70.85 20.8L76.65 20.8L111.45 20.8L111.45 13.4C111.45 10.1 109.75 7 107.05 5.1C89.75-7.2 89.75-29.4 89.75-42.9ZM133.95 42.5C133.95 31 123.25 18.7 110.15 18.7L37.35 18.7C24.25 18.7 13.55 30.9 13.55 42.5L133.95 42.5Z"/>
  </g>
  <g id="Regular-L" transform="matrix(1 0 0 1 1376.99 1556)">
   <path d="M97.05-87.1C97.05-100.5 86.15-111.3 72.85-111.3C59.55-111.3 48.65-100.4 48.65-87.1C48.65-73.8 59.55-62.9 72.85-62.9C86.15-62.9 97.05-73.7 97.05-87.1ZM110.55-62.8L110.55-62.8C110.55-67.9 106.35-72.1 101.25-72.1L44.25-72.1C39.15-72.1 34.95-67.9 34.95-62.8L34.95-62.8C34.95-57.7 39.15-53.5 44.25-53.5L101.25-53.5C106.45-53.6 110.55-57.7 110.55-62.8ZM88.45-43.1C88.45-57.4 88.45-48.3 88.45-48.3L57.15-48.3C57.15-48.3 57.15-57.4 57.15-43.1C57.15-29.9 57.15-8.1 40.05 4.1C37.35 6 35.75 9 35.75 12.3L35.75 19.6L69.95 19.6L75.65 19.6L109.85 19.6L109.85 12.3C109.85 9 108.15 6 105.55 4.1C88.45-8 88.45-29.8 88.45-43.1ZM131.95 40.9C131.95 29.6 121.45 17.5 108.55 17.5L36.95 17.5C24.15 17.5 13.55 29.5 13.55 40.9L131.95 40.9Z"/>
  </g>
  <g id="Light-L" transform="matrix(1 0 0 1 1081.78 1556)">
   <path d="M94.95-85.7C94.95-98.7 84.35-109.3 71.35-109.3C58.35-109.3 47.65-98.8 47.65-85.7C47.65-72.6 58.25-62.1 71.25-62.1C84.25-62.1 94.95-72.7 94.95-85.7ZM108.15-62.1L108.15-62.1C108.15-67.1 104.05-71.1 99.15-71.1L43.45-71.1C38.45-71.1 34.45-67 34.45-62.1L34.45-62.1C34.45-57.1 38.55-53.1 43.45-53.1L99.05-53.1C104.05-53.1 108.15-57.2 108.15-62.1ZM86.55-43.5C86.55-58.7 86.55-58.7 86.55-48.5L55.95-48.5C55.95-58.6 55.95-58.6 55.95-43.5C55.95-30.6 55.95-9.3 39.35 2.5C36.75 4.4 35.15 7.3 35.15 10.5L35.15 17.6L68.55 17.6L74.15 17.6L107.55 17.6L107.55 10.5C107.55 7.3 105.95 4.4 103.35 2.5C86.55-9.3 86.55-30.6 86.55-43.5ZM128.95 39C128.95 28 118.75 16.2 106.15 16.2L36.35 16.2C23.85 16.2 13.55 27.9 13.55 39L128.95 39Z"/>
  </g>
  <g id="Thin-L" transform="matrix(1 0 0 1 786.122 1556)">
   <path d="M93.45-84.2C93.45-97 83.05-107.4 70.25-107.4C57.45-107.4 47.05-97.1 47.05-84.2C47.05-71.3 57.45-61 70.25-61C83.05-61 93.45-71.4 93.45-84.2ZM106.35-61L106.35-61C106.35-65.9 102.35-69.9 97.45-69.9L42.95-69.9C38.05-69.9 34.05-65.9 34.05-61L34.05-61C34.05-56.1 38.05-52.1 42.95-52.1L97.55-52.1C102.45-52.2 106.35-56.2 106.35-61ZM85.25-43.4C85.25-58.3 85.25-58.3 85.25-48.3L55.25-48.3C55.25-58.2 55.25-58.2 55.25-43.4C55.25-30.7 55.25-9.9 38.95 1.8C36.35 3.6 34.85 6.5 34.85 9.6L34.85 16.6L67.65 16.6L73.15 16.6L105.95 16.6L105.95 9.6C105.95 6.5 104.35 3.6 101.85 1.8C85.25-9.8 85.25-30.7 85.25-43.4ZM126.85 37C126.85 26.1 116.75 14.6 104.45 14.6L35.95 14.6C23.65 14.7 13.55 26.2 13.55 37L126.85 37Z"/>
  </g>
  <g id="Ultralight-L" transform="matrix(1 0 0 1 490.661 1556)">
   <path d="M91.65-82.8C91.65-95.3 81.45-105.5 68.95-105.5C56.45-105.5 46.25-95.4 46.25-82.8C46.25-70.2 56.45-60.1 68.95-60.1C81.45-60.1 91.65-70.3 91.65-82.8ZM104.35-60.1L104.35-60.1C104.35-64.9 100.45-68.8 95.65-68.8L42.25-68.8C37.45-68.8 33.55-64.9 33.55-60.1L33.55-60.1C33.55-55.3 37.45-51.4 42.25-51.4L95.65-51.4C100.45-51.5 104.35-55.4 104.35-60.1ZM83.65-43.5C83.65-56.8 83.65-48.3 83.65-48.3L54.25-48.3C54.25-48.3 54.25-56.8 54.25-43.5C54.25-31.1 54.25-10.7 38.25 0.7C35.75 2.5 34.25 5.3 34.25 8.4L34.25 15.2L66.25 15.2L71.55 15.2L103.55 15.2L103.55 8.4C103.55 5.3 102.05 2.5 99.55 0.7C83.65-10.7 83.65-31.1 83.65-43.5ZM124.35 35.1C124.35 24.5 114.55 13.2 102.45 13.2L35.45 13.2C23.45 13.2 13.55 24.5 13.55 35.1L124.35 35.1Z"/>
  </g>
  <g id="Black-M" transform="matrix(1 0 0 1 2870.65 1126)">
   <path d="M82.75-79.4C82.75-90.5 73.75-99.5 62.65-99.5C51.55-99.5 42.55-90.5 42.55-79.4C42.55-68.3 51.55-59.3 62.65-59.3C73.75-59.3 82.75-68.3 82.75-79.4ZM93.95-59.3L93.95-59.3C93.95-63.5 90.45-67 86.25-67L38.95-67C34.75-67 31.25-63.5 31.25-59.3L31.25-59.3C31.25-55.1 34.75-51.6 38.95-51.6L86.25-51.6C90.55-51.6 93.95-55.1 93.95-59.3ZM75.65-40.2C75.65-52 75.65-44.5 75.65-44.5L49.65-44.5C49.65-44.5 49.65-52 49.65-40.2C49.65-29.2 49.65-11.1 35.45-1C33.25 0.6 31.85 3.1 31.85 5.8L31.85 11.9L60.25 11.9L64.95 11.9L93.35 11.9L93.35 5.8C93.35 3.1 91.95 0.6 89.75-1C75.65-11.1 75.65-29.2 75.65-40.2ZM111.75 29.5C111.75 20.1 103.05 10.1 92.35 10.1L32.95 10.1C22.25 10.1 13.55 20.1 13.55 29.5L111.75 29.5Z"/>
  </g>
  <g id="Heavy-M" transform="matrix(1 0 0 1 2574.44 1126)">
   <path d="M82.05-78.6C82.05-89.6 73.15-98.5 62.15-98.5C51.15-98.5 42.25-89.6 42.25-78.6C42.25-67.6 51.15-58.7 62.15-58.7C73.15-58.7 82.05-67.6 82.05-78.6ZM93.15-58.7L93.15-58.7C93.15-62.9 89.75-66.3 85.55-66.3L38.75-66.3C34.55-66.3 31.15-62.9 31.15-58.7L31.15-58.7C31.15-54.5 34.55-51.1 38.75-51.1L85.55-51.1C89.75-51.1 93.15-54.6 93.15-58.7ZM75.05-40.4C75.05-52.1 75.05-44.6 75.05-44.6L49.35-44.6C49.35-44.6 49.35-52.1 49.35-40.4C49.35-29.5 49.35-11.6 35.35-1.6C33.15 0 31.85 2.4 31.85 5.1L31.85 11.1L59.85 11.1L64.55 11.1L92.65 11.1L92.65 5.1C92.65 2.4 91.25-0.1 89.15-1.6C75.05-11.7 75.05-29.6 75.05-40.4ZM110.75 28.5C110.75 19.2 102.15 9.3 91.55 9.3L32.75 9.3C22.25 9.3 13.55 19.2 13.55 28.5L110.75 28.5Z"/>
  </g>
  <g id="Bold-M" transform="matrix(1 0 0 1 2278.38 1126)">
   <path d="M81.15-77.9C81.15-88.8 72.35-97.6 61.45-97.6C50.55-97.6 41.85-88.7 41.85-77.9C41.85-67.1 50.65-58.2 61.55-58.2C72.45-58.2 81.15-67 81.15-77.9ZM92.15-58.2L92.15-58.2C92.15-62.3 88.75-65.7 84.65-65.7L38.35-65.7C34.25-65.7 30.85-62.3 30.85-58.2L30.85-58.2C30.85-54.1 34.25-50.7 38.35-50.7L84.65-50.7C88.75-50.7 92.15-54.1 92.15-58.2ZM74.25-40.6C74.25-52.2 74.25-44.8 74.25-44.8L48.75-44.8C48.75-44.8 48.75-52.2 48.75-40.6C48.75-29.9 48.75-12.2 34.95-2.3C32.75-0.8 31.45 1.7 31.45 4.3L31.45 10.2L59.25 10.2L63.85 10.2L91.65 10.2L91.65 4.3C91.65 1.6 90.35-0.8 88.15-2.3C74.25-12.2 74.25-29.9 74.25-40.6ZM109.45 27.5C109.45 18.3 100.95 8.6 90.55 8.6L32.45 8.6C22.05 8.6 13.55 18.4 13.55 27.5L109.45 27.5Z"/>
  </g>
  <g id="Semibold-M" transform="matrix(1 0 0 1 1982.22 1126)">
   <path d="M80.35-77.1C80.35-87.8 71.65-96.5 60.95-96.5C50.25-96.5 41.55-87.8 41.55-77.1C41.55-66.4 50.25-57.7 60.95-57.7C71.65-57.7 80.35-66.4 80.35-77.1ZM91.25-57.7L91.25-57.7C91.25-61.8 87.95-65.1 83.85-65.1L38.15-65.1C34.05-65.1 30.75-61.8 30.75-57.7L30.75-57.7C30.75-53.6 34.05-50.3 38.15-50.3L83.85-50.3C87.85-50.2 91.25-53.6 91.25-57.7ZM73.55-40.8C73.55-52.2 73.55-44.9 73.55-44.9L48.35-44.9C48.35-44.9 48.35-52.2 48.35-40.8C48.35-30.2 48.35-12.7 34.65-2.9C32.55-1.4 31.25 1 31.25 3.6L31.25 9.5L58.65 9.5L63.25 9.5L90.65 9.5L90.65 3.6C90.65 1 89.35-1.4 87.15-3C73.55-12.7 73.55-30.2 73.55-40.8ZM108.35 26.5C108.35 17.4 99.95 7.8 89.65 7.8L32.25 7.8C21.95 7.8 13.55 17.4 13.55 26.5L108.35 26.5Z"/>
  </g>
  <g id="Medium-M" transform="matrix(1 0 0 1 1686.26 1126)">
   <path d="M79.25-76.2C79.25-86.8 70.65-95.3 60.15-95.3C49.65-95.3 41.05-86.7 41.05-76.2C41.05-65.7 49.65-57.1 60.15-57.1C70.65-57.1 79.25-65.6 79.25-76.2ZM89.95-57.1L89.95-57.1C89.95-61.1 86.65-64.4 82.65-64.4L37.65-64.4C33.65-64.4 30.35-61.1 30.35-57.1L30.35-57.1C30.35-53.1 33.65-49.8 37.65-49.8L82.65-49.8C86.65-49.7 89.95-53 89.95-57.1ZM72.55-41C72.55-52.2 72.55-45.1 72.55-45.1L47.85-45.1C47.85-45.1 47.85-52.3 47.85-41C47.85-30.6 47.85-13.4 34.35-3.8C32.25-2.3 30.95 0.1 30.95 2.7L30.95 8.5L57.95 8.5L62.45 8.5L89.45 8.5L89.45 2.7C89.45 0.1 88.15-2.3 86.05-3.8C72.55-13.3 72.55-30.5 72.55-41ZM106.85 25.2C106.85 16.3 98.55 6.8 88.45 6.8L31.95 6.8C21.85 6.8 13.55 16.3 13.55 25.2L106.85 25.2Z"/>
  </g>
  <g id="Regular-M" transform="matrix(1 0 0 1 1390.34 1126)">
   <path d="M78.15-75.2C78.15-85.6 69.75-94 59.35-94C48.95-94 40.55-85.6 40.55-75.2C40.55-64.8 49.05-56.4 59.35-56.4C69.65-56.4 78.15-64.9 78.15-75.2ZM88.65-56.4L88.65-56.4C88.65-60.4 85.45-63.6 81.45-63.6L37.25-63.6C33.25-63.6 30.05-60.4 30.05-56.4L30.05-56.4C30.05-52.4 33.25-49.2 37.25-49.2L81.45-49.2C85.45-49.3 88.65-52.5 88.65-56.4ZM71.55-41.1C71.55-52.2 71.55-45.1 71.55-45.1L47.25-45.1C47.25-45.1 47.25-52.2 47.25-41.1C47.25-30.8 47.25-13.9 34.05-4.5C31.95-3 30.75-0.7 30.75 1.9L30.75 7.6L57.25 7.6L61.65 7.6L88.15 7.6L88.15 1.8C88.15-0.7 86.85-3.1 84.85-4.6C71.55-14 71.55-30.9 71.55-41.1ZM105.25 24C105.25 15.2 97.15 5.9 87.15 5.9L31.65 5.9C21.65 5.9 13.55 15.2 13.55 24L105.25 24Z"/>
  </g>
  <g id="Light-M" transform="matrix(1 0 0 1 1094.78 1126)">
   <path d="M76.55-74.2C76.55-84.3 68.35-92.5 58.25-92.5C48.15-92.5 39.95-84.3 39.95-74.2C39.95-64.1 48.15-55.9 58.25-55.9C68.35-55.9 76.55-64.1 76.55-74.2ZM86.85-55.9L86.85-55.9C86.85-59.8 83.65-62.9 79.85-62.9L36.75-62.9C32.85-62.9 29.75-59.7 29.75-55.9L29.75-55.9C29.75-52 32.95-48.9 36.75-48.9L79.85-48.9C83.65-48.9 86.85-52 86.85-55.9ZM70.15-41.5C70.15-53.2 70.15-53.2 70.15-45.4L46.45-45.4C46.45-53.2 46.45-53.2 46.45-41.5C46.45-31.5 46.45-15 33.55-5.8C31.55-4.4 30.25-2.1 30.25 0.4L30.25 5.9L56.15 5.9L60.45 5.9L86.35 5.9L86.35 0.4C86.35-2.1 85.15-4.4 83.05-5.8C70.15-15 70.15-31.5 70.15-41.5ZM102.95 22.5C102.95 13.9 95.05 4.9 85.35 4.9L31.25 4.9C21.55 4.8 13.55 13.9 13.55 22.5L102.95 22.5Z"/>
  </g>
  <g id="Thin-M" transform="matrix(1 0 0 1 798.872 1126)">
   <path d="M75.35-73C75.35-82.9 67.25-91 57.35-91C47.45-91 39.35-82.9 39.35-73C39.35-63.1 47.45-55 57.35-55C67.25-55 75.35-63.1 75.35-73ZM85.45-55L85.45-55C85.45-58.8 82.35-61.9 78.55-61.9L36.25-61.9C32.45-61.9 29.35-58.8 29.35-55L29.35-55C29.35-51.2 32.45-48.1 36.25-48.1L78.55-48.1C82.35-48.2 85.45-51.3 85.45-55ZM69.05-41.3C69.05-52.8 69.05-52.8 69.05-45.1L45.75-45.1C45.75-52.8 45.75-52.8 45.75-41.3C45.75-31.5 45.75-15.3 33.05-6.2C31.05-4.8 29.85-2.6 29.85-0.1L29.85 5.3L55.25 5.3L59.45 5.3L84.85 5.3L84.85-0.1C84.85-2.5 83.65-4.8 81.65-6.2C69.05-15.3 69.05-31.5 69.05-41.3ZM101.35 21C101.35 12.6 93.55 3.7 84.05 3.7L30.85 3.7C21.35 3.7 13.55 12.6 13.55 21L101.35 21Z"/>
  </g>
  <g id="Ultralight-M" transform="matrix(1 0 0 1 503.111 1126)">
   <path d="M74.05-71.9C74.05-81.6 66.15-89.5 56.45-89.5C46.75-89.5 38.85-81.6 38.85-71.9C38.85-62.2 46.75-54.3 56.45-54.3C66.15-54.3 74.05-62.2 74.05-71.9ZM83.95-54.4L83.95-54.4C83.95-58.1 80.95-61.1 77.25-61.1L35.85-61.1C32.15-61.1 29.15-58.1 29.15-54.4L29.15-54.4C29.15-50.7 32.15-47.7 35.85-47.7L77.25-47.7C80.85-47.6 83.95-50.7 83.95-54.4ZM67.85-41.4C67.85-51.7 67.85-45.1 67.85-45.1L45.15-45.1C45.15-45.1 45.15-51.7 45.15-41.4C45.15-31.8 45.15-16 32.75-7.1C30.85-5.7 29.65-3.5 29.65-1.2L29.65 4.1L54.45 4.1L58.55 4.1L83.35 4.1L83.35-1.2C83.35-3.6 82.15-5.8 80.25-7.1C67.85-16 67.85-31.8 67.85-41.4ZM99.45 19.5C99.45 11.3 91.75 2.5 82.45 2.5L30.45 2.5C21.15 2.5 13.55 11.2 13.55 19.4L99.45 19.4Z"/>
  </g>
  <g id="Black-S" transform="matrix(1 0 0 1 2881.3 696)">
   <path d="M67.75-76.9C67.75-85.6 60.65-92.7 51.95-92.7C43.25-92.7 36.15-85.6 36.15-76.9C36.15-68.2 43.25-61.1 51.95-61.1C60.65-61.1 67.75-68.2 67.75-76.9ZM76.55-61.2L76.55-61.2C76.55-64.5 73.85-67.2 70.55-67.2L33.45-67.2C30.15-67.2 27.45-64.5 27.45-61.2L27.45-61.2C27.45-57.9 30.15-55.2 33.45-55.2L70.55-55.2C73.85-55.1 76.55-57.9 76.55-61.2ZM62.15-46.2C62.15-55.5 62.15-49.6 62.15-49.6L41.75-49.6C41.75-49.6 41.75-55.5 41.75-46.2C41.75-37.6 41.75-23.4 30.65-15.5C28.95-14.3 27.85-12.3 27.85-10.2L27.85-5.5L50.05-5.5L53.75-5.5L76.05-5.5L76.05-10.2C76.05-12.3 74.95-14.3 73.25-15.5C62.15-23.5 62.15-37.6 62.15-46.2ZM90.45 8.3C90.45 0.9 83.65-6.9 75.25-6.9L28.65-6.9C20.35-6.9 13.55 1 13.55 8.3L90.45 8.3Z"/>
  </g>
  <g id="Heavy-S" transform="matrix(1 0 0 1 2585.04 696)">
   <path d="M67.15-76.3C67.15-84.9 60.15-91.9 51.55-91.9C42.95-91.9 35.95-84.9 35.95-76.3C35.95-67.7 42.95-60.7 51.55-60.7C60.15-60.7 67.15-67.7 67.15-76.3ZM75.85-60.7L75.85-60.7C75.85-64 73.15-66.7 69.85-66.7L33.25-66.7C29.95-66.7 27.25-64 27.25-60.7L27.25-60.7C27.25-57.4 29.95-54.7 33.25-54.7L69.85-54.7C73.15-54.8 75.85-57.5 75.85-60.7ZM61.65-46.4C61.65-55.6 61.65-49.7 61.65-49.7L41.45-49.7C41.45-49.7 41.45-55.5 41.45-46.4C41.45-37.9 41.45-23.9 30.45-16.1C28.75-14.9 27.65-12.9 27.65-10.8L27.65-6.1L49.65-6.1L53.35-6.1L75.35-6.1L75.35-10.8C75.35-12.9 74.25-14.8 72.55-16.1C61.65-23.9 61.65-37.9 61.65-46.4ZM89.55 7.5C89.55 0.2 82.75-7.5 74.55-7.5L28.55-7.5C20.25-7.5 13.55 0.2 13.55 7.5L89.55 7.5Z"/>
  </g>
  <g id="Bold-S" transform="matrix(1 0 0 1 2288.78 696)">
   <path d="M66.45-75.7C66.45-84.2 59.55-91.1 51.05-91.1C42.55-91.1 35.65-84.2 35.65-75.7C35.65-67.2 42.55-60.3 51.05-60.3C59.55-60.3 66.45-67.2 66.45-75.7ZM75.05-60.3L75.05-60.3C75.05-63.5 72.45-66.2 69.15-66.2L32.95-66.2C29.75-66.2 27.05-63.6 27.05-60.3L27.05-60.3C27.05-57.1 29.65-54.4 32.95-54.4L69.15-54.4C72.45-54.4 75.05-57.1 75.05-60.3ZM61.05-46.6C61.05-55.7 61.05-49.9 61.05-49.9L41.15-49.9C41.15-49.9 41.15-55.7 41.15-46.6C41.15-38.2 41.15-24.3 30.35-16.6C28.65-15.4 27.65-13.5 27.65-11.4L27.65-6.8L49.35-6.8L52.95-6.8L74.65-6.8L74.65-11.4C74.65-13.5 73.65-15.4 71.95-16.6C61.05-24.3 61.05-38.2 61.05-46.6ZM88.65 6.8C88.65-0.4 81.95-8 73.85-8L28.35-8C20.15-8 13.55-0.4 13.55 6.8L88.65 6.8Z"/>
  </g>
  <g id="Semibold-S" transform="matrix(1 0 0 1 1992.47 696)">
   <path d="M65.85-75.1C65.85-83.5 59.05-90.3 50.65-90.3C42.25-90.3 35.45-83.5 35.45-75.1C35.45-66.7 42.25-59.9 50.65-59.9C59.05-59.9 65.85-66.7 65.85-75.1ZM74.35-59.9L74.35-59.9C74.35-63.1 71.75-65.7 68.55-65.7L32.75-65.7C29.55-65.7 26.95-63.1 26.95-59.9L26.95-59.9C26.95-56.7 29.55-54.1 32.75-54.1L68.55-54.1C71.75-54.1 74.35-56.7 74.35-59.9ZM60.55-46.7C60.55-55.6 60.55-49.9 60.55-49.9L40.85-49.9C40.85-49.9 40.85-55.6 40.85-46.7C40.85-38.4 40.85-24.7 30.15-17.1C28.45-15.9 27.45-14 27.45-12L27.45-7.4L48.85-7.4L52.45-7.4L73.95-7.4L73.95-12C73.95-14.1 72.95-15.9 71.25-17.1C60.55-24.7 60.55-38.4 60.55-46.7ZM87.85 6C87.85-1.1 81.25-8.7 73.15-8.7L28.25-8.7C20.15-8.7 13.55-1.1 13.55 6L87.85 6Z"/>
  </g>
  <g id="Medium-S" transform="matrix(1 0 0 1 1696.41 696)">
   <path d="M65.05-74.4C65.05-82.7 58.35-89.4 50.05-89.4C41.75-89.4 35.05-82.7 35.05-74.4C35.05-66.1 41.75-59.4 50.05-59.4C58.35-59.4 65.05-66.1 65.05-74.4ZM73.35-59.4L73.35-59.4C73.35-62.5 70.75-65.1 67.65-65.1L32.45-65.1C29.35-65.1 26.75-62.5 26.75-59.4L26.75-59.4C26.75-56.3 29.35-53.7 32.45-53.7L67.65-53.7C70.85-53.7 73.35-56.3 73.35-59.4ZM59.75-46.8C59.75-55.6 59.75-50 59.75-50L40.35-50C40.35-50 40.35-55.6 40.35-46.8C40.35-38.6 40.35-25.2 29.85-17.6C28.25-16.4 27.15-14.6 27.15-12.5L27.15-8L48.25-8L51.75-8L72.85-8L72.85-12.5C72.85-14.5 71.85-16.4 70.15-17.6C59.75-25.2 59.75-38.7 59.75-46.8ZM86.55 5C86.55-2 80.05-9.4 72.15-9.4L27.95-9.4C20.05-9.4 13.55-2 13.55 5L86.55 5Z"/>
  </g>
  <g id="Regular-S" transform="matrix(1 0 0 1 1400.24 696)">
   <path d="M64.25-73.7C64.25-81.8 57.65-88.4 49.55-88.4C41.45-88.4 34.85-81.8 34.85-73.7C34.85-65.6 41.45-59 49.55-59C57.65-59 64.25-65.5 64.25-73.7ZM72.45-58.9L72.45-58.9C72.45-62 69.95-64.5 66.85-64.5L32.15-64.5C29.05-64.5 26.55-62 26.55-58.9L26.55-58.9C26.55-55.8 29.05-53.3 32.15-53.3L66.75-53.3C69.95-53.3 72.45-55.8 72.45-58.9ZM59.05-47C59.05-55.7 59.05-50.1 59.05-50.1L40.05-50.1C40.05-50.1 40.05-55.6 40.05-47C40.05-39 40.05-25.7 29.65-18.3C28.05-17.1 27.05-15.3 27.05-13.3L27.05-8.9L47.85-8.9L51.35-8.9L72.15-8.9L72.15-13.3C72.15-15.3 71.15-17.1 69.55-18.3C59.05-25.7 59.05-38.9 59.05-47ZM85.45 4C85.45-2.9 79.05-10.2 71.25-10.2L27.75-10.2C19.95-10.2 13.55-2.9 13.55 4L85.45 4Z"/>
  </g>
  <g id="Light-S" transform="matrix(1 0 0 1 1104.48 696)">
   <path d="M62.85-72.9C62.85-80.8 56.45-87.2 48.55-87.2C40.65-87.2 34.25-80.8 34.25-72.9C34.25-65 40.55-58.5 48.45-58.5C56.35-58.5 62.85-64.9 62.85-72.9ZM70.85-58.5L70.85-58.5C70.85-61.5 68.35-64 65.35-64L31.65-64C28.65-64 26.15-61.5 26.15-58.5L26.15-58.5C26.15-55.5 28.65-53 31.65-53L65.35-53C68.35-53 70.85-55.5 70.85-58.5ZM57.75-47.2C57.75-56.4 57.75-56.4 57.75-50.3L39.25-50.3C39.25-56.4 39.25-56.4 39.25-47.2C39.25-39.4 39.25-26.5 29.15-19.3C27.55-18.1 26.55-16.4 26.55-14.4L26.55-10.1L46.75-10.1L50.15-10.1L70.35-10.1L70.35-14.4C70.35-16.3 69.35-18.1 67.75-19.2C57.75-26.5 57.75-39.4 57.75-47.2ZM83.55 2.8C83.55-3.9 77.25-11 69.65-11L27.35-11C19.75-11 13.55-3.9 13.55 2.8L83.55 2.8Z"/>
  </g>
  <g id="Thin-S" transform="matrix(1 0 0 1 808.372 696)">
   <path d="M62.05-71.9C62.05-79.7 55.75-86 47.95-86C40.15-86 33.85-79.7 33.85-71.9C33.85-64.1 40.25-57.9 48.05-57.9C55.85-57.9 62.05-64.2 62.05-71.9ZM69.95-57.9L69.95-57.9C69.95-60.9 67.55-63.3 64.55-63.3L31.45-63.3C28.45-63.3 26.05-60.9 26.05-57.9L26.05-57.9C26.05-54.9 28.45-52.5 31.45-52.5L64.55-52.5C67.55-52.5 69.95-54.9 69.95-57.9ZM57.15-47.1C57.15-56.1 57.15-56.1 57.15-50.1L38.85-50.1C38.85-56.1 38.85-56.1 38.85-47.1C38.85-39.4 38.85-26.7 28.95-19.7C27.45-18.6 26.45-16.8 26.45-14.9L26.45-10.7L46.35-10.7L49.65-10.7L69.55-10.7L69.55-14.9C69.55-16.8 68.55-18.6 67.05-19.7C57.15-26.8 57.15-39.4 57.15-47.1ZM82.35 1.7C82.35-4.9 76.25-11.9 68.75-11.9L27.15-11.9C19.65-11.9 13.55-4.9 13.55 1.7L82.35 1.7Z"/>
  </g>
  <g id="Ultralight-S" transform="matrix(1 0 0 1 512.411 696)">
   <path d="M61.05-71.1C61.05-78.7 54.85-84.9 47.25-84.9C39.65-84.9 33.45-78.7 33.45-71.1C33.45-63.5 39.65-57.3 47.25-57.3C54.85-57.3 61.05-63.5 61.05-71.1ZM68.75-57.3L68.75-57.3C68.75-60.2 66.35-62.6 63.45-62.6L31.05-62.6C28.15-62.6 25.75-60.2 25.75-57.3L25.75-57.3C25.75-54.4 28.15-52 31.05-52L63.45-52C66.35-52.1 68.75-54.4 68.75-57.3ZM56.15-47.2C56.15-55.3 56.15-50.1 56.15-50.1L38.35-50.1C38.35-50.1 38.35-55.3 38.35-47.2C38.35-39.7 38.35-27.3 28.65-20.4C27.15-19.3 26.15-17.6 26.15-15.7L26.15-11.5L45.55-11.5L48.75-11.5L68.15-11.5L68.15-15.7C68.15-17.6 67.25-19.3 65.65-20.4C56.15-27.3 56.15-39.7 56.15-47.2ZM80.85 0.5C80.85-5.9 74.85-12.8 67.55-12.8L26.85-12.8C19.55-12.8 13.55-6 13.55 0.5L80.85 0.5Z"/>
  </g>
 </g>
</svg>
