<?xml version="1.0" encoding="UTF-8"?>
<!--Generator: Apple Native CoreSVG 175-->
<!DOCTYPE svg
PUBLIC "-//W3C//DTD SVG 1.1//EN"
       "http://www.w3.org/Graphics/SVG/1.1/DTD/svg11.dtd">
<svg version="1.1" xmlns="http://www.w3.org/2000/svg" xmlns:xlink="http://www.w3.org/1999/xlink" width="3300" height="2200">
 <!--glyph: "", point size: 100.0, font version: "17.1d1e1", template writer version: "65.1"-->
 <style>.hierarchical-0:secondary {fill:#4D4D4D}
.hierarchical-1:primary {fill:#212121}

.SFSymbolsPreview212121 {fill:#212121;opacity:1.0}
.SFSymbolsPreview4D4D4D {fill:#4D4D4D;opacity:1.0}
</style>
 <g id="Notes">
  <rect height="2200" id="artboard" style="fill:white;opacity:1" width="3300" x="0" y="0"/>
  <line style="fill:none;stroke:black;opacity:1;stroke-width:0.5;" x1="263" x2="3036" y1="292" y2="292"/>
  <text style="stroke:none;fill:black;font-family:sans-serif;font-size:13;font-weight:bold;" transform="matrix(1 0 0 1 263 322)">Weight/Scale Variations</text>
  <text style="stroke:none;fill:black;font-family:sans-serif;font-size:13;text-anchor:middle;" transform="matrix(1 0 0 1 559.711 322)">Ultralight</text>
  <text style="stroke:none;fill:black;font-family:sans-serif;font-size:13;text-anchor:middle;" transform="matrix(1 0 0 1 856.422 322)">Thin</text>
  <text style="stroke:none;fill:black;font-family:sans-serif;font-size:13;text-anchor:middle;" transform="matrix(1 0 0 1 1153.13 322)">Light</text>
  <text style="stroke:none;fill:black;font-family:sans-serif;font-size:13;text-anchor:middle;" transform="matrix(1 0 0 1 1449.84 322)">Regular</text>
  <text style="stroke:none;fill:black;font-family:sans-serif;font-size:13;text-anchor:middle;" transform="matrix(1 0 0 1 1746.56 322)">Medium</text>
  <text style="stroke:none;fill:black;font-family:sans-serif;font-size:13;text-anchor:middle;" transform="matrix(1 0 0 1 2043.27 322)">Semibold</text>
  <text style="stroke:none;fill:black;font-family:sans-serif;font-size:13;text-anchor:middle;" transform="matrix(1 0 0 1 2339.98 322)">Bold</text>
  <text style="stroke:none;fill:black;font-family:sans-serif;font-size:13;text-anchor:middle;" transform="matrix(1 0 0 1 2636.69 322)">Heavy</text>
  <text style="stroke:none;fill:black;font-family:sans-serif;font-size:13;text-anchor:middle;" transform="matrix(1 0 0 1 2933.4 322)">Black</text>
  <line style="fill:none;stroke:black;opacity:1;stroke-width:0.5;" x1="263" x2="3036" y1="1903" y2="1903"/>
  <g transform="matrix(1 0 0 1 263 1933)">
   <path d="M9.24805 0.830078Q10.8691 0.830078 12.2949 0.214844Q13.7207-0.400391 14.8096-1.49414Q15.8984-2.58789 16.5186-4.01367Q17.1387-5.43945 17.1387-7.05078Q17.1387-8.66211 16.5186-10.0879Q15.8984-11.5137 14.8047-12.6074Q13.7109-13.7012 12.2852-14.3164Q10.8594-14.9316 9.23828-14.9316Q7.62695-14.9316 6.20117-14.3164Q4.77539-13.7012 3.69141-12.6074Q2.60742-11.5137 1.9873-10.0879Q1.36719-8.66211 1.36719-7.05078Q1.36719-5.43945 1.9873-4.01367Q2.60742-2.58789 3.69629-1.49414Q4.78516-0.400391 6.21094 0.214844Q7.63672 0.830078 9.24805 0.830078ZM9.24805-0.654297Q7.91992-0.654297 6.7627-1.14746Q5.60547-1.64062 4.73145-2.51953Q3.85742-3.39844 3.36426-4.56055Q2.87109-5.72266 2.87109-7.05078Q2.87109-8.37891 3.35938-9.54102Q3.84766-10.7031 4.72168-11.582Q5.5957-12.4609 6.75293-12.9541Q7.91016-13.4473 9.23828-13.4473Q10.5762-13.4473 11.7334-12.9541Q12.8906-12.4609 13.7695-11.582Q14.6484-10.7031 15.1465-9.54102Q15.6445-8.37891 15.6445-7.05078Q15.6445-5.72266 15.1514-4.56055Q14.6582-3.39844 13.7842-2.51953Q12.9102-1.64062 11.748-1.14746Q10.5859-0.654297 9.24805-0.654297ZM5.6543-7.05078Q5.6543-6.72852 5.85938-6.52832Q6.06445-6.32812 6.40625-6.32812L8.51562-6.32812L8.51562-4.20898Q8.51562-3.88672 8.71094-3.67676Q8.90625-3.4668 9.23828-3.4668Q9.56055-3.4668 9.77051-3.67676Q9.98047-3.88672 9.98047-4.20898L9.98047-6.32812L12.0898-6.32812Q12.4219-6.32812 12.627-6.52832Q12.832-6.72852 12.832-7.05078Q12.832-7.38281 12.627-7.58789Q12.4219-7.79297 12.0898-7.79297L9.98047-7.79297L9.98047-9.90234Q9.98047-10.2344 9.77051-10.4443Q9.56055-10.6543 9.23828-10.6543Q8.90625-10.6543 8.71094-10.4443Q8.51562-10.2344 8.51562-9.90234L8.51562-7.79297L6.40625-7.79297Q6.06445-7.79297 5.85938-7.58789Q5.6543-7.38281 5.6543-7.05078Z"/>
  </g>
  <g transform="matrix(1 0 0 1 281.867 1933)">
   <path d="M11.709 2.91016Q13.75 2.91016 15.5518 2.12891Q17.3535 1.34766 18.7305-0.0292969Q20.1074-1.40625 20.8887-3.20801Q21.6699-5.00977 21.6699-7.05078Q21.6699-9.0918 20.8887-10.8936Q20.1074-12.6953 18.7305-14.0723Q17.3535-15.4492 15.5469-16.2305Q13.7402-17.0117 11.6992-17.0117Q9.6582-17.0117 7.85645-16.2305Q6.05469-15.4492 4.68262-14.0723Q3.31055-12.6953 2.5293-10.8936Q1.74805-9.0918 1.74805-7.05078Q1.74805-5.00977 2.5293-3.20801Q3.31055-1.40625 4.6875-0.0292969Q6.06445 1.34766 7.86621 2.12891Q9.66797 2.91016 11.709 2.91016ZM11.709 1.25Q9.98047 1.25 8.47656 0.605469Q6.97266-0.0390625 5.83496-1.17676Q4.69727-2.31445 4.05762-3.81836Q3.41797-5.32227 3.41797-7.05078Q3.41797-8.7793 4.05762-10.2832Q4.69727-11.7871 5.83008-12.9297Q6.96289-14.0723 8.4668-14.7119Q9.9707-15.3516 11.6992-15.3516Q13.4277-15.3516 14.9316-14.7119Q16.4355-14.0723 17.5781-12.9297Q18.7207-11.7871 19.3652-10.2832Q20.0098-8.7793 20.0098-7.05078Q20.0098-5.32227 19.3701-3.81836Q18.7305-2.31445 17.5928-1.17676Q16.4551-0.0390625 14.9463 0.605469Q13.4375 1.25 11.709 1.25ZM7.17773-7.05078Q7.17773-6.69922 7.41211-6.47461Q7.64648-6.25 8.01758-6.25L10.8887-6.25L10.8887-3.36914Q10.8887-2.99805 11.1133-2.76855Q11.3379-2.53906 11.6895-2.53906Q12.0605-2.53906 12.29-2.76855Q12.5195-2.99805 12.5195-3.36914L12.5195-6.25L15.4004-6.25Q15.7715-6.25 16.001-6.47461Q16.2305-6.69922 16.2305-7.05078Q16.2305-7.42188 16.001-7.65137Q15.7715-7.88086 15.4004-7.88086L12.5195-7.88086L12.5195-10.752Q12.5195-11.1328 12.29-11.3623Q12.0605-11.5918 11.6895-11.5918Q11.3379-11.5918 11.1133-11.3574Q10.8887-11.123 10.8887-10.752L10.8887-7.88086L8.01758-7.88086Q7.63672-7.88086 7.40723-7.65137Q7.17773-7.42188 7.17773-7.05078Z"/>
  </g>
  <g transform="matrix(1 0 0 1 305.646 1933)">
   <path d="M14.9707 5.66406Q17.0605 5.66406 18.96 5.01465Q20.8594 4.36523 22.4512 3.19336Q24.043 2.02148 25.2197 0.429688Q26.3965-1.16211 27.0459-3.06641Q27.6953-4.9707 27.6953-7.05078Q27.6953-9.14062 27.0459-11.04Q26.3965-12.9395 25.2197-14.5312Q24.043-16.123 22.4512-17.2998Q20.8594-18.4766 18.9551-19.126Q17.0508-19.7754 14.9609-19.7754Q12.8711-19.7754 10.9717-19.126Q9.07227-18.4766 7.48535-17.2998Q5.89844-16.123 4.72168-14.5312Q3.54492-12.9395 2.90039-11.04Q2.25586-9.14062 2.25586-7.05078Q2.25586-4.9707 2.90527-3.06641Q3.55469-1.16211 4.72656 0.429688Q5.89844 2.02148 7.49023 3.19336Q9.08203 4.36523 10.9814 5.01465Q12.8809 5.66406 14.9707 5.66406ZM14.9707 3.84766Q13.1641 3.84766 11.5283 3.2959Q9.89258 2.74414 8.53516 1.74805Q7.17773 0.751953 6.17676-0.610352Q5.17578-1.97266 4.62891-3.6084Q4.08203-5.24414 4.08203-7.05078Q4.08203-8.86719 4.62891-10.5029Q5.17578-12.1387 6.17188-13.501Q7.16797-14.8633 8.52539-15.8594Q9.88281-16.8555 11.5186-17.4023Q13.1543-17.9492 14.9609-17.9492Q16.7773-17.9492 18.4131-17.4023Q20.0488-16.8555 21.4111-15.8594Q22.7734-14.8633 23.7695-13.501Q24.7656-12.1387 25.3174-10.5029Q25.8691-8.86719 25.8691-7.05078Q25.8789-5.24414 25.332-3.6084Q24.7852-1.97266 23.7842-0.610352Q22.7832 0.751953 21.4209 1.74805Q20.0586 2.74414 18.4229 3.2959Q16.7871 3.84766 14.9707 3.84766ZM9.19922-7.05078Q9.19922-6.66992 9.45801-6.4209Q9.7168-6.17188 10.1172-6.17188L14.0625-6.17188L14.0625-2.2168Q14.0625-1.81641 14.3115-1.55762Q14.5605-1.29883 14.9512-1.29883Q15.3516-1.29883 15.6104-1.55273Q15.8691-1.80664 15.8691-2.2168L15.8691-6.17188L19.8242-6.17188Q20.2246-6.17188 20.4785-6.4209Q20.7324-6.66992 20.7324-7.05078Q20.7324-7.46094 20.4785-7.71484Q20.2246-7.96875 19.8242-7.96875L15.8691-7.96875L15.8691-11.9141Q15.8691-12.3242 15.6104-12.583Q15.3516-12.8418 14.9512-12.8418Q14.5605-12.8418 14.3115-12.583Q14.0625-12.3242 14.0625-11.9141L14.0625-7.96875L10.1172-7.96875Q9.70703-7.96875 9.45312-7.71484Q9.19922-7.46094 9.19922-7.05078Z"/>
  </g>
  <text style="stroke:none;fill:black;font-family:sans-serif;font-size:13;font-weight:bold;" transform="matrix(1 0 0 1 263 1953)">Design Variations</text>
  <text style="stroke:none;fill:black;font-family:sans-serif;font-size:13;" transform="matrix(1 0 0 1 263 1971)">Symbols are supported in up to nine weights and three scales.</text>
  <text style="stroke:none;fill:black;font-family:sans-serif;font-size:13;" transform="matrix(1 0 0 1 263 1989)">For optimal layout with text and other symbols, vertically align</text>
  <text style="stroke:none;fill:black;font-family:sans-serif;font-size:13;" transform="matrix(1 0 0 1 263 2007)">symbols with the adjacent text.</text>
  <line style="fill:none;stroke:#00AEEF;stroke-width:0.5;opacity:1.0;" x1="776" x2="776" y1="1919" y2="1933"/>
  <g transform="matrix(1 0 0 1 776 1933)">
   <path d="M3.31055 0.15625Q3.70117 0.15625 3.91602-0.00976562Q4.13086-0.175781 4.26758-0.585938L5.52734-4.0332L11.2891-4.0332L12.5488-0.585938Q12.6855-0.175781 12.9004-0.00976562Q13.1152 0.15625 13.4961 0.15625Q13.8867 0.15625 14.1162-0.0585938Q14.3457-0.273438 14.3457-0.644531Q14.3457-0.869141 14.2383-1.17188L9.6582-13.3691Q9.48242-13.8184 9.17969-14.043Q8.87695-14.2676 8.4082-14.2676Q7.5-14.2676 7.17773-13.3789L2.59766-1.16211Q2.49023-0.859375 2.49023-0.634766Q2.49023-0.263672 2.70996-0.0537109Q2.92969 0.15625 3.31055 0.15625ZM6.00586-5.51758L8.37891-12.0898L8.42773-12.0898L10.8008-5.51758Z"/>
  </g>
  <line style="fill:none;stroke:#00AEEF;stroke-width:0.5;opacity:1.0;" x1="793.197" x2="793.197" y1="1919" y2="1933"/>
  <text style="stroke:none;fill:black;font-family:sans-serif;font-size:13;font-weight:bold;" transform="matrix(1 0 0 1 776 1953)">Margins</text>
  <text style="stroke:none;fill:black;font-family:sans-serif;font-size:13;" transform="matrix(1 0 0 1 776 1971)">Leading and trailing margins on the left and right side of each symbol</text>
  <text style="stroke:none;fill:black;font-family:sans-serif;font-size:13;" transform="matrix(1 0 0 1 776 1989)">can be adjusted by modifying the x-location of the margin guidelines.</text>
  <text style="stroke:none;fill:black;font-family:sans-serif;font-size:13;" transform="matrix(1 0 0 1 776 2007)">Modifications are automatically applied proportionally to all</text>
  <text style="stroke:none;fill:black;font-family:sans-serif;font-size:13;" transform="matrix(1 0 0 1 776 2025)">scales and weights.</text>
  <g transform="matrix(1 0 0 1 1289 1933)">
   <path d="M2.8418 1.86523L4.54102 3.57422Q5.18555 4.22852 5.90332 4.17969Q6.62109 4.13086 7.31445 3.35938L18.0078-8.42773L17.041-9.4043L6.42578 2.27539Q6.16211 2.57812 5.89355 2.61719Q5.625 2.65625 5.27344 2.30469L4.10156 1.14258Q3.75 0.791016 3.79395 0.522461Q3.83789 0.253906 4.14062-0.0195312L15.6152-10.8203L14.6387-11.7871L3.04688-0.898438Q2.30469-0.214844 2.25098 0.498047Q2.19727 1.21094 2.8418 1.86523ZM9.25781-16.3281Q8.94531-16.0254 8.90625-15.6348Q8.86719-15.2441 9.04297-14.9512Q9.21875-14.6777 9.55566-14.541Q9.89258-14.4043 10.3809-14.5215Q11.4746-14.7754 12.5977-14.7314Q13.7207-14.6875 14.7949-13.9844L14.209-12.5293Q13.9551-11.9043 14.0674-11.4404Q14.1797-10.9766 14.5801-10.5664L16.875-8.25195Q17.2363-7.88086 17.5781-7.82227Q17.9199-7.76367 18.3398-7.8418L19.4043-8.03711L20.0684-7.36328L20.0293-6.80664Q20-6.43555 20.1221-6.12305Q20.2441-5.81055 20.6055-5.44922L21.3672-4.70703Q21.7285-4.3457 22.1533-4.33105Q22.5781-4.31641 22.9297-4.66797L25.8398-7.58789Q26.1914-7.93945 26.1816-8.35449Q26.1719-8.76953 25.8105-9.13086L25.0391-9.89258Q24.6875-10.2539 24.3799-10.3857Q24.0723-10.5176 23.7109-10.4883L23.1348-10.4395L22.4902-11.0742L22.7344-12.1973Q22.832-12.6172 22.6953-12.9834Q22.5586-13.3496 22.1191-13.7891L19.9219-15.9766Q18.6719-17.2168 17.2607-17.8369Q15.8496-18.457 14.4189-18.4814Q12.9883-18.5059 11.665-17.959Q10.3418-17.4121 9.25781-16.3281ZM10.752-15.957Q11.6602-16.6211 12.7002-16.9043Q13.7402-17.1875 14.8047-17.085Q15.8691-16.9824 16.8701-16.5137Q17.8711-16.0449 18.7012-15.2051L21.1328-12.793Q21.3086-12.6172 21.3525-12.4512Q21.3965-12.2852 21.3379-12.0312L21.0156-10.5469L22.5195-9.0625L23.5059-9.12109Q23.6914-9.13086 23.7891-9.09668Q23.8867-9.0625 24.0332-8.91602L24.6094-8.33984L22.168-5.89844L21.5918-6.47461Q21.4453-6.62109 21.4062-6.71875Q21.3672-6.81641 21.377-7.01172L21.4453-7.98828L19.9512-9.47266L18.4277-9.21875Q18.1836-9.16992 18.042-9.2041Q17.9004-9.23828 17.7148-9.41406L15.7129-11.416Q15.5176-11.5918 15.4932-11.7529Q15.4688-11.9141 15.5859-12.1875L16.4648-14.2773Q15.293-15.3711 13.8281-15.791Q12.3633-16.2109 10.8398-15.7617Q10.7227-15.7324 10.6885-15.8057Q10.6543-15.8789 10.752-15.957Z"/>
  </g>
  <text style="stroke:none;fill:black;font-family:sans-serif;font-size:13;font-weight:bold;" transform="matrix(1 0 0 1 1289 1953)">Exporting</text>
  <text style="stroke:none;fill:black;font-family:sans-serif;font-size:13;" transform="matrix(1 0 0 1 1289 1971)">Symbols should be outlined when exporting to ensure the</text>
  <text style="stroke:none;fill:black;font-family:sans-serif;font-size:13;" transform="matrix(1 0 0 1 1289 1989)">design is preserved when submitting to Xcode.</text>
  <text id="template-version" style="stroke:none;fill:black;font-family:sans-serif;font-size:13;text-anchor:end;" transform="matrix(1 0 0 1 3036 1933)">Template v.3.0</text>
  <text style="stroke:none;fill:black;font-family:sans-serif;font-size:13;text-anchor:end;" transform="matrix(1 0 0 1 3036 1951)">Requires Xcode 13 or greater</text>
  <text id="descriptive-name" style="stroke:none;fill:black;font-family:sans-serif;font-size:13;text-anchor:end;" transform="matrix(1 0 0 1 3036 1969)">Generated from custom.washing_machine</text>
  <text style="stroke:none;fill:black;font-family:sans-serif;font-size:13;text-anchor:end;" transform="matrix(1 0 0 1 3036 1987)">Typeset at 100 points</text>
  <text style="stroke:none;fill:black;font-family:sans-serif;font-size:13;" transform="matrix(1 0 0 1 263 726)">Small</text>
  <text style="stroke:none;fill:black;font-family:sans-serif;font-size:13;" transform="matrix(1 0 0 1 263 1156)">Medium</text>
  <text style="stroke:none;fill:black;font-family:sans-serif;font-size:13;" transform="matrix(1 0 0 1 263 1586)">Large</text>
 </g>
 <g id="Guides">
  <g id="H-reference" style="fill:#27AAE1;stroke:none;" transform="matrix(1 0 0 1 339 696)">
   <path d="M0.993347 0L3.6377 0L29.3282-67.1326L30.0301-67.1326L30.0301-70.459L28.1227-70.459ZM11.6882-24.4797L46.9818-24.4797L46.2311-26.7288L12.4382-26.7288ZM55.1193 0L57.7637 0L30.6381-70.459L29.4327-70.459L29.4327-67.1326Z"/>
  </g>
  <line id="Baseline-S" style="fill:none;stroke:#27AAE1;opacity:1;stroke-width:0.5;" x1="263" x2="3036" y1="696" y2="696"/>
  <line id="Capline-S" style="fill:none;stroke:#27AAE1;opacity:1;stroke-width:0.5;" x1="263" x2="3036" y1="625.541" y2="625.541"/>
  <g id="H-reference" style="fill:#27AAE1;stroke:none;" transform="matrix(1 0 0 1 339 1126)">
   <path d="M0.993347 0L3.6377 0L29.3282-67.1326L30.0301-67.1326L30.0301-70.459L28.1227-70.459ZM11.6882-24.4797L46.9818-24.4797L46.2311-26.7288L12.4382-26.7288ZM55.1193 0L57.7637 0L30.6381-70.459L29.4327-70.459L29.4327-67.1326Z"/>
  </g>
  <line id="Baseline-M" style="fill:none;stroke:#27AAE1;opacity:1;stroke-width:0.5;" x1="263" x2="3036" y1="1126" y2="1126"/>
  <line id="Capline-M" style="fill:none;stroke:#27AAE1;opacity:1;stroke-width:0.5;" x1="263" x2="3036" y1="1055.54" y2="1055.54"/>
  <g id="H-reference" style="fill:#27AAE1;stroke:none;" transform="matrix(1 0 0 1 339 1556)">
   <path d="M0.993347 0L3.6377 0L29.3282-67.1326L30.0301-67.1326L30.0301-70.459L28.1227-70.459ZM11.6882-24.4797L46.9818-24.4797L46.2311-26.7288L12.4382-26.7288ZM55.1193 0L57.7637 0L30.6381-70.459L29.4327-70.459L29.4327-67.1326Z"/>
  </g>
  <line id="Baseline-L" style="fill:none;stroke:#27AAE1;opacity:1;stroke-width:0.5;" x1="263" x2="3036" y1="1556" y2="1556"/>
  <line id="Capline-L" style="fill:none;stroke:#27AAE1;opacity:1;stroke-width:0.5;" x1="263" x2="3036" y1="1485.54" y2="1485.54"/>
  <line id="left-margin-Ultralight-S" style="fill:none;stroke:#00AEEF;stroke-width:0.5;opacity:1.0;" x1="511.518" x2="511.518" y1="600.785" y2="720.121"/>
  <line id="right-margin-Ultralight-S" style="fill:none;stroke:#00AEEF;stroke-width:0.5;opacity:1.0;" x1="607.904" x2="607.904" y1="600.785" y2="720.121"/>
  <line id="left-margin-Thin-S" style="fill:none;stroke:#00AEEF;stroke-width:0.5;opacity:1.0;" x1="807.399" x2="807.399" y1="600.785" y2="720.121"/>
  <line id="right-margin-Thin-S" style="fill:none;stroke:#00AEEF;stroke-width:0.5;opacity:1.0;" x1="905.446" x2="905.446" y1="600.785" y2="720.121"/>
  <line id="left-margin-Light-S" style="fill:none;stroke:#00AEEF;stroke-width:0.5;opacity:1.0;" x1="1102.52" x2="1102.52" y1="600.785" y2="720.121"/>
  <line id="right-margin-Light-S" style="fill:none;stroke:#00AEEF;stroke-width:0.5;opacity:1.0;" x1="1203.74" x2="1203.74" y1="600.785" y2="720.121"/>
  <line id="left-margin-Regular-S" style="fill:none;stroke:#00AEEF;stroke-width:0.5;opacity:1.0;" x1="1398.01" x2="1398.01" y1="600.785" y2="720.121"/>
  <line id="right-margin-Regular-S" style="fill:none;stroke:#00AEEF;stroke-width:0.5;opacity:1.0;" x1="1501.68" x2="1501.68" y1="600.785" y2="720.121"/>
  <line id="left-margin-Medium-S" style="fill:none;stroke:#00AEEF;stroke-width:0.5;opacity:1.0;" x1="1694.02" x2="1694.02" y1="600.785" y2="720.121"/>
  <line id="right-margin-Medium-S" style="fill:none;stroke:#00AEEF;stroke-width:0.5;opacity:1.0;" x1="1799.09" x2="1799.09" y1="600.785" y2="720.121"/>
  <line id="left-margin-Semibold-S" style="fill:none;stroke:#00AEEF;stroke-width:0.5;opacity:1.0;" x1="1990.19" x2="1990.19" y1="600.785" y2="720.121"/>
  <line id="right-margin-Semibold-S" style="fill:none;stroke:#00AEEF;stroke-width:0.5;opacity:1.0;" x1="2096.34" x2="2096.34" y1="600.785" y2="720.121"/>
  <line id="left-margin-Bold-S" style="fill:none;stroke:#00AEEF;stroke-width:0.5;opacity:1.0;" x1="2286.19" x2="2286.19" y1="600.785" y2="720.121"/>
  <line id="right-margin-Bold-S" style="fill:none;stroke:#00AEEF;stroke-width:0.5;opacity:1.0;" x1="2393.76" x2="2393.76" y1="600.785" y2="720.121"/>
  <line id="left-margin-Heavy-S" style="fill:none;stroke:#00AEEF;stroke-width:0.5;opacity:1.0;" x1="2581.9" x2="2581.9" y1="600.785" y2="720.121"/>
  <line id="right-margin-Heavy-S" style="fill:none;stroke:#00AEEF;stroke-width:0.5;opacity:1.0;" x1="2691.47" x2="2691.47" y1="600.785" y2="720.121"/>
  <line id="left-margin-Black-S" style="fill:none;stroke:#00AEEF;stroke-width:0.5;opacity:1.0;" x1="2877.69" x2="2877.69" y1="600.785" y2="720.121"/>
  <line id="right-margin-Black-S" style="fill:none;stroke:#00AEEF;stroke-width:0.5;opacity:1.0;" x1="2989.11" x2="2989.11" y1="600.785" y2="720.121"/>
  <line id="left-margin-Ultralight-M" style="fill:none;stroke:#00AEEF;stroke-width:0.5;opacity:1.0;" x1="498.529" x2="498.529" y1="1030.79" y2="1150.12"/>
  <line id="right-margin-Ultralight-M" style="fill:none;stroke:#00AEEF;stroke-width:0.5;opacity:1.0;" x1="620.893" x2="620.893" y1="1030.79" y2="1150.12"/>
  <line id="left-margin-Thin-M" style="fill:none;stroke:#00AEEF;stroke-width:0.5;opacity:1.0;" x1="794.313" x2="794.313" y1="1030.79" y2="1150.12"/>
  <line id="right-margin-Thin-M" style="fill:none;stroke:#00AEEF;stroke-width:0.5;opacity:1.0;" x1="918.531" x2="918.531" y1="1030.79" y2="1150.12"/>
  <line id="left-margin-Light-M" style="fill:none;stroke:#00AEEF;stroke-width:0.5;opacity:1.0;" x1="1089.19" x2="1089.19" y1="1030.79" y2="1150.12"/>
  <line id="right-margin-Light-M" style="fill:none;stroke:#00AEEF;stroke-width:0.5;opacity:1.0;" x1="1217.07" x2="1217.07" y1="1030.79" y2="1150.12"/>
  <line id="left-margin-Regular-M" style="fill:none;stroke:#00AEEF;stroke-width:0.5;opacity:1.0;" x1="1384.54" x2="1384.54" y1="1030.79" y2="1150.12"/>
  <line id="right-margin-Regular-M" style="fill:none;stroke:#00AEEF;stroke-width:0.5;opacity:1.0;" x1="1515.15" x2="1515.15" y1="1030.79" y2="1150.12"/>
  <line id="left-margin-Medium-M" style="fill:none;stroke:#00AEEF;stroke-width:0.5;opacity:1.0;" x1="1680.27" x2="1680.27" y1="1030.79" y2="1150.12"/>
  <line id="right-margin-Medium-M" style="fill:none;stroke:#00AEEF;stroke-width:0.5;opacity:1.0;" x1="1812.84" x2="1812.84" y1="1030.79" y2="1150.12"/>
  <line id="left-margin-Semibold-M" style="fill:none;stroke:#00AEEF;stroke-width:0.5;opacity:1.0;" x1="1976.25" x2="1976.25" y1="1030.79" y2="1150.12"/>
  <line id="right-margin-Semibold-M" style="fill:none;stroke:#00AEEF;stroke-width:0.5;opacity:1.0;" x1="2110.28" x2="2110.28" y1="1030.79" y2="1150.12"/>
  <line id="left-margin-Bold-M" style="fill:none;stroke:#00AEEF;stroke-width:0.5;opacity:1.0;" x1="2271.96" x2="2271.96" y1="1030.79" y2="1150.12"/>
  <line id="right-margin-Bold-M" style="fill:none;stroke:#00AEEF;stroke-width:0.5;opacity:1.0;" x1="2408" x2="2408" y1="1030.79" y2="1150.12"/>
  <line id="left-margin-Heavy-M" style="fill:none;stroke:#00AEEF;stroke-width:0.5;opacity:1.0;" x1="2567.26" x2="2567.26" y1="1030.79" y2="1150.12"/>
  <line id="right-margin-Heavy-M" style="fill:none;stroke:#00AEEF;stroke-width:0.5;opacity:1.0;" x1="2706.12" x2="2706.12" y1="1030.79" y2="1150.12"/>
  <line id="left-margin-Black-M" style="fill:none;stroke:#00AEEF;stroke-width:0.5;opacity:1.0;" x1="2862.7" x2="2862.7" y1="1030.79" y2="1150.12"/>
  <line id="right-margin-Black-M" style="fill:none;stroke:#00AEEF;stroke-width:0.5;opacity:1.0;" x1="3004.1" x2="3004.1" y1="1030.79" y2="1150.12"/>
  <line id="left-margin-Ultralight-L" style="fill:none;stroke:#00AEEF;stroke-width:0.5;opacity:1.0;" x1="481.147" x2="481.147" y1="1460.79" y2="1580.12"/>
  <line id="right-margin-Ultralight-L" style="fill:none;stroke:#00AEEF;stroke-width:0.5;opacity:1.0;" x1="638.276" x2="638.276" y1="1460.79" y2="1580.12"/>
  <line id="left-margin-Thin-L" style="fill:none;stroke:#00AEEF;stroke-width:0.5;opacity:1.0;" x1="776.809" x2="776.809" y1="1460.79" y2="1580.12"/>
  <line id="right-margin-Thin-L" style="fill:none;stroke:#00AEEF;stroke-width:0.5;opacity:1.0;" x1="936.036" x2="936.036" y1="1460.79" y2="1580.12"/>
  <line id="left-margin-Light-L" style="fill:none;stroke:#00AEEF;stroke-width:0.5;opacity:1.0;" x1="1071.49" x2="1071.49" y1="1460.79" y2="1580.12"/>
  <line id="right-margin-Light-L" style="fill:none;stroke:#00AEEF;stroke-width:0.5;opacity:1.0;" x1="1234.77" x2="1234.77" y1="1460.79" y2="1580.12"/>
  <line id="left-margin-Regular-L" style="fill:none;stroke:#00AEEF;stroke-width:0.5;opacity:1.0;" x1="1366.67" x2="1366.67" y1="1460.79" y2="1580.12"/>
  <line id="right-margin-Regular-L" style="fill:none;stroke:#00AEEF;stroke-width:0.5;opacity:1.0;" x1="1533.02" x2="1533.02" y1="1460.79" y2="1580.12"/>
  <line id="left-margin-Medium-L" style="fill:none;stroke:#00AEEF;stroke-width:0.5;opacity:1.0;" x1="1662.13" x2="1662.13" y1="1460.79" y2="1580.12"/>
  <line id="right-margin-Medium-L" style="fill:none;stroke:#00AEEF;stroke-width:0.5;opacity:1.0;" x1="1830.98" x2="1830.98" y1="1460.79" y2="1580.12"/>
  <line id="left-margin-Semibold-L" style="fill:none;stroke:#00AEEF;stroke-width:0.5;opacity:1.0;" x1="1957.87" x2="1957.87" y1="1460.79" y2="1580.12"/>
  <line id="right-margin-Semibold-L" style="fill:none;stroke:#00AEEF;stroke-width:0.5;opacity:1.0;" x1="2128.67" x2="2128.67" y1="1460.79" y2="1580.12"/>
  <line id="left-margin-Bold-L" style="fill:none;stroke:#00AEEF;stroke-width:0.5;opacity:1.0;" x1="2253.31" x2="2253.31" y1="1460.79" y2="1580.12"/>
  <line id="right-margin-Bold-L" style="fill:none;stroke:#00AEEF;stroke-width:0.5;opacity:1.0;" x1="2426.65" x2="2426.65" y1="1460.79" y2="1580.12"/>
  <line id="left-margin-Heavy-L" style="fill:none;stroke:#00AEEF;stroke-width:0.5;opacity:1.0;" x1="2548.19" x2="2548.19" y1="1460.79" y2="1580.12"/>
  <line id="right-margin-Heavy-L" style="fill:none;stroke:#00AEEF;stroke-width:0.5;opacity:1.0;" x1="2725.19" x2="2725.19" y1="1460.79" y2="1580.12"/>
  <line id="left-margin-Black-L" style="fill:none;stroke:#00AEEF;stroke-width:0.5;opacity:1.0;" x1="2843.26" x2="2843.26" y1="1460.79" y2="1580.12"/>
  <line id="right-margin-Black-L" style="fill:none;stroke:#00AEEF;stroke-width:0.5;opacity:1.0;" x1="3023.54" x2="3023.54" y1="1460.79" y2="1580.12"/>
 </g>
 <g id="Symbols">
  <g id="Black-L" transform="matrix(1 0 0 1 2843.26 1556)">
   <path class="hierarchical-0:secondary SFSymbolsPreview4D4D4D" d="M88.282-84.47L43.065-84.47L43.065-98.66L88.282-98.66L88.282-84.47ZM106.948-83.389C111.455-83.389 115.122-87.057 115.122-91.566C115.122-96.073 111.455-99.739 106.948-99.739C102.439-99.739 98.772-96.073 98.772-91.566C98.772-87.057 102.439-83.389 106.948-83.389ZM129.103-83.389C133.612-83.389 137.279-87.057 137.279-91.566C137.279-96.073 133.612-99.739 129.103-99.739C124.596-99.739 120.928-96.073 120.928-91.566C120.928-87.057 124.596-83.389 129.103-83.389Z"/>
   <path class="hierarchical-1:primary SFSymbolsPreview212121" d="M147.742-122.982L32.531-122.982C24.694-122.982 18.341-116.628 18.341-108.792L18.341 38.331C18.341 46.168 24.695 52.521 32.531 52.521L147.742 52.521C155.579 52.521 161.932 46.167 161.932 38.331L161.932-108.791C161.933-116.627 155.579-122.982 147.742-122.982ZM32.531 38.331L32.531-61.773L147.742-61.773L147.742 38.331L32.531 38.331ZM90.137-57.597C64.943-57.597 44.447-37.1 44.447-11.907C44.447 13.286 64.943 33.782 90.137 33.782C115.331 33.782 135.827 13.286 135.827-11.907C135.827-37.1 115.331-57.597 90.137-57.597ZM147.742-108.791L147.742-75.963L32.531-75.963L32.531-108.791L147.742-108.791ZM90.137-43.406C107.534-43.406 121.638-29.303 121.638-11.906C121.638-9.822 121.43-7.788 121.044-5.816C115.447-2.578 109.676 0.659 103.955 0.659C98.045 0.659 92.074-2.801 86.301-6.146C81.413-8.978 76.358-11.907 72.524-11.907C68.795-11.907 63.9-9.127 59.131-6.367C58.813-8.167 58.637-10.014 58.637-11.906C58.637-29.304 72.74-43.406 90.137-43.406Z"/>
  </g>
  <g id="Heavy-L" transform="matrix(1 0 0 1 2548.19 1556)">
   <path class="hierarchical-0:secondary SFSymbolsPreview4D4D4D" d="M86.649-85.115L41.432-85.115L41.432-98.015L86.649-98.015L86.649-85.115ZM105.315-84.034C109.466-84.034 112.843-87.412 112.843-91.565C112.843-95.715 109.466-99.093 105.315-99.093C101.163-99.093 97.785-95.715 97.785-91.565C97.785-87.412 101.163-84.034 105.315-84.034ZM127.469-84.034C131.621-84.034 135-87.412 135-91.565C135-95.715 131.621-99.093 127.469-99.093C123.318-99.093 119.94-95.715 119.94-91.565C119.94-87.412 123.318-84.034 127.469-84.034Z"/>
   <path class="hierarchical-1:primary SFSymbolsPreview212121" d="M146.109-121.692L30.898-121.692C23.774-121.692 17.998-115.916 17.998-108.792L17.998 38.331C17.998 45.455 23.774 51.231 30.898 51.231L146.109 51.231C153.233 51.231 159.009 45.455 159.009 38.331L159.009-108.791C159.01-115.915 153.233-121.692 146.109-121.692ZM30.898 38.331L30.898-62.418L146.109-62.418L146.109 38.331L30.898 38.331ZM88.504-56.307C64.022-56.307 44.104-36.39 44.104-11.907C44.104 12.575 64.022 32.492 88.504 32.492C112.986 32.492 132.904 12.575 132.904-11.907C132.904-36.39 112.986-56.307 88.504-56.307ZM146.109-108.791L146.109-75.318L30.898-75.318L30.898-108.791L146.109-108.791ZM119.411-5.817C113.814-2.58 108.043 0.657 102.322 0.657C96.412 0.657 90.441-2.802 84.668-6.147C79.78-8.979 74.725-11.908 70.891-11.908C67.162-11.908 62.267-9.128 57.498-6.368C57.18-8.168 57.004-10.016 57.004-11.907C57.004-29.304 71.108-43.407 88.504-43.407C105.901-43.407 120.005-29.304 120.005-11.907C120.005-9.823 119.797-7.788 119.411-5.817Z"/>
  </g>
  <g id="Bold-L" transform="matrix(1 0 0 1 2253.31 1556)">
   <path class="hierarchical-0:secondary SFSymbolsPreview4D4D4D" d="M84.815-85.76L39.598-85.76L39.598-97.37L84.815-97.37L84.815-85.76ZM103.481-84.68C107.277-84.68 110.365-87.769 110.365-91.566C110.365-95.362 107.277-98.449 103.481-98.449C99.684-98.449 96.595-95.362 96.595-91.566C96.595-87.769 99.684-84.68 103.481-84.68ZM125.635-84.68C129.432-84.68 132.522-87.769 132.522-91.566C132.522-95.362 129.432-98.449 125.635-98.449C121.84-98.449 118.75-95.362 118.75-91.566C118.751-87.769 121.841-84.68 125.635-84.68Z"/>
   <path class="hierarchical-1:primary SFSymbolsPreview212121" d="M144.275-120.402L29.064-120.402C22.652-120.402 17.454-115.204 17.454-108.792L17.454 38.331C17.454 44.743 22.652 49.941 29.064 49.941L144.275 49.941C150.687 49.941 155.885 44.743 155.885 38.331L155.885-108.791C155.885-115.203 150.687-120.402 144.275-120.402ZM29.064 38.331L29.064-63.063L144.275-63.063L144.275 38.331L29.064 38.331ZM86.67-55.017C62.899-55.017 43.56-35.678 43.56-11.907C43.56 11.864 62.9 31.202 86.67 31.202C110.44 31.202 129.78 11.863 129.78-11.907C129.78-35.678 110.44-55.017 86.67-55.017ZM144.275-108.791L144.275-74.673L29.064-74.673L29.064-108.791L144.275-108.791ZM117.577-5.817C111.979-2.58 106.209 0.657 100.488 0.657C94.577 0.657 88.607-2.802 82.834-6.147C77.946-8.979 72.891-11.908 69.058-11.908C65.326-11.908 60.433-9.128 55.665-6.368C55.346-8.168 55.169-10.016 55.169-11.907C55.169-29.304 69.274-43.407 86.67-43.407C104.067-43.407 118.171-29.304 118.171-11.907C118.171-9.823 117.963-7.788 117.577-5.817Z"/>
  </g>
  <g id="Semibold-L" transform="matrix(1 0 0 1 1957.87 1556)">
   <path class="hierarchical-0:secondary SFSymbolsPreview4D4D4D" d="M83.547-86.406L38.33-86.406L38.33-96.726L83.547-96.726L83.547-86.406ZM102.213-85.324C105.653-85.324 108.451-88.123 108.451-91.565C108.451-95.003 105.653-97.803 102.213-97.803C98.772-97.803 95.973-95.003 95.973-91.565C95.973-88.123 98.772-85.324 102.213-85.324ZM124.368-85.324C127.809-85.324 130.609-88.123 130.609-91.565C130.609-95.003 127.809-97.803 124.368-97.803C120.928-97.803 118.129-95.003 118.129-91.565C118.128-88.123 120.927-85.324 124.368-85.324Z"/>
   <path class="hierarchical-1:primary SFSymbolsPreview212121" d="M143.007-119.112L27.796-119.112C22.097-119.112 17.476-114.491 17.476-108.792L17.476 38.331C17.476 44.03 22.097 48.651 27.796 48.651L143.007 48.651C148.706 48.651 153.327 44.03 153.327 38.331L153.327-108.791C153.328-114.49 148.706-119.112 143.007-119.112ZM27.796 38.331L27.796-63.708L143.007-63.708L143.007 38.331L27.796 38.331ZM85.402-53.727C62.342-53.727 43.582-34.966 43.582-11.907C43.582 11.152 62.343 29.912 85.402 29.912C108.461 29.912 127.222 11.151 127.222-11.907C127.222-34.966 108.461-53.727 85.402-53.727ZM143.007-108.791L143.007-74.027L27.796-74.027L27.796-108.791L143.007-108.791ZM116.309-5.817C110.711-2.58 104.941 0.658 99.22 0.658C93.309 0.658 87.339-2.802 81.566-6.147C76.678-8.979 71.623-11.908 67.79-11.908C64.058-11.908 59.165-9.128 54.397-6.368C54.078-8.168 53.901-10.016 53.901-11.907C53.901-29.304 68.005-43.407 85.402-43.407C102.799-43.407 116.903-29.304 116.903-11.907C116.903-9.823 116.695-7.788 116.309-5.817Z"/>
  </g>
  <g id="Medium-L" transform="matrix(1 0 0 1 1662.13 1556)">
   <path class="hierarchical-0:secondary SFSymbolsPreview4D4D4D" d="M82.569-87.05L37.353-87.05L37.353-96.08L82.57-96.08L82.57-87.05ZM101.235-85.969C104.319-85.969 106.829-88.479 106.829-91.566C106.829-94.65 104.319-97.159 101.235-97.159C98.15-97.159 95.639-94.65 95.639-91.566C95.64-88.479 98.151-85.969 101.235-85.969ZM123.39-85.969C126.476-85.969 128.986-88.479 128.986-91.566C128.986-94.65 126.476-97.159 123.39-97.159C120.305-97.159 117.795-94.65 117.795-91.566C117.795-88.479 120.305-85.969 123.39-85.969Z"/>
   <path class="hierarchical-1:primary SFSymbolsPreview212121" d="M142.029-117.822L26.818-117.822C21.831-117.822 17.788-113.778 17.788-108.792L17.788 38.331C17.788 43.318 21.831 47.361 26.818 47.361L142.029 47.361C147.016 47.361 151.059 43.318 151.059 38.331L151.059-108.791C151.06-113.778 147.017-117.822 142.029-117.822ZM26.818 38.331L26.818-64.353L142.029-64.353L142.029 38.331L26.818 38.331ZM84.424-52.437C62.075-52.437 43.894-34.256 43.894-11.907C43.894 10.442 62.076 28.622 84.424 28.622C106.772 28.622 124.954 10.441 124.954-11.907C124.954-34.256 106.773-52.437 84.424-52.437ZM142.029-108.791L142.029-73.383L26.818-73.383L26.818-108.791L142.029-108.791ZM115.331-5.817C109.733-2.579 103.963 0.658 98.242 0.658C92.331 0.658 86.361-2.802 80.588-6.147C75.7-8.979 70.645-11.908 66.812-11.908C63.08-11.908 58.187-9.128 53.419-6.368C53.1-8.168 52.923-10.015 52.923-11.907C52.923-29.304 67.027-43.407 84.424-43.407C101.821-43.407 115.925-29.304 115.925-11.907C115.925-9.823 115.717-7.788 115.331-5.817Z"/>
  </g>
  <g id="Regular-L" transform="matrix(1 0 0 1 1366.67 1556)">
   <path class="hierarchical-0:secondary SFSymbolsPreview4D4D4D" d="M81.322-87.696L36.106-87.696L36.106-95.436L81.322-95.436L81.322-87.696ZM99.988-86.615C102.717-86.615 104.937-88.835 104.937-91.566C104.937-94.295 102.717-96.514 99.988-96.514C97.258-96.514 95.037-94.294 95.037-91.566C95.037-88.834 97.258-86.615 99.988-86.615ZM122.144-86.615C124.873-86.615 127.093-88.835 127.093-91.566C127.093-94.295 124.873-96.514 122.144-96.514C119.415-96.514 117.193-94.294 117.193-91.566C117.193-88.834 119.414-86.615 122.144-86.615Z"/>
   <path class="hierarchical-1:primary SFSymbolsPreview212121" d="M140.783-116.531L25.57-116.531C21.296-116.531 17.83-113.064 17.83-108.791L17.83 38.331C17.83 42.605 21.295 46.071 25.57 46.071L140.783 46.071C145.058 46.071 148.523 42.605 148.523 38.331L148.523-108.791C148.523-113.065 145.058-116.531 140.783-116.531ZM25.57 38.331L25.57-64.998L140.783-64.998L140.783 38.331L25.57 38.331ZM83.177-51.147C61.539-51.147 43.936-33.544 43.936-11.907C43.936 9.73 61.54 27.332 83.177 27.332C104.814 27.332 122.418 9.729 122.418-11.907C122.418-33.544 104.815-51.147 83.177-51.147ZM140.783-108.791L140.783-72.738L25.57-72.738L25.57-108.791L140.783-108.791ZM114.085-5.818C108.489-2.579 102.716 0.658 96.996 0.658C91.084 0.658 85.115-2.802 79.341-6.147C74.452-8.979 69.398-11.908 65.565-11.908C61.834-11.908 56.94-9.129 52.171-6.368C51.851-8.168 51.676-10.015 51.676-11.907C51.676-29.304 65.78-43.407 83.177-43.407C100.574-43.407 114.678-29.304 114.678-11.907C114.678-9.823 114.471-7.788 114.085-5.818Z"/>
  </g>
  <g id="Light-L" transform="matrix(1 0 0 1 1071.49 1556)">
   <path class="hierarchical-0:secondary SFSymbolsPreview4D4D4D" d="M79.786-88.34L34.569-88.34L34.569-94.79L79.785-94.79L79.785-88.34ZM98.451-87.26C100.825-87.26 102.755-89.191 102.755-91.566C102.755-93.939 100.824-95.869 98.451-95.869C96.077-95.869 94.145-93.939 94.145-91.566C94.145-89.191 96.077-87.26 98.451-87.26ZM120.607-87.26C122.98-87.26 124.912-89.191 124.912-91.566C124.912-93.939 122.98-95.869 120.607-95.869C118.233-95.869 116.301-93.939 116.301-91.566C116.301-89.191 118.233-87.26 120.607-87.26Z"/>
   <path class="hierarchical-1:primary SFSymbolsPreview212121" d="M139.247-115.241L24.034-115.241C20.472-115.241 17.584-112.352 17.584-108.791L17.584 38.331C17.584 41.894 20.472 44.781 24.034 44.781L139.247 44.781C142.809 44.781 145.697 41.893 145.697 38.331L145.697-108.791C145.696-112.353 142.808-115.241 139.247-115.241ZM24.034 38.331L24.034-65.643L139.247-65.643L139.247 38.331L24.034 38.331ZM81.64-49.857C60.714-49.857 43.689-32.833 43.689-11.907C43.689 9.018 60.714 26.042 81.64 26.042C102.567 26.042 119.591 9.018 119.591-11.907C119.591-32.832 102.567-49.857 81.64-49.857ZM139.247-108.791L139.247-72.093L24.034-72.093L24.034-108.791L139.247-108.791ZM112.548-5.818C106.952-2.579 101.179 0.658 95.46 0.658C89.548 0.658 83.578-2.802 77.805-6.147C72.916-8.979 67.862-11.908 64.029-11.908C60.298-11.908 55.404-9.129 50.636-6.368C50.316-8.168 50.14-10.015 50.14-11.907C50.14-29.304 64.244-43.407 81.641-43.407C99.038-43.407 113.142-29.304 113.142-11.907C113.141-9.823 112.934-7.788 112.548-5.818Z"/>
  </g>
  <g id="Thin-L" transform="matrix(1 0 0 1 776.809 1556)">
   <path class="hierarchical-0:secondary SFSymbolsPreview4D4D4D" d="M77.735-88.986L32.519-88.986L32.519-94.146L77.735-94.146L77.735-88.986ZM96.401-87.905C98.419-87.905 100.06-89.547 100.06-91.566C100.06-93.584 98.418-95.224 96.401-95.224C94.382-95.224 92.74-93.583 92.74-91.566C92.74-89.546 94.382-87.905 96.401-87.905ZM118.557-87.905C120.575-87.905 122.217-89.547 122.217-91.566C122.217-93.584 120.575-95.224 118.557-95.224C116.538-95.224 114.897-93.583 114.897-91.566C114.896-89.546 116.538-87.905 118.557-87.905Z"/>
   <path class="hierarchical-1:primary SFSymbolsPreview212121" d="M137.196-113.951L21.983-113.951C19.133-113.951 16.823-111.64 16.823-108.791L16.823 38.331C16.823 41.181 19.133 43.491 21.983 43.491L137.196 43.491C140.046 43.491 142.356 41.18 142.356 38.331L142.356-108.791C142.356-111.641 140.046-113.951 137.196-113.951ZM21.983 38.331L21.983-66.288L137.196-66.288L137.196 38.331L21.983 38.331ZM79.59-48.567C59.375-48.567 42.929-32.122 42.929-11.907C42.929 8.308 59.375 24.753 79.59 24.753C99.805 24.753 116.251 8.309 116.251-11.906C116.251-32.121 99.805-48.567 79.59-48.567ZM137.196-108.791L137.196-71.448L21.983-71.448L21.983-108.791L137.196-108.791ZM110.498-5.818C104.901-2.58 99.129 0.658 93.409 0.658C87.497 0.658 81.527-2.802 75.754-6.147C70.865-8.979 65.811-11.908 61.978-11.908C58.247-11.908 53.354-9.129 48.585-6.368C48.265-8.168 48.089-10.016 48.089-11.907C48.089-29.304 62.194-43.407 79.59-43.407C96.987-43.407 111.091-29.304 111.091-11.907C111.091-9.823 110.884-7.788 110.498-5.818Z"/>
  </g>
  <g id="Ultralight-L" transform="matrix(1 0 0 1 481.147 1556)">
   <path class="hierarchical-0:secondary SFSymbolsPreview4D4D4D" d="M76.684-89.63L31.468-89.63L31.468-93.5L76.684-93.5L76.684-89.63ZM95.35-88.549C97.012-88.549 98.364-89.903 98.364-91.566C98.364-93.227 97.011-94.579 95.35-94.579C93.687-94.579 92.334-93.227 92.334-91.566C92.334-89.903 93.687-88.549 95.35-88.549ZM117.506-88.549C119.168-88.549 120.521-89.903 120.521-91.566C120.521-93.227 119.168-94.579 117.506-94.579C115.843-94.579 114.49-93.227 114.49-91.566C114.49-89.903 115.843-88.549 117.506-88.549Z"/>
   <path class="hierarchical-1:primary SFSymbolsPreview212121" d="M136.145-112.661L20.932-112.661C18.795-112.661 17.062-110.928 17.062-108.791L17.062 38.331C17.062 40.469 18.795 42.201 20.932 42.201L136.145 42.201C138.282 42.201 140.015 40.469 140.015 38.331L140.015-108.791C140.015-110.928 138.282-112.661 136.145-112.661ZM20.932 38.331L20.932-66.933L136.145-66.933L136.145 38.331L20.932 38.331ZM78.539-47.277C59.035-47.277 43.168-31.411 43.168-11.907C43.168 7.596 59.035 23.462 78.539 23.462C98.043 23.462 113.91 7.596 113.91-11.906C113.91-31.41 98.043-47.277 78.539-47.277ZM136.145-108.791L136.145-70.803L20.932-70.803L20.932-108.791L136.145-108.791ZM109.447-5.818C103.851-2.579 98.078 0.658 92.359 0.658C86.447 0.658 80.477-2.802 74.704-6.147C69.815-8.979 64.761-11.908 60.928-11.908C57.197-11.908 52.303-9.129 47.535-6.368C47.215-8.168 47.039-10.015 47.039-11.907C47.039-29.304 61.144-43.407 78.54-43.407C95.937-43.407 110.041-29.304 110.041-11.907C110.04-9.823 109.833-7.788 109.447-5.818Z"/>
  </g>
  <g id="Black-M" transform="matrix(1 0 0 1 2862.7 1126)">
   <path class="hierarchical-0:secondary SFSymbolsPreview4D4D4D" d="M69.26-73.702L34.209-73.702L34.209-84.702L69.261-84.702L69.261-73.702ZM83.73-72.864C87.223-72.864 90.066-75.707 90.066-79.202C90.066-82.696 87.223-85.539 83.73-85.539C80.235-85.539 77.392-82.696 77.392-79.202C77.392-75.707 80.235-72.864 83.73-72.864ZM100.904-72.864C104.399-72.864 107.242-75.707 107.242-79.202C107.242-82.696 104.399-85.539 100.904-85.539C97.41-85.539 94.567-82.696 94.567-79.202C94.567-75.707 97.41-72.864 100.904-72.864Z"/>
   <path class="hierarchical-1:primary SFSymbolsPreview212121" d="M115.353-103.555L26.043-103.555C19.968-103.555 15.043-98.63 15.043-92.555L15.043 21.492C15.043 27.567 19.968 32.492 26.043 32.492L115.354 32.492C121.429 32.492 126.354 27.567 126.354 21.492L126.354-92.555C126.353-98.631 121.428-103.555 115.353-103.555ZM26.043 21.492L26.043-56.108L115.354-56.108L115.354 21.492L26.043 21.492ZM70.698-52.871C51.168-52.871 35.279-36.982 35.279-17.452C35.279 2.077 51.168 17.966 70.698 17.966C90.228 17.966 106.117 2.077 106.117-17.452C106.117-36.982 90.228-52.871 70.698-52.871ZM115.353-92.555L115.353-67.107L26.043-67.107L26.043-92.555L115.353-92.555ZM70.698-41.871C84.184-41.871 95.117-30.938 95.117-17.452C95.117-15.837 94.956-14.26 94.657-12.731C90.318-10.221 85.844-7.712 81.41-7.712C76.828-7.712 72.2-10.394 67.724-12.986C63.935-15.181 60.016-17.452 57.044-17.452C54.152-17.452 50.358-15.297 46.662-13.157C46.415-14.553 46.278-15.985 46.278-17.451C46.279-30.938 57.212-41.871 70.698-41.871Z"/>
  </g>
  <g id="Heavy-M" transform="matrix(1 0 0 1 2567.26 1126)">
   <path class="hierarchical-0:secondary SFSymbolsPreview4D4D4D" d="M67.996-74.202L32.944-74.202L32.944-84.202L67.996-84.202L67.996-74.202ZM82.466-73.364C85.684-73.364 88.302-75.983 88.302-79.202C88.302-82.42 85.684-85.039 82.466-85.039C79.247-85.039 76.628-82.42 76.628-79.202C76.628-75.983 79.247-73.364 82.466-73.364ZM99.64-73.364C102.859-73.364 105.478-75.983 105.478-79.202C105.478-82.42 102.859-85.039 99.64-85.039C96.421-85.039 93.803-82.42 93.803-79.202C93.803-75.983 96.421-73.364 99.64-73.364Z"/>
   <path class="hierarchical-1:primary SFSymbolsPreview212121" d="M114.089-102.555L24.778-102.555C19.256-102.555 14.778-98.078 14.778-92.555L14.778 21.492C14.778 27.014 19.256 31.492 24.778 31.492L114.089 31.492C119.611 31.492 124.089 27.014 124.089 21.492L124.089-92.555C124.089-98.078 119.611-102.555 114.089-102.555ZM24.778 21.492L24.778-56.608L114.089-56.608L114.089 21.492L24.778 21.492ZM69.434-51.871C50.455-51.871 35.015-36.431 35.015-17.452C35.015 1.527 50.455 16.966 69.434 16.966C88.413 16.966 103.853 1.527 103.853-17.452C103.853-36.43 88.412-51.871 69.434-51.871ZM114.089-92.555L114.089-66.607L24.778-66.607L24.778-92.555L114.089-92.555ZM93.393-12.731C89.054-10.221 84.58-7.712 80.146-7.712C75.564-7.712 70.936-10.394 66.46-12.986C62.671-15.181 58.752-17.452 55.78-17.452C52.888-17.452 49.094-15.297 45.398-13.157C45.151-14.553 45.014-15.985 45.014-17.451C45.014-30.937 55.948-41.87 69.433-41.87C82.919-41.87 93.852-30.937 93.852-17.451C93.853-15.836 93.691-14.259 93.393-12.731Z"/>
  </g>
  <g id="Bold-M" transform="matrix(1 0 0 1 2271.96 1126)">
   <path class="hierarchical-0:secondary SFSymbolsPreview4D4D4D" d="M66.583-74.702L31.532-74.702L31.532-83.702L66.584-83.702L66.584-74.702ZM81.053-73.864C83.995-73.864 86.389-76.259 86.389-79.202C86.389-82.145 83.995-84.539 81.053-84.539C78.11-84.539 75.715-82.145 75.715-79.202C75.715-76.259 78.11-73.864 81.053-73.864ZM98.227-73.864C101.17-73.864 103.565-76.259 103.565-79.202C103.565-82.145 101.17-84.539 98.227-84.539C95.285-84.539 92.89-82.145 92.89-79.202C92.89-76.259 95.284-73.864 98.227-73.864Z"/>
   <path class="hierarchical-1:primary SFSymbolsPreview212121" d="M112.676-101.555L23.366-101.555C18.395-101.555 14.366-97.526 14.366-92.555L14.366 21.492C14.366 26.463 18.395 30.492 23.366 30.492L112.677 30.492C117.648 30.492 121.677 26.463 121.677 21.492L121.677-92.555C121.676-97.526 117.647-101.555 112.676-101.555ZM23.366 21.492L23.366-57.108L112.677-57.108L112.677 21.492L23.366 21.492ZM68.021-50.871C49.594-50.871 34.602-35.879 34.602-17.452C34.602 0.975 49.594 15.966 68.021 15.966C86.448 15.966 101.44 0.975 101.44-17.452C101.44-35.879 86.448-50.871 68.021-50.871ZM112.676-92.555L112.676-66.107L23.366-66.107L23.366-92.555L112.676-92.555ZM91.98-12.731C87.641-10.221 83.167-7.712 78.733-7.712C74.151-7.712 69.523-10.394 65.047-12.986C61.258-15.181 57.339-17.452 54.367-17.452C51.474-17.452 47.681-15.297 43.985-13.157C43.738-14.553 43.601-15.985 43.601-17.451C43.601-30.937 54.535-41.87 68.02-41.87C81.506-41.87 92.439-30.937 92.439-17.451C92.44-15.836 92.279-14.259 91.98-12.731Z"/>
  </g>
  <g id="Semibold-M" transform="matrix(1 0 0 1 1976.25 1126)">
   <path class="hierarchical-0:secondary SFSymbolsPreview4D4D4D" d="M65.583-75.202L30.531-75.202L30.531-83.202L65.583-83.202L65.583-75.202ZM80.053-74.364C82.72-74.364 84.889-76.534 84.889-79.202C84.889-81.869 82.72-84.039 80.053-84.039C77.385-84.039 75.215-81.869 75.215-79.202C75.215-76.534 77.385-74.364 80.053-74.364ZM97.227-74.364C99.895-74.364 102.065-76.534 102.065-79.202C102.065-81.869 99.895-84.039 97.227-84.039C94.56-84.039 92.39-81.869 92.39-79.202C92.39-76.534 94.56-74.364 97.227-74.364Z"/>
   <path class="hierarchical-1:primary SFSymbolsPreview212121" d="M111.676-100.555L22.365-100.555C17.947-100.555 14.365-96.973 14.365-92.555L14.365 21.492C14.365 25.91 17.947 29.492 22.365 29.492L111.676 29.492C116.094 29.492 119.676 25.91 119.676 21.492L119.676-92.555C119.676-96.974 116.094-100.555 111.676-100.555ZM22.365 21.492L22.365-57.608L111.676-57.608L111.676 21.492L22.365 21.492ZM67.021-49.871C49.145-49.871 34.602-35.328 34.602-17.452C34.602 0.423 49.145 14.966 67.021 14.966C84.897 14.966 99.44 0.424 99.44-17.451C99.44-35.327 84.897-49.871 67.021-49.871ZM111.676-92.555L111.676-65.607L22.365-65.607L22.365-92.555L111.676-92.555ZM90.98-12.731C86.641-10.221 82.167-7.712 77.733-7.712C73.151-7.712 68.523-10.394 64.047-12.986C60.258-15.181 56.339-17.452 53.367-17.452C50.474-17.452 46.681-15.297 42.985-13.157C42.738-14.553 42.601-15.985 42.601-17.451C42.601-30.937 53.535-41.87 67.02-41.87C80.506-41.87 91.439-30.937 91.439-17.451C91.44-15.836 91.279-14.259 90.98-12.731Z"/>
  </g>
  <g id="Medium-M" transform="matrix(1 0 0 1 1680.27 1126)">
   <path class="hierarchical-0:secondary SFSymbolsPreview4D4D4D" d="M64.846-75.702L29.795-75.702L29.795-82.702L64.847-82.702L64.847-75.702ZM79.316-74.864C81.707-74.864 83.652-76.81 83.652-79.202C83.652-81.594 81.707-83.539 79.316-83.539C76.924-83.539 74.978-81.594 74.978-79.202C74.978-76.81 76.925-74.864 79.316-74.864ZM96.49-74.864C98.882-74.864 100.828-76.81 100.828-79.202C100.828-81.594 98.882-83.539 96.49-83.539C94.098-83.539 92.153-81.594 92.153-79.202C92.153-76.81 94.098-74.864 96.49-74.864Z"/>
   <path class="hierarchical-1:primary SFSymbolsPreview212121" d="M110.939-99.555L21.629-99.555C17.763-99.555 14.629-96.421 14.629-92.555L14.629 21.492C14.629 25.358 17.763 28.492 21.629 28.492L110.94 28.492C114.806 28.492 117.94 25.358 117.94 21.492L117.94-92.555C117.939-96.422 114.805-99.555 110.939-99.555ZM21.629 21.492L21.629-58.108L110.94-58.108L110.94 21.492L21.629 21.492ZM66.284-48.871C48.96-48.871 34.865-34.776 34.865-17.452C34.865-0.128 48.96 13.966 66.284 13.966C83.608 13.966 97.703-0.127 97.703-17.451C97.703-34.776 83.608-48.871 66.284-48.871ZM110.939-92.555L110.939-65.107L21.629-65.107L21.629-92.555L110.939-92.555ZM90.243-12.731C85.904-10.221 81.43-7.712 76.996-7.712C72.414-7.712 67.786-10.394 63.31-12.986C59.521-15.181 55.602-17.452 52.63-17.452C49.737-17.452 45.944-15.297 42.248-13.157C42.001-14.553 41.864-15.985 41.864-17.451C41.864-30.937 52.798-41.87 66.283-41.87C79.769-41.87 90.702-30.937 90.702-17.451C90.703-15.836 90.542-14.259 90.243-12.731Z"/>
  </g>
  <g id="Regular-M" transform="matrix(1 0 0 1 1384.54 1126)">
   <path class="hierarchical-0:secondary SFSymbolsPreview4D4D4D" d="M63.87-76.202L28.819-76.202L28.819-82.202L63.87-82.202L63.87-76.202ZM78.34-75.364C80.455-75.364 82.176-77.086 82.176-79.202C82.176-81.318 80.455-83.039 78.34-83.039C76.224-83.039 74.502-81.318 74.502-79.202C74.502-77.086 76.223-75.364 78.34-75.364ZM95.514-75.364C97.63-75.364 99.351-77.086 99.351-79.202C99.351-81.318 97.63-83.039 95.514-83.039C93.398-83.039 91.677-81.318 91.677-79.202C91.677-77.086 93.399-75.364 95.514-75.364Z"/>
   <path class="hierarchical-1:primary SFSymbolsPreview212121" d="M109.964-98.555L20.652-98.555C17.339-98.555 14.652-95.868 14.652-92.555L14.652 21.492C14.652 24.805 17.339 27.492 20.652 27.492L109.964 27.492C113.278 27.492 115.964 24.805 115.964 21.492L115.964-92.555C115.964-95.869 113.278-98.555 109.964-98.555ZM20.652 21.492L20.652-58.608L109.964-58.608L109.964 21.492L20.652 21.492ZM65.308-47.871C48.535-47.871 34.889-34.225 34.889-17.452C34.889-0.68 48.535 12.966 65.308 12.966C82.081 12.966 95.727-0.679 95.727-17.451C95.727-34.225 82.081-47.871 65.308-47.871ZM109.964-92.555L109.964-64.607L20.652-64.607L20.652-92.555L109.964-92.555ZM89.267-12.732C84.929-10.221 80.454-7.712 76.02-7.712C71.437-7.712 66.81-10.394 62.334-12.986C58.544-15.181 54.626-17.452 51.655-17.452C48.762-17.452 44.969-15.298 41.273-13.157C41.025-14.553 40.889-15.985 40.889-17.451C40.889-30.937 51.823-41.87 65.308-41.87C78.794-41.87 89.727-30.937 89.727-17.451C89.727-15.836 89.567-14.259 89.267-12.732Z"/>
  </g>
  <g id="Light-M" transform="matrix(1 0 0 1 1089.19 1126)">
   <path class="hierarchical-0:secondary SFSymbolsPreview4D4D4D" d="M62.503-76.702L27.451-76.702L27.451-81.702L62.502-81.702L62.502-76.702ZM76.972-75.864C78.812-75.864 80.308-77.362 80.308-79.202C80.308-81.042 78.811-82.539 76.972-82.539C75.132-82.539 73.634-81.042 73.634-79.202C73.634-77.362 75.132-75.864 76.972-75.864ZM94.147-75.864C95.987-75.864 97.484-77.362 97.484-79.202C97.484-81.042 95.987-82.539 94.147-82.539C92.307-82.539 90.81-81.042 90.81-79.202C90.809-77.362 92.306-75.864 94.147-75.864Z"/>
   <path class="hierarchical-1:primary SFSymbolsPreview212121" d="M108.596-97.555L19.284-97.555C16.523-97.555 14.284-95.316 14.284-92.555L14.284 21.492C14.284 24.254 16.523 26.492 19.284 26.492L108.596 26.492C111.357 26.492 113.596 24.254 113.596 21.492L113.596-92.555C113.596-95.317 111.357-97.555 108.596-97.555ZM19.284 21.492L19.284-59.108L108.596-59.108L108.596 21.492L19.284 21.492ZM63.94-46.871C47.718-46.871 34.521-33.673 34.521-17.452C34.521-1.231 47.719 11.966 63.94 11.966C80.162 11.966 93.359-1.231 93.359-17.452C93.36-33.673 80.162-46.871 63.94-46.871ZM108.596-92.555L108.596-64.107L19.284-64.107L19.284-92.555L108.596-92.555ZM87.9-12.732C83.562-10.221 79.087-7.712 74.653-7.712C70.07-7.712 65.443-10.394 60.967-12.986C57.177-15.181 53.259-17.452 50.288-17.452C47.395-17.452 43.602-15.298 39.906-13.157C39.658-14.553 39.522-15.985 39.522-17.451C39.522-30.937 50.456-41.87 63.941-41.87C77.427-41.87 88.36-30.937 88.36-17.451C88.36-15.836 88.199-14.259 87.9-12.732Z"/>
  </g>
  <g id="Thin-M" transform="matrix(1 0 0 1 794.313 1126)">
   <path class="hierarchical-0:secondary SFSymbolsPreview4D4D4D" d="M60.647-77.202L25.596-77.202L25.596-81.202L60.647-81.202L60.647-77.202ZM75.116-76.364C76.68-76.364 77.952-77.637 77.952-79.202C77.952-80.766 76.68-82.039 75.116-82.039C73.551-82.039 72.278-80.767 72.278-79.202C72.279-77.637 73.552-76.364 75.116-76.364ZM92.291-76.364C93.855-76.364 95.128-77.637 95.128-79.202C95.128-80.766 93.856-82.039 92.291-82.039C90.726-82.039 89.454-80.767 89.454-79.202C89.454-77.637 90.727-76.364 92.291-76.364Z"/>
   <path class="hierarchical-1:primary SFSymbolsPreview212121" d="M106.74-96.555L17.429-96.555C15.22-96.555 13.429-94.764 13.429-92.555L13.429 21.492C13.429 23.701 15.22 25.492 17.429 25.492L106.741 25.492C108.95 25.492 110.741 23.701 110.741 21.492L110.741-92.555C110.74-94.764 108.949-96.555 106.74-96.555ZM17.429 21.492L17.429-59.608L106.741-59.608L106.741 21.492L17.429 21.492ZM62.085-45.871C46.415-45.871 33.666-33.122 33.666-17.452C33.666-1.782 46.415 10.966 62.085 10.966C77.755 10.966 90.504-1.781 90.504-17.451C90.504-33.122 77.755-45.871 62.085-45.871ZM106.74-92.555L106.74-63.607L17.429-63.607L17.429-92.555L106.74-92.555ZM86.044-12.732C81.706-10.221 77.231-7.712 72.797-7.712C68.214-7.712 63.587-10.394 59.111-12.986C55.321-15.181 51.403-17.452 48.432-17.452C45.539-17.452 41.746-15.298 38.05-13.157C37.802-14.553 37.666-15.985 37.666-17.451C37.666-30.937 48.6-41.87 62.085-41.87C75.571-41.87 86.504-30.937 86.504-17.451C86.504-15.836 86.344-14.259 86.044-12.732Z"/>
  </g>
  <g id="Ultralight-M" transform="matrix(1 0 0 1 498.529 1126)">
   <path class="hierarchical-0:secondary SFSymbolsPreview4D4D4D" d="M59.719-77.702L24.668-77.702L24.668-80.702L59.719-80.702L59.719-77.702ZM74.189-76.864C75.477-76.864 76.525-77.913 76.525-79.202C76.525-80.491 75.477-81.539 74.189-81.539C72.9-81.539 71.851-80.491 71.851-79.202C71.851-77.913 72.899-76.864 74.189-76.864ZM91.363-76.864C92.652-76.864 93.7-77.913 93.7-79.202C93.7-80.491 92.652-81.539 91.363-81.539C90.074-81.539 89.026-80.491 89.026-79.202C89.026-77.913 90.074-76.864 91.363-76.864Z"/>
   <path class="hierarchical-1:primary SFSymbolsPreview212121" d="M105.813-95.555L16.501-95.555C14.844-95.555 13.501-94.212 13.501-92.555L13.501 21.492C13.501 23.149 14.844 24.492 16.501 24.492L105.813 24.492C107.47 24.492 108.813 23.149 108.813 21.492L108.813-92.555C108.813-94.212 107.469-95.555 105.813-95.555ZM16.501 21.492L16.501-60.108L105.813-60.108L105.813 21.492L16.501 21.492ZM61.157-44.871C46.038-44.871 33.738-32.571 33.738-17.452C33.738-2.334 46.038 9.966 61.157 9.966C76.276 9.966 88.576-2.334 88.576-17.452C88.576-32.571 76.276-44.871 61.157-44.871ZM105.813-92.555L105.813-63.107L16.501-63.107L16.501-92.555L105.813-92.555ZM85.116-12.732C80.778-10.221 76.303-7.712 71.869-7.712C67.286-7.712 62.659-10.394 58.183-12.986C54.393-15.181 50.475-17.452 47.504-17.452C44.611-17.452 40.818-15.298 37.122-13.157C36.874-14.553 36.738-15.985 36.738-17.451C36.738-30.937 47.672-41.87 61.157-41.87C74.643-41.87 85.576-30.937 85.576-17.451C85.576-15.836 85.416-14.259 85.116-12.732Z"/>
  </g>
  <g id="Black-S" transform="matrix(1 0 0 1 2877.69 696)">
   <path class="hierarchical-0:secondary SFSymbolsPreview4D4D4D" d="M54.582-65.117L27.135-65.117L27.135-73.73L54.581-73.73L54.581-65.117ZM65.911-64.461C68.646-64.461 70.872-66.688 70.872-69.424C70.872-72.16 68.646-74.385 65.911-74.385C63.175-74.385 60.949-72.159 60.949-69.424C60.949-66.688 63.175-64.461 65.911-64.461ZM79.358-64.461C82.095-64.461 84.321-66.688 84.321-69.424C84.321-72.16 82.095-74.385 79.358-74.385C76.623-74.385 74.396-72.159 74.396-69.424C74.396-66.688 76.623-64.461 79.358-64.461Z"/>
   <path class="hierarchical-1:primary SFSymbolsPreview212121" d="M90.672-88.493L20.742-88.493C15.984-88.493 12.129-84.637 12.129-79.88L12.129 9.42C12.129 14.177 15.984 18.033 20.742 18.033L90.672 18.033C95.43 18.033 99.285 14.177 99.285 9.42L99.285-79.88C99.285-84.636 95.429-88.493 90.672-88.493ZM20.742 9.42L20.742-51.341L90.672-51.341L90.672 9.42L20.742 9.42ZM55.707-48.806C40.415-48.806 27.974-36.365 27.974-21.073C27.974-5.781 40.415 6.659 55.707 6.659C70.999 6.659 83.44-5.781 83.44-21.073C83.44-36.365 70.999-48.806 55.707-48.806ZM90.672-79.88L90.672-59.954L20.742-59.954L20.742-79.88L90.672-79.88ZM55.707-40.194C66.267-40.194 74.827-31.633 74.827-21.073C74.827-19.808 74.701-18.573 74.467-17.377C71.07-15.412 67.567-13.447 64.095-13.447C60.507-13.447 56.883-15.547 53.379-17.577C50.412-19.296 47.344-21.074 45.017-21.074C42.752-21.074 39.782-19.386 36.888-17.711C36.695-18.804 36.587-19.925 36.587-21.073C36.587-31.633 45.148-40.194 55.707-40.194Z"/>
  </g>
  <g id="Heavy-S" transform="matrix(1 0 0 1 2581.9 696)">
   <path class="hierarchical-0:secondary SFSymbolsPreview4D4D4D" d="M53.669-65.509L26.222-65.509L26.222-73.339L53.668-73.339L53.668-65.509ZM64.998-64.853C67.518-64.853 69.567-66.903 69.567-69.424C69.567-71.944 67.517-73.994 64.998-73.994C62.477-73.994 60.427-71.943 60.427-69.424C60.427-66.903 62.477-64.853 64.998-64.853ZM78.445-64.853C80.966-64.853 83.016-66.903 83.016-69.424C83.016-71.944 80.965-73.994 78.445-73.994C75.925-73.994 73.875-71.943 73.875-69.424C73.875-66.903 75.925-64.853 78.445-64.853Z"/>
   <path class="hierarchical-1:primary SFSymbolsPreview212121" d="M89.759-87.71L19.829-87.71C15.505-87.71 11.999-84.205 11.999-79.88L11.999 9.42C11.999 13.744 15.505 17.25 19.829 17.25L89.759 17.25C94.083 17.25 97.589 13.744 97.589 9.42L97.589-79.88C97.589-84.204 94.083-87.71 89.759-87.71ZM19.829 9.42L19.829-51.732L89.759-51.732L89.759 9.42L19.829 9.42ZM54.794-48.024C39.934-48.024 27.844-35.934 27.844-21.073C27.844-6.213 39.934 5.876 54.794 5.876C69.654 5.876 81.744-6.213 81.744-21.073C81.744-35.934 69.654-48.024 54.794-48.024ZM89.759-79.88L89.759-59.563L19.829-59.563L19.829-79.88L89.759-79.88ZM73.553-17.377C70.156-15.412 66.653-13.447 63.181-13.447C59.593-13.447 55.969-15.547 52.465-17.577C49.498-19.296 46.43-21.074 44.103-21.074C41.838-21.074 38.868-19.386 35.974-17.711C35.78-18.804 35.673-19.925 35.673-21.073C35.673-31.633 44.235-40.194 54.793-40.194C65.353-40.194 73.913-31.633 73.913-21.073C73.914-19.808 73.788-18.573 73.553-17.377Z"/>
  </g>
  <g id="Bold-S" transform="matrix(1 0 0 1 2286.19 696)">
   <path class="hierarchical-0:secondary SFSymbolsPreview4D4D4D" d="M52.664-65.901L25.219-65.901L25.219-72.948L52.664-72.948L52.664-65.901ZM63.994-65.244C66.298-65.244 68.172-67.119 68.172-69.424C68.172-71.728 66.298-73.603 63.994-73.603C61.689-73.603 59.814-71.728 59.814-69.424C59.814-67.119 61.689-65.244 63.994-65.244ZM77.441-65.244C79.746-65.244 81.621-67.119 81.621-69.424C81.621-71.728 79.746-73.603 77.441-73.603C75.137-73.603 73.262-71.728 73.262-69.424C73.262-67.119 75.137-65.244 77.441-65.244Z"/>
   <path class="hierarchical-1:primary SFSymbolsPreview212121" d="M88.756-86.927L18.824-86.927C14.932-86.927 11.777-83.772 11.777-79.88L11.777 9.42C11.777 13.312 14.932 16.467 18.824 16.467L88.756 16.467C92.648 16.467 95.803 13.312 95.803 9.42L95.803-79.88C95.802-83.772 92.647-86.927 88.756-86.927ZM18.824 9.42L18.824-52.124L88.756-52.124L88.756 9.42L18.824 9.42ZM53.79-47.24C39.361-47.24 27.623-35.502 27.623-21.073C27.623-6.645 39.361 5.094 53.79 5.094C68.219 5.094 79.957-6.645 79.957-21.073C79.957-35.502 68.219-47.24 53.79-47.24ZM88.756-79.88L88.756-59.172L18.824-59.172L18.824-79.88L88.756-79.88ZM72.55-17.377C69.153-15.412 65.651-13.447 62.178-13.447C58.59-13.447 54.966-15.547 51.462-17.577C48.494-19.296 45.426-21.074 43.1-21.074C40.834-21.074 37.866-19.386 34.971-17.711C34.778-18.804 34.67-19.925 34.67-21.073C34.67-31.633 43.231-40.194 53.79-40.194C64.349-40.194 72.91-31.633 72.91-21.073C72.91-19.808 72.784-18.573 72.55-17.377Z"/>
  </g>
  <g id="Semibold-S" transform="matrix(1 0 0 1 1990.19 696)">
   <path class="hierarchical-0:secondary SFSymbolsPreview4D4D4D" d="M51.955-66.292L24.51-66.292L24.51-72.556L51.955-72.556L51.955-66.292ZM63.285-65.636C65.373-65.636 67.072-67.335 67.072-69.424C67.072-71.512 65.373-73.211 63.285-73.211C61.196-73.211 59.497-71.512 59.497-69.424C59.497-67.335 61.196-65.636 63.285-65.636ZM76.732-65.636C78.821-65.636 80.52-67.335 80.52-69.424C80.52-71.512 78.821-73.211 76.732-73.211C74.644-73.211 72.945-71.512 72.945-69.424C72.945-67.335 74.644-65.636 76.732-65.636Z"/>
   <path class="hierarchical-1:primary SFSymbolsPreview212121" d="M88.047-86.144L18.116-86.144C14.656-86.144 11.851-83.339 11.851-79.88L11.851 9.42C11.851 12.879 14.656 15.684 18.116 15.684L88.047 15.684C91.506 15.684 94.311 12.879 94.311 9.42L94.311-79.88C94.31-83.339 91.506-86.144 88.047-86.144ZM18.116 9.42L18.116-52.515L88.047-52.515L88.047 9.42L18.116 9.42ZM53.081-46.457C39.084-46.457 27.697-35.07 27.697-21.073C27.697-7.077 39.084 4.31 53.081 4.31C67.078 4.31 78.465-7.077 78.465-21.073C78.465-35.07 67.078-46.457 53.081-46.457ZM88.047-79.88L88.047-58.78L18.116-58.78L18.116-79.88L88.047-79.88ZM71.841-17.377C68.444-15.412 64.942-13.447 61.469-13.447C57.881-13.447 54.257-15.547 50.753-17.577C47.786-19.296 44.717-21.074 42.391-21.074C40.126-21.074 37.156-19.386 34.262-17.711C34.069-18.804 33.961-19.925 33.961-21.073C33.961-31.633 42.522-40.194 53.081-40.194C63.64-40.194 72.201-31.633 72.201-21.073C72.201-19.808 72.075-18.573 71.841-17.377Z"/>
  </g>
  <g id="Medium-S" transform="matrix(1 0 0 1 1694.02 696)">
   <path class="hierarchical-0:secondary SFSymbolsPreview4D4D4D" d="M51.408-66.683L23.963-66.683L23.963-72.164L51.408-72.164L51.408-66.683ZM62.738-66.028C64.61-66.028 66.134-67.551 66.134-69.424C66.134-71.297 64.611-72.82 62.738-72.82C60.865-72.82 59.342-71.297 59.342-69.424C59.342-67.551 60.866-66.028 62.738-66.028ZM76.185-66.028C78.058-66.028 79.581-67.551 79.581-69.424C79.581-71.297 78.058-72.82 76.185-72.82C74.312-72.82 72.789-71.297 72.789-69.424C72.79-67.551 74.312-66.028 76.185-66.028Z"/>
   <path class="hierarchical-1:primary SFSymbolsPreview212121" d="M87.499-85.361L17.569-85.361C14.542-85.361 12.088-82.907 12.088-79.88L12.088 9.42C12.088 12.447 14.542 14.901 17.569 14.901L87.499 14.901C90.526 14.901 92.98 12.447 92.98 9.42L92.98-79.88C92.98-82.907 90.526-85.361 87.499-85.361ZM17.569 9.42L17.569-52.907L87.499-52.907L87.499 9.42L17.569 9.42ZM52.534-45.675C38.969-45.675 27.932-34.639 27.932-21.073C27.932-7.508 38.968 3.527 52.534 3.527C66.1 3.527 77.135-7.508 77.135-21.073C77.135-34.638 66.099-45.675 52.534-45.675ZM87.499-79.88L87.499-58.388L17.569-58.388L17.569-79.88L87.499-79.88ZM71.294-17.377C67.897-15.412 64.394-13.447 60.922-13.447C57.334-13.447 53.71-15.547 50.206-17.577C47.239-19.296 44.17-21.074 41.844-21.074C39.578-21.074 36.609-19.386 33.715-17.711C33.522-18.804 33.414-19.925 33.414-21.073C33.414-31.633 41.975-40.194 52.534-40.194C63.093-40.194 71.654-31.633 71.654-21.073C71.654-19.808 71.528-18.573 71.294-17.377Z"/>
  </g>
  <g id="Regular-S" transform="matrix(1 0 0 1 1398.01 696)">
   <path class="hierarchical-0:secondary SFSymbolsPreview4D4D4D" d="M50.711-67.075L23.266-67.075L23.266-71.773L50.711-71.773L50.711-67.075ZM62.041-66.419C63.697-66.419 65.045-67.767 65.045-69.424C65.045-71.08 63.697-72.428 62.041-72.428C60.384-72.428 59.036-71.08 59.036-69.424C59.036-67.767 60.384-66.419 62.041-66.419ZM75.489-66.419C77.146-66.419 78.493-67.767 78.493-69.424C78.493-71.08 77.145-72.428 75.489-72.428C73.833-72.428 72.484-71.08 72.484-69.424C72.484-67.767 73.832-66.419 75.489-66.419Z"/>
   <path class="hierarchical-1:primary SFSymbolsPreview212121" d="M86.803-84.578L16.871-84.578C14.277-84.578 12.173-82.474 12.173-79.88L12.173 9.42C12.173 12.015 14.277 14.118 16.871 14.118L86.803 14.118C89.398 14.118 91.501 12.014 91.501 9.42L91.501-79.88C91.5-82.474 89.397-84.578 86.803-84.578ZM16.871 9.42L16.871-53.298L86.803-53.298L86.803 9.42L16.871 9.42ZM51.837-44.891C38.703-44.891 28.019-34.206 28.019-21.073C28.019-7.94 38.704 2.744 51.837 2.744C64.97 2.744 75.655-7.94 75.655-21.073C75.655-34.207 64.971-44.891 51.837-44.891ZM86.803-79.88L86.803-57.997L16.871-57.997L16.871-79.88L86.803-79.88ZM70.597-17.377C67.2-15.411 63.697-13.447 60.224-13.447C56.636-13.447 53.012-15.547 49.508-17.577C46.54-19.296 43.472-21.074 41.146-21.074C38.881-21.074 35.912-19.387 33.017-17.711C32.823-18.804 32.716-19.925 32.716-21.073C32.716-31.633 41.278-40.194 51.837-40.194C62.397-40.194 70.958-31.633 70.958-21.073C70.958-19.808 70.832-18.573 70.597-17.377Z"/>
  </g>
  <g id="Light-S" transform="matrix(1 0 0 1 1102.52 696)">
   <path class="hierarchical-0:secondary SFSymbolsPreview4D4D4D" d="M49.485-67.467L22.039-67.467L22.039-71.382L49.484-71.382L49.484-67.467ZM60.814-66.81C62.254-66.81 63.426-67.982 63.426-69.424C63.426-70.864 62.254-72.037 60.814-72.037C59.373-72.037 58.2-70.865 58.2-69.424C58.2-67.983 59.373-66.81 60.814-66.81ZM74.262-66.81C75.703-66.81 76.875-67.982 76.875-69.424C76.875-70.864 75.703-72.037 74.262-72.037C72.821-72.037 71.649-70.865 71.649-69.424C71.649-67.983 72.821-66.81 74.262-66.81Z"/>
   <path class="hierarchical-1:primary SFSymbolsPreview212121" d="M85.576-83.795L15.644-83.795C13.482-83.795 11.729-82.042 11.729-79.88L11.729 9.42C11.729 11.583 13.482 13.335 15.644 13.335L85.576 13.335C87.738 13.335 89.491 11.583 89.491 9.42L89.491-79.88C89.491-82.042 87.738-83.795 85.576-83.795ZM15.644 9.42L15.644-53.69L85.576-53.69L85.576 9.42L15.644 9.42ZM50.61-44.109C37.908-44.109 27.574-33.775 27.574-21.073C27.574-8.372 37.908 1.961 50.61 1.961C63.312 1.961 73.646-8.372 73.646-21.073C73.646-33.775 63.312-44.109 50.61-44.109ZM85.576-79.88L85.576-57.606L15.644-57.606L15.644-79.88L85.576-79.88ZM69.37-17.377C65.973-15.411 62.47-13.447 58.997-13.447C55.409-13.447 51.785-15.547 48.281-17.577C45.313-19.296 42.245-21.074 39.919-21.074C37.654-21.074 34.685-19.387 31.79-17.711C31.596-18.804 31.489-19.925 31.489-21.073C31.489-31.633 40.051-40.194 50.61-40.194C61.17-40.194 69.731-31.633 69.731-21.073C69.731-19.808 69.605-18.573 69.37-17.377Z"/>
  </g>
  <g id="Thin-S" transform="matrix(1 0 0 1 807.399 696)">
   <path class="hierarchical-0:secondary SFSymbolsPreview4D4D4D" d="M47.873-67.858L20.428-67.858L20.428-70.99L47.873-70.99L47.873-67.858ZM59.203-67.202C60.428-67.202 61.424-68.199 61.424-69.424C61.424-70.649 60.428-71.645 59.203-71.645C57.977-71.645 56.981-70.648 56.981-69.424C56.981-68.198 57.977-67.202 59.203-67.202ZM72.651-67.202C73.876-67.202 74.872-68.199 74.872-69.424C74.872-70.649 73.876-71.645 72.651-71.645C71.426-71.645 70.429-70.648 70.429-69.424C70.429-68.198 71.425-67.202 72.651-67.202Z"/>
   <path class="hierarchical-1:primary SFSymbolsPreview212121" d="M83.965-83.012L14.033-83.012C12.304-83.012 10.901-81.61 10.901-79.88L10.901 9.42C10.901 11.149 12.303 12.552 14.033 12.552L83.965 12.552C85.694 12.552 87.097 11.149 87.097 9.42L87.097-79.88C87.096-81.61 85.694-83.012 83.965-83.012ZM14.033 9.42L14.033-54.081L83.965-54.081L83.965 9.42L14.033 9.42ZM48.999-43.325C36.729-43.325 26.747-33.343 26.747-21.073C26.747-8.803 36.729 1.178 48.999 1.178C61.269 1.178 71.251-8.804 71.251-21.073C71.251-33.343 61.269-43.325 48.999-43.325ZM83.965-79.88L83.965-57.214L14.033-57.214L14.033-79.88L83.965-79.88ZM67.759-17.377C64.362-15.411 60.859-13.447 57.386-13.447C53.798-13.447 50.175-15.547 46.67-17.577C43.703-19.296 40.634-21.074 38.308-21.074C36.043-21.074 33.074-19.387 30.179-17.711C29.985-18.804 29.878-19.925 29.878-21.073C29.878-31.633 38.44-40.194 48.999-40.194C59.559-40.194 68.12-31.633 68.12-21.073C68.119-19.808 67.993-18.573 67.759-17.377Z"/>
  </g>
  <g id="Ultralight-S" transform="matrix(1 0 0 1 511.518 696)">
   <path class="hierarchical-0:secondary SFSymbolsPreview4D4D4D" d="M47.042-68.249L19.597-68.249L19.597-70.598L47.042-70.598L47.042-68.249ZM58.372-67.593C59.38-67.593 60.201-68.414 60.201-69.424C60.201-70.433 59.38-71.254 58.372-71.254C57.362-71.254 56.541-70.433 56.541-69.424C56.541-68.414 57.362-67.593 58.372-67.593ZM71.82-67.593C72.829-67.593 73.65-68.414 73.65-69.424C73.65-70.433 72.829-71.254 71.82-71.254C70.811-71.254 69.99-70.433 69.99-69.424C69.99-68.414 70.81-67.593 71.82-67.593Z"/>
   <path class="hierarchical-1:primary SFSymbolsPreview212121" d="M83.134-82.229L13.202-82.229C11.905-82.229 10.853-81.177 10.853-79.88L10.853 9.42C10.853 10.718 11.905 11.769 13.202 11.769L83.134 11.769C84.431 11.769 85.483 10.718 85.483 9.42L85.483-79.88C85.482-81.177 84.43-82.229 83.134-82.229ZM13.202 9.42L13.202-54.473L83.134-54.473L83.134 9.42L13.202 9.42ZM48.168-42.542C36.33-42.542 26.698-32.911 26.698-21.073C26.698-9.236 36.329 0.395 48.168 0.395C60.007 0.395 69.638-9.236 69.638-21.073C69.638-32.911 60.006-42.542 48.168-42.542ZM83.134-79.88L83.134-56.822L13.202-56.822L13.202-79.88L83.134-79.88ZM66.928-17.377C63.531-15.411 60.028-13.447 56.555-13.447C52.967-13.447 49.343-15.547 45.839-17.577C42.871-19.296 39.803-21.074 37.477-21.074C35.212-21.074 32.243-19.387 29.348-17.711C29.154-18.804 29.047-19.925 29.047-21.073C29.047-31.633 37.609-40.194 48.168-40.194C58.728-40.194 67.289-31.633 67.289-21.073C67.288-19.808 67.162-18.573 66.928-17.377Z"/>
  </g>
 </g>
</svg>
