<?xml version="1.0" encoding="UTF-8"?>
<!--Generator: Apple Native CoreSVG 175.5-->
<!DOCTYPE svg
PUBLIC "-//W3C//DTD SVG 1.1//EN"
       "http://www.w3.org/Graphics/SVG/1.1/DTD/svg11.dtd">
<svg version="1.1" xmlns="http://www.w3.org/2000/svg" xmlns:xlink="http://www.w3.org/1999/xlink" width="3300" height="2200">
 <!--glyph: "uni10152D.medium", point size: 100.0, font version: "18.0d9e1", template writer version: "84"-->
 <g id="Notes">
  <rect height="2200" id="artboard" style="fill:white;opacity:1" width="3300" x="0" y="0"/>
  <line style="fill:none;stroke:black;opacity:1;stroke-width:0.5;" x1="263" x2="3036" y1="292" y2="292"/>
  <text style="stroke:none;fill:black;font-family:sans-serif;font-size:13;font-weight:bold;" transform="matrix(1 0 0 1 263 322)">Weight/Scale Variations</text>
  <text style="stroke:none;fill:black;font-family:sans-serif;font-size:13;text-anchor:middle;" transform="matrix(1 0 0 1 559.711 322)">Ultralight</text>
  <text style="stroke:none;fill:black;font-family:sans-serif;font-size:13;text-anchor:middle;" transform="matrix(1 0 0 1 856.422 322)">Thin</text>
  <text style="stroke:none;fill:black;font-family:sans-serif;font-size:13;text-anchor:middle;" transform="matrix(1 0 0 1 1153.13 322)">Light</text>
  <text style="stroke:none;fill:black;font-family:sans-serif;font-size:13;text-anchor:middle;" transform="matrix(1 0 0 1 1449.84 322)">Regular</text>
  <text style="stroke:none;fill:black;font-family:sans-serif;font-size:13;text-anchor:middle;" transform="matrix(1 0 0 1 1746.56 322)">Medium</text>
  <text style="stroke:none;fill:black;font-family:sans-serif;font-size:13;text-anchor:middle;" transform="matrix(1 0 0 1 2043.27 322)">Semibold</text>
  <text style="stroke:none;fill:black;font-family:sans-serif;font-size:13;text-anchor:middle;" transform="matrix(1 0 0 1 2339.98 322)">Bold</text>
  <text style="stroke:none;fill:black;font-family:sans-serif;font-size:13;text-anchor:middle;" transform="matrix(1 0 0 1 2636.69 322)">Heavy</text>
  <text style="stroke:none;fill:black;font-family:sans-serif;font-size:13;text-anchor:middle;" transform="matrix(1 0 0 1 2933.4 322)">Black</text>
  <line style="fill:none;stroke:black;opacity:1;stroke-width:0.5;" x1="263" x2="3036" y1="1903" y2="1903"/>
  <g transform="matrix(1 0 0 1 263 1933)">
   <path d="M9.24805 0.830078Q10.8691 0.830078 12.2949 0.214844Q13.7207-0.400391 14.8096-1.49414Q15.8984-2.58789 16.5186-4.01367Q17.1387-5.43945 17.1387-7.05078Q17.1387-8.66211 16.5186-10.0879Q15.8984-11.5137 14.8047-12.6074Q13.7109-13.7012 12.2852-14.3164Q10.8594-14.9316 9.23828-14.9316Q7.62695-14.9316 6.20117-14.3164Q4.77539-13.7012 3.69141-12.6074Q2.60742-11.5137 1.9873-10.0879Q1.36719-8.66211 1.36719-7.05078Q1.36719-5.43945 1.9873-4.01367Q2.60742-2.58789 3.69629-1.49414Q4.78516-0.400391 6.21094 0.214844Q7.63672 0.830078 9.24805 0.830078ZM9.24805-0.654297Q7.91992-0.654297 6.7627-1.14746Q5.60547-1.64062 4.73145-2.51953Q3.85742-3.39844 3.36426-4.56055Q2.87109-5.72266 2.87109-7.05078Q2.87109-8.37891 3.35938-9.54102Q3.84766-10.7031 4.72168-11.582Q5.5957-12.4609 6.75293-12.9541Q7.91016-13.4473 9.23828-13.4473Q10.5762-13.4473 11.7383-12.9541Q12.9004-12.4609 13.7793-11.582Q14.6582-10.7031 15.1514-9.54102Q15.6445-8.37891 15.6445-7.05078Q15.6445-5.72266 15.1514-4.56055Q14.6582-3.39844 13.7793-2.51953Q12.9004-1.64062 11.7432-1.14746Q10.5859-0.654297 9.24805-0.654297ZM5.6543-7.05078Q5.6543-6.72852 5.85938-6.52832Q6.06445-6.32812 6.40625-6.32812L8.51562-6.32812L8.51562-4.20898Q8.51562-3.88672 8.71094-3.67676Q8.90625-3.4668 9.23828-3.4668Q9.56055-3.4668 9.77051-3.67676Q9.98047-3.88672 9.98047-4.20898L9.98047-6.32812L12.0898-6.32812Q12.4219-6.32812 12.627-6.52832Q12.832-6.72852 12.832-7.05078Q12.832-7.38281 12.627-7.58789Q12.4219-7.79297 12.0898-7.79297L9.98047-7.79297L9.98047-9.90234Q9.98047-10.2344 9.77051-10.4443Q9.56055-10.6543 9.23828-10.6543Q8.90625-10.6543 8.71094-10.4443Q8.51562-10.2344 8.51562-9.90234L8.51562-7.79297L6.40625-7.79297Q6.06445-7.79297 5.85938-7.58789Q5.6543-7.38281 5.6543-7.05078Z"/>
  </g>
  <g transform="matrix(1 0 0 1 281.867 1933)">
   <path d="M11.709 2.91016Q13.75 2.91016 15.5518 2.12891Q17.3535 1.34766 18.7305-0.0292969Q20.1074-1.40625 20.8887-3.20801Q21.6699-5.00977 21.6699-7.05078Q21.6699-9.0918 20.8887-10.8936Q20.1074-12.6953 18.7305-14.0723Q17.3535-15.4492 15.5469-16.2305Q13.7402-17.0117 11.6992-17.0117Q9.6582-17.0117 7.85645-16.2305Q6.05469-15.4492 4.68262-14.0723Q3.31055-12.6953 2.5293-10.8936Q1.74805-9.0918 1.74805-7.05078Q1.74805-5.00977 2.5293-3.20801Q3.31055-1.40625 4.6875-0.0292969Q6.06445 1.34766 7.86621 2.12891Q9.66797 2.91016 11.709 2.91016ZM11.709 1.25Q9.98047 1.25 8.47656 0.605469Q6.97266-0.0390625 5.83496-1.17676Q4.69727-2.31445 4.05762-3.81836Q3.41797-5.32227 3.41797-7.05078Q3.41797-8.7793 4.05762-10.2832Q4.69727-11.7871 5.83008-12.9297Q6.96289-14.0723 8.4668-14.7119Q9.9707-15.3516 11.6992-15.3516Q13.4277-15.3516 14.9365-14.7119Q16.4453-14.0723 17.583-12.9297Q18.7207-11.7871 19.3652-10.2832Q20.0098-8.7793 20.0098-7.05078Q20.0098-5.32227 19.3701-3.81836Q18.7305-2.31445 17.5879-1.17676Q16.4453-0.0390625 14.9414 0.605469Q13.4375 1.25 11.709 1.25ZM7.17773-7.05078Q7.17773-6.69922 7.41211-6.47461Q7.64648-6.25 8.01758-6.25L10.8887-6.25L10.8887-3.36914Q10.8887-2.99805 11.1133-2.76855Q11.3379-2.53906 11.6895-2.53906Q12.0605-2.53906 12.29-2.76855Q12.5195-2.99805 12.5195-3.36914L12.5195-6.25L15.4004-6.25Q15.7715-6.25 16.001-6.47461Q16.2305-6.69922 16.2305-7.05078Q16.2305-7.42188 16.001-7.65137Q15.7715-7.88086 15.4004-7.88086L12.5195-7.88086L12.5195-10.752Q12.5195-11.1328 12.29-11.3623Q12.0605-11.5918 11.6895-11.5918Q11.3379-11.5918 11.1133-11.3574Q10.8887-11.123 10.8887-10.752L10.8887-7.88086L8.01758-7.88086Q7.63672-7.88086 7.40723-7.65137Q7.17773-7.42188 7.17773-7.05078Z"/>
  </g>
  <g transform="matrix(1 0 0 1 305.646 1933)">
   <path d="M14.9707 5.66406Q17.0605 5.66406 18.96 5.01465Q20.8594 4.36523 22.4512 3.19336Q24.043 2.02148 25.2197 0.429688Q26.3965-1.16211 27.0459-3.06641Q27.6953-4.9707 27.6953-7.05078Q27.6953-9.14062 27.0459-11.04Q26.3965-12.9395 25.2197-14.5312Q24.043-16.123 22.4512-17.2998Q20.8594-18.4766 18.9551-19.126Q17.0508-19.7754 14.9609-19.7754Q12.8711-19.7754 10.9717-19.126Q9.07227-18.4766 7.48535-17.2998Q5.89844-16.123 4.72168-14.5312Q3.54492-12.9395 2.90039-11.04Q2.25586-9.14062 2.25586-7.05078Q2.25586-4.9707 2.90527-3.06641Q3.55469-1.16211 4.72656 0.429688Q5.89844 2.02148 7.49023 3.19336Q9.08203 4.36523 10.9814 5.01465Q12.8809 5.66406 14.9707 5.66406ZM14.9707 3.84766Q13.1641 3.84766 11.5283 3.2959Q9.89258 2.74414 8.53516 1.74805Q7.17773 0.751953 6.17676-0.610352Q5.17578-1.97266 4.62891-3.6084Q4.08203-5.24414 4.08203-7.05078Q4.08203-8.86719 4.62891-10.5029Q5.17578-12.1387 6.17188-13.501Q7.16797-14.8633 8.52539-15.8594Q9.88281-16.8555 11.5186-17.4023Q13.1543-17.9492 14.9609-17.9492Q16.7773-17.9492 18.4131-17.4023Q20.0488-16.8555 21.4111-15.8594Q22.7734-14.8633 23.7744-13.501Q24.7754-12.1387 25.3223-10.5029Q25.8691-8.86719 25.8691-7.05078Q25.8691-5.24414 25.3223-3.6084Q24.7754-1.97266 23.7793-0.610352Q22.7832 0.751953 21.4209 1.74805Q20.0586 2.74414 18.4229 3.2959Q16.7871 3.84766 14.9707 3.84766ZM9.19922-7.05078Q9.19922-6.66992 9.45801-6.4209Q9.7168-6.17188 10.1172-6.17188L14.0625-6.17188L14.0625-2.2168Q14.0625-1.81641 14.3115-1.55762Q14.5605-1.29883 14.9512-1.29883Q15.3516-1.29883 15.6104-1.55273Q15.8691-1.80664 15.8691-2.2168L15.8691-6.17188L19.8242-6.17188Q20.2246-6.17188 20.4785-6.4209Q20.7324-6.66992 20.7324-7.05078Q20.7324-7.46094 20.4785-7.71484Q20.2246-7.96875 19.8242-7.96875L15.8691-7.96875L15.8691-11.9141Q15.8691-12.3242 15.6104-12.583Q15.3516-12.8418 14.9512-12.8418Q14.5605-12.8418 14.3115-12.583Q14.0625-12.3242 14.0625-11.9141L14.0625-7.96875L10.1172-7.96875Q9.70703-7.96875 9.45312-7.71484Q9.19922-7.46094 9.19922-7.05078Z"/>
  </g>
  <text style="stroke:none;fill:black;font-family:sans-serif;font-size:13;font-weight:bold;" transform="matrix(1 0 0 1 263 1953)">Design Variations</text>
  <text style="stroke:none;fill:black;font-family:sans-serif;font-size:13;" transform="matrix(1 0 0 1 263 1971)">Symbols are supported in up to nine weights and three scales.</text>
  <text style="stroke:none;fill:black;font-family:sans-serif;font-size:13;" transform="matrix(1 0 0 1 263 1989)">For optimal layout with text and other symbols, vertically align</text>
  <text style="stroke:none;fill:black;font-family:sans-serif;font-size:13;" transform="matrix(1 0 0 1 263 2007)">symbols with the adjacent text.</text>
  <line style="fill:none;stroke:#00AEEF;stroke-width:0.5;opacity:1.0;" x1="776" x2="776" y1="1919" y2="1933"/>
  <g transform="matrix(1 0 0 1 776 1933)">
   <path d="M3.31055 0.15625Q3.70117 0.15625 3.91602-0.00976562Q4.13086-0.175781 4.26758-0.585938L5.52734-4.0332L11.2891-4.0332L12.5488-0.585938Q12.6855-0.175781 12.9004-0.00976562Q13.1152 0.15625 13.4961 0.15625Q13.8867 0.15625 14.1162-0.0585938Q14.3457-0.273438 14.3457-0.644531Q14.3457-0.869141 14.2383-1.17188L9.6582-13.3691Q9.48242-13.8184 9.17969-14.043Q8.87695-14.2676 8.4082-14.2676Q7.5-14.2676 7.17773-13.3789L2.59766-1.16211Q2.49023-0.859375 2.49023-0.634766Q2.49023-0.263672 2.70996-0.0537109Q2.92969 0.15625 3.31055 0.15625ZM6.00586-5.51758L8.37891-12.0898L8.42773-12.0898L10.8008-5.51758Z"/>
  </g>
  <line style="fill:none;stroke:#00AEEF;stroke-width:0.5;opacity:1.0;" x1="793.197" x2="793.197" y1="1919" y2="1933"/>
  <text style="stroke:none;fill:black;font-family:sans-serif;font-size:13;font-weight:bold;" transform="matrix(1 0 0 1 776 1953)">Margins</text>
  <text style="stroke:none;fill:black;font-family:sans-serif;font-size:13;" transform="matrix(1 0 0 1 776 1971)">Leading and trailing margins on the left and right side of each symbol</text>
  <text style="stroke:none;fill:black;font-family:sans-serif;font-size:13;" transform="matrix(1 0 0 1 776 1989)">can be adjusted by modifying the x-location of the margin guidelines.</text>
  <text style="stroke:none;fill:black;font-family:sans-serif;font-size:13;" transform="matrix(1 0 0 1 776 2007)">Modifications are automatically applied proportionally to all</text>
  <text style="stroke:none;fill:black;font-family:sans-serif;font-size:13;" transform="matrix(1 0 0 1 776 2025)">scales and weights.</text>
  <g transform="matrix(1 0 0 1 1289 1933)">
   <path d="M2.8418 1.86523L4.54102 3.57422Q5.18555 4.22852 5.90332 4.17969Q6.62109 4.13086 7.31445 3.35938L18.0078-8.42773L17.041-9.4043L6.42578 2.27539Q6.16211 2.57812 5.89355 2.61719Q5.625 2.65625 5.27344 2.30469L4.10156 1.14258Q3.75 0.791016 3.79395 0.522461Q3.83789 0.253906 4.14062-0.0195312L15.6152-10.8203L14.6387-11.7871L3.04688-0.898438Q2.30469-0.214844 2.25098 0.498047Q2.19727 1.21094 2.8418 1.86523ZM9.25781-16.3281Q8.94531-16.0254 8.90625-15.6348Q8.86719-15.2441 9.04297-14.9512Q9.21875-14.6777 9.55566-14.541Q9.89258-14.4043 10.3809-14.5215Q11.4746-14.7754 12.5977-14.7314Q13.7207-14.6875 14.7949-13.9844L14.209-12.5293Q13.9551-11.9043 14.0674-11.4404Q14.1797-10.9766 14.5801-10.5664L16.875-8.25195Q17.2363-7.88086 17.5781-7.82227Q17.9199-7.76367 18.3398-7.8418L19.4043-8.03711L20.0684-7.36328L20.0293-6.80664Q20-6.43555 20.1221-6.12305Q20.2441-5.81055 20.6055-5.44922L21.3672-4.70703Q21.7285-4.3457 22.1533-4.33105Q22.5781-4.31641 22.9297-4.66797L25.8398-7.58789Q26.1914-7.93945 26.1816-8.35449Q26.1719-8.76953 25.8105-9.13086L25.0391-9.89258Q24.6875-10.2539 24.3799-10.3857Q24.0723-10.5176 23.7109-10.4883L23.1348-10.4395L22.4902-11.0742L22.7344-12.1973Q22.832-12.6172 22.6953-12.9834Q22.5586-13.3496 22.1191-13.7891L19.9219-15.9766Q18.6719-17.2168 17.2607-17.8369Q15.8496-18.457 14.4189-18.4814Q12.9883-18.5059 11.665-17.959Q10.3418-17.4121 9.25781-16.3281ZM10.752-15.957Q11.6602-16.6211 12.7002-16.9043Q13.7402-17.1875 14.8047-17.085Q15.8691-16.9824 16.8701-16.5137Q17.8711-16.0449 18.7012-15.2051L21.1328-12.793Q21.3086-12.6172 21.3525-12.4512Q21.3965-12.2852 21.3379-12.0312L21.0156-10.5469L22.5195-9.0625L23.5059-9.12109Q23.6914-9.13086 23.7891-9.09668Q23.8867-9.0625 24.0332-8.91602L24.6094-8.33984L22.168-5.89844L21.5918-6.47461Q21.4453-6.62109 21.4062-6.71875Q21.3672-6.81641 21.377-7.01172L21.4453-7.98828L19.9512-9.47266L18.4277-9.21875Q18.1836-9.16992 18.042-9.2041Q17.9004-9.23828 17.7148-9.41406L15.7129-11.416Q15.5176-11.5918 15.4932-11.7529Q15.4688-11.9141 15.5859-12.1875L16.4648-14.2773Q15.293-15.3711 13.8281-15.791Q12.3633-16.2109 10.8398-15.7617Q10.7227-15.7324 10.6885-15.8057Q10.6543-15.8789 10.752-15.957Z"/>
  </g>
  <text style="stroke:none;fill:black;font-family:sans-serif;font-size:13;font-weight:bold;" transform="matrix(1 0 0 1 1289 1953)">Exporting</text>
  <text style="stroke:none;fill:black;font-family:sans-serif;font-size:13;" transform="matrix(1 0 0 1 1289 1971)">Symbols should be outlined when exporting to ensure the</text>
  <text style="stroke:none;fill:black;font-family:sans-serif;font-size:13;" transform="matrix(1 0 0 1 1289 1989)">design is preserved when submitting to Xcode.</text>
  <text id="template-version" style="stroke:none;fill:black;font-family:sans-serif;font-size:13;text-anchor:end;" transform="matrix(1 0 0 1 3036 1933)">Template v.2.0</text>
  <text style="stroke:none;fill:black;font-family:sans-serif;font-size:13;text-anchor:end;" transform="matrix(1 0 0 1 3036 1951)">Requires Xcode 12 or greater</text>
  <text id="descriptive-name" style="stroke:none;fill:black;font-family:sans-serif;font-size:13;text-anchor:end;" transform="matrix(1 0 0 1 3036 1969)">Generated from figure.hiking</text>
  <text style="stroke:none;fill:black;font-family:sans-serif;font-size:13;text-anchor:end;" transform="matrix(1 0 0 1 3036 1987)">Typeset at 100 points</text>
  <text style="stroke:none;fill:black;font-family:sans-serif;font-size:13;" transform="matrix(1 0 0 1 263 726)">Small</text>
  <text style="stroke:none;fill:black;font-family:sans-serif;font-size:13;" transform="matrix(1 0 0 1 263 1156)">Medium</text>
  <text style="stroke:none;fill:black;font-family:sans-serif;font-size:13;" transform="matrix(1 0 0 1 263 1586)">Large</text>
 </g>
 <g id="Guides">
  <g id="H-reference" style="fill:#27AAE1;stroke:none;" transform="matrix(1 0 0 1 339 696)">
   <path d="M0.993347 0L3.6377 0L29.3282-67.1326L30.0301-67.1326L30.0301-70.459L28.1227-70.459ZM11.6882-24.4797L46.9818-24.4797L46.2311-26.7288L12.4382-26.7288ZM55.1193 0L57.7637 0L30.6381-70.459L29.4327-70.459L29.4327-67.1326Z"/>
  </g>
  <line id="Baseline-S" style="fill:none;stroke:#27AAE1;opacity:1;stroke-width:0.5;" x1="263" x2="3036" y1="696" y2="696"/>
  <line id="Capline-S" style="fill:none;stroke:#27AAE1;opacity:1;stroke-width:0.5;" x1="263" x2="3036" y1="625.541" y2="625.541"/>
  <g id="H-reference" style="fill:#27AAE1;stroke:none;" transform="matrix(1 0 0 1 339 1126)">
   <path d="M0.993347 0L3.6377 0L29.3282-67.1326L30.0301-67.1326L30.0301-70.459L28.1227-70.459ZM11.6882-24.4797L46.9818-24.4797L46.2311-26.7288L12.4382-26.7288ZM55.1193 0L57.7637 0L30.6381-70.459L29.4327-70.459L29.4327-67.1326Z"/>
  </g>
  <line id="Baseline-M" style="fill:none;stroke:#27AAE1;opacity:1;stroke-width:0.5;" x1="263" x2="3036" y1="1126" y2="1126"/>
  <line id="Capline-M" style="fill:none;stroke:#27AAE1;opacity:1;stroke-width:0.5;" x1="263" x2="3036" y1="1055.54" y2="1055.54"/>
  <g id="H-reference" style="fill:#27AAE1;stroke:none;" transform="matrix(1 0 0 1 339 1556)">
   <path d="M0.993347 0L3.6377 0L29.3282-67.1326L30.0301-67.1326L30.0301-70.459L28.1227-70.459ZM11.6882-24.4797L46.9818-24.4797L46.2311-26.7288L12.4382-26.7288ZM55.1193 0L57.7637 0L30.6381-70.459L29.4327-70.459L29.4327-67.1326Z"/>
  </g>
  <line id="Baseline-L" style="fill:none;stroke:#27AAE1;opacity:1;stroke-width:0.5;" x1="263" x2="3036" y1="1556" y2="1556"/>
  <line id="Capline-L" style="fill:none;stroke:#27AAE1;opacity:1;stroke-width:0.5;" x1="263" x2="3036" y1="1485.54" y2="1485.54"/>
  <line id="left-margin" style="fill:none;stroke:#00AEEF;stroke-width:0.5;opacity:1.0;" x1="1398.66" x2="1398.66" y1="1030.79" y2="1150.12"/>
  <line id="right-margin" style="fill:none;stroke:#00AEEF;stroke-width:0.5;opacity:1.0;" x1="1501.03" x2="1501.03" y1="1030.79" y2="1150.12"/>
 </g>
 <g id="Symbols">
  <g id="Black-L" transform="matrix(1 0 0 1 2863.67 1556)">
   <path d="M71.822-89.4511Q78.2452-89.4511 82.7688-94.0138Q87.2925-98.5765 87.2925-104.963Q87.2925-111.367 82.7688-115.9Q78.2452-120.434 71.822-120.434Q65.4353-120.434 60.872-115.9Q56.3087-111.367 56.3087-104.963Q56.3087-98.5765 60.872-94.0138Q65.4353-89.4511 71.822-89.4511ZM96.7454 48.5315Q99.9577 47.5753 101.385 44.5602Q102.812 41.5452 101.753 38.508L91.2855 6.78057Q90.8458 5.4663 89.7092 4.14558L72.5088-15.6818L75.9257-53.5195Q76.0061-54.1329 76.5287-54.2452Q77.0513-54.3574 77.3782-53.8476L84.8902-42.3858Q87.0295-39.1086 90.2327-37.365L111.631-25.8737Q114.487-24.3558 117.651-25.2938Q120.815-26.2318 122.414-29.1069Q123.968-31.9623 123.031-35.185Q122.093-38.4078 119.239-39.8685L97.9936-51.1833L83.9493-72.8735Q80.9046-77.5595 76.3491-80.2721Q71.7936-82.9848 65.5873-82.9848L50.3969-82.9848L44.8847-29.8077Q44.323-24.4784 45.6041-20.4567Q46.8852-16.4349 51.1911-12.0683L76.8082 13.6502L86.7595 43.4212Q88.0582 47.312 91.0513 48.2721Q94.0443 49.2321 96.7454 48.5315ZM37.9833-28.5228L48.5203-28.5228Q53.341-28.5228 56.6682-31.833Q59.9954-35.1432 59.9954-39.8155L59.9954-78.6338Q59.9954-83.3645 56.6682-86.6747Q53.341-89.9849 48.5203-89.9849L41.4146-89.9849Q34.4089-89.9849 30.5211-86.0966Q26.6334-82.2083 26.6334-75.1221L26.6334-39.8155Q26.6334-34.9055 29.8248-31.7141Q33.0161-28.5228 37.9833-28.5228ZM18.4193 46.4363Q20.8155 48.8532 23.9908 48.7838Q27.1661 48.7144 29.5026 46.4363L54.1704 21.8269Q54.5713 21.4469 55.0098 20.9688Q55.4483 20.4907 55.7467 19.9509L61.207 8.69546L47.8171-4.71765L41.7311 12.0435L18.4193 35.4346Q16.084 37.7711 16.084 40.9944Q16.084 44.2177 18.4193 46.4363ZM115.189-65.9898Q112.835-65.9898 111.165-64.3193Q109.494-62.6487 109.494-60.2954L109.494-53.6421L120.905-47.5688L120.905-60.2954Q120.905-62.6487 119.234-64.3193Q117.563-65.9898 115.189-65.9898ZM115.189 49.1632Q117.563 49.1632 119.234 47.4926Q120.905 45.8221 120.905 43.4479L120.905-18.4611Q115.19-16.1791 109.494-18.52L109.494 43.4479Q109.494 45.8221 111.165 47.4926Q112.835 49.1632 115.189 49.1632Z"/>
  </g>
  <g id="Heavy-L" transform="matrix(1 0 0 1 2567.92 1556)">
   <path d="M70.8364-88.8184Q77.0726-88.8184 81.4683-93.2487Q85.864-97.679 85.864-103.906Q85.864-110.118 81.4683-114.526Q77.0726-118.934 70.8364-118.934Q64.6091-118.934 60.1759-114.526Q55.7428-110.118 55.7428-103.906Q55.7428-97.679 60.1759-93.2487Q64.6091-88.8184 70.8364-88.8184ZM95.3974 47.0209Q98.4448 46.1242 99.8033 43.2464Q101.162 40.3687 100.149 37.4551L89.8212 6.13912Q89.4046 4.912 88.3226 3.62768L71.2519-16.0386L74.6787-53.9306Q74.7591-54.6223 75.3553-54.7508Q75.9515-54.8793 76.3248-54.3095L83.9717-42.6244Q86.0333-39.4752 89.1593-37.7585L110.273-26.4212Q112.995-24.9672 116.013-25.8595Q119.031-26.7517 120.565-29.4988Q122.028-32.2214 121.139-35.2839Q120.249-38.3464 117.532-39.7615L96.5171-50.9593L82.6075-72.4426Q79.6311-77.0193 75.1872-79.6589Q70.7434-82.2985 64.7015-82.2985L49.9352-82.2985L44.5184-30.0343Q43.9611-24.8142 45.208-20.911Q46.455-17.0078 50.6654-12.7415L75.9984 12.7022L85.8459 42.1531Q87.0945 45.8471 89.9365 46.7752Q92.7784 47.7032 95.3974 47.0209ZM37.3341-29.0526L47.8512-29.0526Q52.5071-29.0526 55.7089-32.2083Q58.9106-35.3641 58.9106-39.85L58.9106-78.3755Q58.9106-82.906 55.7089-86.0618Q52.5071-89.2175 47.8512-89.2175L40.7339-89.2175Q34.0045-89.2175 30.2511-85.4613Q26.4977-81.7051 26.4977-74.8953L26.4977-39.85Q26.4977-35.1397 29.5413-32.0962Q32.5848-29.0526 37.3341-29.0526ZM18.3095 45.0309Q20.591 47.3426 23.6268 47.2801Q26.6626 47.2175 28.8938 45.0309L53.2405 20.7289Q53.637 20.3626 54.048 19.9143Q54.4589 19.466 54.7391 18.9444L60.4387 7.25619L47.5749-5.64907L41.3687 11.3988L18.3095 34.5327Q16.084 36.7639 16.084 39.8292Q16.084 42.8945 18.3095 45.0309ZM113.631-65.2064Q111.509-65.2064 110.007-63.7043Q108.505-62.2022 108.505-60.0811L108.505-52.7254L118.792-47.2394L118.792-60.0811Q118.792-62.2022 117.287-63.7043Q115.782-65.2064 113.631-65.2064ZM113.631 47.5555Q115.782 47.5555 117.287 46.0534Q118.792 44.5514 118.792 42.4001L118.792-19.2672Q113.636-17.305 108.505-19.341L108.505 42.4001Q108.505 44.5514 110.007 46.0534Q111.509 47.5555 113.631 47.5555Z"/>
  </g>
  <g id="Bold-L" transform="matrix(1 0 0 1 2272.44 1556)">
   <path d="M69.5626-87.9526Q75.5682-87.9526 79.81-92.2215Q84.0519-96.4904 84.0519-102.518Q84.0519-108.499 79.81-112.753Q75.5682-117.008 69.5626-117.008Q63.5349-117.008 59.2594-112.753Q54.9839-108.499 54.9839-102.518Q54.9839-96.4904 59.2594-92.2215Q63.5349-87.9526 69.5626-87.9526ZM93.6405 45.1089Q96.4954 44.2814 97.7731 41.5653Q99.0508 38.8493 98.0917 36.0818L87.9556 5.32518Q87.5622 4.19826 86.5493 2.96001L69.6772-16.4618L73.1044-54.2887Q73.1848-55.0654 73.862-55.2094Q74.5393-55.3534 74.959-54.7217L82.7301-42.8271Q84.6993-39.8317 87.7256-38.1533L108.456-27.0229Q111.024-25.6459 113.869-26.4842Q116.714-27.3226 118.171-29.9159Q119.526-32.4845 118.695-35.3584Q117.863-38.2323 115.308-39.5936L94.6138-50.6229L80.903-71.8079Q78.0111-76.2464 73.7055-78.7976Q69.4-81.3489 63.5579-81.3489L49.3143-81.3489L44.0204-30.2664Q43.4706-25.1845 44.6753-21.4273Q45.88-17.6701 49.9676-13.5268L74.9025 11.5266L84.6045 40.5258Q85.7915 43.9889 88.4565 44.8785Q91.1215 45.7681 93.6405 45.1089ZM36.4901-29.6239L47.0065-29.6239Q51.47-29.6239 54.518-32.58Q57.566-35.5362 57.566-39.7843L57.566-77.9634Q57.566-82.2405 54.518-85.1967Q51.47-88.153 47.0065-88.153L39.844-88.153Q33.4826-88.153 29.8982-84.562Q26.3138-80.9709 26.3138-74.529L26.3138-39.7843Q26.3138-35.3347 29.1693-32.4793Q32.0247-29.6239 36.4901-29.6239ZM18.1787 43.2421Q20.3293 45.4306 23.1996 45.3757Q26.07 45.3209 28.178 43.2421L52.0879 19.3614Q52.4769 19.0105 52.857 18.5969Q53.2371 18.1833 53.4942 17.6846L59.4561 5.52572L47.2156-6.77932L40.8857 10.5624L18.1787 33.3365Q16.084 35.4446 16.084 38.3251Q16.084 41.2056 18.1787 43.2421ZM111.62-64.0891Q109.791-64.0891 108.5-62.7982Q107.209-61.5074 107.209-59.6781L107.209-51.5287L116.082-46.7799L116.082-59.6781Q116.082-61.5074 114.785-62.7982Q113.487-64.0891 111.62-64.0891ZM111.62 45.5429Q113.487 45.5429 114.785 44.2521Q116.082 42.9612 116.082 41.094L116.082-20.2065Q111.633-18.6288 107.209-20.2808L107.209 41.094Q107.209 42.9612 108.5 44.2521Q109.791 45.5429 111.62 45.5429Z"/>
  </g>
  <g id="Semibold-L" transform="matrix(1 0 0 1 1976.57 1556)">
   <path d="M68.6844-87.3557Q74.5311-87.3557 78.6669-91.5133Q82.8026-95.671 82.8026-101.561Q82.8026-107.383 78.6669-111.531Q74.5311-115.68 68.6844-115.68Q62.7944-115.68 58.6276-111.531Q54.4608-107.383 54.4608-101.561Q54.4608-95.671 58.6276-91.5133Q62.7944-87.3557 68.6844-87.3557ZM92.4293 43.7907Q95.1515 43.011 96.3735 40.4064Q97.5956 37.8018 96.6735 35.135L86.6695 4.76406Q86.2921 3.70621 85.3269 2.49972L68.5916-16.7536L72.0191-54.5356Q72.0995-55.3709 72.8326-55.5256Q73.5657-55.6803 74.0174-55.0059L81.8741-42.9669Q83.7797-40.0775 86.7373-38.4254L107.203-27.4378Q109.665-26.1137 112.391-26.9149Q115.116-27.7162 116.521-30.2035Q117.802-32.6658 117.01-35.4098Q116.217-38.1537 113.774-39.4778L93.3016-50.3911L79.728-71.3703Q76.8943-75.7136 72.6841-78.2039Q68.4739-80.6942 62.7696-80.6942L48.8863-80.6942L43.677-30.4263Q43.1324-25.4397 44.308-21.7832Q45.4836-18.1266 49.4866-14.0681L74.147 10.7162L83.7487 39.404Q84.8933 42.7079 87.4362 43.571Q89.9791 44.434 92.4293 43.7907ZM35.9082-30.0177L46.4241-30.0177Q50.755-30.0177 53.697-32.8363Q56.639-35.6549 56.639-39.739L56.639-77.6793Q56.639-81.7817 53.697-84.6004Q50.755-87.4191 46.4241-87.4191L39.2305-87.4191Q33.1228-87.4191 29.6549-83.9419Q26.1871-80.4648 26.1871-74.2766L26.1871-39.739Q26.1871-35.4692 28.9128-32.7435Q31.6385-30.0177 35.9082-30.0177ZM18.0885 42.0089Q20.1488 44.1124 22.9051 44.0629Q25.6614 44.0134 27.6845 42.0089L51.2933 18.4186Q51.6771 18.0784 52.0359 17.6887Q52.3948 17.2989 52.636 16.8162L58.7787 4.33275L46.9679-7.55851L40.5527 9.98588L18.0885 32.5119Q16.084 34.535 16.084 37.2881Q16.084 40.0412 18.0885 42.0089ZM110.234-63.3188Q108.606-63.3188 107.46-62.1736Q106.315-61.0284 106.315-59.4002L106.315-50.7036L114.214-46.4632L114.214-59.4002Q114.214-61.0284 113.06-62.1736Q111.905-63.3188 110.234-63.3188ZM110.234 44.1554Q111.905 44.1554 113.06 43.0102Q114.214 41.865 114.214 40.1937L114.214-20.854Q110.252-19.5414 106.315-20.9287L106.315 40.1937Q106.315 41.865 107.46 43.0102Q108.606 44.1554 110.234 44.1554Z"/>
  </g>
  <g id="Medium-L" transform="matrix(1 0 0 1 1680.51 1556)">
   <path d="M68.0185-86.9032Q73.7447-86.9032 77.8-90.9764Q81.8553-95.0496 81.8553-100.835Q81.8553-106.537 77.8-110.604Q73.7447-114.672 68.0185-114.672Q62.2329-114.672 58.1485-110.604Q54.0641-106.537 54.0641-100.835Q54.0641-95.0496 58.1485-90.9764Q62.2329-86.9032 68.0185-86.9032ZM91.511 42.7913Q94.1325 42.0477 95.3123 39.5276Q96.4921 37.0076 95.5982 34.4172L85.6943 4.3386Q85.329 3.33312 84.4 2.15071L67.7685-16.9749L71.1961-54.7228Q71.2766-55.6025 72.052-55.7653Q72.8275-55.9281 73.3034-55.2214L81.2251-43.0729Q83.0824-40.2639 85.9879-38.6317L106.253-27.7523Q108.635-26.4684 111.27-27.2415Q113.905-28.0146 115.269-30.4215Q116.494-32.8034 115.732-35.4487Q114.97-38.094 112.611-39.39L92.3067-50.2153L78.837-71.0386Q76.0474-75.3096 71.9095-77.7537Q67.7717-80.1977 62.1719-80.1977L48.5618-80.1977L43.4167-30.5476Q42.876-25.6333 44.0295-22.053Q45.1831-18.4728 49.1219-14.4786L73.5741 10.1017L83.0997 38.5533Q84.2122 41.7366 86.6626 42.5795Q89.113 43.4225 91.511 42.7913ZM35.467-30.3163L45.9825-30.3163Q50.2128-30.3163 53.0745-33.0306Q55.9362-35.7449 55.9362-39.7046L55.9362-77.4639Q55.9362-81.4338 53.0745-84.1482Q50.2128-86.8627 45.9825-86.8627L38.7654-86.8627Q32.85-86.8627 29.4705-83.4718Q26.0909-80.081 26.0909-74.0852L26.0909-39.7046Q26.0909-35.5712 28.7183-32.9438Q31.3458-30.3163 35.467-30.3163ZM18.0201 41.0738Q20.012 43.113 22.6818 43.0675Q25.3516 43.022 27.3103 41.0738L50.6908 17.7038Q51.0707 17.3716 51.4134 17Q51.7561 16.6284 51.9852 16.1577L58.2651 3.42819L46.7801-8.14933L40.3002 9.5487L18.0201 31.8866Q16.084 33.8454 16.084 36.5018Q16.084 39.1583 18.0201 41.0738ZM109.183-62.7347Q107.707-62.7347 106.672-61.6999Q105.637-60.6652 105.637-59.1896L105.637-50.0781L112.798-46.223L112.798-59.1896Q112.798-60.6652 111.752-61.6999Q110.705-62.7347 109.183-62.7347ZM109.183 43.1034Q110.705 43.1034 111.752 42.0686Q112.798 41.0338 112.798 39.511L112.798-21.345Q109.205-20.2334 105.637-21.42L105.637 39.511Q105.637 41.0338 106.672 42.0686Q107.707 43.1034 109.183 43.1034Z"/>
  </g>
  <g id="Regular-L" transform="matrix(1 0 0 1 1384.64 1556)">
   <path d="M67.15-86.3128Q72.719-86.3128 76.6694-90.276Q80.6198-94.2392 80.6198-99.8887Q80.6198-105.433 76.6694-109.396Q72.719-113.359 67.15-113.359Q61.5005-113.359 57.5236-109.396Q53.5467-105.433 53.5467-99.8887Q53.5467-94.2392 57.5236-90.276Q61.5005-86.3128 67.15-86.3128ZM90.3131 41.4876Q92.8033 40.7913 93.9281 38.3814Q95.0528 35.9716 94.1956 33.4809L84.4224 3.78364Q84.0728 2.84648 83.1909 1.69548L66.6949-17.2634L70.1227-54.967Q70.2032-55.9046 71.0339-56.078Q71.8646-56.2514 72.3722-55.5025L80.3785-43.2111Q82.1729-40.507 85.0104-38.9009L105.014-28.1626Q107.291-26.9312 109.808-27.6675Q112.325-28.4038 113.637-30.7058Q114.788-32.9827 114.065-35.4995Q113.343-38.0163 111.094-39.2756L91.009-49.986L77.6749-70.6058Q74.9429-74.7826 70.8993-77.1664Q66.8557-79.5502 61.3922-79.5502L48.1385-79.5502L43.0771-30.7058Q42.5416-25.8857 43.6663-22.405Q44.791-18.9244 48.6461-15.014L72.8269 9.30015L82.2533 37.4438Q83.3239 40.4696 85.6535 41.2864Q87.9832 42.1031 90.3131 41.4876ZM34.8916-30.7058L45.4065-30.7058Q49.5056-30.7058 52.2625-33.284Q55.0194-35.8622 55.0194-39.6598L55.0194-77.1829Q55.0194-80.98 52.2625-83.5584Q49.5056-86.1369 45.4065-86.1369L38.1586-86.1369Q32.4941-86.1369 29.2298-82.8586Q25.9655-79.5804 25.9655-73.8355L25.9655-39.6598Q25.9655-35.7042 28.4647-33.205Q30.9639-30.7058 34.8916-30.7058ZM17.9309 39.8541Q19.8336 41.8093 22.3905 41.7691Q24.9475 41.7289 26.8223 39.8541L49.905 16.7714Q50.2797 16.4497 50.6014 16.1018Q50.923 15.7538 51.1364 15.2987L57.5951 2.24833L46.5352-8.91995L39.9709 8.97847L17.9309 31.071Q16.084 32.9458 16.084 35.4763Q16.084 38.0067 17.9309 39.8541ZM107.812-61.9729Q106.535-61.9729 105.644-61.0822Q104.754-60.1914 104.754-58.9148L104.754-49.2621L110.95-45.9097L110.95-58.9148Q110.95-60.1914 110.046-61.0822Q109.141-61.9729 107.812-61.9729ZM107.812 41.7312Q109.141 41.7312 110.046 40.8404Q110.95 39.9497 110.95 38.6205L110.95-21.9854Q107.84-21.136 104.754-22.0608L104.754 38.6205Q104.754 39.9497 105.644 40.8404Q106.535 41.7312 107.812 41.7312Z"/>
  </g>
  <g id="Light-L" transform="matrix(1 0 0 1 1089.1 1556)">
   <path d="M65.9286-85.1867Q71.345-85.1867 75.2189-89.0545Q79.0928-92.9223 79.0928-98.4191Q79.0928-103.849 75.2189-107.716Q71.345-111.584 65.9286-111.584Q60.4317-111.584 56.5408-107.716Q52.6498-103.849 52.6498-98.4191Q52.6498-92.9223 56.5408-89.0545Q60.4317-85.1867 65.9286-85.1867ZM88.5383 39.9036Q90.9711 39.2261 92.0673 36.8737Q93.1635 34.5213 92.3252 32.0876L82.8002 3.09648Q82.4314 2.17856 81.6069 1.06571L65.4924-17.4353L68.844-54.2416Q68.9244-55.1604 69.7456-55.3147Q70.5669-55.469 71.0364-54.7583L78.8516-42.7532Q80.6078-40.1254 83.3501-38.5764L102.896-28.0863Q105.134-26.893 107.585-27.6103Q110.035-28.3275 111.309-30.5532Q112.422-32.7919 111.728-35.2418Q111.033-37.6918 108.842-38.9321L89.2149-49.3751L76.2246-69.5179Q73.5496-73.5802 69.6014-75.9164Q65.6532-78.2525 60.3042-78.2525L47.3943-78.2525L42.4473-30.5532Q41.9307-25.8475 43.0269-22.4623Q44.1231-19.077 47.8637-15.2429L71.4718 8.4796L80.6882 35.955Q81.7206 38.9045 83.993 39.7022Q86.2654 40.4998 88.5383 39.9036ZM34.0518-30.5532L44.7194-30.5532Q48.7614-30.5532 51.4229-32.9405Q54.0844-35.3277 54.0844-38.9155L54.0844-76.305Q54.0844-79.892 51.4229-82.2797Q48.7614-84.6673 44.7194-84.6673L37.2425-84.6673Q31.9978-84.6673 28.8672-81.5132Q25.7366-78.359 25.7366-73.0338L25.7366-38.9155Q25.7366-35.227 28.0735-32.8901Q30.4104-30.5532 34.0518-30.5532ZM17.8735 38.3082Q19.7572 40.2253 22.2474 40.1851Q24.7375 40.1449 26.5741 38.3082L49.1033 15.779Q49.4591 15.4573 49.7808 15.119Q50.1025 14.7806 50.2966 14.3445L56.7172 1.38961L45.9054-9.54972L39.4174 8.15792L17.8735 29.7352Q16.084 31.5718 16.084 34.0449Q16.084 36.5179 17.8735 38.3082ZM105.903-60.2552Q104.855-60.2552 104.127-59.5267Q103.398-58.7982 103.398-57.7505L103.398-48.0407L108.488-45.2607L108.488-57.7505Q108.488-58.7982 107.736-59.5267Q106.984-60.2552 105.903-60.2552ZM105.903 40.2042Q106.984 40.2042 107.736 39.4757Q108.488 38.7472 108.488 37.6662L108.488-22.2525Q105.95-21.5939 103.398-22.2134L103.398 37.6662Q103.398 38.7472 104.127 39.4757Q104.855 40.2042 105.903 40.2042Z"/>
  </g>
  <g id="Thin-L" transform="matrix(1 0 0 1 793.94 1556)">
   <path d="M64.3132-83.6973Q69.5278-83.6973 73.3005-87.4389Q77.0733-91.1805 77.0733-96.4755Q77.0733-101.754 73.3005-105.495Q69.5278-109.237 64.3132-109.237Q59.0182-109.237 55.2409-105.495Q51.4637-101.754 51.4637-96.4755Q51.4637-91.1805 55.2409-87.4389Q59.0182-83.6973 64.3132-83.6973ZM86.1909 37.8086Q88.5479 37.1562 89.6063 34.8796Q90.6648 32.6031 89.8515 30.2449L80.6547 2.18764Q80.2604 1.29517 79.5119 0.232792L63.9021-17.6626L67.1527-53.2823Q67.2331-54.176 68.0418-54.3051Q68.8506-54.4342 69.2696-53.7739L76.832-42.1476Q78.5378-39.6207 81.1541-38.1472L100.094-27.9853Q102.282-26.8425 104.644-27.5346Q107.006-28.2266 108.229-30.3513Q109.292-32.5396 108.635-34.9011Q107.979-37.2626 105.863-38.4779L86.8421-48.5672L74.3064-68.0789Q71.707-71.9898 67.8849-74.263Q64.0629-76.5362 58.8653-76.5362L46.4099-76.5362L41.6144-30.3513Q41.1228-25.7971 42.1813-22.538Q43.2397-19.2789 46.829-15.5457L69.6795 7.39434L78.6182 33.9859Q79.6001 36.8345 81.7969 37.6069Q83.9936 38.3794 86.1909 37.8086ZM32.9411-30.3513L43.8105-30.3513Q47.7771-30.3513 50.3124-32.486Q52.8477-34.6207 52.8477-37.9312L52.8477-75.1438Q52.8477-78.4531 50.3124-80.5884Q47.7771-82.7237 43.8105-82.7237L36.0309-82.7237Q31.3413-82.7237 28.3875-79.7337Q25.4338-76.7437 25.4338-71.9736L25.4338-37.9312Q25.4338-34.596 27.5561-32.4737Q29.6784-30.3513 32.9411-30.3513ZM17.7976 36.2637Q19.6563 38.1303 22.058 38.09Q24.4597 38.0498 26.2458 36.2637L48.0431 14.4664Q48.3739 14.1447 48.6955 13.8191Q49.0172 13.4935 49.1859 13.0824L55.556 0.253889L45.0725-10.3826L38.6855 7.07266L17.7976 27.9684Q16.084 29.7545 16.084 32.1517Q16.084 34.5489 17.7976 36.2637ZM103.379-57.9833Q102.634-57.9833 102.12-57.4694Q101.606-56.9555 101.606-56.2106L101.606-46.4253L105.232-44.4023L105.232-56.2106Q105.232-56.9555 104.682-57.4694Q104.132-57.9833 103.379-57.9833ZM103.379 38.1847Q104.132 38.1847 104.682 37.6708Q105.232 37.1569 105.232 36.4041L105.232-22.6058Q103.452-22.1995 101.606-22.4153L101.606 36.4041Q101.606 37.1569 102.12 37.6708Q102.634 38.1847 103.379 38.1847Z"/>
  </g>
  <g id="Ultralight-L" transform="matrix(1 0 0 1 498.024 1556)">
   <path d="M63.4858-82.9344Q68.597-82.9344 72.3179-86.6114Q76.0389-90.2884 76.0389-95.48Q76.0389-100.68 72.3179-104.357Q68.597-108.034 63.4858-108.034Q58.2943-108.034 54.5752-104.357Q50.8561-100.68 50.8561-95.48Q50.8561-90.2884 54.5752-86.6114Q58.2943-82.9344 63.4858-82.9344ZM84.9886 36.7355Q87.3067 36.0959 88.3458 33.8583Q89.3849 31.6206 88.5845 29.3011L79.5558 1.72215Q79.1485 0.842704 78.4388-0.193825L63.0875-17.7791L66.2864-52.791Q66.3668-53.6719 67.1692-53.788Q67.9715-53.9042 68.3647-53.2698L75.7976-41.8374Q77.4775-39.3622 80.0294-37.9274L98.6586-27.9336Q100.821-26.8167 103.138-27.4958Q105.455-28.1749 106.652-30.2479Q107.689-32.4104 107.052-34.7266Q106.415-37.0427 104.338-38.2453L85.6268-48.1534L73.3239-67.3419Q70.7631-71.1752 67.0057-73.4162Q63.2483-75.6572 58.1282-75.6572L45.9058-75.6572L41.1878-30.2479Q40.709-25.7712 41.7481-22.5767Q42.7873-19.3823 46.2989-15.7008L68.7616 6.83848L77.5579 32.9774Q78.5141 35.7742 80.672 36.5338Q82.8299 37.2933 84.9886 36.7355ZM32.3722-30.2479L43.345-30.2479Q47.2729-30.2479 49.7436-32.2533Q52.2143-34.2586 52.2143-37.427L52.2143-74.5491Q52.2143-77.7161 49.7436-79.7221Q47.2729-81.7282 43.345-81.7282L35.4103-81.7282Q31.005-81.7282 28.1418-78.8222Q25.2787-75.9163 25.2787-71.4306L25.2787-37.427Q25.2787-34.2728 27.2911-32.2604Q29.3035-30.2479 32.3722-30.2479ZM17.7587 35.2165Q19.6046 37.0572 21.961 37.017Q24.3174 36.9768 26.0777 35.2165L47.5001 13.7941Q47.818 13.4724 48.1397 13.1533Q48.4614 12.8343 48.617 12.4359L54.9613-0.327822L44.6458-10.8093L38.3105 6.5168L17.7587 27.0635Q16.084 28.8238 16.084 31.182Q16.084 33.5403 17.7587 35.2165ZM102.086-56.8197Q101.496-56.8197 101.092-56.4157Q100.688-56.0117 100.688-55.4219L100.688-45.598L103.564-43.9627L103.564-55.4219Q103.564-56.0117 103.117-56.4157Q102.671-56.8197 102.086-56.8197ZM102.086 37.1503Q102.671 37.1503 103.117 36.7463Q103.564 36.3423 103.564 35.7577L103.564-22.7867Q102.172-22.5097 100.688-22.5187L100.688 35.7577Q100.688 36.3423 101.092 36.7463Q101.496 37.1503 102.086 37.1503Z"/>
  </g>
  <g id="Black-M" transform="matrix(1 0 0 1 2878.72 1126)">
   <path d="M56.3251-77.6285Q61.4414-77.6285 65.0457-81.2642Q68.65-84.9 68.65-89.9643Q68.65-95.0748 65.0457-98.682Q61.4414-102.289 56.3251-102.289Q51.2608-102.289 47.6252-98.682Q43.9896-95.0748 43.9896-89.9643Q43.9896-84.9 47.6252-81.2642Q51.2608-77.6285 56.3251-77.6285ZM75.8708 30.7474Q78.4935 29.9579 79.6542 27.5118Q80.815 25.0656 79.9581 22.6143L71.7614-2.22435Q71.3983-3.31487 70.4785-4.36419L57.093-19.8017L59.7213-48.948Q59.7836-49.3533 60.1239-49.4237Q60.4642-49.4941 60.6725-49.156L66.3505-40.5066Q68.0696-37.8681 70.6046-36.5017L87.366-27.5003Q89.6873-26.2745 92.2556-27.038Q94.8239-27.8014 96.112-30.1285Q97.3897-32.4497 96.6261-35.0751Q95.8625-37.7005 93.541-38.869L76.9457-47.6994L65.9958-64.6169Q63.5859-68.3256 59.9735-70.4835Q56.3611-72.6415 51.4271-72.6415L39.3405-72.6415L35.0035-30.8136Q34.5671-26.6065 35.5852-23.4017Q36.6032-20.1969 40.0056-16.7379L60.0189 3.34319L67.7893 26.5926Q68.8334 29.7658 71.2744 30.5345Q73.7153 31.3032 75.8708 30.7474ZM29.8714-29.5575L38.0726-29.5575Q41.9413-29.5575 44.6139-32.2289Q47.2865-34.9003 47.2865-38.652L47.2865-68.9597Q47.2865-72.7684 44.6139-75.4398Q41.9413-78.1112 38.0726-78.1112L32.5465-78.1112Q26.9382-78.1112 23.8289-75.0021Q20.7196-71.8929 20.7196-66.2223L20.7196-38.652Q20.7196-34.7126 23.2971-32.135Q25.8747-29.5575 29.8714-29.5575ZM14.3568 29.0387Q16.3091 30.9966 18.8801 30.9369Q21.451 30.8772 23.3465 29.0387L42.6586 9.78376Q42.9704 9.47745 43.3338 9.08274Q43.6972 8.68803 43.9415 8.25683L47.961-0.0783774L37.1688-10.8755L32.5673 1.83785L14.3568 20.111Q12.4609 22.0065 12.4609 24.6318Q12.4609 27.2571 14.3568 29.0387ZM90.3221-59.5014Q88.3303-59.5014 86.9132-58.0843Q85.4961-56.6672 85.4961-54.6755L85.4961-50.1169L95.1532-44.9844L95.1532-54.6755Q95.1532-56.6672 93.7362-58.0843Q92.3193-59.5014 90.3221-59.5014ZM90.3221 31.3279Q92.3193 31.3279 93.7362 29.9108Q95.1532 28.4937 95.1532 26.4965L95.1532-21.5817Q90.3218-19.5647 85.4961-21.599L85.4961 26.4965Q85.4961 28.4937 86.9132 29.9108Q88.3303 31.3279 90.3221 31.3279Z"/>
  </g>
  <g id="Heavy-M" transform="matrix(1 0 0 1 2582.83 1126)">
   <path d="M55.4743-77.1138Q60.4219-77.1138 63.9081-80.629Q67.3944-84.1441 67.3944-89.0668Q67.3944-94.0002 63.9081-97.4936Q60.4219-100.987 55.4743-100.987Q50.5517-100.987 47.0354-97.4936Q43.5191-94.0002 43.5191-89.0668Q43.5191-84.1441 47.0354-80.629Q50.5517-77.1138 55.4743-77.1138ZM74.7167 29.4167Q77.1835 28.6838 78.2798 26.3666Q79.3761 24.0494 78.5622 21.7134L70.4796-2.78802Q70.1408-3.79512 69.2692-4.81238L55.9752-20.1347L58.6202-49.4167Q58.6825-49.9004 59.0957-49.9885Q59.5088-50.0765 59.7659-49.6761L65.5935-40.7822Q67.2401-38.2616 69.7085-36.9164L86.2333-28.0426Q88.4281-26.8757 90.8595-27.5962Q93.2909-28.3167 94.52-30.5257Q95.7117-32.7206 94.9924-35.1956Q94.273-37.6705 92.0804-38.796L75.6678-47.5367L64.8178-64.296Q62.4695-67.9085 58.9575-69.9994Q55.4454-72.0903 50.6615-72.0903L38.9579-72.0903L34.7036-31.0492Q34.2697-26.9382 35.257-23.8405Q36.2442-20.7428 39.5639-17.3749L59.3523 2.49215L67.0406 25.4903Q68.0392 28.4782 70.3377 29.2173Q72.6363 29.9565 74.7167 29.4167ZM29.3143-30.0895L37.4819-30.0895Q41.1948-30.0895 43.7536-32.6276Q46.3123-35.1656 46.3123-38.7544L46.3123-68.7882Q46.3123-72.4205 43.7536-74.9586Q41.1948-77.4966 37.4819-77.4966L31.9656-77.4966Q26.5888-77.4966 23.5984-74.5051Q20.6081-71.5137 20.6081-66.0745L20.6081-38.7544Q20.6081-34.9855 23.0561-32.5375Q25.5041-30.0895 29.3143-30.0895ZM14.2548 27.8075Q16.0968 29.666 18.5375 29.613Q20.9782 29.56 22.7743 27.8075L41.8235 8.8019Q42.1328 8.50906 42.4693 8.14259Q42.8057 7.77612 43.034 7.36093L47.2909-1.40615L36.9901-11.728L32.2641 1.28326L14.2548 19.3526Q12.4609 21.1487 12.4609 23.6248Q12.4609 26.1009 14.2548 27.8075ZM88.9749-58.894Q87.189-58.894 85.9217-57.6267Q84.6543-56.3593 84.6543-54.5734L84.6543-49.3334L93.3142-44.7223L93.3142-54.5734Q93.3142-56.3593 92.0457-57.6267Q90.7772-58.894 88.9749-58.894ZM88.9749 29.8971Q90.7772 29.8971 92.0457 28.6298Q93.3142 27.3624 93.3142 25.5601L93.3142-22.3451Q88.9772-20.6231 84.6543-22.3875L84.6543 25.5601Q84.6543 27.3624 85.9217 28.6298Q87.189 29.8971 88.9749 29.8971Z"/>
  </g>
  <g id="Bold-M" transform="matrix(1 0 0 1 2287.04 1126)">
   <path d="M54.5225-76.5381Q59.2814-76.5381 62.6356-79.9183Q65.9898-83.2986 65.9898-88.0627Q65.9898-92.7981 62.6356-96.1641Q59.2814-99.5301 54.5225-99.5301Q49.7584-99.5301 46.3756-96.1641Q42.9928-92.7981 42.9928-88.0627Q42.9928-83.2986 46.3756-79.9183Q49.7584-76.5381 54.5225-76.5381ZM73.4258 27.9283Q75.7181 27.2584 76.7423 25.0855Q77.7665 22.9125 77.0006 20.7057L69.0457-3.41857Q68.7342-4.33234 67.9163-5.31375L54.7247-20.5071L57.3885-49.9411Q57.4508-50.5124 57.9455-50.6202Q58.4401-50.728 58.7518-50.258L64.7466-41.0904Q66.3121-38.7018 68.706-37.3803L84.9661-28.6491Q87.0196-27.5483 89.2978-28.2207Q91.576-28.8931 92.7391-30.9701Q93.8347-33.0236 93.1648-35.3303Q92.495-37.637 90.4466-38.7144L74.2383-47.3547L63.5001-63.937Q61.2206-67.4419 57.8209-69.4579Q54.4211-71.4738 49.8051-71.4738L38.5298-71.4738L34.368-31.3127Q33.937-27.3093 34.8898-24.3314Q35.8427-21.3536 39.0698-18.0876L58.6066 1.54014L66.2031 24.2573Q67.1508 27.0377 69.29 27.7439Q71.4292 28.4501 73.4258 27.9283ZM28.691-30.6847L36.8212-30.6847Q40.3598-30.6847 42.7912-33.0735Q45.2226-35.4623 45.2226-38.8689L45.2226-68.5963Q45.2226-72.0314 42.7912-74.4202Q40.3598-76.8091 36.8212-76.8091L31.3158-76.8091Q26.1978-76.8091 23.3406-73.9493Q20.4833-71.0894 20.4833-65.9092L20.4833-38.8689Q20.4833-35.2909 22.7864-32.9878Q25.0895-30.6847 28.691-30.6847ZM14.1406 26.4303Q15.8593 28.1775 18.1543 28.132Q20.4493 28.0866 22.1341 26.4303L40.8894 7.70354Q41.1959 7.42577 41.5022 7.0909Q41.8085 6.75602 42.0188 6.35873L46.5413-2.89145L36.7902-12.6815L31.9249 0.662862L14.1406 18.5043Q12.4609 20.1891 12.4609 22.4984Q12.4609 24.8076 14.1406 26.4303ZM87.4679-58.2145Q85.9123-58.2145 84.8125-57.1147Q83.7127-56.0149 83.7127-54.4592L83.7127-48.457L91.257-44.4291L91.257-54.4592Q91.257-56.0149 90.1546-57.1147Q89.0522-58.2145 87.4679-58.2145ZM87.4679 28.2966Q89.0522 28.2966 90.1546 27.1968Q91.257 26.0969 91.257 24.5127L91.257-23.1991Q87.4731-21.8072 83.7127-23.2696L83.7127 24.5127Q83.7127 26.0969 84.8125 27.1968Q85.9123 28.2966 87.4679 28.2966Z"/>
  </g>
  <g id="Semibold-M" transform="matrix(1 0 0 1 1990.97 1126)">
   <path d="M53.8664-76.1412Q58.4952-76.1412 61.7584-79.4284Q65.0215-82.7157 65.0215-87.3705Q65.0215-91.9694 61.7584-95.2476Q58.4952-98.5258 53.8664-98.5258Q49.2115-98.5258 45.9207-95.2476Q42.6299-91.9694 42.6299-87.3705Q42.6299-82.7157 45.9207-79.4284Q49.2115-76.1412 53.8664-76.1412ZM72.5358 26.9021Q74.7079 26.2758 75.6824 24.2023Q76.6569 22.1288 75.9241 20.0111L68.0572-3.85327Q67.7645-4.7027 66.9837-5.65938L53.8627-20.7639L56.5394-50.3026Q56.6017-50.9343 57.1525-51.0557Q57.7033-51.1771 58.0526-50.6591L64.1628-41.3028Q65.6724-39.0053 68.0148-37.7L84.0926-29.0673Q86.0486-28.012 88.2212-28.6513Q90.3937-29.2905 91.5113-31.2765Q92.5406-33.2325 91.9049-35.4232Q91.2692-37.6139 89.3203-38.6582L73.2528-47.2293L62.5917-63.6895Q60.3597-67.1202 57.0373-69.0845Q53.715-71.0488 49.2147-71.0488L38.2347-71.0488L34.1367-31.4944Q33.7076-27.5652 34.6367-24.6699Q35.5658-21.7746 38.7292-18.5788L58.0925 0.883829L65.6258 23.4072Q66.5383 26.0447 68.5677 26.7281Q70.5971 27.4115 72.5358 26.9021ZM28.2613-31.0949L36.3658-31.0949Q39.7841-31.0949 42.1277-33.3809Q44.4713-35.6669 44.4713-38.9479L44.4713-68.464Q44.4713-71.7631 42.1277-74.0491Q39.7841-76.3351 36.3658-76.3351L30.8678-76.3351Q25.9283-76.3351 23.1628-73.5661Q20.3973-70.797 20.3973-65.7952L20.3973-38.9479Q20.3973-35.5013 22.6005-33.2981Q24.8037-31.0949 28.2613-31.0949ZM14.062 25.4808Q15.6955 27.1513 17.8901 27.1111Q20.0846 27.0709 21.6928 25.4808L40.2455 6.94634Q40.5499 6.67897 40.8355 6.36586Q41.121 6.05276 41.3189 5.66782L46.0246-3.9154L36.6524-13.3389L31.6911 0.235164L14.062 17.9194Q12.4609 19.5276 12.4609 21.7218Q12.4609 23.916 14.062 25.4808ZM86.429-57.7461Q85.0322-57.7461 84.0478-56.7617Q83.0635-55.7774 83.0635-54.3805L83.0635-47.8528L89.8388-44.2269L89.8388-54.3805Q89.8388-55.7774 88.8508-56.7617Q87.8629-57.7461 86.429-57.7461ZM86.429 27.1932Q87.8629 27.1932 88.8508 26.2089Q89.8388 25.2245 89.8388 23.7906L89.8388-23.7878Q86.4362-22.6235 83.0635-23.8777L83.0635 23.7906Q83.0635 25.2245 84.0478 26.2089Q85.0322 27.1932 86.429 27.1932Z"/>
  </g>
  <g id="Medium-M" transform="matrix(1 0 0 1 1694.74 1126)">
   <path d="M53.3688-75.8402Q57.899-75.8402 61.0932-79.057Q64.2873-82.2737 64.2873-86.8457Q64.2873-91.3411 61.0932-94.5527Q57.899-97.7643 53.3688-97.7643Q48.7969-97.7643 45.5759-94.5527Q42.3548-91.3411 42.3548-86.8457Q42.3548-82.2737 45.5759-79.057Q48.7969-75.8402 53.3688-75.8402ZM71.8609 26.124Q73.9419 25.5307 74.8787 23.5326Q75.8155 21.5346 75.1078 19.4843L67.3076-4.18288Q67.0292-4.98353 66.2765-5.92146L53.2091-20.9586L55.8955-50.5767Q55.9578-51.2542 56.5513-51.3859Q57.1447-51.5177 57.5225-50.9632L63.7201-41.464Q65.1873-39.2355 67.4908-37.9425L83.4302-29.3844Q85.3124-28.3636 87.4048-28.9777Q89.4973-29.5918 90.5804-31.5088Q91.5595-33.3909 90.9496-35.4936Q90.3397-37.5963 88.4663-38.6155L72.5055-47.1341L61.9029-63.5018Q59.7068-66.8763 56.4432-68.8014Q53.1795-70.7265 48.767-70.7265L38.0109-70.7265L33.9613-31.6321Q33.5337-27.7592 34.4448-24.9265Q35.3559-22.0938 38.4709-18.9513L57.7027 0.386187L65.188 22.7627Q66.0739 25.2918 68.02 25.9579Q69.9661 26.6241 71.8609 26.124ZM27.9355-31.406L36.0204-31.406Q39.3476-31.406 41.6246-33.614Q43.9017-35.822 43.9017-39.0078L43.9017-68.3637Q43.9017-71.5597 41.6246-73.7677Q39.3476-75.9758 36.0204-75.9758L30.5282-75.9758Q25.724-75.9758 23.028-73.2755Q20.3321-70.5752 20.3321-65.7087L20.3321-39.0078Q20.3321-35.661 22.4596-33.5335Q24.587-31.406 27.9355-31.406ZM14.0023 24.7609Q15.5713 26.3732 17.6898 26.337Q19.8082 26.3007 21.3582 24.7609L39.7572 6.3722Q40.0602 6.1127 40.33 5.81611Q40.5997 5.51952 40.7883 5.14394L45.6327-4.69181L36.5479-13.8374L31.5138-0.0891333L14.0023 17.476Q12.4609 19.026 12.4609 21.133Q12.4609 23.2399 14.0023 24.7609ZM85.6413-57.3909Q84.3648-57.3909 83.468-56.4941Q82.5712-55.5973 82.5712-54.3208L82.5712-47.3947L88.7634-44.0736L88.7634-54.3208Q88.7634-55.5973 87.8623-56.4941Q86.9612-57.3909 85.6413-57.3909ZM85.6413 26.3566Q86.9612 26.3566 87.8623 25.4598Q88.7634 24.563 88.7634 23.2431L88.7634-24.2342Q85.65-23.2424 82.5712-24.3387L82.5712 23.2431Q82.5712 24.563 83.468 25.4598Q84.3648 26.3566 85.6413 26.3566Z"/>
  </g>
  <g id="Regular-M" transform="matrix(1 0 0 1 1398.66 1126)">
   <path d="M52.7199-75.4476Q57.1215-75.4476 60.2256-78.5724Q63.3297-81.6972 63.3297-86.1611Q63.3297-90.5215 60.2256-93.6463Q57.1215-96.7711 52.7199-96.7711Q48.256-96.7711 45.126-93.6463Q41.996-90.5215 41.996-86.1611Q41.996-81.6972 45.126-78.5724Q48.256-75.4476 52.7199-75.4476ZM70.9807 25.1091Q72.9427 24.5589 73.8304 22.6592Q74.718 20.7594 74.0431 18.7972L66.3299-4.6128Q66.0701-5.34982 65.3542-6.2633L52.3565-21.2125L55.0557-50.9343Q55.118-51.6715 55.767-51.8167Q56.416-51.9619 56.831-51.3599L63.1428-41.6741Q64.5547-39.5356 66.8073-38.2588L82.5663-29.7979Q84.352-28.8222 86.34-29.4035Q88.3281-29.9849 89.3662-31.8118Q90.2796-33.5976 89.7035-35.5855Q89.1274-37.5734 87.3523-38.5599L71.5308-47.0101L61.0045-63.257Q58.8553-66.5582 55.6682-68.4322Q52.4811-70.3061 48.1831-70.3061L37.719-70.3061L33.7325-31.8118Q33.3068-28.0122 34.1945-25.2612Q35.0821-22.5103 38.1341-19.4372L57.1942-0.262912L64.617 21.922Q65.4681 24.3096 67.3056 24.9533Q69.1431 25.5969 70.9807 25.1091ZM27.5105-31.8118L35.5699-31.8118Q38.7782-31.8118 40.9684-33.9181Q43.1587-36.0243 43.1587-39.0859L43.1587-68.2329Q43.1587-71.2943 40.9684-73.4007Q38.7782-75.507 35.5699-75.507L30.0851-75.507Q25.4574-75.507 22.8522-72.8965Q20.2471-70.286 20.2471-65.596L20.2471-39.0859Q20.2471-35.8691 22.2757-33.8405Q24.3044-31.8118 27.5105-31.8118ZM13.9245 23.8218Q15.4094 25.3584 17.4285 25.3272Q19.4476 25.2961 20.9218 23.8218L39.1203 5.62332Q39.4214 5.3741 39.6706 5.09905Q39.9198 4.824 40.0961 4.46063L45.1217-5.70451L36.4116-14.4875L31.2825-0.51213L13.9245 16.8975Q12.4609 18.3717 12.4609 20.3649Q12.4609 22.3581 13.9245 23.8218ZM84.6138-56.9276Q83.4943-56.9276 82.7117-56.145Q81.9292-55.3625 81.9292-54.243L81.9292-46.7971L87.3608-43.8737L87.3608-54.243Q87.3608-55.3625 86.5729-56.145Q85.785-56.9276 84.6138-56.9276ZM84.6138 25.2653Q85.785 25.2653 86.5729 24.4827Q87.3608 23.7002 87.3608 22.529L87.3608-24.8165Q84.6245-24.0497 81.9292-24.9401L81.9292 22.529Q81.9292 23.7002 82.7117 24.4827Q83.4943 25.2653 84.6138 25.2653Z"/>
  </g>
  <g id="Light-M" transform="matrix(1 0 0 1 1103 1126)">
   <path d="M51.6249-74.438Q55.8896-74.438 58.9251-77.4773Q61.9607-80.5165 61.9607-84.8436Q61.9607-89.1013 58.9251-92.1406Q55.8896-95.1798 51.6249-95.1798Q47.2978-95.1798 44.2449-92.1406Q41.1919-89.1013 41.1919-84.8436Q41.1919-80.5165 44.2449-77.4773Q47.2978-74.438 51.6249-74.438ZM69.3895 23.689Q71.3001 23.1557 72.1621 21.3074Q73.0242 19.4591 72.3662 17.5481L64.8756-5.22888Q64.5985-5.94865 63.934-6.82791L51.2785-21.3666L53.9093-50.284Q53.9716-51.0042 54.612-51.1323Q55.2525-51.2604 55.6334-50.6927L61.7738-41.2636Q63.1515-39.1935 65.3187-37.9679L80.6669-29.7295Q82.4184-28.788 84.3466-29.3522Q86.2749-29.9164 87.2787-31.675Q88.158-33.4265 87.6075-35.3545Q87.0569-37.2825 85.3333-38.252L69.9224-46.4624L59.7042-62.2816Q57.6062-65.4801 54.5046-67.3114Q51.4031-69.1427 47.2077-69.1427L37.0518-69.1427L33.1679-31.675Q32.7592-27.978 33.6212-25.3125Q34.4833-22.6471 37.4326-19.6425L55.9793-0.998584L63.2138 20.5872Q64.0307 22.9064 65.8169 23.533Q67.6031 24.1595 69.3895 23.689ZM26.7576-31.675L34.9538-31.675Q38.111-31.675 40.2157-33.61Q42.3204-35.5451 42.3204-38.4187L42.3204-67.4458Q42.3204-70.3189 40.2157-72.2542Q38.111-74.1895 34.9538-74.1895L29.2638-74.1895Q25.0124-74.1895 22.5271-71.6902Q20.0418-69.191 20.0418-64.8773L20.0418-38.4187Q20.0418-35.4414 21.925-33.5582Q23.8082-31.675 26.7576-31.675ZM13.8731 22.4359Q15.341 23.9382 17.3001 23.907Q19.2593 23.8759 20.6993 22.4359L38.4016 4.73356Q38.6857 4.48434 38.9349 4.21791Q39.1841 3.95148 39.3432 3.60507L44.3345-6.4744L35.847-15.0521L30.7863-1.2478L13.8731 15.6999Q12.4609 17.1399 12.4609 19.0816Q12.4609 21.0233 13.8731 22.4359ZM82.9027-55.3876Q81.9885-55.3876 81.3514-54.7505Q80.7143-54.1134 80.7143-53.1991L80.7143-45.7021L85.1535-43.2919L85.1535-53.1991Q85.1535-54.1134 84.5024-54.7505Q83.8514-55.3876 82.9027-55.3876ZM82.9027 23.8963Q83.8514 23.8963 84.5024 23.2592Q85.1535 22.6221 85.1535 21.6734L85.1535-25.056Q82.9306-24.4603 80.7143-25.077L80.7143 21.6734Q80.7143 22.6221 81.3514 23.2592Q81.9885 23.8963 82.9027 23.8963Z"/>
  </g>
  <g id="Thin-M" transform="matrix(1 0 0 1 807.678 1126)">
   <path d="M50.1766-73.1027Q54.2603-73.1027 57.2052-76.0288Q60.1501-78.955 60.1501-83.101Q60.1501-87.223 57.2052-90.1491Q54.2603-93.0753 50.1766-93.0753Q46.0306-93.0753 43.0795-90.1491Q40.1284-87.223 40.1284-83.101Q40.1284-78.955 43.0795-76.0288Q46.0306-73.1027 50.1766-73.1027ZM67.285 21.8107Q69.1275 21.2998 69.9557 19.5196Q70.7839 17.7394 70.1484 15.8961L62.952-6.04369Q62.6521-6.74065 62.0557-7.57467L49.8526-21.5704L52.3929-49.4239Q52.4552-50.1217 53.0845-50.2272Q53.7138-50.3327 54.0494-49.8102L59.9631-40.7206Q61.2956-38.7411 63.3499-37.5831L78.1547-29.639Q79.861-28.7427 81.7102-29.2843Q83.5593-29.8259 84.5179-31.494Q85.352-33.2003 84.8353-35.049Q84.3186-36.8977 82.663-37.8447L67.795-45.7381L57.9844-60.9915Q55.9542-64.0543 52.9657-65.8291Q49.9772-67.6039 45.9176-67.6039L36.1693-67.6039L32.4211-31.494Q32.0349-27.9327 32.8631-25.3804Q33.6913-22.8281 36.5049-19.914L54.3725-1.97157L61.3579 18.8218Q62.1296 21.0506 63.8479 21.6545Q65.5662 22.2584 67.285 21.8107ZM25.7618-31.494L34.139-31.494Q37.2285-31.494 39.22-33.2026Q41.2116-34.9112 41.2116-37.5362L41.2116-66.4047Q41.2116-69.0288 39.22-70.7379Q37.2285-72.4469 34.139-72.4469L28.1775-72.4469Q24.4238-72.4469 22.0971-70.0948Q19.7703-67.7427 19.7703-63.9267L19.7703-37.5362Q19.7703-34.8756 21.4611-33.1848Q23.1519-31.494 25.7618-31.494ZM13.805 20.6028Q15.2505 22.0599 17.1303 22.0287Q19.0102 21.9976 20.405 20.6028L37.451 3.55677Q37.7127 3.30755 37.9619 3.05253Q38.2111 2.79751 38.3474 2.47354L43.2935-7.49263L35.1002-15.7989L30.13-2.22079L13.805 14.1159Q12.4609 15.5106 12.4609 17.3843Q12.4609 19.2579 13.805 20.6028ZM80.6396-53.3507Q79.9969-53.3507 79.5522-52.906Q79.1075-52.4613 79.1075-51.8185L79.1075-44.2538L82.2341-42.5223L82.2341-51.8185Q82.2341-52.4613 81.7641-52.906Q81.294-53.3507 80.6396-53.3507ZM80.6396 22.0857Q81.294 22.0857 81.7641 21.641Q82.2341 21.1963 82.2341 20.5419L82.2341-25.3727Q80.6903-25.0032 79.1075-25.258L79.1075 20.5419Q79.1075 21.1963 79.5522 21.641Q79.9969 22.0857 80.6396 22.0857Z"/>
  </g>
  <g id="Ultralight-M" transform="matrix(1 0 0 1 511.679 1126)">
   <path d="M49.4348-72.4187Q53.4258-72.4187 56.3243-75.2869Q59.2227-78.1551 59.2227-82.2085Q59.2227-86.2609 56.3243-89.1292Q53.4258-91.9974 49.4348-91.9974Q45.3815-91.9974 42.4826-89.1292Q39.5837-86.2609 39.5837-82.2085Q39.5837-78.1551 42.4826-75.2869Q45.3815-72.4187 49.4348-72.4187ZM66.207 20.8486Q68.0147 20.3492 68.8256 18.6039Q69.6364 16.8586 69.0124 15.0499L61.9668-6.46104Q61.6552-7.14631 61.0936-7.95715L49.1223-21.6748L51.6163-48.9834Q51.6786-49.6697 52.3021-49.7636Q52.9256-49.8575 53.238-49.3582L59.0358-40.4425Q60.345-38.5093 62.3415-37.386L76.868-29.5927Q78.5512-28.7195 80.3598-29.2496Q82.1684-29.7796 83.1039-31.4013Q83.9147-33.0844 83.4154-34.8925Q82.916-36.7006 81.2953-37.6362L66.7054-45.3671L57.1036-60.3307Q55.108-63.324 52.1775-65.0699Q49.2469-66.8158 45.2568-66.8158L35.7173-66.8158L32.0386-31.4013Q31.6639-27.9096 32.4747-25.4152Q33.2856-22.9208 36.0297-20.053L53.5495-2.46993L60.4073 17.9176Q61.1559 20.1 62.8394 20.6923Q64.523 21.2847 66.207 20.8486ZM25.2518-31.4013L33.7217-31.4013Q36.7765-31.4013 38.7101-32.9939Q40.6438-34.5866 40.6438-37.0842L40.6438-65.8715Q40.6438-68.368 38.7101-69.9612Q36.7765-71.5544 33.7217-71.5544L27.6211-71.5544Q24.1223-71.5544 21.8768-69.2777Q19.6313-67.0009 19.6313-63.4399L19.6313-37.0842Q19.6313-34.5858 21.2235-32.9935Q22.8158-31.4013 25.2518-31.4013ZM13.7701 19.664Q15.2041 21.0978 17.0434 21.0667Q18.8827 21.0355 20.2542 19.664L36.9642 2.95403Q37.2143 2.70481 37.4636 2.45563Q37.7128 2.20645 37.8373 1.89397L42.7603-8.01416L34.7177-16.1814L29.7939-2.71915L13.7701 13.3045Q12.4609 14.6761 12.4609 16.5149Q12.4609 18.3537 13.7701 19.664ZM79.4805-52.3074Q78.9768-52.3074 78.6306-51.9613Q78.2844-51.6151 78.2844-51.1114L78.2844-43.5121L80.7389-42.1281L80.7389-51.1114Q80.7389-51.6151 80.3615-51.9613Q79.9842-52.3074 79.4805-52.3074ZM79.4805 21.1583Q79.9842 21.1583 80.3615 20.8121Q80.7389 20.466 80.7389 19.9623L80.7389-25.5349Q79.5429-25.2813 78.2844-25.3507L78.2844 19.9623Q78.2844 20.466 78.6306 20.8121Q78.9768 21.1583 79.4805 21.1583Z"/>
  </g>
  <g id="Black-S" transform="matrix(1 0 0 1 2890.36 696)">
   <path d="M44.3359-68.5547Q48.3887-68.5547 51.2451-71.4355Q54.1016-74.3164 54.1016-78.3203Q54.1016-82.373 51.2451-85.2295Q48.3887-88.0859 44.3359-88.0859Q40.332-88.0859 37.4512-85.2295Q34.5703-82.373 34.5703-78.3203Q34.5703-74.3164 37.4512-71.4355Q40.332-68.5547 44.3359-68.5547ZM59.7168 16.7969Q61.8164 16.1621 62.7441 14.209Q63.6719 12.2559 62.9883 10.3027L56.543-9.22852Q56.25-10.1074 55.5176-10.9375L45.0195-23.0469L47.0703-45.8008Q47.1191-46.0938 47.3633-46.1426Q47.6074-46.1914 47.7539-45.9473L52.1484-39.2578Q53.5156-37.1582 55.5176-36.084L68.7012-29.0039Q70.5566-28.0273 72.6074-28.6377Q74.6582-29.248 75.6836-31.1035Q76.709-32.959 76.0986-35.0586Q75.4883-37.1582 73.6328-38.0859L60.5957-45.0195L52.002-58.3008Q50.0977-61.2305 47.2412-62.9395Q44.3848-64.6484 40.4785-64.6484L30.9082-64.6484L27.4902-31.6895Q27.1484-28.3691 27.9541-25.8301Q28.7598-23.291 31.4453-20.5566L47.168-4.78516L53.2715 13.4766Q54.1016 16.0156 56.0547 16.626Q58.0078 17.2363 59.7168 16.7969ZM23.5352-30.6152L29.9805-30.6152Q33.0566-30.6152 35.1807-32.7393Q37.3047-34.8633 37.3047-37.8418L37.3047-61.6699Q37.3047-64.6973 35.1807-66.8213Q33.0566-68.9453 29.9805-68.9453L25.6348-68.9453Q21.1914-68.9453 18.7256-66.4795Q16.2598-64.0137 16.2598-59.5215L16.2598-37.8418Q16.2598-34.7168 18.3105-32.666Q20.3613-30.6152 23.5352-30.6152ZM11.2793 15.4297Q12.8418 16.9922 14.8926 16.9434Q16.9434 16.8945 18.457 15.4297L33.6426 0.292969Q33.8867 0.0488281 34.1797-0.268555Q34.4727-0.585938 34.668-0.927734L37.7441-7.32422L29.1504-15.918L25.5859-6.05469L11.2793 8.30078Q9.76562 9.81445 9.76562 11.9141Q9.76562 14.0137 11.2793 15.4297ZM71.0938-54.3457Q69.4824-54.3457 68.335-53.1982Q67.1875-52.0508 67.1875-50.4395L67.1875-47.0703L75-42.9199L75-50.4395Q75-52.0508 73.8525-53.1982Q72.7051-54.3457 71.0938-54.3457ZM71.0938 17.2852Q72.7051 17.2852 73.8525 16.1377Q75 14.9902 75 13.3789L75-24.3164Q71.0938-22.6562 67.1875-24.3164L67.1875 13.3789Q67.1875 14.9902 68.335 16.1377Q69.4824 17.2852 71.0938 17.2852Z"/>
  </g>
  <g id="Heavy-S" transform="matrix(1 0 0 1 2594.22 696)">
   <path d="M43.7482-68.2435Q47.6742-68.2435 50.4384-71.0322Q53.2027-73.8209 53.2027-77.721Q53.2027-81.6355 50.4384-84.4055Q47.6742-87.1755 43.7482-87.1755Q39.848-87.1755 37.0593-84.4055Q34.2707-81.6355 34.2707-77.721Q34.2707-73.8209 37.0593-71.0322Q39.848-68.2435 43.7482-68.2435ZM58.9331 15.8403Q60.906 15.2517 61.7818 13.4023Q62.6577 11.5529 62.0087 9.69194L55.6325-9.63187Q55.3626-10.4416 54.6648-11.2487L44.2013-23.3119L46.2751-46.2848Q46.324-46.6469 46.6315-46.713Q46.939-46.7792 47.1316-46.4774L51.6759-39.5459Q52.9855-37.5385 54.9414-36.4758L67.9751-29.4764Q69.7269-28.5459 71.6682-29.1217Q73.6095-29.6975 74.5888-31.4608Q75.545-33.2125 74.9692-35.1911Q74.3935-37.1697 72.6417-38.0629L59.7083-44.9504L51.1607-58.151Q49.3025-61.0115 46.5209-62.6686Q43.7394-64.3258 39.9484-64.3258L30.6662-64.3258L27.3058-31.9084Q26.964-28.6573 27.7467-26.1989Q28.5293-23.7405 31.1572-21.0752L46.7531-5.419L52.8105 12.7044Q53.606 15.0937 55.4439 15.681Q57.2818 16.2683 58.9331 15.8403ZM23.1548-31.0877L29.5541-31.0877Q32.5035-31.0877 34.5411-33.1196Q36.5786-35.1514 36.5786-38.0147L36.5786-61.6238Q36.5786-64.5244 34.5411-66.5562Q32.5035-68.5881 29.5541-68.5881L25.2429-68.5881Q20.9494-68.5881 18.57-66.2087Q16.1906-63.8293 16.1906-59.4869L16.1906-38.0147Q16.1906-35.0049 18.1492-33.0463Q20.1078-31.0877 23.1548-31.0877ZM11.1986 14.5538Q12.6689 16.0357 14.616 15.9926Q16.5631 15.9495 17.9961 14.5538L33.0203-0.433073Q33.2644-0.665689 33.5343-0.960023Q33.8042-1.25436 33.988-1.58463L37.2716-8.36142L29.0697-16.5749L25.39-6.43499L11.1986 7.80523Q9.76562 9.23823 9.76562 11.2168Q9.76562 13.1954 11.1986 14.5538ZM70.1603-54.023Q68.6988-54.023 67.6608-52.985Q66.6228-51.9471 66.6228-50.4856L66.6228-46.5402L73.7093-42.7701L73.7093-50.4856Q73.7093-51.9471 72.6713-52.985Q71.6333-54.023 70.1603-54.023ZM70.1603 16.2364Q71.6333 16.2364 72.6713 15.1985Q73.7093 14.1605 73.7093 12.6874L73.7093-24.9387Q70.1603-23.5091 66.6228-24.9733L66.6228 12.6874Q66.6228 14.1605 67.6608 15.1985Q68.6988 16.2364 70.1603 16.2364Z"/>
  </g>
  <g id="Bold-S" transform="matrix(1 0 0 1 2298.14 696)">
   <path d="M43.0908-67.8955Q46.875-67.8955 49.5361-70.5811Q52.1973-73.2666 52.1973-77.0508Q52.1973-80.8105 49.5361-83.4839Q46.875-86.1572 43.0908-86.1572Q39.3066-86.1572 36.6211-83.4839Q33.9355-80.8105 33.9355-77.0508Q33.9355-73.2666 36.6211-70.5811Q39.3066-67.8955 43.0908-67.8955ZM58.0566 14.7705Q59.8877 14.2334 60.7056 12.5Q61.5234 10.7666 60.9131 9.00879L54.6143-10.083Q54.3701-10.8154 53.7109-11.5967L43.2861-23.6084L45.3857-46.8262Q45.4346-47.2656 45.813-47.3511Q46.1914-47.4365 46.4355-47.0703L51.1475-39.8682Q52.3926-37.9639 54.2969-36.9141L67.1631-30.0049Q68.7988-29.126 70.6177-29.6631Q72.4365-30.2002 73.3643-31.8604Q74.2432-33.4961 73.7061-35.3394Q73.1689-37.1826 71.5332-38.0371L58.7158-44.873L50.2197-57.9834Q48.4131-60.7666 45.7153-62.3657Q43.0176-63.9648 39.3555-63.9648L30.3955-63.9648L27.0996-32.1533Q26.7578-28.9795 27.5146-26.6113Q28.2715-24.2432 30.835-21.6553L46.2891-6.12793L52.2949 11.8408Q53.0518 14.0625 54.7607 14.624Q56.4697 15.1855 58.0566 14.7705ZM22.7295-31.6162L29.0771-31.6162Q31.8848-31.6162 33.8257-33.5449Q35.7666-35.4736 35.7666-38.208L35.7666-61.5723Q35.7666-64.3311 33.8257-66.2598Q31.8848-68.1885 29.0771-68.1885L24.8047-68.1885Q20.6787-68.1885 18.396-65.9058Q16.1133-63.623 16.1133-59.4482L16.1133-38.208Q16.1133-35.3271 17.9688-33.4717Q19.8242-31.6162 22.7295-31.6162ZM11.1084 13.5742Q12.4756 14.9658 14.3066 14.9292Q16.1377 14.8926 17.4805 13.5742L32.3242-1.24512Q32.5684-1.46484 32.8125-1.7334Q33.0566-2.00195 33.2275-2.31934L36.7432-9.52148L28.9795-17.3096L25.1709-6.86035L11.1084 7.25098Q9.76562 8.59375 9.76562 10.437Q9.76562 12.2803 11.1084 13.5742ZM69.1162-53.6621Q67.8223-53.6621 66.9067-52.7466Q65.9912-51.8311 65.9912-50.5371L65.9912-45.9473L72.2656-42.6025L72.2656-50.5371Q72.2656-51.8311 71.3501-52.7466Q70.4346-53.6621 69.1162-53.6621ZM69.1162 15.0635Q70.4346 15.0635 71.3501 14.1479Q72.2656 13.2324 72.2656 11.9141L72.2656-25.6348Q69.1162-24.4629 65.9912-25.708L65.9912 11.9141Q65.9912 13.2324 66.9067 14.1479Q67.8223 15.0635 69.1162 15.0635Z"/>
  </g>
  <g id="Semibold-S" transform="matrix(1 0 0 1 2001.87 696)">
   <path d="M42.6376-67.6556Q46.324-67.6556 48.9141-70.27Q51.5041-72.8845 51.5041-76.5887Q51.5041-80.2418 48.9141-82.8485Q46.324-85.4552 42.6376-85.4552Q38.9334-85.4552 36.3189-82.8485Q33.7045-80.2418 33.7045-76.5887Q33.7045-72.8845 36.3189-70.27Q38.9334-67.6556 42.6376-67.6556ZM57.4523 14.0329Q59.1856 13.5313 59.9635 11.8779Q60.7414 10.2245 60.1577 8.53779L53.9122-10.394Q53.6858-11.0731 53.0533-11.8366L42.6552-23.8128L44.7726-47.1994Q44.8214-47.6922 45.2487-47.791Q45.676-47.8897 45.9557-47.4791L50.7831-40.0903Q51.9838-38.2571 53.8525-37.2162L66.6032-30.3692Q68.159-29.5259 69.8934-30.0363Q71.6278-30.5468 72.52-32.1358Q73.3456-33.6916 72.8352-35.4416Q72.3247-37.1915 70.7689-38.0193L58.0315-44.8197L49.571-57.8679Q47.7999-60.5978 45.1599-62.1569Q42.5199-63.716 38.9467-63.716L30.2089-63.716L26.9574-32.3222Q26.6156-29.2017 27.3547-26.8957Q28.0938-24.5897 30.6128-22.0552L45.9691-6.6167L51.9395 11.2454Q52.6696 13.3516 54.2897 13.8953Q55.9099 14.4391 57.4523 14.0329ZM22.4362-31.9806L28.7483-31.9806Q31.4582-31.9806 33.3325-33.8382Q35.2067-35.6958 35.2067-38.3413L35.2067-61.5367Q35.2067-64.1978 33.3325-66.0554Q31.4582-67.913 28.7483-67.913L24.5025-67.913Q20.4921-67.913 18.276-65.6969Q16.06-63.4809 16.06-59.4216L16.06-38.3413Q16.06-35.5493 17.8443-33.7649Q19.6287-31.9806 22.4362-31.9806ZM11.0462 12.8988Q12.3423 14.2282 14.0934 14.196Q15.8444 14.1639 17.125 12.8988L31.8443-1.80498Q32.0885-2.01582 32.3148-2.2666Q32.5412-2.51738 32.7032-2.82588L36.3788-10.3213L28.9173-17.8161L25.0198-7.15361L11.0462 6.86885Q9.76562 8.14941 9.76562 9.89937Q9.76562 11.6493 11.0462 12.8988ZM68.3964-53.4133Q67.218-53.4133 66.3869-52.5822Q65.5558-51.7511 65.5558-50.5727L65.5558-45.5385L71.2703-42.487L71.2703-50.5727Q71.2703-51.7511 70.4392-52.5822Q69.6081-53.4133 68.3964-53.4133ZM68.3964 14.2548Q69.6081 14.2548 70.4392 13.4237Q71.2703 12.5926 71.2703 11.3809L71.2703-26.1146Q68.3964-25.1205 65.5558-26.2146L65.5558 11.3809Q65.5558 12.5926 66.3869 13.4237Q67.218 14.2548 68.3964 14.2548Z"/>
  </g>
  <g id="Medium-S" transform="matrix(1 0 0 1 1705.5 696)">
   <path d="M42.2939-67.4736Q45.9062-67.4736 48.4424-70.0342Q50.9785-72.5947 50.9785-76.2383Q50.9785-79.8105 48.4424-82.3667Q45.9062-84.9229 42.2939-84.9229Q38.6504-84.9229 36.0898-82.3667Q33.5293-79.8105 33.5293-76.2383Q33.5293-72.5947 36.0898-70.0342Q38.6504-67.4736 42.2939-67.4736ZM56.9941 13.4736Q58.6533 12.999 59.4009 11.4062Q60.1484 9.81348 59.585 8.18066L53.3799-10.6299Q53.167-11.2686 52.5547-12.0186L42.1768-23.9678L44.3076-47.4824Q44.3564-48.0156 44.8208-48.1245Q45.2852-48.2334 45.5918-47.7891L50.5068-40.2588Q51.6738-38.4795 53.5156-37.4453L66.1787-30.6455Q67.6738-29.8291 69.3442-30.3193Q71.0146-30.8096 71.8799-32.3447Q72.665-33.8398 72.1748-35.519Q71.6846-37.1982 70.1895-38.0059L57.5127-44.7793L49.0791-57.7803Q47.335-60.4697 44.7388-61.9985Q42.1426-63.5273 38.6367-63.5273L30.0674-63.5273L26.8496-32.4502Q26.5078-29.3701 27.2334-27.1113Q27.959-24.8525 30.4443-22.3584L45.7266-6.9873L51.6699 10.7939Q52.3799 12.8125 53.9326 13.3428Q55.4854 13.873 56.9941 13.4736ZM22.2139-32.2568L28.499-32.2568Q31.1348-32.2568 32.9585-34.0605Q34.7822-35.8643 34.7822-38.4424L34.7822-61.5098Q34.7822-64.0967 32.9585-65.9004Q31.1348-67.7041 28.499-67.7041L24.2734-67.7041Q20.3506-67.7041 18.1851-65.5386Q16.0195-63.373 16.0195-59.4014L16.0195-38.4424Q16.0195-35.7178 17.75-33.9873Q19.4805-32.2568 22.2139-32.2568ZM10.999 12.3867Q12.2412 13.6689 13.9316 13.6401Q15.6221 13.6113 16.8555 12.3867L31.4805-2.22949Q31.7246-2.43359 31.9375-2.6709Q32.1504-2.9082 32.3057-3.20996L36.1025-10.9277L28.8701-18.2002L24.9053-7.37598L10.999 6.5791Q9.76562 7.8125 9.76562 9.4917Q9.76562 11.1709 10.999 12.3867ZM67.8506-53.2246Q66.7598-53.2246 65.9927-52.4575Q65.2256-51.6904 65.2256-50.5996L65.2256-45.2285L70.5156-42.3994L70.5156-50.5996Q70.5156-51.6904 69.7485-52.4575Q68.9814-53.2246 67.8506-53.2246ZM67.8506 13.6416Q68.9814 13.6416 69.7485 12.8745Q70.5156 12.1074 70.5156 10.9766L70.5156-26.4785Q67.8506-25.6191 65.2256-26.5986L65.2256 10.9766Q65.2256 12.1074 65.9927 12.8745Q66.7598 13.6416 67.8506 13.6416Z"/>
  </g>
  <g id="Regular-S" transform="matrix(1 0 0 1 1409.22 696)">
   <path d="M41.8457-67.2363Q45.3613-67.2363 47.8271-69.7266Q50.293-72.2168 50.293-75.7812Q50.293-79.248 47.8271-81.7383Q45.3613-84.2285 41.8457-84.2285Q38.2812-84.2285 35.791-81.7383Q33.3008-79.248 33.3008-75.7812Q33.3008-72.2168 35.791-69.7266Q38.2812-67.2363 41.8457-67.2363ZM56.3965 12.7441Q57.959 12.3047 58.667 10.791Q59.375 9.27734 58.8379 7.71484L52.6855-10.9375Q52.4902-11.5234 51.9043-12.2559L41.5527-24.1699L43.7012-47.8516Q43.75-48.4375 44.2627-48.5596Q44.7754-48.6816 45.1172-48.1934L50.1465-40.4785Q51.2695-38.7695 53.0762-37.7441L65.625-31.0059Q67.041-30.2246 68.6279-30.6885Q70.2148-31.1523 71.0449-32.6172Q71.7773-34.0332 71.3135-35.6201Q70.8496-37.207 69.4336-37.9883L56.8359-44.7266L48.4375-57.666Q46.7285-60.3027 44.1895-61.792Q41.6504-63.2812 38.2324-63.2812L29.8828-63.2812L26.709-32.6172Q26.3672-29.5898 27.0752-27.3926Q27.7832-25.1953 30.2246-22.7539L45.4102-7.4707L51.3184 10.2051Q52.002 12.1094 53.4668 12.6221Q54.9316 13.1348 56.3965 12.7441ZM21.9238-32.6172L28.1738-32.6172Q30.7129-32.6172 32.4707-34.3506Q34.2285-36.084 34.2285-38.5742L34.2285-61.4746Q34.2285-63.9648 32.4707-65.6982Q30.7129-67.4316 28.1738-67.4316L23.9746-67.4316Q20.166-67.4316 18.0664-65.332Q15.9668-63.2324 15.9668-59.375L15.9668-38.5742Q15.9668-35.9375 17.627-34.2773Q19.2871-32.6172 21.9238-32.6172ZM10.9375 11.7188Q12.1094 12.9395 13.7207 12.915Q15.332 12.8906 16.5039 11.7188L31.0059-2.7832Q31.25-2.97852 31.4453-3.19824Q31.6406-3.41797 31.7871-3.71094L35.7422-11.7188L28.8086-18.7012L24.7559-7.66602L10.9375 6.20117Q9.76562 7.37305 9.76562 8.95996Q9.76562 10.5469 10.9375 11.7188ZM67.1387-52.9785Q66.1621-52.9785 65.4785-52.2949Q64.7949-51.6113 64.7949-50.6348L64.7949-44.8242L69.5312-42.2852L69.5312-50.6348Q69.5312-51.6113 68.8477-52.2949Q68.1641-52.9785 67.1387-52.9785ZM67.1387 12.8418Q68.1641 12.8418 68.8477 12.1582Q69.5312 11.4746 69.5312 10.4492L69.5312-26.9531Q67.1387-26.2695 64.7949-27.0996L64.7949 10.4492Q64.7949 11.4746 65.4785 12.1582Q66.1621 12.8418 67.1387 12.8418Z"/>
  </g>
  <g id="Light-S" transform="matrix(1 0 0 1 1113.44 696)">
   <path d="M40.877-66.3432Q44.2716-66.3432 46.6768-68.7578Q49.0819-71.1723 49.0819-74.6157Q49.0819-77.9917 46.6768-80.4063Q44.2716-82.8209 40.877-82.8209Q37.4336-82.8209 35.0115-80.4063Q32.5895-77.9917 32.5895-74.6157Q32.5895-71.1723 35.0115-68.7578Q37.4336-66.3432 40.877-66.3432ZM54.9889 11.4878Q56.5058 11.0634 57.1912 9.59524Q57.8766 8.12709 57.3545 6.60985L51.399-11.4825Q51.1884-12.0532 50.648-12.7553L40.5991-24.3062L42.687-47.2763Q42.7358-47.8472 43.241-47.9542Q43.7462-48.0611 44.0577-47.6031L48.9354-40.1154Q50.0282-38.4669 51.7593-37.4868L63.9448-30.9453Q65.3305-30.1943 66.8645-30.6431Q68.3985-31.0918 69.1984-32.4961Q69.9005-33.8819 69.4593-35.4158Q69.018-36.9497 67.6476-37.7159L55.4131-44.2421L47.2872-56.8031Q45.6235-59.3491 43.1601-60.8006Q40.6967-62.252 37.3695-62.252L29.2926-62.252L26.2095-32.4961Q25.8827-29.5596 26.5681-27.438Q27.2535-25.3164 29.6041-22.9355L44.3354-8.12149L50.0771 9.0243Q50.7304 10.8681 52.1498 11.3656Q53.5693 11.8632 54.9889 11.4878ZM21.2578-32.4961L27.6288-32.4961Q30.1226-32.4961 31.8048-34.0781Q33.4869-35.66 33.4869-37.984L33.4869-60.7783Q33.4869-63.102 31.8048-64.684Q30.1226-66.2661 27.6288-66.2661L23.248-66.2661Q19.7723-66.2661 17.7788-64.2649Q15.7852-62.2637 15.7852-58.7392L15.7852-37.984Q15.7852-35.5591 17.3167-34.0276Q18.8482-32.4961 21.2578-32.4961ZM10.892 10.4927Q12.0488 11.6831 13.6072 11.6587Q15.1655 11.6343 16.3071 10.4927L30.3701-3.5703Q30.5992-3.76561 30.7945-3.97771Q30.9898-4.18981 31.1211-4.46777L35.0459-12.3998L28.3091-19.2006L24.3169-8.3168L10.892 5.1417Q9.76562 6.28332 9.76562 7.82471Q9.76562 9.3661 10.892 10.4927ZM65.625-51.6162Q64.83-51.6162 64.2751-51.0612Q63.7202-50.5063 63.7202-49.7114L63.7202-43.8555L67.5786-41.7704L67.5786-49.7114Q67.5786-50.5063 67.0161-51.0612Q66.4536-51.6162 65.625-51.6162ZM65.625 11.6308Q66.4536 11.6308 67.0161 11.0758Q67.5786 10.5209 67.5786 9.69238L67.5786-27.165Q65.6403-26.6327 63.7202-27.2207L63.7202 9.69238Q63.7202 10.5209 64.2751 11.0758Q64.83 11.6308 65.625 11.6308Z"/>
  </g>
  <g id="Thin-S" transform="matrix(1 0 0 1 817.959 696)">
   <path d="M39.5959-65.1619Q42.8303-65.1619 45.1553-67.4764Q47.4802-69.7909 47.4802-73.0742Q47.4802-76.3302 45.1553-78.6447Q42.8303-80.9592 39.5959-80.9592Q36.3126-80.9592 33.9806-78.6447Q31.6487-76.3302 31.6487-73.0742Q31.6487-69.7909 33.9806-67.4764Q36.3126-65.1619 39.5959-65.1619ZM53.1272 9.82627Q54.5839 9.42166 55.2394 8.01372Q55.8948 6.60578 55.3926 5.14841L49.6974-12.2033Q49.4666-12.7538 48.9864-13.4159L39.3377-24.4865L41.3456-46.5155Q41.3944-47.0666 41.8897-47.1535Q42.385-47.2404 42.6565-46.8224L47.3337-39.635Q48.3865-38.0666 50.0177-37.1464L61.7225-30.8653Q63.0682-30.1543 64.5323-30.583Q65.9963-31.0118 66.7561-32.336Q67.4183-33.6818 67.007-35.1455Q66.5957-36.6093 65.2854-37.3557L53.5312-43.6013L45.7659-55.6619Q44.1621-58.0877 41.7987-59.4893Q39.4354-60.8908 36.2283-60.8908L28.5119-60.8908L25.5489-32.336Q25.242-29.5196 25.8974-27.498Q26.5529-25.4765 28.7834-23.1756L42.914-8.98221L48.4353 7.46263Q49.0486 9.22635 50.408 9.7039Q51.7675 10.1815 53.1272 9.82627ZM20.3769-32.336L26.908-32.336Q29.342-32.336 30.9241-33.7177Q32.5061-35.0993 32.5061-37.2033L32.5061-59.8574Q32.5061-61.9607 30.9241-63.3427Q29.342-64.7246 26.908-64.7246L22.2871-64.7246Q19.2517-64.7246 17.3984-62.8536Q15.5451-60.9826 15.5451-57.8983L15.5451-37.2033Q15.5451-35.0586 16.9063-33.6973Q18.2676-32.336 20.3769-32.336ZM10.8318 8.87116Q11.9688 10.0216 13.457 9.99716Q14.9451 9.97275 16.0467 8.87116L29.5292-4.6113Q29.7385-4.80662 29.9338-5.00862Q30.1291-5.21063 30.2402-5.46875L34.125-13.3005L27.6485-19.8612L23.7364-9.17752L10.8318 3.74047Q9.76562 4.84206 9.76562 6.32324Q9.76562 7.80443 10.8318 8.87116ZM63.623-49.8143Q63.0682-49.8143 62.6835-49.4296Q62.2988-49.0449 62.2988-48.4901L62.2988-42.5744L64.9961-41.0897L64.9961-48.4901Q64.9961-49.0449 64.5937-49.4296Q64.1913-49.8143 63.623-49.8143ZM63.623 10.0291Q64.1913 10.0291 64.5937 9.64434Q64.9961 9.25962 64.9961 8.69141L64.9961-27.4451Q63.6585-27.113 62.2988-27.3808L62.2988 8.69141Q62.2988 9.25962 62.6835 9.64434Q63.0682 10.0291 63.623 10.0291Z"/>
  </g>
  <g id="Ultralight-S" transform="matrix(1 0 0 1 521.879 696)">
   <path d="M38.9397-64.5569Q42.0921-64.5569 44.376-66.8201Q46.6599-69.0834 46.6599-72.2847Q46.6599-75.4791 44.376-77.7424Q42.0921-80.0056 38.9397-80.0056Q35.7384-80.0056 33.4526-77.7424Q31.1668-75.4791 31.1668-72.2847Q31.1668-69.0834 33.4526-66.8201Q35.7384-64.5569 38.9397-64.5569ZM52.1736 8.97522Q53.5995 8.58078 54.2397 7.20367Q54.8798 5.82657 54.3877 4.39987L48.8258-12.5725Q48.5847-13.1126 48.1354-13.7543L38.6917-24.5789L40.6586-46.1258Q40.7074-46.6667 41.1976-46.7434Q41.6878-46.8201 41.9388-46.4226L46.5134-39.389Q47.5456-37.8616 49.1257-36.972L60.5843-30.8243Q61.9095-30.1338 63.3377-30.5523Q64.7659-30.9708 65.5052-32.254Q66.1469-33.5793 65.7509-35.0071Q65.3549-36.4349 64.0755-37.1712L52.5673-43.2732L44.9867-55.0774Q43.4135-57.4417 41.1015-58.8177Q38.7894-60.1936 35.6438-60.1936L28.112-60.1936L25.2106-32.254Q24.9138-29.4991 25.5539-27.5288Q26.194-25.5585 28.363-23.2986L42.186-9.42307L47.5945 6.66275Q48.1873 8.38547 49.5159 8.85277Q50.8446 9.32007 52.1736 8.97522ZM19.9257-32.254L26.5388-32.254Q28.9421-32.254 30.4729-33.5331Q32.0038-34.8122 32.0038-36.8034L32.0038-59.3857Q32.0038-61.3762 30.4729-62.6556Q28.9421-63.9351 26.5388-63.9351L21.7949-63.9351Q18.985-63.9351 17.2035-62.1307Q15.4221-60.3264 15.4221-57.4677L15.4221-36.8034Q15.4221-34.8022 16.6962-33.5281Q17.9703-32.254 19.9257-32.254ZM10.8009 8.04062Q11.9278 9.17053 13.3801 9.14612Q14.8323 9.1217 15.9134 8.04062L29.0985-5.1445Q29.2976-5.33981 29.493-5.53665Q29.6883-5.73349 29.789-5.98145L33.6533-13.7619L27.3102-20.1996L23.439-9.61838L10.8009 3.02277Q9.76562 4.10385 9.76562 5.5542Q9.76562 7.00455 10.8009 8.04062ZM62.5977-48.8914Q62.1658-48.8914 61.8683-48.5939Q61.5707-48.2964 61.5707-47.8645L61.5707-41.9182L63.6734-40.741L63.6734-47.8645Q63.6734-48.2964 63.353-48.5939Q63.0325-48.8914 62.5977-48.8914ZM62.5977 9.20868Q63.0325 9.20868 63.353 8.91113Q63.6734 8.61359 63.6734 8.17871L63.6734-27.5887Q62.6434-27.359 61.5707-27.4628L61.5707 8.17871Q61.5707 8.61359 61.8683 8.91113Q62.1658 9.20868 62.5977 9.20868Z"/>
  </g>
 </g>
</svg>
