<?xml version="1.0" encoding="UTF-8"?>
<!--Generator: Apple Native CoreSVG 175-->
<!DOCTYPE svg
PUBLIC "-//W3C//DTD SVG 1.1//EN"
       "http://www.w3.org/Graphics/SVG/1.1/DTD/svg11.dtd">
<svg version="1.1" xmlns="http://www.w3.org/2000/svg" xmlns:xlink="http://www.w3.org/1999/xlink" width="3300" height="2200">
 <!--glyph: "", point size: 100.0, font version: "17.1d1e1", template writer version: "65.1"-->
 <g id="Notes">
  <rect height="2200" id="artboard" style="fill:white;opacity:1" width="3300" x="0" y="0"/>
  <line style="fill:none;stroke:black;opacity:1;stroke-width:0.5;" x1="263" x2="3036" y1="292" y2="292"/>
  <text style="stroke:none;fill:black;font-family:sans-serif;font-size:13;font-weight:bold;" transform="matrix(1 0 0 1 263 322)">Weight/Scale Variations</text>
  <text style="stroke:none;fill:black;font-family:sans-serif;font-size:13;text-anchor:middle;" transform="matrix(1 0 0 1 559.711 322)">Ultralight</text>
  <text style="stroke:none;fill:black;font-family:sans-serif;font-size:13;text-anchor:middle;" transform="matrix(1 0 0 1 856.422 322)">Thin</text>
  <text style="stroke:none;fill:black;font-family:sans-serif;font-size:13;text-anchor:middle;" transform="matrix(1 0 0 1 1153.13 322)">Light</text>
  <text style="stroke:none;fill:black;font-family:sans-serif;font-size:13;text-anchor:middle;" transform="matrix(1 0 0 1 1449.84 322)">Regular</text>
  <text style="stroke:none;fill:black;font-family:sans-serif;font-size:13;text-anchor:middle;" transform="matrix(1 0 0 1 1746.56 322)">Medium</text>
  <text style="stroke:none;fill:black;font-family:sans-serif;font-size:13;text-anchor:middle;" transform="matrix(1 0 0 1 2043.27 322)">Semibold</text>
  <text style="stroke:none;fill:black;font-family:sans-serif;font-size:13;text-anchor:middle;" transform="matrix(1 0 0 1 2339.98 322)">Bold</text>
  <text style="stroke:none;fill:black;font-family:sans-serif;font-size:13;text-anchor:middle;" transform="matrix(1 0 0 1 2636.69 322)">Heavy</text>
  <text style="stroke:none;fill:black;font-family:sans-serif;font-size:13;text-anchor:middle;" transform="matrix(1 0 0 1 2933.4 322)">Black</text>
  <line style="fill:none;stroke:black;opacity:1;stroke-width:0.5;" x1="263" x2="3036" y1="1903" y2="1903"/>
  <g transform="matrix(1 0 0 1 263 1933)">
   <path d="M9.24805 0.830078Q10.8691 0.830078 12.2949 0.214844Q13.7207-0.400391 14.8096-1.49414Q15.8984-2.58789 16.5186-4.01367Q17.1387-5.43945 17.1387-7.05078Q17.1387-8.66211 16.5186-10.0879Q15.8984-11.5137 14.8047-12.6074Q13.7109-13.7012 12.2852-14.3164Q10.8594-14.9316 9.23828-14.9316Q7.62695-14.9316 6.20117-14.3164Q4.77539-13.7012 3.69141-12.6074Q2.60742-11.5137 1.9873-10.0879Q1.36719-8.66211 1.36719-7.05078Q1.36719-5.43945 1.9873-4.01367Q2.60742-2.58789 3.69629-1.49414Q4.78516-0.400391 6.21094 0.214844Q7.63672 0.830078 9.24805 0.830078ZM9.24805-0.654297Q7.91992-0.654297 6.7627-1.14746Q5.60547-1.64062 4.73145-2.51953Q3.85742-3.39844 3.36426-4.56055Q2.87109-5.72266 2.87109-7.05078Q2.87109-8.37891 3.35938-9.54102Q3.84766-10.7031 4.72168-11.582Q5.5957-12.4609 6.75293-12.9541Q7.91016-13.4473 9.23828-13.4473Q10.5762-13.4473 11.7334-12.9541Q12.8906-12.4609 13.7695-11.582Q14.6484-10.7031 15.1465-9.54102Q15.6445-8.37891 15.6445-7.05078Q15.6445-5.72266 15.1514-4.56055Q14.6582-3.39844 13.7842-2.51953Q12.9102-1.64062 11.748-1.14746Q10.5859-0.654297 9.24805-0.654297ZM5.6543-7.05078Q5.6543-6.72852 5.85938-6.52832Q6.06445-6.32812 6.40625-6.32812L8.51562-6.32812L8.51562-4.20898Q8.51562-3.88672 8.71094-3.67676Q8.90625-3.4668 9.23828-3.4668Q9.56055-3.4668 9.77051-3.67676Q9.98047-3.88672 9.98047-4.20898L9.98047-6.32812L12.0898-6.32812Q12.4219-6.32812 12.627-6.52832Q12.832-6.72852 12.832-7.05078Q12.832-7.38281 12.627-7.58789Q12.4219-7.79297 12.0898-7.79297L9.98047-7.79297L9.98047-9.90234Q9.98047-10.2344 9.77051-10.4443Q9.56055-10.6543 9.23828-10.6543Q8.90625-10.6543 8.71094-10.4443Q8.51562-10.2344 8.51562-9.90234L8.51562-7.79297L6.40625-7.79297Q6.06445-7.79297 5.85938-7.58789Q5.6543-7.38281 5.6543-7.05078Z"/>
  </g>
  <g transform="matrix(1 0 0 1 281.867 1933)">
   <path d="M11.709 2.91016Q13.75 2.91016 15.5518 2.12891Q17.3535 1.34766 18.7305-0.0292969Q20.1074-1.40625 20.8887-3.20801Q21.6699-5.00977 21.6699-7.05078Q21.6699-9.0918 20.8887-10.8936Q20.1074-12.6953 18.7305-14.0723Q17.3535-15.4492 15.5469-16.2305Q13.7402-17.0117 11.6992-17.0117Q9.6582-17.0117 7.85645-16.2305Q6.05469-15.4492 4.68262-14.0723Q3.31055-12.6953 2.5293-10.8936Q1.74805-9.0918 1.74805-7.05078Q1.74805-5.00977 2.5293-3.20801Q3.31055-1.40625 4.6875-0.0292969Q6.06445 1.34766 7.86621 2.12891Q9.66797 2.91016 11.709 2.91016ZM11.709 1.25Q9.98047 1.25 8.47656 0.605469Q6.97266-0.0390625 5.83496-1.17676Q4.69727-2.31445 4.05762-3.81836Q3.41797-5.32227 3.41797-7.05078Q3.41797-8.7793 4.05762-10.2832Q4.69727-11.7871 5.83008-12.9297Q6.96289-14.0723 8.4668-14.7119Q9.9707-15.3516 11.6992-15.3516Q13.4277-15.3516 14.9316-14.7119Q16.4355-14.0723 17.5781-12.9297Q18.7207-11.7871 19.3652-10.2832Q20.0098-8.7793 20.0098-7.05078Q20.0098-5.32227 19.3701-3.81836Q18.7305-2.31445 17.5928-1.17676Q16.4551-0.0390625 14.9463 0.605469Q13.4375 1.25 11.709 1.25ZM7.17773-7.05078Q7.17773-6.69922 7.41211-6.47461Q7.64648-6.25 8.01758-6.25L10.8887-6.25L10.8887-3.36914Q10.8887-2.99805 11.1133-2.76855Q11.3379-2.53906 11.6895-2.53906Q12.0605-2.53906 12.29-2.76855Q12.5195-2.99805 12.5195-3.36914L12.5195-6.25L15.4004-6.25Q15.7715-6.25 16.001-6.47461Q16.2305-6.69922 16.2305-7.05078Q16.2305-7.42188 16.001-7.65137Q15.7715-7.88086 15.4004-7.88086L12.5195-7.88086L12.5195-10.752Q12.5195-11.1328 12.29-11.3623Q12.0605-11.5918 11.6895-11.5918Q11.3379-11.5918 11.1133-11.3574Q10.8887-11.123 10.8887-10.752L10.8887-7.88086L8.01758-7.88086Q7.63672-7.88086 7.40723-7.65137Q7.17773-7.42188 7.17773-7.05078Z"/>
  </g>
  <g transform="matrix(1 0 0 1 305.646 1933)">
   <path d="M14.9707 5.66406Q17.0605 5.66406 18.96 5.01465Q20.8594 4.36523 22.4512 3.19336Q24.043 2.02148 25.2197 0.429688Q26.3965-1.16211 27.0459-3.06641Q27.6953-4.9707 27.6953-7.05078Q27.6953-9.14062 27.0459-11.04Q26.3965-12.9395 25.2197-14.5312Q24.043-16.123 22.4512-17.2998Q20.8594-18.4766 18.9551-19.126Q17.0508-19.7754 14.9609-19.7754Q12.8711-19.7754 10.9717-19.126Q9.07227-18.4766 7.48535-17.2998Q5.89844-16.123 4.72168-14.5312Q3.54492-12.9395 2.90039-11.04Q2.25586-9.14062 2.25586-7.05078Q2.25586-4.9707 2.90527-3.06641Q3.55469-1.16211 4.72656 0.429688Q5.89844 2.02148 7.49023 3.19336Q9.08203 4.36523 10.9814 5.01465Q12.8809 5.66406 14.9707 5.66406ZM14.9707 3.84766Q13.1641 3.84766 11.5283 3.2959Q9.89258 2.74414 8.53516 1.74805Q7.17773 0.751953 6.17676-0.610352Q5.17578-1.97266 4.62891-3.6084Q4.08203-5.24414 4.08203-7.05078Q4.08203-8.86719 4.62891-10.5029Q5.17578-12.1387 6.17188-13.501Q7.16797-14.8633 8.52539-15.8594Q9.88281-16.8555 11.5186-17.4023Q13.1543-17.9492 14.9609-17.9492Q16.7773-17.9492 18.4131-17.4023Q20.0488-16.8555 21.4111-15.8594Q22.7734-14.8633 23.7695-13.501Q24.7656-12.1387 25.3174-10.5029Q25.8691-8.86719 25.8691-7.05078Q25.8789-5.24414 25.332-3.6084Q24.7852-1.97266 23.7842-0.610352Q22.7832 0.751953 21.4209 1.74805Q20.0586 2.74414 18.4229 3.2959Q16.7871 3.84766 14.9707 3.84766ZM9.19922-7.05078Q9.19922-6.66992 9.45801-6.4209Q9.7168-6.17188 10.1172-6.17188L14.0625-6.17188L14.0625-2.2168Q14.0625-1.81641 14.3115-1.55762Q14.5605-1.29883 14.9512-1.29883Q15.3516-1.29883 15.6104-1.55273Q15.8691-1.80664 15.8691-2.2168L15.8691-6.17188L19.8242-6.17188Q20.2246-6.17188 20.4785-6.4209Q20.7324-6.66992 20.7324-7.05078Q20.7324-7.46094 20.4785-7.71484Q20.2246-7.96875 19.8242-7.96875L15.8691-7.96875L15.8691-11.9141Q15.8691-12.3242 15.6104-12.583Q15.3516-12.8418 14.9512-12.8418Q14.5605-12.8418 14.3115-12.583Q14.0625-12.3242 14.0625-11.9141L14.0625-7.96875L10.1172-7.96875Q9.70703-7.96875 9.45312-7.71484Q9.19922-7.46094 9.19922-7.05078Z"/>
  </g>
  <text style="stroke:none;fill:black;font-family:sans-serif;font-size:13;font-weight:bold;" transform="matrix(1 0 0 1 263 1953)">Design Variations</text>
  <text style="stroke:none;fill:black;font-family:sans-serif;font-size:13;" transform="matrix(1 0 0 1 263 1971)">Symbols are supported in up to nine weights and three scales.</text>
  <text style="stroke:none;fill:black;font-family:sans-serif;font-size:13;" transform="matrix(1 0 0 1 263 1989)">For optimal layout with text and other symbols, vertically align</text>
  <text style="stroke:none;fill:black;font-family:sans-serif;font-size:13;" transform="matrix(1 0 0 1 263 2007)">symbols with the adjacent text.</text>
  <line style="fill:none;stroke:#00AEEF;stroke-width:0.5;opacity:1.0;" x1="776" x2="776" y1="1919" y2="1933"/>
  <g transform="matrix(1 0 0 1 776 1933)">
   <path d="M3.31055 0.15625Q3.70117 0.15625 3.91602-0.00976562Q4.13086-0.175781 4.26758-0.585938L5.52734-4.0332L11.2891-4.0332L12.5488-0.585938Q12.6855-0.175781 12.9004-0.00976562Q13.1152 0.15625 13.4961 0.15625Q13.8867 0.15625 14.1162-0.0585938Q14.3457-0.273438 14.3457-0.644531Q14.3457-0.869141 14.2383-1.17188L9.6582-13.3691Q9.48242-13.8184 9.17969-14.043Q8.87695-14.2676 8.4082-14.2676Q7.5-14.2676 7.17773-13.3789L2.59766-1.16211Q2.49023-0.859375 2.49023-0.634766Q2.49023-0.263672 2.70996-0.0537109Q2.92969 0.15625 3.31055 0.15625ZM6.00586-5.51758L8.37891-12.0898L8.42773-12.0898L10.8008-5.51758Z"/>
  </g>
  <line style="fill:none;stroke:#00AEEF;stroke-width:0.5;opacity:1.0;" x1="793.197" x2="793.197" y1="1919" y2="1933"/>
  <text style="stroke:none;fill:black;font-family:sans-serif;font-size:13;font-weight:bold;" transform="matrix(1 0 0 1 776 1953)">Margins</text>
  <text style="stroke:none;fill:black;font-family:sans-serif;font-size:13;" transform="matrix(1 0 0 1 776 1971)">Leading and trailing margins on the left and right side of each symbol</text>
  <text style="stroke:none;fill:black;font-family:sans-serif;font-size:13;" transform="matrix(1 0 0 1 776 1989)">can be adjusted by modifying the x-location of the margin guidelines.</text>
  <text style="stroke:none;fill:black;font-family:sans-serif;font-size:13;" transform="matrix(1 0 0 1 776 2007)">Modifications are automatically applied proportionally to all</text>
  <text style="stroke:none;fill:black;font-family:sans-serif;font-size:13;" transform="matrix(1 0 0 1 776 2025)">scales and weights.</text>
  <g transform="matrix(1 0 0 1 1289 1933)">
   <path d="M2.8418 1.86523L4.54102 3.57422Q5.18555 4.22852 5.90332 4.17969Q6.62109 4.13086 7.31445 3.35938L18.0078-8.42773L17.041-9.4043L6.42578 2.27539Q6.16211 2.57812 5.89355 2.61719Q5.625 2.65625 5.27344 2.30469L4.10156 1.14258Q3.75 0.791016 3.79395 0.522461Q3.83789 0.253906 4.14062-0.0195312L15.6152-10.8203L14.6387-11.7871L3.04688-0.898438Q2.30469-0.214844 2.25098 0.498047Q2.19727 1.21094 2.8418 1.86523ZM9.25781-16.3281Q8.94531-16.0254 8.90625-15.6348Q8.86719-15.2441 9.04297-14.9512Q9.21875-14.6777 9.55566-14.541Q9.89258-14.4043 10.3809-14.5215Q11.4746-14.7754 12.5977-14.7314Q13.7207-14.6875 14.7949-13.9844L14.209-12.5293Q13.9551-11.9043 14.0674-11.4404Q14.1797-10.9766 14.5801-10.5664L16.875-8.25195Q17.2363-7.88086 17.5781-7.82227Q17.9199-7.76367 18.3398-7.8418L19.4043-8.03711L20.0684-7.36328L20.0293-6.80664Q20-6.43555 20.1221-6.12305Q20.2441-5.81055 20.6055-5.44922L21.3672-4.70703Q21.7285-4.3457 22.1533-4.33105Q22.5781-4.31641 22.9297-4.66797L25.8398-7.58789Q26.1914-7.93945 26.1816-8.35449Q26.1719-8.76953 25.8105-9.13086L25.0391-9.89258Q24.6875-10.2539 24.3799-10.3857Q24.0723-10.5176 23.7109-10.4883L23.1348-10.4395L22.4902-11.0742L22.7344-12.1973Q22.832-12.6172 22.6953-12.9834Q22.5586-13.3496 22.1191-13.7891L19.9219-15.9766Q18.6719-17.2168 17.2607-17.8369Q15.8496-18.457 14.4189-18.4814Q12.9883-18.5059 11.665-17.959Q10.3418-17.4121 9.25781-16.3281ZM10.752-15.957Q11.6602-16.6211 12.7002-16.9043Q13.7402-17.1875 14.8047-17.085Q15.8691-16.9824 16.8701-16.5137Q17.8711-16.0449 18.7012-15.2051L21.1328-12.793Q21.3086-12.6172 21.3525-12.4512Q21.3965-12.2852 21.3379-12.0312L21.0156-10.5469L22.5195-9.0625L23.5059-9.12109Q23.6914-9.13086 23.7891-9.09668Q23.8867-9.0625 24.0332-8.91602L24.6094-8.33984L22.168-5.89844L21.5918-6.47461Q21.4453-6.62109 21.4062-6.71875Q21.3672-6.81641 21.377-7.01172L21.4453-7.98828L19.9512-9.47266L18.4277-9.21875Q18.1836-9.16992 18.042-9.2041Q17.9004-9.23828 17.7148-9.41406L15.7129-11.416Q15.5176-11.5918 15.4932-11.7529Q15.4688-11.9141 15.5859-12.1875L16.4648-14.2773Q15.293-15.3711 13.8281-15.791Q12.3633-16.2109 10.8398-15.7617Q10.7227-15.7324 10.6885-15.8057Q10.6543-15.8789 10.752-15.957Z"/>
  </g>
  <text style="stroke:none;fill:black;font-family:sans-serif;font-size:13;font-weight:bold;" transform="matrix(1 0 0 1 1289 1953)">Exporting</text>
  <text style="stroke:none;fill:black;font-family:sans-serif;font-size:13;" transform="matrix(1 0 0 1 1289 1971)">Symbols should be outlined when exporting to ensure the</text>
  <text style="stroke:none;fill:black;font-family:sans-serif;font-size:13;" transform="matrix(1 0 0 1 1289 1989)">design is preserved when submitting to Xcode.</text>
  <text id="template-version" style="stroke:none;fill:black;font-family:sans-serif;font-size:13;text-anchor:end;" transform="matrix(1 0 0 1 3036 1933)">Template v.3.0</text>
  <text style="stroke:none;fill:black;font-family:sans-serif;font-size:13;text-anchor:end;" transform="matrix(1 0 0 1 3036 1951)">Requires Xcode 13 or greater</text>
  <text id="descriptive-name" style="stroke:none;fill:black;font-family:sans-serif;font-size:13;text-anchor:end;" transform="matrix(1 0 0 1 3036 1969)">Generated from custom.shower</text>
  <text style="stroke:none;fill:black;font-family:sans-serif;font-size:13;text-anchor:end;" transform="matrix(1 0 0 1 3036 1987)">Typeset at 100 points</text>
  <text style="stroke:none;fill:black;font-family:sans-serif;font-size:13;" transform="matrix(1 0 0 1 263 726)">Small</text>
  <text style="stroke:none;fill:black;font-family:sans-serif;font-size:13;" transform="matrix(1 0 0 1 263 1156)">Medium</text>
  <text style="stroke:none;fill:black;font-family:sans-serif;font-size:13;" transform="matrix(1 0 0 1 263 1586)">Large</text>
 </g>
 <g id="Guides">
  <g id="H-reference" style="fill:#27AAE1;stroke:none;" transform="matrix(1 0 0 1 339 696)">
   <path d="M0.993347 0L3.6377 0L29.3282-67.1326L30.0301-67.1326L30.0301-70.459L28.1227-70.459ZM11.6882-24.4797L46.9818-24.4797L46.2311-26.7288L12.4382-26.7288ZM55.1193 0L57.7637 0L30.6381-70.459L29.4327-70.459L29.4327-67.1326Z"/>
  </g>
  <line id="Baseline-S" style="fill:none;stroke:#27AAE1;opacity:1;stroke-width:0.5;" x1="263" x2="3036" y1="696" y2="696"/>
  <line id="Capline-S" style="fill:none;stroke:#27AAE1;opacity:1;stroke-width:0.5;" x1="263" x2="3036" y1="625.541" y2="625.541"/>
  <g id="H-reference" style="fill:#27AAE1;stroke:none;" transform="matrix(1 0 0 1 339 1126)">
   <path d="M0.993347 0L3.6377 0L29.3282-67.1326L30.0301-67.1326L30.0301-70.459L28.1227-70.459ZM11.6882-24.4797L46.9818-24.4797L46.2311-26.7288L12.4382-26.7288ZM55.1193 0L57.7637 0L30.6381-70.459L29.4327-70.459L29.4327-67.1326Z"/>
  </g>
  <line id="Baseline-M" style="fill:none;stroke:#27AAE1;opacity:1;stroke-width:0.5;" x1="263" x2="3036" y1="1126" y2="1126"/>
  <line id="Capline-M" style="fill:none;stroke:#27AAE1;opacity:1;stroke-width:0.5;" x1="263" x2="3036" y1="1055.54" y2="1055.54"/>
  <g id="H-reference" style="fill:#27AAE1;stroke:none;" transform="matrix(1 0 0 1 339 1556)">
   <path d="M0.993347 0L3.6377 0L29.3282-67.1326L30.0301-67.1326L30.0301-70.459L28.1227-70.459ZM11.6882-24.4797L46.9818-24.4797L46.2311-26.7288L12.4382-26.7288ZM55.1193 0L57.7637 0L30.6381-70.459L29.4327-70.459L29.4327-67.1326Z"/>
  </g>
  <line id="Baseline-L" style="fill:none;stroke:#27AAE1;opacity:1;stroke-width:0.5;" x1="263" x2="3036" y1="1556" y2="1556"/>
  <line id="Capline-L" style="fill:none;stroke:#27AAE1;opacity:1;stroke-width:0.5;" x1="263" x2="3036" y1="1485.54" y2="1485.54"/>
  <line id="left-margin-Regular-M" style="fill:none;stroke:#00AEEF;stroke-width:0.5;opacity:1.0;" x1="1386.07" x2="1386.07" y1="1030.78" y2="1150.12"/>
  <line id="right-margin-Regular-M" style="fill:none;stroke:#FF3B30;stroke-width:0.5;opacity:1.0;" x1="1513.62" x2="1513.62" y1="1030.78" y2="1150.12"/>
 </g>
 <g id="Symbols">
  <g id="Regular-L" transform="matrix(1 0 0 1 1369.57 1556)">
   <path d="M54.1458-107C66.6475-107 78.1791-100.885 85.2428-90.9412C85.2134-90.9265 85.1869-90.9088 85.1575-90.8941C75.4376-85.3935 72.7608-83.9181 71.3038-82.9948L71.1817-82.9169C71.142-82.8914 71.1031-82.8662 71.0649-82.8413L70.9523-82.7674C70.9339-82.7552 70.9156-82.743 70.8974-82.7309L70.7899-82.6587C70.6128-82.5389 70.4453-82.4212 70.2705-82.2956L70.1646-82.2191C70.1289-82.1933 70.0927-82.167 70.0561-82.1403L69.9442-82.0586C69.9062-82.0308 69.8675-82.0025 69.828-81.9735C66.0067-86.5059 60.3834-89.3118 54.2869-89.3529C42.914-89.4294 33.637-80.1941 33.637-68.8324L33.637-68.8324L33.637 41.5294C33.637 42.3412 32.9785 43 32.1672 43L32.1672 43L17.4697 43C16.6584 43 16 42.3412 16 41.5294L16 41.5294L16-68.8324C16-89.8765 33.1137-107 54.1458-107ZM98.7882 9.70029C101.198 9.34971 103.436 11.0188 103.787 13.4297L103.787 13.4297L104.405 17.6674C104.756 20.0785 103.087 22.3179 100.677 22.6694C98.2706 23.0206 96.0301 21.3538 95.6783 18.94L95.6783 18.94L95.061 14.7024C94.7097 12.2912 96.3784 10.0518 98.7882 9.70029ZM117.396-1.04412C119.654-1.95706 122.224-0.866176 123.137 1.39294L123.137 1.39294L124.646 5.12941C125.559 7.38823 124.468 9.96 122.21 10.8729C119.954 11.7856 117.383 10.6959 116.47 8.43588L116.47 8.43588L114.961 4.69941C114.048 2.44059 115.139-0.131176 117.396-1.04412ZM136.044-11.5159C137.999-12.9685 140.761-12.5603 142.213-10.6041L142.213-10.6041L144.614-7.36853C146.066-5.41235 145.658-2.64912 143.703-1.19647C141.748 0.255882 138.986-0.151765 137.534-2.10823L137.534-2.10823L135.133-5.34382C133.681-7.3 134.089-10.0632 136.044-11.5159ZM96.8276-16.3791C99.2298-16.7794 101.502-15.1562 101.902-12.7529L101.902-12.7529L102.583-8.66647C102.983-6.26323 101.361-3.99 98.959-3.58912C96.5566-3.18853 94.2849-4.81206 93.8846-7.21529L93.8846-7.21529L93.2035-11.3018C92.8031-13.705 94.4257-15.9782 96.8276-16.3791ZM154.904-21.8115C156.459-23.6862 159.239-23.945 161.113-22.3888L161.113-22.3888L164.407-19.6541C166.28-18.0979 166.539-15.3168 164.984-13.4415C163.429-11.5668 160.649-11.3079 158.775-12.8641L158.775-12.8641L155.481-15.5988C153.607-17.155 153.349-19.9365 154.904-21.8115ZM115.1-26.94C117.223-28.1329 119.911-27.3771 121.103-25.2521L121.103-25.2521L123.009-21.8535C124.201-19.7288 123.446-17.0394 121.322-15.8471C119.201-14.6559 116.512-15.4082 115.319-17.535L115.319-17.535L113.413-20.9335C112.221-23.0582 112.976-25.7476 115.1-26.94ZM129.3-68.0294C131.417-69.2282 134.145-68.4885 135.349-66.3471L135.349-66.3471L137.295-62.9059C138.924-60.0259 137.906-56.3838 135.035-54.7559L135.035-54.7559L78.1204-22.5471C75.2432-20.9221 71.6011-21.9326 69.975-24.8088L69.975-24.8088L68.0291-28.2529C66.8165-30.4021 67.5964-33.115 69.7075-34.3059C70.2884-34.6349 83.9961-42.3929 98.1268-50.3898L100.724-51.8597C114.57-59.6957 128.076-67.3385 129.3-68.0294ZM133.628-37.045C135.222-38.8874 138.006-39.0888 139.848-37.495L139.848-37.495L142.979-34.7844C144.821-33.1903 145.022-30.4041 143.429-28.5615C141.836-26.7191 139.052-26.5174 137.21-28.1115L137.21-28.1115L134.078-30.8221C132.236-32.4162 132.035-35.2024 133.628-37.045ZM89.4991-83.2147C99.7195-88.9956 112.578-85.3474 118.3-75.2176L118.3-75.2176L119.702-72.7353L70.6099-44.95L69.2049-47.4353C63.9587-56.7071 66.5481-67.9518 74.1932-74.2C74.4259-74.3908 74.6326-74.5577 74.8429-74.7186L75.0017-74.8385L75.0017-74.8385L75.1096-74.9181C76.5287-75.9528 78.618-77.0583 89.4991-83.2147Z"/>
  </g>
  <g id="Regular-M" transform="matrix(1 0 0 1 1386.07 1126)">
   <path d="M45.7537-92C55.5051-92 64.4997-87.2305 70.0093-79.4741C69.9864-79.4626 69.9658-79.4489 69.9429-79.4374C61.5888-74.7097 59.905-73.7942 58.8144-73.0664L58.7167-73.0006C58.6846-72.9788 58.6528-72.9571 58.6213-72.9353L58.4331-72.8035C58.2918-72.7032 58.1479-72.5982 57.9859-72.4794C55.0052-76.0146 50.6191-78.2032 45.8638-78.2353C36.9929-78.2949 29.7568-71.0914 29.7568-62.2292L29.7568-62.2292L29.7568 23.8529C29.7568 24.4861 29.2432 25 28.6104 25L28.6104 25L17.1464 25C16.5136 25 16 24.4861 16 23.8529L16 23.8529L16-62.2292C16-78.6436 29.3487-92 45.7537-92ZM80.5748-0.973771C82.4547-1.24723 84.2002 0.0546824 84.4742 1.93517L84.4742 1.93517L84.9557 5.24054C85.2297 7.12125 83.9281 8.86799 82.0484 9.14214C80.1711 9.41606 78.4235 8.11598 78.149 6.2332L78.149 6.2332L77.6675 2.92784C77.3936 1.04712 78.6952-0.699623 80.5748-0.973771ZM95.0892-9.35441C96.8501-10.0665 98.8547-9.21562 99.5666-7.45351L99.5666-7.45351L100.744-4.53906C101.456-2.77718 100.605-0.7712 98.8441-0.0591059C97.0839 0.652759 95.0789-0.197212 94.3667-1.96001L94.3667-1.96001L93.1894-4.87446C92.4777-6.63634 93.3281-8.64232 95.0892-9.35441ZM109.635-17.5224C111.159-18.6555 113.314-18.337 114.446-16.8112L114.446-16.8112L116.319-14.2875C117.451-12.7616 117.133-10.6063 115.608-9.47325C114.084-8.34041 111.929-8.65838 110.797-10.1844L110.797-10.1844L108.924-12.7082C107.791-14.234 108.11-16.3893 109.635-17.5224ZM79.0455-21.3157C80.9192-21.6279 82.6913-20.3618 83.0036-18.4873L83.0036-18.4873L83.5348-15.2998C83.8471-13.4253 82.5815-11.6522 80.708-11.3395C78.8341-11.0271 77.0622-12.2934 76.75-14.1679L76.75-14.1679L76.2187-17.3554C75.9064-19.2299 77.1721-21.003 79.0455-21.3157ZM124.345-25.5529C125.558-27.0152 127.727-27.2171 129.188-26.0033L129.188-26.0033L131.757-23.8702C133.219-22.6564 133.42-20.4871 132.207-19.0243C130.994-17.5621 128.826-17.3602 127.364-18.574L127.364-18.574L124.795-20.7071C123.334-21.9209 123.132-24.0904 124.345-25.5529ZM93.2978-29.5532C94.9542-30.4837 97.0505-29.8941 97.9802-28.2366L97.9802-28.2366L99.4671-25.5858C100.397-23.9285 99.8076-21.8307 98.1513-20.9007C96.497-19.9716 94.3993-20.5584 93.4689-22.2173L93.4689-22.2173L91.982-24.8682C91.0523-26.5254 91.6415-28.6232 93.2978-29.5532ZM104.374-61.6029C106.025-62.538 108.153-61.9611 109.093-60.2907L109.093-60.2907L110.61-57.6066C111.88-55.3602 111.087-52.5194 108.847-51.2496L108.847-51.2496L64.4539-26.1267C62.2097-24.8592 59.3689-25.6475 58.1005-27.8909L58.1005-27.8909L56.5827-30.5773C55.6369-32.2536 56.2452-34.3697 57.8919-35.2986C58.3542-35.5605 69.4776-41.8559 80.734-48.2261L82.7593-49.3723C93.3197-55.3487 103.439-61.0753 104.374-61.6029ZM107.75-37.4351C108.993-38.8721 111.165-39.0293 112.601-37.7861L112.601-37.7861L115.044-35.6718C116.48-34.4284 116.637-32.2552 115.395-30.8179C114.152-29.3809 111.98-29.2235 110.543-30.4669L110.543-30.4669L108.101-32.5812C106.664-33.8246 106.507-35.9978 107.75-37.4351ZM73.3293-73.4475C81.3012-77.9566 91.3311-75.1109 95.7942-67.2098L95.7942-67.2098L96.8879-65.2735L58.5958-43.601L57.4998-45.5395C53.4078-52.7715 55.4276-61.5424 61.3907-66.416C61.5326-66.5324 61.6621-66.6373 61.7903-66.7376L61.9828-66.8853C63.0998-67.724 64.5236-68.4653 73.3293-73.4475Z"/>
  </g>
  <g id="Regular-S" transform="matrix(1 0 0 1 1400.07 696)">
   <path d="M38.6332-75C46.0509-75 52.893-71.3719 57.084-65.4718C57.0666-65.463 57.0509-65.4526 57.0335-65.4438C49.6472-61.2639 49.1157-61.0015 48.1802-60.3274L48.0866-60.2596C48.0389-60.2249 47.9896-60.1889 47.938-60.151C45.6706-62.8402 42.3342-64.505 38.7169-64.5294C31.969-64.5748 26.4646-59.0952 26.4646-52.3539L26.4646-52.3539L26.4646 13.1275C26.4646 13.6091 26.0739 14 25.5926 14L25.5926 14L16.8721 14C16.3907 14 16 13.6091 16 13.1275L16 13.1275L16-52.3539C16-64.84 26.1542-75 38.6332-75ZM65.121-5.75783C66.551-5.96584 67.8788-4.9755 68.0872-3.54504L68.0872-3.54504L68.4535-1.0307C68.6619 0.399927 67.6718 1.72865 66.242 1.93718C64.8139 2.14555 63.4845 1.1566 63.2758-0.2756L63.2758-0.2756L62.9095-2.78994C62.7011-4.22057 63.6912-5.54929 65.121-5.75783ZM76.1619-12.1328C77.5013-12.6745 79.0262-12.0273 79.5678-10.6869L79.5678-10.6869L80.4634-8.46988C81.0047-7.12965 80.3578-5.60373 79.0182-5.06205C77.6792-4.52055 76.154-5.16711 75.6123-6.50804L75.6123-6.50804L74.7167-8.72502C74.1753-10.0653 74.8222-11.5912 76.1619-12.1328ZM87.2263-18.3461C88.3863-19.208 90.0249-18.9658 90.8863-17.8051L90.8863-17.8051L92.311-15.8853C93.1724-14.7247 92.9304-13.0851 91.7704-12.2232C90.6107-11.3615 88.9718-11.6034 88.1104-12.7642L88.1104-12.7642L86.6856-14.684C85.8242-15.8447 86.0663-17.4842 87.2263-18.3461ZM63.9577-21.2316C65.383-21.4691 66.731-20.506 66.9685-19.0801L66.9685-19.0801L67.3727-16.6554C67.6102-15.2295 66.6475-13.8807 65.2224-13.6429C63.7969-13.4052 62.4491-14.3685 62.2115-15.7944L62.2115-15.7944L61.8074-18.219C61.5699-19.645 62.5326-20.9938 63.9577-21.2316ZM98.4164-24.4548C99.3392-25.5671 100.989-25.7207 102.1-24.7974L102.1-24.7974L104.055-23.1748C105.166-22.2514 105.32-20.6013 104.397-19.4886C103.474-18.3763 101.825-18.2227 100.713-19.146L100.713-19.146L98.7588-20.7686C97.6471-21.692 97.4936-23.3423 98.4164-24.4548ZM74.7992-27.4977C76.0591-28.2055 77.6538-27.7571 78.361-26.4962L78.361-26.4962L79.4921-24.4798C80.1993-23.2191 79.7511-21.6234 78.4911-20.9159C77.2328-20.2092 75.6371-20.6556 74.9293-21.9174L74.9293-21.9174L73.7983-23.9339C73.091-25.1946 73.5393-26.7903 74.7992-27.4977ZM83.2246-51.8775C84.4807-52.5888 86.0992-52.1499 86.814-50.8793L86.814-50.8793L87.9686-48.8375C88.9346-47.1287 88.331-44.9677 86.6274-44.0018L86.6274-44.0018L52.8581-24.8913C51.151-23.9271 48.99-24.5267 48.0252-26.2332L48.0252-26.2332L46.8706-28.2767C46.1511-29.5519 46.6138-31.1616 47.8665-31.8682C48.5699-32.2666 81.7121-51.0234 83.2246-51.8775ZM85.7928-33.4934C86.7383-34.5865 88.3901-34.706 89.483-33.7604L89.483-33.7604L91.341-32.1521C92.4336-31.2062 92.5531-29.5531 91.6078-28.4598C90.6625-27.3667 89.0107-27.247 87.9176-28.1928L87.9176-28.1928L86.0596-29.8011C84.967-30.7469 84.8475-32.4001 85.7928-33.4934ZM59.6095-60.8874C65.6736-64.3174 73.3031-62.1528 76.6982-56.1425L76.6982-56.1425L77.5301-54.6696L48.4019-38.1837L47.5682-39.6583C44.4555-45.1595 45.9919-51.8314 50.528-55.5387C50.5616-55.5662 50.5943-55.593 50.6264-55.619L50.7208-55.6953C50.8293-55.7821 50.9327-55.8625 51.042-55.9429L51.1374-56.0121C51.9807-56.6143 53.3189-57.3282 59.6095-60.8874Z"/>
  </g>
 </g>
</svg>
