<?xml version="1.0" encoding="UTF-8"?>
<!--Generator: Apple Native CoreSVG 175.5-->
<!DOCTYPE svg
PUBLIC "-//W3C//DTD SVG 1.1//EN"
       "http://www.w3.org/Graphics/SVG/1.1/DTD/svg11.dtd">
<svg version="1.1" xmlns="http://www.w3.org/2000/svg" xmlns:xlink="http://www.w3.org/1999/xlink" width="3300" height="2200">
 <!--glyph: "uni101403.medium", point size: 100.0, font version: "18.0d9e1", template writer version: "84"-->
 <g id="Notes">
  <rect height="2200" id="artboard" style="fill:white;opacity:1" width="3300" x="0" y="0"/>
  <line style="fill:none;stroke:black;opacity:1;stroke-width:0.5;" x1="263" x2="3036" y1="292" y2="292"/>
  <text style="stroke:none;fill:black;font-family:sans-serif;font-size:13;font-weight:bold;" transform="matrix(1 0 0 1 263 322)">Weight/Scale Variations</text>
  <text style="stroke:none;fill:black;font-family:sans-serif;font-size:13;text-anchor:middle;" transform="matrix(1 0 0 1 559.711 322)">Ultralight</text>
  <text style="stroke:none;fill:black;font-family:sans-serif;font-size:13;text-anchor:middle;" transform="matrix(1 0 0 1 856.422 322)">Thin</text>
  <text style="stroke:none;fill:black;font-family:sans-serif;font-size:13;text-anchor:middle;" transform="matrix(1 0 0 1 1153.13 322)">Light</text>
  <text style="stroke:none;fill:black;font-family:sans-serif;font-size:13;text-anchor:middle;" transform="matrix(1 0 0 1 1449.84 322)">Regular</text>
  <text style="stroke:none;fill:black;font-family:sans-serif;font-size:13;text-anchor:middle;" transform="matrix(1 0 0 1 1746.56 322)">Medium</text>
  <text style="stroke:none;fill:black;font-family:sans-serif;font-size:13;text-anchor:middle;" transform="matrix(1 0 0 1 2043.27 322)">Semibold</text>
  <text style="stroke:none;fill:black;font-family:sans-serif;font-size:13;text-anchor:middle;" transform="matrix(1 0 0 1 2339.98 322)">Bold</text>
  <text style="stroke:none;fill:black;font-family:sans-serif;font-size:13;text-anchor:middle;" transform="matrix(1 0 0 1 2636.69 322)">Heavy</text>
  <text style="stroke:none;fill:black;font-family:sans-serif;font-size:13;text-anchor:middle;" transform="matrix(1 0 0 1 2933.4 322)">Black</text>
  <line style="fill:none;stroke:black;opacity:1;stroke-width:0.5;" x1="263" x2="3036" y1="1903" y2="1903"/>
  <g transform="matrix(1 0 0 1 263 1933)">
   <path d="M9.24805 0.830078Q10.8691 0.830078 12.2949 0.214844Q13.7207-0.400391 14.8096-1.49414Q15.8984-2.58789 16.5186-4.01367Q17.1387-5.43945 17.1387-7.05078Q17.1387-8.66211 16.5186-10.0879Q15.8984-11.5137 14.8047-12.6074Q13.7109-13.7012 12.2852-14.3164Q10.8594-14.9316 9.23828-14.9316Q7.62695-14.9316 6.20117-14.3164Q4.77539-13.7012 3.69141-12.6074Q2.60742-11.5137 1.9873-10.0879Q1.36719-8.66211 1.36719-7.05078Q1.36719-5.43945 1.9873-4.01367Q2.60742-2.58789 3.69629-1.49414Q4.78516-0.400391 6.21094 0.214844Q7.63672 0.830078 9.24805 0.830078ZM9.24805-0.654297Q7.91992-0.654297 6.7627-1.14746Q5.60547-1.64062 4.73145-2.51953Q3.85742-3.39844 3.36426-4.56055Q2.87109-5.72266 2.87109-7.05078Q2.87109-8.37891 3.35938-9.54102Q3.84766-10.7031 4.72168-11.582Q5.5957-12.4609 6.75293-12.9541Q7.91016-13.4473 9.23828-13.4473Q10.5762-13.4473 11.7383-12.9541Q12.9004-12.4609 13.7793-11.582Q14.6582-10.7031 15.1514-9.54102Q15.6445-8.37891 15.6445-7.05078Q15.6445-5.72266 15.1514-4.56055Q14.6582-3.39844 13.7793-2.51953Q12.9004-1.64062 11.7432-1.14746Q10.5859-0.654297 9.24805-0.654297ZM5.6543-7.05078Q5.6543-6.72852 5.85938-6.52832Q6.06445-6.32812 6.40625-6.32812L8.51562-6.32812L8.51562-4.20898Q8.51562-3.88672 8.71094-3.67676Q8.90625-3.4668 9.23828-3.4668Q9.56055-3.4668 9.77051-3.67676Q9.98047-3.88672 9.98047-4.20898L9.98047-6.32812L12.0898-6.32812Q12.4219-6.32812 12.627-6.52832Q12.832-6.72852 12.832-7.05078Q12.832-7.38281 12.627-7.58789Q12.4219-7.79297 12.0898-7.79297L9.98047-7.79297L9.98047-9.90234Q9.98047-10.2344 9.77051-10.4443Q9.56055-10.6543 9.23828-10.6543Q8.90625-10.6543 8.71094-10.4443Q8.51562-10.2344 8.51562-9.90234L8.51562-7.79297L6.40625-7.79297Q6.06445-7.79297 5.85938-7.58789Q5.6543-7.38281 5.6543-7.05078Z"/>
  </g>
  <g transform="matrix(1 0 0 1 281.867 1933)">
   <path d="M11.709 2.91016Q13.75 2.91016 15.5518 2.12891Q17.3535 1.34766 18.7305-0.0292969Q20.1074-1.40625 20.8887-3.20801Q21.6699-5.00977 21.6699-7.05078Q21.6699-9.0918 20.8887-10.8936Q20.1074-12.6953 18.7305-14.0723Q17.3535-15.4492 15.5469-16.2305Q13.7402-17.0117 11.6992-17.0117Q9.6582-17.0117 7.85645-16.2305Q6.05469-15.4492 4.68262-14.0723Q3.31055-12.6953 2.5293-10.8936Q1.74805-9.0918 1.74805-7.05078Q1.74805-5.00977 2.5293-3.20801Q3.31055-1.40625 4.6875-0.0292969Q6.06445 1.34766 7.86621 2.12891Q9.66797 2.91016 11.709 2.91016ZM11.709 1.25Q9.98047 1.25 8.47656 0.605469Q6.97266-0.0390625 5.83496-1.17676Q4.69727-2.31445 4.05762-3.81836Q3.41797-5.32227 3.41797-7.05078Q3.41797-8.7793 4.05762-10.2832Q4.69727-11.7871 5.83008-12.9297Q6.96289-14.0723 8.4668-14.7119Q9.9707-15.3516 11.6992-15.3516Q13.4277-15.3516 14.9365-14.7119Q16.4453-14.0723 17.583-12.9297Q18.7207-11.7871 19.3652-10.2832Q20.0098-8.7793 20.0098-7.05078Q20.0098-5.32227 19.3701-3.81836Q18.7305-2.31445 17.5879-1.17676Q16.4453-0.0390625 14.9414 0.605469Q13.4375 1.25 11.709 1.25ZM7.17773-7.05078Q7.17773-6.69922 7.41211-6.47461Q7.64648-6.25 8.01758-6.25L10.8887-6.25L10.8887-3.36914Q10.8887-2.99805 11.1133-2.76855Q11.3379-2.53906 11.6895-2.53906Q12.0605-2.53906 12.29-2.76855Q12.5195-2.99805 12.5195-3.36914L12.5195-6.25L15.4004-6.25Q15.7715-6.25 16.001-6.47461Q16.2305-6.69922 16.2305-7.05078Q16.2305-7.42188 16.001-7.65137Q15.7715-7.88086 15.4004-7.88086L12.5195-7.88086L12.5195-10.752Q12.5195-11.1328 12.29-11.3623Q12.0605-11.5918 11.6895-11.5918Q11.3379-11.5918 11.1133-11.3574Q10.8887-11.123 10.8887-10.752L10.8887-7.88086L8.01758-7.88086Q7.63672-7.88086 7.40723-7.65137Q7.17773-7.42188 7.17773-7.05078Z"/>
  </g>
  <g transform="matrix(1 0 0 1 305.646 1933)">
   <path d="M14.9707 5.66406Q17.0605 5.66406 18.96 5.01465Q20.8594 4.36523 22.4512 3.19336Q24.043 2.02148 25.2197 0.429688Q26.3965-1.16211 27.0459-3.06641Q27.6953-4.9707 27.6953-7.05078Q27.6953-9.14062 27.0459-11.04Q26.3965-12.9395 25.2197-14.5312Q24.043-16.123 22.4512-17.2998Q20.8594-18.4766 18.9551-19.126Q17.0508-19.7754 14.9609-19.7754Q12.8711-19.7754 10.9717-19.126Q9.07227-18.4766 7.48535-17.2998Q5.89844-16.123 4.72168-14.5312Q3.54492-12.9395 2.90039-11.04Q2.25586-9.14062 2.25586-7.05078Q2.25586-4.9707 2.90527-3.06641Q3.55469-1.16211 4.72656 0.429688Q5.89844 2.02148 7.49023 3.19336Q9.08203 4.36523 10.9814 5.01465Q12.8809 5.66406 14.9707 5.66406ZM14.9707 3.84766Q13.1641 3.84766 11.5283 3.2959Q9.89258 2.74414 8.53516 1.74805Q7.17773 0.751953 6.17676-0.610352Q5.17578-1.97266 4.62891-3.6084Q4.08203-5.24414 4.08203-7.05078Q4.08203-8.86719 4.62891-10.5029Q5.17578-12.1387 6.17188-13.501Q7.16797-14.8633 8.52539-15.8594Q9.88281-16.8555 11.5186-17.4023Q13.1543-17.9492 14.9609-17.9492Q16.7773-17.9492 18.4131-17.4023Q20.0488-16.8555 21.4111-15.8594Q22.7734-14.8633 23.7744-13.501Q24.7754-12.1387 25.3223-10.5029Q25.8691-8.86719 25.8691-7.05078Q25.8691-5.24414 25.3223-3.6084Q24.7754-1.97266 23.7793-0.610352Q22.7832 0.751953 21.4209 1.74805Q20.0586 2.74414 18.4229 3.2959Q16.7871 3.84766 14.9707 3.84766ZM9.19922-7.05078Q9.19922-6.66992 9.45801-6.4209Q9.7168-6.17188 10.1172-6.17188L14.0625-6.17188L14.0625-2.2168Q14.0625-1.81641 14.3115-1.55762Q14.5605-1.29883 14.9512-1.29883Q15.3516-1.29883 15.6104-1.55273Q15.8691-1.80664 15.8691-2.2168L15.8691-6.17188L19.8242-6.17188Q20.2246-6.17188 20.4785-6.4209Q20.7324-6.66992 20.7324-7.05078Q20.7324-7.46094 20.4785-7.71484Q20.2246-7.96875 19.8242-7.96875L15.8691-7.96875L15.8691-11.9141Q15.8691-12.3242 15.6104-12.583Q15.3516-12.8418 14.9512-12.8418Q14.5605-12.8418 14.3115-12.583Q14.0625-12.3242 14.0625-11.9141L14.0625-7.96875L10.1172-7.96875Q9.70703-7.96875 9.45312-7.71484Q9.19922-7.46094 9.19922-7.05078Z"/>
  </g>
  <text style="stroke:none;fill:black;font-family:sans-serif;font-size:13;font-weight:bold;" transform="matrix(1 0 0 1 263 1953)">Design Variations</text>
  <text style="stroke:none;fill:black;font-family:sans-serif;font-size:13;" transform="matrix(1 0 0 1 263 1971)">Symbols are supported in up to nine weights and three scales.</text>
  <text style="stroke:none;fill:black;font-family:sans-serif;font-size:13;" transform="matrix(1 0 0 1 263 1989)">For optimal layout with text and other symbols, vertically align</text>
  <text style="stroke:none;fill:black;font-family:sans-serif;font-size:13;" transform="matrix(1 0 0 1 263 2007)">symbols with the adjacent text.</text>
  <line style="fill:none;stroke:#00AEEF;stroke-width:0.5;opacity:1.0;" x1="776" x2="776" y1="1919" y2="1933"/>
  <g transform="matrix(1 0 0 1 776 1933)">
   <path d="M3.31055 0.15625Q3.70117 0.15625 3.91602-0.00976562Q4.13086-0.175781 4.26758-0.585938L5.52734-4.0332L11.2891-4.0332L12.5488-0.585938Q12.6855-0.175781 12.9004-0.00976562Q13.1152 0.15625 13.4961 0.15625Q13.8867 0.15625 14.1162-0.0585938Q14.3457-0.273438 14.3457-0.644531Q14.3457-0.869141 14.2383-1.17188L9.6582-13.3691Q9.48242-13.8184 9.17969-14.043Q8.87695-14.2676 8.4082-14.2676Q7.5-14.2676 7.17773-13.3789L2.59766-1.16211Q2.49023-0.859375 2.49023-0.634766Q2.49023-0.263672 2.70996-0.0537109Q2.92969 0.15625 3.31055 0.15625ZM6.00586-5.51758L8.37891-12.0898L8.42773-12.0898L10.8008-5.51758Z"/>
  </g>
  <line style="fill:none;stroke:#00AEEF;stroke-width:0.5;opacity:1.0;" x1="793.197" x2="793.197" y1="1919" y2="1933"/>
  <text style="stroke:none;fill:black;font-family:sans-serif;font-size:13;font-weight:bold;" transform="matrix(1 0 0 1 776 1953)">Margins</text>
  <text style="stroke:none;fill:black;font-family:sans-serif;font-size:13;" transform="matrix(1 0 0 1 776 1971)">Leading and trailing margins on the left and right side of each symbol</text>
  <text style="stroke:none;fill:black;font-family:sans-serif;font-size:13;" transform="matrix(1 0 0 1 776 1989)">can be adjusted by modifying the x-location of the margin guidelines.</text>
  <text style="stroke:none;fill:black;font-family:sans-serif;font-size:13;" transform="matrix(1 0 0 1 776 2007)">Modifications are automatically applied proportionally to all</text>
  <text style="stroke:none;fill:black;font-family:sans-serif;font-size:13;" transform="matrix(1 0 0 1 776 2025)">scales and weights.</text>
  <g transform="matrix(1 0 0 1 1289 1933)">
   <path d="M2.8418 1.86523L4.54102 3.57422Q5.18555 4.22852 5.90332 4.17969Q6.62109 4.13086 7.31445 3.35938L18.0078-8.42773L17.041-9.4043L6.42578 2.27539Q6.16211 2.57812 5.89355 2.61719Q5.625 2.65625 5.27344 2.30469L4.10156 1.14258Q3.75 0.791016 3.79395 0.522461Q3.83789 0.253906 4.14062-0.0195312L15.6152-10.8203L14.6387-11.7871L3.04688-0.898438Q2.30469-0.214844 2.25098 0.498047Q2.19727 1.21094 2.8418 1.86523ZM9.25781-16.3281Q8.94531-16.0254 8.90625-15.6348Q8.86719-15.2441 9.04297-14.9512Q9.21875-14.6777 9.55566-14.541Q9.89258-14.4043 10.3809-14.5215Q11.4746-14.7754 12.5977-14.7314Q13.7207-14.6875 14.7949-13.9844L14.209-12.5293Q13.9551-11.9043 14.0674-11.4404Q14.1797-10.9766 14.5801-10.5664L16.875-8.25195Q17.2363-7.88086 17.5781-7.82227Q17.9199-7.76367 18.3398-7.8418L19.4043-8.03711L20.0684-7.36328L20.0293-6.80664Q20-6.43555 20.1221-6.12305Q20.2441-5.81055 20.6055-5.44922L21.3672-4.70703Q21.7285-4.3457 22.1533-4.33105Q22.5781-4.31641 22.9297-4.66797L25.8398-7.58789Q26.1914-7.93945 26.1816-8.35449Q26.1719-8.76953 25.8105-9.13086L25.0391-9.89258Q24.6875-10.2539 24.3799-10.3857Q24.0723-10.5176 23.7109-10.4883L23.1348-10.4395L22.4902-11.0742L22.7344-12.1973Q22.832-12.6172 22.6953-12.9834Q22.5586-13.3496 22.1191-13.7891L19.9219-15.9766Q18.6719-17.2168 17.2607-17.8369Q15.8496-18.457 14.4189-18.4814Q12.9883-18.5059 11.665-17.959Q10.3418-17.4121 9.25781-16.3281ZM10.752-15.957Q11.6602-16.6211 12.7002-16.9043Q13.7402-17.1875 14.8047-17.085Q15.8691-16.9824 16.8701-16.5137Q17.8711-16.0449 18.7012-15.2051L21.1328-12.793Q21.3086-12.6172 21.3525-12.4512Q21.3965-12.2852 21.3379-12.0312L21.0156-10.5469L22.5195-9.0625L23.5059-9.12109Q23.6914-9.13086 23.7891-9.09668Q23.8867-9.0625 24.0332-8.91602L24.6094-8.33984L22.168-5.89844L21.5918-6.47461Q21.4453-6.62109 21.4062-6.71875Q21.3672-6.81641 21.377-7.01172L21.4453-7.98828L19.9512-9.47266L18.4277-9.21875Q18.1836-9.16992 18.042-9.2041Q17.9004-9.23828 17.7148-9.41406L15.7129-11.416Q15.5176-11.5918 15.4932-11.7529Q15.4688-11.9141 15.5859-12.1875L16.4648-14.2773Q15.293-15.3711 13.8281-15.791Q12.3633-16.2109 10.8398-15.7617Q10.7227-15.7324 10.6885-15.8057Q10.6543-15.8789 10.752-15.957Z"/>
  </g>
  <text style="stroke:none;fill:black;font-family:sans-serif;font-size:13;font-weight:bold;" transform="matrix(1 0 0 1 1289 1953)">Exporting</text>
  <text style="stroke:none;fill:black;font-family:sans-serif;font-size:13;" transform="matrix(1 0 0 1 1289 1971)">Symbols should be outlined when exporting to ensure the</text>
  <text style="stroke:none;fill:black;font-family:sans-serif;font-size:13;" transform="matrix(1 0 0 1 1289 1989)">design is preserved when submitting to Xcode.</text>
  <text id="template-version" style="stroke:none;fill:black;font-family:sans-serif;font-size:13;text-anchor:end;" transform="matrix(1 0 0 1 3036 1933)">Template v.2.0</text>
  <text style="stroke:none;fill:black;font-family:sans-serif;font-size:13;text-anchor:end;" transform="matrix(1 0 0 1 3036 1951)">Requires Xcode 12 or greater</text>
  <text id="descriptive-name" style="stroke:none;fill:black;font-family:sans-serif;font-size:13;text-anchor:end;" transform="matrix(1 0 0 1 3036 1969)">Generated from figure.strengthtraining.traditional</text>
  <text style="stroke:none;fill:black;font-family:sans-serif;font-size:13;text-anchor:end;" transform="matrix(1 0 0 1 3036 1987)">Typeset at 100 points</text>
  <text style="stroke:none;fill:black;font-family:sans-serif;font-size:13;" transform="matrix(1 0 0 1 263 726)">Small</text>
  <text style="stroke:none;fill:black;font-family:sans-serif;font-size:13;" transform="matrix(1 0 0 1 263 1156)">Medium</text>
  <text style="stroke:none;fill:black;font-family:sans-serif;font-size:13;" transform="matrix(1 0 0 1 263 1586)">Large</text>
 </g>
 <g id="Guides">
  <g id="H-reference" style="fill:#27AAE1;stroke:none;" transform="matrix(1 0 0 1 339 696)">
   <path d="M0.993347 0L3.6377 0L29.3282-67.1326L30.0301-67.1326L30.0301-70.459L28.1227-70.459ZM11.6882-24.4797L46.9818-24.4797L46.2311-26.7288L12.4382-26.7288ZM55.1193 0L57.7637 0L30.6381-70.459L29.4327-70.459L29.4327-67.1326Z"/>
  </g>
  <line id="Baseline-S" style="fill:none;stroke:#27AAE1;opacity:1;stroke-width:0.5;" x1="263" x2="3036" y1="696" y2="696"/>
  <line id="Capline-S" style="fill:none;stroke:#27AAE1;opacity:1;stroke-width:0.5;" x1="263" x2="3036" y1="625.541" y2="625.541"/>
  <g id="H-reference" style="fill:#27AAE1;stroke:none;" transform="matrix(1 0 0 1 339 1126)">
   <path d="M0.993347 0L3.6377 0L29.3282-67.1326L30.0301-67.1326L30.0301-70.459L28.1227-70.459ZM11.6882-24.4797L46.9818-24.4797L46.2311-26.7288L12.4382-26.7288ZM55.1193 0L57.7637 0L30.6381-70.459L29.4327-70.459L29.4327-67.1326Z"/>
  </g>
  <line id="Baseline-M" style="fill:none;stroke:#27AAE1;opacity:1;stroke-width:0.5;" x1="263" x2="3036" y1="1126" y2="1126"/>
  <line id="Capline-M" style="fill:none;stroke:#27AAE1;opacity:1;stroke-width:0.5;" x1="263" x2="3036" y1="1055.54" y2="1055.54"/>
  <g id="H-reference" style="fill:#27AAE1;stroke:none;" transform="matrix(1 0 0 1 339 1556)">
   <path d="M0.993347 0L3.6377 0L29.3282-67.1326L30.0301-67.1326L30.0301-70.459L28.1227-70.459ZM11.6882-24.4797L46.9818-24.4797L46.2311-26.7288L12.4382-26.7288ZM55.1193 0L57.7637 0L30.6381-70.459L29.4327-70.459L29.4327-67.1326Z"/>
  </g>
  <line id="Baseline-L" style="fill:none;stroke:#27AAE1;opacity:1;stroke-width:0.5;" x1="263" x2="3036" y1="1556" y2="1556"/>
  <line id="Capline-L" style="fill:none;stroke:#27AAE1;opacity:1;stroke-width:0.5;" x1="263" x2="3036" y1="1485.54" y2="1485.54"/>
  <line id="left-margin" style="fill:none;stroke:#00AEEF;stroke-width:0.5;opacity:1.0;" x1="1379.12" x2="1379.12" y1="1030.79" y2="1150.12"/>
  <line id="right-margin" style="fill:none;stroke:#00AEEF;stroke-width:0.5;opacity:1.0;" x1="1520.57" x2="1520.57" y1="1030.79" y2="1150.12"/>
 </g>
 <g id="Symbols">
  <g id="Black-L" transform="matrix(1 0 0 1 2836.42 1556)">
   <path d="M97.0295-86.7092Q103.434-86.7092 107.978-91.2719Q112.522-95.8346 112.522-102.223Q112.522-108.647 107.978-113.169Q103.434-117.692 97.0295-117.692Q90.6428-117.692 86.0911-113.169Q81.5394-108.647 81.5394-102.223Q81.5394-95.8346 86.0911-91.2719Q90.6428-86.7092 97.0295-86.7092ZM81.3422-39.4642L112.798-39.4642L112.798-49.2612Q112.798-49.889 113.313-49.9837Q113.828-50.0783 114.134-49.4441L131.438-14.2567Q132.875-11.4012 135.959-10.3426Q139.043-9.28393 141.978-10.8031Q144.753-12.2186 145.782-15.3031Q146.812-18.3876 145.373-21.2639L121.085-70.38Q116.2-80.2876 104.951-80.2876L89.0887-80.2876Q77.8385-80.2876 72.9541-70.38L48.6873-21.2639Q47.2485-18.3876 48.2968-15.3031Q49.345-12.2186 52.1201-10.8031Q54.9963-9.28393 58.0802-10.3426Q61.1641-11.4012 62.6017-14.2567L80.0053-49.4441Q80.3126-50.0783 80.8274-49.9947Q81.3422-49.911 81.3422-49.2833ZM70.02 46.3951Q72.8743 46.9348 75.6299 45.4169Q78.3856 43.8989 79.225 39.964L85.3429 11.7406L97.0295-6.84052L108.695 11.7406L114.814 39.964Q115.712 44.0014 118.571 45.4687Q121.43 46.936 124.227 46.3147Q127.058 45.6713 128.962 43.146Q130.866 40.6206 130.028 36.6273L123.75 7.28798Q123.67 6.88588 123.559 6.46619Q123.449 6.0465 123.289 5.58718L116.762-12.8821L77.3577-12.8821L70.7488 5.58718Q70.3919 6.46298 70.2895 7.28798L64.0327 36.6273Q63.1349 40.7814 65.1498 43.2892Q67.1646 45.797 70.02 46.3951ZM31.9835-2.35626L35.1825-2.35626Q37.9392-2.35626 39.7327-4.19007Q41.5263-6.02388 41.5263-8.85853L41.5263-43.6474Q41.5263-46.4612 39.7327-48.2554Q37.9392-50.0496 35.1825-50.0496L31.9835-50.0496Q29.1476-50.0496 27.354-48.2554Q25.5604-46.4612 25.5604-43.6474L25.5604-8.85853Q25.5604-6.02388 27.354-4.19007Q29.1476-2.35626 31.9835-2.35626ZM158.796-2.35626L162.055-2.35626Q164.81-2.35626 166.604-4.19007Q168.399-6.02388 168.399-8.85853L168.399-43.6474Q168.399-46.4612 166.604-48.2554Q164.81-50.0496 162.055-50.0496L158.796-50.0496Q156.02-50.0496 154.226-48.2554Q152.433-46.4612 152.433-43.6474L152.433-8.85853Q152.433-6.02388 154.226-4.19007Q156.02-2.35626 158.796-2.35626ZM21.7785-20.4975L172.181-20.4975Q174.592-20.4975 176.234-22.168Q177.875-23.8386 177.875-26.2128Q177.875-28.5661 176.234-30.2373Q174.592-31.9084 172.181-31.9084L21.7785-31.9084Q19.3667-31.9084 17.7254-30.2373Q16.084-28.5661 16.084-26.2128Q16.084-23.8386 17.7254-22.168Q19.3667-20.4975 21.7785-20.4975Z"/>
  </g>
  <g id="Heavy-L" transform="matrix(1 0 0 1 2541.23 1556)">
   <path d="M95.516-86.0213Q101.733-86.0213 106.156-90.4517Q110.579-94.882 110.579-101.115Q110.579-107.357 106.156-111.747Q101.733-116.137 95.516-116.137Q89.2886-116.137 84.8761-111.747Q80.4637-107.357 80.4637-101.115Q80.4637-94.882 84.8761-90.4517Q89.2886-86.0213 95.516-86.0213ZM80.294-38.8365L110.824-38.8365L110.824-49.9029Q110.824-50.5677 111.431-50.6946Q112.038-50.8214 112.381-50.0996L129.72-14.8446Q131.094-12.122 134.031-11.1091Q136.968-10.0962 139.766-11.5559Q142.408-12.8937 143.399-15.8339Q144.389-18.7742 143.01-21.527L119.03-70.0148Q114.272-79.6439 103.328-79.6439L87.6788-79.6439Q76.7297-79.6439 71.9777-70.0148L48.0275-21.527Q46.6483-18.7742 47.6461-15.8339Q48.6439-12.8937 51.2861-11.5559Q54.0387-10.0962 56.9763-11.1091Q59.9138-12.122 61.2874-14.8446L78.7317-50.0996Q79.0803-50.8214 79.6872-50.7125Q80.294-50.6035 80.294-49.9387ZM68.8865 44.9054Q71.6034 45.4268 74.2356 43.9729Q76.8677 42.5189 77.6751 38.7533L83.7207 10.8548L95.516-8.63165L107.281 10.8548L113.332 38.7533Q114.184 42.6351 116.935 44.0338Q119.687 45.4325 122.364 44.8249Q125.04 44.1816 126.841 41.7728Q128.642 39.3641 127.84 35.5538L121.64 6.60345Q121.559 6.20135 121.454 5.79767Q121.348 5.39399 121.193 4.95283L114.441-14.144L76.6465-14.144L69.8087 4.95283Q69.4839 5.76911 69.3676 6.60345L63.1969 35.5538Q62.3449 39.5249 64.2544 41.932Q66.164 44.3392 68.8865 44.9054ZM31.1947-3.34174L34.5576-3.34174Q37.0866-3.34174 38.7205-5.01592Q40.3544-6.69011 40.3544-9.28813L40.3544-43.8477Q40.3544-46.4154 38.7205-48.0522Q37.0866-49.689 34.5576-49.689L31.1947-49.689Q28.591-49.689 26.9571-48.0522Q25.3232-46.4154 25.3232-43.8477L25.3232-9.28813Q25.3232-6.69011 26.9571-5.01592Q28.591-3.34174 31.1947-3.34174ZM156.394-3.34174L159.807-3.34174Q162.33-3.34174 163.967-5.01592Q165.604-6.69011 165.604-9.28813L165.604-43.8477Q165.604-46.4154 163.967-48.0522Q162.33-49.689 159.807-49.689L156.394-49.689Q153.84-49.689 152.206-48.0522Q150.572-46.4154 150.572-43.8477L150.572-9.28813Q150.572-6.69011 152.206-5.01592Q153.84-3.34174 156.394-3.34174ZM21.2093-21.3722L169.718-21.3722Q171.883-21.3722 173.363-22.8743Q174.843-24.3763 174.843-26.5276Q174.843-28.6488 173.363-30.1537Q171.883-31.6586 169.718-31.6586L21.2093-31.6586Q19.0435-31.6586 17.5637-30.1537Q16.084-28.6488 16.084-26.5276Q16.084-24.3763 17.5637-22.8743Q19.0435-21.3722 21.2093-21.3722Z"/>
  </g>
  <g id="Bold-L" transform="matrix(1 0 0 1 2246.52 1556)">
   <path d="M93.507-85.0939Q99.501-85.0939 103.774-89.3628Q108.047-93.6317 108.047-99.6727Q108.047-105.691 103.774-109.92Q99.501-114.149 93.507-114.149Q87.4793-114.149 83.236-109.92Q78.9927-105.691 78.9927-99.6727Q78.9927-93.6317 83.236-89.3628Q87.4793-85.0939 93.507-85.0939ZM78.8539-38.038L108.254-38.038L108.254-50.5752Q108.254-51.2787 108.961-51.4403Q109.668-51.6018 110.05-50.7873L127.375-15.5745Q128.672-13.0059 131.436-12.0469Q134.201-11.0879 136.837-12.4783Q139.325-13.7238 140.269-16.4946Q141.214-19.2655 139.904-21.8722L116.345-69.5019Q111.741-78.7927 101.174-78.7927L85.8152-78.7927Q75.2352-78.7927 70.6445-69.5019L47.1235-21.8722Q45.8135-19.2655 46.7536-16.4946Q47.6937-13.7238 50.1818-12.4783Q52.7882-11.0879 55.5527-12.0469Q58.3171-13.0059 59.6138-15.5745L77.0446-50.7873Q77.4395-51.6018 78.1467-51.4659Q78.8539-51.3299 78.8539-50.6264ZM67.391 42.9793Q69.9462 43.4776 72.4322 42.1006Q74.9181 40.7235 75.6872 37.1579L81.6331 9.71124L93.507-10.7852L105.343 9.71124L111.302 37.1579Q112.1 40.8551 114.724 42.1731Q117.349 43.491 119.888 42.8988Q122.379 42.2555 124.057 39.9852Q125.735 37.7149 124.979 34.1202L118.886 5.69852Q118.805 5.29642 118.703 4.912Q118.602 4.52757 118.454 4.10939L111.441-15.7189L75.6288-15.7189L68.5216 4.10939Q68.2353 4.85644 68.1036 5.69852L62.0478 34.1202Q61.2497 37.8758 63.0361 40.1636Q64.8225 42.4514 67.391 42.9793ZM30.1517-4.54851L33.789-4.54851Q36.0338-4.54851 37.4717-6.02675Q38.9096-7.50499 38.9096-9.8035L38.9096-44.1011Q38.9096-46.3615 37.4717-47.8061Q36.0338-49.2507 33.789-49.2507L30.1517-49.2507Q27.8399-49.2507 26.402-47.8061Q24.9641-46.3615 24.9641-44.1011L24.9641-9.8035Q24.9641-7.50499 26.402-6.02675Q27.8399-4.54851 30.1517-4.54851ZM153.144-4.54851L156.824-4.54851Q159.056-4.54851 160.5-6.02675Q161.945-7.50499 161.945-9.8035L161.945-44.1011Q161.945-46.3615 160.5-47.8061Q159.056-49.2507 156.824-49.2507L153.144-49.2507Q150.875-49.2507 149.437-47.8061Q147.999-46.3615 147.999-44.1011L147.999-9.8035Q147.999-7.50499 149.437-6.02675Q150.875-4.54851 153.144-4.54851ZM20.495-22.4631L166.414-22.4631Q168.272-22.4631 169.548-23.7539Q170.825-25.0448 170.825-26.912Q170.825-28.7413 169.548-30.0388Q168.272-31.3363 166.414-31.3363L20.495-31.3363Q18.6365-31.3363 17.3602-30.0388Q16.084-28.7413 16.084-26.912Q16.084-25.0448 17.3602-23.7539Q18.6365-22.4631 20.495-22.4631Z"/>
  </g>
  <g id="Semibold-L" transform="matrix(1 0 0 1 1951.2 1556)">
   <path d="M92.122-84.4545Q97.9622-84.4545 102.132-88.6121Q106.302-92.7697 106.302-98.6784Q106.302-104.543 102.132-108.661Q97.9622-112.778 92.122-112.778Q86.232-112.778 82.1053-108.661Q77.9786-104.543 77.9786-98.6784Q77.9786-92.7697 82.1053-88.6121Q86.232-84.4545 92.122-84.4545ZM77.861-37.4875L106.482-37.4875L106.482-51.0387Q106.482-51.7688 107.258-51.9543Q108.034-52.1399 108.443-51.2614L125.759-16.0777Q127.003-13.6153 129.648-12.6934Q132.293-11.7716 134.817-13.1143Q137.199-14.2961 138.112-16.9501Q139.024-19.6042 137.762-22.1101L114.493-69.1483Q109.996-78.2059 99.6883-78.2059L84.5305-78.2059Q74.2048-78.2059 69.7254-69.1483L46.5003-22.1101Q45.2381-19.6042 46.1383-16.9501Q47.0386-14.2961 49.4206-13.1143Q51.9262-11.7716 54.5712-12.6934Q57.2163-13.6153 58.46-16.0777L75.8815-51.2614Q76.3083-52.1399 77.0847-51.9853Q77.861-51.8307 77.861-51.1005ZM66.36 41.6514Q68.8038 42.1339 71.1889 40.8098Q73.574 39.4858 74.3167 36.0581L80.194 8.92291L92.122-12.2698L104.006 8.92291L109.902 36.0581Q110.663 39.628 113.2 40.8903Q115.737 42.1525 118.181 41.571Q120.544 40.9276 122.137 38.7528Q123.73 36.5781 123.006 33.1319L116.987 5.07467Q116.906 4.67257 116.807 4.30142Q116.708 3.93027 116.566 3.52792L109.372-16.8046L74.9272-16.8046L67.6343 3.52792Q67.3745 4.22725 67.2322 5.07467L61.2556 33.1319Q60.4947 36.7389 62.1962 38.9445Q63.8976 41.1501 66.36 41.6514ZM29.4327-5.38046L33.2591-5.38046Q35.308-5.38046 36.6108-6.72361Q37.9136-8.06677 37.9136-10.1588L37.9136-44.2758Q37.9136-46.3243 36.6108-47.6364Q35.308-48.9485 33.2591-48.9485L29.4327-48.9485Q27.3221-48.9485 26.0193-47.6364Q24.7165-46.3243 24.7165-44.2758L24.7165-10.1588Q24.7165-8.06677 26.0193-6.72361Q27.3221-5.38046 29.4327-5.38046ZM150.904-5.38046L154.768-5.38046Q156.798-5.38046 158.11-6.72361Q159.422-8.06677 159.422-10.1588L159.422-44.2758Q159.422-46.3243 158.11-47.6364Q156.798-48.9485 154.768-48.9485L150.904-48.9485Q148.831-48.9485 147.528-47.6364Q146.225-46.3243 146.225-44.2758L146.225-10.1588Q146.225-8.06677 147.528-6.72361Q148.831-5.38046 150.904-5.38046ZM20.0025-23.2152L164.136-23.2152Q165.783-23.2152 166.918-24.3604Q168.054-25.5056 168.054-27.1769Q168.054-28.8051 166.918-29.9596Q165.783-31.1141 164.136-31.1141L20.0025-31.1141Q18.3558-31.1141 17.2199-29.9596Q16.084-28.8051 16.084-27.1769Q16.084-25.5056 17.2199-24.3604Q18.3558-23.2152 20.0025-23.2152Z"/>
  </g>
  <g id="Medium-L" transform="matrix(1 0 0 1 1655.54 1556)">
   <path d="M91.0718-83.9697Q96.7954-83.9697 100.887-88.0429Q104.979-92.1162 104.979-97.9244Q104.979-103.673 100.887-107.706Q96.7954-111.739 91.0718-111.739Q85.2862-111.739 81.2479-107.706Q77.2096-103.673 77.2096-97.9244Q77.2096-92.1162 81.2479-88.0429Q85.2862-83.9697 91.0718-83.9697ZM77.1082-37.0701L105.138-37.0701L105.138-51.3901Q105.138-52.1405 105.967-52.3442Q106.796-52.5478 107.224-51.6209L124.534-16.4592Q125.737-14.0773 128.291-13.1836Q130.846-12.2899 133.286-13.5964Q135.587-14.73 136.476-17.2955Q137.364-19.8611 136.138-22.2906L113.09-68.8802Q108.672-77.761 98.562-77.761L83.5563-77.761Q73.4236-77.761 69.0285-68.8802L46.0278-22.2906Q44.8017-19.8611 45.6718-17.2955Q46.5419-14.73 48.8433-13.5964Q51.2725-12.2899 53.8271-13.1836Q56.3817-14.0773 57.5851-16.4592L74.9997-51.6209Q75.4506-52.5478 76.2794-52.3791Q77.1082-52.2104 77.1082-51.46ZM65.5783 40.6446Q67.9375 41.115 70.2462 39.8311Q72.5549 38.5473 73.2775 35.2242L79.1027 8.32516L91.0718-13.3955L102.993 8.32516L108.841 35.2242Q109.574 38.6976 112.044 39.9176Q114.515 41.1376 116.886 40.5642Q119.153 39.9208 120.682 37.8184Q122.211 35.716 121.511 32.3825L115.547 4.60164Q115.467 4.19954 115.37 3.83846Q115.273 3.47738 115.135 3.08703L107.804-17.6278L74.3953-17.6278L66.9614 3.08703Q66.7218 3.75018 66.5715 4.60164L60.6549 32.3825Q59.9223 35.8768 61.5593 38.0201Q63.1964 40.1633 65.5783 40.6446ZM28.8876-6.01128L32.8573-6.01128Q34.7577-6.01128 35.958-7.252Q37.1583-8.49273 37.1583-10.4282L37.1583-44.4083Q37.1583-46.2961 35.958-47.5078Q34.7577-48.7194 32.8573-48.7194L28.8876-48.7194Q26.9294-48.7194 25.7291-47.5078Q24.5288-46.2961 24.5288-44.4083L24.5288-10.4282Q24.5288-8.49273 25.7291-7.252Q26.9294-6.01128 28.8876-6.01128ZM149.206-6.01128L153.208-6.01128Q155.086-6.01128 156.298-7.252Q157.509-8.49273 157.509-10.4282L157.509-44.4083Q157.509-46.2961 156.298-47.5078Q155.086-48.7194 153.208-48.7194L149.206-48.7194Q147.281-48.7194 146.08-47.5078Q144.88-46.2961 144.88-44.4083L144.88-10.4282Q144.88-8.49273 146.08-7.252Q147.281-6.01128 149.206-6.01128ZM19.6292-23.7854L162.409-23.7854Q163.895-23.7854 164.924-24.8202Q165.954-25.855 165.954-27.3778Q165.954-28.8534 164.924-29.8996Q163.895-30.9457 162.409-30.9457L19.6292-30.9457Q18.143-30.9457 17.1135-29.8996Q16.084-28.8534 16.084-27.3778Q16.084-25.855 17.1135-24.8202Q18.143-23.7854 19.6292-23.7854Z"/>
  </g>
  <g id="Regular-L" transform="matrix(1 0 0 1 1360.2 1556)">
   <path d="M89.7021-83.3373Q95.2734-83.3373 99.2629-87.3005Q103.252-91.2637 103.252-96.941Q103.252-102.537 99.2629-106.46Q95.2734-110.383 89.7021-110.383Q84.0526-110.383 80.1296-106.46Q76.2067-102.537 76.2067-96.941Q76.2067-91.2637 80.1296-87.3005Q84.0526-83.3373 89.7021-83.3373ZM76.1263-36.5257L103.386-36.5257L103.386-51.8485Q103.386-52.6253 104.283-52.8526Q105.18-53.0799 105.635-52.0897L122.935-16.9569Q124.086-14.68 126.522-13.823Q128.959-12.9661 131.289-14.2254Q133.485-15.296 134.342-17.746Q135.199-20.1961 134.02-22.526L111.259-68.5305Q106.947-77.1807 97.0929-77.1807L82.2857-77.1807Q72.4046-77.1807 68.1195-68.5305L45.4115-22.526Q44.2326-20.1961 45.0633-17.746Q45.894-15.296 48.0904-14.2254Q50.4199-12.9661 52.8564-13.823Q55.293-14.68 56.444-16.9569L73.8494-52.0897Q74.3319-53.0799 75.2291-52.8928Q76.1263-52.7057 76.1263-51.9289ZM64.5586 39.3313Q66.8076 39.786 69.0167 38.5545Q71.2257 37.3231 71.922 34.1365L77.6794 7.54548L89.7021-14.8638L101.672 7.54548L107.457 34.1365Q108.153 37.484 110.537 38.6489Q112.921 39.8138 115.197 39.2509Q117.339 38.6075 118.783 36.5996Q120.228 34.5916 119.56 31.405L113.669 3.98464Q113.589 3.58254 113.495 3.23459Q113.4 2.88664 113.267 2.51196L105.758-18.7016L73.7014-18.7016L66.0839 2.51196Q65.8705 3.1279 65.7096 3.98464L59.8714 31.405Q59.1755 34.7524 60.7286 36.8143Q62.2818 38.8762 64.5586 39.3313ZM28.1765-6.83408L32.3333-6.83408Q34.0399-6.83408 35.1066-7.9412Q36.1733-9.04833 36.1733-10.7796L36.1733-44.5811Q36.1733-46.2594 35.1066-47.34Q34.0399-48.4206 32.3333-48.4206L28.1765-48.4206Q26.4173-48.4206 25.3506-47.34Q24.284-46.2594 24.284-44.5811L24.284-10.7796Q24.284-9.04833 25.3506-7.9412Q26.4173-6.83408 28.1765-6.83408ZM146.99-6.83408L151.175-6.83408Q152.853-6.83408 153.934-7.9412Q155.015-9.04833 155.015-10.7796L155.015-44.5811Q155.015-46.2594 153.934-47.34Q152.853-48.4206 151.175-48.4206L146.99-48.4206Q145.259-48.4206 144.192-47.34Q143.125-46.2594 143.125-44.5811L143.125-10.7796Q143.125-9.04833 144.192-7.9412Q145.259-6.83408 146.99-6.83408ZM19.1421-24.5292L160.156-24.5292Q161.433-24.5292 162.323-25.42Q163.214-26.3107 163.214-27.6399Q163.214-28.9165 162.323-29.8212Q161.433-30.7259 160.156-30.7259L19.1421-30.7259Q17.8655-30.7259 16.9747-29.8212Q16.084-28.9165 16.084-27.6399Q16.084-26.3107 16.9747-25.42Q17.8655-24.5292 19.1421-24.5292Z"/>
  </g>
  <g id="Light-L" transform="matrix(1 0 0 1 1065.72 1556)">
   <path d="M87.4501-82.2112Q92.9259-82.2112 96.8103-86.0789Q100.695-89.9467 100.695-95.4907Q100.695-100.953 96.8103-104.781Q92.9259-108.609 87.4501-108.609Q81.9533-108.609 78.1257-104.781Q74.2981-100.953 74.2981-95.4907Q74.2981-89.9467 78.1257-86.0789Q81.9533-82.2112 87.4501-82.2112ZM74.2177-35.8385L100.809-35.8385L100.809-51.524Q100.809-52.2818 101.687-52.4995Q102.565-52.7172 103.001-51.7652L119.92-17.4722Q121.032-15.2335 123.402-14.3956Q125.771-13.5577 128.044-14.7981Q130.203-15.8305 131.04-18.2231Q131.878-20.6158 130.718-22.8886L108.511-67.7863Q104.275-76.2456 94.6691-76.2456L80.2434-76.2456Q70.5916-76.2456 66.4017-67.7863L44.2282-22.8886Q43.0683-20.6158 43.8895-18.2231Q44.7108-15.8305 46.8691-14.7981Q49.1411-13.5577 51.511-14.3956Q53.8808-15.2335 54.9937-17.4722L71.979-51.7652Q72.4615-52.7172 73.3396-52.5398Q74.2177-52.3623 74.2177-51.6044ZM62.9364 37.4802Q65.128 37.9156 67.2798 36.7223Q69.4316 35.5291 70.1091 32.4187L75.7327 6.4575L87.4501-15.9325L99.1335 6.4575L104.804 32.4187Q105.481 35.6899 107.817 36.8263Q110.153 37.9627 112.392 37.3998Q114.457 36.7564 115.844 34.8057Q117.232 32.8549 116.601 29.7446L110.864 2.99221Q110.784 2.59011 110.68 2.25178Q110.576 1.91345 110.462 1.55768L102.876-19.8659L72.1173-19.8659L64.4043 1.55768Q64.2101 2.15471 64.0493 2.99221L58.3445 29.7446Q57.6678 33.0158 59.1828 35.0299Q60.6977 37.044 62.9364 37.4802ZM27.0314-7.57832L31.8369-7.57832Q33.3338-7.57832 34.2764-8.56151Q35.219-9.54471 35.219-11.0278L35.219-44.7911Q35.219-46.2401 34.2764-47.2063Q33.3338-48.1724 31.8369-48.1724L27.0314-48.1724Q25.5012-48.1724 24.5586-47.2063Q23.616-46.2401 23.616-44.7911L23.616-11.0278Q23.616-9.54471 24.5586-8.56151Q25.5012-7.57832 27.0314-7.57832ZM142.982-7.57832L147.835-7.57832Q149.285-7.57832 150.251-8.56151Q151.217-9.54471 151.217-11.0278L151.217-44.7911Q151.217-46.2401 150.251-47.2063Q149.285-48.1724 147.835-48.1724L142.982-48.1724Q141.499-48.1724 140.556-47.2063Q139.613-46.2401 139.613-44.7911L139.613-11.0278Q139.613-9.54471 140.556-8.56151Q141.499-7.57832 142.982-7.57832ZM18.5887-25.3309L156.244-25.3309Q157.291-25.3309 158.02-26.0594Q158.748-26.7879 158.748-27.8688Q158.748-28.9165 158.02-29.6686Q157.291-30.4207 156.244-30.4207L18.5887-30.4207Q17.541-30.4207 16.8125-29.6686Q16.084-28.9165 16.084-27.8688Q16.084-26.7879 16.8125-26.0594Q17.541-25.3309 18.5887-25.3309Z"/>
  </g>
  <g id="Thin-L" transform="matrix(1 0 0 1 771.959 1556)">
   <path d="M84.4717-80.7218Q89.8211-80.7218 93.5667-84.4634Q97.3122-88.205 97.3122-93.5725Q97.3122-98.8584 93.5667-102.56Q89.8211-106.261 84.4717-106.261Q79.1767-106.261 75.4753-102.56Q71.7739-98.8584 71.7739-93.5725Q71.7739-88.205 75.4753-84.4634Q79.1767-80.7218 84.4717-80.7218ZM71.6935-34.9297L97.4017-34.9297L97.4017-51.0948Q97.4017-51.8276 98.2546-52.0326Q99.1074-52.2376 99.5174-51.3361L115.931-18.1537Q116.994-15.9655 119.275-15.1528Q121.556-14.3401 123.753-15.5555Q125.861-16.5375 126.674-18.8542Q127.486-21.1709 126.351-23.3683L104.876-66.802Q100.741-75.009 91.4634-75.009L77.5424-75.009Q68.1938-75.009 64.1299-66.802L42.6633-23.3683Q41.5284-21.1709 42.3371-18.8542Q43.1459-16.5375 45.2537-15.5555Q47.4498-14.3401 49.7315-15.1528Q52.0131-15.9655 53.0755-18.1537L69.5053-51.3361Q69.9878-52.2376 70.8406-52.0728Q71.6935-51.9081 71.6935-51.1752ZM60.7909 35.0319Q62.9066 35.4418 64.9827 34.2991Q67.0588 33.1563 67.7112 30.1469L73.158 5.01855L84.4717-17.346L95.7764 5.01855L101.296 30.1469Q101.947 33.3171 104.22 34.4158Q106.493 35.5144 108.682 34.9515Q110.645 34.3081 111.957 32.4331Q113.268 30.558 112.689 27.5487L107.154 1.67964Q107.073 1.27754 106.956 0.951935Q106.84 0.626327 106.752 0.295583L99.065-21.4058L70.0223-21.4058L62.1829 0.295583Q62.0142 0.867587 61.8533 1.67964L56.3249 27.5487Q55.6737 30.7189 57.1382 32.6698Q58.6027 34.6207 60.7909 35.0319ZM25.517-8.56264L31.1804-8.56264Q32.4-8.56264 33.1784-9.38192Q33.9569-10.2012 33.9569-11.356L33.9569-45.0689Q33.9569-46.2147 33.1784-47.0294Q32.4-47.8442 31.1804-47.8442L25.517-47.8442Q24.2896-47.8442 23.5111-47.0294Q22.7326-46.2147 22.7326-45.0689L22.7326-11.356Q22.7326-10.2012 23.5111-9.38192Q24.2896-8.56264 25.517-8.56264ZM137.681-8.56264L143.417-8.56264Q144.564-8.56264 145.379-9.38192Q146.194-10.2012 146.194-11.356L146.194-45.0689Q146.194-46.2147 145.379-47.0294Q144.564-47.8442 143.417-47.8442L137.681-47.8442Q136.527-47.8442 135.747-47.0294Q134.968-46.2147 134.968-45.0689L134.968-11.356Q134.968-10.2012 135.747-9.38192Q136.527-8.56264 137.681-8.56264ZM17.8567-26.3911L151.07-26.3911Q151.813-26.3911 152.327-26.905Q152.841-27.4189 152.841-28.1717Q152.841-28.9165 152.327-29.4667Q151.813-30.0169 151.07-30.0169L17.8567-30.0169Q17.1118-30.0169 16.5979-29.4667Q16.084-28.9165 16.084-28.1717Q16.084-27.4189 16.5979-26.905Q17.1118-26.3911 17.8567-26.3911Z"/>
  </g>
  <g id="Ultralight-L" transform="matrix(1 0 0 1 476.761 1556)">
   <path d="M82.9462-79.9589Q88.2309-79.9589 91.9053-83.6359Q95.5797-87.3129 95.5797-92.59Q95.5797-97.7854 91.9053-101.422Q88.2309-105.059 82.9462-105.059Q77.7546-105.059 74.1178-101.422Q70.481-97.7854 70.481-92.59Q70.481-87.3129 74.1178-83.6359Q77.7546-79.9589 82.9462-79.9589ZM70.4006-34.4642L95.6563-34.4642L95.6563-50.875Q95.6563-51.595 96.4963-51.7935Q97.3362-51.9919 97.7332-51.1162L113.889-18.5028Q114.925-16.3404 117.161-15.5406Q119.397-14.7409 121.555-15.9434Q123.637-16.8996 124.437-19.1774Q125.237-21.4553 124.115-23.6139L103.014-66.2978Q98.9305-74.3756 89.8214-74.3756L76.1589-74.3756Q66.9656-74.3756 62.9662-66.2978L41.8618-23.6139Q40.7397-21.4553 41.542-19.1774Q42.3443-16.8996 44.4263-15.9434Q46.5835-14.7409 48.82-15.5406Q51.0565-16.3404 52.093-18.5028L68.2382-51.1162Q68.7207-51.9919 69.5607-51.8337Q70.4006-51.6754 70.4006-50.9554ZM59.692 33.7779Q61.7689 34.1748 63.8062 33.0579Q65.8435 31.9409 66.4831 28.9832L71.8393 4.28153L82.9462-18.07L94.0569 4.28153L99.4986 28.9832Q100.137 32.1018 102.378 33.1811Q104.619 34.2604 106.781 33.6975Q108.693 33.0541 109.966 31.2178Q111.239 29.3816 110.685 26.4239L105.253 1.00735Q105.173 0.605251 105.05 0.28616Q104.926-0.0329304 104.851-0.350859L97.1129-22.1945L68.9493-22.1945L61.0451-0.350859Q60.8894 0.208329 60.7286 1.00735L55.2906 26.4239Q54.6524 29.5424 56.091 31.461Q57.5296 33.3795 59.692 33.7779ZM24.7413-9.06681L30.8442-9.06681Q31.9216-9.06681 32.616-9.80213Q33.3104-10.5375 33.3104-11.5242L33.3104-45.2112Q33.3104-46.2016 32.616-46.9388Q31.9216-47.676 30.8442-47.676L24.7413-47.676Q23.669-47.676 22.9746-46.9388Q22.2802-46.2016 22.2802-45.2112L22.2802-11.5242Q22.2802-10.5375 22.9746-9.80213Q23.669-9.06681 24.7413-9.06681ZM134.966-9.06681L141.155-9.06681Q142.147-9.06681 142.884-9.80213Q143.621-10.5375 143.621-11.5242L143.621-45.2112Q143.621-46.2016 142.884-46.9388Q142.147-47.676 141.155-47.676L134.966-47.676Q133.98-47.676 133.285-46.9388Q132.589-46.2016 132.589-45.2112L132.589-11.5242Q132.589-10.5375 133.285-9.80213Q133.98-9.06681 134.966-9.06681ZM17.4818-26.9341L148.42-26.9341Q149.008-26.9341 149.412-27.3381Q149.816-27.7421 149.816-28.3267Q149.816-28.9165 149.412-29.3633Q149.008-29.8101 148.42-29.8101L17.4818-29.8101Q16.892-29.8101 16.488-29.3633Q16.084-28.9165 16.084-28.3267Q16.084-27.7421 16.488-27.3381Q16.892-26.9341 17.4818-26.9341Z"/>
  </g>
  <g id="Black-M" transform="matrix(1 0 0 1 2857.27 1126)">
   <path d="M76.1686-75.5516Q81.2788-75.5516 84.8887-79.1874Q88.4986-82.8231 88.4986-87.8872Q88.4986-93.0031 84.8887-96.6077Q81.2788-100.212 76.1686-100.212Q71.1042-100.212 67.4711-96.6077Q63.8379-93.0031 63.8379-87.8872Q63.8379-82.8231 67.4711-79.1874Q71.1042-75.5516 76.1686-75.5516ZM63.6614-38.9566L88.7377-38.9566L88.7377-45.505Q88.7377-45.9571 89.0548-46.0014Q89.3719-46.0457 89.5747-45.6349L102.898-18.5455Q104.062-16.2242 106.568-15.3673Q109.074-14.5104 111.458-15.7359Q113.717-16.8943 114.545-19.4001Q115.373-21.906 114.21-24.2327L95.2043-62.6751Q91.3196-70.5644 82.3755-70.5644L69.9558-70.5644Q61.012-70.5644 57.127-62.6751L38.1268-24.2327Q36.9636-21.906 37.8177-19.4001Q38.6719-16.8943 40.9309-15.7359Q43.2576-14.5104 45.7636-15.3673Q48.2696-16.2242 49.4332-18.5455L62.8247-45.6349Q63.0272-46.0457 63.3443-46.004Q63.6614-45.9623 63.6614-45.5102ZM55.0019 29.038Q57.3234 29.4692 59.5567 28.2434Q61.79 27.0176 62.4652 23.8339L67.2491 1.77411L76.1686-11.8408L85.0826 1.77411L89.8661 23.8339Q90.5984 27.0851 92.8991 28.277Q95.1998 29.469 97.4639 28.9757Q99.7806 28.4773 101.336 26.4283Q102.892 24.3793 102.217 21.1385L97.3079-1.83557Q97.2456-2.1471 97.1549-2.48471Q97.0642-2.82232 96.9393-3.19122L92.0648-16.9893L60.3288-16.9893L55.3924-3.19122Q55.091-2.46411 55.0235-1.83557L50.1202 21.1385Q49.3879 24.5039 51.0343 26.5268Q52.6806 28.5497 55.0019 29.038ZM25.3017-9.0151L27.7272-9.0151Q30.0301-9.0151 31.5401-10.5562Q33.0501-12.0974 33.0501-14.4632L33.0501-41.6076Q33.0501-43.968 31.5401-45.4778Q30.0301-46.9876 27.7272-46.9876L25.3017-46.9876Q22.9361-46.9876 21.4261-45.4778Q19.9162-43.968 19.9162-41.6076L19.9162-14.4632Q19.9162-12.0974 21.4261-10.5562Q22.9361-9.0151 25.3017-9.0151ZM124.548-9.0151L127.03-9.0151Q129.333-9.0151 130.843-10.5562Q132.353-12.0974 132.353-14.4632L132.353-41.6076Q132.353-43.968 130.843-45.4778Q129.333-46.9876 127.03-46.9876L124.548-46.9876Q122.239-46.9876 120.729-45.4778Q119.219-43.968 119.219-41.6076L119.219-14.4632Q119.219-12.0974 120.729-10.5562Q122.239-9.0151 124.548-9.0151ZM17.2869-23.1728L134.982-23.1728Q137.031-23.1728 138.42-24.5899Q139.808-26.007 139.808-28.0043Q139.808-29.996 138.42-31.4129Q137.031-32.8299 134.982-32.8299L17.2869-32.8299Q15.238-32.8299 13.8495-31.4129Q12.4609-29.996 12.4609-28.0043Q12.4609-26.007 13.8495-24.5899Q15.238-23.1728 17.2869-23.1728Z"/>
  </g>
  <g id="Heavy-M" transform="matrix(1 0 0 1 2561.83 1126)">
   <path d="M74.8967-74.983Q79.8324-74.983 83.3339-78.4982Q86.8355-82.0133 86.8355-86.9383Q86.8355-91.8881 83.3339-95.3721Q79.8324-98.8561 74.8967-98.8561Q69.974-98.8561 66.4682-95.3721Q62.9624-91.8881 62.9624-86.9383Q62.9624-82.0133 66.4682-78.4982Q69.974-74.983 74.8967-74.983ZM62.8129-38.4064L87.045-38.4064L87.045-46.1623Q87.045-46.6522 87.4539-46.7289Q87.8628-46.8056 88.1035-46.3055L101.497-19.0727Q102.602-16.8778 104.971-16.0639Q107.34-15.2499 109.595-16.419Q111.727-17.5049 112.519-19.875Q113.311-22.2452 112.205-24.4565L93.4482-62.3868Q89.6816-70.0214 81.0133-70.0214L68.7659-70.0214Q60.0954-70.0214 56.331-62.3868L37.591-24.4565Q36.4842-22.2452 37.2899-19.875Q38.0957-17.5049 40.2283-16.419Q42.4395-15.2499 44.8086-16.0639Q47.1776-16.8778 48.2822-19.0727L61.7521-46.3055Q61.9951-46.8056 62.404-46.7382Q62.8129-46.6709 62.8129-46.1809ZM54.0434 27.7525Q56.236 28.1676 58.3539 27.0008Q60.4717 25.834 61.1174 22.8088L65.8429 1.00852L74.8967-13.4932L83.934 1.00852L88.6618 22.8088Q89.3511 25.915 91.5511 27.0425Q93.7511 28.1699 95.9023 27.6902Q98.074 27.1917 99.5345 25.2515Q100.995 23.3112 100.352 20.2424L95.5037-2.4132Q95.4414-2.72472 95.3562-3.04757Q95.2709-3.37041 95.1486-3.7233L90.0618-18.1154L59.7798-18.1154L54.6284-3.7233Q54.3565-3.05263 54.2755-2.4132L49.4441 20.2424Q48.7547 23.4358 50.3016 25.3647Q51.8485 27.2937 54.0434 27.7525ZM24.6362-9.90982L27.1621-9.90982Q29.2618-9.90982 30.6271-11.3063Q31.9925-12.7028 31.9925-14.8603L31.9925-41.784Q31.9925-43.925 30.6271-45.2914Q29.2618-46.6579 27.1621-46.6579L24.6362-46.6579Q22.4765-46.6579 21.1112-45.2914Q19.7458-43.925 19.7458-41.784L19.7458-14.8603Q19.7458-12.7028 21.1112-11.3063Q22.4765-9.90982 24.6362-9.90982ZM122.569-9.90982L125.141-9.90982Q127.238-9.90982 128.605-11.3063Q129.971-12.7028 129.971-14.8603L129.971-41.784Q129.971-43.925 128.605-45.2914Q127.238-46.6579 125.141-46.6579L122.569-46.6579Q120.455-46.6579 119.09-45.2914Q117.724-43.925 117.724-41.784L117.724-14.8603Q117.724-12.7028 119.09-11.3063Q120.455-9.90982 122.569-9.90982ZM16.7815-23.954L132.935-23.954Q134.765-23.954 136.01-25.2213Q137.256-26.4887 137.256-28.2909Q137.256-30.0768 136.01-31.3453Q134.765-32.6138 132.935-32.6138L16.7815-32.6138Q14.952-32.6138 13.7065-31.3453Q12.4609-30.0768 12.4609-28.2909Q12.4609-26.4887 13.7065-25.2213Q14.952-23.954 16.7815-23.954Z"/>
  </g>
  <g id="Bold-M" transform="matrix(1 0 0 1 2266.55 1126)">
   <path d="M73.4739-74.347Q78.2144-74.347 81.5947-77.7273Q84.975-81.1075 84.975-85.8768Q84.975-90.6408 81.5947-93.9899Q78.2144-97.339 73.4739-97.339Q68.7098-97.339 65.3464-93.9899Q61.983-90.6408 61.983-85.8768Q61.983-81.1075 65.3464-77.7273Q68.7098-74.347 73.4739-74.347ZM61.8636-37.791L85.1516-37.791L85.1516-46.8974Q85.1516-47.4298 85.6631-47.5427Q86.1747-47.6557 86.4577-47.0558L99.9297-19.6624Q100.968-17.6089 103.184-16.843Q105.4-16.0772 107.511-17.1832Q109.502-18.1879 110.253-20.4063Q111.005-22.6246 109.961-24.7068L91.4838-62.0642Q87.8492-69.414 79.4894-69.414L67.4349-69.414Q59.07-69.414 55.4405-62.0642L36.9916-24.7068Q35.9479-22.6246 36.6995-20.4063Q37.4511-18.1879 39.4423-17.1832Q41.5244-16.0772 43.7402-16.843Q45.9561-17.6089 46.9946-19.6624L60.5524-47.0558Q60.8405-47.6557 61.3521-47.5596Q61.8636-47.4635 61.8636-46.9312ZM52.9713 26.3144Q55.0196 26.7116 57.0083 25.6108Q58.9969 24.51 59.6097 21.662L64.2699 0.152088L73.4739-15.3416L82.6492 0.152088L87.3146 21.662Q87.9558 24.6061 90.0431 25.6614Q92.1305 26.7168 94.1554 26.2521Q96.1649 25.7537 97.5188 23.935Q98.8727 22.1164 98.2652 19.2399L93.4855-3.05935Q93.4232-3.37087 93.344-3.6772Q93.2649-3.98354 93.1454-4.31852L87.8211-19.3752L59.1655-19.3752L53.7737-4.31852Q53.5349-3.71098 53.4388-3.05935L48.6876 19.2399Q48.0464 22.241 49.4821 24.0648Q50.9178 25.8886 52.9713 26.3144ZM23.8918-10.9107L26.53-10.9107Q28.4023-10.9107 29.6059-12.1454Q30.8094-13.3802 30.8094-15.3045L30.8094-41.9812Q30.8094-43.8769 29.6059-45.083Q28.4023-46.2891 26.53-46.2891L23.8918-46.2891Q21.9624-46.2891 20.7588-45.083Q19.5553-43.8769 19.5553-41.9812L19.5553-15.3045Q19.5553-13.3802 20.7588-12.1454Q21.9624-10.9107 23.8918-10.9107ZM120.355-10.9107L123.027-10.9107Q124.894-10.9107 126.101-12.1454Q127.307-13.3802 127.307-15.3045L127.307-41.9812Q127.307-43.8769 126.101-45.083Q124.894-46.2891 123.027-46.2891L120.355-46.2891Q118.46-46.2891 117.256-45.083Q116.053-43.8769 116.053-41.9812L116.053-15.3045Q116.053-13.3802 117.256-12.1454Q118.46-10.9107 120.355-10.9107ZM16.2162-24.8278L130.646-24.8278Q132.23-24.8278 133.315-25.9276Q134.401-27.0274 134.401-28.6117Q134.401-30.1673 133.315-31.2697Q132.23-32.3721 130.646-32.3721L16.2162-32.3721Q14.632-32.3721 13.5465-31.2697Q12.4609-30.1673 12.4609-28.6117Q12.4609-27.0274 13.5465-25.9276Q14.632-24.8278 16.2162-24.8278Z"/>
  </g>
  <g id="Semibold-M" transform="matrix(1 0 0 1 1970.82 1126)">
   <path d="M72.493-73.9085Q77.099-73.9085 80.3957-77.1958Q83.6924-80.4831 83.6924-85.1451Q83.6924-89.7809 80.3957-93.0371Q77.099-96.2932 72.493-96.2932Q67.8382-96.2932 64.573-93.0371Q61.3078-89.7809 61.3078-85.1451Q61.3078-80.4831 64.573-77.1958Q67.8382-73.9085 72.493-73.9085ZM61.2092-37.3667L83.8462-37.3667L83.8462-47.4043Q83.8462-47.9658 84.4285-48.1037Q85.0108-48.2417 85.323-47.573L98.8492-20.069Q99.8422-18.1129 101.952-17.3802Q104.063-16.6475 106.074-17.7099Q107.968-18.6588 108.691-20.7725Q109.415-22.8862 108.415-24.8794L90.1295-61.8418Q86.5859-68.9953 78.4388-68.9953L66.5173-68.9953Q58.3631-68.9953 54.8265-61.8418L36.5784-24.8794Q35.5782-22.8862 36.2925-20.7725Q37.0067-18.6588 38.9004-17.7099Q40.8935-16.6475 43.0037-17.3802Q45.114-18.1129 46.107-20.069L59.7252-47.573Q60.0446-48.2417 60.6269-48.1258Q61.2092-48.01 61.2092-47.4484ZM52.2321 25.323Q54.181 25.7078 56.0806 24.6525Q57.9803 23.5972 58.5703 20.8714L63.1855-0.438328L72.493-16.6158L81.7635-0.438328L86.3859 20.8714Q86.9939 23.7037 89.0036 24.7093Q91.0132 25.715 92.9511 25.2607Q94.8488 24.7623 96.1292 23.0275Q97.4097 21.2927 96.8268 18.5487L92.0942-3.5048Q92.0319-3.81633 91.9569-4.11127Q91.8819-4.40622 91.7645-4.72886L86.2764-20.2437L58.7421-20.2437L53.1845-4.72886Q52.9685-4.16483 52.862-3.5048L48.1662 18.5487Q47.5581 21.4173 48.9171 23.1686Q50.2761 24.9199 52.2321 25.323ZM23.3787-11.6007L26.0942-11.6007Q27.8098-11.6007 28.9018-12.7239Q29.9938-13.8471 29.9938-15.6107L29.9938-42.1172Q29.9938-43.8437 28.9018-44.9393Q27.8098-46.0349 26.0942-46.0349L23.3787-46.0349Q21.6079-46.0349 20.5159-44.9393Q19.4239-43.8437 19.4239-42.1172L19.4239-15.6107Q19.4239-13.8471 20.5159-12.7239Q21.6079-11.6007 23.3787-11.6007ZM118.829-11.6007L121.57-11.6007Q123.279-11.6007 124.374-12.7239Q125.47-13.8471 125.47-15.6107L125.47-42.1172Q125.47-43.8437 124.374-44.9393Q123.279-46.0349 121.57-46.0349L118.829-46.0349Q117.084-46.0349 115.992-44.9393Q114.9-43.8437 114.9-42.1172L114.9-15.6107Q114.9-13.8471 115.992-12.7239Q117.084-11.6007 118.829-11.6007ZM15.8265-25.4302L129.067-25.4302Q130.482-25.4302 131.458-26.4145Q132.433-27.3989 132.433-28.8327Q132.433-30.2296 131.458-31.2176Q130.482-32.2055 129.067-32.2055L15.8265-32.2055Q14.4115-32.2055 13.4362-31.2176Q12.4609-30.2296 12.4609-28.8327Q12.4609-27.3989 13.4362-26.4145Q14.4115-25.4302 15.8265-25.4302Z"/>
  </g>
  <g id="Medium-M" transform="matrix(1 0 0 1 1674.85 1126)">
   <path d="M71.7493-73.576Q76.2532-73.576 79.4865-76.7928Q82.7198-80.0096 82.7198-84.5902Q82.7198-89.1289 79.4865-92.3145Q76.2532-95.5002 71.7493-95.5002Q67.1774-95.5002 63.9866-92.3145Q60.7959-89.1289 60.7959-84.5902Q60.7959-80.0096 63.9866-76.7928Q67.1774-73.576 71.7493-73.576ZM60.713-37.0449L82.8565-37.0449L82.8565-47.7886Q82.8565-48.3723 83.4924-48.5292Q84.1284-48.686 84.4627-47.9652L98.0299-20.3772Q98.9884-18.4951 101.019-17.7875Q103.049-17.0799 104.985-18.1094Q106.804-19.0158 107.507-21.0502Q108.209-23.0846 107.242-25.0102L89.1026-61.6732Q85.628-68.6778 77.6422-68.6778L65.8215-68.6778Q57.8271-68.6778 54.361-61.6732L36.2651-25.0102Q35.2979-23.0846 35.9838-21.0502Q36.6697-19.0158 38.4896-18.1094Q40.4151-17.0799 42.4452-17.7875Q44.4754-18.4951 45.4339-20.3772L59.0981-47.9652Q59.4411-48.686 60.077-48.5552Q60.713-48.4243 60.713-47.8406ZM51.6717 24.5713Q53.5452 24.9467 55.3773 23.9259Q57.2094 22.9051 57.7822 20.272L62.3633-0.886006L71.7493-17.582L81.0919-0.886006L85.6817 20.272Q86.2646 23.0195 88.2153 23.9874Q90.1661 24.9554 92.038 24.509Q93.8509 24.0105 95.0756 22.3393Q96.3003 20.6681 95.7362 18.0247L91.0392-3.84256Q90.9769-4.15409 90.9051-4.4404Q90.8333-4.72671 90.7174-5.03999L85.1051-20.9022L58.421-20.9022L52.7378-5.03999Q52.539-4.50897 52.4246-3.84256L47.7708 18.0247Q47.1879 20.7927 48.4887 22.4891Q49.7896 24.1854 51.6717 24.5713ZM22.9895-12.1239L25.7638-12.1239Q27.3605-12.1239 28.3679-13.1625Q29.3754-14.2012 29.3754-15.8429L29.3754-42.2204Q29.3754-43.8185 28.3679-44.8303Q27.3605-45.8421 25.7638-45.8421L22.9895-45.8421Q21.3392-45.8421 20.3318-44.8303Q19.3243-43.8185 19.3243-42.2204L19.3243-15.8429Q19.3243-14.2012 20.3318-13.1625Q21.3392-12.1239 22.9895-12.1239ZM117.672-12.1239L120.466-12.1239Q122.054-12.1239 123.065-13.1625Q124.077-14.2012 124.077-15.8429L124.077-42.2204Q124.077-43.8185 123.065-44.8303Q122.054-45.8421 120.466-45.8421L117.672-45.8421Q116.041-45.8421 115.033-44.8303Q114.026-43.8185 114.026-42.2204L114.026-15.8429Q114.026-14.2012 115.033-13.1625Q116.041-12.1239 117.672-12.1239ZM15.531-25.8869L127.87-25.8869Q129.157-25.8869 130.049-26.7837Q130.94-27.6805 130.94-29.0004Q130.94-30.2769 130.049-31.178Q129.157-32.0791 127.87-32.0791L15.531-32.0791Q14.2442-32.0791 13.3526-31.178Q12.4609-30.2769 12.4609-29.0004Q12.4609-27.6805 13.3526-26.7837Q14.2442-25.8869 15.531-25.8869Z"/>
  </g>
  <g id="Regular-M" transform="matrix(1 0 0 1 1379.12 1126)">
   <path d="M70.7793-73.1424Q75.1501-73.1424 78.3007-76.2672Q81.4513-79.392 81.4513-83.8665Q81.4513-88.2785 78.3007-91.3721Q75.1501-94.4658 70.7793-94.4658Q66.3154-94.4658 63.2217-91.3721Q60.1281-88.2785 60.1281-83.8665Q60.1281-79.392 63.2217-76.2672Q66.3154-73.1424 70.7793-73.1424ZM60.0658-36.6253L81.5655-36.6253L81.5655-48.2898Q81.5655-48.9024 82.2714-49.084Q82.9774-49.2656 83.3406-48.4768L96.9613-20.7793Q97.8747-18.9936 99.8004-18.3188Q101.726-17.644 103.564-18.6304Q105.287-19.4815 105.962-21.4124Q106.637-23.3433 105.713-25.1809L87.7632-61.4533Q84.3787-68.2636 76.6032-68.2636L64.9139-68.2636Q57.128-68.2636 53.7539-61.4533L35.8564-25.1809Q34.9323-23.3433 35.5813-21.4124Q36.2302-19.4815 37.9537-18.6304Q39.7911-17.644 41.7168-18.3188Q43.6425-18.9936 44.556-20.7793L58.28-48.4768Q58.6539-49.2656 59.3598-49.1152Q60.0658-48.9647 60.0658-48.3521ZM50.9407 23.5908Q52.7158 23.954 54.4598 22.9782Q56.2039 22.0024 56.7542 19.4901L61.2908-1.46993L70.7793-18.8423L80.2159-1.46993L84.7631 19.4901Q85.3132 22.127 87.1872 23.0458Q89.0612 23.9646 90.8469 23.5285Q92.5493 23.03 93.7013 21.4418Q94.8534 19.8535 94.3137 17.3412L89.6631-4.28312Q89.6008-4.59465 89.5332-4.8697Q89.4656-5.14475 89.3516-5.44582L83.5774-21.7611L58.0022-21.7611L52.1551-5.44582Q51.9788-4.95784 51.8542-4.28312L47.2551 17.3412Q46.705 19.9781 47.93 21.6027Q49.1549 23.2274 50.9407 23.5908ZM22.482-12.8063L25.3328-12.8063Q26.7745-12.8063 27.6716-13.7346Q28.5687-14.663 28.5687-16.1457L28.5687-42.3549Q28.5687-43.7858 27.6716-44.6882Q26.7745-45.5906 25.3328-45.5906L22.482-45.5906Q20.9887-45.5906 20.0915-44.6882Q19.1944-43.7858 19.1944-42.3549L19.1944-16.1457Q19.1944-14.663 20.0915-13.7346Q20.9887-12.8063 22.482-12.8063ZM116.163-12.8063L119.025-12.8063Q120.456-12.8063 121.358-13.7346Q122.261-14.663 122.261-16.1457L122.261-42.3549Q122.261-43.7858 121.358-44.6882Q120.456-45.5906 119.025-45.5906L116.163-45.5906Q114.68-45.5906 113.783-44.6882Q112.886-43.7858 112.886-42.3549L112.886-16.1457Q112.886-14.663 113.783-13.7346Q114.68-12.8063 116.163-12.8063ZM15.1456-26.4827L126.309-26.4827Q127.429-26.4827 128.211-27.2653Q128.994-28.0479 128.994-29.2191Q128.994-30.3386 128.211-31.1265Q127.429-31.9143 126.309-31.9143L15.1456-31.9143Q14.0261-31.9143 13.2435-31.1265Q12.4609-30.3386 12.4609-29.2191Q12.4609-28.0479 13.2435-27.2653Q14.0261-26.4827 15.1456-26.4827Z"/>
  </g>
  <g id="Light-M" transform="matrix(1 0 0 1 1084.41 1126)">
   <path d="M68.7602-72.1327Q73.0454-72.1327 76.1019-75.172Q79.1584-78.2113 79.1584-82.5662Q79.1584-86.8583 76.1019-89.8664Q73.0454-92.8746 68.7602-92.8746Q64.4332-92.8746 61.4251-89.8664Q58.417-86.8583 58.417-82.5662Q58.417-78.2113 61.4251-75.172Q64.4332-72.1327 68.7602-72.1327ZM58.3547-36.0092L79.2555-36.0092L79.2555-47.9989Q79.2555-48.5945 79.9444-48.7675Q80.6332-48.9405 80.9792-48.1858L94.2578-21.2413Q95.137-19.4898 97.0027-18.8321Q98.8684-18.1744 100.655-19.1438Q102.344-19.9608 103.002-21.8402Q103.659-23.7196 102.752-25.506L85.2992-60.7861Q81.9831-67.4253 74.4301-67.4253L63.0829-67.4253Q55.5026-67.4253 52.2138-60.7861L34.7956-25.506Q33.8885-23.7196 34.5289-21.8402Q35.1694-19.9608 36.8587-19.1438Q38.6446-18.1744 40.5105-18.8321Q42.3765-19.4898 43.2557-21.2413L56.6031-48.1858Q56.977-48.9405 57.6658-48.7987Q58.3547-48.6568 58.3547-48.0612ZM49.4863 21.9311Q51.21 22.2771 52.9027 21.3355Q54.5954 20.3939 55.1287 17.9501L59.5455-2.44537L68.7602-19.8005L77.9401-2.44537L82.3848 17.9501Q82.9176 20.5185 84.7489 21.4118Q86.5802 22.305 88.3317 21.8688Q89.9656 21.3704 91.0662 19.8334Q92.1668 18.2965 91.6614 15.8526L87.1479-5.17289Q87.0856-5.48441 87.0094-5.75084Q86.9331-6.01727 86.8364-6.30137L80.9938-22.805L56.582-22.805L50.6492-6.30137Q50.4902-5.83035 50.3656-5.17289L45.8861 15.8526Q45.3532 18.4211 46.544 20.0029Q47.7348 21.5847 49.4863 21.9311ZM21.4554-13.4735L24.8878-13.4735Q26.1415-13.4735 26.9273-14.2908Q27.7132-15.108 27.7132-16.3682L27.7132-42.5432Q27.7132-43.7685 26.9273-44.5683Q26.1415-45.3681 24.8878-45.3681L21.4554-45.3681Q20.1673-45.3681 19.3815-44.5683Q18.5956-43.7685 18.5956-42.5432L18.5956-16.3682Q18.5956-15.108 19.3815-14.2908Q20.1673-13.4735 21.4554-13.4735ZM112.57-13.4735L116.03-13.4735Q117.256-13.4735 118.056-14.2908Q118.856-15.108 118.856-16.3682L118.856-42.5432Q118.856-43.7685 118.056-44.5683Q117.256-45.3681 116.03-45.3681L112.57-45.3681Q111.31-45.3681 110.524-44.5683Q109.738-43.7685 109.738-42.5432L109.738-16.3682Q109.738-15.108 110.524-14.2908Q111.31-13.4735 112.57-13.4735ZM14.6494-27.2014L122.802-27.2014Q123.716-27.2014 124.353-27.8385Q124.99-28.4756 124.99-29.4243Q124.99-30.3386 124.353-30.9896Q123.716-31.6407 122.802-31.6407L14.6494-31.6407Q13.7351-31.6407 13.098-30.9896Q12.4609-30.3386 12.4609-29.4243Q12.4609-28.4756 13.098-27.8385Q13.7351-27.2014 14.6494-27.2014Z"/>
  </g>
  <g id="Thin-M" transform="matrix(1 0 0 1 790.345 1126)">
   <path d="M66.09-70.7974Q70.2618-70.7974 73.1937-73.7235Q76.1257-76.6497 76.1257-80.8464Q76.1257-84.98 73.1937-87.875Q70.2618-90.77 66.09-90.77Q61.9439-90.77 59.0489-87.875Q56.1539-84.98 56.1539-80.8464Q56.1539-76.6497 59.0489-73.7235Q61.9439-70.7974 66.09-70.7974ZM56.0916-35.1944L76.2005-35.1944L76.2005-47.6141Q76.2005-48.1873 76.8667-48.3489Q77.5329-48.5104 77.856-47.801L90.6822-21.8523Q91.5162-20.146 93.3026-19.511Q95.089-18.8759 96.8078-19.8229Q98.4517-20.5946 99.0868-22.406Q99.7219-24.2173 98.8372-25.936L82.0403-59.9036Q78.8147-66.3166 71.556-66.3166L60.6613-66.3166Q53.3528-66.3166 50.177-59.9036L33.3926-25.936Q32.5079-24.2173 33.1371-22.406Q33.7664-20.5946 35.4104-19.8229Q37.1283-18.8759 38.9151-19.511Q40.702-20.146 41.536-21.8523L54.3853-47.801Q54.7591-48.5104 55.4254-48.38Q56.0916-48.2496 56.0916-47.6764ZM47.5628 19.7361Q49.2184 20.0592 50.8432 19.1629Q52.4681 18.2666 52.979 15.9132L57.2371-3.73546L66.09-21.0678L74.9303-3.73546L79.2392 15.9132Q79.7492 18.3912 81.5241 19.2506Q83.2989 20.1099 85.0052 19.6738Q86.5486 19.1754 87.5811 17.7063Q88.6137 16.2372 88.1535 13.8838L83.8214-6.34967Q83.7591-6.6612 83.6714-6.91622Q83.5838-7.17124 83.5098-7.43291L77.5767-24.1856L54.7037-24.1856L48.6576-7.43291Q48.5214-6.98433 48.3968-6.34967L44.0754 13.8838Q43.5654 16.3618 44.7109 17.887Q45.8565 19.4121 47.5628 19.7361ZM20.0976-14.356L24.2992-14.356Q25.3042-14.356 25.9429-15.0263Q26.5816-15.6966 26.5816-16.6625L26.5816-42.7922Q26.5816-43.7457 25.9429-44.4098Q25.3042-45.0738 24.2992-45.0738L20.0976-45.0738Q19.081-45.0738 18.4423-44.4098Q17.8036-43.7457 17.8036-42.7922L17.8036-16.6625Q17.8036-15.6966 18.4423-15.0263Q19.081-14.356 20.0976-14.356ZM107.818-14.356L112.07-14.356Q113.024-14.356 113.688-15.0263Q114.352-15.6966 114.352-16.6625L114.352-42.7922Q114.352-43.7457 113.688-44.4098Q113.024-45.0738 112.07-45.0738L107.818-45.0738Q106.852-45.0738 106.213-44.4098Q105.573-43.7457 105.573-42.7922L105.573-16.6625Q105.573-15.6966 106.213-15.0263Q106.852-14.356 107.818-14.356ZM13.9931-28.152L118.163-28.152Q118.805-28.152 119.249-28.5967Q119.694-29.0414 119.694-29.6958Q119.694-30.3386 119.249-30.8086Q118.805-31.2787 118.163-31.2787L13.9931-31.2787Q13.3504-31.2787 12.9056-30.8086Q12.4609-30.3386 12.4609-29.6958Q12.4609-29.0414 12.9056-28.5967Q13.3504-28.152 13.9931-28.152Z"/>
  </g>
  <g id="Ultralight-M" transform="matrix(1 0 0 1 494.99 1126)">
   <path d="M64.7222-70.1134Q68.836-70.1134 71.7042-72.9817Q74.5724-75.8499 74.5724-79.9656Q74.5724-84.018 71.7042-86.855Q68.836-89.6921 64.7222-89.6921Q60.6689-89.6921 57.8318-86.855Q54.9948-84.018 54.9948-79.9656Q54.9948-75.8499 57.8318-72.9817Q60.6689-70.1134 64.7222-70.1134ZM54.9325-34.777L74.6357-34.777L74.6357-47.417Q74.6357-47.9787 75.2903-48.1345Q75.9449-48.2902 76.2564-47.604L88.8508-22.1653Q89.6616-20.4822 91.4074-19.8587Q93.1532-19.2352 94.8373-20.1707Q96.4581-20.9193 97.0816-22.6957Q97.7051-24.4722 96.8319-26.1563L80.3711-59.4515Q77.1918-65.7487 70.0839-65.7487L59.421-65.7487Q52.2517-65.7487 49.1337-59.4515L32.674-26.1563Q31.8007-24.4722 32.4243-22.6957Q33.0478-20.9193 34.6686-20.1707Q36.3516-19.2352 38.098-19.8587Q39.8443-20.4822 40.6551-22.1653L53.2494-47.604Q53.6232-48.2902 54.2778-48.1656Q54.9325-48.041 54.9325-47.4793ZM46.5775 18.6118Q48.1983 18.9233 49.7884 18.0501Q51.3785 17.177 51.8778 14.8699L56.0548-4.39624L64.7222-21.7169L73.3887-4.39624L77.6281 14.8699Q78.1264 17.3016 79.8723 18.1436Q81.6182 18.9857 83.3013 18.5495Q84.7984 18.0511 85.7961 16.6168Q86.7937 15.1824 86.3567 12.8754L82.1175-6.95242Q82.0552-7.26394 81.9617-7.51312Q81.8682-7.7623 81.806-8.01248L75.8265-24.8927L53.7417-24.8927L47.6375-8.01248Q47.513-7.57538 47.3884-6.95242L43.1481 12.8754Q42.6497 15.307 43.7721 16.8032Q44.8944 18.2994 46.5775 18.6118ZM19.4022-14.808L23.9977-14.808Q24.8754-14.808 25.4387-15.403Q26.0021-15.9981 26.0021-16.8132L26.0021-42.9198Q26.0021-43.734 25.4387-44.3285Q24.8754-44.9231 23.9977-44.9231L19.4022-44.9231Q18.5246-44.9231 17.9613-44.3285Q17.3979-43.734 17.3979-42.9198L17.3979-16.8132Q17.3979-15.9981 17.9613-15.403Q18.5246-14.808 19.4022-14.808ZM105.383-14.808L110.041-14.808Q110.857-14.808 111.451-15.403Q112.046-15.9981 112.046-16.8132L112.046-42.9198Q112.046-43.734 111.451-44.3285Q110.857-44.9231 110.041-44.9231L105.383-44.9231Q104.568-44.9231 104.004-44.3285Q103.44-43.734 103.44-42.9198L103.44-16.8132Q103.44-15.9981 104.004-15.403Q104.568-14.808 105.383-14.808ZM13.657-28.6389L115.787-28.6389Q116.289-28.6389 116.635-28.985Q116.982-29.3312 116.982-29.8348Q116.982-30.3386 116.635-30.7159Q116.289-31.0933 115.787-31.0933L13.657-31.0933Q13.1533-31.0933 12.8071-30.7159Q12.4609-30.3386 12.4609-29.8348Q12.4609-29.3312 12.8071-28.985Q13.1533-28.6389 13.657-28.6389Z"/>
  </g>
  <g id="Black-S" transform="matrix(1 0 0 1 2873.46 696)">
   <path d="M59.9609-66.9434Q64.0137-66.9434 66.8701-69.8242Q69.7266-72.7051 69.7266-76.709Q69.7266-80.7617 66.8701-83.6182Q64.0137-86.4746 59.9609-86.4746Q55.957-86.4746 53.0762-83.6182Q50.1953-80.7617 50.1953-76.709Q50.1953-72.7051 53.0762-69.8242Q55.957-66.9434 59.9609-66.9434ZM50.0488-38.2812L69.9219-38.2812L69.9219-43.0664Q69.9219-43.4082 70.1416-43.4326Q70.3613-43.457 70.5078-43.1641L80.9082-22.0215Q81.8359-20.166 83.8379-19.4824Q85.8398-18.7988 87.7441-19.7754Q89.5508-20.7031 90.21-22.7051Q90.8691-24.707 89.9414-26.5625L75-56.7871Q71.9238-63.0371 64.8438-63.0371L55.0781-63.0371Q47.998-63.0371 44.9219-56.7871L29.9805-26.5625Q29.0527-24.707 29.7363-22.7051Q30.4199-20.7031 32.2266-19.7754Q34.082-18.7988 36.084-19.4824Q38.0859-20.166 39.0137-22.0215L49.4629-43.1641Q49.6094-43.457 49.8291-43.4326Q50.0488-43.4082 50.0488-43.0664ZM43.3105 15.4297Q45.166 15.7715 46.9482 14.7949Q48.7305 13.8184 49.2676 11.2793L53.0273-6.05469L59.9609-16.4551L66.8945-6.05469L70.6543 11.2793Q71.2402 13.8672 73.0713 14.8193Q74.9023 15.7715 76.709 15.3809Q78.5645 14.9902 79.8096 13.3545Q81.0547 11.7188 80.5176 9.13086L76.6602-8.93555Q76.6113-9.17969 76.5381-9.44824Q76.4648-9.7168 76.3672-10.0098L72.6074-20.6543L47.3633-20.6543L43.5547-10.0098Q43.3105-9.42383 43.2617-8.93555L39.4043 9.13086Q38.8184 11.8164 40.1367 13.4277Q41.4551 15.0391 43.3105 15.4297ZM19.9707-14.4531L21.875-14.4531Q23.7305-14.4531 24.9512-15.6982Q26.1719-16.9434 26.1719-18.8477L26.1719-40.1855Q26.1719-42.0898 24.9512-43.3105Q23.7305-44.5312 21.875-44.5312L19.9707-44.5312Q18.0664-44.5312 16.8457-43.3105Q15.625-42.0898 15.625-40.1855L15.625-18.8477Q15.625-16.9434 16.8457-15.6982Q18.0664-14.4531 19.9707-14.4531ZM97.998-14.4531L99.9512-14.4531Q101.807-14.4531 103.027-15.6982Q104.248-16.9434 104.248-18.8477L104.248-40.1855Q104.248-42.0898 103.027-43.3105Q101.807-44.5312 99.9512-44.5312L97.998-44.5312Q96.1426-44.5312 94.9219-43.3105Q93.7012-42.0898 93.7012-40.1855L93.7012-18.8477Q93.7012-16.9434 94.9219-15.6982Q96.1426-14.4531 97.998-14.4531ZM13.6719-25.5859L106.201-25.5859Q107.861-25.5859 108.984-26.7334Q110.107-27.8809 110.107-29.4922Q110.107-31.1035 108.984-32.251Q107.861-33.3984 106.201-33.3984L13.6719-33.3984Q12.0117-33.3984 10.8887-32.251Q9.76562-31.1035 9.76562-29.4922Q9.76562-27.8809 10.8887-26.7334Q12.0117-25.5859 13.6719-25.5859Z"/>
  </g>
  <g id="Heavy-S" transform="matrix(1 0 0 1 2577.59 696)">
   <path d="M59.1312-66.5861Q63.0456-66.5861 65.8214-69.3748Q68.5972-72.1634 68.5972-76.0636Q68.5972-79.9896 65.8214-82.7538Q63.0456-85.5181 59.1312-85.5181Q55.231-85.5181 52.4481-82.7538Q49.6652-79.9896 49.6652-76.0636Q49.6652-72.1634 52.4481-69.3748Q55.231-66.5861 59.1312-66.5861ZM49.5418-37.8894L68.7694-37.8894L68.7694-43.6657Q68.7694-44.042 69.0698-44.0953Q69.3702-44.1485 69.5513-43.7749L80.0554-22.4133Q80.937-20.6616 82.8295-20.0125Q84.722-19.3635 86.5225-20.294Q88.2255-21.1641 88.8558-23.0566Q89.4862-24.949 88.6046-26.7123L73.813-56.6258Q70.829-62.6799 63.9564-62.6799L54.2945-62.6799Q47.4218-62.6799 44.4378-56.6258L29.6578-26.7123Q28.7761-24.949 29.4194-23.0566Q30.0627-21.1641 31.7656-20.294Q33.5289-19.3635 35.4213-20.0125Q37.3138-20.6616 38.1954-22.4133L48.7599-43.7749Q48.941-44.1485 49.2414-44.101Q49.5418-44.0536 49.5418-43.6772ZM42.6767 14.5423Q44.4284 14.8726 46.1185 13.9421Q47.8085 13.0116 48.3226 10.5994L52.0478-6.58481L59.1312-17.7458L66.2031-6.58481L69.9283 10.5994Q70.4796 13.072 72.23 13.9723Q73.9804 14.8726 75.6948 14.4935Q77.4351 14.1029 78.6053 12.5535Q79.7755 11.0042 79.2614 8.55464L75.4386-9.31585Q75.3897-9.55999 75.3223-9.81703Q75.2548-10.0741 75.1571-10.3555L71.2245-21.4841L47.0752-21.4841L43.0937-10.3555Q42.8726-9.81566 42.8123-9.31585L39.0009 8.55464Q38.4496 11.1019 39.6873 12.6383Q40.925 14.1747 42.6767 14.5423ZM19.5328-15.1331L21.4486-15.1331Q23.1542-15.1331 24.2655-16.2687Q25.3767-17.4043 25.3767-19.1588L25.3767-40.3123Q25.3767-42.0553 24.2655-43.1665Q23.1542-44.2777 21.4486-44.2777L19.5328-44.2777Q17.7783-44.2777 16.6671-43.1665Q15.5559-42.0553 15.5559-40.3123L15.5559-19.1588Q15.5559-17.4043 16.6671-16.2687Q17.7783-15.1331 19.5328-15.1331ZM96.7649-15.1331L98.7181-15.1331Q100.424-15.1331 101.535-16.2687Q102.646-17.4043 102.646-19.1588L102.646-40.3123Q102.646-42.0553 101.535-43.1665Q100.424-44.2777 98.7181-44.2777L96.7649-44.2777Q95.0478-44.2777 93.9365-43.1665Q92.8253-42.0553 92.8253-40.3123L92.8253-19.1588Q92.8253-17.4043 93.9365-16.2687Q95.0478-15.1331 96.7649-15.1331ZM13.3031-26.1622L104.899-26.1622Q106.398-26.1622 107.417-27.2001Q108.436-28.2381 108.436-29.7112Q108.436-31.1727 107.417-32.2106Q106.398-33.2486 104.899-33.2486L13.3031-33.2486Q11.8043-33.2486 10.785-32.2106Q9.76562-31.1727 9.76562-29.7112Q9.76562-28.2381 10.785-27.2001Q11.8043-26.1622 13.3031-26.1622Z"/>
  </g>
  <g id="Bold-S" transform="matrix(1 0 0 1 2281.81 696)">
   <path d="M58.2031-66.1865Q61.9629-66.1865 64.6484-68.8721Q67.334-71.5576 67.334-75.3418Q67.334-79.126 64.6484-81.7871Q61.9629-84.4482 58.2031-84.4482Q54.4189-84.4482 51.7456-81.7871Q49.0723-79.126 49.0723-75.3418Q49.0723-71.5576 51.7456-68.8721Q54.4189-66.1865 58.2031-66.1865ZM48.9746-37.4512L67.4805-37.4512L67.4805-44.3359Q67.4805-44.751 67.8711-44.8364Q68.2617-44.9219 68.4814-44.458L79.1016-22.8516Q79.9316-21.2158 81.7017-20.6055Q83.4717-19.9951 85.1562-20.874Q86.7432-21.6797 87.3413-23.4497Q87.9395-25.2197 87.1094-26.8799L72.4854-56.4453Q69.6045-62.2803 62.9639-62.2803L53.418-62.2803Q46.7773-62.2803 43.8965-56.4453L29.2969-26.8799Q28.4668-25.2197 29.0649-23.4497Q29.6631-21.6797 31.25-20.874Q32.9102-19.9951 34.6802-20.6055Q36.4502-21.2158 37.2803-22.8516L47.9736-44.458Q48.1934-44.9219 48.584-44.8486Q48.9746-44.7754 48.9746-44.3604ZM41.9678 13.5498Q43.6035 13.8672 45.1904 12.9883Q46.7773 12.1094 47.2656 9.83887L50.9521-7.17773L58.2031-19.1895L65.4297-7.17773L69.1162 9.83887Q69.6289 12.1826 71.2891 13.0249Q72.9492 13.8672 74.5605 13.501Q76.1719 13.1104 77.2583 11.6577Q78.3447 10.2051 77.8564 7.91016L74.0723-9.74121Q74.0234-9.98535 73.9624-10.2295Q73.9014-10.4736 73.8037-10.7422L69.6777-22.4121L46.7529-22.4121L42.5781-10.7422Q42.3828-10.2539 42.3096-9.74121L38.5498 7.91016Q38.0371 10.3027 39.1846 11.7554Q40.332 13.208 41.9678 13.5498ZM19.043-15.8936L20.9717-15.8936Q22.5098-15.8936 23.4985-16.9067Q24.4873-17.9199 24.4873-19.5068L24.4873-40.4541Q24.4873-42.0166 23.4985-43.0054Q22.5098-43.9941 20.9717-43.9941L19.043-43.9941Q17.4561-43.9941 16.4673-43.0054Q15.4785-42.0166 15.4785-40.4541L15.4785-19.5068Q15.4785-17.9199 16.4673-16.9067Q17.4561-15.8936 19.043-15.8936ZM95.3857-15.8936L97.3389-15.8936Q98.877-15.8936 99.8657-16.9067Q100.854-17.9199 100.854-19.5068L100.854-40.4541Q100.854-42.0166 99.8657-43.0054Q98.877-43.9941 97.3389-43.9941L95.3857-43.9941Q93.8232-43.9941 92.8345-43.0054Q91.8457-42.0166 91.8457-40.4541L91.8457-19.5068Q91.8457-17.9199 92.8345-16.9067Q93.8232-15.8936 95.3857-15.8936ZM12.8906-26.8066L103.442-26.8066Q104.761-26.8066 105.664-27.7222Q106.567-28.6377 106.567-29.9561Q106.567-31.25 105.664-32.1655Q104.761-33.0811 103.442-33.0811L12.8906-33.0811Q11.5723-33.0811 10.6689-32.1655Q9.76562-31.25 9.76562-29.9561Q9.76562-28.6377 10.6689-27.7222Q11.5723-26.8066 12.8906-26.8066Z"/>
  </g>
  <g id="Semibold-S" transform="matrix(1 0 0 1 1985.74 696)">
   <path d="M57.5633-65.911Q61.2164-65.911 63.8397-68.5255Q66.4631-71.1399 66.4631-74.8441Q66.4631-78.5306 63.8397-81.1206Q61.2164-83.7106 57.5633-83.7106Q53.8591-83.7106 51.2613-81.1206Q48.6635-78.5306 48.6635-74.8441Q48.6635-71.1399 51.2613-68.5255Q53.8591-65.911 57.5633-65.911ZM48.5836-37.149L66.5918-37.149L66.5918-44.798Q66.5918-45.2397 67.0446-45.3474Q67.4975-45.4551 67.7438-44.929L78.4439-23.1537Q79.2385-21.5979 80.9241-21.0143Q82.6097-20.4306 84.2143-21.2739Q85.7212-22.0352 86.2971-23.7208Q86.873-25.4063 86.0785-26.9954L71.57-56.3209Q68.7603-62.0048 62.2796-62.0048L52.8137-62.0048Q46.333-62.0048 43.5232-56.3209L29.048-26.9954Q28.2535-25.4063 28.8206-23.7208Q29.3876-22.0352 30.8945-21.2739Q32.4836-20.4306 34.1692-21.0143Q35.8548-21.5979 36.6493-23.1537L47.4315-44.929Q47.6779-45.4551 48.1308-45.3641Q48.5836-45.273 48.5836-44.8313ZM41.479 12.8655Q43.0348 13.174 44.5506 12.3307Q46.0664 11.4873 46.5369 9.31455L50.1968-7.58652L57.5633-20.1848L64.8965-7.58652L68.5563 9.31455Q69.0424 11.5694 70.6403 12.3717Q72.2383 13.174 73.7785 12.8167Q75.301 12.4261 76.3296 11.0401Q77.3583 9.6541 76.8878 7.46582L73.1303-10.0345Q73.0814-10.2786 73.0249-10.5139Q72.9683-10.7491 72.8706-11.0088L68.6113-23.052L46.5308-23.052L42.2227-11.0088Q42.0451-10.5561 41.963-10.0345L38.2388 7.46582Q37.7527 9.75176 38.838 11.1466Q39.9232 12.5415 41.479 12.8655ZM18.7053-16.4179L20.6429-16.4179Q22.0654-16.4179 22.9698-17.3466Q23.8741-18.2754 23.8741-19.7468L23.8741-40.5519Q23.8741-41.9899 22.9698-42.8943Q22.0654-43.7986 20.6429-43.7986L18.7053-43.7986Q17.2339-43.7986 16.3295-42.8943Q15.4252-41.9899 15.4252-40.5519L15.4252-19.7468Q15.4252-18.2754 16.3295-17.3466Q17.2339-16.4179 18.7053-16.4179ZM94.4349-16.4179L96.388-16.4179Q97.8105-16.4179 98.7149-17.3466Q99.6192-18.2754 99.6192-19.7468L99.6192-40.5519Q99.6192-41.9899 98.7149-42.8943Q97.8105-43.7986 96.388-43.7986L94.4349-43.7986Q92.979-43.7986 92.0747-42.8943Q91.1703-41.9899 91.1703-40.5519L91.1703-19.7468Q91.1703-18.2754 92.0747-17.3466Q92.979-16.4179 94.4349-16.4179ZM12.6062-27.251L102.438-27.251Q103.632-27.251 104.455-28.0821Q105.279-28.9132 105.279-30.1249Q105.279-31.3033 104.455-32.1344Q103.632-32.9655 102.438-32.9655L12.6062-32.9655Q11.4123-32.9655 10.589-32.1344Q9.76562-31.3033 9.76562-30.1249Q9.76562-28.9132 10.589-28.0821Q11.4123-27.251 12.6062-27.251Z"/>
  </g>
  <g id="Medium-S" transform="matrix(1 0 0 1 1689.52 696)">
   <path d="M57.0781-65.7021Q60.6504-65.7021 63.2266-68.2627Q65.8027-70.8232 65.8027-74.4668Q65.8027-78.0791 63.2266-80.6152Q60.6504-83.1514 57.0781-83.1514Q53.4346-83.1514 50.894-80.6152Q48.3535-78.0791 48.3535-74.4668Q48.3535-70.8232 50.894-68.2627Q53.4346-65.7021 57.0781-65.7021ZM48.2871-36.9199L65.918-36.9199L65.918-45.1484Q65.918-45.6104 66.418-45.7349Q66.918-45.8594 67.1846-45.2861L77.9453-23.3828Q78.7129-21.8877 80.3345-21.3242Q81.9561-20.7607 83.5-21.5771Q84.9463-22.3047 85.5054-23.9263Q86.0645-25.5479 85.2969-27.083L70.876-56.2266Q68.1201-61.7959 61.7607-61.7959L52.3555-61.7959Q45.9961-61.7959 43.2402-56.2266L28.8594-27.083Q28.0918-25.5479 28.6353-23.9263Q29.1787-22.3047 30.625-21.5771Q32.1602-20.7607 33.7817-21.3242Q35.4033-21.8877 36.1709-23.3828L47.0205-45.2861Q47.2871-45.8594 47.7871-45.7549Q48.2871-45.6504 48.2871-45.1885ZM41.1084 12.3467Q42.6035 12.6484 44.0654 11.832Q45.5273 11.0156 45.9844 8.91699L49.624-7.89648L57.0781-20.9395L64.4922-7.89648L68.1318 8.91699Q68.5977 11.1045 70.1484 11.8765Q71.6992 12.6484 73.1855 12.2979Q74.6406 11.9072 75.6255 10.5718Q76.6104 9.23633 76.1533 7.12891L72.416-10.2568Q72.3672-10.501 72.314-10.7295Q72.2607-10.958 72.1631-11.2109L67.8027-23.5371L46.3623-23.5371L41.9531-11.2109Q41.7891-10.7852 41.7002-10.2568L38.0029 7.12891Q37.5371 9.33398 38.5752 10.6851Q39.6133 12.0361 41.1084 12.3467ZM18.4492-16.8154L20.3936-16.8154Q21.7285-16.8154 22.5688-17.6802Q23.4092-18.5449 23.4092-19.9287L23.4092-40.626Q23.4092-41.9697 22.5688-42.8101Q21.7285-43.6504 20.3936-43.6504L18.4492-43.6504Q17.0654-43.6504 16.2251-42.8101Q15.3848-41.9697 15.3848-40.626L15.3848-19.9287Q15.3848-18.5449 16.2251-17.6802Q17.0654-16.8154 18.4492-16.8154ZM93.7139-16.8154L95.667-16.8154Q97.002-16.8154 97.8423-17.6802Q98.6826-18.5449 98.6826-19.9287L98.6826-40.626Q98.6826-41.9697 97.8423-42.8101Q97.002-43.6504 95.667-43.6504L93.7139-43.6504Q92.3389-43.6504 91.4985-42.8101Q90.6582-41.9697 90.6582-40.626L90.6582-19.9287Q90.6582-18.5449 91.4985-17.6802Q92.3389-16.8154 93.7139-16.8154ZM12.3906-27.5879L101.677-27.5879Q102.776-27.5879 103.539-28.355Q104.302-29.1221 104.302-30.2529Q104.302-31.3438 103.539-32.1108Q102.776-32.8779 101.677-32.8779L12.3906-32.8779Q11.291-32.8779 10.5283-32.1108Q9.76562-31.3438 9.76562-30.2529Q9.76562-29.1221 10.5283-28.355Q11.291-27.5879 12.3906-27.5879Z"/>
  </g>
  <g id="Regular-S" transform="matrix(1 0 0 1 1393.45 696)">
   <path d="M56.4453-65.4297Q59.9121-65.4297 62.4268-67.9199Q64.9414-70.4102 64.9414-73.9746Q64.9414-77.4902 62.4268-79.9561Q59.9121-82.4219 56.4453-82.4219Q52.8809-82.4219 50.415-79.9561Q47.9492-77.4902 47.9492-73.9746Q47.9492-70.4102 50.415-67.9199Q52.8809-65.4297 56.4453-65.4297ZM47.9004-36.6211L65.0391-36.6211L65.0391-45.6055Q65.0391-46.0938 65.6006-46.2402Q66.1621-46.3867 66.4551-45.752L77.2949-23.6816Q78.0273-22.2656 79.5654-21.7285Q81.1035-21.1914 82.5684-21.9727Q83.9355-22.6562 84.4727-24.1943Q85.0098-25.7324 84.2773-27.1973L69.9707-56.1035Q67.2852-61.5234 61.084-61.5234L51.7578-61.5234Q45.5566-61.5234 42.8711-56.1035L28.6133-27.1973Q27.8809-25.7324 28.3936-24.1943Q28.9062-22.6562 30.2734-21.9727Q31.7383-21.1914 33.2764-21.7285Q34.8145-22.2656 35.5469-23.6816L46.4844-45.752Q46.7773-46.3867 47.3389-46.2646Q47.9004-46.1426 47.9004-45.6543ZM40.625 11.6699Q42.041 11.9629 43.4326 11.1816Q44.8242 10.4004 45.2637 8.39844L48.877-8.30078L56.4453-21.9238L63.9648-8.30078L67.5781 8.39844Q68.0176 10.498 69.5068 11.2305Q70.9961 11.9629 72.4121 11.6211Q73.7793 11.2305 74.707 9.96094Q75.6348 8.69141 75.1953 6.68945L71.4844-10.5469Q71.4355-10.791 71.3867-11.0107Q71.3379-11.2305 71.2402-11.4746L66.748-24.1699L46.1426-24.1699L41.6016-11.4746Q41.4551-11.084 41.3574-10.5469L37.6953 6.68945Q37.2559 8.78906 38.2324 10.083Q39.209 11.377 40.625 11.6699ZM18.1152-17.334L20.0684-17.334Q21.2891-17.334 22.0459-18.1152Q22.8027-18.8965 22.8027-20.166L22.8027-40.7227Q22.8027-41.9434 22.0459-42.7002Q21.2891-43.457 20.0684-43.457L18.1152-43.457Q16.8457-43.457 16.0889-42.7002Q15.332-41.9434 15.332-40.7227L15.332-20.166Q15.332-18.8965 16.0889-18.1152Q16.8457-17.334 18.1152-17.334ZM92.7734-17.334L94.7266-17.334Q95.9473-17.334 96.7041-18.1152Q97.4609-18.8965 97.4609-20.166L97.4609-40.7227Q97.4609-41.9434 96.7041-42.7002Q95.9473-43.457 94.7266-43.457L92.7734-43.457Q91.5039-43.457 90.7471-42.7002Q89.9902-41.9434 89.9902-40.7227L89.9902-20.166Q89.9902-18.8965 90.7471-18.1152Q91.5039-17.334 92.7734-17.334ZM12.1094-28.0273L100.684-28.0273Q101.66-28.0273 102.344-28.7109Q103.027-29.3945 103.027-30.4199Q103.027-31.3965 102.344-32.0801Q101.66-32.7637 100.684-32.7637L12.1094-32.7637Q11.1328-32.7637 10.4492-32.0801Q9.76562-31.3965 9.76562-30.4199Q9.76562-29.3945 10.4492-28.7109Q11.1328-28.0273 12.1094-28.0273Z"/>
  </g>
  <g id="Light-S" transform="matrix(1 0 0 1 1098.51 696)">
   <path d="M54.6593-64.5365Q58.0503-64.5365 60.4816-66.9511Q62.913-69.3657 62.913-72.8244Q62.913-76.2339 60.4816-78.6241Q58.0503-81.0143 54.6593-81.0143Q51.2159-81.0143 48.8257-78.6241Q46.4355-76.2339 46.4355-72.8244Q46.4355-69.3657 48.8257-66.9511Q51.2159-64.5365 54.6593-64.5365ZM46.3867-36.0761L62.9957-36.0761L62.9957-45.3481Q62.9957-45.8214 63.542-45.9602Q64.0884-46.0991 64.3661-45.4946L74.9034-24.0903Q75.6055-22.7046 77.0906-22.1826Q78.5756-21.6606 79.9952-22.4269Q81.3321-23.0802 81.8541-24.5728Q82.3761-26.0653 81.6587-27.4849L67.791-55.5133Q65.166-60.7819 59.1616-60.7819L50.1381-60.7819Q44.1188-60.7819 41.5087-55.5133L27.6749-27.4849Q26.9574-26.0653 27.4626-24.5728Q27.9678-23.0802 29.3048-22.4269Q30.7241-21.6606 32.2093-22.1826Q33.6945-22.7046 34.3966-24.0903L45.001-45.4946Q45.2939-46.0991 45.8403-45.9846Q46.3867-45.8702 46.3867-45.3969ZM39.3384 10.2018Q40.7089 10.4795 42.0551 9.7285Q43.4013 8.97751 43.8258 7.03608L47.333-9.16367L54.6593-22.7715L61.9517-9.16367L65.4742 7.03608Q65.8984 9.07516 67.3499 9.78495Q68.8014 10.4947 70.1871 10.1529Q71.4938 9.76232 72.376 8.53818Q73.2582 7.31405 72.849 5.37262L69.2594-11.334Q69.2106-11.5781 69.1541-11.7902Q69.0976-12.0023 69.0152-12.2314L64.4625-25.0933L44.8863-25.0933L40.2695-12.2314Q40.1382-11.8558 40.0406-11.334L36.4843 5.37262Q36.0601 7.4117 37.0064 8.66776Q37.9527 9.92381 39.3384 10.2018ZM17.2071-17.9242L19.6747-17.9242Q20.7291-17.9242 21.3875-18.6072Q22.0459-19.2902 22.0459-20.3629L22.0459-40.8892Q22.0459-41.9281 21.3875-42.5941Q20.7291-43.2602 19.6747-43.2602L17.2071-43.2602Q16.1191-43.2602 15.4607-42.5941Q14.8023-41.9281 14.8023-40.8892L14.8023-20.3629Q14.8023-19.2902 15.4607-18.6072Q16.1191-17.9242 17.2071-17.9242ZM89.5948-17.9242L92.0776-17.9242Q93.1168-17.9242 93.7828-18.6072Q94.4489-19.2902 94.4489-20.3629L94.4489-40.8892Q94.4489-41.9281 93.7828-42.5941Q93.1168-43.2602 92.0776-43.2602L89.5948-43.2602Q88.5221-43.2602 87.8635-42.5941Q87.205-41.9281 87.205-40.8892L87.205-20.3629Q87.205-19.2902 87.8635-18.6072Q88.5221-17.9242 89.5948-17.9242ZM11.6704-28.6631L97.5807-28.6631Q98.3754-28.6631 98.9304-29.218Q99.4853-29.7729 99.4853-30.6015Q99.4853-31.3965 98.9304-31.959Q98.3754-32.5216 97.5807-32.5216L11.6704-32.5216Q10.8754-32.5216 10.3205-31.959Q9.76562-31.3965 9.76562-30.6015Q9.76562-29.7729 10.3205-29.218Q10.8754-28.6631 11.6704-28.6631Z"/>
  </g>
  <g id="Thin-S" transform="matrix(1 0 0 1 804.139 696)">
   <path d="M52.2971-63.3553Q55.5879-63.3553 57.9091-65.6698Q60.2303-67.9843 60.2303-71.303Q60.2303-74.5724 57.9091-76.8625Q55.5879-79.1526 52.2971-79.1526Q49.0138-79.1526 46.7237-76.8625Q44.4336-74.5724 44.4336-71.303Q44.4336-67.9843 46.7237-65.6698Q49.0138-63.3553 52.2971-63.3553ZM44.3848-35.3553L60.2931-35.3553L60.2931-45.0077Q60.2931-45.4612 60.8195-45.5899Q61.3458-45.7187 61.6034-45.1542L71.7403-24.6308Q72.4025-23.2851 73.8174-22.7831Q75.2323-22.2812 76.592-23.0276Q77.8889-23.6409 78.3909-25.0732Q78.8929-26.5056 78.1953-27.8653L64.9081-54.7326Q62.3632-59.8011 56.6192-59.8011L47.9959-59.8011Q42.217-59.8011 39.7069-54.7326L26.4337-27.8653Q25.7362-26.5056 26.2314-25.0732Q26.7267-23.6409 28.0236-23.0276Q29.3827-22.2812 30.7979-22.7831Q32.2132-23.2851 32.8753-24.6308L43.039-45.1542Q43.332-45.7187 43.8584-45.6143Q44.3848-45.51 44.3848-45.0565ZM37.6368 8.26003Q38.9471 8.51755 40.2333 7.80659Q41.5195 7.09563 41.9241 5.23426L45.291-10.3049L52.2971-23.8925L59.2892-10.3049L62.6916 5.23426Q63.0956 7.19329 64.4971 7.87314Q65.8987 8.55299 67.2444 8.2112Q68.471 7.82057 69.293 6.65647Q70.115 5.49238 69.7459 3.631L66.3167-12.375Q66.2678-12.6191 66.2013-12.8211Q66.1347-13.0231 66.0725-13.2324L61.4398-26.3146L43.2247-26.3146L38.5077-13.2324Q38.3966-12.8766 38.299-12.375L34.8826 3.631Q34.4786 5.59003 35.3848 6.79597Q36.2911 8.00191 37.6368 8.26003ZM16.006-18.7049L19.154-18.7049Q19.9884-18.7049 20.5167-19.2579Q21.0449-19.8108 21.0449-20.6232L21.0449-41.1095Q21.0449-41.9079 20.5167-42.4539Q19.9884-42.9999 19.154-42.9999L16.006-42.9999Q15.1582-42.9999 14.6299-42.4539Q14.1017-41.9079 14.1017-41.1095L14.1017-20.6232Q14.1017-19.8108 14.6299-19.2579Q15.1582-18.7049 16.006-18.7049ZM85.3907-18.7049L88.5742-18.7049Q89.3732-18.7049 89.9192-19.2579Q90.4651-19.8108 90.4651-20.6232L90.4651-41.1095Q90.4651-41.9079 89.9192-42.4539Q89.3732-42.9999 88.5742-42.9999L85.3907-42.9999Q84.5784-42.9999 84.0498-42.4539Q83.5213-41.9079 83.5213-41.1095L83.5213-20.6232Q83.5213-19.8108 84.0498-19.2579Q84.5784-18.7049 85.3907-18.7049ZM11.0899-29.504L93.4769-29.504Q94.0312-29.504 94.4159-29.8887Q94.8006-30.2734 94.8006-30.8417Q94.8006-31.3965 94.4159-31.7989Q94.0312-32.2014 93.4769-32.2014L11.0899-32.2014Q10.5351-32.2014 10.1503-31.7989Q9.76562-31.3965 9.76562-30.8417Q9.76562-30.2734 10.1503-29.8887Q10.5351-29.504 11.0899-29.504Z"/>
  </g>
  <g id="Ultralight-S" transform="matrix(1 0 0 1 508.628 696)">
   <path d="M51.0872-62.7502Q54.3266-62.7502 56.5914-65.0135Q58.8562-67.2768 58.8562-70.5238Q58.8562-73.7213 56.5914-75.9602Q54.3266-78.199 51.0872-78.199Q47.8859-78.199 45.647-75.9602Q43.4082-73.7213 43.4082-70.5238Q43.4082-67.2768 45.647-65.0135Q47.8859-62.7502 51.0872-62.7502ZM43.3594-34.9861L58.9088-34.9861L58.9088-44.8334Q58.9088-45.2766 59.425-45.4002Q59.9411-45.5238 60.1883-44.9799L70.1202-24.9077Q70.7619-23.5825 72.1409-23.0907Q73.5199-22.599 74.8489-23.3353Q76.1253-23.9281 76.6171-25.3296Q77.1088-26.7311 76.4214-28.0602L63.4315-54.3327Q60.9276-59.2987 55.3169-59.2987L46.8987-59.2987Q41.243-59.2987 38.784-54.3327L25.798-28.0602Q25.1106-26.7311 25.6008-25.3296Q26.091-23.9281 27.3674-23.3353Q28.6957-22.599 30.0751-23.0907Q31.4545-23.5825 32.0961-24.9077L42.0341-44.9799Q42.3271-45.5238 42.8432-45.4247Q43.3594-45.3255 43.3594-44.8822ZM36.7653 7.26547Q38.0447 7.51266 39.3002 6.8222Q40.5556 6.13174 40.95 4.31137L44.2451-10.8894L51.0872-24.4667L57.9254-10.8894L61.2663 4.31137Q61.66 6.2294 63.036 6.89392Q64.4119 7.55844 65.7372 7.21664Q66.9228 6.82602 67.7139 5.69267Q68.5051 4.55933 68.1564 2.73895L64.8094-12.9082Q64.7606-13.1523 64.6889-13.3492Q64.6172-13.546 64.5653-13.7451L59.8915-26.9402L42.3737-26.9402L37.6053-13.7451Q37.5046-13.3995 37.4069-12.9082L34.0622 2.73895Q33.6685 4.65698 34.5543 5.83725Q35.4401 7.01752 36.7653 7.26547ZM15.3908-19.1048L18.8873-19.1048Q19.6091-19.1048 20.0706-19.5911Q20.5322-20.0775 20.5322-20.7565L20.5322-41.2224Q20.5322-41.8976 20.0706-42.382Q19.6091-42.8665 18.8873-42.8665L15.3908-42.8665Q14.666-42.8665 14.2044-42.382Q13.7428-41.8976 13.7428-41.2224L13.7428-20.7565Q13.7428-20.0775 14.2044-19.5911Q14.666-19.1048 15.3908-19.1048ZM83.2375-19.1048L86.7798-19.1048Q87.4557-19.1048 87.9402-19.5911Q88.4247-20.0775 88.4247-20.7565L88.4247-41.2224Q88.4247-41.8976 87.9402-42.382Q87.4557-42.8665 86.7798-42.8665L83.2375-42.8665Q82.5584-42.8665 82.0965-42.382Q81.6345-41.8976 81.6345-41.2224L81.6345-20.7565Q81.6345-20.0775 82.0965-19.5911Q82.5584-19.1048 83.2375-19.1048ZM10.7925-29.9347L91.375-29.9347Q91.806-29.9347 92.1036-30.2322Q92.4011-30.5298 92.4011-30.9647Q92.4011-31.3965 92.1036-31.7169Q91.806-32.0374 91.375-32.0374L10.7925-32.0374Q10.3607-32.0374 10.0632-31.7169Q9.76562-31.3965 9.76562-30.9647Q9.76562-30.5298 10.0632-30.2322Q10.3607-29.9347 10.7925-29.9347Z"/>
  </g>
 </g>
</svg>
