<?xml version="1.0" encoding="UTF-8"?>
<!--Generator: Apple Native CoreSVG 175.5-->
<!DOCTYPE svg
PUBLIC "-//W3C//DTD SVG 1.1//EN"
       "http://www.w3.org/Graphics/SVG/1.1/DTD/svg11.dtd">
<svg version="1.1" xmlns="http://www.w3.org/2000/svg" xmlns:xlink="http://www.w3.org/1999/xlink" width="3300" height="2200">
 <!--glyph: "uni1016AE.medium", point size: 100.0, font version: "18.0d9e1", template writer version: "84"-->
 <g id="Notes">
  <rect height="2200" id="artboard" style="fill:white;opacity:1" width="3300" x="0" y="0"/>
  <line style="fill:none;stroke:black;opacity:1;stroke-width:0.5;" x1="263" x2="3036" y1="292" y2="292"/>
  <text style="stroke:none;fill:black;font-family:sans-serif;font-size:13;font-weight:bold;" transform="matrix(1 0 0 1 263 322)">Weight/Scale Variations</text>
  <text style="stroke:none;fill:black;font-family:sans-serif;font-size:13;text-anchor:middle;" transform="matrix(1 0 0 1 559.711 322)">Ultralight</text>
  <text style="stroke:none;fill:black;font-family:sans-serif;font-size:13;text-anchor:middle;" transform="matrix(1 0 0 1 856.422 322)">Thin</text>
  <text style="stroke:none;fill:black;font-family:sans-serif;font-size:13;text-anchor:middle;" transform="matrix(1 0 0 1 1153.13 322)">Light</text>
  <text style="stroke:none;fill:black;font-family:sans-serif;font-size:13;text-anchor:middle;" transform="matrix(1 0 0 1 1449.84 322)">Regular</text>
  <text style="stroke:none;fill:black;font-family:sans-serif;font-size:13;text-anchor:middle;" transform="matrix(1 0 0 1 1746.56 322)">Medium</text>
  <text style="stroke:none;fill:black;font-family:sans-serif;font-size:13;text-anchor:middle;" transform="matrix(1 0 0 1 2043.27 322)">Semibold</text>
  <text style="stroke:none;fill:black;font-family:sans-serif;font-size:13;text-anchor:middle;" transform="matrix(1 0 0 1 2339.98 322)">Bold</text>
  <text style="stroke:none;fill:black;font-family:sans-serif;font-size:13;text-anchor:middle;" transform="matrix(1 0 0 1 2636.69 322)">Heavy</text>
  <text style="stroke:none;fill:black;font-family:sans-serif;font-size:13;text-anchor:middle;" transform="matrix(1 0 0 1 2933.4 322)">Black</text>
  <line style="fill:none;stroke:black;opacity:1;stroke-width:0.5;" x1="263" x2="3036" y1="1903" y2="1903"/>
  <g transform="matrix(1 0 0 1 263 1933)">
   <path d="M9.24805 0.830078Q10.8691 0.830078 12.2949 0.214844Q13.7207-0.400391 14.8096-1.49414Q15.8984-2.58789 16.5186-4.01367Q17.1387-5.43945 17.1387-7.05078Q17.1387-8.66211 16.5186-10.0879Q15.8984-11.5137 14.8047-12.6074Q13.7109-13.7012 12.2852-14.3164Q10.8594-14.9316 9.23828-14.9316Q7.62695-14.9316 6.20117-14.3164Q4.77539-13.7012 3.69141-12.6074Q2.60742-11.5137 1.9873-10.0879Q1.36719-8.66211 1.36719-7.05078Q1.36719-5.43945 1.9873-4.01367Q2.60742-2.58789 3.69629-1.49414Q4.78516-0.400391 6.21094 0.214844Q7.63672 0.830078 9.24805 0.830078ZM9.24805-0.654297Q7.91992-0.654297 6.7627-1.14746Q5.60547-1.64062 4.73145-2.51953Q3.85742-3.39844 3.36426-4.56055Q2.87109-5.72266 2.87109-7.05078Q2.87109-8.37891 3.35938-9.54102Q3.84766-10.7031 4.72168-11.582Q5.5957-12.4609 6.75293-12.9541Q7.91016-13.4473 9.23828-13.4473Q10.5762-13.4473 11.7383-12.9541Q12.9004-12.4609 13.7793-11.582Q14.6582-10.7031 15.1514-9.54102Q15.6445-8.37891 15.6445-7.05078Q15.6445-5.72266 15.1514-4.56055Q14.6582-3.39844 13.7793-2.51953Q12.9004-1.64062 11.7432-1.14746Q10.5859-0.654297 9.24805-0.654297ZM5.6543-7.05078Q5.6543-6.72852 5.85938-6.52832Q6.06445-6.32812 6.40625-6.32812L8.51562-6.32812L8.51562-4.20898Q8.51562-3.88672 8.71094-3.67676Q8.90625-3.4668 9.23828-3.4668Q9.56055-3.4668 9.77051-3.67676Q9.98047-3.88672 9.98047-4.20898L9.98047-6.32812L12.0898-6.32812Q12.4219-6.32812 12.627-6.52832Q12.832-6.72852 12.832-7.05078Q12.832-7.38281 12.627-7.58789Q12.4219-7.79297 12.0898-7.79297L9.98047-7.79297L9.98047-9.90234Q9.98047-10.2344 9.77051-10.4443Q9.56055-10.6543 9.23828-10.6543Q8.90625-10.6543 8.71094-10.4443Q8.51562-10.2344 8.51562-9.90234L8.51562-7.79297L6.40625-7.79297Q6.06445-7.79297 5.85938-7.58789Q5.6543-7.38281 5.6543-7.05078Z"/>
  </g>
  <g transform="matrix(1 0 0 1 281.867 1933)">
   <path d="M11.709 2.91016Q13.75 2.91016 15.5518 2.12891Q17.3535 1.34766 18.7305-0.0292969Q20.1074-1.40625 20.8887-3.20801Q21.6699-5.00977 21.6699-7.05078Q21.6699-9.0918 20.8887-10.8936Q20.1074-12.6953 18.7305-14.0723Q17.3535-15.4492 15.5469-16.2305Q13.7402-17.0117 11.6992-17.0117Q9.6582-17.0117 7.85645-16.2305Q6.05469-15.4492 4.68262-14.0723Q3.31055-12.6953 2.5293-10.8936Q1.74805-9.0918 1.74805-7.05078Q1.74805-5.00977 2.5293-3.20801Q3.31055-1.40625 4.6875-0.0292969Q6.06445 1.34766 7.86621 2.12891Q9.66797 2.91016 11.709 2.91016ZM11.709 1.25Q9.98047 1.25 8.47656 0.605469Q6.97266-0.0390625 5.83496-1.17676Q4.69727-2.31445 4.05762-3.81836Q3.41797-5.32227 3.41797-7.05078Q3.41797-8.7793 4.05762-10.2832Q4.69727-11.7871 5.83008-12.9297Q6.96289-14.0723 8.4668-14.7119Q9.9707-15.3516 11.6992-15.3516Q13.4277-15.3516 14.9365-14.7119Q16.4453-14.0723 17.583-12.9297Q18.7207-11.7871 19.3652-10.2832Q20.0098-8.7793 20.0098-7.05078Q20.0098-5.32227 19.3701-3.81836Q18.7305-2.31445 17.5879-1.17676Q16.4453-0.0390625 14.9414 0.605469Q13.4375 1.25 11.709 1.25ZM7.17773-7.05078Q7.17773-6.69922 7.41211-6.47461Q7.64648-6.25 8.01758-6.25L10.8887-6.25L10.8887-3.36914Q10.8887-2.99805 11.1133-2.76855Q11.3379-2.53906 11.6895-2.53906Q12.0605-2.53906 12.29-2.76855Q12.5195-2.99805 12.5195-3.36914L12.5195-6.25L15.4004-6.25Q15.7715-6.25 16.001-6.47461Q16.2305-6.69922 16.2305-7.05078Q16.2305-7.42188 16.001-7.65137Q15.7715-7.88086 15.4004-7.88086L12.5195-7.88086L12.5195-10.752Q12.5195-11.1328 12.29-11.3623Q12.0605-11.5918 11.6895-11.5918Q11.3379-11.5918 11.1133-11.3574Q10.8887-11.123 10.8887-10.752L10.8887-7.88086L8.01758-7.88086Q7.63672-7.88086 7.40723-7.65137Q7.17773-7.42188 7.17773-7.05078Z"/>
  </g>
  <g transform="matrix(1 0 0 1 305.646 1933)">
   <path d="M14.9707 5.66406Q17.0605 5.66406 18.96 5.01465Q20.8594 4.36523 22.4512 3.19336Q24.043 2.02148 25.2197 0.429688Q26.3965-1.16211 27.0459-3.06641Q27.6953-4.9707 27.6953-7.05078Q27.6953-9.14062 27.0459-11.04Q26.3965-12.9395 25.2197-14.5312Q24.043-16.123 22.4512-17.2998Q20.8594-18.4766 18.9551-19.126Q17.0508-19.7754 14.9609-19.7754Q12.8711-19.7754 10.9717-19.126Q9.07227-18.4766 7.48535-17.2998Q5.89844-16.123 4.72168-14.5312Q3.54492-12.9395 2.90039-11.04Q2.25586-9.14062 2.25586-7.05078Q2.25586-4.9707 2.90527-3.06641Q3.55469-1.16211 4.72656 0.429688Q5.89844 2.02148 7.49023 3.19336Q9.08203 4.36523 10.9814 5.01465Q12.8809 5.66406 14.9707 5.66406ZM14.9707 3.84766Q13.1641 3.84766 11.5283 3.2959Q9.89258 2.74414 8.53516 1.74805Q7.17773 0.751953 6.17676-0.610352Q5.17578-1.97266 4.62891-3.6084Q4.08203-5.24414 4.08203-7.05078Q4.08203-8.86719 4.62891-10.5029Q5.17578-12.1387 6.17188-13.501Q7.16797-14.8633 8.52539-15.8594Q9.88281-16.8555 11.5186-17.4023Q13.1543-17.9492 14.9609-17.9492Q16.7773-17.9492 18.4131-17.4023Q20.0488-16.8555 21.4111-15.8594Q22.7734-14.8633 23.7744-13.501Q24.7754-12.1387 25.3223-10.5029Q25.8691-8.86719 25.8691-7.05078Q25.8691-5.24414 25.3223-3.6084Q24.7754-1.97266 23.7793-0.610352Q22.7832 0.751953 21.4209 1.74805Q20.0586 2.74414 18.4229 3.2959Q16.7871 3.84766 14.9707 3.84766ZM9.19922-7.05078Q9.19922-6.66992 9.45801-6.4209Q9.7168-6.17188 10.1172-6.17188L14.0625-6.17188L14.0625-2.2168Q14.0625-1.81641 14.3115-1.55762Q14.5605-1.29883 14.9512-1.29883Q15.3516-1.29883 15.6104-1.55273Q15.8691-1.80664 15.8691-2.2168L15.8691-6.17188L19.8242-6.17188Q20.2246-6.17188 20.4785-6.4209Q20.7324-6.66992 20.7324-7.05078Q20.7324-7.46094 20.4785-7.71484Q20.2246-7.96875 19.8242-7.96875L15.8691-7.96875L15.8691-11.9141Q15.8691-12.3242 15.6104-12.583Q15.3516-12.8418 14.9512-12.8418Q14.5605-12.8418 14.3115-12.583Q14.0625-12.3242 14.0625-11.9141L14.0625-7.96875L10.1172-7.96875Q9.70703-7.96875 9.45312-7.71484Q9.19922-7.46094 9.19922-7.05078Z"/>
  </g>
  <text style="stroke:none;fill:black;font-family:sans-serif;font-size:13;font-weight:bold;" transform="matrix(1 0 0 1 263 1953)">Design Variations</text>
  <text style="stroke:none;fill:black;font-family:sans-serif;font-size:13;" transform="matrix(1 0 0 1 263 1971)">Symbols are supported in up to nine weights and three scales.</text>
  <text style="stroke:none;fill:black;font-family:sans-serif;font-size:13;" transform="matrix(1 0 0 1 263 1989)">For optimal layout with text and other symbols, vertically align</text>
  <text style="stroke:none;fill:black;font-family:sans-serif;font-size:13;" transform="matrix(1 0 0 1 263 2007)">symbols with the adjacent text.</text>
  <line style="fill:none;stroke:#00AEEF;stroke-width:0.5;opacity:1.0;" x1="776" x2="776" y1="1919" y2="1933"/>
  <g transform="matrix(1 0 0 1 776 1933)">
   <path d="M3.31055 0.15625Q3.70117 0.15625 3.91602-0.00976562Q4.13086-0.175781 4.26758-0.585938L5.52734-4.0332L11.2891-4.0332L12.5488-0.585938Q12.6855-0.175781 12.9004-0.00976562Q13.1152 0.15625 13.4961 0.15625Q13.8867 0.15625 14.1162-0.0585938Q14.3457-0.273438 14.3457-0.644531Q14.3457-0.869141 14.2383-1.17188L9.6582-13.3691Q9.48242-13.8184 9.17969-14.043Q8.87695-14.2676 8.4082-14.2676Q7.5-14.2676 7.17773-13.3789L2.59766-1.16211Q2.49023-0.859375 2.49023-0.634766Q2.49023-0.263672 2.70996-0.0537109Q2.92969 0.15625 3.31055 0.15625ZM6.00586-5.51758L8.37891-12.0898L8.42773-12.0898L10.8008-5.51758Z"/>
  </g>
  <line style="fill:none;stroke:#00AEEF;stroke-width:0.5;opacity:1.0;" x1="793.197" x2="793.197" y1="1919" y2="1933"/>
  <text style="stroke:none;fill:black;font-family:sans-serif;font-size:13;font-weight:bold;" transform="matrix(1 0 0 1 776 1953)">Margins</text>
  <text style="stroke:none;fill:black;font-family:sans-serif;font-size:13;" transform="matrix(1 0 0 1 776 1971)">Leading and trailing margins on the left and right side of each symbol</text>
  <text style="stroke:none;fill:black;font-family:sans-serif;font-size:13;" transform="matrix(1 0 0 1 776 1989)">can be adjusted by modifying the x-location of the margin guidelines.</text>
  <text style="stroke:none;fill:black;font-family:sans-serif;font-size:13;" transform="matrix(1 0 0 1 776 2007)">Modifications are automatically applied proportionally to all</text>
  <text style="stroke:none;fill:black;font-family:sans-serif;font-size:13;" transform="matrix(1 0 0 1 776 2025)">scales and weights.</text>
  <g transform="matrix(1 0 0 1 1289 1933)">
   <path d="M2.8418 1.86523L4.54102 3.57422Q5.18555 4.22852 5.90332 4.17969Q6.62109 4.13086 7.31445 3.35938L18.0078-8.42773L17.041-9.4043L6.42578 2.27539Q6.16211 2.57812 5.89355 2.61719Q5.625 2.65625 5.27344 2.30469L4.10156 1.14258Q3.75 0.791016 3.79395 0.522461Q3.83789 0.253906 4.14062-0.0195312L15.6152-10.8203L14.6387-11.7871L3.04688-0.898438Q2.30469-0.214844 2.25098 0.498047Q2.19727 1.21094 2.8418 1.86523ZM9.25781-16.3281Q8.94531-16.0254 8.90625-15.6348Q8.86719-15.2441 9.04297-14.9512Q9.21875-14.6777 9.55566-14.541Q9.89258-14.4043 10.3809-14.5215Q11.4746-14.7754 12.5977-14.7314Q13.7207-14.6875 14.7949-13.9844L14.209-12.5293Q13.9551-11.9043 14.0674-11.4404Q14.1797-10.9766 14.5801-10.5664L16.875-8.25195Q17.2363-7.88086 17.5781-7.82227Q17.9199-7.76367 18.3398-7.8418L19.4043-8.03711L20.0684-7.36328L20.0293-6.80664Q20-6.43555 20.1221-6.12305Q20.2441-5.81055 20.6055-5.44922L21.3672-4.70703Q21.7285-4.3457 22.1533-4.33105Q22.5781-4.31641 22.9297-4.66797L25.8398-7.58789Q26.1914-7.93945 26.1816-8.35449Q26.1719-8.76953 25.8105-9.13086L25.0391-9.89258Q24.6875-10.2539 24.3799-10.3857Q24.0723-10.5176 23.7109-10.4883L23.1348-10.4395L22.4902-11.0742L22.7344-12.1973Q22.832-12.6172 22.6953-12.9834Q22.5586-13.3496 22.1191-13.7891L19.9219-15.9766Q18.6719-17.2168 17.2607-17.8369Q15.8496-18.457 14.4189-18.4814Q12.9883-18.5059 11.665-17.959Q10.3418-17.4121 9.25781-16.3281ZM10.752-15.957Q11.6602-16.6211 12.7002-16.9043Q13.7402-17.1875 14.8047-17.085Q15.8691-16.9824 16.8701-16.5137Q17.8711-16.0449 18.7012-15.2051L21.1328-12.793Q21.3086-12.6172 21.3525-12.4512Q21.3965-12.2852 21.3379-12.0312L21.0156-10.5469L22.5195-9.0625L23.5059-9.12109Q23.6914-9.13086 23.7891-9.09668Q23.8867-9.0625 24.0332-8.91602L24.6094-8.33984L22.168-5.89844L21.5918-6.47461Q21.4453-6.62109 21.4062-6.71875Q21.3672-6.81641 21.377-7.01172L21.4453-7.98828L19.9512-9.47266L18.4277-9.21875Q18.1836-9.16992 18.042-9.2041Q17.9004-9.23828 17.7148-9.41406L15.7129-11.416Q15.5176-11.5918 15.4932-11.7529Q15.4688-11.9141 15.5859-12.1875L16.4648-14.2773Q15.293-15.3711 13.8281-15.791Q12.3633-16.2109 10.8398-15.7617Q10.7227-15.7324 10.6885-15.8057Q10.6543-15.8789 10.752-15.957Z"/>
  </g>
  <text style="stroke:none;fill:black;font-family:sans-serif;font-size:13;font-weight:bold;" transform="matrix(1 0 0 1 1289 1953)">Exporting</text>
  <text style="stroke:none;fill:black;font-family:sans-serif;font-size:13;" transform="matrix(1 0 0 1 1289 1971)">Symbols should be outlined when exporting to ensure the</text>
  <text style="stroke:none;fill:black;font-family:sans-serif;font-size:13;" transform="matrix(1 0 0 1 1289 1989)">design is preserved when submitting to Xcode.</text>
  <text id="template-version" style="stroke:none;fill:black;font-family:sans-serif;font-size:13;text-anchor:end;" transform="matrix(1 0 0 1 3036 1933)">Template v.2.0</text>
  <text style="stroke:none;fill:black;font-family:sans-serif;font-size:13;text-anchor:end;" transform="matrix(1 0 0 1 3036 1951)">Requires Xcode 12 or greater</text>
  <text id="descriptive-name" style="stroke:none;fill:black;font-family:sans-serif;font-size:13;text-anchor:end;" transform="matrix(1 0 0 1 3036 1969)">Generated from pill.fill</text>
  <text style="stroke:none;fill:black;font-family:sans-serif;font-size:13;text-anchor:end;" transform="matrix(1 0 0 1 3036 1987)">Typeset at 100 points</text>
  <text style="stroke:none;fill:black;font-family:sans-serif;font-size:13;" transform="matrix(1 0 0 1 263 726)">Small</text>
  <text style="stroke:none;fill:black;font-family:sans-serif;font-size:13;" transform="matrix(1 0 0 1 263 1156)">Medium</text>
  <text style="stroke:none;fill:black;font-family:sans-serif;font-size:13;" transform="matrix(1 0 0 1 263 1586)">Large</text>
 </g>
 <g id="Guides">
  <g id="H-reference" style="fill:#27AAE1;stroke:none;" transform="matrix(1 0 0 1 339 696)">
   <path d="M0.993347 0L3.6377 0L29.3282-67.1326L30.0301-67.1326L30.0301-70.459L28.1227-70.459ZM11.6882-24.4797L46.9818-24.4797L46.2311-26.7288L12.4382-26.7288ZM55.1193 0L57.7637 0L30.6381-70.459L29.4327-70.459L29.4327-67.1326Z"/>
  </g>
  <line id="Baseline-S" style="fill:none;stroke:#27AAE1;opacity:1;stroke-width:0.5;" x1="263" x2="3036" y1="696" y2="696"/>
  <line id="Capline-S" style="fill:none;stroke:#27AAE1;opacity:1;stroke-width:0.5;" x1="263" x2="3036" y1="625.541" y2="625.541"/>
  <g id="H-reference" style="fill:#27AAE1;stroke:none;" transform="matrix(1 0 0 1 339 1126)">
   <path d="M0.993347 0L3.6377 0L29.3282-67.1326L30.0301-67.1326L30.0301-70.459L28.1227-70.459ZM11.6882-24.4797L46.9818-24.4797L46.2311-26.7288L12.4382-26.7288ZM55.1193 0L57.7637 0L30.6381-70.459L29.4327-70.459L29.4327-67.1326Z"/>
  </g>
  <line id="Baseline-M" style="fill:none;stroke:#27AAE1;opacity:1;stroke-width:0.5;" x1="263" x2="3036" y1="1126" y2="1126"/>
  <line id="Capline-M" style="fill:none;stroke:#27AAE1;opacity:1;stroke-width:0.5;" x1="263" x2="3036" y1="1055.54" y2="1055.54"/>
  <g id="H-reference" style="fill:#27AAE1;stroke:none;" transform="matrix(1 0 0 1 339 1556)">
   <path d="M0.993347 0L3.6377 0L29.3282-67.1326L30.0301-67.1326L30.0301-70.459L28.1227-70.459ZM11.6882-24.4797L46.9818-24.4797L46.2311-26.7288L12.4382-26.7288ZM55.1193 0L57.7637 0L30.6381-70.459L29.4327-70.459L29.4327-67.1326Z"/>
  </g>
  <line id="Baseline-L" style="fill:none;stroke:#27AAE1;opacity:1;stroke-width:0.5;" x1="263" x2="3036" y1="1556" y2="1556"/>
  <line id="Capline-L" style="fill:none;stroke:#27AAE1;opacity:1;stroke-width:0.5;" x1="263" x2="3036" y1="1485.54" y2="1485.54"/>
  <line id="left-margin" style="fill:none;stroke:#00AEEF;stroke-width:0.5;opacity:1.0;" x1="1390.82" x2="1390.82" y1="1030.79" y2="1150.12"/>
  <line id="right-margin" style="fill:none;stroke:#00AEEF;stroke-width:0.5;opacity:1.0;" x1="1508.87" x2="1508.87" y1="1030.79" y2="1150.12"/>
 </g>
 <g id="Symbols">
  <g id="Black-L" transform="matrix(1 0 0 1 2850.99 1556)">
   <path d="M50.182-54.998L26.7233-31.5381Q18.9438-23.7378 16.0785-14.2348Q13.2133-4.73182 15.4957 4.68633Q17.7781 14.1045 25.2414 21.6471Q32.784 29.1688 42.1723 31.4408Q51.5607 33.7128 61.0637 30.858Q70.5667 28.0031 78.3681 20.2028L101.923-3.35314ZM139.561-92.6942Q132.078-100.216 122.66-102.489Q113.243-104.761 103.74-101.906Q94.2366-99.0514 86.4571-91.2511L63.114-67.9872L114.874-16.2839L138.081-39.5102Q145.94-47.3689 148.765-56.8427Q151.59-66.3165 149.347-75.7236Q147.103-85.1308 139.561-92.6942Z"/>
  </g>
  <g id="Heavy-L" transform="matrix(1 0 0 1 2555.81 1556)">
   <path d="M50.2763-54.8492L26.4471-31.0143Q18.7999-23.337 16.0179-14.1621Q13.2359-4.98718 15.483 4.07312Q17.73 13.1334 24.9602 20.4384Q32.265 27.713 41.3002 29.945Q50.3353 32.177 59.5103 29.4101Q68.6852 26.6432 76.3681 18.9659L100.256-4.92817ZM136.752-91.3895Q129.497-98.6642 120.44-100.899Q111.383-103.134 102.208-100.367Q93.0327-97.5999 85.3855-89.9226L61.6399-66.2517L111.645-16.286L135.276-39.9425Q142.998-47.6644 145.74-56.817Q148.482-65.9696 146.269-75.012Q144.057-84.0544 136.752-91.3895Z"/>
  </g>
  <g id="Bold-L" transform="matrix(1 0 0 1 2260.95 1556)">
   <path d="M50.414-54.7095L26.1462-30.4284Q18.6604-22.9047 15.9634-14.1035Q13.2665-5.3023 15.4527 3.34968Q17.6389 12.0017 24.592 19.0221Q31.6122 26.0042 40.2429 28.1714Q48.8736 30.3386 57.6749 27.6607Q66.4762 24.9827 74.013 17.459L98.3013-6.84266ZM133.42-89.8578Q126.443-96.8401 117.797-99.0139Q109.152-101.188 100.351-98.5097Q91.5495-95.8317 84.0637-88.308L59.841-64.1524L107.753-16.2563L131.893-40.4207Q139.446-47.9736 142.102-56.7601Q144.759-65.5467 142.6-74.1731Q140.441-82.7995 133.42-89.8578Z"/>
  </g>
  <g id="Semibold-L" transform="matrix(1 0 0 1 1965.5 1556)">
   <path d="M50.5089-54.6132L25.9387-30.0244Q18.5642-22.6066 15.9259-14.0631Q13.2877-5.51954 15.4318 2.85094Q17.576 11.2214 24.3382 18.0457Q31.1621 24.8261 39.514 26.9487Q47.8659 29.0713 56.4096 26.4546Q64.9533 23.838 72.3894 16.4202L96.9535-8.16249ZM131.124-88.8018Q124.336-95.5826 115.975-97.7143Q107.614-99.846 99.0706-97.2294Q90.527-94.6127 83.1525-87.1949L58.6009-62.7051L105.07-16.2359L129.56-40.7503Q136.996-48.1867 139.594-56.7209Q142.192-65.2552 140.07-73.5948Q137.947-81.9343 131.124-88.8018Z"/>
  </g>
  <g id="Medium-L" transform="matrix(1 0 0 1 1669.76 1556)">
   <path d="M50.5808-54.5401L25.7814-29.7181Q18.4912-22.3806 15.8975-14.0324Q13.3037-5.68426 15.416 2.47278Q17.5283 10.6298 24.1457 17.3054Q30.8209 23.9329 38.9614 26.0216Q47.1018 28.1103 55.4502 25.5401Q63.7986 22.97 71.1583 15.6325L95.9314-9.16325ZM129.382-88.0011Q122.74-94.629 114.594-96.7289Q106.448-98.8287 98.0999-96.2586Q89.7517-93.6884 82.4615-86.3509L57.6605-61.6077L103.036-16.2203L127.791-41.0003Q135.139-48.3483 137.693-56.6912Q140.246-65.0342 138.152-73.1562Q136.057-81.2783 129.382-88.0011Z"/>
  </g>
  <g id="Regular-L" transform="matrix(1 0 0 1 1374.3 1556)">
   <path d="M50.6746-54.4449L25.5763-29.3186Q18.3961-22.0859 15.8603-13.9925Q13.3246-5.89911 15.3954 1.97952Q17.4662 9.85815 23.8947 16.3397Q30.3758 22.7678 38.2405 24.8123Q46.1052 26.8568 54.1988 24.3473Q62.2924 21.8379 69.5526 14.6051L94.5984-10.4686ZM127.11-86.9568Q120.657-93.3853 112.792-95.4435Q104.927-97.5018 96.8339-94.9923Q88.7405-92.4828 81.5603-85.2501L56.434-60.1764L100.383-16.2001L125.484-41.3263Q132.717-48.5591 135.212-56.6525Q137.708-64.7458 135.65-72.5843Q133.591-80.4227 127.11-86.9568Z"/>
  </g>
  <g id="Light-L" transform="matrix(1 0 0 1 1078.46 1556)">
   <path d="M50.9036-54.6356L25.6337-29.3186Q18.5487-22.2004 15.9557-14.1547Q13.3627-6.10914 15.2809 1.71226Q17.1991 9.53365 23.5131 15.8818Q29.8605 22.1951 37.6583 24.0966Q45.4562 25.9981 53.5022 23.4218Q61.5482 20.8454 68.7128 13.7272L93.9494-11.5566ZM125.755-86.4415Q119.454-92.7556 111.656-94.6802Q103.859-96.6049 95.8129-94.0286Q87.7673-91.4522 80.6823-84.3339L55.3653-59.0502L98.398-15.9711L123.728-41.2882Q130.846-48.4064 133.399-56.452Q135.952-64.4977 134.027-72.2788Q132.103-80.06 125.755-86.4415Z"/>
  </g>
  <g id="Thin-L" transform="matrix(1 0 0 1 782.896 1556)">
   <path d="M51.2064-54.888L25.7096-29.3186Q18.7506-22.3518 16.0819-14.3693Q13.4132-6.38692 15.1295 1.35877Q16.8458 9.10447 23.0085 15.2762Q29.179 21.4377 36.8884 23.15Q44.5978 24.8624 52.5808 22.1976Q60.5638 19.5329 67.6021 12.566L93.091-12.9955ZM123.963-85.76Q117.864-91.9226 110.154-93.6707Q102.445-95.4187 94.4626-92.7539Q86.4802-90.0892 79.5211-83.1223L53.9518-57.5608L95.7729-15.6683L121.406-41.2377Q128.373-48.2046 131.001-56.187Q133.63-64.1694 131.882-71.8749Q130.134-79.5804 123.963-85.76Z"/>
  </g>
  <g id="Ultralight-L" transform="matrix(1 0 0 1 486.774 1556)">
   <path d="M51.3615-55.0172L25.7485-29.3186Q18.854-22.4293 16.1465-14.4792Q13.4391-6.5292 15.0519 1.17772Q16.6648 8.88464 22.75 14.966Q28.8299 21.0497 36.494 22.6652Q44.1581 24.2807 52.1089 21.5706Q60.0597 18.8606 67.0332 11.9712L92.6514-13.7325ZM123.045-85.4109Q117.049-91.496 109.385-93.1536Q101.721-94.8111 93.771-92.1011Q85.8209-89.391 78.9264-82.5017L53.2278-56.7979L94.4283-15.5132L120.216-41.2118Q127.106-48.1012 129.773-56.0512Q132.44-64.0013 130.783-71.668Q129.125-79.3347 123.045-85.4109Z"/>
  </g>
  <g id="Black-M" transform="matrix(1 0 0 1 2868.35 1126)">
   <path d="M38.828-50.6988L20.9488-32.8198Q14.8208-26.6864 12.5217-19.0485Q10.2226-11.4107 12.0006-3.81423Q13.7785 3.78219 19.7456 9.8119Q25.7754 15.8361 33.3434 17.6113Q40.9114 19.3865 48.5492 17.0902Q56.1871 14.7938 62.3202 8.66038L80.3082-9.32732ZM110.354-80.8012Q104.381-86.8255 96.7841-88.6005Q89.1875-90.3756 81.5497-88.0792Q73.9118-85.7828 67.7839-79.6494L50.0191-61.9472L91.505-20.5187L109.15-38.1693Q115.34-44.3598 117.608-51.9691Q119.876-59.5784 118.13-67.1722Q116.383-74.766 110.354-80.8012Z"/>
  </g>
  <g id="Heavy-M" transform="matrix(1 0 0 1 2573.06 1126)">
   <path d="M38.8991-50.5357L20.6735-32.3077Q14.6661-26.284 12.4537-18.9624Q10.2412-11.6409 11.9987-4.38903Q13.7562 2.86286 19.5059 8.67258Q25.3155 14.4658 32.5445 16.2151Q39.7734 17.9644 47.095 15.7602Q54.4165 13.5559 60.4425 7.53216L78.739-10.7667ZM107.733-79.5734Q101.969-85.3667 94.7185-87.1171Q87.4678-88.8675 80.1463-86.6633Q72.8247-84.459 66.8174-78.4352L48.6767-60.3545L88.5307-20.5419L106.57-38.5954Q112.637-44.6627 114.819-51.9624Q117-59.2622 115.271-66.5047Q113.543-73.7473 107.733-79.5734Z"/>
  </g>
  <g id="Bold-M" transform="matrix(1 0 0 1 2277.94 1126)">
   <path d="M38.9787-50.3532L20.3655-31.7349Q14.493-25.8339 12.3775-18.8662Q10.262-11.8985 11.9966-5.03202Q13.7312 1.83445 19.2377 7.39808Q24.8012 12.933 31.6508 14.6533Q38.5004 16.3736 45.4681 14.2724Q52.4359 12.1712 58.342 6.27008L76.9837-12.3768ZM104.802-78.1998Q99.2718-83.7348 92.4079-85.4577Q85.544-87.1805 78.5764-85.0793Q71.6087-82.9781 65.7362-77.077L47.175-58.5729L85.2035-20.5679L103.684-39.072Q109.614-45.0016 111.698-51.955Q113.782-58.9084 112.074-65.758Q110.365-72.6076 104.802-78.1998Z"/>
  </g>
  <g id="Semibold-M" transform="matrix(1 0 0 1 1982.33 1126)">
   <path d="M39.0335-50.2275L20.1532-31.3401Q14.3737-25.5235 12.325-18.7998Q10.2763-12.0761 11.9952-5.47529Q13.714 1.12548 19.0527 6.51945Q24.4466 11.8762 31.0347 13.5766Q37.6228 15.2769 44.3466 13.2467Q51.0704 11.2165 56.894 5.40001L75.7736-13.4867ZM102.781-77.2529Q97.4122-82.6098 90.815-84.3137Q84.2178-86.0176 77.4941-83.9874Q70.7703-81.9571 64.9908-76.1406L46.1397-57.3447L82.9097-20.5858L101.695-39.4006Q107.529-45.2352 109.547-51.9499Q111.564-58.6646 109.87-65.2433Q108.175-71.822 102.781-77.2529Z"/>
  </g>
  <g id="Medium-M" transform="matrix(1 0 0 1 1686.45 1126)">
   <path d="M39.0751-50.1321L19.9923-31.0406Q14.2832-25.2883 12.2852-18.7495Q10.2872-12.2107 11.9941-5.8114Q13.701 0.587901 18.9125 5.85324Q24.1777 11.0749 30.5676 12.7601Q36.9574 14.4454 43.4962 12.469Q50.0351 10.4927 55.796 4.74028L74.856-14.3284ZM101.249-76.5349Q96.0022-81.7568 89.6072-83.4462Q83.2122-85.1357 76.6734-83.1594Q70.1347-81.183 64.4256-75.4306L45.3547-56.4134L81.1705-20.5994L100.186-39.6497Q105.949-45.4124 107.916-51.946Q109.882-58.4797 108.198-64.853Q106.514-71.2262 101.249-76.5349Z"/>
  </g>
  <g id="Regular-M" transform="matrix(1 0 0 1 1390.82 1126)">
   <path d="M39.1293-50.0077L19.7823-30.6501Q14.1652-24.9814 12.2333-18.6838Q10.3014-12.3863 11.9927-6.24981Q13.684-0.113284 18.7297 4.98426Q23.827 10.0298 29.9582 11.6953Q36.0894 13.3607 42.387 11.4546Q48.6846 9.54852 54.3639 3.87977L73.6592-15.4262ZM99.2499-75.5984Q94.163-80.6441 88.0318-82.3148Q81.9006-83.9855 75.6031-82.0794Q69.3055-80.1733 63.6885-74.5046L44.3308-55.1986L78.9019-20.6171L98.2183-39.9747Q103.887-45.6435 105.788-51.941Q107.689-58.2385 106.018-64.3438Q104.347-70.4492 99.2499-75.5984Z"/>
  </g>
  <g id="Light-M" transform="matrix(1 0 0 1 1094.89 1126)">
   <path d="M39.3346-50.1788L19.8338-30.6501Q14.3021-25.084 12.3188-18.8293Q10.3356-12.5746 11.89-6.48942Q13.4445-0.404218 18.3876 4.57373Q23.3651 9.51633 29.4363 11.0536Q35.5076 12.5908 41.7625 10.6248Q48.0174 8.65875 53.6109 3.09264L73.0773-16.4016ZM98.035-75.1364Q93.0849-80.0795 87.0136-81.6305Q80.9424-83.1814 74.6877-81.2154Q68.433-79.2493 62.9013-73.6832L43.3727-54.189L77.1224-20.4118L96.6441-39.9405Q102.21-45.5066 104.162-51.7613Q106.114-58.016 104.563-64.07Q103.012-70.1241 98.035-75.1364Z"/>
  </g>
  <g id="Thin-M" transform="matrix(1 0 0 1 799.21 1126)">
   <path d="M39.606-50.405L19.9018-30.6501Q14.4831-25.2197 12.4319-19.0217Q10.3808-12.8237 11.7543-6.80634Q13.1278-0.789002 17.9351 4.03078Q22.754 8.83726 28.746 10.2049Q34.738 11.5726 40.9365 9.52729Q47.1349 7.48197 52.6151 2.05159L72.3077-17.6917ZM96.4282-74.5254Q91.6591-79.3328 85.6671-80.7254Q79.6751-82.1179 73.4771-80.0726Q67.2791-78.0273 61.8603-72.5969L42.1054-52.8536L74.7688-20.1403L94.562-39.8952Q99.9923-45.3256 102.012-51.5236Q104.032-57.7217 102.64-63.7079Q101.247-69.694 96.4282-74.5254Z"/>
  </g>
  <g id="Ultralight-M" transform="matrix(1 0 0 1 503.026 1126)">
   <path d="M39.7451-50.5209L19.9367-30.6501Q14.5758-25.2892 12.4899-19.1202Q10.404-12.9512 11.6848-6.96866Q12.9656-0.986087 17.7034 3.75268Q22.4411 8.48944 28.3925 9.77026Q34.3438 11.0511 40.5134 8.96515Q46.6829 6.87922 52.1051 1.51837L71.9136-18.3525ZM95.6052-74.2125Q90.9288-78.9503 84.9774-80.2618Q79.026-81.5732 72.857-79.4873Q66.688-77.4014 61.3271-72.0405L41.4563-52.1697L73.5633-20.0013L93.4955-39.8721Q98.8564-45.2329 100.911-51.4019Q102.966-57.5709 101.654-63.5224Q100.343-69.4738 95.6052-74.2125Z"/>
  </g>
  <g id="Black-S" transform="matrix(1 0 0 1 2882.03 696)">
   <path d="M30.4199-47.4121L16.5039-33.4961Q11.6699-28.6621 9.83887-22.583Q8.00781-16.5039 9.39941-10.4492Q10.791-4.39453 15.5273 0.390625Q20.3125 5.17578 26.3428 6.56738Q32.373 7.95898 38.4521 6.12793Q44.5312 4.29688 49.3652-0.537109L63.3789-14.5508ZM87.207-71.2891Q82.4707-76.0742 76.416-77.4658Q70.3613-78.8574 64.2822-77.0264Q58.2031-75.1953 53.3691-70.3613L39.5508-56.5918L72.5098-23.6816L86.2305-37.4023Q91.1133-42.2852 92.9199-48.3398Q94.7266-54.3945 93.3594-60.4492Q91.9922-66.5039 87.207-71.2891Z"/>
  </g>
  <g id="Heavy-S" transform="matrix(1 0 0 1 2586.44 696)">
   <path d="M30.4545-47.2508L16.2619-33.0582Q11.5201-28.3049 9.76972-22.4908Q8.01934-16.6768 9.41094-10.9102Q10.8025-5.14362 15.366-0.531332Q19.9783 4.06943 25.7262 5.45527Q31.4741 6.84111 37.2882 5.09649Q43.1022 3.35187 47.8555-1.40144L62.1112-15.6571ZM85.1211-70.298Q80.5461-74.8987 74.7795-76.2846Q69.013-77.6704 63.1989-75.9258Q57.3849-74.1812 52.6431-69.4278L38.5251-55.3587L70.1933-23.7277L84.2252-37.7711Q89.0158-42.5617 90.7418-48.3571Q92.4678-54.1525 91.1006-59.9133Q89.7334-65.6741 85.1211-70.298Z"/>
  </g>
  <g id="Bold-S" transform="matrix(1 0 0 1 2290.98 696)">
   <path d="M30.4932-47.0703L15.9912-32.5684Q11.3525-27.9053 9.69238-22.3877Q8.03223-16.8701 9.42383-11.4258Q10.8154-5.98145 15.1855-1.5625Q19.6045 2.83203 25.0366 4.21143Q30.4688 5.59082 35.9863 3.94287Q41.5039 2.29492 46.167-2.36816L60.6934-16.8945ZM82.7881-69.1895Q78.3936-73.584 72.9492-74.9634Q67.5049-76.3428 61.9873-74.6948Q56.4697-73.0469 51.8311-68.3838L37.3779-53.9795L67.6025-23.7793L81.9824-38.1836Q86.6699-42.8711 88.3057-48.3765Q89.9414-53.8818 88.5742-59.314Q87.207-64.7461 82.7881-69.1895Z"/>
  </g>
  <g id="Semibold-S" transform="matrix(1 0 0 1 1995.13 696)">
   <path d="M30.5198-46.9459L15.8046-32.2307Q11.237-27.6298 9.63906-22.3166Q8.04111-17.0034 9.43271-11.7812Q10.8243-6.55908 15.0611-2.27344Q19.3468 1.97891 24.5612 3.35386Q29.7756 4.72881 35.0888 3.14751Q40.402 1.56621 45.0028-3.03467L59.7158-17.7477ZM81.1796-68.4252Q76.9095-72.6775 71.6873-74.0525Q66.4651-75.4274 61.152-73.8461Q55.8388-72.2648 51.2712-67.664L36.587-53.0286L65.8163-23.8148L80.4361-38.468Q85.0525-43.0844 86.6261-48.3898Q88.1996-53.6952 86.8324-58.9007Q85.4652-64.1063 81.1796-68.4252Z"/>
  </g>
  <g id="Medium-S" transform="matrix(1 0 0 1 1699.07 696)">
   <path d="M30.54-46.8516L15.6631-31.9746Q11.1494-27.4209 9.59863-22.2627Q8.04785-17.1045 9.43945-12.0508Q10.8311-6.99707 14.9668-2.8125Q19.1514 1.33203 24.2007 2.70361Q29.25 4.0752 34.4082 2.54443Q39.5664 1.01367 44.1201-3.54004L58.9746-18.3945ZM79.96-67.8457Q75.7842-71.9902 70.7305-73.3618Q65.6768-74.7334 60.5186-73.2026Q55.3604-71.6719 50.8467-67.1182L35.9873-52.3076L64.4619-23.8418L79.2637-38.6836Q83.8262-43.2461 85.3525-48.3999Q86.8789-53.5537 85.5117-58.5874Q84.1445-63.6211 79.96-67.8457Z"/>
  </g>
  <g id="Regular-S" transform="matrix(1 0 0 1 1403.21 696)">
   <path d="M30.5664-46.7285L15.4785-31.6406Q11.0352-27.1484 9.5459-22.1924Q8.05664-17.2363 9.44824-12.4023Q10.8398-7.56836 14.8438-3.51562Q18.8965 0.488281 23.7305 1.85547Q28.5645 3.22266 33.5205 1.75781Q38.4766 0.292969 42.9688-4.19922L58.0078-19.2383ZM78.3691-67.0898Q74.3164-71.0938 69.4824-72.4609Q64.6484-73.8281 59.6924-72.3633Q54.7363-70.8984 50.293-66.4062L35.2051-51.3672L62.6953-23.877L77.7344-38.9648Q82.2266-43.457 83.6914-48.4131Q85.1562-53.3691 83.7891-58.1787Q82.4219-62.9883 78.3691-67.0898Z"/>
  </g>
  <g id="Light-S" transform="matrix(1 0 0 1 1107.19 696)">
   <path d="M30.748-46.8798L15.524-31.6406Q11.1562-27.2392 9.62156-22.3211Q8.0869-17.4029 9.35745-12.6143Q10.628-7.82572 14.5411-3.87878Q18.4878 0.034078 23.2688 1.28784Q28.0497 2.54161 32.968 1.02374Q37.8863-0.49413 42.3027-4.89553L57.4931-20.1012ZM77.2944-66.6812Q73.3627-70.5943 68.5818-71.8555Q63.8008-73.1168 58.8826-71.5989Q53.9645-70.0811 49.5967-65.6797L34.3575-50.474L61.1211-23.6954L76.3418-38.9346Q80.7432-43.336 82.2534-48.2541Q83.7636-53.1723 82.5024-57.9365Q81.2411-62.7007 77.2944-66.6812Z"/>
  </g>
  <g id="Thin-S" transform="matrix(1 0 0 1 811.391 696)">
   <path d="M30.9881-47.08L15.5842-31.6406Q11.3163-27.3593 9.72162-22.4913Q8.12693-17.6232 9.23738-12.8947Q10.3478-8.16611 14.1409-4.35909Q17.9473-0.566643 22.6581 0.537109Q27.369 1.64086 32.2373 0.0528643Q37.1056-1.53513 41.4218-5.81645L56.8123-21.2424ZM75.873-66.1406Q72.1014-69.9337 67.3906-71.0549Q62.6798-72.176 57.8117-70.588Q52.9437-69 48.6757-64.7187L33.2364-49.2928L59.0391-23.4552L74.4999-38.8946Q78.7812-43.1759 80.3515-48.0439Q81.9218-52.912 80.8006-57.6161Q79.6794-62.3202 75.873-66.1406Z"/>
  </g>
  <g id="Ultralight-S" transform="matrix(1 0 0 1 515.146 696)">
   <path d="M31.1111-47.1825L15.6151-31.6406Q11.3983-27.4208 9.77287-22.5784Q8.14743-17.7361 9.17587-13.0383Q10.2043-8.34045 13.9359-4.6051Q17.6704-0.874329 22.3454 0.152588Q27.0203 1.1795 31.863-0.444412Q36.7058-2.06833 40.9706-6.28815L56.4636-21.8269ZM75.145-65.8638Q71.4554-69.5953 66.7805-70.6448Q62.1056-71.6942 57.2632-70.0703Q52.4208-68.4464 48.204-64.2265L32.6622-48.6877L57.9727-23.3322L73.5565-38.8741Q77.7763-43.0939 79.3774-47.9362Q80.9784-52.7786 79.929-57.452Q78.8795-62.1254 75.145-65.8638Z"/>
  </g>
 </g>
</svg>
